<svg width="320" height="213" viewBox="0 0 320 213" fill="none" xmlns="http://www.w3.org/2000/svg">
<rect y="2" width="100" height="20" fill="#A8ADB4"/>
<rect y="33.5" width="175" height="17" fill="#A8ADB4"/>
<rect x="1" y="70" width="175" height="58" rx="5" fill="white"/>
<path d="M24.98 92.72V101.96C24.98 102.947 24.7733 103.84 24.36 104.64C23.96 105.427 23.34 106.053 22.5 106.52C21.66 106.973 20.6 107.2 19.32 107.2C17.5067 107.2 16.1267 106.72 15.18 105.76C14.2467 104.787 13.78 103.507 13.78 101.92V92.72H15.94V101.82C15.94 104.18 17.1 105.36 19.42 105.36C20.62 105.36 21.4867 105.04 22.02 104.4C22.5667 103.76 22.84 102.893 22.84 101.8V92.72H24.98ZM33.8056 96.02C35.1123 96.02 36.159 96.4867 36.9456 97.42C37.7323 98.3533 38.1256 99.7467 38.1256 101.6C38.1256 103.427 37.7256 104.82 36.9256 105.78C36.1256 106.727 35.079 107.2 33.7856 107.2C32.9723 107.2 32.3056 107.053 31.7856 106.76C31.2656 106.453 30.8523 106.093 30.5456 105.68H30.4056C30.4323 105.92 30.459 106.207 30.4856 106.54C30.5256 106.86 30.5456 107.147 30.5456 107.4V111.8H28.4256V96.22H30.1456L30.4456 97.66H30.5456C30.8523 97.2067 31.259 96.82 31.7656 96.5C32.2856 96.18 32.9656 96.02 33.8056 96.02ZM33.3056 97.76C32.3056 97.76 31.599 98.0467 31.1856 98.62C30.7723 99.1933 30.559 100.073 30.5456 101.26V101.58C30.5456 102.833 30.7456 103.793 31.1456 104.46C31.5456 105.127 32.279 105.46 33.3456 105.46C34.2256 105.46 34.879 105.1 35.3056 104.38C35.7323 103.66 35.9456 102.72 35.9456 101.56C35.9456 100.387 35.7256 99.46 35.2856 98.78C34.859 98.1 34.199 97.76 33.3056 97.76ZM42.948 107H40.828V91.8H42.948V107ZM55.7772 101.6C55.7772 103.387 55.3172 104.767 54.3972 105.74C53.4772 106.713 52.2372 107.2 50.6772 107.2C49.7039 107.2 48.8372 106.987 48.0772 106.56C47.3305 106.12 46.7372 105.487 46.2972 104.66C45.8705 103.82 45.6572 102.8 45.6572 101.6C45.6572 99.8133 46.1105 98.44 47.0172 97.48C47.9239 96.5067 49.1639 96.02 50.7372 96.02C51.7239 96.02 52.5905 96.24 53.3372 96.68C54.0972 97.1067 54.6905 97.7333 55.1172 98.56C55.5572 99.3867 55.7772 100.4 55.7772 101.6ZM47.8372 101.6C47.8372 102.813 48.0639 103.76 48.5172 104.44C48.9839 105.12 49.7172 105.46 50.7172 105.46C51.7172 105.46 52.4439 105.12 52.8972 104.44C53.3639 103.76 53.5972 102.813 53.5972 101.6C53.5972 100.373 53.3639 99.4333 52.8972 98.78C52.4439 98.1133 51.7105 97.78 50.6972 97.78C49.6972 97.78 48.9705 98.1133 48.5172 98.78C48.0639 99.4333 47.8372 100.373 47.8372 101.6ZM62.6447 96.02C63.9914 96.02 64.998 96.32 65.6647 96.92C66.3447 97.5067 66.6847 98.4333 66.6847 99.7V107H65.1847L64.7647 105.5H64.6847C64.218 106.087 63.7247 106.52 63.2047 106.8C62.698 107.067 61.9914 107.2 61.0847 107.2C60.1114 107.2 59.3047 106.94 58.6647 106.42C58.0247 105.887 57.7047 105.06 57.7047 103.94C57.7047 102.833 58.118 102 58.9447 101.44C59.7847 100.867 61.058 100.553 62.7647 100.5L64.6047 100.44V99.84C64.6047 99.0533 64.4247 98.5 64.0647 98.18C63.7047 97.8467 63.198 97.68 62.5447 97.68C61.998 97.68 61.4714 97.76 60.9647 97.92C60.458 98.08 59.9714 98.2733 59.5047 98.5L58.8247 96.96C59.3314 96.6933 59.9114 96.4733 60.5647 96.3C61.2314 96.1133 61.9247 96.02 62.6447 96.02ZM64.5847 101.82L63.1447 101.86C61.918 101.913 61.0647 102.12 60.5847 102.48C60.118 102.84 59.8847 103.333 59.8847 103.96C59.8847 104.52 60.0514 104.927 60.3847 105.18C60.718 105.433 61.1514 105.56 61.6847 105.56C62.5114 105.56 63.198 105.327 63.7447 104.86C64.3047 104.393 64.5847 103.693 64.5847 102.76V101.82ZM73.6491 107.2C72.3424 107.2 71.2957 106.733 70.5091 105.8C69.7224 104.867 69.3291 103.48 69.3291 101.64C69.3291 99.7867 69.7291 98.3867 70.5291 97.44C71.3291 96.4933 72.3824 96.02 73.6891 96.02C74.5024 96.02 75.1691 96.1733 75.6891 96.48C76.2091 96.7867 76.6291 97.16 76.9491 97.6H77.0691C77.0424 97.4133 77.0091 97.14 76.9691 96.78C76.9291 96.42 76.9091 96.1067 76.9091 95.84V91.8H79.0291V107H77.3691L77.0091 105.56H76.9091C76.6024 106.013 76.1891 106.4 75.6691 106.72C75.1491 107.04 74.4757 107.2 73.6491 107.2ZM74.1491 105.46C75.1891 105.46 75.9157 105.173 76.3291 104.6C76.7557 104.027 76.9757 103.153 76.9891 101.98V101.66C76.9891 100.393 76.7824 99.4267 76.3691 98.76C75.9691 98.0933 75.2224 97.76 74.1291 97.76C73.2624 97.76 72.6091 98.1067 72.1691 98.8C71.7291 99.4933 71.5091 100.453 71.5091 101.68C71.5091 102.893 71.7291 103.827 72.1691 104.48C72.6091 105.133 73.2691 105.46 74.1491 105.46ZM91.7267 96.02C93.0734 96.02 94.0801 96.32 94.7467 96.92C95.4267 97.5067 95.7667 98.4333 95.7667 99.7V107H94.2667L93.8467 105.5H93.7667C93.3001 106.087 92.8067 106.52 92.2867 106.8C91.7801 107.067 91.0734 107.2 90.1667 107.2C89.1934 107.2 88.3867 106.94 87.7467 106.42C87.1067 105.887 86.7867 105.06 86.7867 103.94C86.7867 102.833 87.2001 102 88.0267 101.44C88.8667 100.867 90.1401 100.553 91.8467 100.5L93.6867 100.44V99.84C93.6867 99.0533 93.5067 98.5 93.1467 98.18C92.7867 97.8467 92.2801 97.68 91.6267 97.68C91.0801 97.68 90.5534 97.76 90.0467 97.92C89.5401 98.08 89.0534 98.2733 88.5867 98.5L87.9067 96.96C88.4134 96.6933 88.9934 96.4733 89.6467 96.3C90.3134 96.1133 91.0067 96.02 91.7267 96.02ZM93.6667 101.82L92.2267 101.86C91.0001 101.913 90.1467 102.12 89.6667 102.48C89.2001 102.84 88.9667 103.333 88.9667 103.96C88.9667 104.52 89.1334 104.927 89.4667 105.18C89.8001 105.433 90.2334 105.56 90.7667 105.56C91.5934 105.56 92.2801 105.327 92.8267 104.86C93.3867 104.393 93.6667 103.693 93.6667 102.76V101.82ZM109.486 97.84H106.826V107H104.706V97.84H102.886V96.84L104.706 96.18V95.5C104.706 94.1267 105.02 93.1533 105.646 92.58C106.286 91.9933 107.173 91.7 108.306 91.7C108.773 91.7 109.2 91.74 109.586 91.82C109.973 91.9 110.3 91.9867 110.566 92.08L110.026 93.7C109.8 93.6333 109.546 93.5733 109.266 93.52C108.986 93.4533 108.7 93.42 108.406 93.42C107.353 93.42 106.826 94.12 106.826 95.52V96.22H109.486V97.84ZM112.455 92.12C112.775 92.12 113.055 92.2133 113.295 92.4C113.535 92.5867 113.655 92.9 113.655 93.34C113.655 93.7667 113.535 94.08 113.295 94.28C113.055 94.4667 112.775 94.56 112.455 94.56C112.122 94.56 111.835 94.4667 111.595 94.28C111.355 94.08 111.235 93.7667 111.235 93.34C111.235 92.9 111.355 92.5867 111.595 92.4C111.835 92.2133 112.122 92.12 112.455 92.12ZM113.495 96.22V107H111.375V96.22H113.495ZM118.944 107H116.824V91.8H118.944V107ZM126.513 96.02C127.927 96.02 129.04 96.46 129.853 97.34C130.667 98.2067 131.073 99.3933 131.073 100.9V102.06H123.833C123.86 103.167 124.147 104.013 124.693 104.6C125.253 105.187 126.033 105.48 127.033 105.48C127.727 105.48 128.34 105.42 128.873 105.3C129.42 105.167 129.98 104.973 130.553 104.72V106.48C130.007 106.733 129.46 106.913 128.913 107.02C128.367 107.14 127.713 107.2 126.953 107.2C125.913 107.2 124.993 106.993 124.193 106.58C123.393 106.167 122.767 105.553 122.313 104.74C121.873 103.927 121.653 102.913 121.653 101.7C121.653 100.487 121.853 99.46 122.253 98.62C122.667 97.78 123.233 97.14 123.953 96.7C124.687 96.2467 125.54 96.02 126.513 96.02ZM126.513 97.66C125.753 97.66 125.14 97.9067 124.673 98.4C124.22 98.8933 123.953 99.5933 123.873 100.5H128.953C128.94 99.66 128.733 98.98 128.333 98.46C127.947 97.9267 127.34 97.66 126.513 97.66Z" fill="#26374A"/>
<path d="M149.102 96.6484C149.57 97.1562 150.391 97.1562 150.859 96.6484L153.75 93.7969V103.25C153.75 103.953 154.297 104.5 155 104.5C155.664 104.5 156.25 103.953 156.25 103.25V93.7969L159.102 96.6484C159.57 97.1562 160.391 97.1562 160.859 96.6484C161.367 96.1797 161.367 95.3594 160.859 94.8906L155.859 89.8906C155.625 89.6562 155.312 89.5 155 89.5C154.648 89.5 154.336 89.6562 154.102 89.8906L149.102 94.8906C148.594 95.3594 148.594 96.1797 149.102 96.6484ZM163.75 103.25H157.5C157.5 104.656 156.367 105.75 155 105.75C153.594 105.75 152.5 104.656 152.5 103.25H146.25C145.547 103.25 145 103.836 145 104.5V108.25C145 108.953 145.547 109.5 146.25 109.5H163.75C164.414 109.5 165 108.953 165 108.25V104.5C165 103.836 164.414 103.25 163.75 103.25ZM161.875 107.312C161.328 107.312 160.938 106.922 160.938 106.375C160.938 105.867 161.328 105.438 161.875 105.438C162.383 105.438 162.812 105.867 162.812 106.375C162.812 106.922 162.383 107.312 161.875 107.312Z" fill="#26374A"/>
<rect x="1" y="70" width="175" height="58" rx="5" stroke="#26374A" stroke-width="2"/>
<rect y="147" width="320" height="66" rx="33" fill="#D6D9DD"/>
<rect x="24" y="170" width="200" height="20" fill="#A8ADB4"/>
<rect x="266" y="159" width="42" height="42" rx="21" fill="#C24438"/>
<path d="M292.859 184.641C293.367 185.109 293.367 185.93 292.859 186.398C292.625 186.633 292.312 186.75 292 186.75C291.648 186.75 291.336 186.633 291.102 186.398L287 182.297L282.859 186.398C282.625 186.633 282.312 186.75 282 186.75C281.648 186.75 281.336 186.633 281.102 186.398C280.594 185.93 280.594 185.109 281.102 184.641L285.203 180.5L281.102 176.398C280.594 175.93 280.594 175.109 281.102 174.641C281.57 174.133 282.391 174.133 282.859 174.641L287 178.742L291.102 174.641C291.57 174.133 292.391 174.133 292.859 174.641C293.367 175.109 293.367 175.93 292.859 176.398L288.758 180.539L292.859 184.641Z" fill="white"/>
</svg>
