<svg width="320" height="54" viewBox="0 0 320 54" fill="none" xmlns="http://www.w3.org/2000/svg">
<rect width="320" height="54" fill="#26374A"/>
<path d="M31.378 32L30.65 29.62H27.01L26.282 32H24L27.528 21.962H30.118L33.66 32H31.378ZM29.418 25.518C29.3713 25.3593 29.3107 25.1587 29.236 24.916C29.1613 24.6733 29.0867 24.426 29.012 24.174C28.9373 23.922 28.8767 23.7027 28.83 23.516C28.7833 23.7027 28.718 23.936 28.634 24.216C28.5593 24.4867 28.4847 24.748 28.41 25C28.3447 25.2427 28.2933 25.4153 28.256 25.518L27.542 27.842H30.146L29.418 25.518ZM34.926 32V22.004H37.04V30.25H41.1V32H34.926ZM46.034 22.004C47.322 22.004 48.26 22.284 48.848 22.844C49.4454 23.3947 49.744 24.1553 49.744 25.126C49.744 25.7047 49.6227 26.2507 49.38 26.764C49.1374 27.268 48.7314 27.674 48.162 27.982C47.602 28.29 46.8367 28.444 45.866 28.444H44.956V32H42.842V22.004H46.034ZM45.922 23.74H44.956V26.708H45.656C46.2534 26.708 46.7247 26.5913 47.07 26.358C47.4247 26.1153 47.602 25.728 47.602 25.196C47.602 24.2253 47.042 23.74 45.922 23.74ZM59.823 32H57.709V27.688H53.747V32H51.633V22.004H53.747V25.924H57.709V22.004H59.823V32ZM68.4561 32L67.7281 29.62H64.0881L63.3601 32H61.0781L64.6061 21.962H67.1961L70.7381 32H68.4561ZM66.4961 25.518C66.4495 25.3593 66.3888 25.1587 66.3141 24.916C66.2395 24.6733 66.1648 24.426 66.0901 24.174C66.0155 23.922 65.9548 23.7027 65.9081 23.516C65.8615 23.7027 65.7961 23.936 65.7121 24.216C65.6375 24.4867 65.5628 24.748 65.4881 25C65.4228 25.2427 65.3715 25.4153 65.3341 25.518L64.6201 27.842H67.2241L66.4961 25.518Z" fill="white"/>
<rect x="16" y="16" width="63" height="22" stroke="white" stroke-width="2"/>
<rect x="95" y="15" width="203" height="24" fill="#6584A6"/>
</svg>
