<svg width="115" height="60" viewBox="0 0 115 60" fill="none" xmlns="http://www.w3.org/2000/svg">
<rect width="115" height="60" rx="6" fill="#26374A"/>
<path d="M13.9 23.72H18.08C19.8933 23.72 21.2667 23.9867 22.2 24.52C23.1467 25.0533 23.62 25.9733 23.62 27.28C23.62 28.1067 23.3933 28.8 22.94 29.36C22.5 29.92 21.8667 30.2733 21.04 30.42V30.52C21.6 30.6267 22.1067 30.8067 22.56 31.06C23.0267 31.3 23.3933 31.6533 23.66 32.12C23.9267 32.5733 24.06 33.1733 24.06 33.92C24.06 35.2267 23.6067 36.2333 22.7 36.94C21.7933 37.6467 20.5667 38 19.02 38H13.9V23.72ZM16.06 29.68H18.44C19.56 29.68 20.3267 29.5 20.74 29.14C21.1667 28.78 21.38 28.2467 21.38 27.54C21.38 26.8333 21.12 26.3267 20.6 26.02C20.0933 25.7 19.2933 25.54 18.2 25.54H16.06V29.68ZM16.06 31.44V36.2H18.68C19.8267 36.2 20.6267 35.9733 21.08 35.52C21.5467 35.0667 21.78 34.4667 21.78 33.72C21.78 33.04 21.54 32.4933 21.06 32.08C20.5933 31.6533 19.7533 31.44 18.54 31.44H16.06ZM36.065 27.22V38H34.365L34.065 36.58H33.965C33.6183 37.14 33.1383 37.5533 32.525 37.82C31.9117 38.0733 31.265 38.2 30.585 38.2C29.3183 38.2 28.3517 37.8933 27.685 37.28C27.0183 36.6533 26.685 35.6533 26.685 34.28V27.22H28.825V33.96C28.825 34.8 28.9983 35.4267 29.345 35.84C29.705 36.2533 30.2583 36.46 31.005 36.46C32.1117 36.46 32.8783 36.14 33.305 35.5C33.7317 34.8467 33.945 33.9067 33.945 32.68V27.22H36.065ZM43.2627 36.48C43.8627 36.48 44.4027 36.3933 44.8827 36.22V37.82C44.656 37.9267 44.3493 38.0133 43.9627 38.08C43.576 38.16 43.1893 38.2 42.8027 38.2C42.216 38.2 41.676 38.1 41.1827 37.9C40.7027 37.7 40.316 37.3533 40.0227 36.86C39.7293 36.3667 39.5827 35.68 39.5827 34.8V28.84H38.0827V27.88L39.6627 27.08L40.4027 24.8H41.7027V27.22H44.7827V28.84H41.7027V34.76C41.7027 35.3467 41.8427 35.78 42.1227 36.06C42.416 36.34 42.796 36.48 43.2627 36.48ZM50.9189 36.48C51.5189 36.48 52.0589 36.3933 52.5389 36.22V37.82C52.3122 37.9267 52.0056 38.0133 51.6189 38.08C51.2322 38.16 50.8456 38.2 50.4589 38.2C49.8722 38.2 49.3322 38.1 48.8389 37.9C48.3589 37.7 47.9722 37.3533 47.6789 36.86C47.3856 36.3667 47.2389 35.68 47.2389 34.8V28.84H45.7389V27.88L47.3189 27.08L48.0589 24.8H49.3589V27.22H52.4389V28.84H49.3589V34.76C49.3589 35.3467 49.4989 35.78 49.7789 36.06C50.0722 36.34 50.4522 36.48 50.9189 36.48ZM64.1952 32.6C64.1952 34.3867 63.7352 35.7667 62.8152 36.74C61.8952 37.7133 60.6552 38.2 59.0952 38.2C58.1218 38.2 57.2552 37.9867 56.4952 37.56C55.7485 37.12 55.1552 36.4867 54.7152 35.66C54.2885 34.82 54.0752 33.8 54.0752 32.6C54.0752 30.8133 54.5285 29.44 55.4352 28.48C56.3418 27.5067 57.5818 27.02 59.1552 27.02C60.1418 27.02 61.0085 27.24 61.7552 27.68C62.5152 28.1067 63.1085 28.7333 63.5352 29.56C63.9752 30.3867 64.1952 31.4 64.1952 32.6ZM56.2552 32.6C56.2552 33.8133 56.4818 34.76 56.9352 35.44C57.4018 36.12 58.1352 36.46 59.1352 36.46C60.1352 36.46 60.8618 36.12 61.3152 35.44C61.7818 34.76 62.0152 33.8133 62.0152 32.6C62.0152 31.3733 61.7818 30.4333 61.3152 29.78C60.8618 29.1133 60.1285 28.78 59.1152 28.78C58.1152 28.78 57.3885 29.1133 56.9352 29.78C56.4818 30.4333 56.2552 31.3733 56.2552 32.6ZM72.3427 27.02C73.596 27.02 74.556 27.3333 75.2227 27.96C75.8893 28.5867 76.2227 29.5933 76.2227 30.98V38H74.1227V31.28C74.1227 29.6 73.3827 28.76 71.9027 28.76C70.8093 28.76 70.0493 29.0867 69.6227 29.74C69.2093 30.3933 69.0027 31.3333 69.0027 32.56V38H66.8827V27.22H68.5627L68.8627 28.66H68.9827C69.3293 28.1 69.8027 27.6867 70.4027 27.42C71.016 27.1533 71.6627 27.02 72.3427 27.02Z" fill="white"/>
<path d="M94 39.25C93.6484 39.25 93.3359 39.1328 93.1016 38.8984C92.5938 38.4297 92.5938 37.6094 93.1016 37.1406L99.7031 30.5L93.1016 23.8984C92.5938 23.4297 92.5938 22.6094 93.1016 22.1406C93.5703 21.6328 94.3906 21.6328 94.8594 22.1406L102.359 29.6406C102.867 30.1094 102.867 30.9297 102.359 31.3984L94.8594 38.8984C94.625 39.1328 94.3125 39.25 94 39.25Z" fill="white"/>
</svg>
