<svg width="1440" height="95" viewBox="0 0 1440 95" fill="none" xmlns="http://www.w3.org/2000/svg">
<rect width="1440" height="95" fill="#F2F2F2"/>
<path d="M158.72 49.5L157.344 45.964H152.816L151.456 49.5H150L154.464 38.028H155.76L160.208 49.5H158.72ZM155.632 41.228C155.6 41.1427 155.547 40.988 155.472 40.764C155.397 40.54 155.323 40.3107 155.248 40.076C155.184 39.8307 155.131 39.644 155.088 39.516C155.013 39.8467 154.928 40.172 154.832 40.492C154.736 40.8013 154.656 41.0467 154.592 41.228L153.296 44.684H156.912L155.632 41.228ZM163.467 49.5L160.219 40.924H161.723L163.547 45.98C163.632 46.2147 163.723 46.476 163.819 46.764C163.915 47.052 164 47.3293 164.075 47.596C164.149 47.852 164.203 48.0707 164.235 48.252H164.299C164.341 48.0707 164.4 47.8467 164.475 47.58C164.56 47.3133 164.651 47.036 164.747 46.748C164.853 46.46 164.944 46.204 165.019 45.98L166.843 40.924H168.347L165.083 49.5H163.467ZM170.424 37.708C170.637 37.708 170.824 37.7827 170.984 37.932C171.154 38.0707 171.24 38.2947 171.24 38.604C171.24 38.9027 171.154 39.1267 170.984 39.276C170.824 39.4253 170.637 39.5 170.424 39.5C170.189 39.5 169.992 39.4253 169.832 39.276C169.672 39.1267 169.592 38.9027 169.592 38.604C169.592 38.2947 169.672 38.0707 169.832 37.932C169.992 37.7827 170.189 37.708 170.424 37.708ZM171.112 40.924V49.5H169.704V40.924H171.112ZM179.413 47.132C179.413 47.964 179.103 48.5933 178.485 49.02C177.866 49.4467 177.034 49.66 175.989 49.66C175.391 49.66 174.874 49.612 174.437 49.516C174.01 49.42 173.631 49.2867 173.301 49.116V47.836C173.642 48.0067 174.053 48.1667 174.533 48.316C175.023 48.4547 175.519 48.524 176.021 48.524C176.735 48.524 177.253 48.412 177.573 48.188C177.893 47.9533 178.053 47.644 178.053 47.26C178.053 47.0467 177.994 46.8547 177.877 46.684C177.759 46.5133 177.546 46.3427 177.237 46.172C176.938 46.0013 176.506 45.8093 175.941 45.596C175.386 45.3827 174.911 45.1693 174.517 44.956C174.122 44.7427 173.818 44.4867 173.605 44.188C173.391 43.8893 173.285 43.5053 173.285 43.036C173.285 42.3107 173.578 41.7507 174.165 41.356C174.762 40.9613 175.541 40.764 176.501 40.764C177.023 40.764 177.509 40.8173 177.957 40.924C178.415 41.02 178.842 41.1587 179.237 41.34L178.757 42.46C178.394 42.3107 178.015 42.1827 177.621 42.076C177.226 41.9693 176.821 41.916 176.405 41.916C175.829 41.916 175.386 42.012 175.077 42.204C174.778 42.3853 174.629 42.636 174.629 42.956C174.629 43.1907 174.698 43.3933 174.837 43.564C174.975 43.724 175.205 43.884 175.525 44.044C175.855 44.1933 176.293 44.3747 176.837 44.588C177.381 44.7907 177.845 44.9987 178.229 45.212C178.613 45.4253 178.906 45.6867 179.109 45.996C179.311 46.2947 179.413 46.6733 179.413 47.132Z" fill="#1F497A"/>
<rect x="193" y="41.5" width="4" height="4" rx="2" fill="#333333"/>
<path d="M215.448 39.18C214.221 39.18 213.256 39.5907 212.552 40.412C211.848 41.2333 211.496 42.3587 211.496 43.788C211.496 45.2067 211.821 46.332 212.472 47.164C213.133 47.9853 214.12 48.396 215.432 48.396C215.933 48.396 216.408 48.3533 216.856 48.268C217.304 48.1827 217.741 48.076 218.168 47.948V49.196C217.741 49.356 217.299 49.4733 216.84 49.548C216.392 49.6227 215.853 49.66 215.224 49.66C214.061 49.66 213.091 49.42 212.312 48.94C211.533 48.46 210.947 47.7773 210.552 46.892C210.168 46.0067 209.976 44.9667 209.976 43.772C209.976 42.62 210.184 41.6067 210.6 40.732C211.027 39.8467 211.651 39.1587 212.472 38.668C213.293 38.1667 214.291 37.916 215.464 37.916C216.669 37.916 217.72 38.14 218.616 38.588L218.04 39.804C217.688 39.644 217.293 39.5 216.856 39.372C216.429 39.244 215.96 39.18 215.448 39.18ZM227.925 45.196C227.925 46.6147 227.563 47.7133 226.837 48.492C226.123 49.2707 225.152 49.66 223.925 49.66C223.168 49.66 222.491 49.4893 221.893 49.148C221.307 48.796 220.843 48.2893 220.501 47.628C220.16 46.956 219.989 46.1453 219.989 45.196C219.989 43.7773 220.347 42.684 221.061 41.916C221.776 41.148 222.747 40.764 223.973 40.764C224.752 40.764 225.435 40.94 226.021 41.292C226.619 41.6333 227.083 42.1347 227.413 42.796C227.755 43.4467 227.925 44.2467 227.925 45.196ZM221.445 45.196C221.445 46.2093 221.643 47.0147 222.037 47.612C222.443 48.1987 223.083 48.492 223.957 48.492C224.821 48.492 225.456 48.1987 225.861 47.612C226.267 47.0147 226.469 46.2093 226.469 45.196C226.469 44.1827 226.267 43.388 225.861 42.812C225.456 42.236 224.816 41.948 223.941 41.948C223.067 41.948 222.432 42.236 222.037 42.812C221.643 43.388 221.445 44.1827 221.445 45.196ZM234.285 40.764C235.309 40.764 236.082 41.0147 236.605 41.516C237.128 42.0067 237.389 42.8067 237.389 43.916V49.5H235.997V44.012C235.997 42.636 235.357 41.948 234.077 41.948C233.128 41.948 232.472 42.2147 232.109 42.748C231.746 43.2813 231.565 44.0493 231.565 45.052V49.5H230.157V40.924H231.293L231.501 42.092H231.581C231.858 41.644 232.242 41.3133 232.733 41.1C233.224 40.876 233.741 40.764 234.285 40.764ZM244 42.012H241.84V49.5H240.432V42.012H238.928V41.356L240.432 40.876V40.38C240.432 39.2707 240.677 38.476 241.168 37.996C241.658 37.5053 242.341 37.26 243.216 37.26C243.557 37.26 243.866 37.292 244.144 37.356C244.432 37.4093 244.677 37.4733 244.88 37.548L244.512 38.652C244.341 38.5987 244.144 38.5453 243.92 38.492C243.696 38.4387 243.466 38.412 243.232 38.412C242.762 38.412 242.41 38.572 242.176 38.892C241.952 39.2013 241.84 39.692 241.84 40.364V40.924H244V42.012ZM246.272 37.708C246.485 37.708 246.672 37.7827 246.832 37.932C247.002 38.0707 247.088 38.2947 247.088 38.604C247.088 38.9027 247.002 39.1267 246.832 39.276C246.672 39.4253 246.485 39.5 246.272 39.5C246.037 39.5 245.84 39.4253 245.68 39.276C245.52 39.1267 245.44 38.9027 245.44 38.604C245.44 38.2947 245.52 38.0707 245.68 37.932C245.84 37.7827 246.037 37.708 246.272 37.708ZM246.96 40.924V49.5H245.552V40.924H246.96ZM252.713 49.66C251.646 49.66 250.793 49.292 250.153 48.556C249.513 47.8093 249.193 46.7 249.193 45.228C249.193 43.756 249.513 42.6467 250.153 41.9C250.803 41.1427 251.662 40.764 252.729 40.764C253.39 40.764 253.929 40.8867 254.345 41.132C254.771 41.3773 255.118 41.676 255.385 42.028H255.481C255.47 41.8893 255.449 41.6867 255.417 41.42C255.395 41.1427 255.385 40.924 255.385 40.764V37.34H256.793V49.5H255.657L255.449 48.348H255.385C255.129 48.7107 254.787 49.02 254.361 49.276C253.934 49.532 253.385 49.66 252.713 49.66ZM252.937 48.492C253.843 48.492 254.478 48.2467 254.841 47.756C255.214 47.2547 255.401 46.5027 255.401 45.5V45.244C255.401 44.1773 255.225 43.3613 254.873 42.796C254.521 42.22 253.87 41.932 252.921 41.932C252.163 41.932 251.593 42.236 251.209 42.844C250.835 43.4413 250.649 44.2467 250.649 45.26C250.649 46.284 250.835 47.0787 251.209 47.644C251.593 48.2093 252.169 48.492 252.937 48.492ZM262.828 40.764C263.564 40.764 264.194 40.924 264.716 41.244C265.25 41.564 265.655 42.0173 265.932 42.604C266.22 43.18 266.364 43.8573 266.364 44.636V45.484H260.492C260.514 46.4547 260.759 47.196 261.228 47.708C261.708 48.2093 262.375 48.46 263.228 48.46C263.772 48.46 264.252 48.412 264.668 48.316C265.095 48.2093 265.532 48.06 265.98 47.868V49.1C265.543 49.292 265.111 49.4307 264.684 49.516C264.258 49.612 263.751 49.66 263.164 49.66C262.354 49.66 261.634 49.4947 261.004 49.164C260.386 48.8333 259.9 48.3427 259.548 47.692C259.207 47.0307 259.036 46.2253 259.036 45.276C259.036 44.3373 259.191 43.532 259.5 42.86C259.82 42.188 260.263 41.6707 260.828 41.308C261.404 40.9453 262.071 40.764 262.828 40.764ZM262.812 41.916C262.14 41.916 261.607 42.1347 261.212 42.572C260.828 42.9987 260.599 43.596 260.524 44.364H264.892C264.882 43.6387 264.711 43.052 264.38 42.604C264.05 42.1453 263.527 41.916 262.812 41.916ZM272.676 40.764C273.7 40.764 274.473 41.0147 274.996 41.516C275.518 42.0067 275.78 42.8067 275.78 43.916V49.5H274.388V44.012C274.388 42.636 273.748 41.948 272.468 41.948C271.518 41.948 270.862 42.2147 270.5 42.748C270.137 43.2813 269.956 44.0493 269.956 45.052V49.5H268.548V40.924H269.684L269.892 42.092H269.972C270.249 41.644 270.633 41.3133 271.124 41.1C271.614 40.876 272.132 40.764 272.676 40.764ZM281.302 48.508C281.515 48.508 281.734 48.492 281.958 48.46C282.182 48.4173 282.363 48.3747 282.502 48.332V49.404C282.353 49.4787 282.139 49.5373 281.862 49.58C281.585 49.6333 281.318 49.66 281.062 49.66C280.614 49.66 280.198 49.5853 279.814 49.436C279.441 49.276 279.137 49.004 278.902 48.62C278.667 48.236 278.55 47.6973 278.55 47.004V42.012H277.334V41.34L278.566 40.78L279.126 38.956H279.958V40.924H282.438V42.012H279.958V46.972C279.958 47.4947 280.081 47.884 280.326 48.14C280.582 48.3853 280.907 48.508 281.302 48.508ZM284.939 37.708C285.153 37.708 285.339 37.7827 285.499 37.932C285.67 38.0707 285.755 38.2947 285.755 38.604C285.755 38.9027 285.67 39.1267 285.499 39.276C285.339 39.4253 285.153 39.5 284.939 39.5C284.705 39.5 284.507 39.4253 284.347 39.276C284.187 39.1267 284.107 38.9027 284.107 38.604C284.107 38.2947 284.187 38.0707 284.347 37.932C284.507 37.7827 284.705 37.708 284.939 37.708ZM285.627 40.924V49.5H284.219V40.924H285.627ZM291.592 40.78C292.638 40.78 293.411 41.0093 293.912 41.468C294.414 41.9267 294.664 42.6573 294.664 43.66V49.5H293.64L293.368 48.284H293.304C292.931 48.7533 292.536 49.1 292.12 49.324C291.715 49.548 291.15 49.66 290.424 49.66C289.646 49.66 289 49.4573 288.488 49.052C287.976 48.636 287.72 47.9907 287.72 47.116C287.72 46.2627 288.056 45.6067 288.728 45.148C289.4 44.6787 290.435 44.4227 291.832 44.38L293.288 44.332V43.82C293.288 43.1053 293.134 42.6093 292.824 42.332C292.515 42.0547 292.078 41.916 291.512 41.916C291.064 41.916 290.638 41.9853 290.232 42.124C289.827 42.252 289.448 42.4013 289.096 42.572L288.664 41.516C289.038 41.3133 289.48 41.1427 289.992 41.004C290.504 40.8547 291.038 40.78 291.592 40.78ZM292.008 45.356C290.942 45.3987 290.2 45.5693 289.784 45.868C289.379 46.1667 289.176 46.588 289.176 47.132C289.176 47.612 289.32 47.964 289.608 48.188C289.907 48.412 290.286 48.524 290.744 48.524C291.47 48.524 292.072 48.3267 292.552 47.932C293.032 47.5267 293.272 46.908 293.272 46.076V45.308L292.008 45.356ZM298.721 49.5H297.313V37.34H298.721V49.5ZM302.158 37.708C302.371 37.708 302.558 37.7827 302.718 37.932C302.889 38.0707 302.974 38.2947 302.974 38.604C302.974 38.9027 302.889 39.1267 302.718 39.276C302.558 39.4253 302.371 39.5 302.158 39.5C301.923 39.5 301.726 39.4253 301.566 39.276C301.406 39.1267 301.326 38.9027 301.326 38.604C301.326 38.2947 301.406 38.0707 301.566 37.932C301.726 37.7827 301.923 37.708 302.158 37.708ZM302.846 40.924V49.5H301.438V40.924H302.846ZM308.427 48.508C308.64 48.508 308.859 48.492 309.083 48.46C309.307 48.4173 309.488 48.3747 309.627 48.332V49.404C309.478 49.4787 309.264 49.5373 308.987 49.58C308.71 49.6333 308.443 49.66 308.187 49.66C307.739 49.66 307.323 49.5853 306.939 49.436C306.566 49.276 306.262 49.004 306.027 48.62C305.792 48.236 305.675 47.6973 305.675 47.004V42.012H304.459V41.34L305.691 40.78L306.251 38.956H307.083V40.924H309.563V42.012H307.083V46.972C307.083 47.4947 307.206 47.884 307.451 48.14C307.707 48.3853 308.032 48.508 308.427 48.508ZM314.656 40.764C315.392 40.764 316.022 40.924 316.544 41.244C317.078 41.564 317.483 42.0173 317.76 42.604C318.048 43.18 318.192 43.8573 318.192 44.636V45.484H312.32C312.342 46.4547 312.587 47.196 313.056 47.708C313.536 48.2093 314.203 48.46 315.056 48.46C315.6 48.46 316.08 48.412 316.496 48.316C316.923 48.2093 317.36 48.06 317.808 47.868V49.1C317.371 49.292 316.939 49.4307 316.512 49.516C316.086 49.612 315.579 49.66 314.992 49.66C314.182 49.66 313.462 49.4947 312.832 49.164C312.214 48.8333 311.728 48.3427 311.376 47.692C311.035 47.0307 310.864 46.2253 310.864 45.276C310.864 44.3373 311.019 43.532 311.328 42.86C311.648 42.188 312.091 41.6707 312.656 41.308C313.232 40.9453 313.899 40.764 314.656 40.764ZM314.64 41.916C313.968 41.916 313.435 42.1347 313.04 42.572C312.656 42.9987 312.427 43.596 312.352 44.364H316.72C316.71 43.6387 316.539 43.052 316.208 42.604C315.878 42.1453 315.355 41.916 314.64 41.916ZM316.912 37.404C316.784 37.596 316.587 37.8467 316.32 38.156C316.054 38.4547 315.766 38.7587 315.456 39.068C315.158 39.3667 314.88 39.612 314.624 39.804H313.696V39.612C313.856 39.4093 314.027 39.1693 314.208 38.892C314.4 38.6147 314.587 38.332 314.768 38.044C314.95 37.7453 315.099 37.4787 315.216 37.244H316.912V37.404Z" fill="#1F497A"/>
<path d="M1281.78 24.2393H1287.74V36.1313H1281.78V24.2393ZM1271.46 30.1853L1271.12 30.2996C1271.12 30.2996 1273.18 32.0148 1273.18 32.1292C1273.3 32.2435 1273.41 32.2435 1273.3 32.5866C1273.18 32.9296 1273.07 33.2726 1273.07 33.2726C1273.07 33.2726 1274.9 32.9296 1275.13 32.8153C1275.36 32.8153 1275.47 32.8152 1275.47 33.0439C1275.47 33.2726 1275.36 35.2165 1275.36 35.2165H1275.93C1275.93 35.2165 1275.82 33.1583 1275.82 33.0439C1275.82 32.8152 1275.93 32.8153 1276.16 32.8153C1276.39 32.8153 1278.22 33.2726 1278.22 33.2726C1278.22 33.2726 1278.11 32.8153 1277.99 32.5866C1277.88 32.2435 1277.99 32.2435 1278.11 32.1292C1278.22 32.0148 1280.17 30.2996 1280.17 30.2996L1279.83 30.1853C1279.6 30.0709 1279.71 29.9566 1279.71 29.8422C1279.71 29.7279 1280.06 28.5844 1280.06 28.5844C1280.06 28.5844 1279.14 28.8131 1279.03 28.8131C1278.91 28.8131 1278.8 28.8131 1278.8 28.6988C1278.8 28.5844 1278.57 28.127 1278.57 28.127C1278.57 28.127 1277.54 29.2705 1277.42 29.3849C1277.19 29.6135 1276.96 29.3849 1277.08 29.1562C1277.08 28.9275 1277.65 26.5262 1277.65 26.5262C1277.65 26.5262 1277.08 26.8692 1276.85 26.9836C1276.62 27.0979 1276.51 27.0979 1276.51 26.8692C1276.39 26.6405 1275.7 25.3827 1275.7 25.2684C1275.7 25.2684 1275.02 26.6405 1274.9 26.8692C1274.79 27.0979 1274.67 27.0979 1274.56 26.9836C1274.33 26.8692 1273.75 26.5262 1273.75 26.5262C1273.75 26.5262 1274.33 28.9275 1274.33 29.1562C1274.33 29.3849 1274.21 29.4992 1273.98 29.3849L1272.84 28.127C1272.84 28.127 1272.72 28.4701 1272.61 28.5844C1272.61 28.6988 1272.49 28.8131 1272.38 28.6988C1272.15 28.6988 1271.23 28.4701 1271.23 28.4701C1271.23 28.4701 1271.58 29.6135 1271.69 29.7279C1271.69 29.8422 1271.69 30.0709 1271.46 30.1853ZM1263.79 24.2393H1269.74V36.1313H1263.79V24.2393Z" fill="#EB2D37"/>
<path d="M1289.07 59.9113C1288.61 60.9404 1287.7 61.2834 1287.12 61.2834C1286.44 61.2834 1284.37 61.1691 1284.37 55.7948C1284.37 55.7948 1284.37 44.932 1284.37 44.2459C1284.37 40.7012 1281.62 37.8426 1274.52 37.8426C1266.84 37.8426 1266.73 41.616 1266.73 42.5307C1266.61 43.5598 1267.18 44.7033 1269.13 44.7033C1270.85 44.7033 1271.31 42.7594 1271.54 42.0733C1271.77 41.2729 1271.88 38.986 1274.98 38.986C1277.61 38.986 1279.22 41.2729 1279.33 44.5889C1279.33 45.1607 1279.33 45.5037 1279.33 45.8467C1279.33 46.0754 1279.33 46.1898 1279.33 46.4185V46.5328C1279.1 47.6763 1278.53 48.248 1277.5 48.7054C1276.12 49.3915 1272.11 49.9632 1271.65 50.0775C1270.05 50.4206 1265.58 51.564 1265.69 56.2522C1265.81 60.826 1270.39 62.4269 1273.6 62.3125C1276.7 62.1982 1278.53 60.9404 1279.33 60.2543C1279.79 59.9113 1279.79 59.9113 1280.13 60.3686C1280.59 60.826 1282.08 62.3125 1285.63 62.3125C1289.3 62.3125 1289.76 60.5973 1289.99 60.0256C1290.1 59.6826 1289.3 59.3395 1289.07 59.9113ZM1274.75 61.1691C1271.54 61.1691 1270.74 58.5391 1270.74 57.167C1270.74 55.9092 1271.42 53.2792 1274.63 51.4497C1274.63 51.4497 1276.12 50.5349 1278.99 49.3915C1279.1 49.3915 1279.22 49.3915 1279.22 49.3915C1279.22 49.3915 1279.33 49.5058 1279.33 49.6202V49.7345V49.8488V54.6514C1279.33 58.4248 1277.5 61.1691 1274.75 61.1691ZM1264.21 61.0547C1263.75 60.9404 1260.88 61.2834 1260.88 52.5931C1260.88 43.9029 1260.88 25.2645 1260.88 25.2645C1260.88 24.9215 1260.88 24.0067 1259.85 24.0067C1258.82 24.0067 1251.94 24.3498 1251.49 24.4641C1251.03 24.4641 1250.68 25.0358 1251.49 25.0358C1252.29 25.1502 1255.95 25.3789 1255.95 31.4392C1255.95 34.4122 1255.95 37.3852 1255.95 39.5577C1255.95 39.6721 1255.95 39.7864 1255.95 39.7864C1255.95 40.0151 1255.95 40.1295 1255.84 40.2438C1255.84 40.2438 1255.84 40.2438 1255.84 40.3582C1255.73 40.4725 1255.61 40.3582 1255.27 40.1295C1254.69 39.6721 1252.06 38.0712 1248.73 38.0712C1243.35 38.0712 1236.7 41.959 1236.7 49.9632C1236.7 58.5391 1242.78 62.6556 1249.08 62.6556C1252.17 62.6556 1254.35 61.2834 1255.15 60.826C1256.07 60.2543 1255.95 60.3686 1256.07 61.1691C1256.18 61.7408 1256.07 62.8843 1257.67 62.7699C1259.39 62.5412 1263.52 62.0838 1264.32 61.9695C1265.12 61.6264 1264.89 61.1691 1264.21 61.0547ZM1250 61.3978C1244.95 61.3978 1242.32 55.4518 1242.32 49.7345C1242.32 43.4455 1245.87 39.2147 1249.65 39.4434C1254.58 39.7864 1255.84 43.6742 1255.95 50.6493C1255.95 51.1066 1255.95 51.564 1255.95 52.1358C1255.84 58.9965 1252.97 61.3978 1250 61.3978ZM1236.59 59.9113C1236.13 60.9404 1235.21 61.2834 1234.64 61.2834C1233.95 61.2834 1231.89 61.1691 1231.89 55.7948C1231.89 55.7948 1231.89 44.932 1231.89 44.2459C1231.89 40.7012 1229.14 37.8426 1222.03 37.8426C1214.36 37.8426 1214.24 41.616 1214.24 42.5307C1214.13 43.5598 1214.7 44.7033 1216.65 44.7033C1218.37 44.7033 1218.83 42.7594 1219.05 42.0733C1219.28 41.2729 1219.4 38.986 1222.49 38.986C1225.13 38.986 1226.85 41.2729 1226.85 44.7033V44.8176C1226.85 44.932 1226.85 45.0463 1226.85 45.0463V45.3894C1226.85 45.5037 1226.85 45.7324 1226.85 45.8467C1226.73 47.5619 1226.27 48.1337 1224.9 48.8197C1223.52 49.5058 1219.51 50.0775 1219.05 50.1919C1217.45 50.5349 1212.98 51.6784 1213.1 56.3665C1213.21 60.9404 1217.79 62.5412 1221 62.4269C1224.1 62.3125 1225.93 61.0547 1226.73 60.3686C1227.19 60.0256 1227.19 60.0256 1227.53 60.483C1227.99 60.9404 1229.48 62.4269 1233.04 62.4269C1236.7 62.4269 1237.16 60.7117 1237.39 60.14C1237.62 59.6826 1236.93 59.3395 1236.59 59.9113ZM1222.38 61.1691C1219.17 61.1691 1218.37 58.5391 1218.37 57.167C1218.37 55.9092 1219.05 53.2792 1222.26 51.4497C1222.26 51.4497 1223.75 50.5349 1226.62 49.3915C1226.73 49.3915 1226.85 49.3915 1226.85 49.3915V49.5058C1226.85 49.6202 1226.85 49.7345 1226.85 49.9632V49.8488C1226.85 49.8488 1226.85 49.8488 1226.85 49.9632V54.7657C1226.85 58.4248 1225.01 61.1691 1222.38 61.1691ZM1211.38 61.0547C1210.46 60.826 1208.86 59.7969 1208.86 54.7657V45.6181C1208.86 43.4455 1209.09 37.8426 1200.49 37.8426C1196.02 37.8426 1193.5 40.1295 1193.27 40.2438C1192.93 40.5868 1192.7 40.7012 1192.58 40.1295C1192.47 39.6721 1192.24 38.986 1192.13 38.5286C1192.01 38.1856 1191.78 37.8426 1190.98 37.9569C1190.18 38.0712 1185.13 38.8717 1184.22 39.1004C1183.42 39.329 1183.65 39.6721 1184.22 39.7864C1184.79 39.9008 1187.54 40.1295 1187.54 44.8176C1187.54 49.5058 1187.54 54.6514 1187.54 54.6514C1187.54 60.3686 1186.4 60.826 1185.36 61.1691C1183.99 61.5121 1184.68 61.9695 1185.25 61.9695C1185.25 61.9695 1195.45 61.9695 1195.68 61.9695C1196.37 61.9695 1196.71 61.2834 1195.33 61.0547C1193.96 60.826 1192.7 60.0256 1192.7 55.5661C1192.7 55.1087 1192.7 50.1919 1192.7 49.2771C1192.7 46.8759 1192.13 39.5577 1198.77 39.4434C1203.47 39.329 1203.93 43.2168 1203.93 45.7324V55.4518C1203.93 59.4539 1202.78 60.7117 1201.41 60.9404C1200.15 61.1691 1200.38 61.7408 1201.06 61.7408C1201.29 61.7408 1211.72 61.7408 1211.72 61.7408C1212.29 61.9695 1212.87 61.3978 1211.38 61.0547ZM1183.53 59.9113C1183.07 60.9404 1182.16 61.2834 1181.58 61.2834C1180.89 61.2834 1178.83 61.1691 1178.83 55.7948C1178.83 55.7948 1178.83 44.932 1178.83 44.2459C1178.83 40.7012 1176.08 37.8426 1168.98 37.8426C1161.3 37.8426 1161.18 41.616 1161.18 42.5307C1161.07 43.5598 1161.64 44.7033 1163.59 44.7033C1165.31 44.7033 1165.77 42.7594 1166 42.0733C1166.23 41.2729 1166.34 38.986 1169.44 38.986C1172.07 38.986 1173.68 41.2729 1173.79 44.5889C1173.79 45.1607 1173.79 45.5037 1173.79 45.8467C1173.79 46.0754 1173.79 46.3041 1173.68 46.4185V46.5328C1173.45 47.6763 1172.87 48.248 1171.84 48.7054C1170.47 49.3915 1166.46 49.9632 1166 50.0775C1164.39 50.4206 1159.92 51.564 1160.04 56.2522C1160.15 60.826 1164.74 62.4269 1167.95 62.3125C1171.04 62.1982 1172.87 60.9404 1173.68 60.2543C1174.13 59.9113 1174.13 59.9113 1174.48 60.3686C1174.94 60.826 1176.43 62.3125 1179.98 62.3125C1183.65 62.3125 1184.1 60.5973 1184.33 60.0256C1184.56 59.6826 1183.76 59.3395 1183.53 59.9113ZM1169.21 61.1691C1166 61.1691 1165.2 58.5391 1165.2 57.167C1165.2 55.7948 1165.88 53.2792 1169.09 51.4497C1169.09 51.4497 1170.58 50.5349 1173.45 49.3915C1173.56 49.3915 1173.68 49.3915 1173.68 49.3915C1173.68 49.3915 1173.79 49.5058 1173.79 49.6202C1173.79 49.6202 1173.79 49.7345 1173.79 49.8488V49.9632V54.7657C1173.79 58.4248 1171.96 61.1691 1169.21 61.1691ZM1158.2 51.221C1157.06 54.8801 1154.88 60.826 1146.97 61.0547C1138.72 61.1691 1133.8 55.5661 1133.57 45.1607C1133.22 34.0691 1138.04 25.6076 1145.48 25.3789C1153.85 25.2645 1156.83 35.2126 1156.94 36.6991C1157.06 37.8426 1158.55 37.7282 1158.55 36.5848C1158.55 36.013 1157.86 26.1793 1157.63 25.0358C1157.4 23.8924 1156.49 24.3498 1156.26 24.8072C1156.14 25.1502 1156.37 24.4641 1155.91 25.4932C1155.45 26.5223 1154.19 25.9506 1153.74 25.8363C1152.36 25.2645 1149.72 23.8924 1145.48 24.0067C1135.74 24.2354 1125.77 31.4392 1126 44.0172C1126.23 56.2522 1136.09 63.1129 1145.26 62.9986C1153.62 62.8842 1158.32 57.6243 1159.69 51.564C1160.15 50.0775 1158.66 49.7345 1158.2 51.221Z" fill="black"/>
</svg>
