<svg width="250" viewBox="0 0 164 39" fill="none" xmlns="http://www.w3.org/2000/svg">
  <path fill="#eb2d37" d="M155.777.24h5.959V12.13h-5.959V.24Zm-10.313 5.945-.344.115s2.062 1.715 2.062 1.83c.115.113.23.113.115.457l-.229.686s1.833-.343 2.063-.458c.229 0 .343 0 .343.229s-.114 2.172-.114 2.172h.573s-.115-2.058-.115-2.172c0-.229.115-.229.344-.229.229 0 2.063.458 2.063.458s-.115-.458-.23-.686c-.114-.344 0-.344.115-.458.115-.114 2.063-1.83 2.063-1.83l-.344-.114c-.229-.114-.115-.228-.115-.343 0-.114.344-1.258.344-1.258s-.917.23-1.031.23c-.115 0-.229 0-.229-.115s-.23-.572-.23-.572-1.031 1.143-1.146 1.258c-.229.229-.458 0-.343-.229 0-.229.573-2.63.573-2.63s-.573.343-.803.458c-.229.114-.343.114-.343-.115-.115-.228-.802-1.486-.802-1.6l-.803 1.6c-.114.229-.229.229-.343.115-.23-.115-.803-.458-.803-.458s.573 2.401.573 2.63c0 .229-.114.343-.343.229l-1.146-1.258s-.115.343-.23.457c0 .115-.114.23-.229.115-.229 0-1.146-.229-1.146-.229s.344 1.144.459 1.258c0 .114 0 .343-.229.457ZM137.786.24h5.959v11.892h-5.959V.24Z"/>
  <path fill="#000" d="M163.072 35.911c-.458 1.03-1.375 1.372-1.948 1.372-.688 0-2.75-.114-2.75-5.488v-11.55c0-3.544-2.751-6.402-9.855-6.402-7.678 0-7.793 3.773-7.793 4.688-.114 1.029.459 2.172 2.407 2.172 1.719 0 2.177-1.944 2.406-2.63.229-.8.344-3.087 3.438-3.087 2.636 0 4.24 2.287 4.355 5.603V22.533c-.23 1.143-.803 1.715-1.834 2.172-1.375.687-5.386 1.258-5.844 1.373-1.605.343-6.074 1.486-5.959 6.174.114 4.574 4.698 6.175 7.907 6.06 3.094-.114 4.927-1.372 5.73-2.058.458-.343.458-.343.802.115.458.457 1.948 1.944 5.5 1.944 3.667 0 4.126-1.716 4.355-2.287.114-.343-.688-.687-.917-.115Zm-14.324 1.258c-3.209 0-4.011-2.63-4.011-4.002 0-1.258.688-3.888 3.896-5.717 0 0 1.49-.915 4.355-2.058h.229s.115.114.115.228v5.031c0 3.774-1.834 6.518-4.584 6.518Zm-10.543-.114c-.458-.115-3.323.228-3.323-8.462V1.265c0-.344 0-1.258-1.032-1.258-1.031 0-7.907.343-8.365.457-.458 0-.802.572 0 .572.802.114 4.469.343 4.469 6.403v8.347c0 .23 0 .344-.114.458v.114c-.115.114-.23 0-.573-.229-.573-.457-3.209-2.058-6.532-2.058-5.386 0-12.033 3.888-12.033 11.892 0 8.576 6.074 12.693 12.377 12.693 3.094 0 5.271-1.373 6.073-1.83.917-.572.802-.457.917.343.114.572 0 1.715 1.604 1.6 1.719-.228 5.845-.685 6.647-.8.802-.343.573-.8-.115-.914Zm-14.21.343c-5.042 0-7.678-5.946-7.678-11.664 0-6.289 3.553-10.52 7.335-10.29 4.927.342 6.188 4.23 6.302 11.205v1.487c-.114 6.86-2.979 9.262-5.959 9.262Zm-13.407-1.487c-.459 1.03-1.375 1.372-1.948 1.372-.688 0-2.751-.114-2.751-5.488v-11.55c0-3.544-2.75-6.402-9.855-6.402-7.678 0-7.792 3.773-7.792 4.688-.115 1.029.458 2.172 2.406 2.172 1.72 0 2.178-1.944 2.407-2.63.229-.8.343-3.087 3.438-3.087 2.635 0 4.354 2.287 4.354 5.717V21.847c-.114 1.715-.573 2.287-1.948 2.973-1.375.686-5.386 1.258-5.844 1.372-1.605.343-6.074 1.486-5.96 6.175.115 4.573 4.7 6.174 7.908 6.06 3.094-.114 4.927-1.372 5.73-2.058.458-.343.458-.343.802.114.458.457 1.948 1.944 5.5 1.944 3.667 0 4.126-1.715 4.355-2.287.229-.457-.458-.8-.802-.229Zm-14.21 1.258c-3.209 0-4.01-2.63-4.01-4.002 0-1.258.687-3.888 3.895-5.717 0 0 1.49-.915 4.355-2.058h.229V25.963v-.114 4.917c0 3.659-1.833 6.403-4.469 6.403Zm-11.001-.114c-.917-.229-2.521-1.258-2.521-6.29v-9.147c0-2.172.229-7.775-8.366-7.775-4.469 0-6.99 2.287-7.219 2.4-.344.344-.573.458-.688-.113-.114-.458-.343-1.144-.458-1.601-.115-.343-.344-.686-1.146-.572-.802.114-5.844.915-6.761 1.143-.802.229-.573.572 0 .686.573.115 3.323.344 3.323 5.032v9.833c0 5.718-1.146 6.175-2.177 6.518-1.375.343-.688.8-.115.8h10.428c.688 0 1.032-.686-.343-.914-1.376-.229-2.636-1.03-2.636-5.489v-6.289c0-2.401-.573-9.72 6.074-9.834 4.698-.114 5.156 3.774 5.156 6.29v9.719c0 4.002-1.146 5.26-2.52 5.488-1.261.23-1.032.8-.345.8h10.658c.573.23 1.146-.342-.344-.685ZM57.53 35.91c-.458 1.03-1.375 1.372-1.948 1.372-.687 0-2.75-.114-2.75-5.488v-11.55c0-3.544-2.75-6.402-9.855-6.402-7.678 0-7.793 3.773-7.793 4.688-.114 1.029.459 2.172 2.407 2.172 1.719 0 2.177-1.944 2.406-2.63.23-.8.344-3.087 3.438-3.087 2.636 0 4.24 2.287 4.355 5.603v1.258c0 .228 0 .457-.115.572v.114c-.229 1.143-.802 1.715-1.833 2.172-1.375.687-5.386 1.258-5.845 1.373-1.604.343-6.073 1.486-5.959 6.174.115 4.574 4.699 6.175 7.908 6.06 3.094-.114 4.927-1.372 5.73-2.058.458-.343.458-.343.801.115.459.457 1.949 1.944 5.501 1.944 3.667 0 4.125-1.716 4.355-2.287.229-.343-.573-.687-.803-.115ZM43.206 37.17c-3.209 0-4.01-2.63-4.01-4.002 0-1.372.687-3.888 3.896-5.717 0 0 1.49-.915 4.354-2.058h.23s.114.114.114.228v5.146c0 3.659-1.834 6.403-4.584 6.403Zm-11.001-9.948c-1.146 3.66-3.323 9.605-11.23 9.834-8.251.114-13.179-5.489-13.408-15.894-.344-11.092 4.47-19.553 11.918-19.782 8.365-.114 11.345 9.834 11.46 11.32.114 1.144 1.604 1.03 1.604-.114 0-.572-.688-10.406-.917-11.55-.23-1.143-1.146-.685-1.375-.228-.115.343.114-.343-.344.686-.458 1.03-1.719.458-2.177.343-1.375-.571-4.011-1.944-8.251-1.83C9.745.237-.225 7.44.004 20.018.234 32.252 10.088 39.113 19.256 39c8.365-.115 13.064-5.375 14.439-11.435.458-1.486-1.032-1.83-1.49-.343Z"/>
</svg>
