<svg width="910" xmlns="http://www.w3.org/2000/svg" xmlns:xlink="http://www.w3.org/1999/xlink" viewBox="0 0 910 101.8">
<style type="text/css">
	.st0{fill:#F1F2F3;}
	.st1{fill:#31455C;}
	.st2{fill:none;stroke:#425A76;stroke-width:0.75;}
	.st3{fill:#FF0000;}
</style>
<rect class="st0" width="910" height="101.2"/>
<path class="st1" d="M76.5,55.6l-3.1-8.3h-0.1c0,0.3,0,0.6,0.1,1.1c0,0.5,0,0.9,0,1.5v5.8h-1.1v-9.5h1.8l2.9,7.8h0.1l3-7.8h1.8v9.5 h-1.2v-5.9c0-0.5,0-0.9,0-1.4c0-0.5,0-0.8,0.1-1.1h-0.1l-3.2,8.3H76.5z M87,48.3c0.6,0,1.1,0.1,1.6,0.4c0.4,0.3,0.8,0.6,1,1.1 c0.2,0.5,0.4,1,0.4,1.7v0.7H85c0,0.8,0.2,1.4,0.6,1.9c0.4,0.4,1,0.6,1.7,0.6c0.5,0,0.9,0,1.2-0.1c0.4-0.1,0.7-0.2,1.1-0.4v1 c-0.4,0.2-0.7,0.3-1.1,0.3c-0.4,0.1-0.8,0.1-1.3,0.1c-0.7,0-1.3-0.1-1.8-0.4c-0.5-0.3-0.9-0.7-1.2-1.2c-0.3-0.6-0.4-1.2-0.4-2 c0-0.8,0.1-1.5,0.4-2c0.3-0.6,0.6-1,1.1-1.3C85.8,48.5,86.4,48.3,87,48.3z M87,49.3c-0.6,0-1,0.2-1.3,0.5c-0.3,0.4-0.5,0.9-0.6,1.5 h3.6c0-0.6-0.2-1.1-0.4-1.5C88,49.5,87.6,49.3,87,49.3z M88.9,45.5c-0.1,0.2-0.3,0.4-0.5,0.6c-0.2,0.2-0.5,0.5-0.7,0.8 c-0.2,0.2-0.5,0.5-0.7,0.6h-0.8v-0.2c0.1-0.2,0.3-0.4,0.4-0.6c0.2-0.2,0.3-0.5,0.5-0.7c0.2-0.2,0.3-0.5,0.4-0.7h1.4V45.5z M94.3,55.8c-0.9,0-1.6-0.3-2.1-0.9c-0.5-0.6-0.8-1.5-0.8-2.8s0.3-2.2,0.8-2.8c0.5-0.6,1.3-0.9,2.1-0.9c0.6,0,1,0.1,1.3,0.3 c0.4,0.2,0.6,0.5,0.9,0.7h0.1c0-0.1,0-0.3-0.1-0.5c0-0.2,0-0.4,0-0.5v-2.9h1.2v10.1h-0.9l-0.2-1h-0.1c-0.2,0.3-0.5,0.6-0.9,0.8 C95.3,55.7,94.8,55.8,94.3,55.8z M94.5,54.8c0.8,0,1.3-0.2,1.6-0.6c0.3-0.4,0.5-1,0.5-1.9v-0.2c0-0.9-0.1-1.6-0.4-2 c-0.3-0.5-0.8-0.7-1.6-0.7c-0.6,0-1.1,0.3-1.4,0.8c-0.3,0.5-0.5,1.2-0.5,2c0,0.9,0.2,1.5,0.5,2C93.4,54.5,93.8,54.8,94.5,54.8z M100.6,45.8c0.2,0,0.3,0.1,0.5,0.2c0.1,0.1,0.2,0.3,0.2,0.6c0,0.2-0.1,0.4-0.2,0.6c-0.1,0.1-0.3,0.2-0.5,0.2 c-0.2,0-0.4-0.1-0.5-0.2c-0.1-0.1-0.2-0.3-0.2-0.6c0-0.3,0.1-0.4,0.2-0.6C100.2,45.9,100.4,45.8,100.6,45.8z M101.1,48.5v7.1H100 v-7.1H101.1z M106.1,48.4c0.9,0,1.5,0.2,1.9,0.6c0.4,0.4,0.6,1,0.6,1.8v4.9h-0.9l-0.2-1h-0.1c-0.3,0.4-0.6,0.7-1,0.9 c-0.3,0.2-0.8,0.3-1.4,0.3c-0.6,0-1.2-0.2-1.6-0.5c-0.4-0.3-0.6-0.9-0.6-1.6c0-0.7,0.3-1.3,0.8-1.6c0.6-0.4,1.4-0.6,2.6-0.6l1.2,0 v-0.4c0-0.6-0.1-1-0.4-1.2c-0.3-0.2-0.6-0.3-1.1-0.3c-0.4,0-0.7,0.1-1.1,0.2c-0.3,0.1-0.7,0.2-0.9,0.4l-0.4-0.9 c0.3-0.2,0.7-0.3,1.1-0.4C105.2,48.4,105.6,48.4,106.1,48.4z M106.4,52.2c-0.9,0-1.5,0.2-1.9,0.4c-0.3,0.2-0.5,0.6-0.5,1.1 c0,0.4,0.1,0.7,0.4,0.9c0.2,0.2,0.6,0.3,0.9,0.3c0.6,0,1.1-0.2,1.5-0.5c0.4-0.3,0.6-0.9,0.6-1.5v-0.6L106.4,52.2z M115.5,53.7 c0,0.7-0.3,1.2-0.8,1.6c-0.5,0.4-1.2,0.5-2.1,0.5c-0.5,0-0.9,0-1.3-0.1c-0.4-0.1-0.7-0.2-0.9-0.3v-1.1c0.3,0.1,0.6,0.3,1,0.4 c0.4,0.1,0.8,0.2,1.2,0.2c0.6,0,1-0.1,1.3-0.3c0.3-0.2,0.4-0.5,0.4-0.8c0-0.2,0-0.3-0.1-0.5c-0.1-0.1-0.3-0.3-0.5-0.4 c-0.2-0.1-0.6-0.3-1.1-0.5c-0.5-0.2-0.9-0.4-1.2-0.5c-0.3-0.2-0.6-0.4-0.8-0.6c-0.2-0.2-0.3-0.6-0.3-1c0-0.6,0.2-1.1,0.7-1.4 c0.5-0.3,1.1-0.5,1.9-0.5c0.4,0,0.8,0,1.2,0.1c0.4,0.1,0.7,0.2,1.1,0.3l-0.4,0.9c-0.3-0.1-0.6-0.2-0.9-0.3c-0.3-0.1-0.7-0.1-1-0.1 c-0.5,0-0.8,0.1-1.1,0.2c-0.2,0.2-0.4,0.4-0.4,0.6c0,0.2,0.1,0.4,0.2,0.5c0.1,0.1,0.3,0.3,0.6,0.4c0.3,0.1,0.6,0.3,1.1,0.5 c0.5,0.2,0.8,0.3,1.2,0.5c0.3,0.2,0.6,0.4,0.7,0.7C115.4,53,115.5,53.3,115.5,53.7z M125.4,53.7c0,0.7-0.3,1.2-0.8,1.6 c-0.5,0.4-1.2,0.5-2.1,0.5c-0.5,0-0.9,0-1.3-0.1c-0.4-0.1-0.7-0.2-0.9-0.3v-1.1c0.3,0.1,0.6,0.3,1,0.4c0.4,0.1,0.8,0.2,1.2,0.2 c0.6,0,1-0.1,1.3-0.3c0.3-0.2,0.4-0.5,0.4-0.8c0-0.2,0-0.3-0.1-0.5c-0.1-0.1-0.3-0.3-0.5-0.4c-0.2-0.1-0.6-0.3-1.1-0.5 c-0.5-0.2-0.9-0.4-1.2-0.5c-0.3-0.2-0.6-0.4-0.8-0.6c-0.2-0.2-0.3-0.6-0.3-1c0-0.6,0.2-1.1,0.7-1.4c0.5-0.3,1.1-0.5,1.9-0.5 c0.4,0,0.8,0,1.2,0.1c0.4,0.1,0.7,0.2,1.1,0.3l-0.4,0.9c-0.3-0.1-0.6-0.2-0.9-0.3c-0.3-0.1-0.7-0.1-1-0.1c-0.5,0-0.8,0.1-1.1,0.2 c-0.2,0.2-0.4,0.4-0.4,0.6c0,0.2,0.1,0.4,0.2,0.5c0.1,0.1,0.3,0.3,0.6,0.4c0.3,0.1,0.6,0.3,1.1,0.5c0.5,0.2,0.8,0.3,1.2,0.5 c0.3,0.2,0.6,0.4,0.7,0.7C125.3,53,125.4,53.3,125.4,53.7z M133.3,52c0,1.2-0.3,2.1-0.9,2.7c-0.6,0.6-1.4,1-2.4,1 c-0.6,0-1.2-0.1-1.7-0.4c-0.5-0.3-0.9-0.7-1.2-1.3c-0.3-0.6-0.4-1.2-0.4-2c0-1.2,0.3-2.1,0.9-2.7c0.6-0.6,1.4-1,2.4-1 c0.6,0,1.2,0.1,1.7,0.4c0.5,0.3,0.9,0.7,1.2,1.3C133.2,50.6,133.3,51.2,133.3,52z M127.9,52c0,0.8,0.2,1.5,0.5,2 c0.3,0.5,0.9,0.7,1.6,0.7c0.7,0,1.2-0.2,1.6-0.7c0.3-0.5,0.5-1.2,0.5-2c0-0.8-0.2-1.5-0.5-2c-0.3-0.5-0.9-0.7-1.6-0.7 c-0.7,0-1.3,0.2-1.6,0.7S127.9,51.2,127.9,52z M138,55.8c-0.6,0-1.2-0.1-1.7-0.4c-0.5-0.3-0.9-0.7-1.2-1.2c-0.3-0.5-0.4-1.2-0.4-2.1 c0-0.9,0.1-1.6,0.4-2.1c0.3-0.6,0.7-1,1.2-1.2c0.5-0.3,1.1-0.4,1.7-0.4c0.4,0,0.7,0,1.1,0.1c0.3,0.1,0.6,0.2,0.8,0.3l-0.4,1 c-0.2-0.1-0.5-0.2-0.7-0.2c-0.3-0.1-0.6-0.1-0.8-0.1c-1.4,0-2.1,0.9-2.1,2.7c0,0.9,0.2,1.5,0.5,2c0.3,0.5,0.9,0.7,1.5,0.7 c0.4,0,0.7,0,1-0.1c0.3-0.1,0.6-0.2,0.8-0.3v1c-0.2,0.1-0.5,0.2-0.8,0.3C138.8,55.7,138.4,55.8,138,55.8z M142.2,45.8 c0.2,0,0.3,0.1,0.5,0.2c0.1,0.1,0.2,0.3,0.2,0.6c0,0.2-0.1,0.4-0.2,0.6c-0.1,0.1-0.3,0.2-0.5,0.2c-0.2,0-0.4-0.1-0.5-0.2 c-0.1-0.1-0.2-0.3-0.2-0.6c0-0.3,0.1-0.4,0.2-0.6C141.8,45.9,142,45.8,142.2,45.8z M142.7,48.5v7.1h-1.2v-7.1H142.7z M147.7,48.4 c0.9,0,1.5,0.2,1.9,0.6c0.4,0.4,0.6,1,0.6,1.8v4.9h-0.9l-0.2-1h-0.1c-0.3,0.4-0.6,0.7-1,0.9c-0.3,0.2-0.8,0.3-1.4,0.3 c-0.6,0-1.2-0.2-1.6-0.5c-0.4-0.3-0.6-0.9-0.6-1.6c0-0.7,0.3-1.3,0.8-1.6c0.6-0.4,1.4-0.6,2.6-0.6l1.2,0v-0.4c0-0.6-0.1-1-0.4-1.2 c-0.3-0.2-0.6-0.3-1.1-0.3c-0.4,0-0.7,0.1-1.1,0.2c-0.3,0.1-0.7,0.2-0.9,0.4l-0.4-0.9c0.3-0.2,0.7-0.3,1.1-0.4 C146.8,48.4,147.3,48.4,147.7,48.4z M148.1,52.2c-0.9,0-1.5,0.2-1.9,0.4c-0.3,0.2-0.5,0.6-0.5,1.1c0,0.4,0.1,0.7,0.4,0.9 c0.2,0.2,0.6,0.3,0.9,0.3c0.6,0,1.1-0.2,1.5-0.5c0.4-0.3,0.6-0.9,0.6-1.5v-0.6L148.1,52.2z M158.5,48.5v7.1h-1l-0.2-0.9h-0.1 c-0.2,0.4-0.6,0.6-1,0.8c-0.4,0.2-0.8,0.3-1.3,0.3c-0.9,0-1.5-0.2-1.9-0.6c-0.4-0.4-0.7-1.1-0.7-2v-4.7h1.2v4.6 c0,1.1,0.5,1.7,1.6,1.7c0.8,0,1.3-0.2,1.6-0.7c0.3-0.4,0.5-1.1,0.5-1.9v-3.7H158.5z M162.4,52l-2.5-3.5h1.3l1.8,2.7l1.8-2.7h1.3 l-2.5,3.5l2.6,3.7h-1.3l-1.9-2.9l-2,2.9h-1.3L162.4,52z"/>
<line class="st2" x1="71" y1="61.5" x2="166.8" y2="61.5"/>
<circle cx="180.5" cy="50.6" r="2.2"/>
<path class="st1" d="M201.3,55.6l-1.1-2.9h-3.8l-1.1,2.9H194l3.7-9.6h1.1l3.7,9.6H201.3z M198.7,48.7c0-0.1-0.1-0.2-0.1-0.4 s-0.1-0.4-0.2-0.6c-0.1-0.2-0.1-0.4-0.1-0.5c-0.1,0.3-0.1,0.5-0.2,0.8c-0.1,0.3-0.1,0.5-0.2,0.6l-1.1,2.9h3L198.7,48.7z M207,48.3 c0.9,0,1.6,0.3,2.1,0.9c0.5,0.6,0.8,1.5,0.8,2.8c0,1.2-0.3,2.1-0.8,2.8c-0.5,0.6-1.2,0.9-2.1,0.9c-0.6,0-1-0.1-1.4-0.3 c-0.4-0.2-0.6-0.5-0.8-0.7h-0.1c0,0.2,0,0.3,0.1,0.6c0,0.2,0,0.4,0,0.6v2.9h-1.2V48.5h1l0.2,1h0.1c0.2-0.3,0.5-0.6,0.8-0.8 C206,48.5,206.5,48.3,207,48.3z M206.8,49.3c-0.7,0-1.2,0.2-1.5,0.6c-0.3,0.4-0.4,1-0.5,1.9V52c0,0.9,0.1,1.6,0.4,2 c0.3,0.5,0.8,0.7,1.6,0.7c0.4,0,0.8-0.1,1.1-0.4c0.3-0.2,0.5-0.6,0.6-1c0.1-0.4,0.2-0.9,0.2-1.4c0-0.8-0.2-1.5-0.5-2 C208,49.6,207.5,49.3,206.8,49.3z M215.3,48.3c0.9,0,1.6,0.3,2.1,0.9c0.5,0.6,0.8,1.5,0.8,2.8c0,1.2-0.3,2.1-0.8,2.8 c-0.5,0.6-1.2,0.9-2.1,0.9c-0.6,0-1-0.1-1.4-0.3c-0.4-0.2-0.6-0.5-0.8-0.7h-0.1c0,0.2,0,0.3,0.1,0.6c0,0.2,0,0.4,0,0.6v2.9h-1.2 V48.5h1l0.2,1h0.1c0.2-0.3,0.5-0.6,0.8-0.8C214.2,48.5,214.7,48.3,215.3,48.3z M215,49.3c-0.7,0-1.2,0.2-1.5,0.6 c-0.3,0.4-0.4,1-0.5,1.9V52c0,0.9,0.1,1.6,0.4,2c0.3,0.5,0.8,0.7,1.6,0.7c0.4,0,0.8-0.1,1.1-0.4c0.3-0.2,0.5-0.6,0.6-1 c0.1-0.4,0.2-0.9,0.2-1.4c0-0.8-0.2-1.5-0.5-2C216.2,49.6,215.7,49.3,215,49.3z M221.2,55.6h-1.2V45.5h1.2V55.6z M224.1,45.8 c0.2,0,0.3,0.1,0.5,0.2c0.1,0.1,0.2,0.3,0.2,0.6c0,0.2-0.1,0.4-0.2,0.6c-0.1,0.1-0.3,0.2-0.5,0.2c-0.2,0-0.4-0.1-0.5-0.2 c-0.1-0.1-0.2-0.3-0.2-0.6c0-0.3,0.1-0.4,0.2-0.6C223.7,45.9,223.9,45.8,224.1,45.8z M224.7,48.5v7.1h-1.2v-7.1H224.7z M229.8,55.8 c-0.6,0-1.2-0.1-1.7-0.4c-0.5-0.3-0.9-0.7-1.2-1.2c-0.3-0.5-0.4-1.2-0.4-2.1c0-0.9,0.1-1.6,0.4-2.1c0.3-0.6,0.7-1,1.2-1.2 c0.5-0.3,1.1-0.4,1.7-0.4c0.4,0,0.7,0,1.1,0.1c0.3,0.1,0.6,0.2,0.8,0.3l-0.4,1c-0.2-0.1-0.5-0.2-0.7-0.2c-0.3-0.1-0.6-0.1-0.8-0.1 c-1.4,0-2.1,0.9-2.1,2.7c0,0.9,0.2,1.5,0.5,2c0.3,0.5,0.9,0.7,1.5,0.7c0.4,0,0.7,0,1-0.1c0.3-0.1,0.6-0.2,0.8-0.3v1 c-0.2,0.1-0.5,0.2-0.8,0.3C230.6,55.7,230.2,55.8,229.8,55.8z M236,48.4c0.9,0,1.5,0.2,1.9,0.6c0.4,0.4,0.6,1,0.6,1.8v4.9h-0.9 l-0.2-1h-0.1c-0.3,0.4-0.6,0.7-1,0.9c-0.3,0.2-0.8,0.3-1.4,0.3c-0.6,0-1.2-0.2-1.6-0.5c-0.4-0.3-0.6-0.9-0.6-1.6 c0-0.7,0.3-1.3,0.8-1.6c0.6-0.4,1.4-0.6,2.6-0.6l1.2,0v-0.4c0-0.6-0.1-1-0.4-1.2c-0.3-0.2-0.6-0.3-1.1-0.3c-0.4,0-0.7,0.1-1.1,0.2 c-0.3,0.1-0.7,0.2-0.9,0.4l-0.4-0.9c0.3-0.2,0.7-0.3,1.1-0.4C235.1,48.4,235.6,48.4,236,48.4z M236.4,52.2c-0.9,0-1.5,0.2-1.9,0.4 c-0.3,0.2-0.5,0.6-0.5,1.1c0,0.4,0.1,0.7,0.4,0.9c0.2,0.2,0.6,0.3,0.9,0.3c0.6,0,1.1-0.2,1.5-0.5c0.4-0.3,0.6-0.9,0.6-1.5v-0.6 L236.4,52.2z M243.2,54.8c0.2,0,0.4,0,0.5,0c0.2,0,0.3-0.1,0.5-0.1v0.9c-0.1,0.1-0.3,0.1-0.5,0.1c-0.2,0-0.5,0.1-0.7,0.1 c-0.4,0-0.7-0.1-1-0.2c-0.3-0.1-0.6-0.4-0.8-0.7c-0.2-0.3-0.3-0.8-0.3-1.3v-4.2h-1v-0.6l1-0.5l0.5-1.5h0.7v1.6h2.1v0.9h-2.1v4.1 c0,0.4,0.1,0.8,0.3,1C242.6,54.7,242.9,54.8,243.2,54.8z M246.2,45.8c0.2,0,0.3,0.1,0.5,0.2c0.1,0.1,0.2,0.3,0.2,0.6 c0,0.2-0.1,0.4-0.2,0.6c-0.1,0.1-0.3,0.2-0.5,0.2c-0.2,0-0.4-0.1-0.5-0.2c-0.1-0.1-0.2-0.3-0.2-0.6c0-0.3,0.1-0.4,0.2-0.6 C245.9,45.9,246,45.8,246.2,45.8z M246.8,48.5v7.1h-1.2v-7.1H246.8z M255.3,52c0,1.2-0.3,2.1-0.9,2.7c-0.6,0.6-1.4,1-2.4,1 c-0.6,0-1.2-0.1-1.7-0.4c-0.5-0.3-0.9-0.7-1.2-1.3c-0.3-0.6-0.4-1.2-0.4-2c0-1.2,0.3-2.1,0.9-2.7c0.6-0.6,1.4-1,2.4-1 c0.6,0,1.2,0.1,1.7,0.4c0.5,0.3,0.9,0.7,1.2,1.3C255.1,50.6,255.3,51.2,255.3,52z M249.9,52c0,0.8,0.2,1.5,0.5,2 c0.3,0.5,0.9,0.7,1.6,0.7c0.7,0,1.2-0.2,1.6-0.7c0.3-0.5,0.5-1.2,0.5-2c0-0.8-0.2-1.5-0.5-2c-0.3-0.5-0.9-0.7-1.6-0.7 s-1.3,0.2-1.6,0.7C250,50.5,249.9,51.2,249.9,52z M260.6,48.3c0.9,0,1.5,0.2,1.9,0.6c0.4,0.4,0.7,1.1,0.7,2v4.7H262v-4.6 c0-1.1-0.5-1.7-1.6-1.7c-0.8,0-1.3,0.2-1.6,0.7c-0.3,0.4-0.5,1.1-0.5,1.9v3.7h-1.2v-7.1h0.9l0.2,1h0.1c0.2-0.4,0.6-0.6,1-0.8 C259.7,48.4,260.1,48.3,260.6,48.3z M270,53.7c0,0.7-0.3,1.2-0.8,1.6c-0.5,0.4-1.2,0.5-2.1,0.5c-0.5,0-0.9,0-1.3-0.1 c-0.4-0.1-0.7-0.2-0.9-0.3v-1.1c0.3,0.1,0.6,0.3,1,0.4c0.4,0.1,0.8,0.2,1.2,0.2c0.6,0,1-0.1,1.3-0.3c0.3-0.2,0.4-0.5,0.4-0.8 c0-0.2,0-0.3-0.1-0.5c-0.1-0.1-0.3-0.3-0.5-0.4c-0.2-0.1-0.6-0.3-1.1-0.5c-0.5-0.2-0.9-0.4-1.2-0.5c-0.3-0.2-0.6-0.4-0.8-0.6 s-0.3-0.6-0.3-1c0-0.6,0.2-1.1,0.7-1.4c0.5-0.3,1.1-0.5,1.9-0.5c0.4,0,0.8,0,1.2,0.1c0.4,0.1,0.7,0.2,1.1,0.3l-0.4,0.9 c-0.3-0.1-0.6-0.2-0.9-0.3c-0.3-0.1-0.7-0.1-1-0.1c-0.5,0-0.8,0.1-1.1,0.2c-0.2,0.2-0.4,0.4-0.4,0.6c0,0.2,0.1,0.4,0.2,0.5 c0.1,0.1,0.3,0.3,0.6,0.4c0.3,0.1,0.6,0.3,1.1,0.5c0.5,0.2,0.8,0.3,1.2,0.5c0.3,0.2,0.6,0.4,0.7,0.7C270,53,270,53.3,270,53.7z M283.1,48.3c0.8,0,1.4,0.2,1.8,0.6c0.4,0.4,0.6,1.1,0.6,2v4.7h-1.2V51c0-1.1-0.5-1.7-1.5-1.7c-0.7,0-1.2,0.2-1.5,0.6 c-0.3,0.4-0.4,1-0.4,1.7v3.9h-1.2V51c0-1.1-0.5-1.7-1.5-1.7c-0.7,0-1.2,0.2-1.5,0.7c-0.3,0.4-0.4,1.1-0.4,1.9v3.7h-1.2v-7.1h0.9 l0.2,1h0.1c0.2-0.4,0.5-0.6,0.9-0.8c0.4-0.2,0.8-0.3,1.2-0.3c1.1,0,1.8,0.4,2.2,1.2h0.1c0.2-0.4,0.6-0.7,1-0.9 C282.2,48.4,282.6,48.3,283.1,48.3z M293.9,52c0,1.2-0.3,2.1-0.9,2.7c-0.6,0.6-1.4,1-2.4,1c-0.6,0-1.2-0.1-1.7-0.4 c-0.5-0.3-0.9-0.7-1.2-1.3c-0.3-0.6-0.4-1.2-0.4-2c0-1.2,0.3-2.1,0.9-2.7c0.6-0.6,1.4-1,2.4-1c0.6,0,1.2,0.1,1.7,0.4 c0.5,0.3,0.9,0.7,1.2,1.3C293.8,50.6,293.9,51.2,293.9,52z M288.5,52c0,0.8,0.2,1.5,0.5,2c0.3,0.5,0.9,0.7,1.6,0.7 c0.7,0,1.2-0.2,1.6-0.7c0.3-0.5,0.5-1.2,0.5-2c0-0.8-0.2-1.5-0.5-2c-0.3-0.5-0.9-0.7-1.6-0.7s-1.3,0.2-1.6,0.7S288.5,51.2,288.5,52z M296.9,48c0,0.3,0,0.6,0,0.9c0,0.3,0,0.5,0,0.6h0.1c0.2-0.3,0.5-0.6,0.8-0.8c0.4-0.2,0.8-0.3,1.4-0.3c0.9,0,1.6,0.3,2.1,0.9 c0.5,0.6,0.8,1.5,0.8,2.8c0,1.2-0.3,2.2-0.8,2.8c-0.5,0.6-1.3,0.9-2.1,0.9c-0.6,0-1-0.1-1.4-0.3c-0.4-0.2-0.6-0.4-0.8-0.7h-0.1 l-0.2,0.9h-0.8V45.5h1.2V48z M298.9,49.3c-0.8,0-1.3,0.2-1.6,0.7c-0.3,0.4-0.4,1.1-0.4,2v0.1c0,0.9,0.1,1.6,0.4,2 c0.3,0.5,0.8,0.7,1.6,0.7c0.6,0,1.1-0.2,1.4-0.7c0.3-0.5,0.5-1.2,0.5-2C300.9,50.2,300.2,49.3,298.9,49.3z M304.6,45.8 c0.2,0,0.3,0.1,0.5,0.2c0.1,0.1,0.2,0.3,0.2,0.6c0,0.2-0.1,0.4-0.2,0.6c-0.1,0.1-0.3,0.2-0.5,0.2c-0.2,0-0.4-0.1-0.5-0.2 c-0.1-0.1-0.2-0.3-0.2-0.6c0-0.3,0.1-0.4,0.2-0.6C304.2,45.9,304.4,45.8,304.6,45.8z M305.1,48.5v7.1H304v-7.1H305.1z M308.6,55.6 h-1.2V45.5h1.2V55.6z M313.6,48.3c0.6,0,1.1,0.1,1.6,0.4c0.4,0.3,0.8,0.6,1,1.1c0.2,0.5,0.4,1,0.4,1.7v0.7h-4.9 c0,0.8,0.2,1.4,0.6,1.9c0.4,0.4,1,0.6,1.7,0.6c0.5,0,0.9,0,1.2-0.1c0.4-0.1,0.7-0.2,1.1-0.4v1c-0.4,0.2-0.7,0.3-1.1,0.3 c-0.4,0.1-0.8,0.1-1.3,0.1c-0.7,0-1.3-0.1-1.8-0.4c-0.5-0.3-0.9-0.7-1.2-1.2c-0.3-0.6-0.4-1.2-0.4-2c0-0.8,0.1-1.5,0.4-2 c0.3-0.6,0.6-1,1.1-1.3C312.4,48.5,313,48.3,313.6,48.3z M313.6,49.3c-0.6,0-1,0.2-1.3,0.5c-0.3,0.4-0.5,0.9-0.6,1.5h3.6 c0-0.6-0.2-1.1-0.4-1.5C314.6,49.5,314.2,49.3,313.6,49.3z M323,53.7c0,0.7-0.3,1.2-0.8,1.6c-0.5,0.4-1.2,0.5-2.1,0.5 c-0.5,0-0.9,0-1.3-0.1c-0.4-0.1-0.7-0.2-0.9-0.3v-1.1c0.3,0.1,0.6,0.3,1,0.4c0.4,0.1,0.8,0.2,1.2,0.2c0.6,0,1-0.1,1.3-0.3 c0.3-0.2,0.4-0.5,0.4-0.8c0-0.2,0-0.3-0.1-0.5c-0.1-0.1-0.3-0.3-0.5-0.4c-0.2-0.1-0.6-0.3-1.1-0.5c-0.5-0.2-0.9-0.4-1.2-0.5 c-0.3-0.2-0.6-0.4-0.8-0.6s-0.3-0.6-0.3-1c0-0.6,0.2-1.1,0.7-1.4c0.5-0.3,1.1-0.5,1.9-0.5c0.4,0,0.8,0,1.2,0.1 c0.4,0.1,0.7,0.2,1.1,0.3l-0.4,0.9c-0.3-0.1-0.6-0.2-0.9-0.3c-0.3-0.1-0.7-0.1-1-0.1c-0.5,0-0.8,0.1-1.1,0.2 c-0.2,0.2-0.4,0.4-0.4,0.6c0,0.2,0.1,0.4,0.2,0.5c0.1,0.1,0.3,0.3,0.6,0.4c0.3,0.1,0.6,0.3,1.1,0.5c0.5,0.2,0.8,0.3,1.2,0.5 c0.3,0.2,0.6,0.4,0.7,0.7C322.9,53,323,53.3,323,53.7z"/>
<line class="st2" x1="194" y1="61.5" x2="324.2" y2="61.5"/>
<circle cx="337.5" cy="50.6" r="2.2"/>
<path class="st1" d="M358.3,55.6l-1.1-2.9h-3.8l-1.1,2.9H351l3.7-9.6h1.1l3.7,9.6H358.3z M355.7,48.7c0-0.1-0.1-0.2-0.1-0.4 s-0.1-0.4-0.2-0.6c-0.1-0.2-0.1-0.4-0.1-0.5c-0.1,0.3-0.1,0.5-0.2,0.8c-0.1,0.3-0.1,0.5-0.2,0.6l-1.1,2.9h3L355.7,48.7z M354.9,43 c0.1,0.2,0.2,0.4,0.4,0.7c0.2,0.2,0.3,0.5,0.5,0.7c0.2,0.2,0.3,0.4,0.5,0.6v0.2h-0.8c-0.2-0.2-0.4-0.4-0.7-0.6 c-0.3-0.3-0.5-0.5-0.7-0.8c-0.2-0.3-0.4-0.5-0.5-0.6V43H354.9z M367.5,48.3c0.9,0,1.6,0.3,2.1,0.9c0.5,0.6,0.8,1.5,0.8,2.8 c0,1.2-0.3,2.1-0.8,2.8c-0.5,0.6-1.2,0.9-2.1,0.9c-0.6,0-1-0.1-1.4-0.3c-0.4-0.2-0.6-0.5-0.8-0.7h-0.1c0,0.2,0,0.3,0.1,0.6 c0,0.2,0,0.4,0,0.6v2.9h-1.2V48.5h1l0.2,1h0.1c0.2-0.3,0.5-0.6,0.8-0.8C366.5,48.5,366.9,48.3,367.5,48.3z M367.3,49.3 c-0.7,0-1.2,0.2-1.5,0.6c-0.3,0.4-0.4,1-0.5,1.9V52c0,0.9,0.1,1.6,0.4,2c0.3,0.5,0.8,0.7,1.6,0.7c0.4,0,0.8-0.1,1.1-0.4 c0.3-0.2,0.5-0.6,0.6-1c0.1-0.4,0.2-0.9,0.2-1.4c0-0.8-0.2-1.5-0.5-2C368.4,49.6,368,49.3,367.3,49.3z M375.6,48.3 c0.1,0,0.3,0,0.4,0c0.2,0,0.3,0,0.4,0.1l-0.1,1.1c-0.1,0-0.2,0-0.4-0.1c-0.1,0-0.3,0-0.4,0c-0.4,0-0.7,0.1-1,0.3 c-0.3,0.2-0.6,0.5-0.8,0.8c-0.2,0.4-0.3,0.8-0.3,1.3v3.8h-1.2v-7.1h1l0.1,1.3h0.1c0.2-0.4,0.5-0.7,0.9-1 C374.7,48.5,375.2,48.3,375.6,48.3z M383.8,52c0,1.2-0.3,2.1-0.9,2.7c-0.6,0.6-1.4,1-2.4,1c-0.6,0-1.2-0.1-1.7-0.4 c-0.5-0.3-0.9-0.7-1.2-1.3c-0.3-0.6-0.4-1.2-0.4-2c0-1.2,0.3-2.1,0.9-2.7c0.6-0.6,1.4-1,2.4-1c0.6,0,1.2,0.1,1.7,0.4 c0.5,0.3,0.9,0.7,1.2,1.3C383.6,50.6,383.8,51.2,383.8,52z M378.4,52c0,0.8,0.2,1.5,0.5,2c0.3,0.5,0.9,0.7,1.6,0.7 c0.7,0,1.2-0.2,1.6-0.7c0.3-0.5,0.5-1.2,0.5-2c0-0.8-0.2-1.5-0.5-2c-0.3-0.5-0.9-0.7-1.6-0.7s-1.3,0.2-1.6,0.7S378.4,51.2,378.4,52z M389,48.3c0.9,0,1.6,0.3,2.1,0.9c0.5,0.6,0.8,1.5,0.8,2.8c0,1.2-0.3,2.1-0.8,2.8c-0.5,0.6-1.2,0.9-2.1,0.9c-0.6,0-1-0.1-1.4-0.3 c-0.4-0.2-0.6-0.5-0.8-0.7h-0.1c0,0.2,0,0.3,0.1,0.6c0,0.2,0,0.4,0,0.6v2.9h-1.2V48.5h1l0.2,1h0.1c0.2-0.3,0.5-0.6,0.8-0.8 C388,48.5,388.5,48.3,389,48.3z M388.8,49.3c-0.7,0-1.2,0.2-1.5,0.6c-0.3,0.4-0.4,1-0.5,1.9V52c0,0.9,0.1,1.6,0.4,2 c0.3,0.5,0.8,0.7,1.6,0.7c0.4,0,0.8-0.1,1.1-0.4c0.3-0.2,0.5-0.6,0.6-1c0.1-0.4,0.2-0.9,0.2-1.4c0-0.8-0.2-1.5-0.5-2 C390,49.6,389.5,49.3,388.8,49.3z M400.1,52c0,1.2-0.3,2.1-0.9,2.7c-0.6,0.6-1.4,1-2.4,1c-0.6,0-1.2-0.1-1.7-0.4 c-0.5-0.3-0.9-0.7-1.2-1.3c-0.3-0.6-0.4-1.2-0.4-2c0-1.2,0.3-2.1,0.9-2.7c0.6-0.6,1.4-1,2.4-1c0.6,0,1.2,0.1,1.7,0.4 c0.5,0.3,0.9,0.7,1.2,1.3C399.9,50.6,400.1,51.2,400.1,52z M394.7,52c0,0.8,0.2,1.5,0.5,2c0.3,0.5,0.9,0.7,1.6,0.7 c0.7,0,1.2-0.2,1.6-0.7c0.3-0.5,0.5-1.2,0.5-2c0-0.8-0.2-1.5-0.5-2c-0.3-0.5-0.9-0.7-1.6-0.7c-0.7,0-1.3,0.2-1.6,0.7 S394.7,51.2,394.7,52z M406.6,53.7c0,0.7-0.3,1.2-0.8,1.6c-0.5,0.4-1.2,0.5-2.1,0.5c-0.5,0-0.9,0-1.3-0.1c-0.4-0.1-0.7-0.2-0.9-0.3 v-1.1c0.3,0.1,0.6,0.3,1,0.4c0.4,0.1,0.8,0.2,1.2,0.2c0.6,0,1-0.1,1.3-0.3c0.3-0.2,0.4-0.5,0.4-0.8c0-0.2,0-0.3-0.1-0.5 c-0.1-0.1-0.3-0.3-0.5-0.4c-0.2-0.1-0.6-0.3-1.1-0.5c-0.5-0.2-0.9-0.4-1.2-0.5c-0.3-0.2-0.6-0.4-0.8-0.6c-0.2-0.2-0.3-0.6-0.3-1 c0-0.6,0.2-1.1,0.7-1.4c0.5-0.3,1.1-0.5,1.9-0.5c0.4,0,0.8,0,1.2,0.1c0.4,0.1,0.7,0.2,1.1,0.3l-0.4,0.9c-0.3-0.1-0.6-0.2-0.9-0.3 c-0.3-0.1-0.7-0.1-1-0.1c-0.5,0-0.8,0.1-1.1,0.2c-0.2,0.2-0.4,0.4-0.4,0.6c0,0.2,0.1,0.4,0.2,0.5c0.1,0.1,0.3,0.3,0.6,0.4 c0.3,0.1,0.6,0.3,1.1,0.5c0.5,0.2,0.8,0.3,1.2,0.5c0.3,0.2,0.6,0.4,0.7,0.7C406.5,53,406.6,53.3,406.6,53.7z M414.3,55.8 c-0.9,0-1.6-0.3-2.1-0.9c-0.5-0.6-0.8-1.5-0.8-2.8s0.3-2.2,0.8-2.8c0.5-0.6,1.3-0.9,2.1-0.9c0.6,0,1,0.1,1.3,0.3 c0.4,0.2,0.6,0.5,0.9,0.7h0.1c0-0.1,0-0.3-0.1-0.5c0-0.2,0-0.4,0-0.5v-2.9h1.2v10.1h-0.9l-0.2-1h-0.1c-0.2,0.3-0.5,0.6-0.9,0.8 C415.3,55.7,414.8,55.8,414.3,55.8z M414.5,54.8c0.8,0,1.3-0.2,1.6-0.6c0.3-0.4,0.5-1,0.5-1.9v-0.2c0-0.9-0.1-1.6-0.4-2 c-0.3-0.5-0.8-0.7-1.6-0.7c-0.6,0-1.1,0.3-1.4,0.8c-0.3,0.5-0.5,1.2-0.5,2c0,0.9,0.2,1.5,0.5,2C413.4,54.5,413.8,54.8,414.5,54.8z M422.7,48.3c0.6,0,1.1,0.1,1.6,0.4c0.4,0.3,0.8,0.6,1,1.1c0.2,0.5,0.4,1,0.4,1.7v0.7h-4.9c0,0.8,0.2,1.4,0.6,1.9 c0.4,0.4,1,0.6,1.7,0.6c0.5,0,0.9,0,1.2-0.1c0.4-0.1,0.7-0.2,1.1-0.4v1c-0.4,0.2-0.7,0.3-1.1,0.3c-0.4,0.1-0.8,0.1-1.3,0.1 c-0.7,0-1.3-0.1-1.8-0.4c-0.5-0.3-0.9-0.7-1.2-1.2c-0.3-0.6-0.4-1.2-0.4-2c0-0.8,0.1-1.5,0.4-2c0.3-0.6,0.6-1,1.1-1.3 C421.5,48.5,422.1,48.3,422.7,48.3z M422.7,49.3c-0.6,0-1,0.2-1.3,0.5c-0.3,0.4-0.5,0.9-0.6,1.5h3.6c0-0.6-0.2-1.1-0.4-1.5 C423.7,49.5,423.3,49.3,422.7,49.3z M435.2,47c-1,0-1.8,0.3-2.4,1c-0.6,0.7-0.9,1.6-0.9,2.8c0,1.2,0.3,2.1,0.8,2.8 c0.6,0.7,1.4,1,2.5,1c0.4,0,0.8,0,1.2-0.1c0.4-0.1,0.7-0.2,1.1-0.3v1c-0.4,0.1-0.7,0.2-1.1,0.3c-0.4,0.1-0.8,0.1-1.3,0.1 c-1,0-1.8-0.2-2.4-0.6c-0.6-0.4-1.1-1-1.5-1.7c-0.3-0.7-0.5-1.6-0.5-2.6c0-1,0.2-1.8,0.5-2.5c0.4-0.7,0.9-1.3,1.6-1.7 c0.7-0.4,1.5-0.6,2.5-0.6c1,0,1.9,0.2,2.6,0.6l-0.5,1c-0.3-0.1-0.6-0.3-1-0.4C436,47.1,435.6,47,435.2,47z M442.1,48.4 c0.9,0,1.5,0.2,1.9,0.6c0.4,0.4,0.6,1,0.6,1.8v4.9h-0.9l-0.2-1h-0.1c-0.3,0.4-0.6,0.7-1,0.9c-0.3,0.2-0.8,0.3-1.4,0.3 c-0.6,0-1.2-0.2-1.6-0.5c-0.4-0.3-0.6-0.9-0.6-1.6c0-0.7,0.3-1.3,0.8-1.6c0.6-0.4,1.4-0.6,2.6-0.6l1.2,0v-0.4c0-0.6-0.1-1-0.4-1.2 c-0.3-0.2-0.6-0.3-1.1-0.3c-0.4,0-0.7,0.1-1.1,0.2c-0.3,0.1-0.7,0.2-0.9,0.4l-0.4-0.9c0.3-0.2,0.7-0.3,1.1-0.4 C441.2,48.4,441.6,48.4,442.1,48.4z M442.4,52.2c-0.9,0-1.5,0.2-1.9,0.4c-0.3,0.2-0.5,0.6-0.5,1.1c0,0.4,0.1,0.7,0.4,0.9 c0.2,0.2,0.6,0.3,0.9,0.3c0.6,0,1.1-0.2,1.5-0.5c0.4-0.3,0.6-0.9,0.6-1.5v-0.6L442.4,52.2z M450.3,48.3c0.9,0,1.5,0.2,1.9,0.6 c0.4,0.4,0.7,1.1,0.7,2v4.7h-1.2v-4.6c0-1.1-0.5-1.7-1.6-1.7c-0.8,0-1.3,0.2-1.6,0.7c-0.3,0.4-0.5,1.1-0.5,1.9v3.7h-1.2v-7.1h0.9 l0.2,1h0.1c0.2-0.4,0.6-0.6,1-0.8C449.4,48.4,449.8,48.3,450.3,48.3z M457.8,48.4c0.9,0,1.5,0.2,1.9,0.6c0.4,0.4,0.6,1,0.6,1.8v4.9 h-0.9l-0.2-1h-0.1c-0.3,0.4-0.6,0.7-1,0.9c-0.3,0.2-0.8,0.3-1.4,0.3c-0.6,0-1.2-0.2-1.6-0.5c-0.4-0.3-0.6-0.9-0.6-1.6 c0-0.7,0.3-1.3,0.8-1.6c0.6-0.4,1.4-0.6,2.6-0.6l1.2,0v-0.4c0-0.6-0.1-1-0.4-1.2c-0.3-0.2-0.6-0.3-1.1-0.3c-0.4,0-0.7,0.1-1.1,0.2 c-0.3,0.1-0.7,0.2-0.9,0.4l-0.4-0.9c0.3-0.2,0.7-0.3,1.1-0.4C456.9,48.4,457.3,48.4,457.8,48.4z M458.1,52.2c-0.9,0-1.5,0.2-1.9,0.4 c-0.3,0.2-0.5,0.6-0.5,1.1c0,0.4,0.1,0.7,0.4,0.9c0.2,0.2,0.6,0.3,0.9,0.3c0.6,0,1.1-0.2,1.5-0.5c0.4-0.3,0.6-0.9,0.6-1.5v-0.6 L458.1,52.2z M465.1,55.8c-0.9,0-1.6-0.3-2.1-0.9c-0.5-0.6-0.8-1.5-0.8-2.8s0.3-2.2,0.8-2.8c0.5-0.6,1.3-0.9,2.1-0.9 c0.6,0,1,0.1,1.3,0.3c0.4,0.2,0.6,0.5,0.9,0.7h0.1c0-0.1,0-0.3-0.1-0.5c0-0.2,0-0.4,0-0.5v-2.9h1.2v10.1h-0.9l-0.2-1h-0.1 c-0.2,0.3-0.5,0.6-0.9,0.8C466.1,55.7,465.7,55.8,465.1,55.8z M465.3,54.8c0.8,0,1.3-0.2,1.6-0.6c0.3-0.4,0.5-1,0.5-1.9v-0.2 c0-0.9-0.1-1.6-0.4-2c-0.3-0.5-0.8-0.7-1.6-0.7c-0.6,0-1.1,0.3-1.4,0.8c-0.3,0.5-0.5,1.2-0.5,2c0,0.9,0.2,1.5,0.5,2 C464.2,54.5,464.6,54.8,465.3,54.8z M473.5,48.4c0.9,0,1.5,0.2,1.9,0.6c0.4,0.4,0.6,1,0.6,1.8v4.9h-0.9l-0.2-1h-0.1 c-0.3,0.4-0.6,0.7-1,0.9c-0.3,0.2-0.8,0.3-1.4,0.3c-0.6,0-1.2-0.2-1.6-0.5c-0.4-0.3-0.6-0.9-0.6-1.6c0-0.7,0.3-1.3,0.8-1.6 c0.6-0.4,1.4-0.6,2.6-0.6l1.2,0v-0.4c0-0.6-0.1-1-0.4-1.2c-0.3-0.2-0.6-0.3-1.1-0.3c-0.4,0-0.7,0.1-1.1,0.2 c-0.3,0.1-0.7,0.2-0.9,0.4L471,49c0.3-0.2,0.7-0.3,1.1-0.4C472.6,48.4,473,48.4,473.5,48.4z M473.8,52.2c-0.9,0-1.5,0.2-1.9,0.4 c-0.3,0.2-0.5,0.6-0.5,1.1c0,0.4,0.1,0.7,0.4,0.9c0.2,0.2,0.6,0.3,0.9,0.3c0.6,0,1.1-0.2,1.5-0.5c0.4-0.3,0.6-0.9,0.6-1.5v-0.6 L473.8,52.2z M478.1,54.9c0-0.3,0.1-0.6,0.2-0.7c0.2-0.1,0.4-0.2,0.6-0.2c0.2,0,0.4,0.1,0.6,0.2c0.2,0.1,0.3,0.4,0.3,0.7 c0,0.3-0.1,0.6-0.3,0.7c-0.2,0.1-0.4,0.2-0.6,0.2c-0.2,0-0.4-0.1-0.6-0.2C478.1,55.5,478.1,55.2,478.1,54.9z M484.7,55.8 c-0.6,0-1.2-0.1-1.7-0.4c-0.5-0.3-0.9-0.7-1.2-1.2c-0.3-0.5-0.4-1.2-0.4-2.1c0-0.9,0.1-1.6,0.4-2.1c0.3-0.6,0.7-1,1.2-1.2 c0.5-0.3,1.1-0.4,1.7-0.4c0.4,0,0.7,0,1.1,0.1c0.3,0.1,0.6,0.2,0.8,0.3l-0.4,1c-0.2-0.1-0.5-0.2-0.7-0.2c-0.3-0.1-0.6-0.1-0.8-0.1 c-1.4,0-2.1,0.9-2.1,2.7c0,0.9,0.2,1.5,0.5,2c0.3,0.5,0.9,0.7,1.5,0.7c0.4,0,0.7,0,1-0.1c0.3-0.1,0.6-0.2,0.8-0.3v1 c-0.2,0.1-0.5,0.2-0.8,0.3C485.4,55.7,485.1,55.8,484.7,55.8z M490.9,48.4c0.9,0,1.5,0.2,1.9,0.6c0.4,0.4,0.6,1,0.6,1.8v4.9h-0.9 l-0.2-1h-0.1c-0.3,0.4-0.6,0.7-1,0.9c-0.3,0.2-0.8,0.3-1.4,0.3c-0.6,0-1.2-0.2-1.6-0.5c-0.4-0.3-0.6-0.9-0.6-1.6 c0-0.7,0.3-1.3,0.8-1.6c0.6-0.4,1.4-0.6,2.6-0.6l1.2,0v-0.4c0-0.6-0.1-1-0.4-1.2c-0.3-0.2-0.6-0.3-1.1-0.3c-0.4,0-0.7,0.1-1.1,0.2 c-0.3,0.1-0.7,0.2-0.9,0.4l-0.4-0.9c0.3-0.2,0.7-0.3,1.1-0.4C490,48.4,490.5,48.4,490.9,48.4z M491.3,52.2c-0.9,0-1.5,0.2-1.9,0.4 c-0.3,0.2-0.5,0.6-0.5,1.1c0,0.4,0.1,0.7,0.4,0.9c0.2,0.2,0.6,0.3,0.9,0.3c0.6,0,1.1-0.2,1.5-0.5c0.4-0.3,0.6-0.9,0.6-1.5v-0.6 L491.3,52.2z"/>
<line class="st2" x1="351" y1="61.5" x2="494.5" y2="61.5"/>
<circle cx="508.5" cy="50.6" r="2.2"/>
<path class="st1" d="M529.3,55.6l-1.1-2.9h-3.8l-1.1,2.9H522l3.7-9.6h1.1l3.7,9.6H529.3z M526.7,48.7c0-0.1-0.1-0.2-0.1-0.4 s-0.1-0.4-0.2-0.6c-0.1-0.2-0.1-0.4-0.1-0.5c-0.1,0.3-0.1,0.5-0.2,0.8c-0.1,0.3-0.1,0.5-0.2,0.6l-1.1,2.9h3L526.7,48.7z M533.2,55.6 l-2.7-7.1h1.3l1.5,4.2c0.1,0.2,0.1,0.4,0.2,0.7s0.2,0.5,0.2,0.7c0.1,0.2,0.1,0.4,0.1,0.5h0.1c0-0.2,0.1-0.3,0.1-0.6 c0.1-0.2,0.1-0.5,0.2-0.7c0.1-0.2,0.2-0.5,0.2-0.6l1.5-4.2h1.3l-2.7,7.1H533.2z M539,45.8c0.2,0,0.3,0.1,0.5,0.2 c0.1,0.1,0.2,0.3,0.2,0.6c0,0.2-0.1,0.4-0.2,0.6c-0.1,0.1-0.3,0.2-0.5,0.2c-0.2,0-0.4-0.1-0.5-0.2c-0.1-0.1-0.2-0.3-0.2-0.6 c0-0.3,0.1-0.4,0.2-0.6C538.7,45.9,538.8,45.8,539,45.8z M539.6,48.5v7.1h-1.2v-7.1H539.6z M546.5,53.7c0,0.7-0.3,1.2-0.8,1.6 c-0.5,0.4-1.2,0.5-2.1,0.5c-0.5,0-0.9,0-1.3-0.1c-0.4-0.1-0.7-0.2-0.9-0.3v-1.1c0.3,0.1,0.6,0.3,1,0.4c0.4,0.1,0.8,0.2,1.2,0.2 c0.6,0,1-0.1,1.3-0.3c0.3-0.2,0.4-0.5,0.4-0.8c0-0.2,0-0.3-0.1-0.5c-0.1-0.1-0.3-0.3-0.5-0.4c-0.2-0.1-0.6-0.3-1.1-0.5 c-0.5-0.2-0.9-0.4-1.2-0.5c-0.3-0.2-0.6-0.4-0.8-0.6c-0.2-0.2-0.3-0.6-0.3-1c0-0.6,0.2-1.1,0.7-1.4c0.5-0.3,1.1-0.5,1.9-0.5 c0.4,0,0.8,0,1.2,0.1c0.4,0.1,0.7,0.2,1.1,0.3l-0.4,0.9c-0.3-0.1-0.6-0.2-0.9-0.3c-0.3-0.1-0.7-0.1-1-0.1c-0.5,0-0.8,0.1-1.1,0.2 c-0.2,0.2-0.4,0.4-0.4,0.6c0,0.2,0.1,0.4,0.2,0.5c0.1,0.1,0.3,0.3,0.6,0.4c0.3,0.1,0.6,0.3,1.1,0.5c0.5,0.2,0.8,0.3,1.2,0.5 c0.3,0.2,0.6,0.4,0.7,0.7C546.4,53,546.5,53.3,546.5,53.7z"/>
<line class="st2" x1="522" y1="61.5" x2="548" y2="61.5"/>
<circle cx="561.5" cy="50.6" r="2.2"/>
<path class="st1" d="M580.4,47c-1,0-1.8,0.3-2.4,1c-0.6,0.7-0.9,1.6-0.9,2.8c0,1.2,0.3,2.1,0.8,2.8c0.6,0.7,1.4,1,2.5,1 c0.4,0,0.8,0,1.2-0.1c0.4-0.1,0.7-0.2,1.1-0.3v1c-0.4,0.1-0.7,0.2-1.1,0.3c-0.4,0.1-0.8,0.1-1.3,0.1c-1,0-1.8-0.2-2.4-0.6 c-0.6-0.4-1.1-1-1.5-1.7c-0.3-0.7-0.5-1.6-0.5-2.6c0-1,0.2-1.8,0.5-2.5c0.4-0.7,0.9-1.3,1.6-1.7c0.7-0.4,1.5-0.6,2.5-0.6 c1,0,1.9,0.2,2.6,0.6l-0.5,1c-0.3-0.1-0.6-0.3-1-0.4C581.2,47.1,580.8,47,580.4,47z M590.8,52c0,1.2-0.3,2.1-0.9,2.7 c-0.6,0.6-1.4,1-2.4,1c-0.6,0-1.2-0.1-1.7-0.4c-0.5-0.3-0.9-0.7-1.2-1.3c-0.3-0.6-0.4-1.2-0.4-2c0-1.2,0.3-2.1,0.9-2.7 c0.6-0.6,1.4-1,2.4-1c0.6,0,1.2,0.1,1.7,0.4c0.5,0.3,0.9,0.7,1.2,1.3C590.6,50.6,590.8,51.2,590.8,52z M585.4,52 c0,0.8,0.2,1.5,0.5,2c0.3,0.5,0.9,0.7,1.6,0.7c0.7,0,1.2-0.2,1.6-0.7c0.3-0.5,0.5-1.2,0.5-2c0-0.8-0.2-1.5-0.5-2 c-0.3-0.5-0.9-0.7-1.6-0.7s-1.3,0.2-1.6,0.7C585.5,50.5,585.4,51.2,585.4,52z M596.1,48.3c0.9,0,1.5,0.2,1.9,0.6 c0.4,0.4,0.7,1.1,0.7,2v4.7h-1.2v-4.6c0-1.1-0.5-1.7-1.6-1.7c-0.8,0-1.3,0.2-1.6,0.7c-0.3,0.4-0.5,1.1-0.5,1.9v3.7h-1.2v-7.1h0.9 l0.2,1h0.1c0.2-0.4,0.6-0.6,1-0.8C595.2,48.4,595.6,48.3,596.1,48.3z M604.2,49.4h-1.8v6.2h-1.2v-6.2h-1.3v-0.5l1.3-0.4V48 c0-0.9,0.2-1.6,0.6-2c0.4-0.4,1-0.6,1.7-0.6c0.3,0,0.5,0,0.8,0.1c0.2,0,0.4,0.1,0.6,0.2l-0.3,0.9c-0.1,0-0.3-0.1-0.5-0.1 c-0.2,0-0.4-0.1-0.6-0.1c-0.4,0-0.7,0.1-0.9,0.4c-0.2,0.3-0.3,0.7-0.3,1.2v0.5h1.8V49.4z M606.1,45.8c0.2,0,0.3,0.1,0.5,0.2 c0.1,0.1,0.2,0.3,0.2,0.6c0,0.2-0.1,0.4-0.2,0.6c-0.1,0.1-0.3,0.2-0.5,0.2c-0.2,0-0.4-0.1-0.5-0.2c-0.1-0.1-0.2-0.3-0.2-0.6 c0-0.3,0.1-0.4,0.2-0.6C605.7,45.9,605.9,45.8,606.1,45.8z M606.6,48.5v7.1h-1.2v-7.1H606.6z M611.4,55.8c-0.9,0-1.6-0.3-2.1-0.9 c-0.5-0.6-0.8-1.5-0.8-2.8s0.3-2.2,0.8-2.8c0.5-0.6,1.3-0.9,2.1-0.9c0.6,0,1,0.1,1.3,0.3c0.4,0.2,0.6,0.5,0.9,0.7h0.1 c0-0.1,0-0.3-0.1-0.5c0-0.2,0-0.4,0-0.5v-2.9h1.2v10.1h-0.9l-0.2-1h-0.1c-0.2,0.3-0.5,0.6-0.9,0.8C612.4,55.7,612,55.8,611.4,55.8z M611.6,54.8c0.8,0,1.3-0.2,1.6-0.6c0.3-0.4,0.5-1,0.5-1.9v-0.2c0-0.9-0.1-1.6-0.4-2c-0.3-0.5-0.8-0.7-1.6-0.7 c-0.6,0-1.1,0.3-1.4,0.8c-0.3,0.5-0.5,1.2-0.5,2c0,0.9,0.2,1.5,0.5,2C610.5,54.5,611,54.8,611.6,54.8z M619.9,48.3 c0.6,0,1.1,0.1,1.6,0.4c0.4,0.3,0.8,0.6,1,1.1c0.2,0.5,0.4,1,0.4,1.7v0.7h-4.9c0,0.8,0.2,1.4,0.6,1.9c0.4,0.4,1,0.6,1.7,0.6 c0.5,0,0.9,0,1.2-0.1c0.4-0.1,0.7-0.2,1.1-0.4v1c-0.4,0.2-0.7,0.3-1.1,0.3c-0.4,0.1-0.8,0.1-1.3,0.1c-0.7,0-1.3-0.1-1.8-0.4 c-0.5-0.3-0.9-0.7-1.2-1.2c-0.3-0.6-0.4-1.2-0.4-2c0-0.8,0.1-1.5,0.4-2c0.3-0.6,0.6-1,1.1-1.3C618.7,48.5,619.2,48.3,619.9,48.3z M619.8,49.3c-0.6,0-1,0.2-1.3,0.5c-0.3,0.4-0.5,0.9-0.6,1.5h3.6c0-0.6-0.2-1.1-0.4-1.5C620.9,49.5,620.4,49.3,619.8,49.3z M628.1,48.3c0.9,0,1.5,0.2,1.9,0.6c0.4,0.4,0.7,1.1,0.7,2v4.7h-1.2v-4.6c0-1.1-0.5-1.7-1.6-1.7c-0.8,0-1.3,0.2-1.6,0.7 c-0.3,0.4-0.5,1.1-0.5,1.9v3.7h-1.2v-7.1h0.9l0.2,1h0.1c0.2-0.4,0.6-0.6,1-0.8C627.2,48.4,627.6,48.3,628.1,48.3z M635.3,54.8 c0.2,0,0.4,0,0.5,0c0.2,0,0.3-0.1,0.5-0.1v0.9c-0.1,0.1-0.3,0.1-0.5,0.1c-0.2,0-0.5,0.1-0.7,0.1c-0.4,0-0.7-0.1-1-0.2 c-0.3-0.1-0.6-0.4-0.8-0.7c-0.2-0.3-0.3-0.8-0.3-1.3v-4.2h-1v-0.6l1-0.5l0.5-1.5h0.7v1.6h2.1v0.9h-2.1v4.1c0,0.4,0.1,0.8,0.3,1 C634.7,54.7,634.9,54.8,635.3,54.8z M638.3,45.8c0.2,0,0.3,0.1,0.5,0.2c0.1,0.1,0.2,0.3,0.2,0.6c0,0.2-0.1,0.4-0.2,0.6 c-0.1,0.1-0.3,0.2-0.5,0.2c-0.2,0-0.4-0.1-0.5-0.2c-0.1-0.1-0.2-0.3-0.2-0.6c0-0.3,0.1-0.4,0.2-0.6 C637.9,45.9,638.1,45.8,638.3,45.8z M638.9,48.5v7.1h-1.2v-7.1H638.9z M643.8,48.4c0.9,0,1.5,0.2,1.9,0.6c0.4,0.4,0.6,1,0.6,1.8v4.9 h-0.9l-0.2-1h-0.1c-0.3,0.4-0.6,0.7-1,0.9c-0.3,0.2-0.8,0.3-1.4,0.3c-0.6,0-1.2-0.2-1.6-0.5c-0.4-0.3-0.6-0.9-0.6-1.6 c0-0.7,0.3-1.3,0.8-1.6c0.6-0.4,1.4-0.6,2.6-0.6l1.2,0v-0.4c0-0.6-0.1-1-0.4-1.2c-0.3-0.2-0.6-0.3-1.1-0.3c-0.4,0-0.7,0.1-1.1,0.2 c-0.3,0.1-0.7,0.2-0.9,0.4l-0.4-0.9c0.3-0.2,0.7-0.3,1.1-0.4C642.9,48.4,643.4,48.4,643.8,48.4z M644.2,52.2c-0.9,0-1.5,0.2-1.9,0.4 c-0.3,0.2-0.5,0.6-0.5,1.1c0,0.4,0.1,0.7,0.4,0.9c0.2,0.2,0.6,0.3,0.9,0.3c0.6,0,1.1-0.2,1.5-0.5c0.4-0.3,0.6-0.9,0.6-1.5v-0.6 L644.2,52.2z M649.8,55.6h-1.2V45.5h1.2V55.6z M652.6,45.8c0.2,0,0.3,0.1,0.5,0.2c0.1,0.1,0.2,0.3,0.2,0.6c0,0.2-0.1,0.4-0.2,0.6 c-0.1,0.1-0.3,0.2-0.5,0.2c-0.2,0-0.4-0.1-0.5-0.2c-0.1-0.1-0.2-0.3-0.2-0.6c0-0.3,0.1-0.4,0.2-0.6 C652.3,45.9,652.4,45.8,652.6,45.8z M653.2,48.5v7.1H652v-7.1H653.2z M657.9,54.8c0.2,0,0.4,0,0.5,0c0.2,0,0.3-0.1,0.5-0.1v0.9 c-0.1,0.1-0.3,0.1-0.5,0.1c-0.2,0-0.5,0.1-0.7,0.1c-0.4,0-0.7-0.1-1-0.2c-0.3-0.1-0.6-0.4-0.8-0.7c-0.2-0.3-0.3-0.8-0.3-1.3v-4.2h-1 v-0.6l1-0.5l0.5-1.5h0.7v1.6h2.1v0.9h-2.1v4.1c0,0.4,0.1,0.8,0.3,1C657.3,54.7,657.5,54.8,657.9,54.8z M663,48.3 c0.6,0,1.1,0.1,1.6,0.4c0.4,0.3,0.8,0.6,1,1.1c0.2,0.5,0.4,1,0.4,1.7v0.7h-4.9c0,0.8,0.2,1.4,0.6,1.9c0.4,0.4,1,0.6,1.7,0.6 c0.5,0,0.9,0,1.2-0.1c0.4-0.1,0.7-0.2,1.1-0.4v1c-0.4,0.2-0.7,0.3-1.1,0.3c-0.4,0.1-0.8,0.1-1.3,0.1c-0.7,0-1.3-0.1-1.8-0.4 c-0.5-0.3-0.9-0.7-1.2-1.2c-0.3-0.6-0.4-1.2-0.4-2c0-0.8,0.1-1.5,0.4-2c0.3-0.6,0.6-1,1.1-1.3C661.9,48.5,662.4,48.3,663,48.3z M663,49.3c-0.6,0-1,0.2-1.3,0.5c-0.3,0.4-0.5,0.9-0.6,1.5h3.6c0-0.6-0.2-1.1-0.4-1.5C664.1,49.5,663.6,49.3,663,49.3z M664.9,45.5 c-0.1,0.2-0.3,0.4-0.5,0.6c-0.2,0.2-0.5,0.5-0.7,0.8c-0.2,0.2-0.5,0.5-0.7,0.6h-0.8v-0.2c0.1-0.2,0.3-0.4,0.4-0.6 c0.2-0.2,0.3-0.5,0.5-0.7c0.2-0.2,0.3-0.5,0.4-0.7h1.4V45.5z"/>
<line class="st2" x1="575" y1="61.5" x2="667" y2="61.5"/>
<path class="st3" d="M832.8,36.2h4.5v8.9h-4.5V36.2z M825.1,40.6l-0.3,0.1c0,0,1.5,1.3,1.5,1.4c0.1,0.1,0.2,0.1,0.1,0.3 s-0.2,0.5-0.2,0.5s1.4-0.3,1.5-0.3c0.2,0,0.3,0,0.3,0.2c0,0.2-0.1,1.6-0.1,1.6h0.4c0,0-0.1-1.5-0.1-1.6c0-0.2,0.1-0.2,0.3-0.2 s1.5,0.3,1.5,0.3s-0.1-0.3-0.2-0.5c-0.1-0.3,0-0.3,0.1-0.3c0.1-0.1,1.5-1.4,1.5-1.4l-0.3-0.1c-0.2-0.1-0.1-0.2-0.1-0.3 s0.3-0.9,0.3-0.9s-0.7,0.2-0.8,0.2s-0.2,0-0.2-0.1c0-0.1-0.2-0.4-0.2-0.4s-0.8,0.9-0.9,0.9c-0.2,0.2-0.3,0-0.3-0.2 c0-0.2,0.4-2,0.4-2s-0.4,0.3-0.6,0.3s-0.3,0.1-0.3-0.1c-0.1-0.2-0.6-1.1-0.6-1.2c0,0-0.5,1-0.6,1.2c-0.1,0.2-0.2,0.2-0.3,0.1 c-0.2-0.1-0.6-0.3-0.6-0.3s0.4,1.8,0.4,2c0,0.2-0.1,0.3-0.3,0.2l-0.9-0.9c0,0-0.1,0.3-0.2,0.3c0,0.1-0.1,0.2-0.2,0.1 c-0.2,0-0.9-0.2-0.9-0.2s0.3,0.9,0.3,0.9C825.3,40.4,825.3,40.6,825.1,40.6z M819.3,36.2h4.5v8.9h-4.5V36.2z"/>
<path d="M838.3,62.9c-0.3,0.8-1,1-1.5,1c-0.5,0-2.1-0.1-2.1-4.1c0,0,0-8.1,0-8.7c0-2.7-2.1-4.8-7.4-4.8c-5.8,0-5.8,2.8-5.8,3.5 c-0.1,0.8,0.3,1.6,1.8,1.6c1.3,0,1.6-1.5,1.8-2c0.2-0.6,0.3-2.3,2.6-2.3c2,0,3.2,1.7,3.3,4.2c0,0.4,0,0.7,0,0.9c0,0.2,0,0.3,0,0.4 v0.1c-0.2,0.9-0.6,1.3-1.4,1.6c-1,0.5-4,0.9-4.4,1c-1.2,0.3-4.6,1.1-4.5,4.6c0.1,3.4,3.5,4.6,5.9,4.5c2.3-0.1,3.7-1,4.3-1.5 c0.3-0.3,0.3-0.3,0.6,0.1c0.3,0.3,1.5,1.5,4.1,1.5c2.8,0,3.1-1.3,3.3-1.7C839.1,62.8,838.5,62.5,838.3,62.9z M827.6,63.9 c-2.4,0-3-2-3-3c0-0.9,0.5-2.9,2.9-4.3c0,0,1.1-0.7,3.3-1.5c0.1,0,0.2,0,0.2,0s0.1,0.1,0.1,0.2v0.1v0.1V59 C831,61.8,829.6,63.9,827.6,63.9z M819.7,63.8c-0.3-0.1-2.5,0.2-2.5-6.3s0-20.5,0-20.5c0-0.3,0-0.9-0.8-0.9c-0.8,0-5.9,0.3-6.3,0.3 c-0.3,0-0.6,0.4,0,0.4c0.6,0.1,3.4,0.3,3.4,4.8c0,2.2,0,4.5,0,6.1c0,0.1,0,0.2,0,0.2c0,0.2,0,0.3-0.1,0.3c0,0,0,0,0,0.1 c-0.1,0.1-0.2,0-0.4-0.2c-0.4-0.3-2.4-1.5-4.9-1.5c-4,0-9,2.9-9,8.9c0,6.4,4.6,9.5,9.3,9.5c2.3,0,4-1,4.6-1.4 c0.7-0.4,0.6-0.3,0.7,0.3c0.1,0.4,0,1.3,1.2,1.2c1.3-0.2,4.4-0.5,5-0.6C820.3,64.2,820.2,63.9,819.7,63.8z M809,64 c-3.8,0-5.8-4.5-5.8-8.7c0-4.7,2.7-7.9,5.5-7.7c3.7,0.3,4.6,3.2,4.7,8.4c0,0.3,0,0.7,0,1.1C813.4,62.2,811.2,64,809,64z M798.9,62.9 c-0.3,0.8-1,1-1.5,1c-0.5,0-2.1-0.1-2.1-4.1c0,0,0-8.1,0-8.7c0-2.7-2.1-4.8-7.4-4.8c-5.8,0-5.8,2.8-5.8,3.5 c-0.1,0.8,0.3,1.6,1.8,1.6c1.3,0,1.6-1.5,1.8-2c0.2-0.6,0.3-2.3,2.6-2.3c2,0,3.3,1.7,3.3,4.3v0.1c0,0.1,0,0.2,0,0.2V52 c0,0.1,0,0.3,0,0.3c-0.1,1.3-0.4,1.7-1.5,2.2c-1,0.5-4,0.9-4.4,1c-1.2,0.3-4.6,1.1-4.5,4.6c0.1,3.4,3.5,4.6,5.9,4.5 c2.3-0.1,3.7-1,4.3-1.5c0.3-0.3,0.3-0.3,0.6,0.1c0.3,0.3,1.5,1.5,4.1,1.5c2.8,0,3.1-1.3,3.3-1.7C799.7,62.8,799.2,62.5,798.9,62.9z M788.3,63.9c-2.4,0-3-2-3-3c0-0.9,0.5-2.9,2.9-4.3c0,0,1.1-0.7,3.3-1.5c0.1,0,0.2,0,0.2,0v0.1c0,0.1,0,0.2,0,0.3v-0.1 c0,0,0,0,0,0.1v3.6C791.6,61.8,790.3,63.9,788.3,63.9z M780,63.8c-0.7-0.2-1.9-0.9-1.9-4.7v-6.9c0-1.6,0.2-5.8-6.3-5.8 c-3.4,0-5.2,1.7-5.4,1.8c-0.3,0.3-0.4,0.3-0.5-0.1c-0.1-0.3-0.3-0.9-0.3-1.2c-0.1-0.3-0.3-0.5-0.9-0.4c-0.6,0.1-4.4,0.7-5.1,0.9 c-0.6,0.2-0.4,0.4,0,0.5c0.4,0.1,2.5,0.3,2.5,3.8c0,3.5,0,7.4,0,7.4c0,4.3-0.9,4.6-1.6,4.9c-1,0.3-0.5,0.6-0.1,0.6c0,0,7.6,0,7.8,0 c0.5,0,0.8-0.5-0.3-0.7c-1-0.2-2-0.8-2-4.1c0-0.3,0-4,0-4.7c0-1.8-0.4-7.3,4.6-7.4c3.5-0.1,3.9,2.8,3.9,4.7v7.3c0,3-0.9,3.9-1.9,4.1 c-0.9,0.2-0.8,0.6-0.3,0.6c0.2,0,8,0,8,0C780.7,64.5,781.2,64,780,63.8z M759.1,62.9c-0.3,0.8-1,1-1.5,1c-0.5,0-2.1-0.1-2.1-4.1 c0,0,0-8.1,0-8.7c0-2.7-2.1-4.8-7.4-4.8c-5.8,0-5.8,2.8-5.8,3.5c-0.1,0.8,0.3,1.6,1.8,1.6c1.3,0,1.6-1.5,1.8-2 c0.2-0.6,0.3-2.3,2.6-2.3c2,0,3.2,1.7,3.3,4.2c0,0.4,0,0.7,0,0.9c0,0.2,0,0.3-0.1,0.4v0.1c-0.2,0.9-0.6,1.3-1.4,1.6 c-1,0.5-4,0.9-4.4,1c-1.2,0.3-4.6,1.1-4.5,4.6c0.1,3.4,3.5,4.6,5.9,4.5c2.3-0.1,3.7-1,4.3-1.5c0.3-0.3,0.3-0.3,0.6,0.1 c0.3,0.3,1.5,1.5,4.1,1.5c2.8,0,3.1-1.3,3.3-1.7C759.9,62.8,759.3,62.5,759.1,62.9z M748.4,63.9c-2.4,0-3-2-3-3s0.5-2.9,2.9-4.3 c0,0,1.1-0.7,3.3-1.5c0.1,0,0.2,0,0.2,0s0.1,0.1,0.1,0.2c0,0,0,0.1,0,0.2v0.1v3.6C751.8,61.8,750.5,63.9,748.4,63.9z M740.2,56.4 c-0.9,2.7-2.5,7.2-8.4,7.4c-6.2,0.1-9.9-4.1-10.1-11.9c-0.3-8.3,3.4-14.7,8.9-14.8c6.3-0.1,8.5,7.4,8.6,8.5c0.1,0.9,1.2,0.8,1.2-0.1 c0-0.4-0.5-7.8-0.7-8.7c-0.2-0.9-0.9-0.5-1-0.2c-0.1,0.3,0.1-0.3-0.3,0.5s-1.3,0.3-1.6,0.3c-1-0.4-3-1.5-6.2-1.4 c-7.3,0.2-14.8,5.6-14.6,15c0.2,9.2,7.6,14.3,14.4,14.2c6.3-0.1,9.8-4,10.8-8.6C741.6,55.6,740.5,55.3,740.2,56.4z"/>
</svg>
