<svg width="399" height="37" viewBox="0 0 399 37" fill="none" xmlns="http://www.w3.org/2000/svg">
<path d="M0 0H17.9455V36.1084H0V0ZM57.7432 0H75.6887V36.1084H57.7432V0ZM35.3552 7.51436L37.9174 2.35877L40.4602 7.32662C40.7768 7.85133 41.035 7.808 41.5416 7.55769L43.7288 6.48902L42.3064 13.4257C42.0092 14.788 42.7935 15.1876 43.6459 14.2633L46.7635 10.9707L47.5916 12.8336C47.8693 13.3968 48.2882 13.315 48.8435 13.2139L52.0634 12.5448L50.982 16.5643V16.651C50.8553 17.1757 50.602 17.6137 51.1963 17.8689L52.341 18.4321L45.6772 23.9824C45.0001 24.6708 45.234 24.8826 45.4873 25.6576L46.101 27.5206L39.9097 26.4134C39.145 26.2257 38.614 26.2257 38.5945 26.8322L38.8478 33.8507H36.987L37.2403 26.8514C37.2403 26.1631 36.7094 26.1823 35.4575 26.4375L29.7143 27.5254L30.4547 25.6624C30.708 24.95 30.7762 24.4686 30.2014 23.9872L23.4353 18.5139L24.6872 17.7582C25.0477 17.4838 25.0672 17.1949 24.8772 16.5836L23.6058 12.5159L26.8695 13.2043C27.7805 13.4161 28.0338 13.2043 28.2676 12.7229L29.1785 10.8792L32.4032 14.4414C32.9731 15.1106 33.7818 14.6725 33.5285 13.7097L31.9794 6.19056L34.3761 7.55287C34.756 7.78393 35.1603 7.84651 35.3941 7.40846" fill="#EB2D37"/>
<path d="M120.548 15.4042H118.857L118.458 13.6567C117.045 15.2405 115.764 15.7604 113.928 15.7604C109.422 15.7604 106.723 12.2222 106.723 7.97644C106.723 3.73066 109.427 0.192505 113.932 0.192505C117.22 0.192505 119.978 1.92548 120.377 5.29515H117.81C117.557 3.34074 115.832 2.33947 113.913 2.33947C110.688 2.33947 109.344 5.15073 109.344 8.00051C109.344 10.8503 110.693 13.6616 113.913 13.6616C116.607 13.7049 118.083 12.1019 118.127 9.58425H114.127V7.58171H120.528V15.4042H120.548ZM128.064 13.8252C125.916 13.8252 124.966 11.8997 124.966 10.0175C124.966 8.1353 125.916 6.22903 128.064 6.22903C130.212 6.22903 131.162 8.15455 131.162 10.0175C131.162 11.8804 130.212 13.8252 128.064 13.8252ZM128.064 15.6978C131.561 15.6978 133.563 13.3246 133.563 10.0175C133.563 6.71041 131.561 4.33238 128.064 4.33238C124.566 4.33238 122.569 6.73929 122.569 10.0175C122.569 13.2957 124.571 15.6978 128.064 15.6978ZM145.128 15.4042H142.77V13.9119H142.726C142.409 14.4483 141.957 14.8948 141.415 15.2085C140.872 15.5222 140.257 15.6923 139.628 15.7026C136.783 15.7026 135.565 14.2873 135.565 11.4761V4.64528H137.967V11.245C137.967 13.1417 138.746 13.8252 140.052 13.8252C142.054 13.8252 142.726 12.5592 142.726 10.8888V4.63084H145.128V15.4042ZM146.579 4.64528H149.19L151.947 12.9106H151.981L154.636 4.64528H157.12L153.224 15.4042H150.52L146.579 4.64528ZM160.457 9.0788C160.452 8.70477 160.522 8.33347 160.664 7.98666C160.806 7.63985 161.017 7.32451 161.283 7.05911C161.55 6.79371 161.868 6.58358 162.218 6.44105C162.568 6.29851 162.943 6.22643 163.322 6.22903C164.944 6.22903 165.976 7.58171 166.059 9.0788H160.457ZM168.461 10.6385C168.865 7.41322 166.756 4.33238 163.322 4.33238C160.077 4.33238 158.056 6.95591 158.056 10.0127C158.056 13.3198 159.97 15.6737 163.385 15.6737C165.762 15.6737 167.769 14.3644 168.314 12.0104H166.04C165.621 13.1994 164.778 13.8012 163.385 13.8012C161.383 13.8012 160.462 12.3041 160.462 10.6144L168.461 10.6385ZM170.297 4.64528H172.552V6.73929H172.591C172.811 6.06586 173.233 5.4746 173.801 5.04451C174.37 4.61442 175.057 4.36598 175.772 4.33238C176.076 4.32949 176.378 4.35042 176.678 4.39496V6.68634C176.337 6.63034 175.992 6.59497 175.646 6.58043C174.004 6.58043 172.699 7.88979 172.699 10.263V15.4042H170.297V4.64528ZM177.706 4.64528H179.981V6.22903L180.025 6.27235C180.37 5.68181 180.867 5.19238 181.466 4.85407C182.065 4.51577 182.745 4.34072 183.435 4.34683C185.797 4.34683 187.288 5.5936 187.288 8.01014V15.4042H184.886V8.66482C184.847 6.97998 184.17 6.25791 182.758 6.25791C181.155 6.25791 180.127 7.50469 180.127 9.08843V15.4042H177.726L177.706 4.64528ZM191.672 9.0788C191.667 8.70477 191.737 8.33347 191.879 7.98666C192.021 7.63985 192.231 7.32451 192.498 7.05911C192.765 6.79371 193.082 6.58358 193.432 6.44105C193.782 6.29851 194.158 6.22643 194.536 6.22903C196.158 6.22903 197.191 7.58171 197.274 9.0788H191.672ZM199.675 10.6385C200.075 7.41322 197.97 4.33238 194.536 4.33238C191.292 4.33238 189.27 6.95591 189.27 10.0127C189.27 13.3198 191.19 15.6737 194.6 15.6737C196.982 15.6737 198.984 14.3644 199.529 12.0104H197.254C196.831 13.1994 195.988 13.8012 194.6 13.8012C192.597 13.8012 191.677 12.3041 191.677 10.6144L199.675 10.6385ZM201.507 4.64528H203.782V6.14238H203.845C204.179 5.56416 204.668 5.08881 205.259 4.76924C205.85 4.44968 206.519 4.29845 207.192 4.33238C208.521 4.33238 209.764 4.8956 210.246 6.12312C210.61 5.55993 211.116 5.0992 211.713 4.7855C212.31 4.47179 212.979 4.31572 213.656 4.33238C215.95 4.33238 217.299 5.33366 217.299 7.95237V15.4042H214.898V9.1462C214.898 7.43729 214.791 6.25791 212.92 6.25791C211.298 6.25791 210.601 7.32176 210.601 9.1462V15.4042H208.2V8.49633C208.2 7.01849 207.713 6.22903 206.286 6.22903C205.043 6.22903 203.908 7.2303 203.908 9.01622V15.4042H201.507V4.64528ZM221.708 9.0788C221.703 8.70558 221.773 8.33508 221.914 7.98891C222.055 7.64274 222.265 7.32783 222.53 7.06256C222.796 6.79729 223.113 6.58696 223.462 6.44385C223.81 6.30074 224.185 6.22771 224.562 6.22903C226.184 6.22903 227.217 7.58171 227.3 9.0788H221.708ZM229.711 10.6385C230.111 7.41322 228.001 4.33238 224.562 4.33238C221.318 4.33238 219.296 6.95591 219.296 10.0127C219.296 13.3198 221.211 15.6737 224.626 15.6737C227.003 15.6737 229.01 14.3644 229.555 12.0104H227.28C226.861 13.1994 226.019 13.8012 224.626 13.8012C222.624 13.8012 221.703 12.3041 221.703 10.6144L229.711 10.6385ZM231.543 4.64528H233.818V6.22903L233.861 6.27235C234.206 5.68181 234.704 5.19238 235.303 4.85407C235.902 4.51577 236.581 4.34072 237.271 4.34683C239.634 4.34683 241.124 5.5936 241.124 8.01014V15.4042H238.689V8.66482C238.65 6.97998 237.973 6.25791 236.56 6.25791C234.957 6.25791 233.925 7.50469 233.925 9.08843V15.4042H231.523L231.543 4.64528ZM242.537 4.64528H244.349V1.4441H246.751V4.66935H248.918V6.44083H246.751V12.1645C246.751 13.1272 246.833 13.6423 247.91 13.6423C248.25 13.6566 248.59 13.6291 248.923 13.5605V15.4042C248.397 15.4427 247.89 15.5293 247.364 15.5293C244.861 15.5293 244.398 14.5665 244.354 12.7806V6.41676H242.542V4.64528H242.537ZM108.964 30.9576C108.964 29.0321 109.763 27.044 112.018 27.044C113.869 27.044 115.028 28.4592 115.028 30.8324C115.028 32.705 114.122 34.6401 111.974 34.6401C109.826 34.6401 108.964 32.8061 108.964 30.9576ZM117.347 21.3588H114.96V26.8562H114.916C114.181 25.672 112.661 25.1714 111.297 25.1714C108.915 25.1714 106.577 26.8755 106.577 30.7698C106.577 33.9951 108.243 36.5127 111.672 36.5127C113.041 36.5127 114.41 35.9928 115.043 34.7653H115.082V36.2095H117.357V21.3588H117.347ZM129.52 36.2239H127.138V34.722C126.821 35.2584 126.369 35.7049 125.827 36.0186C125.284 36.3323 124.669 36.5025 124.04 36.5127C121.195 36.5127 119.978 35.0975 119.978 32.2862V25.4602H122.379V32.0551C122.379 33.9518 123.158 34.6353 124.464 34.6353C126.466 34.6353 127.138 33.3693 127.138 31.6989V25.441H129.54V36.2239H129.52ZM148.391 26.086C147.948 24.3771 146.833 23.1303 144.64 23.1303C141.416 23.1303 140.071 25.9416 140.071 28.7914C140.071 31.6411 141.421 34.4524 144.64 34.4524C146.979 34.4524 148.26 32.7291 148.474 30.5628H151.046C150.837 34.1203 148.289 36.5801 144.645 36.5801C140.139 36.5801 137.441 33.042 137.441 28.7962C137.441 24.5504 140.135 21.0122 144.645 21.0122C148.055 21.0122 150.71 22.8848 151.027 26.0908H148.391V26.086ZM159.829 32.5991C159.829 34.0962 158.187 34.6401 157.135 34.6401C156.292 34.6401 154.924 34.3273 154.924 33.2682C154.924 32.0214 155.849 31.646 156.872 31.4775C157.895 31.309 159.084 31.309 159.819 30.8324V32.6039L159.829 32.5991ZM162.23 28.2667C162.23 25.9994 159.999 25.1425 157.846 25.1425C155.445 25.1425 153.068 25.956 152.897 28.724H155.299C155.406 27.559 156.356 27.0151 157.7 27.0151C158.674 27.0151 159.956 27.2461 159.956 28.4592C159.956 29.8552 158.416 29.6675 156.692 29.9804C154.67 30.2066 152.503 30.6447 152.503 33.35C152.503 35.4537 154.271 36.4935 156.229 36.4935C157.606 36.5317 158.949 36.0654 159.999 35.1841C160.189 36.1469 160.886 36.4935 161.855 36.4935C162.37 36.468 162.879 36.3774 163.37 36.2239V34.6016C163.175 34.6308 162.978 34.6437 162.781 34.6401C162.338 34.6401 162.211 34.4139 162.211 33.8266V28.2907L162.23 28.2667ZM164.817 25.4602H167.082V27.044L167.126 27.0873C167.471 26.4967 167.968 26.0073 168.567 25.669C169.167 25.3307 169.846 25.1556 170.536 25.1618C172.898 25.1618 174.389 26.4085 174.389 28.8251V36.2239H171.987V29.4557C171.948 27.7708 171.271 27.0488 169.859 27.0488C168.256 27.0488 167.228 28.2955 167.228 29.8793V36.2239H164.827L164.817 25.4602ZM183.644 32.5991C183.644 34.0962 182.003 34.6401 180.946 34.6401C180.103 34.6401 178.734 34.3273 178.734 33.2682C178.734 32.0214 179.66 31.646 180.682 31.4775C181.705 31.309 182.889 31.2897 183.644 30.8084V32.5798V32.5991ZM186.046 28.2667C186.046 25.9994 183.815 25.1425 181.686 25.1425C179.284 25.1425 176.902 25.956 176.737 28.724H179.138C179.245 27.559 180.19 27.0151 181.54 27.0151C182.514 27.0151 183.79 27.2461 183.79 28.4592C183.79 29.8552 182.251 29.6675 180.527 29.9804C178.505 30.2066 176.333 30.6447 176.333 33.35C176.333 35.4537 178.106 36.4935 180.059 36.4935C181.436 36.5317 182.779 36.0654 183.829 35.1841C184.019 36.1469 184.716 36.4935 185.685 36.4935C186.2 36.4682 186.709 36.3776 187.2 36.2239V34.6016C187.005 34.6309 186.808 34.6438 186.611 34.6401C186.167 34.6401 186.041 34.4139 186.041 33.8266V28.2907L186.046 28.2667ZM190.493 30.9576C190.493 29.0321 191.292 27.044 193.547 27.044C195.398 27.044 196.558 28.4592 196.558 30.8324C196.558 32.705 195.652 34.6401 193.503 34.6401C191.355 34.6401 190.493 32.8061 190.493 30.9576ZM198.876 21.3637H196.475V26.8562H196.431C195.696 25.672 194.181 25.1714 192.812 25.1714C190.43 25.1714 188.096 26.8755 188.096 30.7698C188.096 33.9951 189.762 36.5127 193.192 36.5127C194.561 36.5127 195.929 35.9928 196.563 34.7653H196.606V36.2095H198.881V21.3588L198.876 21.3637ZM208.205 32.5991C208.205 34.0962 206.563 34.6401 205.511 34.6401C204.668 34.6401 203.299 34.3273 203.299 33.2682C203.299 32.0214 204.225 31.646 205.248 31.4775C206.271 31.309 207.459 31.309 208.195 30.8324V32.6039L208.205 32.5991ZM210.606 28.2667C210.606 25.9994 208.375 25.1425 206.247 25.1425C203.845 25.1425 201.463 25.956 201.297 28.724H203.699C203.806 27.559 204.751 27.0151 206.1 27.0151C207.075 27.0151 208.351 27.2461 208.351 28.4592C208.351 29.8552 206.812 29.6675 205.087 29.9804C203.066 30.2066 200.893 30.6447 200.893 33.35C200.893 35.4537 202.666 36.4935 204.62 36.4935C205.997 36.5313 207.339 36.065 208.39 35.1841C208.58 36.1469 209.276 36.4935 210.241 36.4935C210.756 36.4681 211.265 36.3775 211.756 36.2239V34.6016C211.561 34.6309 211.364 34.6438 211.166 34.6401C210.723 34.6401 210.597 34.4139 210.597 33.8266V28.2907L210.606 28.2667Z" fill="black"/>
<path d="M294.415 15.2742H292.73L292.33 13.5268C290.918 15.1105 289.637 15.6304 287.8 15.6304C283.294 15.6304 280.596 12.0923 280.596 7.84649C280.596 3.6007 283.294 0.0577393 287.8 0.0577393C291.088 0.0577393 293.845 1.7859 294.245 5.13631H291.678C291.424 3.1819 289.7 2.18063 287.781 2.18063C284.556 2.18063 283.212 4.9919 283.212 7.84167C283.212 10.6915 284.561 13.5027 287.781 13.5027C290.474 13.5412 291.95 11.943 291.994 9.4206H287.995V7.44694H294.415V15.2742ZM301.932 13.6905C299.783 13.6905 298.833 11.7649 298.833 9.88273C298.833 8.00053 299.783 6.09426 301.932 6.09426C304.08 6.09426 305.03 8.01979 305.03 9.88273C305.03 11.7457 304.08 13.6905 301.932 13.6905ZM301.932 15.563C305.429 15.563 307.431 13.1898 307.431 9.88273C307.431 6.57564 305.424 4.22169 301.932 4.22169C298.439 4.22169 296.432 6.5949 296.432 9.88273C296.432 13.1706 298.434 15.5678 301.932 15.5678V15.563ZM308.347 4.51533H310.958L313.705 12.7758H313.749L316.404 4.51052H318.888L314.991 15.2694H312.297L308.347 4.51533ZM322.235 8.94404C322.23 8.57 322.3 8.1987 322.442 7.8519C322.584 7.50509 322.794 7.18975 323.061 6.92434C323.328 6.65894 323.645 6.44882 323.995 6.30628C324.345 6.16374 324.72 6.09166 325.099 6.09426C326.721 6.09426 327.754 7.44694 327.837 8.94404H322.235ZM330.238 10.5085C330.638 7.28327 328.533 4.22169 325.099 4.22169C321.855 4.22169 319.833 6.84521 319.833 9.90199C319.833 13.2091 321.752 15.563 325.162 15.563C327.544 15.563 329.546 14.2537 330.092 11.8997H327.832C327.408 13.0887 326.57 13.6905 325.177 13.6905C323.175 13.6905 322.254 12.1934 322.254 10.5037L330.238 10.5085ZM332.07 4.51533H334.325V6.5949H334.369C334.593 5.92739 335.018 5.34303 335.586 4.91921C336.154 4.4954 336.839 4.25215 337.55 4.22169C337.853 4.21867 338.156 4.2396 338.456 4.28427V6.57564C338.114 6.51976 337.769 6.48439 337.423 6.46974C335.782 6.46974 334.476 7.77909 334.476 10.1523V15.2742H332.07V4.51533ZM339.484 4.51533H341.758V6.09907L341.802 6.1424C342.147 5.55186 342.645 5.06243 343.244 4.72412C343.843 4.38582 344.522 4.21077 345.212 4.21687C347.57 4.21687 349.065 5.46365 349.065 7.88018V15.2742H346.664V8.51079C346.62 6.82596 345.948 6.10389 344.535 6.10389C342.932 6.10389 341.9 7.35066 341.9 8.93441V15.2742H339.498V4.51533H339.484ZM351.574 4.51533H353.849V6.01243H353.912C354.248 5.43779 354.739 4.96633 355.33 4.65026C355.92 4.3342 356.588 4.18586 357.259 4.22169C358.584 4.22169 359.831 4.7849 360.313 6.01243C360.677 5.44924 361.183 4.98851 361.78 4.6748C362.377 4.36109 363.046 4.20502 363.723 4.22169C366.017 4.22169 367.366 5.22296 367.366 7.84167V15.2742H364.965V8.98736C364.965 7.27846 364.858 6.09907 362.987 6.09907C361.365 6.09907 360.668 7.16293 360.668 8.98736V15.2935H358.267V8.36638C358.267 6.88854 357.78 6.09907 356.353 6.09907C355.11 6.09907 353.971 7.10035 353.971 8.88627V15.2742H351.569V4.51533H351.574ZM371.775 8.94404C371.77 8.57 371.84 8.1987 371.982 7.8519C372.124 7.50509 372.334 7.18975 372.601 6.92434C372.868 6.65894 373.185 6.44882 373.535 6.30628C373.885 6.16374 374.261 6.09166 374.639 6.09426C376.261 6.09426 377.294 7.44694 377.377 8.94404H371.775ZM379.778 10.5085C380.178 7.28327 378.073 4.22169 374.639 4.22169C371.395 4.22169 369.373 6.84521 369.373 9.90199C369.373 13.2091 371.288 15.563 374.702 15.563C377.084 15.563 379.086 14.2537 379.632 11.8997H377.357C376.938 13.0887 376.096 13.6905 374.702 13.6905C372.7 13.6905 371.78 12.1934 371.78 10.5037L379.778 10.5085ZM381.61 4.51533H383.885V6.09907L383.928 6.1424C384.273 5.55186 384.771 5.06243 385.37 4.72412C385.969 4.38582 386.648 4.21077 387.338 4.21687C389.696 4.21687 391.191 5.46365 391.191 7.88018V15.2742H388.77V8.51079C388.727 6.82596 388.054 6.10389 386.642 6.10389C385.039 6.10389 384.006 7.35066 384.006 8.93441V15.2742H381.61V4.51533ZM392.619 4.51533H394.426V1.28526H396.827V4.51052H398.995V6.282H396.827V12.0345C396.827 12.9973 396.91 13.5123 397.987 13.5123C398.327 13.526 398.667 13.4969 399 13.4257V15.2598C398.474 15.2983 397.967 15.3849 397.441 15.3849C394.933 15.3849 394.47 14.4222 394.426 12.6362V6.282H392.619V4.51533ZM285.939 34.5054C283.791 34.5054 282.841 32.5799 282.841 30.6977C282.841 28.8155 283.796 26.9092 285.939 26.9092C288.083 26.9092 289.037 28.8347 289.037 30.6977C289.037 32.5606 288.097 34.5054 285.939 34.5054ZM285.939 36.378C289.437 36.378 291.434 34.0047 291.434 30.6977C291.434 27.3906 289.442 25.0318 285.939 25.0318C282.437 25.0318 280.44 27.405 280.44 30.6928C280.44 33.9807 282.447 36.378 285.939 36.378ZM292.369 25.3254H294.157V24.4349C294.157 21.6862 295.618 21.2289 297.168 21.2289C297.733 21.2072 298.299 21.2557 298.853 21.3733V23.2266C298.489 23.134 298.113 23.0918 297.737 23.1015C297.085 23.1015 296.559 23.3325 296.559 24.2231V25.3254H298.605V27.0969H296.559V36.1036H294.157V27.0969H292.369V25.3254ZM316.423 25.9512C315.98 24.2423 314.865 22.9956 312.673 22.9956C309.448 22.9956 308.103 25.8068 308.103 28.6566C308.103 31.5064 309.453 34.3176 312.673 34.3176C315.011 34.3176 316.297 32.5895 316.506 30.4233H319.064C318.854 33.9807 316.306 36.4405 312.663 36.4405C308.157 36.4405 305.458 32.9024 305.458 28.6566C305.458 24.4108 308.157 20.8727 312.663 20.8727C316.073 20.8727 318.727 22.7452 319.044 25.9512H316.414H316.423ZM327.861 32.4691C327.861 33.9662 326.219 34.5102 325.162 34.5102C324.32 34.5102 322.951 34.1973 322.951 33.1383C322.951 31.8915 323.876 31.516 324.899 31.3475C325.922 31.179 327.111 31.179 327.846 30.7025L327.861 32.4691ZM330.262 28.1367C330.262 25.8694 328.031 25.0174 325.878 25.0174C323.477 25.0174 321.095 25.8309 320.929 28.5988H323.331C323.448 27.4387 324.422 26.9092 325.752 26.9092C326.726 26.9092 328.007 27.1403 328.007 28.3533C328.007 29.7493 326.468 29.5616 324.743 29.8745C322.722 30.1007 320.554 30.5388 320.554 33.2442C320.554 35.3478 322.322 36.3876 324.281 36.3876C325.658 36.4254 327 35.9591 328.051 35.0782C328.241 36.041 328.937 36.3876 329.902 36.3876C330.417 36.3621 330.926 36.2716 331.417 36.118V34.4669C331.222 34.4961 331.025 34.509 330.828 34.5054C330.384 34.5054 330.258 34.2791 330.258 33.6918L330.262 28.1367ZM332.849 25.3254H335.139V26.9092L335.182 26.9525C335.527 26.362 336.025 25.8725 336.624 25.5342C337.223 25.1959 337.902 25.0209 338.592 25.027C340.95 25.027 342.445 26.2738 342.445 28.6903V36.1036H340.01V29.3257C339.966 27.6409 339.294 26.9188 337.881 26.9188C336.278 26.9188 335.246 28.1656 335.246 29.7493V36.1036H332.849V25.3254ZM351.657 32.4691C351.657 33.9662 350.015 34.5102 348.963 34.5102C348.12 34.5102 346.751 34.1973 346.751 33.1383C346.751 31.8915 347.677 31.516 348.7 31.3475C349.723 31.179 350.911 31.179 351.647 30.7025L351.657 32.4691ZM354.058 28.1367C354.058 25.8694 351.827 25.0174 349.674 25.0174C347.273 25.0174 344.896 25.8309 344.725 28.5988H347.127C347.234 27.4339 348.179 26.8947 349.528 26.8947C350.502 26.8947 351.783 27.1258 351.783 28.3389C351.783 29.7349 350.244 29.5472 348.52 29.8601C346.498 30.0863 344.33 30.5244 344.33 33.2297C344.33 35.3334 346.099 36.3731 348.057 36.3731C349.434 36.411 350.777 35.9447 351.827 35.0638C352.017 36.0265 352.714 36.3731 353.678 36.3731C354.193 36.3477 354.702 36.2571 355.193 36.1036V34.4669C354.998 34.4961 354.801 34.509 354.604 34.5054C354.161 34.5054 354.034 34.2791 354.034 33.6918L354.058 28.1367ZM358.52 30.8084C358.52 28.8829 359.319 26.8947 361.575 26.8947C363.426 26.8947 364.585 28.31 364.585 30.6832C364.585 32.5558 363.679 34.4909 361.531 34.4909C359.382 34.4909 358.52 32.6761 358.52 30.8084ZM366.908 21.2289H364.507V26.7214H364.463C363.728 25.5372 362.208 25.0366 360.839 25.0366C358.457 25.0366 356.124 26.7407 356.124 30.6351C356.124 33.8603 357.785 36.378 361.219 36.378C362.588 36.378 363.957 35.8581 364.59 34.6305H364.634V36.0747H366.908V21.2289ZM376.237 32.4691C376.237 33.9662 374.595 34.5102 373.538 34.5102C372.695 34.5102 371.327 34.1973 371.327 33.1383C371.327 31.8915 372.252 31.516 373.275 31.3475C374.298 31.179 375.487 31.179 376.222 30.7025L376.237 32.4691ZM378.638 28.1367C378.638 25.8694 376.407 25.0174 374.254 25.0174C371.853 25.0174 369.471 25.8309 369.305 28.5988H371.707C371.814 27.4339 372.759 26.8947 374.108 26.8947C375.082 26.8947 376.364 27.1258 376.364 28.3389C376.364 29.7349 374.824 29.5472 373.1 29.8601C371.078 30.0863 368.911 30.5244 368.911 33.2297C368.911 35.3334 370.679 36.3731 372.637 36.3731C374.014 36.4114 375.357 35.9451 376.407 35.0638C376.597 36.0265 377.294 36.3731 378.258 36.3731C378.773 36.3478 379.282 36.2572 379.773 36.1036V34.4669C379.578 34.4961 379.381 34.509 379.184 34.5054C378.741 34.5054 378.614 34.2791 378.614 33.6918L378.638 28.1367Z" fill="black"/>
</svg>
