<svg width="1460" height="135" viewBox="0 0 1460 135" fill="none" xmlns="http://www.w3.org/2000/svg">
<rect width="1420" height="95" transform="translate(20 20)" fill="#F2F2F2"/>
<path d="M176.592 69.5L172.832 59.484H172.768C172.8 59.8147 172.827 60.2627 172.848 60.828C172.869 61.3827 172.88 61.964 172.88 62.572V69.5H171.552V58.076H173.68L177.2 67.436H177.264L180.848 58.076H182.96V69.5H181.536V62.476C181.536 61.9213 181.547 61.372 181.568 60.828C181.6 60.284 181.627 59.8413 181.648 59.5H181.584L177.776 69.5H176.592ZM189.188 60.764C189.924 60.764 190.553 60.924 191.076 61.244C191.609 61.564 192.014 62.0173 192.292 62.604C192.58 63.18 192.724 63.8573 192.724 64.636V65.484H186.852C186.873 66.4547 187.118 67.196 187.588 67.708C188.068 68.2093 188.734 68.46 189.588 68.46C190.132 68.46 190.612 68.412 191.028 68.316C191.454 68.2093 191.892 68.06 192.34 67.868V69.1C191.902 69.292 191.47 69.4307 191.044 69.516C190.617 69.612 190.11 69.66 189.524 69.66C188.713 69.66 187.993 69.4947 187.364 69.164C186.745 68.8333 186.26 68.3427 185.908 67.692C185.566 67.0307 185.396 66.2253 185.396 65.276C185.396 64.3373 185.55 63.532 185.86 62.86C186.18 62.188 186.622 61.6707 187.188 61.308C187.764 60.9453 188.43 60.764 189.188 60.764ZM189.172 61.916C188.5 61.916 187.966 62.1347 187.572 62.572C187.188 62.9987 186.958 63.596 186.884 64.364H191.252C191.241 63.6387 191.07 63.052 190.74 62.604C190.409 62.1453 189.886 61.916 189.172 61.916ZM191.444 57.404C191.316 57.596 191.118 57.8467 190.852 58.156C190.585 58.4547 190.297 58.7587 189.988 59.068C189.689 59.3667 189.412 59.612 189.156 59.804H188.228V59.612C188.388 59.4093 188.558 59.1693 188.74 58.892C188.932 58.6147 189.118 58.332 189.3 58.044C189.481 57.7453 189.63 57.4787 189.748 57.244H191.444V57.404ZM197.947 69.66C196.88 69.66 196.027 69.292 195.387 68.556C194.747 67.8093 194.427 66.7 194.427 65.228C194.427 63.756 194.747 62.6467 195.387 61.9C196.038 61.1427 196.896 60.764 197.963 60.764C198.624 60.764 199.163 60.8867 199.579 61.132C200.006 61.3773 200.352 61.676 200.619 62.028H200.715C200.704 61.8893 200.683 61.6867 200.651 61.42C200.63 61.1427 200.619 60.924 200.619 60.764V57.34H202.027V69.5H200.891L200.683 68.348H200.619C200.363 68.7107 200.022 69.02 199.595 69.276C199.168 69.532 198.619 69.66 197.947 69.66ZM198.171 68.492C199.078 68.492 199.712 68.2467 200.075 67.756C200.448 67.2547 200.635 66.5027 200.635 65.5V65.244C200.635 64.1773 200.459 63.3613 200.107 62.796C199.755 62.22 199.104 61.932 198.155 61.932C197.398 61.932 196.827 62.236 196.443 62.844C196.07 63.4413 195.883 64.2467 195.883 65.26C195.883 66.284 196.07 67.0787 196.443 67.644C196.827 68.2093 197.403 68.492 198.171 68.492ZM205.471 57.708C205.684 57.708 205.871 57.7827 206.031 57.932C206.201 58.0707 206.287 58.2947 206.287 58.604C206.287 58.9027 206.201 59.1267 206.031 59.276C205.871 59.4253 205.684 59.5 205.471 59.5C205.236 59.5 205.039 59.4253 204.879 59.276C204.719 59.1267 204.639 58.9027 204.639 58.604C204.639 58.2947 204.719 58.0707 204.879 57.932C205.039 57.7827 205.236 57.708 205.471 57.708ZM206.159 60.924V69.5H204.751V60.924H206.159ZM212.124 60.78C213.169 60.78 213.942 61.0093 214.444 61.468C214.945 61.9267 215.196 62.6573 215.196 63.66V69.5H214.172L213.9 68.284H213.836C213.462 68.7533 213.068 69.1 212.652 69.324C212.246 69.548 211.681 69.66 210.956 69.66C210.177 69.66 209.532 69.4573 209.02 69.052C208.508 68.636 208.252 67.9907 208.252 67.116C208.252 66.2627 208.588 65.6067 209.26 65.148C209.932 64.6787 210.966 64.4227 212.364 64.38L213.82 64.332V63.82C213.82 63.1053 213.665 62.6093 213.356 62.332C213.046 62.0547 212.609 61.916 212.044 61.916C211.596 61.916 211.169 61.9853 210.764 62.124C210.358 62.252 209.98 62.4013 209.628 62.572L209.196 61.516C209.569 61.3133 210.012 61.1427 210.524 61.004C211.036 60.8547 211.569 60.78 212.124 60.78ZM212.54 65.356C211.473 65.3987 210.732 65.5693 210.316 65.868C209.91 66.1667 209.708 66.588 209.708 67.132C209.708 67.612 209.852 67.964 210.14 68.188C210.438 68.412 210.817 68.524 211.276 68.524C212.001 68.524 212.604 68.3267 213.084 67.932C213.564 67.5267 213.804 66.908 213.804 66.076V65.308L212.54 65.356ZM223.428 67.132C223.428 67.964 223.119 68.5933 222.5 69.02C221.882 69.4467 221.05 69.66 220.004 69.66C219.407 69.66 218.89 69.612 218.452 69.516C218.026 69.42 217.647 69.2867 217.316 69.116V67.836C217.658 68.0067 218.068 68.1667 218.548 68.316C219.039 68.4547 219.535 68.524 220.036 68.524C220.751 68.524 221.268 68.412 221.588 68.188C221.908 67.9533 222.068 67.644 222.068 67.26C222.068 67.0467 222.01 66.8547 221.892 66.684C221.775 66.5133 221.562 66.3427 221.252 66.172C220.954 66.0013 220.522 65.8093 219.956 65.596C219.402 65.3827 218.927 65.1693 218.532 64.956C218.138 64.7427 217.834 64.4867 217.62 64.188C217.407 63.8893 217.3 63.5053 217.3 63.036C217.3 62.3107 217.594 61.7507 218.18 61.356C218.778 60.9613 219.556 60.764 220.516 60.764C221.039 60.764 221.524 60.8173 221.972 60.924C222.431 61.02 222.858 61.1587 223.252 61.34L222.772 62.46C222.41 62.3107 222.031 62.1827 221.636 62.076C221.242 61.9693 220.836 61.916 220.42 61.916C219.844 61.916 219.402 62.012 219.092 62.204C218.794 62.3853 218.644 62.636 218.644 62.956C218.644 63.1907 218.714 63.3933 218.852 63.564C218.991 63.724 219.22 63.884 219.54 64.044C219.871 64.1933 220.308 64.3747 220.852 64.588C221.396 64.7907 221.86 64.9987 222.244 65.212C222.628 65.4253 222.922 65.6867 223.124 65.996C223.327 66.2947 223.428 66.6733 223.428 67.132ZM235.241 67.132C235.241 67.964 234.932 68.5933 234.313 69.02C233.694 69.4467 232.862 69.66 231.817 69.66C231.22 69.66 230.702 69.612 230.265 69.516C229.838 69.42 229.46 69.2867 229.129 69.116V67.836C229.47 68.0067 229.881 68.1667 230.361 68.316C230.852 68.4547 231.348 68.524 231.849 68.524C232.564 68.524 233.081 68.412 233.401 68.188C233.721 67.9533 233.881 67.644 233.881 67.26C233.881 67.0467 233.822 66.8547 233.705 66.684C233.588 66.5133 233.374 66.3427 233.065 66.172C232.766 66.0013 232.334 65.8093 231.769 65.596C231.214 65.3827 230.74 65.1693 230.345 64.956C229.95 64.7427 229.646 64.4867 229.433 64.188C229.22 63.8893 229.113 63.5053 229.113 63.036C229.113 62.3107 229.406 61.7507 229.993 61.356C230.59 60.9613 231.369 60.764 232.329 60.764C232.852 60.764 233.337 60.8173 233.785 60.924C234.244 61.02 234.67 61.1587 235.065 61.34L234.585 62.46C234.222 62.3107 233.844 62.1827 233.449 62.076C233.054 61.9693 232.649 61.916 232.233 61.916C231.657 61.916 231.214 62.012 230.905 62.204C230.606 62.3853 230.457 62.636 230.457 62.956C230.457 63.1907 230.526 63.3933 230.665 63.564C230.804 63.724 231.033 63.884 231.353 64.044C231.684 64.1933 232.121 64.3747 232.665 64.588C233.209 64.7907 233.673 64.9987 234.057 65.212C234.441 65.4253 234.734 65.6867 234.937 65.996C235.14 66.2947 235.241 66.6733 235.241 67.132ZM244.769 65.196C244.769 66.6147 244.406 67.7133 243.681 68.492C242.966 69.2707 241.996 69.66 240.769 69.66C240.012 69.66 239.334 69.4893 238.737 69.148C238.15 68.796 237.686 68.2893 237.345 67.628C237.004 66.956 236.833 66.1453 236.833 65.196C236.833 63.7773 237.19 62.684 237.905 61.916C238.62 61.148 239.59 60.764 240.817 60.764C241.596 60.764 242.278 60.94 242.865 61.292C243.462 61.6333 243.926 62.1347 244.257 62.796C244.598 63.4467 244.769 64.2467 244.769 65.196ZM238.289 65.196C238.289 66.2093 238.486 67.0147 238.881 67.612C239.286 68.1987 239.926 68.492 240.801 68.492C241.665 68.492 242.3 68.1987 242.705 67.612C243.11 67.0147 243.313 66.2093 243.313 65.196C243.313 64.1827 243.11 63.388 242.705 62.812C242.3 62.236 241.66 61.948 240.785 61.948C239.91 61.948 239.276 62.236 238.881 62.812C238.486 63.388 238.289 64.1827 238.289 65.196ZM250.441 69.66C249.683 69.66 249.006 69.5053 248.409 69.196C247.822 68.8867 247.358 68.4067 247.017 67.756C246.686 67.1053 246.521 66.2733 246.521 65.26C246.521 64.204 246.697 63.3453 247.049 62.684C247.401 62.0227 247.875 61.5373 248.473 61.228C249.081 60.9187 249.769 60.764 250.537 60.764C250.974 60.764 251.395 60.812 251.801 60.908C252.206 60.9933 252.537 61.1 252.793 61.228L252.361 62.396C252.105 62.3 251.806 62.2093 251.465 62.124C251.123 62.0387 250.803 61.996 250.505 61.996C248.819 61.996 247.977 63.0787 247.977 65.244C247.977 66.2787 248.179 67.0733 248.585 67.628C249.001 68.172 249.614 68.444 250.425 68.444C250.894 68.444 251.305 68.396 251.657 68.3C252.019 68.204 252.35 68.0867 252.649 67.948V69.196C252.361 69.3453 252.041 69.4573 251.689 69.532C251.347 69.6173 250.931 69.66 250.441 69.66ZM255.408 57.708C255.621 57.708 255.808 57.7827 255.968 57.932C256.139 58.0707 256.224 58.2947 256.224 58.604C256.224 58.9027 256.139 59.1267 255.968 59.276C255.808 59.4253 255.621 59.5 255.408 59.5C255.173 59.5 254.976 59.4253 254.816 59.276C254.656 59.1267 254.576 58.9027 254.576 58.604C254.576 58.2947 254.656 58.0707 254.816 57.932C254.976 57.7827 255.173 57.708 255.408 57.708ZM256.096 60.924V69.5H254.688V60.924H256.096ZM262.061 60.78C263.106 60.78 263.88 61.0093 264.381 61.468C264.882 61.9267 265.133 62.6573 265.133 63.66V69.5H264.109L263.837 68.284H263.773C263.4 68.7533 263.005 69.1 262.589 69.324C262.184 69.548 261.618 69.66 260.893 69.66C260.114 69.66 259.469 69.4573 258.957 69.052C258.445 68.636 258.189 67.9907 258.189 67.116C258.189 66.2627 258.525 65.6067 259.197 65.148C259.869 64.6787 260.904 64.4227 262.301 64.38L263.757 64.332V63.82C263.757 63.1053 263.602 62.6093 263.293 62.332C262.984 62.0547 262.546 61.916 261.981 61.916C261.533 61.916 261.106 61.9853 260.701 62.124C260.296 62.252 259.917 62.4013 259.565 62.572L259.133 61.516C259.506 61.3133 259.949 61.1427 260.461 61.004C260.973 60.8547 261.506 60.78 262.061 60.78ZM262.477 65.356C261.41 65.3987 260.669 65.5693 260.253 65.868C259.848 66.1667 259.645 66.588 259.645 67.132C259.645 67.612 259.789 67.964 260.077 68.188C260.376 68.412 260.754 68.524 261.213 68.524C261.938 68.524 262.541 68.3267 263.021 67.932C263.501 67.5267 263.741 66.908 263.741 66.076V65.308L262.477 65.356ZM274.95 60.924V69.5H273.798L273.59 68.364H273.526C273.249 68.812 272.865 69.1427 272.374 69.356C271.883 69.5587 271.361 69.66 270.806 69.66C269.771 69.66 268.993 69.4147 268.47 68.924C267.947 68.4227 267.686 67.628 267.686 66.54V60.924H269.11V66.444C269.11 67.8093 269.745 68.492 271.014 68.492C271.963 68.492 272.619 68.2253 272.982 67.692C273.355 67.1587 273.542 66.3907 273.542 65.388V60.924H274.95ZM279.705 65.116L276.745 60.924H278.345L280.553 64.156L282.745 60.924H284.329L281.369 65.116L284.489 69.5H282.889L280.553 66.076L278.185 69.5H276.601L279.705 65.116Z" fill="#284162"/>
<rect x="297" y="61.5" width="4" height="4" rx="2" fill="#333333"/>
<path d="M321.72 69.5L320.344 65.964H315.816L314.456 69.5H313L317.464 58.028H318.76L323.208 69.5H321.72ZM318.632 61.228C318.6 61.1427 318.547 60.988 318.472 60.764C318.397 60.54 318.323 60.3107 318.248 60.076C318.184 59.8307 318.131 59.644 318.088 59.516C318.013 59.8467 317.928 60.172 317.832 60.492C317.736 60.8013 317.656 61.0467 317.592 61.228L316.296 64.684H319.912L318.632 61.228ZM328.659 60.764C329.715 60.764 330.563 61.132 331.203 61.868C331.853 62.604 332.179 63.7133 332.179 65.196C332.179 66.6573 331.853 67.7667 331.203 68.524C330.563 69.2813 329.709 69.66 328.643 69.66C327.981 69.66 327.432 69.5373 326.995 69.292C326.568 69.036 326.232 68.7427 325.987 68.412H325.891C325.912 68.5933 325.933 68.8227 325.955 69.1C325.976 69.3773 325.987 69.6173 325.987 69.82V73.34H324.579V60.924H325.731L325.923 62.092H325.987C326.243 61.7187 326.579 61.404 326.995 61.148C327.411 60.892 327.965 60.764 328.659 60.764ZM328.403 61.948C327.528 61.948 326.909 62.1933 326.547 62.684C326.195 63.1747 326.008 63.9213 325.987 64.924V65.196C325.987 66.252 326.157 67.068 326.499 67.644C326.851 68.2093 327.496 68.492 328.435 68.492C328.957 68.492 329.384 68.348 329.715 68.06C330.056 67.772 330.307 67.3827 330.467 66.892C330.637 66.3907 330.723 65.82 330.723 65.18C330.723 64.1987 330.531 63.4147 330.147 62.828C329.773 62.2413 329.192 61.948 328.403 61.948ZM338.503 60.764C339.559 60.764 340.407 61.132 341.047 61.868C341.697 62.604 342.023 63.7133 342.023 65.196C342.023 66.6573 341.697 67.7667 341.047 68.524C340.407 69.2813 339.553 69.66 338.487 69.66C337.825 69.66 337.276 69.5373 336.839 69.292C336.412 69.036 336.076 68.7427 335.831 68.412H335.735C335.756 68.5933 335.777 68.8227 335.799 69.1C335.82 69.3773 335.831 69.6173 335.831 69.82V73.34H334.423V60.924H335.575L335.767 62.092H335.831C336.087 61.7187 336.423 61.404 336.839 61.148C337.255 60.892 337.809 60.764 338.503 60.764ZM338.247 61.948C337.372 61.948 336.753 62.1933 336.391 62.684C336.039 63.1747 335.852 63.9213 335.831 64.924V65.196C335.831 66.252 336.001 67.068 336.343 67.644C336.695 68.2093 337.34 68.492 338.279 68.492C338.801 68.492 339.228 68.348 339.559 68.06C339.9 67.772 340.151 67.3827 340.311 66.892C340.481 66.3907 340.567 65.82 340.567 65.18C340.567 64.1987 340.375 63.4147 339.991 62.828C339.617 62.2413 339.036 61.948 338.247 61.948ZM345.674 69.5H344.266V57.34H345.674V69.5ZM349.111 57.708C349.325 57.708 349.511 57.7827 349.671 57.932C349.842 58.0707 349.927 58.2947 349.927 58.604C349.927 58.9027 349.842 59.1267 349.671 59.276C349.511 59.4253 349.325 59.5 349.111 59.5C348.877 59.5 348.679 59.4253 348.519 59.276C348.359 59.1267 348.279 58.9027 348.279 58.604C348.279 58.2947 348.359 58.0707 348.519 57.932C348.679 57.7827 348.877 57.708 349.111 57.708ZM349.799 60.924V69.5H348.391V60.924H349.799ZM355.956 69.66C355.199 69.66 354.522 69.5053 353.924 69.196C353.338 68.8867 352.874 68.4067 352.532 67.756C352.202 67.1053 352.036 66.2733 352.036 65.26C352.036 64.204 352.212 63.3453 352.564 62.684C352.916 62.0227 353.391 61.5373 353.988 61.228C354.596 60.9187 355.284 60.764 356.052 60.764C356.49 60.764 356.911 60.812 357.316 60.908C357.722 60.9933 358.052 61.1 358.308 61.228L357.876 62.396C357.62 62.3 357.322 62.2093 356.98 62.124C356.639 62.0387 356.319 61.996 356.02 61.996C354.335 61.996 353.492 63.0787 353.492 65.244C353.492 66.2787 353.695 67.0733 354.1 67.628C354.516 68.172 355.13 68.444 355.94 68.444C356.41 68.444 356.82 68.396 357.172 68.3C357.535 68.204 357.866 68.0867 358.164 67.948V69.196C357.876 69.3453 357.556 69.4573 357.204 69.532C356.863 69.6173 356.447 69.66 355.956 69.66ZM363.452 60.78C364.497 60.78 365.27 61.0093 365.772 61.468C366.273 61.9267 366.524 62.6573 366.524 63.66V69.5H365.5L365.228 68.284H365.164C364.79 68.7533 364.396 69.1 363.98 69.324C363.574 69.548 363.009 69.66 362.284 69.66C361.505 69.66 360.86 69.4573 360.348 69.052C359.836 68.636 359.58 67.9907 359.58 67.116C359.58 66.2627 359.916 65.6067 360.588 65.148C361.26 64.6787 362.294 64.4227 363.692 64.38L365.148 64.332V63.82C365.148 63.1053 364.993 62.6093 364.684 62.332C364.374 62.0547 363.937 61.916 363.372 61.916C362.924 61.916 362.497 61.9853 362.092 62.124C361.686 62.252 361.308 62.4013 360.956 62.572L360.524 61.516C360.897 61.3133 361.34 61.1427 361.852 61.004C362.364 60.8547 362.897 60.78 363.452 60.78ZM363.868 65.356C362.801 65.3987 362.06 65.5693 361.644 65.868C361.238 66.1667 361.036 66.588 361.036 67.132C361.036 67.612 361.18 67.964 361.468 68.188C361.766 68.412 362.145 68.524 362.604 68.524C363.329 68.524 363.932 68.3267 364.412 67.932C364.892 67.5267 365.132 66.908 365.132 66.076V65.308L363.868 65.356ZM372.036 68.508C372.25 68.508 372.469 68.492 372.693 68.46C372.917 68.4173 373.098 68.3747 373.237 68.332V69.404C373.087 69.4787 372.874 69.5373 372.597 69.58C372.319 69.6333 372.053 69.66 371.797 69.66C371.349 69.66 370.933 69.5853 370.549 69.436C370.175 69.276 369.871 69.004 369.637 68.62C369.402 68.236 369.285 67.6973 369.285 67.004V62.012H368.069V61.34L369.301 60.78L369.861 58.956H370.693V60.924H373.173V62.012H370.693V66.972C370.693 67.4947 370.815 67.884 371.061 68.14C371.317 68.3853 371.642 68.508 372.036 68.508ZM375.674 57.708C375.887 57.708 376.074 57.7827 376.234 57.932C376.404 58.0707 376.49 58.2947 376.49 58.604C376.49 58.9027 376.404 59.1267 376.234 59.276C376.074 59.4253 375.887 59.5 375.674 59.5C375.439 59.5 375.242 59.4253 375.082 59.276C374.922 59.1267 374.842 58.9027 374.842 58.604C374.842 58.2947 374.922 58.0707 375.082 57.932C375.242 57.7827 375.439 57.708 375.674 57.708ZM376.362 60.924V69.5H374.954V60.924H376.362ZM386.535 65.196C386.535 66.6147 386.172 67.7133 385.447 68.492C384.732 69.2707 383.761 69.66 382.535 69.66C381.777 69.66 381.1 69.4893 380.503 69.148C379.916 68.796 379.452 68.2893 379.111 67.628C378.769 66.956 378.599 66.1453 378.599 65.196C378.599 63.7773 378.956 62.684 379.671 61.916C380.385 61.148 381.356 60.764 382.583 60.764C383.361 60.764 384.044 60.94 384.631 61.292C385.228 61.6333 385.692 62.1347 386.023 62.796C386.364 63.4467 386.535 64.2467 386.535 65.196ZM380.055 65.196C380.055 66.2093 380.252 67.0147 380.647 67.612C381.052 68.1987 381.692 68.492 382.567 68.492C383.431 68.492 384.065 68.1987 384.471 67.612C384.876 67.0147 385.079 66.2093 385.079 65.196C385.079 64.1827 384.876 63.388 384.471 62.812C384.065 62.236 383.425 61.948 382.551 61.948C381.676 61.948 381.041 62.236 380.647 62.812C380.252 63.388 380.055 64.1827 380.055 65.196ZM392.894 60.764C393.918 60.764 394.692 61.0147 395.214 61.516C395.737 62.0067 395.998 62.8067 395.998 63.916V69.5H394.606V64.012C394.606 62.636 393.966 61.948 392.686 61.948C391.737 61.948 391.081 62.2147 390.718 62.748C390.356 63.2813 390.174 64.0493 390.174 65.052V69.5H388.766V60.924H389.902L390.11 62.092H390.19C390.468 61.644 390.852 61.3133 391.342 61.1C391.833 60.876 392.35 60.764 392.894 60.764ZM404.241 67.132C404.241 67.964 403.932 68.5933 403.313 69.02C402.694 69.4467 401.862 69.66 400.817 69.66C400.22 69.66 399.702 69.612 399.265 69.516C398.838 69.42 398.46 69.2867 398.129 69.116V67.836C398.47 68.0067 398.881 68.1667 399.361 68.316C399.852 68.4547 400.348 68.524 400.849 68.524C401.564 68.524 402.081 68.412 402.401 68.188C402.721 67.9533 402.881 67.644 402.881 67.26C402.881 67.0467 402.822 66.8547 402.705 66.684C402.588 66.5133 402.374 66.3427 402.065 66.172C401.766 66.0013 401.334 65.8093 400.769 65.596C400.214 65.3827 399.74 65.1693 399.345 64.956C398.95 64.7427 398.646 64.4867 398.433 64.188C398.22 63.8893 398.113 63.5053 398.113 63.036C398.113 62.3107 398.406 61.7507 398.993 61.356C399.59 60.9613 400.369 60.764 401.329 60.764C401.852 60.764 402.337 60.8173 402.785 60.924C403.244 61.02 403.67 61.1587 404.065 61.34L403.585 62.46C403.222 62.3107 402.844 62.1827 402.449 62.076C402.054 61.9693 401.649 61.916 401.233 61.916C400.657 61.916 400.214 62.012 399.905 62.204C399.606 62.3853 399.457 62.636 399.457 62.956C399.457 63.1907 399.526 63.3933 399.665 63.564C399.804 63.724 400.033 63.884 400.353 64.044C400.684 64.1933 401.121 64.3747 401.665 64.588C402.209 64.7907 402.673 64.9987 403.057 65.212C403.441 65.4253 403.734 65.6867 403.937 65.996C404.14 66.2947 404.241 66.6733 404.241 67.132ZM419.877 60.764C420.848 60.764 421.573 61.0147 422.053 61.516C422.533 62.0067 422.773 62.8067 422.773 63.916V69.5H421.381V63.98C421.381 62.6253 420.8 61.948 419.637 61.948C418.805 61.948 418.208 62.188 417.845 62.668C417.493 63.148 417.317 63.8467 417.317 64.764V69.5H415.925V63.98C415.925 62.6253 415.339 61.948 414.165 61.948C413.301 61.948 412.704 62.2147 412.373 62.748C412.043 63.2813 411.877 64.0493 411.877 65.052V69.5H410.469V60.924H411.605L411.813 62.092H411.893C412.16 61.644 412.517 61.3133 412.965 61.1C413.424 60.876 413.909 60.764 414.421 60.764C415.765 60.764 416.64 61.244 417.045 62.204H417.125C417.413 61.7133 417.803 61.3507 418.293 61.116C418.795 60.8813 419.323 60.764 419.877 60.764ZM432.878 65.196C432.878 66.6147 432.516 67.7133 431.791 68.492C431.076 69.2707 430.105 69.66 428.879 69.66C428.121 69.66 427.444 69.4893 426.847 69.148C426.26 68.796 425.796 68.2893 425.455 67.628C425.113 66.956 424.943 66.1453 424.943 65.196C424.943 63.7773 425.3 62.684 426.015 61.916C426.729 61.148 427.7 60.764 428.927 60.764C429.705 60.764 430.388 60.94 430.975 61.292C431.572 61.6333 432.036 62.1347 432.367 62.796C432.708 63.4467 432.878 64.2467 432.878 65.196ZM426.399 65.196C426.399 66.2093 426.596 67.0147 426.991 67.612C427.396 68.1987 428.036 68.492 428.911 68.492C429.775 68.492 430.409 68.1987 430.815 67.612C431.22 67.0147 431.423 66.2093 431.423 65.196C431.423 64.1827 431.22 63.388 430.815 62.812C430.409 62.236 429.769 61.948 428.895 61.948C428.02 61.948 427.385 62.236 426.991 62.812C426.596 63.388 426.399 64.1827 426.399 65.196ZM436.518 60.3C436.518 60.6627 436.507 61.004 436.486 61.324C436.475 61.6333 436.459 61.8787 436.438 62.06H436.518C436.763 61.6973 437.099 61.3933 437.526 61.148C437.953 60.9027 438.502 60.78 439.174 60.78C440.241 60.78 441.094 61.1533 441.734 61.9C442.385 62.636 442.71 63.74 442.71 65.212C442.71 66.684 442.385 67.7933 441.734 68.54C441.083 69.2867 440.23 69.66 439.174 69.66C438.502 69.66 437.953 69.5373 437.526 69.292C437.099 69.0467 436.763 68.7533 436.518 68.412H436.406L436.118 69.5H435.11V57.34H436.518V60.3ZM438.934 61.948C438.027 61.948 437.398 62.2093 437.046 62.732C436.694 63.2547 436.518 64.0653 436.518 65.164V65.228C436.518 66.284 436.689 67.0947 437.03 67.66C437.382 68.2147 438.027 68.492 438.966 68.492C439.734 68.492 440.305 68.2093 440.678 67.644C441.062 67.0787 441.254 66.2627 441.254 65.196C441.254 63.0307 440.481 61.948 438.934 61.948ZM445.674 57.708C445.887 57.708 446.074 57.7827 446.234 57.932C446.404 58.0707 446.49 58.2947 446.49 58.604C446.49 58.9027 446.404 59.1267 446.234 59.276C446.074 59.4253 445.887 59.5 445.674 59.5C445.439 59.5 445.242 59.4253 445.082 59.276C444.922 59.1267 444.842 58.9027 444.842 58.604C444.842 58.2947 444.922 58.0707 445.082 57.932C445.242 57.7827 445.439 57.708 445.674 57.708ZM446.362 60.924V69.5H444.954V60.924H446.362ZM450.487 69.5H449.079V57.34H450.487V69.5ZM456.516 60.764C457.252 60.764 457.881 60.924 458.404 61.244C458.937 61.564 459.342 62.0173 459.62 62.604C459.908 63.18 460.052 63.8573 460.052 64.636V65.484H454.18C454.201 66.4547 454.446 67.196 454.916 67.708C455.396 68.2093 456.062 68.46 456.916 68.46C457.46 68.46 457.94 68.412 458.356 68.316C458.782 68.2093 459.22 68.06 459.668 67.868V69.1C459.23 69.292 458.798 69.4307 458.372 69.516C457.945 69.612 457.438 69.66 456.852 69.66C456.041 69.66 455.321 69.4947 454.692 69.164C454.073 68.8333 453.588 68.3427 453.236 67.692C452.894 67.0307 452.724 66.2253 452.724 65.276C452.724 64.3373 452.878 63.532 453.188 62.86C453.508 62.188 453.95 61.6707 454.516 61.308C455.092 60.9453 455.758 60.764 456.516 60.764ZM456.5 61.916C455.828 61.916 455.294 62.1347 454.9 62.572C454.516 62.9987 454.286 63.596 454.212 64.364H458.58C458.569 63.6387 458.398 63.052 458.068 62.604C457.737 62.1453 457.214 61.916 456.5 61.916ZM467.819 67.132C467.819 67.964 467.51 68.5933 466.891 69.02C466.272 69.4467 465.44 69.66 464.395 69.66C463.798 69.66 463.28 69.612 462.843 69.516C462.416 69.42 462.038 69.2867 461.707 69.116V67.836C462.048 68.0067 462.459 68.1667 462.939 68.316C463.43 68.4547 463.926 68.524 464.427 68.524C465.142 68.524 465.659 68.412 465.979 68.188C466.299 67.9533 466.459 67.644 466.459 67.26C466.459 67.0467 466.4 66.8547 466.283 66.684C466.166 66.5133 465.952 66.3427 465.643 66.172C465.344 66.0013 464.912 65.8093 464.347 65.596C463.792 65.3827 463.318 65.1693 462.923 64.956C462.528 64.7427 462.224 64.4867 462.011 64.188C461.798 63.8893 461.691 63.5053 461.691 63.036C461.691 62.3107 461.984 61.7507 462.571 61.356C463.168 60.9613 463.947 60.764 464.907 60.764C465.43 60.764 465.915 60.8173 466.363 60.924C466.822 61.02 467.248 61.1587 467.643 61.34L467.163 62.46C466.8 62.3107 466.422 62.1827 466.027 62.076C465.632 61.9693 465.227 61.916 464.811 61.916C464.235 61.916 463.792 62.012 463.483 62.204C463.184 62.3853 463.035 62.636 463.035 62.956C463.035 63.1907 463.104 63.3933 463.243 63.564C463.382 63.724 463.611 63.884 463.931 64.044C464.262 64.1933 464.699 64.3747 465.243 64.588C465.787 64.7907 466.251 64.9987 466.635 65.212C467.019 65.4253 467.312 65.6867 467.515 65.996C467.718 66.2947 467.819 66.6733 467.819 67.132Z" fill="#284162"/>
<rect x="481" y="61.5" width="4" height="4" rx="2" fill="#333333"/>
<path d="M505.72 69.5L504.344 65.964H499.816L498.456 69.5H497L501.464 58.028H502.76L507.208 69.5H505.72ZM502.632 61.228C502.6 61.1427 502.547 60.988 502.472 60.764C502.397 60.54 502.323 60.3107 502.248 60.076C502.184 59.8307 502.131 59.644 502.088 59.516C502.013 59.8467 501.928 60.172 501.832 60.492C501.736 60.8013 501.656 61.0467 501.592 61.228L500.296 64.684H503.912L502.632 61.228ZM501.688 54.396C501.805 54.6307 501.949 54.8973 502.12 55.196C502.301 55.484 502.488 55.7667 502.68 56.044C502.883 56.3213 503.064 56.5613 503.224 56.764V56.956H502.28C502.035 56.764 501.757 56.5187 501.448 56.22C501.139 55.9107 500.851 55.6067 500.584 55.308C500.328 54.9987 500.136 54.748 500.008 54.556V54.396H501.688ZM516.815 60.764C517.871 60.764 518.719 61.132 519.359 61.868C520.01 62.604 520.335 63.7133 520.335 65.196C520.335 66.6573 520.01 67.7667 519.359 68.524C518.719 69.2813 517.866 69.66 516.799 69.66C516.138 69.66 515.588 69.5373 515.151 69.292C514.724 69.036 514.388 68.7427 514.143 68.412H514.047C514.068 68.5933 514.09 68.8227 514.111 69.1C514.132 69.3773 514.143 69.6173 514.143 69.82V73.34H512.735V60.924H513.887L514.079 62.092H514.143C514.399 61.7187 514.735 61.404 515.151 61.148C515.567 60.892 516.122 60.764 516.815 60.764ZM516.559 61.948C515.684 61.948 515.066 62.1933 514.703 62.684C514.351 63.1747 514.164 63.9213 514.143 64.924V65.196C514.143 66.252 514.314 67.068 514.655 67.644C515.007 68.2093 515.652 68.492 516.591 68.492C517.114 68.492 517.54 68.348 517.871 68.06C518.212 67.772 518.463 67.3827 518.623 66.892C518.794 66.3907 518.879 65.82 518.879 65.18C518.879 64.1987 518.687 63.4147 518.303 62.828C517.93 62.2413 517.348 61.948 516.559 61.948ZM526.579 60.764C526.739 60.764 526.909 60.7747 527.091 60.796C527.283 60.8067 527.448 60.828 527.587 60.86L527.411 62.156C527.272 62.124 527.117 62.0973 526.947 62.076C526.787 62.0547 526.632 62.044 526.483 62.044C526.045 62.044 525.635 62.1667 525.251 62.412C524.867 62.6467 524.557 62.9827 524.323 63.42C524.099 63.8467 523.987 64.348 523.987 64.924V69.5H522.579V60.924H523.731L523.891 62.492H523.955C524.232 62.0227 524.589 61.6173 525.027 61.276C525.464 60.9347 525.981 60.764 526.579 60.764ZM536.332 65.196C536.332 66.6147 535.969 67.7133 535.244 68.492C534.529 69.2707 533.558 69.66 532.332 69.66C531.574 69.66 530.897 69.4893 530.3 69.148C529.713 68.796 529.249 68.2893 528.908 67.628C528.566 66.956 528.396 66.1453 528.396 65.196C528.396 63.7773 528.753 62.684 529.468 61.916C530.182 61.148 531.153 60.764 532.38 60.764C533.158 60.764 533.841 60.94 534.428 61.292C535.025 61.6333 535.489 62.1347 535.82 62.796C536.161 63.4467 536.332 64.2467 536.332 65.196ZM529.852 65.196C529.852 66.2093 530.049 67.0147 530.444 67.612C530.849 68.1987 531.489 68.492 532.364 68.492C533.228 68.492 533.862 68.1987 534.268 67.612C534.673 67.0147 534.876 66.2093 534.876 65.196C534.876 64.1827 534.673 63.388 534.268 62.812C533.862 62.236 533.222 61.948 532.348 61.948C531.473 61.948 530.838 62.236 530.444 62.812C530.049 63.388 529.852 64.1827 529.852 65.196ZM542.643 60.764C543.699 60.764 544.547 61.132 545.187 61.868C545.838 62.604 546.163 63.7133 546.163 65.196C546.163 66.6573 545.838 67.7667 545.187 68.524C544.547 69.2813 543.694 69.66 542.627 69.66C541.966 69.66 541.416 69.5373 540.979 69.292C540.552 69.036 540.216 68.7427 539.971 68.412H539.875C539.896 68.5933 539.918 68.8227 539.939 69.1C539.96 69.3773 539.971 69.6173 539.971 69.82V73.34H538.563V60.924H539.715L539.907 62.092H539.971C540.227 61.7187 540.563 61.404 540.979 61.148C541.395 60.892 541.95 60.764 542.643 60.764ZM542.387 61.948C541.512 61.948 540.894 62.1933 540.531 62.684C540.179 63.1747 539.992 63.9213 539.971 64.924V65.196C539.971 66.252 540.142 67.068 540.483 67.644C540.835 68.2093 541.48 68.492 542.419 68.492C542.942 68.492 543.368 68.348 543.699 68.06C544.04 67.772 544.291 67.3827 544.451 66.892C544.622 66.3907 544.707 65.82 544.707 65.18C544.707 64.1987 544.515 63.4147 544.131 62.828C543.758 62.2413 543.176 61.948 542.387 61.948ZM555.863 65.196C555.863 66.6147 555.5 67.7133 554.775 68.492C554.06 69.2707 553.09 69.66 551.863 69.66C551.106 69.66 550.428 69.4893 549.831 69.148C549.244 68.796 548.78 68.2893 548.439 67.628C548.098 66.956 547.927 66.1453 547.927 65.196C547.927 63.7773 548.284 62.684 548.999 61.916C549.714 61.148 550.684 60.764 551.911 60.764C552.69 60.764 553.372 60.94 553.959 61.292C554.556 61.6333 555.02 62.1347 555.351 62.796C555.692 63.4467 555.863 64.2467 555.863 65.196ZM549.383 65.196C549.383 66.2093 549.58 67.0147 549.975 67.612C550.38 68.1987 551.02 68.492 551.895 68.492C552.759 68.492 553.394 68.1987 553.799 67.612C554.204 67.0147 554.407 66.2093 554.407 65.196C554.407 64.1827 554.204 63.388 553.799 62.812C553.394 62.236 552.754 61.948 551.879 61.948C551.004 61.948 550.37 62.236 549.975 62.812C549.58 63.388 549.383 64.1827 549.383 65.196ZM563.678 67.132C563.678 67.964 563.369 68.5933 562.75 69.02C562.132 69.4467 561.3 69.66 560.254 69.66C559.657 69.66 559.14 69.612 558.702 69.516C558.276 69.42 557.897 69.2867 557.566 69.116V67.836C557.908 68.0067 558.318 68.1667 558.798 68.316C559.289 68.4547 559.785 68.524 560.286 68.524C561.001 68.524 561.518 68.412 561.838 68.188C562.158 67.9533 562.318 67.644 562.318 67.26C562.318 67.0467 562.26 66.8547 562.142 66.684C562.025 66.5133 561.812 66.3427 561.502 66.172C561.204 66.0013 560.772 65.8093 560.206 65.596C559.652 65.3827 559.177 65.1693 558.782 64.956C558.388 64.7427 558.084 64.4867 557.87 64.188C557.657 63.8893 557.55 63.5053 557.55 63.036C557.55 62.3107 557.844 61.7507 558.43 61.356C559.028 60.9613 559.806 60.764 560.766 60.764C561.289 60.764 561.774 60.8173 562.222 60.924C562.681 61.02 563.108 61.1587 563.502 61.34L563.022 62.46C562.66 62.3107 562.281 62.1827 561.886 62.076C561.492 61.9693 561.086 61.916 560.67 61.916C560.094 61.916 559.652 62.012 559.342 62.204C559.044 62.3853 558.894 62.636 558.894 62.956C558.894 63.1907 558.964 63.3933 559.102 63.564C559.241 63.724 559.47 63.884 559.79 64.044C560.121 64.1933 560.558 64.3747 561.102 64.588C561.646 64.7907 562.11 64.9987 562.494 65.212C562.878 65.4253 563.172 65.6867 563.374 65.996C563.577 66.2947 563.678 66.6733 563.678 67.132ZM572.947 69.66C571.88 69.66 571.027 69.292 570.387 68.556C569.747 67.8093 569.427 66.7 569.427 65.228C569.427 63.756 569.747 62.6467 570.387 61.9C571.038 61.1427 571.896 60.764 572.963 60.764C573.624 60.764 574.163 60.8867 574.579 61.132C575.006 61.3773 575.352 61.676 575.619 62.028H575.715C575.704 61.8893 575.683 61.6867 575.651 61.42C575.63 61.1427 575.619 60.924 575.619 60.764V57.34H577.027V69.5H575.891L575.683 68.348H575.619C575.363 68.7107 575.022 69.02 574.595 69.276C574.168 69.532 573.619 69.66 572.947 69.66ZM573.171 68.492C574.078 68.492 574.712 68.2467 575.075 67.756C575.448 67.2547 575.635 66.5027 575.635 65.5V65.244C575.635 64.1773 575.459 63.3613 575.107 62.796C574.755 62.22 574.104 61.932 573.155 61.932C572.398 61.932 571.827 62.236 571.443 62.844C571.07 63.4413 570.883 64.2467 570.883 65.26C570.883 66.284 571.07 67.0787 571.443 67.644C571.827 68.2093 572.403 68.492 573.171 68.492ZM583.063 60.764C583.799 60.764 584.428 60.924 584.951 61.244C585.484 61.564 585.889 62.0173 586.167 62.604C586.455 63.18 586.599 63.8573 586.599 64.636V65.484H580.727C580.748 66.4547 580.993 67.196 581.463 67.708C581.943 68.2093 582.609 68.46 583.463 68.46C584.007 68.46 584.487 68.412 584.903 68.316C585.329 68.2093 585.767 68.06 586.215 67.868V69.1C585.777 69.292 585.345 69.4307 584.919 69.516C584.492 69.612 583.985 69.66 583.399 69.66C582.588 69.66 581.868 69.4947 581.239 69.164C580.62 68.8333 580.135 68.3427 579.783 67.692C579.441 67.0307 579.271 66.2253 579.271 65.276C579.271 64.3373 579.425 63.532 579.735 62.86C580.055 62.188 580.497 61.6707 581.063 61.308C581.639 60.9453 582.305 60.764 583.063 60.764ZM583.047 61.916C582.375 61.916 581.841 62.1347 581.447 62.572C581.063 62.9987 580.833 63.596 580.759 64.364H585.127C585.116 63.6387 584.945 63.052 584.615 62.604C584.284 62.1453 583.761 61.916 583.047 61.916ZM598.026 59.18C596.799 59.18 595.834 59.5907 595.13 60.412C594.426 61.2333 594.074 62.3587 594.074 63.788C594.074 65.2067 594.399 66.332 595.05 67.164C595.711 67.9853 596.698 68.396 598.01 68.396C598.511 68.396 598.986 68.3533 599.434 68.268C599.882 68.1827 600.319 68.076 600.746 67.948V69.196C600.319 69.356 599.877 69.4733 599.418 69.548C598.97 69.6227 598.431 69.66 597.802 69.66C596.639 69.66 595.669 69.42 594.89 68.94C594.111 68.46 593.525 67.7773 593.13 66.892C592.746 66.0067 592.554 64.9667 592.554 63.772C592.554 62.62 592.762 61.6067 593.178 60.732C593.605 59.8467 594.229 59.1587 595.05 58.668C595.871 58.1667 596.869 57.916 598.042 57.916C599.247 57.916 600.298 58.14 601.194 58.588L600.618 59.804C600.266 59.644 599.871 59.5 599.434 59.372C599.007 59.244 598.538 59.18 598.026 59.18ZM606.296 60.78C607.341 60.78 608.114 61.0093 608.616 61.468C609.117 61.9267 609.368 62.6573 609.368 63.66V69.5H608.344L608.072 68.284H608.008C607.634 68.7533 607.24 69.1 606.824 69.324C606.418 69.548 605.853 69.66 605.128 69.66C604.349 69.66 603.704 69.4573 603.192 69.052C602.68 68.636 602.424 67.9907 602.424 67.116C602.424 66.2627 602.76 65.6067 603.432 65.148C604.104 64.6787 605.138 64.4227 606.536 64.38L607.992 64.332V63.82C607.992 63.1053 607.837 62.6093 607.528 62.332C607.218 62.0547 606.781 61.916 606.216 61.916C605.768 61.916 605.341 61.9853 604.936 62.124C604.53 62.252 604.152 62.4013 603.799 62.572L603.368 61.516C603.741 61.3133 604.184 61.1427 604.696 61.004C605.208 60.8547 605.741 60.78 606.296 60.78ZM606.712 65.356C605.645 65.3987 604.904 65.5693 604.488 65.868C604.082 66.1667 603.88 66.588 603.88 67.132C603.88 67.612 604.024 67.964 604.312 68.188C604.61 68.412 604.989 68.524 605.448 68.524C606.173 68.524 606.776 68.3267 607.256 67.932C607.736 67.5267 607.976 66.908 607.976 66.076V65.308L606.712 65.356ZM616.144 60.764C617.168 60.764 617.942 61.0147 618.464 61.516C618.987 62.0067 619.248 62.8067 619.248 63.916V69.5H617.856V64.012C617.856 62.636 617.216 61.948 615.936 61.948C614.987 61.948 614.331 62.2147 613.968 62.748C613.606 63.2813 613.424 64.0493 613.424 65.052V69.5H612.016V60.924H613.152L613.36 62.092H613.44C613.718 61.644 614.102 61.3133 614.592 61.1C615.083 60.876 615.6 60.764 616.144 60.764ZM625.155 60.78C626.2 60.78 626.974 61.0093 627.475 61.468C627.976 61.9267 628.227 62.6573 628.227 63.66V69.5H627.203L626.931 68.284H626.867C626.494 68.7533 626.099 69.1 625.683 69.324C625.278 69.548 624.712 69.66 623.987 69.66C623.208 69.66 622.563 69.4573 622.051 69.052C621.539 68.636 621.283 67.9907 621.283 67.116C621.283 66.2627 621.619 65.6067 622.291 65.148C622.963 64.6787 623.998 64.4227 625.395 64.38L626.851 64.332V63.82C626.851 63.1053 626.696 62.6093 626.387 62.332C626.078 62.0547 625.64 61.916 625.075 61.916C624.627 61.916 624.2 61.9853 623.795 62.124C623.39 62.252 623.011 62.4013 622.659 62.572L622.227 61.516C622.6 61.3133 623.043 61.1427 623.555 61.004C624.067 60.8547 624.6 60.78 625.155 60.78ZM625.571 65.356C624.504 65.3987 623.763 65.5693 623.347 65.868C622.942 66.1667 622.739 66.588 622.739 67.132C622.739 67.612 622.883 67.964 623.171 68.188C623.47 68.412 623.848 68.524 624.307 68.524C625.032 68.524 625.635 68.3267 626.115 67.932C626.595 67.5267 626.835 66.908 626.835 66.076V65.308L625.571 65.356ZM633.916 69.66C632.849 69.66 631.996 69.292 631.356 68.556C630.716 67.8093 630.396 66.7 630.396 65.228C630.396 63.756 630.716 62.6467 631.356 61.9C632.006 61.1427 632.865 60.764 633.932 60.764C634.593 60.764 635.132 60.8867 635.548 61.132C635.974 61.3773 636.321 61.676 636.588 62.028H636.684C636.673 61.8893 636.652 61.6867 636.62 61.42C636.598 61.1427 636.588 60.924 636.588 60.764V57.34H637.996V69.5H636.86L636.652 68.348H636.588C636.332 68.7107 635.99 69.02 635.564 69.276C635.137 69.532 634.588 69.66 633.916 69.66ZM634.14 68.492C635.046 68.492 635.681 68.2467 636.044 67.756C636.417 67.2547 636.604 66.5027 636.604 65.5V65.244C636.604 64.1773 636.428 63.3613 636.076 62.796C635.724 62.22 635.073 61.932 634.124 61.932C633.366 61.932 632.796 62.236 632.412 62.844C632.038 63.4413 631.852 64.2467 631.852 65.26C631.852 66.284 632.038 67.0787 632.412 67.644C632.796 68.2093 633.372 68.492 634.14 68.492ZM643.967 60.78C645.013 60.78 645.786 61.0093 646.287 61.468C646.789 61.9267 647.039 62.6573 647.039 63.66V69.5H646.015L645.743 68.284H645.679C645.306 68.7533 644.911 69.1 644.495 69.324C644.09 69.548 643.525 69.66 642.799 69.66C642.021 69.66 641.375 69.4573 640.863 69.052C640.351 68.636 640.095 67.9907 640.095 67.116C640.095 66.2627 640.431 65.6067 641.103 65.148C641.775 64.6787 642.81 64.4227 644.207 64.38L645.663 64.332V63.82C645.663 63.1053 645.509 62.6093 645.199 62.332C644.89 62.0547 644.453 61.916 643.887 61.916C643.439 61.916 643.013 61.9853 642.607 62.124C642.202 62.252 641.823 62.4013 641.471 62.572L641.039 61.516C641.413 61.3133 641.855 61.1427 642.367 61.004C642.879 60.8547 643.413 60.78 643.967 60.78ZM644.383 65.356C643.317 65.3987 642.575 65.5693 642.159 65.868C641.754 66.1667 641.551 66.588 641.551 67.132C641.551 67.612 641.695 67.964 641.983 68.188C642.282 68.412 642.661 68.524 643.119 68.524C643.845 68.524 644.447 68.3267 644.927 67.932C645.407 67.5267 645.647 66.908 645.647 66.076V65.308L644.383 65.356ZM649.48 68.636C649.48 68.2413 649.576 67.964 649.768 67.804C649.96 67.644 650.189 67.564 650.456 67.564C650.733 67.564 650.968 67.644 651.16 67.804C651.363 67.964 651.464 68.2413 651.464 68.636C651.464 69.02 651.363 69.2973 651.16 69.468C650.968 69.6387 650.733 69.724 650.456 69.724C650.189 69.724 649.96 69.6387 649.768 69.468C649.576 69.2973 649.48 69.02 649.48 68.636ZM657.409 69.66C656.652 69.66 655.975 69.5053 655.377 69.196C654.791 68.8867 654.327 68.4067 653.985 67.756C653.655 67.1053 653.489 66.2733 653.489 65.26C653.489 64.204 653.665 63.3453 654.017 62.684C654.369 62.0227 654.844 61.5373 655.441 61.228C656.049 60.9187 656.737 60.764 657.505 60.764C657.943 60.764 658.364 60.812 658.769 60.908C659.175 60.9933 659.505 61.1 659.761 61.228L659.329 62.396C659.073 62.3 658.775 62.2093 658.433 62.124C658.092 62.0387 657.772 61.996 657.473 61.996C655.788 61.996 654.945 63.0787 654.945 65.244C654.945 66.2787 655.148 67.0733 655.553 67.628C655.969 68.172 656.583 68.444 657.393 68.444C657.863 68.444 658.273 68.396 658.625 68.3C658.988 68.204 659.319 68.0867 659.617 67.948V69.196C659.329 69.3453 659.009 69.4573 658.657 69.532C658.316 69.6173 657.9 69.66 657.409 69.66ZM664.905 60.78C665.95 60.78 666.724 61.0093 667.225 61.468C667.726 61.9267 667.977 62.6573 667.977 63.66V69.5H666.953L666.681 68.284H666.617C666.244 68.7533 665.849 69.1 665.433 69.324C665.028 69.548 664.462 69.66 663.737 69.66C662.958 69.66 662.313 69.4573 661.801 69.052C661.289 68.636 661.033 67.9907 661.033 67.116C661.033 66.2627 661.369 65.6067 662.041 65.148C662.713 64.6787 663.748 64.4227 665.145 64.38L666.601 64.332V63.82C666.601 63.1053 666.446 62.6093 666.137 62.332C665.828 62.0547 665.39 61.916 664.825 61.916C664.377 61.916 663.95 61.9853 663.545 62.124C663.14 62.252 662.761 62.4013 662.409 62.572L661.977 61.516C662.35 61.3133 662.793 61.1427 663.305 61.004C663.817 60.8547 664.35 60.78 664.905 60.78ZM665.321 65.356C664.254 65.3987 663.513 65.5693 663.097 65.868C662.692 66.1667 662.489 66.588 662.489 67.132C662.489 67.612 662.633 67.964 662.921 68.188C663.22 68.412 663.598 68.524 664.057 68.524C664.782 68.524 665.385 68.3267 665.865 67.932C666.345 67.5267 666.585 66.908 666.585 66.076V65.308L665.321 65.356Z" fill="#284162"/>
<rect x="682" y="61.5" width="4" height="4" rx="2" fill="#333333"/>
<path d="M706.72 69.5L705.344 65.964H700.816L699.456 69.5H698L702.464 58.028H703.76L708.208 69.5H706.72ZM703.632 61.228C703.6 61.1427 703.547 60.988 703.472 60.764C703.397 60.54 703.323 60.3107 703.248 60.076C703.184 59.8307 703.131 59.644 703.088 59.516C703.013 59.8467 702.928 60.172 702.832 60.492C702.736 60.8013 702.656 61.0467 702.592 61.228L701.296 64.684H704.912L703.632 61.228ZM711.467 69.5L708.219 60.924H709.723L711.547 65.98C711.632 66.2147 711.723 66.476 711.819 66.764C711.915 67.052 712 67.3293 712.075 67.596C712.149 67.852 712.203 68.0707 712.235 68.252H712.299C712.341 68.0707 712.4 67.8467 712.475 67.58C712.56 67.3133 712.651 67.036 712.747 66.748C712.853 66.46 712.944 66.204 713.019 65.98L714.843 60.924H716.347L713.083 69.5H711.467ZM718.424 57.708C718.637 57.708 718.824 57.7827 718.984 57.932C719.154 58.0707 719.24 58.2947 719.24 58.604C719.24 58.9027 719.154 59.1267 718.984 59.276C718.824 59.4253 718.637 59.5 718.424 59.5C718.189 59.5 717.992 59.4253 717.832 59.276C717.672 59.1267 717.592 58.9027 717.592 58.604C717.592 58.2947 717.672 58.0707 717.832 57.932C717.992 57.7827 718.189 57.708 718.424 57.708ZM719.112 60.924V69.5H717.704V60.924H719.112ZM727.413 67.132C727.413 67.964 727.103 68.5933 726.485 69.02C725.866 69.4467 725.034 69.66 723.989 69.66C723.391 69.66 722.874 69.612 722.437 69.516C722.01 69.42 721.631 69.2867 721.301 69.116V67.836C721.642 68.0067 722.053 68.1667 722.533 68.316C723.023 68.4547 723.519 68.524 724.021 68.524C724.735 68.524 725.253 68.412 725.573 68.188C725.893 67.9533 726.053 67.644 726.053 67.26C726.053 67.0467 725.994 66.8547 725.877 66.684C725.759 66.5133 725.546 66.3427 725.237 66.172C724.938 66.0013 724.506 65.8093 723.941 65.596C723.386 65.3827 722.911 65.1693 722.517 64.956C722.122 64.7427 721.818 64.4867 721.605 64.188C721.391 63.8893 721.285 63.5053 721.285 63.036C721.285 62.3107 721.578 61.7507 722.165 61.356C722.762 60.9613 723.541 60.764 724.501 60.764C725.023 60.764 725.509 60.8173 725.957 60.924C726.415 61.02 726.842 61.1587 727.237 61.34L726.757 62.46C726.394 62.3107 726.015 62.1827 725.621 62.076C725.226 61.9693 724.821 61.916 724.405 61.916C723.829 61.916 723.386 62.012 723.077 62.204C722.778 62.3853 722.629 62.636 722.629 62.956C722.629 63.1907 722.698 63.3933 722.837 63.564C722.975 63.724 723.205 63.884 723.525 64.044C723.855 64.1933 724.293 64.3747 724.837 64.588C725.381 64.7907 725.845 64.9987 726.229 65.212C726.613 65.4253 726.906 65.6867 727.109 65.996C727.311 66.2947 727.413 66.6733 727.413 67.132Z" fill="#284162"/>
<rect x="741" y="61.5" width="4" height="4" rx="2" fill="#333333"/>
<path d="M763.448 59.18C762.221 59.18 761.256 59.5907 760.552 60.412C759.848 61.2333 759.496 62.3587 759.496 63.788C759.496 65.2067 759.821 66.332 760.472 67.164C761.133 67.9853 762.12 68.396 763.432 68.396C763.933 68.396 764.408 68.3533 764.856 68.268C765.304 68.1827 765.741 68.076 766.168 67.948V69.196C765.741 69.356 765.299 69.4733 764.84 69.548C764.392 69.6227 763.853 69.66 763.224 69.66C762.061 69.66 761.091 69.42 760.312 68.94C759.533 68.46 758.947 67.7773 758.552 66.892C758.168 66.0067 757.976 64.9667 757.976 63.772C757.976 62.62 758.184 61.6067 758.6 60.732C759.027 59.8467 759.651 59.1587 760.472 58.668C761.293 58.1667 762.291 57.916 763.464 57.916C764.669 57.916 765.72 58.14 766.616 58.588L766.04 59.804C765.688 59.644 765.293 59.5 764.856 59.372C764.429 59.244 763.96 59.18 763.448 59.18ZM775.925 65.196C775.925 66.6147 775.563 67.7133 774.837 68.492C774.123 69.2707 773.152 69.66 771.925 69.66C771.168 69.66 770.491 69.4893 769.893 69.148C769.307 68.796 768.843 68.2893 768.501 67.628C768.16 66.956 767.989 66.1453 767.989 65.196C767.989 63.7773 768.347 62.684 769.061 61.916C769.776 61.148 770.747 60.764 771.973 60.764C772.752 60.764 773.435 60.94 774.021 61.292C774.619 61.6333 775.083 62.1347 775.413 62.796C775.755 63.4467 775.925 64.2467 775.925 65.196ZM769.445 65.196C769.445 66.2093 769.643 67.0147 770.037 67.612C770.443 68.1987 771.083 68.492 771.957 68.492C772.821 68.492 773.456 68.1987 773.861 67.612C774.267 67.0147 774.469 66.2093 774.469 65.196C774.469 64.1827 774.267 63.388 773.861 62.812C773.456 62.236 772.816 61.948 771.941 61.948C771.067 61.948 770.432 62.236 770.037 62.812C769.643 63.388 769.445 64.1827 769.445 65.196ZM782.285 60.764C783.309 60.764 784.082 61.0147 784.605 61.516C785.128 62.0067 785.389 62.8067 785.389 63.916V69.5H783.997V64.012C783.997 62.636 783.357 61.948 782.077 61.948C781.128 61.948 780.472 62.2147 780.109 62.748C779.746 63.2813 779.565 64.0493 779.565 65.052V69.5H778.157V60.924H779.293L779.501 62.092H779.581C779.858 61.644 780.242 61.3133 780.733 61.1C781.224 60.876 781.741 60.764 782.285 60.764ZM792 62.012H789.84V69.5H788.432V62.012H786.928V61.356L788.432 60.876V60.38C788.432 59.2707 788.677 58.476 789.168 57.996C789.658 57.5053 790.341 57.26 791.216 57.26C791.557 57.26 791.866 57.292 792.144 57.356C792.432 57.4093 792.677 57.4733 792.88 57.548L792.512 58.652C792.341 58.5987 792.144 58.5453 791.92 58.492C791.696 58.4387 791.466 58.412 791.232 58.412C790.762 58.412 790.41 58.572 790.176 58.892C789.952 59.2013 789.84 59.692 789.84 60.364V60.924H792V62.012ZM794.272 57.708C794.485 57.708 794.672 57.7827 794.832 57.932C795.002 58.0707 795.088 58.2947 795.088 58.604C795.088 58.9027 795.002 59.1267 794.832 59.276C794.672 59.4253 794.485 59.5 794.272 59.5C794.037 59.5 793.84 59.4253 793.68 59.276C793.52 59.1267 793.44 58.9027 793.44 58.604C793.44 58.2947 793.52 58.0707 793.68 57.932C793.84 57.7827 794.037 57.708 794.272 57.708ZM794.96 60.924V69.5H793.552V60.924H794.96ZM800.713 69.66C799.646 69.66 798.793 69.292 798.153 68.556C797.513 67.8093 797.193 66.7 797.193 65.228C797.193 63.756 797.513 62.6467 798.153 61.9C798.803 61.1427 799.662 60.764 800.729 60.764C801.39 60.764 801.929 60.8867 802.345 61.132C802.771 61.3773 803.118 61.676 803.385 62.028H803.481C803.47 61.8893 803.449 61.6867 803.417 61.42C803.395 61.1427 803.385 60.924 803.385 60.764V57.34H804.793V69.5H803.657L803.449 68.348H803.385C803.129 68.7107 802.787 69.02 802.361 69.276C801.934 69.532 801.385 69.66 800.713 69.66ZM800.937 68.492C801.843 68.492 802.478 68.2467 802.841 67.756C803.214 67.2547 803.401 66.5027 803.401 65.5V65.244C803.401 64.1773 803.225 63.3613 802.873 62.796C802.521 62.22 801.87 61.932 800.921 61.932C800.163 61.932 799.593 62.236 799.209 62.844C798.835 63.4413 798.649 64.2467 798.649 65.26C798.649 66.284 798.835 67.0787 799.209 67.644C799.593 68.2093 800.169 68.492 800.937 68.492ZM810.828 60.764C811.564 60.764 812.194 60.924 812.716 61.244C813.25 61.564 813.655 62.0173 813.932 62.604C814.22 63.18 814.364 63.8573 814.364 64.636V65.484H808.492C808.514 66.4547 808.759 67.196 809.228 67.708C809.708 68.2093 810.375 68.46 811.228 68.46C811.772 68.46 812.252 68.412 812.668 68.316C813.095 68.2093 813.532 68.06 813.98 67.868V69.1C813.543 69.292 813.111 69.4307 812.684 69.516C812.258 69.612 811.751 69.66 811.164 69.66C810.354 69.66 809.634 69.4947 809.004 69.164C808.386 68.8333 807.9 68.3427 807.548 67.692C807.207 67.0307 807.036 66.2253 807.036 65.276C807.036 64.3373 807.191 63.532 807.5 62.86C807.82 62.188 808.263 61.6707 808.828 61.308C809.404 60.9453 810.071 60.764 810.828 60.764ZM810.812 61.916C810.14 61.916 809.607 62.1347 809.212 62.572C808.828 62.9987 808.599 63.596 808.524 64.364H812.892C812.882 63.6387 812.711 63.052 812.38 62.604C812.05 62.1453 811.527 61.916 810.812 61.916ZM820.676 60.764C821.7 60.764 822.473 61.0147 822.996 61.516C823.518 62.0067 823.78 62.8067 823.78 63.916V69.5H822.388V64.012C822.388 62.636 821.748 61.948 820.468 61.948C819.518 61.948 818.862 62.2147 818.5 62.748C818.137 63.2813 817.956 64.0493 817.956 65.052V69.5H816.548V60.924H817.684L817.892 62.092H817.972C818.249 61.644 818.633 61.3133 819.124 61.1C819.614 60.876 820.132 60.764 820.676 60.764ZM829.302 68.508C829.515 68.508 829.734 68.492 829.958 68.46C830.182 68.4173 830.363 68.3747 830.502 68.332V69.404C830.353 69.4787 830.139 69.5373 829.862 69.58C829.585 69.6333 829.318 69.66 829.062 69.66C828.614 69.66 828.198 69.5853 827.814 69.436C827.441 69.276 827.137 69.004 826.902 68.62C826.667 68.236 826.55 67.6973 826.55 67.004V62.012H825.334V61.34L826.566 60.78L827.126 58.956H827.958V60.924H830.438V62.012H827.958V66.972C827.958 67.4947 828.081 67.884 828.326 68.14C828.582 68.3853 828.907 68.508 829.302 68.508ZM832.939 57.708C833.153 57.708 833.339 57.7827 833.499 57.932C833.67 58.0707 833.755 58.2947 833.755 58.604C833.755 58.9027 833.67 59.1267 833.499 59.276C833.339 59.4253 833.153 59.5 832.939 59.5C832.705 59.5 832.507 59.4253 832.347 59.276C832.187 59.1267 832.107 58.9027 832.107 58.604C832.107 58.2947 832.187 58.0707 832.347 57.932C832.507 57.7827 832.705 57.708 832.939 57.708ZM833.627 60.924V69.5H832.219V60.924H833.627ZM839.592 60.78C840.638 60.78 841.411 61.0093 841.912 61.468C842.414 61.9267 842.664 62.6573 842.664 63.66V69.5H841.64L841.368 68.284H841.304C840.931 68.7533 840.536 69.1 840.12 69.324C839.715 69.548 839.15 69.66 838.424 69.66C837.646 69.66 837 69.4573 836.488 69.052C835.976 68.636 835.72 67.9907 835.72 67.116C835.72 66.2627 836.056 65.6067 836.728 65.148C837.4 64.6787 838.435 64.4227 839.832 64.38L841.288 64.332V63.82C841.288 63.1053 841.134 62.6093 840.824 62.332C840.515 62.0547 840.078 61.916 839.512 61.916C839.064 61.916 838.638 61.9853 838.232 62.124C837.827 62.252 837.448 62.4013 837.096 62.572L836.664 61.516C837.038 61.3133 837.48 61.1427 837.992 61.004C838.504 60.8547 839.038 60.78 839.592 60.78ZM840.008 65.356C838.942 65.3987 838.2 65.5693 837.784 65.868C837.379 66.1667 837.176 66.588 837.176 67.132C837.176 67.612 837.32 67.964 837.608 68.188C837.907 68.412 838.286 68.524 838.744 68.524C839.47 68.524 840.072 68.3267 840.552 67.932C841.032 67.5267 841.272 66.908 841.272 66.076V65.308L840.008 65.356ZM846.721 69.5H845.313V57.34H846.721V69.5ZM850.158 57.708C850.371 57.708 850.558 57.7827 850.718 57.932C850.889 58.0707 850.974 58.2947 850.974 58.604C850.974 58.9027 850.889 59.1267 850.718 59.276C850.558 59.4253 850.371 59.5 850.158 59.5C849.923 59.5 849.726 59.4253 849.566 59.276C849.406 59.1267 849.326 58.9027 849.326 58.604C849.326 58.2947 849.406 58.0707 849.566 57.932C849.726 57.7827 849.923 57.708 850.158 57.708ZM850.846 60.924V69.5H849.438V60.924H850.846ZM856.427 68.508C856.64 68.508 856.859 68.492 857.083 68.46C857.307 68.4173 857.488 68.3747 857.627 68.332V69.404C857.478 69.4787 857.264 69.5373 856.987 69.58C856.71 69.6333 856.443 69.66 856.187 69.66C855.739 69.66 855.323 69.5853 854.939 69.436C854.566 69.276 854.262 69.004 854.027 68.62C853.792 68.236 853.675 67.6973 853.675 67.004V62.012H852.459V61.34L853.691 60.78L854.251 58.956H855.083V60.924H857.563V62.012H855.083V66.972C855.083 67.4947 855.206 67.884 855.451 68.14C855.707 68.3853 856.032 68.508 856.427 68.508ZM862.656 60.764C863.392 60.764 864.022 60.924 864.544 61.244C865.078 61.564 865.483 62.0173 865.76 62.604C866.048 63.18 866.192 63.8573 866.192 64.636V65.484H860.32C860.342 66.4547 860.587 67.196 861.056 67.708C861.536 68.2093 862.203 68.46 863.056 68.46C863.6 68.46 864.08 68.412 864.496 68.316C864.923 68.2093 865.36 68.06 865.808 67.868V69.1C865.371 69.292 864.939 69.4307 864.512 69.516C864.086 69.612 863.579 69.66 862.992 69.66C862.182 69.66 861.462 69.4947 860.832 69.164C860.214 68.8333 859.728 68.3427 859.376 67.692C859.035 67.0307 858.864 66.2253 858.864 65.276C858.864 64.3373 859.019 63.532 859.328 62.86C859.648 62.188 860.091 61.6707 860.656 61.308C861.232 60.9453 861.899 60.764 862.656 60.764ZM862.64 61.916C861.968 61.916 861.435 62.1347 861.04 62.572C860.656 62.9987 860.427 63.596 860.352 64.364H864.72C864.71 63.6387 864.539 63.052 864.208 62.604C863.878 62.1453 863.355 61.916 862.64 61.916ZM864.912 57.404C864.784 57.596 864.587 57.8467 864.32 58.156C864.054 58.4547 863.766 58.7587 863.456 59.068C863.158 59.3667 862.88 59.612 862.624 59.804H861.696V59.612C861.856 59.4093 862.027 59.1693 862.208 58.892C862.4 58.6147 862.587 58.332 862.768 58.044C862.95 57.7453 863.099 57.4787 863.216 57.244H864.912V57.404Z" fill="#284162"/>
<path d="M1281.78 44.2393H1287.74V56.1313H1281.78V44.2393ZM1271.46 50.1853L1271.12 50.2996C1271.12 50.2996 1273.18 52.0148 1273.18 52.1292C1273.3 52.2435 1273.41 52.2435 1273.3 52.5866C1273.18 52.9296 1273.07 53.2726 1273.07 53.2726C1273.07 53.2726 1274.9 52.9296 1275.13 52.8153C1275.36 52.8153 1275.47 52.8152 1275.47 53.0439C1275.47 53.2726 1275.36 55.2165 1275.36 55.2165H1275.93C1275.93 55.2165 1275.82 53.1583 1275.82 53.0439C1275.82 52.8152 1275.93 52.8153 1276.16 52.8153C1276.39 52.8153 1278.22 53.2726 1278.22 53.2726C1278.22 53.2726 1278.11 52.8153 1278 52.5866C1277.88 52.2435 1278 52.2435 1278.11 52.1292C1278.22 52.0148 1280.17 50.2996 1280.17 50.2996L1279.83 50.1853C1279.6 50.0709 1279.71 49.9566 1279.71 49.8422C1279.71 49.7279 1280.06 48.5844 1280.06 48.5844C1280.06 48.5844 1279.14 48.8131 1279.03 48.8131C1278.91 48.8131 1278.8 48.8131 1278.8 48.6988C1278.8 48.5844 1278.57 48.127 1278.57 48.127C1278.57 48.127 1277.54 49.2705 1277.42 49.3849C1277.19 49.6135 1276.96 49.3849 1277.08 49.1562C1277.08 48.9275 1277.65 46.5262 1277.65 46.5262C1277.65 46.5262 1277.08 46.8692 1276.85 46.9836C1276.62 47.0979 1276.51 47.0979 1276.51 46.8692C1276.39 46.6405 1275.7 45.3827 1275.7 45.2684C1275.7 45.2684 1275.02 46.6405 1274.9 46.8692C1274.79 47.0979 1274.67 47.0979 1274.56 46.9836C1274.33 46.8692 1273.76 46.5262 1273.76 46.5262C1273.76 46.5262 1274.33 48.9275 1274.33 49.1562C1274.33 49.3849 1274.21 49.4992 1273.98 49.3849L1272.84 48.127C1272.84 48.127 1272.72 48.4701 1272.61 48.5844C1272.61 48.6988 1272.49 48.8131 1272.38 48.6988C1272.15 48.6988 1271.23 48.4701 1271.23 48.4701C1271.23 48.4701 1271.58 49.6135 1271.69 49.7279C1271.69 49.8422 1271.69 50.0709 1271.46 50.1853ZM1263.79 44.2393H1269.74V56.1313H1263.79V44.2393Z" fill="#EB2D37"/>
<path d="M1289.07 79.9113C1288.61 80.9404 1287.7 81.2834 1287.12 81.2834C1286.44 81.2834 1284.37 81.1691 1284.37 75.7948C1284.37 75.7948 1284.37 64.932 1284.37 64.2459C1284.37 60.7012 1281.62 57.8426 1274.52 57.8426C1266.84 57.8426 1266.73 61.616 1266.73 62.5307C1266.61 63.5598 1267.18 64.7033 1269.13 64.7033C1270.85 64.7033 1271.31 62.7594 1271.54 62.0733C1271.77 61.2729 1271.88 58.986 1274.98 58.986C1277.61 58.986 1279.22 61.2729 1279.33 64.5889C1279.33 65.1607 1279.33 65.5037 1279.33 65.8467C1279.33 66.0754 1279.33 66.1898 1279.33 66.4185V66.5328C1279.1 67.6763 1278.53 68.248 1277.5 68.7054C1276.12 69.3915 1272.11 69.9632 1271.65 70.0775C1270.05 70.4206 1265.58 71.564 1265.69 76.2522C1265.81 80.826 1270.39 82.4269 1273.6 82.3125C1276.7 82.1982 1278.53 80.9404 1279.33 80.2543C1279.79 79.9113 1279.79 79.9113 1280.13 80.3686C1280.59 80.826 1282.08 82.3125 1285.63 82.3125C1289.3 82.3125 1289.76 80.5973 1289.99 80.0256C1290.1 79.6826 1289.3 79.3395 1289.07 79.9113ZM1274.75 81.1691C1271.54 81.1691 1270.74 78.5391 1270.74 77.167C1270.74 75.9092 1271.42 73.2792 1274.63 71.4497C1274.63 71.4497 1276.12 70.5349 1278.99 69.3915C1279.1 69.3915 1279.22 69.3915 1279.22 69.3915C1279.22 69.3915 1279.33 69.5058 1279.33 69.6202V69.7345V69.8488V74.6514C1279.33 78.4248 1277.5 81.1691 1274.75 81.1691ZM1264.21 81.0547C1263.75 80.9404 1260.88 81.2834 1260.88 72.5931C1260.88 63.9029 1260.88 45.2645 1260.88 45.2645C1260.88 44.9215 1260.88 44.0067 1259.85 44.0067C1258.82 44.0067 1251.94 44.3498 1251.49 44.4641C1251.03 44.4641 1250.68 45.0358 1251.49 45.0358C1252.29 45.1502 1255.95 45.3789 1255.95 51.4392C1255.95 54.4122 1255.95 57.3852 1255.95 59.5577C1255.95 59.6721 1255.95 59.7864 1255.95 59.7864C1255.95 60.0151 1255.95 60.1295 1255.84 60.2438C1255.84 60.2438 1255.84 60.2438 1255.84 60.3582C1255.73 60.4725 1255.61 60.3582 1255.27 60.1295C1254.69 59.6721 1252.06 58.0712 1248.73 58.0712C1243.35 58.0712 1236.7 61.959 1236.7 69.9632C1236.7 78.5391 1242.78 82.6556 1249.08 82.6556C1252.17 82.6556 1254.35 81.2834 1255.15 80.826C1256.07 80.2543 1255.95 80.3686 1256.07 81.1691C1256.18 81.7408 1256.07 82.8843 1257.67 82.7699C1259.39 82.5412 1263.52 82.0838 1264.32 81.9695C1265.12 81.6264 1264.89 81.1691 1264.21 81.0547ZM1250 81.3978C1244.95 81.3978 1242.32 75.4518 1242.32 69.7345C1242.32 63.4455 1245.87 59.2147 1249.65 59.4434C1254.58 59.7864 1255.84 63.6742 1255.95 70.6493C1255.95 71.1066 1255.95 71.564 1255.95 72.1358C1255.84 78.9965 1252.97 81.3978 1250 81.3978ZM1236.59 79.9113C1236.13 80.9404 1235.21 81.2834 1234.64 81.2834C1233.95 81.2834 1231.89 81.1691 1231.89 75.7948C1231.89 75.7948 1231.89 64.932 1231.89 64.2459C1231.89 60.7012 1229.14 57.8426 1222.03 57.8426C1214.36 57.8426 1214.24 61.616 1214.24 62.5307C1214.13 63.5598 1214.7 64.7033 1216.65 64.7033C1218.37 64.7033 1218.83 62.7594 1219.05 62.0733C1219.28 61.2729 1219.4 58.986 1222.49 58.986C1225.13 58.986 1226.85 61.2729 1226.85 64.7033V64.8176C1226.85 64.932 1226.85 65.0463 1226.85 65.0463V65.3894C1226.85 65.5037 1226.85 65.7324 1226.85 65.8467C1226.73 67.5619 1226.27 68.1337 1224.9 68.8197C1223.52 69.5058 1219.51 70.0775 1219.05 70.1919C1217.45 70.5349 1212.98 71.6784 1213.1 76.3665C1213.21 80.9404 1217.79 82.5412 1221 82.4269C1224.1 82.3125 1225.93 81.0547 1226.73 80.3686C1227.19 80.0256 1227.19 80.0256 1227.53 80.483C1227.99 80.9404 1229.48 82.4269 1233.04 82.4269C1236.7 82.4269 1237.16 80.7117 1237.39 80.14C1237.62 79.6826 1236.93 79.3395 1236.59 79.9113ZM1222.38 81.1691C1219.17 81.1691 1218.37 78.5391 1218.37 77.167C1218.37 75.9092 1219.05 73.2792 1222.26 71.4497C1222.26 71.4497 1223.75 70.5349 1226.62 69.3915C1226.73 69.3915 1226.85 69.3915 1226.85 69.3915V69.5058C1226.85 69.6202 1226.85 69.7345 1226.85 69.9632V69.8488C1226.85 69.8488 1226.85 69.8488 1226.85 69.9632V74.7657C1226.85 78.4248 1225.01 81.1691 1222.38 81.1691ZM1211.38 81.0547C1210.46 80.826 1208.86 79.7969 1208.86 74.7657V65.6181C1208.86 63.4455 1209.09 57.8426 1200.49 57.8426C1196.02 57.8426 1193.5 60.1295 1193.27 60.2438C1192.93 60.5868 1192.7 60.7012 1192.58 60.1295C1192.47 59.6721 1192.24 58.986 1192.13 58.5286C1192.01 58.1856 1191.78 57.8426 1190.98 57.9569C1190.18 58.0712 1185.13 58.8717 1184.22 59.1004C1183.42 59.329 1183.65 59.6721 1184.22 59.7864C1184.79 59.9008 1187.54 60.1295 1187.54 64.8176C1187.54 69.5058 1187.54 74.6514 1187.54 74.6514C1187.54 80.3686 1186.4 80.826 1185.36 81.1691C1183.99 81.5121 1184.68 81.9695 1185.25 81.9695C1185.25 81.9695 1195.45 81.9695 1195.68 81.9695C1196.37 81.9695 1196.71 81.2834 1195.33 81.0547C1193.96 80.826 1192.7 80.0256 1192.7 75.5661C1192.7 75.1087 1192.7 70.1919 1192.7 69.2771C1192.7 66.8759 1192.13 59.5577 1198.77 59.4434C1203.47 59.329 1203.93 63.2168 1203.93 65.7324V75.4518C1203.93 79.4539 1202.78 80.7117 1201.41 80.9404C1200.15 81.1691 1200.38 81.7408 1201.06 81.7408C1201.29 81.7408 1211.72 81.7408 1211.72 81.7408C1212.29 81.9695 1212.87 81.3978 1211.38 81.0547ZM1183.53 79.9113C1183.07 80.9404 1182.16 81.2834 1181.58 81.2834C1180.89 81.2834 1178.83 81.1691 1178.83 75.7948C1178.83 75.7948 1178.83 64.932 1178.83 64.2459C1178.83 60.7012 1176.08 57.8426 1168.98 57.8426C1161.3 57.8426 1161.18 61.616 1161.18 62.5307C1161.07 63.5598 1161.64 64.7033 1163.59 64.7033C1165.31 64.7033 1165.77 62.7594 1166 62.0733C1166.23 61.2729 1166.34 58.986 1169.44 58.986C1172.07 58.986 1173.68 61.2729 1173.79 64.5889C1173.79 65.1607 1173.79 65.5037 1173.79 65.8467C1173.79 66.0754 1173.79 66.3041 1173.68 66.4185V66.5328C1173.45 67.6763 1172.87 68.248 1171.84 68.7054C1170.47 69.3915 1166.46 69.9632 1166 70.0775C1164.39 70.4206 1159.92 71.564 1160.04 76.2522C1160.15 80.826 1164.74 82.4269 1167.95 82.3125C1171.04 82.1982 1172.87 80.9404 1173.68 80.2543C1174.13 79.9113 1174.13 79.9113 1174.48 80.3686C1174.94 80.826 1176.43 82.3125 1179.98 82.3125C1183.65 82.3125 1184.1 80.5973 1184.33 80.0256C1184.56 79.6826 1183.76 79.3395 1183.53 79.9113ZM1169.21 81.1691C1166 81.1691 1165.2 78.5391 1165.2 77.167C1165.2 75.7948 1165.88 73.2792 1169.09 71.4497C1169.09 71.4497 1170.58 70.5349 1173.45 69.3915C1173.56 69.3915 1173.68 69.3915 1173.68 69.3915C1173.68 69.3915 1173.79 69.5058 1173.79 69.6202C1173.79 69.6202 1173.79 69.7345 1173.79 69.8488V69.9632V74.7657C1173.79 78.4248 1171.96 81.1691 1169.21 81.1691ZM1158.2 71.221C1157.06 74.8801 1154.88 80.826 1146.97 81.0547C1138.72 81.1691 1133.8 75.5661 1133.57 65.1607C1133.22 54.0691 1138.04 45.6076 1145.48 45.3789C1153.85 45.2645 1156.83 55.2126 1156.94 56.6991C1157.06 57.8426 1158.55 57.7282 1158.55 56.5848C1158.55 56.013 1157.86 46.1793 1157.63 45.0358C1157.4 43.8924 1156.49 44.3498 1156.26 44.8072C1156.14 45.1502 1156.37 44.4641 1155.91 45.4932C1155.45 46.5223 1154.19 45.9506 1153.74 45.8363C1152.36 45.2645 1149.72 43.8924 1145.48 44.0067C1135.74 44.2354 1125.77 51.4392 1126 64.0172C1126.23 76.2522 1136.09 83.1129 1145.26 82.9986C1153.62 82.8842 1158.32 77.6243 1159.69 71.564C1160.15 70.0775 1158.66 69.7345 1158.2 71.221Z" fill="black"/>
</svg>
