<svg width="400" height="300" viewBox="0 0 400 300" fill="none" xmlns="http://www.w3.org/2000/svg">
<rect width="400" height="300" fill="#F1F2F3"/>
<path d="M120.7 134.11L120.69 136H111.71V121.6H120.69V123.49H114.06V127.83H119.36V129.66H114.06V134.11H120.7ZM120.35 117.43L117.1 120.29C116.98 120.397 116.867 120.463 116.76 120.49C116.653 120.517 116.52 120.53 116.36 120.53H114.81L117.01 117.8C117.07 117.713 117.13 117.647 117.19 117.6C117.25 117.553 117.317 117.517 117.39 117.49C117.463 117.463 117.543 117.447 117.63 117.44C117.723 117.433 117.83 117.43 117.95 117.43H120.35ZM125.674 136.16C124.827 136.16 124.174 135.923 123.714 135.45C123.26 134.97 123.034 134.297 123.034 133.43V127.49H121.914C121.794 127.49 121.69 127.453 121.604 127.38C121.517 127.3 121.474 127.183 121.474 127.03V126.16L123.124 125.92L123.594 122.97C123.627 122.857 123.684 122.767 123.764 122.7C123.844 122.627 123.95 122.59 124.084 122.59H125.184V125.94H128.014V127.49H125.184V133.28C125.184 133.647 125.274 133.927 125.454 134.12C125.634 134.313 125.874 134.41 126.174 134.41C126.34 134.41 126.484 134.39 126.604 134.35C126.724 134.303 126.827 134.257 126.914 134.21C127 134.157 127.074 134.11 127.134 134.07C127.2 134.023 127.264 134 127.324 134C127.444 134 127.54 134.067 127.614 134.2L128.254 135.25C127.92 135.543 127.527 135.77 127.074 135.93C126.62 136.083 126.154 136.16 125.674 136.16ZM135.158 131.54C134.392 131.567 133.745 131.63 133.218 131.73C132.692 131.823 132.265 131.947 131.938 132.1C131.612 132.247 131.375 132.423 131.228 132.63C131.088 132.837 131.018 133.063 131.018 133.31C131.018 133.55 131.055 133.757 131.128 133.93C131.208 134.097 131.315 134.237 131.448 134.35C131.588 134.457 131.748 134.537 131.928 134.59C132.115 134.637 132.318 134.66 132.538 134.66C133.098 134.66 133.578 134.557 133.978 134.35C134.385 134.137 134.778 133.83 135.158 133.43V131.54ZM129.458 127.22C130.612 126.147 131.985 125.61 133.578 125.61C134.165 125.61 134.685 125.707 135.138 125.9C135.598 126.087 135.982 126.353 136.288 126.7C136.602 127.047 136.838 127.46 136.998 127.94C137.165 128.413 137.248 128.94 137.248 129.52V136H136.288C136.082 136 135.925 135.97 135.818 135.91C135.712 135.843 135.622 135.713 135.548 135.52L135.338 134.69C135.078 134.923 134.822 135.133 134.568 135.32C134.315 135.5 134.052 135.653 133.778 135.78C133.512 135.907 133.222 136 132.908 136.06C132.602 136.127 132.262 136.16 131.888 136.16C131.475 136.16 131.088 136.103 130.728 135.99C130.375 135.877 130.068 135.707 129.808 135.48C129.548 135.247 129.342 134.96 129.188 134.62C129.042 134.28 128.968 133.88 128.968 133.42C128.968 133.027 129.072 132.643 129.278 132.27C129.492 131.897 129.838 131.563 130.318 131.27C130.805 130.97 131.442 130.723 132.228 130.53C133.022 130.337 133.998 130.227 135.158 130.2V129.52C135.158 128.787 135.002 128.24 134.688 127.88C134.375 127.52 133.915 127.34 133.308 127.34C132.895 127.34 132.548 127.393 132.268 127.5C131.988 127.6 131.745 127.71 131.538 127.83C131.332 127.95 131.148 128.063 130.988 128.17C130.828 128.27 130.658 128.32 130.478 128.32C130.332 128.32 130.205 128.283 130.098 128.21C129.998 128.13 129.915 128.033 129.848 127.92L129.458 127.22ZM141.917 133.44C142.217 133.827 142.544 134.1 142.897 134.26C143.257 134.413 143.654 134.49 144.087 134.49C144.927 134.49 145.58 134.183 146.047 133.57C146.52 132.957 146.757 132.043 146.757 130.83C146.757 130.203 146.704 129.67 146.597 129.23C146.49 128.783 146.337 128.42 146.137 128.14C145.937 127.86 145.694 127.657 145.407 127.53C145.12 127.403 144.797 127.34 144.437 127.34C143.89 127.34 143.417 127.46 143.017 127.7C142.624 127.933 142.257 128.27 141.917 128.71V133.44ZM141.807 127.28C142.234 126.78 142.717 126.377 143.257 126.07C143.804 125.763 144.437 125.61 145.157 125.61C145.73 125.61 146.25 125.727 146.717 125.96C147.184 126.187 147.584 126.52 147.917 126.96C148.25 127.4 148.507 127.947 148.687 128.6C148.874 129.247 148.967 129.99 148.967 130.83C148.967 131.583 148.864 132.287 148.657 132.94C148.457 133.587 148.167 134.15 147.787 134.63C147.407 135.103 146.947 135.477 146.407 135.75C145.867 136.017 145.257 136.15 144.577 136.15C143.977 136.15 143.467 136.053 143.047 135.86C142.634 135.667 142.257 135.4 141.917 135.06V139.39H139.767V125.8H141.067C141.36 125.8 141.547 125.937 141.627 126.21L141.807 127.28ZM157.746 129.75C157.746 129.39 157.693 129.057 157.586 128.75C157.486 128.437 157.336 128.167 157.136 127.94C156.936 127.707 156.686 127.527 156.386 127.4C156.093 127.267 155.753 127.2 155.366 127.2C154.586 127.2 153.973 127.423 153.526 127.87C153.079 128.317 152.796 128.943 152.676 129.75H157.746ZM152.616 131.07C152.643 131.65 152.733 132.153 152.886 132.58C153.039 133 153.243 133.35 153.496 133.63C153.756 133.91 154.063 134.12 154.416 134.26C154.776 134.393 155.176 134.46 155.616 134.46C156.036 134.46 156.399 134.413 156.706 134.32C157.013 134.22 157.279 134.113 157.506 134C157.733 133.88 157.926 133.773 158.086 133.68C158.246 133.58 158.393 133.53 158.526 133.53C158.699 133.53 158.833 133.597 158.926 133.73L159.536 134.52C159.283 134.82 158.996 135.073 158.676 135.28C158.356 135.487 158.016 135.657 157.656 135.79C157.296 135.917 156.926 136.007 156.546 136.06C156.166 136.12 155.796 136.15 155.436 136.15C154.729 136.15 154.073 136.033 153.466 135.8C152.866 135.56 152.343 135.21 151.896 134.75C151.456 134.29 151.109 133.72 150.856 133.04C150.609 132.36 150.486 131.577 150.486 130.69C150.486 129.983 150.596 129.323 150.816 128.71C151.043 128.097 151.363 127.563 151.776 127.11C152.196 126.657 152.703 126.3 153.296 126.04C153.896 125.773 154.573 125.64 155.326 125.64C155.953 125.64 156.533 125.743 157.066 125.95C157.599 126.15 158.059 126.447 158.446 126.84C158.833 127.233 159.133 127.717 159.346 128.29C159.566 128.857 159.676 129.503 159.676 130.23C159.676 130.563 159.639 130.787 159.566 130.9C159.493 131.013 159.359 131.07 159.166 131.07H152.616ZM175.622 134.37V136H167.772V134.37H170.772V125.35C170.772 125.03 170.782 124.703 170.802 124.37L168.492 126.32C168.392 126.4 168.288 126.453 168.182 126.48C168.082 126.5 167.985 126.5 167.892 126.48C167.805 126.46 167.725 126.43 167.652 126.39C167.585 126.343 167.532 126.293 167.492 126.24L166.822 125.3L171.162 121.57H172.912V134.37H175.622ZM189.754 128.31C189.454 127.923 189.124 127.653 188.764 127.5C188.404 127.347 188.014 127.27 187.594 127.27C186.754 127.27 186.097 127.58 185.624 128.2C185.15 128.813 184.914 129.723 184.914 130.93C184.914 131.557 184.967 132.093 185.074 132.54C185.18 132.98 185.334 133.34 185.534 133.62C185.734 133.9 185.977 134.103 186.264 134.23C186.55 134.357 186.874 134.42 187.234 134.42C187.78 134.42 188.25 134.303 188.644 134.07C189.044 133.83 189.414 133.493 189.754 133.06V128.31ZM191.904 121.2V136H190.604C190.317 136 190.134 135.863 190.054 135.59L189.864 134.48C189.437 134.98 188.95 135.383 188.404 135.69C187.864 135.997 187.234 136.15 186.514 136.15C185.94 136.15 185.42 136.037 184.954 135.81C184.487 135.577 184.087 135.24 183.754 134.8C183.42 134.36 183.16 133.817 182.974 133.17C182.794 132.517 182.704 131.77 182.704 130.93C182.704 130.17 182.804 129.467 183.004 128.82C183.21 128.173 183.504 127.613 183.884 127.14C184.264 126.66 184.724 126.287 185.264 126.02C185.81 125.747 186.42 125.61 187.094 125.61C187.694 125.61 188.204 125.707 188.624 125.9C189.044 126.087 189.42 126.35 189.754 126.69V121.2H191.904ZM201.223 129.75C201.223 129.39 201.169 129.057 201.063 128.75C200.963 128.437 200.813 128.167 200.613 127.94C200.413 127.707 200.163 127.527 199.863 127.4C199.569 127.267 199.229 127.2 198.843 127.2C198.063 127.2 197.449 127.423 197.003 127.87C196.556 128.317 196.273 128.943 196.153 129.75H201.223ZM196.093 131.07C196.119 131.65 196.209 132.153 196.363 132.58C196.516 133 196.719 133.35 196.973 133.63C197.233 133.91 197.539 134.12 197.893 134.26C198.253 134.393 198.653 134.46 199.093 134.46C199.513 134.46 199.876 134.413 200.183 134.32C200.489 134.22 200.756 134.113 200.983 134C201.209 133.88 201.403 133.773 201.563 133.68C201.723 133.58 201.869 133.53 202.003 133.53C202.176 133.53 202.309 133.597 202.403 133.73L203.013 134.52C202.759 134.82 202.473 135.073 202.153 135.28C201.833 135.487 201.493 135.657 201.133 135.79C200.773 135.917 200.403 136.007 200.023 136.06C199.643 136.12 199.273 136.15 198.913 136.15C198.206 136.15 197.549 136.033 196.943 135.8C196.343 135.56 195.819 135.21 195.373 134.75C194.933 134.29 194.586 133.72 194.333 133.04C194.086 132.36 193.963 131.577 193.963 130.69C193.963 129.983 194.073 129.323 194.293 128.71C194.519 128.097 194.839 127.563 195.253 127.11C195.673 126.657 196.179 126.3 196.773 126.04C197.373 125.773 198.049 125.64 198.803 125.64C199.429 125.64 200.009 125.743 200.543 125.95C201.076 126.15 201.536 126.447 201.923 126.84C202.309 127.233 202.609 127.717 202.823 128.29C203.043 128.857 203.153 129.503 203.153 130.23C203.153 130.563 203.116 130.787 203.043 130.9C202.969 131.013 202.836 131.07 202.643 131.07H196.093ZM216.038 130.68V125.42C216.038 125 216.068 124.54 216.128 124.04L211.288 130.68H216.038ZM219.898 130.68V131.92C219.898 132.04 219.858 132.143 219.778 132.23C219.705 132.317 219.591 132.36 219.438 132.36H217.908V136H216.038V132.36H209.808C209.655 132.36 209.521 132.317 209.408 132.23C209.301 132.137 209.231 132.023 209.198 131.89L208.978 130.79L215.888 121.59H217.908V130.68H219.898Z" fill="#7D828B"/>
<rect x="110" y="152" width="180" height="32" rx="16" fill="#A8ADB4"/>
</svg>
