<svg width="351" height="228" viewBox="0 0 351 228" fill="none" xmlns="http://www.w3.org/2000/svg">
<path d="M7.33047 38H5.61047L5.61047 28.02C5.61047 27.4467 5.61714 26.9867 5.63047 26.64C5.6438 26.2933 5.6638 25.9333 5.69047 25.56C5.47714 25.7733 5.2838 25.9533 5.11047 26.1C4.93714 26.2467 4.71714 26.4333 4.45047 26.66L2.93047 27.9L2.01047 26.72L5.87047 23.72H7.33047L7.33047 38ZM13.1158 36.92C13.1158 36.4267 13.2358 36.08 13.4758 35.88C13.7158 35.68 14.0024 35.58 14.3358 35.58C14.6824 35.58 14.9758 35.68 15.2158 35.88C15.4691 36.08 15.5958 36.4267 15.5958 36.92C15.5958 37.4 15.4691 37.7467 15.2158 37.96C14.9758 38.1733 14.6824 38.28 14.3358 38.28C14.0024 38.28 13.7158 38.1733 13.4758 37.96C13.2358 37.7467 13.1158 37.4 13.1158 36.92ZM27.4273 38H17.9873V36.54L21.7273 32.76C22.4473 32.04 23.054 31.4 23.5473 30.84C24.0407 30.28 24.414 29.7333 24.6673 29.2C24.9207 28.6533 25.0473 28.06 25.0473 27.42C25.0473 26.6333 24.814 26.04 24.3473 25.64C23.8807 25.2267 23.274 25.02 22.5273 25.02C21.834 25.02 21.2207 25.14 20.6873 25.38C20.1673 25.62 19.634 25.9533 19.0873 26.38L18.1473 25.2C18.7073 24.7333 19.3473 24.34 20.0673 24.02C20.8007 23.6867 21.6207 23.52 22.5273 23.52C23.8607 23.52 24.914 23.86 25.6873 24.54C26.4607 25.2067 26.8473 26.1333 26.8473 27.32C26.8473 28.0667 26.694 28.7667 26.3873 29.42C26.0807 30.0733 25.654 30.72 25.1073 31.36C24.5607 31.9867 23.9207 32.66 23.1873 33.38L20.2073 36.32V36.4H27.4273V38ZM33.9727 29.24C35.4393 29.24 36.606 29.6067 37.4727 30.34C38.3393 31.0733 38.7727 32.1067 38.7727 33.44C38.7727 34.92 38.2993 36.0867 37.3527 36.94C36.4193 37.78 35.1127 38.2 33.4327 38.2C32.6993 38.2 32.006 38.1333 31.3527 38C30.7127 37.8667 30.1727 37.6733 29.7327 37.42V35.76C30.2127 36.0533 30.7927 36.2867 31.4727 36.46C32.166 36.62 32.826 36.7 33.4527 36.7C34.506 36.7 35.3527 36.4533 35.9927 35.96C36.646 35.4533 36.9727 34.6733 36.9727 33.62C36.9727 32.6867 36.686 31.9733 36.1127 31.48C35.5393 30.9733 34.6327 30.72 33.3927 30.72C33.0193 30.72 32.5927 30.7533 32.1127 30.82C31.6327 30.8867 31.246 30.9533 30.9527 31.02L30.0727 30.46L30.6127 23.72H37.7727V25.32H32.1127L31.7727 29.46C31.9993 29.42 32.306 29.3733 32.6927 29.32C33.0793 29.2667 33.506 29.24 33.9727 29.24ZM46.618 27.08C46.818 27.08 47.0313 27.0933 47.258 27.12C47.498 27.1333 47.7046 27.16 47.878 27.2L47.658 28.82C47.4846 28.78 47.2913 28.7467 47.078 28.72C46.878 28.6933 46.6846 28.68 46.498 28.68C45.9513 28.68 45.438 28.8333 44.958 29.14C44.478 29.4333 44.0913 29.8533 43.798 30.4C43.518 30.9333 43.378 31.56 43.378 32.28V38H41.618V27.28H43.058L43.258 29.24H43.338C43.6846 28.6533 44.1313 28.1467 44.678 27.72C45.2246 27.2933 45.8713 27.08 46.618 27.08ZM53.6291 27.08C54.5491 27.08 55.3357 27.28 55.9891 27.68C56.6557 28.08 57.1624 28.6467 57.5091 29.38C57.8691 30.1 58.0491 30.9467 58.0491 31.92V32.98H50.7091C50.7357 34.1933 51.0424 35.12 51.6291 35.76C52.2291 36.3867 53.0624 36.7 54.1291 36.7C54.8091 36.7 55.4091 36.64 55.9291 36.52C56.4624 36.3867 57.0091 36.2 57.5691 35.96V37.5C57.0224 37.74 56.4824 37.9133 55.9491 38.02C55.4157 38.14 54.7824 38.2 54.0491 38.2C53.0357 38.2 52.1357 37.9933 51.3491 37.58C50.5757 37.1667 49.9691 36.5533 49.5291 35.74C49.1024 34.9133 48.8891 33.9067 48.8891 32.72C48.8891 31.5467 49.0824 30.54 49.4691 29.7C49.8691 28.86 50.4224 28.2133 51.1291 27.76C51.8491 27.3067 52.6824 27.08 53.6291 27.08ZM53.6091 28.52C52.7691 28.52 52.1024 28.7933 51.6091 29.34C51.1291 29.8733 50.8424 30.62 50.7491 31.58H56.2091C56.1957 30.6733 55.9824 29.94 55.5691 29.38C55.1557 28.8067 54.5024 28.52 53.6091 28.52ZM72.5381 27.08C73.7515 27.08 74.6581 27.3933 75.2581 28.02C75.8581 28.6333 76.1581 29.6333 76.1581 31.02V38H74.4181V31.1C74.4181 29.4067 73.6915 28.56 72.2381 28.56C71.1981 28.56 70.4515 28.86 69.9981 29.46C69.5581 30.06 69.3381 30.9333 69.3381 32.08V38H67.5981V31.1C67.5981 29.4067 66.8648 28.56 65.3981 28.56C64.3181 28.56 63.5715 28.8933 63.1581 29.56C62.7448 30.2267 62.5381 31.1867 62.5381 32.44V38H60.7781V27.28H62.1981L62.4581 28.74H62.5581C62.8915 28.18 63.3381 27.7667 63.8981 27.5C64.4715 27.22 65.0781 27.08 65.7181 27.08C67.3981 27.08 68.4915 27.68 68.9981 28.88H69.0981C69.4581 28.2667 69.9448 27.8133 70.5581 27.52C71.1848 27.2267 71.8448 27.08 72.5381 27.08Z" fill="black"/>
<path d="M108.523 31.0586L102.898 36.6836C102.688 36.8945 102.406 37 102.125 37C101.809 37 101.527 36.8945 101.316 36.6836C100.859 36.2617 100.859 35.5234 101.316 35.1016L105.008 31.375H94.25C93.6172 31.375 93.125 30.8828 93.125 30.25C93.125 29.6523 93.6172 29.125 94.25 29.125H105.008L101.316 25.4336C100.859 25.0117 100.859 24.2734 101.316 23.8516C101.738 23.3945 102.477 23.3945 102.898 23.8516L108.523 29.4766C108.98 29.8984 108.98 30.6367 108.523 31.0586Z" fill="black"/>
<path d="M125.046 33.42V31.86H129.886V33.42H125.046ZM131.491 33.42V31.86H136.331V33.42H131.491ZM142.637 27.08C143.343 27.08 143.977 27.2133 144.537 27.48C145.11 27.7467 145.597 28.1533 145.997 28.7H146.097L146.337 27.28H147.737V38.18C147.737 39.7133 147.343 40.8667 146.557 41.64C145.783 42.4133 144.577 42.8 142.937 42.8C141.363 42.8 140.077 42.5733 139.077 42.12V40.5C140.13 41.06 141.45 41.34 143.037 41.34C143.957 41.34 144.677 41.0667 145.197 40.52C145.73 39.9867 145.997 39.2533 145.997 38.32V37.9C145.997 37.74 146.003 37.5133 146.017 37.22C146.03 36.9133 146.043 36.7 146.057 36.58H145.977C145.257 37.66 144.15 38.2 142.657 38.2C141.27 38.2 140.183 37.7133 139.397 36.74C138.623 35.7667 138.237 34.4067 138.237 32.66C138.237 30.9533 138.623 29.6 139.397 28.6C140.183 27.5867 141.263 27.08 142.637 27.08ZM142.877 28.56C141.983 28.56 141.29 28.92 140.797 29.64C140.303 30.3467 140.057 31.36 140.057 32.68C140.057 34 140.297 35.0133 140.777 35.72C141.27 36.4133 141.983 36.76 142.917 36.76C143.997 36.76 144.783 36.4733 145.277 35.9C145.77 35.3133 146.017 34.3733 146.017 33.08V32.66C146.017 31.1933 145.763 30.1467 145.257 29.52C144.75 28.88 143.957 28.56 142.877 28.56ZM155.441 38.2C154.495 38.2 153.648 38.0067 152.901 37.62C152.168 37.2333 151.588 36.6333 151.161 35.82C150.748 35.0067 150.541 33.9667 150.541 32.7C150.541 31.38 150.761 30.3067 151.201 29.48C151.641 28.6533 152.235 28.0467 152.981 27.66C153.741 27.2733 154.601 27.08 155.561 27.08C156.108 27.08 156.635 27.14 157.141 27.26C157.648 27.3667 158.061 27.5 158.381 27.66L157.841 29.12C157.521 29 157.148 28.8867 156.721 28.78C156.295 28.6733 155.895 28.62 155.521 28.62C153.415 28.62 152.361 29.9733 152.361 32.68C152.361 33.9733 152.615 34.9667 153.121 35.66C153.641 36.34 154.408 36.68 155.421 36.68C156.008 36.68 156.521 36.62 156.961 36.5C157.415 36.38 157.828 36.2333 158.201 36.06V37.62C157.841 37.8067 157.441 37.9467 157.001 38.04C156.575 38.1467 156.055 38.2 155.441 38.2ZM164.551 38.2C163.217 38.2 162.151 37.74 161.351 36.82C160.551 35.8867 160.151 34.5 160.151 32.66C160.151 30.82 160.551 29.4333 161.351 28.5C162.164 27.5533 163.237 27.08 164.571 27.08C165.397 27.08 166.071 27.2333 166.591 27.54C167.124 27.8467 167.557 28.22 167.891 28.66H168.011C167.997 28.4867 167.971 28.2333 167.931 27.9C167.904 27.5533 167.891 27.28 167.891 27.08V22.8H169.651V38H168.231L167.971 36.56H167.891C167.571 37.0133 167.144 37.4 166.611 37.72C166.077 38.04 165.391 38.2 164.551 38.2ZM164.831 36.74C165.964 36.74 166.757 36.4333 167.211 35.82C167.677 35.1933 167.911 34.2533 167.911 33V32.68C167.911 31.3467 167.691 30.3267 167.251 29.62C166.811 28.9 165.997 28.54 164.811 28.54C163.864 28.54 163.151 28.92 162.671 29.68C162.204 30.4267 161.971 31.4333 161.971 32.7C161.971 33.98 162.204 34.9733 162.671 35.68C163.151 36.3867 163.871 36.74 164.831 36.74ZM180.035 35.04C180.035 36.08 179.649 36.8667 178.875 37.4C178.102 37.9333 177.062 38.2 175.755 38.2C175.009 38.2 174.362 38.14 173.815 38.02C173.282 37.9 172.809 37.7333 172.395 37.52V35.92C172.822 36.1333 173.335 36.3333 173.935 36.52C174.549 36.6933 175.169 36.78 175.795 36.78C176.689 36.78 177.335 36.64 177.735 36.36C178.135 36.0667 178.335 35.68 178.335 35.2C178.335 34.9333 178.262 34.6933 178.115 34.48C177.969 34.2667 177.702 34.0533 177.315 33.84C176.942 33.6267 176.402 33.3867 175.695 33.12C175.002 32.8533 174.409 32.5867 173.915 32.32C173.422 32.0533 173.042 31.7333 172.775 31.36C172.509 30.9867 172.375 30.5067 172.375 29.92C172.375 29.0133 172.742 28.3133 173.475 27.82C174.222 27.3267 175.195 27.08 176.395 27.08C177.049 27.08 177.655 27.1467 178.215 27.28C178.789 27.4 179.322 27.5733 179.815 27.8L179.215 29.2C178.762 29.0133 178.289 28.8533 177.795 28.72C177.302 28.5867 176.795 28.52 176.275 28.52C175.555 28.52 175.002 28.64 174.615 28.88C174.242 29.1067 174.055 29.42 174.055 29.82C174.055 30.1133 174.142 30.3667 174.315 30.58C174.489 30.78 174.775 30.98 175.175 31.18C175.589 31.3667 176.135 31.5933 176.815 31.86C177.495 32.1133 178.075 32.3733 178.555 32.64C179.035 32.9067 179.402 33.2333 179.655 33.62C179.909 33.9933 180.035 34.4667 180.035 35.04ZM181.726 33.42V31.86L186.566 31.86V33.42L181.726 33.42ZM194.011 28.64H191.311V38H189.551V28.64H187.671V27.82L189.551 27.22V26.6C189.551 25.2133 189.858 24.22 190.471 23.62C191.084 23.0067 191.938 22.7 193.031 22.7C193.458 22.7 193.844 22.74 194.191 22.82C194.551 22.8867 194.858 22.9667 195.111 23.06L194.651 24.44C194.438 24.3733 194.191 24.3067 193.911 24.24C193.631 24.1733 193.344 24.14 193.051 24.14C192.464 24.14 192.024 24.34 191.731 24.74C191.451 25.1267 191.311 25.74 191.311 26.58V27.28H194.011V28.64ZM205.266 32.62C205.266 34.3933 204.813 35.7667 203.906 36.74C203.013 37.7133 201.799 38.2 200.266 38.2C199.319 38.2 198.473 37.9867 197.726 37.56C196.993 37.12 196.413 36.4867 195.986 35.66C195.559 34.82 195.346 33.8067 195.346 32.62C195.346 30.8467 195.793 29.48 196.686 28.52C197.579 27.56 198.793 27.08 200.326 27.08C201.299 27.08 202.153 27.3 202.886 27.74C203.633 28.1667 204.213 28.7933 204.626 29.62C205.053 30.4333 205.266 31.4333 205.266 32.62ZM197.166 32.62C197.166 33.8867 197.413 34.8933 197.906 35.64C198.413 36.3733 199.213 36.74 200.306 36.74C201.386 36.74 202.179 36.3733 202.686 35.64C203.193 34.8933 203.446 33.8867 203.446 32.62C203.446 31.3533 203.193 30.36 202.686 29.64C202.179 28.92 201.379 28.56 200.286 28.56C199.193 28.56 198.399 28.92 197.906 29.64C197.413 30.36 197.166 31.3533 197.166 32.62ZM213.215 27.08C214.495 27.08 215.462 27.3933 216.115 28.02C216.769 28.6333 217.095 29.6333 217.095 31.02V38H215.355V31.14C215.355 29.42 214.555 28.56 212.955 28.56C211.769 28.56 210.949 28.8933 210.495 29.56C210.042 30.2267 209.815 31.1867 209.815 32.44V38H208.055V27.28H209.475L209.735 28.74H209.835C210.182 28.18 210.662 27.7667 211.275 27.5C211.889 27.22 212.535 27.08 213.215 27.08ZM223.999 36.76C224.265 36.76 224.539 36.74 224.819 36.7C225.099 36.6467 225.325 36.5933 225.499 36.54V37.88C225.312 37.9733 225.045 38.0467 224.699 38.1C224.352 38.1667 224.019 38.2 223.699 38.2C223.139 38.2 222.619 38.1067 222.139 37.92C221.672 37.72 221.292 37.38 220.999 36.9C220.705 36.42 220.559 35.7467 220.559 34.88V28.64H219.039V27.8L220.579 27.1L221.279 24.82H222.319V27.28H225.419V28.64H222.319V34.84C222.319 35.4933 222.472 35.98 222.779 36.3C223.099 36.6067 223.505 36.76 223.999 36.76ZM226.745 33.42V31.86L231.585 31.86V33.42H226.745ZM241.071 35.04C241.071 36.08 240.684 36.8667 239.911 37.4C239.137 37.9333 238.097 38.2 236.791 38.2C236.044 38.2 235.397 38.14 234.851 38.02C234.317 37.9 233.844 37.7333 233.431 37.52V35.92C233.857 36.1333 234.371 36.3333 234.971 36.52C235.584 36.6933 236.204 36.78 236.831 36.78C237.724 36.78 238.371 36.64 238.771 36.36C239.171 36.0667 239.371 35.68 239.371 35.2C239.371 34.9333 239.297 34.6933 239.151 34.48C239.004 34.2667 238.737 34.0533 238.351 33.84C237.977 33.6267 237.437 33.3867 236.731 33.12C236.037 32.8533 235.444 32.5867 234.951 32.32C234.457 32.0533 234.077 31.7333 233.811 31.36C233.544 30.9867 233.411 30.5067 233.411 29.92C233.411 29.0133 233.777 28.3133 234.511 27.82C235.257 27.3267 236.231 27.08 237.431 27.08C238.084 27.08 238.691 27.1467 239.251 27.28C239.824 27.4 240.357 27.5733 240.851 27.8L240.251 29.2C239.797 29.0133 239.324 28.8533 238.831 28.72C238.337 28.5867 237.831 28.52 237.311 28.52C236.591 28.52 236.037 28.64 235.651 28.88C235.277 29.1067 235.091 29.42 235.091 29.82C235.091 30.1133 235.177 30.3667 235.351 30.58C235.524 30.78 235.811 30.98 236.211 31.18C236.624 31.3667 237.171 31.5933 237.851 31.86C238.531 32.1133 239.111 32.3733 239.591 32.64C240.071 32.9067 240.437 33.2333 240.691 33.62C240.944 33.9933 241.071 34.4667 241.071 35.04ZM244.561 23.26C244.828 23.26 245.061 23.3533 245.261 23.54C245.474 23.7133 245.581 23.9933 245.581 24.38C245.581 24.7533 245.474 25.0333 245.261 25.22C245.061 25.4067 244.828 25.5 244.561 25.5C244.268 25.5 244.021 25.4067 243.821 25.22C243.621 25.0333 243.521 24.7533 243.521 24.38C243.521 23.9933 243.621 23.7133 243.821 23.54C244.021 23.3533 244.268 23.26 244.561 23.26ZM245.421 27.28V38H243.661V27.28H245.421ZM255.737 38H247.897V36.84L253.657 28.64H248.237V27.28H255.597V28.6L249.917 36.64H255.737V38ZM262.352 27.08C263.272 27.08 264.058 27.28 264.712 27.68C265.378 28.08 265.885 28.6467 266.232 29.38C266.592 30.1 266.772 30.9467 266.772 31.92V32.98H259.432C259.458 34.1933 259.765 35.12 260.352 35.76C260.952 36.3867 261.785 36.7 262.852 36.7C263.532 36.7 264.132 36.64 264.652 36.52C265.185 36.3867 265.732 36.2 266.292 35.96V37.5C265.745 37.74 265.205 37.9133 264.672 38.02C264.138 38.14 263.505 38.2 262.772 38.2C261.758 38.2 260.858 37.9933 260.072 37.58C259.298 37.1667 258.692 36.5533 258.252 35.74C257.825 34.9133 257.612 33.9067 257.612 32.72C257.612 31.5467 257.805 30.54 258.192 29.7C258.592 28.86 259.145 28.2133 259.852 27.76C260.572 27.3067 261.405 27.08 262.352 27.08ZM262.332 28.52C261.492 28.52 260.825 28.7933 260.332 29.34C259.852 29.8733 259.565 30.62 259.472 31.58H264.932C264.918 30.6733 264.705 29.94 264.292 29.38C263.878 28.8067 263.225 28.52 262.332 28.52ZM276.481 35.04C276.481 36.08 276.094 36.8667 275.321 37.4C274.547 37.9333 273.507 38.2 272.201 38.2C271.454 38.2 270.807 38.14 270.261 38.02C269.727 37.9 269.254 37.7333 268.841 37.52V35.92C269.267 36.1333 269.781 36.3333 270.381 36.52C270.994 36.6933 271.614 36.78 272.241 36.78C273.134 36.78 273.781 36.64 274.181 36.36C274.581 36.0667 274.781 35.68 274.781 35.2C274.781 34.9333 274.707 34.6933 274.561 34.48C274.414 34.2667 274.147 34.0533 273.761 33.84C273.387 33.6267 272.847 33.3867 272.141 33.12C271.447 32.8533 270.854 32.5867 270.361 32.32C269.867 32.0533 269.487 31.7333 269.221 31.36C268.954 30.9867 268.821 30.5067 268.821 29.92C268.821 29.0133 269.187 28.3133 269.921 27.82C270.667 27.3267 271.641 27.08 272.841 27.08C273.494 27.08 274.101 27.1467 274.661 27.28C275.234 27.4 275.767 27.5733 276.261 27.8L275.661 29.2C275.207 29.0133 274.734 28.8533 274.241 28.72C273.747 28.5867 273.241 28.52 272.721 28.52C272.001 28.52 271.447 28.64 271.061 28.88C270.687 29.1067 270.501 29.42 270.501 29.82C270.501 30.1133 270.587 30.3667 270.761 30.58C270.934 30.78 271.221 30.98 271.621 31.18C272.034 31.3667 272.581 31.5933 273.261 31.86C273.941 32.1133 274.521 32.3733 275.001 32.64C275.481 32.9067 275.847 33.2333 276.101 33.62C276.354 33.9933 276.481 34.4667 276.481 35.04ZM278.171 33.42V31.86H283.011V33.42H278.171ZM289.096 36.76C289.363 36.76 289.636 36.74 289.916 36.7C290.196 36.6467 290.423 36.5933 290.596 36.54V37.88C290.41 37.9733 290.143 38.0467 289.796 38.1C289.45 38.1667 289.116 38.2 288.796 38.2C288.236 38.2 287.716 38.1067 287.236 37.92C286.77 37.72 286.39 37.38 286.096 36.9C285.803 36.42 285.656 35.7467 285.656 34.88V28.64L284.136 28.64V27.8L285.676 27.1L286.376 24.82L287.416 24.82V27.28H290.516V28.64H287.416V34.84C287.416 35.4933 287.57 35.98 287.876 36.3C288.196 36.6067 288.603 36.76 289.096 36.76ZM296.883 27.08C297.803 27.08 298.59 27.28 299.243 27.68C299.91 28.08 300.416 28.6467 300.763 29.38C301.123 30.1 301.303 30.9467 301.303 31.92V32.98H293.963C293.99 34.1933 294.296 35.12 294.883 35.76C295.483 36.3867 296.316 36.7 297.383 36.7C298.063 36.7 298.663 36.64 299.183 36.52C299.716 36.3867 300.263 36.2 300.823 35.96V37.5C300.276 37.74 299.736 37.9133 299.203 38.02C298.67 38.14 298.036 38.2 297.303 38.2C296.29 38.2 295.39 37.9933 294.603 37.58C293.83 37.1667 293.223 36.5533 292.783 35.74C292.356 34.9133 292.143 33.9067 292.143 32.72C292.143 31.5467 292.336 30.54 292.723 29.7C293.123 28.86 293.676 28.2133 294.383 27.76C295.103 27.3067 295.936 27.08 296.883 27.08ZM296.863 28.52C296.023 28.52 295.356 28.7933 294.863 29.34C294.383 29.8733 294.096 30.62 294.003 31.58H299.463C299.45 30.6733 299.236 29.94 298.823 29.38C298.41 28.8067 297.756 28.52 296.863 28.52ZM306.181 32.52L302.481 27.28H304.481L307.241 31.32L309.981 27.28H311.961L308.261 32.52L312.161 38H310.161L307.241 33.72L304.281 38H302.301L306.181 32.52ZM317.807 36.76C318.074 36.76 318.347 36.74 318.627 36.7C318.907 36.6467 319.134 36.5933 319.307 36.54V37.88C319.121 37.9733 318.854 38.0467 318.507 38.1C318.161 38.1667 317.827 38.2 317.507 38.2C316.947 38.2 316.427 38.1067 315.947 37.92C315.481 37.72 315.101 37.38 314.807 36.9C314.514 36.42 314.367 35.7467 314.367 34.88V28.64H312.847V27.8L314.387 27.1L315.087 24.82H316.127V27.28L319.227 27.28V28.64L316.127 28.64V34.84C316.127 35.4933 316.281 35.98 316.587 36.3C316.907 36.6067 317.314 36.76 317.807 36.76Z" fill="black"/>
<path d="M10.2116 111.06C10.2116 112.02 9.9449 112.787 9.41156 113.36C8.87823 113.92 8.15823 114.293 7.25156 114.48V114.56C8.39823 114.693 9.25156 115.053 9.81156 115.64C10.3716 116.227 10.6516 116.993 10.6516 117.94C10.6516 118.767 10.4582 119.507 10.0716 120.16C9.6849 120.8 9.0849 121.3 8.27156 121.66C7.47156 122.02 6.43823 122.2 5.17156 122.2C4.4249 122.2 3.73156 122.14 3.09156 122.02C2.45156 121.913 1.83823 121.713 1.25156 121.42L1.25156 119.78C1.85156 120.073 2.49823 120.307 3.19156 120.48C3.8849 120.64 4.55156 120.72 5.19156 120.72C6.47156 120.72 7.39156 120.473 7.95156 119.98C8.5249 119.473 8.81156 118.78 8.81156 117.9C8.81156 117.007 8.45823 116.367 7.75156 115.98C7.05823 115.58 6.07823 115.38 4.81156 115.38H3.43156L3.43156 113.88H4.83156C6.0049 113.88 6.89156 113.633 7.49156 113.14C8.1049 112.647 8.41156 111.993 8.41156 111.18C8.41156 110.487 8.17823 109.953 7.71156 109.58C7.2449 109.193 6.61156 109 5.81156 109C5.03823 109 4.37823 109.113 3.83156 109.34C3.2849 109.567 2.7449 109.853 2.21156 110.2L1.33156 109C1.83823 108.6 2.4649 108.253 3.21156 107.96C3.97156 107.667 4.83156 107.52 5.79156 107.52C7.2849 107.52 8.39156 107.853 9.11156 108.52C9.8449 109.187 10.2116 110.033 10.2116 111.06ZM18.4969 111.08C18.6969 111.08 18.9102 111.093 19.1369 111.12C19.3769 111.133 19.5835 111.16 19.7569 111.2L19.5369 112.82C19.3635 112.78 19.1702 112.747 18.9569 112.72C18.7569 112.693 18.5635 112.68 18.3769 112.68C17.8302 112.68 17.3169 112.833 16.8369 113.14C16.3569 113.433 15.9702 113.853 15.6769 114.4C15.3969 114.933 15.2569 115.56 15.2569 116.28L15.2569 122H13.4969L13.4969 111.28H14.9369L15.1369 113.24H15.2169C15.5635 112.653 16.0102 112.147 16.5569 111.72C17.1035 111.293 17.7502 111.08 18.4969 111.08ZM25.508 111.08C26.428 111.08 27.2146 111.28 27.868 111.68C28.5346 112.08 29.0413 112.647 29.388 113.38C29.748 114.1 29.928 114.947 29.928 115.92V116.98H22.588C22.6146 118.193 22.9213 119.12 23.508 119.76C24.108 120.387 24.9413 120.7 26.008 120.7C26.688 120.7 27.288 120.64 27.808 120.52C28.3413 120.387 28.888 120.2 29.448 119.96V121.5C28.9013 121.74 28.3613 121.913 27.828 122.02C27.2946 122.14 26.6613 122.2 25.928 122.2C24.9146 122.2 24.0146 121.993 23.228 121.58C22.4546 121.167 21.848 120.553 21.408 119.74C20.9813 118.913 20.768 117.907 20.768 116.72C20.768 115.547 20.9613 114.54 21.348 113.7C21.748 112.86 22.3013 112.213 23.008 111.76C23.728 111.307 24.5613 111.08 25.508 111.08ZM25.488 112.52C24.648 112.52 23.9813 112.793 23.488 113.34C23.008 113.873 22.7213 114.62 22.628 115.58H28.088C28.0746 114.673 27.8613 113.94 27.448 113.38C27.0346 112.807 26.3813 112.52 25.488 112.52ZM44.417 111.08C45.6304 111.08 46.537 111.393 47.137 112.02C47.737 112.633 48.037 113.633 48.037 115.02V122H46.297V115.1C46.297 113.407 45.5704 112.56 44.117 112.56C43.077 112.56 42.3304 112.86 41.877 113.46C41.437 114.06 41.217 114.933 41.217 116.08V122H39.477V115.1C39.477 113.407 38.7437 112.56 37.277 112.56C36.197 112.56 35.4504 112.893 35.037 113.56C34.6237 114.227 34.417 115.187 34.417 116.44V122H32.657V111.28H34.077L34.337 112.74H34.437C34.7704 112.18 35.217 111.767 35.777 111.5C36.3504 111.22 36.957 111.08 37.597 111.08C39.277 111.08 40.3704 111.68 40.877 112.88H40.977C41.337 112.267 41.8237 111.813 42.437 111.52C43.0637 111.227 43.7237 111.08 44.417 111.08Z" fill="black"/>
<path d="M80.5234 115.059L74.8984 120.684C74.6875 120.895 74.4062 121 74.125 121C73.8086 121 73.5273 120.895 73.3164 120.684C72.8594 120.262 72.8594 119.523 73.3164 119.102L77.0078 115.375H66.25C65.6172 115.375 65.125 114.883 65.125 114.25C65.125 113.652 65.6172 113.125 66.25 113.125H77.0078L73.3164 109.434C72.8594 109.012 72.8594 108.273 73.3164 107.852C73.7383 107.395 74.4766 107.395 74.8984 107.852L80.5234 113.477C80.9805 113.898 80.9805 114.637 80.5234 115.059Z" fill="black"/>
<path d="M97.0871 117.42V115.86H101.927V117.42H97.0871ZM103.532 117.42V115.86H108.372V117.42H103.532ZM114.678 111.08C115.384 111.08 116.018 111.213 116.578 111.48C117.151 111.747 117.638 112.153 118.038 112.7H118.138L118.378 111.28H119.778V122.18C119.778 123.713 119.384 124.867 118.598 125.64C117.824 126.413 116.618 126.8 114.978 126.8C113.404 126.8 112.118 126.573 111.118 126.12V124.5C112.171 125.06 113.491 125.34 115.078 125.34C115.998 125.34 116.718 125.067 117.238 124.52C117.771 123.987 118.038 123.253 118.038 122.32V121.9C118.038 121.74 118.044 121.513 118.058 121.22C118.071 120.913 118.084 120.7 118.098 120.58H118.018C117.298 121.66 116.191 122.2 114.698 122.2C113.311 122.2 112.224 121.713 111.438 120.74C110.664 119.767 110.278 118.407 110.278 116.66C110.278 114.953 110.664 113.6 111.438 112.6C112.224 111.587 113.304 111.08 114.678 111.08ZM114.918 112.56C114.024 112.56 113.331 112.92 112.838 113.64C112.344 114.347 112.098 115.36 112.098 116.68C112.098 118 112.338 119.013 112.818 119.72C113.311 120.413 114.024 120.76 114.958 120.76C116.038 120.76 116.824 120.473 117.318 119.9C117.811 119.313 118.058 118.373 118.058 117.08V116.66C118.058 115.193 117.804 114.147 117.298 113.52C116.791 112.88 115.998 112.56 114.918 112.56ZM127.482 122.2C126.536 122.2 125.689 122.007 124.942 121.62C124.209 121.233 123.629 120.633 123.202 119.82C122.789 119.007 122.582 117.967 122.582 116.7C122.582 115.38 122.802 114.307 123.242 113.48C123.682 112.653 124.276 112.047 125.022 111.66C125.782 111.273 126.642 111.08 127.602 111.08C128.149 111.08 128.676 111.14 129.182 111.26C129.689 111.367 130.102 111.5 130.422 111.66L129.882 113.12C129.562 113 129.189 112.887 128.762 112.78C128.336 112.673 127.936 112.62 127.562 112.62C125.456 112.62 124.402 113.973 124.402 116.68C124.402 117.973 124.656 118.967 125.162 119.66C125.682 120.34 126.449 120.68 127.462 120.68C128.049 120.68 128.562 120.62 129.002 120.5C129.456 120.38 129.869 120.233 130.242 120.06V121.62C129.882 121.807 129.482 121.947 129.042 122.04C128.616 122.147 128.096 122.2 127.482 122.2ZM136.592 122.2C135.258 122.2 134.192 121.74 133.392 120.82C132.592 119.887 132.192 118.5 132.192 116.66C132.192 114.82 132.592 113.433 133.392 112.5C134.205 111.553 135.278 111.08 136.612 111.08C137.438 111.08 138.112 111.233 138.632 111.54C139.165 111.847 139.598 112.22 139.932 112.66H140.052C140.038 112.487 140.012 112.233 139.972 111.9C139.945 111.553 139.932 111.28 139.932 111.08V106.8H141.692V122H140.272L140.012 120.56H139.932C139.612 121.013 139.185 121.4 138.652 121.72C138.118 122.04 137.432 122.2 136.592 122.2ZM136.872 120.74C138.005 120.74 138.798 120.433 139.252 119.82C139.718 119.193 139.952 118.253 139.952 117V116.68C139.952 115.347 139.732 114.327 139.292 113.62C138.852 112.9 138.038 112.54 136.852 112.54C135.905 112.54 135.192 112.92 134.712 113.68C134.245 114.427 134.012 115.433 134.012 116.7C134.012 117.98 134.245 118.973 134.712 119.68C135.192 120.387 135.912 120.74 136.872 120.74ZM152.076 119.04C152.076 120.08 151.69 120.867 150.916 121.4C150.143 121.933 149.103 122.2 147.796 122.2C147.05 122.2 146.403 122.14 145.856 122.02C145.323 121.9 144.85 121.733 144.436 121.52V119.92C144.863 120.133 145.376 120.333 145.976 120.52C146.59 120.693 147.21 120.78 147.836 120.78C148.73 120.78 149.376 120.64 149.776 120.36C150.176 120.067 150.376 119.68 150.376 119.2C150.376 118.933 150.303 118.693 150.156 118.48C150.01 118.267 149.743 118.053 149.356 117.84C148.983 117.627 148.443 117.387 147.736 117.12C147.043 116.853 146.45 116.587 145.956 116.32C145.463 116.053 145.083 115.733 144.816 115.36C144.55 114.987 144.416 114.507 144.416 113.92C144.416 113.013 144.783 112.313 145.516 111.82C146.263 111.327 147.236 111.08 148.436 111.08C149.09 111.08 149.696 111.147 150.256 111.28C150.83 111.4 151.363 111.573 151.856 111.8L151.256 113.2C150.803 113.013 150.33 112.853 149.836 112.72C149.343 112.587 148.836 112.52 148.316 112.52C147.596 112.52 147.043 112.64 146.656 112.88C146.283 113.107 146.096 113.42 146.096 113.82C146.096 114.113 146.183 114.367 146.356 114.58C146.53 114.78 146.816 114.98 147.216 115.18C147.63 115.367 148.176 115.593 148.856 115.86C149.536 116.113 150.116 116.373 150.596 116.64C151.076 116.907 151.443 117.233 151.696 117.62C151.95 117.993 152.076 118.467 152.076 119.04ZM153.767 117.42V115.86H158.607V117.42H153.767ZM168.092 119.04C168.092 120.08 167.705 120.867 166.932 121.4C166.159 121.933 165.119 122.2 163.812 122.2C163.065 122.2 162.419 122.14 161.872 122.02C161.339 121.9 160.865 121.733 160.452 121.52V119.92C160.879 120.133 161.392 120.333 161.992 120.52C162.605 120.693 163.225 120.78 163.852 120.78C164.745 120.78 165.392 120.64 165.792 120.36C166.192 120.067 166.392 119.68 166.392 119.2C166.392 118.933 166.319 118.693 166.172 118.48C166.025 118.267 165.759 118.053 165.372 117.84C164.999 117.627 164.459 117.387 163.752 117.12C163.059 116.853 162.465 116.587 161.972 116.32C161.479 116.053 161.099 115.733 160.832 115.36C160.565 114.987 160.432 114.507 160.432 113.92C160.432 113.013 160.799 112.313 161.532 111.82C162.279 111.327 163.252 111.08 164.452 111.08C165.105 111.08 165.712 111.147 166.272 111.28C166.845 111.4 167.379 111.573 167.872 111.8L167.272 113.2C166.819 113.013 166.345 112.853 165.852 112.72C165.359 112.587 164.852 112.52 164.332 112.52C163.612 112.52 163.059 112.64 162.672 112.88C162.299 113.107 162.112 113.42 162.112 113.82C162.112 114.113 162.199 114.367 162.372 114.58C162.545 114.78 162.832 114.98 163.232 115.18C163.645 115.367 164.192 115.593 164.872 115.86C165.552 116.113 166.132 116.373 166.612 116.64C167.092 116.907 167.459 117.233 167.712 117.62C167.965 117.993 168.092 118.467 168.092 119.04ZM175.782 111.08C177.102 111.08 178.162 111.54 178.962 112.46C179.776 113.38 180.182 114.767 180.182 116.62C180.182 118.447 179.776 119.833 178.962 120.78C178.162 121.727 177.096 122.2 175.762 122.2C174.936 122.2 174.249 122.047 173.702 121.74C173.169 121.42 172.749 121.053 172.442 120.64H172.322C172.349 120.867 172.376 121.153 172.402 121.5C172.429 121.847 172.442 122.147 172.442 122.4V126.8H170.682V111.28H172.122L172.362 112.74H172.442C172.762 112.273 173.182 111.88 173.702 111.56C174.222 111.24 174.916 111.08 175.782 111.08ZM175.462 112.56C174.369 112.56 173.596 112.867 173.142 113.48C172.702 114.093 172.469 115.027 172.442 116.28V116.62C172.442 117.94 172.656 118.96 173.082 119.68C173.522 120.387 174.329 120.74 175.502 120.74C176.156 120.74 176.689 120.56 177.102 120.2C177.529 119.84 177.842 119.353 178.042 118.74C178.256 118.113 178.362 117.4 178.362 116.6C178.362 115.373 178.122 114.393 177.642 113.66C177.176 112.927 176.449 112.56 175.462 112.56ZM187.047 111.1C188.354 111.1 189.32 111.387 189.947 111.96C190.574 112.533 190.887 113.447 190.887 114.7V122H189.607L189.267 120.48H189.187C188.72 121.067 188.227 121.5 187.707 121.78C187.2 122.06 186.494 122.2 185.587 122.2C184.614 122.2 183.807 121.947 183.167 121.44C182.527 120.92 182.207 120.113 182.207 119.02C182.207 117.953 182.627 117.133 183.467 116.56C184.307 115.973 185.6 115.653 187.347 115.6L189.167 115.54V114.9C189.167 114.007 188.974 113.387 188.587 113.04C188.2 112.693 187.654 112.52 186.947 112.52C186.387 112.52 185.854 112.607 185.347 112.78C184.84 112.94 184.367 113.127 183.927 113.34L183.387 112.02C183.854 111.767 184.407 111.553 185.047 111.38C185.687 111.193 186.354 111.1 187.047 111.1ZM187.567 116.82C186.234 116.873 185.307 117.087 184.787 117.46C184.28 117.833 184.027 118.36 184.027 119.04C184.027 119.64 184.207 120.08 184.567 120.36C184.94 120.64 185.414 120.78 185.987 120.78C186.894 120.78 187.647 120.533 188.247 120.04C188.847 119.533 189.147 118.76 189.147 117.72V116.76L187.567 116.82ZM198.498 122.2C197.551 122.2 196.705 122.007 195.958 121.62C195.225 121.233 194.645 120.633 194.218 119.82C193.805 119.007 193.598 117.967 193.598 116.7C193.598 115.38 193.818 114.307 194.258 113.48C194.698 112.653 195.291 112.047 196.038 111.66C196.798 111.273 197.658 111.08 198.618 111.08C199.165 111.08 199.691 111.14 200.198 111.26C200.705 111.367 201.118 111.5 201.438 111.66L200.898 113.12C200.578 113 200.205 112.887 199.778 112.78C199.351 112.673 198.951 112.62 198.578 112.62C196.471 112.62 195.418 113.973 195.418 116.68C195.418 117.973 195.671 118.967 196.178 119.66C196.698 120.34 197.465 120.68 198.478 120.68C199.065 120.68 199.578 120.62 200.018 120.5C200.471 120.38 200.885 120.233 201.258 120.06V121.62C200.898 121.807 200.498 121.947 200.058 122.04C199.631 122.147 199.111 122.2 198.498 122.2ZM204.707 107.26C204.974 107.26 205.207 107.353 205.407 107.54C205.621 107.713 205.727 107.993 205.727 108.38C205.727 108.753 205.621 109.033 205.407 109.22C205.207 109.407 204.974 109.5 204.707 109.5C204.414 109.5 204.167 109.407 203.967 109.22C203.767 109.033 203.667 108.753 203.667 108.38C203.667 107.993 203.767 107.713 203.967 107.54C204.167 107.353 204.414 107.26 204.707 107.26ZM205.567 111.28V122H203.807V111.28H205.567ZM214.124 111.08C215.404 111.08 216.37 111.393 217.024 112.02C217.677 112.633 218.004 113.633 218.004 115.02V122L216.264 122V115.14C216.264 113.42 215.464 112.56 213.864 112.56C212.677 112.56 211.857 112.893 211.404 113.56C210.95 114.227 210.724 115.187 210.724 116.44V122H208.964V111.28H210.384L210.644 112.74H210.744C211.09 112.18 211.57 111.767 212.184 111.5C212.797 111.22 213.444 111.08 214.124 111.08ZM225.127 111.08C225.834 111.08 226.467 111.213 227.027 111.48C227.6 111.747 228.087 112.153 228.487 112.7H228.587L228.827 111.28H230.227V122.18C230.227 123.713 229.834 124.867 229.047 125.64C228.274 126.413 227.067 126.8 225.427 126.8C223.854 126.8 222.567 126.573 221.567 126.12V124.5C222.62 125.06 223.94 125.34 225.527 125.34C226.447 125.34 227.167 125.067 227.687 124.52C228.22 123.987 228.487 123.253 228.487 122.32V121.9C228.487 121.74 228.494 121.513 228.507 121.22C228.52 120.913 228.534 120.7 228.547 120.58H228.467C227.747 121.66 226.64 122.2 225.147 122.2C223.76 122.2 222.674 121.713 221.887 120.74C221.114 119.767 220.727 118.407 220.727 116.66C220.727 114.953 221.114 113.6 221.887 112.6C222.674 111.587 223.754 111.08 225.127 111.08ZM225.367 112.56C224.474 112.56 223.78 112.92 223.287 113.64C222.794 114.347 222.547 115.36 222.547 116.68C222.547 118 222.787 119.013 223.267 119.72C223.76 120.413 224.474 120.76 225.407 120.76C226.487 120.76 227.274 120.473 227.767 119.9C228.26 119.313 228.507 118.373 228.507 117.08V116.66C228.507 115.193 228.254 114.147 227.747 113.52C227.24 112.88 226.447 112.56 225.367 112.56ZM232.732 117.42V115.86H237.572V117.42H232.732ZM243.877 113.24C245.344 113.24 246.51 113.607 247.377 114.34C248.244 115.073 248.677 116.107 248.677 117.44C248.677 118.92 248.204 120.087 247.257 120.94C246.324 121.78 245.017 122.2 243.337 122.2C242.604 122.2 241.91 122.133 241.257 122C240.617 121.867 240.077 121.673 239.637 121.42V119.76C240.117 120.053 240.697 120.287 241.377 120.46C242.07 120.62 242.73 120.7 243.357 120.7C244.41 120.7 245.257 120.453 245.897 119.96C246.55 119.453 246.877 118.673 246.877 117.62C246.877 116.687 246.59 115.973 246.017 115.48C245.444 114.973 244.537 114.72 243.297 114.72C242.924 114.72 242.497 114.753 242.017 114.82C241.537 114.887 241.15 114.953 240.857 115.02L239.977 114.46L240.517 107.72H247.677V109.32H242.017L241.677 113.46C241.904 113.42 242.21 113.373 242.597 113.32C242.984 113.267 243.41 113.24 243.877 113.24ZM260.282 114.84C260.282 116.373 260.122 117.693 259.802 118.8C259.482 119.893 258.976 120.733 258.282 121.32C257.589 121.907 256.669 122.2 255.522 122.2C253.909 122.2 252.716 121.553 251.942 120.26C251.182 118.953 250.802 117.147 250.802 114.84C250.802 113.293 250.956 111.973 251.262 110.88C251.582 109.787 252.089 108.953 252.782 108.38C253.476 107.793 254.389 107.5 255.522 107.5C257.122 107.5 258.316 108.147 259.102 109.44C259.889 110.72 260.282 112.52 260.282 114.84ZM252.562 114.84C252.562 116.8 252.782 118.267 253.222 119.24C253.676 120.213 254.442 120.7 255.522 120.7C256.589 120.7 257.349 120.22 257.802 119.26C258.269 118.287 258.502 116.813 258.502 114.84C258.502 112.893 258.269 111.433 257.802 110.46C257.349 109.487 256.589 109 255.522 109C254.442 109 253.676 109.487 253.222 110.46C252.782 111.433 252.562 112.893 252.562 114.84ZM271.728 114.84C271.728 116.373 271.568 117.693 271.248 118.8C270.928 119.893 270.421 120.733 269.728 121.32C269.034 121.907 268.114 122.2 266.968 122.2C265.354 122.2 264.161 121.553 263.388 120.26C262.628 118.953 262.248 117.147 262.248 114.84C262.248 113.293 262.401 111.973 262.708 110.88C263.028 109.787 263.534 108.953 264.228 108.38C264.921 107.793 265.834 107.5 266.968 107.5C268.568 107.5 269.761 108.147 270.548 109.44C271.334 110.72 271.728 112.52 271.728 114.84ZM264.008 114.84C264.008 116.8 264.228 118.267 264.668 119.24C265.121 120.213 265.888 120.7 266.968 120.7C268.034 120.7 268.794 120.22 269.248 119.26C269.714 118.287 269.948 116.813 269.948 114.84C269.948 112.893 269.714 111.433 269.248 110.46C268.794 109.487 268.034 109 266.968 109C265.888 109 265.121 109.487 264.668 110.46C264.228 111.433 264.008 112.893 264.008 114.84Z" fill="black"/>
<path d="M9.79922 197.28L9.17922 200.48H11.9192V201.82H8.91922L8.09922 206H6.67922L7.49922 201.82H4.63922L3.85922 206H2.45922L3.21922 201.82H0.699219L0.699219 200.48H3.47922L4.11922 197.28H1.43922L1.43922 195.96H4.35922L5.15922 191.72H6.59922L5.79922 195.96H8.67922L9.47922 191.72H10.8592L10.0592 195.96H12.5992V197.28H9.79922ZM4.89922 200.48H7.75922L8.37922 197.28H5.51922L4.89922 200.48ZM23.5889 198.84C23.5889 200.373 23.4289 201.693 23.1089 202.8C22.7889 203.893 22.2822 204.733 21.5889 205.32C20.8956 205.907 19.9756 206.2 18.8289 206.2C17.2156 206.2 16.0222 205.553 15.2489 204.26C14.4889 202.953 14.1089 201.147 14.1089 198.84C14.1089 197.293 14.2622 195.973 14.5689 194.88C14.8889 193.787 15.3956 192.953 16.0889 192.38C16.7822 191.793 17.6956 191.5 18.8289 191.5C20.4289 191.5 21.6222 192.147 22.4089 193.44C23.1956 194.72 23.5889 196.52 23.5889 198.84ZM15.8689 198.84C15.8689 200.8 16.0889 202.267 16.5289 203.24C16.9822 204.213 17.7489 204.7 18.8289 204.7C19.8956 204.7 20.6556 204.22 21.1089 203.26C21.5756 202.287 21.8089 200.813 21.8089 198.84C21.8089 196.893 21.5756 195.433 21.1089 194.46C20.6556 193.487 19.8956 193 18.8289 193C17.7489 193 16.9822 193.487 16.5289 194.46C16.0889 195.433 15.8689 196.893 15.8689 198.84ZM35.0342 198.84C35.0342 200.373 34.8742 201.693 34.5542 202.8C34.2342 203.893 33.7276 204.733 33.0342 205.32C32.3409 205.907 31.4209 206.2 30.2742 206.2C28.6609 206.2 27.4676 205.553 26.6942 204.26C25.9342 202.953 25.5542 201.147 25.5542 198.84C25.5542 197.293 25.7076 195.973 26.0142 194.88C26.3342 193.787 26.8409 192.953 27.5342 192.38C28.2276 191.793 29.1409 191.5 30.2742 191.5C31.8742 191.5 33.0676 192.147 33.8542 193.44C34.6409 194.72 35.0342 196.52 35.0342 198.84ZM27.3142 198.84C27.3142 200.8 27.5342 202.267 27.9742 203.24C28.4276 204.213 29.1942 204.7 30.2742 204.7C31.3409 204.7 32.1009 204.22 32.5542 203.26C33.0209 202.287 33.2542 200.813 33.2542 198.84C33.2542 196.893 33.0209 195.433 32.5542 194.46C32.1009 193.487 31.3409 193 30.2742 193C29.1942 193 28.4276 193.487 27.9742 194.46C27.5342 195.433 27.3142 196.893 27.3142 198.84ZM46.4795 198.84C46.4795 200.373 46.3195 201.693 45.9995 202.8C45.6795 203.893 45.1729 204.733 44.4795 205.32C43.7862 205.907 42.8662 206.2 41.7195 206.2C40.1062 206.2 38.9129 205.553 38.1395 204.26C37.3795 202.953 36.9995 201.147 36.9995 198.84C36.9995 197.293 37.1529 195.973 37.4595 194.88C37.7795 193.787 38.2862 192.953 38.9795 192.38C39.6729 191.793 40.5862 191.5 41.7195 191.5C43.3195 191.5 44.5129 192.147 45.2995 193.44C46.0862 194.72 46.4795 196.52 46.4795 198.84ZM38.7595 198.84C38.7595 200.8 38.9795 202.267 39.4195 203.24C39.8729 204.213 40.6395 204.7 41.7195 204.7C42.7862 204.7 43.5462 204.22 43.9995 203.26C44.4662 202.287 44.6995 200.813 44.6995 198.84C44.6995 196.893 44.4662 195.433 43.9995 194.46C43.5462 193.487 42.7862 193 41.7195 193C40.6395 193 39.8729 193.487 39.4195 194.46C38.9795 195.433 38.7595 196.893 38.7595 198.84ZM57.9248 198.84C57.9248 200.373 57.7648 201.693 57.4448 202.8C57.1248 203.893 56.6182 204.733 55.9248 205.32C55.2315 205.907 54.3115 206.2 53.1648 206.2C51.5515 206.2 50.3582 205.553 49.5848 204.26C48.8248 202.953 48.4448 201.147 48.4448 198.84C48.4448 197.293 48.5982 195.973 48.9048 194.88C49.2248 193.787 49.7315 192.953 50.4248 192.38C51.1182 191.793 52.0315 191.5 53.1648 191.5C54.7648 191.5 55.9582 192.147 56.7448 193.44C57.5315 194.72 57.9248 196.52 57.9248 198.84ZM50.2048 198.84C50.2048 200.8 50.4248 202.267 50.8648 203.24C51.3182 204.213 52.0848 204.7 53.1648 204.7C54.2315 204.7 54.9915 204.22 55.4448 203.26C55.9115 202.287 56.1448 200.813 56.1448 198.84C56.1448 196.893 55.9115 195.433 55.4448 194.46C54.9915 193.487 54.2315 193 53.1648 193C52.0848 193 51.3182 193.487 50.8648 194.46C50.4248 195.433 50.2048 196.893 50.2048 198.84ZM69.3702 198.84C69.3702 200.373 69.2102 201.693 68.8902 202.8C68.5702 203.893 68.0635 204.733 67.3702 205.32C66.6768 205.907 65.7568 206.2 64.6102 206.2C62.9968 206.2 61.8035 205.553 61.0302 204.26C60.2702 202.953 59.8902 201.147 59.8902 198.84C59.8902 197.293 60.0435 195.973 60.3502 194.88C60.6702 193.787 61.1768 192.953 61.8702 192.38C62.5635 191.793 63.4768 191.5 64.6102 191.5C66.2102 191.5 67.4035 192.147 68.1902 193.44C68.9768 194.72 69.3702 196.52 69.3702 198.84ZM61.6502 198.84C61.6502 200.8 61.8702 202.267 62.3102 203.24C62.7635 204.213 63.5302 204.7 64.6102 204.7C65.6768 204.7 66.4368 204.22 66.8902 203.26C67.3568 202.287 67.5902 200.813 67.5902 198.84C67.5902 196.893 67.3568 195.433 66.8902 194.46C66.4368 193.487 65.6768 193 64.6102 193C63.5302 193 62.7635 193.487 62.3102 194.46C61.8702 195.433 61.6502 196.893 61.6502 198.84ZM80.8155 198.84C80.8155 200.373 80.6555 201.693 80.3355 202.8C80.0155 203.893 79.5088 204.733 78.8155 205.32C78.1221 205.907 77.2021 206.2 76.0555 206.2C74.4421 206.2 73.2488 205.553 72.4755 204.26C71.7155 202.953 71.3355 201.147 71.3355 198.84C71.3355 197.293 71.4888 195.973 71.7955 194.88C72.1155 193.787 72.6221 192.953 73.3155 192.38C74.0088 191.793 74.9221 191.5 76.0555 191.5C77.6555 191.5 78.8488 192.147 79.6355 193.44C80.4221 194.72 80.8155 196.52 80.8155 198.84ZM73.0955 198.84C73.0955 200.8 73.3155 202.267 73.7555 203.24C74.2088 204.213 74.9755 204.7 76.0555 204.7C77.1221 204.7 77.8821 204.22 78.3355 203.26C78.8021 202.287 79.0355 200.813 79.0355 198.84C79.0355 196.893 78.8021 195.433 78.3355 194.46C77.8821 193.487 77.1221 193 76.0555 193C74.9755 193 74.2088 193.487 73.7555 194.46C73.3155 195.433 73.0955 196.893 73.0955 198.84Z" fill="black"/>
<path d="M112.523 199.059L106.898 204.684C106.688 204.895 106.406 205 106.125 205C105.809 205 105.527 204.895 105.316 204.684C104.859 204.262 104.859 203.523 105.316 203.102L109.008 199.375H98.25C97.6172 199.375 97.125 198.883 97.125 198.25C97.125 197.652 97.6172 197.125 98.25 197.125H109.008L105.316 193.434C104.859 193.012 104.859 192.273 105.316 191.852C105.738 191.395 106.477 191.395 106.898 191.852L112.523 197.477C112.98 197.898 112.98 198.637 112.523 199.059Z" fill="black"/>
<path d="M129.005 201.42V199.86H133.845V201.42H129.005ZM135.45 201.42V199.86H140.29V201.42H135.45ZM146.596 195.08C147.302 195.08 147.936 195.213 148.496 195.48C149.069 195.747 149.556 196.153 149.956 196.7H150.056L150.296 195.28H151.696V206.18C151.696 207.713 151.302 208.867 150.516 209.64C149.742 210.413 148.536 210.8 146.896 210.8C145.322 210.8 144.036 210.573 143.036 210.12V208.5C144.089 209.06 145.409 209.34 146.996 209.34C147.916 209.34 148.636 209.067 149.156 208.52C149.689 207.987 149.956 207.253 149.956 206.32V205.9C149.956 205.74 149.962 205.513 149.976 205.22C149.989 204.913 150.002 204.7 150.016 204.58H149.936C149.216 205.66 148.109 206.2 146.616 206.2C145.229 206.2 144.142 205.713 143.356 204.74C142.582 203.767 142.196 202.407 142.196 200.66C142.196 198.953 142.582 197.6 143.356 196.6C144.142 195.587 145.222 195.08 146.596 195.08ZM146.836 196.56C145.942 196.56 145.249 196.92 144.756 197.64C144.262 198.347 144.016 199.36 144.016 200.68C144.016 202 144.256 203.013 144.736 203.72C145.229 204.413 145.942 204.76 146.876 204.76C147.956 204.76 148.742 204.473 149.236 203.9C149.729 203.313 149.976 202.373 149.976 201.08V200.66C149.976 199.193 149.722 198.147 149.216 197.52C148.709 196.88 147.916 196.56 146.836 196.56ZM159.4 206.2C158.454 206.2 157.607 206.007 156.86 205.62C156.127 205.233 155.547 204.633 155.12 203.82C154.707 203.007 154.5 201.967 154.5 200.7C154.5 199.38 154.72 198.307 155.16 197.48C155.6 196.653 156.194 196.047 156.94 195.66C157.7 195.273 158.56 195.08 159.52 195.08C160.067 195.08 160.594 195.14 161.1 195.26C161.607 195.367 162.02 195.5 162.34 195.66L161.8 197.12C161.48 197 161.107 196.887 160.68 196.78C160.254 196.673 159.854 196.62 159.48 196.62C157.374 196.62 156.32 197.973 156.32 200.68C156.32 201.973 156.574 202.967 157.08 203.66C157.6 204.34 158.367 204.68 159.38 204.68C159.967 204.68 160.48 204.62 160.92 204.5C161.374 204.38 161.787 204.233 162.16 204.06V205.62C161.8 205.807 161.4 205.947 160.96 206.04C160.534 206.147 160.014 206.2 159.4 206.2ZM168.51 206.2C167.176 206.2 166.11 205.74 165.31 204.82C164.51 203.887 164.11 202.5 164.11 200.66C164.11 198.82 164.51 197.433 165.31 196.5C166.123 195.553 167.196 195.08 168.53 195.08C169.356 195.08 170.03 195.233 170.55 195.54C171.083 195.847 171.516 196.22 171.85 196.66H171.97C171.956 196.487 171.93 196.233 171.89 195.9C171.863 195.553 171.85 195.28 171.85 195.08V190.8H173.61V206H172.19L171.93 204.56H171.85C171.53 205.013 171.103 205.4 170.57 205.72C170.036 206.04 169.35 206.2 168.51 206.2ZM168.79 204.74C169.923 204.74 170.716 204.433 171.17 203.82C171.636 203.193 171.87 202.253 171.87 201V200.68C171.87 199.347 171.65 198.327 171.21 197.62C170.77 196.9 169.956 196.54 168.77 196.54C167.823 196.54 167.11 196.92 166.63 197.68C166.163 198.427 165.93 199.433 165.93 200.7C165.93 201.98 166.163 202.973 166.63 203.68C167.11 204.387 167.83 204.74 168.79 204.74ZM183.994 203.04C183.994 204.08 183.608 204.867 182.834 205.4C182.061 205.933 181.021 206.2 179.714 206.2C178.968 206.2 178.321 206.14 177.774 206.02C177.241 205.9 176.768 205.733 176.354 205.52V203.92C176.781 204.133 177.294 204.333 177.894 204.52C178.508 204.693 179.128 204.78 179.754 204.78C180.648 204.78 181.294 204.64 181.694 204.36C182.094 204.067 182.294 203.68 182.294 203.2C182.294 202.933 182.221 202.693 182.074 202.48C181.928 202.267 181.661 202.053 181.274 201.84C180.901 201.627 180.361 201.387 179.654 201.12C178.961 200.853 178.368 200.587 177.874 200.32C177.381 200.053 177.001 199.733 176.734 199.36C176.468 198.987 176.334 198.507 176.334 197.92C176.334 197.013 176.701 196.313 177.434 195.82C178.181 195.327 179.154 195.08 180.354 195.08C181.008 195.08 181.614 195.147 182.174 195.28C182.748 195.4 183.281 195.573 183.774 195.8L183.174 197.2C182.721 197.013 182.248 196.853 181.754 196.72C181.261 196.587 180.754 196.52 180.234 196.52C179.514 196.52 178.961 196.64 178.574 196.88C178.201 197.107 178.014 197.42 178.014 197.82C178.014 198.113 178.101 198.367 178.274 198.58C178.448 198.78 178.734 198.98 179.134 199.18C179.548 199.367 180.094 199.593 180.774 199.86C181.454 200.113 182.034 200.373 182.514 200.64C182.994 200.907 183.361 201.233 183.614 201.62C183.868 201.993 183.994 202.467 183.994 203.04ZM185.685 201.42V199.86H190.525V201.42H185.685ZM196.61 204.76C196.877 204.76 197.15 204.74 197.43 204.7C197.71 204.647 197.937 204.593 198.11 204.54V205.88C197.923 205.973 197.657 206.047 197.31 206.1C196.963 206.167 196.63 206.2 196.31 206.2C195.75 206.2 195.23 206.107 194.75 205.92C194.283 205.72 193.903 205.38 193.61 204.9C193.317 204.42 193.17 203.747 193.17 202.88V196.64H191.65V195.8L193.19 195.1L193.89 192.82H194.93V195.28H198.03V196.64H194.93V202.84C194.93 203.493 195.083 203.98 195.39 204.3C195.71 204.607 196.117 204.76 196.61 204.76ZM204.397 195.08C205.317 195.08 206.103 195.28 206.757 195.68C207.423 196.08 207.93 196.647 208.277 197.38C208.637 198.1 208.817 198.947 208.817 199.92V200.98H201.477C201.503 202.193 201.81 203.12 202.397 203.76C202.997 204.387 203.83 204.7 204.897 204.7C205.577 204.7 206.177 204.64 206.697 204.52C207.23 204.387 207.777 204.2 208.337 203.96V205.5C207.79 205.74 207.25 205.913 206.717 206.02C206.183 206.14 205.55 206.2 204.817 206.2C203.803 206.2 202.903 205.993 202.117 205.58C201.343 205.167 200.737 204.553 200.297 203.74C199.87 202.913 199.657 201.907 199.657 200.72C199.657 199.547 199.85 198.54 200.237 197.7C200.637 196.86 201.19 196.213 201.897 195.76C202.617 195.307 203.45 195.08 204.397 195.08ZM204.377 196.52C203.537 196.52 202.87 196.793 202.377 197.34C201.897 197.873 201.61 198.62 201.517 199.58H206.977C206.963 198.673 206.75 197.94 206.337 197.38C205.923 196.807 205.27 196.52 204.377 196.52ZM213.695 200.52L209.995 195.28H211.995L214.755 199.32L217.495 195.28H219.475L215.775 200.52L219.675 206H217.675L214.755 201.72L211.795 206H209.815L213.695 200.52ZM225.321 204.76C225.588 204.76 225.861 204.74 226.141 204.7C226.421 204.647 226.648 204.593 226.821 204.54V205.88C226.634 205.973 226.368 206.047 226.021 206.1C225.674 206.167 225.341 206.2 225.021 206.2C224.461 206.2 223.941 206.107 223.461 205.92C222.994 205.72 222.614 205.38 222.321 204.9C222.028 204.42 221.881 203.747 221.881 202.88V196.64H220.361V195.8L221.901 195.1L222.601 192.82H223.641V195.28H226.741V196.64H223.641V202.84C223.641 203.493 223.794 203.98 224.101 204.3C224.421 204.607 224.828 204.76 225.321 204.76ZM228.068 201.42V199.86H232.908V201.42H228.068ZM240.513 195.08C241.833 195.08 242.893 195.54 243.693 196.46C244.506 197.38 244.913 198.767 244.913 200.62C244.913 202.447 244.506 203.833 243.693 204.78C242.893 205.727 241.826 206.2 240.493 206.2C239.666 206.2 238.98 206.047 238.433 205.74C237.9 205.42 237.48 205.053 237.173 204.64H237.053C237.08 204.867 237.106 205.153 237.133 205.5C237.16 205.847 237.173 206.147 237.173 206.4V210.8H235.413V195.28H236.853L237.093 196.74H237.173C237.493 196.273 237.913 195.88 238.433 195.56C238.953 195.24 239.646 195.08 240.513 195.08ZM240.193 196.56C239.1 196.56 238.326 196.867 237.873 197.48C237.433 198.093 237.2 199.027 237.173 200.28V200.62C237.173 201.94 237.386 202.96 237.813 203.68C238.253 204.387 239.06 204.74 240.233 204.74C240.886 204.74 241.42 204.56 241.833 204.2C242.26 203.84 242.573 203.353 242.773 202.74C242.986 202.113 243.093 201.4 243.093 200.6C243.093 199.373 242.853 198.393 242.373 197.66C241.906 196.927 241.18 196.56 240.193 196.56ZM252.718 195.08C252.918 195.08 253.131 195.093 253.358 195.12C253.598 195.133 253.804 195.16 253.978 195.2L253.758 196.82C253.584 196.78 253.391 196.747 253.178 196.72C252.978 196.693 252.784 196.68 252.598 196.68C252.051 196.68 251.538 196.833 251.058 197.14C250.578 197.433 250.191 197.853 249.898 198.4C249.618 198.933 249.478 199.56 249.478 200.28V206H247.718V195.28H249.158L249.358 197.24H249.438C249.784 196.653 250.231 196.147 250.778 195.72C251.324 195.293 251.971 195.08 252.718 195.08ZM256.879 191.26C257.146 191.26 257.379 191.353 257.579 191.54C257.793 191.713 257.899 191.993 257.899 192.38C257.899 192.753 257.793 193.033 257.579 193.22C257.379 193.407 257.146 193.5 256.879 193.5C256.586 193.5 256.339 193.407 256.139 193.22C255.939 193.033 255.839 192.753 255.839 192.38C255.839 191.993 255.939 191.713 256.139 191.54C256.339 191.353 256.586 191.26 256.879 191.26ZM257.739 195.28V206H255.979V195.28H257.739ZM272.896 195.08C274.109 195.08 275.016 195.393 275.616 196.02C276.216 196.633 276.516 197.633 276.516 199.02V206H274.776V199.1C274.776 197.407 274.049 196.56 272.596 196.56C271.556 196.56 270.809 196.86 270.356 197.46C269.916 198.06 269.696 198.933 269.696 200.08V206H267.956V199.1C267.956 197.407 267.222 196.56 265.756 196.56C264.676 196.56 263.929 196.893 263.516 197.56C263.102 198.227 262.896 199.187 262.896 200.44V206H261.136V195.28H262.556L262.816 196.74H262.916C263.249 196.18 263.696 195.767 264.256 195.5C264.829 195.22 265.436 195.08 266.076 195.08C267.756 195.08 268.849 195.68 269.356 196.88H269.456C269.816 196.267 270.302 195.813 270.916 195.52C271.542 195.227 272.202 195.08 272.896 195.08ZM283.887 195.1C285.194 195.1 286.16 195.387 286.787 195.96C287.414 196.533 287.727 197.447 287.727 198.7V206H286.447L286.107 204.48H286.027C285.56 205.067 285.067 205.5 284.547 205.78C284.04 206.06 283.334 206.2 282.427 206.2C281.454 206.2 280.647 205.947 280.007 205.44C279.367 204.92 279.047 204.113 279.047 203.02C279.047 201.953 279.467 201.133 280.307 200.56C281.147 199.973 282.44 199.653 284.187 199.6L286.007 199.54V198.9C286.007 198.007 285.814 197.387 285.427 197.04C285.04 196.693 284.494 196.52 283.787 196.52C283.227 196.52 282.694 196.607 282.187 196.78C281.68 196.94 281.207 197.127 280.767 197.34L280.227 196.02C280.694 195.767 281.247 195.553 281.887 195.38C282.527 195.193 283.194 195.1 283.887 195.1ZM284.407 200.82C283.074 200.873 282.147 201.087 281.627 201.46C281.12 201.833 280.867 202.36 280.867 203.04C280.867 203.64 281.047 204.08 281.407 204.36C281.78 204.64 282.254 204.78 282.827 204.78C283.734 204.78 284.487 204.533 285.087 204.04C285.687 203.533 285.987 202.76 285.987 201.72V200.76L284.407 200.82ZM296.038 195.08C296.238 195.08 296.451 195.093 296.678 195.12C296.918 195.133 297.125 195.16 297.298 195.2L297.078 196.82C296.905 196.78 296.711 196.747 296.498 196.72C296.298 196.693 296.105 196.68 295.918 196.68C295.371 196.68 294.858 196.833 294.378 197.14C293.898 197.433 293.511 197.853 293.218 198.4C292.938 198.933 292.798 199.56 292.798 200.28V206H291.038V195.28H292.478L292.678 197.24H292.758C293.105 196.653 293.551 196.147 294.098 195.72C294.645 195.293 295.291 195.08 296.038 195.08ZM297.62 195.28H299.5L301.82 201.38C302.02 201.913 302.2 202.427 302.36 202.92C302.52 203.4 302.64 203.86 302.72 204.3H302.8C302.88 203.967 303.006 203.533 303.18 203C303.353 202.453 303.533 201.907 303.72 201.36L305.9 195.28H307.8L303.18 207.48C302.806 208.493 302.32 209.3 301.72 209.9C301.133 210.5 300.32 210.8 299.28 210.8C298.96 210.8 298.68 210.78 298.44 210.74C298.2 210.713 297.993 210.68 297.82 210.64V209.24C297.966 209.267 298.14 209.293 298.34 209.32C298.553 209.347 298.773 209.36 299 209.36C299.613 209.36 300.106 209.187 300.48 208.84C300.866 208.493 301.166 208.033 301.38 207.46L301.94 206.04L297.62 195.28Z" fill="black"/>
</svg>
