<svg width="430" height="282" viewBox="0 0 430 282" fill="none" xmlns="http://www.w3.org/2000/svg">
<rect width="24" height="24" fill="#26374A"/>
<path d="M39.6 11.28L38.98 14.48H41.72V15.82H38.72L37.9 20H36.48L37.3 15.82H34.44L33.66 20H32.26L33.02 15.82H30.5V14.48H33.28L33.92 11.28H31.24V9.96H34.16L34.96 5.72H36.4L35.6 9.96H38.48L39.28 5.72H40.66L39.86 9.96H42.4V11.28H39.6ZM34.7 14.48H37.56L38.18 11.28H35.32L34.7 14.48ZM53.3297 20H43.8897V18.54L47.6297 14.76C48.3497 14.04 48.9564 13.4 49.4497 12.84C49.943 12.28 50.3164 11.7333 50.5697 11.2C50.823 10.6533 50.9497 10.06 50.9497 9.42C50.9497 8.63333 50.7164 8.04 50.2497 7.64C49.783 7.22667 49.1764 7.02 48.4297 7.02C47.7364 7.02 47.123 7.14 46.5897 7.38C46.0697 7.62 45.5364 7.95333 44.9897 8.38L44.0497 7.2C44.6097 6.73333 45.2497 6.34 45.9697 6.02C46.703 5.68667 47.523 5.52 48.4297 5.52C49.763 5.52 50.8164 5.86 51.5897 6.54C52.363 7.20667 52.7497 8.13333 52.7497 9.32C52.7497 10.0667 52.5964 10.7667 52.2897 11.42C51.983 12.0733 51.5564 12.72 51.0097 13.36C50.463 13.9867 49.823 14.66 49.0897 15.38L46.1097 18.32V18.4H53.3297V20ZM55.475 13.9C55.475 12.8733 55.5617 11.8667 55.735 10.88C55.9217 9.88 56.2483 8.98 56.715 8.18C57.195 7.36667 57.8617 6.72 58.715 6.24C59.5683 5.76 60.6683 5.52 62.015 5.52C62.295 5.52 62.6017 5.53333 62.935 5.56C63.2817 5.58667 63.5617 5.63333 63.775 5.7V7.2C63.535 7.12 63.2617 7.06 62.955 7.02C62.6617 6.98 62.3617 6.96 62.055 6.96C61.135 6.96 60.3683 7.11333 59.755 7.42C59.1417 7.72667 58.655 8.14667 58.295 8.68C57.9483 9.21333 57.695 9.82667 57.535 10.52C57.375 11.2133 57.275 11.9533 57.235 12.74H57.355C57.6617 12.2733 58.0883 11.88 58.635 11.56C59.1817 11.2267 59.8817 11.06 60.735 11.06C61.975 11.06 62.975 11.44 63.735 12.2C64.495 12.9467 64.875 14.0133 64.875 15.4C64.875 16.8933 64.4617 18.0667 63.635 18.92C62.8217 19.7733 61.7217 20.2 60.335 20.2C59.4283 20.2 58.6083 19.9733 57.875 19.52C57.1417 19.0667 56.555 18.3733 56.115 17.44C55.6883 16.5067 55.475 15.3267 55.475 13.9ZM60.315 18.72C61.155 18.72 61.835 18.4533 62.355 17.92C62.875 17.3733 63.135 16.5333 63.135 15.4C63.135 14.4933 62.9017 13.7733 62.435 13.24C61.9817 12.7067 61.295 12.44 60.375 12.44C59.7483 12.44 59.2017 12.5733 58.735 12.84C58.2683 13.0933 57.9017 13.42 57.635 13.82C57.3817 14.22 57.255 14.6333 57.255 15.06C57.255 15.6333 57.3683 16.2067 57.595 16.78C57.8217 17.34 58.1617 17.8067 58.615 18.18C59.0683 18.54 59.635 18.72 60.315 18.72ZM75.6803 9.06C75.6803 10.02 75.4136 10.7867 74.8803 11.36C74.347 11.92 73.627 12.2933 72.7203 12.48V12.56C73.867 12.6933 74.7203 13.0533 75.2803 13.64C75.8403 14.2267 76.1203 14.9933 76.1203 15.94C76.1203 16.7667 75.927 17.5067 75.5403 18.16C75.1536 18.8 74.5536 19.3 73.7403 19.66C72.9403 20.02 71.907 20.2 70.6403 20.2C69.8936 20.2 69.2003 20.14 68.5603 20.02C67.9203 19.9133 67.307 19.7133 66.7203 19.42V17.78C67.3203 18.0733 67.967 18.3067 68.6603 18.48C69.3536 18.64 70.0203 18.72 70.6603 18.72C71.9403 18.72 72.8603 18.4733 73.4203 17.98C73.9936 17.4733 74.2803 16.78 74.2803 15.9C74.2803 15.0067 73.927 14.3667 73.2203 13.98C72.527 13.58 71.547 13.38 70.2803 13.38H68.9003V11.88H70.3003C71.4736 11.88 72.3603 11.6333 72.9603 11.14C73.5736 10.6467 73.8803 9.99333 73.8803 9.18C73.8803 8.48667 73.647 7.95333 73.1803 7.58C72.7136 7.19333 72.0803 7 71.2803 7C70.507 7 69.847 7.11333 69.3003 7.34C68.7536 7.56667 68.2136 7.85333 67.6803 8.2L66.8003 7C67.307 6.6 67.9336 6.25333 68.6803 5.96C69.4403 5.66667 70.3003 5.52 71.2603 5.52C72.7536 5.52 73.8603 5.85333 74.5803 6.52C75.3136 7.18667 75.6803 8.03333 75.6803 9.06ZM79.9856 20L85.8456 7.32H78.1456V5.72H87.7256V7.08L81.9256 20H79.9856ZM99.7509 16.76H97.6709V20H95.9709V16.76H89.1309V15.26L95.8509 5.64H97.6709V15.18H99.7509V16.76ZM95.9709 10.68C95.9709 9.98667 95.9843 9.4 96.0109 8.92C96.0376 8.42667 96.0576 7.96 96.0709 7.52H95.9909C95.8843 7.77333 95.7509 8.04667 95.5909 8.34C95.4309 8.63333 95.2776 8.88 95.1309 9.08L90.8509 15.18H95.9709V10.68ZM105.916 9.1C107.223 9.1 108.19 9.38667 108.816 9.96C109.443 10.5333 109.756 11.4467 109.756 12.7V20H108.476L108.136 18.48H108.056C107.59 19.0667 107.096 19.5 106.576 19.78C106.07 20.06 105.363 20.2 104.456 20.2C103.483 20.2 102.676 19.9467 102.036 19.44C101.396 18.92 101.076 18.1133 101.076 17.02C101.076 15.9533 101.496 15.1333 102.336 14.56C103.176 13.9733 104.47 13.6533 106.216 13.6L108.036 13.54V12.9C108.036 12.0067 107.843 11.3867 107.456 11.04C107.07 10.6933 106.523 10.52 105.816 10.52C105.256 10.52 104.723 10.6067 104.216 10.78C103.71 10.94 103.236 11.1267 102.796 11.34L102.256 10.02C102.723 9.76667 103.276 9.55333 103.916 9.38C104.556 9.19333 105.223 9.1 105.916 9.1ZM106.436 14.82C105.103 14.8733 104.176 15.0867 103.656 15.46C103.15 15.8333 102.896 16.36 102.896 17.04C102.896 17.64 103.076 18.08 103.436 18.36C103.81 18.64 104.283 18.78 104.856 18.78C105.763 18.78 106.516 18.5333 107.116 18.04C107.716 17.5333 108.016 16.76 108.016 15.72V14.76L106.436 14.82Z" fill="black"/>
<path d="M18.3984 53.1836L12.7734 58.8086C12.5625 59.0195 12.2812 59.125 12 59.125C11.6836 59.125 11.4023 59.0195 11.1914 58.8086L5.56641 53.1836C5.10938 52.7617 5.10938 52.0234 5.56641 51.6016C5.98828 51.1445 6.72656 51.1445 7.14844 51.6016L10.875 55.293V44.5C10.875 43.9023 11.3672 43.4102 11.9648 43.4102C12.5273 43.4102 13.125 43.9023 13.125 44.5V55.293L16.8164 51.6016C17.2383 51.1445 17.9766 51.1445 18.3984 51.6016C18.8555 52.0234 18.8555 52.7617 18.3984 53.1836Z" fill="black"/>
<rect y="78" width="24" height="24" fill="#26374A"/>
<path d="M30.8 93.42V91.86H35.64V93.42H30.8ZM37.2453 93.42V91.86H42.0853V93.42H37.2453ZM48.3906 87.08C49.0973 87.08 49.7306 87.2133 50.2906 87.48C50.864 87.7467 51.3506 88.1533 51.7506 88.7H51.8506L52.0906 87.28H53.4906V98.18C53.4906 99.7133 53.0973 100.867 52.3106 101.64C51.5373 102.413 50.3306 102.8 48.6906 102.8C47.1173 102.8 45.8306 102.573 44.8306 102.12V100.5C45.884 101.06 47.204 101.34 48.7906 101.34C49.7106 101.34 50.4306 101.067 50.9506 100.52C51.484 99.9867 51.7506 99.2533 51.7506 98.32V97.9C51.7506 97.74 51.7573 97.5133 51.7706 97.22C51.784 96.9133 51.7973 96.7 51.8106 96.58H51.7306C51.0106 97.66 49.904 98.2 48.4106 98.2C47.024 98.2 45.9373 97.7133 45.1506 96.74C44.3773 95.7667 43.9906 94.4067 43.9906 92.66C43.9906 90.9533 44.3773 89.6 45.1506 88.6C45.9373 87.5867 47.0173 87.08 48.3906 87.08ZM48.6306 88.56C47.7373 88.56 47.044 88.92 46.5506 89.64C46.0573 90.3467 45.8106 91.36 45.8106 92.68C45.8106 94 46.0506 95.0133 46.5306 95.72C47.024 96.4133 47.7373 96.76 48.6706 96.76C49.7506 96.76 50.5373 96.4733 51.0306 95.9C51.524 95.3133 51.7706 94.3733 51.7706 93.08V92.66C51.7706 91.1933 51.5173 90.1467 51.0106 89.52C50.504 88.88 49.7106 88.56 48.6306 88.56ZM61.1953 98.2C60.2486 98.2 59.402 98.0067 58.6553 97.62C57.922 97.2333 57.342 96.6333 56.9153 95.82C56.502 95.0067 56.2953 93.9667 56.2953 92.7C56.2953 91.38 56.5153 90.3067 56.9553 89.48C57.3953 88.6533 57.9886 88.0467 58.7353 87.66C59.4953 87.2733 60.3553 87.08 61.3153 87.08C61.862 87.08 62.3886 87.14 62.8953 87.26C63.402 87.3667 63.8153 87.5 64.1353 87.66L63.5953 89.12C63.2753 89 62.902 88.8867 62.4753 88.78C62.0486 88.6733 61.6486 88.62 61.2753 88.62C59.1686 88.62 58.1153 89.9733 58.1153 92.68C58.1153 93.9733 58.3686 94.9667 58.8753 95.66C59.3953 96.34 60.162 96.68 61.1753 96.68C61.762 96.68 62.2753 96.62 62.7153 96.5C63.1686 96.38 63.582 96.2333 63.9553 96.06V97.62C63.5953 97.8067 63.1953 97.9467 62.7553 98.04C62.3286 98.1467 61.8086 98.2 61.1953 98.2ZM70.3047 98.2C68.9714 98.2 67.9047 97.74 67.1047 96.82C66.3047 95.8867 65.9047 94.5 65.9047 92.66C65.9047 90.82 66.3047 89.4333 67.1047 88.5C67.918 87.5533 68.9914 87.08 70.3247 87.08C71.1514 87.08 71.8247 87.2333 72.3447 87.54C72.878 87.8467 73.3114 88.22 73.6447 88.66H73.7647C73.7514 88.4867 73.7247 88.2333 73.6847 87.9C73.658 87.5533 73.6447 87.28 73.6447 87.08V82.8H75.4047V98H73.9847L73.7247 96.56H73.6447C73.3247 97.0133 72.898 97.4 72.3647 97.72C71.8314 98.04 71.1447 98.2 70.3047 98.2ZM70.5847 96.74C71.718 96.74 72.5114 96.4333 72.9647 95.82C73.4314 95.1933 73.6647 94.2533 73.6647 93V92.68C73.6647 91.3467 73.4447 90.3267 73.0047 89.62C72.5647 88.9 71.7514 88.54 70.5647 88.54C69.618 88.54 68.9047 88.92 68.4247 89.68C67.958 90.4267 67.7247 91.4333 67.7247 92.7C67.7247 93.98 67.958 94.9733 68.4247 95.68C68.9047 96.3867 69.6247 96.74 70.5847 96.74ZM85.7894 95.04C85.7894 96.08 85.4027 96.8667 84.6294 97.4C83.856 97.9333 82.816 98.2 81.5094 98.2C80.7627 98.2 80.116 98.14 79.5694 98.02C79.036 97.9 78.5627 97.7333 78.1494 97.52V95.92C78.576 96.1333 79.0894 96.3333 79.6894 96.52C80.3027 96.6933 80.9227 96.78 81.5494 96.78C82.4427 96.78 83.0894 96.64 83.4894 96.36C83.8894 96.0667 84.0894 95.68 84.0894 95.2C84.0894 94.9333 84.016 94.6933 83.8694 94.48C83.7227 94.2667 83.456 94.0533 83.0694 93.84C82.696 93.6267 82.156 93.3867 81.4494 93.12C80.756 92.8533 80.1627 92.5867 79.6694 92.32C79.176 92.0533 78.796 91.7333 78.5294 91.36C78.2627 90.9867 78.1294 90.5067 78.1294 89.92C78.1294 89.0133 78.496 88.3133 79.2294 87.82C79.976 87.3267 80.9494 87.08 82.1494 87.08C82.8027 87.08 83.4094 87.1467 83.9694 87.28C84.5427 87.4 85.076 87.5733 85.5694 87.8L84.9694 89.2C84.516 89.0133 84.0427 88.8533 83.5494 88.72C83.056 88.5867 82.5494 88.52 82.0294 88.52C81.3094 88.52 80.756 88.64 80.3694 88.88C79.996 89.1067 79.8094 89.42 79.8094 89.82C79.8094 90.1133 79.896 90.3667 80.0694 90.58C80.2427 90.78 80.5294 90.98 80.9294 91.18C81.3427 91.3667 81.8894 91.5933 82.5694 91.86C83.2494 92.1133 83.8294 92.3733 84.3094 92.64C84.7894 92.9067 85.156 93.2333 85.4094 93.62C85.6627 93.9933 85.7894 94.4667 85.7894 95.04ZM87.4797 93.42V91.86H92.3197V93.42H87.4797ZM99.125 98.2C98.1783 98.2 97.3317 98.0067 96.585 97.62C95.8517 97.2333 95.2717 96.6333 94.845 95.82C94.4317 95.0067 94.225 93.9667 94.225 92.7C94.225 91.38 94.445 90.3067 94.885 89.48C95.325 88.6533 95.9183 88.0467 96.665 87.66C97.425 87.2733 98.285 87.08 99.245 87.08C99.7917 87.08 100.318 87.14 100.825 87.26C101.332 87.3667 101.745 87.5 102.065 87.66L101.525 89.12C101.205 89 100.832 88.8867 100.405 88.78C99.9783 88.6733 99.5783 88.62 99.205 88.62C97.0983 88.62 96.045 89.9733 96.045 92.68C96.045 93.9733 96.2983 94.9667 96.805 95.66C97.325 96.34 98.0917 96.68 99.105 96.68C99.6917 96.68 100.205 96.62 100.645 96.5C101.098 96.38 101.512 96.2333 101.885 96.06V97.62C101.525 97.8067 101.125 97.9467 100.685 98.04C100.258 98.1467 99.7383 98.2 99.125 98.2ZM113.754 92.62C113.754 94.3933 113.301 95.7667 112.394 96.74C111.501 97.7133 110.288 98.2 108.754 98.2C107.808 98.2 106.961 97.9867 106.214 97.56C105.481 97.12 104.901 96.4867 104.474 95.66C104.048 94.82 103.834 93.8067 103.834 92.62C103.834 90.8467 104.281 89.48 105.174 88.52C106.068 87.56 107.281 87.08 108.814 87.08C109.788 87.08 110.641 87.3 111.374 87.74C112.121 88.1667 112.701 88.7933 113.114 89.62C113.541 90.4333 113.754 91.4333 113.754 92.62ZM105.654 92.62C105.654 93.8867 105.901 94.8933 106.394 95.64C106.901 96.3733 107.701 96.74 108.794 96.74C109.874 96.74 110.668 96.3733 111.174 95.64C111.681 94.8933 111.934 93.8867 111.934 92.62C111.934 91.3533 111.681 90.36 111.174 89.64C110.668 88.92 109.868 88.56 108.774 88.56C107.681 88.56 106.888 88.92 106.394 89.64C105.901 90.36 105.654 91.3533 105.654 92.62ZM118.304 98H116.544V82.8H118.304V98ZM131.02 92.62C131.02 94.3933 130.567 95.7667 129.66 96.74C128.767 97.7133 127.553 98.2 126.02 98.2C125.073 98.2 124.227 97.9867 123.48 97.56C122.747 97.12 122.167 96.4867 121.74 95.66C121.313 94.82 121.1 93.8067 121.1 92.62C121.1 90.8467 121.547 89.48 122.44 88.52C123.333 87.56 124.547 87.08 126.08 87.08C127.053 87.08 127.907 87.3 128.64 87.74C129.387 88.1667 129.967 88.7933 130.38 89.62C130.807 90.4333 131.02 91.4333 131.02 92.62ZM122.92 92.62C122.92 93.8867 123.167 94.8933 123.66 95.64C124.167 96.3733 124.967 96.74 126.06 96.74C127.14 96.74 127.933 96.3733 128.44 95.64C128.947 94.8933 129.2 93.8867 129.2 92.62C129.2 91.3533 128.947 90.36 128.44 89.64C127.933 88.92 127.133 88.56 126.04 88.56C124.947 88.56 124.153 88.92 123.66 89.64C123.167 90.36 122.92 91.3533 122.92 92.62ZM138.809 87.08C139.009 87.08 139.223 87.0933 139.449 87.12C139.689 87.1333 139.896 87.16 140.069 87.2L139.849 88.82C139.676 88.78 139.483 88.7467 139.269 88.72C139.069 88.6933 138.876 88.68 138.689 88.68C138.143 88.68 137.629 88.8333 137.149 89.14C136.669 89.4333 136.283 89.8533 135.989 90.4C135.709 90.9333 135.569 91.56 135.569 92.28V98H133.809V87.28H135.249L135.449 89.24H135.529C135.876 88.6533 136.323 88.1467 136.869 87.72C137.416 87.2933 138.063 87.08 138.809 87.08ZM141.171 93.42V91.86H146.011V93.42H141.171ZM150.276 86.5C150.276 86.9533 150.263 87.38 150.236 87.78C150.223 88.1667 150.203 88.4733 150.176 88.7H150.276C150.583 88.2467 151.003 87.8667 151.536 87.56C152.07 87.2533 152.756 87.1 153.596 87.1C154.93 87.1 155.996 87.5667 156.796 88.5C157.61 89.42 158.016 90.8 158.016 92.64C158.016 94.48 157.61 95.8667 156.796 96.8C155.983 97.7333 154.916 98.2 153.596 98.2C152.756 98.2 152.07 98.0467 151.536 97.74C151.003 97.4333 150.583 97.0667 150.276 96.64H150.136L149.776 98H148.516V82.8H150.276V86.5ZM153.296 88.56C152.163 88.56 151.376 88.8867 150.936 89.54C150.496 90.1933 150.276 91.2067 150.276 92.58V92.66C150.276 93.98 150.49 94.9933 150.916 95.7C151.356 96.3933 152.163 96.74 153.336 96.74C154.296 96.74 155.01 96.3867 155.476 95.68C155.956 94.9733 156.196 93.9533 156.196 92.62C156.196 89.9133 155.23 88.56 153.296 88.56ZM162.581 98H160.821V82.8H162.581V98ZM174.937 87.28V98H173.497L173.237 96.58H173.157C172.811 97.14 172.331 97.5533 171.717 97.82C171.104 98.0733 170.451 98.2 169.757 98.2C168.464 98.2 167.491 97.8933 166.837 97.28C166.184 96.6533 165.857 95.66 165.857 94.3V87.28H167.637V94.18C167.637 95.8867 168.431 96.74 170.017 96.74C171.204 96.74 172.024 96.4067 172.477 95.74C172.944 95.0733 173.177 94.1133 173.177 92.86V87.28H174.937ZM182.481 87.08C183.401 87.08 184.187 87.28 184.841 87.68C185.507 88.08 186.014 88.6467 186.361 89.38C186.721 90.1 186.901 90.9467 186.901 91.92V92.98H179.561C179.587 94.1933 179.894 95.12 180.481 95.76C181.081 96.3867 181.914 96.7 182.981 96.7C183.661 96.7 184.261 96.64 184.781 96.52C185.314 96.3867 185.861 96.2 186.421 95.96V97.5C185.874 97.74 185.334 97.9133 184.801 98.02C184.267 98.14 183.634 98.2 182.901 98.2C181.887 98.2 180.987 97.9933 180.201 97.58C179.427 97.1667 178.821 96.5533 178.381 95.74C177.954 94.9133 177.741 93.9067 177.741 92.72C177.741 91.5467 177.934 90.54 178.321 89.7C178.721 88.86 179.274 88.2133 179.981 87.76C180.701 87.3067 181.534 87.08 182.481 87.08ZM182.461 88.52C181.621 88.52 180.954 88.7933 180.461 89.34C179.981 89.8733 179.694 90.62 179.601 91.58H185.061C185.047 90.6733 184.834 89.94 184.421 89.38C184.007 88.8067 183.354 88.52 182.461 88.52ZM188.73 93.42V91.86H193.57V93.42H188.73ZM204.775 89.82C204.775 90.8467 204.682 91.86 204.495 92.86C204.322 93.8467 203.995 94.7467 203.515 95.56C203.048 96.36 202.382 97 201.515 97.48C200.662 97.96 199.562 98.2 198.215 98.2C197.948 98.2 197.635 98.18 197.275 98.14C196.928 98.1133 196.642 98.0667 196.415 98V96.5C196.935 96.6733 197.522 96.76 198.175 96.76C199.108 96.76 199.875 96.6067 200.475 96.3C201.088 95.9933 201.575 95.58 201.935 95.06C202.295 94.5267 202.555 93.9133 202.715 93.22C202.875 92.5133 202.968 91.7733 202.995 91H202.875C202.582 91.4533 202.155 91.8467 201.595 92.18C201.048 92.5 200.342 92.66 199.475 92.66C198.248 92.66 197.255 92.2867 196.495 91.54C195.748 90.78 195.375 89.7133 195.375 88.34C195.375 87.34 195.562 86.48 195.935 85.76C196.322 85.04 196.855 84.4867 197.535 84.1C198.215 83.7133 199.015 83.52 199.935 83.52C200.842 83.52 201.662 83.7533 202.395 84.22C203.128 84.6733 203.708 85.3667 204.135 86.3C204.562 87.22 204.775 88.3933 204.775 89.82ZM199.935 85C199.108 85 198.428 85.2733 197.895 85.82C197.375 86.3667 197.115 87.2 197.115 88.32C197.115 89.24 197.335 89.9667 197.775 90.5C198.228 91.02 198.922 91.28 199.855 91.28C200.495 91.28 201.048 91.1533 201.515 90.9C201.982 90.6333 202.342 90.3 202.595 89.9C202.862 89.5 202.995 89.0867 202.995 88.66C202.995 88.0867 202.882 87.52 202.655 86.96C202.428 86.4 202.088 85.9333 201.635 85.56C201.182 85.1867 200.615 85 199.935 85ZM216.28 90.84C216.28 92.3733 216.12 93.6933 215.8 94.8C215.48 95.8933 214.974 96.7333 214.28 97.32C213.587 97.9067 212.667 98.2 211.52 98.2C209.907 98.2 208.714 97.5533 207.94 96.26C207.18 94.9533 206.8 93.1467 206.8 90.84C206.8 89.2933 206.954 87.9733 207.26 86.88C207.58 85.7867 208.087 84.9533 208.78 84.38C209.474 83.7933 210.387 83.5 211.52 83.5C213.12 83.5 214.314 84.1467 215.1 85.44C215.887 86.72 216.28 88.52 216.28 90.84ZM208.56 90.84C208.56 92.8 208.78 94.2667 209.22 95.24C209.674 96.2133 210.44 96.7 211.52 96.7C212.587 96.7 213.347 96.22 213.8 95.26C214.267 94.2867 214.5 92.8133 214.5 90.84C214.5 88.8933 214.267 87.4333 213.8 86.46C213.347 85.4867 212.587 85 211.52 85C210.44 85 209.674 85.4867 209.22 86.46C208.78 87.4333 208.56 88.8933 208.56 90.84ZM227.726 90.84C227.726 92.3733 227.566 93.6933 227.246 94.8C226.926 95.8933 226.419 96.7333 225.726 97.32C225.032 97.9067 224.112 98.2 222.966 98.2C221.352 98.2 220.159 97.5533 219.386 96.26C218.626 94.9533 218.246 93.1467 218.246 90.84C218.246 89.2933 218.399 87.9733 218.706 86.88C219.026 85.7867 219.532 84.9533 220.226 84.38C220.919 83.7933 221.832 83.5 222.966 83.5C224.566 83.5 225.759 84.1467 226.546 85.44C227.332 86.72 227.726 88.52 227.726 90.84ZM220.006 90.84C220.006 92.8 220.226 94.2667 220.666 95.24C221.119 96.2133 221.886 96.7 222.966 96.7C224.032 96.7 224.792 96.22 225.246 95.26C225.712 94.2867 225.946 92.8133 225.946 90.84C225.946 88.8933 225.712 87.4333 225.246 86.46C224.792 85.4867 224.032 85 222.966 85C221.886 85 221.119 85.4867 220.666 86.46C220.226 87.4333 220.006 88.8933 220.006 90.84Z" fill="black"/>
<path d="M18.3984 131.184L12.7734 136.809C12.5625 137.02 12.2812 137.125 12 137.125C11.6836 137.125 11.4023 137.02 11.1914 136.809L5.56641 131.184C5.10938 130.762 5.10938 130.023 5.56641 129.602C5.98828 129.145 6.72656 129.145 7.14844 129.602L10.875 133.293V122.5C10.875 121.902 11.3672 121.41 11.9648 121.41C12.5273 121.41 13.125 121.902 13.125 122.5V133.293L16.8164 129.602C17.2383 129.145 17.9766 129.145 18.3984 129.602C18.8555 130.023 18.8555 130.762 18.3984 131.184Z" fill="black"/>
<rect y="156" width="24" height="24" fill="#26374A"/>
<path d="M30.8 171.42V169.86H35.64V171.42H30.8ZM37.2453 171.42V169.86H42.0853V171.42H37.2453ZM48.3906 165.08C49.0973 165.08 49.7306 165.213 50.2906 165.48C50.864 165.747 51.3506 166.153 51.7506 166.7H51.8506L52.0906 165.28H53.4906V176.18C53.4906 177.713 53.0973 178.867 52.3106 179.64C51.5373 180.413 50.3306 180.8 48.6906 180.8C47.1173 180.8 45.8306 180.573 44.8306 180.12V178.5C45.884 179.06 47.204 179.34 48.7906 179.34C49.7106 179.34 50.4306 179.067 50.9506 178.52C51.484 177.987 51.7506 177.253 51.7506 176.32V175.9C51.7506 175.74 51.7573 175.513 51.7706 175.22C51.784 174.913 51.7973 174.7 51.8106 174.58H51.7306C51.0106 175.66 49.904 176.2 48.4106 176.2C47.024 176.2 45.9373 175.713 45.1506 174.74C44.3773 173.767 43.9906 172.407 43.9906 170.66C43.9906 168.953 44.3773 167.6 45.1506 166.6C45.9373 165.587 47.0173 165.08 48.3906 165.08ZM48.6306 166.56C47.7373 166.56 47.044 166.92 46.5506 167.64C46.0573 168.347 45.8106 169.36 45.8106 170.68C45.8106 172 46.0506 173.013 46.5306 173.72C47.024 174.413 47.7373 174.76 48.6706 174.76C49.7506 174.76 50.5373 174.473 51.0306 173.9C51.524 173.313 51.7706 172.373 51.7706 171.08V170.66C51.7706 169.193 51.5173 168.147 51.0106 167.52C50.504 166.88 49.7106 166.56 48.6306 166.56ZM61.1953 176.2C60.2486 176.2 59.402 176.007 58.6553 175.62C57.922 175.233 57.342 174.633 56.9153 173.82C56.502 173.007 56.2953 171.967 56.2953 170.7C56.2953 169.38 56.5153 168.307 56.9553 167.48C57.3953 166.653 57.9886 166.047 58.7353 165.66C59.4953 165.273 60.3553 165.08 61.3153 165.08C61.862 165.08 62.3886 165.14 62.8953 165.26C63.402 165.367 63.8153 165.5 64.1353 165.66L63.5953 167.12C63.2753 167 62.902 166.887 62.4753 166.78C62.0486 166.673 61.6486 166.62 61.2753 166.62C59.1686 166.62 58.1153 167.973 58.1153 170.68C58.1153 171.973 58.3686 172.967 58.8753 173.66C59.3953 174.34 60.162 174.68 61.1753 174.68C61.762 174.68 62.2753 174.62 62.7153 174.5C63.1686 174.38 63.582 174.233 63.9553 174.06V175.62C63.5953 175.807 63.1953 175.947 62.7553 176.04C62.3286 176.147 61.8086 176.2 61.1953 176.2ZM70.3047 176.2C68.9714 176.2 67.9047 175.74 67.1047 174.82C66.3047 173.887 65.9047 172.5 65.9047 170.66C65.9047 168.82 66.3047 167.433 67.1047 166.5C67.918 165.553 68.9914 165.08 70.3247 165.08C71.1514 165.08 71.8247 165.233 72.3447 165.54C72.878 165.847 73.3114 166.22 73.6447 166.66H73.7647C73.7514 166.487 73.7247 166.233 73.6847 165.9C73.658 165.553 73.6447 165.28 73.6447 165.08V160.8H75.4047V176H73.9847L73.7247 174.56H73.6447C73.3247 175.013 72.898 175.4 72.3647 175.72C71.8314 176.04 71.1447 176.2 70.3047 176.2ZM70.5847 174.74C71.718 174.74 72.5114 174.433 72.9647 173.82C73.4314 173.193 73.6647 172.253 73.6647 171V170.68C73.6647 169.347 73.4447 168.327 73.0047 167.62C72.5647 166.9 71.7514 166.54 70.5647 166.54C69.618 166.54 68.9047 166.92 68.4247 167.68C67.958 168.427 67.7247 169.433 67.7247 170.7C67.7247 171.98 67.958 172.973 68.4247 173.68C68.9047 174.387 69.6247 174.74 70.5847 174.74ZM85.7894 173.04C85.7894 174.08 85.4027 174.867 84.6294 175.4C83.856 175.933 82.816 176.2 81.5094 176.2C80.7627 176.2 80.116 176.14 79.5694 176.02C79.036 175.9 78.5627 175.733 78.1494 175.52V173.92C78.576 174.133 79.0894 174.333 79.6894 174.52C80.3027 174.693 80.9227 174.78 81.5494 174.78C82.4427 174.78 83.0894 174.64 83.4894 174.36C83.8894 174.067 84.0894 173.68 84.0894 173.2C84.0894 172.933 84.016 172.693 83.8694 172.48C83.7227 172.267 83.456 172.053 83.0694 171.84C82.696 171.627 82.156 171.387 81.4494 171.12C80.756 170.853 80.1627 170.587 79.6694 170.32C79.176 170.053 78.796 169.733 78.5294 169.36C78.2627 168.987 78.1294 168.507 78.1294 167.92C78.1294 167.013 78.496 166.313 79.2294 165.82C79.976 165.327 80.9494 165.08 82.1494 165.08C82.8027 165.08 83.4094 165.147 83.9694 165.28C84.5427 165.4 85.076 165.573 85.5694 165.8L84.9694 167.2C84.516 167.013 84.0427 166.853 83.5494 166.72C83.056 166.587 82.5494 166.52 82.0294 166.52C81.3094 166.52 80.756 166.64 80.3694 166.88C79.996 167.107 79.8094 167.42 79.8094 167.82C79.8094 168.113 79.896 168.367 80.0694 168.58C80.2427 168.78 80.5294 168.98 80.9294 169.18C81.3427 169.367 81.8894 169.593 82.5694 169.86C83.2494 170.113 83.8294 170.373 84.3094 170.64C84.7894 170.907 85.156 171.233 85.4094 171.62C85.6627 171.993 85.7894 172.467 85.7894 173.04ZM87.4797 171.42V169.86H92.3197V171.42H87.4797ZM96.585 164.5C96.585 164.953 96.5717 165.38 96.545 165.78C96.5317 166.167 96.5117 166.473 96.485 166.7H96.585C96.8917 166.247 97.3117 165.867 97.845 165.56C98.3783 165.253 99.065 165.1 99.905 165.1C101.238 165.1 102.305 165.567 103.105 166.5C103.918 167.42 104.325 168.8 104.325 170.64C104.325 172.48 103.918 173.867 103.105 174.8C102.292 175.733 101.225 176.2 99.905 176.2C99.065 176.2 98.3783 176.047 97.845 175.74C97.3117 175.433 96.8917 175.067 96.585 174.64H96.445L96.085 176H94.825V160.8H96.585V164.5ZM99.605 166.56C98.4717 166.56 97.685 166.887 97.245 167.54C96.805 168.193 96.585 169.207 96.585 170.58V170.66C96.585 171.98 96.7983 172.993 97.225 173.7C97.665 174.393 98.4717 174.74 99.645 174.74C100.605 174.74 101.318 174.387 101.785 173.68C102.265 172.973 102.505 171.953 102.505 170.62C102.505 167.913 101.538 166.56 99.605 166.56ZM116.09 165.28V176H114.65L114.39 174.58H114.31C113.963 175.14 113.483 175.553 112.87 175.82C112.256 176.073 111.603 176.2 110.91 176.2C109.616 176.2 108.643 175.893 107.99 175.28C107.336 174.653 107.01 173.66 107.01 172.3V165.28H108.79V172.18C108.79 173.887 109.583 174.74 111.17 174.74C112.356 174.74 113.176 174.407 113.63 173.74C114.096 173.073 114.33 172.113 114.33 170.86V165.28H116.09ZM123.073 174.76C123.34 174.76 123.613 174.74 123.893 174.7C124.173 174.647 124.4 174.593 124.573 174.54V175.88C124.386 175.973 124.12 176.047 123.773 176.1C123.426 176.167 123.093 176.2 122.773 176.2C122.213 176.2 121.693 176.107 121.213 175.92C120.746 175.72 120.366 175.38 120.073 174.9C119.78 174.42 119.633 173.747 119.633 172.88V166.64H118.113V165.8L119.653 165.1L120.353 162.82H121.393V165.28H124.493V166.64H121.393V172.84C121.393 173.493 121.546 173.98 121.853 174.3C122.173 174.607 122.58 174.76 123.073 174.76ZM130.3 174.76C130.566 174.76 130.84 174.74 131.12 174.7C131.4 174.647 131.626 174.593 131.8 174.54V175.88C131.613 175.973 131.346 176.047 131 176.1C130.653 176.167 130.32 176.2 130 176.2C129.44 176.2 128.92 176.107 128.44 175.92C127.973 175.72 127.593 175.38 127.3 174.9C127.006 174.42 126.86 173.747 126.86 172.88V166.64H125.34V165.8L126.88 165.1L127.58 162.82H128.62V165.28H131.72V166.64H128.62V172.84C128.62 173.493 128.773 173.98 129.08 174.3C129.4 174.607 129.806 174.76 130.3 174.76ZM143.266 170.62C143.266 172.393 142.813 173.767 141.906 174.74C141.013 175.713 139.799 176.2 138.266 176.2C137.319 176.2 136.473 175.987 135.726 175.56C134.993 175.12 134.413 174.487 133.986 173.66C133.559 172.82 133.346 171.807 133.346 170.62C133.346 168.847 133.793 167.48 134.686 166.52C135.579 165.56 136.793 165.08 138.326 165.08C139.299 165.08 140.153 165.3 140.886 165.74C141.633 166.167 142.213 166.793 142.626 167.62C143.053 168.433 143.266 169.433 143.266 170.62ZM135.166 170.62C135.166 171.887 135.413 172.893 135.906 173.64C136.413 174.373 137.213 174.74 138.306 174.74C139.386 174.74 140.179 174.373 140.686 173.64C141.193 172.893 141.446 171.887 141.446 170.62C141.446 169.353 141.193 168.36 140.686 167.64C140.179 166.92 139.379 166.56 138.286 166.56C137.193 166.56 136.399 166.92 135.906 167.64C135.413 168.36 135.166 169.353 135.166 170.62ZM151.215 165.08C152.495 165.08 153.462 165.393 154.115 166.02C154.769 166.633 155.095 167.633 155.095 169.02V176H153.355V169.14C153.355 167.42 152.555 166.56 150.955 166.56C149.769 166.56 148.949 166.893 148.495 167.56C148.042 168.227 147.815 169.187 147.815 170.44V176H146.055V165.28H147.475L147.735 166.74H147.835C148.182 166.18 148.662 165.767 149.275 165.5C149.889 165.22 150.535 165.08 151.215 165.08ZM157.519 171.42V169.86H162.359V171.42H157.519ZM169.964 165.08C171.284 165.08 172.344 165.54 173.144 166.46C173.957 167.38 174.364 168.767 174.364 170.62C174.364 172.447 173.957 173.833 173.144 174.78C172.344 175.727 171.277 176.2 169.944 176.2C169.117 176.2 168.431 176.047 167.884 175.74C167.351 175.42 166.931 175.053 166.624 174.64H166.504C166.531 174.867 166.557 175.153 166.584 175.5C166.611 175.847 166.624 176.147 166.624 176.4V180.8H164.864V165.28H166.304L166.544 166.74H166.624C166.944 166.273 167.364 165.88 167.884 165.56C168.404 165.24 169.097 165.08 169.964 165.08ZM169.644 166.56C168.551 166.56 167.777 166.867 167.324 167.48C166.884 168.093 166.651 169.027 166.624 170.28V170.62C166.624 171.94 166.837 172.96 167.264 173.68C167.704 174.387 168.511 174.74 169.684 174.74C170.337 174.74 170.871 174.56 171.284 174.2C171.711 173.84 172.024 173.353 172.224 172.74C172.437 172.113 172.544 171.4 172.544 170.6C172.544 169.373 172.304 168.393 171.824 167.66C171.357 166.927 170.631 166.56 169.644 166.56ZM182.169 165.08C182.369 165.08 182.582 165.093 182.809 165.12C183.049 165.133 183.255 165.16 183.429 165.2L183.209 166.82C183.035 166.78 182.842 166.747 182.629 166.72C182.429 166.693 182.235 166.68 182.049 166.68C181.502 166.68 180.989 166.833 180.509 167.14C180.029 167.433 179.642 167.853 179.349 168.4C179.069 168.933 178.929 169.56 178.929 170.28V176H177.169V165.28H178.609L178.809 167.24H178.889C179.235 166.653 179.682 166.147 180.229 165.72C180.775 165.293 181.422 165.08 182.169 165.08ZM186.33 161.26C186.597 161.26 186.83 161.353 187.03 161.54C187.244 161.713 187.35 161.993 187.35 162.38C187.35 162.753 187.244 163.033 187.03 163.22C186.83 163.407 186.597 163.5 186.33 163.5C186.037 163.5 185.79 163.407 185.59 163.22C185.39 163.033 185.29 162.753 185.29 162.38C185.29 161.993 185.39 161.713 185.59 161.54C185.79 161.353 186.037 161.26 186.33 161.26ZM187.19 165.28V176H185.43V165.28H187.19ZM202.347 165.08C203.56 165.08 204.467 165.393 205.067 166.02C205.667 166.633 205.967 167.633 205.967 169.02V176H204.227V169.1C204.227 167.407 203.5 166.56 202.047 166.56C201.007 166.56 200.26 166.86 199.807 167.46C199.367 168.06 199.147 168.933 199.147 170.08V176H197.407V169.1C197.407 167.407 196.673 166.56 195.207 166.56C194.127 166.56 193.38 166.893 192.967 167.56C192.553 168.227 192.347 169.187 192.347 170.44V176H190.587V165.28H192.007L192.267 166.74H192.367C192.7 166.18 193.147 165.767 193.707 165.5C194.28 165.22 194.887 165.08 195.527 165.08C197.207 165.08 198.3 165.68 198.807 166.88H198.907C199.267 166.267 199.753 165.813 200.367 165.52C200.993 165.227 201.653 165.08 202.347 165.08ZM213.338 165.1C214.645 165.1 215.611 165.387 216.238 165.96C216.865 166.533 217.178 167.447 217.178 168.7V176H215.898L215.558 174.48H215.478C215.011 175.067 214.518 175.5 213.998 175.78C213.491 176.06 212.785 176.2 211.878 176.2C210.905 176.2 210.098 175.947 209.458 175.44C208.818 174.92 208.498 174.113 208.498 173.02C208.498 171.953 208.918 171.133 209.758 170.56C210.598 169.973 211.891 169.653 213.638 169.6L215.458 169.54V168.9C215.458 168.007 215.265 167.387 214.878 167.04C214.491 166.693 213.945 166.52 213.238 166.52C212.678 166.52 212.145 166.607 211.638 166.78C211.131 166.94 210.658 167.127 210.218 167.34L209.678 166.02C210.145 165.767 210.698 165.553 211.338 165.38C211.978 165.193 212.645 165.1 213.338 165.1ZM213.858 170.82C212.525 170.873 211.598 171.087 211.078 171.46C210.571 171.833 210.318 172.36 210.318 173.04C210.318 173.64 210.498 174.08 210.858 174.36C211.231 174.64 211.705 174.78 212.278 174.78C213.185 174.78 213.938 174.533 214.538 174.04C215.138 173.533 215.438 172.76 215.438 171.72V170.76L213.858 170.82ZM225.489 165.08C225.689 165.08 225.902 165.093 226.129 165.12C226.369 165.133 226.576 165.16 226.749 165.2L226.529 166.82C226.356 166.78 226.162 166.747 225.949 166.72C225.749 166.693 225.556 166.68 225.369 166.68C224.822 166.68 224.309 166.833 223.829 167.14C223.349 167.433 222.962 167.853 222.669 168.4C222.389 168.933 222.249 169.56 222.249 170.28V176H220.489V165.28H221.929L222.129 167.24H222.209C222.556 166.653 223.002 166.147 223.549 165.72C224.096 165.293 224.742 165.08 225.489 165.08ZM227.071 165.28H228.951L231.271 171.38C231.471 171.913 231.651 172.427 231.811 172.92C231.971 173.4 232.091 173.86 232.171 174.3H232.251C232.331 173.967 232.457 173.533 232.631 173C232.804 172.453 232.984 171.907 233.171 171.36L235.351 165.28H237.251L232.631 177.48C232.257 178.493 231.771 179.3 231.171 179.9C230.584 180.5 229.771 180.8 228.731 180.8C228.411 180.8 228.131 180.78 227.891 180.74C227.651 180.713 227.444 180.68 227.271 180.64V179.24C227.417 179.267 227.591 179.293 227.791 179.32C228.004 179.347 228.224 179.36 228.451 179.36C229.064 179.36 229.557 179.187 229.931 178.84C230.317 178.493 230.617 178.033 230.831 177.46L231.391 176.04L227.071 165.28ZM238.046 171.42V169.86H242.886V171.42H238.046ZM249.191 176.2C247.858 176.2 246.791 175.74 245.991 174.82C245.191 173.887 244.791 172.5 244.791 170.66C244.791 168.82 245.191 167.433 245.991 166.5C246.805 165.553 247.878 165.08 249.211 165.08C250.038 165.08 250.711 165.233 251.231 165.54C251.765 165.847 252.198 166.22 252.531 166.66H252.651C252.638 166.487 252.611 166.233 252.571 165.9C252.545 165.553 252.531 165.28 252.531 165.08V160.8H254.291V176H252.871L252.611 174.56H252.531C252.211 175.013 251.785 175.4 251.251 175.72C250.718 176.04 250.031 176.2 249.191 176.2ZM249.471 174.74C250.605 174.74 251.398 174.433 251.851 173.82C252.318 173.193 252.551 172.253 252.551 171V170.68C252.551 169.347 252.331 168.327 251.891 167.62C251.451 166.9 250.638 166.54 249.451 166.54C248.505 166.54 247.791 166.92 247.311 167.68C246.845 168.427 246.611 169.433 246.611 170.7C246.611 171.98 246.845 172.973 247.311 173.68C247.791 174.387 248.511 174.74 249.471 174.74ZM261.836 165.08C262.756 165.08 263.543 165.28 264.196 165.68C264.863 166.08 265.369 166.647 265.716 167.38C266.076 168.1 266.256 168.947 266.256 169.92V170.98H258.916C258.943 172.193 259.249 173.12 259.836 173.76C260.436 174.387 261.269 174.7 262.336 174.7C263.016 174.7 263.616 174.64 264.136 174.52C264.669 174.387 265.216 174.2 265.776 173.96V175.5C265.229 175.74 264.689 175.913 264.156 176.02C263.623 176.14 262.989 176.2 262.256 176.2C261.243 176.2 260.343 175.993 259.556 175.58C258.783 175.167 258.176 174.553 257.736 173.74C257.309 172.913 257.096 171.907 257.096 170.72C257.096 169.547 257.289 168.54 257.676 167.7C258.076 166.86 258.629 166.213 259.336 165.76C260.056 165.307 260.889 165.08 261.836 165.08ZM261.816 166.52C260.976 166.52 260.309 166.793 259.816 167.34C259.336 167.873 259.049 168.62 258.956 169.58H264.416C264.403 168.673 264.189 167.94 263.776 167.38C263.363 166.807 262.709 166.52 261.816 166.52ZM273.925 166.64H271.225V176H269.465V166.64H267.585V165.82L269.465 165.22V164.6C269.465 163.213 269.772 162.22 270.385 161.62C270.998 161.007 271.852 160.7 272.945 160.7C273.372 160.7 273.758 160.74 274.105 160.82C274.465 160.887 274.772 160.967 275.025 161.06L274.565 162.44C274.352 162.373 274.105 162.307 273.825 162.24C273.545 162.173 273.258 162.14 272.965 162.14C272.378 162.14 271.938 162.34 271.645 162.74C271.365 163.127 271.225 163.74 271.225 164.58V165.28H273.925V166.64ZM279.92 165.1C281.227 165.1 282.193 165.387 282.82 165.96C283.447 166.533 283.76 167.447 283.76 168.7V176H282.48L282.14 174.48H282.06C281.593 175.067 281.1 175.5 280.58 175.78C280.073 176.06 279.367 176.2 278.46 176.2C277.487 176.2 276.68 175.947 276.04 175.44C275.4 174.92 275.08 174.113 275.08 173.02C275.08 171.953 275.5 171.133 276.34 170.56C277.18 169.973 278.473 169.653 280.22 169.6L282.04 169.54V168.9C282.04 168.007 281.847 167.387 281.46 167.04C281.073 166.693 280.527 166.52 279.82 166.52C279.26 166.52 278.727 166.607 278.22 166.78C277.713 166.94 277.24 167.127 276.8 167.34L276.26 166.02C276.727 165.767 277.28 165.553 277.92 165.38C278.56 165.193 279.227 165.1 279.92 165.1ZM280.44 170.82C279.107 170.873 278.18 171.087 277.66 171.46C277.153 171.833 276.9 172.36 276.9 173.04C276.9 173.64 277.08 174.08 277.44 174.36C277.813 174.64 278.287 174.78 278.86 174.78C279.767 174.78 280.52 174.533 281.12 174.04C281.72 173.533 282.02 172.76 282.02 171.72V170.76L280.44 170.82ZM296.031 165.28V176H294.591L294.331 174.58H294.251C293.904 175.14 293.424 175.553 292.811 175.82C292.198 176.073 291.544 176.2 290.851 176.2C289.558 176.2 288.584 175.893 287.931 175.28C287.278 174.653 286.951 173.66 286.951 172.3V165.28H288.731V172.18C288.731 173.887 289.524 174.74 291.111 174.74C292.298 174.74 293.118 174.407 293.571 173.74C294.038 173.073 294.271 172.113 294.271 170.86V165.28H296.031ZM301.194 176H299.434V160.8H301.194V176ZM308.171 174.76C308.437 174.76 308.711 174.74 308.991 174.7C309.271 174.647 309.497 174.593 309.671 174.54V175.88C309.484 175.973 309.217 176.047 308.871 176.1C308.524 176.167 308.191 176.2 307.871 176.2C307.311 176.2 306.791 176.107 306.311 175.92C305.844 175.72 305.464 175.38 305.171 174.9C304.877 174.42 304.731 173.747 304.731 172.88V166.64H303.211V165.8L304.751 165.1L305.451 162.82H306.491V165.28H309.591V166.64H306.491V172.84C306.491 173.493 306.644 173.98 306.951 174.3C307.271 174.607 307.677 174.76 308.171 174.76ZM310.917 171.42V169.86H315.757V171.42H310.917ZM320.023 164.5C320.023 164.953 320.009 165.38 319.983 165.78C319.969 166.167 319.949 166.473 319.923 166.7H320.023C320.329 166.247 320.749 165.867 321.283 165.56C321.816 165.253 322.503 165.1 323.343 165.1C324.676 165.1 325.743 165.567 326.543 166.5C327.356 167.42 327.763 168.8 327.763 170.64C327.763 172.48 327.356 173.867 326.543 174.8C325.729 175.733 324.663 176.2 323.343 176.2C322.503 176.2 321.816 176.047 321.283 175.74C320.749 175.433 320.329 175.067 320.023 174.64H319.883L319.523 176H318.263V160.8H320.023V164.5ZM323.043 166.56C321.909 166.56 321.123 166.887 320.683 167.54C320.243 168.193 320.023 169.207 320.023 170.58V170.66C320.023 171.98 320.236 172.993 320.663 173.7C321.103 174.393 321.909 174.74 323.083 174.74C324.043 174.74 324.756 174.387 325.223 173.68C325.703 172.973 325.943 171.953 325.943 170.62C325.943 167.913 324.976 166.56 323.043 166.56ZM334.627 165.1C335.934 165.1 336.901 165.387 337.527 165.96C338.154 166.533 338.467 167.447 338.467 168.7V176H337.187L336.847 174.48H336.767C336.301 175.067 335.807 175.5 335.287 175.78C334.781 176.06 334.074 176.2 333.167 176.2C332.194 176.2 331.387 175.947 330.747 175.44C330.107 174.92 329.787 174.113 329.787 173.02C329.787 171.953 330.207 171.133 331.047 170.56C331.887 169.973 333.181 169.653 334.927 169.6L336.747 169.54V168.9C336.747 168.007 336.554 167.387 336.167 167.04C335.781 166.693 335.234 166.52 334.527 166.52C333.967 166.52 333.434 166.607 332.927 166.78C332.421 166.94 331.947 167.127 331.507 167.34L330.967 166.02C331.434 165.767 331.987 165.553 332.627 165.38C333.267 165.193 333.934 165.1 334.627 165.1ZM335.147 170.82C333.814 170.873 332.887 171.087 332.367 171.46C331.861 171.833 331.607 172.36 331.607 173.04C331.607 173.64 331.787 174.08 332.147 174.36C332.521 174.64 332.994 174.78 333.567 174.78C334.474 174.78 335.227 174.533 335.827 174.04C336.427 173.533 336.727 172.76 336.727 171.72V170.76L335.147 170.82ZM346.078 176.2C345.131 176.2 344.285 176.007 343.538 175.62C342.805 175.233 342.225 174.633 341.798 173.82C341.385 173.007 341.178 171.967 341.178 170.7C341.178 169.38 341.398 168.307 341.838 167.48C342.278 166.653 342.871 166.047 343.618 165.66C344.378 165.273 345.238 165.08 346.198 165.08C346.745 165.08 347.271 165.14 347.778 165.26C348.285 165.367 348.698 165.5 349.018 165.66L348.478 167.12C348.158 167 347.785 166.887 347.358 166.78C346.931 166.673 346.531 166.62 346.158 166.62C344.051 166.62 342.998 167.973 342.998 170.68C342.998 171.973 343.251 172.967 343.758 173.66C344.278 174.34 345.045 174.68 346.058 174.68C346.645 174.68 347.158 174.62 347.598 174.5C348.051 174.38 348.465 174.233 348.838 174.06V175.62C348.478 175.807 348.078 175.947 347.638 176.04C347.211 176.147 346.691 176.2 346.078 176.2ZM353.128 168.74C353.128 168.953 353.114 169.233 353.088 169.58C353.074 169.927 353.061 170.227 353.048 170.48H353.128C353.208 170.373 353.328 170.22 353.488 170.02C353.648 169.82 353.808 169.62 353.968 169.42C354.141 169.207 354.288 169.033 354.408 168.9L357.828 165.28H359.888L355.548 169.86L360.188 176H358.068L354.348 171L353.128 172.06V176H351.388V160.8H353.128V168.74ZM365.871 165.08C366.578 165.08 367.211 165.213 367.771 165.48C368.344 165.747 368.831 166.153 369.231 166.7H369.331L369.571 165.28H370.971V176.18C370.971 177.713 370.578 178.867 369.791 179.64C369.018 180.413 367.811 180.8 366.171 180.8C364.598 180.8 363.311 180.573 362.311 180.12V178.5C363.364 179.06 364.684 179.34 366.271 179.34C367.191 179.34 367.911 179.067 368.431 178.52C368.964 177.987 369.231 177.253 369.231 176.32V175.9C369.231 175.74 369.238 175.513 369.251 175.22C369.264 174.913 369.278 174.7 369.291 174.58H369.211C368.491 175.66 367.384 176.2 365.891 176.2C364.504 176.2 363.418 175.713 362.631 174.74C361.858 173.767 361.471 172.407 361.471 170.66C361.471 168.953 361.858 167.6 362.631 166.6C363.418 165.587 364.498 165.08 365.871 165.08ZM366.111 166.56C365.218 166.56 364.524 166.92 364.031 167.64C363.538 168.347 363.291 169.36 363.291 170.68C363.291 172 363.531 173.013 364.011 173.72C364.504 174.413 365.218 174.76 366.151 174.76C367.231 174.76 368.018 174.473 368.511 173.9C369.004 173.313 369.251 172.373 369.251 171.08V170.66C369.251 169.193 368.998 168.147 368.491 167.52C367.984 166.88 367.191 166.56 366.111 166.56ZM379.376 165.08C379.576 165.08 379.789 165.093 380.016 165.12C380.256 165.133 380.462 165.16 380.636 165.2L380.416 166.82C380.242 166.78 380.049 166.747 379.836 166.72C379.636 166.693 379.442 166.68 379.256 166.68C378.709 166.68 378.196 166.833 377.716 167.14C377.236 167.433 376.849 167.853 376.556 168.4C376.276 168.933 376.136 169.56 376.136 170.28V176H374.376V165.28H375.816L376.016 167.24H376.096C376.442 166.653 376.889 166.147 377.436 165.72C377.982 165.293 378.629 165.08 379.376 165.08ZM391.567 170.62C391.567 172.393 391.114 173.767 390.207 174.74C389.314 175.713 388.1 176.2 386.567 176.2C385.62 176.2 384.774 175.987 384.027 175.56C383.294 175.12 382.714 174.487 382.287 173.66C381.86 172.82 381.647 171.807 381.647 170.62C381.647 168.847 382.094 167.48 382.987 166.52C383.88 165.56 385.094 165.08 386.627 165.08C387.6 165.08 388.454 165.3 389.187 165.74C389.934 166.167 390.514 166.793 390.927 167.62C391.354 168.433 391.567 169.433 391.567 170.62ZM383.467 170.62C383.467 171.887 383.714 172.893 384.207 173.64C384.714 174.373 385.514 174.74 386.607 174.74C387.687 174.74 388.48 174.373 388.987 173.64C389.494 172.893 389.747 171.887 389.747 170.62C389.747 169.353 389.494 168.36 388.987 167.64C388.48 166.92 387.68 166.56 386.587 166.56C385.494 166.56 384.7 166.92 384.207 167.64C383.714 168.36 383.467 169.353 383.467 170.62ZM403.316 165.28V176H401.876L401.616 174.58H401.536C401.19 175.14 400.71 175.553 400.096 175.82C399.483 176.073 398.83 176.2 398.136 176.2C396.843 176.2 395.87 175.893 395.216 175.28C394.563 174.653 394.236 173.66 394.236 172.3V165.28H396.016V172.18C396.016 173.887 396.81 174.74 398.396 174.74C399.583 174.74 400.403 174.407 400.856 173.74C401.323 173.073 401.556 172.113 401.556 170.86V165.28H403.316ZM411.88 165.08C413.16 165.08 414.126 165.393 414.78 166.02C415.433 166.633 415.76 167.633 415.76 169.02V176H414.02V169.14C414.02 167.42 413.22 166.56 411.62 166.56C410.433 166.56 409.613 166.893 409.16 167.56C408.706 168.227 408.48 169.187 408.48 170.44V176H406.72V165.28H408.14L408.4 166.74H408.5C408.846 166.18 409.326 165.767 409.94 165.5C410.553 165.22 411.2 165.08 411.88 165.08ZM422.883 176.2C421.549 176.2 420.483 175.74 419.683 174.82C418.883 173.887 418.483 172.5 418.483 170.66C418.483 168.82 418.883 167.433 419.683 166.5C420.496 165.553 421.569 165.08 422.903 165.08C423.729 165.08 424.403 165.233 424.923 165.54C425.456 165.847 425.889 166.22 426.223 166.66H426.343C426.329 166.487 426.303 166.233 426.263 165.9C426.236 165.553 426.223 165.28 426.223 165.08V160.8H427.983V176H426.563L426.303 174.56H426.223C425.903 175.013 425.476 175.4 424.943 175.72C424.409 176.04 423.723 176.2 422.883 176.2ZM423.163 174.74C424.296 174.74 425.089 174.433 425.543 173.82C426.009 173.193 426.243 172.253 426.243 171V170.68C426.243 169.347 426.023 168.327 425.583 167.62C425.143 166.9 424.329 166.54 423.143 166.54C422.196 166.54 421.483 166.92 421.003 167.68C420.536 168.427 420.303 169.433 420.303 170.7C420.303 171.98 420.536 172.973 421.003 173.68C421.483 174.387 422.203 174.74 423.163 174.74Z" fill="black"/>
<path d="M18.3984 209.184L12.7734 214.809C12.5625 215.02 12.2812 215.125 12 215.125C11.6836 215.125 11.4023 215.02 11.1914 214.809L5.56641 209.184C5.10938 208.762 5.10938 208.023 5.56641 207.602C5.98828 207.145 6.72656 207.145 7.14844 207.602L10.875 211.293V200.5C10.875 199.902 11.3672 199.41 11.9648 199.41C12.5273 199.41 13.125 199.902 13.125 200.5V211.293L16.8164 207.602C17.2383 207.145 17.9766 207.145 18.3984 207.602C18.8555 208.023 18.8555 208.762 18.3984 209.184Z" fill="black"/>
<rect y="234" width="90" height="48" rx="6" fill="#26374A"/>
<path d="M18.08 251.72C19.2933 251.72 20.3067 251.833 21.12 252.06C21.9467 252.287 22.5667 252.667 22.98 253.2C23.4067 253.72 23.62 254.413 23.62 255.28C23.62 255.84 23.52 256.34 23.32 256.78C23.12 257.207 22.8267 257.567 22.44 257.86C22.0667 258.14 21.6 258.327 21.04 258.42V258.52C21.6133 258.613 22.1267 258.787 22.58 259.04C23.0333 259.28 23.3933 259.633 23.66 260.1C23.9267 260.567 24.06 261.173 24.06 261.92C24.06 262.787 23.8533 263.527 23.44 264.14C23.04 264.74 22.46 265.2 21.7 265.52C20.9533 265.84 20.06 266 19.02 266H13.9V251.72H18.08ZM18.44 257.68C19.56 257.68 20.3267 257.5 20.74 257.14C21.1667 256.78 21.38 256.247 21.38 255.54C21.38 254.82 21.1267 254.307 20.62 254C20.1133 253.693 19.3067 253.54 18.2 253.54H16.06V257.68H18.44ZM16.06 259.44V264.2H18.68C19.84 264.2 20.6467 263.973 21.1 263.52C21.5533 263.067 21.78 262.467 21.78 261.72C21.78 261.267 21.68 260.867 21.48 260.52C21.28 260.173 20.94 259.907 20.46 259.72C19.9933 259.533 19.3533 259.44 18.54 259.44H16.06ZM36.065 255.22V266H34.365L34.065 264.58H33.965C33.7383 264.953 33.445 265.26 33.085 265.5C32.725 265.74 32.3317 265.913 31.905 266.02C31.4783 266.14 31.0383 266.2 30.585 266.2C29.745 266.2 29.0317 266.067 28.445 265.8C27.8717 265.52 27.4317 265.093 27.125 264.52C26.8317 263.933 26.685 263.187 26.685 262.28V255.22H28.825V261.96C28.825 262.8 28.9983 263.427 29.345 263.84C29.705 264.253 30.2583 264.46 31.005 264.46C31.7517 264.46 32.3383 264.313 32.765 264.02C33.1917 263.727 33.4917 263.3 33.665 262.74C33.8517 262.167 33.945 261.48 33.945 260.68V255.22H36.065ZM43.2627 264.48C43.5427 264.48 43.8293 264.453 44.1227 264.4C44.416 264.347 44.6693 264.287 44.8827 264.22V265.82C44.656 265.927 44.3493 266.013 43.9627 266.08C43.576 266.16 43.1893 266.2 42.8027 266.2C42.216 266.2 41.676 266.1 41.1827 265.9C40.7027 265.7 40.316 265.353 40.0227 264.86C39.7293 264.367 39.5827 263.68 39.5827 262.8V256.84H38.0827V255.88L39.6627 255.08L40.4027 252.8H41.7027V255.22H44.7827V256.84H41.7027V262.76C41.7027 263.347 41.8427 263.78 42.1227 264.06C42.416 264.34 42.796 264.48 43.2627 264.48ZM50.9189 264.48C51.1989 264.48 51.4856 264.453 51.7789 264.4C52.0722 264.347 52.3256 264.287 52.5389 264.22V265.82C52.3122 265.927 52.0056 266.013 51.6189 266.08C51.2322 266.16 50.8456 266.2 50.4589 266.2C49.8722 266.2 49.3322 266.1 48.8389 265.9C48.3589 265.7 47.9722 265.353 47.6789 264.86C47.3856 264.367 47.2389 263.68 47.2389 262.8V256.84H45.7389V255.88L47.3189 255.08L48.0589 252.8H49.3589V255.22H52.4389V256.84H49.3589V262.76C49.3589 263.347 49.4989 263.78 49.7789 264.06C50.0722 264.34 50.4522 264.48 50.9189 264.48ZM64.1952 260.6C64.1952 261.493 64.0752 262.287 63.8352 262.98C63.5952 263.673 63.2552 264.26 62.8152 264.74C62.3752 265.22 61.8418 265.587 61.2152 265.84C60.5885 266.08 59.8818 266.2 59.0952 266.2C58.3752 266.2 57.7085 266.08 57.0952 265.84C56.4818 265.587 55.9485 265.22 55.4952 264.74C55.0552 264.26 54.7085 263.673 54.4552 262.98C54.2018 262.287 54.0752 261.487 54.0752 260.58C54.0752 259.393 54.2752 258.387 54.6752 257.56C55.0885 256.733 55.6752 256.107 56.4352 255.68C57.2085 255.24 58.1152 255.02 59.1552 255.02C60.1418 255.02 61.0085 255.24 61.7552 255.68C62.5152 256.107 63.1085 256.733 63.5352 257.56C63.9752 258.387 64.1952 259.4 64.1952 260.6ZM56.2552 260.6C56.2552 261.4 56.3552 262.093 56.5552 262.68C56.7552 263.253 57.0685 263.693 57.4952 264C57.9218 264.307 58.4685 264.46 59.1352 264.46C59.8018 264.46 60.3485 264.307 60.7752 264C61.2018 263.693 61.5152 263.253 61.7152 262.68C61.9152 262.093 62.0152 261.4 62.0152 260.6C62.0152 259.773 61.9085 259.08 61.6952 258.52C61.4952 257.96 61.1818 257.533 60.7552 257.24C60.3418 256.933 59.7952 256.78 59.1152 256.78C58.1152 256.78 57.3885 257.113 56.9352 257.78C56.4818 258.447 56.2552 259.387 56.2552 260.6ZM72.3427 255.02C73.596 255.02 74.556 255.333 75.2227 255.96C75.8893 256.587 76.2227 257.593 76.2227 258.98V266H74.1227V259.28C74.1227 258.44 73.9427 257.813 73.5827 257.4C73.236 256.973 72.676 256.76 71.9027 256.76C70.8093 256.76 70.0493 257.087 69.6227 257.74C69.2093 258.393 69.0027 259.333 69.0027 260.56V266H66.8827V255.22H68.5627L68.8627 256.66H68.9827C69.2227 256.287 69.516 255.98 69.8627 255.74C70.2093 255.5 70.596 255.32 71.0227 255.2C71.4493 255.08 71.8893 255.02 72.3427 255.02Z" fill="white"/>
</svg>
