<svg width="513" height="228" viewBox="0 0 513 228" fill="none" xmlns="http://www.w3.org/2000/svg">
<rect y="6" width="48" height="48" rx="24" fill="#F1F2F3"/>
<path d="M70.6757 30.46H75.3757V37.46C74.6557 37.7133 73.9224 37.9 73.1757 38.02C72.4424 38.14 71.6024 38.2 70.6557 38.2C69.269 38.2 68.0957 37.9067 67.1357 37.32C66.189 36.72 65.469 35.8733 64.9757 34.78C64.4824 33.6733 64.2357 32.3667 64.2357 30.86C64.2357 29.3667 64.509 28.0733 65.0557 26.98C65.6024 25.8867 66.3957 25.04 67.4357 24.44C68.4757 23.8267 69.729 23.52 71.1957 23.52C71.9424 23.52 72.649 23.5933 73.3157 23.74C73.9957 23.8867 74.6224 24.0933 75.1957 24.36L74.5357 25.92C74.069 25.6933 73.5357 25.5 72.9357 25.34C72.349 25.18 71.7424 25.1 71.1157 25.1C70.0624 25.1 69.1624 25.3333 68.4157 25.8C67.669 26.2667 67.0957 26.9333 66.6957 27.8C66.2957 28.6533 66.0957 29.6733 66.0957 30.86C66.0957 31.9933 66.2624 33 66.5957 33.88C66.929 34.7467 67.4557 35.4267 68.1757 35.92C68.909 36.4 69.8624 36.64 71.0357 36.64C71.4224 36.64 71.7624 36.6267 72.0557 36.6C72.3624 36.56 72.6424 36.5133 72.8957 36.46C73.149 36.4067 73.3824 36.3533 73.5957 36.3V32.06H70.6757V30.46ZM83.1276 27.08C83.3142 27.08 83.5142 27.0933 83.7276 27.12C83.9409 27.1333 84.1276 27.16 84.2876 27.2L84.0876 28.82C83.9276 28.78 83.7476 28.7467 83.5476 28.72C83.3609 28.6933 83.1809 28.68 83.0076 28.68C82.6209 28.68 82.2542 28.7667 81.9076 28.94C81.5609 29.1133 81.2476 29.36 80.9676 29.68C80.7009 29.9867 80.4876 30.36 80.3276 30.8C80.1676 31.24 80.0876 31.7333 80.0876 32.28V38H78.3476V27.28L79.7676 27.28L79.9676 29.24H80.0476C80.2609 28.84 80.5142 28.48 80.8076 28.16C81.1142 27.8267 81.4609 27.5667 81.8476 27.38C82.2342 27.18 82.6609 27.08 83.1276 27.08ZM89.649 27.1C90.8757 27.1 91.789 27.3867 92.389 27.96C93.0023 28.5333 93.309 29.4467 93.309 30.7V38H92.049L91.709 36.48H91.629C91.3357 36.8667 91.0357 37.1933 90.729 37.46C90.4357 37.7133 90.089 37.9 89.689 38.02C89.3023 38.14 88.8223 38.2 88.249 38.2C87.649 38.2 87.109 38.0867 86.629 37.86C86.149 37.6333 85.769 37.2867 85.489 36.82C85.209 36.34 85.069 35.74 85.069 35.02C85.069 33.9533 85.4623 33.1333 86.249 32.56C87.0357 31.9733 88.249 31.6533 89.889 31.6L91.589 31.54V30.9C91.589 30.0067 91.409 29.3867 91.049 29.04C90.7023 28.6933 90.2023 28.52 89.549 28.52C89.029 28.52 88.529 28.6067 88.049 28.78C87.5823 28.94 87.1357 29.1267 86.709 29.34L86.169 28.02C86.6223 27.7667 87.149 27.5533 87.749 27.38C88.349 27.1933 88.9823 27.1 89.649 27.1ZM90.129 32.82C88.9023 32.8733 88.049 33.0867 87.569 33.46C87.1023 33.8333 86.869 34.36 86.869 35.04C86.869 35.64 87.0357 36.08 87.369 36.36C87.7023 36.64 88.1357 36.78 88.669 36.78C89.4957 36.78 90.189 36.5333 90.749 36.04C91.309 35.5333 91.589 34.76 91.589 33.72V32.76L90.129 32.82ZM94.854 27.28H96.734L98.874 33.38C99.0073 33.74 99.1273 34.0867 99.234 34.42C99.3407 34.7533 99.434 35.08 99.514 35.4C99.594 35.7067 99.654 36.0067 99.694 36.3H99.754C99.834 35.9667 99.9473 35.5333 100.094 35C100.254 34.4533 100.421 33.9067 100.594 33.36L102.614 27.28H104.514L100.174 39.48C99.934 40.1467 99.6473 40.7267 99.314 41.22C98.994 41.7267 98.6007 42.1133 98.134 42.38C97.6673 42.66 97.1073 42.8 96.454 42.8C96.1607 42.8 95.894 42.78 95.654 42.74C95.4273 42.7133 95.234 42.68 95.074 42.64V41.24C95.2073 41.2667 95.374 41.2933 95.574 41.32C95.774 41.3467 95.9807 41.36 96.194 41.36C96.5807 41.36 96.914 41.28 97.194 41.12C97.474 40.9733 97.714 40.7533 97.914 40.46C98.114 40.18 98.2807 39.8467 98.414 39.46L98.914 38.04L94.854 27.28ZM112.721 35.04C112.721 35.7333 112.555 36.3133 112.221 36.78C111.901 37.2467 111.441 37.6 110.841 37.84C110.241 38.08 109.521 38.2 108.681 38.2C107.975 38.2 107.361 38.14 106.841 38.02C106.335 37.9 105.888 37.7333 105.501 37.52V35.92C105.915 36.1333 106.408 36.3333 106.981 36.52C107.555 36.6933 108.135 36.78 108.721 36.78C109.535 36.78 110.121 36.64 110.481 36.36C110.855 36.0667 111.041 35.68 111.041 35.2C111.041 34.9333 110.968 34.6933 110.821 34.48C110.688 34.2667 110.441 34.0533 110.081 33.84C109.735 33.6267 109.228 33.3867 108.561 33.12C107.921 32.8533 107.368 32.5867 106.901 32.32C106.448 32.0533 106.095 31.7333 105.841 31.36C105.601 30.9867 105.481 30.5067 105.481 29.92C105.481 29.0133 105.828 28.3133 106.521 27.82C107.228 27.3267 108.148 27.08 109.281 27.08C109.895 27.08 110.468 27.1467 111.001 27.28C111.535 27.4 112.041 27.5733 112.521 27.8L111.941 29.2C111.661 29.0667 111.368 28.9533 111.061 28.86C110.755 28.7533 110.441 28.6733 110.121 28.62C109.815 28.5533 109.501 28.52 109.181 28.52C108.528 28.52 108.028 28.64 107.681 28.88C107.335 29.1067 107.161 29.42 107.161 29.82C107.161 30.1133 107.241 30.3667 107.401 30.58C107.561 30.7933 107.821 31 108.181 31.2C108.555 31.3867 109.061 31.6067 109.701 31.86C110.341 32.1133 110.888 32.3733 111.341 32.64C111.795 32.9067 112.135 33.2333 112.361 33.62C112.601 33.9933 112.721 34.4667 112.721 35.04ZM119.204 38.2C118.298 38.2 117.498 38.0067 116.804 37.62C116.111 37.2333 115.564 36.6333 115.164 35.82C114.778 35.0067 114.584 33.9667 114.584 32.7C114.584 31.38 114.791 30.3067 115.204 29.48C115.618 28.6533 116.178 28.0467 116.884 27.66C117.604 27.2733 118.418 27.08 119.324 27.08C119.844 27.08 120.344 27.14 120.824 27.26C121.318 27.3667 121.718 27.5 122.024 27.66L121.484 29.12C121.178 29 120.818 28.8867 120.404 28.78C120.004 28.6733 119.631 28.62 119.284 28.62C118.631 28.62 118.091 28.7733 117.664 29.08C117.238 29.3867 116.918 29.84 116.704 30.44C116.491 31.04 116.384 31.7867 116.384 32.68C116.384 33.5333 116.491 34.26 116.704 34.86C116.918 35.46 117.231 35.9133 117.644 36.22C118.071 36.5267 118.591 36.68 119.204 36.68C119.751 36.68 120.238 36.62 120.664 36.5C121.091 36.38 121.484 36.2333 121.844 36.06V37.62C121.498 37.8067 121.118 37.9467 120.704 38.04C120.291 38.1467 119.791 38.2 119.204 38.2ZM128.086 27.1C129.313 27.1 130.226 27.3867 130.826 27.96C131.44 28.5333 131.746 29.4467 131.746 30.7V38H130.486L130.146 36.48H130.066C129.773 36.8667 129.473 37.1933 129.166 37.46C128.873 37.7133 128.526 37.9 128.126 38.02C127.74 38.14 127.26 38.2 126.686 38.2C126.086 38.2 125.546 38.0867 125.066 37.86C124.586 37.6333 124.206 37.2867 123.926 36.82C123.646 36.34 123.506 35.74 123.506 35.02C123.506 33.9533 123.9 33.1333 124.686 32.56C125.473 31.9733 126.686 31.6533 128.326 31.6L130.026 31.54V30.9C130.026 30.0067 129.846 29.3867 129.486 29.04C129.14 28.6933 128.64 28.52 127.986 28.52C127.466 28.52 126.966 28.6067 126.486 28.78C126.02 28.94 125.573 29.1267 125.146 29.34L124.606 28.02C125.06 27.7667 125.586 27.5533 126.186 27.38C126.786 27.1933 127.42 27.1 128.086 27.1ZM128.566 32.82C127.34 32.8733 126.486 33.0867 126.006 33.46C125.54 33.8333 125.306 34.36 125.306 35.04C125.306 35.64 125.473 36.08 125.806 36.36C126.14 36.64 126.573 36.78 127.106 36.78C127.933 36.78 128.626 36.5333 129.186 36.04C129.746 35.5333 130.026 34.76 130.026 33.72V32.76L128.566 32.82ZM136.591 38H134.851V22.8H136.591V38ZM143.674 27.08C144.54 27.08 145.287 27.28 145.914 27.68C146.54 28.08 147.02 28.6467 147.354 29.38C147.7 30.1 147.874 30.9467 147.874 31.92V32.98H140.994C141.02 34.1933 141.307 35.12 141.854 35.76C142.4 36.3867 143.167 36.7 144.154 36.7C144.794 36.7 145.36 36.64 145.854 36.52C146.36 36.3867 146.88 36.2 147.414 35.96V37.5C146.894 37.74 146.38 37.9133 145.874 38.02C145.38 38.14 144.78 38.2 144.074 38.2C143.114 38.2 142.267 37.9933 141.534 37.58C140.8 37.1667 140.227 36.5533 139.814 35.74C139.4 34.9133 139.194 33.9067 139.194 32.72C139.194 31.5467 139.38 30.54 139.754 29.7C140.127 28.86 140.647 28.2133 141.314 27.76C141.994 27.3067 142.78 27.08 143.674 27.08ZM143.674 28.52C142.9 28.52 142.287 28.7933 141.834 29.34C141.38 29.8733 141.114 30.62 141.034 31.58H146.074C146.074 30.9667 145.987 30.4333 145.814 29.98C145.64 29.5267 145.374 29.1733 145.014 28.92C144.667 28.6533 144.22 28.52 143.674 28.52ZM159.514 29.24C160.98 29.24 162.147 29.6067 163.014 30.34C163.88 31.0733 164.314 32.1067 164.314 33.44C164.314 34.92 163.84 36.0867 162.894 36.94C161.96 37.78 160.654 38.2 158.974 38.2C158.24 38.2 157.547 38.1333 156.894 38C156.254 37.8667 155.714 37.6733 155.274 37.42V35.76C155.754 36.0533 156.334 36.2867 157.014 36.46C157.707 36.62 158.367 36.7 158.994 36.7C160.047 36.7 160.894 36.4533 161.534 35.96C162.187 35.4533 162.514 34.6733 162.514 33.62C162.514 32.6867 162.227 31.9733 161.654 31.48C161.08 30.9733 160.174 30.72 158.934 30.72C158.56 30.72 158.134 30.7533 157.654 30.82C157.174 30.8867 156.787 30.9533 156.494 31.02L155.614 30.46L156.154 23.72H163.314V25.32H157.654L157.314 29.46C157.54 29.42 157.847 29.3733 158.234 29.32C158.62 29.2667 159.047 29.24 159.514 29.24ZM175.919 30.84C175.919 32.3733 175.759 33.6933 175.439 34.8C175.119 35.8933 174.612 36.7333 173.919 37.32C173.226 37.9067 172.306 38.2 171.159 38.2C169.546 38.2 168.352 37.5533 167.579 36.26C166.819 34.9533 166.439 33.1467 166.439 30.84C166.439 29.2933 166.592 27.9733 166.899 26.88C167.219 25.7867 167.726 24.9533 168.419 24.38C169.112 23.7933 170.026 23.5 171.159 23.5C172.759 23.5 173.952 24.1467 174.739 25.44C175.526 26.72 175.919 28.52 175.919 30.84ZM168.199 30.84C168.199 32.8 168.419 34.2667 168.859 35.24C169.312 36.2133 170.079 36.7 171.159 36.7C172.226 36.7 172.986 36.22 173.439 35.26C173.906 34.2867 174.139 32.8133 174.139 30.84C174.139 28.8933 173.906 27.4333 173.439 26.46C172.986 25.4867 172.226 25 171.159 25C170.079 25 169.312 25.4867 168.859 26.46C168.419 27.4333 168.199 28.8933 168.199 30.84Z" fill="black"/>
<path d="M207.523 31.0586L201.898 36.6836C201.688 36.8945 201.406 37 201.125 37C200.809 37 200.527 36.8945 200.316 36.6836C199.859 36.2617 199.859 35.5234 200.316 35.1016L204.008 31.375H193.25C192.617 31.375 192.125 30.8828 192.125 30.25C192.125 29.6523 192.617 29.125 193.25 29.125H204.008L200.316 25.4336C199.859 25.0117 199.859 24.2734 200.316 23.8516C200.738 23.3945 201.477 23.3945 201.898 23.8516L207.523 29.4766C207.98 29.8984 207.98 30.6367 207.523 31.0586Z" fill="black"/>
<path d="M224.015 33.42V31.86H228.855V33.42H224.015ZM230.46 33.42V31.86H235.3V33.42H230.46ZM241.605 27.08C242.312 27.08 242.945 27.2133 243.505 27.48C244.079 27.7467 244.565 28.1533 244.965 28.7H245.065L245.305 27.28H246.705V38.18C246.705 39.7133 246.312 40.8667 245.525 41.64C244.752 42.4133 243.545 42.8 241.905 42.8C240.332 42.8 239.045 42.5733 238.045 42.12V40.5C239.099 41.06 240.419 41.34 242.005 41.34C242.925 41.34 243.645 41.0667 244.165 40.52C244.699 39.9867 244.965 39.2533 244.965 38.32V37.9C244.965 37.74 244.972 37.5133 244.985 37.22C244.999 36.9133 245.012 36.7 245.025 36.58H244.945C244.225 37.66 243.119 38.2 241.625 38.2C240.239 38.2 239.152 37.7133 238.365 36.74C237.592 35.7667 237.205 34.4067 237.205 32.66C237.205 30.9533 237.592 29.6 238.365 28.6C239.152 27.5867 240.232 27.08 241.605 27.08ZM241.845 28.56C240.952 28.56 240.259 28.92 239.765 29.64C239.272 30.3467 239.025 31.36 239.025 32.68C239.025 34 239.265 35.0133 239.745 35.72C240.239 36.4133 240.952 36.76 241.885 36.76C242.965 36.76 243.752 36.4733 244.245 35.9C244.739 35.3133 244.985 34.3733 244.985 33.08V32.66C244.985 31.1933 244.732 30.1467 244.225 29.52C243.719 28.88 242.925 28.56 241.845 28.56ZM254.41 38.2C253.463 38.2 252.617 38.0067 251.87 37.62C251.137 37.2333 250.557 36.6333 250.13 35.82C249.717 35.0067 249.51 33.9667 249.51 32.7C249.51 31.38 249.73 30.3067 250.17 29.48C250.61 28.6533 251.203 28.0467 251.95 27.66C252.71 27.2733 253.57 27.08 254.53 27.08C255.077 27.08 255.603 27.14 256.11 27.26C256.617 27.3667 257.03 27.5 257.35 27.66L256.81 29.12C256.49 29 256.117 28.8867 255.69 28.78C255.263 28.6733 254.863 28.62 254.49 28.62C252.383 28.62 251.33 29.9733 251.33 32.68C251.33 33.9733 251.583 34.9667 252.09 35.66C252.61 36.34 253.377 36.68 254.39 36.68C254.977 36.68 255.49 36.62 255.93 36.5C256.383 36.38 256.797 36.2333 257.17 36.06V37.62C256.81 37.8067 256.41 37.9467 255.97 38.04C255.543 38.1467 255.023 38.2 254.41 38.2ZM263.52 38.2C262.186 38.2 261.12 37.74 260.32 36.82C259.52 35.8867 259.12 34.5 259.12 32.66C259.12 30.82 259.52 29.4333 260.32 28.5C261.133 27.5533 262.206 27.08 263.54 27.08C264.366 27.08 265.04 27.2333 265.56 27.54C266.093 27.8467 266.526 28.22 266.86 28.66H266.98C266.966 28.4867 266.94 28.2333 266.9 27.9C266.873 27.5533 266.86 27.28 266.86 27.08V22.8H268.62V38H267.2L266.94 36.56H266.86C266.54 37.0133 266.113 37.4 265.58 37.72C265.046 38.04 264.36 38.2 263.52 38.2ZM263.8 36.74C264.933 36.74 265.726 36.4333 266.18 35.82C266.646 35.1933 266.88 34.2533 266.88 33V32.68C266.88 31.3467 266.66 30.3267 266.22 29.62C265.78 28.9 264.966 28.54 263.78 28.54C262.833 28.54 262.12 28.92 261.64 29.68C261.173 30.4267 260.94 31.4333 260.94 32.7C260.94 33.98 261.173 34.9733 261.64 35.68C262.12 36.3867 262.84 36.74 263.8 36.74ZM279.004 35.04C279.004 36.08 278.618 36.8667 277.844 37.4C277.071 37.9333 276.031 38.2 274.724 38.2C273.978 38.2 273.331 38.14 272.784 38.02C272.251 37.9 271.778 37.7333 271.364 37.52V35.92C271.791 36.1333 272.304 36.3333 272.904 36.52C273.518 36.6933 274.138 36.78 274.764 36.78C275.658 36.78 276.304 36.64 276.704 36.36C277.104 36.0667 277.304 35.68 277.304 35.2C277.304 34.9333 277.231 34.6933 277.084 34.48C276.938 34.2667 276.671 34.0533 276.284 33.84C275.911 33.6267 275.371 33.3867 274.664 33.12C273.971 32.8533 273.378 32.5867 272.884 32.32C272.391 32.0533 272.011 31.7333 271.744 31.36C271.478 30.9867 271.344 30.5067 271.344 29.92C271.344 29.0133 271.711 28.3133 272.444 27.82C273.191 27.3267 274.164 27.08 275.364 27.08C276.018 27.08 276.624 27.1467 277.184 27.28C277.758 27.4 278.291 27.5733 278.784 27.8L278.184 29.2C277.731 29.0133 277.258 28.8533 276.764 28.72C276.271 28.5867 275.764 28.52 275.244 28.52C274.524 28.52 273.971 28.64 273.584 28.88C273.211 29.1067 273.024 29.42 273.024 29.82C273.024 30.1133 273.111 30.3667 273.284 30.58C273.458 30.78 273.744 30.98 274.144 31.18C274.558 31.3667 275.104 31.5933 275.784 31.86C276.464 32.1133 277.044 32.3733 277.524 32.64C278.004 32.9067 278.371 33.2333 278.624 33.62C278.878 33.9933 279.004 34.4667 279.004 35.04ZM280.695 33.42V31.86L285.535 31.86V33.42L280.695 33.42ZM292.34 38.2C291.393 38.2 290.547 38.0067 289.8 37.62C289.067 37.2333 288.487 36.6333 288.06 35.82C287.647 35.0067 287.44 33.9667 287.44 32.7C287.44 31.38 287.66 30.3067 288.1 29.48C288.54 28.6533 289.133 28.0467 289.88 27.66C290.64 27.2733 291.5 27.08 292.46 27.08C293.007 27.08 293.533 27.14 294.04 27.26C294.547 27.3667 294.96 27.5 295.28 27.66L294.74 29.12C294.42 29 294.047 28.8867 293.62 28.78C293.193 28.6733 292.793 28.62 292.42 28.62C290.313 28.62 289.26 29.9733 289.26 32.68C289.26 33.9733 289.513 34.9667 290.02 35.66C290.54 36.34 291.307 36.68 292.32 36.68C292.907 36.68 293.42 36.62 293.86 36.5C294.313 36.38 294.727 36.2333 295.1 36.06V37.62C294.74 37.8067 294.34 37.9467 293.9 38.04C293.473 38.1467 292.953 38.2 292.34 38.2ZM306.969 32.62C306.969 34.3933 306.516 35.7667 305.609 36.74C304.716 37.7133 303.503 38.2 301.969 38.2C301.023 38.2 300.176 37.9867 299.429 37.56C298.696 37.12 298.116 36.4867 297.689 35.66C297.263 34.82 297.049 33.8067 297.049 32.62C297.049 30.8467 297.496 29.48 298.389 28.52C299.283 27.56 300.496 27.08 302.029 27.08C303.003 27.08 303.856 27.3 304.589 27.74C305.336 28.1667 305.916 28.7933 306.329 29.62C306.756 30.4333 306.969 31.4333 306.969 32.62ZM298.869 32.62C298.869 33.8867 299.116 34.8933 299.609 35.64C300.116 36.3733 300.916 36.74 302.009 36.74C303.089 36.74 303.883 36.3733 304.389 35.64C304.896 34.8933 305.149 33.8867 305.149 32.62C305.149 31.3533 304.896 30.36 304.389 29.64C303.883 28.92 303.083 28.56 301.989 28.56C300.896 28.56 300.103 28.92 299.609 29.64C299.116 30.36 298.869 31.3533 298.869 32.62ZM311.519 38H309.759V22.8H311.519V38ZM324.235 32.62C324.235 34.3933 323.782 35.7667 322.875 36.74C321.982 37.7133 320.768 38.2 319.235 38.2C318.288 38.2 317.442 37.9867 316.695 37.56C315.962 37.12 315.382 36.4867 314.955 35.66C314.528 34.82 314.315 33.8067 314.315 32.62C314.315 30.8467 314.762 29.48 315.655 28.52C316.548 27.56 317.762 27.08 319.295 27.08C320.268 27.08 321.122 27.3 321.855 27.74C322.602 28.1667 323.182 28.7933 323.595 29.62C324.022 30.4333 324.235 31.4333 324.235 32.62ZM316.135 32.62C316.135 33.8867 316.382 34.8933 316.875 35.64C317.382 36.3733 318.182 36.74 319.275 36.74C320.355 36.74 321.148 36.3733 321.655 35.64C322.162 34.8933 322.415 33.8867 322.415 32.62C322.415 31.3533 322.162 30.36 321.655 29.64C321.148 28.92 320.348 28.56 319.255 28.56C318.162 28.56 317.368 28.92 316.875 29.64C316.382 30.36 316.135 31.3533 316.135 32.62ZM332.024 27.08C332.224 27.08 332.438 27.0933 332.664 27.12C332.904 27.1333 333.111 27.16 333.284 27.2L333.064 28.82C332.891 28.78 332.698 28.7467 332.484 28.72C332.284 28.6933 332.091 28.68 331.904 28.68C331.358 28.68 330.844 28.8333 330.364 29.14C329.884 29.4333 329.498 29.8533 329.204 30.4C328.924 30.9333 328.784 31.56 328.784 32.28V38H327.024V27.28L328.464 27.28L328.664 29.24H328.744C329.091 28.6533 329.538 28.1467 330.084 27.72C330.631 27.2933 331.278 27.08 332.024 27.08ZM334.386 33.42V31.86L339.226 31.86V33.42L334.386 33.42ZM345.531 27.08C346.238 27.08 346.871 27.2133 347.431 27.48C348.005 27.7467 348.491 28.1533 348.891 28.7H348.991L349.231 27.28H350.631V38.18C350.631 39.7133 350.238 40.8667 349.451 41.64C348.678 42.4133 347.471 42.8 345.831 42.8C344.258 42.8 342.971 42.5733 341.971 42.12V40.5C343.025 41.06 344.345 41.34 345.931 41.34C346.851 41.34 347.571 41.0667 348.091 40.52C348.625 39.9867 348.891 39.2533 348.891 38.32V37.9C348.891 37.74 348.898 37.5133 348.911 37.22C348.925 36.9133 348.938 36.7 348.951 36.58H348.871C348.151 37.66 347.045 38.2 345.551 38.2C344.165 38.2 343.078 37.7133 342.291 36.74C341.518 35.7667 341.131 34.4067 341.131 32.66C341.131 30.9533 341.518 29.6 342.291 28.6C343.078 27.5867 344.158 27.08 345.531 27.08ZM345.771 28.56C344.878 28.56 344.185 28.92 343.691 29.64C343.198 30.3467 342.951 31.36 342.951 32.68C342.951 34 343.191 35.0133 343.671 35.72C344.165 36.4133 344.878 36.76 345.811 36.76C346.891 36.76 347.678 36.4733 348.171 35.9C348.665 35.3133 348.911 34.3733 348.911 33.08V32.66C348.911 31.1933 348.658 30.1467 348.151 29.52C347.645 28.88 346.851 28.56 345.771 28.56ZM359.036 27.08C359.236 27.08 359.449 27.0933 359.676 27.12C359.916 27.1333 360.123 27.16 360.296 27.2L360.076 28.82C359.903 28.78 359.709 28.7467 359.496 28.72C359.296 28.6933 359.103 28.68 358.916 28.68C358.369 28.68 357.856 28.8333 357.376 29.14C356.896 29.4333 356.509 29.8533 356.216 30.4C355.936 30.9333 355.796 31.56 355.796 32.28V38H354.036V27.28H355.476L355.676 29.24H355.756C356.103 28.6533 356.549 28.1467 357.096 27.72C357.643 27.2933 358.289 27.08 359.036 27.08ZM365.967 27.1C367.274 27.1 368.24 27.3867 368.867 27.96C369.494 28.5333 369.807 29.4467 369.807 30.7V38H368.527L368.187 36.48H368.107C367.64 37.0667 367.147 37.5 366.627 37.78C366.12 38.06 365.414 38.2 364.507 38.2C363.534 38.2 362.727 37.9467 362.087 37.44C361.447 36.92 361.127 36.1133 361.127 35.02C361.127 33.9533 361.547 33.1333 362.387 32.56C363.227 31.9733 364.52 31.6533 366.267 31.6L368.087 31.54V30.9C368.087 30.0067 367.894 29.3867 367.507 29.04C367.12 28.6933 366.574 28.52 365.867 28.52C365.307 28.52 364.774 28.6067 364.267 28.78C363.76 28.94 363.287 29.1267 362.847 29.34L362.307 28.02C362.774 27.7667 363.327 27.5533 363.967 27.38C364.607 27.1933 365.274 27.1 365.967 27.1ZM366.487 32.82C365.154 32.8733 364.227 33.0867 363.707 33.46C363.2 33.8333 362.947 34.36 362.947 35.04C362.947 35.64 363.127 36.08 363.487 36.36C363.86 36.64 364.334 36.78 364.907 36.78C365.814 36.78 366.567 36.5333 367.167 36.04C367.767 35.5333 368.067 34.76 368.067 33.72V32.76L366.487 32.82ZM371.438 27.28L373.318 27.28L375.638 33.38C375.838 33.9133 376.018 34.4267 376.178 34.92C376.338 35.4 376.458 35.86 376.538 36.3H376.618C376.698 35.9667 376.825 35.5333 376.998 35C377.171 34.4533 377.351 33.9067 377.538 33.36L379.718 27.28H381.618L376.998 39.48C376.625 40.4933 376.138 41.3 375.538 41.9C374.951 42.5 374.138 42.8 373.098 42.8C372.778 42.8 372.498 42.78 372.258 42.74C372.018 42.7133 371.811 42.68 371.638 42.64V41.24C371.785 41.2667 371.958 41.2933 372.158 41.32C372.371 41.3467 372.591 41.36 372.818 41.36C373.431 41.36 373.925 41.1867 374.298 40.84C374.685 40.4933 374.985 40.0333 375.198 39.46L375.758 38.04L371.438 27.28ZM390.293 35.04C390.293 36.08 389.907 36.8667 389.133 37.4C388.36 37.9333 387.32 38.2 386.013 38.2C385.267 38.2 384.62 38.14 384.073 38.02C383.54 37.9 383.067 37.7333 382.653 37.52V35.92C383.08 36.1333 383.593 36.3333 384.193 36.52C384.807 36.6933 385.427 36.78 386.053 36.78C386.947 36.78 387.593 36.64 387.993 36.36C388.393 36.0667 388.593 35.68 388.593 35.2C388.593 34.9333 388.52 34.6933 388.373 34.48C388.227 34.2667 387.96 34.0533 387.573 33.84C387.2 33.6267 386.66 33.3867 385.953 33.12C385.26 32.8533 384.667 32.5867 384.173 32.32C383.68 32.0533 383.3 31.7333 383.033 31.36C382.767 30.9867 382.633 30.5067 382.633 29.92C382.633 29.0133 383 28.3133 383.733 27.82C384.48 27.3267 385.453 27.08 386.653 27.08C387.307 27.08 387.913 27.1467 388.473 27.28C389.047 27.4 389.58 27.5733 390.073 27.8L389.473 29.2C389.02 29.0133 388.547 28.8533 388.053 28.72C387.56 28.5867 387.053 28.52 386.533 28.52C385.813 28.52 385.26 28.64 384.873 28.88C384.5 29.1067 384.313 29.42 384.313 29.82C384.313 30.1133 384.4 30.3667 384.573 30.58C384.747 30.78 385.033 30.98 385.433 31.18C385.847 31.3667 386.393 31.5933 387.073 31.86C387.753 32.1133 388.333 32.3733 388.813 32.64C389.293 32.9067 389.66 33.2333 389.913 33.62C390.167 33.9933 390.293 34.4667 390.293 35.04ZM397.184 38.2C396.237 38.2 395.39 38.0067 394.644 37.62C393.91 37.2333 393.33 36.6333 392.904 35.82C392.49 35.0067 392.284 33.9667 392.284 32.7C392.284 31.38 392.504 30.3067 392.944 29.48C393.384 28.6533 393.977 28.0467 394.724 27.66C395.484 27.2733 396.344 27.08 397.304 27.08C397.85 27.08 398.377 27.14 398.884 27.26C399.39 27.3667 399.804 27.5 400.124 27.66L399.584 29.12C399.264 29 398.89 28.8867 398.464 28.78C398.037 28.6733 397.637 28.62 397.264 28.62C395.157 28.62 394.104 29.9733 394.104 32.68C394.104 33.9733 394.357 34.9667 394.864 35.66C395.384 36.34 396.15 36.68 397.164 36.68C397.75 36.68 398.264 36.62 398.704 36.5C399.157 36.38 399.57 36.2333 399.944 36.06V37.62C399.584 37.8067 399.184 37.9467 398.744 38.04C398.317 38.1467 397.797 38.2 397.184 38.2ZM406.553 27.1C407.86 27.1 408.826 27.3867 409.453 27.96C410.08 28.5333 410.393 29.4467 410.393 30.7V38H409.113L408.773 36.48H408.693C408.226 37.0667 407.733 37.5 407.213 37.78C406.706 38.06 406 38.2 405.093 38.2C404.12 38.2 403.313 37.9467 402.673 37.44C402.033 36.92 401.713 36.1133 401.713 35.02C401.713 33.9533 402.133 33.1333 402.973 32.56C403.813 31.9733 405.106 31.6533 406.853 31.6L408.673 31.54V30.9C408.673 30.0067 408.48 29.3867 408.093 29.04C407.706 28.6933 407.16 28.52 406.453 28.52C405.893 28.52 405.36 28.6067 404.853 28.78C404.346 28.94 403.873 29.1267 403.433 29.34L402.893 28.02C403.36 27.7667 403.913 27.5533 404.553 27.38C405.193 27.1933 405.86 27.1 406.553 27.1ZM407.073 32.82C405.74 32.8733 404.813 33.0867 404.293 33.46C403.786 33.8333 403.533 34.36 403.533 35.04C403.533 35.64 403.713 36.08 404.073 36.36C404.446 36.64 404.92 36.78 405.493 36.78C406.4 36.78 407.153 36.5333 407.753 36.04C408.353 35.5333 408.653 34.76 408.653 33.72V32.76L407.073 32.82ZM415.464 38H413.704V22.8H415.464V38ZM423 27.08C423.92 27.08 424.707 27.28 425.36 27.68C426.027 28.08 426.533 28.6467 426.88 29.38C427.24 30.1 427.42 30.9467 427.42 31.92V32.98L420.08 32.98C420.107 34.1933 420.413 35.12 421 35.76C421.6 36.3867 422.433 36.7 423.5 36.7C424.18 36.7 424.78 36.64 425.3 36.52C425.833 36.3867 426.38 36.2 426.94 35.96V37.5C426.393 37.74 425.853 37.9133 425.32 38.02C424.787 38.14 424.153 38.2 423.42 38.2C422.407 38.2 421.507 37.9933 420.72 37.58C419.947 37.1667 419.34 36.5533 418.9 35.74C418.473 34.9133 418.26 33.9067 418.26 32.72C418.26 31.5467 418.453 30.54 418.84 29.7C419.24 28.86 419.793 28.2133 420.5 27.76C421.22 27.3067 422.053 27.08 423 27.08ZM422.98 28.52C422.14 28.52 421.473 28.7933 420.98 29.34C420.5 29.8733 420.213 30.62 420.12 31.58H425.58C425.567 30.6733 425.353 29.94 424.94 29.38C424.527 28.8067 423.873 28.52 422.98 28.52ZM429.249 33.42V31.86H434.089V33.42H429.249ZM440.395 29.24C441.861 29.24 443.028 29.6067 443.895 30.34C444.761 31.0733 445.195 32.1067 445.195 33.44C445.195 34.92 444.721 36.0867 443.775 36.94C442.841 37.78 441.535 38.2 439.855 38.2C439.121 38.2 438.428 38.1333 437.775 38C437.135 37.8667 436.595 37.6733 436.155 37.42V35.76C436.635 36.0533 437.215 36.2867 437.895 36.46C438.588 36.62 439.248 36.7 439.875 36.7C440.928 36.7 441.775 36.4533 442.415 35.96C443.068 35.4533 443.395 34.6733 443.395 33.62C443.395 32.6867 443.108 31.9733 442.535 31.48C441.961 30.9733 441.055 30.72 439.815 30.72C439.441 30.72 439.015 30.7533 438.535 30.82C438.055 30.8867 437.668 30.9533 437.375 31.02L436.495 30.46L437.035 23.72H444.195V25.32H438.535L438.195 29.46C438.421 29.42 438.728 29.3733 439.115 29.32C439.501 29.2667 439.928 29.24 440.395 29.24ZM456.8 30.84C456.8 32.3733 456.64 33.6933 456.32 34.8C456 35.8933 455.493 36.7333 454.8 37.32C454.107 37.9067 453.187 38.2 452.04 38.2C450.427 38.2 449.233 37.5533 448.46 36.26C447.7 34.9533 447.32 33.1467 447.32 30.84C447.32 29.2933 447.473 27.9733 447.78 26.88C448.1 25.7867 448.607 24.9533 449.3 24.38C449.993 23.7933 450.907 23.5 452.04 23.5C453.64 23.5 454.833 24.1467 455.62 25.44C456.407 26.72 456.8 28.52 456.8 30.84ZM449.08 30.84C449.08 32.8 449.3 34.2667 449.74 35.24C450.193 36.2133 450.96 36.7 452.04 36.7C453.107 36.7 453.867 36.22 454.32 35.26C454.787 34.2867 455.02 32.8133 455.02 30.84C455.02 28.8933 454.787 27.4333 454.32 26.46C453.867 25.4867 453.107 25 452.04 25C450.96 25 450.193 25.4867 449.74 26.46C449.3 27.4333 449.08 28.8933 449.08 30.84Z" fill="black"/>
<rect y="90" width="48" height="48" rx="24" fill="#D6D9DD"/>
<path d="M70.953 114.46H75.653V121.46C74.933 121.713 74.1997 121.9 73.453 122.02C72.7197 122.14 71.8797 122.2 70.933 122.2C69.5464 122.2 68.373 121.907 67.413 121.32C66.4664 120.72 65.7464 119.873 65.253 118.78C64.7597 117.673 64.513 116.367 64.513 114.86C64.513 113.367 64.7864 112.073 65.333 110.98C65.8797 109.887 66.673 109.04 67.713 108.44C68.753 107.827 70.0064 107.52 71.473 107.52C72.2197 107.52 72.9264 107.593 73.593 107.74C74.273 107.887 74.8997 108.093 75.473 108.36L74.813 109.92C74.3464 109.693 73.813 109.5 73.213 109.34C72.6264 109.18 72.0197 109.1 71.393 109.1C70.3397 109.1 69.4397 109.333 68.693 109.8C67.9464 110.267 67.373 110.933 66.973 111.8C66.573 112.653 66.373 113.673 66.373 114.86C66.373 115.993 66.5397 117 66.873 117.88C67.2064 118.747 67.733 119.427 68.453 119.92C69.1864 120.4 70.1397 120.64 71.313 120.64C71.6997 120.64 72.0397 120.627 72.333 120.6C72.6397 120.56 72.9197 120.513 73.173 120.46C73.4264 120.407 73.6597 120.353 73.873 120.3V116.06H70.953V114.46ZM83.4049 111.08C83.5916 111.08 83.7916 111.093 84.0049 111.12C84.2183 111.133 84.4049 111.16 84.5649 111.2L84.3649 112.82C84.2049 112.78 84.0249 112.747 83.8249 112.72C83.6383 112.693 83.4583 112.68 83.2849 112.68C82.8983 112.68 82.5316 112.767 82.1849 112.94C81.8383 113.113 81.5249 113.36 81.2449 113.68C80.9783 113.987 80.7649 114.36 80.6049 114.8C80.4449 115.24 80.3649 115.733 80.3649 116.28V122H78.6249V111.28H80.0449L80.2449 113.24H80.3249C80.5383 112.84 80.7916 112.48 81.0849 112.16C81.3916 111.827 81.7383 111.567 82.1249 111.38C82.5116 111.18 82.9383 111.08 83.4049 111.08ZM89.9263 111.1C91.153 111.1 92.0663 111.387 92.6663 111.96C93.2797 112.533 93.5863 113.447 93.5863 114.7V122H92.3263L91.9863 120.48H91.9063C91.613 120.867 91.313 121.193 91.0063 121.46C90.713 121.713 90.3663 121.9 89.9663 122.02C89.5797 122.14 89.0997 122.2 88.5263 122.2C87.9263 122.2 87.3863 122.087 86.9063 121.86C86.4263 121.633 86.0463 121.287 85.7663 120.82C85.4863 120.34 85.3463 119.74 85.3463 119.02C85.3463 117.953 85.7397 117.133 86.5263 116.56C87.313 115.973 88.5263 115.653 90.1663 115.6L91.8663 115.54V114.9C91.8663 114.007 91.6863 113.387 91.3263 113.04C90.9797 112.693 90.4797 112.52 89.8263 112.52C89.3063 112.52 88.8063 112.607 88.3263 112.78C87.8597 112.94 87.413 113.127 86.9863 113.34L86.4463 112.02C86.8997 111.767 87.4263 111.553 88.0263 111.38C88.6263 111.193 89.2597 111.1 89.9263 111.1ZM90.4063 116.82C89.1797 116.873 88.3263 117.087 87.8463 117.46C87.3797 117.833 87.1463 118.36 87.1463 119.04C87.1463 119.64 87.313 120.08 87.6463 120.36C87.9797 120.64 88.413 120.78 88.9463 120.78C89.773 120.78 90.4663 120.533 91.0263 120.04C91.5863 119.533 91.8663 118.76 91.8663 117.72V116.76L90.4063 116.82ZM95.1313 111.28H97.0113L99.1513 117.38C99.2847 117.74 99.4047 118.087 99.5113 118.42C99.618 118.753 99.7113 119.08 99.7913 119.4C99.8713 119.707 99.9313 120.007 99.9713 120.3H100.031C100.111 119.967 100.225 119.533 100.371 119C100.531 118.453 100.698 117.907 100.871 117.36L102.891 111.28H104.791L100.451 123.48C100.211 124.147 99.9247 124.727 99.5913 125.22C99.2713 125.727 98.878 126.113 98.4113 126.38C97.9447 126.66 97.3847 126.8 96.7313 126.8C96.438 126.8 96.1713 126.78 95.9313 126.74C95.7047 126.713 95.5113 126.68 95.3513 126.64V125.24C95.4847 125.267 95.6513 125.293 95.8513 125.32C96.0513 125.347 96.258 125.36 96.4713 125.36C96.858 125.36 97.1913 125.28 97.4713 125.12C97.7513 124.973 97.9913 124.753 98.1913 124.46C98.3913 124.18 98.558 123.847 98.6913 123.46L99.1913 122.04L95.1313 111.28ZM112.999 119.04C112.999 119.733 112.832 120.313 112.499 120.78C112.179 121.247 111.719 121.6 111.119 121.84C110.519 122.08 109.799 122.2 108.959 122.2C108.252 122.2 107.639 122.14 107.119 122.02C106.612 121.9 106.165 121.733 105.779 121.52V119.92C106.192 120.133 106.685 120.333 107.259 120.52C107.832 120.693 108.412 120.78 108.999 120.78C109.812 120.78 110.399 120.64 110.759 120.36C111.132 120.067 111.319 119.68 111.319 119.2C111.319 118.933 111.245 118.693 111.099 118.48C110.965 118.267 110.719 118.053 110.359 117.84C110.012 117.627 109.505 117.387 108.839 117.12C108.199 116.853 107.645 116.587 107.179 116.32C106.725 116.053 106.372 115.733 106.119 115.36C105.879 114.987 105.759 114.507 105.759 113.92C105.759 113.013 106.105 112.313 106.799 111.82C107.505 111.327 108.425 111.08 109.559 111.08C110.172 111.08 110.745 111.147 111.279 111.28C111.812 111.4 112.319 111.573 112.799 111.8L112.219 113.2C111.939 113.067 111.645 112.953 111.339 112.86C111.032 112.753 110.719 112.673 110.399 112.62C110.092 112.553 109.779 112.52 109.459 112.52C108.805 112.52 108.305 112.64 107.959 112.88C107.612 113.107 107.439 113.42 107.439 113.82C107.439 114.113 107.519 114.367 107.679 114.58C107.839 114.793 108.099 115 108.459 115.2C108.832 115.387 109.339 115.607 109.979 115.86C110.619 116.113 111.165 116.373 111.619 116.64C112.072 116.907 112.412 117.233 112.639 117.62C112.879 117.993 112.999 118.467 112.999 119.04ZM119.482 122.2C118.575 122.2 117.775 122.007 117.082 121.62C116.388 121.233 115.842 120.633 115.442 119.82C115.055 119.007 114.862 117.967 114.862 116.7C114.862 115.38 115.068 114.307 115.482 113.48C115.895 112.653 116.455 112.047 117.162 111.66C117.882 111.273 118.695 111.08 119.602 111.08C120.122 111.08 120.622 111.14 121.102 111.26C121.595 111.367 121.995 111.5 122.302 111.66L121.762 113.12C121.455 113 121.095 112.887 120.682 112.78C120.282 112.673 119.908 112.62 119.562 112.62C118.908 112.62 118.368 112.773 117.942 113.08C117.515 113.387 117.195 113.84 116.982 114.44C116.768 115.04 116.662 115.787 116.662 116.68C116.662 117.533 116.768 118.26 116.982 118.86C117.195 119.46 117.508 119.913 117.922 120.22C118.348 120.527 118.868 120.68 119.482 120.68C120.028 120.68 120.515 120.62 120.942 120.5C121.368 120.38 121.762 120.233 122.122 120.06V121.62C121.775 121.807 121.395 121.947 120.982 122.04C120.568 122.147 120.068 122.2 119.482 122.2ZM128.364 111.1C129.59 111.1 130.504 111.387 131.104 111.96C131.717 112.533 132.024 113.447 132.024 114.7V122H130.764L130.424 120.48H130.344C130.05 120.867 129.75 121.193 129.444 121.46C129.15 121.713 128.804 121.9 128.404 122.02C128.017 122.14 127.537 122.2 126.964 122.2C126.364 122.2 125.824 122.087 125.344 121.86C124.864 121.633 124.484 121.287 124.204 120.82C123.924 120.34 123.784 119.74 123.784 119.02C123.784 117.953 124.177 117.133 124.964 116.56C125.75 115.973 126.964 115.653 128.604 115.6L130.304 115.54V114.9C130.304 114.007 130.124 113.387 129.764 113.04C129.417 112.693 128.917 112.52 128.264 112.52C127.744 112.52 127.244 112.607 126.764 112.78C126.297 112.94 125.85 113.127 125.424 113.34L124.884 112.02C125.337 111.767 125.864 111.553 126.464 111.38C127.064 111.193 127.697 111.1 128.364 111.1ZM128.844 116.82C127.617 116.873 126.764 117.087 126.284 117.46C125.817 117.833 125.584 118.36 125.584 119.04C125.584 119.64 125.75 120.08 126.084 120.36C126.417 120.64 126.85 120.78 127.384 120.78C128.21 120.78 128.904 120.533 129.464 120.04C130.024 119.533 130.304 118.76 130.304 117.72V116.76L128.844 116.82ZM136.869 122H135.129V106.8H136.869V122ZM143.951 111.08C144.818 111.08 145.565 111.28 146.191 111.68C146.818 112.08 147.298 112.647 147.631 113.38C147.978 114.1 148.151 114.947 148.151 115.92V116.98H141.271C141.298 118.193 141.585 119.12 142.131 119.76C142.678 120.387 143.445 120.7 144.431 120.7C145.071 120.7 145.638 120.64 146.131 120.52C146.638 120.387 147.158 120.2 147.691 119.96V121.5C147.171 121.74 146.658 121.913 146.151 122.02C145.658 122.14 145.058 122.2 144.351 122.2C143.391 122.2 142.545 121.993 141.811 121.58C141.078 121.167 140.505 120.553 140.091 119.74C139.678 118.913 139.471 117.907 139.471 116.72C139.471 115.547 139.658 114.54 140.031 113.7C140.405 112.86 140.925 112.213 141.591 111.76C142.271 111.307 143.058 111.08 143.951 111.08ZM143.951 112.52C143.178 112.52 142.565 112.793 142.111 113.34C141.658 113.873 141.391 114.62 141.311 115.58H146.351C146.351 114.967 146.265 114.433 146.091 113.98C145.918 113.527 145.651 113.173 145.291 112.92C144.945 112.653 144.498 112.52 143.951 112.52ZM161.391 122H159.671V112.02C159.671 111.447 159.678 110.987 159.691 110.64C159.704 110.293 159.724 109.933 159.751 109.56C159.538 109.773 159.344 109.953 159.171 110.1C158.998 110.247 158.778 110.433 158.511 110.66L156.991 111.9L156.071 110.72L159.931 107.72H161.391V122ZM176.196 114.84C176.196 116.373 176.036 117.693 175.716 118.8C175.396 119.893 174.89 120.733 174.196 121.32C173.503 121.907 172.583 122.2 171.436 122.2C169.823 122.2 168.63 121.553 167.856 120.26C167.096 118.953 166.716 117.147 166.716 114.84C166.716 113.293 166.87 111.973 167.176 110.88C167.496 109.787 168.003 108.953 168.696 108.38C169.39 107.793 170.303 107.5 171.436 107.5C173.036 107.5 174.23 108.147 175.016 109.44C175.803 110.72 176.196 112.52 176.196 114.84ZM168.476 114.84C168.476 116.8 168.696 118.267 169.136 119.24C169.59 120.213 170.356 120.7 171.436 120.7C172.503 120.7 173.263 120.22 173.716 119.26C174.183 118.287 174.416 116.813 174.416 114.84C174.416 112.893 174.183 111.433 173.716 110.46C173.263 109.487 172.503 109 171.436 109C170.356 109 169.59 109.487 169.136 110.46C168.696 111.433 168.476 112.893 168.476 114.84ZM187.642 114.84C187.642 116.373 187.482 117.693 187.162 118.8C186.842 119.893 186.335 120.733 185.642 121.32C184.948 121.907 184.028 122.2 182.882 122.2C181.268 122.2 180.075 121.553 179.302 120.26C178.542 118.953 178.162 117.147 178.162 114.84C178.162 113.293 178.315 111.973 178.622 110.88C178.942 109.787 179.448 108.953 180.142 108.38C180.835 107.793 181.748 107.5 182.882 107.5C184.482 107.5 185.675 108.147 186.462 109.44C187.248 110.72 187.642 112.52 187.642 114.84ZM179.922 114.84C179.922 116.8 180.142 118.267 180.582 119.24C181.035 120.213 181.802 120.7 182.882 120.7C183.948 120.7 184.708 120.22 185.162 119.26C185.628 118.287 185.862 116.813 185.862 114.84C185.862 112.893 185.628 111.433 185.162 110.46C184.708 109.487 183.948 109 182.882 109C181.802 109 181.035 109.487 180.582 110.46C180.142 111.433 179.922 112.893 179.922 114.84Z" fill="black"/>
<path d="M219.523 115.059L213.898 120.684C213.688 120.895 213.406 121 213.125 121C212.809 121 212.527 120.895 212.316 120.684C211.859 120.262 211.859 119.523 212.316 119.102L216.008 115.375H205.25C204.617 115.375 204.125 114.883 204.125 114.25C204.125 113.652 204.617 113.125 205.25 113.125H216.008L212.316 109.434C211.859 109.012 211.859 108.273 212.316 107.852C212.738 107.395 213.477 107.395 213.898 107.852L219.523 113.477C219.98 113.898 219.98 114.637 219.523 115.059Z" fill="black"/>
<path d="M236.292 117.42V115.86H241.132V117.42H236.292ZM242.738 117.42V115.86H247.578V117.42H242.738ZM253.883 111.08C254.589 111.08 255.223 111.213 255.783 111.48C256.356 111.747 256.843 112.153 257.243 112.7H257.343L257.583 111.28H258.983V122.18C258.983 123.713 258.589 124.867 257.803 125.64C257.029 126.413 255.823 126.8 254.183 126.8C252.609 126.8 251.323 126.573 250.323 126.12V124.5C251.376 125.06 252.696 125.34 254.283 125.34C255.203 125.34 255.923 125.067 256.443 124.52C256.976 123.987 257.243 123.253 257.243 122.32V121.9C257.243 121.74 257.249 121.513 257.263 121.22C257.276 120.913 257.289 120.7 257.303 120.58H257.223C256.503 121.66 255.396 122.2 253.903 122.2C252.516 122.2 251.429 121.713 250.643 120.74C249.869 119.767 249.483 118.407 249.483 116.66C249.483 114.953 249.869 113.6 250.643 112.6C251.429 111.587 252.509 111.08 253.883 111.08ZM254.123 112.56C253.229 112.56 252.536 112.92 252.043 113.64C251.549 114.347 251.303 115.36 251.303 116.68C251.303 118 251.543 119.013 252.023 119.72C252.516 120.413 253.229 120.76 254.163 120.76C255.243 120.76 256.029 120.473 256.523 119.9C257.016 119.313 257.263 118.373 257.263 117.08V116.66C257.263 115.193 257.009 114.147 256.503 113.52C255.996 112.88 255.203 112.56 254.123 112.56ZM266.688 122.2C265.741 122.2 264.894 122.007 264.148 121.62C263.414 121.233 262.834 120.633 262.408 119.82C261.994 119.007 261.788 117.967 261.788 116.7C261.788 115.38 262.008 114.307 262.448 113.48C262.888 112.653 263.481 112.047 264.228 111.66C264.988 111.273 265.848 111.08 266.808 111.08C267.354 111.08 267.881 111.14 268.388 111.26C268.894 111.367 269.308 111.5 269.628 111.66L269.088 113.12C268.768 113 268.394 112.887 267.968 112.78C267.541 112.673 267.141 112.62 266.768 112.62C264.661 112.62 263.608 113.973 263.608 116.68C263.608 117.973 263.861 118.967 264.368 119.66C264.888 120.34 265.654 120.68 266.668 120.68C267.254 120.68 267.768 120.62 268.208 120.5C268.661 120.38 269.074 120.233 269.448 120.06V121.62C269.088 121.807 268.688 121.947 268.248 122.04C267.821 122.147 267.301 122.2 266.688 122.2ZM275.797 122.2C274.464 122.2 273.397 121.74 272.597 120.82C271.797 119.887 271.397 118.5 271.397 116.66C271.397 114.82 271.797 113.433 272.597 112.5C273.41 111.553 274.484 111.08 275.817 111.08C276.644 111.08 277.317 111.233 277.837 111.54C278.37 111.847 278.804 112.22 279.137 112.66H279.257C279.244 112.487 279.217 112.233 279.177 111.9C279.15 111.553 279.137 111.28 279.137 111.08V106.8H280.897V122H279.477L279.217 120.56H279.137C278.817 121.013 278.39 121.4 277.857 121.72C277.324 122.04 276.637 122.2 275.797 122.2ZM276.077 120.74C277.21 120.74 278.004 120.433 278.457 119.82C278.924 119.193 279.157 118.253 279.157 117V116.68C279.157 115.347 278.937 114.327 278.497 113.62C278.057 112.9 277.244 112.54 276.057 112.54C275.11 112.54 274.397 112.92 273.917 113.68C273.45 114.427 273.217 115.433 273.217 116.7C273.217 117.98 273.45 118.973 273.917 119.68C274.397 120.387 275.117 120.74 276.077 120.74ZM291.282 119.04C291.282 120.08 290.895 120.867 290.122 121.4C289.348 121.933 288.308 122.2 287.002 122.2C286.255 122.2 285.608 122.14 285.062 122.02C284.528 121.9 284.055 121.733 283.642 121.52V119.92C284.068 120.133 284.582 120.333 285.182 120.52C285.795 120.693 286.415 120.78 287.042 120.78C287.935 120.78 288.582 120.64 288.982 120.36C289.382 120.067 289.582 119.68 289.582 119.2C289.582 118.933 289.508 118.693 289.362 118.48C289.215 118.267 288.948 118.053 288.562 117.84C288.188 117.627 287.648 117.387 286.942 117.12C286.248 116.853 285.655 116.587 285.162 116.32C284.668 116.053 284.288 115.733 284.022 115.36C283.755 114.987 283.622 114.507 283.622 113.92C283.622 113.013 283.988 112.313 284.722 111.82C285.468 111.327 286.442 111.08 287.642 111.08C288.295 111.08 288.902 111.147 289.462 111.28C290.035 111.4 290.568 111.573 291.062 111.8L290.462 113.2C290.008 113.013 289.535 112.853 289.042 112.72C288.548 112.587 288.042 112.52 287.522 112.52C286.802 112.52 286.248 112.64 285.862 112.88C285.488 113.107 285.302 113.42 285.302 113.82C285.302 114.113 285.388 114.367 285.562 114.58C285.735 114.78 286.022 114.98 286.422 115.18C286.835 115.367 287.382 115.593 288.062 115.86C288.742 116.113 289.322 116.373 289.802 116.64C290.282 116.907 290.648 117.233 290.902 117.62C291.155 117.993 291.282 118.467 291.282 119.04ZM292.972 117.42V115.86H297.812V117.42H292.972ZM304.617 122.2C303.671 122.2 302.824 122.007 302.077 121.62C301.344 121.233 300.764 120.633 300.337 119.82C299.924 119.007 299.717 117.967 299.717 116.7C299.717 115.38 299.937 114.307 300.377 113.48C300.817 112.653 301.411 112.047 302.157 111.66C302.917 111.273 303.777 111.08 304.737 111.08C305.284 111.08 305.811 111.14 306.317 111.26C306.824 111.367 307.237 111.5 307.557 111.66L307.017 113.12C306.697 113 306.324 112.887 305.897 112.78C305.471 112.673 305.071 112.62 304.697 112.62C302.591 112.62 301.537 113.973 301.537 116.68C301.537 117.973 301.791 118.967 302.297 119.66C302.817 120.34 303.584 120.68 304.597 120.68C305.184 120.68 305.697 120.62 306.137 120.5C306.591 120.38 307.004 120.233 307.377 120.06V121.62C307.017 121.807 306.617 121.947 306.177 122.04C305.751 122.147 305.231 122.2 304.617 122.2ZM319.247 116.62C319.247 118.393 318.793 119.767 317.887 120.74C316.993 121.713 315.78 122.2 314.247 122.2C313.3 122.2 312.453 121.987 311.707 121.56C310.973 121.12 310.393 120.487 309.967 119.66C309.54 118.82 309.327 117.807 309.327 116.62C309.327 114.847 309.773 113.48 310.667 112.52C311.56 111.56 312.773 111.08 314.307 111.08C315.28 111.08 316.133 111.3 316.867 111.74C317.613 112.167 318.193 112.793 318.607 113.62C319.033 114.433 319.247 115.433 319.247 116.62ZM311.147 116.62C311.147 117.887 311.393 118.893 311.887 119.64C312.393 120.373 313.193 120.74 314.287 120.74C315.367 120.74 316.16 120.373 316.667 119.64C317.173 118.893 317.427 117.887 317.427 116.62C317.427 115.353 317.173 114.36 316.667 113.64C316.16 112.92 315.36 112.56 314.267 112.56C313.173 112.56 312.38 112.92 311.887 113.64C311.393 114.36 311.147 115.353 311.147 116.62ZM323.796 122H322.036V106.8H323.796V122ZM336.512 116.62C336.512 118.393 336.059 119.767 335.152 120.74C334.259 121.713 333.046 122.2 331.512 122.2C330.566 122.2 329.719 121.987 328.972 121.56C328.239 121.12 327.659 120.487 327.232 119.66C326.806 118.82 326.592 117.807 326.592 116.62C326.592 114.847 327.039 113.48 327.932 112.52C328.826 111.56 330.039 111.08 331.572 111.08C332.546 111.08 333.399 111.3 334.132 111.74C334.879 112.167 335.459 112.793 335.872 113.62C336.299 114.433 336.512 115.433 336.512 116.62ZM328.412 116.62C328.412 117.887 328.659 118.893 329.152 119.64C329.659 120.373 330.459 120.74 331.552 120.74C332.632 120.74 333.426 120.373 333.932 119.64C334.439 118.893 334.692 117.887 334.692 116.62C334.692 115.353 334.439 114.36 333.932 113.64C333.426 112.92 332.626 112.56 331.532 112.56C330.439 112.56 329.646 112.92 329.152 113.64C328.659 114.36 328.412 115.353 328.412 116.62ZM344.302 111.08C344.502 111.08 344.715 111.093 344.942 111.12C345.182 111.133 345.388 111.16 345.562 111.2L345.342 112.82C345.168 112.78 344.975 112.747 344.762 112.72C344.562 112.693 344.368 112.68 344.182 112.68C343.635 112.68 343.122 112.833 342.642 113.14C342.162 113.433 341.775 113.853 341.482 114.4C341.202 114.933 341.062 115.56 341.062 116.28V122H339.302V111.28H340.742L340.942 113.24H341.022C341.368 112.653 341.815 112.147 342.362 111.72C342.908 111.293 343.555 111.08 344.302 111.08ZM346.663 117.42V115.86H351.503V117.42H346.663ZM357.809 111.08C358.515 111.08 359.149 111.213 359.709 111.48C360.282 111.747 360.769 112.153 361.169 112.7H361.269L361.509 111.28L362.909 111.28V122.18C362.909 123.713 362.515 124.867 361.729 125.64C360.955 126.413 359.749 126.8 358.109 126.8C356.535 126.8 355.249 126.573 354.249 126.12V124.5C355.302 125.06 356.622 125.34 358.209 125.34C359.129 125.34 359.849 125.067 360.369 124.52C360.902 123.987 361.169 123.253 361.169 122.32V121.9C361.169 121.74 361.175 121.513 361.189 121.22C361.202 120.913 361.215 120.7 361.229 120.58H361.149C360.429 121.66 359.322 122.2 357.829 122.2C356.442 122.2 355.355 121.713 354.569 120.74C353.795 119.767 353.409 118.407 353.409 116.66C353.409 114.953 353.795 113.6 354.569 112.6C355.355 111.587 356.435 111.08 357.809 111.08ZM358.049 112.56C357.155 112.56 356.462 112.92 355.969 113.64C355.475 114.347 355.229 115.36 355.229 116.68C355.229 118 355.469 119.013 355.949 119.72C356.442 120.413 357.155 120.76 358.089 120.76C359.169 120.76 359.955 120.473 360.449 119.9C360.942 119.313 361.189 118.373 361.189 117.08V116.66C361.189 115.193 360.935 114.147 360.429 113.52C359.922 112.88 359.129 112.56 358.049 112.56ZM371.313 111.08C371.513 111.08 371.727 111.093 371.953 111.12C372.193 111.133 372.4 111.16 372.573 111.2L372.353 112.82C372.18 112.78 371.987 112.747 371.773 112.72C371.573 112.693 371.38 112.68 371.193 112.68C370.647 112.68 370.133 112.833 369.653 113.14C369.173 113.433 368.787 113.853 368.493 114.4C368.213 114.933 368.073 115.56 368.073 116.28V122H366.313V111.28H367.753L367.953 113.24H368.033C368.38 112.653 368.827 112.147 369.373 111.72C369.92 111.293 370.567 111.08 371.313 111.08ZM378.244 111.1C379.551 111.1 380.518 111.387 381.144 111.96C381.771 112.533 382.084 113.447 382.084 114.7V122H380.804L380.464 120.48H380.384C379.918 121.067 379.424 121.5 378.904 121.78C378.398 122.06 377.691 122.2 376.784 122.2C375.811 122.2 375.004 121.947 374.364 121.44C373.724 120.92 373.404 120.113 373.404 119.02C373.404 117.953 373.824 117.133 374.664 116.56C375.504 115.973 376.798 115.653 378.544 115.6L380.364 115.54V114.9C380.364 114.007 380.171 113.387 379.784 113.04C379.398 112.693 378.851 112.52 378.144 112.52C377.584 112.52 377.051 112.607 376.544 112.78C376.038 112.94 375.564 113.127 375.124 113.34L374.584 112.02C375.051 111.767 375.604 111.553 376.244 111.38C376.884 111.193 377.551 111.1 378.244 111.1ZM378.764 116.82C377.431 116.873 376.504 117.087 375.984 117.46C375.478 117.833 375.224 118.36 375.224 119.04C375.224 119.64 375.404 120.08 375.764 120.36C376.138 120.64 376.611 120.78 377.184 120.78C378.091 120.78 378.844 120.533 379.444 120.04C380.044 119.533 380.344 118.76 380.344 117.72V116.76L378.764 116.82ZM383.715 111.28H385.595L387.915 117.38C388.115 117.913 388.295 118.427 388.455 118.92C388.615 119.4 388.735 119.86 388.815 120.3H388.895C388.975 119.967 389.102 119.533 389.275 119C389.449 118.453 389.629 117.907 389.815 117.36L391.995 111.28H393.895L389.275 123.48C388.902 124.493 388.415 125.3 387.815 125.9C387.229 126.5 386.415 126.8 385.375 126.8C385.055 126.8 384.775 126.78 384.535 126.74C384.295 126.713 384.089 126.68 383.915 126.64V125.24C384.062 125.267 384.235 125.293 384.435 125.32C384.649 125.347 384.869 125.36 385.095 125.36C385.709 125.36 386.202 125.187 386.575 124.84C386.962 124.493 387.262 124.033 387.475 123.46L388.035 122.04L383.715 111.28ZM402.571 119.04C402.571 120.08 402.184 120.867 401.411 121.4C400.637 121.933 399.597 122.2 398.291 122.2C397.544 122.2 396.897 122.14 396.351 122.02C395.817 121.9 395.344 121.733 394.931 121.52V119.92C395.357 120.133 395.871 120.333 396.471 120.52C397.084 120.693 397.704 120.78 398.331 120.78C399.224 120.78 399.871 120.64 400.271 120.36C400.671 120.067 400.871 119.68 400.871 119.2C400.871 118.933 400.797 118.693 400.651 118.48C400.504 118.267 400.237 118.053 399.851 117.84C399.477 117.627 398.937 117.387 398.231 117.12C397.537 116.853 396.944 116.587 396.451 116.32C395.957 116.053 395.577 115.733 395.311 115.36C395.044 114.987 394.911 114.507 394.911 113.92C394.911 113.013 395.277 112.313 396.011 111.82C396.757 111.327 397.731 111.08 398.931 111.08C399.584 111.08 400.191 111.147 400.751 111.28C401.324 111.4 401.857 111.573 402.351 111.8L401.751 113.2C401.297 113.013 400.824 112.853 400.331 112.72C399.837 112.587 399.331 112.52 398.811 112.52C398.091 112.52 397.537 112.64 397.151 112.88C396.777 113.107 396.591 113.42 396.591 113.82C396.591 114.113 396.677 114.367 396.851 114.58C397.024 114.78 397.311 114.98 397.711 115.18C398.124 115.367 398.671 115.593 399.351 115.86C400.031 116.113 400.611 116.373 401.091 116.64C401.571 116.907 401.937 117.233 402.191 117.62C402.444 117.993 402.571 118.467 402.571 119.04ZM409.461 122.2C408.514 122.2 407.668 122.007 406.921 121.62C406.188 121.233 405.608 120.633 405.181 119.82C404.768 119.007 404.561 117.967 404.561 116.7C404.561 115.38 404.781 114.307 405.221 113.48C405.661 112.653 406.254 112.047 407.001 111.66C407.761 111.273 408.621 111.08 409.581 111.08C410.128 111.08 410.654 111.14 411.161 111.26C411.668 111.367 412.081 111.5 412.401 111.66L411.861 113.12C411.541 113 411.168 112.887 410.741 112.78C410.314 112.673 409.914 112.62 409.541 112.62C407.434 112.62 406.381 113.973 406.381 116.68C406.381 117.973 406.634 118.967 407.141 119.66C407.661 120.34 408.428 120.68 409.441 120.68C410.028 120.68 410.541 120.62 410.981 120.5C411.434 120.38 411.848 120.233 412.221 120.06V121.62C411.861 121.807 411.461 121.947 411.021 122.04C410.594 122.147 410.074 122.2 409.461 122.2ZM418.83 111.1C420.137 111.1 421.104 111.387 421.73 111.96C422.357 112.533 422.67 113.447 422.67 114.7V122H421.39L421.05 120.48H420.97C420.504 121.067 420.01 121.5 419.49 121.78C418.984 122.06 418.277 122.2 417.37 122.2C416.397 122.2 415.59 121.947 414.95 121.44C414.31 120.92 413.99 120.113 413.99 119.02C413.99 117.953 414.41 117.133 415.25 116.56C416.09 115.973 417.384 115.653 419.13 115.6L420.95 115.54V114.9C420.95 114.007 420.757 113.387 420.37 113.04C419.984 112.693 419.437 112.52 418.73 112.52C418.17 112.52 417.637 112.607 417.13 112.78C416.624 112.94 416.15 113.127 415.71 113.34L415.17 112.02C415.637 111.767 416.19 111.553 416.83 111.38C417.47 111.193 418.137 111.1 418.83 111.1ZM419.35 116.82C418.017 116.873 417.09 117.087 416.57 117.46C416.064 117.833 415.81 118.36 415.81 119.04C415.81 119.64 415.99 120.08 416.35 120.36C416.724 120.64 417.197 120.78 417.77 120.78C418.677 120.78 419.43 120.533 420.03 120.04C420.63 119.533 420.93 118.76 420.93 117.72V116.76L419.35 116.82ZM427.741 122H425.981V106.8H427.741V122ZM435.278 111.08C436.198 111.08 436.984 111.28 437.638 111.68C438.304 112.08 438.811 112.647 439.158 113.38C439.518 114.1 439.698 114.947 439.698 115.92V116.98H432.358C432.384 118.193 432.691 119.12 433.278 119.76C433.878 120.387 434.711 120.7 435.778 120.7C436.458 120.7 437.058 120.64 437.578 120.52C438.111 120.387 438.658 120.2 439.218 119.96V121.5C438.671 121.74 438.131 121.913 437.598 122.02C437.064 122.14 436.431 122.2 435.698 122.2C434.684 122.2 433.784 121.993 432.998 121.58C432.224 121.167 431.618 120.553 431.178 119.74C430.751 118.913 430.538 117.907 430.538 116.72C430.538 115.547 430.731 114.54 431.118 113.7C431.518 112.86 432.071 112.213 432.778 111.76C433.498 111.307 434.331 111.08 435.278 111.08ZM435.258 112.52C434.418 112.52 433.751 112.793 433.258 113.34C432.778 113.873 432.491 114.62 432.398 115.58H437.858C437.844 114.673 437.631 113.94 437.218 113.38C436.804 112.807 436.151 112.52 435.258 112.52ZM441.527 117.42V115.86H446.367V117.42H441.527ZM454.272 122H452.552V112.02C452.552 111.447 452.559 110.987 452.572 110.64C452.585 110.293 452.605 109.933 452.632 109.56C452.419 109.773 452.225 109.953 452.052 110.1C451.879 110.247 451.659 110.433 451.392 110.66L449.872 111.9L448.952 110.72L452.812 107.72H454.272V122ZM469.077 114.84C469.077 116.373 468.917 117.693 468.597 118.8C468.277 119.893 467.771 120.733 467.077 121.32C466.384 121.907 465.464 122.2 464.317 122.2C462.704 122.2 461.511 121.553 460.737 120.26C459.977 118.953 459.597 117.147 459.597 114.84C459.597 113.293 459.751 111.973 460.057 110.88C460.377 109.787 460.884 108.953 461.577 108.38C462.271 107.793 463.184 107.5 464.317 107.5C465.917 107.5 467.111 108.147 467.897 109.44C468.684 110.72 469.077 112.52 469.077 114.84ZM461.357 114.84C461.357 116.8 461.577 118.267 462.017 119.24C462.471 120.213 463.237 120.7 464.317 120.7C465.384 120.7 466.144 120.22 466.597 119.26C467.064 118.287 467.297 116.813 467.297 114.84C467.297 112.893 467.064 111.433 466.597 110.46C466.144 109.487 465.384 109 464.317 109C463.237 109 462.471 109.487 462.017 110.46C461.577 111.433 461.357 112.893 461.357 114.84ZM480.523 114.84C480.523 116.373 480.363 117.693 480.043 118.8C479.723 119.893 479.216 120.733 478.523 121.32C477.829 121.907 476.909 122.2 475.763 122.2C474.149 122.2 472.956 121.553 472.183 120.26C471.423 118.953 471.043 117.147 471.043 114.84C471.043 113.293 471.196 111.973 471.503 110.88C471.823 109.787 472.329 108.953 473.023 108.38C473.716 107.793 474.629 107.5 475.763 107.5C477.363 107.5 478.556 108.147 479.343 109.44C480.129 110.72 480.523 112.52 480.523 114.84ZM472.803 114.84C472.803 116.8 473.023 118.267 473.463 119.24C473.916 120.213 474.683 120.7 475.763 120.7C476.829 120.7 477.589 120.22 478.043 119.26C478.509 118.287 478.743 116.813 478.743 114.84C478.743 112.893 478.509 111.433 478.043 110.46C477.589 109.487 476.829 109 475.763 109C474.683 109 473.916 109.487 473.463 110.46C473.023 111.433 472.803 112.893 472.803 114.84Z" fill="black"/>
<rect y="174" width="48" height="48" rx="24" fill="#A8ADB4"/>
<path d="M70.953 198.46H75.653V205.46C74.933 205.713 74.1997 205.9 73.453 206.02C72.7197 206.14 71.8797 206.2 70.933 206.2C69.5464 206.2 68.373 205.907 67.413 205.32C66.4664 204.72 65.7464 203.873 65.253 202.78C64.7597 201.673 64.513 200.367 64.513 198.86C64.513 197.367 64.7864 196.073 65.333 194.98C65.8797 193.887 66.673 193.04 67.713 192.44C68.753 191.827 70.0064 191.52 71.473 191.52C72.2197 191.52 72.9264 191.593 73.593 191.74C74.273 191.887 74.8997 192.093 75.473 192.36L74.813 193.92C74.3464 193.693 73.813 193.5 73.213 193.34C72.6264 193.18 72.0197 193.1 71.393 193.1C70.3397 193.1 69.4397 193.333 68.693 193.8C67.9464 194.267 67.373 194.933 66.973 195.8C66.573 196.653 66.373 197.673 66.373 198.86C66.373 199.993 66.5397 201 66.873 201.88C67.2064 202.747 67.733 203.427 68.453 203.92C69.1864 204.4 70.1397 204.64 71.313 204.64C71.6997 204.64 72.0397 204.627 72.333 204.6C72.6397 204.56 72.9197 204.513 73.173 204.46C73.4264 204.407 73.6597 204.353 73.873 204.3V200.06H70.953V198.46ZM83.4049 195.08C83.5916 195.08 83.7916 195.093 84.0049 195.12C84.2183 195.133 84.4049 195.16 84.5649 195.2L84.3649 196.82C84.2049 196.78 84.0249 196.747 83.8249 196.72C83.6383 196.693 83.4583 196.68 83.2849 196.68C82.8983 196.68 82.5316 196.767 82.1849 196.94C81.8383 197.113 81.5249 197.36 81.2449 197.68C80.9783 197.987 80.7649 198.36 80.6049 198.8C80.4449 199.24 80.3649 199.733 80.3649 200.28V206H78.6249V195.28H80.0449L80.2449 197.24H80.3249C80.5383 196.84 80.7916 196.48 81.0849 196.16C81.3916 195.827 81.7383 195.567 82.1249 195.38C82.5116 195.18 82.9383 195.08 83.4049 195.08ZM89.9263 195.1C91.153 195.1 92.0663 195.387 92.6663 195.96C93.2797 196.533 93.5863 197.447 93.5863 198.7V206H92.3263L91.9863 204.48H91.9063C91.613 204.867 91.313 205.193 91.0063 205.46C90.713 205.713 90.3663 205.9 89.9663 206.02C89.5797 206.14 89.0997 206.2 88.5263 206.2C87.9263 206.2 87.3863 206.087 86.9063 205.86C86.4263 205.633 86.0463 205.287 85.7663 204.82C85.4863 204.34 85.3463 203.74 85.3463 203.02C85.3463 201.953 85.7397 201.133 86.5263 200.56C87.313 199.973 88.5263 199.653 90.1663 199.6L91.8663 199.54V198.9C91.8663 198.007 91.6863 197.387 91.3263 197.04C90.9797 196.693 90.4797 196.52 89.8263 196.52C89.3063 196.52 88.8063 196.607 88.3263 196.78C87.8597 196.94 87.413 197.127 86.9863 197.34L86.4463 196.02C86.8997 195.767 87.4263 195.553 88.0263 195.38C88.6263 195.193 89.2597 195.1 89.9263 195.1ZM90.4063 200.82C89.1797 200.873 88.3263 201.087 87.8463 201.46C87.3797 201.833 87.1463 202.36 87.1463 203.04C87.1463 203.64 87.313 204.08 87.6463 204.36C87.9797 204.64 88.413 204.78 88.9463 204.78C89.773 204.78 90.4663 204.533 91.0263 204.04C91.5863 203.533 91.8663 202.76 91.8663 201.72V200.76L90.4063 200.82ZM95.1313 195.28H97.0113L99.1513 201.38C99.2847 201.74 99.4047 202.087 99.5113 202.42C99.618 202.753 99.7113 203.08 99.7913 203.4C99.8713 203.707 99.9313 204.007 99.9713 204.3H100.031C100.111 203.967 100.225 203.533 100.371 203C100.531 202.453 100.698 201.907 100.871 201.36L102.891 195.28H104.791L100.451 207.48C100.211 208.147 99.9247 208.727 99.5913 209.22C99.2713 209.727 98.878 210.113 98.4113 210.38C97.9447 210.66 97.3847 210.8 96.7313 210.8C96.438 210.8 96.1713 210.78 95.9313 210.74C95.7047 210.713 95.5113 210.68 95.3513 210.64V209.24C95.4847 209.267 95.6513 209.293 95.8513 209.32C96.0513 209.347 96.258 209.36 96.4713 209.36C96.858 209.36 97.1913 209.28 97.4713 209.12C97.7513 208.973 97.9913 208.753 98.1913 208.46C98.3913 208.18 98.558 207.847 98.6913 207.46L99.1913 206.04L95.1313 195.28ZM112.999 203.04C112.999 203.733 112.832 204.313 112.499 204.78C112.179 205.247 111.719 205.6 111.119 205.84C110.519 206.08 109.799 206.2 108.959 206.2C108.252 206.2 107.639 206.14 107.119 206.02C106.612 205.9 106.165 205.733 105.779 205.52V203.92C106.192 204.133 106.685 204.333 107.259 204.52C107.832 204.693 108.412 204.78 108.999 204.78C109.812 204.78 110.399 204.64 110.759 204.36C111.132 204.067 111.319 203.68 111.319 203.2C111.319 202.933 111.245 202.693 111.099 202.48C110.965 202.267 110.719 202.053 110.359 201.84C110.012 201.627 109.505 201.387 108.839 201.12C108.199 200.853 107.645 200.587 107.179 200.32C106.725 200.053 106.372 199.733 106.119 199.36C105.879 198.987 105.759 198.507 105.759 197.92C105.759 197.013 106.105 196.313 106.799 195.82C107.505 195.327 108.425 195.08 109.559 195.08C110.172 195.08 110.745 195.147 111.279 195.28C111.812 195.4 112.319 195.573 112.799 195.8L112.219 197.2C111.939 197.067 111.645 196.953 111.339 196.86C111.032 196.753 110.719 196.673 110.399 196.62C110.092 196.553 109.779 196.52 109.459 196.52C108.805 196.52 108.305 196.64 107.959 196.88C107.612 197.107 107.439 197.42 107.439 197.82C107.439 198.113 107.519 198.367 107.679 198.58C107.839 198.793 108.099 199 108.459 199.2C108.832 199.387 109.339 199.607 109.979 199.86C110.619 200.113 111.165 200.373 111.619 200.64C112.072 200.907 112.412 201.233 112.639 201.62C112.879 201.993 112.999 202.467 112.999 203.04ZM119.482 206.2C118.575 206.2 117.775 206.007 117.082 205.62C116.388 205.233 115.842 204.633 115.442 203.82C115.055 203.007 114.862 201.967 114.862 200.7C114.862 199.38 115.068 198.307 115.482 197.48C115.895 196.653 116.455 196.047 117.162 195.66C117.882 195.273 118.695 195.08 119.602 195.08C120.122 195.08 120.622 195.14 121.102 195.26C121.595 195.367 121.995 195.5 122.302 195.66L121.762 197.12C121.455 197 121.095 196.887 120.682 196.78C120.282 196.673 119.908 196.62 119.562 196.62C118.908 196.62 118.368 196.773 117.942 197.08C117.515 197.387 117.195 197.84 116.982 198.44C116.768 199.04 116.662 199.787 116.662 200.68C116.662 201.533 116.768 202.26 116.982 202.86C117.195 203.46 117.508 203.913 117.922 204.22C118.348 204.527 118.868 204.68 119.482 204.68C120.028 204.68 120.515 204.62 120.942 204.5C121.368 204.38 121.762 204.233 122.122 204.06V205.62C121.775 205.807 121.395 205.947 120.982 206.04C120.568 206.147 120.068 206.2 119.482 206.2ZM128.364 195.1C129.59 195.1 130.504 195.387 131.104 195.96C131.717 196.533 132.024 197.447 132.024 198.7V206H130.764L130.424 204.48H130.344C130.05 204.867 129.75 205.193 129.444 205.46C129.15 205.713 128.804 205.9 128.404 206.02C128.017 206.14 127.537 206.2 126.964 206.2C126.364 206.2 125.824 206.087 125.344 205.86C124.864 205.633 124.484 205.287 124.204 204.82C123.924 204.34 123.784 203.74 123.784 203.02C123.784 201.953 124.177 201.133 124.964 200.56C125.75 199.973 126.964 199.653 128.604 199.6L130.304 199.54V198.9C130.304 198.007 130.124 197.387 129.764 197.04C129.417 196.693 128.917 196.52 128.264 196.52C127.744 196.52 127.244 196.607 126.764 196.78C126.297 196.94 125.85 197.127 125.424 197.34L124.884 196.02C125.337 195.767 125.864 195.553 126.464 195.38C127.064 195.193 127.697 195.1 128.364 195.1ZM128.844 200.82C127.617 200.873 126.764 201.087 126.284 201.46C125.817 201.833 125.584 202.36 125.584 203.04C125.584 203.64 125.75 204.08 126.084 204.36C126.417 204.64 126.85 204.78 127.384 204.78C128.21 204.78 128.904 204.533 129.464 204.04C130.024 203.533 130.304 202.76 130.304 201.72V200.76L128.844 200.82ZM136.869 206H135.129V190.8H136.869V206ZM143.951 195.08C144.818 195.08 145.565 195.28 146.191 195.68C146.818 196.08 147.298 196.647 147.631 197.38C147.978 198.1 148.151 198.947 148.151 199.92V200.98H141.271C141.298 202.193 141.585 203.12 142.131 203.76C142.678 204.387 143.445 204.7 144.431 204.7C145.071 204.7 145.638 204.64 146.131 204.52C146.638 204.387 147.158 204.2 147.691 203.96V205.5C147.171 205.74 146.658 205.913 146.151 206.02C145.658 206.14 145.058 206.2 144.351 206.2C143.391 206.2 142.545 205.993 141.811 205.58C141.078 205.167 140.505 204.553 140.091 203.74C139.678 202.913 139.471 201.907 139.471 200.72C139.471 199.547 139.658 198.54 140.031 197.7C140.405 196.86 140.925 196.213 141.591 195.76C142.271 195.307 143.058 195.08 143.951 195.08ZM143.951 196.52C143.178 196.52 142.565 196.793 142.111 197.34C141.658 197.873 141.391 198.62 141.311 199.58H146.351C146.351 198.967 146.265 198.433 146.091 197.98C145.918 197.527 145.651 197.173 145.291 196.92C144.945 196.653 144.498 196.52 143.951 196.52ZM164.151 195.06C164.151 196.02 163.884 196.787 163.351 197.36C162.818 197.92 162.098 198.293 161.191 198.48V198.56C162.338 198.693 163.191 199.053 163.751 199.64C164.311 200.227 164.591 200.993 164.591 201.94C164.591 202.767 164.398 203.507 164.011 204.16C163.624 204.8 163.024 205.3 162.211 205.66C161.411 206.02 160.378 206.2 159.111 206.2C158.364 206.2 157.671 206.14 157.031 206.02C156.391 205.913 155.778 205.713 155.191 205.42V203.78C155.791 204.073 156.438 204.307 157.131 204.48C157.824 204.64 158.491 204.72 159.131 204.72C160.411 204.72 161.331 204.473 161.891 203.98C162.464 203.473 162.751 202.78 162.751 201.9C162.751 201.007 162.398 200.367 161.691 199.98C160.998 199.58 160.018 199.38 158.751 199.38H157.371V197.88H158.771C159.944 197.88 160.831 197.633 161.431 197.14C162.044 196.647 162.351 195.993 162.351 195.18C162.351 194.487 162.118 193.953 161.651 193.58C161.184 193.193 160.551 193 159.751 193C158.978 193 158.318 193.113 157.771 193.34C157.224 193.567 156.684 193.853 156.151 194.2L155.271 193C155.778 192.6 156.404 192.253 157.151 191.96C157.911 191.667 158.771 191.52 159.731 191.52C161.224 191.52 162.331 191.853 163.051 192.52C163.784 193.187 164.151 194.033 164.151 195.06ZM176.196 198.84C176.196 200.373 176.036 201.693 175.716 202.8C175.396 203.893 174.89 204.733 174.196 205.32C173.503 205.907 172.583 206.2 171.436 206.2C169.823 206.2 168.63 205.553 167.856 204.26C167.096 202.953 166.716 201.147 166.716 198.84C166.716 197.293 166.87 195.973 167.176 194.88C167.496 193.787 168.003 192.953 168.696 192.38C169.39 191.793 170.303 191.5 171.436 191.5C173.036 191.5 174.23 192.147 175.016 193.44C175.803 194.72 176.196 196.52 176.196 198.84ZM168.476 198.84C168.476 200.8 168.696 202.267 169.136 203.24C169.59 204.213 170.356 204.7 171.436 204.7C172.503 204.7 173.263 204.22 173.716 203.26C174.183 202.287 174.416 200.813 174.416 198.84C174.416 196.893 174.183 195.433 173.716 194.46C173.263 193.487 172.503 193 171.436 193C170.356 193 169.59 193.487 169.136 194.46C168.696 195.433 168.476 196.893 168.476 198.84ZM187.642 198.84C187.642 200.373 187.482 201.693 187.162 202.8C186.842 203.893 186.335 204.733 185.642 205.32C184.948 205.907 184.028 206.2 182.882 206.2C181.268 206.2 180.075 205.553 179.302 204.26C178.542 202.953 178.162 201.147 178.162 198.84C178.162 197.293 178.315 195.973 178.622 194.88C178.942 193.787 179.448 192.953 180.142 192.38C180.835 191.793 181.748 191.5 182.882 191.5C184.482 191.5 185.675 192.147 186.462 193.44C187.248 194.72 187.642 196.52 187.642 198.84ZM179.922 198.84C179.922 200.8 180.142 202.267 180.582 203.24C181.035 204.213 181.802 204.7 182.882 204.7C183.948 204.7 184.708 204.22 185.162 203.26C185.628 202.287 185.862 200.813 185.862 198.84C185.862 196.893 185.628 195.433 185.162 194.46C184.708 193.487 183.948 193 182.882 193C181.802 193 181.035 193.487 180.582 194.46C180.142 195.433 179.922 196.893 179.922 198.84Z" fill="black"/>
<path d="M219.523 199.059L213.898 204.684C213.688 204.895 213.406 205 213.125 205C212.809 205 212.527 204.895 212.316 204.684C211.859 204.262 211.859 203.523 212.316 203.102L216.008 199.375H205.25C204.617 199.375 204.125 198.883 204.125 198.25C204.125 197.652 204.617 197.125 205.25 197.125H216.008L212.316 193.434C211.859 193.012 211.859 192.273 212.316 191.852C212.738 191.395 213.477 191.395 213.898 191.852L219.523 197.477C219.98 197.898 219.98 198.637 219.523 199.059Z" fill="black"/>
<path d="M236.292 201.42V199.86H241.132V201.42H236.292ZM242.738 201.42V199.86H247.578V201.42H242.738ZM253.883 195.08C254.589 195.08 255.223 195.213 255.783 195.48C256.356 195.747 256.843 196.153 257.243 196.7H257.343L257.583 195.28H258.983V206.18C258.983 207.713 258.589 208.867 257.803 209.64C257.029 210.413 255.823 210.8 254.183 210.8C252.609 210.8 251.323 210.573 250.323 210.12V208.5C251.376 209.06 252.696 209.34 254.283 209.34C255.203 209.34 255.923 209.067 256.443 208.52C256.976 207.987 257.243 207.253 257.243 206.32V205.9C257.243 205.74 257.249 205.513 257.263 205.22C257.276 204.913 257.289 204.7 257.303 204.58H257.223C256.503 205.66 255.396 206.2 253.903 206.2C252.516 206.2 251.429 205.713 250.643 204.74C249.869 203.767 249.483 202.407 249.483 200.66C249.483 198.953 249.869 197.6 250.643 196.6C251.429 195.587 252.509 195.08 253.883 195.08ZM254.123 196.56C253.229 196.56 252.536 196.92 252.043 197.64C251.549 198.347 251.303 199.36 251.303 200.68C251.303 202 251.543 203.013 252.023 203.72C252.516 204.413 253.229 204.76 254.163 204.76C255.243 204.76 256.029 204.473 256.523 203.9C257.016 203.313 257.263 202.373 257.263 201.08V200.66C257.263 199.193 257.009 198.147 256.503 197.52C255.996 196.88 255.203 196.56 254.123 196.56ZM266.688 206.2C265.741 206.2 264.894 206.007 264.148 205.62C263.414 205.233 262.834 204.633 262.408 203.82C261.994 203.007 261.788 201.967 261.788 200.7C261.788 199.38 262.008 198.307 262.448 197.48C262.888 196.653 263.481 196.047 264.228 195.66C264.988 195.273 265.848 195.08 266.808 195.08C267.354 195.08 267.881 195.14 268.388 195.26C268.894 195.367 269.308 195.5 269.628 195.66L269.088 197.12C268.768 197 268.394 196.887 267.968 196.78C267.541 196.673 267.141 196.62 266.768 196.62C264.661 196.62 263.608 197.973 263.608 200.68C263.608 201.973 263.861 202.967 264.368 203.66C264.888 204.34 265.654 204.68 266.668 204.68C267.254 204.68 267.768 204.62 268.208 204.5C268.661 204.38 269.074 204.233 269.448 204.06V205.62C269.088 205.807 268.688 205.947 268.248 206.04C267.821 206.147 267.301 206.2 266.688 206.2ZM275.797 206.2C274.464 206.2 273.397 205.74 272.597 204.82C271.797 203.887 271.397 202.5 271.397 200.66C271.397 198.82 271.797 197.433 272.597 196.5C273.41 195.553 274.484 195.08 275.817 195.08C276.644 195.08 277.317 195.233 277.837 195.54C278.37 195.847 278.804 196.22 279.137 196.66H279.257C279.244 196.487 279.217 196.233 279.177 195.9C279.15 195.553 279.137 195.28 279.137 195.08V190.8H280.897V206H279.477L279.217 204.56H279.137C278.817 205.013 278.39 205.4 277.857 205.72C277.324 206.04 276.637 206.2 275.797 206.2ZM276.077 204.74C277.21 204.74 278.004 204.433 278.457 203.82C278.924 203.193 279.157 202.253 279.157 201V200.68C279.157 199.347 278.937 198.327 278.497 197.62C278.057 196.9 277.244 196.54 276.057 196.54C275.11 196.54 274.397 196.92 273.917 197.68C273.45 198.427 273.217 199.433 273.217 200.7C273.217 201.98 273.45 202.973 273.917 203.68C274.397 204.387 275.117 204.74 276.077 204.74ZM291.282 203.04C291.282 204.08 290.895 204.867 290.122 205.4C289.348 205.933 288.308 206.2 287.002 206.2C286.255 206.2 285.608 206.14 285.062 206.02C284.528 205.9 284.055 205.733 283.642 205.52V203.92C284.068 204.133 284.582 204.333 285.182 204.52C285.795 204.693 286.415 204.78 287.042 204.78C287.935 204.78 288.582 204.64 288.982 204.36C289.382 204.067 289.582 203.68 289.582 203.2C289.582 202.933 289.508 202.693 289.362 202.48C289.215 202.267 288.948 202.053 288.562 201.84C288.188 201.627 287.648 201.387 286.942 201.12C286.248 200.853 285.655 200.587 285.162 200.32C284.668 200.053 284.288 199.733 284.022 199.36C283.755 198.987 283.622 198.507 283.622 197.92C283.622 197.013 283.988 196.313 284.722 195.82C285.468 195.327 286.442 195.08 287.642 195.08C288.295 195.08 288.902 195.147 289.462 195.28C290.035 195.4 290.568 195.573 291.062 195.8L290.462 197.2C290.008 197.013 289.535 196.853 289.042 196.72C288.548 196.587 288.042 196.52 287.522 196.52C286.802 196.52 286.248 196.64 285.862 196.88C285.488 197.107 285.302 197.42 285.302 197.82C285.302 198.113 285.388 198.367 285.562 198.58C285.735 198.78 286.022 198.98 286.422 199.18C286.835 199.367 287.382 199.593 288.062 199.86C288.742 200.113 289.322 200.373 289.802 200.64C290.282 200.907 290.648 201.233 290.902 201.62C291.155 201.993 291.282 202.467 291.282 203.04ZM292.972 201.42V199.86H297.812V201.42H292.972ZM304.617 206.2C303.671 206.2 302.824 206.007 302.077 205.62C301.344 205.233 300.764 204.633 300.337 203.82C299.924 203.007 299.717 201.967 299.717 200.7C299.717 199.38 299.937 198.307 300.377 197.48C300.817 196.653 301.411 196.047 302.157 195.66C302.917 195.273 303.777 195.08 304.737 195.08C305.284 195.08 305.811 195.14 306.317 195.26C306.824 195.367 307.237 195.5 307.557 195.66L307.017 197.12C306.697 197 306.324 196.887 305.897 196.78C305.471 196.673 305.071 196.62 304.697 196.62C302.591 196.62 301.537 197.973 301.537 200.68C301.537 201.973 301.791 202.967 302.297 203.66C302.817 204.34 303.584 204.68 304.597 204.68C305.184 204.68 305.697 204.62 306.137 204.5C306.591 204.38 307.004 204.233 307.377 204.06V205.62C307.017 205.807 306.617 205.947 306.177 206.04C305.751 206.147 305.231 206.2 304.617 206.2ZM319.247 200.62C319.247 202.393 318.793 203.767 317.887 204.74C316.993 205.713 315.78 206.2 314.247 206.2C313.3 206.2 312.453 205.987 311.707 205.56C310.973 205.12 310.393 204.487 309.967 203.66C309.54 202.82 309.327 201.807 309.327 200.62C309.327 198.847 309.773 197.48 310.667 196.52C311.56 195.56 312.773 195.08 314.307 195.08C315.28 195.08 316.133 195.3 316.867 195.74C317.613 196.167 318.193 196.793 318.607 197.62C319.033 198.433 319.247 199.433 319.247 200.62ZM311.147 200.62C311.147 201.887 311.393 202.893 311.887 203.64C312.393 204.373 313.193 204.74 314.287 204.74C315.367 204.74 316.16 204.373 316.667 203.64C317.173 202.893 317.427 201.887 317.427 200.62C317.427 199.353 317.173 198.36 316.667 197.64C316.16 196.92 315.36 196.56 314.267 196.56C313.173 196.56 312.38 196.92 311.887 197.64C311.393 198.36 311.147 199.353 311.147 200.62ZM323.796 206H322.036V190.8H323.796V206ZM336.512 200.62C336.512 202.393 336.059 203.767 335.152 204.74C334.259 205.713 333.046 206.2 331.512 206.2C330.566 206.2 329.719 205.987 328.972 205.56C328.239 205.12 327.659 204.487 327.232 203.66C326.806 202.82 326.592 201.807 326.592 200.62C326.592 198.847 327.039 197.48 327.932 196.52C328.826 195.56 330.039 195.08 331.572 195.08C332.546 195.08 333.399 195.3 334.132 195.74C334.879 196.167 335.459 196.793 335.872 197.62C336.299 198.433 336.512 199.433 336.512 200.62ZM328.412 200.62C328.412 201.887 328.659 202.893 329.152 203.64C329.659 204.373 330.459 204.74 331.552 204.74C332.632 204.74 333.426 204.373 333.932 203.64C334.439 202.893 334.692 201.887 334.692 200.62C334.692 199.353 334.439 198.36 333.932 197.64C333.426 196.92 332.626 196.56 331.532 196.56C330.439 196.56 329.646 196.92 329.152 197.64C328.659 198.36 328.412 199.353 328.412 200.62ZM344.302 195.08C344.502 195.08 344.715 195.093 344.942 195.12C345.182 195.133 345.388 195.16 345.562 195.2L345.342 196.82C345.168 196.78 344.975 196.747 344.762 196.72C344.562 196.693 344.368 196.68 344.182 196.68C343.635 196.68 343.122 196.833 342.642 197.14C342.162 197.433 341.775 197.853 341.482 198.4C341.202 198.933 341.062 199.56 341.062 200.28V206H339.302V195.28H340.742L340.942 197.24H341.022C341.368 196.653 341.815 196.147 342.362 195.72C342.908 195.293 343.555 195.08 344.302 195.08ZM346.663 201.42V199.86H351.503V201.42H346.663ZM357.809 195.08C358.515 195.08 359.149 195.213 359.709 195.48C360.282 195.747 360.769 196.153 361.169 196.7H361.269L361.509 195.28H362.909V206.18C362.909 207.713 362.515 208.867 361.729 209.64C360.955 210.413 359.749 210.8 358.109 210.8C356.535 210.8 355.249 210.573 354.249 210.12V208.5C355.302 209.06 356.622 209.34 358.209 209.34C359.129 209.34 359.849 209.067 360.369 208.52C360.902 207.987 361.169 207.253 361.169 206.32V205.9C361.169 205.74 361.175 205.513 361.189 205.22C361.202 204.913 361.215 204.7 361.229 204.58H361.149C360.429 205.66 359.322 206.2 357.829 206.2C356.442 206.2 355.355 205.713 354.569 204.74C353.795 203.767 353.409 202.407 353.409 200.66C353.409 198.953 353.795 197.6 354.569 196.6C355.355 195.587 356.435 195.08 357.809 195.08ZM358.049 196.56C357.155 196.56 356.462 196.92 355.969 197.64C355.475 198.347 355.229 199.36 355.229 200.68C355.229 202 355.469 203.013 355.949 203.72C356.442 204.413 357.155 204.76 358.089 204.76C359.169 204.76 359.955 204.473 360.449 203.9C360.942 203.313 361.189 202.373 361.189 201.08V200.66C361.189 199.193 360.935 198.147 360.429 197.52C359.922 196.88 359.129 196.56 358.049 196.56ZM371.313 195.08C371.513 195.08 371.727 195.093 371.953 195.12C372.193 195.133 372.4 195.16 372.573 195.2L372.353 196.82C372.18 196.78 371.987 196.747 371.773 196.72C371.573 196.693 371.38 196.68 371.193 196.68C370.647 196.68 370.133 196.833 369.653 197.14C369.173 197.433 368.787 197.853 368.493 198.4C368.213 198.933 368.073 199.56 368.073 200.28V206H366.313V195.28H367.753L367.953 197.24H368.033C368.38 196.653 368.827 196.147 369.373 195.72C369.92 195.293 370.567 195.08 371.313 195.08ZM378.244 195.1C379.551 195.1 380.518 195.387 381.144 195.96C381.771 196.533 382.084 197.447 382.084 198.7V206H380.804L380.464 204.48H380.384C379.918 205.067 379.424 205.5 378.904 205.78C378.398 206.06 377.691 206.2 376.784 206.2C375.811 206.2 375.004 205.947 374.364 205.44C373.724 204.92 373.404 204.113 373.404 203.02C373.404 201.953 373.824 201.133 374.664 200.56C375.504 199.973 376.798 199.653 378.544 199.6L380.364 199.54V198.9C380.364 198.007 380.171 197.387 379.784 197.04C379.398 196.693 378.851 196.52 378.144 196.52C377.584 196.52 377.051 196.607 376.544 196.78C376.038 196.94 375.564 197.127 375.124 197.34L374.584 196.02C375.051 195.767 375.604 195.553 376.244 195.38C376.884 195.193 377.551 195.1 378.244 195.1ZM378.764 200.82C377.431 200.873 376.504 201.087 375.984 201.46C375.478 201.833 375.224 202.36 375.224 203.04C375.224 203.64 375.404 204.08 375.764 204.36C376.138 204.64 376.611 204.78 377.184 204.78C378.091 204.78 378.844 204.533 379.444 204.04C380.044 203.533 380.344 202.76 380.344 201.72V200.76L378.764 200.82ZM383.715 195.28H385.595L387.915 201.38C388.115 201.913 388.295 202.427 388.455 202.92C388.615 203.4 388.735 203.86 388.815 204.3H388.895C388.975 203.967 389.102 203.533 389.275 203C389.449 202.453 389.629 201.907 389.815 201.36L391.995 195.28H393.895L389.275 207.48C388.902 208.493 388.415 209.3 387.815 209.9C387.229 210.5 386.415 210.8 385.375 210.8C385.055 210.8 384.775 210.78 384.535 210.74C384.295 210.713 384.089 210.68 383.915 210.64V209.24C384.062 209.267 384.235 209.293 384.435 209.32C384.649 209.347 384.869 209.36 385.095 209.36C385.709 209.36 386.202 209.187 386.575 208.84C386.962 208.493 387.262 208.033 387.475 207.46L388.035 206.04L383.715 195.28ZM402.571 203.04C402.571 204.08 402.184 204.867 401.411 205.4C400.637 205.933 399.597 206.2 398.291 206.2C397.544 206.2 396.897 206.14 396.351 206.02C395.817 205.9 395.344 205.733 394.931 205.52V203.92C395.357 204.133 395.871 204.333 396.471 204.52C397.084 204.693 397.704 204.78 398.331 204.78C399.224 204.78 399.871 204.64 400.271 204.36C400.671 204.067 400.871 203.68 400.871 203.2C400.871 202.933 400.797 202.693 400.651 202.48C400.504 202.267 400.237 202.053 399.851 201.84C399.477 201.627 398.937 201.387 398.231 201.12C397.537 200.853 396.944 200.587 396.451 200.32C395.957 200.053 395.577 199.733 395.311 199.36C395.044 198.987 394.911 198.507 394.911 197.92C394.911 197.013 395.277 196.313 396.011 195.82C396.757 195.327 397.731 195.08 398.931 195.08C399.584 195.08 400.191 195.147 400.751 195.28C401.324 195.4 401.857 195.573 402.351 195.8L401.751 197.2C401.297 197.013 400.824 196.853 400.331 196.72C399.837 196.587 399.331 196.52 398.811 196.52C398.091 196.52 397.537 196.64 397.151 196.88C396.777 197.107 396.591 197.42 396.591 197.82C396.591 198.113 396.677 198.367 396.851 198.58C397.024 198.78 397.311 198.98 397.711 199.18C398.124 199.367 398.671 199.593 399.351 199.86C400.031 200.113 400.611 200.373 401.091 200.64C401.571 200.907 401.937 201.233 402.191 201.62C402.444 201.993 402.571 202.467 402.571 203.04ZM409.461 206.2C408.514 206.2 407.668 206.007 406.921 205.62C406.188 205.233 405.608 204.633 405.181 203.82C404.768 203.007 404.561 201.967 404.561 200.7C404.561 199.38 404.781 198.307 405.221 197.48C405.661 196.653 406.254 196.047 407.001 195.66C407.761 195.273 408.621 195.08 409.581 195.08C410.128 195.08 410.654 195.14 411.161 195.26C411.668 195.367 412.081 195.5 412.401 195.66L411.861 197.12C411.541 197 411.168 196.887 410.741 196.78C410.314 196.673 409.914 196.62 409.541 196.62C407.434 196.62 406.381 197.973 406.381 200.68C406.381 201.973 406.634 202.967 407.141 203.66C407.661 204.34 408.428 204.68 409.441 204.68C410.028 204.68 410.541 204.62 410.981 204.5C411.434 204.38 411.848 204.233 412.221 204.06V205.62C411.861 205.807 411.461 205.947 411.021 206.04C410.594 206.147 410.074 206.2 409.461 206.2ZM418.83 195.1C420.137 195.1 421.104 195.387 421.73 195.96C422.357 196.533 422.67 197.447 422.67 198.7V206H421.39L421.05 204.48H420.97C420.504 205.067 420.01 205.5 419.49 205.78C418.984 206.06 418.277 206.2 417.37 206.2C416.397 206.2 415.59 205.947 414.95 205.44C414.31 204.92 413.99 204.113 413.99 203.02C413.99 201.953 414.41 201.133 415.25 200.56C416.09 199.973 417.384 199.653 419.13 199.6L420.95 199.54V198.9C420.95 198.007 420.757 197.387 420.37 197.04C419.984 196.693 419.437 196.52 418.73 196.52C418.17 196.52 417.637 196.607 417.13 196.78C416.624 196.94 416.15 197.127 415.71 197.34L415.17 196.02C415.637 195.767 416.19 195.553 416.83 195.38C417.47 195.193 418.137 195.1 418.83 195.1ZM419.35 200.82C418.017 200.873 417.09 201.087 416.57 201.46C416.064 201.833 415.81 202.36 415.81 203.04C415.81 203.64 415.99 204.08 416.35 204.36C416.724 204.64 417.197 204.78 417.77 204.78C418.677 204.78 419.43 204.533 420.03 204.04C420.63 203.533 420.93 202.76 420.93 201.72V200.76L419.35 200.82ZM427.741 206H425.981V190.8H427.741V206ZM435.278 195.08C436.198 195.08 436.984 195.28 437.638 195.68C438.304 196.08 438.811 196.647 439.158 197.38C439.518 198.1 439.698 198.947 439.698 199.92V200.98H432.358C432.384 202.193 432.691 203.12 433.278 203.76C433.878 204.387 434.711 204.7 435.778 204.7C436.458 204.7 437.058 204.64 437.578 204.52C438.111 204.387 438.658 204.2 439.218 203.96V205.5C438.671 205.74 438.131 205.913 437.598 206.02C437.064 206.14 436.431 206.2 435.698 206.2C434.684 206.2 433.784 205.993 432.998 205.58C432.224 205.167 431.618 204.553 431.178 203.74C430.751 202.913 430.538 201.907 430.538 200.72C430.538 199.547 430.731 198.54 431.118 197.7C431.518 196.86 432.071 196.213 432.778 195.76C433.498 195.307 434.331 195.08 435.278 195.08ZM435.258 196.52C434.418 196.52 433.751 196.793 433.258 197.34C432.778 197.873 432.491 198.62 432.398 199.58H437.858C437.844 198.673 437.631 197.94 437.218 197.38C436.804 196.807 436.151 196.52 435.258 196.52ZM441.527 201.42V199.86H446.367V201.42H441.527ZM457.032 195.06C457.032 196.02 456.765 196.787 456.232 197.36C455.699 197.92 454.979 198.293 454.072 198.48V198.56C455.219 198.693 456.072 199.053 456.632 199.64C457.192 200.227 457.472 200.993 457.472 201.94C457.472 202.767 457.279 203.507 456.892 204.16C456.505 204.8 455.905 205.3 455.092 205.66C454.292 206.02 453.259 206.2 451.992 206.2C451.245 206.2 450.552 206.14 449.912 206.02C449.272 205.913 448.659 205.713 448.072 205.42V203.78C448.672 204.073 449.319 204.307 450.012 204.48C450.705 204.64 451.372 204.72 452.012 204.72C453.292 204.72 454.212 204.473 454.772 203.98C455.345 203.473 455.632 202.78 455.632 201.9C455.632 201.007 455.279 200.367 454.572 199.98C453.879 199.58 452.899 199.38 451.632 199.38H450.252V197.88H451.652C452.825 197.88 453.712 197.633 454.312 197.14C454.925 196.647 455.232 195.993 455.232 195.18C455.232 194.487 454.999 193.953 454.532 193.58C454.065 193.193 453.432 193 452.632 193C451.859 193 451.199 193.113 450.652 193.34C450.105 193.567 449.565 193.853 449.032 194.2L448.152 193C448.659 192.6 449.285 192.253 450.032 191.96C450.792 191.667 451.652 191.52 452.612 191.52C454.105 191.52 455.212 191.853 455.932 192.52C456.665 193.187 457.032 194.033 457.032 195.06ZM469.077 198.84C469.077 200.373 468.917 201.693 468.597 202.8C468.277 203.893 467.771 204.733 467.077 205.32C466.384 205.907 465.464 206.2 464.317 206.2C462.704 206.2 461.511 205.553 460.737 204.26C459.977 202.953 459.597 201.147 459.597 198.84C459.597 197.293 459.751 195.973 460.057 194.88C460.377 193.787 460.884 192.953 461.577 192.38C462.271 191.793 463.184 191.5 464.317 191.5C465.917 191.5 467.111 192.147 467.897 193.44C468.684 194.72 469.077 196.52 469.077 198.84ZM461.357 198.84C461.357 200.8 461.577 202.267 462.017 203.24C462.471 204.213 463.237 204.7 464.317 204.7C465.384 204.7 466.144 204.22 466.597 203.26C467.064 202.287 467.297 200.813 467.297 198.84C467.297 196.893 467.064 195.433 466.597 194.46C466.144 193.487 465.384 193 464.317 193C463.237 193 462.471 193.487 462.017 194.46C461.577 195.433 461.357 196.893 461.357 198.84ZM480.523 198.84C480.523 200.373 480.363 201.693 480.043 202.8C479.723 203.893 479.216 204.733 478.523 205.32C477.829 205.907 476.909 206.2 475.763 206.2C474.149 206.2 472.956 205.553 472.183 204.26C471.423 202.953 471.043 201.147 471.043 198.84C471.043 197.293 471.196 195.973 471.503 194.88C471.823 193.787 472.329 192.953 473.023 192.38C473.716 191.793 474.629 191.5 475.763 191.5C477.363 191.5 478.556 192.147 479.343 193.44C480.129 194.72 480.523 196.52 480.523 198.84ZM472.803 198.84C472.803 200.8 473.023 202.267 473.463 203.24C473.916 204.213 474.683 204.7 475.763 204.7C476.829 204.7 477.589 204.22 478.043 203.26C478.509 202.287 478.743 200.813 478.743 198.84C478.743 196.893 478.509 195.433 478.043 194.46C477.589 193.487 476.829 193 475.763 193C474.683 193 473.916 193.487 473.463 194.46C473.023 195.433 472.803 196.893 472.803 198.84Z" fill="black"/>
</svg>
