<svg width="400" height="300" viewBox="0 0 400 300" fill="none" xmlns="http://www.w3.org/2000/svg">
<rect width="400" height="300" fill="#F1F2F3"/>
<path d="M200.412 235C198.068 235 195.883 234.372 193.854 233.272L173.089 220.861C169.964 219.133 171.528 218.505 172.464 218.19C176.678 216.776 177.458 216.462 181.831 213.949C182.299 213.635 182.924 213.792 183.392 214.106L199.316 223.689C199.94 224.003 200.721 224.003 201.189 223.689L263.485 187.399C264.106 187.085 264.425 186.457 264.425 185.672V113.249C264.425 112.464 264.106 111.836 263.485 111.522L201.189 75.3897C200.565 75.0752 199.784 75.0752 199.316 75.3897L137.023 111.522C136.399 111.836 136.087 112.621 136.087 113.249V185.672C136.087 186.3 136.399 187.085 137.023 187.399L154.04 197.297C163.25 202.009 169.028 196.511 169.028 191.013V119.534C169.028 118.591 169.808 117.649 170.904 117.649H178.866C179.802 117.649 180.739 118.434 180.739 119.534V191.013C180.739 203.424 174.025 210.65 162.314 210.65C158.725 210.65 155.916 210.65 147.95 206.723L131.558 197.297C127.5 194.94 125 190.542 125 185.828V113.407C125 108.694 127.5 104.295 131.558 101.938L193.854 65.6495C197.756 63.4502 203.065 63.4502 206.966 65.6495L269.263 101.938C273.32 104.295 275.817 108.694 275.817 113.407V185.828C275.817 190.542 273.32 194.94 269.263 197.297L206.966 233.586C205.093 234.372 202.753 235 200.412 235Z" fill="#5FA04E"/>
<path d="M219.773 185.198C192.446 185.198 186.825 172.63 186.825 161.948C186.825 161.005 187.605 160.062 188.698 160.062H196.816C197.756 160.062 198.536 160.691 198.536 161.633C199.784 169.959 203.374 174.044 219.926 174.044C233.041 174.044 238.662 171.059 238.662 163.99C238.662 159.906 237.095 156.921 216.645 154.878C199.628 153.15 189.01 149.38 189.01 135.712C189.01 122.988 199.628 115.447 217.425 115.447C237.414 115.447 247.249 122.359 248.497 137.44C248.497 137.912 248.341 138.383 248.032 138.854C247.714 139.169 247.249 139.483 246.774 139.483H238.5C237.726 139.483 236.942 138.854 236.786 138.069C234.91 129.428 230.069 126.601 217.269 126.601C202.905 126.601 201.189 131.628 201.189 135.398C201.189 139.954 203.218 141.368 222.579 143.881C241.78 146.395 250.838 150.008 250.838 163.518C250.838 177.343 239.439 185.198 219.773 185.198Z" fill="#5FA04E"/>
</svg>
