<svg width="400" height="300" viewBox="0 0 400 300" fill="none" xmlns="http://www.w3.org/2000/svg">
<rect width="400" height="300" fill="#F1F2F3"/>
<g clip-path="url(#clip0_64_987)">
<path d="M199.801 133.406C190.755 133.406 183.422 140.739 183.422 149.785C183.422 158.83 190.755 166.163 199.801 166.163C208.846 166.163 216.179 158.83 216.179 149.785C216.179 140.739 208.846 133.406 199.801 133.406Z" fill="#58C4DC"/>
<path d="M284.988 149.933C284.988 137.075 273.08 125.797 254.121 118.375C254.375 116.704 254.604 115.05 254.767 113.427C256.637 94.951 252.185 81.6157 242.238 75.8713C231.109 69.445 215.389 74.1093 199.494 86.8291C183.599 74.1093 167.879 69.445 156.75 75.8713C146.803 81.6157 142.351 94.951 144.221 113.427C144.384 115.05 144.607 116.71 144.867 118.387C143.286 118.991 141.736 119.63 140.246 120.3C123.32 127.909 114 138.444 114 149.933C114 162.792 125.908 174.07 144.867 181.491C144.607 183.163 144.384 184.816 144.221 186.439C142.351 204.916 146.803 218.251 156.75 223.995C160.17 225.935 164.045 226.926 167.976 226.868C177.398 226.868 188.401 221.908 199.494 213.037C210.581 221.908 221.59 226.868 231.024 226.868C234.955 226.925 238.83 225.934 242.25 223.995C252.197 218.251 256.649 204.916 254.779 186.439C254.616 184.816 254.387 183.163 254.133 181.491C273.092 174.082 285 162.786 285 149.933M230.952 81.145C233.479 81.0841 235.977 81.6963 238.19 82.9191C245.097 86.9076 248.198 97.7266 246.69 112.601C246.587 113.614 246.466 114.64 246.322 115.672C238.438 113.297 230.366 111.603 222.193 110.609C217.239 104.022 211.729 97.8706 205.725 92.2236C215.153 84.9344 224.003 81.145 230.946 81.145M227.706 166.225C224.656 171.522 221.333 176.658 217.753 181.612C211.685 182.236 205.588 182.546 199.488 182.541C193.39 182.546 187.295 182.235 181.229 181.612C177.658 176.658 174.346 171.522 171.306 166.225C168.255 160.943 165.482 155.505 162.999 149.933C165.482 144.362 168.255 138.924 171.306 133.641C174.341 128.366 177.643 123.248 181.198 118.309C187.276 117.67 193.383 117.352 199.494 117.355C205.592 117.352 211.687 117.662 217.753 118.285C221.321 123.232 224.635 128.357 227.682 133.641C230.731 138.925 233.503 144.363 235.989 149.933C233.503 155.504 230.731 160.942 227.682 166.225M240.139 160.191C242.053 165.413 243.625 170.755 244.844 176.181C239.554 177.831 234.162 179.131 228.702 180.073C230.777 176.944 232.788 173.687 234.734 170.304C236.658 166.961 238.462 163.588 240.163 160.215M188.039 190.319C191.791 190.549 195.621 190.681 199.5 190.681C203.379 190.681 207.233 190.549 210.991 190.319C207.428 194.588 203.589 198.62 199.5 202.387C195.419 198.62 191.591 194.589 188.039 190.319ZM170.292 180.061C164.83 179.123 159.436 177.827 154.144 176.181C155.358 170.763 156.924 165.43 158.831 160.215C160.508 163.588 162.306 166.961 164.26 170.304C166.214 173.647 168.235 176.942 170.292 180.073M158.831 139.645C156.931 134.45 155.369 129.137 154.156 123.739C159.435 122.092 164.815 120.788 170.262 119.835C168.199 122.955 166.178 126.189 164.23 129.562C162.282 132.935 160.502 136.266 158.801 139.645M210.955 109.541C207.203 109.312 203.373 109.179 199.464 109.179C195.587 109.179 191.767 109.3 188.003 109.541C191.555 105.272 195.383 101.24 199.464 97.4732C203.555 101.239 207.394 105.271 210.955 109.541ZM234.722 129.562C232.767 126.175 230.747 122.917 228.66 119.787C234.134 120.729 239.541 122.032 244.844 123.685C243.627 129.103 242.061 134.436 240.157 139.651C238.48 136.278 236.676 132.905 234.728 129.568M152.322 112.607C150.796 97.7387 153.915 86.9136 160.816 82.9251C163.029 81.7042 165.527 81.0921 168.054 81.1511C174.997 81.1511 183.847 84.9405 193.275 92.2296C187.267 97.8806 181.753 104.036 176.795 110.627C168.624 111.626 160.553 113.314 152.666 115.672C152.527 114.64 152.401 113.62 152.304 112.607M143.588 127.728C144.517 127.326 145.464 126.923 146.429 126.521C148.326 134.529 150.899 142.361 154.12 149.933C150.893 157.521 148.318 165.369 146.423 173.394C131.053 167.088 122.143 158.351 122.143 149.933C122.143 141.956 129.985 133.865 143.588 127.728ZM160.816 216.941C153.915 212.953 150.796 202.128 152.322 187.26C152.419 186.246 152.546 185.226 152.684 184.189C160.568 186.563 168.64 188.257 176.813 189.251C181.769 195.841 187.278 201.996 193.281 207.649C180.137 217.804 168.127 221.153 160.834 216.941M246.684 187.26C248.192 202.134 245.091 212.953 238.184 216.941C230.897 221.165 218.881 217.804 205.743 207.649C211.744 201.996 217.251 195.841 222.205 189.251C230.378 188.257 238.45 186.563 246.334 184.189C246.479 185.226 246.599 186.246 246.702 187.26M252.601 173.382C250.701 165.362 248.124 157.518 244.898 149.933C248.122 142.345 250.697 134.497 252.595 126.473C267.935 132.778 276.869 141.516 276.869 149.933C276.869 158.351 267.959 167.088 252.589 173.394" fill="#58C4DC"/>
</g>
<defs>
<clipPath id="clip0_64_987">
<rect width="171" height="153.87" fill="white" transform="translate(114 73)"/>
</clipPath>
</defs>
</svg>
