<svg width="608" height="142" viewBox="0 0 608 142" fill="none" xmlns="http://www.w3.org/2000/svg">
<path d="M12.912 71H11.488V60.84H8.16V59.576H16.208V60.84H12.912V71ZM19.7281 62.264C20.4215 62.264 21.0188 62.424 21.5201 62.744C22.0215 63.064 22.4055 63.5173 22.6721 64.104C22.9495 64.68 23.0881 65.3573 23.0881 66.136V66.984H17.5841C17.6055 67.9547 17.8348 68.696 18.2721 69.208C18.7095 69.7093 19.3228 69.96 20.1121 69.96C20.6241 69.96 21.0775 69.912 21.4721 69.816C21.8775 69.7093 22.2935 69.56 22.7201 69.368V70.6C22.3041 70.792 21.8935 70.9307 21.4881 71.016C21.0935 71.112 20.6135 71.16 20.0481 71.16C19.2801 71.16 18.6028 70.9947 18.0161 70.664C17.4295 70.3333 16.9708 69.8427 16.6401 69.192C16.3095 68.5307 16.1441 67.7253 16.1441 66.776C16.1441 65.8373 16.2935 65.032 16.5921 64.36C16.8908 63.688 17.3068 63.1707 17.8401 62.808C18.3841 62.4453 19.0135 62.264 19.7281 62.264ZM19.7281 63.416C19.1095 63.416 18.6188 63.6347 18.2561 64.072C17.8935 64.4987 17.6801 65.096 17.6161 65.864H21.6481C21.6481 65.3733 21.5788 64.9467 21.4401 64.584C21.3015 64.2213 21.0881 63.9387 20.8001 63.736C20.5228 63.5227 20.1655 63.416 19.7281 63.416ZM26.7149 66.616L23.9309 62.424H25.5149L27.5629 65.656L29.5789 62.424H31.1629L28.3789 66.616L31.3069 71H29.7229L27.5629 67.576L25.3709 71H23.8029L26.7149 66.616ZM35.5945 70.008C35.7972 70.008 36.0052 69.992 36.2185 69.96C36.4318 69.9173 36.6078 69.8747 36.7465 69.832V70.904C36.5972 70.9787 36.3838 71.0373 36.1065 71.08C35.8398 71.1333 35.5838 71.16 35.3385 71.16C34.9118 71.16 34.5172 71.0853 34.1545 70.936C33.7918 70.776 33.4985 70.504 33.2745 70.12C33.0612 69.736 32.9545 69.1973 32.9545 68.504V63.512H31.8185V62.84L32.9865 62.28L33.5145 60.456H34.3465V62.424H36.6825V63.512H34.3465V68.472C34.3465 68.9947 34.4638 69.384 34.6985 69.64C34.9332 69.8853 35.2318 70.008 35.5945 70.008ZM41.4781 62.264C42.1715 62.264 42.7688 62.424 43.2701 62.744C43.7715 63.064 44.1555 63.5173 44.4221 64.104C44.6995 64.68 44.8381 65.3573 44.8381 66.136V66.984H39.3341C39.3555 67.9547 39.5848 68.696 40.0221 69.208C40.4595 69.7093 41.0728 69.96 41.8621 69.96C42.3741 69.96 42.8275 69.912 43.2221 69.816C43.6275 69.7093 44.0435 69.56 44.4701 69.368V70.6C44.0541 70.792 43.6435 70.9307 43.2381 71.016C42.8435 71.112 42.3635 71.16 41.7981 71.16C41.0301 71.16 40.3528 70.9947 39.7661 70.664C39.1795 70.3333 38.7208 69.8427 38.3901 69.192C38.0595 68.5307 37.8941 67.7253 37.8941 66.776C37.8941 65.8373 38.0435 65.032 38.3421 64.36C38.6408 63.688 39.0568 63.1707 39.5901 62.808C40.1341 62.4453 40.7635 62.264 41.4781 62.264ZM41.4781 63.416C40.8595 63.416 40.3688 63.6347 40.0061 64.072C39.6435 64.4987 39.4301 65.096 39.3661 65.864H43.3981C43.3981 65.3733 43.3288 64.9467 43.1901 64.584C43.0515 64.2213 42.8381 63.9387 42.5501 63.736C42.2728 63.5227 41.9155 63.416 41.4781 63.416ZM53.9 62.264C54.5933 62.264 55.1907 62.424 55.692 62.744C56.1933 63.064 56.5773 63.5173 56.844 64.104C57.1213 64.68 57.26 65.3573 57.26 66.136V66.984H51.756C51.7773 67.9547 52.0067 68.696 52.444 69.208C52.8813 69.7093 53.4947 69.96 54.284 69.96C54.796 69.96 55.2493 69.912 55.644 69.816C56.0493 69.7093 56.4653 69.56 56.892 69.368V70.6C56.476 70.792 56.0653 70.9307 55.66 71.016C55.2653 71.112 54.7853 71.16 54.22 71.16C53.452 71.16 52.7747 70.9947 52.188 70.664C51.6013 70.3333 51.1427 69.8427 50.812 69.192C50.4813 68.5307 50.316 67.7253 50.316 66.776C50.316 65.8373 50.4653 65.032 50.764 64.36C51.0627 63.688 51.4787 63.1707 52.012 62.808C52.556 62.4453 53.1853 62.264 53.9 62.264ZM53.9 63.416C53.2813 63.416 52.7907 63.6347 52.428 64.072C52.0653 64.4987 51.852 65.096 51.788 65.864H55.82C55.82 65.3733 55.7507 64.9467 55.612 64.584C55.4733 64.2213 55.26 63.9387 54.972 63.736C54.6947 63.5227 54.3373 63.416 53.9 63.416ZM60.8868 66.616L58.1028 62.424H59.6868L61.7348 65.656L63.7508 62.424H65.3348L62.5508 66.616L65.4788 71H63.8948L61.7348 67.576L59.5428 71H57.9748L60.8868 66.616ZM70.8864 62.264C71.8784 62.264 72.673 62.632 73.2704 63.368C73.8784 64.104 74.1824 65.2133 74.1824 66.696C74.1824 67.6667 74.0437 68.488 73.7664 69.16C73.489 69.8213 73.0997 70.3227 72.5984 70.664C72.1077 70.9947 71.5317 71.16 70.8704 71.16C70.4544 71.16 70.0864 71.1013 69.7664 70.984C69.457 70.8667 69.1904 70.7173 68.9664 70.536C68.7424 70.344 68.5504 70.136 68.3904 69.912H68.2944C68.3157 70.0933 68.337 70.3227 68.3584 70.6C68.3797 70.8773 68.3904 71.1173 68.3904 71.32V74.84H66.9984V62.424H68.1344L68.3264 63.592H68.3904C68.5504 63.3467 68.7424 63.1227 68.9664 62.92C69.1904 62.7173 69.457 62.5573 69.7664 62.44C70.0864 62.3227 70.4597 62.264 70.8864 62.264ZM70.6144 63.448C70.081 63.448 69.649 63.56 69.3184 63.784C68.9984 63.9973 68.7637 64.3227 68.6144 64.76C68.465 65.1973 68.3904 65.752 68.3904 66.424V66.696C68.3904 67.4 68.4544 67.9973 68.5824 68.488C68.721 68.9787 68.9557 69.352 69.2864 69.608C69.617 69.864 70.0704 69.992 70.6464 69.992C71.1264 69.992 71.521 69.848 71.8304 69.56C72.1397 69.272 72.369 68.8827 72.5184 68.392C72.6677 67.8907 72.7424 67.32 72.7424 66.68C72.7424 65.6987 72.5664 64.9147 72.2144 64.328C71.873 63.7413 71.3397 63.448 70.6144 63.448ZM77.656 71H76.264V58.84H77.656V71ZM81.5939 62.424V71H80.2019V62.424H81.5939ZM80.9059 59.208C81.1192 59.208 81.3059 59.2827 81.4659 59.432C81.6259 59.5707 81.7059 59.7947 81.7059 60.104C81.7059 60.4027 81.6259 60.6267 81.4659 60.776C81.3059 60.9253 81.1192 61 80.9059 61C80.6819 61 80.4899 60.9253 80.3299 60.776C80.1699 60.6267 80.0899 60.4027 80.0899 60.104C80.0899 59.7947 80.1699 59.5707 80.3299 59.432C80.4899 59.2827 80.6819 59.208 80.9059 59.208ZM87.3714 71.16C86.646 71.16 86.006 71.0053 85.4514 70.696C84.8967 70.3867 84.4594 69.9067 84.1394 69.256C83.83 68.6053 83.6754 67.7733 83.6754 66.76C83.6754 65.704 83.8407 64.8453 84.1714 64.184C84.502 63.5227 84.95 63.0373 85.5154 62.728C86.0914 62.4187 86.742 62.264 87.4674 62.264C87.8834 62.264 88.2834 62.312 88.6674 62.408C89.062 62.4933 89.382 62.6 89.6274 62.728L89.1954 63.896C88.95 63.8 88.662 63.7093 88.3314 63.624C88.0114 63.5387 87.7127 63.496 87.4354 63.496C86.9127 63.496 86.4807 63.6187 86.1394 63.864C85.798 64.1093 85.542 64.472 85.3714 64.952C85.2007 65.432 85.1154 66.0293 85.1154 66.744C85.1154 67.4267 85.2007 68.008 85.3714 68.488C85.542 68.968 85.7927 69.3307 86.1234 69.576C86.4647 69.8213 86.8807 69.944 87.3714 69.944C87.8087 69.944 88.198 69.896 88.5394 69.8C88.8807 69.704 89.1954 69.5867 89.4834 69.448V70.696C89.206 70.8453 88.902 70.9573 88.5714 71.032C88.2407 71.1173 87.8407 71.16 87.3714 71.16ZM94.477 62.28C95.4583 62.28 96.189 62.5093 96.669 62.968C97.1597 63.4267 97.405 64.1573 97.405 65.16V71H96.397L96.125 69.784H96.061C95.8263 70.0933 95.5863 70.3547 95.341 70.568C95.1063 70.7707 94.829 70.92 94.509 71.016C94.1997 71.112 93.8157 71.16 93.357 71.16C92.877 71.16 92.445 71.0693 92.061 70.888C91.677 70.7067 91.373 70.4293 91.149 70.056C90.925 69.672 90.813 69.192 90.813 68.616C90.813 67.7627 91.1277 67.1067 91.757 66.648C92.3863 66.1787 93.357 65.9227 94.669 65.88L96.029 65.832V65.32C96.029 64.6053 95.885 64.1093 95.597 63.832C95.3197 63.5547 94.9197 63.416 94.397 63.416C93.981 63.416 93.581 63.4853 93.197 63.624C92.8237 63.752 92.4663 63.9013 92.125 64.072L91.693 63.016C92.0557 62.8133 92.477 62.6427 92.957 62.504C93.437 62.3547 93.9437 62.28 94.477 62.28ZM94.861 66.856C93.8797 66.8987 93.197 67.0693 92.813 67.368C92.4397 67.6667 92.253 68.088 92.253 68.632C92.253 69.112 92.3863 69.464 92.653 69.688C92.9197 69.912 93.2663 70.024 93.693 70.024C94.3543 70.024 94.909 69.8267 95.357 69.432C95.805 69.0267 96.029 68.408 96.029 67.576V66.808L94.861 66.856ZM102.657 70.008C102.86 70.008 103.068 69.992 103.281 69.96C103.494 69.9173 103.67 69.8747 103.809 69.832V70.904C103.66 70.9787 103.446 71.0373 103.169 71.08C102.902 71.1333 102.646 71.16 102.401 71.16C101.974 71.16 101.58 71.0853 101.217 70.936C100.854 70.776 100.561 70.504 100.337 70.12C100.124 69.736 100.017 69.1973 100.017 68.504V63.512H98.881V62.84L100.049 62.28L100.577 60.456H101.409V62.424H103.745V63.512H101.409V68.472C101.409 68.9947 101.526 69.384 101.761 69.64C101.996 69.8853 102.294 70.008 102.657 70.008ZM106.813 62.424V71H105.421V62.424H106.813ZM106.125 59.208C106.338 59.208 106.525 59.2827 106.685 59.432C106.845 59.5707 106.925 59.7947 106.925 60.104C106.925 60.4027 106.845 60.6267 106.685 60.776C106.525 60.9253 106.338 61 106.125 61C105.901 61 105.709 60.9253 105.549 60.776C105.389 60.6267 105.309 60.4027 105.309 60.104C105.309 59.7947 105.389 59.5707 105.549 59.432C105.709 59.2827 105.901 59.208 106.125 59.208ZM113.118 63.512H111.102V71H109.694V63.512H108.302V62.856L109.694 62.376V61.88C109.694 61.144 109.795 60.5467 109.998 60.088C110.211 59.6293 110.515 59.2933 110.91 59.08C111.305 58.8667 111.779 58.76 112.334 58.76C112.665 58.76 112.963 58.792 113.23 58.856C113.507 58.9093 113.747 58.9733 113.95 59.048L113.582 60.152C113.411 60.0987 113.219 60.0453 113.006 59.992C112.803 59.9387 112.59 59.912 112.366 59.912C111.939 59.912 111.619 60.072 111.406 60.392C111.203 60.7013 111.102 61.192 111.102 61.864V62.424H113.118V63.512Z" fill="black"/>
<rect x="1" y="47" width="120" height="36" stroke="#FFC418" stroke-width="2"/>
<line x1="194" y1="66" x2="122" y2="66" stroke="#FFC418" stroke-width="2"/>
<path d="M56.472 25H50.456V13.576H56.472V14.84H51.88V18.408H56.2V19.656H51.88V23.736H56.472V25ZM55.944 10.056C55.848 10.2053 55.7093 10.3867 55.528 10.6C55.3573 10.8133 55.1653 11.0373 54.952 11.272C54.7493 11.496 54.5413 11.7147 54.328 11.928C54.1147 12.1307 53.9173 12.3067 53.736 12.456H52.824V12.264C52.9733 12.0613 53.1387 11.8213 53.32 11.544C53.5013 11.2667 53.6773 10.984 53.848 10.696C54.0187 10.3973 54.1627 10.1307 54.28 9.896H55.944V10.056ZM61.407 24.008C61.6097 24.008 61.8177 23.992 62.031 23.96C62.2443 23.9173 62.4203 23.8747 62.559 23.832V24.904C62.4097 24.9787 62.1963 25.0373 61.919 25.08C61.6523 25.1333 61.3963 25.16 61.151 25.16C60.7243 25.16 60.3297 25.0853 59.967 24.936C59.6043 24.776 59.311 24.504 59.087 24.12C58.8737 23.736 58.767 23.1973 58.767 22.504V17.512H57.631V16.84L58.799 16.28L59.327 14.456H60.159V16.424H62.495V17.512H60.159V22.472C60.159 22.9947 60.2763 23.384 60.511 23.64C60.7457 23.8853 61.0443 24.008 61.407 24.008ZM65.5626 16.424V25H64.1706V16.424H65.5626ZM64.8746 13.208C65.088 13.208 65.2746 13.2827 65.4346 13.432C65.5946 13.5707 65.6746 13.7947 65.6746 14.104C65.6746 14.4027 65.5946 14.6267 65.4346 14.776C65.2746 14.9253 65.088 15 64.8746 15C64.6506 15 64.4586 14.9253 64.2986 14.776C64.1386 14.6267 64.0586 14.4027 64.0586 14.104C64.0586 13.7947 64.1386 13.5707 64.2986 13.432C64.4586 13.2827 64.6506 13.208 64.8746 13.208ZM73.4361 25.176C73.4361 24.984 73.4415 24.76 73.4521 24.504C73.4628 24.248 73.4841 24.0293 73.5161 23.848H73.4201C73.1855 24.2107 72.8655 24.52 72.4601 24.776C72.0655 25.032 71.5481 25.16 70.9081 25.16C69.9375 25.16 69.1481 24.792 68.5401 24.056C67.9428 23.3093 67.6441 22.2 67.6441 20.728C67.6441 19.7467 67.7828 18.9253 68.0601 18.264C68.3375 17.6027 68.7268 17.1067 69.2281 16.776C69.7295 16.4347 70.3055 16.264 70.9561 16.264C71.5855 16.264 72.0975 16.392 72.4921 16.648C72.8975 16.904 73.2175 17.2187 73.4521 17.592H73.5161L73.7081 16.424H74.8281V28.84H73.4361V25.176ZM71.2121 23.992C71.7561 23.992 72.1881 23.8853 72.5081 23.672C72.8388 23.4587 73.0788 23.1333 73.2281 22.696C73.3775 22.248 73.4521 21.6933 73.4521 21.032V20.744C73.4521 19.656 73.2868 18.8347 72.9561 18.28C72.6255 17.7147 72.0335 17.432 71.1801 17.432C70.4655 17.432 69.9375 17.736 69.5961 18.344C69.2548 18.9413 69.0841 19.7467 69.0841 20.76C69.0841 21.7733 69.2548 22.568 69.5961 23.144C69.9481 23.7093 70.4868 23.992 71.2121 23.992ZM84.1578 16.424V25H83.0378L82.8298 23.864H82.7658C82.5951 24.1627 82.3711 24.408 82.0938 24.6C81.8271 24.792 81.5338 24.9307 81.2138 25.016C80.8938 25.112 80.5578 25.16 80.2057 25.16C79.5658 25.16 79.0271 25.0533 78.5898 24.84C78.1524 24.616 77.8218 24.2747 77.5978 23.816C77.3844 23.3573 77.2778 22.7653 77.2778 22.04V16.424H78.6858V21.944C78.6858 22.6267 78.8298 23.1387 79.1178 23.48C79.4058 23.8213 79.8484 23.992 80.4458 23.992C81.0324 23.992 81.4911 23.8747 81.8218 23.64C82.1631 23.3947 82.4031 23.0427 82.5418 22.584C82.6911 22.1147 82.7658 21.5493 82.7658 20.888V16.424H84.1578ZM89.8219 16.264C90.5152 16.264 91.1125 16.424 91.6139 16.744C92.1152 17.064 92.4992 17.5173 92.7659 18.104C93.0432 18.68 93.1819 19.3573 93.1819 20.136V20.984H87.6779C87.6992 21.9547 87.9285 22.696 88.3659 23.208C88.8032 23.7093 89.4165 23.96 90.2059 23.96C90.7179 23.96 91.1712 23.912 91.5659 23.816C91.9712 23.7093 92.3872 23.56 92.8139 23.368V24.6C92.3979 24.792 91.9872 24.9307 91.5819 25.016C91.1872 25.112 90.7072 25.16 90.1419 25.16C89.3739 25.16 88.6965 24.9947 88.1099 24.664C87.5232 24.3333 87.0645 23.8427 86.7339 23.192C86.4032 22.5307 86.2379 21.7253 86.2379 20.776C86.2379 19.8373 86.3872 19.032 86.6859 18.36C86.9845 17.688 87.4005 17.1707 87.9339 16.808C88.4779 16.4453 89.1072 16.264 89.8219 16.264ZM89.8219 17.416C89.2032 17.416 88.7125 17.6347 88.3499 18.072C87.9872 18.4987 87.7739 19.096 87.7099 19.864H91.7419C91.7419 19.3733 91.6725 18.9467 91.5339 18.584C91.3952 18.2213 91.1819 17.9387 90.8939 17.736C90.6165 17.5227 90.2592 17.416 89.8219 17.416ZM97.9695 24.008C98.1722 24.008 98.3802 23.992 98.5935 23.96C98.8068 23.9173 98.9828 23.8747 99.1215 23.832V24.904C98.9722 24.9787 98.7588 25.0373 98.4815 25.08C98.2148 25.1333 97.9588 25.16 97.7135 25.16C97.2868 25.16 96.8922 25.0853 96.5295 24.936C96.1668 24.776 95.8735 24.504 95.6495 24.12C95.4362 23.736 95.3295 23.1973 95.3295 22.504V17.512H94.1935V16.84L95.3615 16.28L95.8895 14.456H96.7215V16.424H99.0575V17.512H96.7215V22.472C96.7215 22.9947 96.8388 23.384 97.0735 23.64C97.3082 23.8853 97.6068 24.008 97.9695 24.008ZM103.485 24.008C103.688 24.008 103.896 23.992 104.109 23.96C104.322 23.9173 104.498 23.8747 104.637 23.832V24.904C104.488 24.9787 104.274 25.0373 103.997 25.08C103.73 25.1333 103.474 25.16 103.229 25.16C102.802 25.16 102.408 25.0853 102.045 24.936C101.682 24.776 101.389 24.504 101.165 24.12C100.952 23.736 100.845 23.1973 100.845 22.504V17.512H99.7091V16.84L100.877 16.28L101.405 14.456H102.237V16.424H104.573V17.512H102.237V22.472C102.237 22.9947 102.354 23.384 102.589 23.64C102.824 23.8853 103.122 24.008 103.485 24.008ZM109.369 16.264C110.062 16.264 110.659 16.424 111.161 16.744C111.662 17.064 112.046 17.5173 112.313 18.104C112.59 18.68 112.729 19.3573 112.729 20.136V20.984H107.225C107.246 21.9547 107.475 22.696 107.913 23.208C108.35 23.7093 108.963 23.96 109.753 23.96C110.265 23.96 110.718 23.912 111.113 23.816C111.518 23.7093 111.934 23.56 112.361 23.368V24.6C111.945 24.792 111.534 24.9307 111.129 25.016C110.734 25.112 110.254 25.16 109.689 25.16C108.921 25.16 108.243 24.9947 107.657 24.664C107.07 24.3333 106.611 23.8427 106.281 23.192C105.95 22.5307 105.785 21.7253 105.785 20.776C105.785 19.8373 105.934 19.032 106.233 18.36C106.531 17.688 106.947 17.1707 107.481 16.808C108.025 16.4453 108.654 16.264 109.369 16.264ZM109.369 17.416C108.75 17.416 108.259 17.6347 107.897 18.072C107.534 18.4987 107.321 19.096 107.257 19.864H111.289C111.289 19.3733 111.219 18.9467 111.081 18.584C110.942 18.2213 110.729 17.9387 110.441 17.736C110.163 17.5227 109.806 17.416 109.369 17.416Z" fill="black"/>
<rect x="42" y="1" width="79" height="36" stroke="#FFC418" stroke-width="2"/>
<line x1="194" y1="20" x2="122" y2="20" stroke="#FFC418" stroke-width="2"/>
<path d="M59.08 123.176C59.08 124.456 58.856 125.528 58.408 126.392C57.96 127.256 57.3147 127.907 56.472 128.344C55.64 128.781 54.632 129 53.448 129H50.456V117.576H53.768C54.856 117.576 55.7947 117.789 56.584 118.216C57.384 118.643 57.9973 119.272 58.424 120.104C58.8613 120.925 59.08 121.949 59.08 123.176ZM57.576 123.224C57.576 122.211 57.4213 121.379 57.112 120.728C56.8027 120.077 56.3493 119.597 55.752 119.288C55.1653 118.968 54.4453 118.808 53.592 118.808H51.88V127.768H53.304C54.7333 127.768 55.8 127.389 56.504 126.632C57.2187 125.864 57.576 124.728 57.576 123.224ZM68.3044 124.696C68.3044 125.411 68.2137 126.045 68.0324 126.6C67.8617 127.144 67.611 127.608 67.2804 127.992C66.9497 128.376 66.5497 128.669 66.0804 128.872C65.611 129.064 65.0884 129.16 64.5124 129.16C63.979 129.16 63.483 129.064 63.0244 128.872C62.5764 128.669 62.1817 128.376 61.8404 127.992C61.5097 127.608 61.2537 127.144 61.0724 126.6C60.891 126.045 60.8004 125.411 60.8004 124.696C60.8004 123.747 60.9497 122.947 61.2484 122.296C61.5577 121.635 61.995 121.133 62.5604 120.792C63.1257 120.44 63.7924 120.264 64.5604 120.264C65.2964 120.264 65.9417 120.44 66.4964 120.792C67.0617 121.133 67.5044 121.635 67.8244 122.296C68.1444 122.947 68.3044 123.747 68.3044 124.696ZM62.2404 124.696C62.2404 125.368 62.3204 125.955 62.4804 126.456C62.6404 126.947 62.891 127.325 63.2324 127.592C63.5737 127.859 64.011 127.992 64.5444 127.992C65.0777 127.992 65.515 127.859 65.8564 127.592C66.1977 127.325 66.4484 126.947 66.6084 126.456C66.779 125.955 66.8644 125.368 66.8644 124.696C66.8644 124.013 66.779 123.432 66.6084 122.952C66.4484 122.472 66.1977 122.104 65.8564 121.848C65.515 121.581 65.0724 121.448 64.5284 121.448C63.7284 121.448 63.147 121.736 62.7844 122.312C62.4217 122.888 62.2404 123.683 62.2404 124.696ZM79.2854 120.264C80.2027 120.264 80.8854 120.515 81.3334 121.016C81.7814 121.507 82.0054 122.307 82.0054 123.416V129H80.6294V123.48C80.6294 122.808 80.496 122.301 80.2294 121.96C79.9734 121.619 79.568 121.448 79.0134 121.448C78.2454 121.448 77.696 121.688 77.3654 122.168C77.0454 122.648 76.8854 123.347 76.8854 124.264V129H75.4934V123.48C75.4934 123.032 75.4347 122.659 75.3174 122.36C75.2 122.051 75.024 121.821 74.7894 121.672C74.5547 121.523 74.2507 121.448 73.8774 121.448C73.344 121.448 72.9227 121.571 72.6134 121.816C72.304 122.051 72.0854 122.397 71.9574 122.856C71.8294 123.315 71.7654 123.88 71.7654 124.552V129H70.3734V120.424H71.4934L71.7014 121.592H71.7814C71.952 121.293 72.16 121.048 72.4054 120.856C72.6507 120.653 72.9227 120.504 73.2214 120.408C73.52 120.312 73.8294 120.264 74.1494 120.264C74.768 120.264 75.2854 120.381 75.7014 120.616C76.1174 120.851 76.4214 121.213 76.6134 121.704H76.7094C76.976 121.213 77.3387 120.851 77.7974 120.616C78.2667 120.381 78.7627 120.264 79.2854 120.264ZM87.5708 120.28C88.5521 120.28 89.2828 120.509 89.7628 120.968C90.2534 121.427 90.4988 122.157 90.4988 123.16V129H89.4908L89.2188 127.784H89.1548C88.9201 128.093 88.6801 128.355 88.4348 128.568C88.2001 128.771 87.9228 128.92 87.6028 129.016C87.2934 129.112 86.9094 129.16 86.4508 129.16C85.9708 129.16 85.5388 129.069 85.1548 128.888C84.7708 128.707 84.4668 128.429 84.2428 128.056C84.0188 127.672 83.9068 127.192 83.9068 126.616C83.9068 125.763 84.2214 125.107 84.8508 124.648C85.4801 124.179 86.4508 123.923 87.7628 123.88L89.1228 123.832V123.32C89.1228 122.605 88.9788 122.109 88.6908 121.832C88.4134 121.555 88.0134 121.416 87.4908 121.416C87.0748 121.416 86.6748 121.485 86.2908 121.624C85.9174 121.752 85.5601 121.901 85.2188 122.072L84.7868 121.016C85.1494 120.813 85.5707 120.643 86.0508 120.504C86.5308 120.355 87.0374 120.28 87.5708 120.28ZM87.9548 124.856C86.9734 124.899 86.2908 125.069 85.9068 125.368C85.5334 125.667 85.3468 126.088 85.3468 126.632C85.3468 127.112 85.4801 127.464 85.7468 127.688C86.0134 127.912 86.3601 128.024 86.7868 128.024C87.4481 128.024 88.0028 127.827 88.4508 127.432C88.8988 127.027 89.1228 126.408 89.1228 125.576V124.808L87.9548 124.856ZM94.3908 120.424V129H92.9988V120.424H94.3908ZM93.7028 117.208C93.9161 117.208 94.1028 117.283 94.2628 117.432C94.4228 117.571 94.5028 117.795 94.5028 118.104C94.5028 118.403 94.4228 118.627 94.2628 118.776C94.1028 118.925 93.9161 119 93.7028 119C93.4788 119 93.2868 118.925 93.1268 118.776C92.9668 118.627 92.8868 118.403 92.8868 118.104C92.8868 117.795 92.9668 117.571 93.1268 117.432C93.2868 117.283 93.4788 117.208 93.7028 117.208ZM100.856 120.264C101.816 120.264 102.542 120.515 103.032 121.016C103.534 121.507 103.784 122.307 103.784 123.416V129H102.392V123.512C102.392 122.819 102.248 122.301 101.96 121.96C101.672 121.619 101.23 121.448 100.632 121.448C99.7576 121.448 99.1496 121.715 98.8083 122.248C98.4776 122.781 98.3123 123.549 98.3123 124.552V129H96.9203V120.424H98.0403L98.2483 121.592H98.3283C98.4989 121.293 98.7176 121.048 98.9843 120.856C99.2509 120.653 99.5443 120.504 99.8643 120.408C100.184 120.312 100.515 120.264 100.856 120.264ZM109.4 120.264C110.093 120.264 110.691 120.424 111.192 120.744C111.693 121.064 112.077 121.517 112.344 122.104C112.621 122.68 112.76 123.357 112.76 124.136V124.984H107.256C107.277 125.955 107.507 126.696 107.944 127.208C108.381 127.709 108.995 127.96 109.784 127.96C110.296 127.96 110.749 127.912 111.144 127.816C111.549 127.709 111.965 127.56 112.392 127.368V128.6C111.976 128.792 111.565 128.931 111.16 129.016C110.765 129.112 110.285 129.16 109.72 129.16C108.952 129.16 108.275 128.995 107.688 128.664C107.101 128.333 106.643 127.843 106.312 127.192C105.981 126.531 105.816 125.725 105.816 124.776C105.816 123.837 105.965 123.032 106.264 122.36C106.563 121.688 106.979 121.171 107.512 120.808C108.056 120.445 108.685 120.264 109.4 120.264ZM109.4 121.416C108.781 121.416 108.291 121.635 107.928 122.072C107.565 122.499 107.352 123.096 107.288 123.864H111.32C111.32 123.373 111.251 122.947 111.112 122.584C110.973 122.221 110.76 121.939 110.472 121.736C110.195 121.523 109.837 121.416 109.4 121.416Z" fill="black"/>
<rect x="42" y="105" width="79" height="36" stroke="#FFC418" stroke-width="2"/>
<line x1="194" y1="124" x2="122" y2="124" stroke="#FFC418" stroke-width="2"/>
<path d="M232.02 32H223.8V17.72H232.02V20.2H226.82V23.34H231.66V25.82H226.82V29.5H232.02V32ZM232.24 13.52C232.053 13.7067 231.807 13.9333 231.5 14.2C231.193 14.4667 230.86 14.7467 230.5 15.04C230.153 15.3333 229.807 15.6133 229.46 15.88C229.127 16.1333 228.833 16.3467 228.58 16.52H226.6V16.26C226.813 16.0067 227.06 15.7133 227.34 15.38C227.633 15.0333 227.92 14.68 228.2 14.32C228.48 13.9467 228.713 13.6133 228.9 13.32H232.24V13.52ZM239.351 29.82C239.685 29.82 240.005 29.7867 240.311 29.72C240.618 29.6533 240.925 29.5733 241.231 29.48V31.7C240.911 31.8333 240.511 31.9467 240.031 32.04C239.565 32.1467 239.051 32.2 238.491 32.2C237.838 32.2 237.251 32.0933 236.731 31.88C236.225 31.6667 235.818 31.3 235.511 30.78C235.218 30.2467 235.071 29.5133 235.071 28.58V23.32H233.651V22.06L235.291 21.06L236.151 18.76H238.051V21.08H241.111V23.32H238.051V28.58C238.051 28.9933 238.171 29.3067 238.411 29.52C238.651 29.72 238.965 29.82 239.351 29.82ZM244.923 16.8C245.363 16.8 245.743 16.9067 246.063 17.12C246.383 17.32 246.543 17.7 246.543 18.26C246.543 18.8067 246.383 19.1867 246.063 19.4C245.743 19.6133 245.363 19.72 244.923 19.72C244.47 19.72 244.083 19.6133 243.763 19.4C243.457 19.1867 243.303 18.8067 243.303 18.26C243.303 17.7 243.457 17.32 243.763 17.12C244.083 16.9067 244.47 16.8 244.923 16.8ZM246.403 21.08V32H243.423V21.08H246.403ZM256.077 32.22C256.077 31.66 256.117 31.1133 256.197 30.58H256.077C255.797 31.0333 255.41 31.42 254.917 31.74C254.424 32.0467 253.777 32.2 252.977 32.2C251.75 32.2 250.757 31.7267 249.997 30.78C249.237 29.82 248.857 28.4133 248.857 26.56C248.857 24.6933 249.244 23.28 250.017 22.32C250.79 21.36 251.797 20.88 253.037 20.88C253.837 20.88 254.484 21.0333 254.977 21.34C255.484 21.6467 255.89 22.0267 256.197 22.48H256.277L256.537 21.08H259.057V36.8H256.077V32.22ZM254.037 29.86C254.864 29.86 255.437 29.62 255.757 29.14C256.09 28.6467 256.264 27.9133 256.277 26.94V26.58C256.277 25.5133 256.11 24.7 255.777 24.14C255.457 23.58 254.864 23.3 253.997 23.3C253.29 23.3 252.764 23.5867 252.417 24.16C252.07 24.72 251.897 25.5333 251.897 26.6C251.897 28.7733 252.61 29.86 254.037 29.86ZM272.193 21.08V32H269.913L269.513 30.6H269.353C269.007 31.16 268.527 31.5667 267.913 31.82C267.313 32.0733 266.673 32.2 265.993 32.2C264.82 32.2 263.88 31.8867 263.173 31.26C262.467 30.62 262.113 29.6 262.113 28.2V21.08H265.093V27.46C265.093 28.2333 265.233 28.82 265.513 29.22C265.793 29.62 266.24 29.82 266.853 29.82C267.76 29.82 268.38 29.5133 268.713 28.9C269.047 28.2733 269.213 27.38 269.213 26.22V21.08H272.193ZM279.818 20.88C281.324 20.88 282.518 21.3133 283.398 22.18C284.278 23.0333 284.718 24.2533 284.718 25.84V27.28H277.678C277.704 28.12 277.951 28.78 278.418 29.26C278.898 29.74 279.558 29.98 280.398 29.98C281.104 29.98 281.744 29.9133 282.318 29.78C282.891 29.6333 283.484 29.4133 284.098 29.12V31.42C283.564 31.6867 282.998 31.88 282.398 32C281.811 32.1333 281.098 32.2 280.258 32.2C279.164 32.2 278.198 32 277.358 31.6C276.518 31.1867 275.858 30.5667 275.378 29.74C274.898 28.9133 274.658 27.8733 274.658 26.62C274.658 25.34 274.871 24.28 275.298 23.44C275.738 22.5867 276.344 21.9467 277.118 21.52C277.891 21.0933 278.791 20.88 279.818 20.88ZM279.838 23C279.264 23 278.784 23.1867 278.398 23.56C278.024 23.9333 277.804 24.5133 277.738 25.3H281.918C281.904 24.6333 281.731 24.0867 281.398 23.66C281.064 23.22 280.544 23 279.838 23ZM291.734 29.82C292.068 29.82 292.388 29.7867 292.694 29.72C293.001 29.6533 293.308 29.5733 293.614 29.48V31.7C293.294 31.8333 292.894 31.9467 292.414 32.04C291.948 32.1467 291.434 32.2 290.874 32.2C290.221 32.2 289.634 32.0933 289.114 31.88C288.608 31.6667 288.201 31.3 287.894 30.78C287.601 30.2467 287.454 29.5133 287.454 28.58V23.32H286.034V22.06L287.674 21.06L288.534 18.76H290.434V21.08H293.494V23.32H290.434V28.58C290.434 28.9933 290.554 29.3067 290.794 29.52C291.034 29.72 291.348 29.82 291.734 29.82ZM300.406 29.82C300.739 29.82 301.059 29.7867 301.366 29.72C301.673 29.6533 301.979 29.5733 302.286 29.48V31.7C301.966 31.8333 301.566 31.9467 301.086 32.04C300.619 32.1467 300.106 32.2 299.546 32.2C298.893 32.2 298.306 32.0933 297.786 31.88C297.279 31.6667 296.873 31.3 296.566 30.78C296.273 30.2467 296.126 29.5133 296.126 28.58V23.32H294.706V22.06L296.346 21.06L297.206 18.76H299.106V21.08H302.166V23.32H299.106V28.58C299.106 28.9933 299.226 29.3067 299.466 29.52C299.706 29.72 300.019 29.82 300.406 29.82ZM308.978 20.88C310.485 20.88 311.678 21.3133 312.558 22.18C313.438 23.0333 313.878 24.2533 313.878 25.84V27.28H306.838C306.865 28.12 307.111 28.78 307.578 29.26C308.058 29.74 308.718 29.98 309.558 29.98C310.265 29.98 310.905 29.9133 311.478 29.78C312.051 29.6333 312.645 29.4133 313.258 29.12V31.42C312.725 31.6867 312.158 31.88 311.558 32C310.971 32.1333 310.258 32.2 309.418 32.2C308.325 32.2 307.358 32 306.518 31.6C305.678 31.1867 305.018 30.5667 304.538 29.74C304.058 28.9133 303.818 27.8733 303.818 26.62C303.818 25.34 304.031 24.28 304.458 23.44C304.898 22.5867 305.505 21.9467 306.278 21.52C307.051 21.0933 307.951 20.88 308.978 20.88ZM308.998 23C308.425 23 307.945 23.1867 307.558 23.56C307.185 23.9333 306.965 24.5133 306.898 25.3H311.078C311.065 24.6333 310.891 24.0867 310.558 23.66C310.225 23.22 309.705 23 308.998 23ZM324.95 32.2C323.736 32.2 322.743 31.7267 321.97 30.78C321.21 29.82 320.83 28.4133 320.83 26.56C320.83 24.6933 321.216 23.28 321.99 22.32C322.763 21.36 323.776 20.88 325.03 20.88C325.816 20.88 326.463 21.0333 326.97 21.34C327.476 21.6467 327.876 22.0267 328.17 22.48H328.27C328.23 22.2667 328.183 21.96 328.13 21.56C328.076 21.1467 328.05 20.7267 328.05 20.3V16.8H331.03V32H328.75L328.17 30.58H328.05C327.756 31.0333 327.363 31.42 326.87 31.74C326.376 32.0467 325.736 32.2 324.95 32.2ZM325.99 29.82C326.816 29.82 327.396 29.58 327.73 29.1C328.063 28.6067 328.236 27.8733 328.25 26.9V26.58C328.25 25.5133 328.083 24.7 327.75 24.14C327.43 23.58 326.83 23.3 325.95 23.3C325.296 23.3 324.783 23.5867 324.41 24.16C324.036 24.72 323.85 25.5333 323.85 26.6C323.85 27.6667 324.036 28.4733 324.41 29.02C324.783 29.5533 325.31 29.82 325.99 29.82ZM338.646 20.88C340.153 20.88 341.346 21.3133 342.226 22.18C343.106 23.0333 343.546 24.2533 343.546 25.84V27.28H336.506C336.533 28.12 336.779 28.78 337.246 29.26C337.726 29.74 338.386 29.98 339.226 29.98C339.933 29.98 340.573 29.9133 341.146 29.78C341.719 29.6333 342.313 29.4133 342.926 29.12V31.42C342.393 31.6867 341.826 31.88 341.226 32C340.639 32.1333 339.926 32.2 339.086 32.2C337.993 32.2 337.026 32 336.186 31.6C335.346 31.1867 334.686 30.5667 334.206 29.74C333.726 28.9133 333.486 27.8733 333.486 26.62C333.486 25.34 333.699 24.28 334.126 23.44C334.566 22.5867 335.173 21.9467 335.946 21.52C336.719 21.0933 337.619 20.88 338.646 20.88ZM338.666 23C338.093 23 337.613 23.1867 337.226 23.56C336.853 23.9333 336.633 24.5133 336.566 25.3H340.746C340.733 24.6333 340.559 24.0867 340.226 23.66C339.893 23.22 339.373 23 338.666 23ZM355.598 32.2C353.971 32.2 352.711 31.7533 351.818 30.86C350.938 29.9533 350.498 28.5333 350.498 26.6C350.498 25.2667 350.724 24.18 351.178 23.34C351.631 22.5 352.258 21.88 353.058 21.48C353.871 21.08 354.804 20.88 355.858 20.88C356.604 20.88 357.251 20.9533 357.798 21.1C358.358 21.2467 358.844 21.42 359.258 21.62L358.378 23.92C357.911 23.7333 357.471 23.58 357.058 23.46C356.658 23.34 356.258 23.28 355.858 23.28C354.311 23.28 353.538 24.38 353.538 26.58C353.538 27.6733 353.738 28.48 354.138 29C354.551 29.52 355.124 29.78 355.858 29.78C356.484 29.78 357.038 29.7 357.518 29.54C357.998 29.3667 358.464 29.1333 358.918 28.84V31.38C358.464 31.6733 357.984 31.88 357.478 32C356.984 32.1333 356.358 32.2 355.598 32.2ZM364.411 19.9C364.411 20.4333 364.391 20.9467 364.351 21.44C364.324 21.9333 364.298 22.28 364.271 22.48H364.431C364.778 21.92 365.224 21.5133 365.771 21.26C366.318 21.0067 366.924 20.88 367.591 20.88C368.778 20.88 369.724 21.2 370.431 21.84C371.151 22.4667 371.511 23.48 371.511 24.88V32H368.531V25.62C368.531 24.0467 367.944 23.26 366.771 23.26C365.878 23.26 365.258 23.5733 364.911 24.2C364.578 24.8133 364.411 25.7 364.411 26.86V32H361.431V16.8H364.411V19.9ZM379.056 20.86C380.522 20.86 381.642 21.18 382.416 21.82C383.202 22.4467 383.596 23.4133 383.596 24.72V32H381.516L380.936 30.52H380.856C380.389 31.1067 379.896 31.5333 379.376 31.8C378.856 32.0667 378.142 32.2 377.236 32.2C376.262 32.2 375.456 31.92 374.816 31.36C374.176 30.7867 373.856 29.9133 373.856 28.74C373.856 27.58 374.262 26.7267 375.076 26.18C375.889 25.62 377.109 25.3133 378.736 25.26L380.636 25.2V24.72C380.636 24.1467 380.482 23.7267 380.176 23.46C379.882 23.1933 379.469 23.06 378.936 23.06C378.402 23.06 377.882 23.14 377.376 23.3C376.869 23.4467 376.362 23.6333 375.856 23.86L374.876 21.84C375.462 21.5333 376.109 21.2933 376.816 21.12C377.536 20.9467 378.282 20.86 379.056 20.86ZM379.476 26.98C378.516 27.0067 377.849 27.18 377.476 27.5C377.102 27.82 376.916 28.24 376.916 28.76C376.916 29.2133 377.049 29.54 377.316 29.74C377.582 29.9267 377.929 30.02 378.356 30.02C378.996 30.02 379.536 29.8333 379.976 29.46C380.416 29.0733 380.636 28.5333 380.636 27.84V26.94L379.476 26.98ZM399.466 20.88C400.706 20.88 401.639 21.2 402.266 21.84C402.906 22.4667 403.226 23.48 403.226 24.88V32H400.246V25.62C400.246 24.0467 399.699 23.26 398.606 23.26C397.819 23.26 397.259 23.54 396.926 24.1C396.593 24.66 396.426 25.4667 396.426 26.52V32H393.446V25.62C393.446 24.0467 392.899 23.26 391.806 23.26C390.979 23.26 390.406 23.5733 390.086 24.2C389.779 24.8133 389.626 25.7 389.626 26.86V32H386.646V21.08H388.926L389.326 22.48H389.486C389.819 21.92 390.273 21.5133 390.846 21.26C391.433 21.0067 392.039 20.88 392.666 20.88C393.466 20.88 394.146 21.0133 394.706 21.28C395.266 21.5333 395.693 21.9333 395.986 22.48H396.246C396.579 21.92 397.039 21.5133 397.626 21.26C398.226 21.0067 398.839 20.88 399.466 20.88ZM412.374 20.88C413.601 20.88 414.594 21.36 415.354 22.32C416.114 23.2667 416.494 24.6667 416.494 26.52C416.494 28.3733 416.101 29.7867 415.314 30.76C414.528 31.72 413.521 32.2 412.294 32.2C411.508 32.2 410.881 32.06 410.414 31.78C409.948 31.4867 409.568 31.16 409.274 30.8H409.114C409.221 31.36 409.274 31.8933 409.274 32.4V36.8H406.294V21.08H408.714L409.134 22.5H409.274C409.568 22.06 409.961 21.68 410.454 21.36C410.948 21.04 411.588 20.88 412.374 20.88ZM411.414 23.26C410.641 23.26 410.094 23.5 409.774 23.98C409.468 24.46 409.301 25.1933 409.274 26.18V26.5C409.274 27.5533 409.428 28.3667 409.734 28.94C410.054 29.5 410.628 29.78 411.454 29.78C412.134 29.78 412.634 29.5 412.954 28.94C413.288 28.3667 413.454 27.5467 413.454 26.48C413.454 24.3333 412.774 23.26 411.414 23.26Z" fill="black"/>
<path d="M228.46 69.4004H226.66V56.7004H222.2V55.1204H232.9V56.7004H228.46V69.4004ZM237.547 58.4804C238.467 58.4804 239.254 58.6804 239.907 59.0804C240.574 59.4804 241.08 60.0471 241.427 60.7804C241.787 61.5004 241.967 62.3471 241.967 63.3204V64.3804H234.627C234.654 65.5937 234.96 66.5204 235.547 67.1604C236.147 67.7871 236.98 68.1004 238.047 68.1004C238.727 68.1004 239.327 68.0404 239.847 67.9204C240.38 67.7871 240.927 67.6004 241.487 67.3604V68.9004C240.94 69.1404 240.4 69.3137 239.867 69.4204C239.334 69.5404 238.7 69.6004 237.967 69.6004C236.954 69.6004 236.054 69.3937 235.267 68.9804C234.494 68.5671 233.887 67.9537 233.447 67.1404C233.02 66.3137 232.807 65.3071 232.807 64.1204C232.807 62.9471 233 61.9404 233.387 61.1004C233.787 60.2604 234.34 59.6137 235.047 59.1604C235.767 58.7071 236.6 58.4804 237.547 58.4804ZM237.527 59.9204C236.687 59.9204 236.02 60.1937 235.527 60.7404C235.047 61.2737 234.76 62.0204 234.667 62.9804H240.127C240.114 62.0737 239.9 61.3404 239.487 60.7804C239.074 60.2071 238.42 59.9204 237.527 59.9204ZM246.845 63.9204L243.145 58.6804H245.145L247.905 62.7204L250.645 58.6804H252.625L248.925 63.9204L252.825 69.4004H250.825L247.905 65.1204L244.945 69.4004H242.965L246.845 63.9204ZM258.471 68.1604C258.738 68.1604 259.011 68.1404 259.291 68.1004C259.571 68.0471 259.798 67.9937 259.971 67.9404V69.2804C259.785 69.3737 259.518 69.4471 259.171 69.5004C258.825 69.5671 258.491 69.6004 258.171 69.6004C257.611 69.6004 257.091 69.5071 256.611 69.3204C256.145 69.1204 255.765 68.7804 255.471 68.3004C255.178 67.8204 255.031 67.1471 255.031 66.2804V60.0404H253.511V59.2004L255.051 58.5004L255.751 56.2204H256.791V58.6804H259.891V60.0404H256.791V66.2404C256.791 66.8937 256.945 67.3804 257.251 67.7004C257.571 68.0071 257.978 68.1604 258.471 68.1604ZM266.258 58.4804C267.178 58.4804 267.965 58.6804 268.618 59.0804C269.285 59.4804 269.791 60.0471 270.138 60.7804C270.498 61.5004 270.678 62.3471 270.678 63.3204V64.3804H263.338C263.365 65.5937 263.671 66.5204 264.258 67.1604C264.858 67.7871 265.691 68.1004 266.758 68.1004C267.438 68.1004 268.038 68.0404 268.558 67.9204C269.091 67.7871 269.638 67.6004 270.198 67.3604V68.9004C269.651 69.1404 269.111 69.3137 268.578 69.4204C268.045 69.5404 267.411 69.6004 266.678 69.6004C265.665 69.6004 264.765 69.3937 263.978 68.9804C263.205 68.5671 262.598 67.9537 262.158 67.1404C261.731 66.3137 261.518 65.3071 261.518 64.1204C261.518 62.9471 261.711 61.9404 262.098 61.1004C262.498 60.2604 263.051 59.6137 263.758 59.1604C264.478 58.7071 265.311 58.4804 266.258 58.4804ZM266.238 59.9204C265.398 59.9204 264.731 60.1937 264.238 60.7404C263.758 61.2737 263.471 62.0204 263.378 62.9804H268.838C268.825 62.0737 268.611 61.3404 268.198 60.7804C267.785 60.2071 267.131 59.9204 266.238 59.9204ZM282.742 58.4804C283.662 58.4804 284.449 58.6804 285.102 59.0804C285.769 59.4804 286.276 60.0471 286.622 60.7804C286.982 61.5004 287.162 62.3471 287.162 63.3204V64.3804H279.822C279.849 65.5937 280.156 66.5204 280.742 67.1604C281.342 67.7871 282.176 68.1004 283.242 68.1004C283.922 68.1004 284.522 68.0404 285.042 67.9204C285.576 67.7871 286.122 67.6004 286.682 67.3604V68.9004C286.136 69.1404 285.596 69.3137 285.062 69.4204C284.529 69.5404 283.896 69.6004 283.162 69.6004C282.149 69.6004 281.249 69.3937 280.462 68.9804C279.689 68.5671 279.082 67.9537 278.642 67.1404C278.216 66.3137 278.002 65.3071 278.002 64.1204C278.002 62.9471 278.196 61.9404 278.582 61.1004C278.982 60.2604 279.536 59.6137 280.242 59.1604C280.962 58.7071 281.796 58.4804 282.742 58.4804ZM282.722 59.9204C281.882 59.9204 281.216 60.1937 280.722 60.7404C280.242 61.2737 279.956 62.0204 279.862 62.9804H285.322C285.309 62.0737 285.096 61.3404 284.682 60.7804C284.269 60.2071 283.616 59.9204 282.722 59.9204ZM292.041 63.9204L288.341 58.6804H290.341L293.101 62.7204L295.841 58.6804H297.821L294.121 63.9204L298.021 69.4004H296.021L293.101 65.1204L290.141 69.4004H288.161L292.041 63.9204ZM305.187 58.4804C306.507 58.4804 307.567 58.9404 308.367 59.8604C309.18 60.7804 309.587 62.1671 309.587 64.0204C309.587 65.8471 309.18 67.2337 308.367 68.1804C307.567 69.1271 306.5 69.6004 305.167 69.6004C304.34 69.6004 303.653 69.4471 303.107 69.1404C302.573 68.8204 302.153 68.4537 301.847 68.0404H301.727C301.753 68.2671 301.78 68.5537 301.807 68.9004C301.833 69.2471 301.847 69.5471 301.847 69.8004V74.2004H300.087V58.6804H301.527L301.767 60.1404H301.847C302.167 59.6737 302.587 59.2804 303.107 58.9604C303.627 58.6404 304.32 58.4804 305.187 58.4804ZM304.867 59.9604C303.773 59.9604 303 60.2671 302.547 60.8804C302.107 61.4937 301.873 62.4271 301.847 63.6804V64.0204C301.847 65.3404 302.06 66.3604 302.487 67.0804C302.927 67.7871 303.733 68.1404 304.907 68.1404C305.56 68.1404 306.093 67.9604 306.507 67.6004C306.933 67.2404 307.247 66.7537 307.447 66.1404C307.66 65.5137 307.767 64.8004 307.767 64.0004C307.767 62.7737 307.527 61.7937 307.047 61.0604C306.58 60.3271 305.853 59.9604 304.867 59.9604ZM314.151 69.4004H312.391V54.2004H314.151V69.4004ZM318.448 54.6604C318.714 54.6604 318.948 54.7537 319.148 54.9404C319.361 55.1137 319.468 55.3937 319.468 55.7804C319.468 56.1537 319.361 56.4337 319.148 56.6204C318.948 56.8071 318.714 56.9004 318.448 56.9004C318.154 56.9004 317.908 56.8071 317.708 56.6204C317.508 56.4337 317.408 56.1537 317.408 55.7804C317.408 55.3937 317.508 55.1137 317.708 54.9404C317.908 54.7537 318.154 54.6604 318.448 54.6604ZM319.308 58.6804V69.4004H317.548V58.6804H319.308ZM327.004 69.6004C326.057 69.6004 325.211 69.4071 324.464 69.0204C323.731 68.6337 323.151 68.0337 322.724 67.2204C322.311 66.4071 322.104 65.3671 322.104 64.1004C322.104 62.7804 322.324 61.7071 322.764 60.8804C323.204 60.0537 323.797 59.4471 324.544 59.0604C325.304 58.6737 326.164 58.4804 327.124 58.4804C327.671 58.4804 328.197 58.5404 328.704 58.6604C329.211 58.7671 329.624 58.9004 329.944 59.0604L329.404 60.5204C329.084 60.4004 328.711 60.2871 328.284 60.1804C327.857 60.0737 327.457 60.0204 327.084 60.0204C324.977 60.0204 323.924 61.3737 323.924 64.0804C323.924 65.3737 324.177 66.3671 324.684 67.0604C325.204 67.7404 325.971 68.0804 326.984 68.0804C327.571 68.0804 328.084 68.0204 328.524 67.9004C328.977 67.7804 329.391 67.6337 329.764 67.4604V69.0204C329.404 69.2071 329.004 69.3471 328.564 69.4404C328.137 69.5471 327.617 69.6004 327.004 69.6004ZM336.373 58.5004C337.68 58.5004 338.647 58.7871 339.273 59.3604C339.9 59.9337 340.213 60.8471 340.213 62.1004V69.4004H338.933L338.593 67.8804H338.513C338.047 68.4671 337.553 68.9004 337.033 69.1804C336.527 69.4604 335.82 69.6004 334.913 69.6004C333.94 69.6004 333.133 69.3471 332.493 68.8404C331.853 68.3204 331.533 67.5137 331.533 66.4204C331.533 65.3537 331.953 64.5337 332.793 63.9604C333.633 63.3737 334.927 63.0537 336.673 63.0004L338.493 62.9404V62.3004C338.493 61.4071 338.3 60.7871 337.913 60.4404C337.527 60.0937 336.98 59.9204 336.273 59.9204C335.713 59.9204 335.18 60.0071 334.673 60.1804C334.167 60.3404 333.693 60.5271 333.253 60.7404L332.713 59.4204C333.18 59.1671 333.733 58.9537 334.373 58.7804C335.013 58.5937 335.68 58.5004 336.373 58.5004ZM336.893 64.2204C335.56 64.2737 334.633 64.4871 334.113 64.8604C333.607 65.2337 333.353 65.7604 333.353 66.4404C333.353 67.0404 333.533 67.4804 333.893 67.7604C334.267 68.0404 334.74 68.1804 335.313 68.1804C336.22 68.1804 336.973 67.9337 337.573 67.4404C338.173 66.9337 338.473 66.1604 338.473 65.1204V64.1604L336.893 64.2204ZM347.104 68.1604C347.371 68.1604 347.644 68.1404 347.924 68.1004C348.204 68.0471 348.431 67.9937 348.604 67.9404V69.2804C348.418 69.3737 348.151 69.4471 347.804 69.5004C347.458 69.5671 347.124 69.6004 346.804 69.6004C346.244 69.6004 345.724 69.5071 345.244 69.3204C344.778 69.1204 344.398 68.7804 344.104 68.3004C343.811 67.8204 343.664 67.1471 343.664 66.2804V60.0404H342.144V59.2004L343.684 58.5004L344.384 56.2204H345.424V58.6804H348.524V60.0404H345.424V66.2404C345.424 66.8937 345.578 67.3804 345.884 67.7004C346.204 68.0071 346.611 68.1604 347.104 68.1604ZM351.651 54.6604C351.917 54.6604 352.151 54.7537 352.351 54.9404C352.564 55.1137 352.671 55.3937 352.671 55.7804C352.671 56.1537 352.564 56.4337 352.351 56.6204C352.151 56.8071 351.917 56.9004 351.651 56.9004C351.357 56.9004 351.111 56.8071 350.911 56.6204C350.711 56.4337 350.611 56.1537 350.611 55.7804C350.611 55.3937 350.711 55.1137 350.911 54.9404C351.111 54.7537 351.357 54.6604 351.651 54.6604ZM352.511 58.6804V69.4004H350.751V58.6804H352.511ZM360.847 60.0404H358.147V69.4004H356.387V60.0404H354.507V59.2204L356.387 58.6204V58.0004C356.387 56.6137 356.694 55.6204 357.307 55.0204C357.92 54.4071 358.774 54.1004 359.867 54.1004C360.294 54.1004 360.68 54.1404 361.027 54.2204C361.387 54.2871 361.694 54.3671 361.947 54.4604L361.487 55.8404C361.274 55.7737 361.027 55.7071 360.747 55.6404C360.467 55.5737 360.18 55.5404 359.887 55.5404C359.3 55.5404 358.86 55.7404 358.567 56.1404C358.287 56.5271 358.147 57.1404 358.147 57.9804V58.6804H360.847V60.0404ZM373.517 55.1204L368.197 69.4004H366.477L371.797 55.1204H373.517ZM388.834 69.4004H380.854V55.1204H388.834V56.7004H382.654V61.1604H388.474V62.7204H382.654V67.8204H388.834V69.4004ZM394.267 63.9204L390.567 58.6804H392.567L395.327 62.7204L398.067 58.6804H400.047L396.347 63.9204L400.247 69.4004H398.247L395.327 65.1204L392.367 69.4004H390.387L394.267 63.9204ZM406.063 58.4804C406.983 58.4804 407.769 58.6804 408.423 59.0804C409.089 59.4804 409.596 60.0471 409.943 60.7804C410.303 61.5004 410.483 62.3471 410.483 63.3204V64.3804H403.143C403.169 65.5937 403.476 66.5204 404.063 67.1604C404.663 67.7871 405.496 68.1004 406.563 68.1004C407.243 68.1004 407.843 68.0404 408.363 67.9204C408.896 67.7871 409.443 67.6004 410.003 67.3604V68.9004C409.456 69.1404 408.916 69.3137 408.383 69.4204C407.849 69.5404 407.216 69.6004 406.483 69.6004C405.469 69.6004 404.569 69.3937 403.783 68.9804C403.009 68.5671 402.403 67.9537 401.963 67.1404C401.536 66.3137 401.323 65.3071 401.323 64.1204C401.323 62.9471 401.516 61.9404 401.903 61.1004C402.303 60.2604 402.856 59.6137 403.563 59.1604C404.283 58.7071 405.116 58.4804 406.063 58.4804ZM406.043 59.9204C405.203 59.9204 404.536 60.1937 404.043 60.7404C403.563 61.2737 403.276 62.0204 403.183 62.9804H408.643C408.629 62.0737 408.416 61.3404 408.003 60.7804C407.589 60.2071 406.936 59.9204 406.043 59.9204ZM424.972 58.4804C426.185 58.4804 427.092 58.7937 427.692 59.4204C428.292 60.0337 428.592 61.0337 428.592 62.4204V69.4004H426.852V62.5004C426.852 60.8071 426.125 59.9604 424.672 59.9604C423.632 59.9604 422.885 60.2604 422.432 60.8604C421.992 61.4604 421.772 62.3337 421.772 63.4804V69.4004H420.032V62.5004C420.032 60.8071 419.298 59.9604 417.832 59.9604C416.752 59.9604 416.005 60.2937 415.592 60.9604C415.178 61.6271 414.972 62.5871 414.972 63.8404V69.4004H413.212V58.6804H414.632L414.892 60.1404H414.992C415.325 59.5804 415.772 59.1671 416.332 58.9004C416.905 58.6204 417.512 58.4804 418.152 58.4804C419.832 58.4804 420.925 59.0804 421.432 60.2804H421.532C421.892 59.6671 422.378 59.2137 422.992 58.9204C423.618 58.6271 424.278 58.4804 424.972 58.4804ZM437.003 58.4804C438.323 58.4804 439.383 58.9404 440.183 59.8604C440.996 60.7804 441.403 62.1671 441.403 64.0204C441.403 65.8471 440.996 67.2337 440.183 68.1804C439.383 69.1271 438.316 69.6004 436.983 69.6004C436.156 69.6004 435.47 69.4471 434.923 69.1404C434.39 68.8204 433.97 68.4537 433.663 68.0404H433.543C433.57 68.2671 433.596 68.5537 433.623 68.9004C433.65 69.2471 433.663 69.5471 433.663 69.8004V74.2004H431.903V58.6804H433.343L433.583 60.1404H433.663C433.983 59.6737 434.403 59.2804 434.923 58.9604C435.443 58.6404 436.136 58.4804 437.003 58.4804ZM436.683 59.9604C435.59 59.9604 434.816 60.2671 434.363 60.8804C433.923 61.4937 433.69 62.4271 433.663 63.6804V64.0204C433.663 65.3404 433.876 66.3604 434.303 67.0804C434.743 67.7871 435.55 68.1404 436.723 68.1404C437.376 68.1404 437.91 67.9604 438.323 67.6004C438.75 67.2404 439.063 66.7537 439.263 66.1404C439.476 65.5137 439.583 64.8004 439.583 64.0004C439.583 62.7737 439.343 61.7937 438.863 61.0604C438.396 60.3271 437.67 59.9604 436.683 59.9604ZM445.968 69.4004H444.208V54.2004H445.968V69.4004ZM453.504 58.4804C454.424 58.4804 455.211 58.6804 455.864 59.0804C456.531 59.4804 457.037 60.0471 457.384 60.7804C457.744 61.5004 457.924 62.3471 457.924 63.3204V64.3804H450.584C450.611 65.5937 450.917 66.5204 451.504 67.1604C452.104 67.7871 452.937 68.1004 454.004 68.1004C454.684 68.1004 455.284 68.0404 455.804 67.9204C456.337 67.7871 456.884 67.6004 457.444 67.3604V68.9004C456.897 69.1404 456.357 69.3137 455.824 69.4204C455.291 69.5404 454.657 69.6004 453.924 69.6004C452.911 69.6004 452.011 69.3937 451.224 68.9804C450.451 68.5671 449.844 67.9537 449.404 67.1404C448.977 66.3137 448.764 65.3071 448.764 64.1204C448.764 62.9471 448.957 61.9404 449.344 61.1004C449.744 60.2604 450.297 59.6137 451.004 59.1604C451.724 58.7071 452.557 58.4804 453.504 58.4804ZM453.484 59.9204C452.644 59.9204 451.977 60.1937 451.484 60.7404C451.004 61.2737 450.717 62.0204 450.624 62.9804H456.084C456.071 62.0737 455.857 61.3404 455.444 60.7804C455.031 60.2071 454.377 59.9204 453.484 59.9204ZM469.648 69.6004C468.315 69.6004 467.248 69.1404 466.448 68.2204C465.648 67.2871 465.248 65.9004 465.248 64.0604C465.248 62.2204 465.648 60.8337 466.448 59.9004C467.262 58.9537 468.335 58.4804 469.668 58.4804C470.495 58.4804 471.168 58.6337 471.688 58.9404C472.222 59.2471 472.655 59.6204 472.988 60.0604H473.108C473.095 59.8871 473.068 59.6337 473.028 59.3004C473.002 58.9537 472.988 58.6804 472.988 58.4804V54.2004H474.748V69.4004H473.328L473.068 67.9604H472.988C472.668 68.4137 472.242 68.8004 471.708 69.1204C471.175 69.4404 470.488 69.6004 469.648 69.6004ZM469.928 68.1404C471.062 68.1404 471.855 67.8337 472.308 67.2204C472.775 66.5937 473.008 65.6537 473.008 64.4004V64.0804C473.008 62.7471 472.788 61.7271 472.348 61.0204C471.908 60.3004 471.095 59.9404 469.908 59.9404C468.962 59.9404 468.248 60.3204 467.768 61.0804C467.302 61.8271 467.068 62.8337 467.068 64.1004C467.068 65.3804 467.302 66.3737 467.768 67.0804C468.248 67.7871 468.968 68.1404 469.928 68.1404ZM482.293 58.4804C483.213 58.4804 484 58.6804 484.653 59.0804C485.32 59.4804 485.826 60.0471 486.173 60.7804C486.533 61.5004 486.713 62.3471 486.713 63.3204V64.3804H479.373C479.4 65.5937 479.706 66.5204 480.293 67.1604C480.893 67.7871 481.726 68.1004 482.793 68.1004C483.473 68.1004 484.073 68.0404 484.593 67.9204C485.126 67.7871 485.673 67.6004 486.233 67.3604V68.9004C485.686 69.1404 485.146 69.3137 484.613 69.4204C484.08 69.5404 483.446 69.6004 482.713 69.6004C481.7 69.6004 480.8 69.3937 480.013 68.9804C479.24 68.5671 478.633 67.9537 478.193 67.1404C477.766 66.3137 477.553 65.3071 477.553 64.1204C477.553 62.9471 477.746 61.9404 478.133 61.1004C478.533 60.2604 479.086 59.6137 479.793 59.1604C480.513 58.7071 481.346 58.4804 482.293 58.4804ZM482.273 59.9204C481.433 59.9204 480.766 60.1937 480.273 60.7404C479.793 61.2737 479.506 62.0204 479.413 62.9804H484.873C484.86 62.0737 484.646 61.3404 484.233 60.7804C483.82 60.2071 483.166 59.9204 482.273 59.9204ZM506.398 58.4804C507.611 58.4804 508.518 58.7937 509.118 59.4204C509.718 60.0337 510.018 61.0337 510.018 62.4204V69.4004H508.278V62.5004C508.278 60.8071 507.551 59.9604 506.098 59.9604C505.058 59.9604 504.311 60.2604 503.858 60.8604C503.418 61.4604 503.198 62.3337 503.198 63.4804V69.4004H501.458V62.5004C501.458 60.8071 500.724 59.9604 499.258 59.9604C498.178 59.9604 497.431 60.2937 497.018 60.9604C496.604 61.6271 496.398 62.5871 496.398 63.8404V69.4004H494.638V58.6804H496.058L496.318 60.1404H496.418C496.751 59.5804 497.198 59.1671 497.758 58.9004C498.331 58.6204 498.938 58.4804 499.578 58.4804C501.258 58.4804 502.351 59.0804 502.858 60.2804H502.958C503.318 59.6671 503.804 59.2137 504.418 58.9204C505.044 58.6271 505.704 58.4804 506.398 58.4804ZM517.469 58.4804C518.389 58.4804 519.176 58.6804 519.829 59.0804C520.496 59.4804 521.002 60.0471 521.349 60.7804C521.709 61.5004 521.889 62.3471 521.889 63.3204V64.3804H514.549C514.576 65.5937 514.882 66.5204 515.469 67.1604C516.069 67.7871 516.902 68.1004 517.969 68.1004C518.649 68.1004 519.249 68.0404 519.769 67.9204C520.302 67.7871 520.849 67.6004 521.409 67.3604V68.9004C520.862 69.1404 520.322 69.3137 519.789 69.4204C519.256 69.5404 518.622 69.6004 517.889 69.6004C516.876 69.6004 515.976 69.3937 515.189 68.9804C514.416 68.5671 513.809 67.9537 513.369 67.1404C512.942 66.3137 512.729 65.3071 512.729 64.1204C512.729 62.9471 512.922 61.9404 513.309 61.1004C513.709 60.2604 514.262 59.6137 514.969 59.1604C515.689 58.7071 516.522 58.4804 517.469 58.4804ZM517.449 59.9204C516.609 59.9204 515.942 60.1937 515.449 60.7404C514.969 61.2737 514.682 62.0204 514.589 62.9804H520.049C520.036 62.0737 519.822 61.3404 519.409 60.7804C518.996 60.2071 518.342 59.9204 517.449 59.9204ZM531.598 66.4404C531.598 67.4804 531.211 68.2671 530.438 68.8004C529.665 69.3337 528.625 69.6004 527.318 69.6004C526.571 69.6004 525.925 69.5404 525.378 69.4204C524.845 69.3004 524.371 69.1337 523.958 68.9204V67.3204C524.385 67.5337 524.898 67.7337 525.498 67.9204C526.111 68.0937 526.731 68.1804 527.358 68.1804C528.251 68.1804 528.898 68.0404 529.298 67.7604C529.698 67.4671 529.898 67.0804 529.898 66.6004C529.898 66.3337 529.825 66.0937 529.678 65.8804C529.531 65.6671 529.265 65.4537 528.878 65.2404C528.505 65.0271 527.965 64.7871 527.258 64.5204C526.565 64.2537 525.971 63.9871 525.478 63.7204C524.985 63.4537 524.605 63.1337 524.338 62.7604C524.071 62.3871 523.938 61.9071 523.938 61.3204C523.938 60.4137 524.305 59.7137 525.038 59.2204C525.785 58.7271 526.758 58.4804 527.958 58.4804C528.611 58.4804 529.218 58.5471 529.778 58.6804C530.351 58.8004 530.885 58.9737 531.378 59.2004L530.778 60.6004C530.325 60.4137 529.851 60.2537 529.358 60.1204C528.865 59.9871 528.358 59.9204 527.838 59.9204C527.118 59.9204 526.565 60.0404 526.178 60.2804C525.805 60.5071 525.618 60.8204 525.618 61.2204C525.618 61.5137 525.705 61.7671 525.878 61.9804C526.051 62.1804 526.338 62.3804 526.738 62.5804C527.151 62.7671 527.698 62.9937 528.378 63.2604C529.058 63.5137 529.638 63.7737 530.118 64.0404C530.598 64.3071 530.965 64.6337 531.218 65.0204C531.471 65.3937 531.598 65.8671 531.598 66.4404ZM541.168 66.4404C541.168 67.4804 540.782 68.2671 540.008 68.8004C539.235 69.3337 538.195 69.6004 536.888 69.6004C536.142 69.6004 535.495 69.5404 534.948 69.4204C534.415 69.3004 533.942 69.1337 533.528 68.9204V67.3204C533.955 67.5337 534.468 67.7337 535.068 67.9204C535.682 68.0937 536.302 68.1804 536.928 68.1804C537.822 68.1804 538.468 68.0404 538.868 67.7604C539.268 67.4671 539.468 67.0804 539.468 66.6004C539.468 66.3337 539.395 66.0937 539.248 65.8804C539.102 65.6671 538.835 65.4537 538.448 65.2404C538.075 65.0271 537.535 64.7871 536.828 64.5204C536.135 64.2537 535.542 63.9871 535.048 63.7204C534.555 63.4537 534.175 63.1337 533.908 62.7604C533.642 62.3871 533.508 61.9071 533.508 61.3204C533.508 60.4137 533.875 59.7137 534.608 59.2204C535.355 58.7271 536.328 58.4804 537.528 58.4804C538.182 58.4804 538.788 58.5471 539.348 58.6804C539.922 58.8004 540.455 58.9737 540.948 59.2004L540.348 60.6004C539.895 60.4137 539.422 60.2537 538.928 60.1204C538.435 59.9871 537.928 59.9204 537.408 59.9204C536.688 59.9204 536.135 60.0404 535.748 60.2804C535.375 60.5071 535.188 60.8204 535.188 61.2204C535.188 61.5137 535.275 61.7671 535.448 61.9804C535.622 62.1804 535.908 62.3804 536.308 62.5804C536.722 62.7671 537.268 62.9937 537.948 63.2604C538.628 63.5137 539.208 63.7737 539.688 64.0404C540.168 64.3071 540.535 64.6337 540.788 65.0204C541.042 65.3937 541.168 65.8671 541.168 66.4404ZM547.819 58.5004C549.125 58.5004 550.092 58.7871 550.719 59.3604C551.345 59.9337 551.659 60.8471 551.659 62.1004V69.4004H550.379L550.039 67.8804H549.959C549.492 68.4671 548.999 68.9004 548.479 69.1804C547.972 69.4604 547.265 69.6004 546.359 69.6004C545.385 69.6004 544.579 69.3471 543.939 68.8404C543.299 68.3204 542.979 67.5137 542.979 66.4204C542.979 65.3537 543.399 64.5337 544.239 63.9604C545.079 63.3737 546.372 63.0537 548.119 63.0004L549.939 62.9404V62.3004C549.939 61.4071 549.745 60.7871 549.359 60.4404C548.972 60.0937 548.425 59.9204 547.719 59.9204C547.159 59.9204 546.625 60.0071 546.119 60.1804C545.612 60.3404 545.139 60.5271 544.699 60.7404L544.159 59.4204C544.625 59.1671 545.179 58.9537 545.819 58.7804C546.459 58.5937 547.125 58.5004 547.819 58.5004ZM548.339 64.2204C547.005 64.2737 546.079 64.4871 545.559 64.8604C545.052 65.2337 544.799 65.7604 544.799 66.4404C544.799 67.0404 544.979 67.4804 545.339 67.7604C545.712 68.0404 546.185 68.1804 546.759 68.1804C547.665 68.1804 548.419 67.9337 549.019 67.4404C549.619 66.9337 549.919 66.1604 549.919 65.1204V64.1604L548.339 64.2204ZM558.77 58.4804C559.476 58.4804 560.11 58.6137 560.67 58.8804C561.243 59.1471 561.73 59.5537 562.13 60.1004H562.23L562.47 58.6804H563.87V69.5804C563.87 71.1137 563.476 72.2671 562.69 73.0404C561.916 73.8137 560.71 74.2004 559.07 74.2004C557.496 74.2004 556.21 73.9737 555.21 73.5204V71.9004C556.263 72.4604 557.583 72.7404 559.17 72.7404C560.09 72.7404 560.81 72.4671 561.33 71.9204C561.863 71.3871 562.13 70.6537 562.13 69.7204V69.3004C562.13 69.1404 562.136 68.9137 562.15 68.6204C562.163 68.3137 562.176 68.1004 562.19 67.9804H562.11C561.39 69.0604 560.283 69.6004 558.79 69.6004C557.403 69.6004 556.316 69.1137 555.53 68.1404C554.756 67.1671 554.37 65.8071 554.37 64.0604C554.37 62.3537 554.756 61.0004 555.53 60.0004C556.316 58.9871 557.396 58.4804 558.77 58.4804ZM559.01 59.9604C558.116 59.9604 557.423 60.3204 556.93 61.0404C556.436 61.7471 556.19 62.7604 556.19 64.0804C556.19 65.4004 556.43 66.4137 556.91 67.1204C557.403 67.8137 558.116 68.1604 559.05 68.1604C560.13 68.1604 560.916 67.8737 561.41 67.3004C561.903 66.7137 562.15 65.7737 562.15 64.4804V64.0604C562.15 62.5937 561.896 61.5471 561.39 60.9204C560.883 60.2804 560.09 59.9604 559.01 59.9604ZM571.414 58.4804C572.334 58.4804 573.121 58.6804 573.774 59.0804C574.441 59.4804 574.948 60.0471 575.294 60.7804C575.654 61.5004 575.834 62.3471 575.834 63.3204V64.3804H568.494C568.521 65.5937 568.828 66.5204 569.414 67.1604C570.014 67.7871 570.848 68.1004 571.914 68.1004C572.594 68.1004 573.194 68.0404 573.714 67.9204C574.248 67.7871 574.794 67.6004 575.354 67.3604V68.9004C574.808 69.1404 574.268 69.3137 573.734 69.4204C573.201 69.5404 572.568 69.6004 571.834 69.6004C570.821 69.6004 569.921 69.3937 569.134 68.9804C568.361 68.5671 567.754 67.9537 567.314 67.1404C566.888 66.3137 566.674 65.3071 566.674 64.1204C566.674 62.9471 566.868 61.9404 567.254 61.1004C567.654 60.2604 568.208 59.6137 568.914 59.1604C569.634 58.7071 570.468 58.4804 571.414 58.4804ZM571.394 59.9204C570.554 59.9204 569.888 60.1937 569.394 60.7404C568.914 61.2737 568.628 62.0204 568.534 62.9804H573.994C573.981 62.0737 573.768 61.3404 573.354 60.7804C572.941 60.2071 572.288 59.9204 571.394 59.9204Z" fill="black"/>
<rect x="223" y="97.2002" width="248" height="42" rx="3" fill="white"/>
<rect x="223" y="97.2002" width="248" height="42" rx="3" stroke="black" stroke-width="2"/>
</svg>
