<svg width="762" height="271" viewBox="0 0 762 271" fill="none" xmlns="http://www.w3.org/2000/svg">
<path d="M184.8 30.6582V16.3782H187.82V28.1582H193.62V30.6582H184.8ZM197.369 15.4582C197.809 15.4582 198.189 15.5649 198.509 15.7782C198.829 15.9782 198.989 16.3582 198.989 16.9182C198.989 17.4649 198.829 17.8449 198.509 18.0582C198.189 18.2715 197.809 18.3782 197.369 18.3782C196.915 18.3782 196.529 18.2715 196.209 18.0582C195.902 17.8449 195.749 17.4649 195.749 16.9182C195.749 16.3582 195.902 15.9782 196.209 15.7782C196.529 15.5649 196.915 15.4582 197.369 15.4582ZM198.849 19.7382V30.6582H195.869V19.7382H198.849ZM204.942 18.9982C204.942 19.4115 204.929 19.8182 204.902 20.2182C204.876 20.6182 204.849 20.9315 204.822 21.1582H204.942C205.236 20.7049 205.629 20.3249 206.122 20.0182C206.616 19.6982 207.256 19.5382 208.042 19.5382C209.269 19.5382 210.262 20.0182 211.022 20.9782C211.782 21.9249 212.162 23.3249 212.162 25.1782C212.162 27.0449 211.776 28.4582 211.002 29.4182C210.229 30.3782 209.216 30.8582 207.962 30.8582C207.162 30.8582 206.529 30.7182 206.062 30.4382C205.609 30.1449 205.236 29.8182 204.942 29.4582H204.742L204.242 30.6582H201.962V15.4582H204.942V18.9982ZM207.082 21.9182C206.309 21.9182 205.762 22.1582 205.442 22.6382C205.136 23.1182 204.969 23.8515 204.942 24.8382V25.1582C204.942 26.2115 205.096 27.0249 205.402 27.5982C205.722 28.1582 206.296 28.4382 207.122 28.4382C207.736 28.4382 208.222 28.1582 208.582 27.5982C208.942 27.0249 209.122 26.2049 209.122 25.1382C209.122 24.0715 208.936 23.2715 208.562 22.7382C208.202 22.1915 207.709 21.9182 207.082 21.9182ZM219.119 19.5382C220.625 19.5382 221.819 19.9715 222.699 20.8382C223.579 21.6915 224.019 22.9115 224.019 24.4982V25.9382H216.979C217.005 26.7782 217.252 27.4382 217.719 27.9182C218.199 28.3982 218.859 28.6382 219.699 28.6382C220.405 28.6382 221.045 28.5715 221.619 28.4382C222.192 28.2915 222.785 28.0715 223.399 27.7782V30.0782C222.865 30.3449 222.299 30.5382 221.699 30.6582C221.112 30.7915 220.399 30.8582 219.559 30.8582C218.465 30.8582 217.499 30.6582 216.659 30.2582C215.819 29.8449 215.159 29.2249 214.679 28.3982C214.199 27.5715 213.959 26.5315 213.959 25.2782C213.959 23.9982 214.172 22.9382 214.599 22.0982C215.039 21.2449 215.645 20.6049 216.419 20.1782C217.192 19.7515 218.092 19.5382 219.119 19.5382ZM219.139 21.6582C218.565 21.6582 218.085 21.8449 217.699 22.2182C217.325 22.5915 217.105 23.1715 217.039 23.9582H221.219C221.205 23.2915 221.032 22.7449 220.699 22.3182C220.365 21.8782 219.845 21.6582 219.139 21.6582ZM229.415 30.6582H226.435V15.4582H229.415V30.6582ZM235.509 30.6582H232.529V15.4582H235.509V30.6582ZM243.123 19.5382C244.629 19.5382 245.823 19.9715 246.703 20.8382C247.583 21.6915 248.023 22.9115 248.023 24.4982V25.9382H240.983C241.009 26.7782 241.256 27.4382 241.723 27.9182C242.203 28.3982 242.863 28.6382 243.703 28.6382C244.409 28.6382 245.049 28.5715 245.623 28.4382C246.196 28.2915 246.789 28.0715 247.403 27.7782V30.0782C246.869 30.3449 246.303 30.5382 245.703 30.6582C245.116 30.7915 244.403 30.8582 243.563 30.8582C242.469 30.8582 241.503 30.6582 240.663 30.2582C239.823 29.8449 239.163 29.2249 238.683 28.3982C238.203 27.5715 237.963 26.5315 237.963 25.2782C237.963 23.9982 238.176 22.9382 238.603 22.0982C239.043 21.2449 239.649 20.6049 240.423 20.1782C241.196 19.7515 242.096 19.5382 243.123 19.5382ZM243.143 21.6582C242.569 21.6582 242.089 21.8449 241.703 22.2182C241.329 22.5915 241.109 23.1715 241.043 23.9582H245.223C245.209 23.2915 245.036 22.7449 244.703 22.3182C244.369 21.8782 243.849 21.6582 243.143 21.6582ZM247.203 15.5382C247.016 15.7249 246.769 15.9515 246.463 16.2182C246.156 16.4849 245.823 16.7649 245.463 17.0582C245.116 17.3515 244.769 17.6315 244.423 17.8982C244.089 18.1515 243.796 18.3649 243.543 18.5382H241.563V18.2782C241.776 18.0249 242.023 17.7315 242.303 17.3982C242.596 17.0515 242.883 16.6982 243.163 16.3382C243.443 15.9649 243.676 15.6315 243.863 15.3382H247.203V15.5382ZM259.094 30.8582C257.881 30.8582 256.888 30.3849 256.114 29.4382C255.354 28.4782 254.974 27.0715 254.974 25.2182C254.974 23.3515 255.361 21.9382 256.134 20.9782C256.908 20.0182 257.921 19.5382 259.174 19.5382C259.961 19.5382 260.608 19.6915 261.114 19.9982C261.621 20.3049 262.021 20.6849 262.314 21.1382H262.414C262.374 20.9249 262.328 20.6182 262.274 20.2182C262.221 19.8049 262.194 19.3849 262.194 18.9582V15.4582H265.174V30.6582H262.894L262.314 29.2382H262.194C261.901 29.6915 261.508 30.0782 261.014 30.3982C260.521 30.7049 259.881 30.8582 259.094 30.8582ZM260.134 28.4782C260.961 28.4782 261.541 28.2382 261.874 27.7582C262.208 27.2649 262.381 26.5315 262.394 25.5582V25.2382C262.394 24.1715 262.228 23.3582 261.894 22.7982C261.574 22.2382 260.974 21.9582 260.094 21.9582C259.441 21.9582 258.928 22.2449 258.554 22.8182C258.181 23.3782 257.994 24.1915 257.994 25.2582C257.994 26.3249 258.181 27.1315 258.554 27.6782C258.928 28.2115 259.454 28.4782 260.134 28.4782ZM272.79 19.5382C274.297 19.5382 275.49 19.9715 276.37 20.8382C277.25 21.6915 277.69 22.9115 277.69 24.4982V25.9382H270.65C270.677 26.7782 270.924 27.4382 271.39 27.9182C271.87 28.3982 272.53 28.6382 273.37 28.6382C274.077 28.6382 274.717 28.5715 275.29 28.4382C275.864 28.2915 276.457 28.0715 277.07 27.7782V30.0782C276.537 30.3449 275.97 30.5382 275.37 30.6582C274.784 30.7915 274.07 30.8582 273.23 30.8582C272.137 30.8582 271.17 30.6582 270.33 30.2582C269.49 29.8449 268.83 29.2249 268.35 28.3982C267.87 27.5715 267.63 26.5315 267.63 25.2782C267.63 23.9982 267.844 22.9382 268.27 22.0982C268.71 21.2449 269.317 20.6049 270.09 20.1782C270.864 19.7515 271.764 19.5382 272.79 19.5382ZM272.81 21.6582C272.237 21.6582 271.757 21.8449 271.37 22.2182C270.997 22.5915 270.777 23.1715 270.71 23.9582H274.89C274.877 23.2915 274.704 22.7449 274.37 22.3182C274.037 21.8782 273.517 21.6582 272.81 21.6582ZM289.742 30.8582C288.116 30.8582 286.856 30.4115 285.962 29.5182C285.082 28.6115 284.642 27.1915 284.642 25.2582C284.642 23.9249 284.869 22.8382 285.322 21.9982C285.776 21.1582 286.402 20.5382 287.202 20.1382C288.016 19.7382 288.949 19.5382 290.002 19.5382C290.749 19.5382 291.396 19.6115 291.942 19.7582C292.502 19.9049 292.989 20.0782 293.402 20.2782L292.522 22.5782C292.056 22.3915 291.616 22.2382 291.202 22.1182C290.802 21.9982 290.402 21.9382 290.002 21.9382C288.456 21.9382 287.682 23.0382 287.682 25.2382C287.682 26.3315 287.882 27.1382 288.282 27.6582C288.696 28.1782 289.269 28.4382 290.002 28.4382C290.629 28.4382 291.182 28.3582 291.662 28.1982C292.142 28.0249 292.609 27.7915 293.062 27.4982V30.0382C292.609 30.3315 292.129 30.5382 291.622 30.6582C291.129 30.7915 290.502 30.8582 289.742 30.8582ZM298.556 18.5582C298.556 19.0915 298.536 19.6049 298.496 20.0982C298.469 20.5915 298.442 20.9382 298.416 21.1382H298.576C298.922 20.5782 299.369 20.1715 299.916 19.9182C300.462 19.6649 301.069 19.5382 301.736 19.5382C302.922 19.5382 303.869 19.8582 304.576 20.4982C305.296 21.1249 305.656 22.1382 305.656 23.5382V30.6582H302.676V24.2782C302.676 22.7049 302.089 21.9182 300.916 21.9182C300.022 21.9182 299.402 22.2315 299.056 22.8582C298.722 23.4715 298.556 24.3582 298.556 25.5182V30.6582H295.576V15.4582H298.556V18.5582ZM313.2 19.5182C314.667 19.5182 315.787 19.8382 316.56 20.4782C317.347 21.1049 317.74 22.0715 317.74 23.3782V30.6582H315.66L315.08 29.1782H315C314.533 29.7649 314.04 30.1915 313.52 30.4582C313 30.7249 312.287 30.8582 311.38 30.8582C310.407 30.8582 309.6 30.5782 308.96 30.0182C308.32 29.4449 308 28.5715 308 27.3982C308 26.2382 308.407 25.3849 309.22 24.8382C310.033 24.2782 311.253 23.9715 312.88 23.9182L314.78 23.8582V23.3782C314.78 22.8049 314.627 22.3849 314.32 22.1182C314.027 21.8515 313.613 21.7182 313.08 21.7182C312.547 21.7182 312.027 21.7982 311.52 21.9582C311.013 22.1049 310.507 22.2915 310 22.5182L309.02 20.4982C309.607 20.1915 310.253 19.9515 310.96 19.7782C311.68 19.6049 312.427 19.5182 313.2 19.5182ZM313.62 25.6382C312.66 25.6649 311.993 25.8382 311.62 26.1582C311.247 26.4782 311.06 26.8982 311.06 27.4182C311.06 27.8715 311.193 28.1982 311.46 28.3982C311.727 28.5849 312.073 28.6782 312.5 28.6782C313.14 28.6782 313.68 28.4915 314.12 28.1182C314.56 27.7315 314.78 27.1915 314.78 26.4982V25.5982L313.62 25.6382ZM333.61 19.5382C334.85 19.5382 335.784 19.8582 336.41 20.4982C337.05 21.1249 337.37 22.1382 337.37 23.5382V30.6582H334.39V24.2782C334.39 22.7049 333.844 21.9182 332.75 21.9182C331.964 21.9182 331.404 22.1982 331.07 22.7582C330.737 23.3182 330.57 24.1249 330.57 25.1782V30.6582H327.59V24.2782C327.59 22.7049 327.044 21.9182 325.95 21.9182C325.124 21.9182 324.55 22.2315 324.23 22.8582C323.924 23.4715 323.77 24.3582 323.77 25.5182V30.6582H320.79V19.7382H323.07L323.47 21.1382H323.63C323.964 20.5782 324.417 20.1715 324.99 19.9182C325.577 19.6649 326.184 19.5382 326.81 19.5382C327.61 19.5382 328.29 19.6715 328.85 19.9382C329.41 20.1915 329.837 20.5915 330.13 21.1382H330.39C330.724 20.5782 331.184 20.1715 331.77 19.9182C332.37 19.6649 332.984 19.5382 333.61 19.5382ZM346.519 19.5382C347.746 19.5382 348.739 20.0182 349.499 20.9782C350.259 21.9249 350.639 23.3249 350.639 25.1782C350.639 27.0315 350.246 28.4449 349.459 29.4182C348.672 30.3782 347.666 30.8582 346.439 30.8582C345.652 30.8582 345.026 30.7182 344.559 30.4382C344.092 30.1449 343.712 29.8182 343.419 29.4582H343.259C343.366 30.0182 343.419 30.5515 343.419 31.0582V35.4582H340.439V19.7382H342.859L343.279 21.1582H343.419C343.712 20.7182 344.106 20.3382 344.599 20.0182C345.092 19.6982 345.732 19.5382 346.519 19.5382ZM345.559 21.9182C344.786 21.9182 344.239 22.1582 343.919 22.6382C343.612 23.1182 343.446 23.8515 343.419 24.8382V25.1582C343.419 26.2115 343.572 27.0249 343.879 27.5982C344.199 28.1582 344.772 28.4382 345.599 28.4382C346.279 28.4382 346.779 28.1582 347.099 27.5982C347.432 27.0249 347.599 26.2049 347.599 25.1382C347.599 22.9915 346.919 21.9182 345.559 21.9182Z" fill="black"/>
<path d="M189.46 68.0586H187.66V55.3586H183.2V53.7786H193.9V55.3586H189.46V68.0586ZM198.547 57.1386C199.467 57.1386 200.254 57.3386 200.907 57.7386C201.574 58.1386 202.08 58.7053 202.427 59.4386C202.787 60.1586 202.967 61.0053 202.967 61.9786V63.0386H195.627C195.654 64.2519 195.96 65.1786 196.547 65.8186C197.147 66.4453 197.98 66.7586 199.047 66.7586C199.727 66.7586 200.327 66.6986 200.847 66.5786C201.38 66.4453 201.927 66.2586 202.487 66.0186V67.5586C201.94 67.7986 201.4 67.9719 200.867 68.0786C200.334 68.1986 199.7 68.2586 198.967 68.2586C197.954 68.2586 197.054 68.0519 196.267 67.6386C195.494 67.2253 194.887 66.6119 194.447 65.7986C194.02 64.9719 193.807 63.9653 193.807 62.7786C193.807 61.6053 194 60.5986 194.387 59.7586C194.787 58.9186 195.34 58.2719 196.047 57.8186C196.767 57.3653 197.6 57.1386 198.547 57.1386ZM198.527 58.5786C197.687 58.5786 197.02 58.8519 196.527 59.3986C196.047 59.9319 195.76 60.6786 195.667 61.6386H201.127C201.114 60.7319 200.9 59.9986 200.487 59.4386C200.074 58.8653 199.42 58.5786 198.527 58.5786ZM207.845 62.5786L204.145 57.3386H206.145L208.905 61.3786L211.645 57.3386H213.625L209.925 62.5786L213.825 68.0586H211.825L208.905 63.7786L205.945 68.0586H203.965L207.845 62.5786ZM219.471 66.8186C219.738 66.8186 220.011 66.7986 220.291 66.7586C220.571 66.7053 220.798 66.6519 220.971 66.5986V67.9386C220.785 68.0319 220.518 68.1053 220.171 68.1586C219.825 68.2253 219.491 68.2586 219.171 68.2586C218.611 68.2586 218.091 68.1653 217.611 67.9786C217.145 67.7786 216.765 67.4386 216.471 66.9586C216.178 66.4786 216.031 65.8053 216.031 64.9386V58.6986H214.511V57.8586L216.051 57.1586L216.751 54.8786H217.791V57.3386H220.891V58.6986H217.791V64.8986C217.791 65.5519 217.945 66.0386 218.251 66.3586C218.571 66.6653 218.978 66.8186 219.471 66.8186ZM227.258 57.1386C228.178 57.1386 228.965 57.3386 229.618 57.7386C230.285 58.1386 230.791 58.7053 231.138 59.4386C231.498 60.1586 231.678 61.0053 231.678 61.9786V63.0386H224.338C224.365 64.2519 224.671 65.1786 225.258 65.8186C225.858 66.4453 226.691 66.7586 227.758 66.7586C228.438 66.7586 229.038 66.6986 229.558 66.5786C230.091 66.4453 230.638 66.2586 231.198 66.0186V67.5586C230.651 67.7986 230.111 67.9719 229.578 68.0786C229.045 68.1986 228.411 68.2586 227.678 68.2586C226.665 68.2586 225.765 68.0519 224.978 67.6386C224.205 67.2253 223.598 66.6119 223.158 65.7986C222.731 64.9719 222.518 63.9653 222.518 62.7786C222.518 61.6053 222.711 60.5986 223.098 59.7586C223.498 58.9186 224.051 58.2719 224.758 57.8186C225.478 57.3653 226.311 57.1386 227.258 57.1386ZM227.238 58.5786C226.398 58.5786 225.731 58.8519 225.238 59.3986C224.758 59.9319 224.471 60.6786 224.378 61.6386H229.838C229.825 60.7319 229.611 59.9986 229.198 59.4386C228.785 58.8653 228.131 58.5786 227.238 58.5786ZM243.742 57.1386C244.662 57.1386 245.449 57.3386 246.102 57.7386C246.769 58.1386 247.276 58.7053 247.622 59.4386C247.982 60.1586 248.162 61.0053 248.162 61.9786V63.0386H240.822C240.849 64.2519 241.156 65.1786 241.742 65.8186C242.342 66.4453 243.176 66.7586 244.242 66.7586C244.922 66.7586 245.522 66.6986 246.042 66.5786C246.576 66.4453 247.122 66.2586 247.682 66.0186V67.5586C247.136 67.7986 246.596 67.9719 246.062 68.0786C245.529 68.1986 244.896 68.2586 244.162 68.2586C243.149 68.2586 242.249 68.0519 241.462 67.6386C240.689 67.2253 240.082 66.6119 239.642 65.7986C239.216 64.9719 239.002 63.9653 239.002 62.7786C239.002 61.6053 239.196 60.5986 239.582 59.7586C239.982 58.9186 240.536 58.2719 241.242 57.8186C241.962 57.3653 242.796 57.1386 243.742 57.1386ZM243.722 58.5786C242.882 58.5786 242.216 58.8519 241.722 59.3986C241.242 59.9319 240.956 60.6786 240.862 61.6386H246.322C246.309 60.7319 246.096 59.9986 245.682 59.4386C245.269 58.8653 244.616 58.5786 243.722 58.5786ZM253.041 62.5786L249.341 57.3386H251.341L254.101 61.3786L256.841 57.3386H258.821L255.121 62.5786L259.021 68.0586H257.021L254.101 63.7786L251.141 68.0586H249.161L253.041 62.5786ZM266.187 57.1386C267.507 57.1386 268.567 57.5986 269.367 58.5186C270.18 59.4386 270.587 60.8253 270.587 62.6786C270.587 64.5053 270.18 65.8919 269.367 66.8386C268.567 67.7853 267.5 68.2586 266.167 68.2586C265.34 68.2586 264.653 68.1053 264.107 67.7986C263.573 67.4786 263.153 67.1119 262.847 66.6986H262.727C262.753 66.9253 262.78 67.2119 262.807 67.5586C262.833 67.9053 262.847 68.2053 262.847 68.4586V72.8586H261.087V57.3386H262.527L262.767 58.7986H262.847C263.167 58.3319 263.587 57.9386 264.107 57.6186C264.627 57.2986 265.32 57.1386 266.187 57.1386ZM265.867 58.6186C264.773 58.6186 264 58.9253 263.547 59.5386C263.107 60.1519 262.873 61.0853 262.847 62.3386V62.6786C262.847 63.9986 263.06 65.0186 263.487 65.7386C263.927 66.4453 264.733 66.7986 265.907 66.7986C266.56 66.7986 267.093 66.6186 267.507 66.2586C267.933 65.8986 268.247 65.4119 268.447 64.7986C268.66 64.1719 268.767 63.4586 268.767 62.6586C268.767 61.4319 268.527 60.4519 268.047 59.7186C267.58 58.9853 266.853 58.6186 265.867 58.6186ZM275.151 68.0586H273.391V52.8586H275.151V68.0586ZM279.448 53.3186C279.714 53.3186 279.948 53.4119 280.148 53.5986C280.361 53.7719 280.468 54.0519 280.468 54.4386C280.468 54.8119 280.361 55.0919 280.148 55.2786C279.948 55.4653 279.714 55.5586 279.448 55.5586C279.154 55.5586 278.908 55.4653 278.708 55.2786C278.508 55.0919 278.408 54.8119 278.408 54.4386C278.408 54.0519 278.508 53.7719 278.708 53.5986C278.908 53.4119 279.154 53.3186 279.448 53.3186ZM280.308 57.3386V68.0586H278.548V57.3386H280.308ZM288.004 68.2586C287.057 68.2586 286.211 68.0653 285.464 67.6786C284.731 67.2919 284.151 66.6919 283.724 65.8786C283.311 65.0653 283.104 64.0253 283.104 62.7586C283.104 61.4386 283.324 60.3653 283.764 59.5386C284.204 58.7119 284.797 58.1053 285.544 57.7186C286.304 57.3319 287.164 57.1386 288.124 57.1386C288.671 57.1386 289.197 57.1986 289.704 57.3186C290.211 57.4253 290.624 57.5586 290.944 57.7186L290.404 59.1786C290.084 59.0586 289.711 58.9453 289.284 58.8386C288.857 58.7319 288.457 58.6786 288.084 58.6786C285.977 58.6786 284.924 60.0319 284.924 62.7386C284.924 64.0319 285.177 65.0253 285.684 65.7186C286.204 66.3986 286.971 66.7386 287.984 66.7386C288.571 66.7386 289.084 66.6786 289.524 66.5586C289.977 66.4386 290.391 66.2919 290.764 66.1186V67.6786C290.404 67.8653 290.004 68.0053 289.564 68.0986C289.137 68.2053 288.617 68.2586 288.004 68.2586ZM297.373 57.1586C298.68 57.1586 299.647 57.4453 300.273 58.0186C300.9 58.5919 301.213 59.5053 301.213 60.7586V68.0586H299.933L299.593 66.5386H299.513C299.047 67.1253 298.553 67.5586 298.033 67.8386C297.527 68.1186 296.82 68.2586 295.913 68.2586C294.94 68.2586 294.133 68.0053 293.493 67.4986C292.853 66.9786 292.533 66.1719 292.533 65.0786C292.533 64.0119 292.953 63.1919 293.793 62.6186C294.633 62.0319 295.927 61.7119 297.673 61.6586L299.493 61.5986V60.9586C299.493 60.0653 299.3 59.4453 298.913 59.0986C298.527 58.7519 297.98 58.5786 297.273 58.5786C296.713 58.5786 296.18 58.6653 295.673 58.8386C295.167 58.9986 294.693 59.1853 294.253 59.3986L293.713 58.0786C294.18 57.8253 294.733 57.6119 295.373 57.4386C296.013 57.2519 296.68 57.1586 297.373 57.1586ZM297.893 62.8786C296.56 62.9319 295.633 63.1453 295.113 63.5186C294.607 63.8919 294.353 64.4186 294.353 65.0986C294.353 65.6986 294.533 66.1386 294.893 66.4186C295.267 66.6986 295.74 66.8386 296.313 66.8386C297.22 66.8386 297.973 66.5919 298.573 66.0986C299.173 65.5919 299.473 64.8186 299.473 63.7786V62.8186L297.893 62.8786ZM308.104 66.8186C308.371 66.8186 308.644 66.7986 308.924 66.7586C309.204 66.7053 309.431 66.6519 309.604 66.5986V67.9386C309.418 68.0319 309.151 68.1053 308.804 68.1586C308.458 68.2253 308.124 68.2586 307.804 68.2586C307.244 68.2586 306.724 68.1653 306.244 67.9786C305.778 67.7786 305.398 67.4386 305.104 66.9586C304.811 66.4786 304.664 65.8053 304.664 64.9386V58.6986H303.144V57.8586L304.684 57.1586L305.384 54.8786H306.424V57.3386H309.524V58.6986H306.424V64.8986C306.424 65.5519 306.578 66.0386 306.884 66.3586C307.204 66.6653 307.611 66.8186 308.104 66.8186ZM312.651 53.3186C312.917 53.3186 313.151 53.4119 313.351 53.5986C313.564 53.7719 313.671 54.0519 313.671 54.4386C313.671 54.8119 313.564 55.0919 313.351 55.2786C313.151 55.4653 312.917 55.5586 312.651 55.5586C312.357 55.5586 312.111 55.4653 311.911 55.2786C311.711 55.0919 311.611 54.8119 311.611 54.4386C311.611 54.0519 311.711 53.7719 311.911 53.5986C312.111 53.4119 312.357 53.3186 312.651 53.3186ZM313.511 57.3386V68.0586H311.751V57.3386H313.511ZM321.847 58.6986H319.147V68.0586H317.387V58.6986H315.507V57.8786L317.387 57.2786V56.6586C317.387 55.2719 317.694 54.2786 318.307 53.6786C318.92 53.0653 319.774 52.7586 320.867 52.7586C321.294 52.7586 321.68 52.7986 322.027 52.8786C322.387 52.9453 322.694 53.0253 322.947 53.1186L322.487 54.4986C322.274 54.4319 322.027 54.3653 321.747 54.2986C321.467 54.2319 321.18 54.1986 320.887 54.1986C320.3 54.1986 319.86 54.3986 319.567 54.7986C319.287 55.1853 319.147 55.7986 319.147 56.6386V57.3386H321.847V58.6986ZM334.517 53.7786L329.197 68.0586H327.477L332.797 53.7786H334.517ZM349.834 68.0586H341.854V53.7786H349.834V55.3586H343.654V59.8186H349.474V61.3786H343.654V66.4786H349.834V68.0586ZM355.267 62.5786L351.567 57.3386H353.567L356.327 61.3786L359.067 57.3386H361.047L357.347 62.5786L361.247 68.0586H359.247L356.327 63.7786L353.367 68.0586H351.387L355.267 62.5786ZM367.063 57.1386C367.983 57.1386 368.769 57.3386 369.423 57.7386C370.089 58.1386 370.596 58.7053 370.943 59.4386C371.303 60.1586 371.483 61.0053 371.483 61.9786V63.0386H364.143C364.169 64.2519 364.476 65.1786 365.063 65.8186C365.663 66.4453 366.496 66.7586 367.563 66.7586C368.243 66.7586 368.843 66.6986 369.363 66.5786C369.896 66.4453 370.443 66.2586 371.003 66.0186V67.5586C370.456 67.7986 369.916 67.9719 369.383 68.0786C368.849 68.1986 368.216 68.2586 367.483 68.2586C366.469 68.2586 365.569 68.0519 364.783 67.6386C364.009 67.2253 363.403 66.6119 362.963 65.7986C362.536 64.9719 362.323 63.9653 362.323 62.7786C362.323 61.6053 362.516 60.5986 362.903 59.7586C363.303 58.9186 363.856 58.2719 364.563 57.8186C365.283 57.3653 366.116 57.1386 367.063 57.1386ZM367.043 58.5786C366.203 58.5786 365.536 58.8519 365.043 59.3986C364.563 59.9319 364.276 60.6786 364.183 61.6386H369.643C369.629 60.7319 369.416 59.9986 369.003 59.4386C368.589 58.8653 367.936 58.5786 367.043 58.5786ZM385.972 57.1386C387.185 57.1386 388.092 57.4519 388.692 58.0786C389.292 58.6919 389.592 59.6919 389.592 61.0786V68.0586H387.852V61.1586C387.852 59.4653 387.125 58.6186 385.672 58.6186C384.632 58.6186 383.885 58.9186 383.432 59.5186C382.992 60.1186 382.772 60.9919 382.772 62.1386V68.0586H381.032V61.1586C381.032 59.4653 380.298 58.6186 378.832 58.6186C377.752 58.6186 377.005 58.9519 376.592 59.6186C376.178 60.2853 375.972 61.2453 375.972 62.4986V68.0586H374.212V57.3386H375.632L375.892 58.7986H375.992C376.325 58.2386 376.772 57.8253 377.332 57.5586C377.905 57.2786 378.512 57.1386 379.152 57.1386C380.832 57.1386 381.925 57.7386 382.432 58.9386H382.532C382.892 58.3253 383.378 57.8719 383.992 57.5786C384.618 57.2853 385.278 57.1386 385.972 57.1386ZM398.003 57.1386C399.323 57.1386 400.383 57.5986 401.183 58.5186C401.996 59.4386 402.403 60.8253 402.403 62.6786C402.403 64.5053 401.996 65.8919 401.183 66.8386C400.383 67.7853 399.316 68.2586 397.983 68.2586C397.156 68.2586 396.47 68.1053 395.923 67.7986C395.39 67.4786 394.97 67.1119 394.663 66.6986H394.543C394.57 66.9253 394.596 67.2119 394.623 67.5586C394.65 67.9053 394.663 68.2053 394.663 68.4586V72.8586H392.903V57.3386H394.343L394.583 58.7986H394.663C394.983 58.3319 395.403 57.9386 395.923 57.6186C396.443 57.2986 397.136 57.1386 398.003 57.1386ZM397.683 58.6186C396.59 58.6186 395.816 58.9253 395.363 59.5386C394.923 60.1519 394.69 61.0853 394.663 62.3386V62.6786C394.663 63.9986 394.876 65.0186 395.303 65.7386C395.743 66.4453 396.55 66.7986 397.723 66.7986C398.376 66.7986 398.91 66.6186 399.323 66.2586C399.75 65.8986 400.063 65.4119 400.263 64.7986C400.476 64.1719 400.583 63.4586 400.583 62.6586C400.583 61.4319 400.343 60.4519 399.863 59.7186C399.396 58.9853 398.67 58.6186 397.683 58.6186ZM406.968 68.0586H405.208V52.8586H406.968V68.0586ZM414.504 57.1386C415.424 57.1386 416.211 57.3386 416.864 57.7386C417.531 58.1386 418.037 58.7053 418.384 59.4386C418.744 60.1586 418.924 61.0053 418.924 61.9786V63.0386H411.584C411.611 64.2519 411.917 65.1786 412.504 65.8186C413.104 66.4453 413.937 66.7586 415.004 66.7586C415.684 66.7586 416.284 66.6986 416.804 66.5786C417.337 66.4453 417.884 66.2586 418.444 66.0186V67.5586C417.897 67.7986 417.357 67.9719 416.824 68.0786C416.291 68.1986 415.657 68.2586 414.924 68.2586C413.911 68.2586 413.011 68.0519 412.224 67.6386C411.451 67.2253 410.844 66.6119 410.404 65.7986C409.977 64.9719 409.764 63.9653 409.764 62.7786C409.764 61.6053 409.957 60.5986 410.344 59.7586C410.744 58.9186 411.297 58.2719 412.004 57.8186C412.724 57.3653 413.557 57.1386 414.504 57.1386ZM414.484 58.5786C413.644 58.5786 412.977 58.8519 412.484 59.3986C412.004 59.9319 411.717 60.6786 411.624 61.6386H417.084C417.071 60.7319 416.857 59.9986 416.444 59.4386C416.031 58.8653 415.377 58.5786 414.484 58.5786ZM430.648 68.2586C429.315 68.2586 428.248 67.7986 427.448 66.8786C426.648 65.9453 426.248 64.5586 426.248 62.7186C426.248 60.8786 426.648 59.4919 427.448 58.5586C428.262 57.6119 429.335 57.1386 430.668 57.1386C431.495 57.1386 432.168 57.2919 432.688 57.5986C433.222 57.9053 433.655 58.2786 433.988 58.7186H434.108C434.095 58.5453 434.068 58.2919 434.028 57.9586C434.002 57.6119 433.988 57.3386 433.988 57.1386V52.8586H435.748V68.0586H434.328L434.068 66.6186H433.988C433.668 67.0719 433.242 67.4586 432.708 67.7786C432.175 68.0986 431.488 68.2586 430.648 68.2586ZM430.928 66.7986C432.062 66.7986 432.855 66.4919 433.308 65.8786C433.775 65.2519 434.008 64.3119 434.008 63.0586V62.7386C434.008 61.4053 433.788 60.3853 433.348 59.6786C432.908 58.9586 432.095 58.5986 430.908 58.5986C429.962 58.5986 429.248 58.9786 428.768 59.7386C428.302 60.4853 428.068 61.4919 428.068 62.7586C428.068 64.0386 428.302 65.0319 428.768 65.7386C429.248 66.4453 429.968 66.7986 430.928 66.7986ZM443.293 57.1386C444.213 57.1386 445 57.3386 445.653 57.7386C446.32 58.1386 446.826 58.7053 447.173 59.4386C447.533 60.1586 447.713 61.0053 447.713 61.9786V63.0386H440.373C440.4 64.2519 440.706 65.1786 441.293 65.8186C441.893 66.4453 442.726 66.7586 443.793 66.7586C444.473 66.7586 445.073 66.6986 445.593 66.5786C446.126 66.4453 446.673 66.2586 447.233 66.0186V67.5586C446.686 67.7986 446.146 67.9719 445.613 68.0786C445.08 68.1986 444.446 68.2586 443.713 68.2586C442.7 68.2586 441.8 68.0519 441.013 67.6386C440.24 67.2253 439.633 66.6119 439.193 65.7986C438.766 64.9719 438.553 63.9653 438.553 62.7786C438.553 61.6053 438.746 60.5986 439.133 59.7586C439.533 58.9186 440.086 58.2719 440.793 57.8186C441.513 57.3653 442.346 57.1386 443.293 57.1386ZM443.273 58.5786C442.433 58.5786 441.766 58.8519 441.273 59.3986C440.793 59.9319 440.506 60.6786 440.413 61.6386H445.873C445.86 60.7319 445.646 59.9986 445.233 59.4386C444.82 58.8653 444.166 58.5786 443.273 58.5786ZM467.398 57.1386C468.611 57.1386 469.518 57.4519 470.118 58.0786C470.718 58.6919 471.018 59.6919 471.018 61.0786V68.0586H469.278V61.1586C469.278 59.4653 468.551 58.6186 467.098 58.6186C466.058 58.6186 465.311 58.9186 464.858 59.5186C464.418 60.1186 464.198 60.9919 464.198 62.1386V68.0586H462.458V61.1586C462.458 59.4653 461.724 58.6186 460.258 58.6186C459.178 58.6186 458.431 58.9519 458.018 59.6186C457.604 60.2853 457.398 61.2453 457.398 62.4986V68.0586H455.638V57.3386H457.058L457.318 58.7986H457.418C457.751 58.2386 458.198 57.8253 458.758 57.5586C459.331 57.2786 459.938 57.1386 460.578 57.1386C462.258 57.1386 463.351 57.7386 463.858 58.9386H463.958C464.318 58.3253 464.804 57.8719 465.418 57.5786C466.044 57.2853 466.704 57.1386 467.398 57.1386ZM478.469 57.1386C479.389 57.1386 480.176 57.3386 480.829 57.7386C481.496 58.1386 482.002 58.7053 482.349 59.4386C482.709 60.1586 482.889 61.0053 482.889 61.9786V63.0386H475.549C475.576 64.2519 475.882 65.1786 476.469 65.8186C477.069 66.4453 477.902 66.7586 478.969 66.7586C479.649 66.7586 480.249 66.6986 480.769 66.5786C481.302 66.4453 481.849 66.2586 482.409 66.0186V67.5586C481.862 67.7986 481.322 67.9719 480.789 68.0786C480.256 68.1986 479.622 68.2586 478.889 68.2586C477.876 68.2586 476.976 68.0519 476.189 67.6386C475.416 67.2253 474.809 66.6119 474.369 65.7986C473.942 64.9719 473.729 63.9653 473.729 62.7786C473.729 61.6053 473.922 60.5986 474.309 59.7586C474.709 58.9186 475.262 58.2719 475.969 57.8186C476.689 57.3653 477.522 57.1386 478.469 57.1386ZM478.449 58.5786C477.609 58.5786 476.942 58.8519 476.449 59.3986C475.969 59.9319 475.682 60.6786 475.589 61.6386H481.049C481.036 60.7319 480.822 59.9986 480.409 59.4386C479.996 58.8653 479.342 58.5786 478.449 58.5786ZM492.598 65.0986C492.598 66.1386 492.211 66.9253 491.438 67.4586C490.665 67.9919 489.625 68.2586 488.318 68.2586C487.571 68.2586 486.925 68.1986 486.378 68.0786C485.845 67.9586 485.371 67.7919 484.958 67.5786V65.9786C485.385 66.1919 485.898 66.3919 486.498 66.5786C487.111 66.7519 487.731 66.8386 488.358 66.8386C489.251 66.8386 489.898 66.6986 490.298 66.4186C490.698 66.1253 490.898 65.7386 490.898 65.2586C490.898 64.9919 490.825 64.7519 490.678 64.5386C490.531 64.3253 490.265 64.1119 489.878 63.8986C489.505 63.6853 488.965 63.4453 488.258 63.1786C487.565 62.9119 486.971 62.6453 486.478 62.3786C485.985 62.1119 485.605 61.7919 485.338 61.4186C485.071 61.0453 484.938 60.5653 484.938 59.9786C484.938 59.0719 485.305 58.3719 486.038 57.8786C486.785 57.3853 487.758 57.1386 488.958 57.1386C489.611 57.1386 490.218 57.2053 490.778 57.3386C491.351 57.4586 491.885 57.6319 492.378 57.8586L491.778 59.2586C491.325 59.0719 490.851 58.9119 490.358 58.7786C489.865 58.6453 489.358 58.5786 488.838 58.5786C488.118 58.5786 487.565 58.6986 487.178 58.9386C486.805 59.1653 486.618 59.4786 486.618 59.8786C486.618 60.1719 486.705 60.4253 486.878 60.6386C487.051 60.8386 487.338 61.0386 487.738 61.2386C488.151 61.4253 488.698 61.6519 489.378 61.9186C490.058 62.1719 490.638 62.4319 491.118 62.6986C491.598 62.9653 491.965 63.2919 492.218 63.6786C492.471 64.0519 492.598 64.5253 492.598 65.0986ZM502.168 65.0986C502.168 66.1386 501.782 66.9253 501.008 67.4586C500.235 67.9919 499.195 68.2586 497.888 68.2586C497.142 68.2586 496.495 68.1986 495.948 68.0786C495.415 67.9586 494.942 67.7919 494.528 67.5786V65.9786C494.955 66.1919 495.468 66.3919 496.068 66.5786C496.682 66.7519 497.302 66.8386 497.928 66.8386C498.822 66.8386 499.468 66.6986 499.868 66.4186C500.268 66.1253 500.468 65.7386 500.468 65.2586C500.468 64.9919 500.395 64.7519 500.248 64.5386C500.102 64.3253 499.835 64.1119 499.448 63.8986C499.075 63.6853 498.535 63.4453 497.828 63.1786C497.135 62.9119 496.542 62.6453 496.048 62.3786C495.555 62.1119 495.175 61.7919 494.908 61.4186C494.642 61.0453 494.508 60.5653 494.508 59.9786C494.508 59.0719 494.875 58.3719 495.608 57.8786C496.355 57.3853 497.328 57.1386 498.528 57.1386C499.182 57.1386 499.788 57.2053 500.348 57.3386C500.922 57.4586 501.455 57.6319 501.948 57.8586L501.348 59.2586C500.895 59.0719 500.422 58.9119 499.928 58.7786C499.435 58.6453 498.928 58.5786 498.408 58.5786C497.688 58.5786 497.135 58.6986 496.748 58.9386C496.375 59.1653 496.188 59.4786 496.188 59.8786C496.188 60.1719 496.275 60.4253 496.448 60.6386C496.622 60.8386 496.908 61.0386 497.308 61.2386C497.722 61.4253 498.268 61.6519 498.948 61.9186C499.628 62.1719 500.208 62.4319 500.688 62.6986C501.168 62.9653 501.535 63.2919 501.788 63.6786C502.042 64.0519 502.168 64.5253 502.168 65.0986ZM508.819 57.1586C510.125 57.1586 511.092 57.4453 511.719 58.0186C512.345 58.5919 512.659 59.5053 512.659 60.7586V68.0586H511.379L511.039 66.5386H510.959C510.492 67.1253 509.999 67.5586 509.479 67.8386C508.972 68.1186 508.265 68.2586 507.359 68.2586C506.385 68.2586 505.579 68.0053 504.939 67.4986C504.299 66.9786 503.979 66.1719 503.979 65.0786C503.979 64.0119 504.399 63.1919 505.239 62.6186C506.079 62.0319 507.372 61.7119 509.119 61.6586L510.939 61.5986V60.9586C510.939 60.0653 510.745 59.4453 510.359 59.0986C509.972 58.7519 509.425 58.5786 508.719 58.5786C508.159 58.5786 507.625 58.6653 507.119 58.8386C506.612 58.9986 506.139 59.1853 505.699 59.3986L505.159 58.0786C505.625 57.8253 506.179 57.6119 506.819 57.4386C507.459 57.2519 508.125 57.1586 508.819 57.1586ZM509.339 62.8786C508.005 62.9319 507.079 63.1453 506.559 63.5186C506.052 63.8919 505.799 64.4186 505.799 65.0986C505.799 65.6986 505.979 66.1386 506.339 66.4186C506.712 66.6986 507.185 66.8386 507.759 66.8386C508.665 66.8386 509.419 66.5919 510.019 66.0986C510.619 65.5919 510.919 64.8186 510.919 63.7786V62.8186L509.339 62.8786ZM519.77 57.1386C520.476 57.1386 521.11 57.2719 521.67 57.5386C522.243 57.8053 522.73 58.2119 523.13 58.7586H523.23L523.47 57.3386H524.87V68.2386C524.87 69.7719 524.476 70.9253 523.69 71.6986C522.916 72.4719 521.71 72.8586 520.07 72.8586C518.496 72.8586 517.21 72.6319 516.21 72.1786V70.5586C517.263 71.1186 518.583 71.3986 520.17 71.3986C521.09 71.3986 521.81 71.1253 522.33 70.5786C522.863 70.0453 523.13 69.3119 523.13 68.3786V67.9586C523.13 67.7986 523.136 67.5719 523.15 67.2786C523.163 66.9719 523.176 66.7586 523.19 66.6386H523.11C522.39 67.7186 521.283 68.2586 519.79 68.2586C518.403 68.2586 517.316 67.7719 516.53 66.7986C515.756 65.8253 515.37 64.4653 515.37 62.7186C515.37 61.0119 515.756 59.6586 516.53 58.6586C517.316 57.6453 518.396 57.1386 519.77 57.1386ZM520.01 58.6186C519.116 58.6186 518.423 58.9786 517.93 59.6986C517.436 60.4053 517.19 61.4186 517.19 62.7386C517.19 64.0586 517.43 65.0719 517.91 65.7786C518.403 66.4719 519.116 66.8186 520.05 66.8186C521.13 66.8186 521.916 66.5319 522.41 65.9586C522.903 65.3719 523.15 64.4319 523.15 63.1386V62.7186C523.15 61.2519 522.896 60.2053 522.39 59.5786C521.883 58.9386 521.09 58.6186 520.01 58.6186ZM532.414 57.1386C533.334 57.1386 534.121 57.3386 534.774 57.7386C535.441 58.1386 535.948 58.7053 536.294 59.4386C536.654 60.1586 536.834 61.0053 536.834 61.9786V63.0386H529.494C529.521 64.2519 529.828 65.1786 530.414 65.8186C531.014 66.4453 531.848 66.7586 532.914 66.7586C533.594 66.7586 534.194 66.6986 534.714 66.5786C535.248 66.4453 535.794 66.2586 536.354 66.0186V67.5586C535.808 67.7986 535.268 67.9719 534.734 68.0786C534.201 68.1986 533.568 68.2586 532.834 68.2586C531.821 68.2586 530.921 68.0519 530.134 67.6386C529.361 67.2253 528.754 66.6119 528.314 65.7986C527.888 64.9719 527.674 63.9653 527.674 62.7786C527.674 61.6053 527.868 60.5986 528.254 59.7586C528.654 58.9186 529.208 58.2719 529.914 57.8186C530.634 57.3653 531.468 57.1386 532.414 57.1386ZM532.394 58.5786C531.554 58.5786 530.888 58.8519 530.394 59.3986C529.914 59.9319 529.628 60.6786 529.534 61.6386H534.994C534.981 60.7319 534.768 59.9986 534.354 59.4386C533.941 58.8653 533.288 58.5786 532.394 58.5786Z" fill="black"/>
<rect x="184" y="95.8584" width="577" height="174" rx="3" fill="white"/>
<rect x="184" y="95.8584" width="577" height="174" rx="3" stroke="black" stroke-width="2"/>
<path d="M12.912 71.6582H11.488V61.4982H8.16V60.2342H16.208V61.4982H12.912V71.6582ZM19.7281 62.9222C20.4215 62.9222 21.0188 63.0822 21.5201 63.4022C22.0215 63.7222 22.4055 64.1755 22.6721 64.7622C22.9495 65.3382 23.0881 66.0155 23.0881 66.7942V67.6422H17.5841C17.6055 68.6129 17.8348 69.3542 18.2721 69.8662C18.7095 70.3675 19.3228 70.6182 20.1121 70.6182C20.6241 70.6182 21.0775 70.5702 21.4721 70.4742C21.8775 70.3675 22.2935 70.2182 22.7201 70.0262V71.2582C22.3041 71.4502 21.8935 71.5889 21.4881 71.6742C21.0935 71.7702 20.6135 71.8182 20.0481 71.8182C19.2801 71.8182 18.6028 71.6529 18.0161 71.3222C17.4295 70.9915 16.9708 70.5009 16.6401 69.8502C16.3095 69.1889 16.1441 68.3835 16.1441 67.4342C16.1441 66.4955 16.2935 65.6902 16.5921 65.0182C16.8908 64.3462 17.3068 63.8289 17.8401 63.4662C18.3841 63.1035 19.0135 62.9222 19.7281 62.9222ZM19.7281 64.0742C19.1095 64.0742 18.6188 64.2929 18.2561 64.7302C17.8935 65.1569 17.6801 65.7542 17.6161 66.5222H21.6481C21.6481 66.0315 21.5788 65.6049 21.4401 65.2422C21.3015 64.8795 21.0881 64.5969 20.8001 64.3942C20.5228 64.1809 20.1655 64.0742 19.7281 64.0742ZM26.7149 67.2742L23.9309 63.0822H25.5149L27.5629 66.3142L29.5789 63.0822H31.1629L28.3789 67.2742L31.3069 71.6582H29.7229L27.5629 68.2342L25.3709 71.6582H23.8029L26.7149 67.2742ZM35.5945 70.6662C35.7972 70.6662 36.0052 70.6502 36.2185 70.6182C36.4318 70.5755 36.6078 70.5329 36.7465 70.4902V71.5622C36.5972 71.6369 36.3838 71.6955 36.1065 71.7382C35.8398 71.7915 35.5838 71.8182 35.3385 71.8182C34.9118 71.8182 34.5172 71.7435 34.1545 71.5942C33.7918 71.4342 33.4985 71.1622 33.2745 70.7782C33.0612 70.3942 32.9545 69.8555 32.9545 69.1622V64.1702H31.8185V63.4982L32.9865 62.9382L33.5145 61.1142H34.3465V63.0822H36.6825V64.1702H34.3465V69.1302C34.3465 69.6529 34.4638 70.0422 34.6985 70.2982C34.9332 70.5435 35.2318 70.6662 35.5945 70.6662ZM41.4781 62.9222C42.1715 62.9222 42.7688 63.0822 43.2701 63.4022C43.7715 63.7222 44.1555 64.1755 44.4221 64.7622C44.6995 65.3382 44.8381 66.0155 44.8381 66.7942V67.6422H39.3341C39.3555 68.6129 39.5848 69.3542 40.0221 69.8662C40.4595 70.3675 41.0728 70.6182 41.8621 70.6182C42.3741 70.6182 42.8275 70.5702 43.2221 70.4742C43.6275 70.3675 44.0435 70.2182 44.4701 70.0262V71.2582C44.0541 71.4502 43.6435 71.5889 43.2381 71.6742C42.8435 71.7702 42.3635 71.8182 41.7981 71.8182C41.0301 71.8182 40.3528 71.6529 39.7661 71.3222C39.1795 70.9915 38.7208 70.5009 38.3901 69.8502C38.0595 69.1889 37.8941 68.3835 37.8941 67.4342C37.8941 66.4955 38.0435 65.6902 38.3421 65.0182C38.6408 64.3462 39.0568 63.8289 39.5901 63.4662C40.1341 63.1035 40.7635 62.9222 41.4781 62.9222ZM41.4781 64.0742C40.8595 64.0742 40.3688 64.2929 40.0061 64.7302C39.6435 65.1569 39.4301 65.7542 39.3661 66.5222H43.3981C43.3981 66.0315 43.3288 65.6049 43.1901 65.2422C43.0515 64.8795 42.8381 64.5969 42.5501 64.3942C42.2728 64.1809 41.9155 64.0742 41.4781 64.0742ZM53.9 62.9222C54.5933 62.9222 55.1907 63.0822 55.692 63.4022C56.1933 63.7222 56.5773 64.1755 56.844 64.7622C57.1213 65.3382 57.26 66.0155 57.26 66.7942V67.6422H51.756C51.7773 68.6129 52.0067 69.3542 52.444 69.8662C52.8813 70.3675 53.4947 70.6182 54.284 70.6182C54.796 70.6182 55.2493 70.5702 55.644 70.4742C56.0493 70.3675 56.4653 70.2182 56.892 70.0262V71.2582C56.476 71.4502 56.0653 71.5889 55.66 71.6742C55.2653 71.7702 54.7853 71.8182 54.22 71.8182C53.452 71.8182 52.7747 71.6529 52.188 71.3222C51.6013 70.9915 51.1427 70.5009 50.812 69.8502C50.4813 69.1889 50.316 68.3835 50.316 67.4342C50.316 66.4955 50.4653 65.6902 50.764 65.0182C51.0627 64.3462 51.4787 63.8289 52.012 63.4662C52.556 63.1035 53.1853 62.9222 53.9 62.9222ZM53.9 64.0742C53.2813 64.0742 52.7907 64.2929 52.428 64.7302C52.0653 65.1569 51.852 65.7542 51.788 66.5222H55.82C55.82 66.0315 55.7507 65.6049 55.612 65.2422C55.4733 64.8795 55.26 64.5969 54.972 64.3942C54.6947 64.1809 54.3373 64.0742 53.9 64.0742ZM60.8868 67.2742L58.1028 63.0822H59.6868L61.7348 66.3142L63.7508 63.0822H65.3348L62.5508 67.2742L65.4788 71.6582H63.8948L61.7348 68.2342L59.5428 71.6582H57.9748L60.8868 67.2742ZM70.8864 62.9222C71.8784 62.9222 72.673 63.2902 73.2704 64.0262C73.8784 64.7622 74.1824 65.8715 74.1824 67.3542C74.1824 68.3249 74.0437 69.1462 73.7664 69.8182C73.489 70.4795 73.0997 70.9809 72.5984 71.3222C72.1077 71.6529 71.5317 71.8182 70.8704 71.8182C70.4544 71.8182 70.0864 71.7595 69.7664 71.6422C69.457 71.5249 69.1904 71.3755 68.9664 71.1942C68.7424 71.0022 68.5504 70.7942 68.3904 70.5702H68.2944C68.3157 70.7515 68.337 70.9809 68.3584 71.2582C68.3797 71.5355 68.3904 71.7755 68.3904 71.9782V75.4982H66.9984V63.0822H68.1344L68.3264 64.2502H68.3904C68.5504 64.0049 68.7424 63.7809 68.9664 63.5782C69.1904 63.3755 69.457 63.2155 69.7664 63.0982C70.0864 62.9809 70.4597 62.9222 70.8864 62.9222ZM70.6144 64.1062C70.081 64.1062 69.649 64.2182 69.3184 64.4422C68.9984 64.6555 68.7637 64.9809 68.6144 65.4182C68.465 65.8555 68.3904 66.4102 68.3904 67.0822V67.3542C68.3904 68.0582 68.4544 68.6555 68.5824 69.1462C68.721 69.6369 68.9557 70.0102 69.2864 70.2662C69.617 70.5222 70.0704 70.6502 70.6464 70.6502C71.1264 70.6502 71.521 70.5062 71.8304 70.2182C72.1397 69.9302 72.369 69.5409 72.5184 69.0502C72.6677 68.5489 72.7424 67.9782 72.7424 67.3382C72.7424 66.3569 72.5664 65.5729 72.2144 64.9862C71.873 64.3995 71.3397 64.1062 70.6144 64.1062ZM77.656 71.6582H76.264V59.4982H77.656V71.6582ZM81.5939 63.0822V71.6582H80.2019V63.0822H81.5939ZM80.9059 59.8662C81.1192 59.8662 81.3059 59.9409 81.4659 60.0902C81.6259 60.2289 81.7059 60.4529 81.7059 60.7622C81.7059 61.0609 81.6259 61.2849 81.4659 61.4342C81.3059 61.5835 81.1192 61.6582 80.9059 61.6582C80.6819 61.6582 80.4899 61.5835 80.3299 61.4342C80.1699 61.2849 80.0899 61.0609 80.0899 60.7622C80.0899 60.4529 80.1699 60.2289 80.3299 60.0902C80.4899 59.9409 80.6819 59.8662 80.9059 59.8662ZM87.3714 71.8182C86.646 71.8182 86.006 71.6635 85.4514 71.3542C84.8967 71.0449 84.4594 70.5649 84.1394 69.9142C83.83 69.2635 83.6754 68.4315 83.6754 67.4182C83.6754 66.3622 83.8407 65.5035 84.1714 64.8422C84.502 64.1809 84.95 63.6955 85.5154 63.3862C86.0914 63.0769 86.742 62.9222 87.4674 62.9222C87.8834 62.9222 88.2834 62.9702 88.6674 63.0662C89.062 63.1515 89.382 63.2582 89.6274 63.3862L89.1954 64.5542C88.95 64.4582 88.662 64.3675 88.3314 64.2822C88.0114 64.1969 87.7127 64.1542 87.4354 64.1542C86.9127 64.1542 86.4807 64.2769 86.1394 64.5222C85.798 64.7675 85.542 65.1302 85.3714 65.6102C85.2007 66.0902 85.1154 66.6875 85.1154 67.4022C85.1154 68.0849 85.2007 68.6662 85.3714 69.1462C85.542 69.6262 85.7927 69.9889 86.1234 70.2342C86.4647 70.4795 86.8807 70.6022 87.3714 70.6022C87.8087 70.6022 88.198 70.5542 88.5394 70.4582C88.8807 70.3622 89.1954 70.2449 89.4834 70.1062V71.3542C89.206 71.5035 88.902 71.6155 88.5714 71.6902C88.2407 71.7755 87.8407 71.8182 87.3714 71.8182ZM94.477 62.9382C95.4583 62.9382 96.189 63.1675 96.669 63.6262C97.1597 64.0849 97.405 64.8155 97.405 65.8182V71.6582H96.397L96.125 70.4422H96.061C95.8263 70.7515 95.5863 71.0129 95.341 71.2262C95.1063 71.4289 94.829 71.5782 94.509 71.6742C94.1997 71.7702 93.8157 71.8182 93.357 71.8182C92.877 71.8182 92.445 71.7275 92.061 71.5462C91.677 71.3649 91.373 71.0875 91.149 70.7142C90.925 70.3302 90.813 69.8502 90.813 69.2742C90.813 68.4209 91.1277 67.7649 91.757 67.3062C92.3863 66.8369 93.357 66.5809 94.669 66.5382L96.029 66.4902V65.9782C96.029 65.2635 95.885 64.7675 95.597 64.4902C95.3197 64.2129 94.9197 64.0742 94.397 64.0742C93.981 64.0742 93.581 64.1435 93.197 64.2822C92.8237 64.4102 92.4663 64.5595 92.125 64.7302L91.693 63.6742C92.0557 63.4715 92.477 63.3009 92.957 63.1622C93.437 63.0129 93.9437 62.9382 94.477 62.9382ZM94.861 67.5142C93.8797 67.5569 93.197 67.7275 92.813 68.0262C92.4397 68.3249 92.253 68.7462 92.253 69.2902C92.253 69.7702 92.3863 70.1222 92.653 70.3462C92.9197 70.5702 93.2663 70.6822 93.693 70.6822C94.3543 70.6822 94.909 70.4849 95.357 70.0902C95.805 69.6849 96.029 69.0662 96.029 68.2342V67.4662L94.861 67.5142ZM102.657 70.6662C102.86 70.6662 103.068 70.6502 103.281 70.6182C103.494 70.5755 103.67 70.5329 103.809 70.4902V71.5622C103.66 71.6369 103.446 71.6955 103.169 71.7382C102.902 71.7915 102.646 71.8182 102.401 71.8182C101.974 71.8182 101.58 71.7435 101.217 71.5942C100.854 71.4342 100.561 71.1622 100.337 70.7782C100.124 70.3942 100.017 69.8555 100.017 69.1622V64.1702H98.881V63.4982L100.049 62.9382L100.577 61.1142H101.409V63.0822H103.745V64.1702H101.409V69.1302C101.409 69.6529 101.526 70.0422 101.761 70.2982C101.996 70.5435 102.294 70.6662 102.657 70.6662ZM106.813 63.0822V71.6582H105.421V63.0822H106.813ZM106.125 59.8662C106.338 59.8662 106.525 59.9409 106.685 60.0902C106.845 60.2289 106.925 60.4529 106.925 60.7622C106.925 61.0609 106.845 61.2849 106.685 61.4342C106.525 61.5835 106.338 61.6582 106.125 61.6582C105.901 61.6582 105.709 61.5835 105.549 61.4342C105.389 61.2849 105.309 61.0609 105.309 60.7622C105.309 60.4529 105.389 60.2289 105.549 60.0902C105.709 59.9409 105.901 59.8662 106.125 59.8662ZM113.118 64.1702H111.102V71.6582H109.694V64.1702H108.302V63.5142L109.694 63.0342V62.5382C109.694 61.8022 109.795 61.2049 109.998 60.7462C110.211 60.2875 110.515 59.9515 110.91 59.7382C111.305 59.5249 111.779 59.4182 112.334 59.4182C112.665 59.4182 112.963 59.4502 113.23 59.5142C113.507 59.5675 113.747 59.6315 113.95 59.7062L113.582 60.8102C113.411 60.7569 113.219 60.7035 113.006 60.6502C112.803 60.5969 112.59 60.5702 112.366 60.5702C111.939 60.5702 111.619 60.7302 111.406 61.0502C111.203 61.3595 111.102 61.8502 111.102 62.5222V63.0822H113.118V64.1702Z" fill="black"/>
<rect x="1" y="47.6582" width="120" height="36" stroke="#FFC418" stroke-width="2"/>
<path d="M150 66.6582H121" stroke="#FFC418" stroke-width="2"/>
<path d="M38.472 25.6582H32.456V14.2342H38.472V15.4982H33.88V19.0662H38.2V20.3142H33.88V24.3942H38.472V25.6582ZM37.944 10.7142C37.848 10.8635 37.7093 11.0449 37.528 11.2582C37.3573 11.4715 37.1653 11.6955 36.952 11.9302C36.7493 12.1542 36.5413 12.3729 36.328 12.5862C36.1147 12.7889 35.9173 12.9649 35.736 13.1142H34.824V12.9222C34.9733 12.7195 35.1387 12.4795 35.32 12.2022C35.5013 11.9249 35.6773 11.6422 35.848 11.3542C36.0187 11.0555 36.1627 10.7889 36.28 10.5542H37.944V10.7142ZM43.407 24.6662C43.6097 24.6662 43.8177 24.6502 44.031 24.6182C44.2443 24.5755 44.4203 24.5329 44.559 24.4902V25.5622C44.4097 25.6369 44.1963 25.6955 43.919 25.7382C43.6523 25.7915 43.3963 25.8182 43.151 25.8182C42.7243 25.8182 42.3297 25.7435 41.967 25.5942C41.6043 25.4342 41.311 25.1622 41.087 24.7782C40.8737 24.3942 40.767 23.8555 40.767 23.1622V18.1702H39.631V17.4982L40.799 16.9382L41.327 15.1142H42.159V17.0822H44.495V18.1702H42.159V23.1302C42.159 23.6529 42.2763 24.0422 42.511 24.2982C42.7457 24.5435 43.0443 24.6662 43.407 24.6662ZM47.5626 17.0822V25.6582H46.1706V17.0822H47.5626ZM46.8746 13.8662C47.088 13.8662 47.2746 13.9409 47.4346 14.0902C47.5946 14.2289 47.6746 14.4529 47.6746 14.7622C47.6746 15.0609 47.5946 15.2849 47.4346 15.4342C47.2746 15.5835 47.088 15.6582 46.8746 15.6582C46.6506 15.6582 46.4586 15.5835 46.2986 15.4342C46.1386 15.2849 46.0586 15.0609 46.0586 14.7622C46.0586 14.4529 46.1386 14.2289 46.2986 14.0902C46.4586 13.9409 46.6506 13.8662 46.8746 13.8662ZM55.4361 25.8342C55.4361 25.6422 55.4415 25.4182 55.4521 25.1622C55.4628 24.9062 55.4841 24.6875 55.5161 24.5062H55.4201C55.1855 24.8689 54.8655 25.1782 54.4601 25.4342C54.0655 25.6902 53.5481 25.8182 52.9081 25.8182C51.9375 25.8182 51.1481 25.4502 50.5401 24.7142C49.9428 23.9675 49.6441 22.8582 49.6441 21.3862C49.6441 20.4049 49.7828 19.5835 50.0601 18.9222C50.3375 18.2609 50.7268 17.7649 51.2281 17.4342C51.7295 17.0929 52.3055 16.9222 52.9561 16.9222C53.5855 16.9222 54.0975 17.0502 54.4921 17.3062C54.8975 17.5622 55.2175 17.8769 55.4521 18.2502H55.5161L55.7081 17.0822H56.8281V29.4982H55.4361V25.8342ZM53.2121 24.6502C53.7561 24.6502 54.1881 24.5435 54.5081 24.3302C54.8388 24.1169 55.0788 23.7915 55.2281 23.3542C55.3775 22.9062 55.4521 22.3515 55.4521 21.6902V21.4022C55.4521 20.3142 55.2868 19.4929 54.9561 18.9382C54.6255 18.3729 54.0335 18.0902 53.1801 18.0902C52.4655 18.0902 51.9375 18.3942 51.5961 19.0022C51.2548 19.5995 51.0841 20.4049 51.0841 21.4182C51.0841 22.4315 51.2548 23.2262 51.5961 23.8022C51.9481 24.3675 52.4868 24.6502 53.2121 24.6502ZM66.1578 17.0822V25.6582H65.0378L64.8298 24.5222H64.7658C64.5951 24.8209 64.3711 25.0662 64.0938 25.2582C63.8271 25.4502 63.5338 25.5889 63.2138 25.6742C62.8938 25.7702 62.5578 25.8182 62.2057 25.8182C61.5658 25.8182 61.0271 25.7115 60.5898 25.4982C60.1524 25.2742 59.8218 24.9329 59.5978 24.4742C59.3844 24.0155 59.2778 23.4235 59.2778 22.6982V17.0822H60.6858V22.6022C60.6858 23.2849 60.8298 23.7969 61.1178 24.1382C61.4058 24.4795 61.8484 24.6502 62.4458 24.6502C63.0324 24.6502 63.4911 24.5329 63.8218 24.2982C64.1631 24.0529 64.4031 23.7009 64.5418 23.2422C64.6911 22.7729 64.7658 22.2075 64.7658 21.5462V17.0822H66.1578ZM71.8219 16.9222C72.5152 16.9222 73.1125 17.0822 73.6139 17.4022C74.1152 17.7222 74.4992 18.1755 74.7659 18.7622C75.0432 19.3382 75.1819 20.0155 75.1819 20.7942V21.6422H69.6779C69.6992 22.6129 69.9285 23.3542 70.3659 23.8662C70.8032 24.3675 71.4165 24.6182 72.2059 24.6182C72.7179 24.6182 73.1712 24.5702 73.5659 24.4742C73.9712 24.3675 74.3872 24.2182 74.8139 24.0262V25.2582C74.3979 25.4502 73.9872 25.5889 73.5819 25.6742C73.1872 25.7702 72.7072 25.8182 72.1419 25.8182C71.3739 25.8182 70.6965 25.6529 70.1099 25.3222C69.5232 24.9915 69.0645 24.5009 68.7339 23.8502C68.4032 23.1889 68.2379 22.3835 68.2379 21.4342C68.2379 20.4955 68.3872 19.6902 68.6859 19.0182C68.9845 18.3462 69.4005 17.8289 69.9339 17.4662C70.4779 17.1035 71.1072 16.9222 71.8219 16.9222ZM71.8219 18.0742C71.2032 18.0742 70.7125 18.2929 70.3499 18.7302C69.9872 19.1569 69.7739 19.7542 69.7099 20.5222H73.7419C73.7419 20.0315 73.6725 19.6049 73.5339 19.2422C73.3952 18.8795 73.1819 18.5969 72.8939 18.3942C72.6165 18.1809 72.2592 18.0742 71.8219 18.0742ZM79.9695 24.6662C80.1722 24.6662 80.3802 24.6502 80.5935 24.6182C80.8068 24.5755 80.9828 24.5329 81.1215 24.4902V25.5622C80.9722 25.6369 80.7588 25.6955 80.4815 25.7382C80.2148 25.7915 79.9588 25.8182 79.7135 25.8182C79.2868 25.8182 78.8922 25.7435 78.5295 25.5942C78.1668 25.4342 77.8735 25.1622 77.6495 24.7782C77.4362 24.3942 77.3295 23.8555 77.3295 23.1622V18.1702H76.1935V17.4982L77.3615 16.9382L77.8895 15.1142H78.7215V17.0822H81.0575V18.1702H78.7215V23.1302C78.7215 23.6529 78.8388 24.0422 79.0735 24.2982C79.3082 24.5435 79.6068 24.6662 79.9695 24.6662ZM85.4851 24.6662C85.6878 24.6662 85.8958 24.6502 86.1091 24.6182C86.3225 24.5755 86.4985 24.5329 86.6371 24.4902V25.5622C86.4878 25.6369 86.2745 25.6955 85.9971 25.7382C85.7305 25.7915 85.4745 25.8182 85.2291 25.8182C84.8025 25.8182 84.4078 25.7435 84.0451 25.5942C83.6825 25.4342 83.3891 25.1622 83.1651 24.7782C82.9518 24.3942 82.8451 23.8555 82.8451 23.1622V18.1702H81.7091V17.4982L82.8771 16.9382L83.4051 15.1142H84.2371V17.0822H86.5731V18.1702H84.2371V23.1302C84.2371 23.6529 84.3545 24.0422 84.5891 24.2982C84.8238 24.5435 85.1225 24.6662 85.4851 24.6662ZM91.3688 16.9222C92.0621 16.9222 92.6594 17.0822 93.1608 17.4022C93.6621 17.7222 94.0461 18.1755 94.3128 18.7622C94.5901 19.3382 94.7288 20.0155 94.7288 20.7942V21.6422H89.2248C89.2461 22.6129 89.4754 23.3542 89.9128 23.8662C90.3501 24.3675 90.9634 24.6182 91.7528 24.6182C92.2648 24.6182 92.7181 24.5702 93.1128 24.4742C93.5181 24.3675 93.9341 24.2182 94.3608 24.0262V25.2582C93.9448 25.4502 93.5341 25.5889 93.1288 25.6742C92.7341 25.7702 92.2541 25.8182 91.6888 25.8182C90.9208 25.8182 90.2434 25.6529 89.6568 25.3222C89.0701 24.9915 88.6114 24.5009 88.2808 23.8502C87.9501 23.1889 87.7848 22.3835 87.7848 21.4342C87.7848 20.4955 87.9341 19.6902 88.2328 19.0182C88.5314 18.3462 88.9474 17.8289 89.4808 17.4662C90.0248 17.1035 90.6541 16.9222 91.3688 16.9222ZM91.3688 18.0742C90.7501 18.0742 90.2594 18.2929 89.8968 18.7302C89.5341 19.1569 89.3208 19.7542 89.2568 20.5222H93.2888C93.2888 20.0315 93.2194 19.6049 93.0808 19.2422C92.9421 18.8795 92.7288 18.5969 92.4408 18.3942C92.1634 18.1809 91.8061 18.0742 91.3688 18.0742Z" fill="black"/>
<rect x="24" y="1.6582" width="79" height="36" stroke="#FFC418" stroke-width="2"/>
<path d="M150 20.6582L103 20.6582" stroke="#FFC418" stroke-width="2"/>
<path d="M46.08 182.834C46.08 184.114 45.856 185.186 45.408 186.05C44.96 186.914 44.3147 187.565 43.472 188.002C42.64 188.44 41.632 188.658 40.448 188.658H37.456V177.234H40.768C41.856 177.234 42.7947 177.448 43.584 177.874C44.384 178.301 44.9973 178.93 45.424 179.762C45.8613 180.584 46.08 181.608 46.08 182.834ZM44.576 182.882C44.576 181.869 44.4213 181.037 44.112 180.386C43.8027 179.736 43.3493 179.256 42.752 178.946C42.1653 178.626 41.4453 178.466 40.592 178.466H38.88V187.426H40.304C41.7333 187.426 42.8 187.048 43.504 186.29C44.2187 185.522 44.576 184.386 44.576 182.882ZM55.3044 184.354C55.3044 185.069 55.2137 185.704 55.0324 186.258C54.8617 186.802 54.611 187.266 54.2804 187.65C53.9497 188.034 53.5497 188.328 53.0804 188.53C52.611 188.722 52.0884 188.818 51.5124 188.818C50.979 188.818 50.483 188.722 50.0244 188.53C49.5764 188.328 49.1817 188.034 48.8404 187.65C48.5097 187.266 48.2537 186.802 48.0724 186.258C47.891 185.704 47.8004 185.069 47.8004 184.354C47.8004 183.405 47.9497 182.605 48.2484 181.954C48.5577 181.293 48.995 180.792 49.5604 180.45C50.1257 180.098 50.7924 179.922 51.5604 179.922C52.2964 179.922 52.9417 180.098 53.4964 180.45C54.0617 180.792 54.5044 181.293 54.8244 181.954C55.1444 182.605 55.3044 183.405 55.3044 184.354ZM49.2404 184.354C49.2404 185.026 49.3204 185.613 49.4804 186.114C49.6404 186.605 49.891 186.984 50.2324 187.25C50.5737 187.517 51.011 187.65 51.5444 187.65C52.0777 187.65 52.515 187.517 52.8564 187.25C53.1977 186.984 53.4484 186.605 53.6084 186.114C53.779 185.613 53.8644 185.026 53.8644 184.354C53.8644 183.672 53.779 183.09 53.6084 182.61C53.4484 182.13 53.1977 181.762 52.8564 181.506C52.515 181.24 52.0724 181.106 51.5284 181.106C50.7284 181.106 50.147 181.394 49.7844 181.97C49.4217 182.546 49.2404 183.341 49.2404 184.354ZM66.2854 179.922C67.2027 179.922 67.8854 180.173 68.3334 180.674C68.7814 181.165 69.0054 181.965 69.0054 183.074V188.658H67.6294V183.138C67.6294 182.466 67.496 181.96 67.2294 181.618C66.9734 181.277 66.568 181.106 66.0134 181.106C65.2454 181.106 64.696 181.346 64.3654 181.826C64.0454 182.306 63.8854 183.005 63.8854 183.922V188.658H62.4934V183.138C62.4934 182.69 62.4347 182.317 62.3174 182.018C62.2 181.709 62.024 181.48 61.7894 181.33C61.5547 181.181 61.2507 181.106 60.8774 181.106C60.344 181.106 59.9227 181.229 59.6134 181.474C59.304 181.709 59.0854 182.056 58.9574 182.514C58.8294 182.973 58.7654 183.538 58.7654 184.21V188.658H57.3734V180.082H58.4934L58.7014 181.25H58.7814C58.952 180.952 59.16 180.706 59.4054 180.514C59.6507 180.312 59.9227 180.162 60.2214 180.066C60.52 179.97 60.8294 179.922 61.1494 179.922C61.768 179.922 62.2854 180.04 62.7014 180.274C63.1174 180.509 63.4214 180.872 63.6134 181.362H63.7094C63.976 180.872 64.3387 180.509 64.7974 180.274C65.2667 180.04 65.7627 179.922 66.2854 179.922ZM74.5708 179.938C75.5521 179.938 76.2828 180.168 76.7628 180.626C77.2534 181.085 77.4988 181.816 77.4988 182.818V188.658H76.4908L76.2188 187.442H76.1548C75.9201 187.752 75.6801 188.013 75.4348 188.226C75.2001 188.429 74.9228 188.578 74.6028 188.674C74.2934 188.77 73.9094 188.818 73.4508 188.818C72.9708 188.818 72.5388 188.728 72.1548 188.546C71.7708 188.365 71.4668 188.088 71.2428 187.714C71.0188 187.33 70.9068 186.85 70.9068 186.274C70.9068 185.421 71.2214 184.765 71.8508 184.306C72.4801 183.837 73.4508 183.581 74.7628 183.538L76.1228 183.49V182.978C76.1228 182.264 75.9788 181.768 75.6908 181.49C75.4134 181.213 75.0134 181.074 74.4908 181.074C74.0748 181.074 73.6748 181.144 73.2908 181.282C72.9174 181.41 72.5601 181.56 72.2188 181.73L71.7868 180.674C72.1494 180.472 72.5707 180.301 73.0508 180.162C73.5308 180.013 74.0374 179.938 74.5708 179.938ZM74.9548 184.514C73.9734 184.557 73.2908 184.728 72.9068 185.026C72.5334 185.325 72.3468 185.746 72.3468 186.29C72.3468 186.77 72.4801 187.122 72.7468 187.346C73.0134 187.57 73.3601 187.682 73.7868 187.682C74.4481 187.682 75.0028 187.485 75.4508 187.09C75.8988 186.685 76.1228 186.066 76.1228 185.234V184.466L74.9548 184.514ZM81.3908 180.082V188.658H79.9988V180.082H81.3908ZM80.7028 176.866C80.9161 176.866 81.1028 176.941 81.2628 177.09C81.4228 177.229 81.5028 177.453 81.5028 177.762C81.5028 178.061 81.4228 178.285 81.2628 178.434C81.1028 178.584 80.9161 178.658 80.7028 178.658C80.4788 178.658 80.2868 178.584 80.1268 178.434C79.9668 178.285 79.8868 178.061 79.8868 177.762C79.8868 177.453 79.9668 177.229 80.1268 177.09C80.2868 176.941 80.4788 176.866 80.7028 176.866ZM87.8563 179.922C88.8163 179.922 89.5416 180.173 90.0323 180.674C90.5336 181.165 90.7843 181.965 90.7843 183.074V188.658H89.3923V183.17C89.3923 182.477 89.2483 181.96 88.9603 181.618C88.6723 181.277 88.2296 181.106 87.6323 181.106C86.7576 181.106 86.1496 181.373 85.8083 181.906C85.4776 182.44 85.3123 183.208 85.3123 184.21V188.658H83.9203V180.082H85.0403L85.2483 181.25H85.3283C85.4989 180.952 85.7176 180.706 85.9843 180.514C86.2509 180.312 86.5443 180.162 86.8643 180.066C87.1843 179.97 87.5149 179.922 87.8563 179.922ZM96.4 179.922C97.0933 179.922 97.6907 180.082 98.192 180.402C98.6933 180.722 99.0773 181.176 99.344 181.762C99.6213 182.338 99.76 183.016 99.76 183.794V184.642H94.256C94.2773 185.613 94.5067 186.354 94.944 186.866C95.3813 187.368 95.9947 187.618 96.784 187.618C97.296 187.618 97.7493 187.57 98.144 187.474C98.5493 187.368 98.9653 187.218 99.392 187.026V188.258C98.976 188.45 98.5653 188.589 98.16 188.674C97.7653 188.77 97.2853 188.818 96.72 188.818C95.952 188.818 95.2747 188.653 94.688 188.322C94.1013 187.992 93.6427 187.501 93.312 186.85C92.9813 186.189 92.816 185.384 92.816 184.434C92.816 183.496 92.9653 182.69 93.264 182.018C93.5627 181.346 93.9787 180.829 94.512 180.466C95.056 180.104 95.6853 179.922 96.4 179.922ZM96.4 181.074C95.7813 181.074 95.2907 181.293 94.928 181.73C94.5653 182.157 94.352 182.754 94.288 183.522H98.32C98.32 183.032 98.2507 182.605 98.112 182.242C97.9733 181.88 97.76 181.597 97.472 181.394C97.1947 181.181 96.8373 181.074 96.4 181.074Z" fill="black"/>
<rect x="29" y="164.658" width="79" height="36" stroke="#FFC418" stroke-width="2"/>
<path d="M150 183.658H107.5" stroke="#FFC418" stroke-width="2"/>
</svg>
