<svg width="238" height="178" viewBox="0 0 238 178" fill="none" xmlns="http://www.w3.org/2000/svg">
<path d="M0.8 19.42V17.86H5.64V19.42H0.8ZM7.24531 19.42V17.86H12.0853V19.42H7.24531Z" fill="black"/>
<mask id="path-2-inside-1_9310_52439" fill="white">
<path d="M16 0H66V33H16V0Z"/>
</mask>
<path d="M16 0H66V33H16V0Z" fill="#D6D9DD"/>
<path d="M24.5 13.08C25.2067 13.08 25.84 13.2133 26.4 13.48C26.9733 13.7467 27.46 14.1533 27.86 14.7H27.96L28.2 13.28H29.6V24.18C29.6 25.7133 29.2067 26.8667 28.42 27.64C27.6467 28.4133 26.44 28.8 24.8 28.8C23.2267 28.8 21.94 28.5733 20.94 28.12V26.5C21.9933 27.06 23.3133 27.34 24.9 27.34C25.82 27.34 26.54 27.0667 27.06 26.52C27.5933 25.9867 27.86 25.2533 27.86 24.32V23.9C27.86 23.74 27.8667 23.5133 27.88 23.22C27.8933 22.9133 27.9067 22.7 27.92 22.58H27.84C27.12 23.66 26.0133 24.2 24.52 24.2C23.1333 24.2 22.0467 23.7133 21.26 22.74C20.4867 21.7667 20.1 20.4067 20.1 18.66C20.1 16.9533 20.4867 15.6 21.26 14.6C22.0467 13.5867 23.1267 13.08 24.5 13.08ZM24.74 14.56C23.8467 14.56 23.1533 14.92 22.66 15.64C22.1667 16.3467 21.92 17.36 21.92 18.68C21.92 20 22.16 21.0133 22.64 21.72C23.1333 22.4133 23.8467 22.76 24.78 22.76C25.86 22.76 26.6467 22.4733 27.14 21.9C27.6333 21.3133 27.88 20.3733 27.88 19.08V18.66C27.88 17.1933 27.6267 16.1467 27.12 15.52C26.6133 14.88 25.82 14.56 24.74 14.56ZM37.3047 24.2C36.358 24.2 35.5114 24.0067 34.7647 23.62C34.0314 23.2333 33.4514 22.6333 33.0247 21.82C32.6114 21.0067 32.4047 19.9667 32.4047 18.7C32.4047 17.38 32.6247 16.3067 33.0647 15.48C33.5047 14.6533 34.098 14.0467 34.8447 13.66C35.6047 13.2733 36.4647 13.08 37.4247 13.08C37.9714 13.08 38.498 13.14 39.0047 13.26C39.5114 13.3667 39.9247 13.5 40.2447 13.66L39.7047 15.12C39.3847 15 39.0114 14.8867 38.5847 14.78C38.158 14.6733 37.758 14.62 37.3847 14.62C35.278 14.62 34.2247 15.9733 34.2247 18.68C34.2247 19.9733 34.478 20.9667 34.9847 21.66C35.5047 22.34 36.2714 22.68 37.2847 22.68C37.8714 22.68 38.3847 22.62 38.8247 22.5C39.278 22.38 39.6914 22.2333 40.0647 22.06V23.62C39.7047 23.8067 39.3047 23.9467 38.8647 24.04C38.438 24.1467 37.918 24.2 37.3047 24.2ZM46.4141 24.2C45.0807 24.2 44.0141 23.74 43.2141 22.82C42.4141 21.8867 42.0141 20.5 42.0141 18.66C42.0141 16.82 42.4141 15.4333 43.2141 14.5C44.0274 13.5533 45.1007 13.08 46.4341 13.08C47.2607 13.08 47.9341 13.2333 48.4541 13.54C48.9874 13.8467 49.4207 14.22 49.7541 14.66H49.8741C49.8607 14.4867 49.8341 14.2333 49.7941 13.9C49.7674 13.5533 49.7541 13.28 49.7541 13.08V8.8H51.5141V24H50.0941L49.8341 22.56H49.7541C49.4341 23.0133 49.0074 23.4 48.4741 23.72C47.9407 24.04 47.2541 24.2 46.4141 24.2ZM46.6941 22.74C47.8274 22.74 48.6207 22.4333 49.0741 21.82C49.5407 21.1933 49.7741 20.2533 49.7741 19V18.68C49.7741 17.3467 49.5541 16.3267 49.1141 15.62C48.6741 14.9 47.8607 14.54 46.6741 14.54C45.7274 14.54 45.0141 14.92 44.5341 15.68C44.0674 16.4267 43.8341 17.4333 43.8341 18.7C43.8341 19.98 44.0674 20.9733 44.5341 21.68C45.0141 22.3867 45.7341 22.74 46.6941 22.74ZM61.8988 21.04C61.8988 22.08 61.5121 22.8667 60.7388 23.4C59.9654 23.9333 58.9254 24.2 57.6188 24.2C56.8721 24.2 56.2254 24.14 55.6788 24.02C55.1454 23.9 54.6721 23.7333 54.2588 23.52V21.92C54.6854 22.1333 55.1988 22.3333 55.7988 22.52C56.4121 22.6933 57.0321 22.78 57.6588 22.78C58.5521 22.78 59.1988 22.64 59.5988 22.36C59.9988 22.0667 60.1988 21.68 60.1988 21.2C60.1988 20.9333 60.1254 20.6933 59.9788 20.48C59.8321 20.2667 59.5654 20.0533 59.1788 19.84C58.8054 19.6267 58.2654 19.3867 57.5588 19.12C56.8654 18.8533 56.2721 18.5867 55.7788 18.32C55.2854 18.0533 54.9054 17.7333 54.6388 17.36C54.3721 16.9867 54.2388 16.5067 54.2388 15.92C54.2388 15.0133 54.6054 14.3133 55.3388 13.82C56.0854 13.3267 57.0588 13.08 58.2588 13.08C58.9121 13.08 59.5188 13.1467 60.0788 13.28C60.6521 13.4 61.1854 13.5733 61.6788 13.8L61.0788 15.2C60.6254 15.0133 60.1521 14.8533 59.6588 14.72C59.1654 14.5867 58.6588 14.52 58.1388 14.52C57.4188 14.52 56.8654 14.64 56.4788 14.88C56.1054 15.1067 55.9188 15.42 55.9188 15.82C55.9188 16.1133 56.0054 16.3667 56.1788 16.58C56.3521 16.78 56.6388 16.98 57.0388 17.18C57.4521 17.3667 57.9988 17.5933 58.6788 17.86C59.3588 18.1133 59.9388 18.3733 60.4188 18.64C60.8988 18.9067 61.2654 19.2333 61.5188 19.62C61.7721 19.9933 61.8988 20.4667 61.8988 21.04Z" fill="black"/>
<path d="M66 31H16V35H66V31Z" fill="#7D828B" mask="url(#path-2-inside-1_9310_52439)"/>
<path d="M69.8 19.42V17.86H74.64V19.42H69.8Z" fill="black"/>
<mask id="path-6-inside-2_9310_52439" fill="white">
<path d="M79 0H121V33H79V0Z"/>
</mask>
<path d="M79 0H121V33H79V0Z" fill="#E6F6EC"/>
<path d="M87.28 22.76C87.5467 22.76 87.82 22.74 88.1 22.7C88.38 22.6467 88.6067 22.5933 88.78 22.54V23.88C88.5933 23.9733 88.3267 24.0467 87.98 24.1C87.6333 24.1667 87.3 24.2 86.98 24.2C86.42 24.2 85.9 24.1067 85.42 23.92C84.9533 23.72 84.5733 23.38 84.28 22.9C83.9867 22.42 83.84 21.7467 83.84 20.88V14.64H82.32V13.8L83.86 13.1L84.56 10.82H85.6V13.28H88.7V14.64H85.6V20.84C85.6 21.4933 85.7533 21.98 86.06 22.3C86.38 22.6067 86.7867 22.76 87.28 22.76ZM95.0666 13.08C95.9866 13.08 96.7732 13.28 97.4266 13.68C98.0932 14.08 98.5999 14.6467 98.9466 15.38C99.3066 16.1 99.4866 16.9467 99.4866 17.92V18.98H92.1466C92.1732 20.1933 92.4799 21.12 93.0666 21.76C93.6666 22.3867 94.4999 22.7 95.5666 22.7C96.2466 22.7 96.8466 22.64 97.3666 22.52C97.8999 22.3867 98.4466 22.2 99.0066 21.96V23.5C98.4599 23.74 97.9199 23.9133 97.3866 24.02C96.8532 24.14 96.2199 24.2 95.4866 24.2C94.4732 24.2 93.5732 23.9933 92.7866 23.58C92.0132 23.1667 91.4066 22.5533 90.9666 21.74C90.5399 20.9133 90.3266 19.9067 90.3266 18.72C90.3266 17.5467 90.5199 16.54 90.9066 15.7C91.3066 14.86 91.8599 14.2133 92.5666 13.76C93.2866 13.3067 94.1199 13.08 95.0666 13.08ZM95.0466 14.52C94.2066 14.52 93.5399 14.7933 93.0466 15.34C92.5666 15.8733 92.2799 16.62 92.1866 17.58H97.6466C97.6332 16.6733 97.4199 15.94 97.0066 15.38C96.5932 14.8067 95.9399 14.52 95.0466 14.52ZM104.365 18.52L100.665 13.28H102.665L105.425 17.32L108.165 13.28H110.145L106.445 18.52L110.345 24H108.345L105.425 19.72L102.465 24H100.485L104.365 18.52ZM115.991 22.76C116.258 22.76 116.531 22.74 116.811 22.7C117.091 22.6467 117.318 22.5933 117.491 22.54V23.88C117.304 23.9733 117.038 24.0467 116.691 24.1C116.344 24.1667 116.011 24.2 115.691 24.2C115.131 24.2 114.611 24.1067 114.131 23.92C113.664 23.72 113.284 23.38 112.991 22.9C112.698 22.42 112.551 21.7467 112.551 20.88V14.64H111.031V13.8L112.571 13.1L113.271 10.82H114.311V13.28H117.411V14.64H114.311V20.84C114.311 21.4933 114.464 21.98 114.771 22.3C115.091 22.6067 115.498 22.76 115.991 22.76Z" fill="black"/>
<path d="M121 31H79V35H121V31Z" fill="#289F58" mask="url(#path-6-inside-2_9310_52439)"/>
<path d="M124.8 19.42V17.86H129.64V19.42H124.8Z" fill="black"/>
<mask id="path-10-inside-3_9310_52439" fill="white">
<path d="M134 0H215V33H134V0Z"/>
</mask>
<path d="M134 0H215V33H134V0Z" fill="#FBDDDA"/>
<path d="M143.8 13.08C145.12 13.08 146.18 13.54 146.98 14.46C147.793 15.38 148.2 16.7667 148.2 18.62C148.2 20.4467 147.793 21.8333 146.98 22.78C146.18 23.7267 145.113 24.2 143.78 24.2C142.953 24.2 142.267 24.0467 141.72 23.74C141.187 23.42 140.767 23.0533 140.46 22.64H140.34C140.367 22.8667 140.393 23.1533 140.42 23.5C140.447 23.8467 140.46 24.1467 140.46 24.4V28.8H138.7V13.28H140.14L140.38 14.74H140.46C140.78 14.2733 141.2 13.88 141.72 13.56C142.24 13.24 142.933 13.08 143.8 13.08ZM143.48 14.56C142.387 14.56 141.613 14.8667 141.16 15.48C140.72 16.0933 140.487 17.0267 140.46 18.28V18.62C140.46 19.94 140.673 20.96 141.1 21.68C141.54 22.3867 142.347 22.74 143.52 22.74C144.173 22.74 144.707 22.56 145.12 22.2C145.547 21.84 145.86 21.3533 146.06 20.74C146.273 20.1133 146.38 19.4 146.38 18.6C146.38 17.3733 146.14 16.3933 145.66 15.66C145.193 14.9267 144.467 14.56 143.48 14.56ZM156.005 13.08C156.205 13.08 156.418 13.0933 156.645 13.12C156.885 13.1333 157.091 13.16 157.265 13.2L157.045 14.82C156.871 14.78 156.678 14.7467 156.465 14.72C156.265 14.6933 156.071 14.68 155.885 14.68C155.338 14.68 154.825 14.8333 154.345 15.14C153.865 15.4333 153.478 15.8533 153.185 16.4C152.905 16.9333 152.765 17.56 152.765 18.28V24H151.005V13.28H152.445L152.645 15.24H152.725C153.071 14.6533 153.518 14.1467 154.065 13.72C154.611 13.2933 155.258 13.08 156.005 13.08ZM160.166 9.26C160.433 9.26 160.666 9.35333 160.866 9.54C161.08 9.71333 161.186 9.99333 161.186 10.38C161.186 10.7533 161.08 11.0333 160.866 11.22C160.666 11.4067 160.433 11.5 160.166 11.5C159.873 11.5 159.626 11.4067 159.426 11.22C159.226 11.0333 159.126 10.7533 159.126 10.38C159.126 9.99333 159.226 9.71333 159.426 9.54C159.626 9.35333 159.873 9.26 160.166 9.26ZM161.026 13.28V24H159.266V13.28H161.026ZM176.183 13.08C177.396 13.08 178.303 13.3933 178.903 14.02C179.503 14.6333 179.803 15.6333 179.803 17.02V24H178.063V17.1C178.063 15.4067 177.336 14.56 175.883 14.56C174.843 14.56 174.096 14.86 173.643 15.46C173.203 16.06 172.983 16.9333 172.983 18.08V24H171.243V17.1C171.243 15.4067 170.509 14.56 169.043 14.56C167.963 14.56 167.216 14.8933 166.803 15.56C166.389 16.2267 166.183 17.1867 166.183 18.44V24H164.423V13.28H165.843L166.103 14.74H166.203C166.536 14.18 166.983 13.7667 167.543 13.5C168.116 13.22 168.723 13.08 169.363 13.08C171.043 13.08 172.136 13.68 172.643 14.88H172.743C173.103 14.2667 173.589 13.8133 174.203 13.52C174.829 13.2267 175.489 13.08 176.183 13.08ZM187.174 13.1C188.481 13.1 189.447 13.3867 190.074 13.96C190.701 14.5333 191.014 15.4467 191.014 16.7V24H189.734L189.394 22.48H189.314C188.847 23.0667 188.354 23.5 187.834 23.78C187.327 24.06 186.621 24.2 185.714 24.2C184.741 24.2 183.934 23.9467 183.294 23.44C182.654 22.92 182.334 22.1133 182.334 21.02C182.334 19.9533 182.754 19.1333 183.594 18.56C184.434 17.9733 185.727 17.6533 187.474 17.6L189.294 17.54V16.9C189.294 16.0067 189.101 15.3867 188.714 15.04C188.327 14.6933 187.781 14.52 187.074 14.52C186.514 14.52 185.981 14.6067 185.474 14.78C184.967 14.94 184.494 15.1267 184.054 15.34L183.514 14.02C183.981 13.7667 184.534 13.5533 185.174 13.38C185.814 13.1933 186.481 13.1 187.174 13.1ZM187.694 18.82C186.361 18.8733 185.434 19.0867 184.914 19.46C184.407 19.8333 184.154 20.36 184.154 21.04C184.154 21.64 184.334 22.08 184.694 22.36C185.067 22.64 185.541 22.78 186.114 22.78C187.021 22.78 187.774 22.5333 188.374 22.04C188.974 21.5333 189.274 20.76 189.274 19.72V18.76L187.694 18.82ZM199.325 13.08C199.525 13.08 199.738 13.0933 199.965 13.12C200.205 13.1333 200.412 13.16 200.585 13.2L200.365 14.82C200.192 14.78 199.998 14.7467 199.785 14.72C199.585 14.6933 199.392 14.68 199.205 14.68C198.658 14.68 198.145 14.8333 197.665 15.14C197.185 15.4333 196.798 15.8533 196.505 16.4C196.225 16.9333 196.085 17.56 196.085 18.28V24H194.325V13.28H195.765L195.965 15.24H196.045C196.392 14.6533 196.838 14.1467 197.385 13.72C197.932 13.2933 198.578 13.08 199.325 13.08ZM200.907 13.28H202.787L205.107 19.38C205.307 19.9133 205.487 20.4267 205.647 20.92C205.807 21.4 205.927 21.86 206.007 22.3H206.087C206.167 21.9667 206.293 21.5333 206.467 21C206.64 20.4533 206.82 19.9067 207.007 19.36L209.187 13.28H211.087L206.467 25.48C206.093 26.4933 205.607 27.3 205.007 27.9C204.42 28.5 203.607 28.8 202.567 28.8C202.247 28.8 201.967 28.78 201.727 28.74C201.487 28.7133 201.28 28.68 201.107 28.64V27.24C201.253 27.2667 201.427 27.2933 201.627 27.32C201.84 27.3467 202.06 27.36 202.287 27.36C202.9 27.36 203.393 27.1867 203.767 26.84C204.153 26.4933 204.453 26.0333 204.667 25.46L205.227 24.04L200.907 13.28Z" fill="black"/>
<path d="M215 31H134V35H215V31Z" fill="#C24438" mask="url(#path-10-inside-3_9310_52439)"/>
<g filter="url(#filter0_d_9310_52439)">
<path d="M172.5 33V52" stroke="#C24438" stroke-width="2"/>
</g>
<path d="M128.044 68.3194C129.619 68.3194 130.779 68.6213 131.525 69.2251C132.283 69.8171 132.662 70.717 132.662 71.9246C132.662 72.5995 132.537 73.1619 132.289 73.6118C132.04 74.0618 131.72 74.4229 131.33 74.6952C130.951 74.9557 130.548 75.1629 130.122 75.3168L133.603 81H131.738L128.666 75.7608H126.144V81H124.545V68.3194H128.044ZM127.955 69.7046H126.144V74.411H128.044C129.074 74.411 129.826 74.2098 130.299 73.8072C130.773 73.3928 131.01 72.789 131.01 71.9957C131.01 71.1669 130.761 70.5808 130.264 70.2374C129.767 69.8822 128.997 69.7046 127.955 69.7046ZM143.656 76.2226C143.656 77.7973 143.254 79.0168 142.449 79.8811C141.655 80.7454 140.578 81.1776 139.216 81.1776C138.376 81.1776 137.624 80.9882 136.961 80.6093C136.31 80.2186 135.794 79.6562 135.416 78.9221C135.037 78.1762 134.847 77.2763 134.847 76.2226C134.847 74.6478 135.244 73.4342 136.037 72.5818C136.83 71.7293 137.908 71.303 139.27 71.303C140.134 71.303 140.892 71.4984 141.543 71.8891C142.206 72.268 142.721 72.8245 143.088 73.5586C143.467 74.2808 143.656 75.1688 143.656 76.2226ZM136.463 76.2226C136.463 77.3474 136.682 78.2413 137.121 78.9043C137.57 79.5555 138.281 79.8811 139.252 79.8811C140.211 79.8811 140.915 79.5555 141.365 78.9043C141.815 78.2413 142.04 77.3474 142.04 76.2226C142.04 75.0978 141.815 74.2157 141.365 73.5763C140.915 72.937 140.205 72.6173 139.234 72.6173C138.263 72.6173 137.559 72.937 137.121 73.5763C136.682 74.2157 136.463 75.0978 136.463 76.2226ZM140.033 67.3958C140.175 67.6563 140.377 67.9523 140.637 68.2838C140.909 68.6035 141.188 68.9232 141.472 69.2429C141.768 69.5507 142.028 69.8171 142.253 70.0421V70.2374H141.152C140.844 70.048 140.525 69.8171 140.193 69.5448C139.862 69.2606 139.536 68.9587 139.216 68.639C138.897 68.9587 138.577 69.2547 138.257 69.527C137.938 69.7994 137.624 70.0362 137.316 70.2374H136.25V70.0421C136.475 69.8053 136.724 69.533 136.996 69.2251C137.28 68.9173 137.553 68.6035 137.813 68.2838C138.074 67.9523 138.281 67.6563 138.435 67.3958H140.033ZM147.696 81H146.133V67.5024H147.696V81ZM154.388 71.303C155.205 71.303 155.904 71.4806 156.484 71.8358C157.076 72.191 157.526 72.6942 157.834 73.3454C158.153 73.9848 158.313 74.7366 158.313 75.601V76.5422H151.795C151.819 77.6197 152.091 78.4426 152.612 79.0109C153.145 79.5674 153.885 79.8456 154.832 79.8456C155.436 79.8456 155.969 79.7923 156.431 79.6858C156.904 79.5674 157.39 79.4016 157.887 79.1885V80.556C157.402 80.7691 156.922 80.923 156.448 81.0178C155.975 81.1243 155.412 81.1776 154.761 81.1776C153.861 81.1776 153.062 80.9941 152.364 80.627C151.677 80.26 151.138 79.7154 150.747 78.9931C150.369 78.259 150.179 77.3651 150.179 76.3114C150.179 75.2694 150.351 74.3755 150.694 73.6296C151.049 72.8837 151.541 72.3094 152.168 71.9069C152.808 71.5043 153.548 71.303 154.388 71.303ZM154.37 72.5818C153.625 72.5818 153.033 72.8245 152.594 73.3099C152.168 73.7835 151.914 74.4466 151.831 75.299H156.679C156.667 74.4939 156.478 73.8427 156.111 73.3454C155.744 72.8363 155.164 72.5818 154.37 72.5818ZM173.626 76.2226C173.626 77.7973 173.224 79.0168 172.419 79.8811C171.625 80.7454 170.548 81.1776 169.186 81.1776C168.346 81.1776 167.594 80.9882 166.931 80.6093C166.28 80.2186 165.764 79.6562 165.386 78.9221C165.007 78.1762 164.817 77.2763 164.817 76.2226C164.817 74.6478 165.214 73.4342 166.007 72.5818C166.8 71.7293 167.878 71.303 169.24 71.303C170.104 71.303 170.862 71.4984 171.513 71.8891C172.176 72.268 172.691 72.8245 173.058 73.5586C173.437 74.2808 173.626 75.1688 173.626 76.2226ZM166.433 76.2226C166.433 77.3474 166.652 78.2413 167.091 78.9043C167.54 79.5555 168.251 79.8811 169.222 79.8811C170.181 79.8811 170.885 79.5555 171.335 78.9043C171.785 78.2413 172.01 77.3474 172.01 76.2226C172.01 75.0978 171.785 74.2157 171.335 73.5763C170.885 72.937 170.175 72.6173 169.204 72.6173C168.233 72.6173 167.529 72.937 167.091 73.5763C166.652 74.2157 166.433 75.0978 166.433 76.2226ZM184.06 71.4806V81H182.781L182.55 79.739H182.479C182.171 80.2363 181.745 80.6034 181.2 80.8402C180.656 81.0651 180.076 81.1776 179.46 81.1776C178.311 81.1776 177.447 80.9053 176.867 80.3606C176.287 79.8042 175.997 78.9221 175.997 77.7144V71.4806H177.577V77.6078C177.577 79.1234 178.282 79.8811 179.691 79.8811C180.744 79.8811 181.473 79.5851 181.875 78.9931C182.29 78.4011 182.497 77.5486 182.497 76.4357V71.4806H184.06ZM195.372 71.303C196.189 71.303 196.887 71.4806 197.467 71.8358C198.059 72.191 198.509 72.6942 198.817 73.3454C199.137 73.9848 199.297 74.7366 199.297 75.601V76.5422H192.779C192.802 77.6197 193.075 78.4426 193.596 79.0109C194.128 79.5674 194.868 79.8456 195.816 79.8456C196.419 79.8456 196.952 79.7923 197.414 79.6858C197.888 79.5674 198.373 79.4016 198.87 79.1885V80.556C198.385 80.7691 197.905 80.923 197.432 81.0178C196.958 81.1243 196.396 81.1776 195.745 81.1776C194.845 81.1776 194.045 80.9941 193.347 80.627C192.66 80.26 192.121 79.7154 191.731 78.9931C191.352 78.259 191.162 77.3651 191.162 76.3114C191.162 75.2694 191.334 74.3755 191.677 73.6296C192.033 72.8837 192.524 72.3094 193.152 71.9069C193.791 71.5043 194.531 71.303 195.372 71.303ZM195.354 72.5818C194.608 72.5818 194.016 72.8245 193.578 73.3099C193.152 73.7835 192.897 74.4466 192.814 75.299H197.663C197.651 74.4939 197.461 73.8427 197.094 73.3454C196.727 72.8363 196.147 72.5818 195.354 72.5818ZM197.876 67.5734C197.734 67.7866 197.515 68.0648 197.219 68.4082C196.923 68.7397 196.603 69.0771 196.26 69.4205C195.928 69.752 195.62 70.0243 195.336 70.2374H194.306V70.0243C194.484 69.7994 194.673 69.533 194.874 69.2251C195.087 68.9173 195.295 68.6035 195.496 68.2838C195.697 67.9523 195.863 67.6563 195.993 67.3958H197.876V67.5734ZM204.899 79.8989C205.136 79.8989 205.378 79.8811 205.627 79.8456C205.876 79.7982 206.077 79.7509 206.231 79.7035V80.8934C206.065 80.9763 205.828 81.0414 205.521 81.0888C205.213 81.148 204.917 81.1776 204.633 81.1776C204.135 81.1776 203.674 81.0947 203.247 80.929C202.833 80.7514 202.495 80.4494 202.235 80.0232C201.974 79.597 201.844 78.999 201.844 78.2294V72.6883H200.494V71.9424L201.862 71.3208L202.484 69.2962H203.407V71.4806H206.16V72.6883H203.407V78.1939C203.407 78.7741 203.543 79.2062 203.816 79.4904C204.1 79.7627 204.461 79.8989 204.899 79.8989ZM211.742 71.3208C212.903 71.3208 213.761 71.5754 214.318 72.0845C214.874 72.5936 215.152 73.4046 215.152 74.5176V81H214.016L213.714 79.6502H213.643C213.228 80.1712 212.79 80.556 212.328 80.8046C211.879 81.0533 211.251 81.1776 210.446 81.1776C209.582 81.1776 208.865 80.9526 208.297 80.5027C207.729 80.041 207.444 79.3246 207.444 78.3538C207.444 77.4066 207.817 76.6784 208.563 76.1693C209.309 75.6483 210.458 75.3642 212.009 75.3168L213.625 75.2635V74.6952C213.625 73.9019 213.453 73.3514 213.11 73.0435C212.767 72.7357 212.281 72.5818 211.654 72.5818C211.156 72.5818 210.683 72.6587 210.233 72.8126C209.783 72.9547 209.363 73.1205 208.972 73.3099L208.492 72.1378C208.907 71.9128 209.398 71.7234 209.966 71.5694C210.535 71.4037 211.127 71.3208 211.742 71.3208ZM212.204 76.4002C211.02 76.4475 210.197 76.637 209.735 76.9685C209.286 77.3 209.061 77.7677 209.061 78.3715C209.061 78.9043 209.22 79.295 209.54 79.5437C209.872 79.7923 210.292 79.9166 210.801 79.9166C211.606 79.9166 212.275 79.6976 212.808 79.2595C213.341 78.8096 213.607 78.1229 213.607 77.1994V76.3469L212.204 76.4002ZM221.271 79.8989C221.508 79.8989 221.751 79.8811 222 79.8456C222.248 79.7982 222.45 79.7509 222.603 79.7035V80.8934C222.438 80.9763 222.201 81.0414 221.893 81.0888C221.585 81.148 221.289 81.1776 221.005 81.1776C220.508 81.1776 220.046 81.0947 219.62 80.929C219.205 80.7514 218.868 80.4494 218.607 80.0232C218.347 79.597 218.217 78.999 218.217 78.2294V72.6883H216.867V71.9424L218.234 71.3208L218.856 69.2962H219.78V71.4806H222.532V72.6883H219.78V78.1939C219.78 78.7741 219.916 79.2062 220.188 79.4904C220.472 79.7627 220.833 79.8989 221.271 79.8989Z" fill="black"/>
<rect x="108" y="53" width="129" height="42" stroke="#C24438" stroke-width="2"/>
<g filter="url(#filter1_d_9310_52439)">
<path d="M103.5 33V108" stroke="#289F58" stroke-width="2"/>
</g>
<path d="M70.0382 125.545C68.6766 125.545 67.6051 126.001 66.8237 126.912C66.0422 127.824 65.6515 129.073 65.6515 130.66C65.6515 132.234 66.0126 133.484 66.7349 134.407C67.4689 135.319 68.5641 135.775 70.0205 135.775C70.5769 135.775 71.1038 135.727 71.6011 135.632C72.0984 135.538 72.5838 135.419 73.0574 135.277V136.663C72.5838 136.84 72.0925 136.97 71.5833 137.053C71.0861 137.136 70.4881 137.178 69.7896 137.178C68.499 137.178 67.4216 136.911 66.5573 136.378C65.6929 135.846 65.0417 135.088 64.6037 134.105C64.1774 133.122 63.9643 131.968 63.9643 130.642C63.9643 129.363 64.1952 128.238 64.6569 127.268C65.1305 126.285 65.8232 125.521 66.7349 124.976C67.6465 124.42 68.7536 124.142 70.056 124.142C71.3939 124.142 72.5601 124.39 73.5547 124.888L72.9153 126.237C72.5246 126.06 72.0865 125.9 71.6011 125.758C71.1275 125.616 70.6065 125.545 70.0382 125.545ZM79.2172 127.321C80.3775 127.321 81.2359 127.575 81.7924 128.084C82.3489 128.594 82.6271 129.405 82.6271 130.518V137H81.4905L81.1886 135.65H81.1175C80.7031 136.171 80.2651 136.556 79.8033 136.805C79.3534 137.053 78.7259 137.178 77.9207 137.178C77.0564 137.178 76.3401 136.953 75.7718 136.503C75.2035 136.041 74.9193 135.325 74.9193 134.354C74.9193 133.407 75.2923 132.678 76.0382 132.169C76.7841 131.648 77.9326 131.364 79.4836 131.317L81.0998 131.264V130.695C81.0998 129.902 80.9281 129.351 80.5847 129.044C80.2414 128.736 79.7559 128.582 79.1284 128.582C78.6311 128.582 78.1575 128.659 77.7076 128.813C77.2577 128.955 76.8374 129.12 76.4467 129.31L75.9671 128.138C76.3815 127.913 76.8729 127.723 77.4412 127.569C78.0095 127.404 78.6015 127.321 79.2172 127.321ZM79.679 132.4C78.495 132.448 77.6721 132.637 77.2103 132.968C76.7604 133.3 76.5355 133.768 76.5355 134.372C76.5355 134.904 76.6953 135.295 77.015 135.544C77.3465 135.792 77.7668 135.917 78.2759 135.917C79.0811 135.917 79.75 135.698 80.2828 135.26C80.8156 134.81 81.082 134.123 81.082 133.199V132.347L79.679 132.4ZM88.7463 135.899C88.9831 135.899 89.2258 135.881 89.4745 135.846C89.7231 135.798 89.9244 135.751 90.0783 135.704V136.893C89.9125 136.976 89.6757 137.041 89.3679 137.089C89.0601 137.148 88.7641 137.178 88.4799 137.178C87.9826 137.178 87.5209 137.095 87.0946 136.929C86.6802 136.751 86.3428 136.449 86.0823 136.023C85.8218 135.597 85.6916 134.999 85.6916 134.229V128.688H84.3418V127.942L85.7093 127.321L86.3309 125.296H87.2545V127.481H90.0073V128.688H87.2545V134.194C87.2545 134.774 87.3906 135.206 87.6629 135.49C87.9471 135.763 88.3082 135.899 88.7463 135.899ZM95.6608 127.303C96.4777 127.303 97.1763 127.481 97.7564 127.836C98.3484 128.191 98.7984 128.694 99.1062 129.345C99.4259 129.985 99.5857 130.737 99.5857 131.601V132.542H93.0678C93.0915 133.62 93.3638 134.443 93.8848 135.011C94.4176 135.567 95.1576 135.846 96.1048 135.846C96.7086 135.846 97.2414 135.792 97.7032 135.686C98.1768 135.567 98.6622 135.402 99.1595 135.188V136.556C98.674 136.769 98.1945 136.923 97.7209 137.018C97.2473 137.124 96.6849 137.178 96.0337 137.178C95.1339 137.178 94.3347 136.994 93.6361 136.627C92.9494 136.26 92.4107 135.715 92.02 134.993C91.6411 134.259 91.4516 133.365 91.4516 132.311C91.4516 131.269 91.6233 130.376 91.9667 129.63C92.3219 128.884 92.8132 128.309 93.4408 127.907C94.0801 127.504 94.8201 127.303 95.6608 127.303ZM95.643 128.582C94.8971 128.582 94.3051 128.824 93.867 129.31C93.4408 129.784 93.1862 130.447 93.1033 131.299H97.9518C97.94 130.494 97.7505 129.843 97.3835 129.345C97.0164 128.836 96.4363 128.582 95.643 128.582ZM98.1649 123.573C98.0228 123.787 97.8038 124.065 97.5078 124.408C97.2118 124.74 96.8921 125.077 96.5488 125.42C96.2172 125.752 95.9094 126.024 95.6252 126.237H94.5952V126.024C94.7728 125.799 94.9622 125.533 95.1635 125.225C95.3766 124.917 95.5838 124.604 95.7851 124.284C95.9864 123.952 96.1521 123.656 96.2824 123.396H98.1649V123.573ZM105.384 127.303C106.011 127.303 106.573 127.421 107.071 127.658C107.58 127.895 108.012 128.256 108.367 128.742H108.456L108.669 127.481H109.912V137.16C109.912 138.521 109.563 139.546 108.864 140.232C108.178 140.919 107.106 141.262 105.65 141.262C104.253 141.262 103.11 141.061 102.222 140.659V139.22C103.158 139.717 104.33 139.966 105.739 139.966C106.556 139.966 107.195 139.723 107.657 139.238C108.13 138.764 108.367 138.113 108.367 137.284V136.911C108.367 136.769 108.373 136.568 108.385 136.307C108.397 136.035 108.409 135.846 108.42 135.739H108.349C107.71 136.698 106.727 137.178 105.401 137.178C104.17 137.178 103.205 136.745 102.506 135.881C101.82 135.017 101.476 133.809 101.476 132.258C101.476 130.743 101.82 129.541 102.506 128.653C103.205 127.753 104.164 127.303 105.384 127.303ZM105.597 128.617C104.803 128.617 104.188 128.937 103.75 129.576C103.312 130.204 103.092 131.104 103.092 132.276C103.092 133.448 103.306 134.348 103.732 134.975C104.17 135.591 104.803 135.899 105.632 135.899C106.591 135.899 107.29 135.644 107.728 135.135C108.166 134.614 108.385 133.78 108.385 132.631V132.258C108.385 130.956 108.16 130.026 107.71 129.47C107.26 128.901 106.556 128.617 105.597 128.617ZM121.212 132.223C121.212 133.797 120.809 135.017 120.004 135.881C119.211 136.745 118.133 137.178 116.772 137.178C115.931 137.178 115.179 136.988 114.516 136.609C113.865 136.219 113.35 135.656 112.971 134.922C112.592 134.176 112.403 133.276 112.403 132.223C112.403 130.648 112.8 129.434 113.593 128.582C114.386 127.729 115.464 127.303 116.825 127.303C117.689 127.303 118.447 127.498 119.098 127.889C119.761 128.268 120.276 128.824 120.644 129.559C121.022 130.281 121.212 131.169 121.212 132.223ZM114.019 132.223C114.019 133.347 114.238 134.241 114.676 134.904C115.126 135.556 115.836 135.881 116.807 135.881C117.766 135.881 118.471 135.556 118.921 134.904C119.371 134.241 119.596 133.347 119.596 132.223C119.596 131.098 119.371 130.216 118.921 129.576C118.471 128.937 117.76 128.617 116.79 128.617C115.819 128.617 115.114 128.937 114.676 129.576C114.238 130.216 114.019 131.098 114.019 132.223ZM128.129 127.303C128.306 127.303 128.496 127.315 128.697 127.339C128.91 127.35 129.094 127.374 129.248 127.41L129.052 128.848C128.898 128.813 128.727 128.783 128.537 128.759C128.36 128.736 128.188 128.724 128.022 128.724C127.537 128.724 127.081 128.86 126.655 129.132C126.228 129.393 125.885 129.766 125.625 130.251C125.376 130.725 125.252 131.281 125.252 131.921V137H123.689V127.481H124.968L125.145 129.221H125.216C125.524 128.7 125.921 128.25 126.406 127.871C126.892 127.492 127.466 127.303 128.129 127.303ZM131.824 123.911C132.061 123.911 132.268 123.994 132.446 124.16C132.635 124.313 132.73 124.562 132.73 124.905C132.73 125.237 132.635 125.486 132.446 125.651C132.268 125.817 132.061 125.9 131.824 125.9C131.564 125.9 131.345 125.817 131.167 125.651C130.99 125.486 130.901 125.237 130.901 124.905C130.901 124.562 130.99 124.313 131.167 124.16C131.345 123.994 131.564 123.911 131.824 123.911ZM132.588 127.481V137H131.025V127.481H132.588ZM139.28 127.303C140.097 127.303 140.796 127.481 141.376 127.836C141.968 128.191 142.418 128.694 142.726 129.345C143.045 129.985 143.205 130.737 143.205 131.601V132.542H136.687C136.711 133.62 136.983 134.443 137.504 135.011C138.037 135.567 138.777 135.846 139.724 135.846C140.328 135.846 140.861 135.792 141.323 135.686C141.796 135.567 142.282 135.402 142.779 135.188V136.556C142.294 136.769 141.814 136.923 141.34 137.018C140.867 137.124 140.304 137.178 139.653 137.178C138.753 137.178 137.954 136.994 137.256 136.627C136.569 136.26 136.03 135.715 135.639 134.993C135.261 134.259 135.071 133.365 135.071 132.311C135.071 131.269 135.243 130.376 135.586 129.63C135.941 128.884 136.433 128.309 137.06 127.907C137.7 127.504 138.44 127.303 139.28 127.303ZM139.263 128.582C138.517 128.582 137.925 128.824 137.487 129.31C137.06 129.784 136.806 130.447 136.723 131.299H141.571C141.559 130.494 141.37 129.843 141.003 129.345C140.636 128.836 140.056 128.582 139.263 128.582ZM59.9838 158.134C59.9838 156.689 60.191 155.298 60.6054 153.96C61.0317 152.61 61.6947 151.397 62.5946 150.319H64.0686C63.2398 151.432 62.6123 152.658 62.1861 153.996C61.7717 155.334 61.5645 156.707 61.5645 158.116C61.5645 159.489 61.7717 160.839 62.1861 162.165C62.6123 163.48 63.2339 164.693 64.0509 165.806H62.5946C61.6947 164.764 61.0317 163.586 60.6054 162.272C60.191 160.946 59.9838 159.566 59.9838 158.134ZM69.6773 150.319C71.3349 150.319 72.5426 150.645 73.3004 151.296C74.0581 151.947 74.437 152.865 74.437 154.049C74.437 154.748 74.2772 155.405 73.9575 156.02C73.6496 156.624 73.1228 157.116 72.3768 157.494C71.6428 157.873 70.6423 158.063 69.3754 158.063H67.9191V163H66.3207V150.319H69.6773ZM69.5352 151.687H67.9191V156.695H69.1978C70.4055 156.695 71.3053 156.5 71.8973 156.109C72.4893 155.718 72.7853 155.055 72.7853 154.12C72.7853 153.303 72.5248 152.693 72.0039 152.291C71.4829 151.888 70.66 151.687 69.5352 151.687ZM81.3007 153.303C81.4783 153.303 81.6677 153.315 81.869 153.339C82.0821 153.35 82.2657 153.374 82.4196 153.41L82.2242 154.848C82.0703 154.813 81.8986 154.783 81.7092 154.759C81.5316 154.736 81.3599 154.724 81.1941 154.724C80.7087 154.724 80.2529 154.86 79.8266 155.132C79.4004 155.393 79.057 155.766 78.7965 156.251C78.5479 156.725 78.4236 157.281 78.4236 157.921V163H76.8607V153.481H78.1394L78.317 155.221H78.3881C78.6959 154.7 79.0925 154.25 79.578 153.871C80.0634 153.492 80.6377 153.303 81.3007 153.303ZM92.1264 158.223C92.1264 159.797 91.7238 161.017 90.9187 161.881C90.1254 162.745 89.048 163.178 87.6864 163.178C86.8457 163.178 86.0939 162.988 85.4309 162.609C84.7797 162.219 84.2646 161.656 83.8857 160.922C83.5069 160.176 83.3174 159.276 83.3174 158.223C83.3174 156.648 83.7141 155.434 84.5073 154.582C85.3006 153.729 86.3781 153.303 87.7397 153.303C88.604 153.303 89.3617 153.498 90.0129 153.889C90.676 154.268 91.191 154.824 91.5581 155.559C91.9369 156.281 92.1264 157.169 92.1264 158.223ZM84.9336 158.223C84.9336 159.347 85.1526 160.241 85.5907 160.904C86.0406 161.556 86.751 161.881 87.7219 161.881C88.6809 161.881 89.3854 161.556 89.8353 160.904C90.2853 160.241 90.5102 159.347 90.5102 158.223C90.5102 157.098 90.2853 156.216 89.8353 155.576C89.3854 154.937 88.675 154.617 87.7041 154.617C86.7333 154.617 86.0288 154.937 85.5907 155.576C85.1526 156.216 84.9336 157.098 84.9336 158.223ZM99.1322 153.303C100.304 153.303 101.246 153.712 101.956 154.528C102.678 155.345 103.039 156.577 103.039 158.223C103.039 159.845 102.678 161.076 101.956 161.917C101.246 162.757 100.298 163.178 99.1144 163.178C98.3803 163.178 97.7706 163.041 97.2851 162.769C96.8115 162.485 96.4386 162.159 96.1662 161.792H96.0597C96.0834 161.994 96.107 162.248 96.1307 162.556C96.1544 162.864 96.1662 163.13 96.1662 163.355V167.262H94.6034V153.481H95.8821L96.0952 154.777H96.1662C96.4504 154.363 96.8234 154.013 97.2851 153.729C97.7469 153.445 98.3626 153.303 99.1322 153.303ZM98.848 154.617C97.8771 154.617 97.1904 154.89 96.7878 155.434C96.3971 155.979 96.1899 156.808 96.1662 157.921V158.223C96.1662 159.395 96.3557 160.3 96.7346 160.94C97.1253 161.567 97.8416 161.881 98.8835 161.881C99.4637 161.881 99.9373 161.721 100.304 161.402C100.683 161.082 100.961 160.65 101.139 160.105C101.328 159.549 101.423 158.915 101.423 158.205C101.423 157.116 101.21 156.245 100.784 155.594C100.369 154.943 99.7242 154.617 98.848 154.617ZM109.97 153.303C110.148 153.303 110.337 153.315 110.538 153.339C110.751 153.35 110.935 153.374 111.089 153.41L110.893 154.848C110.74 154.813 110.568 154.783 110.378 154.759C110.201 154.736 110.029 154.724 109.863 154.724C109.378 154.724 108.922 154.86 108.496 155.132C108.07 155.393 107.726 155.766 107.466 156.251C107.217 156.725 107.093 157.281 107.093 157.921V163H105.53V153.481H106.809L106.986 155.221H107.057C107.365 154.7 107.762 154.25 108.247 153.871C108.733 153.492 109.307 153.303 109.97 153.303ZM113.666 149.911C113.902 149.911 114.11 149.994 114.287 150.16C114.477 150.313 114.571 150.562 114.571 150.905C114.571 151.237 114.477 151.486 114.287 151.651C114.11 151.817 113.902 151.9 113.666 151.9C113.405 151.9 113.186 151.817 113.008 151.651C112.831 151.486 112.742 151.237 112.742 150.905C112.742 150.562 112.831 150.313 113.008 150.16C113.186 149.994 113.405 149.911 113.666 149.911ZM114.429 153.481V163H112.866V153.481H114.429ZM121.121 153.303C121.938 153.303 122.637 153.481 123.217 153.836C123.809 154.191 124.259 154.694 124.567 155.345C124.887 155.985 125.046 156.737 125.046 157.601V158.542H118.528C118.552 159.62 118.824 160.443 119.345 161.011C119.878 161.567 120.618 161.846 121.565 161.846C122.169 161.846 122.702 161.792 123.164 161.686C123.637 161.567 124.123 161.402 124.62 161.188V162.556C124.135 162.769 123.655 162.923 123.182 163.018C122.708 163.124 122.146 163.178 121.494 163.178C120.595 163.178 119.795 162.994 119.097 162.627C118.41 162.26 117.871 161.715 117.481 160.993C117.102 160.259 116.912 159.365 116.912 158.311C116.912 157.269 117.084 156.376 117.427 155.63C117.783 154.884 118.274 154.309 118.901 153.907C119.541 153.504 120.281 153.303 121.121 153.303ZM121.104 154.582C120.358 154.582 119.766 154.824 119.328 155.31C118.901 155.784 118.647 156.447 118.564 157.299H123.412C123.401 156.494 123.211 155.843 122.844 155.345C122.477 154.836 121.897 154.582 121.104 154.582ZM123.626 149.573C123.483 149.787 123.264 150.065 122.968 150.408C122.672 150.74 122.353 151.077 122.009 151.42C121.678 151.752 121.37 152.024 121.086 152.237H120.056V152.024C120.233 151.799 120.423 151.533 120.624 151.225C120.837 150.917 121.044 150.604 121.246 150.284C121.447 149.952 121.613 149.656 121.743 149.396H123.626V149.573ZM130.649 161.899C130.886 161.899 131.128 161.881 131.377 161.846C131.626 161.798 131.827 161.751 131.981 161.704V162.893C131.815 162.976 131.578 163.041 131.27 163.089C130.963 163.148 130.667 163.178 130.382 163.178C129.885 163.178 129.423 163.095 128.997 162.929C128.583 162.751 128.245 162.449 127.985 162.023C127.724 161.597 127.594 160.999 127.594 160.229V154.688H126.244V153.942L127.612 153.321L128.233 151.296H129.157V153.481H131.91V154.688H129.157V160.194C129.157 160.774 129.293 161.206 129.565 161.49C129.85 161.763 130.211 161.899 130.649 161.899ZM137.563 153.303C138.38 153.303 139.079 153.481 139.659 153.836C140.251 154.191 140.701 154.694 141.009 155.345C141.328 155.985 141.488 156.737 141.488 157.601V158.542H134.97C134.994 159.62 135.266 160.443 135.787 161.011C136.32 161.567 137.06 161.846 138.007 161.846C138.611 161.846 139.144 161.792 139.606 161.686C140.079 161.567 140.565 161.402 141.062 161.188V162.556C140.577 162.769 140.097 162.923 139.623 163.018C139.15 163.124 138.587 163.178 137.936 163.178C137.036 163.178 136.237 162.994 135.539 162.627C134.852 162.26 134.313 161.715 133.922 160.993C133.544 160.259 133.354 159.365 133.354 158.311C133.354 157.269 133.526 156.376 133.869 155.63C134.224 154.884 134.716 154.309 135.343 153.907C135.983 153.504 136.723 153.303 137.563 153.303ZM137.546 154.582C136.8 154.582 136.208 154.824 135.77 155.31C135.343 155.784 135.089 156.447 135.006 157.299H139.854C139.842 156.494 139.653 155.843 139.286 155.345C138.919 154.836 138.339 154.582 137.546 154.582ZM140.067 149.573C139.925 149.787 139.706 150.065 139.41 150.408C139.114 150.74 138.795 151.077 138.451 151.42C138.12 151.752 137.812 152.024 137.528 152.237H136.498V152.024C136.675 151.799 136.865 151.533 137.066 151.225C137.279 150.917 137.486 150.604 137.688 150.284C137.889 149.952 138.055 149.656 138.185 149.396H140.067V149.573ZM147.02 158.134C147.02 159.566 146.807 160.946 146.38 162.272C145.966 163.586 145.309 164.764 144.409 165.806H142.953C143.77 164.693 144.385 163.48 144.8 162.165C145.226 160.839 145.439 159.489 145.439 158.116C145.439 156.707 145.226 155.334 144.8 153.996C144.385 152.658 143.764 151.432 142.935 150.319H144.409C145.309 151.397 145.966 152.61 146.38 153.96C146.807 155.298 147.02 156.689 147.02 158.134Z" fill="black"/>
<rect x="45" y="109" width="117" height="68" stroke="#289F58" stroke-width="2"/>
<g filter="url(#filter2_d_9310_52439)">
<path d="M44 33V52" stroke="#7D828B" stroke-width="2"/>
</g>
<path d="M20.5501 68.3194C22.2077 68.3194 23.4154 68.645 24.1732 69.2962C24.9309 69.9474 25.3098 70.865 25.3098 72.049C25.3098 72.7475 25.15 73.4046 24.8303 74.0203C24.5225 74.6242 23.9956 75.1155 23.2497 75.4944C22.5156 75.8733 21.5151 76.0627 20.2482 76.0627H18.7919V81H17.1935V68.3194H20.5501ZM20.4081 69.6869H18.7919V74.6952H20.0706C21.2783 74.6952 22.1781 74.4998 22.7701 74.1091C23.3621 73.7184 23.6581 73.0554 23.6581 72.12C23.6581 71.303 23.3977 70.6933 22.8767 70.2907C22.3557 69.8882 21.5329 69.6869 20.4081 69.6869ZM32.1735 71.303C32.3511 71.303 32.5405 71.3149 32.7418 71.3386C32.9549 71.3504 33.1385 71.3741 33.2924 71.4096L33.097 72.8482C32.9431 72.8126 32.7714 72.783 32.582 72.7594C32.4044 72.7357 32.2327 72.7238 32.0669 72.7238C31.5815 72.7238 31.1257 72.86 30.6994 73.1323C30.2732 73.3928 29.9298 73.7658 29.6693 74.2512C29.4207 74.7248 29.2964 75.2813 29.2964 75.9206V81H27.7335V71.4806H29.0122L29.1898 73.2211H29.2609C29.5687 72.7002 29.9653 72.2502 30.4508 71.8714C30.9362 71.4925 31.5105 71.303 32.1735 71.303ZM38.3994 71.303C39.2163 71.303 39.9149 71.4806 40.495 71.8358C41.087 72.191 41.537 72.6942 41.8448 73.3454C42.1645 73.9848 42.3243 74.7366 42.3243 75.601V76.5422H35.8064C35.8301 77.6197 36.1024 78.4426 36.6234 79.0109C37.1562 79.5674 37.8962 79.8456 38.8434 79.8456C39.4472 79.8456 39.98 79.7923 40.4418 79.6858C40.9154 79.5674 41.4008 79.4016 41.8981 79.1885V80.556C41.4126 80.7691 40.9331 80.923 40.4595 81.0178C39.9859 81.1243 39.4235 81.1776 38.7723 81.1776C37.8725 81.1776 37.0733 80.9941 36.3747 80.627C35.688 80.26 35.1493 79.7154 34.7586 78.9931C34.3797 78.259 34.1902 77.3651 34.1902 76.3114C34.1902 75.2694 34.3619 74.3755 34.7053 73.6296C35.0605 72.8837 35.5518 72.3094 36.1794 71.9069C36.8187 71.5043 37.5587 71.303 38.3994 71.303ZM38.3816 72.5818C37.6357 72.5818 37.0437 72.8245 36.6056 73.3099C36.1794 73.7835 35.9248 74.4466 35.8419 75.299H40.6904C40.6786 74.4939 40.4891 73.8427 40.1221 73.3454C39.755 72.8363 39.1749 72.5818 38.3816 72.5818ZM40.9035 67.5734C40.7614 67.7866 40.5424 68.0648 40.2464 68.4082C39.9504 68.7397 39.6307 69.0771 39.2874 69.4205C38.9558 69.752 38.648 70.0243 38.3638 70.2374H37.3338V70.0243C37.5114 69.7994 37.7008 69.533 37.9021 69.2251C38.1152 68.9173 38.3224 68.6035 38.5237 68.2838C38.725 67.9523 38.8907 67.6563 39.021 67.3958H40.9035V67.5734ZM49.1344 72.6883H46.7368V81H45.174V72.6883H43.5045V71.9602L45.174 71.4274V70.8768C45.174 69.6454 45.4463 68.7634 45.9909 68.2306C46.5356 67.6859 47.2933 67.4136 48.2642 67.4136C48.6431 67.4136 48.9864 67.4491 49.2943 67.5202C49.614 67.5794 49.8863 67.6504 50.1112 67.7333L49.7028 68.9587C49.5133 68.8995 49.2943 68.8403 49.0456 68.7811C48.797 68.7219 48.5424 68.6923 48.282 68.6923C47.761 68.6923 47.3703 68.8699 47.1098 69.2251C46.8612 69.5685 46.7368 70.1131 46.7368 70.859V71.4806H49.1344V72.6883ZM51.6564 67.9109C51.8932 67.9109 52.1004 67.9938 52.278 68.1595C52.4674 68.3134 52.5621 68.5621 52.5621 68.9054C52.5621 69.237 52.4674 69.4856 52.278 69.6514C52.1004 69.8171 51.8932 69.9 51.6564 69.9C51.3959 69.9 51.1768 69.8171 50.9992 69.6514C50.8216 69.4856 50.7328 69.237 50.7328 68.9054C50.7328 68.5621 50.8216 68.3134 50.9992 68.1595C51.1768 67.9938 51.3959 67.9109 51.6564 67.9109ZM52.42 71.4806V81H50.8572V71.4806H52.42ZM57.687 76.1338L54.4014 71.4806H56.1774L58.6283 75.0682L61.0614 71.4806H62.8196L59.534 76.1338L62.9972 81H61.2212L58.6283 77.1994L55.9998 81H54.2416L57.687 76.1338ZM68.1612 71.303C68.9782 71.303 69.6768 71.4806 70.2569 71.8358C70.8489 72.191 71.2988 72.6942 71.6067 73.3454C71.9264 73.9848 72.0862 74.7366 72.0862 75.601V76.5422H65.5683C65.592 77.6197 65.8643 78.4426 66.3852 79.0109C66.918 79.5674 67.658 79.8456 68.6052 79.8456C69.2091 79.8456 69.7419 79.7923 70.2036 79.6858C70.6772 79.5674 71.1627 79.4016 71.66 79.1885V80.556C71.1745 80.7691 70.695 80.923 70.2214 81.0178C69.7478 81.1243 69.1854 81.1776 68.5342 81.1776C67.6344 81.1776 66.8352 80.9941 66.1366 80.627C65.4499 80.26 64.9112 79.7154 64.5204 78.9931C64.1416 78.259 63.9521 77.3651 63.9521 76.3114C63.9521 75.2694 64.1238 74.3755 64.4672 73.6296C64.8224 72.8837 65.3137 72.3094 65.9412 71.9069C66.5806 71.5043 67.3206 71.303 68.1612 71.303ZM68.1435 72.5818C67.3976 72.5818 66.8056 72.8245 66.3675 73.3099C65.9412 73.7835 65.6867 74.4466 65.6038 75.299H70.4523C70.4404 74.4939 70.251 73.8427 69.884 73.3454C69.5169 72.8363 68.9368 72.5818 68.1435 72.5818Z" fill="black"/>
<rect x="1" y="53" width="86" height="42" stroke="#7D828B" stroke-width="2"/>
<defs>
<filter id="filter0_d_9310_52439" x="171.5" y="33" width="4" height="19" filterUnits="userSpaceOnUse" color-interpolation-filters="sRGB">
<feFlood flood-opacity="0" result="BackgroundImageFix"/>
<feColorMatrix in="SourceAlpha" type="matrix" values="0 0 0 0 0 0 0 0 0 0 0 0 0 0 0 0 0 0 127 0" result="hardAlpha"/>
<feOffset dx="2"/>
<feComposite in2="hardAlpha" operator="out"/>
<feColorMatrix type="matrix" values="0 0 0 0 1 0 0 0 0 1 0 0 0 0 1 0 0 0 1 0"/>
<feBlend mode="normal" in2="BackgroundImageFix" result="effect1_dropShadow_9310_52439"/>
<feBlend mode="normal" in="SourceGraphic" in2="effect1_dropShadow_9310_52439" result="shape"/>
</filter>
<filter id="filter1_d_9310_52439" x="102.5" y="33" width="4" height="75" filterUnits="userSpaceOnUse" color-interpolation-filters="sRGB">
<feFlood flood-opacity="0" result="BackgroundImageFix"/>
<feColorMatrix in="SourceAlpha" type="matrix" values="0 0 0 0 0 0 0 0 0 0 0 0 0 0 0 0 0 0 127 0" result="hardAlpha"/>
<feOffset dx="2"/>
<feComposite in2="hardAlpha" operator="out"/>
<feColorMatrix type="matrix" values="0 0 0 0 1 0 0 0 0 1 0 0 0 0 1 0 0 0 1 0"/>
<feBlend mode="normal" in2="BackgroundImageFix" result="effect1_dropShadow_9310_52439"/>
<feBlend mode="normal" in="SourceGraphic" in2="effect1_dropShadow_9310_52439" result="shape"/>
</filter>
<filter id="filter2_d_9310_52439" x="43" y="33" width="4" height="19" filterUnits="userSpaceOnUse" color-interpolation-filters="sRGB">
<feFlood flood-opacity="0" result="BackgroundImageFix"/>
<feColorMatrix in="SourceAlpha" type="matrix" values="0 0 0 0 0 0 0 0 0 0 0 0 0 0 0 0 0 0 127 0" result="hardAlpha"/>
<feOffset dx="2"/>
<feComposite in2="hardAlpha" operator="out"/>
<feColorMatrix type="matrix" values="0 0 0 0 1 0 0 0 0 1 0 0 0 0 1 0 0 0 1 0"/>
<feBlend mode="normal" in2="BackgroundImageFix" result="effect1_dropShadow_9310_52439"/>
<feBlend mode="normal" in="SourceGraphic" in2="effect1_dropShadow_9310_52439" result="shape"/>
</filter>
</defs>
</svg>
