<svg width="350" height="193" viewBox="0 0 350 193" fill="none" xmlns="http://www.w3.org/2000/svg">
<g clip-path="url(#clip0_375_4970)">
<path d="M6.95028 4.72727V20H5.10085V6.66619H5.01136L1.28267 9.14204V7.26278L5.10085 4.72727H6.95028ZM11.7528 20.1193C11.3849 20.1193 11.0692 19.9876 10.8058 19.7241C10.5423 19.4606 10.4105 19.1449 10.4105 18.777C10.4105 18.4091 10.5423 18.0934 10.8058 17.8299C11.0692 17.5664 11.3849 17.4347 11.7528 17.4347C12.1207 17.4347 12.4364 17.5664 12.6999 17.8299C12.9634 18.0934 13.0952 18.4091 13.0952 18.777C13.0952 19.0206 13.033 19.2443 12.9087 19.4482C12.7894 19.652 12.6278 19.8161 12.424 19.9403C12.2251 20.0597 12.0014 20.1193 11.7528 20.1193ZM16.2235 20V18.6577L21.2647 13.1392C21.8564 12.4929 22.3436 11.9311 22.7264 11.4538C23.1092 10.9716 23.3926 10.5192 23.5765 10.0966C23.7654 9.66903 23.8599 9.22159 23.8599 8.75426C23.8599 8.21733 23.7306 7.75249 23.4721 7.35973C23.2186 6.96697 22.8706 6.66371 22.4281 6.44993C21.9856 6.23615 21.4885 6.12926 20.9366 6.12926C20.35 6.12926 19.8379 6.25107 19.4004 6.49467C18.9679 6.73331 18.6323 7.06889 18.3936 7.50142C18.16 7.93395 18.0431 8.44105 18.0431 9.02273H16.2832C16.2832 8.12784 16.4895 7.34233 16.9022 6.66619C17.3148 5.99006 17.8766 5.46307 18.5875 5.08523C19.3034 4.70739 20.1064 4.51847 20.9963 4.51847C21.8912 4.51847 22.6841 4.70739 23.3752 5.08523C24.0662 5.46307 24.6081 5.97266 25.0009 6.61399C25.3936 7.25533 25.59 7.96875 25.59 8.75426C25.59 9.31605 25.4881 9.86541 25.2843 10.4023C25.0854 10.9343 24.7374 11.5284 24.2402 12.1847C23.748 12.8359 23.0645 13.6314 22.1895 14.571L18.7591 18.2401V18.3594H25.8585V20H16.2235ZM33.7111 20.2088C32.8361 20.2088 32.0481 20.0348 31.3471 19.6868C30.6461 19.3388 30.0843 18.8615 29.6618 18.255C29.2392 17.6484 29.008 16.9574 28.9682 16.1818H30.758C30.8276 16.8729 31.1408 17.4446 31.6976 17.897C32.2594 18.3445 32.9306 18.5682 33.7111 18.5682C34.3375 18.5682 34.8944 18.4215 35.3816 18.1282C35.8738 17.8349 36.2591 17.4322 36.5375 16.9201C36.8208 16.4031 36.9625 15.8189 36.9625 15.1676C36.9625 14.5014 36.8159 13.9073 36.5226 13.3853C36.2342 12.8583 35.8365 12.4432 35.3294 12.1399C34.8223 11.8366 34.2431 11.6825 33.5918 11.6776C33.1245 11.6726 32.6447 11.7447 32.1525 11.8938C31.6603 12.038 31.2551 12.2244 30.937 12.4531L29.2069 12.2443L30.1316 4.72727H38.0662V6.3679H31.6827L31.1458 10.8722H31.2353C31.5485 10.6236 31.9412 10.4173 32.4135 10.2532C32.8858 10.0891 33.378 10.0071 33.8901 10.0071C34.8248 10.0071 35.6575 10.2308 36.3883 10.6783C37.1241 11.1207 37.7008 11.7273 38.1184 12.4979C38.541 13.2685 38.7523 14.1484 38.7523 15.1378C38.7523 16.1122 38.5336 16.9822 38.0961 17.7479C37.6635 18.5085 37.0669 19.1101 36.3063 19.5526C35.5456 19.9901 34.6806 20.2088 33.7111 20.2088ZM41.7446 20V8.54545H43.4449V10.2756H43.5642C43.773 9.70881 44.1508 9.24893 44.6977 8.89595C45.2446 8.54297 45.8611 8.36648 46.5471 8.36648C46.6764 8.36648 46.838 8.36896 47.0319 8.37393C47.2258 8.37891 47.3724 8.38636 47.4719 8.39631V10.1861C47.4122 10.1712 47.2755 10.1488 47.0617 10.119C46.8529 10.0842 46.6317 10.0668 46.398 10.0668C45.8412 10.0668 45.344 10.1836 44.9065 10.4173C44.474 10.646 44.1309 10.9641 43.8774 11.3718C43.6288 11.7745 43.5045 12.2344 43.5045 12.7514V20H41.7446ZM54.012 20.2386C52.9083 20.2386 51.9562 19.995 51.1558 19.5078C50.3604 19.0156 49.7464 18.3295 49.3138 17.4496C48.8863 16.5646 48.6725 15.5355 48.6725 14.3622C48.6725 13.1889 48.8863 12.1548 49.3138 11.2599C49.7464 10.3601 50.3479 9.65909 51.1185 9.15696C51.8941 8.64986 52.7989 8.39631 53.833 8.39631C54.4296 8.39631 55.0187 8.49574 55.6004 8.6946C56.1821 8.89347 56.7116 9.21662 57.1888 9.66406C57.6661 10.1065 58.0464 10.6932 58.3298 11.424C58.6132 12.1548 58.7549 13.0547 58.7549 14.1236V14.8693H49.9253V13.348H56.9651C56.9651 12.7017 56.8358 12.125 56.5773 11.6179C56.3238 11.1108 55.9608 10.7106 55.4885 10.4173C55.0212 10.1239 54.4694 9.97727 53.833 9.97727C53.132 9.97727 52.5255 10.1513 52.0134 10.4993C51.5063 10.8423 51.116 11.2898 50.8426 11.8416C50.5692 12.3935 50.4324 12.9851 50.4324 13.6165V14.6307C50.4324 15.4957 50.5816 16.229 50.8799 16.8306C51.1831 17.4272 51.6032 17.8821 52.1402 18.1953C52.6771 18.5036 53.301 18.6577 54.012 18.6577C54.4743 18.6577 54.892 18.593 55.2648 18.4638C55.6427 18.3295 55.9683 18.1307 56.2417 17.8672C56.5152 17.5987 56.7265 17.2656 56.8756 16.8679L58.5759 17.3452C58.3969 17.9219 58.0961 18.429 57.6736 18.8665C57.251 19.299 56.729 19.6371 56.1075 19.8807C55.4861 20.1193 54.7876 20.2386 54.012 20.2386ZM61.4321 20V8.54545H63.1324V10.3352H63.2815C63.5202 9.72372 63.9055 9.24893 64.4374 8.91087C64.9694 8.56783 65.6082 8.39631 66.354 8.39631C67.1096 8.39631 67.7385 8.56783 68.2407 8.91087C68.7478 9.24893 69.143 9.72372 69.4264 10.3352H69.5457C69.839 9.74361 70.279 9.27379 70.8657 8.92578C71.4523 8.5728 72.1558 8.39631 72.9761 8.39631C74.0003 8.39631 74.838 8.71697 75.4893 9.35831C76.1405 9.99467 76.4662 10.9865 76.4662 12.3338V20H74.7062V12.3338C74.7062 11.4886 74.4751 10.8846 74.0127 10.5217C73.5503 10.1587 73.0059 9.97727 72.3795 9.97727C71.5741 9.97727 70.9502 10.2209 70.5077 10.7081C70.0653 11.1903 69.844 11.8018 69.844 12.5426V20H68.0542V12.1548C68.0542 11.5036 67.843 10.979 67.4204 10.5813C66.9978 10.1786 66.4534 9.97727 65.7872 9.97727C65.3298 9.97727 64.9023 10.0991 64.5045 10.3427C64.1118 10.5863 63.7936 10.9244 63.55 11.3569C63.3113 11.7844 63.192 12.2791 63.192 12.8409V20H61.4321ZM133.497 12.6321V14.2727H126.815V12.6321H133.497ZM143.156 12.6321V14.2727H136.474V12.6321H143.156ZM150.876 24.5341C150.026 24.5341 149.295 24.4247 148.684 24.206C148.072 23.9922 147.562 23.7088 147.155 23.3558C146.752 23.0078 146.431 22.6349 146.193 22.2372L147.595 21.2528C147.754 21.4616 147.955 21.7003 148.199 21.9688C148.442 22.2422 148.775 22.4783 149.198 22.6772C149.626 22.881 150.185 22.983 150.876 22.983C151.801 22.983 152.564 22.7592 153.165 22.3118C153.767 21.8643 154.068 21.1634 154.068 20.2088V17.8821H153.919C153.789 18.0909 153.605 18.3494 153.367 18.6577C153.133 18.9609 152.795 19.2319 152.353 19.4705C151.915 19.7042 151.323 19.821 150.578 19.821C149.653 19.821 148.823 19.6023 148.087 19.1648C147.356 18.7273 146.777 18.0909 146.349 17.2557C145.927 16.4205 145.715 15.4062 145.715 14.2131C145.715 13.0398 145.922 12.0181 146.334 11.1481C146.747 10.2731 147.321 9.59695 148.057 9.11967C148.793 8.63743 149.643 8.39631 150.608 8.39631C151.353 8.39631 151.945 8.5206 152.382 8.76918C152.825 9.01278 153.163 9.29119 153.397 9.6044C153.635 9.91264 153.819 10.1662 153.948 10.3651H154.127V8.54545H155.828V20.3281C155.828 21.3125 155.604 22.1129 155.157 22.7294C154.714 23.3509 154.117 23.8058 153.367 24.0941C152.621 24.3874 151.791 24.5341 150.876 24.5341ZM150.816 18.2401C151.522 18.2401 152.119 18.0785 152.606 17.7553C153.093 17.4322 153.464 16.9673 153.717 16.3608C153.971 15.7543 154.098 15.0284 154.098 14.1832C154.098 13.358 153.973 12.6296 153.725 11.9982C153.476 11.3668 153.108 10.8722 152.621 10.5142C152.134 10.1562 151.532 9.97727 150.816 9.97727C150.071 9.97727 149.449 10.1662 148.952 10.544C148.46 10.9219 148.089 11.429 147.841 12.0653C147.597 12.7017 147.475 13.4077 147.475 14.1832C147.475 14.9787 147.6 15.6822 147.848 16.2937C148.102 16.9002 148.475 17.3775 148.967 17.7255C149.464 18.0685 150.081 18.2401 150.816 18.2401ZM163.703 20.2386C162.629 20.2386 161.704 19.9851 160.929 19.478C160.153 18.9709 159.556 18.2724 159.139 17.3825C158.721 16.4925 158.512 15.4759 158.512 14.3324C158.512 13.169 158.726 12.1424 159.154 11.2525C159.586 10.3576 160.188 9.65909 160.958 9.15696C161.734 8.64986 162.639 8.39631 163.673 8.39631C164.478 8.39631 165.204 8.54545 165.85 8.84375C166.497 9.14205 167.026 9.55966 167.439 10.0966C167.851 10.6335 168.108 11.2599 168.207 11.9759H166.447C166.313 11.4538 166.014 10.9915 165.552 10.5888C165.095 10.1811 164.478 9.97727 163.703 9.97727C163.017 9.97727 162.415 10.1562 161.898 10.5142C161.386 10.8672 160.986 11.3668 160.697 12.0131C160.414 12.6545 160.272 13.4077 160.272 14.2727C160.272 15.1577 160.411 15.9283 160.69 16.5845C160.973 17.2408 161.371 17.7504 161.883 18.1133C162.4 18.4762 163.007 18.6577 163.703 18.6577C164.16 18.6577 164.575 18.5781 164.948 18.419C165.321 18.2599 165.637 18.0312 165.895 17.733C166.154 17.4347 166.338 17.0767 166.447 16.6591H168.207C168.108 17.3352 167.861 17.9442 167.469 18.4862C167.081 19.0231 166.566 19.4506 165.925 19.7688C165.289 20.082 164.548 20.2386 163.703 20.2386ZM175.105 20.2386C174.15 20.2386 173.308 19.9975 172.577 19.5153C171.846 19.0281 171.274 18.342 170.862 17.457C170.449 16.5671 170.243 15.5156 170.243 14.3026C170.243 13.0994 170.449 12.0554 170.862 11.1705C171.274 10.2855 171.849 9.60192 172.584 9.11967C173.32 8.63743 174.17 8.39631 175.135 8.39631C175.881 8.39631 176.47 8.5206 176.902 8.76918C177.34 9.01278 177.673 9.29119 177.902 9.6044C178.135 9.91264 178.317 10.1662 178.446 10.3651H178.595V4.72727H180.355V20H178.655V18.2401H178.446C178.317 18.4489 178.133 18.7124 177.894 19.0305C177.655 19.3437 177.315 19.6246 176.872 19.8732C176.43 20.1168 175.841 20.2386 175.105 20.2386ZM175.344 18.6577C176.05 18.6577 176.646 18.4737 177.133 18.1058C177.621 17.733 177.991 17.2184 178.245 16.5621C178.498 15.9009 178.625 15.1378 178.625 14.2727C178.625 13.4176 178.501 12.6694 178.252 12.0281C178.003 11.3817 177.636 10.8796 177.148 10.5217C176.661 10.1587 176.06 9.97727 175.344 9.97727C174.598 9.97727 173.976 10.1687 173.479 10.5515C172.987 10.9293 172.617 11.4439 172.368 12.0952C172.125 12.7415 172.003 13.4673 172.003 14.2727C172.003 15.0881 172.127 15.8288 172.376 16.495C172.629 17.1562 173.002 17.6832 173.494 18.076C173.991 18.4638 174.608 18.6577 175.344 18.6577ZM191.936 11.1108L190.355 11.5582C190.256 11.2947 190.109 11.0387 189.915 10.7901C189.726 10.5366 189.468 10.3278 189.14 10.1637C188.812 9.99964 188.392 9.91761 187.88 9.91761C187.179 9.91761 186.594 10.0792 186.127 10.4023C185.665 10.7205 185.434 11.1257 185.434 11.6179C185.434 12.0554 185.593 12.4009 185.911 12.6545C186.229 12.908 186.726 13.1193 187.402 13.2884L189.103 13.706C190.127 13.9545 190.89 14.3349 191.392 14.8469C191.894 15.354 192.145 16.0078 192.145 16.8082C192.145 17.4645 191.956 18.0511 191.578 18.5682C191.206 19.0852 190.684 19.4929 190.012 19.7912C189.341 20.0895 188.561 20.2386 187.671 20.2386C186.502 20.2386 185.535 19.9851 184.77 19.478C184.004 18.9709 183.519 18.2301 183.316 17.2557L184.986 16.8381C185.145 17.4545 185.446 17.9169 185.888 18.2251C186.336 18.5334 186.92 18.6875 187.641 18.6875C188.461 18.6875 189.112 18.5135 189.595 18.1655C190.082 17.8125 190.326 17.3899 190.326 16.8977C190.326 16.5 190.186 16.1669 189.908 15.8984C189.63 15.625 189.202 15.4212 188.625 15.2869L186.716 14.8395C185.667 14.5909 184.897 14.2056 184.404 13.6836C183.917 13.1566 183.674 12.4979 183.674 11.7074C183.674 11.0611 183.855 10.4893 184.218 9.99219C184.586 9.49503 185.085 9.10476 185.717 8.82138C186.353 8.538 187.074 8.39631 187.88 8.39631C189.013 8.39631 189.903 8.64489 190.549 9.14204C191.201 9.6392 191.663 10.2955 191.936 11.1108ZM201.357 12.6321V14.2727H194.675V12.6321H201.357ZM209.554 8.54545V10.0369H203.38V8.54545H209.554ZM205.229 20V6.96449C205.229 6.30824 205.383 5.76136 205.691 5.32386C206 4.88636 206.4 4.55824 206.892 4.33949C207.384 4.12074 207.904 4.01136 208.451 4.01136C208.883 4.01136 209.236 4.04616 209.51 4.11577C209.783 4.18537 209.987 4.25 210.121 4.30966L209.614 5.83097C209.525 5.80114 209.4 5.76385 209.241 5.7191C209.087 5.67436 208.883 5.65199 208.63 5.65199C208.048 5.65199 207.628 5.79865 207.369 6.09197C207.116 6.3853 206.989 6.81534 206.989 7.3821V20H205.229ZM216.203 20.2386C215.169 20.2386 214.261 19.9925 213.481 19.5004C212.705 19.0082 212.099 18.3196 211.661 17.4347C211.229 16.5497 211.012 15.5156 211.012 14.3324C211.012 13.1392 211.229 12.0977 211.661 11.2077C212.099 10.3178 212.705 9.62678 213.481 9.13459C214.261 8.6424 215.169 8.39631 216.203 8.39631C217.237 8.39631 218.142 8.6424 218.917 9.13459C219.698 9.62678 220.304 10.3178 220.737 11.2077C221.174 12.0977 221.393 13.1392 221.393 14.3324C221.393 15.5156 221.174 16.5497 220.737 17.4347C220.304 18.3196 219.698 19.0082 218.917 19.5004C218.142 19.9925 217.237 20.2386 216.203 20.2386ZM216.203 18.6577C216.988 18.6577 217.634 18.4563 218.142 18.0536C218.649 17.6509 219.024 17.1214 219.268 16.4652C219.511 15.8089 219.633 15.098 219.633 14.3324C219.633 13.5668 219.511 12.8533 219.268 12.1921C219.024 11.5309 218.649 10.9964 218.142 10.5888C217.634 10.1811 216.988 9.97727 216.203 9.97727C215.417 9.97727 214.771 10.1811 214.264 10.5888C213.757 10.9964 213.381 11.5309 213.138 12.1921C212.894 12.8533 212.772 13.5668 212.772 14.3324C212.772 15.098 212.894 15.8089 213.138 16.4652C213.381 17.1214 213.757 17.6509 214.264 18.0536C214.771 18.4563 215.417 18.6577 216.203 18.6577ZM225.839 13.1094V20H224.08V8.54545H225.78V10.3352H225.929C226.197 9.75355 226.605 9.28622 227.152 8.93324C227.699 8.57528 228.405 8.39631 229.27 8.39631C230.045 8.39631 230.724 8.5554 231.306 8.87358C231.887 9.18679 232.34 9.66406 232.663 10.3054C232.986 10.9418 233.148 11.7472 233.148 12.7216V20H231.388V12.8409C231.388 11.9411 231.154 11.2401 230.687 10.7379C230.219 10.2308 229.578 9.97727 228.763 9.97727C228.201 9.97727 227.699 10.0991 227.256 10.3427C226.819 10.5863 226.473 10.9418 226.22 11.4091C225.966 11.8764 225.839 12.4432 225.839 13.1094ZM241.345 8.54545V10.0369H235.409V8.54545H241.345ZM237.139 5.80114H238.899V16.7188C238.899 17.2159 238.971 17.5888 239.116 17.8374C239.265 18.081 239.454 18.245 239.682 18.3295C239.916 18.4091 240.162 18.4489 240.421 18.4489C240.614 18.4489 240.774 18.4389 240.898 18.419C241.022 18.3942 241.122 18.3743 241.196 18.3594L241.554 19.9403C241.435 19.9851 241.268 20.0298 241.054 20.0746C240.841 20.1243 240.57 20.1491 240.242 20.1491C239.744 20.1491 239.257 20.0423 238.78 19.8285C238.308 19.6147 237.915 19.2891 237.602 18.8516C237.293 18.4141 237.139 17.8622 237.139 17.196V5.80114ZM250.145 12.6321V14.2727H243.463V12.6321H250.145ZM261.355 11.1108L259.774 11.5582C259.675 11.2947 259.528 11.0387 259.334 10.7901C259.145 10.5366 258.887 10.3278 258.559 10.1637C258.231 9.99964 257.811 9.91761 257.298 9.91761C256.597 9.91761 256.013 10.0792 255.546 10.4023C255.084 10.7205 254.852 11.1257 254.852 11.6179C254.852 12.0554 255.012 12.4009 255.33 12.6545C255.648 12.908 256.145 13.1193 256.821 13.2884L258.521 13.706C259.546 13.9545 260.309 14.3349 260.811 14.8469C261.313 15.354 261.564 16.0078 261.564 16.8082C261.564 17.4645 261.375 18.0511 260.997 18.5682C260.624 19.0852 260.102 19.4929 259.431 19.7912C258.76 20.0895 257.98 20.2386 257.09 20.2386C255.921 20.2386 254.954 19.9851 254.189 19.478C253.423 18.9709 252.938 18.2301 252.735 17.2557L254.405 16.8381C254.564 17.4545 254.865 17.9169 255.307 18.2251C255.755 18.5334 256.339 18.6875 257.06 18.6875C257.88 18.6875 258.531 18.5135 259.014 18.1655C259.501 17.8125 259.744 17.3899 259.744 16.8977C259.744 16.5 259.605 16.1669 259.327 15.8984C259.048 15.625 258.621 15.4212 258.044 15.2869L256.135 14.8395C255.086 14.5909 254.316 14.2056 253.823 13.6836C253.336 13.1566 253.093 12.4979 253.093 11.7074C253.093 11.0611 253.274 10.4893 253.637 9.99219C254.005 9.49503 254.504 9.10476 255.136 8.82138C255.772 8.538 256.493 8.39631 257.298 8.39631C258.432 8.39631 259.322 8.64489 259.968 9.14204C260.619 9.6392 261.082 10.2955 261.355 11.1108ZM264.213 20V8.54545H265.973V20H264.213ZM265.108 6.63636C264.765 6.63636 264.469 6.51953 264.221 6.28587C263.977 6.0522 263.855 5.77131 263.855 5.44318C263.855 5.11506 263.977 4.83416 264.221 4.6005C264.469 4.36683 264.765 4.25 265.108 4.25C265.451 4.25 265.745 4.36683 265.988 4.6005C266.237 4.83416 266.361 5.11506 266.361 5.44318C266.361 5.77131 266.237 6.0522 265.988 6.28587C265.745 6.51953 265.451 6.63636 265.108 6.63636ZM268.869 20V18.6577L275.371 10.3054V10.1861H269.077V8.54545H277.638V9.94744L271.315 18.2401V18.3594H277.847V20H268.869ZM285.032 20.2386C283.929 20.2386 282.977 19.995 282.176 19.5078C281.381 19.0156 280.767 18.3295 280.334 17.4496C279.907 16.5646 279.693 15.5355 279.693 14.3622C279.693 13.1889 279.907 12.1548 280.334 11.2599C280.767 10.3601 281.368 9.65909 282.139 9.15696C282.915 8.64986 283.819 8.39631 284.854 8.39631C285.45 8.39631 286.039 8.49574 286.621 8.6946C287.203 8.89347 287.732 9.21662 288.209 9.66406C288.687 10.1065 289.067 10.6932 289.35 11.424C289.634 12.1548 289.775 13.0547 289.775 14.1236V14.8693H280.946V13.348H287.986C287.986 12.7017 287.856 12.125 287.598 11.6179C287.344 11.1108 286.981 10.7106 286.509 10.4173C286.042 10.1239 285.49 9.97727 284.854 9.97727C284.153 9.97727 283.546 10.1513 283.034 10.4993C282.527 10.8423 282.137 11.2898 281.863 11.8416C281.59 12.3935 281.453 12.9851 281.453 13.6165V14.6307C281.453 15.4957 281.602 16.229 281.9 16.8306C282.204 17.4272 282.624 17.8821 283.161 18.1953C283.698 18.5036 284.322 18.6577 285.032 18.6577C285.495 18.6577 285.912 18.593 286.285 18.4638C286.663 18.3295 286.989 18.1307 287.262 17.8672C287.536 17.5987 287.747 17.2656 287.896 16.8679L289.596 17.3452C289.417 17.9219 289.117 18.429 288.694 18.8665C288.271 19.299 287.749 19.6371 287.128 19.8807C286.507 20.1193 285.808 20.2386 285.032 20.2386ZM300.566 11.1108L298.985 11.5582C298.886 11.2947 298.739 11.0387 298.545 10.7901C298.356 10.5366 298.098 10.3278 297.77 10.1637C297.442 9.99964 297.021 9.91761 296.509 9.91761C295.808 9.91761 295.224 10.0792 294.757 10.4023C294.295 10.7205 294.063 11.1257 294.063 11.6179C294.063 12.0554 294.222 12.4009 294.541 12.6545C294.859 12.908 295.356 13.1193 296.032 13.2884L297.732 13.706C298.757 13.9545 299.52 14.3349 300.022 14.8469C300.524 15.354 300.775 16.0078 300.775 16.8082C300.775 17.4645 300.586 18.0511 300.208 18.5682C299.835 19.0852 299.313 19.4929 298.642 19.7912C297.971 20.0895 297.191 20.2386 296.301 20.2386C295.132 20.2386 294.165 19.9851 293.4 19.478C292.634 18.9709 292.149 18.2301 291.945 17.2557L293.616 16.8381C293.775 17.4545 294.076 17.9169 294.518 18.2251C294.966 18.5334 295.55 18.6875 296.271 18.6875C297.091 18.6875 297.742 18.5135 298.225 18.1655C298.712 17.8125 298.955 17.3899 298.955 16.8977C298.955 16.5 298.816 16.1669 298.538 15.8984C298.259 15.625 297.832 15.4212 297.255 15.2869L295.346 14.8395C294.297 14.5909 293.526 14.2056 293.034 13.6836C292.547 13.1566 292.303 12.4979 292.303 11.7074C292.303 11.0611 292.485 10.4893 292.848 9.99219C293.216 9.49503 293.715 9.10476 294.347 8.82138C294.983 8.538 295.704 8.39631 296.509 8.39631C297.643 8.39631 298.533 8.64489 299.179 9.14204C299.83 9.6392 300.293 10.2955 300.566 11.1108ZM309.987 12.6321V14.2727H303.305V12.6321H309.987ZM318.065 8.54545V10.0369H312.129V8.54545H318.065ZM313.859 5.80114H315.619V16.7188C315.619 17.2159 315.691 17.5888 315.835 17.8374C315.984 18.081 316.173 18.245 316.402 18.3295C316.636 18.4091 316.882 18.4489 317.14 18.4489C317.334 18.4489 317.493 18.4389 317.618 18.419C317.742 18.3942 317.841 18.3743 317.916 18.3594L318.274 19.9403C318.154 19.9851 317.988 20.0298 317.774 20.0746C317.56 20.1243 317.289 20.1491 316.961 20.1491C316.464 20.1491 315.977 20.0423 315.5 19.8285C315.027 19.6147 314.635 19.2891 314.321 18.8516C314.013 18.4141 313.859 17.8622 313.859 17.196V5.80114ZM325.392 20.2386C324.288 20.2386 323.336 19.995 322.536 19.5078C321.74 19.0156 321.126 18.3295 320.694 17.4496C320.266 16.5646 320.052 15.5355 320.052 14.3622C320.052 13.1889 320.266 12.1548 320.694 11.2599C321.126 10.3601 321.728 9.65909 322.498 9.15696C323.274 8.64986 324.179 8.39631 325.213 8.39631C325.809 8.39631 326.399 8.49574 326.98 8.6946C327.562 8.89347 328.091 9.21662 328.569 9.66406C329.046 10.1065 329.426 10.6932 329.71 11.424C329.993 12.1548 330.135 13.0547 330.135 14.1236V14.8693H321.305V13.348H328.345C328.345 12.7017 328.216 12.125 327.957 11.6179C327.704 11.1108 327.341 10.7106 326.868 10.4173C326.401 10.1239 325.849 9.97727 325.213 9.97727C324.512 9.97727 323.905 10.1513 323.393 10.4993C322.886 10.8423 322.496 11.2898 322.222 11.8416C321.949 12.3935 321.812 12.9851 321.812 13.6165V14.6307C321.812 15.4957 321.961 16.229 322.26 16.8306C322.563 17.4272 322.983 17.8821 323.52 18.1953C324.057 18.5036 324.681 18.6577 325.392 18.6577C325.854 18.6577 326.272 18.593 326.645 18.4638C327.023 18.3295 327.348 18.1307 327.622 17.8672C327.895 17.5987 328.106 17.2656 328.256 16.8679L329.956 17.3452C329.777 17.9219 329.476 18.429 329.053 18.8665C328.631 19.299 328.109 19.6371 327.487 19.8807C326.866 20.1193 326.167 20.2386 325.392 20.2386ZM333.817 8.54545L336.561 13.2287L339.305 8.54545H341.334L337.635 14.2727L341.334 20H339.305L336.561 15.5554L333.817 20H331.788L335.428 14.2727L331.788 8.54545H333.817ZM348.827 8.54545V10.0369H342.891V8.54545H348.827ZM344.621 5.80114H346.381V16.7188C346.381 17.2159 346.453 17.5888 346.597 17.8374C346.746 18.081 346.935 18.245 347.164 18.3295C347.397 18.4091 347.643 18.4489 347.902 18.4489C348.096 18.4489 348.255 18.4389 348.379 18.419C348.504 18.3942 348.603 18.3743 348.678 18.3594L349.036 19.9403C348.916 19.9851 348.75 20.0298 348.536 20.0746C348.322 20.1243 348.051 20.1491 347.723 20.1491C347.226 20.1491 346.739 20.0423 346.261 19.8285C345.789 19.6147 345.396 19.2891 345.083 18.8516C344.775 18.4141 344.621 17.8622 344.621 17.196V5.80114Z" fill="black"/>
<path d="M6.74148 105.209C5.7571 105.209 4.87962 105.04 4.10902 104.702C3.3434 104.364 2.73438 103.894 2.28196 103.292C1.83452 102.686 1.59091 101.982 1.55114 101.182H3.4304C3.47017 101.674 3.6392 102.099 3.9375 102.457C4.2358 102.81 4.62607 103.083 5.10831 103.277C5.59055 103.471 6.125 103.568 6.71165 103.568C7.3679 103.568 7.94957 103.454 8.45668 103.225C8.96378 102.996 9.36151 102.678 9.64986 102.271C9.93821 101.863 10.0824 101.391 10.0824 100.854C10.0824 100.292 9.94318 99.7972 9.66477 99.3697C9.38636 98.9371 8.97869 98.5991 8.44176 98.3555C7.90483 98.1119 7.24858 97.9901 6.47301 97.9901H5.25V96.3494H6.47301C7.07955 96.3494 7.61151 96.2401 8.06889 96.0213C8.53125 95.8026 8.89169 95.4943 9.15021 95.0966C9.41371 94.6989 9.54545 94.2315 9.54545 93.6946C9.54545 93.1776 9.43111 92.7276 9.20242 92.3448C8.97372 91.962 8.65057 91.6637 8.23295 91.4499C7.82031 91.2362 7.3331 91.1293 6.77131 91.1293C6.24432 91.1293 5.74716 91.2262 5.27983 91.4201C4.81747 91.609 4.43963 91.8849 4.14631 92.2479C3.85298 92.6058 3.69389 93.0384 3.66903 93.5455H1.87926C1.90909 92.745 2.15021 92.044 2.60263 91.4425C3.05504 90.8359 3.64666 90.3636 4.37749 90.0256C5.11328 89.6875 5.92117 89.5185 6.80114 89.5185C7.74574 89.5185 8.55611 89.7099 9.23224 90.0927C9.90838 90.4705 10.4279 90.9702 10.7908 91.5916C11.1538 92.2131 11.3352 92.8842 11.3352 93.6051C11.3352 94.4652 11.109 95.1985 10.6566 95.805C10.2092 96.4116 9.60014 96.8317 8.82955 97.0653V97.1847C9.79403 97.3437 10.5472 97.7539 11.0891 98.4151C11.631 99.0714 11.902 99.8842 11.902 100.854C11.902 101.684 11.6758 102.43 11.2234 103.091C10.7759 103.747 10.1644 104.264 9.38885 104.642C8.61328 105.02 7.73082 105.209 6.74148 105.209ZM14.9819 105V93.5455H16.6822V95.2756H16.8015C17.0103 94.7088 17.3881 94.2489 17.935 93.896C18.4819 93.543 19.0984 93.3665 19.7844 93.3665C19.9137 93.3665 20.0753 93.369 20.2692 93.3739C20.4631 93.3789 20.6097 93.3864 20.7092 93.3963V95.1861C20.6495 95.1712 20.5128 95.1488 20.299 95.119C20.0902 95.0842 19.869 95.0668 19.6353 95.0668C19.0785 95.0668 18.5813 95.1836 18.1438 95.4173C17.7113 95.646 17.3683 95.9641 17.1147 96.3718C16.8661 96.7745 16.7418 97.2344 16.7418 97.7514V105H14.9819ZM27.2493 105.239C26.1456 105.239 25.1935 104.995 24.3931 104.508C23.5977 104.016 22.9837 103.33 22.5511 102.45C22.1236 101.565 21.9098 100.536 21.9098 99.3622C21.9098 98.1889 22.1236 97.1548 22.5511 96.2599C22.9837 95.3601 23.5852 94.6591 24.3558 94.157C25.1314 93.6499 26.0362 93.3963 27.0703 93.3963C27.6669 93.3963 28.256 93.4957 28.8377 93.6946C29.4194 93.8935 29.9489 94.2166 30.4261 94.6641C30.9034 95.1065 31.2837 95.6932 31.5671 96.424C31.8505 97.1548 31.9922 98.0547 31.9922 99.1236V99.8693H23.1626V98.348H30.2024C30.2024 97.7017 30.0732 97.125 29.8146 96.6179C29.5611 96.1108 29.1982 95.7106 28.7259 95.4173C28.2585 95.1239 27.7067 94.9773 27.0703 94.9773C26.3693 94.9773 25.7628 95.1513 25.2507 95.4993C24.7436 95.8423 24.3533 96.2898 24.0799 96.8416C23.8065 97.3935 23.6697 97.9851 23.6697 98.6165V99.6307C23.6697 100.496 23.8189 101.229 24.1172 101.831C24.4205 102.427 24.8406 102.882 25.3775 103.195C25.9144 103.504 26.5384 103.658 27.2493 103.658C27.7116 103.658 28.1293 103.593 28.5021 103.464C28.88 103.33 29.2056 103.131 29.479 102.867C29.7525 102.599 29.9638 102.266 30.1129 101.868L31.8132 102.345C31.6342 102.922 31.3335 103.429 30.9109 103.866C30.4883 104.299 29.9663 104.637 29.3448 104.881C28.7234 105.119 28.0249 105.239 27.2493 105.239ZM34.6694 105V93.5455H36.3697V95.3352H36.5188C36.7575 94.7237 37.1428 94.2489 37.6747 93.9109C38.2067 93.5678 38.8455 93.3963 39.5913 93.3963C40.3469 93.3963 40.9759 93.5678 41.478 93.9109C41.9851 94.2489 42.3803 94.7237 42.6637 95.3352H42.783C43.0763 94.7436 43.5163 94.2738 44.103 93.9258C44.6896 93.5728 45.3931 93.3963 46.2134 93.3963C47.2376 93.3963 48.0753 93.717 48.7266 94.3583C49.3778 94.9947 49.7035 95.9865 49.7035 97.3338V105H47.9435V97.3338C47.9435 96.4886 47.7124 95.8846 47.25 95.5217C46.7876 95.1587 46.2433 94.9773 45.6168 94.9773C44.8114 94.9773 44.1875 95.2209 43.745 95.7081C43.3026 96.1903 43.0813 96.8018 43.0813 97.5426V105H41.2915V97.1548C41.2915 96.5036 41.0803 95.979 40.6577 95.5813C40.2351 95.1786 39.6907 94.9773 39.0245 94.9773C38.5671 94.9773 38.1396 95.0991 37.7418 95.3427C37.3491 95.5863 37.0309 95.9244 36.7873 96.3569C36.5487 96.7844 36.4293 97.2791 36.4293 97.8409V105H34.6694ZM106.734 97.6321V99.2727H100.052V97.6321H106.734ZM116.393 97.6321V99.2727H109.711V97.6321H116.393ZM124.113 109.534C123.263 109.534 122.532 109.425 121.921 109.206C121.309 108.992 120.8 108.709 120.392 108.356C119.989 108.008 119.669 107.635 119.43 107.237L120.832 106.253C120.991 106.462 121.192 106.7 121.436 106.969C121.68 107.242 122.013 107.478 122.435 107.677C122.863 107.881 123.422 107.983 124.113 107.983C125.038 107.983 125.801 107.759 126.403 107.312C127.004 106.864 127.305 106.163 127.305 105.209V102.882H127.156C127.027 103.091 126.843 103.349 126.604 103.658C126.37 103.961 126.032 104.232 125.59 104.471C125.152 104.704 124.561 104.821 123.815 104.821C122.89 104.821 122.06 104.602 121.324 104.165C120.593 103.727 120.014 103.091 119.587 102.256C119.164 101.42 118.953 100.406 118.953 99.2131C118.953 98.0398 119.159 97.0181 119.572 96.1481C119.984 95.2731 120.559 94.5969 121.294 94.1197C122.03 93.6374 122.88 93.3963 123.845 93.3963C124.591 93.3963 125.182 93.5206 125.62 93.7692C126.062 94.0128 126.4 94.2912 126.634 94.6044C126.873 94.9126 127.056 95.1662 127.186 95.3651H127.365V93.5455H129.065V105.328C129.065 106.312 128.841 107.113 128.394 107.729C127.951 108.351 127.355 108.806 126.604 109.094C125.858 109.387 125.028 109.534 124.113 109.534ZM124.054 103.24C124.76 103.24 125.356 103.078 125.843 102.755C126.331 102.432 126.701 101.967 126.955 101.361C127.208 100.754 127.335 100.028 127.335 99.1832C127.335 98.358 127.211 97.6296 126.962 96.9982C126.713 96.3668 126.346 95.8722 125.858 95.5142C125.371 95.1562 124.77 94.9773 124.054 94.9773C123.308 94.9773 122.686 95.1662 122.189 95.544C121.697 95.9219 121.327 96.429 121.078 97.0653C120.835 97.7017 120.713 98.4077 120.713 99.1832C120.713 99.9787 120.837 100.682 121.086 101.294C121.339 101.9 121.712 102.377 122.204 102.725C122.701 103.069 123.318 103.24 124.054 103.24ZM136.94 105.239C135.866 105.239 134.941 104.985 134.166 104.478C133.39 103.971 132.794 103.272 132.376 102.382C131.958 101.493 131.75 100.476 131.75 99.3324C131.75 98.169 131.963 97.1424 132.391 96.2525C132.824 95.3576 133.425 94.6591 134.196 94.157C134.971 93.6499 135.876 93.3963 136.91 93.3963C137.716 93.3963 138.441 93.5455 139.088 93.8438C139.734 94.142 140.263 94.5597 140.676 95.0966C141.089 95.6335 141.345 96.2599 141.444 96.9759H139.684C139.55 96.4538 139.252 95.9915 138.789 95.5888C138.332 95.1811 137.716 94.9773 136.94 94.9773C136.254 94.9773 135.652 95.1562 135.135 95.5142C134.623 95.8672 134.223 96.3668 133.935 97.0131C133.651 97.6545 133.51 98.4077 133.51 99.2727C133.51 100.158 133.649 100.928 133.927 101.585C134.211 102.241 134.608 102.75 135.12 103.113C135.637 103.476 136.244 103.658 136.94 103.658C137.397 103.658 137.812 103.578 138.185 103.419C138.558 103.26 138.874 103.031 139.132 102.733C139.391 102.435 139.575 102.077 139.684 101.659H141.444C141.345 102.335 141.099 102.944 140.706 103.486C140.318 104.023 139.804 104.451 139.162 104.769C138.526 105.082 137.785 105.239 136.94 105.239ZM148.342 105.239C147.388 105.239 146.545 104.998 145.814 104.515C145.083 104.028 144.512 103.342 144.099 102.457C143.686 101.567 143.48 100.516 143.48 99.3026C143.48 98.0994 143.686 97.0554 144.099 96.1705C144.512 95.2855 145.086 94.6019 145.822 94.1197C146.558 93.6374 147.408 93.3963 148.372 93.3963C149.118 93.3963 149.707 93.5206 150.14 93.7692C150.577 94.0128 150.91 94.2912 151.139 94.6044C151.373 94.9126 151.554 95.1662 151.683 95.3651H151.832V89.7273H153.592V105H151.892V103.24H151.683C151.554 103.449 151.37 103.712 151.131 104.031C150.893 104.344 150.552 104.625 150.11 104.873C149.667 105.117 149.078 105.239 148.342 105.239ZM148.581 103.658C149.287 103.658 149.884 103.474 150.371 103.106C150.858 102.733 151.228 102.218 151.482 101.562C151.735 100.901 151.862 100.138 151.862 99.2727C151.862 98.4176 151.738 97.6694 151.489 97.0281C151.241 96.3817 150.873 95.8796 150.386 95.5217C149.898 95.1587 149.297 94.9773 148.581 94.9773C147.835 94.9773 147.214 95.1687 146.717 95.5515C146.224 95.9293 145.854 96.4439 145.605 97.0952C145.362 97.7415 145.24 98.4673 145.24 99.2727C145.24 100.088 145.364 100.829 145.613 101.495C145.866 102.156 146.239 102.683 146.732 103.076C147.229 103.464 147.845 103.658 148.581 103.658ZM165.174 96.1108L163.593 96.5582C163.493 96.2947 163.347 96.0387 163.153 95.7901C162.964 95.5366 162.705 95.3278 162.377 95.1637C162.049 94.9996 161.629 94.9176 161.117 94.9176C160.416 94.9176 159.832 95.0792 159.364 95.4023C158.902 95.7205 158.671 96.1257 158.671 96.6179C158.671 97.0554 158.83 97.4009 159.148 97.6545C159.466 97.908 159.963 98.1193 160.64 98.2884L162.34 98.706C163.364 98.9545 164.127 99.3349 164.629 99.8469C165.131 100.354 165.382 101.008 165.382 101.808C165.382 102.464 165.194 103.051 164.816 103.568C164.443 104.085 163.921 104.493 163.25 104.791C162.578 105.089 161.798 105.239 160.908 105.239C159.74 105.239 158.773 104.985 158.007 104.478C157.241 103.971 156.757 103.23 156.553 102.256L158.223 101.838C158.382 102.455 158.683 102.917 159.126 103.225C159.573 103.533 160.157 103.688 160.878 103.688C161.699 103.688 162.35 103.513 162.832 103.165C163.319 102.812 163.563 102.39 163.563 101.898C163.563 101.5 163.424 101.167 163.145 100.898C162.867 100.625 162.439 100.421 161.863 100.287L159.953 99.8395C158.904 99.5909 158.134 99.2056 157.642 98.6836C157.154 98.1566 156.911 97.4979 156.911 96.7074C156.911 96.0611 157.092 95.4893 157.455 94.9922C157.823 94.495 158.323 94.1048 158.954 93.8214C159.591 93.538 160.311 93.3963 161.117 93.3963C162.25 93.3963 163.14 93.6449 163.787 94.142C164.438 94.6392 164.9 95.2955 165.174 96.1108ZM174.594 97.6321V99.2727H167.912V97.6321H174.594ZM185.805 96.1108L184.224 96.5582C184.124 96.2947 183.977 96.0387 183.784 95.7901C183.595 95.5366 183.336 95.3278 183.008 95.1637C182.68 94.9996 182.26 94.9176 181.748 94.9176C181.047 94.9176 180.463 95.0792 179.995 95.4023C179.533 95.7205 179.302 96.1257 179.302 96.6179C179.302 97.0554 179.461 97.4009 179.779 97.6545C180.097 97.908 180.594 98.1193 181.27 98.2884L182.971 98.706C183.995 98.9545 184.758 99.3349 185.26 99.8469C185.762 100.354 186.013 101.008 186.013 101.808C186.013 102.464 185.824 103.051 185.447 103.568C185.074 104.085 184.552 104.493 183.881 104.791C183.209 105.089 182.429 105.239 181.539 105.239C180.371 105.239 179.404 104.985 178.638 104.478C177.872 103.971 177.388 103.23 177.184 102.256L178.854 101.838C179.013 102.455 179.314 102.917 179.757 103.225C180.204 103.533 180.788 103.688 181.509 103.688C182.329 103.688 182.981 103.513 183.463 103.165C183.95 102.812 184.194 102.39 184.194 101.898C184.194 101.5 184.055 101.167 183.776 100.898C183.498 100.625 183.07 100.421 182.493 100.287L180.584 99.8395C179.535 99.5909 178.765 99.2056 178.273 98.6836C177.785 98.1566 177.542 97.4979 177.542 96.7074C177.542 96.0611 177.723 95.4893 178.086 94.9922C178.454 94.495 178.954 94.1048 179.585 93.8214C180.221 93.538 180.942 93.3963 181.748 93.3963C182.881 93.3963 183.771 93.6449 184.417 94.142C185.069 94.6392 185.531 95.2955 185.805 96.1108ZM188.663 109.295V93.5455H190.363V95.3651H190.572C190.701 95.1662 190.88 94.9126 191.109 94.6044C191.342 94.2912 191.675 94.0128 192.108 93.7692C192.545 93.5206 193.137 93.3963 193.883 93.3963C194.847 93.3963 195.697 93.6374 196.433 94.1197C197.169 94.6019 197.743 95.2855 198.156 96.1705C198.568 97.0554 198.775 98.0994 198.775 99.3026C198.775 100.516 198.568 101.567 198.156 102.457C197.743 103.342 197.171 104.028 196.441 104.515C195.71 104.998 194.867 105.239 193.913 105.239C193.177 105.239 192.588 105.117 192.145 104.873C191.703 104.625 191.362 104.344 191.123 104.031C190.885 103.712 190.701 103.449 190.572 103.24H190.422V109.295H188.663ZM190.393 99.2727C190.393 100.138 190.519 100.901 190.773 101.562C191.027 102.218 191.397 102.733 191.884 103.106C192.371 103.474 192.968 103.658 193.674 103.658C194.41 103.658 195.024 103.464 195.516 103.076C196.013 102.683 196.386 102.156 196.634 101.495C196.888 100.829 197.015 100.088 197.015 99.2727C197.015 98.4673 196.891 97.7415 196.642 97.0952C196.398 96.4439 196.028 95.9293 195.531 95.5515C195.039 95.1687 194.42 94.9773 193.674 94.9773C192.958 94.9773 192.356 95.1587 191.869 95.5217C191.382 95.8796 191.014 96.3817 190.766 97.0281C190.517 97.6694 190.393 98.4176 190.393 99.2727ZM204.83 105.268C204.104 105.268 203.446 105.132 202.854 104.858C202.262 104.58 201.793 104.18 201.445 103.658C201.097 103.131 200.922 102.494 200.922 101.749C200.922 101.092 201.052 100.56 201.31 100.153C201.569 99.7401 201.914 99.4169 202.347 99.1832C202.779 98.9496 203.257 98.7756 203.779 98.6612C204.306 98.5419 204.835 98.4474 205.367 98.3778C206.063 98.2884 206.627 98.2212 207.06 98.1765C207.497 98.1268 207.816 98.0447 208.014 97.9304C208.218 97.8161 208.32 97.6172 208.32 97.3338V97.2741C208.32 96.5384 208.119 95.9666 207.716 95.5589C207.318 95.1513 206.714 94.9474 205.904 94.9474C205.064 94.9474 204.405 95.1314 203.928 95.4993C203.451 95.8672 203.115 96.2599 202.921 96.6776L201.251 96.081C201.549 95.3849 201.947 94.843 202.444 94.4553C202.946 94.0625 203.493 93.7891 204.084 93.6349C204.681 93.4759 205.268 93.3963 205.844 93.3963C206.212 93.3963 206.635 93.4411 207.112 93.5305C207.594 93.6151 208.059 93.7915 208.507 94.06C208.959 94.3285 209.334 94.7337 209.633 95.2756C209.931 95.8175 210.08 96.5433 210.08 97.4531V105H208.32V103.449H208.231C208.111 103.697 207.913 103.963 207.634 104.247C207.356 104.53 206.985 104.771 206.523 104.97C206.061 105.169 205.496 105.268 204.83 105.268ZM205.099 103.688C205.795 103.688 206.381 103.551 206.859 103.277C207.341 103.004 207.704 102.651 207.947 102.218C208.196 101.786 208.32 101.331 208.32 100.854V99.2429C208.246 99.3324 208.082 99.4144 207.828 99.489C207.579 99.5586 207.291 99.6207 206.963 99.6754C206.64 99.7251 206.324 99.7699 206.016 99.8097C205.713 99.8445 205.467 99.8743 205.278 99.8991C204.82 99.9588 204.393 100.056 203.995 100.19C203.602 100.319 203.284 100.516 203.04 100.779C202.802 101.038 202.682 101.391 202.682 101.838C202.682 102.45 202.909 102.912 203.361 103.225C203.818 103.533 204.398 103.688 205.099 103.688ZM217.946 105.239C216.872 105.239 215.947 104.985 215.172 104.478C214.396 103.971 213.8 103.272 213.382 102.382C212.964 101.493 212.756 100.476 212.756 99.3324C212.756 98.169 212.969 97.1424 213.397 96.2525C213.829 95.3576 214.431 94.6591 215.202 94.157C215.977 93.6499 216.882 93.3963 217.916 93.3963C218.721 93.3963 219.447 93.5455 220.094 93.8438C220.74 94.142 221.269 94.5597 221.682 95.0966C222.095 95.6335 222.351 96.2599 222.45 96.9759H220.69C220.556 96.4538 220.258 95.9915 219.795 95.5888C219.338 95.1811 218.721 94.9773 217.946 94.9773C217.26 94.9773 216.658 95.1562 216.141 95.5142C215.629 95.8672 215.229 96.3668 214.941 97.0131C214.657 97.6545 214.515 98.4077 214.515 99.2727C214.515 100.158 214.655 100.928 214.933 101.585C215.216 102.241 215.614 102.75 216.126 103.113C216.643 103.476 217.25 103.658 217.946 103.658C218.403 103.658 218.818 103.578 219.191 103.419C219.564 103.26 219.88 103.031 220.138 102.733C220.397 102.435 220.581 102.077 220.69 101.659H222.45C222.351 102.335 222.105 102.944 221.712 103.486C221.324 104.023 220.809 104.451 220.168 104.769C219.532 105.082 218.791 105.239 217.946 105.239ZM225.023 105V93.5455H226.783V105H225.023ZM225.918 91.6364C225.575 91.6364 225.279 91.5195 225.03 91.2859C224.787 91.0522 224.665 90.7713 224.665 90.4432C224.665 90.1151 224.787 89.8342 225.03 89.6005C225.279 89.3668 225.575 89.25 225.918 89.25C226.261 89.25 226.554 89.3668 226.798 89.6005C227.046 89.8342 227.171 90.1151 227.171 90.4432C227.171 90.7713 227.046 91.0522 226.798 91.2859C226.554 91.5195 226.261 91.6364 225.918 91.6364ZM231.766 98.1094V105H230.006V93.5455H231.707V95.3352H231.856C232.124 94.7536 232.532 94.2862 233.079 93.9332C233.626 93.5753 234.332 93.3963 235.197 93.3963C235.972 93.3963 236.651 93.5554 237.233 93.8736C237.814 94.1868 238.267 94.6641 238.59 95.3054C238.913 95.9418 239.074 96.7472 239.074 97.7216V105H237.315V97.8409C237.315 96.9411 237.081 96.2401 236.614 95.7379C236.146 95.2308 235.505 94.9773 234.69 94.9773C234.128 94.9773 233.626 95.0991 233.183 95.3427C232.746 95.5863 232.4 95.9418 232.147 96.4091C231.893 96.8764 231.766 97.4432 231.766 98.1094ZM246.914 109.534C246.064 109.534 245.333 109.425 244.722 109.206C244.11 108.992 243.6 108.709 243.193 108.356C242.79 108.008 242.469 107.635 242.231 107.237L243.633 106.253C243.792 106.462 243.993 106.7 244.237 106.969C244.48 107.242 244.814 107.478 245.236 107.677C245.664 107.881 246.223 107.983 246.914 107.983C247.839 107.983 248.602 107.759 249.203 107.312C249.805 106.864 250.106 106.163 250.106 105.209V102.882H249.957C249.827 103.091 249.643 103.349 249.405 103.658C249.171 103.961 248.833 104.232 248.391 104.471C247.953 104.704 247.362 104.821 246.616 104.821C245.691 104.821 244.861 104.602 244.125 104.165C243.394 103.727 242.815 103.091 242.387 102.256C241.965 101.42 241.754 100.406 241.754 99.2131C241.754 98.0398 241.96 97.0181 242.373 96.1481C242.785 95.2731 243.359 94.5969 244.095 94.1197C244.831 93.6374 245.681 93.3963 246.646 93.3963C247.391 93.3963 247.983 93.5206 248.42 93.7692C248.863 94.0128 249.201 94.2912 249.435 94.6044C249.673 94.9126 249.857 95.1662 249.987 95.3651H250.165V93.5455H251.866V105.328C251.866 106.312 251.642 107.113 251.195 107.729C250.752 108.351 250.156 108.806 249.405 109.094C248.659 109.387 247.829 109.534 246.914 109.534ZM246.854 103.24C247.56 103.24 248.157 103.078 248.644 102.755C249.131 102.432 249.502 101.967 249.755 101.361C250.009 100.754 250.136 100.028 250.136 99.1832C250.136 98.358 250.011 97.6296 249.763 96.9982C249.514 96.3668 249.146 95.8722 248.659 95.5142C248.172 95.1562 247.57 94.9773 246.854 94.9773C246.109 94.9773 245.487 95.1662 244.99 95.544C244.498 95.9219 244.127 96.429 243.879 97.0653C243.635 97.7017 243.513 98.4077 243.513 99.1832C243.513 99.9787 243.638 100.682 243.886 101.294C244.14 101.9 244.513 102.377 245.005 102.725C245.502 103.069 246.119 103.24 246.854 103.24ZM261.65 97.6321V99.2727H254.968V97.6321H261.65ZM269.788 105.209C269.161 105.199 268.535 105.08 267.908 104.851C267.282 104.622 266.71 104.237 266.193 103.695C265.676 103.148 265.261 102.41 264.948 101.48C264.635 100.545 264.478 99.3722 264.478 97.9602C264.478 96.608 264.605 95.4098 264.858 94.3658C265.112 93.3168 265.48 92.4343 265.962 91.7184C266.444 90.9975 267.026 90.4506 267.707 90.0778C268.393 89.7049 269.166 89.5185 270.026 89.5185C270.881 89.5185 271.642 89.69 272.308 90.033C272.979 90.3711 273.526 90.8434 273.949 91.4499C274.372 92.0565 274.645 92.755 274.769 93.5455H272.95C272.781 92.8594 272.453 92.2901 271.965 91.8377C271.478 91.3853 270.832 91.1591 270.026 91.1591C268.843 91.1591 267.911 91.6737 267.23 92.7028C266.554 93.7319 266.213 95.1761 266.208 97.0355H266.328C266.606 96.6129 266.937 96.2525 267.319 95.9542C267.707 95.6509 268.135 95.4173 268.602 95.2532C269.069 95.0891 269.564 95.0071 270.086 95.0071C270.961 95.0071 271.761 95.2259 272.487 95.6634C273.213 96.0959 273.795 96.695 274.232 97.4606C274.67 98.2212 274.889 99.0938 274.889 100.078C274.889 101.023 274.677 101.888 274.255 102.673C273.832 103.454 273.238 104.075 272.472 104.538C271.712 104.995 270.817 105.219 269.788 105.209ZM269.788 103.568C270.414 103.568 270.976 103.412 271.473 103.098C271.975 102.785 272.37 102.365 272.659 101.838C272.952 101.311 273.099 100.724 273.099 100.078C273.099 99.4467 272.957 98.8725 272.674 98.3555C272.395 97.8335 272.01 97.4183 271.518 97.1101C271.031 96.8018 270.474 96.6477 269.847 96.6477C269.375 96.6477 268.935 96.7422 268.527 96.9311C268.12 97.1151 267.762 97.3686 267.454 97.6918C267.15 98.0149 266.912 98.3853 266.738 98.8029C266.564 99.2156 266.477 99.6506 266.477 100.108C266.477 100.714 266.618 101.281 266.902 101.808C267.19 102.335 267.583 102.76 268.08 103.083C268.582 103.407 269.151 103.568 269.788 103.568ZM282.803 105.209C281.679 105.209 280.722 104.903 279.932 104.292C279.141 103.675 278.537 102.783 278.119 101.614C277.702 100.441 277.493 99.0241 277.493 97.3636C277.493 95.7131 277.702 94.3036 278.119 93.1353C278.542 91.962 279.149 91.0671 279.939 90.4506C280.735 89.8292 281.689 89.5185 282.803 89.5185C283.916 89.5185 284.868 89.8292 285.659 90.4506C286.454 91.0671 287.061 91.962 287.479 93.1353C287.901 94.3036 288.112 95.7131 288.112 97.3636C288.112 99.0241 287.904 100.441 287.486 101.614C287.068 102.783 286.464 103.675 285.674 104.292C284.883 104.903 283.926 105.209 282.803 105.209ZM282.803 103.568C283.916 103.568 284.781 103.031 285.398 101.957C286.014 100.884 286.323 99.3523 286.323 97.3636C286.323 96.0412 286.181 94.9151 285.898 93.9854C285.619 93.0558 285.216 92.3473 284.689 91.8601C284.167 91.3729 283.539 91.1293 282.803 91.1293C281.699 91.1293 280.836 91.6737 280.215 92.7624C279.594 93.8462 279.283 95.38 279.283 97.3636C279.283 98.6861 279.422 99.8097 279.7 100.734C279.979 101.659 280.379 102.363 280.901 102.845C281.428 103.327 282.062 103.568 282.803 103.568ZM295.928 105.209C294.804 105.209 293.847 104.903 293.057 104.292C292.266 103.675 291.662 102.783 291.244 101.614C290.827 100.441 290.618 99.0241 290.618 97.3636C290.618 95.7131 290.827 94.3036 291.244 93.1353C291.667 91.962 292.274 91.0671 293.064 90.4506C293.86 89.8292 294.814 89.5185 295.928 89.5185C297.041 89.5185 297.993 89.8292 298.784 90.4506C299.579 91.0671 300.186 91.962 300.604 93.1353C301.026 94.3036 301.237 95.7131 301.237 97.3636C301.237 99.0241 301.029 100.441 300.611 101.614C300.193 102.783 299.589 103.675 298.799 104.292C298.008 104.903 297.051 105.209 295.928 105.209ZM295.928 103.568C297.041 103.568 297.906 103.031 298.523 101.957C299.139 100.884 299.448 99.3523 299.448 97.3636C299.448 96.0412 299.306 94.9151 299.023 93.9854C298.744 93.0558 298.341 92.3473 297.814 91.8601C297.292 91.3729 296.664 91.1293 295.928 91.1293C294.824 91.1293 293.961 91.6737 293.34 92.7624C292.719 93.8462 292.408 95.38 292.408 97.3636C292.408 98.6861 292.547 99.8097 292.825 100.734C293.104 101.659 293.504 102.363 294.026 102.845C294.553 103.327 295.187 103.568 295.928 103.568Z" fill="black"/>
<path d="M7.30824 188L9.81392 172.727H11.3054L8.79972 188H7.30824ZM0.357955 183.764L0.596591 182.273H11.9915L11.7528 183.764H0.357955ZM1.93892 188L4.4446 172.727H5.93608L3.4304 188H1.93892ZM1.25284 178.455L1.49148 176.963H12.8864L12.6477 178.455H1.25284ZM19.9895 188.209C19.0051 188.209 18.1277 188.04 17.3571 187.702C16.5914 187.364 15.9824 186.894 15.53 186.292C15.0826 185.686 14.839 184.982 14.7992 184.182H16.6784C16.7182 184.674 16.8873 185.099 17.1855 185.457C17.4838 185.81 17.8741 186.083 18.3564 186.277C18.8386 186.471 19.373 186.568 19.9597 186.568C20.6159 186.568 21.1976 186.454 21.7047 186.225C22.2118 185.996 22.6096 185.678 22.8979 185.271C23.1863 184.863 23.3304 184.391 23.3304 183.854C23.3304 183.292 23.1912 182.797 22.9128 182.37C22.6344 181.937 22.2267 181.599 21.6898 181.355C21.1529 181.112 20.4966 180.99 19.7211 180.99H18.498V179.349H19.7211C20.3276 179.349 20.8596 179.24 21.3169 179.021C21.7793 178.803 22.1397 178.494 22.3983 178.097C22.6618 177.699 22.7935 177.232 22.7935 176.695C22.7935 176.178 22.6792 175.728 22.4505 175.345C22.2218 174.962 21.8986 174.664 21.481 174.45C21.0684 174.236 20.5811 174.129 20.0194 174.129C19.4924 174.129 18.9952 174.226 18.5279 174.42C18.0655 174.609 17.6877 174.885 17.3944 175.248C17.101 175.606 16.9419 176.038 16.9171 176.545H15.1273C15.1571 175.745 15.3983 175.044 15.8507 174.442C16.3031 173.836 16.8947 173.364 17.6255 173.026C18.3613 172.687 19.1692 172.518 20.0492 172.518C20.9938 172.518 21.8042 172.71 22.4803 173.093C23.1564 173.471 23.676 173.97 24.0389 174.592C24.4018 175.213 24.5833 175.884 24.5833 176.605C24.5833 177.465 24.3571 178.199 23.9047 178.805C23.4572 179.412 22.8482 179.832 22.0776 180.065V180.185C23.0421 180.344 23.7953 180.754 24.3372 181.415C24.8791 182.071 25.15 182.884 25.15 183.854C25.15 184.684 24.9238 185.43 24.4714 186.091C24.024 186.747 23.4125 187.264 22.6369 187.642C21.8613 188.02 20.9789 188.209 19.9895 188.209ZM33.3606 188.209C32.3762 188.209 31.4988 188.04 30.7282 187.702C29.9625 187.364 29.3535 186.894 28.9011 186.292C28.4537 185.686 28.21 184.982 28.1703 184.182H30.0495C30.0893 184.674 30.2583 185.099 30.5566 185.457C30.8549 185.81 31.2452 186.083 31.7275 186.277C32.2097 186.471 32.7441 186.568 33.3308 186.568C33.987 186.568 34.5687 186.454 35.0758 186.225C35.5829 185.996 35.9806 185.678 36.269 185.271C36.5574 184.863 36.7015 184.391 36.7015 183.854C36.7015 183.292 36.5623 182.797 36.2839 182.37C36.0055 181.937 35.5978 181.599 35.0609 181.355C34.524 181.112 33.8677 180.99 33.0922 180.99H31.8691V179.349H33.0922C33.6987 179.349 34.2306 179.24 34.688 179.021C35.1504 178.803 35.5108 178.494 35.7694 178.097C36.0328 177.699 36.1646 177.232 36.1646 176.695C36.1646 176.178 36.0502 175.728 35.8216 175.345C35.5929 174.962 35.2697 174.664 34.8521 174.45C34.4395 174.236 33.9522 174.129 33.3904 174.129C32.8635 174.129 32.3663 174.226 31.899 174.42C31.4366 174.609 31.0588 174.885 30.7654 175.248C30.4721 175.606 30.313 176.038 30.2882 176.545H28.4984C28.5282 175.745 28.7694 175.044 29.2218 174.442C29.6742 173.836 30.2658 173.364 30.9966 173.026C31.7324 172.687 32.5403 172.518 33.4203 172.518C34.3649 172.518 35.1752 172.71 35.8514 173.093C36.5275 173.471 37.0471 173.97 37.41 174.592C37.7729 175.213 37.9544 175.884 37.9544 176.605C37.9544 177.465 37.7282 178.199 37.2757 178.805C36.8283 179.412 36.2193 179.832 35.4487 180.065V180.185C36.4132 180.344 37.1664 180.754 37.7083 181.415C38.2502 182.071 38.5211 182.884 38.5211 183.854C38.5211 184.684 38.2949 185.43 37.8425 186.091C37.3951 186.747 36.7836 187.264 36.008 187.642C35.2324 188.02 34.35 188.209 33.3606 188.209ZM46.7317 188.209C45.7473 188.209 44.8699 188.04 44.0993 187.702C43.3336 187.364 42.7246 186.894 42.2722 186.292C41.8248 185.686 41.5811 184.982 41.5414 184.182H43.4206C43.4604 184.674 43.6294 185.099 43.9277 185.457C44.226 185.81 44.6163 186.083 45.0985 186.277C45.5808 186.471 46.1152 186.568 46.7019 186.568C47.3581 186.568 47.9398 186.454 48.4469 186.225C48.954 185.996 49.3517 185.678 49.6401 185.271C49.9284 184.863 50.0726 184.391 50.0726 183.854C50.0726 183.292 49.9334 182.797 49.655 182.37C49.3766 181.937 48.9689 181.599 48.432 181.355C47.8951 181.112 47.2388 180.99 46.4632 180.99H45.2402V179.349H46.4632C47.0698 179.349 47.6017 179.24 48.0591 179.021C48.5215 178.803 48.8819 178.494 49.1404 178.097C49.4039 177.699 49.5357 177.232 49.5357 176.695C49.5357 176.178 49.4213 175.728 49.1926 175.345C48.964 174.962 48.6408 174.664 48.2232 174.45C47.8105 174.236 47.3233 174.129 46.7615 174.129C46.2346 174.129 45.7374 174.226 45.2701 174.42C44.8077 174.609 44.4299 174.885 44.1365 175.248C43.8432 175.606 43.6841 176.038 43.6593 176.545H41.8695C41.8993 175.745 42.1404 175.044 42.5929 174.442C43.0453 173.836 43.6369 173.364 44.3677 173.026C45.1035 172.687 45.9114 172.518 46.7914 172.518C47.736 172.518 48.5463 172.71 49.2225 173.093C49.8986 173.471 50.4181 173.97 50.7811 174.592C51.144 175.213 51.3255 175.884 51.3255 176.605C51.3255 177.465 51.0993 178.199 50.6468 178.805C50.1994 179.412 49.5904 179.832 48.8198 180.065V180.185C49.7843 180.344 50.5375 180.754 51.0794 181.415C51.6213 182.071 51.8922 182.884 51.8922 183.854C51.8922 184.684 51.666 185.43 51.2136 186.091C50.7662 186.747 50.1547 187.264 49.3791 187.642C48.6035 188.02 47.7211 188.209 46.7317 188.209ZM60.1028 188.209C59.1184 188.209 58.2409 188.04 57.4703 187.702C56.7047 187.364 56.0957 186.894 55.6433 186.292C55.1958 185.686 54.9522 184.982 54.9125 184.182H56.7917C56.8315 184.674 57.0005 185.099 57.2988 185.457C57.5971 185.81 57.9874 186.083 58.4696 186.277C58.9519 186.471 59.4863 186.568 60.073 186.568C60.7292 186.568 61.3109 186.454 61.818 186.225C62.3251 185.996 62.7228 185.678 63.0112 185.271C63.2995 184.863 63.4437 184.391 63.4437 183.854C63.4437 183.292 63.3045 182.797 63.0261 182.37C62.7477 181.937 62.34 181.599 61.8031 181.355C61.2662 181.112 60.6099 180.99 59.8343 180.99H58.6113V179.349H59.8343C60.4409 179.349 60.9728 179.24 61.4302 179.021C61.8926 178.803 62.253 178.494 62.5115 178.097C62.775 177.699 62.9068 177.232 62.9068 176.695C62.9068 176.178 62.7924 175.728 62.5637 175.345C62.335 174.962 62.0119 174.664 61.5943 174.45C61.1816 174.236 60.6944 174.129 60.1326 174.129C59.6056 174.129 59.1085 174.226 58.6412 174.42C58.1788 174.609 57.801 174.885 57.5076 175.248C57.2143 175.606 57.0552 176.038 57.0304 176.545H55.2406C55.2704 175.745 55.5115 175.044 55.964 174.442C56.4164 173.836 57.008 173.364 57.7388 173.026C58.4746 172.687 59.2825 172.518 60.1625 172.518C61.1071 172.518 61.9174 172.71 62.5936 173.093C63.2697 173.471 63.7892 173.97 64.1522 174.592C64.5151 175.213 64.6966 175.884 64.6966 176.605C64.6966 177.465 64.4703 178.199 64.0179 178.805C63.5705 179.412 62.9615 179.832 62.1909 180.065V180.185C63.1554 180.344 63.9086 180.754 64.4505 181.415C64.9924 182.071 65.2633 182.884 65.2633 183.854C65.2633 184.684 65.0371 185.43 64.5847 186.091C64.1373 186.747 63.5257 187.264 62.7502 187.642C61.9746 188.02 61.0922 188.209 60.1028 188.209ZM73.4739 188.209C72.4895 188.209 71.612 188.04 70.8414 187.702C70.0758 187.364 69.4668 186.894 69.0144 186.292C68.5669 185.686 68.3233 184.982 68.2836 184.182H70.1628C70.2026 184.674 70.3716 185.099 70.6699 185.457C70.9682 185.81 71.3585 186.083 71.8407 186.277C72.323 186.471 72.8574 186.568 73.4441 186.568C74.1003 186.568 74.682 186.454 75.1891 186.225C75.6962 185.996 76.0939 185.678 76.3823 185.271C76.6706 184.863 76.8148 184.391 76.8148 183.854C76.8148 183.292 76.6756 182.797 76.3972 182.37C76.1188 181.937 75.7111 181.599 75.1742 181.355C74.6373 181.112 73.981 180.99 73.2054 180.99H71.9824V179.349H73.2054C73.812 179.349 74.3439 179.24 74.8013 179.021C75.2637 178.803 75.6241 178.494 75.8826 178.097C76.1461 177.699 76.2779 177.232 76.2779 176.695C76.2779 176.178 76.1635 175.728 75.9348 175.345C75.7061 174.962 75.383 174.664 74.9654 174.45C74.5527 174.236 74.0655 174.129 73.5037 174.129C72.9767 174.129 72.4796 174.226 72.0123 174.42C71.5499 174.609 71.1721 174.885 70.8787 175.248C70.5854 175.606 70.4263 176.038 70.4015 176.545H68.6117C68.6415 175.745 68.8826 175.044 69.335 174.442C69.7875 173.836 70.3791 173.364 71.1099 173.026C71.8457 172.687 72.6536 172.518 73.5336 172.518C74.4782 172.518 75.2885 172.71 75.9647 173.093C76.6408 173.471 77.1603 173.97 77.5233 174.592C77.8862 175.213 78.0676 175.884 78.0676 176.605C78.0676 177.465 77.8414 178.199 77.389 178.805C76.9416 179.412 76.3326 179.832 75.562 180.065V180.185C76.5265 180.344 77.2797 180.754 77.8216 181.415C78.3635 182.071 78.6344 182.884 78.6344 183.854C78.6344 184.684 78.4082 185.43 77.9558 186.091C77.5083 186.747 76.8968 187.264 76.1213 187.642C75.3457 188.02 74.4632 188.209 73.4739 188.209ZM86.845 188.209C85.8606 188.209 84.9831 188.04 84.2125 187.702C83.4469 187.364 82.8379 186.894 82.3855 186.292C81.938 185.686 81.6944 184.982 81.6547 184.182H83.5339C83.5737 184.674 83.7427 185.099 84.041 185.457C84.3393 185.81 84.7296 186.083 85.2118 186.277C85.6941 186.471 86.2285 186.568 86.8152 186.568C87.4714 186.568 88.0531 186.454 88.5602 186.225C89.0673 185.996 89.465 185.678 89.7534 185.271C90.0417 184.863 90.1859 184.391 90.1859 183.854C90.1859 183.292 90.0467 182.797 89.7683 182.37C89.4899 181.937 89.0822 181.599 88.5453 181.355C88.0083 181.112 87.3521 180.99 86.5765 180.99H85.3535V179.349H86.5765C87.1831 179.349 87.715 179.24 88.1724 179.021C88.6348 178.803 88.9952 178.494 89.2537 178.097C89.5172 177.699 89.649 177.232 89.649 176.695C89.649 176.178 89.5346 175.728 89.3059 175.345C89.0772 174.962 88.7541 174.664 88.3365 174.45C87.9238 174.236 87.4366 174.129 86.8748 174.129C86.3478 174.129 85.8507 174.226 85.3833 174.42C84.921 174.609 84.5431 174.885 84.2498 175.248C83.9565 175.606 83.7974 176.038 83.7725 176.545H81.9828C82.0126 175.745 82.2537 175.044 82.7061 174.442C83.1586 173.836 83.7502 173.364 84.481 173.026C85.2168 172.687 86.0247 172.518 86.9047 172.518C87.8493 172.518 88.6596 172.71 89.3358 173.093C90.0119 173.471 90.5314 173.97 90.8944 174.592C91.2573 175.213 91.4387 175.884 91.4387 176.605C91.4387 177.465 91.2125 178.199 90.7601 178.805C90.3127 179.412 89.7037 179.832 88.9331 180.065V180.185C89.8975 180.344 90.6507 180.754 91.1926 181.415C91.7346 182.071 92.0055 182.884 92.0055 183.854C92.0055 184.684 91.7793 185.43 91.3269 186.091C90.8794 186.747 90.2679 187.264 89.4924 187.642C88.7168 188.02 87.8343 188.209 86.845 188.209ZM148.898 180.632V182.273H142.216V180.632H148.898ZM158.557 180.632V182.273H151.875V180.632H158.557ZM166.277 192.534C165.427 192.534 164.696 192.425 164.085 192.206C163.473 191.992 162.964 191.709 162.556 191.356C162.153 191.008 161.833 190.635 161.594 190.237L162.996 189.253C163.155 189.462 163.357 189.7 163.6 189.969C163.844 190.242 164.177 190.478 164.599 190.677C165.027 190.881 165.586 190.983 166.277 190.983C167.202 190.983 167.965 190.759 168.567 190.312C169.168 189.864 169.469 189.163 169.469 188.209V185.882H169.32C169.191 186.091 169.007 186.349 168.768 186.658C168.534 186.961 168.196 187.232 167.754 187.471C167.316 187.704 166.725 187.821 165.979 187.821C165.054 187.821 164.224 187.602 163.488 187.165C162.757 186.727 162.178 186.091 161.751 185.256C161.328 184.42 161.117 183.406 161.117 182.213C161.117 181.04 161.323 180.018 161.736 179.148C162.148 178.273 162.723 177.597 163.458 177.12C164.194 176.637 165.044 176.396 166.009 176.396C166.755 176.396 167.346 176.521 167.784 176.769C168.226 177.013 168.564 177.291 168.798 177.604C169.037 177.913 169.221 178.166 169.35 178.365H169.529V176.545H171.229V188.328C171.229 189.312 171.005 190.113 170.558 190.729C170.115 191.351 169.519 191.806 168.768 192.094C168.022 192.387 167.192 192.534 166.277 192.534ZM166.218 186.24C166.924 186.24 167.52 186.078 168.007 185.755C168.495 185.432 168.865 184.967 169.119 184.361C169.372 183.754 169.499 183.028 169.499 182.183C169.499 181.358 169.375 180.63 169.126 179.998C168.877 179.367 168.51 178.872 168.022 178.514C167.535 178.156 166.934 177.977 166.218 177.977C165.472 177.977 164.85 178.166 164.353 178.544C163.861 178.922 163.491 179.429 163.242 180.065C162.999 180.702 162.877 181.408 162.877 182.183C162.877 182.979 163.001 183.682 163.25 184.294C163.503 184.9 163.876 185.377 164.368 185.725C164.865 186.069 165.482 186.24 166.218 186.24ZM179.104 188.239C178.03 188.239 177.105 187.985 176.33 187.478C175.554 186.971 174.958 186.272 174.54 185.382C174.123 184.493 173.914 183.476 173.914 182.332C173.914 181.169 174.127 180.142 174.555 179.252C174.988 178.358 175.589 177.659 176.36 177.157C177.135 176.65 178.04 176.396 179.074 176.396C179.88 176.396 180.605 176.545 181.252 176.844C181.898 177.142 182.428 177.56 182.84 178.097C183.253 178.634 183.509 179.26 183.608 179.976H181.848C181.714 179.454 181.416 178.991 180.953 178.589C180.496 178.181 179.88 177.977 179.104 177.977C178.418 177.977 177.816 178.156 177.299 178.514C176.787 178.867 176.387 179.367 176.099 180.013C175.815 180.654 175.674 181.408 175.674 182.273C175.674 183.158 175.813 183.928 176.091 184.585C176.375 185.241 176.772 185.75 177.284 186.113C177.801 186.476 178.408 186.658 179.104 186.658C179.561 186.658 179.977 186.578 180.349 186.419C180.722 186.26 181.038 186.031 181.297 185.733C181.555 185.435 181.739 185.077 181.848 184.659H183.608C183.509 185.335 183.263 185.944 182.87 186.486C182.482 187.023 181.968 187.451 181.326 187.769C180.69 188.082 179.949 188.239 179.104 188.239ZM190.506 188.239C189.552 188.239 188.709 187.998 187.978 187.515C187.248 187.028 186.676 186.342 186.263 185.457C185.85 184.567 185.644 183.516 185.644 182.303C185.644 181.099 185.85 180.055 186.263 179.17C186.676 178.286 187.25 177.602 187.986 177.12C188.722 176.637 189.572 176.396 190.536 176.396C191.282 176.396 191.871 176.521 192.304 176.769C192.741 177.013 193.074 177.291 193.303 177.604C193.537 177.913 193.718 178.166 193.847 178.365H193.996V172.727H195.756V188H194.056V186.24H193.847C193.718 186.449 193.534 186.712 193.295 187.031C193.057 187.344 192.716 187.625 192.274 187.873C191.831 188.117 191.242 188.239 190.506 188.239ZM190.745 186.658C191.451 186.658 192.048 186.474 192.535 186.106C193.022 185.733 193.392 185.218 193.646 184.562C193.9 183.901 194.026 183.138 194.026 182.273C194.026 181.418 193.902 180.669 193.653 180.028C193.405 179.382 193.037 178.88 192.55 178.522C192.063 178.159 191.461 177.977 190.745 177.977C189.999 177.977 189.378 178.169 188.881 178.551C188.388 178.929 188.018 179.444 187.77 180.095C187.526 180.741 187.404 181.467 187.404 182.273C187.404 183.088 187.528 183.829 187.777 184.495C188.031 185.156 188.403 185.683 188.896 186.076C189.393 186.464 190.009 186.658 190.745 186.658ZM207.338 179.111L205.757 179.558C205.657 179.295 205.511 179.039 205.317 178.79C205.128 178.537 204.869 178.328 204.541 178.164C204.213 178 203.793 177.918 203.281 177.918C202.58 177.918 201.996 178.079 201.528 178.402C201.066 178.721 200.835 179.126 200.835 179.618C200.835 180.055 200.994 180.401 201.312 180.654C201.63 180.908 202.127 181.119 202.804 181.288L204.504 181.706C205.528 181.955 206.291 182.335 206.793 182.847C207.295 183.354 207.547 184.008 207.547 184.808C207.547 185.464 207.358 186.051 206.98 186.568C206.607 187.085 206.085 187.493 205.414 187.791C204.743 188.089 203.962 188.239 203.072 188.239C201.904 188.239 200.937 187.985 200.171 187.478C199.406 186.971 198.921 186.23 198.717 185.256L200.387 184.838C200.547 185.455 200.847 185.917 201.29 186.225C201.737 186.533 202.321 186.688 203.042 186.688C203.863 186.688 204.514 186.513 204.996 186.165C205.483 185.812 205.727 185.39 205.727 184.898C205.727 184.5 205.588 184.167 205.309 183.898C205.031 183.625 204.603 183.421 204.027 183.287L202.118 182.839C201.069 182.591 200.298 182.206 199.806 181.684C199.319 181.157 199.075 180.498 199.075 179.707C199.075 179.061 199.256 178.489 199.619 177.992C199.987 177.495 200.487 177.105 201.118 176.821C201.755 176.538 202.475 176.396 203.281 176.396C204.414 176.396 205.304 176.645 205.951 177.142C206.602 177.639 207.064 178.295 207.338 179.111ZM216.758 180.632V182.273H210.076V180.632H216.758ZM224.836 176.545V178.037H218.9V176.545H224.836ZM220.631 173.801H222.39V184.719C222.39 185.216 222.463 185.589 222.607 185.837C222.756 186.081 222.945 186.245 223.173 186.33C223.407 186.409 223.653 186.449 223.912 186.449C224.106 186.449 224.265 186.439 224.389 186.419C224.513 186.394 224.613 186.374 224.687 186.359L225.045 187.94C224.926 187.985 224.759 188.03 224.546 188.075C224.332 188.124 224.061 188.149 223.733 188.149C223.236 188.149 222.748 188.042 222.271 187.828C221.799 187.615 221.406 187.289 221.093 186.852C220.785 186.414 220.631 185.862 220.631 185.196V173.801ZM232.163 188.239C231.06 188.239 230.108 187.995 229.307 187.508C228.512 187.016 227.898 186.33 227.465 185.45C227.038 184.565 226.824 183.536 226.824 182.362C226.824 181.189 227.038 180.155 227.465 179.26C227.898 178.36 228.499 177.659 229.27 177.157C230.045 176.65 230.95 176.396 231.984 176.396C232.581 176.396 233.17 176.496 233.752 176.695C234.333 176.893 234.863 177.217 235.34 177.664C235.817 178.107 236.198 178.693 236.481 179.424C236.765 180.155 236.906 181.055 236.906 182.124V182.869H228.077V181.348H235.116C235.116 180.702 234.987 180.125 234.729 179.618C234.475 179.111 234.112 178.711 233.64 178.417C233.173 178.124 232.621 177.977 231.984 177.977C231.283 177.977 230.677 178.151 230.165 178.499C229.658 178.842 229.267 179.29 228.994 179.842C228.721 180.393 228.584 180.985 228.584 181.616V182.631C228.584 183.496 228.733 184.229 229.031 184.831C229.335 185.427 229.755 185.882 230.292 186.195C230.828 186.504 231.452 186.658 232.163 186.658C232.626 186.658 233.043 186.593 233.416 186.464C233.794 186.33 234.12 186.131 234.393 185.867C234.667 185.599 234.878 185.266 235.027 184.868L236.727 185.345C236.548 185.922 236.248 186.429 235.825 186.866C235.402 187.299 234.88 187.637 234.259 187.881C233.637 188.119 232.939 188.239 232.163 188.239ZM240.588 176.545L243.333 181.229L246.077 176.545H248.105L244.407 182.273L248.105 188H246.077L243.333 183.555L240.588 188H238.56L242.199 182.273L238.56 176.545H240.588ZM255.598 176.545V178.037H249.662V176.545H255.598ZM251.392 173.801H253.152V184.719C253.152 185.216 253.224 185.589 253.368 185.837C253.518 186.081 253.706 186.245 253.935 186.33C254.169 186.409 254.415 186.449 254.673 186.449C254.867 186.449 255.026 186.439 255.151 186.419C255.275 186.394 255.374 186.374 255.449 186.359L255.807 187.94C255.688 187.985 255.521 188.03 255.307 188.075C255.094 188.124 254.823 188.149 254.494 188.149C253.997 188.149 253.51 188.042 253.033 187.828C252.561 187.615 252.168 187.289 251.855 186.852C251.546 186.414 251.392 185.862 251.392 185.196V173.801ZM264.398 180.632V182.273H257.716V180.632H264.398ZM267.495 192.295V176.545H269.195V178.365H269.404C269.533 178.166 269.712 177.913 269.941 177.604C270.174 177.291 270.507 177.013 270.94 176.769C271.377 176.521 271.969 176.396 272.715 176.396C273.679 176.396 274.529 176.637 275.265 177.12C276.001 177.602 276.575 178.286 276.988 179.17C277.4 180.055 277.607 181.099 277.607 182.303C277.607 183.516 277.4 184.567 276.988 185.457C276.575 186.342 276.003 187.028 275.273 187.515C274.542 187.998 273.699 188.239 272.745 188.239C272.009 188.239 271.42 188.117 270.977 187.873C270.535 187.625 270.194 187.344 269.956 187.031C269.717 186.712 269.533 186.449 269.404 186.24H269.255V192.295H267.495ZM269.225 182.273C269.225 183.138 269.351 183.901 269.605 184.562C269.859 185.218 270.229 185.733 270.716 186.106C271.203 186.474 271.8 186.658 272.506 186.658C273.242 186.658 273.856 186.464 274.348 186.076C274.845 185.683 275.218 185.156 275.467 184.495C275.72 183.829 275.847 183.088 275.847 182.273C275.847 181.467 275.723 180.741 275.474 180.095C275.23 179.444 274.86 178.929 274.363 178.551C273.871 178.169 273.252 177.977 272.506 177.977C271.79 177.977 271.188 178.159 270.701 178.522C270.214 178.88 269.846 179.382 269.598 180.028C269.349 180.669 269.225 181.418 269.225 182.273ZM280.291 188V176.545H281.992V178.276H282.111C282.32 177.709 282.698 177.249 283.245 176.896C283.791 176.543 284.408 176.366 285.094 176.366C285.223 176.366 285.385 176.369 285.579 176.374C285.773 176.379 285.919 176.386 286.019 176.396V178.186C285.959 178.171 285.822 178.149 285.609 178.119C285.4 178.084 285.179 178.067 284.945 178.067C284.388 178.067 283.891 178.184 283.453 178.417C283.021 178.646 282.678 178.964 282.424 179.372C282.176 179.775 282.051 180.234 282.051 180.751V188H280.291ZM288.105 188V176.545H289.865V188H288.105ZM289 174.636C288.657 174.636 288.361 174.52 288.112 174.286C287.869 174.052 287.747 173.771 287.747 173.443C287.747 173.115 287.869 172.834 288.112 172.6C288.361 172.367 288.657 172.25 289 172.25C289.343 172.25 289.636 172.367 289.88 172.6C290.128 172.834 290.253 173.115 290.253 173.443C290.253 173.771 290.128 174.052 289.88 174.286C289.636 174.52 289.343 174.636 289 174.636ZM293.088 188V176.545H294.789V178.335H294.938C295.176 177.724 295.562 177.249 296.094 176.911C296.626 176.568 297.264 176.396 298.01 176.396C298.766 176.396 299.395 176.568 299.897 176.911C300.404 177.249 300.799 177.724 301.083 178.335H301.202C301.495 177.744 301.935 177.274 302.522 176.926C303.109 176.573 303.812 176.396 304.632 176.396C305.657 176.396 306.494 176.717 307.146 177.358C307.797 177.995 308.122 178.987 308.122 180.334V188H306.362V180.334C306.362 179.489 306.131 178.885 305.669 178.522C305.207 178.159 304.662 177.977 304.036 177.977C303.23 177.977 302.606 178.221 302.164 178.708C301.722 179.19 301.5 179.802 301.5 180.543V188H299.71V180.155C299.71 179.504 299.499 178.979 299.077 178.581C298.654 178.179 298.11 177.977 297.443 177.977C296.986 177.977 296.559 178.099 296.161 178.343C295.768 178.586 295.45 178.924 295.206 179.357C294.968 179.784 294.848 180.279 294.848 180.841V188H293.088ZM314.711 188.268C313.985 188.268 313.326 188.132 312.735 187.858C312.143 187.58 311.673 187.18 311.325 186.658C310.977 186.131 310.803 185.494 310.803 184.749C310.803 184.092 310.933 183.56 311.191 183.153C311.45 182.74 311.795 182.417 312.228 182.183C312.66 181.95 313.138 181.776 313.66 181.661C314.187 181.542 314.716 181.447 315.248 181.378C315.944 181.288 316.508 181.221 316.941 181.176C317.378 181.127 317.696 181.045 317.895 180.93C318.099 180.816 318.201 180.617 318.201 180.334V180.274C318.201 179.538 318 178.967 317.597 178.559C317.199 178.151 316.595 177.947 315.785 177.947C314.945 177.947 314.286 178.131 313.809 178.499C313.331 178.867 312.996 179.26 312.802 179.678L311.131 179.081C311.43 178.385 311.828 177.843 312.325 177.455C312.827 177.062 313.374 176.789 313.965 176.635C314.562 176.476 315.149 176.396 315.725 176.396C316.093 176.396 316.516 176.441 316.993 176.531C317.475 176.615 317.94 176.792 318.388 177.06C318.84 177.328 319.215 177.734 319.514 178.276C319.812 178.817 319.961 179.543 319.961 180.453V188H318.201V186.449H318.112C317.992 186.697 317.793 186.963 317.515 187.247C317.237 187.53 316.866 187.771 316.404 187.97C315.941 188.169 315.377 188.268 314.711 188.268ZM314.979 186.688C315.676 186.688 316.262 186.551 316.739 186.277C317.222 186.004 317.585 185.651 317.828 185.218C318.077 184.786 318.201 184.331 318.201 183.854V182.243C318.127 182.332 317.962 182.414 317.709 182.489C317.46 182.559 317.172 182.621 316.844 182.675C316.521 182.725 316.205 182.77 315.897 182.81C315.593 182.844 315.347 182.874 315.158 182.899C314.701 182.959 314.274 183.056 313.876 183.19C313.483 183.319 313.165 183.516 312.921 183.779C312.683 184.038 312.563 184.391 312.563 184.838C312.563 185.45 312.79 185.912 313.242 186.225C313.699 186.533 314.278 186.688 314.979 186.688ZM323.173 188V176.545H324.874V178.276H324.993C325.202 177.709 325.58 177.249 326.126 176.896C326.673 176.543 327.29 176.366 327.976 176.366C328.105 176.366 328.267 176.369 328.461 176.374C328.654 176.379 328.801 176.386 328.901 176.396V178.186C328.841 178.171 328.704 178.149 328.49 178.119C328.282 178.084 328.06 178.067 327.827 178.067C327.27 178.067 326.773 178.184 326.335 178.417C325.903 178.646 325.56 178.964 325.306 179.372C325.058 179.775 324.933 180.234 324.933 180.751V188H323.173ZM332.469 192.295C332.171 192.295 331.905 192.271 331.671 192.221C331.437 192.176 331.276 192.131 331.186 192.087L331.634 190.536C332.061 190.645 332.439 190.685 332.767 190.655C333.095 190.625 333.386 190.478 333.64 190.215C333.898 189.956 334.134 189.536 334.348 188.955L334.676 188.06L330.441 176.545H332.35L335.512 185.673H335.631L338.793 176.545H340.702L335.84 189.67C335.621 190.262 335.35 190.752 335.027 191.14C334.704 191.532 334.328 191.823 333.901 192.012C333.478 192.201 333.001 192.295 332.469 192.295Z" fill="black"/>
<path d="M108.523 14.0586L102.898 19.6836C102.688 19.8945 102.406 20 102.125 20C101.809 20 101.527 19.8945 101.316 19.6836C100.859 19.2617 100.859 18.5234 101.316 18.1016L105.008 14.375H94.25C93.6172 14.375 93.125 13.8828 93.125 13.25C93.125 12.6523 93.6172 12.125 94.25 12.125H105.008L101.316 8.43361C100.859 8.01171 100.859 7.27341 101.316 6.85161C101.738 6.39451 102.477 6.39451 102.898 6.85161L108.523 12.4766C108.98 12.8984 108.98 13.6367 108.523 14.0586Z" fill="black"/>
<path d="M81.523 99.0586L75.898 104.684C75.688 104.895 75.406 105 75.125 105C74.809 105 74.527 104.895 74.316 104.684C73.859 104.262 73.859 103.523 74.316 103.102L78.008 99.375H67.25C66.6172 99.375 66.125 98.8828 66.125 98.25C66.125 97.6523 66.6172 97.125 67.25 97.125H78.008L74.316 93.4336C73.859 93.0117 73.859 92.2734 74.316 91.8516C74.738 91.3945 75.477 91.3945 75.898 91.8516L81.523 97.4766C81.98 97.8984 81.98 98.6367 81.523 99.0586Z" fill="black"/>
<path d="M122.523 182.059L116.898 187.684C116.688 187.895 116.406 188 116.125 188C115.809 188 115.527 187.895 115.316 187.684C114.859 187.262 114.859 186.523 115.316 186.102L119.008 182.375H108.25C107.617 182.375 107.125 181.883 107.125 181.25C107.125 180.652 107.617 180.125 108.25 180.125H119.008L115.316 176.434C114.859 176.012 114.859 175.273 115.316 174.852C115.738 174.395 116.477 174.395 116.898 174.852L122.523 180.477C122.98 180.898 122.98 181.637 122.523 182.059Z" fill="black"/>
</g>
<defs>
<clipPath id="clip0_375_4970">
<rect width="350" height="193" fill="white"/>
</clipPath>
</defs>
</svg>
