<svg width="400" height="300" viewBox="0 0 400 300" fill="none" xmlns="http://www.w3.org/2000/svg">
<rect width="400" height="300" fill="#F1F2F3"/>
<path d="M102.221 138.819L93.7283 114.958C93.3101 113.899 92.8759 112.642 92.4256 111.187C91.975 109.732 91.5247 108.161 91.0744 106.474C90.6562 108.161 90.222 109.749 89.7717 111.237C89.3211 112.692 88.887 113.965 88.4688 115.057L80.0245 138.819H102.221ZM125.141 165.906H115.104C113.978 165.906 113.062 165.625 112.354 165.063C111.646 164.467 111.115 163.74 110.761 162.88L105.55 148.245H76.6468L71.4355 162.88C71.1782 163.64 70.6796 164.335 69.9397 164.963C69.1998 165.592 68.283 165.906 67.1893 165.906H57.0562L84.512 94.1713H97.7334L125.141 165.906ZM156.634 144.177C153.192 144.343 150.297 144.657 147.949 145.12C145.6 145.55 143.718 146.112 142.303 146.806C140.888 147.501 139.874 148.311 139.263 149.237C138.652 150.163 138.346 151.172 138.346 152.264C138.346 154.413 138.958 155.951 140.18 156.877C141.434 157.803 143.059 158.266 145.053 158.266C147.498 158.266 149.605 157.82 151.374 156.927C153.176 156.001 154.929 154.611 156.634 152.76V144.177ZM129.323 122.101C135.017 116.743 141.869 114.065 149.879 114.065C152.774 114.065 155.363 114.561 157.647 115.553C159.931 116.512 161.861 117.868 163.438 119.621C165.014 121.341 166.204 123.408 167.009 125.822C167.845 128.236 168.263 130.882 168.263 133.759V165.906H162.859C161.733 165.906 160.864 165.74 160.253 165.41C159.642 165.046 159.159 164.335 158.806 163.277L157.744 159.605C156.489 160.763 155.267 161.788 154.077 162.681C152.887 163.541 151.648 164.269 150.361 164.864C149.074 165.459 147.691 165.906 146.211 166.203C144.764 166.534 143.155 166.7 141.386 166.7C139.295 166.7 137.365 166.419 135.596 165.856C133.827 165.261 132.299 164.385 131.012 163.227C129.725 162.069 128.728 160.631 128.02 158.911C127.312 157.191 126.959 155.19 126.959 152.908C126.959 151.618 127.168 150.345 127.586 149.088C128.004 147.799 128.68 146.575 129.613 145.417C130.578 144.26 131.816 143.169 133.328 142.143C134.84 141.118 136.69 140.225 138.877 139.464C141.097 138.704 143.67 138.092 146.597 137.629C149.525 137.133 152.87 136.835 156.634 136.736V133.759C156.634 130.353 155.927 127.839 154.511 126.219C153.096 124.565 151.053 123.738 148.383 123.738C146.453 123.738 144.844 123.97 143.557 124.433C142.303 124.896 141.193 125.425 140.228 126.02C139.263 126.583 138.378 127.095 137.574 127.558C136.802 128.021 135.934 128.253 134.969 128.253C134.132 128.253 133.424 128.038 132.846 127.608C132.266 127.145 131.8 126.616 131.446 126.02L129.323 122.101Z" fill="black"/>
<path d="M73.5341 222.188H68.3929V191.796H58.2058V187.244H83.7211V191.796H73.5341V222.188ZM83.5283 195.809H88.9551L94.2866 210.785C94.5722 211.535 94.826 212.27 95.0483 212.987C95.2703 213.705 95.4608 214.423 95.6195 215.141C95.8099 215.826 95.9527 216.511 96.0479 217.196H96.2384C96.3969 216.348 96.6508 215.353 97 214.211C97.3489 213.036 97.7141 211.878 98.0949 210.736L103.141 195.809H108.568L97.5713 225.761C96.9681 227.457 96.2224 228.91 95.3339 230.117C94.4451 231.357 93.3822 232.303 92.1445 232.955C90.9384 233.608 89.5103 233.934 87.8602 233.934C87.0666 233.934 86.3845 233.885 85.8132 233.787C85.242 233.722 84.75 233.64 84.3375 233.543V229.432C84.6865 229.497 85.0992 229.562 85.5752 229.627C86.0829 229.693 86.6065 229.725 87.1461 229.725C88.1298 229.725 88.9708 229.529 89.6691 229.138C90.3989 228.746 91.002 228.192 91.478 227.474C91.9857 226.756 92.4141 225.94 92.7633 225.027L93.8106 222.188L83.5283 195.809ZM125.34 195.32C128.419 195.32 130.894 196.462 132.766 198.745C134.67 201.029 135.622 204.439 135.622 208.974C135.622 211.943 135.194 214.456 134.337 216.511C133.48 218.567 132.275 220.116 130.719 221.16C129.164 222.172 127.355 222.678 125.293 222.678C123.992 222.678 122.849 222.514 121.865 222.188C120.881 221.829 120.04 221.373 119.342 220.818C118.676 220.231 118.089 219.611 117.581 218.958H117.248C117.343 219.545 117.422 220.247 117.486 221.063C117.549 221.846 117.581 222.547 117.581 223.167V233.934H112.535V195.809H116.629L117.343 199.333H117.581C118.089 198.615 118.692 197.946 119.39 197.326C120.088 196.706 120.929 196.217 121.913 195.858C122.897 195.499 124.039 195.32 125.34 195.32ZM124.15 199.577C122.563 199.577 121.294 199.904 120.342 200.556C119.39 201.176 118.692 202.122 118.247 203.395C117.835 204.635 117.613 206.217 117.581 208.142V208.925C117.581 210.948 117.787 212.677 118.2 214.113C118.612 215.516 119.295 216.593 120.247 217.343C121.231 218.061 122.563 218.42 124.245 218.42C125.673 218.42 126.832 218.028 127.72 217.245C128.641 216.43 129.323 215.304 129.767 213.868C130.212 212.433 130.434 210.769 130.434 208.876C130.434 206.005 129.926 203.737 128.91 202.073C127.895 200.409 126.308 199.577 124.15 199.577ZM164.666 208.974C164.666 211.16 164.381 213.102 163.809 214.798C163.238 216.495 162.429 217.93 161.382 219.105C160.334 220.28 159.065 221.177 157.573 221.797C156.082 222.384 154.4 222.678 152.527 222.678C150.814 222.678 149.227 222.384 147.767 221.797C146.307 221.177 145.038 220.28 143.959 219.105C142.911 217.93 142.086 216.495 141.483 214.798C140.88 213.102 140.579 211.144 140.579 208.925C140.579 206.021 141.055 203.558 142.007 201.535C142.991 199.512 144.387 197.979 146.196 196.935C148.037 195.858 150.195 195.32 152.67 195.32C155.018 195.32 157.081 195.858 158.859 196.935C160.668 197.979 162.08 199.512 163.095 201.535C164.143 203.558 164.666 206.038 164.666 208.974ZM145.768 208.974C145.768 210.932 146.006 212.628 146.482 214.064C146.958 215.467 147.703 216.544 148.719 217.294C149.734 218.045 151.036 218.42 152.623 218.42C154.209 218.42 155.51 218.045 156.526 217.294C157.541 216.544 158.287 215.467 158.763 214.064C159.239 212.628 159.477 210.932 159.477 208.974C159.477 206.951 159.223 205.255 158.716 203.884C158.24 202.514 157.494 201.47 156.478 200.752C155.494 200.001 154.193 199.626 152.575 199.626C150.195 199.626 148.465 200.442 147.386 202.073C146.307 203.705 145.768 206.005 145.768 208.974ZM179.917 195.32C181.567 195.32 183.059 195.646 184.392 196.298C185.725 196.951 186.851 197.946 187.772 199.284H188.01L188.581 195.809H192.675V222.531C192.675 225.01 192.246 227.099 191.39 228.795C190.533 230.492 189.215 231.764 187.438 232.613C185.693 233.494 183.487 233.934 180.822 233.934C178.981 233.934 177.283 233.804 175.728 233.543C174.173 233.281 172.745 232.874 171.444 232.319V227.768C172.364 228.224 173.332 228.6 174.348 228.893C175.363 229.219 176.442 229.448 177.585 229.578C178.727 229.742 179.901 229.823 181.107 229.823C183.202 229.823 184.82 229.203 185.963 227.963C187.105 226.756 187.676 225.043 187.676 222.824V221.944C187.676 221.519 187.692 220.965 187.724 220.28C187.756 219.562 187.787 219.04 187.819 218.713H187.629C186.74 220.084 185.645 221.095 184.344 221.748C183.075 222.368 181.599 222.678 179.917 222.678C176.68 222.678 174.141 221.487 172.301 219.105C170.492 216.69 169.587 213.346 169.587 209.072C169.587 206.201 170 203.754 170.825 201.731C171.65 199.675 172.824 198.093 174.348 196.984C175.902 195.874 177.759 195.32 179.917 195.32ZM180.964 199.626C179.631 199.626 178.505 200.001 177.585 200.752C176.664 201.47 175.966 202.53 175.49 203.933C175.014 205.336 174.776 207.065 174.776 209.121C174.776 212.188 175.3 214.521 176.347 216.12C177.426 217.718 178.997 218.518 181.06 218.518C182.265 218.518 183.281 218.354 184.106 218.028C184.963 217.702 185.661 217.196 186.201 216.511C186.772 215.826 187.184 214.961 187.438 213.917C187.724 212.84 187.867 211.552 187.867 210.051V209.072C187.867 206.821 187.613 205.01 187.105 203.64C186.629 202.237 185.883 201.225 184.868 200.605C183.852 199.953 182.551 199.626 180.964 199.626ZM213.245 195.32C213.689 195.32 214.181 195.352 214.721 195.417C215.26 195.45 215.705 195.499 216.053 195.564L215.53 200.409C215.181 200.312 214.768 200.23 214.292 200.165C213.816 200.099 213.372 200.067 212.959 200.067C212.007 200.067 211.087 200.263 210.198 200.654C209.341 201.013 208.564 201.551 207.866 202.269C207.168 202.954 206.612 203.803 206.2 204.814C205.819 205.825 205.628 206.984 205.628 208.289V222.188H200.582V195.809H204.581L205.248 200.507H205.438C205.978 199.561 206.628 198.696 207.39 197.913C208.151 197.13 209.024 196.511 210.008 196.054C210.992 195.564 212.071 195.32 213.245 195.32ZM229.824 195.32C233.061 195.32 235.473 196.054 237.06 197.522C238.646 198.958 239.44 201.225 239.44 204.325V222.188H235.87L234.87 218.518H234.679C233.949 219.464 233.188 220.247 232.395 220.867C231.633 221.487 230.744 221.944 229.729 222.237C228.745 222.531 227.539 222.678 226.111 222.678C224.588 222.678 223.207 222.4 221.969 221.846C220.763 221.258 219.811 220.377 219.113 219.203C218.415 217.996 218.066 216.495 218.066 214.7C218.066 212.025 219.05 209.985 221.017 208.583C223.017 207.18 226.047 206.413 230.11 206.282L234.489 206.136V204.667C234.489 202.71 234.061 201.339 233.204 200.556C232.347 199.773 231.141 199.382 229.586 199.382C228.253 199.382 226.984 199.577 225.778 199.969C224.572 200.36 223.429 200.833 222.35 201.388L220.732 197.62C221.938 196.967 223.318 196.429 224.873 196.005C226.46 195.548 228.11 195.32 229.824 195.32ZM231.014 209.61C228.094 209.741 226.063 210.247 224.921 211.128C223.81 211.976 223.255 213.183 223.255 214.749C223.255 216.12 223.651 217.115 224.445 217.735C225.27 218.354 226.301 218.664 227.539 218.664C229.538 218.664 231.188 218.094 232.49 216.952C233.791 215.809 234.441 214.097 234.441 211.813V209.512L231.014 209.61ZM260.015 195.32C263.093 195.32 265.569 196.462 267.441 198.745C269.345 201.029 270.297 204.439 270.297 208.974C270.297 211.943 269.869 214.456 269.012 216.511C268.155 218.567 266.949 220.116 265.394 221.16C263.839 222.172 262.03 222.678 259.967 222.678C258.666 222.678 257.524 222.514 256.54 222.188C255.556 221.829 254.715 221.373 254.017 220.818C253.35 220.231 252.763 219.611 252.256 218.958H251.922C252.018 219.545 252.097 220.247 252.16 221.063C252.224 221.846 252.256 222.547 252.256 223.167V233.934H247.21V195.809H251.304L252.018 199.333H252.256C252.763 198.615 253.366 197.946 254.064 197.326C254.763 196.706 255.604 196.217 256.587 195.858C257.571 195.499 258.714 195.32 260.015 195.32ZM258.825 199.577C257.238 199.577 255.969 199.904 255.017 200.556C254.065 201.176 253.366 202.122 252.922 203.395C252.509 204.635 252.287 206.217 252.256 208.142V208.925C252.256 210.948 252.462 212.677 252.874 214.113C253.287 215.516 253.969 216.593 254.921 217.343C255.905 218.061 257.238 218.42 258.92 218.42C260.348 218.42 261.506 218.028 262.395 217.245C263.315 216.43 263.998 215.304 264.442 213.868C264.886 212.433 265.108 210.769 265.108 208.876C265.108 206.005 264.601 203.737 263.585 202.073C262.57 200.409 260.983 199.577 258.825 199.577ZM281.775 194.928C281.775 195.744 281.743 196.559 281.68 197.375C281.616 198.191 281.553 198.86 281.489 199.382H281.823C282.362 198.468 283.029 197.718 283.822 197.13C284.647 196.543 285.552 196.103 286.535 195.809C287.551 195.515 288.582 195.368 289.63 195.368C291.661 195.368 293.359 195.711 294.723 196.396C296.121 197.049 297.168 198.093 297.865 199.528C298.596 200.931 298.96 202.759 298.96 205.01V222.188H293.962V205.744C293.962 203.688 293.533 202.155 292.676 201.144C291.851 200.099 290.518 199.577 288.678 199.577C286.932 199.577 285.552 199.936 284.536 200.654C283.552 201.372 282.838 202.432 282.394 203.835C281.981 205.206 281.775 206.902 281.775 208.925V222.188H276.729V184.993H281.775V194.928ZM311.761 195.809V222.188H306.715V195.809H311.761ZM309.285 185.776C310.047 185.776 310.713 186.004 311.285 186.461C311.856 186.918 312.141 187.685 312.141 188.761C312.141 189.806 311.856 190.572 311.285 191.062C310.713 191.519 310.047 191.747 309.285 191.747C308.459 191.747 307.762 191.519 307.191 191.062C306.65 190.572 306.381 189.806 306.381 188.761C306.381 187.685 306.65 186.918 307.191 186.461C307.762 186.004 308.459 185.776 309.285 185.776ZM329.776 195.32C332.028 195.32 333.965 195.809 335.584 196.788C337.202 197.734 338.44 199.104 339.297 200.899C340.185 202.693 340.63 204.814 340.63 207.261V210.1H323.397C323.459 212.808 324.142 214.88 325.444 216.315C326.777 217.751 328.634 218.469 331.014 218.469C332.663 218.469 334.122 218.322 335.393 218.028C336.693 217.702 338.026 217.229 339.392 216.609V220.916C338.121 221.503 336.821 221.944 335.489 222.237C334.187 222.531 332.632 222.678 330.823 222.678C328.348 222.678 326.158 222.172 324.254 221.16C322.35 220.149 320.858 218.648 319.779 216.658C318.732 214.635 318.209 212.155 318.209 209.219C318.209 206.25 318.685 203.737 319.637 201.682C320.62 199.626 321.969 198.06 323.683 196.984C325.428 195.874 327.458 195.32 329.776 195.32ZM329.776 199.333C327.967 199.333 326.506 199.936 325.397 201.144C324.316 202.351 323.683 204.064 323.492 206.282H335.584C335.584 204.912 335.377 203.705 334.965 202.661C334.551 201.617 333.918 200.801 333.061 200.214C332.204 199.626 331.109 199.333 329.776 199.333Z" fill="black"/>
<path d="M343.207 47.2235H57.587" stroke="#6584A6"/>
<path d="M343.207 105.953H57.587" stroke="#6584A6"/>
<path d="M343.207 165.906H57.587" stroke="#6584A6" stroke-width="2"/>
<path d="M343.207 223.412H57.587" stroke="#6584A6"/>
</svg>
