<svg version="1.1" id="Layer_1" xmlns="http://www.w3.org/2000/svg" xmlns:xlink="http://www.w3.org/1999/xlink" x="0px" y="0px" width="687"
	 viewBox="0 0 686.5 189" style="enable-background:new 0 0 686.5 189;" xml:space="preserve">
<style type="text/css">
	.st0{clip-path:url(#SVGID_00000124145325279008580900000010440935522398794673_);}
	.st1{fill:#26374A;}
	.st2{fill:#425A76;}
	.st3{fill:none;stroke:#425A76;}
	.st4{fill:none;stroke:#F7B452;}
	.st5{fill:#FFFFFF;stroke:#F5B942;}
	.st6{fill:#1F7C89;}
	.st7{fill:#F7B452;}
</style>
<g>
	<defs>
		<rect id="SVGID_1_" x="182" y="93" width="18" height="24"/>
	</defs>
	<clipPath id="SVGID_00000014599979351807798290000009240907547134135173_">
		<use xlink:href="#SVGID_1_"  style="overflow:visible;"/>
	</clipPath>
	<g style="clip-path:url(#SVGID_00000014599979351807798290000009240907547134135173_);">
		<path class="st1" d="M191,114l-7.8-13.5h15.6L191,114z"/>
	</g>
</g>
<path class="st2" d="M219.9,113V98.7h1.8v12.7h6.2v1.6H219.9z M234.3,102.1c0.9,0,1.7,0.2,2.4,0.6c0.7,0.4,1.2,1,1.5,1.7
	c0.4,0.7,0.5,1.6,0.5,2.5v1.1h-7.3c0,1.2,0.3,2.1,0.9,2.8c0.6,0.6,1.4,0.9,2.5,0.9c0.7,0,1.3-0.1,1.8-0.2c0.5-0.1,1.1-0.3,1.6-0.6
	v1.5c-0.5,0.2-1.1,0.4-1.6,0.5c-0.5,0.1-1.2,0.2-1.9,0.2c-1,0-1.9-0.2-2.7-0.6c-0.8-0.4-1.4-1-1.8-1.8c-0.4-0.8-0.6-1.8-0.6-3
	c0-1.2,0.2-2.2,0.6-3c0.4-0.8,1-1.5,1.7-1.9C232.5,102.3,233.4,102.1,234.3,102.1z M234.3,103.5c-0.8,0-1.5,0.3-2,0.8
	c-0.5,0.5-0.8,1.3-0.9,2.2h5.5c0-0.9-0.2-1.6-0.6-2.2C235.9,103.8,235.2,103.5,234.3,103.5z M245.5,102.1c1.3,0,2.3,0.3,2.9,0.9
	c0.6,0.6,0.9,1.5,0.9,2.7v7.3h-1.3l-0.3-1.5h-0.1c-0.5,0.6-1,1-1.5,1.3c-0.5,0.3-1.2,0.4-2.1,0.4c-1,0-1.8-0.3-2.4-0.8
	c-0.6-0.5-1-1.3-1-2.4c0-1.1,0.4-1.9,1.3-2.5c0.8-0.6,2.1-0.9,3.9-1l1.8-0.1v-0.6c0-0.9-0.2-1.5-0.6-1.9c-0.4-0.3-0.9-0.5-1.6-0.5
	c-0.6,0-1.1,0.1-1.6,0.3c-0.5,0.2-1,0.3-1.4,0.6l-0.5-1.3c0.5-0.3,1-0.5,1.7-0.6C244.2,102.2,244.8,102.1,245.5,102.1z M246.1,107.8
	c-1.3,0.1-2.3,0.3-2.8,0.6c-0.5,0.4-0.8,0.9-0.8,1.6c0,0.6,0.2,1,0.5,1.3c0.4,0.3,0.8,0.4,1.4,0.4c0.9,0,1.7-0.2,2.3-0.7
	c0.6-0.5,0.9-1.3,0.9-2.3v-1L246.1,107.8z M257.7,102.1c0.2,0,0.4,0,0.6,0c0.2,0,0.4,0,0.6,0.1l-0.2,1.6c-0.2,0-0.4-0.1-0.6-0.1
	c-0.2,0-0.4,0-0.6,0c-0.5,0-1.1,0.2-1.5,0.5c-0.5,0.3-0.9,0.7-1.2,1.3c-0.3,0.5-0.4,1.2-0.4,1.9v5.7h-1.8v-10.7h1.4l0.2,2h0.1
	c0.3-0.6,0.8-1.1,1.3-1.5C256.3,102.3,256.9,102.1,257.7,102.1z M266.1,102.1c1.3,0,2.2,0.3,2.9,0.9c0.7,0.6,1,1.6,1,3v7h-1.7v-6.9
	c0-1.7-0.8-2.6-2.4-2.6c-1.2,0-2,0.3-2.5,1c-0.5,0.7-0.7,1.6-0.7,2.9v5.6H261v-10.7h1.4l0.3,1.5h0.1c0.3-0.6,0.8-1,1.4-1.2
	C264.8,102.2,265.4,102.1,266.1,102.1z M290.3,102.1c1.2,0,2.1,0.3,2.7,0.9c0.6,0.6,0.9,1.6,0.9,3v7h-1.7v-6.9
	c0-1.7-0.7-2.5-2.2-2.5c-1,0-1.8,0.3-2.2,0.9c-0.4,0.6-0.7,1.5-0.7,2.6v5.9h-1.7v-6.9c0-1.7-0.7-2.5-2.2-2.5c-1.1,0-1.8,0.3-2.2,1
	c-0.4,0.7-0.6,1.6-0.6,2.9v5.6h-1.8v-10.7h1.4l0.3,1.5h0.1c0.3-0.6,0.8-1,1.3-1.2c0.6-0.3,1.2-0.4,1.8-0.4c1.7,0,2.8,0.6,3.3,1.8
	h0.1c0.4-0.6,0.8-1.1,1.5-1.4C288.9,102.2,289.6,102.1,290.3,102.1z M306.5,107.6c0,1.8-0.5,3.1-1.4,4.1c-0.9,1-2.1,1.5-3.6,1.5
	c-0.9,0-1.8-0.2-2.5-0.6c-0.7-0.4-1.3-1.1-1.7-1.9c-0.4-0.8-0.6-1.9-0.6-3c0-1.8,0.4-3.1,1.3-4.1c0.9-1,2.1-1.4,3.6-1.4
	c1,0,1.8,0.2,2.6,0.7c0.7,0.4,1.3,1.1,1.7,1.9C306.3,105.4,306.5,106.4,306.5,107.6z M298.4,107.6c0,1.3,0.2,2.3,0.7,3
	c0.5,0.7,1.3,1.1,2.4,1.1c1.1,0,1.9-0.4,2.4-1.1c0.5-0.7,0.8-1.8,0.8-3c0-1.3-0.3-2.3-0.8-3s-1.3-1.1-2.4-1.1
	c-1.1,0-1.9,0.4-2.4,1.1S298.4,106.4,298.4,107.6z M314.3,102.1c0.2,0,0.4,0,0.6,0c0.2,0,0.4,0,0.6,0.1l-0.2,1.6
	c-0.2,0-0.4-0.1-0.6-0.1c-0.2,0-0.4,0-0.6,0c-0.5,0-1.1,0.2-1.5,0.5c-0.5,0.3-0.9,0.7-1.2,1.3c-0.3,0.5-0.4,1.2-0.4,1.9v5.7h-1.8
	v-10.7h1.4l0.2,2h0.1c0.3-0.6,0.8-1.1,1.3-1.5C312.9,102.3,313.6,102.1,314.3,102.1z M321.3,102.1c0.9,0,1.7,0.2,2.4,0.6
	c0.7,0.4,1.2,1,1.5,1.7c0.4,0.7,0.5,1.6,0.5,2.5v1.1h-7.3c0,1.2,0.3,2.1,0.9,2.8c0.6,0.6,1.4,0.9,2.5,0.9c0.7,0,1.3-0.1,1.8-0.2
	c0.5-0.1,1.1-0.3,1.6-0.6v1.5c-0.5,0.2-1.1,0.4-1.6,0.5c-0.5,0.1-1.2,0.2-1.9,0.2c-1,0-1.9-0.2-2.7-0.6c-0.8-0.4-1.4-1-1.8-1.8
	c-0.4-0.8-0.6-1.8-0.6-3c0-1.2,0.2-2.2,0.6-3c0.4-0.8,1-1.5,1.7-1.9C319.5,102.3,320.4,102.1,321.3,102.1z M321.3,103.5
	c-0.8,0-1.5,0.3-2,0.8c-0.5,0.5-0.8,1.3-0.9,2.2h5.5c0-0.9-0.2-1.6-0.6-2.2C322.8,103.8,322.2,103.5,321.3,103.5z M337.7,102.1
	c1.3,0,2.3,0.3,2.9,0.9s0.9,1.5,0.9,2.7v7.3h-1.3l-0.3-1.5h-0.1c-0.5,0.6-1,1-1.5,1.3c-0.5,0.3-1.2,0.4-2.1,0.4
	c-1,0-1.8-0.3-2.4-0.8c-0.6-0.5-1-1.3-1-2.4c0-1.1,0.4-1.9,1.3-2.5c0.8-0.6,2.1-0.9,3.9-1l1.8-0.1v-0.6c0-0.9-0.2-1.5-0.6-1.9
	c-0.4-0.3-0.9-0.5-1.6-0.5c-0.6,0-1.1,0.1-1.6,0.3c-0.5,0.2-1,0.3-1.4,0.6l-0.5-1.3c0.5-0.3,1-0.5,1.7-0.6
	C336.4,102.2,337,102.1,337.7,102.1z M338.2,107.8c-1.3,0.1-2.3,0.3-2.8,0.6c-0.5,0.4-0.8,0.9-0.8,1.6c0,0.6,0.2,1,0.5,1.3
	c0.4,0.3,0.8,0.4,1.4,0.4c0.9,0,1.7-0.2,2.3-0.7c0.6-0.5,0.9-1.3,0.9-2.3v-1L338.2,107.8z M346.6,101.5c0,0.5,0,0.9,0,1.3
	c0,0.4,0,0.7-0.1,0.9h0.1c0.3-0.5,0.7-0.8,1.3-1.1c0.5-0.3,1.2-0.5,2.1-0.5c1.3,0,2.4,0.5,3.2,1.4c0.8,0.9,1.2,2.3,1.2,4.1
	c0,1.8-0.4,3.2-1.2,4.2c-0.8,0.9-1.9,1.4-3.2,1.4c-0.8,0-1.5-0.2-2.1-0.5c-0.5-0.3-1-0.7-1.3-1.1h-0.1l-0.4,1.4h-1.3V97.8h1.8V101.5
	z M349.7,103.6c-1.1,0-1.9,0.3-2.4,1s-0.7,1.7-0.7,3v0.1c0,1.3,0.2,2.3,0.6,3c0.4,0.7,1.2,1,2.4,1c1,0,1.7-0.4,2.1-1.1
	c0.5-0.7,0.7-1.7,0.7-3.1C352.6,104.9,351.6,103.6,349.7,103.6z M366.5,107.6c0,1.8-0.5,3.1-1.4,4.1c-0.9,1-2.1,1.5-3.6,1.5
	c-0.9,0-1.8-0.2-2.5-0.6c-0.7-0.4-1.3-1.1-1.7-1.9c-0.4-0.8-0.6-1.9-0.6-3c0-1.8,0.4-3.1,1.3-4.1c0.9-1,2.1-1.4,3.6-1.4
	c1,0,1.8,0.2,2.6,0.7c0.7,0.4,1.3,1.1,1.7,1.9C366.3,105.4,366.5,106.4,366.5,107.6z M358.4,107.6c0,1.3,0.2,2.3,0.7,3
	c0.5,0.7,1.3,1.1,2.4,1.1c1.1,0,1.9-0.4,2.4-1.1c0.5-0.7,0.8-1.8,0.8-3c0-1.3-0.3-2.3-0.8-3c-0.5-0.7-1.3-1.1-2.4-1.1
	c-1.1,0-1.9,0.4-2.4,1.1C358.6,105.4,358.4,106.4,358.4,107.6z M378.2,102.3V113h-1.4l-0.3-1.4h-0.1c-0.3,0.6-0.8,1-1.4,1.2
	c-0.6,0.3-1.3,0.4-2,0.4c-1.3,0-2.3-0.3-2.9-0.9c-0.7-0.6-1-1.6-1-3v-7h1.8v6.9c0,1.7,0.8,2.6,2.4,2.6c1.2,0,2-0.3,2.5-1
	c0.5-0.7,0.7-1.6,0.7-2.9v-5.6H378.2z M385.2,111.8c0.3,0,0.5,0,0.8-0.1c0.3-0.1,0.5-0.1,0.7-0.2v1.3c-0.2,0.1-0.5,0.2-0.8,0.2
	c-0.3,0.1-0.7,0.1-1,0.1c-0.6,0-1.1-0.1-1.6-0.3c-0.5-0.2-0.8-0.5-1.1-1c-0.3-0.5-0.4-1.2-0.4-2v-6.2h-1.5v-0.8l1.5-0.7l0.7-2.3h1
	v2.5h3.1v1.4h-3.1v6.2c0,0.7,0.2,1.1,0.5,1.5C384.3,111.6,384.7,111.8,385.2,111.8z M397.7,111.8c0.3,0,0.5,0,0.8-0.1
	c0.3-0.1,0.5-0.1,0.7-0.2v1.3c-0.2,0.1-0.5,0.2-0.8,0.2c-0.3,0.1-0.7,0.1-1,0.1c-0.6,0-1.1-0.1-1.6-0.3c-0.5-0.2-0.8-0.5-1.1-1
	c-0.3-0.5-0.4-1.2-0.4-2v-6.2h-1.5v-0.8l1.5-0.7l0.7-2.3h1v2.5h3.1v1.4H396v6.2c0,0.7,0.2,1.1,0.5,1.5
	C396.8,111.6,397.2,111.8,397.7,111.8z M403.1,102.3c0,0.5,0,1-0.1,1.5h0.1c0.3-0.5,0.8-1,1.4-1.2c0.6-0.3,1.2-0.4,1.9-0.4
	c1.3,0,2.3,0.3,2.9,0.9c0.7,0.6,1,1.6,1,3v7h-1.7v-6.9c0-1.7-0.8-2.6-2.4-2.6c-1.2,0-2,0.3-2.5,1c-0.4,0.7-0.7,1.6-0.7,2.9v5.5h-1.8
	V97.8h1.8V102.3z M414.6,98.3c0.3,0,0.5,0.1,0.7,0.3c0.2,0.2,0.3,0.5,0.3,0.8c0,0.4-0.1,0.7-0.3,0.8c-0.2,0.2-0.4,0.3-0.7,0.3
	c-0.3,0-0.5-0.1-0.7-0.3c-0.2-0.2-0.3-0.5-0.3-0.8c0-0.4,0.1-0.7,0.3-0.8C414,98.4,414.3,98.3,414.6,98.3z M415.4,102.3V113h-1.8
	v-10.7H415.4z M425.8,110c0,1-0.4,1.8-1.2,2.4c-0.8,0.5-1.8,0.8-3.1,0.8c-0.7,0-1.4-0.1-1.9-0.2c-0.5-0.1-1-0.3-1.4-0.5v-1.6
	c0.4,0.2,0.9,0.4,1.5,0.6c0.6,0.2,1.2,0.3,1.9,0.3c0.9,0,1.5-0.1,1.9-0.4c0.4-0.3,0.6-0.7,0.6-1.2c0-0.3-0.1-0.5-0.2-0.7
	c-0.1-0.2-0.4-0.4-0.8-0.6c-0.4-0.2-0.9-0.5-1.6-0.7c-0.7-0.3-1.3-0.5-1.8-0.8s-0.9-0.6-1.1-1c-0.3-0.4-0.4-0.9-0.4-1.4
	c0-0.9,0.4-1.6,1.1-2.1c0.7-0.5,1.7-0.7,2.9-0.7c0.7,0,1.3,0.1,1.8,0.2c0.6,0.1,1.1,0.3,1.6,0.5l-0.6,1.4c-0.5-0.2-0.9-0.3-1.4-0.5
	c-0.5-0.1-1-0.2-1.5-0.2c-0.7,0-1.3,0.1-1.7,0.4c-0.4,0.2-0.6,0.5-0.6,0.9c0,0.3,0.1,0.5,0.3,0.8c0.2,0.2,0.5,0.4,0.9,0.6
	c0.4,0.2,1,0.4,1.6,0.7c0.7,0.3,1.3,0.5,1.7,0.8c0.5,0.3,0.8,0.6,1.1,1C425.7,109,425.8,109.5,425.8,110z M437.2,111.8
	c0.3,0,0.5,0,0.8-0.1c0.3-0.1,0.5-0.1,0.7-0.2v1.3c-0.2,0.1-0.5,0.2-0.8,0.2c-0.3,0.1-0.7,0.1-1,0.1c-0.6,0-1.1-0.1-1.6-0.3
	c-0.5-0.2-0.8-0.5-1.1-1c-0.3-0.5-0.4-1.2-0.4-2v-6.2h-1.5v-0.8l1.5-0.7l0.7-2.3h1v2.5h3.1v1.4h-3.1v6.2c0,0.7,0.2,1.1,0.5,1.5
	C436.3,111.6,436.7,111.8,437.2,111.8z M450.1,107.6c0,1.8-0.5,3.1-1.4,4.1c-0.9,1-2.1,1.5-3.6,1.5c-0.9,0-1.8-0.2-2.5-0.6
	c-0.7-0.4-1.3-1.1-1.7-1.9c-0.4-0.8-0.6-1.9-0.6-3c0-1.8,0.4-3.1,1.3-4.1c0.9-1,2.1-1.4,3.6-1.4c1,0,1.8,0.2,2.6,0.7
	c0.7,0.4,1.3,1.1,1.7,1.9C449.9,105.4,450.1,106.4,450.1,107.6z M442,107.6c0,1.3,0.2,2.3,0.7,3c0.5,0.7,1.3,1.1,2.4,1.1
	c1.1,0,1.9-0.4,2.4-1.1c0.5-0.7,0.8-1.8,0.8-3c0-1.3-0.3-2.3-0.8-3c-0.5-0.7-1.3-1.1-2.4-1.1c-1.1,0-1.9,0.4-2.4,1.1
	C442.3,105.4,442,106.4,442,107.6z M458,102.1c1.3,0,2.4,0.5,3.2,1.4c0.8,0.9,1.2,2.3,1.2,4.2c0,1.8-0.4,3.2-1.2,4.2
	c-0.8,0.9-1.9,1.4-3.2,1.4c-0.8,0-1.5-0.2-2.1-0.5c-0.5-0.3-1-0.7-1.3-1.1h-0.1c0,0.2,0.1,0.5,0.1,0.9c0,0.3,0,0.6,0,0.9v4.4h-1.8
	v-15.5h1.4l0.2,1.5h0.1c0.3-0.5,0.7-0.9,1.3-1.2C456.5,102.2,457.2,102.1,458,102.1z M457.7,103.6c-1.1,0-1.9,0.3-2.3,0.9
	c-0.4,0.6-0.7,1.5-0.7,2.8v0.3c0,1.3,0.2,2.3,0.6,3.1c0.4,0.7,1.2,1.1,2.4,1.1c0.7,0,1.2-0.2,1.6-0.5c0.4-0.4,0.7-0.8,0.9-1.5
	c0.2-0.6,0.3-1.3,0.3-2.1c0-1.2-0.2-2.2-0.7-2.9C459.4,103.9,458.7,103.6,457.7,103.6z M466.1,98.3c0.3,0,0.5,0.1,0.7,0.3
	c0.2,0.2,0.3,0.5,0.3,0.8c0,0.4-0.1,0.7-0.3,0.8c-0.2,0.2-0.4,0.3-0.7,0.3c-0.3,0-0.5-0.1-0.7-0.3c-0.2-0.2-0.3-0.5-0.3-0.8
	c0-0.4,0.1-0.7,0.3-0.8C465.6,98.4,465.8,98.3,466.1,98.3z M467,102.3V113h-1.8v-10.7H467z M474.7,113.2c-0.9,0-1.8-0.2-2.5-0.6
	c-0.7-0.4-1.3-1-1.7-1.8c-0.4-0.8-0.6-1.9-0.6-3.1c0-1.3,0.2-2.4,0.7-3.2c0.4-0.8,1-1.4,1.8-1.8c0.8-0.4,1.6-0.6,2.6-0.6
	c0.5,0,1.1,0.1,1.6,0.2c0.5,0.1,0.9,0.2,1.2,0.4l-0.5,1.5c-0.3-0.1-0.7-0.2-1.1-0.3c-0.4-0.1-0.8-0.2-1.2-0.2
	c-2.1,0-3.2,1.4-3.2,4.1c0,1.3,0.3,2.3,0.8,3c0.5,0.7,1.3,1,2.3,1c0.6,0,1.1-0.1,1.5-0.2c0.5-0.1,0.9-0.3,1.2-0.4v1.6
	c-0.4,0.2-0.8,0.3-1.2,0.4C475.8,113.1,475.3,113.2,474.7,113.2z"/>
<line class="st3" x1="218" y1="119.5" x2="479" y2="119.5"/>
<path d="M228.9,165l-1.7-4.4h-5.7l-1.7,4.4H218l5.6-14.3h1.6l5.6,14.3H228.9z M225,154.7c0-0.1-0.1-0.3-0.2-0.6s-0.2-0.6-0.3-0.9
	c-0.1-0.3-0.1-0.5-0.2-0.7c-0.1,0.4-0.2,0.8-0.3,1.2c-0.1,0.4-0.2,0.7-0.3,0.9l-1.6,4.3h4.5L225,154.7z M236.3,165.2
	c-1.3,0-2.4-0.5-3.2-1.4c-0.8-0.9-1.2-2.3-1.2-4.2s0.4-3.2,1.2-4.2c0.8-0.9,1.9-1.4,3.2-1.4c0.8,0,1.5,0.2,2,0.5
	c0.5,0.3,1,0.7,1.3,1.1h0.1c0-0.2,0-0.4-0.1-0.8c0-0.3,0-0.6,0-0.8v-4.3h1.8V165H240l-0.3-1.4h-0.1c-0.3,0.5-0.7,0.8-1.3,1.2
	C237.8,165,237.1,165.2,236.3,165.2z M236.6,163.7c1.1,0,1.9-0.3,2.4-0.9c0.5-0.6,0.7-1.6,0.7-2.8v-0.3c0-1.3-0.2-2.4-0.7-3.1
	c-0.4-0.7-1.3-1.1-2.4-1.1c-0.9,0-1.7,0.4-2.1,1.1c-0.5,0.7-0.7,1.8-0.7,3c0,1.3,0.2,2.3,0.7,3C234.9,163.4,235.6,163.7,236.6,163.7
	z M248.6,165.2c-1.3,0-2.4-0.5-3.2-1.4c-0.8-0.9-1.2-2.3-1.2-4.2s0.4-3.2,1.2-4.2c0.8-0.9,1.9-1.4,3.2-1.4c0.8,0,1.5,0.2,2,0.5
	c0.5,0.3,1,0.7,1.3,1.1h0.1c0-0.2,0-0.4-0.1-0.8c0-0.3,0-0.6,0-0.8v-4.3h1.8V165h-1.4l-0.3-1.4h-0.1c-0.3,0.5-0.7,0.8-1.3,1.2
	C250.1,165,249.4,165.2,248.6,165.2z M248.9,163.7c1.1,0,1.9-0.3,2.4-0.9c0.5-0.6,0.7-1.6,0.7-2.8v-0.3c0-1.3-0.2-2.4-0.7-3.1
	c-0.4-0.7-1.3-1.1-2.4-1.1c-0.9,0-1.7,0.4-2.1,1.1c-0.5,0.7-0.7,1.8-0.7,3c0,1.3,0.2,2.3,0.7,3C247.2,163.4,247.9,163.7,248.9,163.7
	z M258,150.3c0.3,0,0.5,0.1,0.7,0.3c0.2,0.2,0.3,0.5,0.3,0.8c0,0.4-0.1,0.7-0.3,0.8c-0.2,0.2-0.4,0.3-0.7,0.3
	c-0.3,0-0.5-0.1-0.7-0.3c-0.2-0.2-0.3-0.5-0.3-0.8c0-0.4,0.1-0.7,0.3-0.8C257.4,150.4,257.7,150.3,258,150.3z M258.8,154.3V165h-1.8
	v-10.7H258.8z M265.8,163.8c0.3,0,0.5,0,0.8-0.1c0.3-0.1,0.5-0.1,0.7-0.2v1.3c-0.2,0.1-0.5,0.2-0.8,0.2c-0.3,0.1-0.7,0.1-1,0.1
	c-0.6,0-1.1-0.1-1.6-0.3c-0.5-0.2-0.8-0.5-1.1-1c-0.3-0.5-0.4-1.2-0.4-2v-6.2h-1.5v-0.8l1.5-0.7l0.7-2.3h1v2.5h3.1v1.4h-3.1v6.2
	c0,0.7,0.2,1.1,0.5,1.5C264.9,163.6,265.3,163.8,265.8,163.8z M270.4,150.3c0.3,0,0.5,0.1,0.7,0.3c0.2,0.2,0.3,0.5,0.3,0.8
	c0,0.4-0.1,0.7-0.3,0.8c-0.2,0.2-0.4,0.3-0.7,0.3c-0.3,0-0.5-0.1-0.7-0.3c-0.2-0.2-0.3-0.5-0.3-0.8c0-0.4,0.1-0.7,0.3-0.8
	C269.8,150.4,270.1,150.3,270.4,150.3z M271.2,154.3V165h-1.8v-10.7H271.2z M283.9,159.6c0,1.8-0.5,3.1-1.4,4.1
	c-0.9,1-2.1,1.5-3.6,1.5c-0.9,0-1.8-0.2-2.5-0.6c-0.7-0.4-1.3-1.1-1.7-1.9c-0.4-0.8-0.6-1.9-0.6-3c0-1.8,0.4-3.1,1.3-4.1
	c0.9-1,2.1-1.4,3.6-1.4c1,0,1.8,0.2,2.6,0.7c0.7,0.4,1.3,1.1,1.7,1.9C283.7,157.4,283.9,158.4,283.9,159.6z M275.8,159.6
	c0,1.3,0.2,2.3,0.7,3c0.5,0.7,1.3,1.1,2.4,1.1c1.1,0,1.9-0.4,2.4-1.1c0.5-0.7,0.8-1.8,0.8-3s-0.3-2.3-0.8-3s-1.3-1.1-2.4-1.1
	c-1.1,0-1.9,0.4-2.4,1.1S275.8,158.4,275.8,159.6z M291.9,154.1c1.3,0,2.2,0.3,2.9,0.9c0.7,0.6,1,1.6,1,3v7H294v-6.9
	c0-1.7-0.8-2.6-2.4-2.6c-1.2,0-2,0.3-2.5,1c-0.5,0.7-0.7,1.6-0.7,2.9v5.6h-1.8v-10.7h1.4l0.3,1.5h0.1c0.3-0.6,0.8-1,1.4-1.2
	C290.6,154.2,291.2,154.1,291.9,154.1z M303.2,154.1c1.3,0,2.3,0.3,2.9,0.9c0.6,0.6,0.9,1.5,0.9,2.7v7.3h-1.3l-0.3-1.5h-0.1
	c-0.5,0.6-1,1-1.5,1.3c-0.5,0.3-1.2,0.4-2.1,0.4c-1,0-1.8-0.3-2.4-0.8c-0.6-0.5-1-1.3-1-2.4c0-1.1,0.4-1.9,1.3-2.5
	c0.8-0.6,2.1-0.9,3.9-1l1.8-0.1v-0.6c0-0.9-0.2-1.5-0.6-1.9c-0.4-0.3-0.9-0.5-1.6-0.5c-0.6,0-1.1,0.1-1.6,0.3
	c-0.5,0.2-1,0.3-1.4,0.6l-0.5-1.3c0.5-0.3,1-0.5,1.7-0.6C301.8,154.2,302.5,154.1,303.2,154.1z M303.7,159.8
	c-1.3,0.1-2.3,0.3-2.8,0.6c-0.5,0.4-0.8,0.9-0.8,1.6c0,0.6,0.2,1,0.5,1.3c0.4,0.3,0.8,0.4,1.4,0.4c0.9,0,1.7-0.2,2.3-0.7
	c0.6-0.5,0.9-1.3,0.9-2.3v-1L303.7,159.8z M312.1,165h-1.8v-15.2h1.8V165z M321.6,150.3c0.3,0,0.5,0.1,0.7,0.3
	c0.2,0.2,0.3,0.5,0.3,0.8c0,0.4-0.1,0.7-0.3,0.8c-0.2,0.2-0.4,0.3-0.7,0.3c-0.3,0-0.5-0.1-0.7-0.3c-0.2-0.2-0.3-0.5-0.3-0.8
	c0-0.4,0.1-0.7,0.3-0.8C321,150.4,321.3,150.3,321.6,150.3z M322.4,154.3V165h-1.8v-10.7H322.4z M331,154.1c1.3,0,2.2,0.3,2.9,0.9
	c0.7,0.6,1,1.6,1,3v7h-1.7v-6.9c0-1.7-0.8-2.6-2.4-2.6c-1.2,0-2,0.3-2.5,1c-0.5,0.7-0.7,1.6-0.7,2.9v5.6h-1.8v-10.7h1.4l0.3,1.5h0.1
	c0.3-0.6,0.8-1,1.4-1.2C329.6,154.2,330.3,154.1,331,154.1z M343.1,155.6h-2.7v9.4h-1.8v-9.4h-1.9v-0.8l1.9-0.6v-0.6
	c0-1.4,0.3-2.4,0.9-3c0.6-0.6,1.5-0.9,2.6-0.9c0.4,0,0.8,0,1.2,0.1c0.4,0.1,0.7,0.1,0.9,0.2l-0.5,1.4c-0.2-0.1-0.5-0.1-0.7-0.2
	s-0.6-0.1-0.9-0.1c-0.6,0-1,0.2-1.3,0.6c-0.3,0.4-0.4,1-0.4,1.8v0.7h2.7V155.6z M354.4,159.6c0,1.8-0.5,3.1-1.4,4.1
	c-0.9,1-2.1,1.5-3.6,1.5c-0.9,0-1.8-0.2-2.5-0.6c-0.7-0.4-1.3-1.1-1.7-1.9c-0.4-0.8-0.6-1.9-0.6-3c0-1.8,0.4-3.1,1.3-4.1
	c0.9-1,2.1-1.4,3.6-1.4c1,0,1.8,0.2,2.6,0.7c0.7,0.4,1.3,1.1,1.7,1.9C354.2,157.4,354.4,158.4,354.4,159.6z M346.3,159.6
	c0,1.3,0.2,2.3,0.7,3c0.5,0.7,1.3,1.1,2.4,1.1c1.1,0,1.9-0.4,2.4-1.1c0.5-0.7,0.8-1.8,0.8-3s-0.3-2.3-0.8-3
	c-0.5-0.7-1.3-1.1-2.4-1.1c-1.1,0-1.9,0.4-2.4,1.1C346.5,157.4,346.3,158.4,346.3,159.6z M362.2,154.1c0.2,0,0.4,0,0.6,0
	c0.2,0,0.4,0,0.6,0.1l-0.2,1.6c-0.2,0-0.4-0.1-0.6-0.1c-0.2,0-0.4,0-0.6,0c-0.5,0-1.1,0.2-1.5,0.5c-0.5,0.3-0.9,0.7-1.2,1.3
	c-0.3,0.5-0.4,1.2-0.4,1.9v5.7h-1.8v-10.7h1.4l0.2,2h0.1c0.3-0.6,0.8-1.1,1.3-1.5S361.4,154.1,362.2,154.1z M377.2,154.1
	c1.2,0,2.1,0.3,2.7,0.9c0.6,0.6,0.9,1.6,0.9,3v7h-1.7v-6.9c0-1.7-0.7-2.5-2.2-2.5c-1,0-1.8,0.3-2.2,0.9c-0.4,0.6-0.7,1.5-0.7,2.6
	v5.9h-1.7v-6.9c0-1.7-0.7-2.5-2.2-2.5c-1.1,0-1.8,0.3-2.2,1c-0.4,0.7-0.6,1.6-0.6,2.9v5.6h-1.8v-10.7h1.4l0.3,1.5h0.1
	c0.3-0.6,0.8-1,1.3-1.2c0.6-0.3,1.2-0.4,1.8-0.4c1.7,0,2.8,0.6,3.3,1.8h0.1c0.4-0.6,0.8-1.1,1.5-1.4
	C375.8,154.2,376.5,154.1,377.2,154.1z M388.2,154.1c1.3,0,2.3,0.3,2.9,0.9c0.6,0.6,0.9,1.5,0.9,2.7v7.3h-1.3l-0.3-1.5h-0.1
	c-0.5,0.6-1,1-1.5,1.3c-0.5,0.3-1.2,0.4-2.1,0.4c-1,0-1.8-0.3-2.4-0.8c-0.6-0.5-1-1.3-1-2.4c0-1.1,0.4-1.9,1.3-2.5
	c0.8-0.6,2.1-0.9,3.9-1l1.8-0.1v-0.6c0-0.9-0.2-1.5-0.6-1.9c-0.4-0.3-0.9-0.5-1.6-0.5c-0.6,0-1.1,0.1-1.6,0.3
	c-0.5,0.2-1,0.3-1.4,0.6l-0.5-1.3c0.5-0.3,1-0.5,1.7-0.6C386.8,154.2,387.5,154.1,388.2,154.1z M388.7,159.8
	c-1.3,0.1-2.3,0.3-2.8,0.6c-0.5,0.4-0.8,0.9-0.8,1.6c0,0.6,0.2,1,0.5,1.3c0.4,0.3,0.8,0.4,1.4,0.4c0.9,0,1.7-0.2,2.3-0.7
	c0.6-0.5,0.9-1.3,0.9-2.3v-1L388.7,159.8z M398.9,163.8c0.3,0,0.5,0,0.8-0.1c0.3-0.1,0.5-0.1,0.7-0.2v1.3c-0.2,0.1-0.5,0.2-0.8,0.2
	c-0.3,0.1-0.7,0.1-1,0.1c-0.6,0-1.1-0.1-1.6-0.3c-0.5-0.2-0.8-0.5-1.1-1c-0.3-0.5-0.4-1.2-0.4-2v-6.2h-1.5v-0.8l1.5-0.7l0.7-2.3h1
	v2.5h3.1v1.4h-3.1v6.2c0,0.7,0.2,1.1,0.5,1.5C398,163.6,398.4,163.8,398.9,163.8z M403.5,150.3c0.3,0,0.5,0.1,0.7,0.3
	c0.2,0.2,0.3,0.5,0.3,0.8c0,0.4-0.1,0.7-0.3,0.8c-0.2,0.2-0.4,0.3-0.7,0.3c-0.3,0-0.5-0.1-0.7-0.3c-0.2-0.2-0.3-0.5-0.3-0.8
	c0-0.4,0.1-0.7,0.3-0.8C402.9,150.4,403.2,150.3,403.5,150.3z M404.3,154.3V165h-1.8v-10.7H404.3z M417,159.6c0,1.8-0.5,3.1-1.4,4.1
	c-0.9,1-2.1,1.5-3.6,1.5c-0.9,0-1.8-0.2-2.5-0.6c-0.7-0.4-1.3-1.1-1.7-1.9c-0.4-0.8-0.6-1.9-0.6-3c0-1.8,0.4-3.1,1.3-4.1
	c0.9-1,2.1-1.4,3.6-1.4c1,0,1.8,0.2,2.6,0.7c0.7,0.4,1.3,1.1,1.7,1.9C416.8,157.4,417,158.4,417,159.6z M408.9,159.6
	c0,1.3,0.2,2.3,0.7,3c0.5,0.7,1.3,1.1,2.4,1.1c1.1,0,1.9-0.4,2.4-1.1c0.5-0.7,0.8-1.8,0.8-3s-0.3-2.3-0.8-3
	c-0.5-0.7-1.3-1.1-2.4-1.1c-1.1,0-1.9,0.4-2.4,1.1C409.2,157.4,408.9,158.4,408.9,159.6z M425,154.1c1.3,0,2.2,0.3,2.9,0.9
	c0.7,0.6,1,1.6,1,3v7h-1.7v-6.9c0-1.7-0.8-2.6-2.4-2.6c-1.2,0-2,0.3-2.5,1c-0.5,0.7-0.7,1.6-0.7,2.9v5.6h-1.8v-10.7h1.4l0.3,1.5h0.1
	c0.3-0.6,0.8-1,1.4-1.2C423.7,154.2,424.3,154.1,425,154.1z"/>
<line class="st4" x1="116" y1="107" x2="175" y2="107"/>
<rect x="0.5" y="91.5" class="st5" width="115" height="32"/>
<path class="st6" d="M43,104.9V115h-1.8v-10.1H43z M43.3,101.7c0,0.2,0,0.3-0.1,0.5c-0.1,0.1-0.2,0.3-0.3,0.4
	c-0.1,0.1-0.2,0.2-0.4,0.3c-0.2,0.1-0.3,0.1-0.5,0.1c-0.2,0-0.3,0-0.5-0.1c-0.1-0.1-0.3-0.2-0.4-0.3c-0.1-0.1-0.2-0.3-0.3-0.4
	c-0.1-0.2-0.1-0.3-0.1-0.5c0-0.2,0-0.3,0.1-0.5c0.1-0.2,0.2-0.3,0.3-0.4c0.1-0.1,0.2-0.2,0.4-0.3c0.2-0.1,0.3-0.1,0.5-0.1
	c0.2,0,0.3,0,0.5,0.1c0.2,0.1,0.3,0.2,0.4,0.3c0.1,0.1,0.2,0.2,0.3,0.4C43.3,101.4,43.3,101.5,43.3,101.7z M52.9,106.7
	c-0.1,0.1-0.1,0.1-0.2,0.2c-0.1,0-0.1,0.1-0.2,0.1c-0.1,0-0.2,0-0.3-0.1c-0.1-0.1-0.3-0.2-0.5-0.3c-0.2-0.1-0.4-0.2-0.7-0.3
	c-0.3-0.1-0.6-0.1-0.9-0.1c-0.5,0-0.9,0.1-1.3,0.3c-0.4,0.2-0.7,0.4-1,0.8c-0.3,0.3-0.4,0.7-0.6,1.2c-0.1,0.5-0.2,1-0.2,1.6
	c0,0.6,0.1,1.2,0.2,1.6c0.1,0.5,0.3,0.9,0.6,1.2c0.3,0.3,0.6,0.6,0.9,0.7c0.4,0.2,0.8,0.2,1.2,0.2c0.4,0,0.8-0.1,1.1-0.2
	c0.3-0.1,0.5-0.2,0.7-0.3c0.2-0.1,0.3-0.2,0.5-0.3c0.1-0.1,0.2-0.2,0.4-0.2c0.1,0,0.3,0.1,0.3,0.2l0.5,0.7c-0.2,0.3-0.5,0.5-0.8,0.7
	c-0.3,0.2-0.6,0.4-0.9,0.5c-0.3,0.1-0.7,0.2-1,0.3c-0.4,0.1-0.7,0.1-1.1,0.1c-0.6,0-1.2-0.1-1.8-0.3c-0.5-0.2-1-0.6-1.4-1
	c-0.4-0.4-0.7-1-0.9-1.6c-0.2-0.6-0.3-1.4-0.3-2.2c0-0.8,0.1-1.4,0.3-2.1c0.2-0.6,0.5-1.2,0.9-1.6c0.4-0.5,0.9-0.8,1.5-1.1
	c0.6-0.3,1.3-0.4,2-0.4c0.7,0,1.3,0.1,1.9,0.3c0.5,0.2,1,0.6,1.4,1L52.9,106.7z M59.5,104.7c0.7,0,1.4,0.1,2,0.4
	c0.6,0.2,1.1,0.6,1.5,1c0.4,0.5,0.7,1,1,1.7c0.2,0.6,0.3,1.4,0.3,2.2c0,0.8-0.1,1.5-0.3,2.2c-0.2,0.6-0.5,1.2-1,1.6
	c-0.4,0.5-0.9,0.8-1.5,1c-0.6,0.2-1.3,0.4-2,0.4c-0.7,0-1.4-0.1-2-0.4c-0.6-0.2-1.1-0.6-1.5-1c-0.4-0.5-0.7-1-1-1.6
	c-0.2-0.6-0.3-1.4-0.3-2.2c0-0.8,0.1-1.5,0.3-2.2c0.2-0.6,0.5-1.2,1-1.7c0.4-0.5,0.9-0.8,1.5-1C58.1,104.8,58.8,104.7,59.5,104.7z
	 M59.5,113.8c1,0,1.7-0.3,2.2-1c0.5-0.7,0.7-1.6,0.7-2.8c0-1.2-0.2-2.1-0.7-2.8c-0.5-0.7-1.2-1-2.2-1c-0.5,0-0.9,0.1-1.3,0.3
	c-0.4,0.2-0.7,0.4-0.9,0.8c-0.2,0.3-0.4,0.7-0.6,1.2c-0.1,0.5-0.2,1-0.2,1.6c0,1.2,0.2,2.1,0.7,2.8
	C57.7,113.4,58.5,113.8,59.5,113.8z M68.3,106.3c0.2-0.2,0.5-0.5,0.7-0.7c0.2-0.2,0.5-0.4,0.8-0.5c0.3-0.1,0.6-0.3,0.9-0.3
	c0.3-0.1,0.7-0.1,1-0.1c0.6,0,1,0.1,1.5,0.3c0.4,0.2,0.8,0.4,1.1,0.8c0.3,0.3,0.5,0.7,0.6,1.2c0.1,0.5,0.2,1,0.2,1.6v6.4h-1.8v-6.4
	c0-0.8-0.2-1.4-0.5-1.8c-0.3-0.4-0.9-0.6-1.6-0.6c-0.5,0-1,0.1-1.5,0.4c-0.5,0.3-0.9,0.6-1.3,1v7.5h-1.8v-10.1h1.1
	c0.3,0,0.4,0.1,0.5,0.4L68.3,106.3z"/>
<line class="st4" x1="343.5" y1="85" x2="343.5" y2="33"/>
<circle class="st7" cx="343.5" cy="86.5" r="1.5"/>
<rect x="283.5" y="0.5" class="st5" width="118" height="32"/>
<path class="st6" d="M302.1,16.3c-0.3-0.4-0.7-0.8-1.1-0.9c-0.4-0.2-0.8-0.3-1.3-0.3c-0.9,0-1.7,0.3-2.2,1c-0.5,0.7-0.8,1.6-0.8,2.9
	c0,0.7,0.1,1.2,0.2,1.7c0.1,0.5,0.3,0.9,0.5,1.2c0.2,0.3,0.5,0.5,0.8,0.7c0.3,0.1,0.7,0.2,1.1,0.2c0.6,0,1.1-0.1,1.5-0.4
	c0.4-0.3,0.8-0.6,1.2-1.1V16.3z M303.9,9.3V24h-1.1c-0.3,0-0.4-0.1-0.5-0.4l-0.2-1.2c-0.4,0.5-0.9,0.9-1.5,1.3
	c-0.6,0.3-1.2,0.5-1.9,0.5c-0.6,0-1.1-0.1-1.6-0.3c-0.5-0.2-0.9-0.6-1.2-1c-0.3-0.4-0.6-1-0.8-1.6s-0.3-1.4-0.3-2.2
	c0-0.7,0.1-1.4,0.3-2.1c0.2-0.6,0.5-1.2,0.9-1.7c0.4-0.5,0.8-0.8,1.4-1.1c0.5-0.3,1.2-0.4,1.8-0.4c0.6,0,1.1,0.1,1.6,0.3
	c0.4,0.2,0.8,0.5,1.2,0.9V9.3H303.9z M313.4,17.8c0-0.4-0.1-0.8-0.2-1.1c-0.1-0.3-0.3-0.6-0.5-0.9c-0.2-0.3-0.5-0.4-0.8-0.6
	c-0.3-0.1-0.7-0.2-1.1-0.2c-0.9,0-1.5,0.2-2,0.8c-0.5,0.5-0.8,1.2-0.9,2.1H313.4z M314.9,22.6c-0.2,0.3-0.5,0.5-0.8,0.7
	c-0.3,0.2-0.6,0.4-1,0.5c-0.3,0.1-0.7,0.2-1.1,0.3c-0.4,0.1-0.7,0.1-1.1,0.1c-0.7,0-1.3-0.1-1.9-0.3c-0.6-0.2-1.1-0.6-1.5-1
	c-0.4-0.5-0.8-1-1-1.7c-0.2-0.7-0.4-1.4-0.4-2.3c0-0.7,0.1-1.4,0.3-2c0.2-0.6,0.5-1.1,0.9-1.6c0.4-0.5,0.9-0.8,1.5-1.1
	c0.6-0.3,1.2-0.4,2-0.4c0.6,0,1.2,0.1,1.7,0.3c0.5,0.2,1,0.5,1.3,0.9c0.4,0.4,0.7,0.9,0.9,1.4c0.2,0.6,0.3,1.2,0.3,1.9
	c0,0.3,0,0.5-0.1,0.6s-0.2,0.1-0.3,0.1h-6.8c0,0.6,0.1,1.2,0.3,1.7c0.2,0.5,0.4,0.9,0.7,1.2c0.3,0.3,0.6,0.6,1,0.7
	c0.4,0.2,0.8,0.2,1.3,0.2c0.4,0,0.8,0,1.1-0.1c0.3-0.1,0.6-0.2,0.8-0.3c0.2-0.1,0.4-0.2,0.6-0.3c0.2-0.1,0.3-0.2,0.4-0.2
	c0.1,0,0.3,0.1,0.3,0.2L314.9,22.6z M320.3,24.2c-0.8,0-1.4-0.2-1.9-0.7c-0.4-0.4-0.6-1.1-0.6-1.9v-6.2h-1.2c-0.1,0-0.2,0-0.3-0.1
	c-0.1-0.1-0.1-0.2-0.1-0.3v-0.7l1.7-0.2l0.4-3.1c0-0.1,0.1-0.2,0.1-0.2c0.1-0.1,0.2-0.1,0.3-0.1h0.9v3.5h2.9v1.3h-2.9v6.1
	c0,0.4,0.1,0.7,0.3,0.9c0.2,0.2,0.5,0.3,0.8,0.3c0.2,0,0.3,0,0.5-0.1c0.1-0.1,0.3-0.1,0.4-0.2c0.1-0.1,0.2-0.1,0.2-0.2
	c0.1-0.1,0.1-0.1,0.2-0.1c0.1,0,0.2,0.1,0.2,0.2l0.5,0.9c-0.3,0.3-0.7,0.5-1.1,0.7C321.2,24.1,320.7,24.2,320.3,24.2z M329.8,19.4
	c-0.8,0-1.5,0.1-2.1,0.2c-0.6,0.1-1,0.2-1.4,0.4c-0.4,0.2-0.6,0.4-0.8,0.6c-0.2,0.2-0.2,0.5-0.2,0.8c0,0.3,0,0.5,0.1,0.7
	s0.2,0.4,0.4,0.5c0.2,0.1,0.3,0.2,0.5,0.3c0.2,0.1,0.4,0.1,0.7,0.1c0.3,0,0.6,0,0.9-0.1c0.3-0.1,0.5-0.2,0.7-0.3
	c0.2-0.1,0.5-0.3,0.7-0.4c0.2-0.2,0.4-0.4,0.6-0.6V19.4z M324.1,15.3c0.6-0.5,1.2-0.9,1.8-1.2s1.4-0.4,2.1-0.4
	c0.6,0,1.1,0.1,1.5,0.3s0.8,0.4,1.1,0.8c0.3,0.3,0.5,0.7,0.7,1.2c0.2,0.5,0.2,1,0.2,1.6V24h-0.8c-0.2,0-0.3,0-0.4-0.1
	c-0.1-0.1-0.2-0.2-0.2-0.3l-0.2-1c-0.3,0.2-0.5,0.5-0.8,0.7c-0.3,0.2-0.5,0.3-0.8,0.5c-0.3,0.1-0.6,0.2-0.9,0.3
	c-0.3,0.1-0.7,0.1-1,0.1c-0.4,0-0.8-0.1-1.1-0.2c-0.3-0.1-0.6-0.3-0.9-0.5c-0.3-0.2-0.5-0.5-0.6-0.8c-0.1-0.3-0.2-0.7-0.2-1.2
	c0-0.4,0.1-0.8,0.3-1.1c0.2-0.4,0.6-0.7,1.1-1c0.5-0.3,1.1-0.5,1.9-0.7c0.8-0.2,1.8-0.3,2.9-0.3v-0.8c0-0.8-0.2-1.4-0.5-1.8
	c-0.3-0.4-0.8-0.6-1.5-0.6c-0.4,0-0.8,0.1-1.1,0.2c-0.3,0.1-0.6,0.2-0.8,0.4c-0.2,0.1-0.4,0.3-0.6,0.4c-0.2,0.1-0.3,0.2-0.5,0.2
	c-0.1,0-0.2,0-0.3-0.1c-0.1-0.1-0.2-0.1-0.2-0.2L324.1,15.3z M336.1,13.9V24h-1.8V13.9H336.1z M336.5,10.7c0,0.2,0,0.3-0.1,0.5
	c-0.1,0.1-0.2,0.3-0.3,0.4c-0.1,0.1-0.2,0.2-0.4,0.3c-0.2,0.1-0.3,0.1-0.5,0.1c-0.2,0-0.3,0-0.5-0.1c-0.1-0.1-0.3-0.2-0.4-0.3
	c-0.1-0.1-0.2-0.3-0.3-0.4c-0.1-0.2-0.1-0.3-0.1-0.5c0-0.2,0-0.3,0.1-0.5c0.1-0.2,0.2-0.3,0.3-0.4c0.1-0.1,0.2-0.2,0.4-0.3
	c0.2-0.1,0.3-0.1,0.5-0.1c0.2,0,0.3,0,0.5,0.1c0.2,0.1,0.3,0.2,0.4,0.3c0.1,0.1,0.2,0.2,0.3,0.4C336.5,10.4,336.5,10.5,336.5,10.7z
	 M340.9,9.3V24h-1.8V9.3H340.9z M349.7,15.5c-0.1,0.1-0.2,0.2-0.4,0.2c-0.1,0-0.2,0-0.3-0.1c-0.1-0.1-0.3-0.2-0.5-0.2
	c-0.2-0.1-0.4-0.2-0.6-0.2c-0.3-0.1-0.6-0.1-0.9-0.1c-0.3,0-0.6,0-0.8,0.1c-0.2,0.1-0.4,0.2-0.6,0.3c-0.2,0.1-0.3,0.3-0.4,0.5
	c-0.1,0.2-0.1,0.4-0.1,0.6c0,0.3,0.1,0.5,0.2,0.6c0.2,0.2,0.4,0.3,0.6,0.5c0.2,0.1,0.5,0.2,0.8,0.3c0.3,0.1,0.6,0.2,1,0.3
	c0.3,0.1,0.7,0.2,1,0.4c0.3,0.1,0.6,0.3,0.8,0.5c0.2,0.2,0.4,0.4,0.6,0.7c0.2,0.3,0.2,0.6,0.2,1c0,0.5-0.1,0.9-0.2,1.3
	c-0.2,0.4-0.4,0.7-0.7,1c-0.3,0.3-0.7,0.5-1.2,0.7c-0.5,0.2-1,0.2-1.6,0.2c-0.7,0-1.3-0.1-1.9-0.3c-0.6-0.2-1.1-0.5-1.5-0.9l0.4-0.7
	c0.1-0.1,0.1-0.2,0.2-0.2c0.1,0,0.2-0.1,0.3-0.1c0.1,0,0.2,0,0.4,0.1c0.1,0.1,0.3,0.2,0.5,0.3c0.2,0.1,0.4,0.2,0.7,0.3
	c0.3,0.1,0.6,0.1,1,0.1c0.3,0,0.6,0,0.9-0.1c0.3-0.1,0.5-0.2,0.6-0.4c0.2-0.2,0.3-0.3,0.4-0.5c0.1-0.2,0.1-0.4,0.1-0.6
	c0-0.3-0.1-0.5-0.2-0.7c-0.1-0.2-0.3-0.3-0.6-0.5c-0.2-0.1-0.5-0.2-0.9-0.3c-0.3-0.1-0.6-0.2-1-0.3c-0.3-0.1-0.6-0.2-1-0.4
	c-0.3-0.1-0.6-0.3-0.8-0.5c-0.2-0.2-0.4-0.5-0.6-0.8c-0.1-0.3-0.2-0.7-0.2-1.1c0-0.4,0.1-0.8,0.2-1.1c0.2-0.4,0.4-0.7,0.7-0.9
	c0.3-0.3,0.7-0.5,1.1-0.7c0.4-0.2,1-0.2,1.5-0.2c0.7,0,1.3,0.1,1.8,0.3c0.5,0.2,1,0.5,1.4,0.9L349.7,15.5z M367,24h-1.8v-8.6H360
	v6.1c0,0.4,0.1,0.7,0.3,0.9c0.2,0.2,0.5,0.3,0.8,0.3c0.2,0,0.3,0,0.5-0.1c0.1-0.1,0.3-0.1,0.4-0.2c0.1-0.1,0.2-0.1,0.2-0.2
	c0.1-0.1,0.1-0.1,0.2-0.1c0.1,0,0.2,0.1,0.2,0.2l0.5,0.9c-0.3,0.3-0.7,0.5-1.1,0.7c-0.4,0.2-0.9,0.2-1.3,0.2c-0.8,0-1.4-0.2-1.9-0.7
	c-0.4-0.4-0.6-1.1-0.6-1.9v-6.2H357c-0.1,0-0.2,0-0.3-0.1c-0.1-0.1-0.1-0.2-0.1-0.3v-0.7l1.7-0.2l0.4-3.1c0-0.1,0.1-0.2,0.1-0.2
	c0.1-0.1,0.2-0.1,0.3-0.1h0.9v3.5h7V24z M367.4,10.6c0,0.2,0,0.3-0.1,0.5c-0.1,0.1-0.2,0.3-0.3,0.4c-0.1,0.1-0.2,0.2-0.4,0.3
	c-0.2,0.1-0.3,0.1-0.5,0.1c-0.2,0-0.3,0-0.5-0.1c-0.1-0.1-0.3-0.2-0.4-0.3c-0.1-0.1-0.2-0.2-0.3-0.4c-0.1-0.2-0.1-0.3-0.1-0.5
	s0-0.3,0.1-0.5c0.1-0.2,0.2-0.3,0.3-0.4c0.1-0.1,0.2-0.2,0.4-0.3c0.2-0.1,0.3-0.1,0.5-0.1c0.2,0,0.3,0,0.5,0.1
	c0.2,0.1,0.3,0.2,0.4,0.3c0.1,0.1,0.2,0.2,0.3,0.4C367.4,10.3,367.4,10.4,367.4,10.6z M373,24.2c-0.8,0-1.4-0.2-1.9-0.7
	c-0.4-0.4-0.6-1.1-0.6-1.9v-6.2h-1.2c-0.1,0-0.2,0-0.3-0.1c-0.1-0.1-0.1-0.2-0.1-0.3v-0.7l1.7-0.2l0.4-3.1c0-0.1,0.1-0.2,0.1-0.2
	c0.1-0.1,0.2-0.1,0.3-0.1h0.9v3.5h2.9v1.3h-2.9v6.1c0,0.4,0.1,0.7,0.3,0.9c0.2,0.2,0.5,0.3,0.8,0.3c0.2,0,0.3,0,0.5-0.1
	c0.1-0.1,0.3-0.1,0.4-0.2c0.1-0.1,0.2-0.1,0.2-0.2c0.1-0.1,0.1-0.1,0.2-0.1c0.1,0,0.2,0.1,0.2,0.2l0.5,0.9c-0.3,0.3-0.7,0.5-1.1,0.7
	C373.9,24.1,373.5,24.2,373,24.2z M378.9,9.3V24h-1.8V9.3H378.9z M388.6,17.8c0-0.4-0.1-0.8-0.2-1.1c-0.1-0.3-0.3-0.6-0.5-0.9
	c-0.2-0.3-0.5-0.4-0.8-0.6c-0.3-0.1-0.7-0.2-1.1-0.2c-0.9,0-1.5,0.2-2,0.8c-0.5,0.5-0.8,1.2-0.9,2.1H388.6z M390,22.6
	c-0.2,0.3-0.5,0.5-0.8,0.7c-0.3,0.2-0.6,0.4-1,0.5c-0.3,0.1-0.7,0.2-1.1,0.3c-0.4,0.1-0.7,0.1-1.1,0.1c-0.7,0-1.3-0.1-1.9-0.3
	c-0.6-0.2-1.1-0.6-1.5-1c-0.4-0.5-0.8-1-1-1.7c-0.2-0.7-0.4-1.4-0.4-2.3c0-0.7,0.1-1.4,0.3-2c0.2-0.6,0.5-1.1,0.9-1.6
	c0.4-0.5,0.9-0.8,1.5-1.1c0.6-0.3,1.2-0.4,2-0.4c0.6,0,1.2,0.1,1.7,0.3c0.5,0.2,1,0.5,1.3,0.9c0.4,0.4,0.7,0.9,0.9,1.4
	c0.2,0.6,0.3,1.2,0.3,1.9c0,0.3,0,0.5-0.1,0.6c-0.1,0.1-0.2,0.1-0.3,0.1H383c0,0.6,0.1,1.2,0.3,1.7c0.2,0.5,0.4,0.9,0.7,1.2
	c0.3,0.3,0.6,0.6,1,0.7c0.4,0.2,0.8,0.2,1.3,0.2c0.4,0,0.8,0,1.1-0.1c0.3-0.1,0.6-0.2,0.8-0.3s0.4-0.2,0.6-0.3
	c0.2-0.1,0.3-0.2,0.4-0.2c0.1,0,0.3,0.1,0.3,0.2L390,22.6z"/>
<line class="st4" x1="448" y1="166" x2="573" y2="166"/>
<circle class="st7" cx="447.5" cy="166" r="1.5"/>
<rect x="571.5" y="149.5" class="st5" width="115" height="32"/>
<path class="st6" d="M603.7,164.7c-0.1,0.1-0.1,0.1-0.2,0.2c-0.1,0-0.1,0.1-0.2,0.1c-0.1,0-0.2,0-0.3-0.1c-0.1-0.1-0.3-0.2-0.5-0.3
	c-0.2-0.1-0.4-0.2-0.6-0.3c-0.3-0.1-0.6-0.1-0.9-0.1c-0.5,0-0.9,0.1-1.3,0.3c-0.4,0.2-0.7,0.4-1,0.8c-0.3,0.3-0.4,0.7-0.6,1.2
	c-0.1,0.5-0.2,1-0.2,1.6c0,0.6,0.1,1.2,0.2,1.6c0.1,0.5,0.3,0.9,0.6,1.2c0.3,0.3,0.6,0.6,0.9,0.7c0.4,0.2,0.8,0.2,1.2,0.2
	c0.4,0,0.8,0,1.1-0.1c0.3-0.1,0.5-0.2,0.7-0.4c0.2-0.1,0.3-0.2,0.5-0.3c0.1-0.1,0.2-0.2,0.4-0.2c0.1,0,0.3,0.1,0.3,0.2l0.5,0.7
	c-0.2,0.3-0.5,0.5-0.8,0.7c-0.3,0.2-0.6,0.4-0.9,0.5c-0.3,0.1-0.7,0.2-1,0.3c-0.4,0.1-0.7,0.1-1.1,0.1c-0.6,0-1.2-0.1-1.8-0.4
	c-0.5-0.2-1-0.6-1.4-1c-0.4-0.4-0.7-1-0.9-1.6c-0.2-0.6-0.3-1.4-0.3-2.2c0-0.8,0.1-1.4,0.3-2.1c0.2-0.6,0.5-1.2,0.9-1.6
	c0.4-0.5,0.9-0.8,1.5-1.1c0.6-0.3,1.3-0.4,2-0.4c0.7,0,1.3,0.1,1.9,0.3c0.5,0.2,1,0.6,1.4,1L603.7,164.7z M610.3,162.7
	c0.7,0,1.4,0.1,2,0.4c0.6,0.2,1.1,0.6,1.5,1.1c0.4,0.5,0.7,1,1,1.6c0.2,0.6,0.3,1.4,0.3,2.1c0,0.8-0.1,1.5-0.3,2.2
	c-0.2,0.6-0.5,1.2-1,1.6s-0.9,0.8-1.5,1.1c-0.6,0.2-1.3,0.4-2,0.4c-0.7,0-1.4-0.1-2-0.4c-0.6-0.2-1.1-0.6-1.5-1.1s-0.7-1-1-1.6
	c-0.2-0.6-0.3-1.4-0.3-2.2c0-0.8,0.1-1.5,0.3-2.1c0.2-0.6,0.6-1.2,1-1.6c0.4-0.5,0.9-0.8,1.5-1.1
	C608.8,162.8,609.5,162.7,610.3,162.7z M610.3,171.8c1,0,1.7-0.3,2.2-1c0.5-0.7,0.7-1.6,0.7-2.8c0-1.2-0.2-2.1-0.7-2.8
	c-0.5-0.7-1.2-1-2.2-1c-0.5,0-0.9,0.1-1.3,0.3c-0.4,0.2-0.7,0.4-0.9,0.8c-0.2,0.3-0.4,0.7-0.6,1.2c-0.1,0.5-0.2,1-0.2,1.6
	c0,1.2,0.2,2.1,0.7,2.8C608.5,171.4,609.2,171.8,610.3,171.8z M619,164.3c0.2-0.2,0.5-0.5,0.7-0.7c0.2-0.2,0.5-0.4,0.8-0.5
	c0.3-0.1,0.6-0.3,0.9-0.3c0.3-0.1,0.6-0.1,1-0.1c0.6,0,1,0.1,1.5,0.3c0.4,0.2,0.8,0.4,1.1,0.8c0.3,0.3,0.5,0.7,0.7,1.2
	c0.1,0.5,0.2,1,0.2,1.6v6.4H624v-6.4c0-0.8-0.2-1.4-0.5-1.8c-0.3-0.4-0.9-0.6-1.6-0.6c-0.5,0-1,0.1-1.5,0.4c-0.5,0.3-0.9,0.6-1.3,1
	v7.5h-1.8v-10.1h1.1c0.3,0,0.4,0.1,0.5,0.4L619,164.3z M631.5,173.2c-0.8,0-1.4-0.2-1.8-0.7c-0.4-0.4-0.6-1.1-0.6-1.9v-6.2h-1.2
	c-0.1,0-0.2,0-0.3-0.1c-0.1-0.1-0.1-0.2-0.1-0.3v-0.7l1.7-0.2l0.4-3.1c0-0.1,0.1-0.2,0.1-0.2c0.1-0.1,0.2-0.1,0.3-0.1h0.9v3.5h2.9
	v1.3h-2.9v6.1c0,0.4,0.1,0.7,0.3,0.9c0.2,0.2,0.5,0.3,0.8,0.3c0.2,0,0.3,0,0.5-0.1c0.1-0.1,0.3-0.1,0.4-0.2c0.1-0.1,0.2-0.1,0.2-0.2
	c0.1-0.1,0.1-0.1,0.2-0.1c0.1,0,0.2,0.1,0.2,0.2l0.5,0.9c-0.3,0.3-0.7,0.5-1.1,0.7C632.4,173.1,631.9,173.2,631.5,173.2z
	 M642.2,166.8c0-0.4-0.1-0.8-0.2-1.1c-0.1-0.3-0.3-0.6-0.5-0.9c-0.2-0.3-0.5-0.4-0.8-0.6c-0.3-0.1-0.7-0.2-1.1-0.2
	c-0.9,0-1.5,0.2-2,0.8c-0.5,0.5-0.8,1.2-0.9,2.1H642.2z M643.7,171.6c-0.2,0.3-0.5,0.5-0.8,0.7c-0.3,0.2-0.6,0.4-1,0.5
	c-0.3,0.1-0.7,0.2-1.1,0.3c-0.4,0.1-0.7,0.1-1.1,0.1c-0.7,0-1.3-0.1-1.9-0.4c-0.6-0.2-1.1-0.6-1.5-1c-0.4-0.5-0.8-1-1-1.7
	s-0.4-1.4-0.4-2.3c0-0.7,0.1-1.4,0.3-2c0.2-0.6,0.5-1.1,0.9-1.6c0.4-0.5,0.9-0.8,1.5-1.1c0.6-0.3,1.2-0.4,2-0.4
	c0.6,0,1.2,0.1,1.7,0.3c0.5,0.2,1,0.5,1.3,0.9c0.4,0.4,0.7,0.9,0.9,1.4c0.2,0.6,0.3,1.2,0.3,1.9c0,0.3,0,0.5-0.1,0.6
	s-0.2,0.1-0.3,0.1h-6.8c0,0.6,0.1,1.2,0.3,1.7c0.2,0.5,0.4,0.9,0.7,1.2c0.3,0.3,0.6,0.6,1,0.7c0.4,0.2,0.8,0.2,1.3,0.2
	c0.4,0,0.8-0.1,1.1-0.2c0.3-0.1,0.6-0.2,0.8-0.3c0.2-0.1,0.4-0.2,0.6-0.3c0.2-0.1,0.3-0.2,0.4-0.2c0.1,0,0.3,0.1,0.3,0.2
	L643.7,171.6z M647.7,164.3c0.2-0.2,0.5-0.5,0.7-0.7c0.2-0.2,0.5-0.4,0.8-0.5c0.3-0.1,0.6-0.3,0.9-0.3c0.3-0.1,0.7-0.1,1-0.1
	c0.6,0,1,0.1,1.5,0.3c0.4,0.2,0.8,0.4,1.1,0.8c0.3,0.3,0.5,0.7,0.7,1.2c0.1,0.5,0.2,1,0.2,1.6v6.4h-1.8v-6.4c0-0.8-0.2-1.4-0.5-1.8
	c-0.3-0.4-0.9-0.6-1.6-0.6c-0.5,0-1,0.1-1.5,0.4c-0.5,0.3-0.9,0.6-1.3,1v7.5H646v-10.1h1.1c0.3,0,0.4,0.1,0.5,0.4L647.7,164.3z
	 M660.2,173.2c-0.8,0-1.4-0.2-1.8-0.7c-0.4-0.4-0.6-1.1-0.6-1.9v-6.2h-1.2c-0.1,0-0.2,0-0.3-0.1c-0.1-0.1-0.1-0.2-0.1-0.3v-0.7
	l1.7-0.2l0.4-3.1c0-0.1,0.1-0.2,0.1-0.2c0.1-0.1,0.2-0.1,0.3-0.1h0.9v3.5h2.9v1.3h-2.9v6.1c0,0.4,0.1,0.7,0.3,0.9
	c0.2,0.2,0.5,0.3,0.8,0.3c0.2,0,0.3,0,0.5-0.1c0.1-0.1,0.3-0.1,0.4-0.2c0.1-0.1,0.2-0.1,0.2-0.2c0.1-0.1,0.1-0.1,0.2-0.1
	c0.1,0,0.2,0.1,0.2,0.2l0.5,0.9c-0.3,0.3-0.7,0.5-1.1,0.7C661.1,173.1,660.6,173.2,660.2,173.2z"/>
</svg>
