<svg width="187" height="240" viewBox="0 0 187 240" fill="none" xmlns="http://www.w3.org/2000/svg">
<rect y="90" width="172" height="48" rx="6" fill="#26374A"/>
<path d="M18.08 107.72C19.2933 107.72 20.3067 107.833 21.12 108.06C21.9467 108.287 22.5667 108.667 22.98 109.2C23.4067 109.72 23.62 110.413 23.62 111.28C23.62 111.84 23.52 112.34 23.32 112.78C23.12 113.207 22.8267 113.567 22.44 113.86C22.0667 114.14 21.6 114.327 21.04 114.42V114.52C21.6133 114.613 22.1267 114.787 22.58 115.04C23.0333 115.28 23.3933 115.633 23.66 116.1C23.9267 116.567 24.06 117.173 24.06 117.92C24.06 118.787 23.8533 119.527 23.44 120.14C23.04 120.74 22.46 121.2 21.7 121.52C20.9533 121.84 20.06 122 19.02 122H13.9V107.72H18.08ZM18.44 113.68C19.56 113.68 20.3267 113.5 20.74 113.14C21.1667 112.78 21.38 112.247 21.38 111.54C21.38 110.82 21.1267 110.307 20.62 110C20.1133 109.693 19.3067 109.54 18.2 109.54H16.06V113.68H18.44ZM16.06 115.44V120.2H18.68C19.84 120.2 20.6467 119.973 21.1 119.52C21.5533 119.067 21.78 118.467 21.78 117.72C21.78 117.267 21.68 116.867 21.48 116.52C21.28 116.173 20.94 115.907 20.46 115.72C19.9933 115.533 19.3533 115.44 18.54 115.44H16.06ZM36.065 111.22V122H34.365L34.065 120.58H33.965C33.7383 120.953 33.445 121.26 33.085 121.5C32.725 121.74 32.3317 121.913 31.905 122.02C31.4783 122.14 31.0383 122.2 30.585 122.2C29.745 122.2 29.0317 122.067 28.445 121.8C27.8717 121.52 27.4317 121.093 27.125 120.52C26.8317 119.933 26.685 119.187 26.685 118.28V111.22H28.825V117.96C28.825 118.8 28.9983 119.427 29.345 119.84C29.705 120.253 30.2583 120.46 31.005 120.46C31.7517 120.46 32.3383 120.313 32.765 120.02C33.1917 119.727 33.4917 119.3 33.665 118.74C33.8517 118.167 33.945 117.48 33.945 116.68V111.22H36.065ZM43.2627 120.48C43.5427 120.48 43.8293 120.453 44.1227 120.4C44.416 120.347 44.6693 120.287 44.8827 120.22V121.82C44.656 121.927 44.3493 122.013 43.9627 122.08C43.576 122.16 43.1893 122.2 42.8027 122.2C42.216 122.2 41.676 122.1 41.1827 121.9C40.7027 121.7 40.316 121.353 40.0227 120.86C39.7293 120.367 39.5827 119.68 39.5827 118.8V112.84H38.0827V111.88L39.6627 111.08L40.4027 108.8H41.7027V111.22H44.7827V112.84H41.7027V118.76C41.7027 119.347 41.8427 119.78 42.1227 120.06C42.416 120.34 42.796 120.48 43.2627 120.48ZM50.9189 120.48C51.1989 120.48 51.4856 120.453 51.7789 120.4C52.0722 120.347 52.3256 120.287 52.5389 120.22V121.82C52.3122 121.927 52.0056 122.013 51.6189 122.08C51.2322 122.16 50.8456 122.2 50.4589 122.2C49.8722 122.2 49.3322 122.1 48.8389 121.9C48.3589 121.7 47.9722 121.353 47.6789 120.86C47.3856 120.367 47.2389 119.68 47.2389 118.8V112.84H45.7389V111.88L47.3189 111.08L48.0589 108.8H49.3589V111.22H52.4389V112.84H49.3589V118.76C49.3589 119.347 49.4989 119.78 49.7789 120.06C50.0722 120.34 50.4522 120.48 50.9189 120.48ZM64.1952 116.6C64.1952 117.493 64.0752 118.287 63.8352 118.98C63.5952 119.673 63.2552 120.26 62.8152 120.74C62.3752 121.22 61.8418 121.587 61.2152 121.84C60.5885 122.08 59.8818 122.2 59.0952 122.2C58.3752 122.2 57.7085 122.08 57.0952 121.84C56.4818 121.587 55.9485 121.22 55.4952 120.74C55.0552 120.26 54.7085 119.673 54.4552 118.98C54.2018 118.287 54.0752 117.487 54.0752 116.58C54.0752 115.393 54.2752 114.387 54.6752 113.56C55.0885 112.733 55.6752 112.107 56.4352 111.68C57.2085 111.24 58.1152 111.02 59.1552 111.02C60.1418 111.02 61.0085 111.24 61.7552 111.68C62.5152 112.107 63.1085 112.733 63.5352 113.56C63.9752 114.387 64.1952 115.4 64.1952 116.6ZM56.2552 116.6C56.2552 117.4 56.3552 118.093 56.5552 118.68C56.7552 119.253 57.0685 119.693 57.4952 120C57.9218 120.307 58.4685 120.46 59.1352 120.46C59.8018 120.46 60.3485 120.307 60.7752 120C61.2018 119.693 61.5152 119.253 61.7152 118.68C61.9152 118.093 62.0152 117.4 62.0152 116.6C62.0152 115.773 61.9085 115.08 61.6952 114.52C61.4952 113.96 61.1818 113.533 60.7552 113.24C60.3418 112.933 59.7952 112.78 59.1152 112.78C58.1152 112.78 57.3885 113.113 56.9352 113.78C56.4818 114.447 56.2552 115.387 56.2552 116.6ZM72.3427 111.02C73.596 111.02 74.556 111.333 75.2227 111.96C75.8893 112.587 76.2227 113.593 76.2227 114.98V122H74.1227V115.28C74.1227 114.44 73.9427 113.813 73.5827 113.4C73.236 112.973 72.676 112.76 71.9027 112.76C70.8093 112.76 70.0493 113.087 69.6227 113.74C69.2093 114.393 69.0027 115.333 69.0027 116.56V122H66.8827V111.22H68.5627L68.8627 112.66H68.9827C69.2227 112.287 69.516 111.98 69.8627 111.74C70.2093 111.5 70.596 111.32 71.0227 111.2C71.4493 111.08 71.8893 111.02 72.3427 111.02ZM84.9156 122V107.72H87.0756V120.14H93.1756V122H84.9156ZM99.5783 111.02C100.938 111.02 101.952 111.32 102.618 111.92C103.285 112.507 103.618 113.433 103.618 114.7V122H102.118L101.698 120.5H101.618C101.312 120.887 100.992 121.207 100.658 121.46C100.338 121.713 99.9649 121.9 99.5383 122.02C99.1249 122.14 98.6183 122.2 98.0183 122.2C97.3783 122.2 96.7983 122.087 96.2783 121.86C95.7716 121.62 95.3716 121.26 95.0783 120.78C94.7849 120.287 94.6383 119.673 94.6383 118.94C94.6383 117.847 95.0516 117.013 95.8783 116.44C96.7183 115.867 97.9916 115.553 99.6983 115.5L101.538 115.44V114.84C101.538 114.04 101.358 113.48 100.998 113.16C100.638 112.84 100.132 112.68 99.4783 112.68C98.9183 112.68 98.3849 112.76 97.8783 112.92C97.3716 113.08 96.8916 113.273 96.4383 113.5L95.7583 111.96C96.2649 111.693 96.8449 111.473 97.4983 111.3C98.1649 111.113 98.8583 111.02 99.5783 111.02ZM100.078 116.86C98.8516 116.913 97.9983 117.12 97.5183 117.48C97.0516 117.827 96.8183 118.32 96.8183 118.96C96.8183 119.52 96.9849 119.927 97.3183 120.18C97.6649 120.433 98.0983 120.56 98.6183 120.56C99.4583 120.56 100.152 120.327 100.698 119.86C101.245 119.393 101.518 118.693 101.518 117.76V116.82L100.078 116.86ZM109.003 110.46C109.003 110.9 108.989 111.32 108.963 111.72C108.949 112.107 108.929 112.413 108.903 112.64H109.003C109.309 112.187 109.723 111.807 110.243 111.5C110.763 111.193 111.436 111.04 112.263 111.04C113.556 111.04 114.596 111.507 115.383 112.44C116.183 113.373 116.583 114.76 116.583 116.6C116.583 117.84 116.403 118.873 116.043 119.7C115.683 120.527 115.176 121.153 114.523 121.58C113.869 121.993 113.109 122.2 112.243 122.2C111.403 122.2 110.729 122.053 110.223 121.76C109.716 121.453 109.309 121.093 109.003 120.68H108.843L108.443 122H106.883V106.8H109.003V110.46ZM111.763 112.76C111.069 112.76 110.523 112.893 110.123 113.16C109.723 113.427 109.436 113.833 109.263 114.38C109.089 114.927 109.003 115.62 109.003 116.46V116.62C109.003 117.86 109.203 118.813 109.603 119.48C110.003 120.133 110.736 120.46 111.803 120.46C112.656 120.46 113.303 120.127 113.743 119.46C114.183 118.793 114.403 117.833 114.403 116.58C114.403 115.313 114.183 114.36 113.743 113.72C113.303 113.08 112.643 112.76 111.763 112.76ZM123.525 111.02C124.472 111.02 125.285 111.22 125.965 111.62C126.645 112.007 127.165 112.567 127.525 113.3C127.898 114.033 128.085 114.9 128.085 115.9V117.06H120.845C120.872 118.167 121.158 119.013 121.705 119.6C122.265 120.187 123.045 120.48 124.045 120.48C124.738 120.48 125.352 120.42 125.885 120.3C126.432 120.167 126.992 119.973 127.565 119.72V121.48C127.032 121.72 126.485 121.9 125.925 122.02C125.378 122.14 124.725 122.2 123.965 122.2C122.925 122.2 122.005 121.993 121.205 121.58C120.405 121.167 119.778 120.553 119.325 119.74C118.885 118.913 118.665 117.9 118.665 116.7C118.665 115.487 118.865 114.46 119.265 113.62C119.678 112.78 120.245 112.14 120.965 111.7C121.698 111.247 122.552 111.02 123.525 111.02ZM123.525 112.66C122.765 112.66 122.152 112.907 121.685 113.4C121.232 113.893 120.965 114.593 120.885 115.5H125.965C125.965 114.94 125.878 114.447 125.705 114.02C125.532 113.593 125.265 113.26 124.905 113.02C124.545 112.78 124.085 112.66 123.525 112.66ZM132.85 122H130.73V106.8H132.85V122Z" fill="white"/>
<path d="M151 123.25C150.648 123.25 150.336 123.133 150.102 122.898C149.594 122.43 149.594 121.609 150.102 121.141L156.703 114.5L150.102 107.898C149.594 107.43 149.594 106.609 150.102 106.141C150.57 105.633 151.391 105.633 151.859 106.141L159.359 113.641C159.867 114.109 159.867 114.93 159.359 115.398L151.859 122.898C151.625 123.133 151.312 123.25 151 123.25Z" fill="white"/>
<path d="M20.5726 16.3194C22.1592 16.3194 23.355 16.5562 24.1602 17.0298C24.9771 17.4915 25.3856 18.3026 25.3856 19.4629C25.3856 20.2088 25.1784 20.8304 24.764 21.3277C24.3496 21.8131 23.7517 22.1269 22.9702 22.269V22.3578C23.503 22.4406 23.9826 22.5946 24.4088 22.8195C24.8469 23.0445 25.1902 23.3642 25.4389 23.7786C25.6875 24.193 25.8118 24.7317 25.8118 25.3947C25.8118 26.5432 25.4152 27.4312 24.6219 28.0587C23.8405 28.6862 22.769 29 21.4074 29H16.9496V16.3194H20.5726ZM20.8923 21.7184C21.9816 21.7184 22.7275 21.5467 23.1301 21.2034C23.5326 20.8482 23.7339 20.3272 23.7339 19.6405C23.7339 18.9419 23.4853 18.4446 22.988 18.1486C22.5026 17.8408 21.7211 17.6869 20.6437 17.6869H18.548V21.7184H20.8923ZM18.548 23.0504V27.6502H21.1054C22.2302 27.6502 23.0117 27.4312 23.4498 26.9931C23.8878 26.555 24.1069 25.9808 24.1069 25.2704C24.1069 24.6074 23.876 24.0746 23.4142 23.672C22.9643 23.2576 22.1533 23.0504 20.9811 23.0504H18.548ZM36.2439 19.4806V29H34.9652L34.7343 27.739H34.6633C34.3554 28.2363 33.9292 28.6034 33.3845 28.8402C32.8399 29.0651 32.2597 29.1776 31.6441 29.1776C30.4956 29.1776 29.6313 28.9053 29.0511 28.3606C28.4709 27.8042 28.1809 26.9221 28.1809 25.7144V19.4806H29.7615V25.6078C29.7615 27.1234 30.466 27.8811 31.8749 27.8811C32.9287 27.8811 33.6569 27.5851 34.0594 26.9931C34.4738 26.4011 34.681 25.5486 34.681 24.4357V19.4806H36.2439ZM42.445 27.8989C42.6818 27.8989 42.9246 27.8811 43.1732 27.8456C43.4218 27.7982 43.6231 27.7509 43.777 27.7035V28.8934C43.6113 28.9763 43.3745 29.0414 43.0666 29.0888C42.7588 29.148 42.4628 29.1776 42.1786 29.1776C41.6814 29.1776 41.2196 29.0947 40.7934 28.929C40.379 28.7514 40.0415 28.4494 39.781 28.0232C39.5206 27.597 39.3903 26.999 39.3903 26.2294V20.6883H38.0406V19.9424L39.4081 19.3208L40.0297 17.2962H40.9532V19.4806H43.706V20.6883H40.9532V26.1939C40.9532 26.7741 41.0894 27.2062 41.3617 27.4904C41.6458 27.7627 42.007 27.8989 42.445 27.8989ZM48.8622 27.8989C49.099 27.8989 49.3418 27.8811 49.5904 27.8456C49.839 27.7982 50.0403 27.7509 50.1942 27.7035V28.8934C50.0285 28.9763 49.7917 29.0414 49.4838 29.0888C49.176 29.148 48.88 29.1776 48.5958 29.1776C48.0986 29.1776 47.6368 29.0947 47.2106 28.929C46.7962 28.7514 46.4587 28.4494 46.1982 28.0232C45.9378 27.597 45.8075 26.999 45.8075 26.2294V20.6883H44.4578V19.9424L45.8253 19.3208L46.4469 17.2962H47.3704V19.4806H50.1232V20.6883H47.3704V26.1939C47.3704 26.7741 47.5066 27.2062 47.7789 27.4904C48.063 27.7627 48.4242 27.8989 48.8622 27.8989ZM60.3765 24.2226C60.3765 25.7973 59.974 27.0168 59.1689 27.8811C58.3756 28.7454 57.2981 29.1776 55.9365 29.1776C55.0959 29.1776 54.3441 28.9882 53.681 28.6093C53.0298 28.2186 52.5148 27.6562 52.1359 26.9221C51.757 26.1762 51.5676 25.2763 51.5676 24.2226C51.5676 22.6478 51.9642 21.4342 52.7575 20.5818C53.5508 19.7293 54.6282 19.303 55.9898 19.303C56.8541 19.303 57.6119 19.4984 58.2631 19.8891C58.9261 20.268 59.4412 20.8245 59.8082 21.5586C60.1871 22.2808 60.3765 23.1688 60.3765 24.2226ZM53.1837 24.2226C53.1837 25.3474 53.4028 26.2413 53.8409 26.9043C54.2908 27.5555 55.0012 27.8811 55.9721 27.8811C56.9311 27.8811 57.6356 27.5555 58.0855 26.9043C58.5354 26.2413 58.7604 25.3474 58.7604 24.2226C58.7604 23.0978 58.5354 22.2157 58.0855 21.5763C57.6356 20.937 56.9252 20.6173 55.9543 20.6173C54.9834 20.6173 54.2789 20.937 53.8409 21.5763C53.4028 22.2157 53.1837 23.0978 53.1837 24.2226ZM67.4356 19.303C68.5722 19.303 69.4306 19.5813 70.0108 20.1378C70.5909 20.6824 70.881 21.5704 70.881 22.8018V29H69.3359V22.9083C69.3359 21.381 68.6255 20.6173 67.2047 20.6173C66.1509 20.6173 65.4228 20.9133 65.0202 21.5053C64.6177 22.0973 64.4164 22.9498 64.4164 24.0627V29H62.8535V19.4806H64.1145L64.3453 20.7771H64.4341C64.742 20.2798 65.1682 19.9128 65.7129 19.676C66.2575 19.4274 66.8317 19.303 67.4356 19.303ZM80.0084 29H78.4455V15.5024H80.0084V29ZM86.6296 19.3208C87.7899 19.3208 88.6483 19.5754 89.2048 20.0845C89.7612 20.5936 90.0395 21.4046 90.0395 22.5176V29H88.9028L88.6009 27.6502H88.5299C88.1155 28.1712 87.6774 28.556 87.2156 28.8046C86.7657 29.0533 86.1382 29.1776 85.3331 29.1776C84.4688 29.1776 83.7524 28.9526 83.1841 28.5027C82.6158 28.041 82.3316 27.3246 82.3316 26.3538C82.3316 25.4066 82.7046 24.6784 83.4505 24.1693C84.1964 23.6483 85.3449 23.3642 86.896 23.3168L88.5121 23.2635V22.6952C88.5121 21.9019 88.3404 21.3514 87.9971 21.0435C87.6537 20.7357 87.1683 20.5818 86.5408 20.5818C86.0435 20.5818 85.5699 20.6587 85.12 20.8126C84.67 20.9547 84.2497 21.1205 83.859 21.3099L83.3795 20.1378C83.7939 19.9128 84.2852 19.7234 84.8536 19.5694C85.4219 19.4037 86.0139 19.3208 86.6296 19.3208ZM87.0913 24.4002C85.9073 24.4475 85.0844 24.637 84.6227 24.9685C84.1728 25.3 83.9478 25.7677 83.9478 26.3715C83.9478 26.9043 84.1076 27.295 84.4273 27.5437C84.7588 27.7923 85.1792 27.9166 85.6883 27.9166C86.4934 27.9166 87.1624 27.6976 87.6952 27.2595C88.228 26.8096 88.4944 26.1229 88.4944 25.1994V24.3469L87.0913 24.4002ZM94.5425 18.788C94.5425 19.1906 94.5306 19.5694 94.507 19.9246C94.4951 20.268 94.4774 20.5403 94.4537 20.7416H94.5425C94.8148 20.339 95.1878 20.0016 95.6614 19.7293C96.135 19.457 96.7447 19.3208 97.4906 19.3208C98.6746 19.3208 99.6218 19.7352 100.332 20.564C101.054 21.381 101.416 22.6064 101.416 24.2403C101.416 25.8742 101.054 27.1056 100.332 27.9344C99.61 28.7632 98.6628 29.1776 97.4906 29.1776C96.7447 29.1776 96.135 29.0414 95.6614 28.7691C95.1878 28.4968 94.8148 28.1712 94.5425 27.7923H94.4182L94.0985 29H92.9796V15.5024H94.5425V18.788ZM97.2242 20.6173C96.2178 20.6173 95.5193 20.9074 95.1286 21.4875C94.7378 22.0677 94.5425 22.9675 94.5425 24.187V24.2581C94.5425 25.4302 94.7319 26.3301 95.1108 26.9576C95.5015 27.5733 96.2178 27.8811 97.2598 27.8811C98.1122 27.8811 98.7457 27.5674 99.1601 26.9398C99.5863 26.3123 99.7994 25.4066 99.7994 24.2226C99.7994 21.819 98.941 20.6173 97.2242 20.6173ZM107.582 19.303C108.399 19.303 109.098 19.4806 109.678 19.8358C110.27 20.191 110.72 20.6942 111.028 21.3454C111.348 21.9848 111.507 22.7366 111.507 23.601V24.5422H104.99C105.013 25.6197 105.286 26.4426 105.806 27.0109C106.339 27.5674 107.079 27.8456 108.026 27.8456C108.63 27.8456 109.163 27.7923 109.625 27.6858C110.098 27.5674 110.584 27.4016 111.081 27.1885V28.556C110.596 28.7691 110.116 28.923 109.643 29.0178C109.169 29.1243 108.607 29.1776 107.955 29.1776C107.056 29.1776 106.256 28.9941 105.558 28.627C104.871 28.26 104.332 27.7154 103.942 26.9931C103.563 26.259 103.373 25.3651 103.373 24.3114C103.373 23.2694 103.545 22.3755 103.888 21.6296C104.244 20.8837 104.735 20.3094 105.362 19.9069C106.002 19.5043 106.742 19.303 107.582 19.303ZM107.565 20.5818C106.819 20.5818 106.227 20.8245 105.789 21.3099C105.362 21.7835 105.108 22.4466 105.025 23.299H109.874C109.862 22.4939 109.672 21.8427 109.305 21.3454C108.938 20.8363 108.358 20.5818 107.565 20.5818ZM115.494 29H113.931V15.5024H115.494V29Z" fill="black"/>
<rect x="1" y="1" width="130" height="42" stroke="#B3800F" stroke-width="2"/>
<g filter="url(#filter0_d_2930_10476)">
<line x1="67" y1="44" x2="67" y2="108" stroke="#B3800F" stroke-width="2"/>
</g>
<g filter="url(#filter1_d_2930_10476)">
<path d="M153.5 140V196" stroke="#B3800F" stroke-width="2"/>
</g>
<path d="M141.009 225H136.427V224.076L137.919 223.739V213.598L136.427 213.243V212.319H141.009V213.243L139.518 213.598V223.739L141.009 224.076V225ZM147.063 225.178C146.223 225.178 145.471 225.006 144.808 224.663C144.156 224.319 143.641 223.786 143.263 223.064C142.895 222.342 142.712 221.418 142.712 220.294C142.712 219.121 142.907 218.168 143.298 217.434C143.689 216.7 144.216 216.161 144.879 215.818C145.554 215.475 146.317 215.303 147.17 215.303C147.655 215.303 148.123 215.356 148.573 215.463C149.023 215.558 149.39 215.676 149.674 215.818L149.194 217.115C148.91 217.008 148.579 216.907 148.2 216.813C147.821 216.718 147.466 216.671 147.134 216.671C145.263 216.671 144.328 217.872 144.328 220.276C144.328 221.424 144.553 222.306 145.003 222.922C145.465 223.526 146.146 223.828 147.045 223.828C147.566 223.828 148.022 223.775 148.413 223.668C148.815 223.561 149.183 223.431 149.514 223.277V224.663C149.194 224.828 148.839 224.953 148.448 225.036C148.07 225.13 147.608 225.178 147.063 225.178ZM160.054 220.223C160.054 221.797 159.651 223.017 158.846 223.881C158.053 224.745 156.976 225.178 155.614 225.178C154.773 225.178 154.022 224.988 153.359 224.609C152.707 224.219 152.192 223.656 151.813 222.922C151.435 222.176 151.245 221.276 151.245 220.223C151.245 218.648 151.642 217.434 152.435 216.582C153.228 215.729 154.306 215.303 155.667 215.303C156.532 215.303 157.289 215.498 157.941 215.889C158.604 216.268 159.119 216.824 159.486 217.559C159.865 218.281 160.054 219.169 160.054 220.223ZM152.861 220.223C152.861 221.347 153.08 222.241 153.518 222.904C153.968 223.556 154.679 223.881 155.65 223.881C156.609 223.881 157.313 223.556 157.763 222.904C158.213 222.241 158.438 221.347 158.438 220.223C158.438 219.098 158.213 218.216 157.763 217.576C157.313 216.937 156.603 216.617 155.632 216.617C154.661 216.617 153.956 216.937 153.518 217.576C153.08 218.216 152.861 219.098 152.861 220.223ZM167.113 215.303C168.25 215.303 169.108 215.581 169.688 216.138C170.268 216.682 170.559 217.57 170.559 218.802V225H169.013V218.908C169.013 217.381 168.303 216.617 166.882 216.617C165.828 216.617 165.1 216.913 164.698 217.505C164.295 218.097 164.094 218.95 164.094 220.063V225H162.531V215.481H163.792L164.023 216.777H164.112C164.419 216.28 164.846 215.913 165.39 215.676C165.935 215.427 166.509 215.303 167.113 215.303Z" fill="black"/>
<rect x="121" y="197" width="65" height="42" stroke="#B3800F" stroke-width="2"/>
<g filter="url(#filter2_d_2930_10476)">
<path d="M56.5 150V196" stroke="#B3800F" stroke-width="2"/>
</g>
<path d="M22.9132 213.545C21.5516 213.545 20.4801 214.001 19.6987 214.912C18.9172 215.824 18.5265 217.073 18.5265 218.66C18.5265 220.234 18.8876 221.484 19.6099 222.407C20.3439 223.319 21.4391 223.775 22.8955 223.775C23.4519 223.775 23.9788 223.727 24.4761 223.632C24.9734 223.538 25.4588 223.419 25.9324 223.277V224.663C25.4588 224.84 24.9675 224.97 24.4583 225.053C23.9611 225.136 23.3631 225.178 22.6646 225.178C21.374 225.178 20.2966 224.911 19.4323 224.378C18.5679 223.846 17.9167 223.088 17.4787 222.105C17.0524 221.122 16.8393 219.968 16.8393 218.642C16.8393 217.363 17.0702 216.238 17.5319 215.268C18.0055 214.285 18.6982 213.521 19.6099 212.976C20.5215 212.42 21.6286 212.142 22.931 212.142C24.2689 212.142 25.4351 212.39 26.4297 212.888L25.7903 214.237C25.3996 214.06 24.9615 213.9 24.4761 213.758C24.0025 213.616 23.4815 213.545 22.9132 213.545ZM36.7631 220.223C36.7631 221.797 36.3605 223.017 35.5554 223.881C34.7621 224.745 33.6847 225.178 32.3231 225.178C31.4825 225.178 30.7306 224.988 30.0676 224.609C29.4164 224.219 28.9013 223.656 28.5225 222.922C28.1436 222.176 27.9541 221.276 27.9541 220.223C27.9541 218.648 28.3508 217.434 29.1441 216.582C29.9373 215.729 31.0148 215.303 32.3764 215.303C33.2407 215.303 33.9985 215.498 34.6497 215.889C35.3127 216.268 35.8277 216.824 36.1948 217.559C36.5737 218.281 36.7631 219.169 36.7631 220.223ZM29.5703 220.223C29.5703 221.347 29.7893 222.241 30.2274 222.904C30.6773 223.556 31.3877 223.881 32.3586 223.881C33.3177 223.881 34.0221 223.556 34.4721 222.904C34.922 222.241 35.1469 221.347 35.1469 220.223C35.1469 219.098 34.922 218.216 34.4721 217.576C34.0221 216.937 33.3117 216.617 32.3409 216.617C31.37 216.617 30.6655 216.937 30.2274 217.576C29.7893 218.216 29.5703 219.098 29.5703 220.223ZM43.8221 215.303C44.9588 215.303 45.8172 215.581 46.3973 216.138C46.9775 216.682 47.2676 217.57 47.2676 218.802V225H45.7225V218.908C45.7225 217.381 45.0121 216.617 43.5913 216.617C42.5375 216.617 41.8093 216.913 41.4068 217.505C41.0042 218.097 40.8029 218.95 40.8029 220.063V225H39.2401V215.481H40.501L40.7319 216.777H40.8207C41.1285 216.28 41.5548 215.913 42.0994 215.676C42.6441 215.427 43.2183 215.303 43.8221 215.303ZM53.3977 223.899C53.6345 223.899 53.8772 223.881 54.1259 223.846C54.3745 223.798 54.5758 223.751 54.7297 223.704V224.893C54.5639 224.976 54.3271 225.041 54.0193 225.089C53.7115 225.148 53.4155 225.178 53.1313 225.178C52.634 225.178 52.1723 225.095 51.746 224.929C51.3316 224.751 50.9942 224.449 50.7337 224.023C50.4732 223.597 50.343 222.999 50.343 222.229V216.688H48.9932V215.942L50.3607 215.321L50.9823 213.296H51.9059V215.481H54.6587V216.688H51.9059V222.194C51.9059 222.774 52.042 223.206 52.3143 223.49C52.5985 223.763 52.9596 223.899 53.3977 223.899ZM60.2411 215.321C61.4014 215.321 62.2598 215.575 62.8163 216.084C63.3728 216.594 63.651 217.405 63.651 218.518V225H62.5144L62.2125 223.65H62.1414C61.727 224.171 61.289 224.556 60.8272 224.805C60.3773 225.053 59.7498 225.178 58.9446 225.178C58.0803 225.178 57.364 224.953 56.7957 224.503C56.2274 224.041 55.9432 223.325 55.9432 222.354C55.9432 221.407 56.3162 220.678 57.0621 220.169C57.808 219.648 58.9565 219.364 60.5075 219.317L62.1237 219.264V218.695C62.1237 217.902 61.952 217.351 61.6086 217.044C61.2653 216.736 60.7798 216.582 60.1523 216.582C59.655 216.582 59.1814 216.659 58.7315 216.813C58.2816 216.955 57.8613 217.12 57.4706 217.31L56.991 216.138C57.4054 215.913 57.8968 215.723 58.4651 215.569C59.0334 215.404 59.6254 215.321 60.2411 215.321ZM60.7029 220.4C59.5189 220.448 58.696 220.637 58.2342 220.968C57.7843 221.3 57.5594 221.768 57.5594 222.372C57.5594 222.904 57.7192 223.295 58.0389 223.544C58.3704 223.792 58.7907 223.917 59.2998 223.917C60.105 223.917 60.7739 223.698 61.3067 223.26C61.8395 222.81 62.1059 222.123 62.1059 221.199V220.347L60.7029 220.4ZM67.3904 211.911C67.6272 211.911 67.8344 211.994 68.012 212.16C68.2014 212.313 68.2961 212.562 68.2961 212.905C68.2961 213.237 68.2014 213.486 68.012 213.651C67.8344 213.817 67.6272 213.9 67.3904 213.9C67.1299 213.9 66.9108 213.817 66.7332 213.651C66.5556 213.486 66.4668 213.237 66.4668 212.905C66.4668 212.562 66.5556 212.313 66.7332 212.16C66.9108 211.994 67.1299 211.911 67.3904 211.911ZM68.154 215.481V225H66.5912V215.481H68.154ZM75.752 215.303C76.8886 215.303 77.747 215.581 78.3272 216.138C78.9074 216.682 79.1974 217.57 79.1974 218.802V225H77.6523V218.908C77.6523 217.381 76.9419 216.617 75.5211 216.617C74.4674 216.617 73.7392 216.913 73.3366 217.505C72.9341 218.097 72.7328 218.95 72.7328 220.063V225H71.1699V215.481H72.4309L72.6618 216.777H72.7506C73.0584 216.28 73.4846 215.913 74.0293 215.676C74.5739 215.427 75.1482 215.303 75.752 215.303ZM85.8248 215.303C86.6418 215.303 87.3403 215.481 87.9205 215.836C88.5125 216.191 88.9624 216.694 89.2703 217.345C89.5899 217.985 89.7498 218.737 89.7498 219.601V220.542H83.2319C83.2555 221.62 83.5279 222.443 84.0488 223.011C84.5816 223.567 85.3216 223.846 86.2688 223.846C86.8727 223.846 87.4055 223.792 87.8672 223.686C88.3408 223.567 88.8263 223.402 89.3235 223.188V224.556C88.8381 224.769 88.3586 224.923 87.885 225.018C87.4114 225.124 86.849 225.178 86.1978 225.178C85.2979 225.178 84.4987 224.994 83.8002 224.627C83.1135 224.26 82.5747 223.715 82.184 222.993C81.8051 222.259 81.6157 221.365 81.6157 220.311C81.6157 219.269 81.7874 218.376 82.1307 217.63C82.4859 216.884 82.9773 216.309 83.6048 215.907C84.2442 215.504 84.9842 215.303 85.8248 215.303ZM85.8071 216.582C85.0611 216.582 84.4691 216.824 84.0311 217.31C83.6048 217.784 83.3503 218.447 83.2674 219.299H88.1159C88.104 218.494 87.9146 217.843 87.5475 217.345C87.1805 216.836 86.6003 216.582 85.8071 216.582ZM96.6132 215.303C96.7908 215.303 96.9802 215.315 97.1815 215.339C97.3946 215.35 97.5781 215.374 97.7321 215.41L97.5367 216.848C97.3828 216.813 97.2111 216.783 97.0217 216.759C96.8441 216.736 96.6724 216.724 96.5066 216.724C96.0212 216.724 95.5653 216.86 95.1391 217.132C94.7129 217.393 94.3695 217.766 94.109 218.251C93.8604 218.725 93.7361 219.281 93.7361 219.921V225H92.1732V215.481H93.4519L93.6295 217.221H93.7005C94.0084 216.7 94.405 216.25 94.8905 215.871C95.3759 215.492 95.9501 215.303 96.6132 215.303Z" fill="black"/>
<rect x="1" y="197" width="111" height="42" stroke="#B3800F" stroke-width="2"/>
<defs>
<filter id="filter0_d_2930_10476" x="66" y="44" width="4" height="64" filterUnits="userSpaceOnUse" color-interpolation-filters="sRGB">
<feFlood flood-opacity="0" result="BackgroundImageFix"/>
<feColorMatrix in="SourceAlpha" type="matrix" values="0 0 0 0 0 0 0 0 0 0 0 0 0 0 0 0 0 0 127 0" result="hardAlpha"/>
<feOffset dx="2"/>
<feComposite in2="hardAlpha" operator="out"/>
<feColorMatrix type="matrix" values="0 0 0 0 1 0 0 0 0 1 0 0 0 0 1 0 0 0 1 0"/>
<feBlend mode="normal" in2="BackgroundImageFix" result="effect1_dropShadow_2930_10476"/>
<feBlend mode="normal" in="SourceGraphic" in2="effect1_dropShadow_2930_10476" result="shape"/>
</filter>
<filter id="filter1_d_2930_10476" x="152.5" y="140" width="4" height="56" filterUnits="userSpaceOnUse" color-interpolation-filters="sRGB">
<feFlood flood-opacity="0" result="BackgroundImageFix"/>
<feColorMatrix in="SourceAlpha" type="matrix" values="0 0 0 0 0 0 0 0 0 0 0 0 0 0 0 0 0 0 127 0" result="hardAlpha"/>
<feOffset dx="2"/>
<feComposite in2="hardAlpha" operator="out"/>
<feColorMatrix type="matrix" values="0 0 0 0 1 0 0 0 0 1 0 0 0 0 1 0 0 0 1 0"/>
<feBlend mode="normal" in2="BackgroundImageFix" result="effect1_dropShadow_2930_10476"/>
<feBlend mode="normal" in="SourceGraphic" in2="effect1_dropShadow_2930_10476" result="shape"/>
</filter>
<filter id="filter2_d_2930_10476" x="55.5" y="150" width="4" height="46" filterUnits="userSpaceOnUse" color-interpolation-filters="sRGB">
<feFlood flood-opacity="0" result="BackgroundImageFix"/>
<feColorMatrix in="SourceAlpha" type="matrix" values="0 0 0 0 0 0 0 0 0 0 0 0 0 0 0 0 0 0 127 0" result="hardAlpha"/>
<feOffset dx="2"/>
<feComposite in2="hardAlpha" operator="out"/>
<feColorMatrix type="matrix" values="0 0 0 0 1 0 0 0 0 1 0 0 0 0 1 0 0 0 1 0"/>
<feBlend mode="normal" in2="BackgroundImageFix" result="effect1_dropShadow_2930_10476"/>
<feBlend mode="normal" in="SourceGraphic" in2="effect1_dropShadow_2930_10476" result="shape"/>
</filter>
</defs>
</svg>
