<svg width="564" height="142" viewBox="0 0 564 142" fill="none" xmlns="http://www.w3.org/2000/svg">
<path d="M17.712 71H16.288V65.672H10.88V71H9.456V59.576H10.88V64.408H16.288V59.576H17.712V71ZM21.8595 62.424V71H20.4675V62.424H21.8595ZM21.1715 59.208C21.3848 59.208 21.5715 59.2827 21.7315 59.432C21.8915 59.5707 21.9715 59.7947 21.9715 60.104C21.9715 60.4027 21.8915 60.6267 21.7315 60.776C21.5715 60.9253 21.3848 61 21.1715 61C20.9475 61 20.7555 60.9253 20.5955 60.776C20.4355 60.6267 20.3555 60.4027 20.3555 60.104C20.3555 59.7947 20.4355 59.5707 20.5955 59.432C20.7555 59.2827 20.9475 59.208 21.1715 59.208ZM28.325 62.264C29.285 62.264 30.0103 62.5147 30.501 63.016C31.0023 63.5067 31.253 64.3067 31.253 65.416V71H29.861V65.512C29.861 64.8187 29.717 64.3013 29.429 63.96C29.141 63.6187 28.6983 63.448 28.101 63.448C27.2263 63.448 26.6183 63.7147 26.277 64.248C25.9463 64.7813 25.781 65.5493 25.781 66.552V71H24.389V62.424H25.509L25.717 63.592H25.797C25.9677 63.2933 26.1863 63.048 26.453 62.856C26.7197 62.6533 27.013 62.504 27.333 62.408C27.653 62.312 27.9837 62.264 28.325 62.264ZM36.5008 70.008C36.7034 70.008 36.9114 69.992 37.1248 69.96C37.3381 69.9173 37.5141 69.8747 37.6528 69.832V70.904C37.5034 70.9787 37.2901 71.0373 37.0128 71.08C36.7461 71.1333 36.4901 71.16 36.2448 71.16C35.8181 71.16 35.4234 71.0853 35.0608 70.936C34.6981 70.776 34.4048 70.504 34.1808 70.12C33.9674 69.736 33.8608 69.1973 33.8608 68.504V63.512H32.7248V62.84L33.8928 62.28L34.4208 60.456H35.2528V62.424H37.5888V63.512H35.2528V68.472C35.2528 68.9947 35.3701 69.384 35.6048 69.64C35.8394 69.8853 36.1381 70.008 36.5008 70.008ZM45.9226 70.008C46.1253 70.008 46.3333 69.992 46.5466 69.96C46.76 69.9173 46.936 69.8747 47.0746 69.832V70.904C46.9253 70.9787 46.712 71.0373 46.4346 71.08C46.168 71.1333 45.912 71.16 45.6666 71.16C45.24 71.16 44.8453 71.0853 44.4826 70.936C44.12 70.776 43.8266 70.504 43.6026 70.12C43.3893 69.736 43.2826 69.1973 43.2826 68.504V63.512H42.1466V62.84L43.3146 62.28L43.8426 60.456H44.6746V62.424H47.0106V63.512H44.6746V68.472C44.6746 68.9947 44.792 69.384 45.0266 69.64C45.2613 69.8853 45.56 70.008 45.9226 70.008ZM51.8063 62.264C52.4996 62.264 53.0969 62.424 53.5983 62.744C54.0996 63.064 54.4836 63.5173 54.7503 64.104C55.0276 64.68 55.1663 65.3573 55.1663 66.136V66.984H49.6623C49.6836 67.9547 49.9129 68.696 50.3503 69.208C50.7876 69.7093 51.4009 69.96 52.1903 69.96C52.7023 69.96 53.1556 69.912 53.5503 69.816C53.9556 69.7093 54.3716 69.56 54.7983 69.368V70.6C54.3823 70.792 53.9716 70.9307 53.5663 71.016C53.1716 71.112 52.6916 71.16 52.1263 71.16C51.3583 71.16 50.6809 70.9947 50.0943 70.664C49.5076 70.3333 49.0489 69.8427 48.7183 69.192C48.3876 68.5307 48.2223 67.7253 48.2223 66.776C48.2223 65.8373 48.3716 65.032 48.6703 64.36C48.9689 63.688 49.3849 63.1707 49.9183 62.808C50.4623 62.4453 51.0916 62.264 51.8063 62.264ZM51.8063 63.416C51.1876 63.416 50.6969 63.6347 50.3343 64.072C49.9716 64.4987 49.7583 65.096 49.6943 65.864H53.7263C53.7263 65.3733 53.6569 64.9467 53.5183 64.584C53.3796 64.2213 53.1663 63.9387 52.8783 63.736C52.6009 63.5227 52.2436 63.416 51.8063 63.416ZM58.793 66.616L56.009 62.424H57.593L59.641 65.656L61.657 62.424H63.241L60.457 66.616L63.385 71H61.801L59.641 67.576L57.449 71H55.881L58.793 66.616ZM67.6726 70.008C67.8753 70.008 68.0833 69.992 68.2966 69.96C68.51 69.9173 68.686 69.8747 68.8246 69.832V70.904C68.6753 70.9787 68.462 71.0373 68.1846 71.08C67.918 71.1333 67.662 71.16 67.4166 71.16C66.99 71.16 66.5953 71.0853 66.2326 70.936C65.87 70.776 65.5766 70.504 65.3526 70.12C65.1393 69.736 65.0326 69.1973 65.0326 68.504V63.512H63.8966V62.84L65.0646 62.28L65.5926 60.456H66.4246V62.424H68.7606V63.512H66.4246V68.472C66.4246 68.9947 66.542 69.384 66.7766 69.64C67.0113 69.8853 67.31 70.008 67.6726 70.008Z" fill="black"/>
<rect x="1" y="47" width="76" height="36" stroke="#FFC418" stroke-width="2"/>
<line x1="150" y1="66" x2="78" y2="66" stroke="#FFC418" stroke-width="2"/>
<path d="M32.456 25V13.576H33.88V23.72H38.552V25H32.456ZM43.2895 16.28C44.2708 16.28 45.0015 16.5093 45.4815 16.968C45.9722 17.4267 46.2175 18.1573 46.2175 19.16V25H45.2095L44.9375 23.784H44.8735C44.6388 24.0933 44.3988 24.3547 44.1535 24.568C43.9188 24.7707 43.6415 24.92 43.3215 25.016C43.0122 25.112 42.6282 25.16 42.1695 25.16C41.6895 25.16 41.2575 25.0693 40.8735 24.888C40.4895 24.7067 40.1855 24.4293 39.9615 24.056C39.7375 23.672 39.6255 23.192 39.6255 22.616C39.6255 21.7627 39.9402 21.1067 40.5695 20.648C41.1988 20.1787 42.1695 19.9227 43.4815 19.88L44.8415 19.832V19.32C44.8415 18.6053 44.6975 18.1093 44.4095 17.832C44.1322 17.5547 43.7322 17.416 43.2095 17.416C42.7935 17.416 42.3935 17.4853 42.0095 17.624C41.6362 17.752 41.2788 17.9013 40.9375 18.072L40.5055 17.016C40.8682 16.8133 41.2895 16.6427 41.7695 16.504C42.2495 16.3547 42.7562 16.28 43.2895 16.28ZM43.6735 20.856C42.6922 20.8987 42.0095 21.0693 41.6255 21.368C41.2522 21.6667 41.0655 22.088 41.0655 22.632C41.0655 23.112 41.1988 23.464 41.4655 23.688C41.7322 23.912 42.0788 24.024 42.5055 24.024C43.1668 24.024 43.7215 23.8267 44.1695 23.432C44.6175 23.0267 44.8415 22.408 44.8415 21.576V20.808L43.6735 20.856ZM50.0935 15.8C50.0935 16.1627 50.0828 16.504 50.0615 16.824C50.0508 17.1333 50.0348 17.3787 50.0135 17.56H50.0935C50.3175 17.1973 50.6322 16.8933 51.0375 16.648C51.4428 16.4027 51.9548 16.28 52.5735 16.28C53.5762 16.28 54.3762 16.6533 54.9735 17.4C55.5815 18.136 55.8855 19.24 55.8855 20.712C55.8855 21.6933 55.7468 22.5147 55.4695 23.176C55.1922 23.8373 54.8028 24.3333 54.3015 24.664C53.8108 24.9947 53.2348 25.16 52.5735 25.16C51.9442 25.16 51.4268 25.0373 51.0215 24.792C50.6268 24.5467 50.3175 24.2533 50.0935 23.912H49.9815L49.7095 25H48.7015V12.84H50.0935V15.8ZM52.3175 17.448C51.7628 17.448 51.3202 17.5653 50.9895 17.8C50.6695 18.024 50.4402 18.376 50.3015 18.856C50.1628 19.3253 50.0935 19.928 50.0935 20.664V20.728C50.0935 21.784 50.2482 22.5947 50.5575 23.16C50.8775 23.7147 51.4748 23.992 52.3495 23.992C53.0428 23.992 53.5655 23.7093 53.9175 23.144C54.2695 22.5787 54.4455 21.7627 54.4455 20.696C54.4455 19.6187 54.2695 18.808 53.9175 18.264C53.5655 17.72 53.0322 17.448 52.3175 17.448ZM61.1031 16.264C61.7965 16.264 62.3938 16.424 62.8951 16.744C63.3965 17.064 63.7805 17.5173 64.0471 18.104C64.3245 18.68 64.4631 19.3573 64.4631 20.136V20.984H58.9591C58.9805 21.9547 59.2098 22.696 59.6471 23.208C60.0845 23.7093 60.6978 23.96 61.4871 23.96C61.9991 23.96 62.4525 23.912 62.8471 23.816C63.2525 23.7093 63.6685 23.56 64.0951 23.368V24.6C63.6791 24.792 63.2685 24.9307 62.8631 25.016C62.4685 25.112 61.9885 25.16 61.4231 25.16C60.6551 25.16 59.9778 24.9947 59.3911 24.664C58.8045 24.3333 58.3458 23.8427 58.0151 23.192C57.6845 22.5307 57.5191 21.7253 57.5191 20.776C57.5191 19.8373 57.6685 19.032 57.9671 18.36C58.2658 17.688 58.6818 17.1707 59.2151 16.808C59.7591 16.4453 60.3885 16.264 61.1031 16.264ZM61.1031 17.416C60.4845 17.416 59.9938 17.6347 59.6311 18.072C59.2685 18.4987 59.0551 19.096 58.9911 19.864H63.0231C63.0231 19.3733 62.9538 18.9467 62.8151 18.584C62.6765 18.2213 62.4631 17.9387 62.1751 17.736C61.8978 17.5227 61.5405 17.416 61.1031 17.416ZM67.8748 25H66.4828V12.84H67.8748V25Z" fill="black"/>
<rect x="24" y="1" width="53" height="36" stroke="#FFC418" stroke-width="2"/>
<line x1="150" y1="20" x2="78" y2="20" stroke="#FFC418" stroke-width="2"/>
<path d="M38.88 129H37.456V117.576H43.472V118.84H38.88V122.888H43.184V124.152H38.88V129ZM46.5314 120.424V129H45.1394V120.424H46.5314ZM45.8434 117.208C46.0567 117.208 46.2434 117.283 46.4034 117.432C46.5634 117.571 46.6434 117.795 46.6434 118.104C46.6434 118.403 46.5634 118.627 46.4034 118.776C46.2434 118.925 46.0567 119 45.8434 119C45.6194 119 45.4274 118.925 45.2674 118.776C45.1074 118.627 45.0274 118.403 45.0274 118.104C45.0274 117.795 45.1074 117.571 45.2674 117.432C45.4274 117.283 45.6194 117.208 45.8434 117.208ZM52.1969 120.264C52.8902 120.264 53.4875 120.424 53.9889 120.744C54.4902 121.064 54.8742 121.517 55.1409 122.104C55.4182 122.68 55.5569 123.357 55.5569 124.136V124.984H50.0529C50.0742 125.955 50.3035 126.696 50.7409 127.208C51.1782 127.709 51.7915 127.96 52.5809 127.96C53.0929 127.96 53.5462 127.912 53.9409 127.816C54.3462 127.709 54.7622 127.56 55.1889 127.368V128.6C54.7729 128.792 54.3622 128.931 53.9569 129.016C53.5622 129.112 53.0822 129.16 52.5169 129.16C51.7489 129.16 51.0715 128.995 50.4849 128.664C49.8982 128.333 49.4395 127.843 49.1089 127.192C48.7782 126.531 48.6129 125.725 48.6129 124.776C48.6129 123.837 48.7622 123.032 49.0609 122.36C49.3595 121.688 49.7755 121.171 50.3089 120.808C50.8529 120.445 51.4822 120.264 52.1969 120.264ZM52.1969 121.416C51.5782 121.416 51.0875 121.635 50.7249 122.072C50.3622 122.499 50.1489 123.096 50.0849 123.864H54.1169C54.1169 123.373 54.0475 122.947 53.9089 122.584C53.7702 122.221 53.5569 121.939 53.2689 121.736C52.9915 121.523 52.6342 121.416 52.1969 121.416ZM58.9685 129H57.5765V116.84H58.9685V129ZM64.3464 129.16C63.3544 129.16 62.5544 128.792 61.9464 128.056C61.349 127.309 61.0504 126.2 61.0504 124.728C61.0504 123.256 61.3544 122.147 61.9624 121.4C62.5704 120.643 63.3704 120.264 64.3624 120.264C64.7784 120.264 65.141 120.323 65.4504 120.44C65.7597 120.547 66.0264 120.696 66.2504 120.888C66.485 121.08 66.6824 121.293 66.8424 121.528H66.9384C66.9277 121.389 66.9064 121.187 66.8744 120.92C66.853 120.643 66.8424 120.424 66.8424 120.264V116.84H68.2344V129H67.1144L66.9064 127.848H66.8424C66.6824 128.093 66.485 128.317 66.2504 128.52C66.0264 128.712 65.7544 128.867 65.4344 128.984C65.125 129.101 64.7624 129.16 64.3464 129.16ZM64.6024 127.992C65.4344 127.992 66.0157 127.747 66.3464 127.256C66.6877 126.755 66.8584 126.003 66.8584 125V124.744C66.8584 123.677 66.6984 122.861 66.3784 122.296C66.0584 121.72 65.461 121.432 64.5864 121.432C63.8824 121.432 63.3544 121.736 63.0024 122.344C62.661 122.941 62.4904 123.747 62.4904 124.76C62.4904 125.784 62.661 126.579 63.0024 127.144C63.3544 127.709 63.8877 127.992 64.6024 127.992Z" fill="black"/>
<rect x="29" y="105" width="48" height="36" stroke="#FFC418" stroke-width="2"/>
<line x1="150" y1="124" x2="78" y2="124" stroke="#FFC418" stroke-width="2"/>
<path d="M185.14 32H178.64V30.28L180.38 29.48V20.24L178.64 19.44V17.72H185.14V19.44L183.4 20.24V29.48L185.14 30.28V32ZM193.533 20.88C194.707 20.88 195.647 21.2 196.353 21.84C197.06 22.4667 197.413 23.48 197.413 24.88V32H194.433V25.62C194.433 24.8333 194.293 24.2467 194.013 23.86C193.733 23.46 193.287 23.26 192.673 23.26C191.767 23.26 191.147 23.5733 190.813 24.2C190.48 24.8133 190.313 25.7 190.313 26.86V32H187.333V21.08H189.613L190.013 22.48H190.173C190.52 21.92 190.993 21.5133 191.593 21.26C192.207 21.0067 192.853 20.88 193.533 20.88ZM206.558 20.88C207.785 20.88 208.778 21.36 209.538 22.32C210.298 23.2667 210.678 24.6667 210.678 26.52C210.678 28.3733 210.285 29.7867 209.498 30.76C208.711 31.72 207.705 32.2 206.478 32.2C205.691 32.2 205.065 32.06 204.598 31.78C204.131 31.4867 203.751 31.16 203.458 30.8H203.298C203.405 31.36 203.458 31.8933 203.458 32.4V36.8H200.478V21.08H202.898L203.318 22.5H203.458C203.751 22.06 204.145 21.68 204.638 21.36C205.131 21.04 205.771 20.88 206.558 20.88ZM205.598 23.26C204.825 23.26 204.278 23.5 203.958 23.98C203.651 24.46 203.485 25.1933 203.458 26.18V26.5C203.458 27.5533 203.611 28.3667 203.918 28.94C204.238 29.5 204.811 29.78 205.638 29.78C206.318 29.78 206.818 29.5 207.138 28.94C207.471 28.3667 207.638 27.5467 207.638 26.48C207.638 24.3333 206.958 23.26 205.598 23.26ZM223.154 21.08V32H220.874L220.474 30.6H220.314C219.968 31.16 219.488 31.5667 218.874 31.82C218.274 32.0733 217.634 32.2 216.954 32.2C215.781 32.2 214.841 31.8867 214.134 31.26C213.428 30.62 213.074 29.6 213.074 28.2V21.08H216.054V27.46C216.054 28.2333 216.194 28.82 216.474 29.22C216.754 29.62 217.201 29.82 217.814 29.82C218.721 29.82 219.341 29.5133 219.674 28.9C220.008 28.2733 220.174 27.38 220.174 26.22V21.08H223.154ZM230.879 29.82C231.212 29.82 231.532 29.7867 231.839 29.72C232.145 29.6533 232.452 29.5733 232.759 29.48V31.7C232.439 31.8333 232.039 31.9467 231.559 32.04C231.092 32.1467 230.579 32.2 230.019 32.2C229.365 32.2 228.779 32.0933 228.259 31.88C227.752 31.6667 227.345 31.3 227.039 30.78C226.745 30.2467 226.599 29.5133 226.599 28.58V23.32H225.179V22.06L226.819 21.06L227.679 18.76H229.579V21.08H232.639V23.32H229.579V28.58C229.579 28.9933 229.699 29.3067 229.939 29.52C230.179 29.72 230.492 29.82 230.879 29.82ZM243.126 32H240.146V16.8H243.126V32ZM250.72 20.86C252.186 20.86 253.306 21.18 254.08 21.82C254.866 22.4467 255.26 23.4133 255.26 24.72V32H253.18L252.6 30.52H252.52C252.053 31.1067 251.56 31.5333 251.04 31.8C250.52 32.0667 249.806 32.2 248.9 32.2C247.926 32.2 247.12 31.92 246.48 31.36C245.84 30.7867 245.52 29.9133 245.52 28.74C245.52 27.58 245.926 26.7267 246.74 26.18C247.553 25.62 248.773 25.3133 250.4 25.26L252.3 25.2V24.72C252.3 24.1467 252.146 23.7267 251.84 23.46C251.546 23.1933 251.133 23.06 250.6 23.06C250.066 23.06 249.546 23.14 249.04 23.3C248.533 23.4467 248.026 23.6333 247.52 23.86L246.54 21.84C247.126 21.5333 247.773 21.2933 248.48 21.12C249.2 20.9467 249.946 20.86 250.72 20.86ZM251.14 26.98C250.18 27.0067 249.513 27.18 249.14 27.5C248.766 27.82 248.58 28.24 248.58 28.76C248.58 29.2133 248.713 29.54 248.98 29.74C249.246 29.9267 249.593 30.02 250.02 30.02C250.66 30.02 251.2 29.8333 251.64 29.46C252.08 29.0733 252.3 28.5333 252.3 27.84V26.94L251.14 26.98ZM261.29 20.34C261.29 20.7533 261.277 21.16 261.25 21.56C261.223 21.96 261.197 22.2733 261.17 22.5H261.29C261.583 22.0467 261.977 21.6667 262.47 21.36C262.963 21.04 263.603 20.88 264.39 20.88C265.617 20.88 266.61 21.36 267.37 22.32C268.13 23.2667 268.51 24.6667 268.51 26.52C268.51 28.3867 268.123 29.8 267.35 30.76C266.577 31.72 265.563 32.2 264.31 32.2C263.51 32.2 262.877 32.06 262.41 31.78C261.957 31.4867 261.583 31.16 261.29 30.8H261.09L260.59 32H258.31V16.8H261.29V20.34ZM263.43 23.26C262.657 23.26 262.11 23.5 261.79 23.98C261.483 24.46 261.317 25.1933 261.29 26.18V26.5C261.29 27.5533 261.443 28.3667 261.75 28.94C262.07 29.5 262.643 29.78 263.47 29.78C264.083 29.78 264.57 29.5 264.93 28.94C265.29 28.3667 265.47 27.5467 265.47 26.48C265.47 25.4133 265.283 24.6133 264.91 24.08C264.55 23.5333 264.057 23.26 263.43 23.26ZM275.466 20.88C276.973 20.88 278.166 21.3133 279.046 22.18C279.926 23.0333 280.366 24.2533 280.366 25.84V27.28H273.326C273.353 28.12 273.6 28.78 274.066 29.26C274.546 29.74 275.206 29.98 276.046 29.98C276.753 29.98 277.393 29.9133 277.966 29.78C278.54 29.6333 279.133 29.4133 279.746 29.12V31.42C279.213 31.6867 278.646 31.88 278.046 32C277.46 32.1333 276.746 32.2 275.906 32.2C274.813 32.2 273.846 32 273.006 31.6C272.166 31.1867 271.506 30.5667 271.026 29.74C270.546 28.9133 270.306 27.8733 270.306 26.62C270.306 25.34 270.52 24.28 270.946 23.44C271.386 22.5867 271.993 21.9467 272.766 21.52C273.54 21.0933 274.44 20.88 275.466 20.88ZM275.486 23C274.913 23 274.433 23.1867 274.046 23.56C273.673 23.9333 273.453 24.5133 273.386 25.3H277.566C277.553 24.6333 277.38 24.0867 277.046 23.66C276.713 23.22 276.193 23 275.486 23ZM285.763 32H282.783V16.8H285.763V32Z" fill="black"/>
<path d="M190.86 69.4004H189.06V62.7404H181.74V69.4004H179.94V55.1204H181.74V61.1604H189.06V55.1204H190.86V69.4004ZM195.424 54.6604C195.691 54.6604 195.924 54.7537 196.124 54.9404C196.338 55.1137 196.444 55.3937 196.444 55.7804C196.444 56.1537 196.338 56.4337 196.124 56.6204C195.924 56.8071 195.691 56.9004 195.424 56.9004C195.131 56.9004 194.884 56.8071 194.684 56.6204C194.484 56.4337 194.384 56.1537 194.384 55.7804C194.384 55.3937 194.484 55.1137 194.684 54.9404C194.884 54.7537 195.131 54.6604 195.424 54.6604ZM196.284 58.6804V69.4004H194.524V58.6804H196.284ZM204.84 58.4804C206.12 58.4804 207.087 58.7937 207.74 59.4204C208.394 60.0337 208.72 61.0337 208.72 62.4204V69.4004H206.98V62.5404C206.98 60.8204 206.18 59.9604 204.58 59.9604C203.394 59.9604 202.574 60.2937 202.12 60.9604C201.667 61.6271 201.44 62.5871 201.44 63.8404V69.4004H199.68V58.6804H201.1L201.36 60.1404H201.46C201.807 59.5804 202.287 59.1671 202.9 58.9004C203.514 58.6204 204.16 58.4804 204.84 58.4804ZM215.624 68.1604C215.89 68.1604 216.164 68.1404 216.444 68.1004C216.724 68.0471 216.95 67.9937 217.124 67.9404V69.2804C216.937 69.3737 216.67 69.4471 216.324 69.5004C215.977 69.5671 215.644 69.6004 215.324 69.6004C214.764 69.6004 214.244 69.5071 213.764 69.3204C213.297 69.1204 212.917 68.7804 212.624 68.3004C212.33 67.8204 212.184 67.1471 212.184 66.2804V60.0404H210.664V59.2004L212.204 58.5004L212.904 56.2204H213.944V58.6804H217.044V60.0404H213.944V66.2404C213.944 66.8937 214.097 67.3804 214.404 67.7004C214.724 68.0071 215.13 68.1604 215.624 68.1604ZM230.006 55.1204L224.686 69.4004H222.966L228.286 55.1204H230.006ZM245.322 69.4004H237.342V55.1204H245.322V56.7004H239.142V61.1604H244.962V62.7204H239.142V67.8204H245.322V69.4004ZM250.756 63.9204L247.056 58.6804H249.056L251.816 62.7204L254.556 58.6804H256.536L252.836 63.9204L256.736 69.4004H254.736L251.816 65.1204L248.856 69.4004H246.876L250.756 63.9204ZM262.862 58.5004C264.168 58.5004 265.135 58.7871 265.762 59.3604C266.388 59.9337 266.702 60.8471 266.702 62.1004V69.4004H265.422L265.082 67.8804H265.002C264.535 68.4671 264.042 68.9004 263.522 69.1804C263.015 69.4604 262.308 69.6004 261.402 69.6004C260.428 69.6004 259.622 69.3471 258.982 68.8404C258.342 68.3204 258.022 67.5137 258.022 66.4204C258.022 65.3537 258.442 64.5337 259.282 63.9604C260.122 63.3737 261.415 63.0537 263.162 63.0004L264.982 62.9404V62.3004C264.982 61.4071 264.788 60.7871 264.402 60.4404C264.015 60.0937 263.468 59.9204 262.762 59.9204C262.202 59.9204 261.668 60.0071 261.162 60.1804C260.655 60.3404 260.182 60.5271 259.742 60.7404L259.202 59.4204C259.668 59.1671 260.222 58.9537 260.862 58.7804C261.502 58.5937 262.168 58.5004 262.862 58.5004ZM263.382 64.2204C262.048 64.2737 261.122 64.4871 260.602 64.8604C260.095 65.2337 259.842 65.7604 259.842 66.4404C259.842 67.0404 260.022 67.4804 260.382 67.7604C260.755 68.0404 261.228 68.1804 261.802 68.1804C262.708 68.1804 263.462 67.9337 264.062 67.4404C264.662 66.9337 264.962 66.1604 264.962 65.1204V64.1604L263.382 64.2204ZM281.773 58.4804C282.986 58.4804 283.893 58.7937 284.493 59.4204C285.093 60.0337 285.393 61.0337 285.393 62.4204V69.4004H283.653V62.5004C283.653 60.8071 282.926 59.9604 281.473 59.9604C280.433 59.9604 279.686 60.2604 279.233 60.8604C278.793 61.4604 278.573 62.3337 278.573 63.4804V69.4004H276.833V62.5004C276.833 60.8071 276.099 59.9604 274.633 59.9604C273.553 59.9604 272.806 60.2937 272.393 60.9604C271.979 61.6271 271.773 62.5871 271.773 63.8404V69.4004H270.013V58.6804H271.433L271.693 60.1404H271.793C272.126 59.5804 272.573 59.1671 273.133 58.9004C273.706 58.6204 274.313 58.4804 274.953 58.4804C276.633 58.4804 277.726 59.0804 278.233 60.2804H278.333C278.693 59.6671 279.179 59.2137 279.793 58.9204C280.419 58.6271 281.079 58.4804 281.773 58.4804ZM293.804 58.4804C295.124 58.4804 296.184 58.9404 296.984 59.8604C297.797 60.7804 298.204 62.1671 298.204 64.0204C298.204 65.8471 297.797 67.2337 296.984 68.1804C296.184 69.1271 295.117 69.6004 293.784 69.6004C292.957 69.6004 292.271 69.4471 291.724 69.1404C291.191 68.8204 290.771 68.4537 290.464 68.0404H290.344C290.371 68.2671 290.397 68.5537 290.424 68.9004C290.451 69.2471 290.464 69.5471 290.464 69.8004V74.2004H288.704V58.6804H290.144L290.384 60.1404H290.464C290.784 59.6737 291.204 59.2804 291.724 58.9604C292.244 58.6404 292.937 58.4804 293.804 58.4804ZM293.484 59.9604C292.391 59.9604 291.617 60.2671 291.164 60.8804C290.724 61.4937 290.491 62.4271 290.464 63.6804V64.0204C290.464 65.3404 290.677 66.3604 291.104 67.0804C291.544 67.7871 292.351 68.1404 293.524 68.1404C294.177 68.1404 294.711 67.9604 295.124 67.6004C295.551 67.2404 295.864 66.7537 296.064 66.1404C296.277 65.5137 296.384 64.8004 296.384 64.0004C296.384 62.7737 296.144 61.7937 295.664 61.0604C295.197 60.3271 294.471 59.9604 293.484 59.9604ZM302.769 69.4004H301.009V54.2004H302.769V69.4004ZM310.305 58.4804C311.225 58.4804 312.012 58.6804 312.665 59.0804C313.332 59.4804 313.838 60.0471 314.185 60.7804C314.545 61.5004 314.725 62.3471 314.725 63.3204V64.3804H307.385C307.412 65.5937 307.718 66.5204 308.305 67.1604C308.905 67.7871 309.738 68.1004 310.805 68.1004C311.485 68.1004 312.085 68.0404 312.605 67.9204C313.138 67.7871 313.685 67.6004 314.245 67.3604V68.9004C313.698 69.1404 313.158 69.3137 312.625 69.4204C312.092 69.5404 311.458 69.6004 310.725 69.6004C309.712 69.6004 308.812 69.3937 308.025 68.9804C307.252 68.5671 306.645 67.9537 306.205 67.1404C305.778 66.3137 305.565 65.3071 305.565 64.1204C305.565 62.9471 305.758 61.9404 306.145 61.1004C306.545 60.2604 307.098 59.6137 307.805 59.1604C308.525 58.7071 309.358 58.4804 310.305 58.4804ZM310.285 59.9204C309.445 59.9204 308.778 60.1937 308.285 60.7404C307.805 61.2737 307.518 62.0204 307.425 62.9804H312.885C312.872 62.0737 312.658 61.3404 312.245 60.7804C311.832 60.2071 311.178 59.9204 310.285 59.9204ZM334.409 58.4804C335.623 58.4804 336.529 58.7937 337.129 59.4204C337.729 60.0337 338.029 61.0337 338.029 62.4204V69.4004H336.289V62.5004C336.289 60.8071 335.563 59.9604 334.109 59.9604C333.069 59.9604 332.323 60.2604 331.869 60.8604C331.429 61.4604 331.209 62.3337 331.209 63.4804V69.4004H329.469V62.5004C329.469 60.8071 328.736 59.9604 327.269 59.9604C326.189 59.9604 325.443 60.2937 325.029 60.9604C324.616 61.6271 324.409 62.5871 324.409 63.8404V69.4004H322.649V58.6804H324.069L324.329 60.1404H324.429C324.763 59.5804 325.209 59.1671 325.769 58.9004C326.343 58.6204 326.949 58.4804 327.589 58.4804C329.269 58.4804 330.363 59.0804 330.869 60.2804H330.969C331.329 59.6671 331.816 59.2137 332.429 58.9204C333.056 58.6271 333.716 58.4804 334.409 58.4804ZM345.481 58.4804C346.401 58.4804 347.187 58.6804 347.841 59.0804C348.507 59.4804 349.014 60.0471 349.361 60.7804C349.721 61.5004 349.901 62.3471 349.901 63.3204V64.3804H342.561C342.587 65.5937 342.894 66.5204 343.481 67.1604C344.081 67.7871 344.914 68.1004 345.981 68.1004C346.661 68.1004 347.261 68.0404 347.781 67.9204C348.314 67.7871 348.861 67.6004 349.421 67.3604V68.9004C348.874 69.1404 348.334 69.3137 347.801 69.4204C347.267 69.5404 346.634 69.6004 345.901 69.6004C344.887 69.6004 343.987 69.3937 343.201 68.9804C342.427 68.5671 341.821 67.9537 341.381 67.1404C340.954 66.3137 340.741 65.3071 340.741 64.1204C340.741 62.9471 340.934 61.9404 341.321 61.1004C341.721 60.2604 342.274 59.6137 342.981 59.1604C343.701 58.7071 344.534 58.4804 345.481 58.4804ZM345.461 59.9204C344.621 59.9204 343.954 60.1937 343.461 60.7404C342.981 61.2737 342.694 62.0204 342.601 62.9804H348.061C348.047 62.0737 347.834 61.3404 347.421 60.7804C347.007 60.2071 346.354 59.9204 345.461 59.9204ZM359.61 66.4404C359.61 67.4804 359.223 68.2671 358.45 68.8004C357.676 69.3337 356.636 69.6004 355.33 69.6004C354.583 69.6004 353.936 69.5404 353.39 69.4204C352.856 69.3004 352.383 69.1337 351.97 68.9204V67.3204C352.396 67.5337 352.91 67.7337 353.51 67.9204C354.123 68.0937 354.743 68.1804 355.37 68.1804C356.263 68.1804 356.91 68.0404 357.31 67.7604C357.71 67.4671 357.91 67.0804 357.91 66.6004C357.91 66.3337 357.836 66.0937 357.69 65.8804C357.543 65.6671 357.276 65.4537 356.89 65.2404C356.516 65.0271 355.976 64.7871 355.27 64.5204C354.576 64.2537 353.983 63.9871 353.49 63.7204C352.996 63.4537 352.616 63.1337 352.35 62.7604C352.083 62.3871 351.95 61.9071 351.95 61.3204C351.95 60.4137 352.316 59.7137 353.05 59.2204C353.796 58.7271 354.77 58.4804 355.97 58.4804C356.623 58.4804 357.23 58.5471 357.79 58.6804C358.363 58.8004 358.896 58.9737 359.39 59.2004L358.79 60.6004C358.336 60.4137 357.863 60.2537 357.37 60.1204C356.876 59.9871 356.37 59.9204 355.85 59.9204C355.13 59.9204 354.576 60.0404 354.19 60.2804C353.816 60.5071 353.63 60.8204 353.63 61.2204C353.63 61.5137 353.716 61.7671 353.89 61.9804C354.063 62.1804 354.35 62.3804 354.75 62.5804C355.163 62.7671 355.71 62.9937 356.39 63.2604C357.07 63.5137 357.65 63.7737 358.13 64.0404C358.61 64.3071 358.976 64.6337 359.23 65.0204C359.483 65.3937 359.61 65.8671 359.61 66.4404ZM369.18 66.4404C369.18 67.4804 368.793 68.2671 368.02 68.8004C367.247 69.3337 366.207 69.6004 364.9 69.6004C364.153 69.6004 363.507 69.5404 362.96 69.4204C362.427 69.3004 361.953 69.1337 361.54 68.9204V67.3204C361.967 67.5337 362.48 67.7337 363.08 67.9204C363.693 68.0937 364.313 68.1804 364.94 68.1804C365.833 68.1804 366.48 68.0404 366.88 67.7604C367.28 67.4671 367.48 67.0804 367.48 66.6004C367.48 66.3337 367.407 66.0937 367.26 65.8804C367.113 65.6671 366.847 65.4537 366.46 65.2404C366.087 65.0271 365.547 64.7871 364.84 64.5204C364.147 64.2537 363.553 63.9871 363.06 63.7204C362.567 63.4537 362.187 63.1337 361.92 62.7604C361.653 62.3871 361.52 61.9071 361.52 61.3204C361.52 60.4137 361.887 59.7137 362.62 59.2204C363.367 58.7271 364.34 58.4804 365.54 58.4804C366.193 58.4804 366.8 58.5471 367.36 58.6804C367.933 58.8004 368.467 58.9737 368.96 59.2004L368.36 60.6004C367.907 60.4137 367.433 60.2537 366.94 60.1204C366.447 59.9871 365.94 59.9204 365.42 59.9204C364.7 59.9204 364.147 60.0404 363.76 60.2804C363.387 60.5071 363.2 60.8204 363.2 61.2204C363.2 61.5137 363.287 61.7671 363.46 61.9804C363.633 62.1804 363.92 62.3804 364.32 62.5804C364.733 62.7671 365.28 62.9937 365.96 63.2604C366.64 63.5137 367.22 63.7737 367.7 64.0404C368.18 64.3071 368.547 64.6337 368.8 65.0204C369.053 65.3937 369.18 65.8671 369.18 66.4404ZM375.83 58.5004C377.137 58.5004 378.104 58.7871 378.73 59.3604C379.357 59.9337 379.67 60.8471 379.67 62.1004V69.4004H378.39L378.05 67.8804H377.97C377.504 68.4671 377.01 68.9004 376.49 69.1804C375.984 69.4604 375.277 69.6004 374.37 69.6004C373.397 69.6004 372.59 69.3471 371.95 68.8404C371.31 68.3204 370.99 67.5137 370.99 66.4204C370.99 65.3537 371.41 64.5337 372.25 63.9604C373.09 63.3737 374.384 63.0537 376.13 63.0004L377.95 62.9404V62.3004C377.95 61.4071 377.757 60.7871 377.37 60.4404C376.984 60.0937 376.437 59.9204 375.73 59.9204C375.17 59.9204 374.637 60.0071 374.13 60.1804C373.624 60.3404 373.15 60.5271 372.71 60.7404L372.17 59.4204C372.637 59.1671 373.19 58.9537 373.83 58.7804C374.47 58.5937 375.137 58.5004 375.83 58.5004ZM376.35 64.2204C375.017 64.2737 374.09 64.4871 373.57 64.8604C373.064 65.2337 372.81 65.7604 372.81 66.4404C372.81 67.0404 372.99 67.4804 373.35 67.7604C373.724 68.0404 374.197 68.1804 374.77 68.1804C375.677 68.1804 376.43 67.9337 377.03 67.4404C377.63 66.9337 377.93 66.1604 377.93 65.1204V64.1604L376.35 64.2204ZM386.781 58.4804C387.488 58.4804 388.121 58.6137 388.681 58.8804C389.255 59.1471 389.741 59.5537 390.141 60.1004H390.241L390.481 58.6804H391.881V69.5804C391.881 71.1137 391.488 72.2671 390.701 73.0404C389.928 73.8137 388.721 74.2004 387.081 74.2004C385.508 74.2004 384.221 73.9737 383.221 73.5204V71.9004C384.275 72.4604 385.595 72.7404 387.181 72.7404C388.101 72.7404 388.821 72.4671 389.341 71.9204C389.875 71.3871 390.141 70.6537 390.141 69.7204V69.3004C390.141 69.1404 390.148 68.9137 390.161 68.6204C390.175 68.3137 390.188 68.1004 390.201 67.9804H390.121C389.401 69.0604 388.295 69.6004 386.801 69.6004C385.415 69.6004 384.328 69.1137 383.541 68.1404C382.768 67.1671 382.381 65.8071 382.381 64.0604C382.381 62.3537 382.768 61.0004 383.541 60.0004C384.328 58.9871 385.408 58.4804 386.781 58.4804ZM387.021 59.9604C386.128 59.9604 385.435 60.3204 384.941 61.0404C384.448 61.7471 384.201 62.7604 384.201 64.0804C384.201 65.4004 384.441 66.4137 384.921 67.1204C385.415 67.8137 386.128 68.1604 387.061 68.1604C388.141 68.1604 388.928 67.8737 389.421 67.3004C389.915 66.7137 390.161 65.7737 390.161 64.4804V64.0604C390.161 62.5937 389.908 61.5471 389.401 60.9204C388.895 60.2804 388.101 59.9604 387.021 59.9604ZM399.426 58.4804C400.346 58.4804 401.133 58.6804 401.786 59.0804C402.453 59.4804 402.959 60.0471 403.306 60.7804C403.666 61.5004 403.846 62.3471 403.846 63.3204V64.3804H396.506C396.533 65.5937 396.839 66.5204 397.426 67.1604C398.026 67.7871 398.859 68.1004 399.926 68.1004C400.606 68.1004 401.206 68.0404 401.726 67.9204C402.259 67.7871 402.806 67.6004 403.366 67.3604V68.9004C402.819 69.1404 402.279 69.3137 401.746 69.4204C401.213 69.5404 400.579 69.6004 399.846 69.6004C398.833 69.6004 397.933 69.3937 397.146 68.9804C396.373 68.5671 395.766 67.9537 395.326 67.1404C394.899 66.3137 394.686 65.3071 394.686 64.1204C394.686 62.9471 394.879 61.9404 395.266 61.1004C395.666 60.2604 396.219 59.6137 396.926 59.1604C397.646 58.7071 398.479 58.4804 399.426 58.4804ZM399.406 59.9204C398.566 59.9204 397.899 60.1937 397.406 60.7404C396.926 61.2737 396.639 62.0204 396.546 62.9804H402.006C401.993 62.0737 401.779 61.3404 401.366 60.7804C400.953 60.2071 400.299 59.9204 399.406 59.9204Z" fill="black"/>
<rect x="179" y="97.2002" width="248" height="42" rx="3" fill="white"/>
<rect x="179" y="97.2002" width="248" height="42" rx="3" stroke="black" stroke-width="2"/>
</svg>
