<svg width="719" height="267" viewBox="0 0 719 267" fill="none" xmlns="http://www.w3.org/2000/svg">
<path d="M147.3 26H144.28V14.24H140.4V11.72H151.18V14.24H147.3V26ZM156.236 14.88C157.742 14.88 158.936 15.3133 159.816 16.18C160.696 17.0333 161.136 18.2533 161.136 19.84V21.28H154.096C154.122 22.12 154.369 22.78 154.836 23.26C155.316 23.74 155.976 23.98 156.816 23.98C157.522 23.98 158.162 23.9133 158.736 23.78C159.309 23.6333 159.902 23.4133 160.516 23.12V25.42C159.982 25.6867 159.416 25.88 158.816 26C158.229 26.1333 157.516 26.2 156.676 26.2C155.582 26.2 154.616 26 153.776 25.6C152.936 25.1867 152.276 24.5667 151.796 23.74C151.316 22.9133 151.076 21.8733 151.076 20.62C151.076 19.34 151.289 18.28 151.716 17.44C152.156 16.5867 152.762 15.9467 153.536 15.52C154.309 15.0933 155.209 14.88 156.236 14.88ZM156.256 17C155.682 17 155.202 17.1867 154.816 17.56C154.442 17.9333 154.222 18.5133 154.156 19.3H158.336C158.322 18.6333 158.149 18.0867 157.816 17.66C157.482 17.22 156.962 17 156.256 17ZM165.402 20.42L161.882 15.08H165.262L167.382 18.56L169.522 15.08H172.902L169.342 20.42L173.062 26H169.682L167.382 22.26L165.082 26H161.702L165.402 20.42ZM179.324 23.82C179.657 23.82 179.977 23.7867 180.284 23.72C180.591 23.6533 180.897 23.5733 181.204 23.48V25.7C180.884 25.8333 180.484 25.9467 180.004 26.04C179.537 26.1467 179.024 26.2 178.464 26.2C177.811 26.2 177.224 26.0933 176.704 25.88C176.197 25.6667 175.791 25.3 175.484 24.78C175.191 24.2467 175.044 23.5133 175.044 22.58V17.32H173.624V16.06L175.264 15.06L176.124 12.76H178.024V15.08H181.084V17.32H178.024V22.58C178.024 22.9933 178.144 23.3067 178.384 23.52C178.624 23.72 178.937 23.82 179.324 23.82ZM193.071 14.86C194.538 14.86 195.658 15.18 196.431 15.82C197.218 16.4467 197.611 17.4133 197.611 18.72V26H195.531L194.951 24.52H194.871C194.405 25.1067 193.911 25.5333 193.391 25.8C192.871 26.0667 192.158 26.2 191.251 26.2C190.278 26.2 189.471 25.92 188.831 25.36C188.191 24.7867 187.871 23.9133 187.871 22.74C187.871 21.58 188.278 20.7267 189.091 20.18C189.905 19.62 191.125 19.3133 192.751 19.26L194.651 19.2V18.72C194.651 18.1467 194.498 17.7267 194.191 17.46C193.898 17.1933 193.485 17.06 192.951 17.06C192.418 17.06 191.898 17.14 191.391 17.3C190.885 17.4467 190.378 17.6333 189.871 17.86L188.891 15.84C189.478 15.5333 190.125 15.2933 190.831 15.12C191.551 14.9467 192.298 14.86 193.071 14.86ZM193.491 20.98C192.531 21.0067 191.865 21.18 191.491 21.5C191.118 21.82 190.931 22.24 190.931 22.76C190.931 23.2133 191.065 23.54 191.331 23.74C191.598 23.9267 191.945 24.02 192.371 24.02C193.011 24.02 193.551 23.8333 193.991 23.46C194.431 23.0733 194.651 22.5333 194.651 21.84V20.94L193.491 20.98ZM206.762 14.88C206.908 14.88 207.082 14.8867 207.282 14.9C207.482 14.9133 207.642 14.9333 207.762 14.96L207.542 17.76C207.448 17.7333 207.308 17.7133 207.122 17.7C206.948 17.6733 206.795 17.66 206.662 17.66C206.155 17.66 205.668 17.7533 205.202 17.94C204.735 18.1133 204.355 18.4 204.062 18.8C203.782 19.2 203.642 19.7467 203.642 20.44V26H200.662V15.08H202.922L203.362 16.92H203.502C203.822 16.36 204.262 15.88 204.822 15.48C205.382 15.08 206.028 14.88 206.762 14.88ZM213.853 14.88C215.36 14.88 216.553 15.3133 217.433 16.18C218.313 17.0333 218.753 18.2533 218.753 19.84V21.28H211.713C211.74 22.12 211.986 22.78 212.453 23.26C212.933 23.74 213.593 23.98 214.433 23.98C215.14 23.98 215.78 23.9133 216.353 23.78C216.926 23.6333 217.52 23.4133 218.133 23.12V25.42C217.6 25.6867 217.033 25.88 216.433 26C215.846 26.1333 215.133 26.2 214.293 26.2C213.2 26.2 212.233 26 211.393 25.6C210.553 25.1867 209.893 24.5667 209.413 23.74C208.933 22.9133 208.693 21.8733 208.693 20.62C208.693 19.34 208.906 18.28 209.333 17.44C209.773 16.5867 210.38 15.9467 211.153 15.52C211.926 15.0933 212.826 14.88 213.853 14.88ZM213.873 17C213.3 17 212.82 17.1867 212.433 17.56C212.06 17.9333 211.84 18.5133 211.773 19.3H215.953C215.94 18.6333 215.766 18.0867 215.433 17.66C215.1 17.22 214.58 17 213.873 17ZM225.649 14.86C227.116 14.86 228.236 15.18 229.009 15.82C229.796 16.4467 230.189 17.4133 230.189 18.72V26H228.109L227.529 24.52H227.449C226.983 25.1067 226.489 25.5333 225.969 25.8C225.449 26.0667 224.736 26.2 223.829 26.2C222.856 26.2 222.049 25.92 221.409 25.36C220.769 24.7867 220.449 23.9133 220.449 22.74C220.449 21.58 220.856 20.7267 221.669 20.18C222.483 19.62 223.703 19.3133 225.329 19.26L227.229 19.2V18.72C227.229 18.1467 227.076 17.7267 226.769 17.46C226.476 17.1933 226.063 17.06 225.529 17.06C224.996 17.06 224.476 17.14 223.969 17.3C223.463 17.4467 222.956 17.6333 222.449 17.86L221.469 15.84C222.056 15.5333 222.703 15.2933 223.409 15.12C224.129 14.9467 224.876 14.86 225.649 14.86ZM226.069 20.98C225.109 21.0067 224.443 21.18 224.069 21.5C223.696 21.82 223.509 22.24 223.509 22.76C223.509 23.2133 223.643 23.54 223.909 23.74C224.176 23.9267 224.523 24.02 224.949 24.02C225.589 24.02 226.129 23.8333 226.569 23.46C227.009 23.0733 227.229 22.5333 227.229 21.84V20.94L226.069 20.98ZM241.415 26H238.435V10.8H241.415V26ZM249.009 14.86C250.475 14.86 251.595 15.18 252.369 15.82C253.155 16.4467 253.549 17.4133 253.549 18.72V26H251.469L250.889 24.52H250.809C250.342 25.1067 249.849 25.5333 249.329 25.8C248.809 26.0667 248.095 26.2 247.189 26.2C246.215 26.2 245.409 25.92 244.769 25.36C244.129 24.7867 243.809 23.9133 243.809 22.74C243.809 21.58 244.215 20.7267 245.029 20.18C245.842 19.62 247.062 19.3133 248.689 19.26L250.589 19.2V18.72C250.589 18.1467 250.435 17.7267 250.129 17.46C249.835 17.1933 249.422 17.06 248.889 17.06C248.355 17.06 247.835 17.14 247.329 17.3C246.822 17.4467 246.315 17.6333 245.809 17.86L244.829 15.84C245.415 15.5333 246.062 15.2933 246.769 15.12C247.489 14.9467 248.235 14.86 249.009 14.86ZM249.429 20.98C248.469 21.0067 247.802 21.18 247.429 21.5C247.055 21.82 246.869 22.24 246.869 22.76C246.869 23.2133 247.002 23.54 247.269 23.74C247.535 23.9267 247.882 24.02 248.309 24.02C248.949 24.02 249.489 23.8333 249.929 23.46C250.369 23.0733 250.589 22.5333 250.589 21.84V20.94L249.429 20.98ZM259.579 14.34C259.579 14.7533 259.566 15.16 259.539 15.56C259.512 15.96 259.486 16.2733 259.459 16.5H259.579C259.872 16.0467 260.266 15.6667 260.759 15.36C261.252 15.04 261.892 14.88 262.679 14.88C263.906 14.88 264.899 15.36 265.659 16.32C266.419 17.2667 266.799 18.6667 266.799 20.52C266.799 22.3867 266.412 23.8 265.639 24.76C264.866 25.72 263.852 26.2 262.599 26.2C261.799 26.2 261.166 26.06 260.699 25.78C260.246 25.4867 259.872 25.16 259.579 24.8H259.379L258.879 26H256.599V10.8H259.579V14.34ZM261.719 17.26C260.946 17.26 260.399 17.5 260.079 17.98C259.772 18.46 259.606 19.1933 259.579 20.18V20.5C259.579 21.5533 259.732 22.3667 260.039 22.94C260.359 23.5 260.932 23.78 261.759 23.78C262.372 23.78 262.859 23.5 263.219 22.94C263.579 22.3667 263.759 21.5467 263.759 20.48C263.759 19.4133 263.572 18.6133 263.199 18.08C262.839 17.5333 262.346 17.26 261.719 17.26ZM273.755 14.88C275.262 14.88 276.455 15.3133 277.335 16.18C278.215 17.0333 278.655 18.2533 278.655 19.84V21.28H271.615C271.642 22.12 271.889 22.78 272.355 23.26C272.835 23.74 273.495 23.98 274.335 23.98C275.042 23.98 275.682 23.9133 276.255 23.78C276.829 23.6333 277.422 23.4133 278.035 23.12V25.42C277.502 25.6867 276.935 25.88 276.335 26C275.749 26.1333 275.035 26.2 274.195 26.2C273.102 26.2 272.135 26 271.295 25.6C270.455 25.1867 269.795 24.5667 269.315 23.74C268.835 22.9133 268.595 21.8733 268.595 20.62C268.595 19.34 268.809 18.28 269.235 17.44C269.675 16.5867 270.282 15.9467 271.055 15.52C271.829 15.0933 272.729 14.88 273.755 14.88ZM273.775 17C273.202 17 272.722 17.1867 272.335 17.56C271.962 17.9333 271.742 18.5133 271.675 19.3H275.855C275.842 18.6333 275.669 18.0867 275.335 17.66C275.002 17.22 274.482 17 273.775 17ZM284.052 26H281.072V10.8H284.052V26Z" fill="black"/>
<path d="M152.86 63.4004H151.06V56.7404H143.74V63.4004H141.94V49.1204H143.74V55.1604H151.06V49.1204H152.86V63.4004ZM157.424 48.6604C157.691 48.6604 157.924 48.7537 158.124 48.9404C158.338 49.1137 158.444 49.3937 158.444 49.7804C158.444 50.1537 158.338 50.4337 158.124 50.6204C157.924 50.8071 157.691 50.9004 157.424 50.9004C157.131 50.9004 156.884 50.8071 156.684 50.6204C156.484 50.4337 156.384 50.1537 156.384 49.7804C156.384 49.3937 156.484 49.1137 156.684 48.9404C156.884 48.7537 157.131 48.6604 157.424 48.6604ZM158.284 52.6804V63.4004H156.524V52.6804H158.284ZM166.84 52.4804C168.12 52.4804 169.087 52.7937 169.74 53.4204C170.394 54.0337 170.72 55.0337 170.72 56.4204V63.4004H168.98V56.5404C168.98 54.8204 168.18 53.9604 166.58 53.9604C165.394 53.9604 164.574 54.2937 164.12 54.9604C163.667 55.6271 163.44 56.5871 163.44 57.8404V63.4004H161.68V52.6804H163.1L163.36 54.1404H163.46C163.807 53.5804 164.287 53.1671 164.9 52.9004C165.514 52.6204 166.16 52.4804 166.84 52.4804ZM177.624 62.1604C177.89 62.1604 178.164 62.1404 178.444 62.1004C178.724 62.0471 178.95 61.9937 179.124 61.9404V63.2804C178.937 63.3737 178.67 63.4471 178.324 63.5004C177.977 63.5671 177.644 63.6004 177.324 63.6004C176.764 63.6004 176.244 63.5071 175.764 63.3204C175.297 63.1204 174.917 62.7804 174.624 62.3004C174.33 61.8204 174.184 61.1471 174.184 60.2804V54.0404H172.664V53.2004L174.204 52.5004L174.904 50.2204H175.944V52.6804H179.044V54.0404H175.944V60.2404C175.944 60.8937 176.097 61.3804 176.404 61.7004C176.724 62.0071 177.13 62.1604 177.624 62.1604ZM192.006 49.1204L186.686 63.4004H184.966L190.286 49.1204H192.006ZM207.322 63.4004H199.342V49.1204H207.322V50.7004H201.142V55.1604H206.962V56.7204H201.142V61.8204H207.322V63.4004ZM212.756 57.9204L209.056 52.6804H211.056L213.816 56.7204L216.556 52.6804H218.536L214.836 57.9204L218.736 63.4004H216.736L213.816 59.1204L210.856 63.4004H208.876L212.756 57.9204ZM224.862 52.5004C226.168 52.5004 227.135 52.7871 227.762 53.3604C228.388 53.9337 228.702 54.8471 228.702 56.1004V63.4004H227.422L227.082 61.8804H227.002C226.535 62.4671 226.042 62.9004 225.522 63.1804C225.015 63.4604 224.308 63.6004 223.402 63.6004C222.428 63.6004 221.622 63.3471 220.982 62.8404C220.342 62.3204 220.022 61.5137 220.022 60.4204C220.022 59.3537 220.442 58.5337 221.282 57.9604C222.122 57.3737 223.415 57.0537 225.162 57.0004L226.982 56.9404V56.3004C226.982 55.4071 226.788 54.7871 226.402 54.4404C226.015 54.0937 225.468 53.9204 224.762 53.9204C224.202 53.9204 223.668 54.0071 223.162 54.1804C222.655 54.3404 222.182 54.5271 221.742 54.7404L221.202 53.4204C221.668 53.1671 222.222 52.9537 222.862 52.7804C223.502 52.5937 224.168 52.5004 224.862 52.5004ZM225.382 58.2204C224.048 58.2737 223.122 58.4871 222.602 58.8604C222.095 59.2337 221.842 59.7604 221.842 60.4404C221.842 61.0404 222.022 61.4804 222.382 61.7604C222.755 62.0404 223.228 62.1804 223.802 62.1804C224.708 62.1804 225.462 61.9337 226.062 61.4404C226.662 60.9337 226.962 60.1604 226.962 59.1204V58.1604L225.382 58.2204ZM243.773 52.4804C244.986 52.4804 245.893 52.7937 246.493 53.4204C247.093 54.0337 247.393 55.0337 247.393 56.4204V63.4004H245.653V56.5004C245.653 54.8071 244.926 53.9604 243.473 53.9604C242.433 53.9604 241.686 54.2604 241.233 54.8604C240.793 55.4604 240.573 56.3337 240.573 57.4804V63.4004H238.833V56.5004C238.833 54.8071 238.099 53.9604 236.633 53.9604C235.553 53.9604 234.806 54.2937 234.393 54.9604C233.979 55.6271 233.773 56.5871 233.773 57.8404V63.4004H232.013V52.6804H233.433L233.693 54.1404H233.793C234.126 53.5804 234.573 53.1671 235.133 52.9004C235.706 52.6204 236.313 52.4804 236.953 52.4804C238.633 52.4804 239.726 53.0804 240.233 54.2804H240.333C240.693 53.6671 241.179 53.2137 241.793 52.9204C242.419 52.6271 243.079 52.4804 243.773 52.4804ZM255.804 52.4804C257.124 52.4804 258.184 52.9404 258.984 53.8604C259.797 54.7804 260.204 56.1671 260.204 58.0204C260.204 59.8471 259.797 61.2337 258.984 62.1804C258.184 63.1271 257.117 63.6004 255.784 63.6004C254.957 63.6004 254.271 63.4471 253.724 63.1404C253.191 62.8204 252.771 62.4537 252.464 62.0404H252.344C252.371 62.2671 252.397 62.5537 252.424 62.9004C252.451 63.2471 252.464 63.5471 252.464 63.8004V68.2004H250.704V52.6804H252.144L252.384 54.1404H252.464C252.784 53.6737 253.204 53.2804 253.724 52.9604C254.244 52.6404 254.937 52.4804 255.804 52.4804ZM255.484 53.9604C254.391 53.9604 253.617 54.2671 253.164 54.8804C252.724 55.4937 252.491 56.4271 252.464 57.6804V58.0204C252.464 59.3404 252.677 60.3604 253.104 61.0804C253.544 61.7871 254.351 62.1404 255.524 62.1404C256.177 62.1404 256.711 61.9604 257.124 61.6004C257.551 61.2404 257.864 60.7537 258.064 60.1404C258.277 59.5137 258.384 58.8004 258.384 58.0004C258.384 56.7737 258.144 55.7937 257.664 55.0604C257.197 54.3271 256.471 53.9604 255.484 53.9604ZM264.769 63.4004H263.009V48.2004H264.769V63.4004ZM272.305 52.4804C273.225 52.4804 274.012 52.6804 274.665 53.0804C275.332 53.4804 275.838 54.0471 276.185 54.7804C276.545 55.5004 276.725 56.3471 276.725 57.3204V58.3804H269.385C269.412 59.5937 269.718 60.5204 270.305 61.1604C270.905 61.7871 271.738 62.1004 272.805 62.1004C273.485 62.1004 274.085 62.0404 274.605 61.9204C275.138 61.7871 275.685 61.6004 276.245 61.3604V62.9004C275.698 63.1404 275.158 63.3137 274.625 63.4204C274.092 63.5404 273.458 63.6004 272.725 63.6004C271.712 63.6004 270.812 63.3937 270.025 62.9804C269.252 62.5671 268.645 61.9537 268.205 61.1404C267.778 60.3137 267.565 59.3071 267.565 58.1204C267.565 56.9471 267.758 55.9404 268.145 55.1004C268.545 54.2604 269.098 53.6137 269.805 53.1604C270.525 52.7071 271.358 52.4804 272.305 52.4804ZM272.285 53.9204C271.445 53.9204 270.778 54.1937 270.285 54.7404C269.805 55.2737 269.518 56.0204 269.425 56.9804H274.885C274.872 56.0737 274.658 55.3404 274.245 54.7804C273.832 54.2071 273.178 53.9204 272.285 53.9204ZM296.409 52.4804C297.623 52.4804 298.529 52.7937 299.129 53.4204C299.729 54.0337 300.029 55.0337 300.029 56.4204V63.4004H298.289V56.5004C298.289 54.8071 297.563 53.9604 296.109 53.9604C295.069 53.9604 294.323 54.2604 293.869 54.8604C293.429 55.4604 293.209 56.3337 293.209 57.4804V63.4004H291.469V56.5004C291.469 54.8071 290.736 53.9604 289.269 53.9604C288.189 53.9604 287.443 54.2937 287.029 54.9604C286.616 55.6271 286.409 56.5871 286.409 57.8404V63.4004H284.649V52.6804H286.069L286.329 54.1404H286.429C286.763 53.5804 287.209 53.1671 287.769 52.9004C288.343 52.6204 288.949 52.4804 289.589 52.4804C291.269 52.4804 292.363 53.0804 292.869 54.2804H292.969C293.329 53.6671 293.816 53.2137 294.429 52.9204C295.056 52.6271 295.716 52.4804 296.409 52.4804ZM307.481 52.4804C308.401 52.4804 309.187 52.6804 309.841 53.0804C310.507 53.4804 311.014 54.0471 311.361 54.7804C311.721 55.5004 311.901 56.3471 311.901 57.3204V58.3804H304.561C304.587 59.5937 304.894 60.5204 305.481 61.1604C306.081 61.7871 306.914 62.1004 307.981 62.1004C308.661 62.1004 309.261 62.0404 309.781 61.9204C310.314 61.7871 310.861 61.6004 311.421 61.3604V62.9004C310.874 63.1404 310.334 63.3137 309.801 63.4204C309.267 63.5404 308.634 63.6004 307.901 63.6004C306.887 63.6004 305.987 63.3937 305.201 62.9804C304.427 62.5671 303.821 61.9537 303.381 61.1404C302.954 60.3137 302.741 59.3071 302.741 58.1204C302.741 56.9471 302.934 55.9404 303.321 55.1004C303.721 54.2604 304.274 53.6137 304.981 53.1604C305.701 52.7071 306.534 52.4804 307.481 52.4804ZM307.461 53.9204C306.621 53.9204 305.954 54.1937 305.461 54.7404C304.981 55.2737 304.694 56.0204 304.601 56.9804H310.061C310.047 56.0737 309.834 55.3404 309.421 54.7804C309.007 54.2071 308.354 53.9204 307.461 53.9204ZM321.61 60.4404C321.61 61.4804 321.223 62.2671 320.45 62.8004C319.676 63.3337 318.636 63.6004 317.33 63.6004C316.583 63.6004 315.936 63.5404 315.39 63.4204C314.856 63.3004 314.383 63.1337 313.97 62.9204V61.3204C314.396 61.5337 314.91 61.7337 315.51 61.9204C316.123 62.0937 316.743 62.1804 317.37 62.1804C318.263 62.1804 318.91 62.0404 319.31 61.7604C319.71 61.4671 319.91 61.0804 319.91 60.6004C319.91 60.3337 319.836 60.0937 319.69 59.8804C319.543 59.6671 319.276 59.4537 318.89 59.2404C318.516 59.0271 317.976 58.7871 317.27 58.5204C316.576 58.2537 315.983 57.9871 315.49 57.7204C314.996 57.4537 314.616 57.1337 314.35 56.7604C314.083 56.3871 313.95 55.9071 313.95 55.3204C313.95 54.4137 314.316 53.7137 315.05 53.2204C315.796 52.7271 316.77 52.4804 317.97 52.4804C318.623 52.4804 319.23 52.5471 319.79 52.6804C320.363 52.8004 320.896 52.9737 321.39 53.2004L320.79 54.6004C320.336 54.4137 319.863 54.2537 319.37 54.1204C318.876 53.9871 318.37 53.9204 317.85 53.9204C317.13 53.9204 316.576 54.0404 316.19 54.2804C315.816 54.5071 315.63 54.8204 315.63 55.2204C315.63 55.5137 315.716 55.7671 315.89 55.9804C316.063 56.1804 316.35 56.3804 316.75 56.5804C317.163 56.7671 317.71 56.9937 318.39 57.2604C319.07 57.5137 319.65 57.7737 320.13 58.0404C320.61 58.3071 320.976 58.6337 321.23 59.0204C321.483 59.3937 321.61 59.8671 321.61 60.4404ZM331.18 60.4404C331.18 61.4804 330.793 62.2671 330.02 62.8004C329.247 63.3337 328.207 63.6004 326.9 63.6004C326.153 63.6004 325.507 63.5404 324.96 63.4204C324.427 63.3004 323.953 63.1337 323.54 62.9204V61.3204C323.967 61.5337 324.48 61.7337 325.08 61.9204C325.693 62.0937 326.313 62.1804 326.94 62.1804C327.833 62.1804 328.48 62.0404 328.88 61.7604C329.28 61.4671 329.48 61.0804 329.48 60.6004C329.48 60.3337 329.407 60.0937 329.26 59.8804C329.113 59.6671 328.847 59.4537 328.46 59.2404C328.087 59.0271 327.547 58.7871 326.84 58.5204C326.147 58.2537 325.553 57.9871 325.06 57.7204C324.567 57.4537 324.187 57.1337 323.92 56.7604C323.653 56.3871 323.52 55.9071 323.52 55.3204C323.52 54.4137 323.887 53.7137 324.62 53.2204C325.367 52.7271 326.34 52.4804 327.54 52.4804C328.193 52.4804 328.8 52.5471 329.36 52.6804C329.933 52.8004 330.467 52.9737 330.96 53.2004L330.36 54.6004C329.907 54.4137 329.433 54.2537 328.94 54.1204C328.447 53.9871 327.94 53.9204 327.42 53.9204C326.7 53.9204 326.147 54.0404 325.76 54.2804C325.387 54.5071 325.2 54.8204 325.2 55.2204C325.2 55.5137 325.287 55.7671 325.46 55.9804C325.633 56.1804 325.92 56.3804 326.32 56.5804C326.733 56.7671 327.28 56.9937 327.96 57.2604C328.64 57.5137 329.22 57.7737 329.7 58.0404C330.18 58.3071 330.547 58.6337 330.8 59.0204C331.053 59.3937 331.18 59.8671 331.18 60.4404ZM337.83 52.5004C339.137 52.5004 340.104 52.7871 340.73 53.3604C341.357 53.9337 341.67 54.8471 341.67 56.1004V63.4004H340.39L340.05 61.8804H339.97C339.504 62.4671 339.01 62.9004 338.49 63.1804C337.984 63.4604 337.277 63.6004 336.37 63.6004C335.397 63.6004 334.59 63.3471 333.95 62.8404C333.31 62.3204 332.99 61.5137 332.99 60.4204C332.99 59.3537 333.41 58.5337 334.25 57.9604C335.09 57.3737 336.384 57.0537 338.13 57.0004L339.95 56.9404V56.3004C339.95 55.4071 339.757 54.7871 339.37 54.4404C338.984 54.0937 338.437 53.9204 337.73 53.9204C337.17 53.9204 336.637 54.0071 336.13 54.1804C335.624 54.3404 335.15 54.5271 334.71 54.7404L334.17 53.4204C334.637 53.1671 335.19 52.9537 335.83 52.7804C336.47 52.5937 337.137 52.5004 337.83 52.5004ZM338.35 58.2204C337.017 58.2737 336.09 58.4871 335.57 58.8604C335.064 59.2337 334.81 59.7604 334.81 60.4404C334.81 61.0404 334.99 61.4804 335.35 61.7604C335.724 62.0404 336.197 62.1804 336.77 62.1804C337.677 62.1804 338.43 61.9337 339.03 61.4404C339.63 60.9337 339.93 60.1604 339.93 59.1204V58.1604L338.35 58.2204ZM348.781 52.4804C349.488 52.4804 350.121 52.6137 350.681 52.8804C351.255 53.1471 351.741 53.5537 352.141 54.1004H352.241L352.481 52.6804H353.881V63.5804C353.881 65.1137 353.488 66.2671 352.701 67.0404C351.928 67.8137 350.721 68.2004 349.081 68.2004C347.508 68.2004 346.221 67.9737 345.221 67.5204V65.9004C346.275 66.4604 347.595 66.7404 349.181 66.7404C350.101 66.7404 350.821 66.4671 351.341 65.9204C351.875 65.3871 352.141 64.6537 352.141 63.7204V63.3004C352.141 63.1404 352.148 62.9137 352.161 62.6204C352.175 62.3137 352.188 62.1004 352.201 61.9804H352.121C351.401 63.0604 350.295 63.6004 348.801 63.6004C347.415 63.6004 346.328 63.1137 345.541 62.1404C344.768 61.1671 344.381 59.8071 344.381 58.0604C344.381 56.3537 344.768 55.0004 345.541 54.0004C346.328 52.9871 347.408 52.4804 348.781 52.4804ZM349.021 53.9604C348.128 53.9604 347.435 54.3204 346.941 55.0404C346.448 55.7471 346.201 56.7604 346.201 58.0804C346.201 59.4004 346.441 60.4137 346.921 61.1204C347.415 61.8137 348.128 62.1604 349.061 62.1604C350.141 62.1604 350.928 61.8737 351.421 61.3004C351.915 60.7137 352.161 59.7737 352.161 58.4804V58.0604C352.161 56.5937 351.908 55.5471 351.401 54.9204C350.895 54.2804 350.101 53.9604 349.021 53.9604ZM361.426 52.4804C362.346 52.4804 363.133 52.6804 363.786 53.0804C364.453 53.4804 364.959 54.0471 365.306 54.7804C365.666 55.5004 365.846 56.3471 365.846 57.3204V58.3804H358.506C358.533 59.5937 358.839 60.5204 359.426 61.1604C360.026 61.7871 360.859 62.1004 361.926 62.1004C362.606 62.1004 363.206 62.0404 363.726 61.9204C364.259 61.7871 364.806 61.6004 365.366 61.3604V62.9004C364.819 63.1404 364.279 63.3137 363.746 63.4204C363.213 63.5404 362.579 63.6004 361.846 63.6004C360.833 63.6004 359.933 63.3937 359.146 62.9804C358.373 62.5671 357.766 61.9537 357.326 61.1404C356.899 60.3137 356.686 59.3071 356.686 58.1204C356.686 56.9471 356.879 55.9404 357.266 55.1004C357.666 54.2604 358.219 53.6137 358.926 53.1604C359.646 52.7071 360.479 52.4804 361.426 52.4804ZM361.406 53.9204C360.566 53.9204 359.899 54.1937 359.406 54.7404C358.926 55.2737 358.639 56.0204 358.546 56.9804H364.006C363.993 56.0737 363.779 55.3404 363.366 54.7804C362.953 54.2071 362.299 53.9204 361.406 53.9204Z" fill="black"/>
<rect x="141" y="91.2002" width="577" height="174" rx="3" fill="white"/>
<rect x="141" y="91.2002" width="577" height="174" rx="3" stroke="black" stroke-width="2"/>
<path d="M10.88 184H9.456V172.576H15.472V173.84H10.88V177.888H15.184V179.152H10.88V184ZM18.5314 175.424V184H17.1394V175.424H18.5314ZM17.8434 172.208C18.0567 172.208 18.2434 172.283 18.4034 172.432C18.5634 172.571 18.6434 172.795 18.6434 173.104C18.6434 173.403 18.5634 173.627 18.4034 173.776C18.2434 173.925 18.0567 174 17.8434 174C17.6194 174 17.4274 173.925 17.2674 173.776C17.1074 173.627 17.0274 173.403 17.0274 173.104C17.0274 172.795 17.1074 172.571 17.2674 172.432C17.4274 172.283 17.6194 172.208 17.8434 172.208ZM24.1969 175.264C24.8902 175.264 25.4875 175.424 25.9889 175.744C26.4902 176.064 26.8742 176.517 27.1409 177.104C27.4182 177.68 27.5569 178.357 27.5569 179.136V179.984H22.0529C22.0742 180.955 22.3035 181.696 22.7409 182.208C23.1782 182.709 23.7915 182.96 24.5809 182.96C25.0929 182.96 25.5462 182.912 25.9409 182.816C26.3462 182.709 26.7622 182.56 27.1889 182.368V183.6C26.7729 183.792 26.3622 183.931 25.9569 184.016C25.5622 184.112 25.0822 184.16 24.5169 184.16C23.7489 184.16 23.0715 183.995 22.4849 183.664C21.8982 183.333 21.4395 182.843 21.1089 182.192C20.7782 181.531 20.6129 180.725 20.6129 179.776C20.6129 178.837 20.7622 178.032 21.0609 177.36C21.3595 176.688 21.7755 176.171 22.3089 175.808C22.8529 175.445 23.4822 175.264 24.1969 175.264ZM24.1969 176.416C23.5782 176.416 23.0875 176.635 22.7249 177.072C22.3622 177.499 22.1489 178.096 22.0849 178.864H26.1169C26.1169 178.373 26.0475 177.947 25.9089 177.584C25.7702 177.221 25.5569 176.939 25.2689 176.736C24.9915 176.523 24.6342 176.416 24.1969 176.416ZM30.9685 184H29.5765V171.84H30.9685V184ZM36.3464 184.16C35.3544 184.16 34.5544 183.792 33.9464 183.056C33.349 182.309 33.0504 181.2 33.0504 179.728C33.0504 178.256 33.3544 177.147 33.9624 176.4C34.5704 175.643 35.3704 175.264 36.3624 175.264C36.7784 175.264 37.141 175.323 37.4504 175.44C37.7597 175.547 38.0264 175.696 38.2504 175.888C38.485 176.08 38.6824 176.293 38.8424 176.528H38.9384C38.9277 176.389 38.9064 176.187 38.8744 175.92C38.853 175.643 38.8424 175.424 38.8424 175.264V171.84H40.2344V184H39.1144L38.9064 182.848H38.8424C38.6824 183.093 38.485 183.317 38.2504 183.52C38.0264 183.712 37.7544 183.867 37.4344 183.984C37.125 184.101 36.7624 184.16 36.3464 184.16ZM36.6024 182.992C37.4344 182.992 38.0157 182.747 38.3464 182.256C38.6877 181.755 38.8584 181.003 38.8584 180V179.744C38.8584 178.677 38.6984 177.861 38.3784 177.296C38.0584 176.72 37.461 176.432 36.5864 176.432C35.8824 176.432 35.3544 176.736 35.0024 177.344C34.661 177.941 34.4904 178.747 34.4904 179.76C34.4904 180.784 34.661 181.579 35.0024 182.144C35.3544 182.709 35.8877 182.992 36.6024 182.992Z" fill="black"/>
<rect x="1" y="160" width="50.0492" height="36" stroke="#B3800F" stroke-width="2"/>
<line x1="127" y1="179" x2="52.0492" y2="179" stroke="#B3800F" stroke-width="2"/>
<path d="M468.232 62.9941H466.808V57.6661H461.4V62.9941H459.976V51.5701H461.4V56.4021H466.808V51.5701H468.232V62.9941ZM472.379 54.4181V62.9941H470.987V54.4181H472.379ZM471.691 51.2021C471.904 51.2021 472.091 51.2768 472.251 51.4261C472.411 51.5648 472.491 51.7888 472.491 52.0981C472.491 52.3968 472.411 52.6208 472.251 52.7701C472.091 52.9195 471.904 52.9941 471.691 52.9941C471.467 52.9941 471.275 52.9195 471.115 52.7701C470.955 52.6208 470.875 52.3968 470.875 52.0981C470.875 51.7888 470.955 51.5648 471.115 51.4261C471.275 51.2768 471.467 51.2021 471.691 51.2021ZM478.845 54.2581C479.805 54.2581 480.53 54.5088 481.021 55.0101C481.522 55.5008 481.773 56.3008 481.773 57.4101V62.9941H480.381V57.5061C480.381 56.8128 480.237 56.2955 479.949 55.9541C479.661 55.6128 479.218 55.4421 478.621 55.4421C477.746 55.4421 477.138 55.7088 476.797 56.2421C476.466 56.7755 476.301 57.5435 476.301 58.5461V62.9941H474.909V54.4181H476.029L476.237 55.5861H476.317C476.487 55.2875 476.706 55.0421 476.973 54.8501C477.239 54.6475 477.533 54.4981 477.853 54.4021C478.173 54.3061 478.503 54.2581 478.845 54.2581ZM487.02 62.0021C487.223 62.0021 487.431 61.9861 487.644 61.9541C487.858 61.9115 488.034 61.8688 488.172 61.8261V62.8981C488.023 62.9728 487.81 63.0315 487.532 63.0741C487.266 63.1275 487.01 63.1541 486.764 63.1541C486.338 63.1541 485.943 63.0795 485.58 62.9301C485.218 62.7701 484.924 62.4981 484.7 62.1141C484.487 61.7301 484.38 61.1915 484.38 60.4981V55.5061H483.244V54.8341L484.412 54.2741L484.94 52.4501H485.772V54.4181H488.108V55.5061H485.772V60.4661C485.772 60.9888 485.89 61.3781 486.124 61.6341C486.359 61.8795 486.658 62.0021 487.02 62.0021ZM496.442 62.0021C496.645 62.0021 496.853 61.9861 497.066 61.9541C497.279 61.9115 497.455 61.8688 497.594 61.8261V62.8981C497.445 62.9728 497.231 63.0315 496.954 63.0741C496.687 63.1275 496.431 63.1541 496.186 63.1541C495.759 63.1541 495.365 63.0795 495.002 62.9301C494.639 62.7701 494.346 62.4981 494.122 62.1141C493.909 61.7301 493.802 61.1915 493.802 60.4981V55.5061H492.666V54.8341L493.834 54.2741L494.362 52.4501H495.194V54.4181H497.53V55.5061H495.194V60.4661C495.194 60.9888 495.311 61.3781 495.546 61.6341C495.781 61.8795 496.079 62.0021 496.442 62.0021ZM502.326 54.2581C503.019 54.2581 503.616 54.4181 504.118 54.7381C504.619 55.0581 505.003 55.5115 505.27 56.0981C505.547 56.6741 505.686 57.3515 505.686 58.1301V58.9781H500.182C500.203 59.9488 500.432 60.6901 500.87 61.2021C501.307 61.7035 501.92 61.9541 502.71 61.9541C503.222 61.9541 503.675 61.9061 504.07 61.8101C504.475 61.7035 504.891 61.5541 505.318 61.3621V62.5941C504.902 62.7861 504.491 62.9248 504.086 63.0101C503.691 63.1061 503.211 63.1541 502.646 63.1541C501.878 63.1541 501.2 62.9888 500.614 62.6581C500.027 62.3275 499.568 61.8368 499.238 61.1861C498.907 60.5248 498.742 59.7195 498.742 58.7701C498.742 57.8315 498.891 57.0261 499.19 56.3541C499.488 55.6821 499.904 55.1648 500.438 54.8021C500.982 54.4395 501.611 54.2581 502.326 54.2581ZM502.326 55.4101C501.707 55.4101 501.216 55.6288 500.854 56.0661C500.491 56.4928 500.278 57.0901 500.214 57.8581H504.246C504.246 57.3675 504.176 56.9408 504.038 56.5781C503.899 56.2155 503.686 55.9328 503.398 55.7301C503.12 55.5168 502.763 55.4101 502.326 55.4101ZM509.313 58.6101L506.529 54.4181H508.113L510.161 57.6501L512.177 54.4181H513.761L510.977 58.6101L513.905 62.9941H512.321L510.161 59.5701L507.969 62.9941H506.401L509.313 58.6101ZM518.192 62.0021C518.395 62.0021 518.603 61.9861 518.816 61.9541C519.029 61.9115 519.205 61.8688 519.344 61.8261V62.8981C519.195 62.9728 518.981 63.0315 518.704 63.0741C518.437 63.1275 518.181 63.1541 517.936 63.1541C517.509 63.1541 517.115 63.0795 516.752 62.9301C516.389 62.7701 516.096 62.4981 515.872 62.1141C515.659 61.7301 515.552 61.1915 515.552 60.4981V55.5061H514.416V54.8341L515.584 54.2741L516.112 52.4501H516.944V54.4181H519.28V55.5061H516.944V60.4661C516.944 60.9888 517.061 61.3781 517.296 61.6341C517.531 61.8795 517.829 62.0021 518.192 62.0021Z" fill="black"/>
<rect x="451.52" y="38.9941" width="75.48" height="36" stroke="#B3800F" stroke-width="2"/>
<line x1="450.52" y1="57.9941" x2="379" y2="57.9941" stroke="#B3800F" stroke-width="2"/>
<path d="M9.456 25V13.576H10.88V23.72H15.552V25H9.456ZM20.2895 16.28C21.2708 16.28 22.0015 16.5093 22.4815 16.968C22.9722 17.4267 23.2175 18.1573 23.2175 19.16V25H22.2095L21.9375 23.784H21.8735C21.6388 24.0933 21.3988 24.3547 21.1535 24.568C20.9188 24.7707 20.6415 24.92 20.3215 25.016C20.0122 25.112 19.6282 25.16 19.1695 25.16C18.6895 25.16 18.2575 25.0693 17.8735 24.888C17.4895 24.7067 17.1855 24.4293 16.9615 24.056C16.7375 23.672 16.6255 23.192 16.6255 22.616C16.6255 21.7627 16.9402 21.1067 17.5695 20.648C18.1988 20.1787 19.1695 19.9227 20.4815 19.88L21.8415 19.832V19.32C21.8415 18.6053 21.6975 18.1093 21.4095 17.832C21.1322 17.5547 20.7322 17.416 20.2095 17.416C19.7935 17.416 19.3935 17.4853 19.0095 17.624C18.6362 17.752 18.2788 17.9013 17.9375 18.072L17.5055 17.016C17.8682 16.8133 18.2895 16.6427 18.7695 16.504C19.2495 16.3547 19.7562 16.28 20.2895 16.28ZM20.6735 20.856C19.6922 20.8987 19.0095 21.0693 18.6255 21.368C18.2522 21.6667 18.0655 22.088 18.0655 22.632C18.0655 23.112 18.1988 23.464 18.4655 23.688C18.7322 23.912 19.0788 24.024 19.5055 24.024C20.1668 24.024 20.7215 23.8267 21.1695 23.432C21.6175 23.0267 21.8415 22.408 21.8415 21.576V20.808L20.6735 20.856ZM27.0935 15.8C27.0935 16.1627 27.0828 16.504 27.0615 16.824C27.0508 17.1333 27.0348 17.3787 27.0135 17.56H27.0935C27.3175 17.1973 27.6322 16.8933 28.0375 16.648C28.4428 16.4027 28.9548 16.28 29.5735 16.28C30.5762 16.28 31.3762 16.6533 31.9735 17.4C32.5815 18.136 32.8855 19.24 32.8855 20.712C32.8855 21.6933 32.7468 22.5147 32.4695 23.176C32.1922 23.8373 31.8028 24.3333 31.3015 24.664C30.8108 24.9947 30.2348 25.16 29.5735 25.16C28.9442 25.16 28.4268 25.0373 28.0215 24.792C27.6268 24.5467 27.3175 24.2533 27.0935 23.912H26.9815L26.7095 25H25.7015V12.84H27.0935V15.8ZM29.3175 17.448C28.7628 17.448 28.3202 17.5653 27.9895 17.8C27.6695 18.024 27.4402 18.376 27.3015 18.856C27.1628 19.3253 27.0935 19.928 27.0935 20.664V20.728C27.0935 21.784 27.2482 22.5947 27.5575 23.16C27.8775 23.7147 28.4748 23.992 29.3495 23.992C30.0428 23.992 30.5655 23.7093 30.9175 23.144C31.2695 22.5787 31.4455 21.7627 31.4455 20.696C31.4455 19.6187 31.2695 18.808 30.9175 18.264C30.5655 17.72 30.0322 17.448 29.3175 17.448ZM38.1031 16.264C38.7965 16.264 39.3938 16.424 39.8951 16.744C40.3965 17.064 40.7805 17.5173 41.0471 18.104C41.3245 18.68 41.4631 19.3573 41.4631 20.136V20.984H35.9591C35.9805 21.9547 36.2098 22.696 36.6471 23.208C37.0845 23.7093 37.6978 23.96 38.4871 23.96C38.9991 23.96 39.4525 23.912 39.8471 23.816C40.2525 23.7093 40.6685 23.56 41.0951 23.368V24.6C40.6791 24.792 40.2685 24.9307 39.8631 25.016C39.4685 25.112 38.9885 25.16 38.4231 25.16C37.6551 25.16 36.9778 24.9947 36.3911 24.664C35.8045 24.3333 35.3458 23.8427 35.0151 23.192C34.6845 22.5307 34.5191 21.7253 34.5191 20.776C34.5191 19.8373 34.6685 19.032 34.9671 18.36C35.2658 17.688 35.6818 17.1707 36.2151 16.808C36.7591 16.4453 37.3885 16.264 38.1031 16.264ZM38.1031 17.416C37.4845 17.416 36.9938 17.6347 36.6311 18.072C36.2685 18.4987 36.0551 19.096 35.9911 19.864H40.0231C40.0231 19.3733 39.9538 18.9467 39.8151 18.584C39.6765 18.2213 39.4631 17.9387 39.1751 17.736C38.8978 17.5227 38.5405 17.416 38.1031 17.416ZM44.8748 25H43.4828V12.84H44.8748V25Z" fill="black"/>
<rect x="1" y="1" width="53" height="36" stroke="#B3800F" stroke-width="2"/>
<line x1="127" y1="20" x2="55" y2="20" stroke="#B3800F" stroke-width="2"/>
</svg>
