<svg width="623" height="48" viewBox="0 0 623 48" fill="none" xmlns="http://www.w3.org/2000/svg">
<mask id="path-1-inside-1_8767_38615" fill="white">
<path d="M237 0.799805H623V47.7998H237V0.799805Z"/>
</mask>
<path d="M237 0.799805H623V47.7998H237V0.799805Z" fill="#FBDDDA"/>
<path d="M257.318 31.7998H249.338V17.5198H257.318V19.0998H251.138V23.5598H256.958V25.1198H251.138V30.2198H257.318V31.7998ZM265.212 20.8798C265.412 20.8798 265.625 20.8931 265.852 20.9198C266.092 20.9331 266.298 20.9598 266.472 20.9998L266.252 22.6198C266.078 22.5798 265.885 22.5465 265.672 22.5198C265.472 22.4931 265.278 22.4798 265.092 22.4798C264.545 22.4798 264.032 22.6331 263.552 22.9398C263.072 23.2331 262.685 23.6531 262.392 24.1998C262.112 24.7331 261.972 25.3598 261.972 26.0798V31.7998H260.212V21.0798H261.652L261.852 23.0398H261.932C262.278 22.4531 262.725 21.9465 263.272 21.5198C263.818 21.0931 264.465 20.8798 265.212 20.8798ZM273.473 20.8798C273.673 20.8798 273.887 20.8931 274.113 20.9198C274.353 20.9331 274.56 20.9598 274.733 20.9998L274.513 22.6198C274.34 22.5798 274.147 22.5465 273.933 22.5198C273.733 22.4931 273.54 22.4798 273.353 22.4798C272.807 22.4798 272.293 22.6331 271.813 22.9398C271.333 23.2331 270.947 23.6531 270.653 24.1998C270.373 24.7331 270.233 25.3598 270.233 26.0798V31.7998H268.473V21.0798H269.913L270.113 23.0398H270.193C270.54 22.4531 270.987 21.9465 271.533 21.5198C272.08 21.0931 272.727 20.8798 273.473 20.8798ZM285.665 26.4198C285.665 28.1931 285.211 29.5665 284.305 30.5398C283.411 31.5131 282.198 31.9998 280.665 31.9998C279.718 31.9998 278.871 31.7865 278.125 31.3598C277.391 30.9198 276.811 30.2865 276.385 29.4598C275.958 28.6198 275.745 27.6065 275.745 26.4198C275.745 24.6465 276.191 23.2798 277.085 22.3198C277.978 21.3598 279.191 20.8798 280.725 20.8798C281.698 20.8798 282.551 21.0998 283.285 21.5398C284.031 21.9665 284.611 22.5931 285.025 23.4198C285.451 24.2331 285.665 25.2331 285.665 26.4198ZM277.565 26.4198C277.565 27.6865 277.811 28.6931 278.305 29.4398C278.811 30.1731 279.611 30.5398 280.705 30.5398C281.785 30.5398 282.578 30.1731 283.085 29.4398C283.591 28.6931 283.845 27.6865 283.845 26.4198C283.845 25.1531 283.591 24.1598 283.085 23.4398C282.578 22.7198 281.778 22.3598 280.685 22.3598C279.591 22.3598 278.798 22.7198 278.305 23.4398C277.811 24.1598 277.565 25.1531 277.565 26.4198ZM293.454 20.8798C293.654 20.8798 293.867 20.8931 294.094 20.9198C294.334 20.9331 294.541 20.9598 294.714 20.9998L294.494 22.6198C294.321 22.5798 294.127 22.5465 293.914 22.5198C293.714 22.4931 293.521 22.4798 293.334 22.4798C292.787 22.4798 292.274 22.6331 291.794 22.9398C291.314 23.2331 290.927 23.6531 290.634 24.1998C290.354 24.7331 290.214 25.3598 290.214 26.0798V31.7998H288.454V21.0798H289.894L290.094 23.0398H290.174C290.521 22.4531 290.967 21.9465 291.514 21.5198C292.061 21.0931 292.707 20.8798 293.454 20.8798ZM307.451 17.5198L302.131 31.7998H300.411L305.731 17.5198H307.451ZM324.848 17.5198L319.748 31.7998H317.948L312.848 17.5198H314.728L317.948 26.6798C318.161 27.2665 318.341 27.8198 318.488 28.3398C318.634 28.8465 318.754 29.3331 318.848 29.7998C318.941 29.3331 319.061 28.8398 319.208 28.3198C319.354 27.7998 319.534 27.2398 319.748 26.6398L322.948 17.5198H324.848ZM330.209 20.8998C331.516 20.8998 332.483 21.1865 333.109 21.7598C333.736 22.3331 334.049 23.2465 334.049 24.4998V31.7998H332.769L332.429 30.2798H332.349C331.883 30.8665 331.389 31.2998 330.869 31.5798C330.363 31.8598 329.656 31.9998 328.749 31.9998C327.776 31.9998 326.969 31.7465 326.329 31.2398C325.689 30.7198 325.369 29.9131 325.369 28.8198C325.369 27.7531 325.789 26.9331 326.629 26.3598C327.469 25.7731 328.763 25.4531 330.509 25.3998L332.329 25.3398V24.6998C332.329 23.8065 332.136 23.1865 331.749 22.8398C331.363 22.4931 330.816 22.3198 330.109 22.3198C329.549 22.3198 329.016 22.4065 328.509 22.5798C328.003 22.7398 327.529 22.9265 327.089 23.1398L326.549 21.8198C327.016 21.5665 327.569 21.3531 328.209 21.1798C328.849 20.9931 329.516 20.8998 330.209 20.8998ZM330.729 26.6198C329.396 26.6731 328.469 26.8865 327.949 27.2598C327.443 27.6331 327.189 28.1598 327.189 28.8398C327.189 29.4398 327.369 29.8798 327.729 30.1598C328.103 30.4398 328.576 30.5798 329.149 30.5798C330.056 30.5798 330.809 30.3331 331.409 29.8398C332.009 29.3331 332.309 28.5598 332.309 27.5198V26.5598L330.729 26.6198ZM339.12 31.7998H337.36V16.5998H339.12V31.7998ZM343.416 17.0598C343.683 17.0598 343.916 17.1531 344.116 17.3398C344.33 17.5131 344.436 17.7931 344.436 18.1798C344.436 18.5531 344.33 18.8331 344.116 19.0198C343.916 19.2065 343.683 19.2998 343.416 19.2998C343.123 19.2998 342.876 19.2065 342.676 19.0198C342.476 18.8331 342.376 18.5531 342.376 18.1798C342.376 17.7931 342.476 17.5131 342.676 17.3398C342.876 17.1531 343.123 17.0598 343.416 17.0598ZM344.276 21.0798V31.7998H342.516V21.0798H344.276ZM351.473 31.9998C350.139 31.9998 349.073 31.5398 348.273 30.6198C347.473 29.6865 347.073 28.2998 347.073 26.4598C347.073 24.6198 347.473 23.2331 348.273 22.2998C349.086 21.3531 350.159 20.8798 351.493 20.8798C352.319 20.8798 352.993 21.0331 353.513 21.3398C354.046 21.6465 354.479 22.0198 354.813 22.4598H354.933C354.919 22.2865 354.893 22.0331 354.853 21.6998C354.826 21.3531 354.813 21.0798 354.813 20.8798V16.5998H356.573V31.7998H355.153L354.893 30.3598H354.813C354.493 30.8131 354.066 31.1998 353.533 31.5198C352.999 31.8398 352.313 31.9998 351.473 31.9998ZM351.753 30.5398C352.886 30.5398 353.679 30.2331 354.133 29.6198C354.599 28.9931 354.833 28.0531 354.833 26.7998V26.4798C354.833 25.1465 354.613 24.1265 354.173 23.4198C353.733 22.6998 352.919 22.3398 351.733 22.3398C350.786 22.3398 350.073 22.7198 349.593 23.4798C349.126 24.2265 348.893 25.2331 348.893 26.4998C348.893 27.7798 349.126 28.7731 349.593 29.4798C350.073 30.1865 350.793 30.5398 351.753 30.5398ZM364.037 20.8998C365.344 20.8998 366.311 21.1865 366.937 21.7598C367.564 22.3331 367.877 23.2465 367.877 24.4998V31.7998H366.597L366.257 30.2798H366.177C365.711 30.8665 365.217 31.2998 364.697 31.5798C364.191 31.8598 363.484 31.9998 362.577 31.9998C361.604 31.9998 360.797 31.7465 360.157 31.2398C359.517 30.7198 359.197 29.9131 359.197 28.8198C359.197 27.7531 359.617 26.9331 360.457 26.3598C361.297 25.7731 362.591 25.4531 364.337 25.3998L366.157 25.3398V24.6998C366.157 23.8065 365.964 23.1865 365.577 22.8398C365.191 22.4931 364.644 22.3198 363.937 22.3198C363.377 22.3198 362.844 22.4065 362.337 22.5798C361.831 22.7398 361.357 22.9265 360.917 23.1398L360.377 21.8198C360.844 21.5665 361.397 21.3531 362.037 21.1798C362.677 20.9931 363.344 20.8998 364.037 20.8998ZM364.557 26.6198C363.224 26.6731 362.297 26.8865 361.777 27.2598C361.271 27.6331 361.017 28.1598 361.017 28.8398C361.017 29.4398 361.197 29.8798 361.557 30.1598C361.931 30.4398 362.404 30.5798 362.977 30.5798C363.884 30.5798 364.637 30.3331 365.237 29.8398C365.837 29.3331 366.137 28.5598 366.137 27.5198V26.5598L364.557 26.6198ZM374.768 30.5598C375.035 30.5598 375.308 30.5398 375.588 30.4998C375.868 30.4465 376.095 30.3931 376.268 30.3398V31.6798C376.082 31.7731 375.815 31.8465 375.468 31.8998C375.122 31.9665 374.788 31.9998 374.468 31.9998C373.908 31.9998 373.388 31.9065 372.908 31.7198C372.442 31.5198 372.062 31.1798 371.768 30.6998C371.475 30.2198 371.328 29.5465 371.328 28.6798V22.4398H369.808V21.5998L371.348 20.8998L372.048 18.6198H373.088V21.0798H376.188V22.4398H373.088V28.6398C373.088 29.2931 373.242 29.7798 373.548 30.0998C373.868 30.4065 374.275 30.5598 374.768 30.5598ZM379.315 17.0598C379.582 17.0598 379.815 17.1531 380.015 17.3398C380.228 17.5131 380.335 17.7931 380.335 18.1798C380.335 18.5531 380.228 18.8331 380.015 19.0198C379.815 19.2065 379.582 19.2998 379.315 19.2998C379.022 19.2998 378.775 19.2065 378.575 19.0198C378.375 18.8331 378.275 18.5531 378.275 18.1798C378.275 17.7931 378.375 17.5131 378.575 17.3398C378.775 17.1531 379.022 17.0598 379.315 17.0598ZM380.175 21.0798V31.7998H378.415V21.0798H380.175ZM392.891 26.4198C392.891 28.1931 392.438 29.5665 391.531 30.5398C390.638 31.5131 389.424 31.9998 387.891 31.9998C386.944 31.9998 386.098 31.7865 385.351 31.3598C384.618 30.9198 384.038 30.2865 383.611 29.4598C383.184 28.6198 382.971 27.6065 382.971 26.4198C382.971 24.6465 383.418 23.2798 384.311 22.3198C385.204 21.3598 386.418 20.8798 387.951 20.8798C388.924 20.8798 389.778 21.0998 390.511 21.5398C391.258 21.9665 391.838 22.5931 392.251 23.4198C392.678 24.2331 392.891 25.2331 392.891 26.4198ZM384.791 26.4198C384.791 27.6865 385.038 28.6931 385.531 29.4398C386.038 30.1731 386.838 30.5398 387.931 30.5398C389.011 30.5398 389.804 30.1731 390.311 29.4398C390.818 28.6931 391.071 27.6865 391.071 26.4198C391.071 25.1531 390.818 24.1598 390.311 23.4398C389.804 22.7198 389.004 22.3598 387.911 22.3598C386.818 22.3598 386.024 22.7198 385.531 23.4398C385.038 24.1598 384.791 25.1531 384.791 26.4198ZM400.84 20.8798C402.12 20.8798 403.087 21.1931 403.74 21.8198C404.394 22.4331 404.72 23.4331 404.72 24.8198V31.7998H402.98V24.9398C402.98 23.2198 402.18 22.3598 400.58 22.3598C399.394 22.3598 398.574 22.6931 398.12 23.3598C397.667 24.0265 397.44 24.9865 397.44 26.2398V31.7998H395.68V21.0798H397.1L397.36 22.5398H397.46C397.807 21.9798 398.287 21.5665 398.9 21.2998C399.514 21.0198 400.16 20.8798 400.84 20.8798ZM424.999 20.8798C426.212 20.8798 427.119 21.1931 427.719 21.8198C428.319 22.4331 428.619 23.4331 428.619 24.8198V31.7998H426.879V24.8998C426.879 23.2065 426.152 22.3598 424.699 22.3598C423.659 22.3598 422.912 22.6598 422.459 23.2598C422.019 23.8598 421.799 24.7331 421.799 25.8798V31.7998H420.059V24.8998C420.059 23.2065 419.326 22.3598 417.859 22.3598C416.779 22.3598 416.032 22.6931 415.619 23.3598C415.206 24.0265 414.999 24.9865 414.999 26.2398V31.7998H413.239V21.0798H414.659L414.919 22.5398H415.019C415.352 21.9798 415.799 21.5665 416.359 21.2998C416.932 21.0198 417.539 20.8798 418.179 20.8798C419.859 20.8798 420.952 21.4798 421.459 22.6798H421.559C421.919 22.0665 422.406 21.6131 423.019 21.3198C423.646 21.0265 424.306 20.8798 424.999 20.8798ZM436.07 20.8798C436.99 20.8798 437.777 21.0798 438.43 21.4798C439.097 21.8798 439.604 22.4465 439.95 23.1798C440.31 23.8998 440.49 24.7465 440.49 25.7198V26.7798H433.15C433.177 27.9931 433.484 28.9198 434.07 29.5598C434.67 30.1865 435.504 30.4998 436.57 30.4998C437.25 30.4998 437.85 30.4398 438.37 30.3198C438.904 30.1865 439.45 29.9998 440.01 29.7598V31.2998C439.464 31.5398 438.924 31.7131 438.39 31.8198C437.857 31.9398 437.224 31.9998 436.49 31.9998C435.477 31.9998 434.577 31.7931 433.79 31.3798C433.017 30.9665 432.41 30.3531 431.97 29.5398C431.544 28.7131 431.33 27.7065 431.33 26.5198C431.33 25.3465 431.524 24.3398 431.91 23.4998C432.31 22.6598 432.864 22.0131 433.57 21.5598C434.29 21.1065 435.124 20.8798 436.07 20.8798ZM436.05 22.3198C435.21 22.3198 434.544 22.5931 434.05 23.1398C433.57 23.6731 433.284 24.4198 433.19 25.3798H438.65C438.637 24.4731 438.424 23.7398 438.01 23.1798C437.597 22.6065 436.944 22.3198 436.05 22.3198ZM450.2 28.8398C450.2 29.8798 449.813 30.6665 449.04 31.1998C448.266 31.7331 447.226 31.9998 445.92 31.9998C445.173 31.9998 444.526 31.9398 443.98 31.8198C443.446 31.6998 442.973 31.5331 442.56 31.3198V29.7198C442.986 29.9331 443.5 30.1331 444.1 30.3198C444.713 30.4931 445.333 30.5798 445.96 30.5798C446.853 30.5798 447.5 30.4398 447.9 30.1598C448.3 29.8665 448.5 29.4798 448.5 28.9998C448.5 28.7331 448.426 28.4931 448.28 28.2798C448.133 28.0665 447.866 27.8531 447.48 27.6398C447.106 27.4265 446.566 27.1865 445.86 26.9198C445.166 26.6531 444.573 26.3865 444.08 26.1198C443.586 25.8531 443.206 25.5331 442.94 25.1598C442.673 24.7865 442.54 24.3065 442.54 23.7198C442.54 22.8131 442.906 22.1131 443.64 21.6198C444.386 21.1265 445.36 20.8798 446.56 20.8798C447.213 20.8798 447.82 20.9465 448.38 21.0798C448.953 21.1998 449.486 21.3731 449.98 21.5998L449.38 22.9998C448.926 22.8131 448.453 22.6531 447.96 22.5198C447.466 22.3865 446.96 22.3198 446.44 22.3198C445.72 22.3198 445.166 22.4398 444.78 22.6798C444.406 22.9065 444.22 23.2198 444.22 23.6198C444.22 23.9131 444.306 24.1665 444.48 24.3798C444.653 24.5798 444.94 24.7798 445.34 24.9798C445.753 25.1665 446.3 25.3931 446.98 25.6598C447.66 25.9131 448.24 26.1731 448.72 26.4398C449.2 26.7065 449.566 27.0331 449.82 27.4198C450.073 27.7931 450.2 28.2665 450.2 28.8398ZM459.77 28.8398C459.77 29.8798 459.383 30.6665 458.61 31.1998C457.837 31.7331 456.797 31.9998 455.49 31.9998C454.743 31.9998 454.097 31.9398 453.55 31.8198C453.017 31.6998 452.543 31.5331 452.13 31.3198V29.7198C452.557 29.9331 453.07 30.1331 453.67 30.3198C454.283 30.4931 454.903 30.5798 455.53 30.5798C456.423 30.5798 457.07 30.4398 457.47 30.1598C457.87 29.8665 458.07 29.4798 458.07 28.9998C458.07 28.7331 457.997 28.4931 457.85 28.2798C457.703 28.0665 457.437 27.8531 457.05 27.6398C456.677 27.4265 456.137 27.1865 455.43 26.9198C454.737 26.6531 454.143 26.3865 453.65 26.1198C453.157 25.8531 452.777 25.5331 452.51 25.1598C452.243 24.7865 452.11 24.3065 452.11 23.7198C452.11 22.8131 452.477 22.1131 453.21 21.6198C453.957 21.1265 454.93 20.8798 456.13 20.8798C456.783 20.8798 457.39 20.9465 457.95 21.0798C458.523 21.1998 459.057 21.3731 459.55 21.5998L458.95 22.9998C458.497 22.8131 458.023 22.6531 457.53 22.5198C457.037 22.3865 456.53 22.3198 456.01 22.3198C455.29 22.3198 454.737 22.4398 454.35 22.6798C453.977 22.9065 453.79 23.2198 453.79 23.6198C453.79 23.9131 453.877 24.1665 454.05 24.3798C454.223 24.5798 454.51 24.7798 454.91 24.9798C455.323 25.1665 455.87 25.3931 456.55 25.6598C457.23 25.9131 457.81 26.1731 458.29 26.4398C458.77 26.7065 459.137 27.0331 459.39 27.4198C459.643 27.7931 459.77 28.2665 459.77 28.8398ZM466.42 20.8998C467.727 20.8998 468.693 21.1865 469.32 21.7598C469.947 22.3331 470.26 23.2465 470.26 24.4998V31.7998H468.98L468.64 30.2798H468.56C468.093 30.8665 467.6 31.2998 467.08 31.5798C466.573 31.8598 465.867 31.9998 464.96 31.9998C463.987 31.9998 463.18 31.7465 462.54 31.2398C461.9 30.7198 461.58 29.9131 461.58 28.8198C461.58 27.7531 462 26.9331 462.84 26.3598C463.68 25.7731 464.973 25.4531 466.72 25.3998L468.54 25.3398V24.6998C468.54 23.8065 468.347 23.1865 467.96 22.8398C467.573 22.4931 467.027 22.3198 466.32 22.3198C465.76 22.3198 465.227 22.4065 464.72 22.5798C464.213 22.7398 463.74 22.9265 463.3 23.1398L462.76 21.8198C463.227 21.5665 463.78 21.3531 464.42 21.1798C465.06 20.9931 465.727 20.8998 466.42 20.8998ZM466.94 26.6198C465.607 26.6731 464.68 26.8865 464.16 27.2598C463.653 27.6331 463.4 28.1598 463.4 28.8398C463.4 29.4398 463.58 29.8798 463.94 30.1598C464.313 30.4398 464.787 30.5798 465.36 30.5798C466.267 30.5798 467.02 30.3331 467.62 29.8398C468.22 29.3331 468.52 28.5598 468.52 27.5198V26.5598L466.94 26.6198ZM477.371 20.8798C478.078 20.8798 478.711 21.0131 479.271 21.2798C479.844 21.5465 480.331 21.9531 480.731 22.4998H480.831L481.071 21.0798H482.471V31.9798C482.471 33.5131 482.078 34.6665 481.291 35.4398C480.518 36.2131 479.311 36.5998 477.671 36.5998C476.098 36.5998 474.811 36.3731 473.811 35.9198V34.2998C474.864 34.8598 476.184 35.1398 477.771 35.1398C478.691 35.1398 479.411 34.8665 479.931 34.3198C480.464 33.7865 480.731 33.0531 480.731 32.1198V31.6998C480.731 31.5398 480.738 31.3131 480.751 31.0198C480.764 30.7131 480.778 30.4998 480.791 30.3798H480.711C479.991 31.4598 478.884 31.9998 477.391 31.9998C476.004 31.9998 474.918 31.5131 474.131 30.5398C473.358 29.5665 472.971 28.2065 472.971 26.4598C472.971 24.7531 473.358 23.3998 474.131 22.3998C474.918 21.3865 475.998 20.8798 477.371 20.8798ZM477.611 22.3598C476.718 22.3598 476.024 22.7198 475.531 23.4398C475.038 24.1465 474.791 25.1598 474.791 26.4798C474.791 27.7998 475.031 28.8131 475.511 29.5198C476.004 30.2131 476.718 30.5598 477.651 30.5598C478.731 30.5598 479.518 30.2731 480.011 29.6998C480.504 29.1131 480.751 28.1731 480.751 26.8798V26.4598C480.751 24.9931 480.498 23.9465 479.991 23.3198C479.484 22.6798 478.691 22.3598 477.611 22.3598ZM490.016 20.8798C490.936 20.8798 491.722 21.0798 492.376 21.4798C493.042 21.8798 493.549 22.4465 493.896 23.1798C494.256 23.8998 494.436 24.7465 494.436 25.7198V26.7798H487.096C487.122 27.9931 487.429 28.9198 488.016 29.5598C488.616 30.1865 489.449 30.4998 490.516 30.4998C491.196 30.4998 491.796 30.4398 492.316 30.3198C492.849 30.1865 493.396 29.9998 493.956 29.7598V31.2998C493.409 31.5398 492.869 31.7131 492.336 31.8198C491.802 31.9398 491.169 31.9998 490.436 31.9998C489.422 31.9998 488.522 31.7931 487.736 31.3798C486.962 30.9665 486.356 30.3531 485.916 29.5398C485.489 28.7131 485.276 27.7065 485.276 26.5198C485.276 25.3465 485.469 24.3398 485.856 23.4998C486.256 22.6598 486.809 22.0131 487.516 21.5598C488.236 21.1065 489.069 20.8798 490.016 20.8798ZM489.996 22.3198C489.156 22.3198 488.489 22.5931 487.996 23.1398C487.516 23.6731 487.229 24.4198 487.136 25.3798H492.596C492.582 24.4731 492.369 23.7398 491.956 23.1798C491.542 22.6065 490.889 22.3198 489.996 22.3198Z" fill="black"/>
<path d="M239 47.7998V0.799805H235V47.7998H239Z" fill="#C24438" mask="url(#path-1-inside-1_8767_38615)"/>
<path d="M16.8178 30.5645H9.72444V17.8711H16.8178V19.2756H11.3244V23.24H16.4978V24.6267H11.3244V29.16H16.8178V30.5645ZM23.834 20.8578C24.0118 20.8578 24.2014 20.8696 24.4029 20.8933C24.6163 20.9052 24.8 20.9289 24.954 20.9645L24.7585 22.4045C24.6044 22.3689 24.4325 22.3393 24.2429 22.3156C24.0651 22.2919 23.8933 22.28 23.7274 22.28C23.2414 22.28 22.7851 22.4163 22.3585 22.6889C21.9318 22.9496 21.5881 23.323 21.3274 23.8089C21.0785 24.283 20.954 24.84 20.954 25.48V30.5645H19.3896V21.0356H20.6696L20.8474 22.7778H20.9185C21.2266 22.2563 21.6237 21.8059 22.1096 21.4267C22.5955 21.0474 23.1703 20.8578 23.834 20.8578ZM31.1778 20.8578C31.3556 20.8578 31.5452 20.8696 31.7467 20.8933C31.96 20.9052 32.1437 20.9289 32.2978 20.9645L32.1022 22.4045C31.9481 22.3689 31.7763 22.3393 31.5867 22.3156C31.4089 22.2919 31.237 22.28 31.0711 22.28C30.5852 22.28 30.1289 22.4163 29.7022 22.6889C29.2756 22.9496 28.9319 23.323 28.6711 23.8089C28.4222 24.283 28.2978 24.84 28.2978 25.48V30.5645H26.7333V21.0356H28.0133L28.1911 22.7778H28.2622C28.5704 22.2563 28.9674 21.8059 29.4533 21.4267C29.9393 21.0474 30.5141 20.8578 31.1778 20.8578ZM42.0143 25.7822C42.0143 27.3585 41.6113 28.5793 40.8054 29.4445C40.0113 30.3096 38.9328 30.7422 37.5699 30.7422C36.7284 30.7422 35.9758 30.5526 35.3121 30.1733C34.6602 29.7822 34.1447 29.2193 33.7654 28.4845C33.3862 27.7378 33.1965 26.837 33.1965 25.7822C33.1965 24.2059 33.5936 22.9911 34.3876 22.1378C35.1817 21.2845 36.2602 20.8578 37.6232 20.8578C38.4884 20.8578 39.2469 21.0533 39.8988 21.4445C40.5625 21.8237 41.078 22.3807 41.4454 23.1156C41.8247 23.8385 42.0143 24.7274 42.0143 25.7822ZM34.8143 25.7822C34.8143 26.9082 35.0336 27.803 35.4721 28.4667C35.9225 29.1185 36.6336 29.4445 37.6054 29.4445C38.5654 29.4445 39.2706 29.1185 39.721 28.4667C40.1713 27.803 40.3965 26.9082 40.3965 25.7822C40.3965 24.6563 40.1713 23.7733 39.721 23.1333C39.2706 22.4933 38.5595 22.1733 37.5876 22.1733C36.6158 22.1733 35.9106 22.4933 35.4721 23.1333C35.0336 23.7733 34.8143 24.6563 34.8143 25.7822ZM48.9382 20.8578C49.116 20.8578 49.3056 20.8696 49.5071 20.8933C49.7204 20.9052 49.9041 20.9289 50.0582 20.9645L49.8626 22.4045C49.7086 22.3689 49.5367 22.3393 49.3471 22.3156C49.1693 22.2919 48.9975 22.28 48.8315 22.28C48.3456 22.28 47.8893 22.4163 47.4626 22.6889C47.036 22.9496 46.6923 23.323 46.4315 23.8089C46.1826 24.283 46.0582 24.84 46.0582 25.48V30.5645H44.4938V21.0356H45.7738L45.9515 22.7778H46.0226C46.3308 22.2563 46.7278 21.8059 47.2138 21.4267C47.6997 21.0474 48.2745 20.8578 48.9382 20.8578ZM66.9089 20.8578C67.9874 20.8578 68.7933 21.1363 69.3267 21.6933C69.86 22.2385 70.1267 23.1274 70.1267 24.36V30.5645H68.58V24.4311C68.58 22.9259 67.9341 22.1733 66.6422 22.1733C65.7178 22.1733 65.0541 22.44 64.6511 22.9733C64.26 23.5067 64.0644 24.283 64.0644 25.3022V30.5645H62.5178V24.4311C62.5178 22.9259 61.8659 22.1733 60.5622 22.1733C59.6022 22.1733 58.9385 22.4696 58.5711 23.0622C58.2037 23.6548 58.02 24.5082 58.02 25.6222V30.5645H56.4556V21.0356H57.7178L57.9489 22.3333H58.0378C58.3341 21.8356 58.7311 21.4682 59.2289 21.2311C59.7385 20.9822 60.2778 20.8578 60.8467 20.8578C62.34 20.8578 63.3119 21.3911 63.7622 22.4578H63.8511C64.1711 21.9126 64.6037 21.5096 65.1489 21.2489C65.7059 20.9882 66.2926 20.8578 66.9089 20.8578ZM76.7501 20.8578C77.5679 20.8578 78.2672 21.0356 78.8479 21.3911C79.4405 21.7467 79.8909 22.2504 80.199 22.9022C80.519 23.5422 80.679 24.2948 80.679 25.16V26.1022H74.1546C74.1783 27.1807 74.4509 28.0045 74.9724 28.5733C75.5057 29.1304 76.2464 29.4089 77.1946 29.4089C77.799 29.4089 78.3324 29.3556 78.7946 29.2489C79.2687 29.1304 79.7546 28.9645 80.2524 28.7511V30.12C79.7664 30.3333 79.2864 30.4874 78.8124 30.5822C78.3383 30.6889 77.7753 30.7422 77.1235 30.7422C76.2227 30.7422 75.4227 30.5585 74.7235 30.1911C74.0361 29.8237 73.4968 29.2785 73.1057 28.5556C72.7264 27.8207 72.5368 26.9259 72.5368 25.8711C72.5368 24.8282 72.7087 23.9333 73.0524 23.1867C73.4079 22.44 73.8998 21.8652 74.5279 21.4622C75.1679 21.0593 75.9087 20.8578 76.7501 20.8578ZM76.7324 22.1378C75.9857 22.1378 75.3931 22.3807 74.9546 22.8667C74.5279 23.3407 74.2731 24.0045 74.1901 24.8578H79.0435C79.0316 24.0519 78.842 23.4 78.4746 22.9022C78.1072 22.3926 77.5264 22.1378 76.7324 22.1378ZM89.3093 27.9333C89.3093 28.8578 88.9656 29.557 88.2782 30.0311C87.5908 30.5052 86.6663 30.7422 85.5049 30.7422C84.8412 30.7422 84.2663 30.6889 83.7804 30.5822C83.3063 30.4756 82.8856 30.3274 82.5182 30.1378V28.7156C82.8975 28.9052 83.3538 29.083 83.8871 29.2489C84.4323 29.403 84.9834 29.48 85.5404 29.48C86.3345 29.48 86.9093 29.3556 87.2649 29.1067C87.6204 28.8459 87.7982 28.5022 87.7982 28.0756C87.7982 27.8385 87.733 27.6252 87.6026 27.4356C87.4723 27.2459 87.2352 27.0563 86.8915 26.8667C86.5597 26.677 86.0797 26.4637 85.4515 26.2267C84.8352 25.9896 84.3078 25.7526 83.8693 25.5156C83.4308 25.2785 83.093 24.9941 82.856 24.6622C82.6189 24.3304 82.5004 23.9037 82.5004 23.3822C82.5004 22.5763 82.8263 21.9541 83.4782 21.5156C84.1419 21.077 85.0071 20.8578 86.0738 20.8578C86.6545 20.8578 87.1938 20.917 87.6915 21.0356C88.2012 21.1422 88.6752 21.2963 89.1138 21.4978L88.5804 22.7422C88.1775 22.5763 87.7567 22.4341 87.3182 22.3156C86.8797 22.197 86.4293 22.1378 85.9671 22.1378C85.3271 22.1378 84.8352 22.2445 84.4915 22.4578C84.1597 22.6593 83.9938 22.9378 83.9938 23.2933C83.9938 23.5541 84.0708 23.7793 84.2249 23.9689C84.3789 24.1467 84.6338 24.3245 84.9893 24.5022C85.3567 24.6682 85.8426 24.8696 86.4471 25.1067C87.0515 25.3319 87.5671 25.563 87.9938 25.8C88.4204 26.037 88.7463 26.3274 88.9715 26.6711C89.1967 27.003 89.3093 27.4237 89.3093 27.9333ZM97.8163 27.9333C97.8163 28.8578 97.4726 29.557 96.7851 30.0311C96.0977 30.5052 95.1733 30.7422 94.0118 30.7422C93.3481 30.7422 92.7733 30.6889 92.2874 30.5822C91.8133 30.4756 91.3926 30.3274 91.0251 30.1378V28.7156C91.4044 28.9052 91.8607 29.083 92.394 29.2489C92.9392 29.403 93.4903 29.48 94.0474 29.48C94.8414 29.48 95.4163 29.3556 95.7718 29.1067C96.1274 28.8459 96.3051 28.5022 96.3051 28.0756C96.3051 27.8385 96.24 27.6252 96.1096 27.4356C95.9792 27.2459 95.7422 27.0563 95.3985 26.8667C95.0666 26.677 94.5866 26.4637 93.9585 26.2267C93.3422 25.9896 92.8148 25.7526 92.3763 25.5156C91.9377 25.2785 91.6 24.9941 91.3629 24.6622C91.1259 24.3304 91.0074 23.9037 91.0074 23.3822C91.0074 22.5763 91.3333 21.9541 91.9851 21.5156C92.6488 21.077 93.514 20.8578 94.5807 20.8578C95.1614 20.8578 95.7007 20.917 96.1985 21.0356C96.7081 21.1422 97.1822 21.2963 97.6207 21.4978L97.0874 22.7422C96.6844 22.5763 96.2637 22.4341 95.8251 22.3156C95.3866 22.197 94.9363 22.1378 94.474 22.1378C93.834 22.1378 93.3422 22.2445 92.9985 22.4578C92.6666 22.6593 92.5007 22.9378 92.5007 23.2933C92.5007 23.5541 92.5777 23.7793 92.7318 23.9689C92.8859 24.1467 93.1407 24.3245 93.4963 24.5022C93.8637 24.6682 94.3496 24.8696 94.954 25.1067C95.5585 25.3319 96.074 25.563 96.5007 25.8C96.9274 26.037 97.2533 26.3274 97.4785 26.6711C97.7037 27.003 97.8163 27.4237 97.8163 27.9333ZM103.728 20.8756C104.889 20.8756 105.748 21.1304 106.305 21.64C106.862 22.1496 107.141 22.9615 107.141 24.0756V30.5645H106.003L105.701 29.2133H105.63C105.215 29.7348 104.777 30.12 104.314 30.3689C103.864 30.6178 103.236 30.7422 102.43 30.7422C101.565 30.7422 100.848 30.517 100.279 30.0667C99.7099 29.6045 99.4254 28.8874 99.4254 27.9156C99.4254 26.9674 99.7988 26.2385 100.545 25.7289C101.292 25.2074 102.442 24.923 103.994 24.8756L105.612 24.8222V24.2533C105.612 23.4593 105.44 22.9082 105.097 22.6C104.753 22.2919 104.267 22.1378 103.639 22.1378C103.141 22.1378 102.667 22.2148 102.217 22.3689C101.766 22.5111 101.345 22.677 100.954 22.8667L100.474 21.6933C100.889 21.4682 101.381 21.2785 101.95 21.1245C102.519 20.9585 103.111 20.8756 103.728 20.8756ZM104.19 25.96C103.005 26.0074 102.181 26.197 101.719 26.5289C101.268 26.8607 101.043 27.3289 101.043 27.9333C101.043 28.4667 101.203 28.8578 101.523 29.1067C101.855 29.3556 102.276 29.48 102.785 29.48C103.591 29.48 104.261 29.2607 104.794 28.8222C105.328 28.3719 105.594 27.6845 105.594 26.76V25.9067L104.19 25.96ZM113.462 20.8578C114.09 20.8578 114.653 20.9763 115.151 21.2133C115.66 21.4504 116.093 21.8119 116.448 22.2978H116.537L116.751 21.0356H117.995V30.7245C117.995 32.0874 117.646 33.1126 116.946 33.8C116.259 34.4874 115.186 34.8311 113.728 34.8311C112.33 34.8311 111.186 34.6296 110.297 34.2267V32.7867C111.234 33.2845 112.407 33.5333 113.817 33.5333C114.635 33.5333 115.275 33.2904 115.737 32.8045C116.211 32.3304 116.448 31.6785 116.448 30.8489V30.4756C116.448 30.3333 116.454 30.1319 116.466 29.8711C116.478 29.5985 116.49 29.4089 116.502 29.3022H116.431C115.791 30.2622 114.807 30.7422 113.48 30.7422C112.247 30.7422 111.281 30.3096 110.582 29.4445C109.894 28.5793 109.551 27.3704 109.551 25.8178C109.551 24.3007 109.894 23.0978 110.582 22.2089C111.281 21.3082 112.241 20.8578 113.462 20.8578ZM113.675 22.1733C112.881 22.1733 112.265 22.4933 111.826 23.1333C111.388 23.7615 111.168 24.6622 111.168 25.8356C111.168 27.0089 111.382 27.9096 111.808 28.5378C112.247 29.1541 112.881 29.4622 113.711 29.4622C114.671 29.4622 115.37 29.2074 115.808 28.6978C116.247 28.1763 116.466 27.3407 116.466 26.1911V25.8178C116.466 24.5141 116.241 23.5837 115.791 23.0267C115.34 22.4578 114.635 22.1733 113.675 22.1733ZM124.702 20.8578C125.519 20.8578 126.219 21.0356 126.799 21.3911C127.392 21.7467 127.842 22.2504 128.15 22.9022C128.47 23.5422 128.63 24.2948 128.63 25.16V26.1022H122.106C122.13 27.1807 122.402 28.0045 122.924 28.5733C123.457 29.1304 124.198 29.4089 125.146 29.4089C125.75 29.4089 126.284 29.3556 126.746 29.2489C127.22 29.1304 127.706 28.9645 128.204 28.7511V30.12C127.718 30.3333 127.238 30.4874 126.764 30.5822C126.29 30.6889 125.727 30.7422 125.075 30.7422C124.174 30.7422 123.374 30.5585 122.675 30.1911C121.987 29.8237 121.448 29.2785 121.057 28.5556C120.678 27.8207 120.488 26.9259 120.488 25.8711C120.488 24.8282 120.66 23.9333 121.004 23.1867C121.359 22.44 121.851 21.8652 122.479 21.4622C123.119 21.0593 123.86 20.8578 124.702 20.8578ZM124.684 22.1378C123.937 22.1378 123.344 22.3807 122.906 22.8667C122.479 23.3407 122.224 24.0045 122.142 24.8578H126.995C126.983 24.0519 126.793 23.4 126.426 22.9022C126.059 22.3926 125.478 22.1378 124.684 22.1378Z" fill="black"/>
<rect x="1" y="7.89062" width="136" height="31.3473" stroke="#B3800F" stroke-width="2"/>
<line x1="208" y1="24.5635" x2="136" y2="24.5635" stroke="#B3800F" stroke-width="2"/>
</svg>
