<svg width="914" height="189" viewBox="0 0 914 189" fill="none" xmlns="http://www.w3.org/2000/svg">
<g clip-path="url(#clip0_8308_27610)">
<path d="M191 114L183.206 100.5L198.794 100.5L191 114Z" fill="#26374A"/>
</g>
<path d="M219.94 113V98.72H221.74V111.4H227.98V113H219.94ZM234.328 102.08C235.248 102.08 236.035 102.28 236.688 102.68C237.355 103.08 237.862 103.647 238.208 104.38C238.568 105.1 238.748 105.947 238.748 106.92V107.98H231.408C231.435 109.193 231.742 110.12 232.328 110.76C232.928 111.387 233.762 111.7 234.828 111.7C235.508 111.7 236.108 111.64 236.628 111.52C237.162 111.387 237.708 111.2 238.268 110.96V112.5C237.722 112.74 237.182 112.913 236.648 113.02C236.115 113.14 235.482 113.2 234.748 113.2C233.735 113.2 232.835 112.993 232.048 112.58C231.275 112.167 230.668 111.553 230.228 110.74C229.802 109.913 229.588 108.907 229.588 107.72C229.588 106.547 229.782 105.54 230.168 104.7C230.568 103.86 231.122 103.213 231.828 102.76C232.548 102.307 233.382 102.08 234.328 102.08ZM234.308 103.52C233.468 103.52 232.802 103.793 232.308 104.34C231.828 104.873 231.542 105.62 231.448 106.58H236.908C236.895 105.673 236.682 104.94 236.268 104.38C235.855 103.807 235.202 103.52 234.308 103.52ZM245.537 102.1C246.844 102.1 247.811 102.387 248.437 102.96C249.064 103.533 249.377 104.447 249.377 105.7V113H248.097L247.757 111.48H247.677C247.211 112.067 246.717 112.5 246.197 112.78C245.691 113.06 244.984 113.2 244.077 113.2C243.104 113.2 242.297 112.947 241.657 112.44C241.017 111.92 240.697 111.113 240.697 110.02C240.697 108.953 241.117 108.133 241.957 107.56C242.797 106.973 244.091 106.653 245.837 106.6L247.657 106.54V105.9C247.657 105.007 247.464 104.387 247.077 104.04C246.691 103.693 246.144 103.52 245.437 103.52C244.877 103.52 244.344 103.607 243.837 103.78C243.331 103.94 242.857 104.127 242.417 104.34L241.877 103.02C242.344 102.767 242.897 102.553 243.537 102.38C244.177 102.193 244.844 102.1 245.537 102.1ZM246.057 107.82C244.724 107.873 243.797 108.087 243.277 108.46C242.771 108.833 242.517 109.36 242.517 110.04C242.517 110.64 242.697 111.08 243.057 111.36C243.431 111.64 243.904 111.78 244.477 111.78C245.384 111.78 246.137 111.533 246.737 111.04C247.337 110.533 247.637 109.76 247.637 108.72V107.76L246.057 107.82ZM257.688 102.08C257.888 102.08 258.102 102.093 258.328 102.12C258.568 102.133 258.775 102.16 258.948 102.2L258.728 103.82C258.555 103.78 258.362 103.747 258.148 103.72C257.948 103.693 257.755 103.68 257.568 103.68C257.022 103.68 256.508 103.833 256.028 104.14C255.548 104.433 255.162 104.853 254.868 105.4C254.588 105.933 254.448 106.56 254.448 107.28V113H252.688V102.28H254.128L254.328 104.24H254.408C254.755 103.653 255.202 103.147 255.748 102.72C256.295 102.293 256.942 102.08 257.688 102.08ZM266.11 102.08C267.39 102.08 268.357 102.393 269.01 103.02C269.663 103.633 269.99 104.633 269.99 106.02V113H268.25V106.14C268.25 104.42 267.45 103.56 265.85 103.56C264.663 103.56 263.843 103.893 263.39 104.56C262.937 105.227 262.71 106.187 262.71 107.44V113H260.95V102.28H262.37L262.63 103.74H262.73C263.077 103.18 263.557 102.767 264.17 102.5C264.783 102.22 265.43 102.08 266.11 102.08ZM290.269 102.08C291.482 102.08 292.389 102.393 292.989 103.02C293.589 103.633 293.889 104.633 293.889 106.02V113H292.149V106.1C292.149 104.407 291.422 103.56 289.969 103.56C288.929 103.56 288.182 103.86 287.729 104.46C287.289 105.06 287.069 105.933 287.069 107.08V113H285.329V106.1C285.329 104.407 284.595 103.56 283.129 103.56C282.049 103.56 281.302 103.893 280.889 104.56C280.475 105.227 280.269 106.187 280.269 107.44V113H278.509V102.28H279.929L280.189 103.74H280.289C280.622 103.18 281.069 102.767 281.629 102.5C282.202 102.22 282.809 102.08 283.449 102.08C285.129 102.08 286.222 102.68 286.729 103.88H286.829C287.189 103.267 287.675 102.813 288.289 102.52C288.915 102.227 289.575 102.08 290.269 102.08ZM306.52 107.62C306.52 109.393 306.067 110.767 305.16 111.74C304.267 112.713 303.053 113.2 301.52 113.2C300.573 113.2 299.727 112.987 298.98 112.56C298.247 112.12 297.667 111.487 297.24 110.66C296.813 109.82 296.6 108.807 296.6 107.62C296.6 105.847 297.047 104.48 297.94 103.52C298.833 102.56 300.047 102.08 301.58 102.08C302.553 102.08 303.407 102.3 304.14 102.74C304.887 103.167 305.467 103.793 305.88 104.62C306.307 105.433 306.52 106.433 306.52 107.62ZM298.42 107.62C298.42 108.887 298.667 109.893 299.16 110.64C299.667 111.373 300.467 111.74 301.56 111.74C302.64 111.74 303.433 111.373 303.94 110.64C304.447 109.893 304.7 108.887 304.7 107.62C304.7 106.353 304.447 105.36 303.94 104.64C303.433 103.92 302.633 103.56 301.54 103.56C300.447 103.56 299.653 103.92 299.16 104.64C298.667 105.36 298.42 106.353 298.42 107.62ZM314.309 102.08C314.509 102.08 314.723 102.093 314.949 102.12C315.189 102.133 315.396 102.16 315.569 102.2L315.349 103.82C315.176 103.78 314.983 103.747 314.769 103.72C314.569 103.693 314.376 103.68 314.189 103.68C313.643 103.68 313.129 103.833 312.649 104.14C312.169 104.433 311.783 104.853 311.489 105.4C311.209 105.933 311.069 106.56 311.069 107.28V113H309.309V102.28H310.749L310.949 104.24H311.029C311.376 103.653 311.823 103.147 312.369 102.72C312.916 102.293 313.563 102.08 314.309 102.08ZM321.32 102.08C322.24 102.08 323.027 102.28 323.68 102.68C324.347 103.08 324.854 103.647 325.2 104.38C325.56 105.1 325.74 105.947 325.74 106.92V107.98H318.4C318.427 109.193 318.734 110.12 319.32 110.76C319.92 111.387 320.754 111.7 321.82 111.7C322.5 111.7 323.1 111.64 323.62 111.52C324.154 111.387 324.7 111.2 325.26 110.96V112.5C324.714 112.74 324.174 112.913 323.64 113.02C323.107 113.14 322.474 113.2 321.74 113.2C320.727 113.2 319.827 112.993 319.04 112.58C318.267 112.167 317.66 111.553 317.22 110.74C316.794 109.913 316.58 108.907 316.58 107.72C316.58 106.547 316.774 105.54 317.16 104.7C317.56 103.86 318.114 103.213 318.82 102.76C319.54 102.307 320.374 102.08 321.32 102.08ZM321.3 103.52C320.46 103.52 319.794 103.793 319.3 104.34C318.82 104.873 318.534 105.62 318.44 106.58H323.9C323.887 105.673 323.674 104.94 323.26 104.38C322.847 103.807 322.194 103.52 321.3 103.52ZM337.725 102.1C339.032 102.1 339.998 102.387 340.625 102.96C341.252 103.533 341.565 104.447 341.565 105.7V113H340.285L339.945 111.48H339.865C339.398 112.067 338.905 112.5 338.385 112.78C337.878 113.06 337.172 113.2 336.265 113.2C335.292 113.2 334.485 112.947 333.845 112.44C333.205 111.92 332.885 111.113 332.885 110.02C332.885 108.953 333.305 108.133 334.145 107.56C334.985 106.973 336.278 106.653 338.025 106.6L339.845 106.54V105.9C339.845 105.007 339.652 104.387 339.265 104.04C338.878 103.693 338.332 103.52 337.625 103.52C337.065 103.52 336.532 103.607 336.025 103.78C335.518 103.94 335.045 104.127 334.605 104.34L334.065 103.02C334.532 102.767 335.085 102.553 335.725 102.38C336.365 102.193 337.032 102.1 337.725 102.1ZM338.245 107.82C336.912 107.873 335.985 108.087 335.465 108.46C334.958 108.833 334.705 109.36 334.705 110.04C334.705 110.64 334.885 111.08 335.245 111.36C335.618 111.64 336.092 111.78 336.665 111.78C337.572 111.78 338.325 111.533 338.925 111.04C339.525 110.533 339.825 109.76 339.825 108.72V107.76L338.245 107.82ZM346.636 101.5C346.636 101.953 346.622 102.38 346.596 102.78C346.582 103.167 346.562 103.473 346.536 103.7H346.636C346.942 103.247 347.362 102.867 347.896 102.56C348.429 102.253 349.116 102.1 349.956 102.1C351.289 102.1 352.356 102.567 353.156 103.5C353.969 104.42 354.376 105.8 354.376 107.64C354.376 109.48 353.969 110.867 353.156 111.8C352.342 112.733 351.276 113.2 349.956 113.2C349.116 113.2 348.429 113.047 347.896 112.74C347.362 112.433 346.942 112.067 346.636 111.64H346.496L346.136 113H344.876V97.8H346.636V101.5ZM349.656 103.56C348.522 103.56 347.736 103.887 347.296 104.54C346.856 105.193 346.636 106.207 346.636 107.58V107.66C346.636 108.98 346.849 109.993 347.276 110.7C347.716 111.393 348.522 111.74 349.696 111.74C350.656 111.74 351.369 111.387 351.836 110.68C352.316 109.973 352.556 108.953 352.556 107.62C352.556 104.913 351.589 103.56 349.656 103.56ZM366.5 107.62C366.5 109.393 366.047 110.767 365.14 111.74C364.247 112.713 363.034 113.2 361.5 113.2C360.554 113.2 359.707 112.987 358.96 112.56C358.227 112.12 357.647 111.487 357.22 110.66C356.794 109.82 356.58 108.807 356.58 107.62C356.58 105.847 357.027 104.48 357.92 103.52C358.814 102.56 360.027 102.08 361.56 102.08C362.534 102.08 363.387 102.3 364.12 102.74C364.867 103.167 365.447 103.793 365.86 104.62C366.287 105.433 366.5 106.433 366.5 107.62ZM358.4 107.62C358.4 108.887 358.647 109.893 359.14 110.64C359.647 111.373 360.447 111.74 361.54 111.74C362.62 111.74 363.414 111.373 363.92 110.64C364.427 109.893 364.68 108.887 364.68 107.62C364.68 106.353 364.427 105.36 363.92 104.64C363.414 103.92 362.614 103.56 361.52 103.56C360.427 103.56 359.634 103.92 359.14 104.64C358.647 105.36 358.4 106.353 358.4 107.62ZM378.25 102.28V113H376.81L376.55 111.58H376.47C376.123 112.14 375.643 112.553 375.03 112.82C374.417 113.073 373.763 113.2 373.07 113.2C371.777 113.2 370.803 112.893 370.15 112.28C369.497 111.653 369.17 110.66 369.17 109.3V102.28H370.95V109.18C370.95 110.887 371.743 111.74 373.33 111.74C374.517 111.74 375.337 111.407 375.79 110.74C376.257 110.073 376.49 109.113 376.49 107.86V102.28H378.25ZM385.233 111.76C385.5 111.76 385.773 111.74 386.053 111.7C386.333 111.647 386.56 111.593 386.733 111.54V112.88C386.546 112.973 386.28 113.047 385.933 113.1C385.586 113.167 385.253 113.2 384.933 113.2C384.373 113.2 383.853 113.107 383.373 112.92C382.906 112.72 382.526 112.38 382.233 111.9C381.94 111.42 381.793 110.747 381.793 109.88V103.64H380.273V102.8L381.813 102.1L382.513 99.82H383.553V102.28H386.653V103.64H383.553V109.84C383.553 110.493 383.706 110.98 384.013 111.3C384.333 111.607 384.74 111.76 385.233 111.76ZM397.655 111.76C397.922 111.76 398.195 111.74 398.475 111.7C398.755 111.647 398.982 111.593 399.155 111.54V112.88C398.968 112.973 398.702 113.047 398.355 113.1C398.008 113.167 397.675 113.2 397.355 113.2C396.795 113.2 396.275 113.107 395.795 112.92C395.328 112.72 394.948 112.38 394.655 111.9C394.362 111.42 394.215 110.747 394.215 109.88V103.64H392.695V102.8L394.235 102.1L394.935 99.82H395.975V102.28H399.075V103.64H395.975V109.84C395.975 110.493 396.128 110.98 396.435 111.3C396.755 111.607 397.162 111.76 397.655 111.76ZM403.062 102.26C403.062 102.793 403.028 103.293 402.962 103.76H403.082C403.428 103.213 403.895 102.8 404.482 102.52C405.082 102.24 405.728 102.1 406.422 102.1C407.728 102.1 408.708 102.413 409.362 103.04C410.015 103.653 410.342 104.647 410.342 106.02V113H408.602V106.14C408.602 104.42 407.802 103.56 406.202 103.56C405.002 103.56 404.175 103.9 403.722 104.58C403.282 105.247 403.062 106.207 403.062 107.46V113H401.302V97.8H403.062V102.26ZM414.565 98.26C414.832 98.26 415.065 98.3533 415.265 98.54C415.478 98.7133 415.585 98.9933 415.585 99.38C415.585 99.7533 415.478 100.033 415.265 100.22C415.065 100.407 414.832 100.5 414.565 100.5C414.272 100.5 414.025 100.407 413.825 100.22C413.625 100.033 413.525 99.7533 413.525 99.38C413.525 98.9933 413.625 98.7133 413.825 98.54C414.025 98.3533 414.272 98.26 414.565 98.26ZM415.425 102.28V113H413.665V102.28H415.425ZM425.801 110.04C425.801 111.08 425.414 111.867 424.641 112.4C423.868 112.933 422.828 113.2 421.521 113.2C420.774 113.2 420.128 113.14 419.581 113.02C419.048 112.9 418.574 112.733 418.161 112.52V110.92C418.588 111.133 419.101 111.333 419.701 111.52C420.314 111.693 420.934 111.78 421.561 111.78C422.454 111.78 423.101 111.64 423.501 111.36C423.901 111.067 424.101 110.68 424.101 110.2C424.101 109.933 424.028 109.693 423.881 109.48C423.734 109.267 423.468 109.053 423.081 108.84C422.708 108.627 422.168 108.387 421.461 108.12C420.768 107.853 420.174 107.587 419.681 107.32C419.188 107.053 418.808 106.733 418.541 106.36C418.274 105.987 418.141 105.507 418.141 104.92C418.141 104.013 418.508 103.313 419.241 102.82C419.988 102.327 420.961 102.08 422.161 102.08C422.814 102.08 423.421 102.147 423.981 102.28C424.554 102.4 425.088 102.573 425.581 102.8L424.981 104.2C424.528 104.013 424.054 103.853 423.561 103.72C423.068 103.587 422.561 103.52 422.041 103.52C421.321 103.52 420.768 103.64 420.381 103.88C420.008 104.107 419.821 104.42 419.821 104.82C419.821 105.113 419.908 105.367 420.081 105.58C420.254 105.78 420.541 105.98 420.941 106.18C421.354 106.367 421.901 106.593 422.581 106.86C423.261 107.113 423.841 107.373 424.321 107.64C424.801 107.907 425.168 108.233 425.421 108.62C425.674 108.993 425.801 109.467 425.801 110.04ZM437.167 111.76C437.433 111.76 437.707 111.74 437.987 111.7C438.267 111.647 438.493 111.593 438.667 111.54V112.88C438.48 112.973 438.213 113.047 437.867 113.1C437.52 113.167 437.187 113.2 436.867 113.2C436.307 113.2 435.787 113.107 435.307 112.92C434.84 112.72 434.46 112.38 434.167 111.9C433.873 111.42 433.727 110.747 433.727 109.88V103.64H432.207V102.8L433.747 102.1L434.447 99.82H435.487V102.28H438.587V103.64H435.487V109.84C435.487 110.493 435.64 110.98 435.947 111.3C436.267 111.607 436.673 111.76 437.167 111.76ZM450.133 107.62C450.133 109.393 449.68 110.767 448.773 111.74C447.88 112.713 446.667 113.2 445.133 113.2C444.187 113.2 443.34 112.987 442.593 112.56C441.86 112.12 441.28 111.487 440.853 110.66C440.427 109.82 440.213 108.807 440.213 107.62C440.213 105.847 440.66 104.48 441.553 103.52C442.447 102.56 443.66 102.08 445.193 102.08C446.167 102.08 447.02 102.3 447.753 102.74C448.5 103.167 449.08 103.793 449.493 104.62C449.92 105.433 450.133 106.433 450.133 107.62ZM442.033 107.62C442.033 108.887 442.28 109.893 442.773 110.64C443.28 111.373 444.08 111.74 445.173 111.74C446.253 111.74 447.047 111.373 447.553 110.64C448.06 109.893 448.313 108.887 448.313 107.62C448.313 106.353 448.06 105.36 447.553 104.64C447.047 103.92 446.247 103.56 445.153 103.56C444.06 103.56 443.267 103.92 442.773 104.64C442.28 105.36 442.033 106.353 442.033 107.62ZM458.023 102.08C459.343 102.08 460.403 102.54 461.203 103.46C462.016 104.38 462.423 105.767 462.423 107.62C462.423 109.447 462.016 110.833 461.203 111.78C460.403 112.727 459.336 113.2 458.003 113.2C457.176 113.2 456.489 113.047 455.943 112.74C455.409 112.42 454.989 112.053 454.683 111.64H454.563C454.589 111.867 454.616 112.153 454.643 112.5C454.669 112.847 454.683 113.147 454.683 113.4V117.8H452.923V102.28H454.363L454.603 103.74H454.683C455.003 103.273 455.423 102.88 455.943 102.56C456.463 102.24 457.156 102.08 458.023 102.08ZM457.703 103.56C456.609 103.56 455.836 103.867 455.383 104.48C454.943 105.093 454.709 106.027 454.683 107.28V107.62C454.683 108.94 454.896 109.96 455.323 110.68C455.763 111.387 456.569 111.74 457.743 111.74C458.396 111.74 458.929 111.56 459.343 111.2C459.769 110.84 460.083 110.353 460.283 109.74C460.496 109.113 460.603 108.4 460.603 107.6C460.603 106.373 460.363 105.393 459.883 104.66C459.416 103.927 458.689 103.56 457.703 103.56ZM466.127 98.26C466.394 98.26 466.627 98.3533 466.827 98.54C467.041 98.7133 467.147 98.9933 467.147 99.38C467.147 99.7533 467.041 100.033 466.827 100.22C466.627 100.407 466.394 100.5 466.127 100.5C465.834 100.5 465.587 100.407 465.387 100.22C465.187 100.033 465.087 99.7533 465.087 99.38C465.087 98.9933 465.187 98.7133 465.387 98.54C465.587 98.3533 465.834 98.26 466.127 98.26ZM466.987 102.28V113H465.227V102.28H466.987ZM474.684 113.2C473.737 113.2 472.89 113.007 472.144 112.62C471.41 112.233 470.83 111.633 470.404 110.82C469.99 110.007 469.784 108.967 469.784 107.7C469.784 106.38 470.004 105.307 470.444 104.48C470.884 103.653 471.477 103.047 472.224 102.66C472.984 102.273 473.844 102.08 474.804 102.08C475.35 102.08 475.877 102.14 476.384 102.26C476.89 102.367 477.304 102.5 477.624 102.66L477.084 104.12C476.764 104 476.39 103.887 475.964 103.78C475.537 103.673 475.137 103.62 474.764 103.62C472.657 103.62 471.604 104.973 471.604 107.68C471.604 108.973 471.857 109.967 472.364 110.66C472.884 111.34 473.65 111.68 474.664 111.68C475.25 111.68 475.764 111.62 476.204 111.5C476.657 111.38 477.07 111.233 477.444 111.06V112.62C477.084 112.807 476.684 112.947 476.244 113.04C475.817 113.147 475.297 113.2 474.684 113.2Z" fill="#425A76"/>
<line x1="218" y1="119.5" x2="479" y2="119.5" stroke="#425A76"/>
<path d="M228.9 165L227.18 160.58H221.52L219.82 165H218L223.58 150.66H225.2L230.76 165H228.9ZM225.04 154.66C225 154.553 224.933 154.36 224.84 154.08C224.747 153.8 224.653 153.513 224.56 153.22C224.48 152.913 224.413 152.68 224.36 152.52C224.267 152.933 224.16 153.34 224.04 153.74C223.92 154.127 223.82 154.433 223.74 154.66L222.12 158.98H226.64L225.04 154.66ZM236.273 165.2C234.94 165.2 233.873 164.74 233.073 163.82C232.273 162.887 231.873 161.5 231.873 159.66C231.873 157.82 232.273 156.433 233.073 155.5C233.887 154.553 234.96 154.08 236.293 154.08C237.12 154.08 237.793 154.233 238.313 154.54C238.847 154.847 239.28 155.22 239.613 155.66H239.733C239.72 155.487 239.693 155.233 239.653 154.9C239.627 154.553 239.613 154.28 239.613 154.08V149.8H241.373V165H239.953L239.693 163.56H239.613C239.293 164.013 238.867 164.4 238.333 164.72C237.8 165.04 237.113 165.2 236.273 165.2ZM236.553 163.74C237.687 163.74 238.48 163.433 238.933 162.82C239.4 162.193 239.633 161.253 239.633 160V159.68C239.633 158.347 239.413 157.327 238.973 156.62C238.533 155.9 237.72 155.54 236.533 155.54C235.587 155.54 234.873 155.92 234.393 156.68C233.927 157.427 233.693 158.433 233.693 159.7C233.693 160.98 233.927 161.973 234.393 162.68C234.873 163.387 235.593 163.74 236.553 163.74ZM248.578 165.2C247.245 165.2 246.178 164.74 245.378 163.82C244.578 162.887 244.178 161.5 244.178 159.66C244.178 157.82 244.578 156.433 245.378 155.5C246.191 154.553 247.265 154.08 248.598 154.08C249.425 154.08 250.098 154.233 250.618 154.54C251.151 154.847 251.585 155.22 251.918 155.66H252.038C252.025 155.487 251.998 155.233 251.958 154.9C251.931 154.553 251.918 154.28 251.918 154.08V149.8H253.678V165H252.258L251.998 163.56H251.918C251.598 164.013 251.171 164.4 250.638 164.72C250.105 165.04 249.418 165.2 248.578 165.2ZM248.858 163.74C249.991 163.74 250.785 163.433 251.238 162.82C251.705 162.193 251.938 161.253 251.938 160V159.68C251.938 158.347 251.718 157.327 251.278 156.62C250.838 155.9 250.025 155.54 248.838 155.54C247.891 155.54 247.178 155.92 246.698 156.68C246.231 157.427 245.998 158.433 245.998 159.7C245.998 160.98 246.231 161.973 246.698 162.68C247.178 163.387 247.898 163.74 248.858 163.74ZM257.983 150.26C258.249 150.26 258.483 150.353 258.683 150.54C258.896 150.713 259.003 150.993 259.003 151.38C259.003 151.753 258.896 152.033 258.683 152.22C258.483 152.407 258.249 152.5 257.983 152.5C257.689 152.5 257.443 152.407 257.243 152.22C257.043 152.033 256.943 151.753 256.943 151.38C256.943 150.993 257.043 150.713 257.243 150.54C257.443 150.353 257.689 150.26 257.983 150.26ZM258.843 154.28V165H257.083V154.28H258.843ZM265.819 163.76C266.086 163.76 266.359 163.74 266.639 163.7C266.919 163.647 267.146 163.593 267.319 163.54V164.88C267.132 164.973 266.866 165.047 266.519 165.1C266.172 165.167 265.839 165.2 265.519 165.2C264.959 165.2 264.439 165.107 263.959 164.92C263.492 164.72 263.112 164.38 262.819 163.9C262.526 163.42 262.379 162.747 262.379 161.88V155.64H260.859V154.8L262.399 154.1L263.099 151.82H264.139V154.28H267.239V155.64H264.139V161.84C264.139 162.493 264.292 162.98 264.599 163.3C264.919 163.607 265.326 163.76 265.819 163.76ZM270.366 150.26C270.632 150.26 270.866 150.353 271.066 150.54C271.279 150.713 271.386 150.993 271.386 151.38C271.386 151.753 271.279 152.033 271.066 152.22C270.866 152.407 270.632 152.5 270.366 152.5C270.072 152.5 269.826 152.407 269.626 152.22C269.426 152.033 269.326 151.753 269.326 151.38C269.326 150.993 269.426 150.713 269.626 150.54C269.826 150.353 270.072 150.26 270.366 150.26ZM271.226 154.28V165H269.466V154.28H271.226ZM283.942 159.62C283.942 161.393 283.489 162.767 282.582 163.74C281.689 164.713 280.475 165.2 278.942 165.2C277.995 165.2 277.149 164.987 276.402 164.56C275.669 164.12 275.089 163.487 274.662 162.66C274.235 161.82 274.022 160.807 274.022 159.62C274.022 157.847 274.469 156.48 275.362 155.52C276.255 154.56 277.469 154.08 279.002 154.08C279.975 154.08 280.829 154.3 281.562 154.74C282.309 155.167 282.889 155.793 283.302 156.62C283.729 157.433 283.942 158.433 283.942 159.62ZM275.842 159.62C275.842 160.887 276.089 161.893 276.582 162.64C277.089 163.373 277.889 163.74 278.982 163.74C280.062 163.74 280.855 163.373 281.362 162.64C281.869 161.893 282.122 160.887 282.122 159.62C282.122 158.353 281.869 157.36 281.362 156.64C280.855 155.92 280.055 155.56 278.962 155.56C277.869 155.56 277.075 155.92 276.582 156.64C276.089 157.36 275.842 158.353 275.842 159.62ZM291.891 154.08C293.171 154.08 294.138 154.393 294.791 155.02C295.445 155.633 295.771 156.633 295.771 158.02V165H294.031V158.14C294.031 156.42 293.231 155.56 291.631 155.56C290.445 155.56 289.625 155.893 289.171 156.56C288.718 157.227 288.491 158.187 288.491 159.44V165H286.731V154.28H288.151L288.411 155.74H288.511C288.858 155.18 289.338 154.767 289.951 154.5C290.565 154.22 291.211 154.08 291.891 154.08ZM303.155 154.1C304.461 154.1 305.428 154.387 306.055 154.96C306.681 155.533 306.995 156.447 306.995 157.7V165H305.715L305.375 163.48H305.295C304.828 164.067 304.335 164.5 303.815 164.78C303.308 165.06 302.601 165.2 301.695 165.2C300.721 165.2 299.915 164.947 299.275 164.44C298.635 163.92 298.315 163.113 298.315 162.02C298.315 160.953 298.735 160.133 299.575 159.56C300.415 158.973 301.708 158.653 303.455 158.6L305.275 158.54V157.9C305.275 157.007 305.081 156.387 304.695 156.04C304.308 155.693 303.761 155.52 303.055 155.52C302.495 155.52 301.961 155.607 301.455 155.78C300.948 155.94 300.475 156.127 300.035 156.34L299.495 155.02C299.961 154.767 300.515 154.553 301.155 154.38C301.795 154.193 302.461 154.1 303.155 154.1ZM303.675 159.82C302.341 159.873 301.415 160.087 300.895 160.46C300.388 160.833 300.135 161.36 300.135 162.04C300.135 162.64 300.315 163.08 300.675 163.36C301.048 163.64 301.521 163.78 302.095 163.78C303.001 163.78 303.755 163.533 304.355 163.04C304.955 162.533 305.255 161.76 305.255 160.72V159.76L303.675 159.82ZM312.065 165H310.305V149.8H312.065V165ZM321.557 150.26C321.824 150.26 322.057 150.353 322.257 150.54C322.47 150.713 322.577 150.993 322.577 151.38C322.577 151.753 322.47 152.033 322.257 152.22C322.057 152.407 321.824 152.5 321.557 152.5C321.264 152.5 321.017 152.407 320.817 152.22C320.617 152.033 320.517 151.753 320.517 151.38C320.517 150.993 320.617 150.713 320.817 150.54C321.017 150.353 321.264 150.26 321.557 150.26ZM322.417 154.28V165H320.657V154.28H322.417ZM330.973 154.08C332.253 154.08 333.22 154.393 333.873 155.02C334.527 155.633 334.853 156.633 334.853 158.02V165H333.113V158.14C333.113 156.42 332.313 155.56 330.713 155.56C329.527 155.56 328.707 155.893 328.253 156.56C327.8 157.227 327.573 158.187 327.573 159.44V165H325.813V154.28H327.233L327.493 155.74H327.593C327.94 155.18 328.42 154.767 329.033 154.5C329.647 154.22 330.293 154.08 330.973 154.08ZM343.117 155.64H340.417V165H338.657V155.64H336.777V154.82L338.657 154.22V153.6C338.657 152.213 338.963 151.22 339.577 150.62C340.19 150.007 341.043 149.7 342.137 149.7C342.563 149.7 342.95 149.74 343.297 149.82C343.657 149.887 343.963 149.967 344.217 150.06L343.757 151.44C343.543 151.373 343.297 151.307 343.017 151.24C342.737 151.173 342.45 151.14 342.157 151.14C341.57 151.14 341.13 151.34 340.837 151.74C340.557 152.127 340.417 152.74 340.417 153.58V154.28H343.117V155.64ZM354.372 159.62C354.372 161.393 353.918 162.767 353.012 163.74C352.118 164.713 350.905 165.2 349.372 165.2C348.425 165.2 347.578 164.987 346.832 164.56C346.098 164.12 345.518 163.487 345.092 162.66C344.665 161.82 344.452 160.807 344.452 159.62C344.452 157.847 344.898 156.48 345.792 155.52C346.685 154.56 347.898 154.08 349.432 154.08C350.405 154.08 351.258 154.3 351.992 154.74C352.738 155.167 353.318 155.793 353.732 156.62C354.158 157.433 354.372 158.433 354.372 159.62ZM346.272 159.62C346.272 160.887 346.518 161.893 347.012 162.64C347.518 163.373 348.318 163.74 349.412 163.74C350.492 163.74 351.285 163.373 351.792 162.64C352.298 161.893 352.552 160.887 352.552 159.62C352.552 158.353 352.298 157.36 351.792 156.64C351.285 155.92 350.485 155.56 349.392 155.56C348.298 155.56 347.505 155.92 347.012 156.64C346.518 157.36 346.272 158.353 346.272 159.62ZM362.161 154.08C362.361 154.08 362.574 154.093 362.801 154.12C363.041 154.133 363.248 154.16 363.421 154.2L363.201 155.82C363.028 155.78 362.834 155.747 362.621 155.72C362.421 155.693 362.228 155.68 362.041 155.68C361.494 155.68 360.981 155.833 360.501 156.14C360.021 156.433 359.634 156.853 359.341 157.4C359.061 157.933 358.921 158.56 358.921 159.28V165H357.161V154.28H358.601L358.801 156.24H358.881C359.228 155.653 359.674 155.147 360.221 154.72C360.768 154.293 361.414 154.08 362.161 154.08ZM377.183 154.08C378.396 154.08 379.303 154.393 379.903 155.02C380.503 155.633 380.803 156.633 380.803 158.02V165H379.063V158.1C379.063 156.407 378.336 155.56 376.883 155.56C375.843 155.56 375.096 155.86 374.643 156.46C374.203 157.06 373.983 157.933 373.983 159.08V165H372.243V158.1C372.243 156.407 371.509 155.56 370.043 155.56C368.963 155.56 368.216 155.893 367.803 156.56C367.389 157.227 367.183 158.187 367.183 159.44V165H365.423V154.28H366.843L367.103 155.74H367.203C367.536 155.18 367.983 154.767 368.543 154.5C369.116 154.22 369.723 154.08 370.363 154.08C372.043 154.08 373.136 154.68 373.643 155.88H373.743C374.103 155.267 374.589 154.813 375.203 154.52C375.829 154.227 376.489 154.08 377.183 154.08ZM388.174 154.1C389.481 154.1 390.447 154.387 391.074 154.96C391.701 155.533 392.014 156.447 392.014 157.7V165H390.734L390.394 163.48H390.314C389.847 164.067 389.354 164.5 388.834 164.78C388.327 165.06 387.621 165.2 386.714 165.2C385.741 165.2 384.934 164.947 384.294 164.44C383.654 163.92 383.334 163.113 383.334 162.02C383.334 160.953 383.754 160.133 384.594 159.56C385.434 158.973 386.727 158.653 388.474 158.6L390.294 158.54V157.9C390.294 157.007 390.101 156.387 389.714 156.04C389.327 155.693 388.781 155.52 388.074 155.52C387.514 155.52 386.981 155.607 386.474 155.78C385.967 155.94 385.494 156.127 385.054 156.34L384.514 155.02C384.981 154.767 385.534 154.553 386.174 154.38C386.814 154.193 387.481 154.1 388.174 154.1ZM388.694 159.82C387.361 159.873 386.434 160.087 385.914 160.46C385.407 160.833 385.154 161.36 385.154 162.04C385.154 162.64 385.334 163.08 385.694 163.36C386.067 163.64 386.541 163.78 387.114 163.78C388.021 163.78 388.774 163.533 389.374 163.04C389.974 162.533 390.274 161.76 390.274 160.72V159.76L388.694 159.82ZM398.905 163.76C399.172 163.76 399.445 163.74 399.725 163.7C400.005 163.647 400.232 163.593 400.405 163.54V164.88C400.218 164.973 399.952 165.047 399.605 165.1C399.258 165.167 398.925 165.2 398.605 165.2C398.045 165.2 397.525 165.107 397.045 164.92C396.578 164.72 396.198 164.38 395.905 163.9C395.612 163.42 395.465 162.747 395.465 161.88V155.64H393.945V154.8L395.485 154.1L396.185 151.82H397.225V154.28H400.325V155.64H397.225V161.84C397.225 162.493 397.378 162.98 397.685 163.3C398.005 163.607 398.412 163.76 398.905 163.76ZM403.452 150.26C403.718 150.26 403.952 150.353 404.152 150.54C404.365 150.713 404.472 150.993 404.472 151.38C404.472 151.753 404.365 152.033 404.152 152.22C403.952 152.407 403.718 152.5 403.452 152.5C403.158 152.5 402.912 152.407 402.712 152.22C402.512 152.033 402.412 151.753 402.412 151.38C402.412 150.993 402.512 150.713 402.712 150.54C402.912 150.353 403.158 150.26 403.452 150.26ZM404.312 154.28V165H402.552V154.28H404.312ZM417.028 159.62C417.028 161.393 416.574 162.767 415.668 163.74C414.774 164.713 413.561 165.2 412.028 165.2C411.081 165.2 410.234 164.987 409.488 164.56C408.754 164.12 408.174 163.487 407.748 162.66C407.321 161.82 407.108 160.807 407.108 159.62C407.108 157.847 407.554 156.48 408.448 155.52C409.341 154.56 410.554 154.08 412.088 154.08C413.061 154.08 413.914 154.3 414.648 154.74C415.394 155.167 415.974 155.793 416.388 156.62C416.814 157.433 417.028 158.433 417.028 159.62ZM408.928 159.62C408.928 160.887 409.174 161.893 409.668 162.64C410.174 163.373 410.974 163.74 412.068 163.74C413.148 163.74 413.941 163.373 414.448 162.64C414.954 161.893 415.208 160.887 415.208 159.62C415.208 158.353 414.954 157.36 414.448 156.64C413.941 155.92 413.141 155.56 412.048 155.56C410.954 155.56 410.161 155.92 409.668 156.64C409.174 157.36 408.928 158.353 408.928 159.62ZM424.977 154.08C426.257 154.08 427.224 154.393 427.877 155.02C428.531 155.633 428.857 156.633 428.857 158.02V165H427.117V158.14C427.117 156.42 426.317 155.56 424.717 155.56C423.531 155.56 422.711 155.893 422.257 156.56C421.804 157.227 421.577 158.187 421.577 159.44V165H419.817V154.28H421.237L421.497 155.74H421.597C421.944 155.18 422.424 154.767 423.037 154.5C423.651 154.22 424.297 154.08 424.977 154.08Z" fill="black"/>
<line x1="115.997" y1="107" x2="175.007" y2="107" stroke="#F7B452"/>
<rect x="0.5" y="91.5" width="115" height="32" fill="white" stroke="#F5B942"/>
<path d="M42.9502 104.87V115H41.1702V104.87H42.9502ZM43.3302 101.69C43.3302 101.863 43.2935 102.027 43.2202 102.18C43.1535 102.327 43.0602 102.46 42.9402 102.58C42.8268 102.693 42.6902 102.783 42.5302 102.85C42.3768 102.917 42.2135 102.95 42.0402 102.95C41.8668 102.95 41.7035 102.917 41.5502 102.85C41.4035 102.783 41.2735 102.693 41.1602 102.58C41.0468 102.46 40.9568 102.327 40.8902 102.18C40.8235 102.027 40.7902 101.863 40.7902 101.69C40.7902 101.517 40.8235 101.353 40.8902 101.2C40.9568 101.04 41.0468 100.903 41.1602 100.79C41.2735 100.67 41.4035 100.577 41.5502 100.51C41.7035 100.443 41.8668 100.41 42.0402 100.41C42.2135 100.41 42.3768 100.443 42.5302 100.51C42.6902 100.577 42.8268 100.67 42.9402 100.79C43.0602 100.903 43.1535 101.04 43.2202 101.2C43.2935 101.353 43.3302 101.517 43.3302 101.69ZM52.9248 106.67C52.8715 106.743 52.8182 106.8 52.7648 106.84C52.7115 106.88 52.6382 106.9 52.5448 106.9C52.4448 106.9 52.3348 106.86 52.2148 106.78C52.0948 106.693 51.9448 106.6 51.7648 106.5C51.5915 106.4 51.3748 106.31 51.1148 106.23C50.8615 106.143 50.5482 106.1 50.1748 106.1C49.6748 106.1 49.2348 106.19 48.8548 106.37C48.4748 106.543 48.1548 106.797 47.8948 107.13C47.6415 107.463 47.4482 107.867 47.3148 108.34C47.1882 108.813 47.1248 109.343 47.1248 109.93C47.1248 110.543 47.1948 111.09 47.3348 111.57C47.4748 112.043 47.6715 112.443 47.9248 112.77C48.1848 113.09 48.4948 113.337 48.8548 113.51C49.2215 113.677 49.6315 113.76 50.0848 113.76C50.5182 113.76 50.8748 113.71 51.1548 113.61C51.4348 113.503 51.6648 113.387 51.8448 113.26C52.0315 113.133 52.1848 113.02 52.3048 112.92C52.4315 112.813 52.5548 112.76 52.6748 112.76C52.8215 112.76 52.9348 112.817 53.0148 112.93L53.5148 113.58C53.2948 113.853 53.0448 114.087 52.7648 114.28C52.4848 114.473 52.1815 114.637 51.8548 114.77C51.5348 114.897 51.1982 114.99 50.8448 115.05C50.4915 115.11 50.1315 115.14 49.7648 115.14C49.1315 115.14 48.5415 115.023 47.9948 114.79C47.4548 114.557 46.9848 114.22 46.5848 113.78C46.1848 113.333 45.8715 112.787 45.6448 112.14C45.4182 111.493 45.3048 110.757 45.3048 109.93C45.3048 109.177 45.4082 108.48 45.6148 107.84C45.8282 107.2 46.1348 106.65 46.5348 106.19C46.9415 105.723 47.4382 105.36 48.0248 105.1C48.6182 104.84 49.2982 104.71 50.0648 104.71C50.7782 104.71 51.4048 104.827 51.9448 105.06C52.4915 105.287 52.9748 105.61 53.3948 106.03L52.9248 106.67ZM59.5198 104.71C60.2598 104.71 60.9265 104.833 61.5198 105.08C62.1132 105.327 62.6198 105.677 63.0398 106.13C63.4598 106.583 63.7798 107.133 63.9998 107.78C64.2265 108.42 64.3398 109.137 64.3398 109.93C64.3398 110.73 64.2265 111.45 63.9998 112.09C63.7798 112.73 63.4598 113.277 63.0398 113.73C62.6198 114.183 62.1132 114.533 61.5198 114.78C60.9265 115.02 60.2598 115.14 59.5198 115.14C58.7732 115.14 58.0998 115.02 57.4998 114.78C56.9065 114.533 56.3998 114.183 55.9798 113.73C55.5598 113.277 55.2365 112.73 55.0098 112.09C54.7898 111.45 54.6798 110.73 54.6798 109.93C54.6798 109.137 54.7898 108.42 55.0098 107.78C55.2365 107.133 55.5598 106.583 55.9798 106.13C56.3998 105.677 56.9065 105.327 57.4998 105.08C58.0998 104.833 58.7732 104.71 59.5198 104.71ZM59.5198 113.75C60.5198 113.75 61.2665 113.417 61.7598 112.75C62.2532 112.077 62.4998 111.14 62.4998 109.94C62.4998 108.733 62.2532 107.793 61.7598 107.12C61.2665 106.447 60.5198 106.11 59.5198 106.11C59.0132 106.11 58.5698 106.197 58.1898 106.37C57.8165 106.543 57.5032 106.793 57.2498 107.12C57.0032 107.447 56.8165 107.85 56.6898 108.33C56.5698 108.803 56.5098 109.34 56.5098 109.94C56.5098 111.14 56.7565 112.077 57.2498 112.75C57.7498 113.417 58.5065 113.75 59.5198 113.75ZM68.2775 106.34C68.4975 106.093 68.7308 105.87 68.9775 105.67C69.2242 105.47 69.4842 105.3 69.7575 105.16C70.0375 105.013 70.3308 104.903 70.6375 104.83C70.9508 104.75 71.2875 104.71 71.6475 104.71C72.2008 104.71 72.6875 104.803 73.1075 104.99C73.5342 105.17 73.8875 105.43 74.1675 105.77C74.4542 106.103 74.6708 106.507 74.8175 106.98C74.9642 107.453 75.0375 107.977 75.0375 108.55V115H73.2475V108.55C73.2475 107.783 73.0708 107.19 72.7175 106.77C72.3708 106.343 71.8408 106.13 71.1275 106.13C70.6008 106.13 70.1075 106.257 69.6475 106.51C69.1942 106.763 68.7742 107.107 68.3875 107.54V115H66.5975V104.87H67.6675C67.9208 104.87 68.0775 104.993 68.1375 105.24L68.2775 106.34Z" fill="#1F7C89"/>
<line x1="343.5" y1="85" x2="343.5" y2="33" stroke="#F7B452"/>
<circle cx="343.5" cy="86.5" r="1.5" fill="#F7B452"/>
<rect x="283.5" y="0.5" width="118" height="32" fill="white" stroke="#F5B942"/>
<path d="M302.073 16.28C301.739 15.8333 301.379 15.5233 300.993 15.35C300.606 15.17 300.173 15.08 299.693 15.08C298.753 15.08 298.029 15.4167 297.523 16.09C297.016 16.7633 296.763 17.7233 296.763 18.97C296.763 19.63 296.819 20.1967 296.933 20.67C297.046 21.1367 297.213 21.5233 297.433 21.83C297.653 22.13 297.923 22.35 298.243 22.49C298.563 22.63 298.926 22.7 299.333 22.7C299.919 22.7 300.429 22.5667 300.863 22.3C301.303 22.0333 301.706 21.6567 302.073 21.17V16.28ZM303.853 9.27V24H302.793C302.539 24 302.379 23.8767 302.313 23.63L302.153 22.4C301.719 22.92 301.226 23.34 300.673 23.66C300.119 23.98 299.479 24.14 298.753 24.14C298.173 24.14 297.646 24.03 297.173 23.81C296.699 23.5833 296.296 23.2533 295.963 22.82C295.629 22.3867 295.373 21.8467 295.193 21.2C295.013 20.5533 294.923 19.81 294.923 18.97C294.923 18.2233 295.023 17.53 295.223 16.89C295.423 16.2433 295.709 15.6833 296.083 15.21C296.456 14.7367 296.913 14.3667 297.453 14.1C297.999 13.8267 298.613 13.69 299.293 13.69C299.913 13.69 300.443 13.7967 300.883 14.01C301.329 14.2167 301.726 14.5067 302.073 14.88V9.27H303.853ZM313.444 17.83C313.444 17.4167 313.384 17.04 313.264 16.7C313.151 16.3533 312.981 16.0567 312.754 15.81C312.534 15.5567 312.264 15.3633 311.944 15.23C311.624 15.09 311.261 15.02 310.854 15.02C310.001 15.02 309.324 15.27 308.824 15.77C308.331 16.2633 308.024 16.95 307.904 17.83H313.444ZM314.884 22.58C314.664 22.8467 314.401 23.08 314.094 23.28C313.787 23.4733 313.457 23.6333 313.104 23.76C312.757 23.8867 312.397 23.98 312.024 24.04C311.651 24.1067 311.281 24.14 310.914 24.14C310.214 24.14 309.567 24.0233 308.974 23.79C308.387 23.55 307.877 23.2033 307.444 22.75C307.017 22.29 306.684 21.7233 306.444 21.05C306.204 20.3767 306.084 19.6033 306.084 18.73C306.084 18.0233 306.191 17.3633 306.404 16.75C306.624 16.1367 306.937 15.6067 307.344 15.16C307.751 14.7067 308.247 14.3533 308.834 14.1C309.421 13.84 310.081 13.71 310.814 13.71C311.421 13.71 311.981 13.8133 312.494 14.02C313.014 14.22 313.461 14.5133 313.834 14.9C314.214 15.28 314.511 15.7533 314.724 16.32C314.937 16.88 315.044 17.52 315.044 18.24C315.044 18.52 315.014 18.7067 314.954 18.8C314.894 18.8933 314.781 18.94 314.614 18.94H307.844C307.864 19.58 307.951 20.1367 308.104 20.61C308.264 21.0833 308.484 21.48 308.764 21.8C309.044 22.1133 309.377 22.35 309.764 22.51C310.151 22.6633 310.584 22.74 311.064 22.74C311.511 22.74 311.894 22.69 312.214 22.59C312.541 22.4833 312.821 22.37 313.054 22.25C313.287 22.13 313.481 22.02 313.634 21.92C313.794 21.8133 313.931 21.76 314.044 21.76C314.191 21.76 314.304 21.8167 314.384 21.93L314.884 22.58ZM320.262 24.16C319.462 24.16 318.846 23.9367 318.412 23.49C317.986 23.0433 317.772 22.4 317.772 21.56V15.36H316.552C316.446 15.36 316.356 15.33 316.282 15.27C316.209 15.2033 316.172 15.1033 316.172 14.97V14.26L317.832 14.05L318.242 10.92C318.262 10.82 318.306 10.74 318.372 10.68C318.446 10.6133 318.539 10.58 318.652 10.58H319.552V14.07H322.482V15.36H319.552V21.44C319.552 21.8667 319.656 22.1833 319.862 22.39C320.069 22.5967 320.336 22.7 320.662 22.7C320.849 22.7 321.009 22.6767 321.142 22.63C321.282 22.5767 321.402 22.52 321.502 22.46C321.602 22.4 321.686 22.3467 321.752 22.3C321.826 22.2467 321.889 22.22 321.942 22.22C322.036 22.22 322.119 22.2767 322.192 22.39L322.712 23.24C322.406 23.5267 322.036 23.7533 321.602 23.92C321.169 24.08 320.722 24.16 320.262 24.16ZM329.81 19.44C328.99 19.4667 328.29 19.5333 327.71 19.64C327.137 19.74 326.667 19.8733 326.3 20.04C325.94 20.2067 325.677 20.4033 325.51 20.63C325.35 20.8567 325.27 21.11 325.27 21.39C325.27 21.6567 325.313 21.8867 325.4 22.08C325.487 22.2733 325.603 22.4333 325.75 22.56C325.903 22.68 326.08 22.77 326.28 22.83C326.487 22.8833 326.707 22.91 326.94 22.91C327.253 22.91 327.54 22.88 327.8 22.82C328.06 22.7533 328.303 22.66 328.53 22.54C328.763 22.42 328.983 22.2767 329.19 22.11C329.403 21.9433 329.61 21.7533 329.81 21.54V19.44ZM324.06 15.3C324.62 14.76 325.223 14.3567 325.87 14.09C326.517 13.8233 327.233 13.69 328.02 13.69C328.587 13.69 329.09 13.7833 329.53 13.97C329.97 14.1567 330.34 14.4167 330.64 14.75C330.94 15.0833 331.167 15.4867 331.32 15.96C331.473 16.4333 331.55 16.9533 331.55 17.52V24H330.76C330.587 24 330.453 23.9733 330.36 23.92C330.267 23.86 330.193 23.7467 330.14 23.58L329.94 22.62C329.673 22.8667 329.413 23.0867 329.16 23.28C328.907 23.4667 328.64 23.6267 328.36 23.76C328.08 23.8867 327.78 23.9833 327.46 24.05C327.147 24.1233 326.797 24.16 326.41 24.16C326.017 24.16 325.647 24.1067 325.3 24C324.953 23.8867 324.65 23.72 324.39 23.5C324.137 23.28 323.933 23.0033 323.78 22.67C323.633 22.33 323.56 21.93 323.56 21.47C323.56 21.07 323.67 20.6867 323.89 20.32C324.11 19.9467 324.467 19.6167 324.96 19.33C325.453 19.0433 326.097 18.81 326.89 18.63C327.683 18.4433 328.657 18.3367 329.81 18.31V17.52C329.81 16.7333 329.64 16.14 329.3 15.74C328.96 15.3333 328.463 15.13 327.81 15.13C327.37 15.13 327 15.1867 326.7 15.3C326.407 15.4067 326.15 15.53 325.93 15.67C325.717 15.8033 325.53 15.9267 325.37 16.04C325.217 16.1467 325.063 16.2 324.91 16.2C324.79 16.2 324.687 16.17 324.6 16.11C324.513 16.0433 324.44 15.9633 324.38 15.87L324.06 15.3ZM336.142 13.87V24H334.362V13.87H336.142ZM336.522 10.69C336.522 10.8633 336.485 11.0267 336.412 11.18C336.345 11.3267 336.252 11.46 336.132 11.58C336.018 11.6933 335.882 11.7833 335.722 11.85C335.568 11.9167 335.405 11.95 335.232 11.95C335.058 11.95 334.895 11.9167 334.742 11.85C334.595 11.7833 334.465 11.6933 334.352 11.58C334.238 11.46 334.148 11.3267 334.082 11.18C334.015 11.0267 333.982 10.8633 333.982 10.69C333.982 10.5167 334.015 10.3533 334.082 10.2C334.148 10.04 334.238 9.90333 334.352 9.79C334.465 9.67 334.595 9.57667 334.742 9.51C334.895 9.44333 335.058 9.41 335.232 9.41C335.405 9.41 335.568 9.44333 335.722 9.51C335.882 9.57667 336.018 9.67 336.132 9.79C336.252 9.90333 336.345 10.04 336.412 10.2C336.485 10.3533 336.522 10.5167 336.522 10.69ZM340.906 9.27V24H339.126V9.27H340.906ZM349.693 15.54C349.613 15.6867 349.489 15.76 349.323 15.76C349.223 15.76 349.109 15.7233 348.983 15.65C348.856 15.5767 348.699 15.4967 348.513 15.41C348.333 15.3167 348.116 15.2333 347.863 15.16C347.609 15.08 347.309 15.04 346.963 15.04C346.663 15.04 346.393 15.08 346.153 15.16C345.913 15.2333 345.706 15.3367 345.533 15.47C345.366 15.6033 345.236 15.76 345.143 15.94C345.056 16.1133 345.013 16.3033 345.013 16.51C345.013 16.77 345.086 16.9867 345.233 17.16C345.386 17.3333 345.586 17.4833 345.833 17.61C346.079 17.7367 346.359 17.85 346.673 17.95C346.986 18.0433 347.306 18.1467 347.633 18.26C347.966 18.3667 348.289 18.4867 348.603 18.62C348.916 18.7533 349.196 18.92 349.443 19.12C349.689 19.32 349.886 19.5667 350.033 19.86C350.186 20.1467 350.263 20.4933 350.263 20.9C350.263 21.3667 350.179 21.8 350.013 22.2C349.846 22.5933 349.599 22.9367 349.273 23.23C348.946 23.5167 348.546 23.7433 348.073 23.91C347.599 24.0767 347.053 24.16 346.433 24.16C345.726 24.16 345.086 24.0467 344.513 23.82C343.939 23.5867 343.453 23.29 343.053 22.93L343.473 22.25C343.526 22.1633 343.589 22.0967 343.663 22.05C343.736 22.0033 343.829 21.98 343.943 21.98C344.063 21.98 344.189 22.0267 344.323 22.12C344.456 22.2133 344.616 22.3167 344.803 22.43C344.996 22.5433 345.229 22.6467 345.503 22.74C345.776 22.8333 346.116 22.88 346.523 22.88C346.869 22.88 347.173 22.8367 347.433 22.75C347.693 22.6567 347.909 22.5333 348.083 22.38C348.256 22.2267 348.383 22.05 348.463 21.85C348.549 21.65 348.593 21.4367 348.593 21.21C348.593 20.93 348.516 20.7 348.363 20.52C348.216 20.3333 348.019 20.1767 347.773 20.05C347.526 19.9167 347.243 19.8033 346.923 19.71C346.609 19.61 346.286 19.5067 345.953 19.4C345.626 19.2933 345.303 19.1733 344.983 19.04C344.669 18.9 344.389 18.7267 344.143 18.52C343.896 18.3133 343.696 18.06 343.543 17.76C343.396 17.4533 343.323 17.0833 343.323 16.65C343.323 16.2633 343.403 15.8933 343.563 15.54C343.723 15.18 343.956 14.8667 344.263 14.6C344.569 14.3267 344.946 14.11 345.393 13.95C345.839 13.79 346.349 13.71 346.923 13.71C347.589 13.71 348.186 13.8167 348.713 14.03C349.246 14.2367 349.706 14.5233 350.093 14.89L349.693 15.54ZM366.962 24H365.182V15.36H359.962V21.44C359.962 21.8667 360.066 22.1833 360.272 22.39C360.479 22.5967 360.746 22.7 361.072 22.7C361.259 22.7 361.419 22.6767 361.552 22.63C361.692 22.5767 361.812 22.52 361.912 22.46C362.012 22.4 362.096 22.3467 362.162 22.3C362.236 22.2467 362.299 22.22 362.352 22.22C362.446 22.22 362.529 22.2767 362.602 22.39L363.122 23.24C362.816 23.5267 362.446 23.7533 362.012 23.92C361.579 24.08 361.132 24.16 360.672 24.16C359.872 24.16 359.256 23.9367 358.822 23.49C358.396 23.0433 358.182 22.4 358.182 21.56V15.36H356.962C356.856 15.36 356.766 15.33 356.692 15.27C356.619 15.2033 356.582 15.1033 356.582 14.97V14.26L358.242 14.04L358.652 10.92C358.672 10.82 358.716 10.74 358.782 10.68C358.856 10.6133 358.949 10.58 359.062 10.58H359.962V14.07H366.962V24ZM367.402 10.62C367.402 10.7933 367.366 10.9567 367.292 11.11C367.226 11.2567 367.132 11.3867 367.012 11.5C366.899 11.6133 366.766 11.7033 366.612 11.77C366.459 11.8367 366.296 11.87 366.122 11.87C365.949 11.87 365.786 11.8367 365.632 11.77C365.486 11.7033 365.356 11.6133 365.242 11.5C365.129 11.3867 365.039 11.2567 364.972 11.11C364.906 10.9567 364.872 10.7933 364.872 10.62C364.872 10.4467 364.906 10.2833 364.972 10.13C365.039 9.97 365.129 9.83333 365.242 9.72C365.356 9.6 365.486 9.50667 365.632 9.44C365.786 9.37333 365.949 9.34 366.122 9.34C366.296 9.34 366.459 9.37333 366.612 9.44C366.766 9.50667 366.899 9.6 367.012 9.72C367.132 9.83333 367.226 9.97 367.292 10.13C367.366 10.2833 367.402 10.4467 367.402 10.62ZM372.997 24.16C372.197 24.16 371.58 23.9367 371.147 23.49C370.72 23.0433 370.507 22.4 370.507 21.56V15.36H369.287C369.18 15.36 369.09 15.33 369.017 15.27C368.943 15.2033 368.907 15.1033 368.907 14.97V14.26L370.567 14.05L370.977 10.92C370.997 10.82 371.04 10.74 371.107 10.68C371.18 10.6133 371.273 10.58 371.387 10.58H372.287V14.07H375.217V15.36H372.287V21.44C372.287 21.8667 372.39 22.1833 372.597 22.39C372.803 22.5967 373.07 22.7 373.397 22.7C373.583 22.7 373.743 22.6767 373.877 22.63C374.017 22.5767 374.137 22.52 374.237 22.46C374.337 22.4 374.42 22.3467 374.487 22.3C374.56 22.2467 374.623 22.22 374.677 22.22C374.77 22.22 374.853 22.2767 374.927 22.39L375.447 23.24C375.14 23.5267 374.77 23.7533 374.337 23.92C373.903 24.08 373.457 24.16 372.997 24.16ZM378.895 9.27V24H377.115V9.27H378.895ZM388.561 17.83C388.561 17.4167 388.501 17.04 388.381 16.7C388.268 16.3533 388.098 16.0567 387.871 15.81C387.651 15.5567 387.381 15.3633 387.061 15.23C386.741 15.09 386.378 15.02 385.971 15.02C385.118 15.02 384.441 15.27 383.941 15.77C383.448 16.2633 383.141 16.95 383.021 17.83H388.561ZM390.001 22.58C389.781 22.8467 389.518 23.08 389.211 23.28C388.904 23.4733 388.574 23.6333 388.221 23.76C387.874 23.8867 387.514 23.98 387.141 24.04C386.768 24.1067 386.398 24.14 386.031 24.14C385.331 24.14 384.684 24.0233 384.091 23.79C383.504 23.55 382.994 23.2033 382.561 22.75C382.134 22.29 381.801 21.7233 381.561 21.05C381.321 20.3767 381.201 19.6033 381.201 18.73C381.201 18.0233 381.308 17.3633 381.521 16.75C381.741 16.1367 382.054 15.6067 382.461 15.16C382.868 14.7067 383.364 14.3533 383.951 14.1C384.538 13.84 385.198 13.71 385.931 13.71C386.538 13.71 387.098 13.8133 387.611 14.02C388.131 14.22 388.578 14.5133 388.951 14.9C389.331 15.28 389.628 15.7533 389.841 16.32C390.054 16.88 390.161 17.52 390.161 18.24C390.161 18.52 390.131 18.7067 390.071 18.8C390.011 18.8933 389.898 18.94 389.731 18.94H382.961C382.981 19.58 383.068 20.1367 383.221 20.61C383.381 21.0833 383.601 21.48 383.881 21.8C384.161 22.1133 384.494 22.35 384.881 22.51C385.268 22.6633 385.701 22.74 386.181 22.74C386.628 22.74 387.011 22.69 387.331 22.59C387.658 22.4833 387.938 22.37 388.171 22.25C388.404 22.13 388.598 22.02 388.751 21.92C388.911 21.8133 389.048 21.76 389.161 21.76C389.308 21.76 389.421 21.8167 389.501 21.93L390.001 22.58Z" fill="#1F7C89"/>
<line x1="447.997" y1="166" x2="573.007" y2="166" stroke="#F7B452"/>
<circle cx="447.5" cy="166" r="1.5" fill="#F7B452"/>
<rect x="571.5" y="149.5" width="115" height="32" fill="white" stroke="#F5B942"/>
<path d="M603.661 164.67C603.608 164.743 603.555 164.8 603.501 164.84C603.448 164.88 603.375 164.9 603.281 164.9C603.181 164.9 603.071 164.86 602.951 164.78C602.831 164.693 602.681 164.6 602.501 164.5C602.328 164.4 602.111 164.31 601.851 164.23C601.598 164.143 601.285 164.1 600.911 164.1C600.411 164.1 599.971 164.19 599.591 164.37C599.211 164.543 598.891 164.797 598.631 165.13C598.378 165.463 598.185 165.867 598.051 166.34C597.925 166.813 597.861 167.343 597.861 167.93C597.861 168.543 597.931 169.09 598.071 169.57C598.211 170.043 598.408 170.443 598.661 170.77C598.921 171.09 599.231 171.337 599.591 171.51C599.958 171.677 600.368 171.76 600.821 171.76C601.255 171.76 601.611 171.71 601.891 171.61C602.171 171.503 602.401 171.387 602.581 171.26C602.768 171.133 602.921 171.02 603.041 170.92C603.168 170.813 603.291 170.76 603.411 170.76C603.558 170.76 603.671 170.817 603.751 170.93L604.251 171.58C604.031 171.853 603.781 172.087 603.501 172.28C603.221 172.473 602.918 172.637 602.591 172.77C602.271 172.897 601.935 172.99 601.581 173.05C601.228 173.11 600.868 173.14 600.501 173.14C599.868 173.14 599.278 173.023 598.731 172.79C598.191 172.557 597.721 172.22 597.321 171.78C596.921 171.333 596.608 170.787 596.381 170.14C596.155 169.493 596.041 168.757 596.041 167.93C596.041 167.177 596.145 166.48 596.351 165.84C596.565 165.2 596.871 164.65 597.271 164.19C597.678 163.723 598.175 163.36 598.761 163.1C599.355 162.84 600.035 162.71 600.801 162.71C601.515 162.71 602.141 162.827 602.681 163.06C603.228 163.287 603.711 163.61 604.131 164.03L603.661 164.67ZM610.256 162.71C610.996 162.71 611.663 162.833 612.256 163.08C612.85 163.327 613.356 163.677 613.776 164.13C614.196 164.583 614.516 165.133 614.736 165.78C614.963 166.42 615.076 167.137 615.076 167.93C615.076 168.73 614.963 169.45 614.736 170.09C614.516 170.73 614.196 171.277 613.776 171.73C613.356 172.183 612.85 172.533 612.256 172.78C611.663 173.02 610.996 173.14 610.256 173.14C609.51 173.14 608.836 173.02 608.236 172.78C607.643 172.533 607.136 172.183 606.716 171.73C606.296 171.277 605.973 170.73 605.746 170.09C605.526 169.45 605.416 168.73 605.416 167.93C605.416 167.137 605.526 166.42 605.746 165.78C605.973 165.133 606.296 164.583 606.716 164.13C607.136 163.677 607.643 163.327 608.236 163.08C608.836 162.833 609.51 162.71 610.256 162.71ZM610.256 171.75C611.256 171.75 612.003 171.417 612.496 170.75C612.99 170.077 613.236 169.14 613.236 167.94C613.236 166.733 612.99 165.793 612.496 165.12C612.003 164.447 611.256 164.11 610.256 164.11C609.75 164.11 609.306 164.197 608.926 164.37C608.553 164.543 608.24 164.793 607.986 165.12C607.74 165.447 607.553 165.85 607.426 166.33C607.306 166.803 607.246 167.34 607.246 167.94C607.246 169.14 607.493 170.077 607.986 170.75C608.486 171.417 609.243 171.75 610.256 171.75ZM619.014 164.34C619.234 164.093 619.467 163.87 619.714 163.67C619.96 163.47 620.22 163.3 620.494 163.16C620.774 163.013 621.067 162.903 621.374 162.83C621.687 162.75 622.024 162.71 622.384 162.71C622.937 162.71 623.424 162.803 623.844 162.99C624.27 163.17 624.624 163.43 624.904 163.77C625.19 164.103 625.407 164.507 625.554 164.98C625.7 165.453 625.774 165.977 625.774 166.55V173H623.984V166.55C623.984 165.783 623.807 165.19 623.454 164.77C623.107 164.343 622.577 164.13 621.864 164.13C621.337 164.13 620.844 164.257 620.384 164.51C619.93 164.763 619.51 165.107 619.124 165.54V173H617.334V162.87H618.404C618.657 162.87 618.814 162.993 618.874 163.24L619.014 164.34ZM631.459 173.16C630.659 173.16 630.043 172.937 629.609 172.49C629.183 172.043 628.969 171.4 628.969 170.56V164.36H627.749C627.643 164.36 627.553 164.33 627.479 164.27C627.406 164.203 627.369 164.103 627.369 163.97V163.26L629.029 163.05L629.439 159.92C629.459 159.82 629.503 159.74 629.569 159.68C629.643 159.613 629.736 159.58 629.849 159.58H630.749V163.07H633.679V164.36H630.749V170.44C630.749 170.867 630.853 171.183 631.059 171.39C631.266 171.597 631.533 171.7 631.859 171.7C632.046 171.7 632.206 171.677 632.339 171.63C632.479 171.577 632.599 171.52 632.699 171.46C632.799 171.4 632.883 171.347 632.949 171.3C633.023 171.247 633.086 171.22 633.139 171.22C633.233 171.22 633.316 171.277 633.389 171.39L633.909 172.24C633.603 172.527 633.233 172.753 632.799 172.92C632.366 173.08 631.919 173.16 631.459 173.16ZM642.239 166.83C642.239 166.417 642.179 166.04 642.059 165.7C641.945 165.353 641.775 165.057 641.549 164.81C641.329 164.557 641.059 164.363 640.739 164.23C640.419 164.09 640.055 164.02 639.649 164.02C638.795 164.02 638.119 164.27 637.619 164.77C637.125 165.263 636.819 165.95 636.699 166.83H642.239ZM643.679 171.58C643.459 171.847 643.195 172.08 642.889 172.28C642.582 172.473 642.252 172.633 641.899 172.76C641.552 172.887 641.192 172.98 640.819 173.04C640.445 173.107 640.075 173.14 639.709 173.14C639.009 173.14 638.362 173.023 637.769 172.79C637.182 172.55 636.672 172.203 636.239 171.75C635.812 171.29 635.479 170.723 635.239 170.05C634.999 169.377 634.879 168.603 634.879 167.73C634.879 167.023 634.985 166.363 635.199 165.75C635.419 165.137 635.732 164.607 636.139 164.16C636.545 163.707 637.042 163.353 637.629 163.1C638.215 162.84 638.875 162.71 639.609 162.71C640.215 162.71 640.775 162.813 641.289 163.02C641.809 163.22 642.255 163.513 642.629 163.9C643.009 164.28 643.305 164.753 643.519 165.32C643.732 165.88 643.839 166.52 643.839 167.24C643.839 167.52 643.809 167.707 643.749 167.8C643.689 167.893 643.575 167.94 643.409 167.94H636.639C636.659 168.58 636.745 169.137 636.899 169.61C637.059 170.083 637.279 170.48 637.559 170.8C637.839 171.113 638.172 171.35 638.559 171.51C638.945 171.663 639.379 171.74 639.859 171.74C640.305 171.74 640.689 171.69 641.009 171.59C641.335 171.483 641.615 171.37 641.849 171.25C642.082 171.13 642.275 171.02 642.429 170.92C642.589 170.813 642.725 170.76 642.839 170.76C642.985 170.76 643.099 170.817 643.179 170.93L643.679 171.58ZM647.705 164.34C647.925 164.093 648.159 163.87 648.405 163.67C648.652 163.47 648.912 163.3 649.185 163.16C649.465 163.013 649.759 162.903 650.065 162.83C650.379 162.75 650.715 162.71 651.075 162.71C651.629 162.71 652.115 162.803 652.535 162.99C652.962 163.17 653.315 163.43 653.595 163.77C653.882 164.103 654.099 164.507 654.245 164.98C654.392 165.453 654.465 165.977 654.465 166.55V173H652.675V166.55C652.675 165.783 652.499 165.19 652.145 164.77C651.799 164.343 651.269 164.13 650.555 164.13C650.029 164.13 649.535 164.257 649.075 164.51C648.622 164.763 648.202 165.107 647.815 165.54V173H646.025V162.87H647.095C647.349 162.87 647.505 162.993 647.565 163.24L647.705 164.34ZM660.151 173.16C659.351 173.16 658.734 172.937 658.301 172.49C657.874 172.043 657.661 171.4 657.661 170.56V164.36H656.441C656.334 164.36 656.244 164.33 656.171 164.27C656.098 164.203 656.061 164.103 656.061 163.97V163.26L657.721 163.05L658.131 159.92C658.151 159.82 658.194 159.74 658.261 159.68C658.334 159.613 658.428 159.58 658.541 159.58H659.441V163.07H662.371V164.36H659.441V170.44C659.441 170.867 659.544 171.183 659.751 171.39C659.958 171.597 660.224 171.7 660.551 171.7C660.738 171.7 660.898 171.677 661.031 171.63C661.171 171.577 661.291 171.52 661.391 171.46C661.491 171.4 661.574 171.347 661.641 171.3C661.714 171.247 661.778 171.22 661.831 171.22C661.924 171.22 662.008 171.277 662.081 171.39L662.601 172.24C662.294 172.527 661.924 172.753 661.491 172.92C661.058 173.08 660.611 173.16 660.151 173.16Z" fill="#1F7C89"/>
<defs>
<clipPath id="clip0_8308_27610">
<rect width="18" height="24" fill="white" transform="translate(182 93)"/>
</clipPath>
</defs>
</svg>
