<svg width="1440" height="95" viewBox="0 0 1440 95" fill="none" xmlns="http://www.w3.org/2000/svg">
<rect width="1440" height="95" fill="#F2F2F2"/>
<path d="M155.168 49.5H153.728V39.34H150.16V38.076H158.72V39.34H155.168V49.5ZM162.438 40.764C163.174 40.764 163.803 40.924 164.326 41.244C164.859 41.564 165.264 42.0173 165.542 42.604C165.83 43.18 165.974 43.8573 165.974 44.636V45.484H160.102C160.123 46.4547 160.368 47.196 160.838 47.708C161.318 48.2093 161.984 48.46 162.838 48.46C163.382 48.46 163.862 48.412 164.278 48.316C164.704 48.2093 165.142 48.06 165.59 47.868V49.1C165.152 49.292 164.72 49.4307 164.294 49.516C163.867 49.612 163.36 49.66 162.774 49.66C161.963 49.66 161.243 49.4947 160.614 49.164C159.995 48.8333 159.51 48.3427 159.158 47.692C158.816 47.0307 158.646 46.2253 158.646 45.276C158.646 44.3373 158.8 43.532 159.11 42.86C159.43 42.188 159.872 41.6707 160.438 41.308C161.014 40.9453 161.68 40.764 162.438 40.764ZM162.422 41.916C161.75 41.916 161.216 42.1347 160.822 42.572C160.438 42.9987 160.208 43.596 160.134 44.364H164.502C164.491 43.6387 164.32 43.052 163.99 42.604C163.659 42.1453 163.136 41.916 162.422 41.916ZM172.157 40.764C172.317 40.764 172.488 40.7747 172.669 40.796C172.861 40.8067 173.026 40.828 173.165 40.86L172.989 42.156C172.85 42.124 172.696 42.0973 172.525 42.076C172.365 42.0547 172.21 42.044 172.061 42.044C171.624 42.044 171.213 42.1667 170.829 42.412C170.445 42.6467 170.136 42.9827 169.901 43.42C169.677 43.8467 169.565 44.348 169.565 44.924V49.5H168.157V40.924H169.309L169.469 42.492H169.533C169.81 42.0227 170.168 41.6173 170.605 41.276C171.042 40.9347 171.56 40.764 172.157 40.764ZM184.174 40.764C185.145 40.764 185.87 41.0147 186.35 41.516C186.83 42.0067 187.07 42.8067 187.07 43.916V49.5H185.678V43.98C185.678 42.6253 185.097 41.948 183.934 41.948C183.102 41.948 182.505 42.188 182.142 42.668C181.79 43.148 181.614 43.8467 181.614 44.764V49.5H180.222V43.98C180.222 42.6253 179.636 41.948 178.462 41.948C177.598 41.948 177.001 42.2147 176.67 42.748C176.34 43.2813 176.174 44.0493 176.174 45.052V49.5H174.766V40.924H175.902L176.11 42.092H176.19C176.457 41.644 176.814 41.3133 177.262 41.1C177.721 40.876 178.206 40.764 178.718 40.764C180.062 40.764 180.937 41.244 181.342 42.204H181.422C181.71 41.7133 182.1 41.3507 182.59 41.116C183.092 40.8813 183.62 40.764 184.174 40.764ZM195.303 47.132C195.303 47.964 194.994 48.5933 194.375 49.02C193.757 49.4467 192.925 49.66 191.879 49.66C191.282 49.66 190.765 49.612 190.327 49.516C189.901 49.42 189.522 49.2867 189.191 49.116V47.836C189.533 48.0067 189.943 48.1667 190.423 48.316C190.914 48.4547 191.41 48.524 191.911 48.524C192.626 48.524 193.143 48.412 193.463 48.188C193.783 47.9533 193.943 47.644 193.943 47.26C193.943 47.0467 193.885 46.8547 193.767 46.684C193.65 46.5133 193.437 46.3427 193.127 46.172C192.829 46.0013 192.397 45.8093 191.831 45.596C191.277 45.3827 190.802 45.1693 190.407 44.956C190.013 44.7427 189.709 44.4867 189.495 44.188C189.282 43.8893 189.175 43.5053 189.175 43.036C189.175 42.3107 189.469 41.7507 190.055 41.356C190.653 40.9613 191.431 40.764 192.391 40.764C192.914 40.764 193.399 40.8173 193.847 40.924C194.306 41.02 194.733 41.1587 195.127 41.34L194.647 42.46C194.285 42.3107 193.906 42.1827 193.511 42.076C193.117 41.9693 192.711 41.916 192.295 41.916C191.719 41.916 191.277 42.012 190.967 42.204C190.669 42.3853 190.519 42.636 190.519 42.956C190.519 43.1907 190.589 43.3933 190.727 43.564C190.866 43.724 191.095 43.884 191.415 44.044C191.746 44.1933 192.183 44.3747 192.727 44.588C193.271 44.7907 193.735 44.9987 194.119 45.212C194.503 45.4253 194.797 45.6867 194.999 45.996C195.202 46.2947 195.303 46.6733 195.303 47.132ZM204.78 40.78C205.825 40.78 206.599 41.0093 207.1 41.468C207.601 41.9267 207.852 42.6573 207.852 43.66V49.5H206.828L206.556 48.284H206.492C206.119 48.7533 205.724 49.1 205.308 49.324C204.903 49.548 204.337 49.66 203.612 49.66C202.833 49.66 202.188 49.4573 201.676 49.052C201.164 48.636 200.908 47.9907 200.908 47.116C200.908 46.2627 201.244 45.6067 201.916 45.148C202.588 44.6787 203.623 44.4227 205.02 44.38L206.476 44.332V43.82C206.476 43.1053 206.321 42.6093 206.012 42.332C205.703 42.0547 205.265 41.916 204.7 41.916C204.252 41.916 203.825 41.9853 203.42 42.124C203.015 42.252 202.636 42.4013 202.284 42.572L201.852 41.516C202.225 41.3133 202.668 41.1427 203.18 41.004C203.692 40.8547 204.225 40.78 204.78 40.78ZM205.196 45.356C204.129 45.3987 203.388 45.5693 202.972 45.868C202.567 46.1667 202.364 46.588 202.364 47.132C202.364 47.612 202.508 47.964 202.796 48.188C203.095 48.412 203.473 48.524 203.932 48.524C204.657 48.524 205.26 48.3267 205.74 47.932C206.22 47.5267 206.46 46.908 206.46 46.076V45.308L205.196 45.356ZM214.629 40.764C215.653 40.764 216.426 41.0147 216.949 41.516C217.471 42.0067 217.733 42.8067 217.733 43.916V49.5H216.341V44.012C216.341 42.636 215.701 41.948 214.421 41.948C213.471 41.948 212.815 42.2147 212.453 42.748C212.09 43.2813 211.909 44.0493 211.909 45.052V49.5H210.501V40.924H211.637L211.845 42.092H211.925C212.202 41.644 212.586 41.3133 213.077 41.1C213.567 40.876 214.085 40.764 214.629 40.764ZM223.431 49.66C222.365 49.66 221.511 49.292 220.871 48.556C220.231 47.8093 219.911 46.7 219.911 45.228C219.911 43.756 220.231 42.6467 220.871 41.9C221.522 41.1427 222.381 40.764 223.447 40.764C224.109 40.764 224.647 40.8867 225.063 41.132C225.49 41.3773 225.837 41.676 226.103 42.028H226.199C226.189 41.8893 226.167 41.6867 226.135 41.42C226.114 41.1427 226.103 40.924 226.103 40.764V37.34H227.511V49.5H226.375L226.167 48.348H226.103C225.847 48.7107 225.506 49.02 225.079 49.276C224.653 49.532 224.103 49.66 223.431 49.66ZM223.655 48.492C224.562 48.492 225.197 48.2467 225.559 47.756C225.933 47.2547 226.119 46.5027 226.119 45.5V45.244C226.119 44.1773 225.943 43.3613 225.591 42.796C225.239 42.22 224.589 41.932 223.639 41.932C222.882 41.932 222.311 42.236 221.927 42.844C221.554 43.4413 221.367 44.2467 221.367 45.26C221.367 46.284 221.554 47.0787 221.927 47.644C222.311 48.2093 222.887 48.492 223.655 48.492ZM237.831 49.66C237.074 49.66 236.397 49.5053 235.799 49.196C235.213 48.8867 234.749 48.4067 234.407 47.756C234.077 47.1053 233.911 46.2733 233.911 45.26C233.911 44.204 234.087 43.3453 234.439 42.684C234.791 42.0227 235.266 41.5373 235.863 41.228C236.471 40.9187 237.159 40.764 237.927 40.764C238.365 40.764 238.786 40.812 239.191 40.908C239.597 40.9933 239.927 41.1 240.183 41.228L239.751 42.396C239.495 42.3 239.197 42.2093 238.855 42.124C238.514 42.0387 238.194 41.996 237.895 41.996C236.21 41.996 235.367 43.0787 235.367 45.244C235.367 46.2787 235.57 47.0733 235.975 47.628C236.391 48.172 237.005 48.444 237.815 48.444C238.285 48.444 238.695 48.396 239.047 48.3C239.41 48.204 239.741 48.0867 240.039 47.948V49.196C239.751 49.3453 239.431 49.4573 239.079 49.532C238.738 49.6173 238.322 49.66 237.831 49.66ZM249.535 45.196C249.535 46.6147 249.172 47.7133 248.447 48.492C247.732 49.2707 246.761 49.66 245.535 49.66C244.777 49.66 244.1 49.4893 243.503 49.148C242.916 48.796 242.452 48.2893 242.111 47.628C241.769 46.956 241.599 46.1453 241.599 45.196C241.599 43.7773 241.956 42.684 242.671 41.916C243.385 41.148 244.356 40.764 245.583 40.764C246.361 40.764 247.044 40.94 247.631 41.292C248.228 41.6333 248.692 42.1347 249.023 42.796C249.364 43.4467 249.535 44.2467 249.535 45.196ZM243.055 45.196C243.055 46.2093 243.252 47.0147 243.647 47.612C244.052 48.1987 244.692 48.492 245.567 48.492C246.431 48.492 247.065 48.1987 247.471 47.612C247.876 47.0147 248.079 46.2093 248.079 45.196C248.079 44.1827 247.876 43.388 247.471 42.812C247.065 42.236 246.425 41.948 245.551 41.948C244.676 41.948 244.041 42.236 243.647 42.812C243.252 43.388 243.055 44.1827 243.055 45.196ZM255.894 40.764C256.918 40.764 257.692 41.0147 258.214 41.516C258.737 42.0067 258.998 42.8067 258.998 43.916V49.5H257.606V44.012C257.606 42.636 256.966 41.948 255.686 41.948C254.737 41.948 254.081 42.2147 253.718 42.748C253.356 43.2813 253.174 44.0493 253.174 45.052V49.5H251.766V40.924H252.902L253.11 42.092H253.19C253.468 41.644 253.852 41.3133 254.342 41.1C254.833 40.876 255.35 40.764 255.894 40.764ZM264.697 49.66C263.63 49.66 262.777 49.292 262.137 48.556C261.497 47.8093 261.177 46.7 261.177 45.228C261.177 43.756 261.497 42.6467 262.137 41.9C262.788 41.1427 263.646 40.764 264.713 40.764C265.374 40.764 265.913 40.8867 266.329 41.132C266.756 41.3773 267.102 41.676 267.369 42.028H267.465C267.454 41.8893 267.433 41.6867 267.401 41.42C267.38 41.1427 267.369 40.924 267.369 40.764V37.34H268.777V49.5H267.641L267.433 48.348H267.369C267.113 48.7107 266.772 49.02 266.345 49.276C265.918 49.532 265.369 49.66 264.697 49.66ZM264.921 48.492C265.828 48.492 266.462 48.2467 266.825 47.756C267.198 47.2547 267.385 46.5027 267.385 45.5V45.244C267.385 44.1773 267.209 43.3613 266.857 42.796C266.505 42.22 265.854 41.932 264.905 41.932C264.148 41.932 263.577 42.236 263.193 42.844C262.82 43.4413 262.633 44.2467 262.633 45.26C262.633 46.284 262.82 47.0787 263.193 47.644C263.577 48.2093 264.153 48.492 264.921 48.492ZM272.221 37.708C272.434 37.708 272.621 37.7827 272.781 37.932C272.951 38.0707 273.037 38.2947 273.037 38.604C273.037 38.9027 272.951 39.1267 272.781 39.276C272.621 39.4253 272.434 39.5 272.221 39.5C271.986 39.5 271.789 39.4253 271.629 39.276C271.469 39.1267 271.389 38.9027 271.389 38.604C271.389 38.2947 271.469 38.0707 271.629 37.932C271.789 37.7827 271.986 37.708 272.221 37.708ZM272.909 40.924V49.5H271.501V40.924H272.909ZM278.49 48.508C278.703 48.508 278.922 48.492 279.146 48.46C279.37 48.4173 279.551 48.3747 279.69 48.332V49.404C279.54 49.4787 279.327 49.5373 279.05 49.58C278.772 49.6333 278.506 49.66 278.25 49.66C277.802 49.66 277.386 49.5853 277.002 49.436C276.628 49.276 276.324 49.004 276.09 48.62C275.855 48.236 275.738 47.6973 275.738 47.004V42.012H274.522V41.34L275.754 40.78L276.314 38.956H277.146V40.924H279.626V42.012H277.146V46.972C277.146 47.4947 277.268 47.884 277.514 48.14C277.77 48.3853 278.095 48.508 278.49 48.508ZM282.127 37.708C282.34 37.708 282.527 37.7827 282.687 37.932C282.858 38.0707 282.943 38.2947 282.943 38.604C282.943 38.9027 282.858 39.1267 282.687 39.276C282.527 39.4253 282.34 39.5 282.127 39.5C281.892 39.5 281.695 39.4253 281.535 39.276C281.375 39.1267 281.295 38.9027 281.295 38.604C281.295 38.2947 281.375 38.0707 281.535 37.932C281.695 37.7827 281.892 37.708 282.127 37.708ZM282.815 40.924V49.5H281.407V40.924H282.815ZM292.988 45.196C292.988 46.6147 292.625 47.7133 291.9 48.492C291.185 49.2707 290.215 49.66 288.988 49.66C288.231 49.66 287.553 49.4893 286.956 49.148C286.369 48.796 285.905 48.2893 285.564 47.628C285.223 46.956 285.052 46.1453 285.052 45.196C285.052 43.7773 285.409 42.684 286.124 41.916C286.839 41.148 287.809 40.764 289.036 40.764C289.815 40.764 290.497 40.94 291.084 41.292C291.681 41.6333 292.145 42.1347 292.476 42.796C292.817 43.4467 292.988 44.2467 292.988 45.196ZM286.508 45.196C286.508 46.2093 286.705 47.0147 287.1 47.612C287.505 48.1987 288.145 48.492 289.02 48.492C289.884 48.492 290.519 48.1987 290.924 47.612C291.329 47.0147 291.532 46.2093 291.532 45.196C291.532 44.1827 291.329 43.388 290.924 42.812C290.519 42.236 289.879 41.948 289.004 41.948C288.129 41.948 287.495 42.236 287.1 42.812C286.705 43.388 286.508 44.1827 286.508 45.196ZM299.347 40.764C300.371 40.764 301.145 41.0147 301.667 41.516C302.19 42.0067 302.451 42.8067 302.451 43.916V49.5H301.059V44.012C301.059 42.636 300.419 41.948 299.139 41.948C298.19 41.948 297.534 42.2147 297.171 42.748C296.809 43.2813 296.627 44.0493 296.627 45.052V49.5H295.219V40.924H296.355L296.563 42.092H296.643C296.921 41.644 297.305 41.3133 297.795 41.1C298.286 40.876 298.803 40.764 299.347 40.764ZM310.694 47.132C310.694 47.964 310.385 48.5933 309.766 49.02C309.147 49.4467 308.315 49.66 307.27 49.66C306.673 49.66 306.155 49.612 305.718 49.516C305.291 49.42 304.913 49.2867 304.582 49.116V47.836C304.923 48.0067 305.334 48.1667 305.814 48.316C306.305 48.4547 306.801 48.524 307.302 48.524C308.017 48.524 308.534 48.412 308.854 48.188C309.174 47.9533 309.334 47.644 309.334 47.26C309.334 47.0467 309.275 46.8547 309.158 46.684C309.041 46.5133 308.827 46.3427 308.518 46.172C308.219 46.0013 307.787 45.8093 307.222 45.596C306.667 45.3827 306.193 45.1693 305.798 44.956C305.403 44.7427 305.099 44.4867 304.886 44.188C304.673 43.8893 304.566 43.5053 304.566 43.036C304.566 42.3107 304.859 41.7507 305.446 41.356C306.043 40.9613 306.822 40.764 307.782 40.764C308.305 40.764 308.79 40.8173 309.238 40.924C309.697 41.02 310.123 41.1587 310.518 41.34L310.038 42.46C309.675 42.3107 309.297 42.1827 308.902 42.076C308.507 41.9693 308.102 41.916 307.686 41.916C307.11 41.916 306.667 42.012 306.358 42.204C306.059 42.3853 305.91 42.636 305.91 42.956C305.91 43.1907 305.979 43.3933 306.118 43.564C306.257 43.724 306.486 43.884 306.806 44.044C307.137 44.1933 307.574 44.3747 308.118 44.588C308.662 44.7907 309.126 44.9987 309.51 45.212C309.894 45.4253 310.187 45.6867 310.39 45.996C310.593 46.2947 310.694 46.6733 310.694 47.132Z" fill="#1F497A"/>
<rect x="324" y="41.5" width="4" height="4" rx="2" fill="#333333"/>
<path d="M344.576 38.076C346.069 38.076 347.157 38.3693 347.84 38.956C348.523 39.5427 348.864 40.3693 348.864 41.436C348.864 42.0653 348.72 42.6573 348.432 43.212C348.155 43.756 347.68 44.1987 347.008 44.54C346.347 44.8813 345.445 45.052 344.304 45.052H342.992V49.5H341.552V38.076H344.576ZM344.448 39.308H342.992V43.82H344.144C345.232 43.82 346.043 43.644 346.576 43.292C347.109 42.94 347.376 42.3427 347.376 41.5C347.376 40.764 347.141 40.2147 346.672 39.852C346.203 39.4893 345.461 39.308 344.448 39.308ZM355.048 40.764C355.208 40.764 355.378 40.7747 355.56 40.796C355.752 40.8067 355.917 40.828 356.056 40.86L355.88 42.156C355.741 42.124 355.586 42.0973 355.416 42.076C355.256 42.0547 355.101 42.044 354.952 42.044C354.514 42.044 354.104 42.1667 353.72 42.412C353.336 42.6467 353.026 42.9827 352.792 43.42C352.568 43.8467 352.456 44.348 352.456 44.924V49.5H351.048V40.924H352.2L352.36 42.492H352.424C352.701 42.0227 353.058 41.6173 353.496 41.276C353.933 40.9347 354.45 40.764 355.048 40.764ZM358.377 37.708C358.59 37.708 358.777 37.7827 358.937 37.932C359.108 38.0707 359.193 38.2947 359.193 38.604C359.193 38.9027 359.108 39.1267 358.937 39.276C358.777 39.4253 358.59 39.5 358.377 39.5C358.142 39.5 357.945 39.4253 357.785 39.276C357.625 39.1267 357.545 38.9027 357.545 38.604C357.545 38.2947 357.625 38.0707 357.785 37.932C357.945 37.7827 358.142 37.708 358.377 37.708ZM359.065 40.924V49.5H357.657V40.924H359.065ZM363.67 49.5L360.422 40.924H361.926L363.75 45.98C363.835 46.2147 363.926 46.476 364.022 46.764C364.118 47.052 364.203 47.3293 364.278 47.596C364.353 47.852 364.406 48.0707 364.438 48.252H364.502C364.545 48.0707 364.603 47.8467 364.678 47.58C364.763 47.3133 364.854 47.036 364.95 46.748C365.057 46.46 365.147 46.204 365.222 45.98L367.046 40.924H368.55L365.286 49.5H363.67ZM373.155 40.78C374.2 40.78 374.974 41.0093 375.475 41.468C375.976 41.9267 376.227 42.6573 376.227 43.66V49.5H375.203L374.931 48.284H374.867C374.494 48.7533 374.099 49.1 373.683 49.324C373.278 49.548 372.712 49.66 371.987 49.66C371.208 49.66 370.563 49.4573 370.051 49.052C369.539 48.636 369.283 47.9907 369.283 47.116C369.283 46.2627 369.619 45.6067 370.291 45.148C370.963 44.6787 371.998 44.4227 373.395 44.38L374.851 44.332V43.82C374.851 43.1053 374.696 42.6093 374.387 42.332C374.078 42.0547 373.64 41.916 373.075 41.916C372.627 41.916 372.2 41.9853 371.795 42.124C371.39 42.252 371.011 42.4013 370.659 42.572L370.227 41.516C370.6 41.3133 371.043 41.1427 371.555 41.004C372.067 40.8547 372.6 40.78 373.155 40.78ZM373.571 45.356C372.504 45.3987 371.763 45.5693 371.347 45.868C370.942 46.1667 370.739 46.588 370.739 47.132C370.739 47.612 370.883 47.964 371.171 48.188C371.47 48.412 371.848 48.524 372.307 48.524C373.032 48.524 373.635 48.3267 374.115 47.932C374.595 47.5267 374.835 46.908 374.835 46.076V45.308L373.571 45.356ZM382.316 49.66C381.558 49.66 380.881 49.5053 380.284 49.196C379.697 48.8867 379.233 48.4067 378.892 47.756C378.561 47.1053 378.396 46.2733 378.396 45.26C378.396 44.204 378.572 43.3453 378.924 42.684C379.276 42.0227 379.75 41.5373 380.348 41.228C380.956 40.9187 381.644 40.764 382.412 40.764C382.849 40.764 383.27 40.812 383.676 40.908C384.081 40.9933 384.412 41.1 384.668 41.228L384.236 42.396C383.98 42.3 383.681 42.2093 383.34 42.124C382.998 42.0387 382.678 41.996 382.38 41.996C380.694 41.996 379.852 43.0787 379.852 45.244C379.852 46.2787 380.054 47.0733 380.46 47.628C380.876 48.172 381.489 48.444 382.3 48.444C382.769 48.444 383.18 48.396 383.532 48.3C383.894 48.204 384.225 48.0867 384.524 47.948V49.196C384.236 49.3453 383.916 49.4573 383.564 49.532C383.222 49.6173 382.806 49.66 382.316 49.66ZM385.219 40.924H386.723L388.579 45.804C388.739 46.2307 388.883 46.6413 389.011 47.036C389.139 47.42 389.235 47.788 389.299 48.14H389.363C389.427 47.8733 389.528 47.5267 389.667 47.1C389.806 46.6627 389.95 46.2253 390.099 45.788L391.843 40.924H393.363L389.667 50.684C389.368 51.4947 388.979 52.14 388.499 52.62C388.03 53.1 387.379 53.34 386.547 53.34C386.291 53.34 386.067 53.324 385.875 53.292C385.683 53.2707 385.518 53.244 385.379 53.212V52.092C385.496 52.1133 385.635 52.1347 385.795 52.156C385.966 52.1773 386.142 52.188 386.323 52.188C386.814 52.188 387.208 52.0493 387.507 51.772C387.816 51.4947 388.056 51.1267 388.227 50.668L388.675 49.532L385.219 40.924Z" fill="#1F497A"/>
<path d="M1281.78 24.2393H1287.74V36.1313H1281.78V24.2393ZM1271.46 30.1853L1271.12 30.2996C1271.12 30.2996 1273.18 32.0148 1273.18 32.1292C1273.3 32.2435 1273.41 32.2435 1273.3 32.5866C1273.18 32.9296 1273.07 33.2726 1273.07 33.2726C1273.07 33.2726 1274.9 32.9296 1275.13 32.8153C1275.36 32.8153 1275.47 32.8152 1275.47 33.0439C1275.47 33.2726 1275.36 35.2165 1275.36 35.2165H1275.93C1275.93 35.2165 1275.82 33.1583 1275.82 33.0439C1275.82 32.8152 1275.93 32.8153 1276.16 32.8153C1276.39 32.8153 1278.22 33.2726 1278.22 33.2726C1278.22 33.2726 1278.11 32.8153 1277.99 32.5866C1277.88 32.2435 1277.99 32.2435 1278.11 32.1292C1278.22 32.0148 1280.17 30.2996 1280.17 30.2996L1279.83 30.1853C1279.6 30.0709 1279.71 29.9566 1279.71 29.8422C1279.71 29.7279 1280.06 28.5844 1280.06 28.5844C1280.06 28.5844 1279.14 28.8131 1279.03 28.8131C1278.91 28.8131 1278.8 28.8131 1278.8 28.6988C1278.8 28.5844 1278.57 28.127 1278.57 28.127C1278.57 28.127 1277.54 29.2705 1277.42 29.3849C1277.19 29.6135 1276.96 29.3849 1277.08 29.1562C1277.08 28.9275 1277.65 26.5262 1277.65 26.5262C1277.65 26.5262 1277.08 26.8692 1276.85 26.9836C1276.62 27.0979 1276.51 27.0979 1276.51 26.8692C1276.39 26.6405 1275.7 25.3827 1275.7 25.2684C1275.7 25.2684 1275.02 26.6405 1274.9 26.8692C1274.79 27.0979 1274.67 27.0979 1274.56 26.9836C1274.33 26.8692 1273.75 26.5262 1273.75 26.5262C1273.75 26.5262 1274.33 28.9275 1274.33 29.1562C1274.33 29.3849 1274.21 29.4992 1273.98 29.3849L1272.84 28.127C1272.84 28.127 1272.72 28.4701 1272.61 28.5844C1272.61 28.6988 1272.49 28.8131 1272.38 28.6988C1272.15 28.6988 1271.23 28.4701 1271.23 28.4701C1271.23 28.4701 1271.58 29.6135 1271.69 29.7279C1271.69 29.8422 1271.69 30.0709 1271.46 30.1853ZM1263.79 24.2393H1269.74V36.1313H1263.79V24.2393Z" fill="#EB2D37"/>
<path d="M1289.07 59.9113C1288.61 60.9404 1287.7 61.2834 1287.12 61.2834C1286.44 61.2834 1284.37 61.1691 1284.37 55.7948C1284.37 55.7948 1284.37 44.932 1284.37 44.2459C1284.37 40.7012 1281.62 37.8426 1274.52 37.8426C1266.84 37.8426 1266.73 41.616 1266.73 42.5307C1266.61 43.5598 1267.18 44.7033 1269.13 44.7033C1270.85 44.7033 1271.31 42.7594 1271.54 42.0733C1271.77 41.2729 1271.88 38.986 1274.98 38.986C1277.61 38.986 1279.22 41.2729 1279.33 44.5889C1279.33 45.1607 1279.33 45.5037 1279.33 45.8467C1279.33 46.0754 1279.33 46.1898 1279.33 46.4185V46.5328C1279.1 47.6763 1278.53 48.248 1277.5 48.7054C1276.12 49.3915 1272.11 49.9632 1271.65 50.0775C1270.05 50.4206 1265.58 51.564 1265.69 56.2522C1265.81 60.826 1270.39 62.4269 1273.6 62.3125C1276.7 62.1982 1278.53 60.9404 1279.33 60.2543C1279.79 59.9113 1279.79 59.9113 1280.13 60.3686C1280.59 60.826 1282.08 62.3125 1285.63 62.3125C1289.3 62.3125 1289.76 60.5973 1289.99 60.0256C1290.1 59.6826 1289.3 59.3395 1289.07 59.9113ZM1274.75 61.1691C1271.54 61.1691 1270.74 58.5391 1270.74 57.167C1270.74 55.9092 1271.42 53.2792 1274.63 51.4497C1274.63 51.4497 1276.12 50.5349 1278.99 49.3915C1279.1 49.3915 1279.22 49.3915 1279.22 49.3915C1279.22 49.3915 1279.33 49.5058 1279.33 49.6202V49.7345V49.8488V54.6514C1279.33 58.4248 1277.5 61.1691 1274.75 61.1691ZM1264.21 61.0547C1263.75 60.9404 1260.88 61.2834 1260.88 52.5931C1260.88 43.9029 1260.88 25.2645 1260.88 25.2645C1260.88 24.9215 1260.88 24.0067 1259.85 24.0067C1258.82 24.0067 1251.94 24.3498 1251.49 24.4641C1251.03 24.4641 1250.68 25.0358 1251.49 25.0358C1252.29 25.1502 1255.95 25.3789 1255.95 31.4392C1255.95 34.4122 1255.95 37.3852 1255.95 39.5577C1255.95 39.6721 1255.95 39.7864 1255.95 39.7864C1255.95 40.0151 1255.95 40.1295 1255.84 40.2438C1255.84 40.2438 1255.84 40.2438 1255.84 40.3582C1255.73 40.4725 1255.61 40.3582 1255.27 40.1295C1254.69 39.6721 1252.06 38.0712 1248.73 38.0712C1243.35 38.0712 1236.7 41.959 1236.7 49.9632C1236.7 58.5391 1242.78 62.6556 1249.08 62.6556C1252.17 62.6556 1254.35 61.2834 1255.15 60.826C1256.07 60.2543 1255.95 60.3686 1256.07 61.1691C1256.18 61.7408 1256.07 62.8843 1257.67 62.7699C1259.39 62.5412 1263.52 62.0838 1264.32 61.9695C1265.12 61.6264 1264.89 61.1691 1264.21 61.0547ZM1250 61.3978C1244.95 61.3978 1242.32 55.4518 1242.32 49.7345C1242.32 43.4455 1245.87 39.2147 1249.65 39.4434C1254.58 39.7864 1255.84 43.6742 1255.95 50.6493C1255.95 51.1066 1255.95 51.564 1255.95 52.1358C1255.84 58.9965 1252.97 61.3978 1250 61.3978ZM1236.59 59.9113C1236.13 60.9404 1235.21 61.2834 1234.64 61.2834C1233.95 61.2834 1231.89 61.1691 1231.89 55.7948C1231.89 55.7948 1231.89 44.932 1231.89 44.2459C1231.89 40.7012 1229.14 37.8426 1222.03 37.8426C1214.36 37.8426 1214.24 41.616 1214.24 42.5307C1214.13 43.5598 1214.7 44.7033 1216.65 44.7033C1218.37 44.7033 1218.83 42.7594 1219.05 42.0733C1219.28 41.2729 1219.4 38.986 1222.49 38.986C1225.13 38.986 1226.85 41.2729 1226.85 44.7033V44.8176C1226.85 44.932 1226.85 45.0463 1226.85 45.0463V45.3894C1226.85 45.5037 1226.85 45.7324 1226.85 45.8467C1226.73 47.5619 1226.27 48.1337 1224.9 48.8197C1223.52 49.5058 1219.51 50.0775 1219.05 50.1919C1217.45 50.5349 1212.98 51.6784 1213.1 56.3665C1213.21 60.9404 1217.79 62.5412 1221 62.4269C1224.1 62.3125 1225.93 61.0547 1226.73 60.3686C1227.19 60.0256 1227.19 60.0256 1227.53 60.483C1227.99 60.9404 1229.48 62.4269 1233.04 62.4269C1236.7 62.4269 1237.16 60.7117 1237.39 60.14C1237.62 59.6826 1236.93 59.3395 1236.59 59.9113ZM1222.38 61.1691C1219.17 61.1691 1218.37 58.5391 1218.37 57.167C1218.37 55.9092 1219.05 53.2792 1222.26 51.4497C1222.26 51.4497 1223.75 50.5349 1226.62 49.3915C1226.73 49.3915 1226.85 49.3915 1226.85 49.3915V49.5058C1226.85 49.6202 1226.85 49.7345 1226.85 49.9632V49.8488C1226.85 49.8488 1226.85 49.8488 1226.85 49.9632V54.7657C1226.85 58.4248 1225.01 61.1691 1222.38 61.1691ZM1211.38 61.0547C1210.46 60.826 1208.86 59.7969 1208.86 54.7657V45.6181C1208.86 43.4455 1209.09 37.8426 1200.49 37.8426C1196.02 37.8426 1193.5 40.1295 1193.27 40.2438C1192.93 40.5868 1192.7 40.7012 1192.58 40.1295C1192.47 39.6721 1192.24 38.986 1192.13 38.5286C1192.01 38.1856 1191.78 37.8426 1190.98 37.9569C1190.18 38.0712 1185.13 38.8717 1184.22 39.1004C1183.42 39.329 1183.65 39.6721 1184.22 39.7864C1184.79 39.9008 1187.54 40.1295 1187.54 44.8176C1187.54 49.5058 1187.54 54.6514 1187.54 54.6514C1187.54 60.3686 1186.4 60.826 1185.36 61.1691C1183.99 61.5121 1184.68 61.9695 1185.25 61.9695C1185.25 61.9695 1195.45 61.9695 1195.68 61.9695C1196.37 61.9695 1196.71 61.2834 1195.33 61.0547C1193.96 60.826 1192.7 60.0256 1192.7 55.5661C1192.7 55.1087 1192.7 50.1919 1192.7 49.2771C1192.7 46.8759 1192.13 39.5577 1198.77 39.4434C1203.47 39.329 1203.93 43.2168 1203.93 45.7324V55.4518C1203.93 59.4539 1202.78 60.7117 1201.41 60.9404C1200.15 61.1691 1200.38 61.7408 1201.06 61.7408C1201.29 61.7408 1211.72 61.7408 1211.72 61.7408C1212.29 61.9695 1212.87 61.3978 1211.38 61.0547ZM1183.53 59.9113C1183.07 60.9404 1182.16 61.2834 1181.58 61.2834C1180.89 61.2834 1178.83 61.1691 1178.83 55.7948C1178.83 55.7948 1178.83 44.932 1178.83 44.2459C1178.83 40.7012 1176.08 37.8426 1168.98 37.8426C1161.3 37.8426 1161.18 41.616 1161.18 42.5307C1161.07 43.5598 1161.64 44.7033 1163.59 44.7033C1165.31 44.7033 1165.77 42.7594 1166 42.0733C1166.23 41.2729 1166.34 38.986 1169.44 38.986C1172.07 38.986 1173.68 41.2729 1173.79 44.5889C1173.79 45.1607 1173.79 45.5037 1173.79 45.8467C1173.79 46.0754 1173.79 46.3041 1173.68 46.4185V46.5328C1173.45 47.6763 1172.87 48.248 1171.84 48.7054C1170.47 49.3915 1166.46 49.9632 1166 50.0775C1164.39 50.4206 1159.92 51.564 1160.04 56.2522C1160.15 60.826 1164.74 62.4269 1167.95 62.3125C1171.04 62.1982 1172.87 60.9404 1173.68 60.2543C1174.13 59.9113 1174.13 59.9113 1174.48 60.3686C1174.94 60.826 1176.43 62.3125 1179.98 62.3125C1183.65 62.3125 1184.1 60.5973 1184.33 60.0256C1184.56 59.6826 1183.76 59.3395 1183.53 59.9113ZM1169.21 61.1691C1166 61.1691 1165.2 58.5391 1165.2 57.167C1165.2 55.7948 1165.88 53.2792 1169.09 51.4497C1169.09 51.4497 1170.58 50.5349 1173.45 49.3915C1173.56 49.3915 1173.68 49.3915 1173.68 49.3915C1173.68 49.3915 1173.79 49.5058 1173.79 49.6202C1173.79 49.6202 1173.79 49.7345 1173.79 49.8488V49.9632V54.7657C1173.79 58.4248 1171.96 61.1691 1169.21 61.1691ZM1158.2 51.221C1157.06 54.8801 1154.88 60.826 1146.97 61.0547C1138.72 61.1691 1133.8 55.5661 1133.57 45.1607C1133.22 34.0691 1138.04 25.6076 1145.48 25.3789C1153.85 25.2645 1156.83 35.2126 1156.94 36.6991C1157.06 37.8426 1158.55 37.7282 1158.55 36.5848C1158.55 36.013 1157.86 26.1793 1157.63 25.0358C1157.4 23.8924 1156.49 24.3498 1156.26 24.8072C1156.14 25.1502 1156.37 24.4641 1155.91 25.4932C1155.45 26.5223 1154.19 25.9506 1153.74 25.8363C1152.36 25.2645 1149.72 23.8924 1145.48 24.0067C1135.74 24.2354 1125.77 31.4392 1126 44.0172C1126.23 56.2522 1136.09 63.1129 1145.26 62.9986C1153.62 62.8842 1158.32 57.6243 1159.69 51.564C1160.15 50.0775 1158.66 49.7345 1158.2 51.221Z" fill="black"/>
</svg>
