<svg xmlns="http://www.w3.org/2000/svg" width="850px" id="Layer_1" viewBox="0 0 1170.5 614.89">
  <defs>
    <clipPath id="clippath">
      <path d="M48.1 517.67h97.24v48.62H48.1z" style="fill:none"/>
    </clipPath>
    <style>
      .cls-4{fill:#b07ec5}.cls-5{fill:#7b279e}
    </style>
  </defs>
  <path d="M0 0h1170.5v614.89H0z" style="fill:#f1eaf5"/>
  <g style="clip-path:url(#clippath)">
    <path d="M48.1 517.67h24.31v48.62H48.1zM96.76 522.23l-3.18 6.5c-.29.56-.81.48-1.28.19l-3.02-1.75 1.95 9.67c.32 1.24-.7 1.8-1.42.94l-4.07-4.58-1.15 2.37c-.29.62-.61.89-1.76.62l-4.12-.89 1.6 5.23c.24.79.22 1.16-.24 1.51l-1.58.97 8.54 7.04c.73.62.64 1.24.32 2.16l-.93 2.4 7.24-1.4c1.58-.33 2.25-.35 2.25.53l-.32 7.99h2.35l-.32-8.02c.02-.78.69-.78 1.66-.54l7.81 1.42-.77-2.4c-.32-1-.61-1.27.24-2.16l8.41-7.14-1.44-.72c-.75-.33-.43-.89-.27-1.57v-.11l1.36-5.17-4.06.86h-.02c-.69.13-1.21.23-1.56-.49l-1.04-2.4-3.93 4.24c-1.08 1.19-2.06.68-1.69-1.08l1.79-8.92-2.76 1.37c-.64.32-.96.38-1.36-.3l-3.21-6.39ZM121.03 517.67h24.31v48.62h-24.31z" class="cls-5"/>
  </g>
  <path d="M216.24 537.33h-2.39l-.57-2.51c-1 1.13-1.99 1.92-2.99 2.36s-2.14.66-3.43.66c-1.59 0-3.03-.29-4.3-.87-1.25-.6-2.32-1.4-3.19-2.42s-1.55-2.2-2.03-3.55c-.46-1.35-.69-2.8-.69-4.33s.23-2.95.69-4.3c.48-1.35 1.15-2.54 2.03-3.55a9.677 9.677 0 0 1 3.19-2.42c1.27-.6 2.71-.9 4.3-.9 1.15 0 2.25.16 3.28.48 1.05.3 1.99.76 2.81 1.37.82.6 1.49 1.35 2.03 2.27.54.92.88 1.97 1.02 3.16h-3.64c-.1-.7-.32-1.3-.66-1.82-.32-.54-.73-.99-1.22-1.34s-1.05-.63-1.67-.81c-.62-.18-1.26-.27-1.94-.27-1.13 0-2.12.23-2.96.69-.82.46-1.48 1.07-2 1.85-.52.76-.91 1.62-1.16 2.6-.24.98-.36 1.97-.36 2.99s.12 2.01.36 2.99c.26.98.65 1.85 1.16 2.63a5.83 5.83 0 0 0 2 1.82c.84.46 1.82.69 2.96.69.96.02 1.8-.1 2.54-.36.74-.28 1.35-.67 1.85-1.16.52-.52.91-1.14 1.16-1.88.26-.74.4-1.55.42-2.45h-5.67v-2.84h9.08v11.23Zm10.65.42c-1.23 0-2.34-.2-3.31-.6-.96-.42-1.77-.99-2.45-1.7-.66-.72-1.16-1.57-1.52-2.57-.34-1-.51-2.09-.51-3.28s.17-2.26.51-3.25c.36-1 .87-1.85 1.52-2.57a7.02 7.02 0 0 1 2.45-1.67c.98-.42 2.08-.63 3.31-.63s2.33.21 3.28.63c.98.4 1.79.96 2.45 1.67.68.72 1.18 1.57 1.52 2.57.36 1 .54 2.08.54 3.25s-.18 2.29-.54 3.28c-.34 1-.85 1.85-1.52 2.57-.66.72-1.47 1.28-2.45 1.7-.96.4-2.05.6-3.28.6Zm0-2.69c.76 0 1.41-.16 1.97-.48.56-.32 1.02-.74 1.37-1.25s.62-1.09.78-1.73c.18-.66.27-1.32.27-2s-.09-1.31-.27-1.97c-.16-.66-.42-1.23-.78-1.73-.36-.52-.82-.94-1.37-1.25-.56-.32-1.21-.48-1.97-.48s-1.41.16-1.97.48c-.56.32-1.02.74-1.37 1.25-.36.5-.63 1.07-.81 1.73a8.295 8.295 0 0 0 0 3.97c.18.64.45 1.21.81 1.73s.82.94 1.37 1.25c.56.32 1.21.48 1.97.48Zm9.1-13.17h3.7l3.91 11.85h.06l3.76-11.85h3.52l-5.52 15.43h-3.82l-5.61-15.43Zm27.6 6.36a5.15 5.15 0 0 0-.36-1.55c-.18-.5-.44-.93-.78-1.28-.32-.38-.72-.68-1.19-.9-.46-.24-.98-.36-1.55-.36s-1.14.11-1.64.33c-.48.2-.9.49-1.25.87-.34.36-.62.79-.84 1.28-.2.5-.31 1.03-.33 1.61h7.94Zm-7.94 2.24c0 .6.08 1.17.24 1.73.18.56.44 1.04.78 1.46s.77.76 1.28 1.02c.52.24 1.13.36 1.85.36.99 0 1.79-.21 2.39-.63.62-.44 1.07-1.08 1.37-1.94h3.22c-.18.84-.49 1.58-.93 2.24s-.96 1.21-1.58 1.67c-.62.44-1.31.77-2.09.99-.76.24-1.55.36-2.39.36-1.21 0-2.29-.2-3.22-.6-.93-.4-1.73-.96-2.39-1.67a7.213 7.213 0 0 1-1.46-2.57c-.32-1-.48-2.09-.48-3.28 0-1.09.17-2.13.51-3.1.36-1 .86-1.86 1.49-2.6.66-.76 1.44-1.35 2.36-1.79s1.95-.66 3.1-.66c1.21 0 2.3.26 3.25.78.98.5 1.78 1.16 2.42 2 .64.84 1.1 1.8 1.37 2.9.3 1.07.38 2.19.24 3.34h-11.34Zm13.93-8.6h3.19v2.99h.06c.1-.42.29-.83.57-1.22.3-.4.65-.76 1.04-1.07.42-.34.88-.61 1.37-.81.5-.2 1-.3 1.52-.3.4 0 .67 0 .81.03l.48.06v3.28c-.24-.04-.49-.07-.75-.09-.24-.04-.48-.06-.72-.06-.58 0-1.13.12-1.64.36-.5.22-.94.56-1.31 1.02-.38.44-.68.99-.9 1.64-.22.66-.33 1.41-.33 2.27v7.34h-3.4V521.9Zm11.02 0h3.22v2.27l.06.06c.52-.86 1.19-1.52 2.03-2 .84-.5 1.76-.75 2.78-.75 1.69 0 3.02.44 4 1.31.97.88 1.46 2.19 1.46 3.94v10.6h-3.4v-9.7c-.04-1.21-.3-2.09-.78-2.63-.48-.56-1.22-.84-2.24-.84-.58 0-1.1.11-1.55.33-.46.2-.85.49-1.16.87-.32.36-.57.79-.75 1.28-.18.5-.27 1.02-.27 1.58v9.11h-3.4v-15.43Zm17.14 0h3.22v2.15h.09c.26-.38.54-.73.84-1.04s.63-.59.99-.81c.38-.22.81-.39 1.28-.51.48-.14 1.03-.21 1.64-.21.94 0 1.8.21 2.6.63.82.42 1.39 1.06 1.73 1.94.58-.8 1.24-1.42 2-1.88.76-.46 1.7-.69 2.84-.69 1.63 0 2.9.4 3.79 1.19.92.8 1.37 2.13 1.37 4v10.66h-3.4v-9.02c0-.62-.02-1.17-.06-1.67-.04-.52-.16-.96-.36-1.31-.18-.38-.46-.67-.84-.87-.38-.2-.9-.3-1.55-.3-1.15 0-1.99.36-2.51 1.07-.52.72-.78 1.73-.78 3.05v9.05h-3.4v-9.91c0-1.07-.2-1.88-.6-2.42-.38-.56-1.08-.84-2.12-.84-.44 0-.87.09-1.28.27-.4.18-.76.44-1.07.78-.3.34-.55.76-.75 1.25-.18.5-.27 1.06-.27 1.7v9.17h-3.4v-15.43Zm36.58 6.36a5.15 5.15 0 0 0-.36-1.55c-.18-.5-.44-.93-.78-1.28-.32-.38-.72-.68-1.19-.9-.46-.24-.98-.36-1.55-.36s-1.14.11-1.64.33c-.48.2-.9.49-1.25.87-.34.36-.62.79-.84 1.28-.2.5-.31 1.03-.33 1.61h7.94Zm-7.94 2.24c0 .6.08 1.17.24 1.73.18.56.44 1.04.78 1.46s.77.76 1.28 1.02c.52.24 1.13.36 1.85.36.99 0 1.79-.21 2.39-.63.62-.44 1.07-1.08 1.37-1.94h3.22c-.18.84-.49 1.58-.93 2.24s-.96 1.21-1.58 1.67c-.62.44-1.31.77-2.09.99-.76.24-1.55.36-2.39.36-1.21 0-2.29-.2-3.22-.6-.93-.4-1.73-.96-2.39-1.67a7.213 7.213 0 0 1-1.46-2.57c-.32-1-.48-2.09-.48-3.28 0-1.09.17-2.13.51-3.1.36-1 .86-1.86 1.49-2.6.66-.76 1.44-1.35 2.36-1.79s1.95-.66 3.1-.66c1.21 0 2.3.26 3.25.78.98.5 1.78 1.16 2.42 2 .64.84 1.1 1.8 1.37 2.9.3 1.07.38 2.19.24 3.34h-11.34Zm13.93-8.6h3.22v2.27l.06.06c.52-.86 1.19-1.52 2.03-2 .84-.5 1.76-.75 2.78-.75 1.69 0 3.02.44 4 1.31.97.88 1.46 2.19 1.46 3.94v10.6h-3.4v-9.7c-.04-1.21-.3-2.09-.78-2.63-.48-.56-1.22-.84-2.24-.84-.58 0-1.1.11-1.55.33-.46.2-.85.49-1.16.87-.32.36-.57.79-.75 1.28-.18.5-.27 1.02-.27 1.58v9.11h-3.4v-15.43Zm15.59 0h2.57v-4.63h3.4v4.63h3.08v2.54h-3.08v8.24c0 .36.01.67.03.93.04.26.11.48.21.66.12.18.29.32.51.42.22.08.52.12.9.12h.72c.24-.02.48-.06.72-.12v2.63c-.38.04-.75.08-1.1.12a10 10 0 0 1-1.1.06c-.9 0-1.62-.08-2.18-.24-.54-.18-.96-.43-1.28-.75-.3-.34-.51-.76-.63-1.25-.1-.5-.16-1.06-.18-1.7v-9.11h-2.57v-2.54ZM204.24 567.6c-1.23 0-2.34-.2-3.31-.6-.96-.42-1.77-.99-2.45-1.7-.66-.72-1.16-1.57-1.52-2.57-.34-1-.51-2.09-.51-3.28s.17-2.26.51-3.25c.36-1 .87-1.85 1.52-2.57a7.02 7.02 0 0 1 2.45-1.67c.98-.42 2.08-.63 3.31-.63s2.33.21 3.28.63c.98.4 1.79.96 2.45 1.67.68.72 1.18 1.57 1.52 2.57.36 1 .54 2.08.54 3.25s-.18 2.29-.54 3.28c-.34 1-.85 1.85-1.52 2.57-.66.72-1.47 1.28-2.45 1.7-.96.4-2.05.6-3.28.6Zm0-2.69c.76 0 1.41-.16 1.97-.48s1.02-.74 1.37-1.25c.36-.52.62-1.09.78-1.73.18-.66.27-1.32.27-2s-.09-1.31-.27-1.97c-.16-.66-.42-1.23-.78-1.73-.36-.52-.82-.94-1.37-1.25s-1.21-.48-1.97-.48-1.41.16-1.97.48-1.02.74-1.37 1.25c-.36.5-.63 1.07-.81 1.73a8.295 8.295 0 0 0 0 3.97c.18.64.45 1.21.81 1.73.36.52.82.94 1.37 1.25s1.21.48 1.97.48Zm9.1-13.17h2.54v-1.28c0-.98.12-1.76.36-2.36.24-.62.56-1.08.96-1.4.4-.34.85-.56 1.34-.66.52-.12 1.05-.18 1.61-.18 1.09 0 1.89.07 2.39.21v2.66c-.22-.06-.46-.1-.72-.12a5.39 5.39 0 0 0-.87-.06c-.46 0-.86.11-1.19.33-.32.22-.48.65-.48 1.28v1.58h2.9v2.54h-2.9v12.9h-3.4v-12.9h-2.54v-2.54Zm34.12.9c-.16-.62-.38-1.18-.66-1.7s-.64-.97-1.07-1.34c-.44-.38-.96-.67-1.55-.87-.58-.22-1.25-.33-2.03-.33-1.13 0-2.12.23-2.96.69-.82.46-1.48 1.07-2 1.85-.52.76-.9 1.62-1.16 2.6-.24.98-.36 1.97-.36 2.99s.12 2.01.36 2.99c.26.98.65 1.85 1.16 2.63a5.83 5.83 0 0 0 2 1.82c.84.46 1.82.69 2.96.69.84 0 1.57-.14 2.21-.42.64-.3 1.18-.7 1.64-1.19.46-.52.82-1.11 1.07-1.79.26-.68.43-1.4.51-2.18h3.64c-.08 1.27-.36 2.44-.84 3.49a8.622 8.622 0 0 1-1.88 2.75c-.79.76-1.73 1.34-2.81 1.76-1.07.42-2.26.63-3.55.63-1.59 0-3.02-.29-4.3-.87-1.25-.6-2.32-1.4-3.19-2.42-.88-1.02-1.55-2.2-2.03-3.55-.46-1.35-.69-2.8-.69-4.33s.23-2.95.69-4.3c.48-1.35 1.15-2.54 2.03-3.55a9.677 9.677 0 0 1 3.19-2.42c1.27-.6 2.71-.9 4.3-.9 1.19 0 2.32.17 3.37.51 1.06.32 1.98.8 2.78 1.43.82.62 1.47 1.37 1.97 2.27.5.9.81 1.92.93 3.07h-3.73Zm19.6 11.11c0 .42.05.72.15.9.12.18.34.27.66.27h.36c.14 0 .3-.02.48-.06v2.36c-.12.04-.28.08-.48.12-.18.06-.37.11-.57.15a6.207 6.207 0 0 1-1.11.12c-.7 0-1.27-.14-1.73-.42-.46-.28-.76-.77-.9-1.46-.68.66-1.51 1.13-2.51 1.43-.97.3-1.92.45-2.84.45-.7 0-1.36-.1-2-.3-.64-.18-1.2-.45-1.7-.81-.48-.38-.87-.85-1.16-1.4-.28-.58-.42-1.24-.42-2 0-.96.17-1.73.51-2.33.36-.6.82-1.06 1.37-1.4.58-.34 1.21-.58 1.91-.72.72-.16 1.43-.28 2.15-.36.62-.12 1.21-.2 1.76-.24a8.68 8.68 0 0 0 1.46-.27c.44-.12.78-.3 1.02-.54.26-.26.39-.64.39-1.13 0-.44-.11-.8-.33-1.07-.2-.28-.46-.49-.78-.63-.3-.16-.64-.26-1.02-.3-.38-.06-.74-.09-1.07-.09-.96 0-1.74.2-2.36.6-.62.4-.96 1.02-1.04 1.85h-3.4c.06-1 .3-1.82.72-2.48.42-.66.95-1.18 1.58-1.58.66-.4 1.39-.68 2.21-.84.82-.16 1.65-.24 2.51-.24.76 0 1.5.08 2.24.24.74.16 1.39.42 1.97.78.6.36 1.07.83 1.43 1.4.36.56.54 1.24.54 2.06v7.94Zm-3.4-4.3c-.52.34-1.15.55-1.91.63-.76.06-1.51.16-2.27.3-.36.06-.71.15-1.04.27-.34.1-.64.25-.9.45-.26.18-.47.43-.63.75-.14.3-.21.67-.21 1.1 0 .38.11.7.33.96.22.26.48.47.78.63.32.14.66.24 1.02.3.38.06.72.09 1.02.09.38 0 .79-.05 1.22-.15.44-.1.85-.27 1.22-.51.4-.24.73-.54.99-.9.26-.38.39-.84.39-1.37v-2.54Zm7.07-7.7h3.22v2.27l.06.06c.52-.86 1.19-1.52 2.03-2 .84-.5 1.76-.75 2.78-.75 1.69 0 3.02.44 4 1.31s1.46 2.19 1.46 3.94v10.6h-3.4v-9.7c-.04-1.21-.3-2.09-.78-2.63-.48-.56-1.22-.84-2.24-.84-.58 0-1.1.11-1.55.33-.46.2-.85.49-1.16.87-.32.36-.57.79-.75 1.28-.18.5-.27 1.02-.27 1.58v9.11h-3.4v-15.43Zm30.07 12c0 .42.05.72.15.9.12.18.34.27.66.27h.36c.14 0 .3-.02.48-.06v2.36c-.12.04-.28.08-.48.12-.18.06-.37.11-.57.15a6.207 6.207 0 0 1-1.11.12c-.7 0-1.27-.14-1.73-.42-.46-.28-.76-.77-.9-1.46-.68.66-1.51 1.13-2.51 1.43-.97.3-1.92.45-2.84.45-.7 0-1.36-.1-2-.3-.64-.18-1.2-.45-1.7-.81-.48-.38-.87-.85-1.16-1.4-.28-.58-.42-1.24-.42-2 0-.96.17-1.73.51-2.33.36-.6.82-1.06 1.37-1.4.58-.34 1.21-.58 1.91-.72.72-.16 1.43-.28 2.15-.36.62-.12 1.21-.2 1.76-.24a8.68 8.68 0 0 0 1.46-.27c.44-.12.78-.3 1.02-.54.26-.26.39-.64.39-1.13 0-.44-.11-.8-.33-1.07-.2-.28-.46-.49-.78-.63-.3-.16-.64-.26-1.02-.3-.38-.06-.74-.09-1.07-.09-.96 0-1.74.2-2.36.6-.62.4-.96 1.02-1.04 1.85h-3.4c.06-1 .3-1.82.72-2.48.42-.66.95-1.18 1.58-1.58.66-.4 1.39-.68 2.21-.84.82-.16 1.65-.24 2.51-.24.76 0 1.5.08 2.24.24.74.16 1.39.42 1.97.78.6.36 1.07.83 1.43 1.4.36.56.54 1.24.54 2.06v7.94Zm-3.4-4.3c-.52.34-1.15.55-1.91.63-.76.06-1.51.16-2.27.3-.36.06-.71.15-1.04.27-.34.1-.64.25-.9.45-.26.18-.47.43-.63.75-.14.3-.21.67-.21 1.1 0 .38.11.7.33.96.22.26.48.47.78.63.32.14.66.24 1.02.3.38.06.72.09 1.02.09.38 0 .79-.05 1.22-.15.44-.1.85-.27 1.22-.51.4-.24.73-.54.99-.9.26-.38.39-.84.39-1.37v-2.54Zm21.61 7.73h-3.22v-2.09h-.06c-.46.9-1.13 1.54-2 1.94-.88.38-1.8.57-2.78.57-1.21 0-2.28-.21-3.19-.63a6.5 6.5 0 0 1-2.24-1.76c-.6-.74-1.04-1.6-1.34-2.6-.3-1.02-.45-2.1-.45-3.25 0-1.39.19-2.6.57-3.61s.88-1.85 1.49-2.51c.64-.66 1.35-1.13 2.15-1.43.82-.32 1.64-.48 2.48-.48.48 0 .96.05 1.46.15.5.08.98.22 1.43.42.46.2.88.46 1.25.78.4.3.73.66.99 1.07h.06v-7.88h3.4v21.32Zm-11.88-7.55c0 .66.08 1.3.24 1.94.18.64.44 1.2.78 1.7.36.5.81.9 1.34 1.19.54.3 1.17.45 1.91.45s1.4-.16 1.94-.48c.56-.32 1.01-.74 1.34-1.25.36-.52.62-1.09.78-1.73.18-.66.27-1.32.27-2 0-1.71-.39-3.05-1.16-4-.76-.96-1.79-1.43-3.1-1.43-.8 0-1.47.17-2.03.51-.54.32-.99.75-1.34 1.28-.34.52-.59 1.11-.75 1.79a9.71 9.71 0 0 0-.21 2.03Zm28.52 4.12c0 .42.05.72.15.9.12.18.34.27.66.27h.36c.14 0 .3-.02.48-.06v2.36c-.12.04-.28.08-.48.12-.18.06-.37.11-.57.15a6.207 6.207 0 0 1-1.11.12c-.7 0-1.27-.14-1.73-.42-.46-.28-.76-.77-.9-1.46-.68.66-1.51 1.13-2.51 1.43-.97.3-1.92.45-2.84.45-.7 0-1.36-.1-2-.3-.64-.18-1.2-.45-1.7-.81-.48-.38-.87-.85-1.16-1.4-.28-.58-.42-1.24-.42-2 0-.96.17-1.73.51-2.33.36-.6.82-1.06 1.37-1.4.58-.34 1.21-.58 1.91-.72.72-.16 1.43-.28 2.15-.36.62-.12 1.21-.2 1.76-.24a8.68 8.68 0 0 0 1.46-.27c.44-.12.78-.3 1.02-.54.26-.26.39-.64.39-1.13 0-.44-.11-.8-.33-1.07-.2-.28-.46-.49-.78-.63-.3-.16-.64-.26-1.02-.3-.38-.06-.74-.09-1.07-.09-.96 0-1.74.2-2.36.6-.62.4-.96 1.02-1.04 1.85h-3.4c.06-1 .3-1.82.72-2.48.42-.66.95-1.18 1.58-1.58.66-.4 1.39-.68 2.21-.84.82-.16 1.65-.24 2.51-.24.76 0 1.5.08 2.24.24.74.16 1.39.42 1.97.78.6.36 1.07.83 1.43 1.4.36.56.54 1.24.54 2.06v7.94Zm-3.4-4.3c-.52.34-1.15.55-1.91.63-.76.06-1.51.16-2.27.3-.36.06-.71.15-1.04.27-.34.1-.64.25-.9.45-.26.18-.47.43-.63.75-.14.3-.21.67-.21 1.1 0 .38.11.7.33.96.22.26.48.47.78.63.32.14.66.24 1.02.3.38.06.72.09 1.02.09.38 0 .79-.05 1.22-.15.44-.1.85-.27 1.22-.51.4-.24.73-.54.99-.9.26-.38.39-.84.39-1.37v-2.54ZM439.21 537.31h-2.4l-.57-2.52c-1 1.14-2 1.93-3 2.37s-2.15.66-3.45.66c-1.6 0-3.04-.29-4.32-.87a9.68 9.68 0 0 1-3.21-2.43c-.88-1.02-1.56-2.21-2.04-3.57-.46-1.36-.69-2.81-.69-4.35s.23-2.96.69-4.32c.48-1.36 1.16-2.55 2.04-3.57a9.68 9.68 0 0 1 3.21-2.43c1.28-.6 2.72-.9 4.32-.9 1.16 0 2.26.16 3.3.48 1.06.3 2 .76 2.82 1.38.82.6 1.5 1.36 2.04 2.28.54.92.88 1.98 1.02 3.18h-3.66c-.1-.7-.32-1.31-.66-1.83a4.42 4.42 0 0 0-1.23-1.35c-.5-.36-1.06-.63-1.68-.81a6.96 6.96 0 0 0-1.95-.27c-1.14 0-2.13.23-2.97.69-.82.46-1.49 1.08-2.01 1.86a8.39 8.39 0 0 0-1.17 2.61c-.24.98-.36 1.98-.36 3s.12 2.02.36 3c.26.98.65 1.86 1.17 2.64.52.76 1.19 1.37 2.01 1.83.84.46 1.83.69 2.97.69.96.02 1.81-.1 2.55-.36.74-.28 1.36-.67 1.86-1.17.52-.52.91-1.15 1.17-1.89.26-.74.4-1.56.42-2.46h-5.7v-2.85h9.12v11.28Zm10.7.42c-1.24 0-2.35-.2-3.33-.6-.96-.42-1.78-.99-2.46-1.71-.66-.72-1.17-1.58-1.53-2.58-.34-1-.51-2.1-.51-3.3s.17-2.27.51-3.27c.36-1 .87-1.86 1.53-2.58.68-.72 1.5-1.28 2.46-1.68.98-.42 2.09-.63 3.33-.63s2.34.21 3.3.63c.98.4 1.8.96 2.46 1.68a6.97 6.97 0 0 1 1.53 2.58c.36 1 .54 2.09.54 3.27s-.18 2.3-.54 3.3c-.34 1-.85 1.86-1.53 2.58-.66.72-1.48 1.29-2.46 1.71-.96.4-2.06.6-3.3.6Zm0-2.7c.76 0 1.42-.16 1.98-.48.56-.32 1.02-.74 1.38-1.26s.62-1.1.78-1.74c.18-.66.27-1.33.27-2.01s-.09-1.32-.27-1.98c-.16-.66-.42-1.24-.78-1.74-.36-.52-.82-.94-1.38-1.26-.56-.32-1.22-.48-1.98-.48s-1.42.16-1.98.48c-.56.32-1.02.74-1.38 1.26-.36.5-.63 1.08-.81 1.74a8.378 8.378 0 0 0 0 3.99c.18.64.45 1.22.81 1.74s.82.94 1.38 1.26c.56.32 1.22.48 1.98.48Zm24.29 2.28h-3.36v-2.16h-.06c-.42.78-1.05 1.41-1.89 1.89-.82.46-1.66.69-2.52.69-2.04 0-3.52-.5-4.44-1.5-.9-1.02-1.35-2.55-1.35-4.59v-9.84H464v9.51c0 1.36.26 2.32.78 2.88s1.25.84 2.19.84c.72 0 1.32-.11 1.8-.33s.87-.51 1.17-.87c.3-.38.51-.83.63-1.35.14-.52.21-1.08.21-1.68v-9h3.42v15.51Zm2.08-15.51H480l3.93 11.91h.06l3.78-11.91h3.54l-5.55 15.51h-3.84l-5.64-15.51Zm27.73 6.39c-.04-.54-.16-1.06-.36-1.56-.18-.5-.44-.93-.78-1.29a3.39 3.39 0 0 0-1.2-.9c-.46-.24-.98-.36-1.56-.36s-1.15.11-1.65.33c-.48.2-.9.49-1.26.87-.34.36-.62.79-.84 1.29-.2.5-.31 1.04-.33 1.62h7.98Zm-7.98 2.25c0 .6.08 1.18.24 1.74.18.56.44 1.05.78 1.47.34.42.77.76 1.29 1.02.52.24 1.14.36 1.86.36 1 0 1.8-.21 2.4-.63.62-.44 1.08-1.09 1.38-1.95h3.24c-.18.84-.49 1.59-.93 2.25a6.7 6.7 0 0 1-1.59 1.68c-.62.44-1.32.77-2.1.99-.76.24-1.56.36-2.4.36-1.22 0-2.3-.2-3.24-.6-.94-.4-1.74-.96-2.4-1.68-.64-.72-1.13-1.58-1.47-2.58-.32-1-.48-2.1-.48-3.3 0-1.1.17-2.14.51-3.12.36-1 .86-1.87 1.5-2.61.66-.76 1.45-1.36 2.37-1.8.92-.44 1.96-.66 3.12-.66 1.22 0 2.31.26 3.27.78.98.5 1.79 1.17 2.43 2.01.64.84 1.1 1.81 1.38 2.91.3 1.08.38 2.2.24 3.36h-11.4Zm14-8.64h3.21v3h.06c.1-.42.29-.83.57-1.23.3-.4.65-.76 1.05-1.08.42-.34.88-.61 1.38-.81s1.01-.3 1.53-.3c.4 0 .67 0 .81.03l.48.06v3.3c-.24-.04-.49-.07-.75-.09-.24-.04-.48-.06-.72-.06-.58 0-1.13.12-1.65.36-.5.22-.94.56-1.32 1.02-.38.44-.68.99-.9 1.65-.22.66-.33 1.42-.33 2.28v7.38h-3.42V521.8Zm11.07 0h3.24v2.28l.06.06c.52-.86 1.2-1.53 2.04-2.01.84-.5 1.77-.75 2.79-.75 1.7 0 3.04.44 4.02 1.32.98.88 1.47 2.2 1.47 3.96v10.65h-3.42v-9.75c-.04-1.22-.3-2.1-.78-2.64-.48-.56-1.23-.84-2.25-.84-.58 0-1.1.11-1.56.33-.46.2-.85.49-1.17.87-.32.36-.57.79-.75 1.29-.18.5-.27 1.03-.27 1.59v9.15h-3.42V521.8Zm27.87 6.39c-.04-.54-.16-1.06-.36-1.56-.18-.5-.44-.93-.78-1.29a3.39 3.39 0 0 0-1.2-.9c-.46-.24-.98-.36-1.56-.36s-1.15.11-1.65.33c-.48.2-.9.49-1.26.87-.34.36-.62.79-.84 1.29-.2.5-.31 1.04-.33 1.62h7.98Zm-7.98 2.25c0 .6.08 1.18.24 1.74.18.56.44 1.05.78 1.47.34.42.77.76 1.29 1.02.52.24 1.14.36 1.86.36 1 0 1.8-.21 2.4-.63.62-.44 1.08-1.09 1.38-1.95h3.24c-.18.84-.49 1.59-.93 2.25a6.7 6.7 0 0 1-1.59 1.68c-.62.44-1.32.77-2.1.99-.76.24-1.56.36-2.4.36-1.22 0-2.3-.2-3.24-.6-.94-.4-1.74-.96-2.4-1.68-.64-.72-1.13-1.58-1.47-2.58-.32-1-.48-2.1-.48-3.3 0-1.1.17-2.14.51-3.12.36-1 .86-1.87 1.5-2.61.66-.76 1.45-1.36 2.37-1.8.92-.44 1.96-.66 3.12-.66 1.22 0 2.31.26 3.27.78.98.5 1.79 1.17 2.43 2.01.64.84 1.1 1.81 1.38 2.91.3 1.08.38 2.2.24 3.36h-11.4Zm13.99-8.64h3.24v2.16h.09c.26-.38.54-.73.84-1.05s.63-.59.99-.81c.38-.22.81-.39 1.29-.51.48-.14 1.03-.21 1.65-.21.94 0 1.81.21 2.61.63.82.42 1.4 1.07 1.74 1.95.58-.8 1.25-1.43 2.01-1.89.76-.46 1.71-.69 2.85-.69 1.64 0 2.91.4 3.81 1.2.92.8 1.38 2.14 1.38 4.02v10.71h-3.42v-9.06c0-.62-.02-1.18-.06-1.68-.04-.52-.16-.96-.36-1.32-.18-.38-.46-.67-.84-.87-.38-.2-.9-.3-1.56-.3-1.16 0-2 .36-2.52 1.08-.52.72-.78 1.74-.78 3.06v9.09h-3.42v-9.96c0-1.08-.2-1.89-.6-2.43-.38-.56-1.09-.84-2.13-.84-.44 0-.87.09-1.29.27-.4.18-.76.44-1.08.78-.3.34-.55.76-.75 1.26-.18.5-.27 1.07-.27 1.71v9.21h-3.42V521.8Zm36.74 6.39c-.04-.54-.16-1.06-.36-1.56-.18-.5-.44-.93-.78-1.29a3.39 3.39 0 0 0-1.2-.9c-.46-.24-.98-.36-1.56-.36s-1.15.11-1.65.33c-.48.2-.9.49-1.26.87-.34.36-.62.79-.84 1.29-.2.5-.31 1.04-.33 1.62h7.98Zm-7.98 2.25c0 .6.08 1.18.24 1.74.18.56.44 1.05.78 1.47.34.42.77.76 1.29 1.02.52.24 1.14.36 1.86.36 1 0 1.8-.21 2.4-.63.62-.44 1.08-1.09 1.38-1.95h3.24c-.18.84-.49 1.59-.93 2.25a6.7 6.7 0 0 1-1.59 1.68c-.62.44-1.32.77-2.1.99-.76.24-1.56.36-2.4.36-1.22 0-2.3-.2-3.24-.6-.94-.4-1.74-.96-2.4-1.68-.64-.72-1.13-1.58-1.47-2.58-.32-1-.48-2.1-.48-3.3 0-1.1.17-2.14.51-3.12.36-1 .86-1.87 1.5-2.61.66-.76 1.45-1.36 2.37-1.8.92-.44 1.96-.66 3.12-.66 1.22 0 2.31.26 3.27.78.98.5 1.79 1.17 2.43 2.01.64.84 1.1 1.81 1.38 2.91.3 1.08.38 2.2.24 3.36h-11.4Zm14-8.64h3.24v2.28l.06.06c.52-.86 1.2-1.53 2.04-2.01.84-.5 1.77-.75 2.79-.75 1.7 0 3.04.44 4.02 1.32.98.88 1.47 2.2 1.47 3.96v10.65h-3.42v-9.75c-.04-1.22-.3-2.1-.78-2.64-.48-.56-1.23-.84-2.25-.84-.58 0-1.1.11-1.56.33-.46.2-.85.49-1.17.87-.32.36-.57.79-.75 1.29-.18.5-.27 1.03-.27 1.59v9.15h-3.42V521.8Zm15.66 0h2.58v-4.65h3.42v4.65h3.09v2.55h-3.09v8.28c0 .36.01.67.03.93.04.26.11.48.21.66.12.18.29.32.51.42.22.08.52.12.9.12h.72c.24-.02.48-.06.72-.12v2.64c-.38.04-.75.08-1.11.12-.36.04-.73.06-1.11.06-.9 0-1.63-.08-2.19-.24-.54-.18-.97-.43-1.29-.75-.3-.34-.51-.76-.63-1.26-.1-.5-.16-1.07-.18-1.71v-9.15h-2.58v-2.55Zm-178.75 45.5h-3.24v-2.1h-.06c-.46.9-1.13 1.55-2.01 1.95-.88.38-1.81.57-2.79.57-1.22 0-2.29-.21-3.21-.63-.9-.44-1.65-1.03-2.25-1.77-.6-.74-1.05-1.61-1.35-2.61-.3-1.02-.45-2.11-.45-3.27 0-1.4.19-2.61.57-3.63s.88-1.86 1.5-2.52c.64-.66 1.36-1.14 2.16-1.44a6.8 6.8 0 0 1 2.49-.48c.48 0 .97.05 1.47.15.5.08.98.22 1.44.42.46.2.88.46 1.26.78.4.3.73.66.99 1.08h.06v-7.92h3.42v21.41Zm-11.94-7.59c0 .66.08 1.31.24 1.95.18.64.44 1.21.78 1.71.36.5.81.9 1.35 1.2.54.3 1.18.45 1.92.45s1.41-.16 1.95-.48c.56-.32 1.01-.74 1.35-1.26.36-.52.62-1.1.78-1.74.18-.66.27-1.33.27-2.01 0-1.72-.39-3.06-1.17-4.02-.76-.96-1.8-1.44-3.12-1.44-.8 0-1.48.17-2.04.51-.54.32-.99.75-1.35 1.29-.34.52-.59 1.12-.75 1.8-.14.66-.21 1.34-.21 2.04Zm29.28 7.59h-3.36v-2.16h-.06c-.42.78-1.05 1.41-1.89 1.89-.82.46-1.66.69-2.52.69-2.04 0-3.52-.5-4.44-1.5-.9-1.02-1.35-2.55-1.35-4.59v-9.84h3.42v9.51c0 1.36.26 2.32.78 2.88s1.25.84 2.19.84c.72 0 1.32-.11 1.8-.33.48-.22.87-.51 1.17-.87.3-.38.51-.83.63-1.35.14-.52.21-1.08.21-1.68v-9h3.42v15.51Zm26.89-14.61c-.16-.62-.38-1.19-.66-1.71s-.64-.97-1.08-1.35-.96-.67-1.56-.87c-.58-.22-1.26-.33-2.04-.33-1.14 0-2.13.23-2.97.69-.82.46-1.49 1.08-2.01 1.86a8.39 8.39 0 0 0-1.17 2.61c-.24.98-.36 1.98-.36 3s.12 2.02.36 3c.26.98.65 1.86 1.17 2.64.52.76 1.19 1.37 2.01 1.83.84.46 1.83.69 2.97.69.84 0 1.58-.14 2.22-.42.64-.3 1.19-.7 1.65-1.2.46-.52.82-1.12 1.08-1.8.26-.68.43-1.41.51-2.19h3.66c-.08 1.28-.36 2.45-.84 3.51a8.583 8.583 0 0 1-1.89 2.76 8.54 8.54 0 0 1-2.82 1.77c-1.08.42-2.27.63-3.57.63-1.6 0-3.04-.29-4.32-.87a9.68 9.68 0 0 1-3.21-2.43c-.88-1.02-1.56-2.21-2.04-3.57-.46-1.36-.69-2.81-.69-4.35s.23-2.96.69-4.32c.48-1.36 1.16-2.55 2.04-3.57a9.68 9.68 0 0 1 3.21-2.43c1.28-.6 2.72-.9 4.32-.9 1.2 0 2.33.17 3.39.51 1.06.32 1.99.8 2.79 1.44.82.62 1.48 1.38 1.98 2.28.5.9.81 1.93.93 3.09h-3.75Zm19.69 11.16c0 .42.05.72.15.9.12.18.34.27.66.27h.36c.14 0 .3-.02.48-.06v2.37c-.12.04-.28.08-.48.12-.18.06-.37.11-.57.15a6.207 6.207 0 0 1-1.11.12c-.7 0-1.28-.14-1.74-.42-.46-.28-.76-.77-.9-1.47-.68.66-1.52 1.14-2.52 1.44-.98.3-1.93.45-2.85.45-.7 0-1.37-.1-2.01-.3a5.4 5.4 0 0 1-1.71-.81c-.48-.38-.87-.85-1.17-1.41-.28-.58-.42-1.25-.42-2.01 0-.96.17-1.74.51-2.34.36-.6.82-1.07 1.38-1.41.58-.34 1.22-.58 1.92-.72.72-.16 1.44-.28 2.16-.36.62-.12 1.21-.2 1.77-.24.56-.06 1.05-.15 1.47-.27.44-.12.78-.3 1.02-.54.26-.26.39-.64.39-1.14 0-.44-.11-.8-.33-1.08-.2-.28-.46-.49-.78-.63-.3-.16-.64-.26-1.02-.3-.38-.06-.74-.09-1.08-.09-.96 0-1.75.2-2.37.6-.62.4-.97 1.02-1.05 1.86h-3.42c.06-1 .3-1.83.72-2.49.42-.66.95-1.19 1.59-1.59.66-.4 1.4-.68 2.22-.84.82-.16 1.66-.24 2.52-.24.76 0 1.51.08 2.25.24.74.16 1.4.42 1.98.78.6.36 1.08.83 1.44 1.41.36.56.54 1.25.54 2.07v7.98Zm-3.42-4.32c-.52.34-1.16.55-1.92.63-.76.06-1.52.16-2.28.3-.36.06-.71.15-1.05.27-.34.1-.64.25-.9.45-.26.18-.47.43-.63.75-.14.3-.21.67-.21 1.11 0 .38.11.7.33.96.22.26.48.47.78.63.32.14.66.24 1.02.3.38.06.72.09 1.02.09.38 0 .79-.05 1.23-.15.44-.1.85-.27 1.23-.51.4-.24.73-.54.99-.9.26-.38.39-.84.39-1.38v-2.55Zm7.1-7.74h3.24v2.28l.06.06c.52-.86 1.2-1.53 2.04-2.01.84-.5 1.77-.75 2.79-.75 1.7 0 3.04.44 4.02 1.32.98.88 1.47 2.2 1.47 3.96v10.65h-3.42v-9.75c-.04-1.22-.3-2.1-.78-2.64-.48-.56-1.23-.84-2.25-.84-.58 0-1.1.11-1.56.33-.46.2-.85.49-1.17.87-.32.36-.57.79-.75 1.29-.18.5-.27 1.03-.27 1.59v9.15h-3.42v-15.51Zm30.21 12.06c0 .42.05.72.15.9.12.18.34.27.66.27h.36c.14 0 .3-.02.48-.06v2.37c-.12.04-.28.08-.48.12-.18.06-.37.11-.57.15s-.4.07-.6.09-.37.03-.51.03c-.7 0-1.28-.14-1.74-.42-.46-.28-.76-.77-.9-1.47-.68.66-1.52 1.14-2.52 1.44-.98.3-1.93.45-2.85.45-.7 0-1.37-.1-2.01-.3a5.4 5.4 0 0 1-1.71-.81c-.48-.38-.87-.85-1.17-1.41-.28-.58-.42-1.25-.42-2.01 0-.96.17-1.74.51-2.34.36-.6.82-1.07 1.38-1.41.58-.34 1.22-.58 1.92-.72.72-.16 1.44-.28 2.16-.36.62-.12 1.21-.2 1.77-.24.56-.06 1.05-.15 1.47-.27.44-.12.78-.3 1.02-.54.26-.26.39-.64.39-1.14 0-.44-.11-.8-.33-1.08-.2-.28-.46-.49-.78-.63-.3-.16-.64-.26-1.02-.3-.38-.06-.74-.09-1.08-.09-.96 0-1.75.2-2.37.6-.62.4-.97 1.02-1.05 1.86h-3.42c.06-1 .3-1.83.72-2.49.42-.66.95-1.19 1.59-1.59.66-.4 1.4-.68 2.22-.84.82-.16 1.66-.24 2.52-.24.76 0 1.51.08 2.25.24s1.4.42 1.98.78c.6.36 1.08.83 1.44 1.41.36.56.54 1.25.54 2.07v7.98Zm-3.42-4.32c-.52.34-1.16.55-1.92.63-.76.06-1.52.16-2.28.3-.36.06-.71.15-1.05.27-.34.1-.64.25-.9.45-.26.18-.47.43-.63.75-.14.3-.21.67-.21 1.11 0 .38.11.7.33.96.22.26.48.47.78.63.32.14.66.24 1.02.3.38.06.72.09 1.02.09.38 0 .79-.05 1.23-.15.44-.1.85-.27 1.23-.51.4-.24.73-.54.99-.9.26-.38.39-.84.39-1.38v-2.55Zm21.7 7.77h-3.24v-2.1h-.06c-.46.9-1.13 1.55-2.01 1.95-.88.38-1.81.57-2.79.57-1.22 0-2.29-.21-3.21-.63-.9-.44-1.65-1.03-2.25-1.77-.6-.74-1.05-1.61-1.35-2.61-.3-1.02-.45-2.11-.45-3.27 0-1.4.19-2.61.57-3.63.38-1.02.88-1.86 1.5-2.52.64-.66 1.36-1.14 2.16-1.44a6.8 6.8 0 0 1 2.49-.48c.48 0 .97.05 1.47.15.5.08.98.22 1.44.42.46.2.88.46 1.26.78.4.3.73.66.99 1.08h.06v-7.92h3.42v21.41Zm-11.94-7.59c0 .66.08 1.31.24 1.95.18.64.44 1.21.78 1.71.36.5.81.9 1.35 1.2s1.18.45 1.92.45 1.41-.16 1.95-.48c.56-.32 1.01-.74 1.35-1.26.36-.52.62-1.1.78-1.74.18-.66.27-1.33.27-2.01 0-1.72-.39-3.06-1.17-4.02-.76-.96-1.8-1.44-3.12-1.44-.8 0-1.48.17-2.04.51-.54.32-.99.75-1.35 1.29-.34.52-.59 1.12-.75 1.8-.14.66-.21 1.34-.21 2.04Zm28.65 4.14c0 .42.05.72.15.9.12.18.34.27.66.27h.36c.14 0 .3-.02.48-.06v2.37c-.12.04-.28.08-.48.12-.18.06-.37.11-.57.15a6.207 6.207 0 0 1-1.11.12c-.7 0-1.28-.14-1.74-.42-.46-.28-.76-.77-.9-1.47-.68.66-1.52 1.14-2.52 1.44-.98.3-1.93.45-2.85.45-.7 0-1.37-.1-2.01-.3a5.4 5.4 0 0 1-1.71-.81c-.48-.38-.87-.85-1.17-1.41-.28-.58-.42-1.25-.42-2.01 0-.96.17-1.74.51-2.34.36-.6.82-1.07 1.38-1.41.58-.34 1.22-.58 1.92-.72.72-.16 1.44-.28 2.16-.36.62-.12 1.21-.2 1.77-.24.56-.06 1.05-.15 1.47-.27.44-.12.78-.3 1.02-.54.26-.26.39-.64.39-1.14 0-.44-.11-.8-.33-1.08-.2-.28-.46-.49-.78-.63-.3-.16-.64-.26-1.02-.3-.38-.06-.74-.09-1.08-.09-.96 0-1.75.2-2.37.6-.62.4-.97 1.02-1.05 1.86h-3.42c.06-1 .3-1.83.72-2.49.42-.66.95-1.19 1.59-1.59.66-.4 1.4-.68 2.22-.84.82-.16 1.66-.24 2.52-.24.76 0 1.51.08 2.25.24.74.16 1.4.42 1.98.78.6.36 1.08.83 1.44 1.41.36.56.54 1.25.54 2.07v7.98Zm-3.42-4.32c-.52.34-1.16.55-1.92.63-.76.06-1.52.16-2.28.3-.36.06-.71.15-1.05.27-.34.1-.64.25-.9.45-.26.18-.47.43-.63.75-.14.3-.21.67-.21 1.11 0 .38.11.7.33.96.22.26.48.47.78.63.32.14.66.24 1.02.3.38.06.72.09 1.02.09.38 0 .79-.05 1.23-.15.44-.1.85-.27 1.23-.51.4-.24.73-.54.99-.9.26-.38.39-.84.39-1.38v-2.55ZM1107.07 494.25h10.92v21.8h-10.92v-21.8Zm-18.91 10.9-.63.21s3.78 3.14 3.78 3.35c.21.21.42.21.21.84l-.42 1.26s3.36-.63 3.78-.84c.42 0 .63 0 .63.42s-.21 3.98-.21 3.98h1.05s-.21-3.77-.21-3.98c0-.42.21-.42.63-.42s3.78.84 3.78.84-.21-.84-.42-1.26c-.21-.63 0-.63.21-.84s3.78-3.35 3.78-3.35l-.63-.21c-.42-.21-.21-.42-.21-.63s.63-2.31.63-2.31-1.68.42-1.89.42-.42 0-.42-.21-.42-1.05-.42-1.05-1.89 2.1-2.1 2.31c-.42.42-.84 0-.63-.42 0-.42 1.05-4.82 1.05-4.82s-1.05.63-1.47.84c-.42.21-.63.21-.63-.21-.21-.42-1.47-2.72-1.47-2.93 0 0-1.26 2.52-1.47 2.93-.21.42-.42.42-.63.21-.42-.21-1.47-.84-1.47-.84s1.05 4.4 1.05 4.82-.21.63-.63.42l-2.1-2.31s-.21.63-.42.84c0 .21-.21.42-.42.21-.42 0-2.1-.42-2.1-.42s.63 2.1.84 2.31c0 .21 0 .63-.42.84Zm-14.07-10.9h10.92v21.8h-10.92v-21.8ZM1120.44 559.65c-.84 1.89-2.52 2.52-3.57 2.52-1.26 0-5.04-.21-5.04-10.06v-21.17c0-6.5-5.04-11.74-18.07-11.74-14.07 0-14.29 6.92-14.29 8.59-.21 1.89.84 3.98 4.41 3.98 3.15 0 3.99-3.56 4.41-4.82.42-1.47.63-5.66 6.3-5.66 4.83 0 7.77 4.19 7.98 10.27v3.56c-.42 2.1-1.47 3.14-3.36 3.98-2.52 1.26-9.87 2.31-10.71 2.52-2.94.63-11.13 2.72-10.92 11.32.21 8.38 8.61 11.32 14.49 11.11 5.67-.21 9.03-2.52 10.5-3.77q.84-.63 1.47.21c.84.84 3.57 3.56 10.08 3.56s7.56-3.14 7.98-4.19c.21-.63-1.26-1.26-1.68-.21Zm-26.26 2.31c-5.88 0-7.35-4.82-7.35-7.34 0-2.31 1.26-7.13 7.14-10.48 0 0 2.73-1.68 7.98-3.77h.42s.21.21.21.42v9.22c0 6.92-3.36 11.95-8.4 11.95Zm-19.33-.21c-.84-.21-6.09.42-6.09-15.51v-50.1c0-.63 0-2.31-1.89-2.31s-14.49.63-15.33.84c-.84 0-1.47 1.05 0 1.05 1.47.21 8.19.63 8.19 11.74v15.3c0 .42 0 .63-.21.84v.21c-.21.21-.42 0-1.05-.42-1.05-.84-5.88-3.77-11.97-3.77-9.87 0-22.06 7.13-22.06 21.8 0 15.72 11.13 23.27 22.69 23.27 5.67 0 9.66-2.52 11.13-3.35 1.68-1.05 1.47-.84 1.68.63.21 1.05 0 3.14 2.94 2.93 3.15-.42 10.71-1.26 12.18-1.47 1.47-.63 1.05-1.47-.21-1.68Zm-26.05.63c-9.24 0-14.07-10.9-14.07-21.38 0-11.53 6.51-19.28 13.45-18.87 9.03.63 11.34 7.76 11.55 20.54v2.72c-.21 12.58-5.46 16.98-10.92 16.98Zm-24.58-2.72c-.84 1.89-2.52 2.52-3.57 2.52-1.26 0-5.04-.21-5.04-10.06v-21.17c0-6.5-5.04-11.74-18.07-11.74-14.07 0-14.28 6.92-14.28 8.59-.21 1.89.84 3.98 4.41 3.98 3.15 0 3.99-3.56 4.41-4.82.42-1.47.63-5.66 6.3-5.66 4.83 0 7.98 4.19 7.98 10.48v2.1c-.21 3.14-1.05 4.19-3.57 5.45-2.52 1.26-9.87 2.31-10.71 2.52-2.94.63-11.13 2.72-10.92 11.32.21 8.38 8.61 11.32 14.49 11.11 5.67-.21 9.03-2.52 10.5-3.77q.84-.63 1.47.21c.84.84 3.57 3.56 10.08 3.56s7.56-3.14 7.98-4.19c.42-.84-.84-1.47-1.47-.42Zm-26.05 2.31c-5.88 0-7.35-4.82-7.35-7.34 0-2.31 1.26-7.13 7.14-10.48 0 0 2.73-1.68 7.98-3.77h.42v9.85c0 6.71-3.36 11.74-8.19 11.74Zm-20.17-.21c-1.68-.42-4.62-2.31-4.62-11.53v-16.77c0-3.98.42-14.25-15.33-14.25-8.19 0-12.81 4.19-13.23 4.4-.63.63-1.05.84-1.26-.21-.21-.84-.63-2.1-.84-2.93-.21-.63-.63-1.26-2.1-1.05-1.47.21-10.71 1.68-12.39 2.1-1.47.42-1.05 1.05 0 1.26 1.05.21 6.09.63 6.09 9.22v18.03c0 10.48-2.1 11.32-3.99 11.95-2.52.63-1.26 1.47-.21 1.47h19.12c1.26 0 1.89-1.26-.63-1.68-2.52-.42-4.83-1.89-4.83-10.06v-11.53c0-4.4-1.05-17.82 11.13-18.03 8.61-.21 9.45 6.92 9.45 11.53v17.82c0 7.34-2.1 9.64-4.62 10.06-2.31.42-1.89 1.47-.63 1.47h19.54c1.05.42 2.1-.63-.63-1.26Zm-51.05-2.1c-.84 1.89-2.52 2.52-3.57 2.52-1.26 0-5.04-.21-5.04-10.06v-21.17c0-6.5-5.04-11.74-18.07-11.74-14.07 0-14.28 6.92-14.28 8.59-.21 1.89.84 3.98 4.41 3.98 3.15 0 3.99-3.56 4.41-4.82.42-1.47.63-5.66 6.3-5.66 4.83 0 7.77 4.19 7.98 10.27v2.31c0 .42 0 .84-.21 1.05v.21c-.42 2.1-1.47 3.14-3.36 3.98-2.52 1.26-9.87 2.31-10.71 2.52-2.94.63-11.13 2.72-10.92 11.32.21 8.38 8.61 11.32 14.49 11.11 5.67-.21 9.03-2.52 10.5-3.77q.84-.63 1.47.21c.84.84 3.57 3.56 10.08 3.56s7.56-3.14 7.98-4.19c.42-.63-1.05-1.26-1.47-.21Zm-26.26 2.31c-5.88 0-7.35-4.82-7.35-7.34s1.26-7.13 7.14-10.48c0 0 2.73-1.68 7.98-3.77h.42s.21.21.21.42v9.43c0 6.71-3.36 11.74-8.4 11.74Zm-20.17-18.24c-2.1 6.71-6.09 17.61-20.59 18.03-15.12.21-24.16-10.06-24.58-29.14-.63-20.33 8.19-35.84 21.85-36.26 15.33-.21 20.8 18.03 21.01 20.75.21 2.1 2.94 1.89 2.94-.21 0-1.05-1.26-19.07-1.68-21.17-.42-2.1-2.1-1.26-2.52-.42-.21.63.21-.63-.63 1.26-.84 1.89-3.15.84-3.99.63-2.52-1.05-7.35-3.56-15.12-3.35-17.86.42-36.13 13.62-35.71 36.68.42 22.43 18.49 35.01 35.29 34.8 15.33-.21 23.95-9.85 26.47-20.96.84-2.72-1.89-3.35-2.73-.63Z" class="cls-5"/>
  <path d="M198.27 63.76h395.94v40.58H198.27zM198.27 140.77h395.94v40.58H198.27zM198.27 217.78h287.55v40.58H198.27zM198.27 307.39h366.01v18.53H198.27zM198.27 346.62h331.14v18.53H198.27zM198.27 385.86h382v18.53h-382zM198.27 425.09H434.6v18.53H198.27zM738.12 63.76h384.03v18.53H738.12zM738.12 102.99h354.3v18.53h-354.3zM738.12 142.23h364.48v18.53H738.12zM738.12 181.46h336.53v18.53H738.12zM738.12 221.41h110.59v100.6H738.12zM874.83 221.41h110.59v100.6H874.83zM1011.55 221.41h110.59v100.6h-110.59zM738.12 343.44h110.59v100.6H738.12zM661.09 63.66h7.45v380.37h-7.45zM874.83 343.44h110.59v100.6H874.83zM1011.55 343.44h110.59v100.6h-110.59z" class="cls-4"/>
</svg>
