<svg width="115" height="85" viewBox="0 0 115 85" fill="none" xmlns="http://www.w3.org/2000/svg">
<path d="M19.4194 37.931L15.8514 28.1798C15.6757 27.7473 15.4932 27.2337 15.304 26.639C15.1148 26.0444 14.9256 25.4024 14.7364 24.7131C14.5607 25.4024 14.3782 26.0511 14.189 26.6593C13.9998 27.254 13.8173 27.7743 13.6416 28.2203L10.0939 37.931H19.4194ZM29.049 49H24.8322C24.3592 49 23.974 48.8851 23.6767 48.6554C23.3794 48.4121 23.1564 48.1148 23.0077 47.7634L20.8182 41.7829H8.67477L6.4853 47.7634C6.37718 48.0742 6.1677 48.358 5.85685 48.6148C5.546 48.8716 5.16081 49 4.70129 49H0.443991L11.9793 19.6854H17.534L29.049 49ZM42.2805 40.1205C40.8344 40.1881 39.618 40.3165 38.6314 40.5057C37.6448 40.6814 36.8542 40.9111 36.2595 41.1949C35.6648 41.4788 35.2391 41.8099 34.9823 42.1883C34.7255 42.5667 34.5971 42.979 34.5971 43.425C34.5971 44.3035 34.8539 44.9319 35.3675 45.3103C35.8946 45.6888 36.5771 45.878 37.415 45.878C38.4422 45.878 39.3275 45.6955 40.0708 45.3306C40.8276 44.9522 41.5642 44.3845 42.2805 43.6277V40.1205ZM30.8061 31.0991C33.1983 28.9096 36.077 27.8149 39.4423 27.8149C40.6587 27.8149 41.7467 28.0176 42.7063 28.423C43.6658 28.815 44.4768 29.3691 45.139 30.0854C45.8013 30.7882 46.3013 31.6329 46.6392 32.6195C46.9906 33.6061 47.1663 34.6874 47.1663 35.8632V49H44.8957C44.4227 49 44.0578 48.9324 43.801 48.7973C43.5442 48.6486 43.3415 48.358 43.1928 47.9255L42.7468 46.4253C42.2197 46.8984 41.7061 47.3174 41.2061 47.6823C40.706 48.0337 40.1857 48.331 39.6451 48.5743C39.1045 48.8175 38.5233 49 37.9016 49.1216C37.2934 49.2568 36.6176 49.3244 35.8743 49.3244C34.9958 49.3244 34.1849 49.2095 33.4416 48.9797C32.6982 48.7365 32.0563 48.3783 31.5156 47.9053C30.975 47.4322 30.5561 46.8443 30.2587 46.1415C29.9614 45.4387 29.8127 44.6211 29.8127 43.6885C29.8127 43.1614 29.9006 42.6411 30.0763 42.1275C30.252 41.6004 30.5358 41.1003 30.9277 40.6273C31.3332 40.1543 31.8535 39.7083 32.4887 39.2893C33.124 38.8703 33.9011 38.5054 34.8201 38.1946C35.7527 37.8837 36.8339 37.6337 38.0638 37.4445C39.2937 37.2417 40.6992 37.1201 42.2805 37.0796V35.8632C42.2805 34.4711 41.9832 33.444 41.3885 32.7817C40.7939 32.1059 39.9356 31.7681 38.8139 31.7681C38.003 31.7681 37.3272 31.8627 36.7866 32.0519C36.2595 32.2411 35.7932 32.4573 35.3878 32.7006C34.9823 32.9304 34.6106 33.1399 34.2728 33.3291C33.9484 33.5183 33.5835 33.6129 33.178 33.6129C32.8266 33.6129 32.5293 33.525 32.286 33.3493C32.0427 33.1601 31.8468 32.9439 31.6981 32.7006L30.8061 31.0991Z" fill="black"/>
<path d="M7.36699 72H5.20699V59.58H0.926992V57.72H11.647V59.58H7.36699V72ZM11.5659 61.22H13.8459L16.0859 67.34C16.2059 67.6467 16.3126 67.9467 16.4059 68.24C16.4992 68.5333 16.5792 68.8267 16.6459 69.12C16.7259 69.4 16.7859 69.68 16.8259 69.96H16.9059C16.9726 69.6133 17.0792 69.2067 17.2259 68.74C17.3726 68.26 17.5259 67.7867 17.6859 67.32L19.8059 61.22H22.0859L17.4659 73.46C17.2126 74.1533 16.8992 74.7467 16.5259 75.24C16.1526 75.7467 15.7059 76.1333 15.1859 76.4C14.6792 76.6667 14.0792 76.8 13.3859 76.8C13.0526 76.8 12.7659 76.78 12.5259 76.74C12.2859 76.7133 12.0792 76.68 11.9059 76.64V74.96C12.0526 74.9867 12.2259 75.0133 12.4259 75.04C12.6392 75.0667 12.8592 75.08 13.0859 75.08C13.4992 75.08 13.8526 75 14.1459 74.84C14.4526 74.68 14.7059 74.4533 14.9059 74.16C15.1192 73.8667 15.2992 73.5333 15.4459 73.16L15.8859 72L11.5659 61.22ZM29.1328 61.02C30.4261 61.02 31.4661 61.4867 32.2528 62.42C33.0528 63.3533 33.4528 64.7467 33.4528 66.6C33.4528 67.8133 33.2728 68.84 32.9128 69.68C32.5528 70.52 32.0461 71.1533 31.3928 71.58C30.7394 71.9933 29.9794 72.2 29.1128 72.2C28.5661 72.2 28.0861 72.1333 27.6728 72C27.2594 71.8533 26.9061 71.6667 26.6128 71.44C26.3328 71.2 26.0861 70.9467 25.8728 70.68H25.7328C25.7728 70.92 25.8061 71.2067 25.8328 71.54C25.8594 71.86 25.8728 72.1467 25.8728 72.4V76.8H23.7528V61.22H25.4728L25.7728 62.66H25.8728C26.0861 62.3667 26.3394 62.0933 26.6328 61.84C26.9261 61.5867 27.2794 61.3867 27.6928 61.24C28.1061 61.0933 28.5861 61.02 29.1328 61.02ZM28.6328 62.76C27.9661 62.76 27.4328 62.8933 27.0328 63.16C26.6328 63.4133 26.3394 63.8 26.1528 64.32C25.9794 64.8267 25.8861 65.4733 25.8728 66.26V66.58C25.8728 67.4067 25.9594 68.1133 26.1328 68.7C26.3061 69.2733 26.5928 69.7133 26.9928 70.02C27.4061 70.3133 27.9661 70.46 28.6728 70.46C29.2728 70.46 29.7594 70.3 30.1328 69.98C30.5194 69.6467 30.8061 69.1867 30.9928 68.6C31.1794 68.0133 31.2728 67.3333 31.2728 66.56C31.2728 65.3867 31.0594 64.46 30.6328 63.78C30.2061 63.1 29.5394 62.76 28.6328 62.76ZM45.6551 66.6C45.6551 67.4933 45.5351 68.2867 45.2951 68.98C45.0551 69.6733 44.7151 70.26 44.2751 70.74C43.8351 71.22 43.3018 71.5867 42.6751 71.84C42.0485 72.08 41.3418 72.2 40.5551 72.2C39.8351 72.2 39.1685 72.08 38.5551 71.84C37.9418 71.5867 37.4085 71.22 36.9551 70.74C36.5151 70.26 36.1685 69.6733 35.9151 68.98C35.6618 68.2867 35.5351 67.4867 35.5351 66.58C35.5351 65.3933 35.7351 64.3867 36.1351 63.56C36.5485 62.7333 37.1351 62.1067 37.8951 61.68C38.6685 61.24 39.5751 61.02 40.6151 61.02C41.6018 61.02 42.4685 61.24 43.2151 61.68C43.9751 62.1067 44.5685 62.7333 44.9951 63.56C45.4351 64.3867 45.6551 65.4 45.6551 66.6ZM37.7151 66.6C37.7151 67.4 37.8151 68.0933 38.0151 68.68C38.2151 69.2533 38.5285 69.6933 38.9551 70C39.3818 70.3067 39.9285 70.46 40.5951 70.46C41.2618 70.46 41.8085 70.3067 42.2351 70C42.6618 69.6933 42.9751 69.2533 43.1751 68.68C43.3751 68.0933 43.4751 67.4 43.4751 66.6C43.4751 65.7733 43.3685 65.08 43.1551 64.52C42.9551 63.96 42.6418 63.5333 42.2151 63.24C41.8018 62.9333 41.2551 62.78 40.5751 62.78C39.5751 62.78 38.8485 63.1133 38.3951 63.78C37.9418 64.4467 37.7151 65.3867 37.7151 66.6ZM52.0626 61.02C52.756 61.02 53.3826 61.1533 53.9426 61.42C54.5026 61.6867 54.976 62.0933 55.3626 62.64H55.4626L55.7026 61.22H57.4226V72.14C57.4226 73.1533 57.2426 74.0067 56.8826 74.7C56.5226 75.3933 55.9693 75.9133 55.2226 76.26C54.4893 76.62 53.5626 76.8 52.4426 76.8C51.6693 76.8 50.956 76.7467 50.3026 76.64C49.6493 76.5333 49.0493 76.3667 48.5026 76.14V74.28C48.8893 74.4667 49.296 74.62 49.7226 74.74C50.1493 74.8733 50.6026 74.9667 51.0826 75.02C51.5626 75.0867 52.056 75.12 52.5626 75.12C53.4426 75.12 54.1226 74.8667 54.6026 74.36C55.0826 73.8667 55.3226 73.1667 55.3226 72.26V71.9C55.3226 71.7267 55.3293 71.5 55.3426 71.22C55.356 70.9267 55.3693 70.7133 55.3826 70.58H55.3026C54.9293 71.14 54.4693 71.5533 53.9226 71.82C53.3893 72.0733 52.7693 72.2 52.0626 72.2C50.7026 72.2 49.636 71.7133 48.8626 70.74C48.1026 69.7533 47.7226 68.3867 47.7226 66.64C47.7226 65.4667 47.896 64.4667 48.2426 63.64C48.5893 62.8 49.0826 62.1533 49.7226 61.7C50.376 61.2467 51.156 61.02 52.0626 61.02ZM52.5026 62.78C51.9426 62.78 51.4693 62.9333 51.0826 63.24C50.696 63.5333 50.4026 63.9667 50.2026 64.54C50.0026 65.1133 49.9026 65.82 49.9026 66.66C49.9026 67.9133 50.1226 68.8667 50.5626 69.52C51.016 70.1733 51.676 70.5 52.5426 70.5C53.0493 70.5 53.476 70.4333 53.8226 70.3C54.1826 70.1667 54.476 69.96 54.7026 69.68C54.9426 69.4 55.116 69.0467 55.2226 68.62C55.3426 68.18 55.4026 67.6533 55.4026 67.04V66.64C55.4026 65.72 55.296 64.98 55.0826 64.42C54.8826 63.8467 54.5693 63.4333 54.1426 63.18C53.716 62.9133 53.1693 62.78 52.5026 62.78ZM66.065 61.02C66.2516 61.02 66.4583 61.0333 66.685 61.06C66.9116 61.0733 67.0983 61.0933 67.245 61.12L67.025 63.1C66.8783 63.06 66.705 63.0267 66.505 63C66.305 62.9733 66.1183 62.96 65.945 62.96C65.545 62.96 65.1583 63.04 64.785 63.2C64.425 63.3467 64.0983 63.5667 63.805 63.86C63.5116 64.14 63.2783 64.4867 63.105 64.9C62.945 65.3133 62.865 65.7867 62.865 66.32V72H60.745V61.22H62.425L62.705 63.14H62.785C63.0116 62.7533 63.285 62.4 63.605 62.08C63.925 61.76 64.2916 61.5067 64.705 61.32C65.1183 61.12 65.5716 61.02 66.065 61.02ZM73.0304 61.02C74.3904 61.02 75.4038 61.32 76.0704 61.92C76.7371 62.5067 77.0704 63.4333 77.0704 64.7V72H75.5704L75.1504 70.5H75.0704C74.7638 70.8867 74.4438 71.2067 74.1104 71.46C73.7904 71.7133 73.4171 71.9 72.9904 72.02C72.5771 72.14 72.0704 72.2 71.4704 72.2C70.8304 72.2 70.2504 72.0867 69.7304 71.86C69.2238 71.62 68.8238 71.26 68.5304 70.78C68.2371 70.2867 68.0904 69.6733 68.0904 68.94C68.0904 67.8467 68.5038 67.0133 69.3304 66.44C70.1704 65.8667 71.4438 65.5533 73.1504 65.5L74.9904 65.44V64.84C74.9904 64.04 74.8104 63.48 74.4504 63.16C74.0904 62.84 73.5838 62.68 72.9304 62.68C72.3704 62.68 71.8371 62.76 71.3304 62.92C70.8238 63.08 70.3438 63.2733 69.8904 63.5L69.2104 61.96C69.7171 61.6933 70.2971 61.4733 70.9504 61.3C71.6171 61.1133 72.3104 61.02 73.0304 61.02ZM73.5304 66.86C72.3038 66.9133 71.4504 67.12 70.9704 67.48C70.5038 67.8267 70.2704 68.32 70.2704 68.96C70.2704 69.52 70.4371 69.9267 70.7704 70.18C71.1171 70.4333 71.5504 70.56 72.0704 70.56C72.9104 70.56 73.6038 70.3267 74.1504 69.86C74.6971 69.3933 74.9704 68.6933 74.9704 67.76V66.82L73.5304 66.86ZM85.7148 61.02C87.0081 61.02 88.0481 61.4867 88.8348 62.42C89.6348 63.3533 90.0348 64.7467 90.0348 66.6C90.0348 67.8133 89.8548 68.84 89.4948 69.68C89.1348 70.52 88.6281 71.1533 87.9748 71.58C87.3215 71.9933 86.5615 72.2 85.6948 72.2C85.1481 72.2 84.6681 72.1333 84.2548 72C83.8415 71.8533 83.4881 71.6667 83.1948 71.44C82.9148 71.2 82.6681 70.9467 82.4548 70.68H82.3148C82.3548 70.92 82.3881 71.2067 82.4148 71.54C82.4415 71.86 82.4548 72.1467 82.4548 72.4V76.8H80.3348V61.22H82.0548L82.3548 62.66H82.4548C82.6681 62.3667 82.9215 62.0933 83.2148 61.84C83.5081 61.5867 83.8615 61.3867 84.2748 61.24C84.6881 61.0933 85.1681 61.02 85.7148 61.02ZM85.2148 62.76C84.5481 62.76 84.0148 62.8933 83.6148 63.16C83.2148 63.4133 82.9215 63.8 82.7348 64.32C82.5615 64.8267 82.4681 65.4733 82.4548 66.26V66.58C82.4548 67.4067 82.5415 68.1133 82.7148 68.7C82.8881 69.2733 83.1748 69.7133 83.5748 70.02C83.9881 70.3133 84.5481 70.46 85.2548 70.46C85.8548 70.46 86.3415 70.3 86.7148 69.98C87.1015 69.6467 87.3881 69.1867 87.5748 68.6C87.7615 68.0133 87.8548 67.3333 87.8548 66.56C87.8548 65.3867 87.6415 64.46 87.2148 63.78C86.7881 63.1 86.1215 62.76 85.2148 62.76ZM94.8571 60.86C94.8571 61.1933 94.8438 61.5267 94.8171 61.86C94.7905 62.1933 94.7638 62.4667 94.7371 62.68H94.8771C95.1038 62.3067 95.3838 62 95.7171 61.76C96.0638 61.52 96.4438 61.34 96.8571 61.22C97.2838 61.1 97.7171 61.04 98.1571 61.04C99.0105 61.04 99.7238 61.18 100.297 61.46C100.884 61.7267 101.324 62.1533 101.617 62.74C101.924 63.3133 102.077 64.06 102.077 64.98V72H99.9771V65.28C99.9771 64.44 99.7971 63.8133 99.4371 63.4C99.0905 62.9733 98.5305 62.76 97.7571 62.76C97.0238 62.76 96.4438 62.9067 96.0171 63.2C95.6038 63.4933 95.3038 63.9267 95.1171 64.5C94.9438 65.06 94.8571 65.7533 94.8571 66.58V72H92.7371V56.8H94.8571V60.86ZM103.695 61.22H105.975L108.215 67.34C108.335 67.6467 108.441 67.9467 108.535 68.24C108.628 68.5333 108.708 68.8267 108.775 69.12C108.855 69.4 108.915 69.68 108.955 69.96H109.035C109.101 69.6133 109.208 69.2067 109.355 68.74C109.501 68.26 109.655 67.7867 109.815 67.32L111.935 61.22H114.215L109.595 73.46C109.341 74.1533 109.028 74.7467 108.655 75.24C108.281 75.7467 107.835 76.1333 107.315 76.4C106.808 76.6667 106.208 76.8 105.515 76.8C105.181 76.8 104.895 76.78 104.655 76.74C104.415 76.7133 104.208 76.68 104.035 76.64V74.96C104.181 74.9867 104.355 75.0133 104.555 75.04C104.768 75.0667 104.988 75.08 105.215 75.08C105.628 75.08 105.981 75 106.275 74.84C106.581 74.68 106.835 74.4533 107.035 74.16C107.248 73.8667 107.428 73.5333 107.575 73.16L108.015 72L103.695 61.22Z" fill="black"/>
<line x1="114.667" y1="0.5" x2="0.666992" y2="0.5" stroke="#6584A6"/>
<line x1="114.667" y1="24.5" x2="0.666992" y2="24.5" stroke="#6584A6"/>
<line x1="114.667" y1="49" x2="0.666992" y2="49" stroke="#6584A6" stroke-width="2"/>
<line x1="114.667" y1="72.5" x2="0.666992" y2="72.5" stroke="#6584A6"/>
</svg>
