<svg width="65" height="66" viewBox="0 0 65 66" fill="none" xmlns="http://www.w3.org/2000/svg">
<g clip-path="url(#clip0_8021_16708)">
<path d="M65 3.50171C65 1.68255 63.52 0.202576 61.7009 0.202576H34.7462C33.879 0.202576 33.0895 0.539368 32.5 1.08843C31.9105 0.539368 31.121 0.202576 30.2538 0.202576H3.29914C1.47998 0.202576 0 1.68255 0 3.50171V30.4564C0 31.3235 0.336793 32.1131 0.885853 32.7026C0.336793 33.2921 0 34.0816 0 34.9488V61.9034C0 63.7226 1.47998 65.2026 3.29914 65.2026H30.2538C31.121 65.2026 31.9105 64.8658 32.5 64.3167C33.0895 64.8658 33.879 65.2026 34.7462 65.2026H61.7009C63.52 65.2026 65 63.7226 65 61.9034V34.9488C65 34.0816 64.6632 33.2921 64.1142 32.7026C64.6632 32.1131 65 31.3235 65 30.4564V3.50171ZM34.7462 2.30841H61.7009C62.3589 2.30841 62.8942 2.84371 62.8942 3.50171V30.4564C62.8942 31.1144 62.3589 31.6497 61.7009 31.6497H52.5669C51.991 31.6497 51.5227 31.1812 51.5227 30.6054V30.0825C51.5227 29.7397 51.7161 29.4071 52.0535 29.1703C54.1868 27.6717 55.2358 25.133 54.7911 22.5446C54.3357 19.8939 52.2696 17.7453 49.6495 17.198C47.6387 16.778 45.5866 17.2675 44.0202 18.5406C42.4536 19.8138 41.5551 21.7009 41.5551 23.7177C41.5551 25.9028 42.6312 27.9515 44.4336 29.1981C44.7456 29.4137 44.9244 29.7332 44.9244 30.0746V30.6053C44.9244 31.1812 44.4559 31.6495 43.8802 31.6495H33.5529V21.3222C33.5529 19.5854 32.1399 18.1723 30.4029 18.1723H29.8722C28.8446 18.1723 27.8693 18.6953 27.2635 19.5712C26.4102 20.805 25.009 21.5417 23.5151 21.5417C22.1351 21.5417 20.8438 20.9266 19.9721 19.8541C19.0878 18.766 18.7628 17.3914 19.0568 15.9834C19.4229 14.2301 20.9205 12.7922 22.6985 12.4869C24.4769 12.181 26.2184 12.8992 27.2441 14.3595C27.8809 15.2659 28.8415 15.7857 29.8798 15.7857H30.4029C32.1399 15.7857 33.5529 14.3727 33.5529 12.6357V3.50171C33.5529 2.84371 34.0882 2.30841 34.7462 2.30841ZM2.10583 3.50171C2.10583 2.84371 2.64113 2.30841 3.29914 2.30841H30.2538C30.9118 2.30841 31.4471 2.84371 31.4471 3.50171V12.6357C31.4471 13.2116 30.9787 13.6799 30.4029 13.6799H29.8798C29.537 13.6799 29.2044 13.4864 28.9675 13.1492C27.4692 11.0159 24.9309 9.96619 22.342 10.4115C19.6912 10.8666 17.5426 12.9329 16.9953 15.553C16.5753 17.564 17.0647 19.6158 18.3379 21.1824C19.6112 22.749 21.4982 23.6475 23.5151 23.6475C25.7003 23.6475 27.7491 22.5714 28.9955 20.769C29.2113 20.457 29.5308 20.2782 29.8722 20.2782H30.4029C30.9787 20.2782 31.4471 20.7466 31.4471 21.3224V31.6497H21.1198C19.3828 31.6497 17.9698 33.0627 17.9698 34.7997V35.3304C17.9698 36.3582 18.4927 37.3334 19.3686 37.9391C20.6025 38.7924 21.3391 40.1936 21.3391 41.6875C21.3391 43.0675 20.7241 44.3589 19.6515 45.2304C18.5635 46.1146 17.1889 46.4399 15.7807 46.1456C14.0275 45.7797 12.5896 44.2821 12.2842 42.504C11.9788 40.7259 12.6963 38.9841 14.1568 37.9583C15.0632 37.3216 15.583 36.361 15.583 35.3228V34.7998C15.5832 33.0627 14.1701 31.6497 12.4331 31.6497H3.29914C2.64113 31.6497 2.10583 31.1144 2.10583 30.4564V3.50171ZM30.2538 63.0967H3.29914C2.64113 63.0967 2.10583 62.5614 2.10583 61.9034V34.9488C2.10583 34.2908 2.64113 33.7555 3.29914 33.7555H12.4331C13.009 33.7555 13.4773 34.224 13.4773 34.7997V35.3227C13.4773 35.6655 13.2839 35.9981 12.9465 36.2349C10.8132 37.7334 9.76418 40.2721 10.2088 42.8603C10.6642 45.5112 12.7305 47.6599 15.3502 48.207C15.8225 48.3055 16.2967 48.3541 16.7666 48.3541C18.298 48.3541 19.7809 47.8389 20.9796 46.8647C22.5464 45.5915 23.4449 43.7044 23.4449 41.6875C23.4449 39.5023 22.3687 37.4535 20.5663 36.2071C20.2544 35.9915 20.0756 35.6719 20.0756 35.3305V34.7998C20.0756 34.224 20.5439 33.7556 21.1198 33.7556H31.4471V44.0829C31.4471 45.8198 32.8602 47.2328 34.5971 47.2328H35.1201C36.1584 47.2328 37.1191 46.713 37.7556 45.8065C38.7816 44.346 40.5232 43.6286 42.3014 43.934C44.0795 44.2394 45.5771 45.6773 45.9431 47.4306C46.2372 48.8386 45.912 50.2133 45.0277 51.3013C44.1562 52.3737 42.8649 52.9888 41.4849 52.9888C39.991 52.9888 38.5898 52.2521 37.7365 51.0181C37.1307 50.1424 36.1556 49.6194 35.1278 49.6194H34.5971C32.8602 49.6194 31.4471 51.0324 31.4471 52.7695V61.9034C31.4471 62.5614 30.9118 63.0967 30.2538 63.0967ZM62.8942 61.9034C62.8942 62.5614 62.3589 63.0967 61.7009 63.0967H34.7462C34.0882 63.0967 33.5529 62.5614 33.5529 61.9034V52.7695C33.5529 52.1936 34.0214 51.7253 34.5971 51.7253H35.1278C35.4692 51.7253 35.7887 51.9041 36.0044 52.2159C37.2509 54.0185 39.2997 55.0946 41.4849 55.0946C43.5017 55.0946 45.3888 54.1961 46.662 52.6294C47.9352 51.063 48.4244 49.0113 48.0045 47C47.4574 44.3801 45.3089 42.3139 42.6581 41.8584C40.0695 41.4126 37.531 42.4627 36.0325 44.596C35.7955 44.9334 35.463 45.1268 35.1201 45.1268H34.5971C34.0213 45.1268 33.5529 44.6584 33.5529 44.0826V33.7555H43.8802C45.6171 33.7555 47.0302 32.3425 47.0302 30.6054V30.0748C47.0302 29.047 46.5073 28.0717 45.6314 27.4661C44.3975 26.6128 43.6609 25.2116 43.6609 23.7177C43.6609 22.3377 44.276 21.0464 45.3484 20.1748C46.4364 19.2904 47.8112 18.9655 49.219 19.2594C50.9724 19.6255 52.4102 21.123 52.7157 22.9011C53.0212 24.6791 52.3037 26.421 50.8431 27.4468C49.9367 28.0836 49.4168 29.0442 49.4168 30.0825V30.6054C49.4168 32.3425 50.83 33.7555 52.5669 33.7555H61.7009C62.3589 33.7555 62.8942 34.2908 62.8942 34.9488V61.9034Z" fill="black"/>
</g>
<defs>
<clipPath id="clip0_8021_16708">
<rect width="65" height="65" fill="white" transform="translate(0 0.202576)"/>
</clipPath>
</defs>
</svg>
