<svg width="50" height="66" viewBox="0 0 46 61" fill="none" xmlns="http://www.w3.org/2000/svg">
<path d="M36.32 31.1401C37.9442 31.1401 39.4365 31.8863 40.4142 33.1873C40.5919 33.4235 40.8693 33.5617 41.1641 33.5617H44.7969C45.3151 33.5617 45.7344 33.1424 45.7344 32.6242V15.6714C45.7344 15.1532 45.3151 14.7339 44.7969 14.7339H27.5703V12.4863C29.1148 11.1552 29.9919 9.2527 29.9919 7.19451C29.9919 3.33923 26.8553 0.202637 23 0.202637C19.1438 0.202637 16.0072 3.33923 16.0072 7.19451C16.0072 9.2527 16.8843 11.156 18.4297 12.4873V14.7339H1.20313C0.684969 14.7339 0.265625 15.1532 0.265625 15.6714V32.6242C0.265625 33.1424 0.684969 33.5617 1.20313 33.5617H4.83594C5.13078 33.5617 5.40819 33.4226 5.58576 33.1873C6.56264 31.8863 8.05494 31.1401 9.67906 31.1401C12.5008 31.1401 14.7969 33.4354 14.7969 36.257C14.7969 39.0787 12.5008 41.374 9.67906 41.374C8.05494 41.374 6.56264 40.6278 5.58576 39.3269C5.40819 39.0915 5.13078 38.9523 4.83594 38.9523H1.20313C0.68497 38.9523 0.265626 39.3717 0.265626 39.8898V59.2651C0.265626 59.7834 0.68497 60.2026 1.20313 60.2026H19.3672C19.8855 60.2026 20.3047 59.7834 20.3047 59.2651V56.8427C20.3047 56.5479 20.1656 56.2705 19.9303 56.0928C18.6283 55.116 17.8822 53.6237 17.8822 51.9995C17.8822 49.1779 20.1784 46.8818 23 46.8818C25.8217 46.8818 28.1169 49.1779 28.1169 51.9995C28.1169 53.6237 27.3707 55.116 26.0697 56.0928C25.8336 56.2705 25.6953 56.5479 25.6953 56.8427V59.2651C25.6953 59.7834 26.1147 60.2026 26.6328 60.2026H44.7969C45.3151 60.2026 45.7344 59.7834 45.7344 59.2651V39.8898C45.7344 39.3717 45.3151 38.9523 44.7969 38.9523H41.1641C40.8693 38.9523 40.5919 39.0906 40.4142 39.3269C39.4365 40.6278 37.9442 41.374 36.32 41.374C33.4984 41.374 31.2031 39.0787 31.2031 36.257C31.2031 33.4354 33.4984 31.1401 36.32 31.1401ZM29.3281 36.257C29.3281 40.1123 32.4647 43.249 36.32 43.249C38.379 43.249 40.2815 42.3719 41.6127 40.8273H43.8594V58.3276H27.5703V57.2913C29.1148 55.961 29.9919 54.0576 29.9919 51.9995C29.9919 48.1434 26.8553 45.0068 23 45.0068C19.1438 45.0068 16.0072 48.1434 16.0072 51.9995C16.0072 54.0576 16.8843 55.961 18.4297 57.2913V58.3276H2.14063V40.8273H4.38734C5.71766 42.3719 7.62013 43.249 9.67906 43.249C13.5353 43.249 16.6719 40.1123 16.6719 36.257C16.6719 32.4017 13.5353 29.2651 9.67906 29.2651C7.62014 29.2651 5.71766 30.1423 4.38734 31.6867H2.14063V16.6089H19.3672C19.8855 16.6089 20.3047 16.1896 20.3047 15.6714V12.0386C20.3047 11.7438 20.1665 11.4664 19.9303 11.2888C18.6283 10.311 17.8822 8.81873 17.8822 7.19451C17.8822 4.37292 20.1784 2.07764 23 2.07764C25.8217 2.07764 28.1169 4.37292 28.1169 7.19451C28.1169 8.81873 27.3707 10.311 26.0697 11.2897C25.8336 11.4664 25.6953 11.7438 25.6953 12.0386V15.6714C25.6953 16.1896 26.1147 16.6089 26.6328 16.6089H43.8594V31.6867H41.6127C40.2815 30.1423 38.379 29.2651 36.32 29.2651C32.4647 29.2651 29.3281 32.4017 29.3281 36.257Z" fill="black"/>
</svg>
