<svg width="65" height="66" viewBox="0 0 65 66" fill="none" xmlns="http://www.w3.org/2000/svg">
<g clip-path="url(#clip0_8021_16700)">
<path d="M59.7766 18.5562L51.8605 11.7949C51.6472 11.6124 51.3754 11.5121 51.0946 11.5121H38.1366V6.34835C38.1366 6.25061 38.1245 6.15574 38.101 6.06474C37.7896 2.76095 35.001 0.202637 31.6621 0.202637C28.3248 0.202637 25.5375 2.75741 25.2232 6.05834C25.1998 6.15119 25.1873 6.24825 25.1873 6.34835V11.5121H19.4303C18.7791 11.5121 18.2508 12.0403 18.2508 12.6917V26.5447C18.2508 27.1962 18.7791 27.7243 19.4303 27.7243H25.1873V30.3124H13.9061C13.6692 30.3124 13.4378 30.3839 13.242 30.5173L5.3256 35.9101C5.00695 36.1272 4.81485 36.4863 4.81013 36.8718C4.80592 37.2574 4.9901 37.6205 5.30386 37.8446L13.2201 43.5015C13.4203 43.6445 13.6597 43.7214 13.9059 43.7214H25.1871V62.8435H12.5333C11.8816 62.8435 11.3537 63.3714 11.3537 64.0231C11.3537 64.6744 11.8816 65.2026 12.5333 65.2026H26.3669H36.957H50.79C51.4413 65.2026 51.9695 64.6744 51.9695 64.0231C51.9695 63.3714 51.4413 62.8435 50.79 62.8435H38.1366V43.7216H45.57C46.2217 43.7216 46.7496 43.1934 46.7496 42.542V31.4921C46.7496 30.8409 46.2217 30.3126 45.57 30.3126H38.1366V27.7244H51.0946C51.385 27.7244 51.6654 27.6173 51.8816 27.4235L59.7975 20.3318C60.0509 20.1048 60.1941 19.7796 60.1898 19.4393C60.1859 19.099 60.0352 18.7771 59.7766 18.5562ZM27.5464 6.54618C27.5533 6.50523 27.5582 6.46344 27.5609 6.42097C27.6942 4.25697 29.4959 2.56177 31.6621 2.56177C33.8281 2.56177 35.6293 4.25697 35.763 6.42097C35.7657 6.46293 35.7705 6.50422 35.7775 6.54466V11.512H27.5464V6.54618ZM35.7775 62.8435H27.5464V43.7216H35.7775V62.8435ZM44.3905 32.6717V41.3624H14.2842L8.05107 36.9082L14.2697 32.6715H44.3905V32.6717ZM27.5464 30.3126V27.7244H35.7775V30.3126H27.5464ZM50.6435 25.3651H22.2952H20.6101V13.8713H50.6594L52.6324 15.5564L57.2194 19.4742L50.6435 25.3651Z" fill="black"/>
</g>
<defs>
<clipPath id="clip0_8021_16700">
<rect width="65" height="65" fill="white" transform="translate(0 0.202637)"/>
</clipPath>
</defs>
</svg>
