<svg width="60" height="60" viewBox="0 0 60 60" fill="none" xmlns="http://www.w3.org/2000/svg">
<path fill-rule="evenodd" clip-rule="evenodd" d="M53.8524 8.14158C52.8924 8.14158 51.9878 7.77235 51.3047 7.08927C50.8801 6.68312 50.5847 6.18466 50.4185 5.64927H40.2647C47.6124 8.97235 53.077 15.7662 54.5539 23.9262H52.3016C50.4924 14.9354 43.3847 7.8462 34.3939 6.07389V7.82773C34.3939 8.10466 34.2647 8.40004 34.0616 8.60312C33.8585 8.82466 33.5816 8.93543 33.2862 8.93543H26.6955C26.4001 8.93543 26.1231 8.8062 25.9201 8.60312C25.717 8.4185 25.5878 8.14158 25.5878 7.82773V6.07389C16.597 7.8462 9.47084 14.9354 7.68007 23.9262H5.42776C6.90468 15.7847 12.3693 8.99081 19.717 5.64927H9.56314C9.08314 7.08927 7.73545 8.14158 6.1293 8.14158C5.1693 8.14158 4.26468 7.77235 3.5816 7.07081C2.89853 6.38773 2.5293 5.48312 2.5293 4.52312C2.5293 3.56312 2.89853 2.6585 3.5816 1.97543C4.26468 1.29235 5.1693 0.923119 6.1293 0.923119C7.10776 0.923119 8.01237 1.31081 8.69545 1.99389C9.12007 2.40004 9.41545 2.8985 9.58161 3.43389H25.6062V1.23696C25.6062 0.960042 25.7355 0.664657 25.9385 0.46158C26.1416 0.240042 26.4185 0.129272 26.7139 0.129272H33.3047C33.9139 0.129272 34.4124 0.627734 34.4124 1.23696V3.41543H50.437C50.917 1.97543 52.2647 0.923119 53.8708 0.923119C54.8308 0.923119 55.7355 1.31081 56.4001 1.99389C57.0831 2.67696 57.4524 3.58158 57.4524 4.54158C57.4524 6.51697 55.8462 8.14158 53.8524 8.14158ZM54.8308 3.56312C54.5724 3.30466 54.2216 3.15697 53.8524 3.15697C53.0955 3.15697 52.4678 3.7662 52.4678 4.54158C52.4678 4.91081 52.6155 5.26158 52.8739 5.52004C53.1324 5.7785 53.4831 5.9262 53.8524 5.9262C54.6093 5.9262 55.237 5.31697 55.237 4.54158C55.237 4.17235 55.0893 3.82158 54.8308 3.56312ZM5.15084 5.52004C5.4093 5.7785 5.76007 5.9262 6.1293 5.9262C6.88622 5.9262 7.51391 5.31697 7.51391 4.54158C7.51391 4.17235 7.36622 3.82158 7.10776 3.56312C6.8493 3.30466 6.49853 3.15697 6.1293 3.15697C5.76007 3.15697 5.4093 3.30466 5.15084 3.56312C4.89237 3.82158 4.74468 4.17235 4.74468 4.54158C4.74468 4.91081 4.89237 5.26158 5.15084 5.52004ZM32.1785 4.7262V4.52312V2.34466H27.8031V4.54158V6.72004H32.1785V4.74466V4.7262ZM43.1816 37.92C43.2185 37.9569 43.2555 37.9938 43.2739 38.0307V38.0492C43.3478 38.1784 43.4032 38.3446 43.4032 38.5292C43.4032 39.0461 42.997 39.4523 42.4801 39.4523C39.3232 39.4523 36.7386 42.0184 36.7386 45.1938V49.4769H38.3078C38.8247 49.4769 39.2309 49.883 39.2309 50.4V58.5969C39.2309 59.1138 38.8247 59.52 38.3078 59.52H21.6555C21.1385 59.52 20.7324 59.1138 20.7324 58.5969V50.4C20.7324 49.883 21.1385 49.4769 21.6555 49.4769H23.2062V45.1569C23.2062 42 20.6401 39.4153 17.4647 39.4153C16.9478 39.4153 16.5416 39.0092 16.5416 38.4923C16.5416 38.16 16.7078 37.883 16.9478 37.7169C20.1232 34.3384 23.4647 28.9107 26.1232 22.8C27.3047 20.0861 28.3016 17.3723 29.0955 14.7138C29.1139 14.7138 29.1139 14.6953 29.1139 14.6953C29.2247 14.3077 29.557 14.0492 29.9816 14.0492C30.3878 14.0492 30.7386 14.3261 30.8493 14.6953C30.8678 14.6953 30.8678 14.7138 30.8678 14.7138V14.7323C30.8678 14.7415 30.8724 14.7553 30.877 14.7692C30.8816 14.783 30.8862 14.7969 30.8862 14.8061C31.6801 17.4461 32.677 20.1415 33.8401 22.8184C36.5355 29.0215 39.9324 34.5046 43.1447 37.883L43.1816 37.92ZM30.9601 35.3907C30.9601 34.8554 30.5355 34.4307 30.0001 34.4307C29.4647 34.4307 29.0401 34.8554 29.0401 35.3907C29.0401 35.9261 29.4647 36.3507 30.0001 36.3507C30.5355 36.3507 30.9601 35.9261 30.9601 35.3907ZM22.597 51.3046V57.6738H37.4032V51.3046H22.597ZM34.9293 49.4769V45.1754C34.9293 41.6307 37.3662 38.6584 40.6524 37.8277C37.6616 34.3015 34.6155 29.2061 32.1786 23.5569C31.7355 22.5415 31.3109 21.5077 30.9232 20.4923V32.7692C32.0124 33.1384 32.8062 34.1907 32.8062 35.4092C32.8062 36.9415 31.5509 38.2154 30.0001 38.2154C28.4493 38.2154 27.1939 36.96 27.1939 35.4092C27.1939 34.1907 27.9878 33.1569 29.077 32.7692V20.4923C28.6709 21.5077 28.2462 22.5415 27.8032 23.5753C25.3478 29.2061 22.3201 34.283 19.3478 37.8277C22.6155 38.6584 25.0524 41.6307 25.0524 45.1569V49.4769H34.9293Z" fill="white"/>
</svg>
