<svg width="507" height="211" viewBox="0 0 507 211" fill="none" xmlns="http://www.w3.org/2000/svg">
<path d="M49.86 20V5.72H52.42V17.84H58.38V20H49.86ZM63.1361 9.16V20H60.6161V9.16H63.1361ZM61.8761 4.98C62.2494 4.98 62.5761 5.08 62.8561 5.28C63.1361 5.46667 63.2761 5.80667 63.2761 6.3C63.2761 6.78 63.1361 7.12667 62.8561 7.34C62.5761 7.54 62.2494 7.64 61.8761 7.64C61.4894 7.64 61.1561 7.54 60.8761 7.34C60.6094 7.12667 60.4761 6.78 60.4761 6.3C60.4761 5.80667 60.6094 5.46667 60.8761 5.28C61.1561 5.08 61.4894 4.98 61.8761 4.98ZM68.8783 8.4C68.8783 8.82667 68.8649 9.24 68.8383 9.64C68.8116 10.04 68.7849 10.3533 68.7583 10.58H68.8783C69.1716 10.1267 69.5716 9.74667 70.0783 9.44C70.5849 9.12 71.2449 8.96 72.0583 8.96C73.3249 8.96 74.3449 9.43333 75.1183 10.38C75.8916 11.3267 76.2783 12.72 76.2783 14.56C76.2783 15.8 76.0983 16.84 75.7383 17.68C75.3916 18.52 74.8916 19.1533 74.2383 19.58C73.5983 19.9933 72.8516 20.2 71.9983 20.2C71.1849 20.2 70.5316 20.0533 70.0383 19.76C69.5583 19.4667 69.1716 19.1267 68.8783 18.74H68.6983L68.2383 20H66.3583V4.8H68.8783V8.4ZM71.3383 11C70.7249 11 70.2383 11.12 69.8783 11.36C69.5316 11.6 69.2783 11.9667 69.1183 12.46C68.9583 12.9533 68.8783 13.58 68.8783 14.34V14.56C68.8783 15.72 69.0516 16.6067 69.3983 17.22C69.7583 17.8333 70.4183 18.14 71.3783 18.14C72.1249 18.14 72.6983 17.8333 73.0983 17.22C73.4983 16.5933 73.6983 15.7 73.6983 14.54C73.6983 13.3667 73.4916 12.4867 73.0783 11.9C72.6783 11.3 72.0983 11 71.3383 11ZM83.2378 8.96C84.2111 8.96 85.0445 9.16 85.7378 9.56C86.4445 9.94667 86.9911 10.5067 87.3778 11.24C87.7645 11.96 87.9578 12.84 87.9578 13.88V15.16H80.7978C80.8245 16.1467 81.0978 16.9133 81.6178 17.46C82.1378 17.9933 82.8578 18.26 83.7778 18.26C84.4845 18.26 85.1111 18.1933 85.6578 18.06C86.2178 17.9133 86.7911 17.7067 87.3778 17.44V19.46C86.8445 19.7133 86.2911 19.9 85.7178 20.02C85.1445 20.14 84.4578 20.2 83.6578 20.2C82.6045 20.2 81.6645 20 80.8378 19.6C80.0245 19.1867 79.3845 18.5667 78.9178 17.74C78.4645 16.9133 78.2378 15.8867 78.2378 14.66C78.2378 13.42 78.4445 12.38 78.8578 11.54C79.2845 10.6867 79.8711 10.0467 80.6178 9.62C81.3645 9.18 82.2378 8.96 83.2378 8.96ZM83.2378 10.82C82.5711 10.82 82.0245 11.04 81.5978 11.48C81.1845 11.9067 80.9378 12.5467 80.8578 13.4H85.5178C85.5178 12.8933 85.4311 12.4467 85.2578 12.06C85.0978 11.6733 84.8511 11.3733 84.5178 11.16C84.1845 10.9333 83.7578 10.82 83.2378 10.82ZM93.0189 20H90.4989V4.8H93.0189V20ZM98.7611 20H96.2411V4.8H98.7611V20ZM106.343 8.96C107.317 8.96 108.15 9.16 108.843 9.56C109.55 9.94667 110.097 10.5067 110.483 11.24C110.87 11.96 111.063 12.84 111.063 13.88V15.16H103.903C103.93 16.1467 104.203 16.9133 104.723 17.46C105.243 17.9933 105.963 18.26 106.883 18.26C107.59 18.26 108.217 18.1933 108.763 18.06C109.323 17.9133 109.897 17.7067 110.483 17.44V19.46C109.95 19.7133 109.397 19.9 108.823 20.02C108.25 20.14 107.563 20.2 106.763 20.2C105.71 20.2 104.77 20 103.943 19.6C103.13 19.1867 102.49 18.5667 102.023 17.74C101.57 16.9133 101.343 15.8867 101.343 14.66C101.343 13.42 101.55 12.38 101.963 11.54C102.39 10.6867 102.977 10.0467 103.723 9.62C104.47 9.18 105.343 8.96 106.343 8.96ZM106.343 10.82C105.677 10.82 105.13 11.04 104.703 11.48C104.29 11.9067 104.043 12.5467 103.963 13.4H108.623C108.623 12.8933 108.537 12.4467 108.363 12.06C108.203 11.6733 107.957 11.3733 107.623 11.16C107.29 10.9333 106.863 10.82 106.343 10.82ZM109.943 4.88C109.783 5.06667 109.563 5.29333 109.283 5.56C109.017 5.82667 108.717 6.10667 108.383 6.4C108.063 6.69333 107.743 6.97333 107.423 7.24C107.117 7.49333 106.843 7.70667 106.603 7.88H104.923V7.62C105.137 7.36667 105.377 7.07333 105.643 6.74C105.91 6.39333 106.17 6.04 106.423 5.68C106.69 5.30667 106.903 4.97333 107.063 4.68H109.943V4.88ZM122.38 20.2C121.126 20.2 120.106 19.7333 119.32 18.8C118.546 17.8533 118.16 16.4533 118.16 14.6C118.16 12.7467 118.553 11.3467 119.34 10.4C120.126 9.44 121.16 8.96 122.44 8.96C122.973 8.96 123.44 9.03333 123.84 9.18C124.253 9.31333 124.606 9.5 124.9 9.74C125.193 9.98 125.44 10.2467 125.64 10.54H125.76C125.72 10.3533 125.68 10.0667 125.64 9.68C125.6 9.29333 125.58 8.93333 125.58 8.6V4.8H128.1V20H126.14L125.68 18.58H125.58C125.38 18.8733 125.133 19.1467 124.84 19.4C124.546 19.64 124.2 19.8333 123.8 19.98C123.4 20.1267 122.926 20.2 122.38 20.2ZM123.14 18.16C124.073 18.16 124.733 17.8933 125.12 17.36C125.506 16.8267 125.7 16.02 125.7 14.94V14.62C125.7 13.4467 125.513 12.5533 125.14 11.94C124.78 11.3267 124.1 11.02 123.1 11.02C122.34 11.02 121.753 11.34 121.34 11.98C120.926 12.6067 120.72 13.4933 120.72 14.64C120.72 15.7867 120.926 16.66 121.34 17.26C121.753 17.86 122.353 18.16 123.14 18.16ZM135.679 8.96C136.653 8.96 137.486 9.16 138.179 9.56C138.886 9.94667 139.433 10.5067 139.819 11.24C140.206 11.96 140.399 12.84 140.399 13.88V15.16H133.239C133.266 16.1467 133.539 16.9133 134.059 17.46C134.579 17.9933 135.299 18.26 136.219 18.26C136.926 18.26 137.553 18.1933 138.099 18.06C138.659 17.9133 139.233 17.7067 139.819 17.44V19.46C139.286 19.7133 138.733 19.9 138.159 20.02C137.586 20.14 136.899 20.2 136.099 20.2C135.046 20.2 134.106 20 133.279 19.6C132.466 19.1867 131.826 18.5667 131.359 17.74C130.906 16.9133 130.679 15.8867 130.679 14.66C130.679 13.42 130.886 12.38 131.299 11.54C131.726 10.6867 132.313 10.0467 133.059 9.62C133.806 9.18 134.679 8.96 135.679 8.96ZM135.679 10.82C135.013 10.82 134.466 11.04 134.039 11.48C133.626 11.9067 133.379 12.5467 133.299 13.4H137.959C137.959 12.8933 137.873 12.4467 137.699 12.06C137.539 11.6733 137.293 11.3733 136.959 11.16C136.626 10.9333 136.199 10.82 135.679 10.82ZM152.516 20.2C151.489 20.2 150.596 20.0067 149.836 19.62C149.089 19.22 148.509 18.6133 148.096 17.8C147.696 16.9733 147.496 15.92 147.496 14.64C147.496 13.3067 147.716 12.2267 148.156 11.4C148.609 10.56 149.229 9.94667 150.016 9.56C150.802 9.16 151.702 8.96 152.716 8.96C153.396 8.96 154.002 9.02667 154.536 9.16C155.069 9.29333 155.522 9.45333 155.896 9.64L155.156 11.62C154.742 11.46 154.329 11.3267 153.916 11.22C153.502 11.1 153.102 11.04 152.716 11.04C152.116 11.04 151.616 11.1733 151.216 11.44C150.829 11.7067 150.542 12.1067 150.356 12.64C150.169 13.16 150.076 13.82 150.076 14.62C150.076 15.3933 150.169 16.04 150.356 16.56C150.556 17.08 150.849 17.4733 151.236 17.74C151.622 17.9933 152.102 18.12 152.676 18.12C153.289 18.12 153.829 18.0467 154.296 17.9C154.762 17.7533 155.202 17.5533 155.616 17.3V19.48C155.202 19.7333 154.756 19.9133 154.276 20.02C153.809 20.14 153.222 20.2 152.516 20.2ZM160.675 8.42C160.675 8.84667 160.655 9.26667 160.615 9.68C160.588 10.08 160.562 10.38 160.535 10.58H160.695C160.922 10.2067 161.202 9.90667 161.535 9.68C161.868 9.44 162.235 9.26 162.635 9.14C163.048 9.02 163.475 8.96 163.915 8.96C164.728 8.96 165.428 9.1 166.015 9.38C166.602 9.66 167.048 10.0933 167.355 10.68C167.675 11.2533 167.835 12.0067 167.835 12.94V20H165.315V13.44C165.315 12.6133 165.155 12 164.835 11.6C164.515 11.2 164.008 11 163.315 11C162.648 11 162.122 11.1467 161.735 11.44C161.348 11.72 161.075 12.14 160.915 12.7C160.755 13.2467 160.675 13.92 160.675 14.72V20H158.155V4.8H160.675V8.42ZM175.307 8.96C176.707 8.96 177.767 9.26667 178.487 9.88C179.221 10.48 179.587 11.4267 179.587 12.72V20H177.807L177.307 18.5H177.227C176.921 18.8867 176.601 19.2133 176.267 19.48C175.947 19.7333 175.574 19.9133 175.147 20.02C174.734 20.14 174.227 20.2 173.627 20.2C172.987 20.2 172.407 20.08 171.887 19.84C171.381 19.6 170.981 19.2333 170.687 18.74C170.394 18.2333 170.247 17.6 170.247 16.84C170.247 15.72 170.654 14.88 171.467 14.32C172.294 13.7467 173.541 13.4333 175.207 13.38L177.087 13.32V12.78C177.087 12.0867 176.921 11.5933 176.587 11.3C176.254 11.0067 175.787 10.86 175.187 10.86C174.641 10.86 174.114 10.94 173.607 11.1C173.101 11.26 172.607 11.4467 172.127 11.66L171.327 9.9C171.861 9.62 172.467 9.39333 173.147 9.22C173.841 9.04667 174.561 8.96 175.307 8.96ZM175.767 14.92C174.661 14.96 173.894 15.1533 173.467 15.5C173.041 15.8333 172.827 16.2867 172.827 16.86C172.827 17.3667 172.981 17.7333 173.287 17.96C173.594 18.1867 173.987 18.3 174.467 18.3C175.201 18.3 175.821 18.0933 176.327 17.68C176.834 17.2533 177.087 16.6267 177.087 15.8V14.88L175.767 14.92ZM195.165 8.96C196.392 8.96 197.312 9.27333 197.925 9.9C198.552 10.5267 198.865 11.54 198.865 12.94V20H196.345V13.42C196.345 12.62 196.198 12.02 195.905 11.62C195.612 11.2067 195.145 11 194.505 11C193.625 11 192.998 11.2867 192.625 11.86C192.252 12.4333 192.065 13.2667 192.065 14.36V20H189.545V13.42C189.545 12.8867 189.478 12.44 189.345 12.08C189.212 11.72 189.005 11.4533 188.725 11.28C188.458 11.0933 188.112 11 187.685 11C187.085 11 186.605 11.1467 186.245 11.44C185.885 11.72 185.632 12.1333 185.485 12.68C185.338 13.2267 185.265 13.9 185.265 14.7V20H182.745V9.16H184.685L185.045 10.58H185.185C185.412 10.2067 185.685 9.9 186.005 9.66C186.338 9.42 186.705 9.24667 187.105 9.14C187.518 9.02 187.932 8.96 188.345 8.96C189.158 8.96 189.845 9.1 190.405 9.38C190.965 9.64667 191.385 10.0667 191.665 10.64H191.865C192.198 10.0533 192.665 9.62667 193.265 9.36C193.878 9.09333 194.512 8.96 195.165 8.96ZM207.722 8.96C208.989 8.96 210.009 9.43333 210.782 10.38C211.556 11.3133 211.942 12.7067 211.942 14.56C211.942 15.7867 211.762 16.82 211.402 17.66C211.042 18.5 210.542 19.1333 209.902 19.56C209.262 19.9867 208.516 20.2 207.662 20.2C207.142 20.2 206.682 20.1333 206.282 20C205.882 19.8533 205.542 19.6733 205.262 19.46C204.982 19.2333 204.742 18.9933 204.542 18.74H204.382C204.436 18.98 204.476 19.2533 204.502 19.56C204.529 19.8533 204.542 20.1333 204.542 20.4V24.8H202.022V9.16H204.062L204.422 10.6H204.542C204.742 10.2933 204.982 10.02 205.262 9.78C205.556 9.52667 205.902 9.32667 206.302 9.18C206.716 9.03333 207.189 8.96 207.722 8.96ZM207.002 11C206.416 11 205.942 11.12 205.582 11.36C205.222 11.5867 204.962 11.94 204.802 12.42C204.642 12.9 204.556 13.5 204.542 14.22V14.54C204.542 15.3133 204.616 15.9667 204.762 16.5C204.922 17.0333 205.182 17.44 205.542 17.72C205.916 18 206.416 18.14 207.042 18.14C207.576 18.14 208.009 17.9933 208.342 17.7C208.689 17.4067 208.942 16.9933 209.102 16.46C209.276 15.9133 209.362 15.2667 209.362 14.52C209.362 13.4 209.169 12.5333 208.782 11.92C208.409 11.3067 207.816 11 207.002 11Z" fill="#333333"/>
<path d="M53.7422 49H52.1422V37.7111H48.1778V36.3067H57.6889V37.7111H53.7422V49ZM61.8196 39.2933C62.6374 39.2933 63.3366 39.4711 63.9174 39.8267C64.51 40.1822 64.9603 40.6859 65.2685 41.3378C65.5885 41.9778 65.7485 42.7304 65.7485 43.5956V44.5378H59.224C59.2477 45.6163 59.5203 46.44 60.0418 47.0089C60.5751 47.5659 61.3159 47.8444 62.264 47.8444C62.8685 47.8444 63.4018 47.7911 63.864 47.6844C64.3381 47.5659 64.824 47.4 65.3218 47.1867V48.5556C64.8359 48.7689 64.3559 48.923 63.8818 49.0178C63.4077 49.1244 62.8448 49.1778 62.1929 49.1778C61.2922 49.1778 60.4922 48.9941 59.7929 48.6267C59.1055 48.2593 58.5663 47.7141 58.1751 46.9911C57.7959 46.2563 57.6063 45.3615 57.6063 44.3067C57.6063 43.2637 57.7781 42.3689 58.1218 41.6222C58.4774 40.8756 58.9692 40.3007 59.5974 39.8978C60.2374 39.4948 60.9781 39.2933 61.8196 39.2933ZM61.8018 40.5733C61.0551 40.5733 60.4625 40.8163 60.024 41.3022C59.5974 41.7763 59.3425 42.44 59.2596 43.2933H64.1129C64.1011 42.4874 63.9114 41.8356 63.544 41.3378C63.1766 40.8281 62.5959 40.5733 61.8018 40.5733ZM70.0849 44.1289L66.796 39.4711H68.5737L71.0271 43.0622L73.4626 39.4711H75.2226L71.9337 44.1289L75.4004 49H73.6226L71.0271 45.1956L68.396 49H66.636L70.0849 44.1289ZM80.419 47.8978C80.6561 47.8978 80.899 47.88 81.1479 47.8444C81.3968 47.797 81.5983 47.7496 81.7524 47.7022V48.8933C81.5864 48.9763 81.3494 49.0415 81.0413 49.0889C80.7331 49.1481 80.4368 49.1778 80.1524 49.1778C79.6546 49.1778 79.1924 49.0948 78.7657 48.9289C78.3509 48.7511 78.0131 48.4489 77.7524 48.0222C77.4916 47.5956 77.3613 46.997 77.3613 46.2267V40.68H76.0101V39.9333L77.379 39.3111L78.0013 37.2844H78.9257V39.4711H81.6813V40.68H78.9257V46.1911C78.9257 46.7719 79.062 47.2044 79.3346 47.4889C79.619 47.7615 79.9805 47.8978 80.419 47.8978ZM87.3404 39.2933C88.1582 39.2933 88.8575 39.4711 89.4382 39.8267C90.0308 40.1822 90.4812 40.6859 90.7893 41.3378C91.1093 41.9778 91.2693 42.7304 91.2693 43.5956V44.5378H84.7449C84.7686 45.6163 85.0412 46.44 85.5626 47.0089C86.096 47.5659 86.8367 47.8444 87.7849 47.8444C88.3893 47.8444 88.9226 47.7911 89.3849 47.6844C89.8589 47.5659 90.3449 47.4 90.8426 47.1867V48.5556C90.3567 48.7689 89.8767 48.923 89.4026 49.0178C88.9286 49.1244 88.3656 49.1778 87.7138 49.1778C86.813 49.1778 86.013 48.9941 85.3138 48.6267C84.6263 48.2593 84.0871 47.7141 83.696 46.9911C83.3167 46.2563 83.1271 45.3615 83.1271 44.3067C83.1271 43.2637 83.2989 42.3689 83.6426 41.6222C83.9982 40.8756 84.49 40.3007 85.1182 39.8978C85.7582 39.4948 86.4989 39.2933 87.3404 39.2933ZM87.3226 40.5733C86.576 40.5733 85.9834 40.8163 85.5449 41.3022C85.1182 41.7763 84.8634 42.44 84.7804 43.2933H89.6338C89.6219 42.4874 89.4323 41.8356 89.0649 41.3378C88.6975 40.8281 88.1167 40.5733 87.3226 40.5733ZM101.993 39.2933C102.811 39.2933 103.51 39.4711 104.091 39.8267C104.684 40.1822 105.134 40.6859 105.442 41.3378C105.762 41.9778 105.922 42.7304 105.922 43.5956V44.5378H99.3976C99.4213 45.6163 99.6939 46.44 100.215 47.0089C100.749 47.5659 101.489 47.8444 102.438 47.8444C103.042 47.8444 103.575 47.7911 104.038 47.6844C104.512 47.5659 104.998 47.4 105.495 47.1867V48.5556C105.009 48.7689 104.529 48.923 104.055 49.0178C103.581 49.1244 103.018 49.1778 102.367 49.1778C101.466 49.1778 100.666 48.9941 99.9665 48.6267C99.2791 48.2593 98.7399 47.7141 98.3488 46.9911C97.9695 46.2563 97.7799 45.3615 97.7799 44.3067C97.7799 43.2637 97.9517 42.3689 98.2954 41.6222C98.651 40.8756 99.1428 40.3007 99.771 39.8978C100.411 39.4948 101.152 39.2933 101.993 39.2933ZM101.975 40.5733C101.229 40.5733 100.636 40.8163 100.198 41.3022C99.771 41.7763 99.5162 42.44 99.4332 43.2933H104.287C104.275 42.4874 104.085 41.8356 103.718 41.3378C103.35 40.8281 102.769 40.5733 101.975 40.5733ZM110.258 44.1289L106.97 39.4711H108.747L111.201 43.0622L113.636 39.4711H115.396L112.107 44.1289L115.574 49H113.796L111.201 45.1956L108.57 49H106.81L110.258 44.1289ZM121.944 39.2933C123.117 39.2933 124.059 39.7022 124.77 40.52C125.493 41.3378 125.855 42.5704 125.855 44.2178C125.855 45.8415 125.493 47.0741 124.77 47.9156C124.059 48.757 123.111 49.1778 121.926 49.1778C121.191 49.1778 120.581 49.0415 120.095 48.7689C119.621 48.4844 119.247 48.1585 118.975 47.7911H118.868C118.892 47.9926 118.916 48.2474 118.939 48.5556C118.963 48.8637 118.975 49.1304 118.975 49.3556V53.2667H117.41V39.4711H118.69L118.904 40.7689H118.975C119.259 40.3541 119.633 40.0044 120.095 39.72C120.557 39.4356 121.173 39.2933 121.944 39.2933ZM121.659 40.6089C120.687 40.6089 120 40.8815 119.597 41.4267C119.206 41.9719 118.999 42.8015 118.975 43.9156V44.2178C118.975 45.3911 119.164 46.2978 119.544 46.9378C119.935 47.5659 120.652 47.88 121.695 47.88C122.276 47.88 122.75 47.72 123.117 47.4C123.496 47.08 123.775 46.6474 123.953 46.1022C124.142 45.5452 124.237 44.9111 124.237 44.2C124.237 43.1096 124.024 42.2385 123.597 41.5867C123.182 40.9348 122.536 40.6089 121.659 40.6089ZM129.912 49H128.348V35.4889H129.912V49ZM133.731 35.8978C133.968 35.8978 134.176 35.9807 134.353 36.1467C134.543 36.3007 134.638 36.5496 134.638 36.8933C134.638 37.2252 134.543 37.4741 134.353 37.64C134.176 37.8059 133.968 37.8889 133.731 37.8889C133.471 37.8889 133.251 37.8059 133.073 37.64C132.896 37.4741 132.807 37.2252 132.807 36.8933C132.807 36.5496 132.896 36.3007 133.073 36.1467C133.251 35.9807 133.471 35.8978 133.731 35.8978ZM134.496 39.4711V49H132.931V39.4711H134.496ZM141.337 49.1778C140.495 49.1778 139.743 49.0059 139.079 48.6622C138.427 48.3185 137.912 47.7852 137.532 47.0622C137.165 46.3393 136.981 45.4148 136.981 44.2889C136.981 43.1156 137.177 42.1615 137.568 41.4267C137.959 40.6919 138.486 40.1526 139.15 39.8089C139.826 39.4652 140.59 39.2933 141.443 39.2933C141.929 39.2933 142.398 39.3467 142.848 39.4533C143.298 39.5481 143.666 39.6667 143.95 39.8089L143.47 41.1067C143.186 41 142.854 40.8993 142.475 40.8044C142.095 40.7096 141.74 40.6622 141.408 40.6622C139.535 40.6622 138.599 41.8652 138.599 44.2711C138.599 45.4207 138.824 46.3037 139.275 46.92C139.737 47.5244 140.418 47.8267 141.319 47.8267C141.841 47.8267 142.297 47.7733 142.688 47.6667C143.091 47.56 143.458 47.4296 143.79 47.2756V48.6622C143.47 48.8281 143.115 48.9526 142.723 49.0356C142.344 49.1304 141.882 49.1778 141.337 49.1778ZM149.665 39.3111C150.827 39.3111 151.686 39.5659 152.243 40.0756C152.8 40.5852 153.078 41.397 153.078 42.5111V49H151.941L151.638 47.6489H151.567C151.153 48.1704 150.714 48.5556 150.252 48.8044C149.801 49.0533 149.173 49.1778 148.367 49.1778C147.502 49.1778 146.785 48.9526 146.216 48.5022C145.647 48.04 145.363 47.323 145.363 46.3511C145.363 45.403 145.736 44.6741 146.483 44.1644C147.23 43.643 148.379 43.3585 149.932 43.3111L151.55 43.2578V42.6889C151.55 41.8948 151.378 41.3437 151.034 41.0356C150.69 40.7274 150.204 40.5733 149.576 40.5733C149.078 40.5733 148.604 40.6504 148.154 40.8044C147.704 40.9467 147.283 41.1126 146.892 41.3022L146.412 40.1289C146.827 39.9037 147.318 39.7141 147.887 39.56C148.456 39.3941 149.049 39.3111 149.665 39.3111ZM150.127 44.3956C148.942 44.443 148.118 44.6326 147.656 44.9644C147.206 45.2963 146.981 45.7644 146.981 46.3689C146.981 46.9022 147.141 47.2933 147.461 47.5422C147.793 47.7911 148.213 47.9156 148.723 47.9156C149.529 47.9156 150.198 47.6963 150.732 47.2578C151.265 46.8074 151.532 46.12 151.532 45.1956V44.3422L150.127 44.3956ZM159.204 47.8978C159.441 47.8978 159.684 47.88 159.933 47.8444C160.182 47.797 160.383 47.7496 160.537 47.7022V48.8933C160.371 48.9763 160.134 49.0415 159.826 49.0889C159.518 49.1481 159.222 49.1778 158.937 49.1778C158.439 49.1778 157.977 49.0948 157.55 48.9289C157.136 48.7511 156.798 48.4489 156.537 48.0222C156.276 47.5956 156.146 46.997 156.146 46.2267V40.68H154.795V39.9333L156.164 39.3111L156.786 37.2844H157.71V39.4711H160.466V40.68H157.71V46.1911C157.71 46.7719 157.847 47.2044 158.119 47.4889C158.404 47.7615 158.765 47.8978 159.204 47.8978ZM163.245 35.8978C163.482 35.8978 163.69 35.9807 163.867 36.1467C164.057 36.3007 164.152 36.5496 164.152 36.8933C164.152 37.2252 164.057 37.4741 163.867 37.64C163.69 37.8059 163.482 37.8889 163.245 37.8889C162.984 37.8889 162.765 37.8059 162.587 37.64C162.41 37.4741 162.321 37.2252 162.321 36.8933C162.321 36.5496 162.41 36.3007 162.587 36.1467C162.765 35.9807 162.984 35.8978 163.245 35.8978ZM164.01 39.4711V49H162.445V39.4711H164.01ZM171.42 40.68H169.02V49H167.455V40.68H165.784V39.9511L167.455 39.4178V38.8667C167.455 37.6341 167.728 36.7511 168.273 36.2178C168.818 35.6726 169.577 35.4 170.548 35.4C170.928 35.4 171.271 35.4356 171.58 35.5067C171.9 35.5659 172.172 35.637 172.397 35.72L171.988 36.9467C171.799 36.8874 171.58 36.8281 171.331 36.7689C171.082 36.7096 170.827 36.68 170.566 36.68C170.045 36.68 169.654 36.8578 169.393 37.2133C169.144 37.557 169.02 38.1022 169.02 38.8489V39.4711H171.42V40.68ZM182.682 36.3067L177.953 49H176.424L181.153 36.3067H182.682ZM196.297 49H189.204V36.3067H196.297V37.7111H190.804V41.6756H195.977V43.0622H190.804V47.5956H196.297V49ZM201.127 44.1289L197.838 39.4711H199.615L202.069 43.0622L204.504 39.4711H206.264L202.975 44.1289L206.442 49H204.664L202.069 45.1956L199.438 49H197.678L201.127 44.1289ZM211.611 39.2933C212.429 39.2933 213.128 39.4711 213.709 39.8267C214.302 40.1822 214.752 40.6859 215.06 41.3378C215.38 41.9778 215.54 42.7304 215.54 43.5956V44.5378H209.016C209.039 45.6163 209.312 46.44 209.833 47.0089C210.367 47.5659 211.108 47.8444 212.056 47.8444C212.66 47.8444 213.193 47.7911 213.656 47.6844C214.13 47.5659 214.616 47.4 215.113 47.1867V48.5556C214.628 48.7689 214.148 48.923 213.673 49.0178C213.199 49.1244 212.636 49.1778 211.985 49.1778C211.084 49.1778 210.284 48.9941 209.585 48.6267C208.897 48.2593 208.358 47.7141 207.967 46.9911C207.588 46.2563 207.398 45.3615 207.398 44.3067C207.398 43.2637 207.57 42.3689 207.913 41.6222C208.269 40.8756 208.761 40.3007 209.389 39.8978C210.029 39.4948 210.77 39.2933 211.611 39.2933ZM211.593 40.5733C210.847 40.5733 210.254 40.8163 209.816 41.3022C209.389 41.7763 209.134 42.44 209.051 43.2933H213.905C213.893 42.4874 213.703 41.8356 213.336 41.3378C212.968 40.8281 212.388 40.5733 211.593 40.5733ZM228.419 39.2933C229.498 39.2933 230.304 39.5719 230.837 40.1289C231.37 40.6741 231.637 41.563 231.637 42.7956V49H230.09V42.8667C230.09 41.3615 229.444 40.6089 228.153 40.6089C227.228 40.6089 226.564 40.8756 226.162 41.4089C225.77 41.9422 225.575 42.7185 225.575 43.7378V49H224.028V42.8667C224.028 41.3615 223.376 40.6089 222.073 40.6089C221.113 40.6089 220.449 40.9052 220.082 41.4978C219.714 42.0904 219.53 42.9437 219.53 44.0578V49H217.966V39.4711H219.228L219.459 40.7689H219.548C219.844 40.2711 220.242 39.9037 220.739 39.6667C221.249 39.4178 221.788 39.2933 222.357 39.2933C223.85 39.2933 224.822 39.8267 225.273 40.8933H225.362C225.682 40.3481 226.114 39.9452 226.659 39.6844C227.216 39.4237 227.803 39.2933 228.419 39.2933ZM239.114 39.2933C240.287 39.2933 241.229 39.7022 241.941 40.52C242.664 41.3378 243.025 42.5704 243.025 44.2178C243.025 45.8415 242.664 47.0741 241.941 47.9156C241.229 48.757 240.281 49.1778 239.096 49.1778C238.361 49.1778 237.751 49.0415 237.265 48.7689C236.791 48.4844 236.418 48.1585 236.145 47.7911H236.038C236.062 47.9926 236.086 48.2474 236.109 48.5556C236.133 48.8637 236.145 49.1304 236.145 49.3556V53.2667H234.581V39.4711H235.861L236.074 40.7689H236.145C236.429 40.3541 236.803 40.0044 237.265 39.72C237.727 39.4356 238.344 39.2933 239.114 39.2933ZM238.829 40.6089C237.858 40.6089 237.17 40.8815 236.767 41.4267C236.376 41.9719 236.169 42.8015 236.145 43.9156V44.2178C236.145 45.3911 236.335 46.2978 236.714 46.9378C237.105 47.5659 237.822 47.88 238.865 47.88C239.446 47.88 239.92 47.72 240.287 47.4C240.666 47.08 240.945 46.6474 241.123 46.1022C241.312 45.5452 241.407 44.9111 241.407 44.2C241.407 43.1096 241.194 42.2385 240.767 41.5867C240.352 40.9348 239.706 40.6089 238.829 40.6089ZM247.083 49H245.518V35.4889H247.083V49ZM253.781 39.2933C254.599 39.2933 255.298 39.4711 255.879 39.8267C256.472 40.1822 256.922 40.6859 257.23 41.3378C257.55 41.9778 257.71 42.7304 257.71 43.5956V44.5378H251.186C251.21 45.6163 251.482 46.44 252.004 47.0089C252.537 47.5659 253.278 47.8444 254.226 47.8444C254.83 47.8444 255.364 47.7911 255.826 47.6844C256.3 47.5659 256.786 47.4 257.284 47.1867V48.5556C256.798 48.7689 256.318 48.923 255.844 49.0178C255.37 49.1244 254.807 49.1778 254.155 49.1778C253.254 49.1778 252.454 48.9941 251.755 48.6267C251.067 48.2593 250.528 47.7141 250.137 46.9911C249.758 46.2563 249.568 45.3615 249.568 44.3067C249.568 43.2637 249.74 42.3689 250.084 41.6222C250.439 40.8756 250.931 40.3007 251.559 39.8978C252.199 39.4948 252.94 39.2933 253.781 39.2933ZM253.764 40.5733C253.017 40.5733 252.424 40.8163 251.986 41.3022C251.559 41.7763 251.304 42.44 251.221 43.2933H256.075C256.063 42.4874 255.873 41.8356 255.506 41.3378C255.138 40.8281 254.558 40.5733 253.764 40.5733ZM268.132 49.1778C266.947 49.1778 265.999 48.7689 265.288 47.9511C264.576 47.1215 264.221 45.8889 264.221 44.2533C264.221 42.6178 264.576 41.3852 265.288 40.5556C266.01 39.7141 266.965 39.2933 268.15 39.2933C268.885 39.2933 269.483 39.4296 269.945 39.7022C270.419 39.9748 270.805 40.3067 271.101 40.6978H271.208C271.196 40.5437 271.172 40.3185 271.136 40.0222C271.113 39.7141 271.101 39.4711 271.101 39.2933V35.4889H272.665V49H271.403L271.172 47.72H271.101C270.816 48.123 270.437 48.4667 269.963 48.7511C269.489 49.0356 268.879 49.1778 268.132 49.1778ZM268.381 47.88C269.388 47.88 270.093 47.6074 270.496 47.0622C270.911 46.5052 271.119 45.6696 271.119 44.5556V44.2711C271.119 43.0859 270.923 42.1793 270.532 41.5511C270.141 40.9111 269.418 40.5911 268.363 40.5911C267.522 40.5911 266.888 40.9289 266.461 41.6044C266.046 42.2681 265.839 43.163 265.839 44.2889C265.839 45.4267 266.046 46.3096 266.461 46.9378C266.888 47.5659 267.528 47.88 268.381 47.88ZM279.372 39.2933C280.189 39.2933 280.889 39.4711 281.469 39.8267C282.062 40.1822 282.512 40.6859 282.821 41.3378C283.141 41.9778 283.301 42.7304 283.301 43.5956V44.5378H276.776C276.8 45.6163 277.072 46.44 277.594 47.0089C278.127 47.5659 278.868 47.8444 279.816 47.8444C280.421 47.8444 280.954 47.7911 281.416 47.6844C281.89 47.5659 282.376 47.4 282.874 47.1867V48.5556C282.388 48.7689 281.908 48.923 281.434 49.0178C280.96 49.1244 280.397 49.1778 279.745 49.1778C278.844 49.1778 278.044 48.9941 277.345 48.6267C276.658 48.2593 276.118 47.7141 275.727 46.9911C275.348 46.2563 275.158 45.3615 275.158 44.3067C275.158 43.2637 275.33 42.3689 275.674 41.6222C276.029 40.8756 276.521 40.3007 277.149 39.8978C277.789 39.4948 278.53 39.2933 279.372 39.2933ZM279.354 40.5733C278.607 40.5733 278.015 40.8163 277.576 41.3022C277.149 41.7763 276.895 42.44 276.812 43.2933H281.665C281.653 42.4874 281.464 41.8356 281.096 41.3378C280.729 40.8281 280.148 40.5733 279.354 40.5733ZM300.798 39.2933C301.876 39.2933 302.682 39.5719 303.216 40.1289C303.749 40.6741 304.016 41.563 304.016 42.7956V49H302.469V42.8667C302.469 41.3615 301.823 40.6089 300.531 40.6089C299.607 40.6089 298.943 40.8756 298.54 41.4089C298.149 41.9422 297.953 42.7185 297.953 43.7378V49H296.407V42.8667C296.407 41.3615 295.755 40.6089 294.451 40.6089C293.491 40.6089 292.827 40.9052 292.46 41.4978C292.093 42.0904 291.909 42.9437 291.909 44.0578V49H290.344V39.4711H291.607L291.838 40.7689H291.927C292.223 40.2711 292.62 39.9037 293.118 39.6667C293.627 39.4178 294.167 39.2933 294.736 39.2933C296.229 39.2933 297.201 39.8267 297.651 40.8933H297.74C298.06 40.3481 298.493 39.9452 299.038 39.6844C299.595 39.4237 300.181 39.2933 300.798 39.2933ZM310.639 39.2933C311.457 39.2933 312.156 39.4711 312.737 39.8267C313.329 40.1822 313.78 40.6859 314.088 41.3378C314.408 41.9778 314.568 42.7304 314.568 43.5956V44.5378H308.043C308.067 45.6163 308.34 46.44 308.861 47.0089C309.395 47.5659 310.135 47.8444 311.083 47.8444C311.688 47.8444 312.221 47.7911 312.683 47.6844C313.158 47.5659 313.643 47.4 314.141 47.1867V48.5556C313.655 48.7689 313.175 48.923 312.701 49.0178C312.227 49.1244 311.664 49.1778 311.012 49.1778C310.112 49.1778 309.312 48.9941 308.612 48.6267C307.925 48.2593 307.386 47.7141 306.995 46.9911C306.615 46.2563 306.426 45.3615 306.426 44.3067C306.426 43.2637 306.598 42.3689 306.941 41.6222C307.297 40.8756 307.789 40.3007 308.417 39.8978C309.057 39.4948 309.798 39.2933 310.639 39.2933ZM310.621 40.5733C309.875 40.5733 309.282 40.8163 308.843 41.3022C308.417 41.7763 308.162 42.44 308.079 43.2933H312.932C312.921 42.4874 312.731 41.8356 312.363 41.3378C311.996 40.8281 311.415 40.5733 310.621 40.5733ZM323.198 46.3689C323.198 47.2933 322.854 47.9926 322.167 48.4667C321.48 48.9407 320.555 49.1778 319.394 49.1778C318.73 49.1778 318.155 49.1244 317.669 49.0178C317.195 48.9111 316.774 48.763 316.407 48.5733V47.1511C316.786 47.3407 317.243 47.5185 317.776 47.6844C318.321 47.8385 318.872 47.9156 319.429 47.9156C320.223 47.9156 320.798 47.7911 321.154 47.5422C321.509 47.2815 321.687 46.9378 321.687 46.5111C321.687 46.2741 321.622 46.0607 321.492 45.8711C321.361 45.6815 321.124 45.4919 320.78 45.3022C320.449 45.1126 319.969 44.8993 319.34 44.6622C318.724 44.4252 318.197 44.1881 317.758 43.9511C317.32 43.7141 316.982 43.4296 316.745 43.0978C316.508 42.7659 316.389 42.3393 316.389 41.8178C316.389 41.0119 316.715 40.3896 317.367 39.9511C318.031 39.5126 318.896 39.2933 319.963 39.2933C320.543 39.2933 321.083 39.3526 321.58 39.4711C322.09 39.5778 322.564 39.7319 323.003 39.9333L322.469 41.1778C322.066 41.0119 321.646 40.8696 321.207 40.7511C320.769 40.6326 320.318 40.5733 319.856 40.5733C319.216 40.5733 318.724 40.68 318.38 40.8933C318.049 41.0948 317.883 41.3733 317.883 41.7289C317.883 41.9896 317.96 42.2148 318.114 42.4044C318.268 42.5822 318.523 42.76 318.878 42.9378C319.246 43.1037 319.732 43.3052 320.336 43.5422C320.94 43.7674 321.456 43.9985 321.883 44.2356C322.309 44.4726 322.635 44.763 322.86 45.1067C323.086 45.4385 323.198 45.8593 323.198 46.3689ZM331.705 46.3689C331.705 47.2933 331.361 47.9926 330.674 48.4667C329.987 48.9407 329.062 49.1778 327.901 49.1778C327.237 49.1778 326.662 49.1244 326.176 49.0178C325.702 48.9111 325.281 48.763 324.914 48.5733V47.1511C325.293 47.3407 325.75 47.5185 326.283 47.6844C326.828 47.8385 327.379 47.9156 327.936 47.9156C328.73 47.9156 329.305 47.7911 329.661 47.5422C330.016 47.2815 330.194 46.9378 330.194 46.5111C330.194 46.2741 330.129 46.0607 329.998 45.8711C329.868 45.6815 329.631 45.4919 329.287 45.3022C328.956 45.1126 328.476 44.8993 327.847 44.6622C327.231 44.4252 326.704 44.1881 326.265 43.9511C325.827 43.7141 325.489 43.4296 325.252 43.0978C325.015 42.7659 324.896 42.3393 324.896 41.8178C324.896 41.0119 325.222 40.3896 325.874 39.9511C326.538 39.5126 327.403 39.2933 328.47 39.2933C329.05 39.2933 329.59 39.3526 330.087 39.4711C330.597 39.5778 331.071 39.7319 331.51 39.9333L330.976 41.1778C330.573 41.0119 330.153 40.8696 329.714 40.7511C329.276 40.6326 328.825 40.5733 328.363 40.5733C327.723 40.5733 327.231 40.68 326.887 40.8933C326.556 41.0948 326.39 41.3733 326.39 41.7289C326.39 41.9896 326.467 42.2148 326.621 42.4044C326.775 42.5822 327.03 42.76 327.385 42.9378C327.753 43.1037 328.238 43.3052 328.843 43.5422C329.447 43.7674 329.963 43.9985 330.39 44.2356C330.816 44.4726 331.142 44.763 331.367 45.1067C331.593 45.4385 331.705 45.8593 331.705 46.3689ZM337.617 39.3111C338.778 39.3111 339.637 39.5659 340.194 40.0756C340.751 40.5852 341.03 41.397 341.03 42.5111V49H339.892L339.59 47.6489H339.519C339.104 48.1704 338.665 48.5556 338.203 48.8044C337.753 49.0533 337.125 49.1778 336.319 49.1778C335.454 49.1778 334.737 48.9526 334.168 48.5022C333.599 48.04 333.314 47.323 333.314 46.3511C333.314 45.403 333.688 44.6741 334.434 44.1644C335.181 43.643 336.331 43.3585 337.883 43.3111L339.501 43.2578V42.6889C339.501 41.8948 339.329 41.3437 338.985 41.0356C338.642 40.7274 338.156 40.5733 337.528 40.5733C337.03 40.5733 336.556 40.6504 336.105 40.8044C335.655 40.9467 335.234 41.1126 334.843 41.3022L334.363 40.1289C334.778 39.9037 335.27 39.7141 335.839 39.56C336.408 39.3941 337 39.3111 337.617 39.3111ZM338.079 44.3956C336.894 44.443 336.07 44.6326 335.608 44.9644C335.157 45.2963 334.932 45.7644 334.932 46.3689C334.932 46.9022 335.092 47.2933 335.412 47.5422C335.744 47.7911 336.165 47.9156 336.674 47.9156C337.48 47.9156 338.15 47.6963 338.683 47.2578C339.217 46.8074 339.483 46.12 339.483 45.1956V44.3422L338.079 44.3956ZM347.351 39.2933C347.979 39.2933 348.542 39.4119 349.04 39.6489C349.549 39.8859 349.982 40.2474 350.337 40.7333H350.426L350.64 39.4711H351.884V49.16C351.884 50.523 351.534 51.5481 350.835 52.2356C350.148 52.923 349.075 53.2667 347.617 53.2667C346.219 53.2667 345.075 53.0652 344.186 52.6622V51.2222C345.123 51.72 346.296 51.9689 347.706 51.9689C348.524 51.9689 349.164 51.7259 349.626 51.24C350.1 50.7659 350.337 50.1141 350.337 49.2844V48.9111C350.337 48.7689 350.343 48.5674 350.355 48.3067C350.367 48.0341 350.379 47.8444 350.391 47.7378H350.32C349.68 48.6978 348.696 49.1778 347.368 49.1778C346.136 49.1778 345.17 48.7452 344.471 47.88C343.783 47.0148 343.44 45.8059 343.44 44.2533C343.44 42.7363 343.783 41.5333 344.471 40.6444C345.17 39.7437 346.13 39.2933 347.351 39.2933ZM347.564 40.6089C346.77 40.6089 346.154 40.9289 345.715 41.5689C345.277 42.197 345.057 43.0978 345.057 44.2711C345.057 45.4444 345.271 46.3452 345.697 46.9733C346.136 47.5896 346.77 47.8978 347.6 47.8978C348.56 47.8978 349.259 47.643 349.697 47.1333C350.136 46.6119 350.355 45.7763 350.355 44.6267V44.2533C350.355 42.9496 350.13 42.0193 349.68 41.4622C349.229 40.8933 348.524 40.6089 347.564 40.6089ZM358.59 39.2933C359.408 39.2933 360.107 39.4711 360.688 39.8267C361.281 40.1822 361.731 40.6859 362.039 41.3378C362.359 41.9778 362.519 42.7304 362.519 43.5956V44.5378H355.995C356.019 45.6163 356.291 46.44 356.813 47.0089C357.346 47.5659 358.087 47.8444 359.035 47.8444C359.639 47.8444 360.173 47.7911 360.635 47.6844C361.109 47.5659 361.595 47.4 362.093 47.1867V48.5556C361.607 48.7689 361.127 48.923 360.653 49.0178C360.179 49.1244 359.616 49.1778 358.964 49.1778C358.063 49.1778 357.263 48.9941 356.564 48.6267C355.876 48.2593 355.337 47.7141 354.946 46.9911C354.567 46.2563 354.377 45.3615 354.377 44.3067C354.377 43.2637 354.549 42.3689 354.893 41.6222C355.248 40.8756 355.74 40.3007 356.368 39.8978C357.008 39.4948 357.749 39.2933 358.59 39.2933ZM358.573 40.5733C357.826 40.5733 357.233 40.8163 356.795 41.3022C356.368 41.7763 356.113 42.44 356.03 43.2933H360.884C360.872 42.4874 360.682 41.8356 360.315 41.3378C359.947 40.8281 359.367 40.5733 358.573 40.5733ZM364.714 48.04C364.714 47.6015 364.821 47.2933 365.034 47.1156C365.247 46.9378 365.502 46.8489 365.798 46.8489C366.107 46.8489 366.367 46.9378 366.581 47.1156C366.806 47.2933 366.918 47.6015 366.918 48.04C366.918 48.4667 366.806 48.7748 366.581 48.9644C366.367 49.1541 366.107 49.2489 365.798 49.2489C365.502 49.2489 365.247 49.1541 365.034 48.9644C364.821 48.7748 364.714 48.4667 364.714 48.04Z" fill="#333333"/>
<rect x="49" y="67" width="457" height="143" rx="2" fill="white"/>
<rect x="49" y="67" width="457" height="143" rx="2" stroke="#333333" stroke-width="2"/>
<g clip-path="url(#clip0_6973_17834)">
<rect y="41" width="44" height="1" fill="#C54600"/>
<g clip-path="url(#clip1_6973_17834)">
<rect y="29" width="24" height="24" rx="12" fill="#C54600"/>
<path d="M8.4161 46V44.4489L12.0404 41.093C12.3486 40.7947 12.6072 40.5263 12.816 40.2876C13.0281 40.049 13.1888 39.8153 13.2982 39.5866C13.4076 39.3546 13.4623 39.1044 13.4623 38.8359C13.4623 38.5376 13.3943 38.2808 13.2584 38.0653C13.1225 37.8466 12.9369 37.6792 12.7016 37.5632C12.4663 37.4439 12.1995 37.3842 11.9012 37.3842C11.5896 37.3842 11.3179 37.4472 11.0858 37.5732C10.8538 37.6991 10.6749 37.8797 10.5489 38.1151C10.423 38.3504 10.36 38.6304 10.36 38.9553H8.31667C8.31667 38.2891 8.46748 37.7107 8.76909 37.2202C9.0707 36.7296 9.49328 36.3501 10.0368 36.0817C10.5804 35.8132 11.2068 35.679 11.9161 35.679C12.6453 35.679 13.28 35.8082 13.8202 36.0668C14.3638 36.322 14.7864 36.6766 15.088 37.1307C15.3896 37.5848 15.5404 38.1051 15.5404 38.6918C15.5404 39.0762 15.4642 39.4557 15.3117 39.8303C15.1626 40.2048 14.8957 40.6207 14.5113 41.0781C14.1268 41.5322 13.5849 42.0774 12.8856 42.7138L11.3991 44.1705V44.2401H15.6746V46H8.4161Z" fill="white"/>
</g>
</g>
<g clip-path="url(#clip2_6973_17834)">
<rect y="12" width="44" height="1" fill="#C54600"/>
<g clip-path="url(#clip3_6973_17834)">
<rect width="24" height="24" rx="12" fill="#C54600"/>
<path d="M13.8302 6.81818V17H11.6775V8.86151H11.6178L9.28613 10.3232V8.41406L11.8067 6.81818H13.8302Z" fill="white"/>
</g>
</g>
<g clip-path="url(#clip4_6973_17834)">
<rect y="109.5" width="48" height="1" fill="#C54600"/>
<g clip-path="url(#clip5_6973_17834)">
<rect y="97.5" width="24" height="24" rx="12" fill="#C54600"/>
<path d="M11.9745 114.639C11.2321 114.639 10.5709 114.512 9.99086 114.256C9.41415 113.998 8.95842 113.643 8.62367 113.192C8.29223 112.738 8.12154 112.215 8.11159 111.621H10.2792C10.2925 111.87 10.3737 112.089 10.5228 112.278C10.6753 112.463 10.8775 112.607 11.1294 112.71C11.3812 112.813 11.6646 112.864 11.9795 112.864C12.3076 112.864 12.5976 112.806 12.8495 112.69C13.1014 112.574 13.2986 112.414 13.4411 112.208C13.5837 112.003 13.6549 111.766 13.6549 111.497C13.6549 111.225 13.5787 110.985 13.4262 110.776C13.2771 110.564 13.0616 110.398 12.7799 110.279C12.5015 110.16 12.1701 110.1 11.7856 110.1H10.836V108.519H11.7856C12.1104 108.519 12.3971 108.463 12.6457 108.35C12.8976 108.237 13.0931 108.082 13.2323 107.883C13.3715 107.681 13.4411 107.445 13.4411 107.177C13.4411 106.922 13.3798 106.698 13.2572 106.506C13.1379 106.31 12.9688 106.158 12.7501 106.048C12.5347 105.939 12.2828 105.884 11.9944 105.884C11.7027 105.884 11.4359 105.937 11.194 106.043C10.952 106.146 10.7581 106.294 10.6123 106.486C10.4665 106.678 10.3886 106.903 10.3786 107.162H8.31543C8.32537 106.575 8.49275 106.058 8.81756 105.611C9.14237 105.163 9.57987 104.814 10.1301 104.562C10.6836 104.307 11.3083 104.179 12.0044 104.179C12.707 104.179 13.3218 104.307 13.8488 104.562C14.3758 104.817 14.7851 105.162 15.0768 105.596C15.3718 106.027 15.5176 106.511 15.5143 107.048C15.5176 107.618 15.3403 108.093 14.9823 108.474C14.6277 108.856 14.1653 109.098 13.5953 109.2V109.28C14.3443 109.376 14.9144 109.636 15.3055 110.06C15.6999 110.481 15.8954 111.008 15.8921 111.641C15.8954 112.221 15.7281 112.737 15.39 113.188C15.0553 113.638 14.5929 113.993 14.0029 114.251C13.413 114.51 12.7368 114.639 11.9745 114.639Z" fill="white"/>
</g>
</g>
<defs>
<clipPath id="clip0_6973_17834">
<rect width="44" height="24" fill="white" transform="translate(0 29)"/>
</clipPath>
<clipPath id="clip1_6973_17834">
<rect y="29" width="24" height="24" rx="12" fill="white"/>
</clipPath>
<clipPath id="clip2_6973_17834">
<rect width="44" height="24" fill="white"/>
</clipPath>
<clipPath id="clip3_6973_17834">
<rect width="24" height="24" rx="12" fill="white"/>
</clipPath>
<clipPath id="clip4_6973_17834">
<rect width="48" height="24" fill="white" transform="translate(0 97.5)"/>
</clipPath>
<clipPath id="clip5_6973_17834">
<rect y="97.5" width="24" height="24" rx="12" fill="white"/>
</clipPath>
</defs>
</svg>
