<svg width="946" height="406" viewBox="0 0 946 406" fill="none" xmlns="http://www.w3.org/2000/svg">
<rect width="918" height="56.5714" transform="translate(0 69.668)" fill="#F1F2F3"/>
<path d="M19.4045 106.954V88.8823H22.1379V104.6H29.8575V106.954H19.4045ZM35.3531 93.3116V106.954H32.6703V93.3116H35.3531ZM34.037 88.123C34.442 88.123 34.7963 88.2411 35.1 88.4774C35.4037 88.7136 35.5556 89.1101 35.5556 89.6669C35.5556 90.2069 35.4037 90.6034 35.1 90.8565C34.7963 91.0927 34.442 91.2109 34.037 91.2109C33.5983 91.2109 33.2271 91.0927 32.9234 90.8565C32.6365 90.6034 32.4931 90.2069 32.4931 89.6669C32.4931 89.1101 32.6365 88.7136 32.9234 88.4774C33.2271 88.2411 33.5983 88.123 34.037 88.123ZM44.932 93.0585C46.13 93.0585 47.1592 93.3116 48.0198 93.8178C48.8803 94.3071 49.5384 95.0158 49.994 95.9438C50.4664 96.8719 50.7026 97.9686 50.7026 99.2341V100.702H41.5404C41.5742 102.103 41.9369 103.174 42.6287 103.916C43.3374 104.659 44.3245 105.03 45.59 105.03C46.4674 105.03 47.2436 104.954 47.9185 104.802C48.6103 104.634 49.319 104.389 50.0446 104.068V106.296C49.3696 106.599 48.6778 106.827 47.9692 106.979C47.2774 107.131 46.4506 107.207 45.4888 107.207C44.1727 107.207 43.0084 106.945 41.996 106.422C40.9836 105.899 40.1906 105.123 39.6169 104.094C39.06 103.047 38.7816 101.765 38.7816 100.247C38.7816 98.7111 39.0347 97.4118 39.5409 96.3488C40.064 95.2858 40.7811 94.4758 41.6923 93.919C42.6203 93.3453 43.7002 93.0585 44.932 93.0585ZM44.932 95.1339C43.9702 95.1339 43.194 95.4461 42.6034 96.0704C42.0297 96.6947 41.6923 97.5805 41.591 98.7279H48.0198C48.0198 98.0192 47.9101 97.3949 47.6907 96.855C47.4714 96.315 47.1339 95.8932 46.6783 95.5895C46.2228 95.2858 45.6406 95.1339 44.932 95.1339ZM60.9599 93.0585C62.546 93.0585 63.7609 93.455 64.6046 94.2481C65.4482 95.0411 65.8701 96.315 65.8701 98.0699V106.954H63.2125V98.4495C63.2125 97.3865 62.9847 96.5934 62.5291 96.0704C62.0904 95.5304 61.3817 95.2605 60.4031 95.2605C59.0195 95.2605 58.0577 95.6739 57.5178 96.5006C56.9947 97.3274 56.7331 98.517 56.7331 100.069V106.954H54.0503V93.3116H56.1763L56.556 95.1339H56.7078C57.0116 94.6615 57.3828 94.2734 57.8215 93.9696C58.2602 93.6659 58.7495 93.4381 59.2895 93.2863C59.8294 93.1344 60.3862 93.0585 60.9599 93.0585ZM81.2496 107.207C79.6129 107.207 78.2884 106.616 77.276 105.435C76.2804 104.254 75.7827 102.499 75.7827 100.171C75.7827 97.8252 76.2889 96.0535 77.3013 94.8555C78.3137 93.6575 79.6467 93.0585 81.3003 93.0585C81.9921 93.0585 82.5911 93.1513 83.0973 93.3369C83.6203 93.5056 84.0675 93.7419 84.4387 94.0456C84.8268 94.3493 85.1558 94.6868 85.4258 95.058H85.5776C85.5439 94.8217 85.5017 94.4843 85.4511 94.0456C85.4005 93.59 85.3752 93.185 85.3752 92.8307V87.7181H88.058V106.954H85.9573L85.5017 105.131H85.3752C85.1221 105.519 84.8015 105.874 84.4134 106.194C84.0422 106.498 83.595 106.743 83.072 106.928C82.5489 107.114 81.9414 107.207 81.2496 107.207ZM81.8824 105.005C83.1985 105.005 84.1265 104.642 84.6665 103.916C85.2064 103.174 85.4764 102.069 85.4764 100.601V100.196C85.4764 98.5929 85.2149 97.3696 84.6918 96.526C84.1856 95.6823 83.2407 95.2605 81.8571 95.2605C80.7603 95.2605 79.9335 95.7076 79.3767 96.6019C78.8199 97.4793 78.5415 98.6857 78.5415 100.221C78.5415 101.757 78.8199 102.938 79.3767 103.765C79.9335 104.591 80.7687 105.005 81.8824 105.005ZM94.591 89.1607C94.4391 89.7513 94.2451 90.3925 94.0088 91.0843C93.7726 91.7761 93.5195 92.4679 93.2495 93.1597C92.9796 93.8347 92.7012 94.4758 92.4143 95.0833H90.4654C90.5836 94.594 90.7017 94.0793 90.8198 93.5394C90.9548 92.9994 91.0729 92.4595 91.1741 91.9195C91.2922 91.3627 91.3935 90.8312 91.4778 90.325C91.5791 89.8019 91.6634 89.321 91.7309 88.8823H94.4138L94.591 89.1607ZM101.26 93.0585C102.981 93.0585 104.263 93.4381 105.107 94.1974C105.951 94.9399 106.372 96.1126 106.372 97.7155V106.954H104.474L103.943 105.055H103.841C103.453 105.545 103.048 105.95 102.627 106.27C102.222 106.591 101.749 106.827 101.209 106.979C100.686 107.131 100.045 107.207 99.2856 107.207C98.4757 107.207 97.7417 107.063 97.0836 106.777C96.4424 106.473 95.9362 106.017 95.565 105.41C95.1938 104.785 95.0082 104.009 95.0082 103.081C95.0082 101.698 95.5313 100.643 96.5774 99.9175C97.6404 99.1919 99.2518 98.7954 101.412 98.7279L103.74 98.652V97.8927C103.74 96.8803 103.512 96.1716 103.057 95.7667C102.601 95.3617 101.96 95.1592 101.133 95.1592C100.425 95.1592 99.7496 95.2605 99.1084 95.4629C98.4672 95.6654 97.8598 95.9101 97.2861 96.1969L96.4255 94.2481C97.0667 93.9106 97.8007 93.6322 98.6275 93.4128C99.4712 93.1766 100.349 93.0585 101.26 93.0585ZM101.893 100.449C100.34 100.516 99.2603 100.778 98.6528 101.234C98.0623 101.672 97.767 102.297 97.767 103.107C97.767 103.815 97.9779 104.33 98.3997 104.65C98.8384 104.971 99.3868 105.131 100.045 105.131C101.108 105.131 101.985 104.836 102.677 104.246C103.369 103.655 103.715 102.769 103.715 101.588V100.398L101.893 100.449ZM115.996 107.207C114.747 107.207 113.65 106.962 112.705 106.473C111.761 105.983 111.027 105.224 110.503 104.195C109.98 103.149 109.719 101.824 109.719 100.221C109.719 98.5339 109.997 97.1671 110.554 96.121C111.128 95.0748 111.895 94.3071 112.857 93.8178C113.836 93.3116 114.95 93.0585 116.198 93.0585C116.957 93.0585 117.666 93.1429 118.324 93.3116C118.999 93.4634 119.556 93.6406 119.995 93.8431L119.185 96.0198C118.712 95.8341 118.206 95.6739 117.666 95.5389C117.143 95.4039 116.645 95.3364 116.173 95.3364C115.329 95.3364 114.629 95.522 114.072 95.8932C113.532 96.2475 113.127 96.7875 112.857 97.513C112.604 98.2217 112.478 99.116 112.478 100.196C112.478 101.225 112.613 102.094 112.883 102.803C113.153 103.512 113.549 104.051 114.072 104.423C114.612 104.777 115.279 104.954 116.072 104.954C116.831 104.954 117.497 104.87 118.071 104.701C118.645 104.532 119.185 104.313 119.691 104.043V106.372C119.202 106.658 118.67 106.869 118.096 107.004C117.523 107.139 116.823 107.207 115.996 107.207ZM128.404 107.207C127.155 107.207 126.058 106.962 125.113 106.473C124.168 105.983 123.434 105.224 122.911 104.195C122.388 103.149 122.127 101.824 122.127 100.221C122.127 98.5339 122.405 97.1671 122.962 96.121C123.536 95.0748 124.303 94.3071 125.265 93.8178C126.244 93.3116 127.357 93.0585 128.606 93.0585C129.365 93.0585 130.074 93.1429 130.732 93.3116C131.407 93.4634 131.964 93.6406 132.403 93.8431L131.593 96.0198C131.12 95.8341 130.614 95.6739 130.074 95.5389C129.551 95.4039 129.053 95.3364 128.581 95.3364C127.737 95.3364 127.037 95.522 126.48 95.8932C125.94 96.2475 125.535 96.7875 125.265 97.513C125.012 98.2217 124.885 99.116 124.885 100.196C124.885 101.225 125.02 102.094 125.29 102.803C125.56 103.512 125.957 104.051 126.48 104.423C127.02 104.777 127.686 104.954 128.479 104.954C129.239 104.954 129.905 104.87 130.479 104.701C131.053 104.532 131.593 104.313 132.099 104.043V106.372C131.609 106.658 131.078 106.869 130.504 107.004C129.931 107.139 129.23 107.207 128.404 107.207ZM147.063 93.3116V106.954H144.912L144.532 105.157H144.405C144.119 105.629 143.747 106.017 143.292 106.321C142.836 106.625 142.338 106.844 141.798 106.979C141.259 107.131 140.702 107.207 140.128 107.207C139.065 107.207 138.162 107.038 137.42 106.701C136.694 106.346 136.137 105.806 135.749 105.081C135.378 104.338 135.193 103.393 135.193 102.246V93.3116H137.901V101.841C137.901 102.904 138.12 103.697 138.559 104.22C139.014 104.743 139.715 105.005 140.66 105.005C141.604 105.005 142.347 104.819 142.887 104.448C143.427 104.077 143.806 103.537 144.026 102.828C144.262 102.103 144.38 101.234 144.38 100.221V93.3116H147.063ZM156.627 93.0585C157.825 93.0585 158.854 93.3116 159.715 93.8178C160.576 94.3071 161.234 95.0158 161.689 95.9438C162.162 96.8719 162.398 97.9686 162.398 99.2341V100.702H153.236C153.269 102.103 153.632 103.174 154.324 103.916C155.033 104.659 156.02 105.03 157.285 105.03C158.163 105.03 158.939 104.954 159.614 104.802C160.306 104.634 161.014 104.389 161.74 104.068V106.296C161.065 106.599 160.373 106.827 159.664 106.979C158.973 107.131 158.146 107.207 157.184 107.207C155.868 107.207 154.704 106.945 153.691 106.422C152.679 105.899 151.886 105.123 151.312 104.094C150.755 103.047 150.477 101.765 150.477 100.247C150.477 98.7111 150.73 97.4118 151.236 96.3488C151.759 95.2858 152.476 94.4758 153.387 93.919C154.316 93.3453 155.395 93.0585 156.627 93.0585ZM156.627 95.1339C155.665 95.1339 154.889 95.4461 154.299 96.0704C153.725 96.6947 153.387 97.5805 153.286 98.7279H159.715C159.715 98.0192 159.605 97.3949 159.386 96.855C159.167 96.315 158.829 95.8932 158.374 95.5895C157.918 95.2858 157.336 95.1339 156.627 95.1339ZM168.428 93.3116V106.954H165.745V93.3116H168.428ZM167.112 88.123C167.517 88.123 167.872 88.2411 168.175 88.4774C168.479 88.7136 168.631 89.1101 168.631 89.6669C168.631 90.2069 168.479 90.6034 168.175 90.8565C167.872 91.0927 167.517 91.2109 167.112 91.2109C166.674 91.2109 166.302 91.0927 165.999 90.8565C165.712 90.6034 165.568 90.2069 165.568 89.6669C165.568 89.1101 165.712 88.7136 165.999 88.4774C166.302 88.2411 166.674 88.123 167.112 88.123ZM175.324 106.954H172.641V87.7181H175.324V106.954Z" fill="black"/>
<path d="M348.94 104.454V90.1737H350.74V102.854H356.98V104.454H348.94ZM360.088 89.7137C360.355 89.7137 360.588 89.807 360.788 89.9937C361.002 90.167 361.108 90.447 361.108 90.8337C361.108 91.207 361.002 91.487 360.788 91.6737C360.588 91.8603 360.355 91.9537 360.088 91.9537C359.795 91.9537 359.548 91.8603 359.348 91.6737C359.148 91.487 359.048 91.207 359.048 90.8337C359.048 90.447 359.148 90.167 359.348 89.9937C359.548 89.807 359.795 89.7137 360.088 89.7137ZM360.948 93.7337V104.454H359.188V93.7337H360.948ZM368.485 93.5337C369.405 93.5337 370.191 93.7337 370.845 94.1337C371.511 94.5337 372.018 95.1003 372.365 95.8337C372.725 96.5537 372.905 97.4003 372.905 98.3737V99.4337H365.565C365.591 100.647 365.898 101.574 366.485 102.214C367.085 102.84 367.918 103.154 368.985 103.154C369.665 103.154 370.265 103.094 370.785 102.974C371.318 102.84 371.865 102.654 372.425 102.414V103.954C371.878 104.194 371.338 104.367 370.805 104.474C370.271 104.594 369.638 104.654 368.905 104.654C367.891 104.654 366.991 104.447 366.205 104.034C365.431 103.62 364.825 103.007 364.385 102.194C363.958 101.367 363.745 100.36 363.745 99.1737C363.745 98.0003 363.938 96.9937 364.325 96.1537C364.725 95.3137 365.278 94.667 365.985 94.2137C366.705 93.7603 367.538 93.5337 368.485 93.5337ZM368.465 94.9737C367.625 94.9737 366.958 95.247 366.465 95.7937C365.985 96.327 365.698 97.0737 365.605 98.0337H371.065C371.051 97.127 370.838 96.3937 370.425 95.8337C370.011 95.2603 369.358 94.9737 368.465 94.9737ZM380.794 93.5337C382.074 93.5337 383.04 93.847 383.694 94.4737C384.347 95.087 384.674 96.087 384.674 97.4737V104.454H382.934V97.5937C382.934 95.8737 382.134 95.0137 380.534 95.0137C379.347 95.0137 378.527 95.347 378.074 96.0137C377.62 96.6803 377.394 97.6403 377.394 98.8937V104.454H375.634V93.7337H377.054L377.314 95.1937H377.414C377.76 94.6337 378.24 94.2203 378.854 93.9537C379.467 93.6737 380.114 93.5337 380.794 93.5337ZM396.992 104.654C395.659 104.654 394.592 104.194 393.792 103.274C392.992 102.34 392.592 100.954 392.592 99.1137C392.592 97.2737 392.992 95.887 393.792 94.9537C394.606 94.007 395.679 93.5337 397.012 93.5337C397.839 93.5337 398.512 93.687 399.032 93.9937C399.566 94.3003 399.999 94.6737 400.332 95.1137H400.452C400.439 94.9403 400.412 94.687 400.372 94.3537C400.346 94.007 400.332 93.7337 400.332 93.5337V89.2537H402.092V104.454H400.672L400.412 103.014H400.332C400.012 103.467 399.586 103.854 399.052 104.174C398.519 104.494 397.832 104.654 396.992 104.654ZM397.272 103.194C398.406 103.194 399.199 102.887 399.652 102.274C400.119 101.647 400.352 100.707 400.352 99.4537V99.1337C400.352 97.8003 400.132 96.7803 399.692 96.0737C399.252 95.3537 398.439 94.9937 397.252 94.9937C396.306 94.9937 395.592 95.3737 395.112 96.1337C394.646 96.8803 394.412 97.887 394.412 99.1537C394.412 100.434 394.646 101.427 395.112 102.134C395.592 102.84 396.312 103.194 397.272 103.194ZM409.637 93.5337C410.557 93.5337 411.344 93.7337 411.997 94.1337C412.664 94.5337 413.17 95.1003 413.517 95.8337C413.877 96.5537 414.057 97.4003 414.057 98.3737V99.4337H406.717C406.744 100.647 407.05 101.574 407.637 102.214C408.237 102.84 409.07 103.154 410.137 103.154C410.817 103.154 411.417 103.094 411.937 102.974C412.47 102.84 413.017 102.654 413.577 102.414V103.954C413.03 104.194 412.49 104.367 411.957 104.474C411.424 104.594 410.79 104.654 410.057 104.654C409.044 104.654 408.144 104.447 407.357 104.034C406.584 103.62 405.977 103.007 405.537 102.194C405.11 101.367 404.897 100.36 404.897 99.1737C404.897 98.0003 405.09 96.9937 405.477 96.1537C405.877 95.3137 406.43 94.667 407.137 94.2137C407.857 93.7603 408.69 93.5337 409.637 93.5337ZM409.617 94.9737C408.777 94.9737 408.11 95.247 407.617 95.7937C407.137 96.327 406.85 97.0737 406.757 98.0337H412.217C412.204 97.127 411.99 96.3937 411.577 95.8337C411.164 95.2603 410.51 94.9737 409.617 94.9737ZM427.141 93.5337C428.421 93.5337 429.388 93.847 430.041 94.4737C430.695 95.087 431.021 96.087 431.021 97.4737V104.454H429.281V97.5937C429.281 95.8737 428.481 95.0137 426.881 95.0137C425.695 95.0137 424.875 95.347 424.421 96.0137C423.968 96.6803 423.741 97.6403 423.741 98.8937V104.454H421.981V93.7337H423.401L423.661 95.1937H423.761C424.108 94.6337 424.588 94.2203 425.201 93.9537C425.815 93.6737 426.461 93.5337 427.141 93.5337ZM438.405 93.5537C439.711 93.5537 440.678 93.8403 441.305 94.4137C441.931 94.987 442.245 95.9003 442.245 97.1537V104.454H440.965L440.625 102.934H440.545C440.078 103.52 439.585 103.954 439.065 104.234C438.558 104.514 437.851 104.654 436.945 104.654C435.971 104.654 435.165 104.4 434.525 103.894C433.885 103.374 433.565 102.567 433.565 101.474C433.565 100.407 433.985 99.587 434.825 99.0137C435.665 98.427 436.958 98.107 438.705 98.0537L440.525 97.9937V97.3537C440.525 96.4603 440.331 95.8403 439.945 95.4937C439.558 95.147 439.011 94.9737 438.305 94.9737C437.745 94.9737 437.211 95.0603 436.705 95.2337C436.198 95.3937 435.725 95.5803 435.285 95.7937L434.745 94.4737C435.211 94.2203 435.765 94.007 436.405 93.8337C437.045 93.647 437.711 93.5537 438.405 93.5537ZM438.925 99.2737C437.591 99.327 436.665 99.5403 436.145 99.9137C435.638 100.287 435.385 100.814 435.385 101.494C435.385 102.094 435.565 102.534 435.925 102.814C436.298 103.094 436.771 103.234 437.345 103.234C438.251 103.234 439.005 102.987 439.605 102.494C440.205 101.987 440.505 101.214 440.505 100.174V99.2137L438.925 99.2737ZM447.915 104.454L443.855 93.7337H445.735L448.015 100.054C448.122 100.347 448.235 100.674 448.355 101.034C448.475 101.394 448.582 101.74 448.675 102.074C448.769 102.394 448.835 102.667 448.875 102.894H448.955C449.009 102.667 449.082 102.387 449.175 102.054C449.282 101.72 449.395 101.374 449.515 101.014C449.649 100.654 449.762 100.334 449.855 100.054L452.135 93.7337H454.015L449.935 104.454H447.915ZM456.612 89.7137C456.878 89.7137 457.112 89.807 457.312 89.9937C457.525 90.167 457.632 90.447 457.632 90.8337C457.632 91.207 457.525 91.487 457.312 91.6737C457.112 91.8603 456.878 91.9537 456.612 91.9537C456.318 91.9537 456.072 91.8603 455.872 91.6737C455.672 91.487 455.572 91.207 455.572 90.8337C455.572 90.447 455.672 90.167 455.872 89.9937C456.072 89.807 456.318 89.7137 456.612 89.7137ZM457.472 93.7337V104.454H455.712V93.7337H457.472ZM464.668 93.5337C465.375 93.5337 466.008 93.667 466.568 93.9337C467.141 94.2003 467.628 94.607 468.028 95.1537H468.128L468.368 93.7337H469.768V104.634C469.768 106.167 469.375 107.32 468.588 108.094C467.815 108.867 466.608 109.254 464.968 109.254C463.395 109.254 462.108 109.027 461.108 108.574V106.954C462.161 107.514 463.481 107.794 465.068 107.794C465.988 107.794 466.708 107.52 467.228 106.974C467.761 106.44 468.028 105.707 468.028 104.774V104.354C468.028 104.194 468.035 103.967 468.048 103.674C468.061 103.367 468.075 103.154 468.088 103.034H468.008C467.288 104.114 466.181 104.654 464.688 104.654C463.301 104.654 462.215 104.167 461.428 103.194C460.655 102.22 460.268 100.86 460.268 99.1137C460.268 97.407 460.655 96.0537 461.428 95.0537C462.215 94.0403 463.295 93.5337 464.668 93.5337ZM464.908 95.0137C464.015 95.0137 463.321 95.3737 462.828 96.0937C462.335 96.8003 462.088 97.8137 462.088 99.1337C462.088 100.454 462.328 101.467 462.808 102.174C463.301 102.867 464.015 103.214 464.948 103.214C466.028 103.214 466.815 102.927 467.308 102.354C467.801 101.767 468.048 100.827 468.048 99.5337V99.1137C468.048 97.647 467.795 96.6003 467.288 95.9737C466.781 95.3337 465.988 95.0137 464.908 95.0137ZM477.233 93.5537C478.539 93.5537 479.506 93.8403 480.133 94.4137C480.759 94.987 481.073 95.9003 481.073 97.1537V104.454H479.793L479.453 102.934H479.373C478.906 103.52 478.413 103.954 477.893 104.234C477.386 104.514 476.679 104.654 475.773 104.654C474.799 104.654 473.993 104.4 473.353 103.894C472.713 103.374 472.393 102.567 472.393 101.474C472.393 100.407 472.813 99.587 473.653 99.0137C474.493 98.427 475.786 98.107 477.533 98.0537L479.353 97.9937V97.3537C479.353 96.4603 479.159 95.8403 478.773 95.4937C478.386 95.147 477.839 94.9737 477.133 94.9737C476.573 94.9737 476.039 95.0603 475.533 95.2337C475.026 95.3937 474.553 95.5803 474.113 95.7937L473.573 94.4737C474.039 94.2203 474.593 94.007 475.233 93.8337C475.873 93.647 476.539 93.5537 477.233 93.5537ZM477.753 99.2737C476.419 99.327 475.493 99.5403 474.973 99.9137C474.466 100.287 474.213 100.814 474.213 101.494C474.213 102.094 474.393 102.534 474.753 102.814C475.126 103.094 475.599 103.234 476.173 103.234C477.079 103.234 477.833 102.987 478.433 102.494C479.033 101.987 479.333 101.214 479.333 100.174V99.2137L477.753 99.2737ZM487.964 103.214C488.23 103.214 488.504 103.194 488.784 103.154C489.064 103.1 489.29 103.047 489.464 102.994V104.334C489.277 104.427 489.01 104.5 488.664 104.554C488.317 104.62 487.984 104.654 487.664 104.654C487.104 104.654 486.584 104.56 486.104 104.374C485.637 104.174 485.257 103.834 484.964 103.354C484.67 102.874 484.524 102.2 484.524 101.334V95.0937H483.004V94.2537L484.544 93.5537L485.244 91.2737H486.284V93.7337H489.384V95.0937H486.284V101.294C486.284 101.947 486.437 102.434 486.744 102.754C487.064 103.06 487.47 103.214 487.964 103.214ZM492.51 89.7137C492.777 89.7137 493.01 89.807 493.21 89.9937C493.423 90.167 493.53 90.447 493.53 90.8337C493.53 91.207 493.423 91.487 493.21 91.6737C493.01 91.8603 492.777 91.9537 492.51 91.9537C492.217 91.9537 491.97 91.8603 491.77 91.6737C491.57 91.487 491.47 91.207 491.47 90.8337C491.47 90.447 491.57 90.167 491.77 89.9937C491.97 89.807 492.217 89.7137 492.51 89.7137ZM493.37 93.7337V104.454H491.61V93.7337H493.37ZM506.086 99.0737C506.086 100.847 505.633 102.22 504.726 103.194C503.833 104.167 502.62 104.654 501.086 104.654C500.14 104.654 499.293 104.44 498.546 104.014C497.813 103.574 497.233 102.94 496.806 102.114C496.38 101.274 496.166 100.26 496.166 99.0737C496.166 97.3003 496.613 95.9337 497.506 94.9737C498.4 94.0137 499.613 93.5337 501.146 93.5337C502.12 93.5337 502.973 93.7537 503.706 94.1937C504.453 94.6203 505.033 95.247 505.446 96.0737C505.873 96.887 506.086 97.887 506.086 99.0737ZM497.986 99.0737C497.986 100.34 498.233 101.347 498.726 102.094C499.233 102.827 500.033 103.194 501.126 103.194C502.206 103.194 503 102.827 503.506 102.094C504.013 101.347 504.266 100.34 504.266 99.0737C504.266 97.807 504.013 96.8137 503.506 96.0937C503 95.3737 502.2 95.0137 501.106 95.0137C500.013 95.0137 499.22 95.3737 498.726 96.0937C498.233 96.8137 497.986 97.807 497.986 99.0737ZM514.036 93.5337C515.316 93.5337 516.282 93.847 516.936 94.4737C517.589 95.087 517.916 96.087 517.916 97.4737V104.454H516.176V97.5937C516.176 95.8737 515.376 95.0137 513.776 95.0137C512.589 95.0137 511.769 95.347 511.316 96.0137C510.862 96.6803 510.636 97.6403 510.636 98.8937V104.454H508.876V93.7337H510.296L510.556 95.1937H510.656C511.002 94.6337 511.482 94.2203 512.096 93.9537C512.709 93.6737 513.356 93.5337 514.036 93.5337Z" fill="black"/>
<path d="M557.94 104.454V90.1737H559.74V102.854H565.98V104.454H557.94ZM569.088 89.7137C569.355 89.7137 569.588 89.807 569.788 89.9937C570.002 90.167 570.108 90.447 570.108 90.8337C570.108 91.207 570.002 91.487 569.788 91.6737C569.588 91.8603 569.355 91.9537 569.088 91.9537C568.795 91.9537 568.548 91.8603 568.348 91.6737C568.148 91.487 568.048 91.207 568.048 90.8337C568.048 90.447 568.148 90.167 568.348 89.9937C568.548 89.807 568.795 89.7137 569.088 89.7137ZM569.948 93.7337V104.454H568.188V93.7337H569.948ZM575.105 92.9537C575.105 93.407 575.091 93.8337 575.065 94.2337C575.051 94.6203 575.031 94.927 575.005 95.1537H575.105C575.411 94.7003 575.831 94.3203 576.365 94.0137C576.898 93.707 577.585 93.5537 578.425 93.5537C579.758 93.5537 580.825 94.0203 581.625 94.9537C582.438 95.8737 582.845 97.2537 582.845 99.0937C582.845 100.934 582.438 102.32 581.625 103.254C580.811 104.187 579.745 104.654 578.425 104.654C577.585 104.654 576.898 104.5 576.365 104.194C575.831 103.887 575.411 103.52 575.105 103.094H574.965L574.605 104.454H573.345V89.2537H575.105V92.9537ZM578.125 95.0137C576.991 95.0137 576.205 95.3403 575.765 95.9937C575.325 96.647 575.105 97.6603 575.105 99.0337V99.1137C575.105 100.434 575.318 101.447 575.745 102.154C576.185 102.847 576.991 103.194 578.165 103.194C579.125 103.194 579.838 102.84 580.305 102.134C580.785 101.427 581.025 100.407 581.025 99.0737C581.025 96.367 580.058 95.0137 578.125 95.0137ZM589.789 93.5337C590.709 93.5337 591.496 93.7337 592.149 94.1337C592.816 94.5337 593.323 95.1003 593.669 95.8337C594.029 96.5537 594.209 97.4003 594.209 98.3737V99.4337H586.869C586.896 100.647 587.203 101.574 587.789 102.214C588.389 102.84 589.223 103.154 590.289 103.154C590.969 103.154 591.569 103.094 592.089 102.974C592.623 102.84 593.169 102.654 593.729 102.414V103.954C593.183 104.194 592.643 104.367 592.109 104.474C591.576 104.594 590.943 104.654 590.209 104.654C589.196 104.654 588.296 104.447 587.509 104.034C586.736 103.62 586.129 103.007 585.689 102.194C585.263 101.367 585.049 100.36 585.049 99.1737C585.049 98.0003 585.243 96.9937 585.629 96.1537C586.029 95.3137 586.583 94.667 587.289 94.2137C588.009 93.7603 588.843 93.5337 589.789 93.5337ZM589.769 94.9737C588.929 94.9737 588.263 95.247 587.769 95.7937C587.289 96.327 587.003 97.0737 586.909 98.0337H592.369C592.356 97.127 592.143 96.3937 591.729 95.8337C591.316 95.2603 590.663 94.9737 589.769 94.9737ZM598.698 104.454H596.938V89.2537H598.698V104.454ZM603.855 104.454H602.095V89.2537H603.855V104.454ZM611.391 93.5337C612.311 93.5337 613.097 93.7337 613.751 94.1337C614.417 94.5337 614.924 95.1003 615.271 95.8337C615.631 96.5537 615.811 97.4003 615.811 98.3737V99.4337H608.471C608.497 100.647 608.804 101.574 609.391 102.214C609.991 102.84 610.824 103.154 611.891 103.154C612.571 103.154 613.171 103.094 613.691 102.974C614.224 102.84 614.771 102.654 615.331 102.414V103.954C614.784 104.194 614.244 104.367 613.711 104.474C613.177 104.594 612.544 104.654 611.811 104.654C610.797 104.654 609.897 104.447 609.111 104.034C608.337 103.62 607.731 103.007 607.291 102.194C606.864 101.367 606.651 100.36 606.651 99.1737C606.651 98.0003 606.844 96.9937 607.231 96.1537C607.631 95.3137 608.184 94.667 608.891 94.2137C609.611 93.7603 610.444 93.5337 611.391 93.5337ZM611.371 94.9737C610.531 94.9737 609.864 95.247 609.371 95.7937C608.891 96.327 608.604 97.0737 608.511 98.0337H613.971C613.957 97.127 613.744 96.3937 613.331 95.8337C612.917 95.2603 612.264 94.9737 611.371 94.9737ZM614.211 89.3337C614.051 89.5737 613.804 89.887 613.471 90.2737C613.137 90.647 612.777 91.027 612.391 91.4137C612.017 91.787 611.671 92.0937 611.351 92.3337H610.191V92.0937C610.391 91.8403 610.604 91.5403 610.831 91.1937C611.071 90.847 611.304 90.4937 611.531 90.1337C611.757 89.7603 611.944 89.427 612.091 89.1337H614.211V89.3337ZM627.535 104.654C626.202 104.654 625.135 104.194 624.335 103.274C623.535 102.34 623.135 100.954 623.135 99.1137C623.135 97.2737 623.535 95.887 624.335 94.9537C625.148 94.007 626.222 93.5337 627.555 93.5337C628.382 93.5337 629.055 93.687 629.575 93.9937C630.108 94.3003 630.542 94.6737 630.875 95.1137H630.995C630.982 94.9403 630.955 94.687 630.915 94.3537C630.888 94.007 630.875 93.7337 630.875 93.5337V89.2537H632.635V104.454H631.215L630.955 103.014H630.875C630.555 103.467 630.128 103.854 629.595 104.174C629.062 104.494 628.375 104.654 627.535 104.654ZM627.815 103.194C628.948 103.194 629.742 102.887 630.195 102.274C630.662 101.647 630.895 100.707 630.895 99.4537V99.1337C630.895 97.8003 630.675 96.7803 630.235 96.0737C629.795 95.3537 628.982 94.9937 627.795 94.9937C626.848 94.9937 626.135 95.3737 625.655 96.1337C625.188 96.8803 624.955 97.887 624.955 99.1537C624.955 100.434 625.188 101.427 625.655 102.134C626.135 102.84 626.855 103.194 627.815 103.194ZM645 93.7337V104.454H643.56L643.3 103.034H643.22C642.873 103.594 642.393 104.007 641.78 104.274C641.167 104.527 640.513 104.654 639.82 104.654C638.527 104.654 637.553 104.347 636.9 103.734C636.247 103.107 635.92 102.114 635.92 100.754V93.7337H637.7V100.634C637.7 102.34 638.493 103.194 640.08 103.194C641.267 103.194 642.087 102.86 642.54 102.194C643.007 101.527 643.24 100.567 643.24 99.3137V93.7337H645ZM657.398 93.5337C658.105 93.5337 658.738 93.667 659.298 93.9337C659.872 94.2003 660.358 94.607 660.758 95.1537H660.858L661.098 93.7337H662.498V104.634C662.498 106.167 662.105 107.32 661.318 108.094C660.545 108.867 659.338 109.254 657.698 109.254C656.125 109.254 654.838 109.027 653.838 108.574V106.954C654.892 107.514 656.212 107.794 657.798 107.794C658.718 107.794 659.438 107.52 659.958 106.974C660.492 106.44 660.758 105.707 660.758 104.774V104.354C660.758 104.194 660.765 103.967 660.778 103.674C660.792 103.367 660.805 103.154 660.818 103.034H660.738C660.018 104.114 658.912 104.654 657.418 104.654C656.032 104.654 654.945 104.167 654.158 103.194C653.385 102.22 652.998 100.86 652.998 99.1137C652.998 97.407 653.385 96.0537 654.158 95.0537C654.945 94.0403 656.025 93.5337 657.398 93.5337ZM657.638 95.0137C656.745 95.0137 656.052 95.3737 655.558 96.0937C655.065 96.8003 654.818 97.8137 654.818 99.1337C654.818 100.454 655.058 101.467 655.538 102.174C656.032 102.867 656.745 103.214 657.678 103.214C658.758 103.214 659.545 102.927 660.038 102.354C660.532 101.767 660.778 100.827 660.778 99.5337V99.1137C660.778 97.647 660.525 96.6003 660.018 95.9737C659.512 95.3337 658.718 95.0137 657.638 95.0137ZM670.903 93.5337C671.103 93.5337 671.316 93.547 671.543 93.5737C671.783 93.587 671.99 93.6137 672.163 93.6537L671.943 95.2737C671.77 95.2337 671.576 95.2003 671.363 95.1737C671.163 95.147 670.97 95.1337 670.783 95.1337C670.236 95.1337 669.723 95.287 669.243 95.5937C668.763 95.887 668.376 96.307 668.083 96.8537C667.803 97.387 667.663 98.0137 667.663 98.7337V104.454H665.903V93.7337H667.343L667.543 95.6937H667.623C667.97 95.107 668.416 94.6003 668.963 94.1737C669.51 93.747 670.156 93.5337 670.903 93.5337ZM683.094 99.0737C683.094 100.847 682.641 102.22 681.734 103.194C680.841 104.167 679.628 104.654 678.094 104.654C677.148 104.654 676.301 104.44 675.554 104.014C674.821 103.574 674.241 102.94 673.814 102.114C673.388 101.274 673.174 100.26 673.174 99.0737C673.174 97.3003 673.621 95.9337 674.514 94.9737C675.408 94.0137 676.621 93.5337 678.154 93.5337C679.128 93.5337 679.981 93.7537 680.714 94.1937C681.461 94.6203 682.041 95.247 682.454 96.0737C682.881 96.887 683.094 97.887 683.094 99.0737ZM674.994 99.0737C674.994 100.34 675.241 101.347 675.734 102.094C676.241 102.827 677.041 103.194 678.134 103.194C679.214 103.194 680.008 102.827 680.514 102.094C681.021 101.347 681.274 100.34 681.274 99.0737C681.274 97.807 681.021 96.8137 680.514 96.0937C680.008 95.3737 679.208 95.0137 678.114 95.0137C677.021 95.0137 676.228 95.3737 675.734 96.0937C675.241 96.8137 674.994 97.807 674.994 99.0737ZM694.844 93.7337V104.454H693.404L693.144 103.034H693.064C692.717 103.594 692.237 104.007 691.624 104.274C691.01 104.527 690.357 104.654 689.664 104.654C688.37 104.654 687.397 104.347 686.744 103.734C686.09 103.107 685.764 102.114 685.764 100.754V93.7337H687.544V100.634C687.544 102.34 688.337 103.194 689.924 103.194C691.11 103.194 691.93 102.86 692.384 102.194C692.85 101.527 693.084 100.567 693.084 99.3137V93.7337H694.844ZM703.347 93.5337C704.667 93.5337 705.727 93.9937 706.527 94.9137C707.34 95.8337 707.747 97.2203 707.747 99.0737C707.747 100.9 707.34 102.287 706.527 103.234C705.727 104.18 704.66 104.654 703.327 104.654C702.5 104.654 701.814 104.5 701.267 104.194C700.734 103.874 700.314 103.507 700.007 103.094H699.887C699.914 103.32 699.94 103.607 699.967 103.954C699.994 104.3 700.007 104.6 700.007 104.854V109.254H698.247V93.7337H699.687L699.927 95.1937H700.007C700.327 94.727 700.747 94.3337 701.267 94.0137C701.787 93.6937 702.48 93.5337 703.347 93.5337ZM703.027 95.0137C701.934 95.0137 701.16 95.3203 700.707 95.9337C700.267 96.547 700.034 97.4803 700.007 98.7337V99.0737C700.007 100.394 700.22 101.414 700.647 102.134C701.087 102.84 701.894 103.194 703.067 103.194C703.72 103.194 704.254 103.014 704.667 102.654C705.094 102.294 705.407 101.807 705.607 101.194C705.82 100.567 705.927 99.8537 705.927 99.0537C705.927 97.827 705.687 96.847 705.207 96.1137C704.74 95.3803 704.014 95.0137 703.027 95.0137ZM714.692 93.5337C715.612 93.5337 716.398 93.7337 717.052 94.1337C717.718 94.5337 718.225 95.1003 718.572 95.8337C718.932 96.5537 719.112 97.4003 719.112 98.3737V99.4337H711.772C711.798 100.647 712.105 101.574 712.692 102.214C713.292 102.84 714.125 103.154 715.192 103.154C715.872 103.154 716.472 103.094 716.992 102.974C717.525 102.84 718.072 102.654 718.632 102.414V103.954C718.085 104.194 717.545 104.367 717.012 104.474C716.478 104.594 715.845 104.654 715.112 104.654C714.098 104.654 713.198 104.447 712.412 104.034C711.638 103.62 711.032 103.007 710.592 102.194C710.165 101.367 709.952 100.36 709.952 99.1737C709.952 98.0003 710.145 96.9937 710.532 96.1537C710.932 95.3137 711.485 94.667 712.192 94.2137C712.912 93.7603 713.745 93.5337 714.692 93.5337ZM714.672 94.9737C713.832 94.9737 713.165 95.247 712.672 95.7937C712.192 96.327 711.905 97.0737 711.812 98.0337H717.272C717.258 97.127 717.045 96.3937 716.632 95.8337C716.218 95.2603 715.565 94.9737 714.672 94.9737ZM730.836 104.654C729.503 104.654 728.436 104.194 727.636 103.274C726.836 102.34 726.436 100.954 726.436 99.1137C726.436 97.2737 726.836 95.887 727.636 94.9537C728.449 94.007 729.523 93.5337 730.856 93.5337C731.683 93.5337 732.356 93.687 732.876 93.9937C733.409 94.3003 733.843 94.6737 734.176 95.1137H734.296C734.283 94.9403 734.256 94.687 734.216 94.3537C734.189 94.007 734.176 93.7337 734.176 93.5337V89.2537H735.936V104.454H734.516L734.256 103.014H734.176C733.856 103.467 733.429 103.854 732.896 104.174C732.363 104.494 731.676 104.654 730.836 104.654ZM731.116 103.194C732.249 103.194 733.043 102.887 733.496 102.274C733.963 101.647 734.196 100.707 734.196 99.4537V99.1337C734.196 97.8003 733.976 96.7803 733.536 96.0737C733.096 95.3537 732.283 94.9937 731.096 94.9937C730.149 94.9937 729.436 95.3737 728.956 96.1337C728.489 96.8803 728.256 97.887 728.256 99.1537C728.256 100.434 728.489 101.427 728.956 102.134C729.436 102.84 730.156 103.194 731.116 103.194ZM743.481 93.5337C744.401 93.5337 745.187 93.7337 745.841 94.1337C746.507 94.5337 747.014 95.1003 747.361 95.8337C747.721 96.5537 747.901 97.4003 747.901 98.3737V99.4337H740.561C740.587 100.647 740.894 101.574 741.481 102.214C742.081 102.84 742.914 103.154 743.981 103.154C744.661 103.154 745.261 103.094 745.781 102.974C746.314 102.84 746.861 102.654 747.421 102.414V103.954C746.874 104.194 746.334 104.367 745.801 104.474C745.267 104.594 744.634 104.654 743.901 104.654C742.887 104.654 741.987 104.447 741.201 104.034C740.427 103.62 739.821 103.007 739.381 102.194C738.954 101.367 738.741 100.36 738.741 99.1737C738.741 98.0003 738.934 96.9937 739.321 96.1537C739.721 95.3137 740.274 94.667 740.981 94.2137C741.701 93.7603 742.534 93.5337 743.481 93.5337ZM743.461 94.9737C742.621 94.9737 741.954 95.247 741.461 95.7937C740.981 96.327 740.694 97.0737 740.601 98.0337H746.061C746.047 97.127 745.834 96.3937 745.421 95.8337C745.007 95.2603 744.354 94.9737 743.461 94.9737ZM760.985 93.5337C762.265 93.5337 763.232 93.847 763.885 94.4737C764.538 95.087 764.865 96.087 764.865 97.4737V104.454H763.125V97.5937C763.125 95.8737 762.325 95.0137 760.725 95.0137C759.538 95.0137 758.718 95.347 758.265 96.0137C757.812 96.6803 757.585 97.6403 757.585 98.8937V104.454H755.825V93.7337H757.245L757.505 95.1937H757.605C757.952 94.6337 758.432 94.2203 759.045 93.9537C759.658 93.6737 760.305 93.5337 760.985 93.5337ZM772.248 93.5537C773.555 93.5537 774.522 93.8403 775.148 94.4137C775.775 94.987 776.088 95.9003 776.088 97.1537V104.454H774.808L774.468 102.934H774.388C773.922 103.52 773.428 103.954 772.908 104.234C772.402 104.514 771.695 104.654 770.788 104.654C769.815 104.654 769.008 104.4 768.368 103.894C767.728 103.374 767.408 102.567 767.408 101.474C767.408 100.407 767.828 99.587 768.668 99.0137C769.508 98.427 770.802 98.107 772.548 98.0537L774.368 97.9937V97.3537C774.368 96.4603 774.175 95.8403 773.788 95.4937C773.402 95.147 772.855 94.9737 772.148 94.9737C771.588 94.9737 771.055 95.0603 770.548 95.2337C770.042 95.3937 769.568 95.5803 769.128 95.7937L768.588 94.4737C769.055 94.2203 769.608 94.007 770.248 93.8337C770.888 93.647 771.555 93.5537 772.248 93.5537ZM772.768 99.2737C771.435 99.327 770.508 99.5403 769.988 99.9137C769.482 100.287 769.228 100.814 769.228 101.494C769.228 102.094 769.408 102.534 769.768 102.814C770.142 103.094 770.615 103.234 771.188 103.234C772.095 103.234 772.848 102.987 773.448 102.494C774.048 101.987 774.348 101.214 774.348 100.174V99.2137L772.768 99.2737ZM781.759 104.454L777.699 93.7337H779.579L781.859 100.054C781.966 100.347 782.079 100.674 782.199 101.034C782.319 101.394 782.426 101.74 782.519 102.074C782.613 102.394 782.679 102.667 782.719 102.894H782.799C782.853 102.667 782.926 102.387 783.019 102.054C783.126 101.72 783.239 101.374 783.359 101.014C783.493 100.654 783.606 100.334 783.699 100.054L785.979 93.7337H787.859L783.779 104.454H781.759ZM790.455 89.7137C790.722 89.7137 790.955 89.807 791.155 89.9937C791.369 90.167 791.475 90.447 791.475 90.8337C791.475 91.207 791.369 91.487 791.155 91.6737C790.955 91.8603 790.722 91.9537 790.455 91.9537C790.162 91.9537 789.915 91.8603 789.715 91.6737C789.515 91.487 789.415 91.207 789.415 90.8337C789.415 90.447 789.515 90.167 789.715 89.9937C789.915 89.807 790.162 89.7137 790.455 89.7137ZM791.315 93.7337V104.454H789.555V93.7337H791.315ZM798.512 93.5337C799.218 93.5337 799.852 93.667 800.412 93.9337C800.985 94.2003 801.472 94.607 801.872 95.1537H801.972L802.212 93.7337H803.612V104.634C803.612 106.167 803.218 107.32 802.432 108.094C801.658 108.867 800.452 109.254 798.812 109.254C797.238 109.254 795.952 109.027 794.952 108.574V106.954C796.005 107.514 797.325 107.794 798.912 107.794C799.832 107.794 800.552 107.52 801.072 106.974C801.605 106.44 801.872 105.707 801.872 104.774V104.354C801.872 104.194 801.878 103.967 801.892 103.674C801.905 103.367 801.918 103.154 801.932 103.034H801.852C801.132 104.114 800.025 104.654 798.532 104.654C797.145 104.654 796.058 104.167 795.272 103.194C794.498 102.22 794.112 100.86 794.112 99.1137C794.112 97.407 794.498 96.0537 795.272 95.0537C796.058 94.0403 797.138 93.5337 798.512 93.5337ZM798.752 95.0137C797.858 95.0137 797.165 95.3737 796.672 96.0937C796.178 96.8003 795.932 97.8137 795.932 99.1337C795.932 100.454 796.172 101.467 796.652 102.174C797.145 102.867 797.858 103.214 798.792 103.214C799.872 103.214 800.658 102.927 801.152 102.354C801.645 101.767 801.892 100.827 801.892 99.5337V99.1137C801.892 97.647 801.638 96.6003 801.132 95.9737C800.625 95.3337 799.832 95.0137 798.752 95.0137ZM811.076 93.5537C812.383 93.5537 813.35 93.8403 813.976 94.4137C814.603 94.987 814.916 95.9003 814.916 97.1537V104.454H813.636L813.296 102.934H813.216C812.75 103.52 812.256 103.954 811.736 104.234C811.23 104.514 810.523 104.654 809.616 104.654C808.643 104.654 807.836 104.4 807.196 103.894C806.556 103.374 806.236 102.567 806.236 101.474C806.236 100.407 806.656 99.587 807.496 99.0137C808.336 98.427 809.63 98.107 811.376 98.0537L813.196 97.9937V97.3537C813.196 96.4603 813.003 95.8403 812.616 95.4937C812.23 95.147 811.683 94.9737 810.976 94.9737C810.416 94.9737 809.883 95.0603 809.376 95.2337C808.87 95.3937 808.396 95.5803 807.956 95.7937L807.416 94.4737C807.883 94.2203 808.436 94.007 809.076 93.8337C809.716 93.647 810.383 93.5537 811.076 93.5537ZM811.596 99.2737C810.263 99.327 809.336 99.5403 808.816 99.9137C808.31 100.287 808.056 100.814 808.056 101.494C808.056 102.094 808.236 102.534 808.596 102.814C808.97 103.094 809.443 103.234 810.016 103.234C810.923 103.234 811.676 102.987 812.276 102.494C812.876 101.987 813.176 101.214 813.176 100.174V99.2137L811.596 99.2737ZM821.807 103.214C822.074 103.214 822.347 103.194 822.627 103.154C822.907 103.1 823.134 103.047 823.307 102.994V104.334C823.121 104.427 822.854 104.5 822.507 104.554C822.161 104.62 821.827 104.654 821.507 104.654C820.947 104.654 820.427 104.56 819.947 104.374C819.481 104.174 819.101 103.834 818.807 103.354C818.514 102.874 818.367 102.2 818.367 101.334V95.0937H816.847V94.2537L818.387 93.5537L819.087 91.2737H820.127V93.7337H823.227V95.0937H820.127V101.294C820.127 101.947 820.281 102.434 820.587 102.754C820.907 103.06 821.314 103.214 821.807 103.214ZM826.354 89.7137C826.621 89.7137 826.854 89.807 827.054 89.9937C827.267 90.167 827.374 90.447 827.374 90.8337C827.374 91.207 827.267 91.487 827.054 91.6737C826.854 91.8603 826.621 91.9537 826.354 91.9537C826.061 91.9537 825.814 91.8603 825.614 91.6737C825.414 91.487 825.314 91.207 825.314 90.8337C825.314 90.447 825.414 90.167 825.614 89.9937C825.814 89.807 826.061 89.7137 826.354 89.7137ZM827.214 93.7337V104.454H825.454V93.7337H827.214ZM839.93 99.0737C839.93 100.847 839.477 102.22 838.57 103.194C837.677 104.167 836.463 104.654 834.93 104.654C833.983 104.654 833.137 104.44 832.39 104.014C831.657 103.574 831.077 102.94 830.65 102.114C830.223 101.274 830.01 100.26 830.01 99.0737C830.01 97.3003 830.457 95.9337 831.35 94.9737C832.243 94.0137 833.457 93.5337 834.99 93.5337C835.963 93.5337 836.817 93.7537 837.55 94.1937C838.297 94.6203 838.877 95.247 839.29 96.0737C839.717 96.887 839.93 97.887 839.93 99.0737ZM831.83 99.0737C831.83 100.34 832.077 101.347 832.57 102.094C833.077 102.827 833.877 103.194 834.97 103.194C836.05 103.194 836.843 102.827 837.35 102.094C837.857 101.347 838.11 100.34 838.11 99.0737C838.11 97.807 837.857 96.8137 837.35 96.0937C836.843 95.3737 836.043 95.0137 834.95 95.0137C833.857 95.0137 833.063 95.3737 832.57 96.0937C832.077 96.8137 831.83 97.807 831.83 99.0737ZM847.88 93.5337C849.16 93.5337 850.126 93.847 850.78 94.4737C851.433 95.087 851.76 96.087 851.76 97.4737V104.454H850.02V97.5937C850.02 95.8737 849.22 95.0137 847.62 95.0137C846.433 95.0137 845.613 95.347 845.16 96.0137C844.706 96.6803 844.48 97.6403 844.48 98.8937V104.454H842.72V93.7337H844.14L844.4 95.1937H844.5C844.846 94.6337 845.326 94.2203 845.94 93.9537C846.553 93.6737 847.2 93.5337 847.88 93.5337Z" fill="black"/>
<path d="M877 103.843C876.687 103.843 876.41 103.738 876.201 103.53L869.535 96.8634C869.083 96.4467 869.083 95.7176 869.535 95.3009C869.951 94.8495 870.681 94.8495 871.097 95.3009L877 101.169L882.868 95.3009C883.285 94.8495 884.014 94.8495 884.431 95.3009C884.882 95.7176 884.882 96.4467 884.431 96.8634L877.764 103.53C877.556 103.738 877.278 103.843 877 103.843Z" fill="black"/>
<g filter="url(#filter0_d_31_361)">
<g clip-path="url(#clip0_31_361)">
<rect x="554" y="130" width="320" height="266" rx="6" fill="#F1F2F3"/>
<mask id="path-8-inside-1_31_361" fill="white">
<path d="M566 142H862V198H566V142Z"/>
</mask>
<path d="M566 142H862V198H566V142Z" fill="#D7E5F5"/>
<path d="M582.94 178V163.72H584.74V176.4H590.98V178H582.94ZM594.088 163.26C594.355 163.26 594.588 163.353 594.788 163.54C595.002 163.713 595.108 163.993 595.108 164.38C595.108 164.753 595.002 165.033 594.788 165.22C594.588 165.407 594.355 165.5 594.088 165.5C593.795 165.5 593.548 165.407 593.348 165.22C593.148 165.033 593.048 164.753 593.048 164.38C593.048 163.993 593.148 163.713 593.348 163.54C593.548 163.353 593.795 163.26 594.088 163.26ZM594.948 167.28V178H593.188V167.28H594.948ZM602.485 167.08C603.405 167.08 604.191 167.28 604.845 167.68C605.511 168.08 606.018 168.647 606.365 169.38C606.725 170.1 606.905 170.947 606.905 171.92V172.98H599.565C599.591 174.193 599.898 175.12 600.485 175.76C601.085 176.387 601.918 176.7 602.985 176.7C603.665 176.7 604.265 176.64 604.785 176.52C605.318 176.387 605.865 176.2 606.425 175.96V177.5C605.878 177.74 605.338 177.913 604.805 178.02C604.271 178.14 603.638 178.2 602.905 178.2C601.891 178.2 600.991 177.993 600.205 177.58C599.431 177.167 598.825 176.553 598.385 175.74C597.958 174.913 597.745 173.907 597.745 172.72C597.745 171.547 597.938 170.54 598.325 169.7C598.725 168.86 599.278 168.213 599.985 167.76C600.705 167.307 601.538 167.08 602.485 167.08ZM602.465 168.52C601.625 168.52 600.958 168.793 600.465 169.34C599.985 169.873 599.698 170.62 599.605 171.58H605.065C605.051 170.673 604.838 169.94 604.425 169.38C604.011 168.807 603.358 168.52 602.465 168.52ZM614.794 167.08C616.074 167.08 617.04 167.393 617.694 168.02C618.347 168.633 618.674 169.633 618.674 171.02V178H616.934V171.14C616.934 169.42 616.134 168.56 614.534 168.56C613.347 168.56 612.527 168.893 612.074 169.56C611.62 170.227 611.394 171.187 611.394 172.44V178H609.634V167.28H611.054L611.314 168.74H611.414C611.76 168.18 612.24 167.767 612.854 167.5C613.467 167.22 614.114 167.08 614.794 167.08ZM630.992 178.2C629.659 178.2 628.592 177.74 627.792 176.82C626.992 175.887 626.592 174.5 626.592 172.66C626.592 170.82 626.992 169.433 627.792 168.5C628.606 167.553 629.679 167.08 631.012 167.08C631.839 167.08 632.512 167.233 633.032 167.54C633.566 167.847 633.999 168.22 634.332 168.66H634.452C634.439 168.487 634.412 168.233 634.372 167.9C634.346 167.553 634.332 167.28 634.332 167.08V162.8H636.092V178H634.672L634.412 176.56H634.332C634.012 177.013 633.586 177.4 633.052 177.72C632.519 178.04 631.832 178.2 630.992 178.2ZM631.272 176.74C632.406 176.74 633.199 176.433 633.652 175.82C634.119 175.193 634.352 174.253 634.352 173V172.68C634.352 171.347 634.132 170.327 633.692 169.62C633.252 168.9 632.439 168.54 631.252 168.54C630.306 168.54 629.592 168.92 629.112 169.68C628.646 170.427 628.412 171.433 628.412 172.7C628.412 173.98 628.646 174.973 629.112 175.68C629.592 176.387 630.312 176.74 631.272 176.74ZM643.637 167.08C644.557 167.08 645.344 167.28 645.997 167.68C646.664 168.08 647.17 168.647 647.517 169.38C647.877 170.1 648.057 170.947 648.057 171.92V172.98H640.717C640.744 174.193 641.05 175.12 641.637 175.76C642.237 176.387 643.07 176.7 644.137 176.7C644.817 176.7 645.417 176.64 645.937 176.52C646.47 176.387 647.017 176.2 647.577 175.96V177.5C647.03 177.74 646.49 177.913 645.957 178.02C645.424 178.14 644.79 178.2 644.057 178.2C643.044 178.2 642.144 177.993 641.357 177.58C640.584 177.167 639.977 176.553 639.537 175.74C639.11 174.913 638.897 173.907 638.897 172.72C638.897 171.547 639.09 170.54 639.477 169.7C639.877 168.86 640.43 168.213 641.137 167.76C641.857 167.307 642.69 167.08 643.637 167.08ZM643.617 168.52C642.777 168.52 642.11 168.793 641.617 169.34C641.137 169.873 640.85 170.62 640.757 171.58H646.217C646.204 170.673 645.99 169.94 645.577 169.38C645.164 168.807 644.51 168.52 643.617 168.52ZM661.141 167.08C662.421 167.08 663.388 167.393 664.041 168.02C664.695 168.633 665.021 169.633 665.021 171.02V178H663.281V171.14C663.281 169.42 662.481 168.56 660.881 168.56C659.695 168.56 658.875 168.893 658.421 169.56C657.968 170.227 657.741 171.187 657.741 172.44V178H655.981V167.28H657.401L657.661 168.74H657.761C658.108 168.18 658.588 167.767 659.201 167.5C659.815 167.22 660.461 167.08 661.141 167.08ZM672.405 167.1C673.711 167.1 674.678 167.387 675.305 167.96C675.931 168.533 676.245 169.447 676.245 170.7V178H674.965L674.625 176.48H674.545C674.078 177.067 673.585 177.5 673.065 177.78C672.558 178.06 671.851 178.2 670.945 178.2C669.971 178.2 669.165 177.947 668.525 177.44C667.885 176.92 667.565 176.113 667.565 175.02C667.565 173.953 667.985 173.133 668.825 172.56C669.665 171.973 670.958 171.653 672.705 171.6L674.525 171.54V170.9C674.525 170.007 674.331 169.387 673.945 169.04C673.558 168.693 673.011 168.52 672.305 168.52C671.745 168.52 671.211 168.607 670.705 168.78C670.198 168.94 669.725 169.127 669.285 169.34L668.745 168.02C669.211 167.767 669.765 167.553 670.405 167.38C671.045 167.193 671.711 167.1 672.405 167.1ZM672.925 172.82C671.591 172.873 670.665 173.087 670.145 173.46C669.638 173.833 669.385 174.36 669.385 175.04C669.385 175.64 669.565 176.08 669.925 176.36C670.298 176.64 670.771 176.78 671.345 176.78C672.251 176.78 673.005 176.533 673.605 176.04C674.205 175.533 674.505 174.76 674.505 173.72V172.76L672.925 172.82ZM681.915 178L677.855 167.28H679.735L682.015 173.6C682.122 173.893 682.235 174.22 682.355 174.58C682.475 174.94 682.582 175.287 682.675 175.62C682.769 175.94 682.835 176.213 682.875 176.44H682.955C683.009 176.213 683.082 175.933 683.175 175.6C683.282 175.267 683.395 174.92 683.515 174.56C683.649 174.2 683.762 173.88 683.855 173.6L686.135 167.28H688.015L683.935 178H681.915ZM690.612 163.26C690.878 163.26 691.112 163.353 691.312 163.54C691.525 163.713 691.632 163.993 691.632 164.38C691.632 164.753 691.525 165.033 691.312 165.22C691.112 165.407 690.878 165.5 690.612 165.5C690.318 165.5 690.072 165.407 689.872 165.22C689.672 165.033 689.572 164.753 689.572 164.38C689.572 163.993 689.672 163.713 689.872 163.54C690.072 163.353 690.318 163.26 690.612 163.26ZM691.472 167.28V178H689.712V167.28H691.472ZM698.668 167.08C699.375 167.08 700.008 167.213 700.568 167.48C701.141 167.747 701.628 168.153 702.028 168.7H702.128L702.368 167.28H703.768V178.18C703.768 179.713 703.375 180.867 702.588 181.64C701.815 182.413 700.608 182.8 698.968 182.8C697.395 182.8 696.108 182.573 695.108 182.12V180.5C696.161 181.06 697.481 181.34 699.068 181.34C699.988 181.34 700.708 181.067 701.228 180.52C701.761 179.987 702.028 179.253 702.028 178.32V177.9C702.028 177.74 702.035 177.513 702.048 177.22C702.061 176.913 702.075 176.7 702.088 176.58H702.008C701.288 177.66 700.181 178.2 698.688 178.2C697.301 178.2 696.215 177.713 695.428 176.74C694.655 175.767 694.268 174.407 694.268 172.66C694.268 170.953 694.655 169.6 695.428 168.6C696.215 167.587 697.295 167.08 698.668 167.08ZM698.908 168.56C698.015 168.56 697.321 168.92 696.828 169.64C696.335 170.347 696.088 171.36 696.088 172.68C696.088 174 696.328 175.013 696.808 175.72C697.301 176.413 698.015 176.76 698.948 176.76C700.028 176.76 700.815 176.473 701.308 175.9C701.801 175.313 702.048 174.373 702.048 173.08V172.66C702.048 171.193 701.795 170.147 701.288 169.52C700.781 168.88 699.988 168.56 698.908 168.56ZM711.233 167.1C712.539 167.1 713.506 167.387 714.133 167.96C714.759 168.533 715.073 169.447 715.073 170.7V178H713.793L713.453 176.48H713.373C712.906 177.067 712.413 177.5 711.893 177.78C711.386 178.06 710.679 178.2 709.773 178.2C708.799 178.2 707.993 177.947 707.353 177.44C706.713 176.92 706.393 176.113 706.393 175.02C706.393 173.953 706.813 173.133 707.653 172.56C708.493 171.973 709.786 171.653 711.533 171.6L713.353 171.54V170.9C713.353 170.007 713.159 169.387 712.773 169.04C712.386 168.693 711.839 168.52 711.133 168.52C710.573 168.52 710.039 168.607 709.533 168.78C709.026 168.94 708.553 169.127 708.113 169.34L707.573 168.02C708.039 167.767 708.593 167.553 709.233 167.38C709.873 167.193 710.539 167.1 711.233 167.1ZM711.753 172.82C710.419 172.873 709.493 173.087 708.973 173.46C708.466 173.833 708.213 174.36 708.213 175.04C708.213 175.64 708.393 176.08 708.753 176.36C709.126 176.64 709.599 176.78 710.173 176.78C711.079 176.78 711.833 176.533 712.433 176.04C713.033 175.533 713.333 174.76 713.333 173.72V172.76L711.753 172.82ZM721.964 176.76C722.23 176.76 722.504 176.74 722.784 176.7C723.064 176.647 723.29 176.593 723.464 176.54V177.88C723.277 177.973 723.01 178.047 722.664 178.1C722.317 178.167 721.984 178.2 721.664 178.2C721.104 178.2 720.584 178.107 720.104 177.92C719.637 177.72 719.257 177.38 718.964 176.9C718.67 176.42 718.524 175.747 718.524 174.88V168.64H717.004V167.8L718.544 167.1L719.244 164.82H720.284V167.28H723.384V168.64H720.284V174.84C720.284 175.493 720.437 175.98 720.744 176.3C721.064 176.607 721.47 176.76 721.964 176.76ZM726.51 163.26C726.777 163.26 727.01 163.353 727.21 163.54C727.423 163.713 727.53 163.993 727.53 164.38C727.53 164.753 727.423 165.033 727.21 165.22C727.01 165.407 726.777 165.5 726.51 165.5C726.217 165.5 725.97 165.407 725.77 165.22C725.57 165.033 725.47 164.753 725.47 164.38C725.47 163.993 725.57 163.713 725.77 163.54C725.97 163.353 726.217 163.26 726.51 163.26ZM727.37 167.28V178H725.61V167.28H727.37ZM740.086 172.62C740.086 174.393 739.633 175.767 738.726 176.74C737.833 177.713 736.62 178.2 735.086 178.2C734.14 178.2 733.293 177.987 732.546 177.56C731.813 177.12 731.233 176.487 730.806 175.66C730.38 174.82 730.166 173.807 730.166 172.62C730.166 170.847 730.613 169.48 731.506 168.52C732.4 167.56 733.613 167.08 735.146 167.08C736.12 167.08 736.973 167.3 737.706 167.74C738.453 168.167 739.033 168.793 739.446 169.62C739.873 170.433 740.086 171.433 740.086 172.62ZM731.986 172.62C731.986 173.887 732.233 174.893 732.726 175.64C733.233 176.373 734.033 176.74 735.126 176.74C736.206 176.74 737 176.373 737.506 175.64C738.013 174.893 738.266 173.887 738.266 172.62C738.266 171.353 738.013 170.36 737.506 169.64C737 168.92 736.2 168.56 735.106 168.56C734.013 168.56 733.22 168.92 732.726 169.64C732.233 170.36 731.986 171.353 731.986 172.62ZM748.036 167.08C749.316 167.08 750.282 167.393 750.936 168.02C751.589 168.633 751.916 169.633 751.916 171.02V178H750.176V171.14C750.176 169.42 749.376 168.56 747.776 168.56C746.589 168.56 745.769 168.893 745.316 169.56C744.862 170.227 744.636 171.187 744.636 172.44V178H742.876V167.28H744.296L744.556 168.74H744.656C745.002 168.18 745.482 167.767 746.096 167.5C746.709 167.22 747.356 167.08 748.036 167.08Z" fill="black"/>
<path d="M581 180.5H753.536V181.5H581V180.5Z" fill="black"/>
<path d="M570 198V142H562V198H570Z" fill="#425A76" mask="url(#path-8-inside-1_31_361)"/>
<path d="M582.94 240V225.72H584.74V238.4H590.98V240H582.94ZM594.088 225.26C594.355 225.26 594.588 225.353 594.788 225.54C595.002 225.713 595.108 225.993 595.108 226.38C595.108 226.753 595.002 227.033 594.788 227.22C594.588 227.407 594.355 227.5 594.088 227.5C593.795 227.5 593.548 227.407 593.348 227.22C593.148 227.033 593.048 226.753 593.048 226.38C593.048 225.993 593.148 225.713 593.348 225.54C593.548 225.353 593.795 225.26 594.088 225.26ZM594.948 229.28V240H593.188V229.28H594.948ZM602.485 229.08C603.405 229.08 604.191 229.28 604.845 229.68C605.511 230.08 606.018 230.647 606.365 231.38C606.725 232.1 606.905 232.947 606.905 233.92V234.98H599.565C599.591 236.193 599.898 237.12 600.485 237.76C601.085 238.387 601.918 238.7 602.985 238.7C603.665 238.7 604.265 238.64 604.785 238.52C605.318 238.387 605.865 238.2 606.425 237.96V239.5C605.878 239.74 605.338 239.913 604.805 240.02C604.271 240.14 603.638 240.2 602.905 240.2C601.891 240.2 600.991 239.993 600.205 239.58C599.431 239.167 598.825 238.553 598.385 237.74C597.958 236.913 597.745 235.907 597.745 234.72C597.745 233.547 597.938 232.54 598.325 231.7C598.725 230.86 599.278 230.213 599.985 229.76C600.705 229.307 601.538 229.08 602.485 229.08ZM602.465 230.52C601.625 230.52 600.958 230.793 600.465 231.34C599.985 231.873 599.698 232.62 599.605 233.58H605.065C605.051 232.673 604.838 231.94 604.425 231.38C604.011 230.807 603.358 230.52 602.465 230.52ZM614.794 229.08C616.074 229.08 617.04 229.393 617.694 230.02C618.347 230.633 618.674 231.633 618.674 233.02V240H616.934V233.14C616.934 231.42 616.134 230.56 614.534 230.56C613.347 230.56 612.527 230.893 612.074 231.56C611.62 232.227 611.394 233.187 611.394 234.44V240H609.634V229.28H611.054L611.314 230.74H611.414C611.76 230.18 612.24 229.767 612.854 229.5C613.467 229.22 614.114 229.08 614.794 229.08ZM630.992 240.2C629.659 240.2 628.592 239.74 627.792 238.82C626.992 237.887 626.592 236.5 626.592 234.66C626.592 232.82 626.992 231.433 627.792 230.5C628.606 229.553 629.679 229.08 631.012 229.08C631.839 229.08 632.512 229.233 633.032 229.54C633.566 229.847 633.999 230.22 634.332 230.66H634.452C634.439 230.487 634.412 230.233 634.372 229.9C634.346 229.553 634.332 229.28 634.332 229.08V224.8H636.092V240H634.672L634.412 238.56H634.332C634.012 239.013 633.586 239.4 633.052 239.72C632.519 240.04 631.832 240.2 630.992 240.2ZM631.272 238.74C632.406 238.74 633.199 238.433 633.652 237.82C634.119 237.193 634.352 236.253 634.352 235V234.68C634.352 233.347 634.132 232.327 633.692 231.62C633.252 230.9 632.439 230.54 631.252 230.54C630.306 230.54 629.592 230.92 629.112 231.68C628.646 232.427 628.412 233.433 628.412 234.7C628.412 235.98 628.646 236.973 629.112 237.68C629.592 238.387 630.312 238.74 631.272 238.74ZM643.637 229.08C644.557 229.08 645.344 229.28 645.997 229.68C646.664 230.08 647.17 230.647 647.517 231.38C647.877 232.1 648.057 232.947 648.057 233.92V234.98H640.717C640.744 236.193 641.05 237.12 641.637 237.76C642.237 238.387 643.07 238.7 644.137 238.7C644.817 238.7 645.417 238.64 645.937 238.52C646.47 238.387 647.017 238.2 647.577 237.96V239.5C647.03 239.74 646.49 239.913 645.957 240.02C645.424 240.14 644.79 240.2 644.057 240.2C643.044 240.2 642.144 239.993 641.357 239.58C640.584 239.167 639.977 238.553 639.537 237.74C639.11 236.913 638.897 235.907 638.897 234.72C638.897 233.547 639.09 232.54 639.477 231.7C639.877 230.86 640.43 230.213 641.137 229.76C641.857 229.307 642.69 229.08 643.637 229.08ZM643.617 230.52C642.777 230.52 642.11 230.793 641.617 231.34C641.137 231.873 640.85 232.62 640.757 233.58H646.217C646.204 232.673 645.99 231.94 645.577 231.38C645.164 230.807 644.51 230.52 643.617 230.52ZM661.141 229.08C662.421 229.08 663.388 229.393 664.041 230.02C664.695 230.633 665.021 231.633 665.021 233.02V240H663.281V233.14C663.281 231.42 662.481 230.56 660.881 230.56C659.695 230.56 658.875 230.893 658.421 231.56C657.968 232.227 657.741 233.187 657.741 234.44V240H655.981V229.28H657.401L657.661 230.74H657.761C658.108 230.18 658.588 229.767 659.201 229.5C659.815 229.22 660.461 229.08 661.141 229.08ZM672.405 229.1C673.711 229.1 674.678 229.387 675.305 229.96C675.931 230.533 676.245 231.447 676.245 232.7V240H674.965L674.625 238.48H674.545C674.078 239.067 673.585 239.5 673.065 239.78C672.558 240.06 671.851 240.2 670.945 240.2C669.971 240.2 669.165 239.947 668.525 239.44C667.885 238.92 667.565 238.113 667.565 237.02C667.565 235.953 667.985 235.133 668.825 234.56C669.665 233.973 670.958 233.653 672.705 233.6L674.525 233.54V232.9C674.525 232.007 674.331 231.387 673.945 231.04C673.558 230.693 673.011 230.52 672.305 230.52C671.745 230.52 671.211 230.607 670.705 230.78C670.198 230.94 669.725 231.127 669.285 231.34L668.745 230.02C669.211 229.767 669.765 229.553 670.405 229.38C671.045 229.193 671.711 229.1 672.405 229.1ZM672.925 234.82C671.591 234.873 670.665 235.087 670.145 235.46C669.638 235.833 669.385 236.36 669.385 237.04C669.385 237.64 669.565 238.08 669.925 238.36C670.298 238.64 670.771 238.78 671.345 238.78C672.251 238.78 673.005 238.533 673.605 238.04C674.205 237.533 674.505 236.76 674.505 235.72V234.76L672.925 234.82ZM681.915 240L677.855 229.28H679.735L682.015 235.6C682.122 235.893 682.235 236.22 682.355 236.58C682.475 236.94 682.582 237.287 682.675 237.62C682.769 237.94 682.835 238.213 682.875 238.44H682.955C683.009 238.213 683.082 237.933 683.175 237.6C683.282 237.267 683.395 236.92 683.515 236.56C683.649 236.2 683.762 235.88 683.855 235.6L686.135 229.28H688.015L683.935 240H681.915ZM690.612 225.26C690.878 225.26 691.112 225.353 691.312 225.54C691.525 225.713 691.632 225.993 691.632 226.38C691.632 226.753 691.525 227.033 691.312 227.22C691.112 227.407 690.878 227.5 690.612 227.5C690.318 227.5 690.072 227.407 689.872 227.22C689.672 227.033 689.572 226.753 689.572 226.38C689.572 225.993 689.672 225.713 689.872 225.54C690.072 225.353 690.318 225.26 690.612 225.26ZM691.472 229.28V240H689.712V229.28H691.472ZM698.668 229.08C699.375 229.08 700.008 229.213 700.568 229.48C701.141 229.747 701.628 230.153 702.028 230.7H702.128L702.368 229.28H703.768V240.18C703.768 241.713 703.375 242.867 702.588 243.64C701.815 244.413 700.608 244.8 698.968 244.8C697.395 244.8 696.108 244.573 695.108 244.12V242.5C696.161 243.06 697.481 243.34 699.068 243.34C699.988 243.34 700.708 243.067 701.228 242.52C701.761 241.987 702.028 241.253 702.028 240.32V239.9C702.028 239.74 702.035 239.513 702.048 239.22C702.061 238.913 702.075 238.7 702.088 238.58H702.008C701.288 239.66 700.181 240.2 698.688 240.2C697.301 240.2 696.215 239.713 695.428 238.74C694.655 237.767 694.268 236.407 694.268 234.66C694.268 232.953 694.655 231.6 695.428 230.6C696.215 229.587 697.295 229.08 698.668 229.08ZM698.908 230.56C698.015 230.56 697.321 230.92 696.828 231.64C696.335 232.347 696.088 233.36 696.088 234.68C696.088 236 696.328 237.013 696.808 237.72C697.301 238.413 698.015 238.76 698.948 238.76C700.028 238.76 700.815 238.473 701.308 237.9C701.801 237.313 702.048 236.373 702.048 235.08V234.66C702.048 233.193 701.795 232.147 701.288 231.52C700.781 230.88 699.988 230.56 698.908 230.56ZM711.233 229.1C712.539 229.1 713.506 229.387 714.133 229.96C714.759 230.533 715.073 231.447 715.073 232.7V240H713.793L713.453 238.48H713.373C712.906 239.067 712.413 239.5 711.893 239.78C711.386 240.06 710.679 240.2 709.773 240.2C708.799 240.2 707.993 239.947 707.353 239.44C706.713 238.92 706.393 238.113 706.393 237.02C706.393 235.953 706.813 235.133 707.653 234.56C708.493 233.973 709.786 233.653 711.533 233.6L713.353 233.54V232.9C713.353 232.007 713.159 231.387 712.773 231.04C712.386 230.693 711.839 230.52 711.133 230.52C710.573 230.52 710.039 230.607 709.533 230.78C709.026 230.94 708.553 231.127 708.113 231.34L707.573 230.02C708.039 229.767 708.593 229.553 709.233 229.38C709.873 229.193 710.539 229.1 711.233 229.1ZM711.753 234.82C710.419 234.873 709.493 235.087 708.973 235.46C708.466 235.833 708.213 236.36 708.213 237.04C708.213 237.64 708.393 238.08 708.753 238.36C709.126 238.64 709.599 238.78 710.173 238.78C711.079 238.78 711.833 238.533 712.433 238.04C713.033 237.533 713.333 236.76 713.333 235.72V234.76L711.753 234.82ZM721.964 238.76C722.23 238.76 722.504 238.74 722.784 238.7C723.064 238.647 723.29 238.593 723.464 238.54V239.88C723.277 239.973 723.01 240.047 722.664 240.1C722.317 240.167 721.984 240.2 721.664 240.2C721.104 240.2 720.584 240.107 720.104 239.92C719.637 239.72 719.257 239.38 718.964 238.9C718.67 238.42 718.524 237.747 718.524 236.88V230.64H717.004V229.8L718.544 229.1L719.244 226.82H720.284V229.28H723.384V230.64H720.284V236.84C720.284 237.493 720.437 237.98 720.744 238.3C721.064 238.607 721.47 238.76 721.964 238.76ZM726.51 225.26C726.777 225.26 727.01 225.353 727.21 225.54C727.423 225.713 727.53 225.993 727.53 226.38C727.53 226.753 727.423 227.033 727.21 227.22C727.01 227.407 726.777 227.5 726.51 227.5C726.217 227.5 725.97 227.407 725.77 227.22C725.57 227.033 725.47 226.753 725.47 226.38C725.47 225.993 725.57 225.713 725.77 225.54C725.97 225.353 726.217 225.26 726.51 225.26ZM727.37 229.28V240H725.61V229.28H727.37ZM740.086 234.62C740.086 236.393 739.633 237.767 738.726 238.74C737.833 239.713 736.62 240.2 735.086 240.2C734.14 240.2 733.293 239.987 732.546 239.56C731.813 239.12 731.233 238.487 730.806 237.66C730.38 236.82 730.166 235.807 730.166 234.62C730.166 232.847 730.613 231.48 731.506 230.52C732.4 229.56 733.613 229.08 735.146 229.08C736.12 229.08 736.973 229.3 737.706 229.74C738.453 230.167 739.033 230.793 739.446 231.62C739.873 232.433 740.086 233.433 740.086 234.62ZM731.986 234.62C731.986 235.887 732.233 236.893 732.726 237.64C733.233 238.373 734.033 238.74 735.126 238.74C736.206 238.74 737 238.373 737.506 237.64C738.013 236.893 738.266 235.887 738.266 234.62C738.266 233.353 738.013 232.36 737.506 231.64C737 230.92 736.2 230.56 735.106 230.56C734.013 230.56 733.22 230.92 732.726 231.64C732.233 232.36 731.986 233.353 731.986 234.62ZM748.036 229.08C749.316 229.08 750.282 229.393 750.936 230.02C751.589 230.633 751.916 231.633 751.916 233.02V240H750.176V233.14C750.176 231.42 749.376 230.56 747.776 230.56C746.589 230.56 745.769 230.893 745.316 231.56C744.862 232.227 744.636 233.187 744.636 234.44V240H742.876V229.28H744.296L744.556 230.74H744.656C745.002 230.18 745.482 229.767 746.096 229.5C746.709 229.22 747.356 229.08 748.036 229.08Z" fill="black"/>
<path d="M581 242.5H753.536V243.5H581V242.5Z" fill="black"/>
<path d="M582.94 302V287.72H584.74V300.4H590.98V302H582.94ZM594.088 287.26C594.355 287.26 594.588 287.353 594.788 287.54C595.002 287.713 595.108 287.993 595.108 288.38C595.108 288.753 595.002 289.033 594.788 289.22C594.588 289.407 594.355 289.5 594.088 289.5C593.795 289.5 593.548 289.407 593.348 289.22C593.148 289.033 593.048 288.753 593.048 288.38C593.048 287.993 593.148 287.713 593.348 287.54C593.548 287.353 593.795 287.26 594.088 287.26ZM594.948 291.28V302H593.188V291.28H594.948ZM602.485 291.08C603.405 291.08 604.191 291.28 604.845 291.68C605.511 292.08 606.018 292.647 606.365 293.38C606.725 294.1 606.905 294.947 606.905 295.92V296.98H599.565C599.591 298.193 599.898 299.12 600.485 299.76C601.085 300.387 601.918 300.7 602.985 300.7C603.665 300.7 604.265 300.64 604.785 300.52C605.318 300.387 605.865 300.2 606.425 299.96V301.5C605.878 301.74 605.338 301.913 604.805 302.02C604.271 302.14 603.638 302.2 602.905 302.2C601.891 302.2 600.991 301.993 600.205 301.58C599.431 301.167 598.825 300.553 598.385 299.74C597.958 298.913 597.745 297.907 597.745 296.72C597.745 295.547 597.938 294.54 598.325 293.7C598.725 292.86 599.278 292.213 599.985 291.76C600.705 291.307 601.538 291.08 602.485 291.08ZM602.465 292.52C601.625 292.52 600.958 292.793 600.465 293.34C599.985 293.873 599.698 294.62 599.605 295.58H605.065C605.051 294.673 604.838 293.94 604.425 293.38C604.011 292.807 603.358 292.52 602.465 292.52ZM614.794 291.08C616.074 291.08 617.04 291.393 617.694 292.02C618.347 292.633 618.674 293.633 618.674 295.02V302H616.934V295.14C616.934 293.42 616.134 292.56 614.534 292.56C613.347 292.56 612.527 292.893 612.074 293.56C611.62 294.227 611.394 295.187 611.394 296.44V302H609.634V291.28H611.054L611.314 292.74H611.414C611.76 292.18 612.24 291.767 612.854 291.5C613.467 291.22 614.114 291.08 614.794 291.08ZM630.992 302.2C629.659 302.2 628.592 301.74 627.792 300.82C626.992 299.887 626.592 298.5 626.592 296.66C626.592 294.82 626.992 293.433 627.792 292.5C628.606 291.553 629.679 291.08 631.012 291.08C631.839 291.08 632.512 291.233 633.032 291.54C633.566 291.847 633.999 292.22 634.332 292.66H634.452C634.439 292.487 634.412 292.233 634.372 291.9C634.346 291.553 634.332 291.28 634.332 291.08V286.8H636.092V302H634.672L634.412 300.56H634.332C634.012 301.013 633.586 301.4 633.052 301.72C632.519 302.04 631.832 302.2 630.992 302.2ZM631.272 300.74C632.406 300.74 633.199 300.433 633.652 299.82C634.119 299.193 634.352 298.253 634.352 297V296.68C634.352 295.347 634.132 294.327 633.692 293.62C633.252 292.9 632.439 292.54 631.252 292.54C630.306 292.54 629.592 292.92 629.112 293.68C628.646 294.427 628.412 295.433 628.412 296.7C628.412 297.98 628.646 298.973 629.112 299.68C629.592 300.387 630.312 300.74 631.272 300.74ZM643.637 291.08C644.557 291.08 645.344 291.28 645.997 291.68C646.664 292.08 647.17 292.647 647.517 293.38C647.877 294.1 648.057 294.947 648.057 295.92V296.98H640.717C640.744 298.193 641.05 299.12 641.637 299.76C642.237 300.387 643.07 300.7 644.137 300.7C644.817 300.7 645.417 300.64 645.937 300.52C646.47 300.387 647.017 300.2 647.577 299.96V301.5C647.03 301.74 646.49 301.913 645.957 302.02C645.424 302.14 644.79 302.2 644.057 302.2C643.044 302.2 642.144 301.993 641.357 301.58C640.584 301.167 639.977 300.553 639.537 299.74C639.11 298.913 638.897 297.907 638.897 296.72C638.897 295.547 639.09 294.54 639.477 293.7C639.877 292.86 640.43 292.213 641.137 291.76C641.857 291.307 642.69 291.08 643.637 291.08ZM643.617 292.52C642.777 292.52 642.11 292.793 641.617 293.34C641.137 293.873 640.85 294.62 640.757 295.58H646.217C646.204 294.673 645.99 293.94 645.577 293.38C645.164 292.807 644.51 292.52 643.617 292.52ZM661.141 291.08C662.421 291.08 663.388 291.393 664.041 292.02C664.695 292.633 665.021 293.633 665.021 295.02V302H663.281V295.14C663.281 293.42 662.481 292.56 660.881 292.56C659.695 292.56 658.875 292.893 658.421 293.56C657.968 294.227 657.741 295.187 657.741 296.44V302H655.981V291.28H657.401L657.661 292.74H657.761C658.108 292.18 658.588 291.767 659.201 291.5C659.815 291.22 660.461 291.08 661.141 291.08ZM672.405 291.1C673.711 291.1 674.678 291.387 675.305 291.96C675.931 292.533 676.245 293.447 676.245 294.7V302H674.965L674.625 300.48H674.545C674.078 301.067 673.585 301.5 673.065 301.78C672.558 302.06 671.851 302.2 670.945 302.2C669.971 302.2 669.165 301.947 668.525 301.44C667.885 300.92 667.565 300.113 667.565 299.02C667.565 297.953 667.985 297.133 668.825 296.56C669.665 295.973 670.958 295.653 672.705 295.6L674.525 295.54V294.9C674.525 294.007 674.331 293.387 673.945 293.04C673.558 292.693 673.011 292.52 672.305 292.52C671.745 292.52 671.211 292.607 670.705 292.78C670.198 292.94 669.725 293.127 669.285 293.34L668.745 292.02C669.211 291.767 669.765 291.553 670.405 291.38C671.045 291.193 671.711 291.1 672.405 291.1ZM672.925 296.82C671.591 296.873 670.665 297.087 670.145 297.46C669.638 297.833 669.385 298.36 669.385 299.04C669.385 299.64 669.565 300.08 669.925 300.36C670.298 300.64 670.771 300.78 671.345 300.78C672.251 300.78 673.005 300.533 673.605 300.04C674.205 299.533 674.505 298.76 674.505 297.72V296.76L672.925 296.82ZM681.915 302L677.855 291.28H679.735L682.015 297.6C682.122 297.893 682.235 298.22 682.355 298.58C682.475 298.94 682.582 299.287 682.675 299.62C682.769 299.94 682.835 300.213 682.875 300.44H682.955C683.009 300.213 683.082 299.933 683.175 299.6C683.282 299.267 683.395 298.92 683.515 298.56C683.649 298.2 683.762 297.88 683.855 297.6L686.135 291.28H688.015L683.935 302H681.915ZM690.612 287.26C690.878 287.26 691.112 287.353 691.312 287.54C691.525 287.713 691.632 287.993 691.632 288.38C691.632 288.753 691.525 289.033 691.312 289.22C691.112 289.407 690.878 289.5 690.612 289.5C690.318 289.5 690.072 289.407 689.872 289.22C689.672 289.033 689.572 288.753 689.572 288.38C689.572 287.993 689.672 287.713 689.872 287.54C690.072 287.353 690.318 287.26 690.612 287.26ZM691.472 291.28V302H689.712V291.28H691.472ZM698.668 291.08C699.375 291.08 700.008 291.213 700.568 291.48C701.141 291.747 701.628 292.153 702.028 292.7H702.128L702.368 291.28H703.768V302.18C703.768 303.713 703.375 304.867 702.588 305.64C701.815 306.413 700.608 306.8 698.968 306.8C697.395 306.8 696.108 306.573 695.108 306.12V304.5C696.161 305.06 697.481 305.34 699.068 305.34C699.988 305.34 700.708 305.067 701.228 304.52C701.761 303.987 702.028 303.253 702.028 302.32V301.9C702.028 301.74 702.035 301.513 702.048 301.22C702.061 300.913 702.075 300.7 702.088 300.58H702.008C701.288 301.66 700.181 302.2 698.688 302.2C697.301 302.2 696.215 301.713 695.428 300.74C694.655 299.767 694.268 298.407 694.268 296.66C694.268 294.953 694.655 293.6 695.428 292.6C696.215 291.587 697.295 291.08 698.668 291.08ZM698.908 292.56C698.015 292.56 697.321 292.92 696.828 293.64C696.335 294.347 696.088 295.36 696.088 296.68C696.088 298 696.328 299.013 696.808 299.72C697.301 300.413 698.015 300.76 698.948 300.76C700.028 300.76 700.815 300.473 701.308 299.9C701.801 299.313 702.048 298.373 702.048 297.08V296.66C702.048 295.193 701.795 294.147 701.288 293.52C700.781 292.88 699.988 292.56 698.908 292.56ZM711.233 291.1C712.539 291.1 713.506 291.387 714.133 291.96C714.759 292.533 715.073 293.447 715.073 294.7V302H713.793L713.453 300.48H713.373C712.906 301.067 712.413 301.5 711.893 301.78C711.386 302.06 710.679 302.2 709.773 302.2C708.799 302.2 707.993 301.947 707.353 301.44C706.713 300.92 706.393 300.113 706.393 299.02C706.393 297.953 706.813 297.133 707.653 296.56C708.493 295.973 709.786 295.653 711.533 295.6L713.353 295.54V294.9C713.353 294.007 713.159 293.387 712.773 293.04C712.386 292.693 711.839 292.52 711.133 292.52C710.573 292.52 710.039 292.607 709.533 292.78C709.026 292.94 708.553 293.127 708.113 293.34L707.573 292.02C708.039 291.767 708.593 291.553 709.233 291.38C709.873 291.193 710.539 291.1 711.233 291.1ZM711.753 296.82C710.419 296.873 709.493 297.087 708.973 297.46C708.466 297.833 708.213 298.36 708.213 299.04C708.213 299.64 708.393 300.08 708.753 300.36C709.126 300.64 709.599 300.78 710.173 300.78C711.079 300.78 711.833 300.533 712.433 300.04C713.033 299.533 713.333 298.76 713.333 297.72V296.76L711.753 296.82ZM721.964 300.76C722.23 300.76 722.504 300.74 722.784 300.7C723.064 300.647 723.29 300.593 723.464 300.54V301.88C723.277 301.973 723.01 302.047 722.664 302.1C722.317 302.167 721.984 302.2 721.664 302.2C721.104 302.2 720.584 302.107 720.104 301.92C719.637 301.72 719.257 301.38 718.964 300.9C718.67 300.42 718.524 299.747 718.524 298.88V292.64H717.004V291.8L718.544 291.1L719.244 288.82H720.284V291.28H723.384V292.64H720.284V298.84C720.284 299.493 720.437 299.98 720.744 300.3C721.064 300.607 721.47 300.76 721.964 300.76ZM726.51 287.26C726.777 287.26 727.01 287.353 727.21 287.54C727.423 287.713 727.53 287.993 727.53 288.38C727.53 288.753 727.423 289.033 727.21 289.22C727.01 289.407 726.777 289.5 726.51 289.5C726.217 289.5 725.97 289.407 725.77 289.22C725.57 289.033 725.47 288.753 725.47 288.38C725.47 287.993 725.57 287.713 725.77 287.54C725.97 287.353 726.217 287.26 726.51 287.26ZM727.37 291.28V302H725.61V291.28H727.37ZM740.086 296.62C740.086 298.393 739.633 299.767 738.726 300.74C737.833 301.713 736.62 302.2 735.086 302.2C734.14 302.2 733.293 301.987 732.546 301.56C731.813 301.12 731.233 300.487 730.806 299.66C730.38 298.82 730.166 297.807 730.166 296.62C730.166 294.847 730.613 293.48 731.506 292.52C732.4 291.56 733.613 291.08 735.146 291.08C736.12 291.08 736.973 291.3 737.706 291.74C738.453 292.167 739.033 292.793 739.446 293.62C739.873 294.433 740.086 295.433 740.086 296.62ZM731.986 296.62C731.986 297.887 732.233 298.893 732.726 299.64C733.233 300.373 734.033 300.74 735.126 300.74C736.206 300.74 737 300.373 737.506 299.64C738.013 298.893 738.266 297.887 738.266 296.62C738.266 295.353 738.013 294.36 737.506 293.64C737 292.92 736.2 292.56 735.106 292.56C734.013 292.56 733.22 292.92 732.726 293.64C732.233 294.36 731.986 295.353 731.986 296.62ZM748.036 291.08C749.316 291.08 750.282 291.393 750.936 292.02C751.589 292.633 751.916 293.633 751.916 295.02V302H750.176V295.14C750.176 293.42 749.376 292.56 747.776 292.56C746.589 292.56 745.769 292.893 745.316 293.56C744.862 294.227 744.636 295.187 744.636 296.44V302H742.876V291.28H744.296L744.556 292.74H744.656C745.002 292.18 745.482 291.767 746.096 291.5C746.709 291.22 747.356 291.08 748.036 291.08Z" fill="black"/>
<path d="M581 304.5H753.536V305.5H581V304.5Z" fill="black"/>
<path d="M582.94 364V349.72H584.74V362.4H590.98V364H582.94ZM594.088 349.26C594.355 349.26 594.588 349.353 594.788 349.54C595.002 349.713 595.108 349.993 595.108 350.38C595.108 350.753 595.002 351.033 594.788 351.22C594.588 351.407 594.355 351.5 594.088 351.5C593.795 351.5 593.548 351.407 593.348 351.22C593.148 351.033 593.048 350.753 593.048 350.38C593.048 349.993 593.148 349.713 593.348 349.54C593.548 349.353 593.795 349.26 594.088 349.26ZM594.948 353.28V364H593.188V353.28H594.948ZM602.485 353.08C603.405 353.08 604.191 353.28 604.845 353.68C605.511 354.08 606.018 354.647 606.365 355.38C606.725 356.1 606.905 356.947 606.905 357.92V358.98H599.565C599.591 360.193 599.898 361.12 600.485 361.76C601.085 362.387 601.918 362.7 602.985 362.7C603.665 362.7 604.265 362.64 604.785 362.52C605.318 362.387 605.865 362.2 606.425 361.96V363.5C605.878 363.74 605.338 363.913 604.805 364.02C604.271 364.14 603.638 364.2 602.905 364.2C601.891 364.2 600.991 363.993 600.205 363.58C599.431 363.167 598.825 362.553 598.385 361.74C597.958 360.913 597.745 359.907 597.745 358.72C597.745 357.547 597.938 356.54 598.325 355.7C598.725 354.86 599.278 354.213 599.985 353.76C600.705 353.307 601.538 353.08 602.485 353.08ZM602.465 354.52C601.625 354.52 600.958 354.793 600.465 355.34C599.985 355.873 599.698 356.62 599.605 357.58H605.065C605.051 356.673 604.838 355.94 604.425 355.38C604.011 354.807 603.358 354.52 602.465 354.52ZM614.794 353.08C616.074 353.08 617.04 353.393 617.694 354.02C618.347 354.633 618.674 355.633 618.674 357.02V364H616.934V357.14C616.934 355.42 616.134 354.56 614.534 354.56C613.347 354.56 612.527 354.893 612.074 355.56C611.62 356.227 611.394 357.187 611.394 358.44V364H609.634V353.28H611.054L611.314 354.74H611.414C611.76 354.18 612.24 353.767 612.854 353.5C613.467 353.22 614.114 353.08 614.794 353.08ZM630.992 364.2C629.659 364.2 628.592 363.74 627.792 362.82C626.992 361.887 626.592 360.5 626.592 358.66C626.592 356.82 626.992 355.433 627.792 354.5C628.606 353.553 629.679 353.08 631.012 353.08C631.839 353.08 632.512 353.233 633.032 353.54C633.566 353.847 633.999 354.22 634.332 354.66H634.452C634.439 354.487 634.412 354.233 634.372 353.9C634.346 353.553 634.332 353.28 634.332 353.08V348.8H636.092V364H634.672L634.412 362.56H634.332C634.012 363.013 633.586 363.4 633.052 363.72C632.519 364.04 631.832 364.2 630.992 364.2ZM631.272 362.74C632.406 362.74 633.199 362.433 633.652 361.82C634.119 361.193 634.352 360.253 634.352 359V358.68C634.352 357.347 634.132 356.327 633.692 355.62C633.252 354.9 632.439 354.54 631.252 354.54C630.306 354.54 629.592 354.92 629.112 355.68C628.646 356.427 628.412 357.433 628.412 358.7C628.412 359.98 628.646 360.973 629.112 361.68C629.592 362.387 630.312 362.74 631.272 362.74ZM643.637 353.08C644.557 353.08 645.344 353.28 645.997 353.68C646.664 354.08 647.17 354.647 647.517 355.38C647.877 356.1 648.057 356.947 648.057 357.92V358.98H640.717C640.744 360.193 641.05 361.12 641.637 361.76C642.237 362.387 643.07 362.7 644.137 362.7C644.817 362.7 645.417 362.64 645.937 362.52C646.47 362.387 647.017 362.2 647.577 361.96V363.5C647.03 363.74 646.49 363.913 645.957 364.02C645.424 364.14 644.79 364.2 644.057 364.2C643.044 364.2 642.144 363.993 641.357 363.58C640.584 363.167 639.977 362.553 639.537 361.74C639.11 360.913 638.897 359.907 638.897 358.72C638.897 357.547 639.09 356.54 639.477 355.7C639.877 354.86 640.43 354.213 641.137 353.76C641.857 353.307 642.69 353.08 643.637 353.08ZM643.617 354.52C642.777 354.52 642.11 354.793 641.617 355.34C641.137 355.873 640.85 356.62 640.757 357.58H646.217C646.204 356.673 645.99 355.94 645.577 355.38C645.164 354.807 644.51 354.52 643.617 354.52ZM661.141 353.08C662.421 353.08 663.388 353.393 664.041 354.02C664.695 354.633 665.021 355.633 665.021 357.02V364H663.281V357.14C663.281 355.42 662.481 354.56 660.881 354.56C659.695 354.56 658.875 354.893 658.421 355.56C657.968 356.227 657.741 357.187 657.741 358.44V364H655.981V353.28H657.401L657.661 354.74H657.761C658.108 354.18 658.588 353.767 659.201 353.5C659.815 353.22 660.461 353.08 661.141 353.08ZM672.405 353.1C673.711 353.1 674.678 353.387 675.305 353.96C675.931 354.533 676.245 355.447 676.245 356.7V364H674.965L674.625 362.48H674.545C674.078 363.067 673.585 363.5 673.065 363.78C672.558 364.06 671.851 364.2 670.945 364.2C669.971 364.2 669.165 363.947 668.525 363.44C667.885 362.92 667.565 362.113 667.565 361.02C667.565 359.953 667.985 359.133 668.825 358.56C669.665 357.973 670.958 357.653 672.705 357.6L674.525 357.54V356.9C674.525 356.007 674.331 355.387 673.945 355.04C673.558 354.693 673.011 354.52 672.305 354.52C671.745 354.52 671.211 354.607 670.705 354.78C670.198 354.94 669.725 355.127 669.285 355.34L668.745 354.02C669.211 353.767 669.765 353.553 670.405 353.38C671.045 353.193 671.711 353.1 672.405 353.1ZM672.925 358.82C671.591 358.873 670.665 359.087 670.145 359.46C669.638 359.833 669.385 360.36 669.385 361.04C669.385 361.64 669.565 362.08 669.925 362.36C670.298 362.64 670.771 362.78 671.345 362.78C672.251 362.78 673.005 362.533 673.605 362.04C674.205 361.533 674.505 360.76 674.505 359.72V358.76L672.925 358.82ZM681.915 364L677.855 353.28H679.735L682.015 359.6C682.122 359.893 682.235 360.22 682.355 360.58C682.475 360.94 682.582 361.287 682.675 361.62C682.769 361.94 682.835 362.213 682.875 362.44H682.955C683.009 362.213 683.082 361.933 683.175 361.6C683.282 361.267 683.395 360.92 683.515 360.56C683.649 360.2 683.762 359.88 683.855 359.6L686.135 353.28H688.015L683.935 364H681.915ZM690.612 349.26C690.878 349.26 691.112 349.353 691.312 349.54C691.525 349.713 691.632 349.993 691.632 350.38C691.632 350.753 691.525 351.033 691.312 351.22C691.112 351.407 690.878 351.5 690.612 351.5C690.318 351.5 690.072 351.407 689.872 351.22C689.672 351.033 689.572 350.753 689.572 350.38C689.572 349.993 689.672 349.713 689.872 349.54C690.072 349.353 690.318 349.26 690.612 349.26ZM691.472 353.28V364H689.712V353.28H691.472ZM698.668 353.08C699.375 353.08 700.008 353.213 700.568 353.48C701.141 353.747 701.628 354.153 702.028 354.7H702.128L702.368 353.28H703.768V364.18C703.768 365.713 703.375 366.867 702.588 367.64C701.815 368.413 700.608 368.8 698.968 368.8C697.395 368.8 696.108 368.573 695.108 368.12V366.5C696.161 367.06 697.481 367.34 699.068 367.34C699.988 367.34 700.708 367.067 701.228 366.52C701.761 365.987 702.028 365.253 702.028 364.32V363.9C702.028 363.74 702.035 363.513 702.048 363.22C702.061 362.913 702.075 362.7 702.088 362.58H702.008C701.288 363.66 700.181 364.2 698.688 364.2C697.301 364.2 696.215 363.713 695.428 362.74C694.655 361.767 694.268 360.407 694.268 358.66C694.268 356.953 694.655 355.6 695.428 354.6C696.215 353.587 697.295 353.08 698.668 353.08ZM698.908 354.56C698.015 354.56 697.321 354.92 696.828 355.64C696.335 356.347 696.088 357.36 696.088 358.68C696.088 360 696.328 361.013 696.808 361.72C697.301 362.413 698.015 362.76 698.948 362.76C700.028 362.76 700.815 362.473 701.308 361.9C701.801 361.313 702.048 360.373 702.048 359.08V358.66C702.048 357.193 701.795 356.147 701.288 355.52C700.781 354.88 699.988 354.56 698.908 354.56ZM711.233 353.1C712.539 353.1 713.506 353.387 714.133 353.96C714.759 354.533 715.073 355.447 715.073 356.7V364H713.793L713.453 362.48H713.373C712.906 363.067 712.413 363.5 711.893 363.78C711.386 364.06 710.679 364.2 709.773 364.2C708.799 364.2 707.993 363.947 707.353 363.44C706.713 362.92 706.393 362.113 706.393 361.02C706.393 359.953 706.813 359.133 707.653 358.56C708.493 357.973 709.786 357.653 711.533 357.6L713.353 357.54V356.9C713.353 356.007 713.159 355.387 712.773 355.04C712.386 354.693 711.839 354.52 711.133 354.52C710.573 354.52 710.039 354.607 709.533 354.78C709.026 354.94 708.553 355.127 708.113 355.34L707.573 354.02C708.039 353.767 708.593 353.553 709.233 353.38C709.873 353.193 710.539 353.1 711.233 353.1ZM711.753 358.82C710.419 358.873 709.493 359.087 708.973 359.46C708.466 359.833 708.213 360.36 708.213 361.04C708.213 361.64 708.393 362.08 708.753 362.36C709.126 362.64 709.599 362.78 710.173 362.78C711.079 362.78 711.833 362.533 712.433 362.04C713.033 361.533 713.333 360.76 713.333 359.72V358.76L711.753 358.82ZM721.964 362.76C722.23 362.76 722.504 362.74 722.784 362.7C723.064 362.647 723.29 362.593 723.464 362.54V363.88C723.277 363.973 723.01 364.047 722.664 364.1C722.317 364.167 721.984 364.2 721.664 364.2C721.104 364.2 720.584 364.107 720.104 363.92C719.637 363.72 719.257 363.38 718.964 362.9C718.67 362.42 718.524 361.747 718.524 360.88V354.64H717.004V353.8L718.544 353.1L719.244 350.82H720.284V353.28H723.384V354.64H720.284V360.84C720.284 361.493 720.437 361.98 720.744 362.3C721.064 362.607 721.47 362.76 721.964 362.76ZM726.51 349.26C726.777 349.26 727.01 349.353 727.21 349.54C727.423 349.713 727.53 349.993 727.53 350.38C727.53 350.753 727.423 351.033 727.21 351.22C727.01 351.407 726.777 351.5 726.51 351.5C726.217 351.5 725.97 351.407 725.77 351.22C725.57 351.033 725.47 350.753 725.47 350.38C725.47 349.993 725.57 349.713 725.77 349.54C725.97 349.353 726.217 349.26 726.51 349.26ZM727.37 353.28V364H725.61V353.28H727.37ZM740.086 358.62C740.086 360.393 739.633 361.767 738.726 362.74C737.833 363.713 736.62 364.2 735.086 364.2C734.14 364.2 733.293 363.987 732.546 363.56C731.813 363.12 731.233 362.487 730.806 361.66C730.38 360.82 730.166 359.807 730.166 358.62C730.166 356.847 730.613 355.48 731.506 354.52C732.4 353.56 733.613 353.08 735.146 353.08C736.12 353.08 736.973 353.3 737.706 353.74C738.453 354.167 739.033 354.793 739.446 355.62C739.873 356.433 740.086 357.433 740.086 358.62ZM731.986 358.62C731.986 359.887 732.233 360.893 732.726 361.64C733.233 362.373 734.033 362.74 735.126 362.74C736.206 362.74 737 362.373 737.506 361.64C738.013 360.893 738.266 359.887 738.266 358.62C738.266 357.353 738.013 356.36 737.506 355.64C737 354.92 736.2 354.56 735.106 354.56C734.013 354.56 733.22 354.92 732.726 355.64C732.233 356.36 731.986 357.353 731.986 358.62ZM748.036 353.08C749.316 353.08 750.282 353.393 750.936 354.02C751.589 354.633 751.916 355.633 751.916 357.02V364H750.176V357.14C750.176 355.42 749.376 354.56 747.776 354.56C746.589 354.56 745.769 354.893 745.316 355.56C744.862 356.227 744.636 357.187 744.636 358.44V364H742.876V353.28H744.296L744.556 354.74H744.656C745.002 354.18 745.482 353.767 746.096 353.5C746.709 353.22 747.356 353.08 748.036 353.08Z" fill="black"/>
<path d="M581 366.5H753.536V367.5H581V366.5Z" fill="black"/>
</g>
</g>
<g clip-path="url(#clip1_31_361)">
<rect x="818" y="167" width="127" height="1" fill="#C54600"/>
<g clip-path="url(#clip2_31_361)">
<rect x="921" y="155" width="24" height="24" rx="12" fill="#C54600"/>
<path d="M933.112 172.139C932.588 172.136 932.083 172.048 931.596 171.876C931.112 171.703 930.677 171.423 930.293 171.036C929.908 170.648 929.604 170.134 929.378 169.494C929.156 168.855 929.045 168.069 929.045 167.138C929.048 166.283 929.146 165.519 929.338 164.846C929.534 164.17 929.812 163.596 930.174 163.126C930.538 162.655 930.974 162.297 931.481 162.052C931.988 161.803 932.557 161.679 933.186 161.679C933.866 161.679 934.466 161.812 934.986 162.077C935.507 162.339 935.924 162.695 936.239 163.146C936.557 163.596 936.749 164.102 936.816 164.662H934.693C934.61 164.307 934.436 164.029 934.171 163.827C933.906 163.625 933.578 163.523 933.186 163.523C932.524 163.523 932.02 163.812 931.675 164.388C931.334 164.965 931.16 165.749 931.153 166.74H931.223C931.375 166.438 931.581 166.182 931.839 165.969C932.101 165.754 932.398 165.59 932.729 165.477C933.064 165.361 933.417 165.303 933.788 165.303C934.391 165.303 934.928 165.446 935.399 165.731C935.869 166.013 936.241 166.4 936.512 166.894C936.784 167.388 936.92 167.953 936.92 168.589C936.92 169.279 936.759 169.892 936.438 170.429C936.12 170.966 935.674 171.387 935.1 171.692C934.53 171.993 933.868 172.143 933.112 172.139ZM933.102 170.449C933.433 170.449 933.73 170.369 933.992 170.21C934.254 170.051 934.459 169.836 934.608 169.564C934.757 169.292 934.832 168.987 934.832 168.649C934.832 168.311 934.757 168.008 934.608 167.739C934.462 167.471 934.26 167.257 934.002 167.098C933.743 166.939 933.448 166.859 933.117 166.859C932.868 166.859 932.638 166.906 932.426 166.999C932.217 167.091 932.033 167.221 931.874 167.386C931.718 167.552 931.596 167.744 931.506 167.963C931.417 168.179 931.372 168.409 931.372 168.654C931.372 168.982 931.446 169.282 931.596 169.554C931.748 169.826 931.953 170.043 932.212 170.205C932.474 170.368 932.77 170.449 933.102 170.449Z" fill="white"/>
</g>
</g>
<g clip-path="url(#clip3_31_361)">
<rect x="877" width="1" height="82" fill="#C54600"/>
<g clip-path="url(#clip4_31_361)">
<rect x="865" width="24" height="24" rx="12" fill="#C54600"/>
<path d="M877.032 17.1392C876.33 17.1392 875.703 17.0099 875.153 16.7514C874.606 16.4929 874.172 16.1366 873.85 15.6825C873.529 15.2285 873.362 14.7081 873.348 14.1214H875.436C875.46 14.5159 875.625 14.8357 875.934 15.081C876.242 15.3262 876.608 15.4489 877.032 15.4489C877.37 15.4489 877.669 15.3743 877.927 15.2251C878.189 15.0727 878.393 14.8622 878.539 14.5938C878.688 14.322 878.762 14.0104 878.762 13.6591C878.762 13.3011 878.686 12.9863 878.534 12.7145C878.385 12.4427 878.177 12.2306 877.912 12.0781C877.647 11.9257 877.344 11.8478 877.002 11.8445C876.704 11.8445 876.414 11.9058 876.132 12.0284C875.854 12.151 875.637 12.3184 875.481 12.5305L873.567 12.1875L874.049 6.81818H880.274V8.57812H875.824L875.561 11.1286H875.62C875.799 10.8767 876.069 10.6679 876.431 10.5021C876.792 10.3364 877.196 10.2536 877.644 10.2536C878.257 10.2536 878.804 10.3977 879.284 10.6861C879.765 10.9744 880.145 11.3705 880.423 11.8743C880.701 12.3748 880.839 12.9515 880.836 13.6044C880.839 14.2905 880.68 14.9003 880.358 15.4339C880.04 15.9643 879.594 16.3819 879.021 16.6868C878.451 16.9884 877.788 17.1392 877.032 17.1392Z" fill="white"/>
</g>
</g>
<rect x="704" width="1" height="82" fill="#C54600"/>
<g clip-path="url(#clip5_31_361)">
<rect x="692" width="24" height="24" rx="12" fill="#C54600"/>
<path d="M699.927 15.2102V13.5149L704.178 6.81818H705.639V9.16477H704.774L702.095 13.4055V13.4851H708.135V15.2102H699.927ZM704.814 17V14.6932L704.854 13.9425V6.81818H706.872V17H704.814Z" fill="white"/>
</g>
<rect x="382" y="265" width="172" height="1" fill="#C54600"/>
<g clip-path="url(#clip6_31_361)">
<rect x="382" y="253" width="24" height="24" rx="12" fill="#C54600"/>
<path d="M393.975 270.139C393.232 270.139 392.571 270.012 391.991 269.756C391.414 269.498 390.958 269.143 390.624 268.692C390.292 268.238 390.122 267.715 390.112 267.121H392.279C392.292 267.37 392.374 267.589 392.523 267.778C392.675 267.963 392.877 268.107 393.129 268.21C393.381 268.313 393.665 268.364 393.979 268.364C394.308 268.364 394.598 268.306 394.85 268.19C395.101 268.074 395.299 267.914 395.441 267.708C395.584 267.503 395.655 267.266 395.655 266.997C395.655 266.725 395.579 266.485 395.426 266.276C395.277 266.064 395.062 265.898 394.78 265.779C394.502 265.66 394.17 265.6 393.786 265.6H392.836V264.019H393.786C394.11 264.019 394.397 263.963 394.646 263.85C394.898 263.737 395.093 263.582 395.232 263.383C395.372 263.181 395.441 262.945 395.441 262.677C395.441 262.422 395.38 262.198 395.257 262.006C395.138 261.81 394.969 261.658 394.75 261.548C394.535 261.439 394.283 261.384 393.994 261.384C393.703 261.384 393.436 261.437 393.194 261.543C392.952 261.646 392.758 261.794 392.612 261.986C392.466 262.178 392.389 262.403 392.379 262.662H390.315C390.325 262.075 390.493 261.558 390.818 261.111C391.142 260.663 391.58 260.314 392.13 260.062C392.684 259.807 393.308 259.679 394.004 259.679C394.707 259.679 395.322 259.807 395.849 260.062C396.376 260.317 396.785 260.662 397.077 261.096C397.372 261.527 397.518 262.011 397.514 262.548C397.518 263.118 397.34 263.593 396.982 263.974C396.628 264.356 396.165 264.598 395.595 264.7V264.78C396.344 264.876 396.914 265.136 397.305 265.56C397.7 265.981 397.895 266.508 397.892 267.141C397.895 267.721 397.728 268.237 397.39 268.688C397.055 269.138 396.593 269.493 396.003 269.751C395.413 270.01 394.737 270.139 393.975 270.139Z" fill="white"/>
</g>
<g clip-path="url(#clip7_31_361)">
<rect x="428" width="1" height="82" fill="#C54600"/>
<g clip-path="url(#clip8_31_361)">
<rect x="416" width="24" height="24" rx="12" fill="#C54600"/>
<path d="M424.416 17V15.4489L428.04 12.093C428.349 11.7947 428.607 11.5263 428.816 11.2876C429.028 11.049 429.189 10.8153 429.298 10.5866C429.408 10.3546 429.462 10.1044 429.462 9.83594C429.462 9.53764 429.394 9.28078 429.258 9.06534C429.123 8.84659 428.937 8.67921 428.702 8.56321C428.466 8.44389 428.199 8.38423 427.901 8.38423C427.59 8.38423 427.318 8.44721 427.086 8.57315C426.854 8.6991 426.675 8.87973 426.549 9.11506C426.423 9.35038 426.36 9.63044 426.36 9.95526H424.317C424.317 9.28906 424.467 8.7107 424.769 8.22017C425.071 7.72964 425.493 7.35014 426.037 7.08168C426.58 6.81321 427.207 6.67898 427.916 6.67898C428.645 6.67898 429.28 6.80824 429.82 7.06676C430.364 7.32197 430.786 7.67661 431.088 8.13068C431.39 8.58475 431.54 9.10511 431.54 9.69176C431.54 10.0762 431.464 10.4557 431.312 10.8303C431.163 11.2048 430.896 11.6207 430.511 12.0781C430.127 12.5322 429.585 13.0774 428.886 13.7138L427.399 15.1705V15.2401H431.675V17H424.416Z" fill="white"/>
</g>
</g>
<g clip-path="url(#clip9_31_361)">
<rect x="98" width="1" height="82" fill="#C54600"/>
<g clip-path="url(#clip10_31_361)">
<rect x="86" width="24" height="24" rx="12" fill="#C54600"/>
<path d="M99.8302 6.81818V17H97.6775V8.86151H97.6178L95.2861 10.3232V8.41406L97.8067 6.81818H99.8302Z" fill="white"/>
</g>
</g>
<defs>
<filter id="filter0_d_31_361" x="544" y="120" width="340" height="286" filterUnits="userSpaceOnUse" color-interpolation-filters="sRGB">
<feFlood flood-opacity="0" result="BackgroundImageFix"/>
<feColorMatrix in="SourceAlpha" type="matrix" values="0 0 0 0 0 0 0 0 0 0 0 0 0 0 0 0 0 0 127 0" result="hardAlpha"/>
<feOffset/>
<feGaussianBlur stdDeviation="5"/>
<feComposite in2="hardAlpha" operator="out"/>
<feColorMatrix type="matrix" values="0 0 0 0 0 0 0 0 0 0 0 0 0 0 0 0 0 0 0.25 0"/>
<feBlend mode="normal" in2="BackgroundImageFix" result="effect1_dropShadow_31_361"/>
<feBlend mode="normal" in="SourceGraphic" in2="effect1_dropShadow_31_361" result="shape"/>
</filter>
<clipPath id="clip0_31_361">
<rect x="554" y="130" width="320" height="266" rx="6" fill="white"/>
</clipPath>
<clipPath id="clip1_31_361">
<rect width="127" height="25" fill="white" transform="translate(819 154)"/>
</clipPath>
<clipPath id="clip2_31_361">
<rect x="921" y="155" width="24" height="24" rx="12" fill="white"/>
</clipPath>
<clipPath id="clip3_31_361">
<rect width="24" height="82" fill="white" transform="translate(865)"/>
</clipPath>
<clipPath id="clip4_31_361">
<rect x="865" width="24" height="24" rx="12" fill="white"/>
</clipPath>
<clipPath id="clip5_31_361">
<rect x="692" width="24" height="24" rx="12" fill="white"/>
</clipPath>
<clipPath id="clip6_31_361">
<rect x="382" y="253" width="24" height="24" rx="12" fill="white"/>
</clipPath>
<clipPath id="clip7_31_361">
<rect width="24" height="82" fill="white" transform="translate(416)"/>
</clipPath>
<clipPath id="clip8_31_361">
<rect x="416" width="24" height="24" rx="12" fill="white"/>
</clipPath>
<clipPath id="clip9_31_361">
<rect width="24" height="82" fill="white" transform="translate(86)"/>
</clipPath>
<clipPath id="clip10_31_361">
<rect x="86" width="24" height="24" rx="12" fill="white"/>
</clipPath>
</defs>
</svg>
