<svg width="593" height="166" viewBox="0 0 593 166" fill="none" xmlns="http://www.w3.org/2000/svg">
<path d="M78.02 42H69.8V27.72H78.02V30.2H72.82V33.34H77.66V35.82H72.82V39.5H78.02V42ZM78.24 23.52C78.0533 23.7067 77.8067 23.9333 77.5 24.2C77.1933 24.4667 76.86 24.7467 76.5 25.04C76.1533 25.3333 75.8067 25.6133 75.46 25.88C75.1267 26.1333 74.8333 26.3467 74.58 26.52H72.6V26.26C72.8133 26.0067 73.06 25.7133 73.34 25.38C73.6333 25.0333 73.92 24.68 74.2 24.32C74.48 23.9467 74.7133 23.6133 74.9 23.32H78.24V23.52ZM85.3514 39.82C85.6847 39.82 86.0047 39.7867 86.3114 39.72C86.6181 39.6533 86.9247 39.5733 87.2314 39.48V41.7C86.9114 41.8333 86.5114 41.9467 86.0314 42.04C85.5647 42.1467 85.0514 42.2 84.4914 42.2C83.8381 42.2 83.2514 42.0933 82.7314 41.88C82.2247 41.6667 81.8181 41.3 81.5114 40.78C81.2181 40.2467 81.0714 39.5133 81.0714 38.58V33.32H79.6514V32.06L81.2914 31.06L82.1514 28.76H84.0514V31.08H87.1114V33.32H84.0514V38.58C84.0514 38.9933 84.1714 39.3067 84.4114 39.52C84.6514 39.72 84.9647 39.82 85.3514 39.82ZM90.9233 26.8C91.3633 26.8 91.7433 26.9067 92.0633 27.12C92.3833 27.32 92.5433 27.7 92.5433 28.26C92.5433 28.8067 92.3833 29.1867 92.0633 29.4C91.7433 29.6133 91.3633 29.72 90.9233 29.72C90.4699 29.72 90.0833 29.6133 89.7633 29.4C89.4566 29.1867 89.3033 28.8067 89.3033 28.26C89.3033 27.7 89.4566 27.32 89.7633 27.12C90.0833 26.9067 90.4699 26.8 90.9233 26.8ZM92.4033 31.08V42H89.4233V31.08H92.4033ZM102.077 42.22C102.077 41.66 102.117 41.1133 102.197 40.58H102.077C101.797 41.0333 101.41 41.42 100.917 41.74C100.424 42.0467 99.777 42.2 98.977 42.2C97.7504 42.2 96.757 41.7267 95.997 40.78C95.237 39.82 94.857 38.4133 94.857 36.56C94.857 34.6933 95.2437 33.28 96.017 32.32C96.7904 31.36 97.797 30.88 99.037 30.88C99.837 30.88 100.484 31.0333 100.977 31.34C101.484 31.6467 101.89 32.0267 102.197 32.48H102.277L102.537 31.08H105.057V46.8H102.077V42.22ZM100.037 39.86C100.864 39.86 101.437 39.62 101.757 39.14C102.09 38.6467 102.264 37.9133 102.277 36.94V36.58C102.277 35.5133 102.11 34.7 101.777 34.14C101.457 33.58 100.864 33.3 99.997 33.3C99.2904 33.3 98.7637 33.5867 98.417 34.16C98.0704 34.72 97.897 35.5333 97.897 36.6C97.897 38.7733 98.6104 39.86 100.037 39.86ZM118.193 31.08V42H115.913L115.513 40.6H115.353C115.007 41.16 114.527 41.5667 113.913 41.82C113.313 42.0733 112.673 42.2 111.993 42.2C110.82 42.2 109.88 41.8867 109.173 41.26C108.467 40.62 108.113 39.6 108.113 38.2V31.08H111.093V37.46C111.093 38.2333 111.233 38.82 111.513 39.22C111.793 39.62 112.24 39.82 112.853 39.82C113.76 39.82 114.38 39.5133 114.713 38.9C115.047 38.2733 115.213 37.38 115.213 36.22V31.08H118.193ZM125.818 30.88C127.324 30.88 128.518 31.3133 129.398 32.18C130.278 33.0333 130.718 34.2533 130.718 35.84V37.28H123.678C123.704 38.12 123.951 38.78 124.418 39.26C124.898 39.74 125.558 39.98 126.398 39.98C127.104 39.98 127.744 39.9133 128.318 39.78C128.891 39.6333 129.484 39.4133 130.098 39.12V41.42C129.564 41.6867 128.998 41.88 128.398 42C127.811 42.1333 127.098 42.2 126.258 42.2C125.164 42.2 124.198 42 123.358 41.6C122.518 41.1867 121.858 40.5667 121.378 39.74C120.898 38.9133 120.658 37.8733 120.658 36.62C120.658 35.34 120.871 34.28 121.298 33.44C121.738 32.5867 122.344 31.9467 123.118 31.52C123.891 31.0933 124.791 30.88 125.818 30.88ZM125.838 33C125.264 33 124.784 33.1867 124.398 33.56C124.024 33.9333 123.804 34.5133 123.738 35.3H127.918C127.904 34.6333 127.731 34.0867 127.398 33.66C127.064 33.22 126.544 33 125.838 33ZM137.734 39.82C138.068 39.82 138.388 39.7867 138.694 39.72C139.001 39.6533 139.308 39.5733 139.614 39.48V41.7C139.294 41.8333 138.894 41.9467 138.414 42.04C137.948 42.1467 137.434 42.2 136.874 42.2C136.221 42.2 135.634 42.0933 135.114 41.88C134.608 41.6667 134.201 41.3 133.894 40.78C133.601 40.2467 133.454 39.5133 133.454 38.58V33.32H132.034V32.06L133.674 31.06L134.534 28.76H136.434V31.08H139.494V33.32H136.434V38.58C136.434 38.9933 136.554 39.3067 136.794 39.52C137.034 39.72 137.348 39.82 137.734 39.82ZM146.406 39.82C146.739 39.82 147.059 39.7867 147.366 39.72C147.673 39.6533 147.979 39.5733 148.286 39.48V41.7C147.966 41.8333 147.566 41.9467 147.086 42.04C146.619 42.1467 146.106 42.2 145.546 42.2C144.893 42.2 144.306 42.0933 143.786 41.88C143.279 41.6667 142.873 41.3 142.566 40.78C142.273 40.2467 142.126 39.5133 142.126 38.58V33.32H140.706V32.06L142.346 31.06L143.206 28.76H145.106V31.08H148.166V33.32H145.106V38.58C145.106 38.9933 145.226 39.3067 145.466 39.52C145.706 39.72 146.019 39.82 146.406 39.82ZM154.978 30.88C156.485 30.88 157.678 31.3133 158.558 32.18C159.438 33.0333 159.878 34.2533 159.878 35.84V37.28H152.838C152.865 38.12 153.111 38.78 153.578 39.26C154.058 39.74 154.718 39.98 155.558 39.98C156.265 39.98 156.905 39.9133 157.478 39.78C158.051 39.6333 158.645 39.4133 159.258 39.12V41.42C158.725 41.6867 158.158 41.88 157.558 42C156.971 42.1333 156.258 42.2 155.418 42.2C154.325 42.2 153.358 42 152.518 41.6C151.678 41.1867 151.018 40.5667 150.538 39.74C150.058 38.9133 149.818 37.8733 149.818 36.62C149.818 35.34 150.031 34.28 150.458 33.44C150.898 32.5867 151.505 31.9467 152.278 31.52C153.051 31.0933 153.951 30.88 154.978 30.88ZM154.998 33C154.425 33 153.945 33.1867 153.558 33.56C153.185 33.9333 152.965 34.5133 152.898 35.3H157.078C157.065 34.6333 156.891 34.0867 156.558 33.66C156.225 33.22 155.705 33 154.998 33Z" fill="#333333"/>
<path d="M167.8 34.52C167.8 32.8933 168.033 31.3267 168.5 29.82C168.98 28.3 169.727 26.9333 170.74 25.72H172.4C171.467 26.9733 170.76 28.3533 170.28 29.86C169.813 31.3667 169.58 32.9133 169.58 34.5C169.58 36.0467 169.813 37.5667 170.28 39.06C170.76 40.54 171.46 41.9067 172.38 43.16H170.74C169.727 41.9867 168.98 40.66 168.5 39.18C168.033 37.6867 167.8 36.1333 167.8 34.52ZM184.016 34.62C184.016 36.3933 183.563 37.7667 182.656 38.74C181.763 39.7133 180.549 40.2 179.016 40.2C178.069 40.2 177.223 39.9867 176.476 39.56C175.743 39.12 175.163 38.4867 174.736 37.66C174.309 36.82 174.096 35.8067 174.096 34.62C174.096 32.8467 174.543 31.48 175.436 30.52C176.329 29.56 177.543 29.08 179.076 29.08C180.049 29.08 180.903 29.3 181.636 29.74C182.383 30.1667 182.963 30.7933 183.376 31.62C183.803 32.4333 184.016 33.4333 184.016 34.62ZM175.916 34.62C175.916 35.8867 176.163 36.8933 176.656 37.64C177.163 38.3733 177.963 38.74 179.056 38.74C180.136 38.74 180.929 38.3733 181.436 37.64C181.943 36.8933 182.196 35.8867 182.196 34.62C182.196 33.3533 181.943 32.36 181.436 31.64C180.929 30.92 180.129 30.56 179.036 30.56C177.943 30.56 177.149 30.92 176.656 31.64C176.163 32.36 175.916 33.3533 175.916 34.62ZM188.565 28.5C188.565 28.9533 188.552 29.38 188.525 29.78C188.512 30.1667 188.492 30.4733 188.465 30.7H188.565C188.872 30.2467 189.292 29.8667 189.825 29.56C190.359 29.2533 191.045 29.1 191.885 29.1C193.219 29.1 194.285 29.5667 195.085 30.5C195.899 31.42 196.305 32.8 196.305 34.64C196.305 36.48 195.899 37.8667 195.085 38.8C194.272 39.7333 193.205 40.2 191.885 40.2C191.045 40.2 190.359 40.0467 189.825 39.74C189.292 39.4333 188.872 39.0667 188.565 38.64H188.425L188.065 40H186.805V24.8H188.565V28.5ZM191.585 30.56C190.452 30.56 189.665 30.8867 189.225 31.54C188.785 32.1933 188.565 33.2067 188.565 34.58V34.66C188.565 35.98 188.779 36.9933 189.205 37.7C189.645 38.3933 190.452 38.74 191.625 38.74C192.585 38.74 193.299 38.3867 193.765 37.68C194.245 36.9733 194.485 35.9533 194.485 34.62C194.485 31.9133 193.519 30.56 191.585 30.56ZM200.87 40H199.11V24.8H200.87V40ZM205.166 25.26C205.433 25.26 205.666 25.3533 205.866 25.54C206.08 25.7133 206.186 25.9933 206.186 26.38C206.186 26.7533 206.08 27.0333 205.866 27.22C205.666 27.4067 205.433 27.5 205.166 27.5C204.873 27.5 204.626 27.4067 204.426 27.22C204.226 27.0333 204.126 26.7533 204.126 26.38C204.126 25.9933 204.226 25.7133 204.426 25.54C204.626 25.3533 204.873 25.26 205.166 25.26ZM206.026 29.28V40H204.266V29.28H206.026ZM213.223 29.08C213.929 29.08 214.563 29.2133 215.123 29.48C215.696 29.7467 216.183 30.1533 216.583 30.7H216.683L216.923 29.28H218.323V40.18C218.323 41.7133 217.929 42.8667 217.143 43.64C216.369 44.4133 215.163 44.8 213.523 44.8C211.949 44.8 210.663 44.5733 209.663 44.12V42.5C210.716 43.06 212.036 43.34 213.623 43.34C214.543 43.34 215.263 43.0667 215.783 42.52C216.316 41.9867 216.583 41.2533 216.583 40.32V39.9C216.583 39.74 216.589 39.5133 216.603 39.22C216.616 38.9133 216.629 38.7 216.643 38.58H216.563C215.843 39.66 214.736 40.2 213.243 40.2C211.856 40.2 210.769 39.7133 209.983 38.74C209.209 37.7667 208.823 36.4067 208.823 34.66C208.823 32.9533 209.209 31.6 209.983 30.6C210.769 29.5867 211.849 29.08 213.223 29.08ZM213.463 30.56C212.569 30.56 211.876 30.92 211.383 31.64C210.889 32.3467 210.643 33.36 210.643 34.68C210.643 36 210.883 37.0133 211.363 37.72C211.856 38.4133 212.569 38.76 213.503 38.76C214.583 38.76 215.369 38.4733 215.863 37.9C216.356 37.3133 216.603 36.3733 216.603 35.08V34.66C216.603 33.1933 216.349 32.1467 215.843 31.52C215.336 30.88 214.543 30.56 213.463 30.56ZM225.787 29.1C227.094 29.1 228.061 29.3867 228.687 29.96C229.314 30.5333 229.627 31.4467 229.627 32.7V40H228.347L228.007 38.48H227.927C227.461 39.0667 226.967 39.5 226.447 39.78C225.941 40.06 225.234 40.2 224.327 40.2C223.354 40.2 222.547 39.9467 221.907 39.44C221.267 38.92 220.947 38.1133 220.947 37.02C220.947 35.9533 221.367 35.1333 222.207 34.56C223.047 33.9733 224.341 33.6533 226.087 33.6L227.907 33.54V32.9C227.907 32.0067 227.714 31.3867 227.327 31.04C226.941 30.6933 226.394 30.52 225.687 30.52C225.127 30.52 224.594 30.6067 224.087 30.78C223.581 30.94 223.107 31.1267 222.667 31.34L222.127 30.02C222.594 29.7667 223.147 29.5533 223.787 29.38C224.427 29.1933 225.094 29.1 225.787 29.1ZM226.307 34.82C224.974 34.8733 224.047 35.0867 223.527 35.46C223.021 35.8333 222.767 36.36 222.767 37.04C222.767 37.64 222.947 38.08 223.307 38.36C223.681 38.64 224.154 38.78 224.727 38.78C225.634 38.78 226.387 38.5333 226.987 38.04C227.587 37.5333 227.887 36.76 227.887 35.72V34.76L226.307 34.82ZM236.518 38.76C236.785 38.76 237.058 38.74 237.338 38.7C237.618 38.6467 237.845 38.5933 238.018 38.54V39.88C237.832 39.9733 237.565 40.0467 237.218 40.1C236.872 40.1667 236.538 40.2 236.218 40.2C235.658 40.2 235.138 40.1067 234.658 39.92C234.192 39.72 233.812 39.38 233.518 38.9C233.225 38.42 233.078 37.7467 233.078 36.88V30.64H231.558V29.8L233.098 29.1L233.798 26.82H234.838V29.28H237.938V30.64H234.838V36.84C234.838 37.4933 234.992 37.98 235.298 38.3C235.618 38.6067 236.025 38.76 236.518 38.76ZM249.485 34.62C249.485 36.3933 249.032 37.7667 248.125 38.74C247.232 39.7133 246.018 40.2 244.485 40.2C243.538 40.2 242.692 39.9867 241.945 39.56C241.212 39.12 240.632 38.4867 240.205 37.66C239.778 36.82 239.565 35.8067 239.565 34.62C239.565 32.8467 240.012 31.48 240.905 30.52C241.798 29.56 243.012 29.08 244.545 29.08C245.518 29.08 246.372 29.3 247.105 29.74C247.852 30.1667 248.432 30.7933 248.845 31.62C249.272 32.4333 249.485 33.4333 249.485 34.62ZM241.385 34.62C241.385 35.8867 241.632 36.8933 242.125 37.64C242.632 38.3733 243.432 38.74 244.525 38.74C245.605 38.74 246.398 38.3733 246.905 37.64C247.412 36.8933 247.665 35.8867 247.665 34.62C247.665 33.3533 247.412 32.36 246.905 31.64C246.398 30.92 245.598 30.56 244.505 30.56C243.412 30.56 242.618 30.92 242.125 31.64C241.632 32.36 241.385 33.3533 241.385 34.62ZM253.174 25.26C253.441 25.26 253.674 25.3533 253.874 25.54C254.088 25.7133 254.194 25.9933 254.194 26.38C254.194 26.7533 254.088 27.0333 253.874 27.22C253.674 27.4067 253.441 27.5 253.174 27.5C252.881 27.5 252.634 27.4067 252.434 27.22C252.234 27.0333 252.134 26.7533 252.134 26.38C252.134 25.9933 252.234 25.7133 252.434 25.54C252.634 25.3533 252.881 25.26 253.174 25.26ZM254.034 29.28V40H252.274V29.28H254.034ZM262.43 29.08C262.63 29.08 262.844 29.0933 263.07 29.12C263.31 29.1333 263.517 29.16 263.69 29.2L263.47 30.82C263.297 30.78 263.104 30.7467 262.89 30.72C262.69 30.6933 262.497 30.68 262.31 30.68C261.764 30.68 261.25 30.8333 260.77 31.14C260.29 31.4333 259.904 31.8533 259.61 32.4C259.33 32.9333 259.19 33.56 259.19 34.28V40H257.43V29.28H258.87L259.07 31.24H259.15C259.497 30.6533 259.944 30.1467 260.49 29.72C261.037 29.2933 261.684 29.08 262.43 29.08ZM269.442 29.08C270.362 29.08 271.148 29.28 271.802 29.68C272.468 30.08 272.975 30.6467 273.322 31.38C273.682 32.1 273.862 32.9467 273.862 33.92V34.98H266.522C266.548 36.1933 266.855 37.12 267.442 37.76C268.042 38.3867 268.875 38.7 269.942 38.7C270.622 38.7 271.222 38.64 271.742 38.52C272.275 38.3867 272.822 38.2 273.382 37.96V39.5C272.835 39.74 272.295 39.9133 271.762 40.02C271.228 40.14 270.595 40.2 269.862 40.2C268.848 40.2 267.948 39.9933 267.162 39.58C266.388 39.1667 265.782 38.5533 265.342 37.74C264.915 36.9133 264.702 35.9067 264.702 34.72C264.702 33.5467 264.895 32.54 265.282 31.7C265.682 30.86 266.235 30.2133 266.942 29.76C267.662 29.3067 268.495 29.08 269.442 29.08ZM269.422 30.52C268.582 30.52 267.915 30.7933 267.422 31.34C266.942 31.8733 266.655 32.62 266.562 33.58H272.022C272.008 32.6733 271.795 31.94 271.382 31.38C270.968 30.8067 270.315 30.52 269.422 30.52ZM280.091 34.52C280.091 36.1333 279.851 37.6867 279.371 39.18C278.904 40.66 278.164 41.9867 277.151 43.16H275.511C276.431 41.9067 277.124 40.54 277.591 39.06C278.071 37.5667 278.311 36.0467 278.311 34.5C278.311 32.9133 278.071 31.3667 277.591 29.86C277.124 28.3533 276.424 26.9733 275.491 25.72H277.151C278.164 26.9333 278.904 28.3 279.371 29.82C279.851 31.3267 280.091 32.8933 280.091 34.52Z" fill="#333333"/>
<path d="M74.46 78H72.66V65.3H68.2V63.72H78.9V65.3H74.46V78ZM83.547 67.08C84.467 67.08 85.2537 67.28 85.907 67.68C86.5737 68.08 87.0804 68.6467 87.427 69.38C87.787 70.1 87.967 70.9467 87.967 71.92V72.98H80.627C80.6537 74.1933 80.9604 75.12 81.547 75.76C82.147 76.3867 82.9804 76.7 84.047 76.7C84.727 76.7 85.327 76.64 85.847 76.52C86.3804 76.3867 86.927 76.2 87.487 75.96V77.5C86.9404 77.74 86.4004 77.9133 85.867 78.02C85.3337 78.14 84.7004 78.2 83.967 78.2C82.9537 78.2 82.0537 77.9933 81.267 77.58C80.4937 77.1667 79.887 76.5533 79.447 75.74C79.0204 74.9133 78.807 73.9067 78.807 72.72C78.807 71.5467 79.0004 70.54 79.387 69.7C79.787 68.86 80.3404 68.2133 81.047 67.76C81.767 67.3067 82.6004 67.08 83.547 67.08ZM83.527 68.52C82.687 68.52 82.0204 68.7933 81.527 69.34C81.047 69.8733 80.7604 70.62 80.667 71.58H86.127C86.1137 70.6733 85.9004 69.94 85.487 69.38C85.0737 68.8067 84.4204 68.52 83.527 68.52ZM92.8455 72.52L89.1455 67.28H91.1455L93.9055 71.32L96.6455 67.28H98.6255L94.9255 72.52L98.8255 78H96.8255L93.9055 73.72L90.9455 78H88.9655L92.8455 72.52ZM104.471 76.76C104.738 76.76 105.011 76.74 105.291 76.7C105.571 76.6467 105.798 76.5933 105.971 76.54V77.88C105.785 77.9733 105.518 78.0467 105.171 78.1C104.825 78.1667 104.491 78.2 104.171 78.2C103.611 78.2 103.091 78.1067 102.611 77.92C102.145 77.72 101.765 77.38 101.471 76.9C101.178 76.42 101.031 75.7467 101.031 74.88V68.64H99.5114V67.8L101.051 67.1L101.751 64.82H102.791V67.28H105.891V68.64H102.791V74.84C102.791 75.4933 102.945 75.98 103.251 76.3C103.571 76.6067 103.978 76.76 104.471 76.76ZM112.258 67.08C113.178 67.08 113.965 67.28 114.618 67.68C115.285 68.08 115.791 68.6467 116.138 69.38C116.498 70.1 116.678 70.9467 116.678 71.92V72.98H109.338C109.365 74.1933 109.671 75.12 110.258 75.76C110.858 76.3867 111.691 76.7 112.758 76.7C113.438 76.7 114.038 76.64 114.558 76.52C115.091 76.3867 115.638 76.2 116.198 75.96V77.5C115.651 77.74 115.111 77.9133 114.578 78.02C114.045 78.14 113.411 78.2 112.678 78.2C111.665 78.2 110.765 77.9933 109.978 77.58C109.205 77.1667 108.598 76.5533 108.158 75.74C107.731 74.9133 107.518 73.9067 107.518 72.72C107.518 71.5467 107.711 70.54 108.098 69.7C108.498 68.86 109.051 68.2133 109.758 67.76C110.478 67.3067 111.311 67.08 112.258 67.08ZM112.238 68.52C111.398 68.52 110.731 68.7933 110.238 69.34C109.758 69.8733 109.471 70.62 109.378 71.58H114.838C114.825 70.6733 114.611 69.94 114.198 69.38C113.785 68.8067 113.131 68.52 112.238 68.52ZM128.742 67.08C129.662 67.08 130.449 67.28 131.102 67.68C131.769 68.08 132.276 68.6467 132.622 69.38C132.982 70.1 133.162 70.9467 133.162 71.92V72.98H125.822C125.849 74.1933 126.156 75.12 126.742 75.76C127.342 76.3867 128.176 76.7 129.242 76.7C129.922 76.7 130.522 76.64 131.042 76.52C131.576 76.3867 132.122 76.2 132.682 75.96V77.5C132.136 77.74 131.596 77.9133 131.062 78.02C130.529 78.14 129.896 78.2 129.162 78.2C128.149 78.2 127.249 77.9933 126.462 77.58C125.689 77.1667 125.082 76.5533 124.642 75.74C124.216 74.9133 124.002 73.9067 124.002 72.72C124.002 71.5467 124.196 70.54 124.582 69.7C124.982 68.86 125.536 68.2133 126.242 67.76C126.962 67.3067 127.796 67.08 128.742 67.08ZM128.722 68.52C127.882 68.52 127.216 68.7933 126.722 69.34C126.242 69.8733 125.956 70.62 125.862 71.58H131.322C131.309 70.6733 131.096 69.94 130.682 69.38C130.269 68.8067 129.616 68.52 128.722 68.52ZM138.041 72.52L134.341 67.28H136.341L139.101 71.32L141.841 67.28H143.821L140.121 72.52L144.021 78H142.021L139.101 73.72L136.141 78H134.161L138.041 72.52ZM151.187 67.08C152.507 67.08 153.567 67.54 154.367 68.46C155.18 69.38 155.587 70.7667 155.587 72.62C155.587 74.4467 155.18 75.8333 154.367 76.78C153.567 77.7267 152.5 78.2 151.167 78.2C150.34 78.2 149.653 78.0467 149.107 77.74C148.573 77.42 148.153 77.0533 147.847 76.64H147.727C147.753 76.8667 147.78 77.1533 147.807 77.5C147.833 77.8467 147.847 78.1467 147.847 78.4V82.8H146.087V67.28H147.527L147.767 68.74H147.847C148.167 68.2733 148.587 67.88 149.107 67.56C149.627 67.24 150.32 67.08 151.187 67.08ZM150.867 68.56C149.773 68.56 149 68.8667 148.547 69.48C148.107 70.0933 147.873 71.0267 147.847 72.28V72.62C147.847 73.94 148.06 74.96 148.487 75.68C148.927 76.3867 149.733 76.74 150.907 76.74C151.56 76.74 152.093 76.56 152.507 76.2C152.933 75.84 153.247 75.3533 153.447 74.74C153.66 74.1133 153.767 73.4 153.767 72.6C153.767 71.3733 153.527 70.3933 153.047 69.66C152.58 68.9267 151.853 68.56 150.867 68.56ZM160.151 78H158.391V62.8H160.151V78ZM164.448 63.26C164.714 63.26 164.948 63.3533 165.148 63.54C165.361 63.7133 165.468 63.9933 165.468 64.38C165.468 64.7533 165.361 65.0333 165.148 65.22C164.948 65.4067 164.714 65.5 164.448 65.5C164.154 65.5 163.908 65.4067 163.708 65.22C163.508 65.0333 163.408 64.7533 163.408 64.38C163.408 63.9933 163.508 63.7133 163.708 63.54C163.908 63.3533 164.154 63.26 164.448 63.26ZM165.308 67.28V78H163.548V67.28H165.308ZM173.004 78.2C172.057 78.2 171.211 78.0067 170.464 77.62C169.731 77.2333 169.151 76.6333 168.724 75.82C168.311 75.0067 168.104 73.9667 168.104 72.7C168.104 71.38 168.324 70.3067 168.764 69.48C169.204 68.6533 169.797 68.0467 170.544 67.66C171.304 67.2733 172.164 67.08 173.124 67.08C173.671 67.08 174.197 67.14 174.704 67.26C175.211 67.3667 175.624 67.5 175.944 67.66L175.404 69.12C175.084 69 174.711 68.8867 174.284 68.78C173.857 68.6733 173.457 68.62 173.084 68.62C170.977 68.62 169.924 69.9733 169.924 72.68C169.924 73.9733 170.177 74.9667 170.684 75.66C171.204 76.34 171.971 76.68 172.984 76.68C173.571 76.68 174.084 76.62 174.524 76.5C174.977 76.38 175.391 76.2333 175.764 76.06V77.62C175.404 77.8067 175.004 77.9467 174.564 78.04C174.137 78.1467 173.617 78.2 173.004 78.2ZM182.373 67.1C183.68 67.1 184.647 67.3867 185.273 67.96C185.9 68.5333 186.213 69.4467 186.213 70.7V78H184.933L184.593 76.48H184.513C184.047 77.0667 183.553 77.5 183.033 77.78C182.527 78.06 181.82 78.2 180.913 78.2C179.94 78.2 179.133 77.9467 178.493 77.44C177.853 76.92 177.533 76.1133 177.533 75.02C177.533 73.9533 177.953 73.1333 178.793 72.56C179.633 71.9733 180.927 71.6533 182.673 71.6L184.493 71.54V70.9C184.493 70.0067 184.3 69.3867 183.913 69.04C183.527 68.6933 182.98 68.52 182.273 68.52C181.713 68.52 181.18 68.6067 180.673 68.78C180.167 68.94 179.693 69.1267 179.253 69.34L178.713 68.02C179.18 67.7667 179.733 67.5533 180.373 67.38C181.013 67.1933 181.68 67.1 182.373 67.1ZM182.893 72.82C181.56 72.8733 180.633 73.0867 180.113 73.46C179.607 73.8333 179.353 74.36 179.353 75.04C179.353 75.64 179.533 76.08 179.893 76.36C180.267 76.64 180.74 76.78 181.313 76.78C182.22 76.78 182.973 76.5333 183.573 76.04C184.173 75.5333 184.473 74.76 184.473 73.72V72.76L182.893 72.82ZM193.104 76.76C193.371 76.76 193.644 76.74 193.924 76.7C194.204 76.6467 194.431 76.5933 194.604 76.54V77.88C194.418 77.9733 194.151 78.0467 193.804 78.1C193.458 78.1667 193.124 78.2 192.804 78.2C192.244 78.2 191.724 78.1067 191.244 77.92C190.778 77.72 190.398 77.38 190.104 76.9C189.811 76.42 189.664 75.7467 189.664 74.88V68.64H188.144V67.8L189.684 67.1L190.384 64.82H191.424V67.28H194.524V68.64H191.424V74.84C191.424 75.4933 191.578 75.98 191.884 76.3C192.204 76.6067 192.611 76.76 193.104 76.76ZM197.651 63.26C197.917 63.26 198.151 63.3533 198.351 63.54C198.564 63.7133 198.671 63.9933 198.671 64.38C198.671 64.7533 198.564 65.0333 198.351 65.22C198.151 65.4067 197.917 65.5 197.651 65.5C197.357 65.5 197.111 65.4067 196.911 65.22C196.711 65.0333 196.611 64.7533 196.611 64.38C196.611 63.9933 196.711 63.7133 196.911 63.54C197.111 63.3533 197.357 63.26 197.651 63.26ZM198.511 67.28V78H196.751V67.28H198.511ZM206.847 68.64H204.147V78H202.387V68.64H200.507V67.82L202.387 67.22V66.6C202.387 65.2133 202.694 64.22 203.307 63.62C203.92 63.0067 204.774 62.7 205.867 62.7C206.294 62.7 206.68 62.74 207.027 62.82C207.387 62.8867 207.694 62.9667 207.947 63.06L207.487 64.44C207.274 64.3733 207.027 64.3067 206.747 64.24C206.467 64.1733 206.18 64.14 205.887 64.14C205.3 64.14 204.86 64.34 204.567 64.74C204.287 65.1267 204.147 65.74 204.147 66.58V67.28H206.847V68.64Z" fill="#43474E"/>
<rect x="69" y="99" width="502.333" height="46" rx="2" fill="white"/>
<rect x="69" y="99" width="502.333" height="46" rx="2" stroke="#333333" stroke-width="2"/>
<g clip-path="url(#clip0_5534_61396)">
<rect x="20" y="38" width="48" height="1" fill="#C54600"/>
<g clip-path="url(#clip1_5534_61396)">
<rect x="20" y="26" width="24" height="24" rx="12" fill="#C54600"/>
<path d="M33.1825 33.2727V42H32.1257V34.3807H32.0746L29.9439 35.7955V34.7216L32.1257 33.2727H33.1825Z" fill="white"/>
</g>
</g>
<g clip-path="url(#clip2_5534_61396)">
<rect x="20" y="68" width="48" height="1" fill="#C54600"/>
<g clip-path="url(#clip3_5534_61396)">
<rect x="20" y="56" width="24" height="24" rx="12" fill="#C54600"/>
<path d="M29.2706 72V71.233L32.1513 68.0795C32.4893 67.7102 32.7678 67.3892 32.9865 67.1165C33.2053 66.8409 33.3672 66.5824 33.4723 66.3409C33.5803 66.0966 33.6342 65.8409 33.6342 65.5739C33.6342 65.267 33.5604 65.0014 33.4126 64.777C33.2678 64.5526 33.0689 64.3793 32.8161 64.2571C32.5632 64.1349 32.2791 64.0739 31.9638 64.0739C31.6286 64.0739 31.3359 64.1435 31.0859 64.2827C30.8388 64.419 30.647 64.6108 30.5107 64.858C30.3771 65.1051 30.3104 65.3949 30.3104 65.7273H29.3047C29.3047 65.2159 29.4226 64.767 29.6584 64.3807C29.8942 63.9943 30.2152 63.6932 30.6214 63.4773C31.0305 63.2614 31.4893 63.1534 31.9979 63.1534C32.5092 63.1534 32.9624 63.2614 33.3572 63.4773C33.7521 63.6932 34.0618 63.9844 34.2862 64.3509C34.5107 64.7173 34.6229 65.125 34.6229 65.5739C34.6229 65.8949 34.5646 66.2088 34.4482 66.5156C34.3345 66.8196 34.1357 67.1591 33.8516 67.5341C33.5703 67.9062 33.1797 68.3608 32.6797 68.8977L30.7195 70.9943V71.0625H34.7763V72H29.2706Z" fill="white"/>
</g>
</g>
<g clip-path="url(#clip4_5534_61396)">
<rect x="20" y="116" width="48" height="1" fill="#C54600"/>
<g clip-path="url(#clip5_5534_61396)">
<rect x="20" y="104" width="24" height="24" rx="12" fill="#C54600"/>
<path d="M32.032 120.119C31.4695 120.119 30.968 120.023 30.5277 119.83C30.0902 119.636 29.7422 119.368 29.4837 119.024C29.228 118.678 29.0888 118.276 29.0661 117.818H30.1399C30.1626 118.099 30.2592 118.342 30.4297 118.547C30.6001 118.749 30.8232 118.905 31.0987 119.016C31.3743 119.126 31.6797 119.182 32.0149 119.182C32.3899 119.182 32.7223 119.116 33.0121 118.986C33.3018 118.855 33.5291 118.673 33.6939 118.44C33.8587 118.207 33.9411 117.938 33.9411 117.631C33.9411 117.31 33.8615 117.027 33.7024 116.783C33.5433 116.536 33.3104 116.342 33.0036 116.203C32.6967 116.064 32.3217 115.994 31.8786 115.994H31.1797V115.057H31.8786C32.2251 115.057 32.5291 114.994 32.7905 114.869C33.0547 114.744 33.2607 114.568 33.4084 114.341C33.5589 114.114 33.6342 113.847 33.6342 113.54C33.6342 113.244 33.5689 112.987 33.4382 112.768C33.3075 112.55 33.1229 112.379 32.8842 112.257C32.6484 112.135 32.37 112.074 32.049 112.074C31.7479 112.074 31.4638 112.129 31.1967 112.24C30.9325 112.348 30.7166 112.506 30.549 112.713C30.3814 112.918 30.2905 113.165 30.2763 113.455H29.2536C29.2706 112.997 29.4084 112.597 29.6669 112.253C29.9254 111.906 30.2635 111.636 30.6811 111.443C31.1016 111.25 31.5632 111.153 32.0661 111.153C32.6058 111.153 33.0689 111.263 33.4553 111.482C33.8416 111.697 34.1385 111.983 34.3459 112.338C34.5533 112.693 34.657 113.077 34.657 113.489C34.657 113.98 34.5277 114.399 34.2692 114.746C34.0135 115.092 33.6655 115.332 33.2251 115.466V115.534C33.7763 115.625 34.2067 115.859 34.5163 116.237C34.826 116.612 34.9808 117.077 34.9808 117.631C34.9808 118.105 34.8516 118.531 34.593 118.909C34.3374 119.284 33.9879 119.58 33.5447 119.795C33.1016 120.011 32.5973 120.119 32.032 120.119Z" fill="white"/>
</g>
</g>
<defs>
<clipPath id="clip0_5534_61396">
<rect width="48" height="24" fill="white" transform="translate(20 26)"/>
</clipPath>
<clipPath id="clip1_5534_61396">
<rect x="20" y="26" width="24" height="24" rx="12" fill="white"/>
</clipPath>
<clipPath id="clip2_5534_61396">
<rect width="48" height="24" fill="white" transform="translate(20 56)"/>
</clipPath>
<clipPath id="clip3_5534_61396">
<rect x="20" y="56" width="24" height="24" rx="12" fill="white"/>
</clipPath>
<clipPath id="clip4_5534_61396">
<rect width="48" height="24" fill="white" transform="translate(20 104)"/>
</clipPath>
<clipPath id="clip5_5534_61396">
<rect x="20" y="104" width="24" height="24" rx="12" fill="white"/>
</clipPath>
</defs>
</svg>
