<svg width="648" height="158" viewBox="0 0 648 158" fill="none" xmlns="http://www.w3.org/2000/svg">
<g clip-path="url(#clip0_5534_68159)">
<path d="M78.02 42H69.8V27.72H78.02V30.2H72.82V33.34H77.66V35.82H72.82V39.5H78.02V42ZM78.24 23.52C78.0533 23.7067 77.8067 23.9333 77.5 24.2C77.1933 24.4667 76.86 24.7467 76.5 25.04C76.1533 25.3333 75.8067 25.6133 75.46 25.88C75.1267 26.1333 74.8333 26.3467 74.58 26.52H72.6V26.26C72.8133 26.0067 73.06 25.7133 73.34 25.38C73.6333 25.0333 73.92 24.68 74.2 24.32C74.48 23.9467 74.7133 23.6133 74.9 23.32H78.24V23.52ZM85.3514 39.82C85.6847 39.82 86.0047 39.7867 86.3114 39.72C86.6181 39.6533 86.9247 39.5733 87.2314 39.48V41.7C86.9114 41.8333 86.5114 41.9467 86.0314 42.04C85.5647 42.1467 85.0514 42.2 84.4914 42.2C83.8381 42.2 83.2514 42.0933 82.7314 41.88C82.2247 41.6667 81.8181 41.3 81.5114 40.78C81.2181 40.2467 81.0714 39.5133 81.0714 38.58V33.32H79.6514V32.06L81.2914 31.06L82.1514 28.76H84.0514V31.08H87.1114V33.32H84.0514V38.58C84.0514 38.9933 84.1714 39.3067 84.4114 39.52C84.6514 39.72 84.9647 39.82 85.3514 39.82ZM90.9233 26.8C91.3633 26.8 91.7433 26.9067 92.0633 27.12C92.3833 27.32 92.5433 27.7 92.5433 28.26C92.5433 28.8067 92.3833 29.1867 92.0633 29.4C91.7433 29.6133 91.3633 29.72 90.9233 29.72C90.4699 29.72 90.0833 29.6133 89.7633 29.4C89.4566 29.1867 89.3033 28.8067 89.3033 28.26C89.3033 27.7 89.4566 27.32 89.7633 27.12C90.0833 26.9067 90.4699 26.8 90.9233 26.8ZM92.4033 31.08V42H89.4233V31.08H92.4033ZM102.077 42.22C102.077 41.66 102.117 41.1133 102.197 40.58H102.077C101.797 41.0333 101.41 41.42 100.917 41.74C100.424 42.0467 99.777 42.2 98.977 42.2C97.7504 42.2 96.757 41.7267 95.997 40.78C95.237 39.82 94.857 38.4133 94.857 36.56C94.857 34.6933 95.2437 33.28 96.017 32.32C96.7904 31.36 97.797 30.88 99.037 30.88C99.837 30.88 100.484 31.0333 100.977 31.34C101.484 31.6467 101.89 32.0267 102.197 32.48H102.277L102.537 31.08H105.057V46.8H102.077V42.22ZM100.037 39.86C100.864 39.86 101.437 39.62 101.757 39.14C102.09 38.6467 102.264 37.9133 102.277 36.94V36.58C102.277 35.5133 102.11 34.7 101.777 34.14C101.457 33.58 100.864 33.3 99.997 33.3C99.2904 33.3 98.7637 33.5867 98.417 34.16C98.0704 34.72 97.897 35.5333 97.897 36.6C97.897 38.7733 98.6104 39.86 100.037 39.86ZM118.193 31.08V42H115.913L115.513 40.6H115.353C115.007 41.16 114.527 41.5667 113.913 41.82C113.313 42.0733 112.673 42.2 111.993 42.2C110.82 42.2 109.88 41.8867 109.173 41.26C108.467 40.62 108.113 39.6 108.113 38.2V31.08H111.093V37.46C111.093 38.2333 111.233 38.82 111.513 39.22C111.793 39.62 112.24 39.82 112.853 39.82C113.76 39.82 114.38 39.5133 114.713 38.9C115.047 38.2733 115.213 37.38 115.213 36.22V31.08H118.193ZM125.818 30.88C127.324 30.88 128.518 31.3133 129.398 32.18C130.278 33.0333 130.718 34.2533 130.718 35.84V37.28H123.678C123.704 38.12 123.951 38.78 124.418 39.26C124.898 39.74 125.558 39.98 126.398 39.98C127.104 39.98 127.744 39.9133 128.318 39.78C128.891 39.6333 129.484 39.4133 130.098 39.12V41.42C129.564 41.6867 128.998 41.88 128.398 42C127.811 42.1333 127.098 42.2 126.258 42.2C125.164 42.2 124.198 42 123.358 41.6C122.518 41.1867 121.858 40.5667 121.378 39.74C120.898 38.9133 120.658 37.8733 120.658 36.62C120.658 35.34 120.871 34.28 121.298 33.44C121.738 32.5867 122.344 31.9467 123.118 31.52C123.891 31.0933 124.791 30.88 125.818 30.88ZM125.838 33C125.264 33 124.784 33.1867 124.398 33.56C124.024 33.9333 123.804 34.5133 123.738 35.3H127.918C127.904 34.6333 127.731 34.0867 127.398 33.66C127.064 33.22 126.544 33 125.838 33ZM137.734 39.82C138.068 39.82 138.388 39.7867 138.694 39.72C139.001 39.6533 139.308 39.5733 139.614 39.48V41.7C139.294 41.8333 138.894 41.9467 138.414 42.04C137.948 42.1467 137.434 42.2 136.874 42.2C136.221 42.2 135.634 42.0933 135.114 41.88C134.608 41.6667 134.201 41.3 133.894 40.78C133.601 40.2467 133.454 39.5133 133.454 38.58V33.32H132.034V32.06L133.674 31.06L134.534 28.76H136.434V31.08H139.494V33.32H136.434V38.58C136.434 38.9933 136.554 39.3067 136.794 39.52C137.034 39.72 137.348 39.82 137.734 39.82ZM146.406 39.82C146.739 39.82 147.059 39.7867 147.366 39.72C147.673 39.6533 147.979 39.5733 148.286 39.48V41.7C147.966 41.8333 147.566 41.9467 147.086 42.04C146.619 42.1467 146.106 42.2 145.546 42.2C144.893 42.2 144.306 42.0933 143.786 41.88C143.279 41.6667 142.873 41.3 142.566 40.78C142.273 40.2467 142.126 39.5133 142.126 38.58V33.32H140.706V32.06L142.346 31.06L143.206 28.76H145.106V31.08H148.166V33.32H145.106V38.58C145.106 38.9933 145.226 39.3067 145.466 39.52C145.706 39.72 146.019 39.82 146.406 39.82ZM154.978 30.88C156.485 30.88 157.678 31.3133 158.558 32.18C159.438 33.0333 159.878 34.2533 159.878 35.84V37.28H152.838C152.865 38.12 153.111 38.78 153.578 39.26C154.058 39.74 154.718 39.98 155.558 39.98C156.265 39.98 156.905 39.9133 157.478 39.78C158.051 39.6333 158.645 39.4133 159.258 39.12V41.42C158.725 41.6867 158.158 41.88 157.558 42C156.971 42.1333 156.258 42.2 155.418 42.2C154.325 42.2 153.358 42 152.518 41.6C151.678 41.1867 151.018 40.5667 150.538 39.74C150.058 38.9133 149.818 37.8733 149.818 36.62C149.818 35.34 150.031 34.28 150.458 33.44C150.898 32.5867 151.505 31.9467 152.278 31.52C153.051 31.0933 153.951 30.88 154.978 30.88ZM154.998 33C154.425 33 153.945 33.1867 153.558 33.56C153.185 33.9333 152.965 34.5133 152.898 35.3H157.078C157.065 34.6333 156.891 34.0867 156.558 33.66C156.225 33.22 155.705 33 154.998 33Z" fill="#333333"/>
<path d="M169.8 36.52C169.8 34.8933 170.033 33.3267 170.5 31.82C170.98 30.3 171.727 28.9333 172.74 27.72H174.4C173.467 28.9733 172.76 30.3533 172.28 31.86C171.813 33.3667 171.58 34.9133 171.58 36.5C171.58 38.0467 171.813 39.5667 172.28 41.06C172.76 42.54 173.46 43.9067 174.38 45.16H172.74C171.727 43.9867 170.98 42.66 170.5 41.18C170.033 39.6867 169.8 38.1333 169.8 36.52ZM186.016 36.62C186.016 38.3933 185.563 39.7667 184.656 40.74C183.763 41.7133 182.549 42.2 181.016 42.2C180.069 42.2 179.223 41.9867 178.476 41.56C177.743 41.12 177.163 40.4867 176.736 39.66C176.309 38.82 176.096 37.8067 176.096 36.62C176.096 34.8467 176.543 33.48 177.436 32.52C178.329 31.56 179.543 31.08 181.076 31.08C182.049 31.08 182.903 31.3 183.636 31.74C184.383 32.1667 184.963 32.7933 185.376 33.62C185.803 34.4333 186.016 35.4333 186.016 36.62ZM177.916 36.62C177.916 37.8867 178.163 38.8933 178.656 39.64C179.163 40.3733 179.963 40.74 181.056 40.74C182.136 40.74 182.929 40.3733 183.436 39.64C183.943 38.8933 184.196 37.8867 184.196 36.62C184.196 35.3533 183.943 34.36 183.436 33.64C182.929 32.92 182.129 32.56 181.036 32.56C179.943 32.56 179.149 32.92 178.656 33.64C178.163 34.36 177.916 35.3533 177.916 36.62ZM190.565 30.5C190.565 30.9533 190.552 31.38 190.525 31.78C190.512 32.1667 190.492 32.4733 190.465 32.7H190.565C190.872 32.2467 191.292 31.8667 191.825 31.56C192.359 31.2533 193.045 31.1 193.885 31.1C195.219 31.1 196.285 31.5667 197.085 32.5C197.899 33.42 198.305 34.8 198.305 36.64C198.305 38.48 197.899 39.8667 197.085 40.8C196.272 41.7333 195.205 42.2 193.885 42.2C193.045 42.2 192.359 42.0467 191.825 41.74C191.292 41.4333 190.872 41.0667 190.565 40.64H190.425L190.065 42H188.805V26.8H190.565V30.5ZM193.585 32.56C192.452 32.56 191.665 32.8867 191.225 33.54C190.785 34.1933 190.565 35.2067 190.565 36.58V36.66C190.565 37.98 190.779 38.9933 191.205 39.7C191.645 40.3933 192.452 40.74 193.625 40.74C194.585 40.74 195.299 40.3867 195.765 39.68C196.245 38.9733 196.485 37.9533 196.485 36.62C196.485 33.9133 195.519 32.56 193.585 32.56ZM202.87 42H201.11V26.8H202.87V42ZM207.166 27.26C207.433 27.26 207.666 27.3533 207.866 27.54C208.08 27.7133 208.186 27.9933 208.186 28.38C208.186 28.7533 208.08 29.0333 207.866 29.22C207.666 29.4067 207.433 29.5 207.166 29.5C206.873 29.5 206.626 29.4067 206.426 29.22C206.226 29.0333 206.126 28.7533 206.126 28.38C206.126 27.9933 206.226 27.7133 206.426 27.54C206.626 27.3533 206.873 27.26 207.166 27.26ZM208.026 31.28V42H206.266V31.28H208.026ZM215.223 31.08C215.929 31.08 216.563 31.2133 217.123 31.48C217.696 31.7467 218.183 32.1533 218.583 32.7H218.683L218.923 31.28H220.323V42.18C220.323 43.7133 219.929 44.8667 219.143 45.64C218.369 46.4133 217.163 46.8 215.523 46.8C213.949 46.8 212.663 46.5733 211.663 46.12V44.5C212.716 45.06 214.036 45.34 215.623 45.34C216.543 45.34 217.263 45.0667 217.783 44.52C218.316 43.9867 218.583 43.2533 218.583 42.32V41.9C218.583 41.74 218.589 41.5133 218.603 41.22C218.616 40.9133 218.629 40.7 218.643 40.58H218.563C217.843 41.66 216.736 42.2 215.243 42.2C213.856 42.2 212.769 41.7133 211.983 40.74C211.209 39.7667 210.823 38.4067 210.823 36.66C210.823 34.9533 211.209 33.6 211.983 32.6C212.769 31.5867 213.849 31.08 215.223 31.08ZM215.463 32.56C214.569 32.56 213.876 32.92 213.383 33.64C212.889 34.3467 212.643 35.36 212.643 36.68C212.643 38 212.883 39.0133 213.363 39.72C213.856 40.4133 214.569 40.76 215.503 40.76C216.583 40.76 217.369 40.4733 217.863 39.9C218.356 39.3133 218.603 38.3733 218.603 37.08V36.66C218.603 35.1933 218.349 34.1467 217.843 33.52C217.336 32.88 216.543 32.56 215.463 32.56ZM227.787 31.1C229.094 31.1 230.061 31.3867 230.687 31.96C231.314 32.5333 231.627 33.4467 231.627 34.7V42H230.347L230.007 40.48H229.927C229.461 41.0667 228.967 41.5 228.447 41.78C227.941 42.06 227.234 42.2 226.327 42.2C225.354 42.2 224.547 41.9467 223.907 41.44C223.267 40.92 222.947 40.1133 222.947 39.02C222.947 37.9533 223.367 37.1333 224.207 36.56C225.047 35.9733 226.341 35.6533 228.087 35.6L229.907 35.54V34.9C229.907 34.0067 229.714 33.3867 229.327 33.04C228.941 32.6933 228.394 32.52 227.687 32.52C227.127 32.52 226.594 32.6067 226.087 32.78C225.581 32.94 225.107 33.1267 224.667 33.34L224.127 32.02C224.594 31.7667 225.147 31.5533 225.787 31.38C226.427 31.1933 227.094 31.1 227.787 31.1ZM228.307 36.82C226.974 36.8733 226.047 37.0867 225.527 37.46C225.021 37.8333 224.767 38.36 224.767 39.04C224.767 39.64 224.947 40.08 225.307 40.36C225.681 40.64 226.154 40.78 226.727 40.78C227.634 40.78 228.387 40.5333 228.987 40.04C229.587 39.5333 229.887 38.76 229.887 37.72V36.76L228.307 36.82ZM238.518 40.76C238.785 40.76 239.058 40.74 239.338 40.7C239.618 40.6467 239.845 40.5933 240.018 40.54V41.88C239.832 41.9733 239.565 42.0467 239.218 42.1C238.872 42.1667 238.538 42.2 238.218 42.2C237.658 42.2 237.138 42.1067 236.658 41.92C236.192 41.72 235.812 41.38 235.518 40.9C235.225 40.42 235.078 39.7467 235.078 38.88V32.64H233.558V31.8L235.098 31.1L235.798 28.82H236.838V31.28H239.938V32.64H236.838V38.84C236.838 39.4933 236.992 39.98 237.298 40.3C237.618 40.6067 238.025 40.76 238.518 40.76ZM251.485 36.62C251.485 38.3933 251.032 39.7667 250.125 40.74C249.232 41.7133 248.018 42.2 246.485 42.2C245.538 42.2 244.692 41.9867 243.945 41.56C243.212 41.12 242.632 40.4867 242.205 39.66C241.778 38.82 241.565 37.8067 241.565 36.62C241.565 34.8467 242.012 33.48 242.905 32.52C243.798 31.56 245.012 31.08 246.545 31.08C247.518 31.08 248.372 31.3 249.105 31.74C249.852 32.1667 250.432 32.7933 250.845 33.62C251.272 34.4333 251.485 35.4333 251.485 36.62ZM243.385 36.62C243.385 37.8867 243.632 38.8933 244.125 39.64C244.632 40.3733 245.432 40.74 246.525 40.74C247.605 40.74 248.398 40.3733 248.905 39.64C249.412 38.8933 249.665 37.8867 249.665 36.62C249.665 35.3533 249.412 34.36 248.905 33.64C248.398 32.92 247.598 32.56 246.505 32.56C245.412 32.56 244.618 32.92 244.125 33.64C243.632 34.36 243.385 35.3533 243.385 36.62ZM255.174 27.26C255.441 27.26 255.674 27.3533 255.874 27.54C256.088 27.7133 256.194 27.9933 256.194 28.38C256.194 28.7533 256.088 29.0333 255.874 29.22C255.674 29.4067 255.441 29.5 255.174 29.5C254.881 29.5 254.634 29.4067 254.434 29.22C254.234 29.0333 254.134 28.7533 254.134 28.38C254.134 27.9933 254.234 27.7133 254.434 27.54C254.634 27.3533 254.881 27.26 255.174 27.26ZM256.034 31.28V42H254.274V31.28H256.034ZM264.43 31.08C264.63 31.08 264.844 31.0933 265.07 31.12C265.31 31.1333 265.517 31.16 265.69 31.2L265.47 32.82C265.297 32.78 265.104 32.7467 264.89 32.72C264.69 32.6933 264.497 32.68 264.31 32.68C263.764 32.68 263.25 32.8333 262.77 33.14C262.29 33.4333 261.904 33.8533 261.61 34.4C261.33 34.9333 261.19 35.56 261.19 36.28V42H259.43V31.28H260.87L261.07 33.24H261.15C261.497 32.6533 261.944 32.1467 262.49 31.72C263.037 31.2933 263.684 31.08 264.43 31.08ZM271.442 31.08C272.362 31.08 273.148 31.28 273.802 31.68C274.468 32.08 274.975 32.6467 275.322 33.38C275.682 34.1 275.862 34.9467 275.862 35.92V36.98H268.522C268.548 38.1933 268.855 39.12 269.442 39.76C270.042 40.3867 270.875 40.7 271.942 40.7C272.622 40.7 273.222 40.64 273.742 40.52C274.275 40.3867 274.822 40.2 275.382 39.96V41.5C274.835 41.74 274.295 41.9133 273.762 42.02C273.228 42.14 272.595 42.2 271.862 42.2C270.848 42.2 269.948 41.9933 269.162 41.58C268.388 41.1667 267.782 40.5533 267.342 39.74C266.915 38.9133 266.702 37.9067 266.702 36.72C266.702 35.5467 266.895 34.54 267.282 33.7C267.682 32.86 268.235 32.2133 268.942 31.76C269.662 31.3067 270.495 31.08 271.442 31.08ZM271.422 32.52C270.582 32.52 269.915 32.7933 269.422 33.34C268.942 33.8733 268.655 34.62 268.562 35.58H274.022C274.008 34.6733 273.795 33.94 273.382 33.38C272.968 32.8067 272.315 32.52 271.422 32.52ZM282.091 36.52C282.091 38.1333 281.851 39.6867 281.371 41.18C280.904 42.66 280.164 43.9867 279.151 45.16H277.511C278.431 43.9067 279.124 42.54 279.591 41.06C280.071 39.5667 280.311 38.0467 280.311 36.5C280.311 34.9133 280.071 33.3667 279.591 31.86C279.124 30.3533 278.424 28.9733 277.491 27.72H279.151C280.164 28.9333 280.904 30.3 281.371 31.82C281.851 33.3267 282.091 34.8933 282.091 36.52Z" fill="#333333"/>
<path d="M74.46 74H72.66V61.3H68.2V59.72H78.9V61.3H74.46V74ZM83.547 63.08C84.467 63.08 85.2537 63.28 85.907 63.68C86.5737 64.08 87.0804 64.6467 87.427 65.38C87.787 66.1 87.967 66.9467 87.967 67.92V68.98H80.627C80.6537 70.1933 80.9604 71.12 81.547 71.76C82.147 72.3867 82.9804 72.7 84.047 72.7C84.727 72.7 85.327 72.64 85.847 72.52C86.3804 72.3867 86.927 72.2 87.487 71.96V73.5C86.9404 73.74 86.4004 73.9133 85.867 74.02C85.3337 74.14 84.7004 74.2 83.967 74.2C82.9537 74.2 82.0537 73.9933 81.267 73.58C80.4937 73.1667 79.887 72.5533 79.447 71.74C79.0204 70.9133 78.807 69.9067 78.807 68.72C78.807 67.5467 79.0004 66.54 79.387 65.7C79.787 64.86 80.3404 64.2133 81.047 63.76C81.767 63.3067 82.6004 63.08 83.547 63.08ZM83.527 64.52C82.687 64.52 82.0204 64.7933 81.527 65.34C81.047 65.8733 80.7604 66.62 80.667 67.58H86.127C86.1137 66.6733 85.9004 65.94 85.487 65.38C85.0737 64.8067 84.4204 64.52 83.527 64.52ZM92.8455 68.52L89.1455 63.28H91.1455L93.9055 67.32L96.6455 63.28H98.6255L94.9255 68.52L98.8255 74H96.8255L93.9055 69.72L90.9455 74H88.9655L92.8455 68.52ZM104.471 72.76C104.738 72.76 105.011 72.74 105.291 72.7C105.571 72.6467 105.798 72.5933 105.971 72.54V73.88C105.785 73.9733 105.518 74.0467 105.171 74.1C104.825 74.1667 104.491 74.2 104.171 74.2C103.611 74.2 103.091 74.1067 102.611 73.92C102.145 73.72 101.765 73.38 101.471 72.9C101.178 72.42 101.031 71.7467 101.031 70.88V64.64H99.5114V63.8L101.051 63.1L101.751 60.82H102.791V63.28H105.891V64.64H102.791V70.84C102.791 71.4933 102.945 71.98 103.251 72.3C103.571 72.6067 103.978 72.76 104.471 72.76ZM112.258 63.08C113.178 63.08 113.965 63.28 114.618 63.68C115.285 64.08 115.791 64.6467 116.138 65.38C116.498 66.1 116.678 66.9467 116.678 67.92V68.98H109.338C109.365 70.1933 109.671 71.12 110.258 71.76C110.858 72.3867 111.691 72.7 112.758 72.7C113.438 72.7 114.038 72.64 114.558 72.52C115.091 72.3867 115.638 72.2 116.198 71.96V73.5C115.651 73.74 115.111 73.9133 114.578 74.02C114.045 74.14 113.411 74.2 112.678 74.2C111.665 74.2 110.765 73.9933 109.978 73.58C109.205 73.1667 108.598 72.5533 108.158 71.74C107.731 70.9133 107.518 69.9067 107.518 68.72C107.518 67.5467 107.711 66.54 108.098 65.7C108.498 64.86 109.051 64.2133 109.758 63.76C110.478 63.3067 111.311 63.08 112.258 63.08ZM112.238 64.52C111.398 64.52 110.731 64.7933 110.238 65.34C109.758 65.8733 109.471 66.62 109.378 67.58H114.838C114.825 66.6733 114.611 65.94 114.198 65.38C113.785 64.8067 113.131 64.52 112.238 64.52ZM128.742 63.08C129.662 63.08 130.449 63.28 131.102 63.68C131.769 64.08 132.276 64.6467 132.622 65.38C132.982 66.1 133.162 66.9467 133.162 67.92V68.98H125.822C125.849 70.1933 126.156 71.12 126.742 71.76C127.342 72.3867 128.176 72.7 129.242 72.7C129.922 72.7 130.522 72.64 131.042 72.52C131.576 72.3867 132.122 72.2 132.682 71.96V73.5C132.136 73.74 131.596 73.9133 131.062 74.02C130.529 74.14 129.896 74.2 129.162 74.2C128.149 74.2 127.249 73.9933 126.462 73.58C125.689 73.1667 125.082 72.5533 124.642 71.74C124.216 70.9133 124.002 69.9067 124.002 68.72C124.002 67.5467 124.196 66.54 124.582 65.7C124.982 64.86 125.536 64.2133 126.242 63.76C126.962 63.3067 127.796 63.08 128.742 63.08ZM128.722 64.52C127.882 64.52 127.216 64.7933 126.722 65.34C126.242 65.8733 125.956 66.62 125.862 67.58H131.322C131.309 66.6733 131.096 65.94 130.682 65.38C130.269 64.8067 129.616 64.52 128.722 64.52ZM138.041 68.52L134.341 63.28H136.341L139.101 67.32L141.841 63.28H143.821L140.121 68.52L144.021 74H142.021L139.101 69.72L136.141 74H134.161L138.041 68.52ZM151.187 63.08C152.507 63.08 153.567 63.54 154.367 64.46C155.18 65.38 155.587 66.7667 155.587 68.62C155.587 70.4467 155.18 71.8333 154.367 72.78C153.567 73.7267 152.5 74.2 151.167 74.2C150.34 74.2 149.653 74.0467 149.107 73.74C148.573 73.42 148.153 73.0533 147.847 72.64H147.727C147.753 72.8667 147.78 73.1533 147.807 73.5C147.833 73.8467 147.847 74.1467 147.847 74.4V78.8H146.087V63.28H147.527L147.767 64.74H147.847C148.167 64.2733 148.587 63.88 149.107 63.56C149.627 63.24 150.32 63.08 151.187 63.08ZM150.867 64.56C149.773 64.56 149 64.8667 148.547 65.48C148.107 66.0933 147.873 67.0267 147.847 68.28V68.62C147.847 69.94 148.06 70.96 148.487 71.68C148.927 72.3867 149.733 72.74 150.907 72.74C151.56 72.74 152.093 72.56 152.507 72.2C152.933 71.84 153.247 71.3533 153.447 70.74C153.66 70.1133 153.767 69.4 153.767 68.6C153.767 67.3733 153.527 66.3933 153.047 65.66C152.58 64.9267 151.853 64.56 150.867 64.56ZM160.151 74H158.391V58.8H160.151V74ZM164.448 59.26C164.714 59.26 164.948 59.3533 165.148 59.54C165.361 59.7133 165.468 59.9933 165.468 60.38C165.468 60.7533 165.361 61.0333 165.148 61.22C164.948 61.4067 164.714 61.5 164.448 61.5C164.154 61.5 163.908 61.4067 163.708 61.22C163.508 61.0333 163.408 60.7533 163.408 60.38C163.408 59.9933 163.508 59.7133 163.708 59.54C163.908 59.3533 164.154 59.26 164.448 59.26ZM165.308 63.28V74H163.548V63.28H165.308ZM173.004 74.2C172.057 74.2 171.211 74.0067 170.464 73.62C169.731 73.2333 169.151 72.6333 168.724 71.82C168.311 71.0067 168.104 69.9667 168.104 68.7C168.104 67.38 168.324 66.3067 168.764 65.48C169.204 64.6533 169.797 64.0467 170.544 63.66C171.304 63.2733 172.164 63.08 173.124 63.08C173.671 63.08 174.197 63.14 174.704 63.26C175.211 63.3667 175.624 63.5 175.944 63.66L175.404 65.12C175.084 65 174.711 64.8867 174.284 64.78C173.857 64.6733 173.457 64.62 173.084 64.62C170.977 64.62 169.924 65.9733 169.924 68.68C169.924 69.9733 170.177 70.9667 170.684 71.66C171.204 72.34 171.971 72.68 172.984 72.68C173.571 72.68 174.084 72.62 174.524 72.5C174.977 72.38 175.391 72.2333 175.764 72.06V73.62C175.404 73.8067 175.004 73.9467 174.564 74.04C174.137 74.1467 173.617 74.2 173.004 74.2ZM182.373 63.1C183.68 63.1 184.647 63.3867 185.273 63.96C185.9 64.5333 186.213 65.4467 186.213 66.7V74H184.933L184.593 72.48H184.513C184.047 73.0667 183.553 73.5 183.033 73.78C182.527 74.06 181.82 74.2 180.913 74.2C179.94 74.2 179.133 73.9467 178.493 73.44C177.853 72.92 177.533 72.1133 177.533 71.02C177.533 69.9533 177.953 69.1333 178.793 68.56C179.633 67.9733 180.927 67.6533 182.673 67.6L184.493 67.54V66.9C184.493 66.0067 184.3 65.3867 183.913 65.04C183.527 64.6933 182.98 64.52 182.273 64.52C181.713 64.52 181.18 64.6067 180.673 64.78C180.167 64.94 179.693 65.1267 179.253 65.34L178.713 64.02C179.18 63.7667 179.733 63.5533 180.373 63.38C181.013 63.1933 181.68 63.1 182.373 63.1ZM182.893 68.82C181.56 68.8733 180.633 69.0867 180.113 69.46C179.607 69.8333 179.353 70.36 179.353 71.04C179.353 71.64 179.533 72.08 179.893 72.36C180.267 72.64 180.74 72.78 181.313 72.78C182.22 72.78 182.973 72.5333 183.573 72.04C184.173 71.5333 184.473 70.76 184.473 69.72V68.76L182.893 68.82ZM193.104 72.76C193.371 72.76 193.644 72.74 193.924 72.7C194.204 72.6467 194.431 72.5933 194.604 72.54V73.88C194.418 73.9733 194.151 74.0467 193.804 74.1C193.458 74.1667 193.124 74.2 192.804 74.2C192.244 74.2 191.724 74.1067 191.244 73.92C190.778 73.72 190.398 73.38 190.104 72.9C189.811 72.42 189.664 71.7467 189.664 70.88V64.64H188.144V63.8L189.684 63.1L190.384 60.82H191.424V63.28H194.524V64.64H191.424V70.84C191.424 71.4933 191.578 71.98 191.884 72.3C192.204 72.6067 192.611 72.76 193.104 72.76ZM197.651 59.26C197.917 59.26 198.151 59.3533 198.351 59.54C198.564 59.7133 198.671 59.9933 198.671 60.38C198.671 60.7533 198.564 61.0333 198.351 61.22C198.151 61.4067 197.917 61.5 197.651 61.5C197.357 61.5 197.111 61.4067 196.911 61.22C196.711 61.0333 196.611 60.7533 196.611 60.38C196.611 59.9933 196.711 59.7133 196.911 59.54C197.111 59.3533 197.357 59.26 197.651 59.26ZM198.511 63.28V74H196.751V63.28H198.511ZM206.847 64.64H204.147V74H202.387V64.64H200.507V63.82L202.387 63.22V62.6C202.387 61.2133 202.694 60.22 203.307 59.62C203.92 59.0067 204.774 58.7 205.867 58.7C206.294 58.7 206.68 58.74 207.027 58.82C207.387 58.8867 207.694 58.9667 207.947 59.06L207.487 60.44C207.274 60.3733 207.027 60.3067 206.747 60.24C206.467 60.1733 206.18 60.14 205.887 60.14C205.3 60.14 204.86 60.34 204.567 60.74C204.287 61.1267 204.147 61.74 204.147 62.58V63.28H206.847V64.64Z" fill="#43474E"/>
<rect x="69" y="91" width="478" height="46" rx="2" fill="white"/>
<rect x="69" y="91" width="478" height="46" rx="2" stroke="#333333" stroke-width="2"/>
<path d="M86.04 118.18C86.04 119.447 85.58 120.433 84.66 121.14C83.74 121.847 82.5 122.2 80.94 122.2C80.14 122.2 79.4 122.14 78.72 122.02C78.04 121.9 77.4733 121.733 77.02 121.52V119.8C77.5 120.013 78.0933 120.207 78.8 120.38C79.52 120.553 80.26 120.64 81.02 120.64C82.0867 120.64 82.8867 120.433 83.42 120.02C83.9667 119.607 84.24 119.047 84.24 118.34C84.24 117.873 84.14 117.48 83.94 117.16C83.74 116.84 83.3933 116.547 82.9 116.28C82.42 116 81.7467 115.707 80.88 115.4C79.6667 114.96 78.7467 114.42 78.12 113.78C77.5067 113.14 77.2 112.267 77.2 111.16C77.2 110.4 77.3933 109.753 77.78 109.22C78.1667 108.673 78.7 108.253 79.38 107.96C80.0733 107.667 80.8667 107.52 81.76 107.52C82.5467 107.52 83.2667 107.593 83.92 107.74C84.5733 107.887 85.1667 108.08 85.7 108.32L85.14 109.86C84.6467 109.647 84.1067 109.467 83.52 109.32C82.9467 109.173 82.3467 109.1 81.72 109.1C80.8267 109.1 80.1533 109.293 79.7 109.68C79.2467 110.053 79.02 110.553 79.02 111.18C79.02 111.66 79.12 112.06 79.32 112.38C79.52 112.7 79.8467 112.987 80.3 113.24C80.7533 113.493 81.3667 113.767 82.14 114.06C82.98 114.367 83.6867 114.7 84.26 115.06C84.8467 115.407 85.2867 115.827 85.58 116.32C85.8867 116.813 86.04 117.433 86.04 118.18ZM92.8166 111.08C93.7366 111.08 94.5232 111.28 95.1766 111.68C95.8432 112.08 96.3499 112.647 96.6966 113.38C97.0566 114.1 97.2366 114.947 97.2366 115.92V116.98H89.8966C89.9232 118.193 90.2299 119.12 90.8166 119.76C91.4166 120.387 92.2499 120.7 93.3166 120.7C93.9966 120.7 94.5966 120.64 95.1166 120.52C95.6499 120.387 96.1966 120.2 96.7566 119.96V121.5C96.2099 121.74 95.6699 121.913 95.1366 122.02C94.6032 122.14 93.9699 122.2 93.2366 122.2C92.2232 122.2 91.3232 121.993 90.5366 121.58C89.7632 121.167 89.1566 120.553 88.7166 119.74C88.2899 118.913 88.0766 117.907 88.0766 116.72C88.0766 115.547 88.2699 114.54 88.6566 113.7C89.0566 112.86 89.6099 112.213 90.3166 111.76C91.0366 111.307 91.8699 111.08 92.8166 111.08ZM92.7966 112.52C91.9566 112.52 91.2899 112.793 90.7966 113.34C90.3166 113.873 90.0299 114.62 89.9366 115.58H95.3966C95.3832 114.673 95.1699 113.94 94.7566 113.38C94.3432 112.807 93.6899 112.52 92.7966 112.52ZM95.6366 106.88C95.4766 107.12 95.2299 107.433 94.8966 107.82C94.5632 108.193 94.2032 108.573 93.8166 108.96C93.4432 109.333 93.0966 109.64 92.7766 109.88H91.6166V109.64C91.8166 109.387 92.0299 109.087 92.2566 108.74C92.4966 108.393 92.7299 108.04 92.9566 107.68C93.1832 107.307 93.3699 106.973 93.5166 106.68H95.6366V106.88ZM101.726 122H99.9656V106.8H101.726V122ZM109.262 111.08C110.182 111.08 110.969 111.28 111.622 111.68C112.289 112.08 112.795 112.647 113.142 113.38C113.502 114.1 113.682 114.947 113.682 115.92V116.98H106.342C106.369 118.193 106.675 119.12 107.262 119.76C107.862 120.387 108.695 120.7 109.762 120.7C110.442 120.7 111.042 120.64 111.562 120.52C112.095 120.387 112.642 120.2 113.202 119.96V121.5C112.655 121.74 112.115 121.913 111.582 122.02C111.049 122.14 110.415 122.2 109.682 122.2C108.669 122.2 107.769 121.993 106.982 121.58C106.209 121.167 105.602 120.553 105.162 119.74C104.735 118.913 104.522 117.907 104.522 116.72C104.522 115.547 104.715 114.54 105.102 113.7C105.502 112.86 106.055 112.213 106.762 111.76C107.482 111.307 108.315 111.08 109.262 111.08ZM109.242 112.52C108.402 112.52 107.735 112.793 107.242 113.34C106.762 113.873 106.475 114.62 106.382 115.58H111.842C111.829 114.673 111.615 113.94 111.202 113.38C110.789 112.807 110.135 112.52 109.242 112.52ZM120.711 122.2C119.764 122.2 118.918 122.007 118.171 121.62C117.438 121.233 116.858 120.633 116.431 119.82C116.018 119.007 115.811 117.967 115.811 116.7C115.811 115.38 116.031 114.307 116.471 113.48C116.911 112.653 117.504 112.047 118.251 111.66C119.011 111.273 119.871 111.08 120.831 111.08C121.378 111.08 121.904 111.14 122.411 111.26C122.918 111.367 123.331 111.5 123.651 111.66L123.111 113.12C122.791 113 122.418 112.887 121.991 112.78C121.564 112.673 121.164 112.62 120.791 112.62C118.684 112.62 117.631 113.973 117.631 116.68C117.631 117.973 117.884 118.967 118.391 119.66C118.911 120.34 119.678 120.68 120.691 120.68C121.278 120.68 121.791 120.62 122.231 120.5C122.684 120.38 123.098 120.233 123.471 120.06V121.62C123.111 121.807 122.711 121.947 122.271 122.04C121.844 122.147 121.324 122.2 120.711 122.2ZM129.6 120.76C129.867 120.76 130.14 120.74 130.42 120.7C130.7 120.647 130.927 120.593 131.1 120.54V121.88C130.914 121.973 130.647 122.047 130.3 122.1C129.954 122.167 129.62 122.2 129.3 122.2C128.74 122.2 128.22 122.107 127.74 121.92C127.274 121.72 126.894 121.38 126.6 120.9C126.307 120.42 126.16 119.747 126.16 118.88V112.64H124.64V111.8L126.18 111.1L126.88 108.82H127.92V111.28H131.02V112.64H127.92V118.84C127.92 119.493 128.074 119.98 128.38 120.3C128.7 120.607 129.107 120.76 129.6 120.76ZM134.147 107.26C134.414 107.26 134.647 107.353 134.847 107.54C135.06 107.713 135.167 107.993 135.167 108.38C135.167 108.753 135.06 109.033 134.847 109.22C134.647 109.407 134.414 109.5 134.147 109.5C133.854 109.5 133.607 109.407 133.407 109.22C133.207 109.033 133.107 108.753 133.107 108.38C133.107 107.993 133.207 107.713 133.407 107.54C133.607 107.353 133.854 107.26 134.147 107.26ZM135.007 111.28V122H133.247V111.28H135.007ZM147.723 116.62C147.723 118.393 147.27 119.767 146.363 120.74C145.47 121.713 144.256 122.2 142.723 122.2C141.776 122.2 140.93 121.987 140.183 121.56C139.45 121.12 138.87 120.487 138.443 119.66C138.016 118.82 137.803 117.807 137.803 116.62C137.803 114.847 138.25 113.48 139.143 112.52C140.036 111.56 141.25 111.08 142.783 111.08C143.756 111.08 144.61 111.3 145.343 111.74C146.09 112.167 146.67 112.793 147.083 113.62C147.51 114.433 147.723 115.433 147.723 116.62ZM139.623 116.62C139.623 117.887 139.87 118.893 140.363 119.64C140.87 120.373 141.67 120.74 142.763 120.74C143.843 120.74 144.636 120.373 145.143 119.64C145.65 118.893 145.903 117.887 145.903 116.62C145.903 115.353 145.65 114.36 145.143 113.64C144.636 112.92 143.836 112.56 142.743 112.56C141.65 112.56 140.856 112.92 140.363 113.64C139.87 114.36 139.623 115.353 139.623 116.62ZM155.673 111.08C156.953 111.08 157.919 111.393 158.573 112.02C159.226 112.633 159.553 113.633 159.553 115.02V122H157.813V115.14C157.813 113.42 157.013 112.56 155.413 112.56C154.226 112.56 153.406 112.893 152.953 113.56C152.499 114.227 152.273 115.187 152.273 116.44V122H150.513V111.28H151.933L152.193 112.74H152.293C152.639 112.18 153.119 111.767 153.733 111.5C154.346 111.22 154.993 111.08 155.673 111.08ZM168.036 111.08C169.316 111.08 170.282 111.393 170.936 112.02C171.589 112.633 171.916 113.633 171.916 115.02V122H170.176V115.14C170.176 113.42 169.376 112.56 167.776 112.56C166.589 112.56 165.769 112.893 165.316 113.56C164.862 114.227 164.636 115.187 164.636 116.44V122H162.876V111.28H164.296L164.556 112.74H164.656C165.002 112.18 165.482 111.767 166.096 111.5C166.709 111.22 167.356 111.08 168.036 111.08ZM179.379 111.08C180.299 111.08 181.086 111.28 181.739 111.68C182.406 112.08 182.912 112.647 183.259 113.38C183.619 114.1 183.799 114.947 183.799 115.92V116.98H176.459C176.486 118.193 176.792 119.12 177.379 119.76C177.979 120.387 178.812 120.7 179.879 120.7C180.559 120.7 181.159 120.64 181.679 120.52C182.212 120.387 182.759 120.2 183.319 119.96V121.5C182.772 121.74 182.232 121.913 181.699 122.02C181.166 122.14 180.532 122.2 179.799 122.2C178.786 122.2 177.886 121.993 177.099 121.58C176.326 121.167 175.719 120.553 175.279 119.74C174.852 118.913 174.639 117.907 174.639 116.72C174.639 115.547 174.832 114.54 175.219 113.7C175.619 112.86 176.172 112.213 176.879 111.76C177.599 111.307 178.432 111.08 179.379 111.08ZM179.359 112.52C178.519 112.52 177.852 112.793 177.359 113.34C176.879 113.873 176.592 114.62 176.499 115.58H181.959C181.946 114.673 181.732 113.94 181.319 113.38C180.906 112.807 180.252 112.52 179.359 112.52ZM193.253 122H185.413V120.84L191.173 112.64H185.753V111.28H193.113V112.6L187.433 120.64H193.253V122ZM209.883 111.28V122H208.443L208.183 120.58H208.103C207.756 121.14 207.276 121.553 206.663 121.82C206.049 122.073 205.396 122.2 204.703 122.2C203.409 122.2 202.436 121.893 201.783 121.28C201.129 120.653 200.803 119.66 200.803 118.3V111.28H202.583V118.18C202.583 119.887 203.376 120.74 204.963 120.74C206.149 120.74 206.969 120.407 207.423 119.74C207.889 119.073 208.123 118.113 208.123 116.86V111.28H209.883ZM218.446 111.08C219.726 111.08 220.693 111.393 221.346 112.02C221.999 112.633 222.326 113.633 222.326 115.02V122H220.586V115.14C220.586 113.42 219.786 112.56 218.186 112.56C216.999 112.56 216.179 112.893 215.726 113.56C215.273 114.227 215.046 115.187 215.046 116.44V122H213.286V111.28H214.706L214.966 112.74H215.066C215.413 112.18 215.893 111.767 216.506 111.5C217.119 111.22 217.766 111.08 218.446 111.08ZM229.789 111.08C230.709 111.08 231.496 111.28 232.149 111.68C232.816 112.08 233.323 112.647 233.669 113.38C234.029 114.1 234.209 114.947 234.209 115.92V116.98H226.869C226.896 118.193 227.203 119.12 227.789 119.76C228.389 120.387 229.223 120.7 230.289 120.7C230.969 120.7 231.569 120.64 232.089 120.52C232.623 120.387 233.169 120.2 233.729 119.96V121.5C233.183 121.74 232.643 121.913 232.109 122.02C231.576 122.14 230.943 122.2 230.209 122.2C229.196 122.2 228.296 121.993 227.509 121.58C226.736 121.167 226.129 120.553 225.689 119.74C225.263 118.913 225.049 117.907 225.049 116.72C225.049 115.547 225.243 114.54 225.629 113.7C226.029 112.86 226.583 112.213 227.289 111.76C228.009 111.307 228.843 111.08 229.789 111.08ZM229.769 112.52C228.929 112.52 228.263 112.793 227.769 113.34C227.289 113.873 227.003 114.62 226.909 115.58H232.369C232.356 114.673 232.143 113.94 231.729 113.38C231.316 112.807 230.663 112.52 229.769 112.52ZM251.454 116.62C251.454 118.393 251 119.767 250.094 120.74C249.2 121.713 247.987 122.2 246.454 122.2C245.507 122.2 244.66 121.987 243.914 121.56C243.18 121.12 242.6 120.487 242.174 119.66C241.747 118.82 241.534 117.807 241.534 116.62C241.534 114.847 241.98 113.48 242.874 112.52C243.767 111.56 244.98 111.08 246.514 111.08C247.487 111.08 248.34 111.3 249.074 111.74C249.82 112.167 250.4 112.793 250.814 113.62C251.24 114.433 251.454 115.433 251.454 116.62ZM243.354 116.62C243.354 117.887 243.6 118.893 244.094 119.64C244.6 120.373 245.4 120.74 246.494 120.74C247.574 120.74 248.367 120.373 248.874 119.64C249.38 118.893 249.634 117.887 249.634 116.62C249.634 115.353 249.38 114.36 248.874 113.64C248.367 112.92 247.567 112.56 246.474 112.56C245.38 112.56 244.587 112.92 244.094 113.64C243.6 114.36 243.354 115.353 243.354 116.62ZM259.343 111.08C260.663 111.08 261.723 111.54 262.523 112.46C263.336 113.38 263.743 114.767 263.743 116.62C263.743 118.447 263.336 119.833 262.523 120.78C261.723 121.727 260.656 122.2 259.323 122.2C258.496 122.2 257.81 122.047 257.263 121.74C256.73 121.42 256.31 121.053 256.003 120.64H255.883C255.91 120.867 255.936 121.153 255.963 121.5C255.99 121.847 256.003 122.147 256.003 122.4V126.8H254.243V111.28H255.683L255.923 112.74H256.003C256.323 112.273 256.743 111.88 257.263 111.56C257.783 111.24 258.476 111.08 259.343 111.08ZM259.023 112.56C257.93 112.56 257.156 112.867 256.703 113.48C256.263 114.093 256.03 115.027 256.003 116.28V116.62C256.003 117.94 256.216 118.96 256.643 119.68C257.083 120.387 257.89 120.74 259.063 120.74C259.716 120.74 260.25 120.56 260.663 120.2C261.09 119.84 261.403 119.353 261.603 118.74C261.816 118.113 261.923 117.4 261.923 116.6C261.923 115.373 261.683 114.393 261.203 113.66C260.736 112.927 260.01 112.56 259.023 112.56ZM270.128 120.76C270.394 120.76 270.668 120.74 270.948 120.7C271.228 120.647 271.454 120.593 271.628 120.54V121.88C271.441 121.973 271.174 122.047 270.828 122.1C270.481 122.167 270.148 122.2 269.828 122.2C269.268 122.2 268.748 122.107 268.268 121.92C267.801 121.72 267.421 121.38 267.128 120.9C266.834 120.42 266.688 119.747 266.688 118.88V112.64H265.168V111.8L266.708 111.1L267.408 108.82H268.448V111.28H271.548V112.64H268.448V118.84C268.448 119.493 268.601 119.98 268.908 120.3C269.228 120.607 269.634 120.76 270.128 120.76ZM274.674 107.26C274.941 107.26 275.174 107.353 275.374 107.54C275.588 107.713 275.694 107.993 275.694 108.38C275.694 108.753 275.588 109.033 275.374 109.22C275.174 109.407 274.941 109.5 274.674 109.5C274.381 109.5 274.134 109.407 273.934 109.22C273.734 109.033 273.634 108.753 273.634 108.38C273.634 107.993 273.734 107.713 273.934 107.54C274.134 107.353 274.381 107.26 274.674 107.26ZM275.534 111.28V122H273.774V111.28H275.534ZM288.25 116.62C288.25 118.393 287.797 119.767 286.89 120.74C285.997 121.713 284.784 122.2 283.25 122.2C282.304 122.2 281.457 121.987 280.71 121.56C279.977 121.12 279.397 120.487 278.97 119.66C278.544 118.82 278.33 117.807 278.33 116.62C278.33 114.847 278.777 113.48 279.67 112.52C280.564 111.56 281.777 111.08 283.31 111.08C284.284 111.08 285.137 111.3 285.87 111.74C286.617 112.167 287.197 112.793 287.61 113.62C288.037 114.433 288.25 115.433 288.25 116.62ZM280.15 116.62C280.15 117.887 280.397 118.893 280.89 119.64C281.397 120.373 282.197 120.74 283.29 120.74C284.37 120.74 285.164 120.373 285.67 119.64C286.177 118.893 286.43 117.887 286.43 116.62C286.43 115.353 286.177 114.36 285.67 113.64C285.164 112.92 284.364 112.56 283.27 112.56C282.177 112.56 281.384 112.92 280.89 113.64C280.397 114.36 280.15 115.353 280.15 116.62ZM296.2 111.08C297.48 111.08 298.447 111.393 299.1 112.02C299.753 112.633 300.08 113.633 300.08 115.02V122H298.34V115.14C298.34 113.42 297.54 112.56 295.94 112.56C294.753 112.56 293.933 112.893 293.48 113.56C293.027 114.227 292.8 115.187 292.8 116.44V122H291.04V111.28H292.46L292.72 112.74H292.82C293.167 112.18 293.647 111.767 294.26 111.5C294.873 111.22 295.52 111.08 296.2 111.08Z" fill="#333333"/>
<path d="M524 115.75L530.5 109.25L532 110.75L524 118.75L516 110.75L517.5 109.25L524 115.75Z" fill="#333333"/>
<g clip-path="url(#clip1_5534_68159)">
<rect x="20" y="36" width="48" height="1" fill="#C54600"/>
<g clip-path="url(#clip2_5534_68159)">
<rect x="20" y="24" width="24" height="24" rx="12" fill="#C54600"/>
<path d="M33.1825 31.2727V40H32.1257V32.3807H32.0746L29.9439 33.7955V32.7216L32.1257 31.2727H33.1825Z" fill="white"/>
</g>
</g>
<g clip-path="url(#clip3_5534_68159)">
<rect x="20" y="66" width="48" height="1" fill="#C54600"/>
<g clip-path="url(#clip4_5534_68159)">
<rect x="20" y="54" width="24" height="24" rx="12" fill="#C54600"/>
<path d="M29.2706 70V69.233L32.1513 66.0795C32.4893 65.7102 32.7678 65.3892 32.9865 65.1165C33.2053 64.8409 33.3672 64.5824 33.4723 64.3409C33.5803 64.0966 33.6342 63.8409 33.6342 63.5739C33.6342 63.267 33.5604 63.0014 33.4126 62.777C33.2678 62.5526 33.0689 62.3793 32.8161 62.2571C32.5632 62.1349 32.2791 62.0739 31.9638 62.0739C31.6286 62.0739 31.3359 62.1435 31.0859 62.2827C30.8388 62.419 30.647 62.6108 30.5107 62.858C30.3771 63.1051 30.3104 63.3949 30.3104 63.7273H29.3047C29.3047 63.2159 29.4226 62.767 29.6584 62.3807C29.8942 61.9943 30.2152 61.6932 30.6214 61.4773C31.0305 61.2614 31.4893 61.1534 31.9979 61.1534C32.5092 61.1534 32.9624 61.2614 33.3572 61.4773C33.7521 61.6932 34.0618 61.9844 34.2862 62.3509C34.5107 62.7173 34.6229 63.125 34.6229 63.5739C34.6229 63.8949 34.5646 64.2088 34.4482 64.5156C34.3345 64.8196 34.1357 65.1591 33.8516 65.5341C33.5703 65.9062 33.1797 66.3608 32.6797 66.8977L30.7195 68.9943V69.0625H34.7763V70H29.2706Z" fill="white"/>
</g>
</g>
<g clip-path="url(#clip5_5534_68159)">
<rect x="20" y="114" width="48" height="1" fill="#C54600"/>
<g clip-path="url(#clip6_5534_68159)">
<rect x="20" y="102" width="24" height="24" rx="12" fill="#C54600"/>
<path d="M32.032 118.119C31.4695 118.119 30.968 118.023 30.5277 117.83C30.0902 117.636 29.7422 117.368 29.4837 117.024C29.228 116.678 29.0888 116.276 29.0661 115.818H30.1399C30.1626 116.099 30.2592 116.342 30.4297 116.547C30.6001 116.749 30.8232 116.905 31.0987 117.016C31.3743 117.126 31.6797 117.182 32.0149 117.182C32.3899 117.182 32.7223 117.116 33.0121 116.986C33.3018 116.855 33.5291 116.673 33.6939 116.44C33.8587 116.207 33.9411 115.938 33.9411 115.631C33.9411 115.31 33.8615 115.027 33.7024 114.783C33.5433 114.536 33.3104 114.342 33.0036 114.203C32.6967 114.064 32.3217 113.994 31.8786 113.994H31.1797V113.057H31.8786C32.2251 113.057 32.5291 112.994 32.7905 112.869C33.0547 112.744 33.2607 112.568 33.4084 112.341C33.5589 112.114 33.6342 111.847 33.6342 111.54C33.6342 111.244 33.5689 110.987 33.4382 110.768C33.3075 110.55 33.1229 110.379 32.8842 110.257C32.6484 110.135 32.37 110.074 32.049 110.074C31.7479 110.074 31.4638 110.129 31.1967 110.24C30.9325 110.348 30.7166 110.506 30.549 110.713C30.3814 110.918 30.2905 111.165 30.2763 111.455H29.2536C29.2706 110.997 29.4084 110.597 29.6669 110.253C29.9254 109.906 30.2635 109.636 30.6811 109.443C31.1016 109.25 31.5632 109.153 32.0661 109.153C32.6058 109.153 33.0689 109.263 33.4553 109.482C33.8416 109.697 34.1385 109.983 34.3459 110.338C34.5533 110.693 34.657 111.077 34.657 111.489C34.657 111.98 34.5277 112.399 34.2692 112.746C34.0135 113.092 33.6655 113.332 33.2251 113.466V113.534C33.7763 113.625 34.2067 113.859 34.5163 114.237C34.826 114.612 34.9808 115.077 34.9808 115.631C34.9808 116.105 34.8516 116.531 34.593 116.909C34.3374 117.284 33.9879 117.58 33.5447 117.795C33.1016 118.011 32.5973 118.119 32.032 118.119Z" fill="white"/>
</g>
</g>
<g clip-path="url(#clip7_5534_68159)">
<rect x="534" y="115" width="94" height="1" fill="#C54600"/>
<g clip-path="url(#clip8_5534_68159)">
<rect x="604" y="103" width="24" height="24" rx="12" fill="#C54600"/>
<path d="M612.849 117.21V116.341L616.684 110.273H617.315V111.619H616.889L613.991 116.205V116.273H619.156V117.21H612.849ZM616.957 119V116.946V116.541V110.273H617.963V119H616.957Z" fill="white"/>
</g>
</g>
</g>
<defs>
<clipPath id="clip0_5534_68159">
<rect width="648" height="158" fill="white"/>
</clipPath>
<clipPath id="clip1_5534_68159">
<rect width="48" height="24" fill="white" transform="translate(20 24)"/>
</clipPath>
<clipPath id="clip2_5534_68159">
<rect x="20" y="24" width="24" height="24" rx="12" fill="white"/>
</clipPath>
<clipPath id="clip3_5534_68159">
<rect width="48" height="24" fill="white" transform="translate(20 54)"/>
</clipPath>
<clipPath id="clip4_5534_68159">
<rect x="20" y="54" width="24" height="24" rx="12" fill="white"/>
</clipPath>
<clipPath id="clip5_5534_68159">
<rect width="48" height="24" fill="white" transform="translate(20 102)"/>
</clipPath>
<clipPath id="clip6_5534_68159">
<rect x="20" y="102" width="24" height="24" rx="12" fill="white"/>
</clipPath>
<clipPath id="clip7_5534_68159">
<rect width="94" height="24" fill="white" transform="translate(534 103)"/>
</clipPath>
<clipPath id="clip8_5534_68159">
<rect x="604" y="103" width="24" height="24" rx="12" fill="white"/>
</clipPath>
</defs>
</svg>
