<svg width="604" height="247" viewBox="0 0 604 247" fill="none" xmlns="http://www.w3.org/2000/svg">
<path d="M62.02 22.5H53.8V8.22H62.02V10.7H56.82V13.84H61.66V16.32H56.82V20H62.02V22.5ZM62.24 4.02C62.0533 4.20667 61.8067 4.43333 61.5 4.7C61.1933 4.96667 60.86 5.24667 60.5 5.54C60.1533 5.83333 59.8067 6.11333 59.46 6.38C59.1267 6.63333 58.8333 6.84667 58.58 7.02H56.6V6.76C56.8133 6.50667 57.06 6.21333 57.34 5.88C57.6333 5.53333 57.92 5.18 58.2 4.82C58.48 4.44667 58.7133 4.11333 58.9 3.82H62.24V4.02ZM69.3514 20.32C69.6847 20.32 70.0047 20.2867 70.3114 20.22C70.6181 20.1533 70.9247 20.0733 71.2314 19.98V22.2C70.9114 22.3333 70.5114 22.4467 70.0314 22.54C69.5647 22.6467 69.0514 22.7 68.4914 22.7C67.8381 22.7 67.2514 22.5933 66.7314 22.38C66.2247 22.1667 65.8181 21.8 65.5114 21.28C65.2181 20.7467 65.0714 20.0133 65.0714 19.08V13.82H63.6514V12.56L65.2914 11.56L66.1514 9.26H68.0514V11.58H71.1114V13.82H68.0514V19.08C68.0514 19.4933 68.1714 19.8067 68.4114 20.02C68.6514 20.22 68.9647 20.32 69.3514 20.32ZM74.9233 7.3C75.3633 7.3 75.7433 7.40667 76.0633 7.62C76.3833 7.82 76.5433 8.2 76.5433 8.76C76.5433 9.30667 76.3833 9.68667 76.0633 9.9C75.7433 10.1133 75.3633 10.22 74.9233 10.22C74.4699 10.22 74.0833 10.1133 73.7633 9.9C73.4566 9.68667 73.3033 9.30667 73.3033 8.76C73.3033 8.2 73.4566 7.82 73.7633 7.62C74.0833 7.40667 74.4699 7.3 74.9233 7.3ZM76.4033 11.58V22.5H73.4233V11.58H76.4033ZM86.077 22.72C86.077 22.16 86.117 21.6133 86.197 21.08H86.077C85.797 21.5333 85.4104 21.92 84.917 22.24C84.4237 22.5467 83.777 22.7 82.977 22.7C81.7504 22.7 80.757 22.2267 79.997 21.28C79.237 20.32 78.857 18.9133 78.857 17.06C78.857 15.1933 79.2437 13.78 80.017 12.82C80.7904 11.86 81.797 11.38 83.037 11.38C83.837 11.38 84.4837 11.5333 84.977 11.84C85.4837 12.1467 85.8904 12.5267 86.197 12.98H86.277L86.537 11.58H89.057V27.3H86.077V22.72ZM84.037 20.36C84.8637 20.36 85.437 20.12 85.757 19.64C86.0904 19.1467 86.2637 18.4133 86.277 17.44V17.08C86.277 16.0133 86.1104 15.2 85.777 14.64C85.457 14.08 84.8637 13.8 83.997 13.8C83.2904 13.8 82.7637 14.0867 82.417 14.66C82.0704 15.22 81.897 16.0333 81.897 17.1C81.897 19.2733 82.6104 20.36 84.037 20.36ZM102.193 11.58V22.5H99.9133L99.5133 21.1H99.3533C99.0066 21.66 98.5266 22.0667 97.9133 22.32C97.3133 22.5733 96.6733 22.7 95.9933 22.7C94.8199 22.7 93.8799 22.3867 93.1733 21.76C92.4666 21.12 92.1133 20.1 92.1133 18.7V11.58H95.0933V17.96C95.0933 18.7333 95.2333 19.32 95.5133 19.72C95.7933 20.12 96.2399 20.32 96.8533 20.32C97.7599 20.32 98.3799 20.0133 98.7133 19.4C99.0466 18.7733 99.2133 17.88 99.2133 16.72V11.58H102.193ZM109.818 11.38C111.324 11.38 112.518 11.8133 113.398 12.68C114.278 13.5333 114.718 14.7533 114.718 16.34V17.78H107.678C107.704 18.62 107.951 19.28 108.418 19.76C108.898 20.24 109.558 20.48 110.398 20.48C111.104 20.48 111.744 20.4133 112.318 20.28C112.891 20.1333 113.484 19.9133 114.098 19.62V21.92C113.564 22.1867 112.998 22.38 112.398 22.5C111.811 22.6333 111.098 22.7 110.258 22.7C109.164 22.7 108.198 22.5 107.358 22.1C106.518 21.6867 105.858 21.0667 105.378 20.24C104.898 19.4133 104.658 18.3733 104.658 17.12C104.658 15.84 104.871 14.78 105.298 13.94C105.738 13.0867 106.344 12.4467 107.118 12.02C107.891 11.5933 108.791 11.38 109.818 11.38ZM109.838 13.5C109.264 13.5 108.784 13.6867 108.398 14.06C108.024 14.4333 107.804 15.0133 107.738 15.8H111.918C111.904 15.1333 111.731 14.5867 111.398 14.16C111.064 13.72 110.544 13.5 109.838 13.5ZM121.734 20.32C122.068 20.32 122.388 20.2867 122.694 20.22C123.001 20.1533 123.308 20.0733 123.614 19.98V22.2C123.294 22.3333 122.894 22.4467 122.414 22.54C121.948 22.6467 121.434 22.7 120.874 22.7C120.221 22.7 119.634 22.5933 119.114 22.38C118.608 22.1667 118.201 21.8 117.894 21.28C117.601 20.7467 117.454 20.0133 117.454 19.08V13.82H116.034V12.56L117.674 11.56L118.534 9.26H120.434V11.58H123.494V13.82H120.434V19.08C120.434 19.4933 120.554 19.8067 120.794 20.02C121.034 20.22 121.348 20.32 121.734 20.32ZM130.406 20.32C130.739 20.32 131.059 20.2867 131.366 20.22C131.673 20.1533 131.979 20.0733 132.286 19.98V22.2C131.966 22.3333 131.566 22.4467 131.086 22.54C130.619 22.6467 130.106 22.7 129.546 22.7C128.893 22.7 128.306 22.5933 127.786 22.38C127.279 22.1667 126.873 21.8 126.566 21.28C126.273 20.7467 126.126 20.0133 126.126 19.08V13.82H124.706V12.56L126.346 11.56L127.206 9.26H129.106V11.58H132.166V13.82H129.106V19.08C129.106 19.4933 129.226 19.8067 129.466 20.02C129.706 20.22 130.019 20.32 130.406 20.32ZM138.978 11.38C140.485 11.38 141.678 11.8133 142.558 12.68C143.438 13.5333 143.878 14.7533 143.878 16.34V17.78H136.838C136.865 18.62 137.111 19.28 137.578 19.76C138.058 20.24 138.718 20.48 139.558 20.48C140.265 20.48 140.905 20.4133 141.478 20.28C142.051 20.1333 142.645 19.9133 143.258 19.62V21.92C142.725 22.1867 142.158 22.38 141.558 22.5C140.971 22.6333 140.258 22.7 139.418 22.7C138.325 22.7 137.358 22.5 136.518 22.1C135.678 21.6867 135.018 21.0667 134.538 20.24C134.058 19.4133 133.818 18.3733 133.818 17.12C133.818 15.84 134.031 14.78 134.458 13.94C134.898 13.0867 135.505 12.4467 136.278 12.02C137.051 11.5933 137.951 11.38 138.978 11.38ZM138.998 13.5C138.425 13.5 137.945 13.6867 137.558 14.06C137.185 14.4333 136.965 15.0133 136.898 15.8H141.078C141.065 15.1333 140.891 14.5867 140.558 14.16C140.225 13.72 139.705 13.5 138.998 13.5Z" fill="#333333"/>
<path d="M153.8 17.02C153.8 15.3933 154.033 13.8267 154.5 12.32C154.98 10.8 155.727 9.43333 156.74 8.22H158.4C157.467 9.47333 156.76 10.8533 156.28 12.36C155.813 13.8667 155.58 15.4133 155.58 17C155.58 18.5467 155.813 20.0667 156.28 21.56C156.76 23.04 157.46 24.4067 158.38 25.66H156.74C155.727 24.4867 154.98 23.16 154.5 21.68C154.033 20.1867 153.8 18.6333 153.8 17.02ZM165.696 11.58C165.896 11.58 166.109 11.5933 166.336 11.62C166.576 11.6333 166.783 11.66 166.956 11.7L166.736 13.32C166.563 13.28 166.369 13.2467 166.156 13.22C165.956 13.1933 165.763 13.18 165.576 13.18C165.029 13.18 164.516 13.3333 164.036 13.64C163.556 13.9333 163.169 14.3533 162.876 14.9C162.596 15.4333 162.456 16.06 162.456 16.78V22.5H160.696V11.78H162.136L162.336 13.74H162.416C162.763 13.1533 163.209 12.6467 163.756 12.22C164.303 11.7933 164.949 11.58 165.696 11.58ZM172.707 11.58C173.627 11.58 174.414 11.78 175.067 12.18C175.734 12.58 176.241 13.1467 176.587 13.88C176.947 14.6 177.127 15.4467 177.127 16.42V17.48H169.787C169.814 18.6933 170.121 19.62 170.707 20.26C171.307 20.8867 172.141 21.2 173.207 21.2C173.887 21.2 174.487 21.14 175.007 21.02C175.541 20.8867 176.087 20.7 176.647 20.46V22C176.101 22.24 175.561 22.4133 175.027 22.52C174.494 22.64 173.861 22.7 173.127 22.7C172.114 22.7 171.214 22.4933 170.427 22.08C169.654 21.6667 169.047 21.0533 168.607 20.24C168.181 19.4133 167.967 18.4067 167.967 17.22C167.967 16.0467 168.161 15.04 168.547 14.2C168.947 13.36 169.501 12.7133 170.207 12.26C170.927 11.8067 171.761 11.58 172.707 11.58ZM172.687 13.02C171.847 13.02 171.181 13.2933 170.687 13.84C170.207 14.3733 169.921 15.12 169.827 16.08H175.287C175.274 15.1733 175.061 14.44 174.647 13.88C174.234 13.3067 173.581 13.02 172.687 13.02ZM186.996 22.72C186.996 22.48 187.003 22.2 187.016 21.88C187.03 21.56 187.056 21.2867 187.096 21.06H186.976C186.67 21.5133 186.243 21.9 185.696 22.22C185.163 22.54 184.47 22.7 183.616 22.7C182.323 22.7 181.27 22.24 180.456 21.32C179.656 20.3867 179.256 19 179.256 17.16C179.256 15.32 179.663 13.9333 180.476 13C181.303 12.0533 182.37 11.58 183.676 11.58C184.516 11.58 185.203 11.74 185.736 12.06C186.27 12.38 186.696 12.7733 187.016 13.24H187.096L187.356 11.78H188.756V27.3H186.996V22.72ZM183.956 21.24C185.063 21.24 185.843 20.94 186.296 20.34C186.763 19.7267 187.003 18.7933 187.016 17.54V17.18C187.016 15.82 186.79 14.7933 186.336 14.1C185.883 13.3933 185.076 13.04 183.916 13.04C182.956 13.04 182.243 13.42 181.776 14.18C181.31 14.9267 181.076 15.9333 181.076 17.2C181.076 18.4667 181.31 19.46 181.776 20.18C182.256 20.8867 182.983 21.24 183.956 21.24ZM201.121 11.78V22.5H199.681L199.421 21.08H199.341C198.994 21.64 198.514 22.0533 197.901 22.32C197.288 22.5733 196.634 22.7 195.941 22.7C194.648 22.7 193.674 22.3933 193.021 21.78C192.368 21.1533 192.041 20.16 192.041 18.8V11.78H193.821V18.68C193.821 20.3867 194.614 21.24 196.201 21.24C197.388 21.24 198.208 20.9067 198.661 20.24C199.128 19.5733 199.361 18.6133 199.361 17.36V11.78H201.121ZM205.424 7.76C205.691 7.76 205.924 7.85333 206.124 8.04C206.338 8.21333 206.444 8.49333 206.444 8.88C206.444 9.25333 206.338 9.53333 206.124 9.72C205.924 9.90667 205.691 10 205.424 10C205.131 10 204.884 9.90667 204.684 9.72C204.484 9.53333 204.384 9.25333 204.384 8.88C204.384 8.49333 204.484 8.21333 204.684 8.04C204.884 7.85333 205.131 7.76 205.424 7.76ZM206.284 11.78V22.5H204.524V11.78H206.284ZM214.68 11.58C214.88 11.58 215.094 11.5933 215.32 11.62C215.56 11.6333 215.767 11.66 215.94 11.7L215.72 13.32C215.547 13.28 215.354 13.2467 215.14 13.22C214.94 13.1933 214.747 13.18 214.56 13.18C214.014 13.18 213.5 13.3333 213.02 13.64C212.54 13.9333 212.154 14.3533 211.86 14.9C211.58 15.4333 211.44 16.06 211.44 16.78V22.5H209.68V11.78H211.12L211.32 13.74H211.4C211.747 13.1533 212.194 12.6467 212.74 12.22C213.287 11.7933 213.934 11.58 214.68 11.58ZM221.692 11.58C222.612 11.58 223.398 11.78 224.052 12.18C224.718 12.58 225.225 13.1467 225.572 13.88C225.932 14.6 226.112 15.4467 226.112 16.42V17.48H218.772C218.798 18.6933 219.105 19.62 219.692 20.26C220.292 20.8867 221.125 21.2 222.192 21.2C222.872 21.2 223.472 21.14 223.992 21.02C224.525 20.8867 225.072 20.7 225.632 20.46V22C225.085 22.24 224.545 22.4133 224.012 22.52C223.478 22.64 222.845 22.7 222.112 22.7C221.098 22.7 220.198 22.4933 219.412 22.08C218.638 21.6667 218.032 21.0533 217.592 20.24C217.165 19.4133 216.952 18.4067 216.952 17.22C216.952 16.0467 217.145 15.04 217.532 14.2C217.932 13.36 218.485 12.7133 219.192 12.26C219.912 11.8067 220.745 11.58 221.692 11.58ZM221.672 13.02C220.832 13.02 220.165 13.2933 219.672 13.84C219.192 14.3733 218.905 15.12 218.812 16.08H224.272C224.258 15.1733 224.045 14.44 223.632 13.88C223.218 13.3067 222.565 13.02 221.672 13.02ZM232.641 22.7C231.307 22.7 230.241 22.24 229.441 21.32C228.641 20.3867 228.241 19 228.241 17.16C228.241 15.32 228.641 13.9333 229.441 13C230.254 12.0533 231.327 11.58 232.661 11.58C233.487 11.58 234.161 11.7333 234.681 12.04C235.214 12.3467 235.647 12.72 235.981 13.16H236.101C236.087 12.9867 236.061 12.7333 236.021 12.4C235.994 12.0533 235.981 11.78 235.981 11.58V7.3H237.741V22.5H236.321L236.061 21.06H235.981C235.661 21.5133 235.234 21.9 234.701 22.22C234.167 22.54 233.481 22.7 232.641 22.7ZM232.921 21.24C234.054 21.24 234.847 20.9333 235.301 20.32C235.767 19.6933 236.001 18.7533 236.001 17.5V17.18C236.001 15.8467 235.781 14.8267 235.341 14.12C234.901 13.4 234.087 13.04 232.901 13.04C231.954 13.04 231.241 13.42 230.761 14.18C230.294 14.9267 230.061 15.9333 230.061 17.2C230.061 18.48 230.294 19.4733 230.761 20.18C231.241 20.8867 231.961 21.24 232.921 21.24ZM244.645 17.02C244.645 18.6333 244.405 20.1867 243.925 21.68C243.459 23.16 242.719 24.4867 241.705 25.66H240.065C240.985 24.4067 241.679 23.04 242.145 21.56C242.625 20.0667 242.865 18.5467 242.865 17C242.865 15.4133 242.625 13.8667 242.145 12.36C241.679 10.8533 240.979 9.47333 240.045 8.22H241.705C242.719 9.43333 243.459 10.8 243.925 12.32C244.405 13.8267 244.645 15.3933 244.645 17.02Z" fill="#333333"/>
<path d="M58.46 54.5H56.66V41.8H52.2V40.22H62.9V41.8H58.46V54.5ZM67.547 43.58C68.467 43.58 69.2537 43.78 69.907 44.18C70.5737 44.58 71.0804 45.1467 71.427 45.88C71.787 46.6 71.967 47.4467 71.967 48.42V49.48H64.627C64.6537 50.6933 64.9604 51.62 65.547 52.26C66.147 52.8867 66.9804 53.2 68.047 53.2C68.727 53.2 69.327 53.14 69.847 53.02C70.3804 52.8867 70.927 52.7 71.487 52.46V54C70.9404 54.24 70.4004 54.4133 69.867 54.52C69.3337 54.64 68.7004 54.7 67.967 54.7C66.9537 54.7 66.0537 54.4933 65.267 54.08C64.4937 53.6667 63.887 53.0533 63.447 52.24C63.0204 51.4133 62.807 50.4067 62.807 49.22C62.807 48.0467 63.0004 47.04 63.387 46.2C63.787 45.36 64.3404 44.7133 65.047 44.26C65.767 43.8067 66.6004 43.58 67.547 43.58ZM67.527 45.02C66.687 45.02 66.0204 45.2933 65.527 45.84C65.047 46.3733 64.7604 47.12 64.667 48.08H70.127C70.1137 47.1733 69.9004 46.44 69.487 45.88C69.0737 45.3067 68.4204 45.02 67.527 45.02ZM76.8455 49.02L73.1455 43.78H75.1455L77.9055 47.82L80.6455 43.78H82.6255L78.9255 49.02L82.8255 54.5H80.8255L77.9055 50.22L74.9455 54.5H72.9655L76.8455 49.02ZM88.4714 53.26C88.7381 53.26 89.0114 53.24 89.2914 53.2C89.5714 53.1467 89.7981 53.0933 89.9714 53.04V54.38C89.7847 54.4733 89.5181 54.5467 89.1714 54.6C88.8247 54.6667 88.4914 54.7 88.1714 54.7C87.6114 54.7 87.0914 54.6067 86.6114 54.42C86.1447 54.22 85.7647 53.88 85.4714 53.4C85.1781 52.92 85.0314 52.2467 85.0314 51.38V45.14H83.5114V44.3L85.0514 43.6L85.7514 41.32H86.7914V43.78H89.8914V45.14H86.7914V51.34C86.7914 51.9933 86.9447 52.48 87.2514 52.8C87.5714 53.1067 87.9781 53.26 88.4714 53.26ZM96.258 43.58C97.178 43.58 97.9646 43.78 98.618 44.18C99.2846 44.58 99.7913 45.1467 100.138 45.88C100.498 46.6 100.678 47.4467 100.678 48.42V49.48H93.338C93.3646 50.6933 93.6713 51.62 94.258 52.26C94.858 52.8867 95.6913 53.2 96.758 53.2C97.438 53.2 98.038 53.14 98.558 53.02C99.0913 52.8867 99.638 52.7 100.198 52.46V54C99.6513 54.24 99.1113 54.4133 98.578 54.52C98.0446 54.64 97.4113 54.7 96.678 54.7C95.6646 54.7 94.7646 54.4933 93.978 54.08C93.2046 53.6667 92.598 53.0533 92.158 52.24C91.7313 51.4133 91.518 50.4067 91.518 49.22C91.518 48.0467 91.7113 47.04 92.098 46.2C92.498 45.36 93.0513 44.7133 93.758 44.26C94.478 43.8067 95.3113 43.58 96.258 43.58ZM96.238 45.02C95.398 45.02 94.7313 45.2933 94.238 45.84C93.758 46.3733 93.4713 47.12 93.378 48.08H98.838C98.8246 47.1733 98.6113 46.44 98.198 45.88C97.7846 45.3067 97.1313 45.02 96.238 45.02ZM112.742 43.58C113.662 43.58 114.449 43.78 115.102 44.18C115.769 44.58 116.276 45.1467 116.622 45.88C116.982 46.6 117.162 47.4467 117.162 48.42V49.48H109.822C109.849 50.6933 110.156 51.62 110.742 52.26C111.342 52.8867 112.176 53.2 113.242 53.2C113.922 53.2 114.522 53.14 115.042 53.02C115.576 52.8867 116.122 52.7 116.682 52.46V54C116.136 54.24 115.596 54.4133 115.062 54.52C114.529 54.64 113.896 54.7 113.162 54.7C112.149 54.7 111.249 54.4933 110.462 54.08C109.689 53.6667 109.082 53.0533 108.642 52.24C108.216 51.4133 108.002 50.4067 108.002 49.22C108.002 48.0467 108.196 47.04 108.582 46.2C108.982 45.36 109.536 44.7133 110.242 44.26C110.962 43.8067 111.796 43.58 112.742 43.58ZM112.722 45.02C111.882 45.02 111.216 45.2933 110.722 45.84C110.242 46.3733 109.956 47.12 109.862 48.08H115.322C115.309 47.1733 115.096 46.44 114.682 45.88C114.269 45.3067 113.616 45.02 112.722 45.02ZM122.041 49.02L118.341 43.78H120.341L123.101 47.82L125.841 43.78H127.821L124.121 49.02L128.021 54.5H126.021L123.101 50.22L120.141 54.5H118.161L122.041 49.02ZM135.187 43.58C136.507 43.58 137.567 44.04 138.367 44.96C139.18 45.88 139.587 47.2667 139.587 49.12C139.587 50.9467 139.18 52.3333 138.367 53.28C137.567 54.2267 136.5 54.7 135.167 54.7C134.34 54.7 133.653 54.5467 133.107 54.24C132.573 53.92 132.153 53.5533 131.847 53.14H131.727C131.753 53.3667 131.78 53.6533 131.807 54C131.833 54.3467 131.847 54.6467 131.847 54.9V59.3H130.087V43.78H131.527L131.767 45.24H131.847C132.167 44.7733 132.587 44.38 133.107 44.06C133.627 43.74 134.32 43.58 135.187 43.58ZM134.867 45.06C133.773 45.06 133 45.3667 132.547 45.98C132.107 46.5933 131.873 47.5267 131.847 48.78V49.12C131.847 50.44 132.06 51.46 132.487 52.18C132.927 52.8867 133.733 53.24 134.907 53.24C135.56 53.24 136.093 53.06 136.507 52.7C136.933 52.34 137.247 51.8533 137.447 51.24C137.66 50.6133 137.767 49.9 137.767 49.1C137.767 47.8733 137.527 46.8933 137.047 46.16C136.58 45.4267 135.853 45.06 134.867 45.06ZM144.151 54.5H142.391V39.3H144.151V54.5ZM148.448 39.76C148.714 39.76 148.948 39.8533 149.148 40.04C149.361 40.2133 149.468 40.4933 149.468 40.88C149.468 41.2533 149.361 41.5333 149.148 41.72C148.948 41.9067 148.714 42 148.448 42C148.154 42 147.908 41.9067 147.708 41.72C147.508 41.5333 147.408 41.2533 147.408 40.88C147.408 40.4933 147.508 40.2133 147.708 40.04C147.908 39.8533 148.154 39.76 148.448 39.76ZM149.308 43.78V54.5H147.548V43.78H149.308ZM157.004 54.7C156.057 54.7 155.211 54.5067 154.464 54.12C153.731 53.7333 153.151 53.1333 152.724 52.32C152.311 51.5067 152.104 50.4667 152.104 49.2C152.104 47.88 152.324 46.8067 152.764 45.98C153.204 45.1533 153.797 44.5467 154.544 44.16C155.304 43.7733 156.164 43.58 157.124 43.58C157.671 43.58 158.197 43.64 158.704 43.76C159.211 43.8667 159.624 44 159.944 44.16L159.404 45.62C159.084 45.5 158.711 45.3867 158.284 45.28C157.857 45.1733 157.457 45.12 157.084 45.12C154.977 45.12 153.924 46.4733 153.924 49.18C153.924 50.4733 154.177 51.4667 154.684 52.16C155.204 52.84 155.971 53.18 156.984 53.18C157.571 53.18 158.084 53.12 158.524 53C158.977 52.88 159.391 52.7333 159.764 52.56V54.12C159.404 54.3067 159.004 54.4467 158.564 54.54C158.137 54.6467 157.617 54.7 157.004 54.7ZM166.373 43.6C167.68 43.6 168.647 43.8867 169.273 44.46C169.9 45.0333 170.213 45.9467 170.213 47.2V54.5H168.933L168.593 52.98H168.513C168.047 53.5667 167.553 54 167.033 54.28C166.527 54.56 165.82 54.7 164.913 54.7C163.94 54.7 163.133 54.4467 162.493 53.94C161.853 53.42 161.533 52.6133 161.533 51.52C161.533 50.4533 161.953 49.6333 162.793 49.06C163.633 48.4733 164.927 48.1533 166.673 48.1L168.493 48.04V47.4C168.493 46.5067 168.3 45.8867 167.913 45.54C167.527 45.1933 166.98 45.02 166.273 45.02C165.713 45.02 165.18 45.1067 164.673 45.28C164.167 45.44 163.693 45.6267 163.253 45.84L162.713 44.52C163.18 44.2667 163.733 44.0533 164.373 43.88C165.013 43.6933 165.68 43.6 166.373 43.6ZM166.893 49.32C165.56 49.3733 164.633 49.5867 164.113 49.96C163.607 50.3333 163.353 50.86 163.353 51.54C163.353 52.14 163.533 52.58 163.893 52.86C164.267 53.14 164.74 53.28 165.313 53.28C166.22 53.28 166.973 53.0333 167.573 52.54C168.173 52.0333 168.473 51.26 168.473 50.22V49.26L166.893 49.32ZM177.104 53.26C177.371 53.26 177.644 53.24 177.924 53.2C178.204 53.1467 178.431 53.0933 178.604 53.04V54.38C178.418 54.4733 178.151 54.5467 177.804 54.6C177.458 54.6667 177.124 54.7 176.804 54.7C176.244 54.7 175.724 54.6067 175.244 54.42C174.778 54.22 174.398 53.88 174.104 53.4C173.811 52.92 173.664 52.2467 173.664 51.38V45.14H172.144V44.3L173.684 43.6L174.384 41.32H175.424V43.78H178.524V45.14H175.424V51.34C175.424 51.9933 175.578 52.48 175.884 52.8C176.204 53.1067 176.611 53.26 177.104 53.26ZM181.651 39.76C181.917 39.76 182.151 39.8533 182.351 40.04C182.564 40.2133 182.671 40.4933 182.671 40.88C182.671 41.2533 182.564 41.5333 182.351 41.72C182.151 41.9067 181.917 42 181.651 42C181.357 42 181.111 41.9067 180.911 41.72C180.711 41.5333 180.611 41.2533 180.611 40.88C180.611 40.4933 180.711 40.2133 180.911 40.04C181.111 39.8533 181.357 39.76 181.651 39.76ZM182.511 43.78V54.5H180.751V43.78H182.511ZM190.847 45.14H188.147V54.5H186.387V45.14H184.507V44.32L186.387 43.72V43.1C186.387 41.7133 186.694 40.72 187.307 40.12C187.92 39.5067 188.774 39.2 189.867 39.2C190.294 39.2 190.68 39.24 191.027 39.32C191.387 39.3867 191.694 39.4667 191.947 39.56L191.487 40.94C191.274 40.8733 191.027 40.8067 190.747 40.74C190.467 40.6733 190.18 40.64 189.887 40.64C189.3 40.64 188.86 40.84 188.567 41.24C188.287 41.6267 188.147 42.24 188.147 43.08V43.78H190.847V45.14ZM203.517 40.22L198.197 54.5H196.477L201.797 40.22H203.517ZM218.834 54.5H210.854V40.22H218.834V41.8H212.654V46.26H218.474V47.82H212.654V52.92H218.834V54.5ZM224.267 49.02L220.567 43.78H222.567L225.327 47.82L228.067 43.78H230.047L226.347 49.02L230.247 54.5H228.247L225.327 50.22L222.367 54.5H220.387L224.267 49.02ZM236.063 43.58C236.983 43.58 237.769 43.78 238.423 44.18C239.089 44.58 239.596 45.1467 239.943 45.88C240.303 46.6 240.483 47.4467 240.483 48.42V49.48H233.143C233.169 50.6933 233.476 51.62 234.063 52.26C234.663 52.8867 235.496 53.2 236.563 53.2C237.243 53.2 237.843 53.14 238.363 53.02C238.896 52.8867 239.443 52.7 240.003 52.46V54C239.456 54.24 238.916 54.4133 238.383 54.52C237.849 54.64 237.216 54.7 236.483 54.7C235.469 54.7 234.569 54.4933 233.783 54.08C233.009 53.6667 232.403 53.0533 231.963 52.24C231.536 51.4133 231.323 50.4067 231.323 49.22C231.323 48.0467 231.516 47.04 231.903 46.2C232.303 45.36 232.856 44.7133 233.563 44.26C234.283 43.8067 235.116 43.58 236.063 43.58ZM236.043 45.02C235.203 45.02 234.536 45.2933 234.043 45.84C233.563 46.3733 233.276 47.12 233.183 48.08H238.643C238.629 47.1733 238.416 46.44 238.003 45.88C237.589 45.3067 236.936 45.02 236.043 45.02ZM254.972 43.58C256.185 43.58 257.092 43.8933 257.692 44.52C258.292 45.1333 258.592 46.1333 258.592 47.52V54.5H256.852V47.6C256.852 45.9067 256.125 45.06 254.672 45.06C253.632 45.06 252.885 45.36 252.432 45.96C251.992 46.56 251.772 47.4333 251.772 48.58V54.5H250.032V47.6C250.032 45.9067 249.298 45.06 247.832 45.06C246.752 45.06 246.005 45.3933 245.592 46.06C245.178 46.7267 244.972 47.6867 244.972 48.94V54.5H243.212V43.78H244.632L244.892 45.24H244.992C245.325 44.68 245.772 44.2667 246.332 44C246.905 43.72 247.512 43.58 248.152 43.58C249.832 43.58 250.925 44.18 251.432 45.38H251.532C251.892 44.7667 252.378 44.3133 252.992 44.02C253.618 43.7267 254.278 43.58 254.972 43.58ZM267.003 43.58C268.323 43.58 269.383 44.04 270.183 44.96C270.996 45.88 271.403 47.2667 271.403 49.12C271.403 50.9467 270.996 52.3333 270.183 53.28C269.383 54.2267 268.316 54.7 266.983 54.7C266.156 54.7 265.47 54.5467 264.923 54.24C264.39 53.92 263.97 53.5533 263.663 53.14H263.543C263.57 53.3667 263.596 53.6533 263.623 54C263.65 54.3467 263.663 54.6467 263.663 54.9V59.3H261.903V43.78H263.343L263.583 45.24H263.663C263.983 44.7733 264.403 44.38 264.923 44.06C265.443 43.74 266.136 43.58 267.003 43.58ZM266.683 45.06C265.59 45.06 264.816 45.3667 264.363 45.98C263.923 46.5933 263.69 47.5267 263.663 48.78V49.12C263.663 50.44 263.876 51.46 264.303 52.18C264.743 52.8867 265.55 53.24 266.723 53.24C267.376 53.24 267.91 53.06 268.323 52.7C268.75 52.34 269.063 51.8533 269.263 51.24C269.476 50.6133 269.583 49.9 269.583 49.1C269.583 47.8733 269.343 46.8933 268.863 46.16C268.396 45.4267 267.67 45.06 266.683 45.06ZM275.968 54.5H274.208V39.3H275.968V54.5ZM283.504 43.58C284.424 43.58 285.211 43.78 285.864 44.18C286.531 44.58 287.037 45.1467 287.384 45.88C287.744 46.6 287.924 47.4467 287.924 48.42V49.48H280.584C280.611 50.6933 280.917 51.62 281.504 52.26C282.104 52.8867 282.937 53.2 284.004 53.2C284.684 53.2 285.284 53.14 285.804 53.02C286.337 52.8867 286.884 52.7 287.444 52.46V54C286.897 54.24 286.357 54.4133 285.824 54.52C285.291 54.64 284.657 54.7 283.924 54.7C282.911 54.7 282.011 54.4933 281.224 54.08C280.451 53.6667 279.844 53.0533 279.404 52.24C278.977 51.4133 278.764 50.4067 278.764 49.22C278.764 48.0467 278.957 47.04 279.344 46.2C279.744 45.36 280.297 44.7133 281.004 44.26C281.724 43.8067 282.557 43.58 283.504 43.58ZM283.484 45.02C282.644 45.02 281.977 45.2933 281.484 45.84C281.004 46.3733 280.717 47.12 280.624 48.08H286.084C286.071 47.1733 285.857 46.44 285.444 45.88C285.031 45.3067 284.377 45.02 283.484 45.02ZM299.648 54.7C298.315 54.7 297.248 54.24 296.448 53.32C295.648 52.3867 295.248 51 295.248 49.16C295.248 47.32 295.648 45.9333 296.448 45C297.262 44.0533 298.335 43.58 299.668 43.58C300.495 43.58 301.168 43.7333 301.688 44.04C302.222 44.3467 302.655 44.72 302.988 45.16H303.108C303.095 44.9867 303.068 44.7333 303.028 44.4C303.002 44.0533 302.988 43.78 302.988 43.58V39.3H304.748V54.5H303.328L303.068 53.06H302.988C302.668 53.5133 302.242 53.9 301.708 54.22C301.175 54.54 300.488 54.7 299.648 54.7ZM299.928 53.24C301.062 53.24 301.855 52.9333 302.308 52.32C302.775 51.6933 303.008 50.7533 303.008 49.5V49.18C303.008 47.8467 302.788 46.8267 302.348 46.12C301.908 45.4 301.095 45.04 299.908 45.04C298.962 45.04 298.248 45.42 297.768 46.18C297.302 46.9267 297.068 47.9333 297.068 49.2C297.068 50.48 297.302 51.4733 297.768 52.18C298.248 52.8867 298.968 53.24 299.928 53.24ZM312.293 43.58C313.213 43.58 314 43.78 314.653 44.18C315.32 44.58 315.826 45.1467 316.173 45.88C316.533 46.6 316.713 47.4467 316.713 48.42V49.48H309.373C309.4 50.6933 309.706 51.62 310.293 52.26C310.893 52.8867 311.726 53.2 312.793 53.2C313.473 53.2 314.073 53.14 314.593 53.02C315.126 52.8867 315.673 52.7 316.233 52.46V54C315.686 54.24 315.146 54.4133 314.613 54.52C314.08 54.64 313.446 54.7 312.713 54.7C311.7 54.7 310.8 54.4933 310.013 54.08C309.24 53.6667 308.633 53.0533 308.193 52.24C307.766 51.4133 307.553 50.4067 307.553 49.22C307.553 48.0467 307.746 47.04 308.133 46.2C308.533 45.36 309.086 44.7133 309.793 44.26C310.513 43.8067 311.346 43.58 312.293 43.58ZM312.273 45.02C311.433 45.02 310.766 45.2933 310.273 45.84C309.793 46.3733 309.506 47.12 309.413 48.08H314.873C314.86 47.1733 314.646 46.44 314.233 45.88C313.82 45.3067 313.166 45.02 312.273 45.02ZM336.398 43.58C337.611 43.58 338.518 43.8933 339.118 44.52C339.718 45.1333 340.018 46.1333 340.018 47.52V54.5H338.278V47.6C338.278 45.9067 337.551 45.06 336.098 45.06C335.058 45.06 334.311 45.36 333.858 45.96C333.418 46.56 333.198 47.4333 333.198 48.58V54.5H331.458V47.6C331.458 45.9067 330.724 45.06 329.258 45.06C328.178 45.06 327.431 45.3933 327.018 46.06C326.604 46.7267 326.398 47.6867 326.398 48.94V54.5H324.638V43.78H326.058L326.318 45.24H326.418C326.751 44.68 327.198 44.2667 327.758 44C328.331 43.72 328.938 43.58 329.578 43.58C331.258 43.58 332.351 44.18 332.858 45.38H332.958C333.318 44.7667 333.804 44.3133 334.418 44.02C335.044 43.7267 335.704 43.58 336.398 43.58ZM347.469 43.58C348.389 43.58 349.176 43.78 349.829 44.18C350.496 44.58 351.002 45.1467 351.349 45.88C351.709 46.6 351.889 47.4467 351.889 48.42V49.48H344.549C344.576 50.6933 344.882 51.62 345.469 52.26C346.069 52.8867 346.902 53.2 347.969 53.2C348.649 53.2 349.249 53.14 349.769 53.02C350.302 52.8867 350.849 52.7 351.409 52.46V54C350.862 54.24 350.322 54.4133 349.789 54.52C349.256 54.64 348.622 54.7 347.889 54.7C346.876 54.7 345.976 54.4933 345.189 54.08C344.416 53.6667 343.809 53.0533 343.369 52.24C342.942 51.4133 342.729 50.4067 342.729 49.22C342.729 48.0467 342.922 47.04 343.309 46.2C343.709 45.36 344.262 44.7133 344.969 44.26C345.689 43.8067 346.522 43.58 347.469 43.58ZM347.449 45.02C346.609 45.02 345.942 45.2933 345.449 45.84C344.969 46.3733 344.682 47.12 344.589 48.08H350.049C350.036 47.1733 349.822 46.44 349.409 45.88C348.996 45.3067 348.342 45.02 347.449 45.02ZM361.598 51.54C361.598 52.58 361.211 53.3667 360.438 53.9C359.665 54.4333 358.625 54.7 357.318 54.7C356.571 54.7 355.925 54.64 355.378 54.52C354.845 54.4 354.371 54.2333 353.958 54.02V52.42C354.385 52.6333 354.898 52.8333 355.498 53.02C356.111 53.1933 356.731 53.28 357.358 53.28C358.251 53.28 358.898 53.14 359.298 52.86C359.698 52.5667 359.898 52.18 359.898 51.7C359.898 51.4333 359.825 51.1933 359.678 50.98C359.531 50.7667 359.265 50.5533 358.878 50.34C358.505 50.1267 357.965 49.8867 357.258 49.62C356.565 49.3533 355.971 49.0867 355.478 48.82C354.985 48.5533 354.605 48.2333 354.338 47.86C354.071 47.4867 353.938 47.0067 353.938 46.42C353.938 45.5133 354.305 44.8133 355.038 44.32C355.785 43.8267 356.758 43.58 357.958 43.58C358.611 43.58 359.218 43.6467 359.778 43.78C360.351 43.9 360.885 44.0733 361.378 44.3L360.778 45.7C360.325 45.5133 359.851 45.3533 359.358 45.22C358.865 45.0867 358.358 45.02 357.838 45.02C357.118 45.02 356.565 45.14 356.178 45.38C355.805 45.6067 355.618 45.92 355.618 46.32C355.618 46.6133 355.705 46.8667 355.878 47.08C356.051 47.28 356.338 47.48 356.738 47.68C357.151 47.8667 357.698 48.0933 358.378 48.36C359.058 48.6133 359.638 48.8733 360.118 49.14C360.598 49.4067 360.965 49.7333 361.218 50.12C361.471 50.4933 361.598 50.9667 361.598 51.54ZM371.168 51.54C371.168 52.58 370.782 53.3667 370.008 53.9C369.235 54.4333 368.195 54.7 366.888 54.7C366.142 54.7 365.495 54.64 364.948 54.52C364.415 54.4 363.942 54.2333 363.528 54.02V52.42C363.955 52.6333 364.468 52.8333 365.068 53.02C365.682 53.1933 366.302 53.28 366.928 53.28C367.822 53.28 368.468 53.14 368.868 52.86C369.268 52.5667 369.468 52.18 369.468 51.7C369.468 51.4333 369.395 51.1933 369.248 50.98C369.102 50.7667 368.835 50.5533 368.448 50.34C368.075 50.1267 367.535 49.8867 366.828 49.62C366.135 49.3533 365.542 49.0867 365.048 48.82C364.555 48.5533 364.175 48.2333 363.908 47.86C363.642 47.4867 363.508 47.0067 363.508 46.42C363.508 45.5133 363.875 44.8133 364.608 44.32C365.355 43.8267 366.328 43.58 367.528 43.58C368.182 43.58 368.788 43.6467 369.348 43.78C369.922 43.9 370.455 44.0733 370.948 44.3L370.348 45.7C369.895 45.5133 369.422 45.3533 368.928 45.22C368.435 45.0867 367.928 45.02 367.408 45.02C366.688 45.02 366.135 45.14 365.748 45.38C365.375 45.6067 365.188 45.92 365.188 46.32C365.188 46.6133 365.275 46.8667 365.448 47.08C365.622 47.28 365.908 47.48 366.308 47.68C366.722 47.8667 367.268 48.0933 367.948 48.36C368.628 48.6133 369.208 48.8733 369.688 49.14C370.168 49.4067 370.535 49.7333 370.788 50.12C371.042 50.4933 371.168 50.9667 371.168 51.54ZM377.819 43.6C379.125 43.6 380.092 43.8867 380.719 44.46C381.345 45.0333 381.659 45.9467 381.659 47.2V54.5H380.379L380.039 52.98H379.959C379.492 53.5667 378.999 54 378.479 54.28C377.972 54.56 377.265 54.7 376.359 54.7C375.385 54.7 374.579 54.4467 373.939 53.94C373.299 53.42 372.979 52.6133 372.979 51.52C372.979 50.4533 373.399 49.6333 374.239 49.06C375.079 48.4733 376.372 48.1533 378.119 48.1L379.939 48.04V47.4C379.939 46.5067 379.745 45.8867 379.359 45.54C378.972 45.1933 378.425 45.02 377.719 45.02C377.159 45.02 376.625 45.1067 376.119 45.28C375.612 45.44 375.139 45.6267 374.699 45.84L374.159 44.52C374.625 44.2667 375.179 44.0533 375.819 43.88C376.459 43.6933 377.125 43.6 377.819 43.6ZM378.339 49.32C377.005 49.3733 376.079 49.5867 375.559 49.96C375.052 50.3333 374.799 50.86 374.799 51.54C374.799 52.14 374.979 52.58 375.339 52.86C375.712 53.14 376.185 53.28 376.759 53.28C377.665 53.28 378.419 53.0333 379.019 52.54C379.619 52.0333 379.919 51.26 379.919 50.22V49.26L378.339 49.32ZM388.77 43.58C389.476 43.58 390.11 43.7133 390.67 43.98C391.243 44.2467 391.73 44.6533 392.13 45.2H392.23L392.47 43.78H393.87V54.68C393.87 56.2133 393.476 57.3667 392.69 58.14C391.916 58.9133 390.71 59.3 389.07 59.3C387.496 59.3 386.21 59.0733 385.21 58.62V57C386.263 57.56 387.583 57.84 389.17 57.84C390.09 57.84 390.81 57.5667 391.33 57.02C391.863 56.4867 392.13 55.7533 392.13 54.82V54.4C392.13 54.24 392.136 54.0133 392.15 53.72C392.163 53.4133 392.176 53.2 392.19 53.08H392.11C391.39 54.16 390.283 54.7 388.79 54.7C387.403 54.7 386.316 54.2133 385.53 53.24C384.756 52.2667 384.37 50.9067 384.37 49.16C384.37 47.4533 384.756 46.1 385.53 45.1C386.316 44.0867 387.396 43.58 388.77 43.58ZM389.01 45.06C388.116 45.06 387.423 45.42 386.93 46.14C386.436 46.8467 386.19 47.86 386.19 49.18C386.19 50.5 386.43 51.5133 386.91 52.22C387.403 52.9133 388.116 53.26 389.05 53.26C390.13 53.26 390.916 52.9733 391.41 52.4C391.903 51.8133 392.15 50.8733 392.15 49.58V49.16C392.15 47.6933 391.896 46.6467 391.39 46.02C390.883 45.38 390.09 45.06 389.01 45.06ZM401.414 43.58C402.334 43.58 403.121 43.78 403.774 44.18C404.441 44.58 404.948 45.1467 405.294 45.88C405.654 46.6 405.834 47.4467 405.834 48.42V49.48H398.494C398.521 50.6933 398.828 51.62 399.414 52.26C400.014 52.8867 400.848 53.2 401.914 53.2C402.594 53.2 403.194 53.14 403.714 53.02C404.248 52.8867 404.794 52.7 405.354 52.46V54C404.808 54.24 404.268 54.4133 403.734 54.52C403.201 54.64 402.568 54.7 401.834 54.7C400.821 54.7 399.921 54.4933 399.134 54.08C398.361 53.6667 397.754 53.0533 397.314 52.24C396.888 51.4133 396.674 50.4067 396.674 49.22C396.674 48.0467 396.868 47.04 397.254 46.2C397.654 45.36 398.208 44.7133 398.914 44.26C399.634 43.8067 400.468 43.58 401.414 43.58ZM401.394 45.02C400.554 45.02 399.888 45.2933 399.394 45.84C398.914 46.3733 398.628 47.12 398.534 48.08H403.994C403.981 47.1733 403.768 46.44 403.354 45.88C402.941 45.3067 402.288 45.02 401.394 45.02ZM408.303 53.42C408.303 52.9267 408.423 52.58 408.663 52.38C408.903 52.18 409.19 52.08 409.523 52.08C409.87 52.08 410.163 52.18 410.403 52.38C410.657 52.58 410.783 52.9267 410.783 53.42C410.783 53.9 410.657 54.2467 410.403 54.46C410.163 54.6733 409.87 54.78 409.523 54.78C409.19 54.78 408.903 54.6733 408.663 54.46C408.423 54.2467 408.303 53.9 408.303 53.42Z" fill="#43474E"/>
<rect x="53" y="71.5" width="111" height="46" rx="5" fill="white"/>
<rect x="53" y="71.5" width="111" height="46" rx="5" stroke="#2B4380" stroke-width="2"/>
<path d="M69.9 88.22C71.7667 88.22 73.1267 88.6 73.98 89.36C74.8333 90.1067 75.26 91.1533 75.26 92.5C75.26 93.3 75.08 94.0467 74.72 94.74C74.3733 95.4333 73.7867 96 72.96 96.44C72.1333 96.8667 71.0133 97.08 69.6 97.08H68.06V102.5H65.9V88.22H69.9ZM69.74 90.04H68.06V95.26H69.36C70.5733 95.26 71.4867 95.06 72.1 94.66C72.7267 94.2467 73.04 93.5533 73.04 92.58C73.04 91.7267 72.7733 91.0933 72.24 90.68C71.7067 90.2533 70.8733 90.04 69.74 90.04ZM82.0861 91.52C83.4328 91.52 84.4394 91.82 85.1061 92.42C85.7861 93.0067 86.1261 93.9333 86.1261 95.2V102.5H84.6261L84.2061 101H84.1261C83.6594 101.587 83.1661 102.02 82.6461 102.3C82.1394 102.567 81.4328 102.7 80.5261 102.7C79.5528 102.7 78.7461 102.44 78.1061 101.92C77.4661 101.387 77.1461 100.56 77.1461 99.44C77.1461 98.3333 77.5594 97.5 78.3861 96.94C79.2261 96.3667 80.4994 96.0533 82.2061 96L84.0461 95.94V95.34C84.0461 94.5533 83.8661 94 83.5061 93.68C83.1461 93.3467 82.6394 93.18 81.9861 93.18C81.4394 93.18 80.9128 93.26 80.4061 93.42C79.8994 93.58 79.4128 93.7733 78.9461 94L78.2661 92.46C78.7728 92.1933 79.3528 91.9733 80.0061 91.8C80.6728 91.6133 81.3661 91.52 82.0861 91.52ZM84.0261 97.32L82.5861 97.36C81.3594 97.4133 80.5061 97.62 80.0261 97.98C79.5594 98.34 79.3261 98.8333 79.3261 99.46C79.3261 100.02 79.4928 100.427 79.8261 100.68C80.1594 100.933 80.5928 101.06 81.1261 101.06C81.9528 101.06 82.6394 100.827 83.1861 100.36C83.7461 99.8933 84.0261 99.1933 84.0261 98.26V97.32ZM94.7105 91.52C95.1371 91.52 95.5305 91.5533 95.8905 91.62L95.6705 93.6C95.3238 93.5067 94.9638 93.46 94.5905 93.46C94.0438 93.46 93.5371 93.5933 93.0705 93.86C92.6038 94.1267 92.2238 94.5133 91.9305 95.02C91.6505 95.5133 91.5105 96.1133 91.5105 96.82V102.5H89.3905V91.72H91.0705L91.3505 93.64H91.4305C91.7638 93.0667 92.2105 92.5733 92.7705 92.16C93.3305 91.7333 93.9771 91.52 94.7105 91.52ZM101.836 102.7C100.343 102.7 99.1426 102.26 98.2359 101.38C97.3293 100.487 96.8759 99.0867 96.8759 97.18C96.8759 95.8467 97.0959 94.7667 97.5359 93.94C97.9759 93.1133 98.5826 92.5067 99.3559 92.12C100.129 91.72 101.009 91.52 101.996 91.52C102.596 91.52 103.156 91.58 103.676 91.7C104.209 91.82 104.649 91.9667 104.996 92.14L104.356 93.86C103.983 93.7267 103.589 93.6067 103.176 93.5C102.763 93.38 102.363 93.32 101.976 93.32C100.029 93.32 99.0559 94.6 99.0559 97.16C99.0559 98.3867 99.2959 99.32 99.7759 99.96C100.256 100.6 100.963 100.92 101.896 100.92C102.483 100.92 103.009 100.853 103.476 100.72C103.943 100.587 104.369 100.413 104.756 100.2V102.04C104.369 102.267 103.949 102.433 103.496 102.54C103.043 102.647 102.489 102.7 101.836 102.7ZM116.801 97.1C116.801 98.8867 116.341 100.267 115.421 101.24C114.501 102.213 113.261 102.7 111.701 102.7C110.727 102.7 109.861 102.487 109.101 102.06C108.354 101.62 107.761 100.987 107.321 100.16C106.894 99.32 106.681 98.3 106.681 97.1C106.681 95.3133 107.134 93.94 108.041 92.98C108.947 92.0067 110.187 91.52 111.761 91.52C112.747 91.52 113.614 91.74 114.361 92.18C115.121 92.6067 115.714 93.2333 116.141 94.06C116.581 94.8867 116.801 95.9 116.801 97.1ZM108.861 97.1C108.861 98.3133 109.087 99.26 109.541 99.94C110.007 100.62 110.741 100.96 111.741 100.96C112.741 100.96 113.467 100.62 113.921 99.94C114.387 99.26 114.621 98.3133 114.621 97.1C114.621 95.8733 114.387 94.9333 113.921 94.28C113.467 93.6133 112.734 93.28 111.721 93.28C110.721 93.28 109.994 93.6133 109.541 94.28C109.087 94.9333 108.861 95.8733 108.861 97.1ZM128.768 91.72V102.5H127.068L126.768 101.08H126.668C126.321 101.64 125.841 102.053 125.228 102.32C124.615 102.573 123.968 102.7 123.288 102.7C122.021 102.7 121.055 102.393 120.388 101.78C119.721 101.153 119.388 100.153 119.388 98.78V91.72H121.528V98.46C121.528 99.3 121.701 99.9267 122.048 100.34C122.408 100.753 122.961 100.96 123.708 100.96C124.815 100.96 125.581 100.64 126.008 100C126.435 99.3467 126.648 98.4067 126.648 97.18V91.72H128.768ZM137.406 91.52C137.832 91.52 138.226 91.5533 138.586 91.62L138.366 93.6C138.019 93.5067 137.659 93.46 137.286 93.46C136.739 93.46 136.232 93.5933 135.766 93.86C135.299 94.1267 134.919 94.5133 134.626 95.02C134.346 95.5133 134.206 96.1133 134.206 96.82V102.5H132.086V91.72H133.766L134.046 93.64H134.126C134.459 93.0667 134.906 92.5733 135.466 92.16C136.026 91.7333 136.672 91.52 137.406 91.52ZM141.662 87.62C141.982 87.62 142.262 87.7133 142.502 87.9C142.742 88.0867 142.862 88.4 142.862 88.84C142.862 89.2667 142.742 89.58 142.502 89.78C142.262 89.9667 141.982 90.06 141.662 90.06C141.329 90.06 141.042 89.9667 140.802 89.78C140.562 89.58 140.442 89.2667 140.442 88.84C140.442 88.4 140.562 88.0867 140.802 87.9C141.042 87.7133 141.329 87.62 141.662 87.62ZM142.702 91.72V102.5H140.582V91.72H142.702ZM151.351 91.52C151.778 91.52 152.171 91.5533 152.531 91.62L152.311 93.6C151.964 93.5067 151.604 93.46 151.231 93.46C150.684 93.46 150.178 93.5933 149.711 93.86C149.244 94.1267 148.864 94.5133 148.571 95.02C148.291 95.5133 148.151 96.1133 148.151 96.82V102.5H146.031V91.72H147.711L147.991 93.64H148.071C148.404 93.0667 148.851 92.5733 149.411 92.16C149.971 91.7333 150.618 91.52 151.351 91.52Z" fill="#2B4380"/>
<rect x="53" y="133.5" width="478" height="74" stroke="#7D828B" stroke-width="2"/>
<path d="M74.04 178.5H71.9V164.22H79.94V166.06H74.04V170.72H79.56V172.56H74.04V178.5ZM83.3064 163.62C83.6264 163.62 83.9064 163.713 84.1464 163.9C84.3864 164.087 84.5064 164.4 84.5064 164.84C84.5064 165.267 84.3864 165.58 84.1464 165.78C83.9064 165.967 83.6264 166.06 83.3064 166.06C82.9731 166.06 82.6864 165.967 82.4464 165.78C82.2064 165.58 82.0864 165.267 82.0864 164.84C82.0864 164.4 82.2064 164.087 82.4464 163.9C82.6864 163.713 82.9731 163.62 83.3064 163.62ZM84.3464 167.72V178.5H82.2264V167.72H84.3464ZM92.0156 178.7C90.5223 178.7 89.3223 178.26 88.4156 177.38C87.509 176.487 87.0556 175.087 87.0556 173.18C87.0556 171.847 87.2756 170.767 87.7156 169.94C88.1556 169.113 88.7623 168.507 89.5356 168.12C90.309 167.72 91.189 167.52 92.1756 167.52C92.7756 167.52 93.3356 167.58 93.8556 167.7C94.389 167.82 94.829 167.967 95.1756 168.14L94.5356 169.86C94.1623 169.727 93.769 169.607 93.3556 169.5C92.9423 169.38 92.5423 169.32 92.1556 169.32C90.209 169.32 89.2356 170.6 89.2356 173.16C89.2356 174.387 89.4756 175.32 89.9556 175.96C90.4356 176.6 91.1423 176.92 92.0756 176.92C92.6623 176.92 93.189 176.853 93.6556 176.72C94.1223 176.587 94.549 176.413 94.9356 176.2V178.04C94.549 178.267 94.129 178.433 93.6756 178.54C93.2223 178.647 92.669 178.7 92.0156 178.7ZM99.6003 163.3V167.36C99.6003 167.693 99.587 168.027 99.5603 168.36C99.5336 168.693 99.507 168.967 99.4803 169.18H99.6203C99.967 168.633 100.427 168.227 101 167.96C101.587 167.68 102.22 167.54 102.9 167.54C104.167 167.54 105.134 167.853 105.8 168.48C106.48 169.107 106.82 170.107 106.82 171.48V178.5H104.72V171.78C104.72 170.1 103.98 169.26 102.5 169.26C101.394 169.26 100.634 169.593 100.22 170.26C99.807 170.927 99.6003 171.867 99.6003 173.08V178.5H97.4803V163.3H99.6003ZM111.158 163.62C111.478 163.62 111.758 163.713 111.998 163.9C112.238 164.087 112.358 164.4 112.358 164.84C112.358 165.267 112.238 165.58 111.998 165.78C111.758 165.967 111.478 166.06 111.158 166.06C110.825 166.06 110.538 165.967 110.298 165.78C110.058 165.58 109.938 165.267 109.938 164.84C109.938 164.4 110.058 164.087 110.298 163.9C110.538 163.713 110.825 163.62 111.158 163.62ZM112.198 167.72V178.5H110.078V167.72H112.198ZM119.767 167.52C121.181 167.52 122.294 167.96 123.107 168.84C123.921 169.707 124.327 170.893 124.327 172.4V173.56H117.087C117.114 174.667 117.401 175.513 117.947 176.1C118.507 176.687 119.287 176.98 120.287 176.98C120.981 176.98 121.594 176.92 122.127 176.8C122.674 176.667 123.234 176.473 123.807 176.22V177.98C123.261 178.233 122.714 178.413 122.167 178.52C121.621 178.64 120.967 178.7 120.207 178.7C119.167 178.7 118.247 178.493 117.447 178.08C116.647 177.667 116.021 177.053 115.567 176.24C115.127 175.427 114.907 174.413 114.907 173.2C114.907 171.987 115.107 170.96 115.507 170.12C115.921 169.28 116.487 168.64 117.207 168.2C117.941 167.747 118.794 167.52 119.767 167.52ZM119.767 169.16C119.007 169.16 118.394 169.407 117.927 169.9C117.474 170.393 117.207 171.093 117.127 172H122.207C122.194 171.16 121.987 170.48 121.587 169.96C121.201 169.427 120.594 169.16 119.767 169.16ZM132.293 167.52C132.719 167.52 133.113 167.553 133.473 167.62L133.253 169.6C132.906 169.507 132.546 169.46 132.173 169.46C131.626 169.46 131.119 169.593 130.653 169.86C130.186 170.127 129.806 170.513 129.513 171.02C129.233 171.513 129.093 172.113 129.093 172.82V178.5H126.973V167.72H128.653L128.933 169.64H129.013C129.346 169.067 129.793 168.573 130.353 168.16C130.913 167.733 131.559 167.52 132.293 167.52ZM142.529 181.6H133.769V180.3H142.529V181.6ZM148.48 178.7C146.987 178.7 145.787 178.26 144.88 177.38C143.974 176.487 143.52 175.087 143.52 173.18C143.52 171.847 143.74 170.767 144.18 169.94C144.62 169.113 145.227 168.507 146 168.12C146.774 167.72 147.654 167.52 148.64 167.52C149.24 167.52 149.8 167.58 150.32 167.7C150.854 167.82 151.294 167.967 151.64 168.14L151 169.86C150.627 169.727 150.234 169.607 149.82 169.5C149.407 169.38 149.007 169.32 148.62 169.32C146.674 169.32 145.7 170.6 145.7 173.16C145.7 174.387 145.94 175.32 146.42 175.96C146.9 176.6 147.607 176.92 148.54 176.92C149.127 176.92 149.654 176.853 150.12 176.72C150.587 176.587 151.014 176.413 151.4 176.2V178.04C151.014 178.267 150.594 178.433 150.14 178.54C149.687 178.647 149.134 178.7 148.48 178.7ZM156.065 163.3V167.36C156.065 167.693 156.052 168.027 156.025 168.36C155.998 168.693 155.972 168.967 155.945 169.18H156.085C156.432 168.633 156.892 168.227 157.465 167.96C158.052 167.68 158.685 167.54 159.365 167.54C160.632 167.54 161.598 167.853 162.265 168.48C162.945 169.107 163.285 170.107 163.285 171.48V178.5H161.185V171.78C161.185 170.1 160.445 169.26 158.965 169.26C157.858 169.26 157.098 169.593 156.685 170.26C156.272 170.927 156.065 171.867 156.065 173.08V178.5H153.945V163.3H156.065ZM176.043 173.1C176.043 174.887 175.583 176.267 174.663 177.24C173.743 178.213 172.503 178.7 170.943 178.7C169.969 178.7 169.103 178.487 168.343 178.06C167.596 177.62 167.003 176.987 166.563 176.16C166.136 175.32 165.923 174.3 165.923 173.1C165.923 171.313 166.376 169.94 167.283 168.98C168.189 168.007 169.429 167.52 171.003 167.52C171.989 167.52 172.856 167.74 173.603 168.18C174.363 168.607 174.956 169.233 175.383 170.06C175.823 170.887 176.043 171.9 176.043 173.1ZM168.103 173.1C168.103 174.313 168.329 175.26 168.783 175.94C169.249 176.62 169.983 176.96 170.983 176.96C171.983 176.96 172.709 176.62 173.163 175.94C173.629 175.26 173.863 174.313 173.863 173.1C173.863 171.873 173.629 170.933 173.163 170.28C172.709 169.613 171.976 169.28 170.963 169.28C169.963 169.28 169.236 169.613 168.783 170.28C168.329 170.933 168.103 171.873 168.103 173.1ZM179.81 163.62C180.13 163.62 180.41 163.713 180.65 163.9C180.89 164.087 181.01 164.4 181.01 164.84C181.01 165.267 180.89 165.58 180.65 165.78C180.41 165.967 180.13 166.06 179.81 166.06C179.477 166.06 179.19 165.967 178.95 165.78C178.71 165.58 178.59 165.267 178.59 164.84C178.59 164.4 178.71 164.087 178.95 163.9C179.19 163.713 179.477 163.62 179.81 163.62ZM180.85 167.72V178.5H178.73V167.72H180.85ZM191.34 175.46C191.34 176.527 190.953 177.333 190.18 177.88C189.42 178.427 188.346 178.7 186.96 178.7C186.2 178.7 185.546 178.647 185 178.54C184.466 178.433 183.973 178.267 183.52 178.04V176.18C183.986 176.407 184.533 176.613 185.16 176.8C185.8 176.973 186.42 177.06 187.02 177.06C187.82 177.06 188.393 176.933 188.74 176.68C189.1 176.427 189.28 176.087 189.28 175.66C189.28 175.42 189.213 175.207 189.08 175.02C188.946 174.82 188.693 174.62 188.32 174.42C187.96 174.207 187.426 173.967 186.72 173.7C186.026 173.433 185.44 173.16 184.96 172.88C184.493 172.6 184.133 172.267 183.88 171.88C183.626 171.493 183.5 171.007 183.5 170.42C183.5 169.487 183.873 168.773 184.62 168.28C185.38 167.773 186.38 167.52 187.62 167.52C188.273 167.52 188.886 167.587 189.46 167.72C190.046 167.853 190.613 168.04 191.16 168.28L190.46 169.9C189.993 169.7 189.513 169.533 189.02 169.4C188.526 169.253 188.026 169.18 187.52 169.18C186.213 169.18 185.56 169.56 185.56 170.32C185.56 170.573 185.633 170.793 185.78 170.98C185.94 171.167 186.206 171.353 186.58 171.54C186.966 171.727 187.5 171.953 188.18 172.22C188.833 172.473 189.393 172.74 189.86 173.02C190.34 173.287 190.706 173.613 190.96 174C191.213 174.387 191.34 174.873 191.34 175.46ZM194.947 163.62C195.267 163.62 195.547 163.713 195.787 163.9C196.027 164.087 196.147 164.4 196.147 164.84C196.147 165.267 196.027 165.58 195.787 165.78C195.547 165.967 195.267 166.06 194.947 166.06C194.614 166.06 194.327 165.967 194.087 165.78C193.847 165.58 193.727 165.267 193.727 164.84C193.727 164.4 193.847 164.087 194.087 163.9C194.327 163.713 194.614 163.62 194.947 163.62ZM195.987 167.72V178.5H193.867V167.72H195.987ZM199.016 177.32C199.016 176.8 199.15 176.433 199.416 176.22C199.683 176.007 200.003 175.9 200.376 175.9C200.75 175.9 201.07 176.007 201.336 176.22C201.616 176.433 201.756 176.8 201.756 177.32C201.756 177.84 201.616 178.213 201.336 178.44C201.07 178.667 200.75 178.78 200.376 178.78C200.003 178.78 199.683 178.667 199.416 178.44C199.15 178.213 199.016 177.84 199.016 177.32ZM210.165 167.52C211.472 167.52 212.518 167.987 213.305 168.92C214.092 169.853 214.485 171.247 214.485 173.1C214.485 174.927 214.085 176.32 213.285 177.28C212.485 178.227 211.438 178.7 210.145 178.7C209.332 178.7 208.665 178.553 208.145 178.26C207.625 177.953 207.212 177.593 206.905 177.18H206.765C206.792 177.42 206.818 177.707 206.845 178.04C206.885 178.36 206.905 178.647 206.905 178.9V183.3H204.785V167.72H206.505L206.805 169.16H206.905C207.212 168.707 207.618 168.32 208.125 168C208.645 167.68 209.325 167.52 210.165 167.52ZM209.665 169.26C208.665 169.26 207.958 169.547 207.545 170.12C207.132 170.693 206.918 171.573 206.905 172.76V173.08C206.905 174.333 207.105 175.293 207.505 175.96C207.905 176.627 208.638 176.96 209.705 176.96C210.585 176.96 211.238 176.6 211.665 175.88C212.092 175.16 212.305 174.22 212.305 173.06C212.305 171.887 212.085 170.96 211.645 170.28C211.218 169.6 210.558 169.26 209.665 169.26ZM220.887 178.7C219.581 178.7 218.534 178.233 217.747 177.3C216.961 176.367 216.567 174.98 216.567 173.14C216.567 171.287 216.967 169.887 217.767 168.94C218.567 167.993 219.621 167.52 220.927 167.52C221.741 167.52 222.407 167.673 222.927 167.98C223.447 168.287 223.867 168.66 224.187 169.1H224.307C224.281 168.913 224.247 168.64 224.207 168.28C224.167 167.92 224.147 167.607 224.147 167.34V163.3H226.267V178.5H224.607L224.247 177.06H224.147C223.841 177.513 223.427 177.9 222.907 178.22C222.387 178.54 221.714 178.7 220.887 178.7ZM221.387 176.96C222.427 176.96 223.154 176.673 223.567 176.1C223.994 175.527 224.214 174.653 224.227 173.48V173.16C224.227 171.893 224.021 170.927 223.607 170.26C223.207 169.593 222.461 169.26 221.367 169.26C220.501 169.26 219.847 169.607 219.407 170.3C218.967 170.993 218.747 171.953 218.747 173.18C218.747 174.393 218.967 175.327 219.407 175.98C219.847 176.633 220.507 176.96 221.387 176.96ZM234.85 169.34H232.19V178.5H230.07V169.34H228.25V168.34L230.07 167.68V167C230.07 165.627 230.383 164.653 231.01 164.08C231.65 163.493 232.536 163.2 233.67 163.2C234.136 163.2 234.563 163.24 234.95 163.32C235.336 163.4 235.663 163.487 235.93 163.58L235.39 165.2C235.163 165.133 234.91 165.073 234.63 165.02C234.35 164.953 234.063 164.92 233.77 164.92C232.716 164.92 232.19 165.62 232.19 167.02V167.72H234.85V169.34Z" fill="#333333"/>
<path d="M392.1 174.64C392.1 175.907 391.64 176.9 390.72 177.62C389.8 178.34 388.54 178.7 386.94 178.7C386.153 178.7 385.42 178.633 384.74 178.5C384.06 178.38 383.48 178.2 383 177.96V175.92C383.533 176.16 384.16 176.38 384.88 176.58C385.6 176.767 386.333 176.86 387.08 176.86C388.04 176.86 388.76 176.673 389.24 176.3C389.72 175.927 389.96 175.427 389.96 174.8C389.96 174.36 389.853 173.993 389.64 173.7C389.427 173.393 389.08 173.113 388.6 172.86C388.133 172.593 387.52 172.313 386.76 172.02C386.067 171.753 385.447 171.44 384.9 171.08C384.353 170.72 383.927 170.273 383.62 169.74C383.313 169.207 383.16 168.553 383.16 167.78C383.16 166.607 383.587 165.687 384.44 165.02C385.293 164.353 386.413 164.02 387.8 164.02C388.573 164.02 389.287 164.1 389.94 164.26C390.607 164.42 391.24 164.627 391.84 164.88L391.16 166.66C390.613 166.433 390.053 166.247 389.48 166.1C388.92 165.953 388.34 165.88 387.74 165.88C386.953 165.88 386.353 166.053 385.94 166.4C385.527 166.747 385.32 167.2 385.32 167.76C385.32 168.2 385.42 168.573 385.62 168.88C385.82 169.173 386.14 169.447 386.58 169.7C387.02 169.94 387.6 170.2 388.32 170.48C389.12 170.8 389.8 171.14 390.36 171.5C390.933 171.847 391.367 172.273 391.66 172.78C391.953 173.273 392.1 173.893 392.1 174.64ZM403.936 167.72V178.5H402.236L401.936 177.08H401.836C401.489 177.64 401.009 178.053 400.396 178.32C399.783 178.573 399.136 178.7 398.456 178.7C397.189 178.7 396.223 178.393 395.556 177.78C394.889 177.153 394.556 176.153 394.556 174.78V167.72H396.696V174.46C396.696 175.3 396.869 175.927 397.216 176.34C397.576 176.753 398.129 176.96 398.876 176.96C399.983 176.96 400.749 176.64 401.176 176C401.603 175.347 401.816 174.407 401.816 173.18V167.72H403.936ZM412.634 167.52C413.94 167.52 414.987 167.987 415.774 168.92C416.56 169.853 416.954 171.247 416.954 173.1C416.954 174.927 416.554 176.32 415.754 177.28C414.954 178.227 413.907 178.7 412.614 178.7C411.8 178.7 411.134 178.553 410.614 178.26C410.094 177.953 409.68 177.593 409.374 177.18H409.234C409.26 177.42 409.287 177.707 409.314 178.04C409.354 178.36 409.374 178.647 409.374 178.9V183.3H407.254V167.72H408.974L409.274 169.16H409.374C409.68 168.707 410.087 168.32 410.594 168C411.114 167.68 411.794 167.52 412.634 167.52ZM412.134 169.26C411.134 169.26 410.427 169.547 410.014 170.12C409.6 170.693 409.387 171.573 409.374 172.76V173.08C409.374 174.333 409.574 175.293 409.974 175.96C410.374 176.627 411.107 176.96 412.174 176.96C413.054 176.96 413.707 176.6 414.134 175.88C414.56 175.16 414.774 174.22 414.774 173.06C414.774 171.887 414.554 170.96 414.114 170.28C413.687 169.6 413.027 169.26 412.134 169.26ZM425.036 167.52C426.343 167.52 427.389 167.987 428.176 168.92C428.963 169.853 429.356 171.247 429.356 173.1C429.356 174.927 428.956 176.32 428.156 177.28C427.356 178.227 426.309 178.7 425.016 178.7C424.203 178.7 423.536 178.553 423.016 178.26C422.496 177.953 422.083 177.593 421.776 177.18H421.636C421.663 177.42 421.689 177.707 421.716 178.04C421.756 178.36 421.776 178.647 421.776 178.9V183.3H419.656V167.72H421.376L421.676 169.16H421.776C422.083 168.707 422.489 168.32 422.996 168C423.516 167.68 424.196 167.52 425.036 167.52ZM424.536 169.26C423.536 169.26 422.829 169.547 422.416 170.12C422.003 170.693 421.789 171.573 421.776 172.76V173.08C421.776 174.333 421.976 175.293 422.376 175.96C422.776 176.627 423.509 176.96 424.576 176.96C425.456 176.96 426.109 176.6 426.536 175.88C426.963 175.16 427.176 174.22 427.176 173.06C427.176 171.887 426.956 170.96 426.516 170.28C426.089 169.6 425.429 169.26 424.536 169.26ZM437.378 167.52C437.805 167.52 438.198 167.553 438.558 167.62L438.338 169.6C437.992 169.507 437.632 169.46 437.258 169.46C436.712 169.46 436.205 169.593 435.738 169.86C435.272 170.127 434.892 170.513 434.598 171.02C434.318 171.513 434.178 172.113 434.178 172.82V178.5H432.058V167.72H433.738L434.018 169.64H434.098C434.432 169.067 434.878 168.573 435.438 168.16C435.998 167.733 436.645 167.52 437.378 167.52ZM441.635 163.62C441.955 163.62 442.235 163.713 442.475 163.9C442.715 164.087 442.835 164.4 442.835 164.84C442.835 165.267 442.715 165.58 442.475 165.78C442.235 165.967 441.955 166.06 441.635 166.06C441.301 166.06 441.015 165.967 440.775 165.78C440.535 165.58 440.415 165.267 440.415 164.84C440.415 164.4 440.535 164.087 440.775 163.9C441.015 163.713 441.301 163.62 441.635 163.62ZM442.675 167.72V178.5H440.555V167.72H442.675ZM458.084 167.52C459.297 167.52 460.21 167.833 460.824 168.46C461.437 169.087 461.744 170.093 461.744 171.48V178.5H459.624V171.76C459.624 170.093 458.95 169.26 457.604 169.26C456.644 169.26 455.957 169.56 455.544 170.16C455.13 170.747 454.924 171.593 454.924 172.7V178.5H452.824V171.76C452.824 170.093 452.144 169.26 450.784 169.26C449.77 169.26 449.07 169.587 448.684 170.24C448.31 170.893 448.124 171.833 448.124 173.06V178.5H446.004V167.72H447.684L447.984 169.16H448.104C448.437 168.6 448.884 168.187 449.444 167.92C450.017 167.653 450.624 167.52 451.264 167.52C452.917 167.52 454.01 168.1 454.544 169.26H454.704C455.05 168.673 455.53 168.24 456.144 167.96C456.757 167.667 457.404 167.52 458.084 167.52ZM469.228 167.52C470.641 167.52 471.755 167.96 472.568 168.84C473.381 169.707 473.788 170.893 473.788 172.4V173.56H466.548C466.575 174.667 466.861 175.513 467.408 176.1C467.968 176.687 468.748 176.98 469.748 176.98C470.441 176.98 471.055 176.92 471.588 176.8C472.135 176.667 472.695 176.473 473.268 176.22V177.98C472.721 178.233 472.175 178.413 471.628 178.52C471.081 178.64 470.428 178.7 469.668 178.7C468.628 178.7 467.708 178.493 466.908 178.08C466.108 177.667 465.481 177.053 465.028 176.24C464.588 175.427 464.368 174.413 464.368 173.2C464.368 171.987 464.568 170.96 464.968 170.12C465.381 169.28 465.948 168.64 466.668 168.2C467.401 167.747 468.255 167.52 469.228 167.52ZM469.228 169.16C468.468 169.16 467.855 169.407 467.388 169.9C466.935 170.393 466.668 171.093 466.588 172H471.668C471.655 171.16 471.448 170.48 471.048 169.96C470.661 169.427 470.055 169.16 469.228 169.16ZM481.753 167.52C482.18 167.52 482.573 167.553 482.933 167.62L482.713 169.6C482.367 169.507 482.007 169.46 481.633 169.46C481.087 169.46 480.58 169.593 480.113 169.86C479.647 170.127 479.267 170.513 478.973 171.02C478.693 171.513 478.553 172.113 478.553 172.82V178.5H476.433V167.72H478.113L478.393 169.64H478.473C478.807 169.067 479.253 168.573 479.813 168.16C480.373 167.733 481.02 167.52 481.753 167.52Z" fill="#A62A1E"/>
<path d="M382 181H406.25V182H382V181ZM410.375 181H418.656V182H410.375V181ZM422.773 181H483.273V182H422.773V181Z" fill="#A62A1E"/>
<path fill-rule="evenodd" clip-rule="evenodd" d="M498.532 170.5L492 163.968L493.468 162.5L500 169.032L506.532 162.5L508 163.968L501.468 170.5L508 177.032L506.532 178.5L500 171.968L493.468 178.5L492 177.032L498.532 170.5Z" fill="#A62A1E"/>
<g clip-path="url(#clip0_6834_9435)">
<rect y="18" width="48" height="1" fill="#C54600"/>
<g clip-path="url(#clip1_6834_9435)">
<rect y="6" width="24" height="24" rx="12" fill="#C54600"/>
<path d="M13.1825 13.2727V22H12.1257V14.3807H12.0746L9.94389 15.7955V14.7216L12.1257 13.2727H13.1825Z" fill="white"/>
</g>
</g>
<g clip-path="url(#clip2_6834_9435)">
<rect y="48" width="48" height="1" fill="#C54600"/>
<g clip-path="url(#clip3_6834_9435)">
<rect y="36" width="24" height="24" rx="12" fill="#C54600"/>
<path d="M9.2706 52V51.233L12.1513 48.0795C12.4893 47.7102 12.7678 47.3892 12.9865 47.1165C13.2053 46.8409 13.3672 46.5824 13.4723 46.3409C13.5803 46.0966 13.6342 45.8409 13.6342 45.5739C13.6342 45.267 13.5604 45.0014 13.4126 44.777C13.2678 44.5526 13.0689 44.3793 12.8161 44.2571C12.5632 44.1349 12.2791 44.0739 11.9638 44.0739C11.6286 44.0739 11.3359 44.1435 11.0859 44.2827C10.8388 44.419 10.647 44.6108 10.5107 44.858C10.3771 45.1051 10.3104 45.3949 10.3104 45.7273H9.30469C9.30469 45.2159 9.42259 44.767 9.65838 44.3807C9.89418 43.9943 10.2152 43.6932 10.6214 43.4773C11.0305 43.2614 11.4893 43.1534 11.9979 43.1534C12.5092 43.1534 12.9624 43.2614 13.3572 43.4773C13.7521 43.6932 14.0618 43.9844 14.2862 44.3509C14.5107 44.7173 14.6229 45.125 14.6229 45.5739C14.6229 45.8949 14.5646 46.2088 14.4482 46.5156C14.3345 46.8196 14.1357 47.1591 13.8516 47.5341C13.5703 47.9062 13.1797 48.3608 12.6797 48.8977L10.7195 50.9943V51.0625H14.7763V52H9.2706Z" fill="white"/>
</g>
</g>
<g clip-path="url(#clip4_6834_9435)">
<rect y="96" width="48" height="1" fill="#C54600"/>
<g clip-path="url(#clip5_6834_9435)">
<rect y="84" width="24" height="24" rx="12" fill="#C54600"/>
<path d="M12.032 100.119C11.4695 100.119 10.968 100.023 10.5277 99.8295C10.0902 99.6364 9.74219 99.3679 9.48366 99.0241C9.22798 98.6776 9.08878 98.2756 9.06605 97.8182H10.1399C10.1626 98.0994 10.2592 98.3423 10.4297 98.5469C10.6001 98.7486 10.8232 98.9048 11.0987 99.0156C11.3743 99.1264 11.6797 99.1818 12.0149 99.1818C12.3899 99.1818 12.7223 99.1165 13.0121 98.9858C13.3018 98.8551 13.5291 98.6733 13.6939 98.4403C13.8587 98.2074 13.9411 97.9375 13.9411 97.6307C13.9411 97.3097 13.8615 97.027 13.7024 96.7827C13.5433 96.5355 13.3104 96.3423 13.0036 96.2031C12.6967 96.0639 12.3217 95.9943 11.8786 95.9943H11.1797V95.0568H11.8786C12.2251 95.0568 12.5291 94.9943 12.7905 94.8693C13.0547 94.7443 13.2607 94.5682 13.4084 94.3409C13.5589 94.1136 13.6342 93.8466 13.6342 93.5398C13.6342 93.2443 13.5689 92.9872 13.4382 92.7685C13.3075 92.5497 13.1229 92.3793 12.8842 92.2571C12.6484 92.1349 12.37 92.0739 12.049 92.0739C11.7479 92.0739 11.4638 92.1293 11.1967 92.2401C10.9325 92.348 10.7166 92.5057 10.549 92.7131C10.3814 92.9176 10.2905 93.1648 10.2763 93.4545H9.25355C9.2706 92.9972 9.40838 92.5966 9.6669 92.2528C9.92543 91.9062 10.2635 91.6364 10.6811 91.4432C11.1016 91.25 11.5632 91.1534 12.0661 91.1534C12.6058 91.1534 13.0689 91.2628 13.4553 91.4815C13.8416 91.6974 14.1385 91.983 14.3459 92.3381C14.5533 92.6932 14.657 93.0767 14.657 93.4886C14.657 93.9801 14.5277 94.3991 14.2692 94.7457C14.0135 95.0923 13.6655 95.3324 13.2251 95.4659V95.5341C13.7763 95.625 14.2067 95.8594 14.5163 96.2372C14.826 96.6122 14.9808 97.0767 14.9808 97.6307C14.9808 98.1051 14.8516 98.5312 14.593 98.9091C14.3374 99.2841 13.9879 99.5795 13.5447 99.7955C13.1016 100.011 12.5973 100.119 12.032 100.119Z" fill="white"/>
</g>
</g>
<g clip-path="url(#clip6_6834_9435)">
<rect y="172" width="48" height="1" fill="#C54600"/>
<g clip-path="url(#clip7_6834_9435)">
<rect y="160" width="24" height="24" rx="12" fill="#C54600"/>
<path d="M8.84925 174.21V173.341L12.6845 167.273H13.3152V168.619H12.889L9.9913 173.205V173.273H15.1561V174.21H8.84925ZM12.9572 176V173.946V173.541V167.273H13.9629V176H12.9572Z" fill="white"/>
</g>
</g>
<g clip-path="url(#clip8_6834_9435)">
<rect x="509" y="170" width="90" height="1" fill="#C54600"/>
<g clip-path="url(#clip9_6834_9435)">
<rect x="575" y="158" width="24" height="24" rx="12" fill="#C54600"/>
<path d="M587.057 174.119C586.699 174.114 586.341 174.045 585.983 173.915C585.625 173.784 585.298 173.564 585.003 173.254C584.708 172.942 584.47 172.52 584.291 171.989C584.112 171.455 584.023 170.784 584.023 169.977C584.023 169.205 584.095 168.52 584.24 167.923C584.385 167.324 584.595 166.82 584.871 166.411C585.146 165.999 585.479 165.686 585.868 165.473C586.26 165.26 586.702 165.153 587.193 165.153C587.682 165.153 588.117 165.251 588.497 165.447C588.881 165.641 589.193 165.911 589.435 166.257C589.676 166.604 589.833 167.003 589.904 167.455H588.864C588.767 167.062 588.58 166.737 588.301 166.479C588.023 166.22 587.654 166.091 587.193 166.091C586.517 166.091 585.985 166.385 585.595 166.973C585.209 167.561 585.014 168.386 585.012 169.449H585.08C585.239 169.207 585.428 169.001 585.646 168.831C585.868 168.658 586.112 168.524 586.379 168.43C586.646 168.337 586.929 168.29 587.227 168.29C587.727 168.29 588.185 168.415 588.6 168.665C589.014 168.912 589.347 169.254 589.597 169.692C589.847 170.126 589.972 170.625 589.972 171.188C589.972 171.727 589.851 172.222 589.61 172.67C589.368 173.116 589.029 173.472 588.591 173.736C588.156 173.997 587.645 174.125 587.057 174.119ZM587.057 173.182C587.415 173.182 587.736 173.092 588.02 172.913C588.307 172.734 588.533 172.494 588.698 172.193C588.865 171.892 588.949 171.557 588.949 171.188C588.949 170.827 588.868 170.499 588.706 170.203C588.547 169.905 588.327 169.668 588.046 169.491C587.767 169.315 587.449 169.227 587.091 169.227C586.821 169.227 586.57 169.281 586.337 169.389C586.104 169.494 585.899 169.639 585.723 169.824C585.55 170.009 585.414 170.22 585.314 170.459C585.215 170.695 585.165 170.943 585.165 171.205C585.165 171.551 585.246 171.875 585.408 172.176C585.573 172.477 585.797 172.72 586.081 172.905C586.368 173.089 586.693 173.182 587.057 173.182Z" fill="white"/>
</g>
</g>
<g clip-path="url(#clip10_6834_9435)">
<g clip-path="url(#clip11_6834_9435)">
<rect x="129" y="222.8" width="24" height="24" rx="12" fill="#C54600"/>
<path d="M140.98 238.919C140.48 238.919 140.03 238.82 139.629 238.621C139.229 238.422 138.908 238.149 138.666 237.803C138.425 237.456 138.293 237.061 138.27 236.618H139.293C139.333 237.013 139.512 237.34 139.83 237.598C140.151 237.854 140.534 237.982 140.98 237.982C141.338 237.982 141.656 237.898 141.935 237.73C142.216 237.563 142.436 237.333 142.595 237.04C142.757 236.745 142.838 236.411 142.838 236.039C142.838 235.658 142.754 235.319 142.587 235.02C142.422 234.719 142.195 234.482 141.905 234.309C141.615 234.135 141.284 234.047 140.912 234.044C140.645 234.042 140.371 234.083 140.09 234.168C139.808 234.25 139.577 234.357 139.395 234.488L138.406 234.368L138.935 230.073H143.469V231.01H139.821L139.514 233.584H139.566C139.744 233.442 139.969 233.324 140.239 233.23C140.509 233.137 140.79 233.09 141.083 233.09C141.617 233.09 142.093 233.218 142.51 233.473C142.931 233.726 143.26 234.073 143.499 234.513C143.74 234.953 143.861 235.456 143.861 236.022C143.861 236.578 143.736 237.076 143.486 237.513C143.239 237.948 142.898 238.292 142.463 238.544C142.029 238.794 141.534 238.919 140.98 238.919Z" fill="white"/>
</g>
</g>
<rect width="1" height="31" transform="matrix(1 0 0 -1 141 223)" fill="#C54600"/>
<defs>
<clipPath id="clip0_6834_9435">
<rect width="48" height="24" fill="white" transform="translate(0 6)"/>
</clipPath>
<clipPath id="clip1_6834_9435">
<rect y="6" width="24" height="24" rx="12" fill="white"/>
</clipPath>
<clipPath id="clip2_6834_9435">
<rect width="48" height="24" fill="white" transform="translate(0 36)"/>
</clipPath>
<clipPath id="clip3_6834_9435">
<rect y="36" width="24" height="24" rx="12" fill="white"/>
</clipPath>
<clipPath id="clip4_6834_9435">
<rect width="48" height="24" fill="white" transform="translate(0 84)"/>
</clipPath>
<clipPath id="clip5_6834_9435">
<rect y="84" width="24" height="24" rx="12" fill="white"/>
</clipPath>
<clipPath id="clip6_6834_9435">
<rect width="48" height="24" fill="white" transform="translate(0 160)"/>
</clipPath>
<clipPath id="clip7_6834_9435">
<rect y="160" width="24" height="24" rx="12" fill="white"/>
</clipPath>
<clipPath id="clip8_6834_9435">
<rect width="90" height="24" fill="white" transform="translate(514 158)"/>
</clipPath>
<clipPath id="clip9_6834_9435">
<rect x="575" y="158" width="24" height="24" rx="12" fill="white"/>
</clipPath>
<clipPath id="clip10_6834_9435">
<rect width="24" height="24" fill="white" transform="translate(129 223)"/>
</clipPath>
<clipPath id="clip11_6834_9435">
<rect x="129" y="222.8" width="24" height="24" rx="12" fill="white"/>
</clipPath>
</defs>
</svg>
