<svg width="495" height="124" viewBox="0 0 495 124" fill="none" xmlns="http://www.w3.org/2000/svg">
<g clip-path="url(#clip0_9027_41811)">
<path d="M200 105L186.5 112.794L186.5 97.2058L200 105Z" fill="#26374A"/>
</g>
<path d="M228.9 113L227.18 108.58H221.52L219.82 113H218L223.58 98.66H225.2L230.76 113H228.9ZM225.04 102.66C225 102.553 224.933 102.36 224.84 102.08C224.747 101.8 224.653 101.513 224.56 101.22C224.48 100.913 224.413 100.68 224.36 100.52C224.267 100.933 224.16 101.34 224.04 101.74C223.92 102.127 223.82 102.433 223.74 102.66L222.12 106.98H226.64L225.04 102.66ZM237.573 102.08C238.893 102.08 239.953 102.54 240.753 103.46C241.567 104.38 241.973 105.767 241.973 107.62C241.973 109.447 241.567 110.833 240.753 111.78C239.953 112.727 238.887 113.2 237.553 113.2C236.727 113.2 236.04 113.047 235.493 112.74C234.96 112.42 234.54 112.053 234.233 111.64H234.113C234.14 111.867 234.167 112.153 234.193 112.5C234.22 112.847 234.233 113.147 234.233 113.4V117.8H232.473V102.28H233.913L234.153 103.74H234.233C234.553 103.273 234.973 102.88 235.493 102.56C236.013 102.24 236.707 102.08 237.573 102.08ZM237.253 103.56C236.16 103.56 235.387 103.867 234.933 104.48C234.493 105.093 234.26 106.027 234.233 107.28V107.62C234.233 108.94 234.447 109.96 234.873 110.68C235.313 111.387 236.12 111.74 237.293 111.74C237.947 111.74 238.48 111.56 238.893 111.2C239.32 110.84 239.633 110.353 239.833 109.74C240.047 109.113 240.153 108.4 240.153 107.6C240.153 106.373 239.913 105.393 239.433 104.66C238.967 103.927 238.24 103.56 237.253 103.56ZM249.878 102.08C251.198 102.08 252.258 102.54 253.058 103.46C253.871 104.38 254.278 105.767 254.278 107.62C254.278 109.447 253.871 110.833 253.058 111.78C252.258 112.727 251.191 113.2 249.858 113.2C249.031 113.2 248.345 113.047 247.798 112.74C247.265 112.42 246.845 112.053 246.538 111.64H246.418C246.445 111.867 246.471 112.153 246.498 112.5C246.525 112.847 246.538 113.147 246.538 113.4V117.8H244.778V102.28H246.218L246.458 103.74H246.538C246.858 103.273 247.278 102.88 247.798 102.56C248.318 102.24 249.011 102.08 249.878 102.08ZM249.558 103.56C248.465 103.56 247.691 103.867 247.238 104.48C246.798 105.093 246.565 106.027 246.538 107.28V107.62C246.538 108.94 246.751 109.96 247.178 110.68C247.618 111.387 248.425 111.74 249.598 111.74C250.251 111.74 250.785 111.56 251.198 111.2C251.625 110.84 251.938 110.353 252.138 109.74C252.351 109.113 252.458 108.4 252.458 107.6C252.458 106.373 252.218 105.393 251.738 104.66C251.271 103.927 250.545 103.56 249.558 103.56ZM262.083 102.08C262.283 102.08 262.496 102.093 262.723 102.12C262.963 102.133 263.169 102.16 263.343 102.2L263.123 103.82C262.949 103.78 262.756 103.747 262.543 103.72C262.343 103.693 262.149 103.68 261.963 103.68C261.416 103.68 260.903 103.833 260.423 104.14C259.943 104.433 259.556 104.853 259.263 105.4C258.983 105.933 258.843 106.56 258.843 107.28V113H257.083V102.28H258.523L258.723 104.24H258.803C259.149 103.653 259.596 103.147 260.143 102.72C260.689 102.293 261.336 102.08 262.083 102.08ZM269.094 102.08C270.014 102.08 270.801 102.28 271.454 102.68C272.121 103.08 272.627 103.647 272.974 104.38C273.334 105.1 273.514 105.947 273.514 106.92V107.98H266.174C266.201 109.193 266.507 110.12 267.094 110.76C267.694 111.387 268.527 111.7 269.594 111.7C270.274 111.7 270.874 111.64 271.394 111.52C271.927 111.387 272.474 111.2 273.034 110.96V112.5C272.487 112.74 271.947 112.913 271.414 113.02C270.881 113.14 270.247 113.2 269.514 113.2C268.501 113.2 267.601 112.993 266.814 112.58C266.041 112.167 265.434 111.553 264.994 110.74C264.567 109.913 264.354 108.907 264.354 107.72C264.354 106.547 264.547 105.54 264.934 104.7C265.334 103.86 265.887 103.213 266.594 102.76C267.314 102.307 268.147 102.08 269.094 102.08ZM269.074 103.52C268.234 103.52 267.567 103.793 267.074 104.34C266.594 104.873 266.307 105.62 266.214 106.58H271.674C271.661 105.673 271.447 104.94 271.034 104.38C270.621 103.807 269.967 103.52 269.074 103.52ZM281.403 102.08C282.683 102.08 283.65 102.393 284.303 103.02C284.956 103.633 285.283 104.633 285.283 106.02V113H283.543V106.14C283.543 104.42 282.743 103.56 281.143 103.56C279.956 103.56 279.136 103.893 278.683 104.56C278.23 105.227 278.003 106.187 278.003 107.44V113H276.243V102.28H277.663L277.923 103.74H278.023C278.37 103.18 278.85 102.767 279.463 102.5C280.076 102.22 280.723 102.08 281.403 102.08ZM292.746 102.08C293.666 102.08 294.453 102.28 295.106 102.68C295.773 103.08 296.28 103.647 296.626 104.38C296.986 105.1 297.166 105.947 297.166 106.92V107.98H289.826C289.853 109.193 290.16 110.12 290.746 110.76C291.346 111.387 292.18 111.7 293.246 111.7C293.926 111.7 294.526 111.64 295.046 111.52C295.58 111.387 296.126 111.2 296.686 110.96V112.5C296.14 112.74 295.6 112.913 295.066 113.02C294.533 113.14 293.9 113.2 293.166 113.2C292.153 113.2 291.253 112.993 290.466 112.58C289.693 112.167 289.086 111.553 288.646 110.74C288.22 109.913 288.006 108.907 288.006 107.72C288.006 106.547 288.2 105.54 288.586 104.7C288.986 103.86 289.54 103.213 290.246 102.76C290.966 102.307 291.8 102.08 292.746 102.08ZM292.726 103.52C291.886 103.52 291.22 103.793 290.726 104.34C290.246 104.873 289.96 105.62 289.866 106.58H295.326C295.313 105.673 295.1 104.94 294.686 104.38C294.273 103.807 293.62 103.52 292.726 103.52ZM306.62 113H298.78V111.84L304.54 103.64H299.12V102.28H306.48V103.6L300.8 111.64H306.62V113ZM308.195 108.42V106.86H313.035V108.42H308.195ZM319.68 102.08C320.6 102.08 321.387 102.28 322.04 102.68C322.707 103.08 323.213 103.647 323.56 104.38C323.92 105.1 324.1 105.947 324.1 106.92V107.98H316.76C316.787 109.193 317.093 110.12 317.68 110.76C318.28 111.387 319.113 111.7 320.18 111.7C320.86 111.7 321.46 111.64 321.98 111.52C322.513 111.387 323.06 111.2 323.62 110.96V112.5C323.073 112.74 322.533 112.913 322 113.02C321.467 113.14 320.833 113.2 320.1 113.2C319.087 113.2 318.187 112.993 317.4 112.58C316.627 112.167 316.02 111.553 315.58 110.74C315.153 109.913 314.94 108.907 314.94 107.72C314.94 106.547 315.133 105.54 315.52 104.7C315.92 103.86 316.473 103.213 317.18 102.76C317.9 102.307 318.733 102.08 319.68 102.08ZM319.66 103.52C318.82 103.52 318.153 103.793 317.66 104.34C317.18 104.873 316.893 105.62 316.8 106.58H322.26C322.247 105.673 322.033 104.94 321.62 104.38C321.207 103.807 320.553 103.52 319.66 103.52ZM331.989 102.08C333.269 102.08 334.236 102.393 334.889 103.02C335.542 103.633 335.869 104.633 335.869 106.02V113H334.129V106.14C334.129 104.42 333.329 103.56 331.729 103.56C330.542 103.56 329.722 103.893 329.269 104.56C328.816 105.227 328.589 106.187 328.589 107.44V113H326.829V102.28H328.249L328.509 103.74H328.609C328.956 103.18 329.436 102.767 330.049 102.5C330.662 102.22 331.309 102.08 331.989 102.08ZM349.488 102.08C350.808 102.08 351.868 102.54 352.668 103.46C353.481 104.38 353.888 105.767 353.888 107.62C353.888 109.447 353.481 110.833 352.668 111.78C351.868 112.727 350.801 113.2 349.468 113.2C348.641 113.2 347.954 113.047 347.408 112.74C346.874 112.42 346.454 112.053 346.148 111.64H346.028C346.054 111.867 346.081 112.153 346.108 112.5C346.134 112.847 346.148 113.147 346.148 113.4V117.8H344.388V102.28H345.828L346.068 103.74H346.148C346.468 103.273 346.888 102.88 347.408 102.56C347.928 102.24 348.621 102.08 349.488 102.08ZM349.168 103.56C348.074 103.56 347.301 103.867 346.848 104.48C346.408 105.093 346.174 106.027 346.148 107.28V107.62C346.148 108.94 346.361 109.96 346.788 110.68C347.228 111.387 348.034 111.74 349.208 111.74C349.861 111.74 350.394 111.56 350.808 111.2C351.234 110.84 351.548 110.353 351.748 109.74C351.961 109.113 352.068 108.4 352.068 107.6C352.068 106.373 351.828 105.393 351.348 104.66C350.881 103.927 350.154 103.56 349.168 103.56ZM358.452 113H356.692V97.8H358.452V113ZM370.808 102.28V113H369.368L369.108 111.58H369.028C368.682 112.14 368.202 112.553 367.588 112.82C366.975 113.073 366.322 113.2 365.628 113.2C364.335 113.2 363.362 112.893 362.708 112.28C362.055 111.653 361.728 110.66 361.728 109.3V102.28H363.508V109.18C363.508 110.887 364.302 111.74 365.888 111.74C367.075 111.74 367.895 111.407 368.348 110.74C368.815 110.073 369.048 109.113 369.048 107.86V102.28H370.808ZM381.192 110.04C381.192 111.08 380.805 111.867 380.032 112.4C379.258 112.933 378.218 113.2 376.912 113.2C376.165 113.2 375.518 113.14 374.972 113.02C374.438 112.9 373.965 112.733 373.552 112.52V110.92C373.978 111.133 374.492 111.333 375.092 111.52C375.705 111.693 376.325 111.78 376.952 111.78C377.845 111.78 378.492 111.64 378.892 111.36C379.292 111.067 379.492 110.68 379.492 110.2C379.492 109.933 379.418 109.693 379.272 109.48C379.125 109.267 378.858 109.053 378.472 108.84C378.098 108.627 377.558 108.387 376.852 108.12C376.158 107.853 375.565 107.587 375.072 107.32C374.578 107.053 374.198 106.733 373.932 106.36C373.665 105.987 373.532 105.507 373.532 104.92C373.532 104.013 373.898 103.313 374.632 102.82C375.378 102.327 376.352 102.08 377.552 102.08C378.205 102.08 378.812 102.147 379.372 102.28C379.945 102.4 380.478 102.573 380.972 102.8L380.372 104.2C379.918 104.013 379.445 103.853 378.952 103.72C378.458 103.587 377.952 103.52 377.432 103.52C376.712 103.52 376.158 103.64 375.772 103.88C375.398 104.107 375.212 104.42 375.212 104.82C375.212 105.113 375.298 105.367 375.472 105.58C375.645 105.78 375.932 105.98 376.332 106.18C376.745 106.367 377.292 106.593 377.972 106.86C378.652 107.113 379.232 107.373 379.712 107.64C380.192 107.907 380.558 108.233 380.812 108.62C381.065 108.993 381.192 109.467 381.192 110.04ZM395.957 110.04C395.957 111.08 395.571 111.867 394.797 112.4C394.024 112.933 392.984 113.2 391.677 113.2C390.931 113.2 390.284 113.14 389.737 113.02C389.204 112.9 388.731 112.733 388.317 112.52V110.92C388.744 111.133 389.257 111.333 389.857 111.52C390.471 111.693 391.091 111.78 391.717 111.78C392.611 111.78 393.257 111.64 393.657 111.36C394.057 111.067 394.257 110.68 394.257 110.2C394.257 109.933 394.184 109.693 394.037 109.48C393.891 109.267 393.624 109.053 393.237 108.84C392.864 108.627 392.324 108.387 391.617 108.12C390.924 107.853 390.331 107.587 389.837 107.32C389.344 107.053 388.964 106.733 388.697 106.36C388.431 105.987 388.297 105.507 388.297 104.92C388.297 104.013 388.664 103.313 389.397 102.82C390.144 102.327 391.117 102.08 392.317 102.08C392.971 102.08 393.577 102.147 394.137 102.28C394.711 102.4 395.244 102.573 395.737 102.8L395.137 104.2C394.684 104.013 394.211 103.853 393.717 103.72C393.224 103.587 392.717 103.52 392.197 103.52C391.477 103.52 390.924 103.64 390.537 103.88C390.164 104.107 389.977 104.42 389.977 104.82C389.977 105.113 390.064 105.367 390.237 105.58C390.411 105.78 390.697 105.98 391.097 106.18C391.511 106.367 392.057 106.593 392.737 106.86C393.417 107.113 393.997 107.373 394.477 107.64C394.957 107.907 395.324 108.233 395.577 108.62C395.831 108.993 395.957 109.467 395.957 110.04ZM407.508 102.28V113H406.068L405.808 111.58H405.728C405.381 112.14 404.901 112.553 404.288 112.82C403.674 113.073 403.021 113.2 402.328 113.2C401.034 113.2 400.061 112.893 399.408 112.28C398.754 111.653 398.428 110.66 398.428 109.3V102.28H400.208V109.18C400.208 110.887 401.001 111.74 402.588 111.74C403.774 111.74 404.594 111.407 405.048 110.74C405.514 110.073 405.748 109.113 405.748 107.86V102.28H407.508ZM415.911 102.08C416.111 102.08 416.324 102.093 416.551 102.12C416.791 102.133 416.998 102.16 417.171 102.2L416.951 103.82C416.778 103.78 416.584 103.747 416.371 103.72C416.171 103.693 415.978 103.68 415.791 103.68C415.244 103.68 414.731 103.833 414.251 104.14C413.771 104.433 413.384 104.853 413.091 105.4C412.811 105.933 412.671 106.56 412.671 107.28V113H410.911V102.28H412.351L412.551 104.24H412.631C412.978 103.653 413.424 103.147 413.971 102.72C414.518 102.293 415.164 102.08 415.911 102.08ZM428.668 113.2C427.721 113.2 426.875 113.007 426.128 112.62C425.395 112.233 424.815 111.633 424.388 110.82C423.975 110.007 423.768 108.967 423.768 107.7C423.768 106.38 423.988 105.307 424.428 104.48C424.868 103.653 425.461 103.047 426.208 102.66C426.968 102.273 427.828 102.08 428.788 102.08C429.335 102.08 429.861 102.14 430.368 102.26C430.875 102.367 431.288 102.5 431.608 102.66L431.068 104.12C430.748 104 430.375 103.887 429.948 103.78C429.521 103.673 429.121 103.62 428.748 103.62C426.641 103.62 425.588 104.973 425.588 107.68C425.588 108.973 425.841 109.967 426.348 110.66C426.868 111.34 427.635 111.68 428.648 111.68C429.235 111.68 429.748 111.62 430.188 111.5C430.641 111.38 431.055 111.233 431.428 111.06V112.62C431.068 112.807 430.668 112.947 430.228 113.04C429.801 113.147 429.281 113.2 428.668 113.2ZM438.117 102.08C439.037 102.08 439.824 102.28 440.477 102.68C441.144 103.08 441.651 103.647 441.997 104.38C442.357 105.1 442.537 105.947 442.537 106.92V107.98H435.197C435.224 109.193 435.531 110.12 436.117 110.76C436.717 111.387 437.551 111.7 438.617 111.7C439.297 111.7 439.897 111.64 440.417 111.52C440.951 111.387 441.497 111.2 442.057 110.96V112.5C441.511 112.74 440.971 112.913 440.437 113.02C439.904 113.14 439.271 113.2 438.537 113.2C437.524 113.2 436.624 112.993 435.837 112.58C435.064 112.167 434.457 111.553 434.017 110.74C433.591 109.913 433.377 108.907 433.377 107.72C433.377 106.547 433.571 105.54 433.957 104.7C434.357 103.86 434.911 103.213 435.617 102.76C436.337 102.307 437.171 102.08 438.117 102.08ZM438.097 103.52C437.257 103.52 436.591 103.793 436.097 104.34C435.617 104.873 435.331 105.62 435.237 106.58H440.697C440.684 105.673 440.471 104.94 440.057 104.38C439.644 103.807 438.991 103.52 438.097 103.52ZM457.442 110.04C457.442 111.08 457.055 111.867 456.282 112.4C455.508 112.933 454.468 113.2 453.162 113.2C452.415 113.2 451.768 113.14 451.222 113.02C450.688 112.9 450.215 112.733 449.802 112.52V110.92C450.228 111.133 450.742 111.333 451.342 111.52C451.955 111.693 452.575 111.78 453.202 111.78C454.095 111.78 454.742 111.64 455.142 111.36C455.542 111.067 455.742 110.68 455.742 110.2C455.742 109.933 455.668 109.693 455.522 109.48C455.375 109.267 455.108 109.053 454.722 108.84C454.348 108.627 453.808 108.387 453.102 108.12C452.408 107.853 451.815 107.587 451.322 107.32C450.828 107.053 450.448 106.733 450.182 106.36C449.915 105.987 449.782 105.507 449.782 104.92C449.782 104.013 450.148 103.313 450.882 102.82C451.628 102.327 452.602 102.08 453.802 102.08C454.455 102.08 455.062 102.147 455.622 102.28C456.195 102.4 456.728 102.573 457.222 102.8L456.622 104.2C456.168 104.013 455.695 103.853 455.202 103.72C454.708 103.587 454.202 103.52 453.682 103.52C452.962 103.52 452.408 103.64 452.022 103.88C451.648 104.107 451.462 104.42 451.462 104.82C451.462 105.113 451.548 105.367 451.722 105.58C451.895 105.78 452.182 105.98 452.582 106.18C452.995 106.367 453.542 106.593 454.222 106.86C454.902 107.113 455.482 107.373 455.962 107.64C456.442 107.907 456.808 108.233 457.062 108.62C457.315 108.993 457.442 109.467 457.442 110.04ZM468.992 102.28V113H467.552L467.292 111.58H467.212C466.865 112.14 466.385 112.553 465.772 112.82C465.159 113.073 464.505 113.2 463.812 113.2C462.519 113.2 461.545 112.893 460.892 112.28C460.239 111.653 459.912 110.66 459.912 109.3V102.28H461.692V109.18C461.692 110.887 462.485 111.74 464.072 111.74C465.259 111.74 466.079 111.407 466.532 110.74C466.999 110.073 467.232 109.113 467.232 107.86V102.28H468.992ZM472.255 99.38C472.255 98.9933 472.355 98.7133 472.555 98.54C472.755 98.3533 473.002 98.26 473.295 98.26C473.562 98.26 473.795 98.3533 473.995 98.54C474.209 98.7133 474.315 98.9933 474.315 99.38C474.315 99.7533 474.209 100.033 473.995 100.22C473.795 100.407 473.562 100.5 473.295 100.5C473.002 100.5 472.755 100.407 472.555 100.22C472.355 100.033 472.255 99.7533 472.255 99.38ZM471.135 117.8C470.802 117.8 470.509 117.773 470.255 117.72C470.002 117.68 469.782 117.627 469.595 117.56V116.14C469.795 116.193 470.002 116.24 470.215 116.28C470.429 116.32 470.662 116.34 470.915 116.34C471.342 116.34 471.695 116.22 471.975 115.98C472.255 115.753 472.395 115.313 472.395 114.66V102.28H474.155V114.6C474.155 115.6 473.915 116.38 473.435 116.94C472.955 117.513 472.189 117.8 471.135 117.8ZM481.692 102.08C482.612 102.08 483.398 102.28 484.052 102.68C484.718 103.08 485.225 103.647 485.572 104.38C485.932 105.1 486.112 105.947 486.112 106.92V107.98H478.772C478.798 109.193 479.105 110.12 479.692 110.76C480.292 111.387 481.125 111.7 482.192 111.7C482.872 111.7 483.472 111.64 483.992 111.52C484.525 111.387 485.072 111.2 485.632 110.96V112.5C485.085 112.74 484.545 112.913 484.012 113.02C483.478 113.14 482.845 113.2 482.112 113.2C481.098 113.2 480.198 112.993 479.412 112.58C478.638 112.167 478.032 111.553 477.592 110.74C477.165 109.913 476.952 108.907 476.952 107.72C476.952 106.547 477.145 105.54 477.532 104.7C477.932 103.86 478.485 103.213 479.192 102.76C479.912 102.307 480.745 102.08 481.692 102.08ZM481.672 103.52C480.832 103.52 480.165 103.793 479.672 104.34C479.192 104.873 478.905 105.62 478.812 106.58H484.272C484.258 105.673 484.045 104.94 483.632 104.38C483.218 103.807 482.565 103.52 481.672 103.52ZM492.421 111.76C492.687 111.76 492.961 111.74 493.241 111.7C493.521 111.647 493.747 111.593 493.921 111.54V112.88C493.734 112.973 493.467 113.047 493.121 113.1C492.774 113.167 492.441 113.2 492.121 113.2C491.561 113.2 491.041 113.107 490.561 112.92C490.094 112.72 489.714 112.38 489.421 111.9C489.127 111.42 488.981 110.747 488.981 109.88V103.64H487.461V102.8L489.001 102.1L489.701 99.82H490.741V102.28H493.841V103.64H490.741V109.84C490.741 110.493 490.894 110.98 491.201 111.3C491.521 111.607 491.927 111.76 492.421 111.76Z" fill="#425A76"/>
<line x1="218" y1="119.5" x2="495" y2="119.5" stroke="#425A76"/>
<line x1="115.996" y1="106.5" x2="175.006" y2="106.5" stroke="#B3800F" stroke-width="2"/>
<rect x="1" y="92" width="114" height="31" fill="white" stroke="#B3800F" stroke-width="2"/>
<path d="M40.1207 115H35.534V114.076L37.0274 113.738V103.587L35.534 103.231V102.307H40.1207V103.231L38.6274 103.587V113.738L40.1207 114.076V115ZM46.1806 115.178C45.3391 115.178 44.5865 115.006 43.9228 114.662C43.2709 114.319 42.7554 113.785 42.3761 113.062C42.0087 112.339 41.825 111.415 41.825 110.289C41.825 109.116 42.0206 108.161 42.4117 107.427C42.8028 106.692 43.3302 106.153 43.9939 105.809C44.6694 105.465 45.4339 105.293 46.2872 105.293C46.7731 105.293 47.2413 105.347 47.6917 105.453C48.142 105.548 48.5094 105.667 48.7939 105.809L48.3139 107.107C48.0294 107 47.6976 106.899 47.3183 106.804C46.9391 106.71 46.5835 106.662 46.2517 106.662C44.3791 106.662 43.4428 107.865 43.4428 110.271C43.4428 111.421 43.668 112.304 44.1183 112.92C44.5806 113.524 45.262 113.827 46.1628 113.827C46.6843 113.827 47.1406 113.773 47.5317 113.667C47.9346 113.56 48.302 113.43 48.6339 113.276V114.662C48.3139 114.828 47.9583 114.953 47.5672 115.036C47.188 115.13 46.7257 115.178 46.1806 115.178ZM59.1844 110.218C59.1844 111.794 58.7815 113.015 57.9756 113.88C57.1815 114.745 56.103 115.178 54.74 115.178C53.8985 115.178 53.1459 114.988 52.4822 114.609C51.8304 114.218 51.3148 113.655 50.9356 112.92C50.5563 112.173 50.3667 111.273 50.3667 110.218C50.3667 108.641 50.7637 107.427 51.5578 106.573C52.3518 105.72 53.4304 105.293 54.7933 105.293C55.6585 105.293 56.417 105.489 57.0689 105.88C57.7326 106.259 58.2481 106.816 58.6156 107.551C58.9948 108.274 59.1844 109.163 59.1844 110.218ZM51.9844 110.218C51.9844 111.344 52.2037 112.239 52.6422 112.902C53.0926 113.554 53.8037 113.88 54.7756 113.88C55.7356 113.88 56.4407 113.554 56.8911 112.902C57.3415 112.239 57.5667 111.344 57.5667 110.218C57.5667 109.092 57.3415 108.209 56.8911 107.569C56.4407 106.929 55.7296 106.609 54.7578 106.609C53.7859 106.609 53.0807 106.929 52.6422 107.569C52.2037 108.209 51.9844 109.092 51.9844 110.218ZM55.5578 101.382C55.7 101.643 55.9015 101.939 56.1622 102.271C56.4348 102.591 56.7133 102.911 56.9978 103.231C57.2941 103.539 57.5548 103.806 57.78 104.031V104.227H56.6778C56.3696 104.037 56.0496 103.806 55.7178 103.533C55.3859 103.249 55.06 102.947 54.74 102.627C54.42 102.947 54.1 103.243 53.78 103.516C53.46 103.788 53.1459 104.025 52.8378 104.227H51.7711V104.031C51.9963 103.794 52.2452 103.521 52.5178 103.213C52.8022 102.905 53.0748 102.591 53.3356 102.271C53.5963 101.939 53.8037 101.643 53.9578 101.382H55.5578ZM66.2506 105.293C67.3883 105.293 68.2476 105.572 68.8283 106.129C69.4091 106.674 69.6994 107.563 69.6994 108.796V115H68.1528V108.902C68.1528 107.373 67.4417 106.609 66.0194 106.609C64.9646 106.609 64.2357 106.905 63.8328 107.498C63.4298 108.09 63.2283 108.944 63.2283 110.058V115H61.6639V105.471H62.9261L63.1572 106.769H63.2461C63.5543 106.271 63.9809 105.904 64.5261 105.667C65.0713 105.418 65.6461 105.293 66.2506 105.293ZM76.3335 105.293C77.1513 105.293 77.8505 105.471 78.4313 105.827C79.0238 106.182 79.4742 106.686 79.7824 107.338C80.1024 107.978 80.2624 108.73 80.2624 109.596V110.538H73.7379C73.7616 111.616 74.0342 112.44 74.5557 113.009C75.089 113.566 75.8298 113.844 76.7779 113.844C77.3824 113.844 77.9157 113.791 78.3779 113.684C78.852 113.566 79.3379 113.4 79.8357 113.187V114.556C79.3498 114.769 78.8698 114.923 78.3957 115.018C77.9216 115.124 77.3587 115.178 76.7068 115.178C75.8061 115.178 75.0061 114.994 74.3068 114.627C73.6194 114.259 73.0801 113.714 72.689 112.991C72.3098 112.256 72.1201 111.361 72.1201 110.307C72.1201 109.264 72.292 108.369 72.6357 107.622C72.9913 106.876 73.4831 106.301 74.1113 105.898C74.7513 105.495 75.492 105.293 76.3335 105.293ZM76.3157 106.573C75.569 106.573 74.9764 106.816 74.5379 107.302C74.1113 107.776 73.8564 108.44 73.7735 109.293H78.6268C78.615 108.487 78.4253 107.836 78.0579 107.338C77.6905 106.828 77.1098 106.573 76.3157 106.573Z" fill="black"/>
<line x1="343" y1="85" x2="343" y2="33" stroke="#B3800F" stroke-width="2"/>
<rect x="284" y="1" width="117" height="31" fill="white" stroke="#B3800F" stroke-width="2"/>
<path d="M298.433 24H296.833V12.7111H292.869V11.3067H302.38V12.7111H298.433V24ZM304.881 10.8978C305.118 10.8978 305.325 10.9807 305.503 11.1467C305.692 11.3007 305.787 11.5496 305.787 11.8933C305.787 12.2252 305.692 12.4741 305.503 12.64C305.325 12.8059 305.118 12.8889 304.881 12.8889C304.62 12.8889 304.401 12.8059 304.223 12.64C304.045 12.4741 303.956 12.2252 303.956 11.8933C303.956 11.5496 304.045 11.3007 304.223 11.1467C304.401 10.9807 304.62 10.8978 304.881 10.8978ZM305.645 14.4711V24H304.081V14.4711H305.645ZM311.846 22.8978C312.083 22.8978 312.326 22.88 312.575 22.8444C312.824 22.797 313.025 22.7496 313.179 22.7022V23.8933C313.014 23.9763 312.776 24.0415 312.468 24.0889C312.16 24.1481 311.864 24.1778 311.579 24.1778C311.082 24.1778 310.619 24.0948 310.193 23.9289C309.778 23.7511 309.44 23.4489 309.179 23.0222C308.919 22.5956 308.788 21.997 308.788 21.2267V15.68H307.437V14.9333L308.806 14.3111L309.428 12.2844H310.353V14.4711H313.108V15.68H310.353V21.1911C310.353 21.7719 310.489 22.2044 310.762 22.4889C311.046 22.7615 311.408 22.8978 311.846 22.8978ZM319.532 14.2933C319.71 14.2933 319.899 14.3052 320.101 14.3289C320.314 14.3407 320.498 14.3644 320.652 14.4L320.456 15.84C320.302 15.8044 320.13 15.7748 319.941 15.7511C319.763 15.7274 319.591 15.7156 319.425 15.7156C318.939 15.7156 318.483 15.8519 318.056 16.1244C317.63 16.3852 317.286 16.7585 317.025 17.2444C316.776 17.7185 316.652 18.2756 316.652 18.9156V24H315.088V14.4711H316.368L316.545 16.2133H316.616C316.925 15.6919 317.322 15.2415 317.808 14.8622C318.293 14.483 318.868 14.2933 319.532 14.2933ZM325.764 14.2933C326.582 14.2933 327.281 14.4711 327.862 14.8267C328.454 15.1822 328.905 15.6859 329.213 16.3378C329.533 16.9778 329.693 17.7304 329.693 18.5956V19.5378H323.168C323.192 20.6163 323.465 21.44 323.986 22.0089C324.52 22.5659 325.26 22.8444 326.208 22.8444C326.813 22.8444 327.346 22.7911 327.808 22.6844C328.283 22.5659 328.768 22.4 329.266 22.1867V23.5556C328.78 23.7689 328.3 23.923 327.826 24.0178C327.352 24.1244 326.789 24.1778 326.137 24.1778C325.237 24.1778 324.437 23.9941 323.737 23.6267C323.05 23.2593 322.511 22.7141 322.12 21.9911C321.74 21.2563 321.551 20.3615 321.551 19.3067C321.551 18.2637 321.723 17.3689 322.066 16.6222C322.422 15.8756 322.914 15.3007 323.542 14.8978C324.182 14.4948 324.923 14.2933 325.764 14.2933ZM325.746 15.5733C325 15.5733 324.407 15.8163 323.968 16.3022C323.542 16.7763 323.287 17.44 323.204 18.2933H328.057C328.046 17.4874 327.856 16.8356 327.488 16.3378C327.121 15.8281 326.54 15.5733 325.746 15.5733ZM347.119 17.5289C347.119 19.6741 346.532 21.2919 345.359 22.3822C344.198 23.4607 342.574 24 340.488 24H336.95V11.3067H340.861C342.141 11.3067 343.249 11.5437 344.186 12.0178C345.122 12.4919 345.845 13.1911 346.355 14.1156C346.864 15.0281 347.119 16.1659 347.119 17.5289ZM345.43 17.5822C345.43 15.8874 345.009 14.6489 344.168 13.8667C343.338 13.0726 342.159 12.6756 340.63 12.6756H338.55V22.6311H340.275C343.712 22.6311 345.43 20.9481 345.43 17.5822ZM353.403 14.2933C354.221 14.2933 354.92 14.4711 355.501 14.8267C356.093 15.1822 356.544 15.6859 356.852 16.3378C357.172 16.9778 357.332 17.7304 357.332 18.5956V19.5378H350.807C350.831 20.6163 351.104 21.44 351.625 22.0089C352.158 22.5659 352.899 22.8444 353.847 22.8444C354.452 22.8444 354.985 22.7911 355.447 22.6844C355.921 22.5659 356.407 22.4 356.905 22.1867V23.5556C356.419 23.7689 355.939 23.923 355.465 24.0178C354.991 24.1244 354.428 24.1778 353.776 24.1778C352.876 24.1778 352.076 23.9941 351.376 23.6267C350.689 23.2593 350.15 22.7141 349.758 21.9911C349.379 21.2563 349.19 20.3615 349.19 19.3067C349.19 18.2637 349.361 17.3689 349.705 16.6222C350.061 15.8756 350.553 15.3007 351.181 14.8978C351.821 14.4948 352.561 14.2933 353.403 14.2933ZM353.385 15.5733C352.638 15.5733 352.046 15.8163 351.607 16.3022C351.181 16.7763 350.926 17.44 350.843 18.2933H355.696C355.684 17.4874 355.495 16.8356 355.127 16.3378C354.76 15.8281 354.179 15.5733 353.385 15.5733ZM355.91 10.56C355.767 10.7733 355.548 11.0519 355.252 11.3956C354.956 11.7274 354.636 12.0652 354.292 12.4089C353.96 12.7407 353.652 13.0133 353.367 13.2267H352.336V13.0133C352.514 12.7881 352.704 12.5215 352.905 12.2133C353.118 11.9052 353.326 11.5911 353.527 11.2711C353.729 10.9393 353.895 10.643 354.025 10.3822H355.91V10.56ZM362.94 22.8978C363.177 22.8978 363.42 22.88 363.669 22.8444C363.918 22.797 364.119 22.7496 364.273 22.7022V23.8933C364.107 23.9763 363.87 24.0415 363.562 24.0889C363.254 24.1481 362.958 24.1778 362.673 24.1778C362.175 24.1778 361.713 24.0948 361.287 23.9289C360.872 23.7511 360.534 23.4489 360.273 23.0222C360.012 22.5956 359.882 21.997 359.882 21.2267V15.68H358.531V14.9333L359.9 14.3111L360.522 12.2844H361.447V14.4711H364.202V15.68H361.447V21.1911C361.447 21.7719 361.583 22.2044 361.855 22.4889C362.14 22.7615 362.501 22.8978 362.94 22.8978ZM369.79 14.3111C370.952 14.3111 371.811 14.5659 372.368 15.0756C372.925 15.5852 373.203 16.397 373.203 17.5111V24H372.066L371.763 22.6489H371.692C371.278 23.1704 370.839 23.5556 370.377 23.8044C369.926 24.0533 369.298 24.1778 368.492 24.1778C367.627 24.1778 366.91 23.9526 366.341 23.5022C365.772 23.04 365.488 22.323 365.488 21.3511C365.488 20.403 365.861 19.6741 366.608 19.1644C367.355 18.643 368.504 18.3585 370.057 18.3111L371.675 18.2578V17.6889C371.675 16.8948 371.503 16.3437 371.159 16.0356C370.815 15.7274 370.329 15.5733 369.701 15.5733C369.203 15.5733 368.729 15.6504 368.279 15.8044C367.829 15.9467 367.408 16.1126 367.017 16.3022L366.537 15.1289C366.952 14.9037 367.443 14.7141 368.012 14.56C368.581 14.3941 369.174 14.3111 369.79 14.3111ZM370.252 19.3956C369.067 19.443 368.243 19.6326 367.781 19.9644C367.331 20.2963 367.106 20.7644 367.106 21.3689C367.106 21.9022 367.266 22.2933 367.586 22.5422C367.918 22.7911 368.338 22.9156 368.848 22.9156C369.654 22.9156 370.323 22.6963 370.857 22.2578C371.39 21.8074 371.657 21.12 371.657 20.1956V19.3422L370.252 19.3956ZM376.947 10.8978C377.184 10.8978 377.391 10.9807 377.569 11.1467C377.758 11.3007 377.853 11.5496 377.853 11.8933C377.853 12.2252 377.758 12.4741 377.569 12.64C377.391 12.8059 377.184 12.8889 376.947 12.8889C376.686 12.8889 376.467 12.8059 376.289 12.64C376.111 12.4741 376.022 12.2252 376.022 11.8933C376.022 11.5496 376.111 11.3007 376.289 11.1467C376.467 10.9807 376.686 10.8978 376.947 10.8978ZM377.711 14.4711V24H376.147V14.4711H377.711ZM382.294 24H380.73V10.4889H382.294V24ZM391.518 21.3689C391.518 22.2933 391.174 22.9926 390.487 23.4667C389.799 23.9407 388.875 24.1778 387.713 24.1778C387.049 24.1778 386.475 24.1244 385.989 24.0178C385.515 23.9111 385.094 23.763 384.727 23.5733V22.1511C385.106 22.3407 385.562 22.5185 386.095 22.6844C386.641 22.8385 387.192 22.9156 387.749 22.9156C388.543 22.9156 389.118 22.7911 389.473 22.5422C389.829 22.2815 390.007 21.9378 390.007 21.5111C390.007 21.2741 389.941 21.0607 389.811 20.8711C389.681 20.6815 389.444 20.4919 389.1 20.3022C388.768 20.1126 388.288 19.8993 387.66 19.6622C387.044 19.4252 386.516 19.1881 386.078 18.9511C385.639 18.7141 385.301 18.4296 385.064 18.0978C384.827 17.7659 384.709 17.3393 384.709 16.8178C384.709 16.0119 385.035 15.3896 385.687 14.9511C386.35 14.5126 387.215 14.2933 388.282 14.2933C388.863 14.2933 389.402 14.3526 389.9 14.4711C390.409 14.5778 390.884 14.7319 391.322 14.9333L390.789 16.1778C390.386 16.0119 389.965 15.8696 389.527 15.7511C389.088 15.6326 388.638 15.5733 388.175 15.5733C387.535 15.5733 387.044 15.68 386.7 15.8933C386.368 16.0948 386.202 16.3733 386.202 16.7289C386.202 16.9896 386.279 17.2148 386.433 17.4044C386.587 17.5822 386.842 17.76 387.198 17.9378C387.565 18.1037 388.051 18.3052 388.655 18.5422C389.26 18.7674 389.775 18.9985 390.202 19.2356C390.629 19.4726 390.955 19.763 391.18 20.1067C391.405 20.4385 391.518 20.8593 391.518 21.3689Z" fill="black"/>
<defs>
<clipPath id="clip0_9027_41811">
<rect width="18" height="24" fill="white" transform="translate(182 93)"/>
</clipPath>
</defs>
</svg>
