<svg width="352" height="96" viewBox="0 0 352 96" fill="none" xmlns="http://www.w3.org/2000/svg">
<path d="M53.936 54H47.552V42.576H53.936V43.84H48.992V47.408H53.648V48.656H48.992V52.736H53.936V54ZM60.3786 45.264C61.4026 45.264 62.176 45.5147 62.6986 46.016C63.2213 46.5067 63.4826 47.3067 63.4826 48.416V54H62.0906V48.512C62.0906 47.136 61.4506 46.448 60.1706 46.448C59.2213 46.448 58.5653 46.7147 58.2026 47.248C57.84 47.7813 57.6586 48.5493 57.6586 49.552V54H56.2506V45.424H57.3866L57.5946 46.592H57.6746C57.952 46.144 58.336 45.8133 58.8266 45.6C59.3173 45.376 59.8346 45.264 60.3786 45.264ZM69.1813 45.264C69.7466 45.264 70.2533 45.3707 70.7013 45.584C71.1599 45.7973 71.5493 46.1227 71.8693 46.56H71.9493L72.1413 45.424H73.2613V54.144C73.2613 55.3707 72.9466 56.2933 72.3173 56.912C71.6986 57.5307 70.7333 57.84 69.4213 57.84C68.1626 57.84 67.1333 57.6587 66.3333 57.296V56C67.1759 56.448 68.2319 56.672 69.5013 56.672C70.2373 56.672 70.8133 56.4533 71.2293 56.016C71.6559 55.5893 71.8693 55.0027 71.8693 54.256V53.92C71.8693 53.792 71.8746 53.6107 71.8853 53.376C71.8959 53.1307 71.9066 52.96 71.9173 52.864H71.8533C71.2773 53.728 70.3919 54.16 69.1973 54.16C68.0879 54.16 67.2186 53.7707 66.5893 52.992C65.9706 52.2133 65.6613 51.1253 65.6613 49.728C65.6613 48.3627 65.9706 47.28 66.5893 46.48C67.2186 45.6693 68.0826 45.264 69.1813 45.264ZM69.3733 46.448C68.6586 46.448 68.1039 46.736 67.7093 47.312C67.3146 47.8773 67.1173 48.688 67.1173 49.744C67.1173 50.8 67.3093 51.6107 67.6933 52.176C68.0879 52.7307 68.6586 53.008 69.4053 53.008C70.2693 53.008 70.8986 52.7787 71.2933 52.32C71.6879 51.8507 71.8853 51.0987 71.8853 50.064V49.728C71.8853 48.5547 71.6826 47.7173 71.2773 47.216C70.8719 46.704 70.2373 46.448 69.3733 46.448ZM77.393 54H75.985V41.84H77.393V54ZM80.83 42.208C81.0433 42.208 81.23 42.2827 81.39 42.432C81.5607 42.5707 81.646 42.7947 81.646 43.104C81.646 43.4027 81.5607 43.6267 81.39 43.776C81.23 43.9253 81.0433 44 80.83 44C80.5953 44 80.398 43.9253 80.238 43.776C80.078 43.6267 79.998 43.4027 79.998 43.104C79.998 42.7947 80.078 42.5707 80.238 42.432C80.398 42.2827 80.5953 42.208 80.83 42.208ZM81.518 45.424V54H80.11V45.424H81.518ZM89.819 51.632C89.819 52.464 89.5097 53.0933 88.891 53.52C88.2723 53.9467 87.4403 54.16 86.395 54.16C85.7977 54.16 85.2803 54.112 84.843 54.016C84.4163 53.92 84.0377 53.7867 83.707 53.616V52.336C84.0483 52.5067 84.459 52.6667 84.939 52.816C85.4297 52.9547 85.9257 53.024 86.427 53.024C87.1417 53.024 87.659 52.912 87.979 52.688C88.299 52.4533 88.459 52.144 88.459 51.76C88.459 51.5467 88.4003 51.3547 88.283 51.184C88.1657 51.0133 87.9523 50.8427 87.643 50.672C87.3443 50.5013 86.9123 50.3093 86.347 50.096C85.7923 49.8827 85.3177 49.6693 84.923 49.456C84.5283 49.2427 84.2243 48.9867 84.011 48.688C83.7977 48.3893 83.691 48.0053 83.691 47.536C83.691 46.8107 83.9843 46.2507 84.571 45.856C85.1683 45.4613 85.947 45.264 86.907 45.264C87.4297 45.264 87.915 45.3173 88.363 45.424C88.8217 45.52 89.2483 45.6587 89.643 45.84L89.163 46.96C88.8003 46.8107 88.4217 46.6827 88.027 46.576C87.6323 46.4693 87.227 46.416 86.811 46.416C86.235 46.416 85.7923 46.512 85.483 46.704C85.1843 46.8853 85.035 47.136 85.035 47.456C85.035 47.6907 85.1043 47.8933 85.243 48.064C85.3817 48.224 85.611 48.384 85.931 48.544C86.2617 48.6933 86.699 48.8747 87.243 49.088C87.787 49.2907 88.251 49.4987 88.635 49.712C89.019 49.9253 89.3123 50.1867 89.515 50.496C89.7177 50.7947 89.819 51.1733 89.819 51.632ZM93.2993 45.408C93.2993 45.8347 93.2726 46.2347 93.2193 46.608H93.3153C93.5926 46.1707 93.9659 45.84 94.4353 45.616C94.9153 45.392 95.4326 45.28 95.9873 45.28C97.0326 45.28 97.8166 45.5307 98.3393 46.032C98.8619 46.5227 99.1233 47.3173 99.1233 48.416V54H97.7313V48.512C97.7313 47.136 97.0913 46.448 95.8113 46.448C94.8513 46.448 94.1899 46.72 93.8273 47.264C93.4753 47.7973 93.2993 48.5653 93.2993 49.568V54H91.8913V41.84H93.2993V45.408Z" fill="#284162"/>
<path d="M46 56H65.3359V57H46V56ZM73.9297 56H100.419V57H73.9297V56Z" fill="#284162"/>
<g clip-path="url(#clip0_5534_53402)">
<rect x="123" y="48" width="116" height="1" fill="#C54600"/>
<g clip-path="url(#clip1_5534_53402)">
<rect x="169" y="36" width="24" height="24" rx="12" fill="#C54600"/>
<path d="M182.183 43.2727V52H181.126V44.3807H181.075L178.944 45.7955V44.7216L181.126 43.2727H182.183Z" fill="white"/>
</g>
</g>
<path d="M280.018 55H272.62V42.148H280.018V44.38H275.338V47.206H279.694V49.438H275.338V52.75H280.018V55ZM294.086 55H290.63L285.032 45.28H284.96C284.984 45.892 285.008 46.504 285.032 47.116C285.068 47.728 285.098 48.34 285.122 48.952V55H282.692V42.148H286.13L291.71 51.778H291.764C291.752 51.178 291.734 50.584 291.71 49.996C291.686 49.408 291.662 48.82 291.638 48.232V42.148H294.086V55Z" fill="#284162"/>
<path d="M271 57H295.706V58.5H271V57Z" fill="#284162"/>
<defs>
<clipPath id="clip0_5534_53402">
<rect width="116" height="24" fill="white" transform="translate(123 36)"/>
</clipPath>
<clipPath id="clip1_5534_53402">
<rect x="169" y="36" width="24" height="24" rx="12" fill="white"/>
</clipPath>
</defs>
</svg>
