<svg width="625" height="48" viewBox="0 0 625 48" fill="none" xmlns="http://www.w3.org/2000/svg">
<mask id="path-1-inside-1_9027_41719" fill="white">
<path d="M239 0.799805H625V47.7998H239V0.799805Z"/>
</mask>
<path d="M239 0.799805H625V47.7998H239V0.799805Z" fill="#FBDDDA"/>
<path d="M257.64 31.7998L252.94 19.2798H252.86C252.9 19.6931 252.934 20.2531 252.96 20.9598C252.987 21.6531 253 22.3798 253 23.1398V31.7998H251.34V17.5198H254L258.4 29.2198H258.48L262.96 17.5198H265.6V31.7998H263.82V23.0198C263.82 22.3265 263.834 21.6398 263.86 20.9598C263.9 20.2798 263.934 19.7265 263.96 19.2998H263.88L259.12 31.7998H257.64ZM273.385 20.8798C274.305 20.8798 275.092 21.0798 275.745 21.4798C276.412 21.8798 276.918 22.4465 277.265 23.1798C277.625 23.8998 277.805 24.7465 277.805 25.7198V26.7798H270.465C270.492 27.9931 270.798 28.9198 271.385 29.5598C271.985 30.1865 272.818 30.4998 273.885 30.4998C274.565 30.4998 275.165 30.4398 275.685 30.3198C276.218 30.1865 276.765 29.9998 277.325 29.7598V31.2998C276.778 31.5398 276.238 31.7131 275.705 31.8198C275.172 31.9398 274.538 31.9998 273.805 31.9998C272.792 31.9998 271.892 31.7931 271.105 31.3798C270.332 30.9665 269.725 30.3531 269.285 29.5398C268.858 28.7131 268.645 27.7065 268.645 26.5198C268.645 25.3465 268.838 24.3398 269.225 23.4998C269.625 22.6598 270.178 22.0131 270.885 21.5598C271.605 21.1065 272.438 20.8798 273.385 20.8798ZM273.365 22.3198C272.525 22.3198 271.858 22.5931 271.365 23.1398C270.885 23.6731 270.598 24.4198 270.505 25.3798H275.965C275.952 24.4731 275.738 23.7398 275.325 23.1798C274.912 22.6065 274.258 22.3198 273.365 22.3198ZM287.514 28.8398C287.514 29.8798 287.127 30.6665 286.354 31.1998C285.581 31.7331 284.541 31.9998 283.234 31.9998C282.487 31.9998 281.841 31.9398 281.294 31.8198C280.761 31.6998 280.287 31.5331 279.874 31.3198V29.7198C280.301 29.9331 280.814 30.1331 281.414 30.3198C282.027 30.4931 282.647 30.5798 283.274 30.5798C284.167 30.5798 284.814 30.4398 285.214 30.1598C285.614 29.8665 285.814 29.4798 285.814 28.9998C285.814 28.7331 285.741 28.4931 285.594 28.2798C285.447 28.0665 285.181 27.8531 284.794 27.6398C284.421 27.4265 283.881 27.1865 283.174 26.9198C282.481 26.6531 281.887 26.3865 281.394 26.1198C280.901 25.8531 280.521 25.5331 280.254 25.1598C279.987 24.7865 279.854 24.3065 279.854 23.7198C279.854 22.8131 280.221 22.1131 280.954 21.6198C281.701 21.1265 282.674 20.8798 283.874 20.8798C284.527 20.8798 285.134 20.9465 285.694 21.0798C286.267 21.1998 286.801 21.3731 287.294 21.5998L286.694 22.9998C286.241 22.8131 285.767 22.6531 285.274 22.5198C284.781 22.3865 284.274 22.3198 283.754 22.3198C283.034 22.3198 282.481 22.4398 282.094 22.6798C281.721 22.9065 281.534 23.2198 281.534 23.6198C281.534 23.9131 281.621 24.1665 281.794 24.3798C281.967 24.5798 282.254 24.7798 282.654 24.9798C283.067 25.1665 283.614 25.3931 284.294 25.6598C284.974 25.9131 285.554 26.1731 286.034 26.4398C286.514 26.7065 286.881 27.0331 287.134 27.4198C287.387 27.7931 287.514 28.2665 287.514 28.8398ZM297.084 28.8398C297.084 29.8798 296.698 30.6665 295.924 31.1998C295.151 31.7331 294.111 31.9998 292.804 31.9998C292.058 31.9998 291.411 31.9398 290.864 31.8198C290.331 31.6998 289.858 31.5331 289.444 31.3198V29.7198C289.871 29.9331 290.384 30.1331 290.984 30.3198C291.598 30.4931 292.218 30.5798 292.844 30.5798C293.738 30.5798 294.384 30.4398 294.784 30.1598C295.184 29.8665 295.384 29.4798 295.384 28.9998C295.384 28.7331 295.311 28.4931 295.164 28.2798C295.018 28.0665 294.751 27.8531 294.364 27.6398C293.991 27.4265 293.451 27.1865 292.744 26.9198C292.051 26.6531 291.458 26.3865 290.964 26.1198C290.471 25.8531 290.091 25.5331 289.824 25.1598C289.558 24.7865 289.424 24.3065 289.424 23.7198C289.424 22.8131 289.791 22.1131 290.524 21.6198C291.271 21.1265 292.244 20.8798 293.444 20.8798C294.098 20.8798 294.704 20.9465 295.264 21.0798C295.838 21.1998 296.371 21.3731 296.864 21.5998L296.264 22.9998C295.811 22.8131 295.338 22.6531 294.844 22.5198C294.351 22.3865 293.844 22.3198 293.324 22.3198C292.604 22.3198 292.051 22.4398 291.664 22.6798C291.291 22.9065 291.104 23.2198 291.104 23.6198C291.104 23.9131 291.191 24.1665 291.364 24.3798C291.538 24.5798 291.824 24.7798 292.224 24.9798C292.638 25.1665 293.184 25.3931 293.864 25.6598C294.544 25.9131 295.124 26.1731 295.604 26.4398C296.084 26.7065 296.451 27.0331 296.704 27.4198C296.958 27.7931 297.084 28.2665 297.084 28.8398ZM303.735 20.8998C305.041 20.8998 306.008 21.1865 306.635 21.7598C307.261 22.3331 307.575 23.2465 307.575 24.4998V31.7998H306.295L305.955 30.2798H305.875C305.408 30.8665 304.915 31.2998 304.395 31.5798C303.888 31.8598 303.181 31.9998 302.275 31.9998C301.301 31.9998 300.495 31.7465 299.855 31.2398C299.215 30.7198 298.895 29.9131 298.895 28.8198C298.895 27.7531 299.315 26.9331 300.155 26.3598C300.995 25.7731 302.288 25.4531 304.035 25.3998L305.855 25.3398V24.6998C305.855 23.8065 305.661 23.1865 305.275 22.8398C304.888 22.4931 304.341 22.3198 303.635 22.3198C303.075 22.3198 302.541 22.4065 302.035 22.5798C301.528 22.7398 301.055 22.9265 300.615 23.1398L300.075 21.8198C300.541 21.5665 301.095 21.3531 301.735 21.1798C302.375 20.9931 303.041 20.8998 303.735 20.8998ZM304.255 26.6198C302.921 26.6731 301.995 26.8865 301.475 27.2598C300.968 27.6331 300.715 28.1598 300.715 28.8398C300.715 29.4398 300.895 29.8798 301.255 30.1598C301.628 30.4398 302.101 30.5798 302.675 30.5798C303.581 30.5798 304.335 30.3331 304.935 29.8398C305.535 29.3331 305.835 28.5598 305.835 27.5198V26.5598L304.255 26.6198ZM314.686 20.8798C315.392 20.8798 316.026 21.0131 316.586 21.2798C317.159 21.5465 317.646 21.9531 318.046 22.4998H318.146L318.386 21.0798H319.786V31.9798C319.786 33.5131 319.392 34.6665 318.606 35.4398C317.832 36.2131 316.626 36.5998 314.986 36.5998C313.412 36.5998 312.126 36.3731 311.126 35.9198V34.2998C312.179 34.8598 313.499 35.1398 315.086 35.1398C316.006 35.1398 316.726 34.8665 317.246 34.3198C317.779 33.7865 318.046 33.0531 318.046 32.1198V31.6998C318.046 31.5398 318.052 31.3131 318.066 31.0198C318.079 30.7131 318.092 30.4998 318.106 30.3798H318.026C317.306 31.4598 316.199 31.9998 314.706 31.9998C313.319 31.9998 312.232 31.5131 311.446 30.5398C310.672 29.5665 310.286 28.2065 310.286 26.4598C310.286 24.7531 310.672 23.3998 311.446 22.3998C312.232 21.3865 313.312 20.8798 314.686 20.8798ZM314.926 22.3598C314.032 22.3598 313.339 22.7198 312.846 23.4398C312.352 24.1465 312.106 25.1598 312.106 26.4798C312.106 27.7998 312.346 28.8131 312.826 29.5198C313.319 30.2131 314.032 30.5598 314.966 30.5598C316.046 30.5598 316.832 30.2731 317.326 29.6998C317.819 29.1131 318.066 28.1731 318.066 26.8798V26.4598C318.066 24.9931 317.812 23.9465 317.306 23.3198C316.799 22.6798 316.006 22.3598 314.926 22.3598ZM327.33 20.8798C328.25 20.8798 329.037 21.0798 329.69 21.4798C330.357 21.8798 330.864 22.4465 331.21 23.1798C331.57 23.8998 331.75 24.7465 331.75 25.7198V26.7798H324.41C324.437 27.9931 324.744 28.9198 325.33 29.5598C325.93 30.1865 326.764 30.4998 327.83 30.4998C328.51 30.4998 329.11 30.4398 329.63 30.3198C330.164 30.1865 330.71 29.9998 331.27 29.7598V31.2998C330.724 31.5398 330.184 31.7131 329.65 31.8198C329.117 31.9398 328.484 31.9998 327.75 31.9998C326.737 31.9998 325.837 31.7931 325.05 31.3798C324.277 30.9665 323.67 30.3531 323.23 29.5398C322.804 28.7131 322.59 27.7065 322.59 26.5198C322.59 25.3465 322.784 24.3398 323.17 23.4998C323.57 22.6598 324.124 22.0131 324.83 21.5598C325.55 21.1065 326.384 20.8798 327.33 20.8798ZM327.31 22.3198C326.47 22.3198 325.804 22.5931 325.31 23.1398C324.83 23.6731 324.544 24.4198 324.45 25.3798H329.91C329.897 24.4731 329.684 23.7398 329.27 23.1798C328.857 22.6065 328.204 22.3198 327.31 22.3198ZM343.475 31.9998C342.141 31.9998 341.075 31.5398 340.275 30.6198C339.475 29.6865 339.075 28.2998 339.075 26.4598C339.075 24.6198 339.475 23.2331 340.275 22.2998C341.088 21.3531 342.161 20.8798 343.495 20.8798C344.321 20.8798 344.995 21.0331 345.515 21.3398C346.048 21.6465 346.481 22.0198 346.815 22.4598H346.935C346.921 22.2865 346.895 22.0331 346.855 21.6998C346.828 21.3531 346.815 21.0798 346.815 20.8798V16.5998H348.575V31.7998H347.155L346.895 30.3598H346.815C346.495 30.8131 346.068 31.1998 345.535 31.5198C345.001 31.8398 344.315 31.9998 343.475 31.9998ZM343.755 30.5398C344.888 30.5398 345.681 30.2331 346.135 29.6198C346.601 28.9931 346.835 28.0531 346.835 26.7998V26.4798C346.835 25.1465 346.615 24.1265 346.175 23.4198C345.735 22.6998 344.921 22.3398 343.735 22.3398C342.788 22.3398 342.075 22.7198 341.595 23.4798C341.128 24.2265 340.895 25.2331 340.895 26.4998C340.895 27.7798 341.128 28.7731 341.595 29.4798C342.075 30.1865 342.795 30.5398 343.755 30.5398ZM353.539 17.7398C353.366 18.4331 353.113 19.2131 352.779 20.0798C352.459 20.9331 352.139 21.7131 351.819 22.4198H350.519C350.653 21.9131 350.779 21.3731 350.899 20.7998C351.033 20.2131 351.153 19.6398 351.259 19.0798C351.366 18.5065 351.453 17.9865 351.519 17.5198H353.399L353.539 17.7398ZM358.424 20.8798C359.344 20.8798 360.131 21.0798 360.784 21.4798C361.451 21.8798 361.957 22.4465 362.304 23.1798C362.664 23.8998 362.844 24.7465 362.844 25.7198V26.7798H355.504C355.531 27.9931 355.837 28.9198 356.424 29.5598C357.024 30.1865 357.857 30.4998 358.924 30.4998C359.604 30.4998 360.204 30.4398 360.724 30.3198C361.257 30.1865 361.804 29.9998 362.364 29.7598V31.2998C361.817 31.5398 361.277 31.7131 360.744 31.8198C360.211 31.9398 359.577 31.9998 358.844 31.9998C357.831 31.9998 356.931 31.7931 356.144 31.3798C355.371 30.9665 354.764 30.3531 354.324 29.5398C353.897 28.7131 353.684 27.7065 353.684 26.5198C353.684 25.3465 353.877 24.3398 354.264 23.4998C354.664 22.6598 355.217 22.0131 355.924 21.5598C356.644 21.1065 357.477 20.8798 358.424 20.8798ZM358.404 22.3198C357.564 22.3198 356.897 22.5931 356.404 23.1398C355.924 23.6731 355.637 24.4198 355.544 25.3798H361.004C360.991 24.4731 360.777 23.7398 360.364 23.1798C359.951 22.6065 359.297 22.3198 358.404 22.3198ZM370.573 20.8798C370.773 20.8798 370.986 20.8931 371.213 20.9198C371.453 20.9331 371.66 20.9598 371.833 20.9998L371.613 22.6198C371.44 22.5798 371.246 22.5465 371.033 22.5198C370.833 22.4931 370.64 22.4798 370.453 22.4798C369.906 22.4798 369.393 22.6331 368.913 22.9398C368.433 23.2331 368.046 23.6531 367.753 24.1998C367.473 24.7331 367.333 25.3598 367.333 26.0798V31.7998H365.573V21.0798H367.013L367.213 23.0398H367.293C367.64 22.4531 368.086 21.9465 368.633 21.5198C369.18 21.0931 369.826 20.8798 370.573 20.8798ZM378.835 20.8798C379.035 20.8798 379.248 20.8931 379.475 20.9198C379.715 20.9331 379.921 20.9598 380.095 20.9998L379.875 22.6198C379.701 22.5798 379.508 22.5465 379.295 22.5198C379.095 22.4931 378.901 22.4798 378.715 22.4798C378.168 22.4798 377.655 22.6331 377.175 22.9398C376.695 23.2331 376.308 23.6531 376.015 24.1998C375.735 24.7331 375.595 25.3598 375.595 26.0798V31.7998H373.835V21.0798H375.275L375.475 23.0398H375.555C375.901 22.4531 376.348 21.9465 376.895 21.5198C377.441 21.0931 378.088 20.8798 378.835 20.8798ZM385.846 20.8798C386.766 20.8798 387.553 21.0798 388.206 21.4798C388.873 21.8798 389.379 22.4465 389.726 23.1798C390.086 23.8998 390.266 24.7465 390.266 25.7198V26.7798H382.926C382.953 27.9931 383.259 28.9198 383.846 29.5598C384.446 30.1865 385.279 30.4998 386.346 30.4998C387.026 30.4998 387.626 30.4398 388.146 30.3198C388.679 30.1865 389.226 29.9998 389.786 29.7598V31.2998C389.239 31.5398 388.699 31.7131 388.166 31.8198C387.633 31.9398 386.999 31.9998 386.266 31.9998C385.253 31.9998 384.353 31.7931 383.566 31.3798C382.793 30.9665 382.186 30.3531 381.746 29.5398C381.319 28.7131 381.106 27.7065 381.106 26.5198C381.106 25.3465 381.299 24.3398 381.686 23.4998C382.086 22.6598 382.639 22.0131 383.346 21.5598C384.066 21.1065 384.899 20.8798 385.846 20.8798ZM385.826 22.3198C384.986 22.3198 384.319 22.5931 383.826 23.1398C383.346 23.6731 383.059 24.4198 382.966 25.3798H388.426C388.413 24.4731 388.199 23.7398 387.786 23.1798C387.373 22.6065 386.719 22.3198 385.826 22.3198ZM401.955 21.0798V31.7998H400.515L400.255 30.3798H400.175C399.828 30.9398 399.348 31.3531 398.735 31.6198C398.122 31.8731 397.468 31.9998 396.775 31.9998C395.482 31.9998 394.508 31.6931 393.855 31.0798C393.202 30.4531 392.875 29.4598 392.875 28.0998V21.0798H394.655V27.9798C394.655 29.6865 395.448 30.5398 397.035 30.5398C398.222 30.5398 399.042 30.2065 399.495 29.5398C399.962 28.8731 400.195 27.9131 400.195 26.6598V21.0798H401.955ZM410.358 20.8798C410.558 20.8798 410.772 20.8931 410.998 20.9198C411.238 20.9331 411.445 20.9598 411.618 20.9998L411.398 22.6198C411.225 22.5798 411.032 22.5465 410.818 22.5198C410.618 22.4931 410.425 22.4798 410.238 22.4798C409.692 22.4798 409.178 22.6331 408.698 22.9398C408.218 23.2331 407.832 23.6531 407.538 24.1998C407.258 24.7331 407.118 25.3598 407.118 26.0798V31.7998H405.358V21.0798H406.798L406.998 23.0398H407.078C407.425 22.4531 407.872 21.9465 408.418 21.5198C408.965 21.0931 409.612 20.8798 410.358 20.8798ZM410.157 30.7198C410.157 30.2265 410.277 29.8798 410.517 29.6798C410.757 29.4798 411.043 29.3798 411.377 29.3798C411.723 29.3798 412.017 29.4798 412.257 29.6798C412.51 29.8798 412.637 30.2265 412.637 30.7198C412.637 31.1998 412.51 31.5465 412.257 31.7598C412.017 31.9731 411.723 32.0798 411.377 32.0798C411.043 32.0798 410.757 31.9731 410.517 31.7598C410.277 31.5465 410.157 31.1998 410.157 30.7198Z" fill="black"/>
<path d="M241 47.7998V0.799805H237V47.7998H241Z" fill="#C24438" mask="url(#path-1-inside-1_9027_41719)"/>
<path d="M15.8244 30.5645L11.6467 19.4356H11.5756C11.6111 19.803 11.6407 20.3007 11.6644 20.9289C11.6881 21.5452 11.7 22.1911 11.7 22.8667V30.5645H10.2244V17.8711H12.5889L16.5 28.2711H16.5711L20.5533 17.8711H22.9V30.5645H21.3178V22.76C21.3178 22.1437 21.3296 21.5333 21.3533 20.9289C21.3889 20.3245 21.4185 19.8326 21.4422 19.4533H21.3711L17.14 30.5645H15.8244ZM29.8196 20.8578C30.6374 20.8578 31.3366 21.0356 31.9174 21.3911C32.51 21.7467 32.9603 22.2504 33.2685 22.9022C33.5885 23.5422 33.7485 24.2948 33.7485 25.16V26.1022H27.224C27.2477 27.1807 27.5203 28.0045 28.0418 28.5733C28.5751 29.1304 29.3159 29.4089 30.264 29.4089C30.8685 29.4089 31.4018 29.3556 31.864 29.2489C32.3381 29.1304 32.824 28.9645 33.3218 28.7511V30.12C32.8359 30.3333 32.3559 30.4874 31.8818 30.5822C31.4077 30.6889 30.8448 30.7422 30.1929 30.7422C29.2922 30.7422 28.4922 30.5585 27.7929 30.1911C27.1055 29.8237 26.5663 29.2785 26.1751 28.5556C25.7959 27.8207 25.6063 26.9259 25.6063 25.8711C25.6063 24.8282 25.7781 23.9333 26.1218 23.1867C26.4774 22.44 26.9692 21.8652 27.5974 21.4622C28.2374 21.0593 28.9781 20.8578 29.8196 20.8578ZM29.8018 22.1378C29.0551 22.1378 28.4625 22.3807 28.024 22.8667C27.5974 23.3407 27.3425 24.0045 27.2596 24.8578H32.1129C32.1011 24.0519 31.9114 23.4 31.544 22.9022C31.1766 22.3926 30.5959 22.1378 29.8018 22.1378ZM42.3788 27.9333C42.3788 28.8578 42.035 29.557 41.3476 30.0311C40.6602 30.5052 39.7358 30.7422 38.5743 30.7422C37.9106 30.7422 37.3358 30.6889 36.8499 30.5822C36.3758 30.4756 35.955 30.3274 35.5876 30.1378V28.7156C35.9669 28.9052 36.4232 29.083 36.9565 29.2489C37.5017 29.403 38.0528 29.48 38.6099 29.48C39.4039 29.48 39.9788 29.3556 40.3343 29.1067C40.6899 28.8459 40.8676 28.5022 40.8676 28.0756C40.8676 27.8385 40.8025 27.6252 40.6721 27.4356C40.5417 27.2459 40.3047 27.0563 39.961 26.8667C39.6291 26.677 39.1491 26.4637 38.521 26.2267C37.9047 25.9896 37.3773 25.7526 36.9388 25.5156C36.5002 25.2785 36.1625 24.9941 35.9254 24.6622C35.6884 24.3304 35.5699 23.9037 35.5699 23.3822C35.5699 22.5763 35.8958 21.9541 36.5476 21.5156C37.2113 21.077 38.0765 20.8578 39.1432 20.8578C39.7239 20.8578 40.2632 20.917 40.761 21.0356C41.2706 21.1422 41.7447 21.2963 42.1832 21.4978L41.6499 22.7422C41.2469 22.5763 40.8262 22.4341 40.3876 22.3156C39.9491 22.197 39.4988 22.1378 39.0365 22.1378C38.3965 22.1378 37.9047 22.2445 37.561 22.4578C37.2291 22.6593 37.0632 22.9378 37.0632 23.2933C37.0632 23.5541 37.1402 23.7793 37.2943 23.9689C37.4484 24.1467 37.7032 24.3245 38.0588 24.5022C38.4262 24.6682 38.9121 24.8696 39.5165 25.1067C40.121 25.3319 40.6365 25.563 41.0632 25.8C41.4899 26.037 41.8158 26.3274 42.041 26.6711C42.2662 27.003 42.3788 27.4237 42.3788 27.9333ZM50.8857 27.9333C50.8857 28.8578 50.542 29.557 49.8546 30.0311C49.1672 30.5052 48.2427 30.7422 47.0813 30.7422C46.4175 30.7422 45.8427 30.6889 45.3568 30.5822C44.8827 30.4756 44.462 30.3274 44.0946 30.1378V28.7156C44.4738 28.9052 44.9301 29.083 45.4635 29.2489C46.0087 29.403 46.5598 29.48 47.1168 29.48C47.9109 29.48 48.4857 29.3556 48.8413 29.1067C49.1968 28.8459 49.3746 28.5022 49.3746 28.0756C49.3746 27.8385 49.3094 27.6252 49.179 27.4356C49.0487 27.2459 48.8116 27.0563 48.4679 26.8667C48.1361 26.677 47.6561 26.4637 47.0279 26.2267C46.4116 25.9896 45.8842 25.7526 45.4457 25.5156C45.0072 25.2785 44.6694 24.9941 44.4324 24.6622C44.1953 24.3304 44.0768 23.9037 44.0768 23.3822C44.0768 22.5763 44.4027 21.9541 45.0546 21.5156C45.7183 21.077 46.5835 20.8578 47.6501 20.8578C48.2309 20.8578 48.7701 20.917 49.2679 21.0356C49.7775 21.1422 50.2516 21.2963 50.6901 21.4978L50.1568 22.7422C49.7538 22.5763 49.3331 22.4341 48.8946 22.3156C48.4561 22.197 48.0057 22.1378 47.5435 22.1378C46.9035 22.1378 46.4116 22.2445 46.0679 22.4578C45.7361 22.6593 45.5701 22.9378 45.5701 23.2933C45.5701 23.5541 45.6472 23.7793 45.8013 23.9689C45.9553 24.1467 46.2101 24.3245 46.5657 24.5022C46.9331 24.6682 47.419 24.8696 48.0235 25.1067C48.6279 25.3319 49.1435 25.563 49.5701 25.8C49.9968 26.037 50.3227 26.3274 50.5479 26.6711C50.7731 27.003 50.8857 27.4237 50.8857 27.9333ZM56.7971 20.8756C57.9586 20.8756 58.8178 21.1304 59.3749 21.64C59.9319 22.1496 60.2104 22.9615 60.2104 24.0756V30.5645H59.0726L58.7704 29.2133H58.6993C58.2845 29.7348 57.846 30.12 57.3838 30.3689C56.9334 30.6178 56.3052 30.7422 55.4993 30.7422C54.6341 30.7422 53.9171 30.517 53.3482 30.0667C52.7793 29.6045 52.4949 28.8874 52.4949 27.9156C52.4949 26.9674 52.8682 26.2385 53.6149 25.7289C54.3615 25.2074 55.5112 24.923 57.0638 24.8756L58.6815 24.8222V24.2533C58.6815 23.4593 58.5097 22.9082 58.166 22.6C57.8223 22.2919 57.3363 22.1378 56.7082 22.1378C56.2104 22.1378 55.7363 22.2148 55.286 22.3689C54.8356 22.5111 54.4149 22.677 54.0238 22.8667L53.5438 21.6933C53.9586 21.4682 54.4504 21.2785 55.0193 21.1245C55.5882 20.9585 56.1808 20.8756 56.7971 20.8756ZM57.2593 25.96C56.0741 26.0074 55.2504 26.197 54.7882 26.5289C54.3378 26.8607 54.1126 27.3289 54.1126 27.9333C54.1126 28.4667 54.2726 28.8578 54.5926 29.1067C54.9245 29.3556 55.3452 29.48 55.8549 29.48C56.6608 29.48 57.3304 29.2607 57.8638 28.8222C58.3971 28.3719 58.6638 27.6845 58.6638 26.76V25.9067L57.2593 25.96ZM66.5313 20.8578C67.1594 20.8578 67.7224 20.9763 68.2201 21.2133C68.7298 21.4504 69.1624 21.8119 69.5179 22.2978H69.6068L69.8201 21.0356H71.0646V30.7245C71.0646 32.0874 70.715 33.1126 70.0157 33.8C69.3283 34.4874 68.2557 34.8311 66.7979 34.8311C65.3994 34.8311 64.2557 34.6296 63.3668 34.2267V32.7867C64.3031 33.2845 65.4764 33.5333 66.8868 33.5333C67.7046 33.5333 68.3446 33.2904 68.8068 32.8045C69.2809 32.3304 69.5179 31.6785 69.5179 30.8489V30.4756C69.5179 30.3333 69.5238 30.1319 69.5357 29.8711C69.5476 29.5985 69.5594 29.4089 69.5713 29.3022H69.5001C68.8601 30.2622 67.8764 30.7422 66.549 30.7422C65.3164 30.7422 64.3505 30.3096 63.6513 29.4445C62.9638 28.5793 62.6201 27.3704 62.6201 25.8178C62.6201 24.3007 62.9638 23.0978 63.6513 22.2089C64.3505 21.3082 65.3105 20.8578 66.5313 20.8578ZM66.7446 22.1733C65.9505 22.1733 65.3342 22.4933 64.8957 23.1333C64.4572 23.7615 64.2379 24.6622 64.2379 25.8356C64.2379 27.0089 64.4513 27.9096 64.8779 28.5378C65.3164 29.1541 65.9505 29.4622 66.7801 29.4622C67.7401 29.4622 68.4394 29.2074 68.8779 28.6978C69.3164 28.1763 69.5357 27.3407 69.5357 26.1911V25.8178C69.5357 24.5141 69.3105 23.5837 68.8601 23.0267C68.4098 22.4578 67.7046 22.1733 66.7446 22.1733ZM77.771 20.8578C78.5888 20.8578 79.288 21.0356 79.8688 21.3911C80.4613 21.7467 80.9117 22.2504 81.2199 22.9022C81.5399 23.5422 81.6999 24.2948 81.6999 25.16V26.1022H75.1754C75.1991 27.1807 75.4717 28.0045 75.9932 28.5733C76.5265 29.1304 77.2673 29.4089 78.2154 29.4089C78.8199 29.4089 79.3532 29.3556 79.8154 29.2489C80.2895 29.1304 80.7754 28.9645 81.2732 28.7511V30.12C80.7873 30.3333 80.3073 30.4874 79.8332 30.5822C79.3591 30.6889 78.7962 30.7422 78.1443 30.7422C77.2436 30.7422 76.4436 30.5585 75.7443 30.1911C75.0569 29.8237 74.5176 29.2785 74.1265 28.5556C73.7473 27.8207 73.5576 26.9259 73.5576 25.8711C73.5576 24.8282 73.7295 23.9333 74.0732 23.1867C74.4288 22.44 74.9206 21.8652 75.5488 21.4622C76.1888 21.0593 76.9295 20.8578 77.771 20.8578ZM77.7532 22.1378C77.0065 22.1378 76.4139 22.3807 75.9754 22.8667C75.5488 23.3407 75.2939 24.0045 75.211 24.8578H80.0643C80.0525 24.0519 79.8628 23.4 79.4954 22.9022C79.128 22.3926 78.5473 22.1378 77.7532 22.1378ZM92.1215 30.7422C90.9363 30.7422 89.9882 30.3333 89.2771 29.5156C88.566 28.6859 88.2104 27.4533 88.2104 25.8178C88.2104 24.1822 88.566 22.9496 89.2771 22.12C90.0001 21.2785 90.9541 20.8578 92.1393 20.8578C92.8741 20.8578 93.4726 20.9941 93.9349 21.2667C94.4089 21.5393 94.7941 21.8711 95.0904 22.2622H95.1971C95.1852 22.1082 95.1615 21.883 95.126 21.5867C95.1023 21.2785 95.0904 21.0356 95.0904 20.8578V17.0533H96.6549V30.5645H95.3926L95.1615 29.2845H95.0904C94.806 29.6874 94.4267 30.0311 93.9526 30.3156C93.4786 30.6 92.8682 30.7422 92.1215 30.7422ZM92.3704 29.4445C93.3778 29.4445 94.083 29.1719 94.486 28.6267C94.9008 28.0696 95.1082 27.2341 95.1082 26.12V25.8356C95.1082 24.6504 94.9126 23.7437 94.5215 23.1156C94.1304 22.4756 93.4075 22.1556 92.3526 22.1556C91.5112 22.1556 90.8771 22.4933 90.4504 23.1689C90.0356 23.8326 89.8282 24.7274 89.8282 25.8533C89.8282 26.9911 90.0356 27.8741 90.4504 28.5022C90.8771 29.1304 91.5171 29.4445 92.3704 29.4445ZM101.068 18.0667C100.914 18.683 100.689 19.3763 100.392 20.1467C100.108 20.9052 99.8235 21.5985 99.539 22.2267H98.3835C98.502 21.7763 98.6146 21.2963 98.7213 20.7867C98.8398 20.2652 98.9464 19.7556 99.0413 19.2578C99.1361 18.7482 99.2131 18.2859 99.2724 17.8711H100.943L101.068 18.0667ZM105.41 20.8578C106.228 20.8578 106.927 21.0356 107.508 21.3911C108.1 21.7467 108.551 22.2504 108.859 22.9022C109.179 23.5422 109.339 24.2948 109.339 25.16V26.1022H102.814C102.838 27.1807 103.111 28.0045 103.632 28.5733C104.165 29.1304 104.906 29.4089 105.854 29.4089C106.459 29.4089 106.992 29.3556 107.454 29.2489C107.928 29.1304 108.414 28.9645 108.912 28.7511V30.12C108.426 30.3333 107.946 30.4874 107.472 30.5822C106.998 30.6889 106.435 30.7422 105.783 30.7422C104.882 30.7422 104.082 30.5585 103.383 30.1911C102.696 29.8237 102.157 29.2785 101.765 28.5556C101.386 27.8207 101.197 26.9259 101.197 25.8711C101.197 24.8282 101.368 23.9333 101.712 23.1867C102.068 22.44 102.559 21.8652 103.188 21.4622C103.828 21.0593 104.568 20.8578 105.41 20.8578ZM105.392 22.1378C104.645 22.1378 104.053 22.3807 103.614 22.8667C103.188 23.3407 102.933 24.0045 102.85 24.8578H107.703C107.691 24.0519 107.502 23.4 107.134 22.9022C106.767 22.3926 106.186 22.1378 105.392 22.1378ZM116.209 20.8578C116.387 20.8578 116.576 20.8696 116.778 20.8933C116.991 20.9052 117.175 20.9289 117.329 20.9645L117.133 22.4045C116.979 22.3689 116.808 22.3393 116.618 22.3156C116.44 22.2919 116.268 22.28 116.102 22.28C115.616 22.28 115.16 22.4163 114.733 22.6889C114.307 22.9496 113.963 23.323 113.702 23.8089C113.453 24.283 113.329 24.84 113.329 25.48V30.5645H111.765V21.0356H113.045L113.222 22.7778H113.293C113.602 22.2563 113.999 21.8059 114.485 21.4267C114.971 21.0474 115.545 20.8578 116.209 20.8578ZM123.553 20.8578C123.731 20.8578 123.92 20.8696 124.122 20.8933C124.335 20.9052 124.519 20.9289 124.673 20.9645L124.477 22.4045C124.323 22.3689 124.151 22.3393 123.962 22.3156C123.784 22.2919 123.612 22.28 123.446 22.28C122.96 22.28 122.504 22.4163 122.077 22.6889C121.651 22.9496 121.307 23.323 121.046 23.8089C120.797 24.283 120.673 24.84 120.673 25.48V30.5645H119.108V21.0356H120.388L120.566 22.7778H120.637C120.945 22.2563 121.342 21.8059 121.828 21.4267C122.314 21.0474 122.889 20.8578 123.553 20.8578ZM129.785 20.8578C130.603 20.8578 131.302 21.0356 131.883 21.3911C132.475 21.7467 132.926 22.2504 133.234 22.9022C133.554 23.5422 133.714 24.2948 133.714 25.16V26.1022H127.189C127.213 27.1807 127.486 28.0045 128.007 28.5733C128.54 29.1304 129.281 29.4089 130.229 29.4089C130.834 29.4089 131.367 29.3556 131.829 29.2489C132.303 29.1304 132.789 28.9645 133.287 28.7511V30.12C132.801 30.3333 132.321 30.4874 131.847 30.5822C131.373 30.6889 130.81 30.7422 130.158 30.7422C129.257 30.7422 128.457 30.5585 127.758 30.1911C127.071 29.8237 126.532 29.2785 126.14 28.5556C125.761 27.8207 125.572 26.9259 125.572 25.8711C125.572 24.8282 125.743 23.9333 126.087 23.1867C126.443 22.44 126.934 21.8652 127.563 21.4622C128.203 21.0593 128.943 20.8578 129.785 20.8578ZM129.767 22.1378C129.02 22.1378 128.428 22.3807 127.989 22.8667C127.563 23.3407 127.308 24.0045 127.225 24.8578H132.078C132.066 24.0519 131.877 23.4 131.509 22.9022C131.142 22.3926 130.561 22.1378 129.767 22.1378ZM144.104 21.0356V30.5645H142.824L142.593 29.3022H142.522C142.214 29.8 141.787 30.1674 141.242 30.4045C140.697 30.6296 140.116 30.7422 139.5 30.7422C138.35 30.7422 137.485 30.4696 136.904 29.9245C136.323 29.3674 136.033 28.4845 136.033 27.2756V21.0356H137.615V27.1689C137.615 28.6859 138.32 29.4445 139.731 29.4445C140.786 29.4445 141.514 29.1482 141.917 28.5556C142.332 27.963 142.54 27.1096 142.54 25.9956V21.0356H144.104ZM151.574 20.8578C151.751 20.8578 151.941 20.8696 152.143 20.8933C152.356 20.9052 152.54 20.9289 152.694 20.9645L152.498 22.4045C152.344 22.3689 152.172 22.3393 151.983 22.3156C151.805 22.2919 151.633 22.28 151.467 22.28C150.981 22.28 150.525 22.4163 150.098 22.6889C149.671 22.9496 149.328 23.323 149.067 23.8089C148.818 24.283 148.694 24.84 148.694 25.48V30.5645H147.129V21.0356H148.409L148.587 22.7778H148.658C148.966 22.2563 149.363 21.8059 149.849 21.4267C150.335 21.0474 150.91 20.8578 151.574 20.8578Z" fill="black"/>
<rect x="1.5" y="7.89062" width="159" height="31.3473" stroke="#B3800F" stroke-width="2"/>
<line x1="220" y1="24.5635" x2="160" y2="24.5635" stroke="#B3800F" stroke-width="2"/>
</svg>
