<svg width="725" height="199" viewBox="0 0 725 199" fill="none" xmlns="http://www.w3.org/2000/svg">
<path d="M36.1579 91.9998L43 85.1577L41.4211 83.5788L33 91.9998L41.4211 100.421L43 98.842L36.1579 91.9998Z" fill="#1F497A"/>
<path d="M79.3648 85.72C81.2315 85.72 82.5915 86.1 83.4448 86.86C84.2982 87.6067 84.7248 88.6533 84.7248 90C84.7248 90.6 84.6248 91.1733 84.4248 91.72C84.2382 92.2667 83.9248 92.76 83.4848 93.2C83.0448 93.6267 82.4582 93.9667 81.7248 94.22C81.0048 94.46 80.1182 94.58 79.0648 94.58H77.5248V100H75.3648V85.72H79.3648ZM79.2048 87.54H77.5248V92.76H78.8248C79.6382 92.76 80.3182 92.6733 80.8648 92.5C81.4115 92.3133 81.8182 92.0267 82.0848 91.64C82.3648 91.24 82.5048 90.72 82.5048 90.08C82.5048 89.2267 82.2382 88.5933 81.7048 88.18C81.1848 87.7533 80.3515 87.54 79.2048 87.54ZM92.6909 89.02C92.8776 89.02 93.0843 89.0333 93.3109 89.06C93.5376 89.0733 93.7243 89.0933 93.8709 89.12L93.6509 91.1C93.5043 91.06 93.3309 91.0267 93.1309 91C92.9309 90.9733 92.7443 90.96 92.5709 90.96C92.1709 90.96 91.7843 91.04 91.4109 91.2C91.0509 91.3467 90.7243 91.5667 90.4309 91.86C90.1376 92.14 89.9043 92.4867 89.7309 92.9C89.5709 93.3133 89.4909 93.7867 89.4909 94.32V100H87.3709V89.22H89.0509L89.3309 91.14H89.4109C89.6376 90.7533 89.9109 90.4 90.2309 90.08C90.5509 89.76 90.9176 89.5067 91.3309 89.32C91.7443 89.12 92.1976 89.02 92.6909 89.02ZM99.7164 89.02C100.663 89.02 101.476 89.22 102.156 89.62C102.836 90.0067 103.356 90.5667 103.716 91.3C104.09 92.0333 104.276 92.9 104.276 93.9V95.06H97.0364C97.0631 96.1667 97.3497 97.0133 97.8964 97.6C98.4564 98.1867 99.2364 98.48 100.236 98.48C100.93 98.48 101.543 98.42 102.076 98.3C102.623 98.1667 103.183 97.9733 103.756 97.72V99.48C103.223 99.72 102.676 99.9 102.116 100.02C101.57 100.14 100.916 100.2 100.156 100.2C99.1164 100.2 98.1964 99.9933 97.3964 99.58C96.5964 99.1667 95.9697 98.5533 95.5164 97.74C95.0764 96.9133 94.8564 95.9 94.8564 94.7C94.8564 93.4867 95.0564 92.46 95.4564 91.62C95.8697 90.78 96.4364 90.14 97.1564 89.7C97.8897 89.2467 98.7431 89.02 99.7164 89.02ZM99.7164 90.66C98.9564 90.66 98.3431 90.9067 97.8764 91.4C97.4231 91.8933 97.1564 92.5933 97.0764 93.5H102.156C102.156 92.94 102.07 92.4467 101.896 92.02C101.723 91.5933 101.456 91.26 101.096 91.02C100.736 90.78 100.276 90.66 99.7164 90.66ZM102.916 84.88C102.77 85.0667 102.57 85.2933 102.316 85.56C102.076 85.8267 101.803 86.1067 101.496 86.4C101.203 86.68 100.91 86.9533 100.616 87.22C100.323 87.4733 100.056 87.6933 99.8164 87.88H98.4164V87.64C98.6164 87.3867 98.8431 87.0867 99.0964 86.74C99.3497 86.3933 99.5964 86.04 99.8364 85.68C100.076 85.3067 100.276 84.9733 100.436 84.68H102.916V84.88ZM111.262 100.2C110.275 100.2 109.408 100.007 108.662 99.62C107.915 99.2333 107.335 98.6333 106.922 97.82C106.508 96.9933 106.302 95.9467 106.302 94.68C106.302 93.3467 106.522 92.2667 106.962 91.44C107.415 90.6133 108.022 90.0067 108.782 89.62C109.555 89.22 110.435 89.02 111.422 89.02C112.022 89.02 112.582 89.0867 113.102 89.22C113.635 89.34 114.075 89.48 114.422 89.64L113.782 91.36C113.408 91.2133 113.008 91.0867 112.582 90.98C112.168 90.8733 111.775 90.82 111.402 90.82C110.735 90.82 110.182 90.9667 109.742 91.26C109.315 91.54 108.995 91.9667 108.782 92.54C108.582 93.1 108.482 93.8067 108.482 94.66C108.482 95.4733 108.588 96.16 108.802 96.72C109.015 97.28 109.328 97.7067 109.742 98C110.168 98.28 110.695 98.42 111.322 98.42C111.922 98.42 112.448 98.3533 112.902 98.22C113.355 98.0867 113.782 97.9133 114.182 97.7V99.54C113.795 99.7667 113.375 99.9333 112.922 100.04C112.468 100.147 111.915 100.2 111.262 100.2ZM116.426 98.82C116.426 98.3 116.56 97.9333 116.826 97.72C117.093 97.5067 117.413 97.4 117.786 97.4C118.173 97.4 118.5 97.5067 118.766 97.72C119.033 97.9333 119.166 98.3 119.166 98.82C119.166 99.34 119.033 99.7133 118.766 99.94C118.5 100.167 118.173 100.28 117.786 100.28C117.413 100.28 117.093 100.167 116.826 99.94C116.56 99.7133 116.426 99.34 116.426 98.82Z" fill="#284162"/>
<path d="M73.4648 102.5H120.526V103.5H73.4648V102.5Z" fill="#284162"/>
<path d="M190.377 99.75H188.657V89.77C188.657 89.1967 188.664 88.7367 188.677 88.39C188.691 88.0433 188.711 87.6833 188.737 87.31C188.524 87.5233 188.331 87.7033 188.157 87.85C187.984 87.9967 187.764 88.1833 187.497 88.41L185.977 89.65L185.057 88.47L188.917 85.47H190.377V99.75Z" fill="#26374A"/>
<path d="M183.277 102.25H194.717V103.25H183.277V102.25Z" fill="#26374A"/>
<path d="M245.327 97.24C245.327 96.688 245.477 96.304 245.777 96.088C246.077 95.86 246.443 95.746 246.875 95.746C247.295 95.746 247.655 95.86 247.955 96.088C248.255 96.304 248.405 96.688 248.405 97.24C248.405 97.768 248.255 98.152 247.955 98.392C247.655 98.62 247.295 98.734 246.875 98.734C246.443 98.734 246.077 98.62 245.777 98.392C245.477 98.152 245.327 97.768 245.327 97.24ZM250.46 97.24C250.46 96.688 250.61 96.304 250.91 96.088C251.21 95.86 251.576 95.746 252.008 95.746C252.428 95.746 252.788 95.86 253.088 96.088C253.388 96.304 253.538 96.688 253.538 97.24C253.538 97.768 253.388 98.152 253.088 98.392C252.788 98.62 252.428 98.734 252.008 98.734C251.576 98.734 251.21 98.62 250.91 98.392C250.61 98.152 250.46 97.768 250.46 97.24ZM255.592 97.24C255.592 96.688 255.742 96.304 256.042 96.088C256.342 95.86 256.708 95.746 257.14 95.746C257.56 95.746 257.92 95.86 258.22 96.088C258.52 96.304 258.67 96.688 258.67 97.24C258.67 97.768 258.52 98.152 258.22 98.392C257.92 98.62 257.56 98.734 257.14 98.734C256.708 98.734 256.342 98.62 256.042 98.392C255.742 98.152 255.592 97.768 255.592 97.24Z" fill="#26374A"/>
<path d="M314.977 85.27C316.231 85.27 317.257 85.5633 318.057 86.15C318.857 86.7367 319.257 87.5833 319.257 88.69C319.257 89.2633 319.131 89.7633 318.877 90.19C318.637 90.6167 318.311 90.9967 317.897 91.33C317.484 91.65 317.031 91.9367 316.537 92.19C317.124 92.47 317.657 92.79 318.137 93.15C318.617 93.4967 318.997 93.9033 319.277 94.37C319.571 94.8367 319.717 95.3967 319.717 96.05C319.717 97.25 319.291 98.2033 318.437 98.91C317.597 99.6033 316.464 99.95 315.037 99.95C313.504 99.95 312.324 99.6167 311.497 98.95C310.671 98.27 310.257 97.3233 310.257 96.11C310.257 95.4567 310.391 94.89 310.657 94.41C310.937 93.93 311.304 93.5167 311.757 93.17C312.211 92.8233 312.697 92.53 313.217 92.29C312.524 91.89 311.931 91.41 311.437 90.85C310.957 90.2767 310.717 89.55 310.717 88.67C310.717 87.9367 310.904 87.3233 311.277 86.83C311.651 86.3233 312.157 85.9367 312.797 85.67C313.437 85.4033 314.164 85.27 314.977 85.27ZM314.957 86.69C314.224 86.69 313.617 86.87 313.137 87.23C312.671 87.5767 312.437 88.0833 312.437 88.75C312.437 89.2433 312.551 89.6567 312.777 89.99C313.017 90.3233 313.337 90.61 313.737 90.85C314.137 91.0767 314.577 91.2967 315.057 91.51C315.751 91.2167 316.331 90.8633 316.797 90.45C317.277 90.0367 317.517 89.47 317.517 88.75C317.517 88.0833 317.284 87.5767 316.817 87.23C316.351 86.87 315.731 86.69 314.957 86.69ZM311.977 96.13C311.977 96.8233 312.224 97.4033 312.717 97.87C313.211 98.3233 313.971 98.55 314.997 98.55C315.971 98.55 316.711 98.3233 317.217 97.87C317.737 97.4033 317.997 96.8033 317.997 96.07C317.997 95.3767 317.724 94.8033 317.177 94.35C316.631 93.8833 315.904 93.4767 314.997 93.13L314.677 93.01C313.797 93.3833 313.124 93.8167 312.657 94.31C312.204 94.79 311.977 95.3967 311.977 96.13Z" fill="#26374A"/>
<path d="M309.277 102.25H320.717V103.25H309.277V102.25Z" fill="#26374A"/>
<rect x="354" y="68" width="48" height="48" rx="4" fill="#26374A"/>
<path d="M382.677 91.57C382.677 92.5967 382.584 93.61 382.397 94.61C382.224 95.5967 381.897 96.4967 381.417 97.31C380.951 98.11 380.284 98.75 379.417 99.23C378.564 99.71 377.464 99.95 376.117 99.95C375.851 99.95 375.537 99.93 375.177 99.89C374.831 99.8633 374.544 99.8167 374.317 99.75V98.25C374.837 98.4233 375.424 98.51 376.077 98.51C377.011 98.51 377.777 98.3567 378.377 98.05C378.991 97.7433 379.477 97.33 379.837 96.81C380.197 96.2767 380.457 95.6633 380.617 94.97C380.777 94.2633 380.871 93.5233 380.897 92.75H380.777C380.484 93.2033 380.057 93.5967 379.497 93.93C378.951 94.25 378.244 94.41 377.377 94.41C376.151 94.41 375.157 94.0367 374.397 93.29C373.651 92.53 373.277 91.4633 373.277 90.09C373.277 89.09 373.464 88.23 373.837 87.51C374.224 86.79 374.757 86.2367 375.437 85.85C376.117 85.4633 376.917 85.27 377.837 85.27C378.744 85.27 379.564 85.5033 380.297 85.97C381.031 86.4233 381.611 87.1167 382.037 88.05C382.464 88.97 382.677 90.1433 382.677 91.57ZM377.837 86.75C377.011 86.75 376.331 87.0233 375.797 87.57C375.277 88.1167 375.017 88.95 375.017 90.07C375.017 90.99 375.237 91.7167 375.677 92.25C376.131 92.77 376.824 93.03 377.757 93.03C378.397 93.03 378.951 92.9033 379.417 92.65C379.884 92.3833 380.244 92.05 380.497 91.65C380.764 91.25 380.897 90.8367 380.897 90.41C380.897 89.8367 380.784 89.27 380.557 88.71C380.331 88.15 379.991 87.6833 379.537 87.31C379.084 86.9367 378.517 86.75 377.837 86.75Z" fill="white"/>
<path d="M436.655 99.75H434.935V89.77C434.935 89.1967 434.941 88.7367 434.955 88.39C434.968 88.0433 434.988 87.6833 435.015 87.31C434.801 87.5233 434.608 87.7033 434.435 87.85C434.261 87.9967 434.041 88.1833 433.775 88.41L432.255 89.65L431.335 88.47L435.195 85.47H436.655V99.75ZM451.46 92.59C451.46 94.1233 451.3 95.4433 450.98 96.55C450.66 97.6433 450.153 98.4833 449.46 99.07C448.767 99.6567 447.847 99.95 446.7 99.95C445.087 99.95 443.893 99.3033 443.12 98.01C442.36 96.7033 441.98 94.8967 441.98 92.59C441.98 91.0433 442.133 89.7233 442.44 88.63C442.76 87.5367 443.267 86.7033 443.96 86.13C444.653 85.5433 445.567 85.25 446.7 85.25C448.3 85.25 449.493 85.8967 450.28 87.19C451.067 88.47 451.46 90.27 451.46 92.59ZM443.74 92.59C443.74 94.55 443.96 96.0167 444.4 96.99C444.853 97.9633 445.62 98.45 446.7 98.45C447.767 98.45 448.527 97.97 448.98 97.01C449.447 96.0367 449.68 94.5633 449.68 92.59C449.68 90.6433 449.447 89.1833 448.98 88.21C448.527 87.2367 447.767 86.75 446.7 86.75C445.62 86.75 444.853 87.2367 444.4 88.21C443.96 89.1833 443.74 90.6433 443.74 92.59Z" fill="#26374A"/>
<path d="M429.555 102.25H452.44V103.25H429.555V102.25Z" fill="#26374A"/>
<path d="M497.327 97.24C497.327 96.688 497.477 96.304 497.777 96.088C498.077 95.86 498.443 95.746 498.875 95.746C499.295 95.746 499.655 95.86 499.955 96.088C500.255 96.304 500.405 96.688 500.405 97.24C500.405 97.768 500.255 98.152 499.955 98.392C499.655 98.62 499.295 98.734 498.875 98.734C498.443 98.734 498.077 98.62 497.777 98.392C497.477 98.152 497.327 97.768 497.327 97.24ZM502.46 97.24C502.46 96.688 502.61 96.304 502.91 96.088C503.21 95.86 503.576 95.746 504.008 95.746C504.428 95.746 504.788 95.86 505.088 96.088C505.388 96.304 505.538 96.688 505.538 97.24C505.538 97.768 505.388 98.152 505.088 98.392C504.788 98.62 504.428 98.734 504.008 98.734C503.576 98.734 503.21 98.62 502.91 98.392C502.61 98.152 502.46 97.768 502.46 97.24ZM507.592 97.24C507.592 96.688 507.742 96.304 508.042 96.088C508.342 95.86 508.708 95.746 509.14 95.746C509.56 95.746 509.92 95.86 510.22 96.088C510.52 96.304 510.67 96.688 510.67 97.24C510.67 97.768 510.52 98.152 510.22 98.392C509.92 98.62 509.56 98.734 509.14 98.734C508.708 98.734 508.342 98.62 508.042 98.392C507.742 98.152 507.592 97.768 507.592 97.24Z" fill="#26374A"/>
<path d="M562.655 99.75H560.935V89.77C560.935 89.1967 560.941 88.7367 560.955 88.39C560.968 88.0433 560.988 87.6833 561.015 87.31C560.801 87.5233 560.608 87.7033 560.435 87.85C560.261 87.9967 560.041 88.1833 559.775 88.41L558.255 89.65L557.335 88.47L561.195 85.47H562.655V99.75ZM572.5 90.99C573.967 90.99 575.133 91.3567 576 92.09C576.867 92.8233 577.3 93.8567 577.3 95.19C577.3 96.67 576.827 97.8367 575.88 98.69C574.947 99.53 573.64 99.95 571.96 99.95C571.227 99.95 570.533 99.8833 569.88 99.75C569.24 99.6167 568.7 99.4233 568.26 99.17V97.51C568.74 97.8033 569.32 98.0367 570 98.21C570.693 98.37 571.353 98.45 571.98 98.45C573.033 98.45 573.88 98.2033 574.52 97.71C575.173 97.2033 575.5 96.4233 575.5 95.37C575.5 94.4367 575.213 93.7233 574.64 93.23C574.067 92.7233 573.16 92.47 571.92 92.47C571.547 92.47 571.12 92.5033 570.64 92.57C570.16 92.6367 569.773 92.7033 569.48 92.77L568.6 92.21L569.14 85.47H576.3V87.07H570.64L570.3 91.21C570.527 91.17 570.833 91.1233 571.22 91.07C571.607 91.0167 572.033 90.99 572.5 90.99Z" fill="#26374A"/>
<path d="M555.555 102.25H578.44V103.25H555.555V102.25Z" fill="#26374A"/>
<path d="M628.481 96.14C628.481 96.9933 628.274 97.72 627.861 98.32C627.448 98.92 626.854 99.3867 626.081 99.72C625.308 100.04 624.388 100.2 623.321 100.2C622.801 100.2 622.301 100.167 621.821 100.1C621.341 100.047 620.894 99.9667 620.481 99.86C620.068 99.7533 619.701 99.62 619.381 99.46V97.42C619.914 97.66 620.541 97.88 621.261 98.08C621.981 98.2667 622.714 98.36 623.461 98.36C624.101 98.36 624.634 98.2733 625.061 98.1C625.488 97.9267 625.808 97.6867 626.021 97.38C626.234 97.0733 626.341 96.7133 626.341 96.3C626.341 95.86 626.228 95.4933 626.001 95.2C625.788 94.8933 625.448 94.6133 624.981 94.36C624.528 94.0933 623.914 93.8133 623.141 93.52C622.608 93.32 622.121 93.1 621.681 92.86C621.254 92.6067 620.874 92.3133 620.541 91.98C620.221 91.6467 619.974 91.26 619.801 90.82C619.628 90.38 619.541 89.8667 619.541 89.28C619.541 88.4933 619.734 87.82 620.121 87.26C620.521 86.7 621.068 86.2733 621.761 85.98C622.454 85.6733 623.261 85.52 624.181 85.52C624.954 85.52 625.668 85.6 626.321 85.76C626.988 85.9067 627.621 86.1133 628.221 86.38L627.541 88.16C626.994 87.9333 626.441 87.7467 625.881 87.6C625.321 87.4533 624.734 87.38 624.121 87.38C623.588 87.38 623.141 87.46 622.781 87.62C622.421 87.78 622.148 88 621.961 88.28C621.788 88.56 621.701 88.8867 621.701 89.26C621.701 89.7 621.801 90.0667 622.001 90.36C622.201 90.6533 622.521 90.9267 622.961 91.18C623.401 91.42 623.981 91.6867 624.701 91.98C625.501 92.2867 626.181 92.62 626.741 92.98C627.314 93.34 627.748 93.7733 628.041 94.28C628.334 94.7733 628.481 95.3933 628.481 96.14ZM640.317 89.22V100H638.617L638.317 98.58H638.217C637.99 98.9533 637.697 99.26 637.337 99.5C636.977 99.74 636.584 99.9133 636.157 100.02C635.73 100.14 635.29 100.2 634.837 100.2C633.997 100.2 633.284 100.067 632.697 99.8C632.124 99.52 631.684 99.0933 631.377 98.52C631.084 97.9333 630.937 97.1867 630.937 96.28V89.22H633.077V95.96C633.077 96.8 633.25 97.4267 633.597 97.84C633.957 98.2533 634.51 98.46 635.257 98.46C636.004 98.46 636.59 98.3133 637.017 98.02C637.444 97.7267 637.744 97.3 637.917 96.74C638.104 96.1667 638.197 95.48 638.197 94.68V89.22H640.317ZM645.755 89.22V100H643.635V89.22H645.755ZM644.715 85.12C645.035 85.12 645.315 85.2133 645.555 85.4C645.795 85.5867 645.915 85.9 645.915 86.34C645.915 86.7667 645.795 87.08 645.555 87.28C645.315 87.4667 645.035 87.56 644.715 87.56C644.368 87.56 644.075 87.4667 643.835 87.28C643.608 87.08 643.495 86.7667 643.495 86.34C643.495 85.9 643.608 85.5867 643.835 85.4C644.075 85.2133 644.368 85.12 644.715 85.12ZM651.504 100L647.424 89.22H649.664L651.904 95.52C651.997 95.7867 652.09 96.0867 652.184 96.42C652.29 96.7533 652.384 97.0733 652.464 97.38C652.544 97.6867 652.597 97.9533 652.624 98.18H652.704C652.744 97.9533 652.804 97.6867 652.884 97.38C652.977 97.06 653.077 96.74 653.184 96.42C653.29 96.0867 653.384 95.7867 653.464 95.52L655.704 89.22H657.944L653.844 100H651.504ZM658.51 98.82C658.51 98.3 658.644 97.9333 658.91 97.72C659.177 97.5067 659.497 97.4 659.87 97.4C660.257 97.4 660.584 97.5067 660.85 97.72C661.117 97.9333 661.25 98.3 661.25 98.82C661.25 99.34 661.117 99.7133 660.85 99.94C660.584 100.167 660.257 100.28 659.87 100.28C659.497 100.28 659.177 100.167 658.91 99.94C658.644 99.7133 658.51 99.34 658.51 98.82Z" fill="#284162"/>
<path d="M618.381 102.5H662.61V103.5H618.381V102.5Z" fill="#284162"/>
<path d="M682.842 92.0002L676 98.8423L677.579 100.421L686 92.0002L677.579 83.5791L676 85.158L682.842 92.0002Z" fill="#1F497A"/>
<g clip-path="url(#clip0_7532_7666)">
<rect x="503.2" y="20" width="1" height="65" fill="#C54600"/>
<g clip-path="url(#clip1_7532_7666)">
<rect x="491.2" y="20" width="24" height="24" rx="12" fill="#C54600"/>
<path d="M503.312 37.1392C502.789 37.1359 502.283 37.0481 501.796 36.8757C501.312 36.7034 500.878 36.4233 500.493 36.0355C500.109 35.6477 499.804 35.134 499.579 34.4943C499.357 33.8546 499.246 33.0691 499.246 32.1378C499.249 31.2827 499.347 30.5187 499.539 29.8459C499.734 29.1697 500.013 28.5964 500.374 28.1257C500.739 27.6551 501.175 27.2971 501.682 27.0518C502.189 26.8033 502.757 26.679 503.387 26.679C504.066 26.679 504.666 26.8116 505.187 27.0767C505.707 27.3385 506.125 27.6948 506.439 28.1456C506.758 28.5964 506.95 29.1018 507.016 29.6619H504.893C504.81 29.3073 504.636 29.0289 504.371 28.8267C504.106 28.6245 503.778 28.5234 503.387 28.5234C502.724 28.5234 502.22 28.8118 501.876 29.3885C501.534 29.9652 501.36 30.7491 501.353 31.7401H501.423C501.576 31.4384 501.781 31.1816 502.04 30.9695C502.301 30.754 502.598 30.59 502.929 30.4773C503.264 30.3613 503.617 30.3033 503.988 30.3033C504.592 30.3033 505.129 30.4458 505.599 30.7308C506.07 31.0125 506.441 31.4003 506.713 31.8942C506.985 32.388 507.121 32.9531 507.121 33.5895C507.121 34.2789 506.96 34.892 506.638 35.429C506.32 35.9659 505.874 36.3868 505.301 36.6918C504.731 36.9934 504.068 37.1425 503.312 37.1392ZM503.302 35.4489C503.634 35.4489 503.93 35.3693 504.192 35.2102C504.454 35.0511 504.66 34.8357 504.809 34.5639C504.958 34.2921 505.032 33.9872 505.032 33.6491C505.032 33.3111 504.958 33.0078 504.809 32.7393C504.663 32.4709 504.461 32.2571 504.202 32.098C503.944 31.9389 503.649 31.8594 503.317 31.8594C503.069 31.8594 502.838 31.9058 502.626 31.9986C502.417 32.0914 502.233 32.2206 502.074 32.3864C501.919 32.5521 501.796 32.7443 501.706 32.9631C501.617 33.1785 501.572 33.4089 501.572 33.6541C501.572 33.9822 501.647 34.2822 501.796 34.554C501.948 34.8258 502.154 35.0429 502.412 35.2053C502.674 35.3677 502.971 35.4489 503.302 35.4489Z" fill="white"/>
</g>
</g>
<g clip-path="url(#clip2_7532_7666)">
<rect x="376.2" y="20" width="1" height="48" fill="#C54600"/>
<g clip-path="url(#clip3_7532_7666)">
<rect x="364.2" y="20" width="24" height="24" rx="12" fill="#C54600"/>
<path d="M376.232 37.1392C375.53 37.1392 374.903 37.0099 374.353 36.7514C373.806 36.4929 373.372 36.1366 373.05 35.6825C372.729 35.2285 372.562 34.7081 372.548 34.1214H374.636C374.66 34.5159 374.825 34.8357 375.134 35.081C375.442 35.3262 375.808 35.4489 376.232 35.4489C376.57 35.4489 376.869 35.3743 377.127 35.2251C377.389 35.0727 377.593 34.8622 377.739 34.5938C377.888 34.322 377.962 34.0104 377.962 33.6591C377.962 33.3011 377.886 32.9863 377.734 32.7145C377.585 32.4427 377.377 32.2306 377.112 32.0781C376.847 31.9257 376.544 31.8478 376.202 31.8445C375.904 31.8445 375.614 31.9058 375.332 32.0284C375.054 32.151 374.837 32.3184 374.681 32.5305L372.767 32.1875L373.249 26.8182H379.474V28.5781H375.024L374.761 31.1286H374.82C374.999 30.8767 375.269 30.6679 375.631 30.5021C375.992 30.3364 376.396 30.2536 376.844 30.2536C377.457 30.2536 378.004 30.3977 378.484 30.6861C378.965 30.9744 379.344 31.3705 379.623 31.8743C379.901 32.3748 380.039 32.9515 380.036 33.6044C380.039 34.2905 379.88 34.9003 379.558 35.4339C379.24 35.9643 378.794 36.3819 378.221 36.6868C377.651 36.9884 376.988 37.1392 376.232 37.1392Z" fill="white"/>
</g>
</g>
<g clip-path="url(#clip4_7532_7666)">
<rect x="188.2" y="20" width="1" height="60" fill="#C54600"/>
<g clip-path="url(#clip5_7532_7666)">
<rect x="176.2" y="20" width="24" height="24" rx="12" fill="#C54600"/>
<path d="M184.127 35.2102V33.5149L188.378 26.8182H189.839V29.1648H188.974L186.294 33.4055V33.4851H192.335V35.2102H184.127ZM189.014 37V34.6932L189.054 33.9425V26.8182H191.072V37H189.014Z" fill="white"/>
</g>
</g>
<g clip-path="url(#clip6_7532_7666)">
<rect x="138.8" y="133" width="6" height="1" transform="rotate(-90 138.8 133)" fill="#C54600"/>
<rect x="28.8" y="133" width="1" height="260" transform="rotate(-90 28.8 133)" fill="#C54600"/>
<rect x="84.8" y="177" width="45" height="1" transform="rotate(-90 84.8 177)" fill="#C54600"/>
<rect x="28.8" y="132" width="6" height="1" transform="rotate(-90 28.8 132)" fill="#C54600"/>
<g clip-path="url(#clip7_7532_7666)">
<rect x="72.8" y="179" width="24" height="24" rx="12" transform="rotate(-90 72.8 179)" fill="#C54600"/>
<path d="M86.6302 161.818V172H84.4775V163.862H84.4178L82.0861 165.323V163.414L84.6067 161.818H86.6302Z" fill="white"/>
</g>
</g>
<g clip-path="url(#clip8_7532_7666)">
<rect x="700.8" y="130" width="6" height="1" transform="rotate(-90 700.8 130)" fill="#C54600"/>
<rect x="617.8" y="131" width="1" height="260" transform="rotate(-90 617.8 131)" fill="#C54600"/>
<rect x="659.8" y="175" width="45" height="1" transform="rotate(-90 659.8 175)" fill="#C54600"/>
<rect x="617.8" y="130" width="6" height="1" transform="rotate(-90 617.8 130)" fill="#C54600"/>
<g clip-path="url(#clip9_7532_7666)">
<rect x="647.8" y="177" width="24" height="24" rx="12" transform="rotate(-90 647.8 177)" fill="#C54600"/>
<path d="M659.688 159.679C660.212 159.679 660.716 159.767 661.199 159.942C661.687 160.118 662.121 160.398 662.502 160.783C662.887 161.167 663.19 161.678 663.412 162.314C663.637 162.947 663.752 163.724 663.755 164.646C663.755 165.511 663.657 166.283 663.462 166.962C663.269 167.638 662.993 168.214 662.631 168.688C662.27 169.161 661.834 169.523 661.324 169.771C660.813 170.017 660.243 170.139 659.614 170.139C658.934 170.139 658.334 170.008 657.814 169.746C657.293 169.481 656.874 169.122 656.556 168.668C656.241 168.21 656.051 167.696 655.984 167.126H658.107C658.19 167.498 658.364 167.786 658.629 167.991C658.894 168.194 659.222 168.295 659.614 168.295C660.276 168.295 660.78 168.006 661.125 167.43C661.47 166.85 661.644 166.056 661.647 165.048H661.577C661.425 165.347 661.219 165.603 660.961 165.819C660.702 166.031 660.406 166.195 660.071 166.311C659.74 166.427 659.387 166.485 659.012 166.485C658.412 166.485 657.877 166.344 657.406 166.062C656.936 165.781 656.564 165.393 656.293 164.899C656.021 164.405 655.885 163.842 655.885 163.209C655.882 162.526 656.039 161.918 656.357 161.384C656.675 160.851 657.119 160.433 657.69 160.131C658.263 159.826 658.929 159.676 659.688 159.679ZM659.703 161.369C659.368 161.369 659.07 161.449 658.808 161.608C658.55 161.767 658.344 161.981 658.192 162.249C658.043 162.518 657.97 162.818 657.973 163.149C657.973 163.484 658.046 163.786 658.192 164.054C658.341 164.319 658.543 164.531 658.798 164.69C659.057 164.846 659.352 164.924 659.683 164.924C659.932 164.924 660.162 164.878 660.374 164.785C660.586 164.692 660.77 164.564 660.926 164.402C661.085 164.236 661.209 164.046 661.299 163.83C661.388 163.615 661.433 163.386 661.433 163.144C661.43 162.823 661.354 162.528 661.204 162.259C661.055 161.991 660.85 161.775 660.588 161.613C660.326 161.451 660.031 161.369 659.703 161.369Z" fill="white"/>
</g>
</g>
<g clip-path="url(#clip10_7532_7666)">
<rect x="640.8" y="20" width="1" height="60" fill="#C54600"/>
<g clip-path="url(#clip11_7532_7666)">
<rect x="628.8" y="20" width="24" height="24" rx="12" fill="#C54600"/>
<path d="M637.865 37L642.086 28.6477V28.5781H637.169V26.8182H644.313V28.603L640.087 37H637.865Z" fill="white"/>
</g>
</g>
<g clip-path="url(#clip12_7532_7666)">
<rect x="681.8" y="20" width="1" height="60" fill="#C54600"/>
<g clip-path="url(#clip13_7532_7666)">
<rect x="669.8" y="20" width="24" height="24" rx="12" fill="#C54600"/>
<path d="M681.796 37.1392C681.03 37.1392 680.349 37.0149 679.752 36.7663C679.159 36.5144 678.693 36.1714 678.355 35.7372C678.017 35.303 677.848 34.8108 677.848 34.2607C677.848 33.8364 677.944 33.447 678.137 33.0923C678.332 32.7344 678.597 32.4377 678.932 32.2024C679.267 31.9638 679.641 31.8113 680.056 31.745V31.6754C679.512 31.5661 679.071 31.3026 678.733 30.8849C678.395 30.464 678.226 29.9751 678.226 29.4183C678.226 28.8913 678.38 28.4223 678.688 28.0114C678.997 27.5971 679.419 27.2723 679.956 27.0369C680.496 26.7983 681.11 26.679 681.796 26.679C682.482 26.679 683.093 26.7983 683.63 27.0369C684.17 27.2756 684.595 27.602 684.903 28.0163C685.211 28.4273 685.367 28.8946 685.37 29.4183C685.367 29.9785 685.195 30.4673 684.853 30.8849C684.512 31.3026 684.074 31.5661 683.541 31.6754V31.745C683.948 31.8113 684.318 31.9638 684.649 32.2024C684.984 32.4377 685.249 32.7344 685.445 33.0923C685.644 33.447 685.745 33.8364 685.748 34.2607C685.745 34.8108 685.574 35.303 685.236 35.7372C684.898 36.1714 684.431 36.5144 683.834 36.7663C683.241 37.0149 682.561 37.1392 681.796 37.1392ZM681.796 35.5582C682.137 35.5582 682.435 35.4969 682.691 35.3743C682.946 35.2483 683.145 35.076 683.287 34.8572C683.433 34.6352 683.506 34.38 683.506 34.0916C683.506 33.7966 683.431 33.5365 683.282 33.3111C683.133 33.0824 682.931 32.9034 682.676 32.7741C682.42 32.6416 682.127 32.5753 681.796 32.5753C681.468 32.5753 681.174 32.6416 680.916 32.7741C680.657 32.9034 680.453 33.0824 680.304 33.3111C680.158 33.5365 680.085 33.7966 680.085 34.0916C680.085 34.38 680.157 34.6352 680.299 34.8572C680.442 35.076 680.642 35.2483 680.901 35.3743C681.159 35.4969 681.458 35.5582 681.796 35.5582ZM681.796 31.0092C682.081 31.0092 682.334 30.9512 682.556 30.8352C682.778 30.7192 682.952 30.5585 683.078 30.353C683.204 30.1475 683.267 29.9105 683.267 29.642C683.267 29.3769 683.204 29.1449 683.078 28.946C682.952 28.7438 682.78 28.5864 682.561 28.4737C682.343 28.3577 682.087 28.2997 681.796 28.2997C681.507 28.2997 681.252 28.3577 681.03 28.4737C680.808 28.5864 680.634 28.7438 680.508 28.946C680.385 29.1449 680.324 29.3769 680.324 29.642C680.324 29.9105 680.387 30.1475 680.513 30.353C680.639 30.5585 680.813 30.7192 681.035 30.8352C681.257 30.9512 681.511 31.0092 681.796 31.0092Z" fill="white"/>
</g>
</g>
<g clip-path="url(#clip14_7532_7666)">
<rect x="96.8" y="20" width="1" height="60" fill="#C54600"/>
<g clip-path="url(#clip15_7532_7666)">
<rect x="84.8" y="20" width="24" height="24" rx="12" fill="#C54600"/>
<path d="M96.7745 37.1392C96.0321 37.1392 95.3709 37.0116 94.7908 36.7564C94.2141 36.4979 93.7584 36.1432 93.4237 35.6925C93.0922 35.2384 92.9215 34.7147 92.9116 34.1214H95.0792C95.0925 34.37 95.1737 34.5888 95.3228 34.7777C95.4753 34.9633 95.6774 35.1075 95.9293 35.2102C96.1812 35.313 96.4646 35.3643 96.7795 35.3643C97.1076 35.3643 97.3976 35.3063 97.6495 35.1903C97.9014 35.0743 98.0986 34.9136 98.2411 34.7081C98.3836 34.5026 98.4549 34.2656 98.4549 33.9972C98.4549 33.7254 98.3787 33.4851 98.2262 33.2763C98.0771 33.0642 97.8616 32.8984 97.5799 32.7791C97.3015 32.6598 96.9701 32.6001 96.5856 32.6001H95.636V31.0192H96.5856C96.9104 31.0192 97.1971 30.9628 97.4457 30.8501C97.6976 30.7375 97.8931 30.5817 98.0323 30.3828C98.1715 30.1806 98.2411 29.9453 98.2411 29.6768C98.2411 29.4216 98.1798 29.1979 98.0572 29.0057C97.9379 28.8101 97.7688 28.6577 97.5501 28.5483C97.3346 28.4389 97.0827 28.3842 96.7944 28.3842C96.5027 28.3842 96.2359 28.4373 95.994 28.5433C95.752 28.6461 95.5581 28.7936 95.4123 28.9858C95.2665 29.178 95.1886 29.4034 95.1786 29.6619H93.1154C93.1254 29.0753 93.2927 28.5582 93.6175 28.1108C93.9424 27.6634 94.3799 27.3137 94.93 27.0618C95.4836 26.8066 96.1083 26.679 96.8043 26.679C97.507 26.679 98.1218 26.8066 98.6488 27.0618C99.1758 27.317 99.5851 27.6617 99.8768 28.0959C100.172 28.5268 100.318 29.0107 100.314 29.5476C100.318 30.1177 100.14 30.5933 99.7823 30.9744C99.4277 31.3556 98.9653 31.5975 98.3952 31.7003V31.7798C99.1443 31.8759 99.7144 32.1361 100.105 32.5604C100.5 32.9813 100.695 33.5083 100.692 34.1413C100.695 34.7214 100.528 35.2367 100.19 35.6875C99.8552 36.1383 99.3929 36.4929 98.8029 36.7514C98.213 37.0099 97.5368 37.1392 96.7745 37.1392Z" fill="white"/>
</g>
</g>
<g clip-path="url(#clip16_7532_7666)">
<rect x="37.8" y="20" width="1" height="60" fill="#C54600"/>
<g clip-path="url(#clip17_7532_7666)">
<rect x="25.8" y="20" width="24" height="24" rx="12" fill="#C54600"/>
<path d="M34.2161 37V35.4489L37.8404 32.093C38.1486 31.7947 38.4071 31.5263 38.616 31.2876C38.8281 31.049 38.9888 30.8153 39.0982 30.5866C39.2076 30.3546 39.2623 30.1044 39.2623 29.8359C39.2623 29.5376 39.1943 29.2808 39.0584 29.0653C38.9225 28.8466 38.7369 28.6792 38.5016 28.5632C38.2663 28.4439 37.9995 28.3842 37.7012 28.3842C37.3896 28.3842 37.1178 28.4472 36.8858 28.5732C36.6538 28.6991 36.4749 28.8797 36.3489 29.1151C36.223 29.3504 36.16 29.6304 36.16 29.9553H34.1167C34.1167 29.2891 34.2675 28.7107 34.5691 28.2202C34.8707 27.7296 35.2933 27.3501 35.8368 27.0817C36.3804 26.8132 37.0068 26.679 37.7161 26.679C38.4453 26.679 39.08 26.8082 39.6202 27.0668C40.1638 27.322 40.5864 27.6766 40.888 28.1307C41.1896 28.5848 41.3404 29.1051 41.3404 29.6918C41.3404 30.0762 41.2642 30.4557 41.1117 30.8303C40.9625 31.2048 40.6957 31.6207 40.3113 32.0781C39.9268 32.5322 39.3849 33.0774 38.6856 33.7138L37.199 35.1705V35.2401H41.4746V37H34.2161Z" fill="white"/>
</g>
</g>
<defs>
<clipPath id="clip0_7532_7666">
<rect width="24" height="65" fill="white" transform="translate(491.2 20)"/>
</clipPath>
<clipPath id="clip1_7532_7666">
<rect x="491.2" y="20" width="24" height="24" rx="12" fill="white"/>
</clipPath>
<clipPath id="clip2_7532_7666">
<rect width="24" height="48" fill="white" transform="translate(364.2 20)"/>
</clipPath>
<clipPath id="clip3_7532_7666">
<rect x="364.2" y="20" width="24" height="24" rx="12" fill="white"/>
</clipPath>
<clipPath id="clip4_7532_7666">
<rect width="24" height="60" fill="white" transform="translate(176.2 20)"/>
</clipPath>
<clipPath id="clip5_7532_7666">
<rect x="176.2" y="20" width="24" height="24" rx="12" fill="white"/>
</clipPath>
<clipPath id="clip6_7532_7666">
<rect width="53" height="111" fill="white" transform="matrix(0 -1 1 0 28.8 179)"/>
</clipPath>
<clipPath id="clip7_7532_7666">
<rect x="72.8" y="179" width="24" height="24" rx="12" transform="rotate(-90 72.8 179)" fill="white"/>
</clipPath>
<clipPath id="clip8_7532_7666">
<rect width="53" height="84" fill="white" transform="matrix(0 -1 1 0 617.8 177)"/>
</clipPath>
<clipPath id="clip9_7532_7666">
<rect x="647.8" y="177" width="24" height="24" rx="12" transform="rotate(-90 647.8 177)" fill="white"/>
</clipPath>
<clipPath id="clip10_7532_7666">
<rect width="24" height="60" fill="white" transform="translate(628.8 20)"/>
</clipPath>
<clipPath id="clip11_7532_7666">
<rect x="628.8" y="20" width="24" height="24" rx="12" fill="white"/>
</clipPath>
<clipPath id="clip12_7532_7666">
<rect width="24" height="60" fill="white" transform="translate(669.8 20)"/>
</clipPath>
<clipPath id="clip13_7532_7666">
<rect x="669.8" y="20" width="24" height="24" rx="12" fill="white"/>
</clipPath>
<clipPath id="clip14_7532_7666">
<rect width="24" height="60" fill="white" transform="translate(84.8 20)"/>
</clipPath>
<clipPath id="clip15_7532_7666">
<rect x="84.8" y="20" width="24" height="24" rx="12" fill="white"/>
</clipPath>
<clipPath id="clip16_7532_7666">
<rect width="24" height="60" fill="white" transform="translate(25.8 20)"/>
</clipPath>
<clipPath id="clip17_7532_7666">
<rect x="25.8" y="20" width="24" height="24" rx="12" fill="white"/>
</clipPath>
</defs>
</svg>
