<svg width="338" height="332" viewBox="0 0 338 332" fill="none" xmlns="http://www.w3.org/2000/svg">
<rect width="290" height="332" transform="translate(48)" fill="white"/>
<rect width="290" height="44" transform="translate(48)" fill="white"/>
<path d="M59.44 28V16.576H61.856V26H66.496V28H59.44ZM69.4949 15.84C69.8469 15.84 70.1509 15.9253 70.4069 16.096C70.6629 16.256 70.7909 16.56 70.7909 17.008C70.7909 17.4453 70.6629 17.7493 70.4069 17.92C70.1509 18.0907 69.8469 18.176 69.4949 18.176C69.1322 18.176 68.8229 18.0907 68.5669 17.92C68.3215 17.7493 68.1989 17.4453 68.1989 17.008C68.1989 16.56 68.3215 16.256 68.5669 16.096C68.8229 15.9253 69.1322 15.84 69.4949 15.84ZM70.6789 19.264V28H68.2949V19.264H70.6789ZM76.7699 19.104C77.9752 19.104 78.9299 19.4507 79.6339 20.144C80.3379 20.8267 80.6899 21.8027 80.6899 23.072V24.224H75.0579C75.0792 24.896 75.2765 25.424 75.6499 25.808C76.0339 26.192 76.5619 26.384 77.2339 26.384C77.7992 26.384 78.3112 26.3307 78.7699 26.224C79.2285 26.1067 79.7032 25.9307 80.1939 25.696V27.536C79.7672 27.7493 79.3139 27.904 78.8339 28C78.3645 28.1067 77.7939 28.16 77.1219 28.16C76.2472 28.16 75.4739 28 74.8019 27.68C74.1299 27.3493 73.6019 26.8533 73.2179 26.192C72.8339 25.5307 72.6419 24.6987 72.6419 23.696C72.6419 22.672 72.8125 21.824 73.1539 21.152C73.5059 20.4693 73.9912 19.9573 74.6099 19.616C75.2285 19.2747 75.9485 19.104 76.7699 19.104ZM76.7859 20.8C76.3272 20.8 75.9432 20.9493 75.6339 21.248C75.3352 21.5467 75.1592 22.0107 75.1059 22.64H78.4499C78.4392 22.1067 78.3005 21.6693 78.0339 21.328C77.7672 20.976 77.3512 20.8 76.7859 20.8ZM87.583 19.104C88.5217 19.104 89.2737 19.36 89.839 19.872C90.4043 20.3733 90.687 21.184 90.687 22.304V28H88.303V22.896C88.303 22.2667 88.191 21.7973 87.967 21.488C87.743 21.168 87.3857 21.008 86.895 21.008C86.1697 21.008 85.6737 21.2587 85.407 21.76C85.1403 22.2507 85.007 22.96 85.007 23.888V28H82.623V19.264H84.447L84.767 20.384H84.895C85.1723 19.936 85.551 19.6107 86.031 19.408C86.5217 19.2053 87.039 19.104 87.583 19.104ZM100.063 28.16C99.0922 28.16 98.2975 27.7813 97.6789 27.024C97.0709 26.256 96.7669 25.1307 96.7669 23.648C96.7669 22.1547 97.0762 21.024 97.6949 20.256C98.3135 19.488 99.1242 19.104 100.127 19.104C100.756 19.104 101.274 19.2267 101.679 19.472C102.084 19.7173 102.404 20.0213 102.639 20.384H102.719C102.687 20.2133 102.65 19.968 102.607 19.648C102.564 19.3173 102.543 18.9813 102.543 18.64V15.84H104.927V28H103.103L102.639 26.864H102.543C102.308 27.2267 101.994 27.536 101.599 27.792C101.204 28.0373 100.692 28.16 100.063 28.16ZM100.895 26.256C101.556 26.256 102.02 26.064 102.287 25.68C102.554 25.2853 102.692 24.6987 102.703 23.92V23.664C102.703 22.8107 102.57 22.16 102.303 21.712C102.047 21.264 101.567 21.04 100.863 21.04C100.34 21.04 99.9295 21.2693 99.6309 21.728C99.3322 22.176 99.1829 22.8267 99.1829 23.68C99.1829 24.5333 99.3322 25.1787 99.6309 25.616C99.9295 26.0427 100.351 26.256 100.895 26.256ZM109.388 16.576L109.068 20.704H107.532L107.212 16.576H109.388ZM114.613 19.088C115.787 19.088 116.683 19.344 117.301 19.856C117.931 20.3573 118.245 21.1307 118.245 22.176V28H116.581L116.117 26.816H116.053C115.68 27.2853 115.285 27.6267 114.869 27.84C114.453 28.0533 113.883 28.16 113.157 28.16C112.379 28.16 111.733 27.936 111.221 27.488C110.709 27.0293 110.453 26.3307 110.453 25.392C110.453 24.464 110.779 23.7813 111.429 23.344C112.08 22.896 113.056 22.6507 114.357 22.608L115.877 22.56V22.176C115.877 21.7173 115.755 21.3813 115.509 21.168C115.275 20.9547 114.944 20.848 114.517 20.848C114.091 20.848 113.675 20.912 113.269 21.04C112.864 21.1573 112.459 21.3067 112.053 21.488L111.269 19.872C111.739 19.6267 112.256 19.4347 112.821 19.296C113.397 19.1573 113.995 19.088 114.613 19.088ZM114.949 23.984C114.181 24.0053 113.648 24.144 113.349 24.4C113.051 24.656 112.901 24.992 112.901 25.408C112.901 25.7707 113.008 26.032 113.221 26.192C113.435 26.3413 113.712 26.416 114.053 26.416C114.565 26.416 114.997 26.2667 115.349 25.968C115.701 25.6587 115.877 25.2267 115.877 24.672V23.952L114.949 23.984ZM124.238 28.16C122.936 28.16 121.928 27.8027 121.214 27.088C120.51 26.3627 120.158 25.2267 120.158 23.68C120.158 22.6133 120.339 21.744 120.702 21.072C121.064 20.4 121.566 19.904 122.206 19.584C122.856 19.264 123.603 19.104 124.446 19.104C125.043 19.104 125.56 19.1627 125.998 19.28C126.446 19.3973 126.835 19.536 127.166 19.696L126.462 21.536C126.088 21.3867 125.736 21.264 125.406 21.168C125.086 21.072 124.766 21.024 124.446 21.024C123.208 21.024 122.59 21.904 122.59 23.664C122.59 24.5387 122.75 25.184 123.07 25.6C123.4 26.016 123.859 26.224 124.446 26.224C124.947 26.224 125.39 26.16 125.774 26.032C126.158 25.8933 126.531 25.7067 126.894 25.472V27.504C126.531 27.7387 126.147 27.904 125.742 28C125.347 28.1067 124.846 28.16 124.238 28.16ZM132.456 28.16C131.155 28.16 130.147 27.8027 129.432 27.088C128.728 26.3627 128.376 25.2267 128.376 23.68C128.376 22.6133 128.558 21.744 128.92 21.072C129.283 20.4 129.784 19.904 130.424 19.584C131.075 19.264 131.822 19.104 132.664 19.104C133.262 19.104 133.779 19.1627 134.216 19.28C134.664 19.3973 135.054 19.536 135.384 19.696L134.68 21.536C134.307 21.3867 133.955 21.264 133.624 21.168C133.304 21.072 132.984 21.024 132.664 21.024C131.427 21.024 130.808 21.904 130.808 23.664C130.808 24.5387 130.968 25.184 131.288 25.6C131.619 26.016 132.078 26.224 132.664 26.224C133.166 26.224 133.608 26.16 133.992 26.032C134.376 25.8933 134.75 25.7067 135.112 25.472V27.504C134.75 27.7387 134.366 27.904 133.96 28C133.566 28.1067 133.064 28.16 132.456 28.16ZM145.139 19.264V28H143.315L142.995 26.88H142.867C142.59 27.328 142.206 27.6533 141.715 27.856C141.235 28.0587 140.723 28.16 140.179 28.16C139.24 28.16 138.488 27.9093 137.923 27.408C137.358 26.896 137.075 26.08 137.075 24.96V19.264H139.459V24.368C139.459 24.9867 139.571 25.456 139.795 25.776C140.019 26.096 140.376 26.256 140.867 26.256C141.592 26.256 142.088 26.0107 142.355 25.52C142.622 25.0187 142.755 24.304 142.755 23.376V19.264H145.139ZM151.239 19.104C152.444 19.104 153.399 19.4507 154.103 20.144C154.807 20.8267 155.159 21.8027 155.159 23.072V24.224H149.527C149.548 24.896 149.745 25.424 150.119 25.808C150.503 26.192 151.031 26.384 151.703 26.384C152.268 26.384 152.78 26.3307 153.239 26.224C153.697 26.1067 154.172 25.9307 154.663 25.696V27.536C154.236 27.7493 153.783 27.904 153.303 28C152.833 28.1067 152.263 28.16 151.591 28.16C150.716 28.16 149.943 28 149.271 27.68C148.599 27.3493 148.071 26.8533 147.687 26.192C147.303 25.5307 147.111 24.6987 147.111 23.696C147.111 22.672 147.281 21.824 147.623 21.152C147.975 20.4693 148.46 19.9573 149.079 19.616C149.697 19.2747 150.417 19.104 151.239 19.104ZM151.255 20.8C150.796 20.8 150.412 20.9493 150.103 21.248C149.804 21.5467 149.628 22.0107 149.575 22.64H152.919C152.908 22.1067 152.769 21.6693 152.503 21.328C152.236 20.976 151.82 20.8 151.255 20.8ZM158.292 15.84C158.644 15.84 158.948 15.9253 159.204 16.096C159.46 16.256 159.588 16.56 159.588 17.008C159.588 17.4453 159.46 17.7493 159.204 17.92C158.948 18.0907 158.644 18.176 158.292 18.176C157.929 18.176 157.62 18.0907 157.364 17.92C157.118 17.7493 156.996 17.4453 156.996 17.008C156.996 16.56 157.118 16.256 157.364 16.096C157.62 15.9253 157.929 15.84 158.292 15.84ZM159.476 19.264V28H157.092V19.264H159.476ZM164.351 28H161.967V15.84H164.351V28Z" fill="#333333"/>
<rect width="290" height="40" transform="translate(48 52)" fill="white"/>
<path d="M59.552 78V66.576H60.992V76.72H65.984V78H59.552ZM68.4706 66.208C68.684 66.208 68.8706 66.2827 69.0306 66.432C69.2013 66.5707 69.2866 66.7947 69.2866 67.104C69.2866 67.4027 69.2013 67.6267 69.0306 67.776C68.8706 67.9253 68.684 68 68.4706 68C68.236 68 68.0386 67.9253 67.8786 67.776C67.7186 67.6267 67.6386 67.4027 67.6386 67.104C67.6386 66.7947 67.7186 66.5707 67.8786 66.432C68.0386 66.2827 68.236 66.208 68.4706 66.208ZM69.1586 69.424V78H67.7506V69.424H69.1586ZM75.1876 69.264C75.9236 69.264 76.553 69.424 77.0756 69.744C77.609 70.064 78.0143 70.5173 78.2916 71.104C78.5796 71.68 78.7236 72.3573 78.7236 73.136V73.984H72.8516C72.873 74.9547 73.1183 75.696 73.5876 76.208C74.0676 76.7093 74.7343 76.96 75.5876 76.96C76.1316 76.96 76.6116 76.912 77.0276 76.816C77.4543 76.7093 77.8916 76.56 78.3396 76.368V77.6C77.9023 77.792 77.4703 77.9307 77.0436 78.016C76.617 78.112 76.1103 78.16 75.5236 78.16C74.713 78.16 73.993 77.9947 73.3636 77.664C72.745 77.3333 72.2596 76.8427 71.9076 76.192C71.5663 75.5307 71.3956 74.7253 71.3956 73.776C71.3956 72.8373 71.5503 72.032 71.8596 71.36C72.1796 70.688 72.6223 70.1707 73.1876 69.808C73.7636 69.4453 74.4303 69.264 75.1876 69.264ZM75.1716 70.416C74.4996 70.416 73.9663 70.6347 73.5716 71.072C73.1876 71.4987 72.9583 72.096 72.8836 72.864H77.2516C77.241 72.1387 77.0703 71.552 76.7396 71.104C76.409 70.6453 75.8863 70.416 75.1716 70.416ZM85.0349 69.264C86.0589 69.264 86.8322 69.5147 87.3549 70.016C87.8775 70.5067 88.1389 71.3067 88.1389 72.416V78H86.7469V72.512C86.7469 71.136 86.1069 70.448 84.8269 70.448C83.8775 70.448 83.2215 70.7147 82.8589 71.248C82.4962 71.7813 82.3149 72.5493 82.3149 73.552V78H80.9069V69.424H82.0429L82.2509 70.592H82.3309C82.6082 70.144 82.9922 69.8133 83.4829 69.6C83.9735 69.376 84.4909 69.264 85.0349 69.264ZM97.9938 78.16C96.9271 78.16 96.0738 77.792 95.4338 77.056C94.7938 76.3093 94.4738 75.2 94.4738 73.728C94.4738 72.256 94.7938 71.1467 95.4338 70.4C96.0844 69.6427 96.9431 69.264 98.0098 69.264C98.6711 69.264 99.2098 69.3867 99.6258 69.632C100.052 69.8773 100.399 70.176 100.666 70.528H100.762C100.751 70.3893 100.73 70.1867 100.698 69.92C100.676 69.6427 100.666 69.424 100.666 69.264V65.84H102.074V78H100.938L100.73 76.848H100.666C100.41 77.2107 100.068 77.52 99.6418 77.776C99.2151 78.032 98.6658 78.16 97.9938 78.16ZM98.2178 76.992C99.1244 76.992 99.7591 76.7467 100.122 76.256C100.495 75.7547 100.682 75.0027 100.682 74V73.744C100.682 72.6773 100.506 71.8613 100.154 71.296C99.8018 70.72 99.1511 70.432 98.2018 70.432C97.4444 70.432 96.8738 70.736 96.4898 71.344C96.1164 71.9413 95.9298 72.7467 95.9298 73.76C95.9298 74.784 96.1164 75.5787 96.4898 76.144C96.8738 76.7093 97.4498 76.992 98.2178 76.992ZM108.11 69.264C108.846 69.264 109.475 69.424 109.998 69.744C110.531 70.064 110.936 70.5173 111.214 71.104C111.502 71.68 111.646 72.3573 111.646 73.136V73.984H105.774C105.795 74.9547 106.04 75.696 106.51 76.208C106.99 76.7093 107.656 76.96 108.51 76.96C109.054 76.96 109.534 76.912 109.95 76.816C110.376 76.7093 110.814 76.56 111.262 76.368V77.6C110.824 77.792 110.392 77.9307 109.966 78.016C109.539 78.112 109.032 78.16 108.446 78.16C107.635 78.16 106.915 77.9947 106.286 77.664C105.667 77.3333 105.182 76.8427 104.83 76.192C104.488 75.5307 104.318 74.7253 104.318 73.776C104.318 72.8373 104.472 72.032 104.782 71.36C105.102 70.688 105.544 70.1707 106.11 69.808C106.686 69.4453 107.352 69.264 108.11 69.264ZM108.094 70.416C107.422 70.416 106.888 70.6347 106.494 71.072C106.11 71.4987 105.88 72.096 105.806 72.864H110.174C110.163 72.1387 109.992 71.552 109.662 71.104C109.331 70.6453 108.808 70.416 108.094 70.416ZM122.113 69.264C123.137 69.264 123.91 69.5147 124.433 70.016C124.956 70.5067 125.217 71.3067 125.217 72.416V78H123.825V72.512C123.825 71.136 123.185 70.448 121.905 70.448C120.956 70.448 120.3 70.7147 119.937 71.248C119.574 71.7813 119.393 72.5493 119.393 73.552V78H117.985V69.424H119.121L119.329 70.592H119.409C119.686 70.144 120.07 69.8133 120.561 69.6C121.052 69.376 121.569 69.264 122.113 69.264ZM131.124 69.28C132.169 69.28 132.942 69.5093 133.444 69.968C133.945 70.4267 134.196 71.1573 134.196 72.16V78H133.172L132.9 76.784H132.836C132.462 77.2533 132.068 77.6 131.652 77.824C131.246 78.048 130.681 78.16 129.956 78.16C129.177 78.16 128.532 77.9573 128.02 77.552C127.508 77.136 127.252 76.4907 127.252 75.616C127.252 74.7627 127.588 74.1067 128.26 73.648C128.932 73.1787 129.966 72.9227 131.364 72.88L132.82 72.832V72.32C132.82 71.6053 132.665 71.1093 132.356 70.832C132.046 70.5547 131.609 70.416 131.044 70.416C130.596 70.416 130.169 70.4853 129.764 70.624C129.358 70.752 128.98 70.9013 128.628 71.072L128.196 70.016C128.569 69.8133 129.012 69.6427 129.524 69.504C130.036 69.3547 130.569 69.28 131.124 69.28ZM131.54 73.856C130.473 73.8987 129.732 74.0693 129.316 74.368C128.91 74.6667 128.708 75.088 128.708 75.632C128.708 76.112 128.852 76.464 129.14 76.688C129.438 76.912 129.817 77.024 130.276 77.024C131.001 77.024 131.604 76.8267 132.084 76.432C132.564 76.0267 132.804 75.408 132.804 74.576V73.808L131.54 73.856ZM138.732 78L135.484 69.424H136.988L138.812 74.48C138.898 74.7147 138.988 74.976 139.084 75.264C139.18 75.552 139.266 75.8293 139.34 76.096C139.415 76.352 139.468 76.5707 139.5 76.752H139.564C139.607 76.5707 139.666 76.3467 139.74 76.08C139.826 75.8133 139.916 75.536 140.012 75.248C140.119 74.96 140.21 74.704 140.284 74.48L142.108 69.424H143.612L140.348 78H138.732ZM145.689 66.208C145.903 66.208 146.089 66.2827 146.249 66.432C146.42 66.5707 146.505 66.7947 146.505 67.104C146.505 67.4027 146.42 67.6267 146.249 67.776C146.089 67.9253 145.903 68 145.689 68C145.455 68 145.257 67.9253 145.097 67.776C144.937 67.6267 144.857 67.4027 144.857 67.104C144.857 66.7947 144.937 66.5707 145.097 66.432C145.257 66.2827 145.455 66.208 145.689 66.208ZM146.377 69.424V78H144.969V69.424H146.377ZM152.134 69.264C152.7 69.264 153.206 69.3707 153.654 69.584C154.113 69.7973 154.502 70.1227 154.822 70.56H154.902L155.094 69.424H156.214V78.144C156.214 79.3707 155.9 80.2933 155.27 80.912C154.652 81.5307 153.686 81.84 152.374 81.84C151.116 81.84 150.086 81.6587 149.286 81.296V80C150.129 80.448 151.185 80.672 152.454 80.672C153.19 80.672 153.766 80.4533 154.182 80.016C154.609 79.5893 154.822 79.0027 154.822 78.256V77.92C154.822 77.792 154.828 77.6107 154.838 77.376C154.849 77.1307 154.86 76.96 154.87 76.864H154.806C154.23 77.728 153.345 78.16 152.15 78.16C151.041 78.16 150.172 77.7707 149.542 76.992C148.924 76.2133 148.614 75.1253 148.614 73.728C148.614 72.3627 148.924 71.28 149.542 70.48C150.172 69.6693 151.036 69.264 152.134 69.264ZM152.326 70.448C151.612 70.448 151.057 70.736 150.662 71.312C150.268 71.8773 150.07 72.688 150.07 73.744C150.07 74.8 150.262 75.6107 150.646 76.176C151.041 76.7307 151.612 77.008 152.358 77.008C153.222 77.008 153.852 76.7787 154.246 76.32C154.641 75.8507 154.838 75.0987 154.838 74.064V73.728C154.838 72.5547 154.636 71.7173 154.23 71.216C153.825 70.704 153.19 70.448 152.326 70.448ZM162.186 69.28C163.231 69.28 164.005 69.5093 164.506 69.968C165.007 70.4267 165.258 71.1573 165.258 72.16V78H164.234L163.962 76.784H163.898C163.525 77.2533 163.13 77.6 162.714 77.824C162.309 78.048 161.743 78.16 161.018 78.16C160.239 78.16 159.594 77.9573 159.082 77.552C158.57 77.136 158.314 76.4907 158.314 75.616C158.314 74.7627 158.65 74.1067 159.322 73.648C159.994 73.1787 161.029 72.9227 162.426 72.88L163.882 72.832V72.32C163.882 71.6053 163.727 71.1093 163.418 70.832C163.109 70.5547 162.671 70.416 162.106 70.416C161.658 70.416 161.231 70.4853 160.826 70.624C160.421 70.752 160.042 70.9013 159.69 71.072L159.258 70.016C159.631 69.8133 160.074 69.6427 160.586 69.504C161.098 69.3547 161.631 69.28 162.186 69.28ZM162.602 73.856C161.535 73.8987 160.794 74.0693 160.378 74.368C159.973 74.6667 159.77 75.088 159.77 75.632C159.77 76.112 159.914 76.464 160.202 76.688C160.501 76.912 160.879 77.024 161.338 77.024C162.063 77.024 162.666 76.8267 163.146 76.432C163.626 76.0267 163.866 75.408 163.866 74.576V73.808L162.602 73.856ZM170.771 77.008C170.984 77.008 171.203 76.992 171.427 76.96C171.651 76.9173 171.832 76.8747 171.971 76.832V77.904C171.822 77.9787 171.608 78.0373 171.331 78.08C171.054 78.1333 170.787 78.16 170.531 78.16C170.083 78.16 169.667 78.0853 169.283 77.936C168.91 77.776 168.606 77.504 168.371 77.12C168.136 76.736 168.019 76.1973 168.019 75.504V70.512H166.803V69.84L168.035 69.28L168.595 67.456H169.427V69.424H171.907V70.512H169.427V75.472C169.427 75.9947 169.55 76.384 169.795 76.64C170.051 76.8853 170.376 77.008 170.771 77.008ZM174.408 66.208C174.621 66.208 174.808 66.2827 174.968 66.432C175.139 66.5707 175.224 66.7947 175.224 67.104C175.224 67.4027 175.139 67.6267 174.968 67.776C174.808 67.9253 174.621 68 174.408 68C174.173 68 173.976 67.9253 173.816 67.776C173.656 67.6267 173.576 67.4027 173.576 67.104C173.576 66.7947 173.656 66.5707 173.816 66.432C173.976 66.2827 174.173 66.208 174.408 66.208ZM175.096 69.424V78H173.688V69.424H175.096ZM185.269 73.696C185.269 75.1147 184.906 76.2133 184.181 76.992C183.466 77.7707 182.496 78.16 181.269 78.16C180.512 78.16 179.834 77.9893 179.237 77.648C178.65 77.296 178.186 76.7893 177.845 76.128C177.504 75.456 177.333 74.6453 177.333 73.696C177.333 72.2773 177.69 71.184 178.405 70.416C179.12 69.648 180.09 69.264 181.317 69.264C182.096 69.264 182.778 69.44 183.365 69.792C183.962 70.1333 184.426 70.6347 184.757 71.296C185.098 71.9467 185.269 72.7467 185.269 73.696ZM178.789 73.696C178.789 74.7093 178.986 75.5147 179.381 76.112C179.786 76.6987 180.426 76.992 181.301 76.992C182.165 76.992 182.8 76.6987 183.205 76.112C183.61 75.5147 183.813 74.7093 183.813 73.696C183.813 72.6827 183.61 71.888 183.205 71.312C182.8 70.736 182.16 70.448 181.285 70.448C180.41 70.448 179.776 70.736 179.381 71.312C178.986 71.888 178.789 72.6827 178.789 73.696ZM191.629 69.264C192.653 69.264 193.426 69.5147 193.949 70.016C194.471 70.5067 194.733 71.3067 194.733 72.416V78H193.341V72.512C193.341 71.136 192.701 70.448 191.421 70.448C190.471 70.448 189.815 70.7147 189.453 71.248C189.09 71.7813 188.909 72.5493 188.909 73.552V78H187.501V69.424H188.637L188.845 70.592H188.925C189.202 70.144 189.586 69.8133 190.077 69.6C190.567 69.376 191.085 69.264 191.629 69.264Z" fill="#1F497A"/>
<path d="M58 81.2H148.489V82H58V81.2ZM155.714 81.2H196.029V82H155.714V81.2Z" fill="#1F497A"/>
<mask id="path-3-inside-1_5745_3818" fill="white">
<path d="M48 100H338V140H48V100Z"/>
</mask>
<path d="M48 100H338V140H48V100Z" fill="#D6E4F5"/>
<path d="M48 140H50V100H48H46V140H48Z" fill="#26374A" mask="url(#path-3-inside-1_5745_3818)"/>
<path d="M59.488 126V114.576H61.536V124.272H66.304V126H59.488ZM70.1089 117.328V126H68.0929V117.328H70.1089ZM69.1009 113.984C69.3995 113.984 69.6609 114.064 69.8849 114.224C70.1089 114.373 70.2209 114.645 70.2209 115.04C70.2209 115.424 70.1089 115.701 69.8849 115.872C69.6609 116.032 69.3995 116.112 69.1009 116.112C68.7915 116.112 68.5249 116.032 68.3009 115.872C68.0875 115.701 67.9809 115.424 67.9809 115.04C67.9809 114.645 68.0875 114.373 68.3009 114.224C68.5249 114.064 68.7915 113.984 69.1009 113.984ZM76.1746 117.168C76.9533 117.168 77.62 117.328 78.1746 117.648C78.74 117.957 79.1773 118.405 79.4866 118.992C79.796 119.568 79.9506 120.272 79.9506 121.104V122.128H74.2226C74.244 122.917 74.4626 123.531 74.8786 123.968C75.2946 124.395 75.8706 124.608 76.6066 124.608C77.172 124.608 77.6733 124.555 78.1106 124.448C78.5586 124.331 79.0173 124.165 79.4866 123.952V125.568C79.06 125.771 78.6173 125.92 78.1586 126.016C77.7 126.112 77.1506 126.16 76.5106 126.16C75.668 126.16 74.916 126 74.2546 125.68C73.604 125.349 73.092 124.853 72.7186 124.192C72.356 123.531 72.1746 122.709 72.1746 121.728C72.1746 120.736 72.34 119.904 72.6706 119.232C73.012 118.549 73.4813 118.037 74.0786 117.696C74.676 117.344 75.3746 117.168 76.1746 117.168ZM76.1746 118.656C75.6413 118.656 75.204 118.832 74.8626 119.184C74.532 119.525 74.3346 120.037 74.2706 120.72H77.9986C77.9986 120.315 77.9293 119.957 77.7906 119.648C77.6626 119.339 77.4653 119.099 77.1986 118.928C76.932 118.747 76.5906 118.656 76.1746 118.656ZM86.6235 117.168C87.5942 117.168 88.3515 117.419 88.8955 117.92C89.4502 118.421 89.7275 119.232 89.7275 120.352V126H87.7115V120.752C87.7115 120.101 87.5835 119.616 87.3275 119.296C87.0715 118.965 86.6662 118.8 86.1115 118.8C85.3008 118.8 84.7462 119.056 84.4475 119.568C84.1488 120.069 83.9995 120.8 83.9995 121.76V126H81.9835V117.328H83.5355L83.8235 118.464H83.9355C84.1275 118.165 84.3622 117.92 84.6395 117.728C84.9168 117.536 85.2262 117.397 85.5675 117.312C85.9088 117.216 86.2608 117.168 86.6235 117.168ZM99.2694 126.16C98.2667 126.16 97.4507 125.787 96.8214 125.04C96.2027 124.283 95.8934 123.163 95.8934 121.68C95.8934 120.197 96.208 119.077 96.8374 118.32C97.4667 117.552 98.2934 117.168 99.3174 117.168C99.744 117.168 100.117 117.227 100.437 117.344C100.768 117.451 101.051 117.6 101.285 117.792C101.52 117.984 101.717 118.197 101.877 118.432H101.973C101.941 118.283 101.909 118.053 101.877 117.744C101.845 117.435 101.829 117.147 101.829 116.88V113.84H103.845V126H102.277L101.909 124.864H101.829C101.669 125.099 101.472 125.317 101.237 125.52C101.003 125.712 100.725 125.867 100.405 125.984C100.085 126.101 99.7067 126.16 99.2694 126.16ZM99.8774 124.528C100.624 124.528 101.152 124.315 101.461 123.888C101.771 123.461 101.925 122.816 101.925 121.952V121.696C101.925 120.757 101.776 120.043 101.477 119.552C101.189 119.061 100.645 118.816 99.8454 118.816C99.2374 118.816 98.768 119.072 98.4374 119.584C98.1067 120.085 97.9414 120.795 97.9414 121.712C97.9414 122.629 98.1067 123.328 98.4374 123.808C98.768 124.288 99.248 124.528 99.8774 124.528ZM109.909 117.168C110.688 117.168 111.354 117.328 111.909 117.648C112.474 117.957 112.912 118.405 113.221 118.992C113.53 119.568 113.685 120.272 113.685 121.104V122.128H107.957C107.978 122.917 108.197 123.531 108.613 123.968C109.029 124.395 109.605 124.608 110.341 124.608C110.906 124.608 111.408 124.555 111.845 124.448C112.293 124.331 112.752 124.165 113.221 123.952V125.568C112.794 125.771 112.352 125.92 111.893 126.016C111.434 126.112 110.885 126.16 110.245 126.16C109.402 126.16 108.65 126 107.989 125.68C107.338 125.349 106.826 124.853 106.453 124.192C106.09 123.531 105.909 122.709 105.909 121.728C105.909 120.736 106.074 119.904 106.405 119.232C106.746 118.549 107.216 118.037 107.813 117.696C108.41 117.344 109.109 117.168 109.909 117.168ZM109.909 118.656C109.376 118.656 108.938 118.832 108.597 119.184C108.266 119.525 108.069 120.037 108.005 120.72H111.733C111.733 120.315 111.664 119.957 111.525 119.648C111.397 119.339 111.2 119.099 110.933 118.928C110.666 118.747 110.325 118.656 109.909 118.656ZM124.514 117.168C125.485 117.168 126.242 117.419 126.786 117.92C127.341 118.421 127.618 119.232 127.618 120.352V126H125.602V120.752C125.602 120.101 125.474 119.616 125.218 119.296C124.962 118.965 124.557 118.8 124.002 118.8C123.191 118.8 122.637 119.056 122.338 119.568C122.039 120.069 121.89 120.8 121.89 121.76V126H119.874V117.328H121.426L121.714 118.464H121.826C122.018 118.165 122.253 117.92 122.53 117.728C122.807 117.536 123.117 117.397 123.458 117.312C123.799 117.216 124.151 117.168 124.514 117.168ZM133.596 117.168C134.716 117.168 135.564 117.413 136.14 117.904C136.726 118.384 137.02 119.141 137.02 120.176V126H135.596L135.196 124.8H135.132C134.886 125.109 134.63 125.371 134.364 125.584C134.108 125.787 133.809 125.931 133.468 126.016C133.137 126.112 132.732 126.16 132.252 126.16C131.74 126.16 131.276 126.064 130.86 125.872C130.454 125.68 130.134 125.387 129.9 124.992C129.665 124.587 129.548 124.08 129.548 123.472C129.548 122.576 129.873 121.904 130.524 121.456C131.185 120.997 132.182 120.747 133.516 120.704L135.02 120.656V120.224C135.02 119.669 134.886 119.275 134.62 119.04C134.353 118.805 133.98 118.688 133.5 118.688C133.062 118.688 132.641 118.752 132.236 118.88C131.83 119.008 131.436 119.157 131.052 119.328L130.412 117.92C130.838 117.696 131.324 117.515 131.868 117.376C132.422 117.237 132.998 117.168 133.596 117.168ZM133.964 121.936C133.078 121.968 132.465 122.123 132.124 122.4C131.782 122.667 131.612 123.029 131.612 123.488C131.612 123.893 131.734 124.187 131.98 124.368C132.225 124.549 132.54 124.64 132.924 124.64C133.51 124.64 134.006 124.475 134.412 124.144C134.817 123.803 135.02 123.301 135.02 122.64V121.904L133.964 121.936ZM141.546 126L138.25 117.328H140.378L142.106 122.336C142.181 122.539 142.25 122.763 142.314 123.008C142.378 123.243 142.431 123.477 142.474 123.712C142.527 123.936 142.559 124.133 142.57 124.304H142.634C142.655 124.123 142.693 123.92 142.746 123.696C142.799 123.461 142.858 123.227 142.922 122.992C142.997 122.757 143.066 122.539 143.13 122.336L144.858 117.328H146.986L143.69 126H141.546ZM150.296 117.328V126H148.28V117.328H150.296ZM149.288 113.984C149.587 113.984 149.848 114.064 150.072 114.224C150.296 114.373 150.408 114.645 150.408 115.04C150.408 115.424 150.296 115.701 150.072 115.872C149.848 116.032 149.587 116.112 149.288 116.112C148.979 116.112 148.712 116.032 148.488 115.872C148.275 115.701 148.168 115.424 148.168 115.04C148.168 114.645 148.275 114.373 148.488 114.224C148.712 114.064 148.979 113.984 149.288 113.984ZM155.786 117.168C156.33 117.168 156.821 117.275 157.258 117.488C157.695 117.701 158.063 118.021 158.362 118.448H158.442L158.634 117.328H160.314V126.064C160.314 126.885 160.159 127.573 159.85 128.128C159.541 128.693 159.077 129.12 158.458 129.408C157.839 129.696 157.066 129.84 156.138 129.84C155.519 129.84 154.949 129.797 154.426 129.712C153.903 129.637 153.407 129.504 152.938 129.312V127.648C153.269 127.787 153.61 127.904 153.962 128C154.325 128.107 154.698 128.187 155.082 128.24C155.466 128.293 155.861 128.32 156.266 128.32C156.927 128.32 157.429 128.133 157.77 127.76C158.122 127.387 158.298 126.853 158.298 126.16V125.936C158.298 125.776 158.303 125.589 158.314 125.376C158.335 125.163 158.351 124.992 158.362 124.864H158.298C157.999 125.312 157.637 125.643 157.21 125.856C156.783 126.059 156.293 126.16 155.738 126.16C154.682 126.16 153.855 125.765 153.258 124.976C152.661 124.187 152.362 123.088 152.362 121.68C152.362 120.731 152.495 119.92 152.762 119.248C153.039 118.576 153.434 118.064 153.946 117.712C154.458 117.349 155.071 117.168 155.786 117.168ZM156.314 118.816C155.909 118.816 155.562 118.928 155.274 119.152C154.997 119.365 154.783 119.685 154.634 120.112C154.495 120.539 154.426 121.072 154.426 121.712C154.426 122.651 154.586 123.36 154.906 123.84C155.226 124.32 155.706 124.56 156.346 124.56C156.709 124.56 157.018 124.517 157.274 124.432C157.53 124.336 157.738 124.187 157.898 123.984C158.069 123.771 158.197 123.504 158.282 123.184C158.367 122.853 158.41 122.459 158.41 122V121.696C158.41 121.003 158.335 120.448 158.186 120.032C158.037 119.605 157.807 119.296 157.498 119.104C157.199 118.912 156.805 118.816 156.314 118.816ZM166.346 117.168C167.466 117.168 168.314 117.413 168.89 117.904C169.476 118.384 169.77 119.141 169.77 120.176V126H168.346L167.946 124.8H167.882C167.636 125.109 167.38 125.371 167.114 125.584C166.858 125.787 166.559 125.931 166.218 126.016C165.887 126.112 165.482 126.16 165.002 126.16C164.49 126.16 164.026 126.064 163.61 125.872C163.204 125.68 162.884 125.387 162.65 124.992C162.415 124.587 162.298 124.08 162.298 123.472C162.298 122.576 162.623 121.904 163.274 121.456C163.935 120.997 164.932 120.747 166.266 120.704L167.77 120.656V120.224C167.77 119.669 167.636 119.275 167.37 119.04C167.103 118.805 166.73 118.688 166.25 118.688C165.812 118.688 165.391 118.752 164.986 118.88C164.58 119.008 164.186 119.157 163.802 119.328L163.162 117.92C163.588 117.696 164.074 117.515 164.618 117.376C165.172 117.237 165.748 117.168 166.346 117.168ZM166.714 121.936C165.828 121.968 165.215 122.123 164.874 122.4C164.532 122.667 164.362 123.029 164.362 123.488C164.362 123.893 164.484 124.187 164.73 124.368C164.975 124.549 165.29 124.64 165.674 124.64C166.26 124.64 166.756 124.475 167.162 124.144C167.567 123.803 167.77 123.301 167.77 122.64V121.904L166.714 121.936ZM175.656 124.544C175.912 124.544 176.157 124.523 176.392 124.48C176.627 124.427 176.845 124.368 177.048 124.304V125.808C176.835 125.904 176.557 125.984 176.216 126.048C175.875 126.123 175.517 126.16 175.144 126.16C174.653 126.16 174.205 126.08 173.8 125.92C173.405 125.749 173.085 125.461 172.84 125.056C172.605 124.651 172.488 124.085 172.488 123.36V118.848H171.32V117.968L172.6 117.264L173.24 115.424H174.504V117.328H176.968V118.848H174.504V123.344C174.504 123.749 174.611 124.053 174.824 124.256C175.037 124.448 175.315 124.544 175.656 124.544ZM180.812 117.328V126H178.796V117.328H180.812ZM179.804 113.984C180.103 113.984 180.364 114.064 180.588 114.224C180.812 114.373 180.924 114.645 180.924 115.04C180.924 115.424 180.812 115.701 180.588 115.872C180.364 116.032 180.103 116.112 179.804 116.112C179.495 116.112 179.228 116.032 179.004 115.872C178.791 115.701 178.684 115.424 178.684 115.04C178.684 114.645 178.791 114.373 179.004 114.224C179.228 114.064 179.495 113.984 179.804 113.984ZM191.134 121.648C191.134 122.373 191.038 123.013 190.846 123.568C190.654 124.123 190.376 124.597 190.014 124.992C189.662 125.376 189.224 125.669 188.702 125.872C188.19 126.064 187.619 126.16 186.99 126.16C186.392 126.16 185.843 126.064 185.342 125.872C184.84 125.669 184.403 125.376 184.03 124.992C183.667 124.597 183.384 124.123 183.182 123.568C182.979 123.013 182.878 122.373 182.878 121.648C182.878 120.688 183.043 119.877 183.374 119.216C183.704 118.544 184.179 118.037 184.798 117.696C185.427 117.344 186.168 117.168 187.022 117.168C187.832 117.168 188.542 117.344 189.15 117.696C189.768 118.037 190.254 118.544 190.606 119.216C190.958 119.877 191.134 120.688 191.134 121.648ZM184.942 121.648C184.942 122.256 185.011 122.779 185.15 123.216C185.299 123.643 185.523 123.968 185.822 124.192C186.131 124.416 186.526 124.528 187.006 124.528C187.496 124.528 187.891 124.416 188.19 124.192C188.499 123.968 188.723 123.643 188.862 123.216C189 122.779 189.07 122.256 189.07 121.648C189.07 121.029 188.995 120.512 188.846 120.096C188.707 119.669 188.483 119.349 188.174 119.136C187.875 118.912 187.486 118.8 187.006 118.8C186.28 118.8 185.752 119.045 185.422 119.536C185.102 120.027 184.942 120.731 184.942 121.648ZM197.858 117.168C198.829 117.168 199.586 117.419 200.13 117.92C200.685 118.421 200.962 119.232 200.962 120.352V126H198.946V120.752C198.946 120.101 198.818 119.616 198.562 119.296C198.306 118.965 197.901 118.8 197.346 118.8C196.535 118.8 195.981 119.056 195.682 119.568C195.383 120.069 195.234 120.8 195.234 121.76V126H193.218V117.328H194.77L195.058 118.464H195.17C195.362 118.165 195.597 117.92 195.874 117.728C196.151 117.536 196.461 117.397 196.802 117.312C197.143 117.216 197.495 117.168 197.858 117.168Z" fill="#26374A"/>
<rect width="290" height="40" transform="translate(48 148)" fill="white"/>
<path d="M64 170.406L69.6875 164.719L71 166.031L64 173.031L57 166.031L58.3125 164.719L64 170.406Z" fill="#595959"/>
<path d="M84.864 162.576C85.8347 162.576 86.6453 162.667 87.296 162.848C87.9573 163.029 88.4533 163.333 88.784 163.76C89.1253 164.176 89.296 164.731 89.296 165.424C89.296 165.872 89.216 166.272 89.056 166.624C88.896 166.965 88.6613 167.253 88.352 167.488C88.0533 167.712 87.68 167.861 87.232 167.936V168.016C87.6907 168.091 88.1013 168.229 88.464 168.432C88.8267 168.624 89.1147 168.907 89.328 169.28C89.5413 169.653 89.648 170.139 89.648 170.736C89.648 171.429 89.4827 172.021 89.152 172.512C88.832 172.992 88.368 173.36 87.76 173.616C87.1627 173.872 86.448 174 85.616 174H81.52V162.576H84.864ZM85.152 167.344C86.048 167.344 86.6613 167.2 86.992 166.912C87.3333 166.624 87.504 166.197 87.504 165.632C87.504 165.056 87.3013 164.645 86.896 164.4C86.4907 164.155 85.8453 164.032 84.96 164.032H83.248V167.344H85.152ZM83.248 168.752V172.56H85.344C86.272 172.56 86.9173 172.379 87.28 172.016C87.6427 171.653 87.824 171.173 87.824 170.576C87.824 170.213 87.744 169.893 87.584 169.616C87.424 169.339 87.152 169.125 86.768 168.976C86.3947 168.827 85.8827 168.752 85.232 168.752H83.248ZM95.172 165.216C96.26 165.216 97.0707 165.456 97.604 165.936C98.1373 166.405 98.404 167.147 98.404 168.16V174H97.204L96.868 172.8H96.804C96.5587 173.109 96.3027 173.365 96.036 173.568C95.78 173.771 95.4813 173.92 95.14 174.016C94.8093 174.112 94.404 174.16 93.924 174.16C93.412 174.16 92.948 174.069 92.532 173.888C92.1267 173.696 91.8067 173.408 91.572 173.024C91.3373 172.629 91.22 172.139 91.22 171.552C91.22 170.677 91.5507 170.011 92.212 169.552C92.884 169.093 93.9027 168.843 95.268 168.8L96.74 168.752V168.272C96.74 167.632 96.596 167.184 96.308 166.928C96.02 166.672 95.6147 166.544 95.092 166.544C94.644 166.544 94.2173 166.608 93.812 166.736C93.4067 166.864 93.0227 167.019 92.66 167.2L92.116 165.968C92.5213 165.755 92.9853 165.579 93.508 165.44C94.0413 165.291 94.596 165.216 95.172 165.216ZM95.572 169.888C94.5907 169.931 93.908 170.096 93.524 170.384C93.1507 170.661 92.964 171.056 92.964 171.568C92.964 172.016 93.0973 172.341 93.364 172.544C93.6413 172.747 93.988 172.848 94.404 172.848C95.076 172.848 95.6307 172.661 96.068 172.288C96.5053 171.915 96.724 171.355 96.724 170.608V169.856L95.572 169.888ZM106.744 171.568C106.744 172.133 106.605 172.608 106.328 172.992C106.05 173.376 105.65 173.669 105.128 173.872C104.605 174.064 103.976 174.16 103.24 174.16C102.632 174.16 102.109 174.112 101.672 174.016C101.245 173.931 100.85 173.803 100.488 173.632V172.144C100.872 172.325 101.314 172.491 101.816 172.64C102.317 172.779 102.808 172.848 103.288 172.848C103.928 172.848 104.386 172.747 104.664 172.544C104.952 172.341 105.096 172.069 105.096 171.728C105.096 171.536 105.042 171.365 104.936 171.216C104.829 171.056 104.626 170.896 104.328 170.736C104.04 170.565 103.613 170.373 103.048 170.16C102.504 169.936 102.04 169.717 101.656 169.504C101.272 169.28 100.978 169.019 100.776 168.72C100.573 168.411 100.472 168.016 100.472 167.536C100.472 166.789 100.77 166.219 101.368 165.824C101.976 165.419 102.776 165.216 103.768 165.216C104.29 165.216 104.781 165.269 105.24 165.376C105.709 165.472 106.162 165.621 106.6 165.824L106.04 167.12C105.794 167.003 105.538 166.907 105.272 166.832C105.016 166.747 104.754 166.677 104.488 166.624C104.232 166.571 103.965 166.544 103.688 166.544C103.176 166.544 102.786 166.624 102.52 166.784C102.253 166.944 102.12 167.168 102.12 167.456C102.12 167.659 102.178 167.835 102.296 167.984C102.424 168.133 102.642 168.283 102.952 168.432C103.261 168.581 103.682 168.763 104.216 168.976C104.749 169.179 105.202 169.387 105.576 169.6C105.96 169.813 106.248 170.075 106.44 170.384C106.642 170.693 106.744 171.088 106.744 171.568ZM112.238 174.16C111.448 174.16 110.755 174.005 110.158 173.696C109.56 173.387 109.096 172.907 108.766 172.256C108.435 171.595 108.27 170.757 108.27 169.744C108.27 168.677 108.446 167.813 108.798 167.152C109.16 166.491 109.646 166.005 110.254 165.696C110.872 165.376 111.576 165.216 112.366 165.216C112.846 165.216 113.294 165.269 113.71 165.376C114.136 165.472 114.488 165.584 114.766 165.712L114.254 167.088C113.955 166.971 113.635 166.869 113.294 166.784C112.963 166.699 112.648 166.656 112.35 166.656C111.816 166.656 111.374 166.773 111.022 167.008C110.68 167.232 110.424 167.573 110.254 168.032C110.094 168.48 110.014 169.045 110.014 169.728C110.014 170.379 110.099 170.928 110.27 171.376C110.44 171.824 110.691 172.165 111.022 172.4C111.363 172.624 111.784 172.736 112.286 172.736C112.766 172.736 113.187 172.683 113.55 172.576C113.912 172.469 114.254 172.331 114.574 172.16V173.632C114.264 173.813 113.928 173.947 113.566 174.032C113.203 174.117 112.76 174.16 112.238 174.16ZM124.033 165.376V174H122.673L122.433 172.864H122.353C122.172 173.163 121.937 173.408 121.649 173.6C121.361 173.792 121.047 173.931 120.705 174.016C120.364 174.112 120.012 174.16 119.649 174.16C118.977 174.16 118.407 174.053 117.937 173.84C117.479 173.616 117.127 173.275 116.881 172.816C116.647 172.347 116.529 171.749 116.529 171.024V165.376H118.241V170.768C118.241 171.44 118.38 171.941 118.657 172.272C118.945 172.603 119.388 172.768 119.985 172.768C120.583 172.768 121.052 172.651 121.393 172.416C121.735 172.181 121.975 171.84 122.113 171.392C122.263 170.933 122.337 170.384 122.337 169.744V165.376H124.033ZM128.383 174H126.687V161.84H128.383V174ZM134.439 165.216C135.196 165.216 135.847 165.376 136.391 165.696C136.935 166.005 137.351 166.453 137.639 167.04C137.937 167.627 138.087 168.32 138.087 169.12V170.048H132.295C132.316 170.933 132.545 171.611 132.983 172.08C133.431 172.549 134.055 172.784 134.855 172.784C135.409 172.784 135.9 172.736 136.327 172.64C136.764 172.533 137.212 172.379 137.671 172.176V173.584C137.244 173.776 136.807 173.92 136.359 174.016C135.921 174.112 135.399 174.16 134.791 174.16C133.959 174.16 133.223 173.995 132.583 173.664C131.943 173.333 131.441 172.843 131.079 172.192C130.727 171.531 130.551 170.72 130.551 169.76C130.551 168.789 130.711 167.968 131.031 167.296C131.361 166.624 131.815 166.112 132.391 165.76C132.977 165.397 133.66 165.216 134.439 165.216ZM134.439 166.528C133.831 166.528 133.34 166.725 132.967 167.12C132.604 167.515 132.391 168.075 132.327 168.8H136.391C136.391 168.352 136.321 167.957 136.183 167.616C136.044 167.275 135.831 167.008 135.543 166.816C135.255 166.624 134.887 166.528 134.439 166.528ZM147.319 174.16C146.285 174.16 145.447 173.787 144.807 173.04C144.178 172.293 143.863 171.184 143.863 169.712C143.863 168.229 144.183 167.109 144.823 166.352C145.463 165.595 146.306 165.216 147.351 165.216C147.789 165.216 148.167 165.275 148.487 165.392C148.818 165.499 149.101 165.648 149.335 165.84C149.581 166.032 149.789 166.245 149.959 166.48H150.055C150.034 166.331 150.007 166.117 149.975 165.84C149.943 165.552 149.927 165.296 149.927 165.072V161.84H151.623V174H150.295L150.007 172.848H149.927C149.767 173.093 149.565 173.317 149.319 173.52C149.085 173.712 148.802 173.867 148.471 173.984C148.141 174.101 147.757 174.16 147.319 174.16ZM147.719 172.768C148.551 172.768 149.138 172.539 149.479 172.08C149.821 171.611 149.991 170.912 149.991 169.984V169.728C149.991 168.715 149.826 167.941 149.495 167.408C149.175 166.875 148.578 166.608 147.703 166.608C147.01 166.608 146.487 166.891 146.135 167.456C145.783 168.011 145.607 168.773 145.607 169.744C145.607 170.715 145.783 171.461 146.135 171.984C146.487 172.507 147.015 172.768 147.719 172.768ZM157.673 165.216C158.43 165.216 159.081 165.376 159.625 165.696C160.169 166.005 160.585 166.453 160.873 167.04C161.172 167.627 161.321 168.32 161.321 169.12V170.048H155.529C155.55 170.933 155.78 171.611 156.217 172.08C156.665 172.549 157.289 172.784 158.089 172.784C158.644 172.784 159.134 172.736 159.561 172.64C159.998 172.533 160.446 172.379 160.905 172.176V173.584C160.478 173.776 160.041 173.92 159.593 174.016C159.156 174.112 158.633 174.16 158.025 174.16C157.193 174.16 156.457 173.995 155.817 173.664C155.177 173.333 154.676 172.843 154.313 172.192C153.961 171.531 153.785 170.72 153.785 169.76C153.785 168.789 153.945 167.968 154.265 167.296C154.596 166.624 155.049 166.112 155.625 165.76C156.212 165.397 156.894 165.216 157.673 165.216ZM157.673 166.528C157.065 166.528 156.574 166.725 156.201 167.12C155.838 167.515 155.625 168.075 155.561 168.8H159.625C159.625 168.352 159.556 167.957 159.417 167.616C159.278 167.275 159.065 167.008 158.777 166.816C158.489 166.624 158.121 166.528 157.673 166.528ZM173.322 171.568C173.322 172.133 173.183 172.608 172.906 172.992C172.628 173.376 172.228 173.669 171.706 173.872C171.183 174.064 170.554 174.16 169.818 174.16C169.21 174.16 168.687 174.112 168.25 174.016C167.823 173.931 167.428 173.803 167.066 173.632V172.144C167.45 172.325 167.892 172.491 168.394 172.64C168.895 172.779 169.386 172.848 169.866 172.848C170.506 172.848 170.964 172.747 171.242 172.544C171.53 172.341 171.674 172.069 171.674 171.728C171.674 171.536 171.62 171.365 171.514 171.216C171.407 171.056 171.204 170.896 170.906 170.736C170.618 170.565 170.191 170.373 169.626 170.16C169.082 169.936 168.618 169.717 168.234 169.504C167.85 169.28 167.556 169.019 167.354 168.72C167.151 168.411 167.05 168.016 167.05 167.536C167.05 166.789 167.348 166.219 167.946 165.824C168.554 165.419 169.354 165.216 170.346 165.216C170.868 165.216 171.359 165.269 171.818 165.376C172.287 165.472 172.74 165.621 173.178 165.824L172.618 167.12C172.372 167.003 172.116 166.907 171.85 166.832C171.594 166.747 171.332 166.677 171.066 166.624C170.81 166.571 170.543 166.544 170.266 166.544C169.754 166.544 169.364 166.624 169.098 166.784C168.831 166.944 168.698 167.168 168.698 167.456C168.698 167.659 168.756 167.835 168.874 167.984C169.002 168.133 169.22 168.283 169.53 168.432C169.839 168.581 170.26 168.763 170.794 168.976C171.327 169.179 171.78 169.387 172.154 169.6C172.538 169.813 172.826 170.075 173.018 170.384C173.22 170.693 173.322 171.088 173.322 171.568ZM182.944 169.68C182.944 170.395 182.848 171.029 182.656 171.584C182.464 172.139 182.192 172.608 181.84 172.992C181.488 173.376 181.061 173.669 180.56 173.872C180.058 174.064 179.493 174.16 178.864 174.16C178.288 174.16 177.754 174.064 177.264 173.872C176.773 173.669 176.346 173.376 175.984 172.992C175.632 172.608 175.354 172.139 175.152 171.584C174.949 171.029 174.848 170.389 174.848 169.664C174.848 168.715 175.008 167.909 175.328 167.248C175.658 166.587 176.128 166.085 176.736 165.744C177.354 165.392 178.08 165.216 178.912 165.216C179.701 165.216 180.394 165.392 180.992 165.744C181.6 166.085 182.074 166.587 182.416 167.248C182.768 167.909 182.944 168.72 182.944 169.68ZM176.592 169.68C176.592 170.32 176.672 170.875 176.832 171.344C176.992 171.803 177.242 172.155 177.584 172.4C177.925 172.645 178.362 172.768 178.896 172.768C179.429 172.768 179.866 172.645 180.208 172.4C180.549 172.155 180.8 171.803 180.96 171.344C181.12 170.875 181.2 170.32 181.2 169.68C181.2 169.019 181.114 168.464 180.944 168.016C180.784 167.568 180.533 167.227 180.192 166.992C179.861 166.747 179.424 166.624 178.88 166.624C178.08 166.624 177.498 166.891 177.136 167.424C176.773 167.957 176.592 168.709 176.592 169.68ZM192.518 165.376V174H191.158L190.918 172.864H190.838C190.656 173.163 190.422 173.408 190.134 173.6C189.846 173.792 189.531 173.931 189.19 174.016C188.848 174.112 188.496 174.16 188.134 174.16C187.462 174.16 186.891 174.053 186.422 173.84C185.963 173.616 185.611 173.275 185.366 172.816C185.131 172.347 185.014 171.749 185.014 171.024V165.376H186.726V170.768C186.726 171.44 186.864 171.941 187.142 172.272C187.43 172.603 187.872 172.768 188.47 172.768C189.067 172.768 189.536 172.651 189.878 172.416C190.219 172.181 190.459 171.84 190.598 171.392C190.747 170.933 190.822 170.384 190.822 169.744V165.376H192.518ZM200.9 171.568C200.9 172.133 200.761 172.608 200.484 172.992C200.206 173.376 199.806 173.669 199.284 173.872C198.761 174.064 198.132 174.16 197.396 174.16C196.788 174.16 196.265 174.112 195.828 174.016C195.401 173.931 195.006 173.803 194.644 173.632V172.144C195.028 172.325 195.47 172.491 195.972 172.64C196.473 172.779 196.964 172.848 197.444 172.848C198.084 172.848 198.542 172.747 198.82 172.544C199.108 172.341 199.252 172.069 199.252 171.728C199.252 171.536 199.198 171.365 199.092 171.216C198.985 171.056 198.782 170.896 198.484 170.736C198.196 170.565 197.769 170.373 197.204 170.16C196.66 169.936 196.196 169.717 195.812 169.504C195.428 169.28 195.134 169.019 194.932 168.72C194.729 168.411 194.628 168.016 194.628 167.536C194.628 166.789 194.926 166.219 195.524 165.824C196.132 165.419 196.932 165.216 197.924 165.216C198.446 165.216 198.937 165.269 199.396 165.376C199.865 165.472 200.318 165.621 200.756 165.824L200.196 167.12C199.95 167.003 199.694 166.907 199.428 166.832C199.172 166.747 198.91 166.677 198.644 166.624C198.388 166.571 198.121 166.544 197.844 166.544C197.332 166.544 196.942 166.624 196.676 166.784C196.409 166.944 196.276 167.168 196.276 167.456C196.276 167.659 196.334 167.835 196.452 167.984C196.58 168.133 196.798 168.283 197.108 168.432C197.417 168.581 197.838 168.763 198.372 168.976C198.905 169.179 199.358 169.387 199.732 169.6C200.116 169.813 200.404 170.075 200.596 170.384C200.798 170.693 200.9 171.088 200.9 171.568ZM202.186 170.432V168.992H206.154V170.432H202.186ZM217.742 165.216C218.713 165.216 219.443 165.467 219.934 165.968C220.425 166.469 220.67 167.275 220.67 168.384V174H218.974V168.608C218.974 167.947 218.841 167.451 218.574 167.12C218.318 166.779 217.913 166.608 217.358 166.608C216.59 166.608 216.041 166.848 215.71 167.328C215.379 167.797 215.214 168.48 215.214 169.376V174H213.534V168.608C213.534 168.171 213.47 167.803 213.342 167.504C213.225 167.205 213.049 166.981 212.814 166.832C212.579 166.683 212.275 166.608 211.902 166.608C211.369 166.608 210.947 166.725 210.638 166.96C210.329 167.195 210.105 167.541 209.966 168C209.838 168.448 209.774 168.997 209.774 169.648V174H208.078V165.376H209.422L209.662 166.528H209.758C209.939 166.229 210.158 165.984 210.414 165.792C210.681 165.6 210.974 165.456 211.294 165.36C211.614 165.264 211.945 165.216 212.286 165.216C212.937 165.216 213.486 165.333 213.934 165.568C214.382 165.792 214.707 166.139 214.91 166.608H215.038C215.315 166.128 215.699 165.776 216.19 165.552C216.681 165.328 217.198 165.216 217.742 165.216ZM226.658 165.216C227.415 165.216 228.066 165.376 228.61 165.696C229.154 166.005 229.57 166.453 229.858 167.04C230.156 167.627 230.306 168.32 230.306 169.12V170.048H224.514C224.535 170.933 224.764 171.611 225.202 172.08C225.65 172.549 226.274 172.784 227.074 172.784C227.628 172.784 228.119 172.736 228.546 172.64C228.983 172.533 229.431 172.379 229.89 172.176V173.584C229.463 173.776 229.026 173.92 228.578 174.016C228.14 174.112 227.618 174.16 227.01 174.16C226.178 174.16 225.442 173.995 224.802 173.664C224.162 173.333 223.66 172.843 223.298 172.192C222.946 171.531 222.77 170.72 222.77 169.76C222.77 168.789 222.93 167.968 223.25 167.296C223.58 166.624 224.034 166.112 224.61 165.76C225.196 165.397 225.879 165.216 226.658 165.216ZM226.658 166.528C226.05 166.528 225.559 166.725 225.186 167.12C224.823 167.515 224.61 168.075 224.546 168.8H228.61C228.61 168.352 228.54 167.957 228.402 167.616C228.263 167.275 228.05 167.008 227.762 166.816C227.474 166.624 227.106 166.528 226.658 166.528ZM236.79 165.216C237.792 165.216 238.56 165.467 239.094 165.968C239.627 166.469 239.894 167.275 239.894 168.384V174H238.214V168.624C238.214 167.952 238.07 167.451 237.782 167.12C237.504 166.779 237.056 166.608 236.438 166.608C235.563 166.608 234.955 166.869 234.614 167.392C234.283 167.915 234.118 168.667 234.118 169.648V174H232.422V165.376H233.766L234.006 166.528H234.102C234.294 166.229 234.528 165.984 234.806 165.792C235.083 165.6 235.392 165.456 235.734 165.36C236.075 165.264 236.427 165.216 236.79 165.216ZM249.924 165.376V174H248.564L248.324 172.864H248.244C248.063 173.163 247.828 173.408 247.54 173.6C247.252 173.792 246.937 173.931 246.596 174.016C246.255 174.112 245.903 174.16 245.54 174.16C244.868 174.16 244.297 174.053 243.828 173.84C243.369 173.616 243.017 173.275 242.772 172.816C242.537 172.347 242.42 171.749 242.42 171.024V165.376H244.132V170.768C244.132 171.44 244.271 171.941 244.548 172.272C244.836 172.603 245.279 172.768 245.876 172.768C246.473 172.768 246.943 172.651 247.284 172.416C247.625 172.181 247.865 171.84 248.004 171.392C248.153 170.933 248.228 170.384 248.228 169.744V165.376H249.924Z" fill="#595959"/>
<rect width="290" height="40" transform="translate(48 196)" fill="white"/>
<path d="M81.552 222V210.576H82.992V220.72H87.984V222H81.552ZM90.4706 210.208C90.684 210.208 90.8706 210.283 91.0306 210.432C91.2013 210.571 91.2866 210.795 91.2866 211.104C91.2866 211.403 91.2013 211.627 91.0306 211.776C90.8706 211.925 90.684 212 90.4706 212C90.236 212 90.0386 211.925 89.8786 211.776C89.7186 211.627 89.6386 211.403 89.6386 211.104C89.6386 210.795 89.7186 210.571 89.8786 210.432C90.0386 210.283 90.236 210.208 90.4706 210.208ZM91.1586 213.424V222H89.7506V213.424H91.1586ZM97.1876 213.264C97.9236 213.264 98.553 213.424 99.0756 213.744C99.609 214.064 100.014 214.517 100.292 215.104C100.58 215.68 100.724 216.357 100.724 217.136V217.984H94.8516C94.873 218.955 95.1183 219.696 95.5876 220.208C96.0676 220.709 96.7343 220.96 97.5876 220.96C98.1316 220.96 98.6116 220.912 99.0276 220.816C99.4543 220.709 99.8916 220.56 100.34 220.368V221.6C99.9023 221.792 99.4703 221.931 99.0436 222.016C98.617 222.112 98.1103 222.16 97.5236 222.16C96.713 222.16 95.993 221.995 95.3636 221.664C94.745 221.333 94.2596 220.843 93.9076 220.192C93.5663 219.531 93.3956 218.725 93.3956 217.776C93.3956 216.837 93.5503 216.032 93.8596 215.36C94.1796 214.688 94.6223 214.171 95.1876 213.808C95.7636 213.445 96.4303 213.264 97.1876 213.264ZM97.1716 214.416C96.4996 214.416 95.9663 214.635 95.5716 215.072C95.1876 215.499 94.9583 216.096 94.8836 216.864H99.2516C99.241 216.139 99.0703 215.552 98.7396 215.104C98.409 214.645 97.8863 214.416 97.1716 214.416ZM107.035 213.264C108.059 213.264 108.832 213.515 109.355 214.016C109.878 214.507 110.139 215.307 110.139 216.416V222H108.747V216.512C108.747 215.136 108.107 214.448 106.827 214.448C105.878 214.448 105.222 214.715 104.859 215.248C104.496 215.781 104.315 216.549 104.315 217.552V222H102.907V213.424H104.043L104.251 214.592H104.331C104.608 214.144 104.992 213.813 105.483 213.6C105.974 213.376 106.491 213.264 107.035 213.264ZM119.994 222.16C118.927 222.16 118.074 221.792 117.434 221.056C116.794 220.309 116.474 219.2 116.474 217.728C116.474 216.256 116.794 215.147 117.434 214.4C118.084 213.643 118.943 213.264 120.01 213.264C120.671 213.264 121.21 213.387 121.626 213.632C122.052 213.877 122.399 214.176 122.666 214.528H122.762C122.751 214.389 122.73 214.187 122.698 213.92C122.676 213.643 122.666 213.424 122.666 213.264V209.84H124.074V222H122.938L122.73 220.848H122.666C122.41 221.211 122.068 221.52 121.642 221.776C121.215 222.032 120.666 222.16 119.994 222.16ZM120.218 220.992C121.124 220.992 121.759 220.747 122.122 220.256C122.495 219.755 122.682 219.003 122.682 218V217.744C122.682 216.677 122.506 215.861 122.154 215.296C121.802 214.72 121.151 214.432 120.202 214.432C119.444 214.432 118.874 214.736 118.49 215.344C118.116 215.941 117.93 216.747 117.93 217.76C117.93 218.784 118.116 219.579 118.49 220.144C118.874 220.709 119.45 220.992 120.218 220.992ZM130.11 213.264C130.846 213.264 131.475 213.424 131.998 213.744C132.531 214.064 132.936 214.517 133.214 215.104C133.502 215.68 133.646 216.357 133.646 217.136V217.984H127.774C127.795 218.955 128.04 219.696 128.51 220.208C128.99 220.709 129.656 220.96 130.51 220.96C131.054 220.96 131.534 220.912 131.95 220.816C132.376 220.709 132.814 220.56 133.262 220.368V221.6C132.824 221.792 132.392 221.931 131.966 222.016C131.539 222.112 131.032 222.16 130.446 222.16C129.635 222.16 128.915 221.995 128.286 221.664C127.667 221.333 127.182 220.843 126.83 220.192C126.488 219.531 126.318 218.725 126.318 217.776C126.318 216.837 126.472 216.032 126.782 215.36C127.102 214.688 127.544 214.171 128.11 213.808C128.686 213.445 129.352 213.264 130.11 213.264ZM130.094 214.416C129.422 214.416 128.888 214.635 128.494 215.072C128.11 215.499 127.88 216.096 127.806 216.864H132.174C132.163 216.139 131.992 215.552 131.662 215.104C131.331 214.645 130.808 214.416 130.094 214.416ZM144.113 213.264C145.137 213.264 145.91 213.515 146.433 214.016C146.956 214.507 147.217 215.307 147.217 216.416V222H145.825V216.512C145.825 215.136 145.185 214.448 143.905 214.448C142.956 214.448 142.3 214.715 141.937 215.248C141.574 215.781 141.393 216.549 141.393 217.552V222H139.985V213.424H141.121L141.329 214.592H141.409C141.686 214.144 142.07 213.813 142.561 213.6C143.052 213.376 143.569 213.264 144.113 213.264ZM153.124 213.28C154.169 213.28 154.942 213.509 155.444 213.968C155.945 214.427 156.196 215.157 156.196 216.16V222H155.172L154.9 220.784H154.836C154.462 221.253 154.068 221.6 153.652 221.824C153.246 222.048 152.681 222.16 151.956 222.16C151.177 222.16 150.532 221.957 150.02 221.552C149.508 221.136 149.252 220.491 149.252 219.616C149.252 218.763 149.588 218.107 150.26 217.648C150.932 217.179 151.966 216.923 153.364 216.88L154.82 216.832V216.32C154.82 215.605 154.665 215.109 154.356 214.832C154.046 214.555 153.609 214.416 153.044 214.416C152.596 214.416 152.169 214.485 151.764 214.624C151.358 214.752 150.98 214.901 150.628 215.072L150.196 214.016C150.569 213.813 151.012 213.643 151.524 213.504C152.036 213.355 152.569 213.28 153.124 213.28ZM153.54 217.856C152.473 217.899 151.732 218.069 151.316 218.368C150.91 218.667 150.708 219.088 150.708 219.632C150.708 220.112 150.852 220.464 151.14 220.688C151.438 220.912 151.817 221.024 152.276 221.024C153.001 221.024 153.604 220.827 154.084 220.432C154.564 220.027 154.804 219.408 154.804 218.576V217.808L153.54 217.856ZM160.732 222L157.484 213.424H158.988L160.812 218.48C160.898 218.715 160.988 218.976 161.084 219.264C161.18 219.552 161.266 219.829 161.34 220.096C161.415 220.352 161.468 220.571 161.5 220.752H161.564C161.607 220.571 161.666 220.347 161.74 220.08C161.826 219.813 161.916 219.536 162.012 219.248C162.119 218.96 162.21 218.704 162.284 218.48L164.108 213.424H165.612L162.348 222H160.732ZM167.689 210.208C167.903 210.208 168.089 210.283 168.249 210.432C168.42 210.571 168.505 210.795 168.505 211.104C168.505 211.403 168.42 211.627 168.249 211.776C168.089 211.925 167.903 212 167.689 212C167.455 212 167.257 211.925 167.097 211.776C166.937 211.627 166.857 211.403 166.857 211.104C166.857 210.795 166.937 210.571 167.097 210.432C167.257 210.283 167.455 210.208 167.689 210.208ZM168.377 213.424V222H166.969V213.424H168.377ZM174.134 213.264C174.7 213.264 175.206 213.371 175.654 213.584C176.113 213.797 176.502 214.123 176.822 214.56H176.902L177.094 213.424H178.214V222.144C178.214 223.371 177.9 224.293 177.27 224.912C176.652 225.531 175.686 225.84 174.374 225.84C173.116 225.84 172.086 225.659 171.286 225.296V224C172.129 224.448 173.185 224.672 174.454 224.672C175.19 224.672 175.766 224.453 176.182 224.016C176.609 223.589 176.822 223.003 176.822 222.256V221.92C176.822 221.792 176.828 221.611 176.838 221.376C176.849 221.131 176.86 220.96 176.87 220.864H176.806C176.23 221.728 175.345 222.16 174.15 222.16C173.041 222.16 172.172 221.771 171.542 220.992C170.924 220.213 170.614 219.125 170.614 217.728C170.614 216.363 170.924 215.28 171.542 214.48C172.172 213.669 173.036 213.264 174.134 213.264ZM174.326 214.448C173.612 214.448 173.057 214.736 172.662 215.312C172.268 215.877 172.07 216.688 172.07 217.744C172.07 218.8 172.262 219.611 172.646 220.176C173.041 220.731 173.612 221.008 174.358 221.008C175.222 221.008 175.852 220.779 176.246 220.32C176.641 219.851 176.838 219.099 176.838 218.064V217.728C176.838 216.555 176.636 215.717 176.23 215.216C175.825 214.704 175.19 214.448 174.326 214.448ZM184.186 213.28C185.231 213.28 186.005 213.509 186.506 213.968C187.007 214.427 187.258 215.157 187.258 216.16V222H186.234L185.962 220.784H185.898C185.525 221.253 185.13 221.6 184.714 221.824C184.309 222.048 183.743 222.16 183.018 222.16C182.239 222.16 181.594 221.957 181.082 221.552C180.57 221.136 180.314 220.491 180.314 219.616C180.314 218.763 180.65 218.107 181.322 217.648C181.994 217.179 183.029 216.923 184.426 216.88L185.882 216.832V216.32C185.882 215.605 185.727 215.109 185.418 214.832C185.109 214.555 184.671 214.416 184.106 214.416C183.658 214.416 183.231 214.485 182.826 214.624C182.421 214.752 182.042 214.901 181.69 215.072L181.258 214.016C181.631 213.813 182.074 213.643 182.586 213.504C183.098 213.355 183.631 213.28 184.186 213.28ZM184.602 217.856C183.535 217.899 182.794 218.069 182.378 218.368C181.973 218.667 181.77 219.088 181.77 219.632C181.77 220.112 181.914 220.464 182.202 220.688C182.501 220.912 182.879 221.024 183.338 221.024C184.063 221.024 184.666 220.827 185.146 220.432C185.626 220.027 185.866 219.408 185.866 218.576V217.808L184.602 217.856ZM192.771 221.008C192.984 221.008 193.203 220.992 193.427 220.96C193.651 220.917 193.832 220.875 193.971 220.832V221.904C193.822 221.979 193.608 222.037 193.331 222.08C193.054 222.133 192.787 222.16 192.531 222.16C192.083 222.16 191.667 222.085 191.283 221.936C190.91 221.776 190.606 221.504 190.371 221.12C190.136 220.736 190.019 220.197 190.019 219.504V214.512H188.803V213.84L190.035 213.28L190.595 211.456H191.427V213.424H193.907V214.512H191.427V219.472C191.427 219.995 191.55 220.384 191.795 220.64C192.051 220.885 192.376 221.008 192.771 221.008ZM196.408 210.208C196.621 210.208 196.808 210.283 196.968 210.432C197.139 210.571 197.224 210.795 197.224 211.104C197.224 211.403 197.139 211.627 196.968 211.776C196.808 211.925 196.621 212 196.408 212C196.173 212 195.976 211.925 195.816 211.776C195.656 211.627 195.576 211.403 195.576 211.104C195.576 210.795 195.656 210.571 195.816 210.432C195.976 210.283 196.173 210.208 196.408 210.208ZM197.096 213.424V222H195.688V213.424H197.096ZM207.269 217.696C207.269 219.115 206.906 220.213 206.181 220.992C205.466 221.771 204.496 222.16 203.269 222.16C202.512 222.16 201.834 221.989 201.237 221.648C200.65 221.296 200.186 220.789 199.845 220.128C199.504 219.456 199.333 218.645 199.333 217.696C199.333 216.277 199.69 215.184 200.405 214.416C201.12 213.648 202.09 213.264 203.317 213.264C204.096 213.264 204.778 213.44 205.365 213.792C205.962 214.133 206.426 214.635 206.757 215.296C207.098 215.947 207.269 216.747 207.269 217.696ZM200.789 217.696C200.789 218.709 200.986 219.515 201.381 220.112C201.786 220.699 202.426 220.992 203.301 220.992C204.165 220.992 204.8 220.699 205.205 220.112C205.61 219.515 205.813 218.709 205.813 217.696C205.813 216.683 205.61 215.888 205.205 215.312C204.8 214.736 204.16 214.448 203.285 214.448C202.41 214.448 201.776 214.736 201.381 215.312C200.986 215.888 200.789 216.683 200.789 217.696ZM213.629 213.264C214.653 213.264 215.426 213.515 215.949 214.016C216.471 214.507 216.733 215.307 216.733 216.416V222H215.341V216.512C215.341 215.136 214.701 214.448 213.421 214.448C212.471 214.448 211.815 214.715 211.453 215.248C211.09 215.781 210.909 216.549 210.909 217.552V222H209.501V213.424H210.637L210.845 214.592H210.925C211.202 214.144 211.586 213.813 212.077 213.6C212.567 213.376 213.085 213.264 213.629 213.264Z" fill="#1F497A"/>
<path d="M80 225.2H170.489V226H80V225.2ZM177.714 225.2H218.029V226H177.714V225.2Z" fill="#1F497A"/>
<rect width="290" height="40" transform="translate(48 244)" fill="white"/>
<path d="M81.552 270V258.576H82.992V268.72H87.984V270H81.552ZM90.4706 258.208C90.684 258.208 90.8706 258.283 91.0306 258.432C91.2013 258.571 91.2866 258.795 91.2866 259.104C91.2866 259.403 91.2013 259.627 91.0306 259.776C90.8706 259.925 90.684 260 90.4706 260C90.236 260 90.0386 259.925 89.8786 259.776C89.7186 259.627 89.6386 259.403 89.6386 259.104C89.6386 258.795 89.7186 258.571 89.8786 258.432C90.0386 258.283 90.236 258.208 90.4706 258.208ZM91.1586 261.424V270H89.7506V261.424H91.1586ZM97.1876 261.264C97.9236 261.264 98.553 261.424 99.0756 261.744C99.609 262.064 100.014 262.517 100.292 263.104C100.58 263.68 100.724 264.357 100.724 265.136V265.984H94.8516C94.873 266.955 95.1183 267.696 95.5876 268.208C96.0676 268.709 96.7343 268.96 97.5876 268.96C98.1316 268.96 98.6116 268.912 99.0276 268.816C99.4543 268.709 99.8916 268.56 100.34 268.368V269.6C99.9023 269.792 99.4703 269.931 99.0436 270.016C98.617 270.112 98.1103 270.16 97.5236 270.16C96.713 270.16 95.993 269.995 95.3636 269.664C94.745 269.333 94.2596 268.843 93.9076 268.192C93.5663 267.531 93.3956 266.725 93.3956 265.776C93.3956 264.837 93.5503 264.032 93.8596 263.36C94.1796 262.688 94.6223 262.171 95.1876 261.808C95.7636 261.445 96.4303 261.264 97.1876 261.264ZM97.1716 262.416C96.4996 262.416 95.9663 262.635 95.5716 263.072C95.1876 263.499 94.9583 264.096 94.8836 264.864H99.2516C99.241 264.139 99.0703 263.552 98.7396 263.104C98.409 262.645 97.8863 262.416 97.1716 262.416ZM107.035 261.264C108.059 261.264 108.832 261.515 109.355 262.016C109.878 262.507 110.139 263.307 110.139 264.416V270H108.747V264.512C108.747 263.136 108.107 262.448 106.827 262.448C105.878 262.448 105.222 262.715 104.859 263.248C104.496 263.781 104.315 264.549 104.315 265.552V270H102.907V261.424H104.043L104.251 262.592H104.331C104.608 262.144 104.992 261.813 105.483 261.6C105.974 261.376 106.491 261.264 107.035 261.264ZM119.994 270.16C118.927 270.16 118.074 269.792 117.434 269.056C116.794 268.309 116.474 267.2 116.474 265.728C116.474 264.256 116.794 263.147 117.434 262.4C118.084 261.643 118.943 261.264 120.01 261.264C120.671 261.264 121.21 261.387 121.626 261.632C122.052 261.877 122.399 262.176 122.666 262.528H122.762C122.751 262.389 122.73 262.187 122.698 261.92C122.676 261.643 122.666 261.424 122.666 261.264V257.84H124.074V270H122.938L122.73 268.848H122.666C122.41 269.211 122.068 269.52 121.642 269.776C121.215 270.032 120.666 270.16 119.994 270.16ZM120.218 268.992C121.124 268.992 121.759 268.747 122.122 268.256C122.495 267.755 122.682 267.003 122.682 266V265.744C122.682 264.677 122.506 263.861 122.154 263.296C121.802 262.72 121.151 262.432 120.202 262.432C119.444 262.432 118.874 262.736 118.49 263.344C118.116 263.941 117.93 264.747 117.93 265.76C117.93 266.784 118.116 267.579 118.49 268.144C118.874 268.709 119.45 268.992 120.218 268.992ZM130.11 261.264C130.846 261.264 131.475 261.424 131.998 261.744C132.531 262.064 132.936 262.517 133.214 263.104C133.502 263.68 133.646 264.357 133.646 265.136V265.984H127.774C127.795 266.955 128.04 267.696 128.51 268.208C128.99 268.709 129.656 268.96 130.51 268.96C131.054 268.96 131.534 268.912 131.95 268.816C132.376 268.709 132.814 268.56 133.262 268.368V269.6C132.824 269.792 132.392 269.931 131.966 270.016C131.539 270.112 131.032 270.16 130.446 270.16C129.635 270.16 128.915 269.995 128.286 269.664C127.667 269.333 127.182 268.843 126.83 268.192C126.488 267.531 126.318 266.725 126.318 265.776C126.318 264.837 126.472 264.032 126.782 263.36C127.102 262.688 127.544 262.171 128.11 261.808C128.686 261.445 129.352 261.264 130.11 261.264ZM130.094 262.416C129.422 262.416 128.888 262.635 128.494 263.072C128.11 263.499 127.88 264.096 127.806 264.864H132.174C132.163 264.139 131.992 263.552 131.662 263.104C131.331 262.645 130.808 262.416 130.094 262.416ZM144.113 261.264C145.137 261.264 145.91 261.515 146.433 262.016C146.956 262.507 147.217 263.307 147.217 264.416V270H145.825V264.512C145.825 263.136 145.185 262.448 143.905 262.448C142.956 262.448 142.3 262.715 141.937 263.248C141.574 263.781 141.393 264.549 141.393 265.552V270H139.985V261.424H141.121L141.329 262.592H141.409C141.686 262.144 142.07 261.813 142.561 261.6C143.052 261.376 143.569 261.264 144.113 261.264ZM153.124 261.28C154.169 261.28 154.942 261.509 155.444 261.968C155.945 262.427 156.196 263.157 156.196 264.16V270H155.172L154.9 268.784H154.836C154.462 269.253 154.068 269.6 153.652 269.824C153.246 270.048 152.681 270.16 151.956 270.16C151.177 270.16 150.532 269.957 150.02 269.552C149.508 269.136 149.252 268.491 149.252 267.616C149.252 266.763 149.588 266.107 150.26 265.648C150.932 265.179 151.966 264.923 153.364 264.88L154.82 264.832V264.32C154.82 263.605 154.665 263.109 154.356 262.832C154.046 262.555 153.609 262.416 153.044 262.416C152.596 262.416 152.169 262.485 151.764 262.624C151.358 262.752 150.98 262.901 150.628 263.072L150.196 262.016C150.569 261.813 151.012 261.643 151.524 261.504C152.036 261.355 152.569 261.28 153.124 261.28ZM153.54 265.856C152.473 265.899 151.732 266.069 151.316 266.368C150.91 266.667 150.708 267.088 150.708 267.632C150.708 268.112 150.852 268.464 151.14 268.688C151.438 268.912 151.817 269.024 152.276 269.024C153.001 269.024 153.604 268.827 154.084 268.432C154.564 268.027 154.804 267.408 154.804 266.576V265.808L153.54 265.856ZM160.732 270L157.484 261.424H158.988L160.812 266.48C160.898 266.715 160.988 266.976 161.084 267.264C161.18 267.552 161.266 267.829 161.34 268.096C161.415 268.352 161.468 268.571 161.5 268.752H161.564C161.607 268.571 161.666 268.347 161.74 268.08C161.826 267.813 161.916 267.536 162.012 267.248C162.119 266.96 162.21 266.704 162.284 266.48L164.108 261.424H165.612L162.348 270H160.732ZM167.689 258.208C167.903 258.208 168.089 258.283 168.249 258.432C168.42 258.571 168.505 258.795 168.505 259.104C168.505 259.403 168.42 259.627 168.249 259.776C168.089 259.925 167.903 260 167.689 260C167.455 260 167.257 259.925 167.097 259.776C166.937 259.627 166.857 259.403 166.857 259.104C166.857 258.795 166.937 258.571 167.097 258.432C167.257 258.283 167.455 258.208 167.689 258.208ZM168.377 261.424V270H166.969V261.424H168.377ZM174.134 261.264C174.7 261.264 175.206 261.371 175.654 261.584C176.113 261.797 176.502 262.123 176.822 262.56H176.902L177.094 261.424H178.214V270.144C178.214 271.371 177.9 272.293 177.27 272.912C176.652 273.531 175.686 273.84 174.374 273.84C173.116 273.84 172.086 273.659 171.286 273.296V272C172.129 272.448 173.185 272.672 174.454 272.672C175.19 272.672 175.766 272.453 176.182 272.016C176.609 271.589 176.822 271.003 176.822 270.256V269.92C176.822 269.792 176.828 269.611 176.838 269.376C176.849 269.131 176.86 268.96 176.87 268.864H176.806C176.23 269.728 175.345 270.16 174.15 270.16C173.041 270.16 172.172 269.771 171.542 268.992C170.924 268.213 170.614 267.125 170.614 265.728C170.614 264.363 170.924 263.28 171.542 262.48C172.172 261.669 173.036 261.264 174.134 261.264ZM174.326 262.448C173.612 262.448 173.057 262.736 172.662 263.312C172.268 263.877 172.07 264.688 172.07 265.744C172.07 266.8 172.262 267.611 172.646 268.176C173.041 268.731 173.612 269.008 174.358 269.008C175.222 269.008 175.852 268.779 176.246 268.32C176.641 267.851 176.838 267.099 176.838 266.064V265.728C176.838 264.555 176.636 263.717 176.23 263.216C175.825 262.704 175.19 262.448 174.326 262.448ZM184.186 261.28C185.231 261.28 186.005 261.509 186.506 261.968C187.007 262.427 187.258 263.157 187.258 264.16V270H186.234L185.962 268.784H185.898C185.525 269.253 185.13 269.6 184.714 269.824C184.309 270.048 183.743 270.16 183.018 270.16C182.239 270.16 181.594 269.957 181.082 269.552C180.57 269.136 180.314 268.491 180.314 267.616C180.314 266.763 180.65 266.107 181.322 265.648C181.994 265.179 183.029 264.923 184.426 264.88L185.882 264.832V264.32C185.882 263.605 185.727 263.109 185.418 262.832C185.109 262.555 184.671 262.416 184.106 262.416C183.658 262.416 183.231 262.485 182.826 262.624C182.421 262.752 182.042 262.901 181.69 263.072L181.258 262.016C181.631 261.813 182.074 261.643 182.586 261.504C183.098 261.355 183.631 261.28 184.186 261.28ZM184.602 265.856C183.535 265.899 182.794 266.069 182.378 266.368C181.973 266.667 181.77 267.088 181.77 267.632C181.77 268.112 181.914 268.464 182.202 268.688C182.501 268.912 182.879 269.024 183.338 269.024C184.063 269.024 184.666 268.827 185.146 268.432C185.626 268.027 185.866 267.408 185.866 266.576V265.808L184.602 265.856ZM192.771 269.008C192.984 269.008 193.203 268.992 193.427 268.96C193.651 268.917 193.832 268.875 193.971 268.832V269.904C193.822 269.979 193.608 270.037 193.331 270.08C193.054 270.133 192.787 270.16 192.531 270.16C192.083 270.16 191.667 270.085 191.283 269.936C190.91 269.776 190.606 269.504 190.371 269.12C190.136 268.736 190.019 268.197 190.019 267.504V262.512H188.803V261.84L190.035 261.28L190.595 259.456H191.427V261.424H193.907V262.512H191.427V267.472C191.427 267.995 191.55 268.384 191.795 268.64C192.051 268.885 192.376 269.008 192.771 269.008ZM196.408 258.208C196.621 258.208 196.808 258.283 196.968 258.432C197.139 258.571 197.224 258.795 197.224 259.104C197.224 259.403 197.139 259.627 196.968 259.776C196.808 259.925 196.621 260 196.408 260C196.173 260 195.976 259.925 195.816 259.776C195.656 259.627 195.576 259.403 195.576 259.104C195.576 258.795 195.656 258.571 195.816 258.432C195.976 258.283 196.173 258.208 196.408 258.208ZM197.096 261.424V270H195.688V261.424H197.096ZM207.269 265.696C207.269 267.115 206.906 268.213 206.181 268.992C205.466 269.771 204.496 270.16 203.269 270.16C202.512 270.16 201.834 269.989 201.237 269.648C200.65 269.296 200.186 268.789 199.845 268.128C199.504 267.456 199.333 266.645 199.333 265.696C199.333 264.277 199.69 263.184 200.405 262.416C201.12 261.648 202.09 261.264 203.317 261.264C204.096 261.264 204.778 261.44 205.365 261.792C205.962 262.133 206.426 262.635 206.757 263.296C207.098 263.947 207.269 264.747 207.269 265.696ZM200.789 265.696C200.789 266.709 200.986 267.515 201.381 268.112C201.786 268.699 202.426 268.992 203.301 268.992C204.165 268.992 204.8 268.699 205.205 268.112C205.61 267.515 205.813 266.709 205.813 265.696C205.813 264.683 205.61 263.888 205.205 263.312C204.8 262.736 204.16 262.448 203.285 262.448C202.41 262.448 201.776 262.736 201.381 263.312C200.986 263.888 200.789 264.683 200.789 265.696ZM213.629 261.264C214.653 261.264 215.426 261.515 215.949 262.016C216.471 262.507 216.733 263.307 216.733 264.416V270H215.341V264.512C215.341 263.136 214.701 262.448 213.421 262.448C212.471 262.448 211.815 262.715 211.453 263.248C211.09 263.781 210.909 264.549 210.909 265.552V270H209.501V261.424H210.637L210.845 262.592H210.925C211.202 262.144 211.586 261.813 212.077 261.6C212.567 261.376 213.085 261.264 213.629 261.264Z" fill="#1F497A"/>
<path d="M80 273.2H170.489V274H80V273.2ZM177.714 273.2H218.029V274H177.714V273.2Z" fill="#1F497A"/>
<rect width="290" height="40" transform="translate(48 292)" fill="white"/>
<path d="M81.552 318V306.576H82.992V316.72H87.984V318H81.552ZM90.4706 306.208C90.684 306.208 90.8706 306.283 91.0306 306.432C91.2013 306.571 91.2866 306.795 91.2866 307.104C91.2866 307.403 91.2013 307.627 91.0306 307.776C90.8706 307.925 90.684 308 90.4706 308C90.236 308 90.0386 307.925 89.8786 307.776C89.7186 307.627 89.6386 307.403 89.6386 307.104C89.6386 306.795 89.7186 306.571 89.8786 306.432C90.0386 306.283 90.236 306.208 90.4706 306.208ZM91.1586 309.424V318H89.7506V309.424H91.1586ZM97.1876 309.264C97.9236 309.264 98.553 309.424 99.0756 309.744C99.609 310.064 100.014 310.517 100.292 311.104C100.58 311.68 100.724 312.357 100.724 313.136V313.984H94.8516C94.873 314.955 95.1183 315.696 95.5876 316.208C96.0676 316.709 96.7343 316.96 97.5876 316.96C98.1316 316.96 98.6116 316.912 99.0276 316.816C99.4543 316.709 99.8916 316.56 100.34 316.368V317.6C99.9023 317.792 99.4703 317.931 99.0436 318.016C98.617 318.112 98.1103 318.16 97.5236 318.16C96.713 318.16 95.993 317.995 95.3636 317.664C94.745 317.333 94.2596 316.843 93.9076 316.192C93.5663 315.531 93.3956 314.725 93.3956 313.776C93.3956 312.837 93.5503 312.032 93.8596 311.36C94.1796 310.688 94.6223 310.171 95.1876 309.808C95.7636 309.445 96.4303 309.264 97.1876 309.264ZM97.1716 310.416C96.4996 310.416 95.9663 310.635 95.5716 311.072C95.1876 311.499 94.9583 312.096 94.8836 312.864H99.2516C99.241 312.139 99.0703 311.552 98.7396 311.104C98.409 310.645 97.8863 310.416 97.1716 310.416ZM107.035 309.264C108.059 309.264 108.832 309.515 109.355 310.016C109.878 310.507 110.139 311.307 110.139 312.416V318H108.747V312.512C108.747 311.136 108.107 310.448 106.827 310.448C105.878 310.448 105.222 310.715 104.859 311.248C104.496 311.781 104.315 312.549 104.315 313.552V318H102.907V309.424H104.043L104.251 310.592H104.331C104.608 310.144 104.992 309.813 105.483 309.6C105.974 309.376 106.491 309.264 107.035 309.264ZM119.994 318.16C118.927 318.16 118.074 317.792 117.434 317.056C116.794 316.309 116.474 315.2 116.474 313.728C116.474 312.256 116.794 311.147 117.434 310.4C118.084 309.643 118.943 309.264 120.01 309.264C120.671 309.264 121.21 309.387 121.626 309.632C122.052 309.877 122.399 310.176 122.666 310.528H122.762C122.751 310.389 122.73 310.187 122.698 309.92C122.676 309.643 122.666 309.424 122.666 309.264V305.84H124.074V318H122.938L122.73 316.848H122.666C122.41 317.211 122.068 317.52 121.642 317.776C121.215 318.032 120.666 318.16 119.994 318.16ZM120.218 316.992C121.124 316.992 121.759 316.747 122.122 316.256C122.495 315.755 122.682 315.003 122.682 314V313.744C122.682 312.677 122.506 311.861 122.154 311.296C121.802 310.72 121.151 310.432 120.202 310.432C119.444 310.432 118.874 310.736 118.49 311.344C118.116 311.941 117.93 312.747 117.93 313.76C117.93 314.784 118.116 315.579 118.49 316.144C118.874 316.709 119.45 316.992 120.218 316.992ZM130.11 309.264C130.846 309.264 131.475 309.424 131.998 309.744C132.531 310.064 132.936 310.517 133.214 311.104C133.502 311.68 133.646 312.357 133.646 313.136V313.984H127.774C127.795 314.955 128.04 315.696 128.51 316.208C128.99 316.709 129.656 316.96 130.51 316.96C131.054 316.96 131.534 316.912 131.95 316.816C132.376 316.709 132.814 316.56 133.262 316.368V317.6C132.824 317.792 132.392 317.931 131.966 318.016C131.539 318.112 131.032 318.16 130.446 318.16C129.635 318.16 128.915 317.995 128.286 317.664C127.667 317.333 127.182 316.843 126.83 316.192C126.488 315.531 126.318 314.725 126.318 313.776C126.318 312.837 126.472 312.032 126.782 311.36C127.102 310.688 127.544 310.171 128.11 309.808C128.686 309.445 129.352 309.264 130.11 309.264ZM130.094 310.416C129.422 310.416 128.888 310.635 128.494 311.072C128.11 311.499 127.88 312.096 127.806 312.864H132.174C132.163 312.139 131.992 311.552 131.662 311.104C131.331 310.645 130.808 310.416 130.094 310.416ZM144.113 309.264C145.137 309.264 145.91 309.515 146.433 310.016C146.956 310.507 147.217 311.307 147.217 312.416V318H145.825V312.512C145.825 311.136 145.185 310.448 143.905 310.448C142.956 310.448 142.3 310.715 141.937 311.248C141.574 311.781 141.393 312.549 141.393 313.552V318H139.985V309.424H141.121L141.329 310.592H141.409C141.686 310.144 142.07 309.813 142.561 309.6C143.052 309.376 143.569 309.264 144.113 309.264ZM153.124 309.28C154.169 309.28 154.942 309.509 155.444 309.968C155.945 310.427 156.196 311.157 156.196 312.16V318H155.172L154.9 316.784H154.836C154.462 317.253 154.068 317.6 153.652 317.824C153.246 318.048 152.681 318.16 151.956 318.16C151.177 318.16 150.532 317.957 150.02 317.552C149.508 317.136 149.252 316.491 149.252 315.616C149.252 314.763 149.588 314.107 150.26 313.648C150.932 313.179 151.966 312.923 153.364 312.88L154.82 312.832V312.32C154.82 311.605 154.665 311.109 154.356 310.832C154.046 310.555 153.609 310.416 153.044 310.416C152.596 310.416 152.169 310.485 151.764 310.624C151.358 310.752 150.98 310.901 150.628 311.072L150.196 310.016C150.569 309.813 151.012 309.643 151.524 309.504C152.036 309.355 152.569 309.28 153.124 309.28ZM153.54 313.856C152.473 313.899 151.732 314.069 151.316 314.368C150.91 314.667 150.708 315.088 150.708 315.632C150.708 316.112 150.852 316.464 151.14 316.688C151.438 316.912 151.817 317.024 152.276 317.024C153.001 317.024 153.604 316.827 154.084 316.432C154.564 316.027 154.804 315.408 154.804 314.576V313.808L153.54 313.856ZM160.732 318L157.484 309.424H158.988L160.812 314.48C160.898 314.715 160.988 314.976 161.084 315.264C161.18 315.552 161.266 315.829 161.34 316.096C161.415 316.352 161.468 316.571 161.5 316.752H161.564C161.607 316.571 161.666 316.347 161.74 316.08C161.826 315.813 161.916 315.536 162.012 315.248C162.119 314.96 162.21 314.704 162.284 314.48L164.108 309.424H165.612L162.348 318H160.732ZM167.689 306.208C167.903 306.208 168.089 306.283 168.249 306.432C168.42 306.571 168.505 306.795 168.505 307.104C168.505 307.403 168.42 307.627 168.249 307.776C168.089 307.925 167.903 308 167.689 308C167.455 308 167.257 307.925 167.097 307.776C166.937 307.627 166.857 307.403 166.857 307.104C166.857 306.795 166.937 306.571 167.097 306.432C167.257 306.283 167.455 306.208 167.689 306.208ZM168.377 309.424V318H166.969V309.424H168.377ZM174.134 309.264C174.7 309.264 175.206 309.371 175.654 309.584C176.113 309.797 176.502 310.123 176.822 310.56H176.902L177.094 309.424H178.214V318.144C178.214 319.371 177.9 320.293 177.27 320.912C176.652 321.531 175.686 321.84 174.374 321.84C173.116 321.84 172.086 321.659 171.286 321.296V320C172.129 320.448 173.185 320.672 174.454 320.672C175.19 320.672 175.766 320.453 176.182 320.016C176.609 319.589 176.822 319.003 176.822 318.256V317.92C176.822 317.792 176.828 317.611 176.838 317.376C176.849 317.131 176.86 316.96 176.87 316.864H176.806C176.23 317.728 175.345 318.16 174.15 318.16C173.041 318.16 172.172 317.771 171.542 316.992C170.924 316.213 170.614 315.125 170.614 313.728C170.614 312.363 170.924 311.28 171.542 310.48C172.172 309.669 173.036 309.264 174.134 309.264ZM174.326 310.448C173.612 310.448 173.057 310.736 172.662 311.312C172.268 311.877 172.07 312.688 172.07 313.744C172.07 314.8 172.262 315.611 172.646 316.176C173.041 316.731 173.612 317.008 174.358 317.008C175.222 317.008 175.852 316.779 176.246 316.32C176.641 315.851 176.838 315.099 176.838 314.064V313.728C176.838 312.555 176.636 311.717 176.23 311.216C175.825 310.704 175.19 310.448 174.326 310.448ZM184.186 309.28C185.231 309.28 186.005 309.509 186.506 309.968C187.007 310.427 187.258 311.157 187.258 312.16V318H186.234L185.962 316.784H185.898C185.525 317.253 185.13 317.6 184.714 317.824C184.309 318.048 183.743 318.16 183.018 318.16C182.239 318.16 181.594 317.957 181.082 317.552C180.57 317.136 180.314 316.491 180.314 315.616C180.314 314.763 180.65 314.107 181.322 313.648C181.994 313.179 183.029 312.923 184.426 312.88L185.882 312.832V312.32C185.882 311.605 185.727 311.109 185.418 310.832C185.109 310.555 184.671 310.416 184.106 310.416C183.658 310.416 183.231 310.485 182.826 310.624C182.421 310.752 182.042 310.901 181.69 311.072L181.258 310.016C181.631 309.813 182.074 309.643 182.586 309.504C183.098 309.355 183.631 309.28 184.186 309.28ZM184.602 313.856C183.535 313.899 182.794 314.069 182.378 314.368C181.973 314.667 181.77 315.088 181.77 315.632C181.77 316.112 181.914 316.464 182.202 316.688C182.501 316.912 182.879 317.024 183.338 317.024C184.063 317.024 184.666 316.827 185.146 316.432C185.626 316.027 185.866 315.408 185.866 314.576V313.808L184.602 313.856ZM192.771 317.008C192.984 317.008 193.203 316.992 193.427 316.96C193.651 316.917 193.832 316.875 193.971 316.832V317.904C193.822 317.979 193.608 318.037 193.331 318.08C193.054 318.133 192.787 318.16 192.531 318.16C192.083 318.16 191.667 318.085 191.283 317.936C190.91 317.776 190.606 317.504 190.371 317.12C190.136 316.736 190.019 316.197 190.019 315.504V310.512H188.803V309.84L190.035 309.28L190.595 307.456H191.427V309.424H193.907V310.512H191.427V315.472C191.427 315.995 191.55 316.384 191.795 316.64C192.051 316.885 192.376 317.008 192.771 317.008ZM196.408 306.208C196.621 306.208 196.808 306.283 196.968 306.432C197.139 306.571 197.224 306.795 197.224 307.104C197.224 307.403 197.139 307.627 196.968 307.776C196.808 307.925 196.621 308 196.408 308C196.173 308 195.976 307.925 195.816 307.776C195.656 307.627 195.576 307.403 195.576 307.104C195.576 306.795 195.656 306.571 195.816 306.432C195.976 306.283 196.173 306.208 196.408 306.208ZM197.096 309.424V318H195.688V309.424H197.096ZM207.269 313.696C207.269 315.115 206.906 316.213 206.181 316.992C205.466 317.771 204.496 318.16 203.269 318.16C202.512 318.16 201.834 317.989 201.237 317.648C200.65 317.296 200.186 316.789 199.845 316.128C199.504 315.456 199.333 314.645 199.333 313.696C199.333 312.277 199.69 311.184 200.405 310.416C201.12 309.648 202.09 309.264 203.317 309.264C204.096 309.264 204.778 309.44 205.365 309.792C205.962 310.133 206.426 310.635 206.757 311.296C207.098 311.947 207.269 312.747 207.269 313.696ZM200.789 313.696C200.789 314.709 200.986 315.515 201.381 316.112C201.786 316.699 202.426 316.992 203.301 316.992C204.165 316.992 204.8 316.699 205.205 316.112C205.61 315.515 205.813 314.709 205.813 313.696C205.813 312.683 205.61 311.888 205.205 311.312C204.8 310.736 204.16 310.448 203.285 310.448C202.41 310.448 201.776 310.736 201.381 311.312C200.986 311.888 200.789 312.683 200.789 313.696ZM213.629 309.264C214.653 309.264 215.426 309.515 215.949 310.016C216.471 310.507 216.733 311.307 216.733 312.416V318H215.341V312.512C215.341 311.136 214.701 310.448 213.421 310.448C212.471 310.448 211.815 310.715 211.453 311.248C211.09 311.781 210.909 312.549 210.909 313.552V318H209.501V309.424H210.637L210.845 310.592H210.925C211.202 310.144 211.586 309.813 212.077 309.6C212.567 309.376 213.085 309.264 213.629 309.264Z" fill="#1F497A"/>
<path d="M80 321.2H170.489V322H80V321.2ZM177.714 321.2H218.029V322H177.714V321.2Z" fill="#1F497A"/>
<g clip-path="url(#clip0_5745_3818)">
<rect y="86" width="24" height="24" rx="12" fill="#C54600"/>
<path d="M8.92809 102V100.67L12.0346 97.794C12.2988 97.5384 12.5204 97.3082 12.6994 97.1037C12.8812 96.8991 13.019 96.6989 13.1127 96.5028C13.2065 96.304 13.2534 96.0895 13.2534 95.8594C13.2534 95.6037 13.1951 95.3835 13.0787 95.1989C12.9622 95.0114 12.8031 94.8679 12.6014 94.7685C12.3997 94.6662 12.171 94.6151 11.9153 94.6151C11.6483 94.6151 11.4153 94.669 11.2164 94.777C11.0176 94.8849 10.8642 95.0398 10.7562 95.2415C10.6483 95.4432 10.5943 95.6832 10.5943 95.9616H8.84286C8.84286 95.3906 8.97212 94.8949 9.23065 94.4744C9.48917 94.054 9.85138 93.7287 10.3173 93.4986C10.7832 93.2685 11.3201 93.1534 11.9281 93.1534C12.5531 93.1534 13.0971 93.2642 13.5602 93.4858C14.0261 93.7045 14.3883 94.0085 14.6468 94.3977C14.9054 94.7869 15.0346 95.233 15.0346 95.7358C15.0346 96.0653 14.9693 96.3906 14.8386 96.7116C14.7108 97.0327 14.4821 97.3892 14.1525 97.7812C13.823 98.1705 13.3585 98.6378 12.7591 99.1832L11.4849 100.432V100.491H15.1497V102H8.92809Z" fill="white"/>
</g>
<rect x="21" y="94.3901" width="30.0937" height="1" transform="rotate(-33 21 94.3901)" fill="#C54600"/>
<rect x="21.5449" y="101" width="30.0937" height="1" transform="rotate(33 21.5449 101)" fill="#C54600"/>
<g clip-path="url(#clip1_5745_3818)">
<rect x="9" y="240" width="34" height="1" fill="#C54600"/>
<g clip-path="url(#clip2_5745_3818)">
<rect y="228" width="24" height="24" rx="12" fill="#C54600"/>
<path d="M11.9782 244.119C11.3418 244.119 10.775 244.01 10.2779 243.791C9.78356 243.57 9.39293 243.266 9.106 242.879C8.82191 242.49 8.6756 242.041 8.66708 241.533H10.525C10.5364 241.746 10.606 241.933 10.7338 242.095C10.8645 242.254 11.0378 242.378 11.2537 242.466C11.4696 242.554 11.7125 242.598 11.9824 242.598C12.2637 242.598 12.5123 242.548 12.7282 242.449C12.9441 242.349 13.1131 242.212 13.2353 242.036C13.3574 241.859 13.4185 241.656 13.4185 241.426C13.4185 241.193 13.3532 240.987 13.2225 240.808C13.0946 240.626 12.91 240.484 12.6685 240.382C12.4299 240.28 12.1458 240.229 11.8162 240.229H11.0023V238.874H11.8162C12.0946 238.874 12.3404 238.825 12.5534 238.729C12.7694 238.632 12.937 238.499 13.0563 238.328C13.1756 238.155 13.2353 237.953 13.2353 237.723C13.2353 237.504 13.1827 237.312 13.0776 237.148C12.9753 236.98 12.8304 236.849 12.6429 236.756C12.4583 236.662 12.2424 236.615 11.9952 236.615C11.7452 236.615 11.5165 236.661 11.3091 236.751C11.1017 236.839 10.9355 236.966 10.8105 237.131C10.6855 237.295 10.6188 237.489 10.6103 237.71H8.8418C8.85032 237.207 8.99379 236.764 9.27219 236.381C9.5506 235.997 9.9256 235.697 10.3972 235.482C10.8716 235.263 11.4071 235.153 12.0037 235.153C12.606 235.153 13.133 235.263 13.5847 235.482C14.0364 235.7 14.3873 235.996 14.6373 236.368C14.8901 236.737 15.0151 237.152 15.0123 237.612C15.0151 238.101 14.8631 238.509 14.5563 238.835C14.2523 239.162 13.856 239.369 13.3674 239.457V239.526C14.0094 239.608 14.498 239.831 14.8333 240.195C15.1713 240.555 15.339 241.007 15.3361 241.55C15.339 242.047 15.1955 242.489 14.9057 242.875C14.6188 243.261 14.2225 243.565 13.7168 243.787C13.2111 244.009 12.6316 244.119 11.9782 244.119Z" fill="white"/>
</g>
<rect x="43" y="324" width="168" height="1" transform="rotate(-90 43 324)" fill="#C54600"/>
</g>
<g clip-path="url(#clip3_5745_3818)">
<rect y="22" width="48" height="1" fill="#C54600"/>
<g clip-path="url(#clip4_5745_3818)">
<rect y="10" width="24" height="24" rx="12" fill="#C54600"/>
<path d="M13.5687 17.2727V26H11.7235V19.0241H11.6724L9.67383 20.277V18.6406L11.8343 17.2727H13.5687Z" fill="white"/>
</g>
</g>
<defs>
<clipPath id="clip0_5745_3818">
<rect y="86" width="24" height="24" rx="12" fill="white"/>
</clipPath>
<clipPath id="clip1_5745_3818">
<rect width="44" height="168" fill="white" transform="translate(0 156)"/>
</clipPath>
<clipPath id="clip2_5745_3818">
<rect y="228" width="24" height="24" rx="12" fill="white"/>
</clipPath>
<clipPath id="clip3_5745_3818">
<rect width="48" height="24" fill="white" transform="translate(0 10)"/>
</clipPath>
<clipPath id="clip4_5745_3818">
<rect y="10" width="24" height="24" rx="12" fill="white"/>
</clipPath>
</defs>
</svg>
