<svg width="387" height="246" viewBox="0 0 387 246" fill="none" xmlns="http://www.w3.org/2000/svg">
<g clip-path="url(#clip0_5534_57728)">
<path d="M79.8 38V23.72H82.82V35.5H88.62V38H79.8ZM95.3686 26.88C96.8753 26.88 98.0686 27.3133 98.9486 28.18C99.8286 29.0333 100.269 30.2533 100.269 31.84V33.28H93.2286C93.2553 34.12 93.5019 34.78 93.9686 35.26C94.4486 35.74 95.1086 35.98 95.9486 35.98C96.6553 35.98 97.2953 35.9133 97.8686 35.78C98.4419 35.6333 99.0353 35.4133 99.6486 35.12V37.42C99.1153 37.6867 98.5486 37.88 97.9486 38C97.3619 38.1333 96.6486 38.2 95.8086 38.2C94.7153 38.2 93.7486 38 92.9086 37.6C92.0686 37.1867 91.4086 36.5667 90.9286 35.74C90.4486 34.9133 90.2086 33.8733 90.2086 32.62C90.2086 31.34 90.4219 30.28 90.8486 29.44C91.2886 28.5867 91.8953 27.9467 92.6686 27.52C93.4419 27.0933 94.3419 26.88 95.3686 26.88ZM95.3886 29C94.8153 29 94.3353 29.1867 93.9486 29.56C93.5753 29.9333 93.3553 30.5133 93.2886 31.3H97.4686C97.4553 30.6333 97.2819 30.0867 96.9486 29.66C96.6153 29.22 96.0953 29 95.3886 29ZM99.4486 22.88C99.2619 23.0667 99.0153 23.2933 98.7086 23.56C98.4019 23.8267 98.0686 24.1067 97.7086 24.4C97.3619 24.6933 97.0153 24.9733 96.6686 25.24C96.3353 25.4933 96.0419 25.7067 95.7886 25.88H93.8086V25.62C94.0219 25.3667 94.2686 25.0733 94.5486 24.74C94.8419 24.3933 95.1286 24.04 95.4086 23.68C95.6886 23.3067 95.9219 22.9733 96.1086 22.68H99.4486V22.88ZM106.225 26.88C107.572 26.88 108.625 27.4133 109.385 28.48H109.465L109.705 27.08H112.225V38.02C112.225 39.58 111.765 40.7667 110.845 41.58C109.925 42.3933 108.565 42.8 106.765 42.8C105.992 42.8 105.272 42.7533 104.605 42.66C103.952 42.5667 103.312 42.4 102.685 42.16V39.78C104.032 40.34 105.452 40.62 106.945 40.62C108.478 40.62 109.245 39.7933 109.245 38.14V37.92C109.245 37.6933 109.252 37.46 109.265 37.22C109.292 36.98 109.312 36.7667 109.325 36.58H109.245C108.872 37.1533 108.425 37.5667 107.905 37.82C107.385 38.0733 106.798 38.2 106.145 38.2C104.852 38.2 103.838 37.7067 103.105 36.72C102.385 35.72 102.025 34.3333 102.025 32.56C102.025 30.7733 102.398 29.38 103.145 28.38C103.892 27.38 104.918 26.88 106.225 26.88ZM107.165 29.3C105.765 29.3 105.065 30.4 105.065 32.6C105.065 34.7733 105.778 35.86 107.205 35.86C107.965 35.86 108.525 35.6467 108.885 35.22C109.258 34.78 109.445 34.02 109.445 32.94V32.58C109.445 31.4067 109.265 30.5667 108.905 30.06C108.545 29.5533 107.965 29.3 107.165 29.3ZM119.841 26.88C121.348 26.88 122.541 27.3133 123.421 28.18C124.301 29.0333 124.741 30.2533 124.741 31.84V33.28H117.701C117.728 34.12 117.975 34.78 118.441 35.26C118.921 35.74 119.581 35.98 120.421 35.98C121.128 35.98 121.768 35.9133 122.341 35.78C122.915 35.6333 123.508 35.4133 124.121 35.12V37.42C123.588 37.6867 123.021 37.88 122.421 38C121.835 38.1333 121.121 38.2 120.281 38.2C119.188 38.2 118.221 38 117.381 37.6C116.541 37.1867 115.881 36.5667 115.401 35.74C114.921 34.9133 114.681 33.8733 114.681 32.62C114.681 31.34 114.895 30.28 115.321 29.44C115.761 28.5867 116.368 27.9467 117.141 27.52C117.915 27.0933 118.815 26.88 119.841 26.88ZM119.861 29C119.288 29 118.808 29.1867 118.421 29.56C118.048 29.9333 117.828 30.5133 117.761 31.3H121.941C121.928 30.6333 121.755 30.0867 121.421 29.66C121.088 29.22 120.568 29 119.861 29ZM133.358 26.88C134.531 26.88 135.471 27.2 136.178 27.84C136.884 28.4667 137.238 29.48 137.238 30.88V38H134.258V31.62C134.258 30.8333 134.118 30.2467 133.838 29.86C133.558 29.46 133.111 29.26 132.498 29.26C131.591 29.26 130.971 29.5733 130.638 30.2C130.304 30.8133 130.138 31.7 130.138 32.86V38H127.158V27.08H129.438L129.838 28.48H129.998C130.344 27.92 130.818 27.5133 131.418 27.26C132.031 27.0067 132.678 26.88 133.358 26.88ZM143.762 38.2C142.549 38.2 141.556 37.7267 140.782 36.78C140.022 35.82 139.642 34.4133 139.642 32.56C139.642 30.6933 140.029 29.28 140.802 28.32C141.576 27.36 142.589 26.88 143.842 26.88C144.629 26.88 145.276 27.0333 145.782 27.34C146.289 27.6467 146.689 28.0267 146.982 28.48H147.082C147.042 28.2667 146.996 27.96 146.942 27.56C146.889 27.1467 146.862 26.7267 146.862 26.3V22.8H149.842V38H147.562L146.982 36.58H146.862C146.569 37.0333 146.176 37.42 145.682 37.74C145.189 38.0467 144.549 38.2 143.762 38.2ZM144.802 35.82C145.629 35.82 146.209 35.58 146.542 35.1C146.876 34.6067 147.049 33.8733 147.062 32.9V32.58C147.062 31.5133 146.896 30.7 146.562 30.14C146.242 29.58 145.642 29.3 144.762 29.3C144.109 29.3 143.596 29.5867 143.222 30.16C142.849 30.72 142.662 31.5333 142.662 32.6C142.662 33.6667 142.849 34.4733 143.222 35.02C143.596 35.5533 144.122 35.82 144.802 35.82ZM157.458 26.88C158.965 26.88 160.158 27.3133 161.038 28.18C161.918 29.0333 162.358 30.2533 162.358 31.84V33.28H155.318C155.345 34.12 155.592 34.78 156.058 35.26C156.538 35.74 157.198 35.98 158.038 35.98C158.745 35.98 159.385 35.9133 159.958 35.78C160.532 35.6333 161.125 35.4133 161.738 35.12V37.42C161.205 37.6867 160.638 37.88 160.038 38C159.452 38.1333 158.738 38.2 157.898 38.2C156.805 38.2 155.838 38 154.998 37.6C154.158 37.1867 153.498 36.5667 153.018 35.74C152.538 34.9133 152.298 33.8733 152.298 32.62C152.298 31.34 152.512 30.28 152.938 29.44C153.378 28.5867 153.985 27.9467 154.758 27.52C155.532 27.0933 156.432 26.88 157.458 26.88ZM157.478 29C156.905 29 156.425 29.1867 156.038 29.56C155.665 29.9333 155.445 30.5133 155.378 31.3H159.558C159.545 30.6333 159.372 30.0867 159.038 29.66C158.705 29.22 158.185 29 157.478 29Z" fill="#333333"/>
<path d="M172.8 32.52C172.8 30.8933 173.033 29.3267 173.5 27.82C173.98 26.3 174.727 24.9333 175.74 23.72H177.4C176.467 24.9733 175.76 26.3533 175.28 27.86C174.813 29.3667 174.58 30.9133 174.58 32.5C174.58 34.0467 174.813 35.5667 175.28 37.06C175.76 38.54 176.46 39.9067 177.38 41.16H175.74C174.727 39.9867 173.98 38.66 173.5 37.18C173.033 35.6867 172.8 34.1333 172.8 32.52ZM189.016 32.62C189.016 34.3933 188.563 35.7667 187.656 36.74C186.763 37.7133 185.549 38.2 184.016 38.2C183.069 38.2 182.223 37.9867 181.476 37.56C180.743 37.12 180.163 36.4867 179.736 35.66C179.309 34.82 179.096 33.8067 179.096 32.62C179.096 30.8467 179.543 29.48 180.436 28.52C181.329 27.56 182.543 27.08 184.076 27.08C185.049 27.08 185.903 27.3 186.636 27.74C187.383 28.1667 187.963 28.7933 188.376 29.62C188.803 30.4333 189.016 31.4333 189.016 32.62ZM180.916 32.62C180.916 33.8867 181.163 34.8933 181.656 35.64C182.163 36.3733 182.963 36.74 184.056 36.74C185.136 36.74 185.929 36.3733 186.436 35.64C186.943 34.8933 187.196 33.8867 187.196 32.62C187.196 31.3533 186.943 30.36 186.436 29.64C185.929 28.92 185.129 28.56 184.036 28.56C182.943 28.56 182.149 28.92 181.656 29.64C181.163 30.36 180.916 31.3533 180.916 32.62ZM193.565 26.5C193.565 26.9533 193.552 27.38 193.525 27.78C193.512 28.1667 193.492 28.4733 193.465 28.7H193.565C193.872 28.2467 194.292 27.8667 194.825 27.56C195.359 27.2533 196.045 27.1 196.885 27.1C198.219 27.1 199.285 27.5667 200.085 28.5C200.899 29.42 201.305 30.8 201.305 32.64C201.305 34.48 200.899 35.8667 200.085 36.8C199.272 37.7333 198.205 38.2 196.885 38.2C196.045 38.2 195.359 38.0467 194.825 37.74C194.292 37.4333 193.872 37.0667 193.565 36.64H193.425L193.065 38H191.805V22.8H193.565V26.5ZM196.585 28.56C195.452 28.56 194.665 28.8867 194.225 29.54C193.785 30.1933 193.565 31.2067 193.565 32.58V32.66C193.565 33.98 193.779 34.9933 194.205 35.7C194.645 36.3933 195.452 36.74 196.625 36.74C197.585 36.74 198.299 36.3867 198.765 35.68C199.245 34.9733 199.485 33.9533 199.485 32.62C199.485 29.9133 198.519 28.56 196.585 28.56ZM205.87 38H204.11V22.8H205.87V38ZM210.166 23.26C210.433 23.26 210.666 23.3533 210.866 23.54C211.08 23.7133 211.186 23.9933 211.186 24.38C211.186 24.7533 211.08 25.0333 210.866 25.22C210.666 25.4067 210.433 25.5 210.166 25.5C209.873 25.5 209.626 25.4067 209.426 25.22C209.226 25.0333 209.126 24.7533 209.126 24.38C209.126 23.9933 209.226 23.7133 209.426 23.54C209.626 23.3533 209.873 23.26 210.166 23.26ZM211.026 27.28V38H209.266V27.28H211.026ZM218.223 27.08C218.929 27.08 219.563 27.2133 220.123 27.48C220.696 27.7467 221.183 28.1533 221.583 28.7H221.683L221.923 27.28H223.323V38.18C223.323 39.7133 222.929 40.8667 222.143 41.64C221.369 42.4133 220.163 42.8 218.523 42.8C216.949 42.8 215.663 42.5733 214.663 42.12V40.5C215.716 41.06 217.036 41.34 218.623 41.34C219.543 41.34 220.263 41.0667 220.783 40.52C221.316 39.9867 221.583 39.2533 221.583 38.32V37.9C221.583 37.74 221.589 37.5133 221.603 37.22C221.616 36.9133 221.629 36.7 221.643 36.58H221.563C220.843 37.66 219.736 38.2 218.243 38.2C216.856 38.2 215.769 37.7133 214.983 36.74C214.209 35.7667 213.823 34.4067 213.823 32.66C213.823 30.9533 214.209 29.6 214.983 28.6C215.769 27.5867 216.849 27.08 218.223 27.08ZM218.463 28.56C217.569 28.56 216.876 28.92 216.383 29.64C215.889 30.3467 215.643 31.36 215.643 32.68C215.643 34 215.883 35.0133 216.363 35.72C216.856 36.4133 217.569 36.76 218.503 36.76C219.583 36.76 220.369 36.4733 220.863 35.9C221.356 35.3133 221.603 34.3733 221.603 33.08V32.66C221.603 31.1933 221.349 30.1467 220.843 29.52C220.336 28.88 219.543 28.56 218.463 28.56ZM230.787 27.1C232.094 27.1 233.061 27.3867 233.687 27.96C234.314 28.5333 234.627 29.4467 234.627 30.7V38H233.347L233.007 36.48H232.927C232.461 37.0667 231.967 37.5 231.447 37.78C230.941 38.06 230.234 38.2 229.327 38.2C228.354 38.2 227.547 37.9467 226.907 37.44C226.267 36.92 225.947 36.1133 225.947 35.02C225.947 33.9533 226.367 33.1333 227.207 32.56C228.047 31.9733 229.341 31.6533 231.087 31.6L232.907 31.54V30.9C232.907 30.0067 232.714 29.3867 232.327 29.04C231.941 28.6933 231.394 28.52 230.687 28.52C230.127 28.52 229.594 28.6067 229.087 28.78C228.581 28.94 228.107 29.1267 227.667 29.34L227.127 28.02C227.594 27.7667 228.147 27.5533 228.787 27.38C229.427 27.1933 230.094 27.1 230.787 27.1ZM231.307 32.82C229.974 32.8733 229.047 33.0867 228.527 33.46C228.021 33.8333 227.767 34.36 227.767 35.04C227.767 35.64 227.947 36.08 228.307 36.36C228.681 36.64 229.154 36.78 229.727 36.78C230.634 36.78 231.387 36.5333 231.987 36.04C232.587 35.5333 232.887 34.76 232.887 33.72V32.76L231.307 32.82ZM241.518 36.76C241.785 36.76 242.058 36.74 242.338 36.7C242.618 36.6467 242.845 36.5933 243.018 36.54V37.88C242.832 37.9733 242.565 38.0467 242.218 38.1C241.872 38.1667 241.538 38.2 241.218 38.2C240.658 38.2 240.138 38.1067 239.658 37.92C239.192 37.72 238.812 37.38 238.518 36.9C238.225 36.42 238.078 35.7467 238.078 34.88V28.64H236.558V27.8L238.098 27.1L238.798 24.82H239.838V27.28H242.938V28.64H239.838V34.84C239.838 35.4933 239.992 35.98 240.298 36.3C240.618 36.6067 241.025 36.76 241.518 36.76ZM254.485 32.62C254.485 34.3933 254.032 35.7667 253.125 36.74C252.232 37.7133 251.018 38.2 249.485 38.2C248.538 38.2 247.692 37.9867 246.945 37.56C246.212 37.12 245.632 36.4867 245.205 35.66C244.778 34.82 244.565 33.8067 244.565 32.62C244.565 30.8467 245.012 29.48 245.905 28.52C246.798 27.56 248.012 27.08 249.545 27.08C250.518 27.08 251.372 27.3 252.105 27.74C252.852 28.1667 253.432 28.7933 253.845 29.62C254.272 30.4333 254.485 31.4333 254.485 32.62ZM246.385 32.62C246.385 33.8867 246.632 34.8933 247.125 35.64C247.632 36.3733 248.432 36.74 249.525 36.74C250.605 36.74 251.398 36.3733 251.905 35.64C252.412 34.8933 252.665 33.8867 252.665 32.62C252.665 31.3533 252.412 30.36 251.905 29.64C251.398 28.92 250.598 28.56 249.505 28.56C248.412 28.56 247.618 28.92 247.125 29.64C246.632 30.36 246.385 31.3533 246.385 32.62ZM258.174 23.26C258.441 23.26 258.674 23.3533 258.874 23.54C259.088 23.7133 259.194 23.9933 259.194 24.38C259.194 24.7533 259.088 25.0333 258.874 25.22C258.674 25.4067 258.441 25.5 258.174 25.5C257.881 25.5 257.634 25.4067 257.434 25.22C257.234 25.0333 257.134 24.7533 257.134 24.38C257.134 23.9933 257.234 23.7133 257.434 23.54C257.634 23.3533 257.881 23.26 258.174 23.26ZM259.034 27.28V38H257.274V27.28H259.034ZM267.43 27.08C267.63 27.08 267.844 27.0933 268.07 27.12C268.31 27.1333 268.517 27.16 268.69 27.2L268.47 28.82C268.297 28.78 268.104 28.7467 267.89 28.72C267.69 28.6933 267.497 28.68 267.31 28.68C266.764 28.68 266.25 28.8333 265.77 29.14C265.29 29.4333 264.904 29.8533 264.61 30.4C264.33 30.9333 264.19 31.56 264.19 32.28V38H262.43V27.28H263.87L264.07 29.24H264.15C264.497 28.6533 264.944 28.1467 265.49 27.72C266.037 27.2933 266.684 27.08 267.43 27.08ZM274.442 27.08C275.362 27.08 276.148 27.28 276.802 27.68C277.468 28.08 277.975 28.6467 278.322 29.38C278.682 30.1 278.862 30.9467 278.862 31.92V32.98H271.522C271.548 34.1933 271.855 35.12 272.442 35.76C273.042 36.3867 273.875 36.7 274.942 36.7C275.622 36.7 276.222 36.64 276.742 36.52C277.275 36.3867 277.822 36.2 278.382 35.96V37.5C277.835 37.74 277.295 37.9133 276.762 38.02C276.228 38.14 275.595 38.2 274.862 38.2C273.848 38.2 272.948 37.9933 272.162 37.58C271.388 37.1667 270.782 36.5533 270.342 35.74C269.915 34.9133 269.702 33.9067 269.702 32.72C269.702 31.5467 269.895 30.54 270.282 29.7C270.682 28.86 271.235 28.2133 271.942 27.76C272.662 27.3067 273.495 27.08 274.442 27.08ZM274.422 28.52C273.582 28.52 272.915 28.7933 272.422 29.34C271.942 29.8733 271.655 30.62 271.562 31.58H277.022C277.008 30.6733 276.795 29.94 276.382 29.38C275.968 28.8067 275.315 28.52 274.422 28.52ZM285.091 32.52C285.091 34.1333 284.851 35.6867 284.371 37.18C283.904 38.66 283.164 39.9867 282.151 41.16H280.511C281.431 39.9067 282.124 38.54 282.591 37.06C283.071 35.5667 283.311 34.0467 283.311 32.5C283.311 30.9133 283.071 29.3667 282.591 27.86C282.124 26.3533 281.424 24.9733 280.491 23.72H282.151C283.164 24.9333 283.904 26.3 284.371 27.82C284.851 29.3267 285.091 30.8933 285.091 32.52Z" fill="#333333"/>
<path d="M84.46 68H82.66V55.3H78.2V53.72H88.9V55.3H84.46V68ZM93.547 57.08C94.467 57.08 95.2537 57.28 95.907 57.68C96.5737 58.08 97.0804 58.6467 97.427 59.38C97.787 60.1 97.967 60.9467 97.967 61.92V62.98H90.627C90.6537 64.1933 90.9604 65.12 91.547 65.76C92.147 66.3867 92.9804 66.7 94.047 66.7C94.727 66.7 95.327 66.64 95.847 66.52C96.3804 66.3867 96.927 66.2 97.487 65.96V67.5C96.9404 67.74 96.4004 67.9133 95.867 68.02C95.3337 68.14 94.7004 68.2 93.967 68.2C92.9537 68.2 92.0537 67.9933 91.267 67.58C90.4937 67.1667 89.887 66.5533 89.447 65.74C89.0204 64.9133 88.807 63.9067 88.807 62.72C88.807 61.5467 89.0004 60.54 89.387 59.7C89.787 58.86 90.3404 58.2133 91.047 57.76C91.767 57.3067 92.6004 57.08 93.547 57.08ZM93.527 58.52C92.687 58.52 92.0204 58.7933 91.527 59.34C91.047 59.8733 90.7604 60.62 90.667 61.58H96.127C96.1137 60.6733 95.9004 59.94 95.487 59.38C95.0737 58.8067 94.4204 58.52 93.527 58.52ZM102.845 62.52L99.1455 57.28H101.145L103.905 61.32L106.645 57.28H108.625L104.925 62.52L108.825 68H106.825L103.905 63.72L100.945 68H98.9655L102.845 62.52ZM114.471 66.76C114.738 66.76 115.011 66.74 115.291 66.7C115.571 66.6467 115.798 66.5933 115.971 66.54V67.88C115.785 67.9733 115.518 68.0467 115.171 68.1C114.825 68.1667 114.491 68.2 114.171 68.2C113.611 68.2 113.091 68.1067 112.611 67.92C112.145 67.72 111.765 67.38 111.471 66.9C111.178 66.42 111.031 65.7467 111.031 64.88V58.64H109.511V57.8L111.051 57.1L111.751 54.82H112.791V57.28H115.891V58.64H112.791V64.84C112.791 65.4933 112.945 65.98 113.251 66.3C113.571 66.6067 113.978 66.76 114.471 66.76ZM122.258 57.08C123.178 57.08 123.965 57.28 124.618 57.68C125.285 58.08 125.791 58.6467 126.138 59.38C126.498 60.1 126.678 60.9467 126.678 61.92V62.98H119.338C119.365 64.1933 119.671 65.12 120.258 65.76C120.858 66.3867 121.691 66.7 122.758 66.7C123.438 66.7 124.038 66.64 124.558 66.52C125.091 66.3867 125.638 66.2 126.198 65.96V67.5C125.651 67.74 125.111 67.9133 124.578 68.02C124.045 68.14 123.411 68.2 122.678 68.2C121.665 68.2 120.765 67.9933 119.978 67.58C119.205 67.1667 118.598 66.5533 118.158 65.74C117.731 64.9133 117.518 63.9067 117.518 62.72C117.518 61.5467 117.711 60.54 118.098 59.7C118.498 58.86 119.051 58.2133 119.758 57.76C120.478 57.3067 121.311 57.08 122.258 57.08ZM122.238 58.52C121.398 58.52 120.731 58.7933 120.238 59.34C119.758 59.8733 119.471 60.62 119.378 61.58H124.838C124.825 60.6733 124.611 59.94 124.198 59.38C123.785 58.8067 123.131 58.52 122.238 58.52ZM138.742 57.08C139.662 57.08 140.449 57.28 141.102 57.68C141.769 58.08 142.276 58.6467 142.622 59.38C142.982 60.1 143.162 60.9467 143.162 61.92V62.98H135.822C135.849 64.1933 136.156 65.12 136.742 65.76C137.342 66.3867 138.176 66.7 139.242 66.7C139.922 66.7 140.522 66.64 141.042 66.52C141.576 66.3867 142.122 66.2 142.682 65.96V67.5C142.136 67.74 141.596 67.9133 141.062 68.02C140.529 68.14 139.896 68.2 139.162 68.2C138.149 68.2 137.249 67.9933 136.462 67.58C135.689 67.1667 135.082 66.5533 134.642 65.74C134.216 64.9133 134.002 63.9067 134.002 62.72C134.002 61.5467 134.196 60.54 134.582 59.7C134.982 58.86 135.536 58.2133 136.242 57.76C136.962 57.3067 137.796 57.08 138.742 57.08ZM138.722 58.52C137.882 58.52 137.216 58.7933 136.722 59.34C136.242 59.8733 135.956 60.62 135.862 61.58H141.322C141.309 60.6733 141.096 59.94 140.682 59.38C140.269 58.8067 139.616 58.52 138.722 58.52ZM148.041 62.52L144.341 57.28H146.341L149.101 61.32L151.841 57.28H153.821L150.121 62.52L154.021 68H152.021L149.101 63.72L146.141 68H144.161L148.041 62.52ZM161.187 57.08C162.507 57.08 163.567 57.54 164.367 58.46C165.18 59.38 165.587 60.7667 165.587 62.62C165.587 64.4467 165.18 65.8333 164.367 66.78C163.567 67.7267 162.5 68.2 161.167 68.2C160.34 68.2 159.653 68.0467 159.107 67.74C158.573 67.42 158.153 67.0533 157.847 66.64H157.727C157.753 66.8667 157.78 67.1533 157.807 67.5C157.833 67.8467 157.847 68.1467 157.847 68.4V72.8H156.087V57.28H157.527L157.767 58.74H157.847C158.167 58.2733 158.587 57.88 159.107 57.56C159.627 57.24 160.32 57.08 161.187 57.08ZM160.867 58.56C159.773 58.56 159 58.8667 158.547 59.48C158.107 60.0933 157.873 61.0267 157.847 62.28V62.62C157.847 63.94 158.06 64.96 158.487 65.68C158.927 66.3867 159.733 66.74 160.907 66.74C161.56 66.74 162.093 66.56 162.507 66.2C162.933 65.84 163.247 65.3533 163.447 64.74C163.66 64.1133 163.767 63.4 163.767 62.6C163.767 61.3733 163.527 60.3933 163.047 59.66C162.58 58.9267 161.853 58.56 160.867 58.56ZM170.151 68H168.391V52.8H170.151V68ZM174.448 53.26C174.714 53.26 174.948 53.3533 175.148 53.54C175.361 53.7133 175.468 53.9933 175.468 54.38C175.468 54.7533 175.361 55.0333 175.148 55.22C174.948 55.4067 174.714 55.5 174.448 55.5C174.154 55.5 173.908 55.4067 173.708 55.22C173.508 55.0333 173.408 54.7533 173.408 54.38C173.408 53.9933 173.508 53.7133 173.708 53.54C173.908 53.3533 174.154 53.26 174.448 53.26ZM175.308 57.28V68H173.548V57.28H175.308ZM183.004 68.2C182.057 68.2 181.211 68.0067 180.464 67.62C179.731 67.2333 179.151 66.6333 178.724 65.82C178.311 65.0067 178.104 63.9667 178.104 62.7C178.104 61.38 178.324 60.3067 178.764 59.48C179.204 58.6533 179.797 58.0467 180.544 57.66C181.304 57.2733 182.164 57.08 183.124 57.08C183.671 57.08 184.197 57.14 184.704 57.26C185.211 57.3667 185.624 57.5 185.944 57.66L185.404 59.12C185.084 59 184.711 58.8867 184.284 58.78C183.857 58.6733 183.457 58.62 183.084 58.62C180.977 58.62 179.924 59.9733 179.924 62.68C179.924 63.9733 180.177 64.9667 180.684 65.66C181.204 66.34 181.971 66.68 182.984 66.68C183.571 66.68 184.084 66.62 184.524 66.5C184.977 66.38 185.391 66.2333 185.764 66.06V67.62C185.404 67.8067 185.004 67.9467 184.564 68.04C184.137 68.1467 183.617 68.2 183.004 68.2ZM192.373 57.1C193.68 57.1 194.647 57.3867 195.273 57.96C195.9 58.5333 196.213 59.4467 196.213 60.7V68H194.933L194.593 66.48H194.513C194.047 67.0667 193.553 67.5 193.033 67.78C192.527 68.06 191.82 68.2 190.913 68.2C189.94 68.2 189.133 67.9467 188.493 67.44C187.853 66.92 187.533 66.1133 187.533 65.02C187.533 63.9533 187.953 63.1333 188.793 62.56C189.633 61.9733 190.927 61.6533 192.673 61.6L194.493 61.54V60.9C194.493 60.0067 194.3 59.3867 193.913 59.04C193.527 58.6933 192.98 58.52 192.273 58.52C191.713 58.52 191.18 58.6067 190.673 58.78C190.167 58.94 189.693 59.1267 189.253 59.34L188.713 58.02C189.18 57.7667 189.733 57.5533 190.373 57.38C191.013 57.1933 191.68 57.1 192.373 57.1ZM192.893 62.82C191.56 62.8733 190.633 63.0867 190.113 63.46C189.607 63.8333 189.353 64.36 189.353 65.04C189.353 65.64 189.533 66.08 189.893 66.36C190.267 66.64 190.74 66.78 191.313 66.78C192.22 66.78 192.973 66.5333 193.573 66.04C194.173 65.5333 194.473 64.76 194.473 63.72V62.76L192.893 62.82ZM203.104 66.76C203.371 66.76 203.644 66.74 203.924 66.7C204.204 66.6467 204.431 66.5933 204.604 66.54V67.88C204.418 67.9733 204.151 68.0467 203.804 68.1C203.458 68.1667 203.124 68.2 202.804 68.2C202.244 68.2 201.724 68.1067 201.244 67.92C200.778 67.72 200.398 67.38 200.104 66.9C199.811 66.42 199.664 65.7467 199.664 64.88V58.64H198.144V57.8L199.684 57.1L200.384 54.82H201.424V57.28H204.524V58.64H201.424V64.84C201.424 65.4933 201.578 65.98 201.884 66.3C202.204 66.6067 202.611 66.76 203.104 66.76ZM207.651 53.26C207.917 53.26 208.151 53.3533 208.351 53.54C208.564 53.7133 208.671 53.9933 208.671 54.38C208.671 54.7533 208.564 55.0333 208.351 55.22C208.151 55.4067 207.917 55.5 207.651 55.5C207.357 55.5 207.111 55.4067 206.911 55.22C206.711 55.0333 206.611 54.7533 206.611 54.38C206.611 53.9933 206.711 53.7133 206.911 53.54C207.111 53.3533 207.357 53.26 207.651 53.26ZM208.511 57.28V68H206.751V57.28H208.511ZM216.847 58.64H214.147V68H212.387V58.64H210.507V57.82L212.387 57.22V56.6C212.387 55.2133 212.694 54.22 213.307 53.62C213.92 53.0067 214.774 52.7 215.867 52.7C216.294 52.7 216.68 52.74 217.027 52.82C217.387 52.8867 217.694 52.9667 217.947 53.06L217.487 54.44C217.274 54.3733 217.027 54.3067 216.747 54.24C216.467 54.1733 216.18 54.14 215.887 54.14C215.3 54.14 214.86 54.34 214.567 54.74C214.287 55.1267 214.147 55.74 214.147 56.58V57.28H216.847V58.64Z" fill="#43474E"/>
<rect x="79" y="91" width="46" height="46" rx="2" fill="white"/>
<rect x="79" y="91" width="46" height="46" rx="2" stroke="#333333" stroke-width="2"/>
<path d="M154.5 114.84C154.5 115.947 154.36 116.953 154.08 117.86C153.813 118.753 153.4 119.527 152.84 120.18C152.293 120.833 151.6 121.333 150.76 121.68C149.933 122.027 148.967 122.2 147.86 122.2C146.727 122.2 145.74 122.027 144.9 121.68C144.073 121.32 143.38 120.82 142.82 120.18C142.273 119.527 141.867 118.747 141.6 117.84C141.333 116.933 141.2 115.927 141.2 114.82C141.2 113.353 141.44 112.073 141.92 110.98C142.4 109.887 143.133 109.033 144.12 108.42C145.12 107.807 146.373 107.5 147.88 107.5C149.347 107.5 150.567 107.807 151.54 108.42C152.527 109.02 153.267 109.873 153.76 110.98C154.253 112.073 154.5 113.36 154.5 114.84ZM143.48 114.84C143.48 115.987 143.633 116.973 143.94 117.8C144.247 118.613 144.727 119.247 145.38 119.7C146.033 120.14 146.86 120.36 147.86 120.36C148.873 120.36 149.7 120.14 150.34 119.7C150.98 119.247 151.453 118.613 151.76 117.8C152.067 116.973 152.22 115.987 152.22 114.84C152.22 113.12 151.873 111.78 151.18 110.82C150.5 109.847 149.4 109.36 147.88 109.36C146.867 109.36 146.033 109.58 145.38 110.02C144.727 110.46 144.247 111.087 143.94 111.9C143.633 112.713 143.48 113.693 143.48 114.84ZM162.743 111.02C164.036 111.02 165.076 111.487 165.863 112.42C166.663 113.353 167.063 114.747 167.063 116.6C167.063 117.813 166.883 118.84 166.523 119.68C166.163 120.52 165.656 121.153 165.003 121.58C164.35 121.993 163.59 122.2 162.723 122.2C162.176 122.2 161.696 122.133 161.283 122C160.87 121.853 160.516 121.667 160.223 121.44C159.943 121.2 159.696 120.947 159.483 120.68H159.343C159.383 120.92 159.416 121.207 159.443 121.54C159.47 121.86 159.483 122.147 159.483 122.4V126.8H157.363V111.22H159.083L159.383 112.66H159.483C159.696 112.367 159.95 112.093 160.243 111.84C160.536 111.587 160.89 111.387 161.303 111.24C161.716 111.093 162.196 111.02 162.743 111.02ZM162.243 112.76C161.576 112.76 161.043 112.893 160.643 113.16C160.243 113.413 159.95 113.8 159.763 114.32C159.59 114.827 159.496 115.473 159.483 116.26V116.58C159.483 117.407 159.57 118.113 159.743 118.7C159.916 119.273 160.203 119.713 160.603 120.02C161.016 120.313 161.576 120.46 162.283 120.46C162.883 120.46 163.37 120.3 163.743 119.98C164.13 119.647 164.416 119.187 164.603 118.6C164.79 118.013 164.883 117.333 164.883 116.56C164.883 115.387 164.67 114.46 164.243 113.78C163.816 113.1 163.15 112.76 162.243 112.76ZM173.645 120.48C173.925 120.48 174.212 120.453 174.505 120.4C174.799 120.347 175.052 120.287 175.265 120.22V121.82C175.039 121.927 174.732 122.013 174.345 122.08C173.959 122.16 173.572 122.2 173.185 122.2C172.599 122.2 172.059 122.1 171.565 121.9C171.085 121.7 170.699 121.353 170.405 120.86C170.112 120.367 169.965 119.68 169.965 118.8V112.84H168.465V111.88L170.045 111.08L170.785 108.8H172.085V111.22H175.165V112.84H172.085V118.76C172.085 119.347 172.225 119.78 172.505 120.06C172.799 120.34 173.179 120.48 173.645 120.48ZM179.542 111.22V122H177.422V111.22H179.542ZM178.502 107.12C178.822 107.12 179.102 107.213 179.342 107.4C179.582 107.587 179.702 107.9 179.702 108.34C179.702 108.767 179.582 109.08 179.342 109.28C179.102 109.467 178.822 109.56 178.502 109.56C178.155 109.56 177.862 109.467 177.622 109.28C177.395 109.08 177.282 108.767 177.282 108.34C177.282 107.9 177.395 107.587 177.622 107.4C177.862 107.213 178.155 107.12 178.502 107.12ZM192.371 116.6C192.371 117.493 192.251 118.287 192.011 118.98C191.771 119.673 191.431 120.26 190.991 120.74C190.551 121.22 190.018 121.587 189.391 121.84C188.764 122.08 188.058 122.2 187.271 122.2C186.551 122.2 185.884 122.08 185.271 121.84C184.658 121.587 184.124 121.22 183.671 120.74C183.231 120.26 182.884 119.673 182.631 118.98C182.378 118.287 182.251 117.487 182.251 116.58C182.251 115.393 182.451 114.387 182.851 113.56C183.264 112.733 183.851 112.107 184.611 111.68C185.384 111.24 186.291 111.02 187.331 111.02C188.318 111.02 189.184 111.24 189.931 111.68C190.691 112.107 191.284 112.733 191.711 113.56C192.151 114.387 192.371 115.4 192.371 116.6ZM184.431 116.6C184.431 117.4 184.531 118.093 184.731 118.68C184.931 119.253 185.244 119.693 185.671 120C186.098 120.307 186.644 120.46 187.311 120.46C187.978 120.46 188.524 120.307 188.951 120C189.378 119.693 189.691 119.253 189.891 118.68C190.091 118.093 190.191 117.4 190.191 116.6C190.191 115.773 190.084 115.08 189.871 114.52C189.671 113.96 189.358 113.533 188.931 113.24C188.518 112.933 187.971 112.78 187.291 112.78C186.291 112.78 185.564 113.113 185.111 113.78C184.658 114.447 184.431 115.387 184.431 116.6ZM200.518 111.02C201.772 111.02 202.732 111.333 203.398 111.96C204.065 112.587 204.398 113.593 204.398 114.98V122H202.298V115.28C202.298 114.44 202.118 113.813 201.758 113.4C201.412 112.973 200.852 112.76 200.078 112.76C198.985 112.76 198.225 113.087 197.798 113.74C197.385 114.393 197.178 115.333 197.178 116.56V122H195.058V111.22H196.738L197.038 112.66H197.158C197.398 112.287 197.692 111.98 198.038 111.74C198.385 111.5 198.772 111.32 199.198 111.2C199.625 111.08 200.065 111.02 200.518 111.02ZM218.631 122H216.531V112.52C216.531 112.187 216.531 111.88 216.531 111.6C216.545 111.307 216.558 111.027 216.571 110.76C216.585 110.48 216.598 110.213 216.611 109.96C216.438 110.133 216.258 110.3 216.071 110.46C215.885 110.62 215.671 110.807 215.431 111.02L213.871 112.28L212.791 110.92L216.871 107.72H218.631V122Z" fill="#333333"/>
<path d="M146.46 154H144.66V141.3H140.2V139.72H150.9V141.3H146.46V154ZM155.547 143.08C156.467 143.08 157.254 143.28 157.907 143.68C158.574 144.08 159.08 144.647 159.427 145.38C159.787 146.1 159.967 146.947 159.967 147.92V148.98H152.627C152.654 150.193 152.96 151.12 153.547 151.76C154.147 152.387 154.98 152.7 156.047 152.7C156.727 152.7 157.327 152.64 157.847 152.52C158.38 152.387 158.927 152.2 159.487 151.96V153.5C158.94 153.74 158.4 153.913 157.867 154.02C157.334 154.14 156.7 154.2 155.967 154.2C154.954 154.2 154.054 153.993 153.267 153.58C152.494 153.167 151.887 152.553 151.447 151.74C151.02 150.913 150.807 149.907 150.807 148.72C150.807 147.547 151 146.54 151.387 145.7C151.787 144.86 152.34 144.213 153.047 143.76C153.767 143.307 154.6 143.08 155.547 143.08ZM155.527 144.52C154.687 144.52 154.02 144.793 153.527 145.34C153.047 145.873 152.76 146.62 152.667 147.58H158.127C158.114 146.673 157.9 145.94 157.487 145.38C157.074 144.807 156.42 144.52 155.527 144.52ZM164.845 148.52L161.145 143.28H163.145L165.905 147.32L168.645 143.28H170.625L166.925 148.52L170.825 154H168.825L165.905 149.72L162.945 154H160.965L164.845 148.52ZM176.471 152.76C176.738 152.76 177.011 152.74 177.291 152.7C177.571 152.647 177.798 152.593 177.971 152.54V153.88C177.785 153.973 177.518 154.047 177.171 154.1C176.825 154.167 176.491 154.2 176.171 154.2C175.611 154.2 175.091 154.107 174.611 153.92C174.145 153.72 173.765 153.38 173.471 152.9C173.178 152.42 173.031 151.747 173.031 150.88V144.64H171.511V143.8L173.051 143.1L173.751 140.82H174.791V143.28H177.891V144.64H174.791V150.84C174.791 151.493 174.945 151.98 175.251 152.3C175.571 152.607 175.978 152.76 176.471 152.76ZM184.258 143.08C185.178 143.08 185.965 143.28 186.618 143.68C187.285 144.08 187.791 144.647 188.138 145.38C188.498 146.1 188.678 146.947 188.678 147.92V148.98H181.338C181.365 150.193 181.671 151.12 182.258 151.76C182.858 152.387 183.691 152.7 184.758 152.7C185.438 152.7 186.038 152.64 186.558 152.52C187.091 152.387 187.638 152.2 188.198 151.96V153.5C187.651 153.74 187.111 153.913 186.578 154.02C186.045 154.14 185.411 154.2 184.678 154.2C183.665 154.2 182.765 153.993 181.978 153.58C181.205 153.167 180.598 152.553 180.158 151.74C179.731 150.913 179.518 149.907 179.518 148.72C179.518 147.547 179.711 146.54 180.098 145.7C180.498 144.86 181.051 144.213 181.758 143.76C182.478 143.307 183.311 143.08 184.258 143.08ZM184.238 144.52C183.398 144.52 182.731 144.793 182.238 145.34C181.758 145.873 181.471 146.62 181.378 147.58H186.838C186.825 146.673 186.611 145.94 186.198 145.38C185.785 144.807 185.131 144.52 184.238 144.52ZM200.742 143.08C201.662 143.08 202.449 143.28 203.102 143.68C203.769 144.08 204.276 144.647 204.622 145.38C204.982 146.1 205.162 146.947 205.162 147.92V148.98H197.822C197.849 150.193 198.156 151.12 198.742 151.76C199.342 152.387 200.176 152.7 201.242 152.7C201.922 152.7 202.522 152.64 203.042 152.52C203.576 152.387 204.122 152.2 204.682 151.96V153.5C204.136 153.74 203.596 153.913 203.062 154.02C202.529 154.14 201.896 154.2 201.162 154.2C200.149 154.2 199.249 153.993 198.462 153.58C197.689 153.167 197.082 152.553 196.642 151.74C196.216 150.913 196.002 149.907 196.002 148.72C196.002 147.547 196.196 146.54 196.582 145.7C196.982 144.86 197.536 144.213 198.242 143.76C198.962 143.307 199.796 143.08 200.742 143.08ZM200.722 144.52C199.882 144.52 199.216 144.793 198.722 145.34C198.242 145.873 197.956 146.62 197.862 147.58H203.322C203.309 146.673 203.096 145.94 202.682 145.38C202.269 144.807 201.616 144.52 200.722 144.52ZM210.041 148.52L206.341 143.28H208.341L211.101 147.32L213.841 143.28H215.821L212.121 148.52L216.021 154H214.021L211.101 149.72L208.141 154H206.161L210.041 148.52ZM223.187 143.08C224.507 143.08 225.567 143.54 226.367 144.46C227.18 145.38 227.587 146.767 227.587 148.62C227.587 150.447 227.18 151.833 226.367 152.78C225.567 153.727 224.5 154.2 223.167 154.2C222.34 154.2 221.653 154.047 221.107 153.74C220.573 153.42 220.153 153.053 219.847 152.64H219.727C219.753 152.867 219.78 153.153 219.807 153.5C219.833 153.847 219.847 154.147 219.847 154.4V158.8H218.087V143.28H219.527L219.767 144.74H219.847C220.167 144.273 220.587 143.88 221.107 143.56C221.627 143.24 222.32 143.08 223.187 143.08ZM222.867 144.56C221.773 144.56 221 144.867 220.547 145.48C220.107 146.093 219.873 147.027 219.847 148.28V148.62C219.847 149.94 220.06 150.96 220.487 151.68C220.927 152.387 221.733 152.74 222.907 152.74C223.56 152.74 224.093 152.56 224.507 152.2C224.933 151.84 225.247 151.353 225.447 150.74C225.66 150.113 225.767 149.4 225.767 148.6C225.767 147.373 225.527 146.393 225.047 145.66C224.58 144.927 223.853 144.56 222.867 144.56ZM232.151 154H230.391V138.8H232.151V154ZM236.448 139.26C236.714 139.26 236.948 139.353 237.148 139.54C237.361 139.713 237.468 139.993 237.468 140.38C237.468 140.753 237.361 141.033 237.148 141.22C236.948 141.407 236.714 141.5 236.448 141.5C236.154 141.5 235.908 141.407 235.708 141.22C235.508 141.033 235.408 140.753 235.408 140.38C235.408 139.993 235.508 139.713 235.708 139.54C235.908 139.353 236.154 139.26 236.448 139.26ZM237.308 143.28V154H235.548V143.28H237.308ZM245.004 154.2C244.057 154.2 243.211 154.007 242.464 153.62C241.731 153.233 241.151 152.633 240.724 151.82C240.311 151.007 240.104 149.967 240.104 148.7C240.104 147.38 240.324 146.307 240.764 145.48C241.204 144.653 241.797 144.047 242.544 143.66C243.304 143.273 244.164 143.08 245.124 143.08C245.671 143.08 246.197 143.14 246.704 143.26C247.211 143.367 247.624 143.5 247.944 143.66L247.404 145.12C247.084 145 246.711 144.887 246.284 144.78C245.857 144.673 245.457 144.62 245.084 144.62C242.977 144.62 241.924 145.973 241.924 148.68C241.924 149.973 242.177 150.967 242.684 151.66C243.204 152.34 243.971 152.68 244.984 152.68C245.571 152.68 246.084 152.62 246.524 152.5C246.977 152.38 247.391 152.233 247.764 152.06V153.62C247.404 153.807 247.004 153.947 246.564 154.04C246.137 154.147 245.617 154.2 245.004 154.2ZM254.373 143.1C255.68 143.1 256.647 143.387 257.273 143.96C257.9 144.533 258.213 145.447 258.213 146.7V154H256.933L256.593 152.48H256.513C256.047 153.067 255.553 153.5 255.033 153.78C254.527 154.06 253.82 154.2 252.913 154.2C251.94 154.2 251.133 153.947 250.493 153.44C249.853 152.92 249.533 152.113 249.533 151.02C249.533 149.953 249.953 149.133 250.793 148.56C251.633 147.973 252.927 147.653 254.673 147.6L256.493 147.54V146.9C256.493 146.007 256.3 145.387 255.913 145.04C255.527 144.693 254.98 144.52 254.273 144.52C253.713 144.52 253.18 144.607 252.673 144.78C252.167 144.94 251.693 145.127 251.253 145.34L250.713 144.02C251.18 143.767 251.733 143.553 252.373 143.38C253.013 143.193 253.68 143.1 254.373 143.1ZM254.893 148.82C253.56 148.873 252.633 149.087 252.113 149.46C251.607 149.833 251.353 150.36 251.353 151.04C251.353 151.64 251.533 152.08 251.893 152.36C252.267 152.64 252.74 152.78 253.313 152.78C254.22 152.78 254.973 152.533 255.573 152.04C256.173 151.533 256.473 150.76 256.473 149.72V148.76L254.893 148.82ZM265.104 152.76C265.371 152.76 265.644 152.74 265.924 152.7C266.204 152.647 266.431 152.593 266.604 152.54V153.88C266.418 153.973 266.151 154.047 265.804 154.1C265.458 154.167 265.124 154.2 264.804 154.2C264.244 154.2 263.724 154.107 263.244 153.92C262.778 153.72 262.398 153.38 262.104 152.9C261.811 152.42 261.664 151.747 261.664 150.88V144.64H260.144V143.8L261.684 143.1L262.384 140.82H263.424V143.28H266.524V144.64H263.424V150.84C263.424 151.493 263.578 151.98 263.884 152.3C264.204 152.607 264.611 152.76 265.104 152.76ZM269.651 139.26C269.917 139.26 270.151 139.353 270.351 139.54C270.564 139.713 270.671 139.993 270.671 140.38C270.671 140.753 270.564 141.033 270.351 141.22C270.151 141.407 269.917 141.5 269.651 141.5C269.357 141.5 269.111 141.407 268.911 141.22C268.711 141.033 268.611 140.753 268.611 140.38C268.611 139.993 268.711 139.713 268.911 139.54C269.111 139.353 269.357 139.26 269.651 139.26ZM270.511 143.28V154H268.751V143.28H270.511ZM278.847 144.64H276.147V154H274.387V144.64H272.507V143.82L274.387 143.22V142.6C274.387 141.213 274.694 140.22 275.307 139.62C275.92 139.007 276.774 138.7 277.867 138.7C278.294 138.7 278.68 138.74 279.027 138.82C279.387 138.887 279.694 138.967 279.947 139.06L279.487 140.44C279.274 140.373 279.027 140.307 278.747 140.24C278.467 140.173 278.18 140.14 277.887 140.14C277.3 140.14 276.86 140.34 276.567 140.74C276.287 141.127 276.147 141.74 276.147 142.58V143.28H278.847V144.64Z" fill="#43474E"/>
<rect x="79" y="175" width="46" height="46" rx="2" fill="white"/>
<rect x="79" y="175" width="46" height="46" rx="2" stroke="#333333" stroke-width="2"/>
<path d="M97.7239 207.362L89.0572 198.695C88.5365 198.174 88.5365 197.33 89.0572 196.809L90.9428 194.924C91.4635 194.403 92.3077 194.403 92.8284 194.924L98.6667 200.762L111.172 188.257C111.692 187.736 112.537 187.736 113.057 188.257L114.943 190.143C115.464 190.663 115.464 191.508 114.943 192.028L99.6095 207.362C99.0888 207.882 98.2446 207.882 97.7239 207.362Z" fill="#333333"/>
<path d="M154.5 198.84C154.5 199.947 154.36 200.953 154.08 201.86C153.813 202.753 153.4 203.527 152.84 204.18C152.293 204.833 151.6 205.333 150.76 205.68C149.933 206.027 148.967 206.2 147.86 206.2C146.727 206.2 145.74 206.027 144.9 205.68C144.073 205.32 143.38 204.82 142.82 204.18C142.273 203.527 141.867 202.747 141.6 201.84C141.333 200.933 141.2 199.927 141.2 198.82C141.2 197.353 141.44 196.073 141.92 194.98C142.4 193.887 143.133 193.033 144.12 192.42C145.12 191.807 146.373 191.5 147.88 191.5C149.347 191.5 150.567 191.807 151.54 192.42C152.527 193.02 153.267 193.873 153.76 194.98C154.253 196.073 154.5 197.36 154.5 198.84ZM143.48 198.84C143.48 199.987 143.633 200.973 143.94 201.8C144.247 202.613 144.727 203.247 145.38 203.7C146.033 204.14 146.86 204.36 147.86 204.36C148.873 204.36 149.7 204.14 150.34 203.7C150.98 203.247 151.453 202.613 151.76 201.8C152.067 200.973 152.22 199.987 152.22 198.84C152.22 197.12 151.873 195.78 151.18 194.82C150.5 193.847 149.4 193.36 147.88 193.36C146.867 193.36 146.033 193.58 145.38 194.02C144.727 194.46 144.247 195.087 143.94 195.9C143.633 196.713 143.48 197.693 143.48 198.84ZM162.743 195.02C164.036 195.02 165.076 195.487 165.863 196.42C166.663 197.353 167.063 198.747 167.063 200.6C167.063 201.813 166.883 202.84 166.523 203.68C166.163 204.52 165.656 205.153 165.003 205.58C164.35 205.993 163.59 206.2 162.723 206.2C162.176 206.2 161.696 206.133 161.283 206C160.87 205.853 160.516 205.667 160.223 205.44C159.943 205.2 159.696 204.947 159.483 204.68H159.343C159.383 204.92 159.416 205.207 159.443 205.54C159.47 205.86 159.483 206.147 159.483 206.4V210.8H157.363V195.22H159.083L159.383 196.66H159.483C159.696 196.367 159.95 196.093 160.243 195.84C160.536 195.587 160.89 195.387 161.303 195.24C161.716 195.093 162.196 195.02 162.743 195.02ZM162.243 196.76C161.576 196.76 161.043 196.893 160.643 197.16C160.243 197.413 159.95 197.8 159.763 198.32C159.59 198.827 159.496 199.473 159.483 200.26V200.58C159.483 201.407 159.57 202.113 159.743 202.7C159.916 203.273 160.203 203.713 160.603 204.02C161.016 204.313 161.576 204.46 162.283 204.46C162.883 204.46 163.37 204.3 163.743 203.98C164.13 203.647 164.416 203.187 164.603 202.6C164.79 202.013 164.883 201.333 164.883 200.56C164.883 199.387 164.67 198.46 164.243 197.78C163.816 197.1 163.15 196.76 162.243 196.76ZM173.645 204.48C173.925 204.48 174.212 204.453 174.505 204.4C174.799 204.347 175.052 204.287 175.265 204.22V205.82C175.039 205.927 174.732 206.013 174.345 206.08C173.959 206.16 173.572 206.2 173.185 206.2C172.599 206.2 172.059 206.1 171.565 205.9C171.085 205.7 170.699 205.353 170.405 204.86C170.112 204.367 169.965 203.68 169.965 202.8V196.84H168.465V195.88L170.045 195.08L170.785 192.8H172.085V195.22H175.165V196.84H172.085V202.76C172.085 203.347 172.225 203.78 172.505 204.06C172.799 204.34 173.179 204.48 173.645 204.48ZM179.542 195.22V206H177.422V195.22H179.542ZM178.502 191.12C178.822 191.12 179.102 191.213 179.342 191.4C179.582 191.587 179.702 191.9 179.702 192.34C179.702 192.767 179.582 193.08 179.342 193.28C179.102 193.467 178.822 193.56 178.502 193.56C178.155 193.56 177.862 193.467 177.622 193.28C177.395 193.08 177.282 192.767 177.282 192.34C177.282 191.9 177.395 191.587 177.622 191.4C177.862 191.213 178.155 191.12 178.502 191.12ZM192.371 200.6C192.371 201.493 192.251 202.287 192.011 202.98C191.771 203.673 191.431 204.26 190.991 204.74C190.551 205.22 190.018 205.587 189.391 205.84C188.764 206.08 188.058 206.2 187.271 206.2C186.551 206.2 185.884 206.08 185.271 205.84C184.658 205.587 184.124 205.22 183.671 204.74C183.231 204.26 182.884 203.673 182.631 202.98C182.378 202.287 182.251 201.487 182.251 200.58C182.251 199.393 182.451 198.387 182.851 197.56C183.264 196.733 183.851 196.107 184.611 195.68C185.384 195.24 186.291 195.02 187.331 195.02C188.318 195.02 189.184 195.24 189.931 195.68C190.691 196.107 191.284 196.733 191.711 197.56C192.151 198.387 192.371 199.4 192.371 200.6ZM184.431 200.6C184.431 201.4 184.531 202.093 184.731 202.68C184.931 203.253 185.244 203.693 185.671 204C186.098 204.307 186.644 204.46 187.311 204.46C187.978 204.46 188.524 204.307 188.951 204C189.378 203.693 189.691 203.253 189.891 202.68C190.091 202.093 190.191 201.4 190.191 200.6C190.191 199.773 190.084 199.08 189.871 198.52C189.671 197.96 189.358 197.533 188.931 197.24C188.518 196.933 187.971 196.78 187.291 196.78C186.291 196.78 185.564 197.113 185.111 197.78C184.658 198.447 184.431 199.387 184.431 200.6ZM200.518 195.02C201.772 195.02 202.732 195.333 203.398 195.96C204.065 196.587 204.398 197.593 204.398 198.98V206H202.298V199.28C202.298 198.44 202.118 197.813 201.758 197.4C201.412 196.973 200.852 196.76 200.078 196.76C198.985 196.76 198.225 197.087 197.798 197.74C197.385 198.393 197.178 199.333 197.178 200.56V206H195.058V195.22H196.738L197.038 196.66H197.158C197.398 196.287 197.692 195.98 198.038 195.74C198.385 195.5 198.772 195.32 199.198 195.2C199.625 195.08 200.065 195.02 200.518 195.02ZM221.711 206H212.111V204.36L215.791 200.62C216.511 199.887 217.111 199.253 217.591 198.72C218.071 198.173 218.431 197.653 218.671 197.16C218.911 196.653 219.031 196.107 219.031 195.52C219.031 194.787 218.818 194.24 218.391 193.88C217.965 193.507 217.411 193.32 216.731 193.32C216.078 193.32 215.491 193.447 214.971 193.7C214.451 193.94 213.911 194.28 213.351 194.72L212.211 193.3C212.598 192.967 213.011 192.667 213.451 192.4C213.905 192.133 214.405 191.92 214.951 191.76C215.511 191.6 216.125 191.52 216.791 191.52C217.698 191.52 218.478 191.68 219.131 192C219.785 192.307 220.285 192.747 220.631 193.32C220.991 193.893 221.171 194.567 221.171 195.34C221.171 195.913 221.085 196.453 220.911 196.96C220.738 197.453 220.485 197.94 220.151 198.42C219.831 198.9 219.438 199.387 218.971 199.88C218.505 200.373 217.991 200.893 217.431 201.44L214.771 204.02V204.12H221.711V206Z" fill="#333333"/>
<g clip-path="url(#clip1_5534_57728)">
<rect x="291" y="147" width="45" height="1" fill="#C54600"/>
<g clip-path="url(#clip2_5534_57728)">
<rect x="336" y="135" width="24" height="24" rx="12" fill="#C54600"/>
<path d="M348.112 152.139C347.588 152.136 347.083 152.048 346.596 151.876C346.112 151.703 345.677 151.423 345.293 151.036C344.908 150.648 344.604 150.134 344.378 149.494C344.156 148.855 344.045 148.069 344.045 147.138C344.048 146.283 344.146 145.519 344.338 144.846C344.534 144.17 344.812 143.596 345.174 143.126C345.538 142.655 345.974 142.297 346.481 142.052C346.988 141.803 347.557 141.679 348.186 141.679C348.866 141.679 349.466 141.812 349.986 142.077C350.507 142.339 350.924 142.695 351.239 143.146C351.557 143.596 351.749 144.102 351.816 144.662H349.693C349.61 144.307 349.436 144.029 349.171 143.827C348.906 143.625 348.578 143.523 348.186 143.523C347.524 143.523 347.02 143.812 346.675 144.388C346.334 144.965 346.16 145.749 346.153 146.74H346.223C346.375 146.438 346.581 146.182 346.839 145.969C347.101 145.754 347.398 145.59 347.729 145.477C348.064 145.361 348.417 145.303 348.788 145.303C349.391 145.303 349.928 145.446 350.399 145.731C350.869 146.013 351.241 146.4 351.512 146.894C351.784 147.388 351.92 147.953 351.92 148.589C351.92 149.279 351.759 149.892 351.438 150.429C351.12 150.966 350.674 151.387 350.1 151.692C349.53 151.993 348.868 152.143 348.112 152.139ZM348.102 150.449C348.433 150.449 348.73 150.369 348.992 150.21C349.254 150.051 349.459 149.836 349.608 149.564C349.757 149.292 349.832 148.987 349.832 148.649C349.832 148.311 349.757 148.008 349.608 147.739C349.462 147.471 349.26 147.257 349.002 147.098C348.743 146.939 348.448 146.859 348.117 146.859C347.868 146.859 347.638 146.906 347.426 146.999C347.217 147.091 347.033 147.221 346.874 147.386C346.718 147.552 346.596 147.744 346.506 147.963C346.417 148.179 346.372 148.409 346.372 148.654C346.372 148.982 346.446 149.282 346.596 149.554C346.748 149.826 346.953 150.043 347.212 150.205C347.474 150.368 347.77 150.449 348.102 150.449Z" fill="white"/>
</g>
</g>
<g clip-path="url(#clip3_5534_57728)">
<rect x="207" y="113.5" width="81" height="1" fill="#C54600"/>
<g clip-path="url(#clip4_5534_57728)">
<rect x="276" y="101.5" width="24" height="24" rx="12" fill="#C54600"/>
<path d="M288.032 118.639C287.33 118.639 286.703 118.51 286.153 118.251C285.606 117.993 285.172 117.637 284.85 117.183C284.529 116.728 284.362 116.208 284.348 115.621H286.436C286.46 116.016 286.625 116.336 286.934 116.581C287.242 116.826 287.608 116.949 288.032 116.949C288.37 116.949 288.669 116.874 288.927 116.725C289.189 116.573 289.393 116.362 289.539 116.094C289.688 115.822 289.762 115.51 289.762 115.159C289.762 114.801 289.686 114.486 289.534 114.214C289.385 113.943 289.177 113.731 288.912 113.578C288.647 113.426 288.344 113.348 288.002 113.344C287.704 113.344 287.414 113.406 287.132 113.528C286.854 113.651 286.637 113.818 286.481 114.031L284.567 113.688L285.049 108.318H291.274V110.078H286.824L286.561 112.629H286.62C286.799 112.377 287.069 112.168 287.431 112.002C287.792 111.836 288.196 111.754 288.644 111.754C289.257 111.754 289.804 111.898 290.284 112.186C290.765 112.474 291.145 112.871 291.423 113.374C291.701 113.875 291.839 114.451 291.836 115.104C291.839 115.79 291.68 116.4 291.358 116.934C291.04 117.464 290.594 117.882 290.021 118.187C289.451 118.488 288.788 118.639 288.032 118.639Z" fill="white"/>
</g>
</g>
<rect x="20" y="198.5" width="52" height="1" fill="#C54600"/>
<g clip-path="url(#clip5_5534_57728)">
<rect x="20" y="186" width="24" height="24" rx="12" fill="#C54600"/>
<path d="M27.927 201.21V199.515L32.1777 192.818H33.6394V195.165H32.7743L30.0946 199.406V199.485H36.1351V201.21H27.927ZM32.8141 203V200.693L32.8539 199.942V192.818H34.8723V203H32.8141Z" fill="white"/>
</g>
<g clip-path="url(#clip6_5534_57728)">
<rect x="20" y="114" width="53" height="1" fill="#C54600"/>
<g clip-path="url(#clip7_5534_57728)">
<rect x="20" y="102" width="24" height="24" rx="12" fill="#C54600"/>
<path d="M31.9745 119.139C31.2321 119.139 30.5709 119.012 29.9909 118.756C29.4142 118.498 28.9584 118.143 28.6237 117.692C28.2922 117.238 28.1215 116.715 28.1116 116.121H30.2792C30.2925 116.37 30.3737 116.589 30.5228 116.778C30.6753 116.963 30.8775 117.107 31.1294 117.21C31.3812 117.313 31.6646 117.364 31.9795 117.364C32.3076 117.364 32.5976 117.306 32.8495 117.19C33.1014 117.074 33.2986 116.914 33.4411 116.708C33.5837 116.503 33.6549 116.266 33.6549 115.997C33.6549 115.725 33.5787 115.485 33.4262 115.276C33.2771 115.064 33.0616 114.898 32.7799 114.779C32.5015 114.66 32.1701 114.6 31.7856 114.6H30.836V113.019H31.7856C32.1104 113.019 32.3971 112.963 32.6457 112.85C32.8976 112.737 33.0931 112.582 33.2323 112.383C33.3715 112.181 33.4411 111.945 33.4411 111.677C33.4411 111.422 33.3798 111.198 33.2572 111.006C33.1379 110.81 32.9688 110.658 32.7501 110.548C32.5347 110.439 32.2828 110.384 31.9944 110.384C31.7027 110.384 31.4359 110.437 31.194 110.543C30.952 110.646 30.7581 110.794 30.6123 110.986C30.4665 111.178 30.3886 111.403 30.3786 111.662H28.3154C28.3254 111.075 28.4927 110.558 28.8176 110.111C29.1424 109.663 29.5799 109.314 30.1301 109.062C30.6836 108.807 31.3083 108.679 32.0044 108.679C32.707 108.679 33.3218 108.807 33.8488 109.062C34.3758 109.317 34.7851 109.662 35.0768 110.096C35.3718 110.527 35.5176 111.011 35.5143 111.548C35.5176 112.118 35.3403 112.593 34.9823 112.974C34.6277 113.356 34.1653 113.598 33.5953 113.7V113.78C34.3443 113.876 34.9144 114.136 35.3055 114.56C35.6999 114.981 35.8954 115.508 35.8921 116.141C35.8954 116.721 35.7281 117.237 35.39 117.688C35.0553 118.138 34.5929 118.493 34.0029 118.751C33.413 119.01 32.7368 119.139 31.9745 119.139Z" fill="white"/>
</g>
</g>
<g clip-path="url(#clip8_5534_57728)">
<rect x="20" y="63" width="48" height="1" fill="#C54600"/>
<g clip-path="url(#clip9_5534_57728)">
<rect x="20" y="51" width="24" height="24" rx="12" fill="#C54600"/>
<path d="M28.4161 68V66.4489L32.0404 63.093C32.3486 62.7947 32.6072 62.5263 32.816 62.2876C33.0281 62.049 33.1888 61.8153 33.2982 61.5866C33.4076 61.3546 33.4623 61.1044 33.4623 60.8359C33.4623 60.5376 33.3943 60.2808 33.2584 60.0653C33.1225 59.8466 32.9369 59.6792 32.7016 59.5632C32.4663 59.4439 32.1995 59.3842 31.9012 59.3842C31.5896 59.3842 31.3179 59.4472 31.0858 59.5732C30.8538 59.6991 30.6749 59.8797 30.5489 60.1151C30.423 60.3504 30.36 60.6304 30.36 60.9553H28.3167C28.3167 60.2891 28.4675 59.7107 28.7691 59.2202C29.0707 58.7296 29.4933 58.3501 30.0368 58.0817C30.5804 57.8132 31.2068 57.679 31.9161 57.679C32.6453 57.679 33.28 57.8082 33.8202 58.0668C34.3638 58.322 34.7864 58.6766 35.088 59.1307C35.3896 59.5848 35.5404 60.1051 35.5404 60.6918C35.5404 61.0762 35.4642 61.4557 35.3117 61.8303C35.1626 62.2048 34.8957 62.6207 34.5113 63.0781C34.1268 63.5322 33.5849 64.0774 32.8856 64.7138L31.3991 66.1705V66.2401H35.6746V68H28.4161Z" fill="white"/>
</g>
</g>
<g clip-path="url(#clip10_5534_57728)">
<rect x="20" y="32" width="48" height="1" fill="#C54600"/>
<g clip-path="url(#clip11_5534_57728)">
<rect x="20" y="20" width="24" height="24" rx="12" fill="#C54600"/>
<path d="M33.8302 26.8182V37H31.6775V28.8615H31.6178L29.2861 30.3232V28.4141L31.8067 26.8182H33.8302Z" fill="white"/>
</g>
</g>
</g>
<defs>
<clipPath id="clip0_5534_57728">
<rect width="387" height="246" fill="white"/>
</clipPath>
<clipPath id="clip1_5534_57728">
<rect width="69" height="24" fill="white" transform="translate(291 135)"/>
</clipPath>
<clipPath id="clip2_5534_57728">
<rect x="336" y="135" width="24" height="24" rx="12" fill="white"/>
</clipPath>
<clipPath id="clip3_5534_57728">
<rect width="81" height="24" fill="white" transform="translate(231 101.5)"/>
</clipPath>
<clipPath id="clip4_5534_57728">
<rect x="276" y="101.5" width="24" height="24" rx="12" fill="white"/>
</clipPath>
<clipPath id="clip5_5534_57728">
<rect x="20" y="186" width="24" height="24" rx="12" fill="white"/>
</clipPath>
<clipPath id="clip6_5534_57728">
<rect width="53" height="24" fill="white" transform="translate(20 102)"/>
</clipPath>
<clipPath id="clip7_5534_57728">
<rect x="20" y="102" width="24" height="24" rx="12" fill="white"/>
</clipPath>
<clipPath id="clip8_5534_57728">
<rect width="48" height="24" fill="white" transform="translate(20 51)"/>
</clipPath>
<clipPath id="clip9_5534_57728">
<rect x="20" y="51" width="24" height="24" rx="12" fill="white"/>
</clipPath>
<clipPath id="clip10_5534_57728">
<rect width="48" height="24" fill="white" transform="translate(20 20)"/>
</clipPath>
<clipPath id="clip11_5534_57728">
<rect x="20" y="20" width="24" height="24" rx="12" fill="white"/>
</clipPath>
</defs>
</svg>
