<svg width="524" height="165" viewBox="0 0 524 165" fill="none" xmlns="http://www.w3.org/2000/svg">
<path d="M320.26 96H318.16L310.52 84.14H310.44C310.467 84.6067 310.5 85.1867 310.54 85.88C310.58 86.5733 310.6 87.2867 310.6 88.02V96H308.94V81.72H311.02L318.64 93.54H318.72C318.707 93.3267 318.687 93.0067 318.66 92.58C318.647 92.1533 318.627 91.6867 318.6 91.18C318.587 90.6733 318.58 90.2067 318.58 89.78V81.72H320.26V96ZM333.215 90.62C333.215 92.3933 332.762 93.7667 331.855 94.74C330.962 95.7133 329.749 96.2 328.215 96.2C327.269 96.2 326.422 95.9867 325.675 95.56C324.942 95.12 324.362 94.4867 323.935 93.66C323.509 92.82 323.295 91.8067 323.295 90.62C323.295 88.8467 323.742 87.48 324.635 86.52C325.529 85.56 326.742 85.08 328.275 85.08C329.249 85.08 330.102 85.3 330.835 85.74C331.582 86.1667 332.162 86.7933 332.575 87.62C333.002 88.4333 333.215 89.4333 333.215 90.62ZM325.115 90.62C325.115 91.8867 325.362 92.8933 325.855 93.64C326.362 94.3733 327.162 94.74 328.255 94.74C329.335 94.74 330.129 94.3733 330.635 93.64C331.142 92.8933 331.395 91.8867 331.395 90.62C331.395 89.3533 331.142 88.36 330.635 87.64C330.129 86.92 329.329 86.56 328.235 86.56C327.142 86.56 326.349 86.92 325.855 87.64C325.362 88.36 325.115 89.3533 325.115 90.62ZM347.765 85.08C348.978 85.08 349.885 85.3933 350.485 86.02C351.085 86.6333 351.385 87.6333 351.385 89.02V96H349.645V89.1C349.645 87.4067 348.918 86.56 347.465 86.56C346.425 86.56 345.678 86.86 345.225 87.46C344.785 88.06 344.565 88.9333 344.565 90.08V96H342.825V89.1C342.825 87.4067 342.091 86.56 340.625 86.56C339.545 86.56 338.798 86.8933 338.385 87.56C337.971 88.2267 337.765 89.1867 337.765 90.44V96H336.005V85.28H337.425L337.685 86.74H337.785C338.118 86.18 338.565 85.7667 339.125 85.5C339.698 85.22 340.305 85.08 340.945 85.08C342.625 85.08 343.718 85.68 344.225 86.88H344.325C344.685 86.2667 345.171 85.8133 345.785 85.52C346.411 85.2267 347.071 85.08 347.765 85.08ZM356.456 84.5C356.456 84.9533 356.443 85.38 356.416 85.78C356.403 86.1667 356.383 86.4733 356.356 86.7H356.456C356.763 86.2467 357.183 85.8667 357.716 85.56C358.249 85.2533 358.936 85.1 359.776 85.1C361.109 85.1 362.176 85.5667 362.976 86.5C363.789 87.42 364.196 88.8 364.196 90.64C364.196 92.48 363.789 93.8667 362.976 94.8C362.163 95.7333 361.096 96.2 359.776 96.2C358.936 96.2 358.249 96.0467 357.716 95.74C357.183 95.4333 356.763 95.0667 356.456 94.64H356.316L355.956 96H354.696V80.8H356.456V84.5ZM359.476 86.56C358.343 86.56 357.556 86.8867 357.116 87.54C356.676 88.1933 356.456 89.2067 356.456 90.58V90.66C356.456 91.98 356.669 92.9933 357.096 93.7C357.536 94.3933 358.343 94.74 359.516 94.74C360.476 94.74 361.189 94.3867 361.656 93.68C362.136 92.9733 362.376 91.9533 362.376 90.62C362.376 87.9133 361.409 86.56 359.476 86.56ZM372.001 85.08C372.201 85.08 372.414 85.0933 372.641 85.12C372.881 85.1333 373.087 85.16 373.261 85.2L373.041 86.82C372.867 86.78 372.674 86.7467 372.461 86.72C372.261 86.6933 372.067 86.68 371.881 86.68C371.334 86.68 370.821 86.8333 370.341 87.14C369.861 87.4333 369.474 87.8533 369.181 88.4C368.901 88.9333 368.761 89.56 368.761 90.28V96H367.001V85.28H368.441L368.641 87.24H368.721C369.067 86.6533 369.514 86.1467 370.061 85.72C370.607 85.2933 371.254 85.08 372.001 85.08ZM379.012 85.08C379.932 85.08 380.719 85.28 381.372 85.68C382.039 86.08 382.545 86.6467 382.892 87.38C383.252 88.1 383.432 88.9467 383.432 89.92V90.98H376.092C376.119 92.1933 376.425 93.12 377.012 93.76C377.612 94.3867 378.445 94.7 379.512 94.7C380.192 94.7 380.792 94.64 381.312 94.52C381.845 94.3867 382.392 94.2 382.952 93.96V95.5C382.405 95.74 381.865 95.9133 381.332 96.02C380.799 96.14 380.165 96.2 379.432 96.2C378.419 96.2 377.519 95.9933 376.732 95.58C375.959 95.1667 375.352 94.5533 374.912 93.74C374.485 92.9133 374.272 91.9067 374.272 90.72C374.272 89.5467 374.465 88.54 374.852 87.7C375.252 86.86 375.805 86.2133 376.512 85.76C377.232 85.3067 378.065 85.08 379.012 85.08ZM378.992 86.52C378.152 86.52 377.485 86.7933 376.992 87.34C376.512 87.8733 376.225 88.62 376.132 89.58H381.592C381.579 88.6733 381.365 87.94 380.952 87.38C380.539 86.8067 379.885 86.52 378.992 86.52ZM394.936 94.76C395.203 94.76 395.476 94.74 395.756 94.7C396.036 94.6467 396.263 94.5933 396.436 94.54V95.88C396.25 95.9733 395.983 96.0467 395.636 96.1C395.29 96.1667 394.956 96.2 394.636 96.2C394.076 96.2 393.556 96.1067 393.076 95.92C392.61 95.72 392.23 95.38 391.936 94.9C391.643 94.42 391.496 93.7467 391.496 92.88V86.64H389.976V85.8L391.516 85.1L392.216 82.82H393.256V85.28H396.356V86.64H393.256V92.84C393.256 93.4933 393.41 93.98 393.716 94.3C394.036 94.6067 394.443 94.76 394.936 94.76ZM407.903 90.62C407.903 92.3933 407.449 93.7667 406.543 94.74C405.649 95.7133 404.436 96.2 402.903 96.2C401.956 96.2 401.109 95.9867 400.363 95.56C399.629 95.12 399.049 94.4867 398.623 93.66C398.196 92.82 397.983 91.8067 397.983 90.62C397.983 88.8467 398.429 87.48 399.323 86.52C400.216 85.56 401.429 85.08 402.963 85.08C403.936 85.08 404.789 85.3 405.523 85.74C406.269 86.1667 406.849 86.7933 407.263 87.62C407.689 88.4333 407.903 89.4333 407.903 90.62ZM399.803 90.62C399.803 91.8867 400.049 92.8933 400.543 93.64C401.049 94.3733 401.849 94.74 402.943 94.74C404.023 94.74 404.816 94.3733 405.323 93.64C405.829 92.8933 406.083 91.8867 406.083 90.62C406.083 89.3533 405.829 88.36 405.323 87.64C404.816 86.92 404.016 86.56 402.923 86.56C401.829 86.56 401.036 86.92 400.543 87.64C400.049 88.36 399.803 89.3533 399.803 90.62ZM414.272 94.76C414.539 94.76 414.812 94.74 415.092 94.7C415.372 94.6467 415.599 94.5933 415.772 94.54V95.88C415.586 95.9733 415.319 96.0467 414.972 96.1C414.626 96.1667 414.292 96.2 413.972 96.2C413.412 96.2 412.892 96.1067 412.412 95.92C411.946 95.72 411.566 95.38 411.272 94.9C410.979 94.42 410.832 93.7467 410.832 92.88V86.64H409.312V85.8L410.852 85.1L411.552 82.82H412.592V85.28H415.692V86.64H412.592V92.84C412.592 93.4933 412.746 93.98 413.052 94.3C413.372 94.6067 413.779 94.76 414.272 94.76ZM421.979 85.1C423.285 85.1 424.252 85.3867 424.879 85.96C425.505 86.5333 425.819 87.4467 425.819 88.7V96H424.539L424.199 94.48H424.119C423.652 95.0667 423.159 95.5 422.639 95.78C422.132 96.06 421.425 96.2 420.519 96.2C419.545 96.2 418.739 95.9467 418.099 95.44C417.459 94.92 417.139 94.1133 417.139 93.02C417.139 91.9533 417.559 91.1333 418.399 90.56C419.239 89.9733 420.532 89.6533 422.279 89.6L424.099 89.54V88.9C424.099 88.0067 423.905 87.3867 423.519 87.04C423.132 86.6933 422.585 86.52 421.879 86.52C421.319 86.52 420.785 86.6067 420.279 86.78C419.772 86.94 419.299 87.1267 418.859 87.34L418.319 86.02C418.785 85.7667 419.339 85.5533 419.979 85.38C420.619 85.1933 421.285 85.1 421.979 85.1ZM422.499 90.82C421.165 90.8733 420.239 91.0867 419.719 91.46C419.212 91.8333 418.959 92.36 418.959 93.04C418.959 93.64 419.139 94.08 419.499 94.36C419.872 94.64 420.345 94.78 420.919 94.78C421.825 94.78 422.579 94.5333 423.179 94.04C423.779 93.5333 424.079 92.76 424.079 91.72V90.76L422.499 90.82ZM430.89 96H429.13V80.8H430.89V96ZM443.281 96.2C441.948 96.2 440.881 95.74 440.081 94.82C439.281 93.8867 438.881 92.5 438.881 90.66C438.881 88.82 439.281 87.4333 440.081 86.5C440.895 85.5533 441.968 85.08 443.301 85.08C444.128 85.08 444.801 85.2333 445.321 85.54C445.855 85.8467 446.288 86.22 446.621 86.66H446.741C446.728 86.4867 446.701 86.2333 446.661 85.9C446.635 85.5533 446.621 85.28 446.621 85.08V80.8H448.381V96H446.961L446.701 94.56H446.621C446.301 95.0133 445.875 95.4 445.341 95.72C444.808 96.04 444.121 96.2 443.281 96.2ZM443.561 94.74C444.695 94.74 445.488 94.4333 445.941 93.82C446.408 93.1933 446.641 92.2533 446.641 91V90.68C446.641 89.3467 446.421 88.3267 445.981 87.62C445.541 86.9 444.728 86.54 443.541 86.54C442.595 86.54 441.881 86.92 441.401 87.68C440.935 88.4267 440.701 89.4333 440.701 90.7C440.701 91.98 440.935 92.9733 441.401 93.68C441.881 94.3867 442.601 94.74 443.561 94.74ZM453.346 81.94C453.173 82.6333 452.919 83.4133 452.586 84.28C452.266 85.1333 451.946 85.9133 451.626 86.62H450.326C450.459 86.1133 450.586 85.5733 450.706 85C450.839 84.4133 450.959 83.84 451.066 83.28C451.173 82.7067 451.259 82.1867 451.326 81.72H453.206L453.346 81.94ZM458.231 85.08C459.151 85.08 459.937 85.28 460.591 85.68C461.257 86.08 461.764 86.6467 462.111 87.38C462.471 88.1 462.651 88.9467 462.651 89.92V90.98H455.311C455.337 92.1933 455.644 93.12 456.231 93.76C456.831 94.3867 457.664 94.7 458.731 94.7C459.411 94.7 460.011 94.64 460.531 94.52C461.064 94.3867 461.611 94.2 462.171 93.96V95.5C461.624 95.74 461.084 95.9133 460.551 96.02C460.017 96.14 459.384 96.2 458.651 96.2C457.637 96.2 456.737 95.9933 455.951 95.58C455.177 95.1667 454.571 94.5533 454.131 93.74C453.704 92.9133 453.491 91.9067 453.491 90.72C453.491 89.5467 453.684 88.54 454.071 87.7C454.471 86.86 455.024 86.2133 455.731 85.76C456.451 85.3067 457.284 85.08 458.231 85.08ZM458.211 86.52C457.371 86.52 456.704 86.7933 456.211 87.34C455.731 87.8733 455.444 88.62 455.351 89.58H460.811C460.797 88.6733 460.584 87.94 460.171 87.38C459.757 86.8067 459.104 86.52 458.211 86.52ZM461.051 80.88C460.891 81.12 460.644 81.4333 460.311 81.82C459.977 82.1933 459.617 82.5733 459.231 82.96C458.857 83.3333 458.511 83.64 458.191 83.88H457.031V83.64C457.231 83.3867 457.444 83.0867 457.671 82.74C457.911 82.3933 458.144 82.04 458.371 81.68C458.597 81.3067 458.784 80.9733 458.931 80.68H461.051V80.88ZM468.96 94.76C469.226 94.76 469.5 94.74 469.78 94.7C470.06 94.6467 470.286 94.5933 470.46 94.54V95.88C470.273 95.9733 470.006 96.0467 469.66 96.1C469.313 96.1667 468.98 96.2 468.66 96.2C468.1 96.2 467.58 96.1067 467.1 95.92C466.633 95.72 466.253 95.38 465.96 94.9C465.666 94.42 465.52 93.7467 465.52 92.88V86.64H464V85.8L465.54 85.1L466.24 82.82H467.28V85.28H470.38V86.64H467.28V92.84C467.28 93.4933 467.433 93.98 467.74 94.3C468.06 94.6067 468.466 94.76 468.96 94.76ZM476.666 85.1C477.973 85.1 478.94 85.3867 479.566 85.96C480.193 86.5333 480.506 87.4467 480.506 88.7V96H479.226L478.886 94.48H478.806C478.34 95.0667 477.846 95.5 477.326 95.78C476.82 96.06 476.113 96.2 475.206 96.2C474.233 96.2 473.426 95.9467 472.786 95.44C472.146 94.92 471.826 94.1133 471.826 93.02C471.826 91.9533 472.246 91.1333 473.086 90.56C473.926 89.9733 475.22 89.6533 476.966 89.6L478.786 89.54V88.9C478.786 88.0067 478.593 87.3867 478.206 87.04C477.82 86.6933 477.273 86.52 476.566 86.52C476.006 86.52 475.473 86.6067 474.966 86.78C474.46 86.94 473.986 87.1267 473.546 87.34L473.006 86.02C473.473 85.7667 474.026 85.5533 474.666 85.38C475.306 85.1933 475.973 85.1 476.666 85.1ZM477.186 90.82C475.853 90.8733 474.926 91.0867 474.406 91.46C473.9 91.8333 473.646 92.36 473.646 93.04C473.646 93.64 473.826 94.08 474.186 94.36C474.56 94.64 475.033 94.78 475.606 94.78C476.513 94.78 477.266 94.5333 477.866 94.04C478.466 93.5333 478.766 92.76 478.766 91.72V90.76L477.186 90.82ZM488.917 85.08C490.237 85.08 491.297 85.54 492.097 86.46C492.911 87.38 493.317 88.7667 493.317 90.62C493.317 92.4467 492.911 93.8333 492.097 94.78C491.297 95.7267 490.231 96.2 488.897 96.2C488.071 96.2 487.384 96.0467 486.837 95.74C486.304 95.42 485.884 95.0533 485.577 94.64H485.457C485.484 94.8667 485.511 95.1533 485.537 95.5C485.564 95.8467 485.577 96.1467 485.577 96.4V100.8H483.817V85.28H485.257L485.497 86.74H485.577C485.897 86.2733 486.317 85.88 486.837 85.56C487.357 85.24 488.051 85.08 488.917 85.08ZM488.597 86.56C487.504 86.56 486.731 86.8667 486.277 87.48C485.837 88.0933 485.604 89.0267 485.577 90.28V90.62C485.577 91.94 485.791 92.96 486.217 93.68C486.657 94.3867 487.464 94.74 488.637 94.74C489.291 94.74 489.824 94.56 490.237 94.2C490.664 93.84 490.977 93.3533 491.177 92.74C491.391 92.1133 491.497 91.4 491.497 90.6C491.497 89.3733 491.257 88.3933 490.777 87.66C490.311 86.9267 489.584 86.56 488.597 86.56ZM500.262 85.08C501.182 85.08 501.969 85.28 502.622 85.68C503.289 86.08 503.795 86.6467 504.142 87.38C504.502 88.1 504.682 88.9467 504.682 89.92V90.98H497.342C497.369 92.1933 497.675 93.12 498.262 93.76C498.862 94.3867 499.695 94.7 500.762 94.7C501.442 94.7 502.042 94.64 502.562 94.52C503.095 94.3867 503.642 94.2 504.202 93.96V95.5C503.655 95.74 503.115 95.9133 502.582 96.02C502.049 96.14 501.415 96.2 500.682 96.2C499.669 96.2 498.769 95.9933 497.982 95.58C497.209 95.1667 496.602 94.5533 496.162 93.74C495.735 92.9133 495.522 91.9067 495.522 90.72C495.522 89.5467 495.715 88.54 496.102 87.7C496.502 86.86 497.055 86.2133 497.762 85.76C498.482 85.3067 499.315 85.08 500.262 85.08ZM500.242 86.52C499.402 86.52 498.735 86.7933 498.242 87.34C497.762 87.8733 497.475 88.62 497.382 89.58H502.842C502.829 88.6733 502.615 87.94 502.202 87.38C501.789 86.8067 501.135 86.52 500.242 86.52ZM514.391 93.04C514.391 94.08 514.004 94.8667 513.231 95.4C512.458 95.9333 511.418 96.2 510.111 96.2C509.364 96.2 508.718 96.14 508.171 96.02C507.638 95.9 507.164 95.7333 506.751 95.52V93.92C507.178 94.1333 507.691 94.3333 508.291 94.52C508.904 94.6933 509.524 94.78 510.151 94.78C511.044 94.78 511.691 94.64 512.091 94.36C512.491 94.0667 512.691 93.68 512.691 93.2C512.691 92.9333 512.618 92.6933 512.471 92.48C512.324 92.2667 512.058 92.0533 511.671 91.84C511.298 91.6267 510.758 91.3867 510.051 91.12C509.358 90.8533 508.764 90.5867 508.271 90.32C507.778 90.0533 507.398 89.7333 507.131 89.36C506.864 88.9867 506.731 88.5067 506.731 87.92C506.731 87.0133 507.098 86.3133 507.831 85.82C508.578 85.3267 509.551 85.08 510.751 85.08C511.404 85.08 512.011 85.1467 512.571 85.28C513.144 85.4 513.678 85.5733 514.171 85.8L513.571 87.2C513.118 87.0133 512.644 86.8533 512.151 86.72C511.658 86.5867 511.151 86.52 510.631 86.52C509.911 86.52 509.358 86.64 508.971 86.88C508.598 87.1067 508.411 87.42 508.411 87.82C508.411 88.1133 508.498 88.3667 508.671 88.58C508.844 88.78 509.131 88.98 509.531 89.18C509.944 89.3667 510.491 89.5933 511.171 89.86C511.851 90.1133 512.431 90.3733 512.911 90.64C513.391 90.9067 513.758 91.2333 514.011 91.62C514.264 91.9933 514.391 92.4667 514.391 93.04Z" fill="black"/>
<rect x="300" y="69" width="223" height="38" stroke="#B3800F" stroke-width="2"/>
<line x1="299" y1="90" x2="261" y2="90" stroke="#B3800F" stroke-width="2"/>
<line x1="118" y1="141" x2="80" y2="141" stroke="#B3800F" stroke-width="2"/>
<path d="M13.7422 148H12.1422V136.711H8.17778V135.307H17.6889V136.711H13.7422V148ZM20.1896 134.898C20.4266 134.898 20.634 134.981 20.8118 135.147C21.0014 135.301 21.0963 135.55 21.0963 135.893C21.0963 136.225 21.0014 136.474 20.8118 136.64C20.634 136.806 20.4266 136.889 20.1896 136.889C19.9288 136.889 19.7096 136.806 19.5318 136.64C19.354 136.474 19.2651 136.225 19.2651 135.893C19.2651 135.55 19.354 135.301 19.5318 135.147C19.7096 134.981 19.9288 134.898 20.1896 134.898ZM20.954 138.471V148H19.3896V138.471H20.954ZM27.1551 146.898C27.3922 146.898 27.6351 146.88 27.884 146.844C28.1329 146.797 28.3344 146.75 28.4885 146.702V147.893C28.3225 147.976 28.0855 148.041 27.7774 148.089C27.4692 148.148 27.1729 148.178 26.8885 148.178C26.3907 148.178 25.9285 148.095 25.5018 147.929C25.087 147.751 24.7492 147.449 24.4885 147.022C24.2277 146.596 24.0974 145.997 24.0974 145.227V139.68H22.7462V138.933L24.1151 138.311L24.7374 136.284H25.6618V138.471H28.4174V139.68H25.6618V145.191C25.6618 145.772 25.7981 146.204 26.0707 146.489C26.3551 146.761 26.7166 146.898 27.1551 146.898ZM34.841 138.293C35.0188 138.293 35.2084 138.305 35.4099 138.329C35.6232 138.341 35.8069 138.364 35.961 138.4L35.7654 139.84C35.6113 139.804 35.4395 139.775 35.2499 139.751C35.0721 139.727 34.9002 139.716 34.7343 139.716C34.2484 139.716 33.7921 139.852 33.3654 140.124C32.9388 140.385 32.595 140.759 32.3343 141.244C32.0854 141.719 31.961 142.276 31.961 142.916V148H30.3965V138.471H31.6765L31.8543 140.213H31.9254C32.2336 139.692 32.6306 139.241 33.1165 138.862C33.6025 138.483 34.1773 138.293 34.841 138.293ZM41.0731 138.293C41.8908 138.293 42.5901 138.471 43.1708 138.827C43.7634 139.182 44.2138 139.686 44.5219 140.338C44.8419 140.978 45.0019 141.73 45.0019 142.596V143.538H38.4775C38.5012 144.616 38.7738 145.44 39.2953 146.009C39.8286 146.566 40.5694 146.844 41.5175 146.844C42.1219 146.844 42.6553 146.791 43.1175 146.684C43.5916 146.566 44.0775 146.4 44.5753 146.187V147.556C44.0894 147.769 43.6094 147.923 43.1353 148.018C42.6612 148.124 42.0982 148.178 41.4464 148.178C40.5457 148.178 39.7457 147.994 39.0464 147.627C38.359 147.259 37.8197 146.714 37.4286 145.991C37.0494 145.256 36.8597 144.361 36.8597 143.307C36.8597 142.264 37.0316 141.369 37.3753 140.622C37.7308 139.876 38.2227 139.301 38.8508 138.898C39.4908 138.495 40.2316 138.293 41.0731 138.293ZM41.0553 139.573C40.3086 139.573 39.716 139.816 39.2775 140.302C38.8508 140.776 38.596 141.44 38.5131 142.293H43.3664C43.3545 141.487 43.1649 140.836 42.7975 140.338C42.4301 139.828 41.8494 139.573 41.0553 139.573ZM61.9658 148H60.3658V142.08H53.8592V148H52.2592V135.307H53.8592V140.676H60.3658V135.307H61.9658V148ZM70.0229 148H68.494V139.129C68.494 138.619 68.5 138.21 68.5118 137.902C68.5237 137.594 68.5414 137.274 68.5651 136.942C68.3755 137.132 68.2037 137.292 68.0496 137.422C67.8955 137.553 67.7 137.719 67.4629 137.92L66.1118 139.022L65.294 137.973L68.7251 135.307H70.0229V148Z" fill="black"/>
<rect x="1" y="122" width="80" height="38" stroke="#B3800F" stroke-width="2"/>
<path d="M144.818 27H137.724V14.3067H144.818V15.7111H139.324V19.6756H144.498V21.0622H139.324V25.5956H144.818V27ZM144.053 10.3956C143.911 10.6089 143.692 10.8874 143.396 11.2311C143.099 11.563 142.779 11.9007 142.436 12.2444C142.104 12.5763 141.796 12.8489 141.511 13.0622H140.48V12.8489C140.658 12.6237 140.847 12.357 141.049 12.0489C141.262 11.7407 141.47 11.4267 141.671 11.1067C141.873 10.7748 142.039 10.4785 142.169 10.2178H144.053V10.3956ZM150.572 25.8978C150.809 25.8978 151.052 25.88 151.301 25.8444C151.55 25.797 151.751 25.7496 151.905 25.7022V26.8933C151.739 26.9763 151.502 27.0415 151.194 27.0889C150.886 27.1481 150.59 27.1778 150.305 27.1778C149.807 27.1778 149.345 27.0948 148.918 26.9289C148.504 26.7511 148.166 26.4489 147.905 26.0222C147.644 25.5956 147.514 24.997 147.514 24.2267V18.68H146.163V17.9333L147.532 17.3111L148.154 15.2844H149.078V17.4711H151.834V18.68H149.078V24.1911C149.078 24.7719 149.215 25.2044 149.487 25.4889C149.772 25.7615 150.133 25.8978 150.572 25.8978ZM157.422 17.3111C158.584 17.3111 159.443 17.5659 160 18.0756C160.557 18.5852 160.835 19.397 160.835 20.5111V27H159.698L159.395 25.6489H159.324C158.909 26.1704 158.471 26.5556 158.009 26.8044C157.558 27.0533 156.93 27.1778 156.124 27.1778C155.259 27.1778 154.542 26.9526 153.973 26.5022C153.404 26.04 153.12 25.323 153.12 24.3511C153.12 23.403 153.493 22.6741 154.24 22.1644C154.987 21.643 156.136 21.3585 157.689 21.3111L159.307 21.2578V20.6889C159.307 19.8948 159.135 19.3437 158.791 19.0356C158.447 18.7274 157.961 18.5733 157.333 18.5733C156.835 18.5733 156.361 18.6504 155.911 18.8044C155.461 18.9467 155.04 19.1126 154.649 19.3022L154.169 18.1289C154.584 17.9037 155.075 17.7141 155.644 17.56C156.213 17.3941 156.806 17.3111 157.422 17.3111ZM157.884 22.3956C156.699 22.443 155.875 22.6326 155.413 22.9644C154.963 23.2963 154.738 23.7644 154.738 24.3689C154.738 24.9022 154.898 25.2933 155.218 25.5422C155.549 25.7911 155.97 25.9156 156.48 25.9156C157.286 25.9156 157.955 25.6963 158.489 25.2578C159.022 24.8074 159.289 24.12 159.289 23.1956V22.3422L157.884 22.3956ZM168.312 17.2933C169.485 17.2933 170.427 17.7022 171.138 18.52C171.861 19.3378 172.223 20.5704 172.223 22.2178C172.223 23.8415 171.861 25.0741 171.138 25.9156C170.427 26.757 169.479 27.1778 168.294 27.1778C167.559 27.1778 166.949 27.0415 166.463 26.7689C165.989 26.4844 165.616 26.1585 165.343 25.7911H165.236C165.26 25.9926 165.284 26.2474 165.307 26.5556C165.331 26.8637 165.343 27.1304 165.343 27.3556V31.2667H163.778V17.4711H165.058L165.272 18.7689H165.343C165.627 18.3541 166.001 18.0044 166.463 17.72C166.925 17.4356 167.541 17.2933 168.312 17.2933ZM168.027 18.6089C167.056 18.6089 166.368 18.8815 165.965 19.4267C165.574 19.9719 165.367 20.8015 165.343 21.9156V22.2178C165.343 23.3911 165.533 24.2978 165.912 24.9378C166.303 25.5659 167.02 25.88 168.063 25.88C168.644 25.88 169.118 25.72 169.485 25.4C169.864 25.08 170.143 24.6474 170.321 24.1022C170.51 23.5452 170.605 22.9111 170.605 22.2C170.605 21.1096 170.392 20.2385 169.965 19.5867C169.55 18.9348 168.904 18.6089 168.027 18.6089ZM178.396 17.2933C179.214 17.2933 179.913 17.4711 180.494 17.8267C181.086 18.1822 181.537 18.6859 181.845 19.3378C182.165 19.9778 182.325 20.7304 182.325 21.5956V22.5378H175.8C175.824 23.6163 176.097 24.44 176.618 25.0089C177.152 25.5659 177.892 25.8444 178.84 25.8444C179.445 25.8444 179.978 25.7911 180.44 25.6844C180.914 25.5659 181.4 25.4 181.898 25.1867V26.5556C181.412 26.7689 180.932 26.923 180.458 27.0178C179.984 27.1244 179.421 27.1778 178.769 27.1778C177.869 27.1778 177.069 26.9941 176.369 26.6267C175.682 26.2593 175.143 25.7141 174.752 24.9911C174.372 24.2563 174.183 23.3615 174.183 22.3067C174.183 21.2637 174.354 20.3689 174.698 19.6222C175.054 18.8756 175.546 18.3007 176.174 17.8978C176.814 17.4948 177.554 17.2933 178.396 17.2933ZM178.378 18.5733C177.632 18.5733 177.039 18.8163 176.6 19.3022C176.174 19.7763 175.919 20.44 175.836 21.2933H180.689C180.677 20.4874 180.488 19.8356 180.12 19.3378C179.753 18.8281 179.172 18.5733 178.378 18.5733ZM192.978 17.3111C194.139 17.3111 194.998 17.5659 195.555 18.0756C196.112 18.5852 196.391 19.397 196.391 20.5111V27H195.253L194.951 25.6489H194.88C194.465 26.1704 194.027 26.5556 193.564 26.8044C193.114 27.0533 192.486 27.1778 191.68 27.1778C190.815 27.1778 190.098 26.9526 189.529 26.5022C188.96 26.04 188.675 25.323 188.675 24.3511C188.675 23.403 189.049 22.6741 189.795 22.1644C190.542 21.643 191.692 21.3585 193.244 21.3111L194.862 21.2578V20.6889C194.862 19.8948 194.69 19.3437 194.347 19.0356C194.003 18.7274 193.517 18.5733 192.889 18.5733C192.391 18.5733 191.917 18.6504 191.467 18.8044C191.016 18.9467 190.595 19.1126 190.204 19.3022L189.724 18.1289C190.139 17.9037 190.631 17.7141 191.2 17.56C191.769 17.3941 192.361 17.3111 192.978 17.3111ZM193.44 22.3956C192.255 22.443 191.431 22.6326 190.969 22.9644C190.518 23.2963 190.293 23.7644 190.293 24.3689C190.293 24.9022 190.453 25.2933 190.773 25.5422C191.105 25.7911 191.526 25.9156 192.035 25.9156C192.841 25.9156 193.511 25.6963 194.044 25.2578C194.578 24.8074 194.844 24.12 194.844 23.1956V22.3422L193.44 22.3956ZM203.156 27.1778C202.315 27.1778 201.562 27.0059 200.898 26.6622C200.247 26.3185 199.731 25.7852 199.352 25.0622C198.984 24.3393 198.801 23.4148 198.801 22.2889C198.801 21.1156 198.996 20.1615 199.387 19.4267C199.778 18.6919 200.306 18.1526 200.97 17.8089C201.645 17.4652 202.41 17.2933 203.263 17.2933C203.749 17.2933 204.217 17.3467 204.667 17.4533C205.118 17.5481 205.485 17.6667 205.77 17.8089L205.29 19.1067C205.005 19 204.673 18.8993 204.294 18.8044C203.915 18.7096 203.559 18.6622 203.227 18.6622C201.355 18.6622 200.418 19.8652 200.418 22.2711C200.418 23.4207 200.644 24.3037 201.094 24.92C201.556 25.5244 202.238 25.8267 203.138 25.8267C203.66 25.8267 204.116 25.7733 204.507 25.6667C204.91 25.56 205.278 25.4296 205.61 25.2756V26.6622C205.29 26.8281 204.934 26.9526 204.543 27.0356C204.164 27.1304 203.701 27.1778 203.156 27.1778ZM211.058 25.8978C211.295 25.8978 211.538 25.88 211.787 25.8444C212.036 25.797 212.237 25.7496 212.391 25.7022V26.8933C212.225 26.9763 211.988 27.0415 211.68 27.0889C211.372 27.1481 211.076 27.1778 210.791 27.1778C210.293 27.1778 209.831 27.0948 209.405 26.9289C208.99 26.7511 208.652 26.4489 208.391 26.0222C208.131 25.5956 208 24.997 208 24.2267V18.68H206.649V17.9333L208.018 17.3111L208.64 15.2844H209.565V17.4711H212.32V18.68H209.565V24.1911C209.565 24.7719 209.701 25.2044 209.973 25.4889C210.258 25.7615 210.619 25.8978 211.058 25.8978ZM222.264 17.4711V27H220.984L220.753 25.7378H220.682C220.373 26.2356 219.947 26.603 219.402 26.84C218.856 27.0652 218.276 27.1778 217.659 27.1778C216.51 27.1778 215.644 26.9052 215.064 26.36C214.483 25.803 214.193 24.92 214.193 23.7111V17.4711H215.775V23.6044C215.775 25.1215 216.48 25.88 217.89 25.88C218.945 25.88 219.674 25.5837 220.077 24.9911C220.492 24.3985 220.699 23.5452 220.699 22.4311V17.4711H222.264ZM228.969 17.2933C229.787 17.2933 230.486 17.4711 231.067 17.8267C231.659 18.1822 232.11 18.6859 232.418 19.3378C232.738 19.9778 232.898 20.7304 232.898 21.5956V22.5378H226.373C226.397 23.6163 226.67 24.44 227.191 25.0089C227.724 25.5659 228.465 25.8444 229.413 25.8444C230.018 25.8444 230.551 25.7911 231.013 25.6844C231.487 25.5659 231.973 25.4 232.471 25.1867V26.5556C231.985 26.7689 231.505 26.923 231.031 27.0178C230.557 27.1244 229.994 27.1778 229.342 27.1778C228.441 27.1778 227.641 26.9941 226.942 26.6267C226.255 26.2593 225.716 25.7141 225.324 24.9911C224.945 24.2563 224.756 23.3615 224.756 22.3067C224.756 21.2637 224.927 20.3689 225.271 19.6222C225.627 18.8756 226.119 18.3007 226.747 17.8978C227.387 17.4948 228.127 17.2933 228.969 17.2933ZM228.951 18.5733C228.204 18.5733 227.612 18.8163 227.173 19.3022C226.747 19.7763 226.492 20.44 226.409 21.2933H231.262C231.25 20.4874 231.061 19.8356 230.693 19.3378C230.326 18.8281 229.745 18.5733 228.951 18.5733ZM236.888 27H235.324V13.4889H236.888V27ZM241.471 27H239.907V13.4889H241.471V27ZM248.17 17.2933C248.988 17.2933 249.687 17.4711 250.268 17.8267C250.861 18.1822 251.311 18.6859 251.619 19.3378C251.939 19.9778 252.099 20.7304 252.099 21.5956V22.5378H245.575C245.598 23.6163 245.871 24.44 246.393 25.0089C246.926 25.5659 247.667 25.8444 248.615 25.8444C249.219 25.8444 249.753 25.7911 250.215 25.6844C250.689 25.5659 251.175 25.4 251.673 25.1867V26.5556C251.187 26.7689 250.707 26.923 250.233 27.0178C249.758 27.1244 249.195 27.1778 248.544 27.1778C247.643 27.1778 246.843 26.9941 246.144 26.6267C245.456 26.2593 244.917 25.7141 244.526 24.9911C244.147 24.2563 243.957 23.3615 243.957 22.3067C243.957 21.2637 244.129 20.3689 244.473 19.6222C244.828 18.8756 245.32 18.3007 245.948 17.8978C246.588 17.4948 247.329 17.2933 248.17 17.2933ZM248.153 18.5733C247.406 18.5733 246.813 18.8163 246.375 19.3022C245.948 19.7763 245.693 20.44 245.61 21.2933H250.464C250.452 20.4874 250.262 19.8356 249.895 19.3378C249.527 18.8281 248.947 18.5733 248.153 18.5733Z" fill="black"/>
<rect x="129" y="1" width="132" height="38" stroke="#B3800F" stroke-width="2"/>
<line x1="189" y1="38" x2="189" y2="76" stroke="#B3800F" stroke-width="2"/>
<path d="M144.038 95.8737L144.026 98H133.924V81.8H144.026V83.9262H136.568V88.8087H142.53V90.8675H136.568V95.8737H144.038ZM143.644 77.1087L139.988 80.3262C139.853 80.4462 139.725 80.5212 139.605 80.5512C139.485 80.5812 139.335 80.5962 139.155 80.5962H137.411L139.886 77.525C139.954 77.4275 140.021 77.3525 140.089 77.3C140.156 77.2475 140.231 77.2062 140.314 77.1762C140.396 77.1462 140.486 77.1275 140.584 77.12C140.689 77.1125 140.809 77.1087 140.944 77.1087H143.644ZM149.633 98.18C148.68 98.18 147.945 97.9137 147.428 97.3812C146.918 96.8412 146.663 96.0837 146.663 95.1088V88.4262H145.403C145.268 88.4262 145.152 88.385 145.054 88.3025C144.957 88.2125 144.908 88.0812 144.908 87.9087V86.93L146.764 86.66L147.293 83.3412C147.33 83.2137 147.394 83.1125 147.484 83.0375C147.574 82.955 147.694 82.9137 147.844 82.9137H149.082V86.6825H152.265V88.4262H149.082V94.94C149.082 95.3525 149.183 95.6675 149.385 95.885C149.588 96.1025 149.858 96.2112 150.195 96.2112C150.383 96.2112 150.544 96.1887 150.679 96.1437C150.814 96.0912 150.93 96.0387 151.028 95.9862C151.125 95.9262 151.208 95.8737 151.275 95.8287C151.35 95.7762 151.422 95.75 151.489 95.75C151.624 95.75 151.733 95.825 151.815 95.975L152.535 97.1562C152.16 97.4862 151.718 97.7412 151.208 97.9212C150.698 98.0938 150.173 98.18 149.633 98.18ZM160.303 92.9825C159.441 93.0125 158.713 93.0837 158.121 93.1962C157.528 93.3012 157.048 93.44 156.681 93.6125C156.313 93.7775 156.047 93.9762 155.882 94.2087C155.724 94.4412 155.646 94.6962 155.646 94.9737C155.646 95.2437 155.687 95.4762 155.769 95.6712C155.859 95.8587 155.979 96.0162 156.129 96.1437C156.287 96.2637 156.467 96.3537 156.669 96.4137C156.879 96.4662 157.108 96.4925 157.356 96.4925C157.986 96.4925 158.526 96.3762 158.976 96.1437C159.433 95.9037 159.876 95.5587 160.303 95.1088V92.9825ZM153.891 88.1225C155.188 86.915 156.733 86.3112 158.526 86.3112C159.186 86.3112 159.771 86.42 160.281 86.6375C160.798 86.8475 161.229 87.1475 161.574 87.5375C161.927 87.9275 162.193 88.3925 162.373 88.9325C162.561 89.465 162.654 90.0575 162.654 90.71V98H161.574C161.342 98 161.166 97.9662 161.046 97.8987C160.926 97.8237 160.824 97.6775 160.742 97.46L160.506 96.5262C160.213 96.7887 159.924 97.025 159.639 97.235C159.354 97.4375 159.058 97.61 158.751 97.7525C158.451 97.895 158.124 98 157.772 98.0675C157.427 98.1425 157.044 98.18 156.624 98.18C156.159 98.18 155.724 98.1163 155.319 97.9887C154.922 97.8612 154.577 97.67 154.284 97.415C153.992 97.1525 153.759 96.83 153.587 96.4475C153.422 96.065 153.339 95.615 153.339 95.0975C153.339 94.655 153.456 94.2237 153.688 93.8037C153.928 93.3837 154.318 93.0087 154.858 92.6787C155.406 92.3412 156.122 92.0637 157.007 91.8462C157.899 91.6287 158.998 91.505 160.303 91.475V90.71C160.303 89.885 160.127 89.27 159.774 88.865C159.422 88.46 158.904 88.2575 158.222 88.2575C157.757 88.2575 157.367 88.3175 157.052 88.4375C156.737 88.55 156.463 88.6737 156.231 88.8087C155.998 88.9437 155.792 89.0712 155.612 89.1912C155.432 89.3037 155.241 89.36 155.038 89.36C154.873 89.36 154.731 89.3187 154.611 89.2362C154.498 89.1462 154.404 89.0375 154.329 88.91L153.891 88.1225ZM167.907 95.12C168.244 95.555 168.612 95.8625 169.009 96.0425C169.414 96.215 169.86 96.3012 170.348 96.3012C171.293 96.3012 172.028 95.9562 172.553 95.2662C173.085 94.5762 173.352 93.5487 173.352 92.1837C173.352 91.4787 173.292 90.8787 173.172 90.3837C173.052 89.8812 172.879 89.4725 172.654 89.1575C172.429 88.8425 172.155 88.6137 171.833 88.4712C171.51 88.3287 171.147 88.2575 170.742 88.2575C170.127 88.2575 169.594 88.3925 169.144 88.6625C168.702 88.925 168.289 89.3037 167.907 89.7987V95.12ZM167.783 88.19C168.263 87.6275 168.807 87.1737 169.414 86.8287C170.029 86.4837 170.742 86.3112 171.552 86.3112C172.197 86.3112 172.782 86.4425 173.307 86.705C173.832 86.96 174.282 87.335 174.657 87.83C175.032 88.325 175.32 88.94 175.523 89.675C175.733 90.4025 175.838 91.2387 175.838 92.1837C175.838 93.0312 175.722 93.8225 175.489 94.5575C175.264 95.285 174.938 95.9187 174.51 96.4587C174.083 96.9912 173.565 97.4113 172.958 97.7187C172.35 98.0188 171.664 98.1688 170.899 98.1688C170.224 98.1688 169.65 98.06 169.178 97.8425C168.713 97.625 168.289 97.325 167.907 96.9425V101.814H165.488V86.525H166.95C167.28 86.525 167.49 86.6787 167.58 86.9862L167.783 88.19ZM185.714 90.9688C185.714 90.5637 185.654 90.1887 185.534 89.8437C185.422 89.4912 185.253 89.1875 185.028 88.9325C184.803 88.67 184.522 88.4675 184.184 88.325C183.854 88.175 183.472 88.1 183.037 88.1C182.159 88.1 181.469 88.3512 180.967 88.8537C180.464 89.3562 180.146 90.0612 180.011 90.9688H185.714ZM179.943 92.4537C179.973 93.1062 180.074 93.6725 180.247 94.1525C180.419 94.625 180.648 95.0187 180.933 95.3337C181.226 95.6487 181.571 95.885 181.968 96.0425C182.373 96.1925 182.823 96.2675 183.318 96.2675C183.791 96.2675 184.199 96.215 184.544 96.11C184.889 95.9975 185.189 95.8775 185.444 95.75C185.699 95.615 185.917 95.495 186.097 95.39C186.277 95.2775 186.442 95.2212 186.592 95.2212C186.787 95.2212 186.937 95.2962 187.042 95.4462L187.728 96.335C187.443 96.6725 187.121 96.9575 186.761 97.19C186.401 97.4225 186.018 97.6137 185.613 97.7637C185.208 97.9062 184.792 98.0075 184.364 98.0675C183.937 98.135 183.521 98.1688 183.116 98.1688C182.321 98.1688 181.582 98.0375 180.899 97.775C180.224 97.505 179.636 97.1112 179.133 96.5938C178.638 96.0762 178.248 95.435 177.963 94.67C177.686 93.905 177.547 93.0237 177.547 92.0262C177.547 91.2312 177.671 90.4887 177.918 89.7987C178.173 89.1087 178.533 88.5087 178.998 87.9987C179.471 87.4887 180.041 87.0875 180.708 86.795C181.383 86.495 182.144 86.345 182.992 86.345C183.697 86.345 184.349 86.4612 184.949 86.6938C185.549 86.9187 186.067 87.2525 186.502 87.695C186.937 88.1375 187.274 88.6812 187.514 89.3262C187.762 89.9637 187.886 90.6912 187.886 91.5087C187.886 91.8837 187.844 92.135 187.762 92.2625C187.679 92.39 187.529 92.4537 187.312 92.4537H179.943ZM205.824 96.1662V98H196.993V96.1662H200.368V86.0187C200.368 85.6587 200.379 85.2912 200.402 84.9162L197.803 87.11C197.691 87.2 197.574 87.26 197.454 87.29C197.342 87.3125 197.233 87.3125 197.128 87.29C197.031 87.2675 196.941 87.2337 196.858 87.1887C196.783 87.1362 196.723 87.08 196.678 87.02L195.924 85.9625L200.807 81.7662H202.776V96.1662H205.824ZM221.723 89.3487C221.385 88.9137 221.014 88.61 220.609 88.4375C220.204 88.265 219.765 88.1787 219.293 88.1787C218.348 88.1787 217.609 88.5275 217.077 89.225C216.544 89.915 216.278 90.9387 216.278 92.2962C216.278 93.0012 216.338 93.605 216.458 94.1075C216.578 94.6025 216.75 95.0075 216.975 95.3225C217.2 95.6375 217.474 95.8662 217.797 96.0087C218.119 96.1512 218.483 96.2225 218.888 96.2225C219.503 96.2225 220.032 96.0912 220.474 95.8287C220.924 95.5587 221.34 95.18 221.723 94.6925V89.3487ZM224.142 81.35V98H222.679C222.357 98 222.15 97.8462 222.06 97.5387L221.847 96.29C221.367 96.8525 220.819 97.3062 220.204 97.6512C219.597 97.9962 218.888 98.1688 218.078 98.1688C217.433 98.1688 216.848 98.0412 216.323 97.7862C215.798 97.5237 215.348 97.145 214.973 96.65C214.598 96.155 214.305 95.5437 214.095 94.8162C213.893 94.0812 213.792 93.2412 213.792 92.2962C213.792 91.4412 213.904 90.65 214.129 89.9225C214.362 89.195 214.692 88.565 215.119 88.0325C215.547 87.4925 216.064 87.0725 216.672 86.7725C217.287 86.465 217.973 86.3112 218.73 86.3112C219.405 86.3112 219.979 86.42 220.452 86.6375C220.924 86.8475 221.348 87.1437 221.723 87.5262V81.35H224.142ZM234.625 90.9688C234.625 90.5637 234.565 90.1887 234.445 89.8437C234.333 89.4912 234.164 89.1875 233.939 88.9325C233.714 88.67 233.433 88.4675 233.095 88.325C232.765 88.175 232.383 88.1 231.948 88.1C231.07 88.1 230.38 88.3512 229.878 88.8537C229.375 89.3562 229.057 90.0612 228.922 90.9688H234.625ZM228.854 92.4537C228.884 93.1062 228.985 93.6725 229.158 94.1525C229.33 94.625 229.559 95.0187 229.844 95.3337C230.137 95.6487 230.482 95.885 230.879 96.0425C231.284 96.1925 231.734 96.2675 232.229 96.2675C232.702 96.2675 233.11 96.215 233.455 96.11C233.8 95.9975 234.1 95.8775 234.355 95.75C234.61 95.615 234.828 95.495 235.008 95.39C235.188 95.2775 235.353 95.2212 235.503 95.2212C235.698 95.2212 235.848 95.2962 235.953 95.4462L236.639 96.335C236.354 96.6725 236.032 96.9575 235.672 97.19C235.312 97.4225 234.929 97.6137 234.524 97.7637C234.119 97.9062 233.703 98.0075 233.275 98.0675C232.848 98.135 232.432 98.1688 232.027 98.1688C231.232 98.1688 230.493 98.0375 229.81 97.775C229.135 97.505 228.547 97.1112 228.044 96.5938C227.549 96.0762 227.159 95.435 226.874 94.67C226.597 93.905 226.458 93.0237 226.458 92.0262C226.458 91.2312 226.582 90.4887 226.829 89.7987C227.084 89.1087 227.444 88.5087 227.909 87.9987C228.382 87.4887 228.952 87.0875 229.619 86.795C230.294 86.495 231.055 86.345 231.903 86.345C232.608 86.345 233.26 86.4612 233.86 86.6938C234.46 86.9187 234.978 87.2525 235.413 87.695C235.848 88.1375 236.185 88.6812 236.425 89.3262C236.673 89.9637 236.797 90.6912 236.797 91.5087C236.797 91.8837 236.755 92.135 236.673 92.2625C236.59 92.39 236.44 92.4537 236.223 92.4537H228.854ZM251.293 92.015V86.0975C251.293 85.625 251.327 85.1075 251.394 84.545L245.949 92.015H251.293ZM255.635 92.015V93.41C255.635 93.545 255.59 93.6612 255.5 93.7587C255.418 93.8562 255.29 93.905 255.118 93.905H253.397V98H251.293V93.905H244.284C244.112 93.905 243.962 93.8562 243.834 93.7587C243.714 93.6537 243.635 93.5262 243.598 93.3762L243.35 92.1387L251.124 81.7887H253.397V92.015H255.635Z" fill="#707070"/>
<path d="M155.74 131.166H146.901V156H141.447V131.166H132.608V126.685H155.74V131.166ZM163.777 135.2V156H158.749V135.2H163.777ZM164.466 129.138C164.466 129.571 164.378 129.976 164.202 130.355C164.027 130.733 163.79 131.064 163.493 131.348C163.209 131.632 162.871 131.862 162.479 132.037C162.087 132.2 161.668 132.281 161.222 132.281C160.79 132.281 160.378 132.2 159.986 132.037C159.607 131.862 159.276 131.632 158.992 131.348C158.709 131.064 158.479 130.733 158.303 130.355C158.141 129.976 158.06 129.571 158.06 129.138C158.06 128.692 158.141 128.273 158.303 127.882C158.479 127.49 158.709 127.152 158.992 126.868C159.276 126.584 159.607 126.361 159.986 126.199C160.378 126.023 160.79 125.935 161.222 125.935C161.668 125.935 162.087 126.023 162.479 126.199C162.871 126.361 163.209 126.584 163.493 126.868C163.79 127.152 164.027 127.49 164.202 127.882C164.378 128.273 164.466 128.692 164.466 129.138ZM175.815 156.324C174.004 156.324 172.612 155.818 171.639 154.804C170.679 153.777 170.199 152.364 170.199 150.567V138.951H168.071C167.801 138.951 167.571 138.863 167.382 138.687C167.192 138.511 167.098 138.248 167.098 137.896V135.91L170.443 135.362L171.497 129.686C171.565 129.416 171.693 129.206 171.882 129.057C172.071 128.909 172.315 128.834 172.612 128.834H175.207V135.382H180.762V138.951H175.207V150.222C175.207 150.871 175.362 151.378 175.673 151.743C175.998 152.108 176.437 152.29 176.991 152.29C177.302 152.29 177.559 152.256 177.761 152.189C177.977 152.108 178.16 152.027 178.309 151.945C178.471 151.864 178.613 151.79 178.734 151.722C178.856 151.641 178.978 151.601 179.099 151.601C179.248 151.601 179.37 151.641 179.464 151.722C179.559 151.79 179.66 151.898 179.768 152.047L181.268 154.48C180.539 155.088 179.701 155.547 178.755 155.858C177.809 156.169 176.829 156.324 175.815 156.324ZM188.691 138.809C189.34 137.565 190.11 136.592 191.002 135.889C191.894 135.173 192.948 134.815 194.165 134.815C195.124 134.815 195.895 135.024 196.476 135.443L196.152 139.194C196.084 139.437 195.983 139.613 195.847 139.721C195.726 139.815 195.557 139.863 195.341 139.863C195.138 139.863 194.834 139.829 194.428 139.761C194.036 139.694 193.651 139.66 193.273 139.66C192.719 139.66 192.225 139.741 191.793 139.903C191.36 140.066 190.968 140.302 190.617 140.613C190.279 140.91 189.975 141.275 189.705 141.708C189.448 142.14 189.205 142.633 188.975 143.188V156H183.968V135.2H186.907C187.421 135.2 187.779 135.295 187.982 135.484C188.184 135.66 188.319 135.984 188.387 136.457L188.691 138.809ZM211.899 143.208C211.899 142.559 211.805 141.951 211.616 141.383C211.44 140.802 211.17 140.295 210.805 139.863C210.44 139.43 209.974 139.092 209.406 138.849C208.852 138.592 208.203 138.464 207.46 138.464C206.014 138.464 204.872 138.876 204.034 139.701C203.209 140.525 202.682 141.694 202.452 143.208H211.899ZM202.351 146.228C202.432 147.296 202.621 148.222 202.919 149.006C203.216 149.776 203.608 150.418 204.094 150.932C204.581 151.432 205.155 151.81 205.818 152.067C206.493 152.31 207.237 152.432 208.048 152.432C208.859 152.432 209.555 152.337 210.136 152.148C210.73 151.959 211.244 151.749 211.676 151.52C212.122 151.29 212.508 151.08 212.832 150.891C213.17 150.702 213.494 150.607 213.805 150.607C214.224 150.607 214.535 150.763 214.738 151.074L216.177 152.898C215.623 153.547 215.001 154.094 214.312 154.54C213.623 154.973 212.9 155.324 212.143 155.595C211.399 155.851 210.636 156.034 209.852 156.142C209.082 156.25 208.331 156.304 207.602 156.304C206.156 156.304 204.811 156.068 203.567 155.595C202.324 155.108 201.243 154.398 200.324 153.466C199.405 152.52 198.682 151.358 198.154 149.979C197.627 148.587 197.364 146.979 197.364 145.154C197.364 143.735 197.594 142.404 198.053 141.16C198.513 139.903 199.168 138.815 200.02 137.896C200.885 136.964 201.932 136.227 203.162 135.687C204.405 135.146 205.804 134.876 207.358 134.876C208.669 134.876 209.879 135.085 210.987 135.504C212.095 135.923 213.048 136.538 213.846 137.349C214.643 138.146 215.265 139.133 215.711 140.309C216.17 141.471 216.4 142.802 216.4 144.303C216.4 145.059 216.319 145.573 216.157 145.843C215.995 146.1 215.684 146.228 215.224 146.228H202.351Z" fill="black"/>
</svg>
