<svg width="416" height="168" viewBox="0 0 416 168" fill="none" xmlns="http://www.w3.org/2000/svg">
<path d="M95.3773 80H93.6573V70.02C93.6573 69.4467 93.664 68.9867 93.6773 68.64C93.6907 68.2933 93.7107 67.9333 93.7373 67.56C93.524 67.7733 93.3307 67.9533 93.1573 68.1C92.984 68.2467 92.764 68.4333 92.4973 68.66L90.9773 69.9L90.0573 68.72L93.9173 65.72H95.3773V80Z" fill="#26374A"/>
<path d="M88.2773 82.5H99.7173V83.5H88.2773V82.5Z" fill="#26374A"/>
<rect x="71" y="49" width="46" height="46" rx="3" stroke="#2B4380" stroke-width="2"/>
<path d="M155.677 80H146.237V78.54L149.977 74.76C150.697 74.04 151.304 73.4 151.797 72.84C152.291 72.28 152.664 71.7333 152.917 71.2C153.171 70.6533 153.297 70.06 153.297 69.42C153.297 68.6333 153.064 68.04 152.597 67.64C152.131 67.2267 151.524 67.02 150.777 67.02C150.084 67.02 149.471 67.14 148.937 67.38C148.417 67.62 147.884 67.9533 147.337 68.38L146.397 67.2C146.957 66.7333 147.597 66.34 148.317 66.02C149.051 65.6867 149.871 65.52 150.777 65.52C152.111 65.52 153.164 65.86 153.937 66.54C154.711 67.2067 155.097 68.1333 155.097 69.32C155.097 70.0667 154.944 70.7667 154.637 71.42C154.331 72.0733 153.904 72.72 153.357 73.36C152.811 73.9867 152.171 74.66 151.437 75.38L148.457 78.32V78.4H155.677V80Z" fill="#26374A"/>
<path d="M145.277 82.5H156.717V83.5H145.277V82.5Z" fill="#26374A"/>
<rect x="128" y="49" width="46" height="46" rx="3" stroke="#2B4380" stroke-width="2"/>
<rect x="185" y="49" width="46" height="46" rx="3" fill="#26374A"/>
<path d="M212.137 68.81C212.137 69.77 211.871 70.5367 211.337 71.11C210.804 71.67 210.084 72.0433 209.177 72.23V72.31C210.324 72.4433 211.177 72.8033 211.737 73.39C212.297 73.9767 212.577 74.7433 212.577 75.69C212.577 76.5167 212.384 77.2567 211.997 77.91C211.611 78.55 211.011 79.05 210.197 79.41C209.397 79.77 208.364 79.95 207.097 79.95C206.351 79.95 205.657 79.89 205.017 79.77C204.377 79.6633 203.764 79.4633 203.177 79.17V77.53C203.777 77.8233 204.424 78.0567 205.117 78.23C205.811 78.39 206.477 78.47 207.117 78.47C208.397 78.47 209.317 78.2233 209.877 77.73C210.451 77.2233 210.737 76.53 210.737 75.65C210.737 74.7567 210.384 74.1167 209.677 73.73C208.984 73.33 208.004 73.13 206.737 73.13H205.357V71.63H206.757C207.931 71.63 208.817 71.3833 209.417 70.89C210.031 70.3967 210.337 69.7433 210.337 68.93C210.337 68.2367 210.104 67.7033 209.637 67.33C209.171 66.9433 208.537 66.75 207.737 66.75C206.964 66.75 206.304 66.8633 205.757 67.09C205.211 67.3167 204.671 67.6033 204.137 67.95L203.257 66.75C203.764 66.35 204.391 66.0033 205.137 65.71C205.897 65.4167 206.757 65.27 207.717 65.27C209.211 65.27 210.317 65.6033 211.037 66.27C211.771 66.9367 212.137 67.7833 212.137 68.81Z" fill="white"/>
<rect x="185" y="49" width="46" height="46" rx="3" stroke="#2B4380" stroke-width="2"/>
<path d="M258.327 77.24C258.327 76.688 258.477 76.304 258.777 76.088C259.077 75.86 259.443 75.746 259.875 75.746C260.295 75.746 260.655 75.86 260.955 76.088C261.255 76.304 261.405 76.688 261.405 77.24C261.405 77.768 261.255 78.152 260.955 78.392C260.655 78.62 260.295 78.734 259.875 78.734C259.443 78.734 259.077 78.62 258.777 78.392C258.477 78.152 258.327 77.768 258.327 77.24ZM263.46 77.24C263.46 76.688 263.61 76.304 263.91 76.088C264.21 75.86 264.576 75.746 265.008 75.746C265.428 75.746 265.788 75.86 266.088 76.088C266.388 76.304 266.538 76.688 266.538 77.24C266.538 77.768 266.388 78.152 266.088 78.392C265.788 78.62 265.428 78.734 265.008 78.734C264.576 78.734 264.21 78.62 263.91 78.392C263.61 78.152 263.46 77.768 263.46 77.24ZM268.592 77.24C268.592 76.688 268.742 76.304 269.042 76.088C269.342 75.86 269.708 75.746 270.14 75.746C270.56 75.746 270.92 75.86 271.22 76.088C271.52 76.304 271.67 76.688 271.67 77.24C271.67 77.768 271.52 78.152 271.22 78.392C270.92 78.62 270.56 78.734 270.14 78.734C269.708 78.734 269.342 78.62 269.042 78.392C268.742 78.152 268.592 77.768 268.592 77.24Z" fill="#26374A"/>
<path d="M320.955 80H311.515V78.54L315.255 74.76C315.975 74.04 316.581 73.4 317.075 72.84C317.568 72.28 317.941 71.7333 318.195 71.2C318.448 70.6533 318.575 70.06 318.575 69.42C318.575 68.6333 318.341 68.04 317.875 67.64C317.408 67.2267 316.801 67.02 316.055 67.02C315.361 67.02 314.748 67.14 314.215 67.38C313.695 67.62 313.161 67.9533 312.615 68.38L311.675 67.2C312.235 66.7333 312.875 66.34 313.595 66.02C314.328 65.6867 315.148 65.52 316.055 65.52C317.388 65.52 318.441 65.86 319.215 66.54C319.988 67.2067 320.375 68.1333 320.375 69.32C320.375 70.0667 320.221 70.7667 319.915 71.42C319.608 72.0733 319.181 72.72 318.635 73.36C318.088 73.9867 317.448 74.66 316.715 75.38L313.735 78.32V78.4H320.955V80ZM332.46 72.84C332.46 74.3733 332.3 75.6933 331.98 76.8C331.66 77.8933 331.153 78.7333 330.46 79.32C329.767 79.9067 328.847 80.2 327.7 80.2C326.087 80.2 324.893 79.5533 324.12 78.26C323.36 76.9533 322.98 75.1467 322.98 72.84C322.98 71.2933 323.133 69.9733 323.44 68.88C323.76 67.7867 324.267 66.9533 324.96 66.38C325.653 65.7933 326.567 65.5 327.7 65.5C329.3 65.5 330.493 66.1467 331.28 67.44C332.067 68.72 332.46 70.52 332.46 72.84ZM324.74 72.84C324.74 74.8 324.96 76.2667 325.4 77.24C325.853 78.2133 326.62 78.7 327.7 78.7C328.767 78.7 329.527 78.22 329.98 77.26C330.447 76.2867 330.68 74.8133 330.68 72.84C330.68 70.8933 330.447 69.4333 329.98 68.46C329.527 67.4867 328.767 67 327.7 67C326.62 67 325.853 67.4867 325.4 68.46C324.96 69.4333 324.74 70.8933 324.74 72.84Z" fill="#26374A"/>
<path d="M310.555 82.5H333.44V83.5H310.555V82.5Z" fill="#26374A"/>
<rect x="299" y="49" width="46" height="46" rx="3" stroke="#2B4380" stroke-width="2"/>
<path d="M122.211 144.5C122.211 145.203 121.664 145.75 121 145.75H109.008L113.109 149.891C113.617 150.359 113.617 151.18 113.109 151.648C112.875 151.883 112.562 152 112.25 152C111.898 152 111.586 151.883 111.352 151.648L105.102 145.398C104.594 144.93 104.594 144.109 105.102 143.641L111.352 137.391C111.82 136.883 112.641 136.883 113.109 137.391C113.617 137.859 113.617 138.68 113.109 139.148L109.008 143.25H121C121.664 143.25 122.211 143.836 122.211 144.5Z" fill="#2B4380"/>
<path d="M137.865 137.72C139.732 137.72 141.092 138.1 141.945 138.86C142.798 139.607 143.225 140.653 143.225 142C143.225 142.6 143.125 143.173 142.925 143.72C142.738 144.267 142.425 144.76 141.985 145.2C141.545 145.627 140.958 145.967 140.225 146.22C139.505 146.46 138.618 146.58 137.565 146.58H136.025V152H133.865V137.72H137.865ZM137.705 139.54H136.025V144.76H137.325C138.138 144.76 138.818 144.673 139.365 144.5C139.912 144.313 140.318 144.027 140.585 143.64C140.865 143.24 141.005 142.72 141.005 142.08C141.005 141.227 140.738 140.593 140.205 140.18C139.685 139.753 138.852 139.54 137.705 139.54ZM151.191 141.02C151.378 141.02 151.584 141.033 151.811 141.06C152.038 141.073 152.224 141.093 152.371 141.12L152.151 143.1C152.004 143.06 151.831 143.027 151.631 143C151.431 142.973 151.244 142.96 151.071 142.96C150.671 142.96 150.284 143.04 149.911 143.2C149.551 143.347 149.224 143.567 148.931 143.86C148.638 144.14 148.404 144.487 148.231 144.9C148.071 145.313 147.991 145.787 147.991 146.32V152H145.871V141.22H147.551L147.831 143.14H147.911C148.138 142.753 148.411 142.4 148.731 142.08C149.051 141.76 149.418 141.507 149.831 141.32C150.244 141.12 150.698 141.02 151.191 141.02ZM158.216 141.02C159.163 141.02 159.976 141.22 160.656 141.62C161.336 142.007 161.856 142.567 162.216 143.3C162.59 144.033 162.776 144.9 162.776 145.9V147.06H155.536C155.563 148.167 155.85 149.013 156.396 149.6C156.956 150.187 157.736 150.48 158.736 150.48C159.43 150.48 160.043 150.42 160.576 150.3C161.123 150.167 161.683 149.973 162.256 149.72V151.48C161.723 151.72 161.176 151.9 160.616 152.02C160.07 152.14 159.416 152.2 158.656 152.2C157.616 152.2 156.696 151.993 155.896 151.58C155.096 151.167 154.47 150.553 154.016 149.74C153.576 148.913 153.356 147.9 153.356 146.7C153.356 145.487 153.556 144.46 153.956 143.62C154.37 142.78 154.936 142.14 155.656 141.7C156.39 141.247 157.243 141.02 158.216 141.02ZM158.216 142.66C157.456 142.66 156.843 142.907 156.376 143.4C155.923 143.893 155.656 144.593 155.576 145.5H160.656C160.656 144.94 160.57 144.447 160.396 144.02C160.223 143.593 159.956 143.26 159.596 143.02C159.236 142.78 158.776 142.66 158.216 142.66ZM161.416 136.88C161.27 137.067 161.07 137.293 160.816 137.56C160.576 137.827 160.303 138.107 159.996 138.4C159.703 138.68 159.41 138.953 159.116 139.22C158.823 139.473 158.556 139.693 158.316 139.88H156.916V139.64C157.116 139.387 157.343 139.087 157.596 138.74C157.85 138.393 158.096 138.04 158.336 137.68C158.576 137.307 158.776 136.973 158.936 136.68H161.416V136.88ZM169.762 152.2C168.775 152.2 167.908 152.007 167.162 151.62C166.415 151.233 165.835 150.633 165.422 149.82C165.008 148.993 164.802 147.947 164.802 146.68C164.802 145.347 165.022 144.267 165.462 143.44C165.915 142.613 166.522 142.007 167.282 141.62C168.055 141.22 168.935 141.02 169.922 141.02C170.522 141.02 171.082 141.087 171.602 141.22C172.135 141.34 172.575 141.48 172.922 141.64L172.282 143.36C171.908 143.213 171.508 143.087 171.082 142.98C170.668 142.873 170.275 142.82 169.902 142.82C169.235 142.82 168.682 142.967 168.242 143.26C167.815 143.54 167.495 143.967 167.282 144.54C167.082 145.1 166.982 145.807 166.982 146.66C166.982 147.473 167.088 148.16 167.302 148.72C167.515 149.28 167.828 149.707 168.242 150C168.668 150.28 169.195 150.42 169.822 150.42C170.422 150.42 170.948 150.353 171.402 150.22C171.855 150.087 172.282 149.913 172.682 149.7V151.54C172.295 151.767 171.875 151.933 171.422 152.04C170.968 152.147 170.415 152.2 169.762 152.2ZM174.926 150.82C174.926 150.3 175.06 149.933 175.326 149.72C175.593 149.507 175.913 149.4 176.286 149.4C176.673 149.4 177 149.507 177.266 149.72C177.533 149.933 177.666 150.3 177.666 150.82C177.666 151.34 177.533 151.713 177.266 151.94C177 152.167 176.673 152.28 176.286 152.28C175.913 152.28 175.593 152.167 175.326 151.94C175.06 151.713 174.926 151.34 174.926 150.82Z" fill="#2B4380"/>
<path d="M131.965 154.5H179.026V155.5H131.965V154.5Z" fill="#2B4380"/>
<rect x="93.5" y="121" width="97" height="46" rx="3" stroke="#2B4380" stroke-width="2"/>
<path d="M222.946 148.14C222.946 148.993 222.739 149.72 222.326 150.32C221.912 150.92 221.319 151.387 220.546 151.72C219.772 152.04 218.852 152.2 217.786 152.2C217.266 152.2 216.766 152.167 216.286 152.1C215.806 152.047 215.359 151.967 214.946 151.86C214.532 151.753 214.166 151.62 213.846 151.46V149.42C214.379 149.66 215.006 149.88 215.726 150.08C216.446 150.267 217.179 150.36 217.926 150.36C218.566 150.36 219.099 150.273 219.526 150.1C219.952 149.927 220.272 149.687 220.486 149.38C220.699 149.073 220.806 148.713 220.806 148.3C220.806 147.86 220.692 147.493 220.466 147.2C220.252 146.893 219.912 146.613 219.446 146.36C218.992 146.093 218.379 145.813 217.606 145.52C217.072 145.32 216.586 145.1 216.146 144.86C215.719 144.607 215.339 144.313 215.006 143.98C214.686 143.647 214.439 143.26 214.266 142.82C214.092 142.38 214.006 141.867 214.006 141.28C214.006 140.493 214.199 139.82 214.586 139.26C214.986 138.7 215.532 138.273 216.226 137.98C216.919 137.673 217.726 137.52 218.646 137.52C219.419 137.52 220.132 137.6 220.786 137.76C221.452 137.907 222.086 138.113 222.686 138.38L222.006 140.16C221.459 139.933 220.906 139.747 220.346 139.6C219.786 139.453 219.199 139.38 218.586 139.38C218.052 139.38 217.606 139.46 217.246 139.62C216.886 139.78 216.612 140 216.426 140.28C216.252 140.56 216.166 140.887 216.166 141.26C216.166 141.7 216.266 142.067 216.466 142.36C216.666 142.653 216.986 142.927 217.426 143.18C217.866 143.42 218.446 143.687 219.166 143.98C219.966 144.287 220.646 144.62 221.206 144.98C221.779 145.34 222.212 145.773 222.506 146.28C222.799 146.773 222.946 147.393 222.946 148.14ZM234.782 141.22V152H233.082L232.782 150.58H232.682C232.455 150.953 232.162 151.26 231.802 151.5C231.442 151.74 231.048 151.913 230.622 152.02C230.195 152.14 229.755 152.2 229.302 152.2C228.462 152.2 227.748 152.067 227.162 151.8C226.588 151.52 226.148 151.093 225.842 150.52C225.548 149.933 225.402 149.187 225.402 148.28V141.22H227.542V147.96C227.542 148.8 227.715 149.427 228.062 149.84C228.422 150.253 228.975 150.46 229.722 150.46C230.468 150.46 231.055 150.313 231.482 150.02C231.908 149.727 232.208 149.3 232.382 148.74C232.568 148.167 232.662 147.48 232.662 146.68V141.22H234.782ZM240.219 141.22V152H238.099V141.22H240.219ZM239.179 137.12C239.499 137.12 239.779 137.213 240.019 137.4C240.259 137.587 240.379 137.9 240.379 138.34C240.379 138.767 240.259 139.08 240.019 139.28C239.779 139.467 239.499 139.56 239.179 139.56C238.833 139.56 238.539 139.467 238.299 139.28C238.073 139.08 237.959 138.767 237.959 138.34C237.959 137.9 238.073 137.587 238.299 137.4C238.539 137.213 238.833 137.12 239.179 137.12ZM245.969 152L241.889 141.22H244.129L246.369 147.52C246.462 147.787 246.555 148.087 246.649 148.42C246.755 148.753 246.849 149.073 246.929 149.38C247.009 149.687 247.062 149.953 247.089 150.18H247.169C247.209 149.953 247.269 149.687 247.349 149.38C247.442 149.06 247.542 148.74 247.649 148.42C247.755 148.087 247.849 147.787 247.929 147.52L250.169 141.22H252.409L248.309 152H245.969ZM258.256 141.02C259.616 141.02 260.629 141.32 261.296 141.92C261.963 142.507 262.296 143.433 262.296 144.7V152H260.796L260.376 150.5H260.296C259.989 150.887 259.669 151.207 259.336 151.46C259.016 151.713 258.643 151.9 258.216 152.02C257.803 152.14 257.296 152.2 256.696 152.2C256.056 152.2 255.476 152.087 254.956 151.86C254.449 151.62 254.049 151.26 253.756 150.78C253.463 150.287 253.316 149.673 253.316 148.94C253.316 147.847 253.729 147.013 254.556 146.44C255.396 145.867 256.669 145.553 258.376 145.5L260.216 145.44V144.84C260.216 144.04 260.036 143.48 259.676 143.16C259.316 142.84 258.809 142.68 258.156 142.68C257.596 142.68 257.063 142.76 256.556 142.92C256.049 143.08 255.569 143.273 255.116 143.5L254.436 141.96C254.943 141.693 255.523 141.473 256.176 141.3C256.843 141.113 257.536 141.02 258.256 141.02ZM258.756 146.86C257.529 146.913 256.676 147.12 256.196 147.48C255.729 147.827 255.496 148.32 255.496 148.96C255.496 149.52 255.663 149.927 255.996 150.18C256.343 150.433 256.776 150.56 257.296 150.56C258.136 150.56 258.829 150.327 259.376 149.86C259.923 149.393 260.196 148.693 260.196 147.76V146.82L258.756 146.86ZM271.02 141.02C272.274 141.02 273.234 141.333 273.9 141.96C274.567 142.587 274.9 143.593 274.9 144.98V152H272.8V145.28C272.8 144.44 272.62 143.813 272.26 143.4C271.914 142.973 271.354 142.76 270.58 142.76C269.487 142.76 268.727 143.087 268.3 143.74C267.887 144.393 267.68 145.333 267.68 146.56V152H265.56V141.22H267.24L267.54 142.66H267.66C267.9 142.287 268.194 141.98 268.54 141.74C268.887 141.5 269.274 141.32 269.7 141.2C270.127 141.08 270.567 141.02 271.02 141.02ZM282.038 150.48C282.318 150.48 282.605 150.453 282.898 150.4C283.191 150.347 283.445 150.287 283.658 150.22V151.82C283.431 151.927 283.125 152.013 282.738 152.08C282.351 152.16 281.965 152.2 281.578 152.2C280.991 152.2 280.451 152.1 279.958 151.9C279.478 151.7 279.091 151.353 278.798 150.86C278.505 150.367 278.358 149.68 278.358 148.8V142.84H276.858V141.88L278.438 141.08L279.178 138.8H280.478V141.22H283.558V142.84H280.478V148.76C280.478 149.347 280.618 149.78 280.898 150.06C281.191 150.34 281.571 150.48 282.038 150.48Z" fill="#2B4380"/>
<path d="M212.846 154.5H284.158V155.5H212.846V154.5Z" fill="#2B4380"/>
<path d="M310.859 145.398L304.609 151.648C304.375 151.883 304.062 152 303.75 152C303.398 152 303.086 151.883 302.852 151.648C302.344 151.18 302.344 150.359 302.852 149.891L306.953 145.75H295C294.297 145.75 293.75 145.203 293.75 144.5C293.75 143.836 294.297 143.25 295 143.25H306.953L302.852 139.148C302.344 138.68 302.344 137.859 302.852 137.391C303.32 136.883 304.141 136.883 304.609 137.391L310.859 143.641C311.367 144.109 311.367 144.93 310.859 145.398Z" fill="#2B4380"/>
<rect x="201.5" y="121" width="121" height="46" rx="3" stroke="#2B4380" stroke-width="2"/>
<g clip-path="url(#clip0_218_255)">
<rect x="307.5" y="144" width="108.5" height="1" fill="#C54600"/>
<g clip-path="url(#clip1_218_255)">
<rect x="392" y="132" width="24" height="24" rx="12" fill="#C54600"/>
<path d="M404.033 149.139C403.33 149.139 402.704 149.01 402.154 148.751C401.607 148.493 401.172 148.137 400.851 147.683C400.529 147.228 400.362 146.708 400.349 146.121H402.437C402.46 146.516 402.626 146.836 402.934 147.081C403.242 147.326 403.609 147.449 404.033 147.449C404.371 147.449 404.669 147.374 404.928 147.225C405.19 147.073 405.393 146.862 405.539 146.594C405.688 146.322 405.763 146.01 405.763 145.659C405.763 145.301 405.687 144.986 405.534 144.714C405.385 144.443 405.178 144.231 404.913 144.078C404.648 143.926 404.344 143.848 404.003 143.844C403.705 143.844 403.415 143.906 403.133 144.028C402.855 144.151 402.637 144.318 402.482 144.531L400.568 144.188L401.05 138.818H407.274V140.578H402.825L402.561 143.129H402.621C402.8 142.877 403.07 142.668 403.431 142.502C403.793 142.336 404.197 142.254 404.644 142.254C405.257 142.254 405.804 142.398 406.285 142.686C406.766 142.974 407.145 143.371 407.423 143.874C407.702 144.375 407.839 144.951 407.836 145.604C407.839 146.29 407.68 146.9 407.359 147.434C407.041 147.964 406.595 148.382 406.021 148.687C405.451 148.988 404.788 149.139 404.033 149.139Z" fill="white"/>
</g>
</g>
<g clip-path="url(#clip2_218_255)">
<rect y="144" width="109" height="1" fill="#C54600"/>
<g clip-path="url(#clip3_218_255)">
<rect y="132" width="24" height="24" rx="12" fill="#C54600"/>
<path d="M7.92702 147.21V145.515L12.1777 138.818H13.6394V141.165H12.7743L10.0946 145.406V145.485H16.1351V147.21H7.92702ZM12.8141 149V146.693L12.8539 145.942V138.818H14.8723V149H12.8141Z" fill="white"/>
</g>
</g>
<g clip-path="url(#clip4_218_255)">
<rect x="265" width="1" height="65" fill="#C54600"/>
<g clip-path="url(#clip5_218_255)">
<rect x="253" width="24" height="24" rx="12" fill="#C54600"/>
<path d="M264.975 17.1392C264.233 17.1392 263.571 17.0116 262.991 16.7564C262.415 16.4979 261.959 16.1432 261.624 15.6925C261.293 15.2384 261.122 14.7147 261.112 14.1214H263.28C263.293 14.37 263.374 14.5888 263.523 14.7777C263.676 14.9633 263.878 15.1075 264.13 15.2102C264.382 15.313 264.665 15.3643 264.98 15.3643C265.308 15.3643 265.598 15.3063 265.85 15.1903C266.102 15.0743 266.299 14.9136 266.442 14.7081C266.584 14.5026 266.655 14.2656 266.655 13.9972C266.655 13.7254 266.579 13.4851 266.427 13.2763C266.278 13.0642 266.062 12.8984 265.78 12.7791C265.502 12.6598 265.171 12.6001 264.786 12.6001H263.837V11.0192H264.786C265.111 11.0192 265.398 10.9628 265.646 10.8501C265.898 10.7375 266.094 10.5817 266.233 10.3828C266.372 10.1806 266.442 9.94531 266.442 9.67685C266.442 9.42164 266.38 9.19792 266.258 9.00568C266.138 8.81013 265.969 8.65767 265.751 8.5483C265.535 8.43892 265.283 8.38423 264.995 8.38423C264.703 8.38423 264.436 8.43726 264.194 8.54332C263.953 8.64607 263.759 8.79356 263.613 8.9858C263.467 9.17803 263.389 9.40341 263.379 9.66193H261.316C261.326 9.07528 261.493 8.55824 261.818 8.1108C262.143 7.66335 262.58 7.31368 263.131 7.06179C263.684 6.80658 264.309 6.67898 265.005 6.67898C265.707 6.67898 266.322 6.80658 266.849 7.06179C267.376 7.317 267.786 7.66169 268.077 8.09588C268.372 8.52675 268.518 9.01065 268.515 9.54758C268.518 10.1177 268.341 10.5933 267.983 10.9744C267.628 11.3556 267.166 11.5975 266.596 11.7003V11.7798C267.345 11.8759 267.915 12.1361 268.306 12.5604C268.7 12.9813 268.896 13.5083 268.893 14.1413C268.896 14.7214 268.729 15.2367 268.39 15.6875C268.056 16.1383 267.593 16.4929 267.003 16.7514C266.413 17.0099 265.737 17.1392 264.975 17.1392Z" fill="white"/>
</g>
</g>
<g clip-path="url(#clip6_218_255)">
<rect x="208" width="1" height="48" fill="#C54600"/>
<g clip-path="url(#clip7_218_255)">
<rect x="196" width="24" height="24" rx="12" fill="#C54600"/>
<path d="M204.417 17V15.4489L208.041 12.093C208.349 11.7947 208.608 11.5263 208.816 11.2876C209.029 11.049 209.189 10.8153 209.299 10.5866C209.408 10.3546 209.463 10.1044 209.463 9.83594C209.463 9.53764 209.395 9.28078 209.259 9.06534C209.123 8.84659 208.937 8.67921 208.702 8.56321C208.467 8.44389 208.2 8.38423 207.902 8.38423C207.59 8.38423 207.318 8.44721 207.086 8.57315C206.854 8.6991 206.675 8.87973 206.549 9.11506C206.423 9.35038 206.36 9.63044 206.36 9.95526H204.317C204.317 9.28906 204.468 8.7107 204.77 8.22017C205.071 7.72964 205.494 7.35014 206.037 7.08168C206.581 6.81321 207.207 6.67898 207.917 6.67898C208.646 6.67898 209.28 6.80824 209.821 7.06676C210.364 7.32197 210.787 7.67661 211.088 8.13068C211.39 8.58475 211.541 9.10511 211.541 9.69176C211.541 10.0762 211.465 10.4557 211.312 10.8303C211.163 11.2048 210.896 11.6207 210.512 12.0781C210.127 12.5322 209.585 13.0774 208.886 13.7138L207.4 15.1705V15.2401H211.675V17H204.417Z" fill="white"/>
</g>
</g>
<g clip-path="url(#clip8_218_255)">
<rect y="72" width="70" height="1" fill="#C54600"/>
<g clip-path="url(#clip9_218_255)">
<rect y="60" width="24" height="24" rx="12" fill="#C54600"/>
<path d="M13.8302 66.8182V77H11.6775V68.8615H11.6178L9.28613 70.3232V68.4141L11.8067 66.8182H13.8302Z" fill="white"/>
</g>
</g>
<defs>
<clipPath id="clip0_218_255">
<rect width="108.5" height="24" fill="white" transform="translate(307.5 132)"/>
</clipPath>
<clipPath id="clip1_218_255">
<rect x="392" y="132" width="24" height="24" rx="12" fill="white"/>
</clipPath>
<clipPath id="clip2_218_255">
<rect width="108.5" height="24" fill="white" transform="translate(0 132)"/>
</clipPath>
<clipPath id="clip3_218_255">
<rect y="132" width="24" height="24" rx="12" fill="white"/>
</clipPath>
<clipPath id="clip4_218_255">
<rect width="24" height="65" fill="white" transform="translate(253)"/>
</clipPath>
<clipPath id="clip5_218_255">
<rect x="253" width="24" height="24" rx="12" fill="white"/>
</clipPath>
<clipPath id="clip6_218_255">
<rect width="24" height="48" fill="white" transform="translate(196)"/>
</clipPath>
<clipPath id="clip7_218_255">
<rect x="196" width="24" height="24" rx="12" fill="white"/>
</clipPath>
<clipPath id="clip8_218_255">
<rect width="70" height="24" fill="white" transform="translate(0 60)"/>
</clipPath>
<clipPath id="clip9_218_255">
<rect y="60" width="24" height="24" rx="12" fill="white"/>
</clipPath>
</defs>
</svg>
