<svg width="260" height="136" viewBox="0 0 260 136" fill="none" xmlns="http://www.w3.org/2000/svg">
<path d="M50.7 72.11L50.69 74H41.71V59.6H50.69V61.49H44.06V65.83H49.36V67.66H44.06V72.11H50.7ZM50.35 55.43L47.1 58.29C46.98 58.3967 46.8667 58.4633 46.76 58.49C46.6533 58.5167 46.52 58.53 46.36 58.53H44.81L47.01 55.8C47.07 55.7133 47.13 55.6467 47.19 55.6C47.25 55.5533 47.3167 55.5167 47.39 55.49C47.4633 55.4633 47.5433 55.4467 47.63 55.44C47.7233 55.4333 47.83 55.43 47.95 55.43H50.35ZM55.6738 74.16C54.8271 74.16 54.1738 73.9233 53.7138 73.45C53.2604 72.97 53.0338 72.2967 53.0338 71.43V65.49H51.9138C51.7938 65.49 51.6904 65.4533 51.6038 65.38C51.5171 65.3 51.4738 65.1833 51.4738 65.03V64.16L53.1238 63.92L53.5938 60.97C53.6271 60.8567 53.6838 60.7667 53.7638 60.7C53.8438 60.6267 53.9504 60.59 54.0838 60.59H55.1838V63.94H58.0138V65.49H55.1838V71.28C55.1838 71.6467 55.2738 71.9267 55.4538 72.12C55.6338 72.3133 55.8738 72.41 56.1738 72.41C56.3404 72.41 56.4838 72.39 56.6037 72.35C56.7238 72.3033 56.8271 72.2567 56.9138 72.21C57.0004 72.1567 57.0738 72.11 57.1338 72.07C57.2004 72.0233 57.2638 72 57.3238 72C57.4438 72 57.5404 72.0667 57.6138 72.2L58.2538 73.25C57.9204 73.5433 57.5271 73.77 57.0738 73.93C56.6204 74.0833 56.1538 74.16 55.6738 74.16ZM65.1584 69.54C64.3918 69.5667 63.7451 69.63 63.2184 69.73C62.6918 69.8233 62.2651 69.9467 61.9384 70.1C61.6118 70.2467 61.3751 70.4233 61.2284 70.63C61.0884 70.8367 61.0184 71.0633 61.0184 71.31C61.0184 71.55 61.0551 71.7567 61.1284 71.93C61.2084 72.0967 61.3151 72.2367 61.4484 72.35C61.5884 72.4567 61.7484 72.5367 61.9284 72.59C62.1151 72.6367 62.3184 72.66 62.5384 72.66C63.0984 72.66 63.5784 72.5567 63.9784 72.35C64.3851 72.1367 64.7784 71.83 65.1584 71.43V69.54ZM59.4584 65.22C60.6118 64.1467 61.9851 63.61 63.5784 63.61C64.1651 63.61 64.6851 63.7067 65.1384 63.9C65.5984 64.0867 65.9818 64.3533 66.2884 64.7C66.6018 65.0467 66.8384 65.46 66.9984 65.94C67.1651 66.4133 67.2484 66.94 67.2484 67.52V74H66.2884C66.0818 74 65.9251 73.97 65.8184 73.91C65.7118 73.8433 65.6218 73.7133 65.5484 73.52L65.3384 72.69C65.0784 72.9233 64.8218 73.1333 64.5684 73.32C64.3151 73.5 64.0518 73.6533 63.7784 73.78C63.5118 73.9067 63.2218 74 62.9084 74.06C62.6018 74.1267 62.2618 74.16 61.8884 74.16C61.4751 74.16 61.0884 74.1033 60.7284 73.99C60.3751 73.8767 60.0684 73.7067 59.8084 73.48C59.5484 73.2467 59.3418 72.96 59.1884 72.62C59.0418 72.28 58.9684 71.88 58.9684 71.42C58.9684 71.0267 59.0718 70.6433 59.2784 70.27C59.4918 69.8967 59.8384 69.5633 60.3184 69.27C60.8051 68.97 61.4418 68.7233 62.2284 68.53C63.0218 68.3367 63.9984 68.2267 65.1584 68.2V67.52C65.1584 66.7867 65.0018 66.24 64.6884 65.88C64.3751 65.52 63.9151 65.34 63.3084 65.34C62.8951 65.34 62.5484 65.3933 62.2684 65.5C61.9884 65.6 61.7451 65.71 61.5384 65.83C61.3318 65.95 61.1484 66.0633 60.9884 66.17C60.8284 66.27 60.6584 66.32 60.4784 66.32C60.3318 66.32 60.2051 66.2833 60.0984 66.21C59.9984 66.13 59.9151 66.0333 59.8484 65.92L59.4584 65.22ZM71.917 71.44C72.217 71.8267 72.5437 72.1 72.897 72.26C73.257 72.4133 73.6537 72.49 74.087 72.49C74.927 72.49 75.5804 72.1833 76.047 71.57C76.5204 70.9567 76.757 70.0433 76.757 68.83C76.757 68.2033 76.7037 67.67 76.597 67.23C76.4904 66.7833 76.337 66.42 76.137 66.14C75.937 65.86 75.6937 65.6567 75.407 65.53C75.1204 65.4033 74.797 65.34 74.437 65.34C73.8904 65.34 73.417 65.46 73.017 65.7C72.6237 65.9333 72.257 66.27 71.917 66.71V71.44ZM71.807 65.28C72.2337 64.78 72.717 64.3767 73.257 64.07C73.8037 63.7633 74.437 63.61 75.157 63.61C75.7304 63.61 76.2504 63.7267 76.717 63.96C77.1837 64.1867 77.5837 64.52 77.917 64.96C78.2504 65.4 78.507 65.9467 78.687 66.6C78.8737 67.2467 78.967 67.99 78.967 68.83C78.967 69.5833 78.8637 70.2867 78.657 70.94C78.457 71.5867 78.167 72.15 77.787 72.63C77.407 73.1033 76.947 73.4767 76.407 73.75C75.867 74.0167 75.257 74.15 74.577 74.15C73.977 74.15 73.467 74.0533 73.047 73.86C72.6337 73.6667 72.257 73.4 71.917 73.06V77.39H69.767V63.8H71.067C71.3604 63.8 71.547 63.9367 71.627 64.21L71.807 65.28ZM87.7461 67.75C87.7461 67.39 87.6928 67.0567 87.5861 66.75C87.4861 66.4367 87.3361 66.1667 87.1361 65.94C86.9361 65.7067 86.6861 65.5267 86.3861 65.4C86.0928 65.2667 85.7528 65.2 85.3661 65.2C84.5861 65.2 83.9728 65.4233 83.5261 65.87C83.0794 66.3167 82.7961 66.9433 82.6761 67.75H87.7461ZM82.6161 69.07C82.6428 69.65 82.7328 70.1533 82.8861 70.58C83.0394 71 83.2428 71.35 83.4961 71.63C83.7561 71.91 84.0628 72.12 84.4161 72.26C84.7761 72.3933 85.1761 72.46 85.6161 72.46C86.0361 72.46 86.3994 72.4133 86.7061 72.32C87.0128 72.22 87.2794 72.1133 87.5061 72C87.7328 71.88 87.9261 71.7733 88.0861 71.68C88.2461 71.58 88.3928 71.53 88.5261 71.53C88.6994 71.53 88.8328 71.5967 88.9261 71.73L89.5361 72.52C89.2828 72.82 88.9961 73.0733 88.6761 73.28C88.3561 73.4867 88.0161 73.6567 87.6561 73.79C87.2961 73.9167 86.9261 74.0067 86.5461 74.06C86.1661 74.12 85.7961 74.15 85.4361 74.15C84.7294 74.15 84.0728 74.0333 83.4661 73.8C82.8661 73.56 82.3428 73.21 81.8961 72.75C81.4561 72.29 81.1094 71.72 80.8561 71.04C80.6094 70.36 80.4861 69.5767 80.4861 68.69C80.4861 67.9833 80.5961 67.3233 80.8161 66.71C81.0428 66.0967 81.3628 65.5633 81.7761 65.11C82.1961 64.6567 82.7028 64.3 83.2961 64.04C83.8961 63.7733 84.5728 63.64 85.3261 63.64C85.9528 63.64 86.5328 63.7433 87.0661 63.95C87.5994 64.15 88.0594 64.4467 88.4461 64.84C88.8328 65.2333 89.1328 65.7167 89.3461 66.29C89.5661 66.8567 89.6761 67.5033 89.6761 68.23C89.6761 68.5633 89.6394 68.7867 89.5661 68.9C89.4928 69.0133 89.3594 69.07 89.1661 69.07H82.6161Z" fill="#333333"/>
<path d="M105.27 72.37V74H97.42V72.37H100.42V63.35C100.42 63.03 100.43 62.7033 100.45 62.37L98.14 64.32C98.04 64.4 97.9367 64.4533 97.83 64.48C97.73 64.5 97.6333 64.5 97.54 64.48C97.4533 64.46 97.3733 64.43 97.3 64.39C97.2333 64.3433 97.18 64.2933 97.14 64.24L96.47 63.3L100.81 59.57H102.56V72.37H105.27Z" fill="#333333"/>
<path d="M118.82 66.31C118.52 65.9233 118.19 65.6533 117.83 65.5C117.47 65.3467 117.08 65.27 116.66 65.27C115.82 65.27 115.163 65.58 114.69 66.2C114.217 66.8133 113.98 67.7233 113.98 68.93C113.98 69.5567 114.033 70.0933 114.14 70.54C114.247 70.98 114.4 71.34 114.6 71.62C114.8 71.9 115.043 72.1033 115.33 72.23C115.617 72.3567 115.94 72.42 116.3 72.42C116.847 72.42 117.317 72.3033 117.71 72.07C118.11 71.83 118.48 71.4933 118.82 71.06V66.31ZM120.97 59.2V74H119.67C119.383 74 119.2 73.8633 119.12 73.59L118.93 72.48C118.503 72.98 118.017 73.3833 117.47 73.69C116.93 73.9967 116.3 74.15 115.58 74.15C115.007 74.15 114.487 74.0367 114.02 73.81C113.553 73.5767 113.153 73.24 112.82 72.8C112.487 72.36 112.227 71.8167 112.04 71.17C111.86 70.5167 111.77 69.77 111.77 68.93C111.77 68.17 111.87 67.4667 112.07 66.82C112.277 66.1733 112.57 65.6133 112.95 65.14C113.33 64.66 113.79 64.2867 114.33 64.02C114.877 63.7467 115.487 63.61 116.16 63.61C116.76 63.61 117.27 63.7067 117.69 63.9C118.11 64.0867 118.487 64.35 118.82 64.69V59.2H120.97ZM130.289 67.75C130.289 67.39 130.236 67.0567 130.129 66.75C130.029 66.4367 129.879 66.1667 129.679 65.94C129.479 65.7067 129.229 65.5267 128.929 65.4C128.636 65.2667 128.296 65.2 127.909 65.2C127.129 65.2 126.516 65.4233 126.069 65.87C125.622 66.3167 125.339 66.9433 125.219 67.75H130.289ZM125.159 69.07C125.186 69.65 125.276 70.1533 125.429 70.58C125.582 71 125.786 71.35 126.039 71.63C126.299 71.91 126.606 72.12 126.959 72.26C127.319 72.3933 127.719 72.46 128.159 72.46C128.579 72.46 128.942 72.4133 129.249 72.32C129.556 72.22 129.822 72.1133 130.049 72C130.276 71.88 130.469 71.7733 130.629 71.68C130.789 71.58 130.936 71.53 131.069 71.53C131.242 71.53 131.376 71.5967 131.469 71.73L132.079 72.52C131.826 72.82 131.539 73.0733 131.219 73.28C130.899 73.4867 130.559 73.6567 130.199 73.79C129.839 73.9167 129.469 74.0067 129.089 74.06C128.709 74.12 128.339 74.15 127.979 74.15C127.272 74.15 126.616 74.0333 126.009 73.8C125.409 73.56 124.886 73.21 124.439 72.75C123.999 72.29 123.652 71.72 123.399 71.04C123.152 70.36 123.029 69.5767 123.029 68.69C123.029 67.9833 123.139 67.3233 123.359 66.71C123.586 66.0967 123.906 65.5633 124.319 65.11C124.739 64.6567 125.246 64.3 125.839 64.04C126.439 63.7733 127.116 63.64 127.869 63.64C128.496 63.64 129.076 63.7433 129.609 63.95C130.142 64.15 130.602 64.4467 130.989 64.84C131.376 65.2333 131.676 65.7167 131.889 66.29C132.109 66.8567 132.219 67.5033 132.219 68.23C132.219 68.5633 132.182 68.7867 132.109 68.9C132.036 69.0133 131.902 69.07 131.709 69.07H125.159Z" fill="#333333"/>
<path d="M144.21 68.68V63.42C144.21 63 144.24 62.54 144.3 62.04L139.46 68.68H144.21ZM148.07 68.68V69.92C148.07 70.04 148.03 70.1433 147.95 70.23C147.877 70.3167 147.763 70.36 147.61 70.36H146.08V74H144.21V70.36H137.98C137.827 70.36 137.693 70.3167 137.58 70.23C137.473 70.1367 137.403 70.0233 137.37 69.89L137.15 68.79L144.06 59.59H146.08V68.68H148.07Z" fill="#333333"/>
<path d="M62.8345 103.112H54.3325V127H49.087V103.112H40.585V98.803H62.8345V103.112ZM70.5653 106.993V127H65.7293V106.993H70.5653ZM71.2283 101.162C71.2283 101.578 71.1438 101.968 70.9748 102.332C70.8058 102.696 70.5783 103.015 70.2923 103.288C70.0193 103.561 69.6943 103.782 69.3173 103.951C68.9403 104.107 68.5373 104.185 68.1083 104.185C67.6923 104.185 67.2958 104.107 66.9188 103.951C66.5548 103.782 66.2363 103.561 65.9633 103.288C65.6903 103.015 65.4693 102.696 65.3003 102.332C65.1443 101.968 65.0663 101.578 65.0663 101.162C65.0663 100.733 65.1443 100.33 65.3003 99.9535C65.4693 99.5765 65.6903 99.2515 65.9633 98.9785C66.2363 98.7055 66.5548 98.491 66.9188 98.335C67.2958 98.166 67.6923 98.0815 68.1083 98.0815C68.5373 98.0815 68.9403 98.166 69.3173 98.335C69.6943 98.491 70.0193 98.7055 70.2923 98.9785C70.5783 99.2515 70.8058 99.5765 70.9748 99.9535C71.1438 100.33 71.2283 100.733 71.2283 101.162ZM82.1447 127.312C80.4027 127.312 79.0637 126.824 78.1277 125.849C77.2047 124.861 76.7432 123.503 76.7432 121.774V110.6H74.6957C74.4357 110.6 74.2147 110.516 74.0327 110.347C73.8507 110.178 73.7597 109.924 73.7597 109.586V107.675L76.9772 107.149L77.9912 101.689C78.0562 101.429 78.1797 101.227 78.3617 101.084C78.5437 100.941 78.7777 100.87 79.0637 100.87H81.5597V107.168H86.9027V110.6H81.5597V121.442C81.5597 122.066 81.7092 122.554 82.0082 122.905C82.3202 123.256 82.7427 123.431 83.2757 123.431C83.5747 123.431 83.8217 123.399 84.0167 123.334C84.2247 123.256 84.4002 123.178 84.5432 123.1C84.6992 123.022 84.8357 122.95 84.9527 122.885C85.0697 122.807 85.1867 122.768 85.3037 122.768C85.4467 122.768 85.5637 122.807 85.6547 122.885C85.7457 122.95 85.8432 123.054 85.9472 123.197L87.3902 125.537C86.6882 126.122 85.8822 126.564 84.9722 126.863C84.0622 127.163 83.1197 127.312 82.1447 127.312ZM94.5299 110.464C95.1539 109.268 95.8949 108.332 96.7529 107.656C97.6109 106.967 98.6249 106.622 99.7949 106.622C100.718 106.622 101.459 106.824 102.018 107.227L101.706 110.834C101.641 111.068 101.543 111.237 101.413 111.341C101.296 111.432 101.134 111.478 100.926 111.478C100.731 111.478 100.438 111.445 100.048 111.38C99.6714 111.315 99.3009 111.283 98.9369 111.283C98.4039 111.283 97.9294 111.361 97.5134 111.517C97.0974 111.673 96.7204 111.9 96.3824 112.199C96.0574 112.485 95.7649 112.836 95.5049 113.252C95.2579 113.668 95.0239 114.143 94.8029 114.676V127H89.9864V106.993H92.8139C93.3079 106.993 93.6524 107.084 93.8474 107.266C94.0424 107.435 94.1724 107.747 94.2374 108.202L94.5299 110.464ZM116.853 114.695C116.853 114.071 116.762 113.486 116.58 112.94C116.411 112.381 116.151 111.894 115.8 111.478C115.449 111.062 115.001 110.737 114.455 110.503C113.922 110.256 113.298 110.132 112.583 110.132C111.192 110.132 110.093 110.529 109.287 111.322C108.494 112.115 107.987 113.239 107.766 114.695H116.853ZM107.669 117.601C107.747 118.628 107.929 119.518 108.215 120.272C108.501 121.013 108.878 121.631 109.346 122.125C109.814 122.606 110.366 122.97 111.003 123.217C111.653 123.451 112.368 123.568 113.148 123.568C113.928 123.568 114.598 123.477 115.157 123.295C115.729 123.113 116.223 122.911 116.639 122.69C117.068 122.469 117.438 122.268 117.75 122.086C118.075 121.904 118.387 121.813 118.686 121.813C119.089 121.813 119.388 121.962 119.583 122.261L120.968 124.016C120.435 124.64 119.837 125.167 119.174 125.596C118.511 126.012 117.815 126.35 117.087 126.61C116.372 126.857 115.638 127.033 114.884 127.137C114.143 127.241 113.421 127.293 112.719 127.293C111.328 127.293 110.035 127.065 108.839 126.61C107.643 126.142 106.603 125.459 105.719 124.562C104.835 123.652 104.139 122.534 103.632 121.208C103.125 119.869 102.872 118.322 102.872 116.567C102.872 115.202 103.093 113.922 103.535 112.726C103.977 111.517 104.607 110.47 105.426 109.586C106.258 108.689 107.266 107.981 108.449 107.461C109.645 106.941 110.99 106.681 112.485 106.681C113.746 106.681 114.91 106.882 115.976 107.285C117.042 107.688 117.958 108.28 118.725 109.06C119.492 109.827 120.09 110.776 120.519 111.907C120.961 113.025 121.182 114.305 121.182 115.748C121.182 116.476 121.104 116.97 120.948 117.23C120.792 117.477 120.493 117.601 120.051 117.601H107.669ZM146.838 112.102C146.292 111.439 145.694 110.971 145.044 110.698C144.407 110.425 143.718 110.288 142.977 110.288C142.249 110.288 141.593 110.425 141.008 110.698C140.423 110.971 139.922 111.387 139.506 111.946C139.09 112.492 138.772 113.194 138.551 114.052C138.33 114.897 138.219 115.898 138.219 117.055C138.219 118.225 138.31 119.219 138.492 120.038C138.687 120.844 138.96 121.507 139.311 122.027C139.662 122.534 140.091 122.905 140.598 123.139C141.105 123.36 141.671 123.47 142.295 123.47C143.296 123.47 144.147 123.262 144.849 122.846C145.551 122.43 146.214 121.839 146.838 121.072V112.102ZM151.655 98.023V127H148.71C148.073 127 147.67 126.707 147.501 126.122L147.092 124.192C146.286 125.115 145.356 125.862 144.303 126.434C143.263 127.007 142.048 127.293 140.657 127.293C139.565 127.293 138.564 127.065 137.654 126.61C136.744 126.155 135.957 125.498 135.294 124.64C134.644 123.769 134.137 122.697 133.773 121.423C133.422 120.149 133.247 118.693 133.247 117.055C133.247 115.573 133.448 114.195 133.851 112.921C134.254 111.647 134.833 110.542 135.587 109.606C136.341 108.67 137.244 107.942 138.297 107.422C139.35 106.889 140.533 106.622 141.846 106.622C142.964 106.622 143.92 106.798 144.713 107.149C145.506 107.5 146.214 107.974 146.838 108.572V98.023H151.655ZM159.684 96.9115C160.308 97.9385 160.731 99.011 160.952 100.129C161.173 101.234 161.192 102.332 161.01 103.424C160.828 104.503 160.445 105.543 159.86 106.544C159.288 107.532 158.514 108.423 157.539 109.216L156.018 108.299C155.888 108.221 155.797 108.13 155.745 108.026C155.693 107.909 155.667 107.799 155.667 107.695C155.68 107.578 155.706 107.467 155.745 107.363C155.797 107.259 155.862 107.168 155.94 107.09C156.213 106.765 156.473 106.336 156.72 105.803C156.967 105.27 157.136 104.672 157.227 104.009C157.331 103.346 157.318 102.638 157.188 101.884C157.071 101.13 156.779 100.376 156.311 99.622C156.09 99.245 156.025 98.92 156.116 98.647C156.22 98.361 156.434 98.1595 156.759 98.0425L159.684 96.9115ZM176.61 114.695C176.61 114.071 176.519 113.486 176.337 112.94C176.168 112.381 175.908 111.894 175.557 111.478C175.206 111.062 174.758 110.737 174.212 110.503C173.679 110.256 173.055 110.132 172.34 110.132C170.949 110.132 169.85 110.529 169.044 111.322C168.251 112.115 167.744 113.239 167.523 114.695H176.61ZM167.426 117.601C167.504 118.628 167.686 119.518 167.972 120.272C168.258 121.013 168.635 121.631 169.103 122.125C169.571 122.606 170.123 122.97 170.76 123.217C171.41 123.451 172.125 123.568 172.905 123.568C173.685 123.568 174.355 123.477 174.914 123.295C175.486 123.113 175.98 122.911 176.396 122.69C176.825 122.469 177.195 122.268 177.507 122.086C177.832 121.904 178.144 121.813 178.443 121.813C178.846 121.813 179.145 121.962 179.34 122.261L180.725 124.016C180.192 124.64 179.594 125.167 178.931 125.596C178.268 126.012 177.572 126.35 176.844 126.61C176.129 126.857 175.395 127.033 174.641 127.137C173.9 127.241 173.178 127.293 172.476 127.293C171.085 127.293 169.792 127.065 168.596 126.61C167.4 126.142 166.36 125.459 165.476 124.562C164.592 123.652 163.896 122.534 163.389 121.208C162.882 119.869 162.629 118.322 162.629 116.567C162.629 115.202 162.85 113.922 163.292 112.726C163.734 111.517 164.364 110.47 165.183 109.586C166.015 108.689 167.023 107.981 168.206 107.461C169.402 106.941 170.747 106.681 172.242 106.681C173.503 106.681 174.667 106.882 175.733 107.285C176.799 107.688 177.715 108.28 178.482 109.06C179.249 109.827 179.847 110.776 180.276 111.907C180.718 113.025 180.939 114.305 180.939 115.748C180.939 116.476 180.861 116.97 180.705 117.23C180.549 117.477 180.25 117.601 179.808 117.601H167.426ZM179.106 98.491L174.29 103.58C174.043 103.84 173.802 104.022 173.568 104.126C173.347 104.217 173.055 104.263 172.691 104.263H169.805L172.574 99.5245C172.769 99.1865 172.996 98.933 173.256 98.764C173.516 98.582 173.906 98.491 174.426 98.491H179.106ZM191.032 127.312C189.29 127.312 187.951 126.824 187.015 125.849C186.092 124.861 185.631 123.503 185.631 121.774V110.6H183.583C183.323 110.6 183.102 110.516 182.92 110.347C182.738 110.178 182.647 109.924 182.647 109.586V107.675L185.865 107.149L186.879 101.689C186.944 101.429 187.067 101.227 187.249 101.084C187.431 100.941 187.665 100.87 187.951 100.87H190.447V107.168H195.79V110.6H190.447V121.442C190.447 122.066 190.597 122.554 190.896 122.905C191.208 123.256 191.63 123.431 192.163 123.431C192.462 123.431 192.709 123.399 192.904 123.334C193.112 123.256 193.288 123.178 193.431 123.1C193.587 123.022 193.723 122.95 193.84 122.885C193.957 122.807 194.074 122.768 194.191 122.768C194.334 122.768 194.451 122.807 194.542 122.885C194.633 122.95 194.731 123.054 194.835 123.197L196.278 125.537C195.576 126.122 194.77 126.564 193.86 126.863C192.95 127.163 192.007 127.312 191.032 127.312ZM209.443 118.459C208.052 118.524 206.882 118.647 205.933 118.829C204.984 118.998 204.224 119.219 203.652 119.492C203.08 119.765 202.67 120.084 202.423 120.448C202.176 120.812 202.053 121.208 202.053 121.637C202.053 122.482 202.3 123.087 202.794 123.451C203.301 123.815 203.957 123.997 204.763 123.997C205.751 123.997 206.603 123.821 207.318 123.47C208.046 123.106 208.754 122.56 209.443 121.832V118.459ZM198.406 109.781C200.707 107.675 203.476 106.622 206.713 106.622C207.883 106.622 208.93 106.817 209.853 107.207C210.776 107.584 211.556 108.117 212.193 108.806C212.83 109.482 213.311 110.295 213.636 111.244C213.974 112.193 214.143 113.233 214.143 114.364V127H211.959C211.504 127 211.153 126.935 210.906 126.805C210.659 126.662 210.464 126.382 210.321 125.966L209.892 124.523C209.385 124.978 208.891 125.381 208.41 125.732C207.929 126.07 207.428 126.356 206.908 126.59C206.388 126.824 205.829 127 205.231 127.117C204.646 127.247 203.996 127.312 203.281 127.312C202.436 127.312 201.656 127.202 200.941 126.98C200.226 126.746 199.609 126.402 199.089 125.947C198.569 125.492 198.166 124.926 197.88 124.25C197.594 123.574 197.451 122.788 197.451 121.891C197.451 121.384 197.535 120.883 197.704 120.389C197.873 119.882 198.146 119.401 198.523 118.946C198.913 118.491 199.414 118.062 200.025 117.659C200.636 117.256 201.383 116.905 202.267 116.606C203.164 116.307 204.204 116.067 205.387 115.885C206.57 115.69 207.922 115.573 209.443 115.534V114.364C209.443 113.025 209.157 112.037 208.585 111.4C208.013 110.75 207.188 110.425 206.109 110.425C205.329 110.425 204.679 110.516 204.159 110.698C203.652 110.88 203.203 111.088 202.813 111.322C202.423 111.543 202.066 111.744 201.741 111.926C201.429 112.108 201.078 112.199 200.688 112.199C200.35 112.199 200.064 112.115 199.83 111.946C199.596 111.764 199.407 111.556 199.264 111.322L198.406 109.781ZM223.495 121.813C224.041 122.476 224.633 122.944 225.27 123.217C225.92 123.49 226.622 123.626 227.376 123.626C228.104 123.626 228.76 123.49 229.345 123.217C229.93 122.944 230.424 122.528 230.827 121.969C231.243 121.41 231.562 120.708 231.783 119.863C232.004 119.005 232.114 117.997 232.114 116.84C232.114 115.67 232.017 114.682 231.822 113.876C231.64 113.057 231.373 112.394 231.022 111.887C230.671 111.38 230.242 111.01 229.735 110.776C229.241 110.542 228.676 110.425 228.039 110.425C227.038 110.425 226.186 110.639 225.484 111.068C224.782 111.484 224.119 112.076 223.495 112.843V121.813ZM223.242 109.723C224.061 108.8 224.99 108.052 226.03 107.48C227.07 106.908 228.292 106.622 229.696 106.622C230.788 106.622 231.783 106.85 232.68 107.305C233.59 107.76 234.37 108.423 235.02 109.294C235.683 110.152 236.19 111.218 236.541 112.492C236.905 113.753 237.087 115.202 237.087 116.84C237.087 118.335 236.885 119.72 236.482 120.994C236.079 122.268 235.501 123.373 234.747 124.309C234.006 125.245 233.102 125.98 232.036 126.512C230.983 127.033 229.8 127.293 228.487 127.293C227.369 127.293 226.414 127.124 225.621 126.785C224.828 126.434 224.119 125.953 223.495 125.342V133.533H218.679V106.993H221.623C222.247 106.993 222.657 107.285 222.852 107.87L223.242 109.723ZM253.734 114.695C253.734 114.071 253.643 113.486 253.461 112.94C253.292 112.381 253.032 111.894 252.681 111.478C252.33 111.062 251.882 110.737 251.336 110.503C250.803 110.256 250.179 110.132 249.464 110.132C248.073 110.132 246.974 110.529 246.168 111.322C245.375 112.115 244.868 113.239 244.647 114.695H253.734ZM244.55 117.601C244.628 118.628 244.81 119.518 245.096 120.272C245.382 121.013 245.759 121.631 246.227 122.125C246.695 122.606 247.247 122.97 247.884 123.217C248.534 123.451 249.249 123.568 250.029 123.568C250.809 123.568 251.479 123.477 252.038 123.295C252.61 123.113 253.104 122.911 253.52 122.69C253.949 122.469 254.319 122.268 254.631 122.086C254.956 121.904 255.268 121.813 255.567 121.813C255.97 121.813 256.269 121.962 256.464 122.261L257.849 124.016C257.316 124.64 256.718 125.167 256.055 125.596C255.392 126.012 254.696 126.35 253.968 126.61C253.253 126.857 252.519 127.033 251.765 127.137C251.024 127.241 250.302 127.293 249.6 127.293C248.209 127.293 246.916 127.065 245.72 126.61C244.524 126.142 243.484 125.459 242.6 124.562C241.716 123.652 241.02 122.534 240.513 121.208C240.006 119.869 239.753 118.322 239.753 116.567C239.753 115.202 239.974 113.922 240.416 112.726C240.858 111.517 241.488 110.47 242.307 109.586C243.139 108.689 244.147 107.981 245.33 107.461C246.526 106.941 247.871 106.681 249.366 106.681C250.627 106.681 251.791 106.882 252.857 107.285C253.923 107.688 254.839 108.28 255.606 109.06C256.373 109.827 256.971 110.776 257.4 111.907C257.842 113.025 258.063 114.305 258.063 115.748C258.063 116.476 257.985 116.97 257.829 117.23C257.673 117.477 257.374 117.601 256.932 117.601H244.55Z" fill="#333333"/>
<g clip-path="url(#clip0_2089_34690)">
<rect y="113" width="42" height="1" fill="#C54600"/>
<g clip-path="url(#clip1_2089_34690)">
<rect y="101" width="24" height="24" rx="12" fill="#C54600"/>
<path d="M11.9745 118.139C11.2321 118.139 10.5709 118.012 9.99086 117.756C9.41415 117.498 8.95842 117.143 8.62367 116.692C8.29223 116.238 8.12154 115.715 8.11159 115.121H10.2792C10.2925 115.37 10.3737 115.589 10.5228 115.778C10.6753 115.963 10.8775 116.107 11.1294 116.21C11.3812 116.313 11.6646 116.364 11.9795 116.364C12.3076 116.364 12.5976 116.306 12.8495 116.19C13.1014 116.074 13.2986 115.914 13.4411 115.708C13.5837 115.503 13.6549 115.266 13.6549 114.997C13.6549 114.725 13.5787 114.485 13.4262 114.276C13.2771 114.064 13.0616 113.898 12.7799 113.779C12.5015 113.66 12.1701 113.6 11.7856 113.6H10.836V112.019H11.7856C12.1104 112.019 12.3971 111.963 12.6457 111.85C12.8976 111.737 13.0931 111.582 13.2323 111.383C13.3715 111.181 13.4411 110.945 13.4411 110.677C13.4411 110.422 13.3798 110.198 13.2572 110.006C13.1379 109.81 12.9688 109.658 12.7501 109.548C12.5347 109.439 12.2828 109.384 11.9944 109.384C11.7027 109.384 11.4359 109.437 11.194 109.543C10.952 109.646 10.7581 109.794 10.6123 109.986C10.4665 110.178 10.3886 110.403 10.3786 110.662H8.31543C8.32537 110.075 8.49275 109.558 8.81756 109.111C9.14237 108.663 9.57987 108.314 10.1301 108.062C10.6836 107.807 11.3083 107.679 12.0044 107.679C12.707 107.679 13.3218 107.807 13.8488 108.062C14.3758 108.317 14.7851 108.662 15.0768 109.096C15.3718 109.527 15.5176 110.011 15.5143 110.548C15.5176 111.118 15.3403 111.593 14.9823 111.974C14.6277 112.356 14.1653 112.598 13.5953 112.7V112.78C14.3443 112.876 14.9144 113.136 15.3055 113.56C15.6999 113.981 15.8954 114.508 15.8921 115.141C15.8954 115.721 15.7281 116.237 15.39 116.688C15.0553 117.138 14.5929 117.493 14.0029 117.751C13.413 118.01 12.7368 118.139 11.9745 118.139Z" fill="white"/>
</g>
</g>
<g clip-path="url(#clip2_2089_34690)">
<rect x="144" width="1" height="53" fill="#C54600"/>
<g clip-path="url(#clip3_2089_34690)">
<rect x="132" width="24" height="24" rx="12" fill="#C54600"/>
<path d="M140.416 17V15.4489L144.04 12.093C144.349 11.7947 144.607 11.5263 144.816 11.2876C145.028 11.049 145.189 10.8153 145.298 10.5866C145.408 10.3546 145.462 10.1044 145.462 9.83594C145.462 9.53764 145.394 9.28078 145.258 9.06534C145.123 8.84659 144.937 8.67921 144.702 8.56321C144.466 8.44389 144.199 8.38423 143.901 8.38423C143.59 8.38423 143.318 8.44721 143.086 8.57315C142.854 8.6991 142.675 8.87973 142.549 9.11506C142.423 9.35038 142.36 9.63044 142.36 9.95526H140.317C140.317 9.28906 140.467 8.7107 140.769 8.22017C141.071 7.72964 141.493 7.35014 142.037 7.08168C142.58 6.81321 143.207 6.67898 143.916 6.67898C144.645 6.67898 145.28 6.80824 145.82 7.06676C146.364 7.32197 146.786 7.67661 147.088 8.13068C147.39 8.58475 147.54 9.10511 147.54 9.69176C147.54 10.0762 147.464 10.4557 147.312 10.8303C147.163 11.2048 146.896 11.6207 146.511 12.0781C146.127 12.5322 145.585 13.0774 144.886 13.7138L143.399 15.1705V15.2401H147.675V17H140.416Z" fill="white"/>
</g>
</g>
<g clip-path="url(#clip4_2089_34690)">
<rect x="100" width="1" height="53" fill="#C54600"/>
<g clip-path="url(#clip5_2089_34690)">
<rect x="88" width="24" height="24" rx="12" fill="#C54600"/>
<path d="M101.83 6.81818V17H99.6775V8.86151H99.6178L97.2861 10.3232V8.41406L99.8067 6.81818H101.83Z" fill="white"/>
</g>
</g>
<defs>
<clipPath id="clip0_2089_34690">
<rect width="42" height="24" fill="white" transform="translate(0 101)"/>
</clipPath>
<clipPath id="clip1_2089_34690">
<rect y="101" width="24" height="24" rx="12" fill="white"/>
</clipPath>
<clipPath id="clip2_2089_34690">
<rect width="24" height="53" fill="white" transform="translate(132)"/>
</clipPath>
<clipPath id="clip3_2089_34690">
<rect x="132" width="24" height="24" rx="12" fill="white"/>
</clipPath>
<clipPath id="clip4_2089_34690">
<rect width="24" height="53" fill="white" transform="translate(88)"/>
</clipPath>
<clipPath id="clip5_2089_34690">
<rect x="88" width="24" height="24" rx="12" fill="white"/>
</clipPath>
</defs>
</svg>
