<svg width="1040" height="358" viewBox="0 0 1040 358" fill="none" xmlns="http://www.w3.org/2000/svg">
<mask id="path-1-outside-1_5534_52927" maskUnits="userSpaceOnUse" x="20" y="84" width="1000" height="61" fill="black">
<rect fill="white" x="20" y="84" width="1000" height="61"/>
<path d="M20 84H1020V144H20V84Z"/>
</mask>
<path d="M20 84H1020V144H20V84Z" fill="white"/>
<path d="M1020 144V143H20V144V145H1020V144Z" fill="#D6D9DD" mask="url(#path-1-outside-1_5534_52927)"/>
<path d="M173.44 120V108.576H175.856V118H180.496V120H173.44ZM183.495 107.84C183.847 107.84 184.151 107.925 184.407 108.096C184.663 108.256 184.791 108.56 184.791 109.008C184.791 109.445 184.663 109.749 184.407 109.92C184.151 110.091 183.847 110.176 183.495 110.176C183.132 110.176 182.823 110.091 182.567 109.92C182.322 109.749 182.199 109.445 182.199 109.008C182.199 108.56 182.322 108.256 182.567 108.096C182.823 107.925 183.132 107.84 183.495 107.84ZM184.679 111.264V120H182.295V111.264H184.679ZM190.77 111.104C191.975 111.104 192.93 111.451 193.634 112.144C194.338 112.827 194.69 113.803 194.69 115.072V116.224H189.058C189.079 116.896 189.277 117.424 189.65 117.808C190.034 118.192 190.562 118.384 191.234 118.384C191.799 118.384 192.311 118.331 192.77 118.224C193.229 118.107 193.703 117.931 194.194 117.696V119.536C193.767 119.749 193.314 119.904 192.834 120C192.365 120.107 191.794 120.16 191.122 120.16C190.247 120.16 189.474 120 188.802 119.68C188.13 119.349 187.602 118.853 187.218 118.192C186.834 117.531 186.642 116.699 186.642 115.696C186.642 114.672 186.813 113.824 187.154 113.152C187.506 112.469 187.991 111.957 188.61 111.616C189.229 111.275 189.949 111.104 190.77 111.104ZM190.786 112.8C190.327 112.8 189.943 112.949 189.634 113.248C189.335 113.547 189.159 114.011 189.106 114.64H192.45C192.439 114.107 192.301 113.669 192.034 113.328C191.767 112.976 191.351 112.8 190.786 112.8ZM201.583 111.104C202.522 111.104 203.274 111.36 203.839 111.872C204.404 112.373 204.687 113.184 204.687 114.304V120H202.303V114.896C202.303 114.267 202.191 113.797 201.967 113.488C201.743 113.168 201.386 113.008 200.895 113.008C200.17 113.008 199.674 113.259 199.407 113.76C199.14 114.251 199.007 114.96 199.007 115.888V120H196.623V111.264H198.447L198.767 112.384H198.895C199.172 111.936 199.551 111.611 200.031 111.408C200.522 111.205 201.039 111.104 201.583 111.104ZM214.063 120.16C213.092 120.16 212.298 119.781 211.679 119.024C211.071 118.256 210.767 117.131 210.767 115.648C210.767 114.155 211.076 113.024 211.695 112.256C212.314 111.488 213.124 111.104 214.127 111.104C214.756 111.104 215.274 111.227 215.679 111.472C216.084 111.717 216.404 112.021 216.639 112.384H216.719C216.687 112.213 216.65 111.968 216.607 111.648C216.564 111.317 216.543 110.981 216.543 110.64V107.84H218.927V120H217.103L216.639 118.864H216.543C216.308 119.227 215.994 119.536 215.599 119.792C215.204 120.037 214.692 120.16 214.063 120.16ZM214.895 118.256C215.556 118.256 216.02 118.064 216.287 117.68C216.554 117.285 216.692 116.699 216.703 115.92V115.664C216.703 114.811 216.57 114.16 216.303 113.712C216.047 113.264 215.567 113.04 214.863 113.04C214.34 113.04 213.93 113.269 213.631 113.728C213.332 114.176 213.183 114.827 213.183 115.68C213.183 116.533 213.332 117.179 213.631 117.616C213.93 118.043 214.351 118.256 214.895 118.256ZM225.02 111.104C226.225 111.104 227.18 111.451 227.884 112.144C228.588 112.827 228.94 113.803 228.94 115.072V116.224H223.308C223.329 116.896 223.527 117.424 223.9 117.808C224.284 118.192 224.812 118.384 225.484 118.384C226.049 118.384 226.561 118.331 227.02 118.224C227.479 118.107 227.953 117.931 228.444 117.696V119.536C228.017 119.749 227.564 119.904 227.084 120C226.615 120.107 226.044 120.16 225.372 120.16C224.497 120.16 223.724 120 223.052 119.68C222.38 119.349 221.852 118.853 221.468 118.192C221.084 117.531 220.892 116.699 220.892 115.696C220.892 114.672 221.063 113.824 221.404 113.152C221.756 112.469 222.241 111.957 222.86 111.616C223.479 111.275 224.199 111.104 225.02 111.104ZM225.036 112.8C224.577 112.8 224.193 112.949 223.884 113.248C223.585 113.547 223.409 114.011 223.356 114.64H226.7C226.689 114.107 226.551 113.669 226.284 113.328C226.017 112.976 225.601 112.8 225.036 112.8ZM237.413 120H235.029V107.84H237.413V120ZM241.872 108.576L241.552 112.704H240.016L239.696 108.576H241.872ZM247.098 111.088C248.271 111.088 249.167 111.344 249.786 111.856C250.415 112.357 250.73 113.131 250.73 114.176V120H249.066L248.602 118.816H248.538C248.164 119.285 247.77 119.627 247.354 119.84C246.938 120.053 246.367 120.16 245.642 120.16C244.863 120.16 244.218 119.936 243.706 119.488C243.194 119.029 242.938 118.331 242.938 117.392C242.938 116.464 243.263 115.781 243.914 115.344C244.564 114.896 245.54 114.651 246.842 114.608L248.362 114.56V114.176C248.362 113.717 248.239 113.381 247.994 113.168C247.759 112.955 247.428 112.848 247.002 112.848C246.575 112.848 246.159 112.912 245.754 113.04C245.348 113.157 244.943 113.307 244.538 113.488L243.754 111.872C244.223 111.627 244.74 111.435 245.306 111.296C245.882 111.157 246.479 111.088 247.098 111.088ZM247.434 115.984C246.666 116.005 246.132 116.144 245.834 116.4C245.535 116.656 245.386 116.992 245.386 117.408C245.386 117.771 245.492 118.032 245.706 118.192C245.919 118.341 246.196 118.416 246.538 118.416C247.05 118.416 247.482 118.267 247.834 117.968C248.186 117.659 248.362 117.227 248.362 116.672V115.952L247.434 115.984ZM256.722 120.16C255.421 120.16 254.413 119.803 253.698 119.088C252.994 118.363 252.642 117.227 252.642 115.68C252.642 114.613 252.823 113.744 253.186 113.072C253.549 112.4 254.05 111.904 254.69 111.584C255.341 111.264 256.087 111.104 256.93 111.104C257.527 111.104 258.045 111.163 258.482 111.28C258.93 111.397 259.319 111.536 259.65 111.696L258.946 113.536C258.573 113.387 258.221 113.264 257.89 113.168C257.57 113.072 257.25 113.024 256.93 113.024C255.693 113.024 255.074 113.904 255.074 115.664C255.074 116.539 255.234 117.184 255.554 117.6C255.885 118.016 256.343 118.224 256.93 118.224C257.431 118.224 257.874 118.16 258.258 118.032C258.642 117.893 259.015 117.707 259.378 117.472V119.504C259.015 119.739 258.631 119.904 258.226 120C257.831 120.107 257.33 120.16 256.722 120.16ZM264.941 120.16C263.639 120.16 262.631 119.803 261.917 119.088C261.213 118.363 260.861 117.227 260.861 115.68C260.861 114.613 261.042 113.744 261.405 113.072C261.767 112.4 262.269 111.904 262.909 111.584C263.559 111.264 264.306 111.104 265.149 111.104C265.746 111.104 266.263 111.163 266.701 111.28C267.149 111.397 267.538 111.536 267.869 111.696L267.165 113.536C266.791 113.387 266.439 113.264 266.109 113.168C265.789 113.072 265.469 113.024 265.149 113.024C263.911 113.024 263.293 113.904 263.293 115.664C263.293 116.539 263.453 117.184 263.773 117.6C264.103 118.016 264.562 118.224 265.149 118.224C265.65 118.224 266.093 118.16 266.477 118.032C266.861 117.893 267.234 117.707 267.597 117.472V119.504C267.234 119.739 266.85 119.904 266.445 120C266.05 120.107 265.549 120.16 264.941 120.16ZM277.623 111.264V120H275.799L275.479 118.88H275.351C275.074 119.328 274.69 119.653 274.199 119.856C273.719 120.059 273.207 120.16 272.663 120.16C271.725 120.16 270.973 119.909 270.407 119.408C269.842 118.896 269.559 118.08 269.559 116.96V111.264H271.943V116.368C271.943 116.987 272.055 117.456 272.279 117.776C272.503 118.096 272.861 118.256 273.351 118.256C274.077 118.256 274.573 118.011 274.839 117.52C275.106 117.019 275.239 116.304 275.239 115.376V111.264H277.623ZM283.723 111.104C284.928 111.104 285.883 111.451 286.587 112.144C287.291 112.827 287.643 113.803 287.643 115.072V116.224H282.011C282.032 116.896 282.23 117.424 282.603 117.808C282.987 118.192 283.515 118.384 284.187 118.384C284.752 118.384 285.264 118.331 285.723 118.224C286.182 118.107 286.656 117.931 287.147 117.696V119.536C286.72 119.749 286.267 119.904 285.787 120C285.318 120.107 284.747 120.16 284.075 120.16C283.2 120.16 282.427 120 281.755 119.68C281.083 119.349 280.555 118.853 280.171 118.192C279.787 117.531 279.595 116.699 279.595 115.696C279.595 114.672 279.766 113.824 280.107 113.152C280.459 112.469 280.944 111.957 281.563 111.616C282.182 111.275 282.902 111.104 283.723 111.104ZM283.739 112.8C283.28 112.8 282.896 112.949 282.587 113.248C282.288 113.547 282.112 114.011 282.059 114.64H285.403C285.392 114.107 285.254 113.669 284.987 113.328C284.72 112.976 284.304 112.8 283.739 112.8ZM290.776 107.84C291.128 107.84 291.432 107.925 291.688 108.096C291.944 108.256 292.072 108.56 292.072 109.008C292.072 109.445 291.944 109.749 291.688 109.92C291.432 110.091 291.128 110.176 290.776 110.176C290.413 110.176 290.104 110.091 289.848 109.92C289.603 109.749 289.48 109.445 289.48 109.008C289.48 108.56 289.603 108.256 289.848 108.096C290.104 107.925 290.413 107.84 290.776 107.84ZM291.96 111.264V120H289.576V111.264H291.96ZM296.835 120H294.451V107.84H296.835V120Z" fill="#333333"/>
<path d="M334.52 120V108.576H336.248V118.512H341.128V120H334.52ZM344.602 111.376V120H342.906V111.376H344.602ZM343.77 108.096C344.026 108.096 344.25 108.171 344.442 108.32C344.634 108.469 344.73 108.72 344.73 109.072C344.73 109.413 344.634 109.664 344.442 109.824C344.25 109.973 344.026 110.048 343.77 110.048C343.493 110.048 343.258 109.973 343.066 109.824C342.885 109.664 342.794 109.413 342.794 109.072C342.794 108.72 342.885 108.469 343.066 108.32C343.258 108.171 343.493 108.096 343.77 108.096ZM350.658 111.216C351.415 111.216 352.066 111.376 352.61 111.696C353.154 112.005 353.57 112.453 353.858 113.04C354.156 113.627 354.306 114.32 354.306 115.12V116.048H348.514C348.535 116.933 348.764 117.611 349.202 118.08C349.65 118.549 350.274 118.784 351.074 118.784C351.628 118.784 352.119 118.736 352.546 118.64C352.983 118.533 353.431 118.379 353.89 118.176V119.584C353.463 119.776 353.026 119.92 352.578 120.016C352.14 120.112 351.618 120.16 351.01 120.16C350.178 120.16 349.442 119.995 348.802 119.664C348.162 119.333 347.66 118.843 347.298 118.192C346.946 117.531 346.77 116.72 346.77 115.76C346.77 114.789 346.93 113.968 347.25 113.296C347.58 112.624 348.034 112.112 348.61 111.76C349.196 111.397 349.879 111.216 350.658 111.216ZM350.658 112.528C350.05 112.528 349.559 112.725 349.186 113.12C348.823 113.515 348.61 114.075 348.546 114.8H352.61C352.61 114.352 352.54 113.957 352.402 113.616C352.263 113.275 352.05 113.008 351.762 112.816C351.474 112.624 351.106 112.528 350.658 112.528ZM360.79 111.216C361.792 111.216 362.56 111.467 363.094 111.968C363.627 112.469 363.894 113.275 363.894 114.384V120H362.214V114.624C362.214 113.952 362.07 113.451 361.782 113.12C361.504 112.779 361.056 112.608 360.438 112.608C359.563 112.608 358.955 112.869 358.614 113.392C358.283 113.915 358.118 114.667 358.118 115.648V120H356.422V111.376H357.766L358.006 112.528H358.102C358.294 112.229 358.528 111.984 358.806 111.792C359.083 111.6 359.392 111.456 359.734 111.36C360.075 111.264 360.427 111.216 360.79 111.216ZM373.616 120.16C372.581 120.16 371.744 119.787 371.104 119.04C370.475 118.293 370.16 117.184 370.16 115.712C370.16 114.229 370.48 113.109 371.12 112.352C371.76 111.595 372.603 111.216 373.648 111.216C374.085 111.216 374.464 111.275 374.784 111.392C375.115 111.499 375.397 111.648 375.632 111.84C375.877 112.032 376.085 112.245 376.256 112.48H376.352C376.331 112.331 376.304 112.117 376.272 111.84C376.24 111.552 376.224 111.296 376.224 111.072V107.84H377.92V120H376.592L376.304 118.848H376.224C376.064 119.093 375.861 119.317 375.616 119.52C375.381 119.712 375.099 119.867 374.768 119.984C374.437 120.101 374.053 120.16 373.616 120.16ZM374.016 118.768C374.848 118.768 375.435 118.539 375.776 118.08C376.117 117.611 376.288 116.912 376.288 115.984V115.728C376.288 114.715 376.123 113.941 375.792 113.408C375.472 112.875 374.875 112.608 374 112.608C373.307 112.608 372.784 112.891 372.432 113.456C372.08 114.011 371.904 114.773 371.904 115.744C371.904 116.715 372.08 117.461 372.432 117.984C372.784 118.507 373.312 118.768 374.016 118.768ZM383.97 111.216C384.727 111.216 385.378 111.376 385.922 111.696C386.466 112.005 386.882 112.453 387.17 113.04C387.469 113.627 387.618 114.32 387.618 115.12V116.048H381.826C381.847 116.933 382.077 117.611 382.514 118.08C382.962 118.549 383.586 118.784 384.386 118.784C384.941 118.784 385.431 118.736 385.858 118.64C386.295 118.533 386.743 118.379 387.202 118.176V119.584C386.775 119.776 386.338 119.92 385.89 120.016C385.453 120.112 384.93 120.16 384.322 120.16C383.49 120.16 382.754 119.995 382.114 119.664C381.474 119.333 380.973 118.843 380.61 118.192C380.258 117.531 380.082 116.72 380.082 115.76C380.082 114.789 380.242 113.968 380.562 113.296C380.893 112.624 381.346 112.112 381.922 111.76C382.509 111.397 383.191 111.216 383.97 111.216ZM383.97 112.528C383.362 112.528 382.871 112.725 382.498 113.12C382.135 113.515 381.922 114.075 381.858 114.8H385.922C385.922 114.352 385.853 113.957 385.714 113.616C385.575 113.275 385.362 113.008 385.074 112.816C384.786 112.624 384.418 112.528 383.97 112.528ZM398.259 111.216C399.261 111.216 400.029 111.467 400.562 111.968C401.096 112.469 401.363 113.275 401.363 114.384V120H399.683V114.624C399.683 113.952 399.539 113.451 399.251 113.12C398.973 112.779 398.525 112.608 397.907 112.608C397.032 112.608 396.424 112.869 396.083 113.392C395.752 113.915 395.587 114.667 395.587 115.648V120H393.891V111.376H395.235L395.475 112.528H395.571C395.763 112.229 395.997 111.984 396.275 111.792C396.552 111.6 396.861 111.456 397.203 111.36C397.544 111.264 397.896 111.216 398.259 111.216ZM407.313 111.216C408.401 111.216 409.211 111.456 409.745 111.936C410.278 112.405 410.545 113.147 410.545 114.16V120H409.345L409.009 118.8H408.945C408.699 119.109 408.443 119.365 408.177 119.568C407.921 119.771 407.622 119.92 407.281 120.016C406.95 120.112 406.545 120.16 406.065 120.16C405.553 120.16 405.089 120.069 404.673 119.888C404.267 119.696 403.947 119.408 403.713 119.024C403.478 118.629 403.361 118.139 403.361 117.552C403.361 116.677 403.691 116.011 404.353 115.552C405.025 115.093 406.043 114.843 407.409 114.8L408.881 114.752V114.272C408.881 113.632 408.737 113.184 408.449 112.928C408.161 112.672 407.755 112.544 407.233 112.544C406.785 112.544 406.358 112.608 405.953 112.736C405.547 112.864 405.163 113.019 404.801 113.2L404.257 111.968C404.662 111.755 405.126 111.579 405.649 111.44C406.182 111.291 406.737 111.216 407.313 111.216ZM407.713 115.888C406.731 115.931 406.049 116.096 405.665 116.384C405.291 116.661 405.105 117.056 405.105 117.568C405.105 118.016 405.238 118.341 405.505 118.544C405.782 118.747 406.129 118.848 406.545 118.848C407.217 118.848 407.771 118.661 408.209 118.288C408.646 117.915 408.865 117.355 408.865 116.608V115.856L407.713 115.888ZM415.092 120L411.828 111.376H413.62L415.412 116.416C415.487 116.629 415.561 116.869 415.636 117.136C415.721 117.403 415.796 117.659 415.86 117.904C415.924 118.149 415.967 118.363 415.988 118.544H416.052C416.084 118.363 416.132 118.149 416.196 117.904C416.271 117.648 416.351 117.392 416.436 117.136C416.521 116.869 416.596 116.629 416.66 116.416L418.452 111.376H420.244L416.964 120H415.092ZM423.274 111.376V120H421.578V111.376H423.274ZM422.442 108.096C422.698 108.096 422.922 108.171 423.114 108.32C423.306 108.469 423.402 108.72 423.402 109.072C423.402 109.413 423.306 109.664 423.114 109.824C422.922 109.973 422.698 110.048 422.442 110.048C422.165 110.048 421.93 109.973 421.738 109.824C421.557 109.664 421.466 109.413 421.466 109.072C421.466 108.72 421.557 108.469 421.738 108.32C421.93 108.171 422.165 108.096 422.442 108.096ZM428.913 111.216C429.468 111.216 429.969 111.323 430.417 111.536C430.865 111.749 431.244 112.075 431.553 112.512H431.633L431.825 111.376H433.201V120.112C433.201 120.923 433.057 121.605 432.769 122.16C432.481 122.715 432.039 123.131 431.441 123.408C430.855 123.696 430.113 123.84 429.217 123.84C428.599 123.84 428.028 123.797 427.505 123.712C426.983 123.627 426.503 123.493 426.065 123.312V121.824C426.375 121.973 426.7 122.096 427.041 122.192C427.383 122.299 427.745 122.373 428.129 122.416C428.513 122.469 428.908 122.496 429.313 122.496C430.017 122.496 430.561 122.293 430.945 121.888C431.329 121.493 431.521 120.933 431.521 120.208V119.92C431.521 119.781 431.527 119.6 431.537 119.376C431.548 119.141 431.559 118.971 431.569 118.864H431.505C431.207 119.312 430.839 119.643 430.401 119.856C429.975 120.059 429.479 120.16 428.913 120.16C427.825 120.16 426.972 119.771 426.353 118.992C425.745 118.203 425.441 117.109 425.441 115.712C425.441 114.773 425.58 113.973 425.857 113.312C426.135 112.64 426.529 112.123 427.041 111.76C427.564 111.397 428.188 111.216 428.913 111.216ZM429.265 112.624C428.817 112.624 428.439 112.747 428.129 112.992C427.82 113.227 427.585 113.573 427.425 114.032C427.265 114.491 427.185 115.056 427.185 115.728C427.185 116.731 427.361 117.493 427.713 118.016C428.076 118.539 428.604 118.8 429.297 118.8C429.703 118.8 430.044 118.747 430.321 118.64C430.609 118.533 430.844 118.368 431.025 118.144C431.217 117.92 431.356 117.637 431.441 117.296C431.537 116.944 431.585 116.523 431.585 116.032V115.712C431.585 114.976 431.5 114.384 431.329 113.936C431.169 113.477 430.919 113.147 430.577 112.944C430.236 112.731 429.799 112.624 429.265 112.624ZM439.203 111.216C440.291 111.216 441.102 111.456 441.635 111.936C442.169 112.405 442.435 113.147 442.435 114.16V120H441.235L440.899 118.8H440.835C440.59 119.109 440.334 119.365 440.067 119.568C439.811 119.771 439.513 119.92 439.171 120.016C438.841 120.112 438.435 120.16 437.955 120.16C437.443 120.16 436.979 120.069 436.563 119.888C436.158 119.696 435.838 119.408 435.603 119.024C435.369 118.629 435.251 118.139 435.251 117.552C435.251 116.677 435.582 116.011 436.243 115.552C436.915 115.093 437.934 114.843 439.299 114.8L440.771 114.752V114.272C440.771 113.632 440.627 113.184 440.339 112.928C440.051 112.672 439.646 112.544 439.123 112.544C438.675 112.544 438.249 112.608 437.843 112.736C437.438 112.864 437.054 113.019 436.691 113.2L436.147 111.968C436.553 111.755 437.017 111.579 437.539 111.44C438.073 111.291 438.627 111.216 439.203 111.216ZM439.603 115.888C438.622 115.931 437.939 116.096 437.555 116.384C437.182 116.661 436.995 117.056 436.995 117.568C436.995 118.016 437.129 118.341 437.395 118.544C437.673 118.747 438.019 118.848 438.435 118.848C439.107 118.848 439.662 118.661 440.099 118.288C440.537 117.915 440.755 117.355 440.755 116.608V115.856L439.603 115.888ZM448.151 118.784C448.375 118.784 448.604 118.763 448.839 118.72C449.073 118.677 449.276 118.629 449.447 118.576V119.856C449.265 119.941 449.02 120.011 448.711 120.064C448.401 120.128 448.092 120.16 447.783 120.16C447.313 120.16 446.881 120.08 446.487 119.92C446.103 119.76 445.793 119.483 445.559 119.088C445.324 118.693 445.207 118.144 445.207 117.44V112.672H444.007V111.904L445.271 111.264L445.863 109.44H446.903V111.376H449.367V112.672H446.903V117.408C446.903 117.877 447.015 118.224 447.239 118.448C447.473 118.672 447.777 118.784 448.151 118.784ZM452.868 111.376V120H451.172V111.376H452.868ZM452.036 108.096C452.292 108.096 452.516 108.171 452.708 108.32C452.9 108.469 452.996 108.72 452.996 109.072C452.996 109.413 452.9 109.664 452.708 109.824C452.516 109.973 452.292 110.048 452.036 110.048C451.758 110.048 451.524 109.973 451.332 109.824C451.15 109.664 451.06 109.413 451.06 109.072C451.06 108.72 451.15 108.469 451.332 108.32C451.524 108.171 451.758 108.096 452.036 108.096ZM463.131 115.68C463.131 116.395 463.035 117.029 462.843 117.584C462.651 118.139 462.379 118.608 462.027 118.992C461.675 119.376 461.248 119.669 460.747 119.872C460.246 120.064 459.68 120.16 459.051 120.16C458.475 120.16 457.942 120.064 457.451 119.872C456.96 119.669 456.534 119.376 456.171 118.992C455.819 118.608 455.542 118.139 455.339 117.584C455.136 117.029 455.035 116.389 455.035 115.664C455.035 114.715 455.195 113.909 455.515 113.248C455.846 112.587 456.315 112.085 456.923 111.744C457.542 111.392 458.267 111.216 459.099 111.216C459.888 111.216 460.582 111.392 461.179 111.744C461.787 112.085 462.262 112.587 462.603 113.248C462.955 113.909 463.131 114.72 463.131 115.68ZM456.779 115.68C456.779 116.32 456.859 116.875 457.019 117.344C457.179 117.803 457.43 118.155 457.771 118.4C458.112 118.645 458.55 118.768 459.083 118.768C459.616 118.768 460.054 118.645 460.395 118.4C460.736 118.155 460.987 117.803 461.147 117.344C461.307 116.875 461.387 116.32 461.387 115.68C461.387 115.019 461.302 114.464 461.131 114.016C460.971 113.568 460.72 113.227 460.379 112.992C460.048 112.747 459.611 112.624 459.067 112.624C458.267 112.624 457.686 112.891 457.323 113.424C456.96 113.957 456.779 114.709 456.779 115.68ZM469.649 111.216C470.652 111.216 471.42 111.467 471.953 111.968C472.486 112.469 472.753 113.275 472.753 114.384V120H471.073V114.624C471.073 113.952 470.929 113.451 470.641 113.12C470.364 112.779 469.916 112.608 469.297 112.608C468.422 112.608 467.814 112.869 467.473 113.392C467.142 113.915 466.977 114.667 466.977 115.648V120H465.281V111.376H466.625L466.865 112.528H466.961C467.153 112.229 467.388 111.984 467.665 111.792C467.942 111.6 468.252 111.456 468.593 111.36C468.934 111.264 469.286 111.216 469.649 111.216Z" fill="#545961"/>
<path d="M508.52 120V108.576H510.248V118.512H515.128V120H508.52ZM518.602 111.376V120H516.906V111.376H518.602ZM517.77 108.096C518.026 108.096 518.25 108.171 518.442 108.32C518.634 108.469 518.73 108.72 518.73 109.072C518.73 109.413 518.634 109.664 518.442 109.824C518.25 109.973 518.026 110.048 517.77 110.048C517.493 110.048 517.258 109.973 517.066 109.824C516.885 109.664 516.794 109.413 516.794 109.072C516.794 108.72 516.885 108.469 517.066 108.32C517.258 108.171 517.493 108.096 517.77 108.096ZM524.658 111.216C525.415 111.216 526.066 111.376 526.61 111.696C527.154 112.005 527.57 112.453 527.858 113.04C528.156 113.627 528.306 114.32 528.306 115.12V116.048H522.514C522.535 116.933 522.764 117.611 523.202 118.08C523.65 118.549 524.274 118.784 525.074 118.784C525.628 118.784 526.119 118.736 526.546 118.64C526.983 118.533 527.431 118.379 527.89 118.176V119.584C527.463 119.776 527.026 119.92 526.578 120.016C526.14 120.112 525.618 120.16 525.01 120.16C524.178 120.16 523.442 119.995 522.802 119.664C522.162 119.333 521.66 118.843 521.298 118.192C520.946 117.531 520.77 116.72 520.77 115.76C520.77 114.789 520.93 113.968 521.25 113.296C521.58 112.624 522.034 112.112 522.61 111.76C523.196 111.397 523.879 111.216 524.658 111.216ZM524.658 112.528C524.05 112.528 523.559 112.725 523.186 113.12C522.823 113.515 522.61 114.075 522.546 114.8H526.61C526.61 114.352 526.54 113.957 526.402 113.616C526.263 113.275 526.05 113.008 525.762 112.816C525.474 112.624 525.106 112.528 524.658 112.528ZM534.79 111.216C535.792 111.216 536.56 111.467 537.094 111.968C537.627 112.469 537.894 113.275 537.894 114.384V120H536.214V114.624C536.214 113.952 536.07 113.451 535.782 113.12C535.504 112.779 535.056 112.608 534.438 112.608C533.563 112.608 532.955 112.869 532.614 113.392C532.283 113.915 532.118 114.667 532.118 115.648V120H530.422V111.376H531.766L532.006 112.528H532.102C532.294 112.229 532.528 111.984 532.806 111.792C533.083 111.6 533.392 111.456 533.734 111.36C534.075 111.264 534.427 111.216 534.79 111.216ZM547.616 120.16C546.581 120.16 545.744 119.787 545.104 119.04C544.475 118.293 544.16 117.184 544.16 115.712C544.16 114.229 544.48 113.109 545.12 112.352C545.76 111.595 546.603 111.216 547.648 111.216C548.085 111.216 548.464 111.275 548.784 111.392C549.115 111.499 549.397 111.648 549.632 111.84C549.877 112.032 550.085 112.245 550.256 112.48H550.352C550.331 112.331 550.304 112.117 550.272 111.84C550.24 111.552 550.224 111.296 550.224 111.072V107.84H551.92V120H550.592L550.304 118.848H550.224C550.064 119.093 549.861 119.317 549.616 119.52C549.381 119.712 549.099 119.867 548.768 119.984C548.437 120.101 548.053 120.16 547.616 120.16ZM548.016 118.768C548.848 118.768 549.435 118.539 549.776 118.08C550.117 117.611 550.288 116.912 550.288 115.984V115.728C550.288 114.715 550.123 113.941 549.792 113.408C549.472 112.875 548.875 112.608 548 112.608C547.307 112.608 546.784 112.891 546.432 113.456C546.08 114.011 545.904 114.773 545.904 115.744C545.904 116.715 546.08 117.461 546.432 117.984C546.784 118.507 547.312 118.768 548.016 118.768ZM557.97 111.216C558.727 111.216 559.378 111.376 559.922 111.696C560.466 112.005 560.882 112.453 561.17 113.04C561.469 113.627 561.618 114.32 561.618 115.12V116.048H555.826C555.847 116.933 556.077 117.611 556.514 118.08C556.962 118.549 557.586 118.784 558.386 118.784C558.941 118.784 559.431 118.736 559.858 118.64C560.295 118.533 560.743 118.379 561.202 118.176V119.584C560.775 119.776 560.338 119.92 559.89 120.016C559.453 120.112 558.93 120.16 558.322 120.16C557.49 120.16 556.754 119.995 556.114 119.664C555.474 119.333 554.973 118.843 554.61 118.192C554.258 117.531 554.082 116.72 554.082 115.76C554.082 114.789 554.242 113.968 554.562 113.296C554.893 112.624 555.346 112.112 555.922 111.76C556.509 111.397 557.191 111.216 557.97 111.216ZM557.97 112.528C557.362 112.528 556.871 112.725 556.498 113.12C556.135 113.515 555.922 114.075 555.858 114.8H559.922C559.922 114.352 559.853 113.957 559.714 113.616C559.575 113.275 559.362 113.008 559.074 112.816C558.786 112.624 558.418 112.528 557.97 112.528ZM572.259 111.216C573.261 111.216 574.029 111.467 574.562 111.968C575.096 112.469 575.363 113.275 575.363 114.384V120H573.683V114.624C573.683 113.952 573.539 113.451 573.251 113.12C572.973 112.779 572.525 112.608 571.907 112.608C571.032 112.608 570.424 112.869 570.083 113.392C569.752 113.915 569.587 114.667 569.587 115.648V120H567.891V111.376H569.235L569.475 112.528H569.571C569.763 112.229 569.997 111.984 570.275 111.792C570.552 111.6 570.861 111.456 571.203 111.36C571.544 111.264 571.896 111.216 572.259 111.216ZM581.313 111.216C582.401 111.216 583.211 111.456 583.745 111.936C584.278 112.405 584.545 113.147 584.545 114.16V120H583.345L583.009 118.8H582.945C582.699 119.109 582.443 119.365 582.177 119.568C581.921 119.771 581.622 119.92 581.281 120.016C580.95 120.112 580.545 120.16 580.065 120.16C579.553 120.16 579.089 120.069 578.673 119.888C578.267 119.696 577.947 119.408 577.713 119.024C577.478 118.629 577.361 118.139 577.361 117.552C577.361 116.677 577.691 116.011 578.353 115.552C579.025 115.093 580.043 114.843 581.409 114.8L582.881 114.752V114.272C582.881 113.632 582.737 113.184 582.449 112.928C582.161 112.672 581.755 112.544 581.233 112.544C580.785 112.544 580.358 112.608 579.953 112.736C579.547 112.864 579.163 113.019 578.801 113.2L578.257 111.968C578.662 111.755 579.126 111.579 579.649 111.44C580.182 111.291 580.737 111.216 581.313 111.216ZM581.713 115.888C580.731 115.931 580.049 116.096 579.665 116.384C579.291 116.661 579.105 117.056 579.105 117.568C579.105 118.016 579.238 118.341 579.505 118.544C579.782 118.747 580.129 118.848 580.545 118.848C581.217 118.848 581.771 118.661 582.209 118.288C582.646 117.915 582.865 117.355 582.865 116.608V115.856L581.713 115.888ZM589.092 120L585.828 111.376H587.62L589.412 116.416C589.487 116.629 589.561 116.869 589.636 117.136C589.721 117.403 589.796 117.659 589.86 117.904C589.924 118.149 589.967 118.363 589.988 118.544H590.052C590.084 118.363 590.132 118.149 590.196 117.904C590.271 117.648 590.351 117.392 590.436 117.136C590.521 116.869 590.596 116.629 590.66 116.416L592.452 111.376H594.244L590.964 120H589.092ZM597.274 111.376V120H595.578V111.376H597.274ZM596.442 108.096C596.698 108.096 596.922 108.171 597.114 108.32C597.306 108.469 597.402 108.72 597.402 109.072C597.402 109.413 597.306 109.664 597.114 109.824C596.922 109.973 596.698 110.048 596.442 110.048C596.165 110.048 595.93 109.973 595.738 109.824C595.557 109.664 595.466 109.413 595.466 109.072C595.466 108.72 595.557 108.469 595.738 108.32C595.93 108.171 596.165 108.096 596.442 108.096ZM602.913 111.216C603.468 111.216 603.969 111.323 604.417 111.536C604.865 111.749 605.244 112.075 605.553 112.512H605.633L605.825 111.376H607.201V120.112C607.201 120.923 607.057 121.605 606.769 122.16C606.481 122.715 606.039 123.131 605.441 123.408C604.855 123.696 604.113 123.84 603.217 123.84C602.599 123.84 602.028 123.797 601.505 123.712C600.983 123.627 600.503 123.493 600.065 123.312V121.824C600.375 121.973 600.7 122.096 601.041 122.192C601.383 122.299 601.745 122.373 602.129 122.416C602.513 122.469 602.908 122.496 603.313 122.496C604.017 122.496 604.561 122.293 604.945 121.888C605.329 121.493 605.521 120.933 605.521 120.208V119.92C605.521 119.781 605.527 119.6 605.537 119.376C605.548 119.141 605.559 118.971 605.569 118.864H605.505C605.207 119.312 604.839 119.643 604.401 119.856C603.975 120.059 603.479 120.16 602.913 120.16C601.825 120.16 600.972 119.771 600.353 118.992C599.745 118.203 599.441 117.109 599.441 115.712C599.441 114.773 599.58 113.973 599.857 113.312C600.135 112.64 600.529 112.123 601.041 111.76C601.564 111.397 602.188 111.216 602.913 111.216ZM603.265 112.624C602.817 112.624 602.439 112.747 602.129 112.992C601.82 113.227 601.585 113.573 601.425 114.032C601.265 114.491 601.185 115.056 601.185 115.728C601.185 116.731 601.361 117.493 601.713 118.016C602.076 118.539 602.604 118.8 603.297 118.8C603.703 118.8 604.044 118.747 604.321 118.64C604.609 118.533 604.844 118.368 605.025 118.144C605.217 117.92 605.356 117.637 605.441 117.296C605.537 116.944 605.585 116.523 605.585 116.032V115.712C605.585 114.976 605.5 114.384 605.329 113.936C605.169 113.477 604.919 113.147 604.577 112.944C604.236 112.731 603.799 112.624 603.265 112.624ZM613.203 111.216C614.291 111.216 615.102 111.456 615.635 111.936C616.169 112.405 616.435 113.147 616.435 114.16V120H615.235L614.899 118.8H614.835C614.59 119.109 614.334 119.365 614.067 119.568C613.811 119.771 613.513 119.92 613.171 120.016C612.841 120.112 612.435 120.16 611.955 120.16C611.443 120.16 610.979 120.069 610.563 119.888C610.158 119.696 609.838 119.408 609.603 119.024C609.369 118.629 609.251 118.139 609.251 117.552C609.251 116.677 609.582 116.011 610.243 115.552C610.915 115.093 611.934 114.843 613.299 114.8L614.771 114.752V114.272C614.771 113.632 614.627 113.184 614.339 112.928C614.051 112.672 613.646 112.544 613.123 112.544C612.675 112.544 612.249 112.608 611.843 112.736C611.438 112.864 611.054 113.019 610.691 113.2L610.147 111.968C610.553 111.755 611.017 111.579 611.539 111.44C612.073 111.291 612.627 111.216 613.203 111.216ZM613.603 115.888C612.622 115.931 611.939 116.096 611.555 116.384C611.182 116.661 610.995 117.056 610.995 117.568C610.995 118.016 611.129 118.341 611.395 118.544C611.673 118.747 612.019 118.848 612.435 118.848C613.107 118.848 613.662 118.661 614.099 118.288C614.537 117.915 614.755 117.355 614.755 116.608V115.856L613.603 115.888ZM622.151 118.784C622.375 118.784 622.604 118.763 622.839 118.72C623.073 118.677 623.276 118.629 623.447 118.576V119.856C623.265 119.941 623.02 120.011 622.711 120.064C622.401 120.128 622.092 120.16 621.783 120.16C621.313 120.16 620.881 120.08 620.487 119.92C620.103 119.76 619.793 119.483 619.559 119.088C619.324 118.693 619.207 118.144 619.207 117.44V112.672H618.007V111.904L619.271 111.264L619.863 109.44H620.903V111.376H623.367V112.672H620.903V117.408C620.903 117.877 621.015 118.224 621.239 118.448C621.473 118.672 621.777 118.784 622.151 118.784ZM626.868 111.376V120H625.172V111.376H626.868ZM626.036 108.096C626.292 108.096 626.516 108.171 626.708 108.32C626.9 108.469 626.996 108.72 626.996 109.072C626.996 109.413 626.9 109.664 626.708 109.824C626.516 109.973 626.292 110.048 626.036 110.048C625.758 110.048 625.524 109.973 625.332 109.824C625.15 109.664 625.06 109.413 625.06 109.072C625.06 108.72 625.15 108.469 625.332 108.32C625.524 108.171 625.758 108.096 626.036 108.096ZM637.131 115.68C637.131 116.395 637.035 117.029 636.843 117.584C636.651 118.139 636.379 118.608 636.027 118.992C635.675 119.376 635.248 119.669 634.747 119.872C634.246 120.064 633.68 120.16 633.051 120.16C632.475 120.16 631.942 120.064 631.451 119.872C630.96 119.669 630.534 119.376 630.171 118.992C629.819 118.608 629.542 118.139 629.339 117.584C629.136 117.029 629.035 116.389 629.035 115.664C629.035 114.715 629.195 113.909 629.515 113.248C629.846 112.587 630.315 112.085 630.923 111.744C631.542 111.392 632.267 111.216 633.099 111.216C633.888 111.216 634.582 111.392 635.179 111.744C635.787 112.085 636.262 112.587 636.603 113.248C636.955 113.909 637.131 114.72 637.131 115.68ZM630.779 115.68C630.779 116.32 630.859 116.875 631.019 117.344C631.179 117.803 631.43 118.155 631.771 118.4C632.112 118.645 632.55 118.768 633.083 118.768C633.616 118.768 634.054 118.645 634.395 118.4C634.736 118.155 634.987 117.803 635.147 117.344C635.307 116.875 635.387 116.32 635.387 115.68C635.387 115.019 635.302 114.464 635.131 114.016C634.971 113.568 634.72 113.227 634.379 112.992C634.048 112.747 633.611 112.624 633.067 112.624C632.267 112.624 631.686 112.891 631.323 113.424C630.96 113.957 630.779 114.709 630.779 115.68ZM643.649 111.216C644.652 111.216 645.42 111.467 645.953 111.968C646.486 112.469 646.753 113.275 646.753 114.384V120H645.073V114.624C645.073 113.952 644.929 113.451 644.641 113.12C644.364 112.779 643.916 112.608 643.297 112.608C642.422 112.608 641.814 112.869 641.473 113.392C641.142 113.915 640.977 114.667 640.977 115.648V120H639.281V111.376H640.625L640.865 112.528H640.961C641.153 112.229 641.388 111.984 641.665 111.792C641.942 111.6 642.252 111.456 642.593 111.36C642.934 111.264 643.286 111.216 643.649 111.216Z" fill="#545961"/>
<path d="M682.52 120V108.576H684.248V118.512H689.128V120H682.52ZM692.602 111.376V120H690.906V111.376H692.602ZM691.77 108.096C692.026 108.096 692.25 108.171 692.442 108.32C692.634 108.469 692.73 108.72 692.73 109.072C692.73 109.413 692.634 109.664 692.442 109.824C692.25 109.973 692.026 110.048 691.77 110.048C691.493 110.048 691.258 109.973 691.066 109.824C690.885 109.664 690.794 109.413 690.794 109.072C690.794 108.72 690.885 108.469 691.066 108.32C691.258 108.171 691.493 108.096 691.77 108.096ZM696.962 110.768C696.962 111.12 696.951 111.456 696.93 111.776C696.919 112.085 696.903 112.331 696.882 112.512H696.962C697.207 112.149 697.538 111.845 697.954 111.6C698.37 111.355 698.908 111.232 699.57 111.232C700.604 111.232 701.436 111.605 702.066 112.352C702.706 113.099 703.026 114.208 703.026 115.68C703.026 116.672 702.882 117.499 702.594 118.16C702.306 118.821 701.9 119.323 701.378 119.664C700.855 119.995 700.247 120.16 699.554 120.16C698.882 120.16 698.343 120.043 697.938 119.808C697.532 119.563 697.207 119.275 696.962 118.944H696.834L696.514 120H695.266V107.84H696.962V110.768ZM699.17 112.608C698.615 112.608 698.178 112.715 697.858 112.928C697.538 113.141 697.308 113.467 697.17 113.904C697.031 114.341 696.962 114.896 696.962 115.568V115.696C696.962 116.688 697.122 117.451 697.442 117.984C697.762 118.507 698.348 118.768 699.202 118.768C699.884 118.768 700.402 118.501 700.754 117.968C701.106 117.435 701.282 116.667 701.282 115.664C701.282 114.651 701.106 113.888 700.754 113.376C700.402 112.864 699.874 112.608 699.17 112.608ZM708.579 111.216C709.337 111.216 709.987 111.376 710.531 111.696C711.075 112.005 711.491 112.453 711.779 113.04C712.078 113.627 712.227 114.32 712.227 115.12V116.048H706.435C706.457 116.933 706.686 117.611 707.123 118.08C707.571 118.549 708.195 118.784 708.995 118.784C709.55 118.784 710.041 118.736 710.467 118.64C710.905 118.533 711.353 118.379 711.811 118.176V119.584C711.385 119.776 710.947 119.92 710.499 120.016C710.062 120.112 709.539 120.16 708.931 120.16C708.099 120.16 707.363 119.995 706.723 119.664C706.083 119.333 705.582 118.843 705.219 118.192C704.867 117.531 704.691 116.72 704.691 115.76C704.691 114.789 704.851 113.968 705.171 113.296C705.502 112.624 705.955 112.112 706.531 111.76C707.118 111.397 707.801 111.216 708.579 111.216ZM708.579 112.528C707.971 112.528 707.481 112.725 707.107 113.12C706.745 113.515 706.531 114.075 706.467 114.8H710.531C710.531 114.352 710.462 113.957 710.323 113.616C710.185 113.275 709.971 113.008 709.683 112.816C709.395 112.624 709.027 112.528 708.579 112.528ZM716.04 120H714.344V107.84H716.04V120ZM720.399 120H718.703V107.84H720.399V120ZM726.454 111.216C727.212 111.216 727.862 111.376 728.406 111.696C728.95 112.005 729.366 112.453 729.654 113.04C729.953 113.627 730.102 114.32 730.102 115.12V116.048H724.31C724.332 116.933 724.561 117.611 724.998 118.08C725.446 118.549 726.07 118.784 726.87 118.784C727.425 118.784 727.916 118.736 728.342 118.64C728.78 118.533 729.228 118.379 729.686 118.176V119.584C729.26 119.776 728.822 119.92 728.374 120.016C727.937 120.112 727.414 120.16 726.806 120.16C725.974 120.16 725.238 119.995 724.598 119.664C723.958 119.333 723.457 118.843 723.094 118.192C722.742 117.531 722.566 116.72 722.566 115.76C722.566 114.789 722.726 113.968 723.046 113.296C723.377 112.624 723.83 112.112 724.406 111.76C724.993 111.397 725.676 111.216 726.454 111.216ZM726.454 112.528C725.846 112.528 725.356 112.725 724.982 113.12C724.62 113.515 724.406 114.075 724.342 114.8H728.406C728.406 114.352 728.337 113.957 728.198 113.616C728.06 113.275 727.846 113.008 727.558 112.816C727.27 112.624 726.902 112.528 726.454 112.528ZM729.014 107.904C728.897 108.053 728.737 108.235 728.534 108.448C728.342 108.661 728.124 108.885 727.878 109.12C727.644 109.344 727.409 109.563 727.174 109.776C726.94 109.979 726.726 110.155 726.534 110.304H725.414V110.112C725.574 109.909 725.756 109.669 725.958 109.392C726.161 109.115 726.358 108.832 726.55 108.544C726.742 108.245 726.902 107.979 727.03 107.744H729.014V107.904ZM739.335 120.16C738.3 120.16 737.463 119.787 736.823 119.04C736.194 118.293 735.879 117.184 735.879 115.712C735.879 114.229 736.199 113.109 736.839 112.352C737.479 111.595 738.322 111.216 739.367 111.216C739.804 111.216 740.183 111.275 740.503 111.392C740.834 111.499 741.116 111.648 741.351 111.84C741.596 112.032 741.804 112.245 741.975 112.48H742.071C742.05 112.331 742.023 112.117 741.991 111.84C741.959 111.552 741.943 111.296 741.943 111.072V107.84H743.639V120H742.311L742.023 118.848H741.943C741.783 119.093 741.58 119.317 741.335 119.52C741.1 119.712 740.818 119.867 740.487 119.984C740.156 120.101 739.772 120.16 739.335 120.16ZM739.735 118.768C740.567 118.768 741.154 118.539 741.495 118.08C741.836 117.611 742.007 116.912 742.007 115.984V115.728C742.007 114.715 741.842 113.941 741.511 113.408C741.191 112.875 740.594 112.608 739.719 112.608C739.026 112.608 738.503 112.891 738.151 113.456C737.799 114.011 737.623 114.773 737.623 115.744C737.623 116.715 737.799 117.461 738.151 117.984C738.503 118.507 739.031 118.768 739.735 118.768ZM753.721 111.376V120H752.361L752.121 118.864H752.041C751.859 119.163 751.625 119.408 751.337 119.6C751.049 119.792 750.734 119.931 750.393 120.016C750.051 120.112 749.699 120.16 749.337 120.16C748.665 120.16 748.094 120.053 747.625 119.84C747.166 119.616 746.814 119.275 746.569 118.816C746.334 118.347 746.217 117.749 746.217 117.024V111.376H747.929V116.768C747.929 117.44 748.067 117.941 748.345 118.272C748.633 118.603 749.075 118.768 749.673 118.768C750.27 118.768 750.739 118.651 751.081 118.416C751.422 118.181 751.662 117.84 751.801 117.392C751.95 116.933 752.025 116.384 752.025 115.744V111.376H753.721ZM763.507 111.216C764.062 111.216 764.563 111.323 765.011 111.536C765.459 111.749 765.838 112.075 766.147 112.512H766.227L766.419 111.376H767.795V120.112C767.795 120.923 767.651 121.605 767.363 122.16C767.075 122.715 766.632 123.131 766.035 123.408C765.448 123.696 764.707 123.84 763.811 123.84C763.192 123.84 762.622 123.797 762.099 123.712C761.576 123.627 761.096 123.493 760.659 123.312V121.824C760.968 121.973 761.294 122.096 761.635 122.192C761.976 122.299 762.339 122.373 762.723 122.416C763.107 122.469 763.502 122.496 763.907 122.496C764.611 122.496 765.155 122.293 765.539 121.888C765.923 121.493 766.115 120.933 766.115 120.208V119.92C766.115 119.781 766.12 119.6 766.131 119.376C766.142 119.141 766.152 118.971 766.163 118.864H766.099C765.8 119.312 765.432 119.643 764.995 119.856C764.568 120.059 764.072 120.16 763.507 120.16C762.419 120.16 761.566 119.771 760.947 118.992C760.339 118.203 760.035 117.109 760.035 115.712C760.035 114.773 760.174 113.973 760.451 113.312C760.728 112.64 761.123 112.123 761.635 111.76C762.158 111.397 762.782 111.216 763.507 111.216ZM763.859 112.624C763.411 112.624 763.032 112.747 762.723 112.992C762.414 113.227 762.179 113.573 762.019 114.032C761.859 114.491 761.779 115.056 761.779 115.728C761.779 116.731 761.955 117.493 762.307 118.016C762.67 118.539 763.198 118.8 763.891 118.8C764.296 118.8 764.638 118.747 764.915 118.64C765.203 118.533 765.438 118.368 765.619 118.144C765.811 117.92 765.95 117.637 766.035 117.296C766.131 116.944 766.179 116.523 766.179 116.032V115.712C766.179 114.976 766.094 114.384 765.923 113.936C765.763 113.477 765.512 113.147 765.171 112.944C764.83 112.731 764.392 112.624 763.859 112.624ZM774.709 111.216C774.858 111.216 775.024 111.227 775.205 111.248C775.386 111.259 775.536 111.275 775.653 111.296L775.477 112.88C775.36 112.848 775.221 112.821 775.061 112.8C774.901 112.779 774.752 112.768 774.613 112.768C774.293 112.768 773.984 112.832 773.685 112.96C773.397 113.077 773.136 113.253 772.901 113.488C772.666 113.712 772.48 113.989 772.341 114.32C772.213 114.651 772.149 115.029 772.149 115.456V120H770.453V111.376H771.797L772.021 112.912H772.085C772.266 112.603 772.485 112.32 772.741 112.064C772.997 111.808 773.29 111.605 773.621 111.456C773.952 111.296 774.314 111.216 774.709 111.216ZM784.537 115.68C784.537 116.395 784.441 117.029 784.249 117.584C784.057 118.139 783.785 118.608 783.433 118.992C783.081 119.376 782.655 119.669 782.153 119.872C781.652 120.064 781.087 120.16 780.457 120.16C779.881 120.16 779.348 120.064 778.857 119.872C778.367 119.669 777.94 119.376 777.577 118.992C777.225 118.608 776.948 118.139 776.745 117.584C776.543 117.029 776.441 116.389 776.441 115.664C776.441 114.715 776.601 113.909 776.921 113.248C777.252 112.587 777.721 112.085 778.329 111.744C778.948 111.392 779.673 111.216 780.505 111.216C781.295 111.216 781.988 111.392 782.585 111.744C783.193 112.085 783.668 112.587 784.009 113.248C784.361 113.909 784.537 114.72 784.537 115.68ZM778.185 115.68C778.185 116.32 778.265 116.875 778.425 117.344C778.585 117.803 778.836 118.155 779.177 118.4C779.519 118.645 779.956 118.768 780.489 118.768C781.023 118.768 781.46 118.645 781.801 118.4C782.143 118.155 782.393 117.803 782.553 117.344C782.713 116.875 782.793 116.32 782.793 115.68C782.793 115.019 782.708 114.464 782.537 114.016C782.377 113.568 782.127 113.227 781.785 112.992C781.455 112.747 781.017 112.624 780.473 112.624C779.673 112.624 779.092 112.891 778.729 113.424C778.367 113.957 778.185 114.709 778.185 115.68ZM794.111 111.376V120H792.751L792.511 118.864H792.431C792.25 119.163 792.015 119.408 791.727 119.6C791.439 119.792 791.125 119.931 790.783 120.016C790.442 120.112 790.09 120.16 789.727 120.16C789.055 120.16 788.485 120.053 788.015 119.84C787.557 119.616 787.205 119.275 786.959 118.816C786.725 118.347 786.607 117.749 786.607 117.024V111.376H788.319V116.768C788.319 117.44 788.458 117.941 788.735 118.272C789.023 118.603 789.466 118.768 790.063 118.768C790.661 118.768 791.13 118.651 791.471 118.416C791.813 118.181 792.053 117.84 792.191 117.392C792.341 116.933 792.415 116.384 792.415 115.744V111.376H794.111ZM801.07 111.216C802.104 111.216 802.936 111.589 803.566 112.336C804.206 113.083 804.526 114.197 804.526 115.68C804.526 116.651 804.382 117.472 804.094 118.144C803.806 118.816 803.4 119.323 802.878 119.664C802.355 119.995 801.747 120.16 801.054 120.16C800.616 120.16 800.232 120.107 799.902 120C799.571 119.883 799.288 119.733 799.054 119.552C798.83 119.36 798.632 119.157 798.462 118.944H798.35C798.382 119.136 798.408 119.365 798.43 119.632C798.451 119.888 798.462 120.117 798.462 120.32V123.84H796.766V111.376H798.142L798.382 112.528H798.462C798.632 112.293 798.835 112.075 799.07 111.872C799.304 111.669 799.587 111.509 799.918 111.392C800.248 111.275 800.632 111.216 801.07 111.216ZM800.67 112.608C800.136 112.608 799.71 112.715 799.39 112.928C799.07 113.131 798.835 113.44 798.686 113.856C798.547 114.261 798.472 114.779 798.462 115.408V115.664C798.462 116.325 798.531 116.891 798.67 117.36C798.808 117.819 799.038 118.171 799.358 118.416C799.688 118.651 800.136 118.768 800.702 118.768C801.182 118.768 801.571 118.64 801.87 118.384C802.179 118.117 802.408 117.749 802.558 117.28C802.707 116.811 802.782 116.267 802.782 115.648C802.782 114.709 802.611 113.968 802.27 113.424C801.928 112.88 801.395 112.608 800.67 112.608ZM813.804 120.16C812.769 120.16 811.932 119.787 811.292 119.04C810.662 118.293 810.348 117.184 810.348 115.712C810.348 114.229 810.668 113.109 811.308 112.352C811.948 111.595 812.79 111.216 813.836 111.216C814.273 111.216 814.652 111.275 814.972 111.392C815.302 111.499 815.585 111.648 815.82 111.84C816.065 112.032 816.273 112.245 816.444 112.48H816.54C816.518 112.331 816.492 112.117 816.46 111.84C816.428 111.552 816.412 111.296 816.412 111.072V107.84H818.108V120H816.78L816.492 118.848H816.412C816.252 119.093 816.049 119.317 815.804 119.52C815.569 119.712 815.286 119.867 814.956 119.984C814.625 120.101 814.241 120.16 813.804 120.16ZM814.204 118.768C815.036 118.768 815.622 118.539 815.964 118.08C816.305 117.611 816.476 116.912 816.476 115.984V115.728C816.476 114.715 816.31 113.941 815.98 113.408C815.66 112.875 815.062 112.608 814.188 112.608C813.494 112.608 812.972 112.891 812.62 113.456C812.268 114.011 812.092 114.773 812.092 115.744C812.092 116.715 812.268 117.461 812.62 117.984C812.972 118.507 813.5 118.768 814.204 118.768ZM824.158 111.216C824.915 111.216 825.566 111.376 826.11 111.696C826.654 112.005 827.07 112.453 827.358 113.04C827.656 113.627 827.806 114.32 827.806 115.12V116.048H822.014C822.035 116.933 822.264 117.611 822.702 118.08C823.15 118.549 823.774 118.784 824.574 118.784C825.128 118.784 825.619 118.736 826.046 118.64C826.483 118.533 826.931 118.379 827.39 118.176V119.584C826.963 119.776 826.526 119.92 826.078 120.016C825.64 120.112 825.118 120.16 824.51 120.16C823.678 120.16 822.942 119.995 822.302 119.664C821.662 119.333 821.16 118.843 820.798 118.192C820.446 117.531 820.27 116.72 820.27 115.76C820.27 114.789 820.43 113.968 820.75 113.296C821.08 112.624 821.534 112.112 822.11 111.76C822.696 111.397 823.379 111.216 824.158 111.216ZM824.158 112.528C823.55 112.528 823.059 112.725 822.686 113.12C822.323 113.515 822.11 114.075 822.046 114.8H826.11C826.11 114.352 826.04 113.957 825.902 113.616C825.763 113.275 825.55 113.008 825.262 112.816C824.974 112.624 824.606 112.528 824.158 112.528ZM838.446 111.216C839.449 111.216 840.217 111.467 840.75 111.968C841.283 112.469 841.55 113.275 841.55 114.384V120H839.87V114.624C839.87 113.952 839.726 113.451 839.438 113.12C839.161 112.779 838.713 112.608 838.094 112.608C837.219 112.608 836.611 112.869 836.27 113.392C835.939 113.915 835.774 114.667 835.774 115.648V120H834.078V111.376H835.422L835.662 112.528H835.758C835.95 112.229 836.185 111.984 836.462 111.792C836.739 111.6 837.049 111.456 837.39 111.36C837.731 111.264 838.083 111.216 838.446 111.216ZM847.5 111.216C848.588 111.216 849.399 111.456 849.932 111.936C850.465 112.405 850.732 113.147 850.732 114.16V120H849.532L849.196 118.8H849.132C848.887 119.109 848.631 119.365 848.364 119.568C848.108 119.771 847.809 119.92 847.468 120.016C847.137 120.112 846.732 120.16 846.252 120.16C845.74 120.16 845.276 120.069 844.86 119.888C844.455 119.696 844.135 119.408 843.9 119.024C843.665 118.629 843.548 118.139 843.548 117.552C843.548 116.677 843.879 116.011 844.54 115.552C845.212 115.093 846.231 114.843 847.596 114.8L849.068 114.752V114.272C849.068 113.632 848.924 113.184 848.636 112.928C848.348 112.672 847.943 112.544 847.42 112.544C846.972 112.544 846.545 112.608 846.14 112.736C845.735 112.864 845.351 113.019 844.988 113.2L844.444 111.968C844.849 111.755 845.313 111.579 845.836 111.44C846.369 111.291 846.924 111.216 847.5 111.216ZM847.9 115.888C846.919 115.931 846.236 116.096 845.852 116.384C845.479 116.661 845.292 117.056 845.292 117.568C845.292 118.016 845.425 118.341 845.692 118.544C845.969 118.747 846.316 118.848 846.732 118.848C847.404 118.848 847.959 118.661 848.396 118.288C848.833 117.915 849.052 117.355 849.052 116.608V115.856L847.9 115.888ZM855.28 120L852.016 111.376H853.808L855.6 116.416C855.674 116.629 855.749 116.869 855.824 117.136C855.909 117.403 855.984 117.659 856.048 117.904C856.112 118.149 856.154 118.363 856.176 118.544H856.24C856.272 118.363 856.32 118.149 856.384 117.904C856.458 117.648 856.538 117.392 856.624 117.136C856.709 116.869 856.784 116.629 856.848 116.416L858.64 111.376H860.432L857.152 120H855.28ZM863.462 111.376V120H861.766V111.376H863.462ZM862.63 108.096C862.886 108.096 863.11 108.171 863.302 108.32C863.494 108.469 863.59 108.72 863.59 109.072C863.59 109.413 863.494 109.664 863.302 109.824C863.11 109.973 862.886 110.048 862.63 110.048C862.352 110.048 862.118 109.973 861.926 109.824C861.744 109.664 861.654 109.413 861.654 109.072C861.654 108.72 861.744 108.469 861.926 108.32C862.118 108.171 862.352 108.096 862.63 108.096ZM869.101 111.216C869.656 111.216 870.157 111.323 870.605 111.536C871.053 111.749 871.432 112.075 871.741 112.512H871.821L872.013 111.376H873.389V120.112C873.389 120.923 873.245 121.605 872.957 122.16C872.669 122.715 872.226 123.131 871.629 123.408C871.042 123.696 870.301 123.84 869.405 123.84C868.786 123.84 868.216 123.797 867.693 123.712C867.17 123.627 866.69 123.493 866.253 123.312V121.824C866.562 121.973 866.888 122.096 867.229 122.192C867.57 122.299 867.933 122.373 868.317 122.416C868.701 122.469 869.096 122.496 869.501 122.496C870.205 122.496 870.749 122.293 871.133 121.888C871.517 121.493 871.709 120.933 871.709 120.208V119.92C871.709 119.781 871.714 119.6 871.725 119.376C871.736 119.141 871.746 118.971 871.757 118.864H871.693C871.394 119.312 871.026 119.643 870.589 119.856C870.162 120.059 869.666 120.16 869.101 120.16C868.013 120.16 867.16 119.771 866.541 118.992C865.933 118.203 865.629 117.109 865.629 115.712C865.629 114.773 865.768 113.973 866.045 113.312C866.322 112.64 866.717 112.123 867.229 111.76C867.752 111.397 868.376 111.216 869.101 111.216ZM869.453 112.624C869.005 112.624 868.626 112.747 868.317 112.992C868.008 113.227 867.773 113.573 867.613 114.032C867.453 114.491 867.373 115.056 867.373 115.728C867.373 116.731 867.549 117.493 867.901 118.016C868.264 118.539 868.792 118.8 869.485 118.8C869.89 118.8 870.232 118.747 870.509 118.64C870.797 118.533 871.032 118.368 871.213 118.144C871.405 117.92 871.544 117.637 871.629 117.296C871.725 116.944 871.773 116.523 871.773 116.032V115.712C871.773 114.976 871.688 114.384 871.517 113.936C871.357 113.477 871.106 113.147 870.765 112.944C870.424 112.731 869.986 112.624 869.453 112.624ZM879.391 111.216C880.479 111.216 881.289 111.456 881.823 111.936C882.356 112.405 882.623 113.147 882.623 114.16V120H881.423L881.087 118.8H881.023C880.777 119.109 880.521 119.365 880.255 119.568C879.999 119.771 879.7 119.92 879.359 120.016C879.028 120.112 878.623 120.16 878.143 120.16C877.631 120.16 877.167 120.069 876.751 119.888C876.345 119.696 876.025 119.408 875.791 119.024C875.556 118.629 875.439 118.139 875.439 117.552C875.439 116.677 875.769 116.011 876.431 115.552C877.103 115.093 878.121 114.843 879.487 114.8L880.959 114.752V114.272C880.959 113.632 880.815 113.184 880.527 112.928C880.239 112.672 879.833 112.544 879.311 112.544C878.863 112.544 878.436 112.608 878.031 112.736C877.625 112.864 877.241 113.019 876.879 113.2L876.335 111.968C876.74 111.755 877.204 111.579 877.727 111.44C878.26 111.291 878.815 111.216 879.391 111.216ZM879.791 115.888C878.809 115.931 878.127 116.096 877.743 116.384C877.369 116.661 877.183 117.056 877.183 117.568C877.183 118.016 877.316 118.341 877.583 118.544C877.86 118.747 878.207 118.848 878.623 118.848C879.295 118.848 879.849 118.661 880.287 118.288C880.724 117.915 880.943 117.355 880.943 116.608V115.856L879.791 115.888ZM888.338 118.784C888.562 118.784 888.792 118.763 889.026 118.72C889.261 118.677 889.464 118.629 889.634 118.576V119.856C889.453 119.941 889.208 120.011 888.898 120.064C888.589 120.128 888.28 120.16 887.97 120.16C887.501 120.16 887.069 120.08 886.674 119.92C886.29 119.76 885.981 119.483 885.746 119.088C885.512 118.693 885.394 118.144 885.394 117.44V112.672H884.194V111.904L885.458 111.264L886.05 109.44H887.09V111.376H889.554V112.672H887.09V117.408C887.09 117.877 887.202 118.224 887.426 118.448C887.661 118.672 887.965 118.784 888.338 118.784ZM893.055 111.376V120H891.359V111.376H893.055ZM892.223 108.096C892.479 108.096 892.703 108.171 892.895 108.32C893.087 108.469 893.183 108.72 893.183 109.072C893.183 109.413 893.087 109.664 892.895 109.824C892.703 109.973 892.479 110.048 892.223 110.048C891.946 110.048 891.711 109.973 891.519 109.824C891.338 109.664 891.247 109.413 891.247 109.072C891.247 108.72 891.338 108.469 891.519 108.32C891.711 108.171 891.946 108.096 892.223 108.096ZM903.319 115.68C903.319 116.395 903.223 117.029 903.031 117.584C902.839 118.139 902.567 118.608 902.215 118.992C901.863 119.376 901.436 119.669 900.935 119.872C900.433 120.064 899.868 120.16 899.239 120.16C898.663 120.16 898.129 120.064 897.639 119.872C897.148 119.669 896.721 119.376 896.359 118.992C896.007 118.608 895.729 118.139 895.527 117.584C895.324 117.029 895.223 116.389 895.223 115.664C895.223 114.715 895.383 113.909 895.703 113.248C896.033 112.587 896.503 112.085 897.111 111.744C897.729 111.392 898.455 111.216 899.287 111.216C900.076 111.216 900.769 111.392 901.367 111.744C901.975 112.085 902.449 112.587 902.791 113.248C903.143 113.909 903.319 114.72 903.319 115.68ZM896.967 115.68C896.967 116.32 897.047 116.875 897.207 117.344C897.367 117.803 897.617 118.155 897.959 118.4C898.3 118.645 898.737 118.768 899.271 118.768C899.804 118.768 900.241 118.645 900.583 118.4C900.924 118.155 901.175 117.803 901.335 117.344C901.495 116.875 901.575 116.32 901.575 115.68C901.575 115.019 901.489 114.464 901.319 114.016C901.159 113.568 900.908 113.227 900.567 112.992C900.236 112.747 899.799 112.624 899.255 112.624C898.455 112.624 897.873 112.891 897.511 113.424C897.148 113.957 896.967 114.709 896.967 115.68ZM909.837 111.216C910.839 111.216 911.607 111.467 912.141 111.968C912.674 112.469 912.941 113.275 912.941 114.384V120H911.261V114.624C911.261 113.952 911.117 113.451 910.829 113.12C910.551 112.779 910.103 112.608 909.485 112.608C908.61 112.608 908.002 112.869 907.661 113.392C907.33 113.915 907.165 114.667 907.165 115.648V120H905.469V111.376H906.813L907.053 112.528H907.149C907.341 112.229 907.575 111.984 907.853 111.792C908.13 111.6 908.439 111.456 908.781 111.36C909.122 111.264 909.474 111.216 909.837 111.216Z" fill="#333333"/>
<path d="M937 112.438L931.312 118.125L930 116.812L937 109.812L944 116.812L942.688 118.125L937 112.438Z" fill="#333333"/>
<g filter="url(#filter0_d_5534_52927)">
<rect x="664.215" y="152" width="317.5" height="186" rx="6" fill="white"/>
<mask id="path-10-inside-2_5534_52927" fill="white">
<path d="M676.215 164H969.715V214H676.215V164Z"/>
</mask>
<path d="M676.215 164H969.715V214H676.215V164Z" fill="#D7E5F5"/>
<path d="M676.215 214H678.215V164H676.215H674.215V214H676.215Z" fill="#284162" mask="url(#path-10-inside-2_5534_52927)"/>
<mask id="path-12-inside-3_5534_52927" fill="white">
<path d="M691.215 179H830.215V199H691.215V179Z"/>
</mask>
<path d="M830.215 199V197H691.215V199V201H830.215V199Z" fill="#284162" mask="url(#path-12-inside-3_5534_52927)"/>
<path d="M692.767 195V183.576H694.207V193.72H699.199V195H692.767ZM701.685 183.208C701.899 183.208 702.085 183.283 702.245 183.432C702.416 183.571 702.501 183.795 702.501 184.104C702.501 184.403 702.416 184.627 702.245 184.776C702.085 184.925 701.899 185 701.685 185C701.451 185 701.253 184.925 701.093 184.776C700.933 184.627 700.853 184.403 700.853 184.104C700.853 183.795 700.933 183.571 701.093 183.432C701.253 183.283 701.451 183.208 701.685 183.208ZM702.373 186.424V195H700.965V186.424H702.373ZM708.402 186.264C709.138 186.264 709.768 186.424 710.29 186.744C710.824 187.064 711.229 187.517 711.506 188.104C711.794 188.68 711.938 189.357 711.938 190.136V190.984H706.066C706.088 191.955 706.333 192.696 706.802 193.208C707.282 193.709 707.949 193.96 708.802 193.96C709.346 193.96 709.826 193.912 710.242 193.816C710.669 193.709 711.106 193.56 711.554 193.368V194.6C711.117 194.792 710.685 194.931 710.258 195.016C709.832 195.112 709.325 195.16 708.738 195.16C707.928 195.16 707.208 194.995 706.578 194.664C705.96 194.333 705.474 193.843 705.122 193.192C704.781 192.531 704.61 191.725 704.61 190.776C704.61 189.837 704.765 189.032 705.074 188.36C705.394 187.688 705.837 187.171 706.402 186.808C706.978 186.445 707.645 186.264 708.402 186.264ZM708.386 187.416C707.714 187.416 707.181 187.635 706.786 188.072C706.402 188.499 706.173 189.096 706.098 189.864H710.466C710.456 189.139 710.285 188.552 709.954 188.104C709.624 187.645 709.101 187.416 708.386 187.416ZM718.25 186.264C719.274 186.264 720.047 186.515 720.57 187.016C721.092 187.507 721.354 188.307 721.354 189.416V195H719.962V189.512C719.962 188.136 719.322 187.448 718.042 187.448C717.092 187.448 716.436 187.715 716.074 188.248C715.711 188.781 715.53 189.549 715.53 190.552V195H714.122V186.424H715.258L715.466 187.592H715.546C715.823 187.144 716.207 186.813 716.698 186.6C717.188 186.376 717.706 186.264 718.25 186.264ZM731.209 195.16C730.142 195.16 729.289 194.792 728.649 194.056C728.009 193.309 727.689 192.2 727.689 190.728C727.689 189.256 728.009 188.147 728.649 187.4C729.299 186.643 730.158 186.264 731.225 186.264C731.886 186.264 732.425 186.387 732.841 186.632C733.267 186.877 733.614 187.176 733.881 187.528H733.977C733.966 187.389 733.945 187.187 733.913 186.92C733.891 186.643 733.881 186.424 733.881 186.264V182.84H735.289V195H734.153L733.945 193.848H733.881C733.625 194.211 733.283 194.52 732.857 194.776C732.43 195.032 731.881 195.16 731.209 195.16ZM731.433 193.992C732.339 193.992 732.974 193.747 733.337 193.256C733.71 192.755 733.897 192.003 733.897 191V190.744C733.897 189.677 733.721 188.861 733.369 188.296C733.017 187.72 732.366 187.432 731.417 187.432C730.659 187.432 730.089 187.736 729.705 188.344C729.331 188.941 729.145 189.747 729.145 190.76C729.145 191.784 729.331 192.579 729.705 193.144C730.089 193.709 730.665 193.992 731.433 193.992ZM741.324 186.264C742.06 186.264 742.69 186.424 743.212 186.744C743.746 187.064 744.151 187.517 744.428 188.104C744.716 188.68 744.86 189.357 744.86 190.136V190.984H738.988C739.01 191.955 739.255 192.696 739.724 193.208C740.204 193.709 740.871 193.96 741.724 193.96C742.268 193.96 742.748 193.912 743.164 193.816C743.591 193.709 744.028 193.56 744.476 193.368V194.6C744.039 194.792 743.607 194.931 743.18 195.016C742.754 195.112 742.247 195.16 741.66 195.16C740.85 195.16 740.13 194.995 739.5 194.664C738.882 194.333 738.396 193.843 738.044 193.192C737.703 192.531 737.532 191.725 737.532 190.776C737.532 189.837 737.687 189.032 737.996 188.36C738.316 187.688 738.759 187.171 739.324 186.808C739.9 186.445 740.567 186.264 741.324 186.264ZM741.308 187.416C740.636 187.416 740.103 187.635 739.708 188.072C739.324 188.499 739.095 189.096 739.02 189.864H743.388C743.378 189.139 743.207 188.552 742.876 188.104C742.546 187.645 742.023 187.416 741.308 187.416ZM755.328 186.264C756.352 186.264 757.125 186.515 757.648 187.016C758.171 187.507 758.432 188.307 758.432 189.416V195H757.04V189.512C757.04 188.136 756.4 187.448 755.12 187.448C754.171 187.448 753.515 187.715 753.152 188.248C752.789 188.781 752.608 189.549 752.608 190.552V195H751.2V186.424H752.336L752.544 187.592H752.624C752.901 187.144 753.285 186.813 753.776 186.6C754.267 186.376 754.784 186.264 755.328 186.264ZM764.338 186.28C765.384 186.28 766.157 186.509 766.658 186.968C767.16 187.427 767.41 188.157 767.41 189.16V195H766.386L766.114 193.784H766.05C765.677 194.253 765.282 194.6 764.866 194.824C764.461 195.048 763.896 195.16 763.17 195.16C762.392 195.16 761.746 194.957 761.234 194.552C760.722 194.136 760.466 193.491 760.466 192.616C760.466 191.763 760.802 191.107 761.474 190.648C762.146 190.179 763.181 189.923 764.578 189.88L766.034 189.832V189.32C766.034 188.605 765.88 188.109 765.57 187.832C765.261 187.555 764.824 187.416 764.258 187.416C763.81 187.416 763.384 187.485 762.978 187.624C762.573 187.752 762.194 187.901 761.842 188.072L761.41 187.016C761.784 186.813 762.226 186.643 762.738 186.504C763.25 186.355 763.784 186.28 764.338 186.28ZM764.754 190.856C763.688 190.899 762.946 191.069 762.53 191.368C762.125 191.667 761.922 192.088 761.922 192.632C761.922 193.112 762.066 193.464 762.354 193.688C762.653 193.912 763.032 194.024 763.49 194.024C764.216 194.024 764.818 193.827 765.298 193.432C765.778 193.027 766.018 192.408 766.018 191.576V190.808L764.754 190.856ZM771.947 195L768.699 186.424H770.203L772.027 191.48C772.113 191.715 772.203 191.976 772.299 192.264C772.395 192.552 772.481 192.829 772.555 193.096C772.63 193.352 772.683 193.571 772.715 193.752H772.779C772.822 193.571 772.881 193.347 772.955 193.08C773.041 192.813 773.131 192.536 773.227 192.248C773.334 191.96 773.425 191.704 773.499 191.48L775.323 186.424H776.827L773.563 195H771.947ZM778.904 183.208C779.118 183.208 779.304 183.283 779.464 183.432C779.635 183.571 779.72 183.795 779.72 184.104C779.72 184.403 779.635 184.627 779.464 184.776C779.304 184.925 779.118 185 778.904 185C778.67 185 778.472 184.925 778.312 184.776C778.152 184.627 778.072 184.403 778.072 184.104C778.072 183.795 778.152 183.571 778.312 183.432C778.472 183.283 778.67 183.208 778.904 183.208ZM779.592 186.424V195H778.184V186.424H779.592ZM785.349 186.264C785.915 186.264 786.421 186.371 786.869 186.584C787.328 186.797 787.717 187.123 788.037 187.56H788.117L788.309 186.424H789.429V195.144C789.429 196.371 789.115 197.293 788.485 197.912C787.867 198.531 786.901 198.84 785.589 198.84C784.331 198.84 783.301 198.659 782.501 198.296V197C783.344 197.448 784.4 197.672 785.669 197.672C786.405 197.672 786.981 197.453 787.397 197.016C787.824 196.589 788.037 196.003 788.037 195.256V194.92C788.037 194.792 788.043 194.611 788.053 194.376C788.064 194.131 788.075 193.96 788.085 193.864H788.021C787.445 194.728 786.56 195.16 785.365 195.16C784.256 195.16 783.387 194.771 782.757 193.992C782.139 193.213 781.829 192.125 781.829 190.728C781.829 189.363 782.139 188.28 782.757 187.48C783.387 186.669 784.251 186.264 785.349 186.264ZM785.541 187.448C784.827 187.448 784.272 187.736 783.877 188.312C783.483 188.877 783.285 189.688 783.285 190.744C783.285 191.8 783.477 192.611 783.861 193.176C784.256 193.731 784.827 194.008 785.573 194.008C786.437 194.008 787.067 193.779 787.461 193.32C787.856 192.851 788.053 192.099 788.053 191.064V190.728C788.053 189.555 787.851 188.717 787.445 188.216C787.04 187.704 786.405 187.448 785.541 187.448ZM795.401 186.28C796.446 186.28 797.22 186.509 797.721 186.968C798.222 187.427 798.473 188.157 798.473 189.16V195H797.449L797.177 193.784H797.113C796.74 194.253 796.345 194.6 795.929 194.824C795.524 195.048 794.958 195.16 794.233 195.16C793.454 195.16 792.809 194.957 792.297 194.552C791.785 194.136 791.529 193.491 791.529 192.616C791.529 191.763 791.865 191.107 792.537 190.648C793.209 190.179 794.244 189.923 795.641 189.88L797.097 189.832V189.32C797.097 188.605 796.942 188.109 796.633 187.832C796.324 187.555 795.886 187.416 795.321 187.416C794.873 187.416 794.446 187.485 794.041 187.624C793.636 187.752 793.257 187.901 792.905 188.072L792.473 187.016C792.846 186.813 793.289 186.643 793.801 186.504C794.313 186.355 794.846 186.28 795.401 186.28ZM795.817 190.856C794.75 190.899 794.009 191.069 793.593 191.368C793.188 191.667 792.985 192.088 792.985 192.632C792.985 193.112 793.129 193.464 793.417 193.688C793.716 193.912 794.094 194.024 794.553 194.024C795.278 194.024 795.881 193.827 796.361 193.432C796.841 193.027 797.081 192.408 797.081 191.576V190.808L795.817 190.856ZM803.986 194.008C804.199 194.008 804.418 193.992 804.642 193.96C804.866 193.917 805.047 193.875 805.186 193.832V194.904C805.036 194.979 804.823 195.037 804.546 195.08C804.268 195.133 804.002 195.16 803.746 195.16C803.298 195.16 802.882 195.085 802.498 194.936C802.124 194.776 801.82 194.504 801.586 194.12C801.351 193.736 801.234 193.197 801.234 192.504V187.512H800.018V186.84L801.25 186.28L801.81 184.456H802.642V186.424H805.122V187.512H802.642V192.472C802.642 192.995 802.764 193.384 803.01 193.64C803.266 193.885 803.591 194.008 803.986 194.008ZM807.623 183.208C807.836 183.208 808.023 183.283 808.183 183.432C808.354 183.571 808.439 183.795 808.439 184.104C808.439 184.403 808.354 184.627 808.183 184.776C808.023 184.925 807.836 185 807.623 185C807.388 185 807.191 184.925 807.031 184.776C806.871 184.627 806.791 184.403 806.791 184.104C806.791 183.795 806.871 183.571 807.031 183.432C807.191 183.283 807.388 183.208 807.623 183.208ZM808.311 186.424V195H806.903V186.424H808.311ZM818.484 190.696C818.484 192.115 818.121 193.213 817.396 193.992C816.681 194.771 815.711 195.16 814.484 195.16C813.727 195.16 813.049 194.989 812.452 194.648C811.865 194.296 811.401 193.789 811.06 193.128C810.719 192.456 810.548 191.645 810.548 190.696C810.548 189.277 810.905 188.184 811.62 187.416C812.335 186.648 813.305 186.264 814.532 186.264C815.311 186.264 815.993 186.44 816.58 186.792C817.177 187.133 817.641 187.635 817.972 188.296C818.313 188.947 818.484 189.747 818.484 190.696ZM812.004 190.696C812.004 191.709 812.201 192.515 812.596 193.112C813.001 193.699 813.641 193.992 814.516 193.992C815.38 193.992 816.015 193.699 816.42 193.112C816.825 192.515 817.028 191.709 817.028 190.696C817.028 189.683 816.825 188.888 816.42 188.312C816.015 187.736 815.375 187.448 814.5 187.448C813.625 187.448 812.991 187.736 812.596 188.312C812.201 188.888 812.004 189.683 812.004 190.696ZM824.843 186.264C825.867 186.264 826.641 186.515 827.163 187.016C827.686 187.507 827.947 188.307 827.947 189.416V195H826.555V189.512C826.555 188.136 825.915 187.448 824.635 187.448C823.686 187.448 823.03 187.715 822.667 188.248C822.305 188.781 822.123 189.549 822.123 190.552V195H820.715V186.424H821.851L822.059 187.592H822.139C822.417 187.144 822.801 186.813 823.291 186.6C823.782 186.376 824.299 186.264 824.843 186.264Z" fill="#284162"/>
<mask id="path-15-inside-4_5534_52927" fill="white">
<path d="M691.215 235H830.215V255H691.215V235Z"/>
</mask>
<path d="M830.215 255V254H691.215V255V256H830.215V255Z" fill="#284162" mask="url(#path-15-inside-4_5534_52927)"/>
<path d="M692.767 251V239.576H694.207V249.72H699.199V251H692.767ZM701.685 239.208C701.899 239.208 702.085 239.283 702.245 239.432C702.416 239.571 702.501 239.795 702.501 240.104C702.501 240.403 702.416 240.627 702.245 240.776C702.085 240.925 701.899 241 701.685 241C701.451 241 701.253 240.925 701.093 240.776C700.933 240.627 700.853 240.403 700.853 240.104C700.853 239.795 700.933 239.571 701.093 239.432C701.253 239.283 701.451 239.208 701.685 239.208ZM702.373 242.424V251H700.965V242.424H702.373ZM708.402 242.264C709.138 242.264 709.768 242.424 710.29 242.744C710.824 243.064 711.229 243.517 711.506 244.104C711.794 244.68 711.938 245.357 711.938 246.136V246.984H706.066C706.088 247.955 706.333 248.696 706.802 249.208C707.282 249.709 707.949 249.96 708.802 249.96C709.346 249.96 709.826 249.912 710.242 249.816C710.669 249.709 711.106 249.56 711.554 249.368V250.6C711.117 250.792 710.685 250.931 710.258 251.016C709.832 251.112 709.325 251.16 708.738 251.16C707.928 251.16 707.208 250.995 706.578 250.664C705.96 250.333 705.474 249.843 705.122 249.192C704.781 248.531 704.61 247.725 704.61 246.776C704.61 245.837 704.765 245.032 705.074 244.36C705.394 243.688 705.837 243.171 706.402 242.808C706.978 242.445 707.645 242.264 708.402 242.264ZM708.386 243.416C707.714 243.416 707.181 243.635 706.786 244.072C706.402 244.499 706.173 245.096 706.098 245.864H710.466C710.456 245.139 710.285 244.552 709.954 244.104C709.624 243.645 709.101 243.416 708.386 243.416ZM718.25 242.264C719.274 242.264 720.047 242.515 720.57 243.016C721.092 243.507 721.354 244.307 721.354 245.416V251H719.962V245.512C719.962 244.136 719.322 243.448 718.042 243.448C717.092 243.448 716.436 243.715 716.074 244.248C715.711 244.781 715.53 245.549 715.53 246.552V251H714.122V242.424H715.258L715.466 243.592H715.546C715.823 243.144 716.207 242.813 716.698 242.6C717.188 242.376 717.706 242.264 718.25 242.264ZM731.209 251.16C730.142 251.16 729.289 250.792 728.649 250.056C728.009 249.309 727.689 248.2 727.689 246.728C727.689 245.256 728.009 244.147 728.649 243.4C729.299 242.643 730.158 242.264 731.225 242.264C731.886 242.264 732.425 242.387 732.841 242.632C733.267 242.877 733.614 243.176 733.881 243.528H733.977C733.966 243.389 733.945 243.187 733.913 242.92C733.891 242.643 733.881 242.424 733.881 242.264V238.84H735.289V251H734.153L733.945 249.848H733.881C733.625 250.211 733.283 250.52 732.857 250.776C732.43 251.032 731.881 251.16 731.209 251.16ZM731.433 249.992C732.339 249.992 732.974 249.747 733.337 249.256C733.71 248.755 733.897 248.003 733.897 247V246.744C733.897 245.677 733.721 244.861 733.369 244.296C733.017 243.72 732.366 243.432 731.417 243.432C730.659 243.432 730.089 243.736 729.705 244.344C729.331 244.941 729.145 245.747 729.145 246.76C729.145 247.784 729.331 248.579 729.705 249.144C730.089 249.709 730.665 249.992 731.433 249.992ZM741.324 242.264C742.06 242.264 742.69 242.424 743.212 242.744C743.746 243.064 744.151 243.517 744.428 244.104C744.716 244.68 744.86 245.357 744.86 246.136V246.984H738.988C739.01 247.955 739.255 248.696 739.724 249.208C740.204 249.709 740.871 249.96 741.724 249.96C742.268 249.96 742.748 249.912 743.164 249.816C743.591 249.709 744.028 249.56 744.476 249.368V250.6C744.039 250.792 743.607 250.931 743.18 251.016C742.754 251.112 742.247 251.16 741.66 251.16C740.85 251.16 740.13 250.995 739.5 250.664C738.882 250.333 738.396 249.843 738.044 249.192C737.703 248.531 737.532 247.725 737.532 246.776C737.532 245.837 737.687 245.032 737.996 244.36C738.316 243.688 738.759 243.171 739.324 242.808C739.9 242.445 740.567 242.264 741.324 242.264ZM741.308 243.416C740.636 243.416 740.103 243.635 739.708 244.072C739.324 244.499 739.095 245.096 739.02 245.864H743.388C743.378 245.139 743.207 244.552 742.876 244.104C742.546 243.645 742.023 243.416 741.308 243.416ZM755.328 242.264C756.352 242.264 757.125 242.515 757.648 243.016C758.171 243.507 758.432 244.307 758.432 245.416V251H757.04V245.512C757.04 244.136 756.4 243.448 755.12 243.448C754.171 243.448 753.515 243.715 753.152 244.248C752.789 244.781 752.608 245.549 752.608 246.552V251H751.2V242.424H752.336L752.544 243.592H752.624C752.901 243.144 753.285 242.813 753.776 242.6C754.267 242.376 754.784 242.264 755.328 242.264ZM764.338 242.28C765.384 242.28 766.157 242.509 766.658 242.968C767.16 243.427 767.41 244.157 767.41 245.16V251H766.386L766.114 249.784H766.05C765.677 250.253 765.282 250.6 764.866 250.824C764.461 251.048 763.896 251.16 763.17 251.16C762.392 251.16 761.746 250.957 761.234 250.552C760.722 250.136 760.466 249.491 760.466 248.616C760.466 247.763 760.802 247.107 761.474 246.648C762.146 246.179 763.181 245.923 764.578 245.88L766.034 245.832V245.32C766.034 244.605 765.88 244.109 765.57 243.832C765.261 243.555 764.824 243.416 764.258 243.416C763.81 243.416 763.384 243.485 762.978 243.624C762.573 243.752 762.194 243.901 761.842 244.072L761.41 243.016C761.784 242.813 762.226 242.643 762.738 242.504C763.25 242.355 763.784 242.28 764.338 242.28ZM764.754 246.856C763.688 246.899 762.946 247.069 762.53 247.368C762.125 247.667 761.922 248.088 761.922 248.632C761.922 249.112 762.066 249.464 762.354 249.688C762.653 249.912 763.032 250.024 763.49 250.024C764.216 250.024 764.818 249.827 765.298 249.432C765.778 249.027 766.018 248.408 766.018 247.576V246.808L764.754 246.856ZM771.947 251L768.699 242.424H770.203L772.027 247.48C772.113 247.715 772.203 247.976 772.299 248.264C772.395 248.552 772.481 248.829 772.555 249.096C772.63 249.352 772.683 249.571 772.715 249.752H772.779C772.822 249.571 772.881 249.347 772.955 249.08C773.041 248.813 773.131 248.536 773.227 248.248C773.334 247.96 773.425 247.704 773.499 247.48L775.323 242.424H776.827L773.563 251H771.947ZM778.904 239.208C779.118 239.208 779.304 239.283 779.464 239.432C779.635 239.571 779.72 239.795 779.72 240.104C779.72 240.403 779.635 240.627 779.464 240.776C779.304 240.925 779.118 241 778.904 241C778.67 241 778.472 240.925 778.312 240.776C778.152 240.627 778.072 240.403 778.072 240.104C778.072 239.795 778.152 239.571 778.312 239.432C778.472 239.283 778.67 239.208 778.904 239.208ZM779.592 242.424V251H778.184V242.424H779.592ZM785.349 242.264C785.915 242.264 786.421 242.371 786.869 242.584C787.328 242.797 787.717 243.123 788.037 243.56H788.117L788.309 242.424H789.429V251.144C789.429 252.371 789.115 253.293 788.485 253.912C787.867 254.531 786.901 254.84 785.589 254.84C784.331 254.84 783.301 254.659 782.501 254.296V253C783.344 253.448 784.4 253.672 785.669 253.672C786.405 253.672 786.981 253.453 787.397 253.016C787.824 252.589 788.037 252.003 788.037 251.256V250.92C788.037 250.792 788.043 250.611 788.053 250.376C788.064 250.131 788.075 249.96 788.085 249.864H788.021C787.445 250.728 786.56 251.16 785.365 251.16C784.256 251.16 783.387 250.771 782.757 249.992C782.139 249.213 781.829 248.125 781.829 246.728C781.829 245.363 782.139 244.28 782.757 243.48C783.387 242.669 784.251 242.264 785.349 242.264ZM785.541 243.448C784.827 243.448 784.272 243.736 783.877 244.312C783.483 244.877 783.285 245.688 783.285 246.744C783.285 247.8 783.477 248.611 783.861 249.176C784.256 249.731 784.827 250.008 785.573 250.008C786.437 250.008 787.067 249.779 787.461 249.32C787.856 248.851 788.053 248.099 788.053 247.064V246.728C788.053 245.555 787.851 244.717 787.445 244.216C787.04 243.704 786.405 243.448 785.541 243.448ZM795.401 242.28C796.446 242.28 797.22 242.509 797.721 242.968C798.222 243.427 798.473 244.157 798.473 245.16V251H797.449L797.177 249.784H797.113C796.74 250.253 796.345 250.6 795.929 250.824C795.524 251.048 794.958 251.16 794.233 251.16C793.454 251.16 792.809 250.957 792.297 250.552C791.785 250.136 791.529 249.491 791.529 248.616C791.529 247.763 791.865 247.107 792.537 246.648C793.209 246.179 794.244 245.923 795.641 245.88L797.097 245.832V245.32C797.097 244.605 796.942 244.109 796.633 243.832C796.324 243.555 795.886 243.416 795.321 243.416C794.873 243.416 794.446 243.485 794.041 243.624C793.636 243.752 793.257 243.901 792.905 244.072L792.473 243.016C792.846 242.813 793.289 242.643 793.801 242.504C794.313 242.355 794.846 242.28 795.401 242.28ZM795.817 246.856C794.75 246.899 794.009 247.069 793.593 247.368C793.188 247.667 792.985 248.088 792.985 248.632C792.985 249.112 793.129 249.464 793.417 249.688C793.716 249.912 794.094 250.024 794.553 250.024C795.278 250.024 795.881 249.827 796.361 249.432C796.841 249.027 797.081 248.408 797.081 247.576V246.808L795.817 246.856ZM803.986 250.008C804.199 250.008 804.418 249.992 804.642 249.96C804.866 249.917 805.047 249.875 805.186 249.832V250.904C805.036 250.979 804.823 251.037 804.546 251.08C804.268 251.133 804.002 251.16 803.746 251.16C803.298 251.16 802.882 251.085 802.498 250.936C802.124 250.776 801.82 250.504 801.586 250.12C801.351 249.736 801.234 249.197 801.234 248.504V243.512H800.018V242.84L801.25 242.28L801.81 240.456H802.642V242.424H805.122V243.512H802.642V248.472C802.642 248.995 802.764 249.384 803.01 249.64C803.266 249.885 803.591 250.008 803.986 250.008ZM807.623 239.208C807.836 239.208 808.023 239.283 808.183 239.432C808.354 239.571 808.439 239.795 808.439 240.104C808.439 240.403 808.354 240.627 808.183 240.776C808.023 240.925 807.836 241 807.623 241C807.388 241 807.191 240.925 807.031 240.776C806.871 240.627 806.791 240.403 806.791 240.104C806.791 239.795 806.871 239.571 807.031 239.432C807.191 239.283 807.388 239.208 807.623 239.208ZM808.311 242.424V251H806.903V242.424H808.311ZM818.484 246.696C818.484 248.115 818.121 249.213 817.396 249.992C816.681 250.771 815.711 251.16 814.484 251.16C813.727 251.16 813.049 250.989 812.452 250.648C811.865 250.296 811.401 249.789 811.06 249.128C810.719 248.456 810.548 247.645 810.548 246.696C810.548 245.277 810.905 244.184 811.62 243.416C812.335 242.648 813.305 242.264 814.532 242.264C815.311 242.264 815.993 242.44 816.58 242.792C817.177 243.133 817.641 243.635 817.972 244.296C818.313 244.947 818.484 245.747 818.484 246.696ZM812.004 246.696C812.004 247.709 812.201 248.515 812.596 249.112C813.001 249.699 813.641 249.992 814.516 249.992C815.38 249.992 816.015 249.699 816.42 249.112C816.825 248.515 817.028 247.709 817.028 246.696C817.028 245.683 816.825 244.888 816.42 244.312C816.015 243.736 815.375 243.448 814.5 243.448C813.625 243.448 812.991 243.736 812.596 244.312C812.201 244.888 812.004 245.683 812.004 246.696ZM824.843 242.264C825.867 242.264 826.641 242.515 827.163 243.016C827.686 243.507 827.947 244.307 827.947 245.416V251H826.555V245.512C826.555 244.136 825.915 243.448 824.635 243.448C823.686 243.448 823.03 243.715 822.667 244.248C822.305 244.781 822.123 245.549 822.123 246.552V251H820.715V242.424H821.851L822.059 243.592H822.139C822.417 243.144 822.801 242.813 823.291 242.6C823.782 242.376 824.299 242.264 824.843 242.264Z" fill="#284162"/>
<mask id="path-18-inside-5_5534_52927" fill="white">
<path d="M691.215 291H830.215V311H691.215V291Z"/>
</mask>
<path d="M830.215 311V310H691.215V311V312H830.215V311Z" fill="#284162" mask="url(#path-18-inside-5_5534_52927)"/>
<path d="M692.767 307V295.576H694.207V305.72H699.199V307H692.767ZM701.685 295.208C701.899 295.208 702.085 295.283 702.245 295.432C702.416 295.571 702.501 295.795 702.501 296.104C702.501 296.403 702.416 296.627 702.245 296.776C702.085 296.925 701.899 297 701.685 297C701.451 297 701.253 296.925 701.093 296.776C700.933 296.627 700.853 296.403 700.853 296.104C700.853 295.795 700.933 295.571 701.093 295.432C701.253 295.283 701.451 295.208 701.685 295.208ZM702.373 298.424V307H700.965V298.424H702.373ZM708.402 298.264C709.138 298.264 709.768 298.424 710.29 298.744C710.824 299.064 711.229 299.517 711.506 300.104C711.794 300.68 711.938 301.357 711.938 302.136V302.984H706.066C706.088 303.955 706.333 304.696 706.802 305.208C707.282 305.709 707.949 305.96 708.802 305.96C709.346 305.96 709.826 305.912 710.242 305.816C710.669 305.709 711.106 305.56 711.554 305.368V306.6C711.117 306.792 710.685 306.931 710.258 307.016C709.832 307.112 709.325 307.16 708.738 307.16C707.928 307.16 707.208 306.995 706.578 306.664C705.96 306.333 705.474 305.843 705.122 305.192C704.781 304.531 704.61 303.725 704.61 302.776C704.61 301.837 704.765 301.032 705.074 300.36C705.394 299.688 705.837 299.171 706.402 298.808C706.978 298.445 707.645 298.264 708.402 298.264ZM708.386 299.416C707.714 299.416 707.181 299.635 706.786 300.072C706.402 300.499 706.173 301.096 706.098 301.864H710.466C710.456 301.139 710.285 300.552 709.954 300.104C709.624 299.645 709.101 299.416 708.386 299.416ZM718.25 298.264C719.274 298.264 720.047 298.515 720.57 299.016C721.092 299.507 721.354 300.307 721.354 301.416V307H719.962V301.512C719.962 300.136 719.322 299.448 718.042 299.448C717.092 299.448 716.436 299.715 716.074 300.248C715.711 300.781 715.53 301.549 715.53 302.552V307H714.122V298.424H715.258L715.466 299.592H715.546C715.823 299.144 716.207 298.813 716.698 298.6C717.188 298.376 717.706 298.264 718.25 298.264ZM731.209 307.16C730.142 307.16 729.289 306.792 728.649 306.056C728.009 305.309 727.689 304.2 727.689 302.728C727.689 301.256 728.009 300.147 728.649 299.4C729.299 298.643 730.158 298.264 731.225 298.264C731.886 298.264 732.425 298.387 732.841 298.632C733.267 298.877 733.614 299.176 733.881 299.528H733.977C733.966 299.389 733.945 299.187 733.913 298.92C733.891 298.643 733.881 298.424 733.881 298.264V294.84H735.289V307H734.153L733.945 305.848H733.881C733.625 306.211 733.283 306.52 732.857 306.776C732.43 307.032 731.881 307.16 731.209 307.16ZM731.433 305.992C732.339 305.992 732.974 305.747 733.337 305.256C733.71 304.755 733.897 304.003 733.897 303V302.744C733.897 301.677 733.721 300.861 733.369 300.296C733.017 299.72 732.366 299.432 731.417 299.432C730.659 299.432 730.089 299.736 729.705 300.344C729.331 300.941 729.145 301.747 729.145 302.76C729.145 303.784 729.331 304.579 729.705 305.144C730.089 305.709 730.665 305.992 731.433 305.992ZM741.324 298.264C742.06 298.264 742.69 298.424 743.212 298.744C743.746 299.064 744.151 299.517 744.428 300.104C744.716 300.68 744.86 301.357 744.86 302.136V302.984H738.988C739.01 303.955 739.255 304.696 739.724 305.208C740.204 305.709 740.871 305.96 741.724 305.96C742.268 305.96 742.748 305.912 743.164 305.816C743.591 305.709 744.028 305.56 744.476 305.368V306.6C744.039 306.792 743.607 306.931 743.18 307.016C742.754 307.112 742.247 307.16 741.66 307.16C740.85 307.16 740.13 306.995 739.5 306.664C738.882 306.333 738.396 305.843 738.044 305.192C737.703 304.531 737.532 303.725 737.532 302.776C737.532 301.837 737.687 301.032 737.996 300.36C738.316 299.688 738.759 299.171 739.324 298.808C739.9 298.445 740.567 298.264 741.324 298.264ZM741.308 299.416C740.636 299.416 740.103 299.635 739.708 300.072C739.324 300.499 739.095 301.096 739.02 301.864H743.388C743.378 301.139 743.207 300.552 742.876 300.104C742.546 299.645 742.023 299.416 741.308 299.416ZM755.328 298.264C756.352 298.264 757.125 298.515 757.648 299.016C758.171 299.507 758.432 300.307 758.432 301.416V307H757.04V301.512C757.04 300.136 756.4 299.448 755.12 299.448C754.171 299.448 753.515 299.715 753.152 300.248C752.789 300.781 752.608 301.549 752.608 302.552V307H751.2V298.424H752.336L752.544 299.592H752.624C752.901 299.144 753.285 298.813 753.776 298.6C754.267 298.376 754.784 298.264 755.328 298.264ZM764.338 298.28C765.384 298.28 766.157 298.509 766.658 298.968C767.16 299.427 767.41 300.157 767.41 301.16V307H766.386L766.114 305.784H766.05C765.677 306.253 765.282 306.6 764.866 306.824C764.461 307.048 763.896 307.16 763.17 307.16C762.392 307.16 761.746 306.957 761.234 306.552C760.722 306.136 760.466 305.491 760.466 304.616C760.466 303.763 760.802 303.107 761.474 302.648C762.146 302.179 763.181 301.923 764.578 301.88L766.034 301.832V301.32C766.034 300.605 765.88 300.109 765.57 299.832C765.261 299.555 764.824 299.416 764.258 299.416C763.81 299.416 763.384 299.485 762.978 299.624C762.573 299.752 762.194 299.901 761.842 300.072L761.41 299.016C761.784 298.813 762.226 298.643 762.738 298.504C763.25 298.355 763.784 298.28 764.338 298.28ZM764.754 302.856C763.688 302.899 762.946 303.069 762.53 303.368C762.125 303.667 761.922 304.088 761.922 304.632C761.922 305.112 762.066 305.464 762.354 305.688C762.653 305.912 763.032 306.024 763.49 306.024C764.216 306.024 764.818 305.827 765.298 305.432C765.778 305.027 766.018 304.408 766.018 303.576V302.808L764.754 302.856ZM771.947 307L768.699 298.424H770.203L772.027 303.48C772.113 303.715 772.203 303.976 772.299 304.264C772.395 304.552 772.481 304.829 772.555 305.096C772.63 305.352 772.683 305.571 772.715 305.752H772.779C772.822 305.571 772.881 305.347 772.955 305.08C773.041 304.813 773.131 304.536 773.227 304.248C773.334 303.96 773.425 303.704 773.499 303.48L775.323 298.424H776.827L773.563 307H771.947ZM778.904 295.208C779.118 295.208 779.304 295.283 779.464 295.432C779.635 295.571 779.72 295.795 779.72 296.104C779.72 296.403 779.635 296.627 779.464 296.776C779.304 296.925 779.118 297 778.904 297C778.67 297 778.472 296.925 778.312 296.776C778.152 296.627 778.072 296.403 778.072 296.104C778.072 295.795 778.152 295.571 778.312 295.432C778.472 295.283 778.67 295.208 778.904 295.208ZM779.592 298.424V307H778.184V298.424H779.592ZM785.349 298.264C785.915 298.264 786.421 298.371 786.869 298.584C787.328 298.797 787.717 299.123 788.037 299.56H788.117L788.309 298.424H789.429V307.144C789.429 308.371 789.115 309.293 788.485 309.912C787.867 310.531 786.901 310.84 785.589 310.84C784.331 310.84 783.301 310.659 782.501 310.296V309C783.344 309.448 784.4 309.672 785.669 309.672C786.405 309.672 786.981 309.453 787.397 309.016C787.824 308.589 788.037 308.003 788.037 307.256V306.92C788.037 306.792 788.043 306.611 788.053 306.376C788.064 306.131 788.075 305.96 788.085 305.864H788.021C787.445 306.728 786.56 307.16 785.365 307.16C784.256 307.16 783.387 306.771 782.757 305.992C782.139 305.213 781.829 304.125 781.829 302.728C781.829 301.363 782.139 300.28 782.757 299.48C783.387 298.669 784.251 298.264 785.349 298.264ZM785.541 299.448C784.827 299.448 784.272 299.736 783.877 300.312C783.483 300.877 783.285 301.688 783.285 302.744C783.285 303.8 783.477 304.611 783.861 305.176C784.256 305.731 784.827 306.008 785.573 306.008C786.437 306.008 787.067 305.779 787.461 305.32C787.856 304.851 788.053 304.099 788.053 303.064V302.728C788.053 301.555 787.851 300.717 787.445 300.216C787.04 299.704 786.405 299.448 785.541 299.448ZM795.401 298.28C796.446 298.28 797.22 298.509 797.721 298.968C798.222 299.427 798.473 300.157 798.473 301.16V307H797.449L797.177 305.784H797.113C796.74 306.253 796.345 306.6 795.929 306.824C795.524 307.048 794.958 307.16 794.233 307.16C793.454 307.16 792.809 306.957 792.297 306.552C791.785 306.136 791.529 305.491 791.529 304.616C791.529 303.763 791.865 303.107 792.537 302.648C793.209 302.179 794.244 301.923 795.641 301.88L797.097 301.832V301.32C797.097 300.605 796.942 300.109 796.633 299.832C796.324 299.555 795.886 299.416 795.321 299.416C794.873 299.416 794.446 299.485 794.041 299.624C793.636 299.752 793.257 299.901 792.905 300.072L792.473 299.016C792.846 298.813 793.289 298.643 793.801 298.504C794.313 298.355 794.846 298.28 795.401 298.28ZM795.817 302.856C794.75 302.899 794.009 303.069 793.593 303.368C793.188 303.667 792.985 304.088 792.985 304.632C792.985 305.112 793.129 305.464 793.417 305.688C793.716 305.912 794.094 306.024 794.553 306.024C795.278 306.024 795.881 305.827 796.361 305.432C796.841 305.027 797.081 304.408 797.081 303.576V302.808L795.817 302.856ZM803.986 306.008C804.199 306.008 804.418 305.992 804.642 305.96C804.866 305.917 805.047 305.875 805.186 305.832V306.904C805.036 306.979 804.823 307.037 804.546 307.08C804.268 307.133 804.002 307.16 803.746 307.16C803.298 307.16 802.882 307.085 802.498 306.936C802.124 306.776 801.82 306.504 801.586 306.12C801.351 305.736 801.234 305.197 801.234 304.504V299.512H800.018V298.84L801.25 298.28L801.81 296.456H802.642V298.424H805.122V299.512H802.642V304.472C802.642 304.995 802.764 305.384 803.01 305.64C803.266 305.885 803.591 306.008 803.986 306.008ZM807.623 295.208C807.836 295.208 808.023 295.283 808.183 295.432C808.354 295.571 808.439 295.795 808.439 296.104C808.439 296.403 808.354 296.627 808.183 296.776C808.023 296.925 807.836 297 807.623 297C807.388 297 807.191 296.925 807.031 296.776C806.871 296.627 806.791 296.403 806.791 296.104C806.791 295.795 806.871 295.571 807.031 295.432C807.191 295.283 807.388 295.208 807.623 295.208ZM808.311 298.424V307H806.903V298.424H808.311ZM818.484 302.696C818.484 304.115 818.121 305.213 817.396 305.992C816.681 306.771 815.711 307.16 814.484 307.16C813.727 307.16 813.049 306.989 812.452 306.648C811.865 306.296 811.401 305.789 811.06 305.128C810.719 304.456 810.548 303.645 810.548 302.696C810.548 301.277 810.905 300.184 811.62 299.416C812.335 298.648 813.305 298.264 814.532 298.264C815.311 298.264 815.993 298.44 816.58 298.792C817.177 299.133 817.641 299.635 817.972 300.296C818.313 300.947 818.484 301.747 818.484 302.696ZM812.004 302.696C812.004 303.709 812.201 304.515 812.596 305.112C813.001 305.699 813.641 305.992 814.516 305.992C815.38 305.992 816.015 305.699 816.42 305.112C816.825 304.515 817.028 303.709 817.028 302.696C817.028 301.683 816.825 300.888 816.42 300.312C816.015 299.736 815.375 299.448 814.5 299.448C813.625 299.448 812.991 299.736 812.596 300.312C812.201 300.888 812.004 301.683 812.004 302.696ZM824.843 298.264C825.867 298.264 826.641 298.515 827.163 299.016C827.686 299.507 827.947 300.307 827.947 301.416V307H826.555V301.512C826.555 300.136 825.915 299.448 824.635 299.448C823.686 299.448 823.03 299.715 822.667 300.248C822.305 300.781 822.123 301.549 822.123 302.552V307H820.715V298.424H821.851L822.059 299.592H822.139C822.417 299.144 822.801 298.813 823.291 298.6C823.782 298.376 824.299 298.264 824.843 298.264Z" fill="#284162"/>
</g>
<rect x="614" y="245" width="33" height="1" fill="#C54600"/>
<g clip-path="url(#clip0_5534_52927)">
<rect x="614" y="233" width="24" height="24" rx="12" fill="#C54600"/>
<path d="M625.978 249.119C625.342 249.119 624.775 249.01 624.278 248.791C623.784 248.57 623.393 248.266 623.106 247.879C622.822 247.49 622.676 247.041 622.667 246.533H624.525C624.536 246.746 624.606 246.933 624.734 247.095C624.865 247.254 625.038 247.378 625.254 247.466C625.47 247.554 625.713 247.598 625.982 247.598C626.264 247.598 626.512 247.548 626.728 247.449C626.944 247.349 627.113 247.212 627.235 247.036C627.357 246.859 627.419 246.656 627.419 246.426C627.419 246.193 627.353 245.987 627.222 245.808C627.095 245.626 626.91 245.484 626.669 245.382C626.43 245.28 626.146 245.229 625.816 245.229H625.002V243.874H625.816C626.095 243.874 626.34 243.825 626.553 243.729C626.769 243.632 626.937 243.499 627.056 243.328C627.176 243.155 627.235 242.953 627.235 242.723C627.235 242.504 627.183 242.312 627.078 242.148C626.975 241.98 626.83 241.849 626.643 241.756C626.458 241.662 626.242 241.615 625.995 241.615C625.745 241.615 625.517 241.661 625.309 241.751C625.102 241.839 624.936 241.966 624.811 242.131C624.686 242.295 624.619 242.489 624.61 242.71H622.842C622.85 242.207 622.994 241.764 623.272 241.381C623.551 240.997 623.926 240.697 624.397 240.482C624.872 240.263 625.407 240.153 626.004 240.153C626.606 240.153 627.133 240.263 627.585 240.482C628.036 240.7 628.387 240.996 628.637 241.368C628.89 241.737 629.015 242.152 629.012 242.612C629.015 243.101 628.863 243.509 628.556 243.835C628.252 244.162 627.856 244.369 627.367 244.457V244.526C628.009 244.608 628.498 244.831 628.833 245.195C629.171 245.555 629.339 246.007 629.336 246.55C629.339 247.047 629.195 247.489 628.906 247.875C628.619 248.261 628.222 248.565 627.717 248.787C627.211 249.009 626.632 249.119 625.978 249.119Z" fill="white"/>
</g>
<rect x="646.739" y="152" width="0.695139" height="186" fill="#C54600"/>
<g clip-path="url(#clip1_5534_52927)">
<rect x="235" y="20" width="1" height="82" fill="#C54600"/>
<g clip-path="url(#clip2_5534_52927)">
<rect x="223" y="20" width="24" height="24" rx="12" fill="#C54600"/>
<path d="M236.83 26.8182V37H234.677V28.8615H234.618L232.286 30.3232V28.4141L234.807 26.8182H236.83Z" fill="white"/>
</g>
</g>
<g clip-path="url(#clip3_5534_52927)">
<rect x="404" y="20" width="1" height="82" fill="#C54600"/>
<g clip-path="url(#clip4_5534_52927)">
<rect x="392" y="20" width="24" height="24" rx="12" fill="#C54600"/>
<path d="M400.416 37V35.4489L404.04 32.093C404.349 31.7947 404.607 31.5263 404.816 31.2876C405.028 31.049 405.189 30.8153 405.298 30.5866C405.408 30.3546 405.462 30.1044 405.462 29.8359C405.462 29.5376 405.394 29.2808 405.258 29.0653C405.123 28.8466 404.937 28.6792 404.702 28.5632C404.466 28.4439 404.199 28.3842 403.901 28.3842C403.59 28.3842 403.318 28.4472 403.086 28.5732C402.854 28.6991 402.675 28.8797 402.549 29.1151C402.423 29.3504 402.36 29.6304 402.36 29.9553H400.317C400.317 29.2891 400.467 28.7107 400.769 28.2202C401.071 27.7296 401.493 27.3501 402.037 27.0817C402.58 26.8132 403.207 26.679 403.916 26.679C404.645 26.679 405.28 26.8082 405.82 27.0668C406.364 27.322 406.786 27.6766 407.088 28.1307C407.39 28.5848 407.54 29.1051 407.54 29.6918C407.54 30.0762 407.464 30.4557 407.312 30.8303C407.163 31.2048 406.896 31.6207 406.511 32.0781C406.127 32.5322 405.585 33.0774 404.886 33.7138L403.399 35.1705V35.2401H407.675V37H400.416Z" fill="white"/>
</g>
</g>
<g clip-path="url(#clip5_5534_52927)">
<rect x="802" y="20" width="1" height="82" fill="#C54600"/>
<g clip-path="url(#clip6_5534_52927)">
<rect x="790" y="20" width="24" height="24" rx="12" fill="#C54600"/>
<path d="M797.927 35.2102V33.5149L802.178 26.8182H803.639V29.1648H802.774L800.095 33.4055V33.4851H806.135V35.2102H797.927ZM802.814 37V34.6932L802.854 33.9425V26.8182H804.872V37H802.814Z" fill="white"/>
</g>
</g>
<g clip-path="url(#clip7_5534_52927)">
<rect x="937" y="20" width="1" height="82" fill="#C54600"/>
<g clip-path="url(#clip8_5534_52927)">
<rect x="925" y="20" width="24" height="24" rx="12" fill="#C54600"/>
<path d="M937.032 37.1392C936.33 37.1392 935.703 37.0099 935.153 36.7514C934.606 36.4929 934.172 36.1366 933.85 35.6825C933.529 35.2285 933.362 34.7081 933.348 34.1214H935.436C935.46 34.5159 935.625 34.8357 935.934 35.081C936.242 35.3262 936.608 35.4489 937.032 35.4489C937.37 35.4489 937.669 35.3743 937.927 35.2251C938.189 35.0727 938.393 34.8622 938.539 34.5938C938.688 34.322 938.762 34.0104 938.762 33.6591C938.762 33.3011 938.686 32.9863 938.534 32.7145C938.385 32.4427 938.177 32.2306 937.912 32.0781C937.647 31.9257 937.344 31.8478 937.002 31.8445C936.704 31.8445 936.414 31.9058 936.132 32.0284C935.854 32.151 935.637 32.3184 935.481 32.5305L933.567 32.1875L934.049 26.8182H940.274V28.5781H935.824L935.561 31.1286H935.62C935.799 30.8767 936.069 30.6679 936.431 30.5021C936.792 30.3364 937.196 30.2536 937.644 30.2536C938.257 30.2536 938.804 30.3977 939.284 30.6861C939.765 30.9744 940.145 31.3705 940.423 31.8743C940.701 32.3748 940.839 32.9515 940.836 33.6044C940.839 34.2905 940.68 34.9003 940.358 35.4339C940.04 35.9643 939.594 36.3819 939.021 36.6868C938.451 36.9884 937.788 37.1392 937.032 37.1392Z" fill="white"/>
</g>
</g>
<g clip-path="url(#clip9_5534_52927)">
<rect x="970" y="193" width="48" height="1" fill="#C54600"/>
<g clip-path="url(#clip10_5534_52927)">
<rect x="994" y="181" width="24" height="24" rx="12" fill="#C54600"/>
<path d="M1006.1 197.119C1005.65 197.116 1005.21 197.041 1004.8 196.893C1004.38 196.746 1004.01 196.506 1003.68 196.173C1003.35 195.841 1003.09 195.401 1002.9 194.852C1002.71 194.304 1002.61 193.631 1002.61 192.832C1002.61 192.099 1002.7 191.445 1002.86 190.868C1003.03 190.288 1003.27 189.797 1003.58 189.393C1003.89 188.99 1004.26 188.683 1004.7 188.473C1005.13 188.26 1005.62 188.153 1006.16 188.153C1006.74 188.153 1007.26 188.267 1007.7 188.494C1008.15 188.719 1008.51 189.024 1008.78 189.411C1009.05 189.797 1009.21 190.23 1009.27 190.71H1007.45C1007.38 190.406 1007.23 190.168 1007 189.994C1006.78 189.821 1006.5 189.734 1006.16 189.734C1005.59 189.734 1005.16 189.982 1004.86 190.476C1004.57 190.97 1004.42 191.642 1004.42 192.491H1004.48C1004.61 192.233 1004.78 192.013 1005 191.831C1005.23 191.646 1005.48 191.506 1005.77 191.409C1006.05 191.31 1006.36 191.26 1006.68 191.26C1007.19 191.26 1007.65 191.382 1008.06 191.626C1008.46 191.868 1008.78 192.2 1009.01 192.624C1009.24 193.047 1009.36 193.531 1009.36 194.077C1009.36 194.668 1009.22 195.193 1008.95 195.653C1008.67 196.114 1008.29 196.474 1007.8 196.736C1007.31 196.994 1006.74 197.122 1006.1 197.119ZM1006.09 195.67C1006.37 195.67 1006.63 195.602 1006.85 195.466C1007.07 195.33 1007.25 195.145 1007.38 194.912C1007.51 194.679 1007.57 194.418 1007.57 194.128C1007.57 193.838 1007.51 193.578 1007.38 193.348C1007.25 193.118 1007.08 192.935 1006.86 192.798C1006.64 192.662 1006.38 192.594 1006.1 192.594C1005.89 192.594 1005.69 192.634 1005.51 192.713C1005.33 192.793 1005.17 192.903 1005.03 193.045C1004.9 193.187 1004.8 193.352 1004.72 193.54C1004.64 193.724 1004.6 193.922 1004.6 194.132C1004.6 194.413 1004.67 194.67 1004.8 194.903C1004.93 195.136 1005.1 195.322 1005.32 195.462C1005.55 195.601 1005.8 195.67 1006.09 195.67Z" fill="white"/>
</g>
</g>
<defs>
<filter id="filter0_d_5534_52927" x="654.215" y="142" width="337.5" height="206" filterUnits="userSpaceOnUse" color-interpolation-filters="sRGB">
<feFlood flood-opacity="0" result="BackgroundImageFix"/>
<feColorMatrix in="SourceAlpha" type="matrix" values="0 0 0 0 0 0 0 0 0 0 0 0 0 0 0 0 0 0 127 0" result="hardAlpha"/>
<feOffset/>
<feGaussianBlur stdDeviation="5"/>
<feComposite in2="hardAlpha" operator="out"/>
<feColorMatrix type="matrix" values="0 0 0 0 0 0 0 0 0 0 0 0 0 0 0 0 0 0 0.25 0"/>
<feBlend mode="normal" in2="BackgroundImageFix" result="effect1_dropShadow_5534_52927"/>
<feBlend mode="normal" in="SourceGraphic" in2="effect1_dropShadow_5534_52927" result="shape"/>
</filter>
<clipPath id="clip0_5534_52927">
<rect x="614" y="233" width="24" height="24" rx="12" fill="white"/>
</clipPath>
<clipPath id="clip1_5534_52927">
<rect width="24" height="82" fill="white" transform="translate(223 20)"/>
</clipPath>
<clipPath id="clip2_5534_52927">
<rect x="223" y="20" width="24" height="24" rx="12" fill="white"/>
</clipPath>
<clipPath id="clip3_5534_52927">
<rect width="24" height="82" fill="white" transform="translate(392 20)"/>
</clipPath>
<clipPath id="clip4_5534_52927">
<rect x="392" y="20" width="24" height="24" rx="12" fill="white"/>
</clipPath>
<clipPath id="clip5_5534_52927">
<rect width="24" height="82" fill="white" transform="translate(790 20)"/>
</clipPath>
<clipPath id="clip6_5534_52927">
<rect x="790" y="20" width="24" height="24" rx="12" fill="white"/>
</clipPath>
<clipPath id="clip7_5534_52927">
<rect width="24" height="82" fill="white" transform="translate(925 20)"/>
</clipPath>
<clipPath id="clip8_5534_52927">
<rect x="925" y="20" width="24" height="24" rx="12" fill="white"/>
</clipPath>
<clipPath id="clip9_5534_52927">
<rect width="48" height="24" fill="white" transform="translate(970 181)"/>
</clipPath>
<clipPath id="clip10_5534_52927">
<rect x="994" y="181" width="24" height="24" rx="12" fill="white"/>
</clipPath>
</defs>
</svg>
