<svg width="781" height="96" viewBox="0 0 781 96" fill="none" xmlns="http://www.w3.org/2000/svg">
<path d="M53.7109 72.5C53.7109 73.2031 53.1641 73.75 52.5 73.75H40.5078L44.6094 77.8906C45.1172 78.3594 45.1172 79.1797 44.6094 79.6484C44.375 79.8828 44.0625 80 43.75 80C43.3984 80 43.0859 79.8828 42.8516 79.6484L36.6016 73.3984C36.0938 72.9297 36.0938 72.1094 36.6016 71.6406L42.8516 65.3906C43.3203 64.8828 44.1406 64.8828 44.6094 65.3906C45.1172 65.8594 45.1172 66.6797 44.6094 67.1484L40.5078 71.25H52.5C53.1641 71.25 53.7109 71.8359 53.7109 72.5Z" fill="#2B4380"/>
<path d="M70.7257 65.72C72.5924 65.72 73.9524 66.1 74.8057 66.86C75.659 67.6067 76.0857 68.6533 76.0857 70C76.0857 70.6 75.9857 71.1733 75.7857 71.72C75.599 72.2667 75.2857 72.76 74.8457 73.2C74.4057 73.6267 73.819 73.9667 73.0857 74.22C72.3657 74.46 71.479 74.58 70.4257 74.58H68.8857V80H66.7257V65.72H70.7257ZM70.5657 67.54H68.8857V72.76H70.1857C70.999 72.76 71.679 72.6733 72.2257 72.5C72.7724 72.3133 73.179 72.0267 73.4457 71.64C73.7257 71.24 73.8657 70.72 73.8657 70.08C73.8657 69.2267 73.599 68.5933 73.0657 68.18C72.5457 67.7533 71.7124 67.54 70.5657 67.54ZM84.0518 69.02C84.2384 69.02 84.4451 69.0333 84.6718 69.06C84.8984 69.0733 85.0851 69.0933 85.2318 69.12L85.0118 71.1C84.8651 71.06 84.6918 71.0267 84.4918 71C84.2918 70.9733 84.1051 70.96 83.9318 70.96C83.5318 70.96 83.1451 71.04 82.7718 71.2C82.4118 71.3467 82.0851 71.5667 81.7918 71.86C81.4984 72.14 81.2651 72.4867 81.0918 72.9C80.9318 73.3133 80.8518 73.7867 80.8518 74.32V80H78.7318V69.22H80.4118L80.6918 71.14H80.7718C80.9984 70.7533 81.2718 70.4 81.5918 70.08C81.9118 69.76 82.2784 69.5067 82.6918 69.32C83.1051 69.12 83.5584 69.02 84.0518 69.02ZM91.0772 69.02C92.0239 69.02 92.8372 69.22 93.5172 69.62C94.1972 70.0067 94.7172 70.5667 95.0772 71.3C95.4506 72.0333 95.6372 72.9 95.6372 73.9V75.06H88.3972C88.4239 76.1667 88.7106 77.0133 89.2572 77.6C89.8172 78.1867 90.5972 78.48 91.5972 78.48C92.2906 78.48 92.9039 78.42 93.4372 78.3C93.9839 78.1667 94.5439 77.9733 95.1172 77.72V79.48C94.5839 79.72 94.0372 79.9 93.4772 80.02C92.9306 80.14 92.2772 80.2 91.5172 80.2C90.4772 80.2 89.5572 79.9933 88.7572 79.58C87.9572 79.1667 87.3306 78.5533 86.8772 77.74C86.4372 76.9133 86.2172 75.9 86.2172 74.7C86.2172 73.4867 86.4172 72.46 86.8172 71.62C87.2306 70.78 87.7972 70.14 88.5172 69.7C89.2506 69.2467 90.1039 69.02 91.0772 69.02ZM91.0772 70.66C90.3172 70.66 89.7039 70.9067 89.2372 71.4C88.7839 71.8933 88.5172 72.5933 88.4372 73.5H93.5172C93.5172 72.94 93.4306 72.4467 93.2572 72.02C93.0839 71.5933 92.8172 71.26 92.4572 71.02C92.0972 70.78 91.6372 70.66 91.0772 70.66ZM94.2772 64.88C94.1306 65.0667 93.9306 65.2933 93.6772 65.56C93.4372 65.8267 93.1639 66.1067 92.8572 66.4C92.5639 66.68 92.2706 66.9533 91.9772 67.22C91.6839 67.4733 91.4172 67.6933 91.1772 67.88H89.7772V67.64C89.9772 67.3867 90.2039 67.0867 90.4572 66.74C90.7106 66.3933 90.9572 66.04 91.1972 65.68C91.4372 65.3067 91.6372 64.9733 91.7972 64.68H94.2772V64.88ZM102.623 80.2C101.636 80.2 100.769 80.0067 100.023 79.62C99.2759 79.2333 98.6959 78.6333 98.2826 77.82C97.8692 76.9933 97.6626 75.9467 97.6626 74.68C97.6626 73.3467 97.8826 72.2667 98.3226 71.44C98.7759 70.6133 99.3826 70.0067 100.143 69.62C100.916 69.22 101.796 69.02 102.783 69.02C103.383 69.02 103.943 69.0867 104.463 69.22C104.996 69.34 105.436 69.48 105.783 69.64L105.143 71.36C104.769 71.2133 104.369 71.0867 103.943 70.98C103.529 70.8733 103.136 70.82 102.763 70.82C102.096 70.82 101.543 70.9667 101.103 71.26C100.676 71.54 100.356 71.9667 100.143 72.54C99.9426 73.1 99.8426 73.8067 99.8426 74.66C99.8426 75.4733 99.9492 76.16 100.163 76.72C100.376 77.28 100.689 77.7067 101.103 78C101.529 78.28 102.056 78.42 102.683 78.42C103.283 78.42 103.809 78.3533 104.263 78.22C104.716 78.0867 105.143 77.9133 105.543 77.7V79.54C105.156 79.7667 104.736 79.9333 104.283 80.04C103.829 80.1467 103.276 80.2 102.623 80.2ZM112.327 69.02C113.274 69.02 114.087 69.22 114.767 69.62C115.447 70.0067 115.967 70.5667 116.327 71.3C116.701 72.0333 116.887 72.9 116.887 73.9V75.06H109.647C109.674 76.1667 109.961 77.0133 110.507 77.6C111.067 78.1867 111.847 78.48 112.847 78.48C113.541 78.48 114.154 78.42 114.687 78.3C115.234 78.1667 115.794 77.9733 116.367 77.72V79.48C115.834 79.72 115.287 79.9 114.727 80.02C114.181 80.14 113.527 80.2 112.767 80.2C111.727 80.2 110.807 79.9933 110.007 79.58C109.207 79.1667 108.581 78.5533 108.127 77.74C107.687 76.9133 107.467 75.9 107.467 74.7C107.467 73.4867 107.667 72.46 108.067 71.62C108.481 70.78 109.047 70.14 109.767 69.7C110.501 69.2467 111.354 69.02 112.327 69.02ZM112.327 70.66C111.567 70.66 110.954 70.9067 110.487 71.4C110.034 71.8933 109.767 72.5933 109.687 73.5H114.767C114.767 72.94 114.681 72.4467 114.507 72.02C114.334 71.5933 114.067 71.26 113.707 71.02C113.347 70.78 112.887 70.66 112.327 70.66ZM115.527 64.88C115.381 65.0667 115.181 65.2933 114.927 65.56C114.687 65.8267 114.414 66.1067 114.107 66.4C113.814 66.68 113.521 66.9533 113.227 67.22C112.934 67.4733 112.667 67.6933 112.427 67.88H111.027V67.64C111.227 67.3867 111.454 67.0867 111.707 66.74C111.961 66.3933 112.207 66.04 112.447 65.68C112.687 65.3067 112.887 64.9733 113.047 64.68H115.527V64.88ZM123.233 80.2C121.939 80.2 120.893 79.7333 120.093 78.8C119.306 77.8667 118.913 76.48 118.913 74.64C118.913 72.7867 119.313 71.3867 120.113 70.44C120.913 69.4933 121.966 69.02 123.273 69.02C123.819 69.02 124.293 69.0933 124.693 69.24C125.106 69.3733 125.459 69.56 125.753 69.8C126.059 70.04 126.319 70.3067 126.533 70.6H126.653C126.626 70.4133 126.593 70.1467 126.553 69.8C126.513 69.44 126.493 69.12 126.493 68.84V64.8H128.613V80H126.953L126.593 78.56H126.493C126.293 78.8667 126.039 79.1467 125.733 79.4C125.439 79.64 125.086 79.8333 124.673 79.98C124.259 80.1267 123.779 80.2 123.233 80.2ZM123.733 78.46C124.773 78.46 125.506 78.1733 125.933 77.6C126.359 77.0133 126.573 76.14 126.573 74.98V74.66C126.573 73.3933 126.366 72.4267 125.953 71.76C125.553 71.0933 124.806 70.76 123.713 70.76C122.846 70.76 122.193 71.1133 121.753 71.82C121.313 72.5133 121.093 73.4667 121.093 74.68C121.093 75.8933 121.313 76.8267 121.753 77.48C122.193 78.1333 122.853 78.46 123.733 78.46ZM136.175 69.02C137.122 69.02 137.935 69.22 138.615 69.62C139.295 70.0067 139.815 70.5667 140.175 71.3C140.548 72.0333 140.735 72.9 140.735 73.9V75.06H133.495C133.522 76.1667 133.808 77.0133 134.355 77.6C134.915 78.1867 135.695 78.48 136.695 78.48C137.388 78.48 138.002 78.42 138.535 78.3C139.082 78.1667 139.642 77.9733 140.215 77.72V79.48C139.682 79.72 139.135 79.9 138.575 80.02C138.028 80.14 137.375 80.2 136.615 80.2C135.575 80.2 134.655 79.9933 133.855 79.58C133.055 79.1667 132.428 78.5533 131.975 77.74C131.535 76.9133 131.315 75.9 131.315 74.7C131.315 73.4867 131.515 72.46 131.915 71.62C132.328 70.78 132.895 70.14 133.615 69.7C134.348 69.2467 135.202 69.02 136.175 69.02ZM136.175 70.66C135.415 70.66 134.802 70.9067 134.335 71.4C133.882 71.8933 133.615 72.5933 133.535 73.5H138.615C138.615 72.94 138.528 72.4467 138.355 72.02C138.182 71.5933 137.915 71.26 137.555 71.02C137.195 70.78 136.735 70.66 136.175 70.66ZM148.84 69.02C150.094 69.02 151.054 69.3333 151.72 69.96C152.387 70.5867 152.72 71.5933 152.72 72.98V80H150.62V73.28C150.62 72.44 150.44 71.8133 150.08 71.4C149.734 70.9733 149.174 70.76 148.4 70.76C147.307 70.76 146.547 71.0867 146.12 71.74C145.707 72.3933 145.5 73.3333 145.5 74.56V80H143.38V69.22H145.06L145.36 70.66H145.48C145.72 70.2867 146.014 69.98 146.36 69.74C146.707 69.5 147.094 69.32 147.52 69.2C147.947 69.08 148.387 69.02 148.84 69.02ZM159.858 78.48C160.138 78.48 160.425 78.4533 160.718 78.4C161.011 78.3467 161.265 78.2867 161.478 78.22V79.82C161.251 79.9267 160.945 80.0133 160.558 80.08C160.171 80.16 159.785 80.2 159.398 80.2C158.811 80.2 158.271 80.1 157.778 79.9C157.298 79.7 156.911 79.3533 156.618 78.86C156.325 78.3667 156.178 77.68 156.178 76.8V70.84H154.678V69.88L156.258 69.08L156.998 66.8H158.298V69.22H161.378V70.84H158.298V76.76C158.298 77.3467 158.438 77.78 158.718 78.06C159.011 78.34 159.391 78.48 159.858 78.48Z" fill="#2B4380"/>
<path d="M64.8257 82.5H161.978V83.5H64.8257V82.5Z" fill="#2B4380"/>
<path d="M214.777 79.75H213.057V69.77C213.057 69.1967 213.064 68.7367 213.077 68.39C213.091 68.0433 213.111 67.6833 213.137 67.31C212.924 67.5233 212.731 67.7033 212.557 67.85C212.384 67.9967 212.164 68.1833 211.897 68.41L210.377 69.65L209.457 68.47L213.317 65.47H214.777V79.75Z" fill="#26374A"/>
<path d="M207.677 82.25H219.117V83.25H207.677V82.25Z" fill="#26374A"/>
<path d="M269.727 77.24C269.727 76.688 269.877 76.304 270.177 76.088C270.477 75.86 270.843 75.746 271.275 75.746C271.695 75.746 272.055 75.86 272.355 76.088C272.655 76.304 272.805 76.688 272.805 77.24C272.805 77.768 272.655 78.152 272.355 78.392C272.055 78.62 271.695 78.734 271.275 78.734C270.843 78.734 270.477 78.62 270.177 78.392C269.877 78.152 269.727 77.768 269.727 77.24ZM274.859 77.24C274.859 76.688 275.009 76.304 275.309 76.088C275.609 75.86 275.975 75.746 276.407 75.746C276.827 75.746 277.187 75.86 277.487 76.088C277.787 76.304 277.937 76.688 277.937 77.24C277.937 77.768 277.787 78.152 277.487 78.392C277.187 78.62 276.827 78.734 276.407 78.734C275.975 78.734 275.609 78.62 275.309 78.392C275.009 78.152 274.859 77.768 274.859 77.24ZM279.992 77.24C279.992 76.688 280.142 76.304 280.442 76.088C280.742 75.86 281.108 75.746 281.54 75.746C281.96 75.746 282.32 75.86 282.62 76.088C282.92 76.304 283.07 76.688 283.07 77.24C283.07 77.768 282.92 78.152 282.62 78.392C282.32 78.62 281.96 78.734 281.54 78.734C281.108 78.734 280.742 78.62 280.442 78.392C280.142 78.152 279.992 77.768 279.992 77.24Z" fill="#26374A"/>
<path d="M339.377 65.27C340.631 65.27 341.657 65.5633 342.457 66.15C343.257 66.7367 343.657 67.5833 343.657 68.69C343.657 69.2633 343.531 69.7633 343.277 70.19C343.037 70.6167 342.711 70.9967 342.297 71.33C341.884 71.65 341.431 71.9367 340.937 72.19C341.524 72.47 342.057 72.79 342.537 73.15C343.017 73.4967 343.397 73.9033 343.677 74.37C343.971 74.8367 344.117 75.3967 344.117 76.05C344.117 77.25 343.691 78.2033 342.837 78.91C341.997 79.6033 340.864 79.95 339.437 79.95C337.904 79.95 336.724 79.6167 335.897 78.95C335.071 78.27 334.657 77.3233 334.657 76.11C334.657 75.4567 334.791 74.89 335.057 74.41C335.337 73.93 335.704 73.5167 336.157 73.17C336.611 72.8233 337.097 72.53 337.617 72.29C336.924 71.89 336.331 71.41 335.837 70.85C335.357 70.2767 335.117 69.55 335.117 68.67C335.117 67.9367 335.304 67.3233 335.677 66.83C336.051 66.3233 336.557 65.9367 337.197 65.67C337.837 65.4033 338.564 65.27 339.377 65.27ZM339.357 66.69C338.624 66.69 338.017 66.87 337.537 67.23C337.071 67.5767 336.837 68.0833 336.837 68.75C336.837 69.2433 336.951 69.6567 337.177 69.99C337.417 70.3233 337.737 70.61 338.137 70.85C338.537 71.0767 338.977 71.2967 339.457 71.51C340.151 71.2167 340.731 70.8633 341.197 70.45C341.677 70.0367 341.917 69.47 341.917 68.75C341.917 68.0833 341.684 67.5767 341.217 67.23C340.751 66.87 340.131 66.69 339.357 66.69ZM336.377 76.13C336.377 76.8233 336.624 77.4033 337.117 77.87C337.611 78.3233 338.371 78.55 339.397 78.55C340.371 78.55 341.111 78.3233 341.617 77.87C342.137 77.4033 342.397 76.8033 342.397 76.07C342.397 75.3767 342.124 74.8033 341.577 74.35C341.031 73.8833 340.304 73.4767 339.397 73.13L339.077 73.01C338.197 73.3833 337.524 73.8167 337.057 74.31C336.604 74.79 336.377 75.3967 336.377 76.13Z" fill="#26374A"/>
<path d="M333.677 82.25H345.117V83.25H333.677V82.25Z" fill="#26374A"/>
<rect x="378.4" y="48" width="48" height="48" rx="4" fill="#26374A"/>
<path d="M407.077 71.57C407.077 72.5967 406.984 73.61 406.797 74.61C406.624 75.5967 406.297 76.4967 405.817 77.31C405.351 78.11 404.684 78.75 403.817 79.23C402.964 79.71 401.864 79.95 400.517 79.95C400.251 79.95 399.937 79.93 399.577 79.89C399.231 79.8633 398.944 79.8167 398.717 79.75V78.25C399.237 78.4233 399.824 78.51 400.477 78.51C401.411 78.51 402.177 78.3567 402.777 78.05C403.391 77.7433 403.877 77.33 404.237 76.81C404.597 76.2767 404.857 75.6633 405.017 74.97C405.177 74.2633 405.271 73.5233 405.297 72.75H405.177C404.884 73.2033 404.457 73.5967 403.897 73.93C403.351 74.25 402.644 74.41 401.777 74.41C400.551 74.41 399.557 74.0367 398.797 73.29C398.051 72.53 397.677 71.4633 397.677 70.09C397.677 69.09 397.864 68.23 398.237 67.51C398.624 66.79 399.157 66.2367 399.837 65.85C400.517 65.4633 401.317 65.27 402.237 65.27C403.144 65.27 403.964 65.5033 404.697 65.97C405.431 66.4233 406.011 67.1167 406.437 68.05C406.864 68.97 407.077 70.1433 407.077 71.57ZM402.237 66.75C401.411 66.75 400.731 67.0233 400.197 67.57C399.677 68.1167 399.417 68.95 399.417 70.07C399.417 70.99 399.637 71.7167 400.077 72.25C400.531 72.77 401.224 73.03 402.157 73.03C402.797 73.03 403.351 72.9033 403.817 72.65C404.284 72.3833 404.644 72.05 404.897 71.65C405.164 71.25 405.297 70.8367 405.297 70.41C405.297 69.8367 405.184 69.27 404.957 68.71C404.731 68.15 404.391 67.6833 403.937 67.31C403.484 66.9367 402.917 66.75 402.237 66.75Z" fill="white"/>
<path d="M461.055 79.75H459.335V69.77C459.335 69.1967 459.341 68.7367 459.355 68.39C459.368 68.0433 459.388 67.6833 459.415 67.31C459.201 67.5233 459.008 67.7033 458.835 67.85C458.661 67.9967 458.441 68.1833 458.175 68.41L456.655 69.65L455.735 68.47L459.595 65.47H461.055V79.75ZM475.86 72.59C475.86 74.1233 475.7 75.4433 475.38 76.55C475.06 77.6433 474.553 78.4833 473.86 79.07C473.167 79.6567 472.247 79.95 471.1 79.95C469.487 79.95 468.293 79.3033 467.52 78.01C466.76 76.7033 466.38 74.8967 466.38 72.59C466.38 71.0433 466.533 69.7233 466.84 68.63C467.16 67.5367 467.667 66.7033 468.36 66.13C469.053 65.5433 469.967 65.25 471.1 65.25C472.7 65.25 473.893 65.8967 474.68 67.19C475.467 68.47 475.86 70.27 475.86 72.59ZM468.14 72.59C468.14 74.55 468.36 76.0167 468.8 76.99C469.253 77.9633 470.02 78.45 471.1 78.45C472.167 78.45 472.927 77.97 473.38 77.01C473.847 76.0367 474.08 74.5633 474.08 72.59C474.08 70.6433 473.847 69.1833 473.38 68.21C472.927 67.2367 472.167 66.75 471.1 66.75C470.02 66.75 469.253 67.2367 468.8 68.21C468.36 69.1833 468.14 70.6433 468.14 72.59Z" fill="#26374A"/>
<path d="M453.955 82.25H476.84V83.25H453.955V82.25Z" fill="#26374A"/>
<path d="M521.727 77.24C521.727 76.688 521.877 76.304 522.177 76.088C522.477 75.86 522.843 75.746 523.275 75.746C523.695 75.746 524.055 75.86 524.355 76.088C524.655 76.304 524.805 76.688 524.805 77.24C524.805 77.768 524.655 78.152 524.355 78.392C524.055 78.62 523.695 78.734 523.275 78.734C522.843 78.734 522.477 78.62 522.177 78.392C521.877 78.152 521.727 77.768 521.727 77.24ZM526.859 77.24C526.859 76.688 527.009 76.304 527.309 76.088C527.609 75.86 527.975 75.746 528.407 75.746C528.827 75.746 529.187 75.86 529.487 76.088C529.787 76.304 529.937 76.688 529.937 77.24C529.937 77.768 529.787 78.152 529.487 78.392C529.187 78.62 528.827 78.734 528.407 78.734C527.975 78.734 527.609 78.62 527.309 78.392C527.009 78.152 526.859 77.768 526.859 77.24ZM531.992 77.24C531.992 76.688 532.142 76.304 532.442 76.088C532.742 75.86 533.108 75.746 533.54 75.746C533.96 75.746 534.32 75.86 534.62 76.088C534.92 76.304 535.07 76.688 535.07 77.24C535.07 77.768 534.92 78.152 534.62 78.392C534.32 78.62 533.96 78.734 533.54 78.734C533.108 78.734 532.742 78.62 532.442 78.392C532.142 78.152 531.992 77.768 531.992 77.24Z" fill="#26374A"/>
<path d="M587.055 79.75H585.335V69.77C585.335 69.1967 585.341 68.7367 585.355 68.39C585.368 68.0433 585.388 67.6833 585.415 67.31C585.201 67.5233 585.008 67.7033 584.835 67.85C584.661 67.9967 584.441 68.1833 584.175 68.41L582.655 69.65L581.735 68.47L585.595 65.47H587.055V79.75ZM596.9 70.99C598.367 70.99 599.533 71.3567 600.4 72.09C601.267 72.8233 601.7 73.8567 601.7 75.19C601.7 76.67 601.227 77.8367 600.28 78.69C599.347 79.53 598.04 79.95 596.36 79.95C595.627 79.95 594.933 79.8833 594.28 79.75C593.64 79.6167 593.1 79.4233 592.66 79.17V77.51C593.14 77.8033 593.72 78.0367 594.4 78.21C595.093 78.37 595.753 78.45 596.38 78.45C597.433 78.45 598.28 78.2033 598.92 77.71C599.573 77.2033 599.9 76.4233 599.9 75.37C599.9 74.4367 599.613 73.7233 599.04 73.23C598.467 72.7233 597.56 72.47 596.32 72.47C595.947 72.47 595.52 72.5033 595.04 72.57C594.56 72.6367 594.173 72.7033 593.88 72.77L593 72.21L593.54 65.47H600.7V67.07H595.04L594.7 71.21C594.927 71.17 595.233 71.1233 595.62 71.07C596.007 71.0167 596.433 70.99 596.9 70.99Z" fill="#26374A"/>
<path d="M579.955 82.25H602.84V83.25H579.955V82.25Z" fill="#26374A"/>
<path d="M652.846 76.14C652.846 76.9933 652.639 77.72 652.226 78.32C651.812 78.92 651.219 79.3867 650.446 79.72C649.672 80.04 648.752 80.2 647.686 80.2C647.166 80.2 646.666 80.1667 646.186 80.1C645.706 80.0467 645.259 79.9667 644.846 79.86C644.432 79.7533 644.066 79.62 643.746 79.46V77.42C644.279 77.66 644.906 77.88 645.626 78.08C646.346 78.2667 647.079 78.36 647.826 78.36C648.466 78.36 648.999 78.2733 649.426 78.1C649.852 77.9267 650.172 77.6867 650.386 77.38C650.599 77.0733 650.706 76.7133 650.706 76.3C650.706 75.86 650.592 75.4933 650.366 75.2C650.152 74.8933 649.812 74.6133 649.346 74.36C648.892 74.0933 648.279 73.8133 647.506 73.52C646.972 73.32 646.486 73.1 646.046 72.86C645.619 72.6067 645.239 72.3133 644.906 71.98C644.586 71.6467 644.339 71.26 644.166 70.82C643.992 70.38 643.906 69.8667 643.906 69.28C643.906 68.4933 644.099 67.82 644.486 67.26C644.886 66.7 645.432 66.2733 646.126 65.98C646.819 65.6733 647.626 65.52 648.546 65.52C649.319 65.52 650.032 65.6 650.686 65.76C651.352 65.9067 651.986 66.1133 652.586 66.38L651.906 68.16C651.359 67.9333 650.806 67.7467 650.246 67.6C649.686 67.4533 649.099 67.38 648.486 67.38C647.952 67.38 647.506 67.46 647.146 67.62C646.786 67.78 646.512 68 646.326 68.28C646.152 68.56 646.066 68.8867 646.066 69.26C646.066 69.7 646.166 70.0667 646.366 70.36C646.566 70.6533 646.886 70.9267 647.326 71.18C647.766 71.42 648.346 71.6867 649.066 71.98C649.866 72.2867 650.546 72.62 651.106 72.98C651.679 73.34 652.112 73.7733 652.406 74.28C652.699 74.7733 652.846 75.3933 652.846 76.14ZM664.682 69.22V80H662.982L662.682 78.58H662.582C662.355 78.9533 662.062 79.26 661.702 79.5C661.342 79.74 660.948 79.9133 660.522 80.02C660.095 80.14 659.655 80.2 659.202 80.2C658.362 80.2 657.648 80.0667 657.062 79.8C656.488 79.52 656.048 79.0933 655.742 78.52C655.448 77.9333 655.302 77.1867 655.302 76.28V69.22H657.442V75.96C657.442 76.8 657.615 77.4267 657.962 77.84C658.322 78.2533 658.875 78.46 659.622 78.46C660.368 78.46 660.955 78.3133 661.382 78.02C661.808 77.7267 662.108 77.3 662.282 76.74C662.468 76.1667 662.562 75.48 662.562 74.68V69.22H664.682ZM670.119 69.22V80H667.999V69.22H670.119ZM669.079 65.12C669.399 65.12 669.679 65.2133 669.919 65.4C670.159 65.5867 670.279 65.9 670.279 66.34C670.279 66.7667 670.159 67.08 669.919 67.28C669.679 67.4667 669.399 67.56 669.079 67.56C668.733 67.56 668.439 67.4667 668.199 67.28C667.973 67.08 667.859 66.7667 667.859 66.34C667.859 65.9 667.973 65.5867 668.199 65.4C668.439 65.2133 668.733 65.12 669.079 65.12ZM675.869 80L671.789 69.22H674.029L676.269 75.52C676.362 75.7867 676.455 76.0867 676.549 76.42C676.655 76.7533 676.749 77.0733 676.829 77.38C676.909 77.6867 676.962 77.9533 676.989 78.18H677.069C677.109 77.9533 677.169 77.6867 677.249 77.38C677.342 77.06 677.442 76.74 677.549 76.42C677.655 76.0867 677.749 75.7867 677.829 75.52L680.069 69.22H682.309L678.209 80H675.869ZM688.156 69.02C689.516 69.02 690.529 69.32 691.196 69.92C691.863 70.5067 692.196 71.4333 692.196 72.7V80H690.696L690.276 78.5H690.196C689.889 78.8867 689.569 79.2067 689.236 79.46C688.916 79.7133 688.543 79.9 688.116 80.02C687.703 80.14 687.196 80.2 686.596 80.2C685.956 80.2 685.376 80.0867 684.856 79.86C684.349 79.62 683.949 79.26 683.656 78.78C683.363 78.2867 683.216 77.6733 683.216 76.94C683.216 75.8467 683.629 75.0133 684.456 74.44C685.296 73.8667 686.569 73.5533 688.276 73.5L690.116 73.44V72.84C690.116 72.04 689.936 71.48 689.576 71.16C689.216 70.84 688.709 70.68 688.056 70.68C687.496 70.68 686.963 70.76 686.456 70.92C685.949 71.08 685.469 71.2733 685.016 71.5L684.336 69.96C684.843 69.6933 685.423 69.4733 686.076 69.3C686.743 69.1133 687.436 69.02 688.156 69.02ZM688.656 74.86C687.429 74.9133 686.576 75.12 686.096 75.48C685.629 75.8267 685.396 76.32 685.396 76.96C685.396 77.52 685.563 77.9267 685.896 78.18C686.243 78.4333 686.676 78.56 687.196 78.56C688.036 78.56 688.729 78.3267 689.276 77.86C689.823 77.3933 690.096 76.6933 690.096 75.76V74.82L688.656 74.86ZM700.92 69.02C702.174 69.02 703.134 69.3333 703.8 69.96C704.467 70.5867 704.8 71.5933 704.8 72.98V80H702.7V73.28C702.7 72.44 702.52 71.8133 702.16 71.4C701.814 70.9733 701.254 70.76 700.48 70.76C699.387 70.76 698.627 71.0867 698.2 71.74C697.787 72.3933 697.58 73.3333 697.58 74.56V80H695.46V69.22H697.14L697.44 70.66H697.56C697.8 70.2867 698.094 69.98 698.44 69.74C698.787 69.5 699.174 69.32 699.6 69.2C700.027 69.08 700.467 69.02 700.92 69.02ZM711.938 78.48C712.218 78.48 712.505 78.4533 712.798 78.4C713.091 78.3467 713.345 78.2867 713.558 78.22V79.82C713.331 79.9267 713.025 80.0133 712.638 80.08C712.251 80.16 711.865 80.2 711.478 80.2C710.891 80.2 710.351 80.1 709.858 79.9C709.378 79.7 708.991 79.3533 708.698 78.86C708.405 78.3667 708.258 77.68 708.258 76.8V70.84H706.758V69.88L708.338 69.08L709.078 66.8H710.378V69.22H713.458V70.84H710.378V76.76C710.378 77.3467 710.518 77.78 710.798 78.06C711.091 78.34 711.471 78.48 711.938 78.48Z" fill="#2B4380"/>
<path d="M642.746 82.5H714.058V83.5H642.746V82.5Z" fill="#2B4380"/>
<path d="M740.759 73.3984L734.509 79.6484C734.275 79.8828 733.962 80 733.65 80C733.298 80 732.986 79.8828 732.751 79.6484C732.244 79.1797 732.244 78.3594 732.751 77.8906L736.853 73.75H724.9C724.197 73.75 723.65 73.2031 723.65 72.5C723.65 71.8359 724.197 71.25 724.9 71.25H736.853L732.751 67.1484C732.244 66.6797 732.244 65.8594 732.751 65.3906C733.22 64.8828 734.041 64.8828 734.509 65.3906L740.759 71.6406C741.267 72.1094 741.267 72.9297 740.759 73.3984Z" fill="#2B4380"/>
<g clip-path="url(#clip0_218_155)">
<rect x="733" y="72" width="48" height="1" fill="#C54600"/>
<g clip-path="url(#clip1_218_155)">
<rect x="757" y="60" width="24" height="24" rx="12" fill="#C54600"/>
<path d="M769.032 77.1392C768.33 77.1392 767.703 77.0099 767.153 76.7514C766.606 76.4929 766.172 76.1366 765.85 75.6825C765.529 75.2285 765.362 74.7081 765.348 74.1214H767.436C767.46 74.5159 767.625 74.8357 767.934 75.081C768.242 75.3262 768.608 75.4489 769.032 75.4489C769.37 75.4489 769.669 75.3743 769.927 75.2251C770.189 75.0727 770.393 74.8622 770.539 74.5938C770.688 74.322 770.762 74.0104 770.762 73.6591C770.762 73.3011 770.686 72.9863 770.534 72.7145C770.385 72.4427 770.177 72.2306 769.912 72.0781C769.647 71.9257 769.344 71.8478 769.002 71.8445C768.704 71.8445 768.414 71.9058 768.132 72.0284C767.854 72.151 767.637 72.3184 767.481 72.5305L765.567 72.1875L766.049 66.8182H772.274V68.5781H767.824L767.561 71.1286H767.62C767.799 70.8767 768.069 70.6679 768.431 70.5021C768.792 70.3364 769.196 70.2536 769.644 70.2536C770.257 70.2536 770.804 70.3977 771.284 70.6861C771.765 70.9744 772.145 71.3705 772.423 71.8743C772.701 72.3748 772.839 72.9515 772.836 73.6044C772.839 74.2905 772.68 74.9003 772.358 75.4339C772.04 75.9643 771.594 76.3819 771.021 76.6868C770.451 76.9884 769.788 77.1392 769.032 77.1392Z" fill="white"/>
</g>
</g>
<g clip-path="url(#clip2_218_155)">
<rect x="533.4" width="1" height="65" fill="#C54600"/>
<g clip-path="url(#clip3_218_155)">
<rect x="521.4" width="24" height="24" rx="12" fill="#C54600"/>
<path d="M529.327 15.2102V13.5149L533.578 6.81818H535.04V9.16477H534.175L531.495 13.4055V13.4851H537.536V15.2102H529.327ZM534.214 17V14.6932L534.254 13.9425V6.81818H536.273V17H534.214Z" fill="white"/>
</g>
</g>
<g clip-path="url(#clip4_218_155)">
<rect x="407.4" width="1" height="48" fill="#C54600"/>
<g clip-path="url(#clip5_218_155)">
<rect x="395.4" width="24" height="24" rx="12" fill="#C54600"/>
<path d="M407.374 17.1392C406.632 17.1392 405.971 17.0116 405.391 16.7564C404.814 16.4979 404.358 16.1432 404.024 15.6925C403.692 15.2384 403.521 14.7147 403.511 14.1214H405.679C405.692 14.37 405.774 14.5888 405.923 14.7777C406.075 14.9633 406.277 15.1075 406.529 15.2102C406.781 15.313 407.065 15.3643 407.379 15.3643C407.708 15.3643 407.998 15.3063 408.249 15.1903C408.501 15.0743 408.699 14.9136 408.841 14.7081C408.984 14.5026 409.055 14.2656 409.055 13.9972C409.055 13.7254 408.979 13.4851 408.826 13.2763C408.677 13.0642 408.462 12.8984 408.18 12.7791C407.901 12.6598 407.57 12.6001 407.186 12.6001H406.236V11.0192H407.186C407.51 11.0192 407.797 10.9628 408.046 10.8501C408.297 10.7375 408.493 10.5817 408.632 10.3828C408.771 10.1806 408.841 9.94531 408.841 9.67685C408.841 9.42164 408.78 9.19792 408.657 9.00568C408.538 8.81013 408.369 8.65767 408.15 8.5483C407.935 8.43892 407.683 8.38423 407.394 8.38423C407.103 8.38423 406.836 8.43726 406.594 8.54332C406.352 8.64607 406.158 8.79356 406.012 8.9858C405.866 9.17803 405.788 9.40341 405.779 9.66193H403.715C403.725 9.07528 403.893 8.55824 404.217 8.1108C404.542 7.66335 404.98 7.31368 405.53 7.06179C406.083 6.80658 406.708 6.67898 407.404 6.67898C408.107 6.67898 408.722 6.80658 409.249 7.06179C409.776 7.317 410.185 7.66169 410.477 8.09588C410.772 8.52675 410.918 9.01065 410.914 9.54758C410.918 10.1177 410.74 10.5933 410.382 10.9744C410.028 11.3556 409.565 11.5975 408.995 11.7003V11.7798C409.744 11.8759 410.314 12.1361 410.705 12.5604C411.1 12.9813 411.295 13.5083 411.292 14.1413C411.295 14.7214 411.128 15.2367 410.79 15.6875C410.455 16.1383 409.993 16.4929 409.403 16.7514C408.813 17.0099 408.137 17.1392 407.374 17.1392Z" fill="white"/>
</g>
</g>
<g clip-path="url(#clip6_218_155)">
<rect x="218.4" width="1" height="60" fill="#C54600"/>
<g clip-path="url(#clip7_218_155)">
<rect x="206.4" width="24" height="24" rx="12" fill="#C54600"/>
<path d="M214.816 17V15.4489L218.44 12.093C218.749 11.7947 219.007 11.5263 219.216 11.2876C219.428 11.049 219.589 10.8153 219.698 10.5866C219.807 10.3546 219.862 10.1044 219.862 9.83594C219.862 9.53764 219.794 9.28078 219.658 9.06534C219.522 8.84659 219.337 8.67921 219.102 8.56321C218.866 8.44389 218.599 8.38423 218.301 8.38423C217.99 8.38423 217.718 8.44721 217.486 8.57315C217.254 8.6991 217.075 8.87973 216.949 9.11506C216.823 9.35038 216.76 9.63044 216.76 9.95526H214.717C214.717 9.28906 214.867 8.7107 215.169 8.22017C215.471 7.72964 215.893 7.35014 216.437 7.08168C216.98 6.81321 217.607 6.67898 218.316 6.67898C219.045 6.67898 219.68 6.80824 220.22 7.06676C220.764 7.32197 221.186 7.67661 221.488 8.13068C221.789 8.58475 221.94 9.10511 221.94 9.69176C221.94 10.0762 221.864 10.4557 221.712 10.8303C221.562 11.2048 221.296 11.6207 220.911 12.0781C220.527 12.5322 219.985 13.0774 219.285 13.7138L217.799 15.1705V15.2401H222.075V17H214.816Z" fill="white"/>
</g>
</g>
<g clip-path="url(#clip8_218_155)">
<rect y="72" width="48" height="1" fill="#C54600"/>
<g clip-path="url(#clip9_218_155)">
<rect y="60" width="24" height="24" rx="12" fill="#C54600"/>
<path d="M13.8302 66.8182V77H11.6775V68.8615H11.6178L9.28613 70.3232V68.4141L11.8067 66.8182H13.8302Z" fill="white"/>
</g>
</g>
<defs>
<clipPath id="clip0_218_155">
<rect width="48" height="24" fill="white" transform="translate(733 60)"/>
</clipPath>
<clipPath id="clip1_218_155">
<rect x="757" y="60" width="24" height="24" rx="12" fill="white"/>
</clipPath>
<clipPath id="clip2_218_155">
<rect width="24" height="65" fill="white" transform="translate(521.4)"/>
</clipPath>
<clipPath id="clip3_218_155">
<rect x="521.4" width="24" height="24" rx="12" fill="white"/>
</clipPath>
<clipPath id="clip4_218_155">
<rect width="24" height="48" fill="white" transform="translate(395.4)"/>
</clipPath>
<clipPath id="clip5_218_155">
<rect x="395.4" width="24" height="24" rx="12" fill="white"/>
</clipPath>
<clipPath id="clip6_218_155">
<rect width="24" height="60" fill="white" transform="translate(206.4)"/>
</clipPath>
<clipPath id="clip7_218_155">
<rect x="206.4" width="24" height="24" rx="12" fill="white"/>
</clipPath>
<clipPath id="clip8_218_155">
<rect width="48" height="24" fill="white" transform="translate(0 60)"/>
</clipPath>
<clipPath id="clip9_218_155">
<rect y="60" width="24" height="24" rx="12" fill="white"/>
</clipPath>
</defs>
</svg>
