<svg width="291" height="139" viewBox="0 0 291 139" fill="none" xmlns="http://www.w3.org/2000/svg">
<rect x="68.5" y="20" width="199" height="48" rx="6" fill="#26374A"/>
<path d="M86.4 52V37.72H88.56V50.14H94.66V52H86.4ZM99.0027 41.22V52H96.8827V41.22H99.0027ZM97.9627 37.12C98.2827 37.12 98.5627 37.2133 98.8027 37.4C99.0427 37.5867 99.1627 37.9 99.1627 38.34C99.1627 38.7667 99.0427 39.08 98.8027 39.28C98.5627 39.4667 98.2827 39.56 97.9627 39.56C97.616 39.56 97.3227 39.4667 97.0827 39.28C96.856 39.08 96.7427 38.7667 96.7427 38.34C96.7427 37.9 96.856 37.5867 97.0827 37.4C97.3227 37.2133 97.616 37.12 97.9627 37.12ZM104.452 40.46C104.452 40.9 104.439 41.32 104.412 41.72C104.399 42.1067 104.379 42.4133 104.352 42.64H104.452C104.759 42.1867 105.172 41.8067 105.692 41.5C106.212 41.1933 106.885 41.04 107.712 41.04C109.005 41.04 110.045 41.5067 110.832 42.44C111.632 43.3733 112.032 44.76 112.032 46.6C112.032 47.84 111.852 48.8733 111.492 49.7C111.132 50.5267 110.625 51.1533 109.972 51.58C109.319 51.9933 108.559 52.2 107.692 52.2C106.852 52.2 106.179 52.0533 105.672 51.76C105.165 51.4533 104.759 51.0933 104.452 50.68H104.292L103.892 52H102.332V36.8H104.452V40.46ZM107.212 42.76C106.519 42.76 105.972 42.8933 105.572 43.16C105.172 43.4267 104.885 43.8333 104.712 44.38C104.539 44.9267 104.452 45.62 104.452 46.46V46.62C104.452 47.86 104.652 48.8133 105.052 49.48C105.452 50.1333 106.185 50.46 107.252 50.46C108.105 50.46 108.752 50.1267 109.192 49.46C109.632 48.7933 109.852 47.8333 109.852 46.58C109.852 45.3133 109.632 44.36 109.192 43.72C108.752 43.08 108.092 42.76 107.212 42.76ZM118.974 41.02C119.921 41.02 120.734 41.22 121.414 41.62C122.094 42.0067 122.614 42.5667 122.974 43.3C123.348 44.0333 123.534 44.9 123.534 45.9V47.06H116.294C116.321 48.1667 116.608 49.0133 117.154 49.6C117.714 50.1867 118.494 50.48 119.494 50.48C120.188 50.48 120.801 50.42 121.334 50.3C121.881 50.1667 122.441 49.9733 123.014 49.72V51.48C122.481 51.72 121.934 51.9 121.374 52.02C120.828 52.14 120.174 52.2 119.414 52.2C118.374 52.2 117.454 51.9933 116.654 51.58C115.854 51.1667 115.228 50.5533 114.774 49.74C114.334 48.9133 114.114 47.9 114.114 46.7C114.114 45.4867 114.314 44.46 114.714 43.62C115.128 42.78 115.694 42.14 116.414 41.7C117.148 41.2467 118.001 41.02 118.974 41.02ZM118.974 42.66C118.214 42.66 117.601 42.9067 117.134 43.4C116.681 43.8933 116.414 44.5933 116.334 45.5H121.414C121.414 44.94 121.328 44.4467 121.154 44.02C120.981 43.5933 120.714 43.26 120.354 43.02C119.994 42.78 119.534 42.66 118.974 42.66ZM128.3 52H126.18V36.8H128.3V52ZM133.749 52H131.629V36.8H133.749V52ZM141.318 41.02C142.265 41.02 143.078 41.22 143.758 41.62C144.438 42.0067 144.958 42.5667 145.318 43.3C145.691 44.0333 145.878 44.9 145.878 45.9V47.06H138.638C138.665 48.1667 138.951 49.0133 139.498 49.6C140.058 50.1867 140.838 50.48 141.838 50.48C142.531 50.48 143.145 50.42 143.678 50.3C144.225 50.1667 144.785 49.9733 145.358 49.72V51.48C144.825 51.72 144.278 51.9 143.718 52.02C143.171 52.14 142.518 52.2 141.758 52.2C140.718 52.2 139.798 51.9933 138.998 51.58C138.198 51.1667 137.571 50.5533 137.118 49.74C136.678 48.9133 136.458 47.9 136.458 46.7C136.458 45.4867 136.658 44.46 137.058 43.62C137.471 42.78 138.038 42.14 138.758 41.7C139.491 41.2467 140.345 41.02 141.318 41.02ZM141.318 42.66C140.558 42.66 139.945 42.9067 139.478 43.4C139.025 43.8933 138.758 44.5933 138.678 45.5H143.758C143.758 44.94 143.671 44.4467 143.498 44.02C143.325 43.5933 143.058 43.26 142.698 43.02C142.338 42.78 141.878 42.66 141.318 42.66ZM144.518 36.88C144.371 37.0667 144.171 37.2933 143.918 37.56C143.678 37.8267 143.405 38.1067 143.098 38.4C142.805 38.68 142.511 38.9533 142.218 39.22C141.925 39.4733 141.658 39.6933 141.418 39.88H140.018V39.64C140.218 39.3867 140.445 39.0867 140.698 38.74C140.951 38.3933 141.198 38.04 141.438 37.68C141.678 37.3067 141.878 36.9733 142.038 36.68H144.518V36.88ZM157.419 52.2C156.125 52.2 155.079 51.7333 154.279 50.8C153.492 49.8667 153.099 48.48 153.099 46.64C153.099 44.7867 153.499 43.3867 154.299 42.44C155.099 41.4933 156.152 41.02 157.459 41.02C158.005 41.02 158.479 41.0933 158.879 41.24C159.292 41.3733 159.645 41.56 159.939 41.8C160.245 42.04 160.505 42.3067 160.719 42.6H160.839C160.812 42.4133 160.779 42.1467 160.739 41.8C160.699 41.44 160.679 41.12 160.679 40.84V36.8H162.799V52H161.139L160.779 50.56H160.679C160.479 50.8667 160.225 51.1467 159.919 51.4C159.625 51.64 159.272 51.8333 158.859 51.98C158.445 52.1267 157.965 52.2 157.419 52.2ZM157.919 50.46C158.959 50.46 159.692 50.1733 160.119 49.6C160.545 49.0133 160.759 48.14 160.759 46.98V46.66C160.759 45.3933 160.552 44.4267 160.139 43.76C159.739 43.0933 158.992 42.76 157.899 42.76C157.032 42.76 156.379 43.1133 155.939 43.82C155.499 44.5133 155.279 45.4667 155.279 46.68C155.279 47.8933 155.499 48.8267 155.939 49.48C156.379 50.1333 157.039 50.46 157.919 50.46ZM170.361 41.02C171.308 41.02 172.121 41.22 172.801 41.62C173.481 42.0067 174.001 42.5667 174.361 43.3C174.734 44.0333 174.921 44.9 174.921 45.9V47.06H167.681C167.708 48.1667 167.994 49.0133 168.541 49.6C169.101 50.1867 169.881 50.48 170.881 50.48C171.574 50.48 172.188 50.42 172.721 50.3C173.268 50.1667 173.828 49.9733 174.401 49.72V51.48C173.868 51.72 173.321 51.9 172.761 52.02C172.214 52.14 171.561 52.2 170.801 52.2C169.761 52.2 168.841 51.9933 168.041 51.58C167.241 51.1667 166.614 50.5533 166.161 49.74C165.721 48.9133 165.501 47.9 165.501 46.7C165.501 45.4867 165.701 44.46 166.101 43.62C166.514 42.78 167.081 42.14 167.801 41.7C168.534 41.2467 169.388 41.02 170.361 41.02ZM170.361 42.66C169.601 42.66 168.988 42.9067 168.521 43.4C168.068 43.8933 167.801 44.5933 167.721 45.5H172.801C172.801 44.94 172.714 44.4467 172.541 44.02C172.368 43.5933 172.101 43.26 171.741 43.02C171.381 42.78 170.921 42.66 170.361 42.66ZM184.882 40.46C184.882 40.9 184.868 41.32 184.842 41.72C184.828 42.1067 184.808 42.4133 184.782 42.64H184.882C185.188 42.1867 185.602 41.8067 186.122 41.5C186.642 41.1933 187.315 41.04 188.142 41.04C189.435 41.04 190.475 41.5067 191.262 42.44C192.062 43.3733 192.462 44.76 192.462 46.6C192.462 47.84 192.282 48.8733 191.922 49.7C191.562 50.5267 191.055 51.1533 190.402 51.58C189.748 51.9933 188.988 52.2 188.122 52.2C187.282 52.2 186.608 52.0533 186.102 51.76C185.595 51.4533 185.188 51.0933 184.882 50.68H184.722L184.322 52H182.762V36.8H184.882V40.46ZM187.642 42.76C186.948 42.76 186.402 42.8933 186.002 43.16C185.602 43.4267 185.315 43.8333 185.142 44.38C184.968 44.9267 184.882 45.62 184.882 46.46V46.62C184.882 47.86 185.082 48.8133 185.482 49.48C185.882 50.1333 186.615 50.46 187.682 50.46C188.535 50.46 189.182 50.1267 189.622 49.46C190.062 48.7933 190.282 47.8333 190.282 46.58C190.282 45.3133 190.062 44.36 189.622 43.72C189.182 43.08 188.522 42.76 187.642 42.76ZM204.664 46.6C204.664 47.4933 204.544 48.2867 204.304 48.98C204.064 49.6733 203.724 50.26 203.284 50.74C202.844 51.22 202.311 51.5867 201.684 51.84C201.057 52.08 200.351 52.2 199.564 52.2C198.844 52.2 198.177 52.08 197.564 51.84C196.951 51.5867 196.417 51.22 195.964 50.74C195.524 50.26 195.177 49.6733 194.924 48.98C194.671 48.2867 194.544 47.4867 194.544 46.58C194.544 45.3933 194.744 44.3867 195.144 43.56C195.557 42.7333 196.144 42.1067 196.904 41.68C197.677 41.24 198.584 41.02 199.624 41.02C200.611 41.02 201.477 41.24 202.224 41.68C202.984 42.1067 203.577 42.7333 204.004 43.56C204.444 44.3867 204.664 45.4 204.664 46.6ZM196.724 46.6C196.724 47.4 196.824 48.0933 197.024 48.68C197.224 49.2533 197.537 49.6933 197.964 50C198.391 50.3067 198.937 50.46 199.604 50.46C200.271 50.46 200.817 50.3067 201.244 50C201.671 49.6933 201.984 49.2533 202.184 48.68C202.384 48.0933 202.484 47.4 202.484 46.6C202.484 45.7733 202.377 45.08 202.164 44.52C201.964 43.96 201.651 43.5333 201.224 43.24C200.811 42.9333 200.264 42.78 199.584 42.78C198.584 42.78 197.857 43.1133 197.404 43.78C196.951 44.4467 196.724 45.3867 196.724 46.6ZM216.631 41.22V52H214.931L214.631 50.58H214.531C214.305 50.9533 214.011 51.26 213.651 51.5C213.291 51.74 212.898 51.9133 212.471 52.02C212.045 52.14 211.605 52.2 211.151 52.2C210.311 52.2 209.598 52.0667 209.011 51.8C208.438 51.52 207.998 51.0933 207.691 50.52C207.398 49.9333 207.251 49.1867 207.251 48.28V41.22H209.391V47.96C209.391 48.8 209.565 49.4267 209.911 49.84C210.271 50.2533 210.825 50.46 211.571 50.46C212.318 50.46 212.905 50.3133 213.331 50.02C213.758 49.7267 214.058 49.3 214.231 48.74C214.418 48.1667 214.511 47.48 214.511 46.68V41.22H216.631ZM223.829 50.48C224.109 50.48 224.396 50.4533 224.689 50.4C224.982 50.3467 225.236 50.2867 225.449 50.22V51.82C225.222 51.9267 224.916 52.0133 224.529 52.08C224.142 52.16 223.756 52.2 223.369 52.2C222.782 52.2 222.242 52.1 221.749 51.9C221.269 51.7 220.882 51.3533 220.589 50.86C220.296 50.3667 220.149 49.68 220.149 48.8V42.84H218.649V41.88L220.229 41.08L220.969 38.8H222.269V41.22H225.349V42.84H222.269V48.76C222.269 49.3467 222.409 49.78 222.689 50.06C222.982 50.34 223.362 50.48 223.829 50.48ZM237.105 46.6C237.105 47.4933 236.985 48.2867 236.745 48.98C236.505 49.6733 236.165 50.26 235.725 50.74C235.285 51.22 234.752 51.5867 234.125 51.84C233.499 52.08 232.792 52.2 232.005 52.2C231.285 52.2 230.619 52.08 230.005 51.84C229.392 51.5867 228.859 51.22 228.405 50.74C227.965 50.26 227.619 49.6733 227.365 48.98C227.112 48.2867 226.985 47.4867 226.985 46.58C226.985 45.3933 227.185 44.3867 227.585 43.56C227.999 42.7333 228.585 42.1067 229.345 41.68C230.119 41.24 231.025 41.02 232.065 41.02C233.052 41.02 233.919 41.24 234.665 41.68C235.425 42.1067 236.019 42.7333 236.445 43.56C236.885 44.3867 237.105 45.4 237.105 46.6ZM229.165 46.6C229.165 47.4 229.265 48.0933 229.465 48.68C229.665 49.2533 229.979 49.6933 230.405 50C230.832 50.3067 231.379 50.46 232.045 50.46C232.712 50.46 233.259 50.3067 233.685 50C234.112 49.6933 234.425 49.2533 234.625 48.68C234.825 48.0933 234.925 47.4 234.925 46.6C234.925 45.7733 234.819 45.08 234.605 44.52C234.405 43.96 234.092 43.5333 233.665 43.24C233.252 42.9333 232.705 42.78 232.025 42.78C231.025 42.78 230.299 43.1133 229.845 43.78C229.392 44.4467 229.165 45.3867 229.165 46.6ZM245.253 41.02C246.506 41.02 247.466 41.3333 248.133 41.96C248.799 42.5867 249.133 43.5933 249.133 44.98V52H247.033V45.28C247.033 44.44 246.853 43.8133 246.493 43.4C246.146 42.9733 245.586 42.76 244.813 42.76C243.719 42.76 242.959 43.0867 242.533 43.74C242.119 44.3933 241.913 45.3333 241.913 46.56V52H239.793V41.22H241.473L241.773 42.66H241.893C242.133 42.2867 242.426 41.98 242.773 41.74C243.119 41.5 243.506 41.32 243.933 41.2C244.359 41.08 244.799 41.02 245.253 41.02Z" fill="white"/>
<g clip-path="url(#clip0_5534_53597)">
<rect x="20" y="44" width="48" height="1" fill="#C54600"/>
<g clip-path="url(#clip1_5534_53597)">
<rect x="20" y="32" width="24" height="24" rx="12" fill="#C54600"/>
<path d="M33.5687 39.2727V48H31.7235V41.0241H31.6724L29.6738 42.277V40.6406L31.8343 39.2727H33.5687Z" fill="white"/>
</g>
</g>
<g clip-path="url(#clip2_5534_53597)">
<rect x="166" y="55" width="1" height="63.8" fill="#C54600"/>
<rect x="248" y="54" width="2.00001" height="162" transform="rotate(90 248 54)" fill="#C54600"/>
<g clip-path="url(#clip3_5534_53597)">
<rect x="154" y="94.8" width="24" height="24" rx="12" fill="#C54600"/>
<path d="M162.928 110.8V109.47L166.035 106.594C166.299 106.338 166.52 106.108 166.699 105.904C166.881 105.699 167.019 105.499 167.113 105.303C167.206 105.104 167.253 104.889 167.253 104.659C167.253 104.404 167.195 104.184 167.079 103.999C166.962 103.811 166.803 103.668 166.601 103.568C166.4 103.466 166.171 103.415 165.915 103.415C165.648 103.415 165.415 103.469 165.216 103.577C165.018 103.685 164.864 103.84 164.756 104.041C164.648 104.243 164.594 104.483 164.594 104.762H162.843C162.843 104.191 162.972 103.695 163.231 103.274C163.489 102.854 163.851 102.529 164.317 102.299C164.783 102.068 165.32 101.953 165.928 101.953C166.553 101.953 167.097 102.064 167.56 102.286C168.026 102.505 168.388 102.809 168.647 103.198C168.905 103.587 169.035 104.033 169.035 104.536C169.035 104.865 168.969 105.191 168.839 105.512C168.711 105.833 168.482 106.189 168.153 106.581C167.823 106.97 167.358 107.438 166.759 107.983L165.485 109.232V109.291H169.15V110.8H162.928Z" fill="white"/>
</g>
</g>
<defs>
<clipPath id="clip0_5534_53597">
<rect width="48" height="24" fill="white" transform="translate(20 32)"/>
</clipPath>
<clipPath id="clip1_5534_53597">
<rect x="20" y="32" width="24" height="24" rx="12" fill="white"/>
</clipPath>
<clipPath id="clip2_5534_53597">
<rect width="164" height="64" fill="white" transform="translate(84 55)"/>
</clipPath>
<clipPath id="clip3_5534_53597">
<rect x="154" y="94.8" width="24" height="24" rx="12" fill="white"/>
</clipPath>
</defs>
</svg>
