<svg width="159" height="123" viewBox="0 0 159 123" fill="none" xmlns="http://www.w3.org/2000/svg">
<path d="M22.9457 76.14C22.9457 76.9933 22.739 77.72 22.3257 78.32C21.9124 78.92 21.319 79.3867 20.5457 79.72C19.7724 80.04 18.8524 80.2 17.7857 80.2C17.2657 80.2 16.7657 80.1667 16.2857 80.1C15.8057 80.0467 15.359 79.9667 14.9457 79.86C14.5324 79.7533 14.1657 79.62 13.8457 79.46V77.42C14.379 77.66 15.0057 77.88 15.7257 78.08C16.4457 78.2667 17.179 78.36 17.9257 78.36C18.5657 78.36 19.099 78.2733 19.5257 78.1C19.9524 77.9267 20.2724 77.6867 20.4857 77.38C20.699 77.0733 20.8057 76.7133 20.8057 76.3C20.8057 75.86 20.6924 75.4933 20.4657 75.2C20.2524 74.8933 19.9124 74.6133 19.4457 74.36C18.9924 74.0933 18.379 73.8133 17.6057 73.52C17.0724 73.32 16.5857 73.1 16.1457 72.86C15.719 72.6067 15.339 72.3133 15.0057 71.98C14.6857 71.6467 14.439 71.26 14.2657 70.82C14.0924 70.38 14.0057 69.8667 14.0057 69.28C14.0057 68.4933 14.199 67.82 14.5857 67.26C14.9857 66.7 15.5324 66.2733 16.2257 65.98C16.919 65.6733 17.7257 65.52 18.6457 65.52C19.419 65.52 20.1324 65.6 20.7857 65.76C21.4524 65.9067 22.0857 66.1133 22.6857 66.38L22.0057 68.16C21.459 67.9333 20.9057 67.7467 20.3457 67.6C19.7857 67.4533 19.199 67.38 18.5857 67.38C18.0524 67.38 17.6057 67.46 17.2457 67.62C16.8857 67.78 16.6124 68 16.4257 68.28C16.2524 68.56 16.1657 68.8867 16.1657 69.26C16.1657 69.7 16.2657 70.0667 16.4657 70.36C16.6657 70.6533 16.9857 70.9267 17.4257 71.18C17.8657 71.42 18.4457 71.6867 19.1657 71.98C19.9657 72.2867 20.6457 72.62 21.2057 72.98C21.779 73.34 22.2124 73.7733 22.5057 74.28C22.799 74.7733 22.9457 75.3933 22.9457 76.14ZM34.7818 69.22V80H33.0818L32.7818 78.58H32.6818C32.4551 78.9533 32.1618 79.26 31.8018 79.5C31.4418 79.74 31.0485 79.9133 30.6218 80.02C30.1951 80.14 29.7551 80.2 29.3018 80.2C28.4618 80.2 27.7485 80.0667 27.1618 79.8C26.5885 79.52 26.1485 79.0933 25.8418 78.52C25.5485 77.9333 25.4018 77.1867 25.4018 76.28V69.22H27.5418V75.96C27.5418 76.8 27.7151 77.4267 28.0618 77.84C28.4218 78.2533 28.9751 78.46 29.7218 78.46C30.4685 78.46 31.0551 78.3133 31.4818 78.02C31.9085 77.7267 32.2085 77.3 32.3818 76.74C32.5685 76.1667 32.6618 75.48 32.6618 74.68V69.22H34.7818ZM40.2195 69.22V80H38.0995V69.22H40.2195ZM39.1795 65.12C39.4995 65.12 39.7795 65.2133 40.0195 65.4C40.2595 65.5867 40.3795 65.9 40.3795 66.34C40.3795 66.7667 40.2595 67.08 40.0195 67.28C39.7795 67.4667 39.4995 67.56 39.1795 67.56C38.8328 67.56 38.5395 67.4667 38.2995 67.28C38.0728 67.08 37.9595 66.7667 37.9595 66.34C37.9595 65.9 38.0728 65.5867 38.2995 65.4C38.5395 65.2133 38.8328 65.12 39.1795 65.12ZM45.9687 80L41.8887 69.22H44.1287L46.3687 75.52C46.462 75.7867 46.5553 76.0867 46.6487 76.42C46.7553 76.7533 46.8487 77.0733 46.9287 77.38C47.0087 77.6867 47.062 77.9533 47.0887 78.18H47.1687C47.2087 77.9533 47.2687 77.6867 47.3487 77.38C47.442 77.06 47.542 76.74 47.6487 76.42C47.7553 76.0867 47.8487 75.7867 47.9287 75.52L50.1687 69.22H52.4087L48.3087 80H45.9687ZM58.256 69.02C59.616 69.02 60.6293 69.32 61.296 69.92C61.9627 70.5067 62.296 71.4333 62.296 72.7V80H60.796L60.376 78.5H60.296C59.9893 78.8867 59.6693 79.2067 59.336 79.46C59.016 79.7133 58.6427 79.9 58.216 80.02C57.8027 80.14 57.296 80.2 56.696 80.2C56.056 80.2 55.476 80.0867 54.956 79.86C54.4493 79.62 54.0493 79.26 53.756 78.78C53.4627 78.2867 53.316 77.6733 53.316 76.94C53.316 75.8467 53.7293 75.0133 54.556 74.44C55.396 73.8667 56.6693 73.5533 58.376 73.5L60.216 73.44V72.84C60.216 72.04 60.036 71.48 59.676 71.16C59.316 70.84 58.8093 70.68 58.156 70.68C57.596 70.68 57.0627 70.76 56.556 70.92C56.0493 71.08 55.5693 71.2733 55.116 71.5L54.436 69.96C54.9427 69.6933 55.5227 69.4733 56.176 69.3C56.8427 69.1133 57.536 69.02 58.256 69.02ZM58.756 74.86C57.5293 74.9133 56.676 75.12 56.196 75.48C55.7293 75.8267 55.496 76.32 55.496 76.96C55.496 77.52 55.6627 77.9267 55.996 78.18C56.3427 78.4333 56.776 78.56 57.296 78.56C58.136 78.56 58.8293 78.3267 59.376 77.86C59.9227 77.3933 60.196 76.6933 60.196 75.76V74.82L58.756 74.86ZM71.0204 69.02C72.2737 69.02 73.2337 69.3333 73.9004 69.96C74.5671 70.5867 74.9004 71.5933 74.9004 72.98V80H72.8004V73.28C72.8004 72.44 72.6204 71.8133 72.2604 71.4C71.9137 70.9733 71.3537 70.76 70.5804 70.76C69.4871 70.76 68.7271 71.0867 68.3004 71.74C67.8871 72.3933 67.6804 73.3333 67.6804 74.56V80H65.5604V69.22H67.2404L67.5404 70.66H67.6604C67.9004 70.2867 68.1937 69.98 68.5404 69.74C68.8871 69.5 69.2737 69.32 69.7004 69.2C70.1271 69.08 70.5671 69.02 71.0204 69.02ZM82.038 78.48C82.318 78.48 82.6047 78.4533 82.898 78.4C83.1914 78.3467 83.4447 78.2867 83.658 78.22V79.82C83.4314 79.9267 83.1247 80.0133 82.738 80.08C82.3514 80.16 81.9647 80.2 81.578 80.2C80.9914 80.2 80.4514 80.1 79.958 79.9C79.478 79.7 79.0914 79.3533 78.798 78.86C78.5047 78.3667 78.358 77.68 78.358 76.8V70.84H76.858V69.88L78.438 69.08L79.178 66.8H80.478V69.22H83.558V70.84H80.478V76.76C80.478 77.3467 80.618 77.78 80.898 78.06C81.1914 78.34 81.5714 78.48 82.038 78.48Z" fill="#2B4380"/>
<path d="M12.8457 82.5H84.1581V83.5H12.8457V82.5Z" fill="#2B4380"/>
<path d="M21.4867 96.2756C21.4867 97.1289 21.2496 97.8104 20.7756 98.32C20.3015 98.8178 19.6615 99.1496 18.8556 99.3156V99.3867C19.8748 99.5052 20.6333 99.8252 21.1311 100.347C21.6289 100.868 21.8778 101.55 21.8778 102.391C21.8778 103.126 21.7059 103.784 21.3622 104.364C21.0185 104.933 20.4852 105.378 19.7622 105.698C19.0511 106.018 18.1326 106.178 17.0067 106.178C16.343 106.178 15.7267 106.124 15.1578 106.018C14.5889 105.923 14.0437 105.745 13.5222 105.484V104.027C14.0556 104.287 14.6304 104.495 15.2467 104.649C15.863 104.791 16.4556 104.862 17.0244 104.862C18.1622 104.862 18.98 104.643 19.4778 104.204C19.9874 103.754 20.2422 103.138 20.2422 102.356C20.2422 101.561 19.9281 100.993 19.3 100.649C18.6837 100.293 17.8126 100.116 16.6867 100.116H15.46V98.7822H16.7044C17.7474 98.7822 18.5356 98.563 19.0689 98.1244C19.6141 97.6859 19.8867 97.1052 19.8867 96.3822C19.8867 95.7659 19.6793 95.2919 19.2644 94.96C18.8496 94.6163 18.2867 94.4444 17.5756 94.4444C16.8881 94.4444 16.3015 94.5452 15.8156 94.7467C15.3296 94.9481 14.8496 95.203 14.3756 95.5111L13.5933 94.4444C14.0437 94.0889 14.6007 93.7807 15.2644 93.52C15.94 93.2593 16.7044 93.1289 17.5578 93.1289C18.8852 93.1289 19.8689 93.4252 20.5089 94.0178C21.1607 94.6104 21.4867 95.363 21.4867 96.2756ZM32.4028 106.178C31.2176 106.178 30.2694 105.769 29.5583 104.951C28.8472 104.121 28.4917 102.889 28.4917 101.253C28.4917 99.6178 28.8472 98.3852 29.5583 97.5556C30.2813 96.7141 31.2354 96.2933 32.4206 96.2933C33.1554 96.2933 33.7539 96.4296 34.2161 96.7022C34.6902 96.9748 35.0754 97.3067 35.3717 97.6978H35.4783C35.4665 97.5437 35.4428 97.3185 35.4072 97.0222C35.3835 96.7141 35.3717 96.4711 35.3717 96.2933V92.4889H36.9361V106H35.6739L35.4428 104.72H35.3717C35.0872 105.123 34.708 105.467 34.2339 105.751C33.7598 106.036 33.1494 106.178 32.4028 106.178ZM32.6517 104.88C33.6591 104.88 34.3643 104.607 34.7672 104.062C35.182 103.505 35.3894 102.67 35.3894 101.556V101.271C35.3894 100.086 35.1939 99.1793 34.8028 98.5511C34.4117 97.9111 33.6887 97.5911 32.6339 97.5911C31.7924 97.5911 31.1583 97.9289 30.7317 98.6044C30.3169 99.2681 30.1094 100.163 30.1094 101.289C30.1094 102.427 30.3169 103.31 30.7317 103.938C31.1583 104.566 31.7983 104.88 32.6517 104.88ZM43.6425 96.2933C44.4603 96.2933 45.1595 96.4711 45.7403 96.8267C46.3329 97.1822 46.7832 97.6859 47.0914 98.3378C47.4114 98.9778 47.5714 99.7304 47.5714 100.596V101.538H41.0469C41.0706 102.616 41.3432 103.44 41.8647 104.009C42.3981 104.566 43.1388 104.844 44.0869 104.844C44.6914 104.844 45.2247 104.791 45.6869 104.684C46.161 104.566 46.6469 104.4 47.1447 104.187V105.556C46.6588 105.769 46.1788 105.923 45.7047 106.018C45.2306 106.124 44.6677 106.178 44.0158 106.178C43.1151 106.178 42.3151 105.994 41.6158 105.627C40.9284 105.259 40.3892 104.714 39.9981 103.991C39.6188 103.256 39.4292 102.361 39.4292 101.307C39.4292 100.264 39.601 99.3689 39.9447 98.6222C40.3003 97.8756 40.7921 97.3007 41.4203 96.8978C42.0603 96.4948 42.801 96.2933 43.6425 96.2933ZM43.6247 97.5733C42.8781 97.5733 42.2855 97.8163 41.8469 98.3022C41.4203 98.7763 41.1655 99.44 41.0825 100.293H45.9358C45.924 99.4874 45.7344 98.8356 45.3669 98.3378C44.9995 97.8281 44.4188 97.5733 43.6247 97.5733ZM61.8686 96.2756C61.8686 97.1289 61.6316 97.8104 61.1575 98.32C60.6834 98.8178 60.0434 99.1496 59.2375 99.3156V99.3867C60.2568 99.5052 61.0153 99.8252 61.5131 100.347C62.0108 100.868 62.2597 101.55 62.2597 102.391C62.2597 103.126 62.0879 103.784 61.7442 104.364C61.4005 104.933 60.8671 105.378 60.1442 105.698C59.4331 106.018 58.5145 106.178 57.3886 106.178C56.7249 106.178 56.1086 106.124 55.5397 106.018C54.9708 105.923 54.4256 105.745 53.9042 105.484V104.027C54.4375 104.287 55.0123 104.495 55.6286 104.649C56.2449 104.791 56.8375 104.862 57.4064 104.862C58.5442 104.862 59.3619 104.643 59.8597 104.204C60.3694 103.754 60.6242 103.138 60.6242 102.356C60.6242 101.561 60.3101 100.993 59.6819 100.649C59.0656 100.293 58.1945 100.116 57.0686 100.116H55.8419V98.7822H57.0864C58.1294 98.7822 58.9175 98.563 59.4508 98.1244C59.996 97.6859 60.2686 97.1052 60.2686 96.3822C60.2686 95.7659 60.0612 95.2919 59.6464 94.96C59.2316 94.6163 58.6686 94.4444 57.9575 94.4444C57.2701 94.4444 56.6834 94.5452 56.1975 94.7467C55.7116 94.9481 55.2316 95.203 54.7575 95.5111L53.9753 94.4444C54.4256 94.0889 54.9827 93.7807 55.6464 93.52C56.3219 93.2593 57.0864 93.1289 57.9397 93.1289C59.2671 93.1289 60.2508 93.4252 60.8908 94.0178C61.5427 94.6104 61.8686 95.363 61.8686 96.2756Z" fill="#2B4380"/>
<path d="M12.7222 108.222H63.2731V109.111H12.7222V108.222Z" fill="#2B4380"/>
<path d="M110.859 73.3984L104.609 79.6484C104.375 79.8828 104.062 80 103.75 80C103.398 80 103.086 79.8828 102.852 79.6484C102.344 79.1797 102.344 78.3594 102.852 77.8906L106.953 73.75H95C94.2969 73.75 93.75 73.2031 93.75 72.5C93.75 71.8359 94.2969 71.25 95 71.25H106.953L102.852 67.1484C102.344 66.6797 102.344 65.8594 102.852 65.3906C103.32 64.8828 104.141 64.8828 104.609 65.3906L110.859 71.6406C111.367 72.1094 111.367 72.9297 110.859 73.3984Z" fill="#2B4380"/>
<g clip-path="url(#clip0_217_3553)">
<rect x="48" width="1" height="60" fill="#C54600"/>
<g clip-path="url(#clip1_217_3553)">
<rect x="36" width="24" height="24" rx="12" fill="#C54600"/>
<path d="M49.8302 6.81818V17H47.6775V8.86151H47.6178L45.2861 10.3232V8.41406L47.8067 6.81818H49.8302Z" fill="white"/>
</g>
</g>
<g clip-path="url(#clip2_217_3553)">
<rect x="72" y="99" width="87" height="1" fill="#C54600"/>
<g clip-path="url(#clip3_217_3553)">
<rect x="135" y="87" width="24" height="24" rx="12" fill="#C54600"/>
<path d="M146.975 104.139C146.232 104.139 145.571 104.012 144.991 103.756C144.414 103.498 143.958 103.143 143.624 102.692C143.292 102.238 143.122 101.715 143.112 101.121H145.279C145.292 101.37 145.374 101.589 145.523 101.778C145.675 101.963 145.877 102.107 146.129 102.21C146.381 102.313 146.665 102.364 146.979 102.364C147.308 102.364 147.598 102.306 147.85 102.19C148.101 102.074 148.299 101.914 148.441 101.708C148.584 101.503 148.655 101.266 148.655 100.997C148.655 100.725 148.579 100.485 148.426 100.276C148.277 100.064 148.062 99.8984 147.78 99.7791C147.502 99.6598 147.17 99.6001 146.786 99.6001H145.836V98.0192H146.786C147.11 98.0192 147.397 97.9628 147.646 97.8501C147.898 97.7375 148.093 97.5817 148.232 97.3828C148.372 97.1806 148.441 96.9453 148.441 96.6768C148.441 96.4216 148.38 96.1979 148.257 96.0057C148.138 95.8101 147.969 95.6577 147.75 95.5483C147.535 95.4389 147.283 95.3842 146.994 95.3842C146.703 95.3842 146.436 95.4373 146.194 95.5433C145.952 95.6461 145.758 95.7936 145.612 95.9858C145.466 96.178 145.389 96.4034 145.379 96.6619H143.315C143.325 96.0753 143.493 95.5582 143.818 95.1108C144.142 94.6634 144.58 94.3137 145.13 94.0618C145.684 93.8066 146.308 93.679 147.004 93.679C147.707 93.679 148.322 93.8066 148.849 94.0618C149.376 94.317 149.785 94.6617 150.077 95.0959C150.372 95.5268 150.518 96.0107 150.514 96.5476C150.518 97.1177 150.34 97.5933 149.982 97.9744C149.628 98.3556 149.165 98.5975 148.595 98.7003V98.7798C149.344 98.8759 149.914 99.1361 150.305 99.5604C150.7 99.9813 150.895 100.508 150.892 101.141C150.895 101.721 150.728 102.237 150.39 102.688C150.055 103.138 149.593 103.493 149.003 103.751C148.413 104.01 147.737 104.139 146.975 104.139Z" fill="white"/>
</g>
</g>
<g clip-path="url(#clip4_217_3553)">
<rect x="101" width="1" height="60" fill="#C54600"/>
<g clip-path="url(#clip5_217_3553)">
<rect x="89" width="24" height="24" rx="12" fill="#C54600"/>
<path d="M97.4161 17V15.4489L101.04 12.093C101.349 11.7947 101.607 11.5263 101.816 11.2876C102.028 11.049 102.189 10.8153 102.298 10.5866C102.408 10.3546 102.462 10.1044 102.462 9.83594C102.462 9.53764 102.394 9.28078 102.258 9.06534C102.123 8.84659 101.937 8.67921 101.702 8.56321C101.466 8.44389 101.199 8.38423 100.901 8.38423C100.59 8.38423 100.318 8.44721 100.086 8.57315C99.8538 8.6991 99.6749 8.87973 99.5489 9.11506C99.423 9.35038 99.36 9.63044 99.36 9.95526H97.3167C97.3167 9.28906 97.4675 8.7107 97.7691 8.22017C98.0707 7.72964 98.4933 7.35014 99.0368 7.08168C99.5804 6.81321 100.207 6.67898 100.916 6.67898C101.645 6.67898 102.28 6.80824 102.82 7.06676C103.364 7.32197 103.786 7.67661 104.088 8.13068C104.39 8.58475 104.54 9.10511 104.54 9.69176C104.54 10.0762 104.464 10.4557 104.312 10.8303C104.163 11.2048 103.896 11.6207 103.511 12.0781C103.127 12.5322 102.585 13.0774 101.886 13.7138L100.399 15.1705V15.2401H104.675V17H97.4161Z" fill="white"/>
</g>
</g>
<defs>
<clipPath id="clip0_217_3553">
<rect width="24" height="60" fill="white" transform="translate(36)"/>
</clipPath>
<clipPath id="clip1_217_3553">
<rect x="36" width="24" height="24" rx="12" fill="white"/>
</clipPath>
<clipPath id="clip2_217_3553">
<rect width="87" height="24" fill="white" transform="translate(72 87)"/>
</clipPath>
<clipPath id="clip3_217_3553">
<rect x="135" y="87" width="24" height="24" rx="12" fill="white"/>
</clipPath>
<clipPath id="clip4_217_3553">
<rect width="24" height="60" fill="white" transform="translate(89)"/>
</clipPath>
<clipPath id="clip5_217_3553">
<rect x="89" width="24" height="24" rx="12" fill="white"/>
</clipPath>
</defs>
</svg>
