<svg width="365" height="176" viewBox="0 0 365 176" fill="none" xmlns="http://www.w3.org/2000/svg">
<g clip-path="url(#clip0_5534_64818)">
<path d="M76.7 92.11L76.69 94H67.71V79.6H76.69V81.49H70.06V85.83H75.36V87.66H70.06V92.11H76.7ZM76.35 75.43L73.1 78.29C72.98 78.3967 72.8667 78.4633 72.76 78.49C72.6533 78.5167 72.52 78.53 72.36 78.53H70.81L73.01 75.8C73.07 75.7133 73.13 75.6467 73.19 75.6C73.25 75.5533 73.3167 75.5167 73.39 75.49C73.4633 75.4633 73.5433 75.4467 73.63 75.44C73.7233 75.4333 73.83 75.43 73.95 75.43H76.35ZM81.6738 94.16C80.8271 94.16 80.1738 93.9233 79.7138 93.45C79.2604 92.97 79.0338 92.2967 79.0338 91.43V85.49H77.9138C77.7938 85.49 77.6904 85.4533 77.6038 85.38C77.5171 85.3 77.4738 85.1833 77.4738 85.03V84.16L79.1238 83.92L79.5938 80.97C79.6271 80.8567 79.6838 80.7667 79.7638 80.7C79.8438 80.6267 79.9504 80.59 80.0838 80.59H81.1838V83.94H84.0138V85.49H81.1838V91.28C81.1838 91.6467 81.2738 91.9267 81.4538 92.12C81.6338 92.3133 81.8738 92.41 82.1738 92.41C82.3404 92.41 82.4838 92.39 82.6037 92.35C82.7238 92.3033 82.8271 92.2567 82.9138 92.21C83.0004 92.1567 83.0738 92.11 83.1338 92.07C83.2004 92.0233 83.2638 92 83.3238 92C83.4438 92 83.5404 92.0667 83.6138 92.2L84.2538 93.25C83.9204 93.5433 83.5271 93.77 83.0738 93.93C82.6204 94.0833 82.1538 94.16 81.6738 94.16ZM91.1584 89.54C90.3918 89.5667 89.7451 89.63 89.2184 89.73C88.6918 89.8233 88.2651 89.9467 87.9384 90.1C87.6118 90.2467 87.3751 90.4233 87.2284 90.63C87.0884 90.8367 87.0184 91.0633 87.0184 91.31C87.0184 91.55 87.0551 91.7567 87.1284 91.93C87.2084 92.0967 87.3151 92.2367 87.4484 92.35C87.5884 92.4567 87.7484 92.5367 87.9284 92.59C88.1151 92.6367 88.3184 92.66 88.5384 92.66C89.0984 92.66 89.5784 92.5567 89.9784 92.35C90.3851 92.1367 90.7784 91.83 91.1584 91.43V89.54ZM85.4584 85.22C86.6118 84.1467 87.9851 83.61 89.5784 83.61C90.1651 83.61 90.6851 83.7067 91.1384 83.9C91.5984 84.0867 91.9818 84.3533 92.2884 84.7C92.6018 85.0467 92.8384 85.46 92.9984 85.94C93.1651 86.4133 93.2484 86.94 93.2484 87.52V94H92.2884C92.0818 94 91.9251 93.97 91.8184 93.91C91.7118 93.8433 91.6218 93.7133 91.5484 93.52L91.3384 92.69C91.0784 92.9233 90.8218 93.1333 90.5684 93.32C90.3151 93.5 90.0518 93.6533 89.7784 93.78C89.5118 93.9067 89.2218 94 88.9084 94.06C88.6018 94.1267 88.2618 94.16 87.8884 94.16C87.4751 94.16 87.0884 94.1033 86.7284 93.99C86.3751 93.8767 86.0684 93.7067 85.8084 93.48C85.5484 93.2467 85.3418 92.96 85.1884 92.62C85.0418 92.28 84.9684 91.88 84.9684 91.42C84.9684 91.0267 85.0718 90.6433 85.2784 90.27C85.4918 89.8967 85.8384 89.5633 86.3184 89.27C86.8051 88.97 87.4418 88.7233 88.2284 88.53C89.0218 88.3367 89.9984 88.2267 91.1584 88.2V87.52C91.1584 86.7867 91.0018 86.24 90.6884 85.88C90.3751 85.52 89.9151 85.34 89.3084 85.34C88.8951 85.34 88.5484 85.3933 88.2684 85.5C87.9884 85.6 87.7451 85.71 87.5384 85.83C87.3318 85.95 87.1484 86.0633 86.9884 86.17C86.8284 86.27 86.6584 86.32 86.4784 86.32C86.3318 86.32 86.2051 86.2833 86.0984 86.21C85.9984 86.13 85.9151 86.0333 85.8484 85.92L85.4584 85.22ZM97.917 91.44C98.217 91.8267 98.5437 92.1 98.897 92.26C99.257 92.4133 99.6537 92.49 100.087 92.49C100.927 92.49 101.58 92.1833 102.047 91.57C102.52 90.9567 102.757 90.0433 102.757 88.83C102.757 88.2033 102.704 87.67 102.597 87.23C102.49 86.7833 102.337 86.42 102.137 86.14C101.937 85.86 101.694 85.6567 101.407 85.53C101.12 85.4033 100.797 85.34 100.437 85.34C99.8904 85.34 99.417 85.46 99.017 85.7C98.6237 85.9333 98.257 86.27 97.917 86.71V91.44ZM97.807 85.28C98.2337 84.78 98.717 84.3767 99.257 84.07C99.8037 83.7633 100.437 83.61 101.157 83.61C101.73 83.61 102.25 83.7267 102.717 83.96C103.184 84.1867 103.584 84.52 103.917 84.96C104.25 85.4 104.507 85.9467 104.687 86.6C104.874 87.2467 104.967 87.99 104.967 88.83C104.967 89.5833 104.864 90.2867 104.657 90.94C104.457 91.5867 104.167 92.15 103.787 92.63C103.407 93.1033 102.947 93.4767 102.407 93.75C101.867 94.0167 101.257 94.15 100.577 94.15C99.977 94.15 99.467 94.0533 99.047 93.86C98.6337 93.6667 98.257 93.4 97.917 93.06V97.39H95.767V83.8H97.067C97.3604 83.8 97.547 83.9367 97.627 84.21L97.807 85.28ZM113.746 87.75C113.746 87.39 113.693 87.0567 113.586 86.75C113.486 86.4367 113.336 86.1667 113.136 85.94C112.936 85.7067 112.686 85.5267 112.386 85.4C112.093 85.2667 111.753 85.2 111.366 85.2C110.586 85.2 109.973 85.4233 109.526 85.87C109.079 86.3167 108.796 86.9433 108.676 87.75H113.746ZM108.616 89.07C108.643 89.65 108.733 90.1533 108.886 90.58C109.039 91 109.243 91.35 109.496 91.63C109.756 91.91 110.063 92.12 110.416 92.26C110.776 92.3933 111.176 92.46 111.616 92.46C112.036 92.46 112.399 92.4133 112.706 92.32C113.013 92.22 113.279 92.1133 113.506 92C113.733 91.88 113.926 91.7733 114.086 91.68C114.246 91.58 114.393 91.53 114.526 91.53C114.699 91.53 114.833 91.5967 114.926 91.73L115.536 92.52C115.283 92.82 114.996 93.0733 114.676 93.28C114.356 93.4867 114.016 93.6567 113.656 93.79C113.296 93.9167 112.926 94.0067 112.546 94.06C112.166 94.12 111.796 94.15 111.436 94.15C110.729 94.15 110.073 94.0333 109.466 93.8C108.866 93.56 108.343 93.21 107.896 92.75C107.456 92.29 107.109 91.72 106.856 91.04C106.609 90.36 106.486 89.5767 106.486 88.69C106.486 87.9833 106.596 87.3233 106.816 86.71C107.043 86.0967 107.363 85.5633 107.776 85.11C108.196 84.6567 108.703 84.3 109.296 84.04C109.896 83.7733 110.573 83.64 111.326 83.64C111.953 83.64 112.533 83.7433 113.066 83.95C113.599 84.15 114.059 84.4467 114.446 84.84C114.833 85.2333 115.133 85.7167 115.346 86.29C115.566 86.8567 115.676 87.5033 115.676 88.23C115.676 88.5633 115.639 88.7867 115.566 88.9C115.493 89.0133 115.359 89.07 115.166 89.07H108.616Z" fill="#333333"/>
<path d="M131.27 92.37V94H123.42V92.37H126.42V83.35C126.42 83.03 126.43 82.7033 126.45 82.37L124.14 84.32C124.04 84.4 123.937 84.4533 123.83 84.48C123.73 84.5 123.633 84.5 123.54 84.48C123.453 84.46 123.373 84.43 123.3 84.39C123.233 84.3433 123.18 84.2933 123.14 84.24L122.47 83.3L126.81 79.57H128.56V92.37H131.27Z" fill="#333333"/>
<path d="M144.82 86.31C144.52 85.9233 144.19 85.6533 143.83 85.5C143.47 85.3467 143.08 85.27 142.66 85.27C141.82 85.27 141.163 85.58 140.69 86.2C140.217 86.8133 139.98 87.7233 139.98 88.93C139.98 89.5567 140.033 90.0933 140.14 90.54C140.247 90.98 140.4 91.34 140.6 91.62C140.8 91.9 141.043 92.1033 141.33 92.23C141.617 92.3567 141.94 92.42 142.3 92.42C142.847 92.42 143.317 92.3033 143.71 92.07C144.11 91.83 144.48 91.4933 144.82 91.06V86.31ZM146.97 79.2V94H145.67C145.383 94 145.2 93.8633 145.12 93.59L144.93 92.48C144.503 92.98 144.017 93.3833 143.47 93.69C142.93 93.9967 142.3 94.15 141.58 94.15C141.007 94.15 140.487 94.0367 140.02 93.81C139.553 93.5767 139.153 93.24 138.82 92.8C138.487 92.36 138.227 91.8167 138.04 91.17C137.86 90.5167 137.77 89.77 137.77 88.93C137.77 88.17 137.87 87.4667 138.07 86.82C138.277 86.1733 138.57 85.6133 138.95 85.14C139.33 84.66 139.79 84.2867 140.33 84.02C140.877 83.7467 141.487 83.61 142.16 83.61C142.76 83.61 143.27 83.7067 143.69 83.9C144.11 84.0867 144.487 84.35 144.82 84.69V79.2H146.97ZM156.289 87.75C156.289 87.39 156.236 87.0567 156.129 86.75C156.029 86.4367 155.879 86.1667 155.679 85.94C155.479 85.7067 155.229 85.5267 154.929 85.4C154.636 85.2667 154.296 85.2 153.909 85.2C153.129 85.2 152.516 85.4233 152.069 85.87C151.622 86.3167 151.339 86.9433 151.219 87.75H156.289ZM151.159 89.07C151.186 89.65 151.276 90.1533 151.429 90.58C151.582 91 151.786 91.35 152.039 91.63C152.299 91.91 152.606 92.12 152.959 92.26C153.319 92.3933 153.719 92.46 154.159 92.46C154.579 92.46 154.942 92.4133 155.249 92.32C155.556 92.22 155.822 92.1133 156.049 92C156.276 91.88 156.469 91.7733 156.629 91.68C156.789 91.58 156.936 91.53 157.069 91.53C157.242 91.53 157.376 91.5967 157.469 91.73L158.079 92.52C157.826 92.82 157.539 93.0733 157.219 93.28C156.899 93.4867 156.559 93.6567 156.199 93.79C155.839 93.9167 155.469 94.0067 155.089 94.06C154.709 94.12 154.339 94.15 153.979 94.15C153.272 94.15 152.616 94.0333 152.009 93.8C151.409 93.56 150.886 93.21 150.439 92.75C149.999 92.29 149.652 91.72 149.399 91.04C149.152 90.36 149.029 89.5767 149.029 88.69C149.029 87.9833 149.139 87.3233 149.359 86.71C149.586 86.0967 149.906 85.5633 150.319 85.11C150.739 84.6567 151.246 84.3 151.839 84.04C152.439 83.7733 153.116 83.64 153.869 83.64C154.496 83.64 155.076 83.7433 155.609 83.95C156.142 84.15 156.602 84.4467 156.989 84.84C157.376 85.2333 157.676 85.7167 157.889 86.29C158.109 86.8567 158.219 87.5033 158.219 88.23C158.219 88.5633 158.182 88.7867 158.109 88.9C158.036 89.0133 157.902 89.07 157.709 89.07H151.159Z" fill="#333333"/>
<path d="M170.21 88.68V83.42C170.21 83 170.24 82.54 170.3 82.04L165.46 88.68H170.21ZM174.07 88.68V89.92C174.07 90.04 174.03 90.1433 173.95 90.23C173.877 90.3167 173.763 90.36 173.61 90.36H172.08V94H170.21V90.36H163.98C163.827 90.36 163.693 90.3167 163.58 90.23C163.473 90.1367 163.403 90.0233 163.37 89.89L163.15 88.79L170.06 79.59H172.08V88.68H174.07Z" fill="#333333"/>
</g>
<path d="M88.8345 123.112H80.3325V147H75.087V123.112H66.585V118.803H88.8345V123.112ZM96.5653 126.993V147H91.7293V126.993H96.5653ZM97.2283 121.162C97.2283 121.578 97.1438 121.968 96.9748 122.332C96.8058 122.696 96.5783 123.015 96.2923 123.288C96.0193 123.561 95.6943 123.782 95.3173 123.951C94.9403 124.107 94.5373 124.185 94.1083 124.185C93.6923 124.185 93.2958 124.107 92.9188 123.951C92.5548 123.782 92.2363 123.561 91.9633 123.288C91.6903 123.015 91.4693 122.696 91.3003 122.332C91.1443 121.968 91.0663 121.578 91.0663 121.162C91.0663 120.733 91.1443 120.33 91.3003 119.953C91.4693 119.576 91.6903 119.251 91.9633 118.978C92.2363 118.705 92.5548 118.491 92.9188 118.335C93.2958 118.166 93.6923 118.081 94.1083 118.081C94.5373 118.081 94.9403 118.166 95.3173 118.335C95.6943 118.491 96.0193 118.705 96.2923 118.978C96.5783 119.251 96.8058 119.576 96.9748 119.953C97.1438 120.33 97.2283 120.733 97.2283 121.162ZM108.145 147.312C106.403 147.312 105.064 146.824 104.128 145.849C103.205 144.861 102.743 143.503 102.743 141.774V130.6H100.696C100.436 130.6 100.215 130.516 100.033 130.347C99.8507 130.178 99.7597 129.924 99.7597 129.586V127.675L102.977 127.149L103.991 121.689C104.056 121.429 104.18 121.227 104.362 121.084C104.544 120.941 104.778 120.87 105.064 120.87H107.56V127.168H112.903V130.6H107.56V141.442C107.56 142.066 107.709 142.554 108.008 142.905C108.32 143.256 108.743 143.431 109.276 143.431C109.575 143.431 109.822 143.399 110.017 143.334C110.225 143.256 110.4 143.178 110.543 143.1C110.699 143.022 110.836 142.95 110.953 142.885C111.07 142.807 111.187 142.768 111.304 142.768C111.447 142.768 111.564 142.807 111.655 142.885C111.746 142.95 111.843 143.054 111.947 143.197L113.39 145.537C112.688 146.122 111.882 146.564 110.972 146.863C110.062 147.163 109.12 147.312 108.145 147.312ZM120.53 130.464C121.154 129.268 121.895 128.332 122.753 127.656C123.611 126.967 124.625 126.622 125.795 126.622C126.718 126.622 127.459 126.824 128.018 127.227L127.706 130.834C127.641 131.068 127.543 131.237 127.413 131.341C127.296 131.432 127.134 131.478 126.926 131.478C126.731 131.478 126.438 131.445 126.048 131.38C125.671 131.315 125.301 131.283 124.937 131.283C124.404 131.283 123.929 131.361 123.513 131.517C123.097 131.673 122.72 131.9 122.382 132.199C122.057 132.485 121.765 132.836 121.505 133.252C121.258 133.668 121.024 134.143 120.803 134.676V147H115.986V126.993H118.814C119.308 126.993 119.652 127.084 119.847 127.266C120.042 127.435 120.172 127.747 120.237 128.202L120.53 130.464ZM142.853 134.695C142.853 134.071 142.762 133.486 142.58 132.94C142.411 132.381 142.151 131.894 141.8 131.478C141.449 131.062 141.001 130.737 140.455 130.503C139.922 130.256 139.298 130.132 138.583 130.132C137.192 130.132 136.093 130.529 135.287 131.322C134.494 132.115 133.987 133.239 133.766 134.695H142.853ZM133.669 137.601C133.747 138.628 133.929 139.518 134.215 140.272C134.501 141.013 134.878 141.631 135.346 142.125C135.814 142.606 136.366 142.97 137.003 143.217C137.653 143.451 138.368 143.568 139.148 143.568C139.928 143.568 140.598 143.477 141.157 143.295C141.729 143.113 142.223 142.911 142.639 142.69C143.068 142.469 143.438 142.268 143.75 142.086C144.075 141.904 144.387 141.813 144.686 141.813C145.089 141.813 145.388 141.962 145.583 142.261L146.968 144.016C146.435 144.64 145.837 145.167 145.174 145.596C144.511 146.012 143.815 146.35 143.087 146.61C142.372 146.857 141.638 147.033 140.884 147.137C140.143 147.241 139.421 147.293 138.719 147.293C137.328 147.293 136.035 147.065 134.839 146.61C133.643 146.142 132.603 145.459 131.719 144.562C130.835 143.652 130.139 142.534 129.632 141.208C129.125 139.869 128.872 138.322 128.872 136.567C128.872 135.202 129.093 133.922 129.535 132.726C129.977 131.517 130.607 130.47 131.426 129.586C132.258 128.689 133.266 127.981 134.449 127.461C135.645 126.941 136.99 126.681 138.485 126.681C139.746 126.681 140.91 126.882 141.976 127.285C143.042 127.688 143.958 128.28 144.725 129.06C145.492 129.827 146.09 130.776 146.519 131.907C146.961 133.025 147.182 134.305 147.182 135.748C147.182 136.476 147.104 136.97 146.948 137.23C146.792 137.477 146.493 137.601 146.051 137.601H133.669ZM172.838 132.102C172.292 131.439 171.694 130.971 171.044 130.698C170.407 130.425 169.718 130.288 168.977 130.288C168.249 130.288 167.593 130.425 167.008 130.698C166.423 130.971 165.922 131.387 165.506 131.946C165.09 132.492 164.772 133.194 164.551 134.052C164.33 134.897 164.219 135.898 164.219 137.055C164.219 138.225 164.31 139.219 164.492 140.038C164.687 140.844 164.96 141.507 165.311 142.027C165.662 142.534 166.091 142.905 166.598 143.139C167.105 143.36 167.671 143.47 168.295 143.47C169.296 143.47 170.147 143.262 170.849 142.846C171.551 142.43 172.214 141.839 172.838 141.072V132.102ZM177.655 118.023V147H174.71C174.073 147 173.67 146.707 173.501 146.122L173.092 144.192C172.286 145.115 171.356 145.862 170.303 146.434C169.263 147.007 168.048 147.293 166.657 147.293C165.565 147.293 164.564 147.065 163.654 146.61C162.744 146.155 161.957 145.498 161.294 144.64C160.644 143.769 160.137 142.697 159.773 141.423C159.422 140.149 159.247 138.693 159.247 137.055C159.247 135.573 159.448 134.195 159.851 132.921C160.254 131.647 160.833 130.542 161.587 129.606C162.341 128.67 163.244 127.942 164.297 127.422C165.35 126.889 166.533 126.622 167.846 126.622C168.964 126.622 169.92 126.798 170.713 127.149C171.506 127.5 172.214 127.974 172.838 128.572V118.023H177.655ZM185.684 116.911C186.308 117.938 186.731 119.011 186.952 120.129C187.173 121.234 187.192 122.332 187.01 123.424C186.828 124.503 186.445 125.543 185.86 126.544C185.288 127.532 184.514 128.423 183.539 129.216L182.018 128.299C181.888 128.221 181.797 128.13 181.745 128.026C181.693 127.909 181.667 127.799 181.667 127.695C181.68 127.578 181.706 127.467 181.745 127.363C181.797 127.259 181.862 127.168 181.94 127.09C182.213 126.765 182.473 126.336 182.72 125.803C182.967 125.27 183.136 124.672 183.227 124.009C183.331 123.346 183.318 122.638 183.188 121.884C183.071 121.13 182.779 120.376 182.311 119.622C182.09 119.245 182.025 118.92 182.116 118.647C182.22 118.361 182.434 118.159 182.759 118.042L185.684 116.911ZM202.61 134.695C202.61 134.071 202.519 133.486 202.337 132.94C202.168 132.381 201.908 131.894 201.557 131.478C201.206 131.062 200.758 130.737 200.212 130.503C199.679 130.256 199.055 130.132 198.34 130.132C196.949 130.132 195.85 130.529 195.044 131.322C194.251 132.115 193.744 133.239 193.523 134.695H202.61ZM193.426 137.601C193.504 138.628 193.686 139.518 193.972 140.272C194.258 141.013 194.635 141.631 195.103 142.125C195.571 142.606 196.123 142.97 196.76 143.217C197.41 143.451 198.125 143.568 198.905 143.568C199.685 143.568 200.355 143.477 200.914 143.295C201.486 143.113 201.98 142.911 202.396 142.69C202.825 142.469 203.195 142.268 203.507 142.086C203.832 141.904 204.144 141.813 204.443 141.813C204.846 141.813 205.145 141.962 205.34 142.261L206.725 144.016C206.192 144.64 205.594 145.167 204.931 145.596C204.268 146.012 203.572 146.35 202.844 146.61C202.129 146.857 201.395 147.033 200.641 147.137C199.9 147.241 199.178 147.293 198.476 147.293C197.085 147.293 195.792 147.065 194.596 146.61C193.4 146.142 192.36 145.459 191.476 144.562C190.592 143.652 189.896 142.534 189.389 141.208C188.882 139.869 188.629 138.322 188.629 136.567C188.629 135.202 188.85 133.922 189.292 132.726C189.734 131.517 190.364 130.47 191.183 129.586C192.015 128.689 193.023 127.981 194.206 127.461C195.402 126.941 196.747 126.681 198.242 126.681C199.503 126.681 200.667 126.882 201.733 127.285C202.799 127.688 203.715 128.28 204.482 129.06C205.249 129.827 205.847 130.776 206.276 131.907C206.718 133.025 206.939 134.305 206.939 135.748C206.939 136.476 206.861 136.97 206.705 137.23C206.549 137.477 206.25 137.601 205.808 137.601H193.426ZM205.106 118.491L200.29 123.58C200.043 123.84 199.802 124.022 199.568 124.126C199.347 124.217 199.055 124.263 198.691 124.263H195.805L198.574 119.524C198.769 119.186 198.996 118.933 199.256 118.764C199.516 118.582 199.906 118.491 200.426 118.491H205.106ZM217.032 147.312C215.29 147.312 213.951 146.824 213.015 145.849C212.092 144.861 211.631 143.503 211.631 141.774V130.6H209.583C209.323 130.6 209.102 130.516 208.92 130.347C208.738 130.178 208.647 129.924 208.647 129.586V127.675L211.865 127.149L212.879 121.689C212.944 121.429 213.067 121.227 213.249 121.084C213.431 120.941 213.665 120.87 213.951 120.87H216.447V127.168H221.79V130.6H216.447V141.442C216.447 142.066 216.597 142.554 216.896 142.905C217.208 143.256 217.63 143.431 218.163 143.431C218.462 143.431 218.709 143.399 218.904 143.334C219.112 143.256 219.288 143.178 219.431 143.1C219.587 143.022 219.723 142.95 219.84 142.885C219.957 142.807 220.074 142.768 220.191 142.768C220.334 142.768 220.451 142.807 220.542 142.885C220.633 142.95 220.731 143.054 220.835 143.197L222.278 145.537C221.576 146.122 220.77 146.564 219.86 146.863C218.95 147.163 218.007 147.312 217.032 147.312ZM235.443 138.459C234.052 138.524 232.882 138.647 231.933 138.829C230.984 138.998 230.224 139.219 229.652 139.492C229.08 139.765 228.67 140.084 228.423 140.448C228.176 140.812 228.053 141.208 228.053 141.637C228.053 142.482 228.3 143.087 228.794 143.451C229.301 143.815 229.957 143.997 230.763 143.997C231.751 143.997 232.603 143.821 233.318 143.47C234.046 143.106 234.754 142.56 235.443 141.832V138.459ZM224.406 129.781C226.707 127.675 229.476 126.622 232.713 126.622C233.883 126.622 234.93 126.817 235.853 127.207C236.776 127.584 237.556 128.117 238.193 128.806C238.83 129.482 239.311 130.295 239.636 131.244C239.974 132.193 240.143 133.233 240.143 134.364V147H237.959C237.504 147 237.153 146.935 236.906 146.805C236.659 146.662 236.464 146.382 236.321 145.966L235.892 144.523C235.385 144.978 234.891 145.381 234.41 145.732C233.929 146.07 233.428 146.356 232.908 146.59C232.388 146.824 231.829 147 231.231 147.117C230.646 147.247 229.996 147.312 229.281 147.312C228.436 147.312 227.656 147.202 226.941 146.98C226.226 146.746 225.609 146.402 225.089 145.947C224.569 145.492 224.166 144.926 223.88 144.25C223.594 143.574 223.451 142.788 223.451 141.891C223.451 141.384 223.535 140.883 223.704 140.389C223.873 139.882 224.146 139.401 224.523 138.946C224.913 138.491 225.414 138.062 226.025 137.659C226.636 137.256 227.383 136.905 228.267 136.606C229.164 136.307 230.204 136.067 231.387 135.885C232.57 135.69 233.922 135.573 235.443 135.534V134.364C235.443 133.025 235.157 132.037 234.585 131.4C234.013 130.75 233.188 130.425 232.109 130.425C231.329 130.425 230.679 130.516 230.159 130.698C229.652 130.88 229.203 131.088 228.813 131.322C228.423 131.543 228.066 131.744 227.741 131.926C227.429 132.108 227.078 132.199 226.688 132.199C226.35 132.199 226.064 132.115 225.83 131.946C225.596 131.764 225.407 131.556 225.264 131.322L224.406 129.781ZM249.495 141.813C250.041 142.476 250.633 142.944 251.27 143.217C251.92 143.49 252.622 143.626 253.376 143.626C254.104 143.626 254.76 143.49 255.345 143.217C255.93 142.944 256.424 142.528 256.827 141.969C257.243 141.41 257.562 140.708 257.783 139.863C258.004 139.005 258.114 137.997 258.114 136.84C258.114 135.67 258.017 134.682 257.822 133.876C257.64 133.057 257.373 132.394 257.022 131.887C256.671 131.38 256.242 131.01 255.735 130.776C255.241 130.542 254.676 130.425 254.039 130.425C253.038 130.425 252.186 130.639 251.484 131.068C250.782 131.484 250.119 132.076 249.495 132.843V141.813ZM249.242 129.723C250.061 128.8 250.99 128.052 252.03 127.48C253.07 126.908 254.292 126.622 255.696 126.622C256.788 126.622 257.783 126.85 258.68 127.305C259.59 127.76 260.37 128.423 261.02 129.294C261.683 130.152 262.19 131.218 262.541 132.492C262.905 133.753 263.087 135.202 263.087 136.84C263.087 138.335 262.885 139.72 262.482 140.994C262.079 142.268 261.501 143.373 260.747 144.309C260.006 145.245 259.102 145.98 258.036 146.512C256.983 147.033 255.8 147.293 254.487 147.293C253.369 147.293 252.414 147.124 251.621 146.785C250.828 146.434 250.119 145.953 249.495 145.342V153.533H244.679V126.993H247.623C248.247 126.993 248.657 127.285 248.852 127.87L249.242 129.723ZM279.734 134.695C279.734 134.071 279.643 133.486 279.461 132.94C279.292 132.381 279.032 131.894 278.681 131.478C278.33 131.062 277.882 130.737 277.336 130.503C276.803 130.256 276.179 130.132 275.464 130.132C274.073 130.132 272.974 130.529 272.168 131.322C271.375 132.115 270.868 133.239 270.647 134.695H279.734ZM270.55 137.601C270.628 138.628 270.81 139.518 271.096 140.272C271.382 141.013 271.759 141.631 272.227 142.125C272.695 142.606 273.247 142.97 273.884 143.217C274.534 143.451 275.249 143.568 276.029 143.568C276.809 143.568 277.479 143.477 278.038 143.295C278.61 143.113 279.104 142.911 279.52 142.69C279.949 142.469 280.319 142.268 280.631 142.086C280.956 141.904 281.268 141.813 281.567 141.813C281.97 141.813 282.269 141.962 282.464 142.261L283.849 144.016C283.316 144.64 282.718 145.167 282.055 145.596C281.392 146.012 280.696 146.35 279.968 146.61C279.253 146.857 278.519 147.033 277.765 147.137C277.024 147.241 276.302 147.293 275.6 147.293C274.209 147.293 272.916 147.065 271.72 146.61C270.524 146.142 269.484 145.459 268.6 144.562C267.716 143.652 267.02 142.534 266.513 141.208C266.006 139.869 265.753 138.322 265.753 136.567C265.753 135.202 265.974 133.922 266.416 132.726C266.858 131.517 267.488 130.47 268.307 129.586C269.139 128.689 270.147 127.981 271.33 127.461C272.526 126.941 273.871 126.681 275.366 126.681C276.627 126.681 277.791 126.882 278.857 127.285C279.923 127.688 280.839 128.28 281.606 129.06C282.373 129.827 282.971 130.776 283.4 131.907C283.842 133.025 284.063 134.305 284.063 135.748C284.063 136.476 283.985 136.97 283.829 137.23C283.673 137.477 283.374 137.601 282.932 137.601H270.55Z" fill="#333333"/>
<g clip-path="url(#clip1_5534_64818)">
<rect x="20" y="133" width="42" height="1" fill="#C54600"/>
<g clip-path="url(#clip2_5534_64818)">
<rect x="20" y="121" width="24" height="24" rx="12" fill="#C54600"/>
<path d="M31.9745 138.139C31.2321 138.139 30.5709 138.012 29.9909 137.756C29.4142 137.498 28.9584 137.143 28.6237 136.692C28.2922 136.238 28.1215 135.715 28.1116 135.121H30.2792C30.2925 135.37 30.3737 135.589 30.5228 135.778C30.6753 135.963 30.8775 136.107 31.1294 136.21C31.3812 136.313 31.6646 136.364 31.9795 136.364C32.3076 136.364 32.5976 136.306 32.8495 136.19C33.1014 136.074 33.2986 135.914 33.4411 135.708C33.5837 135.503 33.6549 135.266 33.6549 134.997C33.6549 134.725 33.5787 134.485 33.4262 134.276C33.2771 134.064 33.0616 133.898 32.7799 133.779C32.5015 133.66 32.1701 133.6 31.7856 133.6H30.836V132.019H31.7856C32.1104 132.019 32.3971 131.963 32.6457 131.85C32.8976 131.737 33.0931 131.582 33.2323 131.383C33.3715 131.181 33.4411 130.945 33.4411 130.677C33.4411 130.422 33.3798 130.198 33.2572 130.006C33.1379 129.81 32.9688 129.658 32.7501 129.548C32.5347 129.439 32.2828 129.384 31.9944 129.384C31.7027 129.384 31.4359 129.437 31.194 129.543C30.952 129.646 30.7581 129.794 30.6123 129.986C30.4665 130.178 30.3886 130.403 30.3786 130.662H28.3154C28.3254 130.075 28.4927 129.558 28.8176 129.111C29.1424 128.663 29.5799 128.314 30.1301 128.062C30.6836 127.807 31.3083 127.679 32.0044 127.679C32.707 127.679 33.3218 127.807 33.8488 128.062C34.3758 128.317 34.7851 128.662 35.0768 129.096C35.3718 129.527 35.5176 130.011 35.5143 130.548C35.5176 131.118 35.3403 131.593 34.9823 131.974C34.6277 132.356 34.1653 132.598 33.5953 132.7V132.78C34.3443 132.876 34.9144 133.136 35.3055 133.56C35.6999 133.981 35.8954 134.508 35.8921 135.141C35.8954 135.721 35.7281 136.237 35.39 136.688C35.0553 137.138 34.5929 137.493 34.0029 137.751C33.413 138.01 32.7368 138.139 31.9745 138.139Z" fill="white"/>
</g>
</g>
<g clip-path="url(#clip3_5534_64818)">
<rect x="170" y="20" width="1" height="53" fill="#C54600"/>
<g clip-path="url(#clip4_5534_64818)">
<rect x="158" y="20" width="24" height="24" rx="12" fill="#C54600"/>
<path d="M166.416 37V35.4489L170.04 32.093C170.349 31.7947 170.607 31.5263 170.816 31.2876C171.028 31.049 171.189 30.8153 171.298 30.5866C171.408 30.3546 171.462 30.1044 171.462 29.8359C171.462 29.5376 171.394 29.2808 171.258 29.0653C171.123 28.8466 170.937 28.6792 170.702 28.5632C170.466 28.4439 170.199 28.3842 169.901 28.3842C169.59 28.3842 169.318 28.4472 169.086 28.5732C168.854 28.6991 168.675 28.8797 168.549 29.1151C168.423 29.3504 168.36 29.6304 168.36 29.9553H166.317C166.317 29.2891 166.467 28.7107 166.769 28.2202C167.071 27.7296 167.493 27.3501 168.037 27.0817C168.58 26.8132 169.207 26.679 169.916 26.679C170.645 26.679 171.28 26.8082 171.82 27.0668C172.364 27.322 172.786 27.6766 173.088 28.1307C173.39 28.5848 173.54 29.1051 173.54 29.6918C173.54 30.0762 173.464 30.4557 173.312 30.8303C173.163 31.2048 172.896 31.6207 172.511 32.0781C172.127 32.5322 171.585 33.0774 170.886 33.7138L169.399 35.1705V35.2401H173.675V37H166.416Z" fill="white"/>
</g>
</g>
<g clip-path="url(#clip5_5534_64818)">
<rect x="126" y="20" width="1" height="53" fill="#C54600"/>
<g clip-path="url(#clip6_5534_64818)">
<rect x="114" y="20" width="24" height="24" rx="12" fill="#C54600"/>
<path d="M127.83 26.8182V37H125.677V28.8615H125.618L123.286 30.3232V28.4141L125.807 26.8182H127.83Z" fill="white"/>
</g>
</g>
<defs>
<clipPath id="clip0_5534_64818">
<rect width="109" height="24" fill="white" transform="translate(66 74)"/>
</clipPath>
<clipPath id="clip1_5534_64818">
<rect width="42" height="24" fill="white" transform="translate(20 121)"/>
</clipPath>
<clipPath id="clip2_5534_64818">
<rect x="20" y="121" width="24" height="24" rx="12" fill="white"/>
</clipPath>
<clipPath id="clip3_5534_64818">
<rect width="24" height="53" fill="white" transform="translate(158 20)"/>
</clipPath>
<clipPath id="clip4_5534_64818">
<rect x="158" y="20" width="24" height="24" rx="12" fill="white"/>
</clipPath>
<clipPath id="clip5_5534_64818">
<rect width="24" height="53" fill="white" transform="translate(114 20)"/>
</clipPath>
<clipPath id="clip6_5534_64818">
<rect x="114" y="20" width="24" height="24" rx="12" fill="white"/>
</clipPath>
</defs>
</svg>
