<svg width="460" height="173" viewBox="0 0 460 173" fill="none" xmlns="http://www.w3.org/2000/svg">
<mask id="path-1-inside-1_6382_6603" fill="white">
<path d="M72 72H396V112H72V72Z"/>
</mask>
<path d="M72 72H396V112H72V72Z" fill="white"/>
<path d="M72 72V71H71V72H72ZM72 112H71V113H72V112ZM72 73H396V71H72V73ZM396 111H72V113H396V111ZM73 112V72H71V112H73Z" fill="#D6D9DD" mask="url(#path-1-inside-1_6382_6603)"/>
<path d="M88.704 86.576C90.1227 86.576 91.168 86.848 91.84 87.392C92.5227 87.9253 92.864 88.736 92.864 89.824C92.864 90.432 92.752 90.9387 92.528 91.344C92.304 91.7493 92.016 92.0747 91.664 92.32C91.3227 92.5547 90.96 92.7413 90.576 92.88L93.712 98H92.032L89.264 93.28H86.992V98H85.552V86.576H88.704ZM88.624 87.824H86.992V92.064H88.704C89.632 92.064 90.3093 91.8827 90.736 91.52C91.1627 91.1467 91.376 90.6027 91.376 89.888C91.376 89.1413 91.152 88.6133 90.704 88.304C90.256 87.984 89.5627 87.824 88.624 87.824ZM98.6251 89.264C99.3611 89.264 99.9905 89.424 100.513 89.744C101.046 90.064 101.452 90.5173 101.729 91.104C102.017 91.68 102.161 92.3573 102.161 93.136V93.984H96.2891C96.3105 94.9547 96.5558 95.696 97.0251 96.208C97.5051 96.7093 98.1718 96.96 99.0251 96.96C99.5691 96.96 100.049 96.912 100.465 96.816C100.892 96.7093 101.329 96.56 101.777 96.368V97.6C101.34 97.792 100.908 97.9307 100.481 98.016C100.054 98.112 99.5478 98.16 98.9611 98.16C98.1505 98.16 97.4305 97.9947 96.8011 97.664C96.1825 97.3333 95.6971 96.8427 95.3451 96.192C95.0038 95.5307 94.8331 94.7253 94.8331 93.776C94.8331 92.8373 94.9878 92.032 95.2971 91.36C95.6171 90.688 96.0598 90.1707 96.6251 89.808C97.2011 89.4453 97.8678 89.264 98.6251 89.264ZM98.6091 90.416C97.9371 90.416 97.4038 90.6347 97.0091 91.072C96.6251 91.4987 96.3958 92.096 96.3211 92.864H100.689C100.678 92.1387 100.508 91.552 100.177 91.104C99.8465 90.6453 99.3238 90.416 98.6091 90.416ZM107.784 98.16C107.027 98.16 106.35 98.0053 105.752 97.696C105.166 97.3867 104.702 96.9067 104.36 96.256C104.03 95.6053 103.864 94.7733 103.864 93.76C103.864 92.704 104.04 91.8453 104.392 91.184C104.744 90.5227 105.219 90.0373 105.816 89.728C106.424 89.4187 107.112 89.264 107.88 89.264C108.318 89.264 108.739 89.312 109.144 89.408C109.55 89.4933 109.88 89.6 110.136 89.728L109.704 90.896C109.448 90.8 109.15 90.7093 108.808 90.624C108.467 90.5387 108.147 90.496 107.848 90.496C106.163 90.496 105.32 91.5787 105.32 93.744C105.32 94.7787 105.523 95.5733 105.928 96.128C106.344 96.672 106.958 96.944 107.768 96.944C108.238 96.944 108.648 96.896 109 96.8C109.363 96.704 109.694 96.5867 109.992 96.448V97.696C109.704 97.8453 109.384 97.9573 109.032 98.032C108.691 98.1173 108.275 98.16 107.784 98.16ZM113.44 89.408C113.44 89.8347 113.413 90.2347 113.36 90.608H113.456C113.733 90.1707 114.107 89.84 114.576 89.616C115.056 89.392 115.573 89.28 116.128 89.28C117.173 89.28 117.957 89.5307 118.48 90.032C119.003 90.5227 119.264 91.3173 119.264 92.416V98H117.872V92.512C117.872 91.136 117.232 90.448 115.952 90.448C114.992 90.448 114.331 90.72 113.968 91.264C113.616 91.7973 113.44 92.5653 113.44 93.568V98H112.032V85.84H113.44V89.408ZM125.235 89.264C125.971 89.264 126.6 89.424 127.123 89.744C127.656 90.064 128.061 90.5173 128.339 91.104C128.627 91.68 128.771 92.3573 128.771 93.136V93.984H122.899C122.92 94.9547 123.165 95.696 123.635 96.208C124.115 96.7093 124.781 96.96 125.635 96.96C126.179 96.96 126.659 96.912 127.075 96.816C127.501 96.7093 127.939 96.56 128.387 96.368V97.6C127.949 97.792 127.517 97.9307 127.091 98.016C126.664 98.112 126.157 98.16 125.571 98.16C124.76 98.16 124.04 97.9947 123.411 97.664C122.792 97.3333 122.307 96.8427 121.955 96.192C121.613 95.5307 121.443 94.7253 121.443 93.776C121.443 92.8373 121.597 92.032 121.907 91.36C122.227 90.688 122.669 90.1707 123.235 89.808C123.811 89.4453 124.477 89.264 125.235 89.264ZM125.219 90.416C124.547 90.416 124.013 90.6347 123.619 91.072C123.235 91.4987 123.005 92.096 122.931 92.864H127.299C127.288 92.1387 127.117 91.552 126.787 91.104C126.456 90.6453 125.933 90.416 125.219 90.416ZM134.954 89.264C135.114 89.264 135.284 89.2747 135.466 89.296C135.658 89.3067 135.823 89.328 135.962 89.36L135.786 90.656C135.647 90.624 135.492 90.5973 135.322 90.576C135.162 90.5547 135.007 90.544 134.858 90.544C134.42 90.544 134.01 90.6667 133.626 90.912C133.242 91.1467 132.932 91.4827 132.698 91.92C132.474 92.3467 132.362 92.848 132.362 93.424V98H130.954V89.424H132.106L132.266 90.992H132.33C132.607 90.5227 132.964 90.1173 133.402 89.776C133.839 89.4347 134.356 89.264 134.954 89.264ZM140.691 98.16C139.933 98.16 139.256 98.0053 138.659 97.696C138.072 97.3867 137.608 96.9067 137.267 96.256C136.936 95.6053 136.771 94.7733 136.771 93.76C136.771 92.704 136.947 91.8453 137.299 91.184C137.651 90.5227 138.125 90.0373 138.723 89.728C139.331 89.4187 140.019 89.264 140.787 89.264C141.224 89.264 141.645 89.312 142.051 89.408C142.456 89.4933 142.787 89.6 143.043 89.728L142.611 90.896C142.355 90.8 142.056 90.7093 141.715 90.624C141.373 90.5387 141.053 90.496 140.755 90.496C139.069 90.496 138.227 91.5787 138.227 93.744C138.227 94.7787 138.429 95.5733 138.835 96.128C139.251 96.672 139.864 96.944 140.675 96.944C141.144 96.944 141.555 96.896 141.907 96.8C142.269 96.704 142.6 96.5867 142.899 96.448V97.696C142.611 97.8453 142.291 97.9573 141.939 98.032C141.597 98.1173 141.181 98.16 140.691 98.16ZM146.346 89.408C146.346 89.8347 146.319 90.2347 146.266 90.608H146.362C146.639 90.1707 147.013 89.84 147.482 89.616C147.962 89.392 148.479 89.28 149.034 89.28C150.079 89.28 150.863 89.5307 151.386 90.032C151.909 90.5227 152.17 91.3173 152.17 92.416V98H150.778V92.512C150.778 91.136 150.138 90.448 148.858 90.448C147.898 90.448 147.237 90.72 146.874 91.264C146.522 91.7973 146.346 92.5653 146.346 93.568V98H144.938V85.84H146.346V89.408ZM158.141 89.264C158.877 89.264 159.506 89.424 160.029 89.744C160.562 90.064 160.967 90.5173 161.245 91.104C161.533 91.68 161.677 92.3573 161.677 93.136V93.984H155.805C155.826 94.9547 156.071 95.696 156.541 96.208C157.021 96.7093 157.687 96.96 158.541 96.96C159.085 96.96 159.565 96.912 159.981 96.816C160.407 96.7093 160.845 96.56 161.293 96.368V97.6C160.855 97.792 160.423 97.9307 159.997 98.016C159.57 98.112 159.063 98.16 158.477 98.16C157.666 98.16 156.946 97.9947 156.317 97.664C155.698 97.3333 155.213 96.8427 154.861 96.192C154.519 95.5307 154.349 94.7253 154.349 93.776C154.349 92.8373 154.503 92.032 154.813 91.36C155.133 90.688 155.575 90.1707 156.141 89.808C156.717 89.4453 157.383 89.264 158.141 89.264ZM158.125 90.416C157.453 90.416 156.919 90.6347 156.525 91.072C156.141 91.4987 155.911 92.096 155.837 92.864H160.205C160.194 92.1387 160.023 91.552 159.693 91.104C159.362 90.6453 158.839 90.416 158.125 90.416ZM167.86 89.264C168.02 89.264 168.191 89.2747 168.372 89.296C168.564 89.3067 168.729 89.328 168.868 89.36L168.692 90.656C168.553 90.624 168.399 90.5973 168.228 90.576C168.068 90.5547 167.913 90.544 167.764 90.544C167.327 90.544 166.916 90.6667 166.532 90.912C166.148 91.1467 165.839 91.4827 165.604 91.92C165.38 92.3467 165.268 92.848 165.268 93.424V98H163.86V89.424H165.012L165.172 90.992H165.236C165.513 90.5227 165.871 90.1173 166.308 89.776C166.745 89.4347 167.263 89.264 167.86 89.264ZM177.666 98.16C176.599 98.16 175.746 97.792 175.106 97.056C174.466 96.3093 174.146 95.2 174.146 93.728C174.146 92.256 174.466 91.1467 175.106 90.4C175.756 89.6427 176.615 89.264 177.682 89.264C178.343 89.264 178.882 89.3867 179.298 89.632C179.724 89.8773 180.071 90.176 180.338 90.528H180.434C180.423 90.3893 180.402 90.1867 180.37 89.92C180.348 89.6427 180.338 89.424 180.338 89.264V85.84H181.746V98H180.61L180.402 96.848H180.338C180.082 97.2107 179.74 97.52 179.314 97.776C178.887 98.032 178.338 98.16 177.666 98.16ZM177.89 96.992C178.796 96.992 179.431 96.7467 179.794 96.256C180.167 95.7547 180.354 95.0027 180.354 94V93.744C180.354 92.6773 180.178 91.8613 179.826 91.296C179.474 90.72 178.823 90.432 177.874 90.432C177.116 90.432 176.546 90.736 176.162 91.344C175.788 91.9413 175.602 92.7467 175.602 93.76C175.602 94.784 175.788 95.5787 176.162 96.144C176.546 96.7093 177.122 96.992 177.89 96.992ZM187.717 89.28C188.763 89.28 189.536 89.5093 190.037 89.968C190.539 90.4267 190.789 91.1573 190.789 92.16V98H189.765L189.493 96.784H189.429C189.056 97.2533 188.661 97.6 188.245 97.824C187.84 98.048 187.275 98.16 186.549 98.16C185.771 98.16 185.125 97.9573 184.613 97.552C184.101 97.136 183.845 96.4907 183.845 95.616C183.845 94.7627 184.181 94.1067 184.853 93.648C185.525 93.1787 186.56 92.9227 187.957 92.88L189.413 92.832V92.32C189.413 91.6053 189.259 91.1093 188.949 90.832C188.64 90.5547 188.203 90.416 187.637 90.416C187.189 90.416 186.763 90.4853 186.357 90.624C185.952 90.752 185.573 90.9013 185.221 91.072L184.789 90.016C185.163 89.8133 185.605 89.6427 186.117 89.504C186.629 89.3547 187.163 89.28 187.717 89.28ZM188.133 93.856C187.067 93.8987 186.325 94.0693 185.909 94.368C185.504 94.6667 185.301 95.088 185.301 95.632C185.301 96.112 185.445 96.464 185.733 96.688C186.032 96.912 186.411 97.024 186.869 97.024C187.595 97.024 188.197 96.8267 188.677 96.432C189.157 96.0267 189.397 95.408 189.397 94.576V93.808L188.133 93.856ZM197.566 89.264C198.59 89.264 199.363 89.5147 199.886 90.016C200.409 90.5067 200.67 91.3067 200.67 92.416V98H199.278V92.512C199.278 91.136 198.638 90.448 197.358 90.448C196.409 90.448 195.753 90.7147 195.39 91.248C195.027 91.7813 194.846 92.5493 194.846 93.552V98H193.438V89.424H194.574L194.782 90.592H194.862C195.139 90.144 195.523 89.8133 196.014 89.6C196.505 89.376 197.022 89.264 197.566 89.264ZM208.913 95.632C208.913 96.464 208.603 97.0933 207.985 97.52C207.366 97.9467 206.534 98.16 205.489 98.16C204.891 98.16 204.374 98.112 203.937 98.016C203.51 97.92 203.131 97.7867 202.801 97.616V96.336C203.142 96.5067 203.553 96.6667 204.033 96.816C204.523 96.9547 205.019 97.024 205.521 97.024C206.235 97.024 206.753 96.912 207.073 96.688C207.393 96.4533 207.553 96.144 207.553 95.76C207.553 95.5467 207.494 95.3547 207.377 95.184C207.259 95.0133 207.046 94.8427 206.737 94.672C206.438 94.5013 206.006 94.3093 205.441 94.096C204.886 93.8827 204.411 93.6693 204.017 93.456C203.622 93.2427 203.318 92.9867 203.105 92.688C202.891 92.3893 202.785 92.0053 202.785 91.536C202.785 90.8107 203.078 90.2507 203.665 89.856C204.262 89.4613 205.041 89.264 206.001 89.264C206.523 89.264 207.009 89.3173 207.457 89.424C207.915 89.52 208.342 89.6587 208.737 89.84L208.257 90.96C207.894 90.8107 207.515 90.6827 207.121 90.576C206.726 90.4693 206.321 90.416 205.905 90.416C205.329 90.416 204.886 90.512 204.577 90.704C204.278 90.8853 204.129 91.136 204.129 91.456C204.129 91.6907 204.198 91.8933 204.337 92.064C204.475 92.224 204.705 92.384 205.025 92.544C205.355 92.6933 205.793 92.8747 206.337 93.088C206.881 93.2907 207.345 93.4987 207.729 93.712C208.113 93.9253 208.406 94.1867 208.609 94.496C208.811 94.7947 208.913 95.1733 208.913 95.632ZM220.229 87.68C219.003 87.68 218.037 88.0907 217.333 88.912C216.629 89.7333 216.277 90.8587 216.277 92.288C216.277 93.7067 216.603 94.832 217.253 95.664C217.915 96.4853 218.901 96.896 220.213 96.896C220.715 96.896 221.189 96.8533 221.637 96.768C222.085 96.6827 222.523 96.576 222.949 96.448V97.696C222.523 97.856 222.08 97.9733 221.621 98.048C221.173 98.1227 220.635 98.16 220.005 98.16C218.843 98.16 217.872 97.92 217.093 97.44C216.315 96.96 215.728 96.2773 215.333 95.392C214.949 94.5067 214.757 93.4667 214.757 92.272C214.757 91.12 214.965 90.1067 215.381 89.232C215.808 88.3467 216.432 87.6587 217.253 87.168C218.075 86.6667 219.072 86.416 220.245 86.416C221.451 86.416 222.501 86.64 223.397 87.088L222.821 88.304C222.469 88.144 222.075 88 221.637 87.872C221.211 87.744 220.741 87.68 220.229 87.68ZM228.499 89.28C229.544 89.28 230.317 89.5093 230.819 89.968C231.32 90.4267 231.571 91.1573 231.571 92.16V98H230.547L230.275 96.784H230.211C229.837 97.2533 229.443 97.6 229.027 97.824C228.621 98.048 228.056 98.16 227.331 98.16C226.552 98.16 225.907 97.9573 225.395 97.552C224.883 97.136 224.627 96.4907 224.627 95.616C224.627 94.7627 224.963 94.1067 225.635 93.648C226.307 93.1787 227.341 92.9227 228.739 92.88L230.195 92.832V92.32C230.195 91.6053 230.04 91.1093 229.731 90.832C229.421 90.5547 228.984 90.416 228.419 90.416C227.971 90.416 227.544 90.4853 227.139 90.624C226.733 90.752 226.355 90.9013 226.003 91.072L225.571 90.016C225.944 89.8133 226.387 89.6427 226.899 89.504C227.411 89.3547 227.944 89.28 228.499 89.28ZM228.915 93.856C227.848 93.8987 227.107 94.0693 226.691 94.368C226.285 94.6667 226.083 95.088 226.083 95.632C226.083 96.112 226.227 96.464 226.515 96.688C226.813 96.912 227.192 97.024 227.651 97.024C228.376 97.024 228.979 96.8267 229.459 96.432C229.939 96.0267 230.179 95.408 230.179 94.576V93.808L228.915 93.856ZM238.347 89.264C239.371 89.264 240.145 89.5147 240.667 90.016C241.19 90.5067 241.451 91.3067 241.451 92.416V98H240.059V92.512C240.059 91.136 239.419 90.448 238.139 90.448C237.19 90.448 236.534 90.7147 236.171 91.248C235.809 91.7813 235.627 92.5493 235.627 93.552V98H234.219V89.424H235.355L235.563 90.592H235.643C235.921 90.144 236.305 89.8133 236.795 89.6C237.286 89.376 237.803 89.264 238.347 89.264ZM247.358 89.28C248.403 89.28 249.177 89.5093 249.678 89.968C250.179 90.4267 250.43 91.1573 250.43 92.16V98H249.406L249.134 96.784H249.07C248.697 97.2533 248.302 97.6 247.886 97.824C247.481 98.048 246.915 98.16 246.19 98.16C245.411 98.16 244.766 97.9573 244.254 97.552C243.742 97.136 243.486 96.4907 243.486 95.616C243.486 94.7627 243.822 94.1067 244.494 93.648C245.166 93.1787 246.201 92.9227 247.598 92.88L249.054 92.832V92.32C249.054 91.6053 248.899 91.1093 248.59 90.832C248.281 90.5547 247.843 90.416 247.278 90.416C246.83 90.416 246.403 90.4853 245.998 90.624C245.593 90.752 245.214 90.9013 244.862 91.072L244.43 90.016C244.803 89.8133 245.246 89.6427 245.758 89.504C246.27 89.3547 246.803 89.28 247.358 89.28ZM247.774 93.856C246.707 93.8987 245.966 94.0693 245.55 94.368C245.145 94.6667 244.942 95.088 244.942 95.632C244.942 96.112 245.086 96.464 245.374 96.688C245.673 96.912 246.051 97.024 246.51 97.024C247.235 97.024 247.838 96.8267 248.318 96.432C248.798 96.0267 249.038 95.408 249.038 94.576V93.808L247.774 93.856ZM256.119 98.16C255.052 98.16 254.199 97.792 253.559 97.056C252.919 96.3093 252.599 95.2 252.599 93.728C252.599 92.256 252.919 91.1467 253.559 90.4C254.209 89.6427 255.068 89.264 256.135 89.264C256.796 89.264 257.335 89.3867 257.751 89.632C258.177 89.8773 258.524 90.176 258.791 90.528H258.887C258.876 90.3893 258.855 90.1867 258.823 89.92C258.801 89.6427 258.791 89.424 258.791 89.264V85.84H260.199V98H259.063L258.855 96.848H258.791C258.535 97.2107 258.193 97.52 257.767 97.776C257.34 98.032 256.791 98.16 256.119 98.16ZM256.343 96.992C257.249 96.992 257.884 96.7467 258.247 96.256C258.62 95.7547 258.807 95.0027 258.807 94V93.744C258.807 92.6773 258.631 91.8613 258.279 91.296C257.927 90.72 257.276 90.432 256.327 90.432C255.569 90.432 254.999 90.736 254.615 91.344C254.241 91.9413 254.055 92.7467 254.055 93.76C254.055 94.784 254.241 95.5787 254.615 96.144C254.999 96.7093 255.575 96.992 256.343 96.992ZM266.171 89.28C267.216 89.28 267.989 89.5093 268.491 89.968C268.992 90.4267 269.243 91.1573 269.243 92.16V98H268.219L267.947 96.784H267.883C267.509 97.2533 267.115 97.6 266.699 97.824C266.293 98.048 265.728 98.16 265.003 98.16C264.224 98.16 263.579 97.9573 263.067 97.552C262.555 97.136 262.299 96.4907 262.299 95.616C262.299 94.7627 262.635 94.1067 263.307 93.648C263.979 93.1787 265.013 92.9227 266.411 92.88L267.867 92.832V92.32C267.867 91.6053 267.712 91.1093 267.403 90.832C267.093 90.5547 266.656 90.416 266.091 90.416C265.643 90.416 265.216 90.4853 264.811 90.624C264.405 90.752 264.027 90.9013 263.674 91.072L263.243 90.016C263.616 89.8133 264.059 89.6427 264.571 89.504C265.083 89.3547 265.616 89.28 266.171 89.28ZM266.587 93.856C265.52 93.8987 264.779 94.0693 264.363 94.368C263.957 94.6667 263.755 95.088 263.755 95.632C263.755 96.112 263.899 96.464 264.187 96.688C264.485 96.912 264.864 97.024 265.323 97.024C266.048 97.024 266.651 96.8267 267.131 96.432C267.611 96.0267 267.851 95.408 267.851 94.576V93.808L266.587 93.856ZM271.683 97.136C271.683 96.7413 271.779 96.464 271.971 96.304C272.163 96.144 272.393 96.064 272.659 96.064C272.937 96.064 273.171 96.144 273.363 96.304C273.566 96.464 273.667 96.7413 273.667 97.136C273.667 97.52 273.566 97.7973 273.363 97.968C273.171 98.1387 272.937 98.224 272.659 98.224C272.393 98.224 272.163 98.1387 271.971 97.968C271.779 97.7973 271.683 97.52 271.683 97.136ZM279.613 98.16C278.855 98.16 278.178 98.0053 277.581 97.696C276.994 97.3867 276.53 96.9067 276.189 96.256C275.858 95.6053 275.693 94.7733 275.693 93.76C275.693 92.704 275.869 91.8453 276.221 91.184C276.573 90.5227 277.047 90.0373 277.645 89.728C278.253 89.4187 278.941 89.264 279.709 89.264C280.146 89.264 280.567 89.312 280.973 89.408C281.378 89.4933 281.709 89.6 281.965 89.728L281.533 90.896C281.277 90.8 280.978 90.7093 280.637 90.624C280.295 90.5387 279.975 90.496 279.677 90.496C277.991 90.496 277.149 91.5787 277.149 93.744C277.149 94.7787 277.351 95.5733 277.757 96.128C278.173 96.672 278.786 96.944 279.597 96.944C280.066 96.944 280.477 96.896 280.829 96.8C281.191 96.704 281.522 96.5867 281.821 96.448V97.696C281.533 97.8453 281.213 97.9573 280.861 98.032C280.519 98.1173 280.103 98.16 279.613 98.16ZM287.108 89.28C288.153 89.28 288.927 89.5093 289.428 89.968C289.929 90.4267 290.18 91.1573 290.18 92.16V98H289.156L288.884 96.784H288.82C288.447 97.2533 288.052 97.6 287.636 97.824C287.231 98.048 286.665 98.16 285.94 98.16C285.161 98.16 284.516 97.9573 284.004 97.552C283.492 97.136 283.236 96.4907 283.236 95.616C283.236 94.7627 283.572 94.1067 284.244 93.648C284.916 93.1787 285.951 92.9227 287.348 92.88L288.804 92.832V92.32C288.804 91.6053 288.649 91.1093 288.34 90.832C288.031 90.5547 287.593 90.416 287.028 90.416C286.58 90.416 286.153 90.4853 285.748 90.624C285.343 90.752 284.964 90.9013 284.612 91.072L284.18 90.016C284.553 89.8133 284.996 89.6427 285.508 89.504C286.02 89.3547 286.553 89.28 287.108 89.28ZM287.524 93.856C286.457 93.8987 285.716 94.0693 285.3 94.368C284.895 94.6667 284.692 95.088 284.692 95.632C284.692 96.112 284.836 96.464 285.124 96.688C285.423 96.912 285.801 97.024 286.26 97.024C286.985 97.024 287.588 96.8267 288.068 96.432C288.548 96.0267 288.788 95.408 288.788 94.576V93.808L287.524 93.856Z" fill="#5C5C5C"/>
<rect width="40" height="40" transform="translate(396 72)" fill="#26374A"/>
<path fill-rule="evenodd" clip-rule="evenodd" d="M410.202 91.2686C410.202 94.0119 412.426 96.2359 415.17 96.2359C417.913 96.2359 420.137 94.0119 420.137 91.2686C420.137 88.5252 417.913 86.3013 415.17 86.3013C412.426 86.3013 410.202 88.5252 410.202 91.2686ZM407.719 91.2686C407.719 95.3836 411.055 98.7195 415.17 98.7195C416.815 98.7195 418.336 98.1863 419.568 97.2832L423.279 100.994L425 99.2026L421.301 95.5035C422.133 94.3009 422.621 92.8417 422.621 91.2686C422.621 87.1535 419.285 83.8176 415.17 83.8176C411.055 83.8176 407.719 87.1535 407.719 91.2686Z" fill="white"/>
<g clip-path="url(#clip0_6382_6603)">
<rect x="24" y="92" width="48" height="1" fill="#C54600"/>
<g clip-path="url(#clip1_6382_6603)">
<rect x="24" y="80" width="24" height="24" rx="12" fill="#C54600"/>
<path d="M37.5687 87.2727V96H35.7235V89.0241H35.6724L33.6738 90.277V88.6406L35.8343 87.2727H37.5687Z" fill="white"/>
</g>
</g>
<g clip-path="url(#clip2_6382_6603)">
<rect x="188" y="101" width="1" height="48" fill="#C54600"/>
<g clip-path="url(#clip3_6382_6603)">
<rect x="177" y="125" width="24" height="24" rx="12" fill="#C54600"/>
<path d="M185.928 141V139.67L189.035 136.794C189.299 136.538 189.52 136.308 189.699 136.104C189.881 135.899 190.019 135.699 190.113 135.503C190.206 135.304 190.253 135.089 190.253 134.859C190.253 134.604 190.195 134.384 190.079 134.199C189.962 134.011 189.803 133.868 189.601 133.768C189.4 133.666 189.171 133.615 188.915 133.615C188.648 133.615 188.415 133.669 188.216 133.777C188.018 133.885 187.864 134.04 187.756 134.241C187.648 134.443 187.594 134.683 187.594 134.962H185.843C185.843 134.391 185.972 133.895 186.231 133.474C186.489 133.054 186.851 132.729 187.317 132.499C187.783 132.268 188.32 132.153 188.928 132.153C189.553 132.153 190.097 132.264 190.56 132.486C191.026 132.705 191.388 133.009 191.647 133.398C191.905 133.787 192.035 134.233 192.035 134.736C192.035 135.065 191.969 135.391 191.839 135.712C191.711 136.033 191.482 136.389 191.153 136.781C190.823 137.17 190.358 137.638 189.759 138.183L188.485 139.432V139.491H192.15V141H185.928Z" fill="white"/>
</g>
<rect x="85" y="102" width="1" height="206" transform="rotate(-90 85 102)" fill="#C54600"/>
</g>
<g clip-path="url(#clip4_6382_6603)">
<rect x="416" y="24" width="1" height="48" fill="#C54600"/>
<g clip-path="url(#clip5_6382_6603)">
<rect x="404" y="24" width="24" height="24" rx="12" fill="#C54600"/>
<path d="M415.978 40.1193C415.342 40.1193 414.775 40.0099 414.278 39.7912C413.784 39.5696 413.393 39.2656 413.106 38.8793C412.822 38.4901 412.676 38.0412 412.667 37.5327H414.525C414.536 37.7457 414.606 37.9332 414.734 38.0952C414.865 38.2543 415.038 38.3778 415.254 38.4659C415.47 38.554 415.713 38.598 415.982 38.598C416.264 38.598 416.512 38.5483 416.728 38.4489C416.944 38.3494 417.113 38.2116 417.235 38.0355C417.357 37.8594 417.419 37.6562 417.419 37.4261C417.419 37.1932 417.353 36.9872 417.222 36.8082C417.095 36.6264 416.91 36.4844 416.669 36.3821C416.43 36.2798 416.146 36.2287 415.816 36.2287H415.002V34.8736H415.816C416.095 34.8736 416.34 34.8253 416.553 34.7287C416.769 34.6321 416.937 34.4986 417.056 34.3281C417.176 34.1548 417.235 33.9531 417.235 33.723C417.235 33.5043 417.183 33.3125 417.078 33.1477C416.975 32.9801 416.83 32.8494 416.643 32.7557C416.458 32.6619 416.242 32.6151 415.995 32.6151C415.745 32.6151 415.517 32.6605 415.309 32.7514C415.102 32.8395 414.936 32.9659 414.811 33.1307C414.686 33.2955 414.619 33.4886 414.61 33.7102H412.842C412.85 33.2074 412.994 32.7642 413.272 32.3807C413.551 31.9972 413.926 31.6974 414.397 31.4815C414.872 31.2628 415.407 31.1534 416.004 31.1534C416.606 31.1534 417.133 31.2628 417.585 31.4815C418.036 31.7003 418.387 31.9957 418.637 32.3679C418.89 32.7372 419.015 33.152 419.012 33.6122C419.015 34.1009 418.863 34.5085 418.556 34.8352C418.252 35.1619 417.856 35.3693 417.367 35.4574V35.5256C418.009 35.608 418.498 35.831 418.833 36.1946C419.171 36.5554 419.339 37.0071 419.336 37.5497C419.339 38.0469 419.195 38.4886 418.906 38.875C418.619 39.2614 418.222 39.5653 417.717 39.7869C417.211 40.0085 416.632 40.1193 415.978 40.1193Z" fill="white"/>
</g>
</g>
<defs>
<clipPath id="clip0_6382_6603">
<rect width="48" height="24" fill="white" transform="translate(24 80)"/>
</clipPath>
<clipPath id="clip1_6382_6603">
<rect x="24" y="80" width="24" height="24" rx="12" fill="white"/>
</clipPath>
<clipPath id="clip2_6382_6603">
<rect width="206" height="48" fill="white" transform="translate(85 101)"/>
</clipPath>
<clipPath id="clip3_6382_6603">
<rect x="177" y="125" width="24" height="24" rx="12" fill="white"/>
</clipPath>
<clipPath id="clip4_6382_6603">
<rect width="24" height="48" fill="white" transform="translate(404 24)"/>
</clipPath>
<clipPath id="clip5_6382_6603">
<rect x="404" y="24" width="24" height="24" rx="12" fill="white"/>
</clipPath>
</defs>
</svg>
