<svg width="506" height="165" viewBox="0 0 506 165" fill="none" xmlns="http://www.w3.org/2000/svg">
<path d="M302.26 96H300.16L292.52 84.14H292.44C292.467 84.6067 292.5 85.1867 292.54 85.88C292.58 86.5733 292.6 87.2867 292.6 88.02V96H290.94V81.72H293.02L300.64 93.54H300.72C300.707 93.3267 300.687 93.0067 300.66 92.58C300.647 92.1533 300.627 91.6867 300.6 91.18C300.587 90.6733 300.58 90.2067 300.58 89.78V81.72H302.26V96ZM315.215 90.62C315.215 92.3933 314.762 93.7667 313.855 94.74C312.962 95.7133 311.749 96.2 310.215 96.2C309.269 96.2 308.422 95.9867 307.675 95.56C306.942 95.12 306.362 94.4867 305.935 93.66C305.509 92.82 305.295 91.8067 305.295 90.62C305.295 88.8467 305.742 87.48 306.635 86.52C307.529 85.56 308.742 85.08 310.275 85.08C311.249 85.08 312.102 85.3 312.835 85.74C313.582 86.1667 314.162 86.7933 314.575 87.62C315.002 88.4333 315.215 89.4333 315.215 90.62ZM307.115 90.62C307.115 91.8867 307.362 92.8933 307.855 93.64C308.362 94.3733 309.162 94.74 310.255 94.74C311.335 94.74 312.129 94.3733 312.635 93.64C313.142 92.8933 313.395 91.8867 313.395 90.62C313.395 89.3533 313.142 88.36 312.635 87.64C312.129 86.92 311.329 86.56 310.235 86.56C309.142 86.56 308.349 86.92 307.855 87.64C307.362 88.36 307.115 89.3533 307.115 90.62ZM329.765 85.08C330.978 85.08 331.885 85.3933 332.485 86.02C333.085 86.6333 333.385 87.6333 333.385 89.02V96H331.645V89.1C331.645 87.4067 330.918 86.56 329.465 86.56C328.425 86.56 327.678 86.86 327.225 87.46C326.785 88.06 326.565 88.9333 326.565 90.08V96H324.825V89.1C324.825 87.4067 324.091 86.56 322.625 86.56C321.545 86.56 320.798 86.8933 320.385 87.56C319.971 88.2267 319.765 89.1867 319.765 90.44V96H318.005V85.28H319.425L319.685 86.74H319.785C320.118 86.18 320.565 85.7667 321.125 85.5C321.698 85.22 322.305 85.08 322.945 85.08C324.625 85.08 325.718 85.68 326.225 86.88H326.325C326.685 86.2667 327.171 85.8133 327.785 85.52C328.411 85.2267 329.071 85.08 329.765 85.08ZM338.456 84.5C338.456 84.9533 338.443 85.38 338.416 85.78C338.403 86.1667 338.383 86.4733 338.356 86.7H338.456C338.763 86.2467 339.183 85.8667 339.716 85.56C340.249 85.2533 340.936 85.1 341.776 85.1C343.109 85.1 344.176 85.5667 344.976 86.5C345.789 87.42 346.196 88.8 346.196 90.64C346.196 92.48 345.789 93.8667 344.976 94.8C344.163 95.7333 343.096 96.2 341.776 96.2C340.936 96.2 340.249 96.0467 339.716 95.74C339.183 95.4333 338.763 95.0667 338.456 94.64H338.316L337.956 96H336.696V80.8H338.456V84.5ZM341.476 86.56C340.343 86.56 339.556 86.8867 339.116 87.54C338.676 88.1933 338.456 89.2067 338.456 90.58V90.66C338.456 91.98 338.669 92.9933 339.096 93.7C339.536 94.3933 340.343 94.74 341.516 94.74C342.476 94.74 343.189 94.3867 343.656 93.68C344.136 92.9733 344.376 91.9533 344.376 90.62C344.376 87.9133 343.409 86.56 341.476 86.56ZM354.001 85.08C354.201 85.08 354.414 85.0933 354.641 85.12C354.881 85.1333 355.087 85.16 355.261 85.2L355.041 86.82C354.867 86.78 354.674 86.7467 354.461 86.72C354.261 86.6933 354.067 86.68 353.881 86.68C353.334 86.68 352.821 86.8333 352.341 87.14C351.861 87.4333 351.474 87.8533 351.181 88.4C350.901 88.9333 350.761 89.56 350.761 90.28V96H349.001V85.28H350.441L350.641 87.24H350.721C351.067 86.6533 351.514 86.1467 352.061 85.72C352.607 85.2933 353.254 85.08 354.001 85.08ZM361.012 85.08C361.932 85.08 362.719 85.28 363.372 85.68C364.039 86.08 364.545 86.6467 364.892 87.38C365.252 88.1 365.432 88.9467 365.432 89.92V90.98H358.092C358.119 92.1933 358.425 93.12 359.012 93.76C359.612 94.3867 360.445 94.7 361.512 94.7C362.192 94.7 362.792 94.64 363.312 94.52C363.845 94.3867 364.392 94.2 364.952 93.96V95.5C364.405 95.74 363.865 95.9133 363.332 96.02C362.799 96.14 362.165 96.2 361.432 96.2C360.419 96.2 359.519 95.9933 358.732 95.58C357.959 95.1667 357.352 94.5533 356.912 93.74C356.485 92.9133 356.272 91.9067 356.272 90.72C356.272 89.5467 356.465 88.54 356.852 87.7C357.252 86.86 357.805 86.2133 358.512 85.76C359.232 85.3067 360.065 85.08 361.012 85.08ZM360.992 86.52C360.152 86.52 359.485 86.7933 358.992 87.34C358.512 87.8733 358.225 88.62 358.132 89.58H363.592C363.579 88.6733 363.365 87.94 362.952 87.38C362.539 86.8067 361.885 86.52 360.992 86.52ZM376.936 94.76C377.203 94.76 377.476 94.74 377.756 94.7C378.036 94.6467 378.263 94.5933 378.436 94.54V95.88C378.25 95.9733 377.983 96.0467 377.636 96.1C377.29 96.1667 376.956 96.2 376.636 96.2C376.076 96.2 375.556 96.1067 375.076 95.92C374.61 95.72 374.23 95.38 373.936 94.9C373.643 94.42 373.496 93.7467 373.496 92.88V86.64H371.976V85.8L373.516 85.1L374.216 82.82H375.256V85.28H378.356V86.64H375.256V92.84C375.256 93.4933 375.41 93.98 375.716 94.3C376.036 94.6067 376.443 94.76 376.936 94.76ZM389.903 90.62C389.903 92.3933 389.449 93.7667 388.543 94.74C387.649 95.7133 386.436 96.2 384.903 96.2C383.956 96.2 383.109 95.9867 382.363 95.56C381.629 95.12 381.049 94.4867 380.623 93.66C380.196 92.82 379.983 91.8067 379.983 90.62C379.983 88.8467 380.429 87.48 381.323 86.52C382.216 85.56 383.429 85.08 384.963 85.08C385.936 85.08 386.789 85.3 387.523 85.74C388.269 86.1667 388.849 86.7933 389.263 87.62C389.689 88.4333 389.903 89.4333 389.903 90.62ZM381.803 90.62C381.803 91.8867 382.049 92.8933 382.543 93.64C383.049 94.3733 383.849 94.74 384.943 94.74C386.023 94.74 386.816 94.3733 387.323 93.64C387.829 92.8933 388.083 91.8867 388.083 90.62C388.083 89.3533 387.829 88.36 387.323 87.64C386.816 86.92 386.016 86.56 384.923 86.56C383.829 86.56 383.036 86.92 382.543 87.64C382.049 88.36 381.803 89.3533 381.803 90.62ZM396.272 94.76C396.539 94.76 396.812 94.74 397.092 94.7C397.372 94.6467 397.599 94.5933 397.772 94.54V95.88C397.586 95.9733 397.319 96.0467 396.972 96.1C396.626 96.1667 396.292 96.2 395.972 96.2C395.412 96.2 394.892 96.1067 394.412 95.92C393.946 95.72 393.566 95.38 393.272 94.9C392.979 94.42 392.832 93.7467 392.832 92.88V86.64H391.312V85.8L392.852 85.1L393.552 82.82H394.592V85.28H397.692V86.64H394.592V92.84C394.592 93.4933 394.746 93.98 395.052 94.3C395.372 94.6067 395.779 94.76 396.272 94.76ZM403.979 85.1C405.285 85.1 406.252 85.3867 406.879 85.96C407.505 86.5333 407.819 87.4467 407.819 88.7V96H406.539L406.199 94.48H406.119C405.652 95.0667 405.159 95.5 404.639 95.78C404.132 96.06 403.425 96.2 402.519 96.2C401.545 96.2 400.739 95.9467 400.099 95.44C399.459 94.92 399.139 94.1133 399.139 93.02C399.139 91.9533 399.559 91.1333 400.399 90.56C401.239 89.9733 402.532 89.6533 404.279 89.6L406.099 89.54V88.9C406.099 88.0067 405.905 87.3867 405.519 87.04C405.132 86.6933 404.585 86.52 403.879 86.52C403.319 86.52 402.785 86.6067 402.279 86.78C401.772 86.94 401.299 87.1267 400.859 87.34L400.319 86.02C400.785 85.7667 401.339 85.5533 401.979 85.38C402.619 85.1933 403.285 85.1 403.979 85.1ZM404.499 90.82C403.165 90.8733 402.239 91.0867 401.719 91.46C401.212 91.8333 400.959 92.36 400.959 93.04C400.959 93.64 401.139 94.08 401.499 94.36C401.872 94.64 402.345 94.78 402.919 94.78C403.825 94.78 404.579 94.5333 405.179 94.04C405.779 93.5333 406.079 92.76 406.079 91.72V90.76L404.499 90.82ZM412.89 96H411.13V80.8H412.89V96ZM425.281 96.2C423.948 96.2 422.881 95.74 422.081 94.82C421.281 93.8867 420.881 92.5 420.881 90.66C420.881 88.82 421.281 87.4333 422.081 86.5C422.895 85.5533 423.968 85.08 425.301 85.08C426.128 85.08 426.801 85.2333 427.321 85.54C427.855 85.8467 428.288 86.22 428.621 86.66H428.741C428.728 86.4867 428.701 86.2333 428.661 85.9C428.635 85.5533 428.621 85.28 428.621 85.08V80.8H430.381V96H428.961L428.701 94.56H428.621C428.301 95.0133 427.875 95.4 427.341 95.72C426.808 96.04 426.121 96.2 425.281 96.2ZM425.561 94.74C426.695 94.74 427.488 94.4333 427.941 93.82C428.408 93.1933 428.641 92.2533 428.641 91V90.68C428.641 89.3467 428.421 88.3267 427.981 87.62C427.541 86.9 426.728 86.54 425.541 86.54C424.595 86.54 423.881 86.92 423.401 87.68C422.935 88.4267 422.701 89.4333 422.701 90.7C422.701 91.98 422.935 92.9733 423.401 93.68C423.881 94.3867 424.601 94.74 425.561 94.74ZM435.346 81.94C435.173 82.6333 434.919 83.4133 434.586 84.28C434.266 85.1333 433.946 85.9133 433.626 86.62H432.326C432.459 86.1133 432.586 85.5733 432.706 85C432.839 84.4133 432.959 83.84 433.066 83.28C433.173 82.7067 433.259 82.1867 433.326 81.72H435.206L435.346 81.94ZM440.231 85.08C441.151 85.08 441.937 85.28 442.591 85.68C443.257 86.08 443.764 86.6467 444.111 87.38C444.471 88.1 444.651 88.9467 444.651 89.92V90.98H437.311C437.337 92.1933 437.644 93.12 438.231 93.76C438.831 94.3867 439.664 94.7 440.731 94.7C441.411 94.7 442.011 94.64 442.531 94.52C443.064 94.3867 443.611 94.2 444.171 93.96V95.5C443.624 95.74 443.084 95.9133 442.551 96.02C442.017 96.14 441.384 96.2 440.651 96.2C439.637 96.2 438.737 95.9933 437.951 95.58C437.177 95.1667 436.571 94.5533 436.131 93.74C435.704 92.9133 435.491 91.9067 435.491 90.72C435.491 89.5467 435.684 88.54 436.071 87.7C436.471 86.86 437.024 86.2133 437.731 85.76C438.451 85.3067 439.284 85.08 440.231 85.08ZM440.211 86.52C439.371 86.52 438.704 86.7933 438.211 87.34C437.731 87.8733 437.444 88.62 437.351 89.58H442.811C442.797 88.6733 442.584 87.94 442.171 87.38C441.757 86.8067 441.104 86.52 440.211 86.52ZM443.051 80.88C442.891 81.12 442.644 81.4333 442.311 81.82C441.977 82.1933 441.617 82.5733 441.231 82.96C440.857 83.3333 440.511 83.64 440.191 83.88H439.031V83.64C439.231 83.3867 439.444 83.0867 439.671 82.74C439.911 82.3933 440.144 82.04 440.371 81.68C440.597 81.3067 440.784 80.9733 440.931 80.68H443.051V80.88ZM450.96 94.76C451.226 94.76 451.5 94.74 451.78 94.7C452.06 94.6467 452.286 94.5933 452.46 94.54V95.88C452.273 95.9733 452.006 96.0467 451.66 96.1C451.313 96.1667 450.98 96.2 450.66 96.2C450.1 96.2 449.58 96.1067 449.1 95.92C448.633 95.72 448.253 95.38 447.96 94.9C447.666 94.42 447.52 93.7467 447.52 92.88V86.64H446V85.8L447.54 85.1L448.24 82.82H449.28V85.28H452.38V86.64H449.28V92.84C449.28 93.4933 449.433 93.98 449.74 94.3C450.06 94.6067 450.466 94.76 450.96 94.76ZM458.666 85.1C459.973 85.1 460.94 85.3867 461.566 85.96C462.193 86.5333 462.506 87.4467 462.506 88.7V96H461.226L460.886 94.48H460.806C460.34 95.0667 459.846 95.5 459.326 95.78C458.82 96.06 458.113 96.2 457.206 96.2C456.233 96.2 455.426 95.9467 454.786 95.44C454.146 94.92 453.826 94.1133 453.826 93.02C453.826 91.9533 454.246 91.1333 455.086 90.56C455.926 89.9733 457.22 89.6533 458.966 89.6L460.786 89.54V88.9C460.786 88.0067 460.593 87.3867 460.206 87.04C459.82 86.6933 459.273 86.52 458.566 86.52C458.006 86.52 457.473 86.6067 456.966 86.78C456.46 86.94 455.986 87.1267 455.546 87.34L455.006 86.02C455.473 85.7667 456.026 85.5533 456.666 85.38C457.306 85.1933 457.973 85.1 458.666 85.1ZM459.186 90.82C457.853 90.8733 456.926 91.0867 456.406 91.46C455.9 91.8333 455.646 92.36 455.646 93.04C455.646 93.64 455.826 94.08 456.186 94.36C456.56 94.64 457.033 94.78 457.606 94.78C458.513 94.78 459.266 94.5333 459.866 94.04C460.466 93.5333 460.766 92.76 460.766 91.72V90.76L459.186 90.82ZM470.917 85.08C472.237 85.08 473.297 85.54 474.097 86.46C474.911 87.38 475.317 88.7667 475.317 90.62C475.317 92.4467 474.911 93.8333 474.097 94.78C473.297 95.7267 472.231 96.2 470.897 96.2C470.071 96.2 469.384 96.0467 468.837 95.74C468.304 95.42 467.884 95.0533 467.577 94.64H467.457C467.484 94.8667 467.511 95.1533 467.537 95.5C467.564 95.8467 467.577 96.1467 467.577 96.4V100.8H465.817V85.28H467.257L467.497 86.74H467.577C467.897 86.2733 468.317 85.88 468.837 85.56C469.357 85.24 470.051 85.08 470.917 85.08ZM470.597 86.56C469.504 86.56 468.731 86.8667 468.277 87.48C467.837 88.0933 467.604 89.0267 467.577 90.28V90.62C467.577 91.94 467.791 92.96 468.217 93.68C468.657 94.3867 469.464 94.74 470.637 94.74C471.291 94.74 471.824 94.56 472.237 94.2C472.664 93.84 472.977 93.3533 473.177 92.74C473.391 92.1133 473.497 91.4 473.497 90.6C473.497 89.3733 473.257 88.3933 472.777 87.66C472.311 86.9267 471.584 86.56 470.597 86.56ZM482.262 85.08C483.182 85.08 483.969 85.28 484.622 85.68C485.289 86.08 485.795 86.6467 486.142 87.38C486.502 88.1 486.682 88.9467 486.682 89.92V90.98H479.342C479.369 92.1933 479.675 93.12 480.262 93.76C480.862 94.3867 481.695 94.7 482.762 94.7C483.442 94.7 484.042 94.64 484.562 94.52C485.095 94.3867 485.642 94.2 486.202 93.96V95.5C485.655 95.74 485.115 95.9133 484.582 96.02C484.049 96.14 483.415 96.2 482.682 96.2C481.669 96.2 480.769 95.9933 479.982 95.58C479.209 95.1667 478.602 94.5533 478.162 93.74C477.735 92.9133 477.522 91.9067 477.522 90.72C477.522 89.5467 477.715 88.54 478.102 87.7C478.502 86.86 479.055 86.2133 479.762 85.76C480.482 85.3067 481.315 85.08 482.262 85.08ZM482.242 86.52C481.402 86.52 480.735 86.7933 480.242 87.34C479.762 87.8733 479.475 88.62 479.382 89.58H484.842C484.829 88.6733 484.615 87.94 484.202 87.38C483.789 86.8067 483.135 86.52 482.242 86.52ZM496.391 93.04C496.391 94.08 496.004 94.8667 495.231 95.4C494.458 95.9333 493.418 96.2 492.111 96.2C491.364 96.2 490.718 96.14 490.171 96.02C489.638 95.9 489.164 95.7333 488.751 95.52V93.92C489.178 94.1333 489.691 94.3333 490.291 94.52C490.904 94.6933 491.524 94.78 492.151 94.78C493.044 94.78 493.691 94.64 494.091 94.36C494.491 94.0667 494.691 93.68 494.691 93.2C494.691 92.9333 494.618 92.6933 494.471 92.48C494.324 92.2667 494.058 92.0533 493.671 91.84C493.298 91.6267 492.758 91.3867 492.051 91.12C491.358 90.8533 490.764 90.5867 490.271 90.32C489.778 90.0533 489.398 89.7333 489.131 89.36C488.864 88.9867 488.731 88.5067 488.731 87.92C488.731 87.0133 489.098 86.3133 489.831 85.82C490.578 85.3267 491.551 85.08 492.751 85.08C493.404 85.08 494.011 85.1467 494.571 85.28C495.144 85.4 495.678 85.5733 496.171 85.8L495.571 87.2C495.118 87.0133 494.644 86.8533 494.151 86.72C493.658 86.5867 493.151 86.52 492.631 86.52C491.911 86.52 491.358 86.64 490.971 86.88C490.598 87.1067 490.411 87.42 490.411 87.82C490.411 88.1133 490.498 88.3667 490.671 88.58C490.844 88.78 491.131 88.98 491.531 89.18C491.944 89.3667 492.491 89.5933 493.171 89.86C493.851 90.1133 494.431 90.3733 494.911 90.64C495.391 90.9067 495.758 91.2333 496.011 91.62C496.264 91.9933 496.391 92.4667 496.391 93.04Z" fill="black"/>
<rect x="282" y="69" width="223" height="38" stroke="#B3800F" stroke-width="2"/>
<line x1="281" y1="90" x2="243" y2="90" stroke="#B3800F" stroke-width="2"/>
<line x1="113" y1="141" x2="75" y2="141" stroke="#B3800F" stroke-width="2"/>
<path d="M13.7422 148H12.1422V136.711H8.17778V135.307H17.6889V136.711H13.7422V148ZM20.1896 134.898C20.4266 134.898 20.634 134.981 20.8118 135.147C21.0014 135.301 21.0963 135.55 21.0963 135.893C21.0963 136.225 21.0014 136.474 20.8118 136.64C20.634 136.806 20.4266 136.889 20.1896 136.889C19.9288 136.889 19.7096 136.806 19.5318 136.64C19.354 136.474 19.2651 136.225 19.2651 135.893C19.2651 135.55 19.354 135.301 19.5318 135.147C19.7096 134.981 19.9288 134.898 20.1896 134.898ZM20.954 138.471V148H19.3896V138.471H20.954ZM27.1551 146.898C27.3922 146.898 27.6351 146.88 27.884 146.844C28.1329 146.797 28.3344 146.75 28.4885 146.702V147.893C28.3225 147.976 28.0855 148.041 27.7774 148.089C27.4692 148.148 27.1729 148.178 26.8885 148.178C26.3907 148.178 25.9285 148.095 25.5018 147.929C25.087 147.751 24.7492 147.449 24.4885 147.022C24.2277 146.596 24.0974 145.997 24.0974 145.227V139.68H22.7462V138.933L24.1151 138.311L24.7374 136.284H25.6618V138.471H28.4174V139.68H25.6618V145.191C25.6618 145.772 25.7981 146.204 26.0707 146.489C26.3551 146.761 26.7166 146.898 27.1551 146.898ZM34.841 138.293C35.0188 138.293 35.2084 138.305 35.4099 138.329C35.6232 138.341 35.8069 138.364 35.961 138.4L35.7654 139.84C35.6113 139.804 35.4395 139.775 35.2499 139.751C35.0721 139.727 34.9002 139.716 34.7343 139.716C34.2484 139.716 33.7921 139.852 33.3654 140.124C32.9388 140.385 32.595 140.759 32.3343 141.244C32.0854 141.719 31.961 142.276 31.961 142.916V148H30.3965V138.471H31.6765L31.8543 140.213H31.9254C32.2336 139.692 32.6306 139.241 33.1165 138.862C33.6025 138.483 34.1773 138.293 34.841 138.293ZM41.0731 138.293C41.8908 138.293 42.5901 138.471 43.1708 138.827C43.7634 139.182 44.2138 139.686 44.5219 140.338C44.8419 140.978 45.0019 141.73 45.0019 142.596V143.538H38.4775C38.5012 144.616 38.7738 145.44 39.2953 146.009C39.8286 146.566 40.5694 146.844 41.5175 146.844C42.1219 146.844 42.6553 146.791 43.1175 146.684C43.5916 146.566 44.0775 146.4 44.5753 146.187V147.556C44.0894 147.769 43.6094 147.923 43.1353 148.018C42.6612 148.124 42.0982 148.178 41.4464 148.178C40.5457 148.178 39.7457 147.994 39.0464 147.627C38.359 147.259 37.8197 146.714 37.4286 145.991C37.0494 145.256 36.8597 144.361 36.8597 143.307C36.8597 142.264 37.0316 141.369 37.3753 140.622C37.7308 139.876 38.2227 139.301 38.8508 138.898C39.4908 138.495 40.2316 138.293 41.0731 138.293ZM41.0553 139.573C40.3086 139.573 39.716 139.816 39.2775 140.302C38.8508 140.776 38.596 141.44 38.5131 142.293H43.3664C43.3545 141.487 43.1649 140.836 42.7975 140.338C42.4301 139.828 41.8494 139.573 41.0553 139.573ZM61.9658 148H60.3658V142.08H53.8592V148H52.2592V135.307H53.8592V140.676H60.3658V135.307H61.9658V148ZM70.0229 148H68.494V139.129C68.494 138.619 68.5 138.21 68.5118 137.902C68.5237 137.594 68.5414 137.274 68.5651 136.942C68.3755 137.132 68.2037 137.292 68.0496 137.422C67.8955 137.553 67.7 137.719 67.4629 137.92L66.1118 139.022L65.294 137.973L68.7251 135.307H70.0229V148Z" fill="black"/>
<rect x="1" y="122" width="80" height="38" stroke="#B3800F" stroke-width="2"/>
<path d="M139.818 27H132.724V14.3067H139.818V15.7111H134.324V19.6756H139.498V21.0622H134.324V25.5956H139.818V27ZM139.053 10.3956C138.911 10.6089 138.692 10.8874 138.396 11.2311C138.099 11.563 137.779 11.9007 137.436 12.2444C137.104 12.5763 136.796 12.8489 136.511 13.0622H135.48V12.8489C135.658 12.6237 135.847 12.357 136.049 12.0489C136.262 11.7407 136.47 11.4267 136.671 11.1067C136.873 10.7748 137.039 10.4785 137.169 10.2178H139.053V10.3956ZM145.572 25.8978C145.809 25.8978 146.052 25.88 146.301 25.8444C146.55 25.797 146.751 25.7496 146.905 25.7022V26.8933C146.739 26.9763 146.502 27.0415 146.194 27.0889C145.886 27.1481 145.59 27.1778 145.305 27.1778C144.807 27.1778 144.345 27.0948 143.918 26.9289C143.504 26.7511 143.166 26.4489 142.905 26.0222C142.644 25.5956 142.514 24.997 142.514 24.2267V18.68H141.163V17.9333L142.532 17.3111L143.154 15.2844H144.078V17.4711H146.834V18.68H144.078V24.1911C144.078 24.7719 144.215 25.2044 144.487 25.4889C144.772 25.7615 145.133 25.8978 145.572 25.8978ZM152.422 17.3111C153.584 17.3111 154.443 17.5659 155 18.0756C155.557 18.5852 155.835 19.397 155.835 20.5111V27H154.698L154.395 25.6489H154.324C153.909 26.1704 153.471 26.5556 153.009 26.8044C152.558 27.0533 151.93 27.1778 151.124 27.1778C150.259 27.1778 149.542 26.9526 148.973 26.5022C148.404 26.04 148.12 25.323 148.12 24.3511C148.12 23.403 148.493 22.6741 149.24 22.1644C149.987 21.643 151.136 21.3585 152.689 21.3111L154.307 21.2578V20.6889C154.307 19.8948 154.135 19.3437 153.791 19.0356C153.447 18.7274 152.961 18.5733 152.333 18.5733C151.835 18.5733 151.361 18.6504 150.911 18.8044C150.461 18.9467 150.04 19.1126 149.649 19.3022L149.169 18.1289C149.584 17.9037 150.075 17.7141 150.644 17.56C151.213 17.3941 151.806 17.3111 152.422 17.3111ZM152.884 22.3956C151.699 22.443 150.875 22.6326 150.413 22.9644C149.963 23.2963 149.738 23.7644 149.738 24.3689C149.738 24.9022 149.898 25.2933 150.218 25.5422C150.549 25.7911 150.97 25.9156 151.48 25.9156C152.286 25.9156 152.955 25.6963 153.489 25.2578C154.022 24.8074 154.289 24.12 154.289 23.1956V22.3422L152.884 22.3956ZM163.312 17.2933C164.485 17.2933 165.427 17.7022 166.138 18.52C166.861 19.3378 167.223 20.5704 167.223 22.2178C167.223 23.8415 166.861 25.0741 166.138 25.9156C165.427 26.757 164.479 27.1778 163.294 27.1778C162.559 27.1778 161.949 27.0415 161.463 26.7689C160.989 26.4844 160.616 26.1585 160.343 25.7911H160.236C160.26 25.9926 160.284 26.2474 160.307 26.5556C160.331 26.8637 160.343 27.1304 160.343 27.3556V31.2667H158.778V17.4711H160.058L160.272 18.7689H160.343C160.627 18.3541 161.001 18.0044 161.463 17.72C161.925 17.4356 162.541 17.2933 163.312 17.2933ZM163.027 18.6089C162.056 18.6089 161.368 18.8815 160.965 19.4267C160.574 19.9719 160.367 20.8015 160.343 21.9156V22.2178C160.343 23.3911 160.533 24.2978 160.912 24.9378C161.303 25.5659 162.02 25.88 163.063 25.88C163.644 25.88 164.118 25.72 164.485 25.4C164.864 25.08 165.143 24.6474 165.321 24.1022C165.51 23.5452 165.605 22.9111 165.605 22.2C165.605 21.1096 165.392 20.2385 164.965 19.5867C164.55 18.9348 163.904 18.6089 163.027 18.6089ZM173.396 17.2933C174.214 17.2933 174.913 17.4711 175.494 17.8267C176.086 18.1822 176.537 18.6859 176.845 19.3378C177.165 19.9778 177.325 20.7304 177.325 21.5956V22.5378H170.8C170.824 23.6163 171.097 24.44 171.618 25.0089C172.152 25.5659 172.892 25.8444 173.84 25.8444C174.445 25.8444 174.978 25.7911 175.44 25.6844C175.914 25.5659 176.4 25.4 176.898 25.1867V26.5556C176.412 26.7689 175.932 26.923 175.458 27.0178C174.984 27.1244 174.421 27.1778 173.769 27.1778C172.869 27.1778 172.069 26.9941 171.369 26.6267C170.682 26.2593 170.143 25.7141 169.752 24.9911C169.372 24.2563 169.183 23.3615 169.183 22.3067C169.183 21.2637 169.354 20.3689 169.698 19.6222C170.054 18.8756 170.546 18.3007 171.174 17.8978C171.814 17.4948 172.554 17.2933 173.396 17.2933ZM173.378 18.5733C172.632 18.5733 172.039 18.8163 171.6 19.3022C171.174 19.7763 170.919 20.44 170.836 21.2933H175.689C175.677 20.4874 175.488 19.8356 175.12 19.3378C174.753 18.8281 174.172 18.5733 173.378 18.5733ZM187.978 17.3111C189.139 17.3111 189.998 17.5659 190.555 18.0756C191.112 18.5852 191.391 19.397 191.391 20.5111V27H190.253L189.951 25.6489H189.88C189.465 26.1704 189.027 26.5556 188.564 26.8044C188.114 27.0533 187.486 27.1778 186.68 27.1778C185.815 27.1778 185.098 26.9526 184.529 26.5022C183.96 26.04 183.675 25.323 183.675 24.3511C183.675 23.403 184.049 22.6741 184.795 22.1644C185.542 21.643 186.692 21.3585 188.244 21.3111L189.862 21.2578V20.6889C189.862 19.8948 189.69 19.3437 189.347 19.0356C189.003 18.7274 188.517 18.5733 187.889 18.5733C187.391 18.5733 186.917 18.6504 186.467 18.8044C186.016 18.9467 185.595 19.1126 185.204 19.3022L184.724 18.1289C185.139 17.9037 185.631 17.7141 186.2 17.56C186.769 17.3941 187.361 17.3111 187.978 17.3111ZM188.44 22.3956C187.255 22.443 186.431 22.6326 185.969 22.9644C185.518 23.2963 185.293 23.7644 185.293 24.3689C185.293 24.9022 185.453 25.2933 185.773 25.5422C186.105 25.7911 186.526 25.9156 187.035 25.9156C187.841 25.9156 188.511 25.6963 189.044 25.2578C189.578 24.8074 189.844 24.12 189.844 23.1956V22.3422L188.44 22.3956ZM198.156 27.1778C197.315 27.1778 196.562 27.0059 195.898 26.6622C195.247 26.3185 194.731 25.7852 194.352 25.0622C193.984 24.3393 193.801 23.4148 193.801 22.2889C193.801 21.1156 193.996 20.1615 194.387 19.4267C194.778 18.6919 195.306 18.1526 195.97 17.8089C196.645 17.4652 197.41 17.2933 198.263 17.2933C198.749 17.2933 199.217 17.3467 199.667 17.4533C200.118 17.5481 200.485 17.6667 200.77 17.8089L200.29 19.1067C200.005 19 199.673 18.8993 199.294 18.8044C198.915 18.7096 198.559 18.6622 198.227 18.6622C196.355 18.6622 195.418 19.8652 195.418 22.2711C195.418 23.4207 195.644 24.3037 196.094 24.92C196.556 25.5244 197.238 25.8267 198.138 25.8267C198.66 25.8267 199.116 25.7733 199.507 25.6667C199.91 25.56 200.278 25.4296 200.61 25.2756V26.6622C200.29 26.8281 199.934 26.9526 199.543 27.0356C199.164 27.1304 198.701 27.1778 198.156 27.1778ZM206.058 25.8978C206.295 25.8978 206.538 25.88 206.787 25.8444C207.036 25.797 207.237 25.7496 207.391 25.7022V26.8933C207.225 26.9763 206.988 27.0415 206.68 27.0889C206.372 27.1481 206.076 27.1778 205.791 27.1778C205.293 27.1778 204.831 27.0948 204.405 26.9289C203.99 26.7511 203.652 26.4489 203.391 26.0222C203.131 25.5956 203 24.997 203 24.2267V18.68H201.649V17.9333L203.018 17.3111L203.64 15.2844H204.565V17.4711H207.32V18.68H204.565V24.1911C204.565 24.7719 204.701 25.2044 204.973 25.4889C205.258 25.7615 205.619 25.8978 206.058 25.8978ZM217.264 17.4711V27H215.984L215.753 25.7378H215.682C215.373 26.2356 214.947 26.603 214.402 26.84C213.856 27.0652 213.276 27.1778 212.659 27.1778C211.51 27.1778 210.644 26.9052 210.064 26.36C209.483 25.803 209.193 24.92 209.193 23.7111V17.4711H210.775V23.6044C210.775 25.1215 211.48 25.88 212.89 25.88C213.945 25.88 214.674 25.5837 215.077 24.9911C215.492 24.3985 215.699 23.5452 215.699 22.4311V17.4711H217.264ZM223.969 17.2933C224.787 17.2933 225.486 17.4711 226.067 17.8267C226.659 18.1822 227.11 18.6859 227.418 19.3378C227.738 19.9778 227.898 20.7304 227.898 21.5956V22.5378H221.373C221.397 23.6163 221.67 24.44 222.191 25.0089C222.724 25.5659 223.465 25.8444 224.413 25.8444C225.018 25.8444 225.551 25.7911 226.013 25.6844C226.487 25.5659 226.973 25.4 227.471 25.1867V26.5556C226.985 26.7689 226.505 26.923 226.031 27.0178C225.557 27.1244 224.994 27.1778 224.342 27.1778C223.441 27.1778 222.641 26.9941 221.942 26.6267C221.255 26.2593 220.716 25.7141 220.324 24.9911C219.945 24.2563 219.756 23.3615 219.756 22.3067C219.756 21.2637 219.927 20.3689 220.271 19.6222C220.627 18.8756 221.119 18.3007 221.747 17.8978C222.387 17.4948 223.127 17.2933 223.969 17.2933ZM223.951 18.5733C223.204 18.5733 222.612 18.8163 222.173 19.3022C221.747 19.7763 221.492 20.44 221.409 21.2933H226.262C226.25 20.4874 226.061 19.8356 225.693 19.3378C225.326 18.8281 224.745 18.5733 223.951 18.5733ZM231.888 27H230.324V13.4889H231.888V27ZM236.471 27H234.907V13.4889H236.471V27ZM243.17 17.2933C243.988 17.2933 244.687 17.4711 245.268 17.8267C245.861 18.1822 246.311 18.6859 246.619 19.3378C246.939 19.9778 247.099 20.7304 247.099 21.5956V22.5378H240.575C240.598 23.6163 240.871 24.44 241.393 25.0089C241.926 25.5659 242.667 25.8444 243.615 25.8444C244.219 25.8444 244.753 25.7911 245.215 25.6844C245.689 25.5659 246.175 25.4 246.673 25.1867V26.5556C246.187 26.7689 245.707 26.923 245.233 27.0178C244.758 27.1244 244.195 27.1778 243.544 27.1778C242.643 27.1778 241.843 26.9941 241.144 26.6267C240.456 26.2593 239.917 25.7141 239.526 24.9911C239.147 24.2563 238.957 23.3615 238.957 22.3067C238.957 21.2637 239.129 20.3689 239.473 19.6222C239.828 18.8756 240.32 18.3007 240.948 17.8978C241.588 17.4948 242.329 17.2933 243.17 17.2933ZM243.153 18.5733C242.406 18.5733 241.813 18.8163 241.375 19.3022C240.948 19.7763 240.693 20.44 240.61 21.2933H245.464C245.452 20.4874 245.262 19.8356 244.895 19.3378C244.527 18.8281 243.947 18.5733 243.153 18.5733Z" fill="black"/>
<rect x="124" y="1" width="132" height="38" stroke="#B3800F" stroke-width="2"/>
<line x1="184" y1="38" x2="184" y2="76" stroke="#B3800F" stroke-width="2"/>
<path d="M139.038 95.8737L139.026 98H128.924V81.8H139.026V83.9262H131.568V88.8087H137.53V90.8675H131.568V95.8737H139.038ZM138.644 77.1087L134.988 80.3262C134.853 80.4462 134.725 80.5212 134.605 80.5512C134.485 80.5812 134.335 80.5962 134.155 80.5962H132.411L134.886 77.525C134.954 77.4275 135.021 77.3525 135.089 77.3C135.156 77.2475 135.231 77.2062 135.314 77.1762C135.396 77.1462 135.486 77.1275 135.584 77.12C135.689 77.1125 135.809 77.1087 135.944 77.1087H138.644ZM144.633 98.18C143.68 98.18 142.945 97.9137 142.428 97.3812C141.918 96.8412 141.663 96.0837 141.663 95.1088V88.4262H140.403C140.268 88.4262 140.152 88.385 140.054 88.3025C139.957 88.2125 139.908 88.0812 139.908 87.9087V86.93L141.764 86.66L142.293 83.3412C142.33 83.2137 142.394 83.1125 142.484 83.0375C142.574 82.955 142.694 82.9137 142.844 82.9137H144.082V86.6825H147.265V88.4262H144.082V94.94C144.082 95.3525 144.183 95.6675 144.385 95.885C144.588 96.1025 144.858 96.2112 145.195 96.2112C145.383 96.2112 145.544 96.1887 145.679 96.1437C145.814 96.0912 145.93 96.0387 146.028 95.9862C146.125 95.9262 146.208 95.8737 146.275 95.8287C146.35 95.7762 146.422 95.75 146.489 95.75C146.624 95.75 146.733 95.825 146.815 95.975L147.535 97.1562C147.16 97.4862 146.718 97.7412 146.208 97.9212C145.698 98.0938 145.173 98.18 144.633 98.18ZM155.303 92.9825C154.441 93.0125 153.713 93.0837 153.121 93.1962C152.528 93.3012 152.048 93.44 151.681 93.6125C151.313 93.7775 151.047 93.9762 150.882 94.2087C150.724 94.4412 150.646 94.6962 150.646 94.9737C150.646 95.2437 150.687 95.4762 150.769 95.6712C150.859 95.8587 150.979 96.0162 151.129 96.1437C151.287 96.2637 151.467 96.3537 151.669 96.4137C151.879 96.4662 152.108 96.4925 152.356 96.4925C152.986 96.4925 153.526 96.3762 153.976 96.1437C154.433 95.9037 154.876 95.5587 155.303 95.1088V92.9825ZM148.891 88.1225C150.188 86.915 151.733 86.3112 153.526 86.3112C154.186 86.3112 154.771 86.42 155.281 86.6375C155.798 86.8475 156.229 87.1475 156.574 87.5375C156.927 87.9275 157.193 88.3925 157.373 88.9325C157.561 89.465 157.654 90.0575 157.654 90.71V98H156.574C156.342 98 156.166 97.9662 156.046 97.8987C155.926 97.8237 155.824 97.6775 155.742 97.46L155.506 96.5262C155.213 96.7887 154.924 97.025 154.639 97.235C154.354 97.4375 154.058 97.61 153.751 97.7525C153.451 97.895 153.124 98 152.772 98.0675C152.427 98.1425 152.044 98.18 151.624 98.18C151.159 98.18 150.724 98.1163 150.319 97.9887C149.922 97.8612 149.577 97.67 149.284 97.415C148.992 97.1525 148.759 96.83 148.587 96.4475C148.422 96.065 148.339 95.615 148.339 95.0975C148.339 94.655 148.456 94.2237 148.688 93.8037C148.928 93.3837 149.318 93.0087 149.858 92.6787C150.406 92.3412 151.122 92.0637 152.007 91.8462C152.899 91.6287 153.998 91.505 155.303 91.475V90.71C155.303 89.885 155.127 89.27 154.774 88.865C154.422 88.46 153.904 88.2575 153.222 88.2575C152.757 88.2575 152.367 88.3175 152.052 88.4375C151.737 88.55 151.463 88.6737 151.231 88.8087C150.998 88.9437 150.792 89.0712 150.612 89.1912C150.432 89.3037 150.241 89.36 150.038 89.36C149.873 89.36 149.731 89.3187 149.611 89.2362C149.498 89.1462 149.404 89.0375 149.329 88.91L148.891 88.1225ZM162.907 95.12C163.244 95.555 163.612 95.8625 164.009 96.0425C164.414 96.215 164.86 96.3012 165.348 96.3012C166.293 96.3012 167.028 95.9562 167.553 95.2662C168.085 94.5762 168.352 93.5487 168.352 92.1837C168.352 91.4787 168.292 90.8787 168.172 90.3837C168.052 89.8812 167.879 89.4725 167.654 89.1575C167.429 88.8425 167.155 88.6137 166.833 88.4712C166.51 88.3287 166.147 88.2575 165.742 88.2575C165.127 88.2575 164.594 88.3925 164.144 88.6625C163.702 88.925 163.289 89.3037 162.907 89.7987V95.12ZM162.783 88.19C163.263 87.6275 163.807 87.1737 164.414 86.8287C165.029 86.4837 165.742 86.3112 166.552 86.3112C167.197 86.3112 167.782 86.4425 168.307 86.705C168.832 86.96 169.282 87.335 169.657 87.83C170.032 88.325 170.32 88.94 170.523 89.675C170.733 90.4025 170.838 91.2387 170.838 92.1837C170.838 93.0312 170.722 93.8225 170.489 94.5575C170.264 95.285 169.938 95.9187 169.51 96.4587C169.083 96.9912 168.565 97.4113 167.958 97.7187C167.35 98.0188 166.664 98.1688 165.899 98.1688C165.224 98.1688 164.65 98.06 164.178 97.8425C163.713 97.625 163.289 97.325 162.907 96.9425V101.814H160.488V86.525H161.95C162.28 86.525 162.49 86.6787 162.58 86.9862L162.783 88.19ZM180.714 90.9688C180.714 90.5637 180.654 90.1887 180.534 89.8437C180.422 89.4912 180.253 89.1875 180.028 88.9325C179.803 88.67 179.522 88.4675 179.184 88.325C178.854 88.175 178.472 88.1 178.037 88.1C177.159 88.1 176.469 88.3512 175.967 88.8537C175.464 89.3562 175.146 90.0612 175.011 90.9688H180.714ZM174.943 92.4537C174.973 93.1062 175.074 93.6725 175.247 94.1525C175.419 94.625 175.648 95.0187 175.933 95.3337C176.226 95.6487 176.571 95.885 176.968 96.0425C177.373 96.1925 177.823 96.2675 178.318 96.2675C178.791 96.2675 179.199 96.215 179.544 96.11C179.889 95.9975 180.189 95.8775 180.444 95.75C180.699 95.615 180.917 95.495 181.097 95.39C181.277 95.2775 181.442 95.2212 181.592 95.2212C181.787 95.2212 181.937 95.2962 182.042 95.4462L182.728 96.335C182.443 96.6725 182.121 96.9575 181.761 97.19C181.401 97.4225 181.018 97.6137 180.613 97.7637C180.208 97.9062 179.792 98.0075 179.364 98.0675C178.937 98.135 178.521 98.1688 178.116 98.1688C177.321 98.1688 176.582 98.0375 175.899 97.775C175.224 97.505 174.636 97.1112 174.133 96.5938C173.638 96.0762 173.248 95.435 172.963 94.67C172.686 93.905 172.547 93.0237 172.547 92.0262C172.547 91.2312 172.671 90.4887 172.918 89.7987C173.173 89.1087 173.533 88.5087 173.998 87.9987C174.471 87.4887 175.041 87.0875 175.708 86.795C176.383 86.495 177.144 86.345 177.992 86.345C178.697 86.345 179.349 86.4612 179.949 86.6938C180.549 86.9187 181.067 87.2525 181.502 87.695C181.937 88.1375 182.274 88.6812 182.514 89.3262C182.762 89.9637 182.886 90.6912 182.886 91.5087C182.886 91.8837 182.844 92.135 182.762 92.2625C182.679 92.39 182.529 92.4537 182.312 92.4537H174.943ZM200.824 96.1662V98H191.993V96.1662H195.368V86.0187C195.368 85.6587 195.379 85.2912 195.402 84.9162L192.803 87.11C192.691 87.2 192.574 87.26 192.454 87.29C192.342 87.3125 192.233 87.3125 192.128 87.29C192.031 87.2675 191.941 87.2337 191.858 87.1887C191.783 87.1362 191.723 87.08 191.678 87.02L190.924 85.9625L195.807 81.7662H197.776V96.1662H200.824ZM216.723 89.3487C216.385 88.9137 216.014 88.61 215.609 88.4375C215.204 88.265 214.765 88.1787 214.293 88.1787C213.348 88.1787 212.609 88.5275 212.077 89.225C211.544 89.915 211.278 90.9387 211.278 92.2962C211.278 93.0012 211.338 93.605 211.458 94.1075C211.578 94.6025 211.75 95.0075 211.975 95.3225C212.2 95.6375 212.474 95.8662 212.797 96.0087C213.119 96.1512 213.483 96.2225 213.888 96.2225C214.503 96.2225 215.032 96.0912 215.474 95.8287C215.924 95.5587 216.34 95.18 216.723 94.6925V89.3487ZM219.142 81.35V98H217.679C217.357 98 217.15 97.8462 217.06 97.5387L216.847 96.29C216.367 96.8525 215.819 97.3062 215.204 97.6512C214.597 97.9962 213.888 98.1688 213.078 98.1688C212.433 98.1688 211.848 98.0412 211.323 97.7862C210.798 97.5237 210.348 97.145 209.973 96.65C209.598 96.155 209.305 95.5437 209.095 94.8162C208.893 94.0812 208.792 93.2412 208.792 92.2962C208.792 91.4412 208.904 90.65 209.129 89.9225C209.362 89.195 209.692 88.565 210.119 88.0325C210.547 87.4925 211.064 87.0725 211.672 86.7725C212.287 86.465 212.973 86.3112 213.73 86.3112C214.405 86.3112 214.979 86.42 215.452 86.6375C215.924 86.8475 216.348 87.1437 216.723 87.5262V81.35H219.142ZM229.625 90.9688C229.625 90.5637 229.565 90.1887 229.445 89.8437C229.333 89.4912 229.164 89.1875 228.939 88.9325C228.714 88.67 228.433 88.4675 228.095 88.325C227.765 88.175 227.383 88.1 226.948 88.1C226.07 88.1 225.38 88.3512 224.878 88.8537C224.375 89.3562 224.057 90.0612 223.922 90.9688H229.625ZM223.854 92.4537C223.884 93.1062 223.985 93.6725 224.158 94.1525C224.33 94.625 224.559 95.0187 224.844 95.3337C225.137 95.6487 225.482 95.885 225.879 96.0425C226.284 96.1925 226.734 96.2675 227.229 96.2675C227.702 96.2675 228.11 96.215 228.455 96.11C228.8 95.9975 229.1 95.8775 229.355 95.75C229.61 95.615 229.828 95.495 230.008 95.39C230.188 95.2775 230.353 95.2212 230.503 95.2212C230.698 95.2212 230.848 95.2962 230.953 95.4462L231.639 96.335C231.354 96.6725 231.032 96.9575 230.672 97.19C230.312 97.4225 229.929 97.6137 229.524 97.7637C229.119 97.9062 228.703 98.0075 228.275 98.0675C227.848 98.135 227.432 98.1688 227.027 98.1688C226.232 98.1688 225.493 98.0375 224.81 97.775C224.135 97.505 223.547 97.1112 223.044 96.5938C222.549 96.0762 222.159 95.435 221.874 94.67C221.597 93.905 221.458 93.0237 221.458 92.0262C221.458 91.2312 221.582 90.4887 221.829 89.7987C222.084 89.1087 222.444 88.5087 222.909 87.9987C223.382 87.4887 223.952 87.0875 224.619 86.795C225.294 86.495 226.055 86.345 226.903 86.345C227.608 86.345 228.26 86.4612 228.86 86.6938C229.46 86.9187 229.978 87.2525 230.413 87.695C230.848 88.1375 231.185 88.6812 231.425 89.3262C231.673 89.9637 231.797 90.6912 231.797 91.5087C231.797 91.8837 231.755 92.135 231.673 92.2625C231.59 92.39 231.44 92.4537 231.223 92.4537H223.854ZM246.293 92.015V86.0975C246.293 85.625 246.327 85.1075 246.394 84.545L240.949 92.015H246.293ZM250.635 92.015V93.41C250.635 93.545 250.59 93.6612 250.5 93.7587C250.418 93.8562 250.29 93.905 250.118 93.905H248.397V98H246.293V93.905H239.284C239.112 93.905 238.962 93.8562 238.834 93.7587C238.714 93.6537 238.635 93.5262 238.598 93.3762L238.35 92.1387L246.124 81.7887H248.397V92.015H250.635Z" fill="#707070"/>
<path d="M150.74 131.166H141.901V156H136.447V131.166H127.608V126.685H150.74V131.166ZM158.777 135.2V156H153.749V135.2H158.777ZM159.466 129.138C159.466 129.571 159.378 129.976 159.202 130.355C159.027 130.733 158.79 131.064 158.493 131.348C158.209 131.632 157.871 131.862 157.479 132.037C157.087 132.2 156.668 132.281 156.222 132.281C155.79 132.281 155.378 132.2 154.986 132.037C154.607 131.862 154.276 131.632 153.992 131.348C153.709 131.064 153.479 130.733 153.303 130.355C153.141 129.976 153.06 129.571 153.06 129.138C153.06 128.692 153.141 128.273 153.303 127.882C153.479 127.49 153.709 127.152 153.992 126.868C154.276 126.584 154.607 126.361 154.986 126.199C155.378 126.023 155.79 125.935 156.222 125.935C156.668 125.935 157.087 126.023 157.479 126.199C157.871 126.361 158.209 126.584 158.493 126.868C158.79 127.152 159.027 127.49 159.202 127.882C159.378 128.273 159.466 128.692 159.466 129.138ZM170.815 156.324C169.004 156.324 167.612 155.818 166.639 154.804C165.679 153.777 165.199 152.364 165.199 150.567V138.951H163.071C162.801 138.951 162.571 138.863 162.382 138.687C162.192 138.511 162.098 138.248 162.098 137.896V135.91L165.443 135.362L166.497 129.686C166.565 129.416 166.693 129.206 166.882 129.057C167.071 128.909 167.315 128.834 167.612 128.834H170.207V135.382H175.762V138.951H170.207V150.222C170.207 150.871 170.362 151.378 170.673 151.743C170.998 152.108 171.437 152.29 171.991 152.29C172.302 152.29 172.559 152.256 172.761 152.189C172.977 152.108 173.16 152.027 173.309 151.945C173.471 151.864 173.613 151.79 173.734 151.722C173.856 151.641 173.978 151.601 174.099 151.601C174.248 151.601 174.37 151.641 174.464 151.722C174.559 151.79 174.66 151.898 174.768 152.047L176.268 154.48C175.539 155.088 174.701 155.547 173.755 155.858C172.809 156.169 171.829 156.324 170.815 156.324ZM183.691 138.809C184.34 137.565 185.11 136.592 186.002 135.889C186.894 135.173 187.948 134.815 189.165 134.815C190.124 134.815 190.895 135.024 191.476 135.443L191.152 139.194C191.084 139.437 190.983 139.613 190.847 139.721C190.726 139.815 190.557 139.863 190.341 139.863C190.138 139.863 189.834 139.829 189.428 139.761C189.036 139.694 188.651 139.66 188.273 139.66C187.719 139.66 187.225 139.741 186.793 139.903C186.36 140.066 185.968 140.302 185.617 140.613C185.279 140.91 184.975 141.275 184.705 141.708C184.448 142.14 184.205 142.633 183.975 143.188V156H178.968V135.2H181.907C182.421 135.2 182.779 135.295 182.982 135.484C183.184 135.66 183.319 135.984 183.387 136.457L183.691 138.809ZM206.899 143.208C206.899 142.559 206.805 141.951 206.616 141.383C206.44 140.802 206.17 140.295 205.805 139.863C205.44 139.43 204.974 139.092 204.406 138.849C203.852 138.592 203.203 138.464 202.46 138.464C201.014 138.464 199.872 138.876 199.034 139.701C198.209 140.525 197.682 141.694 197.452 143.208H206.899ZM197.351 146.228C197.432 147.296 197.621 148.222 197.919 149.006C198.216 149.776 198.608 150.418 199.094 150.932C199.581 151.432 200.155 151.81 200.818 152.067C201.493 152.31 202.237 152.432 203.048 152.432C203.859 152.432 204.555 152.337 205.136 152.148C205.73 151.959 206.244 151.749 206.676 151.52C207.122 151.29 207.508 151.08 207.832 150.891C208.17 150.702 208.494 150.607 208.805 150.607C209.224 150.607 209.535 150.763 209.738 151.074L211.177 152.898C210.623 153.547 210.001 154.094 209.312 154.54C208.623 154.973 207.9 155.324 207.143 155.595C206.399 155.851 205.636 156.034 204.852 156.142C204.082 156.25 203.331 156.304 202.602 156.304C201.156 156.304 199.811 156.068 198.567 155.595C197.324 155.108 196.243 154.398 195.324 153.466C194.405 152.52 193.682 151.358 193.154 149.979C192.627 148.587 192.364 146.979 192.364 145.154C192.364 143.735 192.594 142.404 193.053 141.16C193.513 139.903 194.168 138.815 195.02 137.896C195.885 136.964 196.932 136.227 198.162 135.687C199.405 135.146 200.804 134.876 202.358 134.876C203.669 134.876 204.879 135.085 205.987 135.504C207.095 135.923 208.048 136.538 208.846 137.349C209.643 138.146 210.265 139.133 210.711 140.309C211.17 141.471 211.4 142.802 211.4 144.303C211.4 145.059 211.319 145.573 211.157 145.843C210.995 146.1 210.684 146.228 210.224 146.228H197.351Z" fill="black"/>
</svg>
