<?xml version="1.0" encoding="UTF-8"?>
<svg id="Layer_1" xmlns="http://www.w3.org/2000/svg" xmlns:xlink="http://www.w3.org/1999/xlink" version="1.1" width="778" height="218" viewBox="0 0 778 218">
  <!-- Generator: Adobe Illustrator 29.2.1, SVG Export Plug-In . SVG Version: 2.1.0 Build 116)  -->
  <defs>
    <style>
      .st0 {
        fill: none;
      }

      .st1 {
        clip-path: url(#clippath-1);
      }

      .st2 {
        clip-path: url(#clippath-3);
      }

      .st3 {
        clip-path: url(#clippath-2);
      }

      .st4 {
        fill: #fff;
      }

      .st5 {
        fill: #c54600;
      }

      .st6 {
        fill: #333;
      }

      .st7 {
        clip-path: url(#clippath);
      }
    </style>
    <clipPath id="clippath">
      <rect class="st0" y="10" width="48" height="24"/>
    </clipPath>
    <clipPath id="clippath-1">
      <path class="st0" d="M12,10h0c6.6,0,12,5.4,12,12s-5.4,12-12,12S0,28.6,0,22s5.4-12,12-12Z"/>
    </clipPath>
    <clipPath id="clippath-2">
      <rect class="st0" y="133.8" width="49.1" height="24"/>
    </clipPath>
    <clipPath id="clippath-3">
      <path class="st0" d="M12,133.8h0c6.6,0,12,5.4,12,12s-5.4,12-12,12-12-5.4-12-12,5.4-12,12-12Z"/>
    </clipPath>
  </defs>
  <path class="st6" d="M84.8,29.9c.3,0,.5.1.7.3l1.9,2.1c-1.1,1.3-2.4,2.3-3.9,3-1.5.7-3.4,1-5.6,1s-3.7-.3-5.2-1c-1.5-.7-2.9-1.6-3.9-2.8-1.1-1.2-1.9-2.6-2.5-4.2-.6-1.6-.9-3.4-.9-5.4s.3-3.7.9-5.4c.6-1.6,1.5-3,2.6-4.2,1.1-1.2,2.5-2.1,4.1-2.7,1.6-.7,3.3-1,5.2-1s3.6.3,5,.9c1.5.6,2.7,1.4,3.8,2.5l-1.6,2.3c0,.1-.2.3-.4.4-.1.1-.3.2-.6.2s-.4,0-.6-.1c-.2-.1-.4-.2-.6-.4-.2-.2-.5-.3-.8-.5-.3-.2-.6-.3-1-.5-.4-.2-.9-.3-1.4-.4-.5-.1-1.1-.2-1.8-.2-1.2,0-2.2.2-3.2.6-1,.4-1.8,1-2.5,1.8-.7.8-1.2,1.7-1.6,2.9-.4,1.1-.6,2.4-.6,3.9s.2,2.8.6,3.9c.4,1.1,1,2.1,1.7,2.9.7.8,1.5,1.4,2.5,1.8,1,.4,2,.6,3.1.6s1.3,0,1.8-.1c.5,0,1-.2,1.5-.3.5-.2.9-.4,1.3-.6.4-.3.8-.6,1.2-.9.1-.1.2-.2.4-.3.1,0,.3-.1.4-.1ZM101.6,24.6c0-.6,0-1.1-.3-1.6-.2-.5-.4-1-.7-1.4-.3-.4-.7-.7-1.2-.9-.5-.2-1.1-.3-1.7-.3-1.3,0-2.3.4-3,1.1-.7.7-1.2,1.8-1.4,3.1h8.4ZM93.1,27.3c0,.9.2,1.8.5,2.5.3.7.6,1.3,1,1.7.4.4.9.8,1.5,1,.6.2,1.3.3,2,.3s1.3,0,1.9-.3c.5-.2,1-.4,1.4-.6.4-.2.7-.4,1-.6.3-.2.6-.3.9-.3s.6.1.8.4l1.3,1.6c-.5.6-1,1.1-1.7,1.5-.6.4-1.3.7-1.9.9-.7.2-1.3.4-2,.5-.7,0-1.4.1-2,.1-1.3,0-2.5-.2-3.6-.6-1.1-.4-2.1-1.1-2.9-1.9-.8-.8-1.5-1.9-1.9-3.1-.5-1.2-.7-2.7-.7-4.3s.2-2.4.6-3.5c.4-1.1,1-2.1,1.7-2.9.8-.8,1.7-1.5,2.8-2,1.1-.5,2.3-.7,3.7-.7s2.2.2,3.2.6c1,.4,1.8.9,2.5,1.6.7.7,1.3,1.6,1.7,2.6.4,1,.6,2.2.6,3.6s0,1.1-.2,1.4c-.1.2-.4.3-.8.3h-11.4ZM122.1,21.4c-.1.2-.3.3-.4.4-.1,0-.3.1-.5.1s-.5,0-.7-.2c-.2-.1-.5-.3-.8-.5-.3-.2-.7-.3-1.1-.5-.4-.1-.9-.2-1.5-.2s-1.5.1-2.1.4c-.6.3-1.1.7-1.5,1.2-.4.5-.7,1.2-.9,1.9-.2.7-.3,1.6-.3,2.5s.1,1.9.3,2.6c.2.8.5,1.4.9,1.9.4.5.9.9,1.4,1.2.6.3,1.2.4,1.9.4s1.3,0,1.7-.3c.4-.2.8-.4,1.1-.6.3-.2.6-.4.8-.6.2-.2.5-.3.8-.3s.6.1.8.4l1.3,1.6c-.5.6-1,1.1-1.6,1.5-.6.4-1.2.7-1.8.9-.6.2-1.2.4-1.9.5-.6,0-1.3.1-1.9.1-1.1,0-2.2-.2-3.2-.6-1-.4-1.9-1.1-2.6-1.9-.8-.8-1.4-1.8-1.8-3-.4-1.2-.6-2.5-.6-4.1s.2-2.6.6-3.8c.4-1.2,1-2.2,1.7-3,.8-.9,1.7-1.5,2.8-2,1.1-.5,2.4-.7,3.9-.7s2.6.2,3.6.7c1,.4,2,1.1,2.8,1.9l-1.2,1.6ZM130.9,17.5v18.5h-4.5v-18.5h4.5ZM131.5,12.1c0,.4,0,.7-.2,1.1-.2.3-.4.6-.6.9-.3.3-.6.5-.9.6-.3.1-.7.2-1.1.2s-.8,0-1.1-.2c-.3-.2-.6-.4-.9-.6s-.5-.5-.6-.9c-.1-.3-.2-.7-.2-1.1s0-.8.2-1.1c.2-.3.4-.6.6-.9.3-.3.5-.5.9-.6.3-.2.7-.2,1.1-.2s.8,0,1.1.2c.3.1.6.3.9.6.3.3.5.6.6.9.2.3.2.7.2,1.1ZM156.1,24.6c0-.6,0-1.1-.3-1.6-.2-.5-.4-1-.7-1.4-.3-.4-.7-.7-1.2-.9-.5-.2-1.1-.3-1.7-.3-1.3,0-2.3.4-3,1.1-.7.7-1.2,1.8-1.4,3.1h8.4ZM147.6,27.3c0,.9.2,1.8.5,2.5.3.7.6,1.3,1,1.7.4.4.9.8,1.5,1,.6.2,1.3.3,2,.3s1.3,0,1.9-.3c.5-.2,1-.4,1.4-.6.4-.2.7-.4,1-.6.3-.2.6-.3.9-.3s.6.1.8.4l1.3,1.6c-.5.6-1,1.1-1.7,1.5-.6.4-1.3.7-1.9.9-.7.2-1.3.4-2,.5-.7,0-1.4.1-2,.1-1.3,0-2.5-.2-3.6-.6-1.1-.4-2.1-1.1-2.9-1.9-.8-.8-1.5-1.9-1.9-3.1-.5-1.2-.7-2.7-.7-4.3s.2-2.4.6-3.5c.4-1.1,1-2.1,1.7-2.9.8-.8,1.7-1.5,2.8-2,1.1-.5,2.3-.7,3.7-.7s2.2.2,3.2.6c1,.4,1.8.9,2.5,1.6.7.7,1.3,1.6,1.7,2.6.4,1,.6,2.2.6,3.6s0,1.1-.2,1.4c-.1.2-.4.3-.8.3h-11.4ZM174.7,21.1c-.1.2-.2.3-.4.4-.1,0-.3.1-.5.1s-.5,0-.7-.2c-.2-.1-.5-.3-.8-.4-.3-.2-.7-.3-1.1-.4-.4-.1-.9-.2-1.5-.2-.9,0-1.6.2-2.1.6-.5.4-.7.9-.7,1.5s.1.7.4,1c.3.3.6.5,1,.7.4.2.9.4,1.5.6.5.2,1.1.3,1.6.5.6.2,1.1.4,1.7.7.5.2,1,.6,1.4.9.4.4.8.8,1,1.4.3.5.4,1.2.4,1.9s-.2,1.7-.5,2.5c-.3.7-.8,1.4-1.4,1.9-.6.5-1.4,1-2.3,1.3-.9.3-2,.5-3.2.5s-1.3,0-1.9-.2c-.6-.1-1.2-.3-1.7-.5-.6-.2-1.1-.4-1.6-.7-.5-.3-.9-.6-1.2-.9l1-1.7c.1-.2.3-.4.5-.5.2-.1.4-.2.7-.2s.5,0,.8.2c.3.2.5.3.9.5.3.2.7.3,1.1.5.4.2,1,.2,1.7.2s1,0,1.4-.2c.4-.1.7-.3.9-.5.3-.2.4-.4.5-.7.1-.3.2-.6.2-.8,0-.4-.1-.8-.4-1.1-.3-.3-.6-.5-1-.7-.4-.2-.9-.4-1.5-.5-.5-.2-1.1-.3-1.7-.5-.6-.2-1.1-.4-1.7-.7-.5-.3-1-.6-1.5-1-.4-.4-.8-.9-1-1.5-.3-.6-.4-1.3-.4-2.1s.1-1.5.4-2.2c.3-.7.7-1.3,1.3-1.8.6-.5,1.3-.9,2.2-1.2.9-.3,1.9-.5,3-.5s2.4.2,3.5.6c1,.4,1.9,1,2.6,1.7l-1,1.6ZM185.4,36.3c-1.6,0-2.8-.5-3.7-1.4-.9-.9-1.3-2.2-1.3-3.8v-10.3h-1.9c-.2,0-.4,0-.6-.2-.2-.2-.3-.4-.3-.7v-1.8l3-.5.9-5c0-.2.2-.4.3-.6.2-.1.4-.2.6-.2h2.3v5.8h4.9v3.2h-4.9v10c0,.6.1,1,.4,1.4.3.3.7.5,1.2.5s.5,0,.7,0c.2,0,.4-.1.5-.2.1,0,.3-.1.4-.2.1,0,.2-.1.3-.1s.2,0,.3.1c0,0,.2.2.3.3l1.3,2.2c-.6.5-1.4.9-2.2,1.2-.8.3-1.7.4-2.6.4ZM217.4,17.5v18.5h-2.7c-.6,0-1-.3-1.1-.8l-.3-1.5c-.8.8-1.6,1.4-2.5,1.9-.9.5-2,.7-3.2.7s-1.9-.2-2.7-.5c-.8-.3-1.4-.8-1.9-1.5-.5-.6-.9-1.4-1.2-2.2-.3-.9-.4-1.8-.4-2.8v-11.7h4.5v11.7c0,1.1.3,2,.8,2.6.5.6,1.3.9,2.4.9s1.5-.2,2.2-.5c.7-.3,1.3-.8,1.9-1.4v-13.4h4.5ZM226,19.8c.4-.4.8-.7,1.2-1,.4-.3.9-.6,1.3-.8.5-.2,1-.4,1.5-.5.5-.1,1.1-.2,1.7-.2,1,0,1.9.2,2.7.5.8.3,1.4.8,1.9,1.4.5.6.9,1.4,1.2,2.2.3.9.4,1.8.4,2.8v11.8h-4.5v-11.8c0-1.1-.3-2-.8-2.6-.5-.6-1.3-.9-2.4-.9s-1.5.2-2.2.5c-.7.3-1.3.8-1.9,1.4v13.4h-4.5v-18.5h2.7c.6,0,1,.3,1.1.8l.3,1.5ZM269.6,36h-4.5v-15.2h-8.6v10c0,.6.1,1,.4,1.4.3.3.7.5,1.2.5s.5,0,.7,0c.2,0,.4-.1.5-.2.1,0,.3-.1.4-.2.1,0,.2-.1.3-.1s.2,0,.3.1c0,0,.2.2.3.3l1.3,2.2c-.6.5-1.4.9-2.2,1.2-.8.3-1.7.4-2.6.4-1.6,0-2.8-.5-3.7-1.4-.9-.9-1.3-2.2-1.3-3.8v-10.3h-1.9c-.2,0-.4,0-.6-.2s-.3-.4-.3-.7v-1.8l3-.5.9-5c0-.2.2-.4.3-.6.2-.1.4-.2.6-.2h2.3v5.8h13v18.3ZM270.3,12.1c0,.4,0,.8-.2,1.1-.2.3-.4.6-.6.9-.3.3-.6.5-.9.6-.3.1-.7.2-1.1.2s-.7,0-1.1-.2c-.3-.2-.6-.4-.9-.6-.3-.3-.5-.5-.6-.9-.1-.3-.2-.7-.2-1.1s0-.8.2-1.1c.2-.3.4-.6.6-.9.3-.3.5-.5.9-.6.3-.2.7-.2,1.1-.2s.8,0,1.1.2c.4.1.7.3.9.6.3.3.5.6.6.9.2.3.2.7.2,1.1ZM280.3,36.3c-1.6,0-2.8-.5-3.7-1.4-.9-.9-1.3-2.2-1.3-3.8v-10.3h-1.9c-.2,0-.4,0-.6-.2-.2-.2-.3-.4-.3-.7v-1.8l3-.5.9-5c0-.2.2-.4.3-.6.2-.1.4-.2.6-.2h2.3v5.8h4.9v3.2h-4.9v10c0,.6.1,1,.4,1.4.3.3.7.5,1.2.5s.5,0,.7,0c.2,0,.4-.1.5-.2.1,0,.3-.1.4-.2.1,0,.2-.1.3-.1s.2,0,.3.1c0,0,.2.2.3.3l1.3,2.2c-.6.5-1.4.9-2.2,1.2-.8.3-1.7.4-2.6.4ZM291.7,20.7c.6-1.1,1.3-2,2.1-2.6.8-.6,1.7-1,2.8-1s1.5.2,2.1.6l-.3,3.3c0,.2-.1.4-.3.5-.1,0-.3.1-.5.1s-.5,0-.8,0c-.3,0-.7,0-1,0-.5,0-.9,0-1.3.2-.4.1-.7.4-1,.6-.3.3-.6.6-.8,1-.2.4-.4.8-.6,1.3v11.4h-4.5v-18.5h2.6c.5,0,.8,0,1,.3.2.2.3.4.4.9l.3,2.1ZM312.3,24.6c0-.6,0-1.1-.3-1.6-.2-.5-.4-1-.7-1.4-.3-.4-.7-.7-1.2-.9-.5-.2-1.1-.3-1.7-.3-1.3,0-2.3.4-3,1.1-.7.7-1.2,1.8-1.4,3.1h8.4ZM303.9,27.3c0,.9.2,1.8.5,2.5.3.7.6,1.3,1,1.7.4.4.9.8,1.5,1,.6.2,1.3.3,2,.3s1.3,0,1.9-.3c.5-.2,1-.4,1.4-.6.4-.2.7-.4,1-.6.3-.2.6-.3.9-.3s.6.1.8.4l1.3,1.6c-.5.6-1,1.1-1.7,1.5-.6.4-1.3.7-1.9.9-.7.2-1.3.4-2,.5-.7,0-1.4.1-2,.1-1.3,0-2.5-.2-3.6-.6-1.1-.4-2.1-1.1-2.9-1.9-.8-.8-1.5-1.9-1.9-3.1-.5-1.2-.7-2.7-.7-4.3s.2-2.4.6-3.5c.4-1.1,1-2.1,1.7-2.9.8-.8,1.7-1.5,2.8-2,1.1-.5,2.3-.7,3.7-.7s2.2.2,3.2.6c1,.4,1.8.9,2.5,1.6.7.7,1.3,1.6,1.7,2.6.4,1,.6,2.2.6,3.6s0,1.1-.2,1.4c-.1.2-.4.3-.8.3h-11.4Z"/>
  <path class="st6" d="M76,76.7l-5.1,14.3h-1.8l-5.1-14.3h1.9l3.2,9.2c.2.6.4,1.1.5,1.7.1.5.3,1,.4,1.5,0-.5.2-1,.4-1.5.1-.5.3-1.1.5-1.7l3.2-9.1h1.9ZM86.6,85.6c0,1.8-.5,3.1-1.4,4.1-.9,1-2.1,1.5-3.6,1.5s-1.8-.2-2.5-.6c-.7-.4-1.3-1.1-1.7-1.9-.4-.8-.6-1.9-.6-3,0-1.8.4-3.1,1.3-4.1.9-1,2.1-1.4,3.6-1.4s1.8.2,2.6.7c.7.4,1.3,1.1,1.7,1.9.4.8.6,1.8.6,3ZM78.5,85.6c0,1.3.2,2.3.7,3,.5.7,1.3,1.1,2.4,1.1s1.9-.4,2.4-1.1c.5-.7.8-1.8.8-3s-.3-2.3-.8-3c-.5-.7-1.3-1.1-2.4-1.1s-1.9.4-2.4,1.1c-.5.7-.7,1.7-.7,3ZM90.3,76.3c.3,0,.5,0,.7.3.2.2.3.5.3.8s-.1.7-.3.8c-.2.2-.4.3-.7.3s-.5,0-.7-.3-.3-.5-.3-.8.1-.7.3-.8c.2-.2.4-.3.7-.3ZM91.2,80.3v10.7h-1.8v-10.7h1.8ZM98.9,91.2c-.9,0-1.8-.2-2.5-.6-.7-.4-1.3-1-1.7-1.8-.4-.8-.6-1.9-.6-3.1s.2-2.4.7-3.2c.4-.8,1-1.4,1.8-1.8.8-.4,1.6-.6,2.6-.6s1.1,0,1.6.2c.5.1.9.2,1.2.4l-.5,1.5c-.3-.1-.7-.2-1.1-.3-.4-.1-.8-.2-1.2-.2-2.1,0-3.2,1.4-3.2,4.1s.3,2.3.8,3c.5.7,1.3,1,2.3,1s1.1,0,1.5-.2c.5-.1.9-.3,1.2-.4v1.6c-.4.2-.8.3-1.2.4-.4.1-.9.2-1.6.2ZM105.1,76.3c.3,0,.5,0,.7.3.2.2.3.5.3.8s-.1.7-.3.8c-.2.2-.4.3-.7.3s-.5,0-.7-.3c-.2-.2-.3-.5-.3-.8s0-.7.3-.8c.2-.2.4-.3.7-.3ZM105.9,80.3v10.7h-1.8v-10.7h1.8ZM118.3,91.2c-1.3,0-2.4-.5-3.2-1.4-.8-.9-1.2-2.3-1.2-4.2s.4-3.2,1.2-4.2c.8-.9,1.9-1.4,3.2-1.4s1.5.2,2,.5c.5.3,1,.7,1.3,1.1h.1c0-.2,0-.4,0-.8,0-.3,0-.6,0-.8v-4.3h1.8v15.2h-1.4l-.3-1.4h0c-.3.5-.7.8-1.3,1.2s-1.2.5-2.1.5ZM118.6,89.7c1.1,0,1.9-.3,2.4-.9.5-.6.7-1.6.7-2.8v-.3c0-1.3-.2-2.4-.7-3.1-.4-.7-1.3-1.1-2.4-1.1s-1.7.4-2.1,1.1c-.5.7-.7,1.8-.7,3s.2,2.3.7,3c.5.7,1.2,1.1,2.2,1.1ZM135.8,80.3v10.7h-1.4l-.3-1.4h0c-.3.6-.8,1-1.4,1.2-.6.3-1.3.4-2,.4-1.3,0-2.3-.3-2.9-.9-.7-.6-1-1.6-1-3v-7h1.8v6.9c0,1.7.8,2.6,2.4,2.6s2-.3,2.5-1c.5-.7.7-1.6.7-2.9v-5.6h1.8ZM148,89.8c.3,0,.5,0,.8,0,.3,0,.5-.1.7-.2v1.3c-.2,0-.5.2-.8.2-.3,0-.7,0-1,0-.6,0-1.1,0-1.6-.3-.5-.2-.8-.5-1.1-1-.3-.5-.4-1.2-.4-2v-6.2h-1.5v-.8l1.5-.7.7-2.3h1v2.5h3.1v1.4h-3.1v6.2c0,.7.2,1.1.5,1.5.3.3.7.5,1.2.5ZM155.8,80.1c.9,0,1.7.2,2.4.6.7.4,1.2,1,1.5,1.7.4.7.5,1.6.5,2.5v1.1h-7.3c0,1.2.3,2.1.9,2.8.6.6,1.4.9,2.5.9s1.3,0,1.8-.2c.5-.1,1.1-.3,1.6-.6v1.5c-.5.2-1.1.4-1.6.5-.5.1-1.2.2-1.9.2s-1.9-.2-2.7-.6c-.8-.4-1.4-1-1.8-1.8-.4-.8-.6-1.8-.6-3s.2-2.2.6-3c.4-.8,1-1.5,1.7-1.9.7-.5,1.6-.7,2.5-.7ZM155.7,81.5c-.8,0-1.5.3-2,.8-.5.5-.8,1.3-.9,2.2h5.5c0-.9-.2-1.6-.6-2.2-.4-.6-1.1-.9-2-.9ZM165.1,85.5l-3.7-5.2h2l2.8,4,2.7-4h2l-3.7,5.2,3.9,5.5h-2l-2.9-4.3-3,4.3h-2l3.9-5.5ZM176.7,89.8c.3,0,.5,0,.8,0,.3,0,.5-.1.7-.2v1.3c-.2,0-.5.2-.8.2-.3,0-.7,0-1,0-.6,0-1.1,0-1.6-.3-.5-.2-.8-.5-1.1-1-.3-.5-.4-1.2-.4-2v-6.2h-1.5v-.8l1.5-.7.7-2.3h1v2.5h3.1v1.4h-3.1v6.2c0,.7.2,1.1.5,1.5.3.3.7.5,1.2.5ZM184.5,80.1c.9,0,1.7.2,2.4.6.7.4,1.2,1,1.5,1.7.4.7.5,1.6.5,2.5v1.1h-7.3c0,1.2.3,2.1.9,2.8.6.6,1.4.9,2.5.9s1.3,0,1.8-.2c.5-.1,1.1-.3,1.6-.6v1.5c-.5.2-1.1.4-1.6.5-.5.1-1.2.2-1.9.2s-1.9-.2-2.7-.6c-.8-.4-1.4-1-1.8-1.8-.4-.8-.6-1.8-.6-3s.2-2.2.6-3c.4-.8,1-1.5,1.7-1.9.7-.5,1.6-.7,2.5-.7ZM184.4,81.5c-.8,0-1.5.3-2,.8-.5.5-.8,1.3-.9,2.2h5.5c0-.9-.2-1.6-.6-2.2-.4-.6-1.1-.9-2-.9ZM198.6,91h-1.8v-15.2h1.8v15.2ZM202.9,76.3c.3,0,.5,0,.7.3.2.2.3.5.3.8s-.1.7-.3.8c-.2.2-.4.3-.7.3s-.5,0-.7-.3c-.2-.2-.3-.5-.3-.8s0-.7.3-.8c.2-.2.4-.3.7-.3ZM203.7,80.3v10.7h-1.8v-10.7h1.8ZM211.3,80.1c.9,0,1.7.2,2.4.6.7.4,1.2,1,1.5,1.7.4.7.5,1.6.5,2.5v1.1h-7.3c0,1.2.3,2.1.9,2.8.6.6,1.4.9,2.5.9s1.3,0,1.8-.2c.5-.1,1.1-.3,1.6-.6v1.5c-.5.2-1.1.4-1.6.5-.5.1-1.2.2-1.9.2s-1.9-.2-2.7-.6c-.8-.4-1.4-1-1.8-1.8-.4-.8-.6-1.8-.6-3s.2-2.2.6-3c.4-.8,1-1.5,1.7-1.9.7-.5,1.6-.7,2.5-.7ZM211.2,81.5c-.8,0-1.5.3-2,.8-.5.5-.8,1.3-.9,2.2h5.5c0-.9-.2-1.6-.6-2.2-.4-.6-1.1-.9-2-.9ZM214.1,75.9c-.2.2-.4.6-.7.9-.3.4-.7.8-1.1,1.1-.4.4-.7.7-1,.9h-1.2v-.2c.2-.3.4-.6.6-.9.2-.3.5-.7.7-1.1.2-.4.4-.7.6-1h2.1v.2ZM227.7,80.1c1.3,0,2.3.3,2.9.9.6.6.9,1.5.9,2.7v7.3h-1.3l-.3-1.5h0c-.5.6-1,1-1.5,1.3-.5.3-1.2.4-2.1.4s-1.8-.3-2.4-.8c-.6-.5-1-1.3-1-2.4s.4-1.9,1.3-2.5c.8-.6,2.1-.9,3.9-1h1.8v-.7c0-.9-.2-1.5-.6-1.9-.4-.3-.9-.5-1.6-.5s-1.1,0-1.6.3c-.5.2-1,.3-1.4.6l-.5-1.3c.5-.3,1-.5,1.7-.6.6-.2,1.3-.3,2-.3ZM228.2,85.8c-1.3,0-2.3.3-2.8.6-.5.4-.8.9-.8,1.6s.2,1,.5,1.3c.4.3.8.4,1.4.4.9,0,1.7-.2,2.3-.7.6-.5.9-1.3.9-2.3v-1h-1.6ZM243.8,80.3v10.7h-1.4l-.3-1.4h0c-.3.6-.8,1-1.4,1.2-.6.3-1.3.4-2,.4-1.3,0-2.3-.3-2.9-.9-.7-.6-1-1.6-1-3v-7h1.8v6.9c0,1.7.8,2.6,2.4,2.6s2-.3,2.5-1c.5-.7.7-1.6.7-2.9v-5.6h1.8ZM256,89.8c.3,0,.5,0,.8,0,.3,0,.5-.1.7-.2v1.3c-.2,0-.5.2-.8.2-.3,0-.7,0-1,0-.6,0-1.1,0-1.6-.3-.5-.2-.8-.5-1.1-1-.3-.5-.4-1.2-.4-2v-6.2h-1.5v-.8l1.5-.7.7-2.3h1v2.5h3.1v1.4h-3.1v6.2c0,.7.2,1.1.5,1.5.3.3.7.5,1.2.5ZM260.5,76.3c.3,0,.5,0,.7.3.2.2.3.5.3.8s-.1.7-.3.8c-.2.2-.4.3-.7.3s-.5,0-.7-.3c-.2-.2-.3-.5-.3-.8s0-.7.3-.8c.2-.2.4-.3.7-.3ZM261.4,80.3v10.7h-1.8v-10.7h1.8ZM268.3,89.8c.3,0,.5,0,.8,0,.3,0,.5-.1.7-.2v1.3c-.2,0-.5.2-.8.2-.3,0-.7,0-1,0-.6,0-1.1,0-1.6-.3-.5-.2-.8-.5-1.1-1-.3-.5-.4-1.2-.4-2v-6.2h-1.5v-.8l1.5-.7.7-2.3h1v2.5h3.1v1.4h-3.1v6.2c0,.7.2,1.1.5,1.5.3.3.7.5,1.2.5ZM277,80.1c.2,0,.4,0,.6,0,.2,0,.4,0,.6,0l-.2,1.6c-.2,0-.4,0-.6,0-.2,0-.4,0-.6,0-.5,0-1.1.2-1.5.5-.5.3-.9.7-1.2,1.3-.3.5-.4,1.2-.4,1.9v5.7h-1.8v-10.7h1.4l.2,2h0c.3-.6.8-1.1,1.3-1.5.5-.4,1.2-.6,1.9-.6ZM284,80.1c.9,0,1.7.2,2.4.6.7.4,1.2,1,1.5,1.7.4.7.5,1.6.5,2.5v1.1h-7.3c0,1.2.3,2.1.9,2.8.6.6,1.4.9,2.5.9s1.3,0,1.8-.2c.5-.1,1.1-.3,1.6-.6v1.5c-.5.2-1.1.4-1.6.5-.5.1-1.2.2-1.9.2s-1.9-.2-2.7-.6c-.8-.4-1.4-1-1.8-1.8-.4-.8-.6-1.8-.6-3s.2-2.2.6-3c.4-.8,1-1.5,1.7-1.9.7-.5,1.6-.7,2.5-.7ZM284,81.5c-.8,0-1.5.3-2,.8-.5.5-.8,1.3-.9,2.2h5.5c0-.9-.2-1.6-.6-2.2-.4-.6-1.1-.9-2-.9ZM300.5,80.1c.9,0,1.7.2,2.4.6.7.4,1.2,1,1.5,1.7.4.7.5,1.6.5,2.5v1.1h-7.3c0,1.2.3,2.1.9,2.8.6.6,1.4.9,2.5.9s1.3,0,1.8-.2c.5-.1,1.1-.3,1.6-.6v1.5c-.5.2-1.1.4-1.6.5-.5.1-1.2.2-1.9.2s-1.9-.2-2.7-.6c-.8-.4-1.4-1-1.8-1.8-.4-.8-.6-1.8-.6-3s.2-2.2.6-3c.4-.8,1-1.5,1.7-1.9.7-.5,1.6-.7,2.5-.7ZM300.5,81.5c-.8,0-1.5.3-2,.8-.5.5-.8,1.3-.9,2.2h5.5c0-.9-.2-1.6-.6-2.2-.4-.6-1.1-.9-2-.9ZM311.2,89.8c.3,0,.5,0,.8,0,.3,0,.5-.1.7-.2v1.3c-.2,0-.5.2-.8.2-.3,0-.7,0-1,0-.6,0-1.1,0-1.6-.3-.5-.2-.8-.5-1.1-1-.3-.5-.4-1.2-.4-2v-6.2h-1.5v-.8l1.5-.7.7-2.3h1v2.5h3.1v1.4h-3.1v6.2c0,.7.2,1.1.5,1.5.3.3.7.5,1.2.5ZM323.9,91.2c-1.3,0-2.4-.5-3.2-1.4-.8-.9-1.2-2.3-1.2-4.2s.4-3.2,1.2-4.2c.8-.9,1.9-1.4,3.2-1.4s1.5.2,2,.5c.5.3,1,.7,1.3,1.1h.1c0-.2,0-.4,0-.8,0-.3,0-.6,0-.8v-4.3h1.8v15.2h-1.4l-.3-1.4h0c-.3.5-.7.8-1.3,1.2-.5.3-1.2.5-2.1.5ZM324.1,89.7c1.1,0,1.9-.3,2.4-.9.5-.6.7-1.6.7-2.8v-.3c0-1.3-.2-2.4-.7-3.1-.4-.7-1.3-1.1-2.4-1.1s-1.7.4-2.1,1.1c-.5.7-.7,1.8-.7,3s.2,2.3.7,3c.5.7,1.2,1.1,2.2,1.1ZM336.5,80.1c.9,0,1.7.2,2.4.6.7.4,1.2,1,1.5,1.7.4.7.5,1.6.5,2.5v1.1h-7.3c0,1.2.3,2.1.9,2.8.6.6,1.4.9,2.5.9s1.3,0,1.8-.2c.5-.1,1.1-.3,1.6-.6v1.5c-.5.2-1.1.4-1.6.5-.5.1-1.2.2-1.9.2s-1.9-.2-2.7-.6c-.8-.4-1.4-1-1.8-1.8-.4-.8-.6-1.8-.6-3s.2-2.2.6-3c.4-.8,1-1.5,1.7-1.9.7-.5,1.6-.7,2.5-.7ZM336.5,81.5c-.8,0-1.5.3-2,.8-.5.5-.8,1.3-.9,2.2h5.5c0-.9-.2-1.6-.6-2.2-.4-.6-1.1-.9-2-.9ZM339.3,75.9c-.2.2-.4.6-.7.9-.3.4-.7.8-1.1,1.1-.4.4-.7.7-1,.9h-1.2v-.2c.2-.3.4-.6.6-.9.2-.3.5-.7.7-1.1.2-.4.4-.7.6-1h2.1v.2ZM347.9,91.2c-.9,0-1.8-.2-2.5-.6-.7-.4-1.3-1-1.7-1.8-.4-.8-.6-1.9-.6-3.1s.2-2.4.7-3.2c.4-.8,1-1.4,1.8-1.8.8-.4,1.6-.6,2.6-.6s1.1,0,1.6.2c.5.1.9.2,1.2.4l-.5,1.5c-.3-.1-.7-.2-1.1-.3-.4-.1-.8-.2-1.2-.2-2.1,0-3.2,1.4-3.2,4.1s.3,2.3.8,3c.5.7,1.3,1,2.3,1s1.1,0,1.5-.2c.5-.1.9-.3,1.2-.4v1.6c-.4.2-.8.3-1.2.4-.4.1-.9.2-1.6.2ZM358.3,80.1c.2,0,.4,0,.6,0,.2,0,.4,0,.6,0l-.2,1.6c-.2,0-.4,0-.6,0-.2,0-.4,0-.6,0-.5,0-1.1.2-1.5.5-.5.3-.9.7-1.2,1.3-.3.5-.4,1.2-.4,1.9v5.7h-1.8v-10.7h1.4l.2,2h0c.3-.6.8-1.1,1.3-1.5.5-.4,1.2-.6,1.9-.6ZM362.4,76.3c.3,0,.5,0,.7.3.2.2.3.5.3.8s-.1.7-.3.8c-.2.2-.4.3-.7.3s-.5,0-.7-.3c-.2-.2-.3-.5-.3-.8s.1-.7.3-.8c.2-.2.4-.3.7-.3ZM363.3,80.3v10.7h-1.8v-10.7h1.8ZM369,91l-4.1-10.7h1.9l2.3,6.3c.1.3.2.6.3,1s.2.7.3,1c0,.3.2.6.2.8h0c0-.2.1-.5.2-.8.1-.3.2-.7.3-1,.1-.4.2-.7.3-1l2.3-6.3h1.9l-4.1,10.7h-2ZM380.9,80.1c1.3,0,2.3.3,2.9.9.6.6.9,1.5.9,2.7v7.3h-1.3l-.3-1.5h0c-.5.6-1,1-1.5,1.3-.5.3-1.2.4-2.1.4s-1.8-.3-2.4-.8c-.6-.5-1-1.3-1-2.4s.4-1.9,1.3-2.5c.8-.6,2.1-.9,3.9-1h1.8v-.7c0-.9-.2-1.5-.6-1.9-.4-.3-.9-.5-1.6-.5s-1.1,0-1.6.3c-.5.2-1,.3-1.4.6l-.5-1.3c.5-.3,1-.5,1.7-.6.6-.2,1.3-.3,2-.3ZM381.4,85.8c-1.3,0-2.3.3-2.8.6-.5.4-.8.9-.8,1.6s.2,1,.5,1.3c.4.3.8.4,1.4.4.9,0,1.7-.2,2.3-.7.6-.5.9-1.3.9-2.3v-1h-1.6ZM393.2,80.1c1.3,0,2.2.3,2.9.9.7.6,1,1.6,1,3v7h-1.7v-6.9c0-1.7-.8-2.6-2.4-2.6s-2,.3-2.5,1c-.5.7-.7,1.6-.7,2.9v5.6h-1.8v-10.7h1.4l.3,1.5h.1c.3-.6.8-1,1.4-1.2.6-.3,1.3-.4,1.9-.4ZM404,89.8c.3,0,.5,0,.8,0,.3,0,.5-.1.7-.2v1.3c-.2,0-.5.2-.8.2-.3,0-.7,0-1,0-.6,0-1.1,0-1.6-.3-.5-.2-.8-.5-1.1-1-.3-.5-.4-1.2-.4-2v-6.2h-1.5v-.8l1.5-.7.7-2.3h1v2.5h3.1v1.4h-3.1v6.2c0,.7.2,1.1.5,1.5.3.3.7.5,1.2.5ZM417.9,80.1c1.3,0,2.4.5,3.2,1.4.8.9,1.2,2.3,1.2,4.2s-.4,3.2-1.2,4.2c-.8.9-1.9,1.4-3.2,1.4s-1.5-.2-2.1-.5c-.5-.3-1-.7-1.3-1.1h-.1c0,.2,0,.5,0,.9,0,.3,0,.6,0,.9v4.4h-1.8v-15.5h1.4l.2,1.5h0c.3-.5.7-.9,1.3-1.2s1.2-.5,2.1-.5ZM417.6,81.6c-1.1,0-1.9.3-2.3.9-.4.6-.7,1.5-.7,2.8v.3c0,1.3.2,2.3.6,3.1.4.7,1.2,1.1,2.4,1.1s1.2-.2,1.6-.5c.4-.4.7-.8.9-1.5.2-.6.3-1.3.3-2.1,0-1.2-.2-2.2-.7-2.9-.5-.7-1.2-1.1-2.2-1.1ZM426.9,91h-1.8v-15.2h1.8v15.2ZM439.2,80.3v10.7h-1.4l-.3-1.4h0c-.3.6-.8,1-1.4,1.2-.6.3-1.3.4-2,.4-1.3,0-2.3-.3-2.9-.9-.7-.6-1-1.6-1-3v-7h1.8v6.9c0,1.7.8,2.6,2.4,2.6s2-.3,2.5-1c.5-.7.7-1.6.7-2.9v-5.6h1.8ZM449.6,88c0,1-.4,1.8-1.2,2.4-.8.5-1.8.8-3.1.8s-1.4,0-1.9-.2c-.5-.1-1-.3-1.4-.5v-1.6c.4.2.9.4,1.5.6.6.2,1.2.3,1.9.3.9,0,1.5-.1,1.9-.4.4-.3.6-.7.6-1.2s0-.5-.2-.7c-.1-.2-.4-.4-.8-.6-.4-.2-.9-.5-1.6-.7-.7-.3-1.3-.5-1.8-.8s-.9-.6-1.1-1c-.3-.4-.4-.9-.4-1.4,0-.9.4-1.6,1.1-2.1.7-.5,1.7-.7,2.9-.7s1.3,0,1.8.2c.6.1,1.1.3,1.6.5l-.6,1.4c-.5-.2-.9-.3-1.4-.5-.5-.1-1-.2-1.5-.2s-1.3.1-1.7.4c-.4.2-.6.5-.6.9s0,.5.3.8c.2.2.5.4.9.6.4.2,1,.4,1.6.7.7.3,1.3.5,1.7.8.5.3.8.6,1.1,1,.3.4.4.8.4,1.4ZM461.6,80.1c.9,0,1.7.2,2.4.6.7.4,1.2,1,1.5,1.7.4.7.5,1.6.5,2.5v1.1h-7.3c0,1.2.3,2.1.9,2.8.6.6,1.4.9,2.5.9s1.3,0,1.8-.2c.5-.1,1.1-.3,1.6-.6v1.5c-.5.2-1.1.4-1.6.5-.5.1-1.2.2-1.9.2s-1.9-.2-2.7-.6c-.8-.4-1.4-1-1.8-1.8-.4-.8-.6-1.8-.6-3s.2-2.2.6-3c.4-.8,1-1.5,1.7-1.9.7-.5,1.6-.7,2.5-.7ZM461.5,81.5c-.8,0-1.5.3-2,.8-.5.5-.8,1.3-.9,2.2h5.5c0-.9-.2-1.6-.6-2.2-.4-.6-1.1-.9-2-.9ZM473.9,80.1c1.3,0,2.2.3,2.9.9.7.6,1,1.6,1,3v7h-1.7v-6.9c0-1.7-.8-2.6-2.4-2.6s-2,.3-2.5,1c-.5.7-.7,1.6-.7,2.9v5.6h-1.8v-10.7h1.4l.3,1.5h.1c.3-.6.8-1,1.4-1.2.6-.3,1.3-.4,1.9-.4ZM490.1,91.2c-1.3,0-2.4-.5-3.2-1.4-.8-.9-1.2-2.3-1.2-4.2s.4-3.2,1.2-4.2c.8-.9,1.9-1.4,3.2-1.4s1.5.2,2,.5c.5.3,1,.7,1.3,1.1h.1c0-.2,0-.4,0-.8,0-.3,0-.6,0-.8v-4.3h1.8v15.2h-1.4l-.3-1.4h0c-.3.5-.7.8-1.3,1.2-.5.3-1.2.5-2.1.5ZM490.3,89.7c1.1,0,1.9-.3,2.4-.9.5-.6.7-1.6.7-2.8v-.3c0-1.3-.2-2.4-.7-3.1-.4-.7-1.3-1.1-2.4-1.1s-1.7.4-2.1,1.1c-.5.7-.7,1.8-.7,3s.2,2.3.7,3c.5.7,1.2,1.1,2.2,1.1ZM502.7,80.1c.9,0,1.7.2,2.4.6.7.4,1.2,1,1.5,1.7.4.7.5,1.6.5,2.5v1.1h-7.3c0,1.2.3,2.1.9,2.8.6.6,1.4.9,2.5.9s1.3,0,1.8-.2c.5-.1,1.1-.3,1.6-.6v1.5c-.5.2-1.1.4-1.6.5-.5.1-1.2.2-1.9.2s-1.9-.2-2.7-.6c-.8-.4-1.4-1-1.8-1.8-.4-.8-.6-1.8-.6-3s.2-2.2.6-3c.4-.8,1-1.5,1.7-1.9.7-.5,1.6-.7,2.5-.7ZM502.7,81.5c-.8,0-1.5.3-2,.8-.5.5-.8,1.3-.9,2.2h5.5c0-.9-.2-1.6-.6-2.2-.4-.6-1.1-.9-2-.9ZM505.5,75.9c-.2.2-.4.6-.7.9-.3.4-.7.8-1.1,1.1-.4.4-.7.7-1,.9h-1.2v-.2c.2-.3.4-.6.6-.9.2-.3.5-.7.7-1.1.2-.4.4-.7.6-1h2.1v.2ZM513.4,89.8c.3,0,.5,0,.8,0,.3,0,.5-.1.7-.2v1.3c-.2,0-.5.2-.8.2-.3,0-.7,0-1,0-.6,0-1.1,0-1.6-.3-.5-.2-.8-.5-1.1-1-.3-.5-.4-1.2-.4-2v-6.2h-1.5v-.8l1.5-.7.7-2.3h1v2.5h3.1v1.4h-3.1v6.2c0,.7.2,1.1.5,1.5.3.3.7.5,1.2.5ZM521.1,80.1c1.3,0,2.3.3,2.9.9.6.6.9,1.5.9,2.7v7.3h-1.3l-.3-1.5h0c-.5.6-1,1-1.5,1.3-.5.3-1.2.4-2.1.4s-1.8-.3-2.4-.8c-.6-.5-1-1.3-1-2.4s.4-1.9,1.3-2.5c.8-.6,2.1-.9,3.9-1h1.8v-.7c0-.9-.2-1.5-.6-1.9-.4-.3-.9-.5-1.6-.5s-1.1,0-1.6.3c-.5.2-1,.3-1.4.6l-.5-1.3c.5-.3,1-.5,1.7-.6.6-.2,1.3-.3,2-.3ZM521.7,85.8c-1.3,0-2.3.3-2.8.6-.5.4-.8.9-.8,1.6s.2,1,.5,1.3c.4.3.8.4,1.4.4.9,0,1.7-.2,2.3-.7.6-.5.9-1.3.9-2.3v-1h-1.6ZM529.2,76.3c.3,0,.5,0,.7.3.2.2.3.5.3.8s-.1.7-.3.8c-.2.2-.4.3-.7.3s-.5,0-.7-.3-.3-.5-.3-.8,0-.7.3-.8c.2-.2.4-.3.7-.3ZM530.1,80.3v10.7h-1.8v-10.7h1.8ZM535.2,91h-1.8v-15.2h1.8v15.2ZM545.6,91h-1.8v-15.2h1.8v15.2ZM553.1,80.1c.9,0,1.7.2,2.4.6.7.4,1.2,1,1.5,1.7.4.7.5,1.6.5,2.5v1.1h-7.3c0,1.2.3,2.1.9,2.8.6.6,1.4.9,2.5.9s1.3,0,1.8-.2c.5-.1,1.1-.3,1.6-.6v1.5c-.5.2-1.1.4-1.6.5-.5.1-1.2.2-1.9.2s-1.9-.2-2.7-.6c-.8-.4-1.4-1-1.8-1.8-.4-.8-.6-1.8-.6-3s.2-2.2.6-3c.4-.8,1-1.5,1.7-1.9.7-.5,1.6-.7,2.5-.7ZM553.1,81.5c-.8,0-1.5.3-2,.8-.5.5-.8,1.3-.9,2.2h5.5c0-.9-.2-1.6-.6-2.2-.4-.6-1.1-.9-2-.9ZM572.4,88c0,1-.4,1.8-1.2,2.4-.8.5-1.8.8-3.1.8s-1.4,0-1.9-.2c-.5-.1-1-.3-1.4-.5v-1.6c.4.2.9.4,1.5.6.6.2,1.2.3,1.9.3.9,0,1.5-.1,1.9-.4.4-.3.6-.7.6-1.2s0-.5-.2-.7c-.1-.2-.4-.4-.8-.6-.4-.2-.9-.5-1.6-.7-.7-.3-1.3-.5-1.8-.8-.5-.3-.9-.6-1.1-1-.3-.4-.4-.9-.4-1.4,0-.9.4-1.6,1.1-2.1.7-.5,1.7-.7,2.9-.7s1.3,0,1.8.2c.6.1,1.1.3,1.6.5l-.6,1.4c-.5-.2-.9-.3-1.4-.5-.5-.1-1-.2-1.5-.2s-1.3.1-1.7.4c-.4.2-.6.5-.6.9s0,.5.3.8c.2.2.5.4.9.6.4.2,1,.4,1.6.7.7.3,1.3.5,1.7.8.5.3.8.6,1.1,1,.3.4.4.8.4,1.4ZM584,80.3v10.7h-1.4l-.3-1.4h0c-.3.6-.8,1-1.4,1.2-.6.3-1.3.4-2,.4-1.3,0-2.3-.3-2.9-.9-.7-.6-1-1.6-1-3v-7h1.8v6.9c0,1.7.8,2.6,2.4,2.6s2-.3,2.5-1c.5-.7.7-1.6.7-2.9v-5.6h1.8ZM587.2,77.4c0-.4.1-.7.3-.8.2-.2.4-.3.7-.3s.5,0,.7.3c.2.2.3.5.3.8s-.1.7-.3.8c-.2.2-.4.3-.7.3s-.5,0-.7-.3c-.2-.2-.3-.5-.3-.8ZM586.1,95.8c-.3,0-.6,0-.9,0-.3,0-.5,0-.7-.2v-1.4c.2,0,.4,0,.6.1.2,0,.4,0,.7,0,.4,0,.8-.1,1.1-.4.3-.2.4-.7.4-1.3v-12.4h1.8v12.3c0,1-.2,1.8-.7,2.3-.5.6-1.2.9-2.3.9ZM596.7,80.1c.9,0,1.7.2,2.4.6.7.4,1.2,1,1.5,1.7.4.7.5,1.6.5,2.5v1.1h-7.3c0,1.2.3,2.1.9,2.8.6.6,1.4.9,2.5.9s1.3,0,1.8-.2c.5-.1,1.1-.3,1.6-.6v1.5c-.5.2-1.1.4-1.6.5-.5.1-1.2.2-1.9.2s-1.9-.2-2.7-.6c-.8-.4-1.4-1-1.8-1.8-.4-.8-.6-1.8-.6-3s.2-2.2.6-3c.4-.8,1-1.5,1.7-1.9.7-.5,1.6-.7,2.5-.7ZM596.7,81.5c-.8,0-1.5.3-2,.8-.5.5-.8,1.3-.9,2.2h5.5c0-.9-.2-1.6-.6-2.2-.4-.6-1.1-.9-2-.9ZM607.4,89.8c.3,0,.5,0,.8,0,.3,0,.5-.1.7-.2v1.3c-.2,0-.5.2-.8.2-.3,0-.7,0-1,0-.6,0-1.1,0-1.6-.3-.5-.2-.8-.5-1.1-1-.3-.5-.4-1.2-.4-2v-6.2h-1.5v-.8l1.5-.7.7-2.3h1v2.5h3.1v1.4h-3.1v6.2c0,.7.2,1.1.5,1.5.3.3.7.5,1.2.5ZM625.6,85.6c0,1.8-.5,3.1-1.4,4.1-.9,1-2.1,1.5-3.6,1.5s-1.8-.2-2.5-.6c-.7-.4-1.3-1.1-1.7-1.9-.4-.8-.6-1.9-.6-3,0-1.8.4-3.1,1.3-4.1.9-1,2.1-1.4,3.6-1.4s1.8.2,2.6.7c.7.4,1.3,1.1,1.7,1.9.4.8.6,1.8.6,3ZM617.5,85.6c0,1.3.2,2.3.7,3,.5.7,1.3,1.1,2.4,1.1s1.9-.4,2.4-1.1c.5-.7.8-1.8.8-3s-.3-2.3-.8-3-1.3-1.1-2.4-1.1-1.9.4-2.4,1.1c-.5.7-.7,1.7-.7,3ZM637.3,80.3v10.7h-1.4l-.3-1.4h0c-.3.6-.8,1-1.4,1.2-.6.3-1.3.4-2,.4-1.3,0-2.3-.3-2.9-.9-.7-.6-1-1.6-1-3v-7h1.8v6.9c0,1.7.8,2.6,2.4,2.6s2-.3,2.5-1c.5-.7.7-1.6.7-2.9v-5.6h1.8ZM647.7,91h-1.8v-15.2h1.8v15.2ZM652.6,76.9c-.2.7-.4,1.5-.8,2.3-.3.9-.6,1.6-1,2.3h-1.3c.1-.5.3-1,.4-1.6.1-.6.3-1.2.4-1.7.1-.6.2-1.1.3-1.6h1.9v.2ZM657.8,80.1c1.3,0,2.3.3,2.9.9.6.6.9,1.5.9,2.7v7.3h-1.3l-.3-1.5h0c-.5.6-1,1-1.5,1.3-.5.3-1.2.4-2.1.4s-1.8-.3-2.4-.8c-.6-.5-1-1.3-1-2.4s.4-1.9,1.3-2.5c.8-.6,2.1-.9,3.9-1h1.8v-.7c0-.9-.2-1.5-.6-1.9-.4-.3-.9-.5-1.6-.5s-1.1,0-1.6.3c-.5.2-1,.3-1.4.6l-.5-1.3c.5-.3,1-.5,1.7-.6.6-.2,1.3-.3,2-.3ZM658.3,85.8c-1.3,0-2.3.3-2.8.6-.5.4-.8.9-.8,1.6s.2,1,.5,1.3c.4.3.8.4,1.4.4.9,0,1.7-.2,2.3-.7.6-.5.9-1.3.9-2.3v-1h-1.6ZM669.3,91.2c-.9,0-1.8-.2-2.5-.6-.7-.4-1.3-1-1.7-1.8-.4-.8-.6-1.9-.6-3.1s.2-2.4.7-3.2c.4-.8,1-1.4,1.8-1.8.8-.4,1.6-.6,2.6-.6s1.1,0,1.6.2c.5.1.9.2,1.2.4l-.5,1.5c-.3-.1-.7-.2-1.1-.3-.4-.1-.8-.2-1.2-.2-2.1,0-3.2,1.4-3.2,4.1s.3,2.3.8,3c.5.7,1.3,1,2.3,1s1.1,0,1.5-.2c.5-.1.9-.3,1.2-.4v1.6c-.4.2-.8.3-1.2.4-.4.1-.9.2-1.6.2ZM678.2,89.8c.3,0,.5,0,.8,0,.3,0,.5-.1.7-.2v1.3c-.2,0-.5.2-.8.2-.3,0-.7,0-1,0-.6,0-1.1,0-1.6-.3-.5-.2-.8-.5-1.1-1-.3-.5-.4-1.2-.4-2v-6.2h-1.5v-.8l1.5-.7.7-2.3h1v2.5h3.1v1.4h-3.1v6.2c0,.7.2,1.1.5,1.5.3.3.7.5,1.2.5ZM682.7,76.3c.3,0,.5,0,.7.3.2.2.3.5.3.8s-.1.7-.3.8c-.2.2-.4.3-.7.3s-.5,0-.7-.3c-.2-.2-.3-.5-.3-.8s.1-.7.3-.8c.2-.2.4-.3.7-.3ZM683.6,80.3v10.7h-1.8v-10.7h1.8ZM696.3,85.6c0,1.8-.5,3.1-1.4,4.1-.9,1-2.1,1.5-3.6,1.5s-1.8-.2-2.5-.6c-.7-.4-1.3-1.1-1.7-1.9-.4-.8-.6-1.9-.6-3,0-1.8.4-3.1,1.3-4.1.9-1,2.1-1.4,3.6-1.4s1.8.2,2.6.7c.7.4,1.3,1.1,1.7,1.9.4.8.6,1.8.6,3ZM688.2,85.6c0,1.3.2,2.3.7,3,.5.7,1.3,1.1,2.4,1.1s1.9-.4,2.4-1.1c.5-.7.8-1.8.8-3s-.3-2.3-.8-3c-.5-.7-1.3-1.1-2.4-1.1s-1.9.4-2.4,1.1c-.5.7-.7,1.7-.7,3ZM704.2,80.1c1.3,0,2.2.3,2.9.9.7.6,1,1.6,1,3v7h-1.7v-6.9c0-1.7-.8-2.6-2.4-2.6s-2,.3-2.5,1c-.5.7-.7,1.6-.7,2.9v5.6h-1.8v-10.7h1.4l.3,1.5h.1c.3-.6.8-1,1.4-1.2.6-.3,1.3-.4,1.9-.4ZM66.6,106.3c.3,0,.5,0,.7.3.2.2.3.5.3.8s-.1.7-.3.8c-.2.2-.4.3-.7.3s-.5,0-.7-.3c-.2-.2-.3-.5-.3-.8s0-.7.3-.8c.2-.2.4-.3.7-.3ZM67.5,110.3v10.7h-1.8v-10.7h1.8ZM76,110.1c1.3,0,2.2.3,2.9.9.7.6,1,1.6,1,3v7h-1.7v-6.9c0-1.7-.8-2.6-2.4-2.6s-2,.3-2.5,1c-.5.7-.7,1.6-.7,2.9v5.6h-1.8v-10.7h1.4l.3,1.5h0c.3-.6.8-1,1.4-1.2.6-.3,1.3-.4,1.9-.4ZM87,121.2c-1.3,0-2.4-.5-3.2-1.4-.8-.9-1.2-2.3-1.2-4.2s.4-3.2,1.2-4.2c.8-.9,1.9-1.4,3.2-1.4s1.5.2,2,.5c.5.3,1,.7,1.3,1.1h.1c0-.2,0-.4,0-.8,0-.3,0-.6,0-.8v-4.3h1.8v15.2h-1.4l-.3-1.4h0c-.3.5-.7.8-1.3,1.2-.5.3-1.2.5-2.1.5ZM87.3,119.7c1.1,0,1.9-.3,2.4-.9.5-.6.7-1.6.7-2.8v-.3c0-1.3-.2-2.4-.7-3.1-.4-.7-1.3-1.1-2.4-1.1s-1.7.4-2.1,1.1c-.5.7-.7,1.8-.7,3s.2,2.3.7,3c.5.7,1.2,1.1,2.2,1.1ZM96.4,106.3c.3,0,.5,0,.7.3.2.2.3.5.3.8s-.1.7-.3.8c-.2.2-.4.3-.7.3s-.5,0-.7-.3c-.2-.2-.3-.5-.3-.8s0-.7.3-.8c.2-.2.4-.3.7-.3ZM97.3,110.3v10.7h-1.8v-10.7h1.8ZM107.8,121.2c0-.2,0-.5,0-.8,0-.3,0-.6,0-.8h-.1c-.3.5-.7.8-1.3,1.2-.5.3-1.2.5-2.1.5-1.3,0-2.3-.5-3.2-1.4-.8-.9-1.2-2.3-1.2-4.2s.4-3.2,1.2-4.2c.8-.9,1.9-1.4,3.2-1.4s1.5.2,2.1.5c.5.3,1,.7,1.3,1.2h0l.3-1.5h1.4v15.5h-1.8v-4.6ZM104.8,119.7c1.1,0,1.9-.3,2.3-.9.5-.6.7-1.5.7-2.8v-.4c0-1.4-.2-2.4-.7-3.1-.5-.7-1.3-1.1-2.4-1.1s-1.7.4-2.1,1.1c-.5.7-.7,1.8-.7,3s.2,2.3.7,3c.5.7,1.2,1.1,2.2,1.1ZM121.9,110.3v10.7h-1.4l-.3-1.4h0c-.3.6-.8,1-1.4,1.2-.6.3-1.3.4-2,.4-1.3,0-2.3-.3-2.9-.9-.7-.6-1-1.6-1-3v-7h1.8v6.9c0,1.7.8,2.6,2.4,2.6s2-.3,2.5-1c.5-.7.7-1.6.7-2.9v-5.6h1.8ZM129.5,110.1c.9,0,1.7.2,2.4.6.7.4,1.2,1,1.5,1.7.4.7.5,1.6.5,2.5v1.1h-7.3c0,1.2.3,2.1.9,2.8.6.6,1.4.9,2.5.9s1.3,0,1.8-.2c.5-.1,1.1-.3,1.6-.6v1.5c-.5.2-1.1.4-1.6.5-.5.1-1.2.2-1.9.2s-1.9-.2-2.7-.6c-.8-.4-1.4-1-1.8-1.8-.4-.8-.6-1.8-.6-3s.2-2.2.6-3c.4-.8,1-1.5,1.7-1.9.7-.5,1.6-.7,2.5-.7ZM129.5,111.5c-.8,0-1.5.3-2,.8-.5.5-.8,1.3-.9,2.2h5.5c0-.9-.2-1.6-.6-2.2-.4-.6-1.1-.9-2-.9ZM132.3,105.9c-.2.2-.4.6-.7.9-.3.4-.7.8-1.1,1.1s-.7.7-1,.9h-1.2v-.2c.2-.3.4-.6.6-.9.2-.3.5-.7.7-1.1.2-.4.4-.7.6-1h2.1v.2ZM145.6,121.2c-1.3,0-2.4-.5-3.2-1.4-.8-.9-1.2-2.3-1.2-4.2s.4-3.2,1.2-4.2c.8-.9,1.9-1.4,3.2-1.4s1.5.2,2,.5c.5.3,1,.7,1.3,1.1h.1c0-.2,0-.4,0-.8,0-.3,0-.6,0-.8v-4.3h1.8v15.2h-1.4l-.3-1.4h0c-.3.5-.7.8-1.3,1.2-.5.3-1.2.5-2.1.5ZM145.9,119.7c1.1,0,1.9-.3,2.4-.9.5-.6.7-1.6.7-2.8v-.3c0-1.3-.2-2.4-.7-3.1-.4-.7-1.3-1.1-2.4-1.1s-1.7.4-2.1,1.1c-.5.7-.7,1.8-.7,3s.2,2.3.7,3c.5.7,1.2,1.1,2.2,1.1ZM158.2,110.1c1.3,0,2.3.3,2.9.9.6.6.9,1.5.9,2.7v7.3h-1.3l-.3-1.5h0c-.5.6-1,1-1.5,1.3-.5.3-1.2.4-2.1.4s-1.8-.3-2.4-.8c-.6-.5-1-1.3-1-2.4s.4-1.9,1.3-2.5c.8-.6,2.1-.9,3.9-1h1.8v-.7c0-.9-.2-1.5-.6-1.9-.4-.3-.9-.5-1.6-.5s-1.1,0-1.6.3c-.5.2-1,.3-1.4.6l-.5-1.3c.5-.3,1-.5,1.7-.6.6-.2,1.3-.3,2-.3ZM158.7,115.8c-1.3,0-2.3.3-2.8.6-.5.4-.8.9-.8,1.6s.2,1,.5,1.3c.4.3.8.4,1.4.4.9,0,1.7-.2,2.3-.7.6-.5.9-1.3.9-2.3v-1h-1.6ZM170.5,110.1c1.3,0,2.2.3,2.9.9.7.6,1,1.6,1,3v7h-1.7v-6.9c0-1.7-.8-2.6-2.4-2.6s-2,.3-2.5,1c-.5.7-.7,1.6-.7,2.9v5.6h-1.8v-10.7h1.4l.3,1.5h.1c.3-.6.8-1,1.4-1.2.6-.3,1.3-.4,1.9-.4ZM184.7,118c0,1-.4,1.8-1.2,2.4-.8.5-1.8.8-3.1.8s-1.4,0-1.9-.2c-.5-.1-1-.3-1.4-.5v-1.6c.4.2.9.4,1.5.6.6.2,1.2.3,1.9.3.9,0,1.5-.1,1.9-.4.4-.3.6-.7.6-1.2s0-.5-.2-.7c-.1-.2-.4-.4-.8-.6-.4-.2-.9-.5-1.6-.7-.7-.3-1.3-.5-1.8-.8-.5-.3-.9-.6-1.1-1-.3-.4-.4-.9-.4-1.4,0-.9.4-1.6,1.1-2.1.7-.5,1.7-.7,2.9-.7s1.3,0,1.8.2c.6.1,1.1.3,1.6.5l-.6,1.4c-.5-.2-.9-.3-1.4-.5-.5-.1-1-.2-1.5-.2s-1.3.1-1.7.4c-.4.2-.6.5-.6.9s0,.5.3.8c.2.2.5.4.9.6.4.2,1,.4,1.6.7.7.3,1.3.5,1.7.8.5.3.8.6,1.1,1,.3.4.4.8.4,1.4ZM194.2,121h-1.8v-15.2h1.8v15.2ZM201.8,110.1c.9,0,1.7.2,2.4.6.7.4,1.2,1,1.5,1.7.4.7.5,1.6.5,2.5v1.1h-7.3c0,1.2.3,2.1.9,2.8.6.6,1.4.9,2.5.9s1.3,0,1.8-.2c.5-.1,1.1-.3,1.6-.6v1.5c-.5.2-1.1.4-1.6.5-.5.1-1.2.2-1.9.2s-1.9-.2-2.7-.6c-.8-.4-1.4-1-1.8-1.8-.4-.8-.6-1.8-.6-3s.2-2.2.6-3c.4-.8,1-1.5,1.7-1.9.7-.5,1.6-.7,2.5-.7ZM201.8,111.5c-.8,0-1.5.3-2,.8-.5.5-.8,1.3-.9,2.2h5.5c0-.9-.2-1.6-.6-2.2-.4-.6-1.1-.9-2-.9ZM217.7,119.8c.3,0,.5,0,.8,0,.3,0,.5-.1.7-.2v1.3c-.2,0-.5.2-.8.2-.3,0-.7,0-1,0-.6,0-1.1,0-1.6-.3-.5-.2-.8-.5-1.1-1-.3-.5-.4-1.2-.4-2v-6.2h-1.5v-.8l1.5-.7.7-2.3h1v2.5h3.1v1.4h-3.1v6.2c0,.7.2,1.1.5,1.5.3.3.7.5,1.2.5ZM222.2,106.3c.3,0,.5,0,.7.3.2.2.3.5.3.8s-.1.7-.3.8c-.2.2-.4.3-.7.3s-.5,0-.7-.3c-.2-.2-.3-.5-.3-.8s0-.7.3-.8c.2-.2.4-.3.7-.3ZM223.1,110.3v10.7h-1.8v-10.7h1.8ZM230.1,119.8c.3,0,.5,0,.8,0,.3,0,.5-.1.7-.2v1.3c-.2,0-.5.2-.8.2-.3,0-.7,0-1,0-.6,0-1.1,0-1.6-.3-.5-.2-.8-.5-1.1-1-.3-.5-.4-1.2-.4-2v-6.2h-1.5v-.8l1.5-.7.7-2.3h1v2.5h3.1v1.4h-3.1v6.2c0,.7.2,1.1.5,1.5.3.3.7.5,1.2.5ZM238.7,110.1c.2,0,.4,0,.6,0,.2,0,.4,0,.6,0l-.2,1.6c-.2,0-.4,0-.6,0-.2,0-.4,0-.6,0-.5,0-1.1.2-1.5.5-.5.3-.9.7-1.2,1.3-.3.5-.4,1.2-.4,1.9v5.7h-1.8v-10.7h1.4l.2,2h0c.3-.6.8-1.1,1.3-1.5.5-.4,1.2-.6,1.9-.6ZM245.7,110.1c.9,0,1.7.2,2.4.6.7.4,1.2,1,1.5,1.7.4.7.5,1.6.5,2.5v1.1h-7.3c0,1.2.3,2.1.9,2.8.6.6,1.4.9,2.5.9s1.3,0,1.8-.2c.5-.1,1.1-.3,1.6-.6v1.5c-.5.2-1.1.4-1.6.5-.5.1-1.2.2-1.9.2s-1.9-.2-2.7-.6c-.8-.4-1.4-1-1.8-1.8-.4-.8-.6-1.8-.6-3s.2-2.2.6-3c.4-.8,1-1.5,1.7-1.9.7-.5,1.6-.7,2.5-.7ZM245.7,111.5c-.8,0-1.5.3-2,.8-.5.5-.8,1.3-.9,2.2h5.5c0-.9-.2-1.6-.6-2.2-.4-.6-1.1-.9-2-.9ZM252.6,119.9c0-.5.1-.8.4-1,.2-.2.5-.3.9-.3s.6,0,.9.3c.3.2.4.5.4,1s-.1.8-.4,1c-.2.2-.5.3-.9.3s-.6-.1-.9-.3c-.2-.2-.4-.6-.4-1ZM263.7,121v-14.3h1.8v12.7h6.2v1.6h-8ZM278.1,110.1c.9,0,1.7.2,2.4.6.7.4,1.2,1,1.5,1.7.4.7.5,1.6.5,2.5v1.1h-7.3c0,1.2.3,2.1.9,2.8.6.6,1.4.9,2.5.9s1.3,0,1.8-.2c.5-.1,1.1-.3,1.6-.6v1.5c-.5.2-1.1.4-1.6.5-.5.1-1.2.2-1.9.2s-1.9-.2-2.7-.6c-.8-.4-1.4-1-1.8-1.8-.4-.8-.6-1.8-.6-3s.2-2.2.6-3c.4-.8,1-1.5,1.7-1.9.7-.5,1.6-.7,2.5-.7ZM278,111.5c-.8,0-1.5.3-2,.8-.5.5-.8,1.3-.9,2.2h5.5c0-.9-.2-1.6-.6-2.2-.4-.6-1.1-.9-2-.9ZM294,119.8c.3,0,.5,0,.8,0,.3,0,.5-.1.7-.2v1.3c-.2,0-.5.2-.8.2-.3,0-.7,0-1,0-.6,0-1.1,0-1.6-.3-.5-.2-.8-.5-1.1-1-.3-.5-.4-1.2-.4-2v-6.2h-1.5v-.8l1.5-.7.7-2.3h1v2.5h3.1v1.4h-3.1v6.2c0,.7.2,1.1.5,1.5.3.3.7.5,1.2.5ZM301.8,110.1c.9,0,1.7.2,2.4.6.7.4,1.2,1,1.5,1.7.4.7.5,1.6.5,2.5v1.1h-7.3c0,1.2.3,2.1.9,2.8.6.6,1.4.9,2.5.9s1.3,0,1.8-.2c.5-.1,1.1-.3,1.6-.6v1.5c-.5.2-1.1.4-1.6.5-.5.1-1.2.2-1.9.2s-1.9-.2-2.7-.6c-.8-.4-1.4-1-1.8-1.8-.4-.8-.6-1.8-.6-3s.2-2.2.6-3c.4-.8,1-1.5,1.7-1.9.7-.5,1.6-.7,2.5-.7ZM301.8,111.5c-.8,0-1.5.3-2,.8-.5.5-.8,1.3-.9,2.2h5.5c0-.9-.2-1.6-.6-2.2-.4-.6-1.1-.9-2-.9ZM311.1,115.5l-3.7-5.2h2l2.8,4,2.7-4h2l-3.7,5.2,3.9,5.5h-2l-2.9-4.3-3,4.3h-2l3.9-5.5ZM322.7,119.8c.3,0,.5,0,.8,0,.3,0,.5-.1.7-.2v1.3c-.2,0-.5.2-.8.2-.3,0-.7,0-1,0-.6,0-1.1,0-1.6-.3-.5-.2-.8-.5-1.1-1-.3-.5-.4-1.2-.4-2v-6.2h-1.5v-.8l1.5-.7.7-2.3h1v2.5h3.1v1.4h-3.1v6.2c0,.7.2,1.1.5,1.5.3.3.7.5,1.2.5ZM330.5,110.1c.9,0,1.7.2,2.4.6.7.4,1.2,1,1.5,1.7.4.7.5,1.6.5,2.5v1.1h-7.3c0,1.2.3,2.1.9,2.8.6.6,1.4.9,2.5.9s1.3,0,1.8-.2c.5-.1,1.1-.3,1.6-.6v1.5c-.5.2-1.1.4-1.6.5-.5.1-1.2.2-1.9.2s-1.9-.2-2.7-.6c-.8-.4-1.4-1-1.8-1.8-.4-.8-.6-1.8-.6-3s.2-2.2.6-3c.4-.8,1-1.5,1.7-1.9.7-.5,1.6-.7,2.5-.7ZM330.5,111.5c-.8,0-1.5.3-2,.8-.5.5-.8,1.3-.9,2.2h5.5c0-.9-.2-1.6-.6-2.2-.4-.6-1.1-.9-2-.9ZM347,110.1c.9,0,1.7.2,2.4.6.7.4,1.2,1,1.5,1.7.4.7.5,1.6.5,2.5v1.1h-7.3c0,1.2.3,2.1.9,2.8.6.6,1.4.9,2.5.9s1.3,0,1.8-.2c.5-.1,1.1-.3,1.6-.6v1.5c-.5.2-1.1.4-1.6.5-.5.1-1.2.2-1.9.2s-1.9-.2-2.7-.6c-.8-.4-1.4-1-1.8-1.8-.4-.8-.6-1.8-.6-3s.2-2.2.6-3c.4-.8,1-1.5,1.7-1.9.7-.5,1.6-.7,2.5-.7ZM346.9,111.5c-.8,0-1.5.3-2,.8-.5.5-.8,1.3-.9,2.2h5.5c0-.9-.2-1.6-.6-2.2-.4-.6-1.1-.9-2-.9ZM361.1,118c0,1-.4,1.8-1.2,2.4-.8.5-1.8.8-3.1.8s-1.4,0-1.9-.2c-.5-.1-1-.3-1.4-.5v-1.6c.4.2.9.4,1.5.6.6.2,1.2.3,1.9.3.9,0,1.5-.1,1.9-.4.4-.3.6-.7.6-1.2s0-.5-.2-.7c-.1-.2-.4-.4-.8-.6-.4-.2-.9-.5-1.6-.7-.7-.3-1.3-.5-1.8-.8s-.9-.6-1.1-1-.4-.9-.4-1.4c0-.9.4-1.6,1.1-2.1.7-.5,1.7-.7,2.9-.7s1.3,0,1.8.2c.6.1,1.1.3,1.6.5l-.6,1.4c-.5-.2-.9-.3-1.4-.5-.5-.1-1-.2-1.5-.2s-1.3.1-1.7.4c-.4.2-.6.5-.6.9s0,.5.3.8c.2.2.5.4.9.6.4.2,1,.4,1.6.7.7.3,1.3.5,1.7.8.5.3.8.6,1.1,1,.3.4.4.8.4,1.4ZM367.3,119.8c.3,0,.5,0,.8,0,.3,0,.5-.1.7-.2v1.3c-.2,0-.5.2-.8.2-.3,0-.7,0-1,0-.6,0-1.1,0-1.6-.3-.5-.2-.8-.5-1.1-1-.3-.5-.4-1.2-.4-2v-6.2h-1.5v-.8l1.5-.7.7-2.3h1v2.5h3.1v1.4h-3.1v6.2c0,.7.2,1.1.5,1.5.3.3.7.5,1.2.5ZM379.9,110.1c.7,0,1.3.1,1.9.4.6.3,1.1.7,1.5,1.2h.1l.2-1.4h1.4v10.9c0,1.5-.4,2.7-1.2,3.5-.8.8-2,1.2-3.6,1.2s-2.9-.2-3.9-.7v-1.6c1.1.6,2.4.8,4,.8s1.6-.3,2.2-.8c.5-.5.8-1.3.8-2.2v-.4c0-.2,0-.4,0-.7,0-.3,0-.5,0-.6h0c-.7,1.1-1.8,1.6-3.3,1.6s-2.5-.5-3.3-1.5c-.8-1-1.2-2.3-1.2-4.1s.4-3.1,1.2-4.1c.8-1,1.9-1.5,3.2-1.5ZM380.1,111.6c-.9,0-1.6.4-2.1,1.1-.5.7-.7,1.7-.7,3s.2,2.3.7,3c.5.7,1.2,1,2.1,1s1.9-.3,2.4-.9c.5-.6.7-1.5.7-2.8v-.4c0-1.5-.3-2.5-.8-3.1-.5-.6-1.3-1-2.4-1ZM392.6,110.1c.9,0,1.7.2,2.4.6.7.4,1.2,1,1.5,1.7.4.7.5,1.6.5,2.5v1.1h-7.3c0,1.2.3,2.1.9,2.8.6.6,1.4.9,2.5.9s1.3,0,1.8-.2c.5-.1,1.1-.3,1.6-.6v1.5c-.5.2-1.1.4-1.6.5-.5.1-1.2.2-1.9.2s-1.9-.2-2.7-.6c-.8-.4-1.4-1-1.8-1.8-.4-.8-.6-1.8-.6-3s.2-2.2.6-3c.4-.8,1-1.5,1.7-1.9.7-.5,1.6-.7,2.5-.7ZM392.5,111.5c-.8,0-1.5.3-2,.8-.5.5-.8,1.3-.9,2.2h5.5c0-.9-.2-1.6-.6-2.2-.4-.6-1.1-.9-2-.9ZM395.4,105.9c-.2.2-.4.6-.7.9-.3.4-.7.8-1.1,1.1-.4.4-.7.7-1,.9h-1.2v-.2c.2-.3.4-.6.6-.9.2-.3.5-.7.7-1.1.2-.4.4-.7.6-1h2.1v.2ZM404.9,110.1c1.3,0,2.2.3,2.9.9.7.6,1,1.6,1,3v7h-1.7v-6.9c0-1.7-.8-2.6-2.4-2.6s-2,.3-2.5,1c-.5.7-.7,1.6-.7,2.9v5.6h-1.8v-10.7h1.4l.3,1.5h.1c.3-.6.8-1,1.4-1.2.6-.3,1.3-.4,1.9-.4ZM416.2,110.1c.9,0,1.7.2,2.4.6.7.4,1.2,1,1.5,1.7.4.7.5,1.6.5,2.5v1.1h-7.3c0,1.2.3,2.1.9,2.8.6.6,1.4.9,2.5.9s1.3,0,1.8-.2c.5-.1,1.1-.3,1.6-.6v1.5c-.5.2-1.1.4-1.6.5-.5.1-1.2.2-1.9.2s-1.9-.2-2.7-.6c-.8-.4-1.4-1-1.8-1.8-.4-.8-.6-1.8-.6-3s.2-2.2.6-3c.4-.8,1-1.5,1.7-1.9.7-.5,1.6-.7,2.5-.7ZM416.2,111.5c-.8,0-1.5.3-2,.8-.5.5-.8,1.3-.9,2.2h5.5c0-.9-.2-1.6-.6-2.2-.4-.6-1.1-.9-2-.9ZM419,105.9c-.2.2-.4.6-.7.9-.3.4-.7.8-1.1,1.1-.4.4-.7.7-1,.9h-1.2v-.2c.2-.3.4-.6.6-.9.2-.3.5-.7.7-1.1.2-.4.4-.7.6-1h2.1v.2ZM428.4,110.1c.2,0,.4,0,.6,0,.2,0,.4,0,.6,0l-.2,1.6c-.2,0-.4,0-.6,0-.2,0-.4,0-.6,0-.5,0-1.1.2-1.5.5-.5.3-.9.7-1.2,1.3-.3.5-.4,1.2-.4,1.9v5.7h-1.8v-10.7h1.4l.2,2h0c.3-.6.8-1.1,1.3-1.5.5-.4,1.2-.6,1.9-.6ZM435.3,110.1c1.3,0,2.3.3,2.9.9.6.6.9,1.5.9,2.7v7.3h-1.3l-.3-1.5h0c-.5.6-1,1-1.5,1.3-.5.3-1.2.4-2.1.4s-1.8-.3-2.4-.8c-.6-.5-1-1.3-1-2.4s.4-1.9,1.3-2.5c.8-.6,2.1-.9,3.9-1h1.8v-.7c0-.9-.2-1.5-.6-1.9-.4-.3-.9-.5-1.6-.5s-1.1,0-1.6.3c-.5.2-1,.3-1.4.6l-.5-1.3c.5-.3,1-.5,1.7-.6.6-.2,1.3-.3,2-.3ZM435.8,115.8c-1.3,0-2.3.3-2.8.6-.5.4-.8.9-.8,1.6s.2,1,.5,1.3c.4.3.8.4,1.4.4.9,0,1.7-.2,2.3-.7.6-.5.9-1.3.9-2.3v-1h-1.6ZM444.2,121h-1.8v-15.2h1.8v15.2ZM451.7,110.1c.9,0,1.7.2,2.4.6.7.4,1.2,1,1.5,1.7.4.7.5,1.6.5,2.5v1.1h-7.3c0,1.2.3,2.1.9,2.8.6.6,1.4.9,2.5.9s1.3,0,1.8-.2c.5-.1,1.1-.3,1.6-.6v1.5c-.5.2-1.1.4-1.6.5-.5.1-1.2.2-1.9.2s-1.9-.2-2.7-.6c-.8-.4-1.4-1-1.8-1.8-.4-.8-.6-1.8-.6-3s.2-2.2.6-3c.4-.8,1-1.5,1.7-1.9.7-.5,1.6-.7,2.5-.7ZM451.7,111.5c-.8,0-1.5.3-2,.8-.5.5-.8,1.3-.9,2.2h5.5c0-.9-.2-1.6-.6-2.2-.4-.6-1.1-.9-2-.9ZM470.6,110.1c1.2,0,2.1.3,2.7.9.6.6.9,1.6.9,3v7h-1.7v-6.9c0-1.7-.7-2.5-2.2-2.5s-1.8.3-2.2.9c-.4.6-.7,1.5-.7,2.6v5.9h-1.7v-6.9c0-1.7-.7-2.5-2.2-2.5s-1.8.3-2.2,1c-.4.7-.6,1.6-.6,2.9v5.6h-1.8v-10.7h1.4l.3,1.5h.1c.3-.6.8-1,1.3-1.2.6-.3,1.2-.4,1.8-.4,1.7,0,2.8.6,3.3,1.8h.1c.4-.6.8-1.1,1.5-1.4.6-.3,1.3-.4,2-.4ZM481.7,110.1c.9,0,1.7.2,2.4.6.7.4,1.2,1,1.5,1.7.4.7.5,1.6.5,2.5v1.1h-7.3c0,1.2.3,2.1.9,2.8.6.6,1.4.9,2.5.9s1.3,0,1.8-.2c.5-.1,1.1-.3,1.6-.6v1.5c-.5.2-1.1.4-1.6.5-.5.1-1.2.2-1.9.2s-1.9-.2-2.7-.6c-.8-.4-1.4-1-1.8-1.8-.4-.8-.6-1.8-.6-3s.2-2.2.6-3c.4-.8,1-1.5,1.7-1.9.7-.5,1.6-.7,2.5-.7ZM481.7,111.5c-.8,0-1.5.3-2,.8-.5.5-.8,1.3-.9,2.2h5.5c0-.9-.2-1.6-.6-2.2-.4-.6-1.1-.9-2-.9ZM494,110.1c1.3,0,2.2.3,2.9.9.7.6,1,1.6,1,3v7h-1.7v-6.9c0-1.7-.8-2.6-2.4-2.6s-2,.3-2.5,1c-.5.7-.7,1.6-.7,2.9v5.6h-1.8v-10.7h1.4l.3,1.5h.1c.3-.6.8-1,1.4-1.2.6-.3,1.3-.4,1.9-.4ZM504.8,119.8c.3,0,.5,0,.8,0,.3,0,.5-.1.7-.2v1.3c-.2,0-.5.2-.8.2-.3,0-.7,0-1,0-.6,0-1.1,0-1.6-.3-.5-.2-.8-.5-1.1-1-.3-.5-.4-1.2-.4-2v-6.2h-1.5v-.8l1.5-.7.7-2.3h1v2.5h3.1v1.4h-3.1v6.2c0,.7.2,1.1.5,1.5.3.3.7.5,1.2.5ZM517.9,121.2c-.9,0-1.8-.2-2.5-.6-.7-.4-1.3-1-1.7-1.8-.4-.8-.6-1.9-.6-3.1s.2-2.4.7-3.2c.4-.8,1-1.4,1.8-1.8.8-.4,1.6-.6,2.6-.6s1.1,0,1.6.2c.5.1.9.2,1.2.4l-.5,1.5c-.3-.1-.7-.2-1.1-.3-.4-.1-.8-.2-1.2-.2-2.1,0-3.2,1.4-3.2,4.1s.3,2.3.8,3c.5.7,1.3,1,2.3,1s1.1,0,1.5-.2c.5-.1.9-.3,1.2-.4v1.6c-.4.2-.8.3-1.2.4-.4.1-.9.2-1.6.2ZM532.6,115.6c0,1.8-.5,3.1-1.4,4.1-.9,1-2.1,1.5-3.6,1.5s-1.8-.2-2.5-.6c-.7-.4-1.3-1.1-1.7-1.9-.4-.8-.6-1.9-.6-3,0-1.8.4-3.1,1.3-4.1.9-1,2.1-1.4,3.6-1.4s1.8.2,2.6.7c.7.4,1.3,1.1,1.7,1.9.4.8.6,1.8.6,3ZM524.5,115.6c0,1.3.2,2.3.7,3,.5.7,1.3,1.1,2.4,1.1s1.9-.4,2.4-1.1c.5-.7.8-1.8.8-3s-.3-2.3-.8-3c-.5-.7-1.3-1.1-2.4-1.1s-1.9.4-2.4,1.1c-.5.7-.7,1.7-.7,3ZM540.5,110.1c1.3,0,2.2.3,2.9.9.7.6,1,1.6,1,3v7h-1.7v-6.9c0-1.7-.8-2.6-2.4-2.6s-2,.3-2.5,1-.7,1.6-.7,2.9v5.6h-1.8v-10.7h1.4l.3,1.5h.1c.3-.6.8-1,1.4-1.2.6-.3,1.3-.4,1.9-.4ZM554.7,118c0,1-.4,1.8-1.2,2.4-.8.5-1.8.8-3.1.8s-1.4,0-1.9-.2c-.5-.1-1-.3-1.4-.5v-1.6c.4.2.9.4,1.5.6.6.2,1.2.3,1.9.3.9,0,1.5-.1,1.9-.4.4-.3.6-.7.6-1.2s0-.5-.2-.7c-.1-.2-.4-.4-.8-.6-.4-.2-.9-.5-1.6-.7-.7-.3-1.3-.5-1.8-.8-.5-.3-.9-.6-1.1-1-.3-.4-.4-.9-.4-1.4,0-.9.4-1.6,1.1-2.1.7-.5,1.7-.7,2.9-.7s1.3,0,1.8.2c.6.1,1.1.3,1.6.5l-.6,1.4c-.5-.2-.9-.3-1.4-.5-.5-.1-1-.2-1.5-.2s-1.3.1-1.7.4c-.4.2-.6.5-.6.9s0,.5.3.8c.2.2.5.4.9.6.4.2,1,.4,1.6.7.7.3,1.3.5,1.7.8.5.3.8.6,1.1,1,.3.4.4.8.4,1.4ZM560.9,119.8c.3,0,.5,0,.8,0,.3,0,.5-.1.7-.2v1.3c-.2,0-.5.2-.8.2-.3,0-.7,0-1,0-.6,0-1.1,0-1.6-.3-.5-.2-.8-.5-1.1-1-.3-.5-.4-1.2-.4-2v-6.2h-1.5v-.8l1.5-.7.7-2.3h1v2.5h3.1v1.4h-3.1v6.2c0,.7.2,1.1.5,1.5.3.3.7.5,1.2.5ZM565.4,106.3c.3,0,.5,0,.7.3.2.2.3.5.3.8s-.1.7-.3.8c-.2.2-.4.3-.7.3s-.5,0-.7-.3c-.2-.2-.3-.5-.3-.8s0-.7.3-.8c.2-.2.4-.3.7-.3ZM566.3,110.3v10.7h-1.8v-10.7h1.8ZM573.3,119.8c.3,0,.5,0,.8,0,.3,0,.5-.1.7-.2v1.3c-.2,0-.5.2-.8.2-.3,0-.7,0-1,0-.6,0-1.1,0-1.6-.3-.5-.2-.8-.5-1.1-1-.3-.5-.4-1.2-.4-2v-6.2h-1.5v-.8l1.5-.7.7-2.3h1v2.5h3.1v1.4h-3.1v6.2c0,.7.2,1.1.5,1.5.3.3.7.5,1.2.5ZM585.9,110.3v10.7h-1.4l-.3-1.4h0c-.3.6-.8,1-1.4,1.2-.6.3-1.3.4-2,.4-1.3,0-2.3-.3-2.9-.9-.7-.6-1-1.6-1-3v-7h1.8v6.9c0,1.7.8,2.6,2.4,2.6s2-.3,2.5-1c.5-.7.7-1.6.7-2.9v-5.6h1.8ZM593.4,110.1c.9,0,1.7.2,2.4.6.7.4,1.2,1,1.5,1.7.4.7.5,1.6.5,2.5v1.1h-7.3c0,1.2.3,2.1.9,2.8.6.6,1.4.9,2.5.9s1.3,0,1.8-.2c.5-.1,1.1-.3,1.6-.6v1.5c-.5.2-1.1.4-1.6.5-.5.1-1.2.2-1.9.2s-1.9-.2-2.7-.6c-.8-.4-1.4-1-1.8-1.8-.4-.8-.6-1.8-.6-3s.2-2.2.6-3c.4-.8,1-1.5,1.7-1.9.7-.5,1.6-.7,2.5-.7ZM593.4,111.5c-.8,0-1.5.3-2,.8-.5.5-.8,1.3-.9,2.2h5.5c0-.9-.2-1.6-.6-2.2-.4-.6-1.1-.9-2-.9ZM596.2,105.9c-.2.2-.4.6-.7.9-.3.4-.7.8-1.1,1.1-.4.4-.7.7-1,.9h-1.2v-.2c.2-.3.4-.6.6-.9.2-.3.5-.7.7-1.1.2-.4.4-.7.6-1h2.1v.2ZM609.6,121.2c-1.3,0-2.4-.5-3.2-1.4-.8-.9-1.2-2.3-1.2-4.2s.4-3.2,1.2-4.2c.8-.9,1.9-1.4,3.2-1.4s1.5.2,2,.5c.5.3,1,.7,1.3,1.1h.1c0-.2,0-.4,0-.8,0-.3,0-.6,0-.8v-4.3h1.8v15.2h-1.4l-.3-1.4h0c-.3.5-.7.8-1.3,1.2-.5.3-1.2.5-2.1.5ZM609.8,119.7c1.1,0,1.9-.3,2.4-.9.5-.6.7-1.6.7-2.8v-.3c0-1.3-.2-2.4-.7-3.1-.4-.7-1.3-1.1-2.4-1.1s-1.7.4-2.1,1.1c-.5.7-.7,1.8-.7,3s.2,2.3.7,3c.5.7,1.2,1.1,2.2,1.1ZM619.6,106.9c-.2.7-.4,1.5-.8,2.3-.3.9-.6,1.6-1,2.3h-1.3c.1-.5.3-1,.4-1.6.1-.6.3-1.2.4-1.7.1-.6.2-1.1.3-1.6h1.9v.2ZM629.9,110.3v10.7h-1.4l-.3-1.4h0c-.3.6-.8,1-1.4,1.2-.6.3-1.3.4-2,.4-1.3,0-2.3-.3-2.9-.9-.7-.6-1-1.6-1-3v-7h1.8v6.9c0,1.7.8,2.6,2.4,2.6s2-.3,2.5-1c.5-.7.7-1.6.7-2.9v-5.6h1.8ZM638.5,110.1c1.3,0,2.2.3,2.9.9.7.6,1,1.6,1,3v7h-1.7v-6.9c0-1.7-.8-2.6-2.4-2.6s-2,.3-2.5,1c-.5.7-.7,1.6-.7,2.9v5.6h-1.8v-10.7h1.4l.3,1.5h0c.3-.6.8-1,1.4-1.2.6-.3,1.3-.4,1.9-.4ZM649.8,110.1c.9,0,1.7.2,2.4.6.7.4,1.2,1,1.5,1.7.4.7.5,1.6.5,2.5v1.1h-7.3c0,1.2.3,2.1.9,2.8.6.6,1.4.9,2.5.9s1.3,0,1.8-.2c.5-.1,1.1-.3,1.6-.6v1.5c-.5.2-1.1.4-1.6.5-.5.1-1.2.2-1.9.2s-1.9-.2-2.7-.6c-.8-.4-1.4-1-1.8-1.8-.4-.8-.6-1.8-.6-3s.2-2.2.6-3c.4-.8,1-1.5,1.7-1.9.7-.5,1.6-.7,2.5-.7ZM649.8,111.5c-.8,0-1.5.3-2,.8-.5.5-.8,1.3-.9,2.2h5.5c0-.9-.2-1.6-.6-2.2-.4-.6-1.1-.9-2-.9ZM671.5,115.6c0,1.8-.5,3.1-1.4,4.1-.9,1-2.1,1.5-3.6,1.5s-1.8-.2-2.5-.6c-.7-.4-1.3-1.1-1.7-1.9-.4-.8-.6-1.9-.6-3,0-1.8.4-3.1,1.3-4.1.9-1,2.1-1.4,3.6-1.4s1.8.2,2.6.7c.7.4,1.3,1.1,1.7,1.9.4.8.6,1.8.6,3ZM663.4,115.6c0,1.3.2,2.3.7,3,.5.7,1.3,1.1,2.4,1.1s1.9-.4,2.4-1.1c.5-.7.8-1.8.8-3s-.3-2.3-.8-3c-.5-.7-1.3-1.1-2.4-1.1s-1.9.4-2.4,1.1-.7,1.7-.7,3ZM683.2,110.3v10.7h-1.4l-.3-1.4h0c-.3.6-.8,1-1.4,1.2-.6.3-1.3.4-2,.4-1.3,0-2.3-.3-2.9-.9-.7-.6-1-1.6-1-3v-7h1.8v6.9c0,1.7.8,2.6,2.4,2.6s2-.3,2.5-1c.5-.7.7-1.6.7-2.9v-5.6h1.8ZM695.6,121.2c-1.3,0-2.4-.5-3.2-1.4-.8-.9-1.2-2.3-1.2-4.2s.4-3.2,1.2-4.2c.8-.9,1.9-1.4,3.2-1.4s1.5.2,2,.5c.5.3,1,.7,1.3,1.1h.1c0-.2,0-.4,0-.8,0-.3,0-.6,0-.8v-4.3h1.8v15.2h-1.4l-.3-1.4h0c-.3.5-.7.8-1.3,1.2-.5.3-1.2.5-2.1.5ZM695.9,119.7c1.1,0,1.9-.3,2.4-.9.5-.6.7-1.6.7-2.8v-.3c0-1.3-.2-2.4-.7-3.1-.4-.7-1.3-1.1-2.4-1.1s-1.7.4-2.1,1.1c-.5.7-.7,1.8-.7,3s.2,2.3.7,3c.5.7,1.2,1.1,2.2,1.1ZM708.3,110.1c.9,0,1.7.2,2.4.6.7.4,1.2,1,1.5,1.7.4.7.5,1.6.5,2.5v1.1h-7.3c0,1.2.3,2.1.9,2.8.6.6,1.4.9,2.5.9s1.3,0,1.8-.2c.5-.1,1.1-.3,1.6-.6v1.5c-.5.2-1.1.4-1.6.5-.5.1-1.2.2-1.9.2s-1.9-.2-2.7-.6c-.8-.4-1.4-1-1.8-1.8-.4-.8-.6-1.8-.6-3s.2-2.2.6-3c.4-.8,1-1.5,1.7-1.9.7-.5,1.6-.7,2.5-.7ZM708.3,111.5c-.8,0-1.5.3-2,.8-.5.5-.8,1.3-.9,2.2h5.5c0-.9-.2-1.6-.6-2.2-.4-.6-1.1-.9-2-.9ZM70.8,140.1c1.3,0,2.4.5,3.2,1.4.8.9,1.2,2.3,1.2,4.2s-.4,3.2-1.2,4.2c-.8.9-1.9,1.4-3.2,1.4s-1.5-.2-2.1-.5c-.5-.3-1-.7-1.3-1.1h-.1c0,.2,0,.5,0,.9,0,.3,0,.6,0,.9v4.4h-1.8v-15.5h1.4l.2,1.5h0c.3-.5.7-.9,1.3-1.2.5-.3,1.2-.5,2.1-.5ZM70.5,141.6c-1.1,0-1.9.3-2.3.9-.4.6-.7,1.5-.7,2.8v.3c0,1.3.2,2.3.6,3.1.4.7,1.2,1.1,2.4,1.1s1.2-.2,1.6-.5c.4-.4.7-.8.9-1.5.2-.6.3-1.3.3-2.1,0-1.2-.2-2.2-.7-2.9-.5-.7-1.2-1.1-2.2-1.1ZM79.8,151h-1.8v-15.2h1.8v15.2ZM92.1,140.3v10.7h-1.4l-.3-1.4h0c-.3.6-.8,1-1.4,1.2-.6.3-1.3.4-2,.4-1.3,0-2.3-.3-2.9-.9-.7-.6-1-1.6-1-3v-7h1.8v6.9c0,1.7.8,2.6,2.4,2.6s2-.3,2.5-1c.5-.7.7-1.6.7-2.9v-5.6h1.8ZM102.5,148c0,1-.4,1.8-1.2,2.4-.8.5-1.8.8-3.1.8s-1.4,0-1.9-.2c-.5-.1-1-.3-1.4-.5v-1.6c.4.2.9.4,1.5.6.6.2,1.2.3,1.9.3.9,0,1.5-.1,1.9-.4.4-.3.6-.7.6-1.2s0-.5-.2-.7c-.1-.2-.4-.4-.8-.6-.4-.2-.9-.5-1.6-.7-.7-.3-1.3-.5-1.8-.8-.5-.3-.9-.6-1.1-1-.3-.4-.4-.9-.4-1.4,0-.9.4-1.6,1.1-2.1.7-.5,1.7-.7,2.9-.7s1.3,0,1.8.2c.6.1,1.1.3,1.6.5l-.6,1.4c-.5-.2-.9-.3-1.4-.5-.5-.1-1-.2-1.5-.2s-1.3.1-1.7.4c-.4.2-.6.5-.6.9s0,.5.3.8c.2.2.5.4.9.6.4.2,1,.4,1.6.7.7.3,1.3.5,1.7.8s.8.6,1.1,1c.3.4.4.8.4,1.4ZM106,136.3c.3,0,.5,0,.7.3.2.2.3.5.3.8s-.1.7-.3.8c-.2.2-.4.3-.7.3s-.5,0-.7-.3c-.2-.2-.3-.5-.3-.8s0-.7.3-.8c.2-.2.4-.3.7-.3ZM106.9,140.3v10.7h-1.8v-10.7h1.8ZM114.4,140.1c.9,0,1.7.2,2.4.6.7.4,1.2,1,1.5,1.7.4.7.5,1.6.5,2.5v1.1h-7.3c0,1.2.3,2.1.9,2.8.6.6,1.4.9,2.5.9s1.3,0,1.8-.2c.5-.1,1.1-.3,1.6-.6v1.5c-.5.2-1.1.4-1.6.5-.5.1-1.2.2-1.9.2s-1.9-.2-2.7-.6c-.8-.4-1.4-1-1.8-1.8-.4-.8-.6-1.8-.6-3s.2-2.2.6-3c.4-.8,1-1.5,1.7-1.9.7-.5,1.6-.7,2.5-.7ZM114.4,141.5c-.8,0-1.5.3-2,.8-.5.5-.8,1.3-.9,2.2h5.5c0-.9-.2-1.6-.6-2.2-.4-.6-1.1-.9-2-.9ZM130.5,140.3v10.7h-1.4l-.3-1.4h0c-.3.6-.8,1-1.4,1.2-.6.3-1.3.4-2,.4-1.3,0-2.3-.3-2.9-.9-.7-.6-1-1.6-1-3v-7h1.8v6.9c0,1.7.8,2.6,2.4,2.6s2-.3,2.5-1c.5-.7.7-1.6.7-2.9v-5.6h1.8ZM138.9,140.1c.2,0,.4,0,.6,0,.2,0,.4,0,.6,0l-.2,1.6c-.2,0-.4,0-.6-.1-.2,0-.4,0-.6,0-.5,0-1.1.2-1.5.5-.5.3-.9.7-1.2,1.3-.3.5-.4,1.2-.4,1.9v5.7h-1.8v-10.7h1.4l.2,2h0c.3-.6.8-1.1,1.3-1.5s1.2-.6,1.9-.6ZM149.1,148c0,1-.4,1.8-1.2,2.4-.8.5-1.8.8-3.1.8s-1.4,0-1.9-.2c-.5-.1-1-.3-1.4-.5v-1.6c.4.2.9.4,1.5.6.6.2,1.2.3,1.9.3.9,0,1.5-.1,1.9-.4.4-.3.6-.7.6-1.2s0-.5-.2-.7c-.1-.2-.4-.4-.8-.6-.4-.2-.9-.5-1.6-.7-.7-.3-1.3-.5-1.8-.8-.5-.3-.9-.6-1.1-1s-.4-.9-.4-1.4c0-.9.4-1.6,1.1-2.1.7-.5,1.7-.7,2.9-.7s1.3,0,1.8.2c.6.1,1.1.3,1.6.5l-.6,1.4c-.5-.2-.9-.3-1.4-.5s-1-.2-1.5-.2-1.3.1-1.7.4c-.4.2-.6.5-.6.9s0,.5.3.8c.2.2.5.4.9.6.4.2,1,.4,1.6.7.7.3,1.3.5,1.7.8.5.3.8.6,1.1,1,.3.4.4.8.4,1.4ZM158.7,151h-1.8v-15.2h1.8v15.2ZM163,136.3c.3,0,.5,0,.7.3.2.2.3.5.3.8s-.1.7-.3.8c-.2.2-.4.3-.7.3s-.5,0-.7-.3c-.2-.2-.3-.5-.3-.8s0-.7.3-.8c.2-.2.4-.3.7-.3ZM163.8,140.3v10.7h-1.8v-10.7h1.8ZM171,140.1c.7,0,1.3.1,1.9.4.6.3,1.1.7,1.5,1.2h.1l.2-1.4h1.4v10.9c0,1.5-.4,2.7-1.2,3.5-.8.8-2,1.2-3.6,1.2s-2.9-.2-3.9-.7v-1.6c1.1.6,2.4.8,4,.8s1.6-.3,2.2-.8c.5-.5.8-1.3.8-2.2v-.4c0-.2,0-.4,0-.7,0-.3,0-.5,0-.6h0c-.7,1.1-1.8,1.6-3.3,1.6s-2.5-.5-3.3-1.5c-.8-1-1.2-2.3-1.2-4.1s.4-3.1,1.2-4.1c.8-1,1.9-1.5,3.2-1.5ZM171.3,141.6c-.9,0-1.6.4-2.1,1.1-.5.7-.7,1.7-.7,3s.2,2.3.7,3c.5.7,1.2,1,2.1,1s1.9-.3,2.4-.9c.5-.6.7-1.5.7-2.8v-.4c0-1.5-.3-2.5-.8-3.1-.5-.6-1.3-1-2.4-1ZM184.7,140.1c1.3,0,2.2.3,2.9.9.7.6,1,1.6,1,3v7h-1.7v-6.9c0-1.7-.8-2.6-2.4-2.6s-2,.3-2.5,1c-.5.7-.7,1.6-.7,2.9v5.6h-1.8v-10.7h1.4l.3,1.5h.1c.3-.6.8-1,1.4-1.2.6-.3,1.3-.4,1.9-.4ZM196.1,140.1c.9,0,1.7.2,2.4.6.7.4,1.2,1,1.5,1.7.4.7.5,1.6.5,2.5v1.1h-7.3c0,1.2.3,2.1.9,2.8.6.6,1.4.9,2.5.9s1.3,0,1.8-.2c.5-.1,1.1-.3,1.6-.6v1.5c-.5.2-1.1.4-1.6.5-.5.1-1.2.2-1.9.2s-1.9-.2-2.7-.6c-.8-.4-1.4-1-1.8-1.8-.4-.8-.6-1.8-.6-3s.2-2.2.6-3c.4-.8,1-1.5,1.7-1.9.7-.5,1.6-.7,2.5-.7ZM196,141.5c-.8,0-1.5.3-2,.8-.5.5-.8,1.3-.9,2.2h5.5c0-.9-.2-1.6-.6-2.2-.4-.6-1.1-.9-2-.9ZM210.2,148c0,1-.4,1.8-1.2,2.4-.8.5-1.8.8-3.1.8s-1.4,0-1.9-.2c-.5-.1-1-.3-1.4-.5v-1.6c.4.2.9.4,1.5.6.6.2,1.2.3,1.9.3.9,0,1.5-.1,1.9-.4.4-.3.6-.7.6-1.2s0-.5-.2-.7c-.1-.2-.4-.4-.8-.6-.4-.2-.9-.5-1.6-.7-.7-.3-1.3-.5-1.8-.8-.5-.3-.9-.6-1.1-1s-.4-.9-.4-1.4c0-.9.4-1.6,1.1-2.1.7-.5,1.7-.7,2.9-.7s1.3,0,1.8.2c.6.1,1.1.3,1.6.5l-.6,1.4c-.5-.2-.9-.3-1.4-.5s-1-.2-1.5-.2-1.3.1-1.7.4c-.4.2-.6.5-.6.9s0,.5.3.8c.2.2.5.4.9.6.4.2,1,.4,1.6.7.7.3,1.3.5,1.7.8s.8.6,1.1,1c.3.4.4.8.4,1.4ZM227.3,145.6c0,1.8-.5,3.1-1.4,4.1-.9,1-2.1,1.5-3.6,1.5s-1.8-.2-2.5-.6c-.7-.4-1.3-1.1-1.7-1.9-.4-.8-.6-1.9-.6-3,0-1.8.4-3.1,1.3-4.1.9-1,2.1-1.4,3.6-1.4s1.8.2,2.6.7c.7.4,1.3,1.1,1.7,1.9.4.8.6,1.8.6,3ZM219.2,145.6c0,1.3.2,2.3.7,3,.5.7,1.3,1.1,2.4,1.1s1.9-.4,2.4-1.1c.5-.7.8-1.8.8-3s-.3-2.3-.8-3c-.5-.7-1.3-1.1-2.4-1.1s-1.9.4-2.4,1.1c-.5.7-.7,1.7-.7,3ZM239,140.3v10.7h-1.4l-.3-1.4h0c-.3.6-.8,1-1.4,1.2-.6.3-1.3.4-2,.4-1.3,0-2.3-.3-2.9-.9-.7-.6-1-1.6-1-3v-7h1.8v6.9c0,1.7.8,2.6,2.4,2.6s2-.3,2.5-1c.5-.7.7-1.6.7-2.9v-5.6h1.8ZM252.7,140.1c1.3,0,2.4.5,3.2,1.4.8.9,1.2,2.3,1.2,4.2s-.4,3.2-1.2,4.2c-.8.9-1.9,1.4-3.2,1.4s-1.5-.2-2.1-.5c-.5-.3-1-.7-1.3-1.1h-.1c0,.2,0,.5,0,.9,0,.3,0,.6,0,.9v4.4h-1.8v-15.5h1.4l.2,1.5h0c.3-.5.7-.9,1.3-1.2.5-.3,1.2-.5,2.1-.5ZM252.4,141.6c-1.1,0-1.9.3-2.3.9-.4.6-.7,1.5-.7,2.8v.3c0,1.3.2,2.3.6,3.1.4.7,1.2,1.1,2.4,1.1s1.2-.2,1.6-.5c.4-.4.7-.8.9-1.5.2-.6.3-1.3.3-2.1,0-1.2-.2-2.2-.7-2.9-.5-.7-1.2-1.1-2.2-1.1ZM264,140.1c1.3,0,2.3.3,2.9.9.6.6.9,1.5.9,2.7v7.3h-1.3l-.3-1.5h0c-.5.6-1,1-1.5,1.3-.5.3-1.2.4-2.1.4s-1.8-.3-2.4-.8c-.6-.5-1-1.3-1-2.4s.4-1.9,1.3-2.5c.8-.6,2.1-.9,3.9-1h1.8v-.7c0-.9-.2-1.5-.6-1.9-.4-.3-.9-.5-1.6-.5s-1.1,0-1.6.3c-.5.2-1,.3-1.4.6l-.5-1.3c.5-.3,1-.5,1.7-.6.6-.2,1.3-.3,2-.3ZM264.5,145.8c-1.3,0-2.3.3-2.8.6-.5.4-.8.9-.8,1.6s.2,1,.5,1.3c.4.3.8.4,1.4.4.9,0,1.7-.2,2.3-.7.6-.5.9-1.3.9-2.3v-1h-1.6ZM276.1,140.1c.2,0,.4,0,.6,0,.2,0,.4,0,.6,0l-.2,1.6c-.2,0-.4,0-.6-.1-.2,0-.4,0-.6,0-.5,0-1.1.2-1.5.5-.5.3-.9.7-1.2,1.3-.3.5-.4,1.2-.4,1.9v5.7h-1.8v-10.7h1.4l.2,2h0c.3-.6.8-1.1,1.3-1.5.5-.4,1.2-.6,1.9-.6ZM283.1,140.1c1.3,0,2.3.3,2.9.9.6.6.9,1.5.9,2.7v7.3h-1.3l-.3-1.5h0c-.5.6-1,1-1.5,1.3-.5.3-1.2.4-2.1.4s-1.8-.3-2.4-.8c-.6-.5-1-1.3-1-2.4s.4-1.9,1.3-2.5c.8-.6,2.1-.9,3.9-1h1.8v-.7c0-.9-.2-1.5-.6-1.9-.4-.3-.9-.5-1.6-.5s-1.1,0-1.6.3c-.5.2-1,.3-1.4.6l-.5-1.3c.5-.3,1-.5,1.7-.6.6-.2,1.3-.3,2-.3ZM283.6,145.8c-1.3,0-2.3.3-2.8.6-.5.4-.8.9-.8,1.6s.2,1,.5,1.3c.4.3.8.4,1.4.4.9,0,1.7-.2,2.3-.7.6-.5.9-1.3.9-2.3v-1h-1.6ZM294,140.1c.7,0,1.3.1,1.9.4.6.3,1.1.7,1.5,1.2h.1l.2-1.4h1.4v10.9c0,1.5-.4,2.7-1.2,3.5-.8.8-2,1.2-3.6,1.2s-2.9-.2-3.9-.7v-1.6c1.1.6,2.4.8,4,.8s1.6-.3,2.2-.8c.5-.5.8-1.3.8-2.2v-.4c0-.2,0-.4,0-.7,0-.3,0-.5,0-.6h0c-.7,1.1-1.8,1.6-3.3,1.6s-2.5-.5-3.3-1.5c-.8-1-1.2-2.3-1.2-4.1s.4-3.1,1.2-4.1c.8-1,1.9-1.5,3.2-1.5ZM294.3,141.6c-.9,0-1.6.4-2.1,1.1-.5.7-.7,1.7-.7,3s.2,2.3.7,3c.5.7,1.2,1,2.1,1s1.9-.3,2.4-.9c.5-.6.7-1.5.7-2.8v-.4c0-1.5-.3-2.5-.8-3.1-.5-.6-1.3-1-2.4-1ZM307.5,140.1c.2,0,.4,0,.6,0,.2,0,.4,0,.6,0l-.2,1.6c-.2,0-.4,0-.6-.1-.2,0-.4,0-.6,0-.5,0-1.1.2-1.5.5-.5.3-.9.7-1.2,1.3-.3.5-.4,1.2-.4,1.9v5.7h-1.8v-10.7h1.4l.2,2h0c.3-.6.8-1.1,1.3-1.5s1.2-.6,1.9-.6ZM314.5,140.1c1.3,0,2.3.3,2.9.9.6.6.9,1.5.9,2.7v7.3h-1.3l-.3-1.5h0c-.5.6-1,1-1.5,1.3-.5.3-1.2.4-2.1.4s-1.8-.3-2.4-.8c-.6-.5-1-1.3-1-2.4s.4-1.9,1.3-2.5c.8-.6,2.1-.9,3.9-1h1.8v-.7c0-.9-.2-1.5-.6-1.9-.4-.3-.9-.5-1.6-.5s-1.1,0-1.6.3c-.5.2-1,.3-1.4.6l-.5-1.3c.5-.3,1-.5,1.7-.6.6-.2,1.3-.3,2-.3ZM315,145.8c-1.3,0-2.3.3-2.8.6-.5.4-.8.9-.8,1.6s.2,1,.5,1.3c.4.3.8.4,1.4.4.9,0,1.7-.2,2.3-.7.6-.5.9-1.3.9-2.3v-1h-1.6ZM326.7,140.1c1.3,0,2.4.5,3.2,1.4.8.9,1.2,2.3,1.2,4.2s-.4,3.2-1.2,4.2c-.8.9-1.9,1.4-3.2,1.4s-1.5-.2-2.1-.5c-.5-.3-1-.7-1.3-1.1h-.1c0,.2,0,.5,0,.9,0,.3,0,.6,0,.9v4.4h-1.8v-15.5h1.4l.2,1.5h0c.3-.5.7-.9,1.3-1.2.5-.3,1.2-.5,2.1-.5ZM326.4,141.6c-1.1,0-1.9.3-2.3.9-.4.6-.7,1.5-.7,2.8v.3c0,1.3.2,2.3.6,3.1.4.7,1.2,1.1,2.4,1.1s1.2-.2,1.6-.5c.4-.4.7-.8.9-1.5.2-.6.3-1.3.3-2.1,0-1.2-.2-2.2-.7-2.9-.5-.7-1.2-1.1-2.2-1.1ZM335.7,140.3c0,.5,0,1-.1,1.5h.1c.3-.5.8-1,1.4-1.2.6-.3,1.2-.4,1.9-.4,1.3,0,2.3.3,2.9.9.7.6,1,1.6,1,3v7h-1.7v-6.9c0-1.7-.8-2.6-2.4-2.6s-2,.3-2.5,1c-.4.7-.7,1.6-.7,2.9v5.5h-1.8v-15.2h1.8v4.5ZM350.4,140.1c.9,0,1.7.2,2.4.6.7.4,1.2,1,1.5,1.7.4.7.5,1.6.5,2.5v1.1h-7.3c0,1.2.3,2.1.9,2.8.6.6,1.4.9,2.5.9s1.3,0,1.8-.2c.5-.1,1.1-.3,1.6-.6v1.5c-.5.2-1.1.4-1.6.5-.5.1-1.2.2-1.9.2s-1.9-.2-2.7-.6c-.8-.4-1.4-1-1.8-1.8-.4-.8-.6-1.8-.6-3s.2-2.2.6-3c.4-.8,1-1.5,1.7-1.9.7-.5,1.6-.7,2.5-.7ZM350.4,141.5c-.8,0-1.5.3-2,.8-.5.5-.8,1.3-.9,2.2h5.5c0-.9-.2-1.6-.6-2.2-.4-.6-1.1-.9-2-.9ZM364.6,148c0,1-.4,1.8-1.2,2.4-.8.5-1.8.8-3.1.8s-1.4,0-1.9-.2c-.5-.1-1-.3-1.4-.5v-1.6c.4.2.9.4,1.5.6.6.2,1.2.3,1.9.3.9,0,1.5-.1,1.9-.4.4-.3.6-.7.6-1.2s0-.5-.2-.7-.4-.4-.8-.6c-.4-.2-.9-.5-1.6-.7-.7-.3-1.3-.5-1.8-.8-.5-.3-.9-.6-1.1-1s-.4-.9-.4-1.4c0-.9.4-1.6,1.1-2.1.7-.5,1.7-.7,2.9-.7s1.3,0,1.8.2c.6.1,1.1.3,1.6.5l-.6,1.4c-.5-.2-.9-.3-1.4-.5s-1-.2-1.5-.2-1.3.1-1.7.4c-.4.2-.6.5-.6.9s0,.5.3.8c.2.2.5.4.9.6.4.2,1,.4,1.6.7.7.3,1.3.5,1.7.8.5.3.8.6,1.1,1,.3.4.4.8.4,1.4ZM376.1,151.2c-1.3,0-2.4-.5-3.2-1.4-.8-.9-1.2-2.3-1.2-4.2s.4-3.2,1.2-4.2c.8-.9,1.9-1.4,3.2-1.4s1.5.2,2,.5c.5.3,1,.7,1.3,1.1h.1c0-.2,0-.4,0-.8,0-.3,0-.6,0-.8v-4.3h1.8v15.2h-1.4l-.3-1.4h0c-.3.5-.7.8-1.3,1.2-.5.3-1.2.5-2.1.5ZM376.4,149.7c1.1,0,1.9-.3,2.4-.9.5-.6.7-1.6.7-2.8v-.3c0-1.3-.2-2.4-.7-3.1-.4-.7-1.3-1.1-2.4-1.1s-1.7.4-2.1,1.1c-.5.7-.7,1.8-.7,3s.2,2.3.7,3c.5.7,1.2,1.1,2.2,1.1ZM388.8,140.1c.9,0,1.7.2,2.4.6.7.4,1.2,1,1.5,1.7.4.7.5,1.6.5,2.5v1.1h-7.3c0,1.2.3,2.1.9,2.8.6.6,1.4.9,2.5.9s1.3,0,1.8-.2c.5-.1,1.1-.3,1.6-.6v1.5c-.5.2-1.1.4-1.6.5-.5.1-1.2.2-1.9.2s-1.9-.2-2.7-.6c-.8-.4-1.4-1-1.8-1.8-.4-.8-.6-1.8-.6-3s.2-2.2.6-3c.4-.8,1-1.5,1.7-1.9.7-.5,1.6-.7,2.5-.7ZM388.8,141.5c-.8,0-1.5.3-2,.8-.5.5-.8,1.3-.9,2.2h5.5c0-.9-.2-1.6-.6-2.2-.4-.6-1.1-.9-2-.9ZM405.4,151.2c-.9,0-1.8-.2-2.5-.6-.7-.4-1.3-1-1.7-1.8-.4-.8-.6-1.9-.6-3.1s.2-2.4.7-3.2c.4-.8,1-1.4,1.8-1.8.8-.4,1.6-.6,2.6-.6s1.1,0,1.6.2c.5.1.9.2,1.2.4l-.5,1.5c-.3-.1-.7-.2-1.1-.3-.4-.1-.8-.2-1.2-.2-2.1,0-3.2,1.4-3.2,4.1s.3,2.3.8,3c.5.7,1.3,1,2.3,1s1.1,0,1.5-.2c.5-.1.9-.3,1.2-.4v1.6c-.4.2-.8.3-1.2.4-.4.1-.9.2-1.6.2ZM420.1,145.6c0,1.8-.5,3.1-1.4,4.1-.9,1-2.1,1.5-3.6,1.5s-1.8-.2-2.5-.6c-.7-.4-1.3-1.1-1.7-1.9-.4-.8-.6-1.9-.6-3,0-1.8.4-3.1,1.3-4.1.9-1,2.1-1.4,3.6-1.4s1.8.2,2.6.7c.7.4,1.3,1.1,1.7,1.9.4.8.6,1.8.6,3ZM412,145.6c0,1.3.2,2.3.7,3,.5.7,1.3,1.1,2.4,1.1s1.9-.4,2.4-1.1c.5-.7.8-1.8.8-3s-.3-2.3-.8-3c-.5-.7-1.3-1.1-2.4-1.1s-1.9.4-2.4,1.1c-.5.7-.7,1.7-.7,3ZM428,140.1c1.3,0,2.2.3,2.9.9.7.6,1,1.6,1,3v7h-1.7v-6.9c0-1.7-.8-2.6-2.4-2.6s-2,.3-2.5,1c-.5.7-.7,1.6-.7,2.9v5.6h-1.8v-10.7h1.4l.3,1.5h0c.3-.6.8-1,1.4-1.2.6-.3,1.3-.4,1.9-.4ZM438.8,149.8c.3,0,.5,0,.8,0,.3,0,.5-.1.7-.2v1.3c-.2,0-.5.2-.8.2-.3,0-.7,0-1,0-.6,0-1.1,0-1.6-.3-.5-.2-.8-.5-1.1-1-.3-.5-.4-1.2-.4-2v-6.2h-1.5v-.8l1.5-.7.7-2.3h1v2.5h3.1v1.4h-3.1v6.2c0,.7.2,1.1.5,1.5.3.3.7.5,1.2.5ZM446.6,140.1c.9,0,1.7.2,2.4.6.7.4,1.2,1,1.5,1.7.4.7.5,1.6.5,2.5v1.1h-7.3c0,1.2.3,2.1.9,2.8.6.6,1.4.9,2.5.9s1.3,0,1.8-.2c.5-.1,1.1-.3,1.6-.6v1.5c-.5.2-1.1.4-1.6.5-.5.1-1.2.2-1.9.2s-1.9-.2-2.7-.6c-.8-.4-1.4-1-1.8-1.8-.4-.8-.6-1.8-.6-3s.2-2.2.6-3c.4-.8,1-1.5,1.7-1.9.7-.5,1.6-.7,2.5-.7ZM446.6,141.5c-.8,0-1.5.3-2,.8-.5.5-.8,1.3-.9,2.2h5.5c0-.9-.2-1.6-.6-2.2-.4-.6-1.1-.9-2-.9ZM458.9,140.1c1.3,0,2.2.3,2.9.9.7.6,1,1.6,1,3v7h-1.7v-6.9c0-1.7-.8-2.6-2.4-2.6s-2,.3-2.5,1c-.5.7-.7,1.6-.7,2.9v5.6h-1.8v-10.7h1.4l.3,1.5h0c.3-.6.8-1,1.4-1.2.6-.3,1.3-.4,1.9-.4ZM475.1,140.3v10.7h-1.4l-.3-1.4h0c-.3.6-.8,1-1.4,1.2-.6.3-1.3.4-2,.4-1.3,0-2.3-.3-2.9-.9-.7-.6-1-1.6-1-3v-7h1.8v6.9c0,1.7.8,2.6,2.4,2.6s2-.3,2.5-1c.5-.7.7-1.6.7-2.9v-5.6h1.8ZM488.7,140.1c1.3,0,2.4.5,3.2,1.4.8.9,1.2,2.3,1.2,4.2s-.4,3.2-1.2,4.2c-.8.9-1.9,1.4-3.2,1.4s-1.5-.2-2.1-.5c-.5-.3-1-.7-1.3-1.1h-.1c0,.2,0,.5,0,.9,0,.3,0,.6,0,.9v4.4h-1.8v-15.5h1.4l.2,1.5h0c.3-.5.7-.9,1.3-1.2.5-.3,1.2-.5,2.1-.5ZM488.4,141.6c-1.1,0-1.9.3-2.3.9-.4.6-.7,1.5-.7,2.8v.3c0,1.3.2,2.3.6,3.1.4.7,1.2,1.1,2.4,1.1s1.2-.2,1.6-.5c.4-.4.7-.8.9-1.5.2-.6.3-1.3.3-2.1,0-1.2-.2-2.2-.7-2.9-.5-.7-1.2-1.1-2.2-1.1ZM505.3,145.6c0,1.8-.5,3.1-1.4,4.1-.9,1-2.1,1.5-3.6,1.5s-1.8-.2-2.5-.6c-.7-.4-1.3-1.1-1.7-1.9-.4-.8-.6-1.9-.6-3,0-1.8.4-3.1,1.3-4.1.9-1,2.1-1.4,3.6-1.4s1.8.2,2.6.7c.7.4,1.3,1.1,1.7,1.9.4.8.6,1.8.6,3ZM497.2,145.6c0,1.3.2,2.3.7,3,.5.7,1.3,1.1,2.4,1.1s1.9-.4,2.4-1.1c.5-.7.8-1.8.8-3s-.3-2.3-.8-3-1.3-1.1-2.4-1.1-1.9.4-2.4,1.1-.7,1.7-.7,3ZM517,140.3v10.7h-1.4l-.3-1.4h0c-.3.6-.8,1-1.4,1.2-.6.3-1.3.4-2,.4-1.3,0-2.3-.3-2.9-.9-.7-.6-1-1.6-1-3v-7h1.8v6.9c0,1.7.8,2.6,2.4,2.6s2-.3,2.5-1c.5-.7.7-1.6.7-2.9v-5.6h1.8ZM525.4,140.1c.2,0,.4,0,.6,0,.2,0,.4,0,.6,0l-.2,1.6c-.2,0-.4,0-.6-.1-.2,0-.4,0-.6,0-.5,0-1.1.2-1.5.5-.5.3-.9.7-1.2,1.3-.3.5-.4,1.2-.4,1.9v5.7h-1.8v-10.7h1.4l.2,2h0c.3-.6.8-1.1,1.3-1.5.5-.4,1.2-.6,1.9-.6ZM535.6,151h-1.8v-15.2h1.8v15.2ZM543.1,140.1c1.3,0,2.3.3,2.9.9.6.6.9,1.5.9,2.7v7.3h-1.3l-.3-1.5h0c-.5.6-1,1-1.5,1.3-.5.3-1.2.4-2.1.4s-1.8-.3-2.4-.8c-.6-.5-1-1.3-1-2.4s.4-1.9,1.3-2.5c.8-.6,2.1-.9,3.9-1h1.8v-.7c0-.9-.2-1.5-.6-1.9-.4-.3-.9-.5-1.6-.5s-1.1,0-1.6.3c-.5.2-1,.3-1.4.6l-.5-1.3c.5-.3,1-.5,1.7-.6.6-.2,1.3-.3,2-.3ZM543.6,145.8c-1.3,0-2.3.3-2.8.6-.5.4-.8.9-.8,1.6s.2,1,.5,1.3c.4.3.8.4,1.4.4.9,0,1.7-.2,2.3-.7.6-.5.9-1.3.9-2.3v-1h-1.6ZM562.4,148c0,1-.4,1.8-1.2,2.4-.8.5-1.8.8-3.1.8s-1.4,0-1.9-.2c-.5-.1-1-.3-1.4-.5v-1.6c.4.2.9.4,1.5.6.6.2,1.2.3,1.9.3.9,0,1.5-.1,1.9-.4.4-.3.6-.7.6-1.2s0-.5-.2-.7c-.1-.2-.4-.4-.8-.6-.4-.2-.9-.5-1.6-.7-.7-.3-1.3-.5-1.8-.8-.5-.3-.9-.6-1.1-1-.3-.4-.4-.9-.4-1.4,0-.9.4-1.6,1.1-2.1.7-.5,1.7-.7,2.9-.7s1.3,0,1.8.2c.6.1,1.1.3,1.6.5l-.6,1.4c-.5-.2-.9-.3-1.4-.5-.5-.1-1-.2-1.5-.2s-1.3.1-1.7.4c-.4.2-.6.5-.6.9s0,.5.3.8c.2.2.5.4.9.6.4.2,1,.4,1.6.7.7.3,1.3.5,1.7.8.5.3.8.6,1.1,1,.3.4.4.8.4,1.4ZM569.2,140.1c.9,0,1.7.2,2.4.6.7.4,1.2,1,1.5,1.7.4.7.5,1.6.5,2.5v1.1h-7.3c0,1.2.3,2.1.9,2.8.6.6,1.4.9,2.5.9s1.3,0,1.8-.2c.5-.1,1.1-.3,1.6-.6v1.5c-.5.2-1.1.4-1.6.5-.5.1-1.2.2-1.9.2s-1.9-.2-2.7-.6c-.8-.4-1.4-1-1.8-1.8-.4-.8-.6-1.8-.6-3s.2-2.2.6-3c.4-.8,1-1.5,1.7-1.9.7-.5,1.6-.7,2.5-.7ZM569.1,141.5c-.8,0-1.5.3-2,.8-.5.5-.8,1.3-.9,2.2h5.5c0-.9-.2-1.6-.6-2.2-.4-.6-1.1-.9-2-.9ZM580.6,151.2c-.9,0-1.8-.2-2.5-.6-.7-.4-1.3-1-1.7-1.8-.4-.8-.6-1.9-.6-3.1s.2-2.4.7-3.2c.4-.8,1-1.4,1.8-1.8.8-.4,1.6-.6,2.6-.6s1.1,0,1.6.2c.5.1.9.2,1.2.4l-.5,1.5c-.3-.1-.7-.2-1.1-.3-.4-.1-.8-.2-1.2-.2-2.1,0-3.2,1.4-3.2,4.1s.3,2.3.8,3c.5.7,1.3,1,2.3,1s1.1,0,1.5-.2c.5-.1.9-.3,1.2-.4v1.6c-.4.2-.8.3-1.2.4-.4.1-.9.2-1.6.2ZM589.5,149.8c.3,0,.5,0,.8,0,.3,0,.5-.1.7-.2v1.3c-.2,0-.5.2-.8.2-.3,0-.7,0-1,0-.6,0-1.1,0-1.6-.3-.5-.2-.8-.5-1.1-1-.3-.5-.4-1.2-.4-2v-6.2h-1.5v-.8l1.5-.7.7-2.3h1v2.5h3.1v1.4h-3.1v6.2c0,.7.2,1.1.5,1.5.3.3.7.5,1.2.5ZM594,136.3c.3,0,.5,0,.7.3.2.2.3.5.3.8s-.1.7-.3.8c-.2.2-.4.3-.7.3s-.5,0-.7-.3c-.2-.2-.3-.5-.3-.8s.1-.7.3-.8c.2-.2.4-.3.7-.3ZM594.9,140.3v10.7h-1.8v-10.7h1.8ZM607.6,145.6c0,1.8-.5,3.1-1.4,4.1-.9,1-2.1,1.5-3.6,1.5s-1.8-.2-2.5-.6c-.7-.4-1.3-1.1-1.7-1.9-.4-.8-.6-1.9-.6-3,0-1.8.4-3.1,1.3-4.1.9-1,2.1-1.4,3.6-1.4s1.8.2,2.6.7c.7.4,1.3,1.1,1.7,1.9.4.8.6,1.8.6,3ZM599.5,145.6c0,1.3.2,2.3.7,3,.5.7,1.3,1.1,2.4,1.1s1.9-.4,2.4-1.1c.5-.7.8-1.8.8-3s-.3-2.3-.8-3c-.5-.7-1.3-1.1-2.4-1.1s-1.9.4-2.4,1.1c-.5.7-.7,1.7-.7,3ZM615.6,140.1c1.3,0,2.2.3,2.9.9.7.6,1,1.6,1,3v7h-1.7v-6.9c0-1.7-.8-2.6-2.4-2.6s-2,.3-2.5,1c-.5.7-.7,1.6-.7,2.9v5.6h-1.8v-10.7h1.4l.3,1.5h.1c.3-.6.8-1,1.4-1.2.6-.3,1.3-.4,1.9-.4ZM622.5,149.9c0-.5.1-.8.4-1,.2-.2.5-.3.9-.3s.6,0,.9.3c.3.2.4.5.4,1s-.1.8-.4,1c-.2.2-.5.3-.9.3s-.6-.1-.9-.3c-.2-.2-.4-.6-.4-1ZM646,143.8c0,1.5-.3,2.8-.8,3.9-.5,1.1-1.2,1.9-2.2,2.6-1,.6-2.2.9-3.6.9s-2.7-.3-3.7-.9c-1-.6-1.7-1.5-2.2-2.6-.5-1.1-.7-2.4-.7-3.9s.2-2.7.7-3.8,1.2-1.9,2.2-2.6c1-.6,2.2-.9,3.7-.9s2.6.3,3.6.9c1,.6,1.7,1.5,2.2,2.6.5,1.1.8,2.4.8,3.9ZM634.7,143.8c0,1.8.4,3.2,1.1,4.3.8,1,1.9,1.5,3.6,1.5s2.8-.5,3.6-1.5c.7-1,1.1-2.5,1.1-4.3s-.4-3.2-1.1-4.2c-.7-1-1.9-1.5-3.5-1.5s-2.8.5-3.6,1.5c-.8,1-1.1,2.4-1.1,4.2ZM654.1,140.1c1.3,0,2.2.3,2.9.9.7.6,1,1.6,1,3v7h-1.7v-6.9c0-1.7-.8-2.6-2.4-2.6s-2,.3-2.5,1c-.5.7-.7,1.6-.7,2.9v5.6h-1.8v-10.7h1.4l.3,1.5h0c.3-.6.8-1,1.4-1.2.6-.3,1.3-.4,1.9-.4ZM671.6,140.1c1.3,0,2.4.5,3.2,1.4.8.9,1.2,2.3,1.2,4.2s-.4,3.2-1.2,4.2c-.8.9-1.9,1.4-3.2,1.4s-1.5-.2-2.1-.5c-.5-.3-1-.7-1.3-1.1h-.1c0,.2,0,.5,0,.9,0,.3,0,.6,0,.9v4.4h-1.8v-15.5h1.4l.2,1.5h0c.3-.5.7-.9,1.3-1.2.5-.3,1.2-.5,2.1-.5ZM671.3,141.6c-1.1,0-1.9.3-2.3.9-.4.6-.7,1.5-.7,2.8v.3c0,1.3.2,2.3.6,3.1.4.7,1.2,1.1,2.4,1.1s1.2-.2,1.6-.5c.4-.4.7-.8.9-1.5.2-.6.3-1.3.3-2.1,0-1.2-.2-2.2-.7-2.9-.5-.7-1.2-1.1-2.2-1.1ZM682.9,140.1c.9,0,1.7.2,2.4.6.7.4,1.2,1,1.5,1.7.4.7.5,1.6.5,2.5v1.1h-7.3c0,1.2.3,2.1.9,2.8.6.6,1.4.9,2.5.9s1.3,0,1.8-.2c.5-.1,1.1-.3,1.6-.6v1.5c-.5.2-1.1.4-1.6.5-.5.1-1.2.2-1.9.2s-1.9-.2-2.7-.6c-.8-.4-1.4-1-1.8-1.8-.4-.8-.6-1.8-.6-3s.2-2.2.6-3c.4-.8,1-1.5,1.7-1.9.7-.5,1.6-.7,2.5-.7ZM682.9,141.5c-.8,0-1.5.3-2,.8-.5.5-.8,1.3-.9,2.2h5.5c0-.9-.2-1.6-.6-2.2-.4-.6-1.1-.9-2-.9ZM699.1,140.3v10.7h-1.4l-.3-1.4h0c-.3.6-.8,1-1.4,1.2-.6.3-1.3.4-2,.4-1.3,0-2.3-.3-2.9-.9-.7-.6-1-1.6-1-3v-7h1.8v6.9c0,1.7.8,2.6,2.4,2.6s2-.3,2.5-1c.5-.7.7-1.6.7-2.9v-5.6h1.8ZM706,149.8c.3,0,.5,0,.8,0,.3,0,.5-.1.7-.2v1.3c-.2,0-.5.2-.8.2-.3,0-.7,0-1,0-.6,0-1.1,0-1.6-.3-.5-.2-.8-.5-1.1-1-.3-.5-.4-1.2-.4-2v-6.2h-1.5v-.8l1.5-.7.7-2.3h1v2.5h3.1v1.4h-3.1v6.2c0,.7.2,1.1.5,1.5.3.3.7.5,1.2.5ZM718.9,140.1c1.3,0,2.3.3,2.9.9.6.6.9,1.5.9,2.7v7.3h-1.3l-.3-1.5h0c-.5.6-1,1-1.5,1.3-.5.3-1.2.4-2.1.4s-1.8-.3-2.4-.8c-.6-.5-1-1.3-1-2.4s.4-1.9,1.3-2.5c.8-.6,2.1-.9,3.9-1h1.8v-.7c0-.9-.2-1.5-.6-1.9-.4-.3-.9-.5-1.6-.5s-1.1,0-1.6.3c-.5.2-1,.3-1.4.6l-.5-1.3c.5-.3,1-.5,1.7-.6.6-.2,1.3-.3,2-.3ZM719.5,145.8c-1.3,0-2.3.3-2.8.6-.5.4-.8.9-.8,1.6s.2,1,.5,1.3c.4.3.8.4,1.4.4.9,0,1.7-.2,2.3-.7.6-.5.9-1.3.9-2.3v-1h-1.6ZM735.1,140.3v10.7h-1.4l-.3-1.4h0c-.3.6-.8,1-1.4,1.2-.6.3-1.3.4-2,.4-1.3,0-2.3-.3-2.9-.9-.7-.6-1-1.6-1-3v-7h1.8v6.9c0,1.7.8,2.6,2.4,2.6s2-.3,2.5-1c.5-.7.7-1.6.7-2.9v-5.6h1.8ZM745.4,148c0,1-.4,1.8-1.2,2.4-.8.5-1.8.8-3.1.8s-1.4,0-1.9-.2c-.5-.1-1-.3-1.4-.5v-1.6c.4.2.9.4,1.5.6.6.2,1.2.3,1.9.3.9,0,1.5-.1,1.9-.4.4-.3.6-.7.6-1.2s0-.5-.2-.7c-.1-.2-.4-.4-.8-.6-.4-.2-.9-.5-1.6-.7-.7-.3-1.3-.5-1.8-.8-.5-.3-.9-.6-1.1-1-.3-.4-.4-.9-.4-1.4,0-.9.4-1.6,1.1-2.1.7-.5,1.7-.7,2.9-.7s1.3,0,1.8.2c.6.1,1.1.3,1.6.5l-.6,1.4c-.5-.2-.9-.3-1.4-.5-.5-.1-1-.2-1.5-.2s-1.3.1-1.7.4c-.4.2-.6.5-.6.9s0,.5.3.8c.2.2.5.4.9.6.4.2,1,.4,1.6.7.7.3,1.3.5,1.7.8.5.3.8.6,1.1,1,.3.4.4.8.4,1.4ZM755,148c0,1-.4,1.8-1.2,2.4-.8.5-1.8.8-3.1.8s-1.4,0-1.9-.2c-.5-.1-1-.3-1.4-.5v-1.6c.4.2.9.4,1.5.6.6.2,1.2.3,1.9.3.9,0,1.5-.1,1.9-.4.4-.3.6-.7.6-1.2s0-.5-.2-.7c-.1-.2-.4-.4-.8-.6-.4-.2-.9-.5-1.6-.7-.7-.3-1.3-.5-1.8-.8-.5-.3-.9-.6-1.1-1-.3-.4-.4-.9-.4-1.4,0-.9.4-1.6,1.1-2.1.7-.5,1.7-.7,2.9-.7s1.3,0,1.8.2c.6.1,1.1.3,1.6.5l-.6,1.4c-.5-.2-.9-.3-1.4-.5-.5-.1-1-.2-1.5-.2s-1.3.1-1.7.4c-.4.2-.6.5-.6.9s0,.5.3.8c.2.2.5.4.9.6.4.2,1,.4,1.6.7.7.3,1.3.5,1.7.8.5.3.8.6,1.1,1,.3.4.4.8.4,1.4ZM758.5,136.3c.3,0,.5,0,.7.3.2.2.3.5.3.8s-.1.7-.3.8c-.2.2-.4.3-.7.3s-.5,0-.7-.3-.3-.5-.3-.8,0-.7.3-.8c.2-.2.4-.3.7-.3ZM759.4,140.3v10.7h-1.8v-10.7h1.8ZM72.7,178c0,1-.4,1.8-1.2,2.4-.8.5-1.8.8-3.1.8s-1.4,0-1.9-.2c-.5-.1-1-.3-1.4-.5v-1.6c.4.2.9.4,1.5.6.6.2,1.2.3,1.9.3.9,0,1.5-.1,1.9-.4.4-.3.6-.7.6-1.2s0-.5-.2-.7c-.1-.2-.4-.4-.8-.6-.4-.2-.9-.5-1.6-.7-.7-.3-1.3-.5-1.8-.8-.5-.3-.9-.6-1.1-1-.3-.4-.4-.9-.4-1.4,0-.9.4-1.6,1.1-2.1.7-.5,1.7-.7,2.9-.7s1.3,0,1.8.2c.6.1,1.1.3,1.6.5l-.6,1.4c-.5-.2-.9-.3-1.4-.5-.5-.1-1-.2-1.5-.2s-1.3.1-1.7.4c-.4.2-.6.5-.6.9s0,.5.3.8c.2.2.5.4.9.6.4.2,1,.4,1.6.7.7.3,1.3.5,1.7.8s.8.6,1.1,1c.3.4.4.8.4,1.4ZM76.8,166.9c-.2.7-.4,1.5-.8,2.3-.3.9-.6,1.6-1,2.3h-1.3c.1-.5.3-1,.4-1.6.1-.6.3-1.2.4-1.7.1-.6.2-1.1.3-1.6h1.9v.2ZM81.7,170.1c.9,0,1.7.2,2.4.6.7.4,1.2,1,1.5,1.7.4.7.5,1.6.5,2.5v1.1h-7.3c0,1.2.3,2.1.9,2.8.6.6,1.4.9,2.5.9s1.3,0,1.8-.2c.5-.1,1.1-.3,1.6-.6v1.5c-.5.2-1.1.4-1.6.5-.5.1-1.2.2-1.9.2s-1.9-.2-2.7-.6c-.8-.4-1.4-1-1.8-1.8-.4-.8-.6-1.8-.6-3s.2-2.2.6-3c.4-.8,1-1.5,1.7-1.9.7-.5,1.6-.7,2.5-.7ZM81.7,171.5c-.8,0-1.5.3-2,.8-.5.5-.8,1.3-.9,2.2h5.5c0-.9-.2-1.6-.6-2.2-.4-.6-1.1-.9-2-.9ZM94,170.1c1.3,0,2.2.3,2.9.9.7.6,1,1.6,1,3v7h-1.7v-6.9c0-1.7-.8-2.6-2.4-2.6s-2,.3-2.5,1c-.5.7-.7,1.6-.7,2.9v5.6h-1.8v-10.7h1.4l.3,1.5h0c.3-.6.8-1,1.4-1.2.6-.3,1.3-.4,1.9-.4ZM113.4,178c0,1-.4,1.8-1.2,2.4-.8.5-1.8.8-3.1.8s-1.4,0-1.9-.2c-.5-.1-1-.3-1.4-.5v-1.6c.4.2.9.4,1.5.6.6.2,1.2.3,1.9.3.9,0,1.5-.1,1.9-.4.4-.3.6-.7.6-1.2s0-.5-.2-.7c-.1-.2-.4-.4-.8-.6-.4-.2-.9-.5-1.6-.7-.7-.3-1.3-.5-1.8-.8-.5-.3-.9-.6-1.1-1-.3-.4-.4-.9-.4-1.4,0-.9.4-1.6,1.1-2.1.7-.5,1.7-.7,2.9-.7s1.3,0,1.8.2c.6.1,1.1.3,1.6.5l-.6,1.4c-.5-.2-.9-.3-1.4-.5-.5-.1-1-.2-1.5-.2s-1.3.1-1.7.4c-.4.2-.6.5-.6.9s0,.5.3.8c.2.2.5.4.9.6.4.2,1,.4,1.6.7.7.3,1.3.5,1.7.8.5.3.8.6,1.1,1,.3.4.4.8.4,1.4ZM120.1,170.1c.9,0,1.7.2,2.4.6.7.4,1.2,1,1.5,1.7.4.7.5,1.6.5,2.5v1.1h-7.3c0,1.2.3,2.1.9,2.8.6.6,1.4.9,2.5.9s1.3,0,1.8-.2c.5-.1,1.1-.3,1.6-.6v1.5c-.5.2-1.1.4-1.6.5-.5.1-1.2.2-1.9.2s-1.9-.2-2.7-.6c-.8-.4-1.4-1-1.8-1.8-.4-.8-.6-1.8-.6-3s.2-2.2.6-3c.4-.8,1-1.5,1.7-1.9.7-.5,1.6-.7,2.5-.7ZM120.1,171.5c-.8,0-1.5.3-2,.8-.5.5-.8,1.3-.9,2.2h5.5c0-.9-.2-1.6-.6-2.2-.4-.6-1.1-.9-2-.9ZM132.3,170.1c.2,0,.4,0,.6,0,.2,0,.4,0,.6,0l-.2,1.6c-.2,0-.4,0-.6-.1-.2,0-.4,0-.6,0-.5,0-1.1.2-1.5.5-.5.3-.9.7-1.2,1.3-.3.5-.4,1.2-.4,1.9v5.7h-1.8v-10.7h1.4l.2,2h0c.3-.6.8-1.1,1.3-1.5.5-.4,1.2-.6,1.9-.6ZM137.9,181l-4.1-10.7h1.9l2.3,6.3c.1.3.2.6.3,1,.1.4.2.7.3,1,0,.3.2.6.2.8h0c0-.2.1-.5.2-.8.1-.3.2-.7.3-1,.1-.4.2-.7.3-1l2.3-6.3h1.9l-4.1,10.7h-2ZM146.6,166.3c.3,0,.5,0,.7.3.2.2.3.5.3.8s-.1.7-.3.8c-.2.2-.4.3-.7.3s-.5,0-.7-.3-.3-.5-.3-.8.1-.7.3-.8c.2-.2.4-.3.7-.3ZM147.5,170.3v10.7h-1.8v-10.7h1.8ZM155.9,170.1c.2,0,.4,0,.6,0,.2,0,.4,0,.6,0l-.2,1.6c-.2,0-.4,0-.6-.1-.2,0-.4,0-.6,0-.5,0-1.1.2-1.5.5-.5.3-.9.7-1.2,1.3-.3.5-.4,1.2-.4,1.9v5.7h-1.8v-10.7h1.4l.2,2h0c.3-.6.8-1.1,1.3-1.5.5-.4,1.2-.6,1.9-.6ZM169.4,170.1c1.3,0,2.4.5,3.2,1.4.8.9,1.2,2.3,1.2,4.2s-.4,3.2-1.2,4.2c-.8.9-1.9,1.4-3.2,1.4s-1.5-.2-2.1-.5c-.5-.3-1-.7-1.3-1.1h-.1c0,.2,0,.5,0,.9,0,.3,0,.6,0,.9v4.4h-1.8v-15.5h1.4l.2,1.5h0c.3-.5.7-.9,1.3-1.2.5-.3,1.2-.5,2.1-.5ZM169.1,171.6c-1.1,0-1.9.3-2.3.9-.4.6-.7,1.5-.7,2.8v.3c0,1.3.2,2.3.6,3.1.4.7,1.2,1.1,2.4,1.1s1.2-.2,1.6-.5c.4-.4.7-.8.9-1.5.2-.6.3-1.3.3-2.1,0-1.2-.2-2.2-.7-2.9-.5-.7-1.2-1.1-2.2-1.1ZM185.9,175.6c0,1.8-.5,3.1-1.4,4.1-.9,1-2.1,1.5-3.6,1.5s-1.8-.2-2.5-.6c-.7-.4-1.3-1.1-1.7-1.9-.4-.8-.6-1.9-.6-3,0-1.8.4-3.1,1.3-4.1.9-1,2.1-1.4,3.6-1.4s1.8.2,2.6.7c.7.4,1.3,1.1,1.7,1.9.4.8.6,1.8.6,3ZM177.8,175.6c0,1.3.2,2.3.7,3,.5.7,1.3,1.1,2.4,1.1s1.9-.4,2.4-1.1c.5-.7.8-1.8.8-3s-.3-2.3-.8-3-1.3-1.1-2.4-1.1-1.9.4-2.4,1.1-.7,1.7-.7,3ZM197.7,170.3v10.7h-1.4l-.3-1.4h0c-.3.6-.8,1-1.4,1.2-.6.3-1.3.4-2,.4-1.3,0-2.3-.3-2.9-.9-.7-.6-1-1.6-1-3v-7h1.8v6.9c0,1.7.8,2.6,2.4,2.6s2-.3,2.5-1c.5-.7.7-1.6.7-2.9v-5.6h1.8ZM206.1,170.1c.2,0,.4,0,.6,0,.2,0,.4,0,.6,0l-.2,1.6c-.2,0-.4,0-.6-.1-.2,0-.4,0-.6,0-.5,0-1.1.2-1.5.5-.5.3-.9.7-1.2,1.3-.3.5-.4,1.2-.4,1.9v5.7h-1.8v-10.7h1.4l.2,2h0c.3-.6.8-1.1,1.3-1.5.5-.4,1.2-.6,1.9-.6ZM215.4,166.3c.3,0,.5,0,.7.3.2.2.3.5.3.8s-.1.7-.3.8c-.2.2-.4.3-.7.3s-.5,0-.7-.3c-.2-.2-.3-.5-.3-.8s0-.7.3-.8c.2-.2.4-.3.7-.3ZM216.3,170.3v10.7h-1.8v-10.7h1.8ZM224.9,170.1c1.3,0,2.2.3,2.9.9.7.6,1,1.6,1,3v7h-1.7v-6.9c0-1.7-.8-2.6-2.4-2.6s-2,.3-2.5,1c-.5.7-.7,1.6-.7,2.9v5.6h-1.8v-10.7h1.4l.3,1.5h0c.3-.6.8-1,1.4-1.2.6-.3,1.3-.4,1.9-.4ZM235.6,179.8c.3,0,.5,0,.8,0,.3,0,.5-.1.7-.2v1.3c-.2,0-.5.2-.8.2-.3,0-.7,0-1,0-.6,0-1.1,0-1.6-.3-.5-.2-.8-.5-1.1-1-.3-.5-.4-1.2-.4-2v-6.2h-1.5v-.8l1.5-.7.7-2.3h1v2.5h3.1v1.4h-3.1v6.2c0,.7.2,1.1.5,1.5.3.3.7.5,1.2.5ZM244.3,170.1c.2,0,.4,0,.6,0,.2,0,.4,0,.6,0l-.2,1.6c-.2,0-.4,0-.6-.1-.2,0-.4,0-.6,0-.5,0-1.1.2-1.5.5-.5.3-.9.7-1.2,1.3-.3.5-.4,1.2-.4,1.9v5.7h-1.8v-10.7h1.4l.2,2h0c.3-.6.8-1.1,1.3-1.5.5-.4,1.2-.6,1.9-.6ZM256.5,175.6c0,1.8-.5,3.1-1.4,4.1-.9,1-2.1,1.5-3.6,1.5s-1.8-.2-2.5-.6c-.7-.4-1.3-1.1-1.7-1.9-.4-.8-.6-1.9-.6-3,0-1.8.4-3.1,1.3-4.1.9-1,2.1-1.4,3.6-1.4s1.8.2,2.6.7c.7.4,1.3,1.1,1.7,1.9.4.8.6,1.8.6,3ZM248.4,175.6c0,1.3.2,2.3.7,3,.5.7,1.3,1.1,2.4,1.1s1.9-.4,2.4-1.1c.5-.7.8-1.8.8-3s-.3-2.3-.8-3-1.3-1.1-2.4-1.1-1.9.4-2.4,1.1-.7,1.7-.7,3ZM263.1,181.2c-1.3,0-2.4-.5-3.2-1.4-.8-.9-1.2-2.3-1.2-4.2s.4-3.2,1.2-4.2c.8-.9,1.9-1.4,3.2-1.4s1.5.2,2,.5c.5.3,1,.7,1.3,1.1h.1c0-.2,0-.4,0-.8,0-.3,0-.6,0-.8v-4.3h1.8v15.2h-1.4l-.3-1.4h0c-.3.5-.7.8-1.3,1.2-.5.3-1.2.5-2.1.5ZM263.4,179.7c1.1,0,1.9-.3,2.4-.9.5-.6.7-1.6.7-2.8v-.3c0-1.3-.2-2.4-.7-3.1-.4-.7-1.3-1.1-2.4-1.1s-1.7.4-2.1,1.1c-.5.7-.7,1.8-.7,3s.2,2.3.7,3c.5.7,1.2,1.1,2.2,1.1ZM280.5,170.3v10.7h-1.4l-.3-1.4h0c-.3.6-.8,1-1.4,1.2-.6.3-1.3.4-2,.4-1.3,0-2.3-.3-2.9-.9-.7-.6-1-1.6-1-3v-7h1.8v6.9c0,1.7.8,2.6,2.4,2.6s2-.3,2.5-1c.5-.7.7-1.6.7-2.9v-5.6h1.8ZM284.8,166.3c.3,0,.5,0,.7.3.2.2.3.5.3.8s-.1.7-.3.8c-.2.2-.4.3-.7.3s-.5,0-.7-.3c-.2-.2-.3-.5-.3-.8s.1-.7.3-.8c.2-.2.4-.3.7-.3ZM285.7,170.3v10.7h-1.8v-10.7h1.8ZM294.1,170.1c.2,0,.4,0,.6,0,.2,0,.4,0,.6,0l-.2,1.6c-.2,0-.4,0-.6-.1-.2,0-.4,0-.6,0-.5,0-1.1.2-1.5.5-.5.3-.9.7-1.2,1.3-.3.5-.4,1.2-.4,1.9v5.7h-1.8v-10.7h1.4l.2,2h0c.3-.6.8-1.1,1.3-1.5.5-.4,1.2-.6,1.9-.6ZM301.1,170.1c.9,0,1.7.2,2.4.6.7.4,1.2,1,1.5,1.7.4.7.5,1.6.5,2.5v1.1h-7.3c0,1.2.3,2.1.9,2.8.6.6,1.4.9,2.5.9s1.3,0,1.8-.2c.5-.1,1.1-.3,1.6-.6v1.5c-.5.2-1.1.4-1.6.5-.5.1-1.2.2-1.9.2s-1.9-.2-2.7-.6c-.8-.4-1.4-1-1.8-1.8-.4-.8-.6-1.8-.6-3s.2-2.2.6-3c.4-.8,1-1.5,1.7-1.9.7-.5,1.6-.7,2.5-.7ZM301.1,171.5c-.8,0-1.5.3-2,.8-.5.5-.8,1.3-.9,2.2h5.5c0-.9-.2-1.6-.6-2.2-.4-.6-1.1-.9-2-.9ZM322.4,170.3v10.7h-1.4l-.3-1.4h0c-.3.6-.8,1-1.4,1.2-.6.3-1.3.4-2,.4-1.3,0-2.3-.3-2.9-.9-.7-.6-1-1.6-1-3v-7h1.8v6.9c0,1.7.8,2.6,2.4,2.6s2-.3,2.5-1c.5-.7.7-1.6.7-2.9v-5.6h1.8ZM331,170.1c1.3,0,2.2.3,2.9.9.7.6,1,1.6,1,3v7h-1.7v-6.9c0-1.7-.8-2.6-2.4-2.6s-2,.3-2.5,1c-.5.7-.7,1.6-.7,2.9v5.6h-1.8v-10.7h1.4l.3,1.5h0c.3-.6.8-1,1.4-1.2.6-.3,1.3-.4,1.9-.4ZM342.3,170.1c.9,0,1.7.2,2.4.6.7.4,1.2,1,1.5,1.7.4.7.5,1.6.5,2.5v1.1h-7.3c0,1.2.3,2.1.9,2.8.6.6,1.4.9,2.5.9s1.3,0,1.8-.2c.5-.1,1.1-.3,1.6-.6v1.5c-.5.2-1.1.4-1.6.5-.5.1-1.2.2-1.9.2s-1.9-.2-2.7-.6c-.8-.4-1.4-1-1.8-1.8-.4-.8-.6-1.8-.6-3s.2-2.2.6-3c.4-.8,1-1.5,1.7-1.9.7-.5,1.6-.7,2.5-.7ZM342.3,171.5c-.8,0-1.5.3-2,.8-.5.5-.8,1.3-.9,2.2h5.5c0-.9-.2-1.6-.6-2.2-.4-.6-1.1-.9-2-.9ZM356.4,181h-1.8v-15.2h1.8v15.2ZM360.7,166.3c.3,0,.5,0,.7.3.2.2.3.5.3.8s-.1.7-.3.8c-.2.2-.4.3-.7.3s-.5,0-.7-.3c-.2-.2-.3-.5-.3-.8s.1-.7.3-.8c.2-.2.4-.3.7-.3ZM361.6,170.3v10.7h-1.8v-10.7h1.8ZM372,178c0,1-.4,1.8-1.2,2.4-.8.5-1.8.8-3.1.8s-1.4,0-1.9-.2c-.5-.1-1-.3-1.4-.5v-1.6c.4.2.9.4,1.5.6.6.2,1.2.3,1.9.3.9,0,1.5-.1,1.9-.4.4-.3.6-.7.6-1.2s0-.5-.2-.7c-.1-.2-.4-.4-.8-.6-.4-.2-.9-.5-1.6-.7-.7-.3-1.3-.5-1.8-.8-.5-.3-.9-.6-1.1-1-.3-.4-.4-.9-.4-1.4,0-.9.4-1.6,1.1-2.1.7-.5,1.7-.7,2.9-.7s1.3,0,1.8.2c.6.1,1.1.3,1.6.5l-.6,1.4c-.5-.2-.9-.3-1.4-.5-.5-.1-1-.2-1.5-.2s-1.3.1-1.7.4c-.4.2-.6.5-.6.9s0,.5.3.8c.2.2.5.4.9.6.4.2,1,.4,1.6.7.7.3,1.3.5,1.7.8.5.3.8.6,1.1,1,.3.4.4.8.4,1.4ZM378.1,179.8c.3,0,.5,0,.8,0,.3,0,.5-.1.7-.2v1.3c-.2,0-.5.2-.8.2-.3,0-.7,0-1,0-.6,0-1.1,0-1.6-.3-.5-.2-.8-.5-1.1-1-.3-.5-.4-1.2-.4-2v-6.2h-1.5v-.8l1.5-.7.7-2.3h1v2.5h3.1v1.4h-3.1v6.2c0,.7.2,1.1.5,1.5.3.3.7.5,1.2.5ZM385.9,170.1c.9,0,1.7.2,2.4.6.7.4,1.2,1,1.5,1.7.4.7.5,1.6.5,2.5v1.1h-7.3c0,1.2.3,2.1.9,2.8.6.6,1.4.9,2.5.9s1.3,0,1.8-.2c.5-.1,1.1-.3,1.6-.6v1.5c-.5.2-1.1.4-1.6.5-.5.1-1.2.2-1.9.2s-1.9-.2-2.7-.6c-.8-.4-1.4-1-1.8-1.8-.4-.8-.6-1.8-.6-3s.2-2.2.6-3c.4-.8,1-1.5,1.7-1.9.7-.5,1.6-.7,2.5-.7ZM385.9,171.5c-.8,0-1.5.3-2,.8-.5.5-.8,1.3-.9,2.2h5.5c0-.9-.2-1.6-.6-2.2-.4-.6-1.1-.9-2-.9ZM402.3,170.1c1.3,0,2.3.3,2.9.9.6.6.9,1.5.9,2.7v7.3h-1.3l-.3-1.5h0c-.5.6-1,1-1.5,1.3-.5.3-1.2.4-2.1.4s-1.8-.3-2.4-.8c-.6-.5-1-1.3-1-2.4s.4-1.9,1.3-2.5c.8-.6,2.1-.9,3.9-1h1.8v-.7c0-.9-.2-1.5-.6-1.9-.4-.3-.9-.5-1.6-.5s-1.1,0-1.6.3c-.5.2-1,.3-1.4.6l-.5-1.3c.5-.3,1-.5,1.7-.6.6-.2,1.3-.3,2-.3ZM402.8,175.8c-1.3,0-2.3.3-2.8.6-.5.4-.8.9-.8,1.6s.2,1,.5,1.3c.4.3.8.4,1.4.4.9,0,1.7-.2,2.3-.7.6-.5.9-1.3.9-2.3v-1h-1.6ZM401.7,165.7c.1.3.3.6.5,1,.2.4.5.7.7,1.1.3.3.5.6.7.9v.2h-1.2c-.3-.2-.7-.5-1-.9-.4-.4-.7-.8-1.1-1.1-.3-.4-.6-.7-.7-.9v-.2h2.1ZM419.8,170.1c1.3,0,2.4.5,3.2,1.4.8.9,1.2,2.3,1.2,4.2s-.4,3.2-1.2,4.2c-.8.9-1.9,1.4-3.2,1.4s-1.5-.2-2.1-.5c-.5-.3-1-.7-1.3-1.1h-.1c0,.2,0,.5,0,.9,0,.3,0,.6,0,.9v4.4h-1.8v-15.5h1.4l.2,1.5h0c.3-.5.7-.9,1.3-1.2.5-.3,1.2-.5,2.1-.5ZM419.4,171.6c-1.1,0-1.9.3-2.3.9-.4.6-.7,1.5-.7,2.8v.3c0,1.3.2,2.3.6,3.1.4.7,1.2,1.1,2.4,1.1s1.2-.2,1.6-.5c.4-.4.7-.8.9-1.5.2-.6.3-1.3.3-2.1,0-1.2-.2-2.2-.7-2.9-.5-.7-1.2-1.1-2.2-1.1ZM435.9,170.3v10.7h-1.4l-.3-1.4h0c-.3.6-.8,1-1.4,1.2-.6.3-1.3.4-2,.4-1.3,0-2.3-.3-2.9-.9-.7-.6-1-1.6-1-3v-7h1.8v6.9c0,1.7.8,2.6,2.4,2.6s2-.3,2.5-1c.5-.7.7-1.6.7-2.9v-5.6h1.8ZM443.6,181.2c-.9,0-1.8-.2-2.5-.6-.7-.4-1.3-1-1.7-1.8-.4-.8-.6-1.9-.6-3.1s.2-2.4.7-3.2c.4-.8,1-1.4,1.8-1.8.8-.4,1.6-.6,2.6-.6s1.1,0,1.6.2c.5.1.9.2,1.2.4l-.5,1.5c-.3-.1-.7-.2-1.1-.3-.4-.1-.8-.2-1.2-.2-2.1,0-3.2,1.4-3.2,4.1s.3,2.3.8,3c.5.7,1.3,1,2.3,1s1.1,0,1.5-.2c.5-.1.9-.3,1.2-.4v1.6c-.4.2-.8.3-1.2.4-.4.1-.9.2-1.6.2ZM453.1,170.1c.9,0,1.7.2,2.4.6.7.4,1.2,1,1.5,1.7.4.7.5,1.6.5,2.5v1.1h-7.3c0,1.2.3,2.1.9,2.8.6.6,1.4.9,2.5.9s1.3,0,1.8-.2c.5-.1,1.1-.3,1.6-.6v1.5c-.5.2-1.1.4-1.6.5-.5.1-1.2.2-1.9.2s-1.9-.2-2.7-.6c-.8-.4-1.4-1-1.8-1.8-.4-.8-.6-1.8-.6-3s.2-2.2.6-3c.4-.8,1-1.5,1.7-1.9.7-.5,1.6-.7,2.5-.7ZM453.1,171.5c-.8,0-1.5.3-2,.8-.5.5-.8,1.3-.9,2.2h5.5c0-.9-.2-1.6-.6-2.2-.4-.6-1.1-.9-2-.9ZM467.2,178c0,1-.4,1.8-1.2,2.4-.8.5-1.8.8-3.1.8s-1.4,0-1.9-.2c-.5-.1-1-.3-1.4-.5v-1.6c.4.2.9.4,1.5.6.6.2,1.2.3,1.9.3.9,0,1.5-.1,1.9-.4.4-.3.6-.7.6-1.2s0-.5-.2-.7c-.1-.2-.4-.4-.8-.6-.4-.2-.9-.5-1.6-.7-.7-.3-1.3-.5-1.8-.8-.5-.3-.9-.6-1.1-1-.3-.4-.4-.9-.4-1.4,0-.9.4-1.6,1.1-2.1.7-.5,1.7-.7,2.9-.7s1.3,0,1.8.2c.6.1,1.1.3,1.6.5l-.6,1.4c-.5-.2-.9-.3-1.4-.5-.5-.1-1-.2-1.5-.2s-1.3.1-1.7.4c-.4.2-.6.5-.6.9s0,.5.3.8c.2.2.5.4.9.6.4.2,1,.4,1.6.7.7.3,1.3.5,1.7.8.5.3.8.6,1.1,1,.3.4.4.8.4,1.4ZM471.9,178.9c-.2.7-.4,1.5-.8,2.3-.3.9-.6,1.6-1,2.4h-1.3c.2-.8.4-1.6.6-2.5.2-.9.3-1.7.4-2.4h1.9v.2ZM489.3,170.3v10.7h-1.4l-.3-1.4h0c-.3.6-.8,1-1.4,1.2-.6.3-1.3.4-2,.4-1.3,0-2.3-.3-2.9-.9-.7-.6-1-1.6-1-3v-7h1.8v6.9c0,1.7.8,2.6,2.4,2.6s2-.3,2.5-1c.5-.7.7-1.6.7-2.9v-5.6h1.8ZM497.9,170.1c1.3,0,2.2.3,2.9.9.7.6,1,1.6,1,3v7h-1.7v-6.9c0-1.7-.8-2.6-2.4-2.6s-2,.3-2.5,1c-.5.7-.7,1.6-.7,2.9v5.6h-1.8v-10.7h1.4l.3,1.5h.1c.3-.6.8-1,1.4-1.2.6-.3,1.3-.4,1.9-.4ZM513.9,179.8c.3,0,.5,0,.8,0,.3,0,.5-.1.7-.2v1.3c-.2,0-.5.2-.8.2-.3,0-.7,0-1,0-.6,0-1.1,0-1.6-.3-.5-.2-.8-.5-1.1-1-.3-.5-.4-1.2-.4-2v-6.2h-1.5v-.8l1.5-.7.7-2.3h1v2.5h3.1v1.4h-3.1v6.2c0,.7.2,1.1.5,1.5.3.3.7.5,1.2.5ZM521.6,170.1c1.3,0,2.3.3,2.9.9.6.6.9,1.5.9,2.7v7.3h-1.3l-.3-1.5h0c-.5.6-1,1-1.5,1.3-.5.3-1.2.4-2.1.4s-1.8-.3-2.4-.8c-.6-.5-1-1.3-1-2.4s.4-1.9,1.3-2.5c.8-.6,2.1-.9,3.9-1h1.8v-.7c0-.9-.2-1.5-.6-1.9-.4-.3-.9-.5-1.6-.5s-1.1,0-1.6.3c-.5.2-1,.3-1.4.6l-.5-1.3c.5-.3,1-.5,1.7-.6.6-.2,1.3-.3,2-.3ZM522.1,175.8c-1.3,0-2.3.3-2.8.6-.5.4-.8.9-.8,1.6s.2,1,.5,1.3c.4.3.8.4,1.4.4.9,0,1.7-.2,2.3-.7.6-.5.9-1.3.9-2.3v-1h-1.6ZM530.5,169.5c0,.5,0,.9,0,1.3,0,.4,0,.7,0,.9h.1c.3-.5.7-.8,1.3-1.1.5-.3,1.2-.5,2.1-.5,1.3,0,2.4.5,3.2,1.4.8.9,1.2,2.3,1.2,4.1s-.4,3.2-1.2,4.2c-.8.9-1.9,1.4-3.2,1.4s-1.5-.2-2.1-.5c-.5-.3-1-.7-1.3-1.1h-.1l-.4,1.4h-1.3v-15.2h1.8v3.7ZM533.5,171.6c-1.1,0-1.9.3-2.4,1s-.7,1.7-.7,3h0c0,1.4.2,2.4.6,3.1.4.7,1.2,1,2.4,1s1.7-.4,2.1-1.1c.5-.7.7-1.7.7-3.1,0-2.7-1-4.1-2.9-4.1ZM542.8,181h-1.8v-15.2h1.8v15.2ZM550.3,170.1c.9,0,1.7.2,2.4.6.7.4,1.2,1,1.5,1.7.4.7.5,1.6.5,2.5v1.1h-7.3c0,1.2.3,2.1.9,2.8.6.6,1.4.9,2.5.9s1.3,0,1.8-.2c.5-.1,1.1-.3,1.6-.6v1.5c-.5.2-1.1.4-1.6.5-.5.1-1.2.2-1.9.2s-1.9-.2-2.7-.6c-.8-.4-1.4-1-1.8-1.8-.4-.8-.6-1.8-.6-3s.2-2.2.6-3c.4-.8,1-1.5,1.7-1.9.7-.5,1.6-.7,2.5-.7ZM550.3,171.5c-.8,0-1.5.3-2,.8-.5.5-.8,1.3-.9,2.2h5.5c0-.9-.2-1.6-.6-2.2-.4-.6-1.1-.9-2-.9ZM561.5,170.1c1.3,0,2.3.3,2.9.9.6.6.9,1.5.9,2.7v7.3h-1.3l-.3-1.5h0c-.5.6-1,1-1.5,1.3-.5.3-1.2.4-2.1.4s-1.8-.3-2.4-.8c-.6-.5-1-1.3-1-2.4s.4-1.9,1.3-2.5c.8-.6,2.1-.9,3.9-1h1.8v-.7c0-.9-.2-1.5-.6-1.9-.4-.3-.9-.5-1.6-.5s-1.1,0-1.6.3c-.5.2-1,.3-1.4.6l-.5-1.3c.5-.3,1-.5,1.7-.6.6-.2,1.3-.3,2-.3ZM562,175.8c-1.3,0-2.3.3-2.8.6-.5.4-.8.9-.8,1.6s.2,1,.5,1.3c.4.3.8.4,1.4.4.9,0,1.7-.2,2.3-.7.6-.5.9-1.3.9-2.3v-1h-1.6ZM577.6,170.3v10.7h-1.4l-.3-1.4h0c-.3.6-.8,1-1.4,1.2-.6.3-1.3.4-2,.4-1.3,0-2.3-.3-2.9-.9-.7-.6-1-1.6-1-3v-7h1.8v6.9c0,1.7.8,2.6,2.4,2.6s2-.3,2.5-1c.5-.7.7-1.6.7-2.9v-5.6h1.8ZM595.5,175.6c0,1.8-.5,3.1-1.4,4.1-.9,1-2.1,1.5-3.6,1.5s-1.8-.2-2.5-.6c-.7-.4-1.3-1.1-1.7-1.9-.4-.8-.6-1.9-.6-3,0-1.8.4-3.1,1.3-4.1.9-1,2.1-1.4,3.6-1.4s1.8.2,2.6.7c.7.4,1.3,1.1,1.7,1.9.4.8.6,1.8.6,3ZM587.4,175.6c0,1.3.2,2.3.7,3,.5.7,1.3,1.1,2.4,1.1s1.9-.4,2.4-1.1c.5-.7.8-1.8.8-3s-.3-2.3-.8-3c-.5-.7-1.3-1.1-2.4-1.1s-1.9.4-2.4,1.1c-.5.7-.7,1.7-.7,3ZM607.3,170.3v10.7h-1.4l-.3-1.4h0c-.3.6-.8,1-1.4,1.2-.6.3-1.3.4-2,.4-1.3,0-2.3-.3-2.9-.9-.7-.6-1-1.6-1-3v-7h1.8v6.9c0,1.7.8,2.6,2.4,2.6s2-.3,2.5-1c.5-.7.7-1.6.7-2.9v-5.6h1.8ZM619.7,181.2c-1.3,0-2.4-.5-3.2-1.4-.8-.9-1.2-2.3-1.2-4.2s.4-3.2,1.2-4.2c.8-.9,1.9-1.4,3.2-1.4s1.5.2,2,.5c.5.3,1,.7,1.3,1.1h.1c0-.2,0-.4,0-.8,0-.3,0-.6,0-.8v-4.3h1.8v15.2h-1.4l-.3-1.4h0c-.3.5-.7.8-1.3,1.2-.5.3-1.2.5-2.1.5ZM620,179.7c1.1,0,1.9-.3,2.4-.9.5-.6.7-1.6.7-2.8v-.3c0-1.3-.2-2.4-.7-3.1-.4-.7-1.3-1.1-2.4-1.1s-1.7.4-2.1,1.1c-.5.7-.7,1.8-.7,3s.2,2.3.7,3c.5.7,1.2,1.1,2.2,1.1ZM629.8,166.9c-.2.7-.4,1.5-.8,2.3-.3.9-.6,1.6-1,2.3h-1.3c.1-.5.3-1,.4-1.6.1-.6.3-1.2.4-1.7.1-.6.2-1.1.3-1.6h1.9v.2ZM635,170.1c1.3,0,2.3.3,2.9.9.6.6.9,1.5.9,2.7v7.3h-1.3l-.3-1.5h0c-.5.6-1,1-1.5,1.3-.5.3-1.2.4-2.1.4s-1.8-.3-2.4-.8c-.6-.5-1-1.3-1-2.4s.4-1.9,1.3-2.5c.8-.6,2.1-.9,3.9-1h1.8v-.7c0-.9-.2-1.5-.6-1.9-.4-.3-.9-.5-1.6-.5s-1.1,0-1.6.3c-.5.2-1,.3-1.4.6l-.5-1.3c.5-.3,1-.5,1.7-.6.6-.2,1.3-.3,2-.3ZM635.5,175.8c-1.3,0-2.3.3-2.8.6-.5.4-.8.9-.8,1.6s.2,1,.5,1.3c.4.3.8.4,1.4.4.9,0,1.7-.2,2.3-.7.6-.5.9-1.3.9-2.3v-1h-1.6ZM651.1,170.3v10.7h-1.4l-.3-1.4h0c-.3.6-.8,1-1.4,1.2-.6.3-1.3.4-2,.4-1.3,0-2.3-.3-2.9-.9-.7-.6-1-1.6-1-3v-7h1.8v6.9c0,1.7.8,2.6,2.4,2.6s2-.3,2.5-1c.5-.7.7-1.6.7-2.9v-5.6h1.8ZM658,179.8c.3,0,.5,0,.8,0,.3,0,.5-.1.7-.2v1.3c-.2,0-.5.2-.8.2-.3,0-.7,0-1,0-.6,0-1.1,0-1.6-.3-.5-.2-.8-.5-1.1-1-.3-.5-.4-1.2-.4-2v-6.2h-1.5v-.8l1.5-.7.7-2.3h1v2.5h3.1v1.4h-3.1v6.2c0,.7.2,1.1.5,1.5.3.3.7.5,1.2.5ZM666.7,170.1c.2,0,.4,0,.6,0,.2,0,.4,0,.6,0l-.2,1.6c-.2,0-.4,0-.6-.1-.2,0-.4,0-.6,0-.5,0-1.1.2-1.5.5-.5.3-.9.7-1.2,1.3-.3.5-.4,1.2-.4,1.9v5.7h-1.8v-10.7h1.4l.2,2h0c.3-.6.8-1.1,1.3-1.5s1.2-.6,1.9-.6ZM673.7,170.1c.9,0,1.7.2,2.4.6.7.4,1.2,1,1.5,1.7.4.7.5,1.6.5,2.5v1.1h-7.3c0,1.2.3,2.1.9,2.8.6.6,1.4.9,2.5.9s1.3,0,1.8-.2c.5-.1,1.1-.3,1.6-.6v1.5c-.5.2-1.1.4-1.6.5-.5.1-1.2.2-1.9.2s-1.9-.2-2.7-.6c-.8-.4-1.4-1-1.8-1.8-.4-.8-.6-1.8-.6-3s.2-2.2.6-3c.4-.8,1-1.5,1.7-1.9.7-.5,1.6-.7,2.5-.7ZM673.7,171.5c-.8,0-1.5.3-2,.8-.5.5-.8,1.3-.9,2.2h5.5c0-.9-.2-1.6-.6-2.2-.4-.6-1.1-.9-2-.9ZM687.8,178c0,1-.4,1.8-1.2,2.4-.8.5-1.8.8-3.1.8s-1.4,0-1.9-.2c-.5-.1-1-.3-1.4-.5v-1.6c.4.2.9.4,1.5.6.6.2,1.2.3,1.9.3.9,0,1.5-.1,1.9-.4.4-.3.6-.7.6-1.2s0-.5-.2-.7c-.1-.2-.4-.4-.8-.6-.4-.2-.9-.5-1.6-.7-.7-.3-1.3-.5-1.8-.8-.5-.3-.9-.6-1.1-1-.3-.4-.4-.9-.4-1.4,0-.9.4-1.6,1.1-2.1.7-.5,1.7-.7,2.9-.7s1.3,0,1.8.2c.6.1,1.1.3,1.6.5l-.6,1.4c-.5-.2-.9-.3-1.4-.5-.5-.1-1-.2-1.5-.2s-1.3.1-1.7.4c-.4.2-.6.5-.6.9s0,.5.3.8c.2.2.5.4.9.6.4.2,1,.4,1.6.7.7.3,1.3.5,1.7.8.5.3.8.6,1.1,1,.3.4.4.8.4,1.4ZM70,211.2c-.9,0-1.8-.2-2.5-.6-.7-.4-1.3-1-1.7-1.8-.4-.8-.6-1.9-.6-3.1s.2-2.4.7-3.2c.4-.8,1-1.4,1.8-1.8.8-.4,1.6-.6,2.6-.6s1.1,0,1.6.2c.5.1.9.2,1.2.4l-.5,1.5c-.3-.1-.7-.2-1.1-.3s-.8-.2-1.2-.2c-2.1,0-3.2,1.4-3.2,4.1s.3,2.3.8,3c.5.7,1.3,1,2.3,1s1.1,0,1.5-.2c.5-.1.9-.3,1.2-.4v1.6c-.4.2-.8.3-1.2.4-.4.1-.9.2-1.6.2ZM84.6,205.6c0,1.8-.5,3.1-1.4,4.1-.9,1-2.1,1.5-3.6,1.5s-1.8-.2-2.5-.6c-.7-.4-1.3-1.1-1.7-1.9-.4-.8-.6-1.9-.6-3,0-1.8.4-3.1,1.3-4.1.9-1,2.1-1.4,3.6-1.4s1.8.2,2.6.7c.7.4,1.3,1.1,1.7,1.9.4.8.6,1.8.6,3ZM76.5,205.6c0,1.3.2,2.3.7,3,.5.7,1.3,1.1,2.4,1.1s1.9-.4,2.4-1.1c.5-.7.8-1.8.8-3s-.3-2.3-.8-3c-.5-.7-1.3-1.1-2.4-1.1s-1.9.4-2.4,1.1c-.5.7-.7,1.7-.7,3ZM92.6,200.1c1.3,0,2.2.3,2.9.9.7.6,1,1.6,1,3v7h-1.7v-6.9c0-1.7-.8-2.6-2.4-2.6s-2,.3-2.5,1c-.5.7-.7,1.6-.7,2.9v5.6h-1.8v-10.7h1.4l.3,1.5h0c.3-.6.8-1,1.4-1.2.6-.3,1.3-.4,1.9-.4ZM103.4,209.8c.3,0,.5,0,.8,0,.3,0,.5-.1.7-.2v1.3c-.2,0-.5.2-.8.2-.3,0-.7,0-1,0-.6,0-1.1,0-1.6-.3-.5-.2-.8-.5-1.1-1-.3-.5-.4-1.2-.4-2v-6.2h-1.5v-.8l1.5-.7.7-2.3h1v2.5h3.1v1.4h-3.1v6.2c0,.7.2,1.1.5,1.5.3.3.7.5,1.2.5ZM111.1,200.1c.9,0,1.7.2,2.4.6.7.4,1.2,1,1.5,1.7.4.7.5,1.6.5,2.5v1.1h-7.3c0,1.2.3,2.1.9,2.8.6.6,1.4.9,2.5.9s1.3,0,1.8-.2c.5-.1,1.1-.3,1.6-.6v1.5c-.5.2-1.1.4-1.6.5-.5.1-1.2.2-1.9.2s-1.9-.2-2.7-.6c-.8-.4-1.4-1-1.8-1.8-.4-.8-.6-1.8-.6-3s.2-2.2.6-3c.4-.8,1-1.5,1.7-1.9.7-.5,1.6-.7,2.5-.7ZM111.1,201.5c-.8,0-1.5.3-2,.8-.5.5-.8,1.3-.9,2.2h5.5c0-.9-.2-1.6-.6-2.2-.4-.6-1.1-.9-2-.9ZM123.5,200.1c1.3,0,2.2.3,2.9.9.7.6,1,1.6,1,3v7h-1.7v-6.9c0-1.7-.8-2.6-2.4-2.6s-2,.3-2.5,1c-.5.7-.7,1.6-.7,2.9v5.6h-1.8v-10.7h1.4l.3,1.5h.1c.3-.6.8-1,1.4-1.2.6-.3,1.3-.4,1.9-.4ZM139.6,200.3v10.7h-1.4l-.3-1.4h0c-.3.6-.8,1-1.4,1.2-.6.3-1.3.4-2,.4-1.3,0-2.3-.3-2.9-.9-.7-.6-1-1.6-1-3v-7h1.8v6.9c0,1.7.8,2.6,2.4,2.6s2-.3,2.5-1c.5-.7.7-1.6.7-2.9v-5.6h1.8ZM150,208c0,1-.4,1.8-1.2,2.4-.8.5-1.8.8-3.1.8s-1.4,0-1.9-.2c-.5-.1-1-.3-1.4-.5v-1.6c.4.2.9.4,1.5.6.6.2,1.2.3,1.9.3.9,0,1.5-.1,1.9-.4.4-.3.6-.7.6-1.2s0-.5-.2-.7c-.1-.2-.4-.4-.8-.6-.4-.2-.9-.5-1.6-.7-.7-.3-1.3-.5-1.8-.8-.5-.3-.9-.6-1.1-1-.3-.4-.4-.9-.4-1.4,0-.9.4-1.6,1.1-2.1.7-.5,1.7-.7,2.9-.7s1.3,0,1.8.2c.6.1,1.1.3,1.6.5l-.6,1.4c-.5-.2-.9-.3-1.4-.5-.5-.1-1-.2-1.5-.2s-1.3.1-1.7.4c-.4.2-.6.5-.6.9s0,.5.3.8c.2.2.5.4.9.6.4.2,1,.4,1.6.7.7.3,1.3.5,1.7.8s.8.6,1.1,1c.3.4.4.8.4,1.4ZM154.7,208.9c-.2.7-.4,1.5-.8,2.3-.3.9-.6,1.6-1,2.4h-1.3c.2-.8.4-1.6.6-2.5.2-.9.3-1.7.4-2.4h1.9v.2ZM167.4,211.2c-.9,0-1.8-.2-2.5-.6-.7-.4-1.3-1-1.7-1.8-.4-.8-.6-1.9-.6-3.1s.2-2.4.7-3.2c.4-.8,1-1.4,1.8-1.8.8-.4,1.6-.6,2.6-.6s1.1,0,1.6.2c.5.1.9.2,1.2.4l-.5,1.5c-.3-.1-.7-.2-1.1-.3-.4-.1-.8-.2-1.2-.2-2.1,0-3.2,1.4-3.2,4.1s.3,2.3.8,3c.5.7,1.3,1,2.3,1s1.1,0,1.5-.2c.5-.1.9-.3,1.2-.4v1.6c-.4.2-.8.3-1.2.4-.4.1-.9.2-1.6.2ZM182.1,205.6c0,1.8-.5,3.1-1.4,4.1-.9,1-2.1,1.5-3.6,1.5s-1.8-.2-2.5-.6c-.7-.4-1.3-1.1-1.7-1.9-.4-.8-.6-1.9-.6-3,0-1.8.4-3.1,1.3-4.1.9-1,2.1-1.4,3.6-1.4s1.8.2,2.6.7c.7.4,1.3,1.1,1.7,1.9.4.8.6,1.8.6,3ZM174,205.6c0,1.3.2,2.3.7,3,.5.7,1.3,1.1,2.4,1.1s1.9-.4,2.4-1.1c.5-.7.8-1.8.8-3s-.3-2.3-.8-3c-.5-.7-1.3-1.1-2.4-1.1s-1.9.4-2.4,1.1c-.5.7-.7,1.7-.7,3ZM196.6,200.1c1.2,0,2.1.3,2.7.9.6.6.9,1.6.9,3v7h-1.7v-6.9c0-1.7-.7-2.5-2.2-2.5s-1.8.3-2.2.9c-.4.6-.7,1.5-.7,2.6v5.9h-1.7v-6.9c0-1.7-.7-2.5-2.2-2.5s-1.8.3-2.2,1c-.4.7-.6,1.6-.6,2.9v5.6h-1.8v-10.7h1.4l.3,1.5h.1c.3-.6.8-1,1.3-1.2.6-.3,1.2-.4,1.8-.4,1.7,0,2.8.6,3.3,1.8h0c.4-.6.8-1.1,1.5-1.4.6-.3,1.3-.4,2-.4ZM215.3,200.1c1.2,0,2.1.3,2.7.9.6.6.9,1.6.9,3v7h-1.7v-6.9c0-1.7-.7-2.5-2.2-2.5s-1.8.3-2.2.9c-.4.6-.7,1.5-.7,2.6v5.9h-1.7v-6.9c0-1.7-.7-2.5-2.2-2.5s-1.8.3-2.2,1c-.4.7-.6,1.6-.6,2.9v5.6h-1.8v-10.7h1.4l.3,1.5h.1c.3-.6.8-1,1.3-1.2.6-.3,1.2-.4,1.8-.4,1.7,0,2.8.6,3.3,1.8h0c.4-.6.8-1.1,1.5-1.4.6-.3,1.3-.4,2-.4ZM226.4,200.1c.9,0,1.7.2,2.4.6.7.4,1.2,1,1.5,1.7.4.7.5,1.6.5,2.5v1.1h-7.3c0,1.2.3,2.1.9,2.8.6.6,1.4.9,2.5.9s1.3,0,1.8-.2c.5-.1,1.1-.3,1.6-.6v1.5c-.5.2-1.1.4-1.6.5-.5.1-1.2.2-1.9.2s-1.9-.2-2.7-.6c-.8-.4-1.4-1-1.8-1.8-.4-.8-.6-1.8-.6-3s.2-2.2.6-3c.4-.8,1-1.5,1.7-1.9.7-.5,1.6-.7,2.5-.7ZM226.4,201.5c-.8,0-1.5.3-2,.8-.5.5-.8,1.3-.9,2.2h5.5c0-.9-.2-1.6-.6-2.2-.4-.6-1.1-.9-2-.9ZM247.7,200.3v10.7h-1.4l-.3-1.4h0c-.3.6-.8,1-1.4,1.2-.6.3-1.3.4-2,.4-1.3,0-2.3-.3-2.9-.9-.7-.6-1-1.6-1-3v-7h1.8v6.9c0,1.7.8,2.6,2.4,2.6s2-.3,2.5-1c.5-.7.7-1.6.7-2.9v-5.6h1.8ZM256.3,200.1c1.3,0,2.2.3,2.9.9.7.6,1,1.6,1,3v7h-1.7v-6.9c0-1.7-.8-2.6-2.4-2.6s-2,.3-2.5,1c-.5.7-.7,1.6-.7,2.9v5.6h-1.8v-10.7h1.4l.3,1.5h.1c.3-.6.8-1,1.4-1.2.6-.3,1.3-.4,1.9-.4ZM267.6,200.1c.9,0,1.7.2,2.4.6.7.4,1.2,1,1.5,1.7.4.7.5,1.6.5,2.5v1.1h-7.3c0,1.2.3,2.1.9,2.8.6.6,1.4.9,2.5.9s1.3,0,1.8-.2c.5-.1,1.1-.3,1.6-.6v1.5c-.5.2-1.1.4-1.6.5-.5.1-1.2.2-1.9.2s-1.9-.2-2.7-.6c-.8-.4-1.4-1-1.8-1.8-.4-.8-.6-1.8-.6-3s.2-2.2.6-3c.4-.8,1-1.5,1.7-1.9.7-.5,1.6-.7,2.5-.7ZM267.6,201.5c-.8,0-1.5.3-2,.8-.5.5-.8,1.3-.9,2.2h5.5c0-.9-.2-1.6-.6-2.2-.4-.6-1.1-.9-2-.9ZM280.8,196.3c.3,0,.5,0,.7.3.2.2.3.5.3.8s-.1.7-.3.8c-.2.2-.4.3-.7.3s-.5,0-.7-.3c-.2-.2-.3-.5-.3-.8s.1-.7.3-.8c.2-.2.4-.3.7-.3ZM281.7,200.3v10.7h-1.8v-10.7h1.8ZM296.9,200.1c1.2,0,2.1.3,2.7.9.6.6.9,1.6.9,3v7h-1.7v-6.9c0-1.7-.7-2.5-2.2-2.5s-1.8.3-2.2.9c-.4.6-.7,1.5-.7,2.6v5.9h-1.7v-6.9c0-1.7-.7-2.5-2.2-2.5s-1.8.3-2.2,1c-.4.7-.6,1.6-.6,2.9v5.6h-1.8v-10.7h1.4l.3,1.5h.1c.3-.6.8-1,1.3-1.2.6-.3,1.2-.4,1.8-.4,1.7,0,2.8.6,3.3,1.8h.1c.4-.6.8-1.1,1.5-1.4.6-.3,1.3-.4,2-.4ZM307.8,200.1c1.3,0,2.3.3,2.9.9.6.6.9,1.5.9,2.7v7.3h-1.3l-.3-1.5h0c-.5.6-1,1-1.5,1.3-.5.3-1.2.4-2.1.4s-1.8-.3-2.4-.8c-.6-.5-1-1.3-1-2.4s.4-1.9,1.3-2.5c.8-.6,2.1-.9,3.9-1h1.8v-.7c0-.9-.2-1.5-.6-1.9-.4-.3-.9-.5-1.6-.5s-1.1,0-1.6.3c-.5.2-1,.3-1.4.6l-.5-1.3c.5-.3,1-.5,1.7-.6.6-.2,1.3-.3,2-.3ZM308.4,205.8c-1.3,0-2.3.3-2.8.6-.5.4-.8.9-.8,1.6s.2,1,.5,1.3c.4.3.8.4,1.4.4.9,0,1.7-.2,2.3-.7.6-.5.9-1.3.9-2.3v-1h-1.6ZM318.8,200.1c.7,0,1.3.1,1.9.4.6.3,1.1.7,1.5,1.2h0l.2-1.4h1.4v10.9c0,1.5-.4,2.7-1.2,3.5-.8.8-2,1.2-3.6,1.2s-2.9-.2-3.9-.7v-1.6c1.1.6,2.4.8,4,.8s1.6-.3,2.2-.8c.5-.5.8-1.3.8-2.2v-.4c0-.2,0-.4,0-.7,0-.3,0-.5,0-.6h0c-.7,1.1-1.8,1.6-3.3,1.6s-2.5-.5-3.3-1.5c-.8-1-1.2-2.3-1.2-4.1s.4-3.1,1.2-4.1c.8-1,1.9-1.5,3.2-1.5ZM319,201.6c-.9,0-1.6.4-2.1,1.1-.5.7-.7,1.7-.7,3s.2,2.3.7,3c.5.7,1.2,1,2.1,1s1.9-.3,2.4-.9c.5-.6.7-1.5.7-2.8v-.4c0-1.5-.3-2.5-.8-3.1-.5-.6-1.3-1-2.4-1ZM331.4,200.1c.9,0,1.7.2,2.4.6.7.4,1.2,1,1.5,1.7.4.7.5,1.6.5,2.5v1.1h-7.3c0,1.2.3,2.1.9,2.8.6.6,1.4.9,2.5.9s1.3,0,1.8-.2c.5-.1,1.1-.3,1.6-.6v1.5c-.5.2-1.1.4-1.6.5-.5.1-1.2.2-1.9.2s-1.9-.2-2.7-.6c-.8-.4-1.4-1-1.8-1.8-.4-.8-.6-1.8-.6-3s.2-2.2.6-3c.4-.8,1-1.5,1.7-1.9.7-.5,1.6-.7,2.5-.7ZM331.4,201.5c-.8,0-1.5.3-2,.8-.5.5-.8,1.3-.9,2.2h5.5c0-.9-.2-1.6-.6-2.2-.4-.6-1.1-.9-2-.9ZM353.1,205.6c0,1.8-.5,3.1-1.4,4.1-.9,1-2.1,1.5-3.6,1.5s-1.8-.2-2.5-.6c-.7-.4-1.3-1.1-1.7-1.9-.4-.8-.6-1.9-.6-3,0-1.8.4-3.1,1.3-4.1.9-1,2.1-1.4,3.6-1.4s1.8.2,2.6.7c.7.4,1.3,1.1,1.7,1.9.4.8.6,1.8.6,3ZM345,205.6c0,1.3.2,2.3.7,3,.5.7,1.3,1.1,2.4,1.1s1.9-.4,2.4-1.1c.5-.7.8-1.8.8-3s-.3-2.3-.8-3-1.3-1.1-2.4-1.1-1.9.4-2.4,1.1-.7,1.7-.7,3ZM364.9,200.3v10.7h-1.4l-.3-1.4h0c-.3.6-.8,1-1.4,1.2-.6.3-1.3.4-2,.4-1.3,0-2.3-.3-2.9-.9-.7-.6-1-1.6-1-3v-7h1.8v6.9c0,1.7.8,2.6,2.4,2.6s2-.3,2.5-1c.5-.7.7-1.6.7-2.9v-5.6h1.8ZM382.4,200.3v10.7h-1.4l-.3-1.4h0c-.3.6-.8,1-1.4,1.2-.6.3-1.3.4-2,.4-1.3,0-2.3-.3-2.9-.9-.7-.6-1-1.6-1-3v-7h1.8v6.9c0,1.7.8,2.6,2.4,2.6s2-.3,2.5-1c.5-.7.7-1.6.7-2.9v-5.6h1.8ZM391,200.1c1.3,0,2.2.3,2.9.9.7.6,1,1.6,1,3v7h-1.7v-6.9c0-1.7-.8-2.6-2.4-2.6s-2,.3-2.5,1c-.5.7-.7,1.6-.7,2.9v5.6h-1.8v-10.7h1.4l.3,1.5h0c.3-.6.8-1,1.4-1.2.6-.3,1.3-.4,1.9-.4ZM402.3,200.1c.9,0,1.7.2,2.4.6.7.4,1.2,1,1.5,1.7.4.7.5,1.6.5,2.5v1.1h-7.3c0,1.2.3,2.1.9,2.8.6.6,1.4.9,2.5.9s1.3,0,1.8-.2c.5-.1,1.1-.3,1.6-.6v1.5c-.5.2-1.1.4-1.6.5-.5.1-1.2.2-1.9.2s-1.9-.2-2.7-.6c-.8-.4-1.4-1-1.8-1.8-.4-.8-.6-1.8-.6-3s.2-2.2.6-3c.4-.8,1-1.5,1.7-1.9.7-.5,1.6-.7,2.5-.7ZM402.3,201.5c-.8,0-1.5.3-2,.8-.5.5-.8,1.3-.9,2.2h5.5c0-.9-.2-1.6-.6-2.2-.4-.6-1.1-.9-2-.9ZM417,211l-4.1-10.7h1.9l2.3,6.3c.1.3.2.6.3,1s.2.7.3,1c0,.3.2.6.2.8h0c0-.2.1-.5.2-.8.1-.3.2-.7.3-1,.1-.4.2-.7.3-1l2.3-6.3h1.9l-4.1,10.7h-2ZM425.7,196.3c.3,0,.5,0,.7.3.2.2.3.5.3.8s-.1.7-.3.8c-.2.2-.4.3-.7.3s-.5,0-.7-.3c-.2-.2-.3-.5-.3-.8s.1-.7.3-.8c.2-.2.4-.3.7-.3ZM426.6,200.3v10.7h-1.8v-10.7h1.8ZM433.8,211.2c-1.3,0-2.4-.5-3.2-1.4-.8-.9-1.2-2.3-1.2-4.2s.4-3.2,1.2-4.2c.8-.9,1.9-1.4,3.2-1.4s1.5.2,2,.5c.5.3,1,.7,1.3,1.1h.1c0-.2,0-.4,0-.8,0-.3,0-.6,0-.8v-4.3h1.8v15.2h-1.4l-.3-1.4h0c-.3.5-.7.8-1.3,1.2-.5.3-1.2.5-2.1.5ZM434.1,209.7c1.1,0,1.9-.3,2.4-.9.5-.6.7-1.6.7-2.8v-.3c0-1.3-.2-2.4-.7-3.1-.4-.7-1.3-1.1-2.4-1.1s-1.7.4-2.1,1.1c-.5.7-.7,1.8-.7,3s.2,2.3.7,3c.5.7,1.2,1.1,2.2,1.1ZM446.4,200.1c.9,0,1.7.2,2.4.6.7.4,1.2,1,1.5,1.7.4.7.5,1.6.5,2.5v1.1h-7.3c0,1.2.3,2.1.9,2.8.6.6,1.4.9,2.5.9s1.3,0,1.8-.2c.5-.1,1.1-.3,1.6-.6v1.5c-.5.2-1.1.4-1.6.5-.5.1-1.2.2-1.9.2s-1.9-.2-2.7-.6c-.8-.4-1.4-1-1.8-1.8-.4-.8-.6-1.8-.6-3s.2-2.2.6-3c.4-.8,1-1.5,1.7-1.9.7-.5,1.6-.7,2.5-.7ZM446.4,201.5c-.8,0-1.5.3-2,.8-.5.5-.8,1.3-.9,2.2h5.5c0-.9-.2-1.6-.6-2.2-.4-.6-1.1-.9-2-.9ZM449.2,195.9c-.2.2-.4.6-.7.9-.3.4-.7.8-1.1,1.1-.4.4-.7.7-1,.9h-1.2v-.2c.2-.3.4-.6.6-.9.2-.3.5-.7.7-1.1.2-.4.4-.7.6-1h2.1v.2ZM462.9,205.6c0,1.8-.5,3.1-1.4,4.1-.9,1-2.1,1.5-3.6,1.5s-1.8-.2-2.5-.6c-.7-.4-1.3-1.1-1.7-1.9-.4-.8-.6-1.9-.6-3,0-1.8.4-3.1,1.3-4.1.9-1,2.1-1.4,3.6-1.4s1.8.2,2.6.7c.7.4,1.3,1.1,1.7,1.9.4.8.6,1.8.6,3ZM454.8,205.6c0,1.3.2,2.3.7,3,.5.7,1.3,1.1,2.4,1.1s1.9-.4,2.4-1.1c.5-.7.8-1.8.8-3s-.3-2.3-.8-3c-.5-.7-1.3-1.1-2.4-1.1s-1.9.4-2.4,1.1c-.5.7-.7,1.7-.7,3ZM465.4,209.9c0-.5.1-.8.4-1,.2-.2.5-.3.9-.3s.6,0,.9.3c.3.2.4.5.4,1s-.1.8-.4,1c-.2.2-.5.3-.9.3s-.6-.1-.9-.3c-.2-.2-.4-.6-.4-1Z"/>
  <g class="st7">
    <g>
      <rect class="st5" y="22" width="48" height="1"/>
      <g class="st1">
        <g>
          <path class="st5" d="M12,10h0c6.6,0,12,5.4,12,12h0c0,6.6-5.4,12-12,12h0c-6.6,0-12-5.4-12-12h0c0-6.6,5.4-12,12-12Z"/>
          <path class="st4" d="M9.3,26v-.8l2.9-3.2c.3-.4.6-.7.8-1,.2-.3.4-.5.5-.8.1-.2.2-.5.2-.8s0-.6-.2-.8c-.1-.2-.3-.4-.6-.5-.3-.1-.5-.2-.9-.2s-.6,0-.9.2c-.2.1-.4.3-.6.6-.1.2-.2.5-.2.9h-1c0-.5.1-1,.4-1.3.2-.4.6-.7,1-.9.4-.2.9-.3,1.4-.3s1,.1,1.4.3c.4.2.7.5.9.9.2.4.3.8.3,1.2s0,.6-.2.9c-.1.3-.3.6-.6,1-.3.4-.7.8-1.2,1.4l-2,2.1h0c0,0,4.1,0,4.1,0v.9h-5.5Z"/>
        </g>
      </g>
    </g>
  </g>
  <g class="st3">
    <g>
      <rect class="st5" y="145.8" width="49" height="1"/>
      <g class="st2">
        <g>
          <path class="st5" d="M12,133.8h0c6.6,0,12,5.4,12,12h0c0,6.6-5.4,12-12,12h0c-6.6,0-12-5.4-12-12h0c0-6.6,5.4-12,12-12Z"/>
          <path class="st4" d="M13.2,141.1v8.7h-1.1v-7.6h0l-2.1,1.4v-1.1l2.2-1.4h1.1Z"/>
        </g>
      </g>
    </g>
  </g>
</svg>