<svg width="484" height="94" viewBox="0 0 484 94" fill="none" xmlns="http://www.w3.org/2000/svg">
<rect x="54" y="35" width="42" height="42" rx="2" fill="white"/>
<path d="M71.0798 64.5814L63.1353 56.637C62.658 56.1597 62.658 55.3858 63.1353 54.9085L64.8638 53.18C65.341 52.7027 66.115 52.7027 66.5922 53.18L71.944 58.5317L83.4069 47.0689C83.8842 46.5916 84.6581 46.5916 85.1354 47.0689L86.8638 48.7974C87.3411 49.2747 87.3411 50.0485 86.8638 50.5259L72.8082 64.5815C72.3309 65.0588 71.557 65.0588 71.0798 64.5814V64.5814Z" fill="#333333"/>
<rect x="54" y="35" width="42" height="42" rx="2" stroke="#333333" stroke-width="2"/>
<path d="M113.9 63V48.72H116.06V61.14H122.16V63H113.9ZM126.503 52.22V63H124.383V52.22H126.503ZM125.463 48.12C125.783 48.12 126.063 48.2133 126.303 48.4C126.543 48.5867 126.663 48.9 126.663 49.34C126.663 49.7667 126.543 50.08 126.303 50.28C126.063 50.4667 125.783 50.56 125.463 50.56C125.116 50.56 124.823 50.4667 124.583 50.28C124.356 50.08 124.243 49.7667 124.243 49.34C124.243 48.9 124.356 48.5867 124.583 48.4C124.823 48.2133 125.116 48.12 125.463 48.12ZM131.952 51.46C131.952 51.9 131.939 52.32 131.912 52.72C131.899 53.1067 131.879 53.4133 131.852 53.64H131.952C132.259 53.1867 132.672 52.8067 133.192 52.5C133.712 52.1933 134.385 52.04 135.212 52.04C136.505 52.04 137.545 52.5067 138.332 53.44C139.132 54.3733 139.532 55.76 139.532 57.6C139.532 58.84 139.352 59.8733 138.992 60.7C138.632 61.5267 138.125 62.1533 137.472 62.58C136.819 62.9933 136.059 63.2 135.192 63.2C134.352 63.2 133.679 63.0533 133.172 62.76C132.665 62.4533 132.259 62.0933 131.952 61.68H131.792L131.392 63H129.832V47.8H131.952V51.46ZM134.712 53.76C134.019 53.76 133.472 53.8933 133.072 54.16C132.672 54.4267 132.385 54.8333 132.212 55.38C132.039 55.9267 131.952 56.62 131.952 57.46V57.62C131.952 58.86 132.152 59.8133 132.552 60.48C132.952 61.1333 133.685 61.46 134.752 61.46C135.605 61.46 136.252 61.1267 136.692 60.46C137.132 59.7933 137.352 58.8333 137.352 57.58C137.352 56.3133 137.132 55.36 136.692 54.72C136.252 54.08 135.592 53.76 134.712 53.76ZM146.474 52.02C147.421 52.02 148.234 52.22 148.914 52.62C149.594 53.0067 150.114 53.5667 150.474 54.3C150.848 55.0333 151.034 55.9 151.034 56.9V58.06H143.794C143.821 59.1667 144.108 60.0133 144.654 60.6C145.214 61.1867 145.994 61.48 146.994 61.48C147.688 61.48 148.301 61.42 148.834 61.3C149.381 61.1667 149.941 60.9733 150.514 60.72V62.48C149.981 62.72 149.434 62.9 148.874 63.02C148.328 63.14 147.674 63.2 146.914 63.2C145.874 63.2 144.954 62.9933 144.154 62.58C143.354 62.1667 142.728 61.5533 142.274 60.74C141.834 59.9133 141.614 58.9 141.614 57.7C141.614 56.4867 141.814 55.46 142.214 54.62C142.628 53.78 143.194 53.14 143.914 52.7C144.648 52.2467 145.501 52.02 146.474 52.02ZM146.474 53.66C145.714 53.66 145.101 53.9067 144.634 54.4C144.181 54.8933 143.914 55.5933 143.834 56.5H148.914C148.914 55.94 148.828 55.4467 148.654 55.02C148.481 54.5933 148.214 54.26 147.854 54.02C147.494 53.78 147.034 53.66 146.474 53.66ZM155.8 63H153.68V47.8H155.8V63ZM161.249 63H159.129V47.8H161.249V63ZM168.818 52.02C169.765 52.02 170.578 52.22 171.258 52.62C171.938 53.0067 172.458 53.5667 172.818 54.3C173.191 55.0333 173.378 55.9 173.378 56.9V58.06H166.138C166.165 59.1667 166.451 60.0133 166.998 60.6C167.558 61.1867 168.338 61.48 169.338 61.48C170.031 61.48 170.645 61.42 171.178 61.3C171.725 61.1667 172.285 60.9733 172.858 60.72V62.48C172.325 62.72 171.778 62.9 171.218 63.02C170.671 63.14 170.018 63.2 169.258 63.2C168.218 63.2 167.298 62.9933 166.498 62.58C165.698 62.1667 165.071 61.5533 164.618 60.74C164.178 59.9133 163.958 58.9 163.958 57.7C163.958 56.4867 164.158 55.46 164.558 54.62C164.971 53.78 165.538 53.14 166.258 52.7C166.991 52.2467 167.845 52.02 168.818 52.02ZM168.818 53.66C168.058 53.66 167.445 53.9067 166.978 54.4C166.525 54.8933 166.258 55.5933 166.178 56.5H171.258C171.258 55.94 171.171 55.4467 170.998 55.02C170.825 54.5933 170.558 54.26 170.198 54.02C169.838 53.78 169.378 53.66 168.818 53.66ZM172.018 47.88C171.871 48.0667 171.671 48.2933 171.418 48.56C171.178 48.8267 170.905 49.1067 170.598 49.4C170.305 49.68 170.011 49.9533 169.718 50.22C169.425 50.4733 169.158 50.6933 168.918 50.88H167.518V50.64C167.718 50.3867 167.945 50.0867 168.198 49.74C168.451 49.3933 168.698 49.04 168.938 48.68C169.178 48.3067 169.378 47.9733 169.538 47.68H172.018V47.88Z" fill="#333333"/>
<path d="M117.742 89H116.142V77.7111H112.178V76.3067H121.689V77.7111H117.742V89ZM125.82 79.2933C126.637 79.2933 127.337 79.4711 127.917 79.8267C128.51 80.1822 128.96 80.6859 129.268 81.3378C129.588 81.9778 129.748 82.7304 129.748 83.5956V84.5378H123.224C123.248 85.6163 123.52 86.44 124.042 87.0089C124.575 87.5659 125.316 87.8444 126.264 87.8444C126.868 87.8444 127.402 87.7911 127.864 87.6844C128.338 87.5659 128.824 87.4 129.322 87.1867V88.5556C128.836 88.7689 128.356 88.923 127.882 89.0178C127.408 89.1244 126.845 89.1778 126.193 89.1778C125.292 89.1778 124.492 88.9941 123.793 88.6267C123.106 88.2593 122.566 87.7141 122.175 86.9911C121.796 86.2563 121.606 85.3615 121.606 84.3067C121.606 83.2637 121.778 82.3689 122.122 81.6222C122.477 80.8756 122.969 80.3007 123.597 79.8978C124.237 79.4948 124.978 79.2933 125.82 79.2933ZM125.802 80.5733C125.055 80.5733 124.463 80.8163 124.024 81.3022C123.597 81.7763 123.343 82.44 123.26 83.2933H128.113C128.101 82.4874 127.911 81.8356 127.544 81.3378C127.177 80.8281 126.596 80.5733 125.802 80.5733ZM134.085 84.1289L130.796 79.4711H132.574L135.027 83.0622L137.463 79.4711H139.223L135.934 84.1289L139.4 89H137.623L135.027 85.1956L132.396 89H130.636L134.085 84.1289ZM144.419 87.8978C144.656 87.8978 144.899 87.88 145.148 87.8444C145.397 87.797 145.598 87.7496 145.752 87.7022V88.8933C145.586 88.9763 145.349 89.0415 145.041 89.0889C144.733 89.1481 144.437 89.1778 144.152 89.1778C143.655 89.1778 143.192 89.0948 142.766 88.9289C142.351 88.7511 142.013 88.4489 141.752 88.0222C141.492 87.5956 141.361 86.997 141.361 86.2267V80.68H140.01V79.9333L141.379 79.3111L142.001 77.2844H142.926V79.4711H145.681V80.68H142.926V86.1911C142.926 86.7719 143.062 87.2044 143.335 87.4889C143.619 87.7615 143.981 87.8978 144.419 87.8978ZM151.34 79.2933C152.158 79.2933 152.857 79.4711 153.438 79.8267C154.031 80.1822 154.481 80.6859 154.789 81.3378C155.109 81.9778 155.269 82.7304 155.269 83.5956V84.5378H148.745C148.769 85.6163 149.041 86.44 149.563 87.0089C150.096 87.5659 150.837 87.8444 151.785 87.8444C152.389 87.8444 152.923 87.7911 153.385 87.6844C153.859 87.5659 154.345 87.4 154.843 87.1867V88.5556C154.357 88.7689 153.877 88.923 153.403 89.0178C152.929 89.1244 152.366 89.1778 151.714 89.1778C150.813 89.1778 150.013 88.9941 149.314 88.6267C148.626 88.2593 148.087 87.7141 147.696 86.9911C147.317 86.2563 147.127 85.3615 147.127 84.3067C147.127 83.2637 147.299 82.3689 147.643 81.6222C147.998 80.8756 148.49 80.3007 149.118 79.8978C149.758 79.4948 150.499 79.2933 151.34 79.2933ZM151.323 80.5733C150.576 80.5733 149.983 80.8163 149.545 81.3022C149.118 81.7763 148.863 82.44 148.78 83.2933H153.634C153.622 82.4874 153.432 81.8356 153.065 81.3378C152.697 80.8281 152.117 80.5733 151.323 80.5733ZM165.993 79.2933C166.811 79.2933 167.51 79.4711 168.091 79.8267C168.684 80.1822 169.134 80.6859 169.442 81.3378C169.762 81.9778 169.922 82.7304 169.922 83.5956V84.5378H163.398C163.421 85.6163 163.694 86.44 164.215 87.0089C164.749 87.5659 165.489 87.8444 166.438 87.8444C167.042 87.8444 167.575 87.7911 168.038 87.6844C168.512 87.5659 168.998 87.4 169.495 87.1867V88.5556C169.009 88.7689 168.529 88.923 168.055 89.0178C167.581 89.1244 167.018 89.1778 166.367 89.1778C165.466 89.1778 164.666 88.9941 163.967 88.6267C163.279 88.2593 162.74 87.7141 162.349 86.9911C161.969 86.2563 161.78 85.3615 161.78 84.3067C161.78 83.2637 161.952 82.3689 162.295 81.6222C162.651 80.8756 163.143 80.3007 163.771 79.8978C164.411 79.4948 165.152 79.2933 165.993 79.2933ZM165.975 80.5733C165.229 80.5733 164.636 80.8163 164.198 81.3022C163.771 81.7763 163.516 82.44 163.433 83.2933H168.287C168.275 82.4874 168.085 81.8356 167.718 81.3378C167.35 80.8281 166.769 80.5733 165.975 80.5733ZM174.258 84.1289L170.97 79.4711H172.747L175.201 83.0622L177.636 79.4711H179.396L176.107 84.1289L179.574 89H177.796L175.201 85.1956L172.57 89H170.81L174.258 84.1289ZM185.944 79.2933C187.117 79.2933 188.059 79.7022 188.77 80.52C189.493 81.3378 189.855 82.5704 189.855 84.2178C189.855 85.8415 189.493 87.0741 188.77 87.9156C188.059 88.757 187.111 89.1778 185.926 89.1778C185.191 89.1778 184.581 89.0415 184.095 88.7689C183.621 88.4844 183.247 88.1585 182.975 87.7911H182.868C182.892 87.9926 182.916 88.2474 182.939 88.5556C182.963 88.8637 182.975 89.1304 182.975 89.3556V93.2667H181.41V79.4711H182.69L182.904 80.7689H182.975C183.259 80.3541 183.633 80.0044 184.095 79.72C184.557 79.4356 185.173 79.2933 185.944 79.2933ZM185.659 80.6089C184.687 80.6089 184 80.8815 183.597 81.4267C183.206 81.9719 182.999 82.8015 182.975 83.9156V84.2178C182.975 85.3911 183.164 86.2978 183.544 86.9378C183.935 87.5659 184.652 87.88 185.695 87.88C186.276 87.88 186.75 87.72 187.117 87.4C187.496 87.08 187.775 86.6474 187.953 86.1022C188.142 85.5452 188.237 84.9111 188.237 84.2C188.237 83.1096 188.024 82.2385 187.597 81.5867C187.182 80.9348 186.536 80.6089 185.659 80.6089ZM193.912 89H192.348V75.4889H193.912V89ZM197.731 75.8978C197.968 75.8978 198.176 75.9807 198.353 76.1467C198.543 76.3007 198.638 76.5496 198.638 76.8933C198.638 77.2252 198.543 77.4741 198.353 77.64C198.176 77.8059 197.968 77.8889 197.731 77.8889C197.471 77.8889 197.251 77.8059 197.073 77.64C196.896 77.4741 196.807 77.2252 196.807 76.8933C196.807 76.5496 196.896 76.3007 197.073 76.1467C197.251 75.9807 197.471 75.8978 197.731 75.8978ZM198.496 79.4711V89H196.931V79.4711H198.496ZM205.337 89.1778C204.495 89.1778 203.743 89.0059 203.079 88.6622C202.427 88.3185 201.912 87.7852 201.532 87.0622C201.165 86.3393 200.981 85.4148 200.981 84.2889C200.981 83.1156 201.177 82.1615 201.568 81.4267C201.959 80.6919 202.486 80.1526 203.15 79.8089C203.826 79.4652 204.59 79.2933 205.443 79.2933C205.929 79.2933 206.398 79.3467 206.848 79.4533C207.298 79.5481 207.666 79.6667 207.95 79.8089L207.47 81.1067C207.186 81 206.854 80.8993 206.475 80.8044C206.095 80.7096 205.74 80.6622 205.408 80.6622C203.535 80.6622 202.599 81.8652 202.599 84.2711C202.599 85.4207 202.824 86.3037 203.275 86.92C203.737 87.5244 204.418 87.8267 205.319 87.8267C205.841 87.8267 206.297 87.7733 206.688 87.6667C207.091 87.56 207.458 87.4296 207.79 87.2756V88.6622C207.47 88.8281 207.115 88.9526 206.723 89.0356C206.344 89.1304 205.882 89.1778 205.337 89.1778ZM213.665 79.3111C214.827 79.3111 215.686 79.5659 216.243 80.0756C216.8 80.5852 217.078 81.397 217.078 82.5111V89H215.941L215.638 87.6489H215.567C215.153 88.1704 214.714 88.5556 214.252 88.8044C213.801 89.0533 213.173 89.1778 212.367 89.1778C211.502 89.1778 210.785 88.9526 210.216 88.5022C209.647 88.04 209.363 87.323 209.363 86.3511C209.363 85.403 209.736 84.6741 210.483 84.1644C211.23 83.643 212.379 83.3585 213.932 83.3111L215.55 83.2578V82.6889C215.55 81.8948 215.378 81.3437 215.034 81.0356C214.69 80.7274 214.204 80.5733 213.576 80.5733C213.078 80.5733 212.604 80.6504 212.154 80.8044C211.704 80.9467 211.283 81.1126 210.892 81.3022L210.412 80.1289C210.827 79.9037 211.318 79.7141 211.887 79.56C212.456 79.3941 213.049 79.3111 213.665 79.3111ZM214.127 84.3956C212.942 84.443 212.118 84.6326 211.656 84.9644C211.206 85.2963 210.981 85.7644 210.981 86.3689C210.981 86.9022 211.141 87.2933 211.461 87.5422C211.793 87.7911 212.213 87.9156 212.723 87.9156C213.529 87.9156 214.198 87.6963 214.732 87.2578C215.265 86.8074 215.532 86.12 215.532 85.1956V84.3422L214.127 84.3956ZM223.204 87.8978C223.441 87.8978 223.684 87.88 223.933 87.8444C224.182 87.797 224.383 87.7496 224.537 87.7022V88.8933C224.371 88.9763 224.134 89.0415 223.826 89.0889C223.518 89.1481 223.222 89.1778 222.937 89.1778C222.439 89.1778 221.977 89.0948 221.55 88.9289C221.136 88.7511 220.798 88.4489 220.537 88.0222C220.276 87.5956 220.146 86.997 220.146 86.2267V80.68H218.795V79.9333L220.164 79.3111L220.786 77.2844H221.71V79.4711H224.466V80.68H221.71V86.1911C221.71 86.7719 221.847 87.2044 222.119 87.4889C222.404 87.7615 222.765 87.8978 223.204 87.8978ZM227.245 75.8978C227.482 75.8978 227.69 75.9807 227.867 76.1467C228.057 76.3007 228.152 76.5496 228.152 76.8933C228.152 77.2252 228.057 77.4741 227.867 77.64C227.69 77.8059 227.482 77.8889 227.245 77.8889C226.984 77.8889 226.765 77.8059 226.587 77.64C226.41 77.4741 226.321 77.2252 226.321 76.8933C226.321 76.5496 226.41 76.3007 226.587 76.1467C226.765 75.9807 226.984 75.8978 227.245 75.8978ZM228.01 79.4711V89H226.445V79.4711H228.01ZM235.42 80.68H233.02V89H231.455V80.68H229.784V79.9511L231.455 79.4178V78.8667C231.455 77.6341 231.728 76.7511 232.273 76.2178C232.818 75.6726 233.577 75.4 234.548 75.4C234.928 75.4 235.271 75.4356 235.58 75.5067C235.9 75.5659 236.172 75.637 236.397 75.72L235.988 76.9467C235.799 76.8874 235.58 76.8281 235.331 76.7689C235.082 76.7096 234.827 76.68 234.566 76.68C234.045 76.68 233.654 76.8578 233.393 77.2133C233.144 77.557 233.02 78.1022 233.02 78.8489V79.4711H235.42V80.68ZM242.064 76.3067L237.335 89H235.806L240.535 76.3067H242.064ZM251.061 89H243.968V76.3067H251.061V77.7111H245.568V81.6756H250.741V83.0622H245.568V87.5956H251.061V89ZM255.89 84.1289L252.602 79.4711H254.379L256.833 83.0622L259.268 79.4711H261.028L257.739 84.1289L261.206 89H259.428L256.833 85.1956L254.202 89H252.442L255.89 84.1289ZM266.375 79.2933C267.193 79.2933 267.892 79.4711 268.473 79.8267C269.066 80.1822 269.516 80.6859 269.824 81.3378C270.144 81.9778 270.304 82.7304 270.304 83.5956V84.5378H263.78C263.803 85.6163 264.076 86.44 264.597 87.0089C265.131 87.5659 265.871 87.8444 266.82 87.8444C267.424 87.8444 267.957 87.7911 268.42 87.6844C268.894 87.5659 269.38 87.4 269.877 87.1867V88.5556C269.391 88.7689 268.911 88.923 268.437 89.0178C267.963 89.1244 267.4 89.1778 266.748 89.1778C265.848 89.1778 265.048 88.9941 264.348 88.6267C263.661 88.2593 263.122 87.7141 262.731 86.9911C262.351 86.2563 262.162 85.3615 262.162 84.3067C262.162 83.2637 262.334 82.3689 262.677 81.6222C263.033 80.8756 263.525 80.3007 264.153 79.8978C264.793 79.4948 265.534 79.2933 266.375 79.2933ZM266.357 80.5733C265.611 80.5733 265.018 80.8163 264.58 81.3022C264.153 81.7763 263.898 82.44 263.815 83.2933H268.668C268.657 82.4874 268.467 81.8356 268.1 81.3378C267.732 80.8281 267.151 80.5733 266.357 80.5733ZM283.183 79.2933C284.262 79.2933 285.068 79.5719 285.601 80.1289C286.134 80.6741 286.401 81.563 286.401 82.7956V89H284.854V82.8667C284.854 81.3615 284.208 80.6089 282.917 80.6089C281.992 80.6089 281.328 80.8756 280.925 81.4089C280.534 81.9422 280.339 82.7185 280.339 83.7378V89H278.792V82.8667C278.792 81.3615 278.14 80.6089 276.837 80.6089C275.877 80.6089 275.213 80.9052 274.845 81.4978C274.478 82.0904 274.294 82.9437 274.294 84.0578V89H272.73V79.4711H273.992L274.223 80.7689H274.312C274.608 80.2711 275.005 79.9037 275.503 79.6667C276.013 79.4178 276.552 79.2933 277.121 79.2933C278.614 79.2933 279.586 79.8267 280.037 80.8933H280.125C280.445 80.3481 280.878 79.9452 281.423 79.6844C281.98 79.4237 282.567 79.2933 283.183 79.2933ZM293.878 79.2933C295.051 79.2933 295.993 79.7022 296.704 80.52C297.427 81.3378 297.789 82.5704 297.789 84.2178C297.789 85.8415 297.427 87.0741 296.704 87.9156C295.993 88.757 295.045 89.1778 293.86 89.1778C293.125 89.1778 292.515 89.0415 292.029 88.7689C291.555 88.4844 291.181 88.1585 290.909 87.7911H290.802C290.826 87.9926 290.85 88.2474 290.873 88.5556C290.897 88.8637 290.909 89.1304 290.909 89.3556V93.2667H289.344V79.4711H290.624L290.838 80.7689H290.909C291.193 80.3541 291.567 80.0044 292.029 79.72C292.491 79.4356 293.107 79.2933 293.878 79.2933ZM293.593 80.6089C292.621 80.6089 291.934 80.8815 291.531 81.4267C291.14 81.9719 290.933 82.8015 290.909 83.9156V84.2178C290.909 85.3911 291.099 86.2978 291.478 86.9378C291.869 87.5659 292.586 87.88 293.629 87.88C294.21 87.88 294.684 87.72 295.051 87.4C295.43 87.08 295.709 86.6474 295.887 86.1022C296.076 85.5452 296.171 84.9111 296.171 84.2C296.171 83.1096 295.958 82.2385 295.531 81.5867C295.116 80.9348 294.47 80.6089 293.593 80.6089ZM301.846 89H300.282V75.4889H301.846V89ZM308.545 79.2933C309.363 79.2933 310.062 79.4711 310.643 79.8267C311.236 80.1822 311.686 80.6859 311.994 81.3378C312.314 81.9778 312.474 82.7304 312.474 83.5956V84.5378H305.95C305.973 85.6163 306.246 86.44 306.768 87.0089C307.301 87.5659 308.042 87.8444 308.99 87.8444C309.594 87.8444 310.128 87.7911 310.59 87.6844C311.064 87.5659 311.55 87.4 312.048 87.1867V88.5556C311.562 88.7689 311.082 88.923 310.608 89.0178C310.133 89.1244 309.57 89.1778 308.919 89.1778C308.018 89.1778 307.218 88.9941 306.519 88.6267C305.831 88.2593 305.292 87.7141 304.901 86.9911C304.522 86.2563 304.332 85.3615 304.332 84.3067C304.332 83.2637 304.504 82.3689 304.848 81.6222C305.203 80.8756 305.695 80.3007 306.323 79.8978C306.963 79.4948 307.704 79.2933 308.545 79.2933ZM308.528 80.5733C307.781 80.5733 307.188 80.8163 306.75 81.3022C306.323 81.7763 306.068 82.44 305.985 83.2933H310.839C310.827 82.4874 310.637 81.8356 310.27 81.3378C309.902 80.8281 309.322 80.5733 308.528 80.5733ZM322.896 89.1778C321.711 89.1778 320.763 88.7689 320.051 87.9511C319.34 87.1215 318.985 85.8889 318.985 84.2533C318.985 82.6178 319.34 81.3852 320.051 80.5556C320.774 79.7141 321.728 79.2933 322.914 79.2933C323.648 79.2933 324.247 79.4296 324.709 79.7022C325.183 79.9748 325.568 80.3067 325.865 80.6978H325.971C325.96 80.5437 325.936 80.3185 325.9 80.0222C325.877 79.7141 325.865 79.4711 325.865 79.2933V75.4889H327.429V89H326.167L325.936 87.72H325.865C325.58 88.123 325.201 88.4667 324.727 88.7511C324.253 89.0356 323.643 89.1778 322.896 89.1778ZM323.145 87.88C324.152 87.88 324.857 87.6074 325.26 87.0622C325.675 86.5052 325.883 85.6696 325.883 84.5556V84.2711C325.883 83.0859 325.687 82.1793 325.296 81.5511C324.905 80.9111 324.182 80.5911 323.127 80.5911C322.285 80.5911 321.651 80.9289 321.225 81.6044C320.81 82.2681 320.603 83.163 320.603 84.2889C320.603 85.4267 320.81 86.3096 321.225 86.9378C321.651 87.5659 322.291 87.88 323.145 87.88ZM334.136 79.2933C334.953 79.2933 335.653 79.4711 336.233 79.8267C336.826 80.1822 337.276 80.6859 337.584 81.3378C337.904 81.9778 338.064 82.7304 338.064 83.5956V84.5378H331.54C331.564 85.6163 331.836 86.44 332.358 87.0089C332.891 87.5659 333.632 87.8444 334.58 87.8444C335.184 87.8444 335.718 87.7911 336.18 87.6844C336.654 87.5659 337.14 87.4 337.638 87.1867V88.5556C337.152 88.7689 336.672 88.923 336.198 89.0178C335.724 89.1244 335.161 89.1778 334.509 89.1778C333.608 89.1778 332.808 88.9941 332.109 88.6267C331.421 88.2593 330.882 87.7141 330.491 86.9911C330.112 86.2563 329.922 85.3615 329.922 84.3067C329.922 83.2637 330.094 82.3689 330.438 81.6222C330.793 80.8756 331.285 80.3007 331.913 79.8978C332.553 79.4948 333.294 79.2933 334.136 79.2933ZM334.118 80.5733C333.371 80.5733 332.779 80.8163 332.34 81.3022C331.913 81.7763 331.659 82.44 331.576 83.2933H336.429C336.417 82.4874 336.227 81.8356 335.86 81.3378C335.493 80.8281 334.912 80.5733 334.118 80.5733ZM355.562 79.2933C356.64 79.2933 357.446 79.5719 357.979 80.1289C358.513 80.6741 358.779 81.563 358.779 82.7956V89H357.233V82.8667C357.233 81.3615 356.587 80.6089 355.295 80.6089C354.371 80.6089 353.707 80.8756 353.304 81.4089C352.913 81.9422 352.717 82.7185 352.717 83.7378V89H351.171V82.8667C351.171 81.3615 350.519 80.6089 349.215 80.6089C348.255 80.6089 347.591 80.9052 347.224 81.4978C346.856 82.0904 346.673 82.9437 346.673 84.0578V89H345.108V79.4711H346.371L346.602 80.7689H346.691C346.987 80.2711 347.384 79.9037 347.882 79.6667C348.391 79.4178 348.931 79.2933 349.499 79.2933C350.993 79.2933 351.965 79.8267 352.415 80.8933H352.504C352.824 80.3481 353.256 79.9452 353.802 79.6844C354.359 79.4237 354.945 79.2933 355.562 79.2933ZM365.403 79.2933C366.221 79.2933 366.92 79.4711 367.501 79.8267C368.093 80.1822 368.544 80.6859 368.852 81.3378C369.172 81.9778 369.332 82.7304 369.332 83.5956V84.5378H362.807C362.831 85.6163 363.104 86.44 363.625 87.0089C364.158 87.5659 364.899 87.8444 365.847 87.8444C366.452 87.8444 366.985 87.7911 367.447 87.6844C367.921 87.5659 368.407 87.4 368.905 87.1867V88.5556C368.419 88.7689 367.939 88.923 367.465 89.0178C366.991 89.1244 366.428 89.1778 365.776 89.1778C364.876 89.1778 364.076 88.9941 363.376 88.6267C362.689 88.2593 362.15 87.7141 361.758 86.9911C361.379 86.2563 361.19 85.3615 361.19 84.3067C361.19 83.2637 361.361 82.3689 361.705 81.6222C362.061 80.8756 362.553 80.3007 363.181 79.8978C363.821 79.4948 364.561 79.2933 365.403 79.2933ZM365.385 80.5733C364.638 80.5733 364.046 80.8163 363.607 81.3022C363.181 81.7763 362.926 82.44 362.843 83.2933H367.696C367.684 82.4874 367.495 81.8356 367.127 81.3378C366.76 80.8281 366.179 80.5733 365.385 80.5733ZM377.962 86.3689C377.962 87.2933 377.618 87.9926 376.931 88.4667C376.244 88.9407 375.319 89.1778 374.158 89.1778C373.494 89.1778 372.919 89.1244 372.433 89.0178C371.959 88.9111 371.538 88.763 371.171 88.5733V87.1511C371.55 87.3407 372.007 87.5185 372.54 87.6844C373.085 87.8385 373.636 87.9156 374.193 87.9156C374.987 87.9156 375.562 87.7911 375.918 87.5422C376.273 87.2815 376.451 86.9378 376.451 86.5111C376.451 86.2741 376.386 86.0607 376.255 85.8711C376.125 85.6815 375.888 85.4919 375.544 85.3022C375.212 85.1126 374.732 84.8993 374.104 84.6622C373.488 84.4252 372.961 84.1881 372.522 83.9511C372.084 83.7141 371.746 83.4296 371.509 83.0978C371.272 82.7659 371.153 82.3393 371.153 81.8178C371.153 81.0119 371.479 80.3896 372.131 79.9511C372.795 79.5126 373.66 79.2933 374.727 79.2933C375.307 79.2933 375.847 79.3526 376.344 79.4711C376.854 79.5778 377.328 79.7319 377.767 79.9333L377.233 81.1778C376.83 81.0119 376.41 80.8696 375.971 80.7511C375.532 80.6326 375.082 80.5733 374.62 80.5733C373.98 80.5733 373.488 80.68 373.144 80.8933C372.812 81.0948 372.647 81.3733 372.647 81.7289C372.647 81.9896 372.724 82.2148 372.878 82.4044C373.032 82.5822 373.287 82.76 373.642 82.9378C374.01 83.1037 374.495 83.3052 375.1 83.5422C375.704 83.7674 376.22 83.9985 376.647 84.2356C377.073 84.4726 377.399 84.763 377.624 85.1067C377.85 85.4385 377.962 85.8593 377.962 86.3689ZM386.469 86.3689C386.469 87.2933 386.125 87.9926 385.438 88.4667C384.751 88.9407 383.826 89.1778 382.665 89.1778C382.001 89.1778 381.426 89.1244 380.94 89.0178C380.466 88.9111 380.045 88.763 379.678 88.5733V87.1511C380.057 87.3407 380.513 87.5185 381.047 87.6844C381.592 87.8385 382.143 87.9156 382.7 87.9156C383.494 87.9156 384.069 87.7911 384.425 87.5422C384.78 87.2815 384.958 86.9378 384.958 86.5111C384.958 86.2741 384.893 86.0607 384.762 85.8711C384.632 85.6815 384.395 85.4919 384.051 85.3022C383.719 85.1126 383.239 84.8993 382.611 84.6622C381.995 84.4252 381.468 84.1881 381.029 83.9511C380.591 83.7141 380.253 83.4296 380.016 83.0978C379.779 82.7659 379.66 82.3393 379.66 81.8178C379.66 81.0119 379.986 80.3896 380.638 79.9511C381.302 79.5126 382.167 79.2933 383.233 79.2933C383.814 79.2933 384.353 79.3526 384.851 79.4711C385.361 79.5778 385.835 79.7319 386.273 79.9333L385.74 81.1778C385.337 81.0119 384.916 80.8696 384.478 80.7511C384.039 80.6326 383.589 80.5733 383.127 80.5733C382.487 80.5733 381.995 80.68 381.651 80.8933C381.319 81.0948 381.153 81.3733 381.153 81.7289C381.153 81.9896 381.231 82.2148 381.385 82.4044C381.539 82.5822 381.793 82.76 382.149 82.9378C382.516 83.1037 383.002 83.3052 383.607 83.5422C384.211 83.7674 384.727 83.9985 385.153 84.2356C385.58 84.4726 385.906 84.763 386.131 85.1067C386.356 85.4385 386.469 85.8593 386.469 86.3689ZM392.38 79.3111C393.542 79.3111 394.401 79.5659 394.958 80.0756C395.515 80.5852 395.794 81.397 395.794 82.5111V89H394.656L394.354 87.6489H394.283C393.868 88.1704 393.429 88.5556 392.967 88.8044C392.517 89.0533 391.889 89.1778 391.083 89.1778C390.217 89.1778 389.5 88.9526 388.932 88.5022C388.363 88.04 388.078 87.323 388.078 86.3511C388.078 85.403 388.452 84.6741 389.198 84.1644C389.945 83.643 391.095 83.3585 392.647 83.3111L394.265 83.2578V82.6889C394.265 81.8948 394.093 81.3437 393.749 81.0356C393.406 80.7274 392.92 80.5733 392.292 80.5733C391.794 80.5733 391.32 80.6504 390.869 80.8044C390.419 80.9467 389.998 81.1126 389.607 81.3022L389.127 80.1289C389.542 79.9037 390.034 79.7141 390.603 79.56C391.172 79.3941 391.764 79.3111 392.38 79.3111ZM392.843 84.3956C391.657 84.443 390.834 84.6326 390.372 84.9644C389.921 85.2963 389.696 85.7644 389.696 86.3689C389.696 86.9022 389.856 87.2933 390.176 87.5422C390.508 87.7911 390.929 87.9156 391.438 87.9156C392.244 87.9156 392.914 87.6963 393.447 87.2578C393.98 86.8074 394.247 86.12 394.247 85.1956V84.3422L392.843 84.3956ZM402.115 79.2933C402.743 79.2933 403.306 79.4119 403.803 79.6489C404.313 79.8859 404.746 80.2474 405.101 80.7333H405.19L405.403 79.4711H406.648V89.16C406.648 90.523 406.298 91.5481 405.599 92.2356C404.912 92.923 403.839 93.2667 402.381 93.2667C400.983 93.2667 399.839 93.0652 398.95 92.6622V91.2222C399.886 91.72 401.06 91.9689 402.47 91.9689C403.288 91.9689 403.928 91.7259 404.39 91.24C404.864 90.7659 405.101 90.1141 405.101 89.2844V88.9111C405.101 88.7689 405.107 88.5674 405.119 88.3067C405.131 88.0341 405.143 87.8444 405.155 87.7378H405.083C404.443 88.6978 403.46 89.1778 402.132 89.1778C400.9 89.1778 399.934 88.7452 399.235 87.88C398.547 87.0148 398.203 85.8059 398.203 84.2533C398.203 82.7363 398.547 81.5333 399.235 80.6444C399.934 79.7437 400.894 79.2933 402.115 79.2933ZM402.328 80.6089C401.534 80.6089 400.918 80.9289 400.479 81.5689C400.041 82.197 399.821 83.0978 399.821 84.2711C399.821 85.4444 400.035 86.3452 400.461 86.9733C400.9 87.5896 401.534 87.8978 402.363 87.8978C403.323 87.8978 404.023 87.643 404.461 87.1333C404.9 86.6119 405.119 85.7763 405.119 84.6267V84.2533C405.119 82.9496 404.894 82.0193 404.443 81.4622C403.993 80.8933 403.288 80.6089 402.328 80.6089ZM413.354 79.2933C414.172 79.2933 414.871 79.4711 415.452 79.8267C416.045 80.1822 416.495 80.6859 416.803 81.3378C417.123 81.9778 417.283 82.7304 417.283 83.5956V84.5378H410.759C410.782 85.6163 411.055 86.44 411.577 87.0089C412.11 87.5659 412.851 87.8444 413.799 87.8444C414.403 87.8444 414.937 87.7911 415.399 87.6844C415.873 87.5659 416.359 87.4 416.857 87.1867V88.5556C416.371 88.7689 415.891 88.923 415.417 89.0178C414.942 89.1244 414.38 89.1778 413.728 89.1778C412.827 89.1778 412.027 88.9941 411.328 88.6267C410.64 88.2593 410.101 87.7141 409.71 86.9911C409.331 86.2563 409.141 85.3615 409.141 84.3067C409.141 83.2637 409.313 82.3689 409.657 81.6222C410.012 80.8756 410.504 80.3007 411.132 79.8978C411.772 79.4948 412.513 79.2933 413.354 79.2933ZM413.337 80.5733C412.59 80.5733 411.997 80.8163 411.559 81.3022C411.132 81.7763 410.877 82.44 410.794 83.2933H415.648C415.636 82.4874 415.446 81.8356 415.079 81.3378C414.711 80.8281 414.131 80.5733 413.337 80.5733ZM419.478 88.04C419.478 87.6015 419.585 87.2933 419.798 87.1156C420.011 86.9378 420.266 86.8489 420.562 86.8489C420.871 86.8489 421.131 86.9378 421.345 87.1156C421.57 87.2933 421.682 87.6015 421.682 88.04C421.682 88.4667 421.57 88.7748 421.345 88.9644C421.131 89.1541 420.871 89.2489 420.562 89.2489C420.266 89.2489 420.011 89.1541 419.798 88.9644C419.585 88.7748 419.478 88.4667 419.478 88.04Z" fill="#545961"/>
<g clip-path="url(#clip0_6976_17926)">
<rect x="430" y="81" width="30" height="1" fill="#C54600"/>
<g clip-path="url(#clip1_6976_17926)">
<rect x="460" y="69" width="24" height="24" rx="12" fill="#C54600"/>
<path d="M467.927 84.2102V82.5149L472.178 75.8182H473.639V78.1648H472.774L470.095 82.4055V82.4851H476.135V84.2102H467.927ZM472.814 86V83.6932L472.854 82.9425V75.8182H474.872V86H472.814Z" fill="white"/>
</g>
</g>
<g clip-path="url(#clip2_6976_17926)">
<rect x="158" y="55" width="81" height="1" fill="#C54600"/>
<g clip-path="url(#clip3_6976_17926)">
<rect x="227" y="43" width="24" height="24" rx="12" fill="#C54600"/>
<path d="M238.975 60.1392C238.232 60.1392 237.571 60.0116 236.991 59.7564C236.414 59.4979 235.958 59.1432 235.624 58.6925C235.292 58.2384 235.122 57.7147 235.112 57.1214H237.279C237.292 57.37 237.374 57.5888 237.523 57.7777C237.675 57.9633 237.877 58.1075 238.129 58.2102C238.381 58.313 238.665 58.3643 238.979 58.3643C239.308 58.3643 239.598 58.3063 239.85 58.1903C240.101 58.0743 240.299 57.9136 240.441 57.7081C240.584 57.5026 240.655 57.2656 240.655 56.9972C240.655 56.7254 240.579 56.4851 240.426 56.2763C240.277 56.0642 240.062 55.8984 239.78 55.7791C239.502 55.6598 239.17 55.6001 238.786 55.6001H237.836V54.0192H238.786C239.11 54.0192 239.397 53.9628 239.646 53.8501C239.898 53.7375 240.093 53.5817 240.232 53.3828C240.372 53.1806 240.441 52.9453 240.441 52.6768C240.441 52.4216 240.38 52.1979 240.257 52.0057C240.138 51.8101 239.969 51.6577 239.75 51.5483C239.535 51.4389 239.283 51.3842 238.994 51.3842C238.703 51.3842 238.436 51.4373 238.194 51.5433C237.952 51.6461 237.758 51.7936 237.612 51.9858C237.466 52.178 237.389 52.4034 237.379 52.6619H235.315C235.325 52.0753 235.493 51.5582 235.818 51.1108C236.142 50.6634 236.58 50.3137 237.13 50.0618C237.684 49.8066 238.308 49.679 239.004 49.679C239.707 49.679 240.322 49.8066 240.849 50.0618C241.376 50.317 241.785 50.6617 242.077 51.0959C242.372 51.5268 242.518 52.0107 242.514 52.5476C242.518 53.1177 242.34 53.5933 241.982 53.9744C241.628 54.3556 241.165 54.5975 240.595 54.7003V54.7798C241.344 54.8759 241.914 55.1361 242.305 55.5604C242.7 55.9813 242.895 56.5083 242.892 57.1413C242.895 57.7214 242.728 58.2367 242.39 58.6875C242.055 59.1383 241.593 59.4929 241.003 59.7514C240.413 60.0099 239.737 60.1392 238.975 60.1392Z" fill="white"/>
</g>
</g>
<g clip-path="url(#clip4_6976_17926)">
<rect y="55" width="53" height="1" fill="#C54600"/>
<g clip-path="url(#clip5_6976_17926)">
<rect y="43" width="24" height="24" rx="12" fill="#C54600"/>
<path d="M13.8302 49.8182V60H11.6775V51.8615H11.6178L9.28613 53.3232V51.4141L11.8067 49.8182H13.8302Z" fill="white"/>
</g>
</g>
<rect width="50" height="1" transform="matrix(0 -1 -1 0 75.5 57.5)" fill="#C54600"/>
<g clip-path="url(#clip6_6976_17926)">
<rect x="63" width="24" height="24" rx="12" fill="#C54600"/>
<path d="M71.4161 17V15.4489L75.0404 12.093C75.3486 11.7947 75.6072 11.5263 75.816 11.2876C76.0281 11.049 76.1888 10.8153 76.2982 10.5866C76.4076 10.3546 76.4623 10.1044 76.4623 9.83594C76.4623 9.53764 76.3943 9.28078 76.2584 9.06534C76.1225 8.84659 75.9369 8.67921 75.7016 8.56321C75.4663 8.44389 75.1995 8.38423 74.9012 8.38423C74.5896 8.38423 74.3179 8.44721 74.0858 8.57315C73.8538 8.6991 73.6749 8.87973 73.5489 9.11506C73.423 9.35038 73.36 9.63044 73.36 9.95526H71.3167C71.3167 9.28906 71.4675 8.7107 71.7691 8.22017C72.0707 7.72964 72.4933 7.35014 73.0368 7.08168C73.5804 6.81321 74.2068 6.67898 74.9161 6.67898C75.6453 6.67898 76.28 6.80824 76.8202 7.06676C77.3638 7.32197 77.7864 7.67661 78.088 8.13068C78.3896 8.58475 78.5404 9.10511 78.5404 9.69176C78.5404 10.0762 78.4642 10.4557 78.3117 10.8303C78.1626 11.2048 77.8957 11.6207 77.5113 12.0781C77.1268 12.5322 76.5849 13.0774 75.8856 13.7138L74.3991 15.1705V15.2401H78.6746V17H71.4161Z" fill="white"/>
</g>
<defs>
<clipPath id="clip0_6976_17926">
<rect width="54" height="24" fill="white" transform="translate(430 69)"/>
</clipPath>
<clipPath id="clip1_6976_17926">
<rect x="460" y="69" width="24" height="24" rx="12" fill="white"/>
</clipPath>
<clipPath id="clip2_6976_17926">
<rect width="81" height="24" fill="white" transform="translate(182 43)"/>
</clipPath>
<clipPath id="clip3_6976_17926">
<rect x="227" y="43" width="24" height="24" rx="12" fill="white"/>
</clipPath>
<clipPath id="clip4_6976_17926">
<rect width="53" height="24" fill="white" transform="translate(0 43)"/>
</clipPath>
<clipPath id="clip5_6976_17926">
<rect y="43" width="24" height="24" rx="12" fill="white"/>
</clipPath>
<clipPath id="clip6_6976_17926">
<rect x="63" width="24" height="24" rx="12" fill="white"/>
</clipPath>
</defs>
</svg>
