<svg width="1480" height="433" viewBox="0 0 1480 433" fill="none" xmlns="http://www.w3.org/2000/svg">
<g clip-path="url(#clip0_7509_4665)">
<rect width="1440" height="225" transform="translate(20 104)" fill="white"/>
<g clip-path="url(#clip1_7509_4665)">
<rect x="170" y="104" width="51" height="1024" fill="#FF0000" fill-opacity="0.1"/>
<rect x="269" y="104" width="51" height="1024" fill="#FF0000" fill-opacity="0.1"/>
<rect x="368" y="104" width="51" height="1024" fill="#FF0000" fill-opacity="0.1"/>
<rect x="467" y="104" width="51" height="1024" fill="#FF0000" fill-opacity="0.1"/>
<rect x="566" y="104" width="51" height="1024" fill="#FF0000" fill-opacity="0.1"/>
<rect x="665" y="104" width="51" height="1024" fill="#FF0000" fill-opacity="0.1"/>
<rect x="764" y="104" width="51" height="1024" fill="#FF0000" fill-opacity="0.1"/>
<rect x="863" y="104" width="51" height="1024" fill="#FF0000" fill-opacity="0.1"/>
<rect x="962" y="104" width="51" height="1024" fill="#FF0000" fill-opacity="0.1"/>
<rect x="1061" y="104" width="51" height="1024" fill="#FF0000" fill-opacity="0.1"/>
<rect x="1160" y="104" width="51" height="1024" fill="#FF0000" fill-opacity="0.1"/>
<rect x="1259" y="104" width="51" height="1024" fill="#FF0000" fill-opacity="0.1"/>
</g>
</g>
<g clip-path="url(#clip2_7509_4665)">
<rect x="1161" y="366" width="35" height="1" transform="rotate(-90 1161 366)" fill="#C54600"/>
<rect x="1115" y="366" width="0.999998" height="47" transform="rotate(-90 1115 366)" fill="#C54600"/>
<rect x="1115" y="366" width="35" height="1" transform="rotate(-90 1115 366)" fill="#C54600"/>
<rect x="1139" y="411" width="45" height="1" transform="rotate(-90 1139 411)" fill="#C54600"/>
<g clip-path="url(#clip3_7509_4665)">
<rect x="1128" y="389" width="24" height="24" rx="12" fill="#C54600"/>
<path d="M1139.97 406.139C1139.23 406.139 1138.57 406.012 1137.99 405.756C1137.41 405.498 1136.96 405.143 1136.62 404.692C1136.29 404.238 1136.12 403.715 1136.11 403.121H1138.28C1138.29 403.37 1138.37 403.589 1138.52 403.778C1138.68 403.963 1138.88 404.107 1139.13 404.21C1139.38 404.313 1139.66 404.364 1139.98 404.364C1140.31 404.364 1140.6 404.306 1140.85 404.19C1141.1 404.074 1141.3 403.914 1141.44 403.708C1141.58 403.503 1141.65 403.266 1141.65 402.997C1141.65 402.725 1141.58 402.485 1141.43 402.276C1141.28 402.064 1141.06 401.898 1140.78 401.779C1140.5 401.66 1140.17 401.6 1139.79 401.6H1138.84V400.019H1139.79C1140.11 400.019 1140.4 399.963 1140.65 399.85C1140.9 399.737 1141.09 399.582 1141.23 399.383C1141.37 399.181 1141.44 398.945 1141.44 398.677C1141.44 398.422 1141.38 398.198 1141.26 398.006C1141.14 397.81 1140.97 397.658 1140.75 397.548C1140.53 397.439 1140.28 397.384 1139.99 397.384C1139.7 397.384 1139.44 397.437 1139.19 397.543C1138.95 397.646 1138.76 397.794 1138.61 397.986C1138.47 398.178 1138.39 398.403 1138.38 398.662H1136.32C1136.33 398.075 1136.49 397.558 1136.82 397.111C1137.14 396.663 1137.58 396.314 1138.13 396.062C1138.68 395.807 1139.31 395.679 1140 395.679C1140.71 395.679 1141.32 395.807 1141.85 396.062C1142.38 396.317 1142.79 396.662 1143.08 397.096C1143.37 397.527 1143.52 398.011 1143.51 398.548C1143.52 399.118 1143.34 399.593 1142.98 399.974C1142.63 400.356 1142.17 400.598 1141.6 400.7V400.78C1142.34 400.876 1142.91 401.136 1143.31 401.56C1143.7 401.981 1143.9 402.508 1143.89 403.141C1143.9 403.721 1143.73 404.237 1143.39 404.688C1143.06 405.138 1142.59 405.493 1142 405.751C1141.41 406.01 1140.74 406.139 1139.97 406.139Z" fill="white"/>
</g>
</g>
<g clip-path="url(#clip4_7509_4665)">
<rect x="171" y="67" width="35" height="1" transform="rotate(90 171 67)" fill="#C54600"/>
<rect x="1309" y="67" width="0.999986" height="1138" transform="rotate(90 1309 67)" fill="#C54600"/>
<rect x="1310" y="67" width="35" height="1" transform="rotate(90 1310 67)" fill="#C54600"/>
<rect x="747" y="22" width="45" height="1" transform="rotate(90 747 22)" fill="#C54600"/>
<g clip-path="url(#clip5_7509_4665)">
<rect x="758" y="44" width="24" height="24" rx="12" transform="rotate(-180 758 44)" fill="#C54600"/>
<path d="M747.83 26.8182V37H745.677V28.8615H745.618L743.286 30.3232V28.4141L745.807 26.8182H747.83Z" fill="white"/>
</g>
</g>
<g clip-path="url(#clip6_7509_4665)">
<rect x="295" y="323" width="1" height="90" fill="#C54600"/>
<g clip-path="url(#clip7_7509_4665)">
<rect x="283" y="389" width="24" height="24" rx="12" fill="#C54600"/>
<path d="M292.271 405V404.233L295.151 401.08C295.489 400.71 295.768 400.389 295.987 400.116C296.205 399.841 296.367 399.582 296.472 399.341C296.58 399.097 296.634 398.841 296.634 398.574C296.634 398.267 296.56 398.001 296.413 397.777C296.268 397.553 296.069 397.379 295.816 397.257C295.563 397.135 295.279 397.074 294.964 397.074C294.629 397.074 294.336 397.143 294.086 397.283C293.839 397.419 293.647 397.611 293.511 397.858C293.377 398.105 293.31 398.395 293.31 398.727H292.305C292.305 398.216 292.423 397.767 292.658 397.381C292.894 396.994 293.215 396.693 293.621 396.477C294.031 396.261 294.489 396.153 294.998 396.153C295.509 396.153 295.962 396.261 296.357 396.477C296.752 396.693 297.062 396.984 297.286 397.351C297.511 397.717 297.623 398.125 297.623 398.574C297.623 398.895 297.565 399.209 297.448 399.516C297.335 399.82 297.136 400.159 296.852 400.534C296.57 400.906 296.18 401.361 295.68 401.898L293.719 403.994V404.062H297.776V405H292.271Z" fill="white"/>
</g>
</g>
<defs>
<clipPath id="clip0_7509_4665">
<rect width="1440" height="225" fill="white" transform="translate(20 104)"/>
</clipPath>
<clipPath id="clip1_7509_4665">
<rect width="1440" height="1024" fill="white" transform="translate(20 104)"/>
</clipPath>
<clipPath id="clip2_7509_4665">
<rect width="71" height="118" fill="white" transform="translate(1087 413) rotate(-90)"/>
</clipPath>
<clipPath id="clip3_7509_4665">
<rect x="1128" y="389" width="24" height="24" rx="12" fill="white"/>
</clipPath>
<clipPath id="clip4_7509_4665">
<rect width="71" height="1140" fill="white" transform="translate(1310 20) rotate(90)"/>
</clipPath>
<clipPath id="clip5_7509_4665">
<rect x="758" y="44" width="24" height="24" rx="12" transform="rotate(-180 758 44)" fill="white"/>
</clipPath>
<clipPath id="clip6_7509_4665">
<rect width="24" height="90" fill="white" transform="translate(283 323)"/>
</clipPath>
<clipPath id="clip7_7509_4665">
<rect x="283" y="389" width="24" height="24" rx="12" fill="white"/>
</clipPath>
</defs>
</svg>
