<svg width="405" height="125" viewBox="0 0 405 125" fill="none" xmlns="http://www.w3.org/2000/svg">
<path d="M38 73C45.732 73 52 79.268 52 87C52 94.732 45.732 101 38 101C30.268 101 24 94.732 24 87C24 79.268 30.268 73 38 73ZM36.5996 94H39.4004L39.3994 85.5996H36.5996V94ZM36.5996 82.7998H39.4004L39.3994 80H36.5996V82.7998Z" fill="#333333"/>
<path d="M84.5272 79.9171H77.9206V98H75.1726V79.9171H68.5517V77.5962H84.5272V79.9171ZM93.1344 89.2148C93.1344 88.6263 93.049 88.09 92.8781 87.6059C92.7168 87.1123 92.4747 86.6899 92.152 86.3387C91.8387 85.978 91.4543 85.7027 90.9986 85.5128C90.543 85.3135 90.0257 85.2138 89.4467 85.2138C88.2316 85.2138 87.2682 85.5698 86.5562 86.2817C85.8538 86.9841 85.4172 87.9619 85.2463 89.2148H93.1344ZM95.1848 95.9781C94.8715 96.3578 94.4966 96.6901 94.0599 96.9748C93.6233 97.2501 93.1534 97.4779 92.6503 97.6583C92.1567 97.8386 91.6441 97.9715 91.1126 98.057C90.581 98.1519 90.0542 98.1993 89.5321 98.1993C88.5354 98.1993 87.6146 98.0332 86.7698 97.701C85.9345 97.3593 85.2083 96.8657 84.5913 96.2202C83.9838 95.5652 83.5092 94.7584 83.1675 93.7996C82.8257 92.8409 82.6549 91.7398 82.6549 90.4963C82.6549 89.4901 82.8068 88.5504 83.1105 87.6771C83.4238 86.8038 83.8699 86.0492 84.4489 85.4132C85.028 84.7677 85.7351 84.2646 86.5705 83.9039C87.4058 83.5337 88.3455 83.3486 89.3897 83.3486C90.2535 83.3486 91.0509 83.4957 91.7818 83.79C92.5222 84.0747 93.1582 84.4924 93.6897 85.043C94.2308 85.584 94.6532 86.258 94.9569 87.0648C95.2607 87.8622 95.4126 88.7735 95.4126 89.7986C95.4126 90.1973 95.3699 90.4631 95.2844 90.596C95.199 90.7289 95.0376 90.7953 94.8003 90.7953H85.1609C85.1893 91.7066 85.3127 92.4992 85.5311 93.1731C85.7589 93.8471 86.0721 94.4119 86.4708 94.8675C86.8695 95.3137 87.3441 95.6506 87.8947 95.8785C88.4452 96.0968 89.0622 96.2059 89.7457 96.2059C90.3816 96.2059 90.9275 96.1348 91.3831 95.9924C91.8482 95.8405 92.2469 95.6791 92.5791 95.5083C92.9114 95.3374 93.1866 95.1808 93.405 95.0384C93.6328 94.8865 93.8274 94.8106 93.9887 94.8106C94.1976 94.8106 94.3589 94.8913 94.4728 95.0526L95.1848 95.9781ZM110.177 98H107.743C107.534 98 107.368 97.9478 107.244 97.8434C107.13 97.7295 107.035 97.6061 106.96 97.4732L103.329 91.8205C103.291 91.9534 103.248 92.0863 103.201 92.2192C103.163 92.3426 103.106 92.4565 103.03 92.5609L99.6694 97.4732C99.5745 97.6061 99.4701 97.7295 99.3562 97.8434C99.2518 97.9478 99.1047 98 98.9148 98H96.6509L101.706 90.596L96.8502 83.5764H99.285C99.4938 83.5764 99.6457 83.6096 99.7406 83.6761C99.8356 83.7425 99.921 83.8374 99.9969 83.9608L103.542 89.3715C103.618 89.0962 103.737 88.8304 103.898 88.5741L107.002 84.0178C107.088 83.8849 107.178 83.7805 107.273 83.7045C107.377 83.6191 107.501 83.5764 107.643 83.5764H109.978L105.123 90.4678L110.177 98ZM116.942 98.2278C115.803 98.2278 114.925 97.9098 114.308 97.2738C113.7 96.6379 113.397 95.7218 113.397 94.5258V85.6979H111.66C111.508 85.6979 111.38 85.6552 111.275 85.5698C111.171 85.4749 111.119 85.3325 111.119 85.1426V84.1317L113.482 83.8327L114.066 79.376C114.094 79.2337 114.156 79.1197 114.251 79.0343C114.355 78.9394 114.488 78.8919 114.65 78.8919H115.931V83.8612H120.103V85.6979H115.931V94.3549C115.931 94.9625 116.078 95.4133 116.373 95.7076C116.667 96.0019 117.046 96.149 117.512 96.149C117.777 96.149 118.005 96.1158 118.195 96.0493C118.394 95.9734 118.565 95.8927 118.708 95.8073C118.85 95.7218 118.969 95.6459 119.064 95.5795C119.168 95.5035 119.258 95.4655 119.334 95.4655C119.467 95.4655 119.586 95.5462 119.69 95.7076L120.431 96.9179C119.994 97.326 119.467 97.6488 118.85 97.8861C118.233 98.1139 117.597 98.2278 116.942 98.2278ZM132.29 89.2148C132.29 88.6263 132.205 88.09 132.034 87.6059C131.873 87.1123 131.631 86.6899 131.308 86.3387C130.995 85.978 130.61 85.7027 130.155 85.5128C129.699 85.3135 129.182 85.2138 128.603 85.2138C127.388 85.2138 126.424 85.5698 125.712 86.2817C125.01 86.9841 124.573 87.9619 124.402 89.2148H132.29ZM134.341 95.9781C134.027 96.3578 133.652 96.6901 133.216 96.9748C132.779 97.2501 132.309 97.4779 131.806 97.6583C131.313 97.8386 130.8 97.9715 130.268 98.057C129.737 98.1519 129.21 98.1993 128.688 98.1993C127.691 98.1993 126.771 98.0332 125.926 97.701C125.09 97.3593 124.364 96.8657 123.747 96.2202C123.14 95.5652 122.665 94.7584 122.323 93.7996C121.982 92.8409 121.811 91.7398 121.811 90.4963C121.811 89.4901 121.963 88.5504 122.266 87.6771C122.58 86.8038 123.026 86.0492 123.605 85.4132C124.184 84.7677 124.891 84.2646 125.726 83.9039C126.562 83.5337 127.501 83.3486 128.546 83.3486C129.409 83.3486 130.207 83.4957 130.938 83.79C131.678 84.0747 132.314 84.4924 132.846 85.043C133.387 85.584 133.809 86.258 134.113 87.0648C134.417 87.8622 134.568 88.7735 134.568 89.7986C134.568 90.1973 134.526 90.4631 134.44 90.596C134.355 90.7289 134.194 90.7953 133.956 90.7953H124.317C124.345 91.7066 124.469 92.4992 124.687 93.1731C124.915 93.8471 125.228 94.4119 125.627 94.8675C126.025 95.3137 126.5 95.6506 127.051 95.8785C127.601 96.0968 128.218 96.2059 128.902 96.2059C129.538 96.2059 130.083 96.1348 130.539 95.9924C131.004 95.8405 131.403 95.6791 131.735 95.5083C132.067 95.3374 132.343 95.1808 132.561 95.0384C132.789 94.8865 132.983 94.8106 133.145 94.8106C133.353 94.8106 133.515 94.8913 133.629 95.0526L134.341 95.9781ZM154.365 87.0079C153.89 86.3719 153.378 85.9305 152.827 85.6837C152.277 85.4274 151.66 85.2993 150.976 85.2993C149.638 85.2993 148.608 85.7786 147.887 86.7373C147.165 87.6961 146.804 89.063 146.804 90.838C146.804 91.7778 146.885 92.5846 147.047 93.2586C147.208 93.923 147.445 94.4736 147.758 94.9102C148.072 95.3374 148.456 95.6506 148.912 95.85C149.367 96.0493 149.885 96.149 150.464 96.149C151.299 96.149 152.025 95.9591 152.642 95.5795C153.269 95.1998 153.843 94.6634 154.365 93.9705V87.0079ZM156.9 77.0267V98H155.39C155.03 98 154.802 97.8244 154.707 97.4732L154.479 95.7218C153.862 96.4622 153.16 97.0603 152.372 97.5159C151.584 97.9715 150.673 98.1993 149.638 98.1993C148.812 98.1993 148.062 98.0427 147.388 97.7295C146.714 97.4067 146.14 96.9369 145.665 96.3199C145.191 95.7029 144.825 94.934 144.569 94.0132C144.313 93.0925 144.185 92.0341 144.185 90.838C144.185 89.7749 144.327 88.7877 144.612 87.8764C144.896 86.9557 145.305 86.1583 145.836 85.4844C146.368 84.8104 147.018 84.2836 147.787 83.9039C148.565 83.5147 149.439 83.3201 150.407 83.3201C151.29 83.3201 152.044 83.472 152.671 83.7757C153.307 84.07 153.871 84.4829 154.365 85.0145V77.0267H156.9ZM162.654 76.2293C163.053 76.9033 163.323 77.6152 163.465 78.3651C163.608 79.115 163.622 79.8554 163.508 80.5863C163.394 81.3172 163.157 82.0197 162.796 82.6936C162.436 83.3676 161.956 83.9656 161.358 84.4877L160.589 83.9893C160.447 83.9039 160.38 83.7947 160.39 83.6618C160.409 83.5194 160.456 83.4055 160.532 83.3201C160.779 83.0164 160.988 82.6509 161.159 82.2237C161.339 81.7871 161.453 81.322 161.501 80.8284C161.558 80.3253 161.534 79.8079 161.429 79.2764C161.334 78.7448 161.14 78.2322 160.846 77.7386C160.722 77.5393 160.684 77.3637 160.732 77.2118C160.789 77.0504 160.907 76.9318 161.088 76.8558L162.654 76.2293ZM174.087 91.5072C172.919 91.5452 171.922 91.6401 171.097 91.792C170.28 91.9344 169.611 92.1242 169.089 92.3616C168.576 92.5989 168.201 92.8789 167.964 93.2016C167.736 93.5244 167.622 93.8851 167.622 94.2838C167.622 94.6634 167.684 94.9909 167.808 95.2662C167.931 95.5415 168.097 95.7693 168.306 95.9497C168.524 96.1205 168.776 96.2487 169.061 96.3341C169.355 96.41 169.668 96.448 170 96.448C170.446 96.448 170.855 96.4053 171.225 96.3199C171.595 96.2249 171.941 96.092 172.264 95.9212C172.596 95.7503 172.91 95.5462 173.204 95.3089C173.508 95.0716 173.802 94.8011 174.087 94.4973V91.5072ZM165.9 85.6125C166.697 84.8436 167.556 84.2693 168.477 83.8896C169.398 83.51 170.418 83.3201 171.538 83.3201C172.345 83.3201 173.062 83.453 173.688 83.7188C174.315 83.9846 174.841 84.3548 175.269 84.8294C175.696 85.304 176.018 85.8783 176.237 86.5522C176.455 87.2262 176.564 87.9666 176.564 88.7735V98H175.439C175.193 98 175.003 97.962 174.87 97.8861C174.737 97.8007 174.633 97.6393 174.557 97.402L174.272 96.0351C173.892 96.3863 173.522 96.6996 173.161 96.9748C172.801 97.2406 172.421 97.4684 172.022 97.6583C171.623 97.8386 171.196 97.9763 170.741 98.0712C170.295 98.1756 169.796 98.2278 169.246 98.2278C168.686 98.2278 168.159 98.1519 167.665 98C167.172 97.8386 166.74 97.6013 166.369 97.2881C166.009 96.9748 165.719 96.5809 165.501 96.1063C165.292 95.6222 165.188 95.0526 165.188 94.3977C165.188 93.8281 165.344 93.2823 165.658 92.7602C165.971 92.2287 166.479 91.7588 167.181 91.3506C167.884 90.9424 168.8 90.6102 169.929 90.3539C171.059 90.0881 172.445 89.9363 174.087 89.8983V88.7735C174.087 87.6534 173.845 86.8085 173.361 86.239C172.876 85.66 172.169 85.3705 171.239 85.3705C170.613 85.3705 170.086 85.4511 169.659 85.6125C169.241 85.7644 168.875 85.94 168.562 86.1393C168.258 86.3292 167.993 86.5048 167.765 86.6662C167.547 86.818 167.328 86.894 167.11 86.894C166.939 86.894 166.792 86.8513 166.668 86.7658C166.545 86.6709 166.441 86.557 166.355 86.4241L165.9 85.6125ZM190.463 86.1393C190.387 86.2437 190.311 86.3244 190.235 86.3814C190.159 86.4383 190.055 86.4668 189.922 86.4668C189.78 86.4668 189.623 86.4099 189.452 86.296C189.281 86.1726 189.068 86.0397 188.811 85.8973C188.565 85.7549 188.256 85.6267 187.886 85.5128C187.525 85.3894 187.079 85.3277 186.547 85.3277C185.836 85.3277 185.209 85.4559 184.668 85.7122C184.127 85.959 183.671 86.3197 183.301 86.7943C182.94 87.2689 182.665 87.8432 182.475 88.5172C182.295 89.1911 182.205 89.9458 182.205 90.7811C182.205 91.6544 182.304 92.4327 182.504 93.1162C182.703 93.7902 182.983 94.3597 183.344 94.8248C183.714 95.2804 184.155 95.6317 184.668 95.8785C185.19 96.1158 185.774 96.2344 186.419 96.2344C187.036 96.2344 187.544 96.1632 187.943 96.0208C188.341 95.869 188.669 95.7029 188.925 95.5225C189.191 95.3421 189.409 95.1808 189.58 95.0384C189.761 94.8865 189.936 94.8106 190.107 94.8106C190.316 94.8106 190.477 94.8913 190.591 95.0526L191.303 95.9781C190.99 96.3673 190.634 96.6996 190.235 96.9748C189.837 97.2501 189.405 97.4827 188.94 97.6725C188.484 97.8529 188.005 97.9858 187.501 98.0712C186.998 98.1566 186.486 98.1993 185.964 98.1993C185.062 98.1993 184.222 98.0332 183.443 97.701C182.675 97.3688 182.005 96.8894 181.436 96.2629C180.866 95.6269 180.42 94.8485 180.097 93.9278C179.775 93.007 179.613 91.9581 179.613 90.7811C179.613 89.7084 179.76 88.7165 180.055 87.8052C180.358 86.894 180.795 86.1109 181.365 85.4559C181.944 84.7914 182.651 84.2741 183.486 83.9039C184.331 83.5337 185.299 83.3486 186.391 83.3486C187.406 83.3486 188.299 83.5147 189.068 83.8469C189.846 84.1697 190.534 84.63 191.132 85.2281L190.463 86.1393ZM203.812 86.1393C203.736 86.2437 203.66 86.3244 203.584 86.3814C203.508 86.4383 203.403 86.4668 203.271 86.4668C203.128 86.4668 202.972 86.4099 202.801 86.296C202.63 86.1726 202.416 86.0397 202.16 85.8973C201.913 85.7549 201.605 85.6267 201.234 85.5128C200.874 85.3894 200.428 85.3277 199.896 85.3277C199.184 85.3277 198.558 85.4559 198.017 85.7122C197.475 85.959 197.02 86.3197 196.65 86.7943C196.289 87.2689 196.014 87.8432 195.824 88.5172C195.643 89.1911 195.553 89.9458 195.553 90.7811C195.553 91.6544 195.653 92.4327 195.852 93.1162C196.052 93.7902 196.332 94.3597 196.692 94.8248C197.063 95.2804 197.504 95.6317 198.017 95.8785C198.539 96.1158 199.122 96.2344 199.768 96.2344C200.385 96.2344 200.893 96.1632 201.291 96.0208C201.69 95.869 202.018 95.7029 202.274 95.5225C202.54 95.3421 202.758 95.1808 202.929 95.0384C203.109 94.8865 203.285 94.8106 203.456 94.8106C203.664 94.8106 203.826 94.8913 203.94 95.0526L204.652 95.9781C204.338 96.3673 203.982 96.6996 203.584 96.9748C203.185 97.2501 202.753 97.4827 202.288 97.6725C201.832 97.8529 201.353 97.9858 200.85 98.0712C200.347 98.1566 199.834 98.1993 199.312 98.1993C198.41 98.1993 197.57 98.0332 196.792 97.701C196.023 97.3688 195.354 96.8894 194.784 96.2629C194.215 95.6269 193.769 94.8485 193.446 93.9278C193.123 93.007 192.962 91.9581 192.962 90.7811C192.962 89.7084 193.109 88.7165 193.403 87.8052C193.707 86.894 194.144 86.1109 194.713 85.4559C195.292 84.7914 195.999 84.2741 196.835 83.9039C197.68 83.5337 198.648 83.3486 199.739 83.3486C200.755 83.3486 201.647 83.5147 202.416 83.8469C203.195 84.1697 203.883 84.63 204.481 85.2281L203.812 86.1393ZM213.202 83.3486C214.256 83.3486 215.205 83.5242 216.05 83.8754C216.894 84.2266 217.616 84.725 218.214 85.3705C218.812 86.0159 219.268 86.799 219.581 87.7198C219.903 88.6311 220.065 89.6515 220.065 90.7811C220.065 91.9202 219.903 92.9453 219.581 93.8566C219.268 94.7679 218.812 95.5462 218.214 96.1917C217.616 96.8372 216.894 97.3355 216.05 97.6868C215.205 98.0285 214.256 98.1993 213.202 98.1993C212.139 98.1993 211.18 98.0285 210.326 97.6868C209.481 97.3355 208.759 96.8372 208.161 96.1917C207.563 95.5462 207.103 94.7679 206.78 93.8566C206.467 92.9453 206.31 91.9202 206.31 90.7811C206.31 89.6515 206.467 88.6311 206.78 87.7198C207.103 86.799 207.563 86.0159 208.161 85.3705C208.759 84.725 209.481 84.2266 210.326 83.8754C211.18 83.5242 212.139 83.3486 213.202 83.3486ZM213.202 96.2202C214.626 96.2202 215.689 95.7456 216.391 94.7963C217.094 93.8376 217.445 92.5039 217.445 90.7953C217.445 89.0772 217.094 87.7388 216.391 86.7801C215.689 85.8213 214.626 85.342 213.202 85.342C212.48 85.342 211.849 85.4654 211.308 85.7122C210.777 85.959 210.33 86.3149 209.97 86.7801C209.619 87.2452 209.353 87.8195 209.172 88.5029C209.002 89.1769 208.916 89.941 208.916 90.7953C208.916 92.5039 209.267 93.8376 209.97 94.7963C210.682 95.7456 211.759 96.2202 213.202 96.2202ZM223.279 98V83.5764H224.803C225.164 83.5764 225.387 83.752 225.472 84.1032L225.657 85.584C226.189 84.9291 226.787 84.3927 227.451 83.9751C228.116 83.5574 228.885 83.3486 229.758 83.3486C230.726 83.3486 231.509 83.6191 232.107 84.1602C232.715 84.7012 233.151 85.4322 233.417 86.3529C233.626 85.8308 233.892 85.3799 234.215 85.0002C234.547 84.6206 234.917 84.3073 235.325 84.0605C235.733 83.8137 236.165 83.6334 236.621 83.5194C237.086 83.4055 237.556 83.3486 238.031 83.3486C238.79 83.3486 239.464 83.472 240.052 83.7188C240.65 83.9561 241.153 84.3073 241.562 84.7724C241.979 85.2376 242.297 85.8118 242.516 86.4953C242.734 87.1692 242.843 87.9429 242.843 88.8162V98H240.294V88.8162C240.294 87.6866 240.048 86.8323 239.554 86.2532C239.06 85.6647 238.349 85.3705 237.418 85.3705C237.001 85.3705 236.602 85.4464 236.222 85.5983C235.852 85.7407 235.525 85.9542 235.24 86.239C234.955 86.5238 234.727 86.8845 234.556 87.3211C234.395 87.7483 234.314 88.2466 234.314 88.8162V98H231.766V88.8162C231.766 87.6581 231.533 86.7943 231.068 86.2248C230.603 85.6552 229.924 85.3705 229.032 85.3705C228.405 85.3705 227.826 85.5413 227.295 85.883C226.763 86.2153 226.274 86.6709 225.828 87.2499V98H223.279ZM249.244 94.5258C249.709 95.1523 250.217 95.5937 250.767 95.85C251.318 96.1063 251.935 96.2344 252.618 96.2344C253.966 96.2344 255.001 95.7551 255.722 94.7963C256.444 93.8376 256.804 92.4707 256.804 90.6956C256.804 89.7559 256.719 88.9491 256.548 88.2751C256.387 87.6011 256.149 87.0506 255.836 86.6234C255.523 86.1868 255.139 85.8688 254.683 85.6695C254.227 85.4701 253.71 85.3705 253.131 85.3705C252.305 85.3705 251.579 85.5603 250.952 85.94C250.335 86.3197 249.766 86.856 249.244 87.5489V94.5258ZM249.116 85.8118C249.723 85.0619 250.426 84.4592 251.223 84.0036C252.02 83.5479 252.932 83.3201 253.957 83.3201C254.792 83.3201 255.547 83.4815 256.221 83.8042C256.895 84.1175 257.469 84.5873 257.943 85.2138C258.418 85.8308 258.784 86.5997 259.04 87.5205C259.296 88.4412 259.424 89.4996 259.424 90.6956C259.424 91.7588 259.282 92.7507 258.997 93.6715C258.712 94.5828 258.299 95.3754 257.758 96.0493C257.227 96.7138 256.572 97.2406 255.793 97.6298C255.025 98.0095 254.156 98.1993 253.188 98.1993C252.305 98.1993 251.546 98.0522 250.91 97.7579C250.283 97.4542 249.728 97.0365 249.244 96.505V102.884H246.695V83.5764H248.219C248.579 83.5764 248.802 83.752 248.888 84.1032L249.116 85.8118ZM270.475 91.5072C269.307 91.5452 268.31 91.6401 267.485 91.792C266.668 91.9344 265.999 92.1242 265.477 92.3616C264.964 92.5989 264.589 92.8789 264.352 93.2016C264.124 93.5244 264.01 93.8851 264.01 94.2838C264.01 94.6634 264.072 94.9909 264.196 95.2662C264.319 95.5415 264.485 95.7693 264.694 95.9497C264.912 96.1205 265.164 96.2487 265.449 96.3341C265.743 96.41 266.056 96.448 266.388 96.448C266.834 96.448 267.243 96.4053 267.613 96.3199C267.983 96.2249 268.329 96.092 268.652 95.9212C268.984 95.7503 269.298 95.5462 269.592 95.3089C269.896 95.0716 270.19 94.8011 270.475 94.4973V91.5072ZM262.288 85.6125C263.085 84.8436 263.944 84.2693 264.865 83.8896C265.785 83.51 266.806 83.3201 267.926 83.3201C268.733 83.3201 269.45 83.453 270.076 83.7188C270.703 83.9846 271.229 84.3548 271.657 84.8294C272.084 85.304 272.406 85.8783 272.625 86.5522C272.843 87.2262 272.952 87.9666 272.952 88.7735V98H271.827C271.581 98 271.391 97.962 271.258 97.8861C271.125 97.8007 271.021 97.6393 270.945 97.402L270.66 96.0351C270.28 96.3863 269.91 96.6996 269.549 96.9748C269.189 97.2406 268.809 97.4684 268.41 97.6583C268.011 97.8386 267.584 97.9763 267.129 98.0712C266.683 98.1756 266.184 98.2278 265.634 98.2278C265.074 98.2278 264.547 98.1519 264.053 98C263.56 97.8386 263.128 97.6013 262.757 97.2881C262.397 96.9748 262.107 96.5809 261.889 96.1063C261.68 95.6222 261.576 95.0526 261.576 94.3977C261.576 93.8281 261.732 93.2823 262.046 92.7602C262.359 92.2287 262.867 91.7588 263.569 91.3506C264.271 90.9424 265.187 90.6102 266.317 90.3539C267.447 90.0881 268.833 89.9363 270.475 89.8983V88.7735C270.475 87.6534 270.233 86.8085 269.749 86.239C269.264 85.66 268.557 85.3705 267.627 85.3705C267.001 85.3705 266.474 85.4511 266.047 85.6125C265.629 85.7644 265.263 85.94 264.95 86.1393C264.646 86.3292 264.381 86.5048 264.153 86.6662C263.934 86.818 263.716 86.894 263.498 86.894C263.327 86.894 263.18 86.8513 263.056 86.7658C262.933 86.6709 262.829 86.557 262.743 86.4241L262.288 85.6125ZM281.839 90.9519C282.352 90.9519 282.803 90.8807 283.192 90.7384C283.581 90.596 283.908 90.3966 284.174 90.1403C284.44 89.8841 284.639 89.5803 284.772 89.2291C284.905 88.8684 284.972 88.4744 284.972 88.0473C284.972 87.1645 284.701 86.4621 284.16 85.94C283.628 85.4179 282.855 85.1569 281.839 85.1569C280.814 85.1569 280.031 85.4179 279.49 85.94C278.958 86.4621 278.692 87.1645 278.692 88.0473C278.692 88.4744 278.759 88.8684 278.892 89.2291C279.034 89.5803 279.238 89.8841 279.504 90.1403C279.77 90.3966 280.097 90.596 280.486 90.7384C280.876 90.8807 281.326 90.9519 281.839 90.9519ZM286.41 98.7831C286.41 98.4319 286.31 98.1471 286.111 97.9288C285.911 97.7105 285.641 97.5396 285.299 97.4162C284.967 97.2928 284.578 97.2074 284.131 97.1599C283.685 97.103 283.211 97.0603 282.708 97.0318C282.214 97.0033 281.711 96.9748 281.198 96.9464C280.686 96.9179 280.192 96.8704 279.718 96.804C279.186 97.0508 278.749 97.364 278.408 97.7437C278.075 98.1139 277.909 98.5506 277.909 99.0536C277.909 99.3764 277.99 99.6754 278.151 99.9507C278.322 100.235 278.578 100.477 278.92 100.677C279.262 100.886 279.689 101.047 280.202 101.161C280.724 101.284 281.336 101.346 282.038 101.346C282.722 101.346 283.334 101.284 283.875 101.161C284.416 101.038 284.872 100.862 285.242 100.634C285.622 100.406 285.911 100.136 286.111 99.8225C286.31 99.5093 286.41 99.1628 286.41 98.7831ZM288.987 84.1459V85.0857C288.987 85.3989 288.787 85.5983 288.389 85.6837L286.751 85.8973C287.074 86.5238 287.235 87.2167 287.235 87.9761C287.235 88.6785 287.098 89.3193 286.823 89.8983C286.557 90.4678 286.187 90.9567 285.712 91.3649C285.237 91.773 284.668 92.0863 284.003 92.3046C283.339 92.5229 282.617 92.6321 281.839 92.6321C281.165 92.6321 280.529 92.5514 279.931 92.39C279.627 92.5799 279.395 92.784 279.233 93.0023C279.072 93.2111 278.991 93.4247 278.991 93.643C278.991 93.9847 279.129 94.2458 279.404 94.4261C279.689 94.597 280.059 94.7204 280.515 94.7963C280.97 94.8723 281.488 94.9197 282.067 94.9387C282.655 94.9577 283.253 94.9909 283.861 95.0384C284.478 95.0764 285.076 95.1476 285.655 95.252C286.243 95.3564 286.766 95.5272 287.221 95.7646C287.677 96.0019 288.042 96.3293 288.318 96.747C288.602 97.1647 288.745 97.7057 288.745 98.3702C288.745 98.9872 288.588 99.5852 288.275 100.164C287.971 100.743 287.53 101.256 286.951 101.702C286.372 102.158 285.66 102.518 284.815 102.784C283.98 103.059 283.035 103.197 281.981 103.197C280.928 103.197 280.007 103.093 279.219 102.884C278.431 102.675 277.776 102.395 277.254 102.044C276.732 101.693 276.338 101.284 276.072 100.819C275.816 100.364 275.688 99.8842 275.688 99.3811C275.688 98.6692 275.911 98.0664 276.357 97.5728C276.803 97.0792 277.416 96.6853 278.194 96.391C277.767 96.2012 277.425 95.9497 277.169 95.6364C276.922 95.3137 276.799 94.8818 276.799 94.3407C276.799 94.1319 276.837 93.9183 276.913 93.7C276.988 93.4722 277.102 93.2491 277.254 93.0308C277.416 92.8029 277.61 92.5894 277.838 92.39C278.066 92.1907 278.332 92.0151 278.635 91.8632C277.923 91.4645 277.368 90.9377 276.969 90.2827C276.571 89.6183 276.371 88.8494 276.371 87.9761C276.371 87.2737 276.504 86.6377 276.77 86.0681C277.045 85.4891 277.425 85.0002 277.909 84.6016C278.393 84.1934 278.968 83.8802 279.632 83.6618C280.306 83.4435 281.042 83.3343 281.839 83.3343C282.466 83.3343 283.049 83.4055 283.59 83.5479C284.131 83.6808 284.625 83.8802 285.071 84.1459H288.987ZM294 85.6695C294.313 85.3182 294.645 85.0002 294.996 84.7155C295.348 84.4307 295.718 84.1887 296.107 83.9893C296.506 83.7805 296.923 83.6239 297.36 83.5194C297.806 83.4055 298.285 83.3486 298.798 83.3486C299.586 83.3486 300.279 83.4815 300.877 83.7473C301.484 84.0036 301.987 84.3738 302.386 84.8579C302.794 85.3325 303.103 85.9068 303.312 86.5807C303.52 87.2547 303.625 87.9998 303.625 88.8162V98H301.076V88.8162C301.076 87.7245 300.825 86.8797 300.322 86.2817C299.828 85.6742 299.073 85.3705 298.058 85.3705C297.308 85.3705 296.605 85.5508 295.95 85.9115C295.305 86.2722 294.707 86.7611 294.156 87.3781V98H291.608V83.5764H293.131C293.492 83.5764 293.715 83.752 293.8 84.1032L294 85.6695ZM317.141 89.2148C317.141 88.6263 317.055 88.09 316.884 87.6059C316.723 87.1123 316.481 86.6899 316.158 86.3387C315.845 85.978 315.46 85.7027 315.005 85.5128C314.549 85.3135 314.032 85.2138 313.453 85.2138C312.238 85.2138 311.274 85.5698 310.562 86.2817C309.86 86.9841 309.423 87.9619 309.252 89.2148H317.141ZM319.191 95.9781C318.878 96.3578 318.503 96.6901 318.066 96.9748C317.629 97.2501 317.159 97.4779 316.656 97.6583C316.163 97.8386 315.65 97.9715 315.119 98.057C314.587 98.1519 314.06 98.1993 313.538 98.1993C312.541 98.1993 311.621 98.0332 310.776 97.701C309.941 97.3593 309.214 96.8657 308.597 96.2202C307.99 95.5652 307.515 94.7584 307.174 93.7996C306.832 92.8409 306.661 91.7398 306.661 90.4963C306.661 89.4901 306.813 88.5504 307.117 87.6771C307.43 86.8038 307.876 86.0492 308.455 85.4132C309.034 84.7677 309.741 84.2646 310.577 83.9039C311.412 83.5337 312.352 83.3486 313.396 83.3486C314.26 83.3486 315.057 83.4957 315.788 83.79C316.528 84.0747 317.164 84.4924 317.696 85.043C318.237 85.584 318.659 86.258 318.963 87.0648C319.267 87.8622 319.419 88.7735 319.419 89.7986C319.419 90.1973 319.376 90.4631 319.291 90.596C319.205 90.7289 319.044 90.7953 318.806 90.7953H309.167C309.195 91.7066 309.319 92.4992 309.537 93.1731C309.765 93.8471 310.078 94.4119 310.477 94.8675C310.876 95.3137 311.35 95.6506 311.901 95.8785C312.451 96.0968 313.068 96.2059 313.752 96.2059C314.388 96.2059 314.934 96.1348 315.389 95.9924C315.854 95.8405 316.253 95.6791 316.585 95.5083C316.917 95.3374 317.193 95.1808 317.411 95.0384C317.639 94.8865 317.833 94.8106 317.995 94.8106C318.204 94.8106 318.365 94.8913 318.479 95.0526L319.191 95.9781ZM322.532 98V83.5764H324.055C324.416 83.5764 324.639 83.752 324.725 84.1032L324.91 85.584C325.441 84.9291 326.039 84.3927 326.704 83.9751C327.368 83.5574 328.137 83.3486 329.01 83.3486C329.979 83.3486 330.762 83.6191 331.36 84.1602C331.967 84.7012 332.404 85.4322 332.67 86.3529C332.878 85.8308 333.144 85.3799 333.467 85.0002C333.799 84.6206 334.169 84.3073 334.578 84.0605C334.986 83.8137 335.418 83.6334 335.873 83.5194C336.338 83.4055 336.808 83.3486 337.283 83.3486C338.042 83.3486 338.716 83.472 339.305 83.7188C339.903 83.9561 340.406 84.3073 340.814 84.7724C341.232 85.2376 341.55 85.8118 341.768 86.4953C341.986 87.1692 342.095 87.9429 342.095 88.8162V98H339.547V88.8162C339.547 87.6866 339.3 86.8323 338.806 86.2532C338.313 85.6647 337.601 85.3705 336.671 85.3705C336.253 85.3705 335.854 85.4464 335.475 85.5983C335.104 85.7407 334.777 85.9542 334.492 86.239C334.207 86.5238 333.98 86.8845 333.809 87.3211C333.647 87.7483 333.567 88.2466 333.567 88.8162V98H331.018V88.8162C331.018 87.6581 330.785 86.7943 330.32 86.2248C329.855 85.6552 329.176 85.3705 328.284 85.3705C327.658 85.3705 327.079 85.5413 326.547 85.883C326.015 86.2153 325.527 86.6709 325.08 87.2499V98H322.532ZM355.601 89.2148C355.601 88.6263 355.516 88.09 355.345 87.6059C355.183 87.1123 354.941 86.6899 354.619 86.3387C354.305 85.978 353.921 85.7027 353.465 85.5128C353.01 85.3135 352.492 85.2138 351.913 85.2138C350.698 85.2138 349.735 85.5698 349.023 86.2817C348.321 86.9841 347.884 87.9619 347.713 89.2148H355.601ZM357.651 95.9781C357.338 96.3578 356.963 96.6901 356.527 96.9748C356.09 97.2501 355.62 97.4779 355.117 97.6583C354.623 97.8386 354.111 97.9715 353.579 98.057C353.048 98.1519 352.521 98.1993 351.999 98.1993C351.002 98.1993 350.081 98.0332 349.237 97.701C348.401 97.3593 347.675 96.8657 347.058 96.2202C346.451 95.5652 345.976 94.7584 345.634 93.7996C345.292 92.8409 345.122 91.7398 345.122 90.4963C345.122 89.4901 345.273 88.5504 345.577 87.6771C345.89 86.8038 346.337 86.0492 346.916 85.4132C347.495 84.7677 348.202 84.2646 349.037 83.9039C349.873 83.5337 350.812 83.3486 351.856 83.3486C352.72 83.3486 353.518 83.4957 354.248 83.79C354.989 84.0747 355.625 84.4924 356.156 85.043C356.698 85.584 357.12 86.258 357.424 87.0648C357.727 87.8622 357.879 88.7735 357.879 89.7986C357.879 90.1973 357.837 90.4631 357.751 90.596C357.666 90.7289 357.504 90.7953 357.267 90.7953H347.628C347.656 91.7066 347.779 92.4992 347.998 93.1731C348.226 93.8471 348.539 94.4119 348.938 94.8675C349.336 95.3137 349.811 95.6506 350.361 95.8785C350.912 96.0968 351.529 96.2059 352.212 96.2059C352.848 96.2059 353.394 96.1348 353.85 95.9924C354.315 95.8405 354.714 95.6791 355.046 95.5083C355.378 95.3374 355.653 95.1808 355.872 95.0384C356.099 94.8865 356.294 94.8106 356.455 94.8106C356.664 94.8106 356.826 94.8913 356.94 95.0526L357.651 95.9781ZM363.384 85.6695C363.698 85.3182 364.03 85.0002 364.381 84.7155C364.732 84.4307 365.103 84.1887 365.492 83.9893C365.89 83.7805 366.308 83.6239 366.745 83.5194C367.191 83.4055 367.67 83.3486 368.183 83.3486C368.971 83.3486 369.664 83.4815 370.262 83.7473C370.869 84.0036 371.372 84.3738 371.771 84.8579C372.179 85.3325 372.488 85.9068 372.696 86.5807C372.905 87.2547 373.01 87.9998 373.01 88.8162V98H370.461V88.8162C370.461 87.7245 370.209 86.8797 369.706 86.2817C369.213 85.6742 368.458 85.3705 367.442 85.3705C366.693 85.3705 365.99 85.5508 365.335 85.9115C364.69 86.2722 364.092 86.7611 363.541 87.3781V98H360.992V83.5764H362.516C362.877 83.5764 363.1 83.752 363.185 84.1032L363.384 85.6695ZM381.105 98.2278C379.966 98.2278 379.088 97.9098 378.471 97.2738C377.864 96.6379 377.56 95.7218 377.56 94.5258V85.6979H375.823C375.671 85.6979 375.543 85.6552 375.438 85.5698C375.334 85.4749 375.282 85.3325 375.282 85.1426V84.1317L377.645 83.8327L378.229 79.376C378.257 79.2337 378.319 79.1197 378.414 79.0343C378.519 78.9394 378.651 78.8919 378.813 78.8919H380.094V83.8612H384.266V85.6979H380.094V94.3549C380.094 94.9625 380.241 95.4133 380.536 95.7076C380.83 96.0019 381.21 96.149 381.675 96.149C381.941 96.149 382.168 96.1158 382.358 96.0493C382.558 95.9734 382.728 95.8927 382.871 95.8073C383.013 95.7218 383.132 95.6459 383.227 95.5795C383.331 95.5035 383.421 95.4655 383.497 95.4655C383.63 95.4655 383.749 95.5462 383.853 95.7076L384.594 96.9179C384.157 97.326 383.63 97.6488 383.013 97.8861C382.396 98.1139 381.76 98.2278 381.105 98.2278Z" fill="#333333"/>
<g clip-path="url(#clip0_5534_64348)">
<g clip-path="url(#clip1_5534_64348)">
<rect x="26" y="19.8" width="24" height="24" rx="12" fill="#C54600"/>
<path d="M39.1825 27.0728V35.8H38.1257V28.1807H38.0746L35.9439 29.5955V28.5216L38.1257 27.0728H39.1825Z" fill="white"/>
</g>
</g>
<rect width="1" height="31" transform="matrix(1 0 0 -1 38 66.5)" fill="#C54600"/>
<g clip-path="url(#clip2_5534_64348)">
<g clip-path="url(#clip3_5534_64348)">
<rect x="168" y="19.8" width="24" height="24" rx="12" fill="#C54600"/>
<path d="M177.271 35.8V35.033L180.151 31.8796C180.489 31.5103 180.768 31.1893 180.987 30.9165C181.205 30.641 181.367 30.3824 181.472 30.141C181.58 29.8966 181.634 29.641 181.634 29.3739C181.634 29.0671 181.56 28.8015 181.413 28.577C181.268 28.3526 181.069 28.1793 180.816 28.0572C180.563 27.935 180.279 27.8739 179.964 27.8739C179.629 27.8739 179.336 27.9435 179.086 28.0827C178.839 28.2191 178.647 28.4108 178.511 28.658C178.377 28.9052 178.31 29.1949 178.31 29.5273H177.305C177.305 29.016 177.423 28.5671 177.658 28.1807C177.894 27.7944 178.215 27.4932 178.621 27.2773C179.031 27.0614 179.489 26.9535 179.998 26.9535C180.509 26.9535 180.962 27.0614 181.357 27.2773C181.752 27.4932 182.062 27.7844 182.286 28.1509C182.511 28.5174 182.623 28.925 182.623 29.3739C182.623 29.6949 182.565 30.0089 182.448 30.3157C182.335 30.6197 182.136 30.9591 181.852 31.3341C181.57 31.7063 181.18 32.1608 180.68 32.6978L178.719 34.7944V34.8625H182.776V35.8H177.271Z" fill="white"/>
</g>
</g>
<rect width="1" height="31" transform="matrix(1 0 0 -1 180 66.5)" fill="#C54600"/>
<defs>
<clipPath id="clip0_5534_64348">
<rect width="24" height="24" fill="white" transform="translate(26 20)"/>
</clipPath>
<clipPath id="clip1_5534_64348">
<rect x="26" y="19.8" width="24" height="24" rx="12" fill="white"/>
</clipPath>
<clipPath id="clip2_5534_64348">
<rect width="24" height="24" fill="white" transform="translate(168 20)"/>
</clipPath>
<clipPath id="clip3_5534_64348">
<rect x="168" y="19.8" width="24" height="24" rx="12" fill="white"/>
</clipPath>
</defs>
</svg>
