<svg width="582" height="244" viewBox="0 0 582 244" fill="none" xmlns="http://www.w3.org/2000/svg">
<path d="M49.86 20V5.72H52.42V17.84H58.38V20H49.86ZM63.1361 9.16V20H60.6161V9.16H63.1361ZM61.8761 4.98C62.2494 4.98 62.5761 5.08 62.8561 5.28C63.1361 5.46667 63.2761 5.80667 63.2761 6.3C63.2761 6.78 63.1361 7.12667 62.8561 7.34C62.5761 7.54 62.2494 7.64 61.8761 7.64C61.4894 7.64 61.1561 7.54 60.8761 7.34C60.6094 7.12667 60.4761 6.78 60.4761 6.3C60.4761 5.80667 60.6094 5.46667 60.8761 5.28C61.1561 5.08 61.4894 4.98 61.8761 4.98ZM68.8783 8.4C68.8783 8.82667 68.8649 9.24 68.8383 9.64C68.8116 10.04 68.7849 10.3533 68.7583 10.58H68.8783C69.1716 10.1267 69.5716 9.74667 70.0783 9.44C70.5849 9.12 71.2449 8.96 72.0583 8.96C73.3249 8.96 74.3449 9.43333 75.1183 10.38C75.8916 11.3267 76.2783 12.72 76.2783 14.56C76.2783 15.8 76.0983 16.84 75.7383 17.68C75.3916 18.52 74.8916 19.1533 74.2383 19.58C73.5983 19.9933 72.8516 20.2 71.9983 20.2C71.1849 20.2 70.5316 20.0533 70.0383 19.76C69.5583 19.4667 69.1716 19.1267 68.8783 18.74H68.6983L68.2383 20H66.3583V4.8H68.8783V8.4ZM71.3383 11C70.7249 11 70.2383 11.12 69.8783 11.36C69.5316 11.6 69.2783 11.9667 69.1183 12.46C68.9583 12.9533 68.8783 13.58 68.8783 14.34V14.56C68.8783 15.72 69.0516 16.6067 69.3983 17.22C69.7583 17.8333 70.4183 18.14 71.3783 18.14C72.1249 18.14 72.6983 17.8333 73.0983 17.22C73.4983 16.5933 73.6983 15.7 73.6983 14.54C73.6983 13.3667 73.4916 12.4867 73.0783 11.9C72.6783 11.3 72.0983 11 71.3383 11ZM83.2378 8.96C84.2111 8.96 85.0445 9.16 85.7378 9.56C86.4445 9.94667 86.9911 10.5067 87.3778 11.24C87.7645 11.96 87.9578 12.84 87.9578 13.88V15.16H80.7978C80.8245 16.1467 81.0978 16.9133 81.6178 17.46C82.1378 17.9933 82.8578 18.26 83.7778 18.26C84.4845 18.26 85.1111 18.1933 85.6578 18.06C86.2178 17.9133 86.7911 17.7067 87.3778 17.44V19.46C86.8445 19.7133 86.2911 19.9 85.7178 20.02C85.1445 20.14 84.4578 20.2 83.6578 20.2C82.6045 20.2 81.6645 20 80.8378 19.6C80.0245 19.1867 79.3845 18.5667 78.9178 17.74C78.4645 16.9133 78.2378 15.8867 78.2378 14.66C78.2378 13.42 78.4445 12.38 78.8578 11.54C79.2845 10.6867 79.8711 10.0467 80.6178 9.62C81.3645 9.18 82.2378 8.96 83.2378 8.96ZM83.2378 10.82C82.5711 10.82 82.0245 11.04 81.5978 11.48C81.1845 11.9067 80.9378 12.5467 80.8578 13.4H85.5178C85.5178 12.8933 85.4311 12.4467 85.2578 12.06C85.0978 11.6733 84.8511 11.3733 84.5178 11.16C84.1845 10.9333 83.7578 10.82 83.2378 10.82ZM93.0189 20H90.4989V4.8H93.0189V20ZM98.7611 20H96.2411V4.8H98.7611V20ZM106.343 8.96C107.317 8.96 108.15 9.16 108.843 9.56C109.55 9.94667 110.097 10.5067 110.483 11.24C110.87 11.96 111.063 12.84 111.063 13.88V15.16H103.903C103.93 16.1467 104.203 16.9133 104.723 17.46C105.243 17.9933 105.963 18.26 106.883 18.26C107.59 18.26 108.217 18.1933 108.763 18.06C109.323 17.9133 109.897 17.7067 110.483 17.44V19.46C109.95 19.7133 109.397 19.9 108.823 20.02C108.25 20.14 107.563 20.2 106.763 20.2C105.71 20.2 104.77 20 103.943 19.6C103.13 19.1867 102.49 18.5667 102.023 17.74C101.57 16.9133 101.343 15.8867 101.343 14.66C101.343 13.42 101.55 12.38 101.963 11.54C102.39 10.6867 102.977 10.0467 103.723 9.62C104.47 9.18 105.343 8.96 106.343 8.96ZM106.343 10.82C105.677 10.82 105.13 11.04 104.703 11.48C104.29 11.9067 104.043 12.5467 103.963 13.4H108.623C108.623 12.8933 108.537 12.4467 108.363 12.06C108.203 11.6733 107.957 11.3733 107.623 11.16C107.29 10.9333 106.863 10.82 106.343 10.82ZM109.943 4.88C109.783 5.06667 109.563 5.29333 109.283 5.56C109.017 5.82667 108.717 6.10667 108.383 6.4C108.063 6.69333 107.743 6.97333 107.423 7.24C107.117 7.49333 106.843 7.70667 106.603 7.88H104.923V7.62C105.137 7.36667 105.377 7.07333 105.643 6.74C105.91 6.39333 106.17 6.04 106.423 5.68C106.69 5.30667 106.903 4.97333 107.063 4.68H109.943V4.88Z" fill="#333333"/>
<path d="M54.46 50H52.66V37.3H48.2V35.72H58.9V37.3H54.46V50ZM63.547 39.08C64.467 39.08 65.2537 39.28 65.907 39.68C66.5737 40.08 67.0804 40.6467 67.427 41.38C67.787 42.1 67.967 42.9467 67.967 43.92V44.98H60.627C60.6537 46.1933 60.9604 47.12 61.547 47.76C62.147 48.3867 62.9804 48.7 64.047 48.7C64.727 48.7 65.327 48.64 65.847 48.52C66.3804 48.3867 66.927 48.2 67.487 47.96V49.5C66.9404 49.74 66.4004 49.9133 65.867 50.02C65.3337 50.14 64.7004 50.2 63.967 50.2C62.9537 50.2 62.0537 49.9933 61.267 49.58C60.4937 49.1667 59.887 48.5533 59.447 47.74C59.0204 46.9133 58.807 45.9067 58.807 44.72C58.807 43.5467 59.0004 42.54 59.387 41.7C59.787 40.86 60.3404 40.2133 61.047 39.76C61.767 39.3067 62.6004 39.08 63.547 39.08ZM63.527 40.52C62.687 40.52 62.0204 40.7933 61.527 41.34C61.047 41.8733 60.7604 42.62 60.667 43.58H66.127C66.1137 42.6733 65.9004 41.94 65.487 41.38C65.0737 40.8067 64.4204 40.52 63.527 40.52ZM72.8455 44.52L69.1455 39.28H71.1455L73.9055 43.32L76.6455 39.28H78.6255L74.9255 44.52L78.8255 50H76.8255L73.9055 45.72L70.9455 50H68.9655L72.8455 44.52ZM84.4714 48.76C84.7381 48.76 85.0114 48.74 85.2914 48.7C85.5714 48.6467 85.7981 48.5933 85.9714 48.54V49.88C85.7847 49.9733 85.5181 50.0467 85.1714 50.1C84.8247 50.1667 84.4914 50.2 84.1714 50.2C83.6114 50.2 83.0914 50.1067 82.6114 49.92C82.1447 49.72 81.7647 49.38 81.4714 48.9C81.1781 48.42 81.0314 47.7467 81.0314 46.88V40.64H79.5114V39.8L81.0514 39.1L81.7514 36.82H82.7914V39.28H85.8914V40.64H82.7914V46.84C82.7914 47.4933 82.9447 47.98 83.2514 48.3C83.5714 48.6067 83.9781 48.76 84.4714 48.76ZM92.258 39.08C93.178 39.08 93.9646 39.28 94.618 39.68C95.2846 40.08 95.7913 40.6467 96.138 41.38C96.498 42.1 96.678 42.9467 96.678 43.92V44.98H89.338C89.3646 46.1933 89.6713 47.12 90.258 47.76C90.858 48.3867 91.6913 48.7 92.758 48.7C93.438 48.7 94.038 48.64 94.558 48.52C95.0913 48.3867 95.638 48.2 96.198 47.96V49.5C95.6513 49.74 95.1113 49.9133 94.578 50.02C94.0446 50.14 93.4113 50.2 92.678 50.2C91.6646 50.2 90.7646 49.9933 89.978 49.58C89.2046 49.1667 88.598 48.5533 88.158 47.74C87.7313 46.9133 87.518 45.9067 87.518 44.72C87.518 43.5467 87.7113 42.54 88.098 41.7C88.498 40.86 89.0513 40.2133 89.758 39.76C90.478 39.3067 91.3113 39.08 92.258 39.08ZM92.238 40.52C91.398 40.52 90.7313 40.7933 90.238 41.34C89.758 41.8733 89.4713 42.62 89.378 43.58H94.838C94.8246 42.6733 94.6113 41.94 94.198 41.38C93.7846 40.8067 93.1313 40.52 92.238 40.52ZM108.742 39.08C109.662 39.08 110.449 39.28 111.102 39.68C111.769 40.08 112.276 40.6467 112.622 41.38C112.982 42.1 113.162 42.9467 113.162 43.92V44.98H105.822C105.849 46.1933 106.156 47.12 106.742 47.76C107.342 48.3867 108.176 48.7 109.242 48.7C109.922 48.7 110.522 48.64 111.042 48.52C111.576 48.3867 112.122 48.2 112.682 47.96V49.5C112.136 49.74 111.596 49.9133 111.062 50.02C110.529 50.14 109.896 50.2 109.162 50.2C108.149 50.2 107.249 49.9933 106.462 49.58C105.689 49.1667 105.082 48.5533 104.642 47.74C104.216 46.9133 104.002 45.9067 104.002 44.72C104.002 43.5467 104.196 42.54 104.582 41.7C104.982 40.86 105.536 40.2133 106.242 39.76C106.962 39.3067 107.796 39.08 108.742 39.08ZM108.722 40.52C107.882 40.52 107.216 40.7933 106.722 41.34C106.242 41.8733 105.956 42.62 105.862 43.58H111.322C111.309 42.6733 111.096 41.94 110.682 41.38C110.269 40.8067 109.616 40.52 108.722 40.52ZM118.041 44.52L114.341 39.28H116.341L119.101 43.32L121.841 39.28H123.821L120.121 44.52L124.021 50H122.021L119.101 45.72L116.141 50H114.161L118.041 44.52ZM131.187 39.08C132.507 39.08 133.567 39.54 134.367 40.46C135.18 41.38 135.587 42.7667 135.587 44.62C135.587 46.4467 135.18 47.8333 134.367 48.78C133.567 49.7267 132.5 50.2 131.167 50.2C130.34 50.2 129.653 50.0467 129.107 49.74C128.573 49.42 128.153 49.0533 127.847 48.64H127.727C127.753 48.8667 127.78 49.1533 127.807 49.5C127.833 49.8467 127.847 50.1467 127.847 50.4V54.8H126.087V39.28H127.527L127.767 40.74H127.847C128.167 40.2733 128.587 39.88 129.107 39.56C129.627 39.24 130.32 39.08 131.187 39.08ZM130.867 40.56C129.773 40.56 129 40.8667 128.547 41.48C128.107 42.0933 127.873 43.0267 127.847 44.28V44.62C127.847 45.94 128.06 46.96 128.487 47.68C128.927 48.3867 129.733 48.74 130.907 48.74C131.56 48.74 132.093 48.56 132.507 48.2C132.933 47.84 133.247 47.3533 133.447 46.74C133.66 46.1133 133.767 45.4 133.767 44.6C133.767 43.3733 133.527 42.3933 133.047 41.66C132.58 40.9267 131.853 40.56 130.867 40.56ZM140.151 50H138.391V34.8H140.151V50ZM144.448 35.26C144.714 35.26 144.948 35.3533 145.148 35.54C145.361 35.7133 145.468 35.9933 145.468 36.38C145.468 36.7533 145.361 37.0333 145.148 37.22C144.948 37.4067 144.714 37.5 144.448 37.5C144.154 37.5 143.908 37.4067 143.708 37.22C143.508 37.0333 143.408 36.7533 143.408 36.38C143.408 35.9933 143.508 35.7133 143.708 35.54C143.908 35.3533 144.154 35.26 144.448 35.26ZM145.308 39.28V50H143.548V39.28H145.308ZM153.004 50.2C152.057 50.2 151.211 50.0067 150.464 49.62C149.731 49.2333 149.151 48.6333 148.724 47.82C148.311 47.0067 148.104 45.9667 148.104 44.7C148.104 43.38 148.324 42.3067 148.764 41.48C149.204 40.6533 149.797 40.0467 150.544 39.66C151.304 39.2733 152.164 39.08 153.124 39.08C153.671 39.08 154.197 39.14 154.704 39.26C155.211 39.3667 155.624 39.5 155.944 39.66L155.404 41.12C155.084 41 154.711 40.8867 154.284 40.78C153.857 40.6733 153.457 40.62 153.084 40.62C150.977 40.62 149.924 41.9733 149.924 44.68C149.924 45.9733 150.177 46.9667 150.684 47.66C151.204 48.34 151.971 48.68 152.984 48.68C153.571 48.68 154.084 48.62 154.524 48.5C154.977 48.38 155.391 48.2333 155.764 48.06V49.62C155.404 49.8067 155.004 49.9467 154.564 50.04C154.137 50.1467 153.617 50.2 153.004 50.2ZM162.373 39.1C163.68 39.1 164.647 39.3867 165.273 39.96C165.9 40.5333 166.213 41.4467 166.213 42.7V50H164.933L164.593 48.48H164.513C164.047 49.0667 163.553 49.5 163.033 49.78C162.527 50.06 161.82 50.2 160.913 50.2C159.94 50.2 159.133 49.9467 158.493 49.44C157.853 48.92 157.533 48.1133 157.533 47.02C157.533 45.9533 157.953 45.1333 158.793 44.56C159.633 43.9733 160.927 43.6533 162.673 43.6L164.493 43.54V42.9C164.493 42.0067 164.3 41.3867 163.913 41.04C163.527 40.6933 162.98 40.52 162.273 40.52C161.713 40.52 161.18 40.6067 160.673 40.78C160.167 40.94 159.693 41.1267 159.253 41.34L158.713 40.02C159.18 39.7667 159.733 39.5533 160.373 39.38C161.013 39.1933 161.68 39.1 162.373 39.1ZM162.893 44.82C161.56 44.8733 160.633 45.0867 160.113 45.46C159.607 45.8333 159.353 46.36 159.353 47.04C159.353 47.64 159.533 48.08 159.893 48.36C160.267 48.64 160.74 48.78 161.313 48.78C162.22 48.78 162.973 48.5333 163.573 48.04C164.173 47.5333 164.473 46.76 164.473 45.72V44.76L162.893 44.82ZM173.104 48.76C173.371 48.76 173.644 48.74 173.924 48.7C174.204 48.6467 174.431 48.5933 174.604 48.54V49.88C174.418 49.9733 174.151 50.0467 173.804 50.1C173.458 50.1667 173.124 50.2 172.804 50.2C172.244 50.2 171.724 50.1067 171.244 49.92C170.778 49.72 170.398 49.38 170.104 48.9C169.811 48.42 169.664 47.7467 169.664 46.88V40.64H168.144V39.8L169.684 39.1L170.384 36.82H171.424V39.28H174.524V40.64H171.424V46.84C171.424 47.4933 171.578 47.98 171.884 48.3C172.204 48.6067 172.611 48.76 173.104 48.76ZM177.651 35.26C177.917 35.26 178.151 35.3533 178.351 35.54C178.564 35.7133 178.671 35.9933 178.671 36.38C178.671 36.7533 178.564 37.0333 178.351 37.22C178.151 37.4067 177.917 37.5 177.651 37.5C177.357 37.5 177.111 37.4067 176.911 37.22C176.711 37.0333 176.611 36.7533 176.611 36.38C176.611 35.9933 176.711 35.7133 176.911 35.54C177.111 35.3533 177.357 35.26 177.651 35.26ZM178.511 39.28V50H176.751V39.28H178.511ZM186.847 40.64H184.147V50H182.387V40.64H180.507V39.82L182.387 39.22V38.6C182.387 37.2133 182.694 36.22 183.307 35.62C183.92 35.0067 184.774 34.7 185.867 34.7C186.294 34.7 186.68 34.74 187.027 34.82C187.387 34.8867 187.694 34.9667 187.947 35.06L187.487 36.44C187.274 36.3733 187.027 36.3067 186.747 36.24C186.467 36.1733 186.18 36.14 185.887 36.14C185.3 36.14 184.86 36.34 184.567 36.74C184.287 37.1267 184.147 37.74 184.147 38.58V39.28H186.847V40.64ZM199.517 35.72L194.197 50H192.477L197.797 35.72H199.517ZM214.834 50H206.854V35.72H214.834V37.3H208.654V41.76H214.474V43.32H208.654V48.42H214.834V50ZM220.267 44.52L216.567 39.28H218.567L221.327 43.32L224.067 39.28H226.047L222.347 44.52L226.247 50H224.247L221.327 45.72L218.367 50H216.387L220.267 44.52ZM232.063 39.08C232.983 39.08 233.769 39.28 234.423 39.68C235.089 40.08 235.596 40.6467 235.943 41.38C236.303 42.1 236.483 42.9467 236.483 43.92V44.98H229.143C229.169 46.1933 229.476 47.12 230.063 47.76C230.663 48.3867 231.496 48.7 232.563 48.7C233.243 48.7 233.843 48.64 234.363 48.52C234.896 48.3867 235.443 48.2 236.003 47.96V49.5C235.456 49.74 234.916 49.9133 234.383 50.02C233.849 50.14 233.216 50.2 232.483 50.2C231.469 50.2 230.569 49.9933 229.783 49.58C229.009 49.1667 228.403 48.5533 227.963 47.74C227.536 46.9133 227.323 45.9067 227.323 44.72C227.323 43.5467 227.516 42.54 227.903 41.7C228.303 40.86 228.856 40.2133 229.563 39.76C230.283 39.3067 231.116 39.08 232.063 39.08ZM232.043 40.52C231.203 40.52 230.536 40.7933 230.043 41.34C229.563 41.8733 229.276 42.62 229.183 43.58H234.643C234.629 42.6733 234.416 41.94 234.003 41.38C233.589 40.8067 232.936 40.52 232.043 40.52ZM250.972 39.08C252.185 39.08 253.092 39.3933 253.692 40.02C254.292 40.6333 254.592 41.6333 254.592 43.02V50H252.852V43.1C252.852 41.4067 252.125 40.56 250.672 40.56C249.632 40.56 248.885 40.86 248.432 41.46C247.992 42.06 247.772 42.9333 247.772 44.08V50H246.032V43.1C246.032 41.4067 245.298 40.56 243.832 40.56C242.752 40.56 242.005 40.8933 241.592 41.56C241.178 42.2267 240.972 43.1867 240.972 44.44V50H239.212V39.28H240.632L240.892 40.74H240.992C241.325 40.18 241.772 39.7667 242.332 39.5C242.905 39.22 243.512 39.08 244.152 39.08C245.832 39.08 246.925 39.68 247.432 40.88H247.532C247.892 40.2667 248.378 39.8133 248.992 39.52C249.618 39.2267 250.278 39.08 250.972 39.08ZM263.003 39.08C264.323 39.08 265.383 39.54 266.183 40.46C266.996 41.38 267.403 42.7667 267.403 44.62C267.403 46.4467 266.996 47.8333 266.183 48.78C265.383 49.7267 264.316 50.2 262.983 50.2C262.156 50.2 261.47 50.0467 260.923 49.74C260.39 49.42 259.97 49.0533 259.663 48.64H259.543C259.57 48.8667 259.596 49.1533 259.623 49.5C259.65 49.8467 259.663 50.1467 259.663 50.4V54.8H257.903V39.28H259.343L259.583 40.74H259.663C259.983 40.2733 260.403 39.88 260.923 39.56C261.443 39.24 262.136 39.08 263.003 39.08ZM262.683 40.56C261.59 40.56 260.816 40.8667 260.363 41.48C259.923 42.0933 259.69 43.0267 259.663 44.28V44.62C259.663 45.94 259.876 46.96 260.303 47.68C260.743 48.3867 261.55 48.74 262.723 48.74C263.376 48.74 263.91 48.56 264.323 48.2C264.75 47.84 265.063 47.3533 265.263 46.74C265.476 46.1133 265.583 45.4 265.583 44.6C265.583 43.3733 265.343 42.3933 264.863 41.66C264.396 40.9267 263.67 40.56 262.683 40.56ZM271.968 50H270.208V34.8H271.968V50ZM279.504 39.08C280.424 39.08 281.211 39.28 281.864 39.68C282.531 40.08 283.037 40.6467 283.384 41.38C283.744 42.1 283.924 42.9467 283.924 43.92V44.98H276.584C276.611 46.1933 276.917 47.12 277.504 47.76C278.104 48.3867 278.937 48.7 280.004 48.7C280.684 48.7 281.284 48.64 281.804 48.52C282.337 48.3867 282.884 48.2 283.444 47.96V49.5C282.897 49.74 282.357 49.9133 281.824 50.02C281.291 50.14 280.657 50.2 279.924 50.2C278.911 50.2 278.011 49.9933 277.224 49.58C276.451 49.1667 275.844 48.5533 275.404 47.74C274.977 46.9133 274.764 45.9067 274.764 44.72C274.764 43.5467 274.957 42.54 275.344 41.7C275.744 40.86 276.297 40.2133 277.004 39.76C277.724 39.3067 278.557 39.08 279.504 39.08ZM279.484 40.52C278.644 40.52 277.977 40.7933 277.484 41.34C277.004 41.8733 276.717 42.62 276.624 43.58H282.084C282.071 42.6733 281.857 41.94 281.444 41.38C281.031 40.8067 280.377 40.52 279.484 40.52ZM295.648 50.2C294.315 50.2 293.248 49.74 292.448 48.82C291.648 47.8867 291.248 46.5 291.248 44.66C291.248 42.82 291.648 41.4333 292.448 40.5C293.262 39.5533 294.335 39.08 295.668 39.08C296.495 39.08 297.168 39.2333 297.688 39.54C298.222 39.8467 298.655 40.22 298.988 40.66H299.108C299.095 40.4867 299.068 40.2333 299.028 39.9C299.002 39.5533 298.988 39.28 298.988 39.08V34.8H300.748V50H299.328L299.068 48.56H298.988C298.668 49.0133 298.242 49.4 297.708 49.72C297.175 50.04 296.488 50.2 295.648 50.2ZM295.928 48.74C297.062 48.74 297.855 48.4333 298.308 47.82C298.775 47.1933 299.008 46.2533 299.008 45V44.68C299.008 43.3467 298.788 42.3267 298.348 41.62C297.908 40.9 297.095 40.54 295.908 40.54C294.962 40.54 294.248 40.92 293.768 41.68C293.302 42.4267 293.068 43.4333 293.068 44.7C293.068 45.98 293.302 46.9733 293.768 47.68C294.248 48.3867 294.968 48.74 295.928 48.74ZM308.293 39.08C309.213 39.08 310 39.28 310.653 39.68C311.32 40.08 311.826 40.6467 312.173 41.38C312.533 42.1 312.713 42.9467 312.713 43.92V44.98H305.373C305.4 46.1933 305.706 47.12 306.293 47.76C306.893 48.3867 307.726 48.7 308.793 48.7C309.473 48.7 310.073 48.64 310.593 48.52C311.126 48.3867 311.673 48.2 312.233 47.96V49.5C311.686 49.74 311.146 49.9133 310.613 50.02C310.08 50.14 309.446 50.2 308.713 50.2C307.7 50.2 306.8 49.9933 306.013 49.58C305.24 49.1667 304.633 48.5533 304.193 47.74C303.766 46.9133 303.553 45.9067 303.553 44.72C303.553 43.5467 303.746 42.54 304.133 41.7C304.533 40.86 305.086 40.2133 305.793 39.76C306.513 39.3067 307.346 39.08 308.293 39.08ZM308.273 40.52C307.433 40.52 306.766 40.7933 306.273 41.34C305.793 41.8733 305.506 42.62 305.413 43.58H310.873C310.86 42.6733 310.646 41.94 310.233 41.38C309.82 40.8067 309.166 40.52 308.273 40.52ZM332.398 39.08C333.611 39.08 334.518 39.3933 335.118 40.02C335.718 40.6333 336.018 41.6333 336.018 43.02V50H334.278V43.1C334.278 41.4067 333.551 40.56 332.098 40.56C331.058 40.56 330.311 40.86 329.858 41.46C329.418 42.06 329.198 42.9333 329.198 44.08V50H327.458V43.1C327.458 41.4067 326.724 40.56 325.258 40.56C324.178 40.56 323.431 40.8933 323.018 41.56C322.604 42.2267 322.398 43.1867 322.398 44.44V50H320.638V39.28H322.058L322.318 40.74H322.418C322.751 40.18 323.198 39.7667 323.758 39.5C324.331 39.22 324.938 39.08 325.578 39.08C327.258 39.08 328.351 39.68 328.858 40.88H328.958C329.318 40.2667 329.804 39.8133 330.418 39.52C331.044 39.2267 331.704 39.08 332.398 39.08ZM343.469 39.08C344.389 39.08 345.176 39.28 345.829 39.68C346.496 40.08 347.002 40.6467 347.349 41.38C347.709 42.1 347.889 42.9467 347.889 43.92V44.98H340.549C340.576 46.1933 340.882 47.12 341.469 47.76C342.069 48.3867 342.902 48.7 343.969 48.7C344.649 48.7 345.249 48.64 345.769 48.52C346.302 48.3867 346.849 48.2 347.409 47.96V49.5C346.862 49.74 346.322 49.9133 345.789 50.02C345.256 50.14 344.622 50.2 343.889 50.2C342.876 50.2 341.976 49.9933 341.189 49.58C340.416 49.1667 339.809 48.5533 339.369 47.74C338.942 46.9133 338.729 45.9067 338.729 44.72C338.729 43.5467 338.922 42.54 339.309 41.7C339.709 40.86 340.262 40.2133 340.969 39.76C341.689 39.3067 342.522 39.08 343.469 39.08ZM343.449 40.52C342.609 40.52 341.942 40.7933 341.449 41.34C340.969 41.8733 340.682 42.62 340.589 43.58H346.049C346.036 42.6733 345.822 41.94 345.409 41.38C344.996 40.8067 344.342 40.52 343.449 40.52ZM357.598 47.04C357.598 48.08 357.211 48.8667 356.438 49.4C355.665 49.9333 354.625 50.2 353.318 50.2C352.571 50.2 351.925 50.14 351.378 50.02C350.845 49.9 350.371 49.7333 349.958 49.52V47.92C350.385 48.1333 350.898 48.3333 351.498 48.52C352.111 48.6933 352.731 48.78 353.358 48.78C354.251 48.78 354.898 48.64 355.298 48.36C355.698 48.0667 355.898 47.68 355.898 47.2C355.898 46.9333 355.825 46.6933 355.678 46.48C355.531 46.2667 355.265 46.0533 354.878 45.84C354.505 45.6267 353.965 45.3867 353.258 45.12C352.565 44.8533 351.971 44.5867 351.478 44.32C350.985 44.0533 350.605 43.7333 350.338 43.36C350.071 42.9867 349.938 42.5067 349.938 41.92C349.938 41.0133 350.305 40.3133 351.038 39.82C351.785 39.3267 352.758 39.08 353.958 39.08C354.611 39.08 355.218 39.1467 355.778 39.28C356.351 39.4 356.885 39.5733 357.378 39.8L356.778 41.2C356.325 41.0133 355.851 40.8533 355.358 40.72C354.865 40.5867 354.358 40.52 353.838 40.52C353.118 40.52 352.565 40.64 352.178 40.88C351.805 41.1067 351.618 41.42 351.618 41.82C351.618 42.1133 351.705 42.3667 351.878 42.58C352.051 42.78 352.338 42.98 352.738 43.18C353.151 43.3667 353.698 43.5933 354.378 43.86C355.058 44.1133 355.638 44.3733 356.118 44.64C356.598 44.9067 356.965 45.2333 357.218 45.62C357.471 45.9933 357.598 46.4667 357.598 47.04ZM367.168 47.04C367.168 48.08 366.782 48.8667 366.008 49.4C365.235 49.9333 364.195 50.2 362.888 50.2C362.142 50.2 361.495 50.14 360.948 50.02C360.415 49.9 359.942 49.7333 359.528 49.52V47.92C359.955 48.1333 360.468 48.3333 361.068 48.52C361.682 48.6933 362.302 48.78 362.928 48.78C363.822 48.78 364.468 48.64 364.868 48.36C365.268 48.0667 365.468 47.68 365.468 47.2C365.468 46.9333 365.395 46.6933 365.248 46.48C365.102 46.2667 364.835 46.0533 364.448 45.84C364.075 45.6267 363.535 45.3867 362.828 45.12C362.135 44.8533 361.542 44.5867 361.048 44.32C360.555 44.0533 360.175 43.7333 359.908 43.36C359.642 42.9867 359.508 42.5067 359.508 41.92C359.508 41.0133 359.875 40.3133 360.608 39.82C361.355 39.3267 362.328 39.08 363.528 39.08C364.182 39.08 364.788 39.1467 365.348 39.28C365.922 39.4 366.455 39.5733 366.948 39.8L366.348 41.2C365.895 41.0133 365.422 40.8533 364.928 40.72C364.435 40.5867 363.928 40.52 363.408 40.52C362.688 40.52 362.135 40.64 361.748 40.88C361.375 41.1067 361.188 41.42 361.188 41.82C361.188 42.1133 361.275 42.3667 361.448 42.58C361.622 42.78 361.908 42.98 362.308 43.18C362.722 43.3667 363.268 43.5933 363.948 43.86C364.628 44.1133 365.208 44.3733 365.688 44.64C366.168 44.9067 366.535 45.2333 366.788 45.62C367.042 45.9933 367.168 46.4667 367.168 47.04ZM373.819 39.1C375.125 39.1 376.092 39.3867 376.719 39.96C377.345 40.5333 377.659 41.4467 377.659 42.7V50H376.379L376.039 48.48H375.959C375.492 49.0667 374.999 49.5 374.479 49.78C373.972 50.06 373.265 50.2 372.359 50.2C371.385 50.2 370.579 49.9467 369.939 49.44C369.299 48.92 368.979 48.1133 368.979 47.02C368.979 45.9533 369.399 45.1333 370.239 44.56C371.079 43.9733 372.372 43.6533 374.119 43.6L375.939 43.54V42.9C375.939 42.0067 375.745 41.3867 375.359 41.04C374.972 40.6933 374.425 40.52 373.719 40.52C373.159 40.52 372.625 40.6067 372.119 40.78C371.612 40.94 371.139 41.1267 370.699 41.34L370.159 40.02C370.625 39.7667 371.179 39.5533 371.819 39.38C372.459 39.1933 373.125 39.1 373.819 39.1ZM374.339 44.82C373.005 44.8733 372.079 45.0867 371.559 45.46C371.052 45.8333 370.799 46.36 370.799 47.04C370.799 47.64 370.979 48.08 371.339 48.36C371.712 48.64 372.185 48.78 372.759 48.78C373.665 48.78 374.419 48.5333 375.019 48.04C375.619 47.5333 375.919 46.76 375.919 45.72V44.76L374.339 44.82ZM384.77 39.08C385.476 39.08 386.11 39.2133 386.67 39.48C387.243 39.7467 387.73 40.1533 388.13 40.7H388.23L388.47 39.28H389.87V50.18C389.87 51.7133 389.476 52.8667 388.69 53.64C387.916 54.4133 386.71 54.8 385.07 54.8C383.496 54.8 382.21 54.5733 381.21 54.12V52.5C382.263 53.06 383.583 53.34 385.17 53.34C386.09 53.34 386.81 53.0667 387.33 52.52C387.863 51.9867 388.13 51.2533 388.13 50.32V49.9C388.13 49.74 388.136 49.5133 388.15 49.22C388.163 48.9133 388.176 48.7 388.19 48.58H388.11C387.39 49.66 386.283 50.2 384.79 50.2C383.403 50.2 382.316 49.7133 381.53 48.74C380.756 47.7667 380.37 46.4067 380.37 44.66C380.37 42.9533 380.756 41.6 381.53 40.6C382.316 39.5867 383.396 39.08 384.77 39.08ZM385.01 40.56C384.116 40.56 383.423 40.92 382.93 41.64C382.436 42.3467 382.19 43.36 382.19 44.68C382.19 46 382.43 47.0133 382.91 47.72C383.403 48.4133 384.116 48.76 385.05 48.76C386.13 48.76 386.916 48.4733 387.41 47.9C387.903 47.3133 388.15 46.3733 388.15 45.08V44.66C388.15 43.1933 387.896 42.1467 387.39 41.52C386.883 40.88 386.09 40.56 385.01 40.56ZM397.414 39.08C398.334 39.08 399.121 39.28 399.774 39.68C400.441 40.08 400.948 40.6467 401.294 41.38C401.654 42.1 401.834 42.9467 401.834 43.92V44.98H394.494C394.521 46.1933 394.828 47.12 395.414 47.76C396.014 48.3867 396.848 48.7 397.914 48.7C398.594 48.7 399.194 48.64 399.714 48.52C400.248 48.3867 400.794 48.2 401.354 47.96V49.5C400.808 49.74 400.268 49.9133 399.734 50.02C399.201 50.14 398.568 50.2 397.834 50.2C396.821 50.2 395.921 49.9933 395.134 49.58C394.361 49.1667 393.754 48.5533 393.314 47.74C392.888 46.9133 392.674 45.9067 392.674 44.72C392.674 43.5467 392.868 42.54 393.254 41.7C393.654 40.86 394.208 40.2133 394.914 39.76C395.634 39.3067 396.468 39.08 397.414 39.08ZM397.394 40.52C396.554 40.52 395.888 40.7933 395.394 41.34C394.914 41.8733 394.628 42.62 394.534 43.58H399.994C399.981 42.6733 399.768 41.94 399.354 41.38C398.941 40.8067 398.288 40.52 397.394 40.52ZM404.303 48.92C404.303 48.4267 404.423 48.08 404.663 47.88C404.903 47.68 405.19 47.58 405.523 47.58C405.87 47.58 406.163 47.68 406.403 47.88C406.657 48.08 406.783 48.4267 406.783 48.92C406.783 49.4 406.657 49.7467 406.403 49.96C406.163 50.1733 405.87 50.28 405.523 50.28C405.19 50.28 404.903 50.1733 404.663 49.96C404.423 49.7467 404.303 49.4 404.303 48.92Z" fill="#333333"/>
<rect x="49" y="70" width="217" height="46" rx="5" fill="white"/>
<path d="M68 88.38C67.2933 88.38 66.66 88.5067 66.1 88.76C65.54 89 65.06 89.36 64.66 89.84C64.2733 90.32 63.9733 90.9 63.76 91.58C63.56 92.26 63.46 93.0267 63.46 93.88C63.46 95 63.6267 95.9733 63.96 96.8C64.2933 97.6133 64.7933 98.24 65.46 98.68C66.1267 99.12 66.9667 99.34 67.98 99.34C68.5933 99.34 69.18 99.2867 69.74 99.18C70.3133 99.06 70.8933 98.9067 71.48 98.72V100.58C70.92 100.793 70.3467 100.947 69.76 101.04C69.1733 101.147 68.4933 101.2 67.72 101.2C66.2667 101.2 65.0533 100.9 64.08 100.3C63.12 99.7 62.4 98.8467 61.92 97.74C61.44 96.6333 61.2 95.34 61.2 93.86C61.2 92.78 61.3467 91.7933 61.64 90.9C61.9467 89.9933 62.3867 89.2133 62.96 88.56C63.5333 87.9067 64.24 87.4067 65.08 87.06C65.9333 86.7 66.9133 86.52 68.02 86.52C68.74 86.52 69.4467 86.6 70.14 86.76C70.8333 86.9067 71.46 87.12 72.02 87.4L71.22 89.2C70.7533 88.9867 70.2467 88.8 69.7 88.64C69.1667 88.4667 68.6 88.38 68 88.38ZM76.4363 89.86C76.4363 90.1933 76.4229 90.5267 76.3963 90.86C76.3696 91.1933 76.3429 91.4667 76.3163 91.68H76.4563C76.6829 91.3067 76.9629 91 77.2963 90.76C77.6429 90.52 78.0229 90.34 78.4363 90.22C78.8629 90.1 79.2963 90.04 79.7363 90.04C80.5896 90.04 81.3029 90.18 81.8763 90.46C82.4629 90.7267 82.9029 91.1533 83.1963 91.74C83.5029 92.3133 83.6563 93.06 83.6563 93.98V101H81.5563V94.28C81.5563 93.44 81.3763 92.8133 81.0163 92.4C80.6696 91.9733 80.1096 91.76 79.3363 91.76C78.6029 91.76 78.0229 91.9067 77.5963 92.2C77.1829 92.4933 76.8829 92.9267 76.6963 93.5C76.5229 94.06 76.4363 94.7533 76.4363 95.58V101H74.3163V85.8H76.4363V89.86ZM96.4139 95.6C96.4139 96.4933 96.2939 97.2867 96.0539 97.98C95.8139 98.6733 95.4739 99.26 95.0339 99.74C94.5939 100.22 94.0606 100.587 93.4339 100.84C92.8072 101.08 92.1006 101.2 91.3139 101.2C90.5939 101.2 89.9272 101.08 89.3139 100.84C88.7006 100.587 88.1672 100.22 87.7139 99.74C87.2739 99.26 86.9272 98.6733 86.6739 97.98C86.4206 97.2867 86.2939 96.4867 86.2939 95.58C86.2939 94.3933 86.4939 93.3867 86.8939 92.56C87.3072 91.7333 87.8939 91.1067 88.6539 90.68C89.4272 90.24 90.3339 90.02 91.3739 90.02C92.3606 90.02 93.2272 90.24 93.9739 90.68C94.7339 91.1067 95.3272 91.7333 95.7539 92.56C96.1939 93.3867 96.4139 94.4 96.4139 95.6ZM88.4739 95.6C88.4739 96.4 88.5739 97.0933 88.7739 97.68C88.9739 98.2533 89.2872 98.6933 89.7139 99C90.1406 99.3067 90.6872 99.46 91.3539 99.46C92.0206 99.46 92.5672 99.3067 92.9939 99C93.4206 98.6933 93.7339 98.2533 93.9339 97.68C94.1339 97.0933 94.2339 96.4 94.2339 95.6C94.2339 94.7733 94.1272 94.08 93.9139 93.52C93.7139 92.96 93.4006 92.5333 92.9739 92.24C92.5606 91.9333 92.0139 91.78 91.3339 91.78C90.3339 91.78 89.6072 92.1133 89.1539 92.78C88.7006 93.4467 88.4739 94.3867 88.4739 95.6ZM101.221 90.22V101H99.1014V90.22H101.221ZM100.181 86.12C100.501 86.12 100.781 86.2133 101.021 86.4C101.261 86.5867 101.381 86.9 101.381 87.34C101.381 87.7667 101.261 88.08 101.021 88.28C100.781 88.4667 100.501 88.56 100.181 88.56C99.8347 88.56 99.5414 88.4667 99.3014 88.28C99.0747 88.08 98.9614 87.7667 98.9614 87.34C98.9614 86.9 99.0747 86.5867 99.3014 86.4C99.5414 86.2133 99.8347 86.12 100.181 86.12ZM111.711 97.96C111.711 98.6667 111.537 99.26 111.191 99.74C110.844 100.22 110.344 100.587 109.691 100.84C109.037 101.08 108.251 101.2 107.331 101.2C106.571 101.2 105.917 101.14 105.371 101.02C104.837 100.913 104.344 100.753 103.891 100.54V98.68C104.371 98.9067 104.924 99.1133 105.551 99.3C106.177 99.4733 106.791 99.56 107.391 99.56C108.191 99.56 108.764 99.4333 109.111 99.18C109.471 98.9267 109.651 98.5867 109.651 98.16C109.651 97.92 109.584 97.7067 109.451 97.52C109.317 97.32 109.064 97.12 108.691 96.92C108.331 96.7067 107.797 96.4667 107.091 96.2C106.411 95.92 105.831 95.6467 105.351 95.38C104.871 95.1 104.504 94.7733 104.251 94.4C103.997 94.0133 103.871 93.52 103.871 92.92C103.871 91.9867 104.244 91.2733 104.991 90.78C105.751 90.2733 106.751 90.02 107.991 90.02C108.644 90.02 109.257 90.0867 109.831 90.22C110.417 90.34 110.984 90.5267 111.531 90.78L110.831 92.4C110.524 92.2533 110.204 92.1333 109.871 92.04C109.551 91.9333 109.224 91.8467 108.891 91.78C108.571 91.7133 108.237 91.68 107.891 91.68C107.251 91.68 106.764 91.78 106.431 91.98C106.097 92.18 105.931 92.46 105.931 92.82C105.931 93.0733 106.004 93.2933 106.151 93.48C106.311 93.6667 106.584 93.8533 106.971 94.04C107.357 94.2267 107.884 94.4533 108.551 94.72C109.217 94.9733 109.784 95.2333 110.251 95.5C110.731 95.7667 111.091 96.0933 111.331 96.48C111.584 96.8667 111.711 97.36 111.711 97.96ZM116.358 90.22V101H114.238V90.22H116.358ZM115.318 86.12C115.638 86.12 115.918 86.2133 116.158 86.4C116.398 86.5867 116.518 86.9 116.518 87.34C116.518 87.7667 116.398 88.08 116.158 88.28C115.918 88.4667 115.638 88.56 115.318 88.56C114.971 88.56 114.678 88.4667 114.438 88.28C114.211 88.08 114.098 87.7667 114.098 87.34C114.098 86.9 114.211 86.5867 114.438 86.4C114.678 86.2133 114.971 86.12 115.318 86.12ZM125.007 90.02C125.194 90.02 125.401 90.0333 125.627 90.06C125.854 90.0733 126.041 90.0933 126.187 90.12L125.967 92.1C125.821 92.06 125.647 92.0267 125.447 92C125.247 91.9733 125.061 91.96 124.887 91.96C124.487 91.96 124.101 92.04 123.727 92.2C123.367 92.3467 123.041 92.5667 122.747 92.86C122.454 93.14 122.221 93.4867 122.047 93.9C121.887 94.3133 121.807 94.7867 121.807 95.32V101H119.687V90.22H121.367L121.647 92.14H121.727C121.954 91.7533 122.227 91.4 122.547 91.08C122.867 90.76 123.234 90.5067 123.647 90.32C124.061 90.12 124.514 90.02 125.007 90.02ZM142.659 90.22V101H140.959L140.659 99.58H140.559C140.332 99.9533 140.039 100.26 139.679 100.5C139.319 100.74 138.925 100.913 138.499 101.02C138.072 101.14 137.632 101.2 137.179 101.2C136.339 101.2 135.625 101.067 135.039 100.8C134.465 100.52 134.025 100.093 133.719 99.52C133.425 98.9333 133.279 98.1867 133.279 97.28V90.22H135.419V96.96C135.419 97.8 135.592 98.4267 135.939 98.84C136.299 99.2533 136.852 99.46 137.599 99.46C138.345 99.46 138.932 99.3133 139.359 99.02C139.785 98.7267 140.085 98.3 140.259 97.74C140.445 97.1667 140.539 96.48 140.539 95.68V90.22H142.659ZM151.436 90.02C152.69 90.02 153.65 90.3333 154.316 90.96C154.983 91.5867 155.316 92.5933 155.316 93.98V101H153.216V94.28C153.216 93.44 153.036 92.8133 152.676 92.4C152.33 91.9733 151.77 91.76 150.996 91.76C149.903 91.76 149.143 92.0867 148.716 92.74C148.303 93.3933 148.096 94.3333 148.096 95.56V101H145.976V90.22H147.656L147.956 91.66H148.076C148.316 91.2867 148.61 90.98 148.956 90.74C149.303 90.5 149.69 90.32 150.116 90.2C150.543 90.08 150.983 90.02 151.436 90.02ZM169.029 91.84H166.369V101H164.249V91.84H162.429V90.84L164.249 90.18V89.5C164.249 88.58 164.389 87.8467 164.669 87.3C164.963 86.74 165.376 86.3333 165.909 86.08C166.443 85.8267 167.089 85.7 167.849 85.7C168.316 85.7 168.743 85.74 169.129 85.82C169.516 85.9 169.843 85.9867 170.109 86.08L169.569 87.7C169.356 87.6333 169.109 87.5733 168.829 87.52C168.549 87.4533 168.256 87.42 167.949 87.42C167.416 87.42 167.016 87.5933 166.749 87.94C166.496 88.2867 166.369 88.8133 166.369 89.52V90.22H169.029V91.84ZM173.029 90.22V101H170.909V90.22H173.029ZM171.989 86.12C172.309 86.12 172.589 86.2133 172.829 86.4C173.069 86.5867 173.189 86.9 173.189 87.34C173.189 87.7667 173.069 88.08 172.829 88.28C172.589 88.4667 172.309 88.56 171.989 88.56C171.643 88.56 171.349 88.4667 171.109 88.28C170.883 88.08 170.769 87.7667 170.769 87.34C170.769 86.9 170.883 86.5867 171.109 86.4C171.349 86.2133 171.643 86.12 171.989 86.12ZM180.688 101.2C179.701 101.2 178.834 101.007 178.088 100.62C177.341 100.233 176.761 99.6333 176.348 98.82C175.934 97.9933 175.728 96.9467 175.728 95.68C175.728 94.3467 175.948 93.2667 176.388 92.44C176.841 91.6133 177.448 91.0067 178.208 90.62C178.981 90.22 179.861 90.02 180.848 90.02C181.448 90.02 182.008 90.0867 182.528 90.22C183.061 90.34 183.501 90.48 183.848 90.64L183.208 92.36C182.834 92.2133 182.434 92.0867 182.008 91.98C181.594 91.8733 181.201 91.82 180.828 91.82C180.161 91.82 179.608 91.9667 179.168 92.26C178.741 92.54 178.421 92.9667 178.208 93.54C178.008 94.1 177.908 94.8067 177.908 95.66C177.908 96.4733 178.014 97.16 178.228 97.72C178.441 98.28 178.754 98.7067 179.168 99C179.594 99.28 180.121 99.42 180.748 99.42C181.348 99.42 181.874 99.3533 182.328 99.22C182.781 99.0867 183.208 98.9133 183.608 98.7V100.54C183.221 100.767 182.801 100.933 182.348 101.04C181.894 101.147 181.341 101.2 180.688 101.2ZM188.272 89.86C188.272 90.1933 188.259 90.5267 188.232 90.86C188.206 91.1933 188.179 91.4667 188.152 91.68H188.292C188.519 91.3067 188.799 91 189.132 90.76C189.479 90.52 189.859 90.34 190.272 90.22C190.699 90.1 191.132 90.04 191.572 90.04C192.426 90.04 193.139 90.18 193.712 90.46C194.299 90.7267 194.739 91.1533 195.032 91.74C195.339 92.3133 195.492 93.06 195.492 93.98V101H193.392V94.28C193.392 93.44 193.212 92.8133 192.852 92.4C192.506 91.9733 191.946 91.76 191.172 91.76C190.439 91.76 189.859 91.9067 189.432 92.2C189.019 92.4933 188.719 92.9267 188.532 93.5C188.359 94.06 188.272 94.7533 188.272 95.58V101H186.152V85.8H188.272V89.86ZM200.87 90.22V101H198.75V90.22H200.87ZM199.83 86.12C200.15 86.12 200.43 86.2133 200.67 86.4C200.91 86.5867 201.03 86.9 201.03 87.34C201.03 87.7667 200.91 88.08 200.67 88.28C200.43 88.4667 200.15 88.56 199.83 88.56C199.483 88.56 199.19 88.4667 198.95 88.28C198.723 88.08 198.61 87.7667 198.61 87.34C198.61 86.9 198.723 86.5867 198.95 86.4C199.19 86.2133 199.483 86.12 199.83 86.12ZM208.439 90.02C209.386 90.02 210.199 90.22 210.879 90.62C211.559 91.0067 212.079 91.5667 212.439 92.3C212.812 93.0333 212.999 93.9 212.999 94.9V96.06H205.759C205.786 97.1667 206.072 98.0133 206.619 98.6C207.179 99.1867 207.959 99.48 208.959 99.48C209.652 99.48 210.266 99.42 210.799 99.3C211.346 99.1667 211.906 98.9733 212.479 98.72V100.48C211.946 100.72 211.399 100.9 210.839 101.02C210.292 101.14 209.639 101.2 208.879 101.2C207.839 101.2 206.919 100.993 206.119 100.58C205.319 100.167 204.692 99.5533 204.239 98.74C203.799 97.9133 203.579 96.9 203.579 95.7C203.579 94.4867 203.779 93.46 204.179 92.62C204.592 91.78 205.159 91.14 205.879 90.7C206.612 90.2467 207.466 90.02 208.439 90.02ZM208.439 91.66C207.679 91.66 207.066 91.9067 206.599 92.4C206.146 92.8933 205.879 93.5933 205.799 94.5H210.879C210.879 93.94 210.792 93.4467 210.619 93.02C210.446 92.5933 210.179 92.26 209.819 92.02C209.459 91.78 208.999 91.66 208.439 91.66ZM220.964 90.02C221.151 90.02 221.358 90.0333 221.584 90.06C221.811 90.0733 221.998 90.0933 222.144 90.12L221.924 92.1C221.778 92.06 221.604 92.0267 221.404 92C221.204 91.9733 221.018 91.96 220.844 91.96C220.444 91.96 220.058 92.04 219.684 92.2C219.324 92.3467 218.998 92.5667 218.704 92.86C218.411 93.14 218.178 93.4867 218.004 93.9C217.844 94.3133 217.764 94.7867 217.764 95.32V101H215.644V90.22H217.324L217.604 92.14H217.684C217.911 91.7533 218.184 91.4 218.504 91.08C218.824 90.76 219.191 90.5067 219.604 90.32C220.018 90.12 220.471 90.02 220.964 90.02Z" fill="#2B4380"/>
<path d="M239.102 90.6484C238.594 90.1797 238.594 89.3594 239.102 88.8906L244.102 83.8906C244.336 83.6562 244.648 83.5 245 83.5C245.312 83.5 245.625 83.6562 245.859 83.8906L250.859 88.8906C251.367 89.3594 251.367 90.1797 250.859 90.6484C250.391 91.1562 249.57 91.1562 249.102 90.6484L246.25 87.7969V97.25C246.25 97.9531 245.664 98.5 245 98.5C244.297 98.5 243.75 97.9531 243.75 97.25V87.7969L240.859 90.6484C240.391 91.1562 239.57 91.1562 239.102 90.6484ZM253.75 97.25C254.414 97.25 255 97.8359 255 98.5V102.25C255 102.953 254.414 103.5 253.75 103.5H236.25C235.547 103.5 235 102.953 235 102.25V98.5C235 97.8359 235.547 97.25 236.25 97.25H242.5C242.5 98.6562 243.594 99.75 245 99.75C246.367 99.75 247.5 98.6562 247.5 97.25H253.75ZM251.875 101.312C252.383 101.312 252.812 100.922 252.812 100.375C252.812 99.8672 252.383 99.4375 251.875 99.4375C251.328 99.4375 250.938 99.8672 250.938 100.375C250.938 100.922 251.328 101.312 251.875 101.312Z" fill="#2B4380"/>
<rect x="49" y="70" width="217" height="46" rx="5" stroke="#2B4380" stroke-width="2"/>
<path d="M70.06 166.49V171.1H75.69V172.99H70.06V179H67.71V164.6H76.69V166.49H70.06ZM80.8195 168.8V179H78.6695V168.8H80.8195ZM81.1795 165.72C81.1795 165.913 81.1395 166.097 81.0595 166.27C80.9862 166.443 80.8829 166.597 80.7495 166.73C80.6162 166.857 80.4595 166.96 80.2795 167.04C80.1062 167.113 79.9195 167.15 79.7195 167.15C79.5262 167.15 79.3429 167.113 79.1695 167.04C79.0029 166.96 78.8562 166.857 78.7295 166.73C78.6029 166.597 78.4995 166.443 78.4195 166.27C78.3462 166.097 78.3095 165.913 78.3095 165.72C78.3095 165.52 78.3462 165.333 78.4195 165.16C78.4995 164.987 78.6029 164.837 78.7295 164.71C78.8562 164.577 79.0029 164.473 79.1695 164.4C79.3429 164.32 79.5262 164.28 79.7195 164.28C79.9195 164.28 80.1062 164.32 80.2795 164.4C80.4595 164.473 80.6162 164.577 80.7495 164.71C80.8829 164.837 80.9862 164.987 81.0595 165.16C81.1395 165.333 81.1795 165.52 81.1795 165.72ZM90.7309 170.8C90.6643 170.887 90.6009 170.953 90.5409 171C90.4809 171.047 90.3943 171.07 90.2809 171.07C90.1676 171.07 90.0476 171.03 89.9209 170.95C89.8009 170.87 89.6543 170.783 89.4809 170.69C89.3143 170.59 89.1109 170.5 88.8709 170.42C88.6309 170.34 88.3309 170.3 87.9709 170.3C87.5043 170.3 87.0943 170.383 86.7409 170.55C86.3943 170.717 86.1009 170.957 85.8609 171.27C85.6276 171.577 85.4509 171.953 85.3309 172.4C85.2176 172.84 85.1609 173.337 85.1609 173.89C85.1609 174.463 85.2243 174.973 85.3509 175.42C85.4776 175.867 85.6576 176.243 85.8909 176.55C86.1309 176.857 86.4176 177.09 86.7509 177.25C87.0909 177.41 87.4709 177.49 87.8909 177.49C88.3043 177.49 88.6409 177.44 88.9009 177.34C89.1609 177.24 89.3776 177.13 89.5509 177.01C89.7243 176.89 89.8709 176.78 89.9909 176.68C90.1176 176.58 90.2509 176.53 90.3909 176.53C90.5643 176.53 90.6976 176.597 90.7909 176.73L91.4009 177.52C91.1543 177.82 90.8809 178.073 90.5809 178.28C90.2809 178.487 89.9643 178.657 89.6309 178.79C89.2976 178.917 88.9509 179.007 88.5909 179.06C88.2309 179.12 87.8676 179.15 87.5009 179.15C86.8676 179.15 86.2743 179.033 85.7209 178.8C85.1743 178.56 84.6943 178.217 84.2809 177.77C83.8743 177.317 83.5509 176.767 83.3109 176.12C83.0776 175.467 82.9609 174.723 82.9609 173.89C82.9609 173.137 83.0676 172.44 83.2809 171.8C83.4943 171.153 83.8043 170.597 84.2109 170.13C84.6243 169.663 85.1343 169.3 85.7409 169.04C86.3476 168.773 87.0476 168.64 87.8409 168.64C88.5809 168.64 89.2309 168.76 89.7909 169C90.3576 169.24 90.8609 169.58 91.3009 170.02L90.7309 170.8ZM95.2803 170.01C95.7003 169.597 96.1603 169.267 96.6603 169.02C97.1603 168.767 97.7436 168.64 98.4103 168.64C98.9703 168.64 99.4603 168.733 99.8803 168.92C100.307 169.107 100.664 169.37 100.95 169.71C101.244 170.05 101.464 170.46 101.61 170.94C101.757 171.413 101.83 171.937 101.83 172.51V179H99.6903V172.51C99.6903 171.823 99.5303 171.29 99.2103 170.91C98.897 170.53 98.417 170.34 97.7703 170.34C97.2903 170.34 96.8436 170.45 96.4303 170.67C96.0236 170.89 95.6403 171.19 95.2803 171.57V179H93.1303V164.2H95.2803V170.01ZM106.581 168.8V179H104.431V168.8H106.581ZM106.941 165.72C106.941 165.913 106.901 166.097 106.821 166.27C106.748 166.443 106.645 166.597 106.511 166.73C106.378 166.857 106.221 166.96 106.041 167.04C105.868 167.113 105.681 167.15 105.481 167.15C105.288 167.15 105.105 167.113 104.931 167.04C104.765 166.96 104.618 166.857 104.491 166.73C104.365 166.597 104.261 166.443 104.181 166.27C104.108 166.097 104.071 165.913 104.071 165.72C104.071 165.52 104.108 165.333 104.181 165.16C104.261 164.987 104.365 164.837 104.491 164.71C104.618 164.577 104.765 164.473 104.931 164.4C105.105 164.32 105.288 164.28 105.481 164.28C105.681 164.28 105.868 164.32 106.041 164.4C106.221 164.473 106.378 164.577 106.511 164.71C106.645 164.837 106.748 164.987 106.821 165.16C106.901 165.333 106.941 165.52 106.941 165.72ZM115.973 172.75C115.973 172.39 115.919 172.057 115.813 171.75C115.713 171.437 115.563 171.167 115.363 170.94C115.163 170.707 114.913 170.527 114.613 170.4C114.319 170.267 113.979 170.2 113.593 170.2C112.813 170.2 112.199 170.423 111.753 170.87C111.306 171.317 111.023 171.943 110.903 172.75H115.973ZM110.843 174.07C110.869 174.65 110.959 175.153 111.113 175.58C111.266 176 111.469 176.35 111.723 176.63C111.983 176.91 112.289 177.12 112.643 177.26C113.003 177.393 113.403 177.46 113.843 177.46C114.263 177.46 114.626 177.413 114.933 177.32C115.239 177.22 115.506 177.113 115.733 177C115.959 176.88 116.153 176.773 116.313 176.68C116.473 176.58 116.619 176.53 116.753 176.53C116.926 176.53 117.059 176.597 117.153 176.73L117.763 177.52C117.509 177.82 117.223 178.073 116.903 178.28C116.583 178.487 116.243 178.657 115.883 178.79C115.523 178.917 115.153 179.007 114.773 179.06C114.393 179.12 114.023 179.15 113.663 179.15C112.956 179.15 112.299 179.033 111.693 178.8C111.093 178.56 110.569 178.21 110.123 177.75C109.683 177.29 109.336 176.72 109.083 176.04C108.836 175.36 108.713 174.577 108.713 173.69C108.713 172.983 108.823 172.323 109.043 171.71C109.269 171.097 109.589 170.563 110.003 170.11C110.423 169.657 110.929 169.3 111.523 169.04C112.123 168.773 112.799 168.64 113.553 168.64C114.179 168.64 114.759 168.743 115.293 168.95C115.826 169.15 116.286 169.447 116.673 169.84C117.059 170.233 117.359 170.717 117.573 171.29C117.793 171.857 117.903 172.503 117.903 173.23C117.903 173.563 117.866 173.787 117.793 173.9C117.719 174.013 117.586 174.07 117.393 174.07H110.843ZM121.938 170.69C122.258 170.043 122.644 169.537 123.098 169.17C123.551 168.797 124.094 168.61 124.728 168.61C124.948 168.61 125.154 168.637 125.348 168.69C125.541 168.737 125.714 168.81 125.868 168.91L125.718 170.53C125.691 170.643 125.648 170.723 125.588 170.77C125.534 170.81 125.461 170.83 125.368 170.83C125.268 170.83 125.124 170.813 124.938 170.78C124.751 170.74 124.554 170.72 124.348 170.72C124.048 170.72 123.781 170.763 123.548 170.85C123.321 170.937 123.114 171.063 122.928 171.23C122.748 171.397 122.588 171.6 122.448 171.84C122.308 172.08 122.178 172.353 122.058 172.66V179H119.908V168.8H121.158C121.384 168.8 121.541 168.843 121.628 168.93C121.714 169.01 121.774 169.153 121.808 169.36L121.938 170.69ZM134.55 180.48V181.9H126.67V180.48H134.55ZM139.818 179.16C138.972 179.16 138.318 178.923 137.858 178.45C137.405 177.97 137.178 177.297 137.178 176.43V170.49H136.058C135.938 170.49 135.835 170.453 135.748 170.38C135.662 170.3 135.618 170.183 135.618 170.03V169.16L137.268 168.92L137.738 165.97C137.772 165.857 137.828 165.767 137.908 165.7C137.988 165.627 138.095 165.59 138.228 165.59H139.328V168.94H142.158V170.49H139.328V176.28C139.328 176.647 139.418 176.927 139.598 177.12C139.778 177.313 140.018 177.41 140.318 177.41C140.485 177.41 140.628 177.39 140.748 177.35C140.868 177.303 140.972 177.257 141.058 177.21C141.145 177.157 141.218 177.11 141.278 177.07C141.345 177.023 141.408 177 141.468 177C141.588 177 141.685 177.067 141.758 177.2L142.398 178.25C142.065 178.543 141.672 178.77 141.218 178.93C140.765 179.083 140.298 179.16 139.818 179.16ZM150.465 172.75C150.465 172.39 150.412 172.057 150.305 171.75C150.205 171.437 150.055 171.167 149.855 170.94C149.655 170.707 149.405 170.527 149.105 170.4C148.812 170.267 148.472 170.2 148.085 170.2C147.305 170.2 146.692 170.423 146.245 170.87C145.798 171.317 145.515 171.943 145.395 172.75H150.465ZM145.335 174.07C145.362 174.65 145.452 175.153 145.605 175.58C145.758 176 145.962 176.35 146.215 176.63C146.475 176.91 146.782 177.12 147.135 177.26C147.495 177.393 147.895 177.46 148.335 177.46C148.755 177.46 149.118 177.413 149.425 177.32C149.732 177.22 149.998 177.113 150.225 177C150.452 176.88 150.645 176.773 150.805 176.68C150.965 176.58 151.112 176.53 151.245 176.53C151.418 176.53 151.552 176.597 151.645 176.73L152.255 177.52C152.002 177.82 151.715 178.073 151.395 178.28C151.075 178.487 150.735 178.657 150.375 178.79C150.015 178.917 149.645 179.007 149.265 179.06C148.885 179.12 148.515 179.15 148.155 179.15C147.448 179.15 146.792 179.033 146.185 178.8C145.585 178.56 145.062 178.21 144.615 177.75C144.175 177.29 143.828 176.72 143.575 176.04C143.328 175.36 143.205 174.577 143.205 173.69C143.205 172.983 143.315 172.323 143.535 171.71C143.762 171.097 144.082 170.563 144.495 170.11C144.915 169.657 145.422 169.3 146.015 169.04C146.615 168.773 147.292 168.64 148.045 168.64C148.672 168.64 149.252 168.743 149.785 168.95C150.318 169.15 150.778 169.447 151.165 169.84C151.552 170.233 151.852 170.717 152.065 171.29C152.285 171.857 152.395 172.503 152.395 173.23C152.395 173.563 152.358 173.787 152.285 173.9C152.212 174.013 152.078 174.07 151.885 174.07H145.335ZM151.295 164.44L148.885 167.03C148.778 167.15 148.672 167.233 148.565 167.28C148.465 167.327 148.332 167.35 148.165 167.35H146.885L148.335 164.93C148.428 164.763 148.535 164.64 148.655 164.56C148.782 164.48 148.965 164.44 149.205 164.44H151.295ZM156.59 164.2V179H154.44V164.2H156.59ZM165.934 172.75C165.934 172.39 165.88 172.057 165.774 171.75C165.674 171.437 165.524 171.167 165.324 170.94C165.124 170.707 164.874 170.527 164.574 170.4C164.28 170.267 163.94 170.2 163.554 170.2C162.774 170.2 162.16 170.423 161.714 170.87C161.267 171.317 160.984 171.943 160.864 172.75H165.934ZM160.804 174.07C160.83 174.65 160.92 175.153 161.074 175.58C161.227 176 161.43 176.35 161.684 176.63C161.944 176.91 162.25 177.12 162.604 177.26C162.964 177.393 163.364 177.46 163.804 177.46C164.224 177.46 164.587 177.413 164.894 177.32C165.2 177.22 165.467 177.113 165.694 177C165.92 176.88 166.114 176.773 166.274 176.68C166.434 176.58 166.58 176.53 166.714 176.53C166.887 176.53 167.02 176.597 167.114 176.73L167.724 177.52C167.47 177.82 167.184 178.073 166.864 178.28C166.544 178.487 166.204 178.657 165.844 178.79C165.484 178.917 165.114 179.007 164.734 179.06C164.354 179.12 163.984 179.15 163.624 179.15C162.917 179.15 162.26 179.033 161.654 178.8C161.054 178.56 160.53 178.21 160.084 177.75C159.644 177.29 159.297 176.72 159.044 176.04C158.797 175.36 158.674 174.577 158.674 173.69C158.674 172.983 158.784 172.323 159.004 171.71C159.23 171.097 159.55 170.563 159.964 170.11C160.384 169.657 160.89 169.3 161.484 169.04C162.084 168.773 162.76 168.64 163.514 168.64C164.14 168.64 164.72 168.743 165.254 168.95C165.787 169.15 166.247 169.447 166.634 169.84C167.02 170.233 167.32 170.717 167.534 171.29C167.754 171.857 167.864 172.503 167.864 173.23C167.864 173.563 167.827 173.787 167.754 173.9C167.68 174.013 167.547 174.07 167.354 174.07H160.804ZM166.764 164.44L164.354 167.03C164.247 167.15 164.14 167.233 164.034 167.28C163.934 167.327 163.8 167.35 163.634 167.35H162.354L163.804 164.93C163.897 164.763 164.004 164.64 164.124 164.56C164.25 164.48 164.434 164.44 164.674 164.44H166.764ZM178.614 168.8L174.514 179H172.574L168.474 168.8H170.244C170.411 168.8 170.548 168.843 170.654 168.93C170.768 169.01 170.841 169.107 170.874 169.22L173.134 175.16C173.228 175.44 173.311 175.717 173.384 175.99C173.458 176.263 173.521 176.54 173.574 176.82C173.628 176.54 173.691 176.267 173.764 176C173.844 175.727 173.931 175.447 174.024 175.16L176.324 169.22C176.364 169.1 176.438 169 176.544 168.92C176.651 168.84 176.781 168.8 176.934 168.8H178.614ZM186.48 172.75C186.48 172.39 186.427 172.057 186.32 171.75C186.22 171.437 186.07 171.167 185.87 170.94C185.67 170.707 185.42 170.527 185.12 170.4C184.827 170.267 184.487 170.2 184.1 170.2C183.32 170.2 182.707 170.423 182.26 170.87C181.814 171.317 181.53 171.943 181.41 172.75H186.48ZM181.35 174.07C181.377 174.65 181.467 175.153 181.62 175.58C181.774 176 181.977 176.35 182.23 176.63C182.49 176.91 182.797 177.12 183.15 177.26C183.51 177.393 183.91 177.46 184.35 177.46C184.77 177.46 185.134 177.413 185.44 177.32C185.747 177.22 186.014 177.113 186.24 177C186.467 176.88 186.66 176.773 186.82 176.68C186.98 176.58 187.127 176.53 187.26 176.53C187.434 176.53 187.567 176.597 187.66 176.73L188.27 177.52C188.017 177.82 187.73 178.073 187.41 178.28C187.09 178.487 186.75 178.657 186.39 178.79C186.03 178.917 185.66 179.007 185.28 179.06C184.9 179.12 184.53 179.15 184.17 179.15C183.464 179.15 182.807 179.033 182.2 178.8C181.6 178.56 181.077 178.21 180.63 177.75C180.19 177.29 179.844 176.72 179.59 176.04C179.344 175.36 179.22 174.577 179.22 173.69C179.22 172.983 179.33 172.323 179.55 171.71C179.777 171.097 180.097 170.563 180.51 170.11C180.93 169.657 181.437 169.3 182.03 169.04C182.63 168.773 183.307 168.64 184.06 168.64C184.687 168.64 185.267 168.743 185.8 168.95C186.334 169.15 186.794 169.447 187.18 169.84C187.567 170.233 187.867 170.717 188.08 171.29C188.3 171.857 188.41 172.503 188.41 173.23C188.41 173.563 188.374 173.787 188.3 173.9C188.227 174.013 188.094 174.07 187.9 174.07H181.35ZM192.445 170.69C192.765 170.043 193.152 169.537 193.605 169.17C194.059 168.797 194.602 168.61 195.235 168.61C195.455 168.61 195.662 168.637 195.855 168.69C196.049 168.737 196.222 168.81 196.375 168.91L196.225 170.53C196.199 170.643 196.155 170.723 196.095 170.77C196.042 170.81 195.969 170.83 195.875 170.83C195.775 170.83 195.632 170.813 195.445 170.78C195.259 170.74 195.062 170.72 194.855 170.72C194.555 170.72 194.289 170.763 194.055 170.85C193.829 170.937 193.622 171.063 193.435 171.23C193.255 171.397 193.095 171.6 192.955 171.84C192.815 172.08 192.685 172.353 192.565 172.66V179H190.415V168.8H191.665C191.892 168.8 192.049 168.843 192.135 168.93C192.222 169.01 192.282 169.153 192.315 169.36L192.445 170.69ZM203.83 170.65C203.776 170.743 203.716 170.81 203.65 170.85C203.583 170.89 203.5 170.91 203.4 170.91C203.286 170.91 203.163 170.877 203.03 170.81C202.896 170.737 202.74 170.657 202.56 170.57C202.38 170.483 202.166 170.407 201.92 170.34C201.68 170.267 201.396 170.23 201.07 170.23C200.803 170.23 200.56 170.263 200.34 170.33C200.126 170.39 199.943 170.48 199.79 170.6C199.643 170.713 199.53 170.85 199.45 171.01C199.37 171.163 199.33 171.33 199.33 171.51C199.33 171.75 199.403 171.95 199.55 172.11C199.696 172.27 199.89 172.41 200.13 172.53C200.37 172.643 200.643 172.747 200.95 172.84C201.256 172.933 201.57 173.033 201.89 173.14C202.21 173.247 202.523 173.37 202.83 173.51C203.136 173.65 203.41 173.823 203.65 174.03C203.89 174.23 204.083 174.477 204.23 174.77C204.376 175.057 204.45 175.407 204.45 175.82C204.45 176.3 204.363 176.743 204.19 177.15C204.016 177.557 203.763 177.91 203.43 178.21C203.096 178.51 202.68 178.743 202.18 178.91C201.686 179.077 201.12 179.16 200.48 179.16C200.126 179.16 199.783 179.127 199.45 179.06C199.123 179 198.81 178.917 198.51 178.81C198.216 178.697 197.94 178.563 197.68 178.41C197.426 178.257 197.2 178.09 197 177.91L197.5 177.09C197.56 176.99 197.633 176.913 197.72 176.86C197.813 176.8 197.926 176.77 198.06 176.77C198.2 176.77 198.336 176.817 198.47 176.91C198.61 176.997 198.77 177.093 198.95 177.2C199.136 177.307 199.36 177.407 199.62 177.5C199.88 177.587 200.203 177.63 200.59 177.63C200.91 177.63 201.186 177.593 201.42 177.52C201.653 177.44 201.846 177.333 202 177.2C202.153 177.067 202.266 176.917 202.34 176.75C202.413 176.577 202.45 176.393 202.45 176.2C202.45 175.94 202.376 175.727 202.23 175.56C202.083 175.393 201.886 175.25 201.64 175.13C201.4 175.01 201.123 174.903 200.81 174.81C200.503 174.717 200.19 174.617 199.87 174.51C199.55 174.403 199.233 174.28 198.92 174.14C198.613 174 198.336 173.823 198.09 173.61C197.85 173.39 197.656 173.127 197.51 172.82C197.363 172.507 197.29 172.127 197.29 171.68C197.29 171.273 197.37 170.887 197.53 170.52C197.696 170.153 197.936 169.83 198.25 169.55C198.57 169.27 198.96 169.05 199.42 168.89C199.886 168.723 200.423 168.64 201.03 168.64C201.716 168.64 202.34 168.75 202.9 168.97C203.46 169.19 203.93 169.49 204.31 169.87L203.83 170.65ZM213.16 172.75C213.16 172.39 213.107 172.057 213 171.75C212.9 171.437 212.75 171.167 212.55 170.94C212.35 170.707 212.1 170.527 211.8 170.4C211.507 170.267 211.167 170.2 210.78 170.2C210 170.2 209.387 170.423 208.94 170.87C208.493 171.317 208.21 171.943 208.09 172.75H213.16ZM208.03 174.07C208.057 174.65 208.147 175.153 208.3 175.58C208.453 176 208.657 176.35 208.91 176.63C209.17 176.91 209.477 177.12 209.83 177.26C210.19 177.393 210.59 177.46 211.03 177.46C211.45 177.46 211.813 177.413 212.12 177.32C212.427 177.22 212.693 177.113 212.92 177C213.147 176.88 213.34 176.773 213.5 176.68C213.66 176.58 213.807 176.53 213.94 176.53C214.113 176.53 214.247 176.597 214.34 176.73L214.95 177.52C214.697 177.82 214.41 178.073 214.09 178.28C213.77 178.487 213.43 178.657 213.07 178.79C212.71 178.917 212.34 179.007 211.96 179.06C211.58 179.12 211.21 179.15 210.85 179.15C210.143 179.15 209.487 179.033 208.88 178.8C208.28 178.56 207.757 178.21 207.31 177.75C206.87 177.29 206.523 176.72 206.27 176.04C206.023 175.36 205.9 174.577 205.9 173.69C205.9 172.983 206.01 172.323 206.23 171.71C206.457 171.097 206.777 170.563 207.19 170.11C207.61 169.657 208.117 169.3 208.71 169.04C209.31 168.773 209.987 168.64 210.74 168.64C211.367 168.64 211.947 168.743 212.48 168.95C213.013 169.15 213.473 169.447 213.86 169.84C214.247 170.233 214.547 170.717 214.76 171.29C214.98 171.857 215.09 172.503 215.09 173.23C215.09 173.563 215.053 173.787 214.98 173.9C214.907 174.013 214.773 174.07 214.58 174.07H208.03ZM213.99 164.44L211.58 167.03C211.473 167.15 211.367 167.233 211.26 167.28C211.16 167.327 211.027 167.35 210.86 167.35H209.58L211.03 164.93C211.123 164.763 211.23 164.64 211.35 164.56C211.477 164.48 211.66 164.44 211.9 164.44H213.99ZM216.765 177.76C216.765 177.567 216.798 177.387 216.865 177.22C216.938 177.047 217.035 176.897 217.155 176.77C217.282 176.643 217.428 176.543 217.595 176.47C217.768 176.397 217.952 176.36 218.145 176.36C218.338 176.36 218.518 176.397 218.685 176.47C218.858 176.543 219.008 176.643 219.135 176.77C219.262 176.897 219.362 177.047 219.435 177.22C219.508 177.387 219.545 177.567 219.545 177.76C219.545 177.96 219.508 178.143 219.435 178.31C219.362 178.477 219.262 178.623 219.135 178.75C219.008 178.877 218.858 178.973 218.685 179.04C218.518 179.113 218.338 179.15 218.145 179.15C217.952 179.15 217.768 179.113 217.595 179.04C217.428 178.973 217.282 178.877 217.155 178.75C217.035 178.623 216.938 178.477 216.865 178.31C216.798 178.143 216.765 177.96 216.765 177.76ZM223.972 176.44C224.272 176.827 224.598 177.1 224.952 177.26C225.312 177.413 225.708 177.49 226.142 177.49C226.982 177.49 227.635 177.183 228.102 176.57C228.575 175.957 228.812 175.043 228.812 173.83C228.812 173.203 228.758 172.67 228.652 172.23C228.545 171.783 228.392 171.42 228.192 171.14C227.992 170.86 227.748 170.657 227.462 170.53C227.175 170.403 226.852 170.34 226.492 170.34C225.945 170.34 225.472 170.46 225.072 170.7C224.678 170.933 224.312 171.27 223.972 171.71V176.44ZM223.862 170.28C224.288 169.78 224.772 169.377 225.312 169.07C225.858 168.763 226.492 168.61 227.212 168.61C227.785 168.61 228.305 168.727 228.772 168.96C229.238 169.187 229.638 169.52 229.972 169.96C230.305 170.4 230.562 170.947 230.742 171.6C230.928 172.247 231.022 172.99 231.022 173.83C231.022 174.583 230.918 175.287 230.712 175.94C230.512 176.587 230.222 177.15 229.842 177.63C229.462 178.103 229.002 178.477 228.462 178.75C227.922 179.017 227.312 179.15 226.632 179.15C226.032 179.15 225.522 179.053 225.102 178.86C224.688 178.667 224.312 178.4 223.972 178.06V182.39H221.822V168.8H223.122C223.415 168.8 223.602 168.937 223.682 169.21L223.862 170.28ZM239.621 171.31C239.321 170.923 238.991 170.653 238.631 170.5C238.271 170.347 237.881 170.27 237.461 170.27C236.621 170.27 235.964 170.58 235.491 171.2C235.017 171.813 234.781 172.723 234.781 173.93C234.781 174.557 234.834 175.093 234.941 175.54C235.047 175.98 235.201 176.34 235.401 176.62C235.601 176.9 235.844 177.103 236.131 177.23C236.417 177.357 236.741 177.42 237.101 177.42C237.647 177.42 238.117 177.303 238.511 177.07C238.911 176.83 239.281 176.493 239.621 176.06V171.31ZM241.771 164.2V179H240.471C240.184 179 240.001 178.863 239.921 178.59L239.731 177.48C239.304 177.98 238.817 178.383 238.271 178.69C237.731 178.997 237.101 179.15 236.381 179.15C235.807 179.15 235.287 179.037 234.821 178.81C234.354 178.577 233.954 178.24 233.621 177.8C233.287 177.36 233.027 176.817 232.841 176.17C232.661 175.517 232.571 174.77 232.571 173.93C232.571 173.17 232.671 172.467 232.871 171.82C233.077 171.173 233.371 170.613 233.751 170.14C234.131 169.66 234.591 169.287 235.131 169.02C235.677 168.747 236.287 168.61 236.961 168.61C237.561 168.61 238.071 168.707 238.491 168.9C238.911 169.087 239.287 169.35 239.621 169.69V164.2H241.771ZM245.09 179V170.51L244.09 170.37C243.923 170.337 243.787 170.277 243.68 170.19C243.58 170.103 243.53 169.98 243.53 169.82V168.94H245.09V168.08C245.09 167.5 245.173 166.98 245.34 166.52C245.513 166.06 245.757 165.67 246.07 165.35C246.39 165.03 246.777 164.787 247.23 164.62C247.683 164.447 248.193 164.36 248.76 164.36C248.993 164.36 249.213 164.377 249.42 164.41C249.633 164.443 249.84 164.493 250.04 164.56L250 165.64C249.987 165.82 249.897 165.927 249.73 165.96C249.57 165.993 249.367 166.01 249.12 166.01C248.82 166.01 248.55 166.047 248.31 166.12C248.07 166.187 247.863 166.303 247.69 166.47C247.523 166.637 247.393 166.857 247.3 167.13C247.213 167.403 247.17 167.743 247.17 168.15V168.94H249.96V170.49H247.24V179H245.09Z" fill="#333333"/>
<path d="M393.1 175.14C393.1 175.993 392.893 176.72 392.48 177.32C392.067 177.92 391.473 178.387 390.7 178.72C389.927 179.04 389.007 179.2 387.94 179.2C387.42 179.2 386.92 179.167 386.44 179.1C385.96 179.047 385.513 178.967 385.1 178.86C384.687 178.753 384.32 178.62 384 178.46V176.42C384.533 176.66 385.16 176.88 385.88 177.08C386.6 177.267 387.333 177.36 388.08 177.36C388.72 177.36 389.253 177.273 389.68 177.1C390.107 176.927 390.427 176.687 390.64 176.38C390.853 176.073 390.96 175.713 390.96 175.3C390.96 174.86 390.847 174.493 390.62 174.2C390.407 173.893 390.067 173.613 389.6 173.36C389.147 173.093 388.533 172.813 387.76 172.52C387.227 172.32 386.74 172.1 386.3 171.86C385.873 171.607 385.493 171.313 385.16 170.98C384.84 170.647 384.593 170.26 384.42 169.82C384.247 169.38 384.16 168.867 384.16 168.28C384.16 167.493 384.353 166.82 384.74 166.26C385.14 165.7 385.687 165.273 386.38 164.98C387.073 164.673 387.88 164.52 388.8 164.52C389.573 164.52 390.287 164.6 390.94 164.76C391.607 164.907 392.24 165.113 392.84 165.38L392.16 167.16C391.613 166.933 391.06 166.747 390.5 166.6C389.94 166.453 389.353 166.38 388.74 166.38C388.207 166.38 387.76 166.46 387.4 166.62C387.04 166.78 386.767 167 386.58 167.28C386.407 167.56 386.32 167.887 386.32 168.26C386.32 168.7 386.42 169.067 386.62 169.36C386.82 169.653 387.14 169.927 387.58 170.18C388.02 170.42 388.6 170.687 389.32 170.98C390.12 171.287 390.8 171.62 391.36 171.98C391.933 172.34 392.367 172.773 392.66 173.28C392.953 173.773 393.1 174.393 393.1 175.14ZM404.936 168.22V179H403.236L402.936 177.58H402.836C402.609 177.953 402.316 178.26 401.956 178.5C401.596 178.74 401.203 178.913 400.776 179.02C400.349 179.14 399.909 179.2 399.456 179.2C398.616 179.2 397.903 179.067 397.316 178.8C396.743 178.52 396.303 178.093 395.996 177.52C395.703 176.933 395.556 176.187 395.556 175.28V168.22H397.696V174.96C397.696 175.8 397.869 176.427 398.216 176.84C398.576 177.253 399.129 177.46 399.876 177.46C400.623 177.46 401.209 177.313 401.636 177.02C402.063 176.727 402.363 176.3 402.536 175.74C402.723 175.167 402.816 174.48 402.816 173.68V168.22H404.936ZM413.634 168.02C414.927 168.02 415.967 168.487 416.754 169.42C417.554 170.353 417.954 171.747 417.954 173.6C417.954 174.813 417.774 175.84 417.414 176.68C417.054 177.52 416.547 178.153 415.894 178.58C415.24 178.993 414.48 179.2 413.614 179.2C413.067 179.2 412.587 179.133 412.174 179C411.76 178.853 411.407 178.667 411.114 178.44C410.834 178.2 410.587 177.947 410.374 177.68H410.234C410.274 177.92 410.307 178.207 410.334 178.54C410.36 178.86 410.374 179.147 410.374 179.4V183.8H408.254V168.22H409.974L410.274 169.66H410.374C410.587 169.367 410.84 169.093 411.134 168.84C411.427 168.587 411.78 168.387 412.194 168.24C412.607 168.093 413.087 168.02 413.634 168.02ZM413.134 169.76C412.467 169.76 411.934 169.893 411.534 170.16C411.134 170.413 410.84 170.8 410.654 171.32C410.48 171.827 410.387 172.473 410.374 173.26V173.58C410.374 174.407 410.46 175.113 410.634 175.7C410.807 176.273 411.094 176.713 411.494 177.02C411.907 177.313 412.467 177.46 413.174 177.46C413.774 177.46 414.26 177.3 414.634 176.98C415.02 176.647 415.307 176.187 415.494 175.6C415.68 175.013 415.774 174.333 415.774 173.56C415.774 172.387 415.56 171.46 415.134 170.78C414.707 170.1 414.04 169.76 413.134 169.76ZM426.036 168.02C427.329 168.02 428.369 168.487 429.156 169.42C429.956 170.353 430.356 171.747 430.356 173.6C430.356 174.813 430.176 175.84 429.816 176.68C429.456 177.52 428.949 178.153 428.296 178.58C427.643 178.993 426.883 179.2 426.016 179.2C425.469 179.2 424.989 179.133 424.576 179C424.163 178.853 423.809 178.667 423.516 178.44C423.236 178.2 422.989 177.947 422.776 177.68H422.636C422.676 177.92 422.709 178.207 422.736 178.54C422.763 178.86 422.776 179.147 422.776 179.4V183.8H420.656V168.22H422.376L422.676 169.66H422.776C422.989 169.367 423.243 169.093 423.536 168.84C423.829 168.587 424.183 168.387 424.596 168.24C425.009 168.093 425.489 168.02 426.036 168.02ZM425.536 169.76C424.869 169.76 424.336 169.893 423.936 170.16C423.536 170.413 423.243 170.8 423.056 171.32C422.883 171.827 422.789 172.473 422.776 173.26V173.58C422.776 174.407 422.863 175.113 423.036 175.7C423.209 176.273 423.496 176.713 423.896 177.02C424.309 177.313 424.869 177.46 425.576 177.46C426.176 177.46 426.663 177.3 427.036 176.98C427.423 176.647 427.709 176.187 427.896 175.6C428.083 175.013 428.176 174.333 428.176 173.56C428.176 172.387 427.963 171.46 427.536 170.78C427.109 170.1 426.443 169.76 425.536 169.76ZM438.378 168.02C438.565 168.02 438.772 168.033 438.998 168.06C439.225 168.073 439.412 168.093 439.558 168.12L439.338 170.1C439.192 170.06 439.018 170.027 438.818 170C438.618 169.973 438.432 169.96 438.258 169.96C437.858 169.96 437.472 170.04 437.098 170.2C436.738 170.347 436.412 170.567 436.118 170.86C435.825 171.14 435.592 171.487 435.418 171.9C435.258 172.313 435.178 172.787 435.178 173.32V179H433.058V168.22H434.738L435.018 170.14H435.098C435.325 169.753 435.598 169.4 435.918 169.08C436.238 168.76 436.605 168.507 437.018 168.32C437.432 168.12 437.885 168.02 438.378 168.02ZM443.675 168.22V179H441.555V168.22H443.675ZM442.635 164.12C442.955 164.12 443.235 164.213 443.475 164.4C443.715 164.587 443.835 164.9 443.835 165.34C443.835 165.767 443.715 166.08 443.475 166.28C443.235 166.467 442.955 166.56 442.635 166.56C442.288 166.56 441.995 166.467 441.755 166.28C441.528 166.08 441.415 165.767 441.415 165.34C441.415 164.9 441.528 164.587 441.755 164.4C441.995 164.213 442.288 164.12 442.635 164.12ZM459.084 168.02C460.297 168.02 461.21 168.333 461.824 168.96C462.437 169.587 462.744 170.593 462.744 171.98V179H460.624V172.26C460.624 171.433 460.457 170.813 460.124 170.4C459.804 169.973 459.297 169.76 458.604 169.76C457.644 169.76 456.957 170.06 456.544 170.66C456.13 171.247 455.924 172.1 455.924 173.22V179H453.824V172.26C453.824 171.713 453.744 171.253 453.584 170.88C453.437 170.507 453.217 170.227 452.924 170.04C452.63 169.853 452.25 169.76 451.784 169.76C451.117 169.76 450.59 169.907 450.204 170.2C449.817 170.493 449.537 170.927 449.364 171.5C449.204 172.06 449.124 172.747 449.124 173.56V179H447.004V168.22H448.684L448.984 169.66H449.104C449.33 169.287 449.604 168.98 449.924 168.74C450.257 168.5 450.624 168.32 451.024 168.2C451.424 168.08 451.837 168.02 452.264 168.02C453.077 168.02 453.764 168.167 454.324 168.46C454.884 168.74 455.29 169.173 455.544 169.76H455.704C456.05 169.16 456.53 168.72 457.144 168.44C457.757 168.16 458.404 168.02 459.084 168.02ZM470.228 168.02C471.175 168.02 471.988 168.22 472.668 168.62C473.348 169.007 473.868 169.567 474.228 170.3C474.601 171.033 474.788 171.9 474.788 172.9V174.06H467.548C467.575 175.167 467.861 176.013 468.408 176.6C468.968 177.187 469.748 177.48 470.748 177.48C471.441 177.48 472.055 177.42 472.588 177.3C473.135 177.167 473.695 176.973 474.268 176.72V178.48C473.735 178.72 473.188 178.9 472.628 179.02C472.081 179.14 471.428 179.2 470.668 179.2C469.628 179.2 468.708 178.993 467.908 178.58C467.108 178.167 466.481 177.553 466.028 176.74C465.588 175.913 465.368 174.9 465.368 173.7C465.368 172.487 465.568 171.46 465.968 170.62C466.381 169.78 466.948 169.14 467.668 168.7C468.401 168.247 469.255 168.02 470.228 168.02ZM470.228 169.66C469.468 169.66 468.855 169.907 468.388 170.4C467.935 170.893 467.668 171.593 467.588 172.5H472.668C472.668 171.94 472.581 171.447 472.408 171.02C472.235 170.593 471.968 170.26 471.608 170.02C471.248 169.78 470.788 169.66 470.228 169.66ZM482.753 168.02C482.94 168.02 483.147 168.033 483.373 168.06C483.6 168.073 483.787 168.093 483.933 168.12L483.713 170.1C483.567 170.06 483.393 170.027 483.193 170C482.993 169.973 482.807 169.96 482.633 169.96C482.233 169.96 481.847 170.04 481.473 170.2C481.113 170.347 480.787 170.567 480.493 170.86C480.2 171.14 479.967 171.487 479.793 171.9C479.633 172.313 479.553 172.787 479.553 173.32V179H477.433V168.22H479.113L479.393 170.14H479.473C479.7 169.753 479.973 169.4 480.293 169.08C480.613 168.76 480.98 168.507 481.393 168.32C481.807 168.12 482.26 168.02 482.753 168.02Z" fill="#A62A1E"/>
<path d="M485 182H383V184H485V182Z" fill="#A62A1E" mask="url(#path-8-outside-1_210_2983)"/>
<path d="M509.359 175.641C509.867 176.109 509.867 176.93 509.359 177.398C509.125 177.633 508.812 177.75 508.5 177.75C508.148 177.75 507.836 177.633 507.602 177.398L503.5 173.297L499.359 177.398C499.125 177.633 498.812 177.75 498.5 177.75C498.148 177.75 497.836 177.633 497.602 177.398C497.094 176.93 497.094 176.109 497.602 175.641L501.703 171.5L497.602 167.398C497.094 166.93 497.094 166.109 497.602 165.641C498.07 165.133 498.891 165.133 499.359 165.641L503.5 169.742L507.602 165.641C508.07 165.133 508.891 165.133 509.359 165.641C509.867 166.109 509.867 166.93 509.359 167.398L505.258 171.539L509.359 175.641Z" fill="#A62A1E"/>
<rect x="49" y="136" width="478" height="70" stroke="#7D828B" stroke-width="2"/>
<g clip-path="url(#clip0_210_2983)">
<rect x="459" y="171" width="111" height="1" fill="#C54600"/>
<g clip-path="url(#clip1_210_2983)">
<rect x="558" y="159" width="24" height="24" rx="12" fill="#C54600"/>
<path d="M570.112 176.139C569.588 176.136 569.083 176.048 568.596 175.876C568.112 175.703 567.677 175.423 567.293 175.036C566.908 174.648 566.604 174.134 566.378 173.494C566.156 172.855 566.045 172.069 566.045 171.138C566.048 170.283 566.146 169.519 566.338 168.846C566.534 168.17 566.812 167.596 567.174 167.126C567.538 166.655 567.974 166.297 568.481 166.052C568.988 165.803 569.557 165.679 570.186 165.679C570.866 165.679 571.466 165.812 571.986 166.077C572.507 166.339 572.924 166.695 573.239 167.146C573.557 167.596 573.749 168.102 573.816 168.662H571.693C571.61 168.307 571.436 168.029 571.171 167.827C570.906 167.625 570.578 167.523 570.186 167.523C569.524 167.523 569.02 167.812 568.675 168.388C568.334 168.965 568.16 169.749 568.153 170.74H568.223C568.375 170.438 568.581 170.182 568.839 169.969C569.101 169.754 569.398 169.59 569.729 169.477C570.064 169.361 570.417 169.303 570.788 169.303C571.391 169.303 571.928 169.446 572.399 169.731C572.869 170.013 573.241 170.4 573.512 170.894C573.784 171.388 573.92 171.953 573.92 172.589C573.92 173.279 573.759 173.892 573.438 174.429C573.12 174.966 572.674 175.387 572.1 175.692C571.53 175.993 570.868 176.143 570.112 176.139ZM570.102 174.449C570.433 174.449 570.73 174.369 570.992 174.21C571.254 174.051 571.459 173.836 571.608 173.564C571.757 173.292 571.832 172.987 571.832 172.649C571.832 172.311 571.757 172.008 571.608 171.739C571.462 171.471 571.26 171.257 571.002 171.098C570.743 170.939 570.448 170.859 570.117 170.859C569.868 170.859 569.638 170.906 569.426 170.999C569.217 171.091 569.033 171.221 568.874 171.386C568.718 171.552 568.596 171.744 568.506 171.963C568.417 172.179 568.372 172.409 568.372 172.654C568.372 172.982 568.446 173.282 568.596 173.554C568.748 173.826 568.953 174.043 569.212 174.205C569.474 174.368 569.77 174.449 570.102 174.449Z" fill="white"/>
</g>
</g>
<g clip-path="url(#clip2_210_2983)">
<rect x="159" y="145.864" width="1" height="74.5428" fill="#C54600"/>
<g clip-path="url(#clip3_210_2983)">
<rect x="148" y="220" width="24" height="24" rx="12" fill="#C54600"/>
<path d="M160.032 237.139C159.33 237.139 158.703 237.01 158.153 236.751C157.606 236.493 157.172 236.137 156.85 235.683C156.529 235.228 156.362 234.708 156.348 234.121H158.436C158.46 234.516 158.625 234.836 158.934 235.081C159.242 235.326 159.608 235.449 160.032 235.449C160.37 235.449 160.669 235.374 160.927 235.225C161.189 235.073 161.393 234.862 161.539 234.594C161.688 234.322 161.762 234.01 161.762 233.659C161.762 233.301 161.686 232.986 161.534 232.714C161.385 232.443 161.177 232.231 160.912 232.078C160.647 231.926 160.344 231.848 160.002 231.844C159.704 231.844 159.414 231.906 159.132 232.028C158.854 232.151 158.637 232.318 158.481 232.531L156.567 232.188L157.049 226.818H163.274V228.578H158.824L158.561 231.129H158.62C158.799 230.877 159.069 230.668 159.431 230.502C159.792 230.336 160.196 230.254 160.644 230.254C161.257 230.254 161.804 230.398 162.284 230.686C162.765 230.974 163.145 231.371 163.423 231.874C163.701 232.375 163.839 232.951 163.836 233.604C163.839 234.29 163.68 234.9 163.358 235.434C163.04 235.964 162.594 236.382 162.021 236.687C161.451 236.988 160.788 237.139 160.032 237.139Z" fill="white"/>
</g>
</g>
<g clip-path="url(#clip4_210_2983)">
<rect y="171" width="48" height="1" fill="#C54600"/>
<g clip-path="url(#clip5_210_2983)">
<rect y="159" width="24" height="24" rx="12" fill="#C54600"/>
<path d="M7.92702 174.21V172.515L12.1777 165.818H13.6394V168.165H12.7743L10.0946 172.406V172.485H16.1351V174.21H7.92702ZM12.8141 176V173.693L12.8539 172.942V165.818H14.8723V176H12.8141Z" fill="white"/>
</g>
</g>
<g clip-path="url(#clip6_210_2983)">
<rect y="93" width="48" height="1" fill="#C54600"/>
<g clip-path="url(#clip7_210_2983)">
<rect y="81" width="24" height="24" rx="12" fill="#C54600"/>
<path d="M11.9745 98.1392C11.2321 98.1392 10.5709 98.0116 9.99086 97.7564C9.41415 97.4979 8.95842 97.1432 8.62367 96.6925C8.29223 96.2384 8.12154 95.7147 8.11159 95.1214H10.2792C10.2925 95.37 10.3737 95.5888 10.5228 95.7777C10.6753 95.9633 10.8775 96.1075 11.1294 96.2102C11.3812 96.313 11.6646 96.3643 11.9795 96.3643C12.3076 96.3643 12.5976 96.3063 12.8495 96.1903C13.1014 96.0743 13.2986 95.9136 13.4411 95.7081C13.5837 95.5026 13.6549 95.2656 13.6549 94.9972C13.6549 94.7254 13.5787 94.4851 13.4262 94.2763C13.2771 94.0642 13.0616 93.8984 12.7799 93.7791C12.5015 93.6598 12.1701 93.6001 11.7856 93.6001H10.836V92.0192H11.7856C12.1104 92.0192 12.3971 91.9628 12.6457 91.8501C12.8976 91.7375 13.0931 91.5817 13.2323 91.3828C13.3715 91.1806 13.4411 90.9453 13.4411 90.6768C13.4411 90.4216 13.3798 90.1979 13.2572 90.0057C13.1379 89.8101 12.9688 89.6577 12.7501 89.5483C12.5347 89.4389 12.2828 89.3842 11.9944 89.3842C11.7027 89.3842 11.4359 89.4373 11.194 89.5433C10.952 89.6461 10.7581 89.7936 10.6123 89.9858C10.4665 90.178 10.3886 90.4034 10.3786 90.6619H8.31543C8.32537 90.0753 8.49275 89.5582 8.81756 89.1108C9.14237 88.6634 9.57987 88.3137 10.1301 88.0618C10.6836 87.8066 11.3083 87.679 12.0044 87.679C12.707 87.679 13.3218 87.8066 13.8488 88.0618C14.3758 88.317 14.7851 88.6617 15.0768 89.0959C15.3718 89.5268 15.5176 90.0107 15.5143 90.5476C15.5176 91.1177 15.3403 91.5933 14.9823 91.9744C14.6277 92.3556 14.1653 92.5975 13.5953 92.7003V92.7798C14.3443 92.8759 14.9144 93.1361 15.3055 93.5604C15.6999 93.9813 15.8954 94.5083 15.8921 95.1413C15.8954 95.7214 15.7281 96.2367 15.39 96.6875C15.0553 97.1383 14.5929 97.4929 14.0029 97.7514C13.413 98.0099 12.7368 98.1392 11.9745 98.1392Z" fill="white"/>
</g>
</g>
<g clip-path="url(#clip8_210_2983)">
<rect y="42" width="48" height="1" fill="#C54600"/>
<g clip-path="url(#clip9_210_2983)">
<rect y="30" width="24" height="24" rx="12" fill="#C54600"/>
<path d="M8.4161 47V45.4489L12.0404 42.093C12.3486 41.7947 12.6072 41.5263 12.816 41.2876C13.0281 41.049 13.1888 40.8153 13.2982 40.5866C13.4076 40.3546 13.4623 40.1044 13.4623 39.8359C13.4623 39.5376 13.3943 39.2808 13.2584 39.0653C13.1225 38.8466 12.9369 38.6792 12.7016 38.5632C12.4663 38.4439 12.1995 38.3842 11.9012 38.3842C11.5896 38.3842 11.3179 38.4472 11.0858 38.5732C10.8538 38.6991 10.6749 38.8797 10.5489 39.1151C10.423 39.3504 10.36 39.6304 10.36 39.9553H8.31667C8.31667 39.2891 8.46748 38.7107 8.76909 38.2202C9.0707 37.7296 9.49328 37.3501 10.0368 37.0817C10.5804 36.8132 11.2068 36.679 11.9161 36.679C12.6453 36.679 13.28 36.8082 13.8202 37.0668C14.3638 37.322 14.7864 37.6766 15.088 38.1307C15.3896 38.5848 15.5404 39.1051 15.5404 39.6918C15.5404 40.0762 15.4642 40.4557 15.3117 40.8303C15.1626 41.2048 14.8957 41.6207 14.5113 42.0781C14.1268 42.5322 13.5849 43.0774 12.8856 43.7138L11.3991 45.1705V45.2401H15.6746V47H8.4161Z" fill="white"/>
</g>
</g>
<g clip-path="url(#clip10_210_2983)">
<rect y="12" width="48" height="1" fill="#C54600"/>
<g clip-path="url(#clip11_210_2983)">
<rect width="24" height="24" rx="12" fill="#C54600"/>
<path d="M13.8302 6.81818V17H11.6775V8.86151H11.6178L9.28613 10.3232V8.41406L11.8067 6.81818H13.8302Z" fill="white"/>
</g>
</g>
<defs>
<clipPath id="clip0_210_2983">
<rect width="69" height="24" fill="white" transform="translate(513 159)"/>
</clipPath>
<clipPath id="clip1_210_2983">
<rect x="558" y="159" width="24" height="24" rx="12" fill="white"/>
</clipPath>
<clipPath id="clip2_210_2983">
<rect width="24" height="61" fill="white" transform="translate(148 183)"/>
</clipPath>
<clipPath id="clip3_210_2983">
<rect x="148" y="220" width="24" height="24" rx="12" fill="white"/>
</clipPath>
<clipPath id="clip4_210_2983">
<rect width="48" height="24" fill="white" transform="translate(0 159)"/>
</clipPath>
<clipPath id="clip5_210_2983">
<rect y="159" width="24" height="24" rx="12" fill="white"/>
</clipPath>
<clipPath id="clip6_210_2983">
<rect width="48" height="24" fill="white" transform="translate(0 81)"/>
</clipPath>
<clipPath id="clip7_210_2983">
<rect y="81" width="24" height="24" rx="12" fill="white"/>
</clipPath>
<clipPath id="clip8_210_2983">
<rect width="48" height="24" fill="white" transform="translate(0 30)"/>
</clipPath>
<clipPath id="clip9_210_2983">
<rect y="30" width="24" height="24" rx="12" fill="white"/>
</clipPath>
<clipPath id="clip10_210_2983">
<rect width="48" height="24" fill="white"/>
</clipPath>
<clipPath id="clip11_210_2983">
<rect width="24" height="24" rx="12" fill="white"/>
</clipPath>
</defs>
</svg>
