<svg width="396" xmlns="http://www.w3.org/2000/svg" xmlns:xlink="http://www.w3.org/1999/xlink" viewBox="0 0 411.5 160.6" style="enable-background:new 0 0 411.5 160.6;" xml:space="preserve">
<style type="text/css">
	.st0{clip-path:url(#SVGID_00000144295363645089111390000003839214106093374858_);}
	.st1{fill:#2B4380;}
	.st2{fill:none;stroke:#2B4380;}
	.st3{fill:#333333;}
	.st4{clip-path:url(#SVGID_00000163031256591522632160000005332670315534542008_);}
	.st5{fill:#C54600;}
	.st6{clip-path:url(#SVGID_00000016774113440603458660000012873026492303733693_);}
	.st7{fill:#FFFFFF;}
	.st8{clip-path:url(#SVGID_00000170242649126188998620000016282007340788789634_);}
	.st9{clip-path:url(#SVGID_00000142168891198763753420000004139590555821457070_);}
	.st10{clip-path:url(#SVGID_00000179640107671674801000000007382895061379336621_);}
	.st11{clip-path:url(#SVGID_00000079456200742126930970000004258263967031531397_);}
	.st12{fill:#A8ADB4;}
</style>
<g>
	<defs>
		<rect id="SVGID_1_" x="57.5" y="54" width="18" height="24"/>
	</defs>
	<clipPath id="SVGID_00000127017405446481051660000016087343444652774587_">
		<use xlink:href="#SVGID_1_"  style="overflow:visible;"/>
	</clipPath>
	<g style="clip-path:url(#SVGID_00000127017405446481051660000016087343444652774587_);">
		<path class="st1" d="M66.5,75l-7.8-13.5h15.6L66.5,75z"/>
	</g>
</g>
<path class="st1" d="M111.4,74l-1.7-4.4H104l-1.7,4.4h-1.8l5.6-14.3h1.6l5.6,14.3H111.4z M107.5,63.7c0-0.1-0.1-0.3-0.2-0.6
	c-0.1-0.3-0.2-0.6-0.3-0.9c-0.1-0.3-0.1-0.5-0.2-0.7c-0.1,0.4-0.2,0.8-0.3,1.2c-0.1,0.4-0.2,0.7-0.3,0.9l-1.6,4.3h4.5L107.5,63.7z
	 M120.1,63.1c1.3,0,2.4,0.5,3.2,1.4c0.8,0.9,1.2,2.3,1.2,4.2c0,1.8-0.4,3.2-1.2,4.2c-0.8,0.9-1.9,1.4-3.2,1.4
	c-0.8,0-1.5-0.2-2.1-0.5c-0.5-0.3-1-0.7-1.3-1.1h-0.1c0,0.2,0.1,0.5,0.1,0.9c0,0.3,0,0.6,0,0.9v4.4H115V63.3h1.4l0.2,1.5h0.1
	c0.3-0.5,0.7-0.9,1.3-1.2C118.5,63.2,119.2,63.1,120.1,63.1z M119.8,64.6c-1.1,0-1.9,0.3-2.3,0.9c-0.4,0.6-0.7,1.5-0.7,2.8v0.3
	c0,1.3,0.2,2.3,0.6,3.1c0.4,0.7,1.2,1.1,2.4,1.1c0.7,0,1.2-0.2,1.6-0.5c0.4-0.4,0.7-0.8,0.9-1.5c0.2-0.6,0.3-1.3,0.3-2.1
	c0-1.2-0.2-2.2-0.7-2.9C121.5,64.9,120.7,64.6,119.8,64.6z M132.4,63.1c1.3,0,2.4,0.5,3.2,1.4c0.8,0.9,1.2,2.3,1.2,4.2
	c0,1.8-0.4,3.2-1.2,4.2c-0.8,0.9-1.9,1.4-3.2,1.4c-0.8,0-1.5-0.2-2.1-0.5c-0.5-0.3-1-0.7-1.3-1.1h-0.1c0,0.2,0.1,0.5,0.1,0.9
	c0,0.3,0,0.6,0,0.9v4.4h-1.8V63.3h1.4l0.2,1.5h0.1c0.3-0.5,0.7-0.9,1.3-1.2C130.8,63.2,131.5,63.1,132.4,63.1z M132.1,64.6
	c-1.1,0-1.9,0.3-2.3,0.9c-0.4,0.6-0.7,1.5-0.7,2.8v0.3c0,1.3,0.2,2.3,0.6,3.1c0.4,0.7,1.2,1.1,2.4,1.1c0.7,0,1.2-0.2,1.6-0.5
	c0.4-0.4,0.7-0.8,0.9-1.5c0.2-0.6,0.3-1.3,0.3-2.1c0-1.2-0.2-2.2-0.7-2.9C133.8,64.9,133,64.6,132.1,64.6z M144.6,63.1
	c0.2,0,0.4,0,0.6,0c0.2,0,0.4,0,0.6,0.1l-0.2,1.6c-0.2,0-0.4-0.1-0.6-0.1c-0.2,0-0.4,0-0.6,0c-0.5,0-1.1,0.2-1.5,0.5
	c-0.5,0.3-0.9,0.7-1.2,1.3c-0.3,0.5-0.4,1.2-0.4,1.9V74h-1.8V63.3h1.4l0.2,2h0.1c0.3-0.6,0.8-1.1,1.3-1.5
	C143.2,63.3,143.8,63.1,144.6,63.1z M151.6,63.1c0.9,0,1.7,0.2,2.4,0.6c0.7,0.4,1.2,1,1.5,1.7c0.4,0.7,0.5,1.6,0.5,2.5V69h-7.3
	c0,1.2,0.3,2.1,0.9,2.8c0.6,0.6,1.4,0.9,2.5,0.9c0.7,0,1.3-0.1,1.8-0.2c0.5-0.1,1.1-0.3,1.6-0.6v1.5c-0.5,0.2-1.1,0.4-1.6,0.5
	c-0.5,0.1-1.2,0.2-1.9,0.2c-1,0-1.9-0.2-2.7-0.6c-0.8-0.4-1.4-1-1.8-1.8c-0.4-0.8-0.6-1.8-0.6-3c0-1.2,0.2-2.2,0.6-3
	c0.4-0.8,1-1.5,1.7-1.9C149.8,63.3,150.6,63.1,151.6,63.1z M151.6,64.5c-0.8,0-1.5,0.3-2,0.8c-0.5,0.5-0.8,1.3-0.9,2.2h5.5
	c0-0.9-0.2-1.6-0.6-2.2C153.1,64.8,152.5,64.5,151.6,64.5z M163.9,63.1c1.3,0,2.2,0.3,2.9,0.9c0.7,0.6,1,1.6,1,3v7H166v-6.9
	c0-1.7-0.8-2.6-2.4-2.6c-1.2,0-2,0.3-2.5,1c-0.5,0.7-0.7,1.6-0.7,2.9V74h-1.8V63.3h1.4l0.3,1.5h0.1c0.3-0.6,0.8-1,1.4-1.2
	C162.6,63.2,163.2,63.1,163.9,63.1z M175.2,63.1c0.9,0,1.7,0.2,2.4,0.6c0.7,0.4,1.2,1,1.5,1.7c0.4,0.7,0.5,1.6,0.5,2.5V69h-7.3
	c0,1.2,0.3,2.1,0.9,2.8c0.6,0.6,1.4,0.9,2.5,0.9c0.7,0,1.3-0.1,1.8-0.2c0.5-0.1,1.1-0.3,1.6-0.6v1.5c-0.5,0.2-1.1,0.4-1.6,0.5
	c-0.5,0.1-1.2,0.2-1.9,0.2c-1,0-1.9-0.2-2.7-0.6c-0.8-0.4-1.4-1-1.8-1.8c-0.4-0.8-0.6-1.8-0.6-3c0-1.2,0.2-2.2,0.6-3
	c0.4-0.8,1-1.5,1.7-1.9C173.5,63.3,174.3,63.1,175.2,63.1z M175.2,64.5c-0.8,0-1.5,0.3-2,0.8c-0.5,0.5-0.8,1.3-0.9,2.2h5.5
	c0-0.9-0.2-1.6-0.6-2.2C176.8,64.8,176.1,64.5,175.2,64.5z M189.1,74h-7.8v-1.2l5.8-8.2h-5.4v-1.4h7.4v1.3l-5.7,8h5.8V74z
	 M190.7,69.4v-1.6h4.8v1.6H190.7z M202.2,63.1c0.9,0,1.7,0.2,2.4,0.6c0.7,0.4,1.2,1,1.5,1.7c0.4,0.7,0.5,1.6,0.5,2.5V69h-7.3
	c0,1.2,0.3,2.1,0.9,2.8c0.6,0.6,1.4,0.9,2.5,0.9c0.7,0,1.3-0.1,1.8-0.2c0.5-0.1,1.1-0.3,1.6-0.6v1.5c-0.5,0.2-1.1,0.4-1.6,0.5
	c-0.5,0.1-1.2,0.2-1.9,0.2c-1,0-1.9-0.2-2.7-0.6c-0.8-0.4-1.4-1-1.8-1.8c-0.4-0.8-0.6-1.8-0.6-3c0-1.2,0.2-2.2,0.6-3
	c0.4-0.8,1-1.5,1.7-1.9C200.4,63.3,201.2,63.1,202.2,63.1z M202.2,64.5c-0.8,0-1.5,0.3-2,0.8c-0.5,0.5-0.8,1.3-0.9,2.2h5.5
	c0-0.9-0.2-1.6-0.6-2.2C203.7,64.8,203.1,64.5,202.2,64.5z M214.5,63.1c1.3,0,2.2,0.3,2.9,0.9c0.7,0.6,1,1.6,1,3v7h-1.7v-6.9
	c0-1.7-0.8-2.6-2.4-2.6c-1.2,0-2,0.3-2.5,1c-0.5,0.7-0.7,1.6-0.7,2.9V74h-1.8V63.3h1.4l0.3,1.5h0.1c0.3-0.6,0.8-1,1.4-1.2
	C213.2,63.2,213.8,63.1,214.5,63.1z M232,63.1c1.3,0,2.4,0.5,3.2,1.4c0.8,0.9,1.2,2.3,1.2,4.2c0,1.8-0.4,3.2-1.2,4.2
	c-0.8,0.9-1.9,1.4-3.2,1.4c-0.8,0-1.5-0.2-2.1-0.5c-0.5-0.3-1-0.7-1.3-1.1h-0.1c0,0.2,0.1,0.5,0.1,0.9c0,0.3,0,0.6,0,0.9v4.4h-1.8
	V63.3h1.4l0.2,1.5h0.1c0.3-0.5,0.7-0.9,1.3-1.2C230.4,63.2,231.1,63.1,232,63.1z M231.7,64.6c-1.1,0-1.9,0.3-2.3,0.9
	c-0.4,0.6-0.7,1.5-0.7,2.8v0.3c0,1.3,0.2,2.3,0.6,3.1c0.4,0.7,1.2,1.1,2.4,1.1c0.7,0,1.2-0.2,1.6-0.5c0.4-0.4,0.7-0.8,0.9-1.5
	c0.2-0.6,0.3-1.3,0.3-2.1c0-1.2-0.2-2.2-0.7-2.9C233.4,64.9,232.7,64.6,231.7,64.6z M241,74h-1.8V58.8h1.8V74z M253.3,63.3V74h-1.4
	l-0.3-1.4h-0.1c-0.3,0.6-0.8,1-1.4,1.2c-0.6,0.3-1.3,0.4-2,0.4c-1.3,0-2.3-0.3-2.9-0.9c-0.7-0.6-1-1.6-1-3v-7h1.8v6.9
	c0,1.7,0.8,2.6,2.4,2.6c1.2,0,2-0.3,2.5-1c0.5-0.7,0.7-1.6,0.7-2.9v-5.6H253.3z M263.7,71c0,1-0.4,1.8-1.2,2.4
	c-0.8,0.5-1.8,0.8-3.1,0.8c-0.7,0-1.4-0.1-1.9-0.2c-0.5-0.1-1-0.3-1.4-0.5v-1.6c0.4,0.2,0.9,0.4,1.5,0.6c0.6,0.2,1.2,0.3,1.9,0.3
	c0.9,0,1.5-0.1,1.9-0.4c0.4-0.3,0.6-0.7,0.6-1.2c0-0.3-0.1-0.5-0.2-0.7c-0.1-0.2-0.4-0.4-0.8-0.6c-0.4-0.2-0.9-0.5-1.6-0.7
	c-0.7-0.3-1.3-0.5-1.8-0.8c-0.5-0.3-0.9-0.6-1.1-1c-0.3-0.4-0.4-0.9-0.4-1.4c0-0.9,0.4-1.6,1.1-2.1c0.7-0.5,1.7-0.7,2.9-0.7
	c0.7,0,1.3,0.1,1.8,0.2c0.6,0.1,1.1,0.3,1.6,0.5l-0.6,1.4c-0.5-0.2-0.9-0.3-1.4-0.5c-0.5-0.1-1-0.2-1.5-0.2c-0.7,0-1.3,0.1-1.7,0.4
	c-0.4,0.2-0.6,0.5-0.6,0.9c0,0.3,0.1,0.5,0.3,0.8c0.2,0.2,0.5,0.4,0.9,0.6c0.4,0.2,1,0.4,1.6,0.7c0.7,0.3,1.3,0.5,1.7,0.8
	c0.5,0.3,0.8,0.6,1.1,1C263.6,70,263.7,70.5,263.7,71z M278.5,71c0,1-0.4,1.8-1.2,2.4c-0.8,0.5-1.8,0.8-3.1,0.8
	c-0.7,0-1.4-0.1-1.9-0.2c-0.5-0.1-1-0.3-1.4-0.5v-1.6c0.4,0.2,0.9,0.4,1.5,0.6c0.6,0.2,1.2,0.3,1.9,0.3c0.9,0,1.5-0.1,1.9-0.4
	c0.4-0.3,0.6-0.7,0.6-1.2c0-0.3-0.1-0.5-0.2-0.7c-0.1-0.2-0.4-0.4-0.8-0.6c-0.4-0.2-0.9-0.5-1.6-0.7c-0.7-0.3-1.3-0.5-1.8-0.8
	c-0.5-0.3-0.9-0.6-1.1-1c-0.3-0.4-0.4-0.9-0.4-1.4c0-0.9,0.4-1.6,1.1-2.1c0.7-0.5,1.7-0.7,2.9-0.7c0.7,0,1.3,0.1,1.8,0.2
	c0.6,0.1,1.1,0.3,1.6,0.5l-0.6,1.4c-0.5-0.2-0.9-0.3-1.4-0.5c-0.5-0.1-1-0.2-1.5-0.2c-0.7,0-1.3,0.1-1.7,0.4
	c-0.4,0.2-0.6,0.5-0.6,0.9c0,0.3,0.1,0.5,0.3,0.8c0.2,0.2,0.5,0.4,0.9,0.6c0.4,0.2,1,0.4,1.6,0.7c0.7,0.3,1.3,0.5,1.7,0.8
	c0.5,0.3,0.8,0.6,1.1,1C278.3,70,278.5,70.5,278.5,71z M290,63.3V74h-1.4l-0.3-1.4h-0.1c-0.3,0.6-0.8,1-1.4,1.2
	c-0.6,0.3-1.3,0.4-2,0.4c-1.3,0-2.3-0.3-2.9-0.9c-0.7-0.6-1-1.6-1-3v-7h1.8v6.9c0,1.7,0.8,2.6,2.4,2.6c1.2,0,2-0.3,2.5-1
	c0.5-0.7,0.7-1.6,0.7-2.9v-5.6H290z M298.4,63.1c0.2,0,0.4,0,0.6,0c0.2,0,0.4,0,0.6,0.1l-0.2,1.6c-0.2,0-0.4-0.1-0.6-0.1
	c-0.2,0-0.4,0-0.6,0c-0.5,0-1.1,0.2-1.5,0.5c-0.5,0.3-0.9,0.7-1.2,1.3c-0.3,0.5-0.4,1.2-0.4,1.9V74h-1.8V63.3h1.4l0.2,2h0.1
	c0.3-0.6,0.8-1.1,1.3-1.5C297,63.3,297.7,63.1,298.4,63.1z M311.2,74.2c-0.9,0-1.8-0.2-2.5-0.6c-0.7-0.4-1.3-1-1.7-1.8
	c-0.4-0.8-0.6-1.9-0.6-3.1c0-1.3,0.2-2.4,0.7-3.2c0.4-0.8,1-1.4,1.8-1.8c0.8-0.4,1.6-0.6,2.6-0.6c0.5,0,1.1,0.1,1.6,0.2
	c0.5,0.1,0.9,0.2,1.2,0.4l-0.5,1.5c-0.3-0.1-0.7-0.2-1.1-0.3c-0.4-0.1-0.8-0.2-1.2-0.2c-2.1,0-3.2,1.4-3.2,4.1c0,1.3,0.3,2.3,0.8,3
	c0.5,0.7,1.3,1,2.3,1c0.6,0,1.1-0.1,1.5-0.2c0.5-0.1,0.9-0.3,1.2-0.4v1.6c-0.4,0.2-0.8,0.3-1.2,0.4
	C312.3,74.1,311.8,74.2,311.2,74.2z M320.6,63.1c0.9,0,1.7,0.2,2.4,0.6c0.7,0.4,1.2,1,1.5,1.7c0.4,0.7,0.5,1.6,0.5,2.5V69h-7.3
	c0,1.2,0.3,2.1,0.9,2.8c0.6,0.6,1.4,0.9,2.5,0.9c0.7,0,1.3-0.1,1.8-0.2c0.5-0.1,1.1-0.3,1.6-0.6v1.5c-0.5,0.2-1.1,0.4-1.6,0.5
	c-0.5,0.1-1.2,0.2-1.9,0.2c-1,0-1.9-0.2-2.7-0.6c-0.8-0.4-1.4-1-1.8-1.8c-0.4-0.8-0.6-1.8-0.6-3c0-1.2,0.2-2.2,0.6-3
	c0.4-0.8,1-1.5,1.7-1.9C318.8,63.3,319.7,63.1,320.6,63.1z M320.6,64.5c-0.8,0-1.5,0.3-2,0.8c-0.5,0.5-0.8,1.3-0.9,2.2h5.5
	c0-0.9-0.2-1.6-0.6-2.2C322.1,64.8,321.5,64.5,320.6,64.5z M339.9,71c0,1-0.4,1.8-1.2,2.4c-0.8,0.5-1.8,0.8-3.1,0.8
	c-0.7,0-1.4-0.1-1.9-0.2c-0.5-0.1-1-0.3-1.4-0.5v-1.6c0.4,0.2,0.9,0.4,1.5,0.6c0.6,0.2,1.2,0.3,1.9,0.3c0.9,0,1.5-0.1,1.9-0.4
	c0.4-0.3,0.6-0.7,0.6-1.2c0-0.3-0.1-0.5-0.2-0.7c-0.1-0.2-0.4-0.4-0.8-0.6c-0.4-0.2-0.9-0.5-1.6-0.7c-0.7-0.3-1.3-0.5-1.8-0.8
	c-0.5-0.3-0.9-0.6-1.1-1c-0.3-0.4-0.4-0.9-0.4-1.4c0-0.9,0.4-1.6,1.1-2.1c0.7-0.5,1.7-0.7,2.9-0.7c0.7,0,1.3,0.1,1.8,0.2
	c0.6,0.1,1.1,0.3,1.6,0.5l-0.6,1.4c-0.5-0.2-0.9-0.3-1.4-0.5c-0.5-0.1-1-0.2-1.5-0.2c-0.7,0-1.3,0.1-1.7,0.4
	c-0.4,0.2-0.6,0.5-0.6,0.9c0,0.3,0.1,0.5,0.3,0.8c0.2,0.2,0.5,0.4,0.9,0.6c0.4,0.2,1,0.4,1.6,0.7c0.7,0.3,1.3,0.5,1.7,0.8
	c0.5,0.3,0.8,0.6,1.1,1C339.8,70,339.9,70.5,339.9,71z M351.5,63.3V74h-1.4l-0.3-1.4h-0.1c-0.3,0.6-0.8,1-1.4,1.2
	c-0.6,0.3-1.3,0.4-2,0.4c-1.3,0-2.3-0.3-2.9-0.9c-0.7-0.6-1-1.6-1-3v-7h1.8v6.9c0,1.7,0.8,2.6,2.4,2.6c1.2,0,2-0.3,2.5-1
	c0.5-0.7,0.7-1.6,0.7-2.9v-5.6H351.5z M354.8,60.4c0-0.4,0.1-0.7,0.3-0.8c0.2-0.2,0.4-0.3,0.7-0.3c0.3,0,0.5,0.1,0.7,0.3
	c0.2,0.2,0.3,0.5,0.3,0.8c0,0.4-0.1,0.7-0.3,0.8c-0.2,0.2-0.4,0.3-0.7,0.3c-0.3,0-0.5-0.1-0.7-0.3C354.9,61,354.8,60.8,354.8,60.4z
	 M353.6,78.8c-0.3,0-0.6,0-0.9-0.1c-0.3,0-0.5-0.1-0.7-0.2v-1.4c0.2,0.1,0.4,0.1,0.6,0.1c0.2,0,0.4,0.1,0.7,0.1
	c0.4,0,0.8-0.1,1.1-0.4c0.3-0.2,0.4-0.7,0.4-1.3V63.3h1.8v12.3c0,1-0.2,1.8-0.7,2.3C355.5,78.5,354.7,78.8,353.6,78.8z M364.2,63.1
	c0.9,0,1.7,0.2,2.4,0.6c0.7,0.4,1.2,1,1.5,1.7c0.4,0.7,0.5,1.6,0.5,2.5V69h-7.3c0,1.2,0.3,2.1,0.9,2.8c0.6,0.6,1.4,0.9,2.5,0.9
	c0.7,0,1.3-0.1,1.8-0.2c0.5-0.1,1.1-0.3,1.6-0.6v1.5c-0.5,0.2-1.1,0.4-1.6,0.5c-0.5,0.1-1.2,0.2-1.9,0.2c-1,0-1.9-0.2-2.7-0.6
	c-0.8-0.4-1.4-1-1.8-1.8c-0.4-0.8-0.6-1.8-0.6-3c0-1.2,0.2-2.2,0.6-3c0.4-0.8,1-1.5,1.7-1.9C362.4,63.3,363.2,63.1,364.2,63.1z
	 M364.2,64.5c-0.8,0-1.5,0.3-2,0.8c-0.5,0.5-0.8,1.3-0.9,2.2h5.5c0-0.9-0.2-1.6-0.6-2.2C365.7,64.8,365.1,64.5,364.2,64.5z
	 M374.9,72.8c0.3,0,0.5,0,0.8-0.1c0.3-0.1,0.5-0.1,0.7-0.2v1.3c-0.2,0.1-0.5,0.2-0.8,0.2c-0.3,0.1-0.7,0.1-1,0.1
	c-0.6,0-1.1-0.1-1.6-0.3c-0.5-0.2-0.8-0.5-1.1-1c-0.3-0.5-0.4-1.2-0.4-2v-6.2H370v-0.8l1.5-0.7l0.7-2.3h1v2.5h3.1v1.4h-3.1v6.2
	c0,0.7,0.2,1.1,0.5,1.5C374,72.6,374.4,72.8,374.9,72.8z"/>
<line class="st2" x1="99.5" y1="80.5" x2="378.5" y2="80.5"/>
<path class="st3" d="M93.4,120.7c1.8,0,3.1,0.3,3.9,1c0.9,0.7,1.3,1.7,1.3,3c0,0.8-0.1,1.4-0.4,1.9c-0.3,0.5-0.6,0.9-1.1,1.2
	c-0.4,0.3-0.9,0.5-1.4,0.7l3.9,6.4h-2.1l-3.5-5.9h-2.8v5.9h-1.8v-14.3H93.4z M93.3,122.3h-2v5.3h2.1c1.2,0,2-0.2,2.5-0.7
	c0.5-0.5,0.8-1.1,0.8-2c0-0.9-0.3-1.6-0.8-2C95.3,122.5,94.5,122.3,93.3,122.3z M105.8,124.1c0.9,0,1.7,0.2,2.4,0.6
	c0.7,0.4,1.2,1,1.5,1.7c0.4,0.7,0.5,1.6,0.5,2.5v1.1h-7.3c0,1.2,0.3,2.1,0.9,2.8c0.6,0.6,1.4,0.9,2.5,0.9c0.7,0,1.3-0.1,1.8-0.2
	c0.5-0.1,1.1-0.3,1.6-0.6v1.5c-0.5,0.2-1.1,0.4-1.6,0.5c-0.5,0.1-1.2,0.2-1.9,0.2c-1,0-1.9-0.2-2.7-0.6c-0.8-0.4-1.4-1-1.8-1.8
	c-0.4-0.8-0.6-1.8-0.6-3c0-1.2,0.2-2.2,0.6-3c0.4-0.8,1-1.5,1.7-1.9C104,124.3,104.8,124.1,105.8,124.1z M105.8,125.5
	c-0.8,0-1.5,0.3-2,0.8c-0.5,0.5-0.8,1.3-0.9,2.2h5.5c0-0.9-0.2-1.6-0.6-2.2C107.3,125.8,106.7,125.5,105.8,125.5z M118.1,124.1
	c1.3,0,2.2,0.3,2.9,0.9c0.7,0.6,1,1.6,1,3v7h-1.7v-6.9c0-1.7-0.8-2.6-2.4-2.6c-1.2,0-2,0.3-2.5,1c-0.5,0.7-0.7,1.6-0.7,2.9v5.6h-1.8
	v-10.7h1.4l0.3,1.5h0.1c0.3-0.6,0.8-1,1.4-1.2C116.8,124.2,117.4,124.1,118.1,124.1z M132.3,132c0,1-0.4,1.8-1.2,2.4
	c-0.8,0.5-1.8,0.8-3.1,0.8c-0.7,0-1.4-0.1-1.9-0.2c-0.5-0.1-1-0.3-1.4-0.5v-1.6c0.4,0.2,0.9,0.4,1.5,0.6c0.6,0.2,1.2,0.3,1.9,0.3
	c0.9,0,1.5-0.1,1.9-0.4c0.4-0.3,0.6-0.7,0.6-1.2c0-0.3-0.1-0.5-0.2-0.7c-0.1-0.2-0.4-0.4-0.8-0.6c-0.4-0.2-0.9-0.5-1.6-0.7
	c-0.7-0.3-1.3-0.5-1.8-0.8c-0.5-0.3-0.9-0.6-1.1-1c-0.3-0.4-0.4-0.9-0.4-1.4c0-0.9,0.4-1.6,1.1-2.1c0.7-0.5,1.7-0.7,2.9-0.7
	c0.7,0,1.3,0.1,1.8,0.2c0.6,0.1,1.1,0.3,1.6,0.5l-0.6,1.4c-0.5-0.2-0.9-0.3-1.4-0.5c-0.5-0.1-1-0.2-1.5-0.2c-0.7,0-1.3,0.1-1.7,0.4
	c-0.4,0.2-0.6,0.5-0.6,0.9c0,0.3,0.1,0.5,0.3,0.8c0.2,0.2,0.5,0.4,0.9,0.6c0.4,0.2,1,0.4,1.6,0.7c0.7,0.3,1.3,0.5,1.7,0.8
	c0.5,0.3,0.8,0.6,1.1,1C132.1,131,132.3,131.5,132.3,132z M139,124.1c0.9,0,1.7,0.2,2.4,0.6c0.7,0.4,1.2,1,1.5,1.7
	c0.4,0.7,0.5,1.6,0.5,2.5v1.1h-7.3c0,1.2,0.3,2.1,0.9,2.8c0.6,0.6,1.4,0.9,2.5,0.9c0.7,0,1.3-0.1,1.8-0.2c0.5-0.1,1.1-0.3,1.6-0.6
	v1.5c-0.5,0.2-1.1,0.4-1.6,0.5c-0.5,0.1-1.2,0.2-1.9,0.2c-1,0-1.9-0.2-2.7-0.6c-0.8-0.4-1.4-1-1.8-1.8c-0.4-0.8-0.6-1.8-0.6-3
	c0-1.2,0.2-2.2,0.6-3c0.4-0.8,1-1.5,1.7-1.9C137.2,124.3,138.1,124.1,139,124.1z M139,125.5c-0.8,0-1.5,0.3-2,0.8
	c-0.5,0.5-0.8,1.3-0.9,2.2h5.5c0-0.9-0.2-1.6-0.6-2.2C140.5,125.8,139.9,125.5,139,125.5z M147.1,120.3c0.3,0,0.5,0.1,0.7,0.3
	c0.2,0.2,0.3,0.5,0.3,0.8c0,0.4-0.1,0.7-0.3,0.8c-0.2,0.2-0.4,0.3-0.7,0.3c-0.3,0-0.5-0.1-0.7-0.3c-0.2-0.2-0.3-0.5-0.3-0.8
	c0-0.4,0.1-0.7,0.3-0.8C146.5,120.4,146.8,120.3,147.1,120.3z M147.9,124.3V135h-1.8v-10.7H147.9z M155.1,124.1
	c0.7,0,1.3,0.1,1.9,0.4c0.6,0.3,1.1,0.7,1.5,1.2h0.1l0.2-1.4h1.4v10.9c0,1.5-0.4,2.7-1.2,3.5c-0.8,0.8-2,1.2-3.6,1.2
	c-1.6,0-2.9-0.2-3.9-0.7v-1.6c1.1,0.6,2.4,0.8,4,0.8c0.9,0,1.6-0.3,2.2-0.8c0.5-0.5,0.8-1.3,0.8-2.2v-0.4c0-0.2,0-0.4,0-0.7
	c0-0.3,0-0.5,0-0.6h-0.1c-0.7,1.1-1.8,1.6-3.3,1.6c-1.4,0-2.5-0.5-3.3-1.5c-0.8-1-1.2-2.3-1.2-4.1c0-1.7,0.4-3.1,1.2-4.1
	C152.7,124.6,153.7,124.1,155.1,124.1z M155.3,125.6c-0.9,0-1.6,0.4-2.1,1.1c-0.5,0.7-0.7,1.7-0.7,3c0,1.3,0.2,2.3,0.7,3
	c0.5,0.7,1.2,1,2.1,1c1.1,0,1.9-0.3,2.4-0.9c0.5-0.6,0.7-1.5,0.7-2.8v-0.4c0-1.5-0.3-2.5-0.8-3.1
	C157.2,125.9,156.4,125.6,155.3,125.6z M168.8,124.1c1.3,0,2.2,0.3,2.9,0.9c0.7,0.6,1,1.6,1,3v7h-1.7v-6.9c0-1.7-0.8-2.6-2.4-2.6
	c-1.2,0-2,0.3-2.5,1s-0.7,1.6-0.7,2.9v5.6h-1.8v-10.7h1.4l0.3,1.5h0.1c0.3-0.6,0.8-1,1.4-1.2C167.4,124.2,168.1,124.1,168.8,124.1z
	 M180.1,124.1c0.9,0,1.7,0.2,2.4,0.6c0.7,0.4,1.2,1,1.5,1.7c0.4,0.7,0.5,1.6,0.5,2.5v1.1h-7.3c0,1.2,0.3,2.1,0.9,2.8
	c0.6,0.6,1.4,0.9,2.5,0.9c0.7,0,1.3-0.1,1.8-0.2c0.5-0.1,1.1-0.3,1.6-0.6v1.5c-0.5,0.2-1.1,0.4-1.6,0.5c-0.5,0.1-1.2,0.2-1.9,0.2
	c-1,0-1.9-0.2-2.7-0.6c-0.8-0.4-1.4-1-1.8-1.8c-0.4-0.8-0.6-1.8-0.6-3c0-1.2,0.2-2.2,0.6-3c0.4-0.8,1-1.5,1.7-1.9
	C178.3,124.3,179.2,124.1,180.1,124.1z M180.1,125.5c-0.8,0-1.5,0.3-2,0.8c-0.5,0.5-0.8,1.3-0.9,2.2h5.5c0-0.9-0.2-1.6-0.6-2.2
	C181.6,125.8,181,125.5,180.1,125.5z M199,124.1c1.2,0,2.1,0.3,2.7,0.9c0.6,0.6,0.9,1.6,0.9,3v7h-1.7v-6.9c0-1.7-0.7-2.5-2.2-2.5
	c-1,0-1.8,0.3-2.2,0.9c-0.4,0.6-0.7,1.5-0.7,2.6v5.9h-1.7v-6.9c0-1.7-0.7-2.5-2.2-2.5c-1.1,0-1.8,0.3-2.2,1
	c-0.4,0.7-0.6,1.6-0.6,2.9v5.6h-1.8v-10.7h1.4l0.3,1.5h0.1c0.3-0.6,0.8-1,1.3-1.2c0.6-0.3,1.2-0.4,1.8-0.4c1.7,0,2.8,0.6,3.3,1.8
	h0.1c0.4-0.6,0.8-1.1,1.5-1.4C197.7,124.2,198.3,124.1,199,124.1z M210.1,124.1c0.9,0,1.7,0.2,2.4,0.6c0.7,0.4,1.2,1,1.5,1.7
	c0.4,0.7,0.5,1.6,0.5,2.5v1.1h-7.3c0,1.2,0.3,2.1,0.9,2.8c0.6,0.6,1.4,0.9,2.5,0.9c0.7,0,1.3-0.1,1.8-0.2c0.5-0.1,1.1-0.3,1.6-0.6
	v1.5c-0.5,0.2-1.1,0.4-1.6,0.5c-0.5,0.1-1.2,0.2-1.9,0.2c-1,0-1.9-0.2-2.7-0.6c-0.8-0.4-1.4-1-1.8-1.8c-0.4-0.8-0.6-1.8-0.6-3
	c0-1.2,0.2-2.2,0.6-3c0.4-0.8,1-1.5,1.7-1.9C208.3,124.3,209.2,124.1,210.1,124.1z M210.1,125.5c-0.8,0-1.5,0.3-2,0.8
	c-0.5,0.5-0.8,1.3-0.9,2.2h5.5c0-0.9-0.2-1.6-0.6-2.2C211.6,125.8,211,125.5,210.1,125.5z M222.4,124.1c1.3,0,2.2,0.3,2.9,0.9
	c0.7,0.6,1,1.6,1,3v7h-1.7v-6.9c0-1.7-0.8-2.6-2.4-2.6c-1.2,0-2,0.3-2.5,1s-0.7,1.6-0.7,2.9v5.6h-1.8v-10.7h1.4l0.3,1.5h0.1
	c0.3-0.6,0.8-1,1.4-1.2C221.1,124.2,221.7,124.1,222.4,124.1z M233.2,133.8c0.3,0,0.5,0,0.8-0.1c0.3-0.1,0.5-0.1,0.7-0.2v1.3
	c-0.2,0.1-0.5,0.2-0.8,0.2c-0.3,0.1-0.7,0.1-1,0.1c-0.6,0-1.1-0.1-1.6-0.3c-0.5-0.2-0.8-0.5-1.1-1c-0.3-0.5-0.4-1.2-0.4-2v-6.2h-1.5
	v-0.8l1.5-0.7l0.7-2.3h1v2.5h3.1v1.4h-3.1v6.2c0,0.7,0.2,1.1,0.5,1.5C232.3,133.6,232.7,133.8,233.2,133.8z M243.8,132
	c0,1-0.4,1.8-1.2,2.4c-0.8,0.5-1.8,0.8-3.1,0.8c-0.7,0-1.4-0.1-1.9-0.2c-0.5-0.1-1-0.3-1.4-0.5v-1.6c0.4,0.2,0.9,0.4,1.5,0.6
	c0.6,0.2,1.2,0.3,1.9,0.3c0.9,0,1.5-0.1,1.9-0.4c0.4-0.3,0.6-0.7,0.6-1.2c0-0.3-0.1-0.5-0.2-0.7c-0.1-0.2-0.4-0.4-0.8-0.6
	c-0.4-0.2-0.9-0.5-1.6-0.7c-0.7-0.3-1.3-0.5-1.8-0.8c-0.5-0.3-0.9-0.6-1.1-1c-0.3-0.4-0.4-0.9-0.4-1.4c0-0.9,0.4-1.6,1.1-2.1
	c0.7-0.5,1.7-0.7,2.9-0.7c0.7,0,1.3,0.1,1.8,0.2c0.6,0.1,1.1,0.3,1.6,0.5l-0.6,1.4c-0.5-0.2-0.9-0.3-1.4-0.5c-0.5-0.1-1-0.2-1.5-0.2
	c-0.7,0-1.3,0.1-1.7,0.4c-0.4,0.2-0.6,0.5-0.6,0.9c0,0.3,0.1,0.5,0.3,0.8c0.2,0.2,0.5,0.4,0.9,0.6c0.4,0.2,1,0.4,1.6,0.7
	c0.7,0.3,1.3,0.5,1.7,0.8c0.5,0.3,0.8,0.6,1.1,1C243.7,131,243.8,131.5,243.8,132z M258.6,132c0,1-0.4,1.8-1.2,2.4
	c-0.8,0.5-1.8,0.8-3.1,0.8c-0.7,0-1.4-0.1-1.9-0.2c-0.5-0.1-1-0.3-1.4-0.5v-1.6c0.4,0.2,0.9,0.4,1.5,0.6c0.6,0.2,1.2,0.3,1.9,0.3
	c0.9,0,1.5-0.1,1.9-0.4c0.4-0.3,0.6-0.7,0.6-1.2c0-0.3-0.1-0.5-0.2-0.7c-0.1-0.2-0.4-0.4-0.8-0.6c-0.4-0.2-0.9-0.5-1.6-0.7
	c-0.7-0.3-1.3-0.5-1.8-0.8c-0.5-0.3-0.9-0.6-1.1-1c-0.3-0.4-0.4-0.9-0.4-1.4c0-0.9,0.4-1.6,1.1-2.1c0.7-0.5,1.7-0.7,2.9-0.7
	c0.7,0,1.3,0.1,1.8,0.2c0.6,0.1,1.1,0.3,1.6,0.5l-0.6,1.4c-0.5-0.2-0.9-0.3-1.4-0.5c-0.5-0.1-1-0.2-1.5-0.2c-0.7,0-1.3,0.1-1.7,0.4
	c-0.4,0.2-0.6,0.5-0.6,0.9c0,0.3,0.1,0.5,0.3,0.8c0.2,0.2,0.5,0.4,0.9,0.6c0.4,0.2,1,0.4,1.6,0.7c0.7,0.3,1.3,0.5,1.7,0.8
	c0.5,0.3,0.8,0.6,1.1,1C258.5,131,258.6,131.5,258.6,132z M270.1,124.3V135h-1.4l-0.3-1.4h-0.1c-0.3,0.6-0.8,1-1.4,1.2
	c-0.6,0.3-1.3,0.4-2,0.4c-1.3,0-2.3-0.3-2.9-0.9c-0.7-0.6-1-1.6-1-3v-7h1.8v6.9c0,1.7,0.8,2.6,2.4,2.6c1.2,0,2-0.3,2.5-1
	c0.5-0.7,0.7-1.6,0.7-2.9v-5.6H270.1z M278.6,124.1c1.3,0,2.4,0.5,3.2,1.4c0.8,0.9,1.2,2.3,1.2,4.2c0,1.8-0.4,3.2-1.2,4.2
	c-0.8,0.9-1.9,1.4-3.2,1.4c-0.8,0-1.5-0.2-2.1-0.5c-0.5-0.3-1-0.7-1.3-1.1h-0.1c0,0.2,0.1,0.5,0.1,0.9c0,0.3,0,0.6,0,0.9v4.4h-1.8
	v-15.5h1.4l0.2,1.5h0.1c0.3-0.5,0.7-0.9,1.3-1.2S277.8,124.1,278.6,124.1z M278.3,125.6c-1.1,0-1.9,0.3-2.3,0.9
	c-0.4,0.6-0.7,1.5-0.7,2.8v0.3c0,1.3,0.2,2.3,0.6,3.1c0.4,0.7,1.2,1.1,2.4,1.1c0.7,0,1.2-0.2,1.6-0.5c0.4-0.4,0.7-0.8,0.9-1.5
	c0.2-0.6,0.3-1.3,0.3-2.1c0-1.2-0.2-2.2-0.7-2.9C280,125.9,279.3,125.6,278.3,125.6z M290.9,124.1c1.3,0,2.4,0.5,3.2,1.4
	c0.8,0.9,1.2,2.3,1.2,4.2c0,1.8-0.4,3.2-1.2,4.2c-0.8,0.9-1.9,1.4-3.2,1.4c-0.8,0-1.5-0.2-2.1-0.5c-0.5-0.3-1-0.7-1.3-1.1h-0.1
	c0,0.2,0.1,0.5,0.1,0.9c0,0.3,0,0.6,0,0.9v4.4h-1.8v-15.5h1.4l0.2,1.5h0.1c0.3-0.5,0.7-0.9,1.3-1.2
	C289.4,124.2,290.1,124.1,290.9,124.1z M290.6,125.6c-1.1,0-1.9,0.3-2.3,0.9c-0.4,0.6-0.7,1.5-0.7,2.8v0.3c0,1.3,0.2,2.3,0.6,3.1
	c0.4,0.7,1.2,1.1,2.4,1.1c0.7,0,1.2-0.2,1.6-0.5c0.4-0.4,0.7-0.8,0.9-1.5c0.2-0.6,0.3-1.3,0.3-2.1c0-1.2-0.2-2.2-0.7-2.9
	C292.3,125.9,291.6,125.6,290.6,125.6z M299.9,135h-1.8v-15.2h1.8V135z M307.4,124.1c0.9,0,1.7,0.2,2.4,0.6c0.7,0.4,1.2,1,1.5,1.7
	c0.4,0.7,0.5,1.6,0.5,2.5v1.1h-7.3c0,1.2,0.3,2.1,0.9,2.8c0.6,0.6,1.4,0.9,2.5,0.9c0.7,0,1.3-0.1,1.8-0.2c0.5-0.1,1.1-0.3,1.6-0.6
	v1.5c-0.5,0.2-1.1,0.4-1.6,0.5c-0.5,0.1-1.2,0.2-1.9,0.2c-1,0-1.9-0.2-2.7-0.6c-0.8-0.4-1.4-1-1.8-1.8c-0.4-0.8-0.6-1.8-0.6-3
	c0-1.2,0.2-2.2,0.6-3c0.4-0.8,1-1.5,1.7-1.9C305.7,124.3,306.5,124.1,307.4,124.1z M307.4,125.5c-0.8,0-1.5,0.3-2,0.8
	c-0.5,0.5-0.8,1.3-0.9,2.2h5.5c0-0.9-0.2-1.6-0.6-2.2C309,125.8,308.3,125.5,307.4,125.5z M310.3,119.9c-0.2,0.2-0.4,0.6-0.7,0.9
	c-0.3,0.4-0.7,0.8-1.1,1.1c-0.4,0.4-0.7,0.7-1,0.9h-1.2v-0.2c0.2-0.3,0.4-0.6,0.6-0.9c0.2-0.3,0.5-0.7,0.7-1.1
	c0.2-0.4,0.4-0.7,0.6-1h2.1V119.9z M326.4,124.1c1.2,0,2.1,0.3,2.7,0.9c0.6,0.6,0.9,1.6,0.9,3v7h-1.7v-6.9c0-1.7-0.7-2.5-2.2-2.5
	c-1,0-1.8,0.3-2.2,0.9c-0.4,0.6-0.7,1.5-0.7,2.6v5.9h-1.7v-6.9c0-1.7-0.7-2.5-2.2-2.5c-1.1,0-1.8,0.3-2.2,1
	c-0.4,0.7-0.6,1.6-0.6,2.9v5.6h-1.8v-10.7h1.4l0.3,1.5h0.1c0.3-0.6,0.8-1,1.3-1.2c0.6-0.3,1.2-0.4,1.8-0.4c1.7,0,2.8,0.6,3.3,1.8
	h0.1c0.4-0.6,0.8-1.1,1.5-1.4C325,124.2,325.7,124.1,326.4,124.1z M337.4,124.1c0.9,0,1.7,0.2,2.4,0.6c0.7,0.4,1.2,1,1.5,1.7
	c0.4,0.7,0.5,1.6,0.5,2.5v1.1h-7.3c0,1.2,0.3,2.1,0.9,2.8c0.6,0.6,1.4,0.9,2.5,0.9c0.7,0,1.3-0.1,1.8-0.2c0.5-0.1,1.1-0.3,1.6-0.6
	v1.5c-0.5,0.2-1.1,0.4-1.6,0.5c-0.5,0.1-1.2,0.2-1.9,0.2c-1,0-1.9-0.2-2.7-0.6c-0.8-0.4-1.4-1-1.8-1.8c-0.4-0.8-0.6-1.8-0.6-3
	c0-1.2,0.2-2.2,0.6-3c0.4-0.8,1-1.5,1.7-1.9C335.6,124.3,336.5,124.1,337.4,124.1z M337.4,125.5c-0.8,0-1.5,0.3-2,0.8
	c-0.5,0.5-0.8,1.3-0.9,2.2h5.5c0-0.9-0.2-1.6-0.6-2.2C338.9,125.8,338.3,125.5,337.4,125.5z M349.7,124.1c1.3,0,2.2,0.3,2.9,0.9
	c0.7,0.6,1,1.6,1,3v7h-1.7v-6.9c0-1.7-0.8-2.6-2.4-2.6c-1.2,0-2,0.3-2.5,1c-0.5,0.7-0.7,1.6-0.7,2.9v5.6h-1.8v-10.7h1.4l0.3,1.5h0.1
	c0.3-0.6,0.8-1,1.4-1.2C348.4,124.2,349.1,124.1,349.7,124.1z M360.5,133.8c0.3,0,0.5,0,0.8-0.1c0.3-0.1,0.5-0.1,0.7-0.2v1.3
	c-0.2,0.1-0.5,0.2-0.8,0.2c-0.3,0.1-0.7,0.1-1,0.1c-0.6,0-1.1-0.1-1.6-0.3c-0.5-0.2-0.8-0.5-1.1-1c-0.3-0.5-0.4-1.2-0.4-2v-6.2h-1.5
	v-0.8l1.5-0.7l0.7-2.3h1v2.5h3.1v1.4h-3.1v6.2c0,0.7,0.2,1.1,0.5,1.5C359.6,133.6,360,133.8,360.5,133.8z M368.2,124.1
	c1.3,0,2.3,0.3,2.9,0.9c0.6,0.6,0.9,1.5,0.9,2.7v7.3h-1.3l-0.3-1.5h-0.1c-0.5,0.6-1,1-1.5,1.3c-0.5,0.3-1.2,0.4-2.1,0.4
	c-1,0-1.8-0.3-2.4-0.8c-0.6-0.5-1-1.3-1-2.4c0-1.1,0.4-1.9,1.3-2.5c0.8-0.6,2.1-0.9,3.9-1l1.8-0.1v-0.6c0-0.9-0.2-1.5-0.6-1.9
	c-0.4-0.3-0.9-0.5-1.6-0.5c-0.6,0-1.1,0.1-1.6,0.3c-0.5,0.2-1,0.3-1.4,0.6l-0.5-1.3c0.5-0.3,1-0.5,1.7-0.6
	C366.9,124.2,367.5,124.1,368.2,124.1z M368.7,129.8c-1.3,0.1-2.3,0.3-2.8,0.6c-0.5,0.4-0.8,0.9-0.8,1.6c0,0.6,0.2,1,0.5,1.3
	c0.4,0.3,0.8,0.4,1.4,0.4c0.9,0,1.7-0.2,2.3-0.7c0.6-0.5,0.9-1.3,0.9-2.3v-1L368.7,129.8z M376.3,120.3c0.3,0,0.5,0.1,0.7,0.3
	c0.2,0.2,0.3,0.5,0.3,0.8c0,0.4-0.1,0.7-0.3,0.8c-0.2,0.2-0.4,0.3-0.7,0.3c-0.3,0-0.5-0.1-0.7-0.3c-0.2-0.2-0.3-0.5-0.3-0.8
	c0-0.4,0.1-0.7,0.3-0.8C375.7,120.4,376,120.3,376.3,120.3z M377.1,124.3V135h-1.8v-10.7H377.1z M385.5,124.1c0.2,0,0.4,0,0.6,0
	c0.2,0,0.4,0,0.6,0.1l-0.2,1.6c-0.2,0-0.4-0.1-0.6-0.1c-0.2,0-0.4,0-0.6,0c-0.5,0-1.1,0.2-1.5,0.5c-0.5,0.3-0.9,0.7-1.2,1.3
	c-0.3,0.5-0.4,1.2-0.4,1.9v5.7h-1.8v-10.7h1.4l0.2,2h0.1c0.3-0.6,0.8-1.1,1.3-1.5C384.1,124.3,384.8,124.1,385.5,124.1z
	 M392.5,124.1c0.9,0,1.7,0.2,2.4,0.6c0.7,0.4,1.2,1,1.5,1.7c0.4,0.7,0.5,1.6,0.5,2.5v1.1h-7.3c0,1.2,0.3,2.1,0.9,2.8
	c0.6,0.6,1.4,0.9,2.5,0.9c0.7,0,1.3-0.1,1.8-0.2c0.5-0.1,1.1-0.3,1.6-0.6v1.5c-0.5,0.2-1.1,0.4-1.6,0.5c-0.5,0.1-1.2,0.2-1.9,0.2
	c-1,0-1.9-0.2-2.7-0.6c-0.8-0.4-1.4-1-1.8-1.8c-0.4-0.8-0.6-1.8-0.6-3c0-1.2,0.2-2.2,0.6-3c0.4-0.8,1-1.5,1.7-1.9
	C390.8,124.3,391.6,124.1,392.5,124.1z M392.5,125.5c-0.8,0-1.5,0.3-2,0.8c-0.5,0.5-0.8,1.3-0.9,2.2h5.5c0-0.9-0.2-1.6-0.6-2.2
	C394.1,125.8,393.4,125.5,392.5,125.5z M406.7,132c0,1-0.4,1.8-1.2,2.4c-0.8,0.5-1.8,0.8-3.1,0.8c-0.7,0-1.4-0.1-1.9-0.2
	c-0.5-0.1-1-0.3-1.4-0.5v-1.6c0.4,0.2,0.9,0.4,1.5,0.6c0.6,0.2,1.2,0.3,1.9,0.3c0.9,0,1.5-0.1,1.9-0.4c0.4-0.3,0.6-0.7,0.6-1.2
	c0-0.3-0.1-0.5-0.2-0.7c-0.1-0.2-0.4-0.4-0.8-0.6c-0.4-0.2-0.9-0.5-1.6-0.7c-0.7-0.3-1.3-0.5-1.8-0.8c-0.5-0.3-0.9-0.6-1.1-1
	c-0.3-0.4-0.4-0.9-0.4-1.4c0-0.9,0.4-1.6,1.1-2.1c0.7-0.5,1.7-0.7,2.9-0.7c0.7,0,1.3,0.1,1.8,0.2c0.6,0.1,1.1,0.3,1.6,0.5l-0.6,1.4
	c-0.5-0.2-0.9-0.3-1.4-0.5c-0.5-0.1-1-0.2-1.5-0.2c-0.7,0-1.3,0.1-1.7,0.4c-0.4,0.2-0.6,0.5-0.6,0.9c0,0.3,0.1,0.5,0.3,0.8
	c0.2,0.2,0.5,0.4,0.9,0.6c0.4,0.2,1,0.4,1.6,0.7c0.7,0.3,1.3,0.5,1.7,0.8c0.5,0.3,0.8,0.6,1.1,1C406.5,131,406.7,131.5,406.7,132z
	 M409,133.9c0-0.5,0.1-0.8,0.4-1c0.2-0.2,0.5-0.3,0.9-0.3c0.3,0,0.6,0.1,0.9,0.3c0.3,0.2,0.4,0.5,0.4,1c0,0.5-0.1,0.8-0.4,1
	c-0.2,0.2-0.5,0.3-0.9,0.3c-0.3,0-0.6-0.1-0.9-0.3C409.1,134.7,409,134.4,409,133.9z"/>
<g>
	<defs>
		<rect id="SVGID_00000049201705485568651960000004166409451928869046_" y="115.5" width="48" height="24"/>
	</defs>
	<clipPath id="SVGID_00000168112143472215309750000006896662919002964396_">
		<use xlink:href="#SVGID_00000049201705485568651960000004166409451928869046_"  style="overflow:visible;"/>
	</clipPath>
	<g style="clip-path:url(#SVGID_00000168112143472215309750000006896662919002964396_);">
		<rect y="127.5" class="st5" width="48" height="1"/>
		<g>
			<defs>
				<path id="SVGID_00000053529871238281210400000009450899959920608915_" d="M12,115.5L12,115.5c6.6,0,12,5.4,12,12l0,0
					c0,6.6-5.4,12-12,12l0,0c-6.6,0-12-5.4-12-12l0,0C0,120.9,5.4,115.5,12,115.5z"/>
			</defs>
			<clipPath id="SVGID_00000172428468356111280420000008738287514272190612_">
				<use xlink:href="#SVGID_00000053529871238281210400000009450899959920608915_"  style="overflow:visible;"/>
			</clipPath>
			<g style="clip-path:url(#SVGID_00000172428468356111280420000008738287514272190612_);">
				<path class="st5" d="M12,115.5L12,115.5c6.6,0,12,5.4,12,12l0,0c0,6.6-5.4,12-12,12l0,0c-6.6,0-12-5.4-12-12l0,0
					C0,120.9,5.4,115.5,12,115.5z"/>
				<path class="st7" d="M12,132.6c-0.7,0-1.4-0.1-2-0.4c-0.6-0.3-1-0.6-1.4-1.1c-0.3-0.5-0.5-1-0.5-1.6h2.2c0,0.2,0.1,0.5,0.2,0.7
					c0.2,0.2,0.4,0.3,0.6,0.4c0.3,0.1,0.5,0.2,0.9,0.2c0.3,0,0.6-0.1,0.9-0.2c0.3-0.1,0.4-0.3,0.6-0.5c0.1-0.2,0.2-0.4,0.2-0.7
					c0-0.3-0.1-0.5-0.2-0.7c-0.1-0.2-0.4-0.4-0.6-0.5c-0.3-0.1-0.6-0.2-1-0.2h-0.9v-1.6h0.9c0.3,0,0.6-0.1,0.9-0.2
					c0.3-0.1,0.4-0.3,0.6-0.5c0.1-0.2,0.2-0.4,0.2-0.7c0-0.3-0.1-0.5-0.2-0.7c-0.1-0.2-0.3-0.3-0.5-0.5c-0.2-0.1-0.5-0.2-0.8-0.2
					c-0.3,0-0.6,0.1-0.8,0.2c-0.2,0.1-0.4,0.3-0.6,0.4s-0.2,0.4-0.2,0.7H8.3c0-0.6,0.2-1.1,0.5-1.6c0.3-0.4,0.8-0.8,1.3-1
					c0.6-0.3,1.2-0.4,1.9-0.4c0.7,0,1.3,0.1,1.8,0.4c0.5,0.3,0.9,0.6,1.2,1c0.3,0.4,0.4,0.9,0.4,1.5c0,0.6-0.2,1-0.5,1.4
					c-0.4,0.4-0.8,0.6-1.4,0.7v0.1c0.7,0.1,1.3,0.4,1.7,0.8c0.4,0.4,0.6,0.9,0.6,1.6c0,0.6-0.2,1.1-0.5,1.5
					c-0.3,0.4-0.8,0.8-1.4,1.1C13.4,132.5,12.7,132.6,12,132.6z"/>
			</g>
		</g>
	</g>
</g>
<g>
	<defs>
		<rect id="SVGID_00000142165810900089940960000001417784462495234235_" y="54" width="48" height="24"/>
	</defs>
	<clipPath id="SVGID_00000035503267172186569220000012329374088314516866_">
		<use xlink:href="#SVGID_00000142165810900089940960000001417784462495234235_"  style="overflow:visible;"/>
	</clipPath>
	<g style="clip-path:url(#SVGID_00000035503267172186569220000012329374088314516866_);">
		<rect y="66" class="st5" width="48" height="1"/>
		<g>
			<defs>
				<path id="SVGID_00000134216044137167418210000018262068483120453516_" d="M12,54L12,54c6.6,0,12,5.4,12,12l0,0
					c0,6.6-5.4,12-12,12l0,0C5.4,78,0,72.6,0,66l0,0C0,59.4,5.4,54,12,54z"/>
			</defs>
			<clipPath id="SVGID_00000096047836983652621300000007713432994056315788_">
				<use xlink:href="#SVGID_00000134216044137167418210000018262068483120453516_"  style="overflow:visible;"/>
			</clipPath>
			<g style="clip-path:url(#SVGID_00000096047836983652621300000007713432994056315788_);">
				<path class="st5" d="M12,54L12,54c6.6,0,12,5.4,12,12l0,0c0,6.6-5.4,12-12,12l0,0C5.4,78,0,72.6,0,66l0,0C0,59.4,5.4,54,12,54z"
					/>
				<path class="st7" d="M8.4,71v-1.6l3.6-3.4c0.3-0.3,0.6-0.6,0.8-0.8c0.2-0.2,0.4-0.5,0.5-0.7c0.1-0.2,0.2-0.5,0.2-0.8
					c0-0.3-0.1-0.6-0.2-0.8c-0.1-0.2-0.3-0.4-0.6-0.5c-0.2-0.1-0.5-0.2-0.8-0.2c-0.3,0-0.6,0.1-0.8,0.2c-0.2,0.1-0.4,0.3-0.5,0.5
					c-0.1,0.2-0.2,0.5-0.2,0.8h-2c0-0.7,0.2-1.2,0.5-1.7c0.3-0.5,0.7-0.9,1.3-1.1c0.5-0.3,1.2-0.4,1.9-0.4c0.7,0,1.4,0.1,1.9,0.4
					c0.5,0.3,1,0.6,1.3,1.1c0.3,0.5,0.5,1,0.5,1.6c0,0.4-0.1,0.8-0.2,1.1c-0.1,0.4-0.4,0.8-0.8,1.2c-0.4,0.5-0.9,1-1.6,1.6l-1.5,1.5
					v0.1h4.3V71H8.4z"/>
			</g>
		</g>
	</g>
</g>
<g>
	<defs>
		<rect id="SVGID_00000010282971667922691650000018241053001908770216_" x="249" y="0" width="24" height="48"/>
	</defs>
	<clipPath id="SVGID_00000023987761594377391180000003172155923873244068_">
		<use xlink:href="#SVGID_00000010282971667922691650000018241053001908770216_"  style="overflow:visible;"/>
	</clipPath>
	<g style="clip-path:url(#SVGID_00000023987761594377391180000003172155923873244068_);">
		<rect x="261" y="0" class="st5" width="1" height="48"/>
		<g>
			<defs>
				<path id="SVGID_00000155843247716283613890000005830397046493327251_" d="M261,0L261,0c6.6,0,12,5.4,12,12l0,0
					c0,6.6-5.4,12-12,12l0,0c-6.6,0-12-5.4-12-12l0,0C249,5.4,254.4,0,261,0z"/>
			</defs>
			<clipPath id="SVGID_00000011000706921319851150000015269686253146301332_">
				<use xlink:href="#SVGID_00000155843247716283613890000005830397046493327251_"  style="overflow:visible;"/>
			</clipPath>
			<g style="clip-path:url(#SVGID_00000011000706921319851150000015269686253146301332_);">
				<path class="st5" d="M261,0L261,0c6.6,0,12,5.4,12,12l0,0c0,6.6-5.4,12-12,12l0,0c-6.6,0-12-5.4-12-12l0,0
					C249,5.4,254.4,0,261,0z"/>
				<path class="st7" d="M262.8,6.8V17h-2.2V8.9h-0.1l-2.3,1.5V8.4l2.5-1.6H262.8z"/>
			</g>
		</g>
	</g>
</g>
<rect x="52.8" y="97.6" class="st12" width="6" height="63"/>
</svg>
