<svg width="436" height="173" viewBox="0 0 436 173" fill="none" xmlns="http://www.w3.org/2000/svg">
<rect x="79" y="54" width="46" height="46" rx="3" stroke="#2B4380" stroke-width="2"/>
<path d="M103.546 84H101.656V75.468C101.656 75.012 101.662 74.604 101.674 74.244C101.686 73.872 101.704 73.512 101.728 73.164C101.572 73.332 101.41 73.488 101.242 73.632C101.074 73.776 100.882 73.938 100.666 74.118L99.2616 75.252L98.2896 74.028L101.962 71.148H103.546V84Z" fill="#284162"/>
<path d="M96.8496 86.5H107.146V87.5H96.8496V86.5Z" fill="#284162"/>
<rect x="136" y="54" width="46" height="46" rx="3" stroke="#2B4380" stroke-width="2"/>
<path d="M163.318 84H154.678V82.524L157.99 79.158C158.638 78.498 159.178 77.928 159.61 77.448C160.042 76.956 160.366 76.488 160.582 76.044C160.798 75.588 160.906 75.096 160.906 74.568C160.906 73.92 160.714 73.428 160.33 73.092C159.958 72.756 159.46 72.588 158.836 72.588C158.248 72.588 157.72 72.696 157.252 72.912C156.784 73.128 156.298 73.44 155.794 73.848L154.768 72.57C155.284 72.138 155.872 71.766 156.532 71.454C157.192 71.13 157.978 70.968 158.89 70.968C160.102 70.968 161.062 71.28 161.77 71.904C162.478 72.528 162.832 73.362 162.832 74.406C162.832 75.09 162.694 75.726 162.418 76.314C162.142 76.902 161.752 77.484 161.248 78.06C160.744 78.636 160.15 79.248 159.466 79.896L157.072 82.218V82.308H163.318V84Z" fill="#284162"/>
<path d="M153.85 86.5H164.146V87.5H153.85V86.5Z" fill="#284162"/>
<rect x="193" y="54" width="46" height="46" rx="3" fill="#26374A"/>
<rect x="193" y="54" width="46" height="46" rx="3" stroke="#2B4380" stroke-width="2"/>
<path d="M219.814 73.868C219.814 74.744 219.568 75.44 219.076 75.956C218.584 76.472 217.936 76.814 217.132 76.982V77.054C218.152 77.174 218.92 77.498 219.436 78.026C219.952 78.554 220.21 79.238 220.21 80.078C220.21 80.822 220.03 81.488 219.67 82.076C219.322 82.652 218.776 83.108 218.032 83.444C217.3 83.768 216.358 83.93 215.206 83.93C214.522 83.93 213.886 83.876 213.298 83.768C212.71 83.66 212.152 83.48 211.624 83.228V81.5C212.164 81.776 212.746 81.986 213.37 82.13C213.994 82.274 214.582 82.346 215.134 82.346C216.238 82.346 217.024 82.142 217.492 81.734C217.972 81.314 218.212 80.732 218.212 79.988C218.212 79.268 217.924 78.74 217.348 78.404C216.772 78.068 215.908 77.9 214.756 77.9H213.586V76.334H214.774C215.866 76.334 216.658 76.13 217.15 75.722C217.642 75.314 217.888 74.78 217.888 74.12C217.888 73.544 217.696 73.1 217.312 72.788C216.94 72.464 216.4 72.302 215.692 72.302C215.032 72.302 214.456 72.41 213.964 72.626C213.484 72.83 213.034 73.07 212.614 73.346L211.678 72.032C212.158 71.672 212.734 71.366 213.406 71.114C214.078 70.85 214.858 70.718 215.746 70.718C217.078 70.718 218.086 71.012 218.77 71.6C219.466 72.176 219.814 72.932 219.814 73.868Z" fill="white"/>
<path d="M266.157 83.82C266.157 83.3 266.29 82.9333 266.557 82.72C266.824 82.5067 267.144 82.4 267.517 82.4C267.89 82.4 268.21 82.5067 268.477 82.72C268.757 82.9333 268.897 83.3 268.897 83.82C268.897 84.34 268.757 84.7133 268.477 84.94C268.21 85.1667 267.89 85.28 267.517 85.28C267.144 85.28 266.824 85.1667 266.557 84.94C266.29 84.7133 266.157 84.34 266.157 83.82ZM271.626 83.82C271.626 83.3 271.759 82.9333 272.026 82.72C272.292 82.5067 272.612 82.4 272.986 82.4C273.359 82.4 273.679 82.5067 273.946 82.72C274.226 82.9333 274.366 83.3 274.366 83.82C274.366 84.34 274.226 84.7133 273.946 84.94C273.679 85.1667 273.359 85.28 272.986 85.28C272.612 85.28 272.292 85.1667 272.026 84.94C271.759 84.7133 271.626 84.34 271.626 83.82ZM277.094 83.82C277.094 83.3 277.228 82.9333 277.494 82.72C277.761 82.5067 278.081 82.4 278.454 82.4C278.828 82.4 279.148 82.5067 279.414 82.72C279.694 82.9333 279.834 83.3 279.834 83.82C279.834 84.34 279.694 84.7133 279.414 84.94C279.148 85.1667 278.828 85.28 278.454 85.28C278.081 85.28 277.761 85.1667 277.494 84.94C277.228 84.7133 277.094 84.34 277.094 83.82Z" fill="#284162"/>
<rect x="307" y="54" width="46" height="46" rx="3" stroke="#2B4380" stroke-width="2"/>
<path d="M329.926 76.026C331.198 76.026 332.224 76.356 333.004 77.016C333.784 77.676 334.174 78.618 334.174 79.842C334.174 81.198 333.748 82.26 332.896 83.028C332.044 83.796 330.838 84.18 329.278 84.18C328.606 84.18 327.976 84.12 327.388 84C326.812 83.88 326.32 83.706 325.912 83.478V81.732C326.344 81.984 326.866 82.188 327.478 82.344C328.102 82.5 328.696 82.578 329.26 82.578C330.16 82.578 330.88 82.374 331.42 81.966C331.96 81.546 332.23 80.898 332.23 80.022C332.23 79.242 331.984 78.648 331.492 78.24C331.012 77.82 330.25 77.61 329.206 77.61C328.87 77.61 328.492 77.64 328.072 77.7C327.664 77.76 327.334 77.82 327.082 77.88L326.2 77.358L326.686 71.148H333.292V72.84H328.342L328.054 76.206C328.258 76.17 328.516 76.134 328.828 76.098C329.14 76.05 329.506 76.026 329.926 76.026Z" fill="#284162"/>
<path d="M324.85 86.5H335.146V87.5H324.85V86.5Z" fill="#284162"/>
<rect x="127" y="126" width="85" height="46" rx="3" fill="white"/>
<rect x="127" y="126" width="85" height="46" rx="3" stroke="#2B4380" stroke-width="2"/>
<path d="M140.469 149L146.156 154.688L144.844 156L137.844 149L144.844 142L146.156 143.312L140.469 149Z" fill="#284162"/>
<path d="M163.628 143.148C165.308 143.148 166.532 143.49 167.3 144.174C168.068 144.846 168.452 145.788 168.452 147C168.452 147.72 168.29 148.392 167.966 149.016C167.654 149.64 167.126 150.15 166.382 150.546C165.638 150.93 164.63 151.122 163.358 151.122H161.972V156H160.028V143.148H163.628ZM163.484 144.786H161.972V149.484H163.142C164.234 149.484 165.056 149.304 165.608 148.944C166.172 148.572 166.454 147.948 166.454 147.072C166.454 146.304 166.214 145.734 165.734 145.362C165.254 144.978 164.504 144.786 163.484 144.786ZM175.622 146.118C176.006 146.118 176.36 146.148 176.684 146.208L176.486 147.99C176.174 147.906 175.85 147.864 175.514 147.864C175.022 147.864 174.566 147.984 174.146 148.224C173.726 148.464 173.384 148.812 173.12 149.268C172.868 149.712 172.742 150.252 172.742 150.888V156H170.834V146.298H172.346L172.598 148.026H172.67C172.97 147.51 173.372 147.066 173.876 146.694C174.38 146.31 174.962 146.118 175.622 146.118ZM181.945 146.118C183.217 146.118 184.219 146.514 184.951 147.306C185.683 148.086 186.049 149.154 186.049 150.51V151.554H179.533C179.557 152.55 179.815 153.312 180.307 153.84C180.811 154.368 181.513 154.632 182.413 154.632C183.037 154.632 183.589 154.578 184.069 154.47C184.561 154.35 185.065 154.176 185.581 153.948V155.532C185.089 155.76 184.597 155.922 184.105 156.018C183.613 156.126 183.025 156.18 182.341 156.18C181.405 156.18 180.577 155.994 179.857 155.622C179.137 155.25 178.573 154.698 178.165 153.966C177.769 153.234 177.571 152.322 177.571 151.23C177.571 150.138 177.751 149.214 178.111 148.458C178.483 147.702 178.993 147.126 179.641 146.73C180.301 146.322 181.069 146.118 181.945 146.118ZM181.945 147.594C181.261 147.594 180.709 147.816 180.289 148.26C179.881 148.704 179.641 149.334 179.569 150.15H184.141C184.129 149.394 183.943 148.782 183.583 148.314C183.235 147.834 182.689 147.594 181.945 147.594ZM184.627 142.212V142.392C184.447 142.608 184.189 142.89 183.853 143.238C183.529 143.574 183.181 143.916 182.809 144.264C182.449 144.6 182.125 144.876 181.837 145.092H180.577V144.876C180.757 144.66 180.961 144.396 181.189 144.084C181.417 143.76 181.633 143.436 181.837 143.112C182.053 142.776 182.239 142.476 182.395 142.212H184.627ZM192.336 156.18C190.992 156.18 189.912 155.784 189.096 154.992C188.28 154.188 187.872 152.928 187.872 151.212C187.872 150.012 188.07 149.04 188.466 148.296C188.862 147.552 189.408 147.006 190.104 146.658C190.8 146.298 191.592 146.118 192.48 146.118C193.02 146.118 193.524 146.172 193.992 146.28C194.472 146.388 194.868 146.52 195.18 146.676L194.604 148.224C194.268 148.104 193.914 147.996 193.542 147.9C193.17 147.792 192.81 147.738 192.462 147.738C190.71 147.738 189.834 148.89 189.834 151.194C189.834 152.298 190.05 153.138 190.482 153.714C190.914 154.29 191.55 154.578 192.39 154.578C192.918 154.578 193.392 154.518 193.812 154.398C194.232 154.278 194.616 154.122 194.964 153.93V155.586C194.616 155.79 194.238 155.94 193.83 156.036C193.422 156.132 192.924 156.18 192.336 156.18ZM196.984 154.938C196.984 154.47 197.104 154.14 197.344 153.948C197.584 153.756 197.872 153.66 198.208 153.66C198.544 153.66 198.832 153.756 199.072 153.948C199.324 154.14 199.45 154.47 199.45 154.938C199.45 155.406 199.324 155.742 199.072 155.946C198.832 156.15 198.544 156.252 198.208 156.252C197.872 156.252 197.584 156.15 197.344 155.946C197.104 155.742 196.984 155.406 196.984 154.938Z" fill="#284162"/>
<path d="M158.318 158.5H200.674V159.5H158.318V158.5Z" fill="#284162"/>
<rect x="223" y="126" width="82" height="46" rx="3" fill="white"/>
<rect x="223" y="126" width="82" height="46" rx="3" stroke="#284162" stroke-width="2"/>
<path d="M243.183 152.526C243.183 153.666 242.769 154.56 241.941 155.208C241.113 155.856 239.979 156.18 238.539 156.18C237.831 156.18 237.171 156.12 236.559 156C235.947 155.892 235.425 155.73 234.993 155.514V153.678C235.473 153.894 236.037 154.092 236.685 154.272C237.333 154.44 237.993 154.524 238.665 154.524C239.529 154.524 240.177 154.356 240.609 154.02C241.041 153.684 241.257 153.234 241.257 152.67C241.257 152.274 241.161 151.944 240.969 151.68C240.777 151.404 240.465 151.152 240.033 150.924C239.613 150.684 239.061 150.432 238.377 150.168C237.753 149.928 237.195 149.646 236.703 149.322C236.211 148.998 235.827 148.596 235.551 148.116C235.275 147.636 235.137 147.048 235.137 146.352C235.137 145.296 235.521 144.468 236.289 143.868C237.057 143.268 238.065 142.968 239.313 142.968C240.009 142.968 240.651 143.04 241.239 143.184C241.839 143.328 242.409 143.514 242.949 143.742L242.337 145.344C241.845 145.14 241.341 144.972 240.825 144.84C240.321 144.708 239.799 144.642 239.259 144.642C238.551 144.642 238.011 144.798 237.639 145.11C237.267 145.422 237.081 145.83 237.081 146.334C237.081 146.73 237.171 147.066 237.351 147.342C237.531 147.606 237.819 147.852 238.215 148.08C238.611 148.296 239.133 148.53 239.781 148.782C240.501 149.07 241.113 149.376 241.617 149.7C242.133 150.012 242.523 150.396 242.787 150.852C243.051 151.296 243.183 151.854 243.183 152.526ZM253.835 146.298V156H252.305L252.035 154.722H251.945C251.633 155.226 251.201 155.598 250.649 155.838C250.097 156.066 249.515 156.18 248.903 156.18C247.763 156.18 246.893 155.904 246.293 155.352C245.693 154.788 245.393 153.888 245.393 152.652V146.298H247.319V152.364C247.319 153.12 247.475 153.684 247.787 154.056C248.111 154.428 248.609 154.614 249.281 154.614C250.277 154.614 250.967 154.326 251.351 153.75C251.735 153.162 251.927 152.316 251.927 151.212V146.298H253.835ZM257.793 142.608C258.081 142.608 258.333 142.692 258.549 142.86C258.765 143.028 258.873 143.31 258.873 143.706C258.873 144.09 258.765 144.372 258.549 144.552C258.333 144.72 258.081 144.804 257.793 144.804C257.493 144.804 257.235 144.72 257.019 144.552C256.803 144.372 256.695 144.09 256.695 143.706C256.695 143.31 256.803 143.028 257.019 142.86C257.235 142.692 257.493 142.608 257.793 142.608ZM258.729 146.298V156H256.821V146.298H258.729ZM263.903 156L260.231 146.298H262.247L264.263 151.968C264.383 152.352 264.509 152.772 264.641 153.228C264.773 153.684 264.863 154.062 264.911 154.362H264.983C265.031 154.062 265.127 153.684 265.271 153.228C265.415 152.76 265.547 152.34 265.667 151.968L267.683 146.298H269.699L266.009 156H263.903ZM270.209 154.938C270.209 154.47 270.329 154.14 270.569 153.948C270.809 153.756 271.097 153.66 271.433 153.66C271.769 153.66 272.057 153.756 272.297 153.948C272.549 154.14 272.675 154.47 272.675 154.938C272.675 155.406 272.549 155.742 272.297 155.946C272.057 156.15 271.769 156.252 271.433 156.252C271.097 156.252 270.809 156.15 270.569 155.946C270.329 155.742 270.209 155.406 270.209 154.938Z" fill="#284162"/>
<path d="M234.093 158.5H273.899V159.5H234.093V158.5Z" fill="#284162"/>
<path d="M291.531 149L285.844 154.688L287.156 156L294.156 149L287.156 142L285.844 143.312L291.531 149Z" fill="#284162"/>
<g clip-path="url(#clip0_2095_29896)">
<rect x="327.5" y="149" width="108.5" height="1" fill="#C54600"/>
<g clip-path="url(#clip1_2095_29896)">
<rect x="412" y="137" width="24" height="24" rx="12" fill="#C54600"/>
<path d="M424.033 154.139C423.33 154.139 422.704 154.01 422.154 153.751C421.607 153.493 421.172 153.137 420.851 152.683C420.529 152.228 420.362 151.708 420.349 151.121H422.437C422.46 151.516 422.626 151.836 422.934 152.081C423.242 152.326 423.609 152.449 424.033 152.449C424.371 152.449 424.669 152.374 424.928 152.225C425.19 152.073 425.393 151.862 425.539 151.594C425.688 151.322 425.763 151.01 425.763 150.659C425.763 150.301 425.687 149.986 425.534 149.714C425.385 149.443 425.178 149.231 424.913 149.078C424.648 148.926 424.344 148.848 424.003 148.844C423.705 148.844 423.415 148.906 423.133 149.028C422.855 149.151 422.637 149.318 422.482 149.531L420.568 149.188L421.05 143.818H427.274V145.578H422.825L422.561 148.129H422.621C422.8 147.877 423.07 147.668 423.431 147.502C423.793 147.336 424.197 147.254 424.644 147.254C425.257 147.254 425.804 147.398 426.285 147.686C426.766 147.974 427.145 148.371 427.423 148.874C427.702 149.375 427.839 149.951 427.836 150.604C427.839 151.29 427.68 151.9 427.359 152.434C427.041 152.964 426.595 153.382 426.021 153.687C425.451 153.988 424.788 154.139 424.033 154.139Z" fill="white"/>
</g>
</g>
<g clip-path="url(#clip2_2095_29896)">
<rect y="149" width="109" height="1" fill="#C54600"/>
<g clip-path="url(#clip3_2095_29896)">
<rect y="137" width="24" height="24" rx="12" fill="#C54600"/>
<path d="M7.92702 152.21V150.515L12.1777 143.818H13.6394V146.165H12.7743L10.0946 150.406V150.485H16.1351V152.21H7.92702ZM12.8141 154V151.693L12.8539 150.942V143.818H14.8723V154H12.8141Z" fill="white"/>
</g>
</g>
<g clip-path="url(#clip4_2095_29896)">
<rect x="272" width="1" height="65" fill="#C54600"/>
<g clip-path="url(#clip5_2095_29896)">
<rect x="260" width="24" height="24" rx="12" fill="#C54600"/>
<path d="M271.975 17.1392C271.233 17.1392 270.571 17.0116 269.991 16.7564C269.415 16.4979 268.959 16.1432 268.624 15.6925C268.293 15.2384 268.122 14.7147 268.112 14.1214H270.28C270.293 14.37 270.374 14.5888 270.523 14.7777C270.676 14.9633 270.878 15.1075 271.13 15.2102C271.382 15.313 271.665 15.3643 271.98 15.3643C272.308 15.3643 272.598 15.3063 272.85 15.1903C273.102 15.0743 273.299 14.9136 273.442 14.7081C273.584 14.5026 273.655 14.2656 273.655 13.9972C273.655 13.7254 273.579 13.4851 273.427 13.2763C273.278 13.0642 273.062 12.8984 272.78 12.7791C272.502 12.6598 272.171 12.6001 271.786 12.6001H270.837V11.0192H271.786C272.111 11.0192 272.398 10.9628 272.646 10.8501C272.898 10.7375 273.094 10.5817 273.233 10.3828C273.372 10.1806 273.442 9.94531 273.442 9.67685C273.442 9.42164 273.38 9.19792 273.258 9.00568C273.138 8.81013 272.969 8.65767 272.751 8.5483C272.535 8.43892 272.283 8.38423 271.995 8.38423C271.703 8.38423 271.436 8.43726 271.194 8.54332C270.953 8.64607 270.759 8.79356 270.613 8.9858C270.467 9.17803 270.389 9.40341 270.379 9.66193H268.316C268.326 9.07528 268.493 8.55824 268.818 8.1108C269.143 7.66335 269.58 7.31368 270.131 7.06179C270.684 6.80658 271.309 6.67898 272.005 6.67898C272.707 6.67898 273.322 6.80658 273.849 7.06179C274.376 7.317 274.786 7.66169 275.077 8.09588C275.372 8.52675 275.518 9.01065 275.515 9.54758C275.518 10.1177 275.341 10.5933 274.983 10.9744C274.628 11.3556 274.166 11.5975 273.596 11.7003V11.7798C274.345 11.8759 274.915 12.1361 275.306 12.5604C275.7 12.9813 275.896 13.5083 275.893 14.1413C275.896 14.7214 275.729 15.2367 275.39 15.6875C275.056 16.1383 274.593 16.4929 274.003 16.7514C273.413 17.0099 272.737 17.1392 271.975 17.1392Z" fill="white"/>
</g>
</g>
<g clip-path="url(#clip6_2095_29896)">
<rect x="215" width="1" height="48" fill="#C54600"/>
<g clip-path="url(#clip7_2095_29896)">
<rect x="203" width="24" height="24" rx="12" fill="#C54600"/>
<path d="M211.417 17V15.4489L215.041 12.093C215.349 11.7947 215.608 11.5263 215.816 11.2876C216.029 11.049 216.189 10.8153 216.299 10.5866C216.408 10.3546 216.463 10.1044 216.463 9.83594C216.463 9.53764 216.395 9.28078 216.259 9.06534C216.123 8.84659 215.937 8.67921 215.702 8.56321C215.467 8.44389 215.2 8.38423 214.902 8.38423C214.59 8.38423 214.318 8.44721 214.086 8.57315C213.854 8.6991 213.675 8.87973 213.549 9.11506C213.423 9.35038 213.36 9.63044 213.36 9.95526H211.317C211.317 9.28906 211.468 8.7107 211.77 8.22017C212.071 7.72964 212.494 7.35014 213.037 7.08168C213.581 6.81321 214.207 6.67898 214.917 6.67898C215.646 6.67898 216.28 6.80824 216.821 7.06676C217.364 7.32197 217.787 7.67661 218.088 8.13068C218.39 8.58475 218.541 9.10511 218.541 9.69176C218.541 10.0762 218.465 10.4557 218.312 10.8303C218.163 11.2048 217.896 11.6207 217.512 12.0781C217.127 12.5322 216.585 13.0774 215.886 13.7138L214.4 15.1705V15.2401H218.675V17H211.417Z" fill="white"/>
</g>
</g>
<g clip-path="url(#clip8_2095_29896)">
<rect y="77" width="70" height="1" fill="#C54600"/>
<g clip-path="url(#clip9_2095_29896)">
<rect y="65" width="24" height="24" rx="12" fill="#C54600"/>
<path d="M13.8302 71.8182V82H11.6775V73.8615H11.6178L9.28613 75.3232V73.4141L11.8067 71.8182H13.8302Z" fill="white"/>
</g>
</g>
<defs>
<clipPath id="clip0_2095_29896">
<rect width="108.5" height="24" fill="white" transform="translate(327.5 137)"/>
</clipPath>
<clipPath id="clip1_2095_29896">
<rect x="412" y="137" width="24" height="24" rx="12" fill="white"/>
</clipPath>
<clipPath id="clip2_2095_29896">
<rect width="108.5" height="24" fill="white" transform="translate(0 137)"/>
</clipPath>
<clipPath id="clip3_2095_29896">
<rect y="137" width="24" height="24" rx="12" fill="white"/>
</clipPath>
<clipPath id="clip4_2095_29896">
<rect width="24" height="65" fill="white" transform="translate(260)"/>
</clipPath>
<clipPath id="clip5_2095_29896">
<rect x="260" width="24" height="24" rx="12" fill="white"/>
</clipPath>
<clipPath id="clip6_2095_29896">
<rect width="24" height="48" fill="white" transform="translate(203)"/>
</clipPath>
<clipPath id="clip7_2095_29896">
<rect x="203" width="24" height="24" rx="12" fill="white"/>
</clipPath>
<clipPath id="clip8_2095_29896">
<rect width="70" height="24" fill="white" transform="translate(0 65)"/>
</clipPath>
<clipPath id="clip9_2095_29896">
<rect y="65" width="24" height="24" rx="12" fill="white"/>
</clipPath>
</defs>
</svg>
