<svg width="507" height="212" viewBox="0 0 507 212" fill="none" xmlns="http://www.w3.org/2000/svg">
<g clip-path="url(#clip0_6137_44877)">
<path d="M58.02 20.8823H49.8V6.60226H58.02V9.08226H52.82V12.2223H57.66V14.7023H52.82V18.3823H58.02V20.8823ZM58.24 2.40226C58.0533 2.58893 57.8067 2.8156 57.5 3.08226C57.1933 3.34893 56.86 3.62893 56.5 3.92226C56.1533 4.2156 55.8067 4.4956 55.46 4.76226C55.1267 5.0156 54.8333 5.22893 54.58 5.40226H52.6V5.14226C52.8133 4.88893 53.06 4.5956 53.34 4.26226C53.6333 3.9156 53.92 3.56226 54.2 3.20226C54.48 2.82893 54.7133 2.4956 54.9 2.20226H58.24V2.40226ZM65.3514 18.7023C65.6847 18.7023 66.0047 18.6689 66.3114 18.6023C66.6181 18.5356 66.9247 18.4556 67.2314 18.3623V20.5823C66.9114 20.7156 66.5114 20.8289 66.0314 20.9223C65.5647 21.0289 65.0514 21.0823 64.4914 21.0823C63.8381 21.0823 63.2514 20.9756 62.7314 20.7623C62.2247 20.5489 61.8181 20.1823 61.5114 19.6623C61.2181 19.1289 61.0714 18.3956 61.0714 17.4623V12.2023H59.6514V10.9423L61.2914 9.94226L62.1514 7.64226H64.0514V9.96226H67.1114V12.2023H64.0514V17.4623C64.0514 17.8756 64.1714 18.1889 64.4114 18.4023C64.6514 18.6023 64.9647 18.7023 65.3514 18.7023ZM70.9233 5.68226C71.3633 5.68226 71.7433 5.78893 72.0633 6.00226C72.3833 6.20226 72.5433 6.58226 72.5433 7.14226C72.5433 7.68893 72.3833 8.06893 72.0633 8.28226C71.7433 8.4956 71.3633 8.60226 70.9233 8.60226C70.4699 8.60226 70.0833 8.4956 69.7633 8.28226C69.4566 8.06893 69.3033 7.68893 69.3033 7.14226C69.3033 6.58226 69.4566 6.20226 69.7633 6.00226C70.0833 5.78893 70.4699 5.68226 70.9233 5.68226ZM72.4033 9.96226V20.8823H69.4233V9.96226H72.4033ZM82.077 21.1023C82.077 20.5423 82.117 19.9956 82.197 19.4623H82.077C81.797 19.9156 81.4104 20.3023 80.917 20.6223C80.4237 20.9289 79.777 21.0823 78.977 21.0823C77.7504 21.0823 76.757 20.6089 75.997 19.6623C75.237 18.7023 74.857 17.2956 74.857 15.4423C74.857 13.5756 75.2437 12.1623 76.017 11.2023C76.7904 10.2423 77.797 9.76226 79.037 9.76226C79.837 9.76226 80.4837 9.9156 80.977 10.2223C81.4837 10.5289 81.8904 10.9089 82.197 11.3623H82.277L82.537 9.96226H85.057V25.6823H82.077V21.1023ZM80.037 18.7423C80.8637 18.7423 81.437 18.5023 81.757 18.0223C82.0904 17.5289 82.2637 16.7956 82.277 15.8223V15.4623C82.277 14.3956 82.1104 13.5823 81.777 13.0223C81.457 12.4623 80.8637 12.1823 79.997 12.1823C79.2904 12.1823 78.7637 12.4689 78.417 13.0423C78.0704 13.6023 77.897 14.4156 77.897 15.4823C77.897 17.6556 78.6104 18.7423 80.037 18.7423ZM98.1933 9.96226V20.8823H95.9133L95.5133 19.4823H95.3533C95.0066 20.0423 94.5266 20.4489 93.9133 20.7023C93.3133 20.9556 92.6733 21.0823 91.9933 21.0823C90.8199 21.0823 89.8799 20.7689 89.1733 20.1423C88.4666 19.5023 88.1133 18.4823 88.1133 17.0823V9.96226H91.0933V16.3423C91.0933 17.1156 91.2333 17.7023 91.5133 18.1023C91.7933 18.5023 92.2399 18.7023 92.8533 18.7023C93.7599 18.7023 94.3799 18.3956 94.7133 17.7823C95.0466 17.1556 95.2133 16.2623 95.2133 15.1023V9.96226H98.1933ZM105.818 9.76226C107.324 9.76226 108.518 10.1956 109.398 11.0623C110.278 11.9156 110.718 13.1356 110.718 14.7223V16.1623H103.678C103.704 17.0023 103.951 17.6623 104.418 18.1423C104.898 18.6223 105.558 18.8623 106.398 18.8623C107.104 18.8623 107.744 18.7956 108.318 18.6623C108.891 18.5156 109.484 18.2956 110.098 18.0023V20.3023C109.564 20.5689 108.998 20.7623 108.398 20.8823C107.811 21.0156 107.098 21.0823 106.258 21.0823C105.164 21.0823 104.198 20.8823 103.358 20.4823C102.518 20.0689 101.858 19.4489 101.378 18.6223C100.898 17.7956 100.658 16.7556 100.658 15.5023C100.658 14.2223 100.871 13.1623 101.298 12.3223C101.738 11.4689 102.344 10.8289 103.118 10.4023C103.891 9.9756 104.791 9.76226 105.818 9.76226ZM105.838 11.8823C105.264 11.8823 104.784 12.0689 104.398 12.4423C104.024 12.8156 103.804 13.3956 103.738 14.1823H107.918C107.904 13.5156 107.731 12.9689 107.398 12.5423C107.064 12.1023 106.544 11.8823 105.838 11.8823ZM117.734 18.7023C118.068 18.7023 118.388 18.6689 118.694 18.6023C119.001 18.5356 119.308 18.4556 119.614 18.3623V20.5823C119.294 20.7156 118.894 20.8289 118.414 20.9223C117.948 21.0289 117.434 21.0823 116.874 21.0823C116.221 21.0823 115.634 20.9756 115.114 20.7623C114.608 20.5489 114.201 20.1823 113.894 19.6623C113.601 19.1289 113.454 18.3956 113.454 17.4623V12.2023H112.034V10.9423L113.674 9.94226L114.534 7.64226H116.434V9.96226H119.494V12.2023H116.434V17.4623C116.434 17.8756 116.554 18.1889 116.794 18.4023C117.034 18.6023 117.348 18.7023 117.734 18.7023ZM126.406 18.7023C126.739 18.7023 127.059 18.6689 127.366 18.6023C127.673 18.5356 127.979 18.4556 128.286 18.3623V20.5823C127.966 20.7156 127.566 20.8289 127.086 20.9223C126.619 21.0289 126.106 21.0823 125.546 21.0823C124.893 21.0823 124.306 20.9756 123.786 20.7623C123.279 20.5489 122.873 20.1823 122.566 19.6623C122.273 19.1289 122.126 18.3956 122.126 17.4623V12.2023H120.706V10.9423L122.346 9.94226L123.206 7.64226H125.106V9.96226H128.166V12.2023H125.106V17.4623C125.106 17.8756 125.226 18.1889 125.466 18.4023C125.706 18.6023 126.019 18.7023 126.406 18.7023ZM134.978 9.76226C136.485 9.76226 137.678 10.1956 138.558 11.0623C139.438 11.9156 139.878 13.1356 139.878 14.7223V16.1623H132.838C132.865 17.0023 133.111 17.6623 133.578 18.1423C134.058 18.6223 134.718 18.8623 135.558 18.8623C136.265 18.8623 136.905 18.7956 137.478 18.6623C138.051 18.5156 138.645 18.2956 139.258 18.0023V20.3023C138.725 20.5689 138.158 20.7623 137.558 20.8823C136.971 21.0156 136.258 21.0823 135.418 21.0823C134.325 21.0823 133.358 20.8823 132.518 20.4823C131.678 20.0689 131.018 19.4489 130.538 18.6223C130.058 17.7956 129.818 16.7556 129.818 15.5023C129.818 14.2223 130.031 13.1623 130.458 12.3223C130.898 11.4689 131.505 10.8289 132.278 10.4023C133.051 9.9756 133.951 9.76226 134.978 9.76226ZM134.998 11.8823C134.425 11.8823 133.945 12.0689 133.558 12.4423C133.185 12.8156 132.965 13.3956 132.898 14.1823H137.078C137.065 13.5156 136.891 12.9689 136.558 12.5423C136.225 12.1023 135.705 11.8823 134.998 11.8823Z" fill="#333333"/>
<path d="M147.8 15.4023C147.8 13.7756 148.033 12.2089 148.5 10.7023C148.98 9.18226 149.727 7.8156 150.74 6.60226H152.4C151.467 7.8556 150.76 9.2356 150.28 10.7423C149.813 12.2489 149.58 13.7956 149.58 15.3823C149.58 16.9289 149.813 18.4489 150.28 19.9423C150.76 21.4223 151.46 22.7889 152.38 24.0423H150.74C149.727 22.8689 148.98 21.5423 148.5 20.0623C148.033 18.5689 147.8 17.0156 147.8 15.4023ZM164.016 15.5023C164.016 17.2756 163.563 18.6489 162.656 19.6223C161.763 20.5956 160.549 21.0823 159.016 21.0823C158.069 21.0823 157.223 20.8689 156.476 20.4423C155.743 20.0023 155.163 19.3689 154.736 18.5423C154.309 17.7023 154.096 16.6889 154.096 15.5023C154.096 13.7289 154.543 12.3623 155.436 11.4023C156.329 10.4423 157.543 9.96226 159.076 9.96226C160.049 9.96226 160.903 10.1823 161.636 10.6223C162.383 11.0489 162.963 11.6756 163.376 12.5023C163.803 13.3156 164.016 14.3156 164.016 15.5023ZM155.916 15.5023C155.916 16.7689 156.163 17.7756 156.656 18.5223C157.163 19.2556 157.963 19.6223 159.056 19.6223C160.136 19.6223 160.929 19.2556 161.436 18.5223C161.943 17.7756 162.196 16.7689 162.196 15.5023C162.196 14.2356 161.943 13.2423 161.436 12.5223C160.929 11.8023 160.129 11.4423 159.036 11.4423C157.943 11.4423 157.149 11.8023 156.656 12.5223C156.163 13.2423 155.916 14.2356 155.916 15.5023ZM168.565 9.38226C168.565 9.8356 168.552 10.2623 168.525 10.6623C168.512 11.0489 168.492 11.3556 168.465 11.5823H168.565C168.872 11.1289 169.292 10.7489 169.825 10.4423C170.359 10.1356 171.045 9.98226 171.885 9.98226C173.219 9.98226 174.285 10.4489 175.085 11.3823C175.899 12.3023 176.305 13.6823 176.305 15.5223C176.305 17.3623 175.899 18.7489 175.085 19.6823C174.272 20.6156 173.205 21.0823 171.885 21.0823C171.045 21.0823 170.359 20.9289 169.825 20.6223C169.292 20.3156 168.872 19.9489 168.565 19.5223H168.425L168.065 20.8823H166.805V5.68226H168.565V9.38226ZM171.585 11.4423C170.452 11.4423 169.665 11.7689 169.225 12.4223C168.785 13.0756 168.565 14.0889 168.565 15.4623V15.5423C168.565 16.8623 168.779 17.8756 169.205 18.5823C169.645 19.2756 170.452 19.6223 171.625 19.6223C172.585 19.6223 173.299 19.2689 173.765 18.5623C174.245 17.8556 174.485 16.8356 174.485 15.5023C174.485 12.7956 173.519 11.4423 171.585 11.4423ZM180.87 20.8823H179.11V5.68226H180.87V20.8823ZM185.166 6.14226C185.433 6.14226 185.666 6.2356 185.866 6.42226C186.08 6.5956 186.186 6.8756 186.186 7.26226C186.186 7.6356 186.08 7.9156 185.866 8.10226C185.666 8.28893 185.433 8.38226 185.166 8.38226C184.873 8.38226 184.626 8.28893 184.426 8.10226C184.226 7.9156 184.126 7.6356 184.126 7.26226C184.126 6.8756 184.226 6.5956 184.426 6.42226C184.626 6.2356 184.873 6.14226 185.166 6.14226ZM186.026 10.1623V20.8823H184.266V10.1623H186.026ZM193.223 9.96226C193.929 9.96226 194.563 10.0956 195.123 10.3623C195.696 10.6289 196.183 11.0356 196.583 11.5823H196.683L196.923 10.1623H198.323V21.0623C198.323 22.5956 197.929 23.7489 197.143 24.5223C196.369 25.2956 195.163 25.6823 193.523 25.6823C191.949 25.6823 190.663 25.4556 189.663 25.0023V23.3823C190.716 23.9423 192.036 24.2223 193.623 24.2223C194.543 24.2223 195.263 23.9489 195.783 23.4023C196.316 22.8689 196.583 22.1356 196.583 21.2023V20.7823C196.583 20.6223 196.589 20.3956 196.603 20.1023C196.616 19.7956 196.629 19.5823 196.643 19.4623H196.563C195.843 20.5423 194.736 21.0823 193.243 21.0823C191.856 21.0823 190.769 20.5956 189.983 19.6223C189.209 18.6489 188.823 17.2889 188.823 15.5423C188.823 13.8356 189.209 12.4823 189.983 11.4823C190.769 10.4689 191.849 9.96226 193.223 9.96226ZM193.463 11.4423C192.569 11.4423 191.876 11.8023 191.383 12.5223C190.889 13.2289 190.643 14.2423 190.643 15.5623C190.643 16.8823 190.883 17.8956 191.363 18.6023C191.856 19.2956 192.569 19.6423 193.503 19.6423C194.583 19.6423 195.369 19.3556 195.863 18.7823C196.356 18.1956 196.603 17.2556 196.603 15.9623V15.5423C196.603 14.0756 196.349 13.0289 195.843 12.4023C195.336 11.7623 194.543 11.4423 193.463 11.4423ZM205.787 9.98226C207.094 9.98226 208.061 10.2689 208.687 10.8423C209.314 11.4156 209.627 12.3289 209.627 13.5823V20.8823H208.347L208.007 19.3623H207.927C207.461 19.9489 206.967 20.3823 206.447 20.6623C205.941 20.9423 205.234 21.0823 204.327 21.0823C203.354 21.0823 202.547 20.8289 201.907 20.3223C201.267 19.8023 200.947 18.9956 200.947 17.9023C200.947 16.8356 201.367 16.0156 202.207 15.4423C203.047 14.8556 204.341 14.5356 206.087 14.4823L207.907 14.4223V13.7823C207.907 12.8889 207.714 12.2689 207.327 11.9223C206.941 11.5756 206.394 11.4023 205.687 11.4023C205.127 11.4023 204.594 11.4889 204.087 11.6623C203.581 11.8223 203.107 12.0089 202.667 12.2223L202.127 10.9023C202.594 10.6489 203.147 10.4356 203.787 10.2623C204.427 10.0756 205.094 9.98226 205.787 9.98226ZM206.307 15.7023C204.974 15.7556 204.047 15.9689 203.527 16.3423C203.021 16.7156 202.767 17.2423 202.767 17.9223C202.767 18.5223 202.947 18.9623 203.307 19.2423C203.681 19.5223 204.154 19.6623 204.727 19.6623C205.634 19.6623 206.387 19.4156 206.987 18.9223C207.587 18.4156 207.887 17.6423 207.887 16.6023V15.6423L206.307 15.7023ZM216.518 19.6423C216.785 19.6423 217.058 19.6223 217.338 19.5823C217.618 19.5289 217.845 19.4756 218.018 19.4223V20.7623C217.832 20.8556 217.565 20.9289 217.218 20.9823C216.872 21.0489 216.538 21.0823 216.218 21.0823C215.658 21.0823 215.138 20.9889 214.658 20.8023C214.192 20.6023 213.812 20.2623 213.518 19.7823C213.225 19.3023 213.078 18.6289 213.078 17.7623V11.5223H211.558V10.6823L213.098 9.98226L213.798 7.70226H214.838V10.1623H217.938V11.5223H214.838V17.7223C214.838 18.3756 214.992 18.8623 215.298 19.1823C215.618 19.4889 216.025 19.6423 216.518 19.6423ZM229.485 15.5023C229.485 17.2756 229.032 18.6489 228.125 19.6223C227.232 20.5956 226.018 21.0823 224.485 21.0823C223.538 21.0823 222.692 20.8689 221.945 20.4423C221.212 20.0023 220.632 19.3689 220.205 18.5423C219.778 17.7023 219.565 16.6889 219.565 15.5023C219.565 13.7289 220.012 12.3623 220.905 11.4023C221.798 10.4423 223.012 9.96226 224.545 9.96226C225.518 9.96226 226.372 10.1823 227.105 10.6223C227.852 11.0489 228.432 11.6756 228.845 12.5023C229.272 13.3156 229.485 14.3156 229.485 15.5023ZM221.385 15.5023C221.385 16.7689 221.632 17.7756 222.125 18.5223C222.632 19.2556 223.432 19.6223 224.525 19.6223C225.605 19.6223 226.398 19.2556 226.905 18.5223C227.412 17.7756 227.665 16.7689 227.665 15.5023C227.665 14.2356 227.412 13.2423 226.905 12.5223C226.398 11.8023 225.598 11.4423 224.505 11.4423C223.412 11.4423 222.618 11.8023 222.125 12.5223C221.632 13.2423 221.385 14.2356 221.385 15.5023ZM233.174 6.14226C233.441 6.14226 233.674 6.2356 233.874 6.42226C234.088 6.5956 234.194 6.8756 234.194 7.26226C234.194 7.6356 234.088 7.9156 233.874 8.10226C233.674 8.28893 233.441 8.38226 233.174 8.38226C232.881 8.38226 232.634 8.28893 232.434 8.10226C232.234 7.9156 232.134 7.6356 232.134 7.26226C232.134 6.8756 232.234 6.5956 232.434 6.42226C232.634 6.2356 232.881 6.14226 233.174 6.14226ZM234.034 10.1623V20.8823H232.274V10.1623H234.034ZM242.43 9.96226C242.63 9.96226 242.844 9.9756 243.07 10.0023C243.31 10.0156 243.517 10.0423 243.69 10.0823L243.47 11.7023C243.297 11.6623 243.104 11.6289 242.89 11.6023C242.69 11.5756 242.497 11.5623 242.31 11.5623C241.764 11.5623 241.25 11.7156 240.77 12.0223C240.29 12.3156 239.904 12.7356 239.61 13.2823C239.33 13.8156 239.19 14.4423 239.19 15.1623V20.8823H237.43V10.1623H238.87L239.07 12.1223H239.15C239.497 11.5356 239.944 11.0289 240.49 10.6023C241.037 10.1756 241.684 9.96226 242.43 9.96226ZM249.442 9.96226C250.362 9.96226 251.148 10.1623 251.802 10.5623C252.468 10.9623 252.975 11.5289 253.322 12.2623C253.682 12.9823 253.862 13.8289 253.862 14.8023V15.8623H246.522C246.548 17.0756 246.855 18.0023 247.442 18.6423C248.042 19.2689 248.875 19.5823 249.942 19.5823C250.622 19.5823 251.222 19.5223 251.742 19.4023C252.275 19.2689 252.822 19.0823 253.382 18.8423V20.3823C252.835 20.6223 252.295 20.7956 251.762 20.9023C251.228 21.0223 250.595 21.0823 249.862 21.0823C248.848 21.0823 247.948 20.8756 247.162 20.4623C246.388 20.0489 245.782 19.4356 245.342 18.6223C244.915 17.7956 244.702 16.7889 244.702 15.6023C244.702 14.4289 244.895 13.4223 245.282 12.5823C245.682 11.7423 246.235 11.0956 246.942 10.6423C247.662 10.1889 248.495 9.96226 249.442 9.96226ZM249.422 11.4023C248.582 11.4023 247.915 11.6756 247.422 12.2223C246.942 12.7556 246.655 13.5023 246.562 14.4623H252.022C252.008 13.5556 251.795 12.8223 251.382 12.2623C250.968 11.6889 250.315 11.4023 249.422 11.4023ZM260.091 15.4023C260.091 17.0156 259.851 18.5689 259.371 20.0623C258.904 21.5423 258.164 22.8689 257.151 24.0423H255.511C256.431 22.7889 257.124 21.4223 257.591 19.9423C258.071 18.4489 258.311 16.9289 258.311 15.3823C258.311 13.7956 258.071 12.2489 257.591 10.7423C257.124 9.2356 256.424 7.8556 255.491 6.60226H257.151C258.164 7.8156 258.904 9.18226 259.371 10.7023C259.851 12.2089 260.091 13.7756 260.091 15.4023Z" fill="#333333"/>
</g>
<path d="M54.46 50.8823H52.66V38.1823H48.2V36.6023H58.9V38.1823H54.46V50.8823ZM63.547 39.9623C64.467 39.9623 65.2537 40.1623 65.907 40.5623C66.5737 40.9623 67.0804 41.529 67.427 42.2623C67.787 42.9823 67.967 43.829 67.967 44.8023V45.8623H60.627C60.6537 47.0757 60.9604 48.0023 61.547 48.6423C62.147 49.269 62.9804 49.5823 64.047 49.5823C64.727 49.5823 65.327 49.5223 65.847 49.4023C66.3804 49.269 66.927 49.0823 67.487 48.8423V50.3823C66.9404 50.6223 66.4004 50.7957 65.867 50.9023C65.3337 51.0223 64.7004 51.0823 63.967 51.0823C62.9537 51.0823 62.0537 50.8757 61.267 50.4623C60.4937 50.049 59.887 49.4357 59.447 48.6223C59.0204 47.7957 58.807 46.789 58.807 45.6023C58.807 44.429 59.0004 43.4223 59.387 42.5823C59.787 41.7423 60.3404 41.0957 61.047 40.6423C61.767 40.189 62.6004 39.9623 63.547 39.9623ZM63.527 41.4023C62.687 41.4023 62.0204 41.6757 61.527 42.2223C61.047 42.7557 60.7604 43.5023 60.667 44.4623H66.127C66.1137 43.5557 65.9004 42.8223 65.487 42.2623C65.0737 41.689 64.4204 41.4023 63.527 41.4023ZM72.8455 45.4023L69.1455 40.1623H71.1455L73.9055 44.2023L76.6455 40.1623H78.6255L74.9255 45.4023L78.8255 50.8823H76.8255L73.9055 46.6023L70.9455 50.8823H68.9655L72.8455 45.4023ZM84.4714 49.6423C84.7381 49.6423 85.0114 49.6223 85.2914 49.5823C85.5714 49.529 85.7981 49.4757 85.9714 49.4223V50.7623C85.7847 50.8557 85.5181 50.929 85.1714 50.9823C84.8247 51.049 84.4914 51.0823 84.1714 51.0823C83.6114 51.0823 83.0914 50.989 82.6114 50.8023C82.1447 50.6023 81.7647 50.2623 81.4714 49.7823C81.1781 49.3023 81.0314 48.629 81.0314 47.7623V41.5223H79.5114V40.6823L81.0514 39.9823L81.7514 37.7023H82.7914V40.1623H85.8914V41.5223H82.7914V47.7223C82.7914 48.3757 82.9447 48.8623 83.2514 49.1823C83.5714 49.489 83.9781 49.6423 84.4714 49.6423ZM92.258 39.9623C93.178 39.9623 93.9646 40.1623 94.618 40.5623C95.2846 40.9623 95.7913 41.529 96.138 42.2623C96.498 42.9823 96.678 43.829 96.678 44.8023V45.8623H89.338C89.3646 47.0757 89.6713 48.0023 90.258 48.6423C90.858 49.269 91.6913 49.5823 92.758 49.5823C93.438 49.5823 94.038 49.5223 94.558 49.4023C95.0913 49.269 95.638 49.0823 96.198 48.8423V50.3823C95.6513 50.6223 95.1113 50.7957 94.578 50.9023C94.0446 51.0223 93.4113 51.0823 92.678 51.0823C91.6646 51.0823 90.7646 50.8757 89.978 50.4623C89.2046 50.049 88.598 49.4357 88.158 48.6223C87.7313 47.7957 87.518 46.789 87.518 45.6023C87.518 44.429 87.7113 43.4223 88.098 42.5823C88.498 41.7423 89.0513 41.0957 89.758 40.6423C90.478 40.189 91.3113 39.9623 92.258 39.9623ZM92.238 41.4023C91.398 41.4023 90.7313 41.6757 90.238 42.2223C89.758 42.7557 89.4713 43.5023 89.378 44.4623H94.838C94.8246 43.5557 94.6113 42.8223 94.198 42.2623C93.7846 41.689 93.1313 41.4023 92.238 41.4023ZM108.742 39.9623C109.662 39.9623 110.449 40.1623 111.102 40.5623C111.769 40.9623 112.276 41.529 112.622 42.2623C112.982 42.9823 113.162 43.829 113.162 44.8023V45.8623H105.822C105.849 47.0757 106.156 48.0023 106.742 48.6423C107.342 49.269 108.176 49.5823 109.242 49.5823C109.922 49.5823 110.522 49.5223 111.042 49.4023C111.576 49.269 112.122 49.0823 112.682 48.8423V50.3823C112.136 50.6223 111.596 50.7957 111.062 50.9023C110.529 51.0223 109.896 51.0823 109.162 51.0823C108.149 51.0823 107.249 50.8757 106.462 50.4623C105.689 50.049 105.082 49.4357 104.642 48.6223C104.216 47.7957 104.002 46.789 104.002 45.6023C104.002 44.429 104.196 43.4223 104.582 42.5823C104.982 41.7423 105.536 41.0957 106.242 40.6423C106.962 40.189 107.796 39.9623 108.742 39.9623ZM108.722 41.4023C107.882 41.4023 107.216 41.6757 106.722 42.2223C106.242 42.7557 105.956 43.5023 105.862 44.4623H111.322C111.309 43.5557 111.096 42.8223 110.682 42.2623C110.269 41.689 109.616 41.4023 108.722 41.4023ZM118.041 45.4023L114.341 40.1623H116.341L119.101 44.2023L121.841 40.1623H123.821L120.121 45.4023L124.021 50.8823H122.021L119.101 46.6023L116.141 50.8823H114.161L118.041 45.4023ZM131.187 39.9623C132.507 39.9623 133.567 40.4223 134.367 41.3423C135.18 42.2623 135.587 43.649 135.587 45.5023C135.587 47.329 135.18 48.7157 134.367 49.6623C133.567 50.609 132.5 51.0823 131.167 51.0823C130.34 51.0823 129.653 50.929 129.107 50.6223C128.573 50.3023 128.153 49.9357 127.847 49.5223H127.727C127.753 49.749 127.78 50.0357 127.807 50.3823C127.833 50.729 127.847 51.029 127.847 51.2823V55.6823H126.087V40.1623H127.527L127.767 41.6223H127.847C128.167 41.1557 128.587 40.7623 129.107 40.4423C129.627 40.1223 130.32 39.9623 131.187 39.9623ZM130.867 41.4423C129.773 41.4423 129 41.749 128.547 42.3623C128.107 42.9757 127.873 43.909 127.847 45.1623V45.5023C127.847 46.8223 128.06 47.8423 128.487 48.5623C128.927 49.269 129.733 49.6223 130.907 49.6223C131.56 49.6223 132.093 49.4423 132.507 49.0823C132.933 48.7223 133.247 48.2357 133.447 47.6223C133.66 46.9957 133.767 46.2823 133.767 45.4823C133.767 44.2557 133.527 43.2757 133.047 42.5423C132.58 41.809 131.853 41.4423 130.867 41.4423ZM140.151 50.8823H138.391V35.6823H140.151V50.8823ZM144.448 36.1423C144.714 36.1423 144.948 36.2357 145.148 36.4223C145.361 36.5957 145.468 36.8757 145.468 37.2623C145.468 37.6357 145.361 37.9157 145.148 38.1023C144.948 38.289 144.714 38.3823 144.448 38.3823C144.154 38.3823 143.908 38.289 143.708 38.1023C143.508 37.9157 143.408 37.6357 143.408 37.2623C143.408 36.8757 143.508 36.5957 143.708 36.4223C143.908 36.2357 144.154 36.1423 144.448 36.1423ZM145.308 40.1623V50.8823H143.548V40.1623H145.308ZM153.004 51.0823C152.057 51.0823 151.211 50.889 150.464 50.5023C149.731 50.1157 149.151 49.5157 148.724 48.7023C148.311 47.889 148.104 46.849 148.104 45.5823C148.104 44.2623 148.324 43.189 148.764 42.3623C149.204 41.5357 149.797 40.929 150.544 40.5423C151.304 40.1557 152.164 39.9623 153.124 39.9623C153.671 39.9623 154.197 40.0223 154.704 40.1423C155.211 40.249 155.624 40.3823 155.944 40.5423L155.404 42.0023C155.084 41.8823 154.711 41.769 154.284 41.6623C153.857 41.5557 153.457 41.5023 153.084 41.5023C150.977 41.5023 149.924 42.8557 149.924 45.5623C149.924 46.8557 150.177 47.849 150.684 48.5423C151.204 49.2223 151.971 49.5623 152.984 49.5623C153.571 49.5623 154.084 49.5023 154.524 49.3823C154.977 49.2623 155.391 49.1157 155.764 48.9423V50.5023C155.404 50.689 155.004 50.829 154.564 50.9223C154.137 51.029 153.617 51.0823 153.004 51.0823ZM162.373 39.9823C163.68 39.9823 164.647 40.269 165.273 40.8423C165.9 41.4157 166.213 42.329 166.213 43.5823V50.8823H164.933L164.593 49.3623H164.513C164.047 49.949 163.553 50.3823 163.033 50.6623C162.527 50.9423 161.82 51.0823 160.913 51.0823C159.94 51.0823 159.133 50.829 158.493 50.3223C157.853 49.8023 157.533 48.9957 157.533 47.9023C157.533 46.8357 157.953 46.0157 158.793 45.4423C159.633 44.8557 160.927 44.5357 162.673 44.4823L164.493 44.4223V43.7823C164.493 42.889 164.3 42.269 163.913 41.9223C163.527 41.5757 162.98 41.4023 162.273 41.4023C161.713 41.4023 161.18 41.489 160.673 41.6623C160.167 41.8223 159.693 42.009 159.253 42.2223L158.713 40.9023C159.18 40.649 159.733 40.4357 160.373 40.2623C161.013 40.0757 161.68 39.9823 162.373 39.9823ZM162.893 45.7023C161.56 45.7557 160.633 45.969 160.113 46.3423C159.607 46.7157 159.353 47.2423 159.353 47.9223C159.353 48.5223 159.533 48.9623 159.893 49.2423C160.267 49.5223 160.74 49.6623 161.313 49.6623C162.22 49.6623 162.973 49.4157 163.573 48.9223C164.173 48.4157 164.473 47.6423 164.473 46.6023V45.6423L162.893 45.7023ZM173.104 49.6423C173.371 49.6423 173.644 49.6223 173.924 49.5823C174.204 49.529 174.431 49.4757 174.604 49.4223V50.7623C174.418 50.8557 174.151 50.929 173.804 50.9823C173.458 51.049 173.124 51.0823 172.804 51.0823C172.244 51.0823 171.724 50.989 171.244 50.8023C170.778 50.6023 170.398 50.2623 170.104 49.7823C169.811 49.3023 169.664 48.629 169.664 47.7623V41.5223H168.144V40.6823L169.684 39.9823L170.384 37.7023H171.424V40.1623H174.524V41.5223H171.424V47.7223C171.424 48.3757 171.578 48.8623 171.884 49.1823C172.204 49.489 172.611 49.6423 173.104 49.6423ZM177.651 36.1423C177.917 36.1423 178.151 36.2357 178.351 36.4223C178.564 36.5957 178.671 36.8757 178.671 37.2623C178.671 37.6357 178.564 37.9157 178.351 38.1023C178.151 38.289 177.917 38.3823 177.651 38.3823C177.357 38.3823 177.111 38.289 176.911 38.1023C176.711 37.9157 176.611 37.6357 176.611 37.2623C176.611 36.8757 176.711 36.5957 176.911 36.4223C177.111 36.2357 177.357 36.1423 177.651 36.1423ZM178.511 40.1623V50.8823H176.751V40.1623H178.511ZM186.847 41.5223H184.147V50.8823H182.387V41.5223H180.507V40.7023L182.387 40.1023V39.4823C182.387 38.0957 182.694 37.1023 183.307 36.5023C183.92 35.889 184.774 35.5823 185.867 35.5823C186.294 35.5823 186.68 35.6223 187.027 35.7023C187.387 35.769 187.694 35.849 187.947 35.9423L187.487 37.3223C187.274 37.2557 187.027 37.189 186.747 37.1223C186.467 37.0557 186.18 37.0223 185.887 37.0223C185.3 37.0223 184.86 37.2223 184.567 37.6223C184.287 38.009 184.147 38.6223 184.147 39.4623V40.1623H186.847V41.5223ZM199.517 36.6023L194.197 50.8823H192.477L197.797 36.6023H199.517ZM214.834 50.8823H206.854V36.6023H214.834V38.1823H208.654V42.6423H214.474V44.2023H208.654V49.3023H214.834V50.8823ZM220.267 45.4023L216.567 40.1623H218.567L221.327 44.2023L224.067 40.1623H226.047L222.347 45.4023L226.247 50.8823H224.247L221.327 46.6023L218.367 50.8823H216.387L220.267 45.4023ZM232.063 39.9623C232.983 39.9623 233.769 40.1623 234.423 40.5623C235.089 40.9623 235.596 41.529 235.943 42.2623C236.303 42.9823 236.483 43.829 236.483 44.8023V45.8623H229.143C229.169 47.0757 229.476 48.0023 230.063 48.6423C230.663 49.269 231.496 49.5823 232.563 49.5823C233.243 49.5823 233.843 49.5223 234.363 49.4023C234.896 49.269 235.443 49.0823 236.003 48.8423V50.3823C235.456 50.6223 234.916 50.7957 234.383 50.9023C233.849 51.0223 233.216 51.0823 232.483 51.0823C231.469 51.0823 230.569 50.8757 229.783 50.4623C229.009 50.049 228.403 49.4357 227.963 48.6223C227.536 47.7957 227.323 46.789 227.323 45.6023C227.323 44.429 227.516 43.4223 227.903 42.5823C228.303 41.7423 228.856 41.0957 229.563 40.6423C230.283 40.189 231.116 39.9623 232.063 39.9623ZM232.043 41.4023C231.203 41.4023 230.536 41.6757 230.043 42.2223C229.563 42.7557 229.276 43.5023 229.183 44.4623H234.643C234.629 43.5557 234.416 42.8223 234.003 42.2623C233.589 41.689 232.936 41.4023 232.043 41.4023ZM250.972 39.9623C252.185 39.9623 253.092 40.2757 253.692 40.9023C254.292 41.5157 254.592 42.5157 254.592 43.9023V50.8823H252.852V43.9823C252.852 42.289 252.125 41.4423 250.672 41.4423C249.632 41.4423 248.885 41.7423 248.432 42.3423C247.992 42.9423 247.772 43.8157 247.772 44.9623V50.8823H246.032V43.9823C246.032 42.289 245.298 41.4423 243.832 41.4423C242.752 41.4423 242.005 41.7757 241.592 42.4423C241.178 43.109 240.972 44.069 240.972 45.3223V50.8823H239.212V40.1623H240.632L240.892 41.6223H240.992C241.325 41.0623 241.772 40.649 242.332 40.3823C242.905 40.1023 243.512 39.9623 244.152 39.9623C245.832 39.9623 246.925 40.5623 247.432 41.7623H247.532C247.892 41.149 248.378 40.6957 248.992 40.4023C249.618 40.109 250.278 39.9623 250.972 39.9623ZM263.003 39.9623C264.323 39.9623 265.383 40.4223 266.183 41.3423C266.996 42.2623 267.403 43.649 267.403 45.5023C267.403 47.329 266.996 48.7157 266.183 49.6623C265.383 50.609 264.316 51.0823 262.983 51.0823C262.156 51.0823 261.47 50.929 260.923 50.6223C260.39 50.3023 259.97 49.9357 259.663 49.5223H259.543C259.57 49.749 259.596 50.0357 259.623 50.3823C259.65 50.729 259.663 51.029 259.663 51.2823V55.6823H257.903V40.1623H259.343L259.583 41.6223H259.663C259.983 41.1557 260.403 40.7623 260.923 40.4423C261.443 40.1223 262.136 39.9623 263.003 39.9623ZM262.683 41.4423C261.59 41.4423 260.816 41.749 260.363 42.3623C259.923 42.9757 259.69 43.909 259.663 45.1623V45.5023C259.663 46.8223 259.876 47.8423 260.303 48.5623C260.743 49.269 261.55 49.6223 262.723 49.6223C263.376 49.6223 263.91 49.4423 264.323 49.0823C264.75 48.7223 265.063 48.2357 265.263 47.6223C265.476 46.9957 265.583 46.2823 265.583 45.4823C265.583 44.2557 265.343 43.2757 264.863 42.5423C264.396 41.809 263.67 41.4423 262.683 41.4423ZM271.968 50.8823H270.208V35.6823H271.968V50.8823ZM279.504 39.9623C280.424 39.9623 281.211 40.1623 281.864 40.5623C282.531 40.9623 283.037 41.529 283.384 42.2623C283.744 42.9823 283.924 43.829 283.924 44.8023V45.8623H276.584C276.611 47.0757 276.917 48.0023 277.504 48.6423C278.104 49.269 278.937 49.5823 280.004 49.5823C280.684 49.5823 281.284 49.5223 281.804 49.4023C282.337 49.269 282.884 49.0823 283.444 48.8423V50.3823C282.897 50.6223 282.357 50.7957 281.824 50.9023C281.291 51.0223 280.657 51.0823 279.924 51.0823C278.911 51.0823 278.011 50.8757 277.224 50.4623C276.451 50.049 275.844 49.4357 275.404 48.6223C274.977 47.7957 274.764 46.789 274.764 45.6023C274.764 44.429 274.957 43.4223 275.344 42.5823C275.744 41.7423 276.297 41.0957 277.004 40.6423C277.724 40.189 278.557 39.9623 279.504 39.9623ZM279.484 41.4023C278.644 41.4023 277.977 41.6757 277.484 42.2223C277.004 42.7557 276.717 43.5023 276.624 44.4623H282.084C282.071 43.5557 281.857 42.8223 281.444 42.2623C281.031 41.689 280.377 41.4023 279.484 41.4023ZM295.648 51.0823C294.315 51.0823 293.248 50.6223 292.448 49.7023C291.648 48.769 291.248 47.3823 291.248 45.5423C291.248 43.7023 291.648 42.3157 292.448 41.3823C293.262 40.4357 294.335 39.9623 295.668 39.9623C296.495 39.9623 297.168 40.1157 297.688 40.4223C298.222 40.729 298.655 41.1023 298.988 41.5423H299.108C299.095 41.369 299.068 41.1157 299.028 40.7823C299.002 40.4357 298.988 40.1623 298.988 39.9623V35.6823H300.748V50.8823H299.328L299.068 49.4423H298.988C298.668 49.8957 298.242 50.2823 297.708 50.6023C297.175 50.9223 296.488 51.0823 295.648 51.0823ZM295.928 49.6223C297.062 49.6223 297.855 49.3157 298.308 48.7023C298.775 48.0757 299.008 47.1357 299.008 45.8823V45.5623C299.008 44.229 298.788 43.209 298.348 42.5023C297.908 41.7823 297.095 41.4223 295.908 41.4223C294.962 41.4223 294.248 41.8023 293.768 42.5623C293.302 43.309 293.068 44.3157 293.068 45.5823C293.068 46.8623 293.302 47.8557 293.768 48.5623C294.248 49.269 294.968 49.6223 295.928 49.6223ZM308.293 39.9623C309.213 39.9623 310 40.1623 310.653 40.5623C311.32 40.9623 311.826 41.529 312.173 42.2623C312.533 42.9823 312.713 43.829 312.713 44.8023V45.8623H305.373C305.4 47.0757 305.706 48.0023 306.293 48.6423C306.893 49.269 307.726 49.5823 308.793 49.5823C309.473 49.5823 310.073 49.5223 310.593 49.4023C311.126 49.269 311.673 49.0823 312.233 48.8423V50.3823C311.686 50.6223 311.146 50.7957 310.613 50.9023C310.08 51.0223 309.446 51.0823 308.713 51.0823C307.7 51.0823 306.8 50.8757 306.013 50.4623C305.24 50.049 304.633 49.4357 304.193 48.6223C303.766 47.7957 303.553 46.789 303.553 45.6023C303.553 44.429 303.746 43.4223 304.133 42.5823C304.533 41.7423 305.086 41.0957 305.793 40.6423C306.513 40.189 307.346 39.9623 308.293 39.9623ZM308.273 41.4023C307.433 41.4023 306.766 41.6757 306.273 42.2223C305.793 42.7557 305.506 43.5023 305.413 44.4623H310.873C310.86 43.5557 310.646 42.8223 310.233 42.2623C309.82 41.689 309.166 41.4023 308.273 41.4023ZM332.398 39.9623C333.611 39.9623 334.518 40.2757 335.118 40.9023C335.718 41.5157 336.018 42.5157 336.018 43.9023V50.8823H334.278V43.9823C334.278 42.289 333.551 41.4423 332.098 41.4423C331.058 41.4423 330.311 41.7423 329.858 42.3423C329.418 42.9423 329.198 43.8157 329.198 44.9623V50.8823H327.458V43.9823C327.458 42.289 326.724 41.4423 325.258 41.4423C324.178 41.4423 323.431 41.7757 323.018 42.4423C322.604 43.109 322.398 44.069 322.398 45.3223V50.8823H320.638V40.1623H322.058L322.318 41.6223H322.418C322.751 41.0623 323.198 40.649 323.758 40.3823C324.331 40.1023 324.938 39.9623 325.578 39.9623C327.258 39.9623 328.351 40.5623 328.858 41.7623H328.958C329.318 41.149 329.804 40.6957 330.418 40.4023C331.044 40.109 331.704 39.9623 332.398 39.9623ZM343.469 39.9623C344.389 39.9623 345.176 40.1623 345.829 40.5623C346.496 40.9623 347.002 41.529 347.349 42.2623C347.709 42.9823 347.889 43.829 347.889 44.8023V45.8623H340.549C340.576 47.0757 340.882 48.0023 341.469 48.6423C342.069 49.269 342.902 49.5823 343.969 49.5823C344.649 49.5823 345.249 49.5223 345.769 49.4023C346.302 49.269 346.849 49.0823 347.409 48.8423V50.3823C346.862 50.6223 346.322 50.7957 345.789 50.9023C345.256 51.0223 344.622 51.0823 343.889 51.0823C342.876 51.0823 341.976 50.8757 341.189 50.4623C340.416 50.049 339.809 49.4357 339.369 48.6223C338.942 47.7957 338.729 46.789 338.729 45.6023C338.729 44.429 338.922 43.4223 339.309 42.5823C339.709 41.7423 340.262 41.0957 340.969 40.6423C341.689 40.189 342.522 39.9623 343.469 39.9623ZM343.449 41.4023C342.609 41.4023 341.942 41.6757 341.449 42.2223C340.969 42.7557 340.682 43.5023 340.589 44.4623H346.049C346.036 43.5557 345.822 42.8223 345.409 42.2623C344.996 41.689 344.342 41.4023 343.449 41.4023ZM357.598 47.9223C357.598 48.9623 357.211 49.749 356.438 50.2823C355.665 50.8157 354.625 51.0823 353.318 51.0823C352.571 51.0823 351.925 51.0223 351.378 50.9023C350.845 50.7823 350.371 50.6157 349.958 50.4023V48.8023C350.385 49.0157 350.898 49.2157 351.498 49.4023C352.111 49.5757 352.731 49.6623 353.358 49.6623C354.251 49.6623 354.898 49.5223 355.298 49.2423C355.698 48.949 355.898 48.5623 355.898 48.0823C355.898 47.8157 355.825 47.5757 355.678 47.3623C355.531 47.149 355.265 46.9357 354.878 46.7223C354.505 46.509 353.965 46.269 353.258 46.0023C352.565 45.7357 351.971 45.469 351.478 45.2023C350.985 44.9357 350.605 44.6157 350.338 44.2423C350.071 43.869 349.938 43.389 349.938 42.8023C349.938 41.8957 350.305 41.1957 351.038 40.7023C351.785 40.209 352.758 39.9623 353.958 39.9623C354.611 39.9623 355.218 40.029 355.778 40.1623C356.351 40.2823 356.885 40.4557 357.378 40.6823L356.778 42.0823C356.325 41.8957 355.851 41.7357 355.358 41.6023C354.865 41.469 354.358 41.4023 353.838 41.4023C353.118 41.4023 352.565 41.5223 352.178 41.7623C351.805 41.989 351.618 42.3023 351.618 42.7023C351.618 42.9957 351.705 43.249 351.878 43.4623C352.051 43.6623 352.338 43.8623 352.738 44.0623C353.151 44.249 353.698 44.4757 354.378 44.7423C355.058 44.9957 355.638 45.2557 356.118 45.5223C356.598 45.789 356.965 46.1157 357.218 46.5023C357.471 46.8757 357.598 47.349 357.598 47.9223ZM367.168 47.9223C367.168 48.9623 366.782 49.749 366.008 50.2823C365.235 50.8157 364.195 51.0823 362.888 51.0823C362.142 51.0823 361.495 51.0223 360.948 50.9023C360.415 50.7823 359.942 50.6157 359.528 50.4023V48.8023C359.955 49.0157 360.468 49.2157 361.068 49.4023C361.682 49.5757 362.302 49.6623 362.928 49.6623C363.822 49.6623 364.468 49.5223 364.868 49.2423C365.268 48.949 365.468 48.5623 365.468 48.0823C365.468 47.8157 365.395 47.5757 365.248 47.3623C365.102 47.149 364.835 46.9357 364.448 46.7223C364.075 46.509 363.535 46.269 362.828 46.0023C362.135 45.7357 361.542 45.469 361.048 45.2023C360.555 44.9357 360.175 44.6157 359.908 44.2423C359.642 43.869 359.508 43.389 359.508 42.8023C359.508 41.8957 359.875 41.1957 360.608 40.7023C361.355 40.209 362.328 39.9623 363.528 39.9623C364.182 39.9623 364.788 40.029 365.348 40.1623C365.922 40.2823 366.455 40.4557 366.948 40.6823L366.348 42.0823C365.895 41.8957 365.422 41.7357 364.928 41.6023C364.435 41.469 363.928 41.4023 363.408 41.4023C362.688 41.4023 362.135 41.5223 361.748 41.7623C361.375 41.989 361.188 42.3023 361.188 42.7023C361.188 42.9957 361.275 43.249 361.448 43.4623C361.622 43.6623 361.908 43.8623 362.308 44.0623C362.722 44.249 363.268 44.4757 363.948 44.7423C364.628 44.9957 365.208 45.2557 365.688 45.5223C366.168 45.789 366.535 46.1157 366.788 46.5023C367.042 46.8757 367.168 47.349 367.168 47.9223ZM373.819 39.9823C375.125 39.9823 376.092 40.269 376.719 40.8423C377.345 41.4157 377.659 42.329 377.659 43.5823V50.8823H376.379L376.039 49.3623H375.959C375.492 49.949 374.999 50.3823 374.479 50.6623C373.972 50.9423 373.265 51.0823 372.359 51.0823C371.385 51.0823 370.579 50.829 369.939 50.3223C369.299 49.8023 368.979 48.9957 368.979 47.9023C368.979 46.8357 369.399 46.0157 370.239 45.4423C371.079 44.8557 372.372 44.5357 374.119 44.4823L375.939 44.4223V43.7823C375.939 42.889 375.745 42.269 375.359 41.9223C374.972 41.5757 374.425 41.4023 373.719 41.4023C373.159 41.4023 372.625 41.489 372.119 41.6623C371.612 41.8223 371.139 42.009 370.699 42.2223L370.159 40.9023C370.625 40.649 371.179 40.4357 371.819 40.2623C372.459 40.0757 373.125 39.9823 373.819 39.9823ZM374.339 45.7023C373.005 45.7557 372.079 45.969 371.559 46.3423C371.052 46.7157 370.799 47.2423 370.799 47.9223C370.799 48.5223 370.979 48.9623 371.339 49.2423C371.712 49.5223 372.185 49.6623 372.759 49.6623C373.665 49.6623 374.419 49.4157 375.019 48.9223C375.619 48.4157 375.919 47.6423 375.919 46.6023V45.6423L374.339 45.7023ZM384.77 39.9623C385.476 39.9623 386.11 40.0957 386.67 40.3623C387.243 40.629 387.73 41.0357 388.13 41.5823H388.23L388.47 40.1623H389.87V51.0623C389.87 52.5957 389.476 53.749 388.69 54.5223C387.916 55.2957 386.71 55.6823 385.07 55.6823C383.496 55.6823 382.21 55.4557 381.21 55.0023V53.3823C382.263 53.9423 383.583 54.2223 385.17 54.2223C386.09 54.2223 386.81 53.949 387.33 53.4023C387.863 52.869 388.13 52.1357 388.13 51.2023V50.7823C388.13 50.6223 388.136 50.3957 388.15 50.1023C388.163 49.7957 388.176 49.5823 388.19 49.4623H388.11C387.39 50.5423 386.283 51.0823 384.79 51.0823C383.403 51.0823 382.316 50.5957 381.53 49.6223C380.756 48.649 380.37 47.289 380.37 45.5423C380.37 43.8357 380.756 42.4823 381.53 41.4823C382.316 40.469 383.396 39.9623 384.77 39.9623ZM385.01 41.4423C384.116 41.4423 383.423 41.8023 382.93 42.5223C382.436 43.229 382.19 44.2423 382.19 45.5623C382.19 46.8823 382.43 47.8957 382.91 48.6023C383.403 49.2957 384.116 49.6423 385.05 49.6423C386.13 49.6423 386.916 49.3557 387.41 48.7823C387.903 48.1957 388.15 47.2557 388.15 45.9623V45.5423C388.15 44.0757 387.896 43.029 387.39 42.4023C386.883 41.7623 386.09 41.4423 385.01 41.4423ZM397.414 39.9623C398.334 39.9623 399.121 40.1623 399.774 40.5623C400.441 40.9623 400.948 41.529 401.294 42.2623C401.654 42.9823 401.834 43.829 401.834 44.8023V45.8623H394.494C394.521 47.0757 394.828 48.0023 395.414 48.6423C396.014 49.269 396.848 49.5823 397.914 49.5823C398.594 49.5823 399.194 49.5223 399.714 49.4023C400.248 49.269 400.794 49.0823 401.354 48.8423V50.3823C400.808 50.6223 400.268 50.7957 399.734 50.9023C399.201 51.0223 398.568 51.0823 397.834 51.0823C396.821 51.0823 395.921 50.8757 395.134 50.4623C394.361 50.049 393.754 49.4357 393.314 48.6223C392.888 47.7957 392.674 46.789 392.674 45.6023C392.674 44.429 392.868 43.4223 393.254 42.5823C393.654 41.7423 394.208 41.0957 394.914 40.6423C395.634 40.189 396.468 39.9623 397.414 39.9623ZM397.394 41.4023C396.554 41.4023 395.888 41.6757 395.394 42.2223C394.914 42.7557 394.628 43.5023 394.534 44.4623H399.994C399.981 43.5557 399.768 42.8223 399.354 42.2623C398.941 41.689 398.288 41.4023 397.394 41.4023ZM404.303 49.8023C404.303 49.309 404.423 48.9623 404.663 48.7623C404.903 48.5623 405.19 48.4623 405.523 48.4623C405.87 48.4623 406.163 48.5623 406.403 48.7623C406.657 48.9623 406.783 49.309 406.783 49.8023C406.783 50.2823 406.657 50.629 406.403 50.8423C406.163 51.0557 405.87 51.1623 405.523 51.1623C405.19 51.1623 404.903 51.0557 404.663 50.8423C404.423 50.629 404.303 50.2823 404.303 49.8023Z" fill="#43474E"/>
<rect x="49" y="67.8823" width="457" height="143" rx="2" fill="white"/>
<rect x="49" y="67.8823" width="457" height="143" rx="2" stroke="#333333" stroke-width="2"/>
<g clip-path="url(#clip1_6137_44877)">
<rect y="43.8823" width="44" height="1" fill="#C54600"/>
<g clip-path="url(#clip2_6137_44877)">
<rect y="31.8823" width="24" height="24" rx="12" fill="#C54600"/>
<path d="M8.4161 48.8823V47.3312L12.0404 43.9754C12.3486 43.6771 12.6072 43.4086 12.816 43.17C13.0281 42.9313 13.1888 42.6977 13.2982 42.469C13.4076 42.237 13.4623 41.9867 13.4623 41.7183C13.4623 41.42 13.3943 41.1631 13.2584 40.9477C13.1225 40.7289 12.9369 40.5615 12.7016 40.4455C12.4663 40.3262 12.1995 40.2666 11.9012 40.2666C11.5896 40.2666 11.3179 40.3295 11.0858 40.4555C10.8538 40.5814 10.6749 40.7621 10.5489 40.9974C10.423 41.2327 10.36 41.5128 10.36 41.8376H8.31667C8.31667 41.1714 8.46748 40.593 8.76909 40.1025C9.0707 39.612 9.49328 39.2325 10.0368 38.964C10.5804 38.6955 11.2068 38.5613 11.9161 38.5613C12.6453 38.5613 13.28 38.6906 13.8202 38.9491C14.3638 39.2043 14.7864 39.5589 15.088 40.013C15.3896 40.4671 15.5404 40.9874 15.5404 41.5741C15.5404 41.9586 15.4642 42.3381 15.3117 42.7126C15.1626 43.0871 14.8957 43.5031 14.5113 43.9604C14.1268 44.4145 13.5849 44.9597 12.8856 45.5961L11.3991 47.0528V47.1224H15.6746V48.8823H8.4161Z" fill="white"/>
</g>
</g>
<g clip-path="url(#clip3_6137_44877)">
<rect y="12.8823" width="44" height="1" fill="#C54600"/>
<g clip-path="url(#clip4_6137_44877)">
<rect y="0.882263" width="24" height="24" rx="12" fill="#C54600"/>
<path d="M13.8302 7.70044V17.8823H11.6775V9.74377H11.6178L9.28613 11.2054V9.29633L11.8067 7.70044H13.8302Z" fill="white"/>
</g>
</g>
<g clip-path="url(#clip5_6137_44877)">
<rect y="135.382" width="48" height="1" fill="#C54600"/>
<g clip-path="url(#clip6_6137_44877)">
<rect y="123.382" width="24" height="24" rx="12" fill="#C54600"/>
<path d="M11.9745 140.522C11.2321 140.522 10.5709 140.394 9.99086 140.139C9.41415 139.88 8.95842 139.526 8.62367 139.075C8.29223 138.621 8.12154 138.097 8.11159 137.504H10.2792C10.2925 137.752 10.3737 137.971 10.5228 138.16C10.6753 138.346 10.8775 138.49 11.1294 138.593C11.3812 138.695 11.6646 138.747 11.9795 138.747C12.3076 138.747 12.5976 138.689 12.8495 138.573C13.1014 138.457 13.2986 138.296 13.4411 138.09C13.5837 137.885 13.6549 137.648 13.6549 137.379C13.6549 137.108 13.5787 136.867 13.4262 136.659C13.2771 136.446 13.0616 136.281 12.7799 136.161C12.5015 136.042 12.1701 135.982 11.7856 135.982H10.836V134.402H11.7856C12.1104 134.402 12.3971 134.345 12.6457 134.232C12.8976 134.12 13.0931 133.964 13.2323 133.765C13.3715 133.563 13.4411 133.328 13.4411 133.059C13.4411 132.804 13.3798 132.58 13.2572 132.388C13.1379 132.192 12.9688 132.04 12.7501 131.931C12.5347 131.821 12.2828 131.767 11.9944 131.767C11.7027 131.767 11.4359 131.82 11.194 131.926C10.952 132.028 10.7581 132.176 10.6123 132.368C10.4665 132.56 10.3886 132.786 10.3786 133.044H8.31543C8.32537 132.458 8.49275 131.941 8.81756 131.493C9.14237 131.046 9.57987 130.696 10.1301 130.444C10.6836 130.189 11.3083 130.061 12.0044 130.061C12.707 130.061 13.3218 130.189 13.8488 130.444C14.3758 130.699 14.7851 131.044 15.0768 131.478C15.3718 131.909 15.5176 132.393 15.5143 132.93C15.5176 133.5 15.3403 133.976 14.9823 134.357C14.6277 134.738 14.1653 134.98 13.5953 135.083V135.162C14.3443 135.258 14.9144 135.518 15.3055 135.943C15.6999 136.364 15.8954 136.891 15.8921 137.524C15.8954 138.104 15.7281 138.619 15.39 139.07C15.0553 139.521 14.5929 139.875 14.0029 140.134C13.413 140.392 12.7368 140.522 11.9745 140.522Z" fill="white"/>
</g>
</g>
<defs>
<clipPath id="clip0_6137_44877">
<rect width="459" height="24" fill="white" transform="translate(48 0.882263)"/>
</clipPath>
<clipPath id="clip1_6137_44877">
<rect width="44" height="24" fill="white" transform="translate(0 31.8823)"/>
</clipPath>
<clipPath id="clip2_6137_44877">
<rect y="31.8823" width="24" height="24" rx="12" fill="white"/>
</clipPath>
<clipPath id="clip3_6137_44877">
<rect width="44" height="24" fill="white" transform="translate(0 0.882263)"/>
</clipPath>
<clipPath id="clip4_6137_44877">
<rect y="0.882263" width="24" height="24" rx="12" fill="white"/>
</clipPath>
<clipPath id="clip5_6137_44877">
<rect width="48" height="24" fill="white" transform="translate(0 123.382)"/>
</clipPath>
<clipPath id="clip6_6137_44877">
<rect y="123.382" width="24" height="24" rx="12" fill="white"/>
</clipPath>
</defs>
</svg>
