<svg width="588" height="256" viewBox="0 0 588 256" fill="none" xmlns="http://www.w3.org/2000/svg">
<path d="M81.3 42V27.72H84.32V39.5H90.12V42H81.3ZM96.8686 30.88C98.3753 30.88 99.5686 31.3133 100.449 32.18C101.329 33.0333 101.769 34.2533 101.769 35.84V37.28H94.7286C94.7553 38.12 95.0019 38.78 95.4686 39.26C95.9486 39.74 96.6086 39.98 97.4486 39.98C98.1553 39.98 98.7953 39.9133 99.3686 39.78C99.9419 39.6333 100.535 39.4133 101.149 39.12V41.42C100.615 41.6867 100.049 41.88 99.4486 42C98.8619 42.1333 98.1486 42.2 97.3086 42.2C96.2153 42.2 95.2486 42 94.4086 41.6C93.5686 41.1867 92.9086 40.5667 92.4286 39.74C91.9486 38.9133 91.7086 37.8733 91.7086 36.62C91.7086 35.34 91.9219 34.28 92.3486 33.44C92.7886 32.5867 93.3953 31.9467 94.1686 31.52C94.9419 31.0933 95.8419 30.88 96.8686 30.88ZM96.8886 33C96.3153 33 95.8353 33.1867 95.4486 33.56C95.0753 33.9333 94.8553 34.5133 94.7886 35.3H98.9686C98.9553 34.6333 98.7819 34.0867 98.4486 33.66C98.1153 33.22 97.5953 33 96.8886 33ZM100.949 26.88C100.762 27.0667 100.515 27.2933 100.209 27.56C99.9019 27.8267 99.5686 28.1067 99.2086 28.4C98.8619 28.6933 98.5153 28.9733 98.1686 29.24C97.8353 29.4933 97.5419 29.7067 97.2886 29.88H95.3086V29.62C95.5219 29.3667 95.7686 29.0733 96.0486 28.74C96.3419 28.3933 96.6286 28.04 96.9086 27.68C97.1886 27.3067 97.4219 26.9733 97.6086 26.68H100.949V26.88ZM107.725 30.88C109.072 30.88 110.125 31.4133 110.885 32.48H110.965L111.205 31.08H113.725V42.02C113.725 43.58 113.265 44.7667 112.345 45.58C111.425 46.3933 110.065 46.8 108.265 46.8C107.492 46.8 106.772 46.7533 106.105 46.66C105.452 46.5667 104.812 46.4 104.185 46.16V43.78C105.532 44.34 106.952 44.62 108.445 44.62C109.978 44.62 110.745 43.7933 110.745 42.14V41.92C110.745 41.6933 110.752 41.46 110.765 41.22C110.792 40.98 110.812 40.7667 110.825 40.58H110.745C110.372 41.1533 109.925 41.5667 109.405 41.82C108.885 42.0733 108.298 42.2 107.645 42.2C106.352 42.2 105.338 41.7067 104.605 40.72C103.885 39.72 103.525 38.3333 103.525 36.56C103.525 34.7733 103.898 33.38 104.645 32.38C105.392 31.38 106.418 30.88 107.725 30.88ZM108.665 33.3C107.265 33.3 106.565 34.4 106.565 36.6C106.565 38.7733 107.278 39.86 108.705 39.86C109.465 39.86 110.025 39.6467 110.385 39.22C110.758 38.78 110.945 38.02 110.945 36.94V36.58C110.945 35.4067 110.765 34.5667 110.405 34.06C110.045 33.5533 109.465 33.3 108.665 33.3ZM121.341 30.88C122.848 30.88 124.041 31.3133 124.921 32.18C125.801 33.0333 126.241 34.2533 126.241 35.84V37.28H119.201C119.228 38.12 119.475 38.78 119.941 39.26C120.421 39.74 121.081 39.98 121.921 39.98C122.628 39.98 123.268 39.9133 123.841 39.78C124.415 39.6333 125.008 39.4133 125.621 39.12V41.42C125.088 41.6867 124.521 41.88 123.921 42C123.335 42.1333 122.621 42.2 121.781 42.2C120.688 42.2 119.721 42 118.881 41.6C118.041 41.1867 117.381 40.5667 116.901 39.74C116.421 38.9133 116.181 37.8733 116.181 36.62C116.181 35.34 116.395 34.28 116.821 33.44C117.261 32.5867 117.868 31.9467 118.641 31.52C119.415 31.0933 120.315 30.88 121.341 30.88ZM121.361 33C120.788 33 120.308 33.1867 119.921 33.56C119.548 33.9333 119.328 34.5133 119.261 35.3H123.441C123.428 34.6333 123.255 34.0867 122.921 33.66C122.588 33.22 122.068 33 121.361 33ZM134.858 30.88C136.031 30.88 136.971 31.2 137.678 31.84C138.384 32.4667 138.738 33.48 138.738 34.88V42H135.758V35.62C135.758 34.8333 135.618 34.2467 135.338 33.86C135.058 33.46 134.611 33.26 133.998 33.26C133.091 33.26 132.471 33.5733 132.138 34.2C131.804 34.8133 131.638 35.7 131.638 36.86V42H128.658V31.08H130.938L131.338 32.48H131.498C131.844 31.92 132.318 31.5133 132.918 31.26C133.531 31.0067 134.178 30.88 134.858 30.88ZM145.262 42.2C144.049 42.2 143.056 41.7267 142.282 40.78C141.522 39.82 141.142 38.4133 141.142 36.56C141.142 34.6933 141.529 33.28 142.302 32.32C143.076 31.36 144.089 30.88 145.342 30.88C146.129 30.88 146.776 31.0333 147.282 31.34C147.789 31.6467 148.189 32.0267 148.482 32.48H148.582C148.542 32.2667 148.496 31.96 148.442 31.56C148.389 31.1467 148.362 30.7267 148.362 30.3V26.8H151.342V42H149.062L148.482 40.58H148.362C148.069 41.0333 147.676 41.42 147.182 41.74C146.689 42.0467 146.049 42.2 145.262 42.2ZM146.302 39.82C147.129 39.82 147.709 39.58 148.042 39.1C148.376 38.6067 148.549 37.8733 148.562 36.9V36.58C148.562 35.5133 148.396 34.7 148.062 34.14C147.742 33.58 147.142 33.3 146.262 33.3C145.609 33.3 145.096 33.5867 144.722 34.16C144.349 34.72 144.162 35.5333 144.162 36.6C144.162 37.6667 144.349 38.4733 144.722 39.02C145.096 39.5533 145.622 39.82 146.302 39.82ZM158.958 30.88C160.465 30.88 161.658 31.3133 162.538 32.18C163.418 33.0333 163.858 34.2533 163.858 35.84V37.28H156.818C156.845 38.12 157.092 38.78 157.558 39.26C158.038 39.74 158.698 39.98 159.538 39.98C160.245 39.98 160.885 39.9133 161.458 39.78C162.032 39.6333 162.625 39.4133 163.238 39.12V41.42C162.705 41.6867 162.138 41.88 161.538 42C160.952 42.1333 160.238 42.2 159.398 42.2C158.305 42.2 157.338 42 156.498 41.6C155.658 41.1867 154.998 40.5667 154.518 39.74C154.038 38.9133 153.798 37.8733 153.798 36.62C153.798 35.34 154.012 34.28 154.438 33.44C154.878 32.5867 155.485 31.9467 156.258 31.52C157.032 31.0933 157.932 30.88 158.958 30.88ZM158.978 33C158.405 33 157.925 33.1867 157.538 33.56C157.165 33.9333 156.945 34.5133 156.878 35.3H161.058C161.045 34.6333 160.872 34.0867 160.538 33.66C160.205 33.22 159.685 33 158.978 33Z" fill="#333333"/>
<path d="M174.3 36.52C174.3 34.8933 174.533 33.3267 175 31.82C175.48 30.3 176.227 28.9333 177.24 27.72H178.9C177.967 28.9733 177.26 30.3533 176.78 31.86C176.313 33.3667 176.08 34.9133 176.08 36.5C176.08 38.0467 176.313 39.5667 176.78 41.06C177.26 42.54 177.96 43.9067 178.88 45.16H177.24C176.227 43.9867 175.48 42.66 175 41.18C174.533 39.6867 174.3 38.1333 174.3 36.52ZM190.516 36.62C190.516 38.3933 190.063 39.7667 189.156 40.74C188.263 41.7133 187.049 42.2 185.516 42.2C184.569 42.2 183.723 41.9867 182.976 41.56C182.243 41.12 181.663 40.4867 181.236 39.66C180.809 38.82 180.596 37.8067 180.596 36.62C180.596 34.8467 181.043 33.48 181.936 32.52C182.829 31.56 184.043 31.08 185.576 31.08C186.549 31.08 187.403 31.3 188.136 31.74C188.883 32.1667 189.463 32.7933 189.876 33.62C190.303 34.4333 190.516 35.4333 190.516 36.62ZM182.416 36.62C182.416 37.8867 182.663 38.8933 183.156 39.64C183.663 40.3733 184.463 40.74 185.556 40.74C186.636 40.74 187.429 40.3733 187.936 39.64C188.443 38.8933 188.696 37.8867 188.696 36.62C188.696 35.3533 188.443 34.36 187.936 33.64C187.429 32.92 186.629 32.56 185.536 32.56C184.443 32.56 183.649 32.92 183.156 33.64C182.663 34.36 182.416 35.3533 182.416 36.62ZM195.065 30.5C195.065 30.9533 195.052 31.38 195.025 31.78C195.012 32.1667 194.992 32.4733 194.965 32.7H195.065C195.372 32.2467 195.792 31.8667 196.325 31.56C196.859 31.2533 197.545 31.1 198.385 31.1C199.719 31.1 200.785 31.5667 201.585 32.5C202.399 33.42 202.805 34.8 202.805 36.64C202.805 38.48 202.399 39.8667 201.585 40.8C200.772 41.7333 199.705 42.2 198.385 42.2C197.545 42.2 196.859 42.0467 196.325 41.74C195.792 41.4333 195.372 41.0667 195.065 40.64H194.925L194.565 42H193.305V26.8H195.065V30.5ZM198.085 32.56C196.952 32.56 196.165 32.8867 195.725 33.54C195.285 34.1933 195.065 35.2067 195.065 36.58V36.66C195.065 37.98 195.279 38.9933 195.705 39.7C196.145 40.3933 196.952 40.74 198.125 40.74C199.085 40.74 199.799 40.3867 200.265 39.68C200.745 38.9733 200.985 37.9533 200.985 36.62C200.985 33.9133 200.019 32.56 198.085 32.56ZM207.37 42H205.61V26.8H207.37V42ZM211.666 27.26C211.933 27.26 212.166 27.3533 212.366 27.54C212.58 27.7133 212.686 27.9933 212.686 28.38C212.686 28.7533 212.58 29.0333 212.366 29.22C212.166 29.4067 211.933 29.5 211.666 29.5C211.373 29.5 211.126 29.4067 210.926 29.22C210.726 29.0333 210.626 28.7533 210.626 28.38C210.626 27.9933 210.726 27.7133 210.926 27.54C211.126 27.3533 211.373 27.26 211.666 27.26ZM212.526 31.28V42H210.766V31.28H212.526ZM219.723 31.08C220.429 31.08 221.063 31.2133 221.623 31.48C222.196 31.7467 222.683 32.1533 223.083 32.7H223.183L223.423 31.28H224.823V42.18C224.823 43.7133 224.429 44.8667 223.643 45.64C222.869 46.4133 221.663 46.8 220.023 46.8C218.449 46.8 217.163 46.5733 216.163 46.12V44.5C217.216 45.06 218.536 45.34 220.123 45.34C221.043 45.34 221.763 45.0667 222.283 44.52C222.816 43.9867 223.083 43.2533 223.083 42.32V41.9C223.083 41.74 223.089 41.5133 223.103 41.22C223.116 40.9133 223.129 40.7 223.143 40.58H223.063C222.343 41.66 221.236 42.2 219.743 42.2C218.356 42.2 217.269 41.7133 216.483 40.74C215.709 39.7667 215.323 38.4067 215.323 36.66C215.323 34.9533 215.709 33.6 216.483 32.6C217.269 31.5867 218.349 31.08 219.723 31.08ZM219.963 32.56C219.069 32.56 218.376 32.92 217.883 33.64C217.389 34.3467 217.143 35.36 217.143 36.68C217.143 38 217.383 39.0133 217.863 39.72C218.356 40.4133 219.069 40.76 220.003 40.76C221.083 40.76 221.869 40.4733 222.363 39.9C222.856 39.3133 223.103 38.3733 223.103 37.08V36.66C223.103 35.1933 222.849 34.1467 222.343 33.52C221.836 32.88 221.043 32.56 219.963 32.56ZM232.287 31.1C233.594 31.1 234.561 31.3867 235.187 31.96C235.814 32.5333 236.127 33.4467 236.127 34.7V42H234.847L234.507 40.48H234.427C233.961 41.0667 233.467 41.5 232.947 41.78C232.441 42.06 231.734 42.2 230.827 42.2C229.854 42.2 229.047 41.9467 228.407 41.44C227.767 40.92 227.447 40.1133 227.447 39.02C227.447 37.9533 227.867 37.1333 228.707 36.56C229.547 35.9733 230.841 35.6533 232.587 35.6L234.407 35.54V34.9C234.407 34.0067 234.214 33.3867 233.827 33.04C233.441 32.6933 232.894 32.52 232.187 32.52C231.627 32.52 231.094 32.6067 230.587 32.78C230.081 32.94 229.607 33.1267 229.167 33.34L228.627 32.02C229.094 31.7667 229.647 31.5533 230.287 31.38C230.927 31.1933 231.594 31.1 232.287 31.1ZM232.807 36.82C231.474 36.8733 230.547 37.0867 230.027 37.46C229.521 37.8333 229.267 38.36 229.267 39.04C229.267 39.64 229.447 40.08 229.807 40.36C230.181 40.64 230.654 40.78 231.227 40.78C232.134 40.78 232.887 40.5333 233.487 40.04C234.087 39.5333 234.387 38.76 234.387 37.72V36.76L232.807 36.82ZM243.018 40.76C243.285 40.76 243.558 40.74 243.838 40.7C244.118 40.6467 244.345 40.5933 244.518 40.54V41.88C244.332 41.9733 244.065 42.0467 243.718 42.1C243.372 42.1667 243.038 42.2 242.718 42.2C242.158 42.2 241.638 42.1067 241.158 41.92C240.692 41.72 240.312 41.38 240.018 40.9C239.725 40.42 239.578 39.7467 239.578 38.88V32.64H238.058V31.8L239.598 31.1L240.298 28.82H241.338V31.28H244.438V32.64H241.338V38.84C241.338 39.4933 241.492 39.98 241.798 40.3C242.118 40.6067 242.525 40.76 243.018 40.76ZM255.985 36.62C255.985 38.3933 255.532 39.7667 254.625 40.74C253.732 41.7133 252.518 42.2 250.985 42.2C250.038 42.2 249.192 41.9867 248.445 41.56C247.712 41.12 247.132 40.4867 246.705 39.66C246.278 38.82 246.065 37.8067 246.065 36.62C246.065 34.8467 246.512 33.48 247.405 32.52C248.298 31.56 249.512 31.08 251.045 31.08C252.018 31.08 252.872 31.3 253.605 31.74C254.352 32.1667 254.932 32.7933 255.345 33.62C255.772 34.4333 255.985 35.4333 255.985 36.62ZM247.885 36.62C247.885 37.8867 248.132 38.8933 248.625 39.64C249.132 40.3733 249.932 40.74 251.025 40.74C252.105 40.74 252.898 40.3733 253.405 39.64C253.912 38.8933 254.165 37.8867 254.165 36.62C254.165 35.3533 253.912 34.36 253.405 33.64C252.898 32.92 252.098 32.56 251.005 32.56C249.912 32.56 249.118 32.92 248.625 33.64C248.132 34.36 247.885 35.3533 247.885 36.62ZM259.674 27.26C259.941 27.26 260.174 27.3533 260.374 27.54C260.588 27.7133 260.694 27.9933 260.694 28.38C260.694 28.7533 260.588 29.0333 260.374 29.22C260.174 29.4067 259.941 29.5 259.674 29.5C259.381 29.5 259.134 29.4067 258.934 29.22C258.734 29.0333 258.634 28.7533 258.634 28.38C258.634 27.9933 258.734 27.7133 258.934 27.54C259.134 27.3533 259.381 27.26 259.674 27.26ZM260.534 31.28V42H258.774V31.28H260.534ZM268.93 31.08C269.13 31.08 269.344 31.0933 269.57 31.12C269.81 31.1333 270.017 31.16 270.19 31.2L269.97 32.82C269.797 32.78 269.604 32.7467 269.39 32.72C269.19 32.6933 268.997 32.68 268.81 32.68C268.264 32.68 267.75 32.8333 267.27 33.14C266.79 33.4333 266.404 33.8533 266.11 34.4C265.83 34.9333 265.69 35.56 265.69 36.28V42H263.93V31.28H265.37L265.57 33.24H265.65C265.997 32.6533 266.444 32.1467 266.99 31.72C267.537 31.2933 268.184 31.08 268.93 31.08ZM275.942 31.08C276.862 31.08 277.648 31.28 278.302 31.68C278.968 32.08 279.475 32.6467 279.822 33.38C280.182 34.1 280.362 34.9467 280.362 35.92V36.98H273.022C273.048 38.1933 273.355 39.12 273.942 39.76C274.542 40.3867 275.375 40.7 276.442 40.7C277.122 40.7 277.722 40.64 278.242 40.52C278.775 40.3867 279.322 40.2 279.882 39.96V41.5C279.335 41.74 278.795 41.9133 278.262 42.02C277.728 42.14 277.095 42.2 276.362 42.2C275.348 42.2 274.448 41.9933 273.662 41.58C272.888 41.1667 272.282 40.5533 271.842 39.74C271.415 38.9133 271.202 37.9067 271.202 36.72C271.202 35.5467 271.395 34.54 271.782 33.7C272.182 32.86 272.735 32.2133 273.442 31.76C274.162 31.3067 274.995 31.08 275.942 31.08ZM275.922 32.52C275.082 32.52 274.415 32.7933 273.922 33.34C273.442 33.8733 273.155 34.62 273.062 35.58H278.522C278.508 34.6733 278.295 33.94 277.882 33.38C277.468 32.8067 276.815 32.52 275.922 32.52ZM286.591 36.52C286.591 38.1333 286.351 39.6867 285.871 41.18C285.404 42.66 284.664 43.9867 283.651 45.16H282.011C282.931 43.9067 283.624 42.54 284.091 41.06C284.571 39.5667 284.811 38.0467 284.811 36.5C284.811 34.9133 284.571 33.3667 284.091 31.86C283.624 30.3533 282.924 28.9733 281.991 27.72H283.651C284.664 28.9333 285.404 30.3 285.871 31.82C286.351 33.3267 286.591 34.8933 286.591 36.52Z" fill="#333333"/>
<path d="M85.96 74H84.16V61.3H79.7V59.72H90.4V61.3H85.96V74ZM95.047 63.08C95.967 63.08 96.7537 63.28 97.407 63.68C98.0737 64.08 98.5804 64.6467 98.927 65.38C99.287 66.1 99.467 66.9467 99.467 67.92V68.98H92.127C92.1537 70.1933 92.4604 71.12 93.047 71.76C93.647 72.3867 94.4804 72.7 95.547 72.7C96.227 72.7 96.827 72.64 97.347 72.52C97.8804 72.3867 98.427 72.2 98.987 71.96V73.5C98.4404 73.74 97.9004 73.9133 97.367 74.02C96.8337 74.14 96.2004 74.2 95.467 74.2C94.4537 74.2 93.5537 73.9933 92.767 73.58C91.9937 73.1667 91.387 72.5533 90.947 71.74C90.5204 70.9133 90.307 69.9067 90.307 68.72C90.307 67.5467 90.5004 66.54 90.887 65.7C91.287 64.86 91.8404 64.2133 92.547 63.76C93.267 63.3067 94.1004 63.08 95.047 63.08ZM95.027 64.52C94.187 64.52 93.5204 64.7933 93.027 65.34C92.547 65.8733 92.2604 66.62 92.167 67.58H97.627C97.6137 66.6733 97.4004 65.94 96.987 65.38C96.5737 64.8067 95.9204 64.52 95.027 64.52ZM104.345 68.52L100.645 63.28H102.645L105.405 67.32L108.145 63.28H110.125L106.425 68.52L110.325 74H108.325L105.405 69.72L102.445 74H100.465L104.345 68.52ZM115.971 72.76C116.238 72.76 116.511 72.74 116.791 72.7C117.071 72.6467 117.298 72.5933 117.471 72.54V73.88C117.285 73.9733 117.018 74.0467 116.671 74.1C116.325 74.1667 115.991 74.2 115.671 74.2C115.111 74.2 114.591 74.1067 114.111 73.92C113.645 73.72 113.265 73.38 112.971 72.9C112.678 72.42 112.531 71.7467 112.531 70.88V64.64H111.011V63.8L112.551 63.1L113.251 60.82H114.291V63.28H117.391V64.64H114.291V70.84C114.291 71.4933 114.445 71.98 114.751 72.3C115.071 72.6067 115.478 72.76 115.971 72.76ZM123.758 63.08C124.678 63.08 125.465 63.28 126.118 63.68C126.785 64.08 127.291 64.6467 127.638 65.38C127.998 66.1 128.178 66.9467 128.178 67.92V68.98H120.838C120.865 70.1933 121.171 71.12 121.758 71.76C122.358 72.3867 123.191 72.7 124.258 72.7C124.938 72.7 125.538 72.64 126.058 72.52C126.591 72.3867 127.138 72.2 127.698 71.96V73.5C127.151 73.74 126.611 73.9133 126.078 74.02C125.545 74.14 124.911 74.2 124.178 74.2C123.165 74.2 122.265 73.9933 121.478 73.58C120.705 73.1667 120.098 72.5533 119.658 71.74C119.231 70.9133 119.018 69.9067 119.018 68.72C119.018 67.5467 119.211 66.54 119.598 65.7C119.998 64.86 120.551 64.2133 121.258 63.76C121.978 63.3067 122.811 63.08 123.758 63.08ZM123.738 64.52C122.898 64.52 122.231 64.7933 121.738 65.34C121.258 65.8733 120.971 66.62 120.878 67.58H126.338C126.325 66.6733 126.111 65.94 125.698 65.38C125.285 64.8067 124.631 64.52 123.738 64.52ZM140.242 63.08C141.162 63.08 141.949 63.28 142.602 63.68C143.269 64.08 143.776 64.6467 144.122 65.38C144.482 66.1 144.662 66.9467 144.662 67.92V68.98H137.322C137.349 70.1933 137.656 71.12 138.242 71.76C138.842 72.3867 139.676 72.7 140.742 72.7C141.422 72.7 142.022 72.64 142.542 72.52C143.076 72.3867 143.622 72.2 144.182 71.96V73.5C143.636 73.74 143.096 73.9133 142.562 74.02C142.029 74.14 141.396 74.2 140.662 74.2C139.649 74.2 138.749 73.9933 137.962 73.58C137.189 73.1667 136.582 72.5533 136.142 71.74C135.716 70.9133 135.502 69.9067 135.502 68.72C135.502 67.5467 135.696 66.54 136.082 65.7C136.482 64.86 137.036 64.2133 137.742 63.76C138.462 63.3067 139.296 63.08 140.242 63.08ZM140.222 64.52C139.382 64.52 138.716 64.7933 138.222 65.34C137.742 65.8733 137.456 66.62 137.362 67.58H142.822C142.809 66.6733 142.596 65.94 142.182 65.38C141.769 64.8067 141.116 64.52 140.222 64.52ZM149.541 68.52L145.841 63.28H147.841L150.601 67.32L153.341 63.28H155.321L151.621 68.52L155.521 74H153.521L150.601 69.72L147.641 74H145.661L149.541 68.52ZM162.687 63.08C164.007 63.08 165.067 63.54 165.867 64.46C166.68 65.38 167.087 66.7667 167.087 68.62C167.087 70.4467 166.68 71.8333 165.867 72.78C165.067 73.7267 164 74.2 162.667 74.2C161.84 74.2 161.153 74.0467 160.607 73.74C160.073 73.42 159.653 73.0533 159.347 72.64H159.227C159.253 72.8667 159.28 73.1533 159.307 73.5C159.333 73.8467 159.347 74.1467 159.347 74.4V78.8H157.587V63.28H159.027L159.267 64.74H159.347C159.667 64.2733 160.087 63.88 160.607 63.56C161.127 63.24 161.82 63.08 162.687 63.08ZM162.367 64.56C161.273 64.56 160.5 64.8667 160.047 65.48C159.607 66.0933 159.373 67.0267 159.347 68.28V68.62C159.347 69.94 159.56 70.96 159.987 71.68C160.427 72.3867 161.233 72.74 162.407 72.74C163.06 72.74 163.593 72.56 164.007 72.2C164.433 71.84 164.747 71.3533 164.947 70.74C165.16 70.1133 165.267 69.4 165.267 68.6C165.267 67.3733 165.027 66.3933 164.547 65.66C164.08 64.9267 163.353 64.56 162.367 64.56ZM171.651 74H169.891V58.8H171.651V74ZM175.948 59.26C176.214 59.26 176.448 59.3533 176.648 59.54C176.861 59.7133 176.968 59.9933 176.968 60.38C176.968 60.7533 176.861 61.0333 176.648 61.22C176.448 61.4067 176.214 61.5 175.948 61.5C175.654 61.5 175.408 61.4067 175.208 61.22C175.008 61.0333 174.908 60.7533 174.908 60.38C174.908 59.9933 175.008 59.7133 175.208 59.54C175.408 59.3533 175.654 59.26 175.948 59.26ZM176.808 63.28V74H175.048V63.28H176.808ZM184.504 74.2C183.557 74.2 182.711 74.0067 181.964 73.62C181.231 73.2333 180.651 72.6333 180.224 71.82C179.811 71.0067 179.604 69.9667 179.604 68.7C179.604 67.38 179.824 66.3067 180.264 65.48C180.704 64.6533 181.297 64.0467 182.044 63.66C182.804 63.2733 183.664 63.08 184.624 63.08C185.171 63.08 185.697 63.14 186.204 63.26C186.711 63.3667 187.124 63.5 187.444 63.66L186.904 65.12C186.584 65 186.211 64.8867 185.784 64.78C185.357 64.6733 184.957 64.62 184.584 64.62C182.477 64.62 181.424 65.9733 181.424 68.68C181.424 69.9733 181.677 70.9667 182.184 71.66C182.704 72.34 183.471 72.68 184.484 72.68C185.071 72.68 185.584 72.62 186.024 72.5C186.477 72.38 186.891 72.2333 187.264 72.06V73.62C186.904 73.8067 186.504 73.9467 186.064 74.04C185.637 74.1467 185.117 74.2 184.504 74.2ZM193.873 63.1C195.18 63.1 196.147 63.3867 196.773 63.96C197.4 64.5333 197.713 65.4467 197.713 66.7V74H196.433L196.093 72.48H196.013C195.547 73.0667 195.053 73.5 194.533 73.78C194.027 74.06 193.32 74.2 192.413 74.2C191.44 74.2 190.633 73.9467 189.993 73.44C189.353 72.92 189.033 72.1133 189.033 71.02C189.033 69.9533 189.453 69.1333 190.293 68.56C191.133 67.9733 192.427 67.6533 194.173 67.6L195.993 67.54V66.9C195.993 66.0067 195.8 65.3867 195.413 65.04C195.027 64.6933 194.48 64.52 193.773 64.52C193.213 64.52 192.68 64.6067 192.173 64.78C191.667 64.94 191.193 65.1267 190.753 65.34L190.213 64.02C190.68 63.7667 191.233 63.5533 191.873 63.38C192.513 63.1933 193.18 63.1 193.873 63.1ZM194.393 68.82C193.06 68.8733 192.133 69.0867 191.613 69.46C191.107 69.8333 190.853 70.36 190.853 71.04C190.853 71.64 191.033 72.08 191.393 72.36C191.767 72.64 192.24 72.78 192.813 72.78C193.72 72.78 194.473 72.5333 195.073 72.04C195.673 71.5333 195.973 70.76 195.973 69.72V68.76L194.393 68.82ZM204.604 72.76C204.871 72.76 205.144 72.74 205.424 72.7C205.704 72.6467 205.931 72.5933 206.104 72.54V73.88C205.918 73.9733 205.651 74.0467 205.304 74.1C204.958 74.1667 204.624 74.2 204.304 74.2C203.744 74.2 203.224 74.1067 202.744 73.92C202.278 73.72 201.898 73.38 201.604 72.9C201.311 72.42 201.164 71.7467 201.164 70.88V64.64H199.644V63.8L201.184 63.1L201.884 60.82H202.924V63.28H206.024V64.64H202.924V70.84C202.924 71.4933 203.078 71.98 203.384 72.3C203.704 72.6067 204.111 72.76 204.604 72.76ZM209.151 59.26C209.417 59.26 209.651 59.3533 209.851 59.54C210.064 59.7133 210.171 59.9933 210.171 60.38C210.171 60.7533 210.064 61.0333 209.851 61.22C209.651 61.4067 209.417 61.5 209.151 61.5C208.857 61.5 208.611 61.4067 208.411 61.22C208.211 61.0333 208.111 60.7533 208.111 60.38C208.111 59.9933 208.211 59.7133 208.411 59.54C208.611 59.3533 208.857 59.26 209.151 59.26ZM210.011 63.28V74H208.251V63.28H210.011ZM218.347 64.64H215.647V74H213.887V64.64H212.007V63.82L213.887 63.22V62.6C213.887 61.2133 214.194 60.22 214.807 59.62C215.42 59.0067 216.274 58.7 217.367 58.7C217.794 58.7 218.18 58.74 218.527 58.82C218.887 58.8867 219.194 58.9667 219.447 59.06L218.987 60.44C218.774 60.3733 218.527 60.3067 218.247 60.24C217.967 60.1733 217.68 60.14 217.387 60.14C216.8 60.14 216.36 60.34 216.067 60.74C215.787 61.1267 215.647 61.74 215.647 62.58V63.28H218.347V64.64Z" fill="#43474E"/>
<path d="M79.52 115.92C79.1867 115.92 78.8933 115.893 78.64 115.84C78.3867 115.8 78.16 115.74 77.96 115.66V113.86C78.1733 113.913 78.4 113.96 78.64 114C78.88 114.04 79.1333 114.06 79.4 114.06C79.7333 114.06 80.0467 113.993 80.34 113.86C80.6467 113.727 80.8867 113.487 81.06 113.14C81.2333 112.793 81.32 112.307 81.32 111.68V97.72H83.48V111.58C83.48 112.58 83.3133 113.4 82.98 114.04C82.66 114.693 82.2 115.167 81.6 115.46C81.0133 115.767 80.32 115.92 79.52 115.92ZM96.4608 106.6C96.4608 107.493 96.3408 108.287 96.1008 108.98C95.8608 109.673 95.5208 110.26 95.0808 110.74C94.6408 111.22 94.1074 111.587 93.4808 111.84C92.8541 112.08 92.1474 112.2 91.3608 112.2C90.6408 112.2 89.9741 112.08 89.3608 111.84C88.7474 111.587 88.2141 111.22 87.7608 110.74C87.3208 110.26 86.9741 109.673 86.7208 108.98C86.4674 108.287 86.3408 107.487 86.3408 106.58C86.3408 105.393 86.5408 104.387 86.9408 103.56C87.3541 102.733 87.9408 102.107 88.7008 101.68C89.4741 101.24 90.3808 101.02 91.4208 101.02C92.4074 101.02 93.2741 101.24 94.0208 101.68C94.7808 102.107 95.3741 102.733 95.8008 103.56C96.2408 104.387 96.4608 105.4 96.4608 106.6ZM88.5208 106.6C88.5208 107.4 88.6208 108.093 88.8208 108.68C89.0208 109.253 89.3341 109.693 89.7608 110C90.1874 110.307 90.7341 110.46 91.4008 110.46C92.0674 110.46 92.6141 110.307 93.0408 110C93.4674 109.693 93.7808 109.253 93.9808 108.68C94.1808 108.093 94.2808 107.4 94.2808 106.6C94.2808 105.773 94.1741 105.08 93.9608 104.52C93.7608 103.96 93.4474 103.533 93.0208 103.24C92.6074 102.933 92.0608 102.78 91.3808 102.78C90.3808 102.78 89.6541 103.113 89.2008 103.78C88.7474 104.447 88.5208 105.387 88.5208 106.6ZM108.428 101.22V112H106.728L106.428 110.58H106.328C106.102 110.953 105.808 111.26 105.448 111.5C105.088 111.74 104.695 111.913 104.268 112.02C103.842 112.14 103.402 112.2 102.948 112.2C102.108 112.2 101.395 112.067 100.808 111.8C100.235 111.52 99.7949 111.093 99.4883 110.52C99.1949 109.933 99.0483 109.187 99.0483 108.28V101.22H101.188V107.96C101.188 108.8 101.362 109.427 101.708 109.84C102.068 110.253 102.622 110.46 103.368 110.46C104.115 110.46 104.702 110.313 105.128 110.02C105.555 109.727 105.855 109.3 106.028 108.74C106.215 108.167 106.308 107.48 106.308 106.68V101.22H108.428ZM117.066 101.02C117.253 101.02 117.459 101.033 117.686 101.06C117.913 101.073 118.099 101.093 118.246 101.12L118.026 103.1C117.879 103.06 117.706 103.027 117.506 103C117.306 102.973 117.119 102.96 116.946 102.96C116.546 102.96 116.159 103.04 115.786 103.2C115.426 103.347 115.099 103.567 114.806 103.86C114.513 104.14 114.279 104.487 114.106 104.9C113.946 105.313 113.866 105.787 113.866 106.32V112H111.746V101.22H113.426L113.706 103.14H113.786C114.013 102.753 114.286 102.4 114.606 102.08C114.926 101.76 115.293 101.507 115.706 101.32C116.119 101.12 116.573 101.02 117.066 101.02Z" fill="#333333"/>
<path d="M83.5 127H145.5C147.157 127 148.5 128.343 148.5 130V170C148.5 171.657 147.157 173 145.5 173H83.5C81.8431 173 80.5 171.657 80.5 170V130C80.5 128.343 81.8431 127 83.5 127Z" fill="white"/>
<path d="M83.5 127H145.5C147.157 127 148.5 128.343 148.5 130V170C148.5 171.657 147.157 173 145.5 173H83.5C81.8431 173 80.5 171.657 80.5 170V130C80.5 128.343 81.8431 127 83.5 127Z" stroke="#333333" stroke-width="2"/>
<path d="M169.62 112L165.3 99.86H165.22C165.233 100.127 165.253 100.487 165.28 100.94C165.307 101.393 165.327 101.88 165.34 102.4C165.353 102.92 165.36 103.433 165.36 103.94V112H163.4V97.72H166.48L170.58 109.18H170.66L174.88 97.72H177.96V112H175.86V103.82C175.86 103.353 175.867 102.873 175.88 102.38C175.907 101.873 175.927 101.4 175.94 100.96C175.967 100.52 175.987 100.16 176 99.88H175.92L171.48 112H169.62ZM191.019 106.6C191.019 107.493 190.899 108.287 190.659 108.98C190.419 109.673 190.079 110.26 189.639 110.74C189.199 111.22 188.666 111.587 188.039 111.84C187.413 112.08 186.706 112.2 185.919 112.2C185.199 112.2 184.533 112.08 183.919 111.84C183.306 111.587 182.773 111.22 182.319 110.74C181.879 110.26 181.533 109.673 181.279 108.98C181.026 108.287 180.899 107.487 180.899 106.58C180.899 105.393 181.099 104.387 181.499 103.56C181.913 102.733 182.499 102.107 183.259 101.68C184.033 101.24 184.939 101.02 185.979 101.02C186.966 101.02 187.833 101.24 188.579 101.68C189.339 102.107 189.933 102.733 190.359 103.56C190.799 104.387 191.019 105.4 191.019 106.6ZM183.079 106.6C183.079 107.4 183.179 108.093 183.379 108.68C183.579 109.253 183.893 109.693 184.319 110C184.746 110.307 185.293 110.46 185.959 110.46C186.626 110.46 187.173 110.307 187.599 110C188.026 109.693 188.339 109.253 188.539 108.68C188.739 108.093 188.839 107.4 188.839 106.6C188.839 105.773 188.733 105.08 188.519 104.52C188.319 103.96 188.006 103.533 187.579 103.24C187.166 102.933 186.619 102.78 185.939 102.78C184.939 102.78 184.213 103.113 183.759 103.78C183.306 104.447 183.079 105.387 183.079 106.6ZM195.827 101.22V112H193.707V101.22H195.827ZM194.787 97.12C195.107 97.12 195.387 97.2133 195.627 97.4C195.867 97.5867 195.987 97.9 195.987 98.34C195.987 98.7667 195.867 99.08 195.627 99.28C195.387 99.4667 195.107 99.56 194.787 99.56C194.44 99.56 194.147 99.4667 193.907 99.28C193.68 99.08 193.567 98.7667 193.567 98.34C193.567 97.9 193.68 97.5867 193.907 97.4C194.147 97.2133 194.44 97.12 194.787 97.12ZM206.316 108.96C206.316 109.667 206.143 110.26 205.796 110.74C205.449 111.22 204.949 111.587 204.296 111.84C203.643 112.08 202.856 112.2 201.936 112.2C201.176 112.2 200.523 112.14 199.976 112.02C199.443 111.913 198.949 111.753 198.496 111.54V109.68C198.976 109.907 199.529 110.113 200.156 110.3C200.783 110.473 201.396 110.56 201.996 110.56C202.796 110.56 203.369 110.433 203.716 110.18C204.076 109.927 204.256 109.587 204.256 109.16C204.256 108.92 204.189 108.707 204.056 108.52C203.923 108.32 203.669 108.12 203.296 107.92C202.936 107.707 202.403 107.467 201.696 107.2C201.016 106.92 200.436 106.647 199.956 106.38C199.476 106.1 199.109 105.773 198.856 105.4C198.603 105.013 198.476 104.52 198.476 103.92C198.476 102.987 198.849 102.273 199.596 101.78C200.356 101.273 201.356 101.02 202.596 101.02C203.249 101.02 203.863 101.087 204.436 101.22C205.023 101.34 205.589 101.527 206.136 101.78L205.436 103.4C205.129 103.253 204.809 103.133 204.476 103.04C204.156 102.933 203.829 102.847 203.496 102.78C203.176 102.713 202.843 102.68 202.496 102.68C201.856 102.68 201.369 102.78 201.036 102.98C200.703 103.18 200.536 103.46 200.536 103.82C200.536 104.073 200.609 104.293 200.756 104.48C200.916 104.667 201.189 104.853 201.576 105.04C201.963 105.227 202.489 105.453 203.156 105.72C203.823 105.973 204.389 106.233 204.856 106.5C205.336 106.767 205.696 107.093 205.936 107.48C206.189 107.867 206.316 108.36 206.316 108.96Z" fill="#333333"/>
<rect x="162.5" y="127" width="260" height="46" rx="2" fill="white"/>
<rect x="162.5" y="127" width="260" height="46" rx="2" stroke="#333333" stroke-width="2"/>
<path d="M179.54 154.18C179.54 155.447 179.08 156.433 178.16 157.14C177.24 157.847 176 158.2 174.44 158.2C173.64 158.2 172.9 158.14 172.22 158.02C171.54 157.9 170.973 157.733 170.52 157.52V155.8C171 156.013 171.593 156.207 172.3 156.38C173.02 156.553 173.76 156.64 174.52 156.64C175.587 156.64 176.387 156.433 176.92 156.02C177.467 155.607 177.74 155.047 177.74 154.34C177.74 153.873 177.64 153.48 177.44 153.16C177.24 152.84 176.893 152.547 176.4 152.28C175.92 152 175.247 151.707 174.38 151.4C173.167 150.96 172.247 150.42 171.62 149.78C171.007 149.14 170.7 148.267 170.7 147.16C170.7 146.4 170.893 145.753 171.28 145.22C171.667 144.673 172.2 144.253 172.88 143.96C173.573 143.667 174.367 143.52 175.26 143.52C176.047 143.52 176.767 143.593 177.42 143.74C178.073 143.887 178.667 144.08 179.2 144.32L178.64 145.86C178.147 145.647 177.607 145.467 177.02 145.32C176.447 145.173 175.847 145.1 175.22 145.1C174.327 145.1 173.653 145.293 173.2 145.68C172.747 146.053 172.52 146.553 172.52 147.18C172.52 147.66 172.62 148.06 172.82 148.38C173.02 148.7 173.347 148.987 173.8 149.24C174.253 149.493 174.867 149.767 175.64 150.06C176.48 150.367 177.187 150.7 177.76 151.06C178.347 151.407 178.787 151.827 179.08 152.32C179.387 152.813 179.54 153.433 179.54 154.18ZM186.317 147.08C187.237 147.08 188.023 147.28 188.677 147.68C189.343 148.08 189.85 148.647 190.197 149.38C190.557 150.1 190.737 150.947 190.737 151.92V152.98H183.397C183.423 154.193 183.73 155.12 184.317 155.76C184.917 156.387 185.75 156.7 186.817 156.7C187.497 156.7 188.097 156.64 188.617 156.52C189.15 156.387 189.697 156.2 190.257 155.96V157.5C189.71 157.74 189.17 157.913 188.637 158.02C188.103 158.14 187.47 158.2 186.737 158.2C185.723 158.2 184.823 157.993 184.037 157.58C183.263 157.167 182.657 156.553 182.217 155.74C181.79 154.913 181.577 153.907 181.577 152.72C181.577 151.547 181.77 150.54 182.157 149.7C182.557 148.86 183.11 148.213 183.817 147.76C184.537 147.307 185.37 147.08 186.317 147.08ZM186.297 148.52C185.457 148.52 184.79 148.793 184.297 149.34C183.817 149.873 183.53 150.62 183.437 151.58H188.897C188.883 150.673 188.67 149.94 188.257 149.38C187.843 148.807 187.19 148.52 186.297 148.52ZM189.137 142.88C188.977 143.12 188.73 143.433 188.397 143.82C188.063 144.193 187.703 144.573 187.317 144.96C186.943 145.333 186.597 145.64 186.277 145.88H185.117V145.64C185.317 145.387 185.53 145.087 185.757 144.74C185.997 144.393 186.23 144.04 186.457 143.68C186.683 143.307 186.87 142.973 187.017 142.68H189.137V142.88ZM195.226 158H193.466V142.8H195.226V158ZM202.762 147.08C203.682 147.08 204.469 147.28 205.122 147.68C205.789 148.08 206.295 148.647 206.642 149.38C207.002 150.1 207.182 150.947 207.182 151.92V152.98H199.842C199.869 154.193 200.175 155.12 200.762 155.76C201.362 156.387 202.195 156.7 203.262 156.7C203.942 156.7 204.542 156.64 205.062 156.52C205.595 156.387 206.142 156.2 206.702 155.96V157.5C206.155 157.74 205.615 157.913 205.082 158.02C204.549 158.14 203.915 158.2 203.182 158.2C202.169 158.2 201.269 157.993 200.482 157.58C199.709 157.167 199.102 156.553 198.662 155.74C198.235 154.913 198.022 153.907 198.022 152.72C198.022 151.547 198.215 150.54 198.602 149.7C199.002 148.86 199.555 148.213 200.262 147.76C200.982 147.307 201.815 147.08 202.762 147.08ZM202.742 148.52C201.902 148.52 201.235 148.793 200.742 149.34C200.262 149.873 199.975 150.62 199.882 151.58H205.342C205.329 150.673 205.115 149.94 204.702 149.38C204.289 148.807 203.635 148.52 202.742 148.52ZM214.211 158.2C213.264 158.2 212.418 158.007 211.671 157.62C210.938 157.233 210.358 156.633 209.931 155.82C209.518 155.007 209.311 153.967 209.311 152.7C209.311 151.38 209.531 150.307 209.971 149.48C210.411 148.653 211.004 148.047 211.751 147.66C212.511 147.273 213.371 147.08 214.331 147.08C214.878 147.08 215.404 147.14 215.911 147.26C216.418 147.367 216.831 147.5 217.151 147.66L216.611 149.12C216.291 149 215.918 148.887 215.491 148.78C215.064 148.673 214.664 148.62 214.291 148.62C212.184 148.62 211.131 149.973 211.131 152.68C211.131 153.973 211.384 154.967 211.891 155.66C212.411 156.34 213.178 156.68 214.191 156.68C214.778 156.68 215.291 156.62 215.731 156.5C216.184 156.38 216.598 156.233 216.971 156.06V157.62C216.611 157.807 216.211 157.947 215.771 158.04C215.344 158.147 214.824 158.2 214.211 158.2ZM223.1 156.76C223.367 156.76 223.64 156.74 223.92 156.7C224.2 156.647 224.427 156.593 224.6 156.54V157.88C224.414 157.973 224.147 158.047 223.8 158.1C223.454 158.167 223.12 158.2 222.8 158.2C222.24 158.2 221.72 158.107 221.24 157.92C220.774 157.72 220.394 157.38 220.1 156.9C219.807 156.42 219.66 155.747 219.66 154.88V148.64H218.14V147.8L219.68 147.1L220.38 144.82H221.42V147.28H224.52V148.64H221.42V154.84C221.42 155.493 221.574 155.98 221.88 156.3C222.2 156.607 222.607 156.76 223.1 156.76ZM227.647 143.26C227.914 143.26 228.147 143.353 228.347 143.54C228.56 143.713 228.667 143.993 228.667 144.38C228.667 144.753 228.56 145.033 228.347 145.22C228.147 145.407 227.914 145.5 227.647 145.5C227.354 145.5 227.107 145.407 226.907 145.22C226.707 145.033 226.607 144.753 226.607 144.38C226.607 143.993 226.707 143.713 226.907 143.54C227.107 143.353 227.354 143.26 227.647 143.26ZM228.507 147.28V158H226.747V147.28H228.507ZM241.223 152.62C241.223 154.393 240.77 155.767 239.863 156.74C238.97 157.713 237.756 158.2 236.223 158.2C235.276 158.2 234.43 157.987 233.683 157.56C232.95 157.12 232.37 156.487 231.943 155.66C231.516 154.82 231.303 153.807 231.303 152.62C231.303 150.847 231.75 149.48 232.643 148.52C233.536 147.56 234.75 147.08 236.283 147.08C237.256 147.08 238.11 147.3 238.843 147.74C239.59 148.167 240.17 148.793 240.583 149.62C241.01 150.433 241.223 151.433 241.223 152.62ZM233.123 152.62C233.123 153.887 233.37 154.893 233.863 155.64C234.37 156.373 235.17 156.74 236.263 156.74C237.343 156.74 238.136 156.373 238.643 155.64C239.15 154.893 239.403 153.887 239.403 152.62C239.403 151.353 239.15 150.36 238.643 149.64C238.136 148.92 237.336 148.56 236.243 148.56C235.15 148.56 234.356 148.92 233.863 149.64C233.37 150.36 233.123 151.353 233.123 152.62ZM249.173 147.08C250.453 147.08 251.419 147.393 252.073 148.02C252.726 148.633 253.053 149.633 253.053 151.02V158H251.313V151.14C251.313 149.42 250.513 148.56 248.913 148.56C247.726 148.56 246.906 148.893 246.453 149.56C245.999 150.227 245.773 151.187 245.773 152.44V158H244.013V147.28H245.433L245.693 148.74H245.793C246.139 148.18 246.619 147.767 247.233 147.5C247.846 147.22 248.493 147.08 249.173 147.08ZM261.536 147.08C262.816 147.08 263.782 147.393 264.436 148.02C265.089 148.633 265.416 149.633 265.416 151.02V158H263.676V151.14C263.676 149.42 262.876 148.56 261.276 148.56C260.089 148.56 259.269 148.893 258.816 149.56C258.362 150.227 258.136 151.187 258.136 152.44V158H256.376V147.28H257.796L258.056 148.74H258.156C258.502 148.18 258.982 147.767 259.596 147.5C260.209 147.22 260.856 147.08 261.536 147.08ZM272.879 147.08C273.799 147.08 274.586 147.28 275.239 147.68C275.906 148.08 276.412 148.647 276.759 149.38C277.119 150.1 277.299 150.947 277.299 151.92V152.98H269.959C269.986 154.193 270.292 155.12 270.879 155.76C271.479 156.387 272.312 156.7 273.379 156.7C274.059 156.7 274.659 156.64 275.179 156.52C275.712 156.387 276.259 156.2 276.819 155.96V157.5C276.272 157.74 275.732 157.913 275.199 158.02C274.666 158.14 274.032 158.2 273.299 158.2C272.286 158.2 271.386 157.993 270.599 157.58C269.826 157.167 269.219 156.553 268.779 155.74C268.352 154.913 268.139 153.907 268.139 152.72C268.139 151.547 268.332 150.54 268.719 149.7C269.119 148.86 269.672 148.213 270.379 147.76C271.099 147.307 271.932 147.08 272.879 147.08ZM272.859 148.52C272.019 148.52 271.352 148.793 270.859 149.34C270.379 149.873 270.092 150.62 269.999 151.58H275.459C275.446 150.673 275.232 149.94 274.819 149.38C274.406 148.807 273.752 148.52 272.859 148.52ZM286.753 158H278.913V156.84L284.673 148.64H279.253V147.28H286.613V148.6L280.933 156.64H286.753V158ZM303.383 147.28V158H301.943L301.683 156.58H301.603C301.256 157.14 300.776 157.553 300.163 157.82C299.549 158.073 298.896 158.2 298.203 158.2C296.909 158.2 295.936 157.893 295.283 157.28C294.629 156.653 294.303 155.66 294.303 154.3V147.28H296.083V154.18C296.083 155.887 296.876 156.74 298.463 156.74C299.649 156.74 300.469 156.407 300.923 155.74C301.389 155.073 301.623 154.113 301.623 152.86V147.28H303.383ZM311.946 147.08C313.226 147.08 314.193 147.393 314.846 148.02C315.499 148.633 315.826 149.633 315.826 151.02V158H314.086V151.14C314.086 149.42 313.286 148.56 311.686 148.56C310.499 148.56 309.679 148.893 309.226 149.56C308.773 150.227 308.546 151.187 308.546 152.44V158H306.786V147.28H308.206L308.466 148.74H308.566C308.913 148.18 309.393 147.767 310.006 147.5C310.619 147.22 311.266 147.08 311.946 147.08ZM336.105 147.08C337.318 147.08 338.225 147.393 338.825 148.02C339.425 148.633 339.725 149.633 339.725 151.02V158H337.985V151.1C337.985 149.407 337.258 148.56 335.805 148.56C334.765 148.56 334.018 148.86 333.565 149.46C333.125 150.06 332.905 150.933 332.905 152.08V158H331.165V151.1C331.165 149.407 330.431 148.56 328.965 148.56C327.885 148.56 327.138 148.893 326.725 149.56C326.311 150.227 326.105 151.187 326.105 152.44V158H324.345V147.28H325.765L326.025 148.74H326.125C326.458 148.18 326.905 147.767 327.465 147.5C328.038 147.22 328.645 147.08 329.285 147.08C330.965 147.08 332.058 147.68 332.565 148.88H332.665C333.025 148.267 333.511 147.813 334.125 147.52C334.751 147.227 335.411 147.08 336.105 147.08ZM352.356 152.62C352.356 154.393 351.903 155.767 350.996 156.74C350.103 157.713 348.889 158.2 347.356 158.2C346.409 158.2 345.563 157.987 344.816 157.56C344.083 157.12 343.503 156.487 343.076 155.66C342.649 154.82 342.436 153.807 342.436 152.62C342.436 150.847 342.883 149.48 343.776 148.52C344.669 147.56 345.883 147.08 347.416 147.08C348.389 147.08 349.243 147.3 349.976 147.74C350.723 148.167 351.303 148.793 351.716 149.62C352.143 150.433 352.356 151.433 352.356 152.62ZM344.256 152.62C344.256 153.887 344.503 154.893 344.996 155.64C345.503 156.373 346.303 156.74 347.396 156.74C348.476 156.74 349.269 156.373 349.776 155.64C350.283 154.893 350.536 153.887 350.536 152.62C350.536 151.353 350.283 150.36 349.776 149.64C349.269 148.92 348.469 148.56 347.376 148.56C346.283 148.56 345.489 148.92 344.996 149.64C344.503 150.36 344.256 151.353 344.256 152.62ZM356.045 143.26C356.312 143.26 356.545 143.353 356.745 143.54C356.959 143.713 357.065 143.993 357.065 144.38C357.065 144.753 356.959 145.033 356.745 145.22C356.545 145.407 356.312 145.5 356.045 145.5C355.752 145.5 355.505 145.407 355.305 145.22C355.105 145.033 355.005 144.753 355.005 144.38C355.005 143.993 355.105 143.713 355.305 143.54C355.505 143.353 355.752 143.26 356.045 143.26ZM356.905 147.28V158H355.145V147.28H356.905ZM367.282 155.04C367.282 156.08 366.895 156.867 366.122 157.4C365.348 157.933 364.308 158.2 363.002 158.2C362.255 158.2 361.608 158.14 361.062 158.02C360.528 157.9 360.055 157.733 359.642 157.52V155.92C360.068 156.133 360.582 156.333 361.182 156.52C361.795 156.693 362.415 156.78 363.042 156.78C363.935 156.78 364.582 156.64 364.982 156.36C365.382 156.067 365.582 155.68 365.582 155.2C365.582 154.933 365.508 154.693 365.362 154.48C365.215 154.267 364.948 154.053 364.562 153.84C364.188 153.627 363.648 153.387 362.942 153.12C362.248 152.853 361.655 152.587 361.162 152.32C360.668 152.053 360.288 151.733 360.022 151.36C359.755 150.987 359.622 150.507 359.622 149.92C359.622 149.013 359.988 148.313 360.722 147.82C361.468 147.327 362.442 147.08 363.642 147.08C364.295 147.08 364.902 147.147 365.462 147.28C366.035 147.4 366.568 147.573 367.062 147.8L366.462 149.2C366.008 149.013 365.535 148.853 365.042 148.72C364.548 148.587 364.042 148.52 363.522 148.52C362.802 148.52 362.248 148.64 361.862 148.88C361.488 149.107 361.302 149.42 361.302 149.82C361.302 150.113 361.388 150.367 361.562 150.58C361.735 150.78 362.022 150.98 362.422 151.18C362.835 151.367 363.382 151.593 364.062 151.86C364.742 152.113 365.322 152.373 365.802 152.64C366.282 152.907 366.648 153.233 366.902 153.62C367.155 153.993 367.282 154.467 367.282 155.04Z" fill="#333333"/>
<path d="M399.5 151.75L406 145.25L407.5 146.75L399.5 154.75L391.5 146.75L393 145.25L399.5 151.75Z" fill="#333333"/>
<path d="M446.3 112L444.78 107.88H439.26L437.74 112H435.5L440.92 97.66H443.16L448.56 112H446.3ZM442.74 101.98C442.7 101.833 442.627 101.613 442.52 101.32C442.427 101.013 442.333 100.707 442.24 100.4C442.147 100.08 442.073 99.82 442.02 99.62C441.953 99.8867 441.873 100.18 441.78 100.5C441.7 100.807 441.62 101.093 441.54 101.36C441.46 101.613 441.393 101.82 441.34 101.98L439.9 106H444.18L442.74 101.98ZM455.706 101.02C456.959 101.02 457.919 101.333 458.586 101.96C459.253 102.587 459.586 103.593 459.586 104.98V112H457.486V105.28C457.486 104.44 457.306 103.813 456.946 103.4C456.599 102.973 456.039 102.76 455.266 102.76C454.173 102.76 453.413 103.087 452.986 103.74C452.573 104.393 452.366 105.333 452.366 106.56V112H450.246V101.22H451.926L452.226 102.66H452.346C452.586 102.287 452.879 101.98 453.226 101.74C453.573 101.5 453.959 101.32 454.386 101.2C454.813 101.08 455.253 101.02 455.706 101.02ZM468.304 101.02C469.557 101.02 470.517 101.333 471.184 101.96C471.85 102.587 472.184 103.593 472.184 104.98V112H470.084V105.28C470.084 104.44 469.904 103.813 469.544 103.4C469.197 102.973 468.637 102.76 467.864 102.76C466.77 102.76 466.01 103.087 465.584 103.74C465.17 104.393 464.964 105.333 464.964 106.56V112H462.844V101.22H464.524L464.824 102.66H464.944C465.184 102.287 465.477 101.98 465.824 101.74C466.17 101.5 466.557 101.32 466.984 101.2C467.41 101.08 467.85 101.02 468.304 101.02ZM479.681 101.02C480.628 101.02 481.441 101.22 482.121 101.62C482.801 102.007 483.321 102.567 483.681 103.3C484.055 104.033 484.241 104.9 484.241 105.9V107.06H477.001C477.028 108.167 477.315 109.013 477.861 109.6C478.421 110.187 479.201 110.48 480.201 110.48C480.895 110.48 481.508 110.42 482.041 110.3C482.588 110.167 483.148 109.973 483.721 109.72V111.48C483.188 111.72 482.641 111.9 482.081 112.02C481.535 112.14 480.881 112.2 480.121 112.2C479.081 112.2 478.161 111.993 477.361 111.58C476.561 111.167 475.935 110.553 475.481 109.74C475.041 108.913 474.821 107.9 474.821 106.7C474.821 105.487 475.021 104.46 475.421 103.62C475.835 102.78 476.401 102.14 477.121 101.7C477.855 101.247 478.708 101.02 479.681 101.02ZM479.681 102.66C478.921 102.66 478.308 102.907 477.841 103.4C477.388 103.893 477.121 104.593 477.041 105.5H482.121C482.121 104.94 482.035 104.447 481.861 104.02C481.688 103.593 481.421 103.26 481.061 103.02C480.701 102.78 480.241 102.66 479.681 102.66ZM482.881 96.88C482.735 97.0667 482.535 97.2933 482.281 97.56C482.041 97.8267 481.768 98.1067 481.461 98.4C481.168 98.68 480.875 98.9533 480.581 99.22C480.288 99.4733 480.021 99.6933 479.781 99.88H478.381V99.64C478.581 99.3867 478.808 99.0867 479.061 98.74C479.315 98.3933 479.561 98.04 479.801 97.68C480.041 97.3067 480.241 96.9733 480.401 96.68H482.881V96.88ZM491.127 101.02C492.073 101.02 492.887 101.22 493.567 101.62C494.247 102.007 494.767 102.567 495.127 103.3C495.5 104.033 495.687 104.9 495.687 105.9V107.06H488.447C488.473 108.167 488.76 109.013 489.307 109.6C489.867 110.187 490.647 110.48 491.647 110.48C492.34 110.48 492.953 110.42 493.487 110.3C494.033 110.167 494.593 109.973 495.167 109.72V111.48C494.633 111.72 494.087 111.9 493.527 112.02C492.98 112.14 492.327 112.2 491.567 112.2C490.527 112.2 489.607 111.993 488.807 111.58C488.007 111.167 487.38 110.553 486.927 109.74C486.487 108.913 486.267 107.9 486.267 106.7C486.267 105.487 486.467 104.46 486.867 103.62C487.28 102.78 487.847 102.14 488.567 101.7C489.3 101.247 490.153 101.02 491.127 101.02ZM491.127 102.66C490.367 102.66 489.753 102.907 489.287 103.4C488.833 103.893 488.567 104.593 488.487 105.5H493.567C493.567 104.94 493.48 104.447 493.307 104.02C493.133 103.593 492.867 103.26 492.507 103.02C492.147 102.78 491.687 102.66 491.127 102.66Z" fill="#333333"/>
<path d="M439.5 127H547.5C549.157 127 550.5 128.343 550.5 130V170C550.5 171.657 549.157 173 547.5 173H439.5C437.843 173 436.5 171.657 436.5 170V130C436.5 128.343 437.843 127 439.5 127Z" fill="white"/>
<path d="M439.5 127H547.5C549.157 127 550.5 128.343 550.5 130V170C550.5 171.657 549.157 173 547.5 173H439.5C437.843 173 436.5 171.657 436.5 170V130C436.5 128.343 437.843 127 439.5 127Z" stroke="#333333" stroke-width="2"/>
<g clip-path="url(#clip0_5534_58178)">
<rect x="20" y="47.4" width="48" height="1" fill="#C54600"/>
<g clip-path="url(#clip1_5534_58178)">
<rect x="20" y="35.4" width="24" height="24" rx="12" fill="#C54600"/>
<path d="M33.1825 42.6728V51.4H32.1257V43.7807H32.0746L29.9439 45.1955V44.1216L32.1257 42.6728H33.1825Z" fill="white"/>
</g>
</g>
<g clip-path="url(#clip2_5534_58178)">
<rect x="20" y="148.5" width="48" height="1" fill="#C54600"/>
<g clip-path="url(#clip3_5534_58178)">
<rect x="20" y="136.5" width="24" height="24" rx="12" fill="#C54600"/>
<path d="M32.032 152.619C31.4695 152.619 30.968 152.523 30.5277 152.33C30.0902 152.136 29.7422 151.868 29.4837 151.524C29.228 151.178 29.0888 150.776 29.0661 150.318H30.1399C30.1626 150.599 30.2592 150.842 30.4297 151.047C30.6001 151.249 30.8232 151.405 31.0987 151.516C31.3743 151.626 31.6797 151.682 32.0149 151.682C32.3899 151.682 32.7223 151.616 33.0121 151.486C33.3018 151.355 33.5291 151.173 33.6939 150.94C33.8587 150.707 33.9411 150.438 33.9411 150.131C33.9411 149.81 33.8615 149.527 33.7024 149.283C33.5433 149.036 33.3104 148.842 33.0036 148.703C32.6967 148.564 32.3217 148.494 31.8786 148.494H31.1797V147.557H31.8786C32.2251 147.557 32.5291 147.494 32.7905 147.369C33.0547 147.244 33.2607 147.068 33.4084 146.841C33.5589 146.614 33.6342 146.347 33.6342 146.04C33.6342 145.744 33.5689 145.487 33.4382 145.268C33.3075 145.05 33.1229 144.879 32.8842 144.757C32.6484 144.635 32.37 144.574 32.049 144.574C31.7479 144.574 31.4638 144.629 31.1967 144.74C30.9325 144.848 30.7166 145.006 30.549 145.213C30.3814 145.418 30.2905 145.665 30.2763 145.955H29.2536C29.2706 145.497 29.4084 145.097 29.6669 144.753C29.9254 144.406 30.2635 144.136 30.6811 143.943C31.1016 143.75 31.5632 143.653 32.0661 143.653C32.6058 143.653 33.0689 143.763 33.4553 143.982C33.8416 144.197 34.1385 144.483 34.3459 144.838C34.5533 145.193 34.657 145.577 34.657 145.989C34.657 146.48 34.5277 146.899 34.2692 147.246C34.0135 147.592 33.6655 147.832 33.2251 147.966V148.034C33.7763 148.125 34.2067 148.359 34.5163 148.737C34.826 149.112 34.9808 149.577 34.9808 150.131C34.9808 150.605 34.8516 151.031 34.593 151.409C34.3374 151.784 33.9879 152.08 33.5447 152.295C33.1016 152.511 32.5973 152.619 32.032 152.619Z" fill="white"/>
</g>
</g>
<g clip-path="url(#clip4_5534_58178)">
<rect x="20" y="105.5" width="48" height="1" fill="#C54600"/>
<g clip-path="url(#clip5_5534_58178)">
<rect x="20" y="93.5" width="24" height="24" rx="12" fill="#C54600"/>
<path d="M29.2706 109.5V108.733L32.1513 105.58C32.4893 105.21 32.7678 104.889 32.9865 104.616C33.2053 104.341 33.3672 104.082 33.4723 103.841C33.5803 103.597 33.6342 103.341 33.6342 103.074C33.6342 102.767 33.5604 102.501 33.4126 102.277C33.2678 102.053 33.0689 101.879 32.8161 101.757C32.5632 101.635 32.2791 101.574 31.9638 101.574C31.6286 101.574 31.3359 101.643 31.0859 101.783C30.8388 101.919 30.647 102.111 30.5107 102.358C30.3771 102.605 30.3104 102.895 30.3104 103.227H29.3047C29.3047 102.716 29.4226 102.267 29.6584 101.881C29.8942 101.494 30.2152 101.193 30.6214 100.977C31.0305 100.761 31.4893 100.653 31.9979 100.653C32.5092 100.653 32.9624 100.761 33.3572 100.977C33.7521 101.193 34.0618 101.484 34.2862 101.851C34.5107 102.217 34.6229 102.625 34.6229 103.074C34.6229 103.395 34.5646 103.709 34.4482 104.016C34.3345 104.32 34.1357 104.659 33.8516 105.034C33.5703 105.406 33.1797 105.861 32.6797 106.398L30.7195 108.494V108.562H34.7763V109.5H29.2706Z" fill="white"/>
</g>
</g>
<rect x="275" y="177" width="1" height="44" fill="#C54600"/>
<g clip-path="url(#clip6_5534_58178)">
<rect x="263" y="211" width="24" height="24" rx="12" fill="#C54600"/>
<path d="M274.98 227.119C274.48 227.119 274.03 227.02 273.629 226.821C273.229 226.622 272.908 226.349 272.666 226.003C272.425 225.656 272.293 225.261 272.27 224.818H273.293C273.333 225.213 273.512 225.54 273.83 225.798C274.151 226.054 274.534 226.182 274.98 226.182C275.338 226.182 275.656 226.098 275.935 225.93C276.216 225.763 276.436 225.533 276.595 225.24C276.757 224.945 276.838 224.611 276.838 224.239C276.838 223.858 276.754 223.518 276.587 223.22C276.422 222.919 276.195 222.682 275.905 222.509C275.615 222.335 275.284 222.247 274.912 222.244C274.645 222.241 274.371 222.283 274.09 222.368C273.808 222.45 273.577 222.557 273.395 222.688L272.406 222.568L272.935 218.273H277.469V219.21H273.821L273.514 221.784H273.566C273.744 221.642 273.969 221.524 274.239 221.43C274.509 221.337 274.79 221.29 275.083 221.29C275.617 221.29 276.093 221.418 276.51 221.673C276.931 221.926 277.26 222.273 277.499 222.713C277.74 223.153 277.861 223.656 277.861 224.222C277.861 224.778 277.736 225.276 277.486 225.713C277.239 226.148 276.898 226.491 276.463 226.744C276.029 226.994 275.534 227.119 274.98 227.119Z" fill="white"/>
</g>
<g clip-path="url(#clip7_5534_58178)">
<rect x="215" y="105" width="29" height="1" fill="#C54600"/>
<g clip-path="url(#clip8_5534_58178)">
<rect x="239" y="92.5" width="24" height="24" rx="12" fill="#C54600"/>
<path d="M247.849 106.71V105.841L251.684 99.7727H252.315V101.119H251.889L248.991 105.705V105.773H254.156V106.71H247.849ZM251.957 108.5V106.446V106.041V99.7727H252.963V108.5H251.957Z" fill="white"/>
</g>
</g>
<rect x="486" y="177" width="1" height="44" fill="#C54600"/>
<g clip-path="url(#clip9_5534_58178)">
<rect x="474" y="211" width="24" height="24" rx="12" fill="#C54600"/>
<path d="M483.748 227L487.652 219.278V219.21H483.152V218.273H488.743V219.261L484.856 227H483.748Z" fill="white"/>
</g>
<g clip-path="url(#clip10_5534_58178)">
<rect x="544" y="92" width="24" height="24" rx="12" fill="#C54600"/>
<path d="M556.057 108.119C555.699 108.114 555.341 108.045 554.983 107.915C554.625 107.784 554.298 107.564 554.003 107.254C553.708 106.942 553.47 106.52 553.291 105.989C553.112 105.455 553.023 104.784 553.023 103.977C553.023 103.205 553.095 102.52 553.24 101.923C553.385 101.324 553.595 100.82 553.871 100.411C554.146 99.9986 554.479 99.6861 554.868 99.473C555.26 99.2599 555.702 99.1534 556.193 99.1534C556.682 99.1534 557.117 99.2514 557.497 99.4474C557.881 99.6406 558.193 99.9105 558.435 100.257C558.676 100.604 558.833 101.003 558.904 101.455H557.864C557.767 101.062 557.58 100.737 557.301 100.479C557.023 100.22 556.654 100.091 556.193 100.091C555.517 100.091 554.985 100.385 554.595 100.973C554.209 101.561 554.014 102.386 554.012 103.449H554.08C554.239 103.207 554.428 103.001 554.646 102.831C554.868 102.658 555.112 102.524 555.379 102.43C555.646 102.337 555.929 102.29 556.227 102.29C556.727 102.29 557.185 102.415 557.6 102.665C558.014 102.912 558.347 103.254 558.597 103.692C558.847 104.126 558.972 104.625 558.972 105.188C558.972 105.727 558.851 106.222 558.61 106.67C558.368 107.116 558.029 107.472 557.591 107.736C557.156 107.997 556.645 108.125 556.057 108.119ZM556.057 107.182C556.415 107.182 556.736 107.092 557.02 106.913C557.307 106.734 557.533 106.494 557.698 106.193C557.865 105.892 557.949 105.557 557.949 105.188C557.949 104.827 557.868 104.499 557.706 104.203C557.547 103.905 557.327 103.668 557.046 103.491C556.767 103.315 556.449 103.227 556.091 103.227C555.821 103.227 555.57 103.281 555.337 103.389C555.104 103.494 554.899 103.639 554.723 103.824C554.55 104.009 554.414 104.22 554.314 104.459C554.215 104.695 554.165 104.943 554.165 105.205C554.165 105.551 554.246 105.875 554.408 106.176C554.573 106.477 554.797 106.72 555.081 106.905C555.368 107.089 555.693 107.182 556.057 107.182Z" fill="white"/>
</g>
<rect x="501" y="104" width="49" height="1" fill="#C54600"/>
<defs>
<clipPath id="clip0_5534_58178">
<rect width="48" height="24" fill="white" transform="translate(20 35.4)"/>
</clipPath>
<clipPath id="clip1_5534_58178">
<rect x="20" y="35.4" width="24" height="24" rx="12" fill="white"/>
</clipPath>
<clipPath id="clip2_5534_58178">
<rect width="48" height="24" fill="white" transform="translate(20 136.5)"/>
</clipPath>
<clipPath id="clip3_5534_58178">
<rect x="20" y="136.5" width="24" height="24" rx="12" fill="white"/>
</clipPath>
<clipPath id="clip4_5534_58178">
<rect width="48" height="24" fill="white" transform="translate(20 93.5)"/>
</clipPath>
<clipPath id="clip5_5534_58178">
<rect x="20" y="93.5" width="24" height="24" rx="12" fill="white"/>
</clipPath>
<clipPath id="clip6_5534_58178">
<rect x="263" y="211" width="24" height="24" rx="12" fill="white"/>
</clipPath>
<clipPath id="clip7_5534_58178">
<rect width="48" height="24" fill="white" transform="translate(215 92.5)"/>
</clipPath>
<clipPath id="clip8_5534_58178">
<rect x="239" y="92.5" width="24" height="24" rx="12" fill="white"/>
</clipPath>
<clipPath id="clip9_5534_58178">
<rect x="474" y="211" width="24" height="24" rx="12" fill="white"/>
</clipPath>
<clipPath id="clip10_5534_58178">
<rect x="544" y="92" width="24" height="24" rx="12" fill="white"/>
</clipPath>
</defs>
</svg>
