<svg width="644" height="287" viewBox="0 0 644 287" fill="none" xmlns="http://www.w3.org/2000/svg">
<path d="M82.02 42H73.8V27.72H82.02V30.2H76.82V33.34H81.66V35.82H76.82V39.5H82.02V42ZM82.24 23.52C82.0533 23.7067 81.8067 23.9333 81.5 24.2C81.1933 24.4667 80.86 24.7467 80.5 25.04C80.1533 25.3333 79.8067 25.6133 79.46 25.88C79.1267 26.1333 78.8333 26.3467 78.58 26.52H76.6V26.26C76.8133 26.0067 77.06 25.7133 77.34 25.38C77.6333 25.0333 77.92 24.68 78.2 24.32C78.48 23.9467 78.7133 23.6133 78.9 23.32H82.24V23.52ZM89.3514 39.82C89.6847 39.82 90.0047 39.7867 90.3114 39.72C90.6181 39.6533 90.9247 39.5733 91.2314 39.48V41.7C90.9114 41.8333 90.5114 41.9467 90.0314 42.04C89.5647 42.1467 89.0514 42.2 88.4914 42.2C87.8381 42.2 87.2514 42.0933 86.7314 41.88C86.2247 41.6667 85.8181 41.3 85.5114 40.78C85.2181 40.2467 85.0714 39.5133 85.0714 38.58V33.32H83.6514V32.06L85.2914 31.06L86.1514 28.76H88.0514V31.08H91.1114V33.32H88.0514V38.58C88.0514 38.9933 88.1714 39.3067 88.4114 39.52C88.6514 39.72 88.9647 39.82 89.3514 39.82ZM94.9233 26.8C95.3633 26.8 95.7433 26.9067 96.0633 27.12C96.3833 27.32 96.5433 27.7 96.5433 28.26C96.5433 28.8067 96.3833 29.1867 96.0633 29.4C95.7433 29.6133 95.3633 29.72 94.9233 29.72C94.4699 29.72 94.0833 29.6133 93.7633 29.4C93.4566 29.1867 93.3033 28.8067 93.3033 28.26C93.3033 27.7 93.4566 27.32 93.7633 27.12C94.0833 26.9067 94.4699 26.8 94.9233 26.8ZM96.4033 31.08V42H93.4233V31.08H96.4033ZM106.077 42.22C106.077 41.66 106.117 41.1133 106.197 40.58H106.077C105.797 41.0333 105.41 41.42 104.917 41.74C104.424 42.0467 103.777 42.2 102.977 42.2C101.75 42.2 100.757 41.7267 99.997 40.78C99.237 39.82 98.857 38.4133 98.857 36.56C98.857 34.6933 99.2437 33.28 100.017 32.32C100.79 31.36 101.797 30.88 103.037 30.88C103.837 30.88 104.484 31.0333 104.977 31.34C105.484 31.6467 105.89 32.0267 106.197 32.48H106.277L106.537 31.08H109.057V46.8H106.077V42.22ZM104.037 39.86C104.864 39.86 105.437 39.62 105.757 39.14C106.09 38.6467 106.264 37.9133 106.277 36.94V36.58C106.277 35.5133 106.11 34.7 105.777 34.14C105.457 33.58 104.864 33.3 103.997 33.3C103.29 33.3 102.764 33.5867 102.417 34.16C102.07 34.72 101.897 35.5333 101.897 36.6C101.897 38.7733 102.61 39.86 104.037 39.86ZM122.193 31.08V42H119.913L119.513 40.6H119.353C119.007 41.16 118.527 41.5667 117.913 41.82C117.313 42.0733 116.673 42.2 115.993 42.2C114.82 42.2 113.88 41.8867 113.173 41.26C112.467 40.62 112.113 39.6 112.113 38.2V31.08H115.093V37.46C115.093 38.2333 115.233 38.82 115.513 39.22C115.793 39.62 116.24 39.82 116.853 39.82C117.76 39.82 118.38 39.5133 118.713 38.9C119.047 38.2733 119.213 37.38 119.213 36.22V31.08H122.193ZM129.818 30.88C131.324 30.88 132.518 31.3133 133.398 32.18C134.278 33.0333 134.718 34.2533 134.718 35.84V37.28H127.678C127.704 38.12 127.951 38.78 128.418 39.26C128.898 39.74 129.558 39.98 130.398 39.98C131.104 39.98 131.744 39.9133 132.318 39.78C132.891 39.6333 133.484 39.4133 134.098 39.12V41.42C133.564 41.6867 132.998 41.88 132.398 42C131.811 42.1333 131.098 42.2 130.258 42.2C129.164 42.2 128.198 42 127.358 41.6C126.518 41.1867 125.858 40.5667 125.378 39.74C124.898 38.9133 124.658 37.8733 124.658 36.62C124.658 35.34 124.871 34.28 125.298 33.44C125.738 32.5867 126.344 31.9467 127.118 31.52C127.891 31.0933 128.791 30.88 129.818 30.88ZM129.838 33C129.264 33 128.784 33.1867 128.398 33.56C128.024 33.9333 127.804 34.5133 127.738 35.3H131.918C131.904 34.6333 131.731 34.0867 131.398 33.66C131.064 33.22 130.544 33 129.838 33ZM141.734 39.82C142.068 39.82 142.388 39.7867 142.694 39.72C143.001 39.6533 143.308 39.5733 143.614 39.48V41.7C143.294 41.8333 142.894 41.9467 142.414 42.04C141.948 42.1467 141.434 42.2 140.874 42.2C140.221 42.2 139.634 42.0933 139.114 41.88C138.608 41.6667 138.201 41.3 137.894 40.78C137.601 40.2467 137.454 39.5133 137.454 38.58V33.32H136.034V32.06L137.674 31.06L138.534 28.76H140.434V31.08H143.494V33.32H140.434V38.58C140.434 38.9933 140.554 39.3067 140.794 39.52C141.034 39.72 141.348 39.82 141.734 39.82ZM150.406 39.82C150.739 39.82 151.059 39.7867 151.366 39.72C151.673 39.6533 151.979 39.5733 152.286 39.48V41.7C151.966 41.8333 151.566 41.9467 151.086 42.04C150.619 42.1467 150.106 42.2 149.546 42.2C148.893 42.2 148.306 42.0933 147.786 41.88C147.279 41.6667 146.873 41.3 146.566 40.78C146.273 40.2467 146.126 39.5133 146.126 38.58V33.32H144.706V32.06L146.346 31.06L147.206 28.76H149.106V31.08H152.166V33.32H149.106V38.58C149.106 38.9933 149.226 39.3067 149.466 39.52C149.706 39.72 150.019 39.82 150.406 39.82ZM158.978 30.88C160.485 30.88 161.678 31.3133 162.558 32.18C163.438 33.0333 163.878 34.2533 163.878 35.84V37.28H156.838C156.865 38.12 157.111 38.78 157.578 39.26C158.058 39.74 158.718 39.98 159.558 39.98C160.265 39.98 160.905 39.9133 161.478 39.78C162.051 39.6333 162.645 39.4133 163.258 39.12V41.42C162.725 41.6867 162.158 41.88 161.558 42C160.971 42.1333 160.258 42.2 159.418 42.2C158.325 42.2 157.358 42 156.518 41.6C155.678 41.1867 155.018 40.5667 154.538 39.74C154.058 38.9133 153.818 37.8733 153.818 36.62C153.818 35.34 154.031 34.28 154.458 33.44C154.898 32.5867 155.505 31.9467 156.278 31.52C157.051 31.0933 157.951 30.88 158.978 30.88ZM158.998 33C158.425 33 157.945 33.1867 157.558 33.56C157.185 33.9333 156.965 34.5133 156.898 35.3H161.078C161.065 34.6333 160.891 34.0867 160.558 33.66C160.225 33.22 159.705 33 158.998 33Z" fill="#333333"/>
<path d="M173.8 36.52C173.8 34.8933 174.033 33.3267 174.5 31.82C174.98 30.3 175.727 28.9333 176.74 27.72H178.4C177.467 28.9733 176.76 30.3533 176.28 31.86C175.813 33.3667 175.58 34.9133 175.58 36.5C175.58 38.0467 175.813 39.5667 176.28 41.06C176.76 42.54 177.46 43.9067 178.38 45.16H176.74C175.727 43.9867 174.98 42.66 174.5 41.18C174.033 39.6867 173.8 38.1333 173.8 36.52ZM190.016 36.62C190.016 38.3933 189.563 39.7667 188.656 40.74C187.763 41.7133 186.549 42.2 185.016 42.2C184.069 42.2 183.223 41.9867 182.476 41.56C181.743 41.12 181.163 40.4867 180.736 39.66C180.309 38.82 180.096 37.8067 180.096 36.62C180.096 34.8467 180.543 33.48 181.436 32.52C182.329 31.56 183.543 31.08 185.076 31.08C186.049 31.08 186.903 31.3 187.636 31.74C188.383 32.1667 188.963 32.7933 189.376 33.62C189.803 34.4333 190.016 35.4333 190.016 36.62ZM181.916 36.62C181.916 37.8867 182.163 38.8933 182.656 39.64C183.163 40.3733 183.963 40.74 185.056 40.74C186.136 40.74 186.929 40.3733 187.436 39.64C187.943 38.8933 188.196 37.8867 188.196 36.62C188.196 35.3533 187.943 34.36 187.436 33.64C186.929 32.92 186.129 32.56 185.036 32.56C183.943 32.56 183.149 32.92 182.656 33.64C182.163 34.36 181.916 35.3533 181.916 36.62ZM194.565 30.5C194.565 30.9533 194.552 31.38 194.525 31.78C194.512 32.1667 194.492 32.4733 194.465 32.7H194.565C194.872 32.2467 195.292 31.8667 195.825 31.56C196.359 31.2533 197.045 31.1 197.885 31.1C199.219 31.1 200.285 31.5667 201.085 32.5C201.899 33.42 202.305 34.8 202.305 36.64C202.305 38.48 201.899 39.8667 201.085 40.8C200.272 41.7333 199.205 42.2 197.885 42.2C197.045 42.2 196.359 42.0467 195.825 41.74C195.292 41.4333 194.872 41.0667 194.565 40.64H194.425L194.065 42H192.805V26.8H194.565V30.5ZM197.585 32.56C196.452 32.56 195.665 32.8867 195.225 33.54C194.785 34.1933 194.565 35.2067 194.565 36.58V36.66C194.565 37.98 194.779 38.9933 195.205 39.7C195.645 40.3933 196.452 40.74 197.625 40.74C198.585 40.74 199.299 40.3867 199.765 39.68C200.245 38.9733 200.485 37.9533 200.485 36.62C200.485 33.9133 199.519 32.56 197.585 32.56ZM206.87 42H205.11V26.8H206.87V42ZM211.166 27.26C211.433 27.26 211.666 27.3533 211.866 27.54C212.08 27.7133 212.186 27.9933 212.186 28.38C212.186 28.7533 212.08 29.0333 211.866 29.22C211.666 29.4067 211.433 29.5 211.166 29.5C210.873 29.5 210.626 29.4067 210.426 29.22C210.226 29.0333 210.126 28.7533 210.126 28.38C210.126 27.9933 210.226 27.7133 210.426 27.54C210.626 27.3533 210.873 27.26 211.166 27.26ZM212.026 31.28V42H210.266V31.28H212.026ZM219.223 31.08C219.929 31.08 220.563 31.2133 221.123 31.48C221.696 31.7467 222.183 32.1533 222.583 32.7H222.683L222.923 31.28H224.323V42.18C224.323 43.7133 223.929 44.8667 223.143 45.64C222.369 46.4133 221.163 46.8 219.523 46.8C217.949 46.8 216.663 46.5733 215.663 46.12V44.5C216.716 45.06 218.036 45.34 219.623 45.34C220.543 45.34 221.263 45.0667 221.783 44.52C222.316 43.9867 222.583 43.2533 222.583 42.32V41.9C222.583 41.74 222.589 41.5133 222.603 41.22C222.616 40.9133 222.629 40.7 222.643 40.58H222.563C221.843 41.66 220.736 42.2 219.243 42.2C217.856 42.2 216.769 41.7133 215.983 40.74C215.209 39.7667 214.823 38.4067 214.823 36.66C214.823 34.9533 215.209 33.6 215.983 32.6C216.769 31.5867 217.849 31.08 219.223 31.08ZM219.463 32.56C218.569 32.56 217.876 32.92 217.383 33.64C216.889 34.3467 216.643 35.36 216.643 36.68C216.643 38 216.883 39.0133 217.363 39.72C217.856 40.4133 218.569 40.76 219.503 40.76C220.583 40.76 221.369 40.4733 221.863 39.9C222.356 39.3133 222.603 38.3733 222.603 37.08V36.66C222.603 35.1933 222.349 34.1467 221.843 33.52C221.336 32.88 220.543 32.56 219.463 32.56ZM231.787 31.1C233.094 31.1 234.061 31.3867 234.687 31.96C235.314 32.5333 235.627 33.4467 235.627 34.7V42H234.347L234.007 40.48H233.927C233.461 41.0667 232.967 41.5 232.447 41.78C231.941 42.06 231.234 42.2 230.327 42.2C229.354 42.2 228.547 41.9467 227.907 41.44C227.267 40.92 226.947 40.1133 226.947 39.02C226.947 37.9533 227.367 37.1333 228.207 36.56C229.047 35.9733 230.341 35.6533 232.087 35.6L233.907 35.54V34.9C233.907 34.0067 233.714 33.3867 233.327 33.04C232.941 32.6933 232.394 32.52 231.687 32.52C231.127 32.52 230.594 32.6067 230.087 32.78C229.581 32.94 229.107 33.1267 228.667 33.34L228.127 32.02C228.594 31.7667 229.147 31.5533 229.787 31.38C230.427 31.1933 231.094 31.1 231.787 31.1ZM232.307 36.82C230.974 36.8733 230.047 37.0867 229.527 37.46C229.021 37.8333 228.767 38.36 228.767 39.04C228.767 39.64 228.947 40.08 229.307 40.36C229.681 40.64 230.154 40.78 230.727 40.78C231.634 40.78 232.387 40.5333 232.987 40.04C233.587 39.5333 233.887 38.76 233.887 37.72V36.76L232.307 36.82ZM242.518 40.76C242.785 40.76 243.058 40.74 243.338 40.7C243.618 40.6467 243.845 40.5933 244.018 40.54V41.88C243.832 41.9733 243.565 42.0467 243.218 42.1C242.872 42.1667 242.538 42.2 242.218 42.2C241.658 42.2 241.138 42.1067 240.658 41.92C240.192 41.72 239.812 41.38 239.518 40.9C239.225 40.42 239.078 39.7467 239.078 38.88V32.64H237.558V31.8L239.098 31.1L239.798 28.82H240.838V31.28H243.938V32.64H240.838V38.84C240.838 39.4933 240.992 39.98 241.298 40.3C241.618 40.6067 242.025 40.76 242.518 40.76ZM255.485 36.62C255.485 38.3933 255.032 39.7667 254.125 40.74C253.232 41.7133 252.018 42.2 250.485 42.2C249.538 42.2 248.692 41.9867 247.945 41.56C247.212 41.12 246.632 40.4867 246.205 39.66C245.778 38.82 245.565 37.8067 245.565 36.62C245.565 34.8467 246.012 33.48 246.905 32.52C247.798 31.56 249.012 31.08 250.545 31.08C251.518 31.08 252.372 31.3 253.105 31.74C253.852 32.1667 254.432 32.7933 254.845 33.62C255.272 34.4333 255.485 35.4333 255.485 36.62ZM247.385 36.62C247.385 37.8867 247.632 38.8933 248.125 39.64C248.632 40.3733 249.432 40.74 250.525 40.74C251.605 40.74 252.398 40.3733 252.905 39.64C253.412 38.8933 253.665 37.8867 253.665 36.62C253.665 35.3533 253.412 34.36 252.905 33.64C252.398 32.92 251.598 32.56 250.505 32.56C249.412 32.56 248.618 32.92 248.125 33.64C247.632 34.36 247.385 35.3533 247.385 36.62ZM259.174 27.26C259.441 27.26 259.674 27.3533 259.874 27.54C260.088 27.7133 260.194 27.9933 260.194 28.38C260.194 28.7533 260.088 29.0333 259.874 29.22C259.674 29.4067 259.441 29.5 259.174 29.5C258.881 29.5 258.634 29.4067 258.434 29.22C258.234 29.0333 258.134 28.7533 258.134 28.38C258.134 27.9933 258.234 27.7133 258.434 27.54C258.634 27.3533 258.881 27.26 259.174 27.26ZM260.034 31.28V42H258.274V31.28H260.034ZM268.43 31.08C268.63 31.08 268.844 31.0933 269.07 31.12C269.31 31.1333 269.517 31.16 269.69 31.2L269.47 32.82C269.297 32.78 269.104 32.7467 268.89 32.72C268.69 32.6933 268.497 32.68 268.31 32.68C267.764 32.68 267.25 32.8333 266.77 33.14C266.29 33.4333 265.904 33.8533 265.61 34.4C265.33 34.9333 265.19 35.56 265.19 36.28V42H263.43V31.28H264.87L265.07 33.24H265.15C265.497 32.6533 265.944 32.1467 266.49 31.72C267.037 31.2933 267.684 31.08 268.43 31.08ZM275.442 31.08C276.362 31.08 277.148 31.28 277.802 31.68C278.468 32.08 278.975 32.6467 279.322 33.38C279.682 34.1 279.862 34.9467 279.862 35.92V36.98H272.522C272.548 38.1933 272.855 39.12 273.442 39.76C274.042 40.3867 274.875 40.7 275.942 40.7C276.622 40.7 277.222 40.64 277.742 40.52C278.275 40.3867 278.822 40.2 279.382 39.96V41.5C278.835 41.74 278.295 41.9133 277.762 42.02C277.228 42.14 276.595 42.2 275.862 42.2C274.848 42.2 273.948 41.9933 273.162 41.58C272.388 41.1667 271.782 40.5533 271.342 39.74C270.915 38.9133 270.702 37.9067 270.702 36.72C270.702 35.5467 270.895 34.54 271.282 33.7C271.682 32.86 272.235 32.2133 272.942 31.76C273.662 31.3067 274.495 31.08 275.442 31.08ZM275.422 32.52C274.582 32.52 273.915 32.7933 273.422 33.34C272.942 33.8733 272.655 34.62 272.562 35.58H278.022C278.008 34.6733 277.795 33.94 277.382 33.38C276.968 32.8067 276.315 32.52 275.422 32.52ZM286.091 36.52C286.091 38.1333 285.851 39.6867 285.371 41.18C284.904 42.66 284.164 43.9867 283.151 45.16H281.511C282.431 43.9067 283.124 42.54 283.591 41.06C284.071 39.5667 284.311 38.0467 284.311 36.5C284.311 34.9133 284.071 33.3667 283.591 31.86C283.124 30.3533 282.424 28.9733 281.491 27.72H283.151C284.164 28.9333 284.904 30.3 285.371 31.82C285.851 33.3267 286.091 34.8933 286.091 36.52Z" fill="#333333"/>
<path d="M78.46 74H76.66V61.3H72.2V59.72H82.9V61.3H78.46V74ZM87.547 63.08C88.467 63.08 89.2537 63.28 89.907 63.68C90.5737 64.08 91.0804 64.6467 91.427 65.38C91.787 66.1 91.967 66.9467 91.967 67.92V68.98H84.627C84.6537 70.1933 84.9604 71.12 85.547 71.76C86.147 72.3867 86.9804 72.7 88.047 72.7C88.727 72.7 89.327 72.64 89.847 72.52C90.3804 72.3867 90.927 72.2 91.487 71.96V73.5C90.9404 73.74 90.4004 73.9133 89.867 74.02C89.3337 74.14 88.7004 74.2 87.967 74.2C86.9537 74.2 86.0537 73.9933 85.267 73.58C84.4937 73.1667 83.887 72.5533 83.447 71.74C83.0204 70.9133 82.807 69.9067 82.807 68.72C82.807 67.5467 83.0004 66.54 83.387 65.7C83.787 64.86 84.3404 64.2133 85.047 63.76C85.767 63.3067 86.6004 63.08 87.547 63.08ZM87.527 64.52C86.687 64.52 86.0204 64.7933 85.527 65.34C85.047 65.8733 84.7604 66.62 84.667 67.58H90.127C90.1137 66.6733 89.9004 65.94 89.487 65.38C89.0737 64.8067 88.4204 64.52 87.527 64.52ZM96.8455 68.52L93.1455 63.28H95.1455L97.9055 67.32L100.645 63.28H102.625L98.9255 68.52L102.825 74H100.825L97.9055 69.72L94.9455 74H92.9655L96.8455 68.52ZM108.471 72.76C108.738 72.76 109.011 72.74 109.291 72.7C109.571 72.6467 109.798 72.5933 109.971 72.54V73.88C109.785 73.9733 109.518 74.0467 109.171 74.1C108.825 74.1667 108.491 74.2 108.171 74.2C107.611 74.2 107.091 74.1067 106.611 73.92C106.145 73.72 105.765 73.38 105.471 72.9C105.178 72.42 105.031 71.7467 105.031 70.88V64.64H103.511V63.8L105.051 63.1L105.751 60.82H106.791V63.28H109.891V64.64H106.791V70.84C106.791 71.4933 106.945 71.98 107.251 72.3C107.571 72.6067 107.978 72.76 108.471 72.76ZM116.258 63.08C117.178 63.08 117.965 63.28 118.618 63.68C119.285 64.08 119.791 64.6467 120.138 65.38C120.498 66.1 120.678 66.9467 120.678 67.92V68.98H113.338C113.365 70.1933 113.671 71.12 114.258 71.76C114.858 72.3867 115.691 72.7 116.758 72.7C117.438 72.7 118.038 72.64 118.558 72.52C119.091 72.3867 119.638 72.2 120.198 71.96V73.5C119.651 73.74 119.111 73.9133 118.578 74.02C118.045 74.14 117.411 74.2 116.678 74.2C115.665 74.2 114.765 73.9933 113.978 73.58C113.205 73.1667 112.598 72.5533 112.158 71.74C111.731 70.9133 111.518 69.9067 111.518 68.72C111.518 67.5467 111.711 66.54 112.098 65.7C112.498 64.86 113.051 64.2133 113.758 63.76C114.478 63.3067 115.311 63.08 116.258 63.08ZM116.238 64.52C115.398 64.52 114.731 64.7933 114.238 65.34C113.758 65.8733 113.471 66.62 113.378 67.58H118.838C118.825 66.6733 118.611 65.94 118.198 65.38C117.785 64.8067 117.131 64.52 116.238 64.52ZM132.742 63.08C133.662 63.08 134.449 63.28 135.102 63.68C135.769 64.08 136.276 64.6467 136.622 65.38C136.982 66.1 137.162 66.9467 137.162 67.92V68.98H129.822C129.849 70.1933 130.156 71.12 130.742 71.76C131.342 72.3867 132.176 72.7 133.242 72.7C133.922 72.7 134.522 72.64 135.042 72.52C135.576 72.3867 136.122 72.2 136.682 71.96V73.5C136.136 73.74 135.596 73.9133 135.062 74.02C134.529 74.14 133.896 74.2 133.162 74.2C132.149 74.2 131.249 73.9933 130.462 73.58C129.689 73.1667 129.082 72.5533 128.642 71.74C128.216 70.9133 128.002 69.9067 128.002 68.72C128.002 67.5467 128.196 66.54 128.582 65.7C128.982 64.86 129.536 64.2133 130.242 63.76C130.962 63.3067 131.796 63.08 132.742 63.08ZM132.722 64.52C131.882 64.52 131.216 64.7933 130.722 65.34C130.242 65.8733 129.956 66.62 129.862 67.58H135.322C135.309 66.6733 135.096 65.94 134.682 65.38C134.269 64.8067 133.616 64.52 132.722 64.52ZM142.041 68.52L138.341 63.28H140.341L143.101 67.32L145.841 63.28H147.821L144.121 68.52L148.021 74H146.021L143.101 69.72L140.141 74H138.161L142.041 68.52ZM155.187 63.08C156.507 63.08 157.567 63.54 158.367 64.46C159.18 65.38 159.587 66.7667 159.587 68.62C159.587 70.4467 159.18 71.8333 158.367 72.78C157.567 73.7267 156.5 74.2 155.167 74.2C154.34 74.2 153.653 74.0467 153.107 73.74C152.573 73.42 152.153 73.0533 151.847 72.64H151.727C151.753 72.8667 151.78 73.1533 151.807 73.5C151.833 73.8467 151.847 74.1467 151.847 74.4V78.8H150.087V63.28H151.527L151.767 64.74H151.847C152.167 64.2733 152.587 63.88 153.107 63.56C153.627 63.24 154.32 63.08 155.187 63.08ZM154.867 64.56C153.773 64.56 153 64.8667 152.547 65.48C152.107 66.0933 151.873 67.0267 151.847 68.28V68.62C151.847 69.94 152.06 70.96 152.487 71.68C152.927 72.3867 153.733 72.74 154.907 72.74C155.56 72.74 156.093 72.56 156.507 72.2C156.933 71.84 157.247 71.3533 157.447 70.74C157.66 70.1133 157.767 69.4 157.767 68.6C157.767 67.3733 157.527 66.3933 157.047 65.66C156.58 64.9267 155.853 64.56 154.867 64.56ZM164.151 74H162.391V58.8H164.151V74ZM168.448 59.26C168.714 59.26 168.948 59.3533 169.148 59.54C169.361 59.7133 169.468 59.9933 169.468 60.38C169.468 60.7533 169.361 61.0333 169.148 61.22C168.948 61.4067 168.714 61.5 168.448 61.5C168.154 61.5 167.908 61.4067 167.708 61.22C167.508 61.0333 167.408 60.7533 167.408 60.38C167.408 59.9933 167.508 59.7133 167.708 59.54C167.908 59.3533 168.154 59.26 168.448 59.26ZM169.308 63.28V74H167.548V63.28H169.308ZM177.004 74.2C176.057 74.2 175.211 74.0067 174.464 73.62C173.731 73.2333 173.151 72.6333 172.724 71.82C172.311 71.0067 172.104 69.9667 172.104 68.7C172.104 67.38 172.324 66.3067 172.764 65.48C173.204 64.6533 173.797 64.0467 174.544 63.66C175.304 63.2733 176.164 63.08 177.124 63.08C177.671 63.08 178.197 63.14 178.704 63.26C179.211 63.3667 179.624 63.5 179.944 63.66L179.404 65.12C179.084 65 178.711 64.8867 178.284 64.78C177.857 64.6733 177.457 64.62 177.084 64.62C174.977 64.62 173.924 65.9733 173.924 68.68C173.924 69.9733 174.177 70.9667 174.684 71.66C175.204 72.34 175.971 72.68 176.984 72.68C177.571 72.68 178.084 72.62 178.524 72.5C178.977 72.38 179.391 72.2333 179.764 72.06V73.62C179.404 73.8067 179.004 73.9467 178.564 74.04C178.137 74.1467 177.617 74.2 177.004 74.2ZM186.373 63.1C187.68 63.1 188.647 63.3867 189.273 63.96C189.9 64.5333 190.213 65.4467 190.213 66.7V74H188.933L188.593 72.48H188.513C188.047 73.0667 187.553 73.5 187.033 73.78C186.527 74.06 185.82 74.2 184.913 74.2C183.94 74.2 183.133 73.9467 182.493 73.44C181.853 72.92 181.533 72.1133 181.533 71.02C181.533 69.9533 181.953 69.1333 182.793 68.56C183.633 67.9733 184.927 67.6533 186.673 67.6L188.493 67.54V66.9C188.493 66.0067 188.3 65.3867 187.913 65.04C187.527 64.6933 186.98 64.52 186.273 64.52C185.713 64.52 185.18 64.6067 184.673 64.78C184.167 64.94 183.693 65.1267 183.253 65.34L182.713 64.02C183.18 63.7667 183.733 63.5533 184.373 63.38C185.013 63.1933 185.68 63.1 186.373 63.1ZM186.893 68.82C185.56 68.8733 184.633 69.0867 184.113 69.46C183.607 69.8333 183.353 70.36 183.353 71.04C183.353 71.64 183.533 72.08 183.893 72.36C184.267 72.64 184.74 72.78 185.313 72.78C186.22 72.78 186.973 72.5333 187.573 72.04C188.173 71.5333 188.473 70.76 188.473 69.72V68.76L186.893 68.82ZM197.104 72.76C197.371 72.76 197.644 72.74 197.924 72.7C198.204 72.6467 198.431 72.5933 198.604 72.54V73.88C198.418 73.9733 198.151 74.0467 197.804 74.1C197.458 74.1667 197.124 74.2 196.804 74.2C196.244 74.2 195.724 74.1067 195.244 73.92C194.778 73.72 194.398 73.38 194.104 72.9C193.811 72.42 193.664 71.7467 193.664 70.88V64.64H192.144V63.8L193.684 63.1L194.384 60.82H195.424V63.28H198.524V64.64H195.424V70.84C195.424 71.4933 195.578 71.98 195.884 72.3C196.204 72.6067 196.611 72.76 197.104 72.76ZM201.651 59.26C201.917 59.26 202.151 59.3533 202.351 59.54C202.564 59.7133 202.671 59.9933 202.671 60.38C202.671 60.7533 202.564 61.0333 202.351 61.22C202.151 61.4067 201.917 61.5 201.651 61.5C201.357 61.5 201.111 61.4067 200.911 61.22C200.711 61.0333 200.611 60.7533 200.611 60.38C200.611 59.9933 200.711 59.7133 200.911 59.54C201.111 59.3533 201.357 59.26 201.651 59.26ZM202.511 63.28V74H200.751V63.28H202.511ZM210.847 64.64H208.147V74H206.387V64.64H204.507V63.82L206.387 63.22V62.6C206.387 61.2133 206.694 60.22 207.307 59.62C207.92 59.0067 208.774 58.7 209.867 58.7C210.294 58.7 210.68 58.74 211.027 58.82C211.387 58.8867 211.694 58.9667 211.947 59.06L211.487 60.44C211.274 60.3733 211.027 60.3067 210.747 60.24C210.467 60.1733 210.18 60.14 209.887 60.14C209.3 60.14 208.86 60.34 208.567 60.74C208.287 61.1267 208.147 61.74 208.147 62.58V63.28H210.847V64.64Z" fill="#43474E"/>
<rect x="73" y="91" width="185" height="46" rx="5" fill="white"/>
<rect x="73" y="91" width="185" height="46" rx="5" stroke="#2B4380" stroke-width="2"/>
<path d="M92 109.38C91.2933 109.38 90.66 109.507 90.1 109.76C89.54 110 89.06 110.36 88.66 110.84C88.2733 111.32 87.9733 111.9 87.76 112.58C87.56 113.26 87.46 114.027 87.46 114.88C87.46 116 87.6267 116.973 87.96 117.8C88.2933 118.613 88.7933 119.24 89.46 119.68C90.1267 120.12 90.9667 120.34 91.98 120.34C92.5933 120.34 93.18 120.287 93.74 120.18C94.3133 120.06 94.8933 119.907 95.48 119.72V121.58C94.92 121.793 94.3467 121.947 93.76 122.04C93.1733 122.147 92.4933 122.2 91.72 122.2C90.2667 122.2 89.0533 121.9 88.08 121.3C87.12 120.7 86.4 119.847 85.92 118.74C85.44 117.633 85.2 116.34 85.2 114.86C85.2 113.78 85.3467 112.793 85.64 111.9C85.9467 110.993 86.3867 110.213 86.96 109.56C87.5333 108.907 88.24 108.407 89.08 108.06C89.9333 107.7 90.9133 107.52 92.02 107.52C92.74 107.52 93.4467 107.6 94.14 107.76C94.8333 107.907 95.46 108.12 96.02 108.4L95.22 110.2C94.7533 109.987 94.2467 109.8 93.7 109.64C93.1667 109.467 92.6 109.38 92 109.38ZM100.436 110.86C100.436 111.193 100.423 111.527 100.396 111.86C100.37 112.193 100.343 112.467 100.316 112.68H100.456C100.683 112.307 100.963 112 101.296 111.76C101.643 111.52 102.023 111.34 102.436 111.22C102.863 111.1 103.296 111.04 103.736 111.04C104.59 111.04 105.303 111.18 105.876 111.46C106.463 111.727 106.903 112.153 107.196 112.74C107.503 113.313 107.656 114.06 107.656 114.98V122H105.556V115.28C105.556 114.44 105.376 113.813 105.016 113.4C104.67 112.973 104.11 112.76 103.336 112.76C102.603 112.76 102.023 112.907 101.596 113.2C101.183 113.493 100.883 113.927 100.696 114.5C100.523 115.06 100.436 115.753 100.436 116.58V122H98.3163V106.8H100.436V110.86ZM120.414 116.6C120.414 117.493 120.294 118.287 120.054 118.98C119.814 119.673 119.474 120.26 119.034 120.74C118.594 121.22 118.061 121.587 117.434 121.84C116.807 122.08 116.101 122.2 115.314 122.2C114.594 122.2 113.927 122.08 113.314 121.84C112.701 121.587 112.167 121.22 111.714 120.74C111.274 120.26 110.927 119.673 110.674 118.98C110.421 118.287 110.294 117.487 110.294 116.58C110.294 115.393 110.494 114.387 110.894 113.56C111.307 112.733 111.894 112.107 112.654 111.68C113.427 111.24 114.334 111.02 115.374 111.02C116.361 111.02 117.227 111.24 117.974 111.68C118.734 112.107 119.327 112.733 119.754 113.56C120.194 114.387 120.414 115.4 120.414 116.6ZM112.474 116.6C112.474 117.4 112.574 118.093 112.774 118.68C112.974 119.253 113.287 119.693 113.714 120C114.141 120.307 114.687 120.46 115.354 120.46C116.021 120.46 116.567 120.307 116.994 120C117.421 119.693 117.734 119.253 117.934 118.68C118.134 118.093 118.234 117.4 118.234 116.6C118.234 115.773 118.127 115.08 117.914 114.52C117.714 113.96 117.401 113.533 116.974 113.24C116.561 112.933 116.014 112.78 115.334 112.78C114.334 112.78 113.607 113.113 113.154 113.78C112.701 114.447 112.474 115.387 112.474 116.6ZM125.221 111.22V122H123.101V111.22H125.221ZM124.181 107.12C124.501 107.12 124.781 107.213 125.021 107.4C125.261 107.587 125.381 107.9 125.381 108.34C125.381 108.767 125.261 109.08 125.021 109.28C124.781 109.467 124.501 109.56 124.181 109.56C123.835 109.56 123.541 109.467 123.301 109.28C123.075 109.08 122.961 108.767 122.961 108.34C122.961 107.9 123.075 107.587 123.301 107.4C123.541 107.213 123.835 107.12 124.181 107.12ZM135.711 118.96C135.711 119.667 135.537 120.26 135.191 120.74C134.844 121.22 134.344 121.587 133.691 121.84C133.037 122.08 132.251 122.2 131.331 122.2C130.571 122.2 129.917 122.14 129.371 122.02C128.837 121.913 128.344 121.753 127.891 121.54V119.68C128.371 119.907 128.924 120.113 129.551 120.3C130.177 120.473 130.791 120.56 131.391 120.56C132.191 120.56 132.764 120.433 133.111 120.18C133.471 119.927 133.651 119.587 133.651 119.16C133.651 118.92 133.584 118.707 133.451 118.52C133.317 118.32 133.064 118.12 132.691 117.92C132.331 117.707 131.797 117.467 131.091 117.2C130.411 116.92 129.831 116.647 129.351 116.38C128.871 116.1 128.504 115.773 128.251 115.4C127.997 115.013 127.871 114.52 127.871 113.92C127.871 112.987 128.244 112.273 128.991 111.78C129.751 111.273 130.751 111.02 131.991 111.02C132.644 111.02 133.257 111.087 133.831 111.22C134.417 111.34 134.984 111.527 135.531 111.78L134.831 113.4C134.524 113.253 134.204 113.133 133.871 113.04C133.551 112.933 133.224 112.847 132.891 112.78C132.571 112.713 132.237 112.68 131.891 112.68C131.251 112.68 130.764 112.78 130.431 112.98C130.097 113.18 129.931 113.46 129.931 113.82C129.931 114.073 130.004 114.293 130.151 114.48C130.311 114.667 130.584 114.853 130.971 115.04C131.357 115.227 131.884 115.453 132.551 115.72C133.217 115.973 133.784 116.233 134.251 116.5C134.731 116.767 135.091 117.093 135.331 117.48C135.584 117.867 135.711 118.36 135.711 118.96ZM140.358 111.22V122H138.238V111.22H140.358ZM139.318 107.12C139.638 107.12 139.918 107.213 140.158 107.4C140.398 107.587 140.518 107.9 140.518 108.34C140.518 108.767 140.398 109.08 140.158 109.28C139.918 109.467 139.638 109.56 139.318 109.56C138.971 109.56 138.678 109.467 138.438 109.28C138.211 109.08 138.098 108.767 138.098 108.34C138.098 107.9 138.211 107.587 138.438 107.4C138.678 107.213 138.971 107.12 139.318 107.12ZM149.007 111.02C149.194 111.02 149.401 111.033 149.627 111.06C149.854 111.073 150.041 111.093 150.187 111.12L149.967 113.1C149.821 113.06 149.647 113.027 149.447 113C149.247 112.973 149.061 112.96 148.887 112.96C148.487 112.96 148.101 113.04 147.727 113.2C147.367 113.347 147.041 113.567 146.747 113.86C146.454 114.14 146.221 114.487 146.047 114.9C145.887 115.313 145.807 115.787 145.807 116.32V122H143.687V111.22H145.367L145.647 113.14H145.727C145.954 112.753 146.227 112.4 146.547 112.08C146.867 111.76 147.234 111.507 147.647 111.32C148.061 111.12 148.514 111.02 149.007 111.02ZM166.659 111.22V122H164.959L164.659 120.58H164.559C164.332 120.953 164.039 121.26 163.679 121.5C163.319 121.74 162.925 121.913 162.499 122.02C162.072 122.14 161.632 122.2 161.179 122.2C160.339 122.2 159.625 122.067 159.039 121.8C158.465 121.52 158.025 121.093 157.719 120.52C157.425 119.933 157.279 119.187 157.279 118.28V111.22H159.419V117.96C159.419 118.8 159.592 119.427 159.939 119.84C160.299 120.253 160.852 120.46 161.599 120.46C162.345 120.46 162.932 120.313 163.359 120.02C163.785 119.727 164.085 119.3 164.259 118.74C164.445 118.167 164.539 117.48 164.539 116.68V111.22H166.659ZM175.436 111.02C176.69 111.02 177.65 111.333 178.316 111.96C178.983 112.587 179.316 113.593 179.316 114.98V122H177.216V115.28C177.216 114.44 177.036 113.813 176.676 113.4C176.33 112.973 175.77 112.76 174.996 112.76C173.903 112.76 173.143 113.087 172.716 113.74C172.303 114.393 172.096 115.333 172.096 116.56V122H169.976V111.22H171.656L171.956 112.66H172.076C172.316 112.287 172.61 111.98 172.956 111.74C173.303 111.5 173.69 111.32 174.116 111.2C174.543 111.08 174.983 111.02 175.436 111.02ZM193.029 112.84H190.369V122H188.249V112.84H186.429V111.84L188.249 111.18V110.5C188.249 109.58 188.389 108.847 188.669 108.3C188.963 107.74 189.376 107.333 189.909 107.08C190.443 106.827 191.089 106.7 191.849 106.7C192.316 106.7 192.743 106.74 193.129 106.82C193.516 106.9 193.843 106.987 194.109 107.08L193.569 108.7C193.356 108.633 193.109 108.573 192.829 108.52C192.549 108.453 192.256 108.42 191.949 108.42C191.416 108.42 191.016 108.593 190.749 108.94C190.496 109.287 190.369 109.813 190.369 110.52V111.22H193.029V112.84ZM197.029 111.22V122H194.909V111.22H197.029ZM195.989 107.12C196.309 107.12 196.589 107.213 196.829 107.4C197.069 107.587 197.189 107.9 197.189 108.34C197.189 108.767 197.069 109.08 196.829 109.28C196.589 109.467 196.309 109.56 195.989 109.56C195.643 109.56 195.349 109.467 195.109 109.28C194.883 109.08 194.769 108.767 194.769 108.34C194.769 107.9 194.883 107.587 195.109 107.4C195.349 107.213 195.643 107.12 195.989 107.12ZM204.688 122.2C203.701 122.2 202.834 122.007 202.088 121.62C201.341 121.233 200.761 120.633 200.348 119.82C199.934 118.993 199.728 117.947 199.728 116.68C199.728 115.347 199.948 114.267 200.388 113.44C200.841 112.613 201.448 112.007 202.208 111.62C202.981 111.22 203.861 111.02 204.848 111.02C205.448 111.02 206.008 111.087 206.528 111.22C207.061 111.34 207.501 111.48 207.848 111.64L207.208 113.36C206.834 113.213 206.434 113.087 206.008 112.98C205.594 112.873 205.201 112.82 204.828 112.82C204.161 112.82 203.608 112.967 203.168 113.26C202.741 113.54 202.421 113.967 202.208 114.54C202.008 115.1 201.908 115.807 201.908 116.66C201.908 117.473 202.014 118.16 202.228 118.72C202.441 119.28 202.754 119.707 203.168 120C203.594 120.28 204.121 120.42 204.748 120.42C205.348 120.42 205.874 120.353 206.328 120.22C206.781 120.087 207.208 119.913 207.608 119.7V121.54C207.221 121.767 206.801 121.933 206.348 122.04C205.894 122.147 205.341 122.2 204.688 122.2ZM212.272 110.86C212.272 111.193 212.259 111.527 212.232 111.86C212.206 112.193 212.179 112.467 212.152 112.68H212.292C212.519 112.307 212.799 112 213.132 111.76C213.479 111.52 213.859 111.34 214.272 111.22C214.699 111.1 215.132 111.04 215.572 111.04C216.426 111.04 217.139 111.18 217.712 111.46C218.299 111.727 218.739 112.153 219.032 112.74C219.339 113.313 219.492 114.06 219.492 114.98V122H217.392V115.28C217.392 114.44 217.212 113.813 216.852 113.4C216.506 112.973 215.946 112.76 215.172 112.76C214.439 112.76 213.859 112.907 213.432 113.2C213.019 113.493 212.719 113.927 212.532 114.5C212.359 115.06 212.272 115.753 212.272 116.58V122H210.152V106.8H212.272V110.86ZM224.87 111.22V122H222.75V111.22H224.87ZM223.83 107.12C224.15 107.12 224.43 107.213 224.67 107.4C224.91 107.587 225.03 107.9 225.03 108.34C225.03 108.767 224.91 109.08 224.67 109.28C224.43 109.467 224.15 109.56 223.83 109.56C223.483 109.56 223.19 109.467 222.95 109.28C222.723 109.08 222.61 108.767 222.61 108.34C222.61 107.9 222.723 107.587 222.95 107.4C223.19 107.213 223.483 107.12 223.83 107.12ZM232.439 111.02C233.386 111.02 234.199 111.22 234.879 111.62C235.559 112.007 236.079 112.567 236.439 113.3C236.812 114.033 236.999 114.9 236.999 115.9V117.06H229.759C229.786 118.167 230.072 119.013 230.619 119.6C231.179 120.187 231.959 120.48 232.959 120.48C233.652 120.48 234.266 120.42 234.799 120.3C235.346 120.167 235.906 119.973 236.479 119.72V121.48C235.946 121.72 235.399 121.9 234.839 122.02C234.292 122.14 233.639 122.2 232.879 122.2C231.839 122.2 230.919 121.993 230.119 121.58C229.319 121.167 228.692 120.553 228.239 119.74C227.799 118.913 227.579 117.9 227.579 116.7C227.579 115.487 227.779 114.46 228.179 113.62C228.592 112.78 229.159 112.14 229.879 111.7C230.612 111.247 231.466 111.02 232.439 111.02ZM232.439 112.66C231.679 112.66 231.066 112.907 230.599 113.4C230.146 113.893 229.879 114.593 229.799 115.5H234.879C234.879 114.94 234.792 114.447 234.619 114.02C234.446 113.593 234.179 113.26 233.819 113.02C233.459 112.78 232.999 112.66 232.439 112.66ZM244.964 111.02C245.151 111.02 245.358 111.033 245.584 111.06C245.811 111.073 245.998 111.093 246.144 111.12L245.924 113.1C245.778 113.06 245.604 113.027 245.404 113C245.204 112.973 245.018 112.96 244.844 112.96C244.444 112.96 244.058 113.04 243.684 113.2C243.324 113.347 242.998 113.567 242.704 113.86C242.411 114.14 242.178 114.487 242.004 114.9C241.844 115.313 241.764 115.787 241.764 116.32V122H239.644V111.22H241.324L241.604 113.14H241.684C241.911 112.753 242.184 112.4 242.504 112.08C242.824 111.76 243.191 111.507 243.604 111.32C244.018 111.12 244.471 111.02 244.964 111.02Z" fill="#2B4380"/>
<rect x="73" y="153" width="478" height="74" stroke="#7D828B" stroke-width="2"/>
<path d="M94.04 198H91.9V183.72H99.94V185.56H94.04V190.22H99.56V192.06H94.04V198ZM104.346 187.22V198H102.226V187.22H104.346ZM103.306 183.12C103.626 183.12 103.906 183.213 104.146 183.4C104.386 183.587 104.506 183.9 104.506 184.34C104.506 184.767 104.386 185.08 104.146 185.28C103.906 185.467 103.626 185.56 103.306 185.56C102.96 185.56 102.666 185.467 102.426 185.28C102.2 185.08 102.086 184.767 102.086 184.34C102.086 183.9 102.2 183.587 102.426 183.4C102.666 183.213 102.96 183.12 103.306 183.12ZM112.016 198.2C111.029 198.2 110.162 198.007 109.416 197.62C108.669 197.233 108.089 196.633 107.676 195.82C107.262 194.993 107.056 193.947 107.056 192.68C107.056 191.347 107.276 190.267 107.716 189.44C108.169 188.613 108.776 188.007 109.536 187.62C110.309 187.22 111.189 187.02 112.176 187.02C112.776 187.02 113.336 187.087 113.856 187.22C114.389 187.34 114.829 187.48 115.176 187.64L114.536 189.36C114.162 189.213 113.762 189.087 113.336 188.98C112.922 188.873 112.529 188.82 112.156 188.82C111.489 188.82 110.936 188.967 110.496 189.26C110.069 189.54 109.749 189.967 109.536 190.54C109.336 191.1 109.236 191.807 109.236 192.66C109.236 193.473 109.342 194.16 109.556 194.72C109.769 195.28 110.082 195.707 110.496 196C110.922 196.28 111.449 196.42 112.076 196.42C112.676 196.42 113.202 196.353 113.656 196.22C114.109 196.087 114.536 195.913 114.936 195.7V197.54C114.549 197.767 114.129 197.933 113.676 198.04C113.222 198.147 112.669 198.2 112.016 198.2ZM119.6 186.86C119.6 187.193 119.587 187.527 119.56 187.86C119.534 188.193 119.507 188.467 119.48 188.68H119.62C119.847 188.307 120.127 188 120.46 187.76C120.807 187.52 121.187 187.34 121.6 187.22C122.027 187.1 122.46 187.04 122.9 187.04C123.754 187.04 124.467 187.18 125.04 187.46C125.627 187.727 126.067 188.153 126.36 188.74C126.667 189.313 126.82 190.06 126.82 190.98V198H124.72V191.28C124.72 190.44 124.54 189.813 124.18 189.4C123.834 188.973 123.274 188.76 122.5 188.76C121.767 188.76 121.187 188.907 120.76 189.2C120.347 189.493 120.047 189.927 119.86 190.5C119.687 191.06 119.6 191.753 119.6 192.58V198H117.48V182.8H119.6V186.86ZM132.198 187.22V198H130.078V187.22H132.198ZM131.158 183.12C131.478 183.12 131.758 183.213 131.998 183.4C132.238 183.587 132.358 183.9 132.358 184.34C132.358 184.767 132.238 185.08 131.998 185.28C131.758 185.467 131.478 185.56 131.158 185.56C130.811 185.56 130.518 185.467 130.278 185.28C130.051 185.08 129.938 184.767 129.938 184.34C129.938 183.9 130.051 183.587 130.278 183.4C130.518 183.213 130.811 183.12 131.158 183.12ZM139.767 187.02C140.714 187.02 141.527 187.22 142.207 187.62C142.887 188.007 143.407 188.567 143.767 189.3C144.141 190.033 144.327 190.9 144.327 191.9V193.06H137.087C137.114 194.167 137.401 195.013 137.947 195.6C138.507 196.187 139.287 196.48 140.287 196.48C140.981 196.48 141.594 196.42 142.127 196.3C142.674 196.167 143.234 195.973 143.807 195.72V197.48C143.274 197.72 142.727 197.9 142.167 198.02C141.621 198.14 140.967 198.2 140.207 198.2C139.167 198.2 138.247 197.993 137.447 197.58C136.647 197.167 136.021 196.553 135.567 195.74C135.127 194.913 134.907 193.9 134.907 192.7C134.907 191.487 135.107 190.46 135.507 189.62C135.921 188.78 136.487 188.14 137.207 187.7C137.941 187.247 138.794 187.02 139.767 187.02ZM139.767 188.66C139.007 188.66 138.394 188.907 137.927 189.4C137.474 189.893 137.207 190.593 137.127 191.5H142.207C142.207 190.94 142.121 190.447 141.947 190.02C141.774 189.593 141.507 189.26 141.147 189.02C140.787 188.78 140.327 188.66 139.767 188.66ZM152.293 187.02C152.479 187.02 152.686 187.033 152.913 187.06C153.139 187.073 153.326 187.093 153.473 187.12L153.253 189.1C153.106 189.06 152.933 189.027 152.733 189C152.533 188.973 152.346 188.96 152.173 188.96C151.773 188.96 151.386 189.04 151.013 189.2C150.653 189.347 150.326 189.567 150.033 189.86C149.739 190.14 149.506 190.487 149.333 190.9C149.173 191.313 149.093 191.787 149.093 192.32V198H146.973V187.22H148.653L148.933 189.14H149.013C149.239 188.753 149.513 188.4 149.833 188.08C150.153 187.76 150.519 187.507 150.933 187.32C151.346 187.12 151.799 187.02 152.293 187.02ZM162.529 201.1H153.769V199.8H162.529V201.1ZM168.48 198.2C167.494 198.2 166.627 198.007 165.88 197.62C165.134 197.233 164.554 196.633 164.14 195.82C163.727 194.993 163.52 193.947 163.52 192.68C163.52 191.347 163.74 190.267 164.18 189.44C164.634 188.613 165.24 188.007 166 187.62C166.774 187.22 167.654 187.02 168.64 187.02C169.24 187.02 169.8 187.087 170.32 187.22C170.854 187.34 171.294 187.48 171.64 187.64L171 189.36C170.627 189.213 170.227 189.087 169.8 188.98C169.387 188.873 168.994 188.82 168.62 188.82C167.954 188.82 167.4 188.967 166.96 189.26C166.534 189.54 166.214 189.967 166 190.54C165.8 191.1 165.7 191.807 165.7 192.66C165.7 193.473 165.807 194.16 166.02 194.72C166.234 195.28 166.547 195.707 166.96 196C167.387 196.28 167.914 196.42 168.54 196.42C169.14 196.42 169.667 196.353 170.12 196.22C170.574 196.087 171 195.913 171.4 195.7V197.54C171.014 197.767 170.594 197.933 170.14 198.04C169.687 198.147 169.134 198.2 168.48 198.2ZM176.065 186.86C176.065 187.193 176.052 187.527 176.025 187.86C175.998 188.193 175.972 188.467 175.945 188.68H176.085C176.312 188.307 176.592 188 176.925 187.76C177.272 187.52 177.652 187.34 178.065 187.22C178.492 187.1 178.925 187.04 179.365 187.04C180.218 187.04 180.932 187.18 181.505 187.46C182.092 187.727 182.532 188.153 182.825 188.74C183.132 189.313 183.285 190.06 183.285 190.98V198H181.185V191.28C181.185 190.44 181.005 189.813 180.645 189.4C180.298 188.973 179.738 188.76 178.965 188.76C178.232 188.76 177.652 188.907 177.225 189.2C176.812 189.493 176.512 189.927 176.325 190.5C176.152 191.06 176.065 191.753 176.065 192.58V198H173.945V182.8H176.065V186.86ZM196.043 192.6C196.043 193.493 195.923 194.287 195.683 194.98C195.443 195.673 195.103 196.26 194.663 196.74C194.223 197.22 193.689 197.587 193.063 197.84C192.436 198.08 191.729 198.2 190.943 198.2C190.223 198.2 189.556 198.08 188.943 197.84C188.329 197.587 187.796 197.22 187.343 196.74C186.903 196.26 186.556 195.673 186.303 194.98C186.049 194.287 185.923 193.487 185.923 192.58C185.923 191.393 186.123 190.387 186.523 189.56C186.936 188.733 187.523 188.107 188.283 187.68C189.056 187.24 189.963 187.02 191.003 187.02C191.989 187.02 192.856 187.24 193.603 187.68C194.363 188.107 194.956 188.733 195.383 189.56C195.823 190.387 196.043 191.4 196.043 192.6ZM188.103 192.6C188.103 193.4 188.203 194.093 188.403 194.68C188.603 195.253 188.916 195.693 189.343 196C189.769 196.307 190.316 196.46 190.983 196.46C191.649 196.46 192.196 196.307 192.623 196C193.049 195.693 193.363 195.253 193.563 194.68C193.763 194.093 193.863 193.4 193.863 192.6C193.863 191.773 193.756 191.08 193.543 190.52C193.343 189.96 193.029 189.533 192.603 189.24C192.189 188.933 191.643 188.78 190.963 188.78C189.963 188.78 189.236 189.113 188.783 189.78C188.329 190.447 188.103 191.387 188.103 192.6ZM200.85 187.22V198H198.73V187.22H200.85ZM199.81 183.12C200.13 183.12 200.41 183.213 200.65 183.4C200.89 183.587 201.01 183.9 201.01 184.34C201.01 184.767 200.89 185.08 200.65 185.28C200.41 185.467 200.13 185.56 199.81 185.56C199.464 185.56 199.17 185.467 198.93 185.28C198.704 185.08 198.59 184.767 198.59 184.34C198.59 183.9 198.704 183.587 198.93 183.4C199.17 183.213 199.464 183.12 199.81 183.12ZM211.34 194.96C211.34 195.667 211.166 196.26 210.82 196.74C210.473 197.22 209.973 197.587 209.32 197.84C208.666 198.08 207.88 198.2 206.96 198.2C206.2 198.2 205.546 198.14 205 198.02C204.466 197.913 203.973 197.753 203.52 197.54V195.68C204 195.907 204.553 196.113 205.18 196.3C205.806 196.473 206.42 196.56 207.02 196.56C207.82 196.56 208.393 196.433 208.74 196.18C209.1 195.927 209.28 195.587 209.28 195.16C209.28 194.92 209.213 194.707 209.08 194.52C208.946 194.32 208.693 194.12 208.32 193.92C207.96 193.707 207.426 193.467 206.72 193.2C206.04 192.92 205.46 192.647 204.98 192.38C204.5 192.1 204.133 191.773 203.88 191.4C203.626 191.013 203.5 190.52 203.5 189.92C203.5 188.987 203.873 188.273 204.62 187.78C205.38 187.273 206.38 187.02 207.62 187.02C208.273 187.02 208.886 187.087 209.46 187.22C210.046 187.34 210.613 187.527 211.16 187.78L210.46 189.4C210.153 189.253 209.833 189.133 209.5 189.04C209.18 188.933 208.853 188.847 208.52 188.78C208.2 188.713 207.866 188.68 207.52 188.68C206.88 188.68 206.393 188.78 206.06 188.98C205.726 189.18 205.56 189.46 205.56 189.82C205.56 190.073 205.633 190.293 205.78 190.48C205.94 190.667 206.213 190.853 206.6 191.04C206.986 191.227 207.513 191.453 208.18 191.72C208.846 191.973 209.413 192.233 209.88 192.5C210.36 192.767 210.72 193.093 210.96 193.48C211.213 193.867 211.34 194.36 211.34 194.96ZM215.987 187.22V198H213.867V187.22H215.987ZM214.947 183.12C215.267 183.12 215.547 183.213 215.787 183.4C216.027 183.587 216.147 183.9 216.147 184.34C216.147 184.767 216.027 185.08 215.787 185.28C215.547 185.467 215.267 185.56 214.947 185.56C214.6 185.56 214.307 185.467 214.067 185.28C213.84 185.08 213.727 184.767 213.727 184.34C213.727 183.9 213.84 183.587 214.067 183.4C214.307 183.213 214.6 183.12 214.947 183.12ZM219.016 196.82C219.016 196.3 219.15 195.933 219.416 195.72C219.683 195.507 220.003 195.4 220.376 195.4C220.763 195.4 221.09 195.507 221.356 195.72C221.623 195.933 221.756 196.3 221.756 196.82C221.756 197.34 221.623 197.713 221.356 197.94C221.09 198.167 220.763 198.28 220.376 198.28C220.003 198.28 219.683 198.167 219.416 197.94C219.15 197.713 219.016 197.34 219.016 196.82ZM230.165 187.02C231.458 187.02 232.498 187.487 233.285 188.42C234.085 189.353 234.485 190.747 234.485 192.6C234.485 193.813 234.305 194.84 233.945 195.68C233.585 196.52 233.078 197.153 232.425 197.58C231.772 197.993 231.012 198.2 230.145 198.2C229.598 198.2 229.118 198.133 228.705 198C228.292 197.853 227.938 197.667 227.645 197.44C227.365 197.2 227.118 196.947 226.905 196.68H226.765C226.805 196.92 226.838 197.207 226.865 197.54C226.892 197.86 226.905 198.147 226.905 198.4V202.8H224.785V187.22H226.505L226.805 188.66H226.905C227.118 188.367 227.372 188.093 227.665 187.84C227.958 187.587 228.312 187.387 228.725 187.24C229.138 187.093 229.618 187.02 230.165 187.02ZM229.665 188.76C228.998 188.76 228.465 188.893 228.065 189.16C227.665 189.413 227.372 189.8 227.185 190.32C227.012 190.827 226.918 191.473 226.905 192.26V192.58C226.905 193.407 226.992 194.113 227.165 194.7C227.338 195.273 227.625 195.713 228.025 196.02C228.438 196.313 228.998 196.46 229.705 196.46C230.305 196.46 230.792 196.3 231.165 195.98C231.552 195.647 231.838 195.187 232.025 194.6C232.212 194.013 232.305 193.333 232.305 192.56C232.305 191.387 232.092 190.46 231.665 189.78C231.238 189.1 230.572 188.76 229.665 188.76ZM240.887 198.2C239.594 198.2 238.547 197.733 237.747 196.8C236.961 195.867 236.567 194.48 236.567 192.64C236.567 190.787 236.967 189.387 237.767 188.44C238.567 187.493 239.621 187.02 240.927 187.02C241.474 187.02 241.947 187.093 242.347 187.24C242.761 187.373 243.114 187.56 243.407 187.8C243.714 188.04 243.974 188.307 244.187 188.6H244.307C244.281 188.413 244.247 188.147 244.207 187.8C244.167 187.44 244.147 187.12 244.147 186.84V182.8H246.267V198H244.607L244.247 196.56H244.147C243.947 196.867 243.694 197.147 243.387 197.4C243.094 197.64 242.741 197.833 242.327 197.98C241.914 198.127 241.434 198.2 240.887 198.2ZM241.387 196.46C242.427 196.46 243.161 196.173 243.587 195.6C244.014 195.013 244.227 194.14 244.227 192.98V192.66C244.227 191.393 244.021 190.427 243.607 189.76C243.207 189.093 242.461 188.76 241.367 188.76C240.501 188.76 239.847 189.113 239.407 189.82C238.967 190.513 238.747 191.467 238.747 192.68C238.747 193.893 238.967 194.827 239.407 195.48C239.847 196.133 240.507 196.46 241.387 196.46ZM254.85 188.84H252.19V198H250.07V188.84H248.25V187.84L250.07 187.18V186.5C250.07 185.58 250.21 184.847 250.49 184.3C250.783 183.74 251.196 183.333 251.73 183.08C252.263 182.827 252.91 182.7 253.67 182.7C254.136 182.7 254.563 182.74 254.95 182.82C255.336 182.9 255.663 182.987 255.93 183.08L255.39 184.7C255.176 184.633 254.93 184.573 254.65 184.52C254.37 184.453 254.076 184.42 253.77 184.42C253.236 184.42 252.836 184.593 252.57 184.94C252.316 185.287 252.19 185.813 252.19 186.52V187.22H254.85V188.84Z" fill="#333333"/>
<path d="M412.1 194.14C412.1 194.993 411.893 195.72 411.48 196.32C411.067 196.92 410.473 197.387 409.7 197.72C408.927 198.04 408.007 198.2 406.94 198.2C406.42 198.2 405.92 198.167 405.44 198.1C404.96 198.047 404.513 197.967 404.1 197.86C403.687 197.753 403.32 197.62 403 197.46V195.42C403.533 195.66 404.16 195.88 404.88 196.08C405.6 196.267 406.333 196.36 407.08 196.36C407.72 196.36 408.253 196.273 408.68 196.1C409.107 195.927 409.427 195.687 409.64 195.38C409.853 195.073 409.96 194.713 409.96 194.3C409.96 193.86 409.847 193.493 409.62 193.2C409.407 192.893 409.067 192.613 408.6 192.36C408.147 192.093 407.533 191.813 406.76 191.52C406.227 191.32 405.74 191.1 405.3 190.86C404.873 190.607 404.493 190.313 404.16 189.98C403.84 189.647 403.593 189.26 403.42 188.82C403.247 188.38 403.16 187.867 403.16 187.28C403.16 186.493 403.353 185.82 403.74 185.26C404.14 184.7 404.687 184.273 405.38 183.98C406.073 183.673 406.88 183.52 407.8 183.52C408.573 183.52 409.287 183.6 409.94 183.76C410.607 183.907 411.24 184.113 411.84 184.38L411.16 186.16C410.613 185.933 410.06 185.747 409.5 185.6C408.94 185.453 408.353 185.38 407.74 185.38C407.207 185.38 406.76 185.46 406.4 185.62C406.04 185.78 405.767 186 405.58 186.28C405.407 186.56 405.32 186.887 405.32 187.26C405.32 187.7 405.42 188.067 405.62 188.36C405.82 188.653 406.14 188.927 406.58 189.18C407.02 189.42 407.6 189.687 408.32 189.98C409.12 190.287 409.8 190.62 410.36 190.98C410.933 191.34 411.367 191.773 411.66 192.28C411.953 192.773 412.1 193.393 412.1 194.14ZM423.936 187.22V198H422.236L421.936 196.58H421.836C421.609 196.953 421.316 197.26 420.956 197.5C420.596 197.74 420.203 197.913 419.776 198.02C419.349 198.14 418.909 198.2 418.456 198.2C417.616 198.2 416.903 198.067 416.316 197.8C415.743 197.52 415.303 197.093 414.996 196.52C414.703 195.933 414.556 195.187 414.556 194.28V187.22H416.696V193.96C416.696 194.8 416.869 195.427 417.216 195.84C417.576 196.253 418.129 196.46 418.876 196.46C419.623 196.46 420.209 196.313 420.636 196.02C421.063 195.727 421.363 195.3 421.536 194.74C421.723 194.167 421.816 193.48 421.816 192.68V187.22H423.936ZM432.634 187.02C433.927 187.02 434.967 187.487 435.754 188.42C436.554 189.353 436.954 190.747 436.954 192.6C436.954 193.813 436.774 194.84 436.414 195.68C436.054 196.52 435.547 197.153 434.894 197.58C434.24 197.993 433.48 198.2 432.614 198.2C432.067 198.2 431.587 198.133 431.174 198C430.76 197.853 430.407 197.667 430.114 197.44C429.834 197.2 429.587 196.947 429.374 196.68H429.234C429.274 196.92 429.307 197.207 429.334 197.54C429.36 197.86 429.374 198.147 429.374 198.4V202.8H427.254V187.22H428.974L429.274 188.66H429.374C429.587 188.367 429.84 188.093 430.134 187.84C430.427 187.587 430.78 187.387 431.194 187.24C431.607 187.093 432.087 187.02 432.634 187.02ZM432.134 188.76C431.467 188.76 430.934 188.893 430.534 189.16C430.134 189.413 429.84 189.8 429.654 190.32C429.48 190.827 429.387 191.473 429.374 192.26V192.58C429.374 193.407 429.46 194.113 429.634 194.7C429.807 195.273 430.094 195.713 430.494 196.02C430.907 196.313 431.467 196.46 432.174 196.46C432.774 196.46 433.26 196.3 433.634 195.98C434.02 195.647 434.307 195.187 434.494 194.6C434.68 194.013 434.774 193.333 434.774 192.56C434.774 191.387 434.56 190.46 434.134 189.78C433.707 189.1 433.04 188.76 432.134 188.76ZM445.036 187.02C446.329 187.02 447.369 187.487 448.156 188.42C448.956 189.353 449.356 190.747 449.356 192.6C449.356 193.813 449.176 194.84 448.816 195.68C448.456 196.52 447.949 197.153 447.296 197.58C446.643 197.993 445.883 198.2 445.016 198.2C444.469 198.2 443.989 198.133 443.576 198C443.163 197.853 442.809 197.667 442.516 197.44C442.236 197.2 441.989 196.947 441.776 196.68H441.636C441.676 196.92 441.709 197.207 441.736 197.54C441.763 197.86 441.776 198.147 441.776 198.4V202.8H439.656V187.22H441.376L441.676 188.66H441.776C441.989 188.367 442.243 188.093 442.536 187.84C442.829 187.587 443.183 187.387 443.596 187.24C444.009 187.093 444.489 187.02 445.036 187.02ZM444.536 188.76C443.869 188.76 443.336 188.893 442.936 189.16C442.536 189.413 442.243 189.8 442.056 190.32C441.883 190.827 441.789 191.473 441.776 192.26V192.58C441.776 193.407 441.863 194.113 442.036 194.7C442.209 195.273 442.496 195.713 442.896 196.02C443.309 196.313 443.869 196.46 444.576 196.46C445.176 196.46 445.663 196.3 446.036 195.98C446.423 195.647 446.709 195.187 446.896 194.6C447.083 194.013 447.176 193.333 447.176 192.56C447.176 191.387 446.963 190.46 446.536 189.78C446.109 189.1 445.443 188.76 444.536 188.76ZM457.378 187.02C457.565 187.02 457.772 187.033 457.998 187.06C458.225 187.073 458.412 187.093 458.558 187.12L458.338 189.1C458.192 189.06 458.018 189.027 457.818 189C457.618 188.973 457.432 188.96 457.258 188.96C456.858 188.96 456.472 189.04 456.098 189.2C455.738 189.347 455.412 189.567 455.118 189.86C454.825 190.14 454.592 190.487 454.418 190.9C454.258 191.313 454.178 191.787 454.178 192.32V198H452.058V187.22H453.738L454.018 189.14H454.098C454.325 188.753 454.598 188.4 454.918 188.08C455.238 187.76 455.605 187.507 456.018 187.32C456.432 187.12 456.885 187.02 457.378 187.02ZM462.675 187.22V198H460.555V187.22H462.675ZM461.635 183.12C461.955 183.12 462.235 183.213 462.475 183.4C462.715 183.587 462.835 183.9 462.835 184.34C462.835 184.767 462.715 185.08 462.475 185.28C462.235 185.467 461.955 185.56 461.635 185.56C461.288 185.56 460.995 185.467 460.755 185.28C460.528 185.08 460.415 184.767 460.415 184.34C460.415 183.9 460.528 183.587 460.755 183.4C460.995 183.213 461.288 183.12 461.635 183.12ZM478.084 187.02C479.297 187.02 480.21 187.333 480.824 187.96C481.437 188.587 481.744 189.593 481.744 190.98V198H479.624V191.26C479.624 190.433 479.457 189.813 479.124 189.4C478.804 188.973 478.297 188.76 477.604 188.76C476.644 188.76 475.957 189.06 475.544 189.66C475.13 190.247 474.924 191.1 474.924 192.22V198H472.824V191.26C472.824 190.713 472.744 190.253 472.584 189.88C472.437 189.507 472.217 189.227 471.924 189.04C471.63 188.853 471.25 188.76 470.784 188.76C470.117 188.76 469.59 188.907 469.204 189.2C468.817 189.493 468.537 189.927 468.364 190.5C468.204 191.06 468.124 191.747 468.124 192.56V198H466.004V187.22H467.684L467.984 188.66H468.104C468.33 188.287 468.604 187.98 468.924 187.74C469.257 187.5 469.624 187.32 470.024 187.2C470.424 187.08 470.837 187.02 471.264 187.02C472.077 187.02 472.764 187.167 473.324 187.46C473.884 187.74 474.29 188.173 474.544 188.76H474.704C475.05 188.16 475.53 187.72 476.144 187.44C476.757 187.16 477.404 187.02 478.084 187.02ZM489.228 187.02C490.175 187.02 490.988 187.22 491.668 187.62C492.348 188.007 492.868 188.567 493.228 189.3C493.601 190.033 493.788 190.9 493.788 191.9V193.06H486.548C486.575 194.167 486.861 195.013 487.408 195.6C487.968 196.187 488.748 196.48 489.748 196.48C490.441 196.48 491.055 196.42 491.588 196.3C492.135 196.167 492.695 195.973 493.268 195.72V197.48C492.735 197.72 492.188 197.9 491.628 198.02C491.081 198.14 490.428 198.2 489.668 198.2C488.628 198.2 487.708 197.993 486.908 197.58C486.108 197.167 485.481 196.553 485.028 195.74C484.588 194.913 484.368 193.9 484.368 192.7C484.368 191.487 484.568 190.46 484.968 189.62C485.381 188.78 485.948 188.14 486.668 187.7C487.401 187.247 488.255 187.02 489.228 187.02ZM489.228 188.66C488.468 188.66 487.855 188.907 487.388 189.4C486.935 189.893 486.668 190.593 486.588 191.5H491.668C491.668 190.94 491.581 190.447 491.408 190.02C491.235 189.593 490.968 189.26 490.608 189.02C490.248 188.78 489.788 188.66 489.228 188.66ZM501.753 187.02C501.94 187.02 502.147 187.033 502.373 187.06C502.6 187.073 502.787 187.093 502.933 187.12L502.713 189.1C502.567 189.06 502.393 189.027 502.193 189C501.993 188.973 501.807 188.96 501.633 188.96C501.233 188.96 500.847 189.04 500.473 189.2C500.113 189.347 499.787 189.567 499.493 189.86C499.2 190.14 498.967 190.487 498.793 190.9C498.633 191.313 498.553 191.787 498.553 192.32V198H496.433V187.22H498.113L498.393 189.14H498.473C498.7 188.753 498.973 188.4 499.293 188.08C499.613 187.76 499.98 187.507 500.393 187.32C500.807 187.12 501.26 187.02 501.753 187.02Z" fill="#A62A1E"/>
<path d="M402 200.5H426.25V201.5H402V200.5ZM430.375 200.5H438.656V201.5H430.375V200.5ZM442.773 200.5H503.273V201.5H442.773V200.5Z" fill="#A62A1E"/>
<path fill-rule="evenodd" clip-rule="evenodd" d="M518.532 190L512 183.468L513.468 182L520 188.532L526.532 182L528 183.468L521.468 190L528 196.532L526.532 198L520 191.468L513.468 198L512 196.532L518.532 190Z" fill="#A62A1E"/>
<g clip-path="url(#clip0_5534_68779)">
<rect x="20" y="37.5" width="48" height="1" fill="#C54600"/>
<g clip-path="url(#clip1_5534_68779)">
<rect x="20" y="25.5" width="24" height="24" rx="12" fill="#C54600"/>
<path d="M33.1825 32.7727V41.5H32.1257V33.8807H32.0746L29.9439 35.2955V34.2216L32.1257 32.7727H33.1825Z" fill="white"/>
</g>
</g>
<g clip-path="url(#clip2_5534_68779)">
<rect x="20" y="67.5" width="48" height="1" fill="#C54600"/>
<g clip-path="url(#clip3_5534_68779)">
<rect x="20" y="55.5" width="24" height="24" rx="12" fill="#C54600"/>
<path d="M29.2706 71.5V70.733L32.1513 67.5795C32.4893 67.2102 32.7678 66.8892 32.9865 66.6165C33.2053 66.3409 33.3672 66.0824 33.4723 65.8409C33.5803 65.5966 33.6342 65.3409 33.6342 65.0739C33.6342 64.767 33.5604 64.5014 33.4126 64.277C33.2678 64.0526 33.0689 63.8793 32.8161 63.7571C32.5632 63.6349 32.2791 63.5739 31.9638 63.5739C31.6286 63.5739 31.3359 63.6435 31.0859 63.7827C30.8388 63.919 30.647 64.1108 30.5107 64.358C30.3771 64.6051 30.3104 64.8949 30.3104 65.2273H29.3047C29.3047 64.7159 29.4226 64.267 29.6584 63.8807C29.8942 63.4943 30.2152 63.1932 30.6214 62.9773C31.0305 62.7614 31.4893 62.6534 31.9979 62.6534C32.5092 62.6534 32.9624 62.7614 33.3572 62.9773C33.7521 63.1932 34.0618 63.4844 34.2862 63.8509C34.5107 64.2173 34.6229 64.625 34.6229 65.0739C34.6229 65.3949 34.5646 65.7088 34.4482 66.0156C34.3345 66.3196 34.1357 66.6591 33.8516 67.0341C33.5703 67.4062 33.1797 67.8608 32.6797 68.3977L30.7195 70.4943V70.5625H34.7763V71.5H29.2706Z" fill="white"/>
</g>
</g>
<g clip-path="url(#clip4_5534_68779)">
<rect x="20" y="115.5" width="48" height="1" fill="#C54600"/>
<g clip-path="url(#clip5_5534_68779)">
<rect x="20" y="103.5" width="24" height="24" rx="12" fill="#C54600"/>
<path d="M32.032 119.619C31.4695 119.619 30.968 119.523 30.5277 119.33C30.0902 119.136 29.7422 118.868 29.4837 118.524C29.228 118.178 29.0888 117.776 29.0661 117.318H30.1399C30.1626 117.599 30.2592 117.842 30.4297 118.047C30.6001 118.249 30.8232 118.405 31.0987 118.516C31.3743 118.626 31.6797 118.682 32.0149 118.682C32.3899 118.682 32.7223 118.616 33.0121 118.486C33.3018 118.355 33.5291 118.173 33.6939 117.94C33.8587 117.707 33.9411 117.438 33.9411 117.131C33.9411 116.81 33.8615 116.527 33.7024 116.283C33.5433 116.036 33.3104 115.842 33.0036 115.703C32.6967 115.564 32.3217 115.494 31.8786 115.494H31.1797V114.557H31.8786C32.2251 114.557 32.5291 114.494 32.7905 114.369C33.0547 114.244 33.2607 114.068 33.4084 113.841C33.5589 113.614 33.6342 113.347 33.6342 113.04C33.6342 112.744 33.5689 112.487 33.4382 112.268C33.3075 112.05 33.1229 111.879 32.8842 111.757C32.6484 111.635 32.37 111.574 32.049 111.574C31.7479 111.574 31.4638 111.629 31.1967 111.74C30.9325 111.848 30.7166 112.006 30.549 112.213C30.3814 112.418 30.2905 112.665 30.2763 112.955H29.2536C29.2706 112.497 29.4084 112.097 29.6669 111.753C29.9254 111.406 30.2635 111.136 30.6811 110.943C31.1016 110.75 31.5632 110.653 32.0661 110.653C32.6058 110.653 33.0689 110.763 33.4553 110.982C33.8416 111.197 34.1385 111.483 34.3459 111.838C34.5533 112.193 34.657 112.577 34.657 112.989C34.657 113.48 34.5277 113.899 34.2692 114.246C34.0135 114.592 33.6655 114.832 33.2251 114.966V115.034C33.7763 115.125 34.2067 115.359 34.5163 115.737C34.826 116.112 34.9808 116.577 34.9808 117.131C34.9808 117.605 34.8516 118.031 34.593 118.409C34.3374 118.784 33.9879 119.08 33.5447 119.295C33.1016 119.511 32.5973 119.619 32.032 119.619Z" fill="white"/>
</g>
</g>
<g clip-path="url(#clip6_5534_68779)">
<rect x="20" y="191.5" width="48" height="1" fill="#C54600"/>
<g clip-path="url(#clip7_5534_68779)">
<rect x="20" y="179.5" width="24" height="24" rx="12" fill="#C54600"/>
<path d="M28.8493 193.71V192.841L32.6845 186.773H33.3152V188.119H32.889L29.9913 192.705V192.773H35.1561V193.71H28.8493ZM32.9572 195.5V193.446V193.041V186.773H33.9629V195.5H32.9572Z" fill="white"/>
</g>
</g>
<g clip-path="url(#clip8_5534_68779)">
<rect x="529" y="189.5" width="90" height="1" fill="#C54600"/>
<g clip-path="url(#clip9_5534_68779)">
<rect x="595" y="177.5" width="24" height="24" rx="12" fill="#C54600"/>
<path d="M607.057 193.619C606.699 193.614 606.341 193.545 605.983 193.415C605.625 193.284 605.298 193.064 605.003 192.754C604.708 192.442 604.47 192.02 604.291 191.489C604.112 190.955 604.023 190.284 604.023 189.477C604.023 188.705 604.095 188.02 604.24 187.423C604.385 186.824 604.595 186.32 604.871 185.911C605.146 185.499 605.479 185.186 605.868 184.973C606.26 184.76 606.702 184.653 607.193 184.653C607.682 184.653 608.117 184.751 608.497 184.947C608.881 185.141 609.193 185.411 609.435 185.757C609.676 186.104 609.833 186.503 609.904 186.955H608.864C608.767 186.562 608.58 186.237 608.301 185.979C608.023 185.72 607.654 185.591 607.193 185.591C606.517 185.591 605.985 185.885 605.595 186.473C605.209 187.061 605.014 187.886 605.012 188.949H605.08C605.239 188.707 605.428 188.501 605.646 188.331C605.868 188.158 606.112 188.024 606.379 187.93C606.646 187.837 606.929 187.79 607.227 187.79C607.727 187.79 608.185 187.915 608.6 188.165C609.014 188.412 609.347 188.754 609.597 189.192C609.847 189.626 609.972 190.125 609.972 190.688C609.972 191.227 609.851 191.722 609.61 192.17C609.368 192.616 609.029 192.972 608.591 193.236C608.156 193.497 607.645 193.625 607.057 193.619ZM607.057 192.682C607.415 192.682 607.736 192.592 608.02 192.413C608.307 192.234 608.533 191.994 608.698 191.693C608.865 191.392 608.949 191.057 608.949 190.688C608.949 190.327 608.868 189.999 608.706 189.703C608.547 189.405 608.327 189.168 608.046 188.991C607.767 188.815 607.449 188.727 607.091 188.727C606.821 188.727 606.57 188.781 606.337 188.889C606.104 188.994 605.899 189.139 605.723 189.324C605.55 189.509 605.414 189.72 605.314 189.959C605.215 190.195 605.165 190.443 605.165 190.705C605.165 191.051 605.246 191.375 605.408 191.676C605.573 191.977 605.797 192.22 606.081 192.405C606.368 192.589 606.693 192.682 607.057 192.682Z" fill="white"/>
</g>
</g>
<g clip-path="url(#clip10_5534_68779)">
<g clip-path="url(#clip11_5534_68779)">
<rect x="149" y="242.3" width="24" height="24" rx="12" fill="#C54600"/>
<path d="M160.98 258.419C160.48 258.419 160.03 258.32 159.629 258.121C159.229 257.922 158.908 257.649 158.666 257.303C158.425 256.956 158.293 256.561 158.27 256.118H159.293C159.333 256.513 159.512 256.84 159.83 257.098C160.151 257.354 160.534 257.482 160.98 257.482C161.338 257.482 161.656 257.398 161.935 257.23C162.216 257.063 162.436 256.833 162.595 256.54C162.757 256.245 162.838 255.911 162.838 255.539C162.838 255.158 162.754 254.819 162.587 254.52C162.422 254.219 162.195 253.982 161.905 253.809C161.615 253.635 161.284 253.547 160.912 253.544C160.645 253.542 160.371 253.583 160.09 253.668C159.808 253.75 159.577 253.857 159.395 253.988L158.406 253.868L158.935 249.573H163.469V250.51H159.821L159.514 253.084H159.566C159.744 252.942 159.969 252.824 160.239 252.73C160.509 252.637 160.79 252.59 161.083 252.59C161.617 252.59 162.093 252.718 162.51 252.973C162.931 253.226 163.26 253.573 163.499 254.013C163.74 254.453 163.861 254.956 163.861 255.522C163.861 256.078 163.736 256.576 163.486 257.013C163.239 257.448 162.898 257.792 162.463 258.044C162.029 258.294 161.534 258.419 160.98 258.419Z" fill="white"/>
</g>
</g>
<rect width="1" height="31" transform="matrix(1 0 0 -1 161 242.5)" fill="#C54600"/>
<defs>
<clipPath id="clip0_5534_68779">
<rect width="48" height="24" fill="white" transform="translate(20 25.5)"/>
</clipPath>
<clipPath id="clip1_5534_68779">
<rect x="20" y="25.5" width="24" height="24" rx="12" fill="white"/>
</clipPath>
<clipPath id="clip2_5534_68779">
<rect width="48" height="24" fill="white" transform="translate(20 55.5)"/>
</clipPath>
<clipPath id="clip3_5534_68779">
<rect x="20" y="55.5" width="24" height="24" rx="12" fill="white"/>
</clipPath>
<clipPath id="clip4_5534_68779">
<rect width="48" height="24" fill="white" transform="translate(20 103.5)"/>
</clipPath>
<clipPath id="clip5_5534_68779">
<rect x="20" y="103.5" width="24" height="24" rx="12" fill="white"/>
</clipPath>
<clipPath id="clip6_5534_68779">
<rect width="48" height="24" fill="white" transform="translate(20 179.5)"/>
</clipPath>
<clipPath id="clip7_5534_68779">
<rect x="20" y="179.5" width="24" height="24" rx="12" fill="white"/>
</clipPath>
<clipPath id="clip8_5534_68779">
<rect width="90" height="24" fill="white" transform="translate(534 177.5)"/>
</clipPath>
<clipPath id="clip9_5534_68779">
<rect x="595" y="177.5" width="24" height="24" rx="12" fill="white"/>
</clipPath>
<clipPath id="clip10_5534_68779">
<rect width="24" height="24" fill="white" transform="translate(149 242.5)"/>
</clipPath>
<clipPath id="clip11_5534_68779">
<rect x="149" y="242.3" width="24" height="24" rx="12" fill="white"/>
</clipPath>
</defs>
</svg>
