<svg width="454" height="263" viewBox="0 0 454 263" fill="none" xmlns="http://www.w3.org/2000/svg">
<rect x="91" y="69" width="46" height="46" rx="3" stroke="#2B4380" stroke-width="2"/>
<path d="M115.546 99H113.656V90.468C113.656 90.168 113.656 89.892 113.656 89.64C113.668 89.376 113.68 89.124 113.692 88.884C113.704 88.632 113.716 88.392 113.728 88.164C113.572 88.32 113.41 88.47 113.242 88.614C113.074 88.758 112.882 88.926 112.666 89.118L111.262 90.252L110.29 89.028L113.962 86.148H115.546V99Z" fill="#284162"/>
<path d="M108.85 101.5H119.146V102.5H108.85V101.5Z" fill="#284162"/>
<rect x="148" y="69" width="46" height="46" rx="3" fill="#26374A"/>
<rect x="148" y="69" width="46" height="46" rx="3" stroke="#2B4380" stroke-width="2"/>
<path d="M175.318 99H166.678V97.524L169.99 94.158C170.638 93.498 171.178 92.928 171.61 92.448C172.042 91.956 172.366 91.488 172.582 91.044C172.798 90.588 172.906 90.096 172.906 89.568C172.906 88.908 172.714 88.416 172.33 88.092C171.946 87.756 171.448 87.588 170.836 87.588C170.248 87.588 169.72 87.702 169.252 87.93C168.784 88.146 168.298 88.452 167.794 88.848L166.768 87.57C167.116 87.27 167.488 87 167.884 86.76C168.292 86.52 168.742 86.328 169.234 86.184C169.738 86.04 170.29 85.968 170.89 85.968C171.706 85.968 172.408 86.112 172.996 86.4C173.584 86.676 174.034 87.072 174.346 87.588C174.67 88.104 174.832 88.71 174.832 89.406C174.832 89.922 174.754 90.408 174.598 90.864C174.442 91.308 174.214 91.746 173.914 92.178C173.626 92.61 173.272 93.048 172.852 93.492C172.432 93.936 171.97 94.404 171.466 94.896L169.072 97.218V97.308H175.318V99Z" fill="white"/>
<rect x="205" y="69" width="46" height="46" rx="3" stroke="#26374A" stroke-width="2"/>
<path d="M231.814 88.868C231.814 89.444 231.7 89.948 231.472 90.38C231.256 90.8 230.944 91.142 230.536 91.406C230.128 91.67 229.66 91.862 229.132 91.982V92.054C230.164 92.174 230.932 92.498 231.436 93.026C231.952 93.542 232.21 94.226 232.21 95.078C232.21 95.822 232.03 96.488 231.67 97.076C231.322 97.652 230.776 98.108 230.032 98.444C229.3 98.768 228.358 98.93 227.206 98.93C226.522 98.93 225.886 98.876 225.298 98.768C224.71 98.66 224.152 98.48 223.624 98.228V96.5C224.164 96.776 224.74 96.986 225.352 97.13C225.976 97.274 226.57 97.346 227.134 97.346C228.226 97.346 229.012 97.142 229.492 96.734C229.972 96.314 230.212 95.732 230.212 94.988C230.212 94.508 230.086 94.118 229.834 93.818C229.582 93.506 229.198 93.278 228.682 93.134C228.166 92.978 227.524 92.9 226.756 92.9H225.586V91.334H226.774C227.506 91.334 228.1 91.244 228.556 91.064C229.012 90.872 229.348 90.608 229.564 90.272C229.78 89.936 229.888 89.552 229.888 89.12C229.888 88.544 229.696 88.1 229.312 87.788C228.94 87.464 228.4 87.302 227.692 87.302C227.26 87.302 226.858 87.35 226.486 87.446C226.126 87.542 225.796 87.668 225.496 87.824C225.196 87.98 224.902 88.154 224.614 88.346L223.678 87.032C224.002 86.792 224.362 86.57 224.758 86.366C225.166 86.162 225.616 86.006 226.108 85.898C226.612 85.778 227.158 85.718 227.746 85.718C229.078 85.718 230.086 86.012 230.77 86.6C231.466 87.176 231.814 87.932 231.814 88.868Z" fill="#284162"/>
<path d="M222.85 101H233.146V101.9H222.85V101Z" fill="#284162"/>
<path d="M278.157 98.82C278.157 98.3 278.29 97.9333 278.557 97.72C278.824 97.5067 279.144 97.4 279.517 97.4C279.904 97.4 280.23 97.5067 280.497 97.72C280.764 97.9333 280.897 98.3 280.897 98.82C280.897 99.34 280.764 99.7133 280.497 99.94C280.23 100.167 279.904 100.28 279.517 100.28C279.144 100.28 278.824 100.167 278.557 99.94C278.29 99.7133 278.157 99.34 278.157 98.82ZM283.626 98.82C283.626 98.3 283.759 97.9333 284.026 97.72C284.292 97.5067 284.612 97.4 284.986 97.4C285.372 97.4 285.699 97.5067 285.966 97.72C286.232 97.9333 286.366 98.3 286.366 98.82C286.366 99.34 286.232 99.7133 285.966 99.94C285.699 100.167 285.372 100.28 284.986 100.28C284.612 100.28 284.292 100.167 284.026 99.94C283.759 99.7133 283.626 99.34 283.626 98.82ZM289.094 98.82C289.094 98.3 289.228 97.9333 289.494 97.72C289.761 97.5067 290.081 97.4 290.454 97.4C290.841 97.4 291.168 97.5067 291.434 97.72C291.701 97.9333 291.834 98.3 291.834 98.82C291.834 99.34 291.701 99.7133 291.434 99.94C291.168 100.167 290.841 100.28 290.454 100.28C290.081 100.28 289.761 100.167 289.494 99.94C289.228 99.7133 289.094 99.34 289.094 98.82Z" fill="#1F497A"/>
<rect x="319" y="69" width="46" height="46" rx="3" stroke="#2B4380" stroke-width="2"/>
<path d="M341.926 91.026C342.778 91.026 343.522 91.176 344.158 91.476C344.794 91.776 345.286 92.208 345.634 92.772C345.994 93.336 346.174 94.026 346.174 94.842C346.174 95.742 345.982 96.516 345.598 97.164C345.214 97.812 344.656 98.31 343.924 98.658C343.204 99.006 342.322 99.18 341.278 99.18C340.618 99.18 339.994 99.12 339.406 99C338.818 98.88 338.32 98.706 337.912 98.478V96.732C338.344 96.984 338.866 97.188 339.478 97.344C340.102 97.5 340.696 97.578 341.26 97.578C341.872 97.578 342.394 97.488 342.826 97.308C343.27 97.116 343.612 96.834 343.852 96.462C344.104 96.078 344.23 95.598 344.23 95.022C344.23 94.242 343.984 93.648 343.492 93.24C343.012 92.82 342.25 92.61 341.206 92.61C340.87 92.61 340.492 92.64 340.072 92.7C339.664 92.76 339.334 92.82 339.082 92.88L338.2 92.358L338.686 86.148H345.292V87.84H340.342L340.054 91.206C340.258 91.17 340.516 91.134 340.828 91.098C341.14 91.05 341.506 91.026 341.926 91.026Z" fill="#284162"/>
<path d="M336.85 101.5H347.146V102.5H336.85V101.5Z" fill="#284162"/>
<rect x="139" y="141" width="85" height="46" rx="3" fill="white"/>
<rect x="139" y="141" width="85" height="46" rx="3" stroke="#2B4380" stroke-width="2"/>
<path d="M152.469 164L158.156 169.688L156.844 171L149.844 164L156.844 157L158.156 158.312L152.469 164Z" fill="#284162"/>
<path d="M175.628 158.148C177.308 158.148 178.532 158.49 179.3 159.174C180.068 159.846 180.452 160.788 180.452 162C180.452 162.54 180.362 163.056 180.182 163.548C180.014 164.04 179.732 164.484 179.336 164.88C178.94 165.264 178.412 165.57 177.752 165.798C177.104 166.014 176.306 166.122 175.358 166.122H173.972V171H172.028V158.148H175.628ZM175.484 159.786H173.972V164.484H175.142C175.874 164.484 176.486 164.406 176.978 164.25C177.47 164.082 177.836 163.824 178.076 163.476C178.328 163.116 178.454 162.648 178.454 162.072C178.454 161.304 178.214 160.734 177.734 160.362C177.266 159.978 176.516 159.786 175.484 159.786ZM187.622 161.118C187.79 161.118 187.976 161.13 188.18 161.154C188.384 161.166 188.552 161.184 188.684 161.208L188.486 162.99C188.354 162.954 188.198 162.924 188.018 162.9C187.838 162.876 187.67 162.864 187.514 162.864C187.154 162.864 186.806 162.936 186.47 163.08C186.146 163.212 185.852 163.41 185.588 163.674C185.324 163.926 185.114 164.238 184.958 164.61C184.814 164.982 184.742 165.408 184.742 165.888V171H182.834V161.298H184.346L184.598 163.026H184.67C184.874 162.678 185.12 162.36 185.408 162.072C185.696 161.784 186.026 161.556 186.398 161.388C186.77 161.208 187.178 161.118 187.622 161.118ZM193.945 161.118C194.797 161.118 195.529 161.298 196.141 161.658C196.753 162.006 197.221 162.51 197.545 163.17C197.881 163.83 198.049 164.61 198.049 165.51V166.554H191.533C191.557 167.55 191.815 168.312 192.307 168.84C192.811 169.368 193.513 169.632 194.413 169.632C195.037 169.632 195.589 169.578 196.069 169.47C196.561 169.35 197.065 169.176 197.581 168.948V170.532C197.101 170.748 196.609 170.91 196.105 171.018C195.613 171.126 195.025 171.18 194.341 171.18C193.405 171.18 192.577 170.994 191.857 170.622C191.137 170.25 190.573 169.698 190.165 168.966C189.769 168.222 189.571 167.31 189.571 166.23C189.571 165.138 189.751 164.214 190.111 163.458C190.483 162.702 190.993 162.126 191.641 161.73C192.301 161.322 193.069 161.118 193.945 161.118ZM193.945 162.594C193.261 162.594 192.709 162.816 192.289 163.26C191.881 163.704 191.641 164.334 191.569 165.15H196.141C196.141 164.646 196.063 164.202 195.907 163.818C195.751 163.434 195.511 163.134 195.187 162.918C194.863 162.702 194.449 162.594 193.945 162.594ZM196.825 157.392C196.693 157.56 196.513 157.764 196.285 158.004C196.069 158.244 195.823 158.496 195.547 158.76C195.283 159.012 195.019 159.258 194.755 159.498C194.491 159.726 194.251 159.924 194.035 160.092H192.775V159.876C192.955 159.648 193.159 159.378 193.387 159.066C193.615 158.754 193.837 158.436 194.053 158.112C194.269 157.776 194.449 157.476 194.593 157.212H196.825V157.392ZM204.336 171.18C203.448 171.18 202.668 171.006 201.996 170.658C201.324 170.31 200.802 169.77 200.43 169.038C200.058 168.294 199.872 167.352 199.872 166.212C199.872 165.012 200.07 164.04 200.466 163.296C200.874 162.552 201.42 162.006 202.104 161.658C202.8 161.298 203.592 161.118 204.48 161.118C205.02 161.118 205.524 161.178 205.992 161.298C206.472 161.406 206.868 161.532 207.18 161.676L206.604 163.224C206.268 163.092 205.908 162.978 205.524 162.882C205.152 162.786 204.798 162.738 204.462 162.738C203.862 162.738 203.364 162.87 202.968 163.134C202.584 163.386 202.296 163.77 202.104 164.286C201.924 164.79 201.834 165.426 201.834 166.194C201.834 166.926 201.93 167.544 202.122 168.048C202.314 168.552 202.596 168.936 202.968 169.2C203.352 169.452 203.826 169.578 204.39 169.578C204.93 169.578 205.404 169.518 205.812 169.398C206.22 169.278 206.604 169.122 206.964 168.93V170.586C206.616 170.79 206.238 170.94 205.83 171.036C205.422 171.132 204.924 171.18 204.336 171.18ZM208.984 169.938C208.984 169.47 209.104 169.14 209.344 168.948C209.584 168.756 209.872 168.66 210.208 168.66C210.556 168.66 210.85 168.756 211.09 168.948C211.33 169.14 211.45 169.47 211.45 169.938C211.45 170.406 211.33 170.742 211.09 170.946C210.85 171.15 210.556 171.252 210.208 171.252C209.872 171.252 209.584 171.15 209.344 170.946C209.104 170.742 208.984 170.406 208.984 169.938Z" fill="#284162"/>
<path d="M170.318 173.5H212.674V174.5H170.318V173.5Z" fill="#284162"/>
<rect x="235" y="141" width="82" height="46" rx="3" fill="white"/>
<rect x="235" y="141" width="82" height="46" rx="3" stroke="#284162" stroke-width="2"/>
<path d="M255.183 167.526C255.183 168.294 254.997 168.948 254.625 169.488C254.253 170.028 253.719 170.448 253.023 170.748C252.327 171.036 251.499 171.18 250.539 171.18C250.071 171.18 249.621 171.15 249.189 171.09C248.757 171.042 248.355 170.97 247.983 170.874C247.611 170.778 247.281 170.658 246.993 170.514V168.678C247.473 168.894 248.037 169.092 248.685 169.272C249.333 169.44 249.993 169.524 250.665 169.524C251.241 169.524 251.721 169.446 252.105 169.29C252.489 169.134 252.777 168.918 252.969 168.642C253.161 168.366 253.257 168.042 253.257 167.67C253.257 167.274 253.155 166.944 252.951 166.68C252.759 166.404 252.453 166.152 252.033 165.924C251.625 165.684 251.073 165.432 250.377 165.168C249.897 164.988 249.459 164.79 249.063 164.574C248.679 164.346 248.337 164.082 248.037 163.782C247.749 163.482 247.527 163.134 247.371 162.738C247.215 162.342 247.137 161.88 247.137 161.352C247.137 160.644 247.311 160.038 247.659 159.534C248.019 159.03 248.511 158.646 249.135 158.382C249.759 158.106 250.485 157.968 251.313 157.968C252.009 157.968 252.651 158.04 253.239 158.184C253.839 158.316 254.409 158.502 254.949 158.742L254.337 160.344C253.845 160.14 253.347 159.972 252.843 159.84C252.339 159.708 251.811 159.642 251.259 159.642C250.779 159.642 250.377 159.714 250.053 159.858C249.729 160.002 249.483 160.2 249.315 160.452C249.159 160.704 249.081 160.998 249.081 161.334C249.081 161.73 249.171 162.06 249.351 162.324C249.531 162.588 249.819 162.834 250.215 163.062C250.611 163.278 251.133 163.518 251.781 163.782C252.501 164.058 253.113 164.358 253.617 164.682C254.133 165.006 254.523 165.396 254.787 165.852C255.051 166.296 255.183 166.854 255.183 167.526ZM265.835 161.298V171H264.305L264.035 169.722H263.945C263.741 170.058 263.477 170.334 263.153 170.55C262.829 170.766 262.475 170.922 262.091 171.018C261.707 171.126 261.311 171.18 260.903 171.18C260.147 171.18 259.505 171.06 258.977 170.82C258.461 170.568 258.065 170.184 257.789 169.668C257.525 169.14 257.393 168.468 257.393 167.652V161.298H259.319V167.364C259.319 168.12 259.475 168.684 259.787 169.056C260.111 169.428 260.609 169.614 261.281 169.614C261.953 169.614 262.481 169.482 262.865 169.218C263.249 168.954 263.519 168.57 263.675 168.066C263.843 167.55 263.927 166.932 263.927 166.212V161.298H265.835ZM270.729 161.298V171H268.821V161.298H270.729ZM269.793 157.608C270.081 157.608 270.333 157.692 270.549 157.86C270.765 158.028 270.873 158.31 270.873 158.706C270.873 159.09 270.765 159.372 270.549 159.552C270.333 159.72 270.081 159.804 269.793 159.804C269.481 159.804 269.217 159.72 269.001 159.552C268.797 159.372 268.695 159.09 268.695 158.706C268.695 158.31 268.797 158.028 269.001 157.86C269.217 157.692 269.481 157.608 269.793 157.608ZM275.903 171L272.231 161.298H274.247L276.263 166.968C276.347 167.208 276.431 167.478 276.515 167.778C276.611 168.078 276.695 168.366 276.767 168.642C276.839 168.918 276.887 169.158 276.911 169.362H276.983C277.019 169.158 277.073 168.918 277.145 168.642C277.229 168.354 277.319 168.066 277.415 167.778C277.511 167.478 277.595 167.208 277.667 166.968L279.683 161.298H281.699L278.009 171H275.903ZM282.209 169.938C282.209 169.47 282.329 169.14 282.569 168.948C282.809 168.756 283.097 168.66 283.433 168.66C283.781 168.66 284.075 168.756 284.315 168.948C284.555 169.14 284.675 169.47 284.675 169.938C284.675 170.406 284.555 170.742 284.315 170.946C284.075 171.15 283.781 171.252 283.433 171.252C283.097 171.252 282.809 171.15 282.569 170.946C282.329 170.742 282.209 170.406 282.209 169.938Z" fill="#284162"/>
<path d="M246.093 173.5H285.899V174.5H246.093V173.5Z" fill="#284162"/>
<path d="M303.531 164L297.844 169.688L299.156 171L306.156 164L299.156 157L297.844 158.312L303.531 164Z" fill="#284162"/>
<g clip-path="url(#clip0_7532_7729)">
<rect x="327.5" y="164" width="108.5" height="1" fill="#C54600"/>
<g clip-path="url(#clip1_7532_7729)">
<rect x="412" y="152" width="24" height="24" rx="12" fill="#C54600"/>
<path d="M423.889 158.679C424.412 158.679 424.916 158.767 425.4 158.942C425.887 159.118 426.321 159.398 426.703 159.783C427.087 160.167 427.39 160.678 427.612 161.314C427.838 161.947 427.952 162.724 427.955 163.646C427.955 164.511 427.858 165.283 427.662 165.962C427.47 166.638 427.193 167.214 426.832 167.688C426.471 168.161 426.035 168.523 425.524 168.771C425.014 169.017 424.444 169.139 423.814 169.139C423.135 169.139 422.535 169.008 422.014 168.746C421.494 168.481 421.075 168.122 420.757 167.668C420.442 167.21 420.251 166.696 420.185 166.126H422.308C422.391 166.498 422.565 166.786 422.83 166.991C423.095 167.194 423.423 167.295 423.814 167.295C424.477 167.295 424.981 167.006 425.325 166.43C425.67 165.85 425.844 165.056 425.847 164.048H425.778C425.625 164.347 425.42 164.603 425.161 164.819C424.903 165.031 424.606 165.195 424.271 165.311C423.94 165.427 423.587 165.485 423.212 165.485C422.613 165.485 422.077 165.344 421.607 165.062C421.136 164.781 420.765 164.393 420.493 163.899C420.221 163.405 420.085 162.842 420.085 162.209C420.082 161.526 420.239 160.918 420.558 160.384C420.876 159.851 421.32 159.433 421.89 159.131C422.463 158.826 423.13 158.676 423.889 158.679ZM423.904 160.369C423.569 160.369 423.27 160.449 423.009 160.608C422.75 160.767 422.545 160.981 422.392 161.249C422.243 161.518 422.17 161.818 422.173 162.149C422.173 162.484 422.246 162.786 422.392 163.054C422.541 163.319 422.744 163.531 422.999 163.69C423.257 163.846 423.552 163.924 423.884 163.924C424.132 163.924 424.363 163.878 424.575 163.785C424.787 163.692 424.971 163.564 425.127 163.402C425.286 163.236 425.41 163.046 425.499 162.83C425.589 162.615 425.634 162.386 425.634 162.144C425.63 161.823 425.554 161.528 425.405 161.259C425.256 160.991 425.05 160.775 424.788 160.613C424.527 160.451 424.232 160.369 423.904 160.369Z" fill="white"/>
</g>
</g>
<g clip-path="url(#clip2_7532_7729)">
<rect x="20" y="164" width="109" height="1" fill="#C54600"/>
<g clip-path="url(#clip3_7532_7729)">
<rect x="20" y="152" width="24" height="24" rx="12" fill="#C54600"/>
<path d="M27.927 167.21V165.515L32.1777 158.818H33.6394V161.165H32.7743L30.0946 165.406V165.485H36.1351V167.21H27.927ZM32.8141 169V166.693L32.8539 165.942V158.818H34.8723V169H32.8141Z" fill="white"/>
</g>
</g>
<g clip-path="url(#clip4_7532_7729)">
<rect x="283" y="20" width="1" height="65" fill="#C54600"/>
<g clip-path="url(#clip5_7532_7729)">
<rect x="271" y="20" width="24" height="24" rx="12" fill="#C54600"/>
<path d="M282.975 37.1392C282.233 37.1392 281.571 37.0116 280.991 36.7564C280.415 36.4979 279.959 36.1432 279.624 35.6925C279.293 35.2384 279.122 34.7147 279.112 34.1214H281.28C281.293 34.37 281.374 34.5888 281.523 34.7777C281.676 34.9633 281.878 35.1075 282.13 35.2102C282.382 35.313 282.665 35.3643 282.98 35.3643C283.308 35.3643 283.598 35.3063 283.85 35.1903C284.102 35.0743 284.299 34.9136 284.442 34.7081C284.584 34.5026 284.655 34.2656 284.655 33.9972C284.655 33.7254 284.579 33.4851 284.427 33.2763C284.278 33.0642 284.062 32.8984 283.78 32.7791C283.502 32.6598 283.171 32.6001 282.786 32.6001H281.837V31.0192H282.786C283.111 31.0192 283.398 30.9628 283.646 30.8501C283.898 30.7375 284.094 30.5817 284.233 30.3828C284.372 30.1806 284.442 29.9453 284.442 29.6768C284.442 29.4216 284.38 29.1979 284.258 29.0057C284.138 28.8101 283.969 28.6577 283.751 28.5483C283.535 28.4389 283.283 28.3842 282.995 28.3842C282.703 28.3842 282.436 28.4373 282.194 28.5433C281.953 28.6461 281.759 28.7936 281.613 28.9858C281.467 29.178 281.389 29.4034 281.379 29.6619H279.316C279.326 29.0753 279.493 28.5582 279.818 28.1108C280.143 27.6634 280.58 27.3137 281.131 27.0618C281.684 26.8066 282.309 26.679 283.005 26.679C283.707 26.679 284.322 26.8066 284.849 27.0618C285.376 27.317 285.786 27.6617 286.077 28.0959C286.372 28.5268 286.518 29.0107 286.515 29.5476C286.518 30.1177 286.341 30.5933 285.983 30.9744C285.628 31.3556 285.166 31.5975 284.596 31.7003V31.7798C285.345 31.8759 285.915 32.1361 286.306 32.5604C286.7 32.9813 286.896 33.5083 286.893 34.1413C286.896 34.7214 286.729 35.2367 286.39 35.6875C286.056 36.1383 285.593 36.4929 285.003 36.7514C284.413 37.0099 283.737 37.1392 282.975 37.1392Z" fill="white"/>
</g>
</g>
<g clip-path="url(#clip6_7532_7729)">
<rect x="170" y="20" width="1" height="48" fill="#C54600"/>
<g clip-path="url(#clip7_7532_7729)">
<rect x="158" y="20" width="24" height="24" rx="12" fill="#C54600"/>
<path d="M166.417 37V35.4489L170.041 32.093C170.349 31.7947 170.608 31.5263 170.816 31.2876C171.029 31.049 171.189 30.8153 171.299 30.5866C171.408 30.3546 171.463 30.1044 171.463 29.8359C171.463 29.5376 171.395 29.2808 171.259 29.0653C171.123 28.8466 170.937 28.6792 170.702 28.5632C170.467 28.4439 170.2 28.3842 169.902 28.3842C169.59 28.3842 169.318 28.4472 169.086 28.5732C168.854 28.6991 168.675 28.8797 168.549 29.1151C168.423 29.3504 168.36 29.6304 168.36 29.9553H166.317C166.317 29.2891 166.468 28.7107 166.77 28.2202C167.071 27.7296 167.494 27.3501 168.037 27.0817C168.581 26.8132 169.207 26.679 169.917 26.679C170.646 26.679 171.28 26.8082 171.821 27.0668C172.364 27.322 172.787 27.6766 173.088 28.1307C173.39 28.5848 173.541 29.1051 173.541 29.6918C173.541 30.0762 173.465 30.4557 173.312 30.8303C173.163 31.2048 172.896 31.6207 172.512 32.0781C172.127 32.5322 171.585 33.0774 170.886 33.7138L169.4 35.1705V35.2401H173.675V37H166.417Z" fill="white"/>
</g>
</g>
<g clip-path="url(#clip8_7532_7729)">
<rect x="20" y="92" width="70" height="1" fill="#C54600"/>
<g clip-path="url(#clip9_7532_7729)">
<rect x="20" y="80" width="24" height="24" rx="12" fill="#C54600"/>
<path d="M33.8302 86.8182V97H31.6775V88.8615H31.6178L29.2861 90.3232V88.4141L31.8067 86.8182H33.8302Z" fill="white"/>
</g>
</g>
<g clip-path="url(#clip10_7532_7729)">
<rect x="158" y="243" width="1" height="65" transform="rotate(-180 158 243)" fill="#C54600"/>
<g clip-path="url(#clip11_7532_7729)">
<rect x="146" y="219" width="24" height="24" rx="12" fill="#C54600"/>
<path d="M158.032 236.139C157.33 236.139 156.703 236.01 156.153 235.751C155.606 235.493 155.172 235.137 154.85 234.683C154.529 234.228 154.362 233.708 154.348 233.121H156.436C156.46 233.516 156.625 233.836 156.934 234.081C157.242 234.326 157.608 234.449 158.032 234.449C158.37 234.449 158.669 234.374 158.927 234.225C159.189 234.073 159.393 233.862 159.539 233.594C159.688 233.322 159.762 233.01 159.762 232.659C159.762 232.301 159.686 231.986 159.534 231.714C159.385 231.443 159.177 231.231 158.912 231.078C158.647 230.926 158.344 230.848 158.002 230.844C157.704 230.844 157.414 230.906 157.132 231.028C156.854 231.151 156.637 231.318 156.481 231.531L154.567 231.188L155.049 225.818H161.274V227.578H156.824L156.561 230.129H156.62C156.799 229.877 157.069 229.668 157.431 229.502C157.792 229.336 158.196 229.254 158.644 229.254C159.257 229.254 159.804 229.398 160.284 229.686C160.765 229.974 161.145 230.371 161.423 230.874C161.701 231.375 161.839 231.951 161.836 232.604C161.839 233.29 161.68 233.9 161.358 234.434C161.04 234.964 160.594 235.382 160.021 235.687C159.451 235.988 158.788 236.139 158.032 236.139Z" fill="white"/>
</g>
</g>
<g clip-path="url(#clip12_7532_7729)">
<rect x="195" y="243" width="1" height="65" transform="rotate(-180 195 243)" fill="#C54600"/>
<g clip-path="url(#clip13_7532_7729)">
<rect x="183" y="219" width="24" height="24" rx="12" fill="#C54600"/>
<path d="M195.112 236.139C194.588 236.136 194.083 236.048 193.596 235.876C193.112 235.703 192.677 235.423 192.293 235.036C191.908 234.648 191.604 234.134 191.378 233.494C191.156 232.855 191.045 232.069 191.045 231.138C191.048 230.283 191.146 229.519 191.338 228.846C191.534 228.17 191.812 227.596 192.174 227.126C192.538 226.655 192.974 226.297 193.481 226.052C193.988 225.803 194.557 225.679 195.186 225.679C195.866 225.679 196.466 225.812 196.986 226.077C197.507 226.339 197.924 226.695 198.239 227.146C198.557 227.596 198.749 228.102 198.816 228.662H196.693C196.61 228.307 196.436 228.029 196.171 227.827C195.906 227.625 195.578 227.523 195.186 227.523C194.524 227.523 194.02 227.812 193.675 228.388C193.334 228.965 193.16 229.749 193.153 230.74H193.223C193.375 230.438 193.581 230.182 193.839 229.969C194.101 229.754 194.398 229.59 194.729 229.477C195.064 229.361 195.417 229.303 195.788 229.303C196.391 229.303 196.928 229.446 197.399 229.731C197.869 230.013 198.241 230.4 198.512 230.894C198.784 231.388 198.92 231.953 198.92 232.589C198.92 233.279 198.759 233.892 198.438 234.429C198.12 234.966 197.674 235.387 197.1 235.692C196.53 235.993 195.868 236.143 195.112 236.139ZM195.102 234.449C195.433 234.449 195.73 234.369 195.992 234.21C196.254 234.051 196.459 233.836 196.608 233.564C196.757 233.292 196.832 232.987 196.832 232.649C196.832 232.311 196.757 232.008 196.608 231.739C196.462 231.471 196.26 231.257 196.002 231.098C195.743 230.939 195.448 230.859 195.117 230.859C194.868 230.859 194.638 230.906 194.426 230.999C194.217 231.091 194.033 231.221 193.874 231.386C193.718 231.552 193.596 231.744 193.506 231.963C193.417 232.179 193.372 232.409 193.372 232.654C193.372 232.982 193.446 233.282 193.596 233.554C193.748 233.826 193.953 234.043 194.212 234.205C194.474 234.368 194.77 234.449 195.102 234.449Z" fill="white"/>
</g>
</g>
<g clip-path="url(#clip14_7532_7729)">
<rect x="265" y="243" width="1" height="65" transform="rotate(-180 265 243)" fill="#C54600"/>
<g clip-path="url(#clip15_7532_7729)">
<rect x="253" y="219" width="24" height="24" rx="12" fill="#C54600"/>
<path d="M262.065 236L266.286 227.648V227.578H261.369V225.818H268.513V227.603L264.287 236H262.065Z" fill="white"/>
</g>
</g>
<g clip-path="url(#clip16_7532_7729)">
<rect x="301" y="243" width="1" height="65" transform="rotate(-180 301 243)" fill="#C54600"/>
<g clip-path="url(#clip17_7532_7729)">
<rect x="289" y="219" width="24" height="24" rx="12" fill="#C54600"/>
<path d="M300.996 236.139C300.23 236.139 299.549 236.015 298.952 235.766C298.359 235.514 297.893 235.171 297.555 234.737C297.217 234.303 297.048 233.811 297.048 233.261C297.048 232.836 297.144 232.447 297.337 232.092C297.532 231.734 297.797 231.438 298.132 231.202C298.467 230.964 298.841 230.811 299.256 230.745V230.675C298.712 230.566 298.271 230.303 297.933 229.885C297.595 229.464 297.426 228.975 297.426 228.418C297.426 227.891 297.58 227.422 297.888 227.011C298.197 226.597 298.619 226.272 299.156 226.037C299.696 225.798 300.31 225.679 300.996 225.679C301.682 225.679 302.293 225.798 302.83 226.037C303.37 226.276 303.795 226.602 304.103 227.016C304.411 227.427 304.567 227.895 304.57 228.418C304.567 228.978 304.395 229.467 304.053 229.885C303.712 230.303 303.274 230.566 302.741 230.675V230.745C303.148 230.811 303.518 230.964 303.849 231.202C304.184 231.438 304.449 231.734 304.645 232.092C304.844 232.447 304.945 232.836 304.948 233.261C304.945 233.811 304.774 234.303 304.436 234.737C304.098 235.171 303.631 235.514 303.034 235.766C302.441 236.015 301.761 236.139 300.996 236.139ZM300.996 234.558C301.337 234.558 301.635 234.497 301.891 234.374C302.146 234.248 302.345 234.076 302.487 233.857C302.633 233.635 302.706 233.38 302.706 233.092C302.706 232.797 302.631 232.536 302.482 232.311C302.333 232.082 302.131 231.903 301.876 231.774C301.62 231.642 301.327 231.575 300.996 231.575C300.668 231.575 300.374 231.642 300.116 231.774C299.857 231.903 299.653 232.082 299.504 232.311C299.358 232.536 299.285 232.797 299.285 233.092C299.285 233.38 299.357 233.635 299.499 233.857C299.642 234.076 299.842 234.248 300.101 234.374C300.359 234.497 300.658 234.558 300.996 234.558ZM300.996 230.009C301.281 230.009 301.534 229.951 301.756 229.835C301.978 229.719 302.152 229.558 302.278 229.353C302.404 229.147 302.467 228.911 302.467 228.642C302.467 228.377 302.404 228.145 302.278 227.946C302.152 227.744 301.98 227.586 301.761 227.474C301.543 227.358 301.287 227.3 300.996 227.3C300.707 227.3 300.452 227.358 300.23 227.474C300.008 227.586 299.834 227.744 299.708 227.946C299.585 228.145 299.524 228.377 299.524 228.642C299.524 228.911 299.587 229.147 299.713 229.353C299.839 229.558 300.013 229.719 300.235 229.835C300.457 229.951 300.711 230.009 300.996 230.009Z" fill="white"/>
</g>
</g>
<defs>
<clipPath id="clip0_7532_7729">
<rect width="108.5" height="24" fill="white" transform="translate(327.5 152)"/>
</clipPath>
<clipPath id="clip1_7532_7729">
<rect x="412" y="152" width="24" height="24" rx="12" fill="white"/>
</clipPath>
<clipPath id="clip2_7532_7729">
<rect width="108.5" height="24" fill="white" transform="translate(20 152)"/>
</clipPath>
<clipPath id="clip3_7532_7729">
<rect x="20" y="152" width="24" height="24" rx="12" fill="white"/>
</clipPath>
<clipPath id="clip4_7532_7729">
<rect width="24" height="65" fill="white" transform="translate(271 20)"/>
</clipPath>
<clipPath id="clip5_7532_7729">
<rect x="271" y="20" width="24" height="24" rx="12" fill="white"/>
</clipPath>
<clipPath id="clip6_7532_7729">
<rect width="24" height="48" fill="white" transform="translate(158 20)"/>
</clipPath>
<clipPath id="clip7_7532_7729">
<rect x="158" y="20" width="24" height="24" rx="12" fill="white"/>
</clipPath>
<clipPath id="clip8_7532_7729">
<rect width="70" height="24" fill="white" transform="translate(20 80)"/>
</clipPath>
<clipPath id="clip9_7532_7729">
<rect x="20" y="80" width="24" height="24" rx="12" fill="white"/>
</clipPath>
<clipPath id="clip10_7532_7729">
<rect width="24" height="65" fill="white" transform="matrix(-1 0 0 -1 170 243)"/>
</clipPath>
<clipPath id="clip11_7532_7729">
<rect x="146" y="219" width="24" height="24" rx="12" fill="white"/>
</clipPath>
<clipPath id="clip12_7532_7729">
<rect width="24" height="65" fill="white" transform="matrix(-1 0 0 -1 207 243)"/>
</clipPath>
<clipPath id="clip13_7532_7729">
<rect x="183" y="219" width="24" height="24" rx="12" fill="white"/>
</clipPath>
<clipPath id="clip14_7532_7729">
<rect width="24" height="65" fill="white" transform="matrix(-1 0 0 -1 277 243)"/>
</clipPath>
<clipPath id="clip15_7532_7729">
<rect x="253" y="219" width="24" height="24" rx="12" fill="white"/>
</clipPath>
<clipPath id="clip16_7532_7729">
<rect width="24" height="65" fill="white" transform="matrix(-1 0 0 -1 313 243)"/>
</clipPath>
<clipPath id="clip17_7532_7729">
<rect x="289" y="219" width="24" height="24" rx="12" fill="white"/>
</clipPath>
</defs>
</svg>
