<svg width="698" height="73" viewBox="0 0 698 73" fill="none" xmlns="http://www.w3.org/2000/svg">
<g clip-path="url(#clip0_5534_68663)">
<path d="M68 20H84.1934V52.583H68V20ZM120.105 20H136.299V52.583H120.105V20ZM99.9033 26.7807L102.215 22.1285L104.51 26.6113C104.796 27.0848 105.029 27.0457 105.486 26.8198L107.459 25.8555L106.176 32.1149C105.908 33.3442 106.615 33.7048 107.385 32.8707L110.198 29.8996L110.945 31.5806C111.196 32.0889 111.574 32.015 112.075 31.9238L114.98 31.32L114.004 34.9471V35.0253C113.89 35.4987 113.662 35.894 114.198 36.1243L115.231 36.6325L109.218 41.6409C108.607 42.2621 108.818 42.4532 109.046 43.1526L109.6 44.8336L104.013 43.8345C103.323 43.6651 102.844 43.6651 102.826 44.2125L103.055 50.5457H101.376L101.604 44.2298C101.604 43.6087 101.125 43.626 99.9956 43.8563L94.8132 44.838L95.4813 43.1569C95.7099 42.514 95.7714 42.0796 95.2527 41.6453L89.1473 36.7063L90.2769 36.0244C90.6022 35.7768 90.6198 35.5161 90.4483 34.9645L89.3011 31.2939L92.2462 31.9151C93.0681 32.1062 93.2967 31.9151 93.5077 31.4807L94.3297 29.817L97.2396 33.0315C97.7538 33.6353 98.4835 33.24 98.2549 32.3712L96.8571 25.5862L99.0198 26.8155C99.3626 27.024 99.7275 27.0804 99.9385 26.6851" fill="#EB2D37"/>
<path d="M176.778 33.9002H175.253L174.892 32.3234C173.618 33.7525 172.462 34.2217 170.804 34.2217C166.738 34.2217 164.303 31.029 164.303 27.1977C164.303 23.3665 166.743 20.1738 170.809 20.1738C173.776 20.1738 176.264 21.7375 176.624 24.7782H174.308C174.079 23.0146 172.523 22.1111 170.791 22.1111C167.881 22.1111 166.668 24.6479 166.668 27.2194C166.668 29.791 167.886 32.3278 170.791 32.3278C173.222 32.3669 174.554 30.9204 174.593 28.6485H170.985V26.8415H176.76V33.9002H176.778ZM183.56 32.4754C181.622 32.4754 180.765 30.7379 180.765 29.0395C180.765 27.3411 181.622 25.6209 183.56 25.6209C185.499 25.6209 186.356 27.3584 186.356 29.0395C186.356 30.7205 185.499 32.4754 183.56 32.4754ZM183.56 34.1652C186.716 34.1652 188.523 32.0237 188.523 29.0395C188.523 26.0553 186.716 23.9094 183.56 23.9094C180.404 23.9094 178.602 26.0813 178.602 29.0395C178.602 31.9976 180.409 34.1652 183.56 34.1652ZM198.958 33.9002H196.831V32.5536H196.791C196.505 33.0377 196.097 33.4406 195.608 33.7237C195.118 34.0067 194.563 34.1603 193.996 34.1695C191.429 34.1695 190.33 32.8925 190.33 30.3557V24.1918H192.497V30.1472C192.497 31.8586 193.2 32.4754 194.378 32.4754C196.185 32.4754 196.791 31.333 196.791 29.8257V24.1788H198.958V33.9002ZM200.268 24.1918H202.624L205.112 31.6501H205.143L207.538 24.1918H209.78L206.264 33.9002H203.824L200.268 24.1918ZM212.791 28.1924C212.787 27.8549 212.85 27.5199 212.978 27.2069C213.106 26.894 213.296 26.6094 213.537 26.3699C213.777 26.1304 214.064 25.9408 214.38 25.8122C214.696 25.6836 215.034 25.6186 215.376 25.6209C216.84 25.6209 217.771 26.8415 217.846 28.1924H212.791ZM220.013 29.5998C220.378 26.6895 218.475 23.9094 215.376 23.9094C212.448 23.9094 210.624 26.2768 210.624 29.0351C210.624 32.0193 212.352 34.1435 215.433 34.1435C217.578 34.1435 219.389 32.962 219.881 30.8378H217.829C217.451 31.9108 216.69 32.4537 215.433 32.4537C213.626 32.4537 212.796 31.1028 212.796 29.5781L220.013 29.5998ZM221.67 24.1918H223.705V26.0813H223.741C223.939 25.4737 224.319 24.9401 224.832 24.552C225.345 24.1639 225.966 23.9398 226.611 23.9094C226.885 23.9068 227.158 23.9257 227.429 23.9659V26.0336C227.12 25.983 226.809 25.9511 226.497 25.938C225.015 25.938 223.837 27.1195 223.837 29.261V33.9002H221.67V24.1918ZM228.356 24.1918H230.409V25.6209L230.448 25.66C230.76 25.1271 231.209 24.6855 231.749 24.3802C232.29 24.0749 232.903 23.917 233.525 23.9225C235.657 23.9225 237.002 25.0475 237.002 27.2281V33.9002H234.835V27.8189C234.8 26.2985 234.189 25.647 232.914 25.647C231.468 25.647 230.541 26.772 230.541 28.2011V33.9002H228.374L228.356 24.1918ZM240.958 28.1924C240.954 27.8549 241.017 27.5199 241.145 27.2069C241.273 26.894 241.463 26.6094 241.704 26.3699C241.944 26.1304 242.231 25.9408 242.547 25.8122C242.863 25.6836 243.201 25.6186 243.543 25.6209C245.007 25.6209 245.938 26.8415 246.013 28.1924H240.958ZM248.18 29.5998C248.541 26.6895 246.642 23.9094 243.543 23.9094C240.615 23.9094 238.791 26.2768 238.791 29.0351C238.791 32.0193 240.523 34.1435 243.6 34.1435C245.749 34.1435 247.556 32.962 248.048 30.8378H245.996C245.613 31.9108 244.853 32.4537 243.6 32.4537C241.793 32.4537 240.963 31.1028 240.963 29.5781L248.18 29.5998ZM249.833 24.1918H251.886V25.5427H251.943C252.244 25.021 252.686 24.592 253.219 24.3036C253.752 24.0153 254.356 23.8788 254.963 23.9094C256.163 23.9094 257.284 24.4177 257.719 25.5253C258.048 25.0171 258.504 24.6014 259.043 24.3183C259.582 24.0352 260.185 23.8944 260.796 23.9094C262.866 23.9094 264.084 24.813 264.084 27.176V33.9002H261.916V28.2533C261.916 26.7112 261.82 25.647 260.132 25.647C258.668 25.647 258.04 26.6069 258.04 28.2533V33.9002H255.873V27.6668C255.873 26.3333 255.433 25.6209 254.145 25.6209C253.024 25.6209 252 26.5244 252 28.136V33.9002H249.833V24.1918ZM268.062 28.1924C268.057 27.8557 268.12 27.5213 268.248 27.209C268.375 26.8966 268.564 26.6124 268.804 26.3731C269.044 26.1337 269.329 25.9439 269.644 25.8148C269.959 25.6856 270.297 25.6197 270.637 25.6209C272.101 25.6209 273.033 26.8415 273.108 28.1924H268.062ZM275.284 29.5998C275.644 26.6895 273.741 23.9094 270.637 23.9094C267.71 23.9094 265.886 26.2768 265.886 29.0351C265.886 32.0193 267.613 34.1435 270.695 34.1435C272.84 34.1435 274.651 32.962 275.143 30.8378H273.09C272.712 31.9108 271.952 32.4537 270.695 32.4537C268.888 32.4537 268.057 31.1028 268.057 29.5781L275.284 29.5998ZM276.936 24.1918H278.989V25.6209L279.029 25.66C279.34 25.1271 279.789 24.6855 280.329 24.3802C280.87 24.0749 281.483 23.917 282.105 23.9225C284.237 23.9225 285.582 25.0475 285.582 27.2281V33.9002H283.385V27.8189C283.349 26.2985 282.738 25.647 281.464 25.647C280.018 25.647 279.086 26.772 279.086 28.2011V33.9002H276.919L276.936 24.1918ZM286.857 24.1918H288.492V21.3031H290.659V24.2135H292.615V25.812H290.659V30.9768C290.659 31.8456 290.734 32.3104 291.705 32.3104C292.012 32.3233 292.319 32.2985 292.62 32.2365V33.9002C292.145 33.935 291.688 34.0132 291.213 34.0132C288.954 34.0132 288.536 33.1444 288.497 31.5328V25.7903H286.862V24.1918H286.857ZM166.325 47.9351C166.325 46.1976 167.046 44.4036 169.081 44.4036C170.752 44.4036 171.798 45.6807 171.798 47.8222C171.798 49.5119 170.98 51.2581 169.042 51.2581C167.103 51.2581 166.325 49.6031 166.325 47.9351ZM173.89 39.2735H171.736V44.2342H171.697C171.033 43.1656 169.662 42.7138 168.431 42.7138C166.281 42.7138 164.171 44.2515 164.171 47.7657C164.171 50.6761 165.675 52.9479 168.769 52.9479C170.004 52.9479 171.24 52.4787 171.811 51.3711H171.846V52.6742H173.899V39.2735H173.89ZM184.875 52.6872H182.725V51.332C182.439 51.816 182.031 52.219 181.542 52.502C181.052 52.785 180.497 52.9386 179.93 52.9479C177.363 52.9479 176.264 51.6708 176.264 49.134V42.9745H178.431V48.9255C178.431 50.637 179.134 51.2538 180.312 51.2538C182.119 51.2538 182.725 50.1114 182.725 48.604V42.9571H184.892V52.6872H184.875ZM201.903 43.5392C201.503 41.9971 200.497 40.8721 198.519 40.8721C195.609 40.8721 194.396 43.4088 194.396 45.9804C194.396 48.5519 195.613 51.0887 198.519 51.0887C200.629 51.0887 201.785 49.5336 201.978 47.5789H204.299C204.11 50.789 201.811 53.0087 198.523 53.0087C194.457 53.0087 192.022 49.816 192.022 45.9847C192.022 42.1535 194.453 38.9608 198.523 38.9608C201.6 38.9608 203.996 40.6505 204.281 43.5435H201.903V43.5392ZM212.224 49.4163C212.224 50.7673 210.743 51.2581 209.793 51.2581C209.033 51.2581 207.798 50.9758 207.798 50.0201C207.798 48.8951 208.633 48.5563 209.556 48.4042C210.479 48.2522 211.552 48.2522 212.215 47.8222V49.4207L212.224 49.4163ZM214.391 45.5069C214.391 43.461 212.378 42.6878 210.435 42.6878C208.268 42.6878 206.123 43.4219 205.969 45.9196H208.136C208.233 44.8684 209.09 44.3775 210.303 44.3775C211.182 44.3775 212.338 44.586 212.338 45.6807C212.338 46.9404 210.949 46.771 209.393 47.0533C207.569 47.2575 205.613 47.6528 205.613 50.094C205.613 51.9922 207.209 52.9305 208.976 52.9305C210.219 52.965 211.43 52.5442 212.378 51.749C212.549 52.6177 213.178 52.9305 214.053 52.9305C214.517 52.9075 214.976 52.8257 215.42 52.6872V51.2234C215.244 51.2497 215.066 51.2613 214.888 51.2581C214.488 51.2581 214.374 51.054 214.374 50.524V45.5286L214.391 45.5069ZM216.725 42.9745H218.769V44.4036L218.809 44.4427C219.12 43.9098 219.569 43.4681 220.11 43.1629C220.65 42.8576 221.263 42.6996 221.886 42.7051C224.018 42.7051 225.363 43.8302 225.363 46.0108V52.6872H223.196V46.5798C223.16 45.0595 222.549 44.4079 221.275 44.4079C219.829 44.4079 218.901 45.533 218.901 46.9621V52.6872H216.734L216.725 42.9745ZM233.714 49.4163C233.714 50.7673 232.233 51.2581 231.279 51.2581C230.519 51.2581 229.284 50.9758 229.284 50.0201C229.284 48.8951 230.119 48.5563 231.042 48.4042C231.965 48.2522 233.033 48.2348 233.714 47.8004V49.399V49.4163ZM235.881 45.5069C235.881 43.461 233.868 42.6878 231.947 42.6878C229.78 42.6878 227.631 43.4219 227.481 45.9196H229.648C229.745 44.8684 230.598 44.3775 231.815 44.3775C232.695 44.3775 233.846 44.586 233.846 45.6807C233.846 46.9404 232.457 46.771 230.901 47.0533C229.077 47.2575 227.116 47.6528 227.116 50.094C227.116 51.9922 228.716 52.9305 230.479 52.9305C231.722 52.965 232.934 52.5442 233.881 51.749C234.053 52.6177 234.681 52.9305 235.556 52.9305C236.02 52.9077 236.48 52.8259 236.923 52.6872V51.2234C236.747 51.2498 236.569 51.2614 236.391 51.2581C235.991 51.2581 235.877 51.054 235.877 50.524V45.5286L235.881 45.5069ZM239.895 47.9351C239.895 46.1976 240.615 44.4036 242.651 44.4036C244.321 44.4036 245.367 45.6807 245.367 47.8222C245.367 49.5119 244.549 51.2581 242.611 51.2581C240.673 51.2581 239.895 49.6031 239.895 47.9351ZM247.459 39.2779H245.292V44.2342H245.253C244.589 43.1656 243.222 42.7138 241.987 42.7138C239.837 42.7138 237.732 44.2515 237.732 47.7657C237.732 50.6761 239.235 52.9479 242.33 52.9479C243.565 52.9479 244.8 52.4787 245.371 51.3711H245.411V52.6742H247.464V39.2735L247.459 39.2779ZM255.877 49.4163C255.877 50.7673 254.396 51.2581 253.446 51.2581C252.686 51.2581 251.451 50.9758 251.451 50.0201C251.451 48.8951 252.286 48.5563 253.209 48.4042C254.132 48.2522 255.204 48.2522 255.868 47.8222V49.4207L255.877 49.4163ZM258.044 45.5069C258.044 43.461 256.031 42.6878 254.11 42.6878C251.943 42.6878 249.793 43.4219 249.644 45.9196H251.811C251.908 44.8684 252.76 44.3775 253.978 44.3775C254.857 44.3775 256.009 44.586 256.009 45.6807C256.009 46.9404 254.62 46.771 253.064 47.0533C251.24 47.2575 249.279 47.6528 249.279 50.094C249.279 51.9922 250.879 52.9305 252.642 52.9305C253.884 52.9646 255.096 52.5438 256.044 51.749C256.215 52.6177 256.844 52.9305 257.714 52.9305C258.179 52.9076 258.638 52.8259 259.081 52.6872V51.2234C258.905 51.2498 258.727 51.2614 258.549 51.2581C258.149 51.2581 258.035 51.054 258.035 50.524V45.5286L258.044 45.5069Z" fill="black"/>
<path d="M333.67 33.7829H332.149L331.789 32.2061C330.514 33.6352 329.358 34.1044 327.701 34.1044C323.635 34.1044 321.2 30.9117 321.2 27.0804C321.2 23.2492 323.635 20.0521 327.701 20.0521C330.668 20.0521 333.156 21.6116 333.516 24.6349H331.2C330.971 22.8713 329.415 21.9677 327.684 21.9677C324.774 21.9677 323.56 24.5045 323.56 27.0761C323.56 29.6476 324.778 32.1844 327.684 32.1844C330.114 32.2192 331.446 30.777 331.486 28.5009H327.877V26.7199H333.67V33.7829ZM340.453 32.3538C338.514 32.3538 337.657 30.6163 337.657 28.9179C337.657 27.2194 338.514 25.4993 340.453 25.4993C342.391 25.4993 343.248 27.2368 343.248 28.9179C343.248 30.5989 342.391 32.3538 340.453 32.3538ZM340.453 34.0436C343.609 34.0436 345.415 31.9021 345.415 28.9179C345.415 25.9337 343.604 23.8095 340.453 23.8095C337.301 23.8095 335.49 25.951 335.49 28.9179C335.49 31.8847 337.297 34.0479 340.453 34.0479V34.0436ZM346.242 24.0745H348.598L351.077 31.5285H351.116L353.512 24.0702H355.754L352.237 33.7786H349.807L346.242 24.0745ZM358.774 28.0708C358.769 27.7333 358.832 27.3983 358.96 27.0853C359.088 26.7724 359.278 26.4878 359.519 26.2483C359.76 26.0088 360.046 25.8192 360.362 25.6906C360.678 25.562 361.017 25.4969 361.358 25.4993C362.822 25.4993 363.754 26.7199 363.829 28.0708H358.774ZM365.996 29.4826C366.356 26.5722 364.457 23.8095 361.358 23.8095C358.431 23.8095 356.607 26.1769 356.607 28.9352C356.607 31.9194 358.338 34.0436 361.415 34.0436C363.565 34.0436 365.371 32.862 365.864 30.7379H363.824C363.442 31.8108 362.686 32.3538 361.429 32.3538C359.622 32.3538 358.791 31.0029 358.791 29.4782L365.996 29.4826ZM367.648 24.0745H369.684V25.951H369.723C369.926 25.3487 370.309 24.8214 370.821 24.439C371.334 24.0565 371.952 23.837 372.593 23.8095C372.867 23.8068 373.14 23.8257 373.411 23.866V25.9337C373.103 25.8832 372.791 25.8513 372.479 25.8381C370.998 25.8381 369.82 27.0196 369.82 29.1611V33.7829H367.648V24.0745ZM374.338 24.0745H376.391V25.5036L376.431 25.5427C376.742 25.0098 377.191 24.5682 377.732 24.2629C378.272 23.9576 378.885 23.7997 379.508 23.8052C381.635 23.8052 382.985 24.9302 382.985 27.1108V33.7829H380.818V27.6799C380.778 26.1595 380.171 25.508 378.897 25.508C377.451 25.508 376.519 26.633 376.519 28.0621V33.7829H374.352V24.0745H374.338ZM385.248 24.0745H387.301V25.4254H387.358C387.662 24.9069 388.104 24.4815 388.637 24.1963C389.17 23.9111 389.773 23.7772 390.378 23.8095C391.574 23.8095 392.699 24.3178 393.134 25.4254C393.463 24.9172 393.919 24.5015 394.458 24.2184C394.997 23.9353 395.601 23.7945 396.211 23.8095C398.281 23.8095 399.499 24.713 399.499 27.0761V33.7829H397.332V28.1099C397.332 26.5679 397.235 25.5036 395.547 25.5036C394.084 25.5036 393.455 26.4636 393.455 28.1099V33.8003H391.288V27.5496C391.288 26.216 390.848 25.5036 389.56 25.5036C388.44 25.5036 387.411 26.4071 387.411 28.0187V33.7829H385.244V24.0745H385.248ZM403.477 28.0708C403.472 27.7333 403.536 27.3983 403.664 27.0853C403.792 26.7724 403.982 26.4878 404.222 26.2483C404.463 26.0088 404.75 25.8192 405.066 25.6906C405.381 25.562 405.72 25.4969 406.062 25.4993C407.525 25.4993 408.457 26.7199 408.532 28.0708H403.477ZM410.699 29.4826C411.059 26.5722 409.16 23.8095 406.062 23.8095C403.134 23.8095 401.31 26.1769 401.31 28.9352C401.31 31.9194 403.037 34.0436 406.119 34.0436C408.268 34.0436 410.075 32.862 410.567 30.7379H408.514C408.136 31.8108 407.376 32.3538 406.119 32.3538C404.312 32.3538 403.481 31.0029 403.481 29.4782L410.699 29.4826ZM412.352 24.0745H414.404V25.5036L414.444 25.5427C414.755 25.0098 415.204 24.5682 415.745 24.2629C416.285 23.9576 416.898 23.7997 417.521 23.8052C419.648 23.8052 420.998 24.9302 420.998 27.1108V33.7829H418.813V27.6799C418.774 26.1595 418.167 25.508 416.892 25.508C415.446 25.508 414.514 26.633 414.514 28.0621V33.7829H412.352V24.0745ZM422.286 24.0745H423.917V21.1598H426.084V24.0702H428.04V25.6687H426.084V30.8595C426.084 31.7283 426.158 32.1931 427.13 32.1931C427.437 32.2054 427.744 32.1791 428.044 32.1149V33.7699C427.569 33.8047 427.112 33.8828 426.637 33.8828C424.374 33.8828 423.956 33.0141 423.917 31.4025V25.6687H422.286V24.0745ZM326.022 51.1365C324.084 51.1365 323.226 49.399 323.226 47.7005C323.226 46.0021 324.088 44.282 326.022 44.282C327.956 44.282 328.818 46.0195 328.818 47.7005C328.818 49.3816 327.969 51.1365 326.022 51.1365ZM326.022 52.8262C329.178 52.8262 330.98 50.6847 330.98 47.7005C330.98 44.7163 329.182 42.5879 326.022 42.5879C322.862 42.5879 321.059 44.7294 321.059 47.6962C321.059 50.663 322.87 52.8262 326.022 52.8262ZM331.824 42.8528H333.437V42.0492C333.437 39.5689 334.756 39.1562 336.154 39.1562C336.664 39.1366 337.175 39.1804 337.675 39.2866V40.9589C337.346 40.8753 337.007 40.8373 336.668 40.846C336.079 40.846 335.604 41.0545 335.604 41.8581V42.8528H337.451V44.4514H335.604V52.5786H333.437V44.4514H331.824V42.8528ZM353.53 43.4175C353.13 41.8755 352.123 40.7504 350.145 40.7504C347.235 40.7504 346.022 43.2872 346.022 45.8588C346.022 48.4303 347.24 50.9671 350.145 50.9671C352.255 50.9671 353.415 49.4077 353.604 47.4529H355.912C355.723 50.663 353.424 52.8827 350.136 52.8827C346.07 52.8827 343.635 49.69 343.635 45.8588C343.635 42.0275 346.07 38.8348 350.136 38.8348C353.213 38.8348 355.609 40.5245 355.895 43.4175H353.521H353.53ZM363.851 49.2991C363.851 50.65 362.369 51.1408 361.415 51.1408C360.655 51.1408 359.42 50.8585 359.42 49.9029C359.42 48.7778 360.255 48.439 361.178 48.287C362.101 48.1349 363.174 48.1349 363.837 47.7049L363.851 49.2991ZM366.018 45.3896C366.018 43.3437 364.004 42.5748 362.062 42.5748C359.895 42.5748 357.745 43.3089 357.596 45.8066H359.763C359.868 44.7598 360.747 44.282 361.947 44.282C362.826 44.282 363.982 44.4905 363.982 45.5851C363.982 46.8448 362.593 46.6754 361.037 46.9577C359.213 47.1619 357.257 47.5572 357.257 49.9984C357.257 51.8967 358.853 52.8349 360.62 52.8349C361.862 52.8691 363.074 52.4483 364.022 51.6534C364.193 52.5222 364.822 52.8349 365.692 52.8349C366.157 52.812 366.616 52.7302 367.059 52.5917V51.1017C366.883 51.1281 366.705 51.1398 366.527 51.1365C366.127 51.1365 366.013 50.9323 366.013 50.4024L366.018 45.3896ZM368.352 42.8528H370.418V44.282L370.457 44.321C370.768 43.7882 371.217 43.3465 371.758 43.0412C372.299 42.736 372.911 42.578 373.534 42.5835C375.662 42.5835 377.011 43.7086 377.011 45.8892V52.5786H374.813V46.4625C374.774 44.9422 374.167 44.2906 372.892 44.2906C371.446 44.2906 370.514 45.4157 370.514 46.8448V52.5786H368.352V42.8528ZM385.323 49.2991C385.323 50.65 383.842 51.1408 382.892 51.1408C382.132 51.1408 380.897 50.8585 380.897 49.9029C380.897 48.7778 381.732 48.439 382.655 48.287C383.578 48.1349 384.651 48.1349 385.314 47.7049L385.323 49.2991ZM387.49 45.3896C387.49 43.3437 385.477 42.5748 383.534 42.5748C381.367 42.5748 379.222 43.3089 379.068 45.8066H381.235C381.332 44.7554 382.185 44.2689 383.402 44.2689C384.281 44.2689 385.437 44.4774 385.437 45.5721C385.437 46.8318 384.048 46.6624 382.492 46.9447C380.668 47.1489 378.712 47.5442 378.712 49.9854C378.712 51.8836 380.308 52.8219 382.075 52.8219C383.317 52.856 384.529 52.4353 385.477 51.6404C385.648 52.5091 386.277 52.8219 387.147 52.8219C387.612 52.799 388.071 52.7172 388.514 52.5786V51.1017C388.338 51.1281 388.16 51.1397 387.982 51.1365C387.582 51.1365 387.468 50.9323 387.468 50.4024L387.49 45.3896ZM391.516 47.8004C391.516 46.0629 392.237 44.2689 394.273 44.2689C395.943 44.2689 396.989 45.546 396.989 47.6875C396.989 49.3773 396.171 51.1235 394.233 51.1235C392.295 51.1235 391.516 49.4858 391.516 47.8004ZM399.086 39.1562H396.919V44.1125H396.879C396.215 43.044 394.844 42.5922 393.609 42.5922C391.459 42.5922 389.354 44.1299 389.354 47.6441C389.354 50.5544 390.853 52.8262 393.952 52.8262C395.187 52.8262 396.422 52.3571 396.993 51.2494H397.033V52.5526H399.086V39.1562ZM407.503 49.2991C407.503 50.65 406.022 51.1408 405.068 51.1408C404.308 51.1408 403.073 50.8585 403.073 49.9029C403.073 48.7778 403.908 48.439 404.831 48.287C405.754 48.1349 406.826 48.1349 407.49 47.7049L407.503 49.2991ZM409.67 45.3896C409.67 43.3437 407.657 42.5748 405.714 42.5748C403.547 42.5748 401.398 43.3089 401.248 45.8066H403.415C403.512 44.7554 404.365 44.2689 405.582 44.2689C406.462 44.2689 407.618 44.4774 407.618 45.5721C407.618 46.8318 406.229 46.6624 404.673 46.9447C402.848 47.1489 400.892 47.5442 400.892 49.9854C400.892 51.8836 402.488 52.8219 404.255 52.8219C405.498 52.8564 406.709 52.4356 407.657 51.6404C407.829 52.5091 408.457 52.8219 409.327 52.8219C409.792 52.799 410.251 52.7172 410.695 52.5786V51.1017C410.519 51.1281 410.341 51.1398 410.163 51.1365C409.763 51.1365 409.648 50.9323 409.648 50.4024L409.67 45.3896Z" fill="black"/>
</g>
<path d="M621.777 18.2392H627.736V30.1313H621.777V18.2392ZM611.464 24.1852L611.12 24.2996C611.12 24.2996 613.182 26.0148 613.182 26.1291C613.297 26.2435 613.412 26.2435 613.297 26.5865C613.182 26.9296 613.068 27.2726 613.068 27.2726C613.068 27.2726 614.901 26.9296 615.131 26.8152C615.36 26.8152 615.474 26.8152 615.474 27.0439C615.474 27.2726 615.36 29.2165 615.36 29.2165H615.933C615.933 29.2165 615.818 27.1583 615.818 27.0439C615.818 26.8152 615.933 26.8152 616.162 26.8152C616.391 26.8152 618.225 27.2726 618.225 27.2726C618.225 27.2726 618.11 26.8152 617.995 26.5865C617.881 26.2435 617.995 26.2435 618.11 26.1291C618.225 26.0148 620.173 24.2996 620.173 24.2996L619.829 24.1852C619.6 24.0709 619.714 23.9566 619.714 23.8422C619.714 23.7279 620.058 22.5844 620.058 22.5844C620.058 22.5844 619.141 22.8131 619.027 22.8131C618.912 22.8131 618.798 22.8131 618.798 22.6987C618.798 22.5844 618.568 22.127 618.568 22.127C618.568 22.127 617.537 23.2705 617.422 23.3848C617.193 23.6135 616.964 23.3848 617.079 23.1561C617.079 22.9274 617.652 20.5262 617.652 20.5262C617.652 20.5262 617.079 20.8692 616.849 20.9835C616.62 21.0979 616.506 21.0979 616.506 20.8692C616.391 20.6405 615.704 19.3827 615.704 19.2683C615.704 19.2683 615.016 20.6405 614.901 20.8692C614.787 21.0979 614.672 21.0979 614.558 20.9835C614.328 20.8692 613.755 20.5262 613.755 20.5262C613.755 20.5262 614.328 22.9274 614.328 23.1561C614.328 23.3848 614.214 23.4992 613.985 23.3848L612.839 22.127C612.839 22.127 612.724 22.4701 612.609 22.5844C612.609 22.6987 612.495 22.8131 612.38 22.6987C612.151 22.6987 611.234 22.4701 611.234 22.4701C611.234 22.4701 611.578 23.6135 611.693 23.7279C611.693 23.8422 611.693 24.0709 611.464 24.1852ZM603.786 18.2392H609.745V30.1313H603.786V18.2392Z" fill="#EB2D37"/>
<path d="M629.072 53.9113C628.614 54.9404 627.697 55.2834 627.124 55.2834C626.436 55.2834 624.374 55.1691 624.374 49.7948C624.374 49.7948 624.374 38.932 624.374 38.2459C624.374 34.7012 621.623 31.8426 614.519 31.8426C606.841 31.8426 606.726 35.616 606.726 36.5307C606.612 37.5598 607.185 38.7033 609.133 38.7033C610.852 38.7033 611.31 36.7594 611.539 36.0733C611.768 35.2729 611.883 32.986 614.977 32.986C617.613 32.986 619.217 35.2729 619.332 38.5889C619.332 39.1607 619.332 39.5037 619.332 39.8467C619.332 40.0754 619.332 40.1898 619.332 40.4185V40.5328C619.102 41.6763 618.529 42.248 617.498 42.7054C616.123 43.3915 612.112 43.9632 611.654 44.0775C610.049 44.4206 605.58 45.564 605.695 50.2522C605.809 54.826 610.393 56.4269 613.602 56.3125C616.696 56.1982 618.529 54.9404 619.332 54.2543C619.79 53.9113 619.79 53.9113 620.134 54.3686C620.592 54.826 622.082 56.3125 625.634 56.3125C629.301 56.3125 629.76 54.5973 629.989 54.0256C630.103 53.6826 629.301 53.3395 629.072 53.9113ZM614.748 55.1691C611.539 55.1691 610.737 52.5391 610.737 51.167C610.737 49.9092 611.425 47.2792 614.633 45.4497C614.633 45.4497 616.123 44.5349 618.988 43.3915C619.102 43.3915 619.217 43.3915 619.217 43.3915C619.217 43.3915 619.332 43.5058 619.332 43.6202V43.7345V43.8488V48.6514C619.332 52.4248 617.498 55.1691 614.748 55.1691ZM604.205 55.0547C603.747 54.9404 600.882 55.2834 600.882 46.5931C600.882 37.9029 600.882 19.2645 600.882 19.2645C600.882 18.9215 600.882 18.0067 599.85 18.0067C598.819 18.0067 591.943 18.3498 591.485 18.4641C591.027 18.4641 590.683 19.0358 591.485 19.0358C592.287 19.1502 595.954 19.3789 595.954 25.4392C595.954 28.4122 595.954 31.3852 595.954 33.5577C595.954 33.6721 595.954 33.7864 595.954 33.7864C595.954 34.0151 595.954 34.1295 595.84 34.2438C595.84 34.2438 595.84 34.2438 595.84 34.3582C595.725 34.4725 595.61 34.3582 595.267 34.1295C594.694 33.6721 592.058 32.0712 588.735 32.0712C583.349 32.0712 576.702 35.959 576.702 43.9632C576.702 52.5391 582.776 56.6556 589.079 56.6556C592.173 56.6556 594.35 55.2834 595.152 54.826C596.069 54.2543 595.954 54.3686 596.069 55.1691C596.183 55.7408 596.069 56.8843 597.673 56.7699C599.392 56.5412 603.518 56.0838 604.32 55.9695C605.122 55.6264 604.893 55.1691 604.205 55.0547ZM589.995 55.3978C584.953 55.3978 582.317 49.4518 582.317 43.7345C582.317 37.4455 585.87 33.2147 589.652 33.4434C594.579 33.7864 595.84 37.6742 595.954 44.6493C595.954 45.1066 595.954 45.564 595.954 46.1358C595.84 52.9965 592.975 55.3978 589.995 55.3978ZM576.588 53.9113C576.129 54.9404 575.213 55.2834 574.64 55.2834C573.952 55.2834 571.889 55.1691 571.889 49.7948C571.889 49.7948 571.889 38.932 571.889 38.2459C571.889 34.7012 569.139 31.8426 562.034 31.8426C554.356 31.8426 554.242 35.616 554.242 36.5307C554.127 37.5598 554.7 38.7033 556.648 38.7033C558.367 38.7033 558.826 36.7594 559.055 36.0733C559.284 35.2729 559.399 32.986 562.493 32.986C565.128 32.986 566.847 35.2729 566.847 38.7033V38.8176C566.847 38.932 566.847 39.0463 566.847 39.0463V39.3894C566.847 39.5037 566.847 39.7324 566.847 39.8467C566.733 41.5619 566.274 42.1337 564.899 42.8197C563.524 43.5058 559.513 44.0775 559.055 44.1919C557.45 44.5349 552.981 45.6784 553.096 50.3665C553.21 54.9404 557.794 56.5412 561.003 56.4269C564.097 56.3125 565.93 55.0547 566.733 54.3686C567.191 54.0256 567.191 54.0256 567.535 54.483C567.993 54.9404 569.483 56.4269 573.035 56.4269C576.702 56.4269 577.161 54.7117 577.39 54.1399C577.619 53.6826 576.932 53.3395 576.588 53.9113ZM562.378 55.1691C559.169 55.1691 558.367 52.5391 558.367 51.167C558.367 49.9092 559.055 47.2792 562.263 45.4497C562.263 45.4497 563.753 44.5349 566.618 43.3915C566.733 43.3915 566.847 43.3915 566.847 43.3915V43.5058C566.847 43.6202 566.847 43.7345 566.847 43.9632V43.8488C566.847 43.8488 566.847 43.8488 566.847 43.9632V48.7657C566.847 52.4248 565.014 55.1691 562.378 55.1691ZM551.377 55.0547C550.46 54.826 548.856 53.7969 548.856 48.7657V39.6181C548.856 37.4455 549.085 31.8426 540.49 31.8426C536.021 31.8426 533.5 34.1295 533.271 34.2438C532.927 34.5868 532.698 34.7012 532.583 34.1295C532.469 33.6721 532.24 32.986 532.125 32.5286C532.01 32.1856 531.781 31.8426 530.979 31.9569C530.177 32.0712 525.135 32.8717 524.218 33.1004C523.416 33.329 523.645 33.6721 524.218 33.7864C524.791 33.9008 527.541 34.1295 527.541 38.8176C527.541 43.5058 527.541 48.6514 527.541 48.6514C527.541 54.3686 526.395 54.826 525.364 55.1691C523.989 55.5121 524.676 55.9695 525.249 55.9695C525.249 55.9695 535.448 55.9695 535.677 55.9695C536.365 55.9695 536.709 55.2834 535.334 55.0547C533.959 54.826 532.698 54.0256 532.698 49.5661C532.698 49.1087 532.698 44.1919 532.698 43.2771C532.698 40.8759 532.125 33.5577 538.771 33.4434C543.47 33.329 543.928 37.2168 543.928 39.7324V49.4518C543.928 53.4539 542.782 54.7117 541.407 54.9404C540.147 55.1691 540.376 55.7408 541.063 55.7408C541.293 55.7408 551.721 55.7408 551.721 55.7408C552.294 55.9695 552.867 55.3978 551.377 55.0547ZM523.53 53.9113C523.072 54.9404 522.155 55.2834 521.582 55.2834C520.895 55.2834 518.832 55.1691 518.832 49.7948C518.832 49.7948 518.832 38.932 518.832 38.2459C518.832 34.7012 516.082 31.8426 508.977 31.8426C501.299 31.8426 501.184 35.616 501.184 36.5307C501.07 37.5598 501.643 38.7033 503.591 38.7033C505.31 38.7033 505.768 36.7594 505.997 36.0733C506.227 35.2729 506.341 32.986 509.435 32.986C512.071 32.986 513.675 35.2729 513.79 38.5889C513.79 39.1607 513.79 39.5037 513.79 39.8467C513.79 40.0754 513.79 40.3041 513.675 40.4185V40.5328C513.446 41.6763 512.873 42.248 511.842 42.7054C510.467 43.3915 506.456 43.9632 505.997 44.0775C504.393 44.4206 499.924 45.564 500.039 50.2522C500.153 54.826 504.737 56.4269 507.946 56.3125C511.04 56.1982 512.873 54.9404 513.675 54.2543C514.134 53.9113 514.134 53.9113 514.477 54.3686C514.936 54.826 516.426 56.3125 519.978 56.3125C523.645 56.3125 524.103 54.5973 524.333 54.0256C524.562 53.6826 523.76 53.3395 523.53 53.9113ZM509.206 55.1691C505.997 55.1691 505.195 52.5391 505.195 51.167C505.195 49.7948 505.883 47.2792 509.091 45.4497C509.091 45.4497 510.581 44.5349 513.446 43.3915C513.561 43.3915 513.675 43.3915 513.675 43.3915C513.675 43.3915 513.79 43.5058 513.79 43.6202C513.79 43.6202 513.79 43.7345 513.79 43.8488V43.9632V48.7657C513.79 52.4248 511.956 55.1691 509.206 55.1691ZM498.205 45.221C497.059 48.8801 494.882 54.826 486.975 55.0547C478.724 55.1691 473.796 49.5661 473.567 39.1607C473.223 28.0691 478.036 19.6076 485.485 19.3789C493.85 19.2645 496.83 29.2126 496.944 30.6991C497.059 31.8426 498.549 31.7282 498.549 30.5848C498.549 30.013 497.861 20.1793 497.632 19.0358C497.403 17.8924 496.486 18.3498 496.257 18.8072C496.142 19.1502 496.371 18.4641 495.913 19.4932C495.455 20.5223 494.194 19.9506 493.736 19.8363C492.361 19.2645 489.725 17.8924 485.485 18.0067C475.744 18.2354 465.775 25.4392 466.004 38.0172C466.233 50.2522 476.088 57.1129 485.256 56.9986C493.621 56.8842 498.32 51.6244 499.695 45.564C500.153 44.0775 498.663 43.7345 498.205 45.221Z" fill="black"/>
<g clip-path="url(#clip1_5534_68663)">
<rect x="20" y="37" width="48" height="1" fill="#C54600"/>
<g clip-path="url(#clip2_5534_68663)">
<rect x="20" y="25" width="24" height="24" rx="12" fill="#C54600"/>
<path d="M33.1825 32.2727V41H32.1257V33.3807H32.0746L29.9439 34.7955V33.7216L32.1257 32.2727H33.1825Z" fill="white"/>
</g>
</g>
<g clip-path="url(#clip3_5534_68663)">
<rect x="630" y="37" width="48" height="1" fill="#C54600"/>
<g clip-path="url(#clip4_5534_68663)">
<rect x="654" y="25" width="24" height="24" rx="12" fill="#C54600"/>
<path d="M663.271 41V40.233L666.151 37.0795C666.489 36.7102 666.768 36.3892 666.987 36.1165C667.205 35.8409 667.367 35.5824 667.472 35.3409C667.58 35.0966 667.634 34.8409 667.634 34.5739C667.634 34.267 667.56 34.0014 667.413 33.777C667.268 33.5526 667.069 33.3793 666.816 33.2571C666.563 33.1349 666.279 33.0739 665.964 33.0739C665.629 33.0739 665.336 33.1435 665.086 33.2827C664.839 33.419 664.647 33.6108 664.511 33.858C664.377 34.1051 664.31 34.3949 664.31 34.7273H663.305C663.305 34.2159 663.423 33.767 663.658 33.3807C663.894 32.9943 664.215 32.6932 664.621 32.4773C665.031 32.2614 665.489 32.1534 665.998 32.1534C666.509 32.1534 666.962 32.2614 667.357 32.4773C667.752 32.6932 668.062 32.9844 668.286 33.3509C668.511 33.7173 668.623 34.125 668.623 34.5739C668.623 34.8949 668.565 35.2088 668.448 35.5156C668.335 35.8196 668.136 36.1591 667.852 36.5341C667.57 36.9062 667.18 37.3608 666.68 37.8977L664.719 39.9943V40.0625H668.776V41H663.271Z" fill="white"/>
</g>
</g>
<defs>
<clipPath id="clip0_5534_68663">
<rect width="360" height="33" fill="white" transform="translate(68 20)"/>
</clipPath>
<clipPath id="clip1_5534_68663">
<rect width="48" height="24" fill="white" transform="translate(20 25)"/>
</clipPath>
<clipPath id="clip2_5534_68663">
<rect x="20" y="25" width="24" height="24" rx="12" fill="white"/>
</clipPath>
<clipPath id="clip3_5534_68663">
<rect width="48" height="24" fill="white" transform="translate(630 25)"/>
</clipPath>
<clipPath id="clip4_5534_68663">
<rect x="654" y="25" width="24" height="24" rx="12" fill="white"/>
</clipPath>
</defs>
</svg>
