<svg width="388" height="254" viewBox="0 0 388 254" fill="none" xmlns="http://www.w3.org/2000/svg">
<g clip-path="url(#clip0_6923_34933)">
<path d="M76.8 46V31.72H79.82V43.5H85.62V46H76.8ZM92.3686 34.88C93.8753 34.88 95.0686 35.3133 95.9486 36.18C96.8286 37.0333 97.2686 38.2533 97.2686 39.84V41.28H90.2286C90.2553 42.12 90.5019 42.78 90.9686 43.26C91.4486 43.74 92.1086 43.98 92.9486 43.98C93.6553 43.98 94.2953 43.9133 94.8686 43.78C95.4419 43.6333 96.0353 43.4133 96.6486 43.12V45.42C96.1153 45.6867 95.5486 45.88 94.9486 46C94.3619 46.1333 93.6486 46.2 92.8086 46.2C91.7153 46.2 90.7486 46 89.9086 45.6C89.0686 45.1867 88.4086 44.5667 87.9286 43.74C87.4486 42.9133 87.2086 41.8733 87.2086 40.62C87.2086 39.34 87.4219 38.28 87.8486 37.44C88.2886 36.5867 88.8953 35.9467 89.6686 35.52C90.4419 35.0933 91.3419 34.88 92.3686 34.88ZM92.3886 37C91.8153 37 91.3353 37.1867 90.9486 37.56C90.5753 37.9333 90.3553 38.5133 90.2886 39.3H94.4686C94.4553 38.6333 94.2819 38.0867 93.9486 37.66C93.6153 37.22 93.0953 37 92.3886 37ZM96.4486 30.88C96.2619 31.0667 96.0153 31.2933 95.7086 31.56C95.4019 31.8267 95.0686 32.1067 94.7086 32.4C94.3619 32.6933 94.0153 32.9733 93.6686 33.24C93.3353 33.4933 93.0419 33.7067 92.7886 33.88H90.8086V33.62C91.0219 33.3667 91.2686 33.0733 91.5486 32.74C91.8419 32.3933 92.1286 32.04 92.4086 31.68C92.6886 31.3067 92.9219 30.9733 93.1086 30.68H96.4486V30.88ZM103.225 34.88C104.572 34.88 105.625 35.4133 106.385 36.48H106.465L106.705 35.08H109.225V46.02C109.225 47.58 108.765 48.7667 107.845 49.58C106.925 50.3933 105.565 50.8 103.765 50.8C102.992 50.8 102.272 50.7533 101.605 50.66C100.952 50.5667 100.312 50.4 99.685 50.16V47.78C101.032 48.34 102.452 48.62 103.945 48.62C105.478 48.62 106.245 47.7933 106.245 46.14V45.92C106.245 45.6933 106.252 45.46 106.265 45.22C106.292 44.98 106.312 44.7667 106.325 44.58H106.245C105.872 45.1533 105.425 45.5667 104.905 45.82C104.385 46.0733 103.798 46.2 103.145 46.2C101.852 46.2 100.838 45.7067 100.105 44.72C99.385 43.72 99.025 42.3333 99.025 40.56C99.025 38.7733 99.3983 37.38 100.145 36.38C100.892 35.38 101.918 34.88 103.225 34.88ZM104.165 37.3C102.765 37.3 102.065 38.4 102.065 40.6C102.065 42.7733 102.778 43.86 104.205 43.86C104.965 43.86 105.525 43.6467 105.885 43.22C106.258 42.78 106.445 42.02 106.445 40.94V40.58C106.445 39.4067 106.265 38.5667 105.905 38.06C105.545 37.5533 104.965 37.3 104.165 37.3ZM116.841 34.88C118.348 34.88 119.541 35.3133 120.421 36.18C121.301 37.0333 121.741 38.2533 121.741 39.84V41.28H114.701C114.728 42.12 114.975 42.78 115.441 43.26C115.921 43.74 116.581 43.98 117.421 43.98C118.128 43.98 118.768 43.9133 119.341 43.78C119.915 43.6333 120.508 43.4133 121.121 43.12V45.42C120.588 45.6867 120.021 45.88 119.421 46C118.835 46.1333 118.121 46.2 117.281 46.2C116.188 46.2 115.221 46 114.381 45.6C113.541 45.1867 112.881 44.5667 112.401 43.74C111.921 42.9133 111.681 41.8733 111.681 40.62C111.681 39.34 111.895 38.28 112.321 37.44C112.761 36.5867 113.368 35.9467 114.141 35.52C114.915 35.0933 115.815 34.88 116.841 34.88ZM116.861 37C116.288 37 115.808 37.1867 115.421 37.56C115.048 37.9333 114.828 38.5133 114.761 39.3H118.941C118.928 38.6333 118.755 38.0867 118.421 37.66C118.088 37.22 117.568 37 116.861 37ZM130.358 34.88C131.531 34.88 132.471 35.2 133.178 35.84C133.884 36.4667 134.238 37.48 134.238 38.88V46H131.258V39.62C131.258 38.8333 131.118 38.2467 130.838 37.86C130.558 37.46 130.111 37.26 129.498 37.26C128.591 37.26 127.971 37.5733 127.638 38.2C127.304 38.8133 127.138 39.7 127.138 40.86V46H124.158V35.08H126.438L126.838 36.48H126.998C127.344 35.92 127.818 35.5133 128.418 35.26C129.031 35.0067 129.678 34.88 130.358 34.88ZM140.762 46.2C139.549 46.2 138.556 45.7267 137.782 44.78C137.022 43.82 136.642 42.4133 136.642 40.56C136.642 38.6933 137.029 37.28 137.802 36.32C138.576 35.36 139.589 34.88 140.842 34.88C141.629 34.88 142.276 35.0333 142.782 35.34C143.289 35.6467 143.689 36.0267 143.982 36.48H144.082C144.042 36.2667 143.996 35.96 143.942 35.56C143.889 35.1467 143.862 34.7267 143.862 34.3V30.8H146.842V46H144.562L143.982 44.58H143.862C143.569 45.0333 143.176 45.42 142.682 45.74C142.189 46.0467 141.549 46.2 140.762 46.2ZM141.802 43.82C142.629 43.82 143.209 43.58 143.542 43.1C143.876 42.6067 144.049 41.8733 144.062 40.9V40.58C144.062 39.5133 143.896 38.7 143.562 38.14C143.242 37.58 142.642 37.3 141.762 37.3C141.109 37.3 140.596 37.5867 140.222 38.16C139.849 38.72 139.662 39.5333 139.662 40.6C139.662 41.6667 139.849 42.4733 140.222 43.02C140.596 43.5533 141.122 43.82 141.802 43.82ZM154.458 34.88C155.965 34.88 157.158 35.3133 158.038 36.18C158.918 37.0333 159.358 38.2533 159.358 39.84V41.28H152.318C152.345 42.12 152.592 42.78 153.058 43.26C153.538 43.74 154.198 43.98 155.038 43.98C155.745 43.98 156.385 43.9133 156.958 43.78C157.532 43.6333 158.125 43.4133 158.738 43.12V45.42C158.205 45.6867 157.638 45.88 157.038 46C156.452 46.1333 155.738 46.2 154.898 46.2C153.805 46.2 152.838 46 151.998 45.6C151.158 45.1867 150.498 44.5667 150.018 43.74C149.538 42.9133 149.298 41.8733 149.298 40.62C149.298 39.34 149.512 38.28 149.938 37.44C150.378 36.5867 150.985 35.9467 151.758 35.52C152.532 35.0933 153.432 34.88 154.458 34.88ZM154.478 37C153.905 37 153.425 37.1867 153.038 37.56C152.665 37.9333 152.445 38.5133 152.378 39.3H156.558C156.545 38.6333 156.372 38.0867 156.038 37.66C155.705 37.22 155.185 37 154.478 37Z" fill="#333333"/>
<path d="M169.8 40.52C169.8 38.8933 170.033 37.3267 170.5 35.82C170.98 34.3 171.727 32.9333 172.74 31.72H174.4C173.467 32.9733 172.76 34.3533 172.28 35.86C171.813 37.3667 171.58 38.9133 171.58 40.5C171.58 42.0467 171.813 43.5667 172.28 45.06C172.76 46.54 173.46 47.9067 174.38 49.16H172.74C171.727 47.9867 170.98 46.66 170.5 45.18C170.033 43.6867 169.8 42.1333 169.8 40.52ZM186.016 40.62C186.016 42.3933 185.563 43.7667 184.656 44.74C183.763 45.7133 182.549 46.2 181.016 46.2C180.069 46.2 179.223 45.9867 178.476 45.56C177.743 45.12 177.163 44.4867 176.736 43.66C176.309 42.82 176.096 41.8067 176.096 40.62C176.096 38.8467 176.543 37.48 177.436 36.52C178.329 35.56 179.543 35.08 181.076 35.08C182.049 35.08 182.903 35.3 183.636 35.74C184.383 36.1667 184.963 36.7933 185.376 37.62C185.803 38.4333 186.016 39.4333 186.016 40.62ZM177.916 40.62C177.916 41.8867 178.163 42.8933 178.656 43.64C179.163 44.3733 179.963 44.74 181.056 44.74C182.136 44.74 182.929 44.3733 183.436 43.64C183.943 42.8933 184.196 41.8867 184.196 40.62C184.196 39.3533 183.943 38.36 183.436 37.64C182.929 36.92 182.129 36.56 181.036 36.56C179.943 36.56 179.149 36.92 178.656 37.64C178.163 38.36 177.916 39.3533 177.916 40.62ZM190.565 34.5C190.565 34.9533 190.552 35.38 190.525 35.78C190.512 36.1667 190.492 36.4733 190.465 36.7H190.565C190.872 36.2467 191.292 35.8667 191.825 35.56C192.359 35.2533 193.045 35.1 193.885 35.1C195.219 35.1 196.285 35.5667 197.085 36.5C197.899 37.42 198.305 38.8 198.305 40.64C198.305 42.48 197.899 43.8667 197.085 44.8C196.272 45.7333 195.205 46.2 193.885 46.2C193.045 46.2 192.359 46.0467 191.825 45.74C191.292 45.4333 190.872 45.0667 190.565 44.64H190.425L190.065 46H188.805V30.8H190.565V34.5ZM193.585 36.56C192.452 36.56 191.665 36.8867 191.225 37.54C190.785 38.1933 190.565 39.2067 190.565 40.58V40.66C190.565 41.98 190.779 42.9933 191.205 43.7C191.645 44.3933 192.452 44.74 193.625 44.74C194.585 44.74 195.299 44.3867 195.765 43.68C196.245 42.9733 196.485 41.9533 196.485 40.62C196.485 37.9133 195.519 36.56 193.585 36.56ZM202.87 46H201.11V30.8H202.87V46ZM207.166 31.26C207.433 31.26 207.666 31.3533 207.866 31.54C208.08 31.7133 208.186 31.9933 208.186 32.38C208.186 32.7533 208.08 33.0333 207.866 33.22C207.666 33.4067 207.433 33.5 207.166 33.5C206.873 33.5 206.626 33.4067 206.426 33.22C206.226 33.0333 206.126 32.7533 206.126 32.38C206.126 31.9933 206.226 31.7133 206.426 31.54C206.626 31.3533 206.873 31.26 207.166 31.26ZM208.026 35.28V46H206.266V35.28H208.026ZM215.223 35.08C215.929 35.08 216.563 35.2133 217.123 35.48C217.696 35.7467 218.183 36.1533 218.583 36.7H218.683L218.923 35.28H220.323V46.18C220.323 47.7133 219.929 48.8667 219.143 49.64C218.369 50.4133 217.163 50.8 215.523 50.8C213.949 50.8 212.663 50.5733 211.663 50.12V48.5C212.716 49.06 214.036 49.34 215.623 49.34C216.543 49.34 217.263 49.0667 217.783 48.52C218.316 47.9867 218.583 47.2533 218.583 46.32V45.9C218.583 45.74 218.589 45.5133 218.603 45.22C218.616 44.9133 218.629 44.7 218.643 44.58H218.563C217.843 45.66 216.736 46.2 215.243 46.2C213.856 46.2 212.769 45.7133 211.983 44.74C211.209 43.7667 210.823 42.4067 210.823 40.66C210.823 38.9533 211.209 37.6 211.983 36.6C212.769 35.5867 213.849 35.08 215.223 35.08ZM215.463 36.56C214.569 36.56 213.876 36.92 213.383 37.64C212.889 38.3467 212.643 39.36 212.643 40.68C212.643 42 212.883 43.0133 213.363 43.72C213.856 44.4133 214.569 44.76 215.503 44.76C216.583 44.76 217.369 44.4733 217.863 43.9C218.356 43.3133 218.603 42.3733 218.603 41.08V40.66C218.603 39.1933 218.349 38.1467 217.843 37.52C217.336 36.88 216.543 36.56 215.463 36.56ZM227.787 35.1C229.094 35.1 230.061 35.3867 230.687 35.96C231.314 36.5333 231.627 37.4467 231.627 38.7V46H230.347L230.007 44.48H229.927C229.461 45.0667 228.967 45.5 228.447 45.78C227.941 46.06 227.234 46.2 226.327 46.2C225.354 46.2 224.547 45.9467 223.907 45.44C223.267 44.92 222.947 44.1133 222.947 43.02C222.947 41.9533 223.367 41.1333 224.207 40.56C225.047 39.9733 226.341 39.6533 228.087 39.6L229.907 39.54V38.9C229.907 38.0067 229.714 37.3867 229.327 37.04C228.941 36.6933 228.394 36.52 227.687 36.52C227.127 36.52 226.594 36.6067 226.087 36.78C225.581 36.94 225.107 37.1267 224.667 37.34L224.127 36.02C224.594 35.7667 225.147 35.5533 225.787 35.38C226.427 35.1933 227.094 35.1 227.787 35.1ZM228.307 40.82C226.974 40.8733 226.047 41.0867 225.527 41.46C225.021 41.8333 224.767 42.36 224.767 43.04C224.767 43.64 224.947 44.08 225.307 44.36C225.681 44.64 226.154 44.78 226.727 44.78C227.634 44.78 228.387 44.5333 228.987 44.04C229.587 43.5333 229.887 42.76 229.887 41.72V40.76L228.307 40.82ZM238.518 44.76C238.785 44.76 239.058 44.74 239.338 44.7C239.618 44.6467 239.845 44.5933 240.018 44.54V45.88C239.832 45.9733 239.565 46.0467 239.218 46.1C238.872 46.1667 238.538 46.2 238.218 46.2C237.658 46.2 237.138 46.1067 236.658 45.92C236.192 45.72 235.812 45.38 235.518 44.9C235.225 44.42 235.078 43.7467 235.078 42.88V36.64H233.558V35.8L235.098 35.1L235.798 32.82H236.838V35.28H239.938V36.64H236.838V42.84C236.838 43.4933 236.992 43.98 237.298 44.3C237.618 44.6067 238.025 44.76 238.518 44.76ZM251.485 40.62C251.485 42.3933 251.032 43.7667 250.125 44.74C249.232 45.7133 248.018 46.2 246.485 46.2C245.538 46.2 244.692 45.9867 243.945 45.56C243.212 45.12 242.632 44.4867 242.205 43.66C241.778 42.82 241.565 41.8067 241.565 40.62C241.565 38.8467 242.012 37.48 242.905 36.52C243.798 35.56 245.012 35.08 246.545 35.08C247.518 35.08 248.372 35.3 249.105 35.74C249.852 36.1667 250.432 36.7933 250.845 37.62C251.272 38.4333 251.485 39.4333 251.485 40.62ZM243.385 40.62C243.385 41.8867 243.632 42.8933 244.125 43.64C244.632 44.3733 245.432 44.74 246.525 44.74C247.605 44.74 248.398 44.3733 248.905 43.64C249.412 42.8933 249.665 41.8867 249.665 40.62C249.665 39.3533 249.412 38.36 248.905 37.64C248.398 36.92 247.598 36.56 246.505 36.56C245.412 36.56 244.618 36.92 244.125 37.64C243.632 38.36 243.385 39.3533 243.385 40.62ZM255.174 31.26C255.441 31.26 255.674 31.3533 255.874 31.54C256.088 31.7133 256.194 31.9933 256.194 32.38C256.194 32.7533 256.088 33.0333 255.874 33.22C255.674 33.4067 255.441 33.5 255.174 33.5C254.881 33.5 254.634 33.4067 254.434 33.22C254.234 33.0333 254.134 32.7533 254.134 32.38C254.134 31.9933 254.234 31.7133 254.434 31.54C254.634 31.3533 254.881 31.26 255.174 31.26ZM256.034 35.28V46H254.274V35.28H256.034ZM264.43 35.08C264.63 35.08 264.844 35.0933 265.07 35.12C265.31 35.1333 265.517 35.16 265.69 35.2L265.47 36.82C265.297 36.78 265.104 36.7467 264.89 36.72C264.69 36.6933 264.497 36.68 264.31 36.68C263.764 36.68 263.25 36.8333 262.77 37.14C262.29 37.4333 261.904 37.8533 261.61 38.4C261.33 38.9333 261.19 39.56 261.19 40.28V46H259.43V35.28H260.87L261.07 37.24H261.15C261.497 36.6533 261.944 36.1467 262.49 35.72C263.037 35.2933 263.684 35.08 264.43 35.08ZM271.442 35.08C272.362 35.08 273.148 35.28 273.802 35.68C274.468 36.08 274.975 36.6467 275.322 37.38C275.682 38.1 275.862 38.9467 275.862 39.92V40.98H268.522C268.548 42.1933 268.855 43.12 269.442 43.76C270.042 44.3867 270.875 44.7 271.942 44.7C272.622 44.7 273.222 44.64 273.742 44.52C274.275 44.3867 274.822 44.2 275.382 43.96V45.5C274.835 45.74 274.295 45.9133 273.762 46.02C273.228 46.14 272.595 46.2 271.862 46.2C270.848 46.2 269.948 45.9933 269.162 45.58C268.388 45.1667 267.782 44.5533 267.342 43.74C266.915 42.9133 266.702 41.9067 266.702 40.72C266.702 39.5467 266.895 38.54 267.282 37.7C267.682 36.86 268.235 36.2133 268.942 35.76C269.662 35.3067 270.495 35.08 271.442 35.08ZM271.422 36.52C270.582 36.52 269.915 36.7933 269.422 37.34C268.942 37.8733 268.655 38.62 268.562 39.58H274.022C274.008 38.6733 273.795 37.94 273.382 37.38C272.968 36.8067 272.315 36.52 271.422 36.52ZM282.091 40.52C282.091 42.1333 281.851 43.6867 281.371 45.18C280.904 46.66 280.164 47.9867 279.151 49.16H277.511C278.431 47.9067 279.124 46.54 279.591 45.06C280.071 43.5667 280.311 42.0467 280.311 40.5C280.311 38.9133 280.071 37.3667 279.591 35.86C279.124 34.3533 278.424 32.9733 277.491 31.72H279.151C280.164 32.9333 280.904 34.3 281.371 35.82C281.851 37.3267 282.091 38.8933 282.091 40.52Z" fill="#333333"/>
<path d="M81.46 76H79.66V63.3H75.2V61.72H85.9V63.3H81.46V76ZM90.547 65.08C91.467 65.08 92.2537 65.28 92.907 65.68C93.5737 66.08 94.0804 66.6467 94.427 67.38C94.787 68.1 94.967 68.9467 94.967 69.92V70.98H87.627C87.6537 72.1933 87.9604 73.12 88.547 73.76C89.147 74.3867 89.9804 74.7 91.047 74.7C91.727 74.7 92.327 74.64 92.847 74.52C93.3804 74.3867 93.927 74.2 94.487 73.96V75.5C93.9404 75.74 93.4004 75.9133 92.867 76.02C92.3337 76.14 91.7004 76.2 90.967 76.2C89.9537 76.2 89.0537 75.9933 88.267 75.58C87.4937 75.1667 86.887 74.5533 86.447 73.74C86.0204 72.9133 85.807 71.9067 85.807 70.72C85.807 69.5467 86.0004 68.54 86.387 67.7C86.787 66.86 87.3404 66.2133 88.047 65.76C88.767 65.3067 89.6004 65.08 90.547 65.08ZM90.527 66.52C89.687 66.52 89.0204 66.7933 88.527 67.34C88.047 67.8733 87.7604 68.62 87.667 69.58H93.127C93.1137 68.6733 92.9004 67.94 92.487 67.38C92.0737 66.8067 91.4204 66.52 90.527 66.52ZM99.8455 70.52L96.1455 65.28H98.1455L100.905 69.32L103.645 65.28H105.625L101.925 70.52L105.825 76H103.825L100.905 71.72L97.9455 76H95.9655L99.8455 70.52ZM111.471 74.76C111.738 74.76 112.011 74.74 112.291 74.7C112.571 74.6467 112.798 74.5933 112.971 74.54V75.88C112.785 75.9733 112.518 76.0467 112.171 76.1C111.825 76.1667 111.491 76.2 111.171 76.2C110.611 76.2 110.091 76.1067 109.611 75.92C109.145 75.72 108.765 75.38 108.471 74.9C108.178 74.42 108.031 73.7467 108.031 72.88V66.64H106.511V65.8L108.051 65.1L108.751 62.82H109.791V65.28H112.891V66.64H109.791V72.84C109.791 73.4933 109.945 73.98 110.251 74.3C110.571 74.6067 110.978 74.76 111.471 74.76ZM119.258 65.08C120.178 65.08 120.965 65.28 121.618 65.68C122.285 66.08 122.791 66.6467 123.138 67.38C123.498 68.1 123.678 68.9467 123.678 69.92V70.98H116.338C116.365 72.1933 116.671 73.12 117.258 73.76C117.858 74.3867 118.691 74.7 119.758 74.7C120.438 74.7 121.038 74.64 121.558 74.52C122.091 74.3867 122.638 74.2 123.198 73.96V75.5C122.651 75.74 122.111 75.9133 121.578 76.02C121.045 76.14 120.411 76.2 119.678 76.2C118.665 76.2 117.765 75.9933 116.978 75.58C116.205 75.1667 115.598 74.5533 115.158 73.74C114.731 72.9133 114.518 71.9067 114.518 70.72C114.518 69.5467 114.711 68.54 115.098 67.7C115.498 66.86 116.051 66.2133 116.758 65.76C117.478 65.3067 118.311 65.08 119.258 65.08ZM119.238 66.52C118.398 66.52 117.731 66.7933 117.238 67.34C116.758 67.8733 116.471 68.62 116.378 69.58H121.838C121.825 68.6733 121.611 67.94 121.198 67.38C120.785 66.8067 120.131 66.52 119.238 66.52ZM135.742 65.08C136.662 65.08 137.449 65.28 138.102 65.68C138.769 66.08 139.276 66.6467 139.622 67.38C139.982 68.1 140.162 68.9467 140.162 69.92V70.98H132.822C132.849 72.1933 133.156 73.12 133.742 73.76C134.342 74.3867 135.176 74.7 136.242 74.7C136.922 74.7 137.522 74.64 138.042 74.52C138.576 74.3867 139.122 74.2 139.682 73.96V75.5C139.136 75.74 138.596 75.9133 138.062 76.02C137.529 76.14 136.896 76.2 136.162 76.2C135.149 76.2 134.249 75.9933 133.462 75.58C132.689 75.1667 132.082 74.5533 131.642 73.74C131.216 72.9133 131.002 71.9067 131.002 70.72C131.002 69.5467 131.196 68.54 131.582 67.7C131.982 66.86 132.536 66.2133 133.242 65.76C133.962 65.3067 134.796 65.08 135.742 65.08ZM135.722 66.52C134.882 66.52 134.216 66.7933 133.722 67.34C133.242 67.8733 132.956 68.62 132.862 69.58H138.322C138.309 68.6733 138.096 67.94 137.682 67.38C137.269 66.8067 136.616 66.52 135.722 66.52ZM145.041 70.52L141.341 65.28H143.341L146.101 69.32L148.841 65.28H150.821L147.121 70.52L151.021 76H149.021L146.101 71.72L143.141 76H141.161L145.041 70.52ZM158.187 65.08C159.507 65.08 160.567 65.54 161.367 66.46C162.18 67.38 162.587 68.7667 162.587 70.62C162.587 72.4467 162.18 73.8333 161.367 74.78C160.567 75.7267 159.5 76.2 158.167 76.2C157.34 76.2 156.653 76.0467 156.107 75.74C155.573 75.42 155.153 75.0533 154.847 74.64H154.727C154.753 74.8667 154.78 75.1533 154.807 75.5C154.833 75.8467 154.847 76.1467 154.847 76.4V80.8H153.087V65.28H154.527L154.767 66.74H154.847C155.167 66.2733 155.587 65.88 156.107 65.56C156.627 65.24 157.32 65.08 158.187 65.08ZM157.867 66.56C156.773 66.56 156 66.8667 155.547 67.48C155.107 68.0933 154.873 69.0267 154.847 70.28V70.62C154.847 71.94 155.06 72.96 155.487 73.68C155.927 74.3867 156.733 74.74 157.907 74.74C158.56 74.74 159.093 74.56 159.507 74.2C159.933 73.84 160.247 73.3533 160.447 72.74C160.66 72.1133 160.767 71.4 160.767 70.6C160.767 69.3733 160.527 68.3933 160.047 67.66C159.58 66.9267 158.853 66.56 157.867 66.56ZM167.151 76H165.391V60.8H167.151V76ZM171.448 61.26C171.714 61.26 171.948 61.3533 172.148 61.54C172.361 61.7133 172.468 61.9933 172.468 62.38C172.468 62.7533 172.361 63.0333 172.148 63.22C171.948 63.4067 171.714 63.5 171.448 63.5C171.154 63.5 170.908 63.4067 170.708 63.22C170.508 63.0333 170.408 62.7533 170.408 62.38C170.408 61.9933 170.508 61.7133 170.708 61.54C170.908 61.3533 171.154 61.26 171.448 61.26ZM172.308 65.28V76H170.548V65.28H172.308ZM180.004 76.2C179.057 76.2 178.211 76.0067 177.464 75.62C176.731 75.2333 176.151 74.6333 175.724 73.82C175.311 73.0067 175.104 71.9667 175.104 70.7C175.104 69.38 175.324 68.3067 175.764 67.48C176.204 66.6533 176.797 66.0467 177.544 65.66C178.304 65.2733 179.164 65.08 180.124 65.08C180.671 65.08 181.197 65.14 181.704 65.26C182.211 65.3667 182.624 65.5 182.944 65.66L182.404 67.12C182.084 67 181.711 66.8867 181.284 66.78C180.857 66.6733 180.457 66.62 180.084 66.62C177.977 66.62 176.924 67.9733 176.924 70.68C176.924 71.9733 177.177 72.9667 177.684 73.66C178.204 74.34 178.971 74.68 179.984 74.68C180.571 74.68 181.084 74.62 181.524 74.5C181.977 74.38 182.391 74.2333 182.764 74.06V75.62C182.404 75.8067 182.004 75.9467 181.564 76.04C181.137 76.1467 180.617 76.2 180.004 76.2ZM189.373 65.1C190.68 65.1 191.647 65.3867 192.273 65.96C192.9 66.5333 193.213 67.4467 193.213 68.7V76H191.933L191.593 74.48H191.513C191.047 75.0667 190.553 75.5 190.033 75.78C189.527 76.06 188.82 76.2 187.913 76.2C186.94 76.2 186.133 75.9467 185.493 75.44C184.853 74.92 184.533 74.1133 184.533 73.02C184.533 71.9533 184.953 71.1333 185.793 70.56C186.633 69.9733 187.927 69.6533 189.673 69.6L191.493 69.54V68.9C191.493 68.0067 191.3 67.3867 190.913 67.04C190.527 66.6933 189.98 66.52 189.273 66.52C188.713 66.52 188.18 66.6067 187.673 66.78C187.167 66.94 186.693 67.1267 186.253 67.34L185.713 66.02C186.18 65.7667 186.733 65.5533 187.373 65.38C188.013 65.1933 188.68 65.1 189.373 65.1ZM189.893 70.82C188.56 70.8733 187.633 71.0867 187.113 71.46C186.607 71.8333 186.353 72.36 186.353 73.04C186.353 73.64 186.533 74.08 186.893 74.36C187.267 74.64 187.74 74.78 188.313 74.78C189.22 74.78 189.973 74.5333 190.573 74.04C191.173 73.5333 191.473 72.76 191.473 71.72V70.76L189.893 70.82ZM200.104 74.76C200.371 74.76 200.644 74.74 200.924 74.7C201.204 74.6467 201.431 74.5933 201.604 74.54V75.88C201.418 75.9733 201.151 76.0467 200.804 76.1C200.458 76.1667 200.124 76.2 199.804 76.2C199.244 76.2 198.724 76.1067 198.244 75.92C197.778 75.72 197.398 75.38 197.104 74.9C196.811 74.42 196.664 73.7467 196.664 72.88V66.64H195.144V65.8L196.684 65.1L197.384 62.82H198.424V65.28H201.524V66.64H198.424V72.84C198.424 73.4933 198.578 73.98 198.884 74.3C199.204 74.6067 199.611 74.76 200.104 74.76ZM204.651 61.26C204.917 61.26 205.151 61.3533 205.351 61.54C205.564 61.7133 205.671 61.9933 205.671 62.38C205.671 62.7533 205.564 63.0333 205.351 63.22C205.151 63.4067 204.917 63.5 204.651 63.5C204.357 63.5 204.111 63.4067 203.911 63.22C203.711 63.0333 203.611 62.7533 203.611 62.38C203.611 61.9933 203.711 61.7133 203.911 61.54C204.111 61.3533 204.357 61.26 204.651 61.26ZM205.511 65.28V76H203.751V65.28H205.511ZM213.847 66.64H211.147V76H209.387V66.64H207.507V65.82L209.387 65.22V64.6C209.387 63.2133 209.694 62.22 210.307 61.62C210.92 61.0067 211.774 60.7 212.867 60.7C213.294 60.7 213.68 60.74 214.027 60.82C214.387 60.8867 214.694 60.9667 214.947 61.06L214.487 62.44C214.274 62.3733 214.027 62.3067 213.747 62.24C213.467 62.1733 213.18 62.14 212.887 62.14C212.3 62.14 211.86 62.34 211.567 62.74C211.287 63.1267 211.147 63.74 211.147 64.58V65.28H213.847V66.64Z" fill="#43474E"/>
<rect x="76" y="99" width="46" height="46" rx="2" fill="white"/>
<rect x="76" y="99" width="46" height="46" rx="2" stroke="#333333" stroke-width="2"/>
<path d="M151.5 122.84C151.5 123.947 151.36 124.953 151.08 125.86C150.813 126.753 150.4 127.527 149.84 128.18C149.293 128.833 148.6 129.333 147.76 129.68C146.933 130.027 145.967 130.2 144.86 130.2C143.727 130.2 142.74 130.027 141.9 129.68C141.073 129.32 140.38 128.82 139.82 128.18C139.273 127.527 138.867 126.747 138.6 125.84C138.333 124.933 138.2 123.927 138.2 122.82C138.2 121.353 138.44 120.073 138.92 118.98C139.4 117.887 140.133 117.033 141.12 116.42C142.12 115.807 143.373 115.5 144.88 115.5C146.347 115.5 147.567 115.807 148.54 116.42C149.527 117.02 150.267 117.873 150.76 118.98C151.253 120.073 151.5 121.36 151.5 122.84ZM140.48 122.84C140.48 123.987 140.633 124.973 140.94 125.8C141.247 126.613 141.727 127.247 142.38 127.7C143.033 128.14 143.86 128.36 144.86 128.36C145.873 128.36 146.7 128.14 147.34 127.7C147.98 127.247 148.453 126.613 148.76 125.8C149.067 124.973 149.22 123.987 149.22 122.84C149.22 121.12 148.873 119.78 148.18 118.82C147.5 117.847 146.4 117.36 144.88 117.36C143.867 117.36 143.033 117.58 142.38 118.02C141.727 118.46 141.247 119.087 140.94 119.9C140.633 120.713 140.48 121.693 140.48 122.84ZM159.743 119.02C161.036 119.02 162.076 119.487 162.863 120.42C163.663 121.353 164.063 122.747 164.063 124.6C164.063 125.813 163.883 126.84 163.523 127.68C163.163 128.52 162.656 129.153 162.003 129.58C161.35 129.993 160.59 130.2 159.723 130.2C159.176 130.2 158.696 130.133 158.283 130C157.87 129.853 157.516 129.667 157.223 129.44C156.943 129.2 156.696 128.947 156.483 128.68H156.343C156.383 128.92 156.416 129.207 156.443 129.54C156.47 129.86 156.483 130.147 156.483 130.4V134.8H154.363V119.22H156.083L156.383 120.66H156.483C156.696 120.367 156.95 120.093 157.243 119.84C157.536 119.587 157.89 119.387 158.303 119.24C158.716 119.093 159.196 119.02 159.743 119.02ZM159.243 120.76C158.576 120.76 158.043 120.893 157.643 121.16C157.243 121.413 156.95 121.8 156.763 122.32C156.59 122.827 156.496 123.473 156.483 124.26V124.58C156.483 125.407 156.57 126.113 156.743 126.7C156.916 127.273 157.203 127.713 157.603 128.02C158.016 128.313 158.576 128.46 159.283 128.46C159.883 128.46 160.37 128.3 160.743 127.98C161.13 127.647 161.416 127.187 161.603 126.6C161.79 126.013 161.883 125.333 161.883 124.56C161.883 123.387 161.67 122.46 161.243 121.78C160.816 121.1 160.15 120.76 159.243 120.76ZM170.645 128.48C170.925 128.48 171.212 128.453 171.505 128.4C171.799 128.347 172.052 128.287 172.265 128.22V129.82C172.039 129.927 171.732 130.013 171.345 130.08C170.959 130.16 170.572 130.2 170.185 130.2C169.599 130.2 169.059 130.1 168.565 129.9C168.085 129.7 167.699 129.353 167.405 128.86C167.112 128.367 166.965 127.68 166.965 126.8V120.84H165.465V119.88L167.045 119.08L167.785 116.8H169.085V119.22H172.165V120.84H169.085V126.76C169.085 127.347 169.225 127.78 169.505 128.06C169.799 128.34 170.179 128.48 170.645 128.48ZM176.542 119.22V130H174.422V119.22H176.542ZM175.502 115.12C175.822 115.12 176.102 115.213 176.342 115.4C176.582 115.587 176.702 115.9 176.702 116.34C176.702 116.767 176.582 117.08 176.342 117.28C176.102 117.467 175.822 117.56 175.502 117.56C175.155 117.56 174.862 117.467 174.622 117.28C174.395 117.08 174.282 116.767 174.282 116.34C174.282 115.9 174.395 115.587 174.622 115.4C174.862 115.213 175.155 115.12 175.502 115.12ZM189.371 124.6C189.371 125.493 189.251 126.287 189.011 126.98C188.771 127.673 188.431 128.26 187.991 128.74C187.551 129.22 187.018 129.587 186.391 129.84C185.764 130.08 185.058 130.2 184.271 130.2C183.551 130.2 182.884 130.08 182.271 129.84C181.658 129.587 181.124 129.22 180.671 128.74C180.231 128.26 179.884 127.673 179.631 126.98C179.378 126.287 179.251 125.487 179.251 124.58C179.251 123.393 179.451 122.387 179.851 121.56C180.264 120.733 180.851 120.107 181.611 119.68C182.384 119.24 183.291 119.02 184.331 119.02C185.318 119.02 186.184 119.24 186.931 119.68C187.691 120.107 188.284 120.733 188.711 121.56C189.151 122.387 189.371 123.4 189.371 124.6ZM181.431 124.6C181.431 125.4 181.531 126.093 181.731 126.68C181.931 127.253 182.244 127.693 182.671 128C183.098 128.307 183.644 128.46 184.311 128.46C184.978 128.46 185.524 128.307 185.951 128C186.378 127.693 186.691 127.253 186.891 126.68C187.091 126.093 187.191 125.4 187.191 124.6C187.191 123.773 187.084 123.08 186.871 122.52C186.671 121.96 186.358 121.533 185.931 121.24C185.518 120.933 184.971 120.78 184.291 120.78C183.291 120.78 182.564 121.113 182.111 121.78C181.658 122.447 181.431 123.387 181.431 124.6ZM197.518 119.02C198.772 119.02 199.732 119.333 200.398 119.96C201.065 120.587 201.398 121.593 201.398 122.98V130H199.298V123.28C199.298 122.44 199.118 121.813 198.758 121.4C198.412 120.973 197.852 120.76 197.078 120.76C195.985 120.76 195.225 121.087 194.798 121.74C194.385 122.393 194.178 123.333 194.178 124.56V130H192.058V119.22H193.738L194.038 120.66H194.158C194.398 120.287 194.692 119.98 195.038 119.74C195.385 119.5 195.772 119.32 196.198 119.2C196.625 119.08 197.065 119.02 197.518 119.02ZM215.631 130H213.531V120.52C213.531 120.187 213.531 119.88 213.531 119.6C213.545 119.307 213.558 119.027 213.571 118.76C213.585 118.48 213.598 118.213 213.611 117.96C213.438 118.133 213.258 118.3 213.071 118.46C212.885 118.62 212.671 118.807 212.431 119.02L210.871 120.28L209.791 118.92L213.871 115.72H215.631V130Z" fill="#333333"/>
<path d="M143.46 162H141.66V149.3H137.2V147.72H147.9V149.3H143.46V162ZM152.547 151.08C153.467 151.08 154.254 151.28 154.907 151.68C155.574 152.08 156.08 152.647 156.427 153.38C156.787 154.1 156.967 154.947 156.967 155.92V156.98H149.627C149.654 158.193 149.96 159.12 150.547 159.76C151.147 160.387 151.98 160.7 153.047 160.7C153.727 160.7 154.327 160.64 154.847 160.52C155.38 160.387 155.927 160.2 156.487 159.96V161.5C155.94 161.74 155.4 161.913 154.867 162.02C154.334 162.14 153.7 162.2 152.967 162.2C151.954 162.2 151.054 161.993 150.267 161.58C149.494 161.167 148.887 160.553 148.447 159.74C148.02 158.913 147.807 157.907 147.807 156.72C147.807 155.547 148 154.54 148.387 153.7C148.787 152.86 149.34 152.213 150.047 151.76C150.767 151.307 151.6 151.08 152.547 151.08ZM152.527 152.52C151.687 152.52 151.02 152.793 150.527 153.34C150.047 153.873 149.76 154.62 149.667 155.58H155.127C155.114 154.673 154.9 153.94 154.487 153.38C154.074 152.807 153.42 152.52 152.527 152.52ZM161.845 156.52L158.145 151.28H160.145L162.905 155.32L165.645 151.28H167.625L163.925 156.52L167.825 162H165.825L162.905 157.72L159.945 162H157.965L161.845 156.52ZM173.471 160.76C173.738 160.76 174.011 160.74 174.291 160.7C174.571 160.647 174.798 160.593 174.971 160.54V161.88C174.785 161.973 174.518 162.047 174.171 162.1C173.825 162.167 173.491 162.2 173.171 162.2C172.611 162.2 172.091 162.107 171.611 161.92C171.145 161.72 170.765 161.38 170.471 160.9C170.178 160.42 170.031 159.747 170.031 158.88V152.64H168.511V151.8L170.051 151.1L170.751 148.82H171.791V151.28H174.891V152.64H171.791V158.84C171.791 159.493 171.945 159.98 172.251 160.3C172.571 160.607 172.978 160.76 173.471 160.76ZM181.258 151.08C182.178 151.08 182.965 151.28 183.618 151.68C184.285 152.08 184.791 152.647 185.138 153.38C185.498 154.1 185.678 154.947 185.678 155.92V156.98H178.338C178.365 158.193 178.671 159.12 179.258 159.76C179.858 160.387 180.691 160.7 181.758 160.7C182.438 160.7 183.038 160.64 183.558 160.52C184.091 160.387 184.638 160.2 185.198 159.96V161.5C184.651 161.74 184.111 161.913 183.578 162.02C183.045 162.14 182.411 162.2 181.678 162.2C180.665 162.2 179.765 161.993 178.978 161.58C178.205 161.167 177.598 160.553 177.158 159.74C176.731 158.913 176.518 157.907 176.518 156.72C176.518 155.547 176.711 154.54 177.098 153.7C177.498 152.86 178.051 152.213 178.758 151.76C179.478 151.307 180.311 151.08 181.258 151.08ZM181.238 152.52C180.398 152.52 179.731 152.793 179.238 153.34C178.758 153.873 178.471 154.62 178.378 155.58H183.838C183.825 154.673 183.611 153.94 183.198 153.38C182.785 152.807 182.131 152.52 181.238 152.52ZM197.742 151.08C198.662 151.08 199.449 151.28 200.102 151.68C200.769 152.08 201.276 152.647 201.622 153.38C201.982 154.1 202.162 154.947 202.162 155.92V156.98H194.822C194.849 158.193 195.156 159.12 195.742 159.76C196.342 160.387 197.176 160.7 198.242 160.7C198.922 160.7 199.522 160.64 200.042 160.52C200.576 160.387 201.122 160.2 201.682 159.96V161.5C201.136 161.74 200.596 161.913 200.062 162.02C199.529 162.14 198.896 162.2 198.162 162.2C197.149 162.2 196.249 161.993 195.462 161.58C194.689 161.167 194.082 160.553 193.642 159.74C193.216 158.913 193.002 157.907 193.002 156.72C193.002 155.547 193.196 154.54 193.582 153.7C193.982 152.86 194.536 152.213 195.242 151.76C195.962 151.307 196.796 151.08 197.742 151.08ZM197.722 152.52C196.882 152.52 196.216 152.793 195.722 153.34C195.242 153.873 194.956 154.62 194.862 155.58H200.322C200.309 154.673 200.096 153.94 199.682 153.38C199.269 152.807 198.616 152.52 197.722 152.52ZM207.041 156.52L203.341 151.28H205.341L208.101 155.32L210.841 151.28H212.821L209.121 156.52L213.021 162H211.021L208.101 157.72L205.141 162H203.161L207.041 156.52ZM220.187 151.08C221.507 151.08 222.567 151.54 223.367 152.46C224.18 153.38 224.587 154.767 224.587 156.62C224.587 158.447 224.18 159.833 223.367 160.78C222.567 161.727 221.5 162.2 220.167 162.2C219.34 162.2 218.653 162.047 218.107 161.74C217.573 161.42 217.153 161.053 216.847 160.64H216.727C216.753 160.867 216.78 161.153 216.807 161.5C216.833 161.847 216.847 162.147 216.847 162.4V166.8H215.087V151.28H216.527L216.767 152.74H216.847C217.167 152.273 217.587 151.88 218.107 151.56C218.627 151.24 219.32 151.08 220.187 151.08ZM219.867 152.56C218.773 152.56 218 152.867 217.547 153.48C217.107 154.093 216.873 155.027 216.847 156.28V156.62C216.847 157.94 217.06 158.96 217.487 159.68C217.927 160.387 218.733 160.74 219.907 160.74C220.56 160.74 221.093 160.56 221.507 160.2C221.933 159.84 222.247 159.353 222.447 158.74C222.66 158.113 222.767 157.4 222.767 156.6C222.767 155.373 222.527 154.393 222.047 153.66C221.58 152.927 220.853 152.56 219.867 152.56ZM229.151 162H227.391V146.8H229.151V162ZM233.448 147.26C233.714 147.26 233.948 147.353 234.148 147.54C234.361 147.713 234.468 147.993 234.468 148.38C234.468 148.753 234.361 149.033 234.148 149.22C233.948 149.407 233.714 149.5 233.448 149.5C233.154 149.5 232.908 149.407 232.708 149.22C232.508 149.033 232.408 148.753 232.408 148.38C232.408 147.993 232.508 147.713 232.708 147.54C232.908 147.353 233.154 147.26 233.448 147.26ZM234.308 151.28V162H232.548V151.28H234.308ZM242.004 162.2C241.057 162.2 240.211 162.007 239.464 161.62C238.731 161.233 238.151 160.633 237.724 159.82C237.311 159.007 237.104 157.967 237.104 156.7C237.104 155.38 237.324 154.307 237.764 153.48C238.204 152.653 238.797 152.047 239.544 151.66C240.304 151.273 241.164 151.08 242.124 151.08C242.671 151.08 243.197 151.14 243.704 151.26C244.211 151.367 244.624 151.5 244.944 151.66L244.404 153.12C244.084 153 243.711 152.887 243.284 152.78C242.857 152.673 242.457 152.62 242.084 152.62C239.977 152.62 238.924 153.973 238.924 156.68C238.924 157.973 239.177 158.967 239.684 159.66C240.204 160.34 240.971 160.68 241.984 160.68C242.571 160.68 243.084 160.62 243.524 160.5C243.977 160.38 244.391 160.233 244.764 160.06V161.62C244.404 161.807 244.004 161.947 243.564 162.04C243.137 162.147 242.617 162.2 242.004 162.2ZM251.373 151.1C252.68 151.1 253.647 151.387 254.273 151.96C254.9 152.533 255.213 153.447 255.213 154.7V162H253.933L253.593 160.48H253.513C253.047 161.067 252.553 161.5 252.033 161.78C251.527 162.06 250.82 162.2 249.913 162.2C248.94 162.2 248.133 161.947 247.493 161.44C246.853 160.92 246.533 160.113 246.533 159.02C246.533 157.953 246.953 157.133 247.793 156.56C248.633 155.973 249.927 155.653 251.673 155.6L253.493 155.54V154.9C253.493 154.007 253.3 153.387 252.913 153.04C252.527 152.693 251.98 152.52 251.273 152.52C250.713 152.52 250.18 152.607 249.673 152.78C249.167 152.94 248.693 153.127 248.253 153.34L247.713 152.02C248.18 151.767 248.733 151.553 249.373 151.38C250.013 151.193 250.68 151.1 251.373 151.1ZM251.893 156.82C250.56 156.873 249.633 157.087 249.113 157.46C248.607 157.833 248.353 158.36 248.353 159.04C248.353 159.64 248.533 160.08 248.893 160.36C249.267 160.64 249.74 160.78 250.313 160.78C251.22 160.78 251.973 160.533 252.573 160.04C253.173 159.533 253.473 158.76 253.473 157.72V156.76L251.893 156.82ZM262.104 160.76C262.371 160.76 262.644 160.74 262.924 160.7C263.204 160.647 263.431 160.593 263.604 160.54V161.88C263.418 161.973 263.151 162.047 262.804 162.1C262.458 162.167 262.124 162.2 261.804 162.2C261.244 162.2 260.724 162.107 260.244 161.92C259.778 161.72 259.398 161.38 259.104 160.9C258.811 160.42 258.664 159.747 258.664 158.88V152.64H257.144V151.8L258.684 151.1L259.384 148.82H260.424V151.28H263.524V152.64H260.424V158.84C260.424 159.493 260.578 159.98 260.884 160.3C261.204 160.607 261.611 160.76 262.104 160.76ZM266.651 147.26C266.917 147.26 267.151 147.353 267.351 147.54C267.564 147.713 267.671 147.993 267.671 148.38C267.671 148.753 267.564 149.033 267.351 149.22C267.151 149.407 266.917 149.5 266.651 149.5C266.357 149.5 266.111 149.407 265.911 149.22C265.711 149.033 265.611 148.753 265.611 148.38C265.611 147.993 265.711 147.713 265.911 147.54C266.111 147.353 266.357 147.26 266.651 147.26ZM267.511 151.28V162H265.751V151.28H267.511ZM275.847 152.64H273.147V162H271.387V152.64H269.507V151.82L271.387 151.22V150.6C271.387 149.213 271.694 148.22 272.307 147.62C272.92 147.007 273.774 146.7 274.867 146.7C275.294 146.7 275.68 146.74 276.027 146.82C276.387 146.887 276.694 146.967 276.947 147.06L276.487 148.44C276.274 148.373 276.027 148.307 275.747 148.24C275.467 148.173 275.18 148.14 274.887 148.14C274.3 148.14 273.86 148.34 273.567 148.74C273.287 149.127 273.147 149.74 273.147 150.58V151.28H275.847V152.64Z" fill="#43474E"/>
<rect x="76" y="183" width="46" height="46" rx="2" fill="white"/>
<rect x="76" y="183" width="46" height="46" rx="2" stroke="#333333" stroke-width="2"/>
<path d="M94.7237 213.362L86.057 204.695C85.5363 204.174 85.5363 203.33 86.057 202.809L87.9426 200.924C88.4633 200.403 89.3075 200.403 89.8282 200.924L95.6665 206.762L108.171 194.257C108.692 193.736 109.536 193.736 110.057 194.257L111.943 196.143C112.463 196.663 112.463 197.508 111.943 198.028L96.6093 213.362C96.0886 213.882 95.2444 213.882 94.7237 213.362Z" fill="#333333"/>
<path d="M151.5 204.34C151.5 205.447 151.36 206.453 151.08 207.36C150.813 208.253 150.4 209.027 149.84 209.68C149.293 210.333 148.6 210.833 147.76 211.18C146.933 211.527 145.967 211.7 144.86 211.7C143.727 211.7 142.74 211.527 141.9 211.18C141.073 210.82 140.38 210.32 139.82 209.68C139.273 209.027 138.867 208.247 138.6 207.34C138.333 206.433 138.2 205.427 138.2 204.32C138.2 202.853 138.44 201.573 138.92 200.48C139.4 199.387 140.133 198.533 141.12 197.92C142.12 197.307 143.373 197 144.88 197C146.347 197 147.567 197.307 148.54 197.92C149.527 198.52 150.267 199.373 150.76 200.48C151.253 201.573 151.5 202.86 151.5 204.34ZM140.48 204.34C140.48 205.487 140.633 206.473 140.94 207.3C141.247 208.113 141.727 208.747 142.38 209.2C143.033 209.64 143.86 209.86 144.86 209.86C145.873 209.86 146.7 209.64 147.34 209.2C147.98 208.747 148.453 208.113 148.76 207.3C149.067 206.473 149.22 205.487 149.22 204.34C149.22 202.62 148.873 201.28 148.18 200.32C147.5 199.347 146.4 198.86 144.88 198.86C143.867 198.86 143.033 199.08 142.38 199.52C141.727 199.96 141.247 200.587 140.94 201.4C140.633 202.213 140.48 203.193 140.48 204.34ZM159.743 200.52C161.036 200.52 162.076 200.987 162.863 201.92C163.663 202.853 164.063 204.247 164.063 206.1C164.063 207.313 163.883 208.34 163.523 209.18C163.163 210.02 162.656 210.653 162.003 211.08C161.35 211.493 160.59 211.7 159.723 211.7C159.176 211.7 158.696 211.633 158.283 211.5C157.87 211.353 157.516 211.167 157.223 210.94C156.943 210.7 156.696 210.447 156.483 210.18H156.343C156.383 210.42 156.416 210.707 156.443 211.04C156.47 211.36 156.483 211.647 156.483 211.9V216.3H154.363V200.72H156.083L156.383 202.16H156.483C156.696 201.867 156.95 201.593 157.243 201.34C157.536 201.087 157.89 200.887 158.303 200.74C158.716 200.593 159.196 200.52 159.743 200.52ZM159.243 202.26C158.576 202.26 158.043 202.393 157.643 202.66C157.243 202.913 156.95 203.3 156.763 203.82C156.59 204.327 156.496 204.973 156.483 205.76V206.08C156.483 206.907 156.57 207.613 156.743 208.2C156.916 208.773 157.203 209.213 157.603 209.52C158.016 209.813 158.576 209.96 159.283 209.96C159.883 209.96 160.37 209.8 160.743 209.48C161.13 209.147 161.416 208.687 161.603 208.1C161.79 207.513 161.883 206.833 161.883 206.06C161.883 204.887 161.67 203.96 161.243 203.28C160.816 202.6 160.15 202.26 159.243 202.26ZM170.645 209.98C170.925 209.98 171.212 209.953 171.505 209.9C171.799 209.847 172.052 209.787 172.265 209.72V211.32C172.039 211.427 171.732 211.513 171.345 211.58C170.959 211.66 170.572 211.7 170.185 211.7C169.599 211.7 169.059 211.6 168.565 211.4C168.085 211.2 167.699 210.853 167.405 210.36C167.112 209.867 166.965 209.18 166.965 208.3V202.34H165.465V201.38L167.045 200.58L167.785 198.3H169.085V200.72H172.165V202.34H169.085V208.26C169.085 208.847 169.225 209.28 169.505 209.56C169.799 209.84 170.179 209.98 170.645 209.98ZM176.542 200.72V211.5H174.422V200.72H176.542ZM175.502 196.62C175.822 196.62 176.102 196.713 176.342 196.9C176.582 197.087 176.702 197.4 176.702 197.84C176.702 198.267 176.582 198.58 176.342 198.78C176.102 198.967 175.822 199.06 175.502 199.06C175.155 199.06 174.862 198.967 174.622 198.78C174.395 198.58 174.282 198.267 174.282 197.84C174.282 197.4 174.395 197.087 174.622 196.9C174.862 196.713 175.155 196.62 175.502 196.62ZM189.371 206.1C189.371 206.993 189.251 207.787 189.011 208.48C188.771 209.173 188.431 209.76 187.991 210.24C187.551 210.72 187.018 211.087 186.391 211.34C185.764 211.58 185.058 211.7 184.271 211.7C183.551 211.7 182.884 211.58 182.271 211.34C181.658 211.087 181.124 210.72 180.671 210.24C180.231 209.76 179.884 209.173 179.631 208.48C179.378 207.787 179.251 206.987 179.251 206.08C179.251 204.893 179.451 203.887 179.851 203.06C180.264 202.233 180.851 201.607 181.611 201.18C182.384 200.74 183.291 200.52 184.331 200.52C185.318 200.52 186.184 200.74 186.931 201.18C187.691 201.607 188.284 202.233 188.711 203.06C189.151 203.887 189.371 204.9 189.371 206.1ZM181.431 206.1C181.431 206.9 181.531 207.593 181.731 208.18C181.931 208.753 182.244 209.193 182.671 209.5C183.098 209.807 183.644 209.96 184.311 209.96C184.978 209.96 185.524 209.807 185.951 209.5C186.378 209.193 186.691 208.753 186.891 208.18C187.091 207.593 187.191 206.9 187.191 206.1C187.191 205.273 187.084 204.58 186.871 204.02C186.671 203.46 186.358 203.033 185.931 202.74C185.518 202.433 184.971 202.28 184.291 202.28C183.291 202.28 182.564 202.613 182.111 203.28C181.658 203.947 181.431 204.887 181.431 206.1ZM197.518 200.52C198.772 200.52 199.732 200.833 200.398 201.46C201.065 202.087 201.398 203.093 201.398 204.48V211.5H199.298V204.78C199.298 203.94 199.118 203.313 198.758 202.9C198.412 202.473 197.852 202.26 197.078 202.26C195.985 202.26 195.225 202.587 194.798 203.24C194.385 203.893 194.178 204.833 194.178 206.06V211.5H192.058V200.72H193.738L194.038 202.16H194.158C194.398 201.787 194.692 201.48 195.038 201.24C195.385 201 195.772 200.82 196.198 200.7C196.625 200.58 197.065 200.52 197.518 200.52ZM218.711 211.5H209.111V209.86L212.791 206.12C213.511 205.387 214.111 204.753 214.591 204.22C215.071 203.673 215.431 203.153 215.671 202.66C215.911 202.153 216.031 201.607 216.031 201.02C216.031 200.287 215.818 199.74 215.391 199.38C214.965 199.007 214.411 198.82 213.731 198.82C213.078 198.82 212.491 198.947 211.971 199.2C211.451 199.44 210.911 199.78 210.351 200.22L209.211 198.8C209.598 198.467 210.011 198.167 210.451 197.9C210.905 197.633 211.405 197.42 211.951 197.26C212.511 197.1 213.125 197.02 213.791 197.02C214.698 197.02 215.478 197.18 216.131 197.5C216.785 197.807 217.285 198.247 217.631 198.82C217.991 199.393 218.171 200.067 218.171 200.84C218.171 201.413 218.085 201.953 217.911 202.46C217.738 202.953 217.485 203.44 217.151 203.92C216.831 204.4 216.438 204.887 215.971 205.38C215.505 205.873 214.991 206.393 214.431 206.94L211.771 209.52V209.62H218.711V211.5Z" fill="#333333"/>
<g clip-path="url(#clip1_6923_34933)">
<rect x="283" y="154" width="45" height="1" fill="#C54600"/>
<g clip-path="url(#clip2_6923_34933)">
<rect x="328" y="142" width="24" height="24" rx="12" fill="#C54600"/>
<path d="M340.112 159.139C339.588 159.136 339.083 159.048 338.596 158.876C338.112 158.703 337.677 158.423 337.293 158.036C336.908 157.648 336.604 157.134 336.378 156.494C336.156 155.855 336.045 155.069 336.045 154.138C336.048 153.283 336.146 152.519 336.338 151.846C336.534 151.17 336.812 150.596 337.174 150.126C337.538 149.655 337.974 149.297 338.481 149.052C338.988 148.803 339.557 148.679 340.186 148.679C340.866 148.679 341.466 148.812 341.986 149.077C342.507 149.339 342.924 149.695 343.239 150.146C343.557 150.596 343.749 151.102 343.816 151.662H341.693C341.61 151.307 341.436 151.029 341.171 150.827C340.906 150.625 340.578 150.523 340.186 150.523C339.524 150.523 339.02 150.812 338.675 151.388C338.334 151.965 338.16 152.749 338.153 153.74H338.223C338.375 153.438 338.581 153.182 338.839 152.969C339.101 152.754 339.398 152.59 339.729 152.477C340.064 152.361 340.417 152.303 340.788 152.303C341.391 152.303 341.928 152.446 342.399 152.731C342.869 153.013 343.241 153.4 343.512 153.894C343.784 154.388 343.92 154.953 343.92 155.589C343.92 156.279 343.759 156.892 343.438 157.429C343.12 157.966 342.674 158.387 342.1 158.692C341.53 158.993 340.868 159.143 340.112 159.139ZM340.102 157.449C340.433 157.449 340.73 157.369 340.992 157.21C341.254 157.051 341.459 156.836 341.608 156.564C341.757 156.292 341.832 155.987 341.832 155.649C341.832 155.311 341.757 155.008 341.608 154.739C341.462 154.471 341.26 154.257 341.002 154.098C340.743 153.939 340.448 153.859 340.117 153.859C339.868 153.859 339.638 153.906 339.426 153.999C339.217 154.091 339.033 154.221 338.874 154.386C338.718 154.552 338.596 154.744 338.506 154.963C338.417 155.179 338.372 155.409 338.372 155.654C338.372 155.982 338.446 156.282 338.596 156.554C338.748 156.826 338.953 157.043 339.212 157.205C339.474 157.368 339.77 157.449 340.102 157.449Z" fill="white"/>
</g>
</g>
<g clip-path="url(#clip3_6923_34933)">
<rect x="199" y="121" width="141" height="1" fill="#C54600"/>
<g clip-path="url(#clip4_6923_34933)">
<rect x="328" y="109" width="24" height="24" rx="12" fill="#C54600"/>
<path d="M340.032 126.139C339.33 126.139 338.703 126.01 338.153 125.751C337.606 125.493 337.172 125.137 336.85 124.683C336.529 124.228 336.362 123.708 336.348 123.121H338.436C338.46 123.516 338.625 123.836 338.934 124.081C339.242 124.326 339.608 124.449 340.032 124.449C340.37 124.449 340.669 124.374 340.927 124.225C341.189 124.073 341.393 123.862 341.539 123.594C341.688 123.322 341.762 123.01 341.762 122.659C341.762 122.301 341.686 121.986 341.534 121.714C341.385 121.443 341.177 121.231 340.912 121.078C340.647 120.926 340.344 120.848 340.002 120.844C339.704 120.844 339.414 120.906 339.132 121.028C338.854 121.151 338.637 121.318 338.481 121.531L336.567 121.188L337.049 115.818H343.274V117.578H338.824L338.561 120.129H338.62C338.799 119.877 339.069 119.668 339.431 119.502C339.792 119.336 340.196 119.254 340.644 119.254C341.257 119.254 341.804 119.398 342.284 119.686C342.765 119.974 343.145 120.371 343.423 120.874C343.701 121.375 343.839 121.951 343.836 122.604C343.839 123.29 343.68 123.9 343.358 124.434C343.04 124.964 342.594 125.382 342.021 125.687C341.451 125.988 340.788 126.139 340.032 126.139Z" fill="white"/>
</g>
</g>
<rect x="24" y="205.5" width="60" height="1" fill="#C54600"/>
<g clip-path="url(#clip5_6923_34933)">
<rect x="24" y="193" width="24" height="24" rx="12" fill="#C54600"/>
<path d="M31.927 208.21V206.515L36.1777 199.818H37.6394V202.165H36.7743L34.0946 206.406V206.485H40.1351V208.21H31.927ZM36.8141 210V207.693L36.8539 206.942V199.818H38.8723V210H36.8141Z" fill="white"/>
</g>
<g clip-path="url(#clip6_6923_34933)">
<rect x="24" y="121" width="53" height="1" fill="#C54600"/>
<g clip-path="url(#clip7_6923_34933)">
<rect x="24" y="109" width="24" height="24" rx="12" fill="#C54600"/>
<path d="M35.9745 126.139C35.2321 126.139 34.5709 126.012 33.9909 125.756C33.4142 125.498 32.9584 125.143 32.6237 124.692C32.2922 124.238 32.1215 123.715 32.1116 123.121H34.2792C34.2925 123.37 34.3737 123.589 34.5228 123.778C34.6753 123.963 34.8775 124.107 35.1294 124.21C35.3812 124.313 35.6646 124.364 35.9795 124.364C36.3076 124.364 36.5976 124.306 36.8495 124.19C37.1014 124.074 37.2986 123.914 37.4411 123.708C37.5837 123.503 37.6549 123.266 37.6549 122.997C37.6549 122.725 37.5787 122.485 37.4262 122.276C37.2771 122.064 37.0616 121.898 36.7799 121.779C36.5015 121.66 36.1701 121.6 35.7856 121.6H34.836V120.019H35.7856C36.1104 120.019 36.3971 119.963 36.6457 119.85C36.8976 119.737 37.0931 119.582 37.2323 119.383C37.3715 119.181 37.4411 118.945 37.4411 118.677C37.4411 118.422 37.3798 118.198 37.2572 118.006C37.1379 117.81 36.9688 117.658 36.7501 117.548C36.5347 117.439 36.2828 117.384 35.9944 117.384C35.7027 117.384 35.4359 117.437 35.194 117.543C34.952 117.646 34.7581 117.794 34.6123 117.986C34.4665 118.178 34.3886 118.403 34.3786 118.662H32.3154C32.3254 118.075 32.4927 117.558 32.8176 117.111C33.1424 116.663 33.5799 116.314 34.1301 116.062C34.6836 115.807 35.3083 115.679 36.0044 115.679C36.707 115.679 37.3218 115.807 37.8488 116.062C38.3758 116.317 38.7851 116.662 39.0768 117.096C39.3718 117.527 39.5176 118.011 39.5143 118.548C39.5176 119.118 39.3403 119.593 38.9823 119.974C38.6277 120.356 38.1653 120.598 37.5953 120.7V120.78C38.3443 120.876 38.9144 121.136 39.3055 121.56C39.6999 121.981 39.8954 122.508 39.8921 123.141C39.8954 123.721 39.7281 124.237 39.39 124.688C39.0553 125.138 38.5929 125.493 38.0029 125.751C37.413 126.01 36.7368 126.139 35.9745 126.139Z" fill="white"/>
</g>
</g>
<g clip-path="url(#clip8_6923_34933)">
<rect x="24" y="70" width="48" height="1" fill="#C54600"/>
<g clip-path="url(#clip9_6923_34933)">
<rect x="24" y="58" width="24" height="24" rx="12" fill="#C54600"/>
<path d="M32.4161 75V73.4489L36.0404 70.093C36.3486 69.7947 36.6072 69.5263 36.816 69.2876C37.0281 69.049 37.1888 68.8153 37.2982 68.5866C37.4076 68.3546 37.4623 68.1044 37.4623 67.8359C37.4623 67.5376 37.3943 67.2808 37.2584 67.0653C37.1225 66.8466 36.9369 66.6792 36.7016 66.5632C36.4663 66.4439 36.1995 66.3842 35.9012 66.3842C35.5896 66.3842 35.3179 66.4472 35.0858 66.5732C34.8538 66.6991 34.6749 66.8797 34.5489 67.1151C34.423 67.3504 34.36 67.6304 34.36 67.9553H32.3167C32.3167 67.2891 32.4675 66.7107 32.7691 66.2202C33.0707 65.7296 33.4933 65.3501 34.0368 65.0817C34.5804 64.8132 35.2068 64.679 35.9161 64.679C36.6453 64.679 37.28 64.8082 37.8202 65.0668C38.3638 65.322 38.7864 65.6766 39.088 66.1307C39.3896 66.5848 39.5404 67.1051 39.5404 67.6918C39.5404 68.0762 39.4642 68.4557 39.3117 68.8303C39.1626 69.2048 38.8957 69.6207 38.5113 70.0781C38.1268 70.5322 37.5849 71.0774 36.8856 71.7138L35.3991 73.1705V73.2401H39.6746V75H32.4161Z" fill="white"/>
</g>
</g>
<g clip-path="url(#clip10_6923_34933)">
<rect x="24" y="39" width="48" height="1" fill="#C54600"/>
<g clip-path="url(#clip11_6923_34933)">
<rect x="24" y="27" width="24" height="24" rx="12" fill="#C54600"/>
<path d="M37.8302 33.8182V44H35.6775V35.8615H35.6178L33.2861 37.3232V35.4141L35.8067 33.8182H37.8302Z" fill="white"/>
</g>
</g>
</g>
<defs>
<clipPath id="clip0_6923_34933">
<rect width="388" height="254" fill="white"/>
</clipPath>
<clipPath id="clip1_6923_34933">
<rect width="69" height="24" fill="white" transform="translate(283 142)"/>
</clipPath>
<clipPath id="clip2_6923_34933">
<rect x="328" y="142" width="24" height="24" rx="12" fill="white"/>
</clipPath>
<clipPath id="clip3_6923_34933">
<rect width="141" height="24" fill="white" transform="translate(223 109)"/>
</clipPath>
<clipPath id="clip4_6923_34933">
<rect x="328" y="109" width="24" height="24" rx="12" fill="white"/>
</clipPath>
<clipPath id="clip5_6923_34933">
<rect x="24" y="193" width="24" height="24" rx="12" fill="white"/>
</clipPath>
<clipPath id="clip6_6923_34933">
<rect width="53" height="24" fill="white" transform="translate(24 109)"/>
</clipPath>
<clipPath id="clip7_6923_34933">
<rect x="24" y="109" width="24" height="24" rx="12" fill="white"/>
</clipPath>
<clipPath id="clip8_6923_34933">
<rect width="48" height="24" fill="white" transform="translate(24 58)"/>
</clipPath>
<clipPath id="clip9_6923_34933">
<rect x="24" y="58" width="24" height="24" rx="12" fill="white"/>
</clipPath>
<clipPath id="clip10_6923_34933">
<rect width="48" height="24" fill="white" transform="translate(24 27)"/>
</clipPath>
<clipPath id="clip11_6923_34933">
<rect x="24" y="27" width="24" height="24" rx="12" fill="white"/>
</clipPath>
</defs>
</svg>
