<svg width="832" height="218" viewBox="0 0 832 218" fill="none" xmlns="http://www.w3.org/2000/svg">
<rect x="71" y="23" width="738" height="172" stroke="#B3192E" stroke-width="6"/>
<path d="M122.489 94.7685C123.503 94.7685 124.406 94.5995 125.199 94.2615C126.005 93.9235 126.681 93.449 127.227 92.838C127.773 92.227 128.189 91.486 128.475 90.615C128.774 89.744 128.924 88.769 128.924 87.69V70.803H134.169V87.69C134.169 89.367 133.896 90.9205 133.35 92.3505C132.817 93.7675 132.044 94.996 131.03 96.036C130.029 97.063 128.807 97.869 127.364 98.454C125.921 99.026 124.296 99.312 122.489 99.312C120.669 99.312 119.037 99.026 117.594 98.454C116.151 97.869 114.923 97.063 113.909 96.036C112.908 94.996 112.134 93.7675 111.588 92.3505C111.055 90.9205 110.789 89.367 110.789 87.69V70.803H116.034V87.6705C116.034 88.7495 116.177 89.7245 116.463 90.5955C116.762 91.4665 117.185 92.214 117.731 92.838C118.29 93.449 118.966 93.9235 119.759 94.2615C120.565 94.5995 121.475 94.7685 122.489 94.7685ZM143.181 81.45C143.584 81.047 144.007 80.6765 144.449 80.3385C144.904 79.9875 145.378 79.695 145.872 79.461C146.379 79.214 146.919 79.0255 147.491 78.8955C148.063 78.7525 148.687 78.681 149.363 78.681C150.455 78.681 151.423 78.8695 152.268 79.2465C153.113 79.6105 153.815 80.1305 154.374 80.8065C154.946 81.4695 155.375 82.269 155.661 83.205C155.96 84.128 156.11 85.1485 156.11 86.2665V99H151.293V86.2665C151.293 85.0445 151.014 84.102 150.455 83.439C149.896 82.763 149.044 82.425 147.9 82.425C147.068 82.425 146.288 82.6135 145.56 82.9905C144.832 83.3675 144.143 83.881 143.493 84.531V99H138.677V78.993H141.621C142.245 78.993 142.655 79.2855 142.85 79.8705L143.181 81.45ZM174.99 93.813C175.536 94.476 176.128 94.944 176.765 95.217C177.415 95.49 178.117 95.6265 178.871 95.6265C179.599 95.6265 180.255 95.49 180.84 95.217C181.425 94.944 181.919 94.528 182.322 93.969C182.738 93.41 183.057 92.708 183.278 91.863C183.499 91.005 183.609 89.9975 183.609 88.8405C183.609 87.6705 183.512 86.6825 183.317 85.8765C183.135 85.0575 182.868 84.3945 182.517 83.8875C182.166 83.3805 181.737 83.01 181.23 82.776C180.736 82.542 180.171 82.425 179.534 82.425C178.533 82.425 177.681 82.6395 176.979 83.0685C176.277 83.4845 175.614 84.076 174.99 84.843V93.813ZM174.737 81.723C175.556 80.8 176.485 80.0525 177.525 79.4805C178.565 78.9085 179.787 78.6225 181.191 78.6225C182.283 78.6225 183.278 78.85 184.175 79.305C185.085 79.76 185.865 80.423 186.515 81.294C187.178 82.152 187.685 83.218 188.036 84.492C188.4 85.753 188.582 87.2025 188.582 88.8405C188.582 90.3355 188.38 91.72 187.977 92.994C187.574 94.268 186.996 95.373 186.242 96.309C185.501 97.245 184.597 97.9795 183.531 98.5125C182.478 99.0325 181.295 99.2925 179.982 99.2925C178.864 99.2925 177.909 99.1235 177.116 98.7855C176.323 98.4345 175.614 97.9535 174.99 97.3425V105.533H170.174V78.993H173.118C173.742 78.993 174.152 79.2855 174.347 79.8705L174.737 81.723ZM196.883 82.464C197.507 81.268 198.248 80.332 199.106 79.656C199.964 78.967 200.978 78.6225 202.148 78.6225C203.071 78.6225 203.812 78.824 204.371 79.227L204.059 82.8345C203.994 83.0685 203.897 83.2375 203.767 83.3415C203.65 83.4325 203.487 83.478 203.279 83.478C203.084 83.478 202.792 83.4455 202.402 83.3805C202.025 83.3155 201.654 83.283 201.29 83.283C200.757 83.283 200.283 83.361 199.867 83.517C199.451 83.673 199.074 83.9005 198.736 84.1995C198.411 84.4855 198.118 84.8365 197.858 85.2525C197.611 85.6685 197.377 86.143 197.156 86.676V99H192.34V78.993H195.167C195.661 78.993 196.006 79.084 196.201 79.266C196.396 79.435 196.526 79.747 196.591 80.202L196.883 82.464ZM215.17 78.681C216.652 78.681 217.998 78.9215 219.207 79.4025C220.429 79.8835 221.469 80.566 222.327 81.45C223.198 82.334 223.867 83.413 224.335 84.687C224.803 85.961 225.037 87.3845 225.037 88.9575C225.037 90.5435 224.803 91.9735 224.335 93.2475C223.867 94.5215 223.198 95.607 222.327 96.504C221.469 97.401 220.429 98.09 219.207 98.571C217.998 99.052 216.652 99.2925 215.17 99.2925C213.675 99.2925 212.317 99.052 211.095 98.571C209.873 98.09 208.826 97.401 207.955 96.504C207.097 95.607 206.428 94.5215 205.947 93.2475C205.479 91.9735 205.245 90.5435 205.245 88.9575C205.245 87.3845 205.479 85.961 205.947 84.687C206.428 83.413 207.097 82.334 207.955 81.45C208.826 80.566 209.873 79.8835 211.095 79.4025C212.317 78.9215 213.675 78.681 215.17 78.681ZM215.17 95.5875C216.834 95.5875 218.063 95.0285 218.856 93.9105C219.662 92.7925 220.065 91.1545 220.065 88.9965C220.065 86.8385 219.662 85.194 218.856 84.063C218.063 82.932 216.834 82.3665 215.17 82.3665C213.48 82.3665 212.226 82.9385 211.407 84.0825C210.601 85.2135 210.198 86.8515 210.198 88.9965C210.198 91.1415 210.601 92.7795 211.407 93.9105C212.226 95.0285 213.48 95.5875 215.17 95.5875ZM233.529 93.813C234.075 94.476 234.666 94.944 235.303 95.217C235.953 95.49 236.636 95.6265 237.351 95.6265C238.092 95.6265 238.755 95.4965 239.34 95.2365C239.938 94.9635 240.445 94.5475 240.861 93.9885C241.277 93.4165 241.595 92.695 241.816 91.824C242.037 90.94 242.148 89.887 242.148 88.665C242.148 86.468 241.784 84.882 241.056 83.907C240.328 82.919 239.281 82.425 237.916 82.425C236.993 82.425 236.187 82.6395 235.498 83.0685C234.809 83.4845 234.153 84.076 233.529 84.843V93.813ZM233.529 81.45C234.335 80.605 235.225 79.9355 236.2 79.4415C237.188 78.9345 238.313 78.681 239.574 78.681C240.731 78.681 241.771 78.9085 242.694 79.3635C243.63 79.8185 244.423 80.475 245.073 81.333C245.736 82.178 246.243 83.205 246.594 84.414C246.945 85.623 247.12 86.9815 247.12 88.4895C247.12 90.1145 246.919 91.59 246.516 92.916C246.113 94.242 245.534 95.3795 244.78 96.3285C244.039 97.2645 243.142 97.9925 242.089 98.5125C241.036 99.0325 239.866 99.2925 238.579 99.2925C237.955 99.2925 237.39 99.2275 236.883 99.0975C236.376 98.9805 235.908 98.8115 235.479 98.5905C235.05 98.3695 234.653 98.103 234.289 97.791C233.938 97.466 233.6 97.1085 233.275 96.7185L233.061 98.064C232.983 98.402 232.846 98.6425 232.651 98.7855C232.469 98.9285 232.216 99 231.891 99H228.712V70.023H233.529V81.45ZM255.715 70.023V99H250.898V70.023H255.715ZM273.403 86.6955C273.403 86.0715 273.312 85.4865 273.13 84.9405C272.961 84.3815 272.701 83.894 272.35 83.478C271.999 83.062 271.551 82.737 271.005 82.503C270.472 82.256 269.848 82.1325 269.133 82.1325C267.742 82.1325 266.643 82.529 265.837 83.322C265.044 84.115 264.537 85.2395 264.316 86.6955H273.403ZM264.219 89.601C264.297 90.628 264.479 91.5185 264.765 92.2725C265.051 93.0135 265.428 93.631 265.896 94.125C266.364 94.606 266.916 94.97 267.553 95.217C268.203 95.451 268.918 95.568 269.698 95.568C270.478 95.568 271.148 95.477 271.707 95.295C272.279 95.113 272.773 94.9115 273.189 94.6905C273.618 94.4695 273.988 94.268 274.3 94.086C274.625 93.904 274.937 93.813 275.236 93.813C275.639 93.813 275.938 93.9625 276.133 94.2615L277.518 96.0165C276.985 96.6405 276.387 97.167 275.724 97.596C275.061 98.012 274.365 98.35 273.637 98.61C272.922 98.857 272.188 99.0325 271.434 99.1365C270.693 99.2405 269.971 99.2925 269.269 99.2925C267.878 99.2925 266.585 99.065 265.389 98.61C264.193 98.142 263.153 97.4595 262.269 96.5625C261.385 95.6525 260.689 94.5345 260.182 93.2085C259.675 91.8695 259.422 90.3225 259.422 88.5675C259.422 87.2025 259.643 85.922 260.085 84.726C260.527 83.517 261.157 82.4705 261.976 81.5865C262.808 80.6895 263.816 79.981 264.999 79.461C266.195 78.941 267.54 78.681 269.035 78.681C270.296 78.681 271.46 78.8825 272.526 79.2855C273.592 79.6885 274.508 80.28 275.275 81.06C276.042 81.827 276.64 82.776 277.069 83.907C277.511 85.025 277.732 86.3055 277.732 87.7485C277.732 88.4765 277.654 88.9705 277.498 89.2305C277.342 89.4775 277.043 89.601 276.601 89.601H264.219ZM267.417 70.491C267.95 70.491 268.346 70.582 268.606 70.764C268.866 70.933 269.087 71.1865 269.269 71.5245L272.058 76.263H269.308C268.944 76.263 268.645 76.2175 268.411 76.1265C268.19 76.0225 267.963 75.8405 267.729 75.5805L262.912 70.491H267.417ZM281.347 99V78.993H284.291C284.915 78.993 285.325 79.2855 285.52 79.8705L285.832 81.3525C286.183 80.9625 286.547 80.605 286.924 80.28C287.314 79.955 287.723 79.6755 288.152 79.4415C288.594 79.2075 289.062 79.0255 289.556 78.8955C290.063 78.7525 290.616 78.681 291.214 78.681C292.475 78.681 293.508 79.0255 294.314 79.7145C295.133 80.3905 295.744 81.294 296.147 82.425C296.459 81.762 296.849 81.1965 297.317 80.7285C297.785 80.2475 298.299 79.8575 298.858 79.5585C299.417 79.2595 300.008 79.0385 300.632 78.8955C301.269 78.7525 301.906 78.681 302.543 78.681C303.648 78.681 304.63 78.85 305.488 79.188C306.346 79.526 307.067 80.02 307.652 80.67C308.237 81.32 308.679 82.113 308.978 83.049C309.29 83.985 309.446 85.0575 309.446 86.2665V99H304.63V86.2665C304.63 84.9925 304.35 84.037 303.791 83.4C303.232 82.75 302.413 82.425 301.334 82.425C300.84 82.425 300.379 82.5095 299.95 82.6785C299.534 82.8475 299.163 83.0945 298.838 83.4195C298.526 83.7315 298.279 84.128 298.097 84.609C297.915 85.09 297.824 85.6425 297.824 86.2665V99H292.988V86.2665C292.988 84.9275 292.715 83.9525 292.169 83.3415C291.636 82.7305 290.85 82.425 289.81 82.425C289.108 82.425 288.451 82.6005 287.84 82.9515C287.242 83.2895 286.683 83.7575 286.163 84.3555V99H281.347ZM326.914 86.6955C326.914 86.0715 326.823 85.4865 326.641 84.9405C326.472 84.3815 326.212 83.894 325.861 83.478C325.51 83.062 325.062 82.737 324.516 82.503C323.983 82.256 323.359 82.1325 322.644 82.1325C321.253 82.1325 320.154 82.529 319.348 83.322C318.555 84.115 318.048 85.2395 317.827 86.6955H326.914ZM317.73 89.601C317.808 90.628 317.99 91.5185 318.276 92.2725C318.562 93.0135 318.939 93.631 319.407 94.125C319.875 94.606 320.427 94.97 321.064 95.217C321.714 95.451 322.429 95.568 323.209 95.568C323.989 95.568 324.659 95.477 325.218 95.295C325.79 95.113 326.284 94.9115 326.7 94.6905C327.129 94.4695 327.499 94.268 327.811 94.086C328.136 93.904 328.448 93.813 328.747 93.813C329.15 93.813 329.449 93.9625 329.644 94.2615L331.029 96.0165C330.496 96.6405 329.898 97.167 329.235 97.596C328.572 98.012 327.876 98.35 327.148 98.61C326.433 98.857 325.699 99.0325 324.945 99.1365C324.204 99.2405 323.482 99.2925 322.78 99.2925C321.389 99.2925 320.096 99.065 318.9 98.61C317.704 98.142 316.664 97.4595 315.78 96.5625C314.896 95.6525 314.2 94.5345 313.693 93.2085C313.186 91.8695 312.933 90.3225 312.933 88.5675C312.933 87.2025 313.154 85.922 313.596 84.726C314.038 83.517 314.668 82.4705 315.487 81.5865C316.319 80.6895 317.327 79.981 318.51 79.461C319.706 78.941 321.051 78.681 322.546 78.681C323.807 78.681 324.971 78.8825 326.037 79.2855C327.103 79.6885 328.019 80.28 328.786 81.06C329.553 81.827 330.151 82.776 330.58 83.907C331.022 85.025 331.243 86.3055 331.243 87.7485C331.243 88.4765 331.165 88.9705 331.009 89.2305C330.853 89.4775 330.554 89.601 330.112 89.601H317.73ZM357.23 86.6955C357.23 86.0715 357.139 85.4865 356.957 84.9405C356.788 84.3815 356.528 83.894 356.177 83.478C355.826 83.062 355.378 82.737 354.832 82.503C354.299 82.256 353.675 82.1325 352.96 82.1325C351.569 82.1325 350.47 82.529 349.664 83.322C348.871 84.115 348.364 85.2395 348.143 86.6955H357.23ZM348.046 89.601C348.124 90.628 348.306 91.5185 348.592 92.2725C348.878 93.0135 349.255 93.631 349.723 94.125C350.191 94.606 350.743 94.97 351.38 95.217C352.03 95.451 352.745 95.568 353.525 95.568C354.305 95.568 354.975 95.477 355.534 95.295C356.106 95.113 356.6 94.9115 357.016 94.6905C357.445 94.4695 357.815 94.268 358.127 94.086C358.452 93.904 358.764 93.813 359.063 93.813C359.466 93.813 359.765 93.9625 359.96 94.2615L361.345 96.0165C360.812 96.6405 360.214 97.167 359.551 97.596C358.888 98.012 358.192 98.35 357.464 98.61C356.749 98.857 356.015 99.0325 355.261 99.1365C354.52 99.2405 353.798 99.2925 353.096 99.2925C351.705 99.2925 350.412 99.065 349.216 98.61C348.02 98.142 346.98 97.4595 346.096 96.5625C345.212 95.6525 344.516 94.5345 344.009 93.2085C343.502 91.8695 343.249 90.3225 343.249 88.5675C343.249 87.2025 343.47 85.922 343.912 84.726C344.354 83.517 344.984 82.4705 345.803 81.5865C346.635 80.6895 347.643 79.981 348.826 79.461C350.022 78.941 351.367 78.681 352.862 78.681C354.123 78.681 355.287 78.8825 356.353 79.2855C357.419 79.6885 358.335 80.28 359.102 81.06C359.869 81.827 360.467 82.776 360.896 83.907C361.338 85.025 361.559 86.3055 361.559 87.7485C361.559 88.4765 361.481 88.9705 361.325 89.2305C361.169 89.4775 360.87 89.601 360.428 89.601H348.046ZM377.381 82.893C377.251 83.101 377.114 83.2505 376.971 83.3415C376.828 83.4195 376.646 83.4585 376.425 83.4585C376.191 83.4585 375.938 83.3935 375.665 83.2635C375.405 83.1335 375.099 82.9905 374.748 82.8345C374.397 82.6655 373.994 82.516 373.539 82.386C373.097 82.256 372.571 82.191 371.96 82.191C371.011 82.191 370.263 82.3925 369.717 82.7955C369.184 83.1985 368.918 83.725 368.918 84.375C368.918 84.804 369.054 85.168 369.327 85.467C369.613 85.753 369.984 86.0065 370.439 86.2275C370.907 86.4485 371.433 86.65 372.018 86.832C372.603 87.001 373.195 87.1895 373.793 87.3975C374.404 87.6055 375.002 87.846 375.587 88.119C376.172 88.379 376.692 88.717 377.147 89.133C377.615 89.536 377.985 90.0235 378.258 90.5955C378.544 91.1675 378.687 91.8565 378.687 92.6625C378.687 93.6245 378.512 94.515 378.161 95.334C377.823 96.14 377.316 96.842 376.64 97.44C375.964 98.025 375.125 98.4865 374.124 98.8245C373.136 99.1495 371.992 99.312 370.692 99.312C370.003 99.312 369.327 99.247 368.664 99.117C368.014 99 367.384 98.831 366.773 98.61C366.175 98.389 365.616 98.129 365.096 97.83C364.589 97.531 364.14 97.206 363.75 96.855L364.862 95.022C365.005 94.801 365.174 94.632 365.369 94.515C365.564 94.398 365.811 94.3395 366.11 94.3395C366.409 94.3395 366.688 94.424 366.948 94.593C367.221 94.762 367.533 94.944 367.884 95.139C368.235 95.334 368.645 95.516 369.113 95.685C369.594 95.854 370.198 95.9385 370.926 95.9385C371.498 95.9385 371.986 95.8735 372.389 95.7435C372.805 95.6005 373.143 95.4185 373.403 95.1975C373.676 94.9765 373.871 94.723 373.988 94.437C374.118 94.138 374.183 93.8325 374.183 93.5205C374.183 93.0525 374.04 92.669 373.754 92.37C373.481 92.071 373.11 91.811 372.642 91.59C372.187 91.369 371.661 91.174 371.063 91.005C370.478 90.823 369.873 90.628 369.249 90.42C368.638 90.212 368.034 89.9715 367.436 89.6985C366.851 89.4125 366.324 89.055 365.856 88.626C365.401 88.197 365.031 87.6705 364.745 87.0465C364.472 86.4225 364.335 85.6685 364.335 84.7845C364.335 83.9655 364.498 83.1855 364.823 82.4445C365.148 81.7035 365.622 81.06 366.246 80.514C366.883 79.955 367.67 79.513 368.606 79.188C369.555 78.85 370.647 78.681 371.882 78.681C373.26 78.681 374.514 78.9085 375.645 79.3635C376.776 79.8185 377.719 80.4165 378.473 81.1575L377.381 82.893ZM388.982 99.312C387.24 99.312 385.901 98.8245 384.965 97.8495C384.042 96.8615 383.58 95.503 383.58 93.774V82.6005H381.533C381.273 82.6005 381.052 82.516 380.87 82.347C380.688 82.178 380.597 81.9245 380.597 81.5865V79.6755L383.814 79.149L384.828 73.689C384.893 73.429 385.017 73.2275 385.199 73.0845C385.381 72.9415 385.615 72.87 385.901 72.87H388.397V79.1685H393.74V82.6005H388.397V93.4425C388.397 94.0665 388.546 94.554 388.845 94.905C389.157 95.256 389.58 95.4315 390.113 95.4315C390.412 95.4315 390.659 95.399 390.854 95.334C391.062 95.256 391.237 95.178 391.38 95.1C391.536 95.022 391.673 94.9505 391.79 94.8855C391.907 94.8075 392.024 94.7685 392.141 94.7685C392.284 94.7685 392.401 94.8075 392.492 94.8855C392.583 94.9505 392.68 95.0545 392.784 95.1975L394.227 97.5375C393.525 98.1225 392.719 98.5645 391.809 98.8635C390.899 99.1625 389.957 99.312 388.982 99.312ZM418.514 82.893C418.384 83.101 418.247 83.2505 418.104 83.3415C417.961 83.4195 417.779 83.4585 417.558 83.4585C417.324 83.4585 417.071 83.3935 416.798 83.2635C416.538 83.1335 416.232 82.9905 415.881 82.8345C415.53 82.6655 415.127 82.516 414.672 82.386C414.23 82.256 413.704 82.191 413.093 82.191C412.144 82.191 411.396 82.3925 410.85 82.7955C410.317 83.1985 410.051 83.725 410.051 84.375C410.051 84.804 410.187 85.168 410.46 85.467C410.746 85.753 411.117 86.0065 411.572 86.2275C412.04 86.4485 412.566 86.65 413.151 86.832C413.736 87.001 414.328 87.1895 414.926 87.3975C415.537 87.6055 416.135 87.846 416.72 88.119C417.305 88.379 417.825 88.717 418.28 89.133C418.748 89.536 419.118 90.0235 419.391 90.5955C419.677 91.1675 419.82 91.8565 419.82 92.6625C419.82 93.6245 419.645 94.515 419.294 95.334C418.956 96.14 418.449 96.842 417.773 97.44C417.097 98.025 416.258 98.4865 415.257 98.8245C414.269 99.1495 413.125 99.312 411.825 99.312C411.136 99.312 410.46 99.247 409.797 99.117C409.147 99 408.517 98.831 407.906 98.61C407.308 98.389 406.749 98.129 406.229 97.83C405.722 97.531 405.273 97.206 404.883 96.855L405.995 95.022C406.138 94.801 406.307 94.632 406.502 94.515C406.697 94.398 406.944 94.3395 407.243 94.3395C407.542 94.3395 407.821 94.424 408.081 94.593C408.354 94.762 408.666 94.944 409.017 95.139C409.368 95.334 409.778 95.516 410.246 95.685C410.727 95.854 411.331 95.9385 412.059 95.9385C412.631 95.9385 413.119 95.8735 413.522 95.7435C413.938 95.6005 414.276 95.4185 414.536 95.1975C414.809 94.9765 415.004 94.723 415.121 94.437C415.251 94.138 415.316 93.8325 415.316 93.5205C415.316 93.0525 415.173 92.669 414.887 92.37C414.614 92.071 414.243 91.811 413.775 91.59C413.32 91.369 412.794 91.174 412.196 91.005C411.611 90.823 411.006 90.628 410.382 90.42C409.771 90.212 409.167 89.9715 408.569 89.6985C407.984 89.4125 407.457 89.055 406.989 88.626C406.534 88.197 406.164 87.6705 405.878 87.0465C405.605 86.4225 405.468 85.6685 405.468 84.7845C405.468 83.9655 405.631 83.1855 405.956 82.4445C406.281 81.7035 406.755 81.06 407.379 80.514C408.016 79.955 408.803 79.513 409.739 79.188C410.688 78.85 411.78 78.681 413.015 78.681C414.393 78.681 415.647 78.9085 416.778 79.3635C417.909 79.8185 418.852 80.4165 419.606 81.1575L418.514 82.893ZM440.683 78.993V99H437.739C437.102 99 436.699 98.7075 436.53 98.1225L436.198 96.5235C435.379 97.3555 434.476 98.0315 433.488 98.5515C432.5 99.0585 431.336 99.312 429.997 99.312C428.905 99.312 427.937 99.13 427.092 98.766C426.26 98.389 425.558 97.8625 424.986 97.1865C424.414 96.5105 423.978 95.711 423.679 94.788C423.393 93.852 423.25 92.825 423.25 91.707V78.993H428.067V91.707C428.067 92.929 428.346 93.878 428.905 94.554C429.477 95.217 430.329 95.5485 431.46 95.5485C432.292 95.5485 433.072 95.3665 433.8 95.0025C434.528 94.6255 435.217 94.112 435.867 93.462V78.993H440.683ZM450.003 82.464C450.627 81.268 451.368 80.332 452.226 79.656C453.084 78.967 454.098 78.6225 455.268 78.6225C456.191 78.6225 456.932 78.824 457.491 79.227L457.179 82.8345C457.114 83.0685 457.016 83.2375 456.886 83.3415C456.769 83.4325 456.607 83.478 456.399 83.478C456.204 83.478 455.911 83.4455 455.521 83.3805C455.144 83.3155 454.774 83.283 454.41 83.283C453.877 83.283 453.402 83.361 452.986 83.517C452.57 83.673 452.193 83.9005 451.855 84.1995C451.53 84.4855 451.238 84.8365 450.978 85.2525C450.731 85.6685 450.497 86.143 450.276 86.676V99H445.459V78.993H448.287C448.781 78.993 449.125 79.084 449.32 79.266C449.515 79.435 449.645 79.747 449.71 80.202L450.003 82.464ZM478.045 78.993L470.109 99H465.741L457.804 78.993H461.782C462.146 78.993 462.445 79.0775 462.679 79.2465C462.926 79.4155 463.089 79.63 463.167 79.89L467.028 90.576C467.236 91.2 467.418 91.811 467.574 92.409C467.73 93.007 467.866 93.605 467.983 94.203C468.113 93.605 468.256 93.007 468.412 92.409C468.568 91.811 468.757 91.2 468.978 90.576L472.917 79.89C473.008 79.63 473.17 79.4155 473.404 79.2465C473.638 79.0775 473.918 78.993 474.243 78.993H478.045ZM492.893 86.6955C492.893 86.0715 492.802 85.4865 492.62 84.9405C492.451 84.3815 492.191 83.894 491.84 83.478C491.489 83.062 491.04 82.737 490.494 82.503C489.961 82.256 489.337 82.1325 488.622 82.1325C487.231 82.1325 486.133 82.529 485.327 83.322C484.534 84.115 484.027 85.2395 483.806 86.6955H492.893ZM483.708 89.601C483.786 90.628 483.968 91.5185 484.254 92.2725C484.54 93.0135 484.917 93.631 485.385 94.125C485.853 94.606 486.406 94.97 487.043 95.217C487.693 95.451 488.408 95.568 489.188 95.568C489.968 95.568 490.637 95.477 491.196 95.295C491.768 95.113 492.262 94.9115 492.678 94.6905C493.107 94.4695 493.478 94.268 493.79 94.086C494.115 93.904 494.427 93.813 494.726 93.813C495.129 93.813 495.428 93.9625 495.623 94.2615L497.007 96.0165C496.474 96.6405 495.876 97.167 495.213 97.596C494.55 98.012 493.855 98.35 493.127 98.61C492.412 98.857 491.677 99.0325 490.923 99.1365C490.182 99.2405 489.461 99.2925 488.759 99.2925C487.368 99.2925 486.074 99.065 484.878 98.61C483.682 98.142 482.642 97.4595 481.758 96.5625C480.874 95.6525 480.179 94.5345 479.672 93.2085C479.165 91.8695 478.911 90.3225 478.911 88.5675C478.911 87.2025 479.132 85.922 479.574 84.726C480.016 83.517 480.647 82.4705 481.466 81.5865C482.298 80.6895 483.305 79.981 484.488 79.461C485.684 78.941 487.03 78.681 488.525 78.681C489.786 78.681 490.949 78.8825 492.015 79.2855C493.081 79.6885 493.998 80.28 494.765 81.06C495.532 81.827 496.13 82.776 496.559 83.907C497.001 85.025 497.222 86.3055 497.222 87.7485C497.222 88.4765 497.144 88.9705 496.988 89.2305C496.832 89.4775 496.533 89.601 496.091 89.601H483.708ZM505.341 81.45C505.744 81.047 506.166 80.6765 506.608 80.3385C507.063 79.9875 507.538 79.695 508.032 79.461C508.539 79.214 509.078 79.0255 509.65 78.8955C510.222 78.7525 510.846 78.681 511.522 78.681C512.614 78.681 513.583 78.8695 514.428 79.2465C515.273 79.6105 515.975 80.1305 516.534 80.8065C517.106 81.4695 517.535 82.269 517.821 83.205C518.12 84.128 518.269 85.1485 518.269 86.2665V99H513.453V86.2665C513.453 85.0445 513.173 84.102 512.614 83.439C512.055 82.763 511.204 82.425 510.06 82.425C509.228 82.425 508.448 82.6135 507.72 82.9905C506.992 83.3675 506.303 83.881 505.653 84.531V99H500.836V78.993H503.781C504.405 78.993 504.814 79.2855 505.009 79.8705L505.341 81.45ZM540.088 78.993V99H537.143C536.506 99 536.103 98.7075 535.934 98.1225L535.603 96.5235C534.784 97.3555 533.88 98.0315 532.892 98.5515C531.904 99.0585 530.741 99.312 529.402 99.312C528.31 99.312 527.341 99.13 526.496 98.766C525.664 98.389 524.962 97.8625 524.39 97.1865C523.818 96.5105 523.383 95.711 523.084 94.788C522.798 93.852 522.655 92.825 522.655 91.707V78.993H527.471V91.707C527.471 92.929 527.751 93.878 528.31 94.554C528.882 95.217 529.733 95.5485 530.864 95.5485C531.696 95.5485 532.476 95.3665 533.204 95.0025C533.932 94.6255 534.621 94.112 535.271 93.462V78.993H540.088Z" fill="#333333"/>
<path d="M115.1 150H113.38V140.02C113.38 139.447 113.387 138.987 113.4 138.64C113.413 138.293 113.433 137.933 113.46 137.56C113.247 137.773 113.053 137.953 112.88 138.1C112.707 138.247 112.487 138.433 112.22 138.66L110.7 139.9L109.78 138.72L113.64 135.72H115.1V150ZM120.885 148.92C120.885 148.427 121.005 148.08 121.245 147.88C121.485 147.68 121.772 147.58 122.105 147.58C122.452 147.58 122.745 147.68 122.985 147.88C123.239 148.08 123.365 148.427 123.365 148.92C123.365 149.4 123.239 149.747 122.985 149.96C122.745 150.173 122.452 150.28 122.105 150.28C121.772 150.28 121.485 150.173 121.245 149.96C121.005 149.747 120.885 149.4 120.885 148.92Z" fill="#333333"/>
<path d="M134.94 150V135.72H136.74V148.4H142.98V150H134.94ZM146.088 135.26C146.355 135.26 146.588 135.353 146.788 135.54C147.002 135.713 147.108 135.993 147.108 136.38C147.108 136.753 147.002 137.033 146.788 137.22C146.588 137.407 146.355 137.5 146.088 137.5C145.795 137.5 145.548 137.407 145.348 137.22C145.148 137.033 145.048 136.753 145.048 136.38C145.048 135.993 145.148 135.713 145.348 135.54C145.548 135.353 145.795 135.26 146.088 135.26ZM146.948 139.28V150H145.188V139.28H146.948ZM154.485 139.08C155.405 139.08 156.191 139.28 156.845 139.68C157.511 140.08 158.018 140.647 158.365 141.38C158.725 142.1 158.905 142.947 158.905 143.92V144.98H151.565C151.591 146.193 151.898 147.12 152.485 147.76C153.085 148.387 153.918 148.7 154.985 148.7C155.665 148.7 156.265 148.64 156.785 148.52C157.318 148.387 157.865 148.2 158.425 147.96V149.5C157.878 149.74 157.338 149.913 156.805 150.02C156.271 150.14 155.638 150.2 154.905 150.2C153.891 150.2 152.991 149.993 152.205 149.58C151.431 149.167 150.825 148.553 150.385 147.74C149.958 146.913 149.745 145.907 149.745 144.72C149.745 143.547 149.938 142.54 150.325 141.7C150.725 140.86 151.278 140.213 151.985 139.76C152.705 139.307 153.538 139.08 154.485 139.08ZM154.465 140.52C153.625 140.52 152.958 140.793 152.465 141.34C151.985 141.873 151.698 142.62 151.605 143.58H157.065C157.051 142.673 156.838 141.94 156.425 141.38C156.011 140.807 155.358 140.52 154.465 140.52ZM166.794 139.08C168.074 139.08 169.04 139.393 169.694 140.02C170.347 140.633 170.674 141.633 170.674 143.02V150H168.934V143.14C168.934 141.42 168.134 140.56 166.534 140.56C165.347 140.56 164.527 140.893 164.074 141.56C163.62 142.227 163.394 143.187 163.394 144.44V150H161.634V139.28H163.054L163.314 140.74H163.414C163.76 140.18 164.24 139.767 164.854 139.5C165.467 139.22 166.114 139.08 166.794 139.08ZM182.992 150.2C181.659 150.2 180.592 149.74 179.792 148.82C178.992 147.887 178.592 146.5 178.592 144.66C178.592 142.82 178.992 141.433 179.792 140.5C180.606 139.553 181.679 139.08 183.012 139.08C183.839 139.08 184.512 139.233 185.032 139.54C185.566 139.847 185.999 140.22 186.332 140.66H186.452C186.439 140.487 186.412 140.233 186.372 139.9C186.346 139.553 186.332 139.28 186.332 139.08V134.8H188.092V150H186.672L186.412 148.56H186.332C186.012 149.013 185.586 149.4 185.052 149.72C184.519 150.04 183.832 150.2 182.992 150.2ZM183.272 148.74C184.406 148.74 185.199 148.433 185.652 147.82C186.119 147.193 186.352 146.253 186.352 145V144.68C186.352 143.347 186.132 142.327 185.692 141.62C185.252 140.9 184.439 140.54 183.252 140.54C182.306 140.54 181.592 140.92 181.112 141.68C180.646 142.427 180.412 143.433 180.412 144.7C180.412 145.98 180.646 146.973 181.112 147.68C181.592 148.387 182.312 148.74 183.272 148.74ZM200.457 139.28V150H199.017L198.757 148.58H198.677C198.33 149.14 197.85 149.553 197.237 149.82C196.624 150.073 195.97 150.2 195.277 150.2C193.984 150.2 193.01 149.893 192.357 149.28C191.704 148.653 191.377 147.66 191.377 146.3V139.28H193.157V146.18C193.157 147.887 193.95 148.74 195.537 148.74C196.724 148.74 197.544 148.407 197.997 147.74C198.464 147.073 198.697 146.113 198.697 144.86V139.28H200.457ZM220.815 139.08C222.029 139.08 222.935 139.393 223.535 140.02C224.135 140.633 224.435 141.633 224.435 143.02V150H222.695V143.1C222.695 141.407 221.969 140.56 220.515 140.56C219.475 140.56 218.729 140.86 218.275 141.46C217.835 142.06 217.615 142.933 217.615 144.08V150H215.875V143.1C215.875 141.407 215.142 140.56 213.675 140.56C212.595 140.56 211.849 140.893 211.435 141.56C211.022 142.227 210.815 143.187 210.815 144.44V150H209.055V139.28H210.475L210.735 140.74H210.835C211.169 140.18 211.615 139.767 212.175 139.5C212.749 139.22 213.355 139.08 213.995 139.08C215.675 139.08 216.769 139.68 217.275 140.88H217.375C217.735 140.267 218.222 139.813 218.835 139.52C219.462 139.227 220.122 139.08 220.815 139.08ZM231.887 139.08C232.807 139.08 233.594 139.28 234.247 139.68C234.914 140.08 235.42 140.647 235.767 141.38C236.127 142.1 236.307 142.947 236.307 143.92V144.98H228.967C228.994 146.193 229.3 147.12 229.887 147.76C230.487 148.387 231.32 148.7 232.387 148.7C233.067 148.7 233.667 148.64 234.187 148.52C234.72 148.387 235.267 148.2 235.827 147.96V149.5C235.28 149.74 234.74 149.913 234.207 150.02C233.674 150.14 233.04 150.2 232.307 150.2C231.294 150.2 230.394 149.993 229.607 149.58C228.834 149.167 228.227 148.553 227.787 147.74C227.36 146.913 227.147 145.907 227.147 144.72C227.147 143.547 227.34 142.54 227.727 141.7C228.127 140.86 228.68 140.213 229.387 139.76C230.107 139.307 230.94 139.08 231.887 139.08ZM231.867 140.52C231.027 140.52 230.36 140.793 229.867 141.34C229.387 141.873 229.1 142.62 229.007 143.58H234.467C234.454 142.673 234.24 141.94 233.827 141.38C233.414 140.807 232.76 140.52 231.867 140.52ZM246.016 147.04C246.016 148.08 245.629 148.867 244.856 149.4C244.083 149.933 243.043 150.2 241.736 150.2C240.989 150.2 240.343 150.14 239.796 150.02C239.263 149.9 238.789 149.733 238.376 149.52V147.92C238.803 148.133 239.316 148.333 239.916 148.52C240.529 148.693 241.149 148.78 241.776 148.78C242.669 148.78 243.316 148.64 243.716 148.36C244.116 148.067 244.316 147.68 244.316 147.2C244.316 146.933 244.243 146.693 244.096 146.48C243.949 146.267 243.683 146.053 243.296 145.84C242.923 145.627 242.383 145.387 241.676 145.12C240.983 144.853 240.389 144.587 239.896 144.32C239.403 144.053 239.023 143.733 238.756 143.36C238.489 142.987 238.356 142.507 238.356 141.92C238.356 141.013 238.723 140.313 239.456 139.82C240.203 139.327 241.176 139.08 242.376 139.08C243.029 139.08 243.636 139.147 244.196 139.28C244.769 139.4 245.303 139.573 245.796 139.8L245.196 141.2C244.743 141.013 244.269 140.853 243.776 140.72C243.283 140.587 242.776 140.52 242.256 140.52C241.536 140.52 240.983 140.64 240.596 140.88C240.223 141.107 240.036 141.42 240.036 141.82C240.036 142.113 240.123 142.367 240.296 142.58C240.469 142.78 240.756 142.98 241.156 143.18C241.569 143.367 242.116 143.593 242.796 143.86C243.476 144.113 244.056 144.373 244.536 144.64C245.016 144.907 245.383 145.233 245.636 145.62C245.889 145.993 246.016 146.467 246.016 147.04ZM255.586 147.04C255.586 148.08 255.2 148.867 254.426 149.4C253.653 149.933 252.613 150.2 251.306 150.2C250.56 150.2 249.913 150.14 249.366 150.02C248.833 149.9 248.36 149.733 247.946 149.52V147.92C248.373 148.133 248.886 148.333 249.486 148.52C250.1 148.693 250.72 148.78 251.346 148.78C252.24 148.78 252.886 148.64 253.286 148.36C253.686 148.067 253.886 147.68 253.886 147.2C253.886 146.933 253.813 146.693 253.666 146.48C253.52 146.267 253.253 146.053 252.866 145.84C252.493 145.627 251.953 145.387 251.246 145.12C250.553 144.853 249.96 144.587 249.466 144.32C248.973 144.053 248.593 143.733 248.326 143.36C248.06 142.987 247.926 142.507 247.926 141.92C247.926 141.013 248.293 140.313 249.026 139.82C249.773 139.327 250.746 139.08 251.946 139.08C252.6 139.08 253.206 139.147 253.766 139.28C254.34 139.4 254.873 139.573 255.366 139.8L254.766 141.2C254.313 141.013 253.84 140.853 253.346 140.72C252.853 140.587 252.346 140.52 251.826 140.52C251.106 140.52 250.553 140.64 250.166 140.88C249.793 141.107 249.606 141.42 249.606 141.82C249.606 142.113 249.693 142.367 249.866 142.58C250.04 142.78 250.326 142.98 250.726 143.18C251.14 143.367 251.686 143.593 252.366 143.86C253.046 144.113 253.626 144.373 254.106 144.64C254.586 144.907 254.953 145.233 255.206 145.62C255.46 145.993 255.586 146.467 255.586 147.04ZM262.237 139.1C263.543 139.1 264.51 139.387 265.137 139.96C265.763 140.533 266.077 141.447 266.077 142.7V150H264.797L264.457 148.48H264.377C263.91 149.067 263.417 149.5 262.897 149.78C262.39 150.06 261.683 150.2 260.777 150.2C259.803 150.2 258.997 149.947 258.357 149.44C257.717 148.92 257.397 148.113 257.397 147.02C257.397 145.953 257.817 145.133 258.657 144.56C259.497 143.973 260.79 143.653 262.537 143.6L264.357 143.54V142.9C264.357 142.007 264.163 141.387 263.777 141.04C263.39 140.693 262.843 140.52 262.137 140.52C261.577 140.52 261.043 140.607 260.537 140.78C260.03 140.94 259.557 141.127 259.117 141.34L258.577 140.02C259.043 139.767 259.597 139.553 260.237 139.38C260.877 139.193 261.543 139.1 262.237 139.1ZM262.757 144.82C261.423 144.873 260.497 145.087 259.977 145.46C259.47 145.833 259.217 146.36 259.217 147.04C259.217 147.64 259.397 148.08 259.757 148.36C260.13 148.64 260.603 148.78 261.177 148.78C262.083 148.78 262.837 148.533 263.437 148.04C264.037 147.533 264.337 146.76 264.337 145.72V144.76L262.757 144.82ZM273.188 139.08C273.894 139.08 274.528 139.213 275.088 139.48C275.661 139.747 276.148 140.153 276.548 140.7H276.648L276.888 139.28H278.288V150.18C278.288 151.713 277.894 152.867 277.108 153.64C276.334 154.413 275.128 154.8 273.488 154.8C271.914 154.8 270.628 154.573 269.628 154.12V152.5C270.681 153.06 272.001 153.34 273.588 153.34C274.508 153.34 275.228 153.067 275.748 152.52C276.281 151.987 276.548 151.253 276.548 150.32V149.9C276.548 149.74 276.554 149.513 276.568 149.22C276.581 148.913 276.594 148.7 276.608 148.58H276.528C275.808 149.66 274.701 150.2 273.208 150.2C271.821 150.2 270.734 149.713 269.948 148.74C269.174 147.767 268.788 146.407 268.788 144.66C268.788 142.953 269.174 141.6 269.948 140.6C270.734 139.587 271.814 139.08 273.188 139.08ZM273.428 140.56C272.534 140.56 271.841 140.92 271.348 141.64C270.854 142.347 270.608 143.36 270.608 144.68C270.608 146 270.848 147.013 271.328 147.72C271.821 148.413 272.534 148.76 273.468 148.76C274.548 148.76 275.334 148.473 275.828 147.9C276.321 147.313 276.568 146.373 276.568 145.08V144.66C276.568 143.193 276.314 142.147 275.808 141.52C275.301 140.88 274.508 140.56 273.428 140.56ZM285.832 139.08C286.752 139.08 287.539 139.28 288.192 139.68C288.859 140.08 289.366 140.647 289.712 141.38C290.072 142.1 290.252 142.947 290.252 143.92V144.98H282.912C282.939 146.193 283.246 147.12 283.832 147.76C284.432 148.387 285.266 148.7 286.332 148.7C287.012 148.7 287.612 148.64 288.132 148.52C288.666 148.387 289.212 148.2 289.772 147.96V149.5C289.226 149.74 288.686 149.913 288.152 150.02C287.619 150.14 286.986 150.2 286.252 150.2C285.239 150.2 284.339 149.993 283.552 149.58C282.779 149.167 282.172 148.553 281.732 147.74C281.306 146.913 281.092 145.907 281.092 144.72C281.092 143.547 281.286 142.54 281.672 141.7C282.072 140.86 282.626 140.213 283.332 139.76C284.052 139.307 284.886 139.08 285.832 139.08ZM285.812 140.52C284.972 140.52 284.306 140.793 283.812 141.34C283.332 141.873 283.046 142.62 282.952 143.58H288.412C288.399 142.673 288.186 141.94 287.772 141.38C287.359 140.807 286.706 140.52 285.812 140.52ZM301.977 150.2C300.643 150.2 299.577 149.74 298.777 148.82C297.977 147.887 297.577 146.5 297.577 144.66C297.577 142.82 297.977 141.433 298.777 140.5C299.59 139.553 300.663 139.08 301.997 139.08C302.823 139.08 303.497 139.233 304.017 139.54C304.55 139.847 304.983 140.22 305.317 140.66H305.437C305.423 140.487 305.397 140.233 305.357 139.9C305.33 139.553 305.317 139.28 305.317 139.08V134.8H307.077V150H305.657L305.397 148.56H305.317C304.997 149.013 304.57 149.4 304.037 149.72C303.503 150.04 302.817 150.2 301.977 150.2ZM302.257 148.74C303.39 148.74 304.183 148.433 304.637 147.82C305.103 147.193 305.337 146.253 305.337 145V144.68C305.337 143.347 305.117 142.327 304.677 141.62C304.237 140.9 303.423 140.54 302.237 140.54C301.29 140.54 300.577 140.92 300.097 141.68C299.63 142.427 299.397 143.433 299.397 144.7C299.397 145.98 299.63 146.973 300.097 147.68C300.577 148.387 301.297 148.74 302.257 148.74ZM312.041 135.94C311.868 136.633 311.615 137.413 311.281 138.28C310.961 139.133 310.641 139.913 310.321 140.62H309.021C309.155 140.113 309.281 139.573 309.401 139C309.535 138.413 309.655 137.84 309.761 137.28C309.868 136.707 309.955 136.187 310.021 135.72H311.901L312.041 135.94ZM316.926 139.08C317.846 139.08 318.633 139.28 319.286 139.68C319.953 140.08 320.459 140.647 320.806 141.38C321.166 142.1 321.346 142.947 321.346 143.92V144.98H314.006C314.033 146.193 314.339 147.12 314.926 147.76C315.526 148.387 316.359 148.7 317.426 148.7C318.106 148.7 318.706 148.64 319.226 148.52C319.759 148.387 320.306 148.2 320.866 147.96V149.5C320.319 149.74 319.779 149.913 319.246 150.02C318.713 150.14 318.079 150.2 317.346 150.2C316.333 150.2 315.433 149.993 314.646 149.58C313.873 149.167 313.266 148.553 312.826 147.74C312.399 146.913 312.186 145.907 312.186 144.72C312.186 143.547 312.379 142.54 312.766 141.7C313.166 140.86 313.719 140.213 314.426 139.76C315.146 139.307 315.979 139.08 316.926 139.08ZM316.906 140.52C316.066 140.52 315.399 140.793 314.906 141.34C314.426 141.873 314.139 142.62 314.046 143.58H319.506C319.493 142.673 319.279 141.94 318.866 141.38C318.453 140.807 317.799 140.52 316.906 140.52ZM329.075 139.08C329.275 139.08 329.488 139.093 329.715 139.12C329.955 139.133 330.162 139.16 330.335 139.2L330.115 140.82C329.942 140.78 329.748 140.747 329.535 140.72C329.335 140.693 329.142 140.68 328.955 140.68C328.408 140.68 327.895 140.833 327.415 141.14C326.935 141.433 326.548 141.853 326.255 142.4C325.975 142.933 325.835 143.56 325.835 144.28V150H324.075V139.28H325.515L325.715 141.24H325.795C326.142 140.653 326.588 140.147 327.135 139.72C327.682 139.293 328.328 139.08 329.075 139.08ZM337.337 139.08C337.537 139.08 337.75 139.093 337.977 139.12C338.217 139.133 338.423 139.16 338.597 139.2L338.377 140.82C338.203 140.78 338.01 140.747 337.797 140.72C337.597 140.693 337.403 140.68 337.217 140.68C336.67 140.68 336.157 140.833 335.677 141.14C335.197 141.433 334.81 141.853 334.517 142.4C334.237 142.933 334.097 143.56 334.097 144.28V150H332.337V139.28H333.777L333.977 141.24H334.057C334.403 140.653 334.85 140.147 335.397 139.72C335.943 139.293 336.59 139.08 337.337 139.08ZM344.348 139.08C345.268 139.08 346.054 139.28 346.708 139.68C347.374 140.08 347.881 140.647 348.228 141.38C348.588 142.1 348.768 142.947 348.768 143.92V144.98H341.428C341.454 146.193 341.761 147.12 342.348 147.76C342.948 148.387 343.781 148.7 344.848 148.7C345.528 148.7 346.128 148.64 346.648 148.52C347.181 148.387 347.728 148.2 348.288 147.96V149.5C347.741 149.74 347.201 149.913 346.668 150.02C346.134 150.14 345.501 150.2 344.768 150.2C343.754 150.2 342.854 149.993 342.068 149.58C341.294 149.167 340.688 148.553 340.248 147.74C339.821 146.913 339.608 145.907 339.608 144.72C339.608 143.547 339.801 142.54 340.188 141.7C340.588 140.86 341.141 140.213 341.848 139.76C342.568 139.307 343.401 139.08 344.348 139.08ZM344.328 140.52C343.488 140.52 342.821 140.793 342.328 141.34C341.848 141.873 341.561 142.62 341.468 143.58H346.928C346.914 142.673 346.701 141.94 346.288 141.38C345.874 140.807 345.221 140.52 344.328 140.52ZM360.457 139.28V150H359.017L358.757 148.58H358.677C358.33 149.14 357.85 149.553 357.237 149.82C356.624 150.073 355.97 150.2 355.277 150.2C353.984 150.2 353.01 149.893 352.357 149.28C351.704 148.653 351.377 147.66 351.377 146.3V139.28H353.157V146.18C353.157 147.887 353.95 148.74 355.537 148.74C356.724 148.74 357.544 148.407 357.997 147.74C358.464 147.073 358.697 146.113 358.697 144.86V139.28H360.457ZM368.86 139.08C369.06 139.08 369.273 139.093 369.5 139.12C369.74 139.133 369.947 139.16 370.12 139.2L369.9 140.82C369.727 140.78 369.533 140.747 369.32 140.72C369.12 140.693 368.927 140.68 368.74 140.68C368.193 140.68 367.68 140.833 367.2 141.14C366.72 141.433 366.333 141.853 366.04 142.4C365.76 142.933 365.62 143.56 365.62 144.28V150H363.86V139.28H365.3L365.5 141.24H365.58C365.927 140.653 366.373 140.147 366.92 139.72C367.467 139.293 368.113 139.08 368.86 139.08Z" fill="#B3192E"/>
<path d="M133 152.5H268.625V153.5H133V152.5ZM278.875 152.5H370.42V153.5H278.875V152.5Z" fill="#B3192E"/>
<g clip-path="url(#clip0_5534_67988)">
<rect x="20" y="91" width="84" height="1" fill="#C54600"/>
<g clip-path="url(#clip1_5534_67988)">
<rect x="20" y="79" width="24" height="24" rx="12" fill="#C54600"/>
<path d="M29.2706 95V94.233L32.1513 91.0795C32.4893 90.7102 32.7678 90.3892 32.9865 90.1165C33.2053 89.8409 33.3672 89.5824 33.4723 89.3409C33.5803 89.0966 33.6342 88.8409 33.6342 88.5739C33.6342 88.267 33.5604 88.0014 33.4126 87.777C33.2678 87.5526 33.0689 87.3793 32.8161 87.2571C32.5632 87.1349 32.2791 87.0739 31.9638 87.0739C31.6286 87.0739 31.3359 87.1435 31.0859 87.2827C30.8388 87.419 30.647 87.6108 30.5107 87.858C30.3771 88.1051 30.3104 88.3949 30.3104 88.7273H29.3047C29.3047 88.2159 29.4226 87.767 29.6584 87.3807C29.8942 86.9943 30.2152 86.6932 30.6214 86.4773C31.0305 86.2614 31.4893 86.1534 31.9979 86.1534C32.5092 86.1534 32.9624 86.2614 33.3572 86.4773C33.7521 86.6932 34.0618 86.9844 34.2862 87.3509C34.5107 87.7173 34.6229 88.125 34.6229 88.5739C34.6229 88.8949 34.5646 89.2088 34.4482 89.5156C34.3345 89.8196 34.1357 90.1591 33.8516 90.5341C33.5703 90.9062 33.1797 91.3608 32.6797 91.8977L30.7195 93.9943V94.0625H34.7763V95H29.2706Z" fill="white"/>
</g>
</g>
<g clip-path="url(#clip2_5534_67988)">
<rect x="20" y="48" width="48" height="1" fill="#C54600"/>
<g clip-path="url(#clip3_5534_67988)">
<rect x="20" y="36" width="24" height="24" rx="12" fill="#C54600"/>
<path d="M33.1825 43.2727V52H32.1257V44.3807H32.0746L29.9439 45.7955V44.7216L32.1257 43.2727H33.1825Z" fill="white"/>
</g>
</g>
<g clip-path="url(#clip4_5534_67988)">
<rect x="20" y="144" width="84" height="1" fill="#C54600"/>
<g clip-path="url(#clip5_5534_67988)">
<rect x="20" y="132" width="24" height="24" rx="12" fill="#C54600"/>
<path d="M32.032 148.119C31.4695 148.119 30.968 148.023 30.5277 147.83C30.0902 147.636 29.7422 147.368 29.4837 147.024C29.228 146.678 29.0888 146.276 29.0661 145.818H30.1399C30.1626 146.099 30.2592 146.342 30.4297 146.547C30.6001 146.749 30.8232 146.905 31.0987 147.016C31.3743 147.126 31.6797 147.182 32.0149 147.182C32.3899 147.182 32.7223 147.116 33.0121 146.986C33.3018 146.855 33.5291 146.673 33.6939 146.44C33.8587 146.207 33.9411 145.938 33.9411 145.631C33.9411 145.31 33.8615 145.027 33.7024 144.783C33.5433 144.536 33.3104 144.342 33.0036 144.203C32.6967 144.064 32.3217 143.994 31.8786 143.994H31.1797V143.057H31.8786C32.2251 143.057 32.5291 142.994 32.7905 142.869C33.0547 142.744 33.2607 142.568 33.4084 142.341C33.5589 142.114 33.6342 141.847 33.6342 141.54C33.6342 141.244 33.5689 140.987 33.4382 140.768C33.3075 140.55 33.1229 140.379 32.8842 140.257C32.6484 140.135 32.37 140.074 32.049 140.074C31.7479 140.074 31.4638 140.129 31.1967 140.24C30.9325 140.348 30.7166 140.506 30.549 140.713C30.3814 140.918 30.2905 141.165 30.2763 141.455H29.2536C29.2706 140.997 29.4084 140.597 29.6669 140.253C29.9254 139.906 30.2635 139.636 30.6811 139.443C31.1016 139.25 31.5632 139.153 32.0661 139.153C32.6058 139.153 33.0689 139.263 33.4553 139.482C33.8416 139.697 34.1385 139.983 34.3459 140.338C34.5533 140.693 34.657 141.077 34.657 141.489C34.657 141.98 34.5277 142.399 34.2692 142.746C34.0135 143.092 33.6655 143.332 33.2251 143.466V143.534C33.7763 143.625 34.2067 143.859 34.5163 144.237C34.826 144.612 34.9808 145.077 34.9808 145.631C34.9808 146.105 34.8516 146.531 34.593 146.909C34.3374 147.284 33.9879 147.58 33.5447 147.795C33.1016 148.011 32.5973 148.119 32.032 148.119Z" fill="white"/>
</g>
</g>
<defs>
<clipPath id="clip0_5534_67988">
<rect width="84" height="24" fill="white" transform="translate(20 79)"/>
</clipPath>
<clipPath id="clip1_5534_67988">
<rect x="20" y="79" width="24" height="24" rx="12" fill="white"/>
</clipPath>
<clipPath id="clip2_5534_67988">
<rect width="48" height="24" fill="white" transform="translate(20 36)"/>
</clipPath>
<clipPath id="clip3_5534_67988">
<rect x="20" y="36" width="24" height="24" rx="12" fill="white"/>
</clipPath>
<clipPath id="clip4_5534_67988">
<rect width="84" height="24" fill="white" transform="translate(20 132)"/>
</clipPath>
<clipPath id="clip5_5534_67988">
<rect x="20" y="132" width="24" height="24" rx="12" fill="white"/>
</clipPath>
</defs>
</svg>
