<svg width="479" height="72" viewBox="0 0 479 72" fill="none" xmlns="http://www.w3.org/2000/svg">
<g clip-path="url(#clip0_5534_62805)">
<path d="M89.38 36.72C89.38 39.1333 88.72 40.9533 87.4 42.18C86.0933 43.3933 84.2667 44 81.92 44H77.94V29.72H82.34C83.78 29.72 85.0267 29.9867 86.08 30.52C87.1333 31.0533 87.9467 31.84 88.52 32.88C89.0933 33.9067 89.38 35.1867 89.38 36.72ZM87.48 36.78C87.48 34.8733 87.0067 33.48 86.06 32.6C85.1267 31.7067 83.8 31.26 82.08 31.26H79.74V42.46H81.68C85.5467 42.46 87.48 40.5667 87.48 36.78ZM96.3694 33.1C97.676 33.1 98.6427 33.3867 99.2694 33.96C99.896 34.5333 100.209 35.4467 100.209 36.7V44H98.9294L98.5894 42.48H98.5094C98.0427 43.0667 97.5494 43.5 97.0294 43.78C96.5227 44.06 95.816 44.2 94.9094 44.2C93.936 44.2 93.1294 43.9467 92.4894 43.44C91.8494 42.92 91.5294 42.1133 91.5294 41.02C91.5294 39.9533 91.9494 39.1333 92.7894 38.56C93.6294 37.9733 94.9227 37.6533 96.6694 37.6L98.4894 37.54V36.9C98.4894 36.0067 98.296 35.3867 97.9094 35.04C97.5227 34.6933 96.976 34.52 96.2694 34.52C95.7094 34.52 95.176 34.6067 94.6694 34.78C94.1627 34.94 93.6894 35.1267 93.2494 35.34L92.7094 34.02C93.176 33.7667 93.7294 33.5533 94.3694 33.38C95.0094 33.1933 95.676 33.1 96.3694 33.1ZM96.8894 38.82C95.556 38.8733 94.6294 39.0867 94.1094 39.46C93.6027 39.8333 93.3494 40.36 93.3494 41.04C93.3494 41.64 93.5294 42.08 93.8894 42.36C94.2627 42.64 94.736 42.78 95.3094 42.78C96.216 42.78 96.9694 42.5333 97.5694 42.04C98.1694 41.5333 98.4694 40.76 98.4694 39.72V38.76L96.8894 38.82ZM107.1 42.76C107.367 42.76 107.64 42.74 107.92 42.7C108.2 42.6467 108.427 42.5933 108.6 42.54V43.88C108.414 43.9733 108.147 44.0467 107.8 44.1C107.454 44.1667 107.12 44.2 106.8 44.2C106.24 44.2 105.72 44.1067 105.24 43.92C104.774 43.72 104.394 43.38 104.1 42.9C103.807 42.42 103.66 41.7467 103.66 40.88V34.64H102.14V33.8L103.68 33.1L104.38 30.82H105.42V33.28H108.52V34.64H105.42V40.84C105.42 41.4933 105.574 41.98 105.88 42.3C106.2 42.6067 106.607 42.76 107.1 42.76ZM114.887 33.08C115.807 33.08 116.594 33.28 117.247 33.68C117.914 34.08 118.42 34.6467 118.767 35.38C119.127 36.1 119.307 36.9467 119.307 37.92V38.98H111.967C111.994 40.1933 112.3 41.12 112.887 41.76C113.487 42.3867 114.32 42.7 115.387 42.7C116.067 42.7 116.667 42.64 117.187 42.52C117.72 42.3867 118.267 42.2 118.827 41.96V43.5C118.28 43.74 117.74 43.9133 117.207 44.02C116.674 44.14 116.04 44.2 115.307 44.2C114.294 44.2 113.394 43.9933 112.607 43.58C111.834 43.1667 111.227 42.5533 110.787 41.74C110.36 40.9133 110.147 39.9067 110.147 38.72C110.147 37.5467 110.34 36.54 110.727 35.7C111.127 34.86 111.68 34.2133 112.387 33.76C113.107 33.3067 113.94 33.08 114.887 33.08ZM114.867 34.52C114.027 34.52 113.36 34.7933 112.867 35.34C112.387 35.8733 112.1 36.62 112.007 37.58H117.467C117.454 36.6733 117.24 35.94 116.827 35.38C116.414 34.8067 115.76 34.52 114.867 34.52ZM131.031 44.2C129.698 44.2 128.631 43.74 127.831 42.82C127.031 41.8867 126.631 40.5 126.631 38.66C126.631 36.82 127.031 35.4333 127.831 34.5C128.645 33.5533 129.718 33.08 131.051 33.08C131.878 33.08 132.551 33.2333 133.071 33.54C133.605 33.8467 134.038 34.22 134.371 34.66H134.491C134.478 34.4867 134.451 34.2333 134.411 33.9C134.385 33.5533 134.371 33.28 134.371 33.08V28.8H136.131V44H134.711L134.451 42.56H134.371C134.051 43.0133 133.625 43.4 133.091 43.72C132.558 44.04 131.871 44.2 131.031 44.2ZM131.311 42.74C132.445 42.74 133.238 42.4333 133.691 41.82C134.158 41.1933 134.391 40.2533 134.391 39V38.68C134.391 37.3467 134.171 36.3267 133.731 35.62C133.291 34.9 132.478 34.54 131.291 34.54C130.345 34.54 129.631 34.92 129.151 35.68C128.685 36.4267 128.451 37.4333 128.451 38.7C128.451 39.98 128.685 40.9733 129.151 41.68C129.631 42.3867 130.351 42.74 131.311 42.74ZM143.676 33.08C144.596 33.08 145.383 33.28 146.036 33.68C146.703 34.08 147.209 34.6467 147.556 35.38C147.916 36.1 148.096 36.9467 148.096 37.92V38.98H140.756C140.783 40.1933 141.089 41.12 141.676 41.76C142.276 42.3867 143.109 42.7 144.176 42.7C144.856 42.7 145.456 42.64 145.976 42.52C146.509 42.3867 147.056 42.2 147.616 41.96V43.5C147.069 43.74 146.529 43.9133 145.996 44.02C145.463 44.14 144.829 44.2 144.096 44.2C143.083 44.2 142.183 43.9933 141.396 43.58C140.623 43.1667 140.016 42.5533 139.576 41.74C139.149 40.9133 138.936 39.9067 138.936 38.72C138.936 37.5467 139.129 36.54 139.516 35.7C139.916 34.86 140.469 34.2133 141.176 33.76C141.896 33.3067 142.729 33.08 143.676 33.08ZM143.656 34.52C142.816 34.52 142.149 34.7933 141.656 35.34C141.176 35.8733 140.889 36.62 140.796 37.58H146.256C146.243 36.6733 146.029 35.94 145.616 35.38C145.203 34.8067 144.549 34.52 143.656 34.52ZM167.78 33.08C168.994 33.08 169.9 33.3933 170.5 34.02C171.1 34.6333 171.4 35.6333 171.4 37.02V44H169.66V37.1C169.66 35.4067 168.934 34.56 167.48 34.56C166.44 34.56 165.694 34.86 165.24 35.46C164.8 36.06 164.58 36.9333 164.58 38.08V44H162.84V37.1C162.84 35.4067 162.107 34.56 160.64 34.56C159.56 34.56 158.814 34.8933 158.4 35.56C157.987 36.2267 157.78 37.1867 157.78 38.44V44H156.02V33.28H157.44L157.7 34.74H157.8C158.134 34.18 158.58 33.7667 159.14 33.5C159.714 33.22 160.32 33.08 160.96 33.08C162.64 33.08 163.734 33.68 164.24 34.88H164.34C164.7 34.2667 165.187 33.8133 165.8 33.52C166.427 33.2267 167.087 33.08 167.78 33.08ZM184.032 38.62C184.032 40.3933 183.578 41.7667 182.672 42.74C181.778 43.7133 180.565 44.2 179.032 44.2C178.085 44.2 177.238 43.9867 176.492 43.56C175.758 43.12 175.178 42.4867 174.752 41.66C174.325 40.82 174.112 39.8067 174.112 38.62C174.112 36.8467 174.558 35.48 175.452 34.52C176.345 33.56 177.558 33.08 179.092 33.08C180.065 33.08 180.918 33.3 181.652 33.74C182.398 34.1667 182.978 34.7933 183.392 35.62C183.818 36.4333 184.032 37.4333 184.032 38.62ZM175.932 38.62C175.932 39.8867 176.178 40.8933 176.672 41.64C177.178 42.3733 177.978 42.74 179.072 42.74C180.152 42.74 180.945 42.3733 181.452 41.64C181.958 40.8933 182.212 39.8867 182.212 38.62C182.212 37.3533 181.958 36.36 181.452 35.64C180.945 34.92 180.145 34.56 179.052 34.56C177.958 34.56 177.165 34.92 176.672 35.64C176.178 36.36 175.932 37.3533 175.932 38.62ZM190.621 44.2C189.288 44.2 188.221 43.74 187.421 42.82C186.621 41.8867 186.221 40.5 186.221 38.66C186.221 36.82 186.621 35.4333 187.421 34.5C188.234 33.5533 189.308 33.08 190.641 33.08C191.468 33.08 192.141 33.2333 192.661 33.54C193.194 33.8467 193.628 34.22 193.961 34.66H194.081C194.068 34.4867 194.041 34.2333 194.001 33.9C193.974 33.5533 193.961 33.28 193.961 33.08V28.8H195.721V44H194.301L194.041 42.56H193.961C193.641 43.0133 193.214 43.4 192.681 43.72C192.148 44.04 191.461 44.2 190.621 44.2ZM190.901 42.74C192.034 42.74 192.828 42.4333 193.281 41.82C193.748 41.1933 193.981 40.2533 193.981 39V38.68C193.981 37.3467 193.761 36.3267 193.321 35.62C192.881 34.9 192.068 34.54 190.881 34.54C189.934 34.54 189.221 34.92 188.741 35.68C188.274 36.4267 188.041 37.4333 188.041 38.7C188.041 39.98 188.274 40.9733 188.741 41.68C189.221 42.3867 189.941 42.74 190.901 42.74ZM200.026 29.26C200.292 29.26 200.526 29.3533 200.726 29.54C200.939 29.7133 201.046 29.9933 201.046 30.38C201.046 30.7533 200.939 31.0333 200.726 31.22C200.526 31.4067 200.292 31.5 200.026 31.5C199.732 31.5 199.486 31.4067 199.286 31.22C199.086 31.0333 198.986 30.7533 198.986 30.38C198.986 29.9933 199.086 29.7133 199.286 29.54C199.486 29.3533 199.732 29.26 200.026 29.26ZM200.886 33.28V44H199.126V33.28H200.886ZM209.222 34.64H206.522V44H204.762V34.64H202.882V33.82L204.762 33.22V32.6C204.762 31.2133 205.069 30.22 205.682 29.62C206.295 29.0067 207.149 28.7 208.242 28.7C208.669 28.7 209.055 28.74 209.402 28.82C209.762 28.8867 210.069 28.9667 210.322 29.06L209.862 30.44C209.649 30.3733 209.402 30.3067 209.122 30.24C208.842 30.1733 208.555 30.14 208.262 30.14C207.675 30.14 207.235 30.34 206.942 30.74C206.662 31.1267 206.522 31.74 206.522 32.58V33.28H209.222V34.64ZM212.062 29.26C212.329 29.26 212.562 29.3533 212.762 29.54C212.975 29.7133 213.082 29.9933 213.082 30.38C213.082 30.7533 212.975 31.0333 212.762 31.22C212.562 31.4067 212.329 31.5 212.062 31.5C211.769 31.5 211.522 31.4067 211.322 31.22C211.122 31.0333 211.022 30.7533 211.022 30.38C211.022 29.9933 211.122 29.7133 211.322 29.54C211.522 29.3533 211.769 29.26 212.062 29.26ZM212.922 33.28V44H211.162V33.28H212.922ZM220.613 44.2C219.667 44.2 218.82 44.0067 218.073 43.62C217.34 43.2333 216.76 42.6333 216.333 41.82C215.92 41.0067 215.713 39.9667 215.713 38.7C215.713 37.38 215.933 36.3067 216.373 35.48C216.813 34.6533 217.407 34.0467 218.153 33.66C218.913 33.2733 219.773 33.08 220.733 33.08C221.28 33.08 221.807 33.14 222.313 33.26C222.82 33.3667 223.233 33.5 223.553 33.66L223.013 35.12C222.693 35 222.32 34.8867 221.893 34.78C221.467 34.6733 221.067 34.62 220.693 34.62C218.587 34.62 217.533 35.9733 217.533 38.68C217.533 39.9733 217.787 40.9667 218.293 41.66C218.813 42.34 219.58 42.68 220.593 42.68C221.18 42.68 221.693 42.62 222.133 42.5C222.587 42.38 223 42.2333 223.373 42.06V43.62C223.013 43.8067 222.613 43.9467 222.173 44.04C221.747 44.1467 221.227 44.2 220.613 44.2ZM229.983 33.1C231.289 33.1 232.256 33.3867 232.883 33.96C233.509 34.5333 233.823 35.4467 233.823 36.7V44H232.543L232.203 42.48H232.123C231.656 43.0667 231.163 43.5 230.643 43.78C230.136 44.06 229.429 44.2 228.523 44.2C227.549 44.2 226.743 43.9467 226.103 43.44C225.463 42.92 225.143 42.1133 225.143 41.02C225.143 39.9533 225.563 39.1333 226.403 38.56C227.243 37.9733 228.536 37.6533 230.283 37.6L232.103 37.54V36.9C232.103 36.0067 231.909 35.3867 231.523 35.04C231.136 34.6933 230.589 34.52 229.883 34.52C229.323 34.52 228.789 34.6067 228.283 34.78C227.776 34.94 227.303 35.1267 226.863 35.34L226.323 34.02C226.789 33.7667 227.343 33.5533 227.983 33.38C228.623 33.1933 229.289 33.1 229.983 33.1ZM230.503 38.82C229.169 38.8733 228.243 39.0867 227.723 39.46C227.216 39.8333 226.963 40.36 226.963 41.04C226.963 41.64 227.143 42.08 227.503 42.36C227.876 42.64 228.349 42.78 228.923 42.78C229.829 42.78 230.583 42.5333 231.183 42.04C231.783 41.5333 232.083 40.76 232.083 39.72V38.76L230.503 38.82ZM240.714 42.76C240.98 42.76 241.254 42.74 241.534 42.7C241.814 42.6467 242.04 42.5933 242.214 42.54V43.88C242.027 43.9733 241.76 44.0467 241.414 44.1C241.067 44.1667 240.734 44.2 240.414 44.2C239.854 44.2 239.334 44.1067 238.854 43.92C238.387 43.72 238.007 43.38 237.714 42.9C237.42 42.42 237.274 41.7467 237.274 40.88V34.64H235.754V33.8L237.294 33.1L237.994 30.82H239.034V33.28H242.134V34.64H239.034V40.84C239.034 41.4933 239.187 41.98 239.494 42.3C239.814 42.6067 240.22 42.76 240.714 42.76ZM245.26 29.26C245.527 29.26 245.76 29.3533 245.96 29.54C246.173 29.7133 246.28 29.9933 246.28 30.38C246.28 30.7533 246.173 31.0333 245.96 31.22C245.76 31.4067 245.527 31.5 245.26 31.5C244.967 31.5 244.72 31.4067 244.52 31.22C244.32 31.0333 244.22 30.7533 244.22 30.38C244.22 29.9933 244.32 29.7133 244.52 29.54C244.72 29.3533 244.967 29.26 245.26 29.26ZM246.12 33.28V44H244.36V33.28H246.12ZM258.836 38.62C258.836 40.3933 258.383 41.7667 257.476 42.74C256.583 43.7133 255.37 44.2 253.836 44.2C252.89 44.2 252.043 43.9867 251.296 43.56C250.563 43.12 249.983 42.4867 249.556 41.66C249.13 40.82 248.916 39.8067 248.916 38.62C248.916 36.8467 249.363 35.48 250.256 34.52C251.15 33.56 252.363 33.08 253.896 33.08C254.87 33.08 255.723 33.3 256.456 33.74C257.203 34.1667 257.783 34.7933 258.196 35.62C258.623 36.4333 258.836 37.4333 258.836 38.62ZM250.736 38.62C250.736 39.8867 250.983 40.8933 251.476 41.64C251.983 42.3733 252.783 42.74 253.876 42.74C254.956 42.74 255.75 42.3733 256.256 41.64C256.763 40.8933 257.016 39.8867 257.016 38.62C257.016 37.3533 256.763 36.36 256.256 35.64C255.75 34.92 254.95 34.56 253.856 34.56C252.763 34.56 251.97 34.92 251.476 35.64C250.983 36.36 250.736 37.3533 250.736 38.62ZM266.786 33.08C268.066 33.08 269.032 33.3933 269.686 34.02C270.339 34.6333 270.666 35.6333 270.666 37.02V44H268.926V37.14C268.926 35.42 268.126 34.56 266.526 34.56C265.339 34.56 264.519 34.8933 264.066 35.56C263.612 36.2267 263.386 37.1867 263.386 38.44V44H261.626V33.28H263.046L263.306 34.74H263.406C263.752 34.18 264.232 33.7667 264.846 33.5C265.459 33.22 266.106 33.08 266.786 33.08ZM273.729 34.36C273.729 33.8533 273.849 33.5 274.089 33.3C274.329 33.1 274.616 33 274.949 33C275.296 33 275.589 33.1 275.829 33.3C276.082 33.5 276.209 33.8533 276.209 34.36C276.209 34.84 276.082 35.1867 275.829 35.4C275.589 35.6133 275.296 35.72 274.949 35.72C274.616 35.72 274.329 35.6133 274.089 35.4C273.849 35.1867 273.729 34.84 273.729 34.36ZM273.729 42.92C273.729 42.4267 273.849 42.08 274.089 41.88C274.329 41.68 274.616 41.58 274.949 41.58C275.296 41.58 275.589 41.68 275.829 41.88C276.082 42.08 276.209 42.4267 276.209 42.92C276.209 43.4 276.082 43.7467 275.829 43.96C275.589 44.1733 275.296 44.28 274.949 44.28C274.616 44.28 274.329 44.1733 274.089 43.96C273.849 43.7467 273.729 43.4 273.729 42.92Z" fill="#333333"/>
<path d="M300.4 44H290.96V42.54L294.7 38.76C295.42 38.04 296.027 37.4 296.52 36.84C297.013 36.28 297.387 35.7333 297.64 35.2C297.893 34.6533 298.02 34.06 298.02 33.42C298.02 32.6333 297.787 32.04 297.32 31.64C296.853 31.2267 296.247 31.02 295.5 31.02C294.807 31.02 294.193 31.14 293.66 31.38C293.14 31.62 292.607 31.9533 292.06 32.38L291.12 31.2C291.68 30.7333 292.32 30.34 293.04 30.02C293.773 29.6867 294.593 29.52 295.5 29.52C296.833 29.52 297.887 29.86 298.66 30.54C299.433 31.2067 299.82 32.1333 299.82 33.32C299.82 34.0667 299.667 34.7667 299.36 35.42C299.053 36.0733 298.627 36.72 298.08 37.36C297.533 37.9867 296.893 38.66 296.16 39.38L293.18 42.32V42.4H300.4V44ZM311.905 36.84C311.905 38.3733 311.745 39.6933 311.425 40.8C311.105 41.8933 310.599 42.7333 309.905 43.32C309.212 43.9067 308.292 44.2 307.145 44.2C305.532 44.2 304.339 43.5533 303.565 42.26C302.805 40.9533 302.425 39.1467 302.425 36.84C302.425 35.2933 302.579 33.9733 302.885 32.88C303.205 31.7867 303.712 30.9533 304.405 30.38C305.099 29.7933 306.012 29.5 307.145 29.5C308.745 29.5 309.939 30.1467 310.725 31.44C311.512 32.72 311.905 34.52 311.905 36.84ZM304.185 36.84C304.185 38.8 304.405 40.2667 304.845 41.24C305.299 42.2133 306.065 42.7 307.145 42.7C308.212 42.7 308.972 42.22 309.425 41.26C309.892 40.2867 310.125 38.8133 310.125 36.84C310.125 34.8933 309.892 33.4333 309.425 32.46C308.972 31.4867 308.212 31 307.145 31C306.065 31 305.299 31.4867 304.845 32.46C304.405 33.4333 304.185 34.8933 304.185 36.84ZM323.291 44H313.851V42.54L317.591 38.76C318.311 38.04 318.917 37.4 319.411 36.84C319.904 36.28 320.277 35.7333 320.531 35.2C320.784 34.6533 320.911 34.06 320.911 33.42C320.911 32.6333 320.677 32.04 320.211 31.64C319.744 31.2267 319.137 31.02 318.391 31.02C317.697 31.02 317.084 31.14 316.551 31.38C316.031 31.62 315.497 31.9533 314.951 32.38L314.011 31.2C314.571 30.7333 315.211 30.34 315.931 30.02C316.664 29.6867 317.484 29.52 318.391 29.52C319.724 29.52 320.777 29.86 321.551 30.54C322.324 31.2067 322.711 32.1333 322.711 33.32C322.711 34.0667 322.557 34.7667 322.251 35.42C321.944 36.0733 321.517 36.72 320.971 37.36C320.424 37.9867 319.784 38.66 319.051 39.38L316.071 42.32V42.4H323.291V44ZM334.196 33.06C334.196 34.02 333.929 34.7867 333.396 35.36C332.863 35.92 332.143 36.2933 331.236 36.48V36.56C332.383 36.6933 333.236 37.0533 333.796 37.64C334.356 38.2267 334.636 38.9933 334.636 39.94C334.636 40.7667 334.443 41.5067 334.056 42.16C333.669 42.8 333.069 43.3 332.256 43.66C331.456 44.02 330.423 44.2 329.156 44.2C328.409 44.2 327.716 44.14 327.076 44.02C326.436 43.9133 325.823 43.7133 325.236 43.42V41.78C325.836 42.0733 326.483 42.3067 327.176 42.48C327.869 42.64 328.536 42.72 329.176 42.72C330.456 42.72 331.376 42.4733 331.936 41.98C332.509 41.4733 332.796 40.78 332.796 39.9C332.796 39.0067 332.443 38.3667 331.736 37.98C331.043 37.58 330.063 37.38 328.796 37.38H327.416V35.88H328.816C329.989 35.88 330.876 35.6333 331.476 35.14C332.089 34.6467 332.396 33.9933 332.396 33.18C332.396 32.4867 332.163 31.9533 331.696 31.58C331.229 31.1933 330.596 31 329.796 31C329.023 31 328.363 31.1133 327.816 31.34C327.269 31.5667 326.729 31.8533 326.196 32.2L325.316 31C325.823 30.6 326.449 30.2533 327.196 29.96C327.956 29.6667 328.816 29.52 329.776 29.52C331.269 29.52 332.376 29.8533 333.096 30.52C333.829 31.1867 334.196 32.0333 334.196 33.06ZM336.581 39.42V37.86H341.421V39.42H336.581ZM352.687 36.84C352.687 38.3733 352.527 39.6933 352.207 40.8C351.887 41.8933 351.38 42.7333 350.687 43.32C349.993 43.9067 349.073 44.2 347.927 44.2C346.313 44.2 345.12 43.5533 344.347 42.26C343.587 40.9533 343.207 39.1467 343.207 36.84C343.207 35.2933 343.36 33.9733 343.667 32.88C343.987 31.7867 344.493 30.9533 345.187 30.38C345.88 29.7933 346.793 29.5 347.927 29.5C349.527 29.5 350.72 30.1467 351.507 31.44C352.293 32.72 352.687 34.52 352.687 36.84ZM344.967 36.84C344.967 38.8 345.187 40.2667 345.627 41.24C346.08 42.2133 346.847 42.7 347.927 42.7C348.993 42.7 349.753 42.22 350.207 41.26C350.673 40.2867 350.907 38.8133 350.907 36.84C350.907 34.8933 350.673 33.4333 350.207 32.46C349.753 31.4867 348.993 31 347.927 31C346.847 31 346.08 31.4867 345.627 32.46C345.187 33.4333 344.967 34.8933 344.967 36.84ZM360.772 44H359.052V34.02C359.052 33.4467 359.059 32.9867 359.072 32.64C359.085 32.2933 359.105 31.9333 359.132 31.56C358.919 31.7733 358.725 31.9533 358.552 32.1C358.379 32.2467 358.159 32.4333 357.892 32.66L356.372 33.9L355.452 32.72L359.312 29.72H360.772V44ZM365.917 39.42V37.86H370.757V39.42H365.917ZM381.423 33.06C381.423 34.02 381.156 34.7867 380.623 35.36C380.089 35.92 379.369 36.2933 378.463 36.48V36.56C379.609 36.6933 380.463 37.0533 381.023 37.64C381.583 38.2267 381.863 38.9933 381.863 39.94C381.863 40.7667 381.669 41.5067 381.283 42.16C380.896 42.8 380.296 43.3 379.483 43.66C378.683 44.02 377.649 44.2 376.383 44.2C375.636 44.2 374.943 44.14 374.303 44.02C373.663 43.9133 373.049 43.7133 372.463 43.42V41.78C373.063 42.0733 373.709 42.3067 374.403 42.48C375.096 42.64 375.763 42.72 376.403 42.72C377.683 42.72 378.603 42.4733 379.163 41.98C379.736 41.4733 380.023 40.78 380.023 39.9C380.023 39.0067 379.669 38.3667 378.963 37.98C378.269 37.58 377.289 37.38 376.023 37.38H374.643V35.88H376.043C377.216 35.88 378.103 35.6333 378.703 35.14C379.316 34.6467 379.623 33.9933 379.623 33.18C379.623 32.4867 379.389 31.9533 378.923 31.58C378.456 31.1933 377.823 31 377.023 31C376.249 31 375.589 31.1133 375.043 31.34C374.496 31.5667 373.956 31.8533 373.423 32.2L372.543 31C373.049 30.6 373.676 30.2533 374.423 29.96C375.183 29.6667 376.043 29.52 377.003 29.52C378.496 29.52 379.603 29.8533 380.323 30.52C381.056 31.1867 381.423 32.0333 381.423 33.06ZM393.468 36.84C393.468 38.3733 393.308 39.6933 392.988 40.8C392.668 41.8933 392.161 42.7333 391.468 43.32C390.774 43.9067 389.854 44.2 388.708 44.2C387.094 44.2 385.901 43.5533 385.128 42.26C384.368 40.9533 383.988 39.1467 383.988 36.84C383.988 35.2933 384.141 33.9733 384.448 32.88C384.768 31.7867 385.274 30.9533 385.968 30.38C386.661 29.7933 387.574 29.5 388.708 29.5C390.308 29.5 391.501 30.1467 392.288 31.44C393.074 32.72 393.468 34.52 393.468 36.84ZM385.748 36.84C385.748 38.8 385.968 40.2667 386.408 41.24C386.861 42.2133 387.628 42.7 388.708 42.7C389.774 42.7 390.534 42.22 390.988 41.26C391.454 40.2867 391.688 38.8133 391.688 36.84C391.688 34.8933 391.454 33.4333 390.988 32.46C390.534 31.4867 389.774 31 388.708 31C387.628 31 386.861 31.4867 386.408 32.46C385.968 33.4333 385.748 34.8933 385.748 36.84Z" fill="#333333"/>
</g>
<g clip-path="url(#clip1_5534_62805)">
<rect x="20" y="35.49" width="50" height="1" fill="#C54600"/>
<g clip-path="url(#clip2_5534_62805)">
<rect x="20" y="23.49" width="24" height="24" rx="12" fill="#C54600"/>
<path d="M33.1825 30.7627V39.49H32.1257V31.8707H32.0746L29.9439 33.2854V32.2116L32.1257 30.7627H33.1825Z" fill="white"/>
</g>
</g>
<g clip-path="url(#clip3_5534_62805)">
<rect x="403.468" y="35.8501" width="49.5322" height="1" fill="#C54600"/>
<g clip-path="url(#clip4_5534_62805)">
<rect x="429" y="23.8501" width="24" height="24" rx="12" fill="#C54600"/>
<path d="M438.271 39.8501V39.0831L441.151 35.9296C441.489 35.5603 441.768 35.2393 441.987 34.9666C442.205 34.691 442.367 34.4325 442.472 34.191C442.58 33.9467 442.634 33.691 442.634 33.424C442.634 33.1171 442.56 32.8515 442.413 32.6271C442.268 32.4027 442.069 32.2294 441.816 32.1072C441.563 31.985 441.279 31.924 440.964 31.924C440.629 31.924 440.336 31.9936 440.086 32.1328C439.839 32.2691 439.647 32.4609 439.511 32.7081C439.377 32.9552 439.31 33.245 439.31 33.5774H438.305C438.305 33.066 438.423 32.6171 438.658 32.2308C438.894 31.8444 439.215 31.5433 439.621 31.3274C440.031 31.1115 440.489 31.0035 440.998 31.0035C441.509 31.0035 441.962 31.1115 442.357 31.3274C442.752 31.5433 443.062 31.8345 443.286 32.2009C443.511 32.5674 443.623 32.9751 443.623 33.424C443.623 33.745 443.565 34.0589 443.448 34.3657C443.335 34.6697 443.136 35.0092 442.852 35.3842C442.57 35.7563 442.18 36.2109 441.68 36.7478L439.719 38.8444V38.9126H443.776V39.8501H438.271Z" fill="white"/>
</g>
</g>
<defs>
<clipPath id="clip0_5534_62805">
<rect width="319" height="32" fill="white" transform="translate(76 20)"/>
</clipPath>
<clipPath id="clip1_5534_62805">
<rect width="49.9399" height="24" fill="white" transform="translate(20 23.49)"/>
</clipPath>
<clipPath id="clip2_5534_62805">
<rect x="20" y="23.49" width="24" height="24" rx="12" fill="white"/>
</clipPath>
<clipPath id="clip3_5534_62805">
<rect width="49.5322" height="24" fill="white" transform="translate(403.468 23.8501)"/>
</clipPath>
<clipPath id="clip4_5534_62805">
<rect x="429" y="23.8501" width="24" height="24" rx="12" fill="white"/>
</clipPath>
</defs>
</svg>
