<svg width="138" height="80" viewBox="0 0 138 80" fill="none" xmlns="http://www.w3.org/2000/svg">
<g clip-path="url(#clip0_12142_2415)">
<rect x="126" y="48.2822" width="48" height="1" transform="rotate(-90 126 48.2822)" fill="#C54600"/>
<g clip-path="url(#clip1_12142_2415)">
<rect x="114" y="24.2822" width="24" height="24" rx="12" transform="rotate(-90 114 24.2822)" fill="#C54600"/>
<path d="M122.416 17.2822V15.7311L126.04 12.3753C126.349 12.077 126.607 11.8085 126.816 11.5699C127.028 11.3312 127.189 11.0976 127.298 10.8689C127.408 10.6369 127.462 10.3866 127.462 10.1182C127.462 9.81987 127.394 9.563 127.258 9.34757C127.123 9.12882 126.937 8.96144 126.702 8.84544C126.466 8.72612 126.199 8.66646 125.901 8.66646C125.59 8.66646 125.318 8.72943 125.086 8.85538C124.854 8.98133 124.675 9.16196 124.549 9.39728C124.423 9.6326 124.36 9.91267 124.36 10.2375H122.317C122.317 9.57129 122.467 8.99293 122.769 8.5024C123.071 8.01187 123.493 7.63237 124.037 7.3639C124.58 7.09544 125.207 6.9612 125.916 6.9612C126.645 6.9612 127.28 7.09046 127.82 7.34899C128.364 7.6042 128.786 7.95884 129.088 8.41291C129.39 8.86698 129.54 9.38734 129.54 9.97399C129.54 10.3585 129.464 10.738 129.312 11.1125C129.163 11.487 128.896 11.903 128.511 12.3604C128.127 12.8144 127.585 13.3596 126.886 13.996L125.399 15.4527V15.5223H129.675V17.2822H122.416Z" fill="white"/>
</g>
</g>
<g clip-path="url(#clip2_12142_2415)">
<rect x="55" y="48.2822" width="48" height="1" transform="rotate(-90 55 48.2822)" fill="#C54600"/>
<g clip-path="url(#clip3_12142_2415)">
<rect x="43" y="24.2822" width="24" height="24" rx="12" transform="rotate(-90 43 24.2822)" fill="#C54600"/>
<path d="M56.8302 7.10041V17.2822H54.6775V9.14373H54.6178L52.2861 10.6054V8.69629L54.8067 7.10041H56.8302Z" fill="white"/>
</g>
</g>
<path d="M6.46 72.2822H4.66V59.5822H0.2V58.0022H10.9V59.5822H6.46V72.2822ZM15.547 61.3622C16.467 61.3622 17.2537 61.5622 17.907 61.9622C18.5737 62.3622 19.0804 62.9289 19.427 63.6622C19.787 64.3822 19.967 65.2289 19.967 66.2022V67.2622H12.627C12.6537 68.4756 12.9604 69.4022 13.547 70.0422C14.147 70.6689 14.9804 70.9822 16.047 70.9822C16.727 70.9822 17.327 70.9222 17.847 70.8022C18.3804 70.6689 18.927 70.4822 19.487 70.2422V71.7822C18.9404 72.0222 18.4004 72.1956 17.867 72.3022C17.3337 72.4222 16.7004 72.4822 15.967 72.4822C14.9537 72.4822 14.0537 72.2756 13.267 71.8622C12.4937 71.4489 11.887 70.8356 11.447 70.0222C11.0204 69.1956 10.807 68.1889 10.807 67.0022C10.807 65.8289 11.0004 64.8222 11.387 63.9822C11.787 63.1422 12.3404 62.4956 13.047 62.0422C13.767 61.5889 14.6004 61.3622 15.547 61.3622ZM15.527 62.8022C14.687 62.8022 14.0204 63.0756 13.527 63.6222C13.047 64.1556 12.7604 64.9022 12.667 65.8622H18.127C18.1137 64.9556 17.9004 64.2222 17.487 63.6622C17.0737 63.0889 16.4204 62.8022 15.527 62.8022ZM18.367 57.1622C18.207 57.4022 17.9604 57.7156 17.627 58.1022C17.2937 58.4756 16.9337 58.8556 16.547 59.2422C16.1737 59.6156 15.827 59.9222 15.507 60.1622H14.347V59.9222C14.547 59.6689 14.7604 59.3689 14.987 59.0222C15.227 58.6756 15.4604 58.3222 15.687 57.9622C15.9137 57.5889 16.1004 57.2556 16.247 56.9622H18.367V57.1622ZM24.4561 72.2822H22.6961V57.0822H24.4561V72.2822ZM31.9923 61.3622C32.9123 61.3622 33.699 61.5622 34.3523 61.9622C35.019 62.3622 35.5257 62.9289 35.8723 63.6622C36.2323 64.3822 36.4123 65.2289 36.4123 66.2022V67.2622H29.0723C29.099 68.4756 29.4057 69.4022 29.9923 70.0422C30.5923 70.6689 31.4257 70.9822 32.4923 70.9822C33.1723 70.9822 33.7723 70.9222 34.2923 70.8022C34.8257 70.6689 35.3723 70.4822 35.9323 70.2422V71.7822C35.3857 72.0222 34.8457 72.1956 34.3123 72.3022C33.779 72.4222 33.1457 72.4822 32.4123 72.4822C31.399 72.4822 30.499 72.2756 29.7123 71.8622C28.939 71.4489 28.3323 70.8356 27.8923 70.0222C27.4657 69.1956 27.2523 68.1889 27.2523 67.0022C27.2523 65.8289 27.4457 64.8222 27.8323 63.9822C28.2323 63.1422 28.7857 62.4956 29.4923 62.0422C30.2123 61.5889 31.0457 61.3622 31.9923 61.3622ZM31.9723 62.8022C31.1323 62.8022 30.4657 63.0756 29.9723 63.6222C29.4923 64.1556 29.2057 64.9022 29.1123 65.8622H34.5723C34.559 64.9556 34.3457 64.2222 33.9323 63.6622C33.519 63.0889 32.8657 62.8022 31.9723 62.8022ZM34.8123 57.1622C34.6523 57.4022 34.4057 57.7156 34.0723 58.1022C33.739 58.4756 33.379 58.8556 32.9923 59.2422C32.619 59.6156 32.2723 59.9222 31.9523 60.1622H30.7923V59.9222C30.9923 59.6689 31.2057 59.3689 31.4323 59.0222C31.6723 58.6756 31.9057 58.3222 32.1323 57.9622C32.359 57.5889 32.5457 57.2556 32.6923 56.9622H34.8123V57.1622ZM43.4414 72.4822C42.4947 72.4822 41.6481 72.2889 40.9014 71.9022C40.1681 71.5156 39.5881 70.9156 39.1614 70.1022C38.7481 69.2889 38.5414 68.2489 38.5414 66.9822C38.5414 65.6622 38.7614 64.5889 39.2014 63.7622C39.6414 62.9356 40.2347 62.3289 40.9814 61.9422C41.7414 61.5556 42.6014 61.3622 43.5614 61.3622C44.1081 61.3622 44.6347 61.4222 45.1414 61.5422C45.6481 61.6489 46.0614 61.7822 46.3814 61.9422L45.8414 63.4022C45.5214 63.2822 45.1481 63.1689 44.7214 63.0622C44.2947 62.9556 43.8947 62.9022 43.5214 62.9022C41.4147 62.9022 40.3614 64.2556 40.3614 66.9622C40.3614 68.2556 40.6147 69.2489 41.1214 69.9422C41.6414 70.6222 42.4081 70.9622 43.4214 70.9622C44.0081 70.9622 44.5214 70.9022 44.9614 70.7822C45.4147 70.6622 45.8281 70.5156 46.2014 70.3422V71.9022C45.8414 72.0889 45.4414 72.2289 45.0014 72.3222C44.5747 72.4289 44.0547 72.4822 43.4414 72.4822ZM50.5108 61.5422C50.5108 62.0756 50.4774 62.5756 50.4108 63.0422H50.5308C50.8774 62.4956 51.3441 62.0822 51.9308 61.8022C52.5308 61.5222 53.1774 61.3822 53.8708 61.3822C55.1774 61.3822 56.1574 61.6956 56.8108 62.3222C57.4641 62.9356 57.7908 63.9289 57.7908 65.3022V72.2822H56.0508V65.4222C56.0508 63.7022 55.2508 62.8422 53.6508 62.8422C52.4508 62.8422 51.6241 63.1822 51.1708 63.8622C50.7308 64.5289 50.5108 65.4889 50.5108 66.7422V72.2822H48.7508V57.0822H50.5108V61.5422ZM65.1741 61.3822C66.4807 61.3822 67.4474 61.6689 68.0741 62.2422C68.7007 62.8156 69.0141 63.7289 69.0141 64.9822V72.2822H67.7341L67.3941 70.7622H67.3141C66.8474 71.3489 66.3541 71.7822 65.8341 72.0622C65.3274 72.3422 64.6207 72.4822 63.7141 72.4822C62.7407 72.4822 61.9341 72.2289 61.2941 71.7222C60.6541 71.2022 60.3341 70.3956 60.3341 69.3022C60.3341 68.2356 60.7541 67.4156 61.5941 66.8422C62.4341 66.2556 63.7274 65.9356 65.4741 65.8822L67.2941 65.8222V65.1822C67.2941 64.2889 67.1007 63.6689 66.7141 63.3222C66.3274 62.9756 65.7807 62.8022 65.0741 62.8022C64.5141 62.8022 63.9807 62.8889 63.4741 63.0622C62.9674 63.2222 62.4941 63.4089 62.0541 63.6222L61.5141 62.3022C61.9807 62.0489 62.5341 61.8356 63.1741 61.6622C63.8141 61.4756 64.4807 61.3822 65.1741 61.3822ZM65.6941 67.1022C64.3607 67.1556 63.4341 67.3689 62.9141 67.7422C62.4074 68.1156 62.1541 68.6422 62.1541 69.3222C62.1541 69.9222 62.3341 70.3622 62.6941 70.6422C63.0674 70.9222 63.5407 71.0622 64.1141 71.0622C65.0207 71.0622 65.7741 70.8156 66.3741 70.3222C66.9741 69.8156 67.2741 69.0422 67.2741 68.0022V67.0422L65.6941 67.1022ZM77.325 61.3622C77.525 61.3622 77.7383 61.3756 77.965 61.4022C78.205 61.4156 78.4117 61.4422 78.585 61.4822L78.365 63.1022C78.1917 63.0622 77.9983 63.0289 77.785 63.0022C77.585 62.9756 77.3917 62.9622 77.205 62.9622C76.6583 62.9622 76.145 63.1156 75.665 63.4222C75.185 63.7156 74.7983 64.1356 74.505 64.6822C74.225 65.2156 74.085 65.8422 74.085 66.5622V72.2822H72.325V61.5622H73.765L73.965 63.5222H74.045C74.3917 62.9356 74.8383 62.4289 75.385 62.0022C75.9317 61.5756 76.5783 61.3622 77.325 61.3622ZM84.1914 61.3622C84.8981 61.3622 85.5314 61.4956 86.0914 61.7622C86.6647 62.0289 87.1514 62.4356 87.5514 62.9822H87.6514L87.8914 61.5622H89.2914V72.4622C89.2914 73.9956 88.8981 75.1489 88.1114 75.9222C87.3381 76.6956 86.1314 77.0822 84.4914 77.0822C82.9181 77.0822 81.6314 76.8556 80.6314 76.4022V74.7822C81.6847 75.3422 83.0047 75.6222 84.5914 75.6222C85.5114 75.6222 86.2314 75.3489 86.7514 74.8022C87.2847 74.2689 87.5514 73.5356 87.5514 72.6022V72.1822C87.5514 72.0222 87.5581 71.7956 87.5714 71.5022C87.5847 71.1956 87.5981 70.9822 87.6114 70.8622H87.5314C86.8114 71.9422 85.7047 72.4822 84.2114 72.4822C82.8247 72.4822 81.7381 71.9956 80.9514 71.0222C80.1781 70.0489 79.7914 68.6889 79.7914 66.9422C79.7914 65.2356 80.1781 63.8822 80.9514 62.8822C81.7381 61.8689 82.8181 61.3622 84.1914 61.3622ZM84.4314 62.8422C83.5381 62.8422 82.8447 63.2022 82.3514 63.9222C81.8581 64.6289 81.6114 65.6422 81.6114 66.9622C81.6114 68.2822 81.8514 69.2956 82.3314 70.0022C82.8247 70.6956 83.5381 71.0422 84.4714 71.0422C85.5514 71.0422 86.3381 70.7556 86.8314 70.1822C87.3247 69.5956 87.5714 68.6556 87.5714 67.3622V66.9422C87.5714 65.4756 87.3181 64.4289 86.8114 63.8022C86.3047 63.1622 85.5114 62.8422 84.4314 62.8422ZM96.8361 61.3622C97.7561 61.3622 98.5428 61.5622 99.1961 61.9622C99.8628 62.3622 100.369 62.9289 100.716 63.6622C101.076 64.3822 101.256 65.2289 101.256 66.2022V67.2622H93.9161C93.9428 68.4756 94.2494 69.4022 94.8361 70.0422C95.4361 70.6689 96.2694 70.9822 97.3361 70.9822C98.0161 70.9822 98.6161 70.9222 99.1361 70.8022C99.6694 70.6689 100.216 70.4822 100.776 70.2422V71.7822C100.229 72.0222 99.6894 72.1956 99.1561 72.3022C98.6228 72.4222 97.9894 72.4822 97.2561 72.4822C96.2428 72.4822 95.3428 72.2756 94.5561 71.8622C93.7828 71.4489 93.1761 70.8356 92.7361 70.0222C92.3094 69.1956 92.0961 68.1889 92.0961 67.0022C92.0961 65.8289 92.2894 64.8222 92.6761 63.9822C93.0761 63.1422 93.6294 62.4956 94.3361 62.0422C95.0561 61.5889 95.8894 61.3622 96.8361 61.3622ZM96.8161 62.8022C95.9761 62.8022 95.3094 63.0756 94.8161 63.6222C94.3361 64.1556 94.0494 64.9022 93.9561 65.8622H99.4161C99.4028 64.9556 99.1894 64.2222 98.7761 63.6622C98.3628 63.0889 97.7094 62.8022 96.8161 62.8022ZM108.985 61.3622C109.185 61.3622 109.398 61.3756 109.625 61.4022C109.865 61.4156 110.072 61.4422 110.245 61.4822L110.025 63.1022C109.852 63.0622 109.658 63.0289 109.445 63.0022C109.245 62.9756 109.052 62.9622 108.865 62.9622C108.318 62.9622 107.805 63.1156 107.325 63.4222C106.845 63.7156 106.458 64.1356 106.165 64.6822C105.885 65.2156 105.745 65.8422 105.745 66.5622V72.2822H103.985V61.5622H105.425L105.625 63.5222H105.705C106.052 62.9356 106.498 62.4289 107.045 62.0022C107.592 61.5756 108.238 61.3622 108.985 61.3622Z" fill="#2B4380"/>
<line y1="78.7822" x2="111" y2="78.7822" stroke="#2B4380"/>
<path fill-rule="evenodd" clip-rule="evenodd" d="M125 68.2822L120.293 63.5751L121.707 62.1608L125 65.4538V57.2822H127V65.4537L130.293 62.1608L131.707 63.5751L127 68.2821V68.2822H127L126 69.2822L125 68.2822Z" fill="#2B4380"/>
<path fill-rule="evenodd" clip-rule="evenodd" d="M118 67.2822V70.2822H134V67.2822H136V70.2822C136 71.3868 135.105 72.2822 134 72.2822H118C116.895 72.2822 116 71.3868 116 70.2822V67.2822H118Z" fill="#2B4380"/>
<defs>
<clipPath id="clip0_12142_2415">
<rect width="48" height="24" fill="white" transform="translate(114 48.2822) rotate(-90)"/>
</clipPath>
<clipPath id="clip1_12142_2415">
<rect x="114" y="24.2822" width="24" height="24" rx="12" transform="rotate(-90 114 24.2822)" fill="white"/>
</clipPath>
<clipPath id="clip2_12142_2415">
<rect width="48" height="24" fill="white" transform="translate(43 48.2822) rotate(-90)"/>
</clipPath>
<clipPath id="clip3_12142_2415">
<rect x="43" y="24.2822" width="24" height="24" rx="12" transform="rotate(-90 43 24.2822)" fill="white"/>
</clipPath>
</defs>
</svg>
