<?xml version="1.0" encoding="UTF-8"?>
<svg id="Layer_1" xmlns="http://www.w3.org/2000/svg" xmlns:xlink="http://www.w3.org/1999/xlink" version="1.1" width="438.5" height="208" viewBox="0 0 438.5 208">
  <!-- Generator: Adobe Illustrator 29.2.1, SVG Export Plug-In . SVG Version: 2.1.0 Build 116)  -->
  <defs>
    <style>
      .st0, .st1 {
        fill: none;
      }

      .st2 {
        fill: #2b4380;
      }

      .st3 {
        clip-path: url(#clippath-1);
      }

      .st4 {
        clip-path: url(#clippath-3);
      }

      .st5 {
        clip-path: url(#clippath-4);
      }

      .st6 {
        clip-path: url(#clippath-2);
      }

      .st7 {
        clip-path: url(#clippath-6);
      }

      .st8 {
        clip-path: url(#clippath-5);
      }

      .st9 {
        fill: #fff;
      }

      .st10 {
        fill: #c54600;
      }

      .st11 {
        fill: #333;
      }

      .st1 {
        stroke: #a8adb4;
        stroke-width: 6px;
      }

      .st12 {
        clip-path: url(#clippath);
      }
    </style>
    <clipPath id="clippath">
      <rect class="st0" x="60" y="84.5" width="18" height="16"/>
    </clipPath>
    <clipPath id="clippath-1">
      <rect class="st0" y="80.1" width="57" height="24"/>
    </clipPath>
    <clipPath id="clippath-2">
      <path class="st0" d="M12,80.1h0c6.6,0,12,5.4,12,12s-5.4,12-12,12S0,98.7,0,92.1s5.4-12,12-12Z"/>
    </clipPath>
    <clipPath id="clippath-3">
      <rect class="st0" y="141.5" width="48" height="24"/>
    </clipPath>
    <clipPath id="clippath-4">
      <path class="st0" d="M12,141.5h0c6.6,0,12,5.4,12,12s-5.4,12-12,12-12-5.4-12-12,5.4-12,12-12Z"/>
    </clipPath>
    <clipPath id="clippath-5">
      <rect class="st0" x="209" y="24.5" width="24" height="24"/>
    </clipPath>
    <clipPath id="clippath-6">
      <path class="st0" d="M221,24.3h0c6.6,0,12,5.4,12,12s-5.4,12-12,12-12-5.4-12-12,5.4-12,12-12Z"/>
    </clipPath>
  </defs>
  <g class="st12">
    <path class="st2" d="M69,100.5l-9-16h18l-9,16Z"/>
  </g>
  <path class="st2" d="M104.9,100.5l-1.7-4.4h-5.7l-1.7,4.4h-1.8l5.6-14.3h1.6l5.6,14.3h-1.9ZM101,90.2c0-.1-.1-.3-.2-.6,0-.3-.2-.6-.3-.9,0-.3-.1-.5-.2-.7,0,.4-.2.8-.3,1.2-.1.4-.2.7-.3.9l-1.6,4.3h4.5l-1.6-4.3ZM113.6,89.6c1.3,0,2.4.5,3.2,1.4.8.9,1.2,2.3,1.2,4.2s-.4,3.2-1.2,4.2c-.8.9-1.9,1.4-3.2,1.4s-1.5-.2-2.1-.5c-.5-.3-1-.7-1.3-1.1h-.1c0,.2,0,.5,0,.9,0,.3,0,.6,0,.9v4.4h-1.8v-15.5h1.4l.2,1.5h0c.3-.5.7-.9,1.3-1.2.5-.3,1.2-.5,2.1-.5ZM113.3,91.1c-1.1,0-1.9.3-2.3.9-.4.6-.7,1.5-.7,2.8v.3c0,1.3.2,2.3.6,3.1.4.7,1.2,1.1,2.4,1.1s1.2-.2,1.6-.5c.4-.4.7-.8.9-1.5.2-.6.3-1.3.3-2.1,0-1.2-.2-2.2-.7-2.9-.5-.7-1.2-1.1-2.2-1.1ZM125.9,89.6c1.3,0,2.4.5,3.2,1.4.8.9,1.2,2.3,1.2,4.2s-.4,3.2-1.2,4.2c-.8.9-1.9,1.4-3.2,1.4s-1.5-.2-2.1-.5c-.5-.3-1-.7-1.3-1.1h-.1c0,.2,0,.5,0,.9,0,.3,0,.6,0,.9v4.4h-1.8v-15.5h1.4l.2,1.5h0c.3-.5.7-.9,1.3-1.2.5-.3,1.2-.5,2.1-.5ZM125.6,91.1c-1.1,0-1.9.3-2.3.9-.4.6-.7,1.5-.7,2.8v.3c0,1.3.2,2.3.6,3.1.4.7,1.2,1.1,2.4,1.1s1.2-.2,1.6-.5c.4-.4.7-.8.9-1.5.2-.6.3-1.3.3-2.1,0-1.2-.2-2.2-.7-2.9-.5-.7-1.2-1.1-2.2-1.1ZM138.1,89.6c.2,0,.4,0,.6,0,.2,0,.4,0,.6,0l-.2,1.6c-.2,0-.4,0-.6,0-.2,0-.4,0-.6,0-.5,0-1.1.2-1.5.5-.5.3-.9.7-1.2,1.3-.3.5-.4,1.2-.4,1.9v5.7h-1.8v-10.7h1.4l.2,2h0c.3-.6.8-1.1,1.3-1.5.5-.4,1.2-.6,1.9-.6ZM145.1,89.6c.9,0,1.7.2,2.4.6.7.4,1.2,1,1.5,1.7.4.7.5,1.6.5,2.5v1.1h-7.3c0,1.2.3,2.1.9,2.8.6.6,1.4.9,2.5.9s1.3,0,1.8-.2c.5-.1,1.1-.3,1.6-.6v1.5c-.5.2-1.1.4-1.6.5-.5.1-1.2.2-1.9.2s-1.9-.2-2.7-.6c-.8-.4-1.4-1-1.8-1.8-.4-.8-.6-1.8-.6-3s.2-2.2.6-3c.4-.8,1-1.5,1.7-1.9.7-.5,1.6-.7,2.5-.7ZM145.1,91c-.8,0-1.5.3-2,.8-.5.5-.8,1.3-.9,2.2h5.5c0-.9-.2-1.6-.6-2.2-.4-.6-1.1-.9-2-.9ZM157.4,89.6c1.3,0,2.2.3,2.9.9.7.6,1,1.6,1,3v7h-1.7v-6.9c0-1.7-.8-2.6-2.4-2.6s-2,.3-2.5,1c-.5.7-.7,1.6-.7,2.9v5.6h-1.8v-10.7h1.4l.3,1.5h0c.3-.6.8-1,1.4-1.2.6-.3,1.3-.4,1.9-.4ZM168.7,89.6c.9,0,1.7.2,2.4.6.7.4,1.2,1,1.5,1.7.4.7.5,1.6.5,2.5v1.1h-7.3c0,1.2.3,2.1.9,2.8.6.6,1.4.9,2.5.9s1.3,0,1.8-.2c.5-.1,1.1-.3,1.6-.6v1.5c-.5.2-1.1.4-1.6.5-.5.1-1.2.2-1.9.2s-1.9-.2-2.7-.6c-.8-.4-1.4-1-1.8-1.8-.4-.8-.6-1.8-.6-3s.2-2.2.6-3c.4-.8,1-1.5,1.7-1.9.7-.5,1.6-.7,2.5-.7ZM168.7,91c-.8,0-1.5.3-2,.8-.5.5-.8,1.3-.9,2.2h5.5c0-.9-.2-1.6-.6-2.2-.4-.6-1.1-.9-2-.9ZM182.6,100.5h-7.8v-1.2l5.8-8.2h-5.4v-1.4h7.4v1.3l-5.7,8h5.8v1.4ZM184.2,95.9v-1.6h4.8v1.6h-4.8ZM195.7,89.6c.9,0,1.7.2,2.4.6.7.4,1.2,1,1.5,1.7.4.7.5,1.6.5,2.5v1.1h-7.3c0,1.2.3,2.1.9,2.8.6.6,1.4.9,2.5.9s1.3,0,1.8-.2c.5-.1,1.1-.3,1.6-.6v1.5c-.5.2-1.1.4-1.6.5-.5.1-1.2.2-1.9.2s-1.9-.2-2.7-.6c-.8-.4-1.4-1-1.8-1.8-.4-.8-.6-1.8-.6-3s.2-2.2.6-3c.4-.8,1-1.5,1.7-1.9.7-.5,1.6-.7,2.5-.7ZM195.7,91c-.8,0-1.5.3-2,.8-.5.5-.8,1.3-.9,2.2h5.5c0-.9-.2-1.6-.6-2.2-.4-.6-1.1-.9-2-.9ZM208,89.6c1.3,0,2.2.3,2.9.9.7.6,1,1.6,1,3v7h-1.7v-6.9c0-1.7-.8-2.6-2.4-2.6s-2,.3-2.5,1c-.5.7-.7,1.6-.7,2.9v5.6h-1.8v-10.7h1.4l.3,1.5h0c.3-.6.8-1,1.4-1.2.6-.3,1.3-.4,1.9-.4ZM225.5,89.6c1.3,0,2.4.5,3.2,1.4.8.9,1.2,2.3,1.2,4.2s-.4,3.2-1.2,4.2c-.8.9-1.9,1.4-3.2,1.4s-1.5-.2-2.1-.5c-.5-.3-1-.7-1.3-1.1h-.1c0,.2,0,.5,0,.9,0,.3,0,.6,0,.9v4.4h-1.8v-15.5h1.4l.2,1.5h0c.3-.5.7-.9,1.3-1.2.5-.3,1.2-.5,2.1-.5ZM225.2,91.1c-1.1,0-1.9.3-2.3.9-.4.6-.7,1.5-.7,2.8v.3c0,1.3.2,2.3.6,3.1.4.7,1.2,1.1,2.4,1.1s1.2-.2,1.6-.5c.4-.4.7-.8.9-1.5.2-.6.3-1.3.3-2.1,0-1.2-.2-2.2-.7-2.9-.5-.7-1.2-1.1-2.2-1.1ZM234.5,100.5h-1.8v-15.2h1.8v15.2ZM246.8,89.8v10.7h-1.4l-.3-1.4h0c-.3.6-.8,1-1.4,1.2-.6.3-1.3.4-2,.4-1.3,0-2.3-.3-2.9-.9-.7-.6-1-1.6-1-3v-7h1.8v6.9c0,1.7.8,2.6,2.4,2.6s2-.3,2.5-1c.5-.7.7-1.6.7-2.9v-5.6h1.8ZM257.2,97.5c0,1-.4,1.8-1.2,2.4-.8.5-1.8.8-3.1.8s-1.4,0-1.9-.2c-.5-.1-1-.3-1.4-.5v-1.6c.4.2.9.4,1.5.6.6.2,1.2.3,1.9.3.9,0,1.5-.1,1.9-.4.4-.3.6-.7.6-1.2s0-.5-.2-.7c-.1-.2-.4-.4-.8-.6-.4-.2-.9-.5-1.6-.7-.7-.3-1.3-.5-1.8-.8-.5-.3-.9-.6-1.1-1-.3-.4-.4-.9-.4-1.4,0-.9.4-1.6,1.1-2.1.7-.5,1.7-.7,2.9-.7s1.3,0,1.8.2c.6.1,1.1.3,1.6.5l-.6,1.4c-.5-.2-.9-.3-1.4-.5-.5-.1-1-.2-1.5-.2s-1.3.1-1.7.4c-.4.2-.6.5-.6.9s0,.5.3.8c.2.2.5.4.9.6.4.2,1,.4,1.6.7.7.3,1.3.5,1.7.8.5.3.8.6,1.1,1,.3.4.4.8.4,1.4ZM272,97.5c0,1-.4,1.8-1.2,2.4-.8.5-1.8.8-3.1.8s-1.4,0-1.9-.2c-.5-.1-1-.3-1.4-.5v-1.6c.4.2.9.4,1.5.6.6.2,1.2.3,1.9.3.9,0,1.5-.1,1.9-.4.4-.3.6-.7.6-1.2s0-.5-.2-.7c-.1-.2-.4-.4-.8-.6-.4-.2-.9-.5-1.6-.7-.7-.3-1.3-.5-1.8-.8-.5-.3-.9-.6-1.1-1-.3-.4-.4-.9-.4-1.4,0-.9.4-1.6,1.1-2.1.7-.5,1.7-.7,2.9-.7s1.3,0,1.8.2c.6.1,1.1.3,1.6.5l-.6,1.4c-.5-.2-.9-.3-1.4-.5-.5-.1-1-.2-1.5-.2s-1.3.1-1.7.4c-.4.2-.6.5-.6.9s0,.5.3.8c.2.2.5.4.9.6.4.2,1,.4,1.6.7.7.3,1.3.5,1.7.8.5.3.8.6,1.1,1,.3.4.4.8.4,1.4ZM283.5,89.8v10.7h-1.4l-.3-1.4h0c-.3.6-.8,1-1.4,1.2-.6.3-1.3.4-2,.4-1.3,0-2.3-.3-2.9-.9-.7-.6-1-1.6-1-3v-7h1.8v6.9c0,1.7.8,2.6,2.4,2.6s2-.3,2.5-1c.5-.7.7-1.6.7-2.9v-5.6h1.8ZM291.9,89.6c.2,0,.4,0,.6,0,.2,0,.4,0,.6,0l-.2,1.6c-.2,0-.4,0-.6,0-.2,0-.4,0-.6,0-.5,0-1.1.2-1.5.5-.5.3-.9.7-1.2,1.3-.3.5-.4,1.2-.4,1.9v5.7h-1.8v-10.7h1.4l.2,2h0c.3-.6.8-1.1,1.3-1.5.5-.4,1.2-.6,1.9-.6ZM304.7,100.7c-.9,0-1.8-.2-2.5-.6-.7-.4-1.3-1-1.7-1.8-.4-.8-.6-1.9-.6-3.1s.2-2.4.7-3.2c.4-.8,1-1.4,1.8-1.8.8-.4,1.6-.6,2.6-.6s1.1,0,1.6.2c.5.1.9.2,1.2.4l-.5,1.5c-.3-.1-.7-.2-1.1-.3-.4-.1-.8-.2-1.2-.2-2.1,0-3.2,1.4-3.2,4.1s.3,2.3.8,3c.5.7,1.3,1,2.3,1s1.1,0,1.5-.2c.5-.1.9-.3,1.2-.4v1.6c-.4.2-.8.3-1.2.4-.4.1-.9.2-1.6.2ZM314.1,89.6c.9,0,1.7.2,2.4.6.7.4,1.2,1,1.5,1.7.4.7.5,1.6.5,2.5v1.1h-7.3c0,1.2.3,2.1.9,2.8.6.6,1.4.9,2.5.9s1.3,0,1.8-.2c.5-.1,1.1-.3,1.6-.6v1.5c-.5.2-1.1.4-1.6.5-.5.1-1.2.2-1.9.2s-1.9-.2-2.7-.6c-.8-.4-1.4-1-1.8-1.8-.4-.8-.6-1.8-.6-3s.2-2.2.6-3c.4-.8,1-1.5,1.7-1.9.7-.5,1.6-.7,2.5-.7ZM314.1,91c-.8,0-1.5.3-2,.8-.5.5-.8,1.3-.9,2.2h5.5c0-.9-.2-1.6-.6-2.2-.4-.6-1.1-.9-2-.9ZM333.4,97.5c0,1-.4,1.8-1.2,2.4-.8.5-1.8.8-3.1.8s-1.4,0-1.9-.2c-.5-.1-1-.3-1.4-.5v-1.6c.4.2.9.4,1.5.6.6.2,1.2.3,1.9.3.9,0,1.5-.1,1.9-.4.4-.3.6-.7.6-1.2s0-.5-.2-.7c-.1-.2-.4-.4-.8-.6-.4-.2-.9-.5-1.6-.7-.7-.3-1.3-.5-1.8-.8-.5-.3-.9-.6-1.1-1-.3-.4-.4-.9-.4-1.4,0-.9.4-1.6,1.1-2.1.7-.5,1.7-.7,2.9-.7s1.3,0,1.8.2c.6.1,1.1.3,1.6.5l-.6,1.4c-.5-.2-.9-.3-1.4-.5-.5-.1-1-.2-1.5-.2s-1.3.1-1.7.4c-.4.2-.6.5-.6.9s0,.5.3.8c.2.2.5.4.9.6.4.2,1,.4,1.6.7.7.3,1.3.5,1.7.8.5.3.8.6,1.1,1,.3.4.4.8.4,1.4ZM345,89.8v10.7h-1.4l-.3-1.4h0c-.3.6-.8,1-1.4,1.2-.6.3-1.3.4-2,.4-1.3,0-2.3-.3-2.9-.9-.7-.6-1-1.6-1-3v-7h1.8v6.9c0,1.7.8,2.6,2.4,2.6s2-.3,2.5-1c.5-.7.7-1.6.7-2.9v-5.6h1.8ZM348.3,86.9c0-.4.1-.7.3-.8.2-.2.4-.3.7-.3s.5,0,.7.3c.2.2.3.5.3.8s-.1.7-.3.8c-.2.2-.4.3-.7.3s-.5,0-.7-.3c-.2-.2-.3-.5-.3-.8ZM347.1,105.3c-.3,0-.6,0-.9,0-.3,0-.5,0-.7-.2v-1.4c.2,0,.4,0,.6.1.2,0,.4,0,.7,0,.4,0,.8-.1,1.1-.4.3-.2.4-.7.4-1.3v-12.4h1.8v12.3c0,1-.2,1.8-.7,2.3-.5.6-1.2.9-2.3.9ZM357.7,89.6c.9,0,1.7.2,2.4.6.7.4,1.2,1,1.5,1.7.4.7.5,1.6.5,2.5v1.1h-7.3c0,1.2.3,2.1.9,2.8.6.6,1.4.9,2.5.9s1.3,0,1.8-.2c.5-.1,1.1-.3,1.6-.6v1.5c-.5.2-1.1.4-1.6.5-.5.1-1.2.2-1.9.2s-1.9-.2-2.7-.6c-.8-.4-1.4-1-1.8-1.8-.4-.8-.6-1.8-.6-3s.2-2.2.6-3c.4-.8,1-1.5,1.7-1.9.7-.5,1.6-.7,2.5-.7ZM357.7,91c-.8,0-1.5.3-2,.8-.5.5-.8,1.3-.9,2.2h5.5c0-.9-.2-1.6-.6-2.2-.4-.6-1.1-.9-2-.9ZM368.4,99.3c.3,0,.5,0,.8,0,.3,0,.5-.1.7-.2v1.3c-.2,0-.5.2-.8.2-.3,0-.7,0-1,0-.6,0-1.1,0-1.6-.3-.5-.2-.8-.5-1.1-1-.3-.5-.4-1.2-.4-2v-6.2h-1.5v-.8l1.5-.7.7-2.3h1v2.5h3.1v1.4h-3.1v6.2c0,.7.2,1.1.5,1.5.3.3.7.5,1.2.5Z"/>
  <path class="st2" d="M94,104.1h13.7v.8h-13.7v-.8ZM111,104.1h8.9v.8h-8.9v-.8ZM123.3,104.1h96.3v.8h-96.3v-.8ZM222.9,104.1h122.9v.8h-122.9v-.8ZM350.5,104.1h19.9v.8h-19.9v-.8Z"/>
  <path class="st11" d="M99.9,148.2c1.8,0,3.1.3,3.9,1,.9.7,1.3,1.7,1.3,3s-.1,1.4-.4,1.9c-.3.5-.6.9-1.1,1.2-.4.3-.9.5-1.4.7l3.9,6.4h-2.1l-3.5-5.9h-2.8v5.9h-1.8v-14.3h3.9ZM99.8,149.8h-2v5.3h2.1c1.2,0,2-.2,2.5-.7.5-.5.8-1.1.8-2s-.3-1.6-.8-2c-.6-.4-1.4-.6-2.6-.6ZM112.3,151.6c.9,0,1.7.2,2.4.6.7.4,1.2,1,1.5,1.7.4.7.5,1.6.5,2.5v1.1h-7.3c0,1.2.3,2.1.9,2.8.6.6,1.4.9,2.5.9s1.3,0,1.8-.2c.5-.1,1.1-.3,1.6-.6v1.5c-.5.2-1.1.4-1.6.5-.5.1-1.2.2-1.9.2s-1.9-.2-2.7-.6c-.8-.4-1.4-1-1.8-1.8-.4-.8-.6-1.8-.6-3s.2-2.2.6-3c.4-.8,1-1.5,1.7-1.9.7-.5,1.6-.7,2.5-.7ZM112.3,153c-.8,0-1.5.3-2,.8-.5.5-.8,1.3-.9,2.2h5.5c0-.9-.2-1.6-.6-2.2-.4-.6-1.1-.9-2-.9ZM124.6,151.6c1.3,0,2.2.3,2.9.9.7.6,1,1.6,1,3v7h-1.7v-6.9c0-1.7-.8-2.6-2.4-2.6s-2,.3-2.5,1c-.5.7-.7,1.6-.7,2.9v5.6h-1.8v-10.7h1.4l.3,1.5h0c.3-.6.8-1,1.4-1.2.6-.3,1.3-.4,1.9-.4ZM138.8,159.5c0,1-.4,1.8-1.2,2.4-.8.5-1.8.8-3.1.8s-1.4,0-1.9-.2c-.5-.1-1-.3-1.4-.5v-1.6c.4.2.9.4,1.5.6.6.2,1.2.3,1.9.3.9,0,1.5-.1,1.9-.4.4-.3.6-.7.6-1.2s0-.5-.2-.7c-.1-.2-.4-.4-.8-.6-.4-.2-.9-.5-1.6-.7-.7-.3-1.3-.5-1.8-.8-.5-.3-.9-.6-1.1-1-.3-.4-.4-.9-.4-1.4,0-.9.4-1.6,1.1-2.1.7-.5,1.7-.7,2.9-.7s1.3,0,1.8.2c.6.1,1.1.3,1.6.5l-.6,1.4c-.5-.2-.9-.3-1.4-.5-.5-.1-1-.2-1.5-.2s-1.3.1-1.7.4c-.4.2-.6.5-.6.9s0,.5.3.8c.2.2.5.4.9.6.4.2,1,.4,1.6.7.7.3,1.3.5,1.7.8.5.3.8.6,1.1,1,.3.4.4.8.4,1.4ZM145.5,151.6c.9,0,1.7.2,2.4.6.7.4,1.2,1,1.5,1.7.4.7.5,1.6.5,2.5v1.1h-7.3c0,1.2.3,2.1.9,2.8.6.6,1.4.9,2.5.9s1.3,0,1.8-.2c.5-.1,1.1-.3,1.6-.6v1.5c-.5.2-1.1.4-1.6.5-.5.1-1.2.2-1.9.2s-1.9-.2-2.7-.6c-.8-.4-1.4-1-1.8-1.8-.4-.8-.6-1.8-.6-3s.2-2.2.6-3c.4-.8,1-1.5,1.7-1.9.7-.5,1.6-.7,2.5-.7ZM145.5,153c-.8,0-1.5.3-2,.8-.5.5-.8,1.3-.9,2.2h5.5c0-.9-.2-1.6-.6-2.2-.4-.6-1.1-.9-2-.9ZM153.6,147.8c.3,0,.5,0,.7.3.2.2.3.5.3.8s-.1.7-.3.8c-.2.2-.4.3-.7.3s-.5,0-.7-.3-.3-.5-.3-.8.1-.7.3-.8c.2-.2.4-.3.7-.3ZM154.4,151.8v10.7h-1.8v-10.7h1.8ZM161.6,151.6c.7,0,1.3.1,1.9.4.6.3,1.1.7,1.5,1.2h.1l.2-1.4h1.4v10.9c0,1.5-.4,2.7-1.2,3.5-.8.8-2,1.2-3.6,1.2s-2.9-.2-3.9-.7v-1.6c1.1.6,2.4.8,4,.8s1.6-.3,2.2-.8c.5-.5.8-1.3.8-2.2v-.4c0-.2,0-.4,0-.7,0-.3,0-.5,0-.6h0c-.7,1.1-1.8,1.6-3.3,1.6s-2.5-.5-3.3-1.5c-.8-1-1.2-2.3-1.2-4.1s.4-3.1,1.2-4.1c.8-1,1.9-1.5,3.2-1.5ZM161.8,153.1c-.9,0-1.6.4-2.1,1.1-.5.7-.7,1.7-.7,3s.2,2.3.7,3c.5.7,1.2,1,2.1,1s1.9-.3,2.4-.9c.5-.6.7-1.5.7-2.8v-.4c0-1.5-.3-2.5-.8-3.1-.5-.6-1.3-1-2.4-1ZM175.3,151.6c1.3,0,2.2.3,2.9.9.7.6,1,1.6,1,3v7h-1.7v-6.9c0-1.7-.8-2.6-2.4-2.6s-2,.3-2.5,1c-.5.7-.7,1.6-.7,2.9v5.6h-1.8v-10.7h1.4l.3,1.5h0c.3-.6.8-1,1.4-1.2.6-.3,1.3-.4,1.9-.4ZM186.6,151.6c.9,0,1.7.2,2.4.6.7.4,1.2,1,1.5,1.7.4.7.5,1.6.5,2.5v1.1h-7.3c0,1.2.3,2.1.9,2.8.6.6,1.4.9,2.5.9s1.3,0,1.8-.2c.5-.1,1.1-.3,1.6-.6v1.5c-.5.2-1.1.4-1.6.5-.5.1-1.2.2-1.9.2s-1.9-.2-2.7-.6c-.8-.4-1.4-1-1.8-1.8-.4-.8-.6-1.8-.6-3s.2-2.2.6-3c.4-.8,1-1.5,1.7-1.9.7-.5,1.6-.7,2.5-.7ZM186.6,153c-.8,0-1.5.3-2,.8-.5.5-.8,1.3-.9,2.2h5.5c0-.9-.2-1.6-.6-2.2-.4-.6-1.1-.9-2-.9ZM205.5,151.6c1.2,0,2.1.3,2.7.9.6.6.9,1.6.9,3v7h-1.7v-6.9c0-1.7-.7-2.5-2.2-2.5s-1.8.3-2.2.9c-.4.6-.7,1.5-.7,2.6v5.9h-1.7v-6.9c0-1.7-.7-2.5-2.2-2.5s-1.8.3-2.2,1c-.4.7-.6,1.6-.6,2.9v5.6h-1.8v-10.7h1.4l.3,1.5h.1c.3-.6.8-1,1.3-1.2.6-.3,1.2-.4,1.8-.4,1.7,0,2.8.6,3.3,1.8h.1c.4-.6.8-1.1,1.5-1.4.6-.3,1.3-.4,2-.4ZM216.6,151.6c.9,0,1.7.2,2.4.6.7.4,1.2,1,1.5,1.7.4.7.5,1.6.5,2.5v1.1h-7.3c0,1.2.3,2.1.9,2.8.6.6,1.4.9,2.5.9s1.3,0,1.8-.2c.5-.1,1.1-.3,1.6-.6v1.5c-.5.2-1.1.4-1.6.5-.5.1-1.2.2-1.9.2s-1.9-.2-2.7-.6c-.8-.4-1.4-1-1.8-1.8-.4-.8-.6-1.8-.6-3s.2-2.2.6-3c.4-.8,1-1.5,1.7-1.9.7-.5,1.6-.7,2.5-.7ZM216.6,153c-.8,0-1.5.3-2,.8-.5.5-.8,1.3-.9,2.2h5.5c0-.9-.2-1.6-.6-2.2-.4-.6-1.1-.9-2-.9ZM228.9,151.6c1.3,0,2.2.3,2.9.9.7.6,1,1.6,1,3v7h-1.7v-6.9c0-1.7-.8-2.6-2.4-2.6s-2,.3-2.5,1c-.5.7-.7,1.6-.7,2.9v5.6h-1.8v-10.7h1.4l.3,1.5h0c.3-.6.8-1,1.4-1.2.6-.3,1.3-.4,1.9-.4ZM239.7,161.3c.3,0,.5,0,.8,0,.3,0,.5-.1.7-.2v1.3c-.2,0-.5.2-.8.2-.3,0-.7,0-1,0-.6,0-1.1,0-1.6-.3-.5-.2-.8-.5-1.1-1-.3-.5-.4-1.2-.4-2v-6.2h-1.5v-.8l1.5-.7.7-2.3h1v2.5h3.1v1.4h-3.1v6.2c0,.7.2,1.1.5,1.5.3.3.7.5,1.2.5ZM250.3,159.5c0,1-.4,1.8-1.2,2.4-.8.5-1.8.8-3.1.8s-1.4,0-1.9-.2c-.5-.1-1-.3-1.4-.5v-1.6c.4.2.9.4,1.5.6.6.2,1.2.3,1.9.3.9,0,1.5-.1,1.9-.4.4-.3.6-.7.6-1.2s0-.5-.2-.7c-.1-.2-.4-.4-.8-.6-.4-.2-.9-.5-1.6-.7-.7-.3-1.3-.5-1.8-.8-.5-.3-.9-.6-1.1-1-.3-.4-.4-.9-.4-1.4,0-.9.4-1.6,1.1-2.1.7-.5,1.7-.7,2.9-.7s1.3,0,1.8.2c.6.1,1.1.3,1.6.5l-.6,1.4c-.5-.2-.9-.3-1.4-.5-.5-.1-1-.2-1.5-.2s-1.3.1-1.7.4c-.4.2-.6.5-.6.9s0,.5.3.8c.2.2.5.4.9.6.4.2,1,.4,1.6.7.7.3,1.3.5,1.7.8.5.3.8.6,1.1,1,.3.4.4.8.4,1.4ZM265.1,159.5c0,1-.4,1.8-1.2,2.4-.8.5-1.8.8-3.1.8s-1.4,0-1.9-.2c-.5-.1-1-.3-1.4-.5v-1.6c.4.2.9.4,1.5.6.6.2,1.2.3,1.9.3.9,0,1.5-.1,1.9-.4.4-.3.6-.7.6-1.2s0-.5-.2-.7c-.1-.2-.4-.4-.8-.6-.4-.2-.9-.5-1.6-.7-.7-.3-1.3-.5-1.8-.8-.5-.3-.9-.6-1.1-1-.3-.4-.4-.9-.4-1.4,0-.9.4-1.6,1.1-2.1.7-.5,1.7-.7,2.9-.7s1.3,0,1.8.2c.6.1,1.1.3,1.6.5l-.6,1.4c-.5-.2-.9-.3-1.4-.5-.5-.1-1-.2-1.5-.2s-1.3.1-1.7.4c-.4.2-.6.5-.6.9s0,.5.3.8c.2.2.5.4.9.6.4.2,1,.4,1.6.7.7.3,1.3.5,1.7.8.5.3.8.6,1.1,1,.3.4.4.8.4,1.4ZM276.6,151.8v10.7h-1.4l-.3-1.4h0c-.3.6-.8,1-1.4,1.2-.6.3-1.3.4-2,.4-1.3,0-2.3-.3-2.9-.9-.7-.6-1-1.6-1-3v-7h1.8v6.9c0,1.7.8,2.6,2.4,2.6s2-.3,2.5-1c.5-.7.7-1.6.7-2.9v-5.6h1.8ZM285.1,151.6c1.3,0,2.4.5,3.2,1.4.8.9,1.2,2.3,1.2,4.2s-.4,3.2-1.2,4.2c-.8.9-1.9,1.4-3.2,1.4s-1.5-.2-2.1-.5c-.5-.3-1-.7-1.3-1.1h-.1c0,.2,0,.5,0,.9,0,.3,0,.6,0,.9v4.4h-1.8v-15.5h1.4l.2,1.5h0c.3-.5.7-.9,1.3-1.2.5-.3,1.2-.5,2.1-.5ZM284.8,153.1c-1.1,0-1.9.3-2.3.9-.4.6-.7,1.5-.7,2.8v.3c0,1.3.2,2.3.6,3.1.4.7,1.2,1.1,2.4,1.1s1.2-.2,1.6-.5c.4-.4.7-.8.9-1.5.2-.6.3-1.3.3-2.1,0-1.2-.2-2.2-.7-2.9-.5-.7-1.2-1.1-2.2-1.1ZM297.4,151.6c1.3,0,2.4.5,3.2,1.4.8.9,1.2,2.3,1.2,4.2s-.4,3.2-1.2,4.2c-.8.9-1.9,1.4-3.2,1.4s-1.5-.2-2.1-.5c-.5-.3-1-.7-1.3-1.1h-.1c0,.2,0,.5,0,.9,0,.3,0,.6,0,.9v4.4h-1.8v-15.5h1.4l.2,1.5h0c.3-.5.7-.9,1.3-1.2.5-.3,1.2-.5,2.1-.5ZM297.1,153.1c-1.1,0-1.9.3-2.3.9-.4.6-.7,1.5-.7,2.8v.3c0,1.3.2,2.3.6,3.1.4.7,1.2,1.1,2.4,1.1s1.2-.2,1.6-.5c.4-.4.7-.8.9-1.5.2-.6.3-1.3.3-2.1,0-1.2-.2-2.2-.7-2.9-.5-.7-1.2-1.1-2.2-1.1ZM306.4,162.5h-1.8v-15.2h1.8v15.2ZM313.9,151.6c.9,0,1.7.2,2.4.6.7.4,1.2,1,1.5,1.7.4.7.5,1.6.5,2.5v1.1h-7.3c0,1.2.3,2.1.9,2.8.6.6,1.4.9,2.5.9s1.3,0,1.8-.2c.5-.1,1.1-.3,1.6-.6v1.5c-.5.2-1.1.4-1.6.5-.5.1-1.2.2-1.9.2s-1.9-.2-2.7-.6c-.8-.4-1.4-1-1.8-1.8-.4-.8-.6-1.8-.6-3s.2-2.2.6-3c.4-.8,1-1.5,1.7-1.9.7-.5,1.6-.7,2.5-.7ZM313.9,153c-.8,0-1.5.3-2,.8-.5.5-.8,1.3-.9,2.2h5.5c0-.9-.2-1.6-.6-2.2-.4-.6-1.1-.9-2-.9ZM316.8,147.4c-.2.2-.4.6-.7.9-.3.4-.7.8-1.1,1.1-.4.4-.7.7-1,.9h-1.2v-.2c.2-.3.4-.6.6-.9.2-.3.5-.7.7-1.1.2-.4.4-.7.6-1h2.1v.2ZM332.9,151.6c1.2,0,2.1.3,2.7.9.6.6.9,1.6.9,3v7h-1.7v-6.9c0-1.7-.7-2.5-2.2-2.5s-1.8.3-2.2.9c-.4.6-.7,1.5-.7,2.6v5.9h-1.7v-6.9c0-1.7-.7-2.5-2.2-2.5s-1.8.3-2.2,1c-.4.7-.6,1.6-.6,2.9v5.6h-1.8v-10.7h1.4l.3,1.5h.1c.3-.6.8-1,1.3-1.2.6-.3,1.2-.4,1.8-.4,1.7,0,2.8.6,3.3,1.8h.1c.4-.6.8-1.1,1.5-1.4.6-.3,1.3-.4,2-.4ZM343.9,151.6c.9,0,1.7.2,2.4.6.7.4,1.2,1,1.5,1.7.4.7.5,1.6.5,2.5v1.1h-7.3c0,1.2.3,2.1.9,2.8.6.6,1.4.9,2.5.9s1.3,0,1.8-.2c.5-.1,1.1-.3,1.6-.6v1.5c-.5.2-1.1.4-1.6.5-.5.1-1.2.2-1.9.2s-1.9-.2-2.7-.6c-.8-.4-1.4-1-1.8-1.8-.4-.8-.6-1.8-.6-3s.2-2.2.6-3c.4-.8,1-1.5,1.7-1.9.7-.5,1.6-.7,2.5-.7ZM343.9,153c-.8,0-1.5.3-2,.8-.5.5-.8,1.3-.9,2.2h5.5c0-.9-.2-1.6-.6-2.2-.4-.6-1.1-.9-2-.9ZM356.2,151.6c1.3,0,2.2.3,2.9.9.7.6,1,1.6,1,3v7h-1.7v-6.9c0-1.7-.8-2.6-2.4-2.6s-2,.3-2.5,1c-.5.7-.7,1.6-.7,2.9v5.6h-1.8v-10.7h1.4l.3,1.5h.1c.3-.6.8-1,1.4-1.2.6-.3,1.3-.4,1.9-.4ZM367,161.3c.3,0,.5,0,.8,0,.3,0,.5-.1.7-.2v1.3c-.2,0-.5.2-.8.2-.3,0-.7,0-1,0-.6,0-1.1,0-1.6-.3-.5-.2-.8-.5-1.1-1-.3-.5-.4-1.2-.4-2v-6.2h-1.5v-.8l1.5-.7.7-2.3h1v2.5h3.1v1.4h-3.1v6.2c0,.7.2,1.1.5,1.5.3.3.7.5,1.2.5ZM374.7,151.6c1.3,0,2.3.3,2.9.9.6.6.9,1.5.9,2.7v7.3h-1.3l-.3-1.5h0c-.5.6-1,1-1.5,1.3-.5.3-1.2.4-2.1.4s-1.8-.3-2.4-.8c-.6-.5-1-1.3-1-2.4s.4-1.9,1.3-2.5c.8-.6,2.1-.9,3.9-1h1.8v-.7c0-.9-.2-1.5-.6-1.9-.4-.3-.9-.5-1.6-.5s-1.1,0-1.6.3c-.5.2-1,.3-1.4.6l-.5-1.3c.5-.3,1-.5,1.7-.6.6-.2,1.3-.3,2-.3ZM375.2,157.3c-1.3,0-2.3.3-2.8.6-.5.4-.8.9-.8,1.6s.2,1,.5,1.3c.4.3.8.4,1.4.4.9,0,1.7-.2,2.3-.7.6-.5.9-1.3.9-2.3v-1h-1.6ZM382.8,147.8c.3,0,.5,0,.7.3.2.2.3.5.3.8s-.1.7-.3.8c-.2.2-.4.3-.7.3s-.5,0-.7-.3c-.2-.2-.3-.5-.3-.8s.1-.7.3-.8c.2-.2.4-.3.7-.3ZM383.6,151.8v10.7h-1.8v-10.7h1.8ZM392,151.6c.2,0,.4,0,.6,0,.2,0,.4,0,.6,0l-.2,1.6c-.2,0-.4,0-.6-.1-.2,0-.4,0-.6,0-.5,0-1.1.2-1.5.5-.5.3-.9.7-1.2,1.3-.3.5-.4,1.2-.4,1.9v5.7h-1.8v-10.7h1.4l.2,2h0c.3-.6.8-1.1,1.3-1.5.5-.4,1.2-.6,1.9-.6ZM399,151.6c.9,0,1.7.2,2.4.6.7.4,1.2,1,1.5,1.7.4.7.5,1.6.5,2.5v1.1h-7.3c0,1.2.3,2.1.9,2.8.6.6,1.4.9,2.5.9s1.3,0,1.8-.2c.5-.1,1.1-.3,1.6-.6v1.5c-.5.2-1.1.4-1.6.5-.5.1-1.2.2-1.9.2s-1.9-.2-2.7-.6c-.8-.4-1.4-1-1.8-1.8-.4-.8-.6-1.8-.6-3s.2-2.2.6-3c.4-.8,1-1.5,1.7-1.9.7-.5,1.6-.7,2.5-.7ZM399,153c-.8,0-1.5.3-2,.8-.5.5-.8,1.3-.9,2.2h5.5c0-.9-.2-1.6-.6-2.2-.4-.6-1.1-.9-2-.9ZM413.2,159.5c0,1-.4,1.8-1.2,2.4-.8.5-1.8.8-3.1.8s-1.4,0-1.9-.2c-.5-.1-1-.3-1.4-.5v-1.6c.4.2.9.4,1.5.6.6.2,1.2.3,1.9.3.9,0,1.5-.1,1.9-.4.4-.3.6-.7.6-1.2s0-.5-.2-.7c-.1-.2-.4-.4-.8-.6-.4-.2-.9-.5-1.6-.7-.7-.3-1.3-.5-1.8-.8-.5-.3-.9-.6-1.1-1-.3-.4-.4-.9-.4-1.4,0-.9.4-1.6,1.1-2.1.7-.5,1.7-.7,2.9-.7s1.3,0,1.8.2c.6.1,1.1.3,1.6.5l-.6,1.4c-.5-.2-.9-.3-1.4-.5-.5-.1-1-.2-1.5-.2s-1.3.1-1.7.4c-.4.2-.6.5-.6.9s0,.5.3.8c.2.2.5.4.9.6.4.2,1,.4,1.6.7.7.3,1.3.5,1.7.8.5.3.8.6,1.1,1,.3.4.4.8.4,1.4Z"/>
  <g class="st3">
    <g>
      <rect class="st10" y="92.1" width="57" height="1"/>
      <g class="st6">
        <g>
          <path class="st10" d="M12,80.1h0c6.6,0,12,5.4,12,12h0c0,6.6-5.4,12-12,12h0c-6.6,0-12-5.4-12-12h0c0-6.6,5.4-12,12-12Z"/>
          <path class="st9" d="M9.3,96.1v-.8l2.9-3.2c.3-.4.6-.7.8-1,.2-.3.4-.5.5-.8.1-.2.2-.5.2-.8s0-.6-.2-.8c-.1-.2-.3-.4-.6-.5-.3-.1-.5-.2-.9-.2s-.6,0-.9.2c-.2.1-.4.3-.6.6-.1.2-.2.5-.2.9h-1c0-.5.1-1,.4-1.3.2-.4.6-.7,1-.9.4-.2.9-.3,1.4-.3s1,.1,1.4.3c.4.2.7.5.9.9.2.4.3.8.3,1.2s0,.6-.2.9c-.1.3-.3.6-.6,1-.3.4-.7.8-1.2,1.4l-2,2.1h0c0,0,4.1,0,4.1,0v.9h-5.5Z"/>
        </g>
      </g>
    </g>
  </g>
  <g class="st4">
    <g>
      <rect class="st10" y="153.5" width="48" height="1"/>
      <g class="st5">
        <g>
          <path class="st10" d="M12,141.5h0c6.6,0,12,5.4,12,12h0c0,6.6-5.4,12-12,12h0c-6.6,0-12-5.4-12-12h0c0-6.6,5.4-12,12-12Z"/>
          <path class="st9" d="M12,157.6c-.6,0-1.1,0-1.5-.3-.4-.2-.8-.5-1-.8-.3-.3-.4-.7-.4-1.2h1.1c0,.3.1.5.3.7.2.2.4.4.7.5.3.1.6.2.9.2s.7,0,1-.2c.3-.1.5-.3.7-.5s.2-.5.2-.8,0-.6-.2-.8c-.2-.2-.4-.4-.7-.6-.3-.1-.7-.2-1.1-.2h-.7v-.9h.7c.3,0,.7,0,.9-.2.3-.1.5-.3.6-.5.2-.2.2-.5.2-.8s0-.6-.2-.8c-.1-.2-.3-.4-.6-.5-.2-.1-.5-.2-.8-.2s-.6,0-.9.2c-.3.1-.5.3-.6.5-.2.2-.3.5-.3.7h-1c0-.5.2-.9.4-1.2.3-.3.6-.6,1-.8.4-.2.9-.3,1.4-.3s1,.1,1.4.3c.4.2.7.5.9.9.2.4.3.7.3,1.2s-.1.9-.4,1.3c-.3.3-.6.6-1,.7h0c.6.2,1,.4,1.3.8.3.4.5.8.5,1.4s-.1.9-.4,1.3c-.3.4-.6.7-1,.9-.4.2-.9.3-1.5.3Z"/>
        </g>
      </g>
    </g>
  </g>
  <g class="st8">
    <g class="st7">
      <g>
        <path class="st10" d="M221,24.3h0c6.6,0,12,5.4,12,12h0c0,6.6-5.4,12-12,12h0c-6.6,0-12-5.4-12-12h0c0-6.6,5.4-12,12-12Z"/>
        <path class="st9" d="M222.2,31.6v8.7h-1.1v-7.6h0l-2.1,1.4v-1.1l2.2-1.4h1.1Z"/>
      </g>
    </g>
  </g>
  <rect class="st10" x="221" y="40" width="1" height="31"/>
  <path class="st1" d="M69,126v54.5"/>
</svg>