<svg width="121" height="80" viewBox="0 0 121 80" fill="none" xmlns="http://www.w3.org/2000/svg">
<rect x="47" width="1" height="44" fill="#C54600"/>
<g clip-path="url(#clip0_6835_24207)">
<rect x="35" width="24" height="24" rx="12" fill="#C54600"/>
<path d="M48.8302 6.81818V17H46.6775V8.86151H46.6178L44.2861 10.3232V8.41406L46.8067 6.81818H48.8302Z" fill="white"/>
</g>
<rect x="99" width="1" height="44" fill="#C54600"/>
<g clip-path="url(#clip1_6835_24207)">
<rect x="87" width="24" height="24" rx="12" fill="#C54600"/>
<path d="M95.4161 17V15.4489L99.0404 12.093C99.3486 11.7947 99.6072 11.5263 99.816 11.2876C100.028 11.049 100.189 10.8153 100.298 10.5866C100.408 10.3546 100.462 10.1044 100.462 9.83594C100.462 9.53764 100.394 9.28078 100.258 9.06534C100.123 8.84659 99.9369 8.67921 99.7016 8.56321C99.4663 8.44389 99.1995 8.38423 98.9012 8.38423C98.5896 8.38423 98.3179 8.44721 98.0858 8.57315C97.8538 8.6991 97.6749 8.87973 97.5489 9.11506C97.423 9.35038 97.36 9.63044 97.36 9.95526H95.3167C95.3167 9.28906 95.4675 8.7107 95.7691 8.22017C96.0707 7.72964 96.4933 7.35014 97.0368 7.08168C97.5804 6.81321 98.2068 6.67898 98.9161 6.67898C99.6453 6.67898 100.28 6.80824 100.82 7.06676C101.364 7.32197 101.786 7.67661 102.088 8.13068C102.39 8.58475 102.54 9.10511 102.54 9.69176C102.54 10.0762 102.464 10.4557 102.312 10.8303C102.163 11.2048 101.896 11.6207 101.511 12.0781C101.127 12.5322 100.585 13.0774 99.8856 13.7138L98.3991 15.1705V15.2401H102.675V17H95.4161Z" fill="white"/>
</g>
<path d="M23.1457 60.0223C23.1457 61.289 22.6857 62.2823 21.7657 63.0023C20.8457 63.7223 19.5857 64.0823 17.9857 64.0823C17.199 64.0823 16.4657 64.0157 15.7857 63.8823C15.1057 63.7623 14.5257 63.5823 14.0457 63.3423V61.3023C14.579 61.5423 15.2057 61.7623 15.9257 61.9623C16.6457 62.149 17.379 62.2423 18.1257 62.2423C19.0857 62.2423 19.8057 62.0557 20.2857 61.6823C20.7657 61.309 21.0057 60.809 21.0057 60.1823C21.0057 59.7423 20.899 59.3757 20.6857 59.0823C20.4723 58.7757 20.1257 58.4957 19.6457 58.2423C19.179 57.9757 18.5657 57.6957 17.8057 57.4023C17.1123 57.1357 16.4923 56.8223 15.9457 56.4623C15.399 56.1023 14.9723 55.6557 14.6657 55.1223C14.359 54.589 14.2057 53.9357 14.2057 53.1623C14.2057 51.989 14.6323 51.069 15.4857 50.4023C16.339 49.7357 17.459 49.4023 18.8457 49.4023C19.619 49.4023 20.3323 49.4823 20.9857 49.6423C21.6523 49.8023 22.2857 50.009 22.8857 50.2623L22.2057 52.0423C21.659 51.8157 21.099 51.629 20.5257 51.4823C19.9657 51.3357 19.3857 51.2623 18.7857 51.2623C17.999 51.2623 17.399 51.4357 16.9857 51.7823C16.5723 52.129 16.3657 52.5823 16.3657 53.1423C16.3657 53.5823 16.4657 53.9557 16.6657 54.2623C16.8657 54.5557 17.1857 54.829 17.6257 55.0823C18.0657 55.3223 18.6457 55.5823 19.3657 55.8623C20.1657 56.1823 20.8457 56.5223 21.4057 56.8823C21.979 57.229 22.4123 57.6557 22.7057 58.1623C22.999 58.6557 23.1457 59.2757 23.1457 60.0223ZM34.9817 53.1023V63.8823H33.2817L32.9817 62.4623H32.8817C32.5351 63.0223 32.0551 63.4357 31.4417 63.7023C30.8284 63.9557 30.1817 64.0823 29.5017 64.0823C28.2351 64.0823 27.2684 63.7757 26.6017 63.1623C25.9351 62.5357 25.6017 61.5357 25.6017 60.1623V53.1023H27.7417V59.8423C27.7417 60.6823 27.9151 61.309 28.2617 61.7223C28.6217 62.1357 29.1751 62.3423 29.9217 62.3423C31.0284 62.3423 31.7951 62.0223 32.2217 61.3823C32.6484 60.729 32.8617 59.789 32.8617 58.5623V53.1023H34.9817ZM39.3794 49.0023C39.6994 49.0023 39.9794 49.0957 40.2194 49.2823C40.4594 49.469 40.5794 49.7823 40.5794 50.2223C40.5794 50.649 40.4594 50.9623 40.2194 51.1623C39.9794 51.349 39.6994 51.4423 39.3794 51.4423C39.0461 51.4423 38.7594 51.349 38.5194 51.1623C38.2794 50.9623 38.1594 50.649 38.1594 50.2223C38.1594 49.7823 38.2794 49.469 38.5194 49.2823C38.7594 49.0957 39.0461 49.0023 39.3794 49.0023ZM40.4194 53.1023V63.8823H38.2994V53.1023H40.4194ZM46.1686 63.8823L42.0886 53.1023H44.3286L46.5686 59.4023C46.702 59.829 46.842 60.2957 46.9886 60.8023C47.1353 61.309 47.2353 61.729 47.2886 62.0623H47.3686C47.422 61.729 47.5286 61.309 47.6886 60.8023C47.8486 60.2823 47.9953 59.8157 48.1286 59.4023L50.3686 53.1023H52.6086L48.5086 63.8823H46.1686ZM58.456 52.9023C59.8026 52.9023 60.8093 53.2023 61.476 53.8023C62.156 54.389 62.496 55.3157 62.496 56.5823V63.8823H60.996L60.576 62.3823H60.496C60.0293 62.969 59.536 63.4023 59.016 63.6823C58.5093 63.949 57.8026 64.0823 56.896 64.0823C55.9226 64.0823 55.116 63.8223 54.476 63.3023C53.836 62.769 53.516 61.9423 53.516 60.8223C53.516 59.7157 53.9293 58.8823 54.756 58.3223C55.596 57.749 56.8693 57.4357 58.576 57.3823L60.416 57.3223V56.7223C60.416 55.9357 60.236 55.3823 59.876 55.0623C59.516 54.729 59.0093 54.5623 58.356 54.5623C57.8093 54.5623 57.2826 54.6423 56.776 54.8023C56.2693 54.9623 55.7826 55.1557 55.316 55.3823L54.636 53.8423C55.1426 53.5757 55.7226 53.3557 56.376 53.1823C57.0426 52.9957 57.736 52.9023 58.456 52.9023ZM60.396 58.7023L58.956 58.7423C57.7293 58.7957 56.876 59.0023 56.396 59.3623C55.9293 59.7223 55.696 60.2157 55.696 60.8423C55.696 61.4023 55.8626 61.809 56.196 62.0623C56.5293 62.3157 56.9626 62.4423 57.496 62.4423C58.3226 62.4423 59.0093 62.209 59.556 61.7423C60.116 61.2757 60.396 60.5757 60.396 59.6423V58.7023ZM71.2203 52.9023C72.4737 52.9023 73.4337 53.2157 74.1003 53.8423C74.767 54.469 75.1003 55.4757 75.1003 56.8623V63.8823H73.0003V57.1623C73.0003 55.4823 72.2603 54.6423 70.7803 54.6423C69.687 54.6423 68.927 54.969 68.5003 55.6223C68.087 56.2757 67.8803 57.2157 67.8803 58.4423V63.8823H65.7603V53.1023H67.4403L67.7403 54.5423H67.8603C68.207 53.9823 68.6803 53.569 69.2803 53.3023C69.8937 53.0357 70.5403 52.9023 71.2203 52.9023ZM82.238 62.3623C82.838 62.3623 83.378 62.2757 83.858 62.1023V63.7023C83.6313 63.809 83.3247 63.8957 82.938 63.9623C82.5513 64.0423 82.1647 64.0823 81.778 64.0823C81.1913 64.0823 80.6513 63.9823 80.158 63.7823C79.678 63.5823 79.2913 63.2357 78.998 62.7423C78.7047 62.249 78.558 61.5623 78.558 60.6823V54.7223H77.058V53.7623L78.638 52.9623L79.378 50.6823H80.678V53.1023H83.758V54.7223H80.678V60.6423C80.678 61.229 80.818 61.6623 81.098 61.9423C81.3913 62.2223 81.7713 62.3623 82.238 62.3623Z" fill="#284162"/>
<path d="M13.0457 66.3823H84.358V67.3823H13.0457V66.3823Z" fill="#284162"/>
<path d="M104.542 55.8822L97.7 62.7243L99.2789 64.3033L107.7 55.8822L99.2789 47.4612L97.7 49.0401L104.542 55.8822Z" fill="#284162"/>
<defs>
<clipPath id="clip0_6835_24207">
<rect x="35" width="24" height="24" rx="12" fill="white"/>
</clipPath>
<clipPath id="clip1_6835_24207">
<rect x="87" width="24" height="24" rx="12" fill="white"/>
</clipPath>
</defs>
</svg>
