<svg width="745" height="189" viewBox="0 0 745 189" fill="none" xmlns="http://www.w3.org/2000/svg">
<g id="element">
<g id="Details">
<g id="Details_2">
<g id=".Details Caret" clip-path="url(#clip0_9027_41792)">
<path id="Polygon 1" d="M191 114L183.206 100.5L198.794 100.5L191 114Z" fill="#26374A"/>
</g>
<g id="Link">
<path id="Learn more about this topic" d="M228.9 113L227.18 108.58H221.52L219.82 113H218L223.58 98.66H225.2L230.76 113H228.9ZM225.04 102.66C225 102.553 224.933 102.36 224.84 102.08C224.747 101.8 224.653 101.513 224.56 101.22C224.48 100.913 224.413 100.68 224.36 100.52C224.267 100.933 224.16 101.34 224.04 101.74C223.92 102.127 223.82 102.433 223.74 102.66L222.12 106.98H226.64L225.04 102.66ZM237.573 102.08C238.893 102.08 239.953 102.54 240.753 103.46C241.567 104.38 241.973 105.767 241.973 107.62C241.973 109.447 241.567 110.833 240.753 111.78C239.953 112.727 238.887 113.2 237.553 113.2C236.727 113.2 236.04 113.047 235.493 112.74C234.96 112.42 234.54 112.053 234.233 111.64H234.113C234.14 111.867 234.167 112.153 234.193 112.5C234.22 112.847 234.233 113.147 234.233 113.4V117.8H232.473V102.28H233.913L234.153 103.74H234.233C234.553 103.273 234.973 102.88 235.493 102.56C236.013 102.24 236.707 102.08 237.573 102.08ZM237.253 103.56C236.16 103.56 235.387 103.867 234.933 104.48C234.493 105.093 234.26 106.027 234.233 107.28V107.62C234.233 108.94 234.447 109.96 234.873 110.68C235.313 111.387 236.12 111.74 237.293 111.74C237.947 111.74 238.48 111.56 238.893 111.2C239.32 110.84 239.633 110.353 239.833 109.74C240.047 109.113 240.153 108.4 240.153 107.6C240.153 106.373 239.913 105.393 239.433 104.66C238.967 103.927 238.24 103.56 237.253 103.56ZM249.878 102.08C251.198 102.08 252.258 102.54 253.058 103.46C253.871 104.38 254.278 105.767 254.278 107.62C254.278 109.447 253.871 110.833 253.058 111.78C252.258 112.727 251.191 113.2 249.858 113.2C249.031 113.2 248.345 113.047 247.798 112.74C247.265 112.42 246.845 112.053 246.538 111.64H246.418C246.445 111.867 246.471 112.153 246.498 112.5C246.525 112.847 246.538 113.147 246.538 113.4V117.8H244.778V102.28H246.218L246.458 103.74H246.538C246.858 103.273 247.278 102.88 247.798 102.56C248.318 102.24 249.011 102.08 249.878 102.08ZM249.558 103.56C248.465 103.56 247.691 103.867 247.238 104.48C246.798 105.093 246.565 106.027 246.538 107.28V107.62C246.538 108.94 246.751 109.96 247.178 110.68C247.618 111.387 248.425 111.74 249.598 111.74C250.251 111.74 250.785 111.56 251.198 111.2C251.625 110.84 251.938 110.353 252.138 109.74C252.351 109.113 252.458 108.4 252.458 107.6C252.458 106.373 252.218 105.393 251.738 104.66C251.271 103.927 250.545 103.56 249.558 103.56ZM262.083 102.08C262.283 102.08 262.496 102.093 262.723 102.12C262.963 102.133 263.169 102.16 263.343 102.2L263.123 103.82C262.949 103.78 262.756 103.747 262.543 103.72C262.343 103.693 262.149 103.68 261.963 103.68C261.416 103.68 260.903 103.833 260.423 104.14C259.943 104.433 259.556 104.853 259.263 105.4C258.983 105.933 258.843 106.56 258.843 107.28V113H257.083V102.28H258.523L258.723 104.24H258.803C259.149 103.653 259.596 103.147 260.143 102.72C260.689 102.293 261.336 102.08 262.083 102.08ZM269.094 102.08C270.014 102.08 270.801 102.28 271.454 102.68C272.121 103.08 272.627 103.647 272.974 104.38C273.334 105.1 273.514 105.947 273.514 106.92V107.98H266.174C266.201 109.193 266.507 110.12 267.094 110.76C267.694 111.387 268.527 111.7 269.594 111.7C270.274 111.7 270.874 111.64 271.394 111.52C271.927 111.387 272.474 111.2 273.034 110.96V112.5C272.487 112.74 271.947 112.913 271.414 113.02C270.881 113.14 270.247 113.2 269.514 113.2C268.501 113.2 267.601 112.993 266.814 112.58C266.041 112.167 265.434 111.553 264.994 110.74C264.567 109.913 264.354 108.907 264.354 107.72C264.354 106.547 264.547 105.54 264.934 104.7C265.334 103.86 265.887 103.213 266.594 102.76C267.314 102.307 268.147 102.08 269.094 102.08ZM269.074 103.52C268.234 103.52 267.567 103.793 267.074 104.34C266.594 104.873 266.307 105.62 266.214 106.58H271.674C271.661 105.673 271.447 104.94 271.034 104.38C270.621 103.807 269.967 103.52 269.074 103.52ZM281.403 102.08C282.683 102.08 283.65 102.393 284.303 103.02C284.956 103.633 285.283 104.633 285.283 106.02V113H283.543V106.14C283.543 104.42 282.743 103.56 281.143 103.56C279.956 103.56 279.136 103.893 278.683 104.56C278.23 105.227 278.003 106.187 278.003 107.44V113H276.243V102.28H277.663L277.923 103.74H278.023C278.37 103.18 278.85 102.767 279.463 102.5C280.076 102.22 280.723 102.08 281.403 102.08ZM292.746 102.08C293.666 102.08 294.453 102.28 295.106 102.68C295.773 103.08 296.28 103.647 296.626 104.38C296.986 105.1 297.166 105.947 297.166 106.92V107.98H289.826C289.853 109.193 290.16 110.12 290.746 110.76C291.346 111.387 292.18 111.7 293.246 111.7C293.926 111.7 294.526 111.64 295.046 111.52C295.58 111.387 296.126 111.2 296.686 110.96V112.5C296.14 112.74 295.6 112.913 295.066 113.02C294.533 113.14 293.9 113.2 293.166 113.2C292.153 113.2 291.253 112.993 290.466 112.58C289.693 112.167 289.086 111.553 288.646 110.74C288.22 109.913 288.006 108.907 288.006 107.72C288.006 106.547 288.2 105.54 288.586 104.7C288.986 103.86 289.54 103.213 290.246 102.76C290.966 102.307 291.8 102.08 292.746 102.08ZM292.726 103.52C291.886 103.52 291.22 103.793 290.726 104.34C290.246 104.873 289.96 105.62 289.866 106.58H295.326C295.313 105.673 295.1 104.94 294.686 104.38C294.273 103.807 293.62 103.52 292.726 103.52ZM306.62 113H298.78V111.84L304.54 103.64H299.12V102.28H306.48V103.6L300.8 111.64H306.62V113ZM308.195 108.42V106.86H313.035V108.42H308.195ZM319.68 102.08C320.6 102.08 321.387 102.28 322.04 102.68C322.707 103.08 323.213 103.647 323.56 104.38C323.92 105.1 324.1 105.947 324.1 106.92V107.98H316.76C316.787 109.193 317.093 110.12 317.68 110.76C318.28 111.387 319.113 111.7 320.18 111.7C320.86 111.7 321.46 111.64 321.98 111.52C322.513 111.387 323.06 111.2 323.62 110.96V112.5C323.073 112.74 322.533 112.913 322 113.02C321.467 113.14 320.833 113.2 320.1 113.2C319.087 113.2 318.187 112.993 317.4 112.58C316.627 112.167 316.02 111.553 315.58 110.74C315.153 109.913 314.94 108.907 314.94 107.72C314.94 106.547 315.133 105.54 315.52 104.7C315.92 103.86 316.473 103.213 317.18 102.76C317.9 102.307 318.733 102.08 319.68 102.08ZM319.66 103.52C318.82 103.52 318.153 103.793 317.66 104.34C317.18 104.873 316.893 105.62 316.8 106.58H322.26C322.247 105.673 322.033 104.94 321.62 104.38C321.207 103.807 320.553 103.52 319.66 103.52ZM331.989 102.08C333.269 102.08 334.236 102.393 334.889 103.02C335.542 103.633 335.869 104.633 335.869 106.02V113H334.129V106.14C334.129 104.42 333.329 103.56 331.729 103.56C330.542 103.56 329.722 103.893 329.269 104.56C328.816 105.227 328.589 106.187 328.589 107.44V113H326.829V102.28H328.249L328.509 103.74H328.609C328.956 103.18 329.436 102.767 330.049 102.5C330.662 102.22 331.309 102.08 331.989 102.08ZM349.488 102.08C350.808 102.08 351.868 102.54 352.668 103.46C353.481 104.38 353.888 105.767 353.888 107.62C353.888 109.447 353.481 110.833 352.668 111.78C351.868 112.727 350.801 113.2 349.468 113.2C348.641 113.2 347.954 113.047 347.408 112.74C346.874 112.42 346.454 112.053 346.148 111.64H346.028C346.054 111.867 346.081 112.153 346.108 112.5C346.134 112.847 346.148 113.147 346.148 113.4V117.8H344.388V102.28H345.828L346.068 103.74H346.148C346.468 103.273 346.888 102.88 347.408 102.56C347.928 102.24 348.621 102.08 349.488 102.08ZM349.168 103.56C348.074 103.56 347.301 103.867 346.848 104.48C346.408 105.093 346.174 106.027 346.148 107.28V107.62C346.148 108.94 346.361 109.96 346.788 110.68C347.228 111.387 348.034 111.74 349.208 111.74C349.861 111.74 350.394 111.56 350.808 111.2C351.234 110.84 351.548 110.353 351.748 109.74C351.961 109.113 352.068 108.4 352.068 107.6C352.068 106.373 351.828 105.393 351.348 104.66C350.881 103.927 350.154 103.56 349.168 103.56ZM358.452 113H356.692V97.8H358.452V113ZM370.808 102.28V113H369.368L369.108 111.58H369.028C368.682 112.14 368.202 112.553 367.588 112.82C366.975 113.073 366.322 113.2 365.628 113.2C364.335 113.2 363.362 112.893 362.708 112.28C362.055 111.653 361.728 110.66 361.728 109.3V102.28H363.508V109.18C363.508 110.887 364.302 111.74 365.888 111.74C367.075 111.74 367.895 111.407 368.348 110.74C368.815 110.073 369.048 109.113 369.048 107.86V102.28H370.808ZM381.192 110.04C381.192 111.08 380.805 111.867 380.032 112.4C379.258 112.933 378.218 113.2 376.912 113.2C376.165 113.2 375.518 113.14 374.972 113.02C374.438 112.9 373.965 112.733 373.552 112.52V110.92C373.978 111.133 374.492 111.333 375.092 111.52C375.705 111.693 376.325 111.78 376.952 111.78C377.845 111.78 378.492 111.64 378.892 111.36C379.292 111.067 379.492 110.68 379.492 110.2C379.492 109.933 379.418 109.693 379.272 109.48C379.125 109.267 378.858 109.053 378.472 108.84C378.098 108.627 377.558 108.387 376.852 108.12C376.158 107.853 375.565 107.587 375.072 107.32C374.578 107.053 374.198 106.733 373.932 106.36C373.665 105.987 373.532 105.507 373.532 104.92C373.532 104.013 373.898 103.313 374.632 102.82C375.378 102.327 376.352 102.08 377.552 102.08C378.205 102.08 378.812 102.147 379.372 102.28C379.945 102.4 380.478 102.573 380.972 102.8L380.372 104.2C379.918 104.013 379.445 103.853 378.952 103.72C378.458 103.587 377.952 103.52 377.432 103.52C376.712 103.52 376.158 103.64 375.772 103.88C375.398 104.107 375.212 104.42 375.212 104.82C375.212 105.113 375.298 105.367 375.472 105.58C375.645 105.78 375.932 105.98 376.332 106.18C376.745 106.367 377.292 106.593 377.972 106.86C378.652 107.113 379.232 107.373 379.712 107.64C380.192 107.907 380.558 108.233 380.812 108.62C381.065 108.993 381.192 109.467 381.192 110.04ZM395.957 110.04C395.957 111.08 395.571 111.867 394.797 112.4C394.024 112.933 392.984 113.2 391.677 113.2C390.931 113.2 390.284 113.14 389.737 113.02C389.204 112.9 388.731 112.733 388.317 112.52V110.92C388.744 111.133 389.257 111.333 389.857 111.52C390.471 111.693 391.091 111.78 391.717 111.78C392.611 111.78 393.257 111.64 393.657 111.36C394.057 111.067 394.257 110.68 394.257 110.2C394.257 109.933 394.184 109.693 394.037 109.48C393.891 109.267 393.624 109.053 393.237 108.84C392.864 108.627 392.324 108.387 391.617 108.12C390.924 107.853 390.331 107.587 389.837 107.32C389.344 107.053 388.964 106.733 388.697 106.36C388.431 105.987 388.297 105.507 388.297 104.92C388.297 104.013 388.664 103.313 389.397 102.82C390.144 102.327 391.117 102.08 392.317 102.08C392.971 102.08 393.577 102.147 394.137 102.28C394.711 102.4 395.244 102.573 395.737 102.8L395.137 104.2C394.684 104.013 394.211 103.853 393.717 103.72C393.224 103.587 392.717 103.52 392.197 103.52C391.477 103.52 390.924 103.64 390.537 103.88C390.164 104.107 389.977 104.42 389.977 104.82C389.977 105.113 390.064 105.367 390.237 105.58C390.411 105.78 390.697 105.98 391.097 106.18C391.511 106.367 392.057 106.593 392.737 106.86C393.417 107.113 393.997 107.373 394.477 107.64C394.957 107.907 395.324 108.233 395.577 108.62C395.831 108.993 395.957 109.467 395.957 110.04ZM407.508 102.28V113H406.068L405.808 111.58H405.728C405.381 112.14 404.901 112.553 404.288 112.82C403.674 113.073 403.021 113.2 402.328 113.2C401.034 113.2 400.061 112.893 399.408 112.28C398.754 111.653 398.428 110.66 398.428 109.3V102.28H400.208V109.18C400.208 110.887 401.001 111.74 402.588 111.74C403.774 111.74 404.594 111.407 405.048 110.74C405.514 110.073 405.748 109.113 405.748 107.86V102.28H407.508ZM415.911 102.08C416.111 102.08 416.324 102.093 416.551 102.12C416.791 102.133 416.998 102.16 417.171 102.2L416.951 103.82C416.778 103.78 416.584 103.747 416.371 103.72C416.171 103.693 415.978 103.68 415.791 103.68C415.244 103.68 414.731 103.833 414.251 104.14C413.771 104.433 413.384 104.853 413.091 105.4C412.811 105.933 412.671 106.56 412.671 107.28V113H410.911V102.28H412.351L412.551 104.24H412.631C412.978 103.653 413.424 103.147 413.971 102.72C414.518 102.293 415.164 102.08 415.911 102.08ZM428.668 113.2C427.721 113.2 426.875 113.007 426.128 112.62C425.395 112.233 424.815 111.633 424.388 110.82C423.975 110.007 423.768 108.967 423.768 107.7C423.768 106.38 423.988 105.307 424.428 104.48C424.868 103.653 425.461 103.047 426.208 102.66C426.968 102.273 427.828 102.08 428.788 102.08C429.335 102.08 429.861 102.14 430.368 102.26C430.875 102.367 431.288 102.5 431.608 102.66L431.068 104.12C430.748 104 430.375 103.887 429.948 103.78C429.521 103.673 429.121 103.62 428.748 103.62C426.641 103.62 425.588 104.973 425.588 107.68C425.588 108.973 425.841 109.967 426.348 110.66C426.868 111.34 427.635 111.68 428.648 111.68C429.235 111.68 429.748 111.62 430.188 111.5C430.641 111.38 431.055 111.233 431.428 111.06V112.62C431.068 112.807 430.668 112.947 430.228 113.04C429.801 113.147 429.281 113.2 428.668 113.2ZM438.117 102.08C439.037 102.08 439.824 102.28 440.477 102.68C441.144 103.08 441.651 103.647 441.997 104.38C442.357 105.1 442.537 105.947 442.537 106.92V107.98H435.197C435.224 109.193 435.531 110.12 436.117 110.76C436.717 111.387 437.551 111.7 438.617 111.7C439.297 111.7 439.897 111.64 440.417 111.52C440.951 111.387 441.497 111.2 442.057 110.96V112.5C441.511 112.74 440.971 112.913 440.437 113.02C439.904 113.14 439.271 113.2 438.537 113.2C437.524 113.2 436.624 112.993 435.837 112.58C435.064 112.167 434.457 111.553 434.017 110.74C433.591 109.913 433.377 108.907 433.377 107.72C433.377 106.547 433.571 105.54 433.957 104.7C434.357 103.86 434.911 103.213 435.617 102.76C436.337 102.307 437.171 102.08 438.117 102.08ZM438.097 103.52C437.257 103.52 436.591 103.793 436.097 104.34C435.617 104.873 435.331 105.62 435.237 106.58H440.697C440.684 105.673 440.471 104.94 440.057 104.38C439.644 103.807 438.991 103.52 438.097 103.52ZM457.442 110.04C457.442 111.08 457.055 111.867 456.282 112.4C455.508 112.933 454.468 113.2 453.162 113.2C452.415 113.2 451.768 113.14 451.222 113.02C450.688 112.9 450.215 112.733 449.802 112.52V110.92C450.228 111.133 450.742 111.333 451.342 111.52C451.955 111.693 452.575 111.78 453.202 111.78C454.095 111.78 454.742 111.64 455.142 111.36C455.542 111.067 455.742 110.68 455.742 110.2C455.742 109.933 455.668 109.693 455.522 109.48C455.375 109.267 455.108 109.053 454.722 108.84C454.348 108.627 453.808 108.387 453.102 108.12C452.408 107.853 451.815 107.587 451.322 107.32C450.828 107.053 450.448 106.733 450.182 106.36C449.915 105.987 449.782 105.507 449.782 104.92C449.782 104.013 450.148 103.313 450.882 102.82C451.628 102.327 452.602 102.08 453.802 102.08C454.455 102.08 455.062 102.147 455.622 102.28C456.195 102.4 456.728 102.573 457.222 102.8L456.622 104.2C456.168 104.013 455.695 103.853 455.202 103.72C454.708 103.587 454.202 103.52 453.682 103.52C452.962 103.52 452.408 103.64 452.022 103.88C451.648 104.107 451.462 104.42 451.462 104.82C451.462 105.113 451.548 105.367 451.722 105.58C451.895 105.78 452.182 105.98 452.582 106.18C452.995 106.367 453.542 106.593 454.222 106.86C454.902 107.113 455.482 107.373 455.962 107.64C456.442 107.907 456.808 108.233 457.062 108.62C457.315 108.993 457.442 109.467 457.442 110.04ZM468.992 102.28V113H467.552L467.292 111.58H467.212C466.865 112.14 466.385 112.553 465.772 112.82C465.159 113.073 464.505 113.2 463.812 113.2C462.519 113.2 461.545 112.893 460.892 112.28C460.239 111.653 459.912 110.66 459.912 109.3V102.28H461.692V109.18C461.692 110.887 462.485 111.74 464.072 111.74C465.259 111.74 466.079 111.407 466.532 110.74C466.999 110.073 467.232 109.113 467.232 107.86V102.28H468.992ZM472.255 99.38C472.255 98.9933 472.355 98.7133 472.555 98.54C472.755 98.3533 473.002 98.26 473.295 98.26C473.562 98.26 473.795 98.3533 473.995 98.54C474.209 98.7133 474.315 98.9933 474.315 99.38C474.315 99.7533 474.209 100.033 473.995 100.22C473.795 100.407 473.562 100.5 473.295 100.5C473.002 100.5 472.755 100.407 472.555 100.22C472.355 100.033 472.255 99.7533 472.255 99.38ZM471.135 117.8C470.802 117.8 470.509 117.773 470.255 117.72C470.002 117.68 469.782 117.627 469.595 117.56V116.14C469.795 116.193 470.002 116.24 470.215 116.28C470.429 116.32 470.662 116.34 470.915 116.34C471.342 116.34 471.695 116.22 471.975 115.98C472.255 115.753 472.395 115.313 472.395 114.66V102.28H474.155V114.6C474.155 115.6 473.915 116.38 473.435 116.94C472.955 117.513 472.189 117.8 471.135 117.8ZM481.692 102.08C482.612 102.08 483.398 102.28 484.052 102.68C484.718 103.08 485.225 103.647 485.572 104.38C485.932 105.1 486.112 105.947 486.112 106.92V107.98H478.772C478.798 109.193 479.105 110.12 479.692 110.76C480.292 111.387 481.125 111.7 482.192 111.7C482.872 111.7 483.472 111.64 483.992 111.52C484.525 111.387 485.072 111.2 485.632 110.96V112.5C485.085 112.74 484.545 112.913 484.012 113.02C483.478 113.14 482.845 113.2 482.112 113.2C481.098 113.2 480.198 112.993 479.412 112.58C478.638 112.167 478.032 111.553 477.592 110.74C477.165 109.913 476.952 108.907 476.952 107.72C476.952 106.547 477.145 105.54 477.532 104.7C477.932 103.86 478.485 103.213 479.192 102.76C479.912 102.307 480.745 102.08 481.692 102.08ZM481.672 103.52C480.832 103.52 480.165 103.793 479.672 104.34C479.192 104.873 478.905 105.62 478.812 106.58H484.272C484.258 105.673 484.045 104.94 483.632 104.38C483.218 103.807 482.565 103.52 481.672 103.52ZM492.421 111.76C492.687 111.76 492.961 111.74 493.241 111.7C493.521 111.647 493.747 111.593 493.921 111.54V112.88C493.734 112.973 493.467 113.047 493.121 113.1C492.774 113.167 492.441 113.2 492.121 113.2C491.561 113.2 491.041 113.107 490.561 112.92C490.094 112.72 489.714 112.38 489.421 111.9C489.127 111.42 488.981 110.747 488.981 109.88V103.64H487.461V102.8L489.001 102.1L489.701 99.82H490.741V102.28H493.841V103.64H490.741V109.84C490.741 110.493 490.894 110.98 491.201 111.3C491.521 111.607 491.927 111.76 492.421 111.76Z" fill="#425A76"/>
<line id="Line 1" x1="218" y1="119.5" x2="495" y2="119.5" stroke="#425A76"/>
</g>
</g>
<g id="Frame 3">
<path id="Additional information" d="M223.88 150.72C225.653 150.72 226.96 151.06 227.8 151.74C228.653 152.407 229.08 153.42 229.08 154.78C229.08 155.54 228.94 156.173 228.66 156.68C228.38 157.187 228.02 157.593 227.58 157.9C227.153 158.193 226.7 158.427 226.22 158.6L230.14 165H228.04L224.58 159.1H221.74V165H219.94V150.72H223.88ZM223.78 152.28H221.74V157.58H223.88C225.04 157.58 225.887 157.353 226.42 156.9C226.953 156.433 227.22 155.753 227.22 154.86C227.22 153.927 226.94 153.267 226.38 152.88C225.82 152.48 224.953 152.28 223.78 152.28ZM236.281 154.08C237.201 154.08 237.988 154.28 238.641 154.68C239.308 155.08 239.815 155.647 240.161 156.38C240.521 157.1 240.701 157.947 240.701 158.92V159.98H233.361C233.388 161.193 233.695 162.12 234.281 162.76C234.881 163.387 235.715 163.7 236.781 163.7C237.461 163.7 238.061 163.64 238.581 163.52C239.115 163.387 239.661 163.2 240.221 162.96V164.5C239.675 164.74 239.135 164.913 238.601 165.02C238.068 165.14 237.435 165.2 236.701 165.2C235.688 165.2 234.788 164.993 234.001 164.58C233.228 164.167 232.621 163.553 232.181 162.74C231.755 161.913 231.541 160.907 231.541 159.72C231.541 158.547 231.735 157.54 232.121 156.7C232.521 155.86 233.075 155.213 233.781 154.76C234.501 154.307 235.335 154.08 236.281 154.08ZM236.261 155.52C235.421 155.52 234.755 155.793 234.261 156.34C233.781 156.873 233.495 157.62 233.401 158.58H238.861C238.848 157.673 238.635 156.94 238.221 156.38C237.808 155.807 237.155 155.52 236.261 155.52ZM248.59 154.08C249.87 154.08 250.837 154.393 251.49 155.02C252.144 155.633 252.47 156.633 252.47 158.02V165H250.73V158.14C250.73 156.42 249.93 155.56 248.33 155.56C247.144 155.56 246.324 155.893 245.87 156.56C245.417 157.227 245.19 158.187 245.19 159.44V165H243.43V154.28H244.85L245.11 155.74H245.21C245.557 155.18 246.037 154.767 246.65 154.5C247.264 154.22 247.91 154.08 248.59 154.08ZM262.774 162.04C262.774 163.08 262.387 163.867 261.614 164.4C260.84 164.933 259.8 165.2 258.494 165.2C257.747 165.2 257.1 165.14 256.554 165.02C256.02 164.9 255.547 164.733 255.134 164.52V162.92C255.56 163.133 256.074 163.333 256.674 163.52C257.287 163.693 257.907 163.78 258.534 163.78C259.427 163.78 260.074 163.64 260.474 163.36C260.874 163.067 261.074 162.68 261.074 162.2C261.074 161.933 261 161.693 260.854 161.48C260.707 161.267 260.44 161.053 260.054 160.84C259.68 160.627 259.14 160.387 258.434 160.12C257.74 159.853 257.147 159.587 256.654 159.32C256.16 159.053 255.78 158.733 255.514 158.36C255.247 157.987 255.114 157.507 255.114 156.92C255.114 156.013 255.48 155.313 256.214 154.82C256.96 154.327 257.934 154.08 259.134 154.08C259.787 154.08 260.394 154.147 260.954 154.28C261.527 154.4 262.06 154.573 262.554 154.8L261.954 156.2C261.5 156.013 261.027 155.853 260.534 155.72C260.04 155.587 259.534 155.52 259.014 155.52C258.294 155.52 257.74 155.64 257.354 155.88C256.98 156.107 256.794 156.42 256.794 156.82C256.794 157.113 256.88 157.367 257.054 157.58C257.227 157.78 257.514 157.98 257.914 158.18C258.327 158.367 258.874 158.593 259.554 158.86C260.234 159.113 260.814 159.373 261.294 159.64C261.774 159.907 262.14 160.233 262.394 160.62C262.647 160.993 262.774 161.467 262.774 162.04ZM269.504 154.08C270.424 154.08 271.211 154.28 271.864 154.68C272.531 155.08 273.037 155.647 273.384 156.38C273.744 157.1 273.924 157.947 273.924 158.92V159.98H266.584C266.611 161.193 266.917 162.12 267.504 162.76C268.104 163.387 268.937 163.7 270.004 163.7C270.684 163.7 271.284 163.64 271.804 163.52C272.337 163.387 272.884 163.2 273.444 162.96V164.5C272.897 164.74 272.357 164.913 271.824 165.02C271.291 165.14 270.657 165.2 269.924 165.2C268.911 165.2 268.011 164.993 267.224 164.58C266.451 164.167 265.844 163.553 265.404 162.74C264.977 161.913 264.764 160.907 264.764 159.72C264.764 158.547 264.957 157.54 265.344 156.7C265.744 155.86 266.297 155.213 267.004 154.76C267.724 154.307 268.557 154.08 269.504 154.08ZM269.484 155.52C268.644 155.52 267.977 155.793 267.484 156.34C267.004 156.873 266.717 157.62 266.624 158.58H272.084C272.071 157.673 271.857 156.94 271.444 156.38C271.031 155.807 270.377 155.52 269.484 155.52ZM277.553 150.26C277.82 150.26 278.053 150.353 278.253 150.54C278.466 150.713 278.573 150.993 278.573 151.38C278.573 151.753 278.466 152.033 278.253 152.22C278.053 152.407 277.82 152.5 277.553 152.5C277.26 152.5 277.013 152.407 276.813 152.22C276.613 152.033 276.513 151.753 276.513 151.38C276.513 150.993 276.613 150.713 276.813 150.54C277.013 150.353 277.26 150.26 277.553 150.26ZM278.413 154.28V165H276.653V154.28H278.413ZM285.609 154.08C286.316 154.08 286.949 154.213 287.509 154.48C288.083 154.747 288.569 155.153 288.969 155.7H289.069L289.309 154.28H290.709V165.18C290.709 166.713 290.316 167.867 289.529 168.64C288.756 169.413 287.549 169.8 285.909 169.8C284.336 169.8 283.049 169.573 282.049 169.12V167.5C283.103 168.06 284.423 168.34 286.009 168.34C286.929 168.34 287.649 168.067 288.169 167.52C288.703 166.987 288.969 166.253 288.969 165.32V164.9C288.969 164.74 288.976 164.513 288.989 164.22C289.003 163.913 289.016 163.7 289.029 163.58H288.949C288.229 164.66 287.123 165.2 285.629 165.2C284.243 165.2 283.156 164.713 282.369 163.74C281.596 162.767 281.209 161.407 281.209 159.66C281.209 157.953 281.596 156.6 282.369 155.6C283.156 154.587 284.236 154.08 285.609 154.08ZM285.849 155.56C284.956 155.56 284.263 155.92 283.769 156.64C283.276 157.347 283.029 158.36 283.029 159.68C283.029 161 283.269 162.013 283.749 162.72C284.243 163.413 284.956 163.76 285.889 163.76C286.969 163.76 287.756 163.473 288.249 162.9C288.743 162.313 288.989 161.373 288.989 160.08V159.66C288.989 158.193 288.736 157.147 288.229 156.52C287.723 155.88 286.929 155.56 285.849 155.56ZM299.274 154.08C300.554 154.08 301.521 154.393 302.174 155.02C302.827 155.633 303.154 156.633 303.154 158.02V165H301.414V158.14C301.414 156.42 300.614 155.56 299.014 155.56C297.827 155.56 297.007 155.893 296.554 156.56C296.101 157.227 295.874 158.187 295.874 159.44V165H294.114V154.28H295.534L295.794 155.74H295.894C296.241 155.18 296.721 154.767 297.334 154.5C297.947 154.22 298.594 154.08 299.274 154.08ZM310.617 154.08C311.537 154.08 312.324 154.28 312.977 154.68C313.644 155.08 314.151 155.647 314.497 156.38C314.857 157.1 315.037 157.947 315.037 158.92V159.98H307.697C307.724 161.193 308.031 162.12 308.617 162.76C309.217 163.387 310.051 163.7 311.117 163.7C311.797 163.7 312.397 163.64 312.917 163.52C313.451 163.387 313.997 163.2 314.557 162.96V164.5C314.011 164.74 313.471 164.913 312.937 165.02C312.404 165.14 311.771 165.2 311.037 165.2C310.024 165.2 309.124 164.993 308.337 164.58C307.564 164.167 306.957 163.553 306.517 162.74C306.091 161.913 305.877 160.907 305.877 159.72C305.877 158.547 306.071 157.54 306.457 156.7C306.857 155.86 307.411 155.213 308.117 154.76C308.837 154.307 309.671 154.08 310.617 154.08ZM310.597 155.52C309.757 155.52 309.091 155.793 308.597 156.34C308.117 156.873 307.831 157.62 307.737 158.58H313.197C313.184 157.673 312.971 156.94 312.557 156.38C312.144 155.807 311.491 155.52 310.597 155.52ZM329.526 154.08C330.74 154.08 331.646 154.393 332.246 155.02C332.846 155.633 333.146 156.633 333.146 158.02V165H331.406V158.1C331.406 156.407 330.68 155.56 329.226 155.56C328.186 155.56 327.44 155.86 326.986 156.46C326.546 157.06 326.326 157.933 326.326 159.08V165H324.586V158.1C324.586 156.407 323.853 155.56 322.386 155.56C321.306 155.56 320.56 155.893 320.146 156.56C319.733 157.227 319.526 158.187 319.526 159.44V165H317.766V154.28H319.186L319.446 155.74H319.546C319.88 155.18 320.326 154.767 320.886 154.5C321.46 154.22 322.066 154.08 322.706 154.08C324.386 154.08 325.48 154.68 325.986 155.88H326.086C326.446 155.267 326.933 154.813 327.546 154.52C328.173 154.227 328.833 154.08 329.526 154.08ZM340.598 154.08C341.518 154.08 342.304 154.28 342.958 154.68C343.624 155.08 344.131 155.647 344.478 156.38C344.838 157.1 345.018 157.947 345.018 158.92V159.98H337.678C337.704 161.193 338.011 162.12 338.598 162.76C339.198 163.387 340.031 163.7 341.098 163.7C341.778 163.7 342.378 163.64 342.898 163.52C343.431 163.387 343.978 163.2 344.538 162.96V164.5C343.991 164.74 343.451 164.913 342.918 165.02C342.384 165.14 341.751 165.2 341.018 165.2C340.004 165.2 339.104 164.993 338.318 164.58C337.544 164.167 336.938 163.553 336.498 162.74C336.071 161.913 335.858 160.907 335.858 159.72C335.858 158.547 336.051 157.54 336.438 156.7C336.838 155.86 337.391 155.213 338.098 154.76C338.818 154.307 339.651 154.08 340.598 154.08ZM340.578 155.52C339.738 155.52 339.071 155.793 338.578 156.34C338.098 156.873 337.811 157.62 337.718 158.58H343.178C343.164 157.673 342.951 156.94 342.538 156.38C342.124 155.807 341.471 155.52 340.578 155.52ZM352.907 154.08C354.187 154.08 355.154 154.393 355.807 155.02C356.46 155.633 356.787 156.633 356.787 158.02V165H355.047V158.14C355.047 156.42 354.247 155.56 352.647 155.56C351.46 155.56 350.64 155.893 350.187 156.56C349.734 157.227 349.507 158.187 349.507 159.44V165H347.747V154.28H349.167L349.427 155.74H349.527C349.874 155.18 350.354 154.767 350.967 154.5C351.58 154.22 352.227 154.08 352.907 154.08ZM363.69 163.76C363.957 163.76 364.23 163.74 364.51 163.7C364.79 163.647 365.017 163.593 365.19 163.54V164.88C365.003 164.973 364.737 165.047 364.39 165.1C364.043 165.167 363.71 165.2 363.39 165.2C362.83 165.2 362.31 165.107 361.83 164.92C361.363 164.72 360.983 164.38 360.69 163.9C360.397 163.42 360.25 162.747 360.25 161.88V155.64H358.73V154.8L360.27 154.1L360.97 151.82H362.01V154.28H365.11V155.64H362.01V161.84C362.01 162.493 362.163 162.98 362.47 163.3C362.79 163.607 363.197 163.76 363.69 163.76ZM374.317 162.04C374.317 163.08 373.93 163.867 373.157 164.4C372.383 164.933 371.343 165.2 370.037 165.2C369.29 165.2 368.643 165.14 368.097 165.02C367.563 164.9 367.09 164.733 366.677 164.52V162.92C367.103 163.133 367.617 163.333 368.217 163.52C368.83 163.693 369.45 163.78 370.077 163.78C370.97 163.78 371.617 163.64 372.017 163.36C372.417 163.067 372.617 162.68 372.617 162.2C372.617 161.933 372.543 161.693 372.397 161.48C372.25 161.267 371.983 161.053 371.597 160.84C371.223 160.627 370.683 160.387 369.977 160.12C369.283 159.853 368.69 159.587 368.197 159.32C367.703 159.053 367.323 158.733 367.057 158.36C366.79 157.987 366.657 157.507 366.657 156.92C366.657 156.013 367.023 155.313 367.757 154.82C368.503 154.327 369.477 154.08 370.677 154.08C371.33 154.08 371.937 154.147 372.497 154.28C373.07 154.4 373.603 154.573 374.097 154.8L373.497 156.2C373.043 156.013 372.57 155.853 372.077 155.72C371.583 155.587 371.077 155.52 370.557 155.52C369.837 155.52 369.283 155.64 368.897 155.88C368.523 156.107 368.337 156.42 368.337 156.82C368.337 157.113 368.423 157.367 368.597 157.58C368.77 157.78 369.057 157.98 369.457 158.18C369.87 158.367 370.417 158.593 371.097 158.86C371.777 159.113 372.357 159.373 372.837 159.64C373.317 159.907 373.683 160.233 373.937 160.62C374.19 160.993 374.317 161.467 374.317 162.04ZM389.082 162.04C389.082 163.08 388.696 163.867 387.922 164.4C387.149 164.933 386.109 165.2 384.802 165.2C384.056 165.2 383.409 165.14 382.862 165.02C382.329 164.9 381.856 164.733 381.442 164.52V162.92C381.869 163.133 382.382 163.333 382.982 163.52C383.596 163.693 384.216 163.78 384.842 163.78C385.736 163.78 386.382 163.64 386.782 163.36C387.182 163.067 387.382 162.68 387.382 162.2C387.382 161.933 387.309 161.693 387.162 161.48C387.016 161.267 386.749 161.053 386.362 160.84C385.989 160.627 385.449 160.387 384.742 160.12C384.049 159.853 383.456 159.587 382.962 159.32C382.469 159.053 382.089 158.733 381.822 158.36C381.556 157.987 381.422 157.507 381.422 156.92C381.422 156.013 381.789 155.313 382.522 154.82C383.269 154.327 384.242 154.08 385.442 154.08C386.096 154.08 386.702 154.147 387.262 154.28C387.836 154.4 388.369 154.573 388.862 154.8L388.262 156.2C387.809 156.013 387.336 155.853 386.842 155.72C386.349 155.587 385.842 155.52 385.322 155.52C384.602 155.52 384.049 155.64 383.662 155.88C383.289 156.107 383.102 156.42 383.102 156.82C383.102 157.113 383.189 157.367 383.362 157.58C383.536 157.78 383.822 157.98 384.222 158.18C384.636 158.367 385.182 158.593 385.862 158.86C386.542 159.113 387.122 159.373 387.602 159.64C388.082 159.907 388.449 160.233 388.702 160.62C388.956 160.993 389.082 161.467 389.082 162.04ZM400.633 154.28V165H399.193L398.933 163.58H398.853C398.506 164.14 398.026 164.553 397.413 164.82C396.799 165.073 396.146 165.2 395.453 165.2C394.159 165.2 393.186 164.893 392.533 164.28C391.879 163.653 391.553 162.66 391.553 161.3V154.28H393.333V161.18C393.333 162.887 394.126 163.74 395.713 163.74C396.899 163.74 397.719 163.407 398.173 162.74C398.639 162.073 398.873 161.113 398.873 159.86V154.28H400.633ZM409.136 154.08C410.456 154.08 411.516 154.54 412.316 155.46C413.129 156.38 413.536 157.767 413.536 159.62C413.536 161.447 413.129 162.833 412.316 163.78C411.516 164.727 410.449 165.2 409.116 165.2C408.289 165.2 407.603 165.047 407.056 164.74C406.523 164.42 406.103 164.053 405.796 163.64H405.676C405.703 163.867 405.729 164.153 405.756 164.5C405.783 164.847 405.796 165.147 405.796 165.4V169.8H404.036V154.28H405.476L405.716 155.74H405.796C406.116 155.273 406.536 154.88 407.056 154.56C407.576 154.24 408.269 154.08 409.136 154.08ZM408.816 155.56C407.723 155.56 406.949 155.867 406.496 156.48C406.056 157.093 405.823 158.027 405.796 159.28V159.62C405.796 160.94 406.009 161.96 406.436 162.68C406.876 163.387 407.683 163.74 408.856 163.74C409.509 163.74 410.043 163.56 410.456 163.2C410.883 162.84 411.196 162.353 411.396 161.74C411.609 161.113 411.716 160.4 411.716 159.6C411.716 158.373 411.476 157.393 410.996 156.66C410.529 155.927 409.803 155.56 408.816 155.56ZM421.441 154.08C422.761 154.08 423.821 154.54 424.621 155.46C425.434 156.38 425.841 157.767 425.841 159.62C425.841 161.447 425.434 162.833 424.621 163.78C423.821 164.727 422.754 165.2 421.421 165.2C420.594 165.2 419.907 165.047 419.361 164.74C418.827 164.42 418.407 164.053 418.101 163.64H417.981C418.007 163.867 418.034 164.153 418.061 164.5C418.087 164.847 418.101 165.147 418.101 165.4V169.8H416.341V154.28H417.781L418.021 155.74H418.101C418.421 155.273 418.841 154.88 419.361 154.56C419.881 154.24 420.574 154.08 421.441 154.08ZM421.121 155.56C420.027 155.56 419.254 155.867 418.801 156.48C418.361 157.093 418.127 158.027 418.101 159.28V159.62C418.101 160.94 418.314 161.96 418.741 162.68C419.181 163.387 419.987 163.74 421.161 163.74C421.814 163.74 422.347 163.56 422.761 163.2C423.187 162.84 423.501 162.353 423.701 161.74C423.914 161.113 424.021 160.4 424.021 159.6C424.021 158.373 423.781 157.393 423.301 156.66C422.834 155.927 422.107 155.56 421.121 155.56ZM430.405 165H428.645V149.8H430.405V165ZM437.942 154.08C438.862 154.08 439.648 154.28 440.302 154.68C440.968 155.08 441.475 155.647 441.822 156.38C442.182 157.1 442.362 157.947 442.362 158.92V159.98H435.022C435.048 161.193 435.355 162.12 435.942 162.76C436.542 163.387 437.375 163.7 438.442 163.7C439.122 163.7 439.722 163.64 440.242 163.52C440.775 163.387 441.322 163.2 441.882 162.96V164.5C441.335 164.74 440.795 164.913 440.262 165.02C439.728 165.14 439.095 165.2 438.362 165.2C437.348 165.2 436.448 164.993 435.662 164.58C434.888 164.167 434.282 163.553 433.842 162.74C433.415 161.913 433.202 160.907 433.202 159.72C433.202 158.547 433.395 157.54 433.782 156.7C434.182 155.86 434.735 155.213 435.442 154.76C436.162 154.307 436.995 154.08 437.942 154.08ZM437.922 155.52C437.082 155.52 436.415 155.793 435.922 156.34C435.442 156.873 435.155 157.62 435.062 158.58H440.522C440.508 157.673 440.295 156.94 439.882 156.38C439.468 155.807 438.815 155.52 437.922 155.52ZM440.762 149.88C440.602 150.12 440.355 150.433 440.022 150.82C439.688 151.193 439.328 151.573 438.942 151.96C438.568 152.333 438.222 152.64 437.902 152.88H436.742V152.64C436.942 152.387 437.155 152.087 437.382 151.74C437.622 151.393 437.855 151.04 438.082 150.68C438.308 150.307 438.495 149.973 438.642 149.68H440.762V149.88ZM456.851 154.08C458.064 154.08 458.971 154.393 459.571 155.02C460.171 155.633 460.471 156.633 460.471 158.02V165H458.731V158.1C458.731 156.407 458.004 155.56 456.551 155.56C455.511 155.56 454.764 155.86 454.311 156.46C453.871 157.06 453.651 157.933 453.651 159.08V165H451.911V158.1C451.911 156.407 451.177 155.56 449.711 155.56C448.631 155.56 447.884 155.893 447.471 156.56C447.057 157.227 446.851 158.187 446.851 159.44V165H445.091V154.28H446.511L446.771 155.74H446.871C447.204 155.18 447.651 154.767 448.211 154.5C448.784 154.22 449.391 154.08 450.031 154.08C451.711 154.08 452.804 154.68 453.311 155.88H453.411C453.771 155.267 454.257 154.813 454.871 154.52C455.497 154.227 456.157 154.08 456.851 154.08ZM467.922 154.08C468.842 154.08 469.629 154.28 470.282 154.68C470.949 155.08 471.455 155.647 471.802 156.38C472.162 157.1 472.342 157.947 472.342 158.92V159.98H465.002C465.029 161.193 465.335 162.12 465.922 162.76C466.522 163.387 467.355 163.7 468.422 163.7C469.102 163.7 469.702 163.64 470.222 163.52C470.755 163.387 471.302 163.2 471.862 162.96V164.5C471.315 164.74 470.775 164.913 470.242 165.02C469.709 165.14 469.075 165.2 468.342 165.2C467.329 165.2 466.429 164.993 465.642 164.58C464.869 164.167 464.262 163.553 463.822 162.74C463.395 161.913 463.182 160.907 463.182 159.72C463.182 158.547 463.375 157.54 463.762 156.7C464.162 155.86 464.715 155.213 465.422 154.76C466.142 154.307 466.975 154.08 467.922 154.08ZM467.902 155.52C467.062 155.52 466.395 155.793 465.902 156.34C465.422 156.873 465.135 157.62 465.042 158.58H470.502C470.489 157.673 470.275 156.94 469.862 156.38C469.449 155.807 468.795 155.52 467.902 155.52ZM480.231 154.08C481.511 154.08 482.478 154.393 483.131 155.02C483.784 155.633 484.111 156.633 484.111 158.02V165H482.371V158.14C482.371 156.42 481.571 155.56 479.971 155.56C478.784 155.56 477.964 155.893 477.511 156.56C477.058 157.227 476.831 158.187 476.831 159.44V165H475.071V154.28H476.491L476.751 155.74H476.851C477.198 155.18 477.678 154.767 478.291 154.5C478.904 154.22 479.551 154.08 480.231 154.08ZM491.014 163.76C491.281 163.76 491.554 163.74 491.834 163.7C492.114 163.647 492.341 163.593 492.514 163.54V164.88C492.328 164.973 492.061 165.047 491.714 165.1C491.368 165.167 491.034 165.2 490.714 165.2C490.154 165.2 489.634 165.107 489.154 164.92C488.688 164.72 488.308 164.38 488.014 163.9C487.721 163.42 487.574 162.747 487.574 161.88V155.64H486.054V154.8L487.594 154.1L488.294 151.82H489.334V154.28H492.434V155.64H489.334V161.84C489.334 162.493 489.488 162.98 489.794 163.3C490.114 163.607 490.521 163.76 491.014 163.76ZM498.721 154.1C500.028 154.1 500.994 154.387 501.621 154.96C502.248 155.533 502.561 156.447 502.561 157.7V165H501.281L500.941 163.48H500.861C500.394 164.067 499.901 164.5 499.381 164.78C498.874 165.06 498.168 165.2 497.261 165.2C496.288 165.2 495.481 164.947 494.841 164.44C494.201 163.92 493.881 163.113 493.881 162.02C493.881 160.953 494.301 160.133 495.141 159.56C495.981 158.973 497.274 158.653 499.021 158.6L500.841 158.54V157.9C500.841 157.007 500.648 156.387 500.261 156.04C499.874 155.693 499.328 155.52 498.621 155.52C498.061 155.52 497.528 155.607 497.021 155.78C496.514 155.94 496.041 156.127 495.601 156.34L495.061 155.02C495.528 154.767 496.081 154.553 496.721 154.38C497.361 154.193 498.028 154.1 498.721 154.1ZM499.241 159.82C497.908 159.873 496.981 160.087 496.461 160.46C495.954 160.833 495.701 161.36 495.701 162.04C495.701 162.64 495.881 163.08 496.241 163.36C496.614 163.64 497.088 163.78 497.661 163.78C498.568 163.78 499.321 163.533 499.921 163.04C500.521 162.533 500.821 161.76 500.821 160.72V159.76L499.241 159.82ZM506.772 150.26C507.039 150.26 507.272 150.353 507.472 150.54C507.685 150.713 507.792 150.993 507.792 151.38C507.792 151.753 507.685 152.033 507.472 152.22C507.272 152.407 507.039 152.5 506.772 152.5C506.479 152.5 506.232 152.407 506.032 152.22C505.832 152.033 505.732 151.753 505.732 151.38C505.732 150.993 505.832 150.713 506.032 150.54C506.232 150.353 506.479 150.26 506.772 150.26ZM507.632 154.28V165H505.872V154.28H507.632ZM516.028 154.08C516.228 154.08 516.441 154.093 516.668 154.12C516.908 154.133 517.115 154.16 517.288 154.2L517.068 155.82C516.895 155.78 516.701 155.747 516.488 155.72C516.288 155.693 516.095 155.68 515.908 155.68C515.361 155.68 514.848 155.833 514.368 156.14C513.888 156.433 513.501 156.853 513.208 157.4C512.928 157.933 512.788 158.56 512.788 159.28V165H511.028V154.28H512.468L512.668 156.24H512.748C513.095 155.653 513.541 155.147 514.088 154.72C514.635 154.293 515.281 154.08 516.028 154.08ZM523.039 154.08C523.959 154.08 524.746 154.28 525.399 154.68C526.066 155.08 526.573 155.647 526.919 156.38C527.279 157.1 527.459 157.947 527.459 158.92V159.98H520.119C520.146 161.193 520.453 162.12 521.039 162.76C521.639 163.387 522.473 163.7 523.539 163.7C524.219 163.7 524.819 163.64 525.339 163.52C525.873 163.387 526.419 163.2 526.979 162.96V164.5C526.433 164.74 525.893 164.913 525.359 165.02C524.826 165.14 524.193 165.2 523.459 165.2C522.446 165.2 521.546 164.993 520.759 164.58C519.986 164.167 519.379 163.553 518.939 162.74C518.513 161.913 518.299 160.907 518.299 159.72C518.299 158.547 518.493 157.54 518.879 156.7C519.279 155.86 519.833 155.213 520.539 154.76C521.259 154.307 522.093 154.08 523.039 154.08ZM523.019 155.52C522.179 155.52 521.513 155.793 521.019 156.34C520.539 156.873 520.253 157.62 520.159 158.58H525.619C525.606 157.673 525.393 156.94 524.979 156.38C524.566 155.807 523.913 155.52 523.019 155.52ZM537.168 162.04C537.168 163.08 536.782 163.867 536.008 164.4C535.235 164.933 534.195 165.2 532.888 165.2C532.142 165.2 531.495 165.14 530.948 165.02C530.415 164.9 529.942 164.733 529.528 164.52V162.92C529.955 163.133 530.468 163.333 531.068 163.52C531.682 163.693 532.302 163.78 532.928 163.78C533.822 163.78 534.468 163.64 534.868 163.36C535.268 163.067 535.468 162.68 535.468 162.2C535.468 161.933 535.395 161.693 535.248 161.48C535.102 161.267 534.835 161.053 534.448 160.84C534.075 160.627 533.535 160.387 532.828 160.12C532.135 159.853 531.542 159.587 531.048 159.32C530.555 159.053 530.175 158.733 529.908 158.36C529.642 157.987 529.508 157.507 529.508 156.92C529.508 156.013 529.875 155.313 530.608 154.82C531.355 154.327 532.328 154.08 533.528 154.08C534.182 154.08 534.788 154.147 535.348 154.28C535.922 154.4 536.455 154.573 536.948 154.8L536.348 156.2C535.895 156.013 535.422 155.853 534.928 155.72C534.435 155.587 533.928 155.52 533.408 155.52C532.688 155.52 532.135 155.64 531.748 155.88C531.375 156.107 531.188 156.42 531.188 156.82C531.188 157.113 531.275 157.367 531.448 157.58C531.622 157.78 531.908 157.98 532.308 158.18C532.722 158.367 533.268 158.593 533.948 158.86C534.628 159.113 535.208 159.373 535.688 159.64C536.168 159.907 536.535 160.233 536.788 160.62C537.042 160.993 537.168 161.467 537.168 162.04Z" fill="black"/>
</g>
</g>
<g id="container">
<g id="Group 151">
<line id="Line 2" x1="115.996" y1="106.5" x2="175.006" y2="106.5" stroke="#B3800F" stroke-width="2"/>
<g id="Group 140">
<rect id="Rectangle 106" x="1" y="92" width="114" height="31" fill="white" stroke="#B3800F" stroke-width="2"/>
<path id="Icon" d="M40.1207 115H35.534V114.076L37.0274 113.738V103.587L35.534 103.231V102.307H40.1207V103.231L38.6274 103.587V113.738L40.1207 114.076V115ZM46.1806 115.178C45.3391 115.178 44.5865 115.006 43.9228 114.662C43.2709 114.319 42.7554 113.785 42.3761 113.062C42.0087 112.339 41.825 111.415 41.825 110.289C41.825 109.116 42.0206 108.161 42.4117 107.427C42.8028 106.692 43.3302 106.153 43.9939 105.809C44.6694 105.465 45.4339 105.293 46.2872 105.293C46.7731 105.293 47.2413 105.347 47.6917 105.453C48.142 105.548 48.5094 105.667 48.7939 105.809L48.3139 107.107C48.0294 107 47.6976 106.899 47.3183 106.804C46.9391 106.71 46.5835 106.662 46.2517 106.662C44.3791 106.662 43.4428 107.865 43.4428 110.271C43.4428 111.421 43.668 112.304 44.1183 112.92C44.5806 113.524 45.262 113.827 46.1628 113.827C46.6843 113.827 47.1406 113.773 47.5317 113.667C47.9346 113.56 48.302 113.43 48.6339 113.276V114.662C48.3139 114.828 47.9583 114.953 47.5672 115.036C47.188 115.13 46.7257 115.178 46.1806 115.178ZM59.1844 110.218C59.1844 111.794 58.7815 113.015 57.9756 113.88C57.1815 114.745 56.103 115.178 54.74 115.178C53.8985 115.178 53.1459 114.988 52.4822 114.609C51.8304 114.218 51.3148 113.655 50.9356 112.92C50.5563 112.173 50.3667 111.273 50.3667 110.218C50.3667 108.641 50.7637 107.427 51.5578 106.573C52.3518 105.72 53.4304 105.293 54.7933 105.293C55.6585 105.293 56.417 105.489 57.0689 105.88C57.7326 106.259 58.2481 106.816 58.6156 107.551C58.9948 108.274 59.1844 109.163 59.1844 110.218ZM51.9844 110.218C51.9844 111.344 52.2037 112.239 52.6422 112.902C53.0926 113.554 53.8037 113.88 54.7756 113.88C55.7356 113.88 56.4407 113.554 56.8911 112.902C57.3415 112.239 57.5667 111.344 57.5667 110.218C57.5667 109.092 57.3415 108.209 56.8911 107.569C56.4407 106.929 55.7296 106.609 54.7578 106.609C53.7859 106.609 53.0807 106.929 52.6422 107.569C52.2037 108.209 51.9844 109.092 51.9844 110.218ZM55.5578 101.382C55.7 101.643 55.9015 101.939 56.1622 102.271C56.4348 102.591 56.7133 102.911 56.9978 103.231C57.2941 103.539 57.5548 103.806 57.78 104.031V104.227H56.6778C56.3696 104.037 56.0496 103.806 55.7178 103.533C55.3859 103.249 55.06 102.947 54.74 102.627C54.42 102.947 54.1 103.243 53.78 103.516C53.46 103.788 53.1459 104.025 52.8378 104.227H51.7711V104.031C51.9963 103.794 52.2452 103.521 52.5178 103.213C52.8022 102.905 53.0748 102.591 53.3356 102.271C53.5963 101.939 53.8037 101.643 53.9578 101.382H55.5578ZM66.2506 105.293C67.3883 105.293 68.2476 105.572 68.8283 106.129C69.4091 106.674 69.6994 107.563 69.6994 108.796V115H68.1528V108.902C68.1528 107.373 67.4417 106.609 66.0194 106.609C64.9646 106.609 64.2357 106.905 63.8328 107.498C63.4298 108.09 63.2283 108.944 63.2283 110.058V115H61.6639V105.471H62.9261L63.1572 106.769H63.2461C63.5543 106.271 63.9809 105.904 64.5261 105.667C65.0713 105.418 65.6461 105.293 66.2506 105.293ZM76.3335 105.293C77.1513 105.293 77.8505 105.471 78.4313 105.827C79.0238 106.182 79.4742 106.686 79.7824 107.338C80.1024 107.978 80.2624 108.73 80.2624 109.596V110.538H73.7379C73.7616 111.616 74.0342 112.44 74.5557 113.009C75.089 113.566 75.8298 113.844 76.7779 113.844C77.3824 113.844 77.9157 113.791 78.3779 113.684C78.852 113.566 79.3379 113.4 79.8357 113.187V114.556C79.3498 114.769 78.8698 114.923 78.3957 115.018C77.9216 115.124 77.3587 115.178 76.7068 115.178C75.8061 115.178 75.0061 114.994 74.3068 114.627C73.6194 114.259 73.0801 113.714 72.689 112.991C72.3098 112.256 72.1201 111.361 72.1201 110.307C72.1201 109.264 72.292 108.369 72.6357 107.622C72.9913 106.876 73.4831 106.301 74.1113 105.898C74.7513 105.495 75.492 105.293 76.3335 105.293ZM76.3157 106.573C75.569 106.573 74.9764 106.816 74.5379 107.302C74.1113 107.776 73.8564 108.44 73.7735 109.293H78.6268C78.615 108.487 78.4253 107.836 78.0579 107.338C77.6905 106.828 77.1098 106.573 76.3157 106.573Z" fill="black"/>
</g>
</g>
</g>
<g id="label">
<line id="Line 1_2" x1="343" y1="85" x2="343" y2="33" stroke="#B3800F" stroke-width="2"/>
<g id="Group 139">
<rect id="Rectangle 106_2" x="284" y="1" width="117" height="31" fill="white" stroke="#B3800F" stroke-width="2"/>
<path id="Details title" d="M298.433 24H296.833V12.7111H292.869V11.3067H302.38V12.7111H298.433V24ZM304.881 10.8978C305.118 10.8978 305.325 10.9807 305.503 11.1467C305.692 11.3007 305.787 11.5496 305.787 11.8933C305.787 12.2252 305.692 12.4741 305.503 12.64C305.325 12.8059 305.118 12.8889 304.881 12.8889C304.62 12.8889 304.401 12.8059 304.223 12.64C304.045 12.4741 303.956 12.2252 303.956 11.8933C303.956 11.5496 304.045 11.3007 304.223 11.1467C304.401 10.9807 304.62 10.8978 304.881 10.8978ZM305.645 14.4711V24H304.081V14.4711H305.645ZM311.846 22.8978C312.083 22.8978 312.326 22.88 312.575 22.8444C312.824 22.797 313.025 22.7496 313.179 22.7022V23.8933C313.014 23.9763 312.776 24.0415 312.468 24.0889C312.16 24.1481 311.864 24.1778 311.579 24.1778C311.082 24.1778 310.619 24.0948 310.193 23.9289C309.778 23.7511 309.44 23.4489 309.179 23.0222C308.919 22.5956 308.788 21.997 308.788 21.2267V15.68H307.437V14.9333L308.806 14.3111L309.428 12.2844H310.353V14.4711H313.108V15.68H310.353V21.1911C310.353 21.7719 310.489 22.2044 310.762 22.4889C311.046 22.7615 311.408 22.8978 311.846 22.8978ZM319.532 14.2933C319.71 14.2933 319.899 14.3052 320.101 14.3289C320.314 14.3407 320.498 14.3644 320.652 14.4L320.456 15.84C320.302 15.8044 320.13 15.7748 319.941 15.7511C319.763 15.7274 319.591 15.7156 319.425 15.7156C318.939 15.7156 318.483 15.8519 318.056 16.1244C317.63 16.3852 317.286 16.7585 317.025 17.2444C316.776 17.7185 316.652 18.2756 316.652 18.9156V24H315.088V14.4711H316.368L316.545 16.2133H316.616C316.925 15.6919 317.322 15.2415 317.808 14.8622C318.293 14.483 318.868 14.2933 319.532 14.2933ZM325.764 14.2933C326.582 14.2933 327.281 14.4711 327.862 14.8267C328.454 15.1822 328.905 15.6859 329.213 16.3378C329.533 16.9778 329.693 17.7304 329.693 18.5956V19.5378H323.168C323.192 20.6163 323.465 21.44 323.986 22.0089C324.52 22.5659 325.26 22.8444 326.208 22.8444C326.813 22.8444 327.346 22.7911 327.808 22.6844C328.283 22.5659 328.768 22.4 329.266 22.1867V23.5556C328.78 23.7689 328.3 23.923 327.826 24.0178C327.352 24.1244 326.789 24.1778 326.137 24.1778C325.237 24.1778 324.437 23.9941 323.737 23.6267C323.05 23.2593 322.511 22.7141 322.12 21.9911C321.74 21.2563 321.551 20.3615 321.551 19.3067C321.551 18.2637 321.723 17.3689 322.066 16.6222C322.422 15.8756 322.914 15.3007 323.542 14.8978C324.182 14.4948 324.923 14.2933 325.764 14.2933ZM325.746 15.5733C325 15.5733 324.407 15.8163 323.968 16.3022C323.542 16.7763 323.287 17.44 323.204 18.2933H328.057C328.046 17.4874 327.856 16.8356 327.488 16.3378C327.121 15.8281 326.54 15.5733 325.746 15.5733ZM347.119 17.5289C347.119 19.6741 346.532 21.2919 345.359 22.3822C344.198 23.4607 342.574 24 340.488 24H336.95V11.3067H340.861C342.141 11.3067 343.249 11.5437 344.186 12.0178C345.122 12.4919 345.845 13.1911 346.355 14.1156C346.864 15.0281 347.119 16.1659 347.119 17.5289ZM345.43 17.5822C345.43 15.8874 345.009 14.6489 344.168 13.8667C343.338 13.0726 342.159 12.6756 340.63 12.6756H338.55V22.6311H340.275C343.712 22.6311 345.43 20.9481 345.43 17.5822ZM353.403 14.2933C354.221 14.2933 354.92 14.4711 355.501 14.8267C356.093 15.1822 356.544 15.6859 356.852 16.3378C357.172 16.9778 357.332 17.7304 357.332 18.5956V19.5378H350.807C350.831 20.6163 351.104 21.44 351.625 22.0089C352.158 22.5659 352.899 22.8444 353.847 22.8444C354.452 22.8444 354.985 22.7911 355.447 22.6844C355.921 22.5659 356.407 22.4 356.905 22.1867V23.5556C356.419 23.7689 355.939 23.923 355.465 24.0178C354.991 24.1244 354.428 24.1778 353.776 24.1778C352.876 24.1778 352.076 23.9941 351.376 23.6267C350.689 23.2593 350.15 22.7141 349.758 21.9911C349.379 21.2563 349.19 20.3615 349.19 19.3067C349.19 18.2637 349.361 17.3689 349.705 16.6222C350.061 15.8756 350.553 15.3007 351.181 14.8978C351.821 14.4948 352.561 14.2933 353.403 14.2933ZM353.385 15.5733C352.638 15.5733 352.046 15.8163 351.607 16.3022C351.181 16.7763 350.926 17.44 350.843 18.2933H355.696C355.684 17.4874 355.495 16.8356 355.127 16.3378C354.76 15.8281 354.179 15.5733 353.385 15.5733ZM355.91 10.56C355.767 10.7733 355.548 11.0519 355.252 11.3956C354.956 11.7274 354.636 12.0652 354.292 12.4089C353.96 12.7407 353.652 13.0133 353.367 13.2267H352.336V13.0133C352.514 12.7881 352.704 12.5215 352.905 12.2133C353.118 11.9052 353.326 11.5911 353.527 11.2711C353.729 10.9393 353.895 10.643 354.025 10.3822H355.91V10.56ZM362.94 22.8978C363.177 22.8978 363.42 22.88 363.669 22.8444C363.918 22.797 364.119 22.7496 364.273 22.7022V23.8933C364.107 23.9763 363.87 24.0415 363.562 24.0889C363.254 24.1481 362.958 24.1778 362.673 24.1778C362.175 24.1778 361.713 24.0948 361.287 23.9289C360.872 23.7511 360.534 23.4489 360.273 23.0222C360.012 22.5956 359.882 21.997 359.882 21.2267V15.68H358.531V14.9333L359.9 14.3111L360.522 12.2844H361.447V14.4711H364.202V15.68H361.447V21.1911C361.447 21.7719 361.583 22.2044 361.855 22.4889C362.14 22.7615 362.501 22.8978 362.94 22.8978ZM369.79 14.3111C370.952 14.3111 371.811 14.5659 372.368 15.0756C372.925 15.5852 373.203 16.397 373.203 17.5111V24H372.066L371.763 22.6489H371.692C371.278 23.1704 370.839 23.5556 370.377 23.8044C369.926 24.0533 369.298 24.1778 368.492 24.1778C367.627 24.1778 366.91 23.9526 366.341 23.5022C365.772 23.04 365.488 22.323 365.488 21.3511C365.488 20.403 365.861 19.6741 366.608 19.1644C367.355 18.643 368.504 18.3585 370.057 18.3111L371.675 18.2578V17.6889C371.675 16.8948 371.503 16.3437 371.159 16.0356C370.815 15.7274 370.329 15.5733 369.701 15.5733C369.203 15.5733 368.729 15.6504 368.279 15.8044C367.829 15.9467 367.408 16.1126 367.017 16.3022L366.537 15.1289C366.952 14.9037 367.443 14.7141 368.012 14.56C368.581 14.3941 369.174 14.3111 369.79 14.3111ZM370.252 19.3956C369.067 19.443 368.243 19.6326 367.781 19.9644C367.331 20.2963 367.106 20.7644 367.106 21.3689C367.106 21.9022 367.266 22.2933 367.586 22.5422C367.918 22.7911 368.338 22.9156 368.848 22.9156C369.654 22.9156 370.323 22.6963 370.857 22.2578C371.39 21.8074 371.657 21.12 371.657 20.1956V19.3422L370.252 19.3956ZM376.947 10.8978C377.184 10.8978 377.391 10.9807 377.569 11.1467C377.758 11.3007 377.853 11.5496 377.853 11.8933C377.853 12.2252 377.758 12.4741 377.569 12.64C377.391 12.8059 377.184 12.8889 376.947 12.8889C376.686 12.8889 376.467 12.8059 376.289 12.64C376.111 12.4741 376.022 12.2252 376.022 11.8933C376.022 11.5496 376.111 11.3007 376.289 11.1467C376.467 10.9807 376.686 10.8978 376.947 10.8978ZM377.711 14.4711V24H376.147V14.4711H377.711ZM382.294 24H380.73V10.4889H382.294V24ZM391.518 21.3689C391.518 22.2933 391.174 22.9926 390.487 23.4667C389.799 23.9407 388.875 24.1778 387.713 24.1778C387.049 24.1778 386.475 24.1244 385.989 24.0178C385.515 23.9111 385.094 23.763 384.727 23.5733V22.1511C385.106 22.3407 385.562 22.5185 386.095 22.6844C386.641 22.8385 387.192 22.9156 387.749 22.9156C388.543 22.9156 389.118 22.7911 389.473 22.5422C389.829 22.2815 390.007 21.9378 390.007 21.5111C390.007 21.2741 389.941 21.0607 389.811 20.8711C389.681 20.6815 389.444 20.4919 389.1 20.3022C388.768 20.1126 388.288 19.8993 387.66 19.6622C387.044 19.4252 386.516 19.1881 386.078 18.9511C385.639 18.7141 385.301 18.4296 385.064 18.0978C384.827 17.7659 384.709 17.3393 384.709 16.8178C384.709 16.0119 385.035 15.3896 385.687 14.9511C386.35 14.5126 387.215 14.2933 388.282 14.2933C388.863 14.2933 389.402 14.3526 389.9 14.4711C390.409 14.5778 390.884 14.7319 391.322 14.9333L390.789 16.1778C390.386 16.0119 389.965 15.8696 389.527 15.7511C389.088 15.6326 388.638 15.5733 388.175 15.5733C387.535 15.5733 387.044 15.68 386.7 15.8933C386.368 16.0948 386.202 16.3733 386.202 16.7289C386.202 16.9896 386.279 17.2148 386.433 17.4044C386.587 17.5822 386.842 17.76 387.198 17.9378C387.565 18.1037 388.051 18.3052 388.655 18.5422C389.26 18.7674 389.775 18.9985 390.202 19.2356C390.629 19.4726 390.955 19.763 391.18 20.1067C391.405 20.4385 391.518 20.8593 391.518 21.3689Z" fill="black"/>
</g>
</g>
<g id="icon">
<line id="Line 2_2" x1="547.996" y1="159.5" x2="629.996" y2="159.5" stroke="#B3800F" stroke-width="2"/>
<g id="Group 140_2">
<rect id="Rectangle 106_3" x="630" y="144" width="114" height="31" fill="white" stroke="#B3800F" stroke-width="2"/>
<path id="Content" d="M658.453 154.533C657.09 154.533 656.017 154.99 655.235 155.902C654.453 156.815 654.062 158.065 654.062 159.653C654.062 161.23 654.423 162.48 655.146 163.404C655.881 164.317 656.977 164.773 658.435 164.773C658.992 164.773 659.519 164.726 660.017 164.631C660.515 164.536 661.001 164.418 661.475 164.276V165.662C661.001 165.84 660.509 165.97 659.999 166.053C659.502 166.136 658.903 166.178 658.204 166.178C656.912 166.178 655.833 165.911 654.968 165.378C654.103 164.844 653.451 164.086 653.013 163.102C652.586 162.119 652.373 160.963 652.373 159.636C652.373 158.356 652.604 157.23 653.066 156.258C653.54 155.274 654.233 154.51 655.146 153.964C656.059 153.407 657.167 153.129 658.47 153.129C659.81 153.129 660.977 153.378 661.973 153.876L661.333 155.227C660.942 155.049 660.503 154.889 660.017 154.747C659.543 154.604 659.022 154.533 658.453 154.533ZM672.316 161.218C672.316 162.794 671.913 164.015 671.107 164.88C670.313 165.745 669.235 166.178 667.872 166.178C667.03 166.178 666.278 165.988 665.614 165.609C664.962 165.218 664.447 164.655 664.067 163.92C663.688 163.173 663.499 162.273 663.499 161.218C663.499 159.641 663.896 158.427 664.69 157.573C665.484 156.72 666.562 156.293 667.925 156.293C668.79 156.293 669.549 156.489 670.201 156.88C670.865 157.259 671.38 157.816 671.748 158.551C672.127 159.274 672.316 160.163 672.316 161.218ZM665.116 161.218C665.116 162.344 665.336 163.239 665.774 163.902C666.225 164.554 666.936 164.88 667.907 164.88C668.867 164.88 669.573 164.554 670.023 163.902C670.473 163.239 670.699 162.344 670.699 161.218C670.699 160.092 670.473 159.209 670.023 158.569C669.573 157.929 668.862 157.609 667.89 157.609C666.918 157.609 666.213 157.929 665.774 158.569C665.336 159.209 665.116 160.092 665.116 161.218ZM679.382 156.293C680.52 156.293 681.38 156.572 681.96 157.129C682.541 157.674 682.831 158.563 682.831 159.796V166H681.285V159.902C681.285 158.373 680.574 157.609 679.151 157.609C678.097 157.609 677.368 157.905 676.965 158.498C676.562 159.09 676.36 159.944 676.36 161.058V166H674.796V156.471H676.058L676.289 157.769H676.378C676.686 157.271 677.113 156.904 677.658 156.667C678.203 156.418 678.778 156.293 679.382 156.293ZM688.968 164.898C689.205 164.898 689.448 164.88 689.697 164.844C689.945 164.797 690.147 164.75 690.301 164.702V165.893C690.135 165.976 689.898 166.041 689.59 166.089C689.282 166.148 688.985 166.178 688.701 166.178C688.203 166.178 687.741 166.095 687.314 165.929C686.899 165.751 686.562 165.449 686.301 165.022C686.04 164.596 685.91 163.997 685.91 163.227V157.68H684.559V156.933L685.928 156.311L686.55 154.284H687.474V156.471H690.23V157.68H687.474V163.191C687.474 163.772 687.611 164.204 687.883 164.489C688.168 164.761 688.529 164.898 688.968 164.898ZM695.889 156.293C696.707 156.293 697.406 156.471 697.987 156.827C698.579 157.182 699.03 157.686 699.338 158.338C699.658 158.978 699.818 159.73 699.818 160.596V161.538H693.293C693.317 162.616 693.59 163.44 694.111 164.009C694.645 164.566 695.385 164.844 696.333 164.844C696.938 164.844 697.471 164.791 697.933 164.684C698.408 164.566 698.893 164.4 699.391 164.187V165.556C698.905 165.769 698.425 165.923 697.951 166.018C697.477 166.124 696.914 166.178 696.262 166.178C695.362 166.178 694.562 165.994 693.862 165.627C693.175 165.259 692.636 164.714 692.245 163.991C691.865 163.256 691.676 162.361 691.676 161.307C691.676 160.264 691.848 159.369 692.191 158.622C692.547 157.876 693.039 157.301 693.667 156.898C694.307 156.495 695.048 156.293 695.889 156.293ZM695.871 157.573C695.125 157.573 694.532 157.816 694.093 158.302C693.667 158.776 693.412 159.44 693.329 160.293H698.182C698.171 159.487 697.981 158.836 697.613 158.338C697.246 157.828 696.665 157.573 695.871 157.573ZM706.83 156.293C707.968 156.293 708.827 156.572 709.408 157.129C709.989 157.674 710.279 158.563 710.279 159.796V166H708.733V159.902C708.733 158.373 708.022 157.609 706.599 157.609C705.544 157.609 704.816 157.905 704.413 158.498C704.01 159.09 703.808 159.944 703.808 161.058V166H702.244V156.471H703.506L703.737 157.769H703.826C704.134 157.271 704.561 156.904 705.106 156.667C705.651 156.418 706.226 156.293 706.83 156.293ZM721.198 156.471V166H719.918L719.687 164.738H719.616C719.307 165.236 718.881 165.603 718.336 165.84C717.79 166.065 717.21 166.178 716.593 166.178C715.444 166.178 714.579 165.905 713.998 165.36C713.417 164.803 713.127 163.92 713.127 162.711V156.471H714.709V162.604C714.709 164.121 715.414 164.88 716.824 164.88C717.879 164.88 718.608 164.584 719.011 163.991C719.426 163.399 719.633 162.545 719.633 161.431V156.471H721.198Z" fill="black"/>
</g>
</g>
</g>
<defs>
<clipPath id="clip0_9027_41792">
<rect width="18" height="24" fill="white" transform="translate(182 93)"/>
</clipPath>
</defs>
</svg>
