<?xml version="1.0" encoding="UTF-8"?>
<svg id="Layer_1" data-name="Layer 1" xmlns="http://www.w3.org/2000/svg" xmlns:xlink="http://www.w3.org/1999/xlink" version="1.1" viewBox="0 0 1009 311">
  <defs>
    <style>
      .cls-1 {
        clip-path: url(#clippath);
      }

      .cls-2 {
        fill: none;
      }

      .cls-2, .cls-3, .cls-4, .cls-5, .cls-6 {
        stroke-width: 0px;
      }

      .cls-3 {
        fill: #faedd1;
      }

      .cls-7 {
        mask: url(#mask);
      }

      .cls-8 {
        clip-path: url(#clippath-4);
      }

      .cls-9 {
        clip-path: url(#clippath-3);
      }

      .cls-10 {
        clip-path: url(#clippath-2);
      }

      .cls-11 {
        clip-path: url(#clippath-5);
      }

      .cls-4 {
        fill: #b3800f;
      }

      .cls-5 {
        fill: #c54600;
      }

      .cls-6 {
        fill: #fff;
      }

      .cls-12 {
        mask: url(#mask-3);
      }

      .cls-13 {
        mask: url(#mask-2);
      }

      .cls-14 {
        mask: url(#mask-1);
      }
    </style>
    <clipPath id="clippath">
      <rect class="cls-2" y="111" width="1009" height="80"/>
    </clipPath>
    <mask id="mask" x="-4" y="111" width="249" height="80" maskUnits="userSpaceOnUse">
      <g id="path-1-inside-1_10707_412" data-name="path-1-inside-1 10707 412">
        <path class="cls-6" d="M0,111h241v80H0v-80Z"/>
      </g>
    </mask>
    <mask id="mask-1" x="252" y="111" width="249" height="80" maskUnits="userSpaceOnUse">
      <g id="path-3-inside-2_10707_412" data-name="path-3-inside-2 10707 412">
        <path class="cls-6" d="M256,111h241v80h-241v-80Z"/>
      </g>
    </mask>
    <mask id="mask-2" x="508" y="111" width="249" height="80" maskUnits="userSpaceOnUse">
      <g id="path-5-inside-3_10707_412" data-name="path-5-inside-3 10707 412">
        <path class="cls-6" d="M512,111h241v80h-241v-80Z"/>
      </g>
    </mask>
    <mask id="mask-3" x="764" y="111" width="249" height="80" maskUnits="userSpaceOnUse">
      <g id="path-7-inside-4_10707_412" data-name="path-7-inside-4 10707 412">
        <path class="cls-6" d="M768,111h241v80h-241v-80Z"/>
      </g>
    </mask>
    <clipPath id="clippath-2">
      <rect class="cls-2" x="108" y="191" width="24" height="99"/>
    </clipPath>
    <clipPath id="clippath-3">
      <path class="cls-2" d="M120,266h0c6.6,0,12,5.4,12,12s-5.4,12-12,12-12-5.4-12-12,5.4-12,12-12Z"/>
    </clipPath>
    <clipPath id="clippath-4">
      <rect class="cls-2" y="0" width="1009" height="111"/>
    </clipPath>
    <clipPath id="clippath-5">
      <path class="cls-2" d="M504,14h0c6.6,0,12,5.4,12,12s-5.4,12-12,12-12-5.4-12-12,5.4-12,12-12Z"/>
    </clipPath>
  </defs>
  <g class="cls-1">
    <g>
      <rect class="cls-6" y="111" width="1009" height="80"/>
      <path class="cls-3" d="M0,111h241v80H0v-80Z"/>
      <g class="cls-7">
        <path class="cls-4" d="M237,111v80h8v-80h-8ZM4,191v-80H-4v80H4Z"/>
      </g>
      <path class="cls-3" d="M256,111h241v80h-241v-80Z"/>
      <g class="cls-14">
        <path class="cls-4" d="M493,111v80h8v-80h-8ZM260,191v-80h-8v80h8Z"/>
      </g>
      <path class="cls-3" d="M512,111h241v80h-241v-80Z"/>
      <g class="cls-13">
        <path class="cls-4" d="M749,111v80h8v-80h-8ZM516,191v-80h-8v80h8Z"/>
      </g>
      <path class="cls-3" d="M768,111h241v80h-241v-80Z"/>
      <g class="cls-12">
        <path class="cls-4" d="M1005,111v80h8v-80h-8ZM772,191v-80h-8v80h8Z"/>
      </g>
    </g>
  </g>
  <g class="cls-10">
    <g>
      <rect class="cls-5" x="120" y="191" width="1" height="95"/>
      <g class="cls-9">
        <g>
          <path class="cls-5" d="M120,266h0c6.6,0,12,5.4,12,12h0c0,6.6-5.4,12-12,12h0c-6.6,0-12-5.4-12-12h0c0-6.6,5.4-12,12-12Z"/>
          <path class="cls-6" d="M116.4,283v-1.6l3.6-3.4c.3-.3.6-.6.8-.8.2-.2.4-.5.5-.7.1-.2.2-.5.2-.8s0-.6-.2-.8c-.1-.2-.3-.4-.6-.5-.2-.1-.5-.2-.8-.2s-.6,0-.8.2-.4.3-.5.5c-.1.2-.2.5-.2.8h-2c0-.7.2-1.2.5-1.7.3-.5.7-.9,1.3-1.1.5-.3,1.2-.4,1.9-.4s1.4.1,1.9.4c.5.3,1,.6,1.3,1.1.3.5.5,1,.5,1.6s0,.8-.2,1.1c-.1.4-.4.8-.8,1.2-.4.5-.9,1-1.6,1.6l-1.5,1.5h0c0,0,4.3,0,4.3,0v1.8h-7.3Z"/>
        </g>
      </g>
    </g>
  </g>
  <g class="cls-8">
    <g>
      <rect class="cls-5" x="1008" y="87" width="1" height="14"/>
      <rect class="cls-5" x="0" y="87" width="1009" height="1"/>
      <rect class="cls-5" x="0" y="87" width="1" height="14"/>
      <rect class="cls-5" x="504" y="18" width="1" height="70"/>
      <g class="cls-11">
        <g>
          <path class="cls-5" d="M504,14h0c6.6,0,12,5.4,12,12h0c0,6.6-5.4,12-12,12h0c-6.6,0-12-5.4-12-12h0c0-6.6,5.4-12,12-12Z"/>
          <path class="cls-6" d="M505.8,20.8v10.2h-2.2v-8.1h0l-2.3,1.5v-1.9l2.5-1.6h2Z"/>
        </g>
      </g>
    </g>
  </g>
</svg>