<svg width="168" height="128" viewBox="0 0 168 128" fill="none" xmlns="http://www.w3.org/2000/svg">
<path d="M35.6579 70.0001L42.5 63.158L40.9211 61.579L32.5 70.0001L40.9211 78.4211L42.5 76.8422L35.6579 70.0001Z" fill="#284162"/>
<path d="M63.8258 63.72C65.6924 63.72 67.0524 64.1 67.9058 64.86C68.7591 65.6067 69.1858 66.6533 69.1858 68C69.1858 68.8 69.0058 69.5467 68.6458 70.24C68.2991 70.9333 67.7124 71.5 66.8858 71.94C66.0591 72.3667 64.9391 72.58 63.5258 72.58H61.9858V78H59.8258V63.72H63.8258ZM63.6658 65.54H61.9858V70.76H63.2858C64.4991 70.76 65.4124 70.56 66.0258 70.16C66.6524 69.7467 66.9658 69.0533 66.9658 68.08C66.9658 67.2267 66.6991 66.5933 66.1658 66.18C65.6324 65.7533 64.7991 65.54 63.6658 65.54ZM77.1519 67.02C77.5785 67.02 77.9719 67.0533 78.3319 67.12L78.1119 69.1C77.7652 69.0067 77.4052 68.96 77.0319 68.96C76.4852 68.96 75.9785 69.0933 75.5119 69.36C75.0452 69.6267 74.6652 70.0133 74.3719 70.52C74.0919 71.0133 73.9519 71.6133 73.9519 72.32V78H71.8319V67.22H73.5119L73.7919 69.14H73.8719C74.2052 68.5667 74.6519 68.0733 75.2119 67.66C75.7719 67.2333 76.4185 67.02 77.1519 67.02ZM84.1773 67.02C85.5907 67.02 86.704 67.46 87.5173 68.34C88.3307 69.2067 88.7373 70.3933 88.7373 71.9V73.06H81.4973C81.524 74.1667 81.8107 75.0133 82.3573 75.6C82.9173 76.1867 83.6973 76.48 84.6973 76.48C85.3907 76.48 86.004 76.42 86.5373 76.3C87.084 76.1667 87.644 75.9733 88.2173 75.72V77.48C87.6707 77.7333 87.124 77.9133 86.5773 78.02C86.0307 78.14 85.3773 78.2 84.6173 78.2C83.5773 78.2 82.6573 77.9933 81.8573 77.58C81.0573 77.1667 80.4307 76.5533 79.9773 75.74C79.5373 74.9267 79.3173 73.9133 79.3173 72.7C79.3173 71.4867 79.5173 70.46 79.9173 69.62C80.3307 68.78 80.8973 68.14 81.6173 67.7C82.3507 67.2467 83.204 67.02 84.1773 67.02ZM84.1773 68.66C83.4173 68.66 82.804 68.9067 82.3373 69.4C81.884 69.8933 81.6173 70.5933 81.5373 71.5H86.6173C86.604 70.66 86.3973 69.98 85.9973 69.46C85.6107 68.9267 85.004 68.66 84.1773 68.66ZM87.1573 62.68V62.88C86.9573 63.12 86.6707 63.4333 86.2973 63.82C85.9373 64.1933 85.5507 64.5733 85.1373 64.96C84.7373 65.3333 84.3773 65.64 84.0573 65.88H82.6573V65.64C82.8573 65.4 83.084 65.1067 83.3373 64.76C83.5907 64.4 83.8307 64.04 84.0573 63.68C84.2973 63.3067 84.504 62.9733 84.6773 62.68H87.1573ZM95.7227 78.2C94.2293 78.2 93.0293 77.76 92.1227 76.88C91.216 75.9867 90.7627 74.5867 90.7627 72.68C90.7627 71.3467 90.9827 70.2667 91.4227 69.44C91.8627 68.6133 92.4693 68.0067 93.2427 67.62C94.016 67.22 94.896 67.02 95.8827 67.02C96.4827 67.02 97.0427 67.08 97.5627 67.2C98.096 67.32 98.536 67.4667 98.8827 67.64L98.2427 69.36C97.8693 69.2267 97.476 69.1067 97.0627 69C96.6493 68.88 96.2493 68.82 95.8627 68.82C93.916 68.82 92.9427 70.1 92.9427 72.66C92.9427 73.8867 93.1827 74.82 93.6627 75.46C94.1427 76.1 94.8493 76.42 95.7827 76.42C96.3693 76.42 96.896 76.3533 97.3627 76.22C97.8293 76.0867 98.256 75.9133 98.6427 75.7V77.54C98.256 77.7667 97.836 77.9333 97.3827 78.04C96.9293 78.1467 96.376 78.2 95.7227 78.2ZM105.427 67.02C106.841 67.02 107.954 67.46 108.767 68.34C109.581 69.2067 109.987 70.3933 109.987 71.9V73.06H102.747C102.774 74.1667 103.061 75.0133 103.607 75.6C104.167 76.1867 104.947 76.48 105.947 76.48C106.641 76.48 107.254 76.42 107.787 76.3C108.334 76.1667 108.894 75.9733 109.467 75.72V77.48C108.921 77.7333 108.374 77.9133 107.827 78.02C107.281 78.14 106.627 78.2 105.867 78.2C104.827 78.2 103.907 77.9933 103.107 77.58C102.307 77.1667 101.681 76.5533 101.227 75.74C100.787 74.9267 100.567 73.9133 100.567 72.7C100.567 71.4867 100.767 70.46 101.167 69.62C101.581 68.78 102.147 68.14 102.867 67.7C103.601 67.2467 104.454 67.02 105.427 67.02ZM105.427 68.66C104.667 68.66 104.054 68.9067 103.587 69.4C103.134 69.8933 102.867 70.5933 102.787 71.5H107.867C107.854 70.66 107.647 69.98 107.247 69.46C106.861 68.9267 106.254 68.66 105.427 68.66ZM108.407 62.68V62.88C108.207 63.12 107.921 63.4333 107.547 63.82C107.187 64.1933 106.801 64.5733 106.387 64.96C105.987 65.3333 105.627 65.64 105.307 65.88H103.907V65.64C104.107 65.4 104.334 65.1067 104.587 64.76C104.841 64.4 105.081 64.04 105.307 63.68C105.547 63.3067 105.754 62.9733 105.927 62.68H108.407ZM116.333 78.2C115.026 78.2 113.979 77.7333 113.193 76.8C112.406 75.8667 112.013 74.48 112.013 72.64C112.013 70.7867 112.413 69.3867 113.213 68.44C114.013 67.4933 115.066 67.02 116.373 67.02C117.186 67.02 117.853 67.1733 118.373 67.48C118.893 67.7867 119.313 68.16 119.633 68.6H119.753C119.726 68.4133 119.693 68.14 119.653 67.78C119.613 67.42 119.593 67.1067 119.593 66.84V62.8H121.713V78H120.053L119.693 76.56H119.593C119.286 77.0133 118.873 77.4 118.353 77.72C117.833 78.04 117.159 78.2 116.333 78.2ZM116.833 76.46C117.873 76.46 118.599 76.1733 119.013 75.6C119.439 75.0267 119.659 74.1533 119.673 72.98V72.66C119.673 71.3933 119.466 70.4267 119.053 69.76C118.653 69.0933 117.906 68.76 116.813 68.76C115.946 68.76 115.293 69.1067 114.853 69.8C114.413 70.4933 114.193 71.4533 114.193 72.68C114.193 73.8933 114.413 74.8267 114.853 75.48C115.293 76.1333 115.953 76.46 116.833 76.46ZM129.275 67.02C130.688 67.02 131.802 67.46 132.615 68.34C133.428 69.2067 133.835 70.3933 133.835 71.9V73.06H126.595C126.622 74.1667 126.908 75.0133 127.455 75.6C128.015 76.1867 128.795 76.48 129.795 76.48C130.488 76.48 131.102 76.42 131.635 76.3C132.182 76.1667 132.742 75.9733 133.315 75.72V77.48C132.768 77.7333 132.222 77.9133 131.675 78.02C131.128 78.14 130.475 78.2 129.715 78.2C128.675 78.2 127.755 77.9933 126.955 77.58C126.155 77.1667 125.528 76.5533 125.075 75.74C124.635 74.9267 124.415 73.9133 124.415 72.7C124.415 71.4867 124.615 70.46 125.015 69.62C125.428 68.78 125.995 68.14 126.715 67.7C127.448 67.2467 128.302 67.02 129.275 67.02ZM129.275 68.66C128.515 68.66 127.902 68.9067 127.435 69.4C126.982 69.8933 126.715 70.5933 126.635 71.5H131.715C131.702 70.66 131.495 69.98 131.095 69.46C130.708 68.9267 130.102 68.66 129.275 68.66ZM141.94 67.02C143.194 67.02 144.154 67.3333 144.82 67.96C145.487 68.5867 145.82 69.5933 145.82 70.98V78H143.72V71.28C143.72 69.6 142.98 68.76 141.5 68.76C140.407 68.76 139.647 69.0867 139.22 69.74C138.807 70.3933 138.6 71.3333 138.6 72.56V78H136.48V67.22H138.16L138.46 68.66H138.58C138.927 68.1 139.4 67.6867 140 67.42C140.614 67.1533 141.26 67.02 141.94 67.02ZM152.958 76.48C153.558 76.48 154.098 76.3933 154.578 76.22V77.82C154.351 77.9267 154.045 78.0133 153.658 78.08C153.271 78.16 152.885 78.2 152.498 78.2C151.911 78.2 151.371 78.1 150.878 77.9C150.398 77.7 150.011 77.3533 149.718 76.86C149.425 76.3667 149.278 75.68 149.278 74.8V68.84H147.778V67.88L149.358 67.08L150.098 64.8H151.398V67.22H154.478V68.84H151.398V74.76C151.398 75.3467 151.538 75.78 151.818 76.06C152.111 76.34 152.491 76.48 152.958 76.48Z" fill="#284162"/>
<path d="M57.9258 80.5H155.078V81.5H57.9258V80.5Z" fill="#284162"/>
<path d="M64.6625 112H62.9425V102.02C62.9425 101.447 62.9492 100.987 62.9625 100.64C62.9758 100.293 62.9958 99.9333 63.0225 99.56C62.8092 99.7733 62.6158 99.9533 62.4425 100.1C62.2692 100.247 62.0492 100.433 61.7825 100.66L60.2625 101.9L59.3425 100.72L63.2025 97.72H64.6625V112ZM79.7031 112.2C78.3698 112.2 77.3031 111.74 76.5031 110.82C75.7031 109.887 75.3031 108.5 75.3031 106.66C75.3031 104.82 75.7031 103.433 76.5031 102.5C77.3165 101.553 78.3898 101.08 79.7231 101.08C80.5498 101.08 81.2231 101.233 81.7431 101.54C82.2765 101.847 82.7098 102.22 83.0431 102.66H83.1631C83.1498 102.487 83.1231 102.233 83.0831 101.9C83.0565 101.553 83.0431 101.28 83.0431 101.08V96.8H84.8031V112H83.3831L83.1231 110.56H83.0431C82.7231 111.013 82.2965 111.4 81.7631 111.72C81.2298 112.04 80.5431 112.2 79.7031 112.2ZM79.9831 110.74C81.1165 110.74 81.9098 110.433 82.3631 109.82C82.8298 109.193 83.0631 108.253 83.0631 107V106.68C83.0631 105.347 82.8431 104.327 82.4031 103.62C81.9631 102.9 81.1498 102.54 79.9631 102.54C79.0165 102.54 78.3031 102.92 77.8231 103.68C77.3565 104.427 77.1231 105.433 77.1231 106.7C77.1231 107.98 77.3565 108.973 77.8231 109.68C78.3031 110.387 79.0231 110.74 79.9831 110.74ZM92.3478 101.08C93.2678 101.08 94.0545 101.28 94.7078 101.68C95.3745 102.08 95.8811 102.647 96.2278 103.38C96.5878 104.1 96.7678 104.947 96.7678 105.92V106.98H89.4278C89.4545 108.193 89.7611 109.12 90.3478 109.76C90.9478 110.387 91.7811 110.7 92.8478 110.7C93.5278 110.7 94.1278 110.64 94.6478 110.52C95.1811 110.387 95.7278 110.2 96.2878 109.96V111.5C95.7411 111.74 95.2011 111.913 94.6678 112.02C94.1345 112.14 93.5011 112.2 92.7678 112.2C91.7545 112.2 90.8545 111.993 90.0678 111.58C89.2945 111.167 88.6878 110.553 88.2478 109.74C87.8211 108.913 87.6078 107.907 87.6078 106.72C87.6078 105.547 87.8011 104.54 88.1878 103.7C88.5878 102.86 89.1411 102.213 89.8478 101.76C90.5678 101.307 91.4011 101.08 92.3478 101.08ZM92.3278 102.52C91.4878 102.52 90.8211 102.793 90.3278 103.34C89.8478 103.873 89.5611 104.62 89.4678 105.58H94.9278C94.9145 104.673 94.7011 103.94 94.2878 103.38C93.8745 102.807 93.2211 102.52 92.3278 102.52ZM108.492 103.24C109.959 103.24 111.126 103.607 111.992 104.34C112.859 105.073 113.292 106.107 113.292 107.44C113.292 108.92 112.819 110.087 111.872 110.94C110.939 111.78 109.632 112.2 107.952 112.2C107.219 112.2 106.526 112.133 105.872 112C105.232 111.867 104.692 111.673 104.252 111.42V109.76C104.732 110.053 105.312 110.287 105.992 110.46C106.686 110.62 107.346 110.7 107.972 110.7C109.026 110.7 109.872 110.453 110.512 109.96C111.166 109.453 111.492 108.673 111.492 107.62C111.492 106.687 111.206 105.973 110.632 105.48C110.059 104.973 109.152 104.72 107.912 104.72C107.539 104.72 107.112 104.753 106.632 104.82C106.152 104.887 105.766 104.953 105.472 105.02L104.592 104.46L105.132 97.72H112.292V99.32H106.632L106.292 103.46C106.519 103.42 106.826 103.373 107.212 103.32C107.599 103.267 108.026 103.24 108.492 103.24Z" fill="#284162"/>
<path d="M57.5625 114.5H114.432V115.5H57.5625V114.5Z" fill="#284162"/>
<g clip-path="url(#clip0_6135_18403)">
<rect x="34" width="1" height="60" fill="#C54600"/>
<g clip-path="url(#clip1_6135_18403)">
<rect x="22" width="24" height="24" rx="12" fill="#C54600"/>
<path d="M35.8302 6.81818V17H33.6775V8.86151H33.6178L31.2861 10.3232V8.41406L33.8067 6.81818H35.8302Z" fill="white"/>
</g>
</g>
<g clip-path="url(#clip2_6135_18403)">
<rect x="104" width="1" height="60" fill="#C54600"/>
<g clip-path="url(#clip3_6135_18403)">
<rect x="92" width="24" height="24" rx="12" fill="#C54600"/>
<path d="M100.416 17V15.4489L104.04 12.093C104.349 11.7947 104.607 11.5263 104.816 11.2876C105.028 11.049 105.189 10.8153 105.298 10.5866C105.408 10.3546 105.462 10.1044 105.462 9.83594C105.462 9.53764 105.394 9.28078 105.258 9.06534C105.123 8.84659 104.937 8.67921 104.702 8.56321C104.466 8.44389 104.199 8.38423 103.901 8.38423C103.59 8.38423 103.318 8.44721 103.086 8.57315C102.854 8.6991 102.675 8.87973 102.549 9.11506C102.423 9.35038 102.36 9.63044 102.36 9.95526H100.317C100.317 9.28906 100.467 8.7107 100.769 8.22017C101.071 7.72964 101.493 7.35014 102.037 7.08168C102.58 6.81321 103.207 6.67898 103.916 6.67898C104.645 6.67898 105.28 6.80824 105.82 7.06676C106.364 7.32197 106.786 7.67661 107.088 8.13068C107.39 8.58475 107.54 9.10511 107.54 9.69176C107.54 10.0762 107.464 10.4557 107.312 10.8303C107.163 11.2048 106.896 11.6207 106.511 12.0781C106.127 12.5322 105.585 13.0774 104.886 13.7138L103.399 15.1705V15.2401H107.675V17H100.416Z" fill="white"/>
</g>
</g>
<g clip-path="url(#clip4_6135_18403)">
<rect y="102" width="48" height="1" fill="#C54600"/>
<g clip-path="url(#clip5_6135_18403)">
<rect y="90" width="24" height="24" rx="12" fill="#C54600"/>
<path d="M11.9745 107.139C11.2321 107.139 10.5709 107.012 9.99086 106.756C9.41415 106.498 8.95842 106.143 8.62367 105.692C8.29223 105.238 8.12154 104.715 8.11159 104.121H10.2792C10.2925 104.37 10.3737 104.589 10.5228 104.778C10.6753 104.963 10.8775 105.107 11.1294 105.21C11.3812 105.313 11.6646 105.364 11.9795 105.364C12.3076 105.364 12.5976 105.306 12.8495 105.19C13.1014 105.074 13.2986 104.914 13.4411 104.708C13.5837 104.503 13.6549 104.266 13.6549 103.997C13.6549 103.725 13.5787 103.485 13.4262 103.276C13.2771 103.064 13.0616 102.898 12.7799 102.779C12.5015 102.66 12.1701 102.6 11.7856 102.6H10.836V101.019H11.7856C12.1104 101.019 12.3971 100.963 12.6457 100.85C12.8976 100.737 13.0931 100.582 13.2323 100.383C13.3715 100.181 13.4411 99.9453 13.4411 99.6768C13.4411 99.4216 13.3798 99.1979 13.2572 99.0057C13.1379 98.8101 12.9688 98.6577 12.7501 98.5483C12.5347 98.4389 12.2828 98.3842 11.9944 98.3842C11.7027 98.3842 11.4359 98.4373 11.194 98.5433C10.952 98.6461 10.7581 98.7936 10.6123 98.9858C10.4665 99.178 10.3886 99.4034 10.3786 99.6619H8.31543C8.32537 99.0753 8.49275 98.5582 8.81756 98.1108C9.14237 97.6634 9.57987 97.3137 10.1301 97.0618C10.6836 96.8066 11.3083 96.679 12.0044 96.679C12.707 96.679 13.3218 96.8066 13.8488 97.0618C14.3758 97.317 14.7851 97.6617 15.0768 98.0959C15.3718 98.5268 15.5176 99.0107 15.5143 99.5476C15.5176 100.118 15.3403 100.593 14.9823 100.974C14.6277 101.356 14.1653 101.598 13.5953 101.7V101.78C14.3443 101.876 14.9144 102.136 15.3055 102.56C15.6999 102.981 15.8954 103.508 15.8921 104.141C15.8954 104.721 15.7281 105.237 15.39 105.688C15.0553 106.138 14.5929 106.493 14.0029 106.751C13.413 107.01 12.7368 107.139 11.9745 107.139Z" fill="white"/>
</g>
</g>
<defs>
<clipPath id="clip0_6135_18403">
<rect width="24" height="60" fill="white" transform="translate(22)"/>
</clipPath>
<clipPath id="clip1_6135_18403">
<rect x="22" width="24" height="24" rx="12" fill="white"/>
</clipPath>
<clipPath id="clip2_6135_18403">
<rect width="24" height="60" fill="white" transform="translate(92)"/>
</clipPath>
<clipPath id="clip3_6135_18403">
<rect x="92" width="24" height="24" rx="12" fill="white"/>
</clipPath>
<clipPath id="clip4_6135_18403">
<rect width="48" height="24" fill="white" transform="translate(0 90)"/>
</clipPath>
<clipPath id="clip5_6135_18403">
<rect y="90" width="24" height="24" rx="12" fill="white"/>
</clipPath>
</defs>
</svg>
