<svg width="174" height="124" viewBox="0 0 174 124" fill="none" xmlns="http://www.w3.org/2000/svg">
<path d="M26.448 87.18C25.2213 87.18 24.256 87.5907 23.552 88.412C22.848 89.2333 22.496 90.3587 22.496 91.788C22.496 93.2067 22.8213 94.332 23.472 95.164C24.1333 95.9853 25.12 96.396 26.432 96.396C26.9333 96.396 27.408 96.3533 27.856 96.268C28.304 96.1827 28.7413 96.076 29.168 95.948V97.196C28.7413 97.356 28.2987 97.4733 27.84 97.548C27.392 97.6227 26.8533 97.66 26.224 97.66C25.0613 97.66 24.0907 97.42 23.312 96.94C22.5333 96.46 21.9467 95.7773 21.552 94.892C21.168 94.0067 20.976 92.9667 20.976 91.772C20.976 90.62 21.184 89.6067 21.6 88.732C22.0267 87.8467 22.6507 87.1587 23.472 86.668C24.2933 86.1667 25.2907 85.916 26.464 85.916C27.6693 85.916 28.72 86.14 29.616 86.588L29.04 87.804C28.688 87.644 28.2933 87.5 27.856 87.372C27.4293 87.244 26.96 87.18 26.448 87.18ZM34.7174 88.78C35.7627 88.78 36.536 89.0093 37.0374 89.468C37.5387 89.9267 37.7894 90.6573 37.7894 91.66V97.5H36.7654L36.4934 96.284H36.4294C36.056 96.7533 35.6614 97.1 35.2454 97.324C34.84 97.548 34.2747 97.66 33.5494 97.66C32.7707 97.66 32.1254 97.4573 31.6134 97.052C31.1014 96.636 30.8454 95.9907 30.8454 95.116C30.8454 94.2627 31.1814 93.6067 31.8534 93.148C32.5254 92.6787 33.56 92.4227 34.9574 92.38L36.4134 92.332V91.82C36.4134 91.1053 36.2587 90.6093 35.9494 90.332C35.64 90.0547 35.2027 89.916 34.6374 89.916C34.1894 89.916 33.7627 89.9853 33.3574 90.124C32.952 90.252 32.5734 90.4013 32.2214 90.572L31.7894 89.516C32.1627 89.3133 32.6054 89.1427 33.1174 89.004C33.6294 88.8547 34.1627 88.78 34.7174 88.78ZM35.1334 93.356C34.0667 93.3987 33.3254 93.5693 32.9094 93.868C32.504 94.1667 32.3014 94.588 32.3014 95.132C32.3014 95.612 32.4454 95.964 32.7334 96.188C33.032 96.412 33.4107 96.524 33.8694 96.524C34.5947 96.524 35.1974 96.3267 35.6774 95.932C36.1574 95.5267 36.3974 94.908 36.3974 94.076V93.308L35.1334 93.356ZM44.5661 88.764C45.5901 88.764 46.3635 89.0147 46.8861 89.516C47.4088 90.0067 47.6701 90.8067 47.6701 91.916V97.5H46.2781V92.012C46.2781 90.636 45.6381 89.948 44.3581 89.948C43.4088 89.948 42.7528 90.2147 42.3901 90.748C42.0275 91.2813 41.8461 92.0493 41.8461 93.052V97.5H40.4381V88.924H41.5741L41.7821 90.092H41.8621C42.1395 89.644 42.5235 89.3133 43.0141 89.1C43.5048 88.876 44.0221 88.764 44.5661 88.764ZM53.5768 88.78C54.6221 88.78 55.3954 89.0093 55.8968 89.468C56.3981 89.9267 56.6488 90.6573 56.6488 91.66V97.5H55.6248L55.3528 96.284H55.2888C54.9154 96.7533 54.5208 97.1 54.1048 97.324C53.6994 97.548 53.1341 97.66 52.4088 97.66C51.6301 97.66 50.9848 97.4573 50.4728 97.052C49.9608 96.636 49.7048 95.9907 49.7048 95.116C49.7048 94.2627 50.0408 93.6067 50.7128 93.148C51.3848 92.6787 52.4194 92.4227 53.8168 92.38L55.2728 92.332V91.82C55.2728 91.1053 55.1181 90.6093 54.8088 90.332C54.4994 90.0547 54.0621 89.916 53.4968 89.916C53.0488 89.916 52.6221 89.9853 52.2168 90.124C51.8114 90.252 51.4328 90.4013 51.0807 90.572L50.6488 89.516C51.0221 89.3133 51.4648 89.1427 51.9768 89.004C52.4888 88.8547 53.0221 88.78 53.5768 88.78ZM53.9928 93.356C52.9261 93.3987 52.1848 93.5693 51.7688 93.868C51.3634 94.1667 51.1608 94.588 51.1608 95.132C51.1608 95.612 51.3048 95.964 51.5928 96.188C51.8914 96.412 52.2701 96.524 52.7288 96.524C53.4541 96.524 54.0568 96.3267 54.5368 95.932C55.0168 95.5267 55.2568 94.908 55.2568 94.076V93.308L53.9928 93.356ZM62.3375 97.66C61.2708 97.66 60.4175 97.292 59.7775 96.556C59.1375 95.8093 58.8175 94.7 58.8175 93.228C58.8175 91.756 59.1375 90.6467 59.7775 89.9C60.4282 89.1427 61.2868 88.764 62.3535 88.764C63.0148 88.764 63.5535 88.8867 63.9695 89.132C64.3962 89.3773 64.7428 89.676 65.0095 90.028H65.1055C65.0948 89.8893 65.0735 89.6867 65.0415 89.42C65.0202 89.1427 65.0095 88.924 65.0095 88.764V85.34H66.4175V97.5H65.2815L65.0735 96.348H65.0095C64.7535 96.7107 64.4122 97.02 63.9855 97.276C63.5588 97.532 63.0095 97.66 62.3375 97.66ZM62.5615 96.492C63.4682 96.492 64.1028 96.2467 64.4655 95.756C64.8388 95.2547 65.0255 94.5027 65.0255 93.5V93.244C65.0255 92.1773 64.8495 91.3613 64.4975 90.796C64.1455 90.22 63.4948 89.932 62.5455 89.932C61.7882 89.932 61.2175 90.236 60.8335 90.844C60.4602 91.4413 60.2735 92.2467 60.2735 93.26C60.2735 94.284 60.4602 95.0787 60.8335 95.644C61.2175 96.2093 61.7935 96.492 62.5615 96.492ZM72.3893 88.78C73.4346 88.78 74.2079 89.0093 74.7093 89.468C75.2106 89.9267 75.4613 90.6573 75.4613 91.66V97.5H74.4373L74.1653 96.284H74.1013C73.7279 96.7533 73.3333 97.1 72.9173 97.324C72.5119 97.548 71.9466 97.66 71.2213 97.66C70.4426 97.66 69.7973 97.4573 69.2853 97.052C68.7733 96.636 68.5173 95.9907 68.5173 95.116C68.5173 94.2627 68.8533 93.6067 69.5253 93.148C70.1973 92.6787 71.2319 92.4227 72.6293 92.38L74.0853 92.332V91.82C74.0853 91.1053 73.9306 90.6093 73.6213 90.332C73.3119 90.0547 72.8746 89.916 72.3093 89.916C71.8613 89.916 71.4346 89.9853 71.0293 90.124C70.6239 90.252 70.2453 90.4013 69.8932 90.572L69.4613 89.516C69.8346 89.3133 70.2773 89.1427 70.7893 89.004C71.3013 88.8547 71.8346 88.78 72.3893 88.78ZM72.8053 93.356C71.7386 93.3987 70.9973 93.5693 70.5813 93.868C70.1759 94.1667 69.9733 94.588 69.9733 95.132C69.9733 95.612 70.1173 95.964 70.4053 96.188C70.7039 96.412 71.0826 96.524 71.5413 96.524C72.2666 96.524 72.8693 96.3267 73.3493 95.932C73.8293 95.5267 74.0693 94.908 74.0693 94.076V93.308L72.8053 93.356ZM77.902 96.636C77.902 96.2413 77.998 95.964 78.19 95.804C78.382 95.644 78.6113 95.564 78.878 95.564C79.1553 95.564 79.39 95.644 79.582 95.804C79.7847 95.964 79.886 96.2413 79.886 96.636C79.886 97.02 79.7847 97.2973 79.582 97.468C79.39 97.6387 79.1553 97.724 78.878 97.724C78.6113 97.724 78.382 97.6387 78.19 97.468C77.998 97.2973 77.902 97.02 77.902 96.636ZM85.8313 97.66C85.0739 97.66 84.3966 97.5053 83.7993 97.196C83.2126 96.8867 82.7486 96.4067 82.4073 95.756C82.0766 95.1053 81.9113 94.2733 81.9113 93.26C81.9113 92.204 82.0873 91.3453 82.4393 90.684C82.7913 90.0227 83.2659 89.5373 83.8633 89.228C84.4713 88.9187 85.1593 88.764 85.9273 88.764C86.3646 88.764 86.7859 88.812 87.1913 88.908C87.5966 88.9933 87.9273 89.1 88.1833 89.228L87.7513 90.396C87.4953 90.3 87.1966 90.2093 86.8553 90.124C86.5139 90.0387 86.1939 89.996 85.8953 89.996C84.2099 89.996 83.3673 91.0787 83.3673 93.244C83.3673 94.2787 83.5699 95.0733 83.9753 95.628C84.3913 96.172 85.0046 96.444 85.8153 96.444C86.2846 96.444 86.6953 96.396 87.0473 96.3C87.4099 96.204 87.7406 96.0867 88.0393 95.948V97.196C87.7513 97.3453 87.4313 97.4573 87.0793 97.532C86.7379 97.6173 86.3219 97.66 85.8313 97.66ZM93.3268 88.78C94.3721 88.78 95.1454 89.0093 95.6468 89.468C96.1481 89.9267 96.3988 90.6573 96.3988 91.66V97.5H95.3748L95.1028 96.284H95.0388C94.6654 96.7533 94.2708 97.1 93.8548 97.324C93.4494 97.548 92.8841 97.66 92.1588 97.66C91.3801 97.66 90.7348 97.4573 90.2228 97.052C89.7108 96.636 89.4548 95.9907 89.4548 95.116C89.4548 94.2627 89.7908 93.6067 90.4628 93.148C91.1348 92.6787 92.1694 92.4227 93.5668 92.38L95.0228 92.332V91.82C95.0228 91.1053 94.8681 90.6093 94.5588 90.332C94.2494 90.0547 93.8121 89.916 93.2468 89.916C92.7988 89.916 92.3721 89.9853 91.9668 90.124C91.5614 90.252 91.1828 90.4013 90.8307 90.572L90.3988 89.516C90.7721 89.3133 91.2148 89.1427 91.7268 89.004C92.2388 88.8547 92.7721 88.78 93.3268 88.78ZM93.7428 93.356C92.6761 93.3987 91.9348 93.5693 91.5188 93.868C91.1134 94.1667 90.9108 94.588 90.9108 95.132C90.9108 95.612 91.0548 95.964 91.3428 96.188C91.6414 96.412 92.0201 96.524 92.4788 96.524C93.2041 96.524 93.8068 96.3267 94.2868 95.932C94.7668 95.5267 95.0068 94.908 95.0068 94.076V93.308L93.7428 93.356Z" fill="#284162"/>
<path d="M20 100H97.6947V101H20V100Z" fill="#284162"/>
<path d="M111.312 91.5L106.438 96.375L107.562 97.5L113.562 91.5L107.562 85.5L106.438 86.625L111.312 91.5Z" fill="#333333"/>
<path d="M123.552 97.5V86.076H124.992V96.22H129.984V97.5H123.552ZM132.471 85.708C132.684 85.708 132.871 85.7827 133.031 85.932C133.201 86.0707 133.287 86.2947 133.287 86.604C133.287 86.9027 133.201 87.1267 133.031 87.276C132.871 87.4253 132.684 87.5 132.471 87.5C132.236 87.5 132.039 87.4253 131.879 87.276C131.719 87.1267 131.639 86.9027 131.639 86.604C131.639 86.2947 131.719 86.0707 131.879 85.932C132.039 85.7827 132.236 85.708 132.471 85.708ZM133.159 88.924V97.5H131.751V88.924H133.159ZM139.188 88.764C139.924 88.764 140.553 88.924 141.076 89.244C141.609 89.564 142.014 90.0173 142.292 90.604C142.58 91.18 142.724 91.8573 142.724 92.636V93.484H136.852C136.873 94.4547 137.118 95.196 137.588 95.708C138.068 96.2093 138.734 96.46 139.588 96.46C140.132 96.46 140.612 96.412 141.028 96.316C141.454 96.2093 141.892 96.06 142.34 95.868V97.1C141.902 97.292 141.47 97.4307 141.044 97.516C140.617 97.612 140.11 97.66 139.524 97.66C138.713 97.66 137.993 97.4947 137.364 97.164C136.745 96.8333 136.26 96.3427 135.908 95.692C135.566 95.0307 135.396 94.2253 135.396 93.276C135.396 92.3373 135.55 91.532 135.86 90.86C136.18 90.188 136.622 89.6707 137.188 89.308C137.764 88.9453 138.43 88.764 139.188 88.764ZM139.172 89.916C138.5 89.916 137.966 90.1347 137.572 90.572C137.188 90.9987 136.958 91.596 136.884 92.364H141.252C141.241 91.6387 141.07 91.052 140.74 90.604C140.409 90.1453 139.886 89.916 139.172 89.916ZM149.035 88.764C150.059 88.764 150.832 89.0147 151.355 89.516C151.878 90.0067 152.139 90.8067 152.139 91.916V97.5H150.747V92.012C150.747 90.636 150.107 89.948 148.827 89.948C147.878 89.948 147.222 90.2147 146.859 90.748C146.496 91.2813 146.315 92.0493 146.315 93.052V97.5H144.907V88.924H146.043L146.251 90.092H146.331C146.608 89.644 146.992 89.3133 147.483 89.1C147.974 88.876 148.491 88.764 149.035 88.764Z" fill="#284162"/>
<path d="M122 100H153.435V101H122V100Z" fill="#284162"/>
<g clip-path="url(#clip0_7495_848)">
<rect x="138" y="20" width="1" height="52.5" fill="#C54600"/>
<g clip-path="url(#clip1_7495_848)">
<rect x="126" y="20" width="24" height="24" rx="12" fill="#C54600"/>
<path d="M137.975 37.1392C137.232 37.1392 136.571 37.0116 135.991 36.7564C135.414 36.4979 134.958 36.1432 134.624 35.6925C134.292 35.2384 134.122 34.7147 134.112 34.1214H136.279C136.292 34.37 136.374 34.5888 136.523 34.7777C136.675 34.9633 136.877 35.1075 137.129 35.2102C137.381 35.313 137.665 35.3643 137.979 35.3643C138.308 35.3643 138.598 35.3063 138.85 35.1903C139.101 35.0743 139.299 34.9136 139.441 34.7081C139.584 34.5026 139.655 34.2656 139.655 33.9972C139.655 33.7254 139.579 33.4851 139.426 33.2763C139.277 33.0642 139.062 32.8984 138.78 32.7791C138.502 32.6598 138.17 32.6001 137.786 32.6001H136.836V31.0192H137.786C138.11 31.0192 138.397 30.9628 138.646 30.8501C138.898 30.7375 139.093 30.5817 139.232 30.3828C139.372 30.1806 139.441 29.9453 139.441 29.6768C139.441 29.4216 139.38 29.1979 139.257 29.0057C139.138 28.8101 138.969 28.6577 138.75 28.5483C138.535 28.4389 138.283 28.3842 137.994 28.3842C137.703 28.3842 137.436 28.4373 137.194 28.5433C136.952 28.6461 136.758 28.7936 136.612 28.9858C136.466 29.178 136.389 29.4034 136.379 29.6619H134.315C134.325 29.0753 134.493 28.5582 134.818 28.1108C135.142 27.6634 135.58 27.3137 136.13 27.0618C136.684 26.8066 137.308 26.679 138.004 26.679C138.707 26.679 139.322 26.8066 139.849 27.0618C140.376 27.317 140.785 27.6617 141.077 28.0959C141.372 28.5268 141.518 29.0107 141.514 29.5476C141.518 30.1177 141.34 30.5933 140.982 30.9744C140.628 31.3556 140.165 31.5975 139.595 31.7003V31.7798C140.344 31.8759 140.914 32.1361 141.305 32.5604C141.7 32.9813 141.895 33.5083 141.892 34.1413C141.895 34.7214 141.728 35.2367 141.39 35.6875C141.055 36.1383 140.593 36.4929 140.003 36.7514C139.413 37.0099 138.737 37.1392 137.975 37.1392Z" fill="white"/>
</g>
</g>
<g clip-path="url(#clip2_7495_848)">
<rect x="110" y="20" width="1" height="51" fill="#C54600"/>
<g clip-path="url(#clip3_7495_848)">
<rect x="98" y="20" width="24" height="24" rx="12" fill="#C54600"/>
<path d="M106.416 37V35.4489L110.04 32.093C110.349 31.7947 110.607 31.5263 110.816 31.2876C111.028 31.049 111.189 30.8153 111.298 30.5866C111.408 30.3546 111.462 30.1044 111.462 29.8359C111.462 29.5376 111.394 29.2808 111.258 29.0653C111.123 28.8466 110.937 28.6792 110.702 28.5632C110.466 28.4439 110.199 28.3842 109.901 28.3842C109.59 28.3842 109.318 28.4472 109.086 28.5732C108.854 28.6991 108.675 28.8797 108.549 29.1151C108.423 29.3504 108.36 29.6304 108.36 29.9553H106.317C106.317 29.2891 106.467 28.7107 106.769 28.2202C107.071 27.7296 107.493 27.3501 108.037 27.0817C108.58 26.8132 109.207 26.679 109.916 26.679C110.645 26.679 111.28 26.8082 111.82 27.0668C112.364 27.322 112.786 27.6766 113.088 28.1307C113.39 28.5848 113.54 29.1051 113.54 29.6918C113.54 30.0762 113.464 30.4557 113.312 30.8303C113.163 31.2048 112.896 31.6207 112.511 32.0781C112.127 32.5322 111.585 33.0774 110.886 33.7138L109.399 35.1705V35.2401H113.675V37H106.416Z" fill="white"/>
</g>
</g>
<g clip-path="url(#clip4_7495_848)">
<rect x="59" y="20" width="1" height="52.5" fill="#C54600"/>
<g clip-path="url(#clip5_7495_848)">
<rect x="47" y="20" width="24" height="24" rx="12" fill="#C54600"/>
<path d="M60.8302 26.8182V37H58.6775V28.8615H58.6178L56.2861 30.3232V28.4141L58.8067 26.8182H60.8302Z" fill="white"/>
</g>
</g>
<defs>
<clipPath id="clip0_7495_848">
<rect width="24" height="52.5" fill="white" transform="translate(126 20)"/>
</clipPath>
<clipPath id="clip1_7495_848">
<rect x="126" y="20" width="24" height="24" rx="12" fill="white"/>
</clipPath>
<clipPath id="clip2_7495_848">
<rect width="24" height="51" fill="white" transform="translate(98 20)"/>
</clipPath>
<clipPath id="clip3_7495_848">
<rect x="98" y="20" width="24" height="24" rx="12" fill="white"/>
</clipPath>
<clipPath id="clip4_7495_848">
<rect width="24" height="52.5" fill="white" transform="translate(47 20)"/>
</clipPath>
<clipPath id="clip5_7495_848">
<rect x="47" y="20" width="24" height="24" rx="12" fill="white"/>
</clipPath>
</defs>
</svg>
