<svg xmlns="http://www.w3.org/2000/svg" xmlns:xlink="http://www.w3.org/1999/xlink" xml:space="preserve" id="Layer_1" x="0" y="0" style="enable-background:new 0 0 782 108" version="1.1" viewBox="0 0 782 108">
  <style>
    .st1{fill:red}.st3{fill:#c54600}.st5{fill:#fff}
  </style>
  <defs>
    <path id="SVGID_1_" d="M119 42.7h54v27h-54z"/>
  </defs>
  <clipPath id="SVGID_00000010277807167411833860000010423034059959575963_">
    <use xlink:href="#SVGID_1_" style="overflow:visible"/>
  </clipPath>
  <g style="clip-path:url(#SVGID_00000010277807167411833860000010423034059959575963_)">
    <path d="M119 42.7h13.5v27H119zM146 45.3l-1.8 3.6c-.2.3-.4.3-.7.1l-1.7-1 1.1 5.4c.2.7-.4 1-.8.5l-2.3-2.5-.6 1.3c-.2.3-.3.5-1 .3l-2.3-.5.9 2.9c.1.4.1.6-.1.8l-.9.5 4.7 3.9c.4.3.4.7.2 1.2l-.5 1.3 4-.8c.9-.2 1.2-.2 1.2.3l-.2 4.4h1.3l-.2-4.5c0-.4.4-.4.9-.3l4.3.8-.4-1.3c-.2-.6-.3-.7.1-1.2l4.7-4-.8-.4c-.4-.2-.2-.5-.1-.9v-.1l.8-2.9-2.3.5c-.4.1-.7.1-.9-.3l-.6-1.3-2.2 2.4c-.6.7-1.1.4-.9-.6l1-5-1.5.8c-.4.2-.5.2-.8-.2l-1.6-3.2zM159.5 42.7H173v27h-13.5z" class="st1"/>
  </g>
  <path d="M208.2 53.7h-1.3l-.3-1.3c-.5.6-1.1 1-1.6 1.3-.5.2-1.1.4-1.8.4-.9 0-1.6-.2-2.3-.5s-1.2-.8-1.7-1.3-.8-1.2-1.1-1.9c-.2-.7-.4-1.5-.4-2.3s.1-1.6.4-2.3c.3-.7.6-1.4 1.1-1.9s1-1 1.7-1.3 1.5-.5 2.3-.5c.6 0 1.2.1 1.8.3s1.1.4 1.5.7.8.7 1.1 1.2.5 1.1.5 1.7h-2c-.1-.4-.2-.7-.4-1s-.4-.5-.7-.7-.6-.3-.9-.4c-.3-.1-.7-.1-1-.1-.6 0-1.1.1-1.6.4-.4.2-.8.6-1.1 1s-.5.9-.6 1.4-.2 1.1-.2 1.6.1 1.1.2 1.6.3 1 .6 1.4.6.7 1.1 1c.4.2 1 .4 1.6.4.5 0 1-.1 1.4-.2.4-.1.7-.4 1-.6.3-.3.5-.6.6-1s.2-.8.2-1.3h-3V48h4.9v5.7zm5.7.2c-.7 0-1.3-.1-1.8-.3s-.9-.5-1.3-.9-.6-.8-.8-1.4c-.2-.5-.3-1.1-.3-1.8 0-.6.1-1.2.3-1.7s.5-1 .8-1.4c.4-.4.8-.7 1.3-.9s1.1-.3 1.8-.3 1.2.1 1.8.3c.5.2 1 .5 1.3.9.4.4.6.8.8 1.4.2.5.3 1.1.3 1.7 0 .6-.1 1.2-.3 1.8-.2.5-.5 1-.8 1.4-.4.4-.8.7-1.3.9-.6.2-1.1.3-1.8.3zm0-1.4c.4 0 .8-.1 1.1-.3s.5-.4.7-.7.3-.6.4-.9c.1-.4.1-.7.1-1.1 0-.4 0-.7-.1-1.1-.1-.4-.2-.7-.4-.9-.2-.3-.4-.5-.7-.7s-.7-.3-1.1-.3c-.4 0-.8.1-1.1.3s-.5.4-.7.7-.3.6-.4.9c-.1.4-.1.7-.1 1.1 0 .4 0 .7.1 1.1.1.3.2.7.4.9.2.3.4.5.7.7.3.2.7.3 1.1.3zm12.9 1.2H225v-1.2c-.2.4-.6.8-1 1s-.9.4-1.3.4c-1.1 0-1.9-.3-2.4-.8s-.7-1.4-.7-2.4v-5.2h1.8v5.1c0 .7.1 1.2.4 1.5.3.3.7.4 1.2.4.4 0 .7-.1 1-.2.3-.1.5-.3.6-.5.2-.2.3-.4.3-.7.1-.3.1-.6.1-.9v-4.8h1.8v8.3zm1.2-8.2h2l2.1 6.4 2-6.4h1.9l-3 8.3h-2l-3-8.3zm14.7 3.4c0-.3-.1-.6-.2-.8-.1-.3-.2-.5-.4-.7s-.4-.4-.6-.5c-.2-.1-.5-.2-.8-.2s-.6.1-.9.2c-.3.1-.5.3-.7.5s-.3.4-.4.7c-.1.3-.2.6-.2.9h4.2v-.1zm-4.2 1.2c0 .3 0 .6.1.9.1.3.2.6.4.8s.4.4.7.5.6.2 1 .2c.5 0 1-.1 1.3-.3s.6-.6.7-1h1.7c-.1.4-.3.8-.5 1.2s-.5.7-.8.9-.7.4-1.1.5c-.4.1-.8.2-1.3.2-.6 0-1.2-.1-1.7-.3s-.9-.5-1.3-.9c-.3-.4-.6-.8-.8-1.4-.2-.5-.3-1.1-.3-1.8 0-.6.1-1.1.3-1.7.2-.5.5-1 .8-1.4.4-.4.8-.7 1.3-1 .5-.2 1-.4 1.7-.4s1.2.1 1.7.4c.5.3 1 .6 1.3 1.1.3.4.6 1 .7 1.6.2.6.2 1.2.1 1.8h-6v.1zm7.5-4.6h1.7v1.6c.1-.2.2-.4.3-.7.2-.2.3-.4.6-.6.2-.2.5-.3.7-.4.3-.1.5-.2.8-.2h.7V47h-.8c-.3 0-.6.1-.9.2-.3.1-.5.3-.7.5s-.4.5-.5.9-.2.8-.2 1.2v3.9H246v-8.2zm5.9 0h1.7v1.2c.3-.5.6-.8 1.1-1.1.4-.3.9-.4 1.5-.4.9 0 1.6.2 2.1.7s.8 1.2.8 2.1v5.7h-1.8v-5.2c0-.7-.2-1.1-.4-1.4-.3-.3-.7-.4-1.2-.4-.3 0-.6.1-.8.2-.2.1-.5.3-.6.5-.2.2-.3.4-.4.7-.1.3-.1.5-.1.8v4.9H252v-8.3h-.1zm14.8 3.4c0-.3-.1-.6-.2-.8-.1-.3-.2-.5-.4-.7-.2-.2-.4-.4-.6-.5s-.5-.2-.8-.2-.6.1-.9.2c-.3.1-.5.3-.7.5s-.3.4-.4.7-.2.6-.2.9h4.2v-.1zm-4.2 1.2c0 .3 0 .6.1.9.1.3.2.6.4.8.2.2.4.4.7.5.3.1.6.2 1 .2.5 0 1-.1 1.3-.3s.6-.6.7-1h1.7c-.1.4-.3.8-.5 1.2s-.5.7-.8.9-.7.4-1.1.5-.8.2-1.3.2c-.7 0-1.2-.1-1.7-.3s-.9-.5-1.3-.9c-.3-.4-.6-.8-.8-1.4-.2-.5-.3-1.1-.3-1.8 0-.6.1-1.1.3-1.7.2-.5.5-1 .8-1.4.4-.4.8-.7 1.3-1 .5-.2 1-.4 1.7-.4.6 0 1.2.1 1.7.4.5.3 1 .6 1.3 1.1.3.4.6 1 .7 1.6.2.6.2 1.2.1 1.8h-6v.1zm7.4-4.6h1.7v1.2c.1-.2.3-.4.4-.6.2-.2.3-.3.5-.4.2-.1.4-.2.7-.3.3-.1.5-.1.9-.1.5 0 1 .1 1.4.3s.7.6.9 1c.3-.4.7-.8 1.1-1s.9-.4 1.5-.4c.9 0 1.6.2 2 .6.5.4.7 1.1.7 2.1v5.7h-1.8v-5.7c0-.3-.1-.5-.2-.7s-.2-.4-.4-.5c-.2-.1-.5-.2-.8-.2-.6 0-1.1.2-1.3.6-.3.4-.4.9-.4 1.6v4.8H275v-5.3c0-.6-.1-1-.3-1.3-.2-.3-.6-.4-1.1-.4-.2 0-.5 0-.7.1s-.4.2-.6.4-.3.4-.4.7-.1.6-.1.9v4.9H270v-8h-.1zm19.6 3.4c0-.3-.1-.6-.2-.8-.1-.3-.2-.5-.4-.7-.2-.2-.4-.4-.6-.5s-.5-.2-.8-.2-.6.1-.9.2c-.3.1-.5.3-.7.5s-.3.4-.4.7-.2.6-.2.9h4.2v-.1zm-4.2 1.2c0 .3 0 .6.1.9.1.3.2.6.4.8.2.2.4.4.7.5.3.1.6.2 1 .2.5 0 1-.1 1.3-.3s.6-.6.7-1h1.7c-.1.4-.3.8-.5 1.2s-.5.7-.8.9-.7.4-1.1.5-.8.2-1.3.2c-.6 0-1.2-.1-1.7-.3s-.9-.5-1.3-.9c-.3-.4-.6-.8-.8-1.4-.2-.5-.3-1.1-.3-1.8 0-.6.1-1.1.3-1.7.2-.5.5-1 .8-1.4.4-.4.8-.7 1.3-1 .5-.2 1-.4 1.7-.4s1.2.1 1.7.4c.5.3 1 .6 1.3 1.1.3.4.6 1 .7 1.6.2.6.2 1.2.1 1.8h-6v.1zm7.5-4.6h1.7v1.2c.3-.5.6-.8 1.1-1.1.4-.3.9-.4 1.5-.4.9 0 1.6.2 2.1.7s.8 1.2.8 2.1v5.7h-1.8v-5.2c0-.7-.2-1.1-.4-1.4-.3-.3-.7-.4-1.2-.4-.3 0-.6.1-.8.2-.2.1-.5.3-.6.5-.2.2-.3.4-.4.7s-.1.5-.1.8v4.9h-1.8v-8.3h-.1zm8.3 0h1.4V43h1.8v2.5h1.6v1.4h-1.6v4.9c0 .1.1.3.1.4.1.1.2.2.3.2.1 0 .3.1.5.1h.4c.1 0 .3 0 .4-.1v1.4c-.2 0-.4 0-.6.1h-.6c-.5 0-.9 0-1.2-.1-.3-.1-.5-.2-.7-.4s-.3-.4-.3-.7c-.1-.3-.1-.6-.1-.9v-4.9h-1.4v-1.4zm-95.3 24.2H204v-1.1c-.2.5-.6.8-1.1 1s-1 .3-1.5.3c-.7 0-1.2-.1-1.7-.3-.5-.2-.9-.5-1.2-.9s-.6-.9-.7-1.4c-.2-.5-.2-1.1-.2-1.7 0-.7.1-1.4.3-1.9s.5-1 .8-1.3c.3-.4.7-.6 1.2-.8.4-.2.9-.3 1.3-.3.3 0 .5 0 .8.1.3 0 .5.1.8.2.2.1.5.2.7.4s.4.4.5.6v-4.2h1.8v11.3zm-6.4-4c0 .4 0 .7.1 1s.2.6.4.9.4.5.7.6c.3.2.6.2 1 .2s.8-.1 1-.3c.3-.2.5-.4.7-.7.2-.3.3-.6.4-.9.1-.4.1-.7.1-1.1 0-.9-.2-1.6-.6-2.1-.4-.5-1-.8-1.7-.8-.4 0-.8.1-1.1.3s-.5.4-.7.7-.3.6-.4 1c.1.4.1.8.1 1.2zm15.6 4h-1.8v-1.2c-.2.4-.6.8-1 1s-.9.4-1.3.4c-1.1 0-1.9-.3-2.4-.8s-.7-1.4-.7-2.4v-5.2h1.8v5.1c0 .7.1 1.2.4 1.5.3.3.7.4 1.2.4.4 0 .7-.1 1-.2s.5-.3.6-.5c.2-.2.3-.4.3-.7.1-.3.1-.6.1-.9v-4.8h1.8v8.3zm14.4-7.8c-.1-.3-.2-.6-.4-.9-.1-.3-.3-.5-.6-.7-.2-.2-.5-.4-.8-.5s-.7-.2-1.1-.2c-.6 0-1.1.1-1.6.4-.4.2-.8.6-1.1 1s-.5.9-.6 1.4-.2 1.1-.2 1.6.1 1.1.2 1.6.3 1 .6 1.4.6.7 1.1 1c.4.2 1 .4 1.6.4.4 0 .8-.1 1.2-.2l.9-.6c.2-.3.4-.6.6-1l.3-1.2h2c0 .7-.2 1.3-.4 1.9s-.6 1.1-1 1.5-.9.7-1.5.9c-.6.2-1.2.3-1.9.3-.9 0-1.6-.2-2.3-.5s-1.2-.8-1.7-1.3-.8-1.2-1.1-1.9c-.2-.7-.4-1.5-.4-2.3 0-.8.1-1.6.4-2.3.3-.7.6-1.4 1.1-1.9s1-1 1.7-1.3 1.5-.5 2.3-.5c.6 0 1.2.1 1.8.3s1.1.4 1.5.8c.4.3.8.7 1.1 1.2s.4 1 .5 1.6h-2.2zm10.5 6c0 .2 0 .4.1.5s.2.1.4.1h.5v1.3c-.1 0-.1 0-.3.1-.1 0-.2.1-.3.1h-.6c-.4 0-.7-.1-.9-.2s-.4-.4-.5-.8c-.4.4-.8.6-1.3.8-.5.2-1 .2-1.5.2-.4 0-.7-.1-1.1-.2-.3-.1-.6-.2-.9-.4-.3-.2-.5-.5-.6-.8-.2-.3-.2-.7-.2-1.1 0-.5.1-.9.3-1.2.2-.3.4-.6.7-.8.3-.2.7-.3 1-.4.4-.1.8-.1 1.2-.2.3-.1.6-.1.9-.1.3 0 .6-.1.8-.1.2-.1.4-.2.5-.3.1-.1.2-.3.2-.6 0-.2-.1-.4-.2-.6-.1-.1-.2-.3-.4-.3-.2-.1-.3-.1-.5-.2h-.6c-.5 0-.9.1-1.3.3-.3.2-.5.5-.6 1h-1.8c0-.5.2-1 .4-1.3s.5-.6.8-.8c.4-.2.7-.4 1.2-.4.4-.1.9-.1 1.3-.1s.8 0 1.2.1.7.2 1.1.4c.3.2.6.4.8.8.2.3.3.7.3 1.1l-.1 4.1zm-1.9-2.3c-.3.2-.6.3-1 .3s-.8.1-1.2.2c-.2 0-.4.1-.6.1-.2.1-.3.1-.5.2-.1.1-.3.2-.3.4-.1.2-.1.4-.1.6s.1.4.2.5c.1.1.3.3.4.3.2.1.4.1.5.2h.5c.2 0 .4 0 .7-.1.2-.1.5-.1.7-.3.2-.1.4-.3.5-.5s.2-.4.2-.7v-1.2zm3.8-4.1h1.7v1.2c.3-.5.6-.8 1.1-1.1.4-.3.9-.4 1.5-.4.9 0 1.6.2 2.1.7s.8 1.2.8 2.1v5.7h-1.8v-5.2c0-.7-.2-1.1-.4-1.4-.3-.3-.7-.4-1.2-.4-.3 0-.6.1-.8.2-.2.1-.5.3-.6.5-.2.2-.3.4-.4.7-.1.3-.1.5-.1.8v4.9h-1.8v-8.3h-.1zm16.1 6.4c0 .2 0 .4.1.5s.2.1.4.1h.5v1.3c-.1 0-.1 0-.3.1-.1 0-.2.1-.3.1h-.6c-.4 0-.7-.1-.9-.2-.2-.1-.4-.4-.5-.8-.4.4-.8.6-1.3.8-.5.2-1 .2-1.5.2-.4 0-.7-.1-1.1-.2-.3-.1-.6-.2-.9-.4-.3-.2-.5-.5-.6-.8s-.2-.7-.2-1.1c0-.5.1-.9.3-1.2.2-.3.4-.6.7-.8.3-.2.7-.3 1-.4.4-.1.8-.1 1.2-.2.3-.1.6-.1.9-.1.3 0 .6-.1.8-.1.2-.1.4-.2.5-.3.1-.1.2-.3.2-.6 0-.2-.1-.4-.2-.6-.1-.1-.2-.3-.4-.3-.2-.1-.3-.1-.5-.2h-.6c-.5 0-.9.1-1.3.3-.3.2-.5.5-.6 1h-1.8c0-.5.2-1 .4-1.3s.5-.6.8-.8c.4-.2.7-.4 1.2-.4.4-.1.9-.1 1.3-.1s.8 0 1.2.1.7.2 1.1.4c.3.2.6.4.8.8.2.3.3.7.3 1.1v4.1h-.1zm-1.8-2.3c-.3.2-.6.3-1 .3s-.8.1-1.2.2c-.2 0-.4.1-.6.1-.2.1-.3.1-.5.2-.1.1-.3.2-.3.4-.1.2-.1.4-.1.6s.1.4.2.5c.1.1.3.3.4.3.2.1.4.1.5.2h.5c.2 0 .4 0 .7-.1.2-.1.5-.1.7-.3.2-.1.4-.3.5-.5s.2-.4.2-.7v-1.2zm11.6 4.1H266v-1.1c-.2.5-.6.8-1.1 1s-1 .3-1.5.3c-.7 0-1.2-.1-1.7-.3-.5-.2-.9-.5-1.2-.9-.3-.4-.6-.9-.7-1.4-.2-.5-.2-1.1-.2-1.7 0-.7.1-1.4.3-1.9.2-.5.5-1 .8-1.3.3-.4.7-.6 1.2-.8.4-.2.9-.3 1.3-.3.3 0 .5 0 .8.1.3 0 .5.1.8.2.2.1.5.2.7.4s.4.4.5.6v-4.2h1.8l-.1 11.3zm-6.4-4c0 .4 0 .7.1 1s.2.6.4.9c.2.3.4.5.7.6.3.2.6.2 1 .2s.8-.1 1-.3c.3-.2.5-.4.7-.7.2-.3.3-.6.4-.9.1-.4.1-.7.1-1.1 0-.9-.2-1.6-.6-2.1s-1-.8-1.7-.8c-.4 0-.8.1-1.1.3-.3.2-.5.4-.7.7s-.3.6-.4 1c.2.4.1.8.1 1.2zm15.3 2.2c0 .2 0 .4.1.5s.2.1.4.1h.5v1.3c-.1 0-.1 0-.3.1-.1 0-.2.1-.3.1h-.6c-.4 0-.7-.1-.9-.2-.2-.1-.4-.4-.5-.8-.4.4-.8.6-1.3.8-.5.2-1 .2-1.5.2-.4 0-.7-.1-1.1-.2-.3-.1-.6-.2-.9-.4-.3-.2-.5-.5-.6-.8s-.2-.7-.2-1.1c0-.5.1-.9.3-1.2.2-.3.4-.6.7-.8.3-.2.6-.3 1-.4s.8-.1 1.2-.2c.3-.1.6-.1.9-.1s.6-.1.8-.1c.2-.1.4-.2.5-.3.1-.1.2-.3.2-.6 0-.2-.1-.4-.2-.6-.1-.1-.2-.3-.4-.3-.2-.1-.3-.1-.5-.2h-.6c-.5 0-.9.1-1.3.3-.3.2-.5.5-.6 1h-1.8c0-.5.2-1 .4-1.3s.5-.6.8-.8c.4-.2.7-.4 1.2-.4.4-.1.9-.1 1.3-.1s.8 0 1.2.1c.4.1.7.2 1.1.4.3.2.6.4.8.8.2.3.3.7.3 1.1v4.1h-.1zm-1.8-2.3c-.3.2-.6.3-1 .3s-.8.1-1.2.2c-.2 0-.4.1-.6.1-.2.1-.3.1-.5.2-.1.1-.3.2-.3.4-.1.2-.1.4-.1.6s.1.4.2.5.3.3.4.3c.2.1.4.1.5.2h.5c.2 0 .4 0 .7-.1.2-.1.5-.1.7-.3.2-.1.4-.3.5-.5s.2-.4.2-.7v-1.2zM346.2 53.7h-1.3l-.3-1.3c-.5.6-1.1 1-1.6 1.3-.5.2-1.1.4-1.8.4-.9 0-1.6-.2-2.3-.5-.7-.3-1.2-.8-1.7-1.3s-.8-1.2-1.1-1.9c-.2-.7-.4-1.5-.4-2.3s.1-1.6.4-2.3.6-1.4 1.1-1.9 1-1 1.7-1.3 1.5-.5 2.3-.5c.6 0 1.2.1 1.8.3.6.2 1.1.4 1.5.7s.8.7 1.1 1.2c.3.5.5 1.1.5 1.7h-2c-.1-.4-.2-.7-.4-1-.2-.3-.4-.5-.7-.7-.3-.2-.6-.3-.9-.4-.3-.1-.7-.1-1-.1-.6 0-1.1.1-1.6.4-.4.2-.8.6-1.1 1-.3.4-.5.9-.6 1.4s-.2 1.1-.2 1.6.1 1.1.2 1.6.3 1 .6 1.4c.3.4.6.7 1.1 1 .4.2 1 .4 1.6.4.5 0 1-.1 1.4-.2.4-.1.7-.4 1-.6.3-.3.5-.6.6-1s.2-.8.2-1.3h-3V48h4.9v5.7zm5.7.2c-.7 0-1.3-.1-1.8-.3s-1-.5-1.3-.9c-.4-.4-.6-.8-.8-1.4-.2-.5-.3-1.1-.3-1.8 0-.6.1-1.2.3-1.7.2-.5.5-1 .8-1.4.4-.4.8-.7 1.3-.9s1.1-.3 1.8-.3 1.2.1 1.8.3c.5.2 1 .5 1.3.9.4.4.6.8.8 1.4.2.5.3 1.1.3 1.7 0 .6-.1 1.2-.3 1.8-.2.5-.5 1-.8 1.4-.4.4-.8.7-1.3.9-.6.2-1.1.3-1.8.3zm0-1.4c.4 0 .8-.1 1.1-.3.3-.2.5-.4.7-.7s.3-.6.4-.9c.1-.4.1-.7.1-1.1 0-.4 0-.7-.1-1.1-.1-.4-.2-.7-.4-.9-.2-.3-.4-.5-.7-.7-.3-.2-.7-.3-1.1-.3s-.8.1-1.1.3c-.3.2-.5.4-.7.7s-.3.6-.4.9c-.1.4-.1.7-.1 1.1 0 .4 0 .7.1 1.1.1.3.2.7.4.9.2.3.4.5.7.7s.7.3 1.1.3zm4.9-7h2l2.1 6.4 2-6.4h1.9l-3 8.3h-2l-3-8.3zm14.8 3.4c0-.3-.1-.6-.2-.8-.1-.3-.2-.5-.4-.7-.2-.2-.4-.4-.6-.5s-.5-.2-.8-.2-.6.1-.9.2c-.3.1-.5.3-.7.5s-.3.4-.4.7-.2.6-.2.9h4.2v-.1zm-4.3 1.2c0 .3 0 .6.1.9.1.3.2.6.4.8.2.2.4.4.7.5.3.1.6.2 1 .2.5 0 1-.1 1.3-.3s.6-.6.7-1h1.7c-.1.4-.3.8-.5 1.2s-.5.7-.8.9-.7.4-1.1.5-.8.2-1.3.2c-.7 0-1.2-.1-1.7-.3s-.9-.5-1.3-.9c-.3-.4-.6-.8-.8-1.4-.2-.5-.3-1.1-.3-1.8 0-.6.1-1.1.3-1.7.2-.5.5-1 .8-1.4.4-.4.8-.7 1.3-1 .5-.2 1-.4 1.7-.4s1.2.1 1.7.4c.5.3 1 .6 1.3 1.1.3.4.6 1 .7 1.6.2.6.2 1.2.1 1.8h-6v.1zm7.5-4.6h1.7v1.6c.1-.2.2-.4.3-.7.2-.2.3-.4.6-.6.2-.2.5-.3.7-.4.3-.1.5-.2.8-.2h.7V47h-.8c-.3 0-.6.1-.9.2-.3.1-.5.3-.7.5s-.4.5-.5.9-.2.8-.2 1.2v3.9h-1.8v-8.2h.1zm5.9 0h1.7v1.2c.3-.5.6-.8 1.1-1.1.4-.3.9-.4 1.5-.4.9 0 1.6.2 2.1.7s.8 1.2.8 2.1v5.7h-1.8v-5.2c0-.7-.2-1.1-.4-1.4-.3-.3-.7-.4-1.2-.4-.3 0-.6.1-.8.2-.2.1-.5.3-.6.5-.2.2-.3.4-.4.7s-.1.5-.1.8v4.9h-1.8v-8.3h-.1zm9.2 0h1.7v1.2c.1-.2.3-.4.4-.6.2-.2.3-.3.5-.4.2-.1.4-.2.7-.3.3-.1.5-.1.9-.1.5 0 1 .1 1.4.3s.7.6.9 1c.3-.4.7-.8 1.1-1s.9-.4 1.5-.4c.9 0 1.6.2 2 .6.5.4.7 1.1.7 2.1v5.7H400v-5.7c0-.3-.1-.5-.2-.7s-.2-.4-.4-.5c-.2-.1-.5-.2-.8-.2-.6 0-1.1.2-1.3.6-.3.4-.4.9-.4 1.6v4.8H395v-5.3c0-.6-.1-1-.3-1.3-.2-.3-.6-.4-1.1-.4-.2 0-.5 0-.7.1s-.4.2-.6.4-.3.4-.4.7-.1.6-.1.9v4.9H390v-8h-.1zm19.6 3.4c0-.3-.1-.6-.2-.8-.1-.3-.2-.5-.4-.7-.2-.2-.4-.4-.6-.5s-.5-.2-.8-.2-.6.1-.9.2c-.3.1-.5.3-.7.5s-.3.4-.4.7-.2.6-.2.9h4.2v-.1zm-4.3 1.2c0 .3 0 .6.1.9.1.3.2.6.4.8.2.2.4.4.7.5.3.1.6.2 1 .2.5 0 1-.1 1.3-.3s.6-.6.7-1h1.7c-.1.4-.3.8-.5 1.2s-.5.7-.8.9-.7.4-1.1.5-.8.2-1.3.2c-.7 0-1.2-.1-1.7-.3s-.9-.5-1.3-.9c-.3-.4-.6-.8-.8-1.4-.2-.5-.3-1.1-.3-1.8 0-.6.1-1.1.3-1.7.2-.5.5-1 .8-1.4.4-.4.8-.7 1.3-1 .5-.2 1-.4 1.7-.4s1.2.1 1.7.4c.5.3 1 .6 1.3 1.1.3.4.6 1 .7 1.6.2.6.2 1.2.1 1.8h-6v.1zm7.5-4.6h1.7v1.2c.3-.5.6-.8 1.1-1.1.4-.3.9-.4 1.5-.4.9 0 1.6.2 2.1.7s.8 1.2.8 2.1v5.7h-1.8v-5.2c0-.7-.2-1.1-.4-1.4-.3-.3-.7-.4-1.2-.4-.3 0-.6.1-.8.2-.2.1-.5.3-.6.5-.2.2-.3.4-.4.7s-.1.5-.1.8v4.9h-1.8v-8.3h-.1zm8.3 0h1.4V43h1.8v2.5h1.6v1.4h-1.6v4.9c0 .1.1.3.1.4.1.1.2.2.3.2.1 0 .3.1.5.1h.4c.1 0 .3 0 .4-.1v1.4c-.2 0-.4 0-.6.1h-.6c-.5 0-.9 0-1.2-.1-.3-.1-.5-.2-.7-.4s-.3-.4-.3-.7c-.1-.3-.1-.6-.1-.9v-4.9H421v-1.4zm-81.2 24.4c-.7 0-1.3-.1-1.8-.3-.5-.2-.9-.5-1.3-.9s-.6-.8-.8-1.4c-.2-.5-.3-1.1-.3-1.8 0-.6.1-1.2.3-1.7.2-.5.5-1 .8-1.4.4-.4.8-.7 1.3-.9s1.1-.3 1.8-.3 1.2.1 1.8.3c.5.2 1 .5 1.3.9.4.4.6.8.8 1.4.2.5.3 1.1.3 1.7s-.1 1.2-.3 1.8c-.2.5-.5 1-.8 1.4-.4.4-.8.7-1.3.9-.6.2-1.2.3-1.8.3zm0-1.4c.4 0 .8-.1 1.1-.3.3-.2.5-.4.7-.7.2-.3.3-.6.4-.9.1-.4.1-.7.1-1.1s0-.7-.1-1.1-.2-.7-.4-.9c-.2-.3-.4-.5-.7-.7-.3-.2-.7-.3-1.1-.3s-.8.1-1.1.3c-.3.2-.5.4-.7.7s-.3.6-.4.9c-.1.4-.1.7-.1 1.1s0 .7.1 1.1c.1.3.2.7.4.9.2.3.4.5.7.7.3.2.6.3 1.1.3zm4.8-7h1.4v-.7c0-.5.1-.9.2-1.3.1-.3.3-.6.5-.8s.5-.3.7-.4c.3-.1.6-.1.9-.1.6 0 1 0 1.3.1v1.4c-.1 0-.2-.1-.4-.1h-.5c-.2 0-.5.1-.6.2-.2.1-.3.3-.3.7v.8h1.6v1.4h-1.6v6.9H346v-6.9h-1.4v-1.2zm18.3.4c-.1-.3-.2-.6-.4-.9-.1-.3-.3-.5-.6-.7-.2-.2-.5-.4-.8-.5s-.7-.2-1.1-.2c-.6 0-1.1.1-1.6.4-.4.2-.8.6-1.1 1-.3.4-.5.9-.6 1.4s-.2 1.1-.2 1.6.1 1.1.2 1.6.3 1 .6 1.4c.3.4.6.7 1.1 1 .4.2 1 .4 1.6.4.4 0 .8-.1 1.2-.2l.9-.6c.2-.3.4-.6.6-1l.3-1.2h2c0 .7-.2 1.3-.4 1.9-.2.6-.6 1.1-1 1.5s-.9.7-1.5.9c-.6.2-1.2.3-1.9.3-.9 0-1.6-.2-2.3-.5-.7-.3-1.2-.8-1.7-1.3s-.8-1.2-1.1-1.9c-.2-.7-.4-1.5-.4-2.3 0-.8.1-1.6.4-2.3s.6-1.4 1.1-1.9 1-1 1.7-1.3 1.5-.5 2.3-.5c.6 0 1.2.1 1.8.3.6.2 1.1.4 1.5.8.4.3.8.7 1.1 1.2.3.5.4 1 .5 1.6h-2.2zm10.5 6c0 .2 0 .4.1.5s.2.1.4.1h.5v1.3c-.1 0-.1 0-.3.1-.1 0-.2.1-.3.1h-.6c-.4 0-.7-.1-.9-.2-.2-.1-.4-.4-.5-.8-.4.4-.8.6-1.3.8-.5.2-1 .2-1.5.2-.4 0-.7-.1-1.1-.2-.3-.1-.6-.2-.9-.4-.3-.2-.5-.5-.6-.8s-.2-.7-.2-1.1c0-.5.1-.9.3-1.2.2-.3.4-.6.7-.8.3-.2.7-.3 1-.4.4-.1.8-.1 1.2-.2.3-.1.6-.1.9-.1s.6-.1.8-.1c.2-.1.4-.2.5-.3.1-.1.2-.3.2-.6 0-.2-.1-.4-.2-.6-.1-.1-.2-.3-.4-.3-.2-.1-.3-.1-.5-.2h-.6c-.5 0-.9.1-1.3.3-.3.2-.5.5-.6 1h-1.8c0-.5.2-1 .4-1.3s.5-.6.8-.8c.4-.2.7-.4 1.2-.4.4-.1.9-.1 1.3-.1s.8 0 1.2.1c.4.1.7.2 1.1.4.3.2.6.4.8.8.2.3.3.7.3 1.1v4.1h-.1zm-1.8-2.3c-.3.2-.6.3-1 .3s-.8.1-1.2.2c-.2 0-.4.1-.6.1-.2.1-.3.1-.5.2-.1.1-.2.2-.3.4-.1.2-.1.4-.1.6s.1.4.2.5.3.3.4.3c.2.1.4.1.5.2h.5c.2 0 .4 0 .7-.1.2-.1.5-.1.7-.3.2-.1.4-.3.5-.5s.2-.4.2-.7v-1.2zm3.8-4.1h1.7v1.2c.3-.5.6-.8 1.1-1.1.4-.3.9-.4 1.5-.4.9 0 1.6.2 2.1.7s.8 1.2.8 2.1v5.7h-1.8v-5.2c0-.7-.2-1.1-.4-1.4-.3-.3-.7-.4-1.2-.4-.3 0-.6.1-.8.2-.2.1-.5.3-.6.5-.2.2-.3.4-.4.7-.1.3-.1.5-.1.8v4.9h-1.8v-8.3h-.1zm16.1 6.4c0 .2 0 .4.1.5s.2.1.4.1h.5v1.3c-.1 0-.1 0-.3.1-.1 0-.2.1-.3.1h-.6c-.4 0-.7-.1-.9-.2-.2-.1-.4-.4-.5-.8-.4.4-.8.6-1.3.8-.5.2-1 .2-1.5.2-.4 0-.7-.1-1.1-.2-.3-.1-.6-.2-.9-.4-.3-.2-.5-.5-.6-.8s-.2-.7-.2-1.1c0-.5.1-.9.3-1.2.2-.3.4-.6.7-.8.3-.2.7-.3 1-.4.4-.1.8-.1 1.2-.2.3-.1.6-.1.9-.1s.6-.1.8-.1c.2-.1.4-.2.5-.3.1-.1.2-.3.2-.6 0-.2-.1-.4-.2-.6-.1-.1-.2-.3-.4-.3-.2-.1-.3-.1-.5-.2h-.6c-.5 0-.9.1-1.3.3-.3.2-.5.5-.6 1h-1.8c0-.5.2-1 .4-1.3s.5-.6.8-.8c.4-.2.7-.4 1.2-.4.4-.1.9-.1 1.3-.1s.8 0 1.2.1c.4.1.7.2 1.1.4.3.2.6.4.8.8.2.3.3.7.3 1.1v4.1h-.1zm-1.8-2.3c-.3.2-.6.3-1 .3s-.8.1-1.2.2c-.2 0-.4.1-.6.1-.2.1-.3.1-.5.2-.1.1-.2.2-.3.4-.1.2-.1.4-.1.6s.1.4.2.5.3.3.4.3c.2.1.4.1.5.2h.5c.2 0 .4 0 .7-.1.2-.1.5-.1.7-.3.2-.1.4-.3.5-.5s.2-.4.2-.7v-1.2zm11.6 4.1h-1.7v-1.1c-.2.5-.6.8-1.1 1s-1 .3-1.5.3c-.7 0-1.2-.1-1.7-.3-.5-.2-.9-.5-1.2-.9-.3-.4-.6-.9-.7-1.4-.2-.5-.2-1.1-.2-1.7 0-.7.1-1.4.3-1.9.2-.5.5-1 .8-1.3.3-.4.7-.6 1.2-.8.4-.2.9-.3 1.3-.3.3 0 .5 0 .8.1.3 0 .5.1.8.2.2.1.5.2.7.4s.4.4.5.6v-4.2h1.8l-.1 11.3zm-6.4-4c0 .4 0 .7.1 1s.2.6.4.9c.2.3.4.5.7.6.3.2.6.2 1 .2s.8-.1 1-.3c.3-.2.5-.4.7-.7.2-.3.3-.6.4-.9.1-.4.1-.7.1-1.1 0-.9-.2-1.6-.6-2.1s-1-.8-1.7-.8c-.4 0-.8.1-1.1.3-.3.2-.5.4-.7.7s-.3.6-.4 1c.1.4.1.8.1 1.2zm15.3 2.2c0 .2 0 .4.1.5s.2.1.4.1h.5v1.3c-.1 0-.1 0-.3.1-.1 0-.2.1-.3.1h-.6c-.4 0-.7-.1-.9-.2-.2-.1-.4-.4-.5-.8-.4.4-.8.6-1.3.8-.5.2-1 .2-1.5.2-.4 0-.7-.1-1.1-.2-.3-.1-.6-.2-.9-.4-.3-.2-.5-.5-.6-.8s-.2-.7-.2-1.1c0-.5.1-.9.3-1.2.2-.3.4-.6.7-.8.3-.2.7-.3 1-.4.4-.1.8-.1 1.2-.2.3-.1.6-.1.9-.1s.6-.1.8-.1c.2-.1.4-.2.5-.3.1-.1.2-.3.2-.6 0-.2-.1-.4-.2-.6-.1-.1-.2-.3-.4-.3-.2-.1-.3-.1-.5-.2h-.6c-.5 0-.9.1-1.3.3-.3.2-.5.5-.6 1h-1.8c0-.5.2-1 .4-1.3s.5-.6.8-.8c.4-.2.7-.4 1.2-.4.4-.1.9-.1 1.3-.1s.8 0 1.2.1c.4.1.7.2 1.1.4.3.2.6.4.8.8.2.3.3.7.3 1.1v4.1h-.1zm-1.9-2.3c-.3.2-.6.3-1 .3s-.8.1-1.2.2c-.2 0-.4.1-.6.1-.2.1-.3.1-.5.2-.1.1-.2.2-.3.4-.1.2-.1.4-.1.6s.1.4.2.5.3.3.4.3c.2.1.4.1.5.2h.5c.2 0 .4 0 .7-.1.2-.1.5-.1.7-.3.2-.1.4-.3.5-.5s.2-.4.2-.7v-1.2z"/>
  <path d="M654.8 34.2h6v11.9h-6V34.2zm-10.3 6-.3.1s2.1 1.7 2.1 1.8c.1.1.2.1.1.5-.1.3-.2.7-.2.7s1.8-.3 2.1-.5c.2 0 .3 0 .3.2s-.1 2.2-.1 2.2h.6s-.1-2.1-.1-2.2c0-.2.1-.2.3-.2s2.1.5 2.1.5-.1-.5-.2-.7c-.1-.3 0-.3.1-.5.1-.1 2.1-1.8 2.1-1.8l-.3-.1c-.2-.1-.1-.2-.1-.3s.3-1.3.3-1.3-.9.2-1 .2-.2 0-.2-.1-.2-.6-.2-.6-1 1.1-1.1 1.3c-.2.2-.5 0-.3-.2 0-.2.6-2.6.6-2.6s-.6.3-.8.5c-.2.1-.3.1-.3-.1-.1-.2-.8-1.5-.8-1.6l-.8 1.6c-.1.2-.2.2-.3.1-.2-.1-.8-.5-.8-.5s.6 2.4.6 2.6-.1.3-.3.2l-1.1-1.3s-.1.3-.2.5c0 .1-.1.2-.2.1-.2 0-1.1-.2-1.1-.2s.3 1.1.5 1.3c-.8 0-.8.3-1 .4zm-7.7-6h6v11.9h-6V34.2z" class="st1"/>
  <path d="M662.1 69.9c-.5 1-1.4 1.4-1.9 1.4-.7 0-2.8-.1-2.8-5.5V54.3c0-3.5-2.8-6.4-9.9-6.4-7.7 0-7.8 3.8-7.8 4.7-.1 1 .5 2.2 2.4 2.2 1.7 0 2.2-1.9 2.4-2.6.2-.8.3-3.1 3.4-3.1 2.6 0 4.2 2.3 4.4 5.6v2c-.2 1.1-.8 1.7-1.8 2.2-1.4.7-5.4 1.3-5.8 1.4-1.6.3-6.1 1.5-6 6.2.1 4.6 4.7 6.2 7.9 6.1 3.1-.1 4.9-1.4 5.7-2.1.5-.3.5-.3.8.1.5.5 1.9 1.9 5.5 1.9 3.7 0 4.1-1.7 4.4-2.3.1-.5-.7-.9-.9-.3zm-14.4 1.3c-3.2 0-4-2.6-4-4 0-1.3.7-3.9 3.9-5.7 0 0 1.5-.9 4.4-2.1h.2s.1.1.1.2v5c0 3.8-1.8 6.6-4.6 6.6zm-10.5-.1c-.5-.1-3.3.2-3.3-8.5V35.3c0-.3 0-1.3-1-1.3s-7.9.3-8.4.5c-.5 0-.8.6 0 .6.8.1 4.5.3 4.5 6.4V49.8c0 .2 0 .3-.1.5v.1c-.1.1-.2 0-.6-.2-.6-.5-3.2-2.1-6.5-2.1-5.4 0-12 3.9-12 11.9 0 8.6 6.1 12.7 12.4 12.7 3.1 0 5.3-1.4 6.1-1.8.9-.6.8-.5.9.3.1.6 0 1.7 1.6 1.6 1.7-.2 5.8-.7 6.6-.8.7-.4.5-.8-.2-.9zm-14.2.3c-5 0-7.7-5.9-7.7-11.7 0-6.3 3.6-10.5 7.3-10.3 4.9.3 6.2 4.2 6.3 11.2v1.5c-.1 6.9-2.9 9.3-5.9 9.3zm-13.4-1.5c-.5 1-1.4 1.4-1.9 1.4-.7 0-2.8-.1-2.8-5.5V54.3c0-3.5-2.8-6.4-9.9-6.4-7.7 0-7.8 3.8-7.8 4.7-.1 1 .5 2.2 2.4 2.2 1.7 0 2.2-1.9 2.4-2.6.2-.8.3-3.1 3.4-3.1 2.6 0 4.4 2.3 4.4 5.7v1.1c-.1 1.7-.6 2.3-1.9 3-1.4.7-5.4 1.3-5.8 1.4-1.6.3-6.1 1.5-6 6.2.1 4.6 4.7 6.2 7.9 6.1 3.1-.1 4.9-1.4 5.7-2.1.5-.3.5-.3.8.1.5.5 1.9 1.9 5.5 1.9 3.7 0 4.1-1.7 4.4-2.3.2-.5-.5-.9-.8-.3zm-14.2 1.3c-3.2 0-4-2.6-4-4 0-1.3.7-3.9 3.9-5.7 0 0 1.5-.9 4.4-2.1h.2v.6-.1V64.8c-.1 3.6-1.9 6.4-4.5 6.4zm-11-.1c-.9-.2-2.5-1.3-2.5-6.3v-9.1c0-2.2.2-7.8-8.4-7.8-4.5 0-7 2.3-7.2 2.4-.3.3-.6.5-.7-.1-.1-.5-.3-1.1-.5-1.6-.1-.3-.3-.7-1.1-.6s-5.8.9-6.8 1.1c-.8.2-.6.6 0 .7.6.1 3.3.3 3.3 5v9.8c0 5.7-1.1 6.2-2.2 6.5-1.4.3-.7.8-.1.8h10.4c.7 0 1-.7-.3-.9-1.4-.2-2.6-1-2.6-5.5v-6.3c0-2.4-.6-9.7 6.1-9.8 4.7-.1 5.2 3.8 5.2 6.3v9.7c0 4-1.1 5.3-2.5 5.5-1.3.2-1 .8-.3.8h10.7c.4.3 1-.3-.5-.6zm-27.9-1.2c-.5 1-1.4 1.4-1.9 1.4-.7 0-2.8-.1-2.8-5.5V54.3c0-3.5-2.8-6.4-9.9-6.4-7.7 0-7.8 3.8-7.8 4.7-.1 1 .5 2.2 2.4 2.2 1.7 0 2.2-1.9 2.4-2.6.2-.8.3-3.1 3.4-3.1 2.6 0 4.2 2.3 4.4 5.6V56c0 .2 0 .5-.1.6v.1c-.2 1.1-.8 1.7-1.8 2.2-1.4.7-5.4 1.3-5.8 1.4-1.6.3-6.1 1.5-6 6.2.1 4.6 4.7 6.2 7.9 6.1 3.1-.1 4.9-1.4 5.7-2.1.5-.3.5-.3.8.1.5.5 1.9 1.9 5.5 1.9 3.7 0 4.1-1.7 4.4-2.3.3-.5-.5-.9-.8-.3zm-14.3 1.3c-3.2 0-4-2.6-4-4s.7-3.9 3.9-5.7c0 0 1.5-.9 4.4-2.1h.2s.1.1.1.2v5.2c0 3.6-1.8 6.4-4.6 6.4zm-11-10c-1.1 3.7-3.3 9.6-11.2 9.8-8.3.1-13.2-5.5-13.4-15.9-.3-11.1 4.5-19.6 11.9-19.8 8.4-.1 11.3 9.8 11.5 11.3.1 1.1 1.6 1 1.6-.1 0-.6-.7-10.4-.9-11.5s-1.1-.7-1.4-.2c-.1.3.1-.3-.3.7-.5 1-1.7.5-2.2.3-1.4-.6-4-1.9-8.3-1.8-9.7.2-19.7 7.4-19.5 20 .2 12.2 10.1 19.1 19.3 19 8.4-.1 13.1-5.4 14.4-11.4.5-1.5-1-1.9-1.5-.4z"/>
  <defs>
    <path id="SVGID_00000066482803331791955640000004729456376523972485_" d="M61 44h48v24H61z"/>
  </defs>
  <clipPath id="SVGID_00000050638277511983111420000014574577298444753078_">
    <use xlink:href="#SVGID_00000066482803331791955640000004729456376523972485_" style="overflow:visible"/>
  </clipPath>
  <g style="clip-path:url(#SVGID_00000050638277511983111420000014574577298444753078_)">
    <path d="M61 56h48v1H61z" class="st3"/>
    <defs>
      <path id="SVGID_00000178187906875484689040000004060142574835405751_" d="M73 44c6.6 0 12 5.4 12 12s-5.4 12-12 12-12-5.4-12-12 5.4-12 12-12z"/>
    </defs>
    <clipPath id="SVGID_00000109028003769074173930000013086627393679025819_">
      <use xlink:href="#SVGID_00000178187906875484689040000004060142574835405751_" style="overflow:visible"/>
    </clipPath>
    <g style="clip-path:url(#SVGID_00000109028003769074173930000013086627393679025819_)">
      <path d="M73 44c6.6 0 12 5.4 12 12s-5.4 12-12 12-12-5.4-12-12 5.4-12 12-12z" class="st3"/>
      <path d="M74.8 50.8V61h-2.2v-8.1h-.1l-2.3 1.5v-1.9l2.5-1.6h2.1v-.1z" class="st5"/>
    </g>
  </g>
  <defs>
    <path id="SVGID_00000120560246420711367880000001360260008201073579_" d="M677 44.5h48v24h-48z"/>
  </defs>
  <clipPath id="SVGID_00000162309780924613124890000017159585641282674353_">
    <use xlink:href="#SVGID_00000120560246420711367880000001360260008201073579_" style="overflow:visible"/>
  </clipPath>
  <g style="clip-path:url(#SVGID_00000162309780924613124890000017159585641282674353_)">
    <path d="M677 56.5h48v1h-48z" class="st3"/>
    <defs>
      <path id="SVGID_00000071536038211750762920000003160086043806890912_" d="M713 44.5c6.6 0 12 5.4 12 12s-5.4 12-12 12-12-5.4-12-12 5.4-12 12-12z"/>
    </defs>
    <clipPath id="SVGID_00000130608660517359969380000009214151705827728539_">
      <use xlink:href="#SVGID_00000071536038211750762920000003160086043806890912_" style="overflow:visible"/>
    </clipPath>
    <g style="clip-path:url(#SVGID_00000130608660517359969380000009214151705827728539_)">
      <path d="M713 44.5c6.6 0 12 5.4 12 12s-5.4 12-12 12-12-5.4-12-12 5.4-12 12-12z" class="st3"/>
      <path d="M709.4 61.5v-1.6l3.6-3.4.8-.8c.2-.2.4-.5.5-.7s.2-.5.2-.8-.1-.6-.2-.8c-.1-.2-.3-.4-.6-.5-.2-.1-.5-.2-.8-.2s-.6.1-.8.2c-.2.1-.4.3-.5.5s-.2.5-.2.8h-2c0-.7.1-1.2.5-1.7.3-.5.7-.9 1.3-1.1.5-.3 1.2-.4 1.9-.4s1.4.1 1.9.4c.5.3 1 .6 1.3 1.1s.5 1 .5 1.6c0 .4-.1.8-.2 1.1-.1.4-.4.8-.8 1.2-.4.5-.9 1-1.6 1.6l-1.5 1.5v.1h4.3v1.8h-7.6v.1z" class="st5"/>
    </g>
  </g>
</svg>
