<svg width="738" height="648" viewBox="0 0 738 648" fill="none" xmlns="http://www.w3.org/2000/svg">
<g clip-path="url(#clip0_8280_1394)">
<mask id="path-1-inside-1_8280_1394" fill="white">
<path d="M68 20H718V260H68V20Z"/>
</mask>
<path d="M718 260V259H68V260V261H718V260Z" fill="#D9D9D9" mask="url(#path-1-inside-1_8280_1394)"/>
<path d="M90.8345 35.1125H82.3325V59H77.087V35.1125H68.585V30.803H90.8345V35.1125ZM98.5653 38.993V59H93.7293V38.993H98.5653ZM99.2283 33.1625C99.2283 33.5785 99.1438 33.9685 98.9748 34.3325C98.8058 34.6965 98.5783 35.015 98.2923 35.288C98.0193 35.561 97.6943 35.782 97.3173 35.951C96.9403 36.107 96.5373 36.185 96.1083 36.185C95.6923 36.185 95.2958 36.107 94.9188 35.951C94.5548 35.782 94.2363 35.561 93.9633 35.288C93.6903 35.015 93.4693 34.6965 93.3003 34.3325C93.1443 33.9685 93.0663 33.5785 93.0663 33.1625C93.0663 32.7335 93.1443 32.3305 93.3003 31.9535C93.4693 31.5765 93.6903 31.2515 93.9633 30.9785C94.2363 30.7055 94.5548 30.491 94.9188 30.335C95.2958 30.166 95.6923 30.0815 96.1083 30.0815C96.5373 30.0815 96.9403 30.166 97.3173 30.335C97.6943 30.491 98.0193 30.7055 98.2923 30.9785C98.5783 31.2515 98.8058 31.5765 98.9748 31.9535C99.1438 32.3305 99.2283 32.7335 99.2283 33.1625ZM110.145 59.312C108.403 59.312 107.064 58.8245 106.128 57.8495C105.205 56.8615 104.743 55.503 104.743 53.774V42.6005H102.696C102.436 42.6005 102.215 42.516 102.033 42.347C101.851 42.178 101.76 41.9245 101.76 41.5865V39.6755L104.977 39.149L105.991 33.689C106.056 33.429 106.18 33.2275 106.362 33.0845C106.544 32.9415 106.778 32.87 107.064 32.87H109.56V39.1685H114.903V42.6005H109.56V53.4425C109.56 54.0665 109.709 54.554 110.008 54.905C110.32 55.256 110.743 55.4315 111.276 55.4315C111.575 55.4315 111.822 55.399 112.017 55.334C112.225 55.256 112.4 55.178 112.543 55.1C112.699 55.022 112.836 54.9505 112.953 54.8855C113.07 54.8075 113.187 54.7685 113.304 54.7685C113.447 54.7685 113.564 54.8075 113.655 54.8855C113.746 54.9505 113.843 55.0545 113.947 55.1975L115.39 57.5375C114.688 58.1225 113.882 58.5645 112.972 58.8635C112.062 59.1625 111.12 59.312 110.145 59.312ZM122.53 42.464C123.154 41.268 123.895 40.332 124.753 39.656C125.611 38.967 126.625 38.6225 127.795 38.6225C128.718 38.6225 129.459 38.824 130.018 39.227L129.706 42.8345C129.641 43.0685 129.543 43.2375 129.413 43.3415C129.296 43.4325 129.134 43.478 128.926 43.478C128.731 43.478 128.438 43.4455 128.048 43.3805C127.671 43.3155 127.301 43.283 126.937 43.283C126.404 43.283 125.929 43.361 125.513 43.517C125.097 43.673 124.72 43.9005 124.382 44.1995C124.057 44.4855 123.765 44.8365 123.505 45.2525C123.258 45.6685 123.024 46.143 122.803 46.676V59H117.986V38.993H120.814C121.308 38.993 121.652 39.084 121.847 39.266C122.042 39.435 122.172 39.747 122.237 40.202L122.53 42.464ZM144.853 46.6955C144.853 46.0715 144.762 45.4865 144.58 44.9405C144.411 44.3815 144.151 43.894 143.8 43.478C143.449 43.062 143.001 42.737 142.455 42.503C141.922 42.256 141.298 42.1325 140.583 42.1325C139.192 42.1325 138.093 42.529 137.287 43.322C136.494 44.115 135.987 45.2395 135.766 46.6955H144.853ZM135.669 49.601C135.747 50.628 135.929 51.5185 136.215 52.2725C136.501 53.0135 136.878 53.631 137.346 54.125C137.814 54.606 138.366 54.97 139.003 55.217C139.653 55.451 140.368 55.568 141.148 55.568C141.928 55.568 142.598 55.477 143.157 55.295C143.729 55.113 144.223 54.9115 144.639 54.6905C145.068 54.4695 145.438 54.268 145.75 54.086C146.075 53.904 146.387 53.813 146.686 53.813C147.089 53.813 147.388 53.9625 147.583 54.2615L148.968 56.0165C148.435 56.6405 147.837 57.167 147.174 57.596C146.511 58.012 145.815 58.35 145.087 58.61C144.372 58.857 143.638 59.0325 142.884 59.1365C142.143 59.2405 141.421 59.2925 140.719 59.2925C139.328 59.2925 138.035 59.065 136.839 58.61C135.643 58.142 134.603 57.4595 133.719 56.5625C132.835 55.6525 132.139 54.5345 131.632 53.2085C131.125 51.8695 130.872 50.3225 130.872 48.5675C130.872 47.2025 131.093 45.922 131.535 44.726C131.977 43.517 132.607 42.4705 133.426 41.5865C134.258 40.6895 135.266 39.981 136.449 39.461C137.645 38.941 138.99 38.681 140.485 38.681C141.746 38.681 142.91 38.8825 143.976 39.2855C145.042 39.6885 145.958 40.28 146.725 41.06C147.492 41.827 148.09 42.776 148.519 43.907C148.961 45.025 149.182 46.3055 149.182 47.7485C149.182 48.4765 149.104 48.9705 148.948 49.2305C148.792 49.4775 148.493 49.601 148.051 49.601H135.669Z" fill="#333333"/>
<path d="M81.38 108.72C81.38 111.133 80.72 112.953 79.4 114.18C78.0933 115.393 76.2667 116 73.92 116H69.94V101.72H74.34C75.78 101.72 77.0267 101.987 78.08 102.52C79.1333 103.053 79.9467 103.84 80.52 104.88C81.0933 105.907 81.38 107.187 81.38 108.72ZM79.48 108.78C79.48 106.873 79.0067 105.48 78.06 104.6C77.1267 103.707 75.8 103.26 74.08 103.26H71.74V114.46H73.68C77.5467 114.46 79.48 112.567 79.48 108.78ZM88.4494 105.08C89.3694 105.08 90.156 105.28 90.8094 105.68C91.476 106.08 91.9827 106.647 92.3294 107.38C92.6894 108.1 92.8694 108.947 92.8694 109.92V110.98H85.5294C85.556 112.193 85.8627 113.12 86.4494 113.76C87.0494 114.387 87.8827 114.7 88.9494 114.7C89.6294 114.7 90.2294 114.64 90.7494 114.52C91.2827 114.387 91.8294 114.2 92.3894 113.96V115.5C91.8427 115.74 91.3027 115.913 90.7694 116.02C90.236 116.14 89.6027 116.2 88.8694 116.2C87.856 116.2 86.956 115.993 86.1694 115.58C85.396 115.167 84.7894 114.553 84.3494 113.74C83.9227 112.913 83.7094 111.907 83.7094 110.72C83.7094 109.547 83.9027 108.54 84.2894 107.7C84.6894 106.86 85.2427 106.213 85.9494 105.76C86.6694 105.307 87.5027 105.08 88.4494 105.08ZM88.4294 106.52C87.5894 106.52 86.9227 106.793 86.4294 107.34C85.9494 107.873 85.6627 108.62 85.5694 109.58H91.0294C91.016 108.673 90.8027 107.94 90.3894 107.38C89.976 106.807 89.3227 106.52 88.4294 106.52ZM102.578 113.04C102.578 114.08 102.192 114.867 101.418 115.4C100.645 115.933 99.6051 116.2 98.2984 116.2C97.5518 116.2 96.9051 116.14 96.3584 116.02C95.8251 115.9 95.3518 115.733 94.9384 115.52V113.92C95.3651 114.133 95.8784 114.333 96.4784 114.52C97.0918 114.693 97.7118 114.78 98.3384 114.78C99.2318 114.78 99.8784 114.64 100.278 114.36C100.678 114.067 100.878 113.68 100.878 113.2C100.878 112.933 100.805 112.693 100.658 112.48C100.512 112.267 100.245 112.053 99.8584 111.84C99.4851 111.627 98.9451 111.387 98.2384 111.12C97.5451 110.853 96.9518 110.587 96.4584 110.32C95.9651 110.053 95.5851 109.733 95.3184 109.36C95.0518 108.987 94.9184 108.507 94.9184 107.92C94.9184 107.013 95.2851 106.313 96.0184 105.82C96.7651 105.327 97.7384 105.08 98.9384 105.08C99.5918 105.08 100.198 105.147 100.758 105.28C101.332 105.4 101.865 105.573 102.358 105.8L101.758 107.2C101.305 107.013 100.832 106.853 100.338 106.72C99.8451 106.587 99.3384 106.52 98.8184 106.52C98.0984 106.52 97.5451 106.64 97.1584 106.88C96.7851 107.107 96.5984 107.42 96.5984 107.82C96.5984 108.113 96.6851 108.367 96.8584 108.58C97.0318 108.78 97.3184 108.98 97.7184 109.18C98.1318 109.367 98.6784 109.593 99.3584 109.86C100.038 110.113 100.618 110.373 101.098 110.64C101.578 110.907 101.945 111.233 102.198 111.62C102.452 111.993 102.578 112.467 102.578 113.04ZM109.469 116.2C108.522 116.2 107.675 116.007 106.929 115.62C106.195 115.233 105.615 114.633 105.189 113.82C104.775 113.007 104.569 111.967 104.569 110.7C104.569 109.38 104.789 108.307 105.229 107.48C105.669 106.653 106.262 106.047 107.009 105.66C107.769 105.273 108.629 105.08 109.589 105.08C110.135 105.08 110.662 105.14 111.169 105.26C111.675 105.367 112.089 105.5 112.409 105.66L111.869 107.12C111.549 107 111.175 106.887 110.749 106.78C110.322 106.673 109.922 106.62 109.549 106.62C107.442 106.62 106.389 107.973 106.389 110.68C106.389 111.973 106.642 112.967 107.149 113.66C107.669 114.34 108.435 114.68 109.449 114.68C110.035 114.68 110.549 114.62 110.989 114.5C111.442 114.38 111.855 114.233 112.229 114.06V115.62C111.869 115.807 111.469 115.947 111.029 116.04C110.602 116.147 110.082 116.2 109.469 116.2ZM119.778 105.08C119.978 105.08 120.191 105.093 120.418 105.12C120.658 105.133 120.865 105.16 121.038 105.2L120.818 106.82C120.645 106.78 120.451 106.747 120.238 106.72C120.038 106.693 119.845 106.68 119.658 106.68C119.111 106.68 118.598 106.833 118.118 107.14C117.638 107.433 117.251 107.853 116.958 108.4C116.678 108.933 116.538 109.56 116.538 110.28V116H114.778V105.28H116.218L116.418 107.24H116.498C116.845 106.653 117.291 106.147 117.838 105.72C118.385 105.293 119.031 105.08 119.778 105.08ZM123.94 101.26C124.207 101.26 124.44 101.353 124.64 101.54C124.853 101.713 124.96 101.993 124.96 102.38C124.96 102.753 124.853 103.033 124.64 103.22C124.44 103.407 124.207 103.5 123.94 103.5C123.647 103.5 123.4 103.407 123.2 103.22C123 103.033 122.9 102.753 122.9 102.38C122.9 101.993 123 101.713 123.2 101.54C123.4 101.353 123.647 101.26 123.94 101.26ZM124.8 105.28V116H123.04V105.28H124.8ZM133.296 105.08C134.616 105.08 135.676 105.54 136.476 106.46C137.289 107.38 137.696 108.767 137.696 110.62C137.696 112.447 137.289 113.833 136.476 114.78C135.676 115.727 134.609 116.2 133.276 116.2C132.449 116.2 131.763 116.047 131.216 115.74C130.683 115.42 130.263 115.053 129.956 114.64H129.836C129.863 114.867 129.889 115.153 129.916 115.5C129.943 115.847 129.956 116.147 129.956 116.4V120.8H128.196V105.28H129.636L129.876 106.74H129.956C130.276 106.273 130.696 105.88 131.216 105.56C131.736 105.24 132.429 105.08 133.296 105.08ZM132.976 106.56C131.883 106.56 131.109 106.867 130.656 107.48C130.216 108.093 129.983 109.027 129.956 110.28V110.62C129.956 111.94 130.169 112.96 130.596 113.68C131.036 114.387 131.843 114.74 133.016 114.74C133.669 114.74 134.203 114.56 134.616 114.2C135.043 113.84 135.356 113.353 135.556 112.74C135.769 112.113 135.876 111.4 135.876 110.6C135.876 109.373 135.636 108.393 135.156 107.66C134.689 106.927 133.963 106.56 132.976 106.56ZM144.081 114.76C144.347 114.76 144.621 114.74 144.901 114.7C145.181 114.647 145.407 114.593 145.581 114.54V115.88C145.394 115.973 145.127 116.047 144.781 116.1C144.434 116.167 144.101 116.2 143.781 116.2C143.221 116.2 142.701 116.107 142.221 115.92C141.754 115.72 141.374 115.38 141.081 114.9C140.787 114.42 140.641 113.747 140.641 112.88V106.64H139.121V105.8L140.661 105.1L141.361 102.82H142.401V105.28H145.501V106.64H142.401V112.84C142.401 113.493 142.554 113.98 142.861 114.3C143.181 114.607 143.587 114.76 144.081 114.76ZM148.627 101.26C148.894 101.26 149.127 101.353 149.327 101.54C149.541 101.713 149.647 101.993 149.647 102.38C149.647 102.753 149.541 103.033 149.327 103.22C149.127 103.407 148.894 103.5 148.627 103.5C148.334 103.5 148.087 103.407 147.887 103.22C147.687 103.033 147.587 102.753 147.587 102.38C147.587 101.993 147.687 101.713 147.887 101.54C148.087 101.353 148.334 101.26 148.627 101.26ZM149.487 105.28V116H147.727V105.28H149.487ZM162.204 110.62C162.204 112.393 161.75 113.767 160.844 114.74C159.95 115.713 158.737 116.2 157.204 116.2C156.257 116.2 155.41 115.987 154.664 115.56C153.93 115.12 153.35 114.487 152.924 113.66C152.497 112.82 152.284 111.807 152.284 110.62C152.284 108.847 152.73 107.48 153.624 106.52C154.517 105.56 155.73 105.08 157.264 105.08C158.237 105.08 159.09 105.3 159.824 105.74C160.57 106.167 161.15 106.793 161.564 107.62C161.99 108.433 162.204 109.433 162.204 110.62ZM154.104 110.62C154.104 111.887 154.35 112.893 154.844 113.64C155.35 114.373 156.15 114.74 157.244 114.74C158.324 114.74 159.117 114.373 159.624 113.64C160.13 112.893 160.384 111.887 160.384 110.62C160.384 109.353 160.13 108.36 159.624 107.64C159.117 106.92 158.317 106.56 157.224 106.56C156.13 106.56 155.337 106.92 154.844 107.64C154.35 108.36 154.104 109.353 154.104 110.62ZM170.153 105.08C171.433 105.08 172.4 105.393 173.053 106.02C173.706 106.633 174.033 107.633 174.033 109.02V116H172.293V109.14C172.293 107.42 171.493 106.56 169.893 106.56C168.706 106.56 167.886 106.893 167.433 107.56C166.98 108.227 166.753 109.187 166.753 110.44V116H164.993V105.28H166.413L166.673 106.74H166.773C167.12 106.18 167.6 105.767 168.213 105.5C168.826 105.22 169.473 105.08 170.153 105.08ZM186.352 116.2C185.018 116.2 183.952 115.74 183.152 114.82C182.352 113.887 181.952 112.5 181.952 110.66C181.952 108.82 182.352 107.433 183.152 106.5C183.965 105.553 185.038 105.08 186.372 105.08C187.198 105.08 187.872 105.233 188.392 105.54C188.925 105.847 189.358 106.22 189.692 106.66H189.812C189.798 106.487 189.772 106.233 189.732 105.9C189.705 105.553 189.692 105.28 189.692 105.08V100.8H191.452V116H190.032L189.772 114.56H189.692C189.372 115.013 188.945 115.4 188.412 115.72C187.878 116.04 187.192 116.2 186.352 116.2ZM186.632 114.74C187.765 114.74 188.558 114.433 189.012 113.82C189.478 113.193 189.712 112.253 189.712 111V110.68C189.712 109.347 189.492 108.327 189.052 107.62C188.612 106.9 187.798 106.54 186.612 106.54C185.665 106.54 184.952 106.92 184.472 107.68C184.005 108.427 183.772 109.433 183.772 110.7C183.772 111.98 184.005 112.973 184.472 113.68C184.952 114.387 185.672 114.74 186.632 114.74ZM203.816 105.28V116H202.376L202.116 114.58H202.036C201.69 115.14 201.21 115.553 200.596 115.82C199.983 116.073 199.33 116.2 198.636 116.2C197.343 116.2 196.37 115.893 195.716 115.28C195.063 114.653 194.736 113.66 194.736 112.3V105.28H196.516V112.18C196.516 113.887 197.31 114.74 198.896 114.74C200.083 114.74 200.903 114.407 201.356 113.74C201.823 113.073 202.056 112.113 202.056 110.86V105.28H203.816ZM215.995 114.76C216.262 114.76 216.535 114.74 216.815 114.7C217.095 114.647 217.322 114.593 217.495 114.54V115.88C217.308 115.973 217.042 116.047 216.695 116.1C216.348 116.167 216.015 116.2 215.695 116.2C215.135 116.2 214.615 116.107 214.135 115.92C213.668 115.72 213.288 115.38 212.995 114.9C212.702 114.42 212.555 113.747 212.555 112.88V106.64H211.035V105.8L212.575 105.1L213.275 102.82H214.315V105.28H217.415V106.64H214.315V112.84C214.315 113.493 214.468 113.98 214.775 114.3C215.095 114.607 215.502 114.76 215.995 114.76ZM223.701 105.1C225.008 105.1 225.975 105.387 226.601 105.96C227.228 106.533 227.541 107.447 227.541 108.7V116H226.261L225.921 114.48H225.841C225.375 115.067 224.881 115.5 224.361 115.78C223.855 116.06 223.148 116.2 222.241 116.2C221.268 116.2 220.461 115.947 219.821 115.44C219.181 114.92 218.861 114.113 218.861 113.02C218.861 111.953 219.281 111.133 220.121 110.56C220.961 109.973 222.255 109.653 224.001 109.6L225.821 109.54V108.9C225.821 108.007 225.628 107.387 225.241 107.04C224.855 106.693 224.308 106.52 223.601 106.52C223.041 106.52 222.508 106.607 222.001 106.78C221.495 106.94 221.021 107.127 220.581 107.34L220.041 106.02C220.508 105.767 221.061 105.553 221.701 105.38C222.341 105.193 223.008 105.1 223.701 105.1ZM224.221 110.82C222.888 110.873 221.961 111.087 221.441 111.46C220.935 111.833 220.681 112.36 220.681 113.04C220.681 113.64 220.861 114.08 221.221 114.36C221.595 114.64 222.068 114.78 222.641 114.78C223.548 114.78 224.301 114.533 224.901 114.04C225.501 113.533 225.801 112.76 225.801 111.72V110.76L224.221 110.82ZM232.612 104.5C232.612 104.953 232.599 105.38 232.572 105.78C232.559 106.167 232.539 106.473 232.512 106.7H232.612C232.919 106.247 233.339 105.867 233.872 105.56C234.406 105.253 235.092 105.1 235.932 105.1C237.266 105.1 238.332 105.567 239.132 106.5C239.946 107.42 240.352 108.8 240.352 110.64C240.352 112.48 239.946 113.867 239.132 114.8C238.319 115.733 237.252 116.2 235.932 116.2C235.092 116.2 234.406 116.047 233.872 115.74C233.339 115.433 232.919 115.067 232.612 114.64H232.472L232.112 116H230.852V100.8H232.612V104.5ZM235.632 106.56C234.499 106.56 233.712 106.887 233.272 107.54C232.832 108.193 232.612 109.207 232.612 110.58V110.66C232.612 111.98 232.826 112.993 233.252 113.7C233.692 114.393 234.499 114.74 235.672 114.74C236.632 114.74 237.346 114.387 237.812 113.68C238.292 112.973 238.532 111.953 238.532 110.62C238.532 107.913 237.566 106.56 235.632 106.56ZM244.917 116H243.157V100.8H244.917V116ZM252.453 105.08C253.373 105.08 254.16 105.28 254.813 105.68C255.48 106.08 255.987 106.647 256.333 107.38C256.693 108.1 256.873 108.947 256.873 109.92V110.98H249.533C249.56 112.193 249.867 113.12 250.453 113.76C251.053 114.387 251.887 114.7 252.953 114.7C253.633 114.7 254.233 114.64 254.753 114.52C255.287 114.387 255.833 114.2 256.393 113.96V115.5C255.847 115.74 255.307 115.913 254.773 116.02C254.24 116.14 253.607 116.2 252.873 116.2C251.86 116.2 250.96 115.993 250.173 115.58C249.4 115.167 248.793 114.553 248.353 113.74C247.927 112.913 247.713 111.907 247.713 110.72C247.713 109.547 247.907 108.54 248.293 107.7C248.693 106.86 249.247 106.213 249.953 105.76C250.673 105.307 251.507 105.08 252.453 105.08ZM252.433 106.52C251.593 106.52 250.927 106.793 250.433 107.34C249.953 107.873 249.667 108.62 249.573 109.58H255.033C255.02 108.673 254.807 107.94 254.393 107.38C253.98 106.807 253.327 106.52 252.433 106.52ZM263.662 105.1C264.969 105.1 265.936 105.387 266.562 105.96C267.189 106.533 267.502 107.447 267.502 108.7V116H266.222L265.882 114.48H265.802C265.336 115.067 264.842 115.5 264.322 115.78C263.816 116.06 263.109 116.2 262.202 116.2C261.229 116.2 260.422 115.947 259.782 115.44C259.142 114.92 258.822 114.113 258.822 113.02C258.822 111.953 259.242 111.133 260.082 110.56C260.922 109.973 262.216 109.653 263.962 109.6L265.782 109.54V108.9C265.782 108.007 265.589 107.387 265.202 107.04C264.816 106.693 264.269 106.52 263.562 106.52C263.002 106.52 262.469 106.607 261.962 106.78C261.456 106.94 260.982 107.127 260.542 107.34L260.002 106.02C260.469 105.767 261.022 105.553 261.662 105.38C262.302 105.193 262.969 105.1 263.662 105.1ZM264.182 110.82C262.849 110.873 261.922 111.087 261.402 111.46C260.896 111.833 260.642 112.36 260.642 113.04C260.642 113.64 260.822 114.08 261.182 114.36C261.556 114.64 262.029 114.78 262.602 114.78C263.509 114.78 264.262 114.533 264.862 114.04C265.462 113.533 265.762 112.76 265.762 111.72V110.76L264.182 110.82ZM279.773 105.28V116H278.333L278.073 114.58H277.993C277.647 115.14 277.167 115.553 276.553 115.82C275.94 116.073 275.287 116.2 274.593 116.2C273.3 116.2 272.327 115.893 271.673 115.28C271.02 114.653 270.693 113.66 270.693 112.3V105.28H272.473V112.18C272.473 113.887 273.267 114.74 274.853 114.74C276.04 114.74 276.86 114.407 277.313 113.74C277.78 113.073 278.013 112.113 278.013 110.86V105.28H279.773Z" fill="black"/>
<mask id="path-5-inside-2_8280_1394" fill="white">
<path d="M68 148H718V200H68V148Z"/>
</mask>
<path d="M718 200V199H68V200V201H718V200Z" fill="#D9D9D9" mask="url(#path-5-inside-2_8280_1394)"/>
<path d="M68 156C68 151.582 71.5817 148 76 148H200C204.418 148 208 151.582 208 156V176C208 180.418 204.418 184 200 184H76C71.5817 184 68 180.418 68 176V156Z" fill="#26374A"/>
<g clip-path="url(#clip1_8280_1394)">
<path fill-rule="evenodd" clip-rule="evenodd" d="M88.6667 168.455C89.5372 168.455 90.276 169.012 90.5508 169.788H92V171.121H90.5508C90.276 171.898 89.5372 172.455 88.6667 172.455C87.7961 172.455 87.0573 171.898 86.7826 171.121H80V169.788H86.7826C87.0573 169.012 87.7961 168.455 88.6667 168.455ZM88.6667 169.788C88.2985 169.788 88 170.086 88 170.455C88 170.823 88.2985 171.121 88.6667 171.121C89.0349 171.121 89.3333 170.823 89.3333 170.455C89.3333 170.086 89.0349 169.788 88.6667 169.788Z" fill="white"/>
<path fill-rule="evenodd" clip-rule="evenodd" d="M83.3333 164.455C84.2039 164.455 84.9427 165.012 85.2174 165.788H92V167.121H85.2174C84.9427 167.898 84.2039 168.455 83.3333 168.455C82.4628 168.455 81.724 167.898 81.4492 167.121H80V165.788H81.4492C81.724 165.012 82.4628 164.455 83.3333 164.455ZM83.3333 165.788C82.9651 165.788 82.6667 166.086 82.6667 166.455C82.6667 166.823 82.9651 167.121 83.3333 167.121C83.7015 167.121 84 166.823 84 166.455C84 166.086 83.7015 165.788 83.3333 165.788Z" fill="white"/>
<path fill-rule="evenodd" clip-rule="evenodd" d="M88.6667 160.455C89.5372 160.455 90.276 161.012 90.5508 161.788H92V163.121H90.5508C90.276 163.898 89.5372 164.455 88.6667 164.455C87.7961 164.455 87.0573 163.898 86.7826 163.121H80V161.788H86.7826C87.0573 161.012 87.7961 160.455 88.6667 160.455ZM88.6667 161.788C88.2985 161.788 88 162.086 88 162.455C88 162.823 88.2985 163.121 88.6667 163.121C89.0349 163.121 89.3333 162.823 89.3333 162.455C89.3333 162.086 89.0349 161.788 88.6667 161.788Z" fill="white"/>
<path d="M104.992 172H103.552V160.576H109.936V161.84H104.992V165.888H109.632V167.152H104.992V172ZM112.377 160.208C112.59 160.208 112.777 160.283 112.937 160.432C113.108 160.571 113.193 160.795 113.193 161.104C113.193 161.403 113.108 161.627 112.937 161.776C112.777 161.925 112.59 162 112.377 162C112.142 162 111.945 161.925 111.785 161.776C111.625 161.627 111.545 161.403 111.545 161.104C111.545 160.795 111.625 160.571 111.785 160.432C111.945 160.283 112.142 160.208 112.377 160.208ZM113.065 163.424V172H111.657V163.424H113.065ZM117.19 172H115.782V159.84H117.19V172ZM122.771 171.008C122.984 171.008 123.203 170.992 123.427 170.96C123.651 170.917 123.832 170.875 123.971 170.832V171.904C123.822 171.979 123.608 172.037 123.331 172.08C123.054 172.133 122.787 172.16 122.531 172.16C122.083 172.16 121.667 172.085 121.283 171.936C120.91 171.776 120.606 171.504 120.371 171.12C120.136 170.736 120.019 170.197 120.019 169.504V164.512H118.803V163.84L120.035 163.28L120.595 161.456H121.427V163.424H123.907V164.512H121.427V169.472C121.427 169.995 121.55 170.384 121.795 170.64C122.051 170.885 122.376 171.008 122.771 171.008ZM129.688 163.264C129.848 163.264 130.019 163.275 130.2 163.296C130.392 163.307 130.557 163.328 130.696 163.36L130.52 164.656C130.381 164.624 130.227 164.597 130.056 164.576C129.896 164.555 129.741 164.544 129.592 164.544C129.155 164.544 128.744 164.667 128.36 164.912C127.976 165.147 127.667 165.483 127.432 165.92C127.208 166.347 127.096 166.848 127.096 167.424V172H125.688V163.424H126.84L127 164.992H127.064C127.341 164.523 127.699 164.117 128.136 163.776C128.573 163.435 129.091 163.264 129.688 163.264ZM135.297 163.264C136.033 163.264 136.662 163.424 137.185 163.744C137.718 164.064 138.124 164.517 138.401 165.104C138.689 165.68 138.833 166.357 138.833 167.136V167.984H132.961C132.982 168.955 133.228 169.696 133.697 170.208C134.177 170.709 134.844 170.96 135.697 170.96C136.241 170.96 136.721 170.912 137.137 170.816C137.564 170.709 138.001 170.56 138.449 170.368V171.6C138.012 171.792 137.58 171.931 137.153 172.016C136.726 172.112 136.22 172.16 135.633 172.16C134.822 172.16 134.102 171.995 133.473 171.664C132.854 171.333 132.369 170.843 132.017 170.192C131.676 169.531 131.505 168.725 131.505 167.776C131.505 166.837 131.66 166.032 131.969 165.36C132.289 164.688 132.732 164.171 133.297 163.808C133.873 163.445 134.54 163.264 135.297 163.264ZM135.281 164.416C134.609 164.416 134.076 164.635 133.681 165.072C133.297 165.499 133.068 166.096 132.993 166.864H137.361C137.35 166.139 137.18 165.552 136.849 165.104C136.518 164.645 135.996 164.416 135.281 164.416ZM145.016 163.264C145.176 163.264 145.347 163.275 145.528 163.296C145.72 163.307 145.886 163.328 146.024 163.36L145.848 164.656C145.71 164.624 145.555 164.597 145.384 164.576C145.224 164.555 145.07 164.544 144.92 164.544C144.483 164.544 144.072 164.667 143.688 164.912C143.304 165.147 142.995 165.483 142.76 165.92C142.536 166.347 142.424 166.848 142.424 167.424V172H141.016V163.424H142.168L142.328 164.992H142.392C142.67 164.523 143.027 164.117 143.464 163.776C143.902 163.435 144.419 163.264 145.016 163.264ZM155.094 163.264C155.83 163.264 156.459 163.424 156.982 163.744C157.515 164.064 157.921 164.517 158.198 165.104C158.486 165.68 158.63 166.357 158.63 167.136V167.984H152.758C152.779 168.955 153.025 169.696 153.494 170.208C153.974 170.709 154.641 170.96 155.494 170.96C156.038 170.96 156.518 170.912 156.934 170.816C157.361 170.709 157.798 170.56 158.246 170.368V171.6C157.809 171.792 157.377 171.931 156.95 172.016C156.523 172.112 156.017 172.16 155.43 172.16C154.619 172.16 153.899 171.995 153.27 171.664C152.651 171.333 152.166 170.843 151.814 170.192C151.473 169.531 151.302 168.725 151.302 167.776C151.302 166.837 151.457 166.032 151.766 165.36C152.086 164.688 152.529 164.171 153.094 163.808C153.67 163.445 154.337 163.264 155.094 163.264ZM155.078 164.416C154.406 164.416 153.873 164.635 153.478 165.072C153.094 165.499 152.865 166.096 152.79 166.864H157.158C157.147 166.139 156.977 165.552 156.646 165.104C156.315 164.645 155.793 164.416 155.078 164.416ZM163.677 171.008C163.89 171.008 164.109 170.992 164.333 170.96C164.557 170.917 164.738 170.875 164.877 170.832V171.904C164.728 171.979 164.514 172.037 164.237 172.08C163.96 172.133 163.693 172.16 163.437 172.16C162.989 172.16 162.573 172.085 162.189 171.936C161.816 171.776 161.512 171.504 161.277 171.12C161.042 170.736 160.925 170.197 160.925 169.504V164.512H159.709V163.84L160.941 163.28L161.501 161.456H162.333V163.424H164.813V164.512H162.333V169.472C162.333 169.995 162.456 170.384 162.701 170.64C162.957 170.885 163.282 171.008 163.677 171.008ZM173.615 171.008C173.828 171.008 174.047 170.992 174.271 170.96C174.495 170.917 174.676 170.875 174.815 170.832V171.904C174.665 171.979 174.452 172.037 174.175 172.08C173.897 172.133 173.631 172.16 173.375 172.16C172.927 172.16 172.511 172.085 172.127 171.936C171.753 171.776 171.449 171.504 171.215 171.12C170.98 170.736 170.863 170.197 170.863 169.504V164.512H169.647V163.84L170.879 163.28L171.439 161.456H172.271V163.424H174.751V164.512H172.271V169.472C172.271 169.995 172.393 170.384 172.639 170.64C172.895 170.885 173.22 171.008 173.615 171.008ZM180.532 163.264C180.692 163.264 180.863 163.275 181.044 163.296C181.236 163.307 181.401 163.328 181.54 163.36L181.364 164.656C181.225 164.624 181.071 164.597 180.9 164.576C180.74 164.555 180.585 164.544 180.436 164.544C179.999 164.544 179.588 164.667 179.204 164.912C178.82 165.147 178.511 165.483 178.276 165.92C178.052 166.347 177.94 166.848 177.94 167.424V172H176.532V163.424H177.684L177.844 164.992H177.908C178.185 164.523 178.543 164.117 178.98 163.776C179.417 163.435 179.935 163.264 180.532 163.264ZM183.861 160.208C184.075 160.208 184.261 160.283 184.421 160.432C184.592 160.571 184.677 160.795 184.677 161.104C184.677 161.403 184.592 161.627 184.421 161.776C184.261 161.925 184.075 162 183.861 162C183.627 162 183.429 161.925 183.269 161.776C183.109 161.627 183.029 161.403 183.029 161.104C183.029 160.795 183.109 160.571 183.269 160.432C183.429 160.283 183.627 160.208 183.861 160.208ZM184.549 163.424V172H183.141V163.424H184.549ZM190.578 163.264C191.314 163.264 191.944 163.424 192.466 163.744C193 164.064 193.405 164.517 193.682 165.104C193.97 165.68 194.114 166.357 194.114 167.136V167.984H188.242C188.264 168.955 188.509 169.696 188.978 170.208C189.458 170.709 190.125 170.96 190.978 170.96C191.522 170.96 192.002 170.912 192.418 170.816C192.845 170.709 193.282 170.56 193.73 170.368V171.6C193.293 171.792 192.861 171.931 192.434 172.016C192.008 172.112 191.501 172.16 190.914 172.16C190.104 172.16 189.384 171.995 188.754 171.664C188.136 171.333 187.65 170.843 187.298 170.192C186.957 169.531 186.786 168.725 186.786 167.776C186.786 166.837 186.941 166.032 187.25 165.36C187.57 164.688 188.013 164.171 188.578 163.808C189.154 163.445 189.821 163.264 190.578 163.264ZM190.562 164.416C189.89 164.416 189.357 164.635 188.962 165.072C188.578 165.499 188.349 166.096 188.274 166.864H192.642C192.632 166.139 192.461 165.552 192.13 165.104C191.8 164.645 191.277 164.416 190.562 164.416ZM200.298 163.264C200.458 163.264 200.628 163.275 200.81 163.296C201.002 163.307 201.167 163.328 201.306 163.36L201.13 164.656C200.991 164.624 200.836 164.597 200.666 164.576C200.506 164.555 200.351 164.544 200.202 164.544C199.764 164.544 199.354 164.667 198.97 164.912C198.586 165.147 198.276 165.483 198.042 165.92C197.818 166.347 197.706 166.848 197.706 167.424V172H196.298V163.424H197.45L197.61 164.992H197.674C197.951 164.523 198.308 164.117 198.746 163.776C199.183 163.435 199.7 163.264 200.298 163.264Z" fill="white"/>
</g>
<path d="M69.552 236V224.576H70.992V234.72H75.984V236H69.552ZM78.4706 224.208C78.684 224.208 78.8706 224.283 79.0306 224.432C79.2013 224.571 79.2866 224.795 79.2866 225.104C79.2866 225.403 79.2013 225.627 79.0306 225.776C78.8706 225.925 78.684 226 78.4706 226C78.236 226 78.0386 225.925 77.8786 225.776C77.7186 225.627 77.6386 225.403 77.6386 225.104C77.6386 224.795 77.7186 224.571 77.8786 224.432C78.0386 224.283 78.236 224.208 78.4706 224.208ZM79.1586 227.424V236H77.7506V227.424H79.1586ZM84.9156 227.264C85.481 227.264 85.9876 227.371 86.4356 227.584C86.8943 227.797 87.2836 228.123 87.6036 228.56H87.6836L87.8756 227.424H88.9956V236.144C88.9956 237.371 88.681 238.293 88.0516 238.912C87.433 239.531 86.4676 239.84 85.1556 239.84C83.897 239.84 82.8676 239.659 82.0676 239.296V238C82.9103 238.448 83.9663 238.672 85.2356 238.672C85.9716 238.672 86.5476 238.453 86.9636 238.016C87.3903 237.589 87.6036 237.003 87.6036 236.256V235.92C87.6036 235.792 87.609 235.611 87.6196 235.376C87.6303 235.131 87.641 234.96 87.6516 234.864H87.5876C87.0116 235.728 86.1263 236.16 84.9316 236.16C83.8223 236.16 82.953 235.771 82.3236 234.992C81.705 234.213 81.3956 233.125 81.3956 231.728C81.3956 230.363 81.705 229.28 82.3236 228.48C82.953 227.669 83.817 227.264 84.9156 227.264ZM85.1076 228.448C84.393 228.448 83.8383 228.736 83.4436 229.312C83.049 229.877 82.8516 230.688 82.8516 231.744C82.8516 232.8 83.0436 233.611 83.4276 234.176C83.8223 234.731 84.393 235.008 85.1396 235.008C86.0036 235.008 86.633 234.779 87.0276 234.32C87.4223 233.851 87.6196 233.099 87.6196 232.064V231.728C87.6196 230.555 87.417 229.717 87.0116 229.216C86.6063 228.704 85.9716 228.448 85.1076 228.448ZM95.8474 227.264C96.8714 227.264 97.6447 227.515 98.1674 228.016C98.69 228.507 98.9514 229.307 98.9514 230.416V236H97.5594V230.512C97.5594 229.136 96.9194 228.448 95.6394 228.448C94.69 228.448 94.034 228.715 93.6714 229.248C93.3087 229.781 93.1274 230.549 93.1274 231.552V236H91.7194V227.424H92.8554L93.0634 228.592H93.1434C93.4207 228.144 93.8047 227.813 94.2954 227.6C94.786 227.376 95.3034 227.264 95.8474 227.264ZM104.922 227.264C105.658 227.264 106.287 227.424 106.81 227.744C107.343 228.064 107.749 228.517 108.026 229.104C108.314 229.68 108.458 230.357 108.458 231.136V231.984H102.586C102.607 232.955 102.853 233.696 103.322 234.208C103.802 234.709 104.469 234.96 105.322 234.96C105.866 234.96 106.346 234.912 106.762 234.816C107.189 234.709 107.626 234.56 108.074 234.368V235.6C107.637 235.792 107.205 235.931 106.778 236.016C106.351 236.112 105.845 236.16 105.258 236.16C104.447 236.16 103.727 235.995 103.098 235.664C102.479 235.333 101.994 234.843 101.642 234.192C101.301 233.531 101.13 232.725 101.13 231.776C101.13 230.837 101.285 230.032 101.594 229.36C101.914 228.688 102.357 228.171 102.922 227.808C103.498 227.445 104.165 227.264 104.922 227.264ZM104.906 228.416C104.234 228.416 103.701 228.635 103.306 229.072C102.922 229.499 102.693 230.096 102.618 230.864H106.986C106.975 230.139 106.805 229.552 106.474 229.104C106.143 228.645 105.621 228.416 104.906 228.416ZM116.225 233.632C116.225 234.464 115.916 235.093 115.297 235.52C114.679 235.947 113.847 236.16 112.801 236.16C112.204 236.16 111.687 236.112 111.249 236.016C110.823 235.92 110.444 235.787 110.113 235.616V234.336C110.455 234.507 110.865 234.667 111.345 234.816C111.836 234.955 112.332 235.024 112.833 235.024C113.548 235.024 114.065 234.912 114.385 234.688C114.705 234.453 114.865 234.144 114.865 233.76C114.865 233.547 114.807 233.355 114.689 233.184C114.572 233.013 114.359 232.843 114.049 232.672C113.751 232.501 113.319 232.309 112.753 232.096C112.199 231.883 111.724 231.669 111.329 231.456C110.935 231.243 110.631 230.987 110.417 230.688C110.204 230.389 110.097 230.005 110.097 229.536C110.097 228.811 110.391 228.251 110.977 227.856C111.575 227.461 112.353 227.264 113.313 227.264C113.836 227.264 114.321 227.317 114.769 227.424C115.228 227.52 115.655 227.659 116.049 227.84L115.569 228.96C115.207 228.811 114.828 228.683 114.433 228.576C114.039 228.469 113.633 228.416 113.217 228.416C112.641 228.416 112.199 228.512 111.889 228.704C111.591 228.885 111.441 229.136 111.441 229.456C111.441 229.691 111.511 229.893 111.649 230.064C111.788 230.224 112.017 230.384 112.337 230.544C112.668 230.693 113.105 230.875 113.649 231.088C114.193 231.291 114.657 231.499 115.041 231.712C115.425 231.925 115.719 232.187 115.921 232.496C116.124 232.795 116.225 233.173 116.225 233.632Z" fill="#333333"/>
<rect x="126" y="217" width="88" height="26" rx="2" fill="white"/>
<rect x="126" y="217" width="88" height="26" rx="2" stroke="#333333" stroke-width="2"/>
<path d="M137.4 228.992C138.573 228.992 139.507 229.285 140.2 229.872C140.893 230.459 141.24 231.285 141.24 232.352C141.24 233.536 140.861 234.469 140.104 235.152C139.357 235.824 138.312 236.16 136.968 236.16C136.381 236.16 135.827 236.107 135.304 236C134.792 235.893 134.36 235.739 134.008 235.536V234.208C134.392 234.443 134.856 234.629 135.4 234.768C135.955 234.896 136.483 234.96 136.984 234.96C137.827 234.96 138.504 234.763 139.016 234.368C139.539 233.963 139.8 233.339 139.8 232.496C139.8 231.749 139.571 231.179 139.112 230.784C138.653 230.379 137.928 230.176 136.936 230.176C136.637 230.176 136.296 230.203 135.912 230.256C135.528 230.309 135.219 230.363 134.984 230.416L134.28 229.968L134.712 224.576H140.44V225.856H135.912L135.64 229.168C135.821 229.136 136.067 229.099 136.376 229.056C136.685 229.013 137.027 228.992 137.4 228.992Z" fill="#333333"/>
<path d="M193 232.094L198.688 226.406L200 227.719L193 234.719L186 227.719L187.312 226.406L193 232.094Z" fill="#333333"/>
<rect width="1" height="22" transform="translate(223 219)" fill="#B3B3B3"/>
<path d="M240.72 236L239.344 232.464H234.816L233.456 236H232L236.464 224.528H237.76L242.208 236H240.72ZM237.632 227.728C237.6 227.643 237.547 227.488 237.472 227.264C237.397 227.04 237.323 226.811 237.248 226.576C237.184 226.331 237.131 226.144 237.088 226.016C237.013 226.347 236.928 226.672 236.832 226.992C236.736 227.301 236.656 227.547 236.592 227.728L235.296 231.184H238.912L237.632 227.728ZM247.531 228.512H245.371V236H243.963V228.512H242.459V227.856L243.963 227.376V226.88C243.963 225.771 244.208 224.976 244.699 224.496C245.189 224.005 245.872 223.76 246.747 223.76C247.088 223.76 247.397 223.792 247.675 223.856C247.963 223.909 248.208 223.973 248.411 224.048L248.043 225.152C247.872 225.099 247.675 225.045 247.451 224.992C247.227 224.939 246.997 224.912 246.763 224.912C246.293 224.912 245.941 225.072 245.707 225.392C245.483 225.701 245.371 226.192 245.371 226.864V227.424H247.531V228.512ZM253.035 228.512H250.875V236H249.467V228.512H247.963V227.856L249.467 227.376V226.88C249.467 225.771 249.712 224.976 250.203 224.496C250.693 224.005 251.376 223.76 252.251 223.76C252.592 223.76 252.901 223.792 253.179 223.856C253.467 223.909 253.712 223.973 253.915 224.048L253.547 225.152C253.376 225.099 253.179 225.045 252.955 224.992C252.731 224.939 252.501 224.912 252.267 224.912C251.797 224.912 251.445 225.072 251.211 225.392C250.987 225.701 250.875 226.192 250.875 226.864V227.424H253.035V228.512ZM255.307 224.208C255.52 224.208 255.707 224.283 255.867 224.432C256.037 224.571 256.123 224.795 256.123 225.104C256.123 225.403 256.037 225.627 255.867 225.776C255.707 225.925 255.52 226 255.307 226C255.072 226 254.875 225.925 254.715 225.776C254.555 225.627 254.475 225.403 254.475 225.104C254.475 224.795 254.555 224.571 254.715 224.432C254.875 224.283 255.072 224.208 255.307 224.208ZM255.995 227.424V236H254.587V227.424H255.995ZM262.159 236.16C261.402 236.16 260.725 236.005 260.127 235.696C259.541 235.387 259.077 234.907 258.735 234.256C258.405 233.605 258.239 232.773 258.239 231.76C258.239 230.704 258.415 229.845 258.767 229.184C259.119 228.523 259.594 228.037 260.191 227.728C260.799 227.419 261.487 227.264 262.255 227.264C262.693 227.264 263.114 227.312 263.519 227.408C263.925 227.493 264.255 227.6 264.511 227.728L264.079 228.896C263.823 228.8 263.525 228.709 263.183 228.624C262.842 228.539 262.522 228.496 262.223 228.496C260.538 228.496 259.695 229.579 259.695 231.744C259.695 232.779 259.898 233.573 260.303 234.128C260.719 234.672 261.333 234.944 262.143 234.944C262.613 234.944 263.023 234.896 263.375 234.8C263.738 234.704 264.069 234.587 264.367 234.448V235.696C264.079 235.845 263.759 235.957 263.407 236.032C263.066 236.117 262.65 236.16 262.159 236.16ZM267.815 227.408C267.815 227.835 267.788 228.235 267.735 228.608H267.831C268.108 228.171 268.482 227.84 268.951 227.616C269.431 227.392 269.948 227.28 270.503 227.28C271.548 227.28 272.332 227.531 272.855 228.032C273.378 228.523 273.639 229.317 273.639 230.416V236H272.247V230.512C272.247 229.136 271.607 228.448 270.327 228.448C269.367 228.448 268.706 228.72 268.343 229.264C267.991 229.797 267.815 230.565 267.815 231.568V236H266.407V223.84H267.815V227.408ZM279.61 227.264C280.346 227.264 280.975 227.424 281.498 227.744C282.031 228.064 282.436 228.517 282.714 229.104C283.002 229.68 283.146 230.357 283.146 231.136V231.984H277.274C277.295 232.955 277.54 233.696 278.01 234.208C278.49 234.709 279.156 234.96 280.01 234.96C280.554 234.96 281.034 234.912 281.45 234.816C281.876 234.709 282.314 234.56 282.762 234.368V235.6C282.324 235.792 281.892 235.931 281.466 236.016C281.039 236.112 280.532 236.16 279.946 236.16C279.135 236.16 278.415 235.995 277.786 235.664C277.167 235.333 276.682 234.843 276.33 234.192C275.988 233.531 275.818 232.725 275.818 231.776C275.818 230.837 275.972 230.032 276.282 229.36C276.602 228.688 277.044 228.171 277.61 227.808C278.186 227.445 278.852 227.264 279.61 227.264ZM279.594 228.416C278.922 228.416 278.388 228.635 277.994 229.072C277.61 229.499 277.38 230.096 277.306 230.864H281.674C281.663 230.139 281.492 229.552 281.162 229.104C280.831 228.645 280.308 228.416 279.594 228.416Z" fill="#333333"/>
<path d="M293.68 236H292.304V228.016C292.304 227.557 292.309 227.189 292.32 226.912C292.331 226.635 292.347 226.347 292.368 226.048C292.197 226.219 292.043 226.363 291.904 226.48C291.765 226.597 291.589 226.747 291.376 226.928L290.16 227.92L289.424 226.976L292.512 224.576H293.68V236Z" fill="#333333"/>
<path d="M304.608 227.28C305.653 227.28 306.427 227.509 306.928 227.968C307.429 228.427 307.68 229.157 307.68 230.16V236H306.656L306.384 234.784H306.32C305.947 235.253 305.552 235.6 305.136 235.824C304.731 236.048 304.165 236.16 303.44 236.16C302.661 236.16 302.016 235.957 301.504 235.552C300.992 235.136 300.736 234.491 300.736 233.616C300.736 232.763 301.072 232.107 301.744 231.648C302.416 231.179 303.451 230.923 304.848 230.88L306.304 230.832V230.32C306.304 229.605 306.149 229.109 305.84 228.832C305.531 228.555 305.093 228.416 304.528 228.416C304.08 228.416 303.653 228.485 303.248 228.624C302.843 228.752 302.464 228.901 302.112 229.072L301.68 228.016C302.053 227.813 302.496 227.643 303.008 227.504C303.52 227.355 304.053 227.28 304.608 227.28ZM305.024 231.856C303.957 231.899 303.216 232.069 302.8 232.368C302.395 232.667 302.192 233.088 302.192 233.632C302.192 234.112 302.336 234.464 302.624 234.688C302.923 234.912 303.301 235.024 303.76 235.024C304.485 235.024 305.088 234.827 305.568 234.432C306.048 234.027 306.288 233.408 306.288 232.576V231.808L305.024 231.856ZM304.096 223.744C304.213 223.979 304.357 224.245 304.528 224.544C304.709 224.832 304.896 225.115 305.088 225.392C305.291 225.669 305.472 225.909 305.632 226.112V226.304H304.688C304.443 226.112 304.165 225.867 303.856 225.568C303.547 225.259 303.259 224.955 302.992 224.656C302.736 224.347 302.544 224.096 302.416 223.904V223.744H304.096Z" fill="#333333"/>
<path d="M316.68 236H315.304V228.016C315.304 227.557 315.309 227.189 315.32 226.912C315.331 226.635 315.347 226.347 315.368 226.048C315.197 226.219 315.043 226.363 314.904 226.48C314.765 226.597 314.589 226.747 314.376 226.928L313.16 227.92L312.424 226.976L315.512 224.576H316.68V236ZM328.524 230.272C328.524 231.499 328.396 232.555 328.14 233.44C327.884 234.315 327.479 234.987 326.924 235.456C326.37 235.925 325.634 236.16 324.716 236.16C323.426 236.16 322.471 235.643 321.852 234.608C321.244 233.563 320.94 232.117 320.94 230.272C320.94 229.035 321.063 227.979 321.308 227.104C321.564 226.229 321.97 225.563 322.524 225.104C323.079 224.635 323.81 224.4 324.716 224.4C325.996 224.4 326.951 224.917 327.58 225.952C328.21 226.976 328.524 228.416 328.524 230.272ZM322.348 230.272C322.348 231.84 322.524 233.013 322.876 233.792C323.239 234.571 323.852 234.96 324.716 234.96C325.57 234.96 326.178 234.576 326.54 233.808C326.914 233.029 327.1 231.851 327.1 230.272C327.1 228.715 326.914 227.547 326.54 226.768C326.178 225.989 325.57 225.6 324.716 225.6C323.852 225.6 323.239 225.989 322.876 226.768C322.524 227.547 322.348 228.715 322.348 230.272Z" fill="#333333"/>
<path d="M340.944 233.632C340.944 234.464 340.635 235.093 340.016 235.52C339.397 235.947 338.565 236.16 337.52 236.16C336.923 236.16 336.405 236.112 335.968 236.016C335.541 235.92 335.163 235.787 334.832 235.616V234.336C335.173 234.507 335.584 234.667 336.064 234.816C336.555 234.955 337.051 235.024 337.552 235.024C338.267 235.024 338.784 234.912 339.104 234.688C339.424 234.453 339.584 234.144 339.584 233.76C339.584 233.547 339.525 233.355 339.408 233.184C339.291 233.013 339.077 232.843 338.768 232.672C338.469 232.501 338.037 232.309 337.472 232.096C336.917 231.883 336.443 231.669 336.048 231.456C335.653 231.243 335.349 230.987 335.136 230.688C334.923 230.389 334.816 230.005 334.816 229.536C334.816 228.811 335.109 228.251 335.696 227.856C336.293 227.461 337.072 227.264 338.032 227.264C338.555 227.264 339.04 227.317 339.488 227.424C339.947 227.52 340.373 227.659 340.768 227.84L340.288 228.96C339.925 228.811 339.547 228.683 339.152 228.576C338.757 228.469 338.352 228.416 337.936 228.416C337.36 228.416 336.917 228.512 336.608 228.704C336.309 228.885 336.16 229.136 336.16 229.456C336.16 229.691 336.229 229.893 336.368 230.064C336.507 230.224 336.736 230.384 337.056 230.544C337.387 230.693 337.824 230.875 338.368 231.088C338.912 231.291 339.376 231.499 339.76 231.712C340.144 231.925 340.437 232.187 340.64 232.496C340.843 232.795 340.944 233.173 340.944 233.632ZM350.184 227.424V236H349.032L348.824 234.864H348.76C348.483 235.312 348.099 235.643 347.608 235.856C347.118 236.059 346.595 236.16 346.04 236.16C345.006 236.16 344.227 235.915 343.704 235.424C343.182 234.923 342.92 234.128 342.92 233.04V227.424H344.344V232.944C344.344 234.309 344.979 234.992 346.248 234.992C347.198 234.992 347.854 234.725 348.216 234.192C348.59 233.659 348.776 232.891 348.776 231.888V227.424H350.184ZM356.907 227.264C357.067 227.264 357.238 227.275 357.419 227.296C357.611 227.307 357.776 227.328 357.915 227.36L357.739 228.656C357.6 228.624 357.446 228.597 357.275 228.576C357.115 228.555 356.96 228.544 356.811 228.544C356.374 228.544 355.963 228.667 355.579 228.912C355.195 229.147 354.886 229.483 354.651 229.92C354.427 230.347 354.315 230.848 354.315 231.424V236H352.907V227.424H354.059L354.219 228.992H354.283C354.56 228.523 354.918 228.117 355.355 227.776C355.792 227.435 356.31 227.264 356.907 227.264Z" fill="#333333"/>
<path d="M368.68 236H367.304V228.016C367.304 227.557 367.309 227.189 367.32 226.912C367.331 226.635 367.347 226.347 367.368 226.048C367.197 226.219 367.043 226.363 366.904 226.48C366.765 226.597 366.589 226.747 366.376 226.928L365.16 227.92L364.424 226.976L367.512 224.576H368.68V236ZM376.556 228.992C377.73 228.992 378.663 229.285 379.356 229.872C380.05 230.459 380.396 231.285 380.396 232.352C380.396 233.536 380.018 234.469 379.26 235.152C378.514 235.824 377.468 236.16 376.124 236.16C375.538 236.16 374.983 236.107 374.46 236C373.948 235.893 373.516 235.739 373.164 235.536V234.208C373.548 234.443 374.012 234.629 374.556 234.768C375.111 234.896 375.639 234.96 376.14 234.96C376.983 234.96 377.66 234.763 378.172 234.368C378.695 233.963 378.956 233.339 378.956 232.496C378.956 231.749 378.727 231.179 378.268 230.784C377.81 230.379 377.084 230.176 376.092 230.176C375.794 230.176 375.452 230.203 375.068 230.256C374.684 230.309 374.375 230.363 374.14 230.416L373.436 229.968L373.868 224.576H379.596V225.856H375.068L374.796 229.168C374.978 229.136 375.223 229.099 375.532 229.056C375.842 229.013 376.183 228.992 376.556 228.992Z" fill="#333333"/>
<path d="M388.768 236H387.36V223.84H388.768V236ZM392.205 224.208C392.418 224.208 392.605 224.283 392.765 224.432C392.936 224.571 393.021 224.795 393.021 225.104C393.021 225.403 392.936 225.627 392.765 225.776C392.605 225.925 392.418 226 392.205 226C391.97 226 391.773 225.925 391.613 225.776C391.453 225.627 391.373 225.403 391.373 225.104C391.373 224.795 391.453 224.571 391.613 224.432C391.773 224.283 391.97 224.208 392.205 224.208ZM392.893 227.424V236H391.485V227.424H392.893ZM398.65 227.264C399.215 227.264 399.722 227.371 400.17 227.584C400.629 227.797 401.018 228.123 401.338 228.56H401.418L401.61 227.424H402.73V236.144C402.73 237.371 402.415 238.293 401.786 238.912C401.167 239.531 400.202 239.84 398.89 239.84C397.631 239.84 396.602 239.659 395.802 239.296V238C396.645 238.448 397.701 238.672 398.97 238.672C399.706 238.672 400.282 238.453 400.698 238.016C401.125 237.589 401.338 237.003 401.338 236.256V235.92C401.338 235.792 401.343 235.611 401.354 235.376C401.365 235.131 401.375 234.96 401.386 234.864H401.322C400.746 235.728 399.861 236.16 398.666 236.16C397.557 236.16 396.687 235.771 396.058 234.992C395.439 234.213 395.13 233.125 395.13 231.728C395.13 230.363 395.439 229.28 396.058 228.48C396.687 227.669 397.551 227.264 398.65 227.264ZM398.842 228.448C398.127 228.448 397.573 228.736 397.178 229.312C396.783 229.877 396.586 230.688 396.586 231.744C396.586 232.8 396.778 233.611 397.162 234.176C397.557 234.731 398.127 235.008 398.874 235.008C399.738 235.008 400.367 234.779 400.762 234.32C401.157 233.851 401.354 233.099 401.354 232.064V231.728C401.354 230.555 401.151 229.717 400.746 229.216C400.341 228.704 399.706 228.448 398.842 228.448ZM409.582 227.264C410.606 227.264 411.379 227.515 411.902 228.016C412.424 228.507 412.686 229.307 412.686 230.416V236H411.294V230.512C411.294 229.136 410.654 228.448 409.374 228.448C408.424 228.448 407.768 228.715 407.406 229.248C407.043 229.781 406.862 230.549 406.862 231.552V236H405.454V227.424H406.59L406.798 228.592H406.878C407.155 228.144 407.539 227.813 408.03 227.6C408.52 227.376 409.038 227.264 409.582 227.264ZM418.656 227.264C419.392 227.264 420.022 227.424 420.544 227.744C421.078 228.064 421.483 228.517 421.76 229.104C422.048 229.68 422.192 230.357 422.192 231.136V231.984H416.32C416.342 232.955 416.587 233.696 417.056 234.208C417.536 234.709 418.203 234.96 419.056 234.96C419.6 234.96 420.08 234.912 420.496 234.816C420.923 234.709 421.36 234.56 421.808 234.368V235.6C421.371 235.792 420.939 235.931 420.512 236.016C420.086 236.112 419.579 236.16 418.992 236.16C418.182 236.16 417.462 235.995 416.832 235.664C416.214 235.333 415.728 234.843 415.376 234.192C415.035 233.531 414.864 232.725 414.864 231.776C414.864 230.837 415.019 230.032 415.328 229.36C415.648 228.688 416.091 228.171 416.656 227.808C417.232 227.445 417.899 227.264 418.656 227.264ZM418.64 228.416C417.968 228.416 417.435 228.635 417.04 229.072C416.656 229.499 416.427 230.096 416.352 230.864H420.72C420.71 230.139 420.539 229.552 420.208 229.104C419.878 228.645 419.355 228.416 418.64 228.416ZM429.96 233.632C429.96 234.464 429.65 235.093 429.032 235.52C428.413 235.947 427.581 236.16 426.536 236.16C425.938 236.16 425.421 236.112 424.984 236.016C424.557 235.92 424.178 235.787 423.848 235.616V234.336C424.189 234.507 424.6 234.667 425.08 234.816C425.57 234.955 426.066 235.024 426.568 235.024C427.282 235.024 427.8 234.912 428.12 234.688C428.44 234.453 428.6 234.144 428.6 233.76C428.6 233.547 428.541 233.355 428.424 233.184C428.306 233.013 428.093 232.843 427.784 232.672C427.485 232.501 427.053 232.309 426.488 232.096C425.933 231.883 425.458 231.669 425.064 231.456C424.669 231.243 424.365 230.987 424.152 230.688C423.938 230.389 423.832 230.005 423.832 229.536C423.832 228.811 424.125 228.251 424.712 227.856C425.309 227.461 426.088 227.264 427.048 227.264C427.57 227.264 428.056 227.317 428.504 227.424C428.962 227.52 429.389 227.659 429.784 227.84L429.304 228.96C428.941 228.811 428.562 228.683 428.168 228.576C427.773 228.469 427.368 228.416 426.952 228.416C426.376 228.416 425.933 228.512 425.624 228.704C425.325 228.885 425.176 229.136 425.176 229.456C425.176 229.691 425.245 229.893 425.384 230.064C425.522 230.224 425.752 230.384 426.072 230.544C426.402 230.693 426.84 230.875 427.384 231.088C427.928 231.291 428.392 231.499 428.776 231.712C429.16 231.925 429.453 232.187 429.656 232.496C429.858 232.795 429.96 233.173 429.96 233.632Z" fill="#333333"/>
<mask id="path-21-inside-3_8280_1394" fill="white">
<path d="M68 260H718V308H68V260Z"/>
</mask>
<path d="M718 308V306H68V308V310H718V308Z" fill="#262626" mask="url(#path-21-inside-3_8280_1394)"/>
<path d="M81.608 281.273V283.091H76.3523V281.273H81.608ZM77.5455 279.182H79.9659V287.318C79.9659 287.542 80 287.716 80.0682 287.841C80.1364 287.962 80.2311 288.047 80.3523 288.097C80.4773 288.146 80.6212 288.17 80.7841 288.17C80.8977 288.17 81.0114 288.161 81.125 288.142C81.2386 288.119 81.3258 288.102 81.3864 288.091L81.767 289.892C81.6458 289.93 81.4754 289.973 81.2557 290.023C81.036 290.076 80.7689 290.108 80.4545 290.119C79.8712 290.142 79.3598 290.064 78.9205 289.886C78.4848 289.708 78.1458 289.432 77.9034 289.057C77.661 288.682 77.5417 288.208 77.5455 287.636V279.182ZM85.4726 284.955V290H83.0522V278.364H85.4044V282.812H85.5067C85.7037 282.297 86.0219 281.894 86.4612 281.602C86.9006 281.307 87.4518 281.159 88.1147 281.159C88.7207 281.159 89.2491 281.292 89.6999 281.557C90.1544 281.818 90.5067 282.195 90.7567 282.688C91.0105 283.176 91.1355 283.761 91.1317 284.443V290H88.7112V284.875C88.715 284.337 88.5787 283.919 88.3022 283.619C88.0294 283.32 87.6469 283.17 87.1544 283.17C86.8249 283.17 86.5332 283.241 86.2794 283.381C86.0294 283.521 85.8325 283.725 85.6885 283.994C85.5484 284.259 85.4764 284.58 85.4726 284.955Z" fill="#1A1A1A"/>
<path d="M298.275 281.273V283.091H293.019V281.273H298.275ZM294.212 279.182H296.633V287.318C296.633 287.542 296.667 287.716 296.735 287.841C296.803 287.962 296.898 288.047 297.019 288.097C297.144 288.146 297.288 288.17 297.451 288.17C297.564 288.17 297.678 288.161 297.792 288.142C297.905 288.119 297.992 288.102 298.053 288.091L298.434 289.892C298.312 289.93 298.142 289.973 297.922 290.023C297.703 290.076 297.436 290.108 297.121 290.119C296.538 290.142 296.026 290.064 295.587 289.886C295.151 289.708 294.812 289.432 294.57 289.057C294.328 288.682 294.208 288.208 294.212 287.636V279.182ZM302.139 284.955V290H299.719V278.364H302.071V282.812H302.173C302.37 282.297 302.688 281.894 303.128 281.602C303.567 281.307 304.118 281.159 304.781 281.159C305.387 281.159 305.916 281.292 306.367 281.557C306.821 281.818 307.173 282.195 307.423 282.688C307.677 283.176 307.802 283.761 307.798 284.443V290H305.378V284.875C305.382 284.337 305.245 283.919 304.969 283.619C304.696 283.32 304.313 283.17 303.821 283.17C303.492 283.17 303.2 283.241 302.946 283.381C302.696 283.521 302.499 283.725 302.355 283.994C302.215 284.259 302.143 284.58 302.139 284.955Z" fill="#1A1A1A"/>
<path d="M514.941 281.273V283.091H509.686V281.273H514.941ZM510.879 279.182H513.299V287.318C513.299 287.542 513.333 287.716 513.401 287.841C513.47 287.962 513.564 288.047 513.686 288.097C513.811 288.146 513.954 288.17 514.117 288.17C514.231 288.17 514.345 288.161 514.458 288.142C514.572 288.119 514.659 288.102 514.72 288.091L515.1 289.892C514.979 289.93 514.809 289.973 514.589 290.023C514.369 290.076 514.102 290.108 513.788 290.119C513.204 290.142 512.693 290.064 512.254 289.886C511.818 289.708 511.479 289.432 511.237 289.057C510.994 288.682 510.875 288.208 510.879 287.636V279.182ZM518.806 284.955V290H516.385V278.364H518.738V282.812H518.84C519.037 282.297 519.355 281.894 519.795 281.602C520.234 281.307 520.785 281.159 521.448 281.159C522.054 281.159 522.582 281.292 523.033 281.557C523.488 281.818 523.84 282.195 524.09 282.688C524.344 283.176 524.469 283.761 524.465 284.443V290H522.045V284.875C522.048 284.337 521.912 283.919 521.635 283.619C521.363 283.32 520.98 283.17 520.488 283.17C520.158 283.17 519.866 283.241 519.613 283.381C519.363 283.521 519.166 283.725 519.022 283.994C518.882 284.259 518.81 284.58 518.806 284.955Z" fill="#1A1A1A"/>
<mask id="path-26-inside-4_8280_1394" fill="white">
<path d="M68 308H718V356H68V308Z"/>
</mask>
<path d="M718 356V355H68V356V357H718V356Z" fill="#8C8C8C" mask="url(#path-26-inside-4_8280_1394)"/>
<g clip-path="url(#clip2_8280_1394)">
<path d="M80.224 337.008C80.4373 337.008 80.656 336.992 80.88 336.96C81.104 336.917 81.2853 336.875 81.424 336.832V337.904C81.2747 337.979 81.0613 338.037 80.784 338.08C80.5067 338.133 80.24 338.16 79.984 338.16C79.536 338.16 79.12 338.085 78.736 337.936C78.3627 337.776 78.0587 337.504 77.824 337.12C77.5893 336.736 77.472 336.197 77.472 335.504V330.512H76.256V329.84L77.488 329.28L78.048 327.456H78.88V329.424H81.36V330.512H78.88V335.472C78.88 335.995 79.0027 336.384 79.248 336.64C79.504 336.885 79.8293 337.008 80.224 337.008ZM86.1813 338.16C85.1146 338.16 84.2613 337.792 83.6213 337.056C82.9813 336.309 82.6613 335.2 82.6613 333.728C82.6613 332.256 82.9813 331.147 83.6213 330.4C84.2719 329.643 85.1306 329.264 86.1973 329.264C86.8586 329.264 87.3973 329.387 87.8133 329.632C88.2399 329.877 88.5866 330.176 88.8533 330.528H88.9493C88.9386 330.389 88.9173 330.187 88.8853 329.92C88.8639 329.643 88.8533 329.424 88.8533 329.264V325.84H90.2613V338H89.1253L88.9173 336.848H88.8533C88.5973 337.211 88.2559 337.52 87.8293 337.776C87.4026 338.032 86.8533 338.16 86.1813 338.16ZM86.4053 336.992C87.3119 336.992 87.9466 336.747 88.3093 336.256C88.6826 335.755 88.8693 335.003 88.8693 334V333.744C88.8693 332.677 88.6933 331.861 88.3413 331.296C87.9893 330.72 87.3386 330.432 86.3893 330.432C85.6319 330.432 85.0613 330.736 84.6773 331.344C84.3039 331.941 84.1173 332.747 84.1173 333.76C84.1173 334.784 84.3039 335.579 84.6773 336.144C85.0613 336.709 85.6373 336.992 86.4053 336.992Z" fill="#333333"/>
</g>
<g clip-path="url(#clip3_8280_1394)">
<path d="M296.891 337.008C297.104 337.008 297.323 336.992 297.547 336.96C297.771 336.917 297.952 336.875 298.091 336.832V337.904C297.941 337.979 297.728 338.037 297.451 338.08C297.173 338.133 296.907 338.16 296.651 338.16C296.203 338.16 295.787 338.085 295.403 337.936C295.029 337.776 294.725 337.504 294.491 337.12C294.256 336.736 294.139 336.197 294.139 335.504V330.512H292.923V329.84L294.155 329.28L294.715 327.456H295.547V329.424H298.027V330.512H295.547V335.472C295.547 335.995 295.669 336.384 295.915 336.64C296.171 336.885 296.496 337.008 296.891 337.008ZM302.848 338.16C301.781 338.16 300.928 337.792 300.288 337.056C299.648 336.309 299.328 335.2 299.328 333.728C299.328 332.256 299.648 331.147 300.288 330.4C300.939 329.643 301.797 329.264 302.864 329.264C303.525 329.264 304.064 329.387 304.48 329.632C304.907 329.877 305.253 330.176 305.52 330.528H305.616C305.605 330.389 305.584 330.187 305.552 329.92C305.531 329.643 305.52 329.424 305.52 329.264V325.84H306.928V338H305.792L305.584 336.848H305.52C305.264 337.211 304.923 337.52 304.496 337.776C304.069 338.032 303.52 338.16 302.848 338.16ZM303.072 336.992C303.979 336.992 304.613 336.747 304.976 336.256C305.349 335.755 305.536 335.003 305.536 334V333.744C305.536 332.677 305.36 331.861 305.008 331.296C304.656 330.72 304.005 330.432 303.056 330.432C302.299 330.432 301.728 330.736 301.344 331.344C300.971 331.941 300.784 332.747 300.784 333.76C300.784 334.784 300.971 335.579 301.344 336.144C301.728 336.709 302.304 336.992 303.072 336.992Z" fill="#333333"/>
</g>
<g clip-path="url(#clip4_8280_1394)">
<path d="M513.557 337.008C513.771 337.008 513.989 336.992 514.213 336.96C514.437 336.917 514.619 336.875 514.757 336.832V337.904C514.608 337.979 514.395 338.037 514.117 338.08C513.84 338.133 513.573 338.16 513.317 338.16C512.869 338.16 512.453 338.085 512.069 337.936C511.696 337.776 511.392 337.504 511.157 337.12C510.923 336.736 510.805 336.197 510.805 335.504V330.512H509.589V329.84L510.821 329.28L511.381 327.456H512.213V329.424H514.693V330.512H512.213V335.472C512.213 335.995 512.336 336.384 512.581 336.64C512.837 336.885 513.163 337.008 513.557 337.008ZM519.515 338.16C518.448 338.16 517.595 337.792 516.955 337.056C516.315 336.309 515.995 335.2 515.995 333.728C515.995 332.256 516.315 331.147 516.955 330.4C517.605 329.643 518.464 329.264 519.531 329.264C520.192 329.264 520.731 329.387 521.147 329.632C521.573 329.877 521.92 330.176 522.187 330.528H522.283C522.272 330.389 522.251 330.187 522.219 329.92C522.197 329.643 522.187 329.424 522.187 329.264V325.84H523.595V338H522.459L522.251 336.848H522.187C521.931 337.211 521.589 337.52 521.163 337.776C520.736 338.032 520.187 338.16 519.515 338.16ZM519.739 336.992C520.645 336.992 521.28 336.747 521.643 336.256C522.016 335.755 522.203 335.003 522.203 334V333.744C522.203 332.677 522.027 331.861 521.675 331.296C521.323 330.72 520.672 330.432 519.723 330.432C518.965 330.432 518.395 330.736 518.011 331.344C517.637 331.941 517.451 332.747 517.451 333.76C517.451 334.784 517.637 335.579 518.011 336.144C518.395 336.709 518.971 336.992 519.739 336.992Z" fill="#333333"/>
</g>
<mask id="path-31-inside-5_8280_1394" fill="white">
<path d="M68 356H718V404H68V356Z"/>
</mask>
<path d="M718 404V403H68V404V405H718V404Z" fill="#8C8C8C" mask="url(#path-31-inside-5_8280_1394)"/>
<g clip-path="url(#clip5_8280_1394)">
<path d="M80.224 385.008C80.4373 385.008 80.656 384.992 80.88 384.96C81.104 384.917 81.2853 384.875 81.424 384.832V385.904C81.2747 385.979 81.0613 386.037 80.784 386.08C80.5067 386.133 80.24 386.16 79.984 386.16C79.536 386.16 79.12 386.085 78.736 385.936C78.3627 385.776 78.0587 385.504 77.824 385.12C77.5893 384.736 77.472 384.197 77.472 383.504V378.512H76.256V377.84L77.488 377.28L78.048 375.456H78.88V377.424H81.36V378.512H78.88V383.472C78.88 383.995 79.0027 384.384 79.248 384.64C79.504 384.885 79.8293 385.008 80.224 385.008ZM86.1813 386.16C85.1146 386.16 84.2613 385.792 83.6213 385.056C82.9813 384.309 82.6613 383.2 82.6613 381.728C82.6613 380.256 82.9813 379.147 83.6213 378.4C84.2719 377.643 85.1306 377.264 86.1973 377.264C86.8586 377.264 87.3973 377.387 87.8133 377.632C88.2399 377.877 88.5866 378.176 88.8533 378.528H88.9493C88.9386 378.389 88.9173 378.187 88.8853 377.92C88.8639 377.643 88.8533 377.424 88.8533 377.264V373.84H90.2613V386H89.1253L88.9173 384.848H88.8533C88.5973 385.211 88.2559 385.52 87.8293 385.776C87.4026 386.032 86.8533 386.16 86.1813 386.16ZM86.4053 384.992C87.3119 384.992 87.9466 384.747 88.3093 384.256C88.6826 383.755 88.8693 383.003 88.8693 382V381.744C88.8693 380.677 88.6933 379.861 88.3413 379.296C87.9893 378.72 87.3386 378.432 86.3893 378.432C85.6319 378.432 85.0613 378.736 84.6773 379.344C84.3039 379.941 84.1173 380.747 84.1173 381.76C84.1173 382.784 84.3039 383.579 84.6773 384.144C85.0613 384.709 85.6373 384.992 86.4053 384.992Z" fill="#333333"/>
</g>
<g clip-path="url(#clip6_8280_1394)">
<path d="M296.891 385.008C297.104 385.008 297.323 384.992 297.547 384.96C297.771 384.917 297.952 384.875 298.091 384.832V385.904C297.941 385.979 297.728 386.037 297.451 386.08C297.173 386.133 296.907 386.16 296.651 386.16C296.203 386.16 295.787 386.085 295.403 385.936C295.029 385.776 294.725 385.504 294.491 385.12C294.256 384.736 294.139 384.197 294.139 383.504V378.512H292.923V377.84L294.155 377.28L294.715 375.456H295.547V377.424H298.027V378.512H295.547V383.472C295.547 383.995 295.669 384.384 295.915 384.64C296.171 384.885 296.496 385.008 296.891 385.008ZM302.848 386.16C301.781 386.16 300.928 385.792 300.288 385.056C299.648 384.309 299.328 383.2 299.328 381.728C299.328 380.256 299.648 379.147 300.288 378.4C300.939 377.643 301.797 377.264 302.864 377.264C303.525 377.264 304.064 377.387 304.48 377.632C304.907 377.877 305.253 378.176 305.52 378.528H305.616C305.605 378.389 305.584 378.187 305.552 377.92C305.531 377.643 305.52 377.424 305.52 377.264V373.84H306.928V386H305.792L305.584 384.848H305.52C305.264 385.211 304.923 385.52 304.496 385.776C304.069 386.032 303.52 386.16 302.848 386.16ZM303.072 384.992C303.979 384.992 304.613 384.747 304.976 384.256C305.349 383.755 305.536 383.003 305.536 382V381.744C305.536 380.677 305.36 379.861 305.008 379.296C304.656 378.72 304.005 378.432 303.056 378.432C302.299 378.432 301.728 378.736 301.344 379.344C300.971 379.941 300.784 380.747 300.784 381.76C300.784 382.784 300.971 383.579 301.344 384.144C301.728 384.709 302.304 384.992 303.072 384.992Z" fill="#333333"/>
</g>
<g clip-path="url(#clip7_8280_1394)">
<path d="M513.557 385.008C513.771 385.008 513.989 384.992 514.213 384.96C514.437 384.917 514.619 384.875 514.757 384.832V385.904C514.608 385.979 514.395 386.037 514.117 386.08C513.84 386.133 513.573 386.16 513.317 386.16C512.869 386.16 512.453 386.085 512.069 385.936C511.696 385.776 511.392 385.504 511.157 385.12C510.923 384.736 510.805 384.197 510.805 383.504V378.512H509.589V377.84L510.821 377.28L511.381 375.456H512.213V377.424H514.693V378.512H512.213V383.472C512.213 383.995 512.336 384.384 512.581 384.64C512.837 384.885 513.163 385.008 513.557 385.008ZM519.515 386.16C518.448 386.16 517.595 385.792 516.955 385.056C516.315 384.309 515.995 383.2 515.995 381.728C515.995 380.256 516.315 379.147 516.955 378.4C517.605 377.643 518.464 377.264 519.531 377.264C520.192 377.264 520.731 377.387 521.147 377.632C521.573 377.877 521.92 378.176 522.187 378.528H522.283C522.272 378.389 522.251 378.187 522.219 377.92C522.197 377.643 522.187 377.424 522.187 377.264V373.84H523.595V386H522.459L522.251 384.848H522.187C521.931 385.211 521.589 385.52 521.163 385.776C520.736 386.032 520.187 386.16 519.515 386.16ZM519.739 384.992C520.645 384.992 521.28 384.747 521.643 384.256C522.016 383.755 522.203 383.003 522.203 382V381.744C522.203 380.677 522.027 379.861 521.675 379.296C521.323 378.72 520.672 378.432 519.723 378.432C518.965 378.432 518.395 378.736 518.011 379.344C517.637 379.941 517.451 380.747 517.451 381.76C517.451 382.784 517.637 383.579 518.011 384.144C518.395 384.709 518.971 384.992 519.739 384.992Z" fill="#333333"/>
</g>
<mask id="path-36-inside-6_8280_1394" fill="white">
<path d="M68 404H718V452H68V404Z"/>
</mask>
<path d="M718 452V451H68V452V453H718V452Z" fill="#8C8C8C" mask="url(#path-36-inside-6_8280_1394)"/>
<g clip-path="url(#clip8_8280_1394)">
<path d="M80.224 433.008C80.4373 433.008 80.656 432.992 80.88 432.96C81.104 432.917 81.2853 432.875 81.424 432.832V433.904C81.2747 433.979 81.0613 434.037 80.784 434.08C80.5067 434.133 80.24 434.16 79.984 434.16C79.536 434.16 79.12 434.085 78.736 433.936C78.3627 433.776 78.0587 433.504 77.824 433.12C77.5893 432.736 77.472 432.197 77.472 431.504V426.512H76.256V425.84L77.488 425.28L78.048 423.456H78.88V425.424H81.36V426.512H78.88V431.472C78.88 431.995 79.0027 432.384 79.248 432.64C79.504 432.885 79.8293 433.008 80.224 433.008ZM86.1813 434.16C85.1146 434.16 84.2613 433.792 83.6213 433.056C82.9813 432.309 82.6613 431.2 82.6613 429.728C82.6613 428.256 82.9813 427.147 83.6213 426.4C84.2719 425.643 85.1306 425.264 86.1973 425.264C86.8586 425.264 87.3973 425.387 87.8133 425.632C88.2399 425.877 88.5866 426.176 88.8533 426.528H88.9493C88.9386 426.389 88.9173 426.187 88.8853 425.92C88.8639 425.643 88.8533 425.424 88.8533 425.264V421.84H90.2613V434H89.1253L88.9173 432.848H88.8533C88.5973 433.211 88.2559 433.52 87.8293 433.776C87.4026 434.032 86.8533 434.16 86.1813 434.16ZM86.4053 432.992C87.3119 432.992 87.9466 432.747 88.3093 432.256C88.6826 431.755 88.8693 431.003 88.8693 430V429.744C88.8693 428.677 88.6933 427.861 88.3413 427.296C87.9893 426.72 87.3386 426.432 86.3893 426.432C85.6319 426.432 85.0613 426.736 84.6773 427.344C84.3039 427.941 84.1173 428.747 84.1173 429.76C84.1173 430.784 84.3039 431.579 84.6773 432.144C85.0613 432.709 85.6373 432.992 86.4053 432.992Z" fill="#333333"/>
</g>
<g clip-path="url(#clip9_8280_1394)">
<path d="M296.891 433.008C297.104 433.008 297.323 432.992 297.547 432.96C297.771 432.917 297.952 432.875 298.091 432.832V433.904C297.941 433.979 297.728 434.037 297.451 434.08C297.173 434.133 296.907 434.16 296.651 434.16C296.203 434.16 295.787 434.085 295.403 433.936C295.029 433.776 294.725 433.504 294.491 433.12C294.256 432.736 294.139 432.197 294.139 431.504V426.512H292.923V425.84L294.155 425.28L294.715 423.456H295.547V425.424H298.027V426.512H295.547V431.472C295.547 431.995 295.669 432.384 295.915 432.64C296.171 432.885 296.496 433.008 296.891 433.008ZM302.848 434.16C301.781 434.16 300.928 433.792 300.288 433.056C299.648 432.309 299.328 431.2 299.328 429.728C299.328 428.256 299.648 427.147 300.288 426.4C300.939 425.643 301.797 425.264 302.864 425.264C303.525 425.264 304.064 425.387 304.48 425.632C304.907 425.877 305.253 426.176 305.52 426.528H305.616C305.605 426.389 305.584 426.187 305.552 425.92C305.531 425.643 305.52 425.424 305.52 425.264V421.84H306.928V434H305.792L305.584 432.848H305.52C305.264 433.211 304.923 433.52 304.496 433.776C304.069 434.032 303.52 434.16 302.848 434.16ZM303.072 432.992C303.979 432.992 304.613 432.747 304.976 432.256C305.349 431.755 305.536 431.003 305.536 430V429.744C305.536 428.677 305.36 427.861 305.008 427.296C304.656 426.72 304.005 426.432 303.056 426.432C302.299 426.432 301.728 426.736 301.344 427.344C300.971 427.941 300.784 428.747 300.784 429.76C300.784 430.784 300.971 431.579 301.344 432.144C301.728 432.709 302.304 432.992 303.072 432.992Z" fill="#333333"/>
</g>
<g clip-path="url(#clip10_8280_1394)">
<path d="M513.557 433.008C513.771 433.008 513.989 432.992 514.213 432.96C514.437 432.917 514.619 432.875 514.757 432.832V433.904C514.608 433.979 514.395 434.037 514.117 434.08C513.84 434.133 513.573 434.16 513.317 434.16C512.869 434.16 512.453 434.085 512.069 433.936C511.696 433.776 511.392 433.504 511.157 433.12C510.923 432.736 510.805 432.197 510.805 431.504V426.512H509.589V425.84L510.821 425.28L511.381 423.456H512.213V425.424H514.693V426.512H512.213V431.472C512.213 431.995 512.336 432.384 512.581 432.64C512.837 432.885 513.163 433.008 513.557 433.008ZM519.515 434.16C518.448 434.16 517.595 433.792 516.955 433.056C516.315 432.309 515.995 431.2 515.995 429.728C515.995 428.256 516.315 427.147 516.955 426.4C517.605 425.643 518.464 425.264 519.531 425.264C520.192 425.264 520.731 425.387 521.147 425.632C521.573 425.877 521.92 426.176 522.187 426.528H522.283C522.272 426.389 522.251 426.187 522.219 425.92C522.197 425.643 522.187 425.424 522.187 425.264V421.84H523.595V434H522.459L522.251 432.848H522.187C521.931 433.211 521.589 433.52 521.163 433.776C520.736 434.032 520.187 434.16 519.515 434.16ZM519.739 432.992C520.645 432.992 521.28 432.747 521.643 432.256C522.016 431.755 522.203 431.003 522.203 430V429.744C522.203 428.677 522.027 427.861 521.675 427.296C521.323 426.72 520.672 426.432 519.723 426.432C518.965 426.432 518.395 426.736 518.011 427.344C517.637 427.941 517.451 428.747 517.451 429.76C517.451 430.784 517.637 431.579 518.011 432.144C518.395 432.709 518.971 432.992 519.739 432.992Z" fill="#333333"/>
</g>
<mask id="path-41-inside-7_8280_1394" fill="white">
<path d="M68 452H718V500H68V452Z"/>
</mask>
<path d="M718 500V499H68V500V501H718V500Z" fill="#8C8C8C" mask="url(#path-41-inside-7_8280_1394)"/>
<g clip-path="url(#clip11_8280_1394)">
<path d="M80.224 481.008C80.4373 481.008 80.656 480.992 80.88 480.96C81.104 480.917 81.2853 480.875 81.424 480.832V481.904C81.2747 481.979 81.0613 482.037 80.784 482.08C80.5067 482.133 80.24 482.16 79.984 482.16C79.536 482.16 79.12 482.085 78.736 481.936C78.3627 481.776 78.0587 481.504 77.824 481.12C77.5893 480.736 77.472 480.197 77.472 479.504V474.512H76.256V473.84L77.488 473.28L78.048 471.456H78.88V473.424H81.36V474.512H78.88V479.472C78.88 479.995 79.0027 480.384 79.248 480.64C79.504 480.885 79.8293 481.008 80.224 481.008ZM86.1813 482.16C85.1146 482.16 84.2613 481.792 83.6213 481.056C82.9813 480.309 82.6613 479.2 82.6613 477.728C82.6613 476.256 82.9813 475.147 83.6213 474.4C84.2719 473.643 85.1306 473.264 86.1973 473.264C86.8586 473.264 87.3973 473.387 87.8133 473.632C88.2399 473.877 88.5866 474.176 88.8533 474.528H88.9493C88.9386 474.389 88.9173 474.187 88.8853 473.92C88.8639 473.643 88.8533 473.424 88.8533 473.264V469.84H90.2613V482H89.1253L88.9173 480.848H88.8533C88.5973 481.211 88.2559 481.52 87.8293 481.776C87.4026 482.032 86.8533 482.16 86.1813 482.16ZM86.4053 480.992C87.3119 480.992 87.9466 480.747 88.3093 480.256C88.6826 479.755 88.8693 479.003 88.8693 478V477.744C88.8693 476.677 88.6933 475.861 88.3413 475.296C87.9893 474.72 87.3386 474.432 86.3893 474.432C85.6319 474.432 85.0613 474.736 84.6773 475.344C84.3039 475.941 84.1173 476.747 84.1173 477.76C84.1173 478.784 84.3039 479.579 84.6773 480.144C85.0613 480.709 85.6373 480.992 86.4053 480.992Z" fill="#333333"/>
</g>
<g clip-path="url(#clip12_8280_1394)">
<path d="M296.891 481.008C297.104 481.008 297.323 480.992 297.547 480.96C297.771 480.917 297.952 480.875 298.091 480.832V481.904C297.941 481.979 297.728 482.037 297.451 482.08C297.173 482.133 296.907 482.16 296.651 482.16C296.203 482.16 295.787 482.085 295.403 481.936C295.029 481.776 294.725 481.504 294.491 481.12C294.256 480.736 294.139 480.197 294.139 479.504V474.512H292.923V473.84L294.155 473.28L294.715 471.456H295.547V473.424H298.027V474.512H295.547V479.472C295.547 479.995 295.669 480.384 295.915 480.64C296.171 480.885 296.496 481.008 296.891 481.008ZM302.848 482.16C301.781 482.16 300.928 481.792 300.288 481.056C299.648 480.309 299.328 479.2 299.328 477.728C299.328 476.256 299.648 475.147 300.288 474.4C300.939 473.643 301.797 473.264 302.864 473.264C303.525 473.264 304.064 473.387 304.48 473.632C304.907 473.877 305.253 474.176 305.52 474.528H305.616C305.605 474.389 305.584 474.187 305.552 473.92C305.531 473.643 305.52 473.424 305.52 473.264V469.84H306.928V482H305.792L305.584 480.848H305.52C305.264 481.211 304.923 481.52 304.496 481.776C304.069 482.032 303.52 482.16 302.848 482.16ZM303.072 480.992C303.979 480.992 304.613 480.747 304.976 480.256C305.349 479.755 305.536 479.003 305.536 478V477.744C305.536 476.677 305.36 475.861 305.008 475.296C304.656 474.72 304.005 474.432 303.056 474.432C302.299 474.432 301.728 474.736 301.344 475.344C300.971 475.941 300.784 476.747 300.784 477.76C300.784 478.784 300.971 479.579 301.344 480.144C301.728 480.709 302.304 480.992 303.072 480.992Z" fill="#333333"/>
</g>
<g clip-path="url(#clip13_8280_1394)">
<path d="M513.557 481.008C513.771 481.008 513.989 480.992 514.213 480.96C514.437 480.917 514.619 480.875 514.757 480.832V481.904C514.608 481.979 514.395 482.037 514.117 482.08C513.84 482.133 513.573 482.16 513.317 482.16C512.869 482.16 512.453 482.085 512.069 481.936C511.696 481.776 511.392 481.504 511.157 481.12C510.923 480.736 510.805 480.197 510.805 479.504V474.512H509.589V473.84L510.821 473.28L511.381 471.456H512.213V473.424H514.693V474.512H512.213V479.472C512.213 479.995 512.336 480.384 512.581 480.64C512.837 480.885 513.163 481.008 513.557 481.008ZM519.515 482.16C518.448 482.16 517.595 481.792 516.955 481.056C516.315 480.309 515.995 479.2 515.995 477.728C515.995 476.256 516.315 475.147 516.955 474.4C517.605 473.643 518.464 473.264 519.531 473.264C520.192 473.264 520.731 473.387 521.147 473.632C521.573 473.877 521.92 474.176 522.187 474.528H522.283C522.272 474.389 522.251 474.187 522.219 473.92C522.197 473.643 522.187 473.424 522.187 473.264V469.84H523.595V482H522.459L522.251 480.848H522.187C521.931 481.211 521.589 481.52 521.163 481.776C520.736 482.032 520.187 482.16 519.515 482.16ZM519.739 480.992C520.645 480.992 521.28 480.747 521.643 480.256C522.016 479.755 522.203 479.003 522.203 478V477.744C522.203 476.677 522.027 475.861 521.675 475.296C521.323 474.72 520.672 474.432 519.723 474.432C518.965 474.432 518.395 474.736 518.011 475.344C517.637 475.941 517.451 476.747 517.451 477.76C517.451 478.784 517.637 479.579 518.011 480.144C518.395 480.709 518.971 480.992 519.739 480.992Z" fill="#333333"/>
</g>
<mask id="path-46-inside-8_8280_1394" fill="white">
<path d="M68 500H718V548H68V500Z"/>
</mask>
<path d="M718 548V547H68V548V549H718V548Z" fill="#8C8C8C" mask="url(#path-46-inside-8_8280_1394)"/>
<g clip-path="url(#clip14_8280_1394)">
<path d="M80.224 529.008C80.4373 529.008 80.656 528.992 80.88 528.96C81.104 528.917 81.2853 528.875 81.424 528.832V529.904C81.2747 529.979 81.0613 530.037 80.784 530.08C80.5067 530.133 80.24 530.16 79.984 530.16C79.536 530.16 79.12 530.085 78.736 529.936C78.3627 529.776 78.0587 529.504 77.824 529.12C77.5893 528.736 77.472 528.197 77.472 527.504V522.512H76.256V521.84L77.488 521.28L78.048 519.456H78.88V521.424H81.36V522.512H78.88V527.472C78.88 527.995 79.0027 528.384 79.248 528.64C79.504 528.885 79.8293 529.008 80.224 529.008ZM86.1813 530.16C85.1146 530.16 84.2613 529.792 83.6213 529.056C82.9813 528.309 82.6613 527.2 82.6613 525.728C82.6613 524.256 82.9813 523.147 83.6213 522.4C84.2719 521.643 85.1306 521.264 86.1973 521.264C86.8586 521.264 87.3973 521.387 87.8133 521.632C88.2399 521.877 88.5866 522.176 88.8533 522.528H88.9493C88.9386 522.389 88.9173 522.187 88.8853 521.92C88.8639 521.643 88.8533 521.424 88.8533 521.264V517.84H90.2613V530H89.1253L88.9173 528.848H88.8533C88.5973 529.211 88.2559 529.52 87.8293 529.776C87.4026 530.032 86.8533 530.16 86.1813 530.16ZM86.4053 528.992C87.3119 528.992 87.9466 528.747 88.3093 528.256C88.6826 527.755 88.8693 527.003 88.8693 526V525.744C88.8693 524.677 88.6933 523.861 88.3413 523.296C87.9893 522.72 87.3386 522.432 86.3893 522.432C85.6319 522.432 85.0613 522.736 84.6773 523.344C84.3039 523.941 84.1173 524.747 84.1173 525.76C84.1173 526.784 84.3039 527.579 84.6773 528.144C85.0613 528.709 85.6373 528.992 86.4053 528.992Z" fill="#333333"/>
</g>
<g clip-path="url(#clip15_8280_1394)">
<path d="M296.891 529.008C297.104 529.008 297.323 528.992 297.547 528.96C297.771 528.917 297.952 528.875 298.091 528.832V529.904C297.941 529.979 297.728 530.037 297.451 530.08C297.173 530.133 296.907 530.16 296.651 530.16C296.203 530.16 295.787 530.085 295.403 529.936C295.029 529.776 294.725 529.504 294.491 529.12C294.256 528.736 294.139 528.197 294.139 527.504V522.512H292.923V521.84L294.155 521.28L294.715 519.456H295.547V521.424H298.027V522.512H295.547V527.472C295.547 527.995 295.669 528.384 295.915 528.64C296.171 528.885 296.496 529.008 296.891 529.008ZM302.848 530.16C301.781 530.16 300.928 529.792 300.288 529.056C299.648 528.309 299.328 527.2 299.328 525.728C299.328 524.256 299.648 523.147 300.288 522.4C300.939 521.643 301.797 521.264 302.864 521.264C303.525 521.264 304.064 521.387 304.48 521.632C304.907 521.877 305.253 522.176 305.52 522.528H305.616C305.605 522.389 305.584 522.187 305.552 521.92C305.531 521.643 305.52 521.424 305.52 521.264V517.84H306.928V530H305.792L305.584 528.848H305.52C305.264 529.211 304.923 529.52 304.496 529.776C304.069 530.032 303.52 530.16 302.848 530.16ZM303.072 528.992C303.979 528.992 304.613 528.747 304.976 528.256C305.349 527.755 305.536 527.003 305.536 526V525.744C305.536 524.677 305.36 523.861 305.008 523.296C304.656 522.72 304.005 522.432 303.056 522.432C302.299 522.432 301.728 522.736 301.344 523.344C300.971 523.941 300.784 524.747 300.784 525.76C300.784 526.784 300.971 527.579 301.344 528.144C301.728 528.709 302.304 528.992 303.072 528.992Z" fill="#333333"/>
</g>
<g clip-path="url(#clip16_8280_1394)">
<path d="M513.557 529.008C513.771 529.008 513.989 528.992 514.213 528.96C514.437 528.917 514.619 528.875 514.757 528.832V529.904C514.608 529.979 514.395 530.037 514.117 530.08C513.84 530.133 513.573 530.16 513.317 530.16C512.869 530.16 512.453 530.085 512.069 529.936C511.696 529.776 511.392 529.504 511.157 529.12C510.923 528.736 510.805 528.197 510.805 527.504V522.512H509.589V521.84L510.821 521.28L511.381 519.456H512.213V521.424H514.693V522.512H512.213V527.472C512.213 527.995 512.336 528.384 512.581 528.64C512.837 528.885 513.163 529.008 513.557 529.008ZM519.515 530.16C518.448 530.16 517.595 529.792 516.955 529.056C516.315 528.309 515.995 527.2 515.995 525.728C515.995 524.256 516.315 523.147 516.955 522.4C517.605 521.643 518.464 521.264 519.531 521.264C520.192 521.264 520.731 521.387 521.147 521.632C521.573 521.877 521.92 522.176 522.187 522.528H522.283C522.272 522.389 522.251 522.187 522.219 521.92C522.197 521.643 522.187 521.424 522.187 521.264V517.84H523.595V530H522.459L522.251 528.848H522.187C521.931 529.211 521.589 529.52 521.163 529.776C520.736 530.032 520.187 530.16 519.515 530.16ZM519.739 528.992C520.645 528.992 521.28 528.747 521.643 528.256C522.016 527.755 522.203 527.003 522.203 526V525.744C522.203 524.677 522.027 523.861 521.675 523.296C521.323 522.72 520.672 522.432 519.723 522.432C518.965 522.432 518.395 522.736 518.011 523.344C517.637 523.941 517.451 524.747 517.451 525.76C517.451 526.784 517.637 527.579 518.011 528.144C518.395 528.709 518.971 528.992 519.739 528.992Z" fill="#333333"/>
</g>
<rect x="68" y="564" width="48" height="48" rx="4" fill="#26374A"/>
<path d="M93.7173 595.75H91.6173V586.27C91.6173 585.937 91.6173 585.63 91.6173 585.35C91.6307 585.057 91.644 584.777 91.6573 584.51C91.6707 584.23 91.684 583.963 91.6973 583.71C91.524 583.883 91.344 584.05 91.1573 584.21C90.9707 584.37 90.7573 584.557 90.5173 584.77L88.9573 586.03L87.8773 584.67L91.9573 581.47H93.7173V595.75Z" fill="white"/>
<path d="M152.797 595.75H143.197V594.11L146.877 590.37C147.597 589.637 148.197 589.003 148.677 588.47C149.157 587.923 149.517 587.403 149.757 586.91C149.997 586.403 150.117 585.857 150.117 585.27C150.117 584.537 149.904 583.99 149.477 583.63C149.051 583.257 148.497 583.07 147.817 583.07C147.164 583.07 146.577 583.197 146.057 583.45C145.537 583.69 144.997 584.03 144.437 584.47L143.297 583.05C143.684 582.717 144.097 582.417 144.537 582.15C144.991 581.883 145.491 581.67 146.037 581.51C146.597 581.35 147.211 581.27 147.877 581.27C148.784 581.27 149.564 581.43 150.217 581.75C150.871 582.057 151.371 582.497 151.717 583.07C152.077 583.643 152.257 584.317 152.257 585.09C152.257 585.663 152.171 586.203 151.997 586.71C151.824 587.203 151.571 587.69 151.237 588.17C150.917 588.65 150.524 589.137 150.057 589.63C149.591 590.123 149.077 590.643 148.517 591.19L145.857 593.77V593.87H152.797V595.75Z" fill="#1F497A"/>
<path d="M142.277 597.75H153.717V598.75H142.277V597.75Z" fill="#1F497A"/>
<path d="M208.237 584.77C208.237 585.41 208.111 585.97 207.857 586.45C207.617 586.917 207.271 587.297 206.817 587.59C206.364 587.883 205.844 588.097 205.257 588.23V588.31C206.404 588.443 207.257 588.803 207.817 589.39C208.391 589.963 208.677 590.723 208.677 591.67C208.677 592.497 208.477 593.237 208.077 593.89C207.691 594.53 207.084 595.037 206.257 595.41C205.444 595.77 204.397 595.95 203.117 595.95C202.357 595.95 201.651 595.89 200.997 595.77C200.344 595.65 199.724 595.45 199.137 595.17V593.25C199.737 593.557 200.377 593.79 201.057 593.95C201.751 594.11 202.411 594.19 203.037 594.19C204.251 594.19 205.124 593.963 205.657 593.51C206.191 593.043 206.457 592.397 206.457 591.57C206.457 591.037 206.317 590.603 206.037 590.27C205.757 589.923 205.331 589.67 204.757 589.51C204.184 589.337 203.471 589.25 202.617 589.25H201.317V587.51H202.637C203.451 587.51 204.111 587.41 204.617 587.21C205.124 586.997 205.497 586.703 205.737 586.33C205.977 585.957 206.097 585.53 206.097 585.05C206.097 584.41 205.884 583.917 205.457 583.57C205.044 583.21 204.444 583.03 203.657 583.03C203.177 583.03 202.731 583.083 202.317 583.19C201.917 583.297 201.551 583.437 201.217 583.61C200.884 583.783 200.557 583.977 200.237 584.19L199.197 582.73C199.557 582.463 199.957 582.217 200.397 581.99C200.851 581.763 201.351 581.59 201.897 581.47C202.457 581.337 203.064 581.27 203.717 581.27C205.197 581.27 206.317 581.597 207.077 582.25C207.851 582.89 208.237 583.73 208.237 584.77Z" fill="#1F497A"/>
<path d="M198.277 597.75H209.717V598.75H198.277V597.75Z" fill="#1F497A"/>
<path d="M258.446 592.14C258.446 592.993 258.239 593.72 257.826 594.32C257.412 594.92 256.819 595.387 256.046 595.72C255.272 596.04 254.352 596.2 253.286 596.2C252.766 596.2 252.266 596.167 251.786 596.1C251.306 596.047 250.859 595.967 250.446 595.86C250.032 595.753 249.666 595.62 249.346 595.46V593.42C249.879 593.66 250.506 593.88 251.226 594.08C251.946 594.267 252.679 594.36 253.426 594.36C254.066 594.36 254.599 594.273 255.026 594.1C255.452 593.927 255.772 593.687 255.986 593.38C256.199 593.073 256.306 592.713 256.306 592.3C256.306 591.86 256.192 591.493 255.966 591.2C255.752 590.893 255.412 590.613 254.946 590.36C254.492 590.093 253.879 589.813 253.106 589.52C252.572 589.32 252.086 589.1 251.646 588.86C251.219 588.607 250.839 588.313 250.506 587.98C250.186 587.647 249.939 587.26 249.766 586.82C249.592 586.38 249.506 585.867 249.506 585.28C249.506 584.493 249.699 583.82 250.086 583.26C250.486 582.7 251.032 582.273 251.726 581.98C252.419 581.673 253.226 581.52 254.146 581.52C254.919 581.52 255.632 581.6 256.286 581.76C256.952 581.907 257.586 582.113 258.186 582.38L257.506 584.16C256.959 583.933 256.406 583.747 255.846 583.6C255.286 583.453 254.699 583.38 254.086 583.38C253.552 583.38 253.106 583.46 252.746 583.62C252.386 583.78 252.112 584 251.926 584.28C251.752 584.56 251.666 584.887 251.666 585.26C251.666 585.7 251.766 586.067 251.966 586.36C252.166 586.653 252.486 586.927 252.926 587.18C253.366 587.42 253.946 587.687 254.666 587.98C255.466 588.287 256.146 588.62 256.706 588.98C257.279 589.34 257.712 589.773 258.006 590.28C258.299 590.773 258.446 591.393 258.446 592.14ZM270.282 585.22V596H268.582L268.282 594.58H268.182C267.955 594.953 267.662 595.26 267.302 595.5C266.942 595.74 266.548 595.913 266.122 596.02C265.695 596.14 265.255 596.2 264.802 596.2C263.962 596.2 263.248 596.067 262.662 595.8C262.088 595.52 261.648 595.093 261.342 594.52C261.048 593.933 260.902 593.187 260.902 592.28V585.22H263.042V591.96C263.042 592.8 263.215 593.427 263.562 593.84C263.922 594.253 264.475 594.46 265.222 594.46C265.968 594.46 266.555 594.313 266.982 594.02C267.408 593.727 267.708 593.3 267.882 592.74C268.068 592.167 268.162 591.48 268.162 590.68V585.22H270.282ZM275.719 585.22V596H273.599V585.22H275.719ZM274.679 581.12C274.999 581.12 275.279 581.213 275.519 581.4C275.759 581.587 275.879 581.9 275.879 582.34C275.879 582.767 275.759 583.08 275.519 583.28C275.279 583.467 274.999 583.56 274.679 583.56C274.333 583.56 274.039 583.467 273.799 583.28C273.573 583.08 273.459 582.767 273.459 582.34C273.459 581.9 273.573 581.587 273.799 581.4C274.039 581.213 274.333 581.12 274.679 581.12ZM281.469 596L277.389 585.22H279.629L281.869 591.52C281.962 591.787 282.055 592.087 282.149 592.42C282.255 592.753 282.349 593.073 282.429 593.38C282.509 593.687 282.562 593.953 282.589 594.18H282.669C282.709 593.953 282.769 593.687 282.849 593.38C282.942 593.06 283.042 592.74 283.149 592.42C283.255 592.087 283.349 591.787 283.429 591.52L285.669 585.22H287.909L283.809 596H281.469ZM293.756 585.02C295.116 585.02 296.129 585.32 296.796 585.92C297.463 586.507 297.796 587.433 297.796 588.7V596H296.296L295.876 594.5H295.796C295.489 594.887 295.169 595.207 294.836 595.46C294.516 595.713 294.143 595.9 293.716 596.02C293.303 596.14 292.796 596.2 292.196 596.2C291.556 596.2 290.976 596.087 290.456 595.86C289.949 595.62 289.549 595.26 289.256 594.78C288.963 594.287 288.816 593.673 288.816 592.94C288.816 591.847 289.229 591.013 290.056 590.44C290.896 589.867 292.169 589.553 293.876 589.5L295.716 589.44V588.84C295.716 588.04 295.536 587.48 295.176 587.16C294.816 586.84 294.309 586.68 293.656 586.68C293.096 586.68 292.563 586.76 292.056 586.92C291.549 587.08 291.069 587.273 290.616 587.5L289.936 585.96C290.443 585.693 291.023 585.473 291.676 585.3C292.343 585.113 293.036 585.02 293.756 585.02ZM294.256 590.86C293.029 590.913 292.176 591.12 291.696 591.48C291.229 591.827 290.996 592.32 290.996 592.96C290.996 593.52 291.163 593.927 291.496 594.18C291.843 594.433 292.276 594.56 292.796 594.56C293.636 594.56 294.329 594.327 294.876 593.86C295.423 593.393 295.696 592.693 295.696 591.76V590.82L294.256 590.86ZM306.52 585.02C307.774 585.02 308.734 585.333 309.4 585.96C310.067 586.587 310.4 587.593 310.4 588.98V596H308.3V589.28C308.3 588.44 308.12 587.813 307.76 587.4C307.414 586.973 306.854 586.76 306.08 586.76C304.987 586.76 304.227 587.087 303.8 587.74C303.387 588.393 303.18 589.333 303.18 590.56V596H301.06V585.22H302.74L303.04 586.66H303.16C303.4 586.287 303.694 585.98 304.04 585.74C304.387 585.5 304.774 585.32 305.2 585.2C305.627 585.08 306.067 585.02 306.52 585.02ZM317.538 594.48C317.818 594.48 318.105 594.453 318.398 594.4C318.691 594.347 318.945 594.287 319.158 594.22V595.82C318.931 595.927 318.625 596.013 318.238 596.08C317.851 596.16 317.465 596.2 317.078 596.2C316.491 596.2 315.951 596.1 315.458 595.9C314.978 595.7 314.591 595.353 314.298 594.86C314.005 594.367 313.858 593.68 313.858 592.8V586.84H312.358V585.88L313.938 585.08L314.678 582.8H315.978V585.22H319.058V586.84H315.978V592.76C315.978 593.347 316.118 593.78 316.398 594.06C316.691 594.34 317.071 594.48 317.538 594.48Z" fill="#1F497A"/>
<path d="M248.346 598H319.658V599H248.346V598Z" fill="#1F497A"/>
<path d="M339.842 588L333 594.842L334.579 596.421L343 588L334.579 579.579L333 581.158L339.842 588Z" fill="#1F497A"/>
</g>
<g clip-path="url(#clip17_8280_1394)">
<rect x="20" y="231" width="48" height="1" fill="#C54600"/>
<g clip-path="url(#clip18_8280_1394)">
<rect x="20" y="219" width="24" height="24" rx="12" fill="#C54600"/>
<path d="M31.9782 235.119C31.3418 235.119 30.775 235.01 30.2779 234.791C29.7836 234.57 29.3929 234.266 29.106 233.879C28.8219 233.49 28.6756 233.041 28.6671 232.533H30.525C30.5364 232.746 30.606 232.933 30.7338 233.095C30.8645 233.254 31.0378 233.378 31.2537 233.466C31.4696 233.554 31.7125 233.598 31.9824 233.598C32.2637 233.598 32.5123 233.548 32.7282 233.449C32.9441 233.349 33.1131 233.212 33.2353 233.036C33.3574 232.859 33.4185 232.656 33.4185 232.426C33.4185 232.193 33.3532 231.987 33.2225 231.808C33.0946 231.626 32.91 231.484 32.6685 231.382C32.4299 231.28 32.1458 231.229 31.8162 231.229H31.0023V229.874H31.8162C32.0946 229.874 32.3404 229.825 32.5534 229.729C32.7694 229.632 32.937 229.499 33.0563 229.328C33.1756 229.155 33.2353 228.953 33.2353 228.723C33.2353 228.504 33.1827 228.312 33.0776 228.148C32.9753 227.98 32.8304 227.849 32.6429 227.756C32.4583 227.662 32.2424 227.615 31.9952 227.615C31.7452 227.615 31.5165 227.661 31.3091 227.751C31.1017 227.839 30.9355 227.966 30.8105 228.131C30.6855 228.295 30.6188 228.489 30.6103 228.71H28.8418C28.8503 228.207 28.9938 227.764 29.2722 227.381C29.5506 226.997 29.9256 226.697 30.3972 226.482C30.8716 226.263 31.4071 226.153 32.0037 226.153C32.606 226.153 33.133 226.263 33.5847 226.482C34.0364 226.7 34.3873 226.996 34.6373 227.368C34.8901 227.737 35.0151 228.152 35.0123 228.612C35.0151 229.101 34.8631 229.509 34.5563 229.835C34.2523 230.162 33.856 230.369 33.3674 230.457V230.526C34.0094 230.608 34.498 230.831 34.8333 231.195C35.1713 231.555 35.339 232.007 35.3361 232.55C35.339 233.047 35.1955 233.489 34.9057 233.875C34.6188 234.261 34.2225 234.565 33.7168 234.787C33.2111 235.009 32.6316 235.119 31.9782 235.119Z" fill="white"/>
</g>
</g>
<g clip-path="url(#clip19_8280_1394)">
<rect x="20" y="166" width="48" height="1" fill="#C54600"/>
<g clip-path="url(#clip20_8280_1394)">
<rect x="20" y="154" width="24" height="24" rx="12" fill="#C54600"/>
<path d="M28.9281 170V168.67L32.0346 165.794C32.2988 165.538 32.5204 165.308 32.6994 165.104C32.8812 164.899 33.019 164.699 33.1127 164.503C33.2065 164.304 33.2534 164.089 33.2534 163.859C33.2534 163.604 33.1951 163.384 33.0787 163.199C32.9622 163.011 32.8031 162.868 32.6014 162.768C32.3997 162.666 32.171 162.615 31.9153 162.615C31.6483 162.615 31.4153 162.669 31.2164 162.777C31.0176 162.885 30.8642 163.04 30.7562 163.241C30.6483 163.443 30.5943 163.683 30.5943 163.962H28.8429C28.8429 163.391 28.9721 162.895 29.2306 162.474C29.4892 162.054 29.8514 161.729 30.3173 161.499C30.7832 161.268 31.3201 161.153 31.9281 161.153C32.5531 161.153 33.0971 161.264 33.5602 161.486C34.0261 161.705 34.3883 162.009 34.6468 162.398C34.9054 162.787 35.0346 163.233 35.0346 163.736C35.0346 164.065 34.9693 164.391 34.8386 164.712C34.7108 165.033 34.4821 165.389 34.1525 165.781C33.823 166.17 33.3585 166.638 32.7591 167.183L31.4849 168.432V168.491H35.1497V170H28.9281Z" fill="white"/>
</g>
</g>
<g clip-path="url(#clip21_8280_1394)">
<rect x="20" y="284" width="48" height="1" fill="#C54600"/>
<g clip-path="url(#clip22_8280_1394)">
<rect x="20" y="272" width="24" height="24" rx="12" fill="#C54600"/>
<path d="M32.0277 288.119C31.4254 288.119 30.8885 288.009 30.4169 287.787C29.9482 287.565 29.576 287.26 29.3004 286.871C29.0249 286.482 28.8814 286.036 28.87 285.533H30.6598C30.6797 285.871 30.8217 286.145 31.0859 286.355C31.3501 286.565 31.6641 286.67 32.0277 286.67C32.3175 286.67 32.5732 286.607 32.7947 286.479C33.0192 286.348 33.1939 286.168 33.3189 285.938C33.4467 285.705 33.5107 285.437 33.5107 285.136C33.5107 284.83 33.4453 284.56 33.3146 284.327C33.1868 284.094 33.0092 283.912 32.782 283.781C32.5547 283.651 32.2947 283.584 32.0021 283.581C31.7464 283.581 31.4979 283.634 31.2564 283.739C31.0178 283.844 30.8317 283.987 30.6982 284.169L29.0575 283.875L29.4709 279.273H34.8061V280.781H30.9922L30.7663 282.967H30.8175C30.9709 282.751 31.2024 282.572 31.5121 282.43C31.8217 282.288 32.1683 282.217 32.5518 282.217C33.0774 282.217 33.5462 282.341 33.9581 282.588C34.37 282.835 34.6953 283.175 34.9339 283.607C35.1726 284.036 35.2905 284.53 35.2876 285.089C35.2905 285.678 35.1541 286.2 34.8786 286.658C34.6058 287.112 34.2237 287.47 33.7322 287.732C33.2436 287.99 32.6754 288.119 32.0277 288.119Z" fill="white"/>
</g>
</g>
<g clip-path="url(#clip23_8280_1394)">
<rect x="20" y="588" width="48" height="1" fill="#C54600"/>
<g clip-path="url(#clip24_8280_1394)">
<rect x="20" y="576" width="24" height="24" rx="12" fill="#C54600"/>
<path d="M29.4842 592L33.1021 584.841V584.781H28.8876V583.273H35.0112V584.803L31.389 592H29.4842Z" fill="white"/>
</g>
</g>
<g clip-path="url(#clip25_8280_1394)">
<rect x="431" y="231" width="48" height="1" fill="#C54600"/>
<g clip-path="url(#clip26_8280_1394)">
<rect x="455" y="219" width="24" height="24" rx="12" fill="#C54600"/>
<path d="M463.509 233.466V232.013L467.152 226.273H468.405V228.284H467.664L465.367 231.919V231.987H470.544V233.466H463.509ZM467.698 235V233.023L467.732 232.379V226.273H469.462V235H467.698Z" fill="white"/>
</g>
</g>
<mask id="path-75-inside-9_8280_1394" fill="white">
<path d="M20 306H65V548H20V306Z"/>
</mask>
<path d="M65 306H64V548H65H66V306H65Z" fill="#C54600" mask="url(#path-75-inside-9_8280_1394)"/>
<rect x="20" y="427" width="45" height="1" fill="#C54600"/>
<g clip-path="url(#clip27_8280_1394)">
<rect x="20" y="415" width="24" height="24" rx="12" fill="#C54600"/>
<path d="M32.0959 431.119C31.647 431.116 31.2138 431.041 30.7962 430.893C30.3814 430.746 30.0092 430.506 29.6797 430.173C29.3501 429.841 29.0888 429.401 28.8956 428.852C28.7053 428.304 28.6101 427.631 28.6101 426.832C28.6129 426.099 28.6967 425.445 28.8615 424.868C29.0291 424.288 29.2678 423.797 29.5774 423.393C29.8899 422.99 30.2635 422.683 30.6982 422.473C31.1328 422.26 31.62 422.153 32.1598 422.153C32.7422 422.153 33.2564 422.267 33.7024 422.494C34.1484 422.719 34.5064 423.024 34.7763 423.411C35.049 423.797 35.2138 424.23 35.2706 424.71H33.451C33.38 424.406 33.2308 424.168 33.0036 423.994C32.7763 423.821 32.495 423.734 32.1598 423.734C31.5916 423.734 31.1598 423.982 30.8643 424.476C30.5717 424.97 30.4226 425.642 30.4169 426.491H30.4766C30.6072 426.233 30.7834 426.013 31.005 425.831C31.2294 425.646 31.4837 425.506 31.7678 425.409C32.0547 425.31 32.3572 425.26 32.6754 425.26C33.1925 425.26 33.6527 425.382 34.0561 425.626C34.4595 425.868 34.7777 426.2 35.0107 426.624C35.2436 427.047 35.3601 427.531 35.3601 428.077C35.3601 428.668 35.2223 429.193 34.9467 429.653C34.674 430.114 34.2919 430.474 33.8004 430.736C33.3118 430.994 32.7436 431.122 32.0959 431.119ZM32.0874 429.67C32.3714 429.67 32.6257 429.602 32.8501 429.466C33.0746 429.33 33.2507 429.145 33.3786 428.912C33.5064 428.679 33.5703 428.418 33.5703 428.128C33.5703 427.838 33.5064 427.578 33.3786 427.348C33.2536 427.118 33.0803 426.935 32.8587 426.798C32.6371 426.662 32.3842 426.594 32.1001 426.594C31.8871 426.594 31.6896 426.634 31.5078 426.713C31.3288 426.793 31.1712 426.903 31.0348 427.045C30.9013 427.187 30.7962 427.352 30.7195 427.54C30.6428 427.724 30.6044 427.922 30.6044 428.132C30.6044 428.413 30.6683 428.67 30.7962 428.903C30.9268 429.136 31.103 429.322 31.3246 429.462C31.549 429.601 31.8033 429.67 32.0874 429.67Z" fill="white"/>
</g>
<mask id="path-80-inside-10_8280_1394" fill="white">
<path d="M20 31H65V121H20V31Z"/>
</mask>
<path d="M65 31H64V121H65H66V31H65Z" fill="#C54600" mask="url(#path-80-inside-10_8280_1394)"/>
<rect x="20" y="76" width="45" height="1" fill="#C54600"/>
<g clip-path="url(#clip28_8280_1394)">
<rect x="20" y="64" width="24" height="24" rx="12" fill="#C54600"/>
<path d="M33.5687 71.2727V80H31.7235V73.0241H31.6724L29.6738 74.277V72.6406L31.8343 71.2727H33.5687Z" fill="white"/>
</g>
<defs>
<clipPath id="clip0_8280_1394">
<rect width="650" height="608" fill="white" transform="translate(68 20)"/>
</clipPath>
<clipPath id="clip1_8280_1394">
<rect width="128" height="24" fill="white" transform="translate(74 154)"/>
</clipPath>
<clipPath id="clip2_8280_1394">
<rect width="200.667" height="24" fill="white" transform="translate(76 320)"/>
</clipPath>
<clipPath id="clip3_8280_1394">
<rect width="200.667" height="24" fill="white" transform="translate(292.667 320)"/>
</clipPath>
<clipPath id="clip4_8280_1394">
<rect width="200.667" height="24" fill="white" transform="translate(509.333 320)"/>
</clipPath>
<clipPath id="clip5_8280_1394">
<rect width="200.667" height="24" fill="white" transform="translate(76 368)"/>
</clipPath>
<clipPath id="clip6_8280_1394">
<rect width="200.667" height="24" fill="white" transform="translate(292.667 368)"/>
</clipPath>
<clipPath id="clip7_8280_1394">
<rect width="200.667" height="24" fill="white" transform="translate(509.333 368)"/>
</clipPath>
<clipPath id="clip8_8280_1394">
<rect width="200.667" height="24" fill="white" transform="translate(76 416)"/>
</clipPath>
<clipPath id="clip9_8280_1394">
<rect width="200.667" height="24" fill="white" transform="translate(292.667 416)"/>
</clipPath>
<clipPath id="clip10_8280_1394">
<rect width="200.667" height="24" fill="white" transform="translate(509.333 416)"/>
</clipPath>
<clipPath id="clip11_8280_1394">
<rect width="200.667" height="24" fill="white" transform="translate(76 464)"/>
</clipPath>
<clipPath id="clip12_8280_1394">
<rect width="200.667" height="24" fill="white" transform="translate(292.667 464)"/>
</clipPath>
<clipPath id="clip13_8280_1394">
<rect width="200.667" height="24" fill="white" transform="translate(509.333 464)"/>
</clipPath>
<clipPath id="clip14_8280_1394">
<rect width="200.667" height="24" fill="white" transform="translate(76 512)"/>
</clipPath>
<clipPath id="clip15_8280_1394">
<rect width="200.667" height="24" fill="white" transform="translate(292.667 512)"/>
</clipPath>
<clipPath id="clip16_8280_1394">
<rect width="200.667" height="24" fill="white" transform="translate(509.333 512)"/>
</clipPath>
<clipPath id="clip17_8280_1394">
<rect width="48" height="24" fill="white" transform="translate(20 219)"/>
</clipPath>
<clipPath id="clip18_8280_1394">
<rect x="20" y="219" width="24" height="24" rx="12" fill="white"/>
</clipPath>
<clipPath id="clip19_8280_1394">
<rect width="48" height="24" fill="white" transform="translate(20 154)"/>
</clipPath>
<clipPath id="clip20_8280_1394">
<rect x="20" y="154" width="24" height="24" rx="12" fill="white"/>
</clipPath>
<clipPath id="clip21_8280_1394">
<rect width="48" height="24" fill="white" transform="translate(20 272)"/>
</clipPath>
<clipPath id="clip22_8280_1394">
<rect x="20" y="272" width="24" height="24" rx="12" fill="white"/>
</clipPath>
<clipPath id="clip23_8280_1394">
<rect width="48" height="24" fill="white" transform="translate(20 576)"/>
</clipPath>
<clipPath id="clip24_8280_1394">
<rect x="20" y="576" width="24" height="24" rx="12" fill="white"/>
</clipPath>
<clipPath id="clip25_8280_1394">
<rect width="48" height="24" fill="white" transform="translate(431 219)"/>
</clipPath>
<clipPath id="clip26_8280_1394">
<rect x="455" y="219" width="24" height="24" rx="12" fill="white"/>
</clipPath>
<clipPath id="clip27_8280_1394">
<rect x="20" y="415" width="24" height="24" rx="12" fill="white"/>
</clipPath>
<clipPath id="clip28_8280_1394">
<rect x="20" y="64" width="24" height="24" rx="12" fill="white"/>
</clipPath>
</defs>
</svg>
