<svg width="728" height="292" viewBox="0 0 728 292" fill="none" xmlns="http://www.w3.org/2000/svg">
<path d="M62.02 25.5H53.8V11.22H62.02V13.7H56.82V16.84H61.66V19.32H56.82V23H62.02V25.5ZM62.24 7.02C62.0533 7.20667 61.8067 7.43333 61.5 7.7C61.1933 7.96667 60.86 8.24667 60.5 8.54C60.1533 8.83333 59.8067 9.11333 59.46 9.38C59.1267 9.63333 58.8333 9.84667 58.58 10.02H56.6V9.76C56.8133 9.50667 57.06 9.21333 57.34 8.88C57.6333 8.53333 57.92 8.18 58.2 7.82C58.48 7.44667 58.7133 7.11333 58.9 6.82H62.24V7.02ZM69.3514 23.32C69.6847 23.32 70.0047 23.2867 70.3114 23.22C70.6181 23.1533 70.9247 23.0733 71.2314 22.98V25.2C70.9114 25.3333 70.5114 25.4467 70.0314 25.54C69.5647 25.6467 69.0514 25.7 68.4914 25.7C67.8381 25.7 67.2514 25.5933 66.7314 25.38C66.2247 25.1667 65.8181 24.8 65.5114 24.28C65.2181 23.7467 65.0714 23.0133 65.0714 22.08V16.82H63.6514V15.56L65.2914 14.56L66.1514 12.26H68.0514V14.58H71.1114V16.82H68.0514V22.08C68.0514 22.4933 68.1714 22.8067 68.4114 23.02C68.6514 23.22 68.9647 23.32 69.3514 23.32ZM74.9233 10.3C75.3633 10.3 75.7433 10.4067 76.0633 10.62C76.3833 10.82 76.5433 11.2 76.5433 11.76C76.5433 12.3067 76.3833 12.6867 76.0633 12.9C75.7433 13.1133 75.3633 13.22 74.9233 13.22C74.4699 13.22 74.0833 13.1133 73.7633 12.9C73.4566 12.6867 73.3033 12.3067 73.3033 11.76C73.3033 11.2 73.4566 10.82 73.7633 10.62C74.0833 10.4067 74.4699 10.3 74.9233 10.3ZM76.4033 14.58V25.5H73.4233V14.58H76.4033ZM86.077 25.72C86.077 25.16 86.117 24.6133 86.197 24.08H86.077C85.797 24.5333 85.4104 24.92 84.917 25.24C84.4237 25.5467 83.777 25.7 82.977 25.7C81.7504 25.7 80.757 25.2267 79.997 24.28C79.237 23.32 78.857 21.9133 78.857 20.06C78.857 18.1933 79.2437 16.78 80.017 15.82C80.7904 14.86 81.797 14.38 83.037 14.38C83.837 14.38 84.4837 14.5333 84.977 14.84C85.4837 15.1467 85.8904 15.5267 86.197 15.98H86.277L86.537 14.58H89.057V30.3H86.077V25.72ZM84.037 23.36C84.8637 23.36 85.437 23.12 85.757 22.64C86.0904 22.1467 86.2637 21.4133 86.277 20.44V20.08C86.277 19.0133 86.1104 18.2 85.777 17.64C85.457 17.08 84.8637 16.8 83.997 16.8C83.2904 16.8 82.7637 17.0867 82.417 17.66C82.0704 18.22 81.897 19.0333 81.897 20.1C81.897 22.2733 82.6104 23.36 84.037 23.36ZM102.193 14.58V25.5H99.9133L99.5133 24.1H99.3533C99.0066 24.66 98.5266 25.0667 97.9133 25.32C97.3133 25.5733 96.6733 25.7 95.9933 25.7C94.8199 25.7 93.8799 25.3867 93.1733 24.76C92.4666 24.12 92.1133 23.1 92.1133 21.7V14.58H95.0933V20.96C95.0933 21.7333 95.2333 22.32 95.5133 22.72C95.7933 23.12 96.2399 23.32 96.8533 23.32C97.7599 23.32 98.3799 23.0133 98.7133 22.4C99.0466 21.7733 99.2133 20.88 99.2133 19.72V14.58H102.193ZM109.818 14.38C111.324 14.38 112.518 14.8133 113.398 15.68C114.278 16.5333 114.718 17.7533 114.718 19.34V20.78H107.678C107.704 21.62 107.951 22.28 108.418 22.76C108.898 23.24 109.558 23.48 110.398 23.48C111.104 23.48 111.744 23.4133 112.318 23.28C112.891 23.1333 113.484 22.9133 114.098 22.62V24.92C113.564 25.1867 112.998 25.38 112.398 25.5C111.811 25.6333 111.098 25.7 110.258 25.7C109.164 25.7 108.198 25.5 107.358 25.1C106.518 24.6867 105.858 24.0667 105.378 23.24C104.898 22.4133 104.658 21.3733 104.658 20.12C104.658 18.84 104.871 17.78 105.298 16.94C105.738 16.0867 106.344 15.4467 107.118 15.02C107.891 14.5933 108.791 14.38 109.818 14.38ZM109.838 16.5C109.264 16.5 108.784 16.6867 108.398 17.06C108.024 17.4333 107.804 18.0133 107.738 18.8H111.918C111.904 18.1333 111.731 17.5867 111.398 17.16C111.064 16.72 110.544 16.5 109.838 16.5ZM121.734 23.32C122.068 23.32 122.388 23.2867 122.694 23.22C123.001 23.1533 123.308 23.0733 123.614 22.98V25.2C123.294 25.3333 122.894 25.4467 122.414 25.54C121.948 25.6467 121.434 25.7 120.874 25.7C120.221 25.7 119.634 25.5933 119.114 25.38C118.608 25.1667 118.201 24.8 117.894 24.28C117.601 23.7467 117.454 23.0133 117.454 22.08V16.82H116.034V15.56L117.674 14.56L118.534 12.26H120.434V14.58H123.494V16.82H120.434V22.08C120.434 22.4933 120.554 22.8067 120.794 23.02C121.034 23.22 121.348 23.32 121.734 23.32ZM130.406 23.32C130.739 23.32 131.059 23.2867 131.366 23.22C131.673 23.1533 131.979 23.0733 132.286 22.98V25.2C131.966 25.3333 131.566 25.4467 131.086 25.54C130.619 25.6467 130.106 25.7 129.546 25.7C128.893 25.7 128.306 25.5933 127.786 25.38C127.279 25.1667 126.873 24.8 126.566 24.28C126.273 23.7467 126.126 23.0133 126.126 22.08V16.82H124.706V15.56L126.346 14.56L127.206 12.26H129.106V14.58H132.166V16.82H129.106V22.08C129.106 22.4933 129.226 22.8067 129.466 23.02C129.706 23.22 130.019 23.32 130.406 23.32ZM138.978 14.38C140.485 14.38 141.678 14.8133 142.558 15.68C143.438 16.5333 143.878 17.7533 143.878 19.34V20.78H136.838C136.865 21.62 137.111 22.28 137.578 22.76C138.058 23.24 138.718 23.48 139.558 23.48C140.265 23.48 140.905 23.4133 141.478 23.28C142.051 23.1333 142.645 22.9133 143.258 22.62V24.92C142.725 25.1867 142.158 25.38 141.558 25.5C140.971 25.6333 140.258 25.7 139.418 25.7C138.325 25.7 137.358 25.5 136.518 25.1C135.678 24.6867 135.018 24.0667 134.538 23.24C134.058 22.4133 133.818 21.3733 133.818 20.12C133.818 18.84 134.031 17.78 134.458 16.94C134.898 16.0867 135.505 15.4467 136.278 15.02C137.051 14.5933 137.951 14.38 138.978 14.38ZM138.998 16.5C138.425 16.5 137.945 16.6867 137.558 17.06C137.185 17.4333 136.965 18.0133 136.898 18.8H141.078C141.065 18.1333 140.891 17.5867 140.558 17.16C140.225 16.72 139.705 16.5 138.998 16.5Z" fill="#333333"/>
<path d="M153.8 20.02C153.8 18.3933 154.033 16.8267 154.5 15.32C154.98 13.8 155.727 12.4333 156.74 11.22H158.4C157.467 12.4733 156.76 13.8533 156.28 15.36C155.813 16.8667 155.58 18.4133 155.58 20C155.58 21.5467 155.813 23.0667 156.28 24.56C156.76 26.04 157.46 27.4067 158.38 28.66H156.74C155.727 27.4867 154.98 26.16 154.5 24.68C154.033 23.1867 153.8 21.6333 153.8 20.02ZM170.016 20.12C170.016 21.8933 169.563 23.2667 168.656 24.24C167.763 25.2133 166.549 25.7 165.016 25.7C164.069 25.7 163.223 25.4867 162.476 25.06C161.743 24.62 161.163 23.9867 160.736 23.16C160.309 22.32 160.096 21.3067 160.096 20.12C160.096 18.3467 160.543 16.98 161.436 16.02C162.329 15.06 163.543 14.58 165.076 14.58C166.049 14.58 166.903 14.8 167.636 15.24C168.383 15.6667 168.963 16.2933 169.376 17.12C169.803 17.9333 170.016 18.9333 170.016 20.12ZM161.916 20.12C161.916 21.3867 162.163 22.3933 162.656 23.14C163.163 23.8733 163.963 24.24 165.056 24.24C166.136 24.24 166.929 23.8733 167.436 23.14C167.943 22.3933 168.196 21.3867 168.196 20.12C168.196 18.8533 167.943 17.86 167.436 17.14C166.929 16.42 166.129 16.06 165.036 16.06C163.943 16.06 163.149 16.42 162.656 17.14C162.163 17.86 161.916 18.8533 161.916 20.12ZM174.565 14C174.565 14.4533 174.552 14.88 174.525 15.28C174.512 15.6667 174.492 15.9733 174.465 16.2H174.565C174.872 15.7467 175.292 15.3667 175.825 15.06C176.359 14.7533 177.045 14.6 177.885 14.6C179.219 14.6 180.285 15.0667 181.085 16C181.899 16.92 182.305 18.3 182.305 20.14C182.305 21.98 181.899 23.3667 181.085 24.3C180.272 25.2333 179.205 25.7 177.885 25.7C177.045 25.7 176.359 25.5467 175.825 25.24C175.292 24.9333 174.872 24.5667 174.565 24.14H174.425L174.065 25.5H172.805V10.3H174.565V14ZM177.585 16.06C176.452 16.06 175.665 16.3867 175.225 17.04C174.785 17.6933 174.565 18.7067 174.565 20.08V20.16C174.565 21.48 174.779 22.4933 175.205 23.2C175.645 23.8933 176.452 24.24 177.625 24.24C178.585 24.24 179.299 23.8867 179.765 23.18C180.245 22.4733 180.485 21.4533 180.485 20.12C180.485 17.4133 179.519 16.06 177.585 16.06ZM186.87 25.5H185.11V10.3H186.87V25.5ZM191.166 10.76C191.433 10.76 191.666 10.8533 191.866 11.04C192.08 11.2133 192.186 11.4933 192.186 11.88C192.186 12.2533 192.08 12.5333 191.866 12.72C191.666 12.9067 191.433 13 191.166 13C190.873 13 190.626 12.9067 190.426 12.72C190.226 12.5333 190.126 12.2533 190.126 11.88C190.126 11.4933 190.226 11.2133 190.426 11.04C190.626 10.8533 190.873 10.76 191.166 10.76ZM192.026 14.78V25.5H190.266V14.78H192.026ZM199.223 14.58C199.929 14.58 200.563 14.7133 201.123 14.98C201.696 15.2467 202.183 15.6533 202.583 16.2H202.683L202.923 14.78H204.323V25.68C204.323 27.2133 203.929 28.3667 203.143 29.14C202.369 29.9133 201.163 30.3 199.523 30.3C197.949 30.3 196.663 30.0733 195.663 29.62V28C196.716 28.56 198.036 28.84 199.623 28.84C200.543 28.84 201.263 28.5667 201.783 28.02C202.316 27.4867 202.583 26.7533 202.583 25.82V25.4C202.583 25.24 202.589 25.0133 202.603 24.72C202.616 24.4133 202.629 24.2 202.643 24.08H202.563C201.843 25.16 200.736 25.7 199.243 25.7C197.856 25.7 196.769 25.2133 195.983 24.24C195.209 23.2667 194.823 21.9067 194.823 20.16C194.823 18.4533 195.209 17.1 195.983 16.1C196.769 15.0867 197.849 14.58 199.223 14.58ZM199.463 16.06C198.569 16.06 197.876 16.42 197.383 17.14C196.889 17.8467 196.643 18.86 196.643 20.18C196.643 21.5 196.883 22.5133 197.363 23.22C197.856 23.9133 198.569 24.26 199.503 24.26C200.583 24.26 201.369 23.9733 201.863 23.4C202.356 22.8133 202.603 21.8733 202.603 20.58V20.16C202.603 18.6933 202.349 17.6467 201.843 17.02C201.336 16.38 200.543 16.06 199.463 16.06ZM211.787 14.6C213.094 14.6 214.061 14.8867 214.687 15.46C215.314 16.0333 215.627 16.9467 215.627 18.2V25.5H214.347L214.007 23.98H213.927C213.461 24.5667 212.967 25 212.447 25.28C211.941 25.56 211.234 25.7 210.327 25.7C209.354 25.7 208.547 25.4467 207.907 24.94C207.267 24.42 206.947 23.6133 206.947 22.52C206.947 21.4533 207.367 20.6333 208.207 20.06C209.047 19.4733 210.341 19.1533 212.087 19.1L213.907 19.04V18.4C213.907 17.5067 213.714 16.8867 213.327 16.54C212.941 16.1933 212.394 16.02 211.687 16.02C211.127 16.02 210.594 16.1067 210.087 16.28C209.581 16.44 209.107 16.6267 208.667 16.84L208.127 15.52C208.594 15.2667 209.147 15.0533 209.787 14.88C210.427 14.6933 211.094 14.6 211.787 14.6ZM212.307 20.32C210.974 20.3733 210.047 20.5867 209.527 20.96C209.021 21.3333 208.767 21.86 208.767 22.54C208.767 23.14 208.947 23.58 209.307 23.86C209.681 24.14 210.154 24.28 210.727 24.28C211.634 24.28 212.387 24.0333 212.987 23.54C213.587 23.0333 213.887 22.26 213.887 21.22V20.26L212.307 20.32ZM222.518 24.26C222.785 24.26 223.058 24.24 223.338 24.2C223.618 24.1467 223.845 24.0933 224.018 24.04V25.38C223.832 25.4733 223.565 25.5467 223.218 25.6C222.872 25.6667 222.538 25.7 222.218 25.7C221.658 25.7 221.138 25.6067 220.658 25.42C220.192 25.22 219.812 24.88 219.518 24.4C219.225 23.92 219.078 23.2467 219.078 22.38V16.14H217.558V15.3L219.098 14.6L219.798 12.32H220.838V14.78H223.938V16.14H220.838V22.34C220.838 22.9933 220.992 23.48 221.298 23.8C221.618 24.1067 222.025 24.26 222.518 24.26ZM235.485 20.12C235.485 21.8933 235.032 23.2667 234.125 24.24C233.232 25.2133 232.018 25.7 230.485 25.7C229.538 25.7 228.692 25.4867 227.945 25.06C227.212 24.62 226.632 23.9867 226.205 23.16C225.778 22.32 225.565 21.3067 225.565 20.12C225.565 18.3467 226.012 16.98 226.905 16.02C227.798 15.06 229.012 14.58 230.545 14.58C231.518 14.58 232.372 14.8 233.105 15.24C233.852 15.6667 234.432 16.2933 234.845 17.12C235.272 17.9333 235.485 18.9333 235.485 20.12ZM227.385 20.12C227.385 21.3867 227.632 22.3933 228.125 23.14C228.632 23.8733 229.432 24.24 230.525 24.24C231.605 24.24 232.398 23.8733 232.905 23.14C233.412 22.3933 233.665 21.3867 233.665 20.12C233.665 18.8533 233.412 17.86 232.905 17.14C232.398 16.42 231.598 16.06 230.505 16.06C229.412 16.06 228.618 16.42 228.125 17.14C227.632 17.86 227.385 18.8533 227.385 20.12ZM239.174 10.76C239.441 10.76 239.674 10.8533 239.874 11.04C240.088 11.2133 240.194 11.4933 240.194 11.88C240.194 12.2533 240.088 12.5333 239.874 12.72C239.674 12.9067 239.441 13 239.174 13C238.881 13 238.634 12.9067 238.434 12.72C238.234 12.5333 238.134 12.2533 238.134 11.88C238.134 11.4933 238.234 11.2133 238.434 11.04C238.634 10.8533 238.881 10.76 239.174 10.76ZM240.034 14.78V25.5H238.274V14.78H240.034ZM248.43 14.58C248.63 14.58 248.844 14.5933 249.07 14.62C249.31 14.6333 249.517 14.66 249.69 14.7L249.47 16.32C249.297 16.28 249.104 16.2467 248.89 16.22C248.69 16.1933 248.497 16.18 248.31 16.18C247.764 16.18 247.25 16.3333 246.77 16.64C246.29 16.9333 245.904 17.3533 245.61 17.9C245.33 18.4333 245.19 19.06 245.19 19.78V25.5H243.43V14.78H244.87L245.07 16.74H245.15C245.497 16.1533 245.944 15.6467 246.49 15.22C247.037 14.7933 247.684 14.58 248.43 14.58ZM255.442 14.58C256.362 14.58 257.148 14.78 257.802 15.18C258.468 15.58 258.975 16.1467 259.322 16.88C259.682 17.6 259.862 18.4467 259.862 19.42V20.48H252.522C252.548 21.6933 252.855 22.62 253.442 23.26C254.042 23.8867 254.875 24.2 255.942 24.2C256.622 24.2 257.222 24.14 257.742 24.02C258.275 23.8867 258.822 23.7 259.382 23.46V25C258.835 25.24 258.295 25.4133 257.762 25.52C257.228 25.64 256.595 25.7 255.862 25.7C254.848 25.7 253.948 25.4933 253.162 25.08C252.388 24.6667 251.782 24.0533 251.342 23.24C250.915 22.4133 250.702 21.4067 250.702 20.22C250.702 19.0467 250.895 18.04 251.282 17.2C251.682 16.36 252.235 15.7133 252.942 15.26C253.662 14.8067 254.495 14.58 255.442 14.58ZM255.422 16.02C254.582 16.02 253.915 16.2933 253.422 16.84C252.942 17.3733 252.655 18.12 252.562 19.08H258.022C258.008 18.1733 257.795 17.44 257.382 16.88C256.968 16.3067 256.315 16.02 255.422 16.02ZM266.091 20.02C266.091 21.6333 265.851 23.1867 265.371 24.68C264.904 26.16 264.164 27.4867 263.151 28.66H261.511C262.431 27.4067 263.124 26.04 263.591 24.56C264.071 23.0667 264.311 21.5467 264.311 20C264.311 18.4133 264.071 16.8667 263.591 15.36C263.124 13.8533 262.424 12.4733 261.491 11.22H263.151C264.164 12.4333 264.904 13.8 265.371 15.32C265.851 16.8267 266.091 18.3933 266.091 20.02Z" fill="#333333"/>
<path d="M58.46 57.5H56.66V44.8H52.2V43.22H62.9V44.8H58.46V57.5ZM67.547 46.58C68.467 46.58 69.2537 46.78 69.907 47.18C70.5737 47.58 71.0804 48.1467 71.427 48.88C71.787 49.6 71.967 50.4467 71.967 51.42V52.48H64.627C64.6537 53.6933 64.9604 54.62 65.547 55.26C66.147 55.8867 66.9804 56.2 68.047 56.2C68.727 56.2 69.327 56.14 69.847 56.02C70.3804 55.8867 70.927 55.7 71.487 55.46V57C70.9404 57.24 70.4004 57.4133 69.867 57.52C69.3337 57.64 68.7004 57.7 67.967 57.7C66.9537 57.7 66.0537 57.4933 65.267 57.08C64.4937 56.6667 63.887 56.0533 63.447 55.24C63.0204 54.4133 62.807 53.4067 62.807 52.22C62.807 51.0467 63.0004 50.04 63.387 49.2C63.787 48.36 64.3404 47.7133 65.047 47.26C65.767 46.8067 66.6004 46.58 67.547 46.58ZM67.527 48.02C66.687 48.02 66.0204 48.2933 65.527 48.84C65.047 49.3733 64.7604 50.12 64.667 51.08H70.127C70.1137 50.1733 69.9004 49.44 69.487 48.88C69.0737 48.3067 68.4204 48.02 67.527 48.02ZM76.8455 52.02L73.1455 46.78H75.1455L77.9055 50.82L80.6455 46.78H82.6255L78.9255 52.02L82.8255 57.5H80.8255L77.9055 53.22L74.9455 57.5H72.9655L76.8455 52.02ZM88.4714 56.26C88.7381 56.26 89.0114 56.24 89.2914 56.2C89.5714 56.1467 89.7981 56.0933 89.9714 56.04V57.38C89.7847 57.4733 89.5181 57.5467 89.1714 57.6C88.8247 57.6667 88.4914 57.7 88.1714 57.7C87.6114 57.7 87.0914 57.6067 86.6114 57.42C86.1447 57.22 85.7647 56.88 85.4714 56.4C85.1781 55.92 85.0314 55.2467 85.0314 54.38V48.14H83.5114V47.3L85.0514 46.6L85.7514 44.32H86.7914V46.78H89.8914V48.14H86.7914V54.34C86.7914 54.9933 86.9447 55.48 87.2514 55.8C87.5714 56.1067 87.9781 56.26 88.4714 56.26ZM96.258 46.58C97.178 46.58 97.9646 46.78 98.618 47.18C99.2846 47.58 99.7913 48.1467 100.138 48.88C100.498 49.6 100.678 50.4467 100.678 51.42V52.48H93.338C93.3646 53.6933 93.6713 54.62 94.258 55.26C94.858 55.8867 95.6913 56.2 96.758 56.2C97.438 56.2 98.038 56.14 98.558 56.02C99.0913 55.8867 99.638 55.7 100.198 55.46V57C99.6513 57.24 99.1113 57.4133 98.578 57.52C98.0446 57.64 97.4113 57.7 96.678 57.7C95.6646 57.7 94.7646 57.4933 93.978 57.08C93.2046 56.6667 92.598 56.0533 92.158 55.24C91.7313 54.4133 91.518 53.4067 91.518 52.22C91.518 51.0467 91.7113 50.04 92.098 49.2C92.498 48.36 93.0513 47.7133 93.758 47.26C94.478 46.8067 95.3113 46.58 96.258 46.58ZM96.238 48.02C95.398 48.02 94.7313 48.2933 94.238 48.84C93.758 49.3733 93.4713 50.12 93.378 51.08H98.838C98.8246 50.1733 98.6113 49.44 98.198 48.88C97.7846 48.3067 97.1313 48.02 96.238 48.02ZM112.742 46.58C113.662 46.58 114.449 46.78 115.102 47.18C115.769 47.58 116.276 48.1467 116.622 48.88C116.982 49.6 117.162 50.4467 117.162 51.42V52.48H109.822C109.849 53.6933 110.156 54.62 110.742 55.26C111.342 55.8867 112.176 56.2 113.242 56.2C113.922 56.2 114.522 56.14 115.042 56.02C115.576 55.8867 116.122 55.7 116.682 55.46V57C116.136 57.24 115.596 57.4133 115.062 57.52C114.529 57.64 113.896 57.7 113.162 57.7C112.149 57.7 111.249 57.4933 110.462 57.08C109.689 56.6667 109.082 56.0533 108.642 55.24C108.216 54.4133 108.002 53.4067 108.002 52.22C108.002 51.0467 108.196 50.04 108.582 49.2C108.982 48.36 109.536 47.7133 110.242 47.26C110.962 46.8067 111.796 46.58 112.742 46.58ZM112.722 48.02C111.882 48.02 111.216 48.2933 110.722 48.84C110.242 49.3733 109.956 50.12 109.862 51.08H115.322C115.309 50.1733 115.096 49.44 114.682 48.88C114.269 48.3067 113.616 48.02 112.722 48.02ZM122.041 52.02L118.341 46.78H120.341L123.101 50.82L125.841 46.78H127.821L124.121 52.02L128.021 57.5H126.021L123.101 53.22L120.141 57.5H118.161L122.041 52.02ZM135.187 46.58C136.507 46.58 137.567 47.04 138.367 47.96C139.18 48.88 139.587 50.2667 139.587 52.12C139.587 53.9467 139.18 55.3333 138.367 56.28C137.567 57.2267 136.5 57.7 135.167 57.7C134.34 57.7 133.653 57.5467 133.107 57.24C132.573 56.92 132.153 56.5533 131.847 56.14H131.727C131.753 56.3667 131.78 56.6533 131.807 57C131.833 57.3467 131.847 57.6467 131.847 57.9V62.3H130.087V46.78H131.527L131.767 48.24H131.847C132.167 47.7733 132.587 47.38 133.107 47.06C133.627 46.74 134.32 46.58 135.187 46.58ZM134.867 48.06C133.773 48.06 133 48.3667 132.547 48.98C132.107 49.5933 131.873 50.5267 131.847 51.78V52.12C131.847 53.44 132.06 54.46 132.487 55.18C132.927 55.8867 133.733 56.24 134.907 56.24C135.56 56.24 136.093 56.06 136.507 55.7C136.933 55.34 137.247 54.8533 137.447 54.24C137.66 53.6133 137.767 52.9 137.767 52.1C137.767 50.8733 137.527 49.8933 137.047 49.16C136.58 48.4267 135.853 48.06 134.867 48.06ZM144.151 57.5H142.391V42.3H144.151V57.5ZM148.448 42.76C148.714 42.76 148.948 42.8533 149.148 43.04C149.361 43.2133 149.468 43.4933 149.468 43.88C149.468 44.2533 149.361 44.5333 149.148 44.72C148.948 44.9067 148.714 45 148.448 45C148.154 45 147.908 44.9067 147.708 44.72C147.508 44.5333 147.408 44.2533 147.408 43.88C147.408 43.4933 147.508 43.2133 147.708 43.04C147.908 42.8533 148.154 42.76 148.448 42.76ZM149.308 46.78V57.5H147.548V46.78H149.308ZM157.004 57.7C156.057 57.7 155.211 57.5067 154.464 57.12C153.731 56.7333 153.151 56.1333 152.724 55.32C152.311 54.5067 152.104 53.4667 152.104 52.2C152.104 50.88 152.324 49.8067 152.764 48.98C153.204 48.1533 153.797 47.5467 154.544 47.16C155.304 46.7733 156.164 46.58 157.124 46.58C157.671 46.58 158.197 46.64 158.704 46.76C159.211 46.8667 159.624 47 159.944 47.16L159.404 48.62C159.084 48.5 158.711 48.3867 158.284 48.28C157.857 48.1733 157.457 48.12 157.084 48.12C154.977 48.12 153.924 49.4733 153.924 52.18C153.924 53.4733 154.177 54.4667 154.684 55.16C155.204 55.84 155.971 56.18 156.984 56.18C157.571 56.18 158.084 56.12 158.524 56C158.977 55.88 159.391 55.7333 159.764 55.56V57.12C159.404 57.3067 159.004 57.4467 158.564 57.54C158.137 57.6467 157.617 57.7 157.004 57.7ZM166.373 46.6C167.68 46.6 168.647 46.8867 169.273 47.46C169.9 48.0333 170.213 48.9467 170.213 50.2V57.5H168.933L168.593 55.98H168.513C168.047 56.5667 167.553 57 167.033 57.28C166.527 57.56 165.82 57.7 164.913 57.7C163.94 57.7 163.133 57.4467 162.493 56.94C161.853 56.42 161.533 55.6133 161.533 54.52C161.533 53.4533 161.953 52.6333 162.793 52.06C163.633 51.4733 164.927 51.1533 166.673 51.1L168.493 51.04V50.4C168.493 49.5067 168.3 48.8867 167.913 48.54C167.527 48.1933 166.98 48.02 166.273 48.02C165.713 48.02 165.18 48.1067 164.673 48.28C164.167 48.44 163.693 48.6267 163.253 48.84L162.713 47.52C163.18 47.2667 163.733 47.0533 164.373 46.88C165.013 46.6933 165.68 46.6 166.373 46.6ZM166.893 52.32C165.56 52.3733 164.633 52.5867 164.113 52.96C163.607 53.3333 163.353 53.86 163.353 54.54C163.353 55.14 163.533 55.58 163.893 55.86C164.267 56.14 164.74 56.28 165.313 56.28C166.22 56.28 166.973 56.0333 167.573 55.54C168.173 55.0333 168.473 54.26 168.473 53.22V52.26L166.893 52.32ZM177.104 56.26C177.371 56.26 177.644 56.24 177.924 56.2C178.204 56.1467 178.431 56.0933 178.604 56.04V57.38C178.418 57.4733 178.151 57.5467 177.804 57.6C177.458 57.6667 177.124 57.7 176.804 57.7C176.244 57.7 175.724 57.6067 175.244 57.42C174.778 57.22 174.398 56.88 174.104 56.4C173.811 55.92 173.664 55.2467 173.664 54.38V48.14H172.144V47.3L173.684 46.6L174.384 44.32H175.424V46.78H178.524V48.14H175.424V54.34C175.424 54.9933 175.578 55.48 175.884 55.8C176.204 56.1067 176.611 56.26 177.104 56.26ZM181.651 42.76C181.917 42.76 182.151 42.8533 182.351 43.04C182.564 43.2133 182.671 43.4933 182.671 43.88C182.671 44.2533 182.564 44.5333 182.351 44.72C182.151 44.9067 181.917 45 181.651 45C181.357 45 181.111 44.9067 180.911 44.72C180.711 44.5333 180.611 44.2533 180.611 43.88C180.611 43.4933 180.711 43.2133 180.911 43.04C181.111 42.8533 181.357 42.76 181.651 42.76ZM182.511 46.78V57.5H180.751V46.78H182.511ZM190.847 48.14H188.147V57.5H186.387V48.14H184.507V47.32L186.387 46.72V46.1C186.387 44.7133 186.694 43.72 187.307 43.12C187.92 42.5067 188.774 42.2 189.867 42.2C190.294 42.2 190.68 42.24 191.027 42.32C191.387 42.3867 191.694 42.4667 191.947 42.56L191.487 43.94C191.274 43.8733 191.027 43.8067 190.747 43.74C190.467 43.6733 190.18 43.64 189.887 43.64C189.3 43.64 188.86 43.84 188.567 44.24C188.287 44.6267 188.147 45.24 188.147 46.08V46.78H190.847V48.14Z" fill="#43474E"/>
<rect x="53" y="74.5" width="185" height="46" rx="5" fill="white"/>
<rect x="53" y="74.5" width="185" height="46" rx="5" stroke="#2B4380" stroke-width="2"/>
<path d="M72 92.88C71.2933 92.88 70.66 93.0067 70.1 93.26C69.54 93.5 69.06 93.86 68.66 94.34C68.2733 94.82 67.9733 95.4 67.76 96.08C67.56 96.76 67.46 97.5267 67.46 98.38C67.46 99.5 67.6267 100.473 67.96 101.3C68.2933 102.113 68.7933 102.74 69.46 103.18C70.1267 103.62 70.9667 103.84 71.98 103.84C72.5933 103.84 73.18 103.787 73.74 103.68C74.3133 103.56 74.8933 103.407 75.48 103.22V105.08C74.92 105.293 74.3467 105.447 73.76 105.54C73.1733 105.647 72.4933 105.7 71.72 105.7C70.2667 105.7 69.0533 105.4 68.08 104.8C67.12 104.2 66.4 103.347 65.92 102.24C65.44 101.133 65.2 99.84 65.2 98.36C65.2 97.28 65.3467 96.2933 65.64 95.4C65.9467 94.4933 66.3867 93.7133 66.96 93.06C67.5333 92.4067 68.24 91.9067 69.08 91.56C69.9333 91.2 70.9133 91.02 72.02 91.02C72.74 91.02 73.4467 91.1 74.14 91.26C74.8333 91.4067 75.46 91.62 76.02 91.9L75.22 93.7C74.7533 93.4867 74.2467 93.3 73.7 93.14C73.1667 92.9667 72.6 92.88 72 92.88ZM80.4363 94.36C80.4363 94.6933 80.4229 95.0267 80.3963 95.36C80.3696 95.6933 80.3429 95.9667 80.3163 96.18H80.4563C80.6829 95.8067 80.9629 95.5 81.2963 95.26C81.6429 95.02 82.0229 94.84 82.4363 94.72C82.8629 94.6 83.2963 94.54 83.7363 94.54C84.5896 94.54 85.3029 94.68 85.8763 94.96C86.4629 95.2267 86.9029 95.6533 87.1963 96.24C87.5029 96.8133 87.6563 97.56 87.6563 98.48V105.5H85.5563V98.78C85.5563 97.94 85.3763 97.3133 85.0163 96.9C84.6696 96.4733 84.1096 96.26 83.3363 96.26C82.6029 96.26 82.0229 96.4067 81.5963 96.7C81.1829 96.9933 80.8829 97.4267 80.6963 98C80.5229 98.56 80.4363 99.2533 80.4363 100.08V105.5H78.3163V90.3H80.4363V94.36ZM100.414 100.1C100.414 100.993 100.294 101.787 100.054 102.48C99.8139 103.173 99.4739 103.76 99.0339 104.24C98.5939 104.72 98.0606 105.087 97.4339 105.34C96.8072 105.58 96.1006 105.7 95.3139 105.7C94.5939 105.7 93.9272 105.58 93.3139 105.34C92.7006 105.087 92.1672 104.72 91.7139 104.24C91.2739 103.76 90.9272 103.173 90.6739 102.48C90.4206 101.787 90.2939 100.987 90.2939 100.08C90.2939 98.8933 90.4939 97.8867 90.8939 97.06C91.3072 96.2333 91.8939 95.6067 92.6539 95.18C93.4272 94.74 94.3339 94.52 95.3739 94.52C96.3606 94.52 97.2272 94.74 97.9739 95.18C98.7339 95.6067 99.3272 96.2333 99.7539 97.06C100.194 97.8867 100.414 98.9 100.414 100.1ZM92.4739 100.1C92.4739 100.9 92.5739 101.593 92.7739 102.18C92.9739 102.753 93.2872 103.193 93.7139 103.5C94.1406 103.807 94.6872 103.96 95.3539 103.96C96.0206 103.96 96.5672 103.807 96.9939 103.5C97.4206 103.193 97.7339 102.753 97.9339 102.18C98.1339 101.593 98.2339 100.9 98.2339 100.1C98.2339 99.2733 98.1272 98.58 97.9139 98.02C97.7139 97.46 97.4006 97.0333 96.9739 96.74C96.5606 96.4333 96.0139 96.28 95.3339 96.28C94.3339 96.28 93.6072 96.6133 93.1539 97.28C92.7006 97.9467 92.4739 98.8867 92.4739 100.1ZM105.221 94.72V105.5H103.101V94.72H105.221ZM104.181 90.62C104.501 90.62 104.781 90.7133 105.021 90.9C105.261 91.0867 105.381 91.4 105.381 91.84C105.381 92.2667 105.261 92.58 105.021 92.78C104.781 92.9667 104.501 93.06 104.181 93.06C103.835 93.06 103.541 92.9667 103.301 92.78C103.075 92.58 102.961 92.2667 102.961 91.84C102.961 91.4 103.075 91.0867 103.301 90.9C103.541 90.7133 103.835 90.62 104.181 90.62ZM115.711 102.46C115.711 103.167 115.537 103.76 115.191 104.24C114.844 104.72 114.344 105.087 113.691 105.34C113.037 105.58 112.251 105.7 111.331 105.7C110.571 105.7 109.917 105.64 109.371 105.52C108.837 105.413 108.344 105.253 107.891 105.04V103.18C108.371 103.407 108.924 103.613 109.551 103.8C110.177 103.973 110.791 104.06 111.391 104.06C112.191 104.06 112.764 103.933 113.111 103.68C113.471 103.427 113.651 103.087 113.651 102.66C113.651 102.42 113.584 102.207 113.451 102.02C113.317 101.82 113.064 101.62 112.691 101.42C112.331 101.207 111.797 100.967 111.091 100.7C110.411 100.42 109.831 100.147 109.351 99.88C108.871 99.6 108.504 99.2733 108.251 98.9C107.997 98.5133 107.871 98.02 107.871 97.42C107.871 96.4867 108.244 95.7733 108.991 95.28C109.751 94.7733 110.751 94.52 111.991 94.52C112.644 94.52 113.257 94.5867 113.831 94.72C114.417 94.84 114.984 95.0267 115.531 95.28L114.831 96.9C114.524 96.7533 114.204 96.6333 113.871 96.54C113.551 96.4333 113.224 96.3467 112.891 96.28C112.571 96.2133 112.237 96.18 111.891 96.18C111.251 96.18 110.764 96.28 110.431 96.48C110.097 96.68 109.931 96.96 109.931 97.32C109.931 97.5733 110.004 97.7933 110.151 97.98C110.311 98.1667 110.584 98.3533 110.971 98.54C111.357 98.7267 111.884 98.9533 112.551 99.22C113.217 99.4733 113.784 99.7333 114.251 100C114.731 100.267 115.091 100.593 115.331 100.98C115.584 101.367 115.711 101.86 115.711 102.46ZM120.358 94.72V105.5H118.238V94.72H120.358ZM119.318 90.62C119.638 90.62 119.918 90.7133 120.158 90.9C120.398 91.0867 120.518 91.4 120.518 91.84C120.518 92.2667 120.398 92.58 120.158 92.78C119.918 92.9667 119.638 93.06 119.318 93.06C118.971 93.06 118.678 92.9667 118.438 92.78C118.211 92.58 118.098 92.2667 118.098 91.84C118.098 91.4 118.211 91.0867 118.438 90.9C118.678 90.7133 118.971 90.62 119.318 90.62ZM129.007 94.52C129.194 94.52 129.401 94.5333 129.627 94.56C129.854 94.5733 130.041 94.5933 130.187 94.62L129.967 96.6C129.821 96.56 129.647 96.5267 129.447 96.5C129.247 96.4733 129.061 96.46 128.887 96.46C128.487 96.46 128.101 96.54 127.727 96.7C127.367 96.8467 127.041 97.0667 126.747 97.36C126.454 97.64 126.221 97.9867 126.047 98.4C125.887 98.8133 125.807 99.2867 125.807 99.82V105.5H123.687V94.72H125.367L125.647 96.64H125.727C125.954 96.2533 126.227 95.9 126.547 95.58C126.867 95.26 127.234 95.0067 127.647 94.82C128.061 94.62 128.514 94.52 129.007 94.52ZM146.659 94.72V105.5H144.959L144.659 104.08H144.559C144.332 104.453 144.039 104.76 143.679 105C143.319 105.24 142.925 105.413 142.499 105.52C142.072 105.64 141.632 105.7 141.179 105.7C140.339 105.7 139.625 105.567 139.039 105.3C138.465 105.02 138.025 104.593 137.719 104.02C137.425 103.433 137.279 102.687 137.279 101.78V94.72H139.419V101.46C139.419 102.3 139.592 102.927 139.939 103.34C140.299 103.753 140.852 103.96 141.599 103.96C142.345 103.96 142.932 103.813 143.359 103.52C143.785 103.227 144.085 102.8 144.259 102.24C144.445 101.667 144.539 100.98 144.539 100.18V94.72H146.659ZM155.436 94.52C156.69 94.52 157.65 94.8333 158.316 95.46C158.983 96.0867 159.316 97.0933 159.316 98.48V105.5H157.216V98.78C157.216 97.94 157.036 97.3133 156.676 96.9C156.33 96.4733 155.77 96.26 154.996 96.26C153.903 96.26 153.143 96.5867 152.716 97.24C152.303 97.8933 152.096 98.8333 152.096 100.06V105.5H149.976V94.72H151.656L151.956 96.16H152.076C152.316 95.7867 152.61 95.48 152.956 95.24C153.303 95 153.69 94.82 154.116 94.7C154.543 94.58 154.983 94.52 155.436 94.52ZM173.029 96.34H170.369V105.5H168.249V96.34H166.429V95.34L168.249 94.68V94C168.249 93.08 168.389 92.3467 168.669 91.8C168.963 91.24 169.376 90.8333 169.909 90.58C170.443 90.3267 171.089 90.2 171.849 90.2C172.316 90.2 172.743 90.24 173.129 90.32C173.516 90.4 173.843 90.4867 174.109 90.58L173.569 92.2C173.356 92.1333 173.109 92.0733 172.829 92.02C172.549 91.9533 172.256 91.92 171.949 91.92C171.416 91.92 171.016 92.0933 170.749 92.44C170.496 92.7867 170.369 93.3133 170.369 94.02V94.72H173.029V96.34ZM177.029 94.72V105.5H174.909V94.72H177.029ZM175.989 90.62C176.309 90.62 176.589 90.7133 176.829 90.9C177.069 91.0867 177.189 91.4 177.189 91.84C177.189 92.2667 177.069 92.58 176.829 92.78C176.589 92.9667 176.309 93.06 175.989 93.06C175.643 93.06 175.349 92.9667 175.109 92.78C174.883 92.58 174.769 92.2667 174.769 91.84C174.769 91.4 174.883 91.0867 175.109 90.9C175.349 90.7133 175.643 90.62 175.989 90.62ZM184.688 105.7C183.701 105.7 182.834 105.507 182.088 105.12C181.341 104.733 180.761 104.133 180.348 103.32C179.934 102.493 179.728 101.447 179.728 100.18C179.728 98.8467 179.948 97.7667 180.388 96.94C180.841 96.1133 181.448 95.5067 182.208 95.12C182.981 94.72 183.861 94.52 184.848 94.52C185.448 94.52 186.008 94.5867 186.528 94.72C187.061 94.84 187.501 94.98 187.848 95.14L187.208 96.86C186.834 96.7133 186.434 96.5867 186.008 96.48C185.594 96.3733 185.201 96.32 184.828 96.32C184.161 96.32 183.608 96.4667 183.168 96.76C182.741 97.04 182.421 97.4667 182.208 98.04C182.008 98.6 181.908 99.3067 181.908 100.16C181.908 100.973 182.014 101.66 182.228 102.22C182.441 102.78 182.754 103.207 183.168 103.5C183.594 103.78 184.121 103.92 184.748 103.92C185.348 103.92 185.874 103.853 186.328 103.72C186.781 103.587 187.208 103.413 187.608 103.2V105.04C187.221 105.267 186.801 105.433 186.348 105.54C185.894 105.647 185.341 105.7 184.688 105.7ZM192.272 94.36C192.272 94.6933 192.259 95.0267 192.232 95.36C192.206 95.6933 192.179 95.9667 192.152 96.18H192.292C192.519 95.8067 192.799 95.5 193.132 95.26C193.479 95.02 193.859 94.84 194.272 94.72C194.699 94.6 195.132 94.54 195.572 94.54C196.426 94.54 197.139 94.68 197.712 94.96C198.299 95.2267 198.739 95.6533 199.032 96.24C199.339 96.8133 199.492 97.56 199.492 98.48V105.5H197.392V98.78C197.392 97.94 197.212 97.3133 196.852 96.9C196.506 96.4733 195.946 96.26 195.172 96.26C194.439 96.26 193.859 96.4067 193.432 96.7C193.019 96.9933 192.719 97.4267 192.532 98C192.359 98.56 192.272 99.2533 192.272 100.08V105.5H190.152V90.3H192.272V94.36ZM204.87 94.72V105.5H202.75V94.72H204.87ZM203.83 90.62C204.15 90.62 204.43 90.7133 204.67 90.9C204.91 91.0867 205.03 91.4 205.03 91.84C205.03 92.2667 204.91 92.58 204.67 92.78C204.43 92.9667 204.15 93.06 203.83 93.06C203.483 93.06 203.19 92.9667 202.95 92.78C202.723 92.58 202.61 92.2667 202.61 91.84C202.61 91.4 202.723 91.0867 202.95 90.9C203.19 90.7133 203.483 90.62 203.83 90.62ZM212.439 94.52C213.386 94.52 214.199 94.72 214.879 95.12C215.559 95.5067 216.079 96.0667 216.439 96.8C216.812 97.5333 216.999 98.4 216.999 99.4V100.56H209.759C209.786 101.667 210.072 102.513 210.619 103.1C211.179 103.687 211.959 103.98 212.959 103.98C213.652 103.98 214.266 103.92 214.799 103.8C215.346 103.667 215.906 103.473 216.479 103.22V104.98C215.946 105.22 215.399 105.4 214.839 105.52C214.292 105.64 213.639 105.7 212.879 105.7C211.839 105.7 210.919 105.493 210.119 105.08C209.319 104.667 208.692 104.053 208.239 103.24C207.799 102.413 207.579 101.4 207.579 100.2C207.579 98.9867 207.779 97.96 208.179 97.12C208.592 96.28 209.159 95.64 209.879 95.2C210.612 94.7467 211.466 94.52 212.439 94.52ZM212.439 96.16C211.679 96.16 211.066 96.4067 210.599 96.9C210.146 97.3933 209.879 98.0933 209.799 99H214.879C214.879 98.44 214.792 97.9467 214.619 97.52C214.446 97.0933 214.179 96.76 213.819 96.52C213.459 96.28 212.999 96.16 212.439 96.16ZM224.964 94.52C225.151 94.52 225.358 94.5333 225.584 94.56C225.811 94.5733 225.998 94.5933 226.144 94.62L225.924 96.6C225.778 96.56 225.604 96.5267 225.404 96.5C225.204 96.4733 225.018 96.46 224.844 96.46C224.444 96.46 224.058 96.54 223.684 96.7C223.324 96.8467 222.998 97.0667 222.704 97.36C222.411 97.64 222.178 97.9867 222.004 98.4C221.844 98.8133 221.764 99.2867 221.764 99.82V105.5H219.644V94.72H221.324L221.604 96.64H221.684C221.911 96.2533 222.184 95.9 222.504 95.58C222.824 95.26 223.191 95.0067 223.604 94.82C224.018 94.62 224.471 94.52 224.964 94.52Z" fill="#2B4380"/>
<rect x="53" y="136.5" width="478" height="74" stroke="#7D828B" stroke-width="2"/>
<path d="M74.04 181.5H71.9V167.22H79.94V169.06H74.04V173.72H79.56V175.56H74.04V181.5ZM84.3464 170.72V181.5H82.2264V170.72H84.3464ZM83.3064 166.62C83.6264 166.62 83.9064 166.713 84.1464 166.9C84.3864 167.087 84.5064 167.4 84.5064 167.84C84.5064 168.267 84.3864 168.58 84.1464 168.78C83.9064 168.967 83.6264 169.06 83.3064 169.06C82.9597 169.06 82.6664 168.967 82.4264 168.78C82.1997 168.58 82.0864 168.267 82.0864 167.84C82.0864 167.4 82.1997 167.087 82.4264 166.9C82.6664 166.713 82.9597 166.62 83.3064 166.62ZM92.0156 181.7C91.029 181.7 90.1623 181.507 89.4156 181.12C88.669 180.733 88.089 180.133 87.6756 179.32C87.2623 178.493 87.0556 177.447 87.0556 176.18C87.0556 174.847 87.2756 173.767 87.7156 172.94C88.169 172.113 88.7756 171.507 89.5356 171.12C90.309 170.72 91.189 170.52 92.1756 170.52C92.7756 170.52 93.3356 170.587 93.8556 170.72C94.389 170.84 94.829 170.98 95.1756 171.14L94.5356 172.86C94.1623 172.713 93.7623 172.587 93.3356 172.48C92.9223 172.373 92.529 172.32 92.1556 172.32C91.489 172.32 90.9356 172.467 90.4956 172.76C90.069 173.04 89.749 173.467 89.5356 174.04C89.3356 174.6 89.2356 175.307 89.2356 176.16C89.2356 176.973 89.3423 177.66 89.5556 178.22C89.769 178.78 90.0823 179.207 90.4956 179.5C90.9223 179.78 91.449 179.92 92.0756 179.92C92.6756 179.92 93.2023 179.853 93.6556 179.72C94.109 179.587 94.5356 179.413 94.9356 179.2V181.04C94.549 181.267 94.129 181.433 93.6756 181.54C93.2223 181.647 92.669 181.7 92.0156 181.7ZM99.6003 170.36C99.6003 170.693 99.587 171.027 99.5603 171.36C99.5336 171.693 99.507 171.967 99.4803 172.18H99.6203C99.847 171.807 100.127 171.5 100.46 171.26C100.807 171.02 101.187 170.84 101.6 170.72C102.027 170.6 102.46 170.54 102.9 170.54C103.754 170.54 104.467 170.68 105.04 170.96C105.627 171.227 106.067 171.653 106.36 172.24C106.667 172.813 106.82 173.56 106.82 174.48V181.5H104.72V174.78C104.72 173.94 104.54 173.313 104.18 172.9C103.834 172.473 103.274 172.26 102.5 172.26C101.767 172.26 101.187 172.407 100.76 172.7C100.347 172.993 100.047 173.427 99.8603 174C99.687 174.56 99.6003 175.253 99.6003 176.08V181.5H97.4803V166.3H99.6003V170.36ZM112.198 170.72V181.5H110.078V170.72H112.198ZM111.158 166.62C111.478 166.62 111.758 166.713 111.998 166.9C112.238 167.087 112.358 167.4 112.358 167.84C112.358 168.267 112.238 168.58 111.998 168.78C111.758 168.967 111.478 169.06 111.158 169.06C110.811 169.06 110.518 168.967 110.278 168.78C110.051 168.58 109.938 168.267 109.938 167.84C109.938 167.4 110.051 167.087 110.278 166.9C110.518 166.713 110.811 166.62 111.158 166.62ZM119.767 170.52C120.714 170.52 121.527 170.72 122.207 171.12C122.887 171.507 123.407 172.067 123.767 172.8C124.141 173.533 124.327 174.4 124.327 175.4V176.56H117.087C117.114 177.667 117.401 178.513 117.947 179.1C118.507 179.687 119.287 179.98 120.287 179.98C120.981 179.98 121.594 179.92 122.127 179.8C122.674 179.667 123.234 179.473 123.807 179.22V180.98C123.274 181.22 122.727 181.4 122.167 181.52C121.621 181.64 120.967 181.7 120.207 181.7C119.167 181.7 118.247 181.493 117.447 181.08C116.647 180.667 116.021 180.053 115.567 179.24C115.127 178.413 114.907 177.4 114.907 176.2C114.907 174.987 115.107 173.96 115.507 173.12C115.921 172.28 116.487 171.64 117.207 171.2C117.941 170.747 118.794 170.52 119.767 170.52ZM119.767 172.16C119.007 172.16 118.394 172.407 117.927 172.9C117.474 173.393 117.207 174.093 117.127 175H122.207C122.207 174.44 122.121 173.947 121.947 173.52C121.774 173.093 121.507 172.76 121.147 172.52C120.787 172.28 120.327 172.16 119.767 172.16ZM132.293 170.52C132.479 170.52 132.686 170.533 132.913 170.56C133.139 170.573 133.326 170.593 133.473 170.62L133.253 172.6C133.106 172.56 132.933 172.527 132.733 172.5C132.533 172.473 132.346 172.46 132.173 172.46C131.773 172.46 131.386 172.54 131.013 172.7C130.653 172.847 130.326 173.067 130.033 173.36C129.739 173.64 129.506 173.987 129.333 174.4C129.173 174.813 129.093 175.287 129.093 175.82V181.5H126.973V170.72H128.653L128.933 172.64H129.013C129.239 172.253 129.513 171.9 129.833 171.58C130.153 171.26 130.519 171.007 130.933 170.82C131.346 170.62 131.799 170.52 132.293 170.52ZM142.529 184.6H133.769V183.3H142.529V184.6ZM148.48 181.7C147.494 181.7 146.627 181.507 145.88 181.12C145.134 180.733 144.554 180.133 144.14 179.32C143.727 178.493 143.52 177.447 143.52 176.18C143.52 174.847 143.74 173.767 144.18 172.94C144.634 172.113 145.24 171.507 146 171.12C146.774 170.72 147.654 170.52 148.64 170.52C149.24 170.52 149.8 170.587 150.32 170.72C150.854 170.84 151.294 170.98 151.64 171.14L151 172.86C150.627 172.713 150.227 172.587 149.8 172.48C149.387 172.373 148.994 172.32 148.62 172.32C147.954 172.32 147.4 172.467 146.96 172.76C146.534 173.04 146.214 173.467 146 174.04C145.8 174.6 145.7 175.307 145.7 176.16C145.7 176.973 145.807 177.66 146.02 178.22C146.234 178.78 146.547 179.207 146.96 179.5C147.387 179.78 147.914 179.92 148.54 179.92C149.14 179.92 149.667 179.853 150.12 179.72C150.574 179.587 151 179.413 151.4 179.2V181.04C151.014 181.267 150.594 181.433 150.14 181.54C149.687 181.647 149.134 181.7 148.48 181.7ZM156.065 170.36C156.065 170.693 156.052 171.027 156.025 171.36C155.998 171.693 155.972 171.967 155.945 172.18H156.085C156.312 171.807 156.592 171.5 156.925 171.26C157.272 171.02 157.652 170.84 158.065 170.72C158.492 170.6 158.925 170.54 159.365 170.54C160.218 170.54 160.932 170.68 161.505 170.96C162.092 171.227 162.532 171.653 162.825 172.24C163.132 172.813 163.285 173.56 163.285 174.48V181.5H161.185V174.78C161.185 173.94 161.005 173.313 160.645 172.9C160.298 172.473 159.738 172.26 158.965 172.26C158.232 172.26 157.652 172.407 157.225 172.7C156.812 172.993 156.512 173.427 156.325 174C156.152 174.56 156.065 175.253 156.065 176.08V181.5H153.945V166.3H156.065V170.36ZM176.043 176.1C176.043 176.993 175.923 177.787 175.683 178.48C175.443 179.173 175.103 179.76 174.663 180.24C174.223 180.72 173.689 181.087 173.063 181.34C172.436 181.58 171.729 181.7 170.943 181.7C170.223 181.7 169.556 181.58 168.943 181.34C168.329 181.087 167.796 180.72 167.343 180.24C166.903 179.76 166.556 179.173 166.303 178.48C166.049 177.787 165.923 176.987 165.923 176.08C165.923 174.893 166.123 173.887 166.523 173.06C166.936 172.233 167.523 171.607 168.283 171.18C169.056 170.74 169.963 170.52 171.003 170.52C171.989 170.52 172.856 170.74 173.603 171.18C174.363 171.607 174.956 172.233 175.383 173.06C175.823 173.887 176.043 174.9 176.043 176.1ZM168.103 176.1C168.103 176.9 168.203 177.593 168.403 178.18C168.603 178.753 168.916 179.193 169.343 179.5C169.769 179.807 170.316 179.96 170.983 179.96C171.649 179.96 172.196 179.807 172.623 179.5C173.049 179.193 173.363 178.753 173.563 178.18C173.763 177.593 173.863 176.9 173.863 176.1C173.863 175.273 173.756 174.58 173.543 174.02C173.343 173.46 173.029 173.033 172.603 172.74C172.189 172.433 171.643 172.28 170.963 172.28C169.963 172.28 169.236 172.613 168.783 173.28C168.329 173.947 168.103 174.887 168.103 176.1ZM180.85 170.72V181.5H178.73V170.72H180.85ZM179.81 166.62C180.13 166.62 180.41 166.713 180.65 166.9C180.89 167.087 181.01 167.4 181.01 167.84C181.01 168.267 180.89 168.58 180.65 168.78C180.41 168.967 180.13 169.06 179.81 169.06C179.464 169.06 179.17 168.967 178.93 168.78C178.704 168.58 178.59 168.267 178.59 167.84C178.59 167.4 178.704 167.087 178.93 166.9C179.17 166.713 179.464 166.62 179.81 166.62ZM191.34 178.46C191.34 179.167 191.166 179.76 190.82 180.24C190.473 180.72 189.973 181.087 189.32 181.34C188.666 181.58 187.88 181.7 186.96 181.7C186.2 181.7 185.546 181.64 185 181.52C184.466 181.413 183.973 181.253 183.52 181.04V179.18C184 179.407 184.553 179.613 185.18 179.8C185.806 179.973 186.42 180.06 187.02 180.06C187.82 180.06 188.393 179.933 188.74 179.68C189.1 179.427 189.28 179.087 189.28 178.66C189.28 178.42 189.213 178.207 189.08 178.02C188.946 177.82 188.693 177.62 188.32 177.42C187.96 177.207 187.426 176.967 186.72 176.7C186.04 176.42 185.46 176.147 184.98 175.88C184.5 175.6 184.133 175.273 183.88 174.9C183.626 174.513 183.5 174.02 183.5 173.42C183.5 172.487 183.873 171.773 184.62 171.28C185.38 170.773 186.38 170.52 187.62 170.52C188.273 170.52 188.886 170.587 189.46 170.72C190.046 170.84 190.613 171.027 191.16 171.28L190.46 172.9C190.153 172.753 189.833 172.633 189.5 172.54C189.18 172.433 188.853 172.347 188.52 172.28C188.2 172.213 187.866 172.18 187.52 172.18C186.88 172.18 186.393 172.28 186.06 172.48C185.726 172.68 185.56 172.96 185.56 173.32C185.56 173.573 185.633 173.793 185.78 173.98C185.94 174.167 186.213 174.353 186.6 174.54C186.986 174.727 187.513 174.953 188.18 175.22C188.846 175.473 189.413 175.733 189.88 176C190.36 176.267 190.72 176.593 190.96 176.98C191.213 177.367 191.34 177.86 191.34 178.46ZM195.987 170.72V181.5H193.867V170.72H195.987ZM194.947 166.62C195.267 166.62 195.547 166.713 195.787 166.9C196.027 167.087 196.147 167.4 196.147 167.84C196.147 168.267 196.027 168.58 195.787 168.78C195.547 168.967 195.267 169.06 194.947 169.06C194.6 169.06 194.307 168.967 194.067 168.78C193.84 168.58 193.727 168.267 193.727 167.84C193.727 167.4 193.84 167.087 194.067 166.9C194.307 166.713 194.6 166.62 194.947 166.62ZM199.016 180.32C199.016 179.8 199.15 179.433 199.416 179.22C199.683 179.007 200.003 178.9 200.376 178.9C200.763 178.9 201.09 179.007 201.356 179.22C201.623 179.433 201.756 179.8 201.756 180.32C201.756 180.84 201.623 181.213 201.356 181.44C201.09 181.667 200.763 181.78 200.376 181.78C200.003 181.78 199.683 181.667 199.416 181.44C199.15 181.213 199.016 180.84 199.016 180.32ZM210.165 170.52C211.458 170.52 212.498 170.987 213.285 171.92C214.085 172.853 214.485 174.247 214.485 176.1C214.485 177.313 214.305 178.34 213.945 179.18C213.585 180.02 213.078 180.653 212.425 181.08C211.772 181.493 211.012 181.7 210.145 181.7C209.598 181.7 209.118 181.633 208.705 181.5C208.292 181.353 207.938 181.167 207.645 180.94C207.365 180.7 207.118 180.447 206.905 180.18H206.765C206.805 180.42 206.838 180.707 206.865 181.04C206.892 181.36 206.905 181.647 206.905 181.9V186.3H204.785V170.72H206.505L206.805 172.16H206.905C207.118 171.867 207.372 171.593 207.665 171.34C207.958 171.087 208.312 170.887 208.725 170.74C209.138 170.593 209.618 170.52 210.165 170.52ZM209.665 172.26C208.998 172.26 208.465 172.393 208.065 172.66C207.665 172.913 207.372 173.3 207.185 173.82C207.012 174.327 206.918 174.973 206.905 175.76V176.08C206.905 176.907 206.992 177.613 207.165 178.2C207.338 178.773 207.625 179.213 208.025 179.52C208.438 179.813 208.998 179.96 209.705 179.96C210.305 179.96 210.792 179.8 211.165 179.48C211.552 179.147 211.838 178.687 212.025 178.1C212.212 177.513 212.305 176.833 212.305 176.06C212.305 174.887 212.092 173.96 211.665 173.28C211.238 172.6 210.572 172.26 209.665 172.26ZM220.887 181.7C219.594 181.7 218.547 181.233 217.747 180.3C216.961 179.367 216.567 177.98 216.567 176.14C216.567 174.287 216.967 172.887 217.767 171.94C218.567 170.993 219.621 170.52 220.927 170.52C221.474 170.52 221.947 170.593 222.347 170.74C222.761 170.873 223.114 171.06 223.407 171.3C223.714 171.54 223.974 171.807 224.187 172.1H224.307C224.281 171.913 224.247 171.647 224.207 171.3C224.167 170.94 224.147 170.62 224.147 170.34V166.3H226.267V181.5H224.607L224.247 180.06H224.147C223.947 180.367 223.694 180.647 223.387 180.9C223.094 181.14 222.741 181.333 222.327 181.48C221.914 181.627 221.434 181.7 220.887 181.7ZM221.387 179.96C222.427 179.96 223.161 179.673 223.587 179.1C224.014 178.513 224.227 177.64 224.227 176.48V176.16C224.227 174.893 224.021 173.927 223.607 173.26C223.207 172.593 222.461 172.26 221.367 172.26C220.501 172.26 219.847 172.613 219.407 173.32C218.967 174.013 218.747 174.967 218.747 176.18C218.747 177.393 218.967 178.327 219.407 178.98C219.847 179.633 220.507 179.96 221.387 179.96ZM234.85 172.34H232.19V181.5H230.07V172.34H228.25V171.34L230.07 170.68V170C230.07 169.08 230.21 168.347 230.49 167.8C230.783 167.24 231.196 166.833 231.73 166.58C232.263 166.327 232.91 166.2 233.67 166.2C234.136 166.2 234.563 166.24 234.95 166.32C235.336 166.4 235.663 166.487 235.93 166.58L235.39 168.2C235.176 168.133 234.93 168.073 234.65 168.02C234.37 167.953 234.076 167.92 233.77 167.92C233.236 167.92 232.836 168.093 232.57 168.44C232.316 168.787 232.19 169.313 232.19 170.02V170.72H234.85V172.34Z" fill="#333333"/>
<path d="M395.1 177.64C395.1 178.493 394.893 179.22 394.48 179.82C394.067 180.42 393.473 180.887 392.7 181.22C391.927 181.54 391.007 181.7 389.94 181.7C389.42 181.7 388.92 181.667 388.44 181.6C387.96 181.547 387.513 181.467 387.1 181.36C386.687 181.253 386.32 181.12 386 180.96V178.92C386.533 179.16 387.16 179.38 387.88 179.58C388.6 179.767 389.333 179.86 390.08 179.86C390.72 179.86 391.253 179.773 391.68 179.6C392.107 179.427 392.427 179.187 392.64 178.88C392.853 178.573 392.96 178.213 392.96 177.8C392.96 177.36 392.847 176.993 392.62 176.7C392.407 176.393 392.067 176.113 391.6 175.86C391.147 175.593 390.533 175.313 389.76 175.02C389.227 174.82 388.74 174.6 388.3 174.36C387.873 174.107 387.493 173.813 387.16 173.48C386.84 173.147 386.593 172.76 386.42 172.32C386.247 171.88 386.16 171.367 386.16 170.78C386.16 169.993 386.353 169.32 386.74 168.76C387.14 168.2 387.687 167.773 388.38 167.48C389.073 167.173 389.88 167.02 390.8 167.02C391.573 167.02 392.287 167.1 392.94 167.26C393.607 167.407 394.24 167.613 394.84 167.88L394.16 169.66C393.613 169.433 393.06 169.247 392.5 169.1C391.94 168.953 391.353 168.88 390.74 168.88C390.207 168.88 389.76 168.96 389.4 169.12C389.04 169.28 388.767 169.5 388.58 169.78C388.407 170.06 388.32 170.387 388.32 170.76C388.32 171.2 388.42 171.567 388.62 171.86C388.82 172.153 389.14 172.427 389.58 172.68C390.02 172.92 390.6 173.187 391.32 173.48C392.12 173.787 392.8 174.12 393.36 174.48C393.933 174.84 394.367 175.273 394.66 175.78C394.953 176.273 395.1 176.893 395.1 177.64ZM406.936 170.72V181.5H405.236L404.936 180.08H404.836C404.609 180.453 404.316 180.76 403.956 181C403.596 181.24 403.203 181.413 402.776 181.52C402.349 181.64 401.909 181.7 401.456 181.7C400.616 181.7 399.903 181.567 399.316 181.3C398.743 181.02 398.303 180.593 397.996 180.02C397.703 179.433 397.556 178.687 397.556 177.78V170.72H399.696V177.46C399.696 178.3 399.869 178.927 400.216 179.34C400.576 179.753 401.129 179.96 401.876 179.96C402.623 179.96 403.209 179.813 403.636 179.52C404.063 179.227 404.363 178.8 404.536 178.24C404.723 177.667 404.816 176.98 404.816 176.18V170.72H406.936ZM415.634 170.52C416.927 170.52 417.967 170.987 418.754 171.92C419.554 172.853 419.954 174.247 419.954 176.1C419.954 177.313 419.774 178.34 419.414 179.18C419.054 180.02 418.547 180.653 417.894 181.08C417.24 181.493 416.48 181.7 415.614 181.7C415.067 181.7 414.587 181.633 414.174 181.5C413.76 181.353 413.407 181.167 413.114 180.94C412.834 180.7 412.587 180.447 412.374 180.18H412.234C412.274 180.42 412.307 180.707 412.334 181.04C412.36 181.36 412.374 181.647 412.374 181.9V186.3H410.254V170.72H411.974L412.274 172.16H412.374C412.587 171.867 412.84 171.593 413.134 171.34C413.427 171.087 413.78 170.887 414.194 170.74C414.607 170.593 415.087 170.52 415.634 170.52ZM415.134 172.26C414.467 172.26 413.934 172.393 413.534 172.66C413.134 172.913 412.84 173.3 412.654 173.82C412.48 174.327 412.387 174.973 412.374 175.76V176.08C412.374 176.907 412.46 177.613 412.634 178.2C412.807 178.773 413.094 179.213 413.494 179.52C413.907 179.813 414.467 179.96 415.174 179.96C415.774 179.96 416.26 179.8 416.634 179.48C417.02 179.147 417.307 178.687 417.494 178.1C417.68 177.513 417.774 176.833 417.774 176.06C417.774 174.887 417.56 173.96 417.134 173.28C416.707 172.6 416.04 172.26 415.134 172.26ZM428.036 170.52C429.329 170.52 430.369 170.987 431.156 171.92C431.956 172.853 432.356 174.247 432.356 176.1C432.356 177.313 432.176 178.34 431.816 179.18C431.456 180.02 430.949 180.653 430.296 181.08C429.643 181.493 428.883 181.7 428.016 181.7C427.469 181.7 426.989 181.633 426.576 181.5C426.163 181.353 425.809 181.167 425.516 180.94C425.236 180.7 424.989 180.447 424.776 180.18H424.636C424.676 180.42 424.709 180.707 424.736 181.04C424.763 181.36 424.776 181.647 424.776 181.9V186.3H422.656V170.72H424.376L424.676 172.16H424.776C424.989 171.867 425.243 171.593 425.536 171.34C425.829 171.087 426.183 170.887 426.596 170.74C427.009 170.593 427.489 170.52 428.036 170.52ZM427.536 172.26C426.869 172.26 426.336 172.393 425.936 172.66C425.536 172.913 425.243 173.3 425.056 173.82C424.883 174.327 424.789 174.973 424.776 175.76V176.08C424.776 176.907 424.863 177.613 425.036 178.2C425.209 178.773 425.496 179.213 425.896 179.52C426.309 179.813 426.869 179.96 427.576 179.96C428.176 179.96 428.663 179.8 429.036 179.48C429.423 179.147 429.709 178.687 429.896 178.1C430.083 177.513 430.176 176.833 430.176 176.06C430.176 174.887 429.963 173.96 429.536 173.28C429.109 172.6 428.443 172.26 427.536 172.26ZM440.378 170.52C440.565 170.52 440.772 170.533 440.998 170.56C441.225 170.573 441.412 170.593 441.558 170.62L441.338 172.6C441.192 172.56 441.018 172.527 440.818 172.5C440.618 172.473 440.432 172.46 440.258 172.46C439.858 172.46 439.472 172.54 439.098 172.7C438.738 172.847 438.412 173.067 438.118 173.36C437.825 173.64 437.592 173.987 437.418 174.4C437.258 174.813 437.178 175.287 437.178 175.82V181.5H435.058V170.72H436.738L437.018 172.64H437.098C437.325 172.253 437.598 171.9 437.918 171.58C438.238 171.26 438.605 171.007 439.018 170.82C439.432 170.62 439.885 170.52 440.378 170.52ZM445.675 170.72V181.5H443.555V170.72H445.675ZM444.635 166.62C444.955 166.62 445.235 166.713 445.475 166.9C445.715 167.087 445.835 167.4 445.835 167.84C445.835 168.267 445.715 168.58 445.475 168.78C445.235 168.967 444.955 169.06 444.635 169.06C444.288 169.06 443.995 168.967 443.755 168.78C443.528 168.58 443.415 168.267 443.415 167.84C443.415 167.4 443.528 167.087 443.755 166.9C443.995 166.713 444.288 166.62 444.635 166.62ZM461.084 170.52C462.297 170.52 463.21 170.833 463.824 171.46C464.437 172.087 464.744 173.093 464.744 174.48V181.5H462.624V174.76C462.624 173.933 462.457 173.313 462.124 172.9C461.804 172.473 461.297 172.26 460.604 172.26C459.644 172.26 458.957 172.56 458.544 173.16C458.13 173.747 457.924 174.6 457.924 175.72V181.5H455.824V174.76C455.824 174.213 455.744 173.753 455.584 173.38C455.437 173.007 455.217 172.727 454.924 172.54C454.63 172.353 454.25 172.26 453.784 172.26C453.117 172.26 452.59 172.407 452.204 172.7C451.817 172.993 451.537 173.427 451.364 174C451.204 174.56 451.124 175.247 451.124 176.06V181.5H449.004V170.72H450.684L450.984 172.16H451.104C451.33 171.787 451.604 171.48 451.924 171.24C452.257 171 452.624 170.82 453.024 170.7C453.424 170.58 453.837 170.52 454.264 170.52C455.077 170.52 455.764 170.667 456.324 170.96C456.884 171.24 457.29 171.673 457.544 172.26H457.704C458.05 171.66 458.53 171.22 459.144 170.94C459.757 170.66 460.404 170.52 461.084 170.52ZM472.228 170.52C473.175 170.52 473.988 170.72 474.668 171.12C475.348 171.507 475.868 172.067 476.228 172.8C476.601 173.533 476.788 174.4 476.788 175.4V176.56H469.548C469.575 177.667 469.861 178.513 470.408 179.1C470.968 179.687 471.748 179.98 472.748 179.98C473.441 179.98 474.055 179.92 474.588 179.8C475.135 179.667 475.695 179.473 476.268 179.22V180.98C475.735 181.22 475.188 181.4 474.628 181.52C474.081 181.64 473.428 181.7 472.668 181.7C471.628 181.7 470.708 181.493 469.908 181.08C469.108 180.667 468.481 180.053 468.028 179.24C467.588 178.413 467.368 177.4 467.368 176.2C467.368 174.987 467.568 173.96 467.968 173.12C468.381 172.28 468.948 171.64 469.668 171.2C470.401 170.747 471.255 170.52 472.228 170.52ZM472.228 172.16C471.468 172.16 470.855 172.407 470.388 172.9C469.935 173.393 469.668 174.093 469.588 175H474.668C474.668 174.44 474.581 173.947 474.408 173.52C474.235 173.093 473.968 172.76 473.608 172.52C473.248 172.28 472.788 172.16 472.228 172.16ZM484.753 170.52C484.94 170.52 485.147 170.533 485.373 170.56C485.6 170.573 485.787 170.593 485.933 170.62L485.713 172.6C485.567 172.56 485.393 172.527 485.193 172.5C484.993 172.473 484.807 172.46 484.633 172.46C484.233 172.46 483.847 172.54 483.473 172.7C483.113 172.847 482.787 173.067 482.493 173.36C482.2 173.64 481.967 173.987 481.793 174.4C481.633 174.813 481.553 175.287 481.553 175.82V181.5H479.433V170.72H481.113L481.393 172.64H481.473C481.7 172.253 481.973 171.9 482.293 171.58C482.613 171.26 482.98 171.007 483.393 170.82C483.807 170.62 484.26 170.52 484.753 170.52Z" fill="#A62A1E"/>
<path d="M385 184H409.25V185H385V184ZM413.375 184H421.656V185H413.375V184ZM425.773 184H486.273V185H425.773V184Z" fill="#A62A1E"/>
<path fill-rule="evenodd" clip-rule="evenodd" d="M500.124 173.5L494 167.376L495.376 166L501.5 172.124L507.624 166L509 167.376L502.876 173.5L509 179.624L507.624 181L501.5 174.876L495.376 181L494 179.624L500.124 173.5Z" fill="#A62A1E"/>
<g clip-path="url(#clip0_7143_7581)">
<rect y="21" width="48" height="1" fill="#C54600"/>
<g clip-path="url(#clip1_7143_7581)">
<rect y="9" width="24" height="24" rx="12" fill="#C54600"/>
<path d="M13.1825 16.2727V25H12.1257V17.3807H12.0746L9.94389 18.7955V17.7216L12.1257 16.2727H13.1825Z" fill="white"/>
</g>
</g>
<g clip-path="url(#clip2_7143_7581)">
<rect y="51" width="48" height="1" fill="#C54600"/>
<g clip-path="url(#clip3_7143_7581)">
<rect y="39" width="24" height="24" rx="12" fill="#C54600"/>
<path d="M9.2706 55V54.233L12.1513 51.0795C12.4893 50.7102 12.7678 50.3892 12.9865 50.1165C13.2053 49.8409 13.3672 49.5824 13.4723 49.3409C13.5803 49.0966 13.6342 48.8409 13.6342 48.5739C13.6342 48.267 13.5604 48.0014 13.4126 47.777C13.2678 47.5526 13.0689 47.3793 12.8161 47.2571C12.5632 47.1349 12.2791 47.0739 11.9638 47.0739C11.6286 47.0739 11.3359 47.1435 11.0859 47.2827C10.8388 47.419 10.647 47.6108 10.5107 47.858C10.3771 48.1051 10.3104 48.3949 10.3104 48.7273H9.30469C9.30469 48.2159 9.42259 47.767 9.65838 47.3807C9.89418 46.9943 10.2152 46.6932 10.6214 46.4773C11.0305 46.2614 11.4893 46.1534 11.9979 46.1534C12.5092 46.1534 12.9624 46.2614 13.3572 46.4773C13.7521 46.6932 14.0618 46.9844 14.2862 47.3509C14.5107 47.7173 14.6229 48.125 14.6229 48.5739C14.6229 48.8949 14.5646 49.2088 14.4482 49.5156C14.3345 49.8196 14.1357 50.1591 13.8516 50.5341C13.5703 50.9062 13.1797 51.3608 12.6797 51.8977L10.7195 53.9943V54.0625H14.7763V55H9.2706Z" fill="white"/>
</g>
</g>
<g clip-path="url(#clip4_7143_7581)">
<rect y="99" width="48" height="1" fill="#C54600"/>
<g clip-path="url(#clip5_7143_7581)">
<rect y="87" width="24" height="24" rx="12" fill="#C54600"/>
<path d="M12.032 103.119C11.4695 103.119 10.968 103.023 10.5277 102.83C10.0902 102.636 9.74219 102.368 9.48366 102.024C9.22798 101.678 9.08878 101.276 9.06605 100.818H10.1399C10.1626 101.099 10.2592 101.342 10.4297 101.547C10.6001 101.749 10.8232 101.905 11.0987 102.016C11.3743 102.126 11.6797 102.182 12.0149 102.182C12.3899 102.182 12.7223 102.116 13.0121 101.986C13.3018 101.855 13.5291 101.673 13.6939 101.44C13.8587 101.207 13.9411 100.938 13.9411 100.631C13.9411 100.31 13.8615 100.027 13.7024 99.7827C13.5433 99.5355 13.3104 99.3423 13.0036 99.2031C12.6967 99.0639 12.3217 98.9943 11.8786 98.9943H11.1797V98.0568H11.8786C12.2251 98.0568 12.5291 97.9943 12.7905 97.8693C13.0547 97.7443 13.2607 97.5682 13.4084 97.3409C13.5589 97.1136 13.6342 96.8466 13.6342 96.5398C13.6342 96.2443 13.5689 95.9872 13.4382 95.7685C13.3075 95.5497 13.1229 95.3793 12.8842 95.2571C12.6484 95.1349 12.37 95.0739 12.049 95.0739C11.7479 95.0739 11.4638 95.1293 11.1967 95.2401C10.9325 95.348 10.7166 95.5057 10.549 95.7131C10.3814 95.9176 10.2905 96.1648 10.2763 96.4545H9.25355C9.2706 95.9972 9.40838 95.5966 9.6669 95.2528C9.92543 94.9062 10.2635 94.6364 10.6811 94.4432C11.1016 94.25 11.5632 94.1534 12.0661 94.1534C12.6058 94.1534 13.0689 94.2628 13.4553 94.4815C13.8416 94.6974 14.1385 94.983 14.3459 95.3381C14.5533 95.6932 14.657 96.0767 14.657 96.4886C14.657 96.9801 14.5277 97.3991 14.2692 97.7457C14.0135 98.0923 13.6655 98.3324 13.2251 98.4659V98.5341C13.7763 98.625 14.2067 98.8594 14.5163 99.2372C14.826 99.6122 14.9808 100.077 14.9808 100.631C14.9808 101.105 14.8516 101.531 14.593 101.909C14.3374 102.284 13.9879 102.58 13.5447 102.795C13.1016 103.011 12.5973 103.119 12.032 103.119Z" fill="white"/>
</g>
</g>
<g clip-path="url(#clip6_7143_7581)">
<rect y="175" width="48" height="1" fill="#C54600"/>
<g clip-path="url(#clip7_7143_7581)">
<rect y="163" width="24" height="24" rx="12" fill="#C54600"/>
<path d="M8.84925 177.21V176.341L12.6845 170.273H13.3152V171.619H12.889L9.9913 176.205V176.273H15.1561V177.21H8.84925ZM12.9572 179V176.946V176.541V170.273H13.9629V179H12.9572Z" fill="white"/>
</g>
</g>
<g clip-path="url(#clip8_7143_7581)">
<rect x="509" y="173" width="90" height="1" fill="#C54600"/>
<g clip-path="url(#clip9_7143_7581)">
<rect x="575" y="161" width="24" height="24" rx="12" fill="#C54600"/>
<path d="M587.057 177.119C586.699 177.114 586.341 177.045 585.983 176.915C585.625 176.784 585.298 176.564 585.003 176.254C584.708 175.942 584.47 175.52 584.291 174.989C584.112 174.455 584.023 173.784 584.023 172.977C584.023 172.205 584.095 171.52 584.24 170.923C584.385 170.324 584.595 169.82 584.871 169.411C585.146 168.999 585.479 168.686 585.868 168.473C586.26 168.26 586.702 168.153 587.193 168.153C587.682 168.153 588.117 168.251 588.497 168.447C588.881 168.641 589.193 168.911 589.435 169.257C589.676 169.604 589.833 170.003 589.904 170.455H588.864C588.767 170.062 588.58 169.737 588.301 169.479C588.023 169.22 587.654 169.091 587.193 169.091C586.517 169.091 585.985 169.385 585.595 169.973C585.209 170.561 585.014 171.386 585.012 172.449H585.08C585.239 172.207 585.428 172.001 585.646 171.831C585.868 171.658 586.112 171.524 586.379 171.43C586.646 171.337 586.929 171.29 587.227 171.29C587.727 171.29 588.185 171.415 588.6 171.665C589.014 171.912 589.347 172.254 589.597 172.692C589.847 173.126 589.972 173.625 589.972 174.188C589.972 174.727 589.851 175.222 589.61 175.67C589.368 176.116 589.029 176.472 588.591 176.736C588.156 176.997 587.645 177.125 587.057 177.119ZM587.057 176.182C587.415 176.182 587.736 176.092 588.02 175.913C588.307 175.734 588.533 175.494 588.698 175.193C588.865 174.892 588.949 174.557 588.949 174.188C588.949 173.827 588.868 173.499 588.706 173.203C588.547 172.905 588.327 172.668 588.046 172.491C587.767 172.315 587.449 172.227 587.091 172.227C586.821 172.227 586.57 172.281 586.337 172.389C586.104 172.494 585.899 172.639 585.723 172.824C585.55 173.009 585.414 173.22 585.314 173.459C585.215 173.695 585.165 173.943 585.165 174.205C585.165 174.551 585.246 174.875 585.408 175.176C585.573 175.477 585.797 175.72 586.081 175.905C586.368 176.089 586.693 176.182 587.057 176.182Z" fill="white"/>
</g>
</g>
<g clip-path="url(#clip10_7143_7581)">
<g clip-path="url(#clip11_7143_7581)">
<rect x="129" y="225.8" width="24" height="24" rx="12" fill="#C54600"/>
<path d="M140.98 241.919C140.48 241.919 140.03 241.82 139.629 241.621C139.229 241.422 138.908 241.149 138.666 240.803C138.425 240.456 138.293 240.061 138.27 239.618H139.293C139.333 240.013 139.512 240.34 139.83 240.598C140.151 240.854 140.534 240.982 140.98 240.982C141.338 240.982 141.656 240.898 141.935 240.73C142.216 240.563 142.436 240.333 142.595 240.04C142.757 239.745 142.838 239.411 142.838 239.039C142.838 238.658 142.754 238.319 142.587 238.02C142.422 237.719 142.195 237.482 141.905 237.309C141.615 237.135 141.284 237.047 140.912 237.044C140.645 237.042 140.371 237.083 140.09 237.168C139.808 237.25 139.577 237.357 139.395 237.488L138.406 237.368L138.935 233.073H143.469V234.01H139.821L139.514 236.584H139.566C139.744 236.442 139.969 236.324 140.239 236.23C140.509 236.137 140.79 236.09 141.083 236.09C141.617 236.09 142.093 236.218 142.51 236.473C142.931 236.726 143.26 237.073 143.499 237.513C143.74 237.953 143.861 238.456 143.861 239.022C143.861 239.578 143.736 240.076 143.486 240.513C143.239 240.948 142.898 241.292 142.463 241.544C142.029 241.794 141.534 241.919 140.98 241.919Z" fill="white"/>
</g>
</g>
<rect width="1" height="31" transform="matrix(1 0 0 -1 141 226)" fill="#C54600"/>
<defs>
<clipPath id="clip0_7143_7581">
<rect width="48" height="24" fill="white" transform="translate(0 9)"/>
</clipPath>
<clipPath id="clip1_7143_7581">
<rect y="9" width="24" height="24" rx="12" fill="white"/>
</clipPath>
<clipPath id="clip2_7143_7581">
<rect width="48" height="24" fill="white" transform="translate(0 39)"/>
</clipPath>
<clipPath id="clip3_7143_7581">
<rect y="39" width="24" height="24" rx="12" fill="white"/>
</clipPath>
<clipPath id="clip4_7143_7581">
<rect width="48" height="24" fill="white" transform="translate(0 87)"/>
</clipPath>
<clipPath id="clip5_7143_7581">
<rect y="87" width="24" height="24" rx="12" fill="white"/>
</clipPath>
<clipPath id="clip6_7143_7581">
<rect width="48" height="24" fill="white" transform="translate(0 163)"/>
</clipPath>
<clipPath id="clip7_7143_7581">
<rect y="163" width="24" height="24" rx="12" fill="white"/>
</clipPath>
<clipPath id="clip8_7143_7581">
<rect width="90" height="24" fill="white" transform="translate(514 161)"/>
</clipPath>
<clipPath id="clip9_7143_7581">
<rect x="575" y="161" width="24" height="24" rx="12" fill="white"/>
</clipPath>
<clipPath id="clip10_7143_7581">
<rect width="24" height="24" fill="white" transform="translate(129 226)"/>
</clipPath>
<clipPath id="clip11_7143_7581">
<rect x="129" y="225.8" width="24" height="24" rx="12" fill="white"/>
</clipPath>
</defs>
</svg>
