<svg width="400" height="300" viewBox="0 0 400 300" fill="none" xmlns="http://www.w3.org/2000/svg">
<rect width="400" height="300" fill="#F1F2F3"/>
<rect x="54" y="80" width="100" height="20" rx="10" fill="#A8ADB4" fill-opacity="0.75"/>
<rect x="54" y="148" width="100" height="20" rx="10" fill="#A8ADB4" fill-opacity="0.75"/>
<rect x="203" y="148" width="48" height="20" rx="10" fill="#A8ADB4" fill-opacity="0.75"/>
<rect x="273" y="148" width="54" height="20" rx="10" fill="#A8ADB4" fill-opacity="0.75"/>
<rect x="54" y="110" width="176" height="16" rx="8" fill="#A8ADB4" fill-opacity="0.75"/>
<rect x="56" y="178" width="133" height="40" rx="8" fill="white"/>
<rect x="56" y="178" width="133" height="40" rx="8" stroke="#A8ADB4" stroke-width="4"/>
<rect x="205" y="178" width="54" height="40" rx="8" fill="white"/>
<rect x="205" y="178" width="54" height="40" rx="8" stroke="#A8ADB4" stroke-width="4"/>
<rect x="275" y="178" width="70" height="40" rx="8" fill="white"/>
<rect x="275" y="178" width="70" height="40" rx="8" stroke="#A8ADB4" stroke-width="4"/>
<path d="M169.732 205C168.962 206.333 167.038 206.333 166.268 205L160.206 194.5C159.436 193.167 160.398 191.5 161.938 191.5L174.062 191.5C175.602 191.5 176.564 193.167 175.794 194.5L169.732 205Z" fill="#A8ADB4"/>
<rect x="66" y="190" width="83" height="16" rx="8" fill="#A8ADB4" fill-opacity="0.75"/>
</svg>
