<svg width="222" height="178" viewBox="0 0 222 178" fill="none" xmlns="http://www.w3.org/2000/svg">
<path d="M0.8 19.42V17.86H5.64V19.42H0.8ZM7.24531 19.42V17.86H12.0853V19.42H7.24531Z" fill="black"/>
<mask id="path-2-inside-1_8579_33859" fill="white">
<path d="M16 0H66V33H16V0Z"/>
</mask>
<path d="M16 0H66V33H16V0Z" fill="#D6D9DD"/>
<path d="M24.5 13.08C25.2067 13.08 25.84 13.2133 26.4 13.48C26.9733 13.7467 27.46 14.1533 27.86 14.7H27.96L28.2 13.28H29.6V24.18C29.6 25.7133 29.2067 26.8667 28.42 27.64C27.6467 28.4133 26.44 28.8 24.8 28.8C23.2267 28.8 21.94 28.5733 20.94 28.12V26.5C21.9933 27.06 23.3133 27.34 24.9 27.34C25.82 27.34 26.54 27.0667 27.06 26.52C27.5933 25.9867 27.86 25.2533 27.86 24.32V23.9C27.86 23.74 27.8667 23.5133 27.88 23.22C27.8933 22.9133 27.9067 22.7 27.92 22.58H27.84C27.12 23.66 26.0133 24.2 24.52 24.2C23.1333 24.2 22.0467 23.7133 21.26 22.74C20.4867 21.7667 20.1 20.4067 20.1 18.66C20.1 16.9533 20.4867 15.6 21.26 14.6C22.0467 13.5867 23.1267 13.08 24.5 13.08ZM24.74 14.56C23.8467 14.56 23.1533 14.92 22.66 15.64C22.1667 16.3467 21.92 17.36 21.92 18.68C21.92 20 22.16 21.0133 22.64 21.72C23.1333 22.4133 23.8467 22.76 24.78 22.76C25.86 22.76 26.6467 22.4733 27.14 21.9C27.6333 21.3133 27.88 20.3733 27.88 19.08V18.66C27.88 17.1933 27.6267 16.1467 27.12 15.52C26.6133 14.88 25.82 14.56 24.74 14.56ZM37.3047 24.2C36.358 24.2 35.5114 24.0067 34.7647 23.62C34.0314 23.2333 33.4514 22.6333 33.0247 21.82C32.6114 21.0067 32.4047 19.9667 32.4047 18.7C32.4047 17.38 32.6247 16.3067 33.0647 15.48C33.5047 14.6533 34.098 14.0467 34.8447 13.66C35.6047 13.2733 36.4647 13.08 37.4247 13.08C37.9714 13.08 38.498 13.14 39.0047 13.26C39.5114 13.3667 39.9247 13.5 40.2447 13.66L39.7047 15.12C39.3847 15 39.0114 14.8867 38.5847 14.78C38.158 14.6733 37.758 14.62 37.3847 14.62C35.278 14.62 34.2247 15.9733 34.2247 18.68C34.2247 19.9733 34.478 20.9667 34.9847 21.66C35.5047 22.34 36.2714 22.68 37.2847 22.68C37.8714 22.68 38.3847 22.62 38.8247 22.5C39.278 22.38 39.6914 22.2333 40.0647 22.06V23.62C39.7047 23.8067 39.3047 23.9467 38.8647 24.04C38.438 24.1467 37.918 24.2 37.3047 24.2ZM46.4141 24.2C45.0807 24.2 44.0141 23.74 43.2141 22.82C42.4141 21.8867 42.0141 20.5 42.0141 18.66C42.0141 16.82 42.4141 15.4333 43.2141 14.5C44.0274 13.5533 45.1007 13.08 46.4341 13.08C47.2607 13.08 47.9341 13.2333 48.4541 13.54C48.9874 13.8467 49.4207 14.22 49.7541 14.66H49.8741C49.8607 14.4867 49.8341 14.2333 49.7941 13.9C49.7674 13.5533 49.7541 13.28 49.7541 13.08V8.8H51.5141V24H50.0941L49.8341 22.56H49.7541C49.4341 23.0133 49.0074 23.4 48.4741 23.72C47.9407 24.04 47.2541 24.2 46.4141 24.2ZM46.6941 22.74C47.8274 22.74 48.6207 22.4333 49.0741 21.82C49.5407 21.1933 49.7741 20.2533 49.7741 19V18.68C49.7741 17.3467 49.5541 16.3267 49.1141 15.62C48.6741 14.9 47.8607 14.54 46.6741 14.54C45.7274 14.54 45.0141 14.92 44.5341 15.68C44.0674 16.4267 43.8341 17.4333 43.8341 18.7C43.8341 19.98 44.0674 20.9733 44.5341 21.68C45.0141 22.3867 45.7341 22.74 46.6941 22.74ZM61.8988 21.04C61.8988 22.08 61.5121 22.8667 60.7388 23.4C59.9654 23.9333 58.9254 24.2 57.6188 24.2C56.8721 24.2 56.2254 24.14 55.6788 24.02C55.1454 23.9 54.6721 23.7333 54.2588 23.52V21.92C54.6854 22.1333 55.1988 22.3333 55.7988 22.52C56.4121 22.6933 57.0321 22.78 57.6588 22.78C58.5521 22.78 59.1988 22.64 59.5988 22.36C59.9988 22.0667 60.1988 21.68 60.1988 21.2C60.1988 20.9333 60.1254 20.6933 59.9788 20.48C59.8321 20.2667 59.5654 20.0533 59.1788 19.84C58.8054 19.6267 58.2654 19.3867 57.5588 19.12C56.8654 18.8533 56.2721 18.5867 55.7788 18.32C55.2854 18.0533 54.9054 17.7333 54.6388 17.36C54.3721 16.9867 54.2388 16.5067 54.2388 15.92C54.2388 15.0133 54.6054 14.3133 55.3388 13.82C56.0854 13.3267 57.0588 13.08 58.2588 13.08C58.9121 13.08 59.5188 13.1467 60.0788 13.28C60.6521 13.4 61.1854 13.5733 61.6788 13.8L61.0788 15.2C60.6254 15.0133 60.1521 14.8533 59.6588 14.72C59.1654 14.5867 58.6588 14.52 58.1388 14.52C57.4188 14.52 56.8654 14.64 56.4788 14.88C56.1054 15.1067 55.9188 15.42 55.9188 15.82C55.9188 16.1133 56.0054 16.3667 56.1788 16.58C56.3521 16.78 56.6388 16.98 57.0388 17.18C57.4521 17.3667 57.9988 17.5933 58.6788 17.86C59.3588 18.1133 59.9388 18.3733 60.4188 18.64C60.8988 18.9067 61.2654 19.2333 61.5188 19.62C61.7721 19.9933 61.8988 20.4667 61.8988 21.04Z" fill="black"/>
<path d="M66 31H16V35H66V31Z" fill="#7D828B" mask="url(#path-2-inside-1_8579_33859)"/>
<path d="M69.8 19.42V17.86H74.64V19.42H69.8Z" fill="black"/>
<mask id="path-6-inside-2_8579_33859" fill="white">
<path d="M79 0H136V33H79V0Z"/>
</mask>
<path d="M79 0H136V33H79V0Z" fill="#E6F6EC"/>
<path d="M88.64 14.64H85.94V24H84.18V14.64H82.3V13.82L84.18 13.22V12.6C84.18 11.2133 84.4867 10.22 85.1 9.62C85.7133 9.00667 86.5667 8.7 87.66 8.7C88.0867 8.7 88.4733 8.74 88.82 8.82C89.18 8.88667 89.4867 8.96667 89.74 9.06L89.28 10.44C89.0667 10.3733 88.82 10.3067 88.54 10.24C88.26 10.1733 87.9733 10.14 87.68 10.14C87.0933 10.14 86.6533 10.34 86.36 10.74C86.08 11.1267 85.94 11.74 85.94 12.58V13.28H88.64V14.64ZM99.895 18.62C99.895 20.3933 99.4417 21.7667 98.535 22.74C97.6417 23.7133 96.4283 24.2 94.895 24.2C93.9483 24.2 93.1017 23.9867 92.355 23.56C91.6217 23.12 91.0417 22.4867 90.615 21.66C90.1883 20.82 89.975 19.8067 89.975 18.62C89.975 16.8467 90.4217 15.48 91.315 14.52C92.2083 13.56 93.4217 13.08 94.955 13.08C95.9283 13.08 96.7817 13.3 97.515 13.74C98.2617 14.1667 98.8417 14.7933 99.255 15.62C99.6817 16.4333 99.895 17.4333 99.895 18.62ZM91.795 18.62C91.795 19.8867 92.0417 20.8933 92.535 21.64C93.0417 22.3733 93.8417 22.74 94.935 22.74C96.015 22.74 96.8083 22.3733 97.315 21.64C97.8217 20.8933 98.075 19.8867 98.075 18.62C98.075 17.3533 97.8217 16.36 97.315 15.64C96.8083 14.92 96.0083 14.56 94.915 14.56C93.8217 14.56 93.0283 14.92 92.535 15.64C92.0417 16.36 91.795 17.3533 91.795 18.62ZM106.984 24.2C106.038 24.2 105.191 24.0067 104.444 23.62C103.711 23.2333 103.131 22.6333 102.704 21.82C102.291 21.0067 102.084 19.9667 102.084 18.7C102.084 17.38 102.304 16.3067 102.744 15.48C103.184 14.6533 103.778 14.0467 104.524 13.66C105.284 13.2733 106.144 13.08 107.104 13.08C107.651 13.08 108.178 13.14 108.684 13.26C109.191 13.3667 109.604 13.5 109.924 13.66L109.384 15.12C109.064 15 108.691 14.8867 108.264 14.78C107.838 14.6733 107.438 14.62 107.064 14.62C104.958 14.62 103.904 15.9733 103.904 18.68C103.904 19.9733 104.158 20.9667 104.664 21.66C105.184 22.34 105.951 22.68 106.964 22.68C107.551 22.68 108.064 22.62 108.504 22.5C108.958 22.38 109.371 22.2333 109.744 22.06V23.62C109.384 23.8067 108.984 23.9467 108.544 24.04C108.118 24.1467 107.598 24.2 106.984 24.2ZM121.254 13.28V24H119.814L119.554 22.58H119.474C119.127 23.14 118.647 23.5533 118.034 23.82C117.42 24.0733 116.767 24.2 116.074 24.2C114.78 24.2 113.807 23.8933 113.154 23.28C112.5 22.6533 112.174 21.66 112.174 20.3V13.28H113.954V20.18C113.954 21.8867 114.747 22.74 116.334 22.74C117.52 22.74 118.34 22.4067 118.794 21.74C119.26 21.0733 119.494 20.1133 119.494 18.86V13.28H121.254ZM131.637 21.04C131.637 22.08 131.25 22.8667 130.477 23.4C129.704 23.9333 128.664 24.2 127.357 24.2C126.61 24.2 125.964 24.14 125.417 24.02C124.884 23.9 124.41 23.7333 123.997 23.52V21.92C124.424 22.1333 124.937 22.3333 125.537 22.52C126.15 22.6933 126.77 22.78 127.397 22.78C128.29 22.78 128.937 22.64 129.337 22.36C129.737 22.0667 129.937 21.68 129.937 21.2C129.937 20.9333 129.864 20.6933 129.717 20.48C129.57 20.2667 129.304 20.0533 128.917 19.84C128.544 19.6267 128.004 19.3867 127.297 19.12C126.604 18.8533 126.01 18.5867 125.517 18.32C125.024 18.0533 124.644 17.7333 124.377 17.36C124.11 16.9867 123.977 16.5067 123.977 15.92C123.977 15.0133 124.344 14.3133 125.077 13.82C125.824 13.3267 126.797 13.08 127.997 13.08C128.65 13.08 129.257 13.1467 129.817 13.28C130.39 13.4 130.924 13.5733 131.417 13.8L130.817 15.2C130.364 15.0133 129.89 14.8533 129.397 14.72C128.904 14.5867 128.397 14.52 127.877 14.52C127.157 14.52 126.604 14.64 126.217 14.88C125.844 15.1067 125.657 15.42 125.657 15.82C125.657 16.1133 125.744 16.3667 125.917 16.58C126.09 16.78 126.377 16.98 126.777 17.18C127.19 17.3667 127.737 17.5933 128.417 17.86C129.097 18.1133 129.677 18.3733 130.157 18.64C130.637 18.9067 131.004 19.2333 131.257 19.62C131.51 19.9933 131.637 20.4667 131.637 21.04Z" fill="black"/>
<path d="M136 31H79V35H136V31Z" fill="#289F58" mask="url(#path-6-inside-2_8579_33859)"/>
<path d="M139.8 19.42V17.86H144.64V19.42H139.8Z" fill="black"/>
<mask id="path-10-inside-3_8579_33859" fill="white">
<path d="M149 0H191V33H149V0Z"/>
</mask>
<path d="M149 0H191V33H149V0Z" fill="#FAEDD1"/>
<path d="M157.28 22.76C157.547 22.76 157.82 22.74 158.1 22.7C158.38 22.6467 158.607 22.5933 158.78 22.54V23.88C158.593 23.9733 158.327 24.0467 157.98 24.1C157.633 24.1667 157.3 24.2 156.98 24.2C156.42 24.2 155.9 24.1067 155.42 23.92C154.953 23.72 154.573 23.38 154.28 22.9C153.987 22.42 153.84 21.7467 153.84 20.88V14.64H152.32V13.8L153.86 13.1L154.56 10.82H155.6V13.28H158.7V14.64H155.6V20.84C155.6 21.4933 155.753 21.98 156.06 22.3C156.38 22.6067 156.787 22.76 157.28 22.76ZM165.067 13.08C165.987 13.08 166.773 13.28 167.427 13.68C168.093 14.08 168.6 14.6467 168.947 15.38C169.307 16.1 169.487 16.9467 169.487 17.92V18.98H162.147C162.173 20.1933 162.48 21.12 163.067 21.76C163.667 22.3867 164.5 22.7 165.567 22.7C166.247 22.7 166.847 22.64 167.367 22.52C167.9 22.3867 168.447 22.2 169.007 21.96V23.5C168.46 23.74 167.92 23.9133 167.387 24.02C166.853 24.14 166.22 24.2 165.487 24.2C164.473 24.2 163.573 23.9933 162.787 23.58C162.013 23.1667 161.407 22.5533 160.967 21.74C160.54 20.9133 160.327 19.9067 160.327 18.72C160.327 17.5467 160.52 16.54 160.907 15.7C161.307 14.86 161.86 14.2133 162.567 13.76C163.287 13.3067 164.12 13.08 165.067 13.08ZM165.047 14.52C164.207 14.52 163.54 14.7933 163.047 15.34C162.567 15.8733 162.28 16.62 162.187 17.58H167.647C167.633 16.6733 167.42 15.94 167.007 15.38C166.593 14.8067 165.94 14.52 165.047 14.52ZM174.365 18.52L170.665 13.28H172.665L175.425 17.32L178.165 13.28H180.145L176.445 18.52L180.345 24H178.345L175.425 19.72L172.465 24H170.485L174.365 18.52ZM185.991 22.76C186.258 22.76 186.531 22.74 186.811 22.7C187.091 22.6467 187.318 22.5933 187.491 22.54V23.88C187.304 23.9733 187.038 24.0467 186.691 24.1C186.344 24.1667 186.011 24.2 185.691 24.2C185.131 24.2 184.611 24.1067 184.131 23.92C183.664 23.72 183.284 23.38 182.991 22.9C182.698 22.42 182.551 21.7467 182.551 20.88V14.64H181.031V13.8L182.571 13.1L183.271 10.82H184.311V13.28H187.411V14.64H184.311V20.84C184.311 21.4933 184.464 21.98 184.771 22.3C185.091 22.6067 185.498 22.76 185.991 22.76Z" fill="black"/>
<path d="M191 31H149V35H191V31Z" fill="#B3800F" mask="url(#path-10-inside-3_8579_33859)"/>
<g filter="url(#filter0_d_8579_33859)">
<path d="M170.5 33V52" stroke="#B3800F" stroke-width="2"/>
</g>
<path d="M139.825 68.3194C141.483 68.3194 142.691 68.645 143.448 69.2962C144.206 69.9474 144.585 70.865 144.585 72.049C144.585 72.7475 144.425 73.4046 144.105 74.0203C143.798 74.6242 143.271 75.1155 142.525 75.4944C141.791 75.8733 140.79 76.0627 139.523 76.0627H138.067V81H136.469V68.3194H139.825ZM139.683 69.6869H138.067V74.6952H139.346C140.553 74.6952 141.453 74.4998 142.045 74.1091C142.637 73.7184 142.933 73.0554 142.933 72.12C142.933 71.303 142.673 70.6933 142.152 70.2907C141.631 69.8882 140.808 69.6869 139.683 69.6869ZM151.449 71.303C151.626 71.303 151.816 71.3149 152.017 71.3386C152.23 71.3504 152.414 71.3741 152.568 71.4096L152.372 72.8482C152.218 72.8126 152.047 72.783 151.857 72.7594C151.68 72.7357 151.508 72.7238 151.342 72.7238C150.857 72.7238 150.401 72.86 149.975 73.1323C149.548 73.3928 149.205 73.7658 148.944 74.2512C148.696 74.7248 148.572 75.2813 148.572 75.9206V81H147.009V71.4806H148.287L148.465 73.2211H148.536C148.844 72.7002 149.24 72.2502 149.726 71.8714C150.211 71.4925 150.786 71.303 151.449 71.303ZM162.274 76.2226C162.274 77.7973 161.872 79.0168 161.067 79.8811C160.273 80.7454 159.196 81.1776 157.834 81.1776C156.994 81.1776 156.242 80.9882 155.579 80.6093C154.928 80.2186 154.413 79.6562 154.034 78.9221C153.655 78.1762 153.465 77.2763 153.465 76.2226C153.465 74.6478 153.862 73.4342 154.655 72.5818C155.449 71.7293 156.526 71.303 157.888 71.303C158.752 71.303 159.51 71.4984 160.161 71.8891C160.824 72.268 161.339 72.8245 161.706 73.5586C162.085 74.2808 162.274 75.1688 162.274 76.2226ZM155.082 76.2226C155.082 77.3474 155.301 78.2413 155.739 78.9043C156.189 79.5555 156.899 79.8811 157.87 79.8811C158.829 79.8811 159.533 79.5555 159.983 78.9043C160.433 78.2413 160.658 77.3474 160.658 76.2226C160.658 75.0978 160.433 74.2157 159.983 73.5763C159.533 72.937 158.823 72.6173 157.852 72.6173C156.881 72.6173 156.177 72.937 155.739 73.5763C155.301 74.2157 155.082 75.0978 155.082 76.2226ZM169.28 71.303C170.452 71.303 171.394 71.7115 172.104 72.5285C172.826 73.3454 173.187 74.5768 173.187 76.2226C173.187 77.8446 172.826 79.076 172.104 79.9166C171.394 80.7573 170.446 81.1776 169.262 81.1776C168.528 81.1776 167.919 81.0414 167.433 80.7691C166.959 80.485 166.587 80.1594 166.314 79.7923H166.208C166.231 79.9936 166.255 80.2482 166.279 80.556C166.302 80.8638 166.314 81.1302 166.314 81.3552V85.2624H164.751V71.4806H166.03L166.243 72.7771H166.314C166.598 72.3627 166.971 72.0134 167.433 71.7293C167.895 71.4451 168.511 71.303 169.28 71.303ZM168.996 72.6173C168.025 72.6173 167.338 72.8896 166.936 73.4342C166.545 73.9789 166.338 74.8077 166.314 75.9206V76.2226C166.314 77.3947 166.504 78.3005 166.883 78.9398C167.273 79.5674 167.99 79.8811 169.031 79.8811C169.612 79.8811 170.085 79.7213 170.452 79.4016C170.831 79.0819 171.109 78.6498 171.287 78.1051C171.476 77.5486 171.571 76.9152 171.571 76.2048C171.571 75.1155 171.358 74.2453 170.932 73.5941C170.517 72.9429 169.872 72.6173 168.996 72.6173ZM179.354 71.303C180.171 71.303 180.87 71.4806 181.45 71.8358C182.042 72.191 182.492 72.6942 182.8 73.3454C183.119 73.9848 183.279 74.7366 183.279 75.601V76.5422H176.761C176.785 77.6197 177.057 78.4426 177.578 79.0109C178.111 79.5674 178.851 79.8456 179.798 79.8456C180.402 79.8456 180.935 79.7923 181.397 79.6858C181.87 79.5674 182.356 79.4016 182.853 79.1885V80.556C182.367 80.7691 181.888 80.923 181.414 81.0178C180.941 81.1243 180.378 81.1776 179.727 81.1776C178.827 81.1776 178.028 80.9941 177.33 80.627C176.643 80.26 176.104 79.7154 175.713 78.9931C175.335 78.259 175.145 77.3651 175.145 76.3114C175.145 75.2694 175.317 74.3755 175.66 73.6296C176.015 72.8837 176.507 72.3094 177.134 71.9069C177.774 71.5043 178.514 71.303 179.354 71.303ZM179.336 72.5818C178.591 72.5818 177.999 72.8245 177.56 73.3099C177.134 73.7835 176.88 74.4466 176.797 75.299H181.645C181.633 74.4939 181.444 73.8427 181.077 73.3454C180.71 72.8363 180.13 72.5818 179.336 72.5818ZM190.143 71.303C190.32 71.303 190.51 71.3149 190.711 71.3386C190.924 71.3504 191.108 71.3741 191.261 71.4096L191.066 72.8482C190.912 72.8126 190.74 72.783 190.551 72.7594C190.373 72.7357 190.202 72.7238 190.036 72.7238C189.551 72.7238 189.095 72.86 188.668 73.1323C188.242 73.3928 187.899 73.7658 187.638 74.2512C187.39 74.7248 187.265 75.2813 187.265 75.9206V81H185.703V71.4806H186.981L187.159 73.2211H187.23C187.538 72.7002 187.934 72.2502 188.42 71.8714C188.905 71.4925 189.48 71.303 190.143 71.303ZM196.218 79.8989C196.455 79.8989 196.698 79.8811 196.946 79.8456C197.195 79.7982 197.396 79.7509 197.55 79.7035V80.8934C197.384 80.9763 197.147 81.0414 196.84 81.0888C196.532 81.148 196.236 81.1776 195.952 81.1776C195.454 81.1776 194.993 81.0947 194.566 80.929C194.152 80.7514 193.814 80.4494 193.554 80.0232C193.294 79.597 193.163 78.999 193.163 78.2294V72.6883H191.814V71.9424L193.181 71.3208L193.803 69.2962H194.726V71.4806H197.479V72.6883H194.726V78.1939C194.726 78.7741 194.862 79.2062 195.135 79.4904C195.419 79.7627 195.78 79.8989 196.218 79.8989ZM197.964 71.4806H199.634L201.694 76.8974C201.872 77.371 202.031 77.8269 202.173 78.265C202.316 78.6912 202.422 79.0997 202.493 79.4904H202.564C202.635 79.1944 202.748 78.8096 202.902 78.336C203.056 77.8506 203.215 77.3651 203.381 76.8797L205.317 71.4806H207.004L202.902 82.3142C202.57 83.2141 202.138 83.9304 201.605 84.4632C201.084 84.996 200.362 85.2624 199.438 85.2624C199.154 85.2624 198.906 85.2446 198.692 85.2091C198.479 85.1854 198.296 85.1558 198.142 85.1203V83.8771C198.272 83.9008 198.426 83.9245 198.604 83.9482C198.793 83.9718 198.988 83.9837 199.19 83.9837C199.734 83.9837 200.172 83.8298 200.504 83.5219C200.847 83.2141 201.114 82.8056 201.303 82.2965L201.8 81.0355L197.964 71.4806Z" fill="black"/>
<rect x="120" y="53" width="101" height="42" stroke="#B3800F" stroke-width="2"/>
<g filter="url(#filter1_d_8579_33859)">
<path d="M107 33V108" stroke="#289F58" stroke-width="2"/>
</g>
<path d="M76.3132 125.545C74.9516 125.545 73.8801 126.001 73.0987 126.912C72.3172 127.824 71.9265 129.073 71.9265 130.66C71.9265 132.234 72.2876 133.484 73.0099 134.407C73.7439 135.319 74.8391 135.775 76.2955 135.775C76.8519 135.775 77.3788 135.727 77.8761 135.632C78.3734 135.538 78.8588 135.419 79.3324 135.277V136.663C78.8588 136.84 78.3675 136.97 77.8583 137.053C77.3611 137.136 76.7631 137.178 76.0646 137.178C74.774 137.178 73.6966 136.911 72.8323 136.378C71.9679 135.846 71.3167 135.088 70.8787 134.105C70.4524 133.122 70.2393 131.968 70.2393 130.642C70.2393 129.363 70.4702 128.238 70.9319 127.268C71.4055 126.285 72.0982 125.521 73.0099 124.976C73.9215 124.42 75.0286 124.142 76.331 124.142C77.6689 124.142 78.8351 124.39 79.8297 124.888L79.1903 126.237C78.7996 126.06 78.3615 125.9 77.8761 125.758C77.4025 125.616 76.8815 125.545 76.3132 125.545ZM85.4922 127.321C86.6525 127.321 87.5109 127.575 88.0674 128.084C88.6239 128.594 88.9021 129.405 88.9021 130.518V137H87.7655L87.4636 135.65H87.3925C86.9781 136.171 86.5401 136.556 86.0783 136.805C85.6284 137.053 85.0009 137.178 84.1957 137.178C83.3314 137.178 82.6151 136.953 82.0468 136.503C81.4785 136.041 81.1943 135.325 81.1943 134.354C81.1943 133.407 81.5673 132.678 82.3132 132.169C83.0591 131.648 84.2076 131.364 85.7586 131.317L87.3748 131.264V130.695C87.3748 129.902 87.2031 129.351 86.8597 129.044C86.5164 128.736 86.0309 128.582 85.4034 128.582C84.9061 128.582 84.4325 128.659 83.9826 128.813C83.5327 128.955 83.1124 129.12 82.7217 129.31L82.2421 128.138C82.6565 127.913 83.1479 127.723 83.7162 127.569C84.2845 127.404 84.8765 127.321 85.4922 127.321ZM85.954 132.4C84.77 132.448 83.9471 132.637 83.4853 132.968C83.0354 133.3 82.8105 133.768 82.8105 134.372C82.8105 134.904 82.9703 135.295 83.29 135.544C83.6215 135.792 84.0418 135.917 84.5509 135.917C85.3561 135.917 86.025 135.698 86.5578 135.26C87.0906 134.81 87.357 134.123 87.357 133.199V132.347L85.954 132.4ZM95.0213 135.899C95.2581 135.899 95.5008 135.881 95.7495 135.846C95.9981 135.798 96.1994 135.751 96.3533 135.704V136.893C96.1875 136.976 95.9507 137.041 95.6429 137.089C95.3351 137.148 95.0391 137.178 94.7549 137.178C94.2576 137.178 93.7959 137.095 93.3696 136.929C92.9552 136.751 92.6178 136.449 92.3573 136.023C92.0968 135.597 91.9666 134.999 91.9666 134.229V128.688H90.6168V127.942L91.9843 127.321L92.6059 125.296H93.5295V127.481H96.2823V128.688H93.5295V134.194C93.5295 134.774 93.6656 135.206 93.9379 135.49C94.2221 135.763 94.5832 135.899 95.0213 135.899ZM101.936 127.303C102.753 127.303 103.451 127.481 104.031 127.836C104.623 128.191 105.073 128.694 105.381 129.345C105.701 129.985 105.861 130.737 105.861 131.601V132.542H99.3428C99.3665 133.62 99.6388 134.443 100.16 135.011C100.693 135.567 101.433 135.846 102.38 135.846C102.984 135.846 103.516 135.792 103.978 135.686C104.452 135.567 104.937 135.402 105.434 135.188V136.556C104.949 136.769 104.47 136.923 103.996 137.018C103.522 137.124 102.96 137.178 102.309 137.178C101.409 137.178 100.61 136.994 99.9111 136.627C99.2244 136.26 98.6857 135.715 98.295 134.993C97.9161 134.259 97.7266 133.365 97.7266 132.311C97.7266 131.269 97.8983 130.376 98.2417 129.63C98.5969 128.884 99.0882 128.309 99.7158 127.907C100.355 127.504 101.095 127.303 101.936 127.303ZM101.918 128.582C101.172 128.582 100.58 128.824 100.142 129.31C99.7158 129.784 99.4612 130.447 99.3783 131.299H104.227C104.215 130.494 104.026 129.843 103.658 129.345C103.291 128.836 102.711 128.582 101.918 128.582ZM111.659 127.303C112.286 127.303 112.848 127.421 113.346 127.658C113.855 127.895 114.287 128.256 114.642 128.742H114.731L114.944 127.481H116.187V137.16C116.187 138.521 115.838 139.546 115.139 140.232C114.453 140.919 113.381 141.262 111.925 141.262C110.528 141.262 109.385 141.061 108.497 140.659V139.22C109.433 139.717 110.605 139.966 112.014 139.966C112.831 139.966 113.47 139.723 113.932 139.238C114.405 138.764 114.642 138.113 114.642 137.284V136.911C114.642 136.769 114.648 136.568 114.66 136.307C114.672 136.035 114.684 135.846 114.695 135.739H114.624C113.985 136.698 113.002 137.178 111.676 137.178C110.445 137.178 109.48 136.745 108.781 135.881C108.095 135.017 107.751 133.809 107.751 132.258C107.751 130.743 108.095 129.541 108.781 128.653C109.48 127.753 110.439 127.303 111.659 127.303ZM111.872 128.617C111.078 128.617 110.463 128.937 110.025 129.576C109.587 130.204 109.367 131.104 109.367 132.276C109.367 133.448 109.581 134.348 110.007 134.975C110.445 135.591 111.078 135.899 111.907 135.899C112.866 135.899 113.565 135.644 114.003 135.135C114.441 134.614 114.66 133.78 114.66 132.631V132.258C114.66 130.956 114.435 130.026 113.985 129.47C113.535 128.901 112.831 128.617 111.872 128.617ZM127.487 132.223C127.487 133.797 127.084 135.017 126.279 135.881C125.486 136.745 124.408 137.178 123.047 137.178C122.206 137.178 121.454 136.988 120.791 136.609C120.14 136.219 119.625 135.656 119.246 134.922C118.867 134.176 118.678 133.276 118.678 132.223C118.678 130.648 119.075 129.434 119.868 128.582C120.661 127.729 121.739 127.303 123.1 127.303C123.964 127.303 124.722 127.498 125.373 127.889C126.036 128.268 126.551 128.824 126.919 129.559C127.297 130.281 127.487 131.169 127.487 132.223ZM120.294 132.223C120.294 133.347 120.513 134.241 120.951 134.904C121.401 135.556 122.111 135.881 123.082 135.881C124.041 135.881 124.746 135.556 125.196 134.904C125.646 134.241 125.871 133.347 125.871 132.223C125.871 131.098 125.646 130.216 125.196 129.576C124.746 128.937 124.035 128.617 123.065 128.617C122.094 128.617 121.389 128.937 120.951 129.576C120.513 130.216 120.294 131.098 120.294 132.223ZM134.404 127.303C134.581 127.303 134.771 127.315 134.972 127.339C135.185 127.35 135.369 127.374 135.523 127.41L135.327 128.848C135.173 128.813 135.002 128.783 134.812 128.759C134.635 128.736 134.463 128.724 134.297 128.724C133.812 128.724 133.356 128.86 132.93 129.132C132.503 129.393 132.16 129.766 131.9 130.251C131.651 130.725 131.527 131.281 131.527 131.921V137H129.964V127.481H131.243L131.42 129.221H131.491C131.799 128.7 132.196 128.25 132.681 127.871C133.167 127.492 133.741 127.303 134.404 127.303ZM135.808 127.481H137.478L139.538 132.897C139.716 133.371 139.875 133.827 140.018 134.265C140.16 134.691 140.266 135.1 140.337 135.49H140.408C140.479 135.194 140.592 134.81 140.746 134.336C140.9 133.851 141.059 133.365 141.225 132.88L143.161 127.481H144.848L140.746 138.314C140.414 139.214 139.982 139.93 139.449 140.463C138.928 140.996 138.206 141.262 137.282 141.262C136.998 141.262 136.75 141.245 136.537 141.209C136.323 141.185 136.14 141.156 135.986 141.12V139.877C136.116 139.901 136.27 139.924 136.448 139.948C136.637 139.972 136.833 139.984 137.034 139.984C137.578 139.984 138.017 139.83 138.348 139.522C138.691 139.214 138.958 138.806 139.147 138.296L139.645 137.036L135.808 127.481ZM81.1051 158.134C81.1051 156.689 81.3123 155.298 81.7267 153.96C82.1529 152.61 82.816 151.397 83.7158 150.319H85.1899C84.3611 151.432 83.7336 152.658 83.3073 153.996C82.8929 155.334 82.6857 156.707 82.6857 158.116C82.6857 159.489 82.8929 160.839 83.3073 162.165C83.7336 163.48 84.3552 164.693 85.1721 165.806H83.7158C82.816 164.764 82.1529 163.586 81.7267 162.272C81.3123 160.946 81.1051 159.566 81.1051 158.134ZM94.6347 159.608C94.6347 160.733 94.2263 161.609 93.4093 162.236C92.5923 162.864 91.4912 163.178 90.1059 163.178C89.3955 163.178 88.7384 163.124 88.1346 163.018C87.5307 162.911 87.0275 162.763 86.625 162.574V161.046C87.0512 161.236 87.5781 161.408 88.2056 161.561C88.845 161.715 89.5021 161.792 90.177 161.792C91.1242 161.792 91.8346 161.609 92.3082 161.242C92.7936 160.875 93.0363 160.377 93.0363 159.75C93.0363 159.336 92.9475 158.986 92.7699 158.702C92.5923 158.418 92.2845 158.157 91.8464 157.921C91.4202 157.672 90.8223 157.412 90.0527 157.139C88.9752 156.748 88.1583 156.269 87.6018 155.701C87.0571 155.132 86.7848 154.357 86.7848 153.374C86.7848 152.699 86.9565 152.125 87.2999 151.651C87.6432 151.166 88.1168 150.793 88.7207 150.532C89.3363 150.272 90.0408 150.142 90.8341 150.142C91.5327 150.142 92.172 150.207 92.7522 150.337C93.3323 150.467 93.8592 150.639 94.3328 150.852L93.8355 152.22C93.3975 152.03 92.9179 151.87 92.397 151.74C91.8879 151.61 91.3551 151.545 90.7986 151.545C90.0053 151.545 89.4074 151.716 89.0048 152.06C88.6023 152.391 88.401 152.835 88.401 153.392C88.401 153.818 88.4898 154.173 88.6674 154.457C88.845 154.742 89.1351 154.996 89.5376 155.221C89.9402 155.446 90.4848 155.689 91.1715 155.949C91.9175 156.222 92.545 156.518 93.0541 156.837C93.5751 157.145 93.9658 157.518 94.2263 157.956C94.4986 158.394 94.6347 158.945 94.6347 159.608ZM100.155 161.899C100.392 161.899 100.635 161.881 100.883 161.846C101.132 161.798 101.333 161.751 101.487 161.704V162.893C101.321 162.976 101.084 163.041 100.777 163.089C100.469 163.148 100.173 163.178 99.8886 163.178C99.3914 163.178 98.9296 163.095 98.5034 162.929C98.089 162.751 97.7515 162.449 97.491 162.023C97.2306 161.597 97.1003 160.999 97.1003 160.229V154.688H95.7506V153.942L97.1181 153.321L97.7397 151.296H98.6632V153.481H101.416V154.688H98.6632V160.194C98.6632 160.774 98.7994 161.206 99.0717 161.49C99.3558 161.763 99.717 161.899 100.155 161.899ZM106.998 153.321C108.159 153.321 109.017 153.575 109.574 154.084C110.13 154.594 110.408 155.405 110.408 156.518V163H109.272L108.97 161.65H108.899C108.484 162.171 108.046 162.556 107.585 162.805C107.135 163.053 106.507 163.178 105.702 163.178C104.838 163.178 104.121 162.953 103.553 162.503C102.985 162.041 102.701 161.325 102.701 160.354C102.701 159.407 103.074 158.678 103.819 158.169C104.565 157.648 105.714 157.364 107.265 157.317L108.881 157.264V156.695C108.881 155.902 108.709 155.351 108.366 155.044C108.023 154.736 107.537 154.582 106.91 154.582C106.412 154.582 105.939 154.659 105.489 154.813C105.039 154.955 104.619 155.12 104.228 155.31L103.748 154.138C104.163 153.913 104.654 153.723 105.222 153.569C105.791 153.404 106.383 153.321 106.998 153.321ZM107.46 158.4C106.276 158.448 105.453 158.637 104.992 158.968C104.542 159.3 104.317 159.768 104.317 160.372C104.317 160.904 104.477 161.295 104.796 161.544C105.128 161.792 105.548 161.917 106.057 161.917C106.862 161.917 107.531 161.698 108.064 161.26C108.597 160.81 108.863 160.123 108.863 159.199V158.347L107.46 158.4ZM116.528 161.899C116.764 161.899 117.007 161.881 117.256 161.846C117.504 161.798 117.706 161.751 117.86 161.704V162.893C117.694 162.976 117.457 163.041 117.149 163.089C116.841 163.148 116.545 163.178 116.261 163.178C115.764 163.178 115.302 163.095 114.876 162.929C114.461 162.751 114.124 162.449 113.864 162.023C113.603 161.597 113.473 160.999 113.473 160.229V154.688H112.123V153.942L113.491 153.321L114.112 151.296H115.036V153.481H117.789V154.688H115.036V160.194C115.036 160.774 115.172 161.206 115.444 161.49C115.728 161.763 116.089 161.899 116.528 161.899ZM123.442 153.303C124.259 153.303 124.958 153.481 125.538 153.836C126.13 154.191 126.58 154.694 126.887 155.345C127.207 155.985 127.367 156.737 127.367 157.601V158.542H120.849C120.873 159.62 121.145 160.443 121.666 161.011C122.199 161.567 122.939 161.846 123.886 161.846C124.49 161.846 125.023 161.792 125.484 161.686C125.958 161.567 126.443 161.402 126.941 161.188V162.556C126.455 162.769 125.976 162.923 125.502 163.018C125.029 163.124 124.466 163.178 123.815 163.178C122.915 163.178 122.116 162.994 121.417 162.627C120.731 162.26 120.192 161.715 119.801 160.993C119.422 160.259 119.233 159.365 119.233 158.311C119.233 157.269 119.405 156.376 119.748 155.63C120.103 154.884 120.594 154.309 121.222 153.907C121.861 153.504 122.601 153.303 123.442 153.303ZM123.424 154.582C122.678 154.582 122.086 154.824 121.648 155.31C121.222 155.784 120.967 156.447 120.885 157.299H125.733C125.721 156.494 125.532 155.843 125.165 155.345C124.798 154.836 124.218 154.582 123.424 154.582ZM132.898 158.134C132.898 159.566 132.685 160.946 132.259 162.272C131.845 163.586 131.188 164.764 130.288 165.806H128.831C129.648 164.693 130.264 163.48 130.678 162.165C131.105 160.839 131.318 159.489 131.318 158.116C131.318 156.707 131.105 155.334 130.678 153.996C130.264 152.658 129.642 151.432 128.814 150.319H130.288C131.188 151.397 131.845 152.61 132.259 153.96C132.685 155.298 132.898 156.689 132.898 158.134Z" fill="black"/>
<rect x="55" y="109" width="104" height="68" stroke="#289F58" stroke-width="2"/>
<g filter="url(#filter2_d_8579_33859)">
<path d="M39 33V52" stroke="#7D828B" stroke-width="2"/>
</g>
<path d="M20.228 68.3194C21.8856 68.3194 23.0932 68.645 23.851 69.2962C24.6088 69.9474 24.9876 70.865 24.9876 72.049C24.9876 72.7475 24.8278 73.4046 24.5081 74.0203C24.2003 74.6242 23.6734 75.1155 22.9275 75.4944C22.1934 75.8733 21.1929 76.0627 19.926 76.0627H18.4697V81H16.8713V68.3194H20.228ZM20.0859 69.6869H18.4697V74.6952H19.7484C20.9561 74.6952 21.856 74.4998 22.448 74.1091C23.04 73.7184 23.336 73.0554 23.336 72.12C23.336 71.303 23.0755 70.6933 22.5545 70.2907C22.0336 69.8882 21.2107 69.6869 20.0859 69.6869ZM31.8513 71.303C32.0289 71.303 32.2184 71.3149 32.4196 71.3386C32.6328 71.3504 32.8163 71.3741 32.9702 71.4096L32.7748 72.8482C32.6209 72.8126 32.4492 72.783 32.2598 72.7594C32.0822 72.7357 31.9105 72.7238 31.7448 72.7238C31.2593 72.7238 30.8035 72.86 30.3772 73.1323C29.951 73.3928 29.6076 73.7658 29.3472 74.2512C29.0985 74.7248 28.9742 75.2813 28.9742 75.9206V81H27.4113V71.4806H28.69L28.8676 73.2211H28.9387C29.2465 72.7002 29.6432 72.2502 30.1286 71.8714C30.614 71.4925 31.1883 71.303 31.8513 71.303ZM38.0772 71.303C38.8941 71.303 39.5927 71.4806 40.1729 71.8358C40.7649 72.191 41.2148 72.6942 41.5226 73.3454C41.8423 73.9848 42.0021 74.7366 42.0021 75.601V76.5422H35.4842C35.5079 77.6197 35.7802 78.4426 36.3012 79.0109C36.834 79.5674 37.574 79.8456 38.5212 79.8456C39.125 79.8456 39.6578 79.7923 40.1196 79.6858C40.5932 79.5674 41.0786 79.4016 41.5759 79.1885V80.556C41.0905 80.7691 40.6109 80.923 40.1373 81.0178C39.6637 81.1243 39.1013 81.1776 38.4501 81.1776C37.5503 81.1776 36.7511 80.9941 36.0525 80.627C35.3658 80.26 34.8271 79.7154 34.4364 78.9931C34.0575 78.259 33.8681 77.3651 33.8681 76.3114C33.8681 75.2694 34.0397 74.3755 34.3831 73.6296C34.7383 72.8837 35.2297 72.3094 35.8572 71.9069C36.4965 71.5043 37.2365 71.303 38.0772 71.303ZM38.0594 72.5818C37.3135 72.5818 36.7215 72.8245 36.2834 73.3099C35.8572 73.7835 35.6026 74.4466 35.5197 75.299H40.3682C40.3564 74.4939 40.1669 73.8427 39.7999 73.3454C39.4329 72.8363 38.8527 72.5818 38.0594 72.5818ZM48.8123 72.6883H46.4147V81H44.8518V72.6883H43.1823V71.9602L44.8518 71.4274V70.8768C44.8518 69.6454 45.1241 68.7634 45.6687 68.2306C46.2134 67.6859 46.9711 67.4136 47.942 67.4136C48.3209 67.4136 48.6643 67.4491 48.9721 67.5202C49.2918 67.5794 49.5641 67.6504 49.7891 67.7333L49.3806 68.9587C49.1911 68.8995 48.9721 68.8403 48.7235 68.7811C48.4748 68.7219 48.2203 68.6923 47.9598 68.6923C47.4388 68.6923 47.0481 68.8699 46.7876 69.2251C46.539 69.5685 46.4147 70.1131 46.4147 70.859V71.4806H48.8123V72.6883ZM51.3342 67.9109C51.571 67.9109 51.7782 67.9938 51.9558 68.1595C52.1452 68.3134 52.2399 68.5621 52.2399 68.9054C52.2399 69.237 52.1452 69.4856 51.9558 69.6514C51.7782 69.8171 51.571 69.9 51.3342 69.9C51.0737 69.9 50.8547 69.8171 50.6771 69.6514C50.4995 69.4856 50.4107 69.237 50.4107 68.9054C50.4107 68.5621 50.4995 68.3134 50.6771 68.1595C50.8547 67.9938 51.0737 67.9109 51.3342 67.9109ZM52.0979 71.4806V81H50.535V71.4806H52.0979ZM57.3648 76.1338L54.0792 71.4806H55.8552L58.3061 75.0682L60.7392 71.4806H62.4975L59.2118 76.1338L62.6751 81H60.899L58.3061 77.1994L55.6776 81H53.9194L57.3648 76.1338Z" fill="black"/>
<rect x="1" y="53" width="76" height="42" stroke="#7D828B" stroke-width="2"/>
<defs>
<filter id="filter0_d_8579_33859" x="169.5" y="33" width="4" height="19" filterUnits="userSpaceOnUse" color-interpolation-filters="sRGB">
<feFlood flood-opacity="0" result="BackgroundImageFix"/>
<feColorMatrix in="SourceAlpha" type="matrix" values="0 0 0 0 0 0 0 0 0 0 0 0 0 0 0 0 0 0 127 0" result="hardAlpha"/>
<feOffset dx="2"/>
<feComposite in2="hardAlpha" operator="out"/>
<feColorMatrix type="matrix" values="0 0 0 0 1 0 0 0 0 1 0 0 0 0 1 0 0 0 1 0"/>
<feBlend mode="normal" in2="BackgroundImageFix" result="effect1_dropShadow_8579_33859"/>
<feBlend mode="normal" in="SourceGraphic" in2="effect1_dropShadow_8579_33859" result="shape"/>
</filter>
<filter id="filter1_d_8579_33859" x="106" y="33" width="4" height="75" filterUnits="userSpaceOnUse" color-interpolation-filters="sRGB">
<feFlood flood-opacity="0" result="BackgroundImageFix"/>
<feColorMatrix in="SourceAlpha" type="matrix" values="0 0 0 0 0 0 0 0 0 0 0 0 0 0 0 0 0 0 127 0" result="hardAlpha"/>
<feOffset dx="2"/>
<feComposite in2="hardAlpha" operator="out"/>
<feColorMatrix type="matrix" values="0 0 0 0 1 0 0 0 0 1 0 0 0 0 1 0 0 0 1 0"/>
<feBlend mode="normal" in2="BackgroundImageFix" result="effect1_dropShadow_8579_33859"/>
<feBlend mode="normal" in="SourceGraphic" in2="effect1_dropShadow_8579_33859" result="shape"/>
</filter>
<filter id="filter2_d_8579_33859" x="38" y="33" width="4" height="19" filterUnits="userSpaceOnUse" color-interpolation-filters="sRGB">
<feFlood flood-opacity="0" result="BackgroundImageFix"/>
<feColorMatrix in="SourceAlpha" type="matrix" values="0 0 0 0 0 0 0 0 0 0 0 0 0 0 0 0 0 0 127 0" result="hardAlpha"/>
<feOffset dx="2"/>
<feComposite in2="hardAlpha" operator="out"/>
<feColorMatrix type="matrix" values="0 0 0 0 1 0 0 0 0 1 0 0 0 0 1 0 0 0 1 0"/>
<feBlend mode="normal" in2="BackgroundImageFix" result="effect1_dropShadow_8579_33859"/>
<feBlend mode="normal" in="SourceGraphic" in2="effect1_dropShadow_8579_33859" result="shape"/>
</filter>
</defs>
</svg>
