<svg width="479" height="147" viewBox="0 0 479 147" fill="none" xmlns="http://www.w3.org/2000/svg">
<g clip-path="url(#clip0_2925_413)">
<rect x="388" y="12.9999" width="48" height="1" fill="#C54600"/>
<g clip-path="url(#clip1_2925_413)">
<rect x="417" y="0.999939" width="24" height="24" rx="12" fill="#C54600"/>
<path d="M430.183 8.27267V16.9999H429.126V9.38062H429.075L426.944 10.7954V9.72153L429.126 8.27267H430.183Z" fill="white"/>
</g>
</g>
<g clip-path="url(#clip2_2925_413)">
<rect y="41.8823" width="48" height="1" fill="#C54600"/>
<g clip-path="url(#clip3_2925_413)">
<rect y="29.8823" width="24" height="24" rx="12" fill="#C54600"/>
<path d="M9.2706 45.8823V45.1152L12.1513 41.9618C12.4893 41.5925 12.7678 41.2715 12.9865 40.9987C13.2053 40.7232 13.3672 40.4646 13.4723 40.2232C13.5803 39.9789 13.6342 39.7232 13.6342 39.4561C13.6342 39.1493 13.5604 38.8837 13.4126 38.6593C13.2678 38.4348 13.0689 38.2615 12.8161 38.1394C12.5632 38.0172 12.2791 37.9561 11.9638 37.9561C11.6286 37.9561 11.3359 38.0257 11.0859 38.1649C10.8388 38.3013 10.647 38.4931 10.5107 38.7402C10.3771 38.9874 10.3104 39.2771 10.3104 39.6095H9.30469C9.30469 39.0982 9.42259 38.6493 9.65838 38.2629C9.89418 37.8766 10.2152 37.5754 10.6214 37.3595C11.0305 37.1436 11.4893 37.0357 11.9979 37.0357C12.5092 37.0357 12.9624 37.1436 13.3572 37.3595C13.7521 37.5754 14.0618 37.8666 14.2862 38.2331C14.5107 38.5996 14.6229 39.0073 14.6229 39.4561C14.6229 39.7771 14.5646 40.0911 14.4482 40.3979C14.3345 40.7019 14.1357 41.0414 13.8516 41.4164C13.5703 41.7885 13.1797 42.2431 12.6797 42.78L10.7195 44.8766V44.9448H14.7763V45.8823H9.2706Z" fill="white"/>
</g>
</g>
<g clip-path="url(#clip4_2925_413)">
<rect y="74.8823" width="48" height="1" fill="#C54600"/>
<g clip-path="url(#clip5_2925_413)">
<rect y="62.8823" width="24" height="24" rx="12" fill="#C54600"/>
<path d="M12.032 79.0016C11.4695 79.0016 10.968 78.905 10.5277 78.7118C10.0902 78.5186 9.74219 78.2502 9.48366 77.9064C9.22798 77.5598 9.08878 77.1578 9.06605 76.7004H10.1399C10.1626 76.9817 10.2592 77.2246 10.4297 77.4291C10.6001 77.6308 10.8232 77.7871 11.0987 77.8979C11.3743 78.0087 11.6797 78.0641 12.0149 78.0641C12.3899 78.0641 12.7223 77.9987 13.0121 77.8681C13.3018 77.7374 13.5291 77.5556 13.6939 77.3226C13.8587 77.0896 13.9411 76.8198 13.9411 76.5129C13.9411 76.1919 13.8615 75.9093 13.7024 75.6649C13.5433 75.4178 13.3104 75.2246 13.0036 75.0854C12.6967 74.9462 12.3217 74.8766 11.8786 74.8766H11.1797V73.9391H11.8786C12.2251 73.9391 12.5291 73.8766 12.7905 73.7516C13.0547 73.6266 13.2607 73.4504 13.4084 73.2232C13.5589 72.9959 13.6342 72.7289 13.6342 72.422C13.6342 72.1266 13.5689 71.8695 13.4382 71.6507C13.3075 71.432 13.1229 71.2615 12.8842 71.1394C12.6484 71.0172 12.37 70.9561 12.049 70.9561C11.7479 70.9561 11.4638 71.0115 11.1967 71.1223C10.9325 71.2303 10.7166 71.3879 10.549 71.5953C10.3814 71.7999 10.2905 72.047 10.2763 72.3368H9.25355C9.2706 71.8794 9.40838 71.4789 9.6669 71.1351C9.92543 70.7885 10.2635 70.5186 10.6811 70.3254C11.1016 70.1323 11.5632 70.0357 12.0661 70.0357C12.6058 70.0357 13.0689 70.145 13.4553 70.3638C13.8416 70.5797 14.1385 70.8652 14.3459 71.2203C14.5533 71.5754 14.657 71.959 14.657 72.3709C14.657 72.8624 14.5277 73.2814 14.2692 73.628C14.0135 73.9746 13.6655 74.2146 13.2251 74.3482V74.4164C13.7763 74.5073 14.2067 74.7416 14.5163 75.1195C14.826 75.4945 14.9808 75.959 14.9808 76.5129C14.9808 76.9874 14.8516 77.4135 14.593 77.7914C14.3374 78.1664 13.9879 78.4618 13.5447 78.6777C13.1016 78.8936 12.5973 79.0016 12.032 79.0016Z" fill="white"/>
</g>
</g>
<g clip-path="url(#clip6_2925_413)">
<rect y="122.882" width="48" height="1" fill="#C54600"/>
<g clip-path="url(#clip7_2925_413)">
<rect y="110.882" width="24" height="24" rx="12" fill="#C54600"/>
<path d="M8.84925 125.092V124.223L12.6845 118.155H13.3152V119.502H12.889L9.9913 124.087V124.155H15.1561V125.092H8.84925ZM12.9572 126.882V124.828V124.423V118.155H13.9629V126.882H12.9572Z" fill="white"/>
</g>
</g>
<g clip-path="url(#clip8_2925_413)">
<path d="M63.02 19.9999H54.8V5.71994H63.02V8.19994H57.82V11.3399H62.66V13.8199H57.82V17.4999H63.02V19.9999ZM63.24 1.51994C63.0533 1.70661 62.8067 1.93327 62.5 2.19994C62.1933 2.4666 61.86 2.7466 61.5 3.03994C61.1533 3.33327 60.8067 3.61327 60.46 3.87994C60.1267 4.13327 59.8333 4.3466 59.58 4.51994H57.6V4.25994C57.8133 4.0066 58.06 3.71327 58.34 3.37994C58.6333 3.03327 58.92 2.67994 59.2 2.31994C59.48 1.9466 59.7133 1.61327 59.9 1.31994H63.24V1.51994ZM70.3514 17.8199C70.6847 17.8199 71.0047 17.7866 71.3114 17.7199C71.6181 17.6533 71.9247 17.5733 72.2314 17.4799V19.6999C71.9114 19.8333 71.5114 19.9466 71.0314 20.0399C70.5647 20.1466 70.0514 20.1999 69.4914 20.1999C68.8381 20.1999 68.2514 20.0933 67.7314 19.8799C67.2247 19.6666 66.8181 19.2999 66.5114 18.7799C66.2181 18.2466 66.0714 17.5133 66.0714 16.5799V11.3199H64.6514V10.0599L66.2914 9.05994L67.1514 6.75994H69.0514V9.07994H72.1114V11.3199H69.0514V16.5799C69.0514 16.9933 69.1714 17.3066 69.4114 17.5199C69.6514 17.7199 69.9647 17.8199 70.3514 17.8199ZM75.9233 4.79994C76.3633 4.79994 76.7433 4.9066 77.0633 5.11994C77.3833 5.31994 77.5433 5.69994 77.5433 6.25994C77.5433 6.80661 77.3833 7.1866 77.0633 7.39994C76.7433 7.61327 76.3633 7.71994 75.9233 7.71994C75.4699 7.71994 75.0833 7.61327 74.7633 7.39994C74.4566 7.1866 74.3033 6.80661 74.3033 6.25994C74.3033 5.69994 74.4566 5.31994 74.7633 5.11994C75.0833 4.9066 75.4699 4.79994 75.9233 4.79994ZM77.4033 9.07994V19.9999H74.4233V9.07994H77.4033ZM87.077 20.2199C87.077 19.6599 87.117 19.1133 87.197 18.5799H87.077C86.797 19.0333 86.4104 19.4199 85.917 19.7399C85.4237 20.0466 84.777 20.1999 83.977 20.1999C82.7504 20.1999 81.757 19.7266 80.997 18.7799C80.237 17.8199 79.857 16.4133 79.857 14.5599C79.857 12.6933 80.2437 11.2799 81.017 10.3199C81.7904 9.35994 82.797 8.87994 84.037 8.87994C84.837 8.87994 85.4837 9.03327 85.977 9.33994C86.4837 9.6466 86.8904 10.0266 87.197 10.4799H87.277L87.537 9.07994H90.057V24.7999H87.077V20.2199ZM85.037 17.8599C85.8637 17.8599 86.437 17.6199 86.757 17.1399C87.0904 16.6466 87.2637 15.9133 87.277 14.9399V14.5799C87.277 13.5133 87.1104 12.6999 86.777 12.1399C86.457 11.5799 85.8637 11.2999 84.997 11.2999C84.2904 11.2999 83.7637 11.5866 83.417 12.1599C83.0704 12.7199 82.897 13.5333 82.897 14.5999C82.897 16.7733 83.6104 17.8599 85.037 17.8599ZM103.193 9.07994V19.9999H100.913L100.513 18.5999H100.353C100.007 19.1599 99.5266 19.5666 98.9133 19.8199C98.3133 20.0733 97.6733 20.1999 96.9933 20.1999C95.8199 20.1999 94.8799 19.8866 94.1733 19.2599C93.4666 18.6199 93.1133 17.5999 93.1133 16.1999V9.07994H96.0933V15.4599C96.0933 16.2333 96.2333 16.8199 96.5133 17.2199C96.7933 17.6199 97.2399 17.8199 97.8533 17.8199C98.7599 17.8199 99.3799 17.5133 99.7133 16.8999C100.047 16.2733 100.213 15.3799 100.213 14.2199V9.07994H103.193ZM110.818 8.87994C112.324 8.87994 113.518 9.31327 114.398 10.1799C115.278 11.0333 115.718 12.2533 115.718 13.8399V15.2799H108.678C108.704 16.1199 108.951 16.7799 109.418 17.2599C109.898 17.7399 110.558 17.9799 111.398 17.9799C112.104 17.9799 112.744 17.9133 113.318 17.7799C113.891 17.6333 114.484 17.4133 115.098 17.1199V19.4199C114.564 19.6866 113.998 19.8799 113.398 19.9999C112.811 20.1333 112.098 20.1999 111.258 20.1999C110.164 20.1999 109.198 19.9999 108.358 19.5999C107.518 19.1866 106.858 18.5666 106.378 17.7399C105.898 16.9133 105.658 15.8733 105.658 14.6199C105.658 13.3399 105.871 12.2799 106.298 11.4399C106.738 10.5866 107.344 9.94661 108.118 9.51994C108.891 9.09327 109.791 8.87994 110.818 8.87994ZM110.838 10.9999C110.264 10.9999 109.784 11.1866 109.398 11.5599C109.024 11.9333 108.804 12.5133 108.738 13.2999H112.918C112.904 12.6333 112.731 12.0866 112.398 11.6599C112.064 11.2199 111.544 10.9999 110.838 10.9999ZM122.734 17.8199C123.068 17.8199 123.388 17.7866 123.694 17.7199C124.001 17.6533 124.308 17.5733 124.614 17.4799V19.6999C124.294 19.8333 123.894 19.9466 123.414 20.0399C122.948 20.1466 122.434 20.1999 121.874 20.1999C121.221 20.1999 120.634 20.0933 120.114 19.8799C119.608 19.6666 119.201 19.2999 118.894 18.7799C118.601 18.2466 118.454 17.5133 118.454 16.5799V11.3199H117.034V10.0599L118.674 9.05994L119.534 6.75994H121.434V9.07994H124.494V11.3199H121.434V16.5799C121.434 16.9933 121.554 17.3066 121.794 17.5199C122.034 17.7199 122.348 17.8199 122.734 17.8199ZM131.406 17.8199C131.739 17.8199 132.059 17.7866 132.366 17.7199C132.673 17.6533 132.979 17.5733 133.286 17.4799V19.6999C132.966 19.8333 132.566 19.9466 132.086 20.0399C131.619 20.1466 131.106 20.1999 130.546 20.1999C129.893 20.1999 129.306 20.0933 128.786 19.8799C128.279 19.6666 127.873 19.2999 127.566 18.7799C127.273 18.2466 127.126 17.5133 127.126 16.5799V11.3199H125.706V10.0599L127.346 9.05994L128.206 6.75994H130.106V9.07994H133.166V11.3199H130.106V16.5799C130.106 16.9933 130.226 17.3066 130.466 17.5199C130.706 17.7199 131.019 17.8199 131.406 17.8199ZM139.978 8.87994C141.485 8.87994 142.678 9.31327 143.558 10.1799C144.438 11.0333 144.878 12.2533 144.878 13.8399V15.2799H137.838C137.865 16.1199 138.111 16.7799 138.578 17.2599C139.058 17.7399 139.718 17.9799 140.558 17.9799C141.265 17.9799 141.905 17.9133 142.478 17.7799C143.051 17.6333 143.645 17.4133 144.258 17.1199V19.4199C143.725 19.6866 143.158 19.8799 142.558 19.9999C141.971 20.1333 141.258 20.1999 140.418 20.1999C139.325 20.1999 138.358 19.9999 137.518 19.5999C136.678 19.1866 136.018 18.5666 135.538 17.7399C135.058 16.9133 134.818 15.8733 134.818 14.6199C134.818 13.3399 135.031 12.2799 135.458 11.4399C135.898 10.5866 136.505 9.94661 137.278 9.51994C138.051 9.09327 138.951 8.87994 139.978 8.87994ZM139.998 10.9999C139.425 10.9999 138.945 11.1866 138.558 11.5599C138.185 11.9333 137.965 12.5133 137.898 13.2999H142.078C142.065 12.6333 141.891 12.0866 141.558 11.6599C141.225 11.2199 140.705 10.9999 139.998 10.9999ZM162.41 14.5199C162.41 16.3333 161.93 17.7333 160.97 18.7199C160.023 19.7066 158.73 20.1999 157.09 20.1999C156.076 20.1999 155.17 19.9799 154.37 19.5399C153.583 19.0999 152.963 18.4599 152.51 17.6199C152.056 16.7666 151.83 15.7333 151.83 14.5199C151.83 12.7066 152.303 11.3133 153.25 10.3399C154.196 9.3666 155.496 8.87994 157.15 8.87994C158.176 8.87994 159.083 9.09994 159.87 9.53994C160.656 9.97994 161.276 10.6199 161.73 11.4599C162.183 12.2866 162.41 13.3066 162.41 14.5199ZM154.87 14.5199C154.87 15.5999 155.043 16.4199 155.39 16.9799C155.75 17.5266 156.33 17.7999 157.13 17.7999C157.916 17.7999 158.483 17.5266 158.83 16.9799C159.19 16.4199 159.37 15.5999 159.37 14.5199C159.37 13.4399 159.19 12.6333 158.83 12.0999C158.483 11.5533 157.91 11.2799 157.11 11.2799C156.323 11.2799 155.75 11.5533 155.39 12.0999C155.043 12.6333 154.87 13.4399 154.87 14.5199ZM174.893 9.07994V19.9999H172.613L172.213 18.5999H172.053C171.706 19.1599 171.226 19.5666 170.613 19.8199C170.013 20.0733 169.373 20.1999 168.693 20.1999C167.519 20.1999 166.579 19.8866 165.873 19.2599C165.166 18.6199 164.813 17.5999 164.813 16.1999V9.07994H167.793V15.4599C167.793 16.2333 167.933 16.8199 168.213 17.2199C168.493 17.6199 168.939 17.8199 169.553 17.8199C170.459 17.8199 171.079 17.5133 171.413 16.8999C171.746 16.2733 171.913 15.3799 171.913 14.2199V9.07994H174.893ZM186.192 19.9999H183.212V4.79994H186.192V19.9999ZM193.806 8.87994C195.313 8.87994 196.506 9.31327 197.386 10.1799C198.266 11.0333 198.706 12.2533 198.706 13.8399V15.2799H191.666C191.693 16.1199 191.939 16.7799 192.406 17.2599C192.886 17.7399 193.546 17.9799 194.386 17.9799C195.093 17.9799 195.733 17.9133 196.306 17.7799C196.879 17.6333 197.473 17.4133 198.086 17.1199V19.4199C197.553 19.6866 196.986 19.8799 196.386 19.9999C195.799 20.1333 195.086 20.1999 194.246 20.1999C193.153 20.1999 192.186 19.9999 191.346 19.5999C190.506 19.1866 189.846 18.5666 189.366 17.7399C188.886 16.9133 188.646 15.8733 188.646 14.6199C188.646 13.3399 188.859 12.2799 189.286 11.4399C189.726 10.5866 190.333 9.94661 191.106 9.51994C191.879 9.09327 192.779 8.87994 193.806 8.87994ZM193.826 10.9999C193.253 10.9999 192.773 11.1866 192.386 11.5599C192.013 11.9333 191.793 12.5133 191.726 13.2999H195.906C195.893 12.6333 195.719 12.0866 195.386 11.6599C195.053 11.2199 194.533 10.9999 193.826 10.9999ZM197.886 4.87994C197.699 5.0666 197.453 5.29327 197.146 5.55994C196.839 5.8266 196.506 6.10661 196.146 6.39994C195.799 6.69327 195.453 6.97327 195.106 7.23994C194.773 7.49327 194.479 7.70661 194.226 7.87994H192.246V7.61994C192.459 7.36661 192.706 7.07327 192.986 6.73994C193.279 6.39327 193.566 6.03994 193.846 5.67994C194.126 5.30661 194.359 4.97327 194.546 4.67994H197.886V4.87994ZM204.663 8.87994C206.009 8.87994 207.063 9.41327 207.823 10.4799H207.903L208.143 9.07994H210.663V20.0199C210.663 21.5799 210.203 22.7666 209.283 23.5799C208.363 24.3933 207.003 24.7999 205.203 24.7999C204.429 24.7999 203.709 24.7533 203.043 24.6599C202.389 24.5666 201.749 24.3999 201.123 24.1599V21.7799C202.469 22.3399 203.889 22.6199 205.383 22.6199C206.916 22.6199 207.683 21.7933 207.683 20.1399V19.9199C207.683 19.6933 207.689 19.4599 207.703 19.2199C207.729 18.9799 207.749 18.7666 207.763 18.5799H207.683C207.309 19.1533 206.863 19.5666 206.343 19.8199C205.823 20.0733 205.236 20.1999 204.583 20.1999C203.289 20.1999 202.276 19.7066 201.543 18.7199C200.823 17.7199 200.463 16.3333 200.463 14.5599C200.463 12.7733 200.836 11.3799 201.583 10.3799C202.329 9.37994 203.356 8.87994 204.663 8.87994ZM205.603 11.2999C204.203 11.2999 203.503 12.3999 203.503 14.5999C203.503 16.7733 204.216 17.8599 205.643 17.8599C206.403 17.8599 206.963 17.6466 207.323 17.2199C207.696 16.7799 207.883 16.0199 207.883 14.9399V14.5799C207.883 13.4066 207.703 12.5666 207.343 12.0599C206.983 11.5533 206.403 11.2999 205.603 11.2999ZM218.279 8.87994C219.785 8.87994 220.979 9.31327 221.859 10.1799C222.739 11.0333 223.179 12.2533 223.179 13.8399V15.2799H216.139C216.165 16.1199 216.412 16.7799 216.879 17.2599C217.359 17.7399 218.019 17.9799 218.859 17.9799C219.565 17.9799 220.205 17.9133 220.779 17.7799C221.352 17.6333 221.945 17.4133 222.559 17.1199V19.4199C222.025 19.6866 221.459 19.8799 220.859 19.9999C220.272 20.1333 219.559 20.1999 218.719 20.1999C217.625 20.1999 216.659 19.9999 215.819 19.5999C214.979 19.1866 214.319 18.5666 213.839 17.7399C213.359 16.9133 213.119 15.8733 213.119 14.6199C213.119 13.3399 213.332 12.2799 213.759 11.4399C214.199 10.5866 214.805 9.94661 215.579 9.51994C216.352 9.09327 217.252 8.87994 218.279 8.87994ZM218.299 10.9999C217.725 10.9999 217.245 11.1866 216.859 11.5599C216.485 11.9333 216.265 12.5133 216.199 13.2999H220.379C220.365 12.6333 220.192 12.0866 219.859 11.6599C219.525 11.2199 219.005 10.9999 218.299 10.9999ZM231.795 8.87994C232.968 8.87994 233.908 9.19994 234.615 9.83994C235.322 10.4666 235.675 11.4799 235.675 12.8799V19.9999H232.695V13.6199C232.695 12.8333 232.555 12.2466 232.275 11.8599C231.995 11.4599 231.548 11.2599 230.935 11.2599C230.028 11.2599 229.408 11.5733 229.075 12.1999C228.742 12.8133 228.575 13.6999 228.575 14.8599V19.9999H225.595V9.07994H227.875L228.275 10.4799H228.435C228.782 9.91994 229.255 9.51327 229.855 9.25994C230.468 9.0066 231.115 8.87994 231.795 8.87994ZM242.2 20.1999C240.986 20.1999 239.993 19.7266 239.22 18.7799C238.46 17.8199 238.08 16.4133 238.08 14.5599C238.08 12.6933 238.466 11.2799 239.24 10.3199C240.013 9.35994 241.026 8.87994 242.28 8.87994C243.066 8.87994 243.713 9.03327 244.22 9.33994C244.726 9.6466 245.126 10.0266 245.42 10.4799H245.52C245.48 10.2666 245.433 9.95994 245.38 9.55994C245.326 9.14661 245.3 8.7266 245.3 8.29994V4.79994H248.28V19.9999H246L245.42 18.5799H245.3C245.006 19.0333 244.613 19.4199 244.12 19.7399C243.626 20.0466 242.986 20.1999 242.2 20.1999ZM243.24 17.8199C244.066 17.8199 244.646 17.5799 244.98 17.0999C245.313 16.6066 245.486 15.8733 245.5 14.8999V14.5799C245.5 13.5133 245.333 12.6999 245 12.1399C244.68 11.5799 244.08 11.2999 243.2 11.2999C242.546 11.2999 242.033 11.5866 241.66 12.1599C241.286 12.7199 241.1 13.5333 241.1 14.5999C241.1 15.6666 241.286 16.4733 241.66 17.0199C242.033 17.5533 242.56 17.8199 243.24 17.8199ZM255.896 8.87994C257.403 8.87994 258.596 9.31327 259.476 10.1799C260.356 11.0333 260.796 12.2533 260.796 13.8399V15.2799H253.756C253.783 16.1199 254.029 16.7799 254.496 17.2599C254.976 17.7399 255.636 17.9799 256.476 17.9799C257.183 17.9799 257.823 17.9133 258.396 17.7799C258.969 17.6333 259.563 17.4133 260.176 17.1199V19.4199C259.643 19.6866 259.076 19.8799 258.476 19.9999C257.889 20.1333 257.176 20.1999 256.336 20.1999C255.243 20.1999 254.276 19.9999 253.436 19.5999C252.596 19.1866 251.936 18.5666 251.456 17.7399C250.976 16.9133 250.736 15.8733 250.736 14.6199C250.736 13.3399 250.949 12.2799 251.376 11.4399C251.816 10.5866 252.423 9.94661 253.196 9.51994C253.969 9.09327 254.869 8.87994 255.896 8.87994ZM255.916 10.9999C255.343 10.9999 254.863 11.1866 254.476 11.5599C254.103 11.9333 253.883 12.5133 253.816 13.2999H257.996C257.983 12.6333 257.809 12.0866 257.476 11.6599C257.143 11.2199 256.623 10.9999 255.916 10.9999Z" fill="#333333"/>
<path d="M268.8 14.5199C268.8 12.8933 269.033 11.3266 269.5 9.81994C269.98 8.29994 270.727 6.93327 271.74 5.71994H273.4C272.467 6.97327 271.76 8.35327 271.28 9.85994C270.813 11.3666 270.58 12.9133 270.58 14.4999C270.58 16.0466 270.813 17.5666 271.28 19.0599C271.76 20.5399 272.46 21.9066 273.38 23.1599H271.74C270.727 21.9866 269.98 20.6599 269.5 19.1799C269.033 17.6866 268.8 16.1333 268.8 14.5199ZM285.016 14.6199C285.016 16.3933 284.563 17.7666 283.656 18.7399C282.763 19.7133 281.549 20.1999 280.016 20.1999C279.069 20.1999 278.223 19.9866 277.476 19.5599C276.743 19.1199 276.163 18.4866 275.736 17.6599C275.309 16.8199 275.096 15.8066 275.096 14.6199C275.096 12.8466 275.543 11.4799 276.436 10.5199C277.329 9.55994 278.543 9.07994 280.076 9.07994C281.049 9.07994 281.903 9.29994 282.636 9.73994C283.383 10.1666 283.963 10.7933 284.376 11.6199C284.803 12.4333 285.016 13.4333 285.016 14.6199ZM276.916 14.6199C276.916 15.8866 277.163 16.8933 277.656 17.6399C278.163 18.3733 278.963 18.7399 280.056 18.7399C281.136 18.7399 281.929 18.3733 282.436 17.6399C282.943 16.8933 283.196 15.8866 283.196 14.6199C283.196 13.3533 282.943 12.3599 282.436 11.6399C281.929 10.9199 281.129 10.5599 280.036 10.5599C278.943 10.5599 278.149 10.9199 277.656 11.6399C277.163 12.3599 276.916 13.3533 276.916 14.6199ZM289.565 8.49994C289.565 8.95327 289.552 9.37994 289.525 9.77994C289.512 10.1666 289.492 10.4733 289.465 10.6999H289.565C289.872 10.2466 290.292 9.86661 290.825 9.55994C291.359 9.25327 292.045 9.09994 292.885 9.09994C294.219 9.09994 295.285 9.56661 296.085 10.4999C296.899 11.4199 297.305 12.7999 297.305 14.6399C297.305 16.4799 296.899 17.8666 296.085 18.7999C295.272 19.7333 294.205 20.1999 292.885 20.1999C292.045 20.1999 291.359 20.0466 290.825 19.7399C290.292 19.4333 289.872 19.0666 289.565 18.6399H289.425L289.065 19.9999H287.805V4.79994H289.565V8.49994ZM292.585 10.5599C291.452 10.5599 290.665 10.8866 290.225 11.5399C289.785 12.1933 289.565 13.2066 289.565 14.5799V14.6599C289.565 15.9799 289.779 16.9933 290.205 17.6999C290.645 18.3933 291.452 18.7399 292.625 18.7399C293.585 18.7399 294.299 18.3866 294.765 17.6799C295.245 16.9733 295.485 15.9533 295.485 14.6199C295.485 11.9133 294.519 10.5599 292.585 10.5599ZM301.87 19.9999H300.11V4.79994H301.87V19.9999ZM306.166 5.25994C306.433 5.25994 306.666 5.35327 306.866 5.53994C307.08 5.71327 307.186 5.99327 307.186 6.37994C307.186 6.75327 307.08 7.03327 306.866 7.21994C306.666 7.40661 306.433 7.49994 306.166 7.49994C305.873 7.49994 305.626 7.40661 305.426 7.21994C305.226 7.03327 305.126 6.75327 305.126 6.37994C305.126 5.99327 305.226 5.71327 305.426 5.53994C305.626 5.35327 305.873 5.25994 306.166 5.25994ZM307.026 9.27994V19.9999H305.266V9.27994H307.026ZM314.223 9.07994C314.929 9.07994 315.563 9.21327 316.123 9.47994C316.696 9.7466 317.183 10.1533 317.583 10.6999H317.683L317.923 9.27994H319.323V20.1799C319.323 21.7133 318.929 22.8666 318.143 23.6399C317.369 24.4133 316.163 24.7999 314.523 24.7999C312.949 24.7999 311.663 24.5733 310.663 24.1199V22.4999C311.716 23.0599 313.036 23.3399 314.623 23.3399C315.543 23.3399 316.263 23.0666 316.783 22.5199C317.316 21.9866 317.583 21.2533 317.583 20.3199V19.8999C317.583 19.7399 317.589 19.5133 317.603 19.2199C317.616 18.9133 317.629 18.6999 317.643 18.5799H317.563C316.843 19.6599 315.736 20.1999 314.243 20.1999C312.856 20.1999 311.769 19.7133 310.983 18.7399C310.209 17.7666 309.823 16.4066 309.823 14.6599C309.823 12.9533 310.209 11.5999 310.983 10.5999C311.769 9.58661 312.849 9.07994 314.223 9.07994ZM314.463 10.5599C313.569 10.5599 312.876 10.9199 312.383 11.6399C311.889 12.3466 311.643 13.3599 311.643 14.6799C311.643 15.9999 311.883 17.0133 312.363 17.7199C312.856 18.4133 313.569 18.7599 314.503 18.7599C315.583 18.7599 316.369 18.4733 316.863 17.8999C317.356 17.3133 317.603 16.3733 317.603 15.0799V14.6599C317.603 13.1933 317.349 12.1466 316.843 11.5199C316.336 10.8799 315.543 10.5599 314.463 10.5599ZM326.787 9.09994C328.094 9.09994 329.061 9.38661 329.687 9.95994C330.314 10.5333 330.627 11.4466 330.627 12.6999V19.9999H329.347L329.007 18.4799H328.927C328.461 19.0666 327.967 19.4999 327.447 19.7799C326.941 20.0599 326.234 20.1999 325.327 20.1999C324.354 20.1999 323.547 19.9466 322.907 19.4399C322.267 18.9199 321.947 18.1133 321.947 17.0199C321.947 15.9533 322.367 15.1333 323.207 14.5599C324.047 13.9733 325.341 13.6533 327.087 13.5999L328.907 13.5399V12.8999C328.907 12.0066 328.714 11.3866 328.327 11.0399C327.941 10.6933 327.394 10.5199 326.687 10.5199C326.127 10.5199 325.594 10.6066 325.087 10.7799C324.581 10.9399 324.107 11.1266 323.667 11.3399L323.127 10.0199C323.594 9.76661 324.147 9.55327 324.787 9.37994C325.427 9.19327 326.094 9.09994 326.787 9.09994ZM327.307 14.8199C325.974 14.8733 325.047 15.0866 324.527 15.4599C324.021 15.8333 323.767 16.3599 323.767 17.0399C323.767 17.6399 323.947 18.0799 324.307 18.3599C324.681 18.6399 325.154 18.7799 325.727 18.7799C326.634 18.7799 327.387 18.5333 327.987 18.0399C328.587 17.5333 328.887 16.7599 328.887 15.7199V14.7599L327.307 14.8199ZM337.518 18.7599C337.785 18.7599 338.058 18.7399 338.338 18.6999C338.618 18.6466 338.845 18.5933 339.018 18.5399V19.8799C338.832 19.9733 338.565 20.0466 338.218 20.0999C337.872 20.1666 337.538 20.1999 337.218 20.1999C336.658 20.1999 336.138 20.1066 335.658 19.9199C335.192 19.7199 334.812 19.3799 334.518 18.8999C334.225 18.4199 334.078 17.7466 334.078 16.8799V10.6399H332.558V9.79994L334.098 9.09994L334.798 6.81994H335.838V9.27994H338.938V10.6399H335.838V16.8399C335.838 17.4933 335.992 17.9799 336.298 18.2999C336.618 18.6066 337.025 18.7599 337.518 18.7599ZM350.485 14.6199C350.485 16.3933 350.032 17.7666 349.125 18.7399C348.232 19.7133 347.018 20.1999 345.485 20.1999C344.538 20.1999 343.692 19.9866 342.945 19.5599C342.212 19.1199 341.632 18.4866 341.205 17.6599C340.778 16.8199 340.565 15.8066 340.565 14.6199C340.565 12.8466 341.012 11.4799 341.905 10.5199C342.798 9.55994 344.012 9.07994 345.545 9.07994C346.518 9.07994 347.372 9.29994 348.105 9.73994C348.852 10.1666 349.432 10.7933 349.845 11.6199C350.272 12.4333 350.485 13.4333 350.485 14.6199ZM342.385 14.6199C342.385 15.8866 342.632 16.8933 343.125 17.6399C343.632 18.3733 344.432 18.7399 345.525 18.7399C346.605 18.7399 347.398 18.3733 347.905 17.6399C348.412 16.8933 348.665 15.8866 348.665 14.6199C348.665 13.3533 348.412 12.3599 347.905 11.6399C347.398 10.9199 346.598 10.5599 345.505 10.5599C344.412 10.5599 343.618 10.9199 343.125 11.6399C342.632 12.3599 342.385 13.3533 342.385 14.6199ZM354.174 5.25994C354.441 5.25994 354.674 5.35327 354.874 5.53994C355.088 5.71327 355.194 5.99327 355.194 6.37994C355.194 6.75327 355.088 7.03327 354.874 7.21994C354.674 7.40661 354.441 7.49994 354.174 7.49994C353.881 7.49994 353.634 7.40661 353.434 7.21994C353.234 7.03327 353.134 6.75327 353.134 6.37994C353.134 5.99327 353.234 5.71327 353.434 5.53994C353.634 5.35327 353.881 5.25994 354.174 5.25994ZM355.034 9.27994V19.9999H353.274V9.27994H355.034ZM363.43 9.07994C363.63 9.07994 363.844 9.09327 364.07 9.11994C364.31 9.13327 364.517 9.15994 364.69 9.19994L364.47 10.8199C364.297 10.7799 364.104 10.7466 363.89 10.7199C363.69 10.6933 363.497 10.6799 363.31 10.6799C362.764 10.6799 362.25 10.8333 361.77 11.1399C361.29 11.4333 360.904 11.8533 360.61 12.3999C360.33 12.9333 360.19 13.5599 360.19 14.2799V19.9999H358.43V9.27994H359.87L360.07 11.2399H360.15C360.497 10.6533 360.944 10.1466 361.49 9.71994C362.037 9.29327 362.684 9.07994 363.43 9.07994ZM370.442 9.07994C371.362 9.07994 372.148 9.27994 372.802 9.67994C373.468 10.0799 373.975 10.6466 374.322 11.3799C374.682 12.0999 374.862 12.9466 374.862 13.9199V14.9799H367.522C367.548 16.1933 367.855 17.1199 368.442 17.7599C369.042 18.3866 369.875 18.6999 370.942 18.6999C371.622 18.6999 372.222 18.6399 372.742 18.5199C373.275 18.3866 373.822 18.1999 374.382 17.9599V19.4999C373.835 19.7399 373.295 19.9133 372.762 20.0199C372.228 20.1399 371.595 20.1999 370.862 20.1999C369.848 20.1999 368.948 19.9933 368.162 19.5799C367.388 19.1666 366.782 18.5533 366.342 17.7399C365.915 16.9133 365.702 15.9066 365.702 14.7199C365.702 13.5466 365.895 12.5399 366.282 11.6999C366.682 10.8599 367.235 10.2133 367.942 9.75994C368.662 9.30661 369.495 9.07994 370.442 9.07994ZM370.422 10.5199C369.582 10.5199 368.915 10.7933 368.422 11.3399C367.942 11.8733 367.655 12.6199 367.562 13.5799H373.022C373.008 12.6733 372.795 11.9399 372.382 11.3799C371.968 10.8066 371.315 10.5199 370.422 10.5199ZM381.091 14.5199C381.091 16.1333 380.851 17.6866 380.371 19.1799C379.904 20.6599 379.164 21.9866 378.151 23.1599H376.511C377.431 21.9066 378.124 20.5399 378.591 19.0599C379.071 17.5666 379.311 16.0466 379.311 14.4999C379.311 12.9133 379.071 11.3666 378.591 9.85994C378.124 8.35327 377.424 6.97327 376.491 5.71994H378.151C379.164 6.93327 379.904 8.29994 380.371 9.81994C380.851 11.3266 381.091 12.8933 381.091 14.5199Z" fill="#333333"/>
</g>
<path d="M59.46 49.9999H57.66V37.2999H53.2V35.7199H63.9V37.2999H59.46V49.9999ZM68.547 39.0799C69.467 39.0799 70.2537 39.2799 70.907 39.6799C71.5737 40.0799 72.0804 40.6466 72.427 41.3799C72.787 42.0999 72.967 42.9466 72.967 43.9199V44.9799H65.627C65.6537 46.1933 65.9604 47.1199 66.547 47.7599C67.147 48.3866 67.9804 48.6999 69.047 48.6999C69.727 48.6999 70.327 48.6399 70.847 48.5199C71.3804 48.3866 71.927 48.1999 72.487 47.9599V49.4999C71.9404 49.7399 71.4004 49.9133 70.867 50.0199C70.3337 50.1399 69.7004 50.1999 68.967 50.1999C67.9537 50.1999 67.0537 49.9933 66.267 49.5799C65.4937 49.1666 64.887 48.5533 64.447 47.7399C64.0204 46.9133 63.807 45.9066 63.807 44.7199C63.807 43.5466 64.0004 42.5399 64.387 41.6999C64.787 40.8599 65.3404 40.2133 66.047 39.7599C66.767 39.3066 67.6004 39.0799 68.547 39.0799ZM68.527 40.5199C67.687 40.5199 67.0204 40.7933 66.527 41.3399C66.047 41.8733 65.7604 42.6199 65.667 43.5799H71.127C71.1137 42.6733 70.9004 41.9399 70.487 41.3799C70.0737 40.8066 69.4204 40.5199 68.527 40.5199ZM77.8455 44.5199L74.1455 39.2799H76.1455L78.9055 43.3199L81.6455 39.2799H83.6255L79.9255 44.5199L83.8255 49.9999H81.8255L78.9055 45.7199L75.9455 49.9999H73.9655L77.8455 44.5199ZM89.4714 48.7599C89.7381 48.7599 90.0114 48.7399 90.2914 48.6999C90.5714 48.6466 90.7981 48.5933 90.9714 48.5399V49.8799C90.7847 49.9733 90.5181 50.0466 90.1714 50.0999C89.8247 50.1666 89.4914 50.1999 89.1714 50.1999C88.6114 50.1999 88.0914 50.1066 87.6114 49.9199C87.1447 49.7199 86.7647 49.3799 86.4714 48.8999C86.1781 48.4199 86.0314 47.7466 86.0314 46.8799V40.6399H84.5114V39.7999L86.0514 39.0999L86.7514 36.8199H87.7914V39.2799H90.8914V40.6399H87.7914V46.8399C87.7914 47.4933 87.9447 47.9799 88.2514 48.2999C88.5714 48.6066 88.9781 48.7599 89.4714 48.7599ZM97.258 39.0799C98.178 39.0799 98.9646 39.2799 99.618 39.6799C100.285 40.0799 100.791 40.6466 101.138 41.3799C101.498 42.0999 101.678 42.9466 101.678 43.9199V44.9799H94.338C94.3646 46.1933 94.6713 47.1199 95.258 47.7599C95.858 48.3866 96.6913 48.6999 97.758 48.6999C98.438 48.6999 99.038 48.6399 99.558 48.5199C100.091 48.3866 100.638 48.1999 101.198 47.9599V49.4999C100.651 49.7399 100.111 49.9133 99.578 50.0199C99.0446 50.1399 98.4113 50.1999 97.678 50.1999C96.6646 50.1999 95.7646 49.9933 94.978 49.5799C94.2046 49.1666 93.598 48.5533 93.158 47.7399C92.7313 46.9133 92.518 45.9066 92.518 44.7199C92.518 43.5466 92.7113 42.5399 93.098 41.6999C93.498 40.8599 94.0513 40.2133 94.758 39.7599C95.478 39.3066 96.3113 39.0799 97.258 39.0799ZM97.238 40.5199C96.398 40.5199 95.7313 40.7933 95.238 41.3399C94.758 41.8733 94.4713 42.6199 94.378 43.5799H99.838C99.8246 42.6733 99.6113 41.9399 99.198 41.3799C98.7846 40.8066 98.1313 40.5199 97.238 40.5199ZM113.742 39.0799C114.662 39.0799 115.449 39.2799 116.102 39.6799C116.769 40.0799 117.276 40.6466 117.622 41.3799C117.982 42.0999 118.162 42.9466 118.162 43.9199V44.9799H110.822C110.849 46.1933 111.156 47.1199 111.742 47.7599C112.342 48.3866 113.176 48.6999 114.242 48.6999C114.922 48.6999 115.522 48.6399 116.042 48.5199C116.576 48.3866 117.122 48.1999 117.682 47.9599V49.4999C117.136 49.7399 116.596 49.9133 116.062 50.0199C115.529 50.1399 114.896 50.1999 114.162 50.1999C113.149 50.1999 112.249 49.9933 111.462 49.5799C110.689 49.1666 110.082 48.5533 109.642 47.7399C109.216 46.9133 109.002 45.9066 109.002 44.7199C109.002 43.5466 109.196 42.5399 109.582 41.6999C109.982 40.8599 110.536 40.2133 111.242 39.7599C111.962 39.3066 112.796 39.0799 113.742 39.0799ZM113.722 40.5199C112.882 40.5199 112.216 40.7933 111.722 41.3399C111.242 41.8733 110.956 42.6199 110.862 43.5799H116.322C116.309 42.6733 116.096 41.9399 115.682 41.3799C115.269 40.8066 114.616 40.5199 113.722 40.5199ZM123.041 44.5199L119.341 39.2799H121.341L124.101 43.3199L126.841 39.2799H128.821L125.121 44.5199L129.021 49.9999H127.021L124.101 45.7199L121.141 49.9999H119.161L123.041 44.5199ZM136.187 39.0799C137.507 39.0799 138.567 39.5399 139.367 40.4599C140.18 41.3799 140.587 42.7666 140.587 44.6199C140.587 46.4466 140.18 47.8333 139.367 48.7799C138.567 49.7266 137.5 50.1999 136.167 50.1999C135.34 50.1999 134.653 50.0466 134.107 49.7399C133.573 49.4199 133.153 49.0533 132.847 48.6399H132.727C132.753 48.8666 132.78 49.1533 132.807 49.4999C132.833 49.8466 132.847 50.1466 132.847 50.3999V54.7999H131.087V39.2799H132.527L132.767 40.7399H132.847C133.167 40.2733 133.587 39.8799 134.107 39.5599C134.627 39.2399 135.32 39.0799 136.187 39.0799ZM135.867 40.5599C134.773 40.5599 134 40.8666 133.547 41.4799C133.107 42.0933 132.873 43.0266 132.847 44.2799V44.6199C132.847 45.9399 133.06 46.9599 133.487 47.6799C133.927 48.3866 134.733 48.7399 135.907 48.7399C136.56 48.7399 137.093 48.5599 137.507 48.1999C137.933 47.8399 138.247 47.3533 138.447 46.7399C138.66 46.1133 138.767 45.3999 138.767 44.5999C138.767 43.3733 138.527 42.3933 138.047 41.6599C137.58 40.9266 136.853 40.5599 135.867 40.5599ZM145.151 49.9999H143.391V34.7999H145.151V49.9999ZM149.448 35.2599C149.714 35.2599 149.948 35.3533 150.148 35.5399C150.361 35.7133 150.468 35.9933 150.468 36.3799C150.468 36.7533 150.361 37.0333 150.148 37.2199C149.948 37.4066 149.714 37.4999 149.448 37.4999C149.154 37.4999 148.908 37.4066 148.708 37.2199C148.508 37.0333 148.408 36.7533 148.408 36.3799C148.408 35.9933 148.508 35.7133 148.708 35.5399C148.908 35.3533 149.154 35.2599 149.448 35.2599ZM150.308 39.2799V49.9999H148.548V39.2799H150.308ZM158.004 50.1999C157.057 50.1999 156.211 50.0066 155.464 49.6199C154.731 49.2333 154.151 48.6333 153.724 47.8199C153.311 47.0066 153.104 45.9666 153.104 44.6999C153.104 43.3799 153.324 42.3066 153.764 41.4799C154.204 40.6533 154.797 40.0466 155.544 39.6599C156.304 39.2733 157.164 39.0799 158.124 39.0799C158.671 39.0799 159.197 39.1399 159.704 39.2599C160.211 39.3666 160.624 39.4999 160.944 39.6599L160.404 41.1199C160.084 40.9999 159.711 40.8866 159.284 40.7799C158.857 40.6733 158.457 40.6199 158.084 40.6199C155.977 40.6199 154.924 41.9733 154.924 44.6799C154.924 45.9733 155.177 46.9666 155.684 47.6599C156.204 48.3399 156.971 48.6799 157.984 48.6799C158.571 48.6799 159.084 48.6199 159.524 48.4999C159.977 48.3799 160.391 48.2333 160.764 48.0599V49.6199C160.404 49.8066 160.004 49.9466 159.564 50.0399C159.137 50.1466 158.617 50.1999 158.004 50.1999ZM167.373 39.0999C168.68 39.0999 169.647 39.3866 170.273 39.9599C170.9 40.5333 171.213 41.4466 171.213 42.6999V49.9999H169.933L169.593 48.4799H169.513C169.047 49.0666 168.553 49.4999 168.033 49.7799C167.527 50.0599 166.82 50.1999 165.913 50.1999C164.94 50.1999 164.133 49.9466 163.493 49.4399C162.853 48.9199 162.533 48.1133 162.533 47.0199C162.533 45.9533 162.953 45.1333 163.793 44.5599C164.633 43.9733 165.927 43.6533 167.673 43.5999L169.493 43.5399V42.8999C169.493 42.0066 169.3 41.3866 168.913 41.0399C168.527 40.6933 167.98 40.5199 167.273 40.5199C166.713 40.5199 166.18 40.6066 165.673 40.7799C165.167 40.9399 164.693 41.1266 164.253 41.3399L163.713 40.0199C164.18 39.7666 164.733 39.5533 165.373 39.3799C166.013 39.1933 166.68 39.0999 167.373 39.0999ZM167.893 44.8199C166.56 44.8733 165.633 45.0866 165.113 45.4599C164.607 45.8333 164.353 46.3599 164.353 47.0399C164.353 47.6399 164.533 48.0799 164.893 48.3599C165.267 48.6399 165.74 48.7799 166.313 48.7799C167.22 48.7799 167.973 48.5333 168.573 48.0399C169.173 47.5333 169.473 46.7599 169.473 45.7199V44.7599L167.893 44.8199ZM178.104 48.7599C178.371 48.7599 178.644 48.7399 178.924 48.6999C179.204 48.6466 179.431 48.5933 179.604 48.5399V49.8799C179.418 49.9733 179.151 50.0466 178.804 50.0999C178.458 50.1666 178.124 50.1999 177.804 50.1999C177.244 50.1999 176.724 50.1066 176.244 49.9199C175.778 49.7199 175.398 49.3799 175.104 48.8999C174.811 48.4199 174.664 47.7466 174.664 46.8799V40.6399H173.144V39.7999L174.684 39.0999L175.384 36.8199H176.424V39.2799H179.524V40.6399H176.424V46.8399C176.424 47.4933 176.578 47.9799 176.884 48.2999C177.204 48.6066 177.611 48.7599 178.104 48.7599ZM182.651 35.2599C182.917 35.2599 183.151 35.3533 183.351 35.5399C183.564 35.7133 183.671 35.9933 183.671 36.3799C183.671 36.7533 183.564 37.0333 183.351 37.2199C183.151 37.4066 182.917 37.4999 182.651 37.4999C182.357 37.4999 182.111 37.4066 181.911 37.2199C181.711 37.0333 181.611 36.7533 181.611 36.3799C181.611 35.9933 181.711 35.7133 181.911 35.5399C182.111 35.3533 182.357 35.2599 182.651 35.2599ZM183.511 39.2799V49.9999H181.751V39.2799H183.511ZM191.847 40.6399H189.147V49.9999H187.387V40.6399H185.507V39.8199L187.387 39.2199V38.5999C187.387 37.2133 187.694 36.2199 188.307 35.6199C188.92 35.0066 189.774 34.6999 190.867 34.6999C191.294 34.6999 191.68 34.7399 192.027 34.8199C192.387 34.8866 192.694 34.9666 192.947 35.0599L192.487 36.4399C192.274 36.3733 192.027 36.3066 191.747 36.2399C191.467 36.1733 191.18 36.1399 190.887 36.1399C190.3 36.1399 189.86 36.3399 189.567 36.7399C189.287 37.1266 189.147 37.7399 189.147 38.5799V39.2799H191.847V40.6399ZM204.517 35.7199L199.197 49.9999H197.477L202.797 35.7199H204.517ZM219.834 49.9999H211.854V35.7199H219.834V37.2999H213.654V41.7599H219.474V43.3199H213.654V48.4199H219.834V49.9999ZM225.267 44.5199L221.567 39.2799H223.567L226.327 43.3199L229.067 39.2799H231.047L227.347 44.5199L231.247 49.9999H229.247L226.327 45.7199L223.367 49.9999H221.387L225.267 44.5199ZM237.063 39.0799C237.983 39.0799 238.769 39.2799 239.423 39.6799C240.089 40.0799 240.596 40.6466 240.943 41.3799C241.303 42.0999 241.483 42.9466 241.483 43.9199V44.9799H234.143C234.169 46.1933 234.476 47.1199 235.063 47.7599C235.663 48.3866 236.496 48.6999 237.563 48.6999C238.243 48.6999 238.843 48.6399 239.363 48.5199C239.896 48.3866 240.443 48.1999 241.003 47.9599V49.4999C240.456 49.7399 239.916 49.9133 239.383 50.0199C238.849 50.1399 238.216 50.1999 237.483 50.1999C236.469 50.1999 235.569 49.9933 234.783 49.5799C234.009 49.1666 233.403 48.5533 232.963 47.7399C232.536 46.9133 232.323 45.9066 232.323 44.7199C232.323 43.5466 232.516 42.5399 232.903 41.6999C233.303 40.8599 233.856 40.2133 234.563 39.7599C235.283 39.3066 236.116 39.0799 237.063 39.0799ZM237.043 40.5199C236.203 40.5199 235.536 40.7933 235.043 41.3399C234.563 41.8733 234.276 42.6199 234.183 43.5799H239.643C239.629 42.6733 239.416 41.9399 239.003 41.3799C238.589 40.8066 237.936 40.5199 237.043 40.5199ZM255.972 39.0799C257.185 39.0799 258.092 39.3933 258.692 40.0199C259.292 40.6333 259.592 41.6333 259.592 43.0199V49.9999H257.852V43.0999C257.852 41.4066 257.125 40.5599 255.672 40.5599C254.632 40.5599 253.885 40.8599 253.432 41.4599C252.992 42.0599 252.772 42.9333 252.772 44.0799V49.9999H251.032V43.0999C251.032 41.4066 250.298 40.5599 248.832 40.5599C247.752 40.5599 247.005 40.8933 246.592 41.5599C246.178 42.2266 245.972 43.1866 245.972 44.4399V49.9999H244.212V39.2799H245.632L245.892 40.7399H245.992C246.325 40.1799 246.772 39.7666 247.332 39.4999C247.905 39.2199 248.512 39.0799 249.152 39.0799C250.832 39.0799 251.925 39.6799 252.432 40.8799H252.532C252.892 40.2666 253.378 39.8133 253.992 39.5199C254.618 39.2266 255.278 39.0799 255.972 39.0799ZM268.003 39.0799C269.323 39.0799 270.383 39.5399 271.183 40.4599C271.996 41.3799 272.403 42.7666 272.403 44.6199C272.403 46.4466 271.996 47.8333 271.183 48.7799C270.383 49.7266 269.316 50.1999 267.983 50.1999C267.156 50.1999 266.47 50.0466 265.923 49.7399C265.39 49.4199 264.97 49.0533 264.663 48.6399H264.543C264.57 48.8666 264.596 49.1533 264.623 49.4999C264.65 49.8466 264.663 50.1466 264.663 50.3999V54.7999H262.903V39.2799H264.343L264.583 40.7399H264.663C264.983 40.2733 265.403 39.8799 265.923 39.5599C266.443 39.2399 267.136 39.0799 268.003 39.0799ZM267.683 40.5599C266.59 40.5599 265.816 40.8666 265.363 41.4799C264.923 42.0933 264.69 43.0266 264.663 44.2799V44.6199C264.663 45.9399 264.876 46.9599 265.303 47.6799C265.743 48.3866 266.55 48.7399 267.723 48.7399C268.376 48.7399 268.91 48.5599 269.323 48.1999C269.75 47.8399 270.063 47.3533 270.263 46.7399C270.476 46.1133 270.583 45.3999 270.583 44.5999C270.583 43.3733 270.343 42.3933 269.863 41.6599C269.396 40.9266 268.67 40.5599 267.683 40.5599ZM276.968 49.9999H275.208V34.7999H276.968V49.9999ZM284.504 39.0799C285.424 39.0799 286.211 39.2799 286.864 39.6799C287.531 40.0799 288.037 40.6466 288.384 41.3799C288.744 42.0999 288.924 42.9466 288.924 43.9199V44.9799H281.584C281.611 46.1933 281.917 47.1199 282.504 47.7599C283.104 48.3866 283.937 48.6999 285.004 48.6999C285.684 48.6999 286.284 48.6399 286.804 48.5199C287.337 48.3866 287.884 48.1999 288.444 47.9599V49.4999C287.897 49.7399 287.357 49.9133 286.824 50.0199C286.291 50.1399 285.657 50.1999 284.924 50.1999C283.911 50.1999 283.011 49.9933 282.224 49.5799C281.451 49.1666 280.844 48.5533 280.404 47.7399C279.977 46.9133 279.764 45.9066 279.764 44.7199C279.764 43.5466 279.957 42.5399 280.344 41.6999C280.744 40.8599 281.297 40.2133 282.004 39.7599C282.724 39.3066 283.557 39.0799 284.504 39.0799ZM284.484 40.5199C283.644 40.5199 282.977 40.7933 282.484 41.3399C282.004 41.8733 281.717 42.6199 281.624 43.5799H287.084C287.071 42.6733 286.857 41.9399 286.444 41.3799C286.031 40.8066 285.377 40.5199 284.484 40.5199ZM300.648 50.1999C299.315 50.1999 298.248 49.7399 297.448 48.8199C296.648 47.8866 296.248 46.4999 296.248 44.6599C296.248 42.8199 296.648 41.4333 297.448 40.4999C298.262 39.5533 299.335 39.0799 300.668 39.0799C301.495 39.0799 302.168 39.2333 302.688 39.5399C303.222 39.8466 303.655 40.2199 303.988 40.6599H304.108C304.095 40.4866 304.068 40.2333 304.028 39.8999C304.002 39.5533 303.988 39.2799 303.988 39.0799V34.7999H305.748V49.9999H304.328L304.068 48.5599H303.988C303.668 49.0133 303.242 49.3999 302.708 49.7199C302.175 50.0399 301.488 50.1999 300.648 50.1999ZM300.928 48.7399C302.062 48.7399 302.855 48.4333 303.308 47.8199C303.775 47.1933 304.008 46.2533 304.008 44.9999V44.6799C304.008 43.3466 303.788 42.3266 303.348 41.6199C302.908 40.8999 302.095 40.5399 300.908 40.5399C299.962 40.5399 299.248 40.9199 298.768 41.6799C298.302 42.4266 298.068 43.4333 298.068 44.6999C298.068 45.9799 298.302 46.9733 298.768 47.6799C299.248 48.3866 299.968 48.7399 300.928 48.7399ZM313.293 39.0799C314.213 39.0799 315 39.2799 315.653 39.6799C316.32 40.0799 316.826 40.6466 317.173 41.3799C317.533 42.0999 317.713 42.9466 317.713 43.9199V44.9799H310.373C310.4 46.1933 310.706 47.1199 311.293 47.7599C311.893 48.3866 312.726 48.6999 313.793 48.6999C314.473 48.6999 315.073 48.6399 315.593 48.5199C316.126 48.3866 316.673 48.1999 317.233 47.9599V49.4999C316.686 49.7399 316.146 49.9133 315.613 50.0199C315.08 50.1399 314.446 50.1999 313.713 50.1999C312.7 50.1999 311.8 49.9933 311.013 49.5799C310.24 49.1666 309.633 48.5533 309.193 47.7399C308.766 46.9133 308.553 45.9066 308.553 44.7199C308.553 43.5466 308.746 42.5399 309.133 41.6999C309.533 40.8599 310.086 40.2133 310.793 39.7599C311.513 39.3066 312.346 39.0799 313.293 39.0799ZM313.273 40.5199C312.433 40.5199 311.766 40.7933 311.273 41.3399C310.793 41.8733 310.506 42.6199 310.413 43.5799H315.873C315.86 42.6733 315.646 41.9399 315.233 41.3799C314.82 40.8066 314.166 40.5199 313.273 40.5199ZM337.398 39.0799C338.611 39.0799 339.518 39.3933 340.118 40.0199C340.718 40.6333 341.018 41.6333 341.018 43.0199V49.9999H339.278V43.0999C339.278 41.4066 338.551 40.5599 337.098 40.5599C336.058 40.5599 335.311 40.8599 334.858 41.4599C334.418 42.0599 334.198 42.9333 334.198 44.0799V49.9999H332.458V43.0999C332.458 41.4066 331.724 40.5599 330.258 40.5599C329.178 40.5599 328.431 40.8933 328.018 41.5599C327.604 42.2266 327.398 43.1866 327.398 44.4399V49.9999H325.638V39.2799H327.058L327.318 40.7399H327.418C327.751 40.1799 328.198 39.7666 328.758 39.4999C329.331 39.2199 329.938 39.0799 330.578 39.0799C332.258 39.0799 333.351 39.6799 333.858 40.8799H333.958C334.318 40.2666 334.804 39.8133 335.418 39.5199C336.044 39.2266 336.704 39.0799 337.398 39.0799ZM348.469 39.0799C349.389 39.0799 350.176 39.2799 350.829 39.6799C351.496 40.0799 352.002 40.6466 352.349 41.3799C352.709 42.0999 352.889 42.9466 352.889 43.9199V44.9799H345.549C345.576 46.1933 345.882 47.1199 346.469 47.7599C347.069 48.3866 347.902 48.6999 348.969 48.6999C349.649 48.6999 350.249 48.6399 350.769 48.5199C351.302 48.3866 351.849 48.1999 352.409 47.9599V49.4999C351.862 49.7399 351.322 49.9133 350.789 50.0199C350.256 50.1399 349.622 50.1999 348.889 50.1999C347.876 50.1999 346.976 49.9933 346.189 49.5799C345.416 49.1666 344.809 48.5533 344.369 47.7399C343.942 46.9133 343.729 45.9066 343.729 44.7199C343.729 43.5466 343.922 42.5399 344.309 41.6999C344.709 40.8599 345.262 40.2133 345.969 39.7599C346.689 39.3066 347.522 39.0799 348.469 39.0799ZM348.449 40.5199C347.609 40.5199 346.942 40.7933 346.449 41.3399C345.969 41.8733 345.682 42.6199 345.589 43.5799H351.049C351.036 42.6733 350.822 41.9399 350.409 41.3799C349.996 40.8066 349.342 40.5199 348.449 40.5199ZM362.598 47.0399C362.598 48.0799 362.211 48.8666 361.438 49.3999C360.665 49.9333 359.625 50.1999 358.318 50.1999C357.571 50.1999 356.925 50.1399 356.378 50.0199C355.845 49.8999 355.371 49.7333 354.958 49.5199V47.9199C355.385 48.1333 355.898 48.3333 356.498 48.5199C357.111 48.6933 357.731 48.7799 358.358 48.7799C359.251 48.7799 359.898 48.6399 360.298 48.3599C360.698 48.0666 360.898 47.6799 360.898 47.1999C360.898 46.9333 360.825 46.6933 360.678 46.4799C360.531 46.2666 360.265 46.0533 359.878 45.8399C359.505 45.6266 358.965 45.3866 358.258 45.1199C357.565 44.8533 356.971 44.5866 356.478 44.3199C355.985 44.0533 355.605 43.7333 355.338 43.3599C355.071 42.9866 354.938 42.5066 354.938 41.9199C354.938 41.0133 355.305 40.3133 356.038 39.8199C356.785 39.3266 357.758 39.0799 358.958 39.0799C359.611 39.0799 360.218 39.1466 360.778 39.2799C361.351 39.3999 361.885 39.5733 362.378 39.7999L361.778 41.1999C361.325 41.0133 360.851 40.8533 360.358 40.7199C359.865 40.5866 359.358 40.5199 358.838 40.5199C358.118 40.5199 357.565 40.6399 357.178 40.8799C356.805 41.1066 356.618 41.4199 356.618 41.8199C356.618 42.1133 356.705 42.3666 356.878 42.5799C357.051 42.7799 357.338 42.9799 357.738 43.1799C358.151 43.3666 358.698 43.5933 359.378 43.8599C360.058 44.1133 360.638 44.3733 361.118 44.6399C361.598 44.9066 361.965 45.2333 362.218 45.6199C362.471 45.9933 362.598 46.4666 362.598 47.0399ZM372.168 47.0399C372.168 48.0799 371.782 48.8666 371.008 49.3999C370.235 49.9333 369.195 50.1999 367.888 50.1999C367.142 50.1999 366.495 50.1399 365.948 50.0199C365.415 49.8999 364.942 49.7333 364.528 49.5199V47.9199C364.955 48.1333 365.468 48.3333 366.068 48.5199C366.682 48.6933 367.302 48.7799 367.928 48.7799C368.822 48.7799 369.468 48.6399 369.868 48.3599C370.268 48.0666 370.468 47.6799 370.468 47.1999C370.468 46.9333 370.395 46.6933 370.248 46.4799C370.102 46.2666 369.835 46.0533 369.448 45.8399C369.075 45.6266 368.535 45.3866 367.828 45.1199C367.135 44.8533 366.542 44.5866 366.048 44.3199C365.555 44.0533 365.175 43.7333 364.908 43.3599C364.642 42.9866 364.508 42.5066 364.508 41.9199C364.508 41.0133 364.875 40.3133 365.608 39.8199C366.355 39.3266 367.328 39.0799 368.528 39.0799C369.182 39.0799 369.788 39.1466 370.348 39.2799C370.922 39.3999 371.455 39.5733 371.948 39.7999L371.348 41.1999C370.895 41.0133 370.422 40.8533 369.928 40.7199C369.435 40.5866 368.928 40.5199 368.408 40.5199C367.688 40.5199 367.135 40.6399 366.748 40.8799C366.375 41.1066 366.188 41.4199 366.188 41.8199C366.188 42.1133 366.275 42.3666 366.448 42.5799C366.622 42.7799 366.908 42.9799 367.308 43.1799C367.722 43.3666 368.268 43.5933 368.948 43.8599C369.628 44.1133 370.208 44.3733 370.688 44.6399C371.168 44.9066 371.535 45.2333 371.788 45.6199C372.042 45.9933 372.168 46.4666 372.168 47.0399ZM378.819 39.0999C380.125 39.0999 381.092 39.3866 381.719 39.9599C382.345 40.5333 382.659 41.4466 382.659 42.6999V49.9999H381.379L381.039 48.4799H380.959C380.492 49.0666 379.999 49.4999 379.479 49.7799C378.972 50.0599 378.265 50.1999 377.359 50.1999C376.385 50.1999 375.579 49.9466 374.939 49.4399C374.299 48.9199 373.979 48.1133 373.979 47.0199C373.979 45.9533 374.399 45.1333 375.239 44.5599C376.079 43.9733 377.372 43.6533 379.119 43.5999L380.939 43.5399V42.8999C380.939 42.0066 380.745 41.3866 380.359 41.0399C379.972 40.6933 379.425 40.5199 378.719 40.5199C378.159 40.5199 377.625 40.6066 377.119 40.7799C376.612 40.9399 376.139 41.1266 375.699 41.3399L375.159 40.0199C375.625 39.7666 376.179 39.5533 376.819 39.3799C377.459 39.1933 378.125 39.0999 378.819 39.0999ZM379.339 44.8199C378.005 44.8733 377.079 45.0866 376.559 45.4599C376.052 45.8333 375.799 46.3599 375.799 47.0399C375.799 47.6399 375.979 48.0799 376.339 48.3599C376.712 48.6399 377.185 48.7799 377.759 48.7799C378.665 48.7799 379.419 48.5333 380.019 48.0399C380.619 47.5333 380.919 46.7599 380.919 45.7199V44.7599L379.339 44.8199ZM389.77 39.0799C390.476 39.0799 391.11 39.2133 391.67 39.4799C392.243 39.7466 392.73 40.1533 393.13 40.6999H393.23L393.47 39.2799H394.87V50.1799C394.87 51.7133 394.476 52.8666 393.69 53.6399C392.916 54.4133 391.71 54.7999 390.07 54.7999C388.496 54.7999 387.21 54.5733 386.21 54.1199V52.4999C387.263 53.0599 388.583 53.3399 390.17 53.3399C391.09 53.3399 391.81 53.0666 392.33 52.5199C392.863 51.9866 393.13 51.2533 393.13 50.3199V49.8999C393.13 49.7399 393.136 49.5133 393.15 49.2199C393.163 48.9133 393.176 48.6999 393.19 48.5799H393.11C392.39 49.6599 391.283 50.1999 389.79 50.1999C388.403 50.1999 387.316 49.7133 386.53 48.7399C385.756 47.7666 385.37 46.4066 385.37 44.6599C385.37 42.9533 385.756 41.5999 386.53 40.5999C387.316 39.5866 388.396 39.0799 389.77 39.0799ZM390.01 40.5599C389.116 40.5599 388.423 40.9199 387.93 41.6399C387.436 42.3466 387.19 43.3599 387.19 44.6799C387.19 45.9999 387.43 47.0133 387.91 47.7199C388.403 48.4133 389.116 48.7599 390.05 48.7599C391.13 48.7599 391.916 48.4733 392.41 47.8999C392.903 47.3133 393.15 46.3733 393.15 45.0799V44.6599C393.15 43.1933 392.896 42.1466 392.39 41.5199C391.883 40.8799 391.09 40.5599 390.01 40.5599ZM402.414 39.0799C403.334 39.0799 404.121 39.2799 404.774 39.6799C405.441 40.0799 405.948 40.6466 406.294 41.3799C406.654 42.0999 406.834 42.9466 406.834 43.9199V44.9799H399.494C399.521 46.1933 399.828 47.1199 400.414 47.7599C401.014 48.3866 401.848 48.6999 402.914 48.6999C403.594 48.6999 404.194 48.6399 404.714 48.5199C405.248 48.3866 405.794 48.1999 406.354 47.9599V49.4999C405.808 49.7399 405.268 49.9133 404.734 50.0199C404.201 50.1399 403.568 50.1999 402.834 50.1999C401.821 50.1999 400.921 49.9933 400.134 49.5799C399.361 49.1666 398.754 48.5533 398.314 47.7399C397.888 46.9133 397.674 45.9066 397.674 44.7199C397.674 43.5466 397.868 42.5399 398.254 41.6999C398.654 40.8599 399.208 40.2133 399.914 39.7599C400.634 39.3066 401.468 39.0799 402.414 39.0799ZM402.394 40.5199C401.554 40.5199 400.888 40.7933 400.394 41.3399C399.914 41.8733 399.628 42.6199 399.534 43.5799H404.994C404.981 42.6733 404.768 41.9399 404.354 41.3799C403.941 40.8066 403.288 40.5199 402.394 40.5199ZM409.303 48.9199C409.303 48.4266 409.423 48.0799 409.663 47.8799C409.903 47.6799 410.19 47.5799 410.523 47.5799C410.87 47.5799 411.163 47.6799 411.403 47.8799C411.657 48.0799 411.783 48.4266 411.783 48.9199C411.783 49.3999 411.657 49.7466 411.403 49.9599C411.163 50.1733 410.87 50.2799 410.523 50.2799C410.19 50.2799 409.903 50.1733 409.663 49.9599C409.423 49.7466 409.303 49.3999 409.303 48.9199Z" fill="#43474E"/>
<path fill-rule="evenodd" clip-rule="evenodd" d="M74.0828 81.4999L65 65.4999L55.9173 81.4999H74.0828ZM65.8891 70.8501H64.111V75.2875H65.8891V70.8501ZM64.111 78.8374V77.0625H65.8891V78.8374H64.111Z" fill="#A62A1E"/>
<path d="M90.84 80.9999L87.4 69.7999H87.32C87.3333 70.0666 87.3533 70.4666 87.38 70.9999C87.4067 71.5333 87.4333 72.1066 87.46 72.7199C87.4867 73.3199 87.5 73.8666 87.5 74.3599V80.9999H84.8V66.7199H88.92L92.3 77.6399H92.36L95.94 66.7199H100.06V80.9999H97.24V74.2399C97.24 73.7866 97.2467 73.2666 97.26 72.6799C97.2867 72.0933 97.3067 71.5399 97.32 71.0199C97.3467 70.4866 97.3667 70.0866 97.38 69.8199H97.3L93.62 80.9999H90.84ZM107.927 69.8799C109.434 69.8799 110.627 70.3133 111.507 71.1799C112.387 72.0333 112.827 73.2533 112.827 74.8399V76.2799H105.787C105.814 77.1199 106.061 77.7799 106.527 78.2599C107.007 78.7399 107.667 78.9799 108.507 78.9799C109.214 78.9799 109.854 78.9133 110.427 78.7799C111.001 78.6333 111.594 78.4133 112.207 78.1199V80.4199C111.674 80.6866 111.107 80.8799 110.507 80.9999C109.921 81.1333 109.207 81.1999 108.367 81.1999C107.274 81.1999 106.307 80.9999 105.467 80.5999C104.627 80.1866 103.967 79.5666 103.487 78.7399C103.007 77.9133 102.767 76.8733 102.767 75.6199C102.767 74.3399 102.981 73.2799 103.407 72.4399C103.847 71.5866 104.454 70.9466 105.227 70.5199C106.001 70.0933 106.901 69.8799 107.927 69.8799ZM107.947 71.9999C107.374 71.9999 106.894 72.1866 106.507 72.5599C106.134 72.9333 105.914 73.5133 105.847 74.2999H110.027C110.014 73.6333 109.841 73.0866 109.507 72.6599C109.174 72.2199 108.654 71.9999 107.947 71.9999ZM122.864 77.7599C122.864 78.8666 122.47 79.7199 121.684 80.3199C120.91 80.9066 119.75 81.1999 118.204 81.1999C117.444 81.1999 116.79 81.1466 116.244 81.0399C115.697 80.9466 115.15 80.7866 114.604 80.5599V78.0999C115.19 78.3666 115.824 78.5866 116.504 78.7599C117.184 78.9333 117.784 79.0199 118.304 79.0199C118.89 79.0199 119.304 78.9333 119.544 78.7599C119.797 78.5866 119.924 78.3599 119.924 78.0799C119.924 77.8933 119.87 77.7266 119.764 77.5799C119.67 77.4333 119.457 77.2666 119.124 77.0799C118.79 76.8933 118.27 76.6533 117.564 76.3599C116.884 76.0666 116.324 75.7799 115.884 75.4999C115.444 75.2066 115.117 74.8599 114.904 74.4599C114.69 74.0466 114.584 73.5333 114.584 72.9199C114.584 71.9066 114.977 71.1466 115.764 70.6399C116.55 70.1333 117.597 69.8799 118.904 69.8799C119.584 69.8799 120.23 69.9466 120.844 70.0799C121.457 70.2133 122.09 70.4333 122.744 70.7399L121.844 72.8799C121.31 72.6533 120.804 72.4666 120.324 72.3199C119.844 72.1599 119.357 72.0799 118.864 72.0799C117.984 72.0799 117.544 72.3199 117.544 72.7999C117.544 72.9733 117.597 73.1333 117.704 73.2799C117.824 73.4133 118.044 73.5599 118.364 73.7199C118.697 73.8799 119.184 74.0933 119.824 74.3599C120.45 74.6133 120.99 74.8799 121.444 75.1599C121.897 75.4266 122.244 75.7666 122.484 76.1799C122.737 76.5799 122.864 77.1066 122.864 77.7599ZM132.805 77.7599C132.805 78.8666 132.412 79.7199 131.625 80.3199C130.852 80.9066 129.692 81.1999 128.145 81.1999C127.385 81.1999 126.732 81.1466 126.185 81.0399C125.638 80.9466 125.092 80.7866 124.545 80.5599V78.0999C125.132 78.3666 125.765 78.5866 126.445 78.7599C127.125 78.9333 127.725 79.0199 128.245 79.0199C128.832 79.0199 129.245 78.9333 129.485 78.7599C129.738 78.5866 129.865 78.3599 129.865 78.0799C129.865 77.8933 129.812 77.7266 129.705 77.5799C129.612 77.4333 129.398 77.2666 129.065 77.0799C128.732 76.8933 128.212 76.6533 127.505 76.3599C126.825 76.0666 126.265 75.7799 125.825 75.4999C125.385 75.2066 125.058 74.8599 124.845 74.4599C124.632 74.0466 124.525 73.5333 124.525 72.9199C124.525 71.9066 124.918 71.1466 125.705 70.6399C126.492 70.1333 127.538 69.8799 128.845 69.8799C129.525 69.8799 130.172 69.9466 130.785 70.0799C131.398 70.2133 132.032 70.4333 132.685 70.7399L131.785 72.8799C131.252 72.6533 130.745 72.4666 130.265 72.3199C129.785 72.1599 129.298 72.0799 128.805 72.0799C127.925 72.0799 127.485 72.3199 127.485 72.7999C127.485 72.9733 127.538 73.1333 127.645 73.2799C127.765 73.4133 127.985 73.5599 128.305 73.7199C128.638 73.8799 129.125 74.0933 129.765 74.3599C130.392 74.6133 130.932 74.8799 131.385 75.1599C131.838 75.4266 132.185 75.7666 132.425 76.1799C132.678 76.5799 132.805 77.1066 132.805 77.7599ZM139.606 69.8599C141.073 69.8599 142.193 70.1799 142.966 70.8199C143.753 71.4466 144.146 72.4133 144.146 73.7199V80.9999H142.066L141.486 79.5199H141.406C140.94 80.1066 140.446 80.5333 139.926 80.7999C139.406 81.0666 138.693 81.1999 137.786 81.1999C136.813 81.1999 136.006 80.9199 135.366 80.3599C134.726 79.7866 134.406 78.9133 134.406 77.7399C134.406 76.5799 134.813 75.7266 135.626 75.1799C136.44 74.6199 137.66 74.3133 139.286 74.2599L141.186 74.1999V73.7199C141.186 73.1466 141.033 72.7266 140.726 72.4599C140.433 72.1933 140.02 72.0599 139.486 72.0599C138.953 72.0599 138.433 72.1399 137.926 72.2999C137.42 72.4466 136.913 72.6333 136.406 72.8599L135.426 70.8399C136.013 70.5333 136.66 70.2933 137.366 70.1199C138.086 69.9466 138.833 69.8599 139.606 69.8599ZM140.026 75.9799C139.066 76.0066 138.4 76.1799 138.026 76.4999C137.653 76.8199 137.466 77.2399 137.466 77.7599C137.466 78.2133 137.6 78.5399 137.866 78.7399C138.133 78.9266 138.48 79.0199 138.906 79.0199C139.546 79.0199 140.086 78.8333 140.526 78.4599C140.966 78.0733 141.186 77.5333 141.186 76.8399V75.9399L140.026 75.9799ZM150.737 69.8799C152.083 69.8799 153.137 70.4133 153.897 71.4799H153.977L154.217 70.0799H156.737V81.0199C156.737 82.5799 156.277 83.7666 155.357 84.5799C154.437 85.3933 153.077 85.7999 151.277 85.7999C150.503 85.7999 149.783 85.7533 149.117 85.6599C148.463 85.5666 147.823 85.3999 147.197 85.1599V82.7799C148.543 83.3399 149.963 83.6199 151.457 83.6199C152.99 83.6199 153.757 82.7933 153.757 81.1399V80.9199C153.757 80.6933 153.763 80.4599 153.777 80.2199C153.803 79.9799 153.823 79.7666 153.837 79.5799H153.757C153.383 80.1533 152.937 80.5666 152.417 80.8199C151.897 81.0733 151.31 81.1999 150.657 81.1999C149.363 81.1999 148.35 80.7066 147.617 79.7199C146.897 78.7199 146.537 77.3333 146.537 75.5599C146.537 73.7733 146.91 72.3799 147.657 71.3799C148.403 70.3799 149.43 69.8799 150.737 69.8799ZM151.677 72.2999C150.277 72.2999 149.577 73.3999 149.577 75.5999C149.577 77.7733 150.29 78.8599 151.717 78.8599C152.477 78.8599 153.037 78.6466 153.397 78.2199C153.77 77.7799 153.957 77.0199 153.957 75.9399V75.5799C153.957 74.4066 153.777 73.5666 153.417 73.0599C153.057 72.5533 152.477 72.2999 151.677 72.2999ZM164.353 69.8799C165.86 69.8799 167.053 70.3133 167.933 71.1799C168.813 72.0333 169.253 73.2533 169.253 74.8399V76.2799H162.213C162.24 77.1199 162.486 77.7799 162.953 78.2599C163.433 78.7399 164.093 78.9799 164.933 78.9799C165.64 78.9799 166.28 78.9133 166.853 78.7799C167.426 78.6333 168.02 78.4133 168.633 78.1199V80.4199C168.1 80.6866 167.533 80.8799 166.933 80.9999C166.346 81.1333 165.633 81.1999 164.793 81.1999C163.7 81.1999 162.733 80.9999 161.893 80.5999C161.053 80.1866 160.393 79.5666 159.913 78.7399C159.433 77.9133 159.193 76.8733 159.193 75.6199C159.193 74.3399 159.406 73.2799 159.833 72.4399C160.273 71.5866 160.88 70.9466 161.653 70.5199C162.426 70.0933 163.326 69.8799 164.353 69.8799ZM164.373 71.9999C163.8 71.9999 163.32 72.1866 162.933 72.5599C162.56 72.9333 162.34 73.5133 162.273 74.2999H166.453C166.44 73.6333 166.266 73.0866 165.933 72.6599C165.6 72.2199 165.08 71.9999 164.373 71.9999ZM180.325 81.1999C179.111 81.1999 178.118 80.7266 177.345 79.7799C176.585 78.8199 176.205 77.4133 176.205 75.5599C176.205 73.6933 176.591 72.2799 177.365 71.3199C178.138 70.3599 179.151 69.8799 180.405 69.8799C181.191 69.8799 181.838 70.0333 182.345 70.3399C182.851 70.6466 183.251 71.0266 183.545 71.4799H183.645C183.605 71.2666 183.558 70.9599 183.505 70.5599C183.451 70.1466 183.425 69.7266 183.425 69.2999V65.7999H186.405V80.9999H184.125L183.545 79.5799H183.425C183.131 80.0333 182.738 80.4199 182.245 80.7399C181.751 81.0466 181.111 81.1999 180.325 81.1999ZM181.365 78.8199C182.191 78.8199 182.771 78.5799 183.105 78.0999C183.438 77.6066 183.611 76.8733 183.625 75.8999V75.5799C183.625 74.5133 183.458 73.6999 183.125 73.1399C182.805 72.5799 182.205 72.2999 181.325 72.2999C180.671 72.2999 180.158 72.5866 179.785 73.1599C179.411 73.7199 179.225 74.5333 179.225 75.5999C179.225 76.6666 179.411 77.4733 179.785 78.0199C180.158 78.5533 180.685 78.8199 181.365 78.8199ZM192.061 66.9399C191.888 67.6466 191.641 68.4199 191.321 69.2599C191.001 70.0999 190.674 70.8866 190.341 71.6199H188.201C188.388 70.8333 188.574 69.9933 188.761 69.0999C188.948 68.2066 189.088 67.4133 189.181 66.7199H191.921L192.061 66.9399ZM197.165 69.8799C198.672 69.8799 199.865 70.3133 200.745 71.1799C201.625 72.0333 202.065 73.2533 202.065 74.8399V76.2799H195.025C195.052 77.1199 195.299 77.7799 195.765 78.2599C196.245 78.7399 196.905 78.9799 197.745 78.9799C198.452 78.9799 199.092 78.9133 199.665 78.7799C200.239 78.6333 200.832 78.4133 201.445 78.1199V80.4199C200.912 80.6866 200.345 80.8799 199.745 80.9999C199.159 81.1333 198.445 81.1999 197.605 81.1999C196.512 81.1999 195.545 80.9999 194.705 80.5999C193.865 80.1866 193.205 79.5666 192.725 78.7399C192.245 77.9133 192.005 76.8733 192.005 75.6199C192.005 74.3399 192.219 73.2799 192.645 72.4399C193.085 71.5866 193.692 70.9466 194.465 70.5199C195.239 70.0933 196.139 69.8799 197.165 69.8799ZM197.185 71.9999C196.612 71.9999 196.132 72.1866 195.745 72.5599C195.372 72.9333 195.152 73.5133 195.085 74.2999H199.265C199.252 73.6333 199.079 73.0866 198.745 72.6599C198.412 72.2199 197.892 71.9999 197.185 71.9999ZM210.582 69.8799C210.729 69.8799 210.902 69.8866 211.102 69.8999C211.302 69.9133 211.462 69.9333 211.582 69.9599L211.362 72.7599C211.269 72.7333 211.129 72.7133 210.942 72.6999C210.769 72.6733 210.615 72.6599 210.482 72.6599C209.975 72.6599 209.489 72.7533 209.022 72.9399C208.555 73.1133 208.175 73.3999 207.882 73.7999C207.602 74.1999 207.462 74.7466 207.462 75.4399V80.9999H204.482V70.0799H206.742L207.182 71.9199H207.322C207.642 71.3599 208.082 70.8799 208.642 70.4799C209.202 70.0799 209.849 69.8799 210.582 69.8799ZM219.664 69.8799C219.811 69.8799 219.984 69.8866 220.184 69.8999C220.384 69.9133 220.544 69.9333 220.664 69.9599L220.444 72.7599C220.351 72.7333 220.211 72.7133 220.024 72.6999C219.851 72.6733 219.697 72.6599 219.564 72.6599C219.057 72.6599 218.571 72.7533 218.104 72.9399C217.637 73.1133 217.257 73.3999 216.964 73.7999C216.684 74.1999 216.544 74.7466 216.544 75.4399V80.9999H213.564V70.0799H215.824L216.264 71.9199H216.404C216.724 71.3599 217.164 70.8799 217.724 70.4799C218.284 70.0799 218.931 69.8799 219.664 69.8799ZM226.755 69.8799C228.262 69.8799 229.455 70.3133 230.335 71.1799C231.215 72.0333 231.655 73.2533 231.655 74.8399V76.2799H224.615C224.642 77.1199 224.889 77.7799 225.355 78.2599C225.835 78.7399 226.495 78.9799 227.335 78.9799C228.042 78.9799 228.682 78.9133 229.255 78.7799C229.829 78.6333 230.422 78.4133 231.035 78.1199V80.4199C230.502 80.6866 229.935 80.8799 229.335 80.9999C228.749 81.1333 228.035 81.1999 227.195 81.1999C226.102 81.1999 225.135 80.9999 224.295 80.5999C223.455 80.1866 222.795 79.5666 222.315 78.7399C221.835 77.9133 221.595 76.8733 221.595 75.6199C221.595 74.3399 221.809 73.2799 222.235 72.4399C222.675 71.5866 223.282 70.9466 224.055 70.5199C224.829 70.0933 225.729 69.8799 226.755 69.8799ZM226.775 71.9999C226.202 71.9999 225.722 72.1866 225.335 72.5599C224.962 72.9333 224.742 73.5133 224.675 74.2999H228.855C228.842 73.6333 228.669 73.0866 228.335 72.6599C228.002 72.2199 227.482 71.9999 226.775 71.9999ZM244.092 70.0799V80.9999H241.812L241.412 79.5999H241.252C240.905 80.1599 240.425 80.5666 239.812 80.8199C239.212 81.0733 238.572 81.1999 237.892 81.1999C236.718 81.1999 235.778 80.8866 235.072 80.2599C234.365 79.6199 234.012 78.5999 234.012 77.1999V70.0799H236.992V76.4599C236.992 77.2333 237.132 77.8199 237.412 78.2199C237.692 78.6199 238.138 78.8199 238.752 78.8199C239.658 78.8199 240.278 78.5133 240.612 77.8999C240.945 77.2733 241.112 76.3799 241.112 75.2199V70.0799H244.092ZM253.316 69.8799C253.463 69.8799 253.636 69.8866 253.836 69.8999C254.036 69.9133 254.196 69.9333 254.316 69.9599L254.096 72.7599C254.003 72.7333 253.863 72.7133 253.676 72.6999C253.503 72.6733 253.35 72.6599 253.216 72.6599C252.71 72.6599 252.223 72.7533 251.756 72.9399C251.29 73.1133 250.91 73.3999 250.616 73.7999C250.336 74.1999 250.196 74.7466 250.196 75.4399V80.9999H247.216V70.0799H249.476L249.916 71.9199H250.056C250.376 71.3599 250.816 70.8799 251.376 70.4799C251.936 70.0799 252.583 69.8799 253.316 69.8799ZM252.675 79.5999C252.675 78.9866 252.842 78.5599 253.175 78.3199C253.508 78.0666 253.915 77.9399 254.395 77.9399C254.862 77.9399 255.262 78.0666 255.595 78.3199C255.928 78.5599 256.095 78.9866 256.095 79.5999C256.095 80.1866 255.928 80.6133 255.595 80.8799C255.262 81.1333 254.862 81.2599 254.395 81.2599C253.915 81.2599 253.508 81.1333 253.175 80.8799C252.842 80.6133 252.675 80.1866 252.675 79.5999Z" fill="#A62A1E"/>
<rect x="54" y="99.9999" width="424" height="46" rx="2" fill="white"/>
<rect x="54" y="99.9999" width="424" height="46" rx="2" stroke="#D3080C" stroke-width="2"/>
<path d="M73.06 118.1C71.5267 118.1 70.32 118.613 69.44 119.64C68.56 120.667 68.12 122.073 68.12 123.86C68.12 125.633 68.5267 127.04 69.34 128.08C70.1667 129.107 71.4 129.62 73.04 129.62C73.6667 129.62 74.26 129.567 74.82 129.46C75.38 129.353 75.9267 129.22 76.46 129.06V130.62C75.9267 130.82 75.3733 130.967 74.8 131.06C74.24 131.153 73.5667 131.2 72.78 131.2C71.3267 131.2 70.1133 130.9 69.14 130.3C68.1667 129.7 67.4333 128.847 66.94 127.74C66.46 126.633 66.22 125.333 66.22 123.84C66.22 122.4 66.48 121.133 67 120.04C67.5333 118.933 68.3133 118.073 69.34 117.46C70.3667 116.833 71.6133 116.52 73.08 116.52C74.5867 116.52 75.9 116.8 77.02 117.36L76.3 118.88C75.86 118.68 75.3667 118.5 74.82 118.34C74.2867 118.18 73.7 118.1 73.06 118.1ZM83.4767 120.08C84.3967 120.08 85.1834 120.28 85.8367 120.68C86.5034 121.08 87.0101 121.647 87.3567 122.38C87.7167 123.1 87.8967 123.947 87.8967 124.92V125.98H80.5567C80.5834 127.193 80.8901 128.12 81.4767 128.76C82.0767 129.387 82.9101 129.7 83.9767 129.7C84.6567 129.7 85.2567 129.64 85.7767 129.52C86.3101 129.387 86.8567 129.2 87.4167 128.96V130.5C86.8701 130.74 86.3301 130.913 85.7967 131.02C85.2634 131.14 84.6301 131.2 83.8967 131.2C82.8834 131.2 81.9834 130.993 81.1967 130.58C80.4234 130.167 79.8167 129.553 79.3767 128.74C78.9501 127.913 78.7367 126.907 78.7367 125.72C78.7367 124.547 78.9301 123.54 79.3167 122.7C79.7167 121.86 80.2701 121.213 80.9767 120.76C81.6967 120.307 82.5301 120.08 83.4767 120.08ZM83.4567 121.52C82.6167 121.52 81.9501 121.793 81.4567 122.34C80.9767 122.873 80.6901 123.62 80.5967 124.58H86.0567C86.0434 123.673 85.8301 122.94 85.4167 122.38C85.0034 121.807 84.3501 121.52 83.4567 121.52ZM99.4011 129.76C99.6678 129.76 99.9411 129.74 100.221 129.7C100.501 129.647 100.728 129.593 100.901 129.54V130.88C100.714 130.973 100.448 131.047 100.101 131.1C99.7544 131.167 99.4211 131.2 99.1011 131.2C98.5411 131.2 98.0211 131.107 97.5411 130.92C97.0744 130.72 96.6944 130.38 96.4011 129.9C96.1078 129.42 95.9611 128.747 95.9611 127.88V121.64H94.4411V120.8L95.9811 120.1L96.6811 117.82H97.7211V120.28H100.821V121.64H97.7211V127.84C97.7211 128.493 97.8744 128.98 98.1811 129.3C98.5011 129.607 98.9078 129.76 99.4011 129.76ZM107.188 120.08C108.108 120.08 108.894 120.28 109.548 120.68C110.214 121.08 110.721 121.647 111.068 122.38C111.428 123.1 111.608 123.947 111.608 124.92V125.98H104.268C104.294 127.193 104.601 128.12 105.188 128.76C105.788 129.387 106.621 129.7 107.688 129.7C108.368 129.7 108.968 129.64 109.488 129.52C110.021 129.387 110.568 129.2 111.128 128.96V130.5C110.581 130.74 110.041 130.913 109.508 131.02C108.974 131.14 108.341 131.2 107.608 131.2C106.594 131.2 105.694 130.993 104.908 130.58C104.134 130.167 103.528 129.553 103.088 128.74C102.661 127.913 102.448 126.907 102.448 125.72C102.448 124.547 102.641 123.54 103.028 122.7C103.428 121.86 103.981 121.213 104.688 120.76C105.408 120.307 106.241 120.08 107.188 120.08ZM107.168 121.52C106.328 121.52 105.661 121.793 105.168 122.34C104.688 122.873 104.401 123.62 104.308 124.58H109.768C109.754 123.673 109.541 122.94 109.128 122.38C108.714 121.807 108.061 121.52 107.168 121.52ZM116.486 125.52L112.786 120.28H114.786L117.546 124.32L120.286 120.28H122.266L118.566 125.52L122.466 131H120.466L117.546 126.72L114.586 131H112.606L116.486 125.52ZM128.112 129.76C128.379 129.76 128.652 129.74 128.932 129.7C129.212 129.647 129.439 129.593 129.612 129.54V130.88C129.425 130.973 129.159 131.047 128.812 131.1C128.465 131.167 128.132 131.2 127.812 131.2C127.252 131.2 126.732 131.107 126.252 130.92C125.785 130.72 125.405 130.38 125.112 129.9C124.819 129.42 124.672 128.747 124.672 127.88V121.64H123.152V120.8L124.692 120.1L125.392 117.82H126.432V120.28H129.532V121.64H126.432V127.84C126.432 128.493 126.585 128.98 126.892 129.3C127.212 129.607 127.619 129.76 128.112 129.76ZM135.899 120.08C136.819 120.08 137.605 120.28 138.259 120.68C138.925 121.08 139.432 121.647 139.779 122.38C140.139 123.1 140.319 123.947 140.319 124.92V125.98H132.979C133.005 127.193 133.312 128.12 133.899 128.76C134.499 129.387 135.332 129.7 136.399 129.7C137.079 129.7 137.679 129.64 138.199 129.52C138.732 129.387 139.279 129.2 139.839 128.96V130.5C139.292 130.74 138.752 130.913 138.219 131.02C137.685 131.14 137.052 131.2 136.319 131.2C135.305 131.2 134.405 130.993 133.619 130.58C132.845 130.167 132.239 129.553 131.799 128.74C131.372 127.913 131.159 126.907 131.159 125.72C131.159 124.547 131.352 123.54 131.739 122.7C132.139 121.86 132.692 121.213 133.399 120.76C134.119 120.307 134.952 120.08 135.899 120.08ZM135.879 121.52C135.039 121.52 134.372 121.793 133.879 122.34C133.399 122.873 133.112 123.62 133.019 124.58H138.479C138.465 123.673 138.252 122.94 137.839 122.38C137.425 121.807 136.772 121.52 135.879 121.52ZM152.383 120.08C153.303 120.08 154.09 120.28 154.743 120.68C155.41 121.08 155.916 121.647 156.263 122.38C156.623 123.1 156.803 123.947 156.803 124.92V125.98H149.463C149.49 127.193 149.796 128.12 150.383 128.76C150.983 129.387 151.816 129.7 152.883 129.7C153.563 129.7 154.163 129.64 154.683 129.52C155.216 129.387 155.763 129.2 156.323 128.96V130.5C155.776 130.74 155.236 130.913 154.703 131.02C154.17 131.14 153.536 131.2 152.803 131.2C151.79 131.2 150.89 130.993 150.103 130.58C149.33 130.167 148.723 129.553 148.283 128.74C147.856 127.913 147.643 126.907 147.643 125.72C147.643 124.547 147.836 123.54 148.223 122.7C148.623 121.86 149.176 121.213 149.883 120.76C150.603 120.307 151.436 120.08 152.383 120.08ZM152.363 121.52C151.523 121.52 150.856 121.793 150.363 122.34C149.883 122.873 149.596 123.62 149.503 124.58H154.963C154.95 123.673 154.736 122.94 154.323 122.38C153.91 121.807 153.256 121.52 152.363 121.52ZM166.512 128.04C166.512 129.08 166.125 129.867 165.352 130.4C164.579 130.933 163.539 131.2 162.232 131.2C161.485 131.2 160.839 131.14 160.292 131.02C159.759 130.9 159.285 130.733 158.872 130.52V128.92C159.299 129.133 159.812 129.333 160.412 129.52C161.025 129.693 161.645 129.78 162.272 129.78C163.165 129.78 163.812 129.64 164.212 129.36C164.612 129.067 164.812 128.68 164.812 128.2C164.812 127.933 164.739 127.693 164.592 127.48C164.445 127.267 164.179 127.053 163.792 126.84C163.419 126.627 162.879 126.387 162.172 126.12C161.479 125.853 160.885 125.587 160.392 125.32C159.899 125.053 159.519 124.733 159.252 124.36C158.985 123.987 158.852 123.507 158.852 122.92C158.852 122.013 159.219 121.313 159.952 120.82C160.699 120.327 161.672 120.08 162.872 120.08C163.525 120.08 164.132 120.147 164.692 120.28C165.265 120.4 165.799 120.573 166.292 120.8L165.692 122.2C165.239 122.013 164.765 121.853 164.272 121.72C163.779 121.587 163.272 121.52 162.752 121.52C162.032 121.52 161.479 121.64 161.092 121.88C160.719 122.107 160.532 122.42 160.532 122.82C160.532 123.113 160.619 123.367 160.792 123.58C160.965 123.78 161.252 123.98 161.652 124.18C162.065 124.367 162.612 124.593 163.292 124.86C163.972 125.113 164.552 125.373 165.032 125.64C165.512 125.907 165.879 126.233 166.132 126.62C166.385 126.993 166.512 127.467 166.512 128.04ZM172.682 129.76C172.949 129.76 173.222 129.74 173.502 129.7C173.782 129.647 174.009 129.593 174.182 129.54V130.88C173.996 130.973 173.729 131.047 173.382 131.1C173.036 131.167 172.702 131.2 172.382 131.2C171.822 131.2 171.302 131.107 170.822 130.92C170.356 130.72 169.976 130.38 169.682 129.9C169.389 129.42 169.242 128.747 169.242 127.88V121.64H167.722V120.8L169.262 120.1L169.962 117.82H171.002V120.28H174.102V121.64H171.002V127.84C171.002 128.493 171.156 128.98 171.462 129.3C171.782 129.607 172.189 129.76 172.682 129.76ZM185.324 131.2C183.991 131.2 182.924 130.74 182.124 129.82C181.324 128.887 180.924 127.5 180.924 125.66C180.924 123.82 181.324 122.433 182.124 121.5C182.938 120.553 184.011 120.08 185.344 120.08C186.171 120.08 186.844 120.233 187.364 120.54C187.898 120.847 188.331 121.22 188.664 121.66H188.784C188.771 121.487 188.744 121.233 188.704 120.9C188.678 120.553 188.664 120.28 188.664 120.08V115.8H190.424V131H189.004L188.744 129.56H188.664C188.344 130.013 187.918 130.4 187.384 130.72C186.851 131.04 186.164 131.2 185.324 131.2ZM185.604 129.74C186.738 129.74 187.531 129.433 187.984 128.82C188.451 128.193 188.684 127.253 188.684 126V125.68C188.684 124.347 188.464 123.327 188.024 122.62C187.584 121.9 186.771 121.54 185.584 121.54C184.638 121.54 183.924 121.92 183.444 122.68C182.978 123.427 182.744 124.433 182.744 125.7C182.744 126.98 182.978 127.973 183.444 128.68C183.924 129.387 184.644 129.74 185.604 129.74ZM197.889 120.1C199.196 120.1 200.162 120.387 200.789 120.96C201.416 121.533 201.729 122.447 201.729 123.7V131H200.449L200.109 129.48H200.029C199.562 130.067 199.069 130.5 198.549 130.78C198.042 131.06 197.336 131.2 196.429 131.2C195.456 131.2 194.649 130.947 194.009 130.44C193.369 129.92 193.049 129.113 193.049 128.02C193.049 126.953 193.469 126.133 194.309 125.56C195.149 124.973 196.442 124.653 198.189 124.6L200.009 124.54V123.9C200.009 123.007 199.816 122.387 199.429 122.04C199.042 121.693 198.496 121.52 197.789 121.52C197.229 121.52 196.696 121.607 196.189 121.78C195.682 121.94 195.209 122.127 194.769 122.34L194.229 121.02C194.696 120.767 195.249 120.553 195.889 120.38C196.529 120.193 197.196 120.1 197.889 120.1ZM198.409 125.82C197.076 125.873 196.149 126.087 195.629 126.46C195.122 126.833 194.869 127.36 194.869 128.04C194.869 128.64 195.049 129.08 195.409 129.36C195.782 129.64 196.256 129.78 196.829 129.78C197.736 129.78 198.489 129.533 199.089 129.04C199.689 128.533 199.989 127.76 199.989 126.72V125.76L198.409 125.82ZM210.2 120.08C211.48 120.08 212.447 120.393 213.1 121.02C213.753 121.633 214.08 122.633 214.08 124.02V131H212.34V124.14C212.34 122.42 211.54 121.56 209.94 121.56C208.753 121.56 207.933 121.893 207.48 122.56C207.027 123.227 206.8 124.187 206.8 125.44V131H205.04V120.28H206.46L206.72 121.74H206.82C207.167 121.18 207.647 120.767 208.26 120.5C208.873 120.22 209.52 120.08 210.2 120.08ZM224.383 128.04C224.383 129.08 223.996 129.867 223.223 130.4C222.45 130.933 221.41 131.2 220.103 131.2C219.356 131.2 218.71 131.14 218.163 131.02C217.63 130.9 217.156 130.733 216.743 130.52V128.92C217.17 129.133 217.683 129.333 218.283 129.52C218.896 129.693 219.516 129.78 220.143 129.78C221.036 129.78 221.683 129.64 222.083 129.36C222.483 129.067 222.683 128.68 222.683 128.2C222.683 127.933 222.61 127.693 222.463 127.48C222.316 127.267 222.05 127.053 221.663 126.84C221.29 126.627 220.75 126.387 220.043 126.12C219.35 125.853 218.756 125.587 218.263 125.32C217.77 125.053 217.39 124.733 217.123 124.36C216.856 123.987 216.723 123.507 216.723 122.92C216.723 122.013 217.09 121.313 217.823 120.82C218.57 120.327 219.543 120.08 220.743 120.08C221.396 120.08 222.003 120.147 222.563 120.28C223.136 120.4 223.67 120.573 224.163 120.8L223.563 122.2C223.11 122.013 222.636 121.853 222.143 121.72C221.65 121.587 221.143 121.52 220.623 121.52C219.903 121.52 219.35 121.64 218.963 121.88C218.59 122.107 218.403 122.42 218.403 122.82C218.403 123.113 218.49 123.367 218.663 123.58C218.836 123.78 219.123 123.98 219.523 124.18C219.936 124.367 220.483 124.593 221.163 124.86C221.843 125.113 222.423 125.373 222.903 125.64C223.383 125.907 223.75 126.233 224.003 126.62C224.256 126.993 224.383 127.467 224.383 128.04ZM233.929 131H232.169V115.8H233.929V131ZM241.385 120.1C242.692 120.1 243.658 120.387 244.285 120.96C244.912 121.533 245.225 122.447 245.225 123.7V131H243.945L243.605 129.48H243.525C243.058 130.067 242.565 130.5 242.045 130.78C241.538 131.06 240.832 131.2 239.925 131.2C238.952 131.2 238.145 130.947 237.505 130.44C236.865 129.92 236.545 129.113 236.545 128.02C236.545 126.953 236.965 126.133 237.805 125.56C238.645 124.973 239.938 124.653 241.685 124.6L243.505 124.54V123.9C243.505 123.007 243.312 122.387 242.925 122.04C242.538 121.693 241.992 121.52 241.285 121.52C240.725 121.52 240.192 121.607 239.685 121.78C239.178 121.94 238.705 122.127 238.265 122.34L237.725 121.02C238.192 120.767 238.745 120.553 239.385 120.38C240.025 120.193 240.692 120.1 241.385 120.1ZM241.905 125.82C240.572 125.873 239.645 126.087 239.125 126.46C238.618 126.833 238.365 127.36 238.365 128.04C238.365 128.64 238.545 129.08 238.905 129.36C239.278 129.64 239.752 129.78 240.325 129.78C241.232 129.78 241.985 129.533 242.585 129.04C243.185 128.533 243.485 127.76 243.485 126.72V125.76L241.905 125.82ZM260.651 131H252.811V129.84L258.571 121.64H253.151V120.28H260.511V121.6L254.831 129.64H260.651V131ZM272.446 125.62C272.446 127.393 271.992 128.767 271.086 129.74C270.192 130.713 268.979 131.2 267.446 131.2C266.499 131.2 265.652 130.987 264.906 130.56C264.172 130.12 263.592 129.487 263.166 128.66C262.739 127.82 262.526 126.807 262.526 125.62C262.526 123.847 262.972 122.48 263.866 121.52C264.759 120.56 265.972 120.08 267.506 120.08C268.479 120.08 269.332 120.3 270.066 120.74C270.812 121.167 271.392 121.793 271.806 122.62C272.232 123.433 272.446 124.433 272.446 125.62ZM264.346 125.62C264.346 126.887 264.592 127.893 265.086 128.64C265.592 129.373 266.392 129.74 267.486 129.74C268.566 129.74 269.359 129.373 269.866 128.64C270.372 127.893 270.626 126.887 270.626 125.62C270.626 124.353 270.372 123.36 269.866 122.64C269.359 121.92 268.559 121.56 267.466 121.56C266.372 121.56 265.579 121.92 265.086 122.64C264.592 123.36 264.346 124.353 264.346 125.62ZM280.395 120.08C281.675 120.08 282.642 120.393 283.295 121.02C283.948 121.633 284.275 122.633 284.275 124.02V131H282.535V124.14C282.535 122.42 281.735 121.56 280.135 121.56C278.948 121.56 278.128 121.893 277.675 122.56C277.222 123.227 276.995 124.187 276.995 125.44V131H275.235V120.28H276.655L276.915 121.74H277.015C277.362 121.18 277.842 120.767 278.455 120.5C279.068 120.22 279.715 120.08 280.395 120.08ZM291.738 120.08C292.658 120.08 293.445 120.28 294.098 120.68C294.765 121.08 295.272 121.647 295.618 122.38C295.978 123.1 296.158 123.947 296.158 124.92V125.98H288.818C288.845 127.193 289.152 128.12 289.738 128.76C290.338 129.387 291.172 129.7 292.238 129.7C292.918 129.7 293.518 129.64 294.038 129.52C294.572 129.387 295.118 129.2 295.678 128.96V130.5C295.132 130.74 294.592 130.913 294.058 131.02C293.525 131.14 292.892 131.2 292.158 131.2C291.145 131.2 290.245 130.993 289.458 130.58C288.685 130.167 288.078 129.553 287.638 128.74C287.212 127.913 286.998 126.907 286.998 125.72C286.998 124.547 287.192 123.54 287.578 122.7C287.978 121.86 288.532 121.213 289.238 120.76C289.958 120.307 290.792 120.08 291.738 120.08ZM291.718 121.52C290.878 121.52 290.212 121.793 289.718 122.34C289.238 122.873 288.952 123.62 288.858 124.58H294.318C294.305 123.673 294.092 122.94 293.678 122.38C293.265 121.807 292.612 121.52 291.718 121.52ZM307.883 131.2C306.549 131.2 305.483 130.74 304.683 129.82C303.883 128.887 303.483 127.5 303.483 125.66C303.483 123.82 303.883 122.433 304.683 121.5C305.496 120.553 306.569 120.08 307.903 120.08C308.729 120.08 309.403 120.233 309.923 120.54C310.456 120.847 310.889 121.22 311.223 121.66H311.343C311.329 121.487 311.303 121.233 311.263 120.9C311.236 120.553 311.223 120.28 311.223 120.08V115.8H312.983V131H311.563L311.303 129.56H311.223C310.903 130.013 310.476 130.4 309.943 130.72C309.409 131.04 308.723 131.2 307.883 131.2ZM308.163 129.74C309.296 129.74 310.089 129.433 310.543 128.82C311.009 128.193 311.243 127.253 311.243 126V125.68C311.243 124.347 311.023 123.327 310.583 122.62C310.143 121.9 309.329 121.54 308.143 121.54C307.196 121.54 306.483 121.92 306.003 122.68C305.536 123.427 305.303 124.433 305.303 125.7C305.303 126.98 305.536 127.973 306.003 128.68C306.483 129.387 307.203 129.74 308.163 129.74ZM320.528 120.08C321.448 120.08 322.234 120.28 322.888 120.68C323.554 121.08 324.061 121.647 324.408 122.38C324.768 123.1 324.948 123.947 324.948 124.92V125.98H317.608C317.634 127.193 317.941 128.12 318.528 128.76C319.128 129.387 319.961 129.7 321.028 129.7C321.708 129.7 322.308 129.64 322.828 129.52C323.361 129.387 323.908 129.2 324.468 128.96V130.5C323.921 130.74 323.381 130.913 322.848 131.02C322.314 131.14 321.681 131.2 320.948 131.2C319.934 131.2 319.034 130.993 318.248 130.58C317.474 130.167 316.868 129.553 316.428 128.74C316.001 127.913 315.788 126.907 315.788 125.72C315.788 124.547 315.981 123.54 316.368 122.7C316.768 121.86 317.321 121.213 318.028 120.76C318.748 120.307 319.581 120.08 320.528 120.08ZM320.508 121.52C319.668 121.52 319.001 121.793 318.508 122.34C318.028 122.873 317.741 123.62 317.648 124.58H323.108C323.094 123.673 322.881 122.94 322.468 122.38C322.054 121.807 321.401 121.52 320.508 121.52ZM337.872 120.08C338.072 120.08 338.285 120.093 338.512 120.12C338.752 120.133 338.959 120.16 339.132 120.2L338.912 121.82C338.739 121.78 338.545 121.747 338.332 121.72C338.132 121.693 337.939 121.68 337.752 121.68C337.205 121.68 336.692 121.833 336.212 122.14C335.732 122.433 335.345 122.853 335.052 123.4C334.772 123.933 334.632 124.56 334.632 125.28V131H332.872V120.28H334.312L334.512 122.24H334.592C334.939 121.653 335.385 121.147 335.932 120.72C336.479 120.293 337.125 120.08 337.872 120.08ZM344.883 120.08C345.803 120.08 346.59 120.28 347.243 120.68C347.91 121.08 348.416 121.647 348.763 122.38C349.123 123.1 349.303 123.947 349.303 124.92V125.98H341.963C341.99 127.193 342.296 128.12 342.883 128.76C343.483 129.387 344.316 129.7 345.383 129.7C346.063 129.7 346.663 129.64 347.183 129.52C347.716 129.387 348.263 129.2 348.823 128.96V130.5C348.276 130.74 347.736 130.913 347.203 131.02C346.67 131.14 346.036 131.2 345.303 131.2C344.29 131.2 343.39 130.993 342.603 130.58C341.83 130.167 341.223 129.553 340.783 128.74C340.356 127.913 340.143 126.907 340.143 125.72C340.143 124.547 340.336 123.54 340.723 122.7C341.123 121.86 341.676 121.213 342.383 120.76C343.103 120.307 343.936 120.08 344.883 120.08ZM344.863 121.52C344.023 121.52 343.356 121.793 342.863 122.34C342.383 122.873 342.096 123.62 342.003 124.58H347.463C347.45 123.673 347.236 122.94 346.823 122.38C346.41 121.807 345.756 121.52 344.863 121.52ZM347.703 115.88C347.543 116.12 347.296 116.433 346.963 116.82C346.63 117.193 346.27 117.573 345.883 117.96C345.51 118.333 345.163 118.64 344.843 118.88H343.683V118.64C343.883 118.387 344.096 118.087 344.323 117.74C344.563 117.393 344.796 117.04 345.023 116.68C345.25 116.307 345.436 115.973 345.583 115.68H347.703V115.88ZM357.132 120.08C358.452 120.08 359.512 120.54 360.312 121.46C361.125 122.38 361.532 123.767 361.532 125.62C361.532 127.447 361.125 128.833 360.312 129.78C359.512 130.727 358.445 131.2 357.112 131.2C356.285 131.2 355.599 131.047 355.052 130.74C354.519 130.42 354.099 130.053 353.792 129.64H353.672C353.699 129.867 353.725 130.153 353.752 130.5C353.779 130.847 353.792 131.147 353.792 131.4V135.8H352.032V120.28H353.472L353.712 121.74H353.792C354.112 121.273 354.532 120.88 355.052 120.56C355.572 120.24 356.265 120.08 357.132 120.08ZM356.812 121.56C355.719 121.56 354.945 121.867 354.492 122.48C354.052 123.093 353.819 124.027 353.792 125.28V125.62C353.792 126.94 354.005 127.96 354.432 128.68C354.872 129.387 355.679 129.74 356.852 129.74C357.505 129.74 358.039 129.56 358.452 129.2C358.879 128.84 359.192 128.353 359.392 127.74C359.605 127.113 359.712 126.4 359.712 125.6C359.712 124.373 359.472 123.393 358.992 122.66C358.525 121.927 357.799 121.56 356.812 121.56ZM373.657 125.62C373.657 127.393 373.203 128.767 372.297 129.74C371.403 130.713 370.19 131.2 368.657 131.2C367.71 131.2 366.863 130.987 366.117 130.56C365.383 130.12 364.803 129.487 364.377 128.66C363.95 127.82 363.737 126.807 363.737 125.62C363.737 123.847 364.183 122.48 365.077 121.52C365.97 120.56 367.183 120.08 368.717 120.08C369.69 120.08 370.543 120.3 371.277 120.74C372.023 121.167 372.603 121.793 373.017 122.62C373.443 123.433 373.657 124.433 373.657 125.62ZM365.557 125.62C365.557 126.887 365.803 127.893 366.297 128.64C366.803 129.373 367.603 129.74 368.697 129.74C369.777 129.74 370.57 129.373 371.077 128.64C371.583 127.893 371.837 126.887 371.837 125.62C371.837 124.353 371.583 123.36 371.077 122.64C370.57 121.92 369.77 121.56 368.677 121.56C367.583 121.56 366.79 121.92 366.297 122.64C365.803 123.36 365.557 124.353 365.557 125.62ZM381.606 120.08C382.886 120.08 383.853 120.393 384.506 121.02C385.159 121.633 385.486 122.633 385.486 124.02V131H383.746V124.14C383.746 122.42 382.946 121.56 381.346 121.56C380.159 121.56 379.339 121.893 378.886 122.56C378.433 123.227 378.206 124.187 378.206 125.44V131H376.446V120.28H377.866L378.126 121.74H378.226C378.573 121.18 379.053 120.767 379.666 120.5C380.279 120.22 380.926 120.08 381.606 120.08ZM395.789 128.04C395.789 129.08 395.403 129.867 394.629 130.4C393.856 130.933 392.816 131.2 391.509 131.2C390.763 131.2 390.116 131.14 389.569 131.02C389.036 130.9 388.563 130.733 388.149 130.52V128.92C388.576 129.133 389.089 129.333 389.689 129.52C390.303 129.693 390.923 129.78 391.549 129.78C392.443 129.78 393.089 129.64 393.489 129.36C393.889 129.067 394.089 128.68 394.089 128.2C394.089 127.933 394.016 127.693 393.869 127.48C393.723 127.267 393.456 127.053 393.069 126.84C392.696 126.627 392.156 126.387 391.449 126.12C390.756 125.853 390.163 125.587 389.669 125.32C389.176 125.053 388.796 124.733 388.529 124.36C388.263 123.987 388.129 123.507 388.129 122.92C388.129 122.013 388.496 121.313 389.229 120.82C389.976 120.327 390.949 120.08 392.149 120.08C392.803 120.08 393.409 120.147 393.969 120.28C394.543 120.4 395.076 120.573 395.569 120.8L394.969 122.2C394.516 122.013 394.043 121.853 393.549 121.72C393.056 121.587 392.549 121.52 392.029 121.52C391.309 121.52 390.756 121.64 390.369 121.88C389.996 122.107 389.809 122.42 389.809 122.82C389.809 123.113 389.896 123.367 390.069 123.58C390.243 123.78 390.529 123.98 390.929 124.18C391.343 124.367 391.889 124.593 392.569 124.86C393.249 125.113 393.829 125.373 394.309 125.64C394.789 125.907 395.156 126.233 395.409 126.62C395.663 126.993 395.789 127.467 395.789 128.04ZM402.52 120.08C403.44 120.08 404.226 120.28 404.88 120.68C405.546 121.08 406.053 121.647 406.4 122.38C406.76 123.1 406.94 123.947 406.94 124.92V125.98H399.6C399.626 127.193 399.933 128.12 400.52 128.76C401.12 129.387 401.953 129.7 403.02 129.7C403.7 129.7 404.3 129.64 404.82 129.52C405.353 129.387 405.9 129.2 406.46 128.96V130.5C405.913 130.74 405.373 130.913 404.84 131.02C404.306 131.14 403.673 131.2 402.94 131.2C401.926 131.2 401.026 130.993 400.24 130.58C399.466 130.167 398.86 129.553 398.42 128.74C397.993 127.913 397.78 126.907 397.78 125.72C397.78 124.547 397.973 123.54 398.36 122.7C398.76 121.86 399.313 121.213 400.02 120.76C400.74 120.307 401.573 120.08 402.52 120.08ZM402.5 121.52C401.66 121.52 400.993 121.793 400.5 122.34C400.02 122.873 399.733 123.62 399.64 124.58H405.1C405.086 123.673 404.873 122.94 404.46 122.38C404.046 121.807 403.393 121.52 402.5 121.52Z" fill="#43474E"/>
<defs>
<clipPath id="clip0_2925_413">
<rect width="48" height="24" fill="white" transform="translate(393 0.999939)"/>
</clipPath>
<clipPath id="clip1_2925_413">
<rect x="417" y="0.999939" width="24" height="24" rx="12" fill="white"/>
</clipPath>
<clipPath id="clip2_2925_413">
<rect width="48" height="24" fill="white" transform="translate(0 29.8823)"/>
</clipPath>
<clipPath id="clip3_2925_413">
<rect y="29.8823" width="24" height="24" rx="12" fill="white"/>
</clipPath>
<clipPath id="clip4_2925_413">
<rect width="48" height="24" fill="white" transform="translate(0 62.8823)"/>
</clipPath>
<clipPath id="clip5_2925_413">
<rect y="62.8823" width="24" height="24" rx="12" fill="white"/>
</clipPath>
<clipPath id="clip6_2925_413">
<rect width="48" height="24" fill="white" transform="translate(0 110.882)"/>
</clipPath>
<clipPath id="clip7_2925_413">
<rect y="110.882" width="24" height="24" rx="12" fill="white"/>
</clipPath>
<clipPath id="clip8_2925_413">
<rect width="426" height="24" fill="white" transform="translate(53 -6.10352e-05)"/>
</clipPath>
</defs>
</svg>
