<svg width="1072" height="239" viewBox="0 0 1072 239" fill="none" xmlns="http://www.w3.org/2000/svg">
<path d="M97.3891 68.0896C98.3262 68.0896 99.1611 67.9334 99.8939 67.6211C100.639 67.3087 101.263 66.8702 101.768 66.3056C102.273 65.7409 102.657 65.0562 102.921 64.2513C103.198 63.4464 103.336 62.5453 103.336 61.5482V45.9426H108.183V61.5482C108.183 63.098 107.931 64.5336 107.426 65.8551C106.934 67.1645 106.219 68.2998 105.282 69.2609C104.357 70.21 103.228 70.9548 101.894 71.4954C100.561 72.024 99.059 72.2883 97.3891 72.2883C95.7072 72.2883 94.1995 72.024 92.866 71.4954C91.5325 70.9548 90.3972 70.21 89.4602 69.2609C88.5351 68.2998 87.8203 67.1645 87.3157 65.8551C86.8232 64.5336 86.5769 63.098 86.5769 61.5482V45.9426H91.4244V61.5302C91.4244 62.5273 91.5565 63.4283 91.8208 64.2332C92.0971 65.0381 92.4876 65.7289 92.9921 66.3056C93.5087 66.8702 94.1334 67.3087 94.8663 67.6211C95.6111 67.9334 96.452 68.0896 97.3891 68.0896ZM116.512 55.7817C116.884 55.4093 117.275 55.0669 117.683 54.7545C118.104 54.4302 118.542 54.1599 118.999 53.9436C119.467 53.7154 119.966 53.5412 120.494 53.421C121.023 53.2889 121.6 53.2228 122.224 53.2228C123.233 53.2228 124.128 53.397 124.909 53.7454C125.69 54.0818 126.339 54.5623 126.855 55.187C127.384 55.7997 127.78 56.5386 128.045 57.4035C128.321 58.2565 128.459 59.1996 128.459 60.2327V72H124.008V60.2327C124.008 59.1035 123.75 58.2325 123.233 57.6198C122.717 56.9951 121.93 56.6827 120.873 56.6827C120.104 56.6827 119.383 56.8569 118.71 57.2053C118.037 57.5537 117.401 58.0282 116.8 58.6289V72H112.349V53.5111H115.07C115.647 53.5111 116.025 53.7815 116.205 54.3221L116.512 55.7817ZM145.907 67.2066C146.412 67.8193 146.958 68.2518 147.547 68.5041C148.148 68.7563 148.796 68.8825 149.493 68.8825C150.166 68.8825 150.773 68.7563 151.313 68.5041C151.854 68.2518 152.31 67.8673 152.683 67.3508C153.067 66.8342 153.362 66.1854 153.566 65.4046C153.77 64.6117 153.872 63.6806 153.872 62.6114C153.872 61.5302 153.782 60.6172 153.602 59.8723C153.434 59.1155 153.187 58.5028 152.863 58.0342C152.539 57.5657 152.142 57.2233 151.674 57.0071C151.217 56.7908 150.695 56.6827 150.106 56.6827C149.181 56.6827 148.394 56.8809 147.745 57.2774C147.096 57.6618 146.484 58.2084 145.907 58.9172V67.2066ZM145.673 56.034C146.43 55.181 147.289 54.4903 148.25 53.9617C149.211 53.4331 150.34 53.1688 151.638 53.1688C152.647 53.1688 153.566 53.379 154.395 53.7995C155.236 54.2199 155.956 54.8326 156.557 55.6375C157.17 56.4304 157.638 57.4155 157.963 58.5929C158.299 59.7582 158.467 61.0977 158.467 62.6114C158.467 63.993 158.281 65.2724 157.909 66.4497C157.536 67.6271 157.002 68.6482 156.305 69.5132C155.62 70.3782 154.785 71.0569 153.8 71.5495C152.827 72.03 151.734 72.2703 150.52 72.2703C149.487 72.2703 148.604 72.1141 147.871 71.8018C147.139 71.4774 146.484 71.0329 145.907 70.4683V78.0368H141.456V53.5111H144.177C144.754 53.5111 145.132 53.7815 145.312 54.3221L145.673 56.034ZM166.139 56.7188C166.716 55.6135 167.4 54.7485 168.193 54.1238C168.986 53.4871 169.923 53.1688 171.004 53.1688C171.857 53.1688 172.542 53.355 173.059 53.7274L172.77 57.0611C172.71 57.2774 172.62 57.4336 172.5 57.5297C172.392 57.6138 172.242 57.6558 172.05 57.6558C171.869 57.6558 171.599 57.6258 171.239 57.5657C170.89 57.5057 170.548 57.4756 170.211 57.4756C169.719 57.4756 169.28 57.5477 168.896 57.6919C168.512 57.836 168.163 58.0463 167.851 58.3226C167.55 58.5869 167.28 58.9112 167.04 59.2957C166.812 59.6801 166.595 60.1186 166.391 60.6112V72H161.94V53.5111H164.553C165.01 53.5111 165.328 53.5952 165.508 53.7634C165.688 53.9196 165.809 54.2079 165.869 54.6284L166.139 56.7188ZM183.038 53.2228C184.408 53.2228 185.651 53.4451 186.769 53.8896C187.898 54.3341 188.859 54.9648 189.652 55.7817C190.457 56.5986 191.075 57.5958 191.508 58.7731C191.94 59.9504 192.157 61.2659 192.157 62.7195C192.157 64.1852 191.94 65.5067 191.508 66.684C191.075 67.8613 190.457 68.8645 189.652 69.6934C188.859 70.5223 187.898 71.1591 186.769 71.6036C185.651 72.0481 184.408 72.2703 183.038 72.2703C181.657 72.2703 180.401 72.0481 179.272 71.6036C178.143 71.1591 177.176 70.5223 176.371 69.6934C175.578 68.8645 174.959 67.8613 174.515 66.684C174.082 65.5067 173.866 64.1852 173.866 62.7195C173.866 61.2659 174.082 59.9504 174.515 58.7731C174.959 57.5958 175.578 56.5986 176.371 55.7817C177.176 54.9648 178.143 54.3341 179.272 53.8896C180.401 53.4451 181.657 53.2228 183.038 53.2228ZM183.038 68.8464C184.576 68.8464 185.711 68.3299 186.444 67.2967C187.189 66.2635 187.561 64.7498 187.561 62.7556C187.561 60.7613 187.189 59.2416 186.444 58.1964C185.711 57.1513 184.576 56.6287 183.038 56.6287C181.477 56.6287 180.317 57.1573 179.56 58.2145C178.816 59.2596 178.443 60.7733 178.443 62.7556C178.443 64.7378 178.816 66.2515 179.56 67.2967C180.317 68.3299 181.477 68.8464 183.038 68.8464ZM200.003 67.2066C200.508 67.8193 201.054 68.2518 201.643 68.5041C202.244 68.7563 202.875 68.8825 203.535 68.8825C204.22 68.8825 204.833 68.7623 205.373 68.5221C205.926 68.2698 206.395 67.8854 206.779 67.3688C207.163 66.8402 207.458 66.1734 207.662 65.3685C207.866 64.5516 207.968 63.5785 207.968 62.4492C207.968 60.4189 207.632 58.9533 206.959 58.0523C206.286 57.1392 205.319 56.6827 204.058 56.6827C203.205 56.6827 202.46 56.8809 201.823 57.2774C201.187 57.6618 200.58 58.2084 200.003 58.9172V67.2066ZM200.003 55.7817C200.748 55.0008 201.571 54.3821 202.472 53.9256C203.385 53.4571 204.424 53.2228 205.59 53.2228C206.659 53.2228 207.62 53.4331 208.473 53.8535C209.338 54.274 210.071 54.8807 210.671 55.6736C211.284 56.4545 211.753 57.4035 212.077 58.5208C212.401 59.6381 212.563 60.8935 212.563 62.287C212.563 63.7887 212.377 65.1523 212.005 66.3777C211.632 67.603 211.098 68.6542 210.401 69.5312C209.716 70.3962 208.887 71.0689 207.914 71.5495C206.941 72.03 205.86 72.2703 204.671 72.2703C204.094 72.2703 203.571 72.2102 203.103 72.0901C202.634 71.982 202.202 71.8258 201.805 71.6216C201.409 71.4173 201.042 71.1711 200.706 70.8827C200.382 70.5824 200.069 70.252 199.769 69.8916L199.571 71.135C199.499 71.4474 199.373 71.6696 199.192 71.8018C199.024 71.9339 198.79 72 198.49 72H195.552V45.2218H200.003V55.7817ZM220.506 45.2218V72H216.055V45.2218H220.506ZM236.852 60.6292C236.852 60.0525 236.768 59.5119 236.6 59.0073C236.444 58.4908 236.204 58.0403 235.879 57.6558C235.555 57.2714 235.14 56.971 234.636 56.7548C234.143 56.5265 233.567 56.4124 232.906 56.4124C231.62 56.4124 230.605 56.7788 229.86 57.5117C229.128 58.2445 228.659 59.2837 228.455 60.6292H236.852ZM228.365 63.3142C228.437 64.2633 228.605 65.0862 228.869 65.783C229.134 66.4678 229.482 67.0384 229.915 67.4949C230.347 67.9394 230.858 68.2758 231.446 68.5041C232.047 68.7203 232.708 68.8284 233.428 68.8284C234.149 68.8284 234.768 68.7443 235.285 68.5761C235.813 68.4079 236.27 68.2217 236.654 68.0175C237.051 67.8133 237.393 67.6271 237.681 67.4589C237.982 67.2907 238.27 67.2066 238.546 67.2066C238.919 67.2066 239.195 67.3447 239.375 67.6211L240.655 69.2429C240.162 69.8195 239.609 70.3061 238.997 70.7025C238.384 71.087 237.741 71.3993 237.069 71.6396C236.408 71.8679 235.729 72.03 235.032 72.1261C234.348 72.2223 233.681 72.2703 233.032 72.2703C231.747 72.2703 230.551 72.0601 229.446 71.6396C228.341 71.2071 227.38 70.5764 226.563 69.7475C225.746 68.9065 225.103 67.8733 224.635 66.648C224.166 65.4106 223.932 63.981 223.932 62.3591C223.932 61.0977 224.136 59.9144 224.544 58.8091C224.953 57.6919 225.536 56.7248 226.292 55.9078C227.061 55.0789 227.992 54.4242 229.086 53.9436C230.191 53.4631 231.434 53.2228 232.816 53.2228C233.981 53.2228 235.056 53.409 236.041 53.7815C237.027 54.1539 237.873 54.7005 238.582 55.4213C239.291 56.1301 239.844 57.0071 240.24 58.0523C240.649 59.0854 240.853 60.2688 240.853 61.6023C240.853 62.275 240.781 62.7315 240.637 62.9718C240.492 63.2001 240.216 63.3142 239.808 63.3142H228.365ZM231.32 45.6543C231.813 45.6543 232.179 45.7384 232.419 45.9066C232.66 46.0627 232.864 46.297 233.032 46.6094L235.609 50.9883H233.068C232.732 50.9883 232.455 50.9463 232.239 50.8622C232.035 50.766 231.825 50.5979 231.608 50.3576L227.157 45.6543H231.32ZM244.193 72V53.5111H246.914C247.491 53.5111 247.869 53.7815 248.049 54.3221L248.338 55.6916C248.662 55.3312 248.998 55.0008 249.347 54.7005C249.707 54.4001 250.086 54.1419 250.482 53.9256C250.891 53.7094 251.323 53.5412 251.78 53.421C252.248 53.2889 252.759 53.2228 253.311 53.2228C254.477 53.2228 255.432 53.5412 256.177 54.1779C256.933 54.8026 257.498 55.6375 257.871 56.6827C258.159 56.07 258.519 55.5474 258.952 55.115C259.384 54.6705 259.859 54.31 260.375 54.0337C260.892 53.7574 261.439 53.5532 262.015 53.421C262.604 53.2889 263.193 53.2228 263.781 53.2228C264.802 53.2228 265.709 53.379 266.502 53.6913C267.295 54.0037 267.962 54.4602 268.502 55.0609C269.043 55.6616 269.452 56.3944 269.728 57.2594C270.016 58.1243 270.16 59.1155 270.16 60.2327V72H265.709V60.2327C265.709 59.0554 265.451 58.1724 264.934 57.5837C264.418 56.9831 263.661 56.6827 262.664 56.6827C262.207 56.6827 261.781 56.7608 261.384 56.917C261 57.0732 260.658 57.3014 260.357 57.6018C260.069 57.8901 259.841 58.2565 259.673 58.701C259.504 59.1455 259.42 59.6561 259.42 60.2327V72H254.951V60.2327C254.951 58.9953 254.699 58.0943 254.194 57.5297C253.702 56.965 252.975 56.6827 252.014 56.6827C251.365 56.6827 250.758 56.8449 250.194 57.1693C249.641 57.4816 249.125 57.9141 248.644 58.4667V72H244.193ZM286.303 60.6292C286.303 60.0525 286.219 59.5119 286.05 59.0073C285.894 58.4908 285.654 58.0403 285.33 57.6558C285.005 57.2714 284.591 56.971 284.086 56.7548C283.594 56.5265 283.017 56.4124 282.356 56.4124C281.071 56.4124 280.056 56.7788 279.311 57.5117C278.578 58.2445 278.109 59.2837 277.905 60.6292H286.303ZM277.815 63.3142C277.887 64.2633 278.055 65.0862 278.32 65.783C278.584 66.4678 278.932 67.0384 279.365 67.4949C279.797 67.9394 280.308 68.2758 280.897 68.5041C281.497 68.7203 282.158 68.8284 282.879 68.8284C283.6 68.8284 284.218 68.7443 284.735 68.5761C285.263 68.4079 285.72 68.2217 286.104 68.0175C286.501 67.8133 286.843 67.6271 287.132 67.4589C287.432 67.2907 287.72 67.2066 287.997 67.2066C288.369 67.2066 288.645 67.3447 288.825 67.6211L290.105 69.2429C289.612 69.8195 289.06 70.3061 288.447 70.7025C287.834 71.087 287.192 71.3993 286.519 71.6396C285.858 71.8679 285.179 72.03 284.483 72.1261C283.798 72.2223 283.131 72.2703 282.482 72.2703C281.197 72.2703 280.002 72.0601 278.896 71.6396C277.791 71.2071 276.83 70.5764 276.013 69.7475C275.196 68.9065 274.553 67.8733 274.085 66.648C273.616 65.4106 273.382 63.981 273.382 62.3591C273.382 61.0977 273.586 59.9144 273.995 58.8091C274.403 57.6919 274.986 56.7248 275.743 55.9078C276.512 55.0789 277.443 54.4242 278.536 53.9436C279.641 53.4631 280.885 53.2228 282.266 53.2228C283.431 53.2228 284.507 53.409 285.492 53.7815C286.477 54.1539 287.324 54.7005 288.033 55.4213C288.741 56.1301 289.294 57.0071 289.69 58.0523C290.099 59.0854 290.303 60.2688 290.303 61.6023C290.303 62.275 290.231 62.7315 290.087 62.9718C289.943 63.2001 289.666 63.3142 289.258 63.3142H277.815ZM314.319 60.6292C314.319 60.0525 314.235 59.5119 314.066 59.0073C313.91 58.4908 313.67 58.0403 313.346 57.6558C313.021 57.2714 312.607 56.971 312.102 56.7548C311.61 56.5265 311.033 56.4124 310.372 56.4124C309.087 56.4124 308.072 56.7788 307.327 57.5117C306.594 58.2445 306.125 59.2837 305.921 60.6292H314.319ZM305.831 63.3142C305.903 64.2633 306.071 65.0862 306.336 65.783C306.6 66.4678 306.948 67.0384 307.381 67.4949C307.813 67.9394 308.324 68.2758 308.913 68.5041C309.513 68.7203 310.174 68.8284 310.895 68.8284C311.616 68.8284 312.234 68.7443 312.751 68.5761C313.279 68.4079 313.736 68.2217 314.12 68.0175C314.517 67.8133 314.859 67.6271 315.148 67.4589C315.448 67.2907 315.736 67.2066 316.013 67.2066C316.385 67.2066 316.661 67.3447 316.841 67.6211L318.121 69.2429C317.628 69.8195 317.076 70.3061 316.463 70.7025C315.85 71.087 315.208 71.3993 314.535 71.6396C313.874 71.8679 313.195 72.03 312.499 72.1261C311.814 72.2223 311.147 72.2703 310.498 72.2703C309.213 72.2703 308.018 72.0601 306.912 71.6396C305.807 71.2071 304.846 70.5764 304.029 69.7475C303.212 68.9065 302.569 67.8733 302.101 66.648C301.632 65.4106 301.398 63.981 301.398 62.3591C301.398 61.0977 301.602 59.9144 302.011 58.8091C302.419 57.6919 303.002 56.7248 303.759 55.9078C304.528 55.0789 305.459 54.4242 306.552 53.9436C307.657 53.4631 308.9 53.2228 310.282 53.2228C311.447 53.2228 312.523 53.409 313.508 53.7815C314.493 54.1539 315.34 54.7005 316.049 55.4213C316.757 56.1301 317.31 57.0071 317.706 58.0523C318.115 59.0854 318.319 60.2688 318.319 61.6023C318.319 62.275 318.247 62.7315 318.103 62.9718C317.959 63.2001 317.682 63.3142 317.274 63.3142H305.831ZM332.94 57.1152C332.82 57.3074 332.694 57.4456 332.562 57.5297C332.43 57.6018 332.261 57.6378 332.057 57.6378C331.841 57.6378 331.607 57.5777 331.354 57.4576C331.114 57.3375 330.832 57.2053 330.507 57.0611C330.183 56.905 329.811 56.7668 329.39 56.6467C328.982 56.5265 328.495 56.4665 327.93 56.4665C327.053 56.4665 326.363 56.6527 325.858 57.0251C325.366 57.3975 325.119 57.8841 325.119 58.4848C325.119 58.8812 325.245 59.2176 325.498 59.4939C325.762 59.7582 326.104 59.9925 326.525 60.1967C326.957 60.4009 327.444 60.5871 327.984 60.7553C328.525 60.9115 329.072 61.0857 329.624 61.2779C330.189 61.4701 330.742 61.6924 331.282 61.9447C331.823 62.1849 332.303 62.4973 332.724 62.8817C333.156 63.2541 333.499 63.7046 333.751 64.2332C334.015 64.7618 334.147 65.3986 334.147 66.1434C334.147 67.0324 333.985 67.8553 333.661 68.6122C333.349 69.357 332.88 70.0058 332.255 70.5584C331.631 71.099 330.856 71.5255 329.931 71.8378C329.018 72.1382 327.96 72.2883 326.759 72.2883C326.122 72.2883 325.498 72.2283 324.885 72.1081C324.284 72 323.702 71.8438 323.137 71.6396C322.584 71.4354 322.068 71.1951 321.587 70.9188C321.119 70.6425 320.704 70.3421 320.344 70.0178L321.371 68.3239C321.503 68.1196 321.659 67.9634 321.84 67.8553C322.02 67.7472 322.248 67.6931 322.524 67.6931C322.801 67.6931 323.059 67.7712 323.299 67.9274C323.551 68.0836 323.84 68.2518 324.164 68.432C324.489 68.6122 324.867 68.7804 325.299 68.9365C325.744 69.0927 326.303 69.1708 326.975 69.1708C327.504 69.1708 327.954 69.1107 328.327 68.9906C328.711 68.8585 329.024 68.6903 329.264 68.486C329.516 68.2818 329.696 68.0475 329.805 67.7832C329.925 67.5069 329.985 67.2246 329.985 66.9363C329.985 66.5038 329.853 66.1494 329.588 65.8731C329.336 65.5968 328.994 65.3565 328.561 65.1523C328.141 64.948 327.654 64.7678 327.101 64.6117C326.561 64.4435 326.002 64.2633 325.426 64.0711C324.861 63.8788 324.302 63.6566 323.75 63.4043C323.209 63.14 322.723 62.8096 322.29 62.4132C321.87 62.0167 321.527 61.5302 321.263 60.9535C321.011 60.3769 320.884 59.6801 320.884 58.8632C320.884 58.1063 321.035 57.3855 321.335 56.7007C321.635 56.016 322.074 55.4213 322.65 54.9167C323.239 54.4001 323.966 53.9917 324.831 53.6913C325.708 53.379 326.717 53.2228 327.858 53.2228C329.132 53.2228 330.291 53.4331 331.336 53.8535C332.381 54.274 333.252 54.8266 333.949 55.5114L332.94 57.1152ZM343.66 72.2883C342.051 72.2883 340.813 71.8378 339.948 70.9368C339.095 70.0238 338.669 68.7684 338.669 67.1706V56.8449H336.777C336.536 56.8449 336.332 56.7668 336.164 56.6106C335.996 56.4545 335.912 56.2202 335.912 55.9078V54.1419L338.885 53.6553L339.822 48.6096C339.882 48.3693 339.996 48.1831 340.165 48.051C340.333 47.9188 340.549 47.8528 340.813 47.8528H343.12V53.6733H348.057V56.8449H343.12V66.8642C343.12 67.4409 343.258 67.8914 343.534 68.2157C343.823 68.5401 344.213 68.7023 344.706 68.7023C344.982 68.7023 345.21 68.6722 345.39 68.6122C345.583 68.5401 345.745 68.468 345.877 68.3959C346.021 68.3239 346.147 68.2578 346.255 68.1977C346.364 68.1256 346.472 68.0896 346.58 68.0896C346.712 68.0896 346.82 68.1256 346.904 68.1977C346.988 68.2578 347.078 68.3539 347.174 68.486L348.508 70.6485C347.859 71.1891 347.114 71.5975 346.273 71.8739C345.432 72.1502 344.562 72.2883 343.66 72.2883ZM370.952 57.1152C370.832 57.3074 370.705 57.4456 370.573 57.5297C370.441 57.6018 370.273 57.6378 370.069 57.6378C369.852 57.6378 369.618 57.5777 369.366 57.4576C369.126 57.3375 368.843 57.2053 368.519 57.0611C368.195 56.905 367.822 56.7668 367.402 56.6467C366.993 56.5265 366.507 56.4665 365.942 56.4665C365.065 56.4665 364.374 56.6527 363.87 57.0251C363.377 57.3975 363.131 57.8841 363.131 58.4848C363.131 58.8812 363.257 59.2176 363.509 59.4939C363.774 59.7582 364.116 59.9925 364.536 60.1967C364.969 60.4009 365.456 60.5871 365.996 60.7553C366.537 60.9115 367.083 61.0857 367.636 61.2779C368.201 61.4701 368.753 61.6924 369.294 61.9447C369.834 62.1849 370.315 62.4973 370.735 62.8817C371.168 63.2541 371.51 63.7046 371.763 64.2332C372.027 64.7618 372.159 65.3986 372.159 66.1434C372.159 67.0324 371.997 67.8553 371.673 68.6122C371.36 69.357 370.892 70.0058 370.267 70.5584C369.642 71.099 368.867 71.5255 367.942 71.8378C367.029 72.1382 365.972 72.2883 364.771 72.2883C364.134 72.2883 363.509 72.2283 362.897 72.1081C362.296 72 361.713 71.8438 361.149 71.6396C360.596 71.4354 360.079 71.1951 359.599 70.9188C359.13 70.6425 358.716 70.3421 358.355 70.0178L359.383 68.3239C359.515 68.1196 359.671 67.9634 359.851 67.8553C360.031 67.7472 360.26 67.6931 360.536 67.6931C360.812 67.6931 361.071 67.7712 361.311 67.9274C361.563 68.0836 361.851 68.2518 362.176 68.432C362.5 68.6122 362.879 68.7804 363.311 68.9365C363.756 69.0927 364.314 69.1708 364.987 69.1708C365.516 69.1708 365.966 69.1107 366.339 68.9906C366.723 68.8585 367.035 68.6903 367.276 68.486C367.528 68.2818 367.708 68.0475 367.816 67.7832C367.936 67.5069 367.996 67.2246 367.996 66.9363C367.996 66.5038 367.864 66.1494 367.6 65.8731C367.348 65.5968 367.005 65.3565 366.573 65.1523C366.152 64.948 365.666 64.7678 365.113 64.6117C364.573 64.4435 364.014 64.2633 363.437 64.0711C362.873 63.8788 362.314 63.6566 361.761 63.4043C361.221 63.14 360.734 62.8096 360.302 62.4132C359.881 62.0167 359.539 61.5302 359.275 60.9535C359.022 60.3769 358.896 59.6801 358.896 58.8632C358.896 58.1063 359.046 57.3855 359.347 56.7007C359.647 56.016 360.085 55.4213 360.662 54.9167C361.251 54.4001 361.978 53.9917 362.843 53.6913C363.72 53.379 364.729 53.2228 365.87 53.2228C367.143 53.2228 368.303 53.4331 369.348 53.8535C370.393 54.274 371.264 54.8266 371.961 55.5114L370.952 57.1152ZM391.439 53.5111V72H388.718C388.129 72 387.757 71.7297 387.601 71.1891L387.294 69.7114C386.538 70.4803 385.703 71.105 384.79 71.5855C383.877 72.0541 382.801 72.2883 381.564 72.2883C380.555 72.2883 379.66 72.1201 378.879 71.7838C378.11 71.4354 377.461 70.9488 376.933 70.3241C376.404 69.6994 376.002 68.9606 375.725 68.1076C375.461 67.2426 375.329 66.2936 375.329 65.2604V53.5111H379.78V65.2604C379.78 66.3897 380.038 67.2667 380.555 67.8914C381.083 68.5041 381.87 68.8104 382.916 68.8104C383.684 68.8104 384.405 68.6422 385.078 68.3058C385.751 67.9574 386.387 67.4829 386.988 66.8822V53.5111H391.439ZM400.051 56.7188C400.628 55.6135 401.313 54.7485 402.105 54.1238C402.898 53.4871 403.835 53.1688 404.917 53.1688C405.77 53.1688 406.454 53.355 406.971 53.7274L406.683 57.0611C406.623 57.2774 406.532 57.4336 406.412 57.5297C406.304 57.6138 406.154 57.6558 405.962 57.6558C405.782 57.6558 405.511 57.6258 405.151 57.5657C404.803 57.5057 404.46 57.4756 404.124 57.4756C403.631 57.4756 403.193 57.5477 402.808 57.6919C402.424 57.836 402.075 58.0463 401.763 58.3226C401.463 58.5869 401.192 58.9112 400.952 59.2957C400.724 59.6801 400.508 60.1186 400.303 60.6112V72H395.852V53.5111H398.465C398.922 53.5111 399.24 53.5952 399.42 53.7634C399.601 53.9196 399.721 54.2079 399.781 54.6284L400.051 56.7188ZM425.966 53.5111L418.632 72H414.595L407.261 53.5111H410.937C411.273 53.5111 411.55 53.5892 411.766 53.7454C411.994 53.9016 412.144 54.0998 412.217 54.3401L415.785 64.2152C415.977 64.7919 416.145 65.3565 416.289 65.9091C416.433 66.4618 416.559 67.0144 416.668 67.567C416.788 67.0144 416.92 66.4618 417.064 65.9091C417.208 65.3565 417.382 64.7919 417.587 64.2152L421.227 54.3401C421.311 54.0998 421.461 53.9016 421.677 53.7454C421.893 53.5892 422.152 53.5111 422.452 53.5111H425.966ZM439.687 60.6292C439.687 60.0525 439.602 59.5119 439.434 59.0073C439.278 58.4908 439.038 58.0403 438.713 57.6558C438.389 57.2714 437.975 56.971 437.47 56.7548C436.978 56.5265 436.401 56.4124 435.74 56.4124C434.455 56.4124 433.44 56.7788 432.695 57.5117C431.962 58.2445 431.493 59.2837 431.289 60.6292H439.687ZM431.199 63.3142C431.271 64.2633 431.439 65.0862 431.704 65.783C431.968 66.4678 432.316 67.0384 432.749 67.4949C433.181 67.9394 433.692 68.2758 434.28 68.5041C434.881 68.7203 435.542 68.8284 436.263 68.8284C436.984 68.8284 437.602 68.7443 438.119 68.5761C438.647 68.4079 439.104 68.2217 439.488 68.0175C439.885 67.8133 440.227 67.6271 440.516 67.4589C440.816 67.2907 441.104 67.2066 441.38 67.2066C441.753 67.2066 442.029 67.3447 442.209 67.6211L443.489 69.2429C442.996 69.8195 442.444 70.3061 441.831 70.7025C441.218 71.087 440.576 71.3993 439.903 71.6396C439.242 71.8679 438.563 72.03 437.867 72.1261C437.182 72.2223 436.515 72.2703 435.866 72.2703C434.581 72.2703 433.385 72.0601 432.28 71.6396C431.175 71.2071 430.214 70.5764 429.397 69.7475C428.58 68.9065 427.937 67.8733 427.469 66.648C427 65.4106 426.766 63.981 426.766 62.3591C426.766 61.0977 426.97 59.9144 427.379 58.8091C427.787 57.6919 428.37 56.7248 429.127 55.9078C429.896 55.0789 430.827 54.4242 431.92 53.9436C433.025 53.4631 434.268 53.2228 435.65 53.2228C436.815 53.2228 437.891 53.409 438.876 53.7815C439.861 54.1539 440.708 54.7005 441.417 55.4213C442.125 56.1301 442.678 57.0071 443.074 58.0523C443.483 59.0854 443.687 60.2688 443.687 61.6023C443.687 62.275 443.615 62.7315 443.471 62.9718C443.327 63.2001 443.05 63.3142 442.642 63.3142H431.199ZM451.19 55.7817C451.562 55.4093 451.953 55.0669 452.361 54.7545C452.782 54.4302 453.22 54.1599 453.677 53.9436C454.145 53.7154 454.644 53.5412 455.173 53.421C455.701 53.2889 456.278 53.2228 456.902 53.2228C457.912 53.2228 458.807 53.397 459.588 53.7454C460.368 54.0818 461.017 54.5623 461.534 55.187C462.062 55.7997 462.459 56.5386 462.723 57.4035C462.999 58.2565 463.138 59.1996 463.138 60.2327V72H458.686V60.2327C458.686 59.1035 458.428 58.2325 457.912 57.6198C457.395 56.9951 456.608 56.6827 455.551 56.6827C454.782 56.6827 454.061 56.8569 453.389 57.2053C452.716 57.5537 452.079 58.0282 451.478 58.6289V72H447.027V53.5111H449.748C450.325 53.5111 450.703 53.7815 450.884 54.3221L451.19 55.7817ZM483.301 53.5111V72H480.579C479.991 72 479.618 71.7297 479.462 71.1891L479.156 69.7114C478.399 70.4803 477.564 71.105 476.651 71.5855C475.738 72.0541 474.663 72.2883 473.425 72.2883C472.416 72.2883 471.521 72.1201 470.74 71.7838C469.972 71.4354 469.323 70.9488 468.794 70.3241C468.266 69.6994 467.863 68.9606 467.587 68.1076C467.323 67.2426 467.19 66.2936 467.19 65.2604V53.5111H471.641V65.2604C471.641 66.3897 471.9 67.2667 472.416 67.8914C472.945 68.5041 473.732 68.8104 474.777 68.8104C475.546 68.8104 476.267 68.6422 476.939 68.3058C477.612 67.9574 478.249 67.4829 478.85 66.8822V53.5111H483.301Z" fill="#333333"/>
<path d="M91.1 119H89.38V109.02C89.38 108.447 89.3867 107.987 89.4 107.64C89.4133 107.293 89.4333 106.933 89.46 106.56C89.2467 106.773 89.0533 106.953 88.88 107.1C88.7067 107.247 88.4867 107.433 88.22 107.66L86.7 108.9L85.78 107.72L89.64 104.72H91.1V119ZM96.8853 117.92C96.8853 117.427 97.0053 117.08 97.2453 116.88C97.4853 116.68 97.772 116.58 98.1053 116.58C98.452 116.58 98.7453 116.68 98.9853 116.88C99.2386 117.08 99.3653 117.427 99.3653 117.92C99.3653 118.4 99.2386 118.747 98.9853 118.96C98.7453 119.173 98.452 119.28 98.1053 119.28C97.772 119.28 97.4853 119.173 97.2453 118.96C97.0053 118.747 96.8853 118.4 96.8853 117.92Z" fill="#333333"/>
<path d="M119.92 119H111.94V104.72H119.92V106.3H113.74V110.76H119.56V112.32H113.74V117.42H119.92V119ZM119.06 100.32C118.9 100.56 118.653 100.873 118.32 101.26C117.987 101.633 117.627 102.013 117.24 102.4C116.867 102.773 116.52 103.08 116.2 103.32H115.04V103.08C115.24 102.827 115.453 102.527 115.68 102.18C115.92 101.833 116.153 101.48 116.38 101.12C116.607 100.747 116.793 100.413 116.94 100.12H119.06V100.32ZM124.573 119H122.813V103.8H124.573V119ZM132.11 108.08C133.03 108.08 133.816 108.28 134.47 108.68C135.136 109.08 135.643 109.647 135.99 110.38C136.35 111.1 136.53 111.947 136.53 112.92V113.98H129.19C129.216 115.193 129.523 116.12 130.11 116.76C130.71 117.387 131.543 117.7 132.61 117.7C133.29 117.7 133.89 117.64 134.41 117.52C134.943 117.387 135.49 117.2 136.05 116.96V118.5C135.503 118.74 134.963 118.913 134.43 119.02C133.896 119.14 133.263 119.2 132.53 119.2C131.516 119.2 130.616 118.993 129.83 118.58C129.056 118.167 128.45 117.553 128.01 116.74C127.583 115.913 127.37 114.907 127.37 113.72C127.37 112.547 127.563 111.54 127.95 110.7C128.35 109.86 128.903 109.213 129.61 108.76C130.33 108.307 131.163 108.08 132.11 108.08ZM132.09 109.52C131.25 109.52 130.583 109.793 130.09 110.34C129.61 110.873 129.323 111.62 129.23 112.58H134.69C134.676 111.673 134.463 110.94 134.05 110.38C133.636 109.807 132.983 109.52 132.09 109.52ZM134.93 103.88C134.77 104.12 134.523 104.433 134.19 104.82C133.856 105.193 133.496 105.573 133.11 105.96C132.736 106.333 132.39 106.64 132.07 106.88H130.91V106.64C131.11 106.387 131.323 106.087 131.55 105.74C131.79 105.393 132.023 105.04 132.25 104.68C132.476 104.307 132.663 103.973 132.81 103.68H134.93V103.88ZM151.019 108.08C152.232 108.08 153.139 108.393 153.739 109.02C154.339 109.633 154.639 110.633 154.639 112.02V119H152.899V112.1C152.899 110.407 152.172 109.56 150.719 109.56C149.679 109.56 148.932 109.86 148.479 110.46C148.039 111.06 147.819 111.933 147.819 113.08V119H146.079V112.1C146.079 110.407 145.345 109.56 143.879 109.56C142.799 109.56 142.052 109.893 141.639 110.56C141.225 111.227 141.019 112.187 141.019 113.44V119H139.259V108.28H140.679L140.939 109.74H141.039C141.372 109.18 141.819 108.767 142.379 108.5C142.952 108.22 143.559 108.08 144.199 108.08C145.879 108.08 146.972 108.68 147.479 109.88H147.579C147.939 109.267 148.425 108.813 149.039 108.52C149.665 108.227 150.325 108.08 151.019 108.08ZM162.09 108.08C163.01 108.08 163.797 108.28 164.45 108.68C165.117 109.08 165.623 109.647 165.97 110.38C166.33 111.1 166.51 111.947 166.51 112.92V113.98H159.17C159.197 115.193 159.503 116.12 160.09 116.76C160.69 117.387 161.523 117.7 162.59 117.7C163.27 117.7 163.87 117.64 164.39 117.52C164.923 117.387 165.47 117.2 166.03 116.96V118.5C165.483 118.74 164.943 118.913 164.41 119.02C163.877 119.14 163.243 119.2 162.51 119.2C161.497 119.2 160.597 118.993 159.81 118.58C159.037 118.167 158.43 117.553 157.99 116.74C157.563 115.913 157.35 114.907 157.35 113.72C157.35 112.547 157.543 111.54 157.93 110.7C158.33 109.86 158.883 109.213 159.59 108.76C160.31 108.307 161.143 108.08 162.09 108.08ZM162.07 109.52C161.23 109.52 160.563 109.793 160.07 110.34C159.59 110.873 159.303 111.62 159.21 112.58H164.67C164.657 111.673 164.443 110.94 164.03 110.38C163.617 109.807 162.963 109.52 162.07 109.52ZM174.399 108.08C175.679 108.08 176.646 108.393 177.299 109.02C177.952 109.633 178.279 110.633 178.279 112.02V119H176.539V112.14C176.539 110.42 175.739 109.56 174.139 109.56C172.952 109.56 172.132 109.893 171.679 110.56C171.226 111.227 170.999 112.187 170.999 113.44V119H169.239V108.28H170.659L170.919 109.74H171.019C171.366 109.18 171.846 108.767 172.459 108.5C173.072 108.22 173.719 108.08 174.399 108.08ZM185.182 117.76C185.449 117.76 185.722 117.74 186.002 117.7C186.282 117.647 186.509 117.593 186.682 117.54V118.88C186.496 118.973 186.229 119.047 185.882 119.1C185.536 119.167 185.202 119.2 184.882 119.2C184.322 119.2 183.802 119.107 183.322 118.92C182.856 118.72 182.476 118.38 182.182 117.9C181.889 117.42 181.742 116.747 181.742 115.88V109.64H180.222V108.8L181.762 108.1L182.462 105.82H183.502V108.28H186.602V109.64H183.502V115.84C183.502 116.493 183.656 116.98 183.962 117.3C184.282 117.607 184.689 117.76 185.182 117.76ZM197.824 119.2C196.491 119.2 195.424 118.74 194.624 117.82C193.824 116.887 193.424 115.5 193.424 113.66C193.424 111.82 193.824 110.433 194.624 109.5C195.438 108.553 196.511 108.08 197.844 108.08C198.671 108.08 199.344 108.233 199.864 108.54C200.398 108.847 200.831 109.22 201.164 109.66H201.284C201.271 109.487 201.244 109.233 201.204 108.9C201.178 108.553 201.164 108.28 201.164 108.08V103.8H202.924V119H201.504L201.244 117.56H201.164C200.844 118.013 200.418 118.4 199.884 118.72C199.351 119.04 198.664 119.2 197.824 119.2ZM198.104 117.74C199.238 117.74 200.031 117.433 200.484 116.82C200.951 116.193 201.184 115.253 201.184 114V113.68C201.184 112.347 200.964 111.327 200.524 110.62C200.084 109.9 199.271 109.54 198.084 109.54C197.138 109.54 196.424 109.92 195.944 110.68C195.478 111.427 195.244 112.433 195.244 113.7C195.244 114.98 195.478 115.973 195.944 116.68C196.424 117.387 197.144 117.74 198.104 117.74ZM215.289 108.28V119H213.849L213.589 117.58H213.509C213.162 118.14 212.682 118.553 212.069 118.82C211.456 119.073 210.802 119.2 210.109 119.2C208.816 119.2 207.842 118.893 207.189 118.28C206.536 117.653 206.209 116.66 206.209 115.3V108.28H207.989V115.18C207.989 116.887 208.782 117.74 210.369 117.74C211.556 117.74 212.376 117.407 212.829 116.74C213.296 116.073 213.529 115.113 213.529 113.86V108.28H215.289ZM228.888 108.08C229.088 108.08 229.301 108.093 229.528 108.12C229.768 108.133 229.974 108.16 230.148 108.2L229.928 109.82C229.754 109.78 229.561 109.747 229.348 109.72C229.148 109.693 228.954 109.68 228.768 109.68C228.221 109.68 227.708 109.833 227.228 110.14C226.748 110.433 226.361 110.853 226.068 111.4C225.788 111.933 225.648 112.56 225.648 113.28V119H223.888V108.28H225.328L225.528 110.24H225.608C225.954 109.653 226.401 109.147 226.948 108.72C227.494 108.293 228.141 108.08 228.888 108.08ZM235.899 108.08C236.819 108.08 237.605 108.28 238.259 108.68C238.925 109.08 239.432 109.647 239.779 110.38C240.139 111.1 240.319 111.947 240.319 112.92V113.98H232.979C233.005 115.193 233.312 116.12 233.899 116.76C234.499 117.387 235.332 117.7 236.399 117.7C237.079 117.7 237.679 117.64 238.199 117.52C238.732 117.387 239.279 117.2 239.839 116.96V118.5C239.292 118.74 238.752 118.913 238.219 119.02C237.685 119.14 237.052 119.2 236.319 119.2C235.305 119.2 234.405 118.993 233.619 118.58C232.845 118.167 232.239 117.553 231.799 116.74C231.372 115.913 231.159 114.907 231.159 113.72C231.159 112.547 231.352 111.54 231.739 110.7C232.139 109.86 232.692 109.213 233.399 108.76C234.119 108.307 234.952 108.08 235.899 108.08ZM235.879 109.52C235.039 109.52 234.372 109.793 233.879 110.34C233.399 110.873 233.112 111.62 233.019 112.58H238.479C238.465 111.673 238.252 110.94 237.839 110.38C237.425 109.807 236.772 109.52 235.879 109.52ZM238.719 103.88C238.559 104.12 238.312 104.433 237.979 104.82C237.645 105.193 237.285 105.573 236.899 105.96C236.525 106.333 236.179 106.64 235.859 106.88H234.699V106.64C234.899 106.387 235.112 106.087 235.339 105.74C235.579 105.393 235.812 105.04 236.039 104.68C236.265 104.307 236.452 103.973 236.599 103.68H238.719V103.88ZM250.028 116.04C250.028 117.08 249.641 117.867 248.868 118.4C248.094 118.933 247.054 119.2 245.748 119.2C245.001 119.2 244.354 119.14 243.808 119.02C243.274 118.9 242.801 118.733 242.388 118.52V116.92C242.814 117.133 243.328 117.333 243.928 117.52C244.541 117.693 245.161 117.78 245.788 117.78C246.681 117.78 247.328 117.64 247.728 117.36C248.128 117.067 248.328 116.68 248.328 116.2C248.328 115.933 248.254 115.693 248.108 115.48C247.961 115.267 247.694 115.053 247.308 114.84C246.934 114.627 246.394 114.387 245.688 114.12C244.994 113.853 244.401 113.587 243.908 113.32C243.414 113.053 243.034 112.733 242.768 112.36C242.501 111.987 242.368 111.507 242.368 110.92C242.368 110.013 242.734 109.313 243.468 108.82C244.214 108.327 245.188 108.08 246.388 108.08C247.041 108.08 247.648 108.147 248.208 108.28C248.781 108.4 249.314 108.573 249.808 108.8L249.208 110.2C248.754 110.013 248.281 109.853 247.788 109.72C247.294 109.587 246.788 109.52 246.268 109.52C245.548 109.52 244.994 109.64 244.608 109.88C244.234 110.107 244.048 110.42 244.048 110.82C244.048 111.113 244.134 111.367 244.308 111.58C244.481 111.78 244.768 111.98 245.168 112.18C245.581 112.367 246.128 112.593 246.808 112.86C247.488 113.113 248.068 113.373 248.548 113.64C249.028 113.907 249.394 114.233 249.648 114.62C249.901 114.993 250.028 115.467 250.028 116.04ZM261.578 108.28V119H260.138L259.878 117.58H259.798C259.451 118.14 258.971 118.553 258.358 118.82C257.745 119.073 257.091 119.2 256.398 119.2C255.105 119.2 254.131 118.893 253.478 118.28C252.825 117.653 252.498 116.66 252.498 115.3V108.28H254.278V115.18C254.278 116.887 255.071 117.74 256.658 117.74C257.845 117.74 258.665 117.407 259.118 116.74C259.585 116.073 259.818 115.113 259.818 113.86V108.28H261.578ZM276.741 108.08C277.955 108.08 278.861 108.393 279.461 109.02C280.061 109.633 280.361 110.633 280.361 112.02V119H278.621V112.1C278.621 110.407 277.895 109.56 276.441 109.56C275.401 109.56 274.655 109.86 274.201 110.46C273.761 111.06 273.541 111.933 273.541 113.08V119H271.801V112.1C271.801 110.407 271.068 109.56 269.601 109.56C268.521 109.56 267.775 109.893 267.361 110.56C266.948 111.227 266.741 112.187 266.741 113.44V119H264.981V108.28H266.401L266.661 109.74H266.761C267.095 109.18 267.541 108.767 268.101 108.5C268.675 108.22 269.281 108.08 269.921 108.08C271.601 108.08 272.695 108.68 273.201 109.88H273.301C273.661 109.267 274.148 108.813 274.761 108.52C275.388 108.227 276.048 108.08 276.741 108.08ZM287.813 108.08C288.733 108.08 289.519 108.28 290.173 108.68C290.839 109.08 291.346 109.647 291.693 110.38C292.053 111.1 292.233 111.947 292.233 112.92V113.98H284.893C284.919 115.193 285.226 116.12 285.813 116.76C286.413 117.387 287.246 117.7 288.313 117.7C288.993 117.7 289.593 117.64 290.113 117.52C290.646 117.387 291.193 117.2 291.753 116.96V118.5C291.206 118.74 290.666 118.913 290.133 119.02C289.599 119.14 288.966 119.2 288.233 119.2C287.219 119.2 286.319 118.993 285.533 118.58C284.759 118.167 284.153 117.553 283.713 116.74C283.286 115.913 283.073 114.907 283.073 113.72C283.073 112.547 283.266 111.54 283.653 110.7C284.053 109.86 284.606 109.213 285.313 108.76C286.033 108.307 286.866 108.08 287.813 108.08ZM287.793 109.52C286.953 109.52 286.286 109.793 285.793 110.34C285.313 110.873 285.026 111.62 284.933 112.58H290.393C290.379 111.673 290.166 110.94 289.753 110.38C289.339 109.807 288.686 109.52 287.793 109.52ZM290.633 103.88C290.473 104.12 290.226 104.433 289.893 104.82C289.559 105.193 289.199 105.573 288.813 105.96C288.439 106.333 288.093 106.64 287.773 106.88H286.613V106.64C286.813 106.387 287.026 106.087 287.253 105.74C287.493 105.393 287.726 105.04 287.953 104.68C288.179 104.307 288.366 103.973 288.513 103.68H290.633V103.88ZM303.957 119.2C302.624 119.2 301.557 118.74 300.757 117.82C299.957 116.887 299.557 115.5 299.557 113.66C299.557 111.82 299.957 110.433 300.757 109.5C301.57 108.553 302.644 108.08 303.977 108.08C304.804 108.08 305.477 108.233 305.997 108.54C306.53 108.847 306.964 109.22 307.297 109.66H307.417C307.404 109.487 307.377 109.233 307.337 108.9C307.31 108.553 307.297 108.28 307.297 108.08V103.8H309.057V119H307.637L307.377 117.56H307.297C306.977 118.013 306.55 118.4 306.017 118.72C305.484 119.04 304.797 119.2 303.957 119.2ZM304.237 117.74C305.37 117.74 306.164 117.433 306.617 116.82C307.084 116.193 307.317 115.253 307.317 114V113.68C307.317 112.347 307.097 111.327 306.657 110.62C306.217 109.9 305.404 109.54 304.217 109.54C303.27 109.54 302.557 109.92 302.077 110.68C301.61 111.427 301.377 112.433 301.377 113.7C301.377 114.98 301.61 115.973 302.077 116.68C302.557 117.387 303.277 117.74 304.237 117.74ZM316.602 108.08C317.522 108.08 318.308 108.28 318.962 108.68C319.628 109.08 320.135 109.647 320.482 110.38C320.842 111.1 321.022 111.947 321.022 112.92V113.98H313.682C313.708 115.193 314.015 116.12 314.602 116.76C315.202 117.387 316.035 117.7 317.102 117.7C317.782 117.7 318.382 117.64 318.902 117.52C319.435 117.387 319.982 117.2 320.542 116.96V118.5C319.995 118.74 319.455 118.913 318.922 119.02C318.388 119.14 317.755 119.2 317.022 119.2C316.008 119.2 315.108 118.993 314.322 118.58C313.548 118.167 312.942 117.553 312.502 116.74C312.075 115.913 311.862 114.907 311.862 113.72C311.862 112.547 312.055 111.54 312.442 110.7C312.842 109.86 313.395 109.213 314.102 108.76C314.822 108.307 315.655 108.08 316.602 108.08ZM316.582 109.52C315.742 109.52 315.075 109.793 314.582 110.34C314.102 110.873 313.815 111.62 313.722 112.58H319.182C319.168 111.673 318.955 110.94 318.542 110.38C318.128 109.807 317.475 109.52 316.582 109.52ZM330.731 116.04C330.731 117.08 330.344 117.867 329.571 118.4C328.797 118.933 327.757 119.2 326.451 119.2C325.704 119.2 325.057 119.14 324.511 119.02C323.977 118.9 323.504 118.733 323.091 118.52V116.92C323.517 117.133 324.031 117.333 324.631 117.52C325.244 117.693 325.864 117.78 326.491 117.78C327.384 117.78 328.031 117.64 328.431 117.36C328.831 117.067 329.031 116.68 329.031 116.2C329.031 115.933 328.957 115.693 328.811 115.48C328.664 115.267 328.397 115.053 328.011 114.84C327.637 114.627 327.097 114.387 326.391 114.12C325.697 113.853 325.104 113.587 324.611 113.32C324.117 113.053 323.737 112.733 323.471 112.36C323.204 111.987 323.071 111.507 323.071 110.92C323.071 110.013 323.437 109.313 324.171 108.82C324.917 108.327 325.891 108.08 327.091 108.08C327.744 108.08 328.351 108.147 328.911 108.28C329.484 108.4 330.017 108.573 330.511 108.8L329.911 110.2C329.457 110.013 328.984 109.853 328.491 109.72C327.997 109.587 327.491 109.52 326.971 109.52C326.251 109.52 325.697 109.64 325.311 109.88C324.937 110.107 324.751 110.42 324.751 110.82C324.751 111.113 324.837 111.367 325.011 111.58C325.184 111.78 325.471 111.98 325.871 112.18C326.284 112.367 326.831 112.593 327.511 112.86C328.191 113.113 328.771 113.373 329.251 113.64C329.731 113.907 330.097 114.233 330.351 114.62C330.604 114.993 330.731 115.467 330.731 116.04ZM342.656 108.08C343.576 108.08 344.363 108.28 345.016 108.68C345.683 109.08 346.19 109.647 346.536 110.38C346.896 111.1 347.076 111.947 347.076 112.92V113.98H339.736C339.763 115.193 340.07 116.12 340.656 116.76C341.256 117.387 342.09 117.7 343.156 117.7C343.836 117.7 344.436 117.64 344.956 117.52C345.49 117.387 346.036 117.2 346.596 116.96V118.5C346.05 118.74 345.51 118.913 344.976 119.02C344.443 119.14 343.81 119.2 343.076 119.2C342.063 119.2 341.163 118.993 340.376 118.58C339.603 118.167 338.996 117.553 338.556 116.74C338.13 115.913 337.916 114.907 337.916 113.72C337.916 112.547 338.11 111.54 338.496 110.7C338.896 109.86 339.45 109.213 340.156 108.76C340.876 108.307 341.71 108.08 342.656 108.08ZM342.636 109.52C341.796 109.52 341.13 109.793 340.636 110.34C340.156 110.873 339.87 111.62 339.776 112.58H345.236C345.223 111.673 345.01 110.94 344.596 110.38C344.183 109.807 343.53 109.52 342.636 109.52ZM354.805 108.08C355.005 108.08 355.219 108.093 355.445 108.12C355.685 108.133 355.892 108.16 356.065 108.2L355.845 109.82C355.672 109.78 355.479 109.747 355.265 109.72C355.065 109.693 354.872 109.68 354.685 109.68C354.139 109.68 353.625 109.833 353.145 110.14C352.665 110.433 352.279 110.853 351.985 111.4C351.705 111.933 351.565 112.56 351.565 113.28V119H349.805V108.28H351.245L351.445 110.24H351.525C351.872 109.653 352.319 109.147 352.865 108.72C353.412 108.293 354.059 108.08 354.805 108.08ZM363.067 108.08C363.267 108.08 363.481 108.093 363.707 108.12C363.947 108.133 364.154 108.16 364.327 108.2L364.107 109.82C363.934 109.78 363.741 109.747 363.527 109.72C363.327 109.693 363.134 109.68 362.947 109.68C362.401 109.68 361.887 109.833 361.407 110.14C360.927 110.433 360.541 110.853 360.247 111.4C359.967 111.933 359.827 112.56 359.827 113.28V119H358.067V108.28H359.507L359.707 110.24H359.787C360.134 109.653 360.581 109.147 361.127 108.72C361.674 108.293 362.321 108.08 363.067 108.08ZM370.078 108.08C370.998 108.08 371.785 108.28 372.438 108.68C373.105 109.08 373.612 109.647 373.958 110.38C374.318 111.1 374.498 111.947 374.498 112.92V113.98H367.158C367.185 115.193 367.492 116.12 368.078 116.76C368.678 117.387 369.512 117.7 370.578 117.7C371.258 117.7 371.858 117.64 372.378 117.52C372.912 117.387 373.458 117.2 374.018 116.96V118.5C373.472 118.74 372.932 118.913 372.398 119.02C371.865 119.14 371.232 119.2 370.498 119.2C369.485 119.2 368.585 118.993 367.798 118.58C367.025 118.167 366.418 117.553 365.978 116.74C365.552 115.913 365.338 114.907 365.338 113.72C365.338 112.547 365.532 111.54 365.918 110.7C366.318 109.86 366.872 109.213 367.578 108.76C368.298 108.307 369.132 108.08 370.078 108.08ZM370.058 109.52C369.218 109.52 368.552 109.793 368.058 110.34C367.578 110.873 367.292 111.62 367.198 112.58H372.658C372.645 111.673 372.432 110.94 372.018 110.38C371.605 109.807 370.952 109.52 370.058 109.52ZM386.187 108.28V119H384.747L384.487 117.58H384.407C384.061 118.14 383.581 118.553 382.967 118.82C382.354 119.073 381.701 119.2 381.007 119.2C379.714 119.2 378.741 118.893 378.087 118.28C377.434 117.653 377.107 116.66 377.107 115.3V108.28H378.887V115.18C378.887 116.887 379.681 117.74 381.267 117.74C382.454 117.74 383.274 117.407 383.727 116.74C384.194 116.073 384.427 115.113 384.427 113.86V108.28H386.187ZM394.591 108.08C394.791 108.08 395.004 108.093 395.231 108.12C395.471 108.133 395.677 108.16 395.851 108.2L395.631 109.82C395.457 109.78 395.264 109.747 395.051 109.72C394.851 109.693 394.657 109.68 394.471 109.68C393.924 109.68 393.411 109.833 392.931 110.14C392.451 110.433 392.064 110.853 391.771 111.4C391.491 111.933 391.351 112.56 391.351 113.28V119H389.591V108.28H391.031L391.231 110.24H391.311C391.657 109.653 392.104 109.147 392.651 108.72C393.197 108.293 393.844 108.08 394.591 108.08ZM404.832 116.04C404.832 117.08 404.446 117.867 403.672 118.4C402.899 118.933 401.859 119.2 400.552 119.2C399.806 119.2 399.159 119.14 398.612 119.02C398.079 118.9 397.606 118.733 397.192 118.52V116.92C397.619 117.133 398.132 117.333 398.732 117.52C399.346 117.693 399.966 117.78 400.592 117.78C401.486 117.78 402.132 117.64 402.532 117.36C402.932 117.067 403.132 116.68 403.132 116.2C403.132 115.933 403.059 115.693 402.912 115.48C402.766 115.267 402.499 115.053 402.112 114.84C401.739 114.627 401.199 114.387 400.492 114.12C399.799 113.853 399.206 113.587 398.712 113.32C398.219 113.053 397.839 112.733 397.572 112.36C397.306 111.987 397.172 111.507 397.172 110.92C397.172 110.013 397.539 109.313 398.272 108.82C399.019 108.327 399.992 108.08 401.192 108.08C401.846 108.08 402.452 108.147 403.012 108.28C403.586 108.4 404.119 108.573 404.612 108.8L404.012 110.2C403.559 110.013 403.086 109.853 402.592 109.72C402.099 109.587 401.592 109.52 401.072 109.52C400.352 109.52 399.799 109.64 399.412 109.88C399.039 110.107 398.852 110.42 398.852 110.82C398.852 111.113 398.939 111.367 399.112 111.58C399.286 111.78 399.572 111.98 399.972 112.18C400.386 112.367 400.932 112.593 401.612 112.86C402.292 113.113 402.872 113.373 403.352 113.64C403.832 113.907 404.199 114.233 404.452 114.62C404.706 114.993 404.832 115.467 404.832 116.04ZM407.163 117.92C407.163 117.427 407.283 117.08 407.523 116.88C407.763 116.68 408.049 116.58 408.383 116.58C408.729 116.58 409.023 116.68 409.263 116.88C409.516 117.08 409.643 117.427 409.643 117.92C409.643 118.4 409.516 118.747 409.263 118.96C409.023 119.173 408.729 119.28 408.383 119.28C408.049 119.28 407.763 119.173 407.523 118.96C407.283 118.747 407.163 118.4 407.163 117.92Z" fill="#A62A1E"/>
<path d="M110 121.5H411.083V122.5H110V121.5Z" fill="#A62A1E"/>
<a href="http://localhost:8080/fr/composants/resume-de-erreurs/design/error-href-1">
<rect fill="black" fill-opacity="0" y="-0.119999" width="301.083" height="27.24"/>
</a>
<path d="M94.4 158H84.96V156.54L88.7 152.76C89.42 152.04 90.0267 151.4 90.52 150.84C91.0133 150.28 91.3867 149.733 91.64 149.2C91.8933 148.653 92.02 148.06 92.02 147.42C92.02 146.633 91.7867 146.04 91.32 145.64C90.8533 145.227 90.2467 145.02 89.5 145.02C88.8067 145.02 88.1933 145.14 87.66 145.38C87.14 145.62 86.6067 145.953 86.06 146.38L85.12 145.2C85.68 144.733 86.32 144.34 87.04 144.02C87.7733 143.687 88.5933 143.52 89.5 143.52C90.8333 143.52 91.8867 143.86 92.66 144.54C93.4333 145.207 93.82 146.133 93.82 147.32C93.82 148.067 93.6667 148.767 93.36 149.42C93.0533 150.073 92.6267 150.72 92.08 151.36C91.5333 151.987 90.8933 152.66 90.16 153.38L87.18 156.32V156.4H94.4V158ZM96.8853 156.92C96.8853 156.427 97.0053 156.08 97.2453 155.88C97.4853 155.68 97.772 155.58 98.1053 155.58C98.452 155.58 98.7453 155.68 98.9853 155.88C99.2386 156.08 99.3653 156.427 99.3653 156.92C99.3653 157.4 99.2386 157.747 98.9853 157.96C98.7453 158.173 98.452 158.28 98.1053 158.28C97.772 158.28 97.4853 158.173 97.2453 157.96C97.0053 157.747 96.8853 157.4 96.8853 156.92Z" fill="#333333"/>
<path d="M119.92 158H111.94V143.72H119.92V145.3H113.74V149.76H119.56V151.32H113.74V156.42H119.92V158ZM119.06 139.32C118.9 139.56 118.653 139.873 118.32 140.26C117.987 140.633 117.627 141.013 117.24 141.4C116.867 141.773 116.52 142.08 116.2 142.32H115.04V142.08C115.24 141.827 115.453 141.527 115.68 141.18C115.92 140.833 116.153 140.48 116.38 140.12C116.607 139.747 116.793 139.413 116.94 139.12H119.06V139.32ZM124.573 158H122.813V142.8H124.573V158ZM132.11 147.08C133.03 147.08 133.816 147.28 134.47 147.68C135.136 148.08 135.643 148.647 135.99 149.38C136.35 150.1 136.53 150.947 136.53 151.92V152.98H129.19C129.216 154.193 129.523 155.12 130.11 155.76C130.71 156.387 131.543 156.7 132.61 156.7C133.29 156.7 133.89 156.64 134.41 156.52C134.943 156.387 135.49 156.2 136.05 155.96V157.5C135.503 157.74 134.963 157.913 134.43 158.02C133.896 158.14 133.263 158.2 132.53 158.2C131.516 158.2 130.616 157.993 129.83 157.58C129.056 157.167 128.45 156.553 128.01 155.74C127.583 154.913 127.37 153.907 127.37 152.72C127.37 151.547 127.563 150.54 127.95 149.7C128.35 148.86 128.903 148.213 129.61 147.76C130.33 147.307 131.163 147.08 132.11 147.08ZM132.09 148.52C131.25 148.52 130.583 148.793 130.09 149.34C129.61 149.873 129.323 150.62 129.23 151.58H134.69C134.676 150.673 134.463 149.94 134.05 149.38C133.636 148.807 132.983 148.52 132.09 148.52ZM134.93 142.88C134.77 143.12 134.523 143.433 134.19 143.82C133.856 144.193 133.496 144.573 133.11 144.96C132.736 145.333 132.39 145.64 132.07 145.88H130.91V145.64C131.11 145.387 131.323 145.087 131.55 144.74C131.79 144.393 132.023 144.04 132.25 143.68C132.476 143.307 132.663 142.973 132.81 142.68H134.93V142.88ZM151.019 147.08C152.232 147.08 153.139 147.393 153.739 148.02C154.339 148.633 154.639 149.633 154.639 151.02V158H152.899V151.1C152.899 149.407 152.172 148.56 150.719 148.56C149.679 148.56 148.932 148.86 148.479 149.46C148.039 150.06 147.819 150.933 147.819 152.08V158H146.079V151.1C146.079 149.407 145.345 148.56 143.879 148.56C142.799 148.56 142.052 148.893 141.639 149.56C141.225 150.227 141.019 151.187 141.019 152.44V158H139.259V147.28H140.679L140.939 148.74H141.039C141.372 148.18 141.819 147.767 142.379 147.5C142.952 147.22 143.559 147.08 144.199 147.08C145.879 147.08 146.972 147.68 147.479 148.88H147.579C147.939 148.267 148.425 147.813 149.039 147.52C149.665 147.227 150.325 147.08 151.019 147.08ZM162.09 147.08C163.01 147.08 163.797 147.28 164.45 147.68C165.117 148.08 165.623 148.647 165.97 149.38C166.33 150.1 166.51 150.947 166.51 151.92V152.98H159.17C159.197 154.193 159.503 155.12 160.09 155.76C160.69 156.387 161.523 156.7 162.59 156.7C163.27 156.7 163.87 156.64 164.39 156.52C164.923 156.387 165.47 156.2 166.03 155.96V157.5C165.483 157.74 164.943 157.913 164.41 158.02C163.877 158.14 163.243 158.2 162.51 158.2C161.497 158.2 160.597 157.993 159.81 157.58C159.037 157.167 158.43 156.553 157.99 155.74C157.563 154.913 157.35 153.907 157.35 152.72C157.35 151.547 157.543 150.54 157.93 149.7C158.33 148.86 158.883 148.213 159.59 147.76C160.31 147.307 161.143 147.08 162.09 147.08ZM162.07 148.52C161.23 148.52 160.563 148.793 160.07 149.34C159.59 149.873 159.303 150.62 159.21 151.58H164.67C164.657 150.673 164.443 149.94 164.03 149.38C163.617 148.807 162.963 148.52 162.07 148.52ZM174.399 147.08C175.679 147.08 176.646 147.393 177.299 148.02C177.952 148.633 178.279 149.633 178.279 151.02V158H176.539V151.14C176.539 149.42 175.739 148.56 174.139 148.56C172.952 148.56 172.132 148.893 171.679 149.56C171.226 150.227 170.999 151.187 170.999 152.44V158H169.239V147.28H170.659L170.919 148.74H171.019C171.366 148.18 171.846 147.767 172.459 147.5C173.072 147.22 173.719 147.08 174.399 147.08ZM185.182 156.76C185.449 156.76 185.722 156.74 186.002 156.7C186.282 156.647 186.509 156.593 186.682 156.54V157.88C186.496 157.973 186.229 158.047 185.882 158.1C185.536 158.167 185.202 158.2 184.882 158.2C184.322 158.2 183.802 158.107 183.322 157.92C182.856 157.72 182.476 157.38 182.182 156.9C181.889 156.42 181.742 155.747 181.742 154.88V148.64H180.222V147.8L181.762 147.1L182.462 144.82H183.502V147.28H186.602V148.64H183.502V154.84C183.502 155.493 183.656 155.98 183.962 156.3C184.282 156.607 184.689 156.76 185.182 156.76ZM197.824 158.2C196.491 158.2 195.424 157.74 194.624 156.82C193.824 155.887 193.424 154.5 193.424 152.66C193.424 150.82 193.824 149.433 194.624 148.5C195.438 147.553 196.511 147.08 197.844 147.08C198.671 147.08 199.344 147.233 199.864 147.54C200.398 147.847 200.831 148.22 201.164 148.66H201.284C201.271 148.487 201.244 148.233 201.204 147.9C201.178 147.553 201.164 147.28 201.164 147.08V142.8H202.924V158H201.504L201.244 156.56H201.164C200.844 157.013 200.418 157.4 199.884 157.72C199.351 158.04 198.664 158.2 197.824 158.2ZM198.104 156.74C199.238 156.74 200.031 156.433 200.484 155.82C200.951 155.193 201.184 154.253 201.184 153V152.68C201.184 151.347 200.964 150.327 200.524 149.62C200.084 148.9 199.271 148.54 198.084 148.54C197.138 148.54 196.424 148.92 195.944 149.68C195.478 150.427 195.244 151.433 195.244 152.7C195.244 153.98 195.478 154.973 195.944 155.68C196.424 156.387 197.144 156.74 198.104 156.74ZM215.289 147.28V158H213.849L213.589 156.58H213.509C213.162 157.14 212.682 157.553 212.069 157.82C211.456 158.073 210.802 158.2 210.109 158.2C208.816 158.2 207.842 157.893 207.189 157.28C206.536 156.653 206.209 155.66 206.209 154.3V147.28H207.989V154.18C207.989 155.887 208.782 156.74 210.369 156.74C211.556 156.74 212.376 156.407 212.829 155.74C213.296 155.073 213.529 154.113 213.529 152.86V147.28H215.289ZM228.888 147.08C229.088 147.08 229.301 147.093 229.528 147.12C229.768 147.133 229.974 147.16 230.148 147.2L229.928 148.82C229.754 148.78 229.561 148.747 229.348 148.72C229.148 148.693 228.954 148.68 228.768 148.68C228.221 148.68 227.708 148.833 227.228 149.14C226.748 149.433 226.361 149.853 226.068 150.4C225.788 150.933 225.648 151.56 225.648 152.28V158H223.888V147.28H225.328L225.528 149.24H225.608C225.954 148.653 226.401 148.147 226.948 147.72C227.494 147.293 228.141 147.08 228.888 147.08ZM235.899 147.08C236.819 147.08 237.605 147.28 238.259 147.68C238.925 148.08 239.432 148.647 239.779 149.38C240.139 150.1 240.319 150.947 240.319 151.92V152.98H232.979C233.005 154.193 233.312 155.12 233.899 155.76C234.499 156.387 235.332 156.7 236.399 156.7C237.079 156.7 237.679 156.64 238.199 156.52C238.732 156.387 239.279 156.2 239.839 155.96V157.5C239.292 157.74 238.752 157.913 238.219 158.02C237.685 158.14 237.052 158.2 236.319 158.2C235.305 158.2 234.405 157.993 233.619 157.58C232.845 157.167 232.239 156.553 231.799 155.74C231.372 154.913 231.159 153.907 231.159 152.72C231.159 151.547 231.352 150.54 231.739 149.7C232.139 148.86 232.692 148.213 233.399 147.76C234.119 147.307 234.952 147.08 235.899 147.08ZM235.879 148.52C235.039 148.52 234.372 148.793 233.879 149.34C233.399 149.873 233.112 150.62 233.019 151.58H238.479C238.465 150.673 238.252 149.94 237.839 149.38C237.425 148.807 236.772 148.52 235.879 148.52ZM238.719 142.88C238.559 143.12 238.312 143.433 237.979 143.82C237.645 144.193 237.285 144.573 236.899 144.96C236.525 145.333 236.179 145.64 235.859 145.88H234.699V145.64C234.899 145.387 235.112 145.087 235.339 144.74C235.579 144.393 235.812 144.04 236.039 143.68C236.265 143.307 236.452 142.973 236.599 142.68H238.719V142.88ZM250.028 155.04C250.028 156.08 249.641 156.867 248.868 157.4C248.094 157.933 247.054 158.2 245.748 158.2C245.001 158.2 244.354 158.14 243.808 158.02C243.274 157.9 242.801 157.733 242.388 157.52V155.92C242.814 156.133 243.328 156.333 243.928 156.52C244.541 156.693 245.161 156.78 245.788 156.78C246.681 156.78 247.328 156.64 247.728 156.36C248.128 156.067 248.328 155.68 248.328 155.2C248.328 154.933 248.254 154.693 248.108 154.48C247.961 154.267 247.694 154.053 247.308 153.84C246.934 153.627 246.394 153.387 245.688 153.12C244.994 152.853 244.401 152.587 243.908 152.32C243.414 152.053 243.034 151.733 242.768 151.36C242.501 150.987 242.368 150.507 242.368 149.92C242.368 149.013 242.734 148.313 243.468 147.82C244.214 147.327 245.188 147.08 246.388 147.08C247.041 147.08 247.648 147.147 248.208 147.28C248.781 147.4 249.314 147.573 249.808 147.8L249.208 149.2C248.754 149.013 248.281 148.853 247.788 148.72C247.294 148.587 246.788 148.52 246.268 148.52C245.548 148.52 244.994 148.64 244.608 148.88C244.234 149.107 244.048 149.42 244.048 149.82C244.048 150.113 244.134 150.367 244.308 150.58C244.481 150.78 244.768 150.98 245.168 151.18C245.581 151.367 246.128 151.593 246.808 151.86C247.488 152.113 248.068 152.373 248.548 152.64C249.028 152.907 249.394 153.233 249.648 153.62C249.901 153.993 250.028 154.467 250.028 155.04ZM261.578 147.28V158H260.138L259.878 156.58H259.798C259.451 157.14 258.971 157.553 258.358 157.82C257.745 158.073 257.091 158.2 256.398 158.2C255.105 158.2 254.131 157.893 253.478 157.28C252.825 156.653 252.498 155.66 252.498 154.3V147.28H254.278V154.18C254.278 155.887 255.071 156.74 256.658 156.74C257.845 156.74 258.665 156.407 259.118 155.74C259.585 155.073 259.818 154.113 259.818 152.86V147.28H261.578ZM276.741 147.08C277.955 147.08 278.861 147.393 279.461 148.02C280.061 148.633 280.361 149.633 280.361 151.02V158H278.621V151.1C278.621 149.407 277.895 148.56 276.441 148.56C275.401 148.56 274.655 148.86 274.201 149.46C273.761 150.06 273.541 150.933 273.541 152.08V158H271.801V151.1C271.801 149.407 271.068 148.56 269.601 148.56C268.521 148.56 267.775 148.893 267.361 149.56C266.948 150.227 266.741 151.187 266.741 152.44V158H264.981V147.28H266.401L266.661 148.74H266.761C267.095 148.18 267.541 147.767 268.101 147.5C268.675 147.22 269.281 147.08 269.921 147.08C271.601 147.08 272.695 147.68 273.201 148.88H273.301C273.661 148.267 274.148 147.813 274.761 147.52C275.388 147.227 276.048 147.08 276.741 147.08ZM287.813 147.08C288.733 147.08 289.519 147.28 290.173 147.68C290.839 148.08 291.346 148.647 291.693 149.38C292.053 150.1 292.233 150.947 292.233 151.92V152.98H284.893C284.919 154.193 285.226 155.12 285.813 155.76C286.413 156.387 287.246 156.7 288.313 156.7C288.993 156.7 289.593 156.64 290.113 156.52C290.646 156.387 291.193 156.2 291.753 155.96V157.5C291.206 157.74 290.666 157.913 290.133 158.02C289.599 158.14 288.966 158.2 288.233 158.2C287.219 158.2 286.319 157.993 285.533 157.58C284.759 157.167 284.153 156.553 283.713 155.74C283.286 154.913 283.073 153.907 283.073 152.72C283.073 151.547 283.266 150.54 283.653 149.7C284.053 148.86 284.606 148.213 285.313 147.76C286.033 147.307 286.866 147.08 287.813 147.08ZM287.793 148.52C286.953 148.52 286.286 148.793 285.793 149.34C285.313 149.873 285.026 150.62 284.933 151.58H290.393C290.379 150.673 290.166 149.94 289.753 149.38C289.339 148.807 288.686 148.52 287.793 148.52ZM290.633 142.88C290.473 143.12 290.226 143.433 289.893 143.82C289.559 144.193 289.199 144.573 288.813 144.96C288.439 145.333 288.093 145.64 287.773 145.88H286.613V145.64C286.813 145.387 287.026 145.087 287.253 144.74C287.493 144.393 287.726 144.04 287.953 143.68C288.179 143.307 288.366 142.973 288.513 142.68H290.633V142.88ZM303.957 158.2C302.624 158.2 301.557 157.74 300.757 156.82C299.957 155.887 299.557 154.5 299.557 152.66C299.557 150.82 299.957 149.433 300.757 148.5C301.57 147.553 302.644 147.08 303.977 147.08C304.804 147.08 305.477 147.233 305.997 147.54C306.53 147.847 306.964 148.22 307.297 148.66H307.417C307.404 148.487 307.377 148.233 307.337 147.9C307.31 147.553 307.297 147.28 307.297 147.08V142.8H309.057V158H307.637L307.377 156.56H307.297C306.977 157.013 306.55 157.4 306.017 157.72C305.484 158.04 304.797 158.2 303.957 158.2ZM304.237 156.74C305.37 156.74 306.164 156.433 306.617 155.82C307.084 155.193 307.317 154.253 307.317 153V152.68C307.317 151.347 307.097 150.327 306.657 149.62C306.217 148.9 305.404 148.54 304.217 148.54C303.27 148.54 302.557 148.92 302.077 149.68C301.61 150.427 301.377 151.433 301.377 152.7C301.377 153.98 301.61 154.973 302.077 155.68C302.557 156.387 303.277 156.74 304.237 156.74ZM316.602 147.08C317.522 147.08 318.308 147.28 318.962 147.68C319.628 148.08 320.135 148.647 320.482 149.38C320.842 150.1 321.022 150.947 321.022 151.92V152.98H313.682C313.708 154.193 314.015 155.12 314.602 155.76C315.202 156.387 316.035 156.7 317.102 156.7C317.782 156.7 318.382 156.64 318.902 156.52C319.435 156.387 319.982 156.2 320.542 155.96V157.5C319.995 157.74 319.455 157.913 318.922 158.02C318.388 158.14 317.755 158.2 317.022 158.2C316.008 158.2 315.108 157.993 314.322 157.58C313.548 157.167 312.942 156.553 312.502 155.74C312.075 154.913 311.862 153.907 311.862 152.72C311.862 151.547 312.055 150.54 312.442 149.7C312.842 148.86 313.395 148.213 314.102 147.76C314.822 147.307 315.655 147.08 316.602 147.08ZM316.582 148.52C315.742 148.52 315.075 148.793 314.582 149.34C314.102 149.873 313.815 150.62 313.722 151.58H319.182C319.168 150.673 318.955 149.94 318.542 149.38C318.128 148.807 317.475 148.52 316.582 148.52ZM330.731 155.04C330.731 156.08 330.344 156.867 329.571 157.4C328.797 157.933 327.757 158.2 326.451 158.2C325.704 158.2 325.057 158.14 324.511 158.02C323.977 157.9 323.504 157.733 323.091 157.52V155.92C323.517 156.133 324.031 156.333 324.631 156.52C325.244 156.693 325.864 156.78 326.491 156.78C327.384 156.78 328.031 156.64 328.431 156.36C328.831 156.067 329.031 155.68 329.031 155.2C329.031 154.933 328.957 154.693 328.811 154.48C328.664 154.267 328.397 154.053 328.011 153.84C327.637 153.627 327.097 153.387 326.391 153.12C325.697 152.853 325.104 152.587 324.611 152.32C324.117 152.053 323.737 151.733 323.471 151.36C323.204 150.987 323.071 150.507 323.071 149.92C323.071 149.013 323.437 148.313 324.171 147.82C324.917 147.327 325.891 147.08 327.091 147.08C327.744 147.08 328.351 147.147 328.911 147.28C329.484 147.4 330.017 147.573 330.511 147.8L329.911 149.2C329.457 149.013 328.984 148.853 328.491 148.72C327.997 148.587 327.491 148.52 326.971 148.52C326.251 148.52 325.697 148.64 325.311 148.88C324.937 149.107 324.751 149.42 324.751 149.82C324.751 150.113 324.837 150.367 325.011 150.58C325.184 150.78 325.471 150.98 325.871 151.18C326.284 151.367 326.831 151.593 327.511 151.86C328.191 152.113 328.771 152.373 329.251 152.64C329.731 152.907 330.097 153.233 330.351 153.62C330.604 153.993 330.731 154.467 330.731 155.04ZM342.656 147.08C343.576 147.08 344.363 147.28 345.016 147.68C345.683 148.08 346.19 148.647 346.536 149.38C346.896 150.1 347.076 150.947 347.076 151.92V152.98H339.736C339.763 154.193 340.07 155.12 340.656 155.76C341.256 156.387 342.09 156.7 343.156 156.7C343.836 156.7 344.436 156.64 344.956 156.52C345.49 156.387 346.036 156.2 346.596 155.96V157.5C346.05 157.74 345.51 157.913 344.976 158.02C344.443 158.14 343.81 158.2 343.076 158.2C342.063 158.2 341.163 157.993 340.376 157.58C339.603 157.167 338.996 156.553 338.556 155.74C338.13 154.913 337.916 153.907 337.916 152.72C337.916 151.547 338.11 150.54 338.496 149.7C338.896 148.86 339.45 148.213 340.156 147.76C340.876 147.307 341.71 147.08 342.656 147.08ZM342.636 148.52C341.796 148.52 341.13 148.793 340.636 149.34C340.156 149.873 339.87 150.62 339.776 151.58H345.236C345.223 150.673 345.01 149.94 344.596 149.38C344.183 148.807 343.53 148.52 342.636 148.52ZM354.805 147.08C355.005 147.08 355.219 147.093 355.445 147.12C355.685 147.133 355.892 147.16 356.065 147.2L355.845 148.82C355.672 148.78 355.479 148.747 355.265 148.72C355.065 148.693 354.872 148.68 354.685 148.68C354.139 148.68 353.625 148.833 353.145 149.14C352.665 149.433 352.279 149.853 351.985 150.4C351.705 150.933 351.565 151.56 351.565 152.28V158H349.805V147.28H351.245L351.445 149.24H351.525C351.872 148.653 352.319 148.147 352.865 147.72C353.412 147.293 354.059 147.08 354.805 147.08ZM363.067 147.08C363.267 147.08 363.481 147.093 363.707 147.12C363.947 147.133 364.154 147.16 364.327 147.2L364.107 148.82C363.934 148.78 363.741 148.747 363.527 148.72C363.327 148.693 363.134 148.68 362.947 148.68C362.401 148.68 361.887 148.833 361.407 149.14C360.927 149.433 360.541 149.853 360.247 150.4C359.967 150.933 359.827 151.56 359.827 152.28V158H358.067V147.28H359.507L359.707 149.24H359.787C360.134 148.653 360.581 148.147 361.127 147.72C361.674 147.293 362.321 147.08 363.067 147.08ZM370.078 147.08C370.998 147.08 371.785 147.28 372.438 147.68C373.105 148.08 373.612 148.647 373.958 149.38C374.318 150.1 374.498 150.947 374.498 151.92V152.98H367.158C367.185 154.193 367.492 155.12 368.078 155.76C368.678 156.387 369.512 156.7 370.578 156.7C371.258 156.7 371.858 156.64 372.378 156.52C372.912 156.387 373.458 156.2 374.018 155.96V157.5C373.472 157.74 372.932 157.913 372.398 158.02C371.865 158.14 371.232 158.2 370.498 158.2C369.485 158.2 368.585 157.993 367.798 157.58C367.025 157.167 366.418 156.553 365.978 155.74C365.552 154.913 365.338 153.907 365.338 152.72C365.338 151.547 365.532 150.54 365.918 149.7C366.318 148.86 366.872 148.213 367.578 147.76C368.298 147.307 369.132 147.08 370.078 147.08ZM370.058 148.52C369.218 148.52 368.552 148.793 368.058 149.34C367.578 149.873 367.292 150.62 367.198 151.58H372.658C372.645 150.673 372.432 149.94 372.018 149.38C371.605 148.807 370.952 148.52 370.058 148.52ZM386.187 147.28V158H384.747L384.487 156.58H384.407C384.061 157.14 383.581 157.553 382.967 157.82C382.354 158.073 381.701 158.2 381.007 158.2C379.714 158.2 378.741 157.893 378.087 157.28C377.434 156.653 377.107 155.66 377.107 154.3V147.28H378.887V154.18C378.887 155.887 379.681 156.74 381.267 156.74C382.454 156.74 383.274 156.407 383.727 155.74C384.194 155.073 384.427 154.113 384.427 152.86V147.28H386.187ZM394.591 147.08C394.791 147.08 395.004 147.093 395.231 147.12C395.471 147.133 395.677 147.16 395.851 147.2L395.631 148.82C395.457 148.78 395.264 148.747 395.051 148.72C394.851 148.693 394.657 148.68 394.471 148.68C393.924 148.68 393.411 148.833 392.931 149.14C392.451 149.433 392.064 149.853 391.771 150.4C391.491 150.933 391.351 151.56 391.351 152.28V158H389.591V147.28H391.031L391.231 149.24H391.311C391.657 148.653 392.104 148.147 392.651 147.72C393.197 147.293 393.844 147.08 394.591 147.08ZM404.832 155.04C404.832 156.08 404.446 156.867 403.672 157.4C402.899 157.933 401.859 158.2 400.552 158.2C399.806 158.2 399.159 158.14 398.612 158.02C398.079 157.9 397.606 157.733 397.192 157.52V155.92C397.619 156.133 398.132 156.333 398.732 156.52C399.346 156.693 399.966 156.78 400.592 156.78C401.486 156.78 402.132 156.64 402.532 156.36C402.932 156.067 403.132 155.68 403.132 155.2C403.132 154.933 403.059 154.693 402.912 154.48C402.766 154.267 402.499 154.053 402.112 153.84C401.739 153.627 401.199 153.387 400.492 153.12C399.799 152.853 399.206 152.587 398.712 152.32C398.219 152.053 397.839 151.733 397.572 151.36C397.306 150.987 397.172 150.507 397.172 149.92C397.172 149.013 397.539 148.313 398.272 147.82C399.019 147.327 399.992 147.08 401.192 147.08C401.846 147.08 402.452 147.147 403.012 147.28C403.586 147.4 404.119 147.573 404.612 147.8L404.012 149.2C403.559 149.013 403.086 148.853 402.592 148.72C402.099 148.587 401.592 148.52 401.072 148.52C400.352 148.52 399.799 148.64 399.412 148.88C399.039 149.107 398.852 149.42 398.852 149.82C398.852 150.113 398.939 150.367 399.112 150.58C399.286 150.78 399.572 150.98 399.972 151.18C400.386 151.367 400.932 151.593 401.612 151.86C402.292 152.113 402.872 152.373 403.352 152.64C403.832 152.907 404.199 153.233 404.452 153.62C404.706 153.993 404.832 154.467 404.832 155.04ZM407.163 156.92C407.163 156.427 407.283 156.08 407.523 155.88C407.763 155.68 408.049 155.58 408.383 155.58C408.729 155.58 409.023 155.68 409.263 155.88C409.516 156.08 409.643 156.427 409.643 156.92C409.643 157.4 409.516 157.747 409.263 157.96C409.023 158.173 408.729 158.28 408.383 158.28C408.049 158.28 407.763 158.173 407.523 157.96C407.283 157.747 407.163 157.4 407.163 156.92Z" fill="#A62A1E"/>
<path d="M110 160.5H411.083V161.5H110V160.5Z" fill="#A62A1E"/>
<a href="http://localhost:8080/fr/composants/resume-de-erreurs/design/error-href-1">
<rect fill="black" fill-opacity="0" y="-0.119999" width="301.083" height="27.24"/>
</a>
<path d="M93.86 186.06C93.86 187.02 93.5933 187.787 93.06 188.36C92.5267 188.92 91.8067 189.293 90.9 189.48V189.56C92.0467 189.693 92.9 190.053 93.46 190.64C94.02 191.227 94.3 191.993 94.3 192.94C94.3 193.767 94.1067 194.507 93.72 195.16C93.3333 195.8 92.7333 196.3 91.92 196.66C91.12 197.02 90.0867 197.2 88.82 197.2C88.0733 197.2 87.38 197.14 86.74 197.02C86.1 196.913 85.4867 196.713 84.9 196.42V194.78C85.5 195.073 86.1467 195.307 86.84 195.48C87.5333 195.64 88.2 195.72 88.84 195.72C90.12 195.72 91.04 195.473 91.6 194.98C92.1733 194.473 92.46 193.78 92.46 192.9C92.46 192.007 92.1067 191.367 91.4 190.98C90.7067 190.58 89.7267 190.38 88.46 190.38H87.08V188.88H88.48C89.6533 188.88 90.54 188.633 91.14 188.14C91.7533 187.647 92.06 186.993 92.06 186.18C92.06 185.487 91.8267 184.953 91.36 184.58C90.8933 184.193 90.26 184 89.46 184C88.6867 184 88.0267 184.113 87.48 184.34C86.9333 184.567 86.3933 184.853 85.86 185.2L84.98 184C85.4867 183.6 86.1133 183.253 86.86 182.96C87.62 182.667 88.48 182.52 89.44 182.52C90.9333 182.52 92.04 182.853 92.76 183.52C93.4933 184.187 93.86 185.033 93.86 186.06ZM96.8853 195.92C96.8853 195.427 97.0053 195.08 97.2453 194.88C97.4853 194.68 97.772 194.58 98.1053 194.58C98.452 194.58 98.7453 194.68 98.9853 194.88C99.2386 195.08 99.3653 195.427 99.3653 195.92C99.3653 196.4 99.2386 196.747 98.9853 196.96C98.7453 197.173 98.452 197.28 98.1053 197.28C97.772 197.28 97.4853 197.173 97.2453 196.96C97.0053 196.747 96.8853 196.4 96.8853 195.92Z" fill="#333333"/>
<path d="M119.92 197H111.94V182.72H119.92V184.3H113.74V188.76H119.56V190.32H113.74V195.42H119.92V197ZM119.06 178.32C118.9 178.56 118.653 178.873 118.32 179.26C117.987 179.633 117.627 180.013 117.24 180.4C116.867 180.773 116.52 181.08 116.2 181.32H115.04V181.08C115.24 180.827 115.453 180.527 115.68 180.18C115.92 179.833 116.153 179.48 116.38 179.12C116.607 178.747 116.793 178.413 116.94 178.12H119.06V178.32ZM124.573 197H122.813V181.8H124.573V197ZM132.11 186.08C133.03 186.08 133.816 186.28 134.47 186.68C135.136 187.08 135.643 187.647 135.99 188.38C136.35 189.1 136.53 189.947 136.53 190.92V191.98H129.19C129.216 193.193 129.523 194.12 130.11 194.76C130.71 195.387 131.543 195.7 132.61 195.7C133.29 195.7 133.89 195.64 134.41 195.52C134.943 195.387 135.49 195.2 136.05 194.96V196.5C135.503 196.74 134.963 196.913 134.43 197.02C133.896 197.14 133.263 197.2 132.53 197.2C131.516 197.2 130.616 196.993 129.83 196.58C129.056 196.167 128.45 195.553 128.01 194.74C127.583 193.913 127.37 192.907 127.37 191.72C127.37 190.547 127.563 189.54 127.95 188.7C128.35 187.86 128.903 187.213 129.61 186.76C130.33 186.307 131.163 186.08 132.11 186.08ZM132.09 187.52C131.25 187.52 130.583 187.793 130.09 188.34C129.61 188.873 129.323 189.62 129.23 190.58H134.69C134.676 189.673 134.463 188.94 134.05 188.38C133.636 187.807 132.983 187.52 132.09 187.52ZM134.93 181.88C134.77 182.12 134.523 182.433 134.19 182.82C133.856 183.193 133.496 183.573 133.11 183.96C132.736 184.333 132.39 184.64 132.07 184.88H130.91V184.64C131.11 184.387 131.323 184.087 131.55 183.74C131.79 183.393 132.023 183.04 132.25 182.68C132.476 182.307 132.663 181.973 132.81 181.68H134.93V181.88ZM151.019 186.08C152.232 186.08 153.139 186.393 153.739 187.02C154.339 187.633 154.639 188.633 154.639 190.02V197H152.899V190.1C152.899 188.407 152.172 187.56 150.719 187.56C149.679 187.56 148.932 187.86 148.479 188.46C148.039 189.06 147.819 189.933 147.819 191.08V197H146.079V190.1C146.079 188.407 145.345 187.56 143.879 187.56C142.799 187.56 142.052 187.893 141.639 188.56C141.225 189.227 141.019 190.187 141.019 191.44V197H139.259V186.28H140.679L140.939 187.74H141.039C141.372 187.18 141.819 186.767 142.379 186.5C142.952 186.22 143.559 186.08 144.199 186.08C145.879 186.08 146.972 186.68 147.479 187.88H147.579C147.939 187.267 148.425 186.813 149.039 186.52C149.665 186.227 150.325 186.08 151.019 186.08ZM162.09 186.08C163.01 186.08 163.797 186.28 164.45 186.68C165.117 187.08 165.623 187.647 165.97 188.38C166.33 189.1 166.51 189.947 166.51 190.92V191.98H159.17C159.197 193.193 159.503 194.12 160.09 194.76C160.69 195.387 161.523 195.7 162.59 195.7C163.27 195.7 163.87 195.64 164.39 195.52C164.923 195.387 165.47 195.2 166.03 194.96V196.5C165.483 196.74 164.943 196.913 164.41 197.02C163.877 197.14 163.243 197.2 162.51 197.2C161.497 197.2 160.597 196.993 159.81 196.58C159.037 196.167 158.43 195.553 157.99 194.74C157.563 193.913 157.35 192.907 157.35 191.72C157.35 190.547 157.543 189.54 157.93 188.7C158.33 187.86 158.883 187.213 159.59 186.76C160.31 186.307 161.143 186.08 162.09 186.08ZM162.07 187.52C161.23 187.52 160.563 187.793 160.07 188.34C159.59 188.873 159.303 189.62 159.21 190.58H164.67C164.657 189.673 164.443 188.94 164.03 188.38C163.617 187.807 162.963 187.52 162.07 187.52ZM174.399 186.08C175.679 186.08 176.646 186.393 177.299 187.02C177.952 187.633 178.279 188.633 178.279 190.02V197H176.539V190.14C176.539 188.42 175.739 187.56 174.139 187.56C172.952 187.56 172.132 187.893 171.679 188.56C171.226 189.227 170.999 190.187 170.999 191.44V197H169.239V186.28H170.659L170.919 187.74H171.019C171.366 187.18 171.846 186.767 172.459 186.5C173.072 186.22 173.719 186.08 174.399 186.08ZM185.182 195.76C185.449 195.76 185.722 195.74 186.002 195.7C186.282 195.647 186.509 195.593 186.682 195.54V196.88C186.496 196.973 186.229 197.047 185.882 197.1C185.536 197.167 185.202 197.2 184.882 197.2C184.322 197.2 183.802 197.107 183.322 196.92C182.856 196.72 182.476 196.38 182.182 195.9C181.889 195.42 181.742 194.747 181.742 193.88V187.64H180.222V186.8L181.762 186.1L182.462 183.82H183.502V186.28H186.602V187.64H183.502V193.84C183.502 194.493 183.656 194.98 183.962 195.3C184.282 195.607 184.689 195.76 185.182 195.76ZM197.824 197.2C196.491 197.2 195.424 196.74 194.624 195.82C193.824 194.887 193.424 193.5 193.424 191.66C193.424 189.82 193.824 188.433 194.624 187.5C195.438 186.553 196.511 186.08 197.844 186.08C198.671 186.08 199.344 186.233 199.864 186.54C200.398 186.847 200.831 187.22 201.164 187.66H201.284C201.271 187.487 201.244 187.233 201.204 186.9C201.178 186.553 201.164 186.28 201.164 186.08V181.8H202.924V197H201.504L201.244 195.56H201.164C200.844 196.013 200.418 196.4 199.884 196.72C199.351 197.04 198.664 197.2 197.824 197.2ZM198.104 195.74C199.238 195.74 200.031 195.433 200.484 194.82C200.951 194.193 201.184 193.253 201.184 192V191.68C201.184 190.347 200.964 189.327 200.524 188.62C200.084 187.9 199.271 187.54 198.084 187.54C197.138 187.54 196.424 187.92 195.944 188.68C195.478 189.427 195.244 190.433 195.244 191.7C195.244 192.98 195.478 193.973 195.944 194.68C196.424 195.387 197.144 195.74 198.104 195.74ZM215.289 186.28V197H213.849L213.589 195.58H213.509C213.162 196.14 212.682 196.553 212.069 196.82C211.456 197.073 210.802 197.2 210.109 197.2C208.816 197.2 207.842 196.893 207.189 196.28C206.536 195.653 206.209 194.66 206.209 193.3V186.28H207.989V193.18C207.989 194.887 208.782 195.74 210.369 195.74C211.556 195.74 212.376 195.407 212.829 194.74C213.296 194.073 213.529 193.113 213.529 191.86V186.28H215.289ZM228.888 186.08C229.088 186.08 229.301 186.093 229.528 186.12C229.768 186.133 229.974 186.16 230.148 186.2L229.928 187.82C229.754 187.78 229.561 187.747 229.348 187.72C229.148 187.693 228.954 187.68 228.768 187.68C228.221 187.68 227.708 187.833 227.228 188.14C226.748 188.433 226.361 188.853 226.068 189.4C225.788 189.933 225.648 190.56 225.648 191.28V197H223.888V186.28H225.328L225.528 188.24H225.608C225.954 187.653 226.401 187.147 226.948 186.72C227.494 186.293 228.141 186.08 228.888 186.08ZM235.899 186.08C236.819 186.08 237.605 186.28 238.259 186.68C238.925 187.08 239.432 187.647 239.779 188.38C240.139 189.1 240.319 189.947 240.319 190.92V191.98H232.979C233.005 193.193 233.312 194.12 233.899 194.76C234.499 195.387 235.332 195.7 236.399 195.7C237.079 195.7 237.679 195.64 238.199 195.52C238.732 195.387 239.279 195.2 239.839 194.96V196.5C239.292 196.74 238.752 196.913 238.219 197.02C237.685 197.14 237.052 197.2 236.319 197.2C235.305 197.2 234.405 196.993 233.619 196.58C232.845 196.167 232.239 195.553 231.799 194.74C231.372 193.913 231.159 192.907 231.159 191.72C231.159 190.547 231.352 189.54 231.739 188.7C232.139 187.86 232.692 187.213 233.399 186.76C234.119 186.307 234.952 186.08 235.899 186.08ZM235.879 187.52C235.039 187.52 234.372 187.793 233.879 188.34C233.399 188.873 233.112 189.62 233.019 190.58H238.479C238.465 189.673 238.252 188.94 237.839 188.38C237.425 187.807 236.772 187.52 235.879 187.52ZM238.719 181.88C238.559 182.12 238.312 182.433 237.979 182.82C237.645 183.193 237.285 183.573 236.899 183.96C236.525 184.333 236.179 184.64 235.859 184.88H234.699V184.64C234.899 184.387 235.112 184.087 235.339 183.74C235.579 183.393 235.812 183.04 236.039 182.68C236.265 182.307 236.452 181.973 236.599 181.68H238.719V181.88ZM250.028 194.04C250.028 195.08 249.641 195.867 248.868 196.4C248.094 196.933 247.054 197.2 245.748 197.2C245.001 197.2 244.354 197.14 243.808 197.02C243.274 196.9 242.801 196.733 242.388 196.52V194.92C242.814 195.133 243.328 195.333 243.928 195.52C244.541 195.693 245.161 195.78 245.788 195.78C246.681 195.78 247.328 195.64 247.728 195.36C248.128 195.067 248.328 194.68 248.328 194.2C248.328 193.933 248.254 193.693 248.108 193.48C247.961 193.267 247.694 193.053 247.308 192.84C246.934 192.627 246.394 192.387 245.688 192.12C244.994 191.853 244.401 191.587 243.908 191.32C243.414 191.053 243.034 190.733 242.768 190.36C242.501 189.987 242.368 189.507 242.368 188.92C242.368 188.013 242.734 187.313 243.468 186.82C244.214 186.327 245.188 186.08 246.388 186.08C247.041 186.08 247.648 186.147 248.208 186.28C248.781 186.4 249.314 186.573 249.808 186.8L249.208 188.2C248.754 188.013 248.281 187.853 247.788 187.72C247.294 187.587 246.788 187.52 246.268 187.52C245.548 187.52 244.994 187.64 244.608 187.88C244.234 188.107 244.048 188.42 244.048 188.82C244.048 189.113 244.134 189.367 244.308 189.58C244.481 189.78 244.768 189.98 245.168 190.18C245.581 190.367 246.128 190.593 246.808 190.86C247.488 191.113 248.068 191.373 248.548 191.64C249.028 191.907 249.394 192.233 249.648 192.62C249.901 192.993 250.028 193.467 250.028 194.04ZM261.578 186.28V197H260.138L259.878 195.58H259.798C259.451 196.14 258.971 196.553 258.358 196.82C257.745 197.073 257.091 197.2 256.398 197.2C255.105 197.2 254.131 196.893 253.478 196.28C252.825 195.653 252.498 194.66 252.498 193.3V186.28H254.278V193.18C254.278 194.887 255.071 195.74 256.658 195.74C257.845 195.74 258.665 195.407 259.118 194.74C259.585 194.073 259.818 193.113 259.818 191.86V186.28H261.578ZM276.741 186.08C277.955 186.08 278.861 186.393 279.461 187.02C280.061 187.633 280.361 188.633 280.361 190.02V197H278.621V190.1C278.621 188.407 277.895 187.56 276.441 187.56C275.401 187.56 274.655 187.86 274.201 188.46C273.761 189.06 273.541 189.933 273.541 191.08V197H271.801V190.1C271.801 188.407 271.068 187.56 269.601 187.56C268.521 187.56 267.775 187.893 267.361 188.56C266.948 189.227 266.741 190.187 266.741 191.44V197H264.981V186.28H266.401L266.661 187.74H266.761C267.095 187.18 267.541 186.767 268.101 186.5C268.675 186.22 269.281 186.08 269.921 186.08C271.601 186.08 272.695 186.68 273.201 187.88H273.301C273.661 187.267 274.148 186.813 274.761 186.52C275.388 186.227 276.048 186.08 276.741 186.08ZM287.813 186.08C288.733 186.08 289.519 186.28 290.173 186.68C290.839 187.08 291.346 187.647 291.693 188.38C292.053 189.1 292.233 189.947 292.233 190.92V191.98H284.893C284.919 193.193 285.226 194.12 285.813 194.76C286.413 195.387 287.246 195.7 288.313 195.7C288.993 195.7 289.593 195.64 290.113 195.52C290.646 195.387 291.193 195.2 291.753 194.96V196.5C291.206 196.74 290.666 196.913 290.133 197.02C289.599 197.14 288.966 197.2 288.233 197.2C287.219 197.2 286.319 196.993 285.533 196.58C284.759 196.167 284.153 195.553 283.713 194.74C283.286 193.913 283.073 192.907 283.073 191.72C283.073 190.547 283.266 189.54 283.653 188.7C284.053 187.86 284.606 187.213 285.313 186.76C286.033 186.307 286.866 186.08 287.813 186.08ZM287.793 187.52C286.953 187.52 286.286 187.793 285.793 188.34C285.313 188.873 285.026 189.62 284.933 190.58H290.393C290.379 189.673 290.166 188.94 289.753 188.38C289.339 187.807 288.686 187.52 287.793 187.52ZM290.633 181.88C290.473 182.12 290.226 182.433 289.893 182.82C289.559 183.193 289.199 183.573 288.813 183.96C288.439 184.333 288.093 184.64 287.773 184.88H286.613V184.64C286.813 184.387 287.026 184.087 287.253 183.74C287.493 183.393 287.726 183.04 287.953 182.68C288.179 182.307 288.366 181.973 288.513 181.68H290.633V181.88ZM303.957 197.2C302.624 197.2 301.557 196.74 300.757 195.82C299.957 194.887 299.557 193.5 299.557 191.66C299.557 189.82 299.957 188.433 300.757 187.5C301.57 186.553 302.644 186.08 303.977 186.08C304.804 186.08 305.477 186.233 305.997 186.54C306.53 186.847 306.964 187.22 307.297 187.66H307.417C307.404 187.487 307.377 187.233 307.337 186.9C307.31 186.553 307.297 186.28 307.297 186.08V181.8H309.057V197H307.637L307.377 195.56H307.297C306.977 196.013 306.55 196.4 306.017 196.72C305.484 197.04 304.797 197.2 303.957 197.2ZM304.237 195.74C305.37 195.74 306.164 195.433 306.617 194.82C307.084 194.193 307.317 193.253 307.317 192V191.68C307.317 190.347 307.097 189.327 306.657 188.62C306.217 187.9 305.404 187.54 304.217 187.54C303.27 187.54 302.557 187.92 302.077 188.68C301.61 189.427 301.377 190.433 301.377 191.7C301.377 192.98 301.61 193.973 302.077 194.68C302.557 195.387 303.277 195.74 304.237 195.74ZM316.602 186.08C317.522 186.08 318.308 186.28 318.962 186.68C319.628 187.08 320.135 187.647 320.482 188.38C320.842 189.1 321.022 189.947 321.022 190.92V191.98H313.682C313.708 193.193 314.015 194.12 314.602 194.76C315.202 195.387 316.035 195.7 317.102 195.7C317.782 195.7 318.382 195.64 318.902 195.52C319.435 195.387 319.982 195.2 320.542 194.96V196.5C319.995 196.74 319.455 196.913 318.922 197.02C318.388 197.14 317.755 197.2 317.022 197.2C316.008 197.2 315.108 196.993 314.322 196.58C313.548 196.167 312.942 195.553 312.502 194.74C312.075 193.913 311.862 192.907 311.862 191.72C311.862 190.547 312.055 189.54 312.442 188.7C312.842 187.86 313.395 187.213 314.102 186.76C314.822 186.307 315.655 186.08 316.602 186.08ZM316.582 187.52C315.742 187.52 315.075 187.793 314.582 188.34C314.102 188.873 313.815 189.62 313.722 190.58H319.182C319.168 189.673 318.955 188.94 318.542 188.38C318.128 187.807 317.475 187.52 316.582 187.52ZM330.731 194.04C330.731 195.08 330.344 195.867 329.571 196.4C328.797 196.933 327.757 197.2 326.451 197.2C325.704 197.2 325.057 197.14 324.511 197.02C323.977 196.9 323.504 196.733 323.091 196.52V194.92C323.517 195.133 324.031 195.333 324.631 195.52C325.244 195.693 325.864 195.78 326.491 195.78C327.384 195.78 328.031 195.64 328.431 195.36C328.831 195.067 329.031 194.68 329.031 194.2C329.031 193.933 328.957 193.693 328.811 193.48C328.664 193.267 328.397 193.053 328.011 192.84C327.637 192.627 327.097 192.387 326.391 192.12C325.697 191.853 325.104 191.587 324.611 191.32C324.117 191.053 323.737 190.733 323.471 190.36C323.204 189.987 323.071 189.507 323.071 188.92C323.071 188.013 323.437 187.313 324.171 186.82C324.917 186.327 325.891 186.08 327.091 186.08C327.744 186.08 328.351 186.147 328.911 186.28C329.484 186.4 330.017 186.573 330.511 186.8L329.911 188.2C329.457 188.013 328.984 187.853 328.491 187.72C327.997 187.587 327.491 187.52 326.971 187.52C326.251 187.52 325.697 187.64 325.311 187.88C324.937 188.107 324.751 188.42 324.751 188.82C324.751 189.113 324.837 189.367 325.011 189.58C325.184 189.78 325.471 189.98 325.871 190.18C326.284 190.367 326.831 190.593 327.511 190.86C328.191 191.113 328.771 191.373 329.251 191.64C329.731 191.907 330.097 192.233 330.351 192.62C330.604 192.993 330.731 193.467 330.731 194.04ZM342.656 186.08C343.576 186.08 344.363 186.28 345.016 186.68C345.683 187.08 346.19 187.647 346.536 188.38C346.896 189.1 347.076 189.947 347.076 190.92V191.98H339.736C339.763 193.193 340.07 194.12 340.656 194.76C341.256 195.387 342.09 195.7 343.156 195.7C343.836 195.7 344.436 195.64 344.956 195.52C345.49 195.387 346.036 195.2 346.596 194.96V196.5C346.05 196.74 345.51 196.913 344.976 197.02C344.443 197.14 343.81 197.2 343.076 197.2C342.063 197.2 341.163 196.993 340.376 196.58C339.603 196.167 338.996 195.553 338.556 194.74C338.13 193.913 337.916 192.907 337.916 191.72C337.916 190.547 338.11 189.54 338.496 188.7C338.896 187.86 339.45 187.213 340.156 186.76C340.876 186.307 341.71 186.08 342.656 186.08ZM342.636 187.52C341.796 187.52 341.13 187.793 340.636 188.34C340.156 188.873 339.87 189.62 339.776 190.58H345.236C345.223 189.673 345.01 188.94 344.596 188.38C344.183 187.807 343.53 187.52 342.636 187.52ZM354.805 186.08C355.005 186.08 355.219 186.093 355.445 186.12C355.685 186.133 355.892 186.16 356.065 186.2L355.845 187.82C355.672 187.78 355.479 187.747 355.265 187.72C355.065 187.693 354.872 187.68 354.685 187.68C354.139 187.68 353.625 187.833 353.145 188.14C352.665 188.433 352.279 188.853 351.985 189.4C351.705 189.933 351.565 190.56 351.565 191.28V197H349.805V186.28H351.245L351.445 188.24H351.525C351.872 187.653 352.319 187.147 352.865 186.72C353.412 186.293 354.059 186.08 354.805 186.08ZM363.067 186.08C363.267 186.08 363.481 186.093 363.707 186.12C363.947 186.133 364.154 186.16 364.327 186.2L364.107 187.82C363.934 187.78 363.741 187.747 363.527 187.72C363.327 187.693 363.134 187.68 362.947 187.68C362.401 187.68 361.887 187.833 361.407 188.14C360.927 188.433 360.541 188.853 360.247 189.4C359.967 189.933 359.827 190.56 359.827 191.28V197H358.067V186.28H359.507L359.707 188.24H359.787C360.134 187.653 360.581 187.147 361.127 186.72C361.674 186.293 362.321 186.08 363.067 186.08ZM370.078 186.08C370.998 186.08 371.785 186.28 372.438 186.68C373.105 187.08 373.612 187.647 373.958 188.38C374.318 189.1 374.498 189.947 374.498 190.92V191.98H367.158C367.185 193.193 367.492 194.12 368.078 194.76C368.678 195.387 369.512 195.7 370.578 195.7C371.258 195.7 371.858 195.64 372.378 195.52C372.912 195.387 373.458 195.2 374.018 194.96V196.5C373.472 196.74 372.932 196.913 372.398 197.02C371.865 197.14 371.232 197.2 370.498 197.2C369.485 197.2 368.585 196.993 367.798 196.58C367.025 196.167 366.418 195.553 365.978 194.74C365.552 193.913 365.338 192.907 365.338 191.72C365.338 190.547 365.532 189.54 365.918 188.7C366.318 187.86 366.872 187.213 367.578 186.76C368.298 186.307 369.132 186.08 370.078 186.08ZM370.058 187.52C369.218 187.52 368.552 187.793 368.058 188.34C367.578 188.873 367.292 189.62 367.198 190.58H372.658C372.645 189.673 372.432 188.94 372.018 188.38C371.605 187.807 370.952 187.52 370.058 187.52ZM386.187 186.28V197H384.747L384.487 195.58H384.407C384.061 196.14 383.581 196.553 382.967 196.82C382.354 197.073 381.701 197.2 381.007 197.2C379.714 197.2 378.741 196.893 378.087 196.28C377.434 195.653 377.107 194.66 377.107 193.3V186.28H378.887V193.18C378.887 194.887 379.681 195.74 381.267 195.74C382.454 195.74 383.274 195.407 383.727 194.74C384.194 194.073 384.427 193.113 384.427 191.86V186.28H386.187ZM394.591 186.08C394.791 186.08 395.004 186.093 395.231 186.12C395.471 186.133 395.677 186.16 395.851 186.2L395.631 187.82C395.457 187.78 395.264 187.747 395.051 187.72C394.851 187.693 394.657 187.68 394.471 187.68C393.924 187.68 393.411 187.833 392.931 188.14C392.451 188.433 392.064 188.853 391.771 189.4C391.491 189.933 391.351 190.56 391.351 191.28V197H389.591V186.28H391.031L391.231 188.24H391.311C391.657 187.653 392.104 187.147 392.651 186.72C393.197 186.293 393.844 186.08 394.591 186.08ZM404.832 194.04C404.832 195.08 404.446 195.867 403.672 196.4C402.899 196.933 401.859 197.2 400.552 197.2C399.806 197.2 399.159 197.14 398.612 197.02C398.079 196.9 397.606 196.733 397.192 196.52V194.92C397.619 195.133 398.132 195.333 398.732 195.52C399.346 195.693 399.966 195.78 400.592 195.78C401.486 195.78 402.132 195.64 402.532 195.36C402.932 195.067 403.132 194.68 403.132 194.2C403.132 193.933 403.059 193.693 402.912 193.48C402.766 193.267 402.499 193.053 402.112 192.84C401.739 192.627 401.199 192.387 400.492 192.12C399.799 191.853 399.206 191.587 398.712 191.32C398.219 191.053 397.839 190.733 397.572 190.36C397.306 189.987 397.172 189.507 397.172 188.92C397.172 188.013 397.539 187.313 398.272 186.82C399.019 186.327 399.992 186.08 401.192 186.08C401.846 186.08 402.452 186.147 403.012 186.28C403.586 186.4 404.119 186.573 404.612 186.8L404.012 188.2C403.559 188.013 403.086 187.853 402.592 187.72C402.099 187.587 401.592 187.52 401.072 187.52C400.352 187.52 399.799 187.64 399.412 187.88C399.039 188.107 398.852 188.42 398.852 188.82C398.852 189.113 398.939 189.367 399.112 189.58C399.286 189.78 399.572 189.98 399.972 190.18C400.386 190.367 400.932 190.593 401.612 190.86C402.292 191.113 402.872 191.373 403.352 191.64C403.832 191.907 404.199 192.233 404.452 192.62C404.706 192.993 404.832 193.467 404.832 194.04ZM407.163 195.92C407.163 195.427 407.283 195.08 407.523 194.88C407.763 194.68 408.049 194.58 408.383 194.58C408.729 194.58 409.023 194.68 409.263 194.88C409.516 195.08 409.643 195.427 409.643 195.92C409.643 196.4 409.516 196.747 409.263 196.96C409.023 197.173 408.729 197.28 408.383 197.28C408.049 197.28 407.763 197.173 407.523 196.96C407.283 196.747 407.163 196.4 407.163 195.92Z" fill="#A62A1E"/>
<path d="M110 199.5H411.083V200.5H110V199.5Z" fill="#A62A1E"/>
<a href="http://localhost:8080/fr/composants/resume-de-erreurs/design/error-href-1">
<rect fill="black" fill-opacity="0" y="-0.119999" width="301.083" height="27.24"/>
</a>
<rect x="51" y="3" width="1018" height="233" stroke="#D3080C" stroke-width="6"/>
<g clip-path="url(#clip0_6961_17677)">
<rect y="150" width="80" height="1" fill="#C54600"/>
<g clip-path="url(#clip1_6961_17677)">
<rect y="138" width="24" height="24" rx="12" fill="#C54600"/>
<path d="M11.9745 155.139C11.2321 155.139 10.5709 155.012 9.99086 154.756C9.41415 154.498 8.95842 154.143 8.62367 153.692C8.29223 153.238 8.12154 152.715 8.11159 152.121H10.2792C10.2925 152.37 10.3737 152.589 10.5228 152.778C10.6753 152.963 10.8775 153.107 11.1294 153.21C11.3812 153.313 11.6646 153.364 11.9795 153.364C12.3076 153.364 12.5976 153.306 12.8495 153.19C13.1014 153.074 13.2986 152.914 13.4411 152.708C13.5837 152.503 13.6549 152.266 13.6549 151.997C13.6549 151.725 13.5787 151.485 13.4262 151.276C13.2771 151.064 13.0616 150.898 12.7799 150.779C12.5015 150.66 12.1701 150.6 11.7856 150.6H10.836V149.019H11.7856C12.1104 149.019 12.3971 148.963 12.6457 148.85C12.8976 148.737 13.0931 148.582 13.2323 148.383C13.3715 148.181 13.4411 147.945 13.4411 147.677C13.4411 147.422 13.3798 147.198 13.2572 147.006C13.1379 146.81 12.9688 146.658 12.7501 146.548C12.5347 146.439 12.2828 146.384 11.9944 146.384C11.7027 146.384 11.4359 146.437 11.194 146.543C10.952 146.646 10.7581 146.794 10.6123 146.986C10.4665 147.178 10.3886 147.403 10.3786 147.662H8.31543C8.32537 147.075 8.49275 146.558 8.81756 146.111C9.14237 145.663 9.57987 145.314 10.1301 145.062C10.6836 144.807 11.3083 144.679 12.0044 144.679C12.707 144.679 13.3218 144.807 13.8488 145.062C14.3758 145.317 14.7851 145.662 15.0768 146.096C15.3718 146.527 15.5176 147.011 15.5143 147.548C15.5176 148.118 15.3403 148.593 14.9823 148.974C14.6277 149.356 14.1653 149.598 13.5953 149.7V149.78C14.3443 149.876 14.9144 150.136 15.3055 150.56C15.6999 150.981 15.8954 151.508 15.8921 152.141C15.8954 152.721 15.7281 153.237 15.39 153.688C15.0553 154.138 14.5929 154.493 14.0029 154.751C13.413 155.01 12.7368 155.139 11.9745 155.139Z" fill="white"/>
</g>
</g>
<g clip-path="url(#clip2_6961_17677)">
<rect y="100" width="48" height="1" fill="#C54600"/>
<g clip-path="url(#clip3_6961_17677)">
<rect y="88" width="24" height="24" rx="12" fill="#C54600"/>
<path d="M8.4161 105V103.449L12.0404 100.093C12.3486 99.7947 12.6072 99.5263 12.816 99.2876C13.0281 99.049 13.1888 98.8153 13.2982 98.5866C13.4076 98.3546 13.4623 98.1044 13.4623 97.8359C13.4623 97.5376 13.3943 97.2808 13.2584 97.0653C13.1225 96.8466 12.9369 96.6792 12.7016 96.5632C12.4663 96.4439 12.1995 96.3842 11.9012 96.3842C11.5896 96.3842 11.3179 96.4472 11.0858 96.5732C10.8538 96.6991 10.6749 96.8797 10.5489 97.1151C10.423 97.3504 10.36 97.6304 10.36 97.9553H8.31667C8.31667 97.2891 8.46748 96.7107 8.76909 96.2202C9.0707 95.7296 9.49328 95.3501 10.0368 95.0817C10.5804 94.8132 11.2068 94.679 11.9161 94.679C12.6453 94.679 13.28 94.8082 13.8202 95.0668C14.3638 95.322 14.7864 95.6766 15.088 96.1307C15.3896 96.5848 15.5404 97.1051 15.5404 97.6918C15.5404 98.0762 15.4642 98.4557 15.3117 98.8303C15.1626 99.2048 14.8957 99.6207 14.5113 100.078C14.1268 100.532 13.5849 101.077 12.8856 101.714L11.3991 103.17V103.24H15.6746V105H8.4161Z" fill="white"/>
</g>
</g>
<g clip-path="url(#clip4_6961_17677)">
<rect y="57" width="80" height="1" fill="#C54600"/>
<g clip-path="url(#clip5_6961_17677)">
<rect y="45" width="24" height="24" rx="12" fill="#C54600"/>
<path d="M13.8302 51.8182V62H11.6775V53.8615H11.6178L9.28613 55.3232V53.4141L11.8067 51.8182H13.8302Z" fill="white"/>
</g>
</g>
<defs>
<clipPath id="clip0_6961_17677">
<rect width="80" height="24" fill="white" transform="translate(0 138)"/>
</clipPath>
<clipPath id="clip1_6961_17677">
<rect y="138" width="24" height="24" rx="12" fill="white"/>
</clipPath>
<clipPath id="clip2_6961_17677">
<rect width="48" height="24" fill="white" transform="translate(0 88)"/>
</clipPath>
<clipPath id="clip3_6961_17677">
<rect y="88" width="24" height="24" rx="12" fill="white"/>
</clipPath>
<clipPath id="clip4_6961_17677">
<rect width="80" height="24" fill="white" transform="translate(0 45)"/>
</clipPath>
<clipPath id="clip5_6961_17677">
<rect y="45" width="24" height="24" rx="12" fill="white"/>
</clipPath>
</defs>
</svg>
