<svg width="452" height="165" viewBox="0 0 452 165" fill="none" xmlns="http://www.w3.org/2000/svg">
<mask id="path-1-inside-1_5534_67735" fill="white">
<path d="M68 68H392V108H68V68Z"/>
</mask>
<path d="M68 68H392V108H68V68Z" fill="white"/>
<path d="M68 68V67H67V68H68ZM68 108H67V109H68V108ZM68 68V69H392V68V67H68V68ZM392 108V107H68V108V109H392V108ZM68 108H69V68H68H67V108H68Z" fill="#D6D9DD" mask="url(#path-1-inside-1_5534_67735)"/>
<path d="M84.704 82.576C86.1227 82.576 87.168 82.848 87.84 83.392C88.5227 83.9253 88.864 84.736 88.864 85.824C88.864 86.432 88.752 86.9387 88.528 87.344C88.304 87.7493 88.016 88.0747 87.664 88.32C87.3227 88.5547 86.96 88.7413 86.576 88.88L89.712 94H88.032L85.264 89.28H82.992V94H81.552V82.576H84.704ZM84.624 83.824H82.992V88.064H84.704C85.632 88.064 86.3093 87.8827 86.736 87.52C87.1627 87.1467 87.376 86.6027 87.376 85.888C87.376 85.1413 87.152 84.6133 86.704 84.304C86.256 83.984 85.5627 83.824 84.624 83.824ZM94.6251 85.264C95.3611 85.264 95.9905 85.424 96.5131 85.744C97.0465 86.064 97.4518 86.5173 97.7291 87.104C98.0171 87.68 98.1611 88.3573 98.1611 89.136V89.984H92.2891C92.3105 90.9547 92.5558 91.696 93.0251 92.208C93.5051 92.7093 94.1718 92.96 95.0251 92.96C95.5691 92.96 96.0491 92.912 96.4651 92.816C96.8918 92.7093 97.3291 92.56 97.7771 92.368V93.6C97.3398 93.792 96.9078 93.9307 96.4811 94.016C96.0545 94.112 95.5478 94.16 94.9611 94.16C94.1505 94.16 93.4305 93.9947 92.8011 93.664C92.1825 93.3333 91.6971 92.8427 91.3451 92.192C91.0038 91.5307 90.8331 90.7253 90.8331 89.776C90.8331 88.8373 90.9878 88.032 91.2971 87.36C91.6171 86.688 92.0598 86.1707 92.6251 85.808C93.2011 85.4453 93.8678 85.264 94.6251 85.264ZM94.6091 86.416C93.9371 86.416 93.4038 86.6347 93.0091 87.072C92.6251 87.4987 92.3958 88.096 92.3211 88.864H96.6891C96.6785 88.1387 96.5078 87.552 96.1771 87.104C95.8465 86.6453 95.3238 86.416 94.6091 86.416ZM103.784 94.16C103.027 94.16 102.35 94.0053 101.752 93.696C101.166 93.3867 100.702 92.9067 100.36 92.256C100.03 91.6053 99.8644 90.7733 99.8644 89.76C99.8644 88.704 100.04 87.8453 100.392 87.184C100.744 86.5227 101.219 86.0373 101.816 85.728C102.424 85.4187 103.112 85.264 103.88 85.264C104.318 85.264 104.739 85.312 105.144 85.408C105.55 85.4933 105.88 85.6 106.136 85.728L105.704 86.896C105.448 86.8 105.15 86.7093 104.808 86.624C104.467 86.5387 104.147 86.496 103.848 86.496C102.163 86.496 101.32 87.5787 101.32 89.744C101.32 90.7787 101.523 91.5733 101.928 92.128C102.344 92.672 102.958 92.944 103.768 92.944C104.238 92.944 104.648 92.896 105 92.8C105.363 92.704 105.694 92.5867 105.992 92.448V93.696C105.704 93.8453 105.384 93.9573 105.032 94.032C104.691 94.1173 104.275 94.16 103.784 94.16ZM109.44 85.408C109.44 85.8347 109.413 86.2347 109.36 86.608H109.456C109.733 86.1707 110.107 85.84 110.576 85.616C111.056 85.392 111.573 85.28 112.128 85.28C113.173 85.28 113.957 85.5307 114.48 86.032C115.003 86.5227 115.264 87.3173 115.264 88.416V94H113.872V88.512C113.872 87.136 113.232 86.448 111.952 86.448C110.992 86.448 110.331 86.72 109.968 87.264C109.616 87.7973 109.44 88.5653 109.44 89.568V94H108.032V81.84H109.44V85.408ZM121.235 85.264C121.971 85.264 122.6 85.424 123.123 85.744C123.656 86.064 124.061 86.5173 124.339 87.104C124.627 87.68 124.771 88.3573 124.771 89.136V89.984H118.899C118.92 90.9547 119.165 91.696 119.635 92.208C120.115 92.7093 120.781 92.96 121.635 92.96C122.179 92.96 122.659 92.912 123.075 92.816C123.501 92.7093 123.939 92.56 124.387 92.368V93.6C123.949 93.792 123.517 93.9307 123.091 94.016C122.664 94.112 122.157 94.16 121.571 94.16C120.76 94.16 120.04 93.9947 119.411 93.664C118.792 93.3333 118.307 92.8427 117.955 92.192C117.613 91.5307 117.443 90.7253 117.443 89.776C117.443 88.8373 117.597 88.032 117.907 87.36C118.227 86.688 118.669 86.1707 119.235 85.808C119.811 85.4453 120.477 85.264 121.235 85.264ZM121.219 86.416C120.547 86.416 120.013 86.6347 119.619 87.072C119.235 87.4987 119.005 88.096 118.931 88.864H123.299C123.288 88.1387 123.117 87.552 122.787 87.104C122.456 86.6453 121.933 86.416 121.219 86.416ZM130.954 85.264C131.114 85.264 131.284 85.2747 131.466 85.296C131.658 85.3067 131.823 85.328 131.962 85.36L131.786 86.656C131.647 86.624 131.492 86.5973 131.322 86.576C131.162 86.5547 131.007 86.544 130.858 86.544C130.42 86.544 130.01 86.6667 129.626 86.912C129.242 87.1467 128.932 87.4827 128.698 87.92C128.474 88.3467 128.362 88.848 128.362 89.424V94H126.954V85.424H128.106L128.266 86.992H128.33C128.607 86.5227 128.964 86.1173 129.402 85.776C129.839 85.4347 130.356 85.264 130.954 85.264ZM136.691 94.16C135.933 94.16 135.256 94.0053 134.659 93.696C134.072 93.3867 133.608 92.9067 133.267 92.256C132.936 91.6053 132.771 90.7733 132.771 89.76C132.771 88.704 132.947 87.8453 133.299 87.184C133.651 86.5227 134.125 86.0373 134.723 85.728C135.331 85.4187 136.019 85.264 136.787 85.264C137.224 85.264 137.645 85.312 138.051 85.408C138.456 85.4933 138.787 85.6 139.043 85.728L138.611 86.896C138.355 86.8 138.056 86.7093 137.715 86.624C137.373 86.5387 137.053 86.496 136.755 86.496C135.069 86.496 134.227 87.5787 134.227 89.744C134.227 90.7787 134.429 91.5733 134.835 92.128C135.251 92.672 135.864 92.944 136.675 92.944C137.144 92.944 137.555 92.896 137.907 92.8C138.269 92.704 138.6 92.5867 138.899 92.448V93.696C138.611 93.8453 138.291 93.9573 137.939 94.032C137.597 94.1173 137.181 94.16 136.691 94.16ZM142.346 85.408C142.346 85.8347 142.319 86.2347 142.266 86.608H142.362C142.639 86.1707 143.013 85.84 143.482 85.616C143.962 85.392 144.479 85.28 145.034 85.28C146.079 85.28 146.863 85.5307 147.386 86.032C147.909 86.5227 148.17 87.3173 148.17 88.416V94H146.778V88.512C146.778 87.136 146.138 86.448 144.858 86.448C143.898 86.448 143.237 86.72 142.874 87.264C142.522 87.7973 142.346 88.5653 142.346 89.568V94H140.938V81.84H142.346V85.408ZM154.141 85.264C154.877 85.264 155.506 85.424 156.029 85.744C156.562 86.064 156.967 86.5173 157.245 87.104C157.533 87.68 157.677 88.3573 157.677 89.136V89.984H151.805C151.826 90.9547 152.071 91.696 152.541 92.208C153.021 92.7093 153.687 92.96 154.541 92.96C155.085 92.96 155.565 92.912 155.981 92.816C156.407 92.7093 156.845 92.56 157.293 92.368V93.6C156.855 93.792 156.423 93.9307 155.997 94.016C155.57 94.112 155.063 94.16 154.477 94.16C153.666 94.16 152.946 93.9947 152.317 93.664C151.698 93.3333 151.213 92.8427 150.861 92.192C150.519 91.5307 150.349 90.7253 150.349 89.776C150.349 88.8373 150.503 88.032 150.813 87.36C151.133 86.688 151.575 86.1707 152.141 85.808C152.717 85.4453 153.383 85.264 154.141 85.264ZM154.125 86.416C153.453 86.416 152.919 86.6347 152.525 87.072C152.141 87.4987 151.911 88.096 151.837 88.864H156.205C156.194 88.1387 156.023 87.552 155.693 87.104C155.362 86.6453 154.839 86.416 154.125 86.416ZM163.86 85.264C164.02 85.264 164.191 85.2747 164.372 85.296C164.564 85.3067 164.729 85.328 164.868 85.36L164.692 86.656C164.553 86.624 164.399 86.5973 164.228 86.576C164.068 86.5547 163.913 86.544 163.764 86.544C163.327 86.544 162.916 86.6667 162.532 86.912C162.148 87.1467 161.839 87.4827 161.604 87.92C161.38 88.3467 161.268 88.848 161.268 89.424V94H159.86V85.424H161.012L161.172 86.992H161.236C161.513 86.5227 161.871 86.1173 162.308 85.776C162.745 85.4347 163.263 85.264 163.86 85.264ZM173.666 94.16C172.599 94.16 171.746 93.792 171.106 93.056C170.466 92.3093 170.146 91.2 170.146 89.728C170.146 88.256 170.466 87.1467 171.106 86.4C171.756 85.6427 172.615 85.264 173.682 85.264C174.343 85.264 174.882 85.3867 175.298 85.632C175.724 85.8773 176.071 86.176 176.338 86.528H176.434C176.423 86.3893 176.402 86.1867 176.37 85.92C176.348 85.6427 176.338 85.424 176.338 85.264V81.84H177.746V94H176.61L176.402 92.848H176.338C176.082 93.2107 175.74 93.52 175.314 93.776C174.887 94.032 174.338 94.16 173.666 94.16ZM173.89 92.992C174.796 92.992 175.431 92.7467 175.794 92.256C176.167 91.7547 176.354 91.0027 176.354 90V89.744C176.354 88.6773 176.178 87.8613 175.826 87.296C175.474 86.72 174.823 86.432 173.874 86.432C173.116 86.432 172.546 86.736 172.162 87.344C171.788 87.9413 171.602 88.7467 171.602 89.76C171.602 90.784 171.788 91.5787 172.162 92.144C172.546 92.7093 173.122 92.992 173.89 92.992ZM183.717 85.28C184.763 85.28 185.536 85.5093 186.037 85.968C186.539 86.4267 186.789 87.1573 186.789 88.16V94H185.765L185.493 92.784H185.429C185.056 93.2533 184.661 93.6 184.245 93.824C183.84 94.048 183.275 94.16 182.549 94.16C181.771 94.16 181.125 93.9573 180.613 93.552C180.101 93.136 179.845 92.4907 179.845 91.616C179.845 90.7627 180.181 90.1067 180.853 89.648C181.525 89.1787 182.56 88.9227 183.957 88.88L185.413 88.832V88.32C185.413 87.6053 185.259 87.1093 184.949 86.832C184.64 86.5547 184.203 86.416 183.637 86.416C183.189 86.416 182.763 86.4853 182.357 86.624C181.952 86.752 181.573 86.9013 181.221 87.072L180.789 86.016C181.163 85.8133 181.605 85.6427 182.117 85.504C182.629 85.3547 183.163 85.28 183.717 85.28ZM184.133 89.856C183.067 89.8987 182.325 90.0693 181.909 90.368C181.504 90.6667 181.301 91.088 181.301 91.632C181.301 92.112 181.445 92.464 181.733 92.688C182.032 92.912 182.411 93.024 182.869 93.024C183.595 93.024 184.197 92.8267 184.677 92.432C185.157 92.0267 185.397 91.408 185.397 90.576V89.808L184.133 89.856ZM193.566 85.264C194.59 85.264 195.363 85.5147 195.886 86.016C196.409 86.5067 196.67 87.3067 196.67 88.416V94H195.278V88.512C195.278 87.136 194.638 86.448 193.358 86.448C192.409 86.448 191.753 86.7147 191.39 87.248C191.027 87.7813 190.846 88.5493 190.846 89.552V94H189.438V85.424H190.574L190.782 86.592H190.862C191.139 86.144 191.523 85.8133 192.014 85.6C192.505 85.376 193.022 85.264 193.566 85.264ZM204.913 91.632C204.913 92.464 204.603 93.0933 203.985 93.52C203.366 93.9467 202.534 94.16 201.489 94.16C200.891 94.16 200.374 94.112 199.937 94.016C199.51 93.92 199.131 93.7867 198.801 93.616V92.336C199.142 92.5067 199.553 92.6667 200.033 92.816C200.523 92.9547 201.019 93.024 201.521 93.024C202.235 93.024 202.753 92.912 203.073 92.688C203.393 92.4533 203.553 92.144 203.553 91.76C203.553 91.5467 203.494 91.3547 203.377 91.184C203.259 91.0133 203.046 90.8427 202.737 90.672C202.438 90.5013 202.006 90.3093 201.441 90.096C200.886 89.8827 200.411 89.6693 200.017 89.456C199.622 89.2427 199.318 88.9867 199.105 88.688C198.891 88.3893 198.785 88.0053 198.785 87.536C198.785 86.8107 199.078 86.2507 199.665 85.856C200.262 85.4613 201.041 85.264 202.001 85.264C202.523 85.264 203.009 85.3173 203.457 85.424C203.915 85.52 204.342 85.6587 204.737 85.84L204.257 86.96C203.894 86.8107 203.515 86.6827 203.121 86.576C202.726 86.4693 202.321 86.416 201.905 86.416C201.329 86.416 200.886 86.512 200.577 86.704C200.278 86.8853 200.129 87.136 200.129 87.456C200.129 87.6907 200.198 87.8933 200.337 88.064C200.475 88.224 200.705 88.384 201.025 88.544C201.355 88.6933 201.793 88.8747 202.337 89.088C202.881 89.2907 203.345 89.4987 203.729 89.712C204.113 89.9253 204.406 90.1867 204.609 90.496C204.811 90.7947 204.913 91.1733 204.913 91.632ZM216.229 83.68C215.003 83.68 214.037 84.0907 213.333 84.912C212.629 85.7333 212.277 86.8587 212.277 88.288C212.277 89.7067 212.603 90.832 213.253 91.664C213.915 92.4853 214.901 92.896 216.213 92.896C216.715 92.896 217.189 92.8533 217.637 92.768C218.085 92.6827 218.523 92.576 218.949 92.448V93.696C218.523 93.856 218.08 93.9733 217.621 94.048C217.173 94.1227 216.635 94.16 216.005 94.16C214.843 94.16 213.872 93.92 213.093 93.44C212.315 92.96 211.728 92.2773 211.333 91.392C210.949 90.5067 210.757 89.4667 210.757 88.272C210.757 87.12 210.965 86.1067 211.381 85.232C211.808 84.3467 212.432 83.6587 213.253 83.168C214.075 82.6667 215.072 82.416 216.245 82.416C217.451 82.416 218.501 82.64 219.397 83.088L218.821 84.304C218.469 84.144 218.075 84 217.637 83.872C217.211 83.744 216.741 83.68 216.229 83.68ZM224.499 85.28C225.544 85.28 226.317 85.5093 226.819 85.968C227.32 86.4267 227.571 87.1573 227.571 88.16V94H226.547L226.275 92.784H226.211C225.837 93.2533 225.443 93.6 225.027 93.824C224.621 94.048 224.056 94.16 223.331 94.16C222.552 94.16 221.907 93.9573 221.395 93.552C220.883 93.136 220.627 92.4907 220.627 91.616C220.627 90.7627 220.963 90.1067 221.635 89.648C222.307 89.1787 223.341 88.9227 224.739 88.88L226.195 88.832V88.32C226.195 87.6053 226.04 87.1093 225.731 86.832C225.421 86.5547 224.984 86.416 224.419 86.416C223.971 86.416 223.544 86.4853 223.139 86.624C222.733 86.752 222.355 86.9013 222.003 87.072L221.571 86.016C221.944 85.8133 222.387 85.6427 222.899 85.504C223.411 85.3547 223.944 85.28 224.499 85.28ZM224.915 89.856C223.848 89.8987 223.107 90.0693 222.691 90.368C222.285 90.6667 222.083 91.088 222.083 91.632C222.083 92.112 222.227 92.464 222.515 92.688C222.813 92.912 223.192 93.024 223.651 93.024C224.376 93.024 224.979 92.8267 225.459 92.432C225.939 92.0267 226.179 91.408 226.179 90.576V89.808L224.915 89.856ZM234.347 85.264C235.371 85.264 236.145 85.5147 236.667 86.016C237.19 86.5067 237.451 87.3067 237.451 88.416V94H236.059V88.512C236.059 87.136 235.419 86.448 234.139 86.448C233.19 86.448 232.534 86.7147 232.171 87.248C231.809 87.7813 231.627 88.5493 231.627 89.552V94H230.219V85.424H231.355L231.563 86.592H231.643C231.921 86.144 232.305 85.8133 232.795 85.6C233.286 85.376 233.803 85.264 234.347 85.264ZM243.358 85.28C244.403 85.28 245.177 85.5093 245.678 85.968C246.179 86.4267 246.43 87.1573 246.43 88.16V94H245.406L245.134 92.784H245.07C244.697 93.2533 244.302 93.6 243.886 93.824C243.481 94.048 242.915 94.16 242.19 94.16C241.411 94.16 240.766 93.9573 240.254 93.552C239.742 93.136 239.486 92.4907 239.486 91.616C239.486 90.7627 239.822 90.1067 240.494 89.648C241.166 89.1787 242.201 88.9227 243.598 88.88L245.054 88.832V88.32C245.054 87.6053 244.899 87.1093 244.59 86.832C244.281 86.5547 243.843 86.416 243.278 86.416C242.83 86.416 242.403 86.4853 241.998 86.624C241.593 86.752 241.214 86.9013 240.862 87.072L240.43 86.016C240.803 85.8133 241.246 85.6427 241.758 85.504C242.27 85.3547 242.803 85.28 243.358 85.28ZM243.774 89.856C242.707 89.8987 241.966 90.0693 241.55 90.368C241.145 90.6667 240.942 91.088 240.942 91.632C240.942 92.112 241.086 92.464 241.374 92.688C241.673 92.912 242.051 93.024 242.51 93.024C243.235 93.024 243.838 92.8267 244.318 92.432C244.798 92.0267 245.038 91.408 245.038 90.576V89.808L243.774 89.856ZM252.119 94.16C251.052 94.16 250.199 93.792 249.559 93.056C248.919 92.3093 248.599 91.2 248.599 89.728C248.599 88.256 248.919 87.1467 249.559 86.4C250.209 85.6427 251.068 85.264 252.135 85.264C252.796 85.264 253.335 85.3867 253.751 85.632C254.177 85.8773 254.524 86.176 254.791 86.528H254.887C254.876 86.3893 254.855 86.1867 254.823 85.92C254.801 85.6427 254.791 85.424 254.791 85.264V81.84H256.199V94H255.063L254.855 92.848H254.791C254.535 93.2107 254.193 93.52 253.767 93.776C253.34 94.032 252.791 94.16 252.119 94.16ZM252.343 92.992C253.249 92.992 253.884 92.7467 254.247 92.256C254.62 91.7547 254.807 91.0027 254.807 90V89.744C254.807 88.6773 254.631 87.8613 254.279 87.296C253.927 86.72 253.276 86.432 252.327 86.432C251.569 86.432 250.999 86.736 250.615 87.344C250.241 87.9413 250.055 88.7467 250.055 89.76C250.055 90.784 250.241 91.5787 250.615 92.144C250.999 92.7093 251.575 92.992 252.343 92.992ZM262.171 85.28C263.216 85.28 263.989 85.5093 264.491 85.968C264.992 86.4267 265.243 87.1573 265.243 88.16V94H264.219L263.947 92.784H263.883C263.509 93.2533 263.115 93.6 262.699 93.824C262.293 94.048 261.728 94.16 261.003 94.16C260.224 94.16 259.579 93.9573 259.067 93.552C258.555 93.136 258.299 92.4907 258.299 91.616C258.299 90.7627 258.635 90.1067 259.307 89.648C259.979 89.1787 261.013 88.9227 262.411 88.88L263.867 88.832V88.32C263.867 87.6053 263.712 87.1093 263.403 86.832C263.093 86.5547 262.656 86.416 262.091 86.416C261.643 86.416 261.216 86.4853 260.811 86.624C260.405 86.752 260.027 86.9013 259.674 87.072L259.243 86.016C259.616 85.8133 260.059 85.6427 260.571 85.504C261.083 85.3547 261.616 85.28 262.171 85.28ZM262.587 89.856C261.52 89.8987 260.779 90.0693 260.363 90.368C259.957 90.6667 259.755 91.088 259.755 91.632C259.755 92.112 259.899 92.464 260.187 92.688C260.485 92.912 260.864 93.024 261.323 93.024C262.048 93.024 262.651 92.8267 263.131 92.432C263.611 92.0267 263.851 91.408 263.851 90.576V89.808L262.587 89.856ZM267.683 93.136C267.683 92.7413 267.779 92.464 267.971 92.304C268.163 92.144 268.393 92.064 268.659 92.064C268.937 92.064 269.171 92.144 269.363 92.304C269.566 92.464 269.667 92.7413 269.667 93.136C269.667 93.52 269.566 93.7973 269.363 93.968C269.171 94.1387 268.937 94.224 268.659 94.224C268.393 94.224 268.163 94.1387 267.971 93.968C267.779 93.7973 267.683 93.52 267.683 93.136ZM275.613 94.16C274.855 94.16 274.178 94.0053 273.581 93.696C272.994 93.3867 272.53 92.9067 272.189 92.256C271.858 91.6053 271.693 90.7733 271.693 89.76C271.693 88.704 271.869 87.8453 272.221 87.184C272.573 86.5227 273.047 86.0373 273.645 85.728C274.253 85.4187 274.941 85.264 275.709 85.264C276.146 85.264 276.567 85.312 276.973 85.408C277.378 85.4933 277.709 85.6 277.965 85.728L277.533 86.896C277.277 86.8 276.978 86.7093 276.637 86.624C276.295 86.5387 275.975 86.496 275.677 86.496C273.991 86.496 273.149 87.5787 273.149 89.744C273.149 90.7787 273.351 91.5733 273.757 92.128C274.173 92.672 274.786 92.944 275.597 92.944C276.066 92.944 276.477 92.896 276.829 92.8C277.191 92.704 277.522 92.5867 277.821 92.448V93.696C277.533 93.8453 277.213 93.9573 276.861 94.032C276.519 94.1173 276.103 94.16 275.613 94.16ZM283.108 85.28C284.153 85.28 284.927 85.5093 285.428 85.968C285.929 86.4267 286.18 87.1573 286.18 88.16V94H285.156L284.884 92.784H284.82C284.447 93.2533 284.052 93.6 283.636 93.824C283.231 94.048 282.665 94.16 281.94 94.16C281.161 94.16 280.516 93.9573 280.004 93.552C279.492 93.136 279.236 92.4907 279.236 91.616C279.236 90.7627 279.572 90.1067 280.244 89.648C280.916 89.1787 281.951 88.9227 283.348 88.88L284.804 88.832V88.32C284.804 87.6053 284.649 87.1093 284.34 86.832C284.031 86.5547 283.593 86.416 283.028 86.416C282.58 86.416 282.153 86.4853 281.748 86.624C281.343 86.752 280.964 86.9013 280.612 87.072L280.18 86.016C280.553 85.8133 280.996 85.6427 281.508 85.504C282.02 85.3547 282.553 85.28 283.108 85.28ZM283.524 89.856C282.457 89.8987 281.716 90.0693 281.3 90.368C280.895 90.6667 280.692 91.088 280.692 91.632C280.692 92.112 280.836 92.464 281.124 92.688C281.423 92.912 281.801 93.024 282.26 93.024C282.985 93.024 283.588 92.8267 284.068 92.432C284.548 92.0267 284.788 91.408 284.788 90.576V89.808L283.524 89.856Z" fill="#5C5C5C"/>
<rect width="40" height="40" transform="translate(392 68)" fill="#26374A"/>
<path d="M411.17 79.8177C407.055 79.8177 403.719 83.1538 403.719 87.2688C403.719 91.3838 407.055 94.72 411.17 94.72C412.815 94.7199 414.335 94.1846 415.567 93.2815L419.279 96.9944L421 95.2024L417.301 91.5022C418.133 90.2999 418.621 88.8415 418.621 87.2688C418.621 83.1539 415.285 79.8178 411.17 79.8177ZM411.17 82.3011C413.913 82.3012 416.137 84.5256 416.137 87.2688C416.137 90.012 413.913 92.2355 411.17 92.2356C408.427 92.2356 406.202 90.0121 406.202 87.2688C406.202 84.5255 408.427 82.3011 411.17 82.3011Z" fill="white"/>
<g clip-path="url(#clip0_5534_67735)">
<rect x="20" y="88" width="48" height="1" fill="#C54600"/>
<g clip-path="url(#clip1_5534_67735)">
<rect x="20" y="76" width="24" height="24" rx="12" fill="#C54600"/>
<path d="M33.5687 83.2727V92H31.7235V85.0241H31.6724L29.6738 86.277V84.6406L31.8343 83.2727H33.5687Z" fill="white"/>
</g>
</g>
<g clip-path="url(#clip2_5534_67735)">
<rect x="184" y="97" width="1" height="48" fill="#C54600"/>
<g clip-path="url(#clip3_5534_67735)">
<rect x="173" y="121" width="24" height="24" rx="12" fill="#C54600"/>
<path d="M181.928 137V135.67L185.035 132.794C185.299 132.538 185.52 132.308 185.699 132.104C185.881 131.899 186.019 131.699 186.113 131.503C186.206 131.304 186.253 131.089 186.253 130.859C186.253 130.604 186.195 130.384 186.079 130.199C185.962 130.011 185.803 129.868 185.601 129.768C185.4 129.666 185.171 129.615 184.915 129.615C184.648 129.615 184.415 129.669 184.216 129.777C184.018 129.885 183.864 130.04 183.756 130.241C183.648 130.443 183.594 130.683 183.594 130.962H181.843C181.843 130.391 181.972 129.895 182.231 129.474C182.489 129.054 182.851 128.729 183.317 128.499C183.783 128.268 184.32 128.153 184.928 128.153C185.553 128.153 186.097 128.264 186.56 128.486C187.026 128.705 187.388 129.009 187.647 129.398C187.905 129.787 188.035 130.233 188.035 130.736C188.035 131.065 187.969 131.391 187.839 131.712C187.711 132.033 187.482 132.389 187.153 132.781C186.823 133.17 186.358 133.638 185.759 134.183L184.485 135.432V135.491H188.15V137H181.928Z" fill="white"/>
</g>
<rect x="80" y="98" width="1" height="207" transform="rotate(-90 80 98)" fill="#C54600"/>
</g>
<g clip-path="url(#clip4_5534_67735)">
<rect x="412" y="20" width="1" height="48" fill="#C54600"/>
<g clip-path="url(#clip5_5534_67735)">
<rect x="400" y="20" width="24" height="24" rx="12" fill="#C54600"/>
<path d="M411.978 36.1193C411.342 36.1193 410.775 36.0099 410.278 35.7912C409.784 35.5696 409.393 35.2656 409.106 34.8793C408.822 34.4901 408.676 34.0412 408.667 33.5327H410.525C410.536 33.7457 410.606 33.9332 410.734 34.0952C410.865 34.2543 411.038 34.3778 411.254 34.4659C411.47 34.554 411.713 34.598 411.982 34.598C412.264 34.598 412.512 34.5483 412.728 34.4489C412.944 34.3494 413.113 34.2116 413.235 34.0355C413.357 33.8594 413.419 33.6562 413.419 33.4261C413.419 33.1932 413.353 32.9872 413.222 32.8082C413.095 32.6264 412.91 32.4844 412.669 32.3821C412.43 32.2798 412.146 32.2287 411.816 32.2287H411.002V30.8736H411.816C412.095 30.8736 412.34 30.8253 412.553 30.7287C412.769 30.6321 412.937 30.4986 413.056 30.3281C413.176 30.1548 413.235 29.9531 413.235 29.723C413.235 29.5043 413.183 29.3125 413.078 29.1477C412.975 28.9801 412.83 28.8494 412.643 28.7557C412.458 28.6619 412.242 28.6151 411.995 28.6151C411.745 28.6151 411.517 28.6605 411.309 28.7514C411.102 28.8395 410.936 28.9659 410.811 29.1307C410.686 29.2955 410.619 29.4886 410.61 29.7102H408.842C408.85 29.2074 408.994 28.7642 409.272 28.3807C409.551 27.9972 409.926 27.6974 410.397 27.4815C410.872 27.2628 411.407 27.1534 412.004 27.1534C412.606 27.1534 413.133 27.2628 413.585 27.4815C414.036 27.7003 414.387 27.9957 414.637 28.3679C414.89 28.7372 415.015 29.152 415.012 29.6122C415.015 30.1009 414.863 30.5085 414.556 30.8352C414.252 31.1619 413.856 31.3693 413.367 31.4574V31.5256C414.009 31.608 414.498 31.831 414.833 32.1946C415.171 32.5554 415.339 33.0071 415.336 33.5497C415.339 34.0469 415.195 34.4886 414.906 34.875C414.619 35.2614 414.222 35.5653 413.717 35.7869C413.211 36.0085 412.632 36.1193 411.978 36.1193Z" fill="white"/>
</g>
</g>
<defs>
<clipPath id="clip0_5534_67735">
<rect width="48" height="24" fill="white" transform="translate(20 76)"/>
</clipPath>
<clipPath id="clip1_5534_67735">
<rect x="20" y="76" width="24" height="24" rx="12" fill="white"/>
</clipPath>
<clipPath id="clip2_5534_67735">
<rect width="207" height="48" fill="white" transform="translate(80 97)"/>
</clipPath>
<clipPath id="clip3_5534_67735">
<rect x="173" y="121" width="24" height="24" rx="12" fill="white"/>
</clipPath>
<clipPath id="clip4_5534_67735">
<rect width="24" height="48" fill="white" transform="translate(400 20)"/>
</clipPath>
<clipPath id="clip5_5534_67735">
<rect x="400" y="20" width="24" height="24" rx="12" fill="white"/>
</clipPath>
</defs>
</svg>
