<svg width="560" height="78" viewBox="0 0 560 78" fill="none" xmlns="http://www.w3.org/2000/svg">
<path d="M11.06 57.6C9.52667 57.6 8.32 58.1133 7.44 59.14C6.56 60.1667 6.12 61.5733 6.12 63.36C6.12 65.1333 6.52667 66.54 7.34 67.58C8.16667 68.6067 9.4 69.12 11.04 69.12C11.6667 69.12 12.26 69.0667 12.82 68.96C13.38 68.8533 13.9267 68.72 14.46 68.56V70.12C13.9267 70.32 13.3733 70.4667 12.8 70.56C12.24 70.6533 11.5667 70.7 10.78 70.7C9.32667 70.7 8.11333 70.4 7.14 69.8C6.16667 69.2 5.43333 68.3467 4.94 67.24C4.46 66.1333 4.22 64.8333 4.22 63.34C4.22 61.9 4.48 60.6333 5 59.54C5.53333 58.4333 6.31333 57.5733 7.34 56.96C8.36667 56.3333 9.61333 56.02 11.08 56.02C12.5867 56.02 13.9 56.3 15.02 56.86L14.3 58.38C13.86 58.18 13.3667 58 12.82 57.84C12.2867 57.68 11.7 57.6 11.06 57.6ZM21.3967 59.6C22.7034 59.6 23.6701 59.8867 24.2967 60.46C24.9234 61.0333 25.2367 61.9467 25.2367 63.2V70.5H23.9567L23.6167 68.98H23.5367C23.0701 69.5667 22.5767 70 22.0567 70.28C21.5501 70.56 20.8434 70.7 19.9367 70.7C18.9634 70.7 18.1567 70.4467 17.5167 69.94C16.8767 69.42 16.5567 68.6133 16.5567 67.52C16.5567 66.4533 16.9767 65.6333 17.8167 65.06C18.6567 64.4733 19.9501 64.1533 21.6967 64.1L23.5167 64.04V63.4C23.5167 62.5067 23.3234 61.8867 22.9367 61.54C22.5501 61.1933 22.0034 61.02 21.2967 61.02C20.7367 61.02 20.2034 61.1067 19.6967 61.28C19.1901 61.44 18.7167 61.6267 18.2767 61.84L17.7367 60.52C18.2034 60.2667 18.7567 60.0533 19.3967 59.88C20.0367 59.6933 20.7034 59.6 21.3967 59.6ZM21.9167 65.32C20.5834 65.3733 19.6567 65.5867 19.1367 65.96C18.6301 66.3333 18.3767 66.86 18.3767 67.54C18.3767 68.14 18.5567 68.58 18.9167 68.86C19.2901 69.14 19.7634 69.28 20.3367 69.28C21.2434 69.28 21.9967 69.0333 22.5967 68.54C23.1967 68.0333 23.4967 67.26 23.4967 66.22V65.26L21.9167 65.32ZM33.7077 59.58C34.9877 59.58 35.9543 59.8933 36.6077 60.52C37.261 61.1333 37.5877 62.1333 37.5877 63.52V70.5H35.8477V63.64C35.8477 61.92 35.0477 61.06 33.4477 61.06C32.261 61.06 31.441 61.3933 30.9877 62.06C30.5343 62.7267 30.3077 63.6867 30.3077 64.94V70.5H28.5477V59.78H29.9677L30.2277 61.24H30.3277C30.6743 60.68 31.1543 60.2667 31.7677 60C32.381 59.72 33.0277 59.58 33.7077 59.58ZM44.9709 59.6C46.2776 59.6 47.2443 59.8867 47.8709 60.46C48.4976 61.0333 48.8109 61.9467 48.8109 63.2V70.5H47.5309L47.1909 68.98H47.1109C46.6443 69.5667 46.1509 70 45.6309 70.28C45.1243 70.56 44.4176 70.7 43.5109 70.7C42.5376 70.7 41.7309 70.4467 41.0909 69.94C40.4509 69.42 40.1309 68.6133 40.1309 67.52C40.1309 66.4533 40.5509 65.6333 41.3909 65.06C42.2309 64.4733 43.5243 64.1533 45.2709 64.1L47.0909 64.04V63.4C47.0909 62.5067 46.8976 61.8867 46.5109 61.54C46.1243 61.1933 45.5776 61.02 44.8709 61.02C44.3109 61.02 43.7776 61.1067 43.2709 61.28C42.7643 61.44 42.2909 61.6267 41.8509 61.84L41.3109 60.52C41.7776 60.2667 42.3309 60.0533 42.9709 59.88C43.6109 59.6933 44.2776 59.6 44.9709 59.6ZM45.4909 65.32C44.1576 65.3733 43.2309 65.5867 42.7109 65.96C42.2043 66.3333 41.9509 66.86 41.9509 67.54C41.9509 68.14 42.1309 68.58 42.4909 68.86C42.8643 69.14 43.3376 69.28 43.9109 69.28C44.8176 69.28 45.5709 69.0333 46.1709 68.54C46.7709 68.0333 47.0709 67.26 47.0709 66.22V65.26L45.4909 65.32ZM55.9219 70.7C54.5885 70.7 53.5219 70.24 52.7219 69.32C51.9219 68.3867 51.5219 67 51.5219 65.16C51.5219 63.32 51.9219 61.9333 52.7219 61C53.5352 60.0533 54.6085 59.58 55.9419 59.58C56.7685 59.58 57.4419 59.7333 57.9619 60.04C58.4952 60.3467 58.9285 60.72 59.2619 61.16H59.3819C59.3685 60.9867 59.3419 60.7333 59.3019 60.4C59.2752 60.0533 59.2619 59.78 59.2619 59.58V55.3H61.0219V70.5H59.6019L59.3419 69.06H59.2619C58.9419 69.5133 58.5152 69.9 57.9819 70.22C57.4485 70.54 56.7619 70.7 55.9219 70.7ZM56.2019 69.24C57.3352 69.24 58.1285 68.9333 58.5819 68.32C59.0485 67.6933 59.2819 66.7533 59.2819 65.5V65.18C59.2819 63.8467 59.0619 62.8267 58.6219 62.12C58.1819 61.4 57.3685 61.04 56.1819 61.04C55.2352 61.04 54.5219 61.42 54.0419 62.18C53.5752 62.9267 53.3419 63.9333 53.3419 65.2C53.3419 66.48 53.5752 67.4733 54.0419 68.18C54.5219 68.8867 55.2419 69.24 56.2019 69.24ZM68.4866 59.6C69.7932 59.6 70.7599 59.8867 71.3866 60.46C72.0132 61.0333 72.3266 61.9467 72.3266 63.2V70.5H71.0466L70.7066 68.98H70.6266C70.1599 69.5667 69.6666 70 69.1466 70.28C68.6399 70.56 67.9332 70.7 67.0266 70.7C66.0532 70.7 65.2466 70.4467 64.6066 69.94C63.9666 69.42 63.6466 68.6133 63.6466 67.52C63.6466 66.4533 64.0666 65.6333 64.9066 65.06C65.7466 64.4733 67.0399 64.1533 68.7866 64.1L70.6066 64.04V63.4C70.6066 62.5067 70.4132 61.8867 70.0266 61.54C69.6399 61.1933 69.0932 61.02 68.3866 61.02C67.8266 61.02 67.2932 61.1067 66.7866 61.28C66.2799 61.44 65.8066 61.6267 65.3666 61.84L64.8266 60.52C65.2932 60.2667 65.8466 60.0533 66.4866 59.88C67.1266 59.6933 67.7932 59.6 68.4866 59.6ZM69.0066 65.32C67.6732 65.3733 66.7466 65.5867 66.2266 65.96C65.7199 66.3333 65.4666 66.86 65.4666 67.54C65.4666 68.14 65.6466 68.58 66.0066 68.86C66.3799 69.14 66.8532 69.28 67.4266 69.28C68.3332 69.28 69.0866 69.0333 69.6866 68.54C70.2866 68.0333 70.5866 67.26 70.5866 66.22V65.26L69.0066 65.32ZM75.3775 69.42C75.3775 68.9267 75.4975 68.58 75.7375 68.38C75.9775 68.18 76.2642 68.08 76.5975 68.08C76.9442 68.08 77.2375 68.18 77.4775 68.38C77.7308 68.58 77.8575 68.9267 77.8575 69.42C77.8575 69.9 77.7308 70.2467 77.4775 70.46C77.2375 70.6733 76.9442 70.78 76.5975 70.78C76.2642 70.78 75.9775 70.6733 75.7375 70.46C75.4975 70.2467 75.3775 69.9 75.3775 69.42ZM85.2891 70.7C84.3424 70.7 83.4957 70.5067 82.7491 70.12C82.0157 69.7333 81.4357 69.1333 81.0091 68.32C80.5957 67.5067 80.3891 66.4667 80.3891 65.2C80.3891 63.88 80.6091 62.8067 81.0491 61.98C81.4891 61.1533 82.0824 60.5467 82.8291 60.16C83.5891 59.7733 84.4491 59.58 85.4091 59.58C85.9557 59.58 86.4824 59.64 86.9891 59.76C87.4957 59.8667 87.9091 60 88.2291 60.16L87.6891 61.62C87.3691 61.5 86.9957 61.3867 86.5691 61.28C86.1424 61.1733 85.7424 61.12 85.3691 61.12C83.2624 61.12 82.2091 62.4733 82.2091 65.18C82.2091 66.4733 82.4624 67.4667 82.9691 68.16C83.4891 68.84 84.2557 69.18 85.2691 69.18C85.8557 69.18 86.3691 69.12 86.8091 69C87.2624 68.88 87.6757 68.7333 88.0491 68.56V70.12C87.6891 70.3067 87.2891 70.4467 86.8491 70.54C86.4224 70.6467 85.9024 70.7 85.2891 70.7ZM94.6584 59.6C95.9651 59.6 96.9318 59.8867 97.5584 60.46C98.1851 61.0333 98.4984 61.9467 98.4984 63.2V70.5H97.2184L96.8784 68.98H96.7984C96.3318 69.5667 95.8384 70 95.3184 70.28C94.8118 70.56 94.1051 70.7 93.1984 70.7C92.2251 70.7 91.4184 70.4467 90.7784 69.94C90.1384 69.42 89.8184 68.6133 89.8184 67.52C89.8184 66.4533 90.2384 65.6333 91.0784 65.06C91.9184 64.4733 93.2118 64.1533 94.9584 64.1L96.7784 64.04V63.4C96.7784 62.5067 96.5851 61.8867 96.1984 61.54C95.8118 61.1933 95.2651 61.02 94.5584 61.02C93.9984 61.02 93.4651 61.1067 92.9584 61.28C92.4518 61.44 91.9784 61.6267 91.5384 61.84L90.9984 60.52C91.4651 60.2667 92.0184 60.0533 92.6584 59.88C93.2984 59.6933 93.9651 59.6 94.6584 59.6ZM95.1784 65.32C93.8451 65.3733 92.9184 65.5867 92.3984 65.96C91.8918 66.3333 91.6384 66.86 91.6384 67.54C91.6384 68.14 91.8184 68.58 92.1784 68.86C92.5518 69.14 93.0251 69.28 93.5984 69.28C94.5051 69.28 95.2584 69.0333 95.8584 68.54C96.4584 68.0333 96.7584 67.26 96.7584 66.22V65.26L95.1784 65.32Z" fill="#2B4380"/>
<line x1="3" y1="77" x2="101" y2="77" stroke="#2B4380"/>
<path d="M111 71.75C110.648 71.75 110.336 71.6328 110.102 71.3984C109.594 70.9297 109.594 70.1094 110.102 69.6406L116.703 63L110.102 56.3984C109.594 55.9297 109.594 55.1094 110.102 54.6406C110.57 54.1328 111.391 54.1328 111.859 54.6406L119.359 62.1406C119.867 62.6094 119.867 63.4297 119.359 63.8984L111.859 71.3984C111.625 71.6328 111.312 71.75 111 71.75Z" fill="#333333"/>
<path d="M155.72 56.22C157.587 56.22 158.947 56.5867 159.8 57.32C160.653 58.0533 161.08 59.0867 161.08 60.42C161.08 61.2067 160.9 61.9467 160.54 62.64C160.193 63.32 159.6 63.8733 158.76 64.3C157.933 64.7267 156.807 64.94 155.38 64.94H153.74V70.5H151.94V56.22H155.72ZM155.56 57.76H153.74V63.4H155.18C156.54 63.4 157.553 63.18 158.22 62.74C158.887 62.3 159.22 61.5533 159.22 60.5C159.22 59.58 158.927 58.8933 158.34 58.44C157.753 57.9867 156.827 57.76 155.56 57.76ZM167.869 59.6C169.176 59.6 170.143 59.8867 170.769 60.46C171.396 61.0333 171.709 61.9467 171.709 63.2V70.5H170.429L170.089 68.98H170.009C169.543 69.5667 169.049 70 168.529 70.28C168.023 70.56 167.316 70.7 166.409 70.7C165.436 70.7 164.629 70.4467 163.989 69.94C163.349 69.42 163.029 68.6133 163.029 67.52C163.029 66.4533 163.449 65.6333 164.289 65.06C165.129 64.4733 166.423 64.1533 168.169 64.1L169.989 64.04V63.4C169.989 62.5067 169.796 61.8867 169.409 61.54C169.023 61.1933 168.476 61.02 167.769 61.02C167.209 61.02 166.676 61.1067 166.169 61.28C165.663 61.44 165.189 61.6267 164.749 61.84L164.209 60.52C164.676 60.2667 165.229 60.0533 165.869 59.88C166.509 59.6933 167.176 59.6 167.869 59.6ZM168.389 65.32C167.056 65.3733 166.129 65.5867 165.609 65.96C165.103 66.3333 164.849 66.86 164.849 67.54C164.849 68.14 165.029 68.58 165.389 68.86C165.763 69.14 166.236 69.28 166.809 69.28C167.716 69.28 168.469 69.0333 169.069 68.54C169.669 68.0333 169.969 67.26 169.969 66.22V65.26L168.389 65.32ZM178.82 59.58C179.527 59.58 180.16 59.7133 180.72 59.98C181.294 60.2467 181.78 60.6533 182.18 61.2H182.28L182.52 59.78H183.92V70.68C183.92 72.2133 183.527 73.3667 182.74 74.14C181.967 74.9133 180.76 75.3 179.12 75.3C177.547 75.3 176.26 75.0733 175.26 74.62V73C176.314 73.56 177.634 73.84 179.22 73.84C180.14 73.84 180.86 73.5667 181.38 73.02C181.914 72.4867 182.18 71.7533 182.18 70.82V70.4C182.18 70.24 182.187 70.0133 182.2 69.72C182.214 69.4133 182.227 69.2 182.24 69.08H182.16C181.44 70.16 180.334 70.7 178.84 70.7C177.454 70.7 176.367 70.2133 175.58 69.24C174.807 68.2667 174.42 66.9067 174.42 65.16C174.42 63.4533 174.807 62.1 175.58 61.1C176.367 60.0867 177.447 59.58 178.82 59.58ZM179.06 61.06C178.167 61.06 177.474 61.42 176.98 62.14C176.487 62.8467 176.24 63.86 176.24 65.18C176.24 66.5 176.48 67.5133 176.96 68.22C177.454 68.9133 178.167 69.26 179.1 69.26C180.18 69.26 180.967 68.9733 181.46 68.4C181.954 67.8133 182.2 66.8733 182.2 65.58V65.16C182.2 63.6933 181.947 62.6467 181.44 62.02C180.934 61.38 180.14 61.06 179.06 61.06ZM191.465 59.58C192.385 59.58 193.172 59.78 193.825 60.18C194.492 60.58 194.998 61.1467 195.345 61.88C195.705 62.6 195.885 63.4467 195.885 64.42V65.48H188.545C188.572 66.6933 188.878 67.62 189.465 68.26C190.065 68.8867 190.898 69.2 191.965 69.2C192.645 69.2 193.245 69.14 193.765 69.02C194.298 68.8867 194.845 68.7 195.405 68.46V70C194.858 70.24 194.318 70.4133 193.785 70.52C193.252 70.64 192.618 70.7 191.885 70.7C190.872 70.7 189.972 70.4933 189.185 70.08C188.412 69.6667 187.805 69.0533 187.365 68.24C186.938 67.4133 186.725 66.4067 186.725 65.22C186.725 64.0467 186.918 63.04 187.305 62.2C187.705 61.36 188.258 60.7133 188.965 60.26C189.685 59.8067 190.518 59.58 191.465 59.58ZM191.445 61.02C190.605 61.02 189.938 61.2933 189.445 61.84C188.965 62.3733 188.678 63.12 188.585 64.08H194.045C194.032 63.1733 193.818 62.44 193.405 61.88C192.992 61.3067 192.338 61.02 191.445 61.02ZM207.609 70.7C206.276 70.7 205.209 70.24 204.409 69.32C203.609 68.3867 203.209 67 203.209 65.16C203.209 63.32 203.609 61.9333 204.409 61C205.223 60.0533 206.296 59.58 207.629 59.58C208.456 59.58 209.129 59.7333 209.649 60.04C210.183 60.3467 210.616 60.72 210.949 61.16H211.069C211.056 60.9867 211.029 60.7333 210.989 60.4C210.963 60.0533 210.949 59.78 210.949 59.58V55.3H212.709V70.5H211.289L211.029 69.06H210.949C210.629 69.5133 210.203 69.9 209.669 70.22C209.136 70.54 208.449 70.7 207.609 70.7ZM207.889 69.24C209.023 69.24 209.816 68.9333 210.269 68.32C210.736 67.6933 210.969 66.7533 210.969 65.5V65.18C210.969 63.8467 210.749 62.8267 210.309 62.12C209.869 61.4 209.056 61.04 207.869 61.04C206.923 61.04 206.209 61.42 205.729 62.18C205.263 62.9267 205.029 63.9333 205.029 65.2C205.029 66.48 205.263 67.4733 205.729 68.18C206.209 68.8867 206.929 69.24 207.889 69.24ZM217.674 56.44C217.501 57.1333 217.247 57.9133 216.914 58.78C216.594 59.6333 216.274 60.4133 215.954 61.12H214.654C214.787 60.6133 214.914 60.0733 215.034 59.5C215.167 58.9133 215.287 58.34 215.394 57.78C215.501 57.2067 215.587 56.6867 215.654 56.22H217.534L217.674 56.44ZM222.869 59.6C224.176 59.6 225.143 59.8867 225.769 60.46C226.396 61.0333 226.709 61.9467 226.709 63.2V70.5H225.429L225.089 68.98H225.009C224.543 69.5667 224.049 70 223.529 70.28C223.023 70.56 222.316 70.7 221.409 70.7C220.436 70.7 219.629 70.4467 218.989 69.94C218.349 69.42 218.029 68.6133 218.029 67.52C218.029 66.4533 218.449 65.6333 219.289 65.06C220.129 64.4733 221.423 64.1533 223.169 64.1L224.989 64.04V63.4C224.989 62.5067 224.796 61.8867 224.409 61.54C224.023 61.1933 223.476 61.02 222.769 61.02C222.209 61.02 221.676 61.1067 221.169 61.28C220.663 61.44 220.189 61.6267 219.749 61.84L219.209 60.52C219.676 60.2667 220.229 60.0533 220.869 59.88C221.509 59.6933 222.176 59.6 222.869 59.6ZM223.389 65.32C222.056 65.3733 221.129 65.5867 220.609 65.96C220.103 66.3333 219.849 66.86 219.849 67.54C219.849 68.14 220.029 68.58 220.389 68.86C220.763 69.14 221.236 69.28 221.809 69.28C222.716 69.28 223.469 69.0333 224.069 68.54C224.669 68.0333 224.969 67.26 224.969 66.22V65.26L223.389 65.32ZM234.32 70.7C233.374 70.7 232.527 70.5067 231.78 70.12C231.047 69.7333 230.467 69.1333 230.04 68.32C229.627 67.5067 229.42 66.4667 229.42 65.2C229.42 63.88 229.64 62.8067 230.08 61.98C230.52 61.1533 231.114 60.5467 231.86 60.16C232.62 59.7733 233.48 59.58 234.44 59.58C234.987 59.58 235.514 59.64 236.02 59.76C236.527 59.8667 236.94 60 237.26 60.16L236.72 61.62C236.4 61.5 236.027 61.3867 235.6 61.28C235.174 61.1733 234.774 61.12 234.4 61.12C232.294 61.12 231.24 62.4733 231.24 65.18C231.24 66.4733 231.494 67.4667 232 68.16C232.52 68.84 233.287 69.18 234.3 69.18C234.887 69.18 235.4 69.12 235.84 69C236.294 68.88 236.707 68.7333 237.08 68.56V70.12C236.72 70.3067 236.32 70.4467 235.88 70.54C235.454 70.6467 234.934 70.7 234.32 70.7ZM243.93 70.7C242.983 70.7 242.136 70.5067 241.39 70.12C240.656 69.7333 240.076 69.1333 239.65 68.32C239.236 67.5067 239.03 66.4667 239.03 65.2C239.03 63.88 239.25 62.8067 239.69 61.98C240.13 61.1533 240.723 60.5467 241.47 60.16C242.23 59.7733 243.09 59.58 244.05 59.58C244.596 59.58 245.123 59.64 245.63 59.76C246.136 59.8667 246.55 60 246.87 60.16L246.33 61.62C246.01 61.5 245.636 61.3867 245.21 61.28C244.783 61.1733 244.383 61.12 244.01 61.12C241.903 61.12 240.85 62.4733 240.85 65.18C240.85 66.4733 241.103 67.4667 241.61 68.16C242.13 68.84 242.896 69.18 243.91 69.18C244.496 69.18 245.01 69.12 245.45 69C245.903 68.88 246.316 68.7333 246.69 68.56V70.12C246.33 70.3067 245.93 70.4467 245.49 70.54C245.063 70.6467 244.543 70.7 243.93 70.7ZM258.199 59.78V70.5H256.759L256.499 69.08H256.419C256.072 69.64 255.592 70.0533 254.979 70.32C254.366 70.5733 253.712 70.7 253.019 70.7C251.726 70.7 250.752 70.3933 250.099 69.78C249.446 69.1533 249.119 68.16 249.119 66.8V59.78H250.899V66.68C250.899 68.3867 251.692 69.24 253.279 69.24C254.466 69.24 255.286 68.9067 255.739 68.24C256.206 67.5733 256.439 66.6133 256.439 65.36V59.78H258.199ZM265.742 59.58C266.662 59.58 267.449 59.78 268.102 60.18C268.769 60.58 269.276 61.1467 269.622 61.88C269.982 62.6 270.162 63.4467 270.162 64.42V65.48H262.822C262.849 66.6933 263.156 67.62 263.742 68.26C264.342 68.8867 265.176 69.2 266.242 69.2C266.922 69.2 267.522 69.14 268.042 69.02C268.576 68.8867 269.122 68.7 269.682 68.46V70C269.136 70.24 268.596 70.4133 268.062 70.52C267.529 70.64 266.896 70.7 266.162 70.7C265.149 70.7 264.249 70.4933 263.462 70.08C262.689 69.6667 262.082 69.0533 261.642 68.24C261.216 67.4133 261.002 66.4067 261.002 65.22C261.002 64.0467 261.196 63.04 261.582 62.2C261.982 61.36 262.536 60.7133 263.242 60.26C263.962 59.8067 264.796 59.58 265.742 59.58ZM265.722 61.02C264.882 61.02 264.216 61.2933 263.722 61.84C263.242 62.3733 262.956 63.12 262.862 64.08H268.322C268.309 63.1733 268.096 62.44 267.682 61.88C267.269 61.3067 266.616 61.02 265.722 61.02ZM273.791 55.76C274.058 55.76 274.291 55.8533 274.491 56.04C274.705 56.2133 274.811 56.4933 274.811 56.88C274.811 57.2533 274.705 57.5333 274.491 57.72C274.291 57.9067 274.058 58 273.791 58C273.498 58 273.251 57.9067 273.051 57.72C272.851 57.5333 272.751 57.2533 272.751 56.88C272.751 56.4933 272.851 56.2133 273.051 56.04C273.251 55.8533 273.498 55.76 273.791 55.76ZM274.651 59.78V70.5H272.891V59.78H274.651ZM279.808 70.5H278.048V55.3H279.808V70.5Z" fill="#425A76"/>
<line x1="150" y1="77" x2="282" y2="77" stroke="#2B4380"/>
<path d="M292 71.75C291.648 71.75 291.336 71.6328 291.102 71.3984C290.594 70.9297 290.594 70.1094 291.102 69.6406L297.703 63L291.102 56.3984C290.594 55.9297 290.594 55.1094 291.102 54.6406C291.57 54.1328 292.391 54.1328 292.859 54.6406L300.359 62.1406C300.867 62.6094 300.867 63.4297 300.359 63.8984L292.859 71.3984C292.625 71.6328 292.312 71.75 292 71.75Z" fill="#333333"/>
<path d="M332.94 70.5V56.22H334.74V68.9H340.98V70.5H332.94ZM344.088 55.76C344.355 55.76 344.588 55.8533 344.788 56.04C345.002 56.2133 345.108 56.4933 345.108 56.88C345.108 57.2533 345.002 57.5333 344.788 57.72C344.588 57.9067 344.355 58 344.088 58C343.795 58 343.548 57.9067 343.348 57.72C343.148 57.5333 343.048 57.2533 343.048 56.88C343.048 56.4933 343.148 56.2133 343.348 56.04C343.548 55.8533 343.795 55.76 344.088 55.76ZM344.948 59.78V70.5H343.188V59.78H344.948ZM352.485 59.58C353.405 59.58 354.191 59.78 354.845 60.18C355.511 60.58 356.018 61.1467 356.365 61.88C356.725 62.6 356.905 63.4467 356.905 64.42V65.48H349.565C349.591 66.6933 349.898 67.62 350.485 68.26C351.085 68.8867 351.918 69.2 352.985 69.2C353.665 69.2 354.265 69.14 354.785 69.02C355.318 68.8867 355.865 68.7 356.425 68.46V70C355.878 70.24 355.338 70.4133 354.805 70.52C354.271 70.64 353.638 70.7 352.905 70.7C351.891 70.7 350.991 70.4933 350.205 70.08C349.431 69.6667 348.825 69.0533 348.385 68.24C347.958 67.4133 347.745 66.4067 347.745 65.22C347.745 64.0467 347.938 63.04 348.325 62.2C348.725 61.36 349.278 60.7133 349.985 60.26C350.705 59.8067 351.538 59.58 352.485 59.58ZM352.465 61.02C351.625 61.02 350.958 61.2933 350.465 61.84C349.985 62.3733 349.698 63.12 349.605 64.08H355.065C355.051 63.1733 354.838 62.44 354.425 61.88C354.011 61.3067 353.358 61.02 352.465 61.02ZM364.794 59.58C366.074 59.58 367.04 59.8933 367.694 60.52C368.347 61.1333 368.674 62.1333 368.674 63.52V70.5H366.934V63.64C366.934 61.92 366.134 61.06 364.534 61.06C363.347 61.06 362.527 61.3933 362.074 62.06C361.62 62.7267 361.394 63.6867 361.394 64.94V70.5H359.634V59.78H361.054L361.314 61.24H361.414C361.76 60.68 362.24 60.2667 362.854 60C363.467 59.72 364.114 59.58 364.794 59.58ZM379.552 70.5L375.492 59.78H377.372L379.652 66.1C379.759 66.3933 379.872 66.72 379.992 67.08C380.112 67.44 380.219 67.7867 380.312 68.12C380.406 68.44 380.472 68.7133 380.512 68.94H380.592C380.646 68.7133 380.719 68.4333 380.812 68.1C380.919 67.7667 381.032 67.42 381.152 67.06C381.286 66.7 381.399 66.38 381.492 66.1L383.772 59.78H385.652L381.572 70.5H379.552ZM391.488 59.58C392.408 59.58 393.195 59.78 393.848 60.18C394.515 60.58 395.022 61.1467 395.368 61.88C395.728 62.6 395.908 63.4467 395.908 64.42V65.48H388.568C388.595 66.6933 388.902 67.62 389.488 68.26C390.088 68.8867 390.922 69.2 391.988 69.2C392.668 69.2 393.268 69.14 393.788 69.02C394.322 68.8867 394.868 68.7 395.428 68.46V70C394.882 70.24 394.342 70.4133 393.808 70.52C393.275 70.64 392.642 70.7 391.908 70.7C390.895 70.7 389.995 70.4933 389.208 70.08C388.435 69.6667 387.828 69.0533 387.388 68.24C386.962 67.4133 386.748 66.4067 386.748 65.22C386.748 64.0467 386.942 63.04 387.328 62.2C387.728 61.36 388.282 60.7133 388.988 60.26C389.708 59.8067 390.542 59.58 391.488 59.58ZM391.468 61.02C390.628 61.02 389.962 61.2933 389.468 61.84C388.988 62.3733 388.702 63.12 388.608 64.08H394.068C394.055 63.1733 393.842 62.44 393.428 61.88C393.015 61.3067 392.362 61.02 391.468 61.02ZM403.638 59.58C403.838 59.58 404.051 59.5933 404.278 59.62C404.518 59.6333 404.724 59.66 404.898 59.7L404.678 61.32C404.504 61.28 404.311 61.2467 404.098 61.22C403.898 61.1933 403.704 61.18 403.518 61.18C402.971 61.18 402.458 61.3333 401.978 61.64C401.498 61.9333 401.111 62.3533 400.818 62.9C400.538 63.4333 400.398 64.06 400.398 64.78V70.5H398.638V59.78H400.078L400.278 61.74H400.358C400.704 61.1533 401.151 60.6467 401.698 60.22C402.244 59.7933 402.891 59.58 403.638 59.58ZM413.879 67.54C413.879 68.58 413.493 69.3667 412.719 69.9C411.946 70.4333 410.906 70.7 409.599 70.7C408.853 70.7 408.206 70.64 407.659 70.52C407.126 70.4 406.653 70.2333 406.239 70.02V68.42C406.666 68.6333 407.179 68.8333 407.779 69.02C408.393 69.1933 409.013 69.28 409.639 69.28C410.533 69.28 411.179 69.14 411.579 68.86C411.979 68.5667 412.179 68.18 412.179 67.7C412.179 67.4333 412.106 67.1933 411.959 66.98C411.813 66.7667 411.546 66.5533 411.159 66.34C410.786 66.1267 410.246 65.8867 409.539 65.62C408.846 65.3533 408.253 65.0867 407.759 64.82C407.266 64.5533 406.886 64.2333 406.619 63.86C406.353 63.4867 406.219 63.0067 406.219 62.42C406.219 61.5133 406.586 60.8133 407.319 60.32C408.066 59.8267 409.039 59.58 410.239 59.58C410.893 59.58 411.499 59.6467 412.059 59.78C412.633 59.9 413.166 60.0733 413.659 60.3L413.059 61.7C412.606 61.5133 412.133 61.3533 411.639 61.22C411.146 61.0867 410.639 61.02 410.119 61.02C409.399 61.02 408.846 61.14 408.459 61.38C408.086 61.6067 407.899 61.92 407.899 62.32C407.899 62.6133 407.986 62.8667 408.159 63.08C408.333 63.28 408.619 63.48 409.019 63.68C409.433 63.8667 409.979 64.0933 410.659 64.36C411.339 64.6133 411.919 64.8733 412.399 65.14C412.879 65.4067 413.246 65.7333 413.499 66.12C413.753 66.4933 413.879 66.9667 413.879 67.54ZM423.425 70.5H421.665V55.3H423.425V70.5ZM430.881 59.6C432.188 59.6 433.154 59.8867 433.781 60.46C434.408 61.0333 434.721 61.9467 434.721 63.2V70.5H433.441L433.101 68.98H433.021C432.554 69.5667 432.061 70 431.541 70.28C431.034 70.56 430.328 70.7 429.421 70.7C428.448 70.7 427.641 70.4467 427.001 69.94C426.361 69.42 426.041 68.6133 426.041 67.52C426.041 66.4533 426.461 65.6333 427.301 65.06C428.141 64.4733 429.434 64.1533 431.181 64.1L433.001 64.04V63.4C433.001 62.5067 432.808 61.8867 432.421 61.54C432.034 61.1933 431.488 61.02 430.781 61.02C430.221 61.02 429.688 61.1067 429.181 61.28C428.674 61.44 428.201 61.6267 427.761 61.84L427.221 60.52C427.688 60.2667 428.241 60.0533 428.881 59.88C429.521 59.6933 430.188 59.6 430.881 59.6ZM431.401 65.32C430.068 65.3733 429.141 65.5867 428.621 65.96C428.114 66.3333 427.861 66.86 427.861 67.54C427.861 68.14 428.041 68.58 428.401 68.86C428.774 69.14 429.248 69.28 429.821 69.28C430.728 69.28 431.481 69.0333 432.081 68.54C432.681 68.0333 432.981 67.26 432.981 66.22V65.26L431.401 65.32ZM448.327 59.58C449.647 59.58 450.707 60.04 451.507 60.96C452.321 61.88 452.727 63.2667 452.727 65.12C452.727 66.9467 452.321 68.3333 451.507 69.28C450.707 70.2267 449.641 70.7 448.307 70.7C447.481 70.7 446.794 70.5467 446.247 70.24C445.714 69.92 445.294 69.5533 444.987 69.14H444.867C444.894 69.3667 444.921 69.6533 444.947 70C444.974 70.3467 444.987 70.6467 444.987 70.9V75.3H443.227V59.78H444.667L444.907 61.24H444.987C445.307 60.7733 445.727 60.38 446.247 60.06C446.767 59.74 447.461 59.58 448.327 59.58ZM448.007 61.06C446.914 61.06 446.141 61.3667 445.687 61.98C445.247 62.5933 445.014 63.5267 444.987 64.78V65.12C444.987 66.44 445.201 67.46 445.627 68.18C446.067 68.8867 446.874 69.24 448.047 69.24C448.701 69.24 449.234 69.06 449.647 68.7C450.074 68.34 450.387 67.8533 450.587 67.24C450.801 66.6133 450.907 65.9 450.907 65.1C450.907 63.8733 450.667 62.8933 450.187 62.16C449.721 61.4267 448.994 61.06 448.007 61.06ZM459.592 59.6C460.899 59.6 461.865 59.8867 462.492 60.46C463.119 61.0333 463.432 61.9467 463.432 63.2V70.5H462.152L461.812 68.98H461.732C461.265 69.5667 460.772 70 460.252 70.28C459.745 70.56 459.039 70.7 458.132 70.7C457.159 70.7 456.352 70.4467 455.712 69.94C455.072 69.42 454.752 68.6133 454.752 67.52C454.752 66.4533 455.172 65.6333 456.012 65.06C456.852 64.4733 458.145 64.1533 459.892 64.1L461.712 64.04V63.4C461.712 62.5067 461.519 61.8867 461.132 61.54C460.745 61.1933 460.199 61.02 459.492 61.02C458.932 61.02 458.399 61.1067 457.892 61.28C457.385 61.44 456.912 61.6267 456.472 61.84L455.932 60.52C456.399 60.2667 456.952 60.0533 457.592 59.88C458.232 59.6933 458.899 59.6 459.592 59.6ZM460.112 65.32C458.779 65.3733 457.852 65.5867 457.332 65.96C456.825 66.3333 456.572 66.86 456.572 67.54C456.572 68.14 456.752 68.58 457.112 68.86C457.485 69.14 457.959 69.28 458.532 69.28C459.439 69.28 460.192 69.0333 460.792 68.54C461.392 68.0333 461.692 67.26 461.692 66.22V65.26L460.112 65.32ZM470.543 59.58C471.25 59.58 471.883 59.7133 472.443 59.98C473.016 60.2467 473.503 60.6533 473.903 61.2H474.003L474.243 59.78H475.643V70.68C475.643 72.2133 475.25 73.3667 474.463 74.14C473.69 74.9133 472.483 75.3 470.843 75.3C469.27 75.3 467.983 75.0733 466.983 74.62V73C468.036 73.56 469.356 73.84 470.943 73.84C471.863 73.84 472.583 73.5667 473.103 73.02C473.636 72.4867 473.903 71.7533 473.903 70.82V70.4C473.903 70.24 473.91 70.0133 473.923 69.72C473.936 69.4133 473.95 69.2 473.963 69.08H473.883C473.163 70.16 472.056 70.7 470.563 70.7C469.176 70.7 468.09 70.2133 467.303 69.24C466.53 68.2667 466.143 66.9067 466.143 65.16C466.143 63.4533 466.53 62.1 467.303 61.1C468.09 60.0867 469.17 59.58 470.543 59.58ZM470.783 61.06C469.89 61.06 469.196 61.42 468.703 62.14C468.21 62.8467 467.963 63.86 467.963 65.18C467.963 66.5 468.203 67.5133 468.683 68.22C469.176 68.9133 469.89 69.26 470.823 69.26C471.903 69.26 472.69 68.9733 473.183 68.4C473.676 67.8133 473.923 66.8733 473.923 65.58V65.16C473.923 63.6933 473.67 62.6467 473.163 62.02C472.656 61.38 471.863 61.06 470.783 61.06ZM483.188 59.58C484.108 59.58 484.894 59.78 485.548 60.18C486.214 60.58 486.721 61.1467 487.068 61.88C487.428 62.6 487.608 63.4467 487.608 64.42V65.48H480.268C480.294 66.6933 480.601 67.62 481.188 68.26C481.788 68.8867 482.621 69.2 483.688 69.2C484.368 69.2 484.968 69.14 485.488 69.02C486.021 68.8867 486.568 68.7 487.128 68.46V70C486.581 70.24 486.041 70.4133 485.508 70.52C484.974 70.64 484.341 70.7 483.608 70.7C482.594 70.7 481.694 70.4933 480.908 70.08C480.134 69.6667 479.528 69.0533 479.088 68.24C478.661 67.4133 478.448 66.4067 478.448 65.22C478.448 64.0467 478.641 63.04 479.028 62.2C479.428 61.36 479.981 60.7133 480.688 60.26C481.408 59.8067 482.241 59.58 483.188 59.58ZM483.168 61.02C482.328 61.02 481.661 61.2933 481.168 61.84C480.688 62.3733 480.401 63.12 480.308 64.08H485.768C485.754 63.1733 485.541 62.44 485.128 61.88C484.714 61.3067 484.061 61.02 483.168 61.02ZM500.632 59.58C501.952 59.58 503.012 60.04 503.812 60.96C504.625 61.88 505.032 63.2667 505.032 65.12C505.032 66.9467 504.625 68.3333 503.812 69.28C503.012 70.2267 501.945 70.7 500.612 70.7C499.785 70.7 499.099 70.5467 498.552 70.24C498.019 69.92 497.599 69.5533 497.292 69.14H497.172C497.199 69.3667 497.225 69.6533 497.252 70C497.279 70.3467 497.292 70.6467 497.292 70.9V75.3H495.532V59.78H496.972L497.212 61.24H497.292C497.612 60.7733 498.032 60.38 498.552 60.06C499.072 59.74 499.765 59.58 500.632 59.58ZM500.312 61.06C499.219 61.06 498.445 61.3667 497.992 61.98C497.552 62.5933 497.319 63.5267 497.292 64.78V65.12C497.292 66.44 497.505 67.46 497.932 68.18C498.372 68.8867 499.179 69.24 500.352 69.24C501.005 69.24 501.539 69.06 501.952 68.7C502.379 68.34 502.692 67.8533 502.892 67.24C503.105 66.6133 503.212 65.9 503.212 65.1C503.212 63.8733 502.972 62.8933 502.492 62.16C502.025 61.4267 501.299 61.06 500.312 61.06ZM511.897 59.6C513.203 59.6 514.17 59.8867 514.797 60.46C515.423 61.0333 515.737 61.9467 515.737 63.2V70.5H514.457L514.117 68.98H514.037C513.57 69.5667 513.077 70 512.557 70.28C512.05 70.56 511.343 70.7 510.437 70.7C509.463 70.7 508.657 70.4467 508.017 69.94C507.377 69.42 507.057 68.6133 507.057 67.52C507.057 66.4533 507.477 65.6333 508.317 65.06C509.157 64.4733 510.45 64.1533 512.197 64.1L514.017 64.04V63.4C514.017 62.5067 513.823 61.8867 513.437 61.54C513.05 61.1933 512.503 61.02 511.797 61.02C511.237 61.02 510.703 61.1067 510.197 61.28C509.69 61.44 509.217 61.6267 508.777 61.84L508.237 60.52C508.703 60.2667 509.257 60.0533 509.897 59.88C510.537 59.6933 511.203 59.6 511.897 59.6ZM512.417 65.32C511.083 65.3733 510.157 65.5867 509.637 65.96C509.13 66.3333 508.877 66.86 508.877 67.54C508.877 68.14 509.057 68.58 509.417 68.86C509.79 69.14 510.263 69.28 510.837 69.28C511.743 69.28 512.497 69.0333 513.097 68.54C513.697 68.0333 513.997 67.26 513.997 66.22V65.26L512.417 65.32ZM524.048 59.58C524.248 59.58 524.461 59.5933 524.688 59.62C524.928 59.6333 525.134 59.66 525.308 59.7L525.088 61.32C524.914 61.28 524.721 61.2467 524.508 61.22C524.308 61.1933 524.114 61.18 523.928 61.18C523.381 61.18 522.868 61.3333 522.388 61.64C521.908 61.9333 521.521 62.3533 521.228 62.9C520.948 63.4333 520.808 64.06 520.808 64.78V70.5H519.048V59.78H520.488L520.688 61.74H520.768C521.114 61.1533 521.561 60.6467 522.108 60.22C522.654 59.7933 523.301 59.58 524.048 59.58ZM531.059 59.58C531.979 59.58 532.765 59.78 533.419 60.18C534.085 60.58 534.592 61.1467 534.939 61.88C535.299 62.6 535.479 63.4467 535.479 64.42V65.48H528.139C528.165 66.6933 528.472 67.62 529.059 68.26C529.659 68.8867 530.492 69.2 531.559 69.2C532.239 69.2 532.839 69.14 533.359 69.02C533.892 68.8867 534.439 68.7 534.999 68.46V70C534.452 70.24 533.912 70.4133 533.379 70.52C532.845 70.64 532.212 70.7 531.479 70.7C530.465 70.7 529.565 70.4933 528.779 70.08C528.005 69.6667 527.399 69.0533 526.959 68.24C526.532 67.4133 526.319 66.4067 526.319 65.22C526.319 64.0467 526.512 63.04 526.899 62.2C527.299 61.36 527.852 60.7133 528.559 60.26C529.279 59.8067 530.112 59.58 531.059 59.58ZM531.039 61.02C530.199 61.02 529.532 61.2933 529.039 61.84C528.559 62.3733 528.272 63.12 528.179 64.08H533.639C533.625 63.1733 533.412 62.44 532.999 61.88C532.585 61.3067 531.932 61.02 531.039 61.02ZM543.368 59.58C544.648 59.58 545.614 59.8933 546.268 60.52C546.921 61.1333 547.248 62.1333 547.248 63.52V70.5H545.508V63.64C545.508 61.92 544.708 61.06 543.108 61.06C541.921 61.06 541.101 61.3933 540.648 62.06C540.194 62.7267 539.968 63.6867 539.968 64.94V70.5H538.208V59.78H539.628L539.888 61.24H539.988C540.334 60.68 540.814 60.2667 541.428 60C542.041 59.72 542.688 59.58 543.368 59.58ZM554.151 69.26C554.418 69.26 554.691 69.24 554.971 69.2C555.251 69.1467 555.478 69.0933 555.651 69.04V70.38C555.464 70.4733 555.198 70.5467 554.851 70.6C554.504 70.6667 554.171 70.7 553.851 70.7C553.291 70.7 552.771 70.6067 552.291 70.42C551.824 70.22 551.444 69.88 551.151 69.4C550.858 68.92 550.711 68.2467 550.711 67.38V61.14H549.191V60.3L550.731 59.6L551.431 57.32H552.471V59.78H555.571V61.14H552.471V67.34C552.471 67.9933 552.624 68.48 552.931 68.8C553.251 69.1067 553.658 69.26 554.151 69.26Z" fill="#425A76"/>
<line x1="331" y1="77" x2="557" y2="77" stroke="#2B4380"/>
<g clip-path="url(#clip0_7239_17723)">
<rect x="444" width="1" height="51" fill="#C54600"/>
<g clip-path="url(#clip1_7239_17723)">
<rect x="432" width="24" height="24" rx="12" fill="#C54600"/>
<path d="M439.927 15.2102V13.5149L444.178 6.81818H445.639V9.16477H444.774L442.095 13.4055V13.4851H448.135V15.2102H439.927ZM444.814 17V14.6932L444.854 13.9425V6.81818H446.872V17H444.814Z" fill="white"/>
</g>
</g>
<g clip-path="url(#clip2_7239_17723)">
<rect x="216" width="1" height="52.5" fill="#C54600"/>
<g clip-path="url(#clip3_7239_17723)">
<rect x="204" width="24" height="24" rx="12" fill="#C54600"/>
<path d="M215.975 17.1392C215.232 17.1392 214.571 17.0116 213.991 16.7564C213.414 16.4979 212.958 16.1432 212.624 15.6925C212.292 15.2384 212.122 14.7147 212.112 14.1214H214.279C214.292 14.37 214.374 14.5888 214.523 14.7777C214.675 14.9633 214.877 15.1075 215.129 15.2102C215.381 15.313 215.665 15.3643 215.979 15.3643C216.308 15.3643 216.598 15.3063 216.85 15.1903C217.101 15.0743 217.299 14.9136 217.441 14.7081C217.584 14.5026 217.655 14.2656 217.655 13.9972C217.655 13.7254 217.579 13.4851 217.426 13.2763C217.277 13.0642 217.062 12.8984 216.78 12.7791C216.502 12.6598 216.17 12.6001 215.786 12.6001H214.836V11.0192H215.786C216.11 11.0192 216.397 10.9628 216.646 10.8501C216.898 10.7375 217.093 10.5817 217.232 10.3828C217.372 10.1806 217.441 9.94531 217.441 9.67685C217.441 9.42164 217.38 9.19792 217.257 9.00568C217.138 8.81013 216.969 8.65767 216.75 8.5483C216.535 8.43892 216.283 8.38423 215.994 8.38423C215.703 8.38423 215.436 8.43726 215.194 8.54332C214.952 8.64607 214.758 8.79356 214.612 8.9858C214.466 9.17803 214.389 9.40341 214.379 9.66193H212.315C212.325 9.07528 212.493 8.55824 212.818 8.1108C213.142 7.66335 213.58 7.31368 214.13 7.06179C214.684 6.80658 215.308 6.67898 216.004 6.67898C216.707 6.67898 217.322 6.80658 217.849 7.06179C218.376 7.317 218.785 7.66169 219.077 8.09588C219.372 8.52675 219.518 9.01065 219.514 9.54758C219.518 10.1177 219.34 10.5933 218.982 10.9744C218.628 11.3556 218.165 11.5975 217.595 11.7003V11.7798C218.344 11.8759 218.914 12.1361 219.305 12.5604C219.7 12.9813 219.895 13.5083 219.892 14.1413C219.895 14.7214 219.728 15.2367 219.39 15.6875C219.055 16.1383 218.593 16.4929 218.003 16.7514C217.413 17.0099 216.737 17.1392 215.975 17.1392Z" fill="white"/>
</g>
</g>
<g clip-path="url(#clip4_7239_17723)">
<rect x="112.5" width="1" height="51" fill="#C54600"/>
<g clip-path="url(#clip5_7239_17723)">
<rect x="100.5" width="24" height="24" rx="12" fill="#C54600"/>
<path d="M108.916 17V15.4489L112.54 12.093C112.849 11.7947 113.107 11.5263 113.316 11.2876C113.528 11.049 113.689 10.8153 113.798 10.5866C113.908 10.3546 113.962 10.1044 113.962 9.83594C113.962 9.53764 113.894 9.28078 113.758 9.06534C113.623 8.84659 113.437 8.67921 113.202 8.56321C112.966 8.44389 112.699 8.38423 112.401 8.38423C112.09 8.38423 111.818 8.44721 111.586 8.57315C111.354 8.6991 111.175 8.87973 111.049 9.11506C110.923 9.35038 110.86 9.63044 110.86 9.95526H108.817C108.817 9.28906 108.967 8.7107 109.269 8.22017C109.571 7.72964 109.993 7.35014 110.537 7.08168C111.08 6.81321 111.707 6.67898 112.416 6.67898C113.145 6.67898 113.78 6.80824 114.32 7.06676C114.864 7.32197 115.286 7.67661 115.588 8.13068C115.89 8.58475 116.04 9.10511 116.04 9.69176C116.04 10.0762 115.964 10.4557 115.812 10.8303C115.663 11.2048 115.396 11.6207 115.011 12.0781C114.627 12.5322 114.085 13.0774 113.386 13.7138L111.899 15.1705V15.2401H116.175V17H108.916Z" fill="white"/>
</g>
</g>
<g clip-path="url(#clip6_7239_17723)">
<rect x="52" width="1" height="52.5" fill="#C54600"/>
<g clip-path="url(#clip7_7239_17723)">
<rect x="40" width="24" height="24" rx="12" fill="#C54600"/>
<path d="M53.8302 6.81818V17H51.6775V8.86151H51.6178L49.2861 10.3232V8.41406L51.8067 6.81818H53.8302Z" fill="white"/>
</g>
</g>
<defs>
<clipPath id="clip0_7239_17723">
<rect width="24" height="51" fill="white" transform="translate(432)"/>
</clipPath>
<clipPath id="clip1_7239_17723">
<rect x="432" width="24" height="24" rx="12" fill="white"/>
</clipPath>
<clipPath id="clip2_7239_17723">
<rect width="24" height="52.5" fill="white" transform="translate(204)"/>
</clipPath>
<clipPath id="clip3_7239_17723">
<rect x="204" width="24" height="24" rx="12" fill="white"/>
</clipPath>
<clipPath id="clip4_7239_17723">
<rect width="24" height="51" fill="white" transform="translate(100.5)"/>
</clipPath>
<clipPath id="clip5_7239_17723">
<rect x="100.5" width="24" height="24" rx="12" fill="white"/>
</clipPath>
<clipPath id="clip6_7239_17723">
<rect width="24" height="52.5" fill="white" transform="translate(40)"/>
</clipPath>
<clipPath id="clip7_7239_17723">
<rect x="40" width="24" height="24" rx="12" fill="white"/>
</clipPath>
</defs>
</svg>
