<?xml version="1.0" encoding="UTF-8"?>
<svg id="Layer_1" xmlns="http://www.w3.org/2000/svg" xmlns:xlink="http://www.w3.org/1999/xlink" version="1.1" width="546" height="451" viewBox="0 0 546 451">
  <!-- Generator: Adobe Illustrator 29.2.1, SVG Export Plug-In . SVG Version: 2.1.0 Build 116)  -->
  <defs>
    <style>
      .st0 {
        fill: none;
      }

      .st1 {
        filter: url(#drop-shadow-1);
      }

      .st2 {
        fill: #1e7b96;
      }

      .st3 {
        fill: #2b4380;
      }

      .st4 {
        clip-path: url(#clippath-11);
      }

      .st5 {
        clip-path: url(#clippath-10);
      }

      .st6 {
        clip-path: url(#clippath-1);
      }

      .st7 {
        clip-path: url(#clippath-3);
      }

      .st8 {
        clip-path: url(#clippath-4);
      }

      .st9 {
        clip-path: url(#clippath-2);
      }

      .st10 {
        clip-path: url(#clippath-7);
      }

      .st11 {
        clip-path: url(#clippath-6);
      }

      .st12 {
        clip-path: url(#clippath-9);
      }

      .st13 {
        clip-path: url(#clippath-8);
      }

      .st14 {
        clip-path: url(#clippath-5);
      }

      .st15 {
        fill: #fff;
      }

      .st16 {
        fill: #c54600;
      }

      .st17 {
        fill: #f1f2f3;
      }

      .st18 {
        fill: #333;
      }

      .st19 {
        clip-path: url(#clippath);
      }
    </style>
    <filter id="drop-shadow-1" x="47" y="19" width="408" height="439" filterUnits="userSpaceOnUse">
      <feOffset dx="0" dy="3"/>
      <feGaussianBlur result="blur" stdDeviation="10"/>
      <feFlood flood-color="#000" flood-opacity=".2"/>
      <feComposite in2="blur" operator="in"/>
      <feComposite in="SourceGraphic"/>
    </filter>
    <clipPath id="clippath">
      <rect class="st0" x="77" y="46.5" width="348" height="378"/>
    </clipPath>
    <clipPath id="clippath-1">
      <rect class="st0" x="101" y="82.5" width="300" height="168"/>
    </clipPath>
    <clipPath id="clippath-2">
      <rect class="st0" y="332" width="72" height="24"/>
    </clipPath>
    <clipPath id="clippath-3">
      <path class="st0" d="M12,332h0c6.6,0,12,5.4,12,12s-5.4,12-12,12-12-5.4-12-12,5.4-12,12-12Z"/>
    </clipPath>
    <clipPath id="clippath-4">
      <rect class="st0" y="285" width="72" height="24"/>
    </clipPath>
    <clipPath id="clippath-5">
      <path class="st0" d="M12,285h0c6.6,0,12,5.4,12,12s-5.4,12-12,12-12-5.4-12-12,5.4-12,12-12Z"/>
    </clipPath>
    <clipPath id="clippath-6">
      <rect class="st0" y="157" width="72" height="24"/>
    </clipPath>
    <clipPath id="clippath-7">
      <path class="st0" d="M12,157h0c6.6,0,12,5.4,12,12s-5.4,12-12,12-12-5.4-12-12,5.4-12,12-12Z"/>
    </clipPath>
    <clipPath id="clippath-8">
      <rect class="st0" y="52" width="72" height="24"/>
    </clipPath>
    <clipPath id="clippath-9">
      <path class="st0" d="M12,52h0c6.6,0,12,5.4,12,12s-5.4,12-12,12S0,70.6,0,64s5.4-12,12-12Z"/>
    </clipPath>
    <clipPath id="clippath-10">
      <rect class="st0" x="204" width="24" height="47"/>
    </clipPath>
    <clipPath id="clippath-11">
      <path class="st0" d="M216,0h0c6.6,0,12,5.4,12,12s-5.4,12-12,12-12-5.4-12-12,5.4-12,12-12Z"/>
    </clipPath>
  </defs>
  <g class="st1">
    <g class="st19">
      <g>
        <rect class="st15" x="77" y="46.5" width="348" height="378"/>
        <g class="st6">
          <rect class="st17" x="101" y="82.5" width="300" height="168"/>
        </g>
        <path class="st3" d="M118,287.7h-6.3v17.8h-3.9v-17.8h-6.3v-3.2h16.5v3.2ZM123.7,290.6v14.9h-3.6v-14.9h3.6ZM124.2,286.3c0,.3,0,.6-.2.9-.1.3-.3.5-.5.7-.2.2-.4.4-.7.5-.3.1-.6.2-.9.2s-.6,0-.9-.2c-.3-.1-.5-.3-.7-.5s-.4-.4-.5-.7c-.1-.3-.2-.6-.2-.9s0-.6.2-.9c.1-.3.3-.5.5-.7s.4-.4.7-.5c.3-.1.6-.2.9-.2s.6,0,.9.2c.3.1.5.3.7.5.2.2.4.4.5.7.1.3.2.6.2.9ZM132.3,305.7c-1.3,0-2.3-.4-3-1.1-.7-.7-1-1.7-1-3v-8.3h-1.5c-.2,0-.4,0-.5-.2-.1-.1-.2-.3-.2-.6v-1.4l2.4-.4.8-4.1c0-.2.1-.3.3-.4.1-.1.3-.2.5-.2h1.9v4.7h4v2.6h-4v8.1c0,.5.1.8.3,1.1.2.3.5.4.9.4s.4,0,.6,0c.2,0,.3-.1.4-.2.1,0,.2-.1.3-.2,0,0,.2,0,.3,0s.2,0,.3,0c0,0,.1.1.2.2l1.1,1.7c-.5.4-1.1.8-1.8,1-.7.2-1.4.3-2.1.3ZM141.5,293.2c.5-.9,1-1.6,1.7-2.1.6-.5,1.4-.8,2.3-.8s1.2.2,1.7.5l-.2,2.7c0,.2-.1.3-.2.4,0,0-.2.1-.4.1s-.4,0-.7,0c-.3,0-.6,0-.8,0-.4,0-.7,0-1.1.2-.3.1-.6.3-.8.5-.2.2-.5.5-.7.8-.2.3-.4.7-.5,1.1v9.2h-3.6v-14.9h2.1c.4,0,.6,0,.8.2.1.1.2.4.3.7l.2,1.7ZM158.1,296.4c0-.5,0-.9-.2-1.3-.1-.4-.3-.8-.6-1.1-.3-.3-.6-.6-1-.7-.4-.2-.9-.3-1.4-.3-1,0-1.9.3-2.5.9-.6.6-1,1.4-1.1,2.5h6.8ZM151.3,298.5c0,.8.2,1.4.4,2,.2.6.5,1,.8,1.4.3.4.8.6,1.2.8.5.2,1,.3,1.6.3s1.1,0,1.5-.2c.4-.1.8-.3,1.1-.4.3-.2.6-.3.8-.4.2-.1.5-.2.7-.2s.5.1.7.3l1,1.3c-.4.5-.8.9-1.3,1.2-.5.3-1,.6-1.6.8-.5.2-1.1.3-1.6.4-.6,0-1.1.1-1.6.1-1,0-2-.2-2.9-.5-.9-.3-1.7-.9-2.3-1.5-.7-.7-1.2-1.5-1.6-2.5-.4-1-.6-2.1-.6-3.5s.2-2,.5-2.9c.3-.9.8-1.7,1.4-2.3.6-.7,1.4-1.2,2.2-1.6.9-.4,1.9-.6,3-.6s1.8.1,2.6.4c.8.3,1.5.7,2,1.3.6.6,1,1.3,1.3,2.1.3.8.5,1.8.5,2.9s0,.9-.2,1.1c-.1.2-.3.3-.7.3h-9.2Z"/>
        <path class="st18" d="M114.4,341.2c0,2.4-.7,4.2-2,5.5-1.3,1.2-3.1,1.8-5.5,1.8h-4v-14.3h4.4c1.4,0,2.7.3,3.7.8,1.1.5,1.9,1.3,2.4,2.4.6,1,.9,2.3.9,3.8ZM112.5,341.3c0-1.9-.5-3.3-1.4-4.2-.9-.9-2.3-1.3-4-1.3h-2.3v11.2h1.9c3.9,0,5.8-1.9,5.8-5.7ZM121.4,337.6c.9,0,1.7.2,2.4.6.7.4,1.2,1,1.5,1.7.4.7.5,1.6.5,2.5v1.1h-7.3c0,1.2.3,2.1.9,2.8.6.6,1.4.9,2.5.9s1.3,0,1.8-.2c.5-.1,1.1-.3,1.6-.6v1.5c-.5.2-1.1.4-1.6.5-.5.1-1.2.2-1.9.2s-1.9-.2-2.7-.6c-.8-.4-1.4-1-1.8-1.8-.4-.8-.6-1.8-.6-3s.2-2.2.6-3c.4-.8,1-1.5,1.7-1.9.7-.5,1.6-.7,2.5-.7ZM121.4,339c-.8,0-1.5.3-2,.8-.5.5-.8,1.3-.9,2.2h5.5c0-.9-.2-1.6-.6-2.2-.4-.6-1.1-.9-2-.9ZM135.6,345.5c0,1-.4,1.8-1.2,2.4-.8.5-1.8.8-3.1.8s-1.4,0-1.9-.2c-.5-.1-1-.3-1.4-.5v-1.6c.4.2.9.4,1.5.6.6.2,1.2.3,1.9.3.9,0,1.5-.1,1.9-.4.4-.3.6-.7.6-1.2s0-.5-.2-.7c-.1-.2-.4-.4-.8-.6-.4-.2-.9-.5-1.6-.7-.7-.3-1.3-.5-1.8-.8-.5-.3-.9-.6-1.1-1-.3-.4-.4-.9-.4-1.4,0-.9.4-1.6,1.1-2.1.7-.5,1.7-.7,2.9-.7s1.3,0,1.8.2c.6.1,1.1.3,1.6.5l-.6,1.4c-.5-.2-.9-.3-1.4-.5-.5-.1-1-.2-1.5-.2s-1.3.1-1.7.4c-.4.2-.6.5-.6.9s0,.5.3.8c.2.2.5.4.9.6.4.2,1,.4,1.6.7.7.3,1.3.5,1.7.8.5.3.8.6,1.1,1,.3.4.4.8.4,1.4ZM142.5,348.7c-.9,0-1.8-.2-2.5-.6-.7-.4-1.3-1-1.7-1.8-.4-.8-.6-1.9-.6-3.1s.2-2.4.7-3.2,1-1.4,1.8-1.8c.8-.4,1.6-.6,2.6-.6s1.1,0,1.6.2c.5.1.9.2,1.2.4l-.5,1.5c-.3-.1-.7-.2-1.1-.3-.4-.1-.8-.2-1.2-.2-2.1,0-3.2,1.4-3.2,4.1s.3,2.3.8,3c.5.7,1.3,1,2.3,1s1.1,0,1.5-.2c.5-.1.9-.3,1.2-.4v1.6c-.4.2-.8.3-1.2.4-.4.1-.9.2-1.6.2ZM152.8,337.6c.2,0,.4,0,.6,0,.2,0,.4,0,.6,0l-.2,1.6c-.2,0-.4,0-.6-.1-.2,0-.4,0-.6,0-.5,0-1.1.2-1.5.5-.5.3-.9.7-1.2,1.3-.3.5-.4,1.2-.4,1.9v5.7h-1.8v-10.7h1.4l.2,2h0c.3-.6.8-1.1,1.3-1.5s1.2-.6,1.9-.6ZM156.9,333.8c.3,0,.5,0,.7.3.2.2.3.5.3.8s-.1.7-.3.8c-.2.2-.4.3-.7.3s-.5,0-.7-.3-.3-.5-.3-.8.1-.7.3-.8c.2-.2.4-.3.7-.3ZM157.8,337.8v10.7h-1.8v-10.7h1.8ZM166.3,337.6c1.3,0,2.4.5,3.2,1.4.8.9,1.2,2.3,1.2,4.2s-.4,3.2-1.2,4.2c-.8.9-1.9,1.4-3.2,1.4s-1.5-.2-2.1-.5c-.5-.3-1-.7-1.3-1.1h-.1c0,.2,0,.5,0,.9s0,.6,0,.9v4.4h-1.8v-15.5h1.4l.2,1.5h0c.3-.5.7-.9,1.3-1.2.5-.3,1.2-.5,2.1-.5ZM166,339.1c-1.1,0-1.9.3-2.3.9-.4.6-.7,1.5-.7,2.8v.3c0,1.3.2,2.3.6,3.1.4.7,1.2,1.1,2.4,1.1s1.2-.2,1.6-.5c.4-.4.7-.8.9-1.5.2-.6.3-1.3.3-2.1,0-1.2-.2-2.2-.7-2.9-.5-.7-1.2-1.1-2.2-1.1ZM177.1,347.3c.3,0,.5,0,.8,0,.3,0,.5-.1.7-.2v1.3c-.2,0-.5.2-.8.2-.3,0-.7.1-1,.1-.6,0-1.1,0-1.6-.3-.5-.2-.8-.5-1.1-1-.3-.5-.4-1.2-.4-2v-6.2h-1.5v-.8l1.5-.7.7-2.3h1v2.5h3.1v1.4h-3.1v6.2c0,.7.2,1.1.5,1.5.3.3.7.5,1.2.5ZM181.6,333.8c.3,0,.5,0,.7.3.2.2.3.5.3.8s-.1.7-.3.8c-.2.2-.4.3-.7.3s-.5,0-.7-.3c-.2-.2-.3-.5-.3-.8s0-.7.3-.8c.2-.2.4-.3.7-.3ZM182.5,337.8v10.7h-1.8v-10.7h1.8ZM195.2,343.1c0,1.8-.5,3.1-1.4,4.1-.9,1-2.1,1.5-3.6,1.5s-1.8-.2-2.5-.6c-.7-.4-1.3-1.1-1.7-1.9-.4-.8-.6-1.9-.6-3,0-1.8.4-3.1,1.3-4.1.9-1,2.1-1.4,3.6-1.4s1.8.2,2.6.7c.7.4,1.3,1.1,1.7,1.9.4.8.6,1.8.6,3ZM187.1,343.1c0,1.3.2,2.3.7,3,.5.7,1.3,1.1,2.4,1.1s1.9-.4,2.4-1.1c.5-.7.8-1.8.8-3s-.3-2.3-.8-3c-.5-.7-1.3-1.1-2.4-1.1s-1.9.4-2.4,1.1c-.5.7-.7,1.7-.7,3ZM203.2,337.6c1.3,0,2.2.3,2.9.9.7.6,1,1.6,1,3v7h-1.7v-6.9c0-1.7-.8-2.6-2.4-2.6s-2,.3-2.5,1-.7,1.6-.7,2.9v5.6h-1.8v-10.7h1.4l.3,1.5h0c.3-.6.8-1,1.4-1.2.6-.3,1.3-.4,1.9-.4ZM219.4,348.7c-1.3,0-2.4-.5-3.2-1.4-.8-.9-1.2-2.3-1.2-4.2s.4-3.2,1.2-4.2c.8-.9,1.9-1.4,3.2-1.4s1.5.2,2,.5c.5.3,1,.7,1.3,1.1h.1c0-.2,0-.4,0-.8,0-.3,0-.6,0-.8v-4.3h1.8v15.2h-1.4l-.3-1.4h0c-.3.5-.7.8-1.3,1.2-.5.3-1.2.5-2.1.5ZM219.6,347.2c1.1,0,1.9-.3,2.4-.9.5-.6.7-1.6.7-2.8v-.3c0-1.3-.2-2.4-.7-3.1-.4-.7-1.3-1.1-2.4-1.1s-1.7.4-2.1,1.1c-.5.7-.7,1.8-.7,3s.2,2.3.7,3c.5.7,1.2,1.1,2.2,1.1ZM232,337.6c.9,0,1.7.2,2.4.6.7.4,1.2,1,1.5,1.7.4.7.5,1.6.5,2.5v1.1h-7.3c0,1.2.3,2.1.9,2.8.6.6,1.4.9,2.5.9s1.3,0,1.8-.2c.5-.1,1.1-.3,1.6-.6v1.5c-.5.2-1.1.4-1.6.5-.5.1-1.2.2-1.9.2s-1.9-.2-2.7-.6c-.8-.4-1.4-1-1.8-1.8-.4-.8-.6-1.8-.6-3s.2-2.2.6-3c.4-.8,1-1.5,1.7-1.9.7-.5,1.6-.7,2.5-.7ZM232,339c-.8,0-1.5.3-2,.8-.5.5-.8,1.3-.9,2.2h5.5c0-.9-.2-1.6-.6-2.2-.4-.6-1.1-.9-2-.9ZM246.1,345.5c0,1-.4,1.8-1.2,2.4-.8.5-1.8.8-3.1.8s-1.4,0-1.9-.2c-.5-.1-1-.3-1.4-.5v-1.6c.4.2.9.4,1.5.6.6.2,1.2.3,1.9.3.9,0,1.5-.1,1.9-.4.4-.3.6-.7.6-1.2s0-.5-.2-.7c-.1-.2-.4-.4-.8-.6-.4-.2-.9-.5-1.6-.7-.7-.3-1.3-.5-1.8-.8-.5-.3-.9-.6-1.1-1-.3-.4-.4-.9-.4-1.4,0-.9.4-1.6,1.1-2.1.7-.5,1.7-.7,2.9-.7s1.3,0,1.8.2c.6.1,1.1.3,1.6.5l-.6,1.4c-.5-.2-.9-.3-1.4-.5-.5-.1-1-.2-1.5-.2s-1.3.1-1.7.4c-.4.2-.6.5-.6.9s0,.5.3.8c.2.2.5.4.9.6.4.2,1,.4,1.6.7.7.3,1.3.5,1.7.8.5.3.8.6,1.1,1,.3.4.4.8.4,1.4ZM252.3,347.3c.3,0,.5,0,.8,0,.3,0,.5-.1.7-.2v1.3c-.2,0-.5.2-.8.2-.3,0-.7.1-1,.1-.6,0-1.1,0-1.6-.3-.5-.2-.8-.5-1.1-1-.3-.5-.4-1.2-.4-2v-6.2h-1.5v-.8l1.5-.7.7-2.3h1v2.5h3.1v1.4h-3.1v6.2c0,.7.2,1.1.5,1.5.3.3.7.5,1.2.5ZM256.8,333.8c.3,0,.5,0,.7.3.2.2.3.5.3.8s-.1.7-.3.8c-.2.2-.4.3-.7.3s-.5,0-.7-.3c-.2-.2-.3-.5-.3-.8s0-.7.3-.8c.2-.2.4-.3.7-.3ZM257.7,337.8v10.7h-1.8v-10.7h1.8ZM266.3,337.6c1.3,0,2.2.3,2.9.9.7.6,1,1.6,1,3v7h-1.7v-6.9c0-1.7-.8-2.6-2.4-2.6s-2,.3-2.5,1c-.5.7-.7,1.6-.7,2.9v5.6h-1.8v-10.7h1.4l.3,1.5h0c.3-.6.8-1,1.4-1.2.6-.3,1.3-.4,1.9-.4ZM277.6,337.6c.9,0,1.7.2,2.4.6.7.4,1.2,1,1.5,1.7.4.7.5,1.6.5,2.5v1.1h-7.3c0,1.2.3,2.1.9,2.8.6.6,1.4.9,2.5.9s1.3,0,1.8-.2c.5-.1,1.1-.3,1.6-.6v1.5c-.5.2-1.1.4-1.6.5-.5.1-1.2.2-1.9.2s-1.9-.2-2.7-.6c-.8-.4-1.4-1-1.8-1.8-.4-.8-.6-1.8-.6-3s.2-2.2.6-3c.4-.8,1-1.5,1.7-1.9.7-.5,1.6-.7,2.5-.7ZM277.6,339c-.8,0-1.5.3-2,.8-.5.5-.8,1.3-.9,2.2h5.5c0-.9-.2-1.6-.6-2.2-.4-.6-1.1-.9-2-.9ZM280.4,333.4c-.2.2-.4.6-.7.9-.3.4-.7.8-1.1,1.1-.4.4-.7.7-1,.9h-1.2v-.2c.2-.3.4-.6.6-.9.2-.3.5-.7.7-1.1.2-.4.4-.7.6-1h2.1v.2ZM288.9,337.6c.9,0,1.7.2,2.4.6.7.4,1.2,1,1.5,1.7.4.7.5,1.6.5,2.5v1.1h-7.3c0,1.2.3,2.1.9,2.8.6.6,1.4.9,2.5.9s1.3,0,1.8-.2c.5-.1,1.1-.3,1.6-.6v1.5c-.5.2-1.1.4-1.6.5-.5.1-1.2.2-1.9.2s-1.9-.2-2.7-.6c-.8-.4-1.4-1-1.8-1.8-.4-.8-.6-1.8-.6-3s.2-2.2.6-3c.4-.8,1-1.5,1.7-1.9.7-.5,1.6-.7,2.5-.7ZM288.9,339c-.8,0-1.5.3-2,.8-.5.5-.8,1.3-.9,2.2h5.5c0-.9-.2-1.6-.6-2.2-.4-.6-1.1-.9-2-.9ZM305.3,337.6c1.3,0,2.3.3,2.9.9.6.6.9,1.5.9,2.7v7.3h-1.3l-.3-1.5h0c-.5.6-1,1-1.5,1.3-.5.3-1.2.4-2.1.4s-1.8-.3-2.4-.8c-.6-.5-1-1.3-1-2.4s.4-1.9,1.3-2.5c.8-.6,2.1-.9,3.9-1h1.8v-.7c0-.9-.2-1.5-.6-1.9-.4-.3-.9-.5-1.6-.5s-1.1,0-1.6.3c-.5.2-1,.3-1.4.6l-.5-1.3c.5-.3,1-.5,1.7-.6.6-.2,1.3-.3,2-.3ZM305.8,343.3c-1.3,0-2.3.3-2.8.6-.5.4-.8.9-.8,1.6s.2,1,.5,1.3c.4.3.8.4,1.4.4.9,0,1.7-.2,2.3-.7.6-.5.9-1.3.9-2.3v-1h-1.6ZM304.7,333.2c.1.3.3.6.5,1,.2.4.5.7.7,1.1.3.3.5.6.7.9v.2h-1.2c-.3-.2-.7-.5-1-.9-.4-.4-.7-.8-1.1-1.1-.3-.4-.6-.7-.7-.9v-.2h2.1ZM106.8,369.6c1.3,0,2.3.3,2.9.9.6.6.9,1.5.9,2.7v7.3h-1.3l-.3-1.5h0c-.5.6-1,1-1.5,1.3-.5.3-1.2.4-2.1.4s-1.8-.3-2.4-.8c-.6-.5-1-1.3-1-2.4s.4-1.9,1.3-2.5c.8-.6,2.1-.9,3.9-1h1.8v-.7c0-.9-.2-1.5-.6-1.9-.4-.3-.9-.5-1.6-.5s-1.1,0-1.6.3c-.5.2-1,.3-1.4.6l-.5-1.3c.5-.3,1-.5,1.7-.6.6-.2,1.3-.3,2-.3ZM107.3,375.3c-1.3,0-2.3.3-2.8.6-.5.4-.8.9-.8,1.6s.2,1,.5,1.3c.4.3.8.4,1.4.4.9,0,1.7-.2,2.3-.7.6-.5.9-1.3.9-2.3v-1h-1.6ZM118.2,380.7c-.9,0-1.8-.2-2.5-.6-.7-.4-1.3-1-1.7-1.8-.4-.8-.6-1.9-.6-3.1s.2-2.4.7-3.2,1-1.4,1.8-1.8c.8-.4,1.6-.6,2.6-.6s1.1,0,1.6.2c.5.1.9.2,1.2.4l-.5,1.5c-.3-.1-.7-.2-1.1-.3-.4-.1-.8-.2-1.2-.2-2.1,0-3.2,1.4-3.2,4.1s.3,2.3.8,3c.5.7,1.3,1,2.3,1s1.1,0,1.5-.2c.5-.1.9-.3,1.2-.4v1.6c-.4.2-.8.3-1.2.4-.4.1-.9.2-1.6.2ZM127.8,380.7c-.9,0-1.8-.2-2.5-.6-.7-.4-1.3-1-1.7-1.8-.4-.8-.6-1.9-.6-3.1s.2-2.4.7-3.2c.4-.8,1-1.4,1.8-1.8.8-.4,1.6-.6,2.6-.6s1.1,0,1.6.2c.5.1.9.2,1.2.4l-.5,1.5c-.3-.1-.7-.2-1.1-.3-.4-.1-.8-.2-1.2-.2-2.1,0-3.2,1.4-3.2,4.1s.3,2.3.8,3c.5.7,1.3,1,2.3,1s1.1,0,1.5-.2c.5-.1.9-.3,1.2-.4v1.6c-.4.2-.8.3-1.2.4-.4.1-.9.2-1.6.2ZM142.4,375.1c0,1.8-.5,3.1-1.4,4.1-.9,1-2.1,1.5-3.6,1.5s-1.8-.2-2.5-.6c-.7-.4-1.3-1.1-1.7-1.9-.4-.8-.6-1.9-.6-3,0-1.8.4-3.1,1.3-4.1.9-1,2.1-1.4,3.6-1.4s1.8.2,2.6.7c.7.4,1.3,1.1,1.7,1.9.4.8.6,1.8.6,3ZM134.4,375.1c0,1.3.2,2.3.7,3,.5.7,1.3,1.1,2.4,1.1s1.9-.4,2.4-1.1c.5-.7.8-1.8.8-3s-.3-2.3-.8-3c-.5-.7-1.3-1.1-2.4-1.1s-1.9.4-2.4,1.1c-.5.7-.7,1.7-.7,3ZM157,369.6c1.2,0,2.1.3,2.7.9.6.6.9,1.6.9,3v7h-1.7v-6.9c0-1.7-.7-2.5-2.2-2.5s-1.8.3-2.2.9c-.4.6-.7,1.5-.7,2.6v5.9h-1.7v-6.9c0-1.7-.7-2.5-2.2-2.5s-1.8.3-2.2,1c-.4.7-.6,1.6-.6,2.9v5.6h-1.8v-10.7h1.4l.3,1.5h0c.3-.6.8-1,1.3-1.2.6-.3,1.2-.4,1.8-.4,1.7,0,2.8.6,3.3,1.8h.1c.4-.6.8-1.1,1.5-1.4.6-.3,1.3-.4,2-.4ZM169,369.6c1.3,0,2.4.5,3.2,1.4.8.9,1.2,2.3,1.2,4.2s-.4,3.2-1.2,4.2c-.8.9-1.9,1.4-3.2,1.4s-1.5-.2-2.1-.5c-.5-.3-1-.7-1.3-1.1h-.1c0,.2,0,.5,0,.9,0,.3,0,.6,0,.9v4.4h-1.8v-15.5h1.4l.2,1.5h0c.3-.5.7-.9,1.3-1.2s1.2-.5,2.1-.5ZM168.7,371.1c-1.1,0-1.9.3-2.3.9-.4.6-.7,1.5-.7,2.8v.3c0,1.3.2,2.3.6,3.1.4.7,1.2,1.1,2.4,1.1s1.2-.2,1.6-.5c.4-.4.7-.8.9-1.5.2-.6.3-1.3.3-2.1,0-1.2-.2-2.2-.7-2.9-.5-.7-1.2-1.1-2.2-1.1ZM180.3,369.6c1.3,0,2.3.3,2.9.9.6.6.9,1.5.9,2.7v7.3h-1.3l-.3-1.5h0c-.5.6-1,1-1.5,1.3-.5.3-1.2.4-2.1.4s-1.8-.3-2.4-.8c-.6-.5-1-1.3-1-2.4s.4-1.9,1.3-2.5c.8-.6,2.1-.9,3.9-1h1.8v-.7c0-.9-.2-1.5-.6-1.9-.4-.3-.9-.5-1.6-.5s-1.1,0-1.6.3c-.5.2-1,.3-1.4.6l-.5-1.3c.5-.3,1-.5,1.7-.6.6-.2,1.3-.3,2-.3ZM180.8,375.3c-1.3,0-2.3.3-2.8.6-.5.4-.8.9-.8,1.6s.2,1,.5,1.3c.4.3.8.4,1.4.4.9,0,1.7-.2,2.3-.7.6-.5.9-1.3.9-2.3v-1h-1.6ZM191.2,369.6c.7,0,1.3.1,1.9.4.6.3,1.1.7,1.5,1.2h0l.2-1.4h1.4v10.9c0,1.5-.4,2.7-1.2,3.5-.8.8-2,1.2-3.6,1.2s-2.9-.2-3.9-.7v-1.6c1.1.6,2.4.8,4,.8s1.6-.3,2.2-.8c.5-.5.8-1.3.8-2.2v-.4c0-.2,0-.4,0-.7,0-.3,0-.5,0-.6h0c-.7,1.1-1.8,1.6-3.3,1.6s-2.5-.5-3.3-1.5c-.8-1-1.2-2.3-1.2-4.1s.4-3.1,1.2-4.1c.8-1,1.9-1.5,3.2-1.5ZM191.5,371.1c-.9,0-1.6.4-2.1,1.1-.5.7-.7,1.7-.7,3s.2,2.3.7,3c.5.7,1.2,1,2.1,1s1.9-.3,2.4-.9c.5-.6.7-1.5.7-2.8v-.4c0-1.5-.3-2.5-.8-3.1-.5-.6-1.3-1-2.4-1ZM204.9,369.6c1.3,0,2.2.3,2.9.9.7.6,1,1.6,1,3v7h-1.7v-6.9c0-1.7-.8-2.6-2.4-2.6s-2,.3-2.5,1c-.5.7-.7,1.6-.7,2.9v5.6h-1.8v-10.7h1.4l.3,1.5h.1c.3-.6.8-1,1.4-1.2.6-.3,1.3-.4,1.9-.4ZM216.3,369.6c.9,0,1.7.2,2.4.6.7.4,1.2,1,1.5,1.7.4.7.5,1.6.5,2.5v1.1h-7.3c0,1.2.3,2.1.9,2.8.6.6,1.4.9,2.5.9s1.3,0,1.8-.2c.5-.1,1.1-.3,1.6-.6v1.5c-.5.2-1.1.4-1.6.5-.5.1-1.2.2-1.9.2s-1.9-.2-2.7-.6c-.8-.4-1.4-1-1.8-1.8-.4-.8-.6-1.8-.6-3s.2-2.2.6-3c.4-.8,1-1.5,1.7-1.9.7-.5,1.6-.7,2.5-.7ZM216.2,371c-.8,0-1.5.3-2,.8-.5.5-.8,1.3-.9,2.2h5.5c0-.9-.2-1.6-.6-2.2-.4-.6-1.1-.9-2-.9ZM228.4,369.6c.2,0,.4,0,.6,0,.2,0,.4,0,.6,0l-.2,1.6c-.2,0-.4,0-.6-.1-.2,0-.4,0-.6,0-.5,0-1.1.2-1.5.5-.5.3-.9.7-1.2,1.3-.3.5-.4,1.2-.4,1.9v5.7h-1.8v-10.7h1.4l.2,2h0c.3-.6.8-1.1,1.3-1.5s1.2-.6,1.9-.6ZM238.6,380.5h-1.8v-15.2h1.8v15.2ZM246.2,369.6c.9,0,1.7.2,2.4.6.7.4,1.2,1,1.5,1.7.4.7.5,1.6.5,2.5v1.1h-7.3c0,1.2.3,2.1.9,2.8.6.6,1.4.9,2.5.9s1.3,0,1.8-.2c.5-.1,1.1-.3,1.6-.6v1.5c-.5.2-1.1.4-1.6.5-.5.1-1.2.2-1.9.2s-1.9-.2-2.7-.6c-.8-.4-1.4-1-1.8-1.8-.4-.8-.6-1.8-.6-3s.2-2.2.6-3c.4-.8,1-1.5,1.7-1.9.7-.5,1.6-.7,2.5-.7ZM246.1,371c-.8,0-1.5.3-2,.8-.5.5-.8,1.3-.9,2.2h5.5c0-.9-.2-1.6-.6-2.2-.4-.6-1.1-.9-2-.9ZM262.1,379.3c.3,0,.5,0,.8,0,.3,0,.5-.1.7-.2v1.3c-.2,0-.5.2-.8.2-.3,0-.7.1-1,.1-.6,0-1.1,0-1.6-.3-.5-.2-.8-.5-1.1-1-.3-.5-.4-1.2-.4-2v-6.2h-1.5v-.8l1.5-.7.7-2.3h1v2.5h3.1v1.4h-3.1v6.2c0,.7.2,1.1.5,1.5.3.3.7.5,1.2.5ZM266.6,365.8c.3,0,.5,0,.7.3.2.2.3.5.3.8s-.1.7-.3.8c-.2.2-.4.3-.7.3s-.5,0-.7-.3c-.2-.2-.3-.5-.3-.8s.1-.7.3-.8c.2-.2.4-.3.7-.3ZM267.5,369.8v10.7h-1.8v-10.7h1.8ZM274.5,379.3c.3,0,.5,0,.8,0,.3,0,.5-.1.7-.2v1.3c-.2,0-.5.2-.8.2-.3,0-.7.1-1,.1-.6,0-1.1,0-1.6-.3-.5-.2-.8-.5-1.1-1-.3-.5-.4-1.2-.4-2v-6.2h-1.5v-.8l1.5-.7.7-2.3h1v2.5h3.1v1.4h-3.1v6.2c0,.7.2,1.1.5,1.5.3.3.7.5,1.2.5ZM283.1,369.6c.2,0,.4,0,.6,0,.2,0,.4,0,.6,0l-.2,1.6c-.2,0-.4,0-.6-.1-.2,0-.4,0-.6,0-.5,0-1.1.2-1.5.5-.5.3-.9.7-1.2,1.3-.3.5-.4,1.2-.4,1.9v5.7h-1.8v-10.7h1.4l.2,2h0c.3-.6.8-1.1,1.3-1.5.5-.4,1.2-.6,1.9-.6ZM290.1,369.6c.9,0,1.7.2,2.4.6.7.4,1.2,1,1.5,1.7.4.7.5,1.6.5,2.5v1.1h-7.3c0,1.2.3,2.1.9,2.8.6.6,1.4.9,2.5.9s1.3,0,1.8-.2c.5-.1,1.1-.3,1.6-.6v1.5c-.5.2-1.1.4-1.6.5-.5.1-1.2.2-1.9.2s-1.9-.2-2.7-.6c-.8-.4-1.4-1-1.8-1.8-.4-.8-.6-1.8-.6-3s.2-2.2.6-3c.4-.8,1-1.5,1.7-1.9.7-.5,1.6-.7,2.5-.7ZM290.1,371c-.8,0-1.5.3-2,.8-.5.5-.8,1.3-.9,2.2h5.5c0-.9-.2-1.6-.6-2.2-.4-.6-1.1-.9-2-.9ZM297,379.4c0-.5.1-.8.4-1,.2-.2.5-.3.9-.3s.6.1.9.3c.3.2.4.5.4,1s-.1.8-.4,1c-.2.2-.5.3-.9.3s-.6-.1-.9-.3c-.2-.2-.4-.6-.4-1Z"/>
        <rect class="st2" x="77" y="46.5" width="105" height="28"/>
        <path class="st15" d="M122,67.5h-3.5l-5.6-9.7h0c0,.6,0,1.2,0,1.8,0,.6,0,1.2,0,1.8v6h-2.4v-12.9h3.4l5.6,9.6h0c0-.6,0-1.2,0-1.8,0-.6,0-1.2,0-1.8v-6.1h2.4v12.9ZM129.1,57.5c1.4,0,2.4.4,3.2,1.2.8.8,1.2,1.9,1.2,3.3v1.3h-6.3c0,.8.2,1.3.7,1.8.4.4,1,.6,1.8.6s1.2,0,1.7-.2c.5-.1,1.1-.3,1.6-.6v2.1c-.5.2-1,.4-1.5.5-.5.1-1.2.2-1.9.2s-1.9-.2-2.6-.5c-.8-.4-1.4-.9-1.8-1.7-.4-.7-.6-1.7-.6-2.8s.2-2.1.6-2.9c.4-.8.9-1.3,1.6-1.7.7-.4,1.5-.6,2.4-.6ZM129.1,59.4c-.5,0-.9.2-1.3.5-.3.3-.5.9-.6,1.6h3.8c0-.6-.2-1.1-.5-1.5-.3-.4-.8-.6-1.4-.6ZM142.7,64.1c0-.2-.1-.5-.2-.9,0-.4-.2-.8-.3-1.3-.1-.5-.2-.9-.3-1.3,0-.4-.2-.7-.2-.9h0c0,.2-.1.5-.2.9,0,.4-.2.8-.3,1.3-.1.5-.2.9-.3,1.3,0,.4-.2.7-.2.9l-.8,3.4h-2.9l-2.8-9.8h2.7l1.1,4.4c0,.3.2.7.2,1.1,0,.4.1.8.2,1.2,0,.4.1.7.1.9h0c0-.2,0-.4,0-.7,0-.3,0-.6.1-.9,0-.3.1-.6.1-.8,0-.3,0-.4.1-.5l1.2-4.7h3l1.2,4.7c0,.2.1.4.2.8,0,.4.1.8.2,1.1,0,.4,0,.7,0,.9h0c0-.2,0-.5.1-.9,0-.4.1-.8.2-1.2,0-.4.2-.8.3-1.1l1.2-4.4h2.6l-2.8,9.8h-2.9l-.8-3.4Z"/>
      </g>
    </g>
  </g>
  <g class="st9">
    <g>
      <rect class="st16" y="344" width="72" height="1"/>
      <g class="st7">
        <g>
          <path class="st16" d="M12,332h0c6.6,0,12,5.4,12,12h0c0,6.6-5.4,12-12,12h0c-6.6,0-12-5.4-12-12h0c0-6.6,5.4-12,12-12Z"/>
          <path class="st15" d="M12,349.1c-.7,0-1.3-.1-1.9-.4-.5-.3-1-.6-1.3-1.1-.3-.5-.5-1-.5-1.6h2.1c0,.4.2.7.5,1,.3.2.7.4,1.1.4s.6,0,.9-.2c.3-.2.5-.4.6-.6.1-.3.2-.6.2-.9s0-.7-.2-.9c-.1-.3-.4-.5-.6-.6-.3-.2-.6-.2-.9-.2-.3,0-.6,0-.9.2-.3.1-.5.3-.7.5l-1.9-.3.5-5.4h6.2v1.8h-4.4l-.3,2.6h0c.2-.3.4-.5.8-.6.4-.2.8-.2,1.2-.2s1.2.1,1.6.4c.5.3.9.7,1.1,1.2.3.5.4,1.1.4,1.7,0,.7-.2,1.3-.5,1.8-.3.5-.8.9-1.3,1.3-.6.3-1.2.5-2,.5Z"/>
        </g>
      </g>
    </g>
  </g>
  <g class="st8">
    <g>
      <rect class="st16" y="297" width="72" height="1"/>
      <g class="st14">
        <g>
          <path class="st16" d="M12,285h0c6.6,0,12,5.4,12,12h0c0,6.6-5.4,12-12,12h0c-6.6,0-12-5.4-12-12h0c0-6.6,5.4-12,12-12Z"/>
          <path class="st15" d="M7.9,300.2v-1.7l4.3-6.7h1.5v2.3h-.9l-2.7,4.2h0c0,0,6,0,6,0v1.7H7.9ZM12.8,302v-3.1s0-7.1,0-7.1h2v10.2h-2.1Z"/>
        </g>
      </g>
    </g>
  </g>
  <g class="st11">
    <g>
      <rect class="st16" y="169" width="98" height="1"/>
      <g class="st10">
        <g>
          <path class="st16" d="M12,157h0c6.6,0,12,5.4,12,12h0c0,6.6-5.4,12-12,12h0c-6.6,0-12-5.4-12-12h0c0-6.6,5.4-12,12-12Z"/>
          <path class="st15" d="M12,174.1c-.7,0-1.4-.1-2-.4-.6-.3-1-.6-1.4-1.1-.3-.5-.5-1-.5-1.6h2.2c0,.2,0,.5.2.7.2.2.4.3.6.4.3.1.5.2.9.2s.6,0,.9-.2c.3-.1.4-.3.6-.5.1-.2.2-.4.2-.7s0-.5-.2-.7c-.1-.2-.4-.4-.6-.5-.3-.1-.6-.2-1-.2h-.9v-1.6h.9c.3,0,.6,0,.9-.2.3-.1.4-.3.6-.5.1-.2.2-.4.2-.7s0-.5-.2-.7c-.1-.2-.3-.3-.5-.5-.2-.1-.5-.2-.8-.2s-.6,0-.8.2c-.2.1-.4.3-.6.4-.1.2-.2.4-.2.7h-2.1c0-.6.2-1.1.5-1.6.3-.4.8-.8,1.3-1,.6-.3,1.2-.4,1.9-.4s1.3.1,1.8.4c.5.3.9.6,1.2,1,.3.4.4.9.4,1.5,0,.6-.2,1-.5,1.4-.4.4-.8.6-1.4.7h0c.7.2,1.3.4,1.7.9.4.4.6.9.6,1.6,0,.6-.2,1.1-.5,1.5-.3.4-.8.8-1.4,1.1-.6.3-1.3.4-2,.4Z"/>
        </g>
      </g>
    </g>
  </g>
  <g class="st13">
    <g>
      <rect class="st16" y="64" width="72" height="1"/>
      <g class="st12">
        <g>
          <path class="st16" d="M12,52h0c6.6,0,12,5.4,12,12h0c0,6.6-5.4,12-12,12h0c-6.6,0-12-5.4-12-12h0c0-6.6,5.4-12,12-12Z"/>
          <path class="st15" d="M8.4,69v-1.6l3.6-3.4c.3-.3.6-.6.8-.8.2-.2.4-.5.5-.7.1-.2.2-.5.2-.8s0-.6-.2-.8c-.1-.2-.3-.4-.6-.5-.2-.1-.5-.2-.8-.2s-.6,0-.8.2c-.2.1-.4.3-.5.5-.1.2-.2.5-.2.8h-2c0-.7.2-1.2.5-1.7.3-.5.7-.9,1.3-1.1.5-.3,1.2-.4,1.9-.4s1.4.1,1.9.4c.5.3,1,.6,1.3,1.1.3.5.5,1,.5,1.6s0,.8-.2,1.1c-.1.4-.4.8-.8,1.2-.4.5-.9,1-1.6,1.6l-1.5,1.5h0c0,0,4.3,0,4.3,0v1.8h-7.3Z"/>
        </g>
      </g>
    </g>
  </g>
  <g class="st5">
    <g>
      <rect class="st16" x="216" width="1" height="47"/>
      <g class="st4">
        <g>
          <path class="st16" d="M216,0h0c6.6,0,12,5.4,12,12h0c0,6.6-5.4,12-12,12h0c-6.6,0-12-5.4-12-12h0c0-6.6,5.4-12,12-12Z"/>
          <path class="st15" d="M217.8,6.8v10.2h-2.2v-8.1h0l-2.3,1.5v-1.9l2.5-1.6h2Z"/>
        </g>
      </g>
    </g>
  </g>
</svg>