<svg width="249" height="96" viewBox="0 0 249 96" fill="none" xmlns="http://www.w3.org/2000/svg">
<rect x="47.5" y="48" width="201" height="48" rx="6" fill="#26374A"/>
<path d="M61.4 80V65.72H63.56V78.14H69.66V80H61.4ZM74.0027 69.22V80H71.8827V69.22H74.0027ZM72.9627 65.12C73.2827 65.12 73.5627 65.2133 73.8027 65.4C74.0427 65.5867 74.1627 65.9 74.1627 66.34C74.1627 66.7667 74.0427 67.08 73.8027 67.28C73.5627 67.4667 73.2827 67.56 72.9627 67.56C72.616 67.56 72.3227 67.4667 72.0827 67.28C71.856 67.08 71.7427 66.7667 71.7427 66.34C71.7427 65.9 71.856 65.5867 72.0827 65.4C72.3227 65.2133 72.616 65.12 72.9627 65.12ZM79.4519 68.46C79.4519 68.9 79.4385 69.32 79.4119 69.72C79.3985 70.1067 79.3785 70.4133 79.3519 70.64H79.4519C79.7585 70.1867 80.1719 69.8067 80.6919 69.5C81.2119 69.1933 81.8852 69.04 82.7119 69.04C84.0052 69.04 85.0452 69.5067 85.8319 70.44C86.6319 71.3733 87.0319 72.76 87.0319 74.6C87.0319 75.84 86.8519 76.8733 86.4919 77.7C86.1319 78.5267 85.6252 79.1533 84.9719 79.58C84.3185 79.9933 83.5585 80.2 82.6919 80.2C81.8519 80.2 81.1785 80.0533 80.6719 79.76C80.1652 79.4533 79.7585 79.0933 79.4519 78.68H79.2919L78.8919 80H77.3319V64.8H79.4519V68.46ZM82.2119 70.76C81.5185 70.76 80.9719 70.8933 80.5719 71.16C80.1719 71.4267 79.8852 71.8333 79.7119 72.38C79.5385 72.9267 79.4519 73.62 79.4519 74.46V74.62C79.4519 75.86 79.6519 76.8133 80.0519 77.48C80.4519 78.1333 81.1852 78.46 82.2519 78.46C83.1052 78.46 83.7519 78.1267 84.1919 77.46C84.6319 76.7933 84.8519 75.8333 84.8519 74.58C84.8519 73.3133 84.6319 72.36 84.1919 71.72C83.7519 71.08 83.0919 70.76 82.2119 70.76ZM93.9742 69.02C94.9209 69.02 95.7342 69.22 96.4142 69.62C97.0942 70.0067 97.6142 70.5667 97.9742 71.3C98.3476 72.0333 98.5342 72.9 98.5342 73.9V75.06H91.2942C91.3209 76.1667 91.6076 77.0133 92.1542 77.6C92.7142 78.1867 93.4942 78.48 94.4942 78.48C95.1876 78.48 95.8009 78.42 96.3342 78.3C96.8809 78.1667 97.4409 77.9733 98.0142 77.72V79.48C97.4809 79.72 96.9342 79.9 96.3742 80.02C95.8276 80.14 95.1742 80.2 94.4142 80.2C93.3742 80.2 92.4542 79.9933 91.6542 79.58C90.8542 79.1667 90.2276 78.5533 89.7742 77.74C89.3342 76.9133 89.1142 75.9 89.1142 74.7C89.1142 73.4867 89.3142 72.46 89.7142 71.62C90.1276 70.78 90.6942 70.14 91.4142 69.7C92.1476 69.2467 93.0009 69.02 93.9742 69.02ZM93.9742 70.66C93.2142 70.66 92.6009 70.9067 92.1342 71.4C91.6809 71.8933 91.4142 72.5933 91.3342 73.5H96.4142C96.4142 72.94 96.3276 72.4467 96.1542 72.02C95.9809 71.5933 95.7142 71.26 95.3542 71.02C94.9942 70.78 94.5342 70.66 93.9742 70.66ZM103.3 80H101.18V64.8H103.3V80ZM108.749 80H106.629V64.8H108.749V80ZM116.318 69.02C117.265 69.02 118.078 69.22 118.758 69.62C119.438 70.0067 119.958 70.5667 120.318 71.3C120.691 72.0333 120.878 72.9 120.878 73.9V75.06H113.638C113.665 76.1667 113.951 77.0133 114.498 77.6C115.058 78.1867 115.838 78.48 116.838 78.48C117.531 78.48 118.145 78.42 118.678 78.3C119.225 78.1667 119.785 77.9733 120.358 77.72V79.48C119.825 79.72 119.278 79.9 118.718 80.02C118.171 80.14 117.518 80.2 116.758 80.2C115.718 80.2 114.798 79.9933 113.998 79.58C113.198 79.1667 112.571 78.5533 112.118 77.74C111.678 76.9133 111.458 75.9 111.458 74.7C111.458 73.4867 111.658 72.46 112.058 71.62C112.471 70.78 113.038 70.14 113.758 69.7C114.491 69.2467 115.345 69.02 116.318 69.02ZM116.318 70.66C115.558 70.66 114.945 70.9067 114.478 71.4C114.025 71.8933 113.758 72.5933 113.678 73.5H118.758C118.758 72.94 118.671 72.4467 118.498 72.02C118.325 71.5933 118.058 71.26 117.698 71.02C117.338 70.78 116.878 70.66 116.318 70.66ZM119.518 64.88C119.371 65.0667 119.171 65.2933 118.918 65.56C118.678 65.8267 118.405 66.1067 118.098 66.4C117.805 66.68 117.511 66.9533 117.218 67.22C116.925 67.4733 116.658 67.6933 116.418 67.88H115.018V67.64C115.218 67.3867 115.445 67.0867 115.698 66.74C115.951 66.3933 116.198 66.04 116.438 65.68C116.678 65.3067 116.878 64.9733 117.038 64.68H119.518V64.88ZM134.099 69.02C135.392 69.02 136.432 69.4867 137.219 70.42C138.019 71.3533 138.419 72.7467 138.419 74.6C138.419 75.8133 138.239 76.84 137.879 77.68C137.519 78.52 137.012 79.1533 136.359 79.58C135.705 79.9933 134.945 80.2 134.079 80.2C133.532 80.2 133.052 80.1333 132.639 80C132.225 79.8533 131.872 79.6667 131.579 79.44C131.299 79.2 131.052 78.9467 130.839 78.68H130.699C130.739 78.92 130.772 79.2067 130.799 79.54C130.825 79.86 130.839 80.1467 130.839 80.4V84.8H128.719V69.22H130.439L130.739 70.66H130.839C131.052 70.3667 131.305 70.0933 131.599 69.84C131.892 69.5867 132.245 69.3867 132.659 69.24C133.072 69.0933 133.552 69.02 134.099 69.02ZM133.599 70.76C132.932 70.76 132.399 70.8933 131.999 71.16C131.599 71.4133 131.305 71.8 131.119 72.32C130.945 72.8267 130.852 73.4733 130.839 74.26V74.58C130.839 75.4067 130.925 76.1133 131.099 76.7C131.272 77.2733 131.559 77.7133 131.959 78.02C132.372 78.3133 132.932 78.46 133.639 78.46C134.239 78.46 134.725 78.3 135.099 77.98C135.485 77.6467 135.772 77.1867 135.959 76.6C136.145 76.0133 136.239 75.3333 136.239 74.56C136.239 73.3867 136.025 72.46 135.599 71.78C135.172 71.1 134.505 70.76 133.599 70.76ZM146.441 69.02C146.628 69.02 146.834 69.0333 147.061 69.06C147.288 69.0733 147.474 69.0933 147.621 69.12L147.401 71.1C147.254 71.06 147.081 71.0267 146.881 71C146.681 70.9733 146.494 70.96 146.321 70.96C145.921 70.96 145.534 71.04 145.161 71.2C144.801 71.3467 144.474 71.5667 144.181 71.86C143.888 72.14 143.654 72.4867 143.481 72.9C143.321 73.3133 143.241 73.7867 143.241 74.32V80H141.121V69.22H142.801L143.081 71.14H143.161C143.388 70.7533 143.661 70.4 143.981 70.08C144.301 69.76 144.668 69.5067 145.081 69.32C145.494 69.12 145.948 69.02 146.441 69.02ZM151.737 69.22V80H149.617V69.22H151.737ZM150.697 65.12C151.017 65.12 151.297 65.2133 151.537 65.4C151.777 65.5867 151.897 65.9 151.897 66.34C151.897 66.7667 151.777 67.08 151.537 67.28C151.297 67.4667 151.017 67.56 150.697 67.56C150.35 67.56 150.057 67.4667 149.817 67.28C149.59 67.08 149.477 66.7667 149.477 66.34C149.477 65.9 149.59 65.5867 149.817 65.4C150.057 65.2133 150.35 65.12 150.697 65.12ZM160.526 69.02C161.78 69.02 162.74 69.3333 163.406 69.96C164.073 70.5867 164.406 71.5933 164.406 72.98V80H162.306V73.28C162.306 72.44 162.126 71.8133 161.766 71.4C161.42 70.9733 160.86 70.76 160.086 70.76C158.993 70.76 158.233 71.0867 157.806 71.74C157.393 72.3933 157.186 73.3333 157.186 74.56V80H155.066V69.22H156.746L157.046 70.66H157.166C157.406 70.2867 157.7 69.98 158.046 69.74C158.393 69.5 158.78 69.32 159.206 69.2C159.633 69.08 160.073 69.02 160.526 69.02ZM172.004 80.2C171.017 80.2 170.151 80.0067 169.404 79.62C168.657 79.2333 168.077 78.6333 167.664 77.82C167.251 76.9933 167.044 75.9467 167.044 74.68C167.044 73.3467 167.264 72.2667 167.704 71.44C168.157 70.6133 168.764 70.0067 169.524 69.62C170.297 69.22 171.177 69.02 172.164 69.02C172.764 69.02 173.324 69.0867 173.844 69.22C174.377 69.34 174.817 69.48 175.164 69.64L174.524 71.36C174.151 71.2133 173.751 71.0867 173.324 70.98C172.911 70.8733 172.517 70.82 172.144 70.82C171.477 70.82 170.924 70.9667 170.484 71.26C170.057 71.54 169.737 71.9667 169.524 72.54C169.324 73.1 169.224 73.8067 169.224 74.66C169.224 75.4733 169.331 76.16 169.544 76.72C169.757 77.28 170.071 77.7067 170.484 78C170.911 78.28 171.437 78.42 172.064 78.42C172.664 78.42 173.191 78.3533 173.644 78.22C174.097 78.0867 174.524 77.9133 174.924 77.7V79.54C174.537 79.7667 174.117 79.9333 173.664 80.04C173.211 80.1467 172.657 80.2 172.004 80.2ZM179.589 69.22V80H177.469V69.22H179.589ZM178.549 65.12C178.869 65.12 179.149 65.2133 179.389 65.4C179.629 65.5867 179.749 65.9 179.749 66.34C179.749 66.7667 179.629 67.08 179.389 67.28C179.149 67.4667 178.869 67.56 178.549 67.56C178.202 67.56 177.909 67.4667 177.669 67.28C177.442 67.08 177.329 66.7667 177.329 66.34C177.329 65.9 177.442 65.5867 177.669 65.4C177.909 65.2133 178.202 65.12 178.549 65.12ZM188.298 69.02C189.591 69.02 190.631 69.4867 191.418 70.42C192.218 71.3533 192.618 72.7467 192.618 74.6C192.618 75.8133 192.438 76.84 192.078 77.68C191.718 78.52 191.211 79.1533 190.558 79.58C189.904 79.9933 189.144 80.2 188.278 80.2C187.731 80.2 187.251 80.1333 186.838 80C186.424 79.8533 186.071 79.6667 185.778 79.44C185.498 79.2 185.251 78.9467 185.038 78.68H184.898C184.938 78.92 184.971 79.2067 184.998 79.54C185.024 79.86 185.038 80.1467 185.038 80.4V84.8H182.918V69.22H184.638L184.938 70.66H185.038C185.251 70.3667 185.504 70.0933 185.798 69.84C186.091 69.5867 186.444 69.3867 186.858 69.24C187.271 69.0933 187.751 69.02 188.298 69.02ZM187.798 70.76C187.131 70.76 186.598 70.8933 186.198 71.16C185.798 71.4133 185.504 71.8 185.318 72.32C185.144 72.8267 185.051 73.4733 185.038 74.26V74.58C185.038 75.4067 185.124 76.1133 185.298 76.7C185.471 77.2733 185.758 77.7133 186.158 78.02C186.571 78.3133 187.131 78.46 187.838 78.46C188.438 78.46 188.924 78.3 189.298 77.98C189.684 77.6467 189.971 77.1867 190.158 76.6C190.344 76.0133 190.438 75.3333 190.438 74.56C190.438 73.3867 190.224 72.46 189.798 71.78C189.371 71.1 188.704 70.76 187.798 70.76ZM199.5 69.02C200.86 69.02 201.873 69.32 202.54 69.92C203.207 70.5067 203.54 71.4333 203.54 72.7V80H202.04L201.62 78.5H201.54C201.233 78.8867 200.913 79.2067 200.58 79.46C200.26 79.7133 199.887 79.9 199.46 80.02C199.047 80.14 198.54 80.2 197.94 80.2C197.3 80.2 196.72 80.0867 196.2 79.86C195.693 79.62 195.293 79.26 195 78.78C194.707 78.2867 194.56 77.6733 194.56 76.94C194.56 75.8467 194.973 75.0133 195.8 74.44C196.64 73.8667 197.913 73.5533 199.62 73.5L201.46 73.44V72.84C201.46 72.04 201.28 71.48 200.92 71.16C200.56 70.84 200.053 70.68 199.4 70.68C198.84 70.68 198.307 70.76 197.8 70.92C197.293 71.08 196.813 71.2733 196.36 71.5L195.68 69.96C196.187 69.6933 196.767 69.4733 197.42 69.3C198.087 69.1133 198.78 69.02 199.5 69.02ZM200 74.86C198.773 74.9133 197.92 75.12 197.44 75.48C196.973 75.8267 196.74 76.32 196.74 76.96C196.74 77.52 196.907 77.9267 197.24 78.18C197.587 78.4333 198.02 78.56 198.54 78.56C199.38 78.56 200.073 78.3267 200.62 77.86C201.167 77.3933 201.44 76.6933 201.44 75.76V74.82L200 74.86ZM208.925 80H206.805V64.8H208.925V80Z" fill="white"/>
<path d="M227.5 81.25C227.148 81.25 226.836 81.1328 226.602 80.8984C226.094 80.4297 226.094 79.6094 226.602 79.1406L233.203 72.5L226.602 65.8984C226.094 65.4297 226.094 64.6094 226.602 64.1406C227.07 63.6328 227.891 63.6328 228.359 64.1406L235.859 71.6406C236.367 72.1094 236.367 72.9297 235.859 73.3984L228.359 80.8984C228.125 81.1328 227.812 81.25 227.5 81.25Z" fill="white"/>
<g clip-path="url(#clip0_6925_18268)">
<rect y="72" width="48" height="1" fill="#C54600"/>
<g clip-path="url(#clip1_6925_18268)">
<rect y="60" width="24" height="24" rx="12" fill="#C54600"/>
<path d="M13.8302 66.8182V77H11.6775V68.8615H11.6178L9.28613 70.3232V68.4141L11.8067 66.8182H13.8302Z" fill="white"/>
</g>
</g>
<g clip-path="url(#clip2_6925_18268)">
<rect x="135.5" width="1" height="60" fill="#C54600"/>
<g clip-path="url(#clip3_6925_18268)">
<rect x="123.5" width="24" height="24" rx="12" fill="#C54600"/>
<path d="M131.916 17V15.4489L135.54 12.093C135.849 11.7947 136.107 11.5263 136.316 11.2876C136.528 11.049 136.689 10.8153 136.798 10.5866C136.908 10.3546 136.962 10.1044 136.962 9.83594C136.962 9.53764 136.894 9.28078 136.758 9.06534C136.623 8.84659 136.437 8.67921 136.202 8.56321C135.966 8.44389 135.699 8.38423 135.401 8.38423C135.09 8.38423 134.818 8.44721 134.586 8.57315C134.354 8.6991 134.175 8.87973 134.049 9.11506C133.923 9.35038 133.86 9.63044 133.86 9.95526H131.817C131.817 9.28906 131.967 8.7107 132.269 8.22017C132.571 7.72964 132.993 7.35014 133.537 7.08168C134.08 6.81321 134.707 6.67898 135.416 6.67898C136.145 6.67898 136.78 6.80824 137.32 7.06676C137.864 7.32197 138.286 7.67661 138.588 8.13068C138.89 8.58475 139.04 9.10511 139.04 9.69176C139.04 10.0762 138.964 10.4557 138.812 10.8303C138.663 11.2048 138.396 11.6207 138.011 12.0781C137.627 12.5322 137.085 13.0774 136.386 13.7138L134.899 15.1705V15.2401H139.175V17H131.916Z" fill="white"/>
</g>
</g>
<g clip-path="url(#clip4_6925_18268)">
<rect x="230.5" width="1" height="60" fill="#C54600"/>
<g clip-path="url(#clip5_6925_18268)">
<rect x="218.5" width="24" height="24" rx="12" fill="#C54600"/>
<path d="M230.475 17.1392C229.732 17.1392 229.071 17.0116 228.491 16.7564C227.914 16.4979 227.458 16.1432 227.124 15.6925C226.792 15.2384 226.622 14.7147 226.612 14.1214H228.779C228.792 14.37 228.874 14.5888 229.023 14.7777C229.175 14.9633 229.377 15.1075 229.629 15.2102C229.881 15.313 230.165 15.3643 230.479 15.3643C230.808 15.3643 231.098 15.3063 231.35 15.1903C231.601 15.0743 231.799 14.9136 231.941 14.7081C232.084 14.5026 232.155 14.2656 232.155 13.9972C232.155 13.7254 232.079 13.4851 231.926 13.2763C231.777 13.0642 231.562 12.8984 231.28 12.7791C231.002 12.6598 230.67 12.6001 230.286 12.6001H229.336V11.0192H230.286C230.61 11.0192 230.897 10.9628 231.146 10.8501C231.398 10.7375 231.593 10.5817 231.732 10.3828C231.872 10.1806 231.941 9.94531 231.941 9.67685C231.941 9.42164 231.88 9.19792 231.757 9.00568C231.638 8.81013 231.469 8.65767 231.25 8.5483C231.035 8.43892 230.783 8.38423 230.494 8.38423C230.203 8.38423 229.936 8.43726 229.694 8.54332C229.452 8.64607 229.258 8.79356 229.112 8.9858C228.966 9.17803 228.889 9.40341 228.879 9.66193H226.815C226.825 9.07528 226.993 8.55824 227.318 8.1108C227.642 7.66335 228.08 7.31368 228.63 7.06179C229.184 6.80658 229.808 6.67898 230.504 6.67898C231.207 6.67898 231.822 6.80658 232.349 7.06179C232.876 7.317 233.285 7.66169 233.577 8.09588C233.872 8.52675 234.018 9.01065 234.014 9.54758C234.018 10.1177 233.84 10.5933 233.482 10.9744C233.128 11.3556 232.665 11.5975 232.095 11.7003V11.7798C232.844 11.8759 233.414 12.1361 233.805 12.5604C234.2 12.9813 234.395 13.5083 234.392 14.1413C234.395 14.7214 234.228 15.2367 233.89 15.6875C233.555 16.1383 233.093 16.4929 232.503 16.7514C231.913 17.0099 231.237 17.1392 230.475 17.1392Z" fill="white"/>
</g>
</g>
<defs>
<clipPath id="clip0_6925_18268">
<rect width="48" height="24" fill="white" transform="translate(0 60)"/>
</clipPath>
<clipPath id="clip1_6925_18268">
<rect y="60" width="24" height="24" rx="12" fill="white"/>
</clipPath>
<clipPath id="clip2_6925_18268">
<rect width="24" height="60" fill="white" transform="translate(123.5)"/>
</clipPath>
<clipPath id="clip3_6925_18268">
<rect x="123.5" width="24" height="24" rx="12" fill="white"/>
</clipPath>
<clipPath id="clip4_6925_18268">
<rect width="24" height="60" fill="white" transform="translate(218.5)"/>
</clipPath>
<clipPath id="clip5_6925_18268">
<rect x="218.5" width="24" height="24" rx="12" fill="white"/>
</clipPath>
</defs>
</svg>
