<svg width="455" height="91" viewBox="0 0 455 91" fill="none" xmlns="http://www.w3.org/2000/svg">
<g clip-path="url(#clip0_6108_67118)">
<path d="M85 68.5L69 77.5L69 59.5L85 68.5Z" fill="#2B4380"/>
</g>
<path d="M112.9 76.5L111.18 72.08H105.52L103.82 76.5H102L107.58 62.16H109.2L114.76 76.5H112.9ZM109.04 66.16C109 66.0533 108.933 65.86 108.84 65.58C108.747 65.3 108.653 65.0133 108.56 64.72C108.48 64.4133 108.413 64.18 108.36 64.02C108.267 64.4333 108.16 64.84 108.04 65.24C107.92 65.6267 107.82 65.9333 107.74 66.16L106.12 70.48H110.64L109.04 66.16ZM121.573 65.58C122.893 65.58 123.953 66.04 124.753 66.96C125.567 67.88 125.973 69.2667 125.973 71.12C125.973 72.9467 125.567 74.3333 124.753 75.28C123.953 76.2267 122.887 76.7 121.553 76.7C120.727 76.7 120.04 76.5467 119.493 76.24C118.96 75.92 118.54 75.5533 118.233 75.14H118.113C118.14 75.3667 118.167 75.6533 118.193 76C118.22 76.3467 118.233 76.6467 118.233 76.9V81.3H116.473V65.78H117.913L118.153 67.24H118.233C118.553 66.7733 118.973 66.38 119.493 66.06C120.013 65.74 120.707 65.58 121.573 65.58ZM121.253 67.06C120.16 67.06 119.387 67.3667 118.933 67.98C118.493 68.5933 118.26 69.5267 118.233 70.78V71.12C118.233 72.44 118.447 73.46 118.873 74.18C119.313 74.8867 120.12 75.24 121.293 75.24C121.947 75.24 122.48 75.06 122.893 74.7C123.32 74.34 123.633 73.8533 123.833 73.24C124.047 72.6133 124.153 71.9 124.153 71.1C124.153 69.8733 123.913 68.8933 123.433 68.16C122.967 67.4267 122.24 67.06 121.253 67.06ZM133.878 65.58C135.198 65.58 136.258 66.04 137.058 66.96C137.871 67.88 138.278 69.2667 138.278 71.12C138.278 72.9467 137.871 74.3333 137.058 75.28C136.258 76.2267 135.191 76.7 133.858 76.7C133.031 76.7 132.345 76.5467 131.798 76.24C131.265 75.92 130.845 75.5533 130.538 75.14H130.418C130.445 75.3667 130.471 75.6533 130.498 76C130.525 76.3467 130.538 76.6467 130.538 76.9V81.3H128.778V65.78H130.218L130.458 67.24H130.538C130.858 66.7733 131.278 66.38 131.798 66.06C132.318 65.74 133.011 65.58 133.878 65.58ZM133.558 67.06C132.465 67.06 131.691 67.3667 131.238 67.98C130.798 68.5933 130.565 69.5267 130.538 70.78V71.12C130.538 72.44 130.751 73.46 131.178 74.18C131.618 74.8867 132.425 75.24 133.598 75.24C134.251 75.24 134.785 75.06 135.198 74.7C135.625 74.34 135.938 73.8533 136.138 73.24C136.351 72.6133 136.458 71.9 136.458 71.1C136.458 69.8733 136.218 68.8933 135.738 68.16C135.271 67.4267 134.545 67.06 133.558 67.06ZM146.083 65.58C146.283 65.58 146.496 65.5933 146.723 65.62C146.963 65.6333 147.169 65.66 147.343 65.7L147.123 67.32C146.949 67.28 146.756 67.2467 146.543 67.22C146.343 67.1933 146.149 67.18 145.963 67.18C145.416 67.18 144.903 67.3333 144.423 67.64C143.943 67.9333 143.556 68.3533 143.263 68.9C142.983 69.4333 142.843 70.06 142.843 70.78V76.5H141.083V65.78H142.523L142.723 67.74H142.803C143.149 67.1533 143.596 66.6467 144.143 66.22C144.689 65.7933 145.336 65.58 146.083 65.58ZM153.094 65.58C154.014 65.58 154.801 65.78 155.454 66.18C156.121 66.58 156.627 67.1467 156.974 67.88C157.334 68.6 157.514 69.4467 157.514 70.42V71.48H150.174C150.201 72.6933 150.507 73.62 151.094 74.26C151.694 74.8867 152.527 75.2 153.594 75.2C154.274 75.2 154.874 75.14 155.394 75.02C155.927 74.8867 156.474 74.7 157.034 74.46V76C156.487 76.24 155.947 76.4133 155.414 76.52C154.881 76.64 154.247 76.7 153.514 76.7C152.501 76.7 151.601 76.4933 150.814 76.08C150.041 75.6667 149.434 75.0533 148.994 74.24C148.567 73.4133 148.354 72.4067 148.354 71.22C148.354 70.0467 148.547 69.04 148.934 68.2C149.334 67.36 149.887 66.7133 150.594 66.26C151.314 65.8067 152.147 65.58 153.094 65.58ZM153.074 67.02C152.234 67.02 151.567 67.2933 151.074 67.84C150.594 68.3733 150.307 69.12 150.214 70.08H155.674C155.661 69.1733 155.447 68.44 155.034 67.88C154.621 67.3067 153.967 67.02 153.074 67.02ZM165.403 65.58C166.683 65.58 167.65 65.8933 168.303 66.52C168.956 67.1333 169.283 68.1333 169.283 69.52V76.5H167.543V69.64C167.543 67.92 166.743 67.06 165.143 67.06C163.956 67.06 163.136 67.3933 162.683 68.06C162.23 68.7267 162.003 69.6867 162.003 70.94V76.5H160.243V65.78H161.663L161.923 67.24H162.023C162.37 66.68 162.85 66.2667 163.463 66C164.076 65.72 164.723 65.58 165.403 65.58ZM176.746 65.58C177.666 65.58 178.453 65.78 179.106 66.18C179.773 66.58 180.28 67.1467 180.626 67.88C180.986 68.6 181.166 69.4467 181.166 70.42V71.48H173.826C173.853 72.6933 174.16 73.62 174.746 74.26C175.346 74.8867 176.18 75.2 177.246 75.2C177.926 75.2 178.526 75.14 179.046 75.02C179.58 74.8867 180.126 74.7 180.686 74.46V76C180.14 76.24 179.6 76.4133 179.066 76.52C178.533 76.64 177.9 76.7 177.166 76.7C176.153 76.7 175.253 76.4933 174.466 76.08C173.693 75.6667 173.086 75.0533 172.646 74.24C172.22 73.4133 172.006 72.4067 172.006 71.22C172.006 70.0467 172.2 69.04 172.586 68.2C172.986 67.36 173.54 66.7133 174.246 66.26C174.966 65.8067 175.8 65.58 176.746 65.58ZM176.726 67.02C175.886 67.02 175.22 67.2933 174.726 67.84C174.246 68.3733 173.96 69.12 173.866 70.08H179.326C179.313 69.1733 179.1 68.44 178.686 67.88C178.273 67.3067 177.62 67.02 176.726 67.02ZM190.62 76.5H182.78V75.34L188.54 67.14H183.12V65.78H190.48V67.1L184.8 75.14H190.62V76.5ZM192.195 71.92V70.36H197.035V71.92H192.195ZM203.68 65.58C204.6 65.58 205.387 65.78 206.04 66.18C206.707 66.58 207.213 67.1467 207.56 67.88C207.92 68.6 208.1 69.4467 208.1 70.42V71.48H200.76C200.787 72.6933 201.093 73.62 201.68 74.26C202.28 74.8867 203.113 75.2 204.18 75.2C204.86 75.2 205.46 75.14 205.98 75.02C206.513 74.8867 207.06 74.7 207.62 74.46V76C207.073 76.24 206.533 76.4133 206 76.52C205.467 76.64 204.833 76.7 204.1 76.7C203.087 76.7 202.187 76.4933 201.4 76.08C200.627 75.6667 200.02 75.0533 199.58 74.24C199.153 73.4133 198.94 72.4067 198.94 71.22C198.94 70.0467 199.133 69.04 199.52 68.2C199.92 67.36 200.473 66.7133 201.18 66.26C201.9 65.8067 202.733 65.58 203.68 65.58ZM203.66 67.02C202.82 67.02 202.153 67.2933 201.66 67.84C201.18 68.3733 200.893 69.12 200.8 70.08H206.26C206.247 69.1733 206.033 68.44 205.62 67.88C205.207 67.3067 204.553 67.02 203.66 67.02ZM215.989 65.58C217.269 65.58 218.236 65.8933 218.889 66.52C219.542 67.1333 219.869 68.1333 219.869 69.52V76.5H218.129V69.64C218.129 67.92 217.329 67.06 215.729 67.06C214.542 67.06 213.722 67.3933 213.269 68.06C212.816 68.7267 212.589 69.6867 212.589 70.94V76.5H210.829V65.78H212.249L212.509 67.24H212.609C212.956 66.68 213.436 66.2667 214.049 66C214.662 65.72 215.309 65.58 215.989 65.58ZM233.488 65.58C234.808 65.58 235.868 66.04 236.668 66.96C237.481 67.88 237.888 69.2667 237.888 71.12C237.888 72.9467 237.481 74.3333 236.668 75.28C235.868 76.2267 234.801 76.7 233.468 76.7C232.641 76.7 231.954 76.5467 231.408 76.24C230.874 75.92 230.454 75.5533 230.148 75.14H230.028C230.054 75.3667 230.081 75.6533 230.108 76C230.134 76.3467 230.148 76.6467 230.148 76.9V81.3H228.388V65.78H229.828L230.068 67.24H230.148C230.468 66.7733 230.888 66.38 231.408 66.06C231.928 65.74 232.621 65.58 233.488 65.58ZM233.168 67.06C232.074 67.06 231.301 67.3667 230.848 67.98C230.408 68.5933 230.174 69.5267 230.148 70.78V71.12C230.148 72.44 230.361 73.46 230.788 74.18C231.228 74.8867 232.034 75.24 233.208 75.24C233.861 75.24 234.394 75.06 234.808 74.7C235.234 74.34 235.548 73.8533 235.748 73.24C235.961 72.6133 236.068 71.9 236.068 71.1C236.068 69.8733 235.828 68.8933 235.348 68.16C234.881 67.4267 234.154 67.06 233.168 67.06ZM242.452 76.5H240.692V61.3H242.452V76.5ZM254.808 65.78V76.5H253.368L253.108 75.08H253.028C252.682 75.64 252.202 76.0533 251.588 76.32C250.975 76.5733 250.322 76.7 249.628 76.7C248.335 76.7 247.362 76.3933 246.708 75.78C246.055 75.1533 245.728 74.16 245.728 72.8V65.78H247.508V72.68C247.508 74.3867 248.302 75.24 249.888 75.24C251.075 75.24 251.895 74.9067 252.348 74.24C252.815 73.5733 253.048 72.6133 253.048 71.36V65.78H254.808ZM265.192 73.54C265.192 74.58 264.805 75.3667 264.032 75.9C263.258 76.4333 262.218 76.7 260.912 76.7C260.165 76.7 259.518 76.64 258.972 76.52C258.438 76.4 257.965 76.2333 257.552 76.02V74.42C257.978 74.6333 258.492 74.8333 259.092 75.02C259.705 75.1933 260.325 75.28 260.952 75.28C261.845 75.28 262.492 75.14 262.892 74.86C263.292 74.5667 263.492 74.18 263.492 73.7C263.492 73.4333 263.418 73.1933 263.272 72.98C263.125 72.7667 262.858 72.5533 262.472 72.34C262.098 72.1267 261.558 71.8867 260.852 71.62C260.158 71.3533 259.565 71.0867 259.072 70.82C258.578 70.5533 258.198 70.2333 257.932 69.86C257.665 69.4867 257.532 69.0067 257.532 68.42C257.532 67.5133 257.898 66.8133 258.632 66.32C259.378 65.8267 260.352 65.58 261.552 65.58C262.205 65.58 262.812 65.6467 263.372 65.78C263.945 65.9 264.478 66.0733 264.972 66.3L264.372 67.7C263.918 67.5133 263.445 67.3533 262.952 67.22C262.458 67.0867 261.952 67.02 261.432 67.02C260.712 67.02 260.158 67.14 259.772 67.38C259.398 67.6067 259.212 67.92 259.212 68.32C259.212 68.6133 259.298 68.8667 259.472 69.08C259.645 69.28 259.932 69.48 260.332 69.68C260.745 69.8667 261.292 70.0933 261.972 70.36C262.652 70.6133 263.232 70.8733 263.712 71.14C264.192 71.4067 264.558 71.7333 264.812 72.12C265.065 72.4933 265.192 72.9667 265.192 73.54ZM279.957 73.54C279.957 74.58 279.571 75.3667 278.797 75.9C278.024 76.4333 276.984 76.7 275.677 76.7C274.931 76.7 274.284 76.64 273.737 76.52C273.204 76.4 272.731 76.2333 272.317 76.02V74.42C272.744 74.6333 273.257 74.8333 273.857 75.02C274.471 75.1933 275.091 75.28 275.717 75.28C276.611 75.28 277.257 75.14 277.657 74.86C278.057 74.5667 278.257 74.18 278.257 73.7C278.257 73.4333 278.184 73.1933 278.037 72.98C277.891 72.7667 277.624 72.5533 277.237 72.34C276.864 72.1267 276.324 71.8867 275.617 71.62C274.924 71.3533 274.331 71.0867 273.837 70.82C273.344 70.5533 272.964 70.2333 272.697 69.86C272.431 69.4867 272.297 69.0067 272.297 68.42C272.297 67.5133 272.664 66.8133 273.397 66.32C274.144 65.8267 275.117 65.58 276.317 65.58C276.971 65.58 277.577 65.6467 278.137 65.78C278.711 65.9 279.244 66.0733 279.737 66.3L279.137 67.7C278.684 67.5133 278.211 67.3533 277.717 67.22C277.224 67.0867 276.717 67.02 276.197 67.02C275.477 67.02 274.924 67.14 274.537 67.38C274.164 67.6067 273.977 67.92 273.977 68.32C273.977 68.6133 274.064 68.8667 274.237 69.08C274.411 69.28 274.697 69.48 275.097 69.68C275.511 69.8667 276.057 70.0933 276.737 70.36C277.417 70.6133 277.997 70.8733 278.477 71.14C278.957 71.4067 279.324 71.7333 279.577 72.12C279.831 72.4933 279.957 72.9667 279.957 73.54ZM291.508 65.78V76.5H290.068L289.808 75.08H289.728C289.381 75.64 288.901 76.0533 288.288 76.32C287.674 76.5733 287.021 76.7 286.328 76.7C285.034 76.7 284.061 76.3933 283.408 75.78C282.754 75.1533 282.428 74.16 282.428 72.8V65.78H284.208V72.68C284.208 74.3867 285.001 75.24 286.588 75.24C287.774 75.24 288.594 74.9067 289.048 74.24C289.514 73.5733 289.748 72.6133 289.748 71.36V65.78H291.508ZM299.911 65.58C300.111 65.58 300.324 65.5933 300.551 65.62C300.791 65.6333 300.998 65.66 301.171 65.7L300.951 67.32C300.778 67.28 300.584 67.2467 300.371 67.22C300.171 67.1933 299.978 67.18 299.791 67.18C299.244 67.18 298.731 67.3333 298.251 67.64C297.771 67.9333 297.384 68.3533 297.091 68.9C296.811 69.4333 296.671 70.06 296.671 70.78V76.5H294.911V65.78H296.351L296.551 67.74H296.631C296.978 67.1533 297.424 66.6467 297.971 66.22C298.518 65.7933 299.164 65.58 299.911 65.58ZM312.668 76.7C311.721 76.7 310.875 76.5067 310.128 76.12C309.395 75.7333 308.815 75.1333 308.388 74.32C307.975 73.5067 307.768 72.4667 307.768 71.2C307.768 69.88 307.988 68.8067 308.428 67.98C308.868 67.1533 309.461 66.5467 310.208 66.16C310.968 65.7733 311.828 65.58 312.788 65.58C313.335 65.58 313.861 65.64 314.368 65.76C314.875 65.8667 315.288 66 315.608 66.16L315.068 67.62C314.748 67.5 314.375 67.3867 313.948 67.28C313.521 67.1733 313.121 67.12 312.748 67.12C310.641 67.12 309.588 68.4733 309.588 71.18C309.588 72.4733 309.841 73.4667 310.348 74.16C310.868 74.84 311.635 75.18 312.648 75.18C313.235 75.18 313.748 75.12 314.188 75C314.641 74.88 315.055 74.7333 315.428 74.56V76.12C315.068 76.3067 314.668 76.4467 314.228 76.54C313.801 76.6467 313.281 76.7 312.668 76.7ZM322.117 65.58C323.037 65.58 323.824 65.78 324.477 66.18C325.144 66.58 325.651 67.1467 325.997 67.88C326.357 68.6 326.537 69.4467 326.537 70.42V71.48H319.197C319.224 72.6933 319.531 73.62 320.117 74.26C320.717 74.8867 321.551 75.2 322.617 75.2C323.297 75.2 323.897 75.14 324.417 75.02C324.951 74.8867 325.497 74.7 326.057 74.46V76C325.511 76.24 324.971 76.4133 324.437 76.52C323.904 76.64 323.271 76.7 322.537 76.7C321.524 76.7 320.624 76.4933 319.837 76.08C319.064 75.6667 318.457 75.0533 318.017 74.24C317.591 73.4133 317.377 72.4067 317.377 71.22C317.377 70.0467 317.571 69.04 317.957 68.2C318.357 67.36 318.911 66.7133 319.617 66.26C320.337 65.8067 321.171 65.58 322.117 65.58ZM322.097 67.02C321.257 67.02 320.591 67.2933 320.097 67.84C319.617 68.3733 319.331 69.12 319.237 70.08H324.697C324.684 69.1733 324.471 68.44 324.057 67.88C323.644 67.3067 322.991 67.02 322.097 67.02ZM341.442 73.54C341.442 74.58 341.055 75.3667 340.282 75.9C339.508 76.4333 338.468 76.7 337.162 76.7C336.415 76.7 335.768 76.64 335.222 76.52C334.688 76.4 334.215 76.2333 333.802 76.02V74.42C334.228 74.6333 334.742 74.8333 335.342 75.02C335.955 75.1933 336.575 75.28 337.202 75.28C338.095 75.28 338.742 75.14 339.142 74.86C339.542 74.5667 339.742 74.18 339.742 73.7C339.742 73.4333 339.668 73.1933 339.522 72.98C339.375 72.7667 339.108 72.5533 338.722 72.34C338.348 72.1267 337.808 71.8867 337.102 71.62C336.408 71.3533 335.815 71.0867 335.322 70.82C334.828 70.5533 334.448 70.2333 334.182 69.86C333.915 69.4867 333.782 69.0067 333.782 68.42C333.782 67.5133 334.148 66.8133 334.882 66.32C335.628 65.8267 336.602 65.58 337.802 65.58C338.455 65.58 339.062 65.6467 339.622 65.78C340.195 65.9 340.728 66.0733 341.222 66.3L340.622 67.7C340.168 67.5133 339.695 67.3533 339.202 67.22C338.708 67.0867 338.202 67.02 337.682 67.02C336.962 67.02 336.408 67.14 336.022 67.38C335.648 67.6067 335.462 67.92 335.462 68.32C335.462 68.6133 335.548 68.8667 335.722 69.08C335.895 69.28 336.182 69.48 336.582 69.68C336.995 69.8667 337.542 70.0933 338.222 70.36C338.902 70.6133 339.482 70.8733 339.962 71.14C340.442 71.4067 340.808 71.7333 341.062 72.12C341.315 72.4933 341.442 72.9667 341.442 73.54ZM352.992 65.78V76.5H351.552L351.292 75.08H351.212C350.865 75.64 350.385 76.0533 349.772 76.32C349.159 76.5733 348.505 76.7 347.812 76.7C346.519 76.7 345.545 76.3933 344.892 75.78C344.239 75.1533 343.912 74.16 343.912 72.8V65.78H345.692V72.68C345.692 74.3867 346.485 75.24 348.072 75.24C349.259 75.24 350.079 74.9067 350.532 74.24C350.999 73.5733 351.232 72.6133 351.232 71.36V65.78H352.992ZM356.255 62.88C356.255 62.4933 356.355 62.2133 356.555 62.04C356.755 61.8533 357.002 61.76 357.295 61.76C357.562 61.76 357.795 61.8533 357.995 62.04C358.209 62.2133 358.315 62.4933 358.315 62.88C358.315 63.2533 358.209 63.5333 357.995 63.72C357.795 63.9067 357.562 64 357.295 64C357.002 64 356.755 63.9067 356.555 63.72C356.355 63.5333 356.255 63.2533 356.255 62.88ZM355.135 81.3C354.802 81.3 354.509 81.2733 354.255 81.22C354.002 81.18 353.782 81.1267 353.595 81.06V79.64C353.795 79.6933 354.002 79.74 354.215 79.78C354.429 79.82 354.662 79.84 354.915 79.84C355.342 79.84 355.695 79.72 355.975 79.48C356.255 79.2533 356.395 78.8133 356.395 78.16V65.78H358.155V78.1C358.155 79.1 357.915 79.88 357.435 80.44C356.955 81.0133 356.189 81.3 355.135 81.3ZM365.692 65.58C366.612 65.58 367.398 65.78 368.052 66.18C368.718 66.58 369.225 67.1467 369.572 67.88C369.932 68.6 370.112 69.4467 370.112 70.42V71.48H362.772C362.798 72.6933 363.105 73.62 363.692 74.26C364.292 74.8867 365.125 75.2 366.192 75.2C366.872 75.2 367.472 75.14 367.992 75.02C368.525 74.8867 369.072 74.7 369.632 74.46V76C369.085 76.24 368.545 76.4133 368.012 76.52C367.478 76.64 366.845 76.7 366.112 76.7C365.098 76.7 364.198 76.4933 363.412 76.08C362.638 75.6667 362.032 75.0533 361.592 74.24C361.165 73.4133 360.952 72.4067 360.952 71.22C360.952 70.0467 361.145 69.04 361.532 68.2C361.932 67.36 362.485 66.7133 363.192 66.26C363.912 65.8067 364.745 65.58 365.692 65.58ZM365.672 67.02C364.832 67.02 364.165 67.2933 363.672 67.84C363.192 68.3733 362.905 69.12 362.812 70.08H368.272C368.258 69.1733 368.045 68.44 367.632 67.88C367.218 67.3067 366.565 67.02 365.672 67.02ZM376.421 75.26C376.687 75.26 376.961 75.24 377.241 75.2C377.521 75.1467 377.747 75.0933 377.921 75.04V76.38C377.734 76.4733 377.467 76.5467 377.121 76.6C376.774 76.6667 376.441 76.7 376.121 76.7C375.561 76.7 375.041 76.6067 374.561 76.42C374.094 76.22 373.714 75.88 373.421 75.4C373.127 74.92 372.981 74.2467 372.981 73.38V67.14H371.461V66.3L373.001 65.6L373.701 63.32H374.741V65.78H377.841V67.14H374.741V73.34C374.741 73.9933 374.894 74.48 375.201 74.8C375.521 75.1067 375.927 75.26 376.421 75.26Z" fill="#2B4380"/>
<path d="M102 80.1H115.677V80.9H102V80.1ZM119.034 80.1H127.981V80.9H119.034V80.1ZM131.339 80.1H227.591V80.9H131.339V80.1ZM230.948 80.1H353.895V80.9H230.948V80.1ZM358.472 80.1H378.361V80.9H358.472V80.1Z" fill="#2B4380"/>
<g clip-path="url(#clip1_6108_67118)">
<rect y="68.1177" width="57" height="1" fill="#C54600"/>
<g clip-path="url(#clip2_6108_67118)">
<rect y="56.1177" width="24" height="24" rx="12" fill="#C54600"/>
<path d="M9.2706 72.1177V71.3506L12.1513 68.1972C12.4893 67.8279 12.7678 67.5069 12.9865 67.2342C13.2053 66.9586 13.3672 66.7001 13.4723 66.4586C13.5803 66.2143 13.6342 65.9586 13.6342 65.6915C13.6342 65.3847 13.5604 65.1191 13.4126 64.8947C13.2678 64.6702 13.0689 64.4969 12.8161 64.3748C12.5632 64.2526 12.2791 64.1915 11.9638 64.1915C11.6286 64.1915 11.3359 64.2611 11.0859 64.4003C10.8388 64.5367 10.647 64.7285 10.5107 64.9756C10.3771 65.2228 10.3104 65.5126 10.3104 65.8449H9.30469C9.30469 65.3336 9.42259 64.8847 9.65838 64.4984C9.89418 64.112 10.2152 63.8109 10.6214 63.5949C11.0305 63.379 11.4893 63.2711 11.9979 63.2711C12.5092 63.2711 12.9624 63.379 13.3572 63.5949C13.7521 63.8109 14.0618 64.1021 14.2862 64.4685C14.5107 64.835 14.6229 65.2427 14.6229 65.6915C14.6229 66.0126 14.5646 66.3265 14.4482 66.6333C14.3345 66.9373 14.1357 67.2768 13.8516 67.6518C13.5703 68.0239 13.1797 68.4785 12.6797 69.0154L10.7195 71.112V71.1802H14.7763V72.1177H9.2706Z" fill="white"/>
</g>
</g>
<g clip-path="url(#clip3_6108_67118)">
<g clip-path="url(#clip4_6108_67118)">
<rect x="209" y="0.300049" width="24" height="24" rx="12" fill="#C54600"/>
<path d="M222.183 7.57278V16.3H221.126V8.68073H221.075L218.944 10.0955V9.02164L221.126 7.57278H222.183Z" fill="white"/>
</g>
</g>
<rect width="1" height="31" transform="matrix(1 0 0 -1 221 47)" fill="#C54600"/>
<defs>
<clipPath id="clip0_6108_67118">
<rect width="18" height="18" fill="white" transform="translate(68 59.5)"/>
</clipPath>
<clipPath id="clip1_6108_67118">
<rect width="57" height="24" fill="white" transform="translate(0 56.1177)"/>
</clipPath>
<clipPath id="clip2_6108_67118">
<rect y="56.1177" width="24" height="24" rx="12" fill="white"/>
</clipPath>
<clipPath id="clip3_6108_67118">
<rect width="24" height="24" fill="white" transform="translate(209 0.5)"/>
</clipPath>
<clipPath id="clip4_6108_67118">
<rect x="209" y="0.300049" width="24" height="24" rx="12" fill="white"/>
</clipPath>
</defs>
</svg>
