<svg width="254" height="134" viewBox="0 0 254 134" fill="none" xmlns="http://www.w3.org/2000/svg">
<rect x="57.25" y="60" width="191" height="48" rx="6" fill="#26374A"/>
<path d="M71.15 92V77.72H73.31V90.14H79.41V92H71.15ZM82.7127 77.12C83.0327 77.12 83.3127 77.2133 83.5527 77.4C83.7927 77.5867 83.9127 77.9 83.9127 78.34C83.9127 78.7667 83.7927 79.08 83.5527 79.28C83.3127 79.4667 83.0327 79.56 82.7127 79.56C82.3793 79.56 82.0927 79.4667 81.8527 79.28C81.6127 79.08 81.4927 78.7667 81.4927 78.34C81.4927 77.9 81.6127 77.5867 81.8527 77.4C82.0927 77.2133 82.3793 77.12 82.7127 77.12ZM83.7527 81.22V92H81.6327V81.22H83.7527ZM89.2019 76.8V80.46C89.2019 80.8867 89.1885 81.3067 89.1619 81.72C89.1485 82.12 89.1285 82.4267 89.1019 82.64H89.2019C89.5085 82.1867 89.9219 81.8067 90.4419 81.5C90.9619 81.1933 91.6352 81.04 92.4619 81.04C93.7552 81.04 94.7952 81.5067 95.5819 82.44C96.3819 83.3733 96.7819 84.76 96.7819 86.6C96.7819 88.4533 96.3819 89.8533 95.5819 90.8C94.7819 91.7333 93.7352 92.2 92.4419 92.2C91.6152 92.2 90.9419 92.0533 90.4219 91.76C89.9152 91.4533 89.5085 91.0933 89.2019 90.68H89.0419L88.6419 92H87.0819V76.8H89.2019ZM91.9619 82.76C90.9352 82.76 90.2219 83.0667 89.8219 83.68C89.4219 84.28 89.2152 85.2067 89.2019 86.46V86.62C89.2019 87.86 89.3952 88.8133 89.7819 89.48C90.1819 90.1333 90.9219 90.46 92.0019 90.46C92.8685 90.46 93.5152 90.1267 93.9419 89.46C94.3819 88.7933 94.6019 87.8333 94.6019 86.58C94.6019 84.0333 93.7219 82.76 91.9619 82.76ZM103.724 81.02C105.138 81.02 106.251 81.46 107.064 82.34C107.878 83.2067 108.284 84.3933 108.284 85.9V87.06H101.044C101.071 88.1667 101.358 89.0133 101.904 89.6C102.464 90.1867 103.244 90.48 104.244 90.48C104.938 90.48 105.551 90.42 106.084 90.3C106.631 90.1667 107.191 89.9733 107.764 89.72V91.48C107.218 91.7333 106.671 91.9133 106.124 92.02C105.578 92.14 104.924 92.2 104.164 92.2C103.124 92.2 102.204 91.9933 101.404 91.58C100.604 91.1667 99.9776 90.5533 99.5242 89.74C99.0842 88.9267 98.8642 87.9133 98.8642 86.7C98.8642 85.4867 99.0642 84.46 99.4642 83.62C99.8776 82.78 100.444 82.14 101.164 81.7C101.898 81.2467 102.751 81.02 103.724 81.02ZM103.724 82.66C102.964 82.66 102.351 82.9067 101.884 83.4C101.431 83.8933 101.164 84.5933 101.084 85.5H106.164C106.151 84.66 105.944 83.98 105.544 83.46C105.158 82.9267 104.551 82.66 103.724 82.66ZM113.05 92H110.93V76.8H113.05V92ZM118.499 92H116.379V76.8H118.499V92ZM126.068 81.02C127.481 81.02 128.595 81.46 129.408 82.34C130.221 83.2067 130.628 84.3933 130.628 85.9V87.06H123.388C123.415 88.1667 123.701 89.0133 124.248 89.6C124.808 90.1867 125.588 90.48 126.588 90.48C127.281 90.48 127.895 90.42 128.428 90.3C128.975 90.1667 129.535 89.9733 130.108 89.72V91.48C129.561 91.7333 129.015 91.9133 128.468 92.02C127.921 92.14 127.268 92.2 126.508 92.2C125.468 92.2 124.548 91.9933 123.748 91.58C122.948 91.1667 122.321 90.5533 121.868 89.74C121.428 88.9267 121.208 87.9133 121.208 86.7C121.208 85.4867 121.408 84.46 121.808 83.62C122.221 82.78 122.788 82.14 123.508 81.7C124.241 81.2467 125.095 81.02 126.068 81.02ZM126.068 82.66C125.308 82.66 124.695 82.9067 124.228 83.4C123.775 83.8933 123.508 84.5933 123.428 85.5H128.508C128.495 84.66 128.288 83.98 127.888 83.46C127.501 82.9267 126.895 82.66 126.068 82.66ZM129.048 76.68V76.88C128.848 77.12 128.561 77.4333 128.188 77.82C127.828 78.1933 127.441 78.5733 127.028 78.96C126.628 79.3333 126.268 79.64 125.948 79.88H124.548V79.64C124.748 79.4 124.975 79.1067 125.228 78.76C125.481 78.4 125.721 78.04 125.948 77.68C126.188 77.3067 126.395 76.9733 126.568 76.68H129.048ZM142.169 92.2C140.862 92.2 139.815 91.7333 139.029 90.8C138.242 89.8667 137.849 88.48 137.849 86.64C137.849 84.7867 138.249 83.3867 139.049 82.44C139.849 81.4933 140.902 81.02 142.209 81.02C143.022 81.02 143.689 81.1733 144.209 81.48C144.729 81.7867 145.149 82.16 145.469 82.6H145.589C145.562 82.4133 145.529 82.14 145.489 81.78C145.449 81.42 145.429 81.1067 145.429 80.84V76.8H147.549V92H145.889L145.529 90.56H145.429C145.122 91.0133 144.709 91.4 144.189 91.72C143.669 92.04 142.995 92.2 142.169 92.2ZM142.669 90.46C143.709 90.46 144.435 90.1733 144.849 89.6C145.275 89.0267 145.495 88.1533 145.509 86.98V86.66C145.509 85.3933 145.302 84.4267 144.889 83.76C144.489 83.0933 143.742 82.76 142.649 82.76C141.782 82.76 141.129 83.1067 140.689 83.8C140.249 84.4933 140.029 85.4533 140.029 86.68C140.029 87.8933 140.249 88.8267 140.689 89.48C141.129 90.1333 141.789 90.46 142.669 90.46ZM155.111 81.02C156.524 81.02 157.638 81.46 158.451 82.34C159.264 83.2067 159.671 84.3933 159.671 85.9V87.06H152.431C152.458 88.1667 152.744 89.0133 153.291 89.6C153.851 90.1867 154.631 90.48 155.631 90.48C156.324 90.48 156.938 90.42 157.471 90.3C158.018 90.1667 158.578 89.9733 159.151 89.72V91.48C158.604 91.7333 158.058 91.9133 157.511 92.02C156.964 92.14 156.311 92.2 155.551 92.2C154.511 92.2 153.591 91.9933 152.791 91.58C151.991 91.1667 151.364 90.5533 150.911 89.74C150.471 88.9267 150.251 87.9133 150.251 86.7C150.251 85.4867 150.451 84.46 150.851 83.62C151.264 82.78 151.831 82.14 152.551 81.7C153.284 81.2467 154.138 81.02 155.111 81.02ZM155.111 82.66C154.351 82.66 153.738 82.9067 153.271 83.4C152.818 83.8933 152.551 84.5933 152.471 85.5H157.551C157.538 84.66 157.331 83.98 156.931 83.46C156.544 82.9267 155.938 82.66 155.111 82.66ZM169.632 76.8V80.46C169.632 80.8867 169.618 81.3067 169.592 81.72C169.578 82.12 169.558 82.4267 169.532 82.64H169.632C169.938 82.1867 170.352 81.8067 170.872 81.5C171.392 81.1933 172.065 81.04 172.892 81.04C174.185 81.04 175.225 81.5067 176.012 82.44C176.812 83.3733 177.212 84.76 177.212 86.6C177.212 88.4533 176.812 89.8533 176.012 90.8C175.212 91.7333 174.165 92.2 172.872 92.2C172.045 92.2 171.372 92.0533 170.852 91.76C170.345 91.4533 169.938 91.0933 169.632 90.68H169.472L169.072 92H167.512V76.8H169.632ZM172.392 82.76C171.365 82.76 170.652 83.0667 170.252 83.68C169.852 84.28 169.645 85.2067 169.632 86.46V86.62C169.632 87.86 169.825 88.8133 170.212 89.48C170.612 90.1333 171.352 90.46 172.432 90.46C173.298 90.46 173.945 90.1267 174.372 89.46C174.812 88.7933 175.032 87.8333 175.032 86.58C175.032 84.0333 174.152 82.76 172.392 82.76ZM189.414 86.6C189.414 88.3867 188.954 89.7667 188.034 90.74C187.114 91.7133 185.874 92.2 184.314 92.2C183.341 92.2 182.474 91.9867 181.714 91.56C180.967 91.12 180.374 90.4867 179.934 89.66C179.507 88.82 179.294 87.8 179.294 86.6C179.294 84.8133 179.747 83.44 180.654 82.48C181.561 81.5067 182.801 81.02 184.374 81.02C185.361 81.02 186.227 81.24 186.974 81.68C187.734 82.1067 188.327 82.7333 188.754 83.56C189.194 84.3867 189.414 85.4 189.414 86.6ZM181.474 86.6C181.474 87.8133 181.701 88.76 182.154 89.44C182.621 90.12 183.354 90.46 184.354 90.46C185.354 90.46 186.081 90.12 186.534 89.44C187.001 88.76 187.234 87.8133 187.234 86.6C187.234 85.3733 187.001 84.4333 186.534 83.78C186.081 83.1133 185.347 82.78 184.334 82.78C183.334 82.78 182.607 83.1133 182.154 83.78C181.701 84.4333 181.474 85.3733 181.474 86.6ZM201.381 81.22V92H199.681L199.381 90.58H199.281C198.935 91.14 198.455 91.5533 197.841 91.82C197.228 92.0733 196.581 92.2 195.901 92.2C194.635 92.2 193.668 91.8933 193.001 91.28C192.335 90.6533 192.001 89.6533 192.001 88.28V81.22H194.141V87.96C194.141 88.8 194.315 89.4267 194.661 89.84C195.021 90.2533 195.575 90.46 196.321 90.46C197.428 90.46 198.195 90.14 198.621 89.5C199.048 88.8467 199.261 87.9067 199.261 86.68V81.22H201.381ZM208.579 90.48C209.179 90.48 209.719 90.3933 210.199 90.22V91.82C209.972 91.9267 209.666 92.0133 209.279 92.08C208.892 92.16 208.506 92.2 208.119 92.2C207.532 92.2 206.992 92.1 206.499 91.9C206.019 91.7 205.632 91.3533 205.339 90.86C205.046 90.3667 204.899 89.68 204.899 88.8V82.84H203.399V81.88L204.979 81.08L205.719 78.8H207.019V81.22H210.099V82.84H207.019V88.76C207.019 89.3467 207.159 89.78 207.439 90.06C207.732 90.34 208.112 90.48 208.579 90.48ZM221.855 86.6C221.855 88.3867 221.395 89.7667 220.475 90.74C219.555 91.7133 218.315 92.2 216.755 92.2C215.782 92.2 214.915 91.9867 214.155 91.56C213.409 91.12 212.815 90.4867 212.375 89.66C211.949 88.82 211.735 87.8 211.735 86.6C211.735 84.8133 212.189 83.44 213.095 82.48C214.002 81.5067 215.242 81.02 216.815 81.02C217.802 81.02 218.669 81.24 219.415 81.68C220.175 82.1067 220.769 82.7333 221.195 83.56C221.635 84.3867 221.855 85.4 221.855 86.6ZM213.915 86.6C213.915 87.8133 214.142 88.76 214.595 89.44C215.062 90.12 215.795 90.46 216.795 90.46C217.795 90.46 218.522 90.12 218.975 89.44C219.442 88.76 219.675 87.8133 219.675 86.6C219.675 85.3733 219.442 84.4333 218.975 83.78C218.522 83.1133 217.789 82.78 216.775 82.78C215.775 82.78 215.049 83.1133 214.595 83.78C214.142 84.4333 213.915 85.3733 213.915 86.6ZM230.003 81.02C231.256 81.02 232.216 81.3333 232.883 81.96C233.549 82.5867 233.883 83.5933 233.883 84.98V92H231.783V85.28C231.783 83.6 231.043 82.76 229.563 82.76C228.469 82.76 227.709 83.0867 227.283 83.74C226.869 84.3933 226.663 85.3333 226.663 86.56V92H224.543V81.22H226.223L226.523 82.66H226.643C226.989 82.1 227.463 81.6867 228.063 81.42C228.676 81.1533 229.323 81.02 230.003 81.02Z" fill="white"/>
<g clip-path="url(#clip0_2104_37128)">
<rect x="5.75" y="84" width="48" height="1" fill="#C54600"/>
<g clip-path="url(#clip1_2104_37128)">
<rect x="5.75" y="72" width="24" height="24" rx="12" fill="#C54600"/>
<path d="M19.5802 78.8182V89H17.4275V80.8615H17.3678L15.0361 82.3232V80.4141L17.5567 78.8182H19.5802Z" fill="white"/>
</g>
</g>
<g clip-path="url(#clip2_2104_37128)">
<rect x="152.25" y="12" width="1" height="60" fill="#C54600"/>
<g clip-path="url(#clip3_2104_37128)">
<rect x="140.25" y="12" width="24" height="24" rx="12" fill="#C54600"/>
<path d="M148.666 29V27.4489L152.29 24.093C152.599 23.7947 152.857 23.5263 153.066 23.2876C153.278 23.049 153.439 22.8153 153.548 22.5866C153.658 22.3546 153.712 22.1044 153.712 21.8359C153.712 21.5376 153.644 21.2808 153.508 21.0653C153.373 20.8466 153.187 20.6792 152.952 20.5632C152.716 20.4439 152.449 20.3842 152.151 20.3842C151.84 20.3842 151.568 20.4472 151.336 20.5732C151.104 20.6991 150.925 20.8797 150.799 21.1151C150.673 21.3504 150.61 21.6304 150.61 21.9553H148.567C148.567 21.2891 148.717 20.7107 149.019 20.2202C149.321 19.7296 149.743 19.3501 150.287 19.0817C150.83 18.8132 151.457 18.679 152.166 18.679C152.895 18.679 153.53 18.8082 154.07 19.0668C154.614 19.322 155.036 19.6766 155.338 20.1307C155.64 20.5848 155.79 21.1051 155.79 21.6918C155.79 22.0762 155.714 22.4557 155.562 22.8303C155.413 23.2048 155.146 23.6207 154.761 24.0781C154.377 24.5322 153.835 25.0774 153.136 25.7138L151.649 27.1705V27.2401H155.925V29H148.666Z" fill="white"/>
</g>
</g>
<defs>
<clipPath id="clip0_2104_37128">
<rect width="48" height="24" fill="white" transform="translate(5.75 72)"/>
</clipPath>
<clipPath id="clip1_2104_37128">
<rect x="5.75" y="72" width="24" height="24" rx="12" fill="white"/>
</clipPath>
<clipPath id="clip2_2104_37128">
<rect width="24" height="60" fill="white" transform="translate(140.25 12)"/>
</clipPath>
<clipPath id="clip3_2104_37128">
<rect x="140.25" y="12" width="24" height="24" rx="12" fill="white"/>
</clipPath>
</defs>
</svg>
