<svg width="374" height="72" viewBox="0 0 374 72" fill="none" xmlns="http://www.w3.org/2000/svg">
<g clip-path="url(#clip0_207_2690)">
<path d="M65.88 60.72C65.88 63.1333 65.22 64.9533 63.9 66.18C62.5933 67.3933 60.7667 68 58.42 68H54.44V53.72H58.84C60.28 53.72 61.5267 53.9867 62.58 54.52C63.6333 55.0533 64.4467 55.84 65.02 56.88C65.5933 57.9067 65.88 59.1867 65.88 60.72ZM63.98 60.78C63.98 58.8733 63.5067 57.48 62.56 56.6C61.6267 55.7067 60.3 55.26 58.58 55.26H56.24V66.46H58.18C62.0467 66.46 63.98 64.5667 63.98 60.78ZM72.8694 57.1C74.176 57.1 75.1427 57.3867 75.7694 57.96C76.396 58.5333 76.7094 59.4467 76.7094 60.7V68H75.4294L75.0894 66.48H75.0094C74.5427 67.0667 74.0494 67.5 73.5294 67.78C73.0227 68.06 72.316 68.2 71.4094 68.2C70.436 68.2 69.6294 67.9467 68.9894 67.44C68.3494 66.92 68.0294 66.1133 68.0294 65.02C68.0294 63.9533 68.4494 63.1333 69.2894 62.56C70.1294 61.9733 71.4227 61.6533 73.1694 61.6L74.9894 61.54V60.9C74.9894 60.0067 74.796 59.3867 74.4094 59.04C74.0227 58.6933 73.476 58.52 72.7694 58.52C72.2094 58.52 71.676 58.6067 71.1694 58.78C70.6627 58.94 70.1894 59.1267 69.7494 59.34L69.2094 58.02C69.676 57.7667 70.2294 57.5533 70.8694 57.38C71.5094 57.1933 72.176 57.1 72.8694 57.1ZM73.3894 62.82C72.056 62.8733 71.1294 63.0867 70.6094 63.46C70.1027 63.8333 69.8494 64.36 69.8494 65.04C69.8494 65.64 70.0294 66.08 70.3894 66.36C70.7627 66.64 71.236 66.78 71.8094 66.78C72.716 66.78 73.4694 66.5333 74.0694 66.04C74.6694 65.5333 74.9694 64.76 74.9694 63.72V62.76L73.3894 62.82ZM83.6003 66.76C83.867 66.76 84.1403 66.74 84.4203 66.7C84.7003 66.6467 84.927 66.5933 85.1003 66.54V67.88C84.9136 67.9733 84.647 68.0467 84.3003 68.1C83.9536 68.1667 83.6203 68.2 83.3003 68.2C82.7403 68.2 82.2203 68.1067 81.7403 67.92C81.2736 67.72 80.8936 67.38 80.6003 66.9C80.307 66.42 80.1603 65.7467 80.1603 64.88V58.64H78.6403V57.8L80.1803 57.1L80.8803 54.82H81.9203V57.28H85.0203V58.64H81.9203V64.84C81.9203 65.4933 82.0736 65.98 82.3803 66.3C82.7003 66.6067 83.107 66.76 83.6003 66.76ZM91.3869 57.08C92.3069 57.08 93.0935 57.28 93.7469 57.68C94.4135 58.08 94.9202 58.6467 95.2669 59.38C95.6269 60.1 95.8069 60.9467 95.8069 61.92V62.98H88.4669C88.4935 64.1933 88.8002 65.12 89.3869 65.76C89.9869 66.3867 90.8202 66.7 91.8869 66.7C92.5669 66.7 93.1669 66.64 93.6869 66.52C94.2202 66.3867 94.7669 66.2 95.3269 65.96V67.5C94.7802 67.74 94.2402 67.9133 93.7069 68.02C93.1735 68.14 92.5402 68.2 91.8069 68.2C90.7935 68.2 89.8935 67.9933 89.1069 67.58C88.3335 67.1667 87.7269 66.5533 87.2869 65.74C86.8602 64.9133 86.6469 63.9067 86.6469 62.72C86.6469 61.5467 86.8402 60.54 87.2269 59.7C87.6269 58.86 88.1802 58.2133 88.8869 57.76C89.6069 57.3067 90.4402 57.08 91.3869 57.08ZM91.3669 58.52C90.5269 58.52 89.8602 58.7933 89.3669 59.34C88.8869 59.8733 88.6002 60.62 88.5069 61.58H93.9669C93.9535 60.6733 93.7402 59.94 93.3269 59.38C92.9135 58.8067 92.2602 58.52 91.3669 58.52ZM107.531 68.2C106.198 68.2 105.131 67.74 104.331 66.82C103.531 65.8867 103.131 64.5 103.131 62.66C103.131 60.82 103.531 59.4333 104.331 58.5C105.145 57.5533 106.218 57.08 107.551 57.08C108.378 57.08 109.051 57.2333 109.571 57.54C110.105 57.8467 110.538 58.22 110.871 58.66H110.991C110.978 58.4867 110.951 58.2333 110.911 57.9C110.885 57.5533 110.871 57.28 110.871 57.08V52.8H112.631V68H111.211L110.951 66.56H110.871C110.551 67.0133 110.125 67.4 109.591 67.72C109.058 68.04 108.371 68.2 107.531 68.2ZM107.811 66.74C108.945 66.74 109.738 66.4333 110.191 65.82C110.658 65.1933 110.891 64.2533 110.891 63V62.68C110.891 61.3467 110.671 60.3267 110.231 59.62C109.791 58.9 108.978 58.54 107.791 58.54C106.845 58.54 106.131 58.92 105.651 59.68C105.185 60.4267 104.951 61.4333 104.951 62.7C104.951 63.98 105.185 64.9733 105.651 65.68C106.131 66.3867 106.851 66.74 107.811 66.74ZM120.176 57.08C121.096 57.08 121.883 57.28 122.536 57.68C123.203 58.08 123.709 58.6467 124.056 59.38C124.416 60.1 124.596 60.9467 124.596 61.92V62.98H117.256C117.283 64.1933 117.589 65.12 118.176 65.76C118.776 66.3867 119.609 66.7 120.676 66.7C121.356 66.7 121.956 66.64 122.476 66.52C123.009 66.3867 123.556 66.2 124.116 65.96V67.5C123.569 67.74 123.029 67.9133 122.496 68.02C121.963 68.14 121.329 68.2 120.596 68.2C119.583 68.2 118.683 67.9933 117.896 67.58C117.123 67.1667 116.516 66.5533 116.076 65.74C115.649 64.9133 115.436 63.9067 115.436 62.72C115.436 61.5467 115.629 60.54 116.016 59.7C116.416 58.86 116.969 58.2133 117.676 57.76C118.396 57.3067 119.229 57.08 120.176 57.08ZM120.156 58.52C119.316 58.52 118.649 58.7933 118.156 59.34C117.676 59.8733 117.389 60.62 117.296 61.58H122.756C122.743 60.6733 122.529 59.94 122.116 59.38C121.703 58.8067 121.049 58.52 120.156 58.52ZM144.28 57.08C145.494 57.08 146.4 57.3933 147 58.02C147.6 58.6333 147.9 59.6333 147.9 61.02V68H146.16V61.1C146.16 59.4067 145.434 58.56 143.98 58.56C142.94 58.56 142.194 58.86 141.74 59.46C141.3 60.06 141.08 60.9333 141.08 62.08V68H139.34V61.1C139.34 59.4067 138.607 58.56 137.14 58.56C136.06 58.56 135.314 58.8933 134.9 59.56C134.487 60.2267 134.28 61.1867 134.28 62.44V68H132.52V57.28H133.94L134.2 58.74H134.3C134.634 58.18 135.08 57.7667 135.64 57.5C136.214 57.22 136.82 57.08 137.46 57.08C139.14 57.08 140.234 57.68 140.74 58.88H140.84C141.2 58.2667 141.687 57.8133 142.3 57.52C142.927 57.2267 143.587 57.08 144.28 57.08ZM160.532 62.62C160.532 64.3933 160.078 65.7667 159.172 66.74C158.278 67.7133 157.065 68.2 155.532 68.2C154.585 68.2 153.738 67.9867 152.992 67.56C152.258 67.12 151.678 66.4867 151.252 65.66C150.825 64.82 150.612 63.8067 150.612 62.62C150.612 60.8467 151.058 59.48 151.952 58.52C152.845 57.56 154.058 57.08 155.592 57.08C156.565 57.08 157.418 57.3 158.152 57.74C158.898 58.1667 159.478 58.7933 159.892 59.62C160.318 60.4333 160.532 61.4333 160.532 62.62ZM152.432 62.62C152.432 63.8867 152.678 64.8933 153.172 65.64C153.678 66.3733 154.478 66.74 155.572 66.74C156.652 66.74 157.445 66.3733 157.952 65.64C158.458 64.8933 158.712 63.8867 158.712 62.62C158.712 61.3533 158.458 60.36 157.952 59.64C157.445 58.92 156.645 58.56 155.552 58.56C154.458 58.56 153.665 58.92 153.172 59.64C152.678 60.36 152.432 61.3533 152.432 62.62ZM167.121 68.2C165.788 68.2 164.721 67.74 163.921 66.82C163.121 65.8867 162.721 64.5 162.721 62.66C162.721 60.82 163.121 59.4333 163.921 58.5C164.734 57.5533 165.808 57.08 167.141 57.08C167.968 57.08 168.641 57.2333 169.161 57.54C169.694 57.8467 170.128 58.22 170.461 58.66H170.581C170.568 58.4867 170.541 58.2333 170.501 57.9C170.474 57.5533 170.461 57.28 170.461 57.08V52.8H172.221V68H170.801L170.541 66.56H170.461C170.141 67.0133 169.714 67.4 169.181 67.72C168.648 68.04 167.961 68.2 167.121 68.2ZM167.401 66.74C168.534 66.74 169.328 66.4333 169.781 65.82C170.248 65.1933 170.481 64.2533 170.481 63V62.68C170.481 61.3467 170.261 60.3267 169.821 59.62C169.381 58.9 168.568 58.54 167.381 58.54C166.434 58.54 165.721 58.92 165.241 59.68C164.774 60.4267 164.541 61.4333 164.541 62.7C164.541 63.98 164.774 64.9733 165.241 65.68C165.721 66.3867 166.441 66.74 167.401 66.74ZM176.526 53.26C176.792 53.26 177.026 53.3533 177.226 53.54C177.439 53.7133 177.546 53.9933 177.546 54.38C177.546 54.7533 177.439 55.0333 177.226 55.22C177.026 55.4067 176.792 55.5 176.526 55.5C176.232 55.5 175.986 55.4067 175.786 55.22C175.586 55.0333 175.486 54.7533 175.486 54.38C175.486 53.9933 175.586 53.7133 175.786 53.54C175.986 53.3533 176.232 53.26 176.526 53.26ZM177.386 57.28V68H175.626V57.28H177.386ZM185.722 58.64H183.022V68H181.262V58.64H179.382V57.82L181.262 57.22V56.6C181.262 55.2133 181.569 54.22 182.182 53.62C182.795 53.0067 183.649 52.7 184.742 52.7C185.169 52.7 185.555 52.74 185.902 52.82C186.262 52.8867 186.569 52.9667 186.822 53.06L186.362 54.44C186.149 54.3733 185.902 54.3067 185.622 54.24C185.342 54.1733 185.055 54.14 184.762 54.14C184.175 54.14 183.735 54.34 183.442 54.74C183.162 55.1267 183.022 55.74 183.022 56.58V57.28H185.722V58.64ZM188.562 53.26C188.829 53.26 189.062 53.3533 189.262 53.54C189.475 53.7133 189.582 53.9933 189.582 54.38C189.582 54.7533 189.475 55.0333 189.262 55.22C189.062 55.4067 188.829 55.5 188.562 55.5C188.269 55.5 188.022 55.4067 187.822 55.22C187.622 55.0333 187.522 54.7533 187.522 54.38C187.522 53.9933 187.622 53.7133 187.822 53.54C188.022 53.3533 188.269 53.26 188.562 53.26ZM189.422 57.28V68H187.662V57.28H189.422ZM197.113 68.2C196.167 68.2 195.32 68.0067 194.573 67.62C193.84 67.2333 193.26 66.6333 192.833 65.82C192.42 65.0067 192.213 63.9667 192.213 62.7C192.213 61.38 192.433 60.3067 192.873 59.48C193.313 58.6533 193.907 58.0467 194.653 57.66C195.413 57.2733 196.273 57.08 197.233 57.08C197.78 57.08 198.307 57.14 198.813 57.26C199.32 57.3667 199.733 57.5 200.053 57.66L199.513 59.12C199.193 59 198.82 58.8867 198.393 58.78C197.967 58.6733 197.567 58.62 197.193 58.62C195.087 58.62 194.033 59.9733 194.033 62.68C194.033 63.9733 194.287 64.9667 194.793 65.66C195.313 66.34 196.08 66.68 197.093 66.68C197.68 66.68 198.193 66.62 198.633 66.5C199.087 66.38 199.5 66.2333 199.873 66.06V67.62C199.513 67.8067 199.113 67.9467 198.673 68.04C198.247 68.1467 197.727 68.2 197.113 68.2ZM206.483 57.1C207.789 57.1 208.756 57.3867 209.383 57.96C210.009 58.5333 210.323 59.4467 210.323 60.7V68H209.043L208.703 66.48H208.623C208.156 67.0667 207.663 67.5 207.143 67.78C206.636 68.06 205.929 68.2 205.023 68.2C204.049 68.2 203.243 67.9467 202.603 67.44C201.963 66.92 201.643 66.1133 201.643 65.02C201.643 63.9533 202.063 63.1333 202.903 62.56C203.743 61.9733 205.036 61.6533 206.783 61.6L208.603 61.54V60.9C208.603 60.0067 208.409 59.3867 208.023 59.04C207.636 58.6933 207.089 58.52 206.383 58.52C205.823 58.52 205.289 58.6067 204.783 58.78C204.276 58.94 203.803 59.1267 203.363 59.34L202.823 58.02C203.289 57.7667 203.843 57.5533 204.483 57.38C205.123 57.1933 205.789 57.1 206.483 57.1ZM207.003 62.82C205.669 62.8733 204.743 63.0867 204.223 63.46C203.716 63.8333 203.463 64.36 203.463 65.04C203.463 65.64 203.643 66.08 204.003 66.36C204.376 66.64 204.849 66.78 205.423 66.78C206.329 66.78 207.083 66.5333 207.683 66.04C208.283 65.5333 208.583 64.76 208.583 63.72V62.76L207.003 62.82ZM217.214 66.76C217.48 66.76 217.754 66.74 218.034 66.7C218.314 66.6467 218.54 66.5933 218.714 66.54V67.88C218.527 67.9733 218.26 68.0467 217.914 68.1C217.567 68.1667 217.234 68.2 216.914 68.2C216.354 68.2 215.834 68.1067 215.354 67.92C214.887 67.72 214.507 67.38 214.214 66.9C213.92 66.42 213.774 65.7467 213.774 64.88V58.64H212.254V57.8L213.794 57.1L214.494 54.82H215.534V57.28H218.634V58.64H215.534V64.84C215.534 65.4933 215.687 65.98 215.994 66.3C216.314 66.6067 216.72 66.76 217.214 66.76ZM221.76 53.26C222.027 53.26 222.26 53.3533 222.46 53.54C222.673 53.7133 222.78 53.9933 222.78 54.38C222.78 54.7533 222.673 55.0333 222.46 55.22C222.26 55.4067 222.027 55.5 221.76 55.5C221.467 55.5 221.22 55.4067 221.02 55.22C220.82 55.0333 220.72 54.7533 220.72 54.38C220.72 53.9933 220.82 53.7133 221.02 53.54C221.22 53.3533 221.467 53.26 221.76 53.26ZM222.62 57.28V68H220.86V57.28H222.62ZM235.336 62.62C235.336 64.3933 234.883 65.7667 233.976 66.74C233.083 67.7133 231.87 68.2 230.336 68.2C229.39 68.2 228.543 67.9867 227.796 67.56C227.063 67.12 226.483 66.4867 226.056 65.66C225.63 64.82 225.416 63.8067 225.416 62.62C225.416 60.8467 225.863 59.48 226.756 58.52C227.65 57.56 228.863 57.08 230.396 57.08C231.37 57.08 232.223 57.3 232.956 57.74C233.703 58.1667 234.283 58.7933 234.696 59.62C235.123 60.4333 235.336 61.4333 235.336 62.62ZM227.236 62.62C227.236 63.8867 227.483 64.8933 227.976 65.64C228.483 66.3733 229.283 66.74 230.376 66.74C231.456 66.74 232.25 66.3733 232.756 65.64C233.263 64.8933 233.516 63.8867 233.516 62.62C233.516 61.3533 233.263 60.36 232.756 59.64C232.25 58.92 231.45 58.56 230.356 58.56C229.263 58.56 228.47 58.92 227.976 59.64C227.483 60.36 227.236 61.3533 227.236 62.62ZM243.286 57.08C244.566 57.08 245.532 57.3933 246.186 58.02C246.839 58.6333 247.166 59.6333 247.166 61.02V68H245.426V61.14C245.426 59.42 244.626 58.56 243.026 58.56C241.839 58.56 241.019 58.8933 240.566 59.56C240.112 60.2267 239.886 61.1867 239.886 62.44V68H238.126V57.28H239.546L239.806 58.74H239.906C240.252 58.18 240.732 57.7667 241.346 57.5C241.959 57.22 242.606 57.08 243.286 57.08ZM255.424 58.36C255.424 57.8533 255.544 57.5 255.784 57.3C256.024 57.1 256.311 57 256.644 57C256.991 57 257.284 57.1 257.524 57.3C257.778 57.5 257.904 57.8533 257.904 58.36C257.904 58.84 257.778 59.1867 257.524 59.4C257.284 59.6133 256.991 59.72 256.644 59.72C256.311 59.72 256.024 59.6133 255.784 59.4C255.544 59.1867 255.424 58.84 255.424 58.36ZM255.424 66.92C255.424 66.4267 255.544 66.08 255.784 65.88C256.024 65.68 256.311 65.58 256.644 65.58C256.991 65.58 257.284 65.68 257.524 65.88C257.778 66.08 257.904 66.4267 257.904 66.92C257.904 67.4 257.778 67.7467 257.524 67.96C257.284 68.1733 256.991 68.28 256.644 68.28C256.311 68.28 256.024 68.1733 255.784 67.96C255.544 67.7467 255.424 67.4 255.424 66.92Z" fill="#333333"/>
<path d="M278.9 68H269.46V66.54L273.2 62.76C273.92 62.04 274.527 61.4 275.02 60.84C275.513 60.28 275.887 59.7333 276.14 59.2C276.393 58.6533 276.52 58.06 276.52 57.42C276.52 56.6333 276.287 56.04 275.82 55.64C275.353 55.2267 274.747 55.02 274 55.02C273.307 55.02 272.693 55.14 272.16 55.38C271.64 55.62 271.107 55.9533 270.56 56.38L269.62 55.2C270.18 54.7333 270.82 54.34 271.54 54.02C272.273 53.6867 273.093 53.52 274 53.52C275.333 53.52 276.387 53.86 277.16 54.54C277.933 55.2067 278.32 56.1333 278.32 57.32C278.32 58.0667 278.167 58.7667 277.86 59.42C277.553 60.0733 277.127 60.72 276.58 61.36C276.033 61.9867 275.393 62.66 274.66 63.38L271.68 66.32V66.4H278.9V68ZM290.405 60.84C290.405 62.3733 290.245 63.6933 289.925 64.8C289.605 65.8933 289.099 66.7333 288.405 67.32C287.712 67.9067 286.792 68.2 285.645 68.2C284.032 68.2 282.839 67.5533 282.065 66.26C281.305 64.9533 280.925 63.1467 280.925 60.84C280.925 59.2933 281.079 57.9733 281.385 56.88C281.705 55.7867 282.212 54.9533 282.905 54.38C283.599 53.7933 284.512 53.5 285.645 53.5C287.245 53.5 288.439 54.1467 289.225 55.44C290.012 56.72 290.405 58.52 290.405 60.84ZM282.685 60.84C282.685 62.8 282.905 64.2667 283.345 65.24C283.799 66.2133 284.565 66.7 285.645 66.7C286.712 66.7 287.472 66.22 287.925 65.26C288.392 64.2867 288.625 62.8133 288.625 60.84C288.625 58.8933 288.392 57.4333 287.925 56.46C287.472 55.4867 286.712 55 285.645 55C284.565 55 283.799 55.4867 283.345 56.46C282.905 57.4333 282.685 58.8933 282.685 60.84ZM301.791 68H292.351V66.54L296.091 62.76C296.811 62.04 297.417 61.4 297.911 60.84C298.404 60.28 298.777 59.7333 299.031 59.2C299.284 58.6533 299.411 58.06 299.411 57.42C299.411 56.6333 299.177 56.04 298.711 55.64C298.244 55.2267 297.637 55.02 296.891 55.02C296.197 55.02 295.584 55.14 295.051 55.38C294.531 55.62 293.997 55.9533 293.451 56.38L292.511 55.2C293.071 54.7333 293.711 54.34 294.431 54.02C295.164 53.6867 295.984 53.52 296.891 53.52C298.224 53.52 299.277 53.86 300.051 54.54C300.824 55.2067 301.211 56.1333 301.211 57.32C301.211 58.0667 301.057 58.7667 300.751 59.42C300.444 60.0733 300.017 60.72 299.471 61.36C298.924 61.9867 298.284 62.66 297.551 63.38L294.571 66.32V66.4H301.791V68ZM312.696 57.06C312.696 58.02 312.429 58.7867 311.896 59.36C311.363 59.92 310.643 60.2933 309.736 60.48V60.56C310.883 60.6933 311.736 61.0533 312.296 61.64C312.856 62.2267 313.136 62.9933 313.136 63.94C313.136 64.7667 312.943 65.5067 312.556 66.16C312.169 66.8 311.569 67.3 310.756 67.66C309.956 68.02 308.923 68.2 307.656 68.2C306.909 68.2 306.216 68.14 305.576 68.02C304.936 67.9133 304.323 67.7133 303.736 67.42V65.78C304.336 66.0733 304.983 66.3067 305.676 66.48C306.369 66.64 307.036 66.72 307.676 66.72C308.956 66.72 309.876 66.4733 310.436 65.98C311.009 65.4733 311.296 64.78 311.296 63.9C311.296 63.0067 310.943 62.3667 310.236 61.98C309.543 61.58 308.563 61.38 307.296 61.38H305.916V59.88H307.316C308.489 59.88 309.376 59.6333 309.976 59.14C310.589 58.6467 310.896 57.9933 310.896 57.18C310.896 56.4867 310.663 55.9533 310.196 55.58C309.729 55.1933 309.096 55 308.296 55C307.523 55 306.863 55.1133 306.316 55.34C305.769 55.5667 305.229 55.8533 304.696 56.2L303.816 55C304.323 54.6 304.949 54.2533 305.696 53.96C306.456 53.6667 307.316 53.52 308.276 53.52C309.769 53.52 310.876 53.8533 311.596 54.52C312.329 55.1867 312.696 56.0333 312.696 57.06ZM315.081 63.42V61.86H319.921V63.42H315.081ZM331.187 60.84C331.187 62.3733 331.027 63.6933 330.707 64.8C330.387 65.8933 329.88 66.7333 329.187 67.32C328.493 67.9067 327.573 68.2 326.427 68.2C324.813 68.2 323.62 67.5533 322.847 66.26C322.087 64.9533 321.707 63.1467 321.707 60.84C321.707 59.2933 321.86 57.9733 322.167 56.88C322.487 55.7867 322.993 54.9533 323.687 54.38C324.38 53.7933 325.293 53.5 326.427 53.5C328.027 53.5 329.22 54.1467 330.007 55.44C330.793 56.72 331.187 58.52 331.187 60.84ZM323.467 60.84C323.467 62.8 323.687 64.2667 324.127 65.24C324.58 66.2133 325.347 66.7 326.427 66.7C327.493 66.7 328.253 66.22 328.707 65.26C329.173 64.2867 329.407 62.8133 329.407 60.84C329.407 58.8933 329.173 57.4333 328.707 56.46C328.253 55.4867 327.493 55 326.427 55C325.347 55 324.58 55.4867 324.127 56.46C323.687 57.4333 323.467 58.8933 323.467 60.84ZM337.872 53.52C339.125 53.52 340.152 53.8133 340.952 54.4C341.752 54.9867 342.152 55.8333 342.152 56.94C342.152 57.5133 342.025 58.0133 341.772 58.44C341.532 58.8667 341.205 59.2467 340.792 59.58C340.379 59.9 339.925 60.1867 339.432 60.44C340.019 60.72 340.552 61.04 341.032 61.4C341.512 61.7467 341.892 62.1533 342.172 62.62C342.465 63.0867 342.612 63.6467 342.612 64.3C342.612 65.5 342.185 66.4533 341.332 67.16C340.492 67.8533 339.359 68.2 337.932 68.2C336.399 68.2 335.219 67.8667 334.392 67.2C333.565 66.52 333.152 65.5733 333.152 64.36C333.152 63.7067 333.285 63.14 333.552 62.66C333.832 62.18 334.199 61.7667 334.652 61.42C335.105 61.0733 335.592 60.78 336.112 60.54C335.419 60.14 334.825 59.66 334.332 59.1C333.852 58.5267 333.612 57.8 333.612 56.92C333.612 56.1867 333.799 55.5733 334.172 55.08C334.545 54.5733 335.052 54.1867 335.692 53.92C336.332 53.6533 337.059 53.52 337.872 53.52ZM337.852 54.94C337.119 54.94 336.512 55.12 336.032 55.48C335.565 55.8267 335.332 56.3333 335.332 57C335.332 57.4933 335.445 57.9067 335.672 58.24C335.912 58.5733 336.232 58.86 336.632 59.1C337.032 59.3267 337.472 59.5467 337.952 59.76C338.645 59.4667 339.225 59.1133 339.692 58.7C340.172 58.2867 340.412 57.72 340.412 57C340.412 56.3333 340.179 55.8267 339.712 55.48C339.245 55.12 338.625 54.94 337.852 54.94ZM334.872 64.38C334.872 65.0733 335.119 65.6533 335.612 66.12C336.105 66.5733 336.865 66.8 337.892 66.8C338.865 66.8 339.605 66.5733 340.112 66.12C340.632 65.6533 340.892 65.0533 340.892 64.32C340.892 63.6267 340.619 63.0533 340.072 62.6C339.525 62.1333 338.799 61.7267 337.892 61.38L337.572 61.26C336.692 61.6333 336.019 62.0667 335.552 62.56C335.099 63.04 334.872 63.6467 334.872 64.38ZM344.417 63.42V61.86H349.257V63.42H344.417ZM360.463 68H351.023V66.54L354.763 62.76C355.483 62.04 356.089 61.4 356.583 60.84C357.076 60.28 357.449 59.7333 357.703 59.2C357.956 58.6533 358.083 58.06 358.083 57.42C358.083 56.6333 357.849 56.04 357.383 55.64C356.916 55.2267 356.309 55.02 355.563 55.02C354.869 55.02 354.256 55.14 353.723 55.38C353.203 55.62 352.669 55.9533 352.123 56.38L351.183 55.2C351.743 54.7333 352.383 54.34 353.103 54.02C353.836 53.6867 354.656 53.52 355.563 53.52C356.896 53.52 357.949 53.86 358.723 54.54C359.496 55.2067 359.883 56.1333 359.883 57.32C359.883 58.0667 359.729 58.7667 359.423 59.42C359.116 60.0733 358.689 60.72 358.143 61.36C357.596 61.9867 356.956 62.66 356.223 63.38L353.243 66.32V66.4H360.463V68ZM371.908 68H362.468V66.54L366.208 62.76C366.928 62.04 367.534 61.4 368.028 60.84C368.521 60.28 368.894 59.7333 369.148 59.2C369.401 58.6533 369.528 58.06 369.528 57.42C369.528 56.6333 369.294 56.04 368.828 55.64C368.361 55.2267 367.754 55.02 367.008 55.02C366.314 55.02 365.701 55.14 365.168 55.38C364.648 55.62 364.114 55.9533 363.568 56.38L362.628 55.2C363.188 54.7333 363.828 54.34 364.548 54.02C365.281 53.6867 366.101 53.52 367.008 53.52C368.341 53.52 369.394 53.86 370.168 54.54C370.941 55.2067 371.328 56.1333 371.328 57.32C371.328 58.0667 371.174 58.7667 370.868 59.42C370.561 60.0733 370.134 60.72 369.588 61.36C369.041 61.9867 368.401 62.66 367.668 63.38L364.688 66.32V66.4H371.908V68Z" fill="#333333"/>
</g>
<g clip-path="url(#clip1_207_2690)">
<rect x="253.5" width="1" height="48" fill="#C54600"/>
<g clip-path="url(#clip2_207_2690)">
<rect x="241.5" width="24" height="24" rx="12" fill="#C54600"/>
<path d="M250.771 16V15.233L253.651 12.0795C253.989 11.7102 254.268 11.3892 254.487 11.1165C254.705 10.8409 254.867 10.5824 254.972 10.3409C255.08 10.0966 255.134 9.84091 255.134 9.57386C255.134 9.26705 255.06 9.00142 254.913 8.77699C254.768 8.55256 254.569 8.37926 254.316 8.2571C254.063 8.13494 253.779 8.07386 253.464 8.07386C253.129 8.07386 252.836 8.14347 252.586 8.28267C252.339 8.41903 252.147 8.6108 252.011 8.85795C251.877 9.10511 251.81 9.39489 251.81 9.72727H250.805C250.805 9.21591 250.923 8.76705 251.158 8.38068C251.394 7.99432 251.715 7.69318 252.121 7.47727C252.531 7.26136 252.989 7.15341 253.498 7.15341C254.009 7.15341 254.462 7.26136 254.857 7.47727C255.252 7.69318 255.562 7.98437 255.786 8.35085C256.011 8.71733 256.123 9.125 256.123 9.57386C256.123 9.89489 256.065 10.2088 255.948 10.5156C255.835 10.8196 255.636 11.1591 255.352 11.5341C255.07 11.9062 254.68 12.3608 254.18 12.8977L252.219 14.9943V15.0625H256.276V16H250.771Z" fill="white"/>
</g>
</g>
<g clip-path="url(#clip3_207_2690)">
<rect y="60" width="48" height="1" fill="#C54600"/>
<g clip-path="url(#clip4_207_2690)">
<rect y="48" width="24" height="24" rx="12" fill="#C54600"/>
<path d="M13.1825 55.2727V64H12.1257V56.3807H12.0746L9.94389 57.7955V56.7216L12.1257 55.2727H13.1825Z" fill="white"/>
</g>
</g>
<defs>
<clipPath id="clip0_207_2690">
<rect width="321" height="24" fill="white" transform="translate(52.5 48)"/>
</clipPath>
<clipPath id="clip1_207_2690">
<rect width="24" height="48" fill="white" transform="translate(241.5)"/>
</clipPath>
<clipPath id="clip2_207_2690">
<rect x="241.5" width="24" height="24" rx="12" fill="white"/>
</clipPath>
<clipPath id="clip3_207_2690">
<rect width="48" height="24" fill="white" transform="translate(0 48)"/>
</clipPath>
<clipPath id="clip4_207_2690">
<rect y="48" width="24" height="24" rx="12" fill="white"/>
</clipPath>
</defs>
</svg>
