<svg width="365" height="85" viewBox="0 0 365 85" fill="none" xmlns="http://www.w3.org/2000/svg">
<path fill-rule="evenodd" clip-rule="evenodd" d="M18 81C25.732 81 32 74.732 32 67C32 59.268 25.732 53 18 53C10.268 53 4 59.268 4 67C4 74.732 10.268 81 18 81ZM16.5999 74H19.3999L19.3999 65.6H16.5999L16.5999 74ZM19.3999 62.8H16.5999V60L19.3999 60V62.8Z" fill="black"/>
<path d="M64.5272 59.9171H57.9206V78H55.1726V59.9171H48.5517V57.5962H64.5272V59.9171ZM73.1344 69.2148C73.1344 68.6263 73.049 68.09 72.8781 67.6059C72.7168 67.1123 72.4747 66.6899 72.152 66.3387C71.8387 65.978 71.4543 65.7027 70.9986 65.5128C70.543 65.3135 70.0257 65.2138 69.4467 65.2138C68.2316 65.2138 67.2682 65.5698 66.5562 66.2817C65.8538 66.9841 65.4172 67.9619 65.2463 69.2148H73.1344ZM75.1848 75.9781C74.8715 76.3578 74.4966 76.6901 74.0599 76.9748C73.6233 77.2501 73.1534 77.4779 72.6503 77.6583C72.1567 77.8386 71.6441 77.9715 71.1126 78.057C70.581 78.1519 70.0542 78.1993 69.5321 78.1993C68.5354 78.1993 67.6146 78.0332 66.7698 77.701C65.9345 77.3593 65.2083 76.8657 64.5913 76.2202C63.9838 75.5652 63.5092 74.7584 63.1675 73.7996C62.8257 72.8409 62.6549 71.7398 62.6549 70.4963C62.6549 69.4901 62.8068 68.5504 63.1105 67.6771C63.4238 66.8038 63.8699 66.0492 64.4489 65.4132C65.028 64.7677 65.7351 64.2646 66.5705 63.9039C67.4058 63.5337 68.3455 63.3486 69.3897 63.3486C70.2535 63.3486 71.0509 63.4957 71.7818 63.79C72.5222 64.0747 73.1582 64.4924 73.6897 65.043C74.2308 65.584 74.6532 66.258 74.9569 67.0648C75.2607 67.8622 75.4126 68.7735 75.4126 69.7986C75.4126 70.1973 75.3699 70.4631 75.2844 70.596C75.199 70.7289 75.0376 70.7953 74.8003 70.7953H65.1609C65.1893 71.7066 65.3127 72.4992 65.5311 73.1731C65.7589 73.8471 66.0721 74.4119 66.4708 74.8675C66.8695 75.3137 67.3441 75.6506 67.8947 75.8785C68.4452 76.0968 69.0622 76.2059 69.7457 76.2059C70.3816 76.2059 70.9275 76.1348 71.3831 75.9924C71.8482 75.8405 72.2469 75.6791 72.5791 75.5083C72.9114 75.3374 73.1866 75.1808 73.405 75.0384C73.6328 74.8865 73.8274 74.8106 73.9887 74.8106C74.1976 74.8106 74.3589 74.8913 74.4728 75.0526L75.1848 75.9781ZM90.1775 78H87.7427C87.5338 78 87.3677 77.9478 87.2443 77.8434C87.1304 77.7295 87.0355 77.6061 86.9596 77.4732L83.3287 71.8205C83.2908 71.9534 83.2481 72.0863 83.2006 72.2192C83.1626 72.3426 83.1057 72.4565 83.0297 72.5609L79.6694 77.4732C79.5745 77.6061 79.4701 77.7295 79.3562 77.8434C79.2518 77.9478 79.1047 78 78.9148 78H76.6509L81.7056 70.596L76.8502 63.5764H79.285C79.4938 63.5764 79.6457 63.6096 79.7406 63.6761C79.8356 63.7425 79.921 63.8374 79.9969 63.9608L83.5423 69.3715C83.6183 69.0962 83.7369 68.8304 83.8983 68.5741L87.0023 64.0178C87.0877 63.8849 87.1779 63.7805 87.2728 63.7045C87.3772 63.6191 87.5006 63.5764 87.643 63.5764H89.9781L85.1228 70.4678L90.1775 78ZM96.9421 78.2278C95.803 78.2278 94.925 77.9098 94.308 77.2738C93.7004 76.6379 93.3967 75.7218 93.3967 74.5258V65.6979H91.6596C91.5077 65.6979 91.3796 65.6552 91.2752 65.5698C91.1707 65.4749 91.1185 65.3325 91.1185 65.1426V64.1317L93.4821 63.8327L94.0659 59.376C94.0944 59.2337 94.1561 59.1197 94.251 59.0343C94.3554 58.9394 94.4883 58.8919 94.6497 58.8919H95.9311V63.8612H100.103V65.6979H95.9311V74.3549C95.9311 74.9625 96.0783 75.4133 96.3725 75.7076C96.6668 76.0019 97.0465 76.149 97.5116 76.149C97.7774 76.149 98.0052 76.1158 98.1951 76.0493C98.3944 75.9734 98.5653 75.8927 98.7077 75.8073C98.85 75.7218 98.9687 75.6459 99.0636 75.5795C99.168 75.5035 99.2582 75.4655 99.3341 75.4655C99.467 75.4655 99.5857 75.5462 99.6901 75.7076L100.431 76.9179C99.9939 77.326 99.467 77.6488 98.85 77.8861C98.233 78.1139 97.5971 78.2278 96.9421 78.2278ZM112.29 69.2148C112.29 68.6263 112.205 68.09 112.034 67.6059C111.873 67.1123 111.631 66.6899 111.308 66.3387C110.995 65.978 110.61 65.7027 110.155 65.5128C109.699 65.3135 109.182 65.2138 108.603 65.2138C107.388 65.2138 106.424 65.5698 105.712 66.2817C105.01 66.9841 104.573 67.9619 104.402 69.2148H112.29ZM114.341 75.9781C114.027 76.3578 113.652 76.6901 113.216 76.9748C112.779 77.2501 112.309 77.4779 111.806 77.6583C111.313 77.8386 110.8 77.9715 110.268 78.057C109.737 78.1519 109.21 78.1993 108.688 78.1993C107.691 78.1993 106.771 78.0332 105.926 77.701C105.09 77.3593 104.364 76.8657 103.747 76.2202C103.14 75.5652 102.665 74.7584 102.323 73.7996C101.982 72.8409 101.811 71.7398 101.811 70.4963C101.811 69.4901 101.963 68.5504 102.266 67.6771C102.58 66.8038 103.026 66.0492 103.605 65.4132C104.184 64.7677 104.891 64.2646 105.726 63.9039C106.562 63.5337 107.501 63.3486 108.546 63.3486C109.409 63.3486 110.207 63.4957 110.938 63.79C111.678 64.0747 112.314 64.4924 112.846 65.043C113.387 65.584 113.809 66.258 114.113 67.0648C114.417 67.8622 114.568 68.7735 114.568 69.7986C114.568 70.1973 114.526 70.4631 114.44 70.596C114.355 70.7289 114.194 70.7953 113.956 70.7953H104.317C104.345 71.7066 104.469 72.4992 104.687 73.1731C104.915 73.8471 105.228 74.4119 105.627 74.8675C106.025 75.3137 106.5 75.6506 107.051 75.8785C107.601 76.0968 108.218 76.2059 108.902 76.2059C109.538 76.2059 110.083 76.1348 110.539 75.9924C111.004 75.8405 111.403 75.6791 111.735 75.5083C112.067 75.3374 112.343 75.1808 112.561 75.0384C112.789 74.8865 112.983 74.8106 113.145 74.8106C113.353 74.8106 113.515 74.8913 113.629 75.0526L114.341 75.9781ZM134.365 67.0079C133.89 66.3719 133.378 65.9305 132.827 65.6837C132.277 65.4274 131.66 65.2993 130.976 65.2993C129.638 65.2993 128.608 65.7786 127.887 66.7373C127.165 67.6961 126.804 69.063 126.804 70.838C126.804 71.7778 126.885 72.5846 127.047 73.2586C127.208 73.923 127.445 74.4736 127.758 74.9102C128.072 75.3374 128.456 75.6506 128.912 75.85C129.367 76.0493 129.885 76.149 130.464 76.149C131.299 76.149 132.025 75.9591 132.642 75.5795C133.269 75.1998 133.843 74.6634 134.365 73.9705V67.0079ZM136.9 57.0267V78H135.39C135.03 78 134.802 77.8244 134.707 77.4732L134.479 75.7218C133.862 76.4622 133.16 77.0603 132.372 77.5159C131.584 77.9715 130.673 78.1993 129.638 78.1993C128.812 78.1993 128.062 78.0427 127.388 77.7295C126.714 77.4067 126.14 76.9369 125.665 76.3199C125.191 75.7029 124.825 74.934 124.569 74.0132C124.313 73.0925 124.185 72.0341 124.185 70.838C124.185 69.7749 124.327 68.7877 124.612 67.8764C124.896 66.9557 125.305 66.1583 125.836 65.4844C126.368 64.8104 127.018 64.2836 127.787 63.9039C128.565 63.5147 129.439 63.3201 130.407 63.3201C131.29 63.3201 132.044 63.472 132.671 63.7757C133.307 64.07 133.871 64.4829 134.365 65.0145V57.0267H136.9ZM142.654 56.2293C143.053 56.9033 143.323 57.6152 143.465 58.3651C143.608 59.115 143.622 59.8554 143.508 60.5863C143.394 61.3172 143.157 62.0197 142.796 62.6936C142.436 63.3676 141.956 63.9656 141.358 64.4877L140.589 63.9893C140.447 63.9039 140.38 63.7947 140.39 63.6618C140.409 63.5194 140.456 63.4055 140.532 63.3201C140.779 63.0164 140.988 62.6509 141.159 62.2237C141.339 61.7871 141.453 61.322 141.501 60.8284C141.558 60.3253 141.534 59.8079 141.429 59.2764C141.334 58.7448 141.14 58.2322 140.846 57.7386C140.722 57.5393 140.684 57.3637 140.732 57.2118C140.789 57.0504 140.907 56.9318 141.088 56.8558L142.654 56.2293ZM154.087 71.5072C152.919 71.5452 151.922 71.6401 151.097 71.792C150.28 71.9344 149.611 72.1242 149.089 72.3616C148.576 72.5989 148.201 72.8789 147.964 73.2016C147.736 73.5244 147.622 73.8851 147.622 74.2838C147.622 74.6634 147.684 74.9909 147.808 75.2662C147.931 75.5415 148.097 75.7693 148.306 75.9497C148.524 76.1205 148.776 76.2487 149.061 76.3341C149.355 76.41 149.668 76.448 150 76.448C150.446 76.448 150.855 76.4053 151.225 76.3199C151.595 76.2249 151.941 76.092 152.264 75.9212C152.596 75.7503 152.91 75.5462 153.204 75.3089C153.508 75.0716 153.802 74.8011 154.087 74.4973V71.5072ZM145.9 65.6125C146.697 64.8436 147.556 64.2693 148.477 63.8896C149.398 63.51 150.418 63.3201 151.538 63.3201C152.345 63.3201 153.062 63.453 153.688 63.7188C154.315 63.9846 154.841 64.3548 155.269 64.8294C155.696 65.304 156.018 65.8783 156.237 66.5522C156.455 67.2262 156.564 67.9666 156.564 68.7735V78H155.439C155.193 78 155.003 77.962 154.87 77.8861C154.737 77.8007 154.633 77.6393 154.557 77.402L154.272 76.0351C153.892 76.3863 153.522 76.6996 153.161 76.9748C152.801 77.2406 152.421 77.4684 152.022 77.6583C151.623 77.8386 151.196 77.9763 150.741 78.0712C150.295 78.1756 149.796 78.2278 149.246 78.2278C148.686 78.2278 148.159 78.1519 147.665 78C147.172 77.8386 146.74 77.6013 146.369 77.2881C146.009 76.9748 145.719 76.5809 145.501 76.1063C145.292 75.6222 145.188 75.0526 145.188 74.3977C145.188 73.8281 145.344 73.2823 145.658 72.7602C145.971 72.2287 146.479 71.7588 147.181 71.3506C147.884 70.9424 148.8 70.6102 149.929 70.3539C151.059 70.0881 152.445 69.9363 154.087 69.8983V68.7735C154.087 67.6534 153.845 66.8085 153.361 66.239C152.876 65.66 152.169 65.3705 151.239 65.3705C150.613 65.3705 150.086 65.4511 149.659 65.6125C149.241 65.7644 148.875 65.94 148.562 66.1393C148.258 66.3292 147.993 66.5048 147.765 66.6662C147.547 66.818 147.328 66.894 147.11 66.894C146.939 66.894 146.792 66.8513 146.668 66.7658C146.545 66.6709 146.441 66.557 146.355 66.4241L145.9 65.6125ZM170.463 66.1393C170.387 66.2437 170.311 66.3244 170.235 66.3814C170.159 66.4383 170.055 66.4668 169.922 66.4668C169.78 66.4668 169.623 66.4099 169.452 66.296C169.281 66.1726 169.068 66.0397 168.811 65.8973C168.565 65.7549 168.256 65.6267 167.886 65.5128C167.525 65.3894 167.079 65.3277 166.547 65.3277C165.836 65.3277 165.209 65.4559 164.668 65.7122C164.127 65.959 163.671 66.3197 163.301 66.7943C162.94 67.2689 162.665 67.8432 162.475 68.5172C162.295 69.1911 162.205 69.9458 162.205 70.7811C162.205 71.6544 162.304 72.4327 162.504 73.1162C162.703 73.7902 162.983 74.3597 163.344 74.8248C163.714 75.2804 164.155 75.6317 164.668 75.8785C165.19 76.1158 165.774 76.2344 166.419 76.2344C167.036 76.2344 167.544 76.1632 167.943 76.0208C168.341 75.869 168.669 75.7029 168.925 75.5225C169.191 75.3421 169.409 75.1808 169.58 75.0384C169.761 74.8865 169.936 74.8106 170.107 74.8106C170.316 74.8106 170.477 74.8913 170.591 75.0526L171.303 75.9781C170.99 76.3673 170.634 76.6996 170.235 76.9748C169.837 77.2501 169.405 77.4827 168.94 77.6725C168.484 77.8529 168.005 77.9858 167.501 78.0712C166.998 78.1566 166.486 78.1993 165.964 78.1993C165.062 78.1993 164.222 78.0332 163.443 77.701C162.675 77.3688 162.005 76.8894 161.436 76.2629C160.866 75.6269 160.42 74.8485 160.097 73.9278C159.775 73.007 159.613 71.9581 159.613 70.7811C159.613 69.7084 159.76 68.7165 160.055 67.8052C160.358 66.894 160.795 66.1109 161.365 65.4559C161.944 64.7914 162.651 64.2741 163.486 63.9039C164.331 63.5337 165.299 63.3486 166.391 63.3486C167.406 63.3486 168.299 63.5147 169.068 63.8469C169.846 64.1697 170.534 64.63 171.132 65.2281L170.463 66.1393ZM183.812 66.1393C183.736 66.2437 183.66 66.3244 183.584 66.3814C183.508 66.4383 183.403 66.4668 183.271 66.4668C183.128 66.4668 182.972 66.4099 182.801 66.296C182.63 66.1726 182.416 66.0397 182.16 65.8973C181.913 65.7549 181.605 65.6267 181.234 65.5128C180.874 65.3894 180.428 65.3277 179.896 65.3277C179.184 65.3277 178.558 65.4559 178.017 65.7122C177.475 65.959 177.02 66.3197 176.65 66.7943C176.289 67.2689 176.014 67.8432 175.824 68.5172C175.643 69.1911 175.553 69.9458 175.553 70.7811C175.553 71.6544 175.653 72.4327 175.852 73.1162C176.052 73.7902 176.332 74.3597 176.692 74.8248C177.063 75.2804 177.504 75.6317 178.017 75.8785C178.539 76.1158 179.122 76.2344 179.768 76.2344C180.385 76.2344 180.893 76.1632 181.291 76.0208C181.69 75.869 182.018 75.7029 182.274 75.5225C182.54 75.3421 182.758 75.1808 182.929 75.0384C183.109 74.8865 183.285 74.8106 183.456 74.8106C183.664 74.8106 183.826 74.8913 183.94 75.0526L184.652 75.9781C184.338 76.3673 183.982 76.6996 183.584 76.9748C183.185 77.2501 182.753 77.4827 182.288 77.6725C181.832 77.8529 181.353 77.9858 180.85 78.0712C180.347 78.1566 179.834 78.1993 179.312 78.1993C178.41 78.1993 177.57 78.0332 176.792 77.701C176.023 77.3688 175.354 76.8894 174.784 76.2629C174.215 75.6269 173.769 74.8485 173.446 73.9278C173.123 73.007 172.962 71.9581 172.962 70.7811C172.962 69.7084 173.109 68.7165 173.403 67.8052C173.707 66.894 174.144 66.1109 174.713 65.4559C175.292 64.7914 175.999 64.2741 176.835 63.9039C177.68 63.5337 178.648 63.3486 179.739 63.3486C180.755 63.3486 181.647 63.5147 182.416 63.8469C183.195 64.1697 183.883 64.63 184.481 65.2281L183.812 66.1393ZM193.202 63.3486C194.256 63.3486 195.205 63.5242 196.05 63.8754C196.894 64.2266 197.616 64.725 198.214 65.3705C198.812 66.0159 199.268 66.799 199.581 67.7198C199.903 68.6311 200.065 69.6515 200.065 70.7811C200.065 71.9202 199.903 72.9453 199.581 73.8566C199.268 74.7679 198.812 75.5462 198.214 76.1917C197.616 76.8372 196.894 77.3355 196.05 77.6868C195.205 78.0285 194.256 78.1993 193.202 78.1993C192.139 78.1993 191.18 78.0285 190.326 77.6868C189.481 77.3355 188.759 76.8372 188.161 76.1917C187.563 75.5462 187.103 74.7679 186.78 73.8566C186.467 72.9453 186.31 71.9202 186.31 70.7811C186.31 69.6515 186.467 68.6311 186.78 67.7198C187.103 66.799 187.563 66.0159 188.161 65.3705C188.759 64.725 189.481 64.2266 190.326 63.8754C191.18 63.5242 192.139 63.3486 193.202 63.3486ZM193.202 76.2202C194.626 76.2202 195.689 75.7456 196.391 74.7963C197.094 73.8376 197.445 72.5039 197.445 70.7953C197.445 69.0772 197.094 67.7388 196.391 66.7801C195.689 65.8213 194.626 65.342 193.202 65.342C192.48 65.342 191.849 65.4654 191.308 65.7122C190.777 65.959 190.33 66.3149 189.97 66.7801C189.619 67.2452 189.353 67.8195 189.172 68.5029C189.002 69.1769 188.916 69.941 188.916 70.7953C188.916 72.5039 189.267 73.8376 189.97 74.7963C190.682 75.7456 191.759 76.2202 193.202 76.2202ZM203.279 78V63.5764H204.803C205.164 63.5764 205.387 63.752 205.472 64.1032L205.657 65.584C206.189 64.9291 206.787 64.3927 207.451 63.9751C208.116 63.5574 208.885 63.3486 209.758 63.3486C210.726 63.3486 211.509 63.6191 212.107 64.1602C212.715 64.7012 213.151 65.4322 213.417 66.3529C213.626 65.8308 213.892 65.3799 214.215 65.0002C214.547 64.6206 214.917 64.3073 215.325 64.0605C215.733 63.8137 216.165 63.6334 216.621 63.5194C217.086 63.4055 217.556 63.3486 218.031 63.3486C218.79 63.3486 219.464 63.472 220.052 63.7188C220.65 63.9561 221.153 64.3073 221.562 64.7724C221.979 65.2376 222.297 65.8118 222.516 66.4953C222.734 67.1692 222.843 67.9429 222.843 68.8162V78H220.294V68.8162C220.294 67.6866 220.048 66.8323 219.554 66.2532C219.06 65.6647 218.349 65.3705 217.418 65.3705C217.001 65.3705 216.602 65.4464 216.222 65.5983C215.852 65.7407 215.525 65.9542 215.24 66.239C214.955 66.5238 214.727 66.8845 214.556 67.3211C214.395 67.7483 214.314 68.2466 214.314 68.8162V78H211.766V68.8162C211.766 67.6581 211.533 66.7943 211.068 66.2248C210.603 65.6552 209.924 65.3705 209.032 65.3705C208.405 65.3705 207.826 65.5413 207.295 65.883C206.763 66.2153 206.274 66.6709 205.828 67.2499V78H203.279ZM229.244 74.5258C229.709 75.1523 230.217 75.5937 230.767 75.85C231.318 76.1063 231.935 76.2344 232.618 76.2344C233.966 76.2344 235.001 75.7551 235.722 74.7963C236.444 73.8376 236.804 72.4707 236.804 70.6956C236.804 69.7559 236.719 68.9491 236.548 68.2751C236.387 67.6011 236.149 67.0506 235.836 66.6234C235.523 66.1868 235.139 65.8688 234.683 65.6695C234.227 65.4701 233.71 65.3705 233.131 65.3705C232.305 65.3705 231.579 65.5603 230.952 65.94C230.335 66.3197 229.766 66.856 229.244 67.5489V74.5258ZM229.116 65.8118C229.723 65.0619 230.426 64.4592 231.223 64.0036C232.02 63.5479 232.932 63.3201 233.957 63.3201C234.792 63.3201 235.547 63.4815 236.221 63.8042C236.895 64.1175 237.469 64.5873 237.943 65.2138C238.418 65.8308 238.784 66.5997 239.04 67.5205C239.296 68.4412 239.424 69.4996 239.424 70.6956C239.424 71.7588 239.282 72.7507 238.997 73.6715C238.712 74.5828 238.299 75.3754 237.758 76.0493C237.227 76.7138 236.572 77.2406 235.793 77.6298C235.025 78.0095 234.156 78.1993 233.188 78.1993C232.305 78.1993 231.546 78.0522 230.91 77.7579C230.283 77.4542 229.728 77.0365 229.244 76.505V82.8838H226.695V63.5764H228.219C228.579 63.5764 228.802 63.752 228.888 64.1032L229.116 65.8118ZM250.475 71.5072C249.307 71.5452 248.31 71.6401 247.485 71.792C246.668 71.9344 245.999 72.1242 245.477 72.3616C244.964 72.5989 244.589 72.8789 244.352 73.2016C244.124 73.5244 244.01 73.8851 244.01 74.2838C244.01 74.6634 244.072 74.9909 244.196 75.2662C244.319 75.5415 244.485 75.7693 244.694 75.9497C244.912 76.1205 245.164 76.2487 245.449 76.3341C245.743 76.41 246.056 76.448 246.388 76.448C246.834 76.448 247.243 76.4053 247.613 76.3199C247.983 76.2249 248.329 76.092 248.652 75.9212C248.984 75.7503 249.298 75.5462 249.592 75.3089C249.896 75.0716 250.19 74.8011 250.475 74.4973V71.5072ZM242.288 65.6125C243.085 64.8436 243.944 64.2693 244.865 63.8896C245.785 63.51 246.806 63.3201 247.926 63.3201C248.733 63.3201 249.45 63.453 250.076 63.7188C250.703 63.9846 251.229 64.3548 251.657 64.8294C252.084 65.304 252.406 65.8783 252.625 66.5522C252.843 67.2262 252.952 67.9666 252.952 68.7735V78H251.827C251.581 78 251.391 77.962 251.258 77.8861C251.125 77.8007 251.021 77.6393 250.945 77.402L250.66 76.0351C250.28 76.3863 249.91 76.6996 249.549 76.9748C249.189 77.2406 248.809 77.4684 248.41 77.6583C248.011 77.8386 247.584 77.9763 247.129 78.0712C246.683 78.1756 246.184 78.2278 245.634 78.2278C245.074 78.2278 244.547 78.1519 244.053 78C243.56 77.8386 243.128 77.6013 242.757 77.2881C242.397 76.9748 242.107 76.5809 241.889 76.1063C241.68 75.6222 241.576 75.0526 241.576 74.3977C241.576 73.8281 241.732 73.2823 242.046 72.7602C242.359 72.2287 242.867 71.7588 243.569 71.3506C244.271 70.9424 245.187 70.6102 246.317 70.3539C247.447 70.0881 248.833 69.9363 250.475 69.8983V68.7735C250.475 67.6534 250.233 66.8085 249.749 66.239C249.264 65.66 248.557 65.3705 247.627 65.3705C247.001 65.3705 246.474 65.4511 246.047 65.6125C245.629 65.7644 245.263 65.94 244.95 66.1393C244.646 66.3292 244.381 66.5048 244.153 66.6662C243.934 66.818 243.716 66.894 243.498 66.894C243.327 66.894 243.18 66.8513 243.056 66.7658C242.933 66.6709 242.829 66.557 242.743 66.4241L242.288 65.6125ZM261.839 70.9519C262.352 70.9519 262.803 70.8807 263.192 70.7384C263.581 70.596 263.908 70.3966 264.174 70.1403C264.44 69.8841 264.639 69.5803 264.772 69.2291C264.905 68.8684 264.972 68.4744 264.972 68.0473C264.972 67.1645 264.701 66.4621 264.16 65.94C263.628 65.4179 262.855 65.1569 261.839 65.1569C260.814 65.1569 260.031 65.4179 259.49 65.94C258.958 66.4621 258.692 67.1645 258.692 68.0473C258.692 68.4744 258.759 68.8684 258.892 69.2291C259.034 69.5803 259.238 69.8841 259.504 70.1403C259.77 70.3966 260.097 70.596 260.486 70.7384C260.876 70.8807 261.326 70.9519 261.839 70.9519ZM266.41 78.7831C266.41 78.4319 266.31 78.1471 266.111 77.9288C265.911 77.7105 265.641 77.5396 265.299 77.4162C264.967 77.2928 264.578 77.2074 264.131 77.1599C263.685 77.103 263.211 77.0603 262.708 77.0318C262.214 77.0033 261.711 76.9748 261.198 76.9464C260.686 76.9179 260.192 76.8704 259.718 76.804C259.186 77.0508 258.749 77.364 258.408 77.7437C258.075 78.1139 257.909 78.5506 257.909 79.0536C257.909 79.3764 257.99 79.6754 258.151 79.9507C258.322 80.2354 258.578 80.4775 258.92 80.6768C259.262 80.8857 259.689 81.047 260.202 81.1609C260.724 81.2843 261.336 81.346 262.038 81.346C262.722 81.346 263.334 81.2843 263.875 81.1609C264.416 81.0375 264.872 80.8619 265.242 80.6341C265.622 80.4063 265.911 80.1358 266.111 79.8225C266.31 79.5093 266.41 79.1628 266.41 78.7831ZM268.987 64.1459V65.0857C268.987 65.3989 268.787 65.5983 268.389 65.6837L266.751 65.8973C267.074 66.5238 267.235 67.2167 267.235 67.9761C267.235 68.6785 267.098 69.3193 266.823 69.8983C266.557 70.4678 266.187 70.9567 265.712 71.3649C265.237 71.773 264.668 72.0863 264.003 72.3046C263.339 72.5229 262.617 72.6321 261.839 72.6321C261.165 72.6321 260.529 72.5514 259.931 72.39C259.627 72.5799 259.395 72.784 259.233 73.0023C259.072 73.2111 258.991 73.4247 258.991 73.643C258.991 73.9847 259.129 74.2458 259.404 74.4261C259.689 74.597 260.059 74.7204 260.515 74.7963C260.97 74.8723 261.488 74.9197 262.067 74.9387C262.655 74.9577 263.253 74.9909 263.861 75.0384C264.478 75.0764 265.076 75.1476 265.655 75.252C266.243 75.3564 266.766 75.5272 267.221 75.7646C267.677 76.0019 268.042 76.3293 268.318 76.747C268.602 77.1647 268.745 77.7057 268.745 78.3702C268.745 78.9872 268.588 79.5852 268.275 80.1643C267.971 80.7433 267.53 81.2559 266.951 81.702C266.372 82.1576 265.66 82.5184 264.815 82.7841C263.98 83.0594 263.035 83.1971 261.981 83.1971C260.928 83.1971 260.007 83.0926 259.219 82.8838C258.431 82.675 257.776 82.395 257.254 82.0437C256.732 81.6925 256.338 81.2843 256.072 80.8192C255.816 80.3636 255.688 79.8842 255.688 79.3811C255.688 78.6692 255.911 78.0664 256.357 77.5728C256.803 77.0792 257.416 76.6853 258.194 76.391C257.767 76.2012 257.425 75.9497 257.169 75.6364C256.922 75.3137 256.799 74.8818 256.799 74.3407C256.799 74.1319 256.837 73.9183 256.913 73.7C256.988 73.4722 257.102 73.2491 257.254 73.0308C257.416 72.8029 257.61 72.5894 257.838 72.39C258.066 72.1907 258.332 72.0151 258.635 71.8632C257.923 71.4645 257.368 70.9377 256.969 70.2827C256.571 69.6183 256.371 68.8494 256.371 67.9761C256.371 67.2737 256.504 66.6377 256.77 66.0681C257.045 65.4891 257.425 65.0002 257.909 64.6016C258.393 64.1934 258.968 63.8802 259.632 63.6618C260.306 63.4435 261.042 63.3343 261.839 63.3343C262.466 63.3343 263.049 63.4055 263.59 63.5479C264.131 63.6808 264.625 63.8802 265.071 64.1459H268.987ZM274 65.6695C274.313 65.3182 274.645 65.0002 274.996 64.7155C275.348 64.4307 275.718 64.1887 276.107 63.9893C276.506 63.7805 276.923 63.6239 277.36 63.5194C277.806 63.4055 278.285 63.3486 278.798 63.3486C279.586 63.3486 280.279 63.4815 280.877 63.7473C281.484 64.0036 281.987 64.3738 282.386 64.8579C282.794 65.3325 283.103 65.9068 283.312 66.5807C283.52 67.2547 283.625 67.9998 283.625 68.8162V78H281.076V68.8162C281.076 67.7245 280.825 66.8797 280.322 66.2817C279.828 65.6742 279.073 65.3705 278.058 65.3705C277.308 65.3705 276.605 65.5508 275.95 65.9115C275.305 66.2722 274.707 66.7611 274.156 67.3781V78H271.608V63.5764H273.131C273.492 63.5764 273.715 63.752 273.8 64.1032L274 65.6695ZM297.141 69.2148C297.141 68.6263 297.055 68.09 296.884 67.6059C296.723 67.1123 296.481 66.6899 296.158 66.3387C295.845 65.978 295.46 65.7027 295.005 65.5128C294.549 65.3135 294.032 65.2138 293.453 65.2138C292.238 65.2138 291.274 65.5698 290.562 66.2817C289.86 66.9841 289.423 67.9619 289.252 69.2148H297.141ZM299.191 75.9781C298.878 76.3578 298.503 76.6901 298.066 76.9748C297.629 77.2501 297.159 77.4779 296.656 77.6583C296.163 77.8386 295.65 77.9715 295.119 78.057C294.587 78.1519 294.06 78.1993 293.538 78.1993C292.541 78.1993 291.621 78.0332 290.776 77.701C289.941 77.3593 289.214 76.8657 288.597 76.2202C287.99 75.5652 287.515 74.7584 287.174 73.7996C286.832 72.8409 286.661 71.7398 286.661 70.4963C286.661 69.4901 286.813 68.5504 287.117 67.6771C287.43 66.8038 287.876 66.0492 288.455 65.4132C289.034 64.7677 289.741 64.2646 290.577 63.9039C291.412 63.5337 292.352 63.3486 293.396 63.3486C294.26 63.3486 295.057 63.4957 295.788 63.79C296.528 64.0747 297.164 64.4924 297.696 65.043C298.237 65.584 298.659 66.258 298.963 67.0648C299.267 67.8622 299.419 68.7735 299.419 69.7986C299.419 70.1973 299.376 70.4631 299.291 70.596C299.205 70.7289 299.044 70.7953 298.806 70.7953H289.167C289.195 71.7066 289.319 72.4992 289.537 73.1731C289.765 73.8471 290.078 74.4119 290.477 74.8675C290.876 75.3137 291.35 75.6506 291.901 75.8785C292.451 76.0968 293.068 76.2059 293.752 76.2059C294.388 76.2059 294.934 76.1348 295.389 75.9924C295.854 75.8405 296.253 75.6791 296.585 75.5083C296.917 75.3374 297.193 75.1808 297.411 75.0384C297.639 74.8865 297.833 74.8106 297.995 74.8106C298.204 74.8106 298.365 74.8913 298.479 75.0526L299.191 75.9781ZM302.532 78V63.5764H304.055C304.416 63.5764 304.639 63.752 304.725 64.1032L304.91 65.584C305.441 64.9291 306.039 64.3927 306.704 63.9751C307.368 63.5574 308.137 63.3486 309.01 63.3486C309.979 63.3486 310.762 63.6191 311.36 64.1602C311.967 64.7012 312.404 65.4322 312.67 66.3529C312.878 65.8308 313.144 65.3799 313.467 65.0002C313.799 64.6206 314.169 64.3073 314.578 64.0605C314.986 63.8137 315.418 63.6334 315.873 63.5194C316.338 63.4055 316.808 63.3486 317.283 63.3486C318.042 63.3486 318.716 63.472 319.305 63.7188C319.903 63.9561 320.406 64.3073 320.814 64.7724C321.232 65.2376 321.55 65.8118 321.768 66.4953C321.986 67.1692 322.095 67.9429 322.095 68.8162V78H319.547V68.8162C319.547 67.6866 319.3 66.8323 318.806 66.2532C318.313 65.6647 317.601 65.3705 316.671 65.3705C316.253 65.3705 315.854 65.4464 315.475 65.5983C315.104 65.7407 314.777 65.9542 314.492 66.239C314.207 66.5238 313.98 66.8845 313.809 67.3211C313.647 67.7483 313.567 68.2466 313.567 68.8162V78H311.018V68.8162C311.018 67.6581 310.785 66.7943 310.32 66.2248C309.855 65.6552 309.176 65.3705 308.284 65.3705C307.658 65.3705 307.079 65.5413 306.547 65.883C306.015 66.2153 305.527 66.6709 305.08 67.2499V78H302.532ZM335.601 69.2148C335.601 68.6263 335.516 68.09 335.345 67.6059C335.183 67.1123 334.941 66.6899 334.619 66.3387C334.305 65.978 333.921 65.7027 333.465 65.5128C333.01 65.3135 332.492 65.2138 331.913 65.2138C330.698 65.2138 329.735 65.5698 329.023 66.2817C328.321 66.9841 327.884 67.9619 327.713 69.2148H335.601ZM337.651 75.9781C337.338 76.3578 336.963 76.6901 336.527 76.9748C336.09 77.2501 335.62 77.4779 335.117 77.6583C334.623 77.8386 334.111 77.9715 333.579 78.057C333.048 78.1519 332.521 78.1993 331.999 78.1993C331.002 78.1993 330.081 78.0332 329.237 77.701C328.401 77.3593 327.675 76.8657 327.058 76.2202C326.451 75.5652 325.976 74.7584 325.634 73.7996C325.292 72.8409 325.122 71.7398 325.122 70.4963C325.122 69.4901 325.273 68.5504 325.577 67.6771C325.89 66.8038 326.337 66.0492 326.916 65.4132C327.495 64.7677 328.202 64.2646 329.037 63.9039C329.873 63.5337 330.812 63.3486 331.856 63.3486C332.72 63.3486 333.518 63.4957 334.248 63.79C334.989 64.0747 335.625 64.4924 336.156 65.043C336.698 65.584 337.12 66.258 337.424 67.0648C337.727 67.8622 337.879 68.7735 337.879 69.7986C337.879 70.1973 337.837 70.4631 337.751 70.596C337.666 70.7289 337.504 70.7953 337.267 70.7953H327.628C327.656 71.7066 327.779 72.4992 327.998 73.1731C328.226 73.8471 328.539 74.4119 328.938 74.8675C329.336 75.3137 329.811 75.6506 330.361 75.8785C330.912 76.0968 331.529 76.2059 332.212 76.2059C332.848 76.2059 333.394 76.1348 333.85 75.9924C334.315 75.8405 334.714 75.6791 335.046 75.5083C335.378 75.3374 335.653 75.1808 335.872 75.0384C336.099 74.8865 336.294 74.8106 336.455 74.8106C336.664 74.8106 336.826 74.8913 336.94 75.0526L337.651 75.9781ZM343.384 65.6695C343.698 65.3182 344.03 65.0002 344.381 64.7155C344.732 64.4307 345.103 64.1887 345.492 63.9893C345.89 63.7805 346.308 63.6239 346.745 63.5194C347.191 63.4055 347.67 63.3486 348.183 63.3486C348.971 63.3486 349.664 63.4815 350.262 63.7473C350.869 64.0036 351.372 64.3738 351.771 64.8579C352.179 65.3325 352.488 65.9068 352.696 66.5807C352.905 67.2547 353.01 67.9998 353.01 68.8162V78H350.461V68.8162C350.461 67.7245 350.209 66.8797 349.706 66.2817C349.213 65.6742 348.458 65.3705 347.442 65.3705C346.693 65.3705 345.99 65.5508 345.335 65.9115C344.69 66.2722 344.092 66.7611 343.541 67.3781V78H340.992V63.5764H342.516C342.877 63.5764 343.1 63.752 343.185 64.1032L343.384 65.6695ZM361.105 78.2278C359.966 78.2278 359.088 77.9098 358.471 77.2738C357.864 76.6379 357.56 75.7218 357.56 74.5258V65.6979H355.823C355.671 65.6979 355.543 65.6552 355.438 65.5698C355.334 65.4749 355.282 65.3325 355.282 65.1426V64.1317L357.645 63.8327L358.229 59.376C358.257 59.2337 358.319 59.1197 358.414 59.0343C358.519 58.9394 358.651 58.8919 358.813 58.8919H360.094V63.8612H364.266V65.6979H360.094V74.3549C360.094 74.9625 360.241 75.4133 360.536 75.7076C360.83 76.0019 361.21 76.149 361.675 76.149C361.941 76.149 362.168 76.1158 362.358 76.0493C362.558 75.9734 362.728 75.8927 362.871 75.8073C363.013 75.7218 363.132 75.6459 363.227 75.5795C363.331 75.5035 363.421 75.4655 363.497 75.4655C363.63 75.4655 363.749 75.5462 363.853 75.7076L364.594 76.9179C364.157 77.326 363.63 77.6488 363.013 77.8861C362.396 78.1139 361.76 78.2278 361.105 78.2278Z" fill="black"/>
<g clip-path="url(#clip0_17156_3427)">
<g clip-path="url(#clip1_17156_3427)">
<rect x="6" y="-0.200195" width="24" height="24" rx="12" fill="#C54600"/>
<path d="M19.1825 7.07253V15.7998H18.1257V8.18049H18.0746L15.9439 9.59526V8.5214L18.1257 7.07253H19.1825Z" fill="white"/>
</g>
</g>
<rect width="1" height="31" transform="matrix(1 0 0 -1 18 47.5)" fill="#C54600"/>
<g clip-path="url(#clip2_17156_3427)">
<g clip-path="url(#clip3_17156_3427)">
<rect x="148" y="-0.200195" width="24" height="24" rx="12" fill="#C54600"/>
<path d="M157.271 15.7998V15.0328L160.151 11.8793C160.489 11.51 160.768 11.189 160.987 10.9163C161.205 10.6407 161.367 10.3822 161.472 10.1407C161.58 9.8964 161.634 9.64071 161.634 9.37367C161.634 9.06685 161.56 8.80123 161.413 8.57679C161.268 8.35236 161.069 8.17907 160.816 8.05691C160.563 7.93475 160.279 7.87367 159.964 7.87367C159.629 7.87367 159.336 7.94327 159.086 8.08247C158.839 8.21884 158.647 8.4106 158.511 8.65776C158.377 8.90492 158.31 9.19469 158.31 9.52708H157.305C157.305 9.01571 157.423 8.56685 157.658 8.18049C157.894 7.79412 158.215 7.49299 158.621 7.27708C159.031 7.06117 159.489 6.95321 159.998 6.95321C160.509 6.95321 160.962 7.06117 161.357 7.27708C161.752 7.49299 162.062 7.78418 162.286 8.15066C162.511 8.51713 162.623 8.9248 162.623 9.37367C162.623 9.69469 162.565 10.0086 162.448 10.3154C162.335 10.6194 162.136 10.9589 161.852 11.3339C161.57 11.7061 161.18 12.1606 160.68 12.6975L158.719 14.7941V14.8623H162.776V15.7998H157.271Z" fill="white"/>
</g>
</g>
<rect width="1" height="31" transform="matrix(1 0 0 -1 160 47.5)" fill="#C54600"/>
<defs>
<clipPath id="clip0_17156_3427">
<rect width="24" height="24" fill="white" transform="translate(6)"/>
</clipPath>
<clipPath id="clip1_17156_3427">
<rect x="6" y="-0.200195" width="24" height="24" rx="12" fill="white"/>
</clipPath>
<clipPath id="clip2_17156_3427">
<rect width="24" height="24" fill="white" transform="translate(148)"/>
</clipPath>
<clipPath id="clip3_17156_3427">
<rect x="148" y="-0.200195" width="24" height="24" rx="12" fill="white"/>
</clipPath>
</defs>
</svg>
