<svg width="168" height="137" viewBox="0 0 168 137" fill="none" xmlns="http://www.w3.org/2000/svg">
<path d="M55.7 71.11L55.69 73H46.71V58.6H55.69V60.49H49.06V64.83H54.36V66.66H49.06V71.11H55.7ZM55.35 54.43L52.1 57.29C51.98 57.3967 51.8667 57.4633 51.76 57.49C51.6533 57.5167 51.52 57.53 51.36 57.53H49.81L52.01 54.8C52.07 54.7133 52.13 54.6467 52.19 54.6C52.25 54.5533 52.3167 54.5167 52.39 54.49C52.4633 54.4633 52.5433 54.4467 52.63 54.44C52.7233 54.4333 52.83 54.43 52.95 54.43H55.35ZM60.6738 73.16C59.8271 73.16 59.1738 72.9233 58.7138 72.45C58.2604 71.97 58.0338 71.2967 58.0338 70.43V64.49H56.9138C56.7938 64.49 56.6904 64.4533 56.6038 64.38C56.5171 64.3 56.4738 64.1833 56.4738 64.03V63.16L58.1238 62.92L58.5938 59.97C58.6271 59.8567 58.6838 59.7667 58.7638 59.7C58.8438 59.6267 58.9504 59.59 59.0838 59.59H60.1838V62.94H63.0138V64.49H60.1838V70.28C60.1838 70.6467 60.2738 70.9267 60.4538 71.12C60.6338 71.3133 60.8738 71.41 61.1738 71.41C61.3404 71.41 61.4838 71.39 61.6037 71.35C61.7238 71.3033 61.8271 71.2567 61.9138 71.21C62.0004 71.1567 62.0738 71.11 62.1338 71.07C62.2004 71.0233 62.2638 71 62.3238 71C62.4438 71 62.5404 71.0667 62.6138 71.2L63.2538 72.25C62.9204 72.5433 62.5271 72.77 62.0738 72.93C61.6204 73.0833 61.1538 73.16 60.6738 73.16ZM70.1584 68.54C69.3918 68.5667 68.7451 68.63 68.2184 68.73C67.6918 68.8233 67.2651 68.9467 66.9384 69.1C66.6118 69.2467 66.3751 69.4233 66.2284 69.63C66.0884 69.8367 66.0184 70.0633 66.0184 70.31C66.0184 70.55 66.0551 70.7567 66.1284 70.93C66.2084 71.0967 66.3151 71.2367 66.4484 71.35C66.5884 71.4567 66.7484 71.5367 66.9284 71.59C67.1151 71.6367 67.3184 71.66 67.5384 71.66C68.0984 71.66 68.5784 71.5567 68.9784 71.35C69.3851 71.1367 69.7784 70.83 70.1584 70.43V68.54ZM64.4584 64.22C65.6118 63.1467 66.9851 62.61 68.5784 62.61C69.1651 62.61 69.6851 62.7067 70.1384 62.9C70.5984 63.0867 70.9818 63.3533 71.2884 63.7C71.6018 64.0467 71.8384 64.46 71.9984 64.94C72.1651 65.4133 72.2484 65.94 72.2484 66.52V73H71.2884C71.0818 73 70.9251 72.97 70.8184 72.91C70.7118 72.8433 70.6218 72.7133 70.5484 72.52L70.3384 71.69C70.0784 71.9233 69.8218 72.1333 69.5684 72.32C69.3151 72.5 69.0518 72.6533 68.7784 72.78C68.5118 72.9067 68.2218 73 67.9084 73.06C67.6018 73.1267 67.2618 73.16 66.8884 73.16C66.4751 73.16 66.0884 73.1033 65.7284 72.99C65.3751 72.8767 65.0684 72.7067 64.8084 72.48C64.5484 72.2467 64.3418 71.96 64.1884 71.62C64.0418 71.28 63.9684 70.88 63.9684 70.42C63.9684 70.0267 64.0718 69.6433 64.2784 69.27C64.4918 68.8967 64.8384 68.5633 65.3184 68.27C65.8051 67.97 66.4418 67.7233 67.2284 67.53C68.0218 67.3367 68.9984 67.2267 70.1584 67.2V66.52C70.1584 65.7867 70.0018 65.24 69.6884 64.88C69.3751 64.52 68.9151 64.34 68.3084 64.34C67.8951 64.34 67.5484 64.3933 67.2684 64.5C66.9884 64.6 66.7451 64.71 66.5384 64.83C66.3318 64.95 66.1484 65.0633 65.9884 65.17C65.8284 65.27 65.6584 65.32 65.4784 65.32C65.3318 65.32 65.2051 65.2833 65.0984 65.21C64.9984 65.13 64.9151 65.0333 64.8484 64.92L64.4584 64.22ZM76.917 70.44C77.217 70.8267 77.5437 71.1 77.897 71.26C78.257 71.4133 78.6537 71.49 79.087 71.49C79.927 71.49 80.5804 71.1833 81.047 70.57C81.5204 69.9567 81.757 69.0433 81.757 67.83C81.757 67.2033 81.7037 66.67 81.597 66.23C81.4904 65.7833 81.337 65.42 81.137 65.14C80.937 64.86 80.6937 64.6567 80.407 64.53C80.1204 64.4033 79.797 64.34 79.437 64.34C78.8904 64.34 78.417 64.46 78.017 64.7C77.6237 64.9333 77.257 65.27 76.917 65.71V70.44ZM76.807 64.28C77.2337 63.78 77.717 63.3767 78.257 63.07C78.8037 62.7633 79.437 62.61 80.157 62.61C80.7304 62.61 81.2504 62.7267 81.717 62.96C82.1837 63.1867 82.5837 63.52 82.917 63.96C83.2504 64.4 83.507 64.9467 83.687 65.6C83.8737 66.2467 83.967 66.99 83.967 67.83C83.967 68.5833 83.8637 69.2867 83.657 69.94C83.457 70.5867 83.167 71.15 82.787 71.63C82.407 72.1033 81.947 72.4767 81.407 72.75C80.867 73.0167 80.257 73.15 79.577 73.15C78.977 73.15 78.467 73.0533 78.047 72.86C77.6337 72.6667 77.257 72.4 76.917 72.06V76.39H74.767V62.8H76.067C76.3604 62.8 76.547 62.9367 76.627 63.21L76.807 64.28ZM92.7461 66.75C92.7461 66.39 92.6928 66.0567 92.5861 65.75C92.4861 65.4367 92.3361 65.1667 92.1361 64.94C91.9361 64.7067 91.6861 64.5267 91.3861 64.4C91.0928 64.2667 90.7528 64.2 90.3661 64.2C89.5861 64.2 88.9728 64.4233 88.5261 64.87C88.0794 65.3167 87.7961 65.9433 87.6761 66.75H92.7461ZM87.6161 68.07C87.6428 68.65 87.7328 69.1533 87.8861 69.58C88.0394 70 88.2428 70.35 88.4961 70.63C88.7561 70.91 89.0628 71.12 89.4161 71.26C89.7761 71.3933 90.1761 71.46 90.6161 71.46C91.0361 71.46 91.3994 71.4133 91.7061 71.32C92.0128 71.22 92.2794 71.1133 92.5061 71C92.7328 70.88 92.9261 70.7733 93.0861 70.68C93.2461 70.58 93.3928 70.53 93.5261 70.53C93.6994 70.53 93.8328 70.5967 93.9261 70.73L94.5361 71.52C94.2828 71.82 93.9961 72.0733 93.6761 72.28C93.3561 72.4867 93.0161 72.6567 92.6561 72.79C92.2961 72.9167 91.9261 73.0067 91.5461 73.06C91.1661 73.12 90.7961 73.15 90.4361 73.15C89.7294 73.15 89.0728 73.0333 88.4661 72.8C87.8661 72.56 87.3428 72.21 86.8961 71.75C86.4561 71.29 86.1094 70.72 85.8561 70.04C85.6094 69.36 85.4861 68.5767 85.4861 67.69C85.4861 66.9833 85.5961 66.3233 85.8161 65.71C86.0428 65.0967 86.3628 64.5633 86.7761 64.11C87.1961 63.6567 87.7028 63.3 88.2961 63.04C88.8961 62.7733 89.5728 62.64 90.3261 62.64C90.9528 62.64 91.5328 62.7433 92.0661 62.95C92.5994 63.15 93.0594 63.4467 93.4461 63.84C93.8328 64.2333 94.1328 64.7167 94.3461 65.29C94.5661 65.8567 94.6761 66.5033 94.6761 67.23C94.6761 67.5633 94.6394 67.7867 94.5661 67.9C94.4928 68.0133 94.3594 68.07 94.1661 68.07H87.6161ZM110.622 71.37V73H102.772V71.37H105.772V62.35C105.772 62.03 105.782 61.7033 105.802 61.37L103.492 63.32C103.392 63.4 103.288 63.4533 103.182 63.48C103.082 63.5 102.985 63.5 102.892 63.48C102.805 63.46 102.725 63.43 102.652 63.39C102.585 63.3433 102.532 63.2933 102.492 63.24L101.822 62.3L106.162 58.57H107.912V71.37H110.622ZM124.334 64.65C124.28 64.7433 124.22 64.81 124.154 64.85C124.087 64.89 124.004 64.91 123.904 64.91C123.79 64.91 123.667 64.8767 123.534 64.81C123.4 64.7367 123.244 64.6567 123.064 64.57C122.884 64.4833 122.67 64.4067 122.424 64.34C122.184 64.2667 121.9 64.23 121.574 64.23C121.307 64.23 121.064 64.2633 120.844 64.33C120.63 64.39 120.447 64.48 120.294 64.6C120.147 64.7133 120.034 64.85 119.954 65.01C119.874 65.1633 119.834 65.33 119.834 65.51C119.834 65.75 119.907 65.95 120.054 66.11C120.2 66.27 120.394 66.41 120.634 66.53C120.874 66.6433 121.147 66.7467 121.454 66.84C121.76 66.9333 122.074 67.0333 122.394 67.14C122.714 67.2467 123.027 67.37 123.334 67.51C123.64 67.65 123.914 67.8233 124.154 68.03C124.394 68.23 124.587 68.4767 124.734 68.77C124.88 69.0567 124.954 69.4067 124.954 69.82C124.954 70.3 124.867 70.7433 124.694 71.15C124.52 71.5567 124.267 71.91 123.934 72.21C123.6 72.51 123.184 72.7433 122.684 72.91C122.19 73.0767 121.624 73.16 120.984 73.16C120.63 73.16 120.287 73.1267 119.954 73.06C119.627 73 119.314 72.9167 119.014 72.81C118.72 72.6967 118.444 72.5633 118.184 72.41C117.93 72.2567 117.704 72.09 117.504 71.91L118.004 71.09C118.064 70.99 118.137 70.9133 118.224 70.86C118.317 70.8 118.43 70.77 118.564 70.77C118.704 70.77 118.84 70.8167 118.974 70.91C119.114 70.9967 119.274 71.0933 119.454 71.2C119.64 71.3067 119.864 71.4067 120.124 71.5C120.384 71.5867 120.707 71.63 121.094 71.63C121.414 71.63 121.69 71.5933 121.924 71.52C122.157 71.44 122.35 71.3333 122.504 71.2C122.657 71.0667 122.77 70.9167 122.844 70.75C122.917 70.5767 122.954 70.3933 122.954 70.2C122.954 69.94 122.88 69.7267 122.734 69.56C122.587 69.3933 122.39 69.25 122.144 69.13C121.904 69.01 121.627 68.9033 121.314 68.81C121.007 68.7167 120.694 68.6167 120.374 68.51C120.054 68.4033 119.737 68.28 119.424 68.14C119.117 68 118.84 67.8233 118.594 67.61C118.354 67.39 118.16 67.1267 118.014 66.82C117.867 66.5067 117.794 66.1267 117.794 65.68C117.794 65.2733 117.874 64.8867 118.034 64.52C118.2 64.1533 118.44 63.83 118.754 63.55C119.074 63.27 119.464 63.05 119.924 62.89C120.39 62.7233 120.927 62.64 121.534 62.64C122.22 62.64 122.844 62.75 123.404 62.97C123.964 63.19 124.434 63.49 124.814 63.87L124.334 64.65ZM135.574 62.8V73H134.274C133.987 73 133.804 72.8633 133.724 72.59L133.564 71.64C133.351 71.8667 133.124 72.0733 132.884 72.26C132.651 72.4467 132.401 72.6067 132.134 72.74C131.867 72.8733 131.581 72.9767 131.274 73.05C130.974 73.1233 130.651 73.16 130.304 73.16C129.744 73.16 129.251 73.0667 128.824 72.88C128.397 72.6933 128.037 72.43 127.744 72.09C127.457 71.75 127.241 71.3433 127.094 70.87C126.947 70.39 126.874 69.8633 126.874 69.29V62.8H129.024V69.29C129.024 69.9767 129.181 70.51 129.494 70.89C129.814 71.27 130.297 71.46 130.944 71.46C131.417 71.46 131.857 71.3533 132.264 71.14C132.677 70.92 133.064 70.62 133.424 70.24V62.8H135.574ZM140.215 64.69C140.535 64.0433 140.922 63.5367 141.375 63.17C141.828 62.7967 142.372 62.61 143.005 62.61C143.225 62.61 143.432 62.6367 143.625 62.69C143.818 62.7367 143.992 62.81 144.145 62.91L143.995 64.53C143.968 64.6433 143.925 64.7233 143.865 64.77C143.812 64.81 143.738 64.83 143.645 64.83C143.545 64.83 143.402 64.8133 143.215 64.78C143.028 64.74 142.832 64.72 142.625 64.72C142.325 64.72 142.058 64.7633 141.825 64.85C141.598 64.9367 141.392 65.0633 141.205 65.23C141.025 65.3967 140.865 65.6 140.725 65.84C140.585 66.08 140.455 66.3533 140.335 66.66V73H138.185V62.8H139.435C139.662 62.8 139.818 62.8433 139.905 62.93C139.992 63.01 140.052 63.1533 140.085 63.36L140.215 64.69ZM156.019 67.68V62.42C156.019 62 156.049 61.54 156.109 61.04L151.269 67.68H156.019ZM159.879 67.68V68.92C159.879 69.04 159.839 69.1433 159.759 69.23C159.685 69.3167 159.572 69.36 159.419 69.36H157.889V73H156.019V69.36H149.789C149.635 69.36 149.502 69.3167 149.389 69.23C149.282 69.1367 149.212 69.0233 149.179 68.89L148.959 67.79L155.869 58.59H157.889V67.68H159.879Z" fill="#43474E"/>
<path d="M68.4354 103.497H59.191V129H54.8932V103.497H45.6082V99.8882H68.4354V103.497ZM75.7891 108.403V129H71.8359V108.403H75.7891ZM76.5392 102.037C76.5392 102.402 76.4649 102.753 76.3162 103.091C76.1675 103.416 75.9648 103.706 75.708 103.963C75.4647 104.206 75.1742 104.402 74.8363 104.551C74.4984 104.686 74.147 104.754 73.7821 104.754C73.4172 104.754 73.0725 104.686 72.7482 104.551C72.4238 104.402 72.1332 104.206 71.8764 103.963C71.6332 103.706 71.4372 103.416 71.2885 103.091C71.1534 102.753 71.0858 102.402 71.0858 102.037C71.0858 101.659 71.1534 101.307 71.2885 100.983C71.4372 100.645 71.6332 100.354 71.8764 100.111C72.1332 99.8544 72.4238 99.6584 72.7482 99.5233C73.0725 99.3746 73.4172 99.3003 73.7821 99.3003C74.147 99.3003 74.4984 99.3746 74.8363 99.5233C75.1742 99.6584 75.4647 99.8544 75.708 100.111C75.9648 100.354 76.1675 100.645 76.3162 100.983C76.4649 101.307 76.5392 101.659 76.5392 102.037ZM87.9595 129.324C86.2971 129.324 85.0131 128.858 84.1076 127.926C83.2156 126.993 82.7696 125.662 82.7696 123.932V111.606H80.3774C80.1477 111.606 79.9517 111.538 79.7895 111.403C79.6408 111.254 79.5665 111.038 79.5665 110.754V109.153L82.9115 108.687L83.8035 102.544C83.8576 102.314 83.959 102.138 84.1076 102.017C84.2698 101.882 84.4725 101.814 84.7158 101.814H86.7228V108.727H92.5614V111.606H86.7228V123.668C86.7228 124.479 86.9188 125.087 87.3107 125.493C87.7162 125.885 88.2298 126.081 88.8515 126.081C89.2164 126.081 89.5272 126.033 89.784 125.939C90.0543 125.844 90.2841 125.743 90.4733 125.635C90.6625 125.513 90.8247 125.405 90.9599 125.31C91.095 125.216 91.2166 125.168 91.3248 125.168C91.4599 125.168 91.5613 125.202 91.6289 125.27C91.7099 125.324 91.791 125.418 91.8721 125.554L93.048 127.459C92.3992 128.054 91.6289 128.513 90.7368 128.838C89.8448 129.162 88.919 129.324 87.9595 129.324ZM99.9328 112.356C100.595 111.004 101.392 109.944 102.325 109.173C103.258 108.403 104.379 108.018 105.69 108.018C106.136 108.018 106.555 108.072 106.947 108.18C107.353 108.274 107.704 108.423 108.001 108.626L107.738 111.606C107.643 111.971 107.42 112.153 107.069 112.153C106.88 112.153 106.596 112.119 106.217 112.052C105.839 111.971 105.434 111.93 105.001 111.93C104.366 111.93 103.805 112.025 103.318 112.214C102.832 112.39 102.393 112.66 102.001 113.025C101.622 113.376 101.284 113.816 100.987 114.343C100.69 114.856 100.413 115.444 100.156 116.106V129H96.2026V108.403H98.4732C98.9057 108.403 99.1962 108.484 99.3449 108.646C99.5071 108.795 99.622 109.065 99.6895 109.457L99.9328 112.356ZM123.942 116.411C123.942 115.627 123.827 114.904 123.598 114.241C123.381 113.579 123.057 113.005 122.624 112.518C122.192 112.032 121.665 111.653 121.043 111.383C120.422 111.113 119.705 110.977 118.894 110.977C117.232 110.977 115.921 111.457 114.961 112.417C114.015 113.376 113.414 114.708 113.157 116.411H123.942ZM127.206 126.06C126.72 126.628 126.159 127.121 125.524 127.54C124.888 127.946 124.213 128.277 123.496 128.534C122.78 128.791 122.037 128.98 121.266 129.101C120.509 129.223 119.759 129.284 119.016 129.284C117.597 129.284 116.279 129.047 115.063 128.574C113.86 128.088 112.812 127.385 111.92 126.466C111.042 125.533 110.353 124.385 109.853 123.02C109.366 121.641 109.123 120.06 109.123 118.276C109.123 116.843 109.346 115.512 109.792 114.282C110.238 113.038 110.873 111.957 111.697 111.038C112.535 110.119 113.556 109.396 114.759 108.869C115.961 108.342 117.313 108.078 118.813 108.078C120.07 108.078 121.226 108.288 122.28 108.707C123.348 109.112 124.267 109.707 125.037 110.491C125.807 111.275 126.409 112.241 126.841 113.39C127.287 114.539 127.51 115.85 127.51 117.323C127.51 117.931 127.443 118.343 127.308 118.559C127.172 118.762 126.922 118.864 126.557 118.864H113.056C113.096 120.093 113.272 121.168 113.583 122.087C113.894 122.992 114.319 123.749 114.86 124.358C115.414 124.966 116.07 125.418 116.826 125.716C117.583 126.013 118.428 126.162 119.361 126.162C120.239 126.162 120.996 126.06 121.631 125.858C122.28 125.655 122.834 125.439 123.293 125.209C123.767 124.966 124.158 124.743 124.469 124.54C124.794 124.337 125.078 124.236 125.321 124.236C125.645 124.236 125.895 124.358 126.071 124.601L127.206 126.06Z" fill="#333333"/>
<g clip-path="url(#clip0_6976_17923)">
<rect y="115" width="42" height="1" fill="#C54600"/>
<g clip-path="url(#clip1_6976_17923)">
<rect y="103" width="24" height="24" rx="12" fill="#C54600"/>
<path d="M11.9745 120.139C11.2321 120.139 10.5709 120.012 9.99086 119.756C9.41415 119.498 8.95842 119.143 8.62367 118.692C8.29223 118.238 8.12154 117.715 8.11159 117.121H10.2792C10.2925 117.37 10.3737 117.589 10.5228 117.778C10.6753 117.963 10.8775 118.107 11.1294 118.21C11.3812 118.313 11.6646 118.364 11.9795 118.364C12.3076 118.364 12.5976 118.306 12.8495 118.19C13.1014 118.074 13.2986 117.914 13.4411 117.708C13.5837 117.503 13.6549 117.266 13.6549 116.997C13.6549 116.725 13.5787 116.485 13.4262 116.276C13.2771 116.064 13.0616 115.898 12.7799 115.779C12.5015 115.66 12.1701 115.6 11.7856 115.6H10.836V114.019H11.7856C12.1104 114.019 12.3971 113.963 12.6457 113.85C12.8976 113.737 13.0931 113.582 13.2323 113.383C13.3715 113.181 13.4411 112.945 13.4411 112.677C13.4411 112.422 13.3798 112.198 13.2572 112.006C13.1379 111.81 12.9688 111.658 12.7501 111.548C12.5347 111.439 12.2828 111.384 11.9944 111.384C11.7027 111.384 11.4359 111.437 11.194 111.543C10.952 111.646 10.7581 111.794 10.6123 111.986C10.4665 112.178 10.3886 112.403 10.3786 112.662H8.31543C8.32537 112.075 8.49275 111.558 8.81756 111.111C9.14237 110.663 9.57987 110.314 10.1301 110.062C10.6836 109.807 11.3083 109.679 12.0044 109.679C12.707 109.679 13.3218 109.807 13.8488 110.062C14.3758 110.317 14.7851 110.662 15.0768 111.096C15.3718 111.527 15.5176 112.011 15.5143 112.548C15.5176 113.118 15.3403 113.593 14.9823 113.974C14.6277 114.356 14.1653 114.598 13.5953 114.7V114.78C14.3443 114.876 14.9144 115.136 15.3055 115.56C15.6999 115.981 15.8954 116.508 15.8921 117.141C15.8954 117.721 15.7281 118.237 15.39 118.688C15.0553 119.138 14.5929 119.493 14.0029 119.751C13.413 120.01 12.7368 120.139 11.9745 120.139Z" fill="white"/>
</g>
</g>
<g clip-path="url(#clip2_6976_17923)">
<rect x="156" width="1" height="53" fill="#C54600"/>
<g clip-path="url(#clip3_6976_17923)">
<rect x="144" width="24" height="24" rx="12" fill="#C54600"/>
<path d="M152.416 17V15.4489L156.04 12.093C156.349 11.7947 156.607 11.5263 156.816 11.2876C157.028 11.049 157.189 10.8153 157.298 10.5866C157.408 10.3546 157.462 10.1044 157.462 9.83594C157.462 9.53764 157.394 9.28078 157.258 9.06534C157.123 8.84659 156.937 8.67921 156.702 8.56321C156.466 8.44389 156.199 8.38423 155.901 8.38423C155.59 8.38423 155.318 8.44721 155.086 8.57315C154.854 8.6991 154.675 8.87973 154.549 9.11506C154.423 9.35038 154.36 9.63044 154.36 9.95526H152.317C152.317 9.28906 152.467 8.7107 152.769 8.22017C153.071 7.72964 153.493 7.35014 154.037 7.08168C154.58 6.81321 155.207 6.67898 155.916 6.67898C156.645 6.67898 157.28 6.80824 157.82 7.06676C158.364 7.32197 158.786 7.67661 159.088 8.13068C159.39 8.58475 159.54 9.10511 159.54 9.69176C159.54 10.0762 159.464 10.4557 159.312 10.8303C159.163 11.2048 158.896 11.6207 158.511 12.0781C158.127 12.5322 157.585 13.0774 156.886 13.7138L155.399 15.1705V15.2401H159.675V17H152.416Z" fill="white"/>
</g>
</g>
<g clip-path="url(#clip4_6976_17923)">
<rect x="106" width="1" height="53" fill="#C54600"/>
<g clip-path="url(#clip5_6976_17923)">
<rect x="94" width="24" height="24" rx="12" fill="#C54600"/>
<path d="M107.83 6.81818V17H105.677V8.86151H105.618L103.286 10.3232V8.41406L105.807 6.81818H107.83Z" fill="white"/>
</g>
</g>
<defs>
<clipPath id="clip0_6976_17923">
<rect width="42" height="24" fill="white" transform="translate(0 103)"/>
</clipPath>
<clipPath id="clip1_6976_17923">
<rect y="103" width="24" height="24" rx="12" fill="white"/>
</clipPath>
<clipPath id="clip2_6976_17923">
<rect width="24" height="53" fill="white" transform="translate(144)"/>
</clipPath>
<clipPath id="clip3_6976_17923">
<rect x="144" width="24" height="24" rx="12" fill="white"/>
</clipPath>
<clipPath id="clip4_6976_17923">
<rect width="24" height="53" fill="white" transform="translate(94)"/>
</clipPath>
<clipPath id="clip5_6976_17923">
<rect x="94" width="24" height="24" rx="12" fill="white"/>
</clipPath>
</defs>
</svg>
