<svg width="326" height="136" viewBox="0 0 326 136" fill="none" xmlns="http://www.w3.org/2000/svg">
<mask id="path-1-outside-1_3357_9616" maskUnits="userSpaceOnUse" x="0" y="0" width="326" height="136" fill="black">
<rect fill="white" width="326" height="136"/>
<path d="M6 0H326V136H6V0Z"/>
</mask>
<path d="M6 0H326V136H6V0Z" fill="#D7E5F5"/>
<path d="M37 14.8516C29.9797 14.8516 24.3438 20.537 24.3438 27.5078C24.3438 34.5281 29.9797 40.1641 37 40.1641C43.9708 40.1641 49.6562 34.5281 49.6562 27.5078C49.6562 20.537 43.9708 14.8516 37 14.8516ZM37 21.1797C37.8405 21.1797 38.582 21.9213 38.582 22.7617C38.582 23.6516 37.8405 24.3438 37 24.3438C36.1101 24.3438 35.418 23.6516 35.418 22.7617C35.418 21.9213 36.1101 21.1797 37 21.1797ZM38.9775 33.8359H35.0225C34.3303 33.8359 33.8359 33.3416 33.8359 32.6494C33.8359 32.0067 34.3303 31.4629 35.0225 31.4629H35.8135V28.2988H35.418C34.7258 28.2988 34.2314 27.8044 34.2314 27.1123C34.2314 26.4696 34.7258 25.9258 35.418 25.9258H37C37.6427 25.9258 38.1865 26.4696 38.1865 27.1123V31.4629H38.9775C39.6202 31.4629 40.1641 32.0067 40.1641 32.6494C40.1641 33.3416 39.6202 33.8359 38.9775 33.8359Z" fill="#6584A6"/>
<g opacity="0.7">
<rect x="21" y="60.5" width="290" height="25" fill="#425A76"/>
</g>
<g opacity="0.7">
<rect x="21" y="100" width="200" height="20" fill="#425A76"/>
</g>
<path d="M12 136V0H0V136H12Z" fill="#6584A6" mask="url(#path-1-outside-1_3357_9616)"/>
</svg>
