<svg width="400" height="300" viewBox="0 0 400 300" fill="none" xmlns="http://www.w3.org/2000/svg">
<g clip-path="url(#clip0_9283_7661)">
<rect width="400" height="300" fill="#F1F2F3"/>
<g filter="url(#filter0_d_9283_7661)">
<g clip-path="url(#clip1_9283_7661)">
<path d="M40 50C40 44.4772 44.4772 40 50 40H400V300H40V50Z" fill="#F1F2F3"/>
<rect width="360" height="25" transform="translate(40 40)" fill="#D6D9DD" fill-opacity="0.75"/>
<rect x="52" y="47" width="12" height="12" rx="6" fill="#A8ADB4"/>
<rect x="72" y="47" width="12" height="12" rx="6" fill="#A8ADB4"/>
<rect x="92" y="47" width="12" height="12" rx="6" fill="#A8ADB4"/>
<rect width="220" height="235" transform="translate(40 65)" fill="white"/>
<rect x="65" y="86" width="140" height="18" rx="9" fill="#A8ADB4" fill-opacity="0.75"/>
<rect x="65" y="152" width="99" height="14" rx="7" fill="#A8ADB4" fill-opacity="0.75"/>
<rect x="65" y="242" width="131" height="14" rx="7" fill="#A8ADB4" fill-opacity="0.75"/>
<rect x="55" y="184" width="194" height="40" rx="10" fill="#D6D9DD" fill-opacity="0.75"/>
<rect x="65" y="197" width="119" height="14" rx="7" fill="#2B4380" fill-opacity="0.5"/>
</g>
</g>
</g>
<defs>
<filter id="filter0_d_9283_7661" x="33" y="33.5" width="372" height="272" filterUnits="userSpaceOnUse" color-interpolation-filters="sRGB">
<feFlood flood-opacity="0" result="BackgroundImageFix"/>
<feColorMatrix in="SourceAlpha" type="matrix" values="0 0 0 0 0 0 0 0 0 0 0 0 0 0 0 0 0 0 127 0" result="hardAlpha"/>
<feMorphology radius="2" operator="dilate" in="SourceAlpha" result="effect1_dropShadow_9283_7661"/>
<feOffset dx="-1" dy="-0.5"/>
<feGaussianBlur stdDeviation="2"/>
<feComposite in2="hardAlpha" operator="out"/>
<feColorMatrix type="matrix" values="0 0 0 0 0 0 0 0 0 0 0 0 0 0 0 0 0 0 0.1 0"/>
<feBlend mode="normal" in2="BackgroundImageFix" result="effect1_dropShadow_9283_7661"/>
<feBlend mode="normal" in="SourceGraphic" in2="effect1_dropShadow_9283_7661" result="shape"/>
</filter>
<clipPath id="clip0_9283_7661">
<rect width="400" height="300" fill="white"/>
</clipPath>
<clipPath id="clip1_9283_7661">
<path d="M40 50C40 44.4772 44.4772 40 50 40H400V300H40V50Z" fill="white"/>
</clipPath>
</defs>
</svg>
