<svg width="400" height="300" viewBox="0 0 400 300" fill="none" xmlns="http://www.w3.org/2000/svg">
<g clip-path="url(#clip0_9404_1066)">
<rect width="400" height="300" fill="#F1F2F3"/>
<g filter="url(#filter0_d_9404_1066)">
<path d="M40 50C40 44.4772 44.4772 40 50 40H350C355.523 40 360 44.4772 360 50V300H40V50Z" fill="#F1F2F3"/>
<rect width="60" height="24" transform="translate(60 62)" fill="#26374A" fill-opacity="0.66"/>
<g filter="url(#filter1_d_9404_1066)">
<path d="M60 86H160V260H70C64.4772 260 60 255.523 60 250V86Z" fill="#333333" fill-opacity="0.66"/>
<rect x="70" y="100" width="65" height="10" rx="5" fill="#F1F2F3"/>
<rect x="70" y="164" width="65" height="10" rx="5" fill="#F1F2F3"/>
<rect x="70" y="186" width="65" height="10" rx="5" fill="#F1F2F3"/>
<rect width="100" height="30" transform="translate(60 122)" fill="white"/>
<rect x="70" y="132" width="65" height="10" rx="5" fill="#A8ADB4"/>
<path d="M160 86H340V250C340 255.523 335.523 260 330 260H160V86Z" fill="white"/>
<rect x="180" y="130" width="55" height="10" rx="5" fill="#2B4380" fill-opacity="0.5"/>
<rect x="180" y="100" width="90" height="12" rx="6" fill="#2B4380" fill-opacity="0.5"/>
<rect x="260" y="130" width="55" height="10" rx="5" fill="#2B4380" fill-opacity="0.5"/>
<rect x="180" y="150" width="55" height="10" rx="5" fill="#2B4380" fill-opacity="0.5"/>
<rect x="260" y="150" width="55" height="10" rx="5" fill="#2B4380" fill-opacity="0.5"/>
<rect x="180" y="170" width="55" height="10" rx="5" fill="#2B4380" fill-opacity="0.5"/>
<rect x="260" y="170" width="55" height="10" rx="5" fill="#2B4380" fill-opacity="0.5"/>
</g>
</g>
<path d="M40 50C40 44.4772 44.4772 40 50 40H350C355.523 40 360 44.4772 360 50V62H40V50Z" fill="#D6D9DD" fill-opacity="0.75"/>
<rect x="50" y="46" width="10" height="10" rx="5" fill="#A8ADB4"/>
<rect x="68" y="46" width="10" height="10" rx="5" fill="#A8ADB4"/>
<rect x="86" y="46" width="10" height="10" rx="5" fill="#A8ADB4"/>
</g>
<defs>
<filter id="filter0_d_9404_1066" x="34" y="33.5" width="332" height="272" filterUnits="userSpaceOnUse" color-interpolation-filters="sRGB">
<feFlood flood-opacity="0" result="BackgroundImageFix"/>
<feColorMatrix in="SourceAlpha" type="matrix" values="0 0 0 0 0 0 0 0 0 0 0 0 0 0 0 0 0 0 127 0" result="hardAlpha"/>
<feMorphology radius="2" operator="dilate" in="SourceAlpha" result="effect1_dropShadow_9404_1066"/>
<feOffset dy="-0.5"/>
<feGaussianBlur stdDeviation="2"/>
<feComposite in2="hardAlpha" operator="out"/>
<feColorMatrix type="matrix" values="0 0 0 0 0 0 0 0 0 0 0 0 0 0 0 0 0 0 0.1 0"/>
<feBlend mode="normal" in2="BackgroundImageFix" result="effect1_dropShadow_9404_1066"/>
<feBlend mode="normal" in="SourceGraphic" in2="effect1_dropShadow_9404_1066" result="shape"/>
</filter>
<filter id="filter1_d_9404_1066" x="50.5" y="77" width="300" height="194" filterUnits="userSpaceOnUse" color-interpolation-filters="sRGB">
<feFlood flood-opacity="0" result="BackgroundImageFix"/>
<feColorMatrix in="SourceAlpha" type="matrix" values="0 0 0 0 0 0 0 0 0 0 0 0 0 0 0 0 0 0 127 0" result="hardAlpha"/>
<feOffset dx="0.5" dy="1"/>
<feGaussianBlur stdDeviation="5"/>
<feComposite in2="hardAlpha" operator="out"/>
<feColorMatrix type="matrix" values="0 0 0 0 0 0 0 0 0 0 0 0 0 0 0 0 0 0 0.15 0"/>
<feBlend mode="normal" in2="BackgroundImageFix" result="effect1_dropShadow_9404_1066"/>
<feBlend mode="normal" in="SourceGraphic" in2="effect1_dropShadow_9404_1066" result="shape"/>
</filter>
<clipPath id="clip0_9404_1066">
<rect width="400" height="300" fill="white"/>
</clipPath>
</defs>
</svg>
