<svg width="270" height="36" viewBox="0 0 270 36" fill="none" xmlns="http://www.w3.org/2000/svg">
<path d="M20.7109 18.5C20.7109 19.2031 20.1641 19.75 19.5 19.75H7.50781L11.6094 23.8906C12.1172 24.3594 12.1172 25.1797 11.6094 25.6484C11.375 25.8828 11.0625 26 10.75 26C10.3984 26 10.0859 25.8828 9.85156 25.6484L3.60156 19.3984C3.09375 18.9297 3.09375 18.1094 3.60156 17.6406L9.85156 11.3906C10.3203 10.8828 11.1406 10.8828 11.6094 11.3906C12.1172 11.8594 12.1172 12.6797 11.6094 13.1484L7.50781 17.25H19.5C20.1641 17.25 20.7109 17.8359 20.7109 18.5Z" fill="#26374A"/>
<rect x="33" width="36" height="36" rx="3" fill="#A8ADB4"/>
<rect x="78" width="36" height="36" rx="3" fill="#31455C"/>
<path d="M130.938 18.5C130.938 19.7109 129.922 20.6875 128.75 20.6875C127.539 20.6875 126.562 19.7109 126.562 18.5C126.562 17.3281 127.539 16.3125 128.75 16.3125C129.922 16.3125 130.938 17.3281 130.938 18.5ZM137.188 18.5C137.188 19.7109 136.172 20.6875 135 20.6875C133.789 20.6875 132.812 19.7109 132.812 18.5C132.812 17.3281 133.789 16.3125 135 16.3125C136.172 16.3125 137.188 17.3281 137.188 18.5ZM139.062 18.5C139.062 17.3281 140.039 16.3125 141.25 16.3125C142.422 16.3125 143.438 17.3281 143.438 18.5C143.438 19.7109 142.422 20.6875 141.25 20.6875C140.039 20.6875 139.062 19.7109 139.062 18.5Z" fill="#26374A"/>
<rect x="156" width="36" height="36" rx="3" fill="#A8ADB4"/>
<rect x="201" width="36" height="36" rx="3" fill="#A8ADB4"/>
<path d="M266.359 19.3984L260.109 25.6484C259.875 25.8828 259.562 26 259.25 26C258.898 26 258.586 25.8828 258.352 25.6484C257.844 25.1797 257.844 24.3594 258.352 23.8906L262.453 19.75H250.5C249.797 19.75 249.25 19.2031 249.25 18.5C249.25 17.8359 249.797 17.25 250.5 17.25H262.453L258.352 13.1484C257.844 12.6797 257.844 11.8594 258.352 11.3906C258.82 10.8828 259.641 10.8828 260.109 11.3906L266.359 17.6406C266.867 18.1094 266.867 18.9297 266.359 19.3984Z" fill="#26374A"/>
</svg>
