<svg width="320" height="36" viewBox="0 0 320 36" fill="none" xmlns="http://www.w3.org/2000/svg">
<path d="M10.54 25.5H7.18V11.22H15.48V13.98H10.54V17.22H15.12V19.98H10.54V25.5ZM22.4589 11.22C23.7522 11.22 24.8189 11.38 25.6589 11.7C26.5122 12.0067 27.1522 12.48 27.5789 13.12C28.0056 13.7467 28.2189 14.5333 28.2189 15.48C28.2189 16.0933 28.1056 16.64 27.8789 17.12C27.6522 17.6 27.3456 18.02 26.9589 18.38C26.5856 18.74 26.1522 19.04 25.6589 19.28L29.8389 25.5H26.0189L22.7989 20.14H21.4589V25.5H18.0589V11.22H22.4589ZM22.3189 13.9H21.4589V17.48H22.3189C22.8656 17.48 23.3189 17.42 23.6789 17.3C24.0389 17.1667 24.3056 16.96 24.4789 16.68C24.6656 16.3867 24.7589 16.0267 24.7589 15.6C24.7589 15.2133 24.6722 14.9 24.4989 14.66C24.3256 14.4067 24.0589 14.22 23.6989 14.1C23.3389 13.9667 22.8789 13.9 22.3189 13.9Z" fill="#26374A"/>
<path d="M36 32H0V40H36V32Z" fill="#31455C" mask="url(#path-1-inside-1_3357_9639)"/>
<path d="M66.6094 19.3984L62.8594 23.1484C62.625 23.3828 62.3125 23.5 62 23.5C61.6484 23.5 61.3359 23.3828 61.1016 23.1484C60.5938 22.6797 60.5938 21.8594 61.1016 21.3906L62.7031 19.75H51.2578L52.8594 21.3906C53.3672 21.8594 53.3672 22.6797 52.8594 23.1484C52.625 23.3828 52.3125 23.5 52 23.5C51.6484 23.5 51.3359 23.3828 51.1016 23.1484L47.3516 19.3984C46.8438 18.9297 46.8438 18.1094 47.3516 17.6406L51.1016 13.8906C51.5703 13.3828 52.3906 13.3828 52.8594 13.8906C53.3672 14.3594 53.3672 15.1797 52.8594 15.6484L51.2578 17.25H62.7031L61.1016 15.6484C60.5938 15.1797 60.5938 14.3594 61.1016 13.8906C61.5703 13.3828 62.3906 13.3828 62.8594 13.8906L66.6094 17.6406C67.1172 18.1094 67.1172 18.9297 66.6094 19.3984Z" fill="#26374A"/>
<path d="M92.02 25.5H83.68V11.22H92.02V13.98H87.08V16.72H91.66V19.48H87.08V22.7H92.02V25.5ZM107.874 25.5H103.474L97.7138 15.04H97.6338C97.6471 15.32 97.6604 15.6267 97.6738 15.96C97.7004 16.28 97.7204 16.6133 97.7338 16.96C97.7471 17.2933 97.7604 17.6267 97.7738 17.96C97.7871 18.28 97.8004 18.5933 97.8138 18.9V25.5H94.7738V11.22H99.1538L104.894 21.56H104.954C104.94 21.28 104.927 20.9867 104.914 20.68C104.9 20.36 104.887 20.04 104.874 19.72C104.86 19.3867 104.847 19.0667 104.834 18.76C104.834 18.44 104.827 18.1333 104.814 17.84V11.22H107.874V25.5Z" fill="#26374A"/>
<path d="M114 32H78V40H114V32Z" fill="#31455C" mask="url(#path-5-inside-2_3357_9639)"/>
</svg>
