<svg width="320" height="24" viewBox="0 0 320 24" fill="none" xmlns="http://www.w3.org/2000/svg">
<rect y="2" width="129" height="20" fill="#A8ADB4"/>
<mask id="path-2-inside-1_3357_9543" fill="white">
<path d="M0 2H129V22H0V2Z"/>
</mask>
<path d="M129 18H0V26H129V18Z" fill="#31455C" mask="url(#path-2-inside-1_3357_9543)"/>
<path d="M139 21.25C138.648 21.25 138.336 21.1328 138.102 20.8984C137.594 20.4297 137.594 19.6094 138.102 19.1406L144.703 12.5L138.102 5.89844C137.594 5.42969 137.594 4.60938 138.102 4.14062C138.57 3.63281 139.391 3.63281 139.859 4.14062L147.359 11.6406C147.867 12.1094 147.867 12.9297 147.359 13.3984L139.859 20.8984C139.625 21.1328 139.312 21.25 139 21.25Z" fill="#31455C"/>
<rect x="172" y="2" width="129" height="20" fill="#A8ADB4"/>
<mask id="path-6-inside-2_3357_9543" fill="white">
<path d="M172 2H301V22H172V2Z"/>
</mask>
<path d="M301 18H172V26H301V18Z" fill="#31455C" mask="url(#path-6-inside-2_3357_9543)"/>
<path d="M311 21.25C310.648 21.25 310.336 21.1328 310.102 20.8984C309.594 20.4297 309.594 19.6094 310.102 19.1406L316.703 12.5L310.102 5.89844C309.594 5.42969 309.594 4.60938 310.102 4.14062C310.57 3.63281 311.391 3.63281 311.859 4.14062L319.359 11.6406C319.867 12.1094 319.867 12.9297 319.359 13.3984L311.859 20.8984C311.625 21.1328 311.312 21.25 311 21.25Z" fill="#31455C"/>
</svg>
