<svg width="402" height="302" viewBox="0 0 402 302" fill="none" xmlns="http://www.w3.org/2000/svg">
<g clip-path="url(#clip0_9283_7678)">
<rect width="400" height="300" transform="translate(1 1)" fill="#F1F2F3"/>
<g filter="url(#filter0_d_9283_7678)">
<path d="M41 51C41 45.4772 45.4772 41 51 41H401V301H41V51Z" fill="white"/>
<rect width="360" height="25" transform="translate(41 41)" fill="#D6D9DD" fill-opacity="0.75"/>
<rect x="53" y="48" width="12" height="12" rx="6" fill="#A8ADB4"/>
<rect x="73" y="48" width="12" height="12" rx="6" fill="#A8ADB4"/>
<rect x="93" y="48" width="12" height="12" rx="6" fill="#A8ADB4"/>
<g clip-path="url(#clip1_9283_7678)">
<rect width="360" height="55" transform="translate(41 66)" fill="#F1F2F3"/>
<rect x="62" y="82" width="90" height="24" rx="12" fill="#A8ADB4"/>
<rect x="241" y="84" width="80" height="20" rx="10" fill="#A8ADB4"/>
<rect x="341" y="84" width="80" height="20" rx="10" fill="#A8ADB4"/>
</g>
</g>
</g>
<rect x="1" y="1" width="400" height="300" stroke="#F1F2F3"/>
<defs>
<filter id="filter0_d_9283_7678" x="34" y="34.5" width="372" height="272" filterUnits="userSpaceOnUse" color-interpolation-filters="sRGB">
<feFlood flood-opacity="0" result="BackgroundImageFix"/>
<feColorMatrix in="SourceAlpha" type="matrix" values="0 0 0 0 0 0 0 0 0 0 0 0 0 0 0 0 0 0 127 0" result="hardAlpha"/>
<feMorphology radius="2" operator="dilate" in="SourceAlpha" result="effect1_dropShadow_9283_7678"/>
<feOffset dx="-1" dy="-0.5"/>
<feGaussianBlur stdDeviation="2"/>
<feComposite in2="hardAlpha" operator="out"/>
<feColorMatrix type="matrix" values="0 0 0 0 0 0 0 0 0 0 0 0 0 0 0 0 0 0 0.1 0"/>
<feBlend mode="normal" in2="BackgroundImageFix" result="effect1_dropShadow_9283_7678"/>
<feBlend mode="normal" in="SourceGraphic" in2="effect1_dropShadow_9283_7678" result="shape"/>
</filter>
<clipPath id="clip0_9283_7678">
<rect width="400" height="300" fill="white" transform="translate(1 1)"/>
</clipPath>
<clipPath id="clip1_9283_7678">
<rect width="360" height="55" fill="white" transform="translate(41 66)"/>
</clipPath>
</defs>
</svg>
