<svg width="400" height="300" viewBox="0 0 400 300" fill="none" xmlns="http://www.w3.org/2000/svg">
<rect width="400" height="300" fill="#F1F2F3"/>
<mask id="path-1-inside-1_9283_7671" fill="white">
<path d="M40 125C40 122.239 42.2386 120 45 120H350C355.523 120 360 124.477 360 130V170C360 175.523 355.523 180 350 180H45C42.2386 180 40 177.761 40 175V125Z"/>
</mask>
<path d="M40 125C40 122.239 42.2386 120 45 120H350C355.523 120 360 124.477 360 130V170C360 175.523 355.523 180 350 180H45C42.2386 180 40 177.761 40 175V125Z" fill="#FBDDDA" fill-opacity="0.75"/>
<rect x="66" y="140" width="274" height="20" rx="10" fill="#A8ADB4"/>
<path d="M40 120H360H40ZM360 180H40H360ZM45 180C37.8203 180 32 174.18 32 167V133C32 125.82 37.8203 120 45 120H48C48 120 48 122.239 48 125V175C48 177.761 48 180 48 180H45ZM360 120V180V120Z" fill="#D3080C" fill-opacity="0.75" mask="url(#path-1-inside-1_9283_7671)"/>
</svg>
