<svg width="320" height="27" viewBox="0 0 320 27" fill="none" xmlns="http://www.w3.org/2000/svg">
<g clip-path="url(#clip0_3357_9643)">
<rect width="13.5" height="27" fill="#FF0000"/>
<path d="M27.0205 2.53125L25.2528 6.13909C25.089 6.45207 24.8057 6.40736 24.5396 6.24227L22.8606 5.26894L23.9458 10.6412C24.1232 11.329 23.5567 11.642 23.1575 11.1639L20.8984 8.61884L20.2602 9.9361C20.0964 10.28 19.919 10.4314 19.2808 10.28L16.9944 9.78821L17.8851 12.6944C18.0182 13.1312 18.0045 13.3376 17.752 13.5336L16.875 14.0736L21.615 17.9841C22.0177 18.328 21.9699 18.672 21.7925 19.181L21.2738 20.512L25.2971 19.7347C26.1742 19.5524 26.5461 19.5387 26.5461 20.0305L26.3687 24.4689H27.6723L27.4948 20.0167C27.5085 19.5834 27.8804 19.5834 28.4162 19.7175L32.7535 20.5086L32.3236 19.1775C32.1461 18.6238 31.9823 18.4725 32.4566 17.9807L37.125 14.0151L36.3231 13.6127C35.9067 13.4304 36.0842 13.1175 36.1729 12.7426V12.6807L36.9305 9.80884L34.6748 10.2869L34.6644 10.2888C34.2805 10.3601 33.9906 10.414 33.7978 10.0152L33.2176 8.68419L31.0336 11.0367C30.4364 11.697 29.887 11.4116 30.0952 10.4382L31.0916 5.48218L29.5594 6.24571C29.2045 6.42456 29.0236 6.45551 28.8018 6.08062L27.0205 2.53125Z" fill="#FF0000"/>
<rect x="40.5" width="13.5" height="27" fill="#FF0000"/>
</g>
<rect x="78" y="0.5" width="93" height="11" fill="#A8ADB4"/>
<rect x="78" y="15.5" width="80" height="11" fill="#A8ADB4"/>
<rect x="195" y="0.5" width="118" height="11" fill="#A8ADB4"/>
<rect x="195" y="15.5" width="80" height="11" fill="#A8ADB4"/>
<defs>
<clipPath id="clip0_3357_9643">
<rect width="54" height="27" fill="white"/>
</clipPath>
</defs>
</svg>
