<svg width="320" height="184" viewBox="0 0 320 184" fill="none" xmlns="http://www.w3.org/2000/svg">
<rect width="320" height="54" fill="#26374A"/>
<rect x="17" y="17" width="61" height="20" stroke="white" stroke-width="4"/>
<rect x="95" y="15" width="208" height="24" fill="#6584A6"/>
<rect width="320" height="68" transform="translate(0 54)" fill="white"/>
<g clip-path="url(#clip0_3357_9629)">
<rect x="13" y="75" width="13.5" height="27" fill="#FF0000"/>
<path d="M40.0205 77.5311L38.2528 81.139C38.089 81.452 37.8057 81.4073 37.5396 81.2422L35.8606 80.2688L36.9458 85.641C37.1232 86.3289 36.5567 86.6419 36.1575 86.1638L33.8984 83.6187L33.2602 84.936C33.0964 85.2799 32.919 85.4313 32.2808 85.2799L29.9944 84.7881L30.8851 87.6943C31.0182 88.1311 31.0045 88.3375 30.752 88.5335L29.875 89.0735L34.615 92.984C35.0177 93.3279 34.9699 93.6719 34.7925 94.1809L34.2738 95.5119L38.2971 94.7346C39.1742 94.5523 39.5461 94.5386 39.5461 95.0304L39.3687 99.4687H40.6723L40.4948 95.0166C40.5085 94.5833 40.8804 94.5833 41.4162 94.7174L45.7535 95.5084L45.3236 94.1774C45.1461 93.6237 44.9823 93.4724 45.4566 92.9805L50.125 89.015L49.3231 88.6126C48.9067 88.4303 49.0842 88.1174 49.1729 87.7425V87.6806L49.9305 84.8087L47.6748 85.2868L47.6644 85.2887C47.2805 85.36 46.9906 85.4139 46.7978 85.0151L46.2176 83.6841L44.0336 86.0366C43.4364 86.6969 42.887 86.4115 43.0952 85.4381L44.0916 80.4821L42.5594 81.2456C42.2045 81.4244 42.0236 81.4554 41.8018 81.0805L40.0205 77.5311Z" fill="#FF0000"/>
<rect x="53.5" y="75" width="13.5" height="27" fill="#FF0000"/>
</g>
<rect x="278" y="79" width="24" height="20" fill="#A8ADB4"/>
<mask id="path-7-inside-1_3357_9629" fill="white">
<path d="M278 80H302V100H278V80Z"/>
</mask>
<path d="M302 96H278V104H302V96Z" fill="#31455C" mask="url(#path-7-inside-1_3357_9629)"/>
<rect x="78" y="77" width="82" height="8" fill="#A8ADB4"/>
<rect x="78" y="91" width="66" height="8" fill="#A8ADB4"/>
<rect width="320" height="62" transform="translate(0 122)" fill="#F1F2F3"/>
<rect width="320" height="62" transform="translate(0 122)" fill="#F1F2F3"/>
<rect x="11" y="140.5" width="100" height="25" fill="#31455C"/>
<rect x="173" y="143" width="50" height="20" fill="#A8ADB4"/>
<rect x="259" y="143" width="50" height="20" fill="#A8ADB4"/>
<path d="M309 180H259V188H309V180Z" fill="#31455C" mask="url(#path-13-inside-2_3357_9629)"/>
<defs>
<clipPath id="clip0_3357_9629">
<rect width="54" height="27" fill="white" transform="translate(13 75)"/>
</clipPath>
</defs>
</svg>
