<svg width="320" height="220" viewBox="0 0 320 220" fill="none" xmlns="http://www.w3.org/2000/svg">
<rect width="320" height="137" fill="#26374A"/>
<rect width="320" height="83" transform="translate(0 137)" fill="#F1F2F3"/>
<path d="M296.833 164.179H301.302V173.098H296.833V164.179ZM289.098 168.639L288.84 168.725C288.84 168.725 290.387 170.011 290.387 170.097C290.473 170.183 290.559 170.183 290.473 170.44C290.387 170.697 290.301 170.954 290.301 170.954C290.301 170.954 291.676 170.697 291.848 170.611C292.02 170.611 292.106 170.611 292.106 170.783C292.106 170.954 292.02 172.412 292.02 172.412H292.45C292.45 172.412 292.364 170.869 292.364 170.783C292.364 170.611 292.45 170.611 292.621 170.611C292.793 170.611 294.168 170.954 294.168 170.954C294.168 170.954 294.083 170.611 293.997 170.44C293.911 170.183 293.997 170.183 294.083 170.097C294.168 170.011 295.63 168.725 295.63 168.725L295.372 168.639C295.2 168.553 295.286 168.467 295.286 168.382C295.286 168.296 295.544 167.438 295.544 167.438C295.544 167.438 294.856 167.61 294.77 167.61C294.684 167.61 294.598 167.61 294.598 167.524C294.598 167.438 294.426 167.095 294.426 167.095C294.426 167.095 293.653 167.953 293.567 168.039C293.395 168.21 293.223 168.039 293.309 167.867C293.309 167.696 293.739 165.895 293.739 165.895C293.739 165.895 293.309 166.152 293.137 166.238C292.965 166.323 292.879 166.323 292.879 166.152C292.793 165.98 292.278 165.037 292.278 164.951C292.278 164.951 291.762 165.98 291.676 166.152C291.59 166.323 291.504 166.323 291.418 166.238C291.246 166.152 290.817 165.895 290.817 165.895C290.817 165.895 291.246 167.696 291.246 167.867C291.246 168.039 291.16 168.124 290.988 168.039L290.129 167.095C290.129 167.095 290.043 167.353 289.957 167.438C289.957 167.524 289.871 167.61 289.785 167.524C289.613 167.524 288.926 167.353 288.926 167.353C288.926 167.353 289.184 168.21 289.27 168.296C289.27 168.382 289.27 168.553 289.098 168.639ZM283.339 164.179H287.808V173.098H283.339V164.179Z" fill="#FF0000"/>
<path d="M302.304 190.933C301.96 191.705 301.273 191.963 300.843 191.963C300.327 191.963 298.78 191.877 298.78 187.846C298.78 187.846 298.78 179.699 298.78 179.184C298.78 176.526 296.718 174.382 291.389 174.382C285.631 174.382 285.545 177.212 285.545 177.898C285.459 178.67 285.888 179.527 287.349 179.527C288.639 179.527 288.982 178.07 289.154 177.555C289.326 176.955 289.412 175.24 291.733 175.24C293.709 175.24 294.913 176.955 294.999 179.442C294.999 179.871 294.999 180.128 294.999 180.385C294.999 180.557 294.999 180.642 294.999 180.814V180.9C294.827 181.757 294.397 182.186 293.624 182.529C292.592 183.044 289.584 183.472 289.24 183.558C288.037 183.815 284.685 184.673 284.771 188.189C284.857 191.62 288.295 192.82 290.701 192.734C293.022 192.649 294.397 191.705 294.999 191.191C295.342 190.933 295.342 190.933 295.6 191.276C295.944 191.62 297.061 192.734 299.726 192.734C302.476 192.734 302.82 191.448 302.992 191.019C303.078 190.762 302.476 190.505 302.304 190.933ZM291.561 191.877C289.154 191.877 288.553 189.904 288.553 188.875C288.553 187.932 289.068 185.959 291.475 184.587C291.475 184.587 292.592 183.901 294.741 183.044C294.827 183.044 294.913 183.044 294.913 183.044C294.913 183.044 294.999 183.129 294.999 183.215V183.301V183.387V186.989C294.999 189.819 293.624 191.877 291.561 191.877ZM283.654 191.791C283.31 191.705 281.161 191.963 281.161 185.445C281.161 178.927 281.161 164.948 281.161 164.948C281.161 164.691 281.161 164.005 280.388 164.005C279.614 164.005 274.458 164.262 274.114 164.348C273.77 164.348 273.512 164.777 274.114 164.777C274.715 164.863 277.466 165.034 277.466 169.579C277.466 171.809 277.466 174.039 277.466 175.668C277.466 175.754 277.466 175.84 277.466 175.84C277.466 176.011 277.466 176.097 277.38 176.183C277.38 176.183 277.38 176.183 277.38 176.269C277.294 176.354 277.208 176.269 276.95 176.097C276.52 175.754 274.544 174.553 272.051 174.553C268.012 174.553 263.027 177.469 263.027 183.472C263.027 189.904 267.582 192.992 272.309 192.992C274.629 192.992 276.262 191.963 276.864 191.62C277.552 191.191 277.466 191.276 277.552 191.877C277.638 192.306 277.552 193.163 278.755 193.077C280.044 192.906 283.138 192.563 283.74 192.477C284.341 192.22 284.169 191.877 283.654 191.791ZM272.996 192.048C269.215 192.048 267.238 187.589 267.238 183.301C267.238 178.584 269.902 175.411 272.739 175.583C276.434 175.84 277.38 178.756 277.466 183.987C277.466 184.33 277.466 184.673 277.466 185.102C277.38 190.247 275.231 192.048 272.996 192.048ZM262.941 190.933C262.597 191.705 261.909 191.963 261.48 191.963C260.964 191.963 259.417 191.877 259.417 187.846C259.417 187.846 259.417 179.699 259.417 179.184C259.417 176.526 257.354 174.382 252.026 174.382C246.267 174.382 246.181 177.212 246.181 177.898C246.095 178.67 246.525 179.527 247.986 179.527C249.275 179.527 249.619 178.07 249.791 177.555C249.963 176.955 250.049 175.24 252.369 175.24C254.346 175.24 255.635 176.955 255.635 179.527V179.613C255.635 179.699 255.635 179.785 255.635 179.785V180.042C255.635 180.128 255.635 180.299 255.635 180.385C255.549 181.671 255.206 182.1 254.174 182.615C253.143 183.129 250.135 183.558 249.791 183.644C248.588 183.901 245.236 184.759 245.322 188.275C245.408 191.705 248.846 192.906 251.252 192.82C253.573 192.734 254.948 191.791 255.549 191.276C255.893 191.019 255.893 191.019 256.151 191.362C256.495 191.705 257.612 192.82 260.276 192.82C263.027 192.82 263.371 191.534 263.542 191.105C263.714 190.762 263.199 190.505 262.941 190.933ZM252.284 191.877C249.877 191.877 249.275 189.904 249.275 188.875C249.275 187.932 249.791 185.959 252.198 184.587C252.198 184.587 253.315 183.901 255.464 183.044C255.549 183.044 255.635 183.044 255.635 183.044V183.129C255.635 183.215 255.635 183.301 255.635 183.472V183.387C255.635 183.387 255.635 183.387 255.635 183.472V187.074C255.635 189.819 254.26 191.877 252.284 191.877ZM244.033 191.791C243.345 191.62 242.142 190.848 242.142 187.074V180.214C242.142 178.584 242.314 174.382 235.868 174.382C232.516 174.382 230.625 176.097 230.453 176.183C230.195 176.44 230.023 176.526 229.938 176.097C229.852 175.754 229.68 175.24 229.594 174.896C229.508 174.639 229.336 174.382 228.734 174.468C228.133 174.553 224.351 175.154 223.663 175.325C223.062 175.497 223.234 175.754 223.663 175.84C224.093 175.926 226.156 176.097 226.156 179.613C226.156 183.129 226.156 186.989 226.156 186.989C226.156 191.276 225.296 191.62 224.523 191.877C223.492 192.134 224.007 192.477 224.437 192.477C224.437 192.477 232.086 192.477 232.258 192.477C232.774 192.477 233.032 191.963 232 191.791C230.969 191.62 230.023 191.019 230.023 187.675C230.023 187.332 230.023 183.644 230.023 182.958C230.023 181.157 229.594 175.668 234.579 175.583C238.102 175.497 238.446 178.413 238.446 180.299V187.589C238.446 190.59 237.587 191.534 236.555 191.705C235.61 191.877 235.782 192.306 236.298 192.306C236.469 192.306 244.291 192.306 244.291 192.306C244.72 192.477 245.15 192.048 244.033 191.791ZM223.148 190.933C222.804 191.705 222.116 191.963 221.687 191.963C221.171 191.963 219.624 191.877 219.624 187.846C219.624 187.846 219.624 179.699 219.624 179.184C219.624 176.526 217.561 174.382 212.233 174.382C206.474 174.382 206.388 177.212 206.388 177.898C206.302 178.67 206.732 179.527 208.193 179.527C209.482 179.527 209.826 178.07 209.998 177.555C210.17 176.955 210.256 175.24 212.576 175.24C214.553 175.24 215.756 176.955 215.842 179.442C215.842 179.871 215.842 180.128 215.842 180.385C215.842 180.557 215.842 180.728 215.756 180.814V180.9C215.585 181.757 215.155 182.186 214.381 182.529C213.35 183.044 210.342 183.472 209.998 183.558C208.795 183.815 205.443 184.673 205.529 188.189C205.615 191.62 209.053 192.82 211.459 192.734C213.78 192.649 215.155 191.705 215.756 191.191C216.1 190.933 216.1 190.933 216.358 191.276C216.702 191.62 217.819 192.734 220.483 192.734C223.234 192.734 223.578 191.448 223.749 191.019C223.921 190.762 223.32 190.505 223.148 190.933ZM212.405 191.877C209.998 191.877 209.396 189.904 209.396 188.875C209.396 187.846 209.912 185.959 212.319 184.587C212.319 184.587 213.436 183.901 215.585 183.044C215.671 183.044 215.756 183.044 215.756 183.044C215.756 183.044 215.842 183.129 215.842 183.215C215.842 183.215 215.842 183.301 215.842 183.387V183.472V187.074C215.842 189.819 214.467 191.877 212.405 191.877ZM204.154 184.416C203.294 187.16 201.661 191.62 195.731 191.791C189.543 191.877 185.847 187.675 185.675 179.871C185.418 171.552 189.027 165.206 194.614 165.034C200.888 164.948 203.122 172.409 203.208 173.524C203.294 174.382 204.412 174.296 204.412 173.439C204.412 173.01 203.896 165.634 203.724 164.777C203.552 163.919 202.865 164.262 202.693 164.605C202.607 164.863 202.779 164.348 202.435 165.12C202.091 165.892 201.146 165.463 200.802 165.377C199.77 164.948 197.794 163.919 194.614 164.005C187.308 164.177 179.831 169.579 180.003 179.013C180.175 188.189 187.566 193.335 194.442 193.249C200.716 193.163 204.24 189.218 205.271 184.673C205.615 183.558 204.498 183.301 204.154 184.416Z" fill="black"/>
<rect x="11" y="168" width="113" height="23" fill="#A8ADB4"/>
<rect x="10" y="19" width="71" height="17" fill="#D9D9D9"/>
<rect x="10" y="67" width="71" height="17" fill="#D9D9D9"/>
<rect x="10" y="99" width="114" height="17" fill="#D9D9D9"/>
<rect x="179" y="19" width="71" height="17" fill="#D9D9D9"/>
<rect x="179" y="67" width="71" height="17" fill="#D9D9D9"/>
<rect x="179" y="99" width="114" height="17" fill="#D9D9D9"/>
</svg>
