<svg width="221" height="44" viewBox="0 0 221 44" fill="none" xmlns="http://www.w3.org/2000/svg">
<path d="M3.97968 22.4848C3.97968 12.5595 12.0044 4.46443 22 4.46443C31.9253 4.46443 40.0203 12.5595 40.0203 22.4848C40.0203 32.4804 31.9253 40.5051 22 40.5051C12.0044 40.5051 3.97968 32.4804 3.97968 22.4848ZM30.0951 19.3875C30.8694 18.6132 30.8694 17.4165 30.0951 16.6422C29.3208 15.8679 28.1241 15.8679 27.3498 16.6422L19.7475 24.2446L16.5798 21.1473C15.8055 20.373 14.6089 20.373 13.8345 21.1473C13.0602 21.9216 13.0602 23.1183 13.8345 23.8926L18.3396 28.3977C19.1139 29.172 20.3106 29.172 21.0849 28.3977L30.0951 19.3875Z" fill="#289F58"/>
<path d="M98.598 33.8179L83.6045 8.1952C82.4078 6.22423 79.5218 6.22423 78.3955 8.1952L63.3316 33.8179C62.2054 35.7888 63.6132 38.2525 65.9361 38.2525H95.9935C98.3164 38.2525 99.7242 35.7888 98.598 33.8179ZM79.3106 16.2903C79.3106 15.3752 80.0145 14.6009 81 14.6009C81.9151 14.6009 82.6894 15.3752 82.6894 16.2903V25.3004C82.6894 26.2859 81.9151 26.9898 81 26.9898C80.1553 26.9898 79.3106 26.2859 79.3106 25.3004V16.2903ZM81 33.7475C79.7329 33.7475 78.7475 32.762 78.7475 31.5653C78.7475 30.3686 79.7329 29.3832 81 29.3832C82.1967 29.3832 83.1821 30.3686 83.1821 31.5653C83.1821 32.762 82.1967 33.7475 81 33.7475Z" fill="#B3800F"/>
<path d="M140 4.46443C130.004 4.46443 121.98 12.5595 121.98 22.4848C121.98 32.4804 130.004 40.5051 140 40.5051C149.925 40.5051 158.02 32.4804 158.02 22.4848C158.02 12.5595 149.925 4.46443 140 4.46443ZM140 13.4746C141.197 13.4746 142.253 14.5305 142.253 15.7271C142.253 16.9942 141.197 17.9797 140 17.9797C138.733 17.9797 137.747 16.9942 137.747 15.7271C137.747 14.5305 138.733 13.4746 140 13.4746ZM142.816 31.4949H137.184C136.199 31.4949 135.495 30.791 135.495 29.8055C135.495 28.8904 136.199 28.1161 137.184 28.1161H138.311V23.611H137.747C136.762 23.611 136.058 22.9071 136.058 21.9216C136.058 21.0065 136.762 20.2322 137.747 20.2322H140C140.915 20.2322 141.689 21.0065 141.689 21.9216V28.1161H142.816C143.731 28.1161 144.505 28.8904 144.505 29.8055C144.505 30.791 143.731 31.4949 142.816 31.4949Z" fill="#6584A6"/>
<path d="M194.495 38.2525C193.861 38.2525 193.298 38.0414 192.876 37.619C191.961 36.7743 191.961 35.2961 192.876 34.4514L204.772 22.4848L192.876 10.5885C191.961 9.74382 191.961 8.26559 192.876 7.42089C193.721 6.5058 195.199 6.5058 196.044 7.42089L209.559 20.9361C210.474 21.7808 210.474 23.2591 209.559 24.1038L196.044 37.619C195.621 38.0414 195.058 38.2525 194.495 38.2525Z" fill="#31455C"/>
</svg>
