<svg width="400" height="300" viewBox="0 0 400 300" fill="none" xmlns="http://www.w3.org/2000/svg">
<rect width="400" height="300" fill="#F1F2F3"/>
<path d="M41 0H360V250C360 255.523 355.523 260 350 260H51C45.4772 260 41 255.523 41 250V0Z" fill="white"/>
<rect x="61" y="140" width="90" height="20" rx="10" fill="#7D828B"/>
<rect x="61" y="20" width="279" height="16" rx="8" fill="#D6D9DD" fill-opacity="0.75"/>
<rect x="61" y="50" width="279" height="16" rx="8" fill="#D6D9DD" fill-opacity="0.75"/>
<rect x="61" y="80" width="279" height="16" rx="8" fill="#D6D9DD" fill-opacity="0.75"/>
<rect width="319" height="80" transform="translate(41 180)" fill="#D6D9DD" fill-opacity="0.75"/>
<path d="M336.371 208.888H339.809V215.748H336.371V208.888ZM330.421 212.318L330.223 212.384C330.223 212.384 331.413 213.374 331.413 213.44C331.479 213.506 331.545 213.506 331.479 213.703C331.413 213.901 331.347 214.099 331.347 214.099C331.347 214.099 332.405 213.901 332.537 213.835C332.669 213.835 332.735 213.835 332.735 213.967C332.735 214.099 332.669 215.221 332.669 215.221H333C333 215.221 332.934 214.033 332.934 213.967C332.934 213.835 333 213.835 333.132 213.835C333.264 213.835 334.322 214.099 334.322 214.099C334.322 214.099 334.256 213.835 334.19 213.703C334.124 213.506 334.19 213.506 334.256 213.44C334.322 213.374 335.446 212.384 335.446 212.384L335.247 212.318C335.115 212.252 335.181 212.186 335.181 212.12C335.181 212.054 335.38 211.395 335.38 211.395C335.38 211.395 334.851 211.526 334.785 211.526C334.719 211.526 334.652 211.526 334.652 211.46C334.652 211.395 334.52 211.131 334.52 211.131C334.52 211.131 333.925 211.79 333.859 211.856C333.727 211.988 333.595 211.856 333.661 211.724C333.661 211.592 333.991 210.207 333.991 210.207C333.991 210.207 333.661 210.405 333.529 210.471C333.396 210.537 333.33 210.537 333.33 210.405C333.264 210.273 332.867 209.547 332.867 209.481C332.867 209.481 332.471 210.273 332.405 210.405C332.338 210.537 332.272 210.537 332.206 210.471C332.074 210.405 331.743 210.207 331.743 210.207C331.743 210.207 332.074 211.592 332.074 211.724C332.074 211.856 332.008 211.922 331.876 211.856L331.215 211.131C331.215 211.131 331.148 211.329 331.082 211.395C331.082 211.46 331.016 211.526 330.95 211.46C330.818 211.46 330.289 211.329 330.289 211.329C330.289 211.329 330.487 211.988 330.553 212.054C330.553 212.12 330.553 212.252 330.421 212.318ZM325.992 208.888H329.43V215.748H325.992V208.888Z" fill="#FF0000" fill-opacity="0.25"/>
<path d="M340.58 229.468C340.316 230.062 339.787 230.26 339.456 230.26C339.059 230.26 337.869 230.194 337.869 227.093C337.869 227.093 337.869 220.826 337.869 220.43C337.869 218.385 336.283 216.736 332.184 216.736C327.754 216.736 327.688 218.913 327.688 219.441C327.622 220.035 327.953 220.694 329.076 220.694C330.068 220.694 330.333 219.573 330.465 219.177C330.597 218.715 330.663 217.396 332.448 217.396C333.969 217.396 334.894 218.715 334.96 220.628C334.96 220.958 334.96 221.156 334.96 221.354C334.96 221.486 334.96 221.552 334.96 221.684V221.75C334.828 222.409 334.498 222.739 333.903 223.003C333.109 223.399 330.795 223.729 330.531 223.795C329.605 223.993 327.027 224.652 327.093 227.357C327.159 229.996 329.804 230.919 331.655 230.853C333.44 230.787 334.498 230.062 334.96 229.666C335.225 229.468 335.225 229.468 335.423 229.732C335.688 229.996 336.547 230.853 338.597 230.853C340.712 230.853 340.977 229.864 341.109 229.534C341.175 229.336 340.712 229.138 340.58 229.468ZM332.316 230.194C330.465 230.194 330.002 228.676 330.002 227.885C330.002 227.159 330.399 225.642 332.25 224.586C332.25 224.586 333.109 224.059 334.762 223.399C334.828 223.399 334.894 223.399 334.894 223.399C334.894 223.399 334.96 223.465 334.96 223.531V223.597V223.663V226.433C334.96 228.61 333.903 230.194 332.316 230.194ZM326.234 230.128C325.969 230.062 324.316 230.26 324.316 225.246C324.316 220.232 324.316 209.48 324.316 209.48C324.316 209.282 324.316 208.754 323.721 208.754C323.126 208.754 319.16 208.952 318.895 209.018C318.631 209.018 318.432 209.348 318.895 209.348C319.358 209.414 321.474 209.546 321.474 213.042C321.474 214.757 321.474 216.472 321.474 217.726C321.474 217.792 321.474 217.858 321.474 217.858C321.474 217.989 321.474 218.055 321.407 218.121C321.407 218.121 321.407 218.121 321.407 218.187C321.341 218.253 321.275 218.187 321.077 218.055C320.746 217.792 319.226 216.868 317.308 216.868C314.201 216.868 310.367 219.111 310.367 223.729C310.367 228.676 313.871 231.051 317.507 231.051C319.292 231.051 320.548 230.26 321.011 229.996C321.54 229.666 321.474 229.732 321.54 230.194C321.606 230.524 321.54 231.183 322.465 231.117C323.457 230.985 325.837 230.721 326.3 230.655C326.763 230.458 326.63 230.194 326.234 230.128ZM318.036 230.326C315.127 230.326 313.606 226.895 313.606 223.597C313.606 219.969 315.656 217.528 317.837 217.66C320.68 217.858 321.407 220.1 321.474 224.125C321.474 224.388 321.474 224.652 321.474 224.982C321.407 228.94 319.755 230.326 318.036 230.326ZM310.301 229.468C310.036 230.062 309.507 230.26 309.177 230.26C308.78 230.26 307.59 230.194 307.59 227.093C307.59 227.093 307.59 220.826 307.59 220.43C307.59 218.385 306.003 216.736 301.904 216.736C297.475 216.736 297.409 218.913 297.409 219.441C297.343 220.035 297.673 220.694 298.797 220.694C299.789 220.694 300.053 219.573 300.185 219.177C300.318 218.715 300.384 217.396 302.169 217.396C303.689 217.396 304.681 218.715 304.681 220.694V220.76C304.681 220.826 304.681 220.892 304.681 220.892V221.09C304.681 221.156 304.681 221.288 304.681 221.354C304.615 222.343 304.35 222.673 303.557 223.069C302.764 223.465 300.45 223.795 300.185 223.861C299.26 224.059 296.681 224.718 296.748 227.423C296.814 230.062 299.458 230.985 301.309 230.919C303.094 230.853 304.152 230.128 304.615 229.732C304.879 229.534 304.879 229.534 305.078 229.798C305.342 230.062 306.202 230.919 308.251 230.919C310.367 230.919 310.631 229.93 310.763 229.6C310.896 229.336 310.499 229.138 310.301 229.468ZM302.103 230.194C300.252 230.194 299.789 228.676 299.789 227.885C299.789 227.159 300.185 225.642 302.037 224.586C302.037 224.586 302.896 224.059 304.549 223.399C304.615 223.399 304.681 223.399 304.681 223.399V223.465C304.681 223.531 304.681 223.597 304.681 223.729V223.663C304.681 223.663 304.681 223.663 304.681 223.729V226.499C304.681 228.61 303.623 230.194 302.103 230.194ZM295.756 230.128C295.227 229.996 294.301 229.402 294.301 226.499V221.222C294.301 219.969 294.434 216.736 289.475 216.736C286.897 216.736 285.442 218.055 285.31 218.121C285.112 218.319 284.98 218.385 284.913 218.055C284.847 217.792 284.715 217.396 284.649 217.132C284.583 216.934 284.451 216.736 283.988 216.802C283.525 216.868 280.616 217.33 280.087 217.462C279.624 217.594 279.757 217.792 280.087 217.858C280.418 217.924 282.005 218.055 282.005 220.76C282.005 223.465 282.005 226.433 282.005 226.433C282.005 229.732 281.343 229.996 280.748 230.194C279.955 230.392 280.352 230.655 280.682 230.655C280.682 230.655 286.566 230.655 286.699 230.655C287.095 230.655 287.294 230.26 286.5 230.128C285.707 229.996 284.98 229.534 284.98 226.961C284.98 226.697 284.98 223.861 284.98 223.333C284.98 221.948 284.649 217.726 288.484 217.66C291.194 217.594 291.459 219.837 291.459 221.288V226.895C291.459 229.204 290.797 229.93 290.004 230.062C289.277 230.194 289.409 230.524 289.806 230.524C289.938 230.524 295.954 230.524 295.954 230.524C296.285 230.655 296.615 230.326 295.756 230.128ZM279.691 229.468C279.426 230.062 278.897 230.26 278.567 230.26C278.17 230.26 276.98 230.194 276.98 227.093C276.98 227.093 276.98 220.826 276.98 220.43C276.98 218.385 275.393 216.736 271.294 216.736C266.865 216.736 266.799 218.913 266.799 219.441C266.733 220.035 267.063 220.694 268.187 220.694C269.179 220.694 269.443 219.573 269.575 219.177C269.708 218.715 269.774 217.396 271.559 217.396C273.079 217.396 274.005 218.715 274.071 220.628C274.071 220.958 274.071 221.156 274.071 221.354C274.071 221.486 274.071 221.618 274.005 221.684V221.75C273.873 222.409 273.542 222.739 272.947 223.003C272.154 223.399 269.84 223.729 269.575 223.795C268.65 223.993 266.071 224.652 266.138 227.357C266.204 229.996 268.848 230.919 270.699 230.853C272.484 230.787 273.542 230.062 274.005 229.666C274.269 229.468 274.269 229.468 274.468 229.732C274.732 229.996 275.592 230.853 277.641 230.853C279.757 230.853 280.021 229.864 280.153 229.534C280.286 229.336 279.823 229.138 279.691 229.468ZM271.427 230.194C269.575 230.194 269.113 228.676 269.113 227.885C269.113 227.093 269.509 225.642 271.36 224.586C271.36 224.586 272.22 224.059 273.873 223.399C273.939 223.399 274.005 223.399 274.005 223.399C274.005 223.399 274.071 223.465 274.071 223.531C274.071 223.531 274.071 223.597 274.071 223.663V223.729V226.499C274.071 228.61 273.013 230.194 271.427 230.194ZM265.08 224.454C264.419 226.565 263.163 229.996 258.601 230.128C253.841 230.194 250.998 226.961 250.866 220.958C250.667 214.559 253.444 209.677 257.741 209.546C262.568 209.48 264.286 215.219 264.353 216.076C264.419 216.736 265.278 216.67 265.278 216.01C265.278 215.681 264.881 210.007 264.749 209.348C264.617 208.688 264.088 208.952 263.956 209.216C263.89 209.414 264.022 209.018 263.758 209.611C263.493 210.205 262.766 209.875 262.501 209.809C261.708 209.48 260.187 208.688 257.741 208.754C252.122 208.886 246.37 213.042 246.502 220.298C246.634 227.357 252.32 231.315 257.609 231.249C262.435 231.183 265.146 228.149 265.939 224.652C266.204 223.795 265.344 223.597 265.08 224.454Z" fill="black" fill-opacity="0.25"/>
</svg>
