<svg width="320" height="198" viewBox="0 0 320 198" fill="none" xmlns="http://www.w3.org/2000/svg">
<rect x="1" y="1" width="42" height="42" rx="2" fill="white"/>
<path d="M18.0802 30.5816L10.1358 22.6372C9.65851 22.1599 9.65851 21.386 10.1358 20.9087L11.8642 19.1802C12.3415 18.7029 13.1154 18.7029 13.5927 19.1802L18.9445 24.5319L30.4074 13.0691C30.8846 12.5918 31.6586 12.5918 32.1358 13.0691L33.8643 14.7976C34.3416 15.2749 34.3416 16.0487 33.8643 16.5261L19.8087 30.5817C19.3314 31.059 18.5575 31.059 18.0802 30.5816Z" fill="black"/>
<rect x="1" y="1" width="42" height="42" rx="2" stroke="black" stroke-width="2"/>
<rect x="59" y="11" width="175" height="20" fill="#A8ADB4"/>
<rect x="59" y="39.5" width="100" height="17" fill="#A8ADB4"/>
<rect x="1" y="70" width="42" height="42" rx="2" fill="white"/>
<rect x="1" y="70" width="42" height="42" rx="2" stroke="black" stroke-width="2"/>
<rect x="59" y="80" width="175" height="20" fill="#A8ADB4"/>
<rect x="59" y="108.5" width="100" height="17" fill="#A8ADB4"/>
<rect x="1" y="139" width="42" height="42" rx="2" fill="white"/>
<rect x="1" y="139" width="42" height="42" rx="2" stroke="black" stroke-width="2"/>
<rect x="59" y="149" width="175" height="20" fill="#A8ADB4"/>
<rect x="59" y="177.5" width="100" height="17" fill="#A8ADB4"/>
</svg>
