<svg width="295" height="134" viewBox="0 0 295 134" fill="none" xmlns="http://www.w3.org/2000/svg">
<rect x="72" y="24" width="199" height="48" rx="6" fill="#26374A"/>
<path d="M89.9 56V41.72H92.06V54.14H98.16V56H89.9ZM102.503 45.22V56H100.383V45.22H102.503ZM101.463 41.12C101.783 41.12 102.063 41.2133 102.303 41.4C102.543 41.5867 102.663 41.9 102.663 42.34C102.663 42.7667 102.543 43.08 102.303 43.28C102.063 43.4667 101.783 43.56 101.463 43.56C101.116 43.56 100.823 43.4667 100.583 43.28C100.356 43.08 100.243 42.7667 100.243 42.34C100.243 41.9 100.356 41.5867 100.583 41.4C100.823 41.2133 101.116 41.12 101.463 41.12ZM107.952 44.46C107.952 44.9 107.939 45.32 107.912 45.72C107.899 46.1067 107.879 46.4133 107.852 46.64H107.952C108.259 46.1867 108.672 45.8067 109.192 45.5C109.712 45.1933 110.385 45.04 111.212 45.04C112.505 45.04 113.545 45.5067 114.332 46.44C115.132 47.3733 115.532 48.76 115.532 50.6C115.532 51.84 115.352 52.8733 114.992 53.7C114.632 54.5267 114.125 55.1533 113.472 55.58C112.819 55.9933 112.059 56.2 111.192 56.2C110.352 56.2 109.679 56.0533 109.172 55.76C108.665 55.4533 108.259 55.0933 107.952 54.68H107.792L107.392 56H105.832V40.8H107.952V44.46ZM110.712 46.76C110.019 46.76 109.472 46.8933 109.072 47.16C108.672 47.4267 108.385 47.8333 108.212 48.38C108.039 48.9267 107.952 49.62 107.952 50.46V50.62C107.952 51.86 108.152 52.8133 108.552 53.48C108.952 54.1333 109.685 54.46 110.752 54.46C111.605 54.46 112.252 54.1267 112.692 53.46C113.132 52.7933 113.352 51.8333 113.352 50.58C113.352 49.3133 113.132 48.36 112.692 47.72C112.252 47.08 111.592 46.76 110.712 46.76ZM122.474 45.02C123.421 45.02 124.234 45.22 124.914 45.62C125.594 46.0067 126.114 46.5667 126.474 47.3C126.848 48.0333 127.034 48.9 127.034 49.9V51.06H119.794C119.821 52.1667 120.108 53.0133 120.654 53.6C121.214 54.1867 121.994 54.48 122.994 54.48C123.688 54.48 124.301 54.42 124.834 54.3C125.381 54.1667 125.941 53.9733 126.514 53.72V55.48C125.981 55.72 125.434 55.9 124.874 56.02C124.328 56.14 123.674 56.2 122.914 56.2C121.874 56.2 120.954 55.9933 120.154 55.58C119.354 55.1667 118.728 54.5533 118.274 53.74C117.834 52.9133 117.614 51.9 117.614 50.7C117.614 49.4867 117.814 48.46 118.214 47.62C118.628 46.78 119.194 46.14 119.914 45.7C120.648 45.2467 121.501 45.02 122.474 45.02ZM122.474 46.66C121.714 46.66 121.101 46.9067 120.634 47.4C120.181 47.8933 119.914 48.5933 119.834 49.5H124.914C124.914 48.94 124.828 48.4467 124.654 48.02C124.481 47.5933 124.214 47.26 123.854 47.02C123.494 46.78 123.034 46.66 122.474 46.66ZM131.8 56H129.68V40.8H131.8V56ZM137.249 56H135.129V40.8H137.249V56ZM144.818 45.02C145.765 45.02 146.578 45.22 147.258 45.62C147.938 46.0067 148.458 46.5667 148.818 47.3C149.191 48.0333 149.378 48.9 149.378 49.9V51.06H142.138C142.165 52.1667 142.451 53.0133 142.998 53.6C143.558 54.1867 144.338 54.48 145.338 54.48C146.031 54.48 146.645 54.42 147.178 54.3C147.725 54.1667 148.285 53.9733 148.858 53.72V55.48C148.325 55.72 147.778 55.9 147.218 56.02C146.671 56.14 146.018 56.2 145.258 56.2C144.218 56.2 143.298 55.9933 142.498 55.58C141.698 55.1667 141.071 54.5533 140.618 53.74C140.178 52.9133 139.958 51.9 139.958 50.7C139.958 49.4867 140.158 48.46 140.558 47.62C140.971 46.78 141.538 46.14 142.258 45.7C142.991 45.2467 143.845 45.02 144.818 45.02ZM144.818 46.66C144.058 46.66 143.445 46.9067 142.978 47.4C142.525 47.8933 142.258 48.5933 142.178 49.5H147.258C147.258 48.94 147.171 48.4467 146.998 48.02C146.825 47.5933 146.558 47.26 146.198 47.02C145.838 46.78 145.378 46.66 144.818 46.66ZM148.018 40.88C147.871 41.0667 147.671 41.2933 147.418 41.56C147.178 41.8267 146.905 42.1067 146.598 42.4C146.305 42.68 146.011 42.9533 145.718 43.22C145.425 43.4733 145.158 43.6933 144.918 43.88H143.518V43.64C143.718 43.3867 143.945 43.0867 144.198 42.74C144.451 42.3933 144.698 42.04 144.938 41.68C145.178 41.3067 145.378 40.9733 145.538 40.68H148.018V40.88ZM160.919 56.2C159.625 56.2 158.579 55.7333 157.779 54.8C156.992 53.8667 156.599 52.48 156.599 50.64C156.599 48.7867 156.999 47.3867 157.799 46.44C158.599 45.4933 159.652 45.02 160.959 45.02C161.505 45.02 161.979 45.0933 162.379 45.24C162.792 45.3733 163.145 45.56 163.439 45.8C163.745 46.04 164.005 46.3067 164.219 46.6H164.339C164.312 46.4133 164.279 46.1467 164.239 45.8C164.199 45.44 164.179 45.12 164.179 44.84V40.8H166.299V56H164.639L164.279 54.56H164.179C163.979 54.8667 163.725 55.1467 163.419 55.4C163.125 55.64 162.772 55.8333 162.359 55.98C161.945 56.1267 161.465 56.2 160.919 56.2ZM161.419 54.46C162.459 54.46 163.192 54.1733 163.619 53.6C164.045 53.0133 164.259 52.14 164.259 50.98V50.66C164.259 49.3933 164.052 48.4267 163.639 47.76C163.239 47.0933 162.492 46.76 161.399 46.76C160.532 46.76 159.879 47.1133 159.439 47.82C158.999 48.5133 158.779 49.4667 158.779 50.68C158.779 51.8933 158.999 52.8267 159.439 53.48C159.879 54.1333 160.539 54.46 161.419 54.46ZM173.861 45.02C174.808 45.02 175.621 45.22 176.301 45.62C176.981 46.0067 177.501 46.5667 177.861 47.3C178.234 48.0333 178.421 48.9 178.421 49.9V51.06H171.181C171.208 52.1667 171.494 53.0133 172.041 53.6C172.601 54.1867 173.381 54.48 174.381 54.48C175.074 54.48 175.688 54.42 176.221 54.3C176.768 54.1667 177.328 53.9733 177.901 53.72V55.48C177.368 55.72 176.821 55.9 176.261 56.02C175.714 56.14 175.061 56.2 174.301 56.2C173.261 56.2 172.341 55.9933 171.541 55.58C170.741 55.1667 170.114 54.5533 169.661 53.74C169.221 52.9133 169.001 51.9 169.001 50.7C169.001 49.4867 169.201 48.46 169.601 47.62C170.014 46.78 170.581 46.14 171.301 45.7C172.034 45.2467 172.888 45.02 173.861 45.02ZM173.861 46.66C173.101 46.66 172.488 46.9067 172.021 47.4C171.568 47.8933 171.301 48.5933 171.221 49.5H176.301C176.301 48.94 176.214 48.4467 176.041 48.02C175.868 47.5933 175.601 47.26 175.241 47.02C174.881 46.78 174.421 46.66 173.861 46.66ZM188.382 44.46C188.382 44.9 188.368 45.32 188.342 45.72C188.328 46.1067 188.308 46.4133 188.282 46.64H188.382C188.688 46.1867 189.102 45.8067 189.622 45.5C190.142 45.1933 190.815 45.04 191.642 45.04C192.935 45.04 193.975 45.5067 194.762 46.44C195.562 47.3733 195.962 48.76 195.962 50.6C195.962 51.84 195.782 52.8733 195.422 53.7C195.062 54.5267 194.555 55.1533 193.902 55.58C193.248 55.9933 192.488 56.2 191.622 56.2C190.782 56.2 190.108 56.0533 189.602 55.76C189.095 55.4533 188.688 55.0933 188.382 54.68H188.222L187.822 56H186.262V40.8H188.382V44.46ZM191.142 46.76C190.448 46.76 189.902 46.8933 189.502 47.16C189.102 47.4267 188.815 47.8333 188.642 48.38C188.468 48.9267 188.382 49.62 188.382 50.46V50.62C188.382 51.86 188.582 52.8133 188.982 53.48C189.382 54.1333 190.115 54.46 191.182 54.46C192.035 54.46 192.682 54.1267 193.122 53.46C193.562 52.7933 193.782 51.8333 193.782 50.58C193.782 49.3133 193.562 48.36 193.122 47.72C192.682 47.08 192.022 46.76 191.142 46.76ZM208.164 50.6C208.164 51.4933 208.044 52.2867 207.804 52.98C207.564 53.6733 207.224 54.26 206.784 54.74C206.344 55.22 205.811 55.5867 205.184 55.84C204.557 56.08 203.851 56.2 203.064 56.2C202.344 56.2 201.677 56.08 201.064 55.84C200.451 55.5867 199.917 55.22 199.464 54.74C199.024 54.26 198.677 53.6733 198.424 52.98C198.171 52.2867 198.044 51.4867 198.044 50.58C198.044 49.3933 198.244 48.3867 198.644 47.56C199.057 46.7333 199.644 46.1067 200.404 45.68C201.177 45.24 202.084 45.02 203.124 45.02C204.111 45.02 204.977 45.24 205.724 45.68C206.484 46.1067 207.077 46.7333 207.504 47.56C207.944 48.3867 208.164 49.4 208.164 50.6ZM200.224 50.6C200.224 51.4 200.324 52.0933 200.524 52.68C200.724 53.2533 201.037 53.6933 201.464 54C201.891 54.3067 202.437 54.46 203.104 54.46C203.771 54.46 204.317 54.3067 204.744 54C205.171 53.6933 205.484 53.2533 205.684 52.68C205.884 52.0933 205.984 51.4 205.984 50.6C205.984 49.7733 205.877 49.08 205.664 48.52C205.464 47.96 205.151 47.5333 204.724 47.24C204.311 46.9333 203.764 46.78 203.084 46.78C202.084 46.78 201.357 47.1133 200.904 47.78C200.451 48.4467 200.224 49.3867 200.224 50.6ZM220.131 45.22V56H218.431L218.131 54.58H218.031C217.805 54.9533 217.511 55.26 217.151 55.5C216.791 55.74 216.398 55.9133 215.971 56.02C215.545 56.14 215.105 56.2 214.651 56.2C213.811 56.2 213.098 56.0667 212.511 55.8C211.938 55.52 211.498 55.0933 211.191 54.52C210.898 53.9333 210.751 53.1867 210.751 52.28V45.22H212.891V51.96C212.891 52.8 213.065 53.4267 213.411 53.84C213.771 54.2533 214.325 54.46 215.071 54.46C215.818 54.46 216.405 54.3133 216.831 54.02C217.258 53.7267 217.558 53.3 217.731 52.74C217.918 52.1667 218.011 51.48 218.011 50.68V45.22H220.131ZM227.329 54.48C227.609 54.48 227.896 54.4533 228.189 54.4C228.482 54.3467 228.736 54.2867 228.949 54.22V55.82C228.722 55.9267 228.416 56.0133 228.029 56.08C227.642 56.16 227.256 56.2 226.869 56.2C226.282 56.2 225.742 56.1 225.249 55.9C224.769 55.7 224.382 55.3533 224.089 54.86C223.796 54.3667 223.649 53.68 223.649 52.8V46.84H222.149V45.88L223.729 45.08L224.469 42.8H225.769V45.22H228.849V46.84H225.769V52.76C225.769 53.3467 225.909 53.78 226.189 54.06C226.482 54.34 226.862 54.48 227.329 54.48ZM240.605 50.6C240.605 51.4933 240.485 52.2867 240.245 52.98C240.005 53.6733 239.665 54.26 239.225 54.74C238.785 55.22 238.252 55.5867 237.625 55.84C236.999 56.08 236.292 56.2 235.505 56.2C234.785 56.2 234.119 56.08 233.505 55.84C232.892 55.5867 232.359 55.22 231.905 54.74C231.465 54.26 231.119 53.6733 230.865 52.98C230.612 52.2867 230.485 51.4867 230.485 50.58C230.485 49.3933 230.685 48.3867 231.085 47.56C231.499 46.7333 232.085 46.1067 232.845 45.68C233.619 45.24 234.525 45.02 235.565 45.02C236.552 45.02 237.419 45.24 238.165 45.68C238.925 46.1067 239.519 46.7333 239.945 47.56C240.385 48.3867 240.605 49.4 240.605 50.6ZM232.665 50.6C232.665 51.4 232.765 52.0933 232.965 52.68C233.165 53.2533 233.479 53.6933 233.905 54C234.332 54.3067 234.879 54.46 235.545 54.46C236.212 54.46 236.759 54.3067 237.185 54C237.612 53.6933 237.925 53.2533 238.125 52.68C238.325 52.0933 238.425 51.4 238.425 50.6C238.425 49.7733 238.319 49.08 238.105 48.52C237.905 47.96 237.592 47.5333 237.165 47.24C236.752 46.9333 236.205 46.78 235.525 46.78C234.525 46.78 233.799 47.1133 233.345 47.78C232.892 48.4467 232.665 49.3867 232.665 50.6ZM248.753 45.02C250.006 45.02 250.966 45.3333 251.633 45.96C252.299 46.5867 252.633 47.5933 252.633 48.98V56H250.533V49.28C250.533 48.44 250.353 47.8133 249.993 47.4C249.646 46.9733 249.086 46.76 248.313 46.76C247.219 46.76 246.459 47.0867 246.033 47.74C245.619 48.3933 245.413 49.3333 245.413 50.56V56H243.293V45.22H244.973L245.273 46.66H245.393C245.633 46.2867 245.926 45.98 246.273 45.74C246.619 45.5 247.006 45.32 247.433 45.2C247.859 45.08 248.299 45.02 248.753 45.02Z" fill="white"/>
<g clip-path="url(#clip0_6572_1185)">
<rect x="24" y="48" width="48" height="1" fill="#C54600"/>
<g clip-path="url(#clip1_6572_1185)">
<rect x="24" y="36" width="24" height="24" rx="12" fill="#C54600"/>
<path d="M37.8302 42.8182V53H35.6775V44.8615H35.6178L33.2861 46.3232V44.4141L35.8067 42.8182H37.8302Z" fill="white"/>
</g>
</g>
<g clip-path="url(#clip2_6572_1185)">
<rect x="172" y="60" width="1" height="50" fill="#C54600"/>
<rect x="90" y="61" width="1" height="163" transform="rotate(-90 90 61)" fill="#C54600"/>
<g clip-path="url(#clip3_6572_1185)">
<rect x="160" y="86" width="24" height="24" rx="12" fill="#C54600"/>
<path d="M168.416 103V101.449L172.04 98.093C172.349 97.7947 172.607 97.5263 172.816 97.2876C173.028 97.049 173.189 96.8153 173.298 96.5866C173.408 96.3546 173.462 96.1044 173.462 95.8359C173.462 95.5376 173.394 95.2808 173.258 95.0653C173.123 94.8466 172.937 94.6792 172.702 94.5632C172.466 94.4439 172.199 94.3842 171.901 94.3842C171.59 94.3842 171.318 94.4472 171.086 94.5732C170.854 94.6991 170.675 94.8797 170.549 95.1151C170.423 95.3504 170.36 95.6304 170.36 95.9553H168.317C168.317 95.2891 168.467 94.7107 168.769 94.2202C169.071 93.7296 169.493 93.3501 170.037 93.0817C170.58 92.8132 171.207 92.679 171.916 92.679C172.645 92.679 173.28 92.8082 173.82 93.0668C174.364 93.322 174.786 93.6766 175.088 94.1307C175.39 94.5848 175.54 95.1051 175.54 95.6918C175.54 96.0762 175.464 96.4557 175.312 96.8303C175.163 97.2048 174.896 97.6207 174.511 98.0781C174.127 98.5322 173.585 99.0774 172.886 99.7138L171.399 101.17V101.24H175.675V103H168.416Z" fill="white"/>
</g>
</g>
<defs>
<clipPath id="clip0_6572_1185">
<rect width="48" height="24" fill="white" transform="translate(24 36)"/>
</clipPath>
<clipPath id="clip1_6572_1185">
<rect x="24" y="36" width="24" height="24" rx="12" fill="white"/>
</clipPath>
<clipPath id="clip2_6572_1185">
<rect width="163" height="50" fill="white" transform="translate(90 60)"/>
</clipPath>
<clipPath id="clip3_6572_1185">
<rect x="160" y="86" width="24" height="24" rx="12" fill="white"/>
</clipPath>
</defs>
</svg>
