<svg width="365" height="89" viewBox="0 0 365 89" fill="none" xmlns="http://www.w3.org/2000/svg">
<g clip-path="url(#clip0_6105_60804)">
<path d="M71 66.5L55 75.5L55 57.5L71 66.5Z" fill="#2B4380"/>
</g>
<path d="M89.94 74.5V60.22H91.74V72.9H97.98V74.5H89.94ZM104.328 63.58C105.248 63.58 106.035 63.78 106.688 64.18C107.355 64.58 107.862 65.1467 108.208 65.88C108.568 66.6 108.748 67.4467 108.748 68.42V69.48H101.408C101.435 70.6933 101.742 71.62 102.328 72.26C102.928 72.8867 103.762 73.2 104.828 73.2C105.508 73.2 106.108 73.14 106.628 73.02C107.162 72.8867 107.708 72.7 108.268 72.46V74C107.722 74.24 107.182 74.4133 106.648 74.52C106.115 74.64 105.482 74.7 104.748 74.7C103.735 74.7 102.835 74.4933 102.048 74.08C101.275 73.6667 100.668 73.0533 100.228 72.24C99.8016 71.4133 99.5883 70.4067 99.5883 69.22C99.5883 68.0467 99.7816 67.04 100.168 66.2C100.568 65.36 101.122 64.7133 101.828 64.26C102.548 63.8067 103.382 63.58 104.328 63.58ZM104.308 65.02C103.468 65.02 102.802 65.2933 102.308 65.84C101.828 66.3733 101.542 67.12 101.448 68.08H106.908C106.895 67.1733 106.682 66.44 106.268 65.88C105.855 65.3067 105.202 65.02 104.308 65.02ZM115.537 63.6C116.844 63.6 117.811 63.8867 118.437 64.46C119.064 65.0333 119.377 65.9467 119.377 67.2V74.5H118.097L117.757 72.98H117.677C117.211 73.5667 116.717 74 116.197 74.28C115.691 74.56 114.984 74.7 114.077 74.7C113.104 74.7 112.297 74.4467 111.657 73.94C111.017 73.42 110.697 72.6133 110.697 71.52C110.697 70.4533 111.117 69.6333 111.957 69.06C112.797 68.4733 114.091 68.1533 115.837 68.1L117.657 68.04V67.4C117.657 66.5067 117.464 65.8867 117.077 65.54C116.691 65.1933 116.144 65.02 115.437 65.02C114.877 65.02 114.344 65.1067 113.837 65.28C113.331 65.44 112.857 65.6267 112.417 65.84L111.877 64.52C112.344 64.2667 112.897 64.0533 113.537 63.88C114.177 63.6933 114.844 63.6 115.537 63.6ZM116.057 69.32C114.724 69.3733 113.797 69.5867 113.277 69.96C112.771 70.3333 112.517 70.86 112.517 71.54C112.517 72.14 112.697 72.58 113.057 72.86C113.431 73.14 113.904 73.28 114.477 73.28C115.384 73.28 116.137 73.0333 116.737 72.54C117.337 72.0333 117.637 71.26 117.637 70.22V69.26L116.057 69.32ZM127.688 63.58C127.888 63.58 128.102 63.5933 128.328 63.62C128.568 63.6333 128.775 63.66 128.948 63.7L128.728 65.32C128.555 65.28 128.362 65.2467 128.148 65.22C127.948 65.1933 127.755 65.18 127.568 65.18C127.022 65.18 126.508 65.3333 126.028 65.64C125.548 65.9333 125.162 66.3533 124.868 66.9C124.588 67.4333 124.448 68.06 124.448 68.78V74.5H122.688V63.78H124.128L124.328 65.74H124.408C124.755 65.1533 125.202 64.6467 125.748 64.22C126.295 63.7933 126.942 63.58 127.688 63.58ZM136.11 63.58C137.39 63.58 138.357 63.8933 139.01 64.52C139.663 65.1333 139.99 66.1333 139.99 67.52V74.5H138.25V67.64C138.25 65.92 137.45 65.06 135.85 65.06C134.663 65.06 133.843 65.3933 133.39 66.06C132.937 66.7267 132.71 67.6867 132.71 68.94V74.5H130.95V63.78H132.37L132.63 65.24H132.73C133.077 64.68 133.557 64.2667 134.17 64C134.783 63.72 135.43 63.58 136.11 63.58ZM160.269 63.58C161.482 63.58 162.389 63.8933 162.989 64.52C163.589 65.1333 163.889 66.1333 163.889 67.52V74.5H162.149V67.6C162.149 65.9067 161.422 65.06 159.969 65.06C158.929 65.06 158.182 65.36 157.729 65.96C157.289 66.56 157.069 67.4333 157.069 68.58V74.5H155.329V67.6C155.329 65.9067 154.595 65.06 153.129 65.06C152.049 65.06 151.302 65.3933 150.889 66.06C150.475 66.7267 150.269 67.6867 150.269 68.94V74.5H148.509V63.78H149.929L150.189 65.24H150.289C150.622 64.68 151.069 64.2667 151.629 64C152.202 63.72 152.809 63.58 153.449 63.58C155.129 63.58 156.222 64.18 156.729 65.38H156.829C157.189 64.7667 157.675 64.3133 158.289 64.02C158.915 63.7267 159.575 63.58 160.269 63.58ZM176.52 69.12C176.52 70.8933 176.067 72.2667 175.16 73.24C174.267 74.2133 173.053 74.7 171.52 74.7C170.573 74.7 169.727 74.4867 168.98 74.06C168.247 73.62 167.667 72.9867 167.24 72.16C166.813 71.32 166.6 70.3067 166.6 69.12C166.6 67.3467 167.047 65.98 167.94 65.02C168.833 64.06 170.047 63.58 171.58 63.58C172.553 63.58 173.407 63.8 174.14 64.24C174.887 64.6667 175.467 65.2933 175.88 66.12C176.307 66.9333 176.52 67.9333 176.52 69.12ZM168.42 69.12C168.42 70.3867 168.667 71.3933 169.16 72.14C169.667 72.8733 170.467 73.24 171.56 73.24C172.64 73.24 173.433 72.8733 173.94 72.14C174.447 71.3933 174.7 70.3867 174.7 69.12C174.7 67.8533 174.447 66.86 173.94 66.14C173.433 65.42 172.633 65.06 171.54 65.06C170.447 65.06 169.653 65.42 169.16 66.14C168.667 66.86 168.42 67.8533 168.42 69.12ZM184.309 63.58C184.509 63.58 184.723 63.5933 184.949 63.62C185.189 63.6333 185.396 63.66 185.569 63.7L185.349 65.32C185.176 65.28 184.983 65.2467 184.769 65.22C184.569 65.1933 184.376 65.18 184.189 65.18C183.643 65.18 183.129 65.3333 182.649 65.64C182.169 65.9333 181.783 66.3533 181.489 66.9C181.209 67.4333 181.069 68.06 181.069 68.78V74.5H179.309V63.78H180.749L180.949 65.74H181.029C181.376 65.1533 181.823 64.6467 182.369 64.22C182.916 63.7933 183.563 63.58 184.309 63.58ZM191.32 63.58C192.24 63.58 193.027 63.78 193.68 64.18C194.347 64.58 194.854 65.1467 195.2 65.88C195.56 66.6 195.74 67.4467 195.74 68.42V69.48H188.4C188.427 70.6933 188.734 71.62 189.32 72.26C189.92 72.8867 190.754 73.2 191.82 73.2C192.5 73.2 193.1 73.14 193.62 73.02C194.154 72.8867 194.7 72.7 195.26 72.46V74C194.714 74.24 194.174 74.4133 193.64 74.52C193.107 74.64 192.474 74.7 191.74 74.7C190.727 74.7 189.827 74.4933 189.04 74.08C188.267 73.6667 187.66 73.0533 187.22 72.24C186.794 71.4133 186.58 70.4067 186.58 69.22C186.58 68.0467 186.774 67.04 187.16 66.2C187.56 65.36 188.114 64.7133 188.82 64.26C189.54 63.8067 190.374 63.58 191.32 63.58ZM191.3 65.02C190.46 65.02 189.794 65.2933 189.3 65.84C188.82 66.3733 188.534 67.12 188.44 68.08H193.9C193.887 67.1733 193.674 66.44 193.26 65.88C192.847 65.3067 192.194 65.02 191.3 65.02ZM207.725 63.6C209.032 63.6 209.998 63.8867 210.625 64.46C211.252 65.0333 211.565 65.9467 211.565 67.2V74.5H210.285L209.945 72.98H209.865C209.398 73.5667 208.905 74 208.385 74.28C207.878 74.56 207.172 74.7 206.265 74.7C205.292 74.7 204.485 74.4467 203.845 73.94C203.205 73.42 202.885 72.6133 202.885 71.52C202.885 70.4533 203.305 69.6333 204.145 69.06C204.985 68.4733 206.278 68.1533 208.025 68.1L209.845 68.04V67.4C209.845 66.5067 209.652 65.8867 209.265 65.54C208.878 65.1933 208.332 65.02 207.625 65.02C207.065 65.02 206.532 65.1067 206.025 65.28C205.518 65.44 205.045 65.6267 204.605 65.84L204.065 64.52C204.532 64.2667 205.085 64.0533 205.725 63.88C206.365 63.6933 207.032 63.6 207.725 63.6ZM208.245 69.32C206.912 69.3733 205.985 69.5867 205.465 69.96C204.958 70.3333 204.705 70.86 204.705 71.54C204.705 72.14 204.885 72.58 205.245 72.86C205.618 73.14 206.092 73.28 206.665 73.28C207.572 73.28 208.325 73.0333 208.925 72.54C209.525 72.0333 209.825 71.26 209.825 70.22V69.26L208.245 69.32ZM216.636 63C216.636 63.4533 216.622 63.88 216.596 64.28C216.582 64.6667 216.562 64.9733 216.536 65.2H216.636C216.942 64.7467 217.362 64.3667 217.896 64.06C218.429 63.7533 219.116 63.6 219.956 63.6C221.289 63.6 222.356 64.0667 223.156 65C223.969 65.92 224.376 67.3 224.376 69.14C224.376 70.98 223.969 72.3667 223.156 73.3C222.342 74.2333 221.276 74.7 219.956 74.7C219.116 74.7 218.429 74.5467 217.896 74.24C217.362 73.9333 216.942 73.5667 216.636 73.14H216.496L216.136 74.5H214.876V59.3H216.636V63ZM219.656 65.06C218.522 65.06 217.736 65.3867 217.296 66.04C216.856 66.6933 216.636 67.7067 216.636 69.08V69.16C216.636 70.48 216.849 71.4933 217.276 72.2C217.716 72.8933 218.522 73.24 219.696 73.24C220.656 73.24 221.369 72.8867 221.836 72.18C222.316 71.4733 222.556 70.4533 222.556 69.12C222.556 66.4133 221.589 65.06 219.656 65.06ZM236.5 69.12C236.5 70.8933 236.047 72.2667 235.14 73.24C234.247 74.2133 233.034 74.7 231.5 74.7C230.554 74.7 229.707 74.4867 228.96 74.06C228.227 73.62 227.647 72.9867 227.22 72.16C226.794 71.32 226.58 70.3067 226.58 69.12C226.58 67.3467 227.027 65.98 227.92 65.02C228.814 64.06 230.027 63.58 231.56 63.58C232.534 63.58 233.387 63.8 234.12 64.24C234.867 64.6667 235.447 65.2933 235.86 66.12C236.287 66.9333 236.5 67.9333 236.5 69.12ZM228.4 69.12C228.4 70.3867 228.647 71.3933 229.14 72.14C229.647 72.8733 230.447 73.24 231.54 73.24C232.62 73.24 233.414 72.8733 233.92 72.14C234.427 71.3933 234.68 70.3867 234.68 69.12C234.68 67.8533 234.427 66.86 233.92 66.14C233.414 65.42 232.614 65.06 231.52 65.06C230.427 65.06 229.634 65.42 229.14 66.14C228.647 66.86 228.4 67.8533 228.4 69.12ZM248.25 63.78V74.5H246.81L246.55 73.08H246.47C246.123 73.64 245.643 74.0533 245.03 74.32C244.417 74.5733 243.763 74.7 243.07 74.7C241.777 74.7 240.803 74.3933 240.15 73.78C239.497 73.1533 239.17 72.16 239.17 70.8V63.78H240.95V70.68C240.95 72.3867 241.743 73.24 243.33 73.24C244.517 73.24 245.337 72.9067 245.79 72.24C246.257 71.5733 246.49 70.6133 246.49 69.36V63.78H248.25ZM255.233 73.26C255.5 73.26 255.773 73.24 256.053 73.2C256.333 73.1467 256.56 73.0933 256.733 73.04V74.38C256.546 74.4733 256.28 74.5467 255.933 74.6C255.586 74.6667 255.253 74.7 254.933 74.7C254.373 74.7 253.853 74.6067 253.373 74.42C252.906 74.22 252.526 73.88 252.233 73.4C251.94 72.92 251.793 72.2467 251.793 71.38V65.14H250.273V64.3L251.813 63.6L252.513 61.32H253.553V63.78H256.653V65.14H253.553V71.34C253.553 71.9933 253.706 72.48 254.013 72.8C254.333 73.1067 254.74 73.26 255.233 73.26ZM267.655 73.26C267.922 73.26 268.195 73.24 268.475 73.2C268.755 73.1467 268.982 73.0933 269.155 73.04V74.38C268.968 74.4733 268.702 74.5467 268.355 74.6C268.008 74.6667 267.675 74.7 267.355 74.7C266.795 74.7 266.275 74.6067 265.795 74.42C265.328 74.22 264.948 73.88 264.655 73.4C264.362 72.92 264.215 72.2467 264.215 71.38V65.14H262.695V64.3L264.235 63.6L264.935 61.32H265.975V63.78H269.075V65.14H265.975V71.34C265.975 71.9933 266.128 72.48 266.435 72.8C266.755 73.1067 267.162 73.26 267.655 73.26ZM273.062 63.76C273.062 64.2933 273.028 64.7933 272.962 65.26H273.082C273.428 64.7133 273.895 64.3 274.482 64.02C275.082 63.74 275.728 63.6 276.422 63.6C277.728 63.6 278.708 63.9133 279.362 64.54C280.015 65.1533 280.342 66.1467 280.342 67.52V74.5H278.602V67.64C278.602 65.92 277.802 65.06 276.202 65.06C275.002 65.06 274.175 65.4 273.722 66.08C273.282 66.7467 273.062 67.7067 273.062 68.96V74.5H271.302V59.3H273.062V63.76ZM284.565 59.76C284.832 59.76 285.065 59.8533 285.265 60.04C285.478 60.2133 285.585 60.4933 285.585 60.88C285.585 61.2533 285.478 61.5333 285.265 61.72C285.065 61.9067 284.832 62 284.565 62C284.272 62 284.025 61.9067 283.825 61.72C283.625 61.5333 283.525 61.2533 283.525 60.88C283.525 60.4933 283.625 60.2133 283.825 60.04C284.025 59.8533 284.272 59.76 284.565 59.76ZM285.425 63.78V74.5H283.665V63.78H285.425ZM295.801 71.54C295.801 72.58 295.414 73.3667 294.641 73.9C293.868 74.4333 292.828 74.7 291.521 74.7C290.774 74.7 290.128 74.64 289.581 74.52C289.048 74.4 288.574 74.2333 288.161 74.02V72.42C288.588 72.6333 289.101 72.8333 289.701 73.02C290.314 73.1933 290.934 73.28 291.561 73.28C292.454 73.28 293.101 73.14 293.501 72.86C293.901 72.5667 294.101 72.18 294.101 71.7C294.101 71.4333 294.028 71.1933 293.881 70.98C293.734 70.7667 293.468 70.5533 293.081 70.34C292.708 70.1267 292.168 69.8867 291.461 69.62C290.768 69.3533 290.174 69.0867 289.681 68.82C289.188 68.5533 288.808 68.2333 288.541 67.86C288.274 67.4867 288.141 67.0067 288.141 66.42C288.141 65.5133 288.508 64.8133 289.241 64.32C289.988 63.8267 290.961 63.58 292.161 63.58C292.814 63.58 293.421 63.6467 293.981 63.78C294.554 63.9 295.088 64.0733 295.581 64.3L294.981 65.7C294.528 65.5133 294.054 65.3533 293.561 65.22C293.068 65.0867 292.561 65.02 292.041 65.02C291.321 65.02 290.768 65.14 290.381 65.38C290.008 65.6067 289.821 65.92 289.821 66.32C289.821 66.6133 289.908 66.8667 290.081 67.08C290.254 67.28 290.541 67.48 290.941 67.68C291.354 67.8667 291.901 68.0933 292.581 68.36C293.261 68.6133 293.841 68.8733 294.321 69.14C294.801 69.4067 295.168 69.7333 295.421 70.12C295.674 70.4933 295.801 70.9667 295.801 71.54ZM307.167 73.26C307.433 73.26 307.707 73.24 307.987 73.2C308.267 73.1467 308.493 73.0933 308.667 73.04V74.38C308.48 74.4733 308.213 74.5467 307.867 74.6C307.52 74.6667 307.187 74.7 306.867 74.7C306.307 74.7 305.787 74.6067 305.307 74.42C304.84 74.22 304.46 73.88 304.167 73.4C303.873 72.92 303.727 72.2467 303.727 71.38V65.14H302.207V64.3L303.747 63.6L304.447 61.32H305.487V63.78H308.587V65.14H305.487V71.34C305.487 71.9933 305.64 72.48 305.947 72.8C306.267 73.1067 306.673 73.26 307.167 73.26ZM320.133 69.12C320.133 70.8933 319.68 72.2667 318.773 73.24C317.88 74.2133 316.667 74.7 315.133 74.7C314.187 74.7 313.34 74.4867 312.593 74.06C311.86 73.62 311.28 72.9867 310.853 72.16C310.427 71.32 310.213 70.3067 310.213 69.12C310.213 67.3467 310.66 65.98 311.553 65.02C312.447 64.06 313.66 63.58 315.193 63.58C316.167 63.58 317.02 63.8 317.753 64.24C318.5 64.6667 319.08 65.2933 319.493 66.12C319.92 66.9333 320.133 67.9333 320.133 69.12ZM312.033 69.12C312.033 70.3867 312.28 71.3933 312.773 72.14C313.28 72.8733 314.08 73.24 315.173 73.24C316.253 73.24 317.047 72.8733 317.553 72.14C318.06 71.3933 318.313 70.3867 318.313 69.12C318.313 67.8533 318.06 66.86 317.553 66.14C317.047 65.42 316.247 65.06 315.153 65.06C314.06 65.06 313.267 65.42 312.773 66.14C312.28 66.86 312.033 67.8533 312.033 69.12ZM328.023 63.58C329.343 63.58 330.403 64.04 331.203 64.96C332.016 65.88 332.423 67.2667 332.423 69.12C332.423 70.9467 332.016 72.3333 331.203 73.28C330.403 74.2267 329.336 74.7 328.003 74.7C327.176 74.7 326.489 74.5467 325.943 74.24C325.409 73.92 324.989 73.5533 324.683 73.14H324.563C324.589 73.3667 324.616 73.6533 324.643 74C324.669 74.3467 324.683 74.6467 324.683 74.9V79.3H322.923V63.78H324.363L324.603 65.24H324.683C325.003 64.7733 325.423 64.38 325.943 64.06C326.463 63.74 327.156 63.58 328.023 63.58ZM327.703 65.06C326.609 65.06 325.836 65.3667 325.383 65.98C324.943 66.5933 324.709 67.5267 324.683 68.78V69.12C324.683 70.44 324.896 71.46 325.323 72.18C325.763 72.8867 326.569 73.24 327.743 73.24C328.396 73.24 328.929 73.06 329.343 72.7C329.769 72.34 330.083 71.8533 330.283 71.24C330.496 70.6133 330.603 69.9 330.603 69.1C330.603 67.8733 330.363 66.8933 329.883 66.16C329.416 65.4267 328.689 65.06 327.703 65.06ZM336.127 59.76C336.394 59.76 336.627 59.8533 336.827 60.04C337.041 60.2133 337.147 60.4933 337.147 60.88C337.147 61.2533 337.041 61.5333 336.827 61.72C336.627 61.9067 336.394 62 336.127 62C335.834 62 335.587 61.9067 335.387 61.72C335.187 61.5333 335.087 61.2533 335.087 60.88C335.087 60.4933 335.187 60.2133 335.387 60.04C335.587 59.8533 335.834 59.76 336.127 59.76ZM336.987 63.78V74.5H335.227V63.78H336.987ZM344.684 74.7C343.737 74.7 342.89 74.5067 342.144 74.12C341.41 73.7333 340.83 73.1333 340.404 72.32C339.99 71.5067 339.784 70.4667 339.784 69.2C339.784 67.88 340.004 66.8067 340.444 65.98C340.884 65.1533 341.477 64.5467 342.224 64.16C342.984 63.7733 343.844 63.58 344.804 63.58C345.35 63.58 345.877 63.64 346.384 63.76C346.89 63.8667 347.304 64 347.624 64.16L347.084 65.62C346.764 65.5 346.39 65.3867 345.964 65.28C345.537 65.1733 345.137 65.12 344.764 65.12C342.657 65.12 341.604 66.4733 341.604 69.18C341.604 70.4733 341.857 71.4667 342.364 72.16C342.884 72.84 343.65 73.18 344.664 73.18C345.25 73.18 345.764 73.12 346.204 73C346.657 72.88 347.07 72.7333 347.444 72.56V74.12C347.084 74.3067 346.684 74.4467 346.244 74.54C345.817 74.6467 345.297 74.7 344.684 74.7Z" fill="#2B4380"/>
<path d="M88 78.1H322.122V78.9H88V78.1ZM325.48 78.1H348.284V78.9H325.48V78.1Z" fill="#2B4380"/>
<g clip-path="url(#clip1_6105_60804)">
<rect y="66" width="48" height="1" fill="#C54600"/>
<g clip-path="url(#clip2_6105_60804)">
<rect y="54" width="24" height="24" rx="12" fill="#C54600"/>
<path d="M9.2706 70V69.233L12.1513 66.0795C12.4893 65.7102 12.7678 65.3892 12.9865 65.1165C13.2053 64.8409 13.3672 64.5824 13.4723 64.3409C13.5803 64.0966 13.6342 63.8409 13.6342 63.5739C13.6342 63.267 13.5604 63.0014 13.4126 62.777C13.2678 62.5526 13.0689 62.3793 12.8161 62.2571C12.5632 62.1349 12.2791 62.0739 11.9638 62.0739C11.6286 62.0739 11.3359 62.1435 11.0859 62.2827C10.8388 62.419 10.647 62.6108 10.5107 62.858C10.3771 63.1051 10.3104 63.3949 10.3104 63.7273H9.30469C9.30469 63.2159 9.42259 62.767 9.65838 62.3807C9.89418 61.9943 10.2152 61.6932 10.6214 61.4773C11.0305 61.2614 11.4893 61.1534 11.9979 61.1534C12.5092 61.1534 12.9624 61.2614 13.3572 61.4773C13.7521 61.6932 14.0618 61.9844 14.2862 62.3509C14.5107 62.7173 14.6229 63.125 14.6229 63.5739C14.6229 63.8949 14.5646 64.2088 14.4482 64.5156C14.3345 64.8196 14.1357 65.1591 13.8516 65.5341C13.5703 65.9062 13.1797 66.3608 12.6797 66.8977L10.7195 68.9943V69.0625H14.7763V70H9.2706Z" fill="white"/>
</g>
</g>
<g clip-path="url(#clip3_6105_60804)">
<g clip-path="url(#clip4_6105_60804)">
<rect x="186" y="0.300049" width="24" height="24" rx="12" fill="#C54600"/>
<path d="M199.183 7.57278V16.3H198.126V8.68073H198.075L195.944 10.0955V9.02164L198.126 7.57278H199.183Z" fill="white"/>
</g>
</g>
<rect width="1" height="31" transform="matrix(1 0 0 -1 198 47)" fill="#C54600"/>
<defs>
<clipPath id="clip0_6105_60804">
<rect width="18" height="18" fill="white" transform="translate(54 57.5)"/>
</clipPath>
<clipPath id="clip1_6105_60804">
<rect width="48" height="24" fill="white" transform="translate(0 54)"/>
</clipPath>
<clipPath id="clip2_6105_60804">
<rect y="54" width="24" height="24" rx="12" fill="white"/>
</clipPath>
<clipPath id="clip3_6105_60804">
<rect width="24" height="24" fill="white" transform="translate(186 0.5)"/>
</clipPath>
<clipPath id="clip4_6105_60804">
<rect x="186" y="0.300049" width="24" height="24" rx="12" fill="white"/>
</clipPath>
</defs>
</svg>
