<svg width="365" height="86" viewBox="0 0 365 86" fill="none" xmlns="http://www.w3.org/2000/svg">
<g clip-path="url(#clip0_6974_17867)">
<path d="M72 67.5L58.5 75.2942L58.5 59.7058L72 67.5Z" fill="#2B4380"/>
</g>
<path d="M98.94 75.5V61.22H100.74V73.9H106.98V75.5H98.94ZM113.328 64.58C114.248 64.58 115.035 64.78 115.688 65.18C116.355 65.58 116.862 66.1467 117.208 66.88C117.568 67.6 117.748 68.4467 117.748 69.42V70.48H110.408C110.435 71.6933 110.742 72.62 111.328 73.26C111.928 73.8867 112.762 74.2 113.828 74.2C114.508 74.2 115.108 74.14 115.628 74.02C116.162 73.8867 116.708 73.7 117.268 73.46V75C116.722 75.24 116.182 75.4133 115.648 75.52C115.115 75.64 114.482 75.7 113.748 75.7C112.735 75.7 111.835 75.4933 111.048 75.08C110.275 74.6667 109.668 74.0533 109.228 73.24C108.802 72.4133 108.588 71.4067 108.588 70.22C108.588 69.0467 108.782 68.04 109.168 67.2C109.568 66.36 110.122 65.7133 110.828 65.26C111.548 64.8067 112.382 64.58 113.328 64.58ZM113.308 66.02C112.468 66.02 111.802 66.2933 111.308 66.84C110.828 67.3733 110.542 68.12 110.448 69.08H115.908C115.895 68.1733 115.682 67.44 115.268 66.88C114.855 66.3067 114.202 66.02 113.308 66.02ZM124.537 64.6C125.844 64.6 126.811 64.8867 127.437 65.46C128.064 66.0333 128.377 66.9467 128.377 68.2V75.5H127.097L126.757 73.98H126.677C126.211 74.5667 125.717 75 125.197 75.28C124.691 75.56 123.984 75.7 123.077 75.7C122.104 75.7 121.297 75.4467 120.657 74.94C120.017 74.42 119.697 73.6133 119.697 72.52C119.697 71.4533 120.117 70.6333 120.957 70.06C121.797 69.4733 123.091 69.1533 124.837 69.1L126.657 69.04V68.4C126.657 67.5067 126.464 66.8867 126.077 66.54C125.691 66.1933 125.144 66.02 124.437 66.02C123.877 66.02 123.344 66.1067 122.837 66.28C122.331 66.44 121.857 66.6267 121.417 66.84L120.877 65.52C121.344 65.2667 121.897 65.0533 122.537 64.88C123.177 64.6933 123.844 64.6 124.537 64.6ZM125.057 70.32C123.724 70.3733 122.797 70.5867 122.277 70.96C121.771 71.3333 121.517 71.86 121.517 72.54C121.517 73.14 121.697 73.58 122.057 73.86C122.431 74.14 122.904 74.28 123.477 74.28C124.384 74.28 125.137 74.0333 125.737 73.54C126.337 73.0333 126.637 72.26 126.637 71.22V70.26L125.057 70.32ZM136.688 64.58C136.888 64.58 137.102 64.5933 137.328 64.62C137.568 64.6333 137.775 64.66 137.948 64.7L137.728 66.32C137.555 66.28 137.362 66.2467 137.148 66.22C136.948 66.1933 136.755 66.18 136.568 66.18C136.022 66.18 135.508 66.3333 135.028 66.64C134.548 66.9333 134.162 67.3533 133.868 67.9C133.588 68.4333 133.448 69.06 133.448 69.78V75.5H131.688V64.78H133.128L133.328 66.74H133.408C133.755 66.1533 134.202 65.6467 134.748 65.22C135.295 64.7933 135.942 64.58 136.688 64.58ZM145.11 64.58C146.39 64.58 147.357 64.8933 148.01 65.52C148.663 66.1333 148.99 67.1333 148.99 68.52V75.5H147.25V68.64C147.25 66.92 146.45 66.06 144.85 66.06C143.663 66.06 142.843 66.3933 142.39 67.06C141.937 67.7267 141.71 68.6867 141.71 69.94V75.5H139.95V64.78H141.37L141.63 66.24H141.73C142.077 65.68 142.557 65.2667 143.17 65C143.783 64.72 144.43 64.58 145.11 64.58ZM169.269 64.58C170.482 64.58 171.389 64.8933 171.989 65.52C172.589 66.1333 172.889 67.1333 172.889 68.52V75.5H171.149V68.6C171.149 66.9067 170.422 66.06 168.969 66.06C167.929 66.06 167.182 66.36 166.729 66.96C166.289 67.56 166.069 68.4333 166.069 69.58V75.5H164.329V68.6C164.329 66.9067 163.595 66.06 162.129 66.06C161.049 66.06 160.302 66.3933 159.889 67.06C159.475 67.7267 159.269 68.6867 159.269 69.94V75.5H157.509V64.78H158.929L159.189 66.24H159.289C159.622 65.68 160.069 65.2667 160.629 65C161.202 64.72 161.809 64.58 162.449 64.58C164.129 64.58 165.222 65.18 165.729 66.38H165.829C166.189 65.7667 166.675 65.3133 167.289 65.02C167.915 64.7267 168.575 64.58 169.269 64.58ZM185.52 70.12C185.52 71.8933 185.067 73.2667 184.16 74.24C183.267 75.2133 182.053 75.7 180.52 75.7C179.573 75.7 178.727 75.4867 177.98 75.06C177.247 74.62 176.667 73.9867 176.24 73.16C175.813 72.32 175.6 71.3067 175.6 70.12C175.6 68.3467 176.047 66.98 176.94 66.02C177.833 65.06 179.047 64.58 180.58 64.58C181.553 64.58 182.407 64.8 183.14 65.24C183.887 65.6667 184.467 66.2933 184.88 67.12C185.307 67.9333 185.52 68.9333 185.52 70.12ZM177.42 70.12C177.42 71.3867 177.667 72.3933 178.16 73.14C178.667 73.8733 179.467 74.24 180.56 74.24C181.64 74.24 182.433 73.8733 182.94 73.14C183.447 72.3933 183.7 71.3867 183.7 70.12C183.7 68.8533 183.447 67.86 182.94 67.14C182.433 66.42 181.633 66.06 180.54 66.06C179.447 66.06 178.653 66.42 178.16 67.14C177.667 67.86 177.42 68.8533 177.42 70.12ZM193.309 64.58C193.509 64.58 193.723 64.5933 193.949 64.62C194.189 64.6333 194.396 64.66 194.569 64.7L194.349 66.32C194.176 66.28 193.983 66.2467 193.769 66.22C193.569 66.1933 193.376 66.18 193.189 66.18C192.643 66.18 192.129 66.3333 191.649 66.64C191.169 66.9333 190.783 67.3533 190.489 67.9C190.209 68.4333 190.069 69.06 190.069 69.78V75.5H188.309V64.78H189.749L189.949 66.74H190.029C190.376 66.1533 190.823 65.6467 191.369 65.22C191.916 64.7933 192.563 64.58 193.309 64.58ZM200.32 64.58C201.24 64.58 202.027 64.78 202.68 65.18C203.347 65.58 203.854 66.1467 204.2 66.88C204.56 67.6 204.74 68.4467 204.74 69.42V70.48H197.4C197.427 71.6933 197.734 72.62 198.32 73.26C198.92 73.8867 199.754 74.2 200.82 74.2C201.5 74.2 202.1 74.14 202.62 74.02C203.154 73.8867 203.7 73.7 204.26 73.46V75C203.714 75.24 203.174 75.4133 202.64 75.52C202.107 75.64 201.474 75.7 200.74 75.7C199.727 75.7 198.827 75.4933 198.04 75.08C197.267 74.6667 196.66 74.0533 196.22 73.24C195.794 72.4133 195.58 71.4067 195.58 70.22C195.58 69.0467 195.774 68.04 196.16 67.2C196.56 66.36 197.114 65.7133 197.82 65.26C198.54 64.8067 199.374 64.58 200.32 64.58ZM200.3 66.02C199.46 66.02 198.794 66.2933 198.3 66.84C197.82 67.3733 197.534 68.12 197.44 69.08H202.9C202.887 68.1733 202.674 67.44 202.26 66.88C201.847 66.3067 201.194 66.02 200.3 66.02ZM216.725 64.6C218.032 64.6 218.998 64.8867 219.625 65.46C220.252 66.0333 220.565 66.9467 220.565 68.2V75.5H219.285L218.945 73.98H218.865C218.398 74.5667 217.905 75 217.385 75.28C216.878 75.56 216.172 75.7 215.265 75.7C214.292 75.7 213.485 75.4467 212.845 74.94C212.205 74.42 211.885 73.6133 211.885 72.52C211.885 71.4533 212.305 70.6333 213.145 70.06C213.985 69.4733 215.278 69.1533 217.025 69.1L218.845 69.04V68.4C218.845 67.5067 218.652 66.8867 218.265 66.54C217.878 66.1933 217.332 66.02 216.625 66.02C216.065 66.02 215.532 66.1067 215.025 66.28C214.518 66.44 214.045 66.6267 213.605 66.84L213.065 65.52C213.532 65.2667 214.085 65.0533 214.725 64.88C215.365 64.6933 216.032 64.6 216.725 64.6ZM217.245 70.32C215.912 70.3733 214.985 70.5867 214.465 70.96C213.958 71.3333 213.705 71.86 213.705 72.54C213.705 73.14 213.885 73.58 214.245 73.86C214.618 74.14 215.092 74.28 215.665 74.28C216.572 74.28 217.325 74.0333 217.925 73.54C218.525 73.0333 218.825 72.26 218.825 71.22V70.26L217.245 70.32ZM225.636 64C225.636 64.4533 225.622 64.88 225.596 65.28C225.582 65.6667 225.562 65.9733 225.536 66.2H225.636C225.942 65.7467 226.362 65.3667 226.896 65.06C227.429 64.7533 228.116 64.6 228.956 64.6C230.289 64.6 231.356 65.0667 232.156 66C232.969 66.92 233.376 68.3 233.376 70.14C233.376 71.98 232.969 73.3667 232.156 74.3C231.342 75.2333 230.276 75.7 228.956 75.7C228.116 75.7 227.429 75.5467 226.896 75.24C226.362 74.9333 225.942 74.5667 225.636 74.14H225.496L225.136 75.5H223.876V60.3H225.636V64ZM228.656 66.06C227.522 66.06 226.736 66.3867 226.296 67.04C225.856 67.6933 225.636 68.7067 225.636 70.08V70.16C225.636 71.48 225.849 72.4933 226.276 73.2C226.716 73.8933 227.522 74.24 228.696 74.24C229.656 74.24 230.369 73.8867 230.836 73.18C231.316 72.4733 231.556 71.4533 231.556 70.12C231.556 67.4133 230.589 66.06 228.656 66.06ZM245.5 70.12C245.5 71.8933 245.047 73.2667 244.14 74.24C243.247 75.2133 242.034 75.7 240.5 75.7C239.554 75.7 238.707 75.4867 237.96 75.06C237.227 74.62 236.647 73.9867 236.22 73.16C235.794 72.32 235.58 71.3067 235.58 70.12C235.58 68.3467 236.027 66.98 236.92 66.02C237.814 65.06 239.027 64.58 240.56 64.58C241.534 64.58 242.387 64.8 243.12 65.24C243.867 65.6667 244.447 66.2933 244.86 67.12C245.287 67.9333 245.5 68.9333 245.5 70.12ZM237.4 70.12C237.4 71.3867 237.647 72.3933 238.14 73.14C238.647 73.8733 239.447 74.24 240.54 74.24C241.62 74.24 242.414 73.8733 242.92 73.14C243.427 72.3933 243.68 71.3867 243.68 70.12C243.68 68.8533 243.427 67.86 242.92 67.14C242.414 66.42 241.614 66.06 240.52 66.06C239.427 66.06 238.634 66.42 238.14 67.14C237.647 67.86 237.4 68.8533 237.4 70.12ZM257.25 64.78V75.5H255.81L255.55 74.08H255.47C255.123 74.64 254.643 75.0533 254.03 75.32C253.417 75.5733 252.763 75.7 252.07 75.7C250.777 75.7 249.803 75.3933 249.15 74.78C248.497 74.1533 248.17 73.16 248.17 71.8V64.78H249.95V71.68C249.95 73.3867 250.743 74.24 252.33 74.24C253.517 74.24 254.337 73.9067 254.79 73.24C255.257 72.5733 255.49 71.6133 255.49 70.36V64.78H257.25ZM264.233 74.26C264.5 74.26 264.773 74.24 265.053 74.2C265.333 74.1467 265.56 74.0933 265.733 74.04V75.38C265.546 75.4733 265.28 75.5467 264.933 75.6C264.586 75.6667 264.253 75.7 263.933 75.7C263.373 75.7 262.853 75.6067 262.373 75.42C261.906 75.22 261.526 74.88 261.233 74.4C260.94 73.92 260.793 73.2467 260.793 72.38V66.14H259.273V65.3L260.813 64.6L261.513 62.32H262.553V64.78H265.653V66.14H262.553V72.34C262.553 72.9933 262.706 73.48 263.013 73.8C263.333 74.1067 263.74 74.26 264.233 74.26ZM276.655 74.26C276.922 74.26 277.195 74.24 277.475 74.2C277.755 74.1467 277.982 74.0933 278.155 74.04V75.38C277.968 75.4733 277.702 75.5467 277.355 75.6C277.008 75.6667 276.675 75.7 276.355 75.7C275.795 75.7 275.275 75.6067 274.795 75.42C274.328 75.22 273.948 74.88 273.655 74.4C273.362 73.92 273.215 73.2467 273.215 72.38V66.14H271.695V65.3L273.235 64.6L273.935 62.32H274.975V64.78H278.075V66.14H274.975V72.34C274.975 72.9933 275.128 73.48 275.435 73.8C275.755 74.1067 276.162 74.26 276.655 74.26ZM282.062 64.76C282.062 65.2933 282.028 65.7933 281.962 66.26H282.082C282.428 65.7133 282.895 65.3 283.482 65.02C284.082 64.74 284.728 64.6 285.422 64.6C286.728 64.6 287.708 64.9133 288.362 65.54C289.015 66.1533 289.342 67.1467 289.342 68.52V75.5H287.602V68.64C287.602 66.92 286.802 66.06 285.202 66.06C284.002 66.06 283.175 66.4 282.722 67.08C282.282 67.7467 282.062 68.7067 282.062 69.96V75.5H280.302V60.3H282.062V64.76ZM293.565 60.76C293.832 60.76 294.065 60.8533 294.265 61.04C294.478 61.2133 294.585 61.4933 294.585 61.88C294.585 62.2533 294.478 62.5333 294.265 62.72C294.065 62.9067 293.832 63 293.565 63C293.272 63 293.025 62.9067 292.825 62.72C292.625 62.5333 292.525 62.2533 292.525 61.88C292.525 61.4933 292.625 61.2133 292.825 61.04C293.025 60.8533 293.272 60.76 293.565 60.76ZM294.425 64.78V75.5H292.665V64.78H294.425ZM304.801 72.54C304.801 73.58 304.414 74.3667 303.641 74.9C302.868 75.4333 301.828 75.7 300.521 75.7C299.774 75.7 299.128 75.64 298.581 75.52C298.048 75.4 297.574 75.2333 297.161 75.02V73.42C297.588 73.6333 298.101 73.8333 298.701 74.02C299.314 74.1933 299.934 74.28 300.561 74.28C301.454 74.28 302.101 74.14 302.501 73.86C302.901 73.5667 303.101 73.18 303.101 72.7C303.101 72.4333 303.028 72.1933 302.881 71.98C302.734 71.7667 302.468 71.5533 302.081 71.34C301.708 71.1267 301.168 70.8867 300.461 70.62C299.768 70.3533 299.174 70.0867 298.681 69.82C298.188 69.5533 297.808 69.2333 297.541 68.86C297.274 68.4867 297.141 68.0067 297.141 67.42C297.141 66.5133 297.508 65.8133 298.241 65.32C298.988 64.8267 299.961 64.58 301.161 64.58C301.814 64.58 302.421 64.6467 302.981 64.78C303.554 64.9 304.088 65.0733 304.581 65.3L303.981 66.7C303.528 66.5133 303.054 66.3533 302.561 66.22C302.068 66.0867 301.561 66.02 301.041 66.02C300.321 66.02 299.768 66.14 299.381 66.38C299.008 66.6067 298.821 66.92 298.821 67.32C298.821 67.6133 298.908 67.8667 299.081 68.08C299.254 68.28 299.541 68.48 299.941 68.68C300.354 68.8667 300.901 69.0933 301.581 69.36C302.261 69.6133 302.841 69.8733 303.321 70.14C303.801 70.4067 304.168 70.7333 304.421 71.12C304.674 71.4933 304.801 71.9667 304.801 72.54ZM316.167 74.26C316.433 74.26 316.707 74.24 316.987 74.2C317.267 74.1467 317.493 74.0933 317.667 74.04V75.38C317.48 75.4733 317.213 75.5467 316.867 75.6C316.52 75.6667 316.187 75.7 315.867 75.7C315.307 75.7 314.787 75.6067 314.307 75.42C313.84 75.22 313.46 74.88 313.167 74.4C312.873 73.92 312.727 73.2467 312.727 72.38V66.14H311.207V65.3L312.747 64.6L313.447 62.32H314.487V64.78H317.587V66.14H314.487V72.34C314.487 72.9933 314.64 73.48 314.947 73.8C315.267 74.1067 315.673 74.26 316.167 74.26ZM329.133 70.12C329.133 71.8933 328.68 73.2667 327.773 74.24C326.88 75.2133 325.667 75.7 324.133 75.7C323.187 75.7 322.34 75.4867 321.593 75.06C320.86 74.62 320.28 73.9867 319.853 73.16C319.427 72.32 319.213 71.3067 319.213 70.12C319.213 68.3467 319.66 66.98 320.553 66.02C321.447 65.06 322.66 64.58 324.193 64.58C325.167 64.58 326.02 64.8 326.753 65.24C327.5 65.6667 328.08 66.2933 328.493 67.12C328.92 67.9333 329.133 68.9333 329.133 70.12ZM321.033 70.12C321.033 71.3867 321.28 72.3933 321.773 73.14C322.28 73.8733 323.08 74.24 324.173 74.24C325.253 74.24 326.047 73.8733 326.553 73.14C327.06 72.3933 327.313 71.3867 327.313 70.12C327.313 68.8533 327.06 67.86 326.553 67.14C326.047 66.42 325.247 66.06 324.153 66.06C323.06 66.06 322.267 66.42 321.773 67.14C321.28 67.86 321.033 68.8533 321.033 70.12ZM337.023 64.58C338.343 64.58 339.403 65.04 340.203 65.96C341.016 66.88 341.423 68.2667 341.423 70.12C341.423 71.9467 341.016 73.3333 340.203 74.28C339.403 75.2267 338.336 75.7 337.003 75.7C336.176 75.7 335.489 75.5467 334.943 75.24C334.409 74.92 333.989 74.5533 333.683 74.14H333.563C333.589 74.3667 333.616 74.6533 333.643 75C333.669 75.3467 333.683 75.6467 333.683 75.9V80.3H331.923V64.78H333.363L333.603 66.24H333.683C334.003 65.7733 334.423 65.38 334.943 65.06C335.463 64.74 336.156 64.58 337.023 64.58ZM336.703 66.06C335.609 66.06 334.836 66.3667 334.383 66.98C333.943 67.5933 333.709 68.5267 333.683 69.78V70.12C333.683 71.44 333.896 72.46 334.323 73.18C334.763 73.8867 335.569 74.24 336.743 74.24C337.396 74.24 337.929 74.06 338.343 73.7C338.769 73.34 339.083 72.8533 339.283 72.24C339.496 71.6133 339.603 70.9 339.603 70.1C339.603 68.8733 339.363 67.8933 338.883 67.16C338.416 66.4267 337.689 66.06 336.703 66.06ZM345.127 60.76C345.394 60.76 345.627 60.8533 345.827 61.04C346.041 61.2133 346.147 61.4933 346.147 61.88C346.147 62.2533 346.041 62.5333 345.827 62.72C345.627 62.9067 345.394 63 345.127 63C344.834 63 344.587 62.9067 344.387 62.72C344.187 62.5333 344.087 62.2533 344.087 61.88C344.087 61.4933 344.187 61.2133 344.387 61.04C344.587 60.8533 344.834 60.76 345.127 60.76ZM345.987 64.78V75.5H344.227V64.78H345.987ZM353.684 75.7C352.737 75.7 351.89 75.5067 351.144 75.12C350.41 74.7333 349.83 74.1333 349.404 73.32C348.99 72.5067 348.784 71.4667 348.784 70.2C348.784 68.88 349.004 67.8067 349.444 66.98C349.884 66.1533 350.477 65.5467 351.224 65.16C351.984 64.7733 352.844 64.58 353.804 64.58C354.35 64.58 354.877 64.64 355.384 64.76C355.89 64.8667 356.304 65 356.624 65.16L356.084 66.62C355.764 66.5 355.39 66.3867 354.964 66.28C354.537 66.1733 354.137 66.12 353.764 66.12C351.657 66.12 350.604 67.4733 350.604 70.18C350.604 71.4733 350.857 72.4667 351.364 73.16C351.884 73.84 352.65 74.18 353.664 74.18C354.25 74.18 354.764 74.12 355.204 74C355.657 73.88 356.07 73.7333 356.444 73.56V75.12C356.084 75.3067 355.684 75.4467 355.244 75.54C354.817 75.6467 354.297 75.7 353.684 75.7Z" fill="#2B4380"/>
<line x1="96" y1="82" x2="359" y2="82" stroke="#2B4380"/>
<g clip-path="url(#clip1_6974_17867)">
<rect y="66" width="48" height="1" fill="#C54600"/>
<g clip-path="url(#clip2_6974_17867)">
<rect y="54" width="24" height="24" rx="12" fill="#C54600"/>
<path d="M8.4161 71V69.4489L12.0404 66.093C12.3486 65.7947 12.6072 65.5263 12.816 65.2876C13.0281 65.049 13.1888 64.8153 13.2982 64.5866C13.4076 64.3546 13.4623 64.1044 13.4623 63.8359C13.4623 63.5376 13.3943 63.2808 13.2584 63.0653C13.1225 62.8466 12.9369 62.6792 12.7016 62.5632C12.4663 62.4439 12.1995 62.3842 11.9012 62.3842C11.5896 62.3842 11.3179 62.4472 11.0858 62.5732C10.8538 62.6991 10.6749 62.8797 10.5489 63.1151C10.423 63.3504 10.36 63.6304 10.36 63.9553H8.31667C8.31667 63.2891 8.46748 62.7107 8.76909 62.2202C9.0707 61.7296 9.49328 61.3501 10.0368 61.0817C10.5804 60.8132 11.2068 60.679 11.9161 60.679C12.6453 60.679 13.28 60.8082 13.8202 61.0668C14.3638 61.322 14.7864 61.6766 15.088 62.1307C15.3896 62.5848 15.5404 63.1051 15.5404 63.6918C15.5404 64.0762 15.4642 64.4557 15.3117 64.8303C15.1626 65.2048 14.8957 65.6207 14.5113 66.0781C14.1268 66.5322 13.5849 67.0774 12.8856 67.7138L11.3991 69.1705V69.2401H15.6746V71H8.4161Z" fill="white"/>
</g>
</g>
<g clip-path="url(#clip3_6974_17867)">
<rect x="217" width="1" height="48" fill="#C54600"/>
<g clip-path="url(#clip4_6974_17867)">
<rect x="205" width="24" height="24" rx="12" fill="#C54600"/>
<path d="M218.83 6.81818V17H216.677V8.86151H216.618L214.286 10.3232V8.41406L216.807 6.81818H218.83Z" fill="white"/>
</g>
</g>
<defs>
<clipPath id="clip0_6974_17867">
<rect width="18" height="24" fill="white" transform="translate(54 55.5)"/>
</clipPath>
<clipPath id="clip1_6974_17867">
<rect width="48" height="24" fill="white" transform="translate(0 54)"/>
</clipPath>
<clipPath id="clip2_6974_17867">
<rect y="54" width="24" height="24" rx="12" fill="white"/>
</clipPath>
<clipPath id="clip3_6974_17867">
<rect width="24" height="48" fill="white" transform="translate(205)"/>
</clipPath>
<clipPath id="clip4_6974_17867">
<rect x="205" width="24" height="24" rx="12" fill="white"/>
</clipPath>
</defs>
</svg>
