<svg width="778" height="96" viewBox="0 0 778 96" fill="none" xmlns="http://www.w3.org/2000/svg">
<path d="M64.8578 72L71.7 65.1579L70.121 63.5789L61.7 72L70.121 80.421L71.7 78.8421L64.8578 72Z" fill="#284162"/>
<path d="M90.6722 65.72C92.5389 65.72 93.8989 66.1 94.7522 66.86C95.6056 67.6067 96.0322 68.6533 96.0322 70C96.0322 70.8 95.8522 71.5467 95.4922 72.24C95.1456 72.9333 94.5589 73.5 93.7322 73.94C92.9056 74.3667 91.7856 74.58 90.3722 74.58H88.8322V80H86.6722V65.72H90.6722ZM90.5122 67.54H88.8322V72.76H90.1322C91.3456 72.76 92.2589 72.56 92.8722 72.16C93.4989 71.7467 93.8122 71.0533 93.8122 70.08C93.8122 69.2267 93.5456 68.5933 93.0122 68.18C92.4789 67.7533 91.6456 67.54 90.5122 67.54ZM103.998 69.02C104.425 69.02 104.818 69.0533 105.178 69.12L104.958 71.1C104.612 71.0067 104.252 70.96 103.878 70.96C103.332 70.96 102.825 71.0933 102.358 71.36C101.892 71.6267 101.512 72.0133 101.218 72.52C100.938 73.0133 100.798 73.6133 100.798 74.32V80H98.6783V69.22H100.358L100.638 71.14H100.718C101.052 70.5667 101.498 70.0733 102.058 69.66C102.618 69.2333 103.265 69.02 103.998 69.02ZM111.024 69.02C112.437 69.02 113.55 69.46 114.364 70.34C115.177 71.2067 115.584 72.3933 115.584 73.9V75.06H108.344C108.37 76.1667 108.657 77.0133 109.204 77.6C109.764 78.1867 110.544 78.48 111.544 78.48C112.237 78.48 112.85 78.42 113.384 78.3C113.93 78.1667 114.49 77.9733 115.064 77.72V79.48C114.517 79.7333 113.97 79.9133 113.424 80.02C112.877 80.14 112.224 80.2 111.464 80.2C110.424 80.2 109.504 79.9933 108.704 79.58C107.904 79.1667 107.277 78.5533 106.824 77.74C106.384 76.9267 106.164 75.9133 106.164 74.7C106.164 73.4867 106.364 72.46 106.764 71.62C107.177 70.78 107.744 70.14 108.464 69.7C109.197 69.2467 110.05 69.02 111.024 69.02ZM111.024 70.66C110.264 70.66 109.65 70.9067 109.184 71.4C108.73 71.8933 108.464 72.5933 108.384 73.5H113.464C113.45 72.66 113.244 71.98 112.844 71.46C112.457 70.9267 111.85 70.66 111.024 70.66ZM120.258 80L116.178 69.22H118.418L120.658 75.52C120.792 75.9467 120.932 76.4133 121.078 76.92C121.225 77.4267 121.325 77.8467 121.378 78.18H121.458C121.512 77.8467 121.618 77.4267 121.778 76.92C121.938 76.4 122.085 75.9333 122.218 75.52L124.458 69.22H126.698L122.598 80H120.258ZM129.446 65.12C129.766 65.12 130.046 65.2133 130.286 65.4C130.526 65.5867 130.646 65.9 130.646 66.34C130.646 66.7667 130.526 67.08 130.286 67.28C130.046 67.4667 129.766 67.56 129.446 67.56C129.112 67.56 128.826 67.4667 128.586 67.28C128.346 67.08 128.226 66.7667 128.226 66.34C128.226 65.9 128.346 65.5867 128.586 65.4C128.826 65.2133 129.112 65.12 129.446 65.12ZM130.486 69.22V80H128.366V69.22H130.486ZM143.315 74.6C143.315 76.3867 142.855 77.7667 141.935 78.74C141.015 79.7133 139.775 80.2 138.215 80.2C137.242 80.2 136.375 79.9867 135.615 79.56C134.868 79.12 134.275 78.4867 133.835 77.66C133.408 76.82 133.195 75.8 133.195 74.6C133.195 72.8133 133.648 71.44 134.555 70.48C135.462 69.5067 136.702 69.02 138.275 69.02C139.262 69.02 140.128 69.24 140.875 69.68C141.635 70.1067 142.228 70.7333 142.655 71.56C143.095 72.3867 143.315 73.4 143.315 74.6ZM135.375 74.6C135.375 75.8133 135.602 76.76 136.055 77.44C136.522 78.12 137.255 78.46 138.255 78.46C139.255 78.46 139.982 78.12 140.435 77.44C140.902 76.76 141.135 75.8133 141.135 74.6C141.135 73.3733 140.902 72.4333 140.435 71.78C139.982 71.1133 139.248 70.78 138.235 70.78C137.235 70.78 136.508 71.1133 136.055 71.78C135.602 72.4333 135.375 73.3733 135.375 74.6ZM155.283 69.22V80H153.583L153.283 78.58H153.183C152.836 79.14 152.356 79.5533 151.743 79.82C151.129 80.0733 150.483 80.2 149.803 80.2C148.536 80.2 147.569 79.8933 146.903 79.28C146.236 78.6533 145.903 77.6533 145.903 76.28V69.22H148.043V75.96C148.043 76.8 148.216 77.4267 148.563 77.84C148.923 78.2533 149.476 78.46 150.223 78.46C151.329 78.46 152.096 78.14 152.523 77.5C152.949 76.8467 153.163 75.9067 153.163 74.68V69.22H155.283ZM165.76 76.96C165.76 78.0267 165.374 78.8333 164.6 79.38C163.84 79.9267 162.767 80.2 161.38 80.2C160.62 80.2 159.967 80.1467 159.42 80.04C158.887 79.9333 158.394 79.7667 157.94 79.54V77.68C158.407 77.9067 158.954 78.1133 159.58 78.3C160.22 78.4733 160.84 78.56 161.44 78.56C162.24 78.56 162.814 78.4333 163.16 78.18C163.52 77.9267 163.7 77.5867 163.7 77.16C163.7 76.92 163.634 76.7067 163.5 76.52C163.367 76.32 163.114 76.12 162.74 75.92C162.38 75.7067 161.847 75.4667 161.14 75.2C160.447 74.9333 159.86 74.66 159.38 74.38C158.914 74.1 158.554 73.7667 158.3 73.38C158.047 72.9933 157.92 72.5067 157.92 71.92C157.92 70.9867 158.294 70.2733 159.04 69.78C159.8 69.2733 160.8 69.02 162.04 69.02C162.694 69.02 163.307 69.0867 163.88 69.22C164.467 69.3533 165.034 69.54 165.58 69.78L164.88 71.4C164.414 71.2 163.934 71.0333 163.44 70.9C162.947 70.7533 162.447 70.68 161.94 70.68C160.634 70.68 159.98 71.06 159.98 71.82C159.98 72.0733 160.054 72.2933 160.2 72.48C160.36 72.6667 160.627 72.8533 161 73.04C161.387 73.2267 161.92 73.4533 162.6 73.72C163.254 73.9733 163.814 74.24 164.28 74.52C164.76 74.7867 165.127 75.1133 165.38 75.5C165.634 75.8867 165.76 76.3733 165.76 76.96Z" fill="#284162"/>
<path d="M84.7722 82.5H166.62V83.5H84.7722V82.5Z" fill="#284162"/>
<path d="M219.077 79.75H217.357V69.77C217.357 69.1967 217.364 68.7367 217.377 68.39C217.391 68.0433 217.411 67.6833 217.437 67.31C217.224 67.5233 217.031 67.7033 216.857 67.85C216.684 67.9967 216.464 68.1833 216.197 68.41L214.677 69.65L213.757 68.47L217.617 65.47H219.077V79.75Z" fill="#26374A"/>
<path d="M211.977 82.25H223.417V83.25H211.977V82.25Z" fill="#26374A"/>
<path d="M274.027 77.24C274.027 76.688 274.177 76.304 274.477 76.088C274.777 75.86 275.143 75.746 275.575 75.746C275.995 75.746 276.355 75.86 276.655 76.088C276.955 76.304 277.105 76.688 277.105 77.24C277.105 77.768 276.955 78.152 276.655 78.392C276.355 78.62 275.995 78.734 275.575 78.734C275.143 78.734 274.777 78.62 274.477 78.392C274.177 78.152 274.027 77.768 274.027 77.24ZM279.16 77.24C279.16 76.688 279.31 76.304 279.61 76.088C279.91 75.86 280.276 75.746 280.708 75.746C281.128 75.746 281.488 75.86 281.788 76.088C282.088 76.304 282.238 76.688 282.238 77.24C282.238 77.768 282.088 78.152 281.788 78.392C281.488 78.62 281.128 78.734 280.708 78.734C280.276 78.734 279.91 78.62 279.61 78.392C279.31 78.152 279.16 77.768 279.16 77.24ZM284.292 77.24C284.292 76.688 284.442 76.304 284.742 76.088C285.042 75.86 285.408 75.746 285.84 75.746C286.26 75.746 286.62 75.86 286.92 76.088C287.22 76.304 287.37 76.688 287.37 77.24C287.37 77.768 287.22 78.152 286.92 78.392C286.62 78.62 286.26 78.734 285.84 78.734C285.408 78.734 285.042 78.62 284.742 78.392C284.442 78.152 284.292 77.768 284.292 77.24Z" fill="#26374A"/>
<path d="M343.677 65.27C344.931 65.27 345.957 65.5633 346.757 66.15C347.557 66.7367 347.957 67.5833 347.957 68.69C347.957 69.2633 347.831 69.7633 347.577 70.19C347.337 70.6167 347.011 70.9967 346.597 71.33C346.184 71.65 345.731 71.9367 345.237 72.19C345.824 72.47 346.357 72.79 346.837 73.15C347.317 73.4967 347.697 73.9033 347.977 74.37C348.271 74.8367 348.417 75.3967 348.417 76.05C348.417 77.25 347.991 78.2033 347.137 78.91C346.297 79.6033 345.164 79.95 343.737 79.95C342.204 79.95 341.024 79.6167 340.197 78.95C339.371 78.27 338.957 77.3233 338.957 76.11C338.957 75.4567 339.091 74.89 339.357 74.41C339.637 73.93 340.004 73.5167 340.457 73.17C340.911 72.8233 341.397 72.53 341.917 72.29C341.224 71.89 340.631 71.41 340.137 70.85C339.657 70.2767 339.417 69.55 339.417 68.67C339.417 67.9367 339.604 67.3233 339.977 66.83C340.351 66.3233 340.857 65.9367 341.497 65.67C342.137 65.4033 342.864 65.27 343.677 65.27ZM343.657 66.69C342.924 66.69 342.317 66.87 341.837 67.23C341.371 67.5767 341.137 68.0833 341.137 68.75C341.137 69.2433 341.251 69.6567 341.477 69.99C341.717 70.3233 342.037 70.61 342.437 70.85C342.837 71.0767 343.277 71.2967 343.757 71.51C344.451 71.2167 345.031 70.8633 345.497 70.45C345.977 70.0367 346.217 69.47 346.217 68.75C346.217 68.0833 345.984 67.5767 345.517 67.23C345.051 66.87 344.431 66.69 343.657 66.69ZM340.677 76.13C340.677 76.8233 340.924 77.4033 341.417 77.87C341.911 78.3233 342.671 78.55 343.697 78.55C344.671 78.55 345.411 78.3233 345.917 77.87C346.437 77.4033 346.697 76.8033 346.697 76.07C346.697 75.3767 346.424 74.8033 345.877 74.35C345.331 73.8833 344.604 73.4767 343.697 73.13L343.377 73.01C342.497 73.3833 341.824 73.8167 341.357 74.31C340.904 74.79 340.677 75.3967 340.677 76.13Z" fill="#26374A"/>
<path d="M337.977 82.25H349.417V83.25H337.977V82.25Z" fill="#26374A"/>
<rect x="382.7" y="48" width="48" height="48" rx="4" fill="#26374A"/>
<path d="M411.377 71.57C411.377 72.5967 411.284 73.61 411.097 74.61C410.924 75.5967 410.597 76.4967 410.117 77.31C409.651 78.11 408.984 78.75 408.117 79.23C407.264 79.71 406.164 79.95 404.817 79.95C404.551 79.95 404.237 79.93 403.877 79.89C403.531 79.8633 403.244 79.8167 403.017 79.75V78.25C403.537 78.4233 404.124 78.51 404.777 78.51C405.711 78.51 406.477 78.3567 407.077 78.05C407.691 77.7433 408.177 77.33 408.537 76.81C408.897 76.2767 409.157 75.6633 409.317 74.97C409.477 74.2633 409.571 73.5233 409.597 72.75H409.477C409.184 73.2033 408.757 73.5967 408.197 73.93C407.651 74.25 406.944 74.41 406.077 74.41C404.851 74.41 403.857 74.0367 403.097 73.29C402.351 72.53 401.977 71.4633 401.977 70.09C401.977 69.09 402.164 68.23 402.537 67.51C402.924 66.79 403.457 66.2367 404.137 65.85C404.817 65.4633 405.617 65.27 406.537 65.27C407.444 65.27 408.264 65.5033 408.997 65.97C409.731 66.4233 410.311 67.1167 410.737 68.05C411.164 68.97 411.377 70.1433 411.377 71.57ZM406.537 66.75C405.711 66.75 405.031 67.0233 404.497 67.57C403.977 68.1167 403.717 68.95 403.717 70.07C403.717 70.99 403.937 71.7167 404.377 72.25C404.831 72.77 405.524 73.03 406.457 73.03C407.097 73.03 407.651 72.9033 408.117 72.65C408.584 72.3833 408.944 72.05 409.197 71.65C409.464 71.25 409.597 70.8367 409.597 70.41C409.597 69.8367 409.484 69.27 409.257 68.71C409.031 68.15 408.691 67.6833 408.237 67.31C407.784 66.9367 407.217 66.75 406.537 66.75Z" fill="white"/>
<path d="M465.355 79.75H463.635V69.77C463.635 69.1967 463.641 68.7367 463.655 68.39C463.668 68.0433 463.688 67.6833 463.715 67.31C463.501 67.5233 463.308 67.7033 463.135 67.85C462.961 67.9967 462.741 68.1833 462.475 68.41L460.955 69.65L460.035 68.47L463.895 65.47H465.355V79.75ZM480.16 72.59C480.16 74.1233 480 75.4433 479.68 76.55C479.36 77.6433 478.853 78.4833 478.16 79.07C477.467 79.6567 476.547 79.95 475.4 79.95C473.787 79.95 472.593 79.3033 471.82 78.01C471.06 76.7033 470.68 74.8967 470.68 72.59C470.68 71.0433 470.833 69.7233 471.14 68.63C471.46 67.5367 471.967 66.7033 472.66 66.13C473.353 65.5433 474.267 65.25 475.4 65.25C477 65.25 478.193 65.8967 478.98 67.19C479.767 68.47 480.16 70.27 480.16 72.59ZM472.44 72.59C472.44 74.55 472.66 76.0167 473.1 76.99C473.553 77.9633 474.32 78.45 475.4 78.45C476.467 78.45 477.227 77.97 477.68 77.01C478.147 76.0367 478.38 74.5633 478.38 72.59C478.38 70.6433 478.147 69.1833 477.68 68.21C477.227 67.2367 476.467 66.75 475.4 66.75C474.32 66.75 473.553 67.2367 473.1 68.21C472.66 69.1833 472.44 70.6433 472.44 72.59Z" fill="#26374A"/>
<path d="M458.255 82.25H481.14V83.25H458.255V82.25Z" fill="#26374A"/>
<path d="M526.027 77.24C526.027 76.688 526.177 76.304 526.477 76.088C526.777 75.86 527.143 75.746 527.575 75.746C527.995 75.746 528.355 75.86 528.655 76.088C528.955 76.304 529.105 76.688 529.105 77.24C529.105 77.768 528.955 78.152 528.655 78.392C528.355 78.62 527.995 78.734 527.575 78.734C527.143 78.734 526.777 78.62 526.477 78.392C526.177 78.152 526.027 77.768 526.027 77.24ZM531.16 77.24C531.16 76.688 531.31 76.304 531.61 76.088C531.91 75.86 532.276 75.746 532.708 75.746C533.128 75.746 533.488 75.86 533.788 76.088C534.088 76.304 534.238 76.688 534.238 77.24C534.238 77.768 534.088 78.152 533.788 78.392C533.488 78.62 533.128 78.734 532.708 78.734C532.276 78.734 531.91 78.62 531.61 78.392C531.31 78.152 531.16 77.768 531.16 77.24ZM536.292 77.24C536.292 76.688 536.442 76.304 536.742 76.088C537.042 75.86 537.408 75.746 537.84 75.746C538.26 75.746 538.62 75.86 538.92 76.088C539.22 76.304 539.37 76.688 539.37 77.24C539.37 77.768 539.22 78.152 538.92 78.392C538.62 78.62 538.26 78.734 537.84 78.734C537.408 78.734 537.042 78.62 536.742 78.392C536.442 78.152 536.292 77.768 536.292 77.24Z" fill="#26374A"/>
<path d="M591.355 79.75H589.635V69.77C589.635 69.1967 589.641 68.7367 589.655 68.39C589.668 68.0433 589.688 67.6833 589.715 67.31C589.501 67.5233 589.308 67.7033 589.135 67.85C588.961 67.9967 588.741 68.1833 588.475 68.41L586.955 69.65L586.035 68.47L589.895 65.47H591.355V79.75ZM601.2 70.99C602.667 70.99 603.833 71.3567 604.7 72.09C605.567 72.8233 606 73.8567 606 75.19C606 76.67 605.527 77.8367 604.58 78.69C603.647 79.53 602.34 79.95 600.66 79.95C599.927 79.95 599.233 79.8833 598.58 79.75C597.94 79.6167 597.4 79.4233 596.96 79.17V77.51C597.44 77.8033 598.02 78.0367 598.7 78.21C599.393 78.37 600.053 78.45 600.68 78.45C601.733 78.45 602.58 78.2033 603.22 77.71C603.873 77.2033 604.2 76.4233 604.2 75.37C604.2 74.4367 603.913 73.7233 603.34 73.23C602.767 72.7233 601.86 72.47 600.62 72.47C600.247 72.47 599.82 72.5033 599.34 72.57C598.86 72.6367 598.473 72.7033 598.18 72.77L597.3 72.21L597.84 65.47H605V67.07H599.34L599 71.21C599.227 71.17 599.533 71.1233 599.92 71.07C600.307 71.0167 600.733 70.99 601.2 70.99Z" fill="#26374A"/>
<path d="M584.255 82.25H607.14V83.25H584.255V82.25Z" fill="#26374A"/>
<path d="M660.771 80H658.151L650.931 68.46H650.851C650.878 68.9933 650.904 69.6067 650.931 70.3C650.971 70.98 650.998 71.68 651.011 72.4V80H649.051V65.72H651.651L658.851 77.2H658.911C658.898 76.92 658.878 76.5667 658.851 76.14C658.838 75.7133 658.824 75.26 658.811 74.78C658.798 74.2867 658.784 73.8267 658.771 73.4V65.72H660.771V80ZM668.578 69.02C669.992 69.02 671.105 69.46 671.918 70.34C672.732 71.2067 673.138 72.3933 673.138 73.9V75.06H665.898C665.925 76.1667 666.212 77.0133 666.758 77.6C667.318 78.1867 668.098 78.48 669.098 78.48C669.792 78.48 670.405 78.42 670.938 78.3C671.485 78.1667 672.045 77.9733 672.618 77.72V79.48C672.072 79.7333 671.525 79.9133 670.978 80.02C670.432 80.14 669.778 80.2 669.018 80.2C667.978 80.2 667.058 79.9933 666.258 79.58C665.458 79.1667 664.832 78.5533 664.378 77.74C663.938 76.9267 663.718 75.9133 663.718 74.7C663.718 73.4867 663.918 72.46 664.318 71.62C664.732 70.78 665.298 70.14 666.018 69.7C666.752 69.2467 667.605 69.02 668.578 69.02ZM668.578 70.66C667.818 70.66 667.205 70.9067 666.738 71.4C666.285 71.8933 666.018 72.5933 665.938 73.5H671.018C671.005 72.66 670.798 71.98 670.398 71.46C670.012 70.9267 669.405 70.66 668.578 70.66ZM677.853 74.5L674.193 69.22H676.613L679.173 73.1L681.733 69.22H684.133L680.473 74.5L684.313 80H681.913L679.173 75.88L676.413 80H674.013L677.853 74.5ZM690.133 78.48C690.733 78.48 691.273 78.3933 691.753 78.22V79.82C691.526 79.9267 691.219 80.0133 690.833 80.08C690.446 80.16 690.059 80.2 689.673 80.2C689.086 80.2 688.546 80.1 688.053 79.9C687.573 79.7 687.186 79.3533 686.893 78.86C686.599 78.3667 686.453 77.68 686.453 76.8V70.84H684.953V69.88L686.533 69.08L687.273 66.8H688.573V69.22H691.653V70.84H688.573V76.76C688.573 77.3467 688.713 77.78 688.993 78.06C689.286 78.34 689.666 78.48 690.133 78.48Z" fill="#284162"/>
<path d="M647.151 82.5H692.253V83.5H647.151V82.5Z" fill="#284162"/>
<path d="M712.542 72L705.7 78.8421L707.279 80.4211L715.7 72L707.279 63.579L705.7 65.1579L712.542 72Z" fill="#284162"/>
<g clip-path="url(#clip0_6833_21838)">
<rect x="730" y="72" width="48" height="1" fill="#C54600"/>
<g clip-path="url(#clip1_6833_21838)">
<rect x="754" y="60" width="24" height="24" rx="12" fill="#C54600"/>
<path d="M766.032 77.1392C765.33 77.1392 764.703 77.0099 764.153 76.7514C763.606 76.4929 763.172 76.1366 762.85 75.6825C762.529 75.2285 762.362 74.7081 762.348 74.1214H764.436C764.46 74.5159 764.625 74.8357 764.934 75.081C765.242 75.3262 765.608 75.4489 766.032 75.4489C766.37 75.4489 766.669 75.3743 766.927 75.2251C767.189 75.0727 767.393 74.8622 767.539 74.5938C767.688 74.322 767.762 74.0104 767.762 73.6591C767.762 73.3011 767.686 72.9863 767.534 72.7145C767.385 72.4427 767.177 72.2306 766.912 72.0781C766.647 71.9257 766.344 71.8478 766.002 71.8445C765.704 71.8445 765.414 71.9058 765.132 72.0284C764.854 72.151 764.637 72.3184 764.481 72.5305L762.567 72.1875L763.049 66.8182H769.274V68.5781H764.824L764.561 71.1286H764.62C764.799 70.8767 765.069 70.6679 765.431 70.5021C765.792 70.3364 766.196 70.2536 766.644 70.2536C767.257 70.2536 767.804 70.3977 768.284 70.6861C768.765 70.9744 769.145 71.3705 769.423 71.8743C769.701 72.3748 769.839 72.9515 769.836 73.6044C769.839 74.2905 769.68 74.9003 769.358 75.4339C769.04 75.9643 768.594 76.3819 768.021 76.6868C767.451 76.9884 766.788 77.1392 766.032 77.1392Z" fill="white"/>
</g>
</g>
<g clip-path="url(#clip2_6833_21838)">
<rect x="532.4" width="1" height="65" fill="#C54600"/>
<g clip-path="url(#clip3_6833_21838)">
<rect x="520.4" width="24" height="24" rx="12" fill="#C54600"/>
<path d="M528.327 15.2102V13.5149L532.578 6.81818H534.04V9.16477H533.175L530.495 13.4055V13.4851H536.536V15.2102H528.327ZM533.214 17V14.6932L533.254 13.9425V6.81818H535.273V17H533.214Z" fill="white"/>
</g>
</g>
<g clip-path="url(#clip4_6833_21838)">
<rect x="405.4" width="1" height="48" fill="#C54600"/>
<g clip-path="url(#clip5_6833_21838)">
<rect x="393.4" width="24" height="24" rx="12" fill="#C54600"/>
<path d="M405.374 17.1392C404.632 17.1392 403.971 17.0116 403.391 16.7564C402.814 16.4979 402.358 16.1432 402.024 15.6925C401.692 15.2384 401.521 14.7147 401.511 14.1214H403.679C403.692 14.37 403.774 14.5888 403.923 14.7777C404.075 14.9633 404.277 15.1075 404.529 15.2102C404.781 15.313 405.065 15.3643 405.379 15.3643C405.708 15.3643 405.998 15.3063 406.249 15.1903C406.501 15.0743 406.699 14.9136 406.841 14.7081C406.984 14.5026 407.055 14.2656 407.055 13.9972C407.055 13.7254 406.979 13.4851 406.826 13.2763C406.677 13.0642 406.462 12.8984 406.18 12.7791C405.901 12.6598 405.57 12.6001 405.186 12.6001H404.236V11.0192H405.186C405.51 11.0192 405.797 10.9628 406.046 10.8501C406.297 10.7375 406.493 10.5817 406.632 10.3828C406.771 10.1806 406.841 9.94531 406.841 9.67685C406.841 9.42164 406.78 9.19792 406.657 9.00568C406.538 8.81013 406.369 8.65767 406.15 8.5483C405.935 8.43892 405.683 8.38423 405.394 8.38423C405.103 8.38423 404.836 8.43726 404.594 8.54332C404.352 8.64607 404.158 8.79356 404.012 8.9858C403.866 9.17803 403.788 9.40341 403.779 9.66193H401.715C401.725 9.07528 401.893 8.55824 402.217 8.1108C402.542 7.66335 402.98 7.31368 403.53 7.06179C404.083 6.80658 404.708 6.67898 405.404 6.67898C406.107 6.67898 406.722 6.80658 407.249 7.06179C407.776 7.317 408.185 7.66169 408.477 8.09588C408.772 8.52675 408.918 9.01065 408.914 9.54758C408.918 10.1177 408.74 10.5933 408.382 10.9744C408.028 11.3556 407.565 11.5975 406.995 11.7003V11.7798C407.744 11.8759 408.314 12.1361 408.705 12.5604C409.1 12.9813 409.295 13.5083 409.292 14.1413C409.295 14.7214 409.128 15.2367 408.79 15.6875C408.455 16.1383 407.993 16.4929 407.403 16.7514C406.813 17.0099 406.137 17.1392 405.374 17.1392Z" fill="white"/>
</g>
</g>
<g clip-path="url(#clip6_6833_21838)">
<rect x="217.4" width="1" height="60" fill="#C54600"/>
<g clip-path="url(#clip7_6833_21838)">
<rect x="205.4" width="24" height="24" rx="12" fill="#C54600"/>
<path d="M213.816 17V15.4489L217.44 12.093C217.749 11.7947 218.007 11.5263 218.216 11.2876C218.428 11.049 218.589 10.8153 218.698 10.5866C218.807 10.3546 218.862 10.1044 218.862 9.83594C218.862 9.53764 218.794 9.28078 218.658 9.06534C218.522 8.84659 218.337 8.67921 218.102 8.56321C217.866 8.44389 217.599 8.38423 217.301 8.38423C216.99 8.38423 216.718 8.44721 216.486 8.57315C216.254 8.6991 216.075 8.87973 215.949 9.11506C215.823 9.35038 215.76 9.63044 215.76 9.95526H213.717C213.717 9.28906 213.867 8.7107 214.169 8.22017C214.471 7.72964 214.893 7.35014 215.437 7.08168C215.98 6.81321 216.607 6.67898 217.316 6.67898C218.045 6.67898 218.68 6.80824 219.22 7.06676C219.764 7.32197 220.186 7.67661 220.488 8.13068C220.789 8.58475 220.94 9.10511 220.94 9.69176C220.94 10.0762 220.864 10.4557 220.712 10.8303C220.562 11.2048 220.296 11.6207 219.911 12.0781C219.527 12.5322 218.985 13.0774 218.285 13.7138L216.799 15.1705V15.2401H221.075V17H213.816Z" fill="white"/>
</g>
</g>
<g clip-path="url(#clip8_6833_21838)">
<rect y="72" width="48" height="1" fill="#C54600"/>
<g clip-path="url(#clip9_6833_21838)">
<rect y="60" width="24" height="24" rx="12" fill="#C54600"/>
<path d="M13.8302 66.8182V77H11.6775V68.8615H11.6178L9.28613 70.3232V68.4141L11.8067 66.8182H13.8302Z" fill="white"/>
</g>
</g>
<defs>
<clipPath id="clip0_6833_21838">
<rect width="48" height="24" fill="white" transform="translate(730 60)"/>
</clipPath>
<clipPath id="clip1_6833_21838">
<rect x="754" y="60" width="24" height="24" rx="12" fill="white"/>
</clipPath>
<clipPath id="clip2_6833_21838">
<rect width="24" height="65" fill="white" transform="translate(520.4)"/>
</clipPath>
<clipPath id="clip3_6833_21838">
<rect x="520.4" width="24" height="24" rx="12" fill="white"/>
</clipPath>
<clipPath id="clip4_6833_21838">
<rect width="24" height="48" fill="white" transform="translate(393.4)"/>
</clipPath>
<clipPath id="clip5_6833_21838">
<rect x="393.4" width="24" height="24" rx="12" fill="white"/>
</clipPath>
<clipPath id="clip6_6833_21838">
<rect width="24" height="60" fill="white" transform="translate(205.4)"/>
</clipPath>
<clipPath id="clip7_6833_21838">
<rect x="205.4" width="24" height="24" rx="12" fill="white"/>
</clipPath>
<clipPath id="clip8_6833_21838">
<rect width="48" height="24" fill="white" transform="translate(0 60)"/>
</clipPath>
<clipPath id="clip9_6833_21838">
<rect y="60" width="24" height="24" rx="12" fill="white"/>
</clipPath>
</defs>
</svg>
