<svg xmlns="http://www.w3.org/2000/svg" xmlns:xlink="http://www.w3.org/1999/xlink" width="365" viewBox="0 0 370 160.4" style="enable-background:new 0 0 370 160.4;" xml:space="preserve">
<style type="text/css">
	.st0{clip-path:url(#SVGID_00000139975459957174643040000004017433679969351826_);}
	.st1{fill:#2B4380;}
	.st2{fill:none;stroke:#2B4380;}
	.st3{fill:#333333;}
	.st4{clip-path:url(#SVGID_00000168100672531940795660000013333623418228336778_);}
	.st5{fill:#C54600;}
	.st6{clip-path:url(#SVGID_00000163783757845172139490000013145328344826638210_);}
	.st7{fill:#FFFFFF;}
	.st8{clip-path:url(#SVGID_00000050652465680750141380000011934872372635346350_);}
	.st9{clip-path:url(#SVGID_00000147194221048673034590000010047107115646724542_);}
	.st10{clip-path:url(#SVGID_00000168807567293240258650000000085103504874350246_);}
	.st11{clip-path:url(#SVGID_00000025434518919113499790000005610853126035311004_);}
	.st12{fill:#A8ADB4;}
</style>
<g>
	<defs>
		<rect id="SVGID_1_" x="59" y="54" width="18" height="24"/>
	</defs>
	<clipPath id="SVGID_00000016786308280549997430000009202149760125009827_">
		<use xlink:href="#SVGID_1_"  style="overflow:visible;"/>
	</clipPath>
	<g style="clip-path:url(#SVGID_00000016786308280549997430000009202149760125009827_);">
		<path class="st1" d="M68,75l-7.8-13.5h15.6L68,75z"/>
	</g>
</g>
<path class="st1" d="M103.9,74V59.7h1.8v12.7h6.2V74H103.9z M118.3,63.1c0.9,0,1.7,0.2,2.4,0.6c0.7,0.4,1.2,1,1.5,1.7 c0.4,0.7,0.5,1.6,0.5,2.5V69h-7.3c0,1.2,0.3,2.1,0.9,2.8c0.6,0.6,1.4,0.9,2.5,0.9c0.7,0,1.3-0.1,1.8-0.2c0.5-0.1,1.1-0.3,1.6-0.6 v1.5c-0.5,0.2-1.1,0.4-1.6,0.5c-0.5,0.1-1.2,0.2-1.9,0.2c-1,0-1.9-0.2-2.7-0.6c-0.8-0.4-1.4-1-1.8-1.8c-0.4-0.8-0.6-1.8-0.6-3 c0-1.2,0.2-2.2,0.6-3c0.4-0.8,1-1.5,1.7-1.9C116.5,63.3,117.4,63.1,118.3,63.1z M118.3,64.5c-0.8,0-1.5,0.3-2,0.8 c-0.5,0.5-0.8,1.3-0.9,2.2h5.5c0-0.9-0.2-1.6-0.6-2.2C119.9,64.8,119.2,64.5,118.3,64.5z M129.5,63.1c1.3,0,2.3,0.3,2.9,0.9 c0.6,0.6,0.9,1.5,0.9,2.7V74h-1.3l-0.3-1.5h-0.1c-0.5,0.6-1,1-1.5,1.3c-0.5,0.3-1.2,0.4-2.1,0.4c-1,0-1.8-0.3-2.4-0.8 c-0.6-0.5-1-1.3-1-2.4c0-1.1,0.4-1.9,1.3-2.5c0.8-0.6,2.1-0.9,3.9-1l1.8-0.1v-0.6c0-0.9-0.2-1.5-0.6-1.9c-0.4-0.3-0.9-0.5-1.6-0.5 c-0.6,0-1.1,0.1-1.6,0.3c-0.5,0.2-1,0.3-1.4,0.6l-0.5-1.3c0.5-0.3,1-0.5,1.7-0.6C128.2,63.2,128.8,63.1,129.5,63.1z M130.1,68.8 c-1.3,0.1-2.3,0.3-2.8,0.6c-0.5,0.4-0.8,0.9-0.8,1.6c0,0.6,0.2,1,0.5,1.3c0.4,0.3,0.8,0.4,1.4,0.4c0.9,0,1.7-0.2,2.3-0.7 c0.6-0.5,0.9-1.3,0.9-2.3v-1L130.1,68.8z M141.7,63.1c0.2,0,0.4,0,0.6,0c0.2,0,0.4,0,0.6,0.1l-0.2,1.6c-0.2,0-0.4-0.1-0.6-0.1 c-0.2,0-0.4,0-0.6,0c-0.5,0-1.1,0.2-1.5,0.5c-0.5,0.3-0.9,0.7-1.2,1.3c-0.3,0.5-0.4,1.2-0.4,1.9V74h-1.8V63.3h1.4l0.2,2h0.1 c0.3-0.6,0.8-1.1,1.3-1.5C140.3,63.3,140.9,63.1,141.7,63.1z M150.1,63.1c1.3,0,2.2,0.3,2.9,0.9c0.7,0.6,1,1.6,1,3v7h-1.7v-6.9 c0-1.7-0.8-2.6-2.4-2.6c-1.2,0-2,0.3-2.5,1c-0.5,0.7-0.7,1.6-0.7,2.9V74h-1.8V63.3h1.4l0.3,1.5h0.1c0.3-0.6,0.8-1,1.4-1.2 C148.8,63.2,149.4,63.1,150.1,63.1z M174.3,63.1c1.2,0,2.1,0.3,2.7,0.9c0.6,0.6,0.9,1.6,0.9,3v7h-1.7v-6.9c0-1.7-0.7-2.5-2.2-2.5 c-1,0-1.8,0.3-2.2,0.9c-0.4,0.6-0.7,1.5-0.7,2.6V74h-1.7v-6.9c0-1.7-0.7-2.5-2.2-2.5c-1.1,0-1.8,0.3-2.2,1c-0.4,0.7-0.6,1.6-0.6,2.9 V74h-1.8V63.3h1.4l0.3,1.5h0.1c0.3-0.6,0.8-1,1.3-1.2c0.6-0.3,1.2-0.4,1.8-0.4c1.7,0,2.8,0.6,3.3,1.8h0.1c0.4-0.6,0.8-1.1,1.5-1.4 C172.9,63.2,173.6,63.1,174.3,63.1z M190.5,68.6c0,1.8-0.5,3.1-1.4,4.1c-0.9,1-2.1,1.5-3.6,1.5c-0.9,0-1.8-0.2-2.5-0.6 c-0.7-0.4-1.3-1.1-1.7-1.9c-0.4-0.8-0.6-1.9-0.6-3c0-1.8,0.4-3.1,1.3-4.1c0.9-1,2.1-1.4,3.6-1.4c1,0,1.8,0.2,2.6,0.7 c0.7,0.4,1.3,1.1,1.7,1.9C190.3,66.4,190.5,67.4,190.5,68.6z M182.4,68.6c0,1.3,0.2,2.3,0.7,3c0.5,0.7,1.3,1.1,2.4,1.1 c1.1,0,1.9-0.4,2.4-1.1c0.5-0.7,0.8-1.8,0.8-3s-0.3-2.3-0.8-3s-1.3-1.1-2.4-1.1c-1.1,0-1.9,0.4-2.4,1.1S182.4,67.4,182.4,68.6z M198.3,63.1c0.2,0,0.4,0,0.6,0c0.2,0,0.4,0,0.6,0.1l-0.2,1.6c-0.2,0-0.4-0.1-0.6-0.1c-0.2,0-0.4,0-0.6,0c-0.5,0-1.1,0.2-1.5,0.5 c-0.5,0.3-0.9,0.7-1.2,1.3c-0.3,0.5-0.4,1.2-0.4,1.9V74h-1.8V63.3h1.4l0.2,2h0.1c0.3-0.6,0.8-1.1,1.3-1.5 C196.9,63.3,197.6,63.1,198.3,63.1z M205.3,63.1c0.9,0,1.7,0.2,2.4,0.6c0.7,0.4,1.2,1,1.5,1.7c0.4,0.7,0.5,1.6,0.5,2.5V69h-7.3 c0,1.2,0.3,2.1,0.9,2.8c0.6,0.6,1.4,0.9,2.5,0.9c0.7,0,1.3-0.1,1.8-0.2c0.5-0.1,1.1-0.3,1.6-0.6v1.5c-0.5,0.2-1.1,0.4-1.6,0.5 c-0.5,0.1-1.2,0.2-1.9,0.2c-1,0-1.9-0.2-2.7-0.6c-0.8-0.4-1.4-1-1.8-1.8c-0.4-0.8-0.6-1.8-0.6-3c0-1.2,0.2-2.2,0.6-3 c0.4-0.8,1-1.5,1.7-1.9C203.5,63.3,204.4,63.1,205.3,63.1z M205.3,64.5c-0.8,0-1.5,0.3-2,0.8c-0.5,0.5-0.8,1.3-0.9,2.2h5.5 c0-0.9-0.2-1.6-0.6-2.2C206.8,64.8,206.2,64.5,205.3,64.5z M221.7,63.1c1.3,0,2.3,0.3,2.9,0.9c0.6,0.6,0.9,1.5,0.9,2.7V74h-1.3 l-0.3-1.5h-0.1c-0.5,0.6-1,1-1.5,1.3c-0.5,0.3-1.2,0.4-2.1,0.4c-1,0-1.8-0.3-2.4-0.8c-0.6-0.5-1-1.3-1-2.4c0-1.1,0.4-1.9,1.3-2.5 c0.8-0.6,2.1-0.9,3.9-1l1.8-0.1v-0.6c0-0.9-0.2-1.5-0.6-1.9s-0.9-0.5-1.6-0.5c-0.6,0-1.1,0.1-1.6,0.3c-0.5,0.2-1,0.3-1.4,0.6 l-0.5-1.3c0.5-0.3,1-0.5,1.7-0.6C220.4,63.2,221,63.1,221.7,63.1z M222.2,68.8c-1.3,0.1-2.3,0.3-2.8,0.6c-0.5,0.4-0.8,0.9-0.8,1.6 c0,0.6,0.2,1,0.5,1.3c0.4,0.3,0.8,0.4,1.4,0.4c0.9,0,1.7-0.2,2.3-0.7c0.6-0.5,0.9-1.3,0.9-2.3v-1L222.2,68.8z M230.6,62.5 c0,0.5,0,0.9,0,1.3c0,0.4,0,0.7-0.1,0.9h0.1c0.3-0.5,0.7-0.8,1.3-1.1c0.5-0.3,1.2-0.5,2.1-0.5c1.3,0,2.4,0.5,3.2,1.4 c0.8,0.9,1.2,2.3,1.2,4.1c0,1.8-0.4,3.2-1.2,4.2c-0.8,0.9-1.9,1.4-3.2,1.4c-0.8,0-1.5-0.2-2.1-0.5c-0.5-0.3-1-0.7-1.3-1.1h-0.1 l-0.4,1.4h-1.3V58.8h1.8V62.5z M233.7,64.6c-1.1,0-1.9,0.3-2.4,1c-0.4,0.7-0.7,1.7-0.7,3v0.1c0,1.3,0.2,2.3,0.6,3 c0.4,0.7,1.2,1,2.4,1c1,0,1.7-0.4,2.1-1.1c0.5-0.7,0.7-1.7,0.7-3.1C236.6,65.9,235.6,64.6,233.7,64.6z M250.5,68.6 c0,1.8-0.5,3.1-1.4,4.1c-0.9,1-2.1,1.5-3.6,1.5c-0.9,0-1.8-0.2-2.5-0.6c-0.7-0.4-1.3-1.1-1.7-1.9c-0.4-0.8-0.6-1.9-0.6-3 c0-1.8,0.4-3.1,1.3-4.1c0.9-1,2.1-1.4,3.6-1.4c1,0,1.8,0.2,2.6,0.7c0.7,0.4,1.3,1.1,1.7,1.9C250.3,66.4,250.5,67.4,250.5,68.6z M242.4,68.6c0,1.3,0.2,2.3,0.7,3c0.5,0.7,1.3,1.1,2.4,1.1c1.1,0,1.9-0.4,2.4-1.1c0.5-0.7,0.8-1.8,0.8-3s-0.3-2.3-0.8-3 c-0.5-0.7-1.3-1.1-2.4-1.1c-1.1,0-1.9,0.4-2.4,1.1C242.6,66.4,242.4,67.4,242.4,68.6z M262.2,63.3V74h-1.4l-0.3-1.4h-0.1 c-0.3,0.6-0.8,1-1.4,1.2c-0.6,0.3-1.3,0.4-2,0.4c-1.3,0-2.3-0.3-2.9-0.9c-0.7-0.6-1-1.6-1-3v-7h1.8v6.9c0,1.7,0.8,2.6,2.4,2.6 c1.2,0,2-0.3,2.5-1c0.5-0.7,0.7-1.6,0.7-2.9v-5.6H262.2z M269.2,72.8c0.3,0,0.5,0,0.8-0.1c0.3-0.1,0.5-0.1,0.7-0.2v1.3 c-0.2,0.1-0.5,0.2-0.8,0.2c-0.3,0.1-0.7,0.1-1,0.1c-0.6,0-1.1-0.1-1.6-0.3c-0.5-0.2-0.8-0.5-1.1-1c-0.3-0.5-0.4-1.2-0.4-2v-6.2h-1.5 v-0.8l1.5-0.7l0.7-2.3h1v2.5h3.1v1.4h-3.1v6.2c0,0.7,0.2,1.1,0.5,1.5C268.3,72.6,268.7,72.8,269.2,72.8z M281.7,72.8 c0.3,0,0.5,0,0.8-0.1c0.3-0.1,0.5-0.1,0.7-0.2v1.3c-0.2,0.1-0.5,0.2-0.8,0.2c-0.3,0.1-0.7,0.1-1,0.1c-0.6,0-1.1-0.1-1.6-0.3 c-0.5-0.2-0.8-0.5-1.1-1c-0.3-0.5-0.4-1.2-0.4-2v-6.2h-1.5v-0.8l1.5-0.7l0.7-2.3h1v2.5h3.1v1.4H280v6.2c0,0.7,0.2,1.1,0.5,1.5 C280.8,72.6,281.2,72.8,281.7,72.8z M287.1,63.3c0,0.5,0,1-0.1,1.5h0.1c0.3-0.5,0.8-1,1.4-1.2c0.6-0.3,1.2-0.4,1.9-0.4 c1.3,0,2.3,0.3,2.9,0.9c0.7,0.6,1,1.6,1,3v7h-1.7v-6.9c0-1.7-0.8-2.6-2.4-2.6c-1.2,0-2,0.3-2.5,1c-0.4,0.7-0.7,1.6-0.7,2.9V74h-1.8 V58.8h1.8V63.3z M298.6,59.3c0.3,0,0.5,0.1,0.7,0.3c0.2,0.2,0.3,0.5,0.3,0.8c0,0.4-0.1,0.7-0.3,0.8c-0.2,0.2-0.4,0.3-0.7,0.3 c-0.3,0-0.5-0.1-0.7-0.3c-0.2-0.2-0.3-0.5-0.3-0.8c0-0.4,0.1-0.7,0.3-0.8C298,59.4,298.3,59.3,298.6,59.3z M299.4,63.3V74h-1.8V63.3 H299.4z M309.8,71c0,1-0.4,1.8-1.2,2.4c-0.8,0.5-1.8,0.8-3.1,0.8c-0.7,0-1.4-0.1-1.9-0.2c-0.5-0.1-1-0.3-1.4-0.5v-1.6 c0.4,0.2,0.9,0.4,1.5,0.6c0.6,0.2,1.2,0.3,1.9,0.3c0.9,0,1.5-0.1,1.9-0.4c0.4-0.3,0.6-0.7,0.6-1.2c0-0.3-0.1-0.5-0.2-0.7 c-0.1-0.2-0.4-0.4-0.8-0.6c-0.4-0.2-0.9-0.5-1.6-0.7c-0.7-0.3-1.3-0.5-1.8-0.8s-0.9-0.6-1.1-1c-0.3-0.4-0.4-0.9-0.4-1.4 c0-0.9,0.4-1.6,1.1-2.1c0.7-0.5,1.7-0.7,2.9-0.7c0.7,0,1.3,0.1,1.8,0.2c0.6,0.1,1.1,0.3,1.6,0.5l-0.6,1.4c-0.5-0.2-0.9-0.3-1.4-0.5 c-0.5-0.1-1-0.2-1.5-0.2c-0.7,0-1.3,0.1-1.7,0.4c-0.4,0.2-0.6,0.5-0.6,0.9c0,0.3,0.1,0.5,0.3,0.8c0.2,0.2,0.5,0.4,0.9,0.6 c0.4,0.2,1,0.4,1.6,0.7c0.7,0.3,1.3,0.5,1.7,0.8c0.5,0.3,0.8,0.6,1.1,1C309.7,70,309.8,70.5,309.8,71z M321.2,72.8 c0.3,0,0.5,0,0.8-0.1c0.3-0.1,0.5-0.1,0.7-0.2v1.3c-0.2,0.1-0.5,0.2-0.8,0.2c-0.3,0.1-0.7,0.1-1,0.1c-0.6,0-1.1-0.1-1.6-0.3 c-0.5-0.2-0.8-0.5-1.1-1c-0.3-0.5-0.4-1.2-0.4-2v-6.2h-1.5v-0.8l1.5-0.7l0.7-2.3h1v2.5h3.1v1.4h-3.1v6.2c0,0.7,0.2,1.1,0.5,1.5 C320.3,72.6,320.7,72.8,321.2,72.8z M334.1,68.6c0,1.8-0.5,3.1-1.4,4.1c-0.9,1-2.1,1.5-3.6,1.5c-0.9,0-1.8-0.2-2.5-0.6 c-0.7-0.4-1.3-1.1-1.7-1.9c-0.4-0.8-0.6-1.9-0.6-3c0-1.8,0.4-3.1,1.3-4.1c0.9-1,2.1-1.4,3.6-1.4c1,0,1.8,0.2,2.6,0.7 c0.7,0.4,1.3,1.1,1.7,1.9C333.9,66.4,334.1,67.4,334.1,68.6z M326,68.6c0,1.3,0.2,2.3,0.7,3c0.5,0.7,1.3,1.1,2.4,1.1 c1.1,0,1.9-0.4,2.4-1.1c0.5-0.7,0.8-1.8,0.8-3s-0.3-2.3-0.8-3c-0.5-0.7-1.3-1.1-2.4-1.1c-1.1,0-1.9,0.4-2.4,1.1 C326.3,66.4,326,67.4,326,68.6z M342,63.1c1.3,0,2.4,0.5,3.2,1.4c0.8,0.9,1.2,2.3,1.2,4.2c0,1.8-0.4,3.2-1.2,4.2 c-0.8,0.9-1.9,1.4-3.2,1.4c-0.8,0-1.5-0.2-2.1-0.5c-0.5-0.3-1-0.7-1.3-1.1h-0.1c0,0.2,0.1,0.5,0.1,0.9c0,0.3,0,0.6,0,0.9v4.4h-1.8 V63.3h1.4l0.2,1.5h0.1c0.3-0.5,0.7-0.9,1.3-1.2C340.5,63.2,341.2,63.1,342,63.1z M341.7,64.6c-1.1,0-1.9,0.3-2.3,0.9 c-0.4,0.6-0.7,1.5-0.7,2.8v0.3c0,1.3,0.2,2.3,0.6,3.1c0.4,0.7,1.2,1.1,2.4,1.1c0.7,0,1.2-0.2,1.6-0.5c0.4-0.4,0.7-0.8,0.9-1.5 c0.2-0.6,0.3-1.3,0.3-2.1c0-1.2-0.2-2.2-0.7-2.9C343.4,64.9,342.7,64.6,341.7,64.6z M350.1,59.3c0.3,0,0.5,0.1,0.7,0.3 c0.2,0.2,0.3,0.5,0.3,0.8c0,0.4-0.1,0.7-0.3,0.8c-0.2,0.2-0.4,0.3-0.7,0.3c-0.3,0-0.5-0.1-0.7-0.3c-0.2-0.2-0.3-0.5-0.3-0.8 c0-0.4,0.1-0.7,0.3-0.8C349.6,59.4,349.8,59.3,350.1,59.3z M351,63.3V74h-1.8V63.3H351z M358.7,74.2c-0.9,0-1.8-0.2-2.5-0.6 c-0.7-0.4-1.3-1-1.7-1.8c-0.4-0.8-0.6-1.9-0.6-3.1c0-1.3,0.2-2.4,0.7-3.2c0.4-0.8,1-1.4,1.8-1.8c0.8-0.4,1.6-0.6,2.6-0.6 c0.5,0,1.1,0.1,1.6,0.2c0.5,0.1,0.9,0.2,1.2,0.4l-0.5,1.5c-0.3-0.1-0.7-0.2-1.1-0.3c-0.4-0.1-0.8-0.2-1.2-0.2 c-2.1,0-3.2,1.4-3.2,4.1c0,1.3,0.3,2.3,0.8,3c0.5,0.7,1.3,1,2.3,1c0.6,0,1.1-0.1,1.5-0.2c0.5-0.1,0.9-0.3,1.2-0.4v1.6 c-0.4,0.2-0.8,0.3-1.2,0.4C359.8,74.1,359.3,74.2,358.7,74.2z"/>
<line class="st2" x1="101" y1="80.5" x2="364" y2="80.5"/>
<path class="st3" d="M99.9,135l-1.7-4.4h-5.7l-1.7,4.4H89l5.6-14.3h1.6l5.6,14.3H99.9z M96,124.7c0-0.1-0.1-0.3-0.2-0.6 s-0.2-0.6-0.3-0.9c-0.1-0.3-0.1-0.5-0.2-0.7c-0.1,0.4-0.2,0.8-0.3,1.2c-0.1,0.4-0.2,0.7-0.3,0.9l-1.6,4.3h4.5L96,124.7z M107.3,135.2c-1.3,0-2.4-0.5-3.2-1.4c-0.8-0.9-1.2-2.3-1.2-4.2c0-1.8,0.4-3.2,1.2-4.2c0.8-0.9,1.9-1.4,3.2-1.4c0.8,0,1.5,0.2,2,0.5 c0.5,0.3,1,0.7,1.3,1.1h0.1c0-0.2,0-0.4-0.1-0.8c0-0.3,0-0.6,0-0.8v-4.3h1.8V135H111l-0.3-1.4h-0.1c-0.3,0.5-0.7,0.8-1.3,1.2 C108.8,135,108.1,135.2,107.3,135.2z M107.6,133.7c1.1,0,1.9-0.3,2.4-0.9c0.5-0.6,0.7-1.6,0.7-2.8v-0.3c0-1.3-0.2-2.4-0.7-3.1 c-0.4-0.7-1.3-1.1-2.4-1.1c-0.9,0-1.7,0.4-2.1,1.1c-0.5,0.7-0.7,1.8-0.7,3c0,1.3,0.2,2.3,0.7,3C105.9,133.4,106.6,133.7,107.6,133.7 z M119.6,135.2c-1.3,0-2.4-0.5-3.2-1.4c-0.8-0.9-1.2-2.3-1.2-4.2c0-1.8,0.4-3.2,1.2-4.2c0.8-0.9,1.9-1.4,3.2-1.4 c0.8,0,1.5,0.2,2,0.5c0.5,0.3,1,0.7,1.3,1.1h0.1c0-0.2,0-0.4-0.1-0.8c0-0.3,0-0.6,0-0.8v-4.3h1.8V135h-1.4l-0.3-1.4h-0.1 c-0.3,0.5-0.7,0.8-1.3,1.2C121.1,135,120.4,135.2,119.6,135.2z M119.9,133.7c1.1,0,1.9-0.3,2.4-0.9c0.5-0.6,0.7-1.6,0.7-2.8v-0.3 c0-1.3-0.2-2.4-0.7-3.1c-0.4-0.7-1.3-1.1-2.4-1.1c-0.9,0-1.7,0.4-2.1,1.1c-0.5,0.7-0.7,1.8-0.7,3c0,1.3,0.2,2.3,0.7,3 C118.2,133.4,118.9,133.7,119.9,133.7z M129,120.3c0.3,0,0.5,0.1,0.7,0.3c0.2,0.2,0.3,0.5,0.3,0.8c0,0.4-0.1,0.7-0.3,0.8 c-0.2,0.2-0.4,0.3-0.7,0.3c-0.3,0-0.5-0.1-0.7-0.3c-0.2-0.2-0.3-0.5-0.3-0.8c0-0.4,0.1-0.7,0.3-0.8 C128.4,120.4,128.7,120.3,129,120.3z M129.8,124.3V135h-1.8v-10.7H129.8z M136.8,133.8c0.3,0,0.5,0,0.8-0.1c0.3-0.1,0.5-0.1,0.7-0.2 v1.3c-0.2,0.1-0.5,0.2-0.8,0.2c-0.3,0.1-0.7,0.1-1,0.1c-0.6,0-1.1-0.1-1.6-0.3c-0.5-0.2-0.8-0.5-1.1-1c-0.3-0.5-0.4-1.2-0.4-2v-6.2 h-1.5v-0.8l1.5-0.7l0.7-2.3h1v2.5h3.1v1.4h-3.1v6.2c0,0.7,0.2,1.1,0.5,1.5C135.9,133.6,136.3,133.8,136.8,133.8z M141.4,120.3 c0.3,0,0.5,0.1,0.7,0.3c0.2,0.2,0.3,0.5,0.3,0.8c0,0.4-0.1,0.7-0.3,0.8c-0.2,0.2-0.4,0.3-0.7,0.3c-0.3,0-0.5-0.1-0.7-0.3 c-0.2-0.2-0.3-0.5-0.3-0.8c0-0.4,0.1-0.7,0.3-0.8C140.8,120.4,141.1,120.3,141.4,120.3z M142.2,124.3V135h-1.8v-10.7H142.2z M154.9,129.6c0,1.8-0.5,3.1-1.4,4.1c-0.9,1-2.1,1.5-3.6,1.5c-0.9,0-1.8-0.2-2.5-0.6c-0.7-0.4-1.3-1.1-1.7-1.9 c-0.4-0.8-0.6-1.9-0.6-3c0-1.8,0.4-3.1,1.3-4.1c0.9-1,2.1-1.4,3.6-1.4c1,0,1.8,0.2,2.6,0.7c0.7,0.4,1.3,1.1,1.7,1.9 C154.7,127.4,154.9,128.4,154.9,129.6z M146.8,129.6c0,1.3,0.2,2.3,0.7,3c0.5,0.7,1.3,1.1,2.4,1.1c1.1,0,1.9-0.4,2.4-1.1 c0.5-0.7,0.8-1.8,0.8-3s-0.3-2.3-0.8-3s-1.3-1.1-2.4-1.1c-1.1,0-1.9,0.4-2.4,1.1S146.8,128.4,146.8,129.6z M162.9,124.1 c1.3,0,2.2,0.3,2.9,0.9c0.7,0.6,1,1.6,1,3v7H165v-6.9c0-1.7-0.8-2.6-2.4-2.6c-1.2,0-2,0.3-2.5,1c-0.5,0.7-0.7,1.6-0.7,2.9v5.6h-1.8 v-10.7h1.4l0.3,1.5h0.1c0.3-0.6,0.8-1,1.4-1.2C161.6,124.2,162.2,124.1,162.9,124.1z M174.2,124.1c1.3,0,2.3,0.3,2.9,0.9 c0.6,0.6,0.9,1.5,0.9,2.7v7.3h-1.3l-0.3-1.5h-0.1c-0.5,0.6-1,1-1.5,1.3c-0.5,0.3-1.2,0.4-2.1,0.4c-1,0-1.8-0.3-2.4-0.8 c-0.6-0.5-1-1.3-1-2.4c0-1.1,0.4-1.9,1.3-2.5c0.8-0.6,2.1-0.9,3.9-1l1.8-0.1v-0.6c0-0.9-0.2-1.5-0.6-1.9c-0.4-0.3-0.9-0.5-1.6-0.5 c-0.6,0-1.1,0.1-1.6,0.3c-0.5,0.2-1,0.3-1.4,0.6l-0.5-1.3c0.5-0.3,1-0.5,1.7-0.6C172.8,124.2,173.5,124.1,174.2,124.1z M174.7,129.8 c-1.3,0.1-2.3,0.3-2.8,0.6c-0.5,0.4-0.8,0.9-0.8,1.6c0,0.6,0.2,1,0.5,1.3c0.4,0.3,0.8,0.4,1.4,0.4c0.9,0,1.7-0.2,2.3-0.7 c0.6-0.5,0.9-1.3,0.9-2.3v-1L174.7,129.8z M183.1,135h-1.8v-15.2h1.8V135z M192.6,120.3c0.3,0,0.5,0.1,0.7,0.3 c0.2,0.2,0.3,0.5,0.3,0.8c0,0.4-0.1,0.7-0.3,0.8c-0.2,0.2-0.4,0.3-0.7,0.3c-0.3,0-0.5-0.1-0.7-0.3c-0.2-0.2-0.3-0.5-0.3-0.8 c0-0.4,0.1-0.7,0.3-0.8C192,120.4,192.3,120.3,192.6,120.3z M193.4,124.3V135h-1.8v-10.7H193.4z M202,124.1c1.3,0,2.2,0.3,2.9,0.9 c0.7,0.6,1,1.6,1,3v7h-1.7v-6.9c0-1.7-0.8-2.6-2.4-2.6c-1.2,0-2,0.3-2.5,1c-0.5,0.7-0.7,1.6-0.7,2.9v5.6h-1.8v-10.7h1.4l0.3,1.5h0.1 c0.3-0.6,0.8-1,1.4-1.2C200.6,124.2,201.3,124.1,202,124.1z M214.1,125.6h-2.7v9.4h-1.8v-9.4h-1.9v-0.8l1.9-0.6v-0.6 c0-1.4,0.3-2.4,0.9-3c0.6-0.6,1.5-0.9,2.6-0.9c0.4,0,0.8,0,1.2,0.1c0.4,0.1,0.7,0.1,0.9,0.2l-0.5,1.4c-0.2-0.1-0.5-0.1-0.7-0.2 s-0.6-0.1-0.9-0.1c-0.6,0-1,0.2-1.3,0.6c-0.3,0.4-0.4,1-0.4,1.8v0.7h2.7V125.6z M225.4,129.6c0,1.8-0.5,3.1-1.4,4.1 c-0.9,1-2.1,1.5-3.6,1.5c-0.9,0-1.8-0.2-2.5-0.6c-0.7-0.4-1.3-1.1-1.7-1.9c-0.4-0.8-0.6-1.9-0.6-3c0-1.8,0.4-3.1,1.3-4.1 c0.9-1,2.1-1.4,3.6-1.4c1,0,1.8,0.2,2.6,0.7c0.7,0.4,1.3,1.1,1.7,1.9C225.2,127.4,225.4,128.4,225.4,129.6z M217.3,129.6 c0,1.3,0.2,2.3,0.7,3c0.5,0.7,1.3,1.1,2.4,1.1c1.1,0,1.9-0.4,2.4-1.1c0.5-0.7,0.8-1.8,0.8-3s-0.3-2.3-0.8-3 c-0.5-0.7-1.3-1.1-2.4-1.1c-1.1,0-1.9,0.4-2.4,1.1C217.5,127.4,217.3,128.4,217.3,129.6z M233.2,124.1c0.2,0,0.4,0,0.6,0 c0.2,0,0.4,0,0.6,0.1l-0.2,1.6c-0.2,0-0.4-0.1-0.6-0.1c-0.2,0-0.4,0-0.6,0c-0.5,0-1.1,0.2-1.5,0.5c-0.5,0.3-0.9,0.7-1.2,1.3 c-0.3,0.5-0.4,1.2-0.4,1.9v5.7h-1.8v-10.7h1.4l0.2,2h0.1c0.3-0.6,0.8-1.1,1.3-1.5C231.8,124.3,232.4,124.1,233.2,124.1z M248.2,124.1c1.2,0,2.1,0.3,2.7,0.9c0.6,0.6,0.9,1.6,0.9,3v7h-1.7v-6.9c0-1.7-0.7-2.5-2.2-2.5c-1,0-1.8,0.3-2.2,0.9 c-0.4,0.6-0.7,1.5-0.7,2.6v5.9h-1.7v-6.9c0-1.7-0.7-2.5-2.2-2.5c-1.1,0-1.8,0.3-2.2,1c-0.4,0.7-0.6,1.6-0.6,2.9v5.6h-1.8v-10.7h1.4 l0.3,1.5h0.1c0.3-0.6,0.8-1,1.3-1.2c0.6-0.3,1.2-0.4,1.8-0.4c1.7,0,2.8,0.6,3.3,1.8h0.1c0.4-0.6,0.8-1.1,1.5-1.4 C246.8,124.2,247.5,124.1,248.2,124.1z M259.2,124.1c1.3,0,2.3,0.3,2.9,0.9c0.6,0.6,0.9,1.5,0.9,2.7v7.3h-1.3l-0.3-1.5h-0.1 c-0.5,0.6-1,1-1.5,1.3c-0.5,0.3-1.2,0.4-2.1,0.4c-1,0-1.8-0.3-2.4-0.8c-0.6-0.5-1-1.3-1-2.4c0-1.1,0.4-1.9,1.3-2.5 c0.8-0.6,2.1-0.9,3.9-1l1.8-0.1v-0.6c0-0.9-0.2-1.5-0.6-1.9c-0.4-0.3-0.9-0.5-1.6-0.5c-0.6,0-1.1,0.1-1.6,0.3 c-0.5,0.2-1,0.3-1.4,0.6l-0.5-1.3c0.5-0.3,1-0.5,1.7-0.6C257.8,124.2,258.5,124.1,259.2,124.1z M259.7,129.8 c-1.3,0.1-2.3,0.3-2.8,0.6c-0.5,0.4-0.8,0.9-0.8,1.6c0,0.6,0.2,1,0.5,1.3c0.4,0.3,0.8,0.4,1.4,0.4c0.9,0,1.7-0.2,2.3-0.7 c0.6-0.5,0.9-1.3,0.9-2.3v-1L259.7,129.8z M269.9,133.8c0.3,0,0.5,0,0.8-0.1c0.3-0.1,0.5-0.1,0.7-0.2v1.3c-0.2,0.1-0.5,0.2-0.8,0.2 c-0.3,0.1-0.7,0.1-1,0.1c-0.6,0-1.1-0.1-1.6-0.3c-0.5-0.2-0.8-0.5-1.1-1c-0.3-0.5-0.4-1.2-0.4-2v-6.2h-1.5v-0.8l1.5-0.7l0.7-2.3h1 v2.5h3.1v1.4h-3.1v6.2c0,0.7,0.2,1.1,0.5,1.5C269,133.6,269.4,133.8,269.9,133.8z M274.5,120.3c0.3,0,0.5,0.1,0.7,0.3 c0.2,0.2,0.3,0.5,0.3,0.8c0,0.4-0.1,0.7-0.3,0.8c-0.2,0.2-0.4,0.3-0.7,0.3c-0.3,0-0.5-0.1-0.7-0.3c-0.2-0.2-0.3-0.5-0.3-0.8 c0-0.4,0.1-0.7,0.3-0.8C273.9,120.4,274.2,120.3,274.5,120.3z M275.3,124.3V135h-1.8v-10.7H275.3z M288,129.6c0,1.8-0.5,3.1-1.4,4.1 c-0.9,1-2.1,1.5-3.6,1.5c-0.9,0-1.8-0.2-2.5-0.6c-0.7-0.4-1.3-1.1-1.7-1.9c-0.4-0.8-0.6-1.9-0.6-3c0-1.8,0.4-3.1,1.3-4.1 c0.9-1,2.1-1.4,3.6-1.4c1,0,1.8,0.2,2.6,0.7c0.7,0.4,1.3,1.1,1.7,1.9C287.8,127.4,288,128.4,288,129.6z M279.9,129.6 c0,1.3,0.2,2.3,0.7,3c0.5,0.7,1.3,1.1,2.4,1.1c1.1,0,1.9-0.4,2.4-1.1c0.5-0.7,0.8-1.8,0.8-3s-0.3-2.3-0.8-3 c-0.5-0.7-1.3-1.1-2.4-1.1c-1.1,0-1.9,0.4-2.4,1.1C280.2,127.4,279.9,128.4,279.9,129.6z M296,124.1c1.3,0,2.2,0.3,2.9,0.9 c0.7,0.6,1,1.6,1,3v7h-1.7v-6.9c0-1.7-0.8-2.6-2.4-2.6c-1.2,0-2,0.3-2.5,1c-0.5,0.7-0.7,1.6-0.7,2.9v5.6h-1.8v-10.7h1.4l0.3,1.5h0.1 c0.3-0.6,0.8-1,1.4-1.2C294.7,124.2,295.3,124.1,296,124.1z M302.9,133.9c0-0.5,0.1-0.8,0.4-1c0.2-0.2,0.5-0.3,0.9-0.3 c0.3,0,0.6,0.1,0.9,0.3c0.3,0.2,0.4,0.5,0.4,1c0,0.5-0.1,0.8-0.4,1c-0.2,0.2-0.5,0.3-0.9,0.3c-0.3,0-0.6-0.1-0.9-0.3 C303,134.7,302.9,134.4,302.9,133.9z"/>
<g>
	<defs>
		<rect id="SVGID_00000028308494478746599870000017454638865353000118_" y="115.5" width="48" height="24"/>
	</defs>
	<clipPath id="SVGID_00000123411168286365935010000018065688049775316902_">
		<use xlink:href="#SVGID_00000028308494478746599870000017454638865353000118_"  style="overflow:visible;"/>
	</clipPath>
	<g style="clip-path:url(#SVGID_00000123411168286365935010000018065688049775316902_);">
		<rect y="127.5" class="st5" width="48" height="1"/>
		<g>
			<defs>
				<path id="SVGID_00000137130152096259662780000003989229600554745220_" d="M12,115.5L12,115.5c6.6,0,12,5.4,12,12l0,0 c0,6.6-5.4,12-12,12l0,0c-6.6,0-12-5.4-12-12l0,0C0,120.9,5.4,115.5,12,115.5z"/>
			</defs>
			<clipPath id="SVGID_00000069364700467597378160000008993506061580855960_">
				<use xlink:href="#SVGID_00000137130152096259662780000003989229600554745220_"  style="overflow:visible;"/>
			</clipPath>
			<g style="clip-path:url(#SVGID_00000069364700467597378160000008993506061580855960_);">
				<path class="st5" d="M12,115.5L12,115.5c6.6,0,12,5.4,12,12l0,0c0,6.6-5.4,12-12,12l0,0c-6.6,0-12-5.4-12-12l0,0 C0,120.9,5.4,115.5,12,115.5z"/>
				<path class="st7" d="M12,132.6c-0.7,0-1.4-0.1-2-0.4c-0.6-0.3-1-0.6-1.4-1.1c-0.3-0.5-0.5-1-0.5-1.6h2.2c0,0.2,0.1,0.5,0.2,0.7 c0.2,0.2,0.4,0.3,0.6,0.4c0.3,0.1,0.5,0.2,0.9,0.2c0.3,0,0.6-0.1,0.9-0.2c0.3-0.1,0.4-0.3,0.6-0.5c0.1-0.2,0.2-0.4,0.2-0.7 c0-0.3-0.1-0.5-0.2-0.7c-0.1-0.2-0.4-0.4-0.6-0.5c-0.3-0.1-0.6-0.2-1-0.2h-0.9v-1.6h0.9c0.3,0,0.6-0.1,0.9-0.2 c0.3-0.1,0.4-0.3,0.6-0.5c0.1-0.2,0.2-0.4,0.2-0.7c0-0.3-0.1-0.5-0.2-0.7c-0.1-0.2-0.3-0.3-0.5-0.5c-0.2-0.1-0.5-0.2-0.8-0.2 c-0.3,0-0.6,0.1-0.8,0.2c-0.2,0.1-0.4,0.3-0.6,0.4s-0.2,0.4-0.2,0.7H8.3c0-0.6,0.2-1.1,0.5-1.6c0.3-0.4,0.8-0.8,1.3-1 c0.6-0.3,1.2-0.4,1.9-0.4c0.7,0,1.3,0.1,1.8,0.4c0.5,0.3,0.9,0.6,1.2,1c0.3,0.4,0.4,0.9,0.4,1.5c0,0.6-0.2,1-0.5,1.4 c-0.4,0.4-0.8,0.6-1.4,0.7v0.1c0.7,0.1,1.3,0.4,1.7,0.8c0.4,0.4,0.6,0.9,0.6,1.6c0,0.6-0.2,1.1-0.5,1.5 c-0.3,0.4-0.8,0.8-1.4,1.1C13.4,132.5,12.7,132.6,12,132.6z"/>
			</g>
		</g>
	</g>
</g>
<g>
	<defs>
		<rect id="SVGID_00000163786171709438158210000011923616782326235807_" y="54" width="48" height="24"/>
	</defs>
	<clipPath id="SVGID_00000028295480465982597300000008326835970055260596_">
		<use xlink:href="#SVGID_00000163786171709438158210000011923616782326235807_"  style="overflow:visible;"/>
	</clipPath>
	<g style="clip-path:url(#SVGID_00000028295480465982597300000008326835970055260596_);">
		<rect y="66" class="st5" width="48" height="1"/>
		<g>
			<defs>
				<path id="SVGID_00000089560988994173278550000009321900811569864093_" d="M12,54L12,54c6.6,0,12,5.4,12,12l0,0 c0,6.6-5.4,12-12,12l0,0C5.4,78,0,72.6,0,66l0,0C0,59.4,5.4,54,12,54z"/>
			</defs>
			<clipPath id="SVGID_00000096035153781690215290000006389911102822299546_">
				<use xlink:href="#SVGID_00000089560988994173278550000009321900811569864093_"  style="overflow:visible;"/>
			</clipPath>
			<g style="clip-path:url(#SVGID_00000096035153781690215290000006389911102822299546_);">
				<path class="st5" d="M12,54L12,54c6.6,0,12,5.4,12,12l0,0c0,6.6-5.4,12-12,12l0,0C5.4,78,0,72.6,0,66l0,0C0,59.4,5.4,54,12,54z" />
				<path class="st7" d="M8.4,71v-1.6l3.6-3.4c0.3-0.3,0.6-0.6,0.8-0.8c0.2-0.2,0.4-0.5,0.5-0.7c0.1-0.2,0.2-0.5,0.2-0.8 c0-0.3-0.1-0.6-0.2-0.8c-0.1-0.2-0.3-0.4-0.6-0.5c-0.2-0.1-0.5-0.2-0.8-0.2c-0.3,0-0.6,0.1-0.8,0.2c-0.2,0.1-0.4,0.3-0.5,0.5 c-0.1,0.2-0.2,0.5-0.2,0.8h-2c0-0.7,0.2-1.2,0.5-1.7c0.3-0.5,0.7-0.9,1.3-1.1c0.5-0.3,1.2-0.4,1.9-0.4c0.7,0,1.4,0.1,1.9,0.4 c0.5,0.3,1,0.6,1.3,1.1c0.3,0.5,0.5,1,0.5,1.6c0,0.4-0.1,0.8-0.2,1.1c-0.1,0.4-0.4,0.8-0.8,1.2c-0.4,0.5-0.9,1-1.6,1.6l-1.5,1.5
					v0.1h4.3V71H8.4z"/>
			</g>
		</g>
	</g>
</g>
<g>
	<defs>
		<rect id="SVGID_00000170959726845616605980000013036435674006173597_" x="210" y="0" width="24" height="48"/>
	</defs>
	<clipPath id="SVGID_00000009571479410098105670000016404352184671736750_">
		<use xlink:href="#SVGID_00000170959726845616605980000013036435674006173597_"  style="overflow:visible;"/>
	</clipPath>
	<g style="clip-path:url(#SVGID_00000009571479410098105670000016404352184671736750_);">
		<rect x="222" y="0" class="st5" width="1" height="48"/>
		<g>
			<defs>
				<path id="SVGID_00000156579612288431274530000013528235370259066295_" d="M222,0L222,0c6.6,0,12,5.4,12,12l0,0 c0,6.6-5.4,12-12,12l0,0c-6.6,0-12-5.4-12-12l0,0C210,5.4,215.4,0,222,0z"/>
			</defs>
			<clipPath id="SVGID_00000105390595750296625490000004635964086888710292_">
				<use xlink:href="#SVGID_00000156579612288431274530000013528235370259066295_"  style="overflow:visible;"/>
			</clipPath>
			<g style="clip-path:url(#SVGID_00000105390595750296625490000004635964086888710292_);">
				<path class="st5" d="M222,0L222,0c6.6,0,12,5.4,12,12l0,0c0,6.6-5.4,12-12,12l0,0c-6.6,0-12-5.4-12-12l0,0 C210,5.4,215.4,0,222,0z"/>
				<path class="st7" d="M223.8,6.8V17h-2.2V8.9h-0.1l-2.3,1.5V8.4l2.5-1.6H223.8z"/>
			</g>
		</g>
	</g>
</g>
<rect x="53.7" y="97.4" class="st12" width="6" height="63"/>
</svg>
