<svg width="893" height="142" viewBox="0 0 893 142" fill="none" xmlns="http://www.w3.org/2000/svg">
<rect width="777" height="139" transform="translate(58)" fill="white"/>
<rect x="67.5" y="9.5" width="248" height="49" rx="6.5" fill="#0535D2"/>
<path d="M90.1 38.14C90.1 38.9933 89.8933 39.72 89.48 40.32C89.0667 40.92 88.4733 41.3867 87.7 41.72C86.9267 42.04 86.0067 42.2 84.94 42.2C84.42 42.2 83.92 42.1667 83.44 42.1C82.96 42.0467 82.5133 41.9667 82.1 41.86C81.6867 41.7533 81.32 41.62 81 41.46V39.42C81.5333 39.66 82.16 39.88 82.88 40.08C83.6 40.2667 84.3333 40.36 85.08 40.36C85.72 40.36 86.2533 40.2733 86.68 40.1C87.1067 39.9267 87.4267 39.6867 87.64 39.38C87.8533 39.0733 87.96 38.7133 87.96 38.3C87.96 37.86 87.8467 37.4933 87.62 37.2C87.4067 36.8933 87.0667 36.6133 86.6 36.36C86.1467 36.0933 85.5333 35.8133 84.76 35.52C84.2267 35.32 83.74 35.1 83.3 34.86C82.8733 34.6067 82.4933 34.3133 82.16 33.98C81.84 33.6467 81.5933 33.26 81.42 32.82C81.2467 32.38 81.16 31.8667 81.16 31.28C81.16 30.4933 81.3533 29.82 81.74 29.26C82.14 28.7 82.6867 28.2733 83.38 27.98C84.0733 27.6733 84.88 27.52 85.8 27.52C86.5733 27.52 87.2867 27.6 87.94 27.76C88.6067 27.9067 89.24 28.1133 89.84 28.38L89.16 30.16C88.6133 29.9333 88.06 29.7467 87.5 29.6C86.94 29.4533 86.3533 29.38 85.74 29.38C85.2067 29.38 84.76 29.46 84.4 29.62C84.04 29.78 83.7667 30 83.58 30.28C83.4067 30.56 83.32 30.8867 83.32 31.26C83.32 31.7 83.42 32.0667 83.62 32.36C83.82 32.6533 84.14 32.9267 84.58 33.18C85.02 33.42 85.6 33.6867 86.32 33.98C87.12 34.2867 87.8 34.62 88.36 34.98C88.9333 35.34 89.3667 35.7733 89.66 36.28C89.9533 36.7733 90.1 37.3933 90.1 38.14ZM94.7561 34.4C94.7561 34.68 94.7428 35 94.7161 35.36C94.7028 35.72 94.6828 36.0533 94.6561 36.36H94.7161C94.8228 36.2267 94.9494 36.0667 95.0961 35.88C95.2561 35.68 95.4161 35.48 95.5761 35.28C95.7361 35.08 95.8828 34.9067 96.0161 34.76L99.3161 31.22H101.776L97.4361 35.84L102.056 42H99.5561L95.9961 37.18L94.7561 38.22V42H92.6561V26.8H94.7561V34.4ZM105.948 31.22V42H103.828V31.22H105.948ZM104.908 27.12C105.228 27.12 105.508 27.2133 105.748 27.4C105.988 27.5867 106.108 27.9 106.108 28.34C106.108 28.7667 105.988 29.08 105.748 29.28C105.508 29.4667 105.228 29.56 104.908 29.56C104.561 29.56 104.268 29.4667 104.028 29.28C103.801 29.08 103.688 28.7667 103.688 28.34C103.688 27.9 103.801 27.5867 104.028 27.4C104.268 27.2133 104.561 27.12 104.908 27.12ZM114.657 31.02C115.951 31.02 116.991 31.4867 117.777 32.42C118.577 33.3533 118.977 34.7467 118.977 36.6C118.977 37.8133 118.797 38.84 118.437 39.68C118.077 40.52 117.571 41.1533 116.917 41.58C116.264 41.9933 115.504 42.2 114.637 42.2C114.091 42.2 113.611 42.1333 113.197 42C112.784 41.8533 112.431 41.6667 112.137 41.44C111.857 41.2 111.611 40.9467 111.397 40.68H111.257C111.297 40.92 111.331 41.2067 111.357 41.54C111.384 41.86 111.397 42.1467 111.397 42.4V46.8H109.277V31.22H110.997L111.297 32.66H111.397C111.611 32.3667 111.864 32.0933 112.157 31.84C112.451 31.5867 112.804 31.3867 113.217 31.24C113.631 31.0933 114.111 31.02 114.657 31.02ZM114.157 32.76C113.491 32.76 112.957 32.8933 112.557 33.16C112.157 33.4133 111.864 33.8 111.677 34.32C111.504 34.8267 111.411 35.4733 111.397 36.26V36.58C111.397 37.4067 111.484 38.1133 111.657 38.7C111.831 39.2733 112.117 39.7133 112.517 40.02C112.931 40.3133 113.491 40.46 114.197 40.46C114.797 40.46 115.284 40.3 115.657 39.98C116.044 39.6467 116.331 39.1867 116.517 38.6C116.704 38.0133 116.797 37.3333 116.797 36.56C116.797 35.3867 116.584 34.46 116.157 33.78C115.731 33.1 115.064 32.76 114.157 32.76ZM130.755 40.48C131.035 40.48 131.322 40.4533 131.615 40.4C131.908 40.3467 132.162 40.2867 132.375 40.22V41.82C132.148 41.9267 131.842 42.0133 131.455 42.08C131.068 42.16 130.682 42.2 130.295 42.2C129.708 42.2 129.168 42.1 128.675 41.9C128.195 41.7 127.808 41.3533 127.515 40.86C127.222 40.3667 127.075 39.68 127.075 38.8V32.84H125.575V31.88L127.155 31.08L127.895 28.8H129.195V31.22H132.275V32.84H129.195V38.76C129.195 39.3467 129.335 39.78 129.615 40.06C129.908 40.34 130.288 40.48 130.755 40.48ZM144.031 36.6C144.031 37.4933 143.911 38.2867 143.671 38.98C143.431 39.6733 143.091 40.26 142.651 40.74C142.211 41.22 141.678 41.5867 141.051 41.84C140.424 42.08 139.718 42.2 138.931 42.2C138.211 42.2 137.544 42.08 136.931 41.84C136.318 41.5867 135.784 41.22 135.331 40.74C134.891 40.26 134.544 39.6733 134.291 38.98C134.038 38.2867 133.911 37.4867 133.911 36.58C133.911 35.3933 134.111 34.3867 134.511 33.56C134.924 32.7333 135.511 32.1067 136.271 31.68C137.044 31.24 137.951 31.02 138.991 31.02C139.978 31.02 140.844 31.24 141.591 31.68C142.351 32.1067 142.944 32.7333 143.371 33.56C143.811 34.3867 144.031 35.4 144.031 36.6ZM136.091 36.6C136.091 37.4 136.191 38.0933 136.391 38.68C136.591 39.2533 136.904 39.6933 137.331 40C137.758 40.3067 138.304 40.46 138.971 40.46C139.638 40.46 140.184 40.3067 140.611 40C141.038 39.6933 141.351 39.2533 141.551 38.68C141.751 38.0933 141.851 37.4 141.851 36.6C141.851 35.7733 141.744 35.08 141.531 34.52C141.331 33.96 141.018 33.5333 140.591 33.24C140.178 32.9333 139.631 32.78 138.951 32.78C137.951 32.78 137.224 33.1133 136.771 33.78C136.318 34.4467 136.091 35.3867 136.091 36.6ZM163.994 31.02C165.207 31.02 166.121 31.3333 166.734 31.96C167.347 32.5867 167.654 33.5933 167.654 34.98V42H165.534V35.26C165.534 34.4333 165.367 33.8133 165.034 33.4C164.714 32.9733 164.207 32.76 163.514 32.76C162.554 32.76 161.867 33.06 161.454 33.66C161.041 34.2467 160.834 35.1 160.834 36.22V42H158.734V35.26C158.734 34.7133 158.654 34.2533 158.494 33.88C158.347 33.5067 158.127 33.2267 157.834 33.04C157.541 32.8533 157.161 32.76 156.694 32.76C156.027 32.76 155.501 32.9067 155.114 33.2C154.727 33.4933 154.447 33.9267 154.274 34.5C154.114 35.06 154.034 35.7467 154.034 36.56V42H151.914V31.22H153.594L153.894 32.66H154.014C154.241 32.2867 154.514 31.98 154.834 31.74C155.167 31.5 155.534 31.32 155.934 31.2C156.334 31.08 156.747 31.02 157.174 31.02C157.987 31.02 158.674 31.1667 159.234 31.46C159.794 31.74 160.201 32.1733 160.454 32.76H160.614C160.961 32.16 161.441 31.72 162.054 31.44C162.667 31.16 163.314 31.02 163.994 31.02ZM175.078 31.02C176.438 31.02 177.452 31.32 178.118 31.92C178.785 32.5067 179.118 33.4333 179.118 34.7V42H177.618L177.198 40.5H177.118C176.812 40.8867 176.492 41.2067 176.158 41.46C175.838 41.7133 175.465 41.9 175.038 42.02C174.625 42.14 174.118 42.2 173.518 42.2C172.878 42.2 172.298 42.0867 171.778 41.86C171.272 41.62 170.872 41.26 170.578 40.78C170.285 40.2867 170.138 39.6733 170.138 38.94C170.138 37.8467 170.552 37.0133 171.378 36.44C172.218 35.8667 173.492 35.5533 175.198 35.5L177.038 35.44V34.84C177.038 34.04 176.858 33.48 176.498 33.16C176.138 32.84 175.632 32.68 174.978 32.68C174.418 32.68 173.885 32.76 173.378 32.92C172.872 33.08 172.392 33.2733 171.938 33.5L171.258 31.96C171.765 31.6933 172.345 31.4733 172.998 31.3C173.665 31.1133 174.358 31.02 175.078 31.02ZM175.578 36.86C174.352 36.9133 173.498 37.12 173.018 37.48C172.552 37.8267 172.318 38.32 172.318 38.96C172.318 39.52 172.485 39.9267 172.818 40.18C173.165 40.4333 173.598 40.56 174.118 40.56C174.958 40.56 175.652 40.3267 176.198 39.86C176.745 39.3933 177.018 38.6933 177.018 37.76V36.82L175.578 36.86ZM184.503 31.22V42H182.383V31.22H184.503ZM183.463 27.12C183.783 27.12 184.063 27.2133 184.303 27.4C184.543 27.5867 184.663 27.9 184.663 28.34C184.663 28.7667 184.543 29.08 184.303 29.28C184.063 29.4667 183.783 29.56 183.463 29.56C183.116 29.56 182.823 29.4667 182.583 29.28C182.356 29.08 182.243 28.7667 182.243 28.34C182.243 27.9 182.356 27.5867 182.583 27.4C182.823 27.2133 183.116 27.12 183.463 27.12ZM193.292 31.02C194.545 31.02 195.505 31.3333 196.172 31.96C196.839 32.5867 197.172 33.5933 197.172 34.98V42H195.072V35.28C195.072 34.44 194.892 33.8133 194.532 33.4C194.185 32.9733 193.625 32.76 192.852 32.76C191.759 32.76 190.999 33.0867 190.572 33.74C190.159 34.3933 189.952 35.3333 189.952 36.56V42H187.832V31.22H189.512L189.812 32.66H189.932C190.172 32.2867 190.465 31.98 190.812 31.74C191.159 31.5 191.545 31.32 191.972 31.2C192.399 31.08 192.839 31.02 193.292 31.02ZM209.965 42.2C208.978 42.2 208.112 42.0067 207.365 41.62C206.618 41.2333 206.038 40.6333 205.625 39.82C205.212 38.9933 205.005 37.9467 205.005 36.68C205.005 35.3467 205.225 34.2667 205.665 33.44C206.118 32.6133 206.725 32.0067 207.485 31.62C208.258 31.22 209.138 31.02 210.125 31.02C210.725 31.02 211.285 31.0867 211.805 31.22C212.338 31.34 212.778 31.48 213.125 31.64L212.485 33.36C212.112 33.2133 211.712 33.0867 211.285 32.98C210.872 32.8733 210.478 32.82 210.105 32.82C209.438 32.82 208.885 32.9667 208.445 33.26C208.018 33.54 207.698 33.9667 207.485 34.54C207.285 35.1 207.185 35.8067 207.185 36.66C207.185 37.4733 207.292 38.16 207.505 38.72C207.718 39.28 208.032 39.7067 208.445 40C208.872 40.28 209.398 40.42 210.025 40.42C210.625 40.42 211.152 40.3533 211.605 40.22C212.058 40.0867 212.485 39.9133 212.885 39.7V41.54C212.498 41.7667 212.078 41.9333 211.625 42.04C211.172 42.1467 210.618 42.2 209.965 42.2ZM224.93 36.6C224.93 37.4933 224.81 38.2867 224.57 38.98C224.33 39.6733 223.99 40.26 223.55 40.74C223.11 41.22 222.576 41.5867 221.95 41.84C221.323 42.08 220.616 42.2 219.83 42.2C219.11 42.2 218.443 42.08 217.83 41.84C217.216 41.5867 216.683 41.22 216.23 40.74C215.79 40.26 215.443 39.6733 215.19 38.98C214.936 38.2867 214.81 37.4867 214.81 36.58C214.81 35.3933 215.01 34.3867 215.41 33.56C215.823 32.7333 216.41 32.1067 217.17 31.68C217.943 31.24 218.85 31.02 219.89 31.02C220.876 31.02 221.743 31.24 222.49 31.68C223.25 32.1067 223.843 32.7333 224.27 33.56C224.71 34.3867 224.93 35.4 224.93 36.6ZM216.99 36.6C216.99 37.4 217.09 38.0933 217.29 38.68C217.49 39.2533 217.803 39.6933 218.23 40C218.656 40.3067 219.203 40.46 219.87 40.46C220.536 40.46 221.083 40.3067 221.51 40C221.936 39.6933 222.25 39.2533 222.45 38.68C222.65 38.0933 222.75 37.4 222.75 36.6C222.75 35.7733 222.643 35.08 222.43 34.52C222.23 33.96 221.916 33.5333 221.49 33.24C221.076 32.9333 220.53 32.78 219.85 32.78C218.85 32.78 218.123 33.1133 217.67 33.78C217.216 34.4467 216.99 35.3867 216.99 36.6ZM233.077 31.02C234.33 31.02 235.29 31.3333 235.957 31.96C236.624 32.5867 236.957 33.5933 236.957 34.98V42H234.857V35.28C234.857 34.44 234.677 33.8133 234.317 33.4C233.97 32.9733 233.41 32.76 232.637 32.76C231.544 32.76 230.784 33.0867 230.357 33.74C229.944 34.3933 229.737 35.3333 229.737 36.56V42H227.617V31.22H229.297L229.597 32.66H229.717C229.957 32.2867 230.25 31.98 230.597 31.74C230.944 31.5 231.33 31.32 231.757 31.2C232.184 31.08 232.624 31.02 233.077 31.02ZM244.095 40.48C244.375 40.48 244.661 40.4533 244.955 40.4C245.248 40.3467 245.501 40.2867 245.715 40.22V41.82C245.488 41.9267 245.181 42.0133 244.795 42.08C244.408 42.16 244.021 42.2 243.635 42.2C243.048 42.2 242.508 42.1 242.015 41.9C241.535 41.7 241.148 41.3533 240.855 40.86C240.561 40.3667 240.415 39.68 240.415 38.8V32.84H238.915V31.88L240.495 31.08L241.235 28.8H242.535V31.22H245.615V32.84H242.535V38.76C242.535 39.3467 242.675 39.78 242.955 40.06C243.248 40.34 243.628 40.48 244.095 40.48ZM252.111 31.02C253.058 31.02 253.871 31.22 254.551 31.62C255.231 32.0067 255.751 32.5667 256.111 33.3C256.484 34.0333 256.671 34.9 256.671 35.9V37.06H249.431C249.458 38.1667 249.744 39.0133 250.291 39.6C250.851 40.1867 251.631 40.48 252.631 40.48C253.324 40.48 253.938 40.42 254.471 40.3C255.018 40.1667 255.578 39.9733 256.151 39.72V41.48C255.618 41.72 255.071 41.9 254.511 42.02C253.964 42.14 253.311 42.2 252.551 42.2C251.511 42.2 250.591 41.9933 249.791 41.58C248.991 41.1667 248.364 40.5533 247.911 39.74C247.471 38.9133 247.251 37.9 247.251 36.7C247.251 35.4867 247.451 34.46 247.851 33.62C248.264 32.78 248.831 32.14 249.551 31.7C250.284 31.2467 251.138 31.02 252.111 31.02ZM252.111 32.66C251.351 32.66 250.738 32.9067 250.271 33.4C249.818 33.8933 249.551 34.5933 249.471 35.5H254.551C254.551 34.94 254.464 34.4467 254.291 34.02C254.118 33.5933 253.851 33.26 253.491 33.02C253.131 32.78 252.671 32.66 252.111 32.66ZM264.776 31.02C266.03 31.02 266.99 31.3333 267.656 31.96C268.323 32.5867 268.656 33.5933 268.656 34.98V42H266.556V35.28C266.556 34.44 266.376 33.8133 266.016 33.4C265.67 32.9733 265.11 32.76 264.336 32.76C263.243 32.76 262.483 33.0867 262.056 33.74C261.643 34.3933 261.436 35.3333 261.436 36.56V42H259.316V31.22H260.996L261.296 32.66H261.416C261.656 32.2867 261.95 31.98 262.296 31.74C262.643 31.5 263.03 31.32 263.456 31.2C263.883 31.08 264.323 31.02 264.776 31.02ZM275.794 40.48C276.074 40.48 276.361 40.4533 276.654 40.4C276.947 40.3467 277.201 40.2867 277.414 40.22V41.82C277.187 41.9267 276.881 42.0133 276.494 42.08C276.107 42.16 275.721 42.2 275.334 42.2C274.747 42.2 274.207 42.1 273.714 41.9C273.234 41.7 272.847 41.3533 272.554 40.86C272.261 40.3667 272.114 39.68 272.114 38.8V32.84H270.614V31.88L272.194 31.08L272.934 28.8H274.234V31.22H277.314V32.84H274.234V38.76C274.234 39.3467 274.374 39.78 274.654 40.06C274.947 40.34 275.327 40.48 275.794 40.48Z" fill="white"/>
<path d="M294 43.25C293.648 43.25 293.336 43.1328 293.102 42.8984C292.594 42.4297 292.594 41.6094 293.102 41.1406L299.703 34.5L293.102 27.8984C292.594 27.4297 292.594 26.6094 293.102 26.1406C293.57 25.6328 294.391 25.6328 294.859 26.1406L302.359 33.6406C302.867 34.1094 302.867 34.9297 302.359 35.3984L294.859 42.8984C294.625 43.1328 294.312 43.25 294 43.25Z" fill="white"/>
<rect x="2.5" y="-2.5" width="252" height="53" rx="8.5" transform="matrix(-1 0 0 1 320 10.0001)" stroke="#0535D2" stroke-width="5"/>
<rect x="1" y="-1" width="249" height="50" rx="7" transform="matrix(-1 0 0 1 317 10.0001)" stroke="white" stroke-width="2"/>
<rect x="67.5" y="9.5" width="248" height="49" rx="6.5" stroke="white"/>
<rect width="777" height="68" transform="translate(58 71)" fill="white"/>
<g clip-path="url(#clip0_6976_17931)">
<rect x="73" y="92" width="13.5" height="27" fill="#FF0000"/>
<path d="M100.02 94.5311L98.2528 98.139C98.089 98.452 97.8057 98.4073 97.5396 98.2422L95.8606 97.2688L96.9458 102.641C97.1232 103.329 96.5567 103.642 96.1575 103.164L93.8984 100.619L93.2602 101.936C93.0964 102.28 92.919 102.431 92.2808 102.28L89.9944 101.788L90.8851 104.694C91.0182 105.131 91.0045 105.337 90.752 105.534L89.875 106.073L94.615 109.984C95.0177 110.328 94.9699 110.672 94.7925 111.181L94.2738 112.512L98.2971 111.735C99.1742 111.552 99.5461 111.539 99.5461 112.03L99.3687 116.469H100.672L100.495 112.017C100.508 111.583 100.88 111.583 101.416 111.717L105.754 112.508L105.324 111.177C105.146 110.624 104.982 110.472 105.457 109.981L110.125 106.015L109.323 105.613C108.907 105.43 109.084 105.117 109.173 104.742V104.681L109.93 101.809L107.675 102.287L107.664 102.289C107.281 102.36 106.991 102.414 106.798 102.015L106.218 100.684L104.034 103.037C103.436 103.697 102.887 103.411 103.095 102.438L104.092 97.4821L102.559 98.2456C102.204 98.4244 102.024 98.4554 101.802 98.0805L100.02 94.5311Z" fill="#FF0000"/>
<rect x="113.5" y="92" width="13.5" height="27" fill="#FF0000"/>
</g>
<path d="M162.184 103H160.904L160.6 101.656C160.067 102.264 159.533 102.685 159 102.92C158.467 103.155 157.853 103.272 157.16 103.272C156.307 103.272 155.539 103.117 154.856 102.808C154.184 102.488 153.613 102.056 153.144 101.512C152.675 100.968 152.312 100.333 152.056 99.608C151.811 98.8827 151.688 98.1093 151.688 97.288C151.688 96.4773 151.811 95.7093 152.056 94.984C152.312 94.2587 152.675 93.624 153.144 93.08C153.613 92.536 154.184 92.104 154.856 91.784C155.539 91.464 156.307 91.304 157.16 91.304C157.779 91.304 158.365 91.3893 158.92 91.56C159.485 91.72 159.987 91.9653 160.424 92.296C160.861 92.616 161.224 93.0213 161.512 93.512C161.8 94.0027 161.981 94.568 162.056 95.208H160.104C160.051 94.8347 159.933 94.5093 159.752 94.232C159.581 93.944 159.363 93.704 159.096 93.512C158.829 93.32 158.531 93.176 158.2 93.08C157.869 92.984 157.523 92.936 157.16 92.936C156.552 92.936 156.024 93.0587 155.576 93.304C155.139 93.5493 154.781 93.88 154.504 94.296C154.227 94.7013 154.019 95.1653 153.88 95.688C153.752 96.2107 153.688 96.744 153.688 97.288C153.688 97.832 153.752 98.3653 153.88 98.888C154.019 99.4107 154.227 99.88 154.504 100.296C154.781 100.701 155.139 101.027 155.576 101.272C156.024 101.517 156.552 101.64 157.16 101.64C157.672 101.651 158.125 101.587 158.52 101.448C158.915 101.299 159.245 101.091 159.512 100.824C159.789 100.547 159.997 100.211 160.136 99.816C160.275 99.4213 160.349 98.984 160.36 98.504H157.32V96.984H162.184V103ZM167.893 103.224C167.231 103.224 166.639 103.117 166.117 102.904C165.605 102.68 165.167 102.376 164.805 101.992C164.453 101.608 164.181 101.149 163.989 100.616C163.807 100.083 163.717 99.496 163.717 98.856C163.717 98.2267 163.807 97.6453 163.989 97.112C164.181 96.5787 164.453 96.12 164.805 95.736C165.167 95.352 165.605 95.0533 166.117 94.84C166.639 94.616 167.231 94.504 167.893 94.504C168.554 94.504 169.141 94.616 169.653 94.84C170.175 95.0533 170.613 95.352 170.965 95.736C171.327 96.12 171.599 96.5787 171.781 97.112C171.973 97.6453 172.069 98.2267 172.069 98.856C172.069 99.496 171.973 100.083 171.781 100.616C171.599 101.149 171.327 101.608 170.965 101.992C170.613 102.376 170.175 102.68 169.653 102.904C169.141 103.117 168.554 103.224 167.893 103.224ZM167.893 101.784C168.298 101.784 168.65 101.699 168.949 101.528C169.247 101.357 169.493 101.133 169.685 100.856C169.877 100.579 170.015 100.269 170.101 99.928C170.197 99.576 170.245 99.2187 170.245 98.856C170.245 98.504 170.197 98.152 170.101 97.8C170.015 97.448 169.877 97.1387 169.685 96.872C169.493 96.5947 169.247 96.3707 168.949 96.2C168.65 96.0293 168.298 95.944 167.893 95.944C167.487 95.944 167.135 96.0293 166.837 96.2C166.538 96.3707 166.293 96.5947 166.101 96.872C165.909 97.1387 165.765 97.448 165.669 97.8C165.583 98.152 165.541 98.504 165.541 98.856C165.541 99.2187 165.583 99.576 165.669 99.928C165.765 100.269 165.909 100.579 166.101 100.856C166.293 101.133 166.538 101.357 166.837 101.528C167.135 101.699 167.487 101.784 167.893 101.784ZM172.769 94.728H174.753L176.849 101.08H176.881L178.897 94.728H180.785L177.825 103H175.777L172.769 94.728ZM187.562 98.136C187.541 97.848 187.477 97.5707 187.37 97.304C187.274 97.0373 187.135 96.808 186.954 96.616C186.783 96.4133 186.57 96.2533 186.314 96.136C186.069 96.008 185.791 95.944 185.482 95.944C185.162 95.944 184.869 96.0027 184.602 96.12C184.346 96.2267 184.122 96.3813 183.93 96.584C183.749 96.776 183.599 97.0053 183.482 97.272C183.375 97.5387 183.317 97.8267 183.306 98.136H187.562ZM183.306 99.336C183.306 99.656 183.349 99.9653 183.434 100.264C183.53 100.563 183.669 100.824 183.85 101.048C184.031 101.272 184.261 101.453 184.538 101.592C184.815 101.72 185.146 101.784 185.53 101.784C186.063 101.784 186.49 101.672 186.81 101.448C187.141 101.213 187.386 100.867 187.546 100.408H189.274C189.178 100.856 189.013 101.256 188.778 101.608C188.543 101.96 188.261 102.259 187.93 102.504C187.599 102.739 187.226 102.915 186.81 103.032C186.405 103.16 185.978 103.224 185.53 103.224C184.879 103.224 184.303 103.117 183.802 102.904C183.301 102.691 182.874 102.392 182.522 102.008C182.181 101.624 181.919 101.165 181.738 100.632C181.567 100.099 181.482 99.512 181.482 98.872C181.482 98.2853 181.573 97.7307 181.754 97.208C181.946 96.6747 182.213 96.2107 182.554 95.816C182.906 95.4107 183.327 95.0907 183.818 94.856C184.309 94.6213 184.863 94.504 185.482 94.504C186.133 94.504 186.714 94.6427 187.226 94.92C187.749 95.1867 188.181 95.544 188.522 95.992C188.863 96.44 189.109 96.9573 189.258 97.544C189.418 98.12 189.461 98.7173 189.386 99.336H183.306ZM190.773 94.728H192.485V96.328H192.517C192.57 96.104 192.671 95.8853 192.821 95.672C192.981 95.4587 193.167 95.2667 193.381 95.096C193.605 94.9147 193.85 94.7707 194.117 94.664C194.383 94.5573 194.655 94.504 194.933 94.504C195.146 94.504 195.29 94.5093 195.365 94.52C195.45 94.5307 195.535 94.5413 195.621 94.552V96.312C195.493 96.2907 195.359 96.2747 195.221 96.264C195.093 96.2427 194.965 96.232 194.837 96.232C194.527 96.232 194.234 96.296 193.957 96.424C193.69 96.5413 193.455 96.7227 193.253 96.968C193.05 97.2027 192.89 97.496 192.773 97.848C192.655 98.2 192.597 98.6053 192.597 99.064V103H190.773V94.728ZM196.679 94.728H198.407V95.944L198.439 95.976C198.716 95.5173 199.079 95.16 199.527 94.904C199.975 94.6373 200.471 94.504 201.015 94.504C201.921 94.504 202.636 94.7387 203.159 95.208C203.681 95.6773 203.943 96.3813 203.943 97.32V103H202.119V97.8C202.097 97.1493 201.959 96.68 201.703 96.392C201.447 96.0933 201.047 95.944 200.503 95.944C200.193 95.944 199.916 96.0027 199.671 96.12C199.425 96.2267 199.217 96.3813 199.047 96.584C198.876 96.776 198.743 97.0053 198.647 97.272C198.551 97.5387 198.503 97.8213 198.503 98.12V103H196.679V94.728ZM205.866 94.728H207.594V95.88H207.642C207.781 95.6773 207.93 95.4907 208.09 95.32C208.25 95.1493 208.426 95.0053 208.618 94.888C208.821 94.7707 209.05 94.68 209.306 94.616C209.562 94.5413 209.856 94.504 210.186 94.504C210.688 94.504 211.152 94.616 211.578 94.84C212.016 95.064 212.325 95.4107 212.506 95.88C212.816 95.4533 213.173 95.1173 213.578 94.872C213.984 94.6267 214.49 94.504 215.098 94.504C215.973 94.504 216.65 94.7173 217.13 95.144C217.621 95.5707 217.866 96.2853 217.866 97.288V103H216.042V98.168C216.042 97.8373 216.032 97.5387 216.01 97.272C215.989 96.9947 215.925 96.76 215.818 96.568C215.722 96.3653 215.573 96.2107 215.37 96.104C215.168 95.9973 214.89 95.944 214.538 95.944C213.92 95.944 213.472 96.136 213.194 96.52C212.917 96.904 212.778 97.448 212.778 98.152V103H210.954V97.688C210.954 97.112 210.848 96.68 210.634 96.392C210.432 96.0933 210.053 95.944 209.498 95.944C209.264 95.944 209.034 95.992 208.81 96.088C208.597 96.184 208.405 96.3227 208.234 96.504C208.074 96.6853 207.941 96.9093 207.834 97.176C207.738 97.4427 207.69 97.7467 207.69 98.088V103H205.866V94.728ZM225.468 98.136C225.447 97.848 225.383 97.5707 225.276 97.304C225.18 97.0373 225.041 96.808 224.86 96.616C224.689 96.4133 224.476 96.2533 224.22 96.136C223.975 96.008 223.697 95.944 223.388 95.944C223.068 95.944 222.775 96.0027 222.508 96.12C222.252 96.2267 222.028 96.3813 221.836 96.584C221.655 96.776 221.505 97.0053 221.388 97.272C221.281 97.5387 221.223 97.8267 221.212 98.136H225.468ZM221.212 99.336C221.212 99.656 221.255 99.9653 221.34 100.264C221.436 100.563 221.575 100.824 221.756 101.048C221.937 101.272 222.167 101.453 222.444 101.592C222.721 101.72 223.052 101.784 223.436 101.784C223.969 101.784 224.396 101.672 224.716 101.448C225.047 101.213 225.292 100.867 225.452 100.408H227.18C227.084 100.856 226.919 101.256 226.684 101.608C226.449 101.96 226.167 102.259 225.836 102.504C225.505 102.739 225.132 102.915 224.716 103.032C224.311 103.16 223.884 103.224 223.436 103.224C222.785 103.224 222.209 103.117 221.708 102.904C221.207 102.691 220.78 102.392 220.428 102.008C220.087 101.624 219.825 101.165 219.644 100.632C219.473 100.099 219.388 99.512 219.388 98.872C219.388 98.2853 219.479 97.7307 219.66 97.208C219.852 96.6747 220.119 96.2107 220.46 95.816C220.812 95.4107 221.233 95.0907 221.724 94.856C222.215 94.6213 222.769 94.504 223.388 94.504C224.039 94.504 224.62 94.6427 225.132 94.92C225.655 95.1867 226.087 95.544 226.428 95.992C226.769 96.44 227.015 96.9573 227.164 97.544C227.324 98.12 227.367 98.7173 227.292 99.336H221.212ZM228.679 94.728H230.407V95.944L230.439 95.976C230.716 95.5173 231.079 95.16 231.527 94.904C231.975 94.6373 232.471 94.504 233.015 94.504C233.921 94.504 234.636 94.7387 235.159 95.208C235.681 95.6773 235.943 96.3813 235.943 97.32V103H234.119V97.8C234.097 97.1493 233.959 96.68 233.703 96.392C233.447 96.0933 233.047 95.944 232.503 95.944C232.193 95.944 231.916 96.0027 231.671 96.12C231.425 96.2267 231.217 96.3813 231.047 96.584C230.876 96.776 230.743 97.0053 230.647 97.272C230.551 97.5387 230.503 97.8213 230.503 98.12V103H228.679V94.728ZM237.034 94.728H238.41V92.248H240.234V94.728H241.882V96.088H240.234V100.504C240.234 100.696 240.24 100.861 240.25 101C240.272 101.139 240.309 101.256 240.362 101.352C240.426 101.448 240.517 101.523 240.634 101.576C240.752 101.619 240.912 101.64 241.114 101.64C241.242 101.64 241.37 101.64 241.498 101.64C241.626 101.629 241.754 101.608 241.882 101.576V102.984C241.68 103.005 241.482 103.027 241.29 103.048C241.098 103.069 240.901 103.08 240.698 103.08C240.218 103.08 239.829 103.037 239.53 102.952C239.242 102.856 239.013 102.723 238.842 102.552C238.682 102.371 238.57 102.147 238.506 101.88C238.453 101.613 238.421 101.309 238.41 100.968V96.088H237.034V94.728ZM155.752 119.224C155.091 119.224 154.499 119.117 153.976 118.904C153.464 118.68 153.027 118.376 152.664 117.992C152.312 117.608 152.04 117.149 151.848 116.616C151.667 116.083 151.576 115.496 151.576 114.856C151.576 114.227 151.667 113.645 151.848 113.112C152.04 112.579 152.312 112.12 152.664 111.736C153.027 111.352 153.464 111.053 153.976 110.84C154.499 110.616 155.091 110.504 155.752 110.504C156.413 110.504 157 110.616 157.512 110.84C158.035 111.053 158.472 111.352 158.824 111.736C159.187 112.12 159.459 112.579 159.64 113.112C159.832 113.645 159.928 114.227 159.928 114.856C159.928 115.496 159.832 116.083 159.64 116.616C159.459 117.149 159.187 117.608 158.824 117.992C158.472 118.376 158.035 118.68 157.512 118.904C157 119.117 156.413 119.224 155.752 119.224ZM155.752 117.784C156.157 117.784 156.509 117.699 156.808 117.528C157.107 117.357 157.352 117.133 157.544 116.856C157.736 116.579 157.875 116.269 157.96 115.928C158.056 115.576 158.104 115.219 158.104 114.856C158.104 114.504 158.056 114.152 157.96 113.8C157.875 113.448 157.736 113.139 157.544 112.872C157.352 112.595 157.107 112.371 156.808 112.2C156.509 112.029 156.157 111.944 155.752 111.944C155.347 111.944 154.995 112.029 154.696 112.2C154.397 112.371 154.152 112.595 153.96 112.872C153.768 113.139 153.624 113.448 153.528 113.8C153.443 114.152 153.4 114.504 153.4 114.856C153.4 115.219 153.443 115.576 153.528 115.928C153.624 116.269 153.768 116.579 153.96 116.856C154.152 117.133 154.397 117.357 154.696 117.528C154.995 117.699 155.347 117.784 155.752 117.784ZM160.628 110.728H161.988V110.04C161.988 109.517 162.052 109.096 162.18 108.776C162.308 108.445 162.479 108.195 162.692 108.024C162.906 107.843 163.146 107.725 163.412 107.672C163.69 107.608 163.978 107.576 164.276 107.576C164.863 107.576 165.29 107.613 165.556 107.688V109.112C165.439 109.08 165.311 109.059 165.172 109.048C165.044 109.027 164.89 109.016 164.708 109.016C164.463 109.016 164.25 109.075 164.068 109.192C163.898 109.309 163.812 109.539 163.812 109.88V110.728H165.364V112.088H163.812V119H161.988V112.088H160.628V110.728ZM178.912 111.208C178.827 110.877 178.71 110.573 178.56 110.296C178.411 110.019 178.219 109.779 177.984 109.576C177.75 109.373 177.472 109.219 177.152 109.112C176.843 108.995 176.48 108.936 176.064 108.936C175.456 108.936 174.928 109.059 174.48 109.304C174.043 109.549 173.686 109.88 173.408 110.296C173.131 110.701 172.923 111.165 172.784 111.688C172.656 112.211 172.592 112.744 172.592 113.288C172.592 113.832 172.656 114.365 172.784 114.888C172.923 115.411 173.131 115.88 173.408 116.296C173.686 116.701 174.043 117.027 174.48 117.272C174.928 117.517 175.456 117.64 176.064 117.64C176.512 117.64 176.907 117.565 177.248 117.416C177.59 117.256 177.883 117.043 178.128 116.776C178.374 116.499 178.566 116.179 178.704 115.816C178.843 115.453 178.934 115.064 178.976 114.648H180.928C180.886 115.331 180.736 115.955 180.48 116.52C180.235 117.085 179.899 117.576 179.472 117.992C179.046 118.397 178.544 118.712 177.968 118.936C177.392 119.16 176.758 119.272 176.064 119.272C175.211 119.272 174.443 119.117 173.76 118.808C173.088 118.488 172.518 118.056 172.048 117.512C171.579 116.968 171.216 116.333 170.96 115.608C170.715 114.883 170.592 114.109 170.592 113.288C170.592 112.477 170.715 111.709 170.96 110.984C171.216 110.259 171.579 109.624 172.048 109.08C172.518 108.536 173.088 108.104 173.76 107.784C174.443 107.464 175.211 107.304 176.064 107.304C176.704 107.304 177.307 107.395 177.872 107.576C178.438 107.747 178.934 108.003 179.36 108.344C179.798 108.675 180.15 109.08 180.416 109.56C180.683 110.04 180.848 110.589 180.912 111.208H178.912ZM189.419 117.16C189.419 117.384 189.446 117.544 189.499 117.64C189.563 117.736 189.681 117.784 189.851 117.784C189.905 117.784 189.969 117.784 190.043 117.784C190.118 117.784 190.203 117.773 190.299 117.752V119.016C190.235 119.037 190.15 119.059 190.043 119.08C189.947 119.112 189.846 119.139 189.739 119.16C189.633 119.181 189.526 119.197 189.419 119.208C189.313 119.219 189.222 119.224 189.147 119.224C188.774 119.224 188.465 119.149 188.219 119C187.974 118.851 187.814 118.589 187.739 118.216C187.377 118.568 186.929 118.824 186.395 118.984C185.873 119.144 185.366 119.224 184.875 119.224C184.502 119.224 184.145 119.171 183.803 119.064C183.462 118.968 183.158 118.824 182.891 118.632C182.635 118.429 182.427 118.179 182.267 117.88C182.118 117.571 182.043 117.213 182.043 116.808C182.043 116.296 182.134 115.88 182.315 115.56C182.507 115.24 182.753 114.989 183.051 114.808C183.361 114.627 183.702 114.499 184.075 114.424C184.459 114.339 184.843 114.275 185.227 114.232C185.558 114.168 185.873 114.125 186.171 114.104C186.47 114.072 186.731 114.024 186.955 113.96C187.19 113.896 187.371 113.8 187.499 113.672C187.638 113.533 187.707 113.331 187.707 113.064C187.707 112.829 187.649 112.637 187.531 112.488C187.425 112.339 187.286 112.227 187.115 112.152C186.955 112.067 186.774 112.013 186.571 111.992C186.369 111.96 186.177 111.944 185.995 111.944C185.483 111.944 185.062 112.051 184.731 112.264C184.401 112.477 184.214 112.808 184.171 113.256H182.347C182.379 112.723 182.507 112.28 182.731 111.928C182.955 111.576 183.238 111.293 183.579 111.08C183.931 110.867 184.326 110.717 184.763 110.632C185.201 110.547 185.649 110.504 186.107 110.504C186.513 110.504 186.913 110.547 187.307 110.632C187.702 110.717 188.054 110.856 188.363 111.048C188.683 111.24 188.939 111.491 189.131 111.8C189.323 112.099 189.419 112.467 189.419 112.904V117.16ZM187.595 114.856C187.318 115.037 186.977 115.149 186.571 115.192C186.166 115.224 185.761 115.277 185.355 115.352C185.163 115.384 184.977 115.432 184.795 115.496C184.614 115.549 184.454 115.629 184.315 115.736C184.177 115.832 184.065 115.965 183.979 116.136C183.905 116.296 183.867 116.493 183.867 116.728C183.867 116.931 183.926 117.101 184.043 117.24C184.161 117.379 184.299 117.491 184.459 117.576C184.63 117.651 184.811 117.704 185.003 117.736C185.206 117.768 185.387 117.784 185.547 117.784C185.75 117.784 185.969 117.757 186.203 117.704C186.438 117.651 186.657 117.56 186.859 117.432C187.073 117.304 187.249 117.144 187.387 116.952C187.526 116.749 187.595 116.504 187.595 116.216V114.856ZM191.382 110.728H193.11V111.944L193.142 111.976C193.419 111.517 193.782 111.16 194.23 110.904C194.678 110.637 195.174 110.504 195.718 110.504C196.625 110.504 197.339 110.739 197.862 111.208C198.385 111.677 198.646 112.381 198.646 113.32V119H196.822V113.8C196.801 113.149 196.662 112.68 196.406 112.392C196.15 112.093 195.75 111.944 195.206 111.944C194.897 111.944 194.619 112.003 194.374 112.12C194.129 112.227 193.921 112.381 193.75 112.584C193.579 112.776 193.446 113.005 193.35 113.272C193.254 113.539 193.206 113.821 193.206 114.12V119H191.382V110.728ZM207.497 117.16C207.497 117.384 207.524 117.544 207.577 117.64C207.641 117.736 207.759 117.784 207.929 117.784C207.983 117.784 208.047 117.784 208.121 117.784C208.196 117.784 208.281 117.773 208.377 117.752V119.016C208.313 119.037 208.228 119.059 208.121 119.08C208.025 119.112 207.924 119.139 207.817 119.16C207.711 119.181 207.604 119.197 207.497 119.208C207.391 119.219 207.3 119.224 207.225 119.224C206.852 119.224 206.543 119.149 206.297 119C206.052 118.851 205.892 118.589 205.817 118.216C205.455 118.568 205.007 118.824 204.473 118.984C203.951 119.144 203.444 119.224 202.953 119.224C202.58 119.224 202.223 119.171 201.881 119.064C201.54 118.968 201.236 118.824 200.969 118.632C200.713 118.429 200.505 118.179 200.345 117.88C200.196 117.571 200.121 117.213 200.121 116.808C200.121 116.296 200.212 115.88 200.393 115.56C200.585 115.24 200.831 114.989 201.129 114.808C201.439 114.627 201.78 114.499 202.153 114.424C202.537 114.339 202.921 114.275 203.305 114.232C203.636 114.168 203.951 114.125 204.249 114.104C204.548 114.072 204.809 114.024 205.033 113.96C205.268 113.896 205.449 113.8 205.577 113.672C205.716 113.533 205.785 113.331 205.785 113.064C205.785 112.829 205.727 112.637 205.609 112.488C205.503 112.339 205.364 112.227 205.193 112.152C205.033 112.067 204.852 112.013 204.649 111.992C204.447 111.96 204.255 111.944 204.073 111.944C203.561 111.944 203.14 112.051 202.809 112.264C202.479 112.477 202.292 112.808 202.249 113.256H200.425C200.457 112.723 200.585 112.28 200.809 111.928C201.033 111.576 201.316 111.293 201.657 111.08C202.009 110.867 202.404 110.717 202.841 110.632C203.279 110.547 203.727 110.504 204.185 110.504C204.591 110.504 204.991 110.547 205.385 110.632C205.78 110.717 206.132 110.856 206.441 111.048C206.761 111.24 207.017 111.491 207.209 111.8C207.401 112.099 207.497 112.467 207.497 112.904V117.16ZM205.673 114.856C205.396 115.037 205.055 115.149 204.649 115.192C204.244 115.224 203.839 115.277 203.433 115.352C203.241 115.384 203.055 115.432 202.873 115.496C202.692 115.549 202.532 115.629 202.393 115.736C202.255 115.832 202.143 115.965 202.057 116.136C201.983 116.296 201.945 116.493 201.945 116.728C201.945 116.931 202.004 117.101 202.121 117.24C202.239 117.379 202.377 117.491 202.537 117.576C202.708 117.651 202.889 117.704 203.081 117.736C203.284 117.768 203.465 117.784 203.625 117.784C203.828 117.784 204.047 117.757 204.281 117.704C204.516 117.651 204.735 117.56 204.937 117.432C205.151 117.304 205.327 117.144 205.465 116.952C205.604 116.749 205.673 116.504 205.673 116.216V114.856ZM217.252 119H215.524V117.88H215.492C215.247 118.36 214.889 118.707 214.42 118.92C213.951 119.123 213.455 119.224 212.932 119.224C212.281 119.224 211.711 119.112 211.22 118.888C210.74 118.653 210.34 118.339 210.02 117.944C209.7 117.549 209.46 117.085 209.3 116.552C209.14 116.008 209.06 115.427 209.06 114.808C209.06 114.061 209.161 113.416 209.364 112.872C209.567 112.328 209.833 111.88 210.164 111.528C210.505 111.176 210.889 110.92 211.316 110.76C211.753 110.589 212.196 110.504 212.644 110.504C212.9 110.504 213.161 110.531 213.428 110.584C213.695 110.627 213.951 110.701 214.196 110.808C214.441 110.915 214.665 111.053 214.868 111.224C215.081 111.384 215.257 111.576 215.396 111.8H215.428V107.576H217.252V119ZM210.884 114.952C210.884 115.304 210.927 115.651 211.012 115.992C211.108 116.333 211.247 116.637 211.428 116.904C211.62 117.171 211.86 117.384 212.148 117.544C212.436 117.704 212.777 117.784 213.172 117.784C213.577 117.784 213.924 117.699 214.212 117.528C214.511 117.357 214.751 117.133 214.932 116.856C215.124 116.579 215.263 116.269 215.348 115.928C215.444 115.576 215.492 115.219 215.492 114.856C215.492 113.939 215.284 113.224 214.868 112.712C214.463 112.2 213.908 111.944 213.204 111.944C212.777 111.944 212.415 112.035 212.116 112.216C211.828 112.387 211.588 112.616 211.396 112.904C211.215 113.181 211.081 113.501 210.996 113.864C210.921 114.216 210.884 114.579 210.884 114.952ZM226.169 117.16C226.169 117.384 226.196 117.544 226.249 117.64C226.313 117.736 226.431 117.784 226.601 117.784C226.655 117.784 226.719 117.784 226.793 117.784C226.868 117.784 226.953 117.773 227.049 117.752V119.016C226.985 119.037 226.9 119.059 226.793 119.08C226.697 119.112 226.596 119.139 226.489 119.16C226.383 119.181 226.276 119.197 226.169 119.208C226.063 119.219 225.972 119.224 225.897 119.224C225.524 119.224 225.215 119.149 224.969 119C224.724 118.851 224.564 118.589 224.489 118.216C224.127 118.568 223.679 118.824 223.145 118.984C222.623 119.144 222.116 119.224 221.625 119.224C221.252 119.224 220.895 119.171 220.553 119.064C220.212 118.968 219.908 118.824 219.641 118.632C219.385 118.429 219.177 118.179 219.017 117.88C218.868 117.571 218.793 117.213 218.793 116.808C218.793 116.296 218.884 115.88 219.065 115.56C219.257 115.24 219.503 114.989 219.801 114.808C220.111 114.627 220.452 114.499 220.825 114.424C221.209 114.339 221.593 114.275 221.977 114.232C222.308 114.168 222.623 114.125 222.921 114.104C223.22 114.072 223.481 114.024 223.705 113.96C223.94 113.896 224.121 113.8 224.249 113.672C224.388 113.533 224.457 113.331 224.457 113.064C224.457 112.829 224.399 112.637 224.281 112.488C224.175 112.339 224.036 112.227 223.865 112.152C223.705 112.067 223.524 112.013 223.321 111.992C223.119 111.96 222.927 111.944 222.745 111.944C222.233 111.944 221.812 112.051 221.481 112.264C221.151 112.477 220.964 112.808 220.921 113.256H219.097C219.129 112.723 219.257 112.28 219.481 111.928C219.705 111.576 219.988 111.293 220.329 111.08C220.681 110.867 221.076 110.717 221.513 110.632C221.951 110.547 222.399 110.504 222.857 110.504C223.263 110.504 223.663 110.547 224.057 110.632C224.452 110.717 224.804 110.856 225.113 111.048C225.433 111.24 225.689 111.491 225.881 111.8C226.073 112.099 226.169 112.467 226.169 112.904V117.16ZM224.345 114.856C224.068 115.037 223.727 115.149 223.321 115.192C222.916 115.224 222.511 115.277 222.105 115.352C221.913 115.384 221.727 115.432 221.545 115.496C221.364 115.549 221.204 115.629 221.065 115.736C220.927 115.832 220.815 115.965 220.729 116.136C220.655 116.296 220.617 116.493 220.617 116.728C220.617 116.931 220.676 117.101 220.793 117.24C220.911 117.379 221.049 117.491 221.209 117.576C221.38 117.651 221.561 117.704 221.753 117.736C221.956 117.768 222.137 117.784 222.297 117.784C222.5 117.784 222.719 117.757 222.953 117.704C223.188 117.651 223.407 117.56 223.609 117.432C223.823 117.304 223.999 117.144 224.137 116.952C224.276 116.749 224.345 116.504 224.345 116.216V114.856Z" fill="black"/>
<path d="M282.184 103H280.904L280.6 101.656C280.067 102.264 279.533 102.685 279 102.92C278.467 103.155 277.853 103.272 277.16 103.272C276.307 103.272 275.539 103.117 274.856 102.808C274.184 102.488 273.613 102.056 273.144 101.512C272.675 100.968 272.312 100.333 272.056 99.608C271.811 98.8827 271.688 98.1093 271.688 97.288C271.688 96.4773 271.811 95.7093 272.056 94.984C272.312 94.2587 272.675 93.624 273.144 93.08C273.613 92.536 274.184 92.104 274.856 91.784C275.539 91.464 276.307 91.304 277.16 91.304C277.779 91.304 278.365 91.3893 278.92 91.56C279.485 91.72 279.987 91.9653 280.424 92.296C280.861 92.616 281.224 93.0213 281.512 93.512C281.8 94.0027 281.981 94.568 282.056 95.208H280.104C280.051 94.8347 279.933 94.5093 279.752 94.232C279.581 93.944 279.363 93.704 279.096 93.512C278.829 93.32 278.531 93.176 278.2 93.08C277.869 92.984 277.523 92.936 277.16 92.936C276.552 92.936 276.024 93.0587 275.576 93.304C275.139 93.5493 274.781 93.88 274.504 94.296C274.227 94.7013 274.019 95.1653 273.88 95.688C273.752 96.2107 273.688 96.744 273.688 97.288C273.688 97.832 273.752 98.3653 273.88 98.888C274.019 99.4107 274.227 99.88 274.504 100.296C274.781 100.701 275.139 101.027 275.576 101.272C276.024 101.517 276.552 101.64 277.16 101.64C277.672 101.651 278.125 101.587 278.52 101.448C278.915 101.299 279.245 101.091 279.512 100.824C279.789 100.547 279.997 100.211 280.136 99.816C280.275 99.4213 280.349 98.984 280.36 98.504H277.32V96.984H282.184V103ZM287.893 103.224C287.231 103.224 286.639 103.117 286.117 102.904C285.605 102.68 285.167 102.376 284.805 101.992C284.453 101.608 284.181 101.149 283.989 100.616C283.807 100.083 283.717 99.496 283.717 98.856C283.717 98.2267 283.807 97.6453 283.989 97.112C284.181 96.5787 284.453 96.12 284.805 95.736C285.167 95.352 285.605 95.0533 286.117 94.84C286.639 94.616 287.231 94.504 287.893 94.504C288.554 94.504 289.141 94.616 289.653 94.84C290.175 95.0533 290.613 95.352 290.965 95.736C291.327 96.12 291.599 96.5787 291.781 97.112C291.973 97.6453 292.069 98.2267 292.069 98.856C292.069 99.496 291.973 100.083 291.781 100.616C291.599 101.149 291.327 101.608 290.965 101.992C290.613 102.376 290.175 102.68 289.653 102.904C289.141 103.117 288.554 103.224 287.893 103.224ZM287.893 101.784C288.298 101.784 288.65 101.699 288.949 101.528C289.247 101.357 289.493 101.133 289.685 100.856C289.877 100.579 290.015 100.269 290.101 99.928C290.197 99.576 290.245 99.2187 290.245 98.856C290.245 98.504 290.197 98.152 290.101 97.8C290.015 97.448 289.877 97.1387 289.685 96.872C289.493 96.5947 289.247 96.3707 288.949 96.2C288.65 96.0293 288.298 95.944 287.893 95.944C287.487 95.944 287.135 96.0293 286.837 96.2C286.538 96.3707 286.293 96.5947 286.101 96.872C285.909 97.1387 285.765 97.448 285.669 97.8C285.583 98.152 285.541 98.504 285.541 98.856C285.541 99.2187 285.583 99.576 285.669 99.928C285.765 100.269 285.909 100.579 286.101 100.856C286.293 101.133 286.538 101.357 286.837 101.528C287.135 101.699 287.487 101.784 287.893 101.784ZM300.849 103H299.057V101.848H299.025C298.801 102.264 298.465 102.6 298.017 102.856C297.58 103.101 297.132 103.224 296.673 103.224C295.585 103.224 294.796 102.957 294.305 102.424C293.825 101.88 293.585 101.064 293.585 99.976V94.728H295.409V99.8C295.409 100.525 295.548 101.037 295.825 101.336C296.102 101.635 296.492 101.784 296.993 101.784C297.377 101.784 297.697 101.725 297.953 101.608C298.209 101.491 298.417 101.336 298.577 101.144C298.737 100.941 298.849 100.701 298.913 100.424C298.988 100.147 299.025 99.848 299.025 99.528V94.728H300.849V103ZM301.957 94.728H303.941L306.036 101.08H306.069L308.085 94.728H309.973L307.013 103H304.965L301.957 94.728ZM316.749 98.136C316.728 97.848 316.664 97.5707 316.557 97.304C316.461 97.0373 316.323 96.808 316.141 96.616C315.971 96.4133 315.757 96.2533 315.501 96.136C315.256 96.008 314.979 95.944 314.669 95.944C314.349 95.944 314.056 96.0027 313.789 96.12C313.533 96.2267 313.309 96.3813 313.117 96.584C312.936 96.776 312.787 97.0053 312.669 97.272C312.563 97.5387 312.504 97.8267 312.493 98.136H316.749ZM312.493 99.336C312.493 99.656 312.536 99.9653 312.621 100.264C312.717 100.563 312.856 100.824 313.037 101.048C313.219 101.272 313.448 101.453 313.725 101.592C314.003 101.72 314.333 101.784 314.717 101.784C315.251 101.784 315.677 101.672 315.997 101.448C316.328 101.213 316.573 100.867 316.733 100.408H318.461C318.365 100.856 318.2 101.256 317.965 101.608C317.731 101.96 317.448 102.259 317.117 102.504C316.787 102.739 316.413 102.915 315.997 103.032C315.592 103.16 315.165 103.224 314.717 103.224C314.067 103.224 313.491 103.117 312.989 102.904C312.488 102.691 312.061 102.392 311.709 102.008C311.368 101.624 311.107 101.165 310.925 100.632C310.755 100.099 310.669 99.512 310.669 98.872C310.669 98.2853 310.76 97.7307 310.941 97.208C311.133 96.6747 311.4 96.2107 311.741 95.816C312.093 95.4107 312.515 95.0907 313.005 94.856C313.496 94.6213 314.051 94.504 314.669 94.504C315.32 94.504 315.901 94.6427 316.413 94.92C316.936 95.1867 317.368 95.544 317.709 95.992C318.051 96.44 318.296 96.9573 318.445 97.544C318.605 98.12 318.648 98.7173 318.573 99.336H312.493ZM319.96 94.728H321.672V96.328H321.704C321.757 96.104 321.859 95.8853 322.008 95.672C322.168 95.4587 322.355 95.2667 322.568 95.096C322.792 94.9147 323.037 94.7707 323.304 94.664C323.571 94.5573 323.843 94.504 324.12 94.504C324.333 94.504 324.477 94.5093 324.552 94.52C324.637 94.5307 324.723 94.5413 324.808 94.552V96.312C324.68 96.2907 324.547 96.2747 324.408 96.264C324.28 96.2427 324.152 96.232 324.024 96.232C323.715 96.232 323.421 96.296 323.144 96.424C322.877 96.5413 322.643 96.7227 322.44 96.968C322.237 97.2027 322.077 97.496 321.96 97.848C321.843 98.2 321.784 98.6053 321.784 99.064V103H319.96V94.728ZM325.866 94.728H327.594V95.944L327.626 95.976C327.904 95.5173 328.266 95.16 328.714 94.904C329.162 94.6373 329.658 94.504 330.202 94.504C331.109 94.504 331.824 94.7387 332.346 95.208C332.869 95.6773 333.13 96.3813 333.13 97.32V103H331.306V97.8C331.285 97.1493 331.146 96.68 330.89 96.392C330.634 96.0933 330.234 95.944 329.69 95.944C329.381 95.944 329.104 96.0027 328.858 96.12C328.613 96.2267 328.405 96.3813 328.234 96.584C328.064 96.776 327.93 97.0053 327.834 97.272C327.738 97.5387 327.69 97.8213 327.69 98.12V103H325.866V94.728ZM340.734 98.136C340.712 97.848 340.648 97.5707 340.542 97.304C340.446 97.0373 340.307 96.808 340.126 96.616C339.955 96.4133 339.742 96.2533 339.486 96.136C339.24 96.008 338.963 95.944 338.654 95.944C338.334 95.944 338.04 96.0027 337.774 96.12C337.518 96.2267 337.294 96.3813 337.102 96.584C336.92 96.776 336.771 97.0053 336.654 97.272C336.547 97.5387 336.488 97.8267 336.478 98.136H340.734ZM336.478 99.336C336.478 99.656 336.52 99.9653 336.606 100.264C336.702 100.563 336.84 100.824 337.022 101.048C337.203 101.272 337.432 101.453 337.71 101.592C337.987 101.72 338.318 101.784 338.702 101.784C339.235 101.784 339.662 101.672 339.982 101.448C340.312 101.213 340.558 100.867 340.718 100.408H342.446C342.35 100.856 342.184 101.256 341.95 101.608C341.715 101.96 341.432 102.259 341.102 102.504C340.771 102.739 340.398 102.915 339.982 103.032C339.576 103.16 339.15 103.224 338.702 103.224C338.051 103.224 337.475 103.117 336.974 102.904C336.472 102.691 336.046 102.392 335.694 102.008C335.352 101.624 335.091 101.165 334.91 100.632C334.739 100.099 334.654 99.512 334.654 98.872C334.654 98.2853 334.744 97.7307 334.926 97.208C335.118 96.6747 335.384 96.2107 335.726 95.816C336.078 95.4107 336.499 95.0907 336.99 94.856C337.48 94.6213 338.035 94.504 338.654 94.504C339.304 94.504 339.886 94.6427 340.398 94.92C340.92 95.1867 341.352 95.544 341.694 95.992C342.035 96.44 342.28 96.9573 342.43 97.544C342.59 98.12 342.632 98.7173 342.558 99.336H336.478ZM343.944 94.728H345.672V95.88H345.72C345.859 95.6773 346.008 95.4907 346.168 95.32C346.328 95.1493 346.504 95.0053 346.696 94.888C346.899 94.7707 347.128 94.68 347.384 94.616C347.64 94.5413 347.934 94.504 348.264 94.504C348.766 94.504 349.23 94.616 349.656 94.84C350.094 95.064 350.403 95.4107 350.584 95.88C350.894 95.4533 351.251 95.1173 351.656 94.872C352.062 94.6267 352.568 94.504 353.176 94.504C354.051 94.504 354.728 94.7173 355.208 95.144C355.699 95.5707 355.944 96.2853 355.944 97.288V103H354.12V98.168C354.12 97.8373 354.11 97.5387 354.088 97.272C354.067 96.9947 354.003 96.76 353.896 96.568C353.8 96.3653 353.651 96.2107 353.448 96.104C353.246 95.9973 352.968 95.944 352.616 95.944C351.998 95.944 351.55 96.136 351.272 96.52C350.995 96.904 350.856 97.448 350.856 98.152V103H349.032V97.688C349.032 97.112 348.926 96.68 348.712 96.392C348.51 96.0933 348.131 95.944 347.576 95.944C347.342 95.944 347.112 95.992 346.888 96.088C346.675 96.184 346.483 96.3227 346.312 96.504C346.152 96.6853 346.019 96.9093 345.912 97.176C345.816 97.4427 345.768 97.7467 345.768 98.088V103H343.944V94.728ZM363.546 98.136C363.525 97.848 363.461 97.5707 363.354 97.304C363.258 97.0373 363.12 96.808 362.938 96.616C362.768 96.4133 362.554 96.2533 362.298 96.136C362.053 96.008 361.776 95.944 361.466 95.944C361.146 95.944 360.853 96.0027 360.586 96.12C360.33 96.2267 360.106 96.3813 359.914 96.584C359.733 96.776 359.584 97.0053 359.466 97.272C359.36 97.5387 359.301 97.8267 359.29 98.136H363.546ZM359.29 99.336C359.29 99.656 359.333 99.9653 359.418 100.264C359.514 100.563 359.653 100.824 359.834 101.048C360.016 101.272 360.245 101.453 360.522 101.592C360.8 101.72 361.13 101.784 361.514 101.784C362.048 101.784 362.474 101.672 362.794 101.448C363.125 101.213 363.37 100.867 363.53 100.408H365.258C365.162 100.856 364.997 101.256 364.762 101.608C364.528 101.96 364.245 102.259 363.914 102.504C363.584 102.739 363.21 102.915 362.794 103.032C362.389 103.16 361.962 103.224 361.514 103.224C360.864 103.224 360.288 103.117 359.786 102.904C359.285 102.691 358.858 102.392 358.506 102.008C358.165 101.624 357.904 101.165 357.722 100.632C357.552 100.099 357.466 99.512 357.466 98.872C357.466 98.2853 357.557 97.7307 357.738 97.208C357.93 96.6747 358.197 96.2107 358.538 95.816C358.89 95.4107 359.312 95.0907 359.802 94.856C360.293 94.6213 360.848 94.504 361.466 94.504C362.117 94.504 362.698 94.6427 363.21 94.92C363.733 95.1867 364.165 95.544 364.506 95.992C364.848 96.44 365.093 96.9573 365.242 97.544C365.402 98.12 365.445 98.7173 365.37 99.336H359.29ZM366.757 94.728H368.485V95.944L368.517 95.976C368.794 95.5173 369.157 95.16 369.605 94.904C370.053 94.6373 370.549 94.504 371.093 94.504C372 94.504 372.714 94.7387 373.237 95.208C373.76 95.6773 374.021 96.3813 374.021 97.32V103H372.197V97.8C372.176 97.1493 372.037 96.68 371.781 96.392C371.525 96.0933 371.125 95.944 370.581 95.944C370.272 95.944 369.994 96.0027 369.749 96.12C369.504 96.2267 369.296 96.3813 369.125 96.584C368.954 96.776 368.821 97.0053 368.725 97.272C368.629 97.5387 368.581 97.8213 368.581 98.12V103H366.757V94.728ZM375.112 94.728H376.488V92.248H378.312V94.728H379.96V96.088H378.312V100.504C378.312 100.696 378.318 100.861 378.328 101C378.35 101.139 378.387 101.256 378.44 101.352C378.504 101.448 378.595 101.523 378.712 101.576C378.83 101.619 378.99 101.64 379.192 101.64C379.32 101.64 379.448 101.64 379.576 101.64C379.704 101.629 379.832 101.608 379.96 101.576V102.984C379.758 103.005 379.56 103.027 379.368 103.048C379.176 103.069 378.979 103.08 378.776 103.08C378.296 103.08 377.907 103.037 377.608 102.952C377.32 102.856 377.091 102.723 376.92 102.552C376.76 102.371 376.648 102.147 376.584 101.88C376.531 101.613 376.499 101.309 376.488 100.968V96.088H375.112V94.728ZM279.752 119H278.024V117.88H277.992C277.747 118.36 277.389 118.707 276.92 118.92C276.451 119.123 275.955 119.224 275.432 119.224C274.781 119.224 274.211 119.112 273.72 118.888C273.24 118.653 272.84 118.339 272.52 117.944C272.2 117.549 271.96 117.085 271.8 116.552C271.64 116.008 271.56 115.427 271.56 114.808C271.56 114.061 271.661 113.416 271.864 112.872C272.067 112.328 272.333 111.88 272.664 111.528C273.005 111.176 273.389 110.92 273.816 110.76C274.253 110.589 274.696 110.504 275.144 110.504C275.4 110.504 275.661 110.531 275.928 110.584C276.195 110.627 276.451 110.701 276.696 110.808C276.941 110.915 277.165 111.053 277.368 111.224C277.581 111.384 277.757 111.576 277.896 111.8H277.928V107.576H279.752V119ZM273.384 114.952C273.384 115.304 273.427 115.651 273.512 115.992C273.608 116.333 273.747 116.637 273.928 116.904C274.12 117.171 274.36 117.384 274.648 117.544C274.936 117.704 275.277 117.784 275.672 117.784C276.077 117.784 276.424 117.699 276.712 117.528C277.011 117.357 277.251 117.133 277.432 116.856C277.624 116.579 277.763 116.269 277.848 115.928C277.944 115.576 277.992 115.219 277.992 114.856C277.992 113.939 277.784 113.224 277.368 112.712C276.963 112.2 276.408 111.944 275.704 111.944C275.277 111.944 274.915 112.035 274.616 112.216C274.328 112.387 274.088 112.616 273.896 112.904C273.715 113.181 273.581 113.501 273.496 113.864C273.421 114.216 273.384 114.579 273.384 114.952ZM289.005 119H287.213V117.848H287.181C286.957 118.264 286.621 118.6 286.173 118.856C285.736 119.101 285.288 119.224 284.829 119.224C283.741 119.224 282.952 118.957 282.461 118.424C281.981 117.88 281.741 117.064 281.741 115.976V110.728H283.565V115.8C283.565 116.525 283.704 117.037 283.981 117.336C284.259 117.635 284.648 117.784 285.149 117.784C285.533 117.784 285.853 117.725 286.109 117.608C286.365 117.491 286.573 117.336 286.733 117.144C286.893 116.941 287.005 116.701 287.069 116.424C287.144 116.147 287.181 115.848 287.181 115.528V110.728H289.005V119ZM303.35 111.208C303.265 110.877 303.147 110.573 302.998 110.296C302.849 110.019 302.657 109.779 302.422 109.576C302.187 109.373 301.91 109.219 301.59 109.112C301.281 108.995 300.918 108.936 300.502 108.936C299.894 108.936 299.366 109.059 298.918 109.304C298.481 109.549 298.123 109.88 297.846 110.296C297.569 110.701 297.361 111.165 297.222 111.688C297.094 112.211 297.03 112.744 297.03 113.288C297.03 113.832 297.094 114.365 297.222 114.888C297.361 115.411 297.569 115.88 297.846 116.296C298.123 116.701 298.481 117.027 298.918 117.272C299.366 117.517 299.894 117.64 300.502 117.64C300.95 117.64 301.345 117.565 301.686 117.416C302.027 117.256 302.321 117.043 302.566 116.776C302.811 116.499 303.003 116.179 303.142 115.816C303.281 115.453 303.371 115.064 303.414 114.648H305.366C305.323 115.331 305.174 115.955 304.918 116.52C304.673 117.085 304.337 117.576 303.91 117.992C303.483 118.397 302.982 118.712 302.406 118.936C301.83 119.16 301.195 119.272 300.502 119.272C299.649 119.272 298.881 119.117 298.198 118.808C297.526 118.488 296.955 118.056 296.486 117.512C296.017 116.968 295.654 116.333 295.398 115.608C295.153 114.883 295.03 114.109 295.03 113.288C295.03 112.477 295.153 111.709 295.398 110.984C295.654 110.259 296.017 109.624 296.486 109.08C296.955 108.536 297.526 108.104 298.198 107.784C298.881 107.464 299.649 107.304 300.502 107.304C301.142 107.304 301.745 107.395 302.31 107.576C302.875 107.747 303.371 108.003 303.798 108.344C304.235 108.675 304.587 109.08 304.854 109.56C305.121 110.04 305.286 110.589 305.35 111.208H303.35ZM313.857 117.16C313.857 117.384 313.883 117.544 313.937 117.64C314.001 117.736 314.118 117.784 314.289 117.784C314.342 117.784 314.406 117.784 314.481 117.784C314.555 117.784 314.641 117.773 314.737 117.752V119.016C314.673 119.037 314.587 119.059 314.481 119.08C314.385 119.112 314.283 119.139 314.177 119.16C314.07 119.181 313.963 119.197 313.857 119.208C313.75 119.219 313.659 119.224 313.585 119.224C313.211 119.224 312.902 119.149 312.657 119C312.411 118.851 312.251 118.589 312.177 118.216C311.814 118.568 311.366 118.824 310.833 118.984C310.31 119.144 309.803 119.224 309.313 119.224C308.939 119.224 308.582 119.171 308.241 119.064C307.899 118.968 307.595 118.824 307.329 118.632C307.073 118.429 306.865 118.179 306.705 117.88C306.555 117.571 306.481 117.213 306.481 116.808C306.481 116.296 306.571 115.88 306.753 115.56C306.945 115.24 307.19 114.989 307.489 114.808C307.798 114.627 308.139 114.499 308.513 114.424C308.897 114.339 309.281 114.275 309.665 114.232C309.995 114.168 310.31 114.125 310.609 114.104C310.907 114.072 311.169 114.024 311.393 113.96C311.627 113.896 311.809 113.8 311.937 113.672C312.075 113.533 312.145 113.331 312.145 113.064C312.145 112.829 312.086 112.637 311.969 112.488C311.862 112.339 311.723 112.227 311.553 112.152C311.393 112.067 311.211 112.013 311.009 111.992C310.806 111.96 310.614 111.944 310.433 111.944C309.921 111.944 309.499 112.051 309.169 112.264C308.838 112.477 308.651 112.808 308.609 113.256H306.785C306.817 112.723 306.945 112.28 307.169 111.928C307.393 111.576 307.675 111.293 308.017 111.08C308.369 110.867 308.763 110.717 309.201 110.632C309.638 110.547 310.086 110.504 310.545 110.504C310.95 110.504 311.35 110.547 311.745 110.632C312.139 110.717 312.491 110.856 312.801 111.048C313.121 111.24 313.377 111.491 313.569 111.8C313.761 112.099 313.857 112.467 313.857 112.904V117.16ZM312.033 114.856C311.755 115.037 311.414 115.149 311.009 115.192C310.603 115.224 310.198 115.277 309.793 115.352C309.601 115.384 309.414 115.432 309.233 115.496C309.051 115.549 308.891 115.629 308.753 115.736C308.614 115.832 308.502 115.965 308.417 116.136C308.342 116.296 308.305 116.493 308.305 116.728C308.305 116.931 308.363 117.101 308.481 117.24C308.598 117.379 308.737 117.491 308.897 117.576C309.067 117.651 309.249 117.704 309.441 117.736C309.643 117.768 309.825 117.784 309.985 117.784C310.187 117.784 310.406 117.757 310.641 117.704C310.875 117.651 311.094 117.56 311.297 117.432C311.51 117.304 311.686 117.144 311.825 116.952C311.963 116.749 312.033 116.504 312.033 116.216V114.856ZM315.819 110.728H317.547V111.944L317.579 111.976C317.857 111.517 318.219 111.16 318.667 110.904C319.115 110.637 319.611 110.504 320.155 110.504C321.062 110.504 321.777 110.739 322.299 111.208C322.822 111.677 323.083 112.381 323.083 113.32V119H321.259V113.8C321.238 113.149 321.099 112.68 320.843 112.392C320.587 112.093 320.187 111.944 319.643 111.944C319.334 111.944 319.057 112.003 318.811 112.12C318.566 112.227 318.358 112.381 318.187 112.584C318.017 112.776 317.883 113.005 317.787 113.272C317.691 113.539 317.643 113.821 317.643 114.12V119H315.819V110.728ZM331.935 117.16C331.935 117.384 331.962 117.544 332.015 117.64C332.079 117.736 332.196 117.784 332.367 117.784C332.42 117.784 332.484 117.784 332.559 117.784C332.634 117.784 332.719 117.773 332.815 117.752V119.016C332.751 119.037 332.666 119.059 332.559 119.08C332.463 119.112 332.362 119.139 332.255 119.16C332.148 119.181 332.042 119.197 331.935 119.208C331.828 119.219 331.738 119.224 331.663 119.224C331.29 119.224 330.98 119.149 330.735 119C330.49 118.851 330.33 118.589 330.255 118.216C329.892 118.568 329.444 118.824 328.911 118.984C328.388 119.144 327.882 119.224 327.391 119.224C327.018 119.224 326.66 119.171 326.319 119.064C325.978 118.968 325.674 118.824 325.407 118.632C325.151 118.429 324.943 118.179 324.783 117.88C324.634 117.571 324.559 117.213 324.559 116.808C324.559 116.296 324.65 115.88 324.831 115.56C325.023 115.24 325.268 114.989 325.567 114.808C325.876 114.627 326.218 114.499 326.591 114.424C326.975 114.339 327.359 114.275 327.743 114.232C328.074 114.168 328.388 114.125 328.687 114.104C328.986 114.072 329.247 114.024 329.471 113.96C329.706 113.896 329.887 113.8 330.015 113.672C330.154 113.533 330.223 113.331 330.223 113.064C330.223 112.829 330.164 112.637 330.047 112.488C329.94 112.339 329.802 112.227 329.631 112.152C329.471 112.067 329.29 112.013 329.087 111.992C328.884 111.96 328.692 111.944 328.511 111.944C327.999 111.944 327.578 112.051 327.247 112.264C326.916 112.477 326.73 112.808 326.687 113.256H324.863C324.895 112.723 325.023 112.28 325.247 111.928C325.471 111.576 325.754 111.293 326.095 111.08C326.447 110.867 326.842 110.717 327.279 110.632C327.716 110.547 328.164 110.504 328.623 110.504C329.028 110.504 329.428 110.547 329.823 110.632C330.218 110.717 330.57 110.856 330.879 111.048C331.199 111.24 331.455 111.491 331.647 111.8C331.839 112.099 331.935 112.467 331.935 112.904V117.16ZM330.111 114.856C329.834 115.037 329.492 115.149 329.087 115.192C328.682 115.224 328.276 115.277 327.871 115.352C327.679 115.384 327.492 115.432 327.311 115.496C327.13 115.549 326.97 115.629 326.831 115.736C326.692 115.832 326.58 115.965 326.495 116.136C326.42 116.296 326.383 116.493 326.383 116.728C326.383 116.931 326.442 117.101 326.559 117.24C326.676 117.379 326.815 117.491 326.975 117.576C327.146 117.651 327.327 117.704 327.519 117.736C327.722 117.768 327.903 117.784 328.063 117.784C328.266 117.784 328.484 117.757 328.719 117.704C328.954 117.651 329.172 117.56 329.375 117.432C329.588 117.304 329.764 117.144 329.903 116.952C330.042 116.749 330.111 116.504 330.111 116.216V114.856ZM341.69 119H339.962V117.88H339.93C339.684 118.36 339.327 118.707 338.858 118.92C338.388 119.123 337.892 119.224 337.37 119.224C336.719 119.224 336.148 119.112 335.658 118.888C335.178 118.653 334.778 118.339 334.458 117.944C334.138 117.549 333.898 117.085 333.738 116.552C333.578 116.008 333.498 115.427 333.498 114.808C333.498 114.061 333.599 113.416 333.802 112.872C334.004 112.328 334.271 111.88 334.602 111.528C334.943 111.176 335.327 110.92 335.754 110.76C336.191 110.589 336.634 110.504 337.082 110.504C337.338 110.504 337.599 110.531 337.866 110.584C338.132 110.627 338.388 110.701 338.634 110.808C338.879 110.915 339.103 111.053 339.306 111.224C339.519 111.384 339.695 111.576 339.834 111.8H339.866V107.576H341.69V119ZM335.322 114.952C335.322 115.304 335.364 115.651 335.45 115.992C335.546 116.333 335.684 116.637 335.866 116.904C336.058 117.171 336.298 117.384 336.586 117.544C336.874 117.704 337.215 117.784 337.61 117.784C338.015 117.784 338.362 117.699 338.65 117.528C338.948 117.357 339.188 117.133 339.37 116.856C339.562 116.579 339.7 116.269 339.786 115.928C339.882 115.576 339.93 115.219 339.93 114.856C339.93 113.939 339.722 113.224 339.306 112.712C338.9 112.2 338.346 111.944 337.641 111.944C337.215 111.944 336.852 112.035 336.554 112.216C336.266 112.387 336.026 112.616 335.834 112.904C335.652 113.181 335.519 113.501 335.434 113.864C335.359 114.216 335.322 114.579 335.322 114.952ZM350.607 117.16C350.607 117.384 350.633 117.544 350.687 117.64C350.751 117.736 350.868 117.784 351.039 117.784C351.092 117.784 351.156 117.784 351.231 117.784C351.305 117.784 351.391 117.773 351.487 117.752V119.016C351.423 119.037 351.337 119.059 351.231 119.08C351.135 119.112 351.033 119.139 350.927 119.16C350.82 119.181 350.713 119.197 350.607 119.208C350.5 119.219 350.409 119.224 350.335 119.224C349.961 119.224 349.652 119.149 349.407 119C349.161 118.851 349.001 118.589 348.927 118.216C348.564 118.568 348.116 118.824 347.583 118.984C347.06 119.144 346.553 119.224 346.063 119.224C345.689 119.224 345.332 119.171 344.991 119.064C344.649 118.968 344.345 118.824 344.079 118.632C343.823 118.429 343.615 118.179 343.455 117.88C343.305 117.571 343.231 117.213 343.231 116.808C343.231 116.296 343.321 115.88 343.503 115.56C343.695 115.24 343.94 114.989 344.239 114.808C344.548 114.627 344.889 114.499 345.263 114.424C345.647 114.339 346.031 114.275 346.415 114.232C346.745 114.168 347.06 114.125 347.359 114.104C347.657 114.072 347.919 114.024 348.143 113.96C348.377 113.896 348.559 113.8 348.687 113.672C348.825 113.533 348.895 113.331 348.895 113.064C348.895 112.829 348.836 112.637 348.719 112.488C348.612 112.339 348.473 112.227 348.303 112.152C348.143 112.067 347.961 112.013 347.759 111.992C347.556 111.96 347.364 111.944 347.183 111.944C346.671 111.944 346.249 112.051 345.919 112.264C345.588 112.477 345.401 112.808 345.359 113.256H343.535C343.567 112.723 343.695 112.28 343.919 111.928C344.143 111.576 344.425 111.293 344.767 111.08C345.119 110.867 345.513 110.717 345.951 110.632C346.388 110.547 346.836 110.504 347.295 110.504C347.7 110.504 348.1 110.547 348.495 110.632C348.889 110.717 349.241 110.856 349.551 111.048C349.871 111.24 350.127 111.491 350.319 111.8C350.511 112.099 350.607 112.467 350.607 112.904V117.16ZM348.783 114.856C348.505 115.037 348.164 115.149 347.759 115.192C347.353 115.224 346.948 115.277 346.543 115.352C346.351 115.384 346.164 115.432 345.983 115.496C345.801 115.549 345.641 115.629 345.503 115.736C345.364 115.832 345.252 115.965 345.167 116.136C345.092 116.296 345.055 116.493 345.055 116.728C345.055 116.931 345.113 117.101 345.231 117.24C345.348 117.379 345.487 117.491 345.647 117.576C345.817 117.651 345.999 117.704 346.191 117.736C346.393 117.768 346.575 117.784 346.735 117.784C346.937 117.784 347.156 117.757 347.391 117.704C347.625 117.651 347.844 117.56 348.047 117.432C348.26 117.304 348.436 117.144 348.575 116.952C348.713 116.749 348.783 116.504 348.783 116.216V114.856Z" fill="black"/>
<path d="M745.74 113H743.94V98.72H751.92V100.3H745.74V105.36H751.54V106.94H745.74V113ZM759.071 102.08C759.271 102.08 759.484 102.093 759.711 102.12C759.951 102.133 760.158 102.16 760.331 102.2L760.111 103.82C759.938 103.78 759.744 103.747 759.531 103.72C759.331 103.693 759.138 103.68 758.951 103.68C758.404 103.68 757.891 103.833 757.411 104.14C756.931 104.433 756.544 104.853 756.251 105.4C755.971 105.933 755.831 106.56 755.831 107.28V113H754.071V102.28H755.511L755.711 104.24H755.791C756.138 103.653 756.584 103.147 757.131 102.72C757.678 102.293 758.324 102.08 759.071 102.08ZM766.002 102.1C767.309 102.1 768.276 102.387 768.902 102.96C769.529 103.533 769.842 104.447 769.842 105.7V113H768.562L768.222 111.48H768.142C767.676 112.067 767.182 112.5 766.662 112.78C766.156 113.06 765.449 113.2 764.542 113.2C763.569 113.2 762.762 112.947 762.122 112.44C761.482 111.92 761.162 111.113 761.162 110.02C761.162 108.953 761.582 108.133 762.422 107.56C763.262 106.973 764.556 106.653 766.302 106.6L768.122 106.54V105.9C768.122 105.007 767.929 104.387 767.542 104.04C767.156 103.693 766.609 103.52 765.902 103.52C765.342 103.52 764.809 103.607 764.302 103.78C763.796 103.94 763.322 104.127 762.882 104.34L762.342 103.02C762.809 102.767 763.362 102.553 764.002 102.38C764.642 102.193 765.309 102.1 766.002 102.1ZM766.522 107.82C765.189 107.873 764.262 108.087 763.742 108.46C763.236 108.833 762.982 109.36 762.982 110.04C762.982 110.64 763.162 111.08 763.522 111.36C763.896 111.64 764.369 111.78 764.942 111.78C765.849 111.78 766.602 111.533 767.202 111.04C767.802 110.533 768.102 109.76 768.102 108.72V107.76L766.522 107.82ZM778.313 102.08C779.593 102.08 780.56 102.393 781.213 103.02C781.866 103.633 782.193 104.633 782.193 106.02V113H780.453V106.14C780.453 104.42 779.653 103.56 778.053 103.56C776.866 103.56 776.046 103.893 775.593 104.56C775.14 105.227 774.913 106.187 774.913 107.44V113H773.153V102.28H774.573L774.833 103.74H774.933C775.28 103.18 775.76 102.767 776.373 102.5C776.986 102.22 777.633 102.08 778.313 102.08ZM789.816 113.2C788.87 113.2 788.023 113.007 787.276 112.62C786.543 112.233 785.963 111.633 785.536 110.82C785.123 110.007 784.916 108.967 784.916 107.7C784.916 106.38 785.136 105.307 785.576 104.48C786.016 103.653 786.61 103.047 787.356 102.66C788.116 102.273 788.976 102.08 789.936 102.08C790.483 102.08 791.01 102.14 791.516 102.26C792.023 102.367 792.436 102.5 792.756 102.66L792.216 104.12C791.896 104 791.523 103.887 791.096 103.78C790.67 103.673 790.27 103.62 789.896 103.62C787.79 103.62 786.736 104.973 786.736 107.68C786.736 108.973 786.99 109.967 787.496 110.66C788.016 111.34 788.783 111.68 789.796 111.68C790.383 111.68 790.896 111.62 791.336 111.5C791.79 111.38 792.203 111.233 792.576 111.06V112.62C792.216 112.807 791.816 112.947 791.376 113.04C790.95 113.147 790.43 113.2 789.816 113.2ZM791.456 115.78C791.456 116.42 791.21 116.913 790.716 117.26C790.223 117.62 789.483 117.8 788.496 117.8C788.07 117.8 787.736 117.767 787.496 117.7V116.6C787.616 116.627 787.776 116.647 787.976 116.66C788.176 116.687 788.37 116.7 788.556 116.7C789.036 116.7 789.403 116.633 789.656 116.5C789.91 116.38 790.036 116.153 790.036 115.82C790.036 115.473 789.856 115.22 789.496 115.06C789.15 114.9 788.723 114.787 788.216 114.72L789.076 113H790.236L789.716 114.06C790.196 114.167 790.603 114.353 790.936 114.62C791.283 114.887 791.456 115.273 791.456 115.78ZM799.186 102.1C800.492 102.1 801.459 102.387 802.086 102.96C802.712 103.533 803.026 104.447 803.026 105.7V113H801.746L801.406 111.48H801.326C800.859 112.067 800.366 112.5 799.846 112.78C799.339 113.06 798.632 113.2 797.726 113.2C796.752 113.2 795.946 112.947 795.306 112.44C794.666 111.92 794.346 111.113 794.346 110.02C794.346 108.953 794.766 108.133 795.606 107.56C796.446 106.973 797.739 106.653 799.486 106.6L801.306 106.54V105.9C801.306 105.007 801.112 104.387 800.726 104.04C800.339 103.693 799.792 103.52 799.086 103.52C798.526 103.52 797.992 103.607 797.486 103.78C796.979 103.94 796.506 104.127 796.066 104.34L795.526 103.02C795.992 102.767 796.546 102.553 797.186 102.38C797.826 102.193 798.492 102.1 799.186 102.1ZM799.706 107.82C798.372 107.873 797.446 108.087 796.926 108.46C796.419 108.833 796.166 109.36 796.166 110.04C796.166 110.64 796.346 111.08 796.706 111.36C797.079 111.64 797.552 111.78 798.126 111.78C799.032 111.78 799.786 111.533 800.386 111.04C800.986 110.533 801.286 109.76 801.286 108.72V107.76L799.706 107.82ZM807.237 98.26C807.503 98.26 807.737 98.3533 807.937 98.54C808.15 98.7133 808.257 98.9933 808.257 99.38C808.257 99.7533 808.15 100.033 807.937 100.22C807.737 100.407 807.503 100.5 807.237 100.5C806.943 100.5 806.697 100.407 806.497 100.22C806.297 100.033 806.197 99.7533 806.197 99.38C806.197 98.9933 806.297 98.7133 806.497 98.54C806.697 98.3533 806.943 98.26 807.237 98.26ZM808.097 102.28V113H806.337V102.28H808.097ZM818.473 110.04C818.473 111.08 818.086 111.867 817.313 112.4C816.54 112.933 815.5 113.2 814.193 113.2C813.446 113.2 812.8 113.14 812.253 113.02C811.72 112.9 811.246 112.733 810.833 112.52V110.92C811.26 111.133 811.773 111.333 812.373 111.52C812.986 111.693 813.606 111.78 814.233 111.78C815.126 111.78 815.773 111.64 816.173 111.36C816.573 111.067 816.773 110.68 816.773 110.2C816.773 109.933 816.7 109.693 816.553 109.48C816.406 109.267 816.14 109.053 815.753 108.84C815.38 108.627 814.84 108.387 814.133 108.12C813.44 107.853 812.846 107.587 812.353 107.32C811.86 107.053 811.48 106.733 811.213 106.36C810.946 105.987 810.813 105.507 810.813 104.92C810.813 104.013 811.18 103.313 811.913 102.82C812.66 102.327 813.633 102.08 814.833 102.08C815.486 102.08 816.093 102.147 816.653 102.28C817.226 102.4 817.76 102.573 818.253 102.8L817.653 104.2C817.2 104.013 816.726 103.853 816.233 103.72C815.74 103.587 815.233 103.52 814.713 103.52C813.993 103.52 813.44 103.64 813.053 103.88C812.68 104.107 812.493 104.42 812.493 104.82C812.493 105.113 812.58 105.367 812.753 105.58C812.926 105.78 813.213 105.98 813.613 106.18C814.026 106.367 814.573 106.593 815.253 106.86C815.933 107.113 816.513 107.373 816.993 107.64C817.473 107.907 817.84 108.233 818.093 108.62C818.346 108.993 818.473 109.467 818.473 110.04Z" fill="#2B4380"/>
<line x1="742" y1="119.5" x2="820" y2="119.5" stroke="#2B4380"/>
<path d="M835 136H58V142H835V136Z" fill="#31455C" mask="url(#path-6-outside-1_6976_17931)"/>
<g clip-path="url(#clip1_6976_17931)">
<rect y="34" width="50" height="1" fill="#C54600"/>
<g clip-path="url(#clip2_6976_17931)">
<rect y="22" width="24" height="24" rx="12" fill="#C54600"/>
<path d="M13.8302 28.8182V39H11.6775V30.8615H11.6178L9.28613 32.3232V30.4141L11.8067 28.8182H13.8302Z" fill="white"/>
</g>
</g>
<g clip-path="url(#clip3_6976_17931)">
<rect y="105" width="50" height="1" fill="#C54600"/>
<g clip-path="url(#clip4_6976_17931)">
<rect y="93" width="24" height="24" rx="12" fill="#C54600"/>
<path d="M8.4161 110V108.449L12.0404 105.093C12.3486 104.795 12.6072 104.526 12.816 104.288C13.0281 104.049 13.1888 103.815 13.2982 103.587C13.4076 103.355 13.4623 103.104 13.4623 102.836C13.4623 102.538 13.3943 102.281 13.2584 102.065C13.1225 101.847 12.9369 101.679 12.7016 101.563C12.4663 101.444 12.1995 101.384 11.9012 101.384C11.5896 101.384 11.3179 101.447 11.0858 101.573C10.8538 101.699 10.6749 101.88 10.5489 102.115C10.423 102.35 10.36 102.63 10.36 102.955H8.31667C8.31667 102.289 8.46748 101.711 8.76909 101.22C9.0707 100.73 9.49328 100.35 10.0368 100.082C10.5804 99.8132 11.2068 99.679 11.9161 99.679C12.6453 99.679 13.28 99.8082 13.8202 100.067C14.3638 100.322 14.7864 100.677 15.088 101.131C15.3896 101.585 15.5404 102.105 15.5404 102.692C15.5404 103.076 15.4642 103.456 15.3117 103.83C15.1626 104.205 14.8957 104.621 14.5113 105.078C14.1268 105.532 13.5849 106.077 12.8856 106.714L11.3991 108.17V108.24H15.6746V110H8.4161Z" fill="white"/>
</g>
</g>
<g clip-path="url(#clip5_6976_17931)">
<rect x="844" y="105" width="49" height="1" fill="#C54600"/>
<g clip-path="url(#clip6_6976_17931)">
<rect x="869" y="93" width="24" height="24" rx="12" fill="#C54600"/>
<path d="M880.975 110.139C880.232 110.139 879.571 110.012 878.991 109.756C878.414 109.498 877.958 109.143 877.624 108.692C877.292 108.238 877.122 107.715 877.112 107.121H879.279C879.292 107.37 879.374 107.589 879.523 107.778C879.675 107.963 879.877 108.107 880.129 108.21C880.381 108.313 880.665 108.364 880.979 108.364C881.308 108.364 881.598 108.306 881.85 108.19C882.101 108.074 882.299 107.914 882.441 107.708C882.584 107.503 882.655 107.266 882.655 106.997C882.655 106.725 882.579 106.485 882.426 106.276C882.277 106.064 882.062 105.898 881.78 105.779C881.502 105.66 881.17 105.6 880.786 105.6H879.836V104.019H880.786C881.11 104.019 881.397 103.963 881.646 103.85C881.898 103.737 882.093 103.582 882.232 103.383C882.372 103.181 882.441 102.945 882.441 102.677C882.441 102.422 882.38 102.198 882.257 102.006C882.138 101.81 881.969 101.658 881.75 101.548C881.535 101.439 881.283 101.384 880.994 101.384C880.703 101.384 880.436 101.437 880.194 101.543C879.952 101.646 879.758 101.794 879.612 101.986C879.466 102.178 879.389 102.403 879.379 102.662H877.315C877.325 102.075 877.493 101.558 877.818 101.111C878.142 100.663 878.58 100.314 879.13 100.062C879.684 99.8066 880.308 99.679 881.004 99.679C881.707 99.679 882.322 99.8066 882.849 100.062C883.376 100.317 883.785 100.662 884.077 101.096C884.372 101.527 884.518 102.011 884.514 102.548C884.518 103.118 884.34 103.593 883.982 103.974C883.628 104.356 883.165 104.598 882.595 104.7V104.78C883.344 104.876 883.914 105.136 884.305 105.56C884.7 105.981 884.895 106.508 884.892 107.141C884.895 107.721 884.728 108.237 884.39 108.688C884.055 109.138 883.593 109.493 883.003 109.751C882.413 110.01 881.737 110.139 880.975 110.139Z" fill="white"/>
</g>
</g>
<defs>
<clipPath id="clip0_6976_17931">
<rect width="54" height="27" fill="white" transform="translate(73 92)"/>
</clipPath>
<clipPath id="clip1_6976_17931">
<rect width="50" height="24" fill="white" transform="translate(0 22)"/>
</clipPath>
<clipPath id="clip2_6976_17931">
<rect y="22" width="24" height="24" rx="12" fill="white"/>
</clipPath>
<clipPath id="clip3_6976_17931">
<rect width="50" height="24" fill="white" transform="translate(0 93)"/>
</clipPath>
<clipPath id="clip4_6976_17931">
<rect y="93" width="24" height="24" rx="12" fill="white"/>
</clipPath>
<clipPath id="clip5_6976_17931">
<rect width="49" height="24" fill="white" transform="translate(844 93)"/>
</clipPath>
<clipPath id="clip6_6976_17931">
<rect x="869" y="93" width="24" height="24" rx="12" fill="white"/>
</clipPath>
</defs>
</svg>
