<svg width="328" height="125" viewBox="0 0 328 125" fill="none" xmlns="http://www.w3.org/2000/svg">
<path d="M38 73C45.732 73 52 79.268 52 87C52 94.732 45.732 101 38 101C30.268 101 24 94.732 24 87C24 79.268 30.268 73 38 73ZM36.5996 94H39.4004L39.3994 85.5996H36.5996V94ZM36.5996 82.7998H39.4004L39.3994 80H36.5996V82.7998Z" fill="#333333"/>
<path d="M81.6236 90.4251L78.42 82.1241C78.325 81.8773 78.2254 81.5925 78.1209 81.2698C78.0165 80.9375 77.9169 80.5863 77.8219 80.2161C77.6226 80.985 77.4185 81.6257 77.2097 82.1383L74.006 90.4251H81.6236ZM87.376 98H85.2402C84.9934 98 84.7941 97.9383 84.6422 97.8149C84.4903 97.6915 84.3764 97.5349 84.3005 97.345L82.3925 92.4185H73.2371L71.3292 97.345C71.2722 97.5159 71.1631 97.6678 71.0017 97.8007C70.8403 97.9336 70.641 98 70.4037 98H68.2679L76.4266 77.5962H79.2173L87.376 98ZM99.1109 86.1393C99.035 86.2437 98.9591 86.3244 98.8831 86.3814C98.8072 86.4383 98.7028 86.4668 98.5699 86.4668C98.4275 86.4668 98.2709 86.4099 98.1 86.296C97.9291 86.1726 97.7156 86.0397 97.4593 85.8973C97.2125 85.7549 96.904 85.6267 96.5338 85.5128C96.1731 85.3894 95.7269 85.3277 95.1954 85.3277C94.4834 85.3277 93.8569 85.4559 93.3159 85.7122C92.7748 85.959 92.3192 86.3197 91.949 86.7943C91.5883 87.2689 91.313 87.8432 91.1231 88.5172C90.9428 89.1911 90.8526 89.9458 90.8526 90.7811C90.8526 91.6544 90.9523 92.4327 91.1516 93.1162C91.351 93.7902 91.631 94.3597 91.9917 94.8248C92.3619 95.2804 92.8033 95.6317 93.3159 95.8785C93.838 96.1158 94.4217 96.2344 95.0672 96.2344C95.6842 96.2344 96.192 96.1632 96.5907 96.0208C96.9894 95.869 97.3169 95.7029 97.5732 95.5225C97.839 95.3421 98.0573 95.1808 98.2282 95.0384C98.4085 94.8865 98.5841 94.8106 98.755 94.8106C98.9638 94.8106 99.1252 94.8913 99.2391 95.0526L99.951 95.9781C99.6378 96.3673 99.2818 96.6996 98.8831 96.9748C98.4844 97.2501 98.0525 97.4827 97.5874 97.6725C97.1318 97.8529 96.6524 97.9858 96.1493 98.0712C95.6462 98.1566 95.1337 98.1993 94.6116 98.1993C93.7098 98.1993 92.8697 98.0332 92.0914 97.701C91.3225 97.3688 90.6533 96.8894 90.0837 96.2629C89.5142 95.6269 89.0681 94.8485 88.7453 93.9278C88.4226 93.007 88.2612 91.9581 88.2612 90.7811C88.2612 89.7084 88.4083 88.7165 88.7026 87.8052C89.0064 86.894 89.443 86.1109 90.0125 85.4559C90.5916 84.7914 91.2988 84.2741 92.1341 83.9039C92.9789 83.5337 93.9471 83.3486 95.0387 83.3486C96.0544 83.3486 96.9467 83.5147 97.7156 83.8469C98.4939 84.1697 99.1821 84.63 99.7802 85.2281L99.1109 86.1393ZM112.46 86.1393C112.384 86.2437 112.308 86.3244 112.232 86.3814C112.156 86.4383 112.051 86.4668 111.918 86.4668C111.776 86.4668 111.619 86.4099 111.449 86.296C111.278 86.1726 111.064 86.0397 110.808 85.8973C110.561 85.7549 110.253 85.6267 109.882 85.5128C109.522 85.3894 109.076 85.3277 108.544 85.3277C107.832 85.3277 107.206 85.4559 106.664 85.7122C106.123 85.959 105.668 86.3197 105.298 86.7943C104.937 87.2689 104.662 87.8432 104.472 88.5172C104.291 89.1911 104.201 89.9458 104.201 90.7811C104.201 91.6544 104.301 92.4327 104.5 93.1162C104.7 93.7902 104.98 94.3597 105.34 94.8248C105.71 95.2804 106.152 95.6317 106.664 95.8785C107.187 96.1158 107.77 96.2344 108.416 96.2344C109.033 96.2344 109.541 96.1632 109.939 96.0208C110.338 95.869 110.665 95.7029 110.922 95.5225C111.188 95.3421 111.406 95.1808 111.577 95.0384C111.757 94.8865 111.933 94.8106 112.104 94.8106C112.312 94.8106 112.474 94.8913 112.588 95.0526L113.3 95.9781C112.986 96.3673 112.63 96.6996 112.232 96.9748C111.833 97.2501 111.401 97.4827 110.936 97.6725C110.48 97.8529 110.001 97.9858 109.498 98.0712C108.995 98.1566 108.482 98.1993 107.96 98.1993C107.058 98.1993 106.218 98.0332 105.44 97.701C104.671 97.3688 104.002 96.8894 103.432 96.2629C102.863 95.6269 102.417 94.8485 102.094 93.9278C101.771 93.007 101.61 91.9581 101.61 90.7811C101.61 89.7084 101.757 88.7165 102.051 87.8052C102.355 86.894 102.792 86.1109 103.361 85.4559C103.94 84.7914 104.647 84.2741 105.483 83.9039C106.327 83.5337 107.296 83.3486 108.387 83.3486C109.403 83.3486 110.295 83.5147 111.064 83.8469C111.843 84.1697 112.531 84.63 113.129 85.2281L112.46 86.1393ZM121.85 83.3486C122.903 83.3486 123.853 83.5242 124.698 83.8754C125.542 84.2266 126.264 84.725 126.862 85.3705C127.46 86.0159 127.915 86.799 128.229 87.7198C128.551 88.6311 128.713 89.6515 128.713 90.7811C128.713 91.9202 128.551 92.9453 128.229 93.8566C127.915 94.7679 127.46 95.5462 126.862 96.1917C126.264 96.8372 125.542 97.3355 124.698 97.6868C123.853 98.0285 122.903 98.1993 121.85 98.1993C120.787 98.1993 119.828 98.0285 118.974 97.6868C118.129 97.3355 117.407 96.8372 116.809 96.1917C116.211 95.5462 115.751 94.7679 115.428 93.8566C115.115 92.9453 114.958 91.9202 114.958 90.7811C114.958 89.6515 115.115 88.6311 115.428 87.7198C115.751 86.799 116.211 86.0159 116.809 85.3705C117.407 84.725 118.129 84.2266 118.974 83.8754C119.828 83.5242 120.787 83.3486 121.85 83.3486ZM121.85 96.2202C123.274 96.2202 124.337 95.7456 125.039 94.7963C125.742 93.8376 126.093 92.5039 126.093 90.7953C126.093 89.0772 125.742 87.7388 125.039 86.7801C124.337 85.8213 123.274 85.342 121.85 85.342C121.128 85.342 120.497 85.4654 119.956 85.7122C119.425 85.959 118.978 86.3149 118.618 86.7801C118.266 87.2452 118.001 87.8195 117.82 88.5029C117.649 89.1769 117.564 89.941 117.564 90.7953C117.564 92.5039 117.915 93.8376 118.618 94.7963C119.33 95.7456 120.407 96.2202 121.85 96.2202ZM131.927 98V83.5764H133.451C133.812 83.5764 134.035 83.752 134.12 84.1032L134.305 85.584C134.837 84.9291 135.435 84.3927 136.099 83.9751C136.764 83.5574 137.533 83.3486 138.406 83.3486C139.374 83.3486 140.157 83.6191 140.755 84.1602C141.363 84.7012 141.799 85.4322 142.065 86.3529C142.274 85.8308 142.54 85.3799 142.863 85.0002C143.195 84.6206 143.565 84.3073 143.973 84.0605C144.381 83.8137 144.813 83.6334 145.269 83.5194C145.734 83.4055 146.204 83.3486 146.678 83.3486C147.438 83.3486 148.112 83.472 148.7 83.7188C149.298 83.9561 149.801 84.3073 150.21 84.7724C150.627 85.2376 150.945 85.8118 151.164 86.4953C151.382 87.1692 151.491 87.9429 151.491 88.8162V98H148.942V88.8162C148.942 87.6866 148.696 86.8323 148.202 86.2532C147.708 85.6647 146.996 85.3705 146.066 85.3705C145.649 85.3705 145.25 85.4464 144.87 85.5983C144.5 85.7407 144.172 85.9542 143.888 86.239C143.603 86.5238 143.375 86.8845 143.204 87.3211C143.043 87.7483 142.962 88.2466 142.962 88.8162V98H140.413V88.8162C140.413 87.6581 140.181 86.7943 139.716 86.2248C139.251 85.6552 138.572 85.3705 137.68 85.3705C137.053 85.3705 136.474 85.5413 135.943 85.883C135.411 86.2153 134.922 86.6709 134.476 87.2499V98H131.927ZM157.892 94.5258C158.357 95.1523 158.865 95.5937 159.415 95.85C159.966 96.1063 160.583 96.2344 161.266 96.2344C162.614 96.2344 163.649 95.7551 164.37 94.7963C165.092 93.8376 165.452 92.4707 165.452 90.6956C165.452 89.7559 165.367 88.9491 165.196 88.2751C165.035 87.6011 164.797 87.0506 164.484 86.6234C164.171 86.1868 163.786 85.8688 163.331 85.6695C162.875 85.4701 162.358 85.3705 161.779 85.3705C160.953 85.3705 160.227 85.5603 159.6 85.94C158.983 86.3197 158.414 86.856 157.892 87.5489V94.5258ZM157.764 85.8118C158.371 85.0619 159.073 84.4592 159.871 84.0036C160.668 83.5479 161.579 83.3201 162.605 83.3201C163.44 83.3201 164.195 83.4815 164.869 83.8042C165.543 84.1175 166.117 84.5873 166.591 85.2138C167.066 85.8308 167.431 86.5997 167.688 87.5205C167.944 88.4412 168.072 89.4996 168.072 90.6956C168.072 91.7588 167.93 92.7507 167.645 93.6715C167.36 94.5828 166.947 95.3754 166.406 96.0493C165.875 96.7138 165.22 97.2406 164.441 97.6298C163.673 98.0095 162.804 98.1993 161.836 98.1993C160.953 98.1993 160.194 98.0522 159.558 97.7579C158.931 97.4542 158.376 97.0365 157.892 96.505V102.884H155.343V83.5764H156.867C157.227 83.5764 157.45 83.752 157.536 84.1032L157.764 85.8118ZM179.123 91.5072C177.955 91.5452 176.958 91.6401 176.133 91.792C175.316 91.9344 174.647 92.1242 174.125 92.3616C173.612 92.5989 173.237 92.8789 173 93.2016C172.772 93.5244 172.658 93.8851 172.658 94.2838C172.658 94.6634 172.72 94.9909 172.843 95.2662C172.967 95.5415 173.133 95.7693 173.342 95.9497C173.56 96.1205 173.812 96.2487 174.096 96.3341C174.391 96.41 174.704 96.448 175.036 96.448C175.482 96.448 175.89 96.4053 176.261 96.3199C176.631 96.2249 176.977 96.092 177.3 95.9212C177.632 95.7503 177.946 95.5462 178.24 95.3089C178.544 95.0716 178.838 94.8011 179.123 94.4973V91.5072ZM170.935 85.6125C171.733 84.8436 172.592 84.2693 173.513 83.8896C174.433 83.51 175.454 83.3201 176.574 83.3201C177.381 83.3201 178.097 83.453 178.724 83.7188C179.35 83.9846 179.877 84.3548 180.304 84.8294C180.732 85.304 181.054 85.8783 181.273 86.5522C181.491 87.2262 181.6 87.9666 181.6 88.7735V98H180.475C180.228 98 180.039 97.962 179.906 97.8861C179.773 97.8007 179.668 97.6393 179.593 97.402L179.308 96.0351C178.928 96.3863 178.558 96.6996 178.197 96.9748C177.836 97.2406 177.457 97.4684 177.058 97.6583C176.659 97.8386 176.232 97.9763 175.777 98.0712C175.33 98.1756 174.832 98.2278 174.282 98.2278C173.721 98.2278 173.195 98.1519 172.701 98C172.207 97.8386 171.776 97.6013 171.405 97.2881C171.045 96.9748 170.755 96.5809 170.537 96.1063C170.328 95.6222 170.224 95.0526 170.224 94.3977C170.224 93.8281 170.38 93.2823 170.693 92.7602C171.007 92.2287 171.515 91.7588 172.217 91.3506C172.919 90.9424 173.835 90.6102 174.965 90.3539C176.095 90.0881 177.48 89.9363 179.123 89.8983V88.7735C179.123 87.6534 178.881 86.8085 178.396 86.239C177.912 85.66 177.205 85.3705 176.275 85.3705C175.648 85.3705 175.122 85.4511 174.694 85.6125C174.277 85.7644 173.911 85.94 173.598 86.1393C173.294 86.3292 173.029 86.5048 172.801 86.6662C172.582 86.818 172.364 86.894 172.146 86.894C171.975 86.894 171.828 86.8513 171.704 86.7658C171.581 86.6709 171.477 86.557 171.391 86.4241L170.935 85.6125ZM187.853 85.6695C188.166 85.3182 188.498 85.0002 188.85 84.7155C189.201 84.4307 189.571 84.1887 189.96 83.9893C190.359 83.7805 190.776 83.6239 191.213 83.5194C191.659 83.4055 192.139 83.3486 192.651 83.3486C193.439 83.3486 194.132 83.4815 194.73 83.7473C195.338 84.0036 195.841 84.3738 196.239 84.8579C196.647 85.3325 196.956 85.9068 197.165 86.5807C197.374 87.2547 197.478 87.9998 197.478 88.8162V98H194.929V88.8162C194.929 87.7245 194.678 86.8797 194.175 86.2817C193.681 85.6742 192.926 85.3705 191.911 85.3705C191.161 85.3705 190.458 85.5508 189.804 85.9115C189.158 86.2722 188.56 86.7611 188.009 87.3781V98H185.461V83.5764H186.984C187.345 83.5764 187.568 83.752 187.653 84.1032L187.853 85.6695ZM213.423 83.5764L205.378 102.257C205.293 102.447 205.184 102.599 205.051 102.713C204.927 102.827 204.733 102.884 204.467 102.884H202.587L205.222 97.1599L199.27 83.5764H201.463C201.681 83.5764 201.852 83.6334 201.975 83.7473C202.108 83.8517 202.198 83.9703 202.246 84.1032L206.104 93.1874C206.256 93.5861 206.384 94.0037 206.489 94.4404C206.622 93.9942 206.764 93.5718 206.916 93.1731L210.661 84.1032C210.718 83.9513 210.813 83.8279 210.945 83.733C211.088 83.6286 211.244 83.5764 211.415 83.5764H213.423ZM218.339 83.5764V98H215.804V83.5764H218.339ZM218.88 79.0486C218.88 79.2954 218.828 79.5279 218.723 79.7462C218.628 79.9551 218.495 80.1449 218.325 80.3158C218.163 80.4772 217.969 80.6053 217.741 80.7002C217.522 80.7951 217.29 80.8426 217.043 80.8426C216.796 80.8426 216.564 80.7951 216.345 80.7002C216.137 80.6053 215.951 80.4772 215.79 80.3158C215.629 80.1449 215.501 79.9551 215.406 79.7462C215.311 79.5279 215.263 79.2954 215.263 79.0486C215.263 78.8018 215.311 78.5692 215.406 78.3509C215.501 78.1231 215.629 77.9285 215.79 77.7671C215.951 77.5962 216.137 77.4633 216.345 77.3684C216.564 77.2735 216.796 77.226 217.043 77.226C217.29 77.226 217.522 77.2735 217.741 77.3684C217.969 77.4633 218.163 77.5962 218.325 77.7671C218.495 77.9285 218.628 78.1231 218.723 78.3509C218.828 78.5692 218.88 78.8018 218.88 79.0486ZM224.895 85.6695C225.208 85.3182 225.541 85.0002 225.892 84.7155C226.243 84.4307 226.613 84.1887 227.002 83.9893C227.401 83.7805 227.819 83.6239 228.255 83.5194C228.702 83.4055 229.181 83.3486 229.694 83.3486C230.481 83.3486 231.174 83.4815 231.772 83.7473C232.38 84.0036 232.883 84.3738 233.282 84.8579C233.69 85.3325 233.998 85.9068 234.207 86.5807C234.416 87.2547 234.52 87.9998 234.52 88.8162V98H231.972V88.8162C231.972 87.7245 231.72 86.8797 231.217 86.2817C230.723 85.6742 229.969 85.3705 228.953 85.3705C228.203 85.3705 227.501 85.5508 226.846 85.9115C226.2 86.2722 225.602 86.7611 225.052 87.3781V98H222.503V83.5764H224.027C224.387 83.5764 224.61 83.752 224.696 84.1032L224.895 85.6695ZM243.409 90.9519C243.921 90.9519 244.372 90.8807 244.761 90.7384C245.15 90.596 245.478 90.3966 245.744 90.1403C246.009 89.8841 246.209 89.5803 246.342 89.2291C246.475 88.8684 246.541 88.4744 246.541 88.0473C246.541 87.1645 246.271 86.4621 245.729 85.94C245.198 85.4179 244.424 85.1569 243.409 85.1569C242.383 85.1569 241.6 85.4179 241.059 85.94C240.528 86.4621 240.262 87.1645 240.262 88.0473C240.262 88.4744 240.328 88.8684 240.461 89.2291C240.604 89.5803 240.808 89.8841 241.073 90.1403C241.339 90.3966 241.667 90.596 242.056 90.7384C242.445 90.8807 242.896 90.9519 243.409 90.9519ZM247.979 98.7831C247.979 98.4319 247.879 98.1471 247.68 97.9288C247.481 97.7105 247.21 97.5396 246.869 97.4162C246.536 97.2928 246.147 97.2074 245.701 97.1599C245.255 97.103 244.78 97.0603 244.277 97.0318C243.784 97.0033 243.28 96.9748 242.768 96.9464C242.255 96.9179 241.762 96.8704 241.287 96.804C240.755 97.0508 240.319 97.364 239.977 97.7437C239.645 98.1139 239.479 98.5506 239.479 99.0536C239.479 99.3764 239.559 99.6754 239.721 99.9507C239.892 100.235 240.148 100.477 240.49 100.677C240.831 100.886 241.259 101.047 241.771 101.161C242.293 101.284 242.905 101.346 243.608 101.346C244.291 101.346 244.904 101.284 245.445 101.161C245.986 101.038 246.441 100.862 246.812 100.634C247.191 100.406 247.481 100.136 247.68 99.8225C247.879 99.5093 247.979 99.1628 247.979 98.7831ZM250.556 84.1459V85.0857C250.556 85.3989 250.357 85.5983 249.958 85.6837L248.321 85.8973C248.644 86.5238 248.805 87.2167 248.805 87.9761C248.805 88.6785 248.667 89.3193 248.392 89.8983C248.126 90.4678 247.756 90.9567 247.281 91.3649C246.807 91.773 246.237 92.0863 245.573 92.3046C244.908 92.5229 244.187 92.6321 243.409 92.6321C242.735 92.6321 242.099 92.5514 241.501 92.39C241.197 92.5799 240.964 92.784 240.803 93.0023C240.642 93.2111 240.561 93.4247 240.561 93.643C240.561 93.9847 240.699 94.2458 240.974 94.4261C241.259 94.597 241.629 94.7204 242.084 94.7963C242.54 94.8723 243.057 94.9197 243.636 94.9387C244.225 94.9577 244.823 94.9909 245.43 95.0384C246.047 95.0764 246.645 95.1476 247.224 95.252C247.813 95.3564 248.335 95.5272 248.791 95.7646C249.246 96.0019 249.612 96.3293 249.887 96.747C250.172 97.1647 250.314 97.7057 250.314 98.3702C250.314 98.9872 250.158 99.5852 249.844 100.164C249.541 100.743 249.099 101.256 248.52 101.702C247.941 102.158 247.229 102.518 246.384 102.784C245.549 103.059 244.605 103.197 243.551 103.197C242.497 103.197 241.577 103.093 240.789 102.884C240.001 102.675 239.346 102.395 238.824 102.044C238.302 101.693 237.908 101.284 237.642 100.819C237.386 100.364 237.258 99.8842 237.258 99.3811C237.258 98.6692 237.481 98.0664 237.927 97.5728C238.373 97.0792 238.985 96.6853 239.764 96.391C239.336 96.2012 238.995 95.9497 238.738 95.6364C238.492 95.3137 238.368 94.8818 238.368 94.3407C238.368 94.1319 238.406 93.9183 238.482 93.7C238.558 93.4722 238.672 93.2491 238.824 93.0308C238.985 92.8029 239.18 92.5894 239.408 92.39C239.635 92.1907 239.901 92.0151 240.205 91.8632C239.493 91.4645 238.938 90.9377 238.539 90.2827C238.14 89.6183 237.941 88.8494 237.941 87.9761C237.941 87.2737 238.074 86.6377 238.34 86.0681C238.615 85.4891 238.995 85.0002 239.479 84.6016C239.963 84.1934 240.537 83.8802 241.202 83.6618C241.876 83.4435 242.611 83.3343 243.409 83.3343C244.035 83.3343 244.619 83.4055 245.16 83.5479C245.701 83.6808 246.195 83.8802 246.641 84.1459H250.556ZM264.891 98.2278C263.752 98.2278 262.874 97.9098 262.257 97.2738C261.65 96.6379 261.346 95.7218 261.346 94.5258V85.6979H259.609C259.457 85.6979 259.329 85.6552 259.224 85.5698C259.12 85.4749 259.068 85.3325 259.068 85.1426V84.1317L261.431 83.8327L262.015 79.376C262.044 79.2337 262.105 79.1197 262.2 79.0343C262.305 78.9394 262.438 78.8919 262.599 78.8919H263.88V83.8612H268.052V85.6979H263.88V94.3549C263.88 94.9625 264.028 95.4133 264.322 95.7076C264.616 96.0019 264.996 96.149 265.461 96.149C265.727 96.149 265.954 96.1158 266.144 96.0493C266.344 95.9734 266.515 95.8927 266.657 95.8073C266.799 95.7218 266.918 95.6459 267.013 95.5795C267.117 95.5035 267.207 95.4655 267.283 95.4655C267.416 95.4655 267.535 95.5462 267.639 95.7076L268.38 96.9179C267.943 97.326 267.416 97.6488 266.799 97.8861C266.182 98.1139 265.546 98.2278 264.891 98.2278ZM280.24 89.2148C280.24 88.6263 280.154 88.09 279.983 87.6059C279.822 87.1123 279.58 86.6899 279.257 86.3387C278.944 85.978 278.559 85.7027 278.104 85.5128C277.648 85.3135 277.131 85.2138 276.552 85.2138C275.337 85.2138 274.373 85.5698 273.661 86.2817C272.959 86.9841 272.522 87.9619 272.351 89.2148H280.24ZM282.29 95.9781C281.977 96.3578 281.602 96.6901 281.165 96.9748C280.728 97.2501 280.259 97.4779 279.755 97.6583C279.262 97.8386 278.749 97.9715 278.218 98.057C277.686 98.1519 277.159 98.1993 276.637 98.1993C275.641 98.1993 274.72 98.0332 273.875 97.701C273.04 97.3593 272.313 96.8657 271.696 96.2202C271.089 95.5652 270.614 94.7584 270.273 93.7996C269.931 92.8409 269.76 91.7398 269.76 90.4963C269.76 89.4901 269.912 88.5504 270.216 87.6771C270.529 86.8038 270.975 86.0492 271.554 85.4132C272.133 84.7677 272.84 84.2646 273.676 83.9039C274.511 83.5337 275.451 83.3486 276.495 83.3486C277.359 83.3486 278.156 83.4957 278.887 83.79C279.627 84.0747 280.263 84.4924 280.795 85.043C281.336 85.584 281.758 86.258 282.062 87.0648C282.366 87.8622 282.518 88.7735 282.518 89.7986C282.518 90.1973 282.475 90.4631 282.39 90.596C282.304 90.7289 282.143 90.7953 281.905 90.7953H272.266C272.294 91.7066 272.418 92.4992 272.636 93.1731C272.864 93.8471 273.177 94.4119 273.576 94.8675C273.975 95.3137 274.449 95.6506 275 95.8785C275.55 96.0968 276.167 96.2059 276.851 96.2059C277.487 96.2059 278.033 96.1348 278.488 95.9924C278.953 95.8405 279.352 95.6791 279.684 95.5083C280.016 95.3374 280.292 95.1808 280.51 95.0384C280.738 94.8865 280.932 94.8106 281.094 94.8106C281.303 94.8106 281.464 94.8913 281.578 95.0526L282.29 95.9781ZM297.283 98H294.848C294.639 98 294.473 97.9478 294.349 97.8434C294.236 97.7295 294.141 97.6061 294.065 97.4732L290.434 91.8205C290.396 91.9534 290.353 92.0863 290.306 92.2192C290.268 92.3426 290.211 92.4565 290.135 92.5609L286.775 97.4732C286.68 97.6061 286.575 97.7295 286.461 97.8434C286.357 97.9478 286.21 98 286.02 98H283.756L288.811 90.596L283.955 83.5764H286.39C286.599 83.5764 286.751 83.6096 286.846 83.6761C286.941 83.7425 287.026 83.8374 287.102 83.9608L290.647 89.3715C290.723 89.0962 290.842 88.8304 291.003 88.5741L294.107 84.0178C294.193 83.8849 294.283 83.7805 294.378 83.7045C294.482 83.6191 294.606 83.5764 294.748 83.5764H297.083L292.228 90.4678L297.283 98ZM304.047 98.2278C302.908 98.2278 302.03 97.9098 301.413 97.2738C300.806 96.6379 300.502 95.7218 300.502 94.5258V85.6979H298.765C298.613 85.6979 298.485 85.6552 298.38 85.5698C298.276 85.4749 298.224 85.3325 298.224 85.1426V84.1317L300.587 83.8327L301.171 79.376C301.2 79.2337 301.261 79.1197 301.356 79.0343C301.461 78.9394 301.593 78.8919 301.755 78.8919H303.036V83.8612H307.208V85.6979H303.036V94.3549C303.036 94.9625 303.183 95.4133 303.478 95.7076C303.772 96.0019 304.152 96.149 304.617 96.149C304.883 96.149 305.11 96.1158 305.3 96.0493C305.5 95.9734 305.67 95.8927 305.813 95.8073C305.955 95.7218 306.074 95.6459 306.169 95.5795C306.273 95.5035 306.363 95.4655 306.439 95.4655C306.572 95.4655 306.691 95.5462 306.795 95.7076L307.536 96.9179C307.099 97.326 306.572 97.6488 305.955 97.8861C305.338 98.1139 304.702 98.2278 304.047 98.2278Z" fill="#333333"/>
<g clip-path="url(#clip0_59610_12169)">
<g clip-path="url(#clip1_59610_12169)">
<rect x="26" y="19.8" width="24" height="24" rx="12" fill="#C54600"/>
<path d="M39.1825 27.0728V35.8H38.1257V28.1807H38.0746L35.9439 29.5955V28.5216L38.1257 27.0728H39.1825Z" fill="white"/>
</g>
</g>
<rect width="1" height="31" transform="matrix(1 0 0 -1 38 66.5)" fill="#C54600"/>
<g clip-path="url(#clip2_59610_12169)">
<g clip-path="url(#clip3_59610_12169)">
<rect x="168" y="19.8" width="24" height="24" rx="12" fill="#C54600"/>
<path d="M177.271 35.8V35.033L180.151 31.8796C180.489 31.5103 180.768 31.1893 180.987 30.9165C181.205 30.641 181.367 30.3824 181.472 30.141C181.58 29.8966 181.634 29.641 181.634 29.3739C181.634 29.0671 181.56 28.8015 181.413 28.577C181.268 28.3526 181.069 28.1793 180.816 28.0572C180.563 27.935 180.279 27.8739 179.964 27.8739C179.629 27.8739 179.336 27.9435 179.086 28.0827C178.839 28.2191 178.647 28.4108 178.511 28.658C178.377 28.9052 178.31 29.1949 178.31 29.5273H177.305C177.305 29.016 177.423 28.5671 177.658 28.1807C177.894 27.7944 178.215 27.4932 178.621 27.2773C179.031 27.0614 179.489 26.9535 179.998 26.9535C180.509 26.9535 180.962 27.0614 181.357 27.2773C181.752 27.4932 182.062 27.7844 182.286 28.1509C182.511 28.5174 182.623 28.925 182.623 29.3739C182.623 29.6949 182.565 30.0089 182.448 30.3157C182.335 30.6197 182.136 30.9591 181.852 31.3341C181.57 31.7063 181.18 32.1608 180.68 32.6978L178.719 34.7944V34.8625H182.776V35.8H177.271Z" fill="white"/>
</g>
</g>
<rect width="1" height="31" transform="matrix(1 0 0 -1 180 66.5)" fill="#C54600"/>
<defs>
<clipPath id="clip0_59610_12169">
<rect width="24" height="24" fill="white" transform="translate(26 20)"/>
</clipPath>
<clipPath id="clip1_59610_12169">
<rect x="26" y="19.8" width="24" height="24" rx="12" fill="white"/>
</clipPath>
<clipPath id="clip2_59610_12169">
<rect width="24" height="24" fill="white" transform="translate(168 20)"/>
</clipPath>
<clipPath id="clip3_59610_12169">
<rect x="168" y="19.8" width="24" height="24" rx="12" fill="white"/>
</clipPath>
</defs>
</svg>
