<svg width="507" height="212" viewBox="0 0 507 212" fill="none" xmlns="http://www.w3.org/2000/svg">
<g clip-path="url(#clip0_6137_43938)">
<path d="M49.8 20.8823V6.60226H52.82V18.3823H58.62V20.8823H49.8ZM65.3486 9.74226C66.8153 9.74226 67.9353 10.0623 68.7086 10.7023C69.4953 11.3289 69.8886 12.2956 69.8886 13.6023V20.8823H67.8086L67.2286 19.4023H67.1486C66.6819 19.9889 66.1886 20.4156 65.6686 20.6823C65.1486 20.9489 64.4353 21.0823 63.5286 21.0823C62.5553 21.0823 61.7486 20.8023 61.1086 20.2423C60.4686 19.6689 60.1486 18.7956 60.1486 17.6223C60.1486 16.4623 60.5553 15.6089 61.3686 15.0623C62.1819 14.5023 63.4019 14.1956 65.0286 14.1423L66.9286 14.0823V13.6023C66.9286 13.0289 66.7753 12.6089 66.4686 12.3423C66.1753 12.0756 65.7619 11.9423 65.2286 11.9423C64.6953 11.9423 64.1753 12.0223 63.6686 12.1823C63.1619 12.3289 62.6553 12.5156 62.1486 12.7423L61.1686 10.7223C61.7553 10.4156 62.4019 10.1756 63.1086 10.0023C63.8286 9.82893 64.5753 9.74226 65.3486 9.74226ZM65.7686 15.8623C64.8086 15.8889 64.1419 16.0623 63.7686 16.3823C63.3953 16.7023 63.2086 17.1223 63.2086 17.6423C63.2086 18.0956 63.3419 18.4223 63.6086 18.6223C63.8753 18.8089 64.2219 18.9023 64.6486 18.9023C65.2886 18.9023 65.8286 18.7156 66.2686 18.3423C66.7086 17.9556 66.9286 17.4156 66.9286 16.7223V15.8223L65.7686 15.8623ZM75.9189 9.22226C75.9189 9.6356 75.9056 10.0423 75.8789 10.4423C75.8522 10.8423 75.8256 11.1556 75.7989 11.3823H75.9189C76.2122 10.9289 76.6056 10.5489 77.0989 10.2423C77.5922 9.92226 78.2322 9.76226 79.0189 9.76226C80.2456 9.76226 81.2389 10.2423 81.9989 11.2023C82.7589 12.1489 83.1389 13.5489 83.1389 15.4023C83.1389 17.2689 82.7522 18.6823 81.9789 19.6423C81.2056 20.6023 80.1922 21.0823 78.9389 21.0823C78.1389 21.0823 77.5056 20.9423 77.0389 20.6623C76.5856 20.3689 76.2122 20.0423 75.9189 19.6823H75.7189L75.2189 20.8823H72.9389V5.68226H75.9189V9.22226ZM78.0589 12.1423C77.2856 12.1423 76.7389 12.3823 76.4189 12.8623C76.1122 13.3423 75.9456 14.0756 75.9189 15.0623V15.3823C75.9189 16.4356 76.0722 17.2489 76.3789 17.8223C76.6989 18.3823 77.2722 18.6623 78.0989 18.6623C78.7122 18.6623 79.1989 18.3823 79.5589 17.8223C79.9189 17.2489 80.0989 16.4289 80.0989 15.3623C80.0989 14.2956 79.9122 13.4956 79.5389 12.9623C79.1789 12.4156 78.6856 12.1423 78.0589 12.1423ZM90.0952 9.76226C91.6018 9.76226 92.7952 10.1956 93.6752 11.0623C94.5552 11.9156 94.9952 13.1356 94.9952 14.7223V16.1623H87.9552C87.9818 17.0023 88.2285 17.6623 88.6952 18.1423C89.1752 18.6223 89.8352 18.8623 90.6752 18.8623C91.3818 18.8623 92.0218 18.7956 92.5952 18.6623C93.1685 18.5156 93.7618 18.2956 94.3752 18.0023V20.3023C93.8418 20.5689 93.2752 20.7623 92.6752 20.8823C92.0885 21.0156 91.3752 21.0823 90.5352 21.0823C89.4418 21.0823 88.4752 20.8823 87.6352 20.4823C86.7952 20.0689 86.1352 19.4489 85.6552 18.6223C85.1752 17.7956 84.9352 16.7556 84.9352 15.5023C84.9352 14.2223 85.1485 13.1623 85.5752 12.3223C86.0152 11.4689 86.6218 10.8289 87.3952 10.4023C88.1685 9.9756 89.0685 9.76226 90.0952 9.76226ZM90.1152 11.8823C89.5418 11.8823 89.0618 12.0689 88.6752 12.4423C88.3018 12.8156 88.0818 13.3956 88.0152 14.1823H92.1952C92.1818 13.5156 92.0085 12.9689 91.6752 12.5423C91.3418 12.1023 90.8218 11.8823 90.1152 11.8823ZM100.392 20.8823H97.4116V5.68226H100.392V20.8823Z" fill="#333333"/>
<path d="M108.8 15.4023C108.8 13.7756 109.033 12.2089 109.5 10.7023C109.98 9.18226 110.727 7.8156 111.74 6.60226H113.4C112.467 7.8556 111.76 9.2356 111.28 10.7423C110.813 12.2489 110.58 13.7956 110.58 15.3823C110.58 16.9289 110.813 18.4489 111.28 19.9423C111.76 21.4223 112.46 22.7889 113.38 24.0423H111.74C110.727 22.8689 109.98 21.5423 109.5 20.0623C109.033 18.5689 108.8 17.0156 108.8 15.4023ZM120.696 9.96226C120.896 9.96226 121.109 9.9756 121.336 10.0023C121.576 10.0156 121.783 10.0423 121.956 10.0823L121.736 11.7023C121.563 11.6623 121.369 11.6289 121.156 11.6023C120.956 11.5756 120.763 11.5623 120.576 11.5623C120.029 11.5623 119.516 11.7156 119.036 12.0223C118.556 12.3156 118.169 12.7356 117.876 13.2823C117.596 13.8156 117.456 14.4423 117.456 15.1623V20.8823H115.696V10.1623H117.136L117.336 12.1223H117.416C117.763 11.5356 118.209 11.0289 118.756 10.6023C119.303 10.1756 119.949 9.96226 120.696 9.96226ZM127.707 9.96226C128.627 9.96226 129.414 10.1623 130.067 10.5623C130.734 10.9623 131.241 11.5289 131.587 12.2623C131.947 12.9823 132.127 13.8289 132.127 14.8023V15.8623H124.787C124.814 17.0756 125.121 18.0023 125.707 18.6423C126.307 19.2689 127.141 19.5823 128.207 19.5823C128.887 19.5823 129.487 19.5223 130.007 19.4023C130.541 19.2689 131.087 19.0823 131.647 18.8423V20.3823C131.101 20.6223 130.561 20.7956 130.027 20.9023C129.494 21.0223 128.861 21.0823 128.127 21.0823C127.114 21.0823 126.214 20.8756 125.427 20.4623C124.654 20.0489 124.047 19.4356 123.607 18.6223C123.181 17.7956 122.967 16.7889 122.967 15.6023C122.967 14.4289 123.161 13.4223 123.547 12.5823C123.947 11.7423 124.501 11.0956 125.207 10.6423C125.927 10.1889 126.761 9.96226 127.707 9.96226ZM127.687 11.4023C126.847 11.4023 126.181 11.6756 125.687 12.2223C125.207 12.7556 124.921 13.5023 124.827 14.4623H130.287C130.274 13.5556 130.061 12.8223 129.647 12.2623C129.234 11.6889 128.581 11.4023 127.687 11.4023ZM141.996 21.1023C141.996 20.8623 142.003 20.5823 142.016 20.2623C142.03 19.9423 142.056 19.6689 142.096 19.4423H141.976C141.67 19.8956 141.243 20.2823 140.696 20.6023C140.163 20.9223 139.47 21.0823 138.616 21.0823C137.323 21.0823 136.27 20.6223 135.456 19.7023C134.656 18.7689 134.256 17.3823 134.256 15.5423C134.256 13.7023 134.663 12.3156 135.476 11.3823C136.303 10.4356 137.37 9.96226 138.676 9.96226C139.516 9.96226 140.203 10.1223 140.736 10.4423C141.27 10.7623 141.696 11.1556 142.016 11.6223H142.096L142.356 10.1623H143.756V25.6823H141.996V21.1023ZM138.956 19.6223C140.063 19.6223 140.843 19.3223 141.296 18.7223C141.763 18.1089 142.003 17.1756 142.016 15.9223V15.5623C142.016 14.2023 141.79 13.1756 141.336 12.4823C140.883 11.7756 140.076 11.4223 138.916 11.4223C137.956 11.4223 137.243 11.8023 136.776 12.5623C136.31 13.3089 136.076 14.3156 136.076 15.5823C136.076 16.8489 136.31 17.8423 136.776 18.5623C137.256 19.2689 137.983 19.6223 138.956 19.6223ZM156.121 10.1623V20.8823H154.681L154.421 19.4623H154.341C153.994 20.0223 153.514 20.4356 152.901 20.7023C152.288 20.9556 151.634 21.0823 150.941 21.0823C149.648 21.0823 148.674 20.7756 148.021 20.1623C147.368 19.5356 147.041 18.5423 147.041 17.1823V10.1623H148.821V17.0623C148.821 18.7689 149.614 19.6223 151.201 19.6223C152.388 19.6223 153.208 19.2889 153.661 18.6223C154.128 17.9556 154.361 16.9956 154.361 15.7423V10.1623H156.121ZM160.424 6.14226C160.691 6.14226 160.924 6.2356 161.124 6.42226C161.338 6.5956 161.444 6.8756 161.444 7.26226C161.444 7.6356 161.338 7.9156 161.124 8.10226C160.924 8.28893 160.691 8.38226 160.424 8.38226C160.131 8.38226 159.884 8.28893 159.684 8.10226C159.484 7.9156 159.384 7.6356 159.384 7.26226C159.384 6.8756 159.484 6.5956 159.684 6.42226C159.884 6.2356 160.131 6.14226 160.424 6.14226ZM161.284 10.1623V20.8823H159.524V10.1623H161.284ZM169.68 9.96226C169.88 9.96226 170.094 9.9756 170.32 10.0023C170.56 10.0156 170.767 10.0423 170.94 10.0823L170.72 11.7023C170.547 11.6623 170.354 11.6289 170.14 11.6023C169.94 11.5756 169.747 11.5623 169.56 11.5623C169.014 11.5623 168.5 11.7156 168.02 12.0223C167.54 12.3156 167.154 12.7356 166.86 13.2823C166.58 13.8156 166.44 14.4423 166.44 15.1623V20.8823H164.68V10.1623H166.12L166.32 12.1223H166.4C166.747 11.5356 167.194 11.0289 167.74 10.6023C168.287 10.1756 168.934 9.96226 169.68 9.96226ZM176.692 9.96226C177.612 9.96226 178.398 10.1623 179.052 10.5623C179.718 10.9623 180.225 11.5289 180.572 12.2623C180.932 12.9823 181.112 13.8289 181.112 14.8023V15.8623H173.772C173.798 17.0756 174.105 18.0023 174.692 18.6423C175.292 19.2689 176.125 19.5823 177.192 19.5823C177.872 19.5823 178.472 19.5223 178.992 19.4023C179.525 19.2689 180.072 19.0823 180.632 18.8423V20.3823C180.085 20.6223 179.545 20.7956 179.012 20.9023C178.478 21.0223 177.845 21.0823 177.112 21.0823C176.098 21.0823 175.198 20.8756 174.412 20.4623C173.638 20.0489 173.032 19.4356 172.592 18.6223C172.165 17.7956 171.952 16.7889 171.952 15.6023C171.952 14.4289 172.145 13.4223 172.532 12.5823C172.932 11.7423 173.485 11.0956 174.192 10.6423C174.912 10.1889 175.745 9.96226 176.692 9.96226ZM176.672 11.4023C175.832 11.4023 175.165 11.6756 174.672 12.2223C174.192 12.7556 173.905 13.5023 173.812 14.4623H179.272C179.258 13.5556 179.045 12.8223 178.632 12.2623C178.218 11.6889 177.565 11.4023 176.672 11.4023ZM187.641 21.0823C186.307 21.0823 185.241 20.6223 184.441 19.7023C183.641 18.7689 183.241 17.3823 183.241 15.5423C183.241 13.7023 183.641 12.3156 184.441 11.3823C185.254 10.4356 186.327 9.96226 187.661 9.96226C188.487 9.96226 189.161 10.1156 189.681 10.4223C190.214 10.7289 190.647 11.1023 190.981 11.5423H191.101C191.087 11.3689 191.061 11.1156 191.021 10.7823C190.994 10.4356 190.981 10.1623 190.981 9.96226V5.68226H192.741V20.8823H191.321L191.061 19.4423H190.981C190.661 19.8956 190.234 20.2823 189.701 20.6023C189.167 20.9223 188.481 21.0823 187.641 21.0823ZM187.921 19.6223C189.054 19.6223 189.847 19.3156 190.301 18.7023C190.767 18.0756 191.001 17.1356 191.001 15.8823V15.5623C191.001 14.2289 190.781 13.2089 190.341 12.5023C189.901 11.7823 189.087 11.4223 187.901 11.4223C186.954 11.4223 186.241 11.8023 185.761 12.5623C185.294 13.3089 185.061 14.3156 185.061 15.5823C185.061 16.8623 185.294 17.8556 185.761 18.5623C186.241 19.2689 186.961 19.6223 187.921 19.6223ZM199.645 15.4023C199.645 17.0156 199.405 18.5689 198.925 20.0623C198.459 21.5423 197.719 22.8689 196.705 24.0423H195.065C195.985 22.7889 196.679 21.4223 197.145 19.9423C197.625 18.4489 197.865 16.9289 197.865 15.3823C197.865 13.7956 197.625 12.2489 197.145 10.7423C196.679 9.2356 195.979 7.8556 195.045 6.60226H196.705C197.719 7.8156 198.459 9.18226 198.925 10.7023C199.405 12.2089 199.645 13.7756 199.645 15.4023Z" fill="#333333"/>
</g>
<path d="M60.86 50.8823H59.06V44.2223H51.74V50.8823H49.94V36.6023H51.74V42.6423H59.06V36.6023H60.86V50.8823ZM65.4242 36.1423C65.6909 36.1423 65.9242 36.2356 66.1242 36.4223C66.3376 36.5956 66.4442 36.8756 66.4442 37.2623C66.4442 37.6356 66.3376 37.9156 66.1242 38.1023C65.9242 38.2889 65.6909 38.3823 65.4242 38.3823C65.1309 38.3823 64.8842 38.2889 64.6842 38.1023C64.4842 37.9156 64.3842 37.6356 64.3842 37.2623C64.3842 36.8756 64.4842 36.5956 64.6842 36.4223C64.8842 36.2356 65.1309 36.1423 65.4242 36.1423ZM66.2842 40.1623V50.8823H64.5242V40.1623H66.2842ZM74.8405 39.9623C76.1205 39.9623 77.0871 40.2756 77.7405 40.9023C78.3938 41.5156 78.7205 42.5156 78.7205 43.9023V50.8823H76.9805V44.0223C76.9805 42.3023 76.1805 41.4423 74.5805 41.4423C73.3938 41.4423 72.5738 41.7756 72.1205 42.4423C71.6671 43.1089 71.4405 44.0689 71.4405 45.3223V50.8823H69.6805V40.1623H71.1005L71.3605 41.6223H71.4605C71.8071 41.0623 72.2871 40.6489 72.9005 40.3823C73.5138 40.1023 74.1605 39.9623 74.8405 39.9623ZM85.6237 49.6423C85.8904 49.6423 86.1638 49.6223 86.4438 49.5823C86.7238 49.5289 86.9504 49.4756 87.1238 49.4223V50.7623C86.9371 50.8556 86.6704 50.9289 86.3238 50.9823C85.9771 51.0489 85.6438 51.0823 85.3238 51.0823C84.7638 51.0823 84.2438 50.9889 83.7638 50.8023C83.2971 50.6023 82.9171 50.2623 82.6238 49.7823C82.3304 49.3023 82.1838 48.6289 82.1838 47.7623V41.5223H80.6638V40.6823L82.2038 39.9823L82.9038 37.7023H83.9438V40.1623H87.0438V41.5223H83.9438V47.7223C83.9438 48.3756 84.0971 48.8623 84.4038 49.1823C84.7238 49.4889 85.1304 49.6423 85.6237 49.6423ZM100.006 36.6023L94.6856 50.8823H92.9656L98.2856 36.6023H100.006ZM115.322 50.8823H107.342V36.6023H115.322V38.1823H109.142V42.6423H114.962V44.2023H109.142V49.3023H115.322V50.8823ZM120.756 45.4023L117.056 40.1623H119.056L121.816 44.2023L124.556 40.1623H126.536L122.836 45.4023L126.736 50.8823H124.736L121.816 46.6023L118.856 50.8823H116.876L120.756 45.4023ZM132.862 39.9823C134.168 39.9823 135.135 40.2689 135.762 40.8423C136.388 41.4156 136.702 42.3289 136.702 43.5823V50.8823H135.422L135.082 49.3623H135.002C134.535 49.9489 134.042 50.3823 133.522 50.6623C133.015 50.9423 132.308 51.0823 131.402 51.0823C130.428 51.0823 129.622 50.8289 128.982 50.3223C128.342 49.8023 128.022 48.9956 128.022 47.9023C128.022 46.8356 128.442 46.0156 129.282 45.4423C130.122 44.8556 131.415 44.5356 133.162 44.4823L134.982 44.4223V43.7823C134.982 42.8889 134.788 42.2689 134.402 41.9223C134.015 41.5756 133.468 41.4023 132.762 41.4023C132.202 41.4023 131.668 41.4889 131.162 41.6623C130.655 41.8223 130.182 42.0089 129.742 42.2223L129.202 40.9023C129.668 40.6489 130.222 40.4356 130.862 40.2623C131.502 40.0756 132.168 39.9823 132.862 39.9823ZM133.382 45.7023C132.048 45.7556 131.122 45.9689 130.602 46.3423C130.095 46.7156 129.842 47.2423 129.842 47.9223C129.842 48.5223 130.022 48.9623 130.382 49.2423C130.755 49.5223 131.228 49.6623 131.802 49.6623C132.708 49.6623 133.462 49.4156 134.062 48.9223C134.662 48.4156 134.962 47.6423 134.962 46.6023V45.6423L133.382 45.7023ZM151.773 39.9623C152.986 39.9623 153.893 40.2756 154.493 40.9023C155.093 41.5156 155.393 42.5156 155.393 43.9023V50.8823H153.653V43.9823C153.653 42.2889 152.926 41.4423 151.473 41.4423C150.433 41.4423 149.686 41.7423 149.233 42.3423C148.793 42.9423 148.573 43.8156 148.573 44.9623V50.8823H146.833V43.9823C146.833 42.2889 146.099 41.4423 144.633 41.4423C143.553 41.4423 142.806 41.7756 142.393 42.4423C141.979 43.1089 141.773 44.0689 141.773 45.3223V50.8823H140.013V40.1623H141.433L141.693 41.6223H141.793C142.126 41.0623 142.573 40.6489 143.133 40.3823C143.706 40.1023 144.313 39.9623 144.953 39.9623C146.633 39.9623 147.726 40.5623 148.233 41.7623H148.333C148.693 41.1489 149.179 40.6956 149.793 40.4023C150.419 40.1089 151.079 39.9623 151.773 39.9623ZM163.804 39.9623C165.124 39.9623 166.184 40.4223 166.984 41.3423C167.797 42.2623 168.204 43.6489 168.204 45.5023C168.204 47.3289 167.797 48.7156 166.984 49.6623C166.184 50.6089 165.117 51.0823 163.784 51.0823C162.957 51.0823 162.271 50.9289 161.724 50.6223C161.191 50.3023 160.771 49.9356 160.464 49.5223H160.344C160.371 49.7489 160.397 50.0356 160.424 50.3823C160.451 50.7289 160.464 51.0289 160.464 51.2823V55.6823H158.704V40.1623H160.144L160.384 41.6223H160.464C160.784 41.1556 161.204 40.7623 161.724 40.4423C162.244 40.1223 162.937 39.9623 163.804 39.9623ZM163.484 41.4423C162.391 41.4423 161.617 41.7489 161.164 42.3623C160.724 42.9756 160.491 43.9089 160.464 45.1623V45.5023C160.464 46.8223 160.677 47.8423 161.104 48.5623C161.544 49.2689 162.351 49.6223 163.524 49.6223C164.177 49.6223 164.711 49.4423 165.124 49.0823C165.551 48.7223 165.864 48.2356 166.064 47.6223C166.277 46.9956 166.384 46.2823 166.384 45.4823C166.384 44.2556 166.144 43.2756 165.664 42.5423C165.197 41.8089 164.471 41.4423 163.484 41.4423ZM172.769 50.8823H171.009V35.6823H172.769V50.8823ZM180.305 39.9623C181.225 39.9623 182.012 40.1623 182.665 40.5623C183.332 40.9623 183.838 41.5289 184.185 42.2623C184.545 42.9823 184.725 43.8289 184.725 44.8023V45.8623H177.385C177.412 47.0756 177.718 48.0023 178.305 48.6423C178.905 49.2689 179.738 49.5823 180.805 49.5823C181.485 49.5823 182.085 49.5223 182.605 49.4023C183.138 49.2689 183.685 49.0823 184.245 48.8423V50.3823C183.698 50.6223 183.158 50.7956 182.625 50.9023C182.092 51.0223 181.458 51.0823 180.725 51.0823C179.712 51.0823 178.812 50.8756 178.025 50.4623C177.252 50.0489 176.645 49.4356 176.205 48.6223C175.778 47.7956 175.565 46.7889 175.565 45.6023C175.565 44.4289 175.758 43.4223 176.145 42.5823C176.545 41.7423 177.098 41.0956 177.805 40.6423C178.525 40.1889 179.358 39.9623 180.305 39.9623ZM180.285 41.4023C179.445 41.4023 178.778 41.6756 178.285 42.2223C177.805 42.7556 177.518 43.5023 177.425 44.4623H182.885C182.872 43.5556 182.658 42.8223 182.245 42.2623C181.832 41.6889 181.178 41.4023 180.285 41.4023ZM204.409 39.9623C205.623 39.9623 206.529 40.2756 207.129 40.9023C207.729 41.5156 208.029 42.5156 208.029 43.9023V50.8823H206.289V43.9823C206.289 42.2889 205.563 41.4423 204.109 41.4423C203.069 41.4423 202.323 41.7423 201.869 42.3423C201.429 42.9423 201.209 43.8156 201.209 44.9623V50.8823H199.469V43.9823C199.469 42.2889 198.736 41.4423 197.269 41.4423C196.189 41.4423 195.443 41.7756 195.029 42.4423C194.616 43.1089 194.409 44.0689 194.409 45.3223V50.8823H192.649V40.1623H194.069L194.329 41.6223H194.429C194.763 41.0623 195.209 40.6489 195.769 40.3823C196.343 40.1023 196.949 39.9623 197.589 39.9623C199.269 39.9623 200.363 40.5623 200.869 41.7623H200.969C201.329 41.1489 201.816 40.6956 202.429 40.4023C203.056 40.1089 203.716 39.9623 204.409 39.9623ZM215.481 39.9623C216.401 39.9623 217.187 40.1623 217.841 40.5623C218.507 40.9623 219.014 41.5289 219.361 42.2623C219.721 42.9823 219.901 43.8289 219.901 44.8023V45.8623H212.561C212.587 47.0756 212.894 48.0023 213.481 48.6423C214.081 49.2689 214.914 49.5823 215.981 49.5823C216.661 49.5823 217.261 49.5223 217.781 49.4023C218.314 49.2689 218.861 49.0823 219.421 48.8423V50.3823C218.874 50.6223 218.334 50.7956 217.801 50.9023C217.267 51.0223 216.634 51.0823 215.901 51.0823C214.887 51.0823 213.987 50.8756 213.201 50.4623C212.427 50.0489 211.821 49.4356 211.381 48.6223C210.954 47.7956 210.741 46.7889 210.741 45.6023C210.741 44.4289 210.934 43.4223 211.321 42.5823C211.721 41.7423 212.274 41.0956 212.981 40.6423C213.701 40.1889 214.534 39.9623 215.481 39.9623ZM215.461 41.4023C214.621 41.4023 213.954 41.6756 213.461 42.2223C212.981 42.7556 212.694 43.5023 212.601 44.4623H218.061C218.047 43.5556 217.834 42.8223 217.421 42.2623C217.007 41.6889 216.354 41.4023 215.461 41.4023ZM229.61 47.9223C229.61 48.9623 229.223 49.7489 228.45 50.2823C227.676 50.8156 226.636 51.0823 225.33 51.0823C224.583 51.0823 223.936 51.0223 223.39 50.9023C222.856 50.7823 222.383 50.6156 221.97 50.4023V48.8023C222.396 49.0156 222.91 49.2156 223.51 49.4023C224.123 49.5756 224.743 49.6623 225.37 49.6623C226.263 49.6623 226.91 49.5223 227.31 49.2423C227.71 48.9489 227.91 48.5623 227.91 48.0823C227.91 47.8156 227.836 47.5756 227.69 47.3623C227.543 47.1489 227.276 46.9356 226.89 46.7223C226.516 46.5089 225.976 46.2689 225.27 46.0023C224.576 45.7356 223.983 45.4689 223.49 45.2023C222.996 44.9356 222.616 44.6156 222.35 44.2423C222.083 43.8689 221.95 43.3889 221.95 42.8023C221.95 41.8956 222.316 41.1956 223.05 40.7023C223.796 40.2089 224.77 39.9623 225.97 39.9623C226.623 39.9623 227.23 40.0289 227.79 40.1623C228.363 40.2823 228.896 40.4556 229.39 40.6823L228.79 42.0823C228.336 41.8956 227.863 41.7356 227.37 41.6023C226.876 41.4689 226.37 41.4023 225.85 41.4023C225.13 41.4023 224.576 41.5223 224.19 41.7623C223.816 41.9889 223.63 42.3023 223.63 42.7023C223.63 42.9956 223.716 43.2489 223.89 43.4623C224.063 43.6623 224.35 43.8623 224.75 44.0623C225.163 44.2489 225.71 44.4756 226.39 44.7423C227.07 44.9956 227.65 45.2556 228.13 45.5223C228.61 45.7889 228.976 46.1156 229.23 46.5023C229.483 46.8756 229.61 47.3489 229.61 47.9223ZM239.18 47.9223C239.18 48.9623 238.793 49.7489 238.02 50.2823C237.247 50.8156 236.207 51.0823 234.9 51.0823C234.153 51.0823 233.507 51.0223 232.96 50.9023C232.427 50.7823 231.953 50.6156 231.54 50.4023V48.8023C231.967 49.0156 232.48 49.2156 233.08 49.4023C233.693 49.5756 234.313 49.6623 234.94 49.6623C235.833 49.6623 236.48 49.5223 236.88 49.2423C237.28 48.9489 237.48 48.5623 237.48 48.0823C237.48 47.8156 237.407 47.5756 237.26 47.3623C237.113 47.1489 236.847 46.9356 236.46 46.7223C236.087 46.5089 235.547 46.2689 234.84 46.0023C234.147 45.7356 233.553 45.4689 233.06 45.2023C232.567 44.9356 232.187 44.6156 231.92 44.2423C231.653 43.8689 231.52 43.3889 231.52 42.8023C231.52 41.8956 231.887 41.1956 232.62 40.7023C233.367 40.2089 234.34 39.9623 235.54 39.9623C236.193 39.9623 236.8 40.0289 237.36 40.1623C237.933 40.2823 238.467 40.4556 238.96 40.6823L238.36 42.0823C237.907 41.8956 237.433 41.7356 236.94 41.6023C236.447 41.4689 235.94 41.4023 235.42 41.4023C234.7 41.4023 234.147 41.5223 233.76 41.7623C233.387 41.9889 233.2 42.3023 233.2 42.7023C233.2 42.9956 233.287 43.2489 233.46 43.4623C233.633 43.6623 233.92 43.8623 234.32 44.0623C234.733 44.2489 235.28 44.4756 235.96 44.7423C236.64 44.9956 237.22 45.2556 237.7 45.5223C238.18 45.7889 238.547 46.1156 238.8 46.5023C239.053 46.8756 239.18 47.3489 239.18 47.9223ZM245.83 39.9823C247.137 39.9823 248.104 40.2689 248.73 40.8423C249.357 41.4156 249.67 42.3289 249.67 43.5823V50.8823H248.39L248.05 49.3623H247.97C247.504 49.9489 247.01 50.3823 246.49 50.6623C245.984 50.9423 245.277 51.0823 244.37 51.0823C243.397 51.0823 242.59 50.8289 241.95 50.3223C241.31 49.8023 240.99 48.9956 240.99 47.9023C240.99 46.8356 241.41 46.0156 242.25 45.4423C243.09 44.8556 244.384 44.5356 246.13 44.4823L247.95 44.4223V43.7823C247.95 42.8889 247.757 42.2689 247.37 41.9223C246.984 41.5756 246.437 41.4023 245.73 41.4023C245.17 41.4023 244.637 41.4889 244.13 41.6623C243.624 41.8223 243.15 42.0089 242.71 42.2223L242.17 40.9023C242.637 40.6489 243.19 40.4356 243.83 40.2623C244.47 40.0756 245.137 39.9823 245.83 39.9823ZM246.35 45.7023C245.017 45.7556 244.09 45.9689 243.57 46.3423C243.064 46.7156 242.81 47.2423 242.81 47.9223C242.81 48.5223 242.99 48.9623 243.35 49.2423C243.724 49.5223 244.197 49.6623 244.77 49.6623C245.677 49.6623 246.43 49.4156 247.03 48.9223C247.63 48.4156 247.93 47.6423 247.93 46.6023V45.6423L246.35 45.7023ZM256.781 39.9623C257.488 39.9623 258.121 40.0956 258.681 40.3623C259.255 40.6289 259.741 41.0356 260.141 41.5823H260.241L260.481 40.1623H261.881V51.0623C261.881 52.5956 261.488 53.7489 260.701 54.5223C259.928 55.2956 258.721 55.6823 257.081 55.6823C255.508 55.6823 254.221 55.4556 253.221 55.0023V53.3823C254.275 53.9423 255.595 54.2223 257.181 54.2223C258.101 54.2223 258.821 53.9489 259.341 53.4023C259.875 52.8689 260.141 52.1356 260.141 51.2023V50.7823C260.141 50.6223 260.148 50.3956 260.161 50.1023C260.175 49.7956 260.188 49.5823 260.201 49.4623H260.121C259.401 50.5423 258.295 51.0823 256.801 51.0823C255.415 51.0823 254.328 50.5956 253.541 49.6223C252.768 48.6489 252.381 47.2889 252.381 45.5423C252.381 43.8356 252.768 42.4823 253.541 41.4823C254.328 40.4689 255.408 39.9623 256.781 39.9623ZM257.021 41.4423C256.128 41.4423 255.435 41.8023 254.941 42.5223C254.448 43.2289 254.201 44.2423 254.201 45.5623C254.201 46.8823 254.441 47.8956 254.921 48.6023C255.415 49.2956 256.128 49.6423 257.061 49.6423C258.141 49.6423 258.928 49.3556 259.421 48.7823C259.915 48.1956 260.161 47.2556 260.161 45.9623V45.5423C260.161 44.0756 259.908 43.0289 259.401 42.4023C258.895 41.7623 258.101 41.4423 257.021 41.4423ZM269.426 39.9623C270.346 39.9623 271.133 40.1623 271.786 40.5623C272.453 40.9623 272.959 41.5289 273.306 42.2623C273.666 42.9823 273.846 43.8289 273.846 44.8023V45.8623H266.506C266.533 47.0756 266.839 48.0023 267.426 48.6423C268.026 49.2689 268.859 49.5823 269.926 49.5823C270.606 49.5823 271.206 49.5223 271.726 49.4023C272.259 49.2689 272.806 49.0823 273.366 48.8423V50.3823C272.819 50.6223 272.279 50.7956 271.746 50.9023C271.213 51.0223 270.579 51.0823 269.846 51.0823C268.833 51.0823 267.933 50.8756 267.146 50.4623C266.373 50.0489 265.766 49.4356 265.326 48.6223C264.899 47.7956 264.686 46.7889 264.686 45.6023C264.686 44.4289 264.879 43.4223 265.266 42.5823C265.666 41.7423 266.219 41.0956 266.926 40.6423C267.646 40.1889 268.479 39.9623 269.426 39.9623ZM269.406 41.4023C268.566 41.4023 267.899 41.6756 267.406 42.2223C266.926 42.7556 266.639 43.5023 266.546 44.4623H272.006C271.993 43.5556 271.779 42.8223 271.366 42.2623C270.953 41.6889 270.299 41.4023 269.406 41.4023ZM276.315 49.8023C276.315 49.3089 276.435 48.9623 276.675 48.7623C276.915 48.5623 277.202 48.4623 277.535 48.4623C277.882 48.4623 278.175 48.5623 278.415 48.7623C278.668 48.9623 278.795 49.3089 278.795 49.8023C278.795 50.2823 278.668 50.6289 278.415 50.8423C278.175 51.0556 277.882 51.1623 277.535 51.1623C277.202 51.1623 276.915 51.0556 276.675 50.8423C276.435 50.6289 276.315 50.2823 276.315 49.8023Z" fill="#43474E"/>
<rect x="49" y="67.8823" width="457" height="143" rx="2" fill="white"/>
<rect x="49" y="67.8823" width="457" height="143" rx="2" stroke="#333333" stroke-width="2"/>
<g clip-path="url(#clip1_6137_43938)">
<rect y="41.8823" width="44" height="1" fill="#C54600"/>
<g clip-path="url(#clip2_6137_43938)">
<rect y="29.8823" width="24" height="24" rx="12" fill="#C54600"/>
<path d="M8.4161 46.8823V45.3311L12.0404 41.9753C12.3486 41.677 12.6072 41.4085 12.816 41.1699C13.0281 40.9313 13.1888 40.6976 13.2982 40.4689C13.4076 40.2369 13.4623 39.9867 13.4623 39.7182C13.4623 39.4199 13.3943 39.163 13.2584 38.9476C13.1225 38.7289 12.9369 38.5615 12.7016 38.4455C12.4663 38.3262 12.1995 38.2665 11.9012 38.2665C11.5896 38.2665 11.3179 38.3295 11.0858 38.4554C10.8538 38.5814 10.6749 38.762 10.5489 38.9973C10.423 39.2326 10.36 39.5127 10.36 39.8375H8.31667C8.31667 39.1713 8.46748 38.593 8.76909 38.1024C9.0707 37.6119 9.49328 37.2324 10.0368 36.9639C10.5804 36.6955 11.2068 36.5612 11.9161 36.5612C12.6453 36.5612 13.28 36.6905 13.8202 36.949C14.3638 37.2042 14.7864 37.5589 15.088 38.0129C15.3896 38.467 15.5404 38.9874 15.5404 39.574C15.5404 39.9585 15.4642 40.338 15.3117 40.7125C15.1626 41.087 14.8957 41.503 14.5113 41.9604C14.1268 42.4145 13.5849 42.9597 12.8856 43.596L11.3991 45.0527V45.1223H15.6746V46.8823H8.4161Z" fill="white"/>
</g>
</g>
<g clip-path="url(#clip3_6137_43938)">
<rect y="12.8823" width="44" height="1" fill="#C54600"/>
<g clip-path="url(#clip4_6137_43938)">
<rect y="0.882263" width="24" height="24" rx="12" fill="#C54600"/>
<path d="M13.8302 7.70044V17.8823H11.6775V9.74377H11.6178L9.28613 11.2054V9.29633L11.8067 7.70044H13.8302Z" fill="white"/>
</g>
</g>
<g clip-path="url(#clip5_6137_43938)">
<rect y="110.382" width="48" height="1" fill="#C54600"/>
<g clip-path="url(#clip6_6137_43938)">
<rect y="98.3823" width="24" height="24" rx="12" fill="#C54600"/>
<path d="M11.9745 115.521C11.2321 115.521 10.5709 115.394 9.99086 115.139C9.41415 114.88 8.95842 114.525 8.62367 114.075C8.29223 113.621 8.12154 113.097 8.11159 112.504H10.2792C10.2925 112.752 10.3737 112.971 10.5228 113.16C10.6753 113.346 10.8775 113.49 11.1294 113.592C11.3812 113.695 11.6646 113.747 11.9795 113.747C12.3076 113.747 12.5976 113.689 12.8495 113.573C13.1014 113.457 13.2986 113.296 13.4411 113.09C13.5837 112.885 13.6549 112.648 13.6549 112.379C13.6549 112.108 13.5787 111.867 13.4262 111.659C13.2771 111.446 13.0616 111.281 12.7799 111.161C12.5015 111.042 12.1701 110.982 11.7856 110.982H10.836V109.401H11.7856C12.1104 109.401 12.3971 109.345 12.6457 109.232C12.8976 109.12 13.0931 108.964 13.2323 108.765C13.3715 108.563 13.4411 108.328 13.4411 108.059C13.4411 107.804 13.3798 107.58 13.2572 107.388C13.1379 107.192 12.9688 107.04 12.7501 106.931C12.5347 106.821 12.2828 106.766 11.9944 106.766C11.7027 106.766 11.4359 106.82 11.194 106.926C10.952 107.028 10.7581 107.176 10.6123 107.368C10.4665 107.56 10.3886 107.786 10.3786 108.044H8.31543C8.32537 107.458 8.49275 106.941 8.81756 106.493C9.14237 106.046 9.57987 105.696 10.1301 105.444C10.6836 105.189 11.3083 105.061 12.0044 105.061C12.707 105.061 13.3218 105.189 13.8488 105.444C14.3758 105.699 14.7851 106.044 15.0768 106.478C15.3718 106.909 15.5176 107.393 15.5143 107.93C15.5176 108.5 15.3403 108.976 14.9823 109.357C14.6277 109.738 14.1653 109.98 13.5953 110.083V110.162C14.3443 110.258 14.9144 110.518 15.3055 110.943C15.6999 111.364 15.8954 111.891 15.8921 112.524C15.8954 113.104 15.7281 113.619 15.39 114.07C15.0553 114.521 14.5929 114.875 14.0029 115.134C13.413 115.392 12.7368 115.521 11.9745 115.521Z" fill="white"/>
</g>
</g>
<defs>
<clipPath id="clip0_6137_43938">
<rect width="459" height="24" fill="white" transform="translate(48 0.882263)"/>
</clipPath>
<clipPath id="clip1_6137_43938">
<rect width="44" height="24" fill="white" transform="translate(0 29.8823)"/>
</clipPath>
<clipPath id="clip2_6137_43938">
<rect y="29.8823" width="24" height="24" rx="12" fill="white"/>
</clipPath>
<clipPath id="clip3_6137_43938">
<rect width="44" height="24" fill="white" transform="translate(0 0.882263)"/>
</clipPath>
<clipPath id="clip4_6137_43938">
<rect y="0.882263" width="24" height="24" rx="12" fill="white"/>
</clipPath>
<clipPath id="clip5_6137_43938">
<rect width="48" height="24" fill="white" transform="translate(0 98.3823)"/>
</clipPath>
<clipPath id="clip6_6137_43938">
<rect y="98.3823" width="24" height="24" rx="12" fill="white"/>
</clipPath>
</defs>
</svg>
