<svg width="454" height="692" viewBox="0 0 454 692" fill="none" xmlns="http://www.w3.org/2000/svg">
<path d="M77.7575 38.1903V41H67.0377V22.6991H70.4422V38.1903H77.7575ZM86.5544 35.4566C85.6516 35.4987 84.8922 35.5789 84.2763 35.697C83.6603 35.8067 83.1667 35.9502 82.7955 36.1273C82.4242 36.3045 82.1584 36.5112 81.9981 36.7475C81.8378 36.9837 81.7577 37.2411 81.7577 37.5195C81.7577 38.068 81.918 38.4603 82.2386 38.6966C82.5677 38.9328 82.9938 39.0509 83.5169 39.0509C84.1581 39.0509 84.7108 38.937 85.1749 38.7092C85.6474 38.473 86.1072 38.1186 86.5544 37.6461V35.4566ZM79.3909 29.8245C80.8844 28.4577 82.6816 27.7742 84.7825 27.7742C85.5419 27.7742 86.2211 27.9008 86.8202 28.1539C87.4192 28.3986 87.9255 28.7445 88.3389 29.1917C88.7524 29.6305 89.0645 30.1578 89.2755 30.7737C89.4949 31.3897 89.6045 32.0647 89.6045 32.7987V41H88.187C87.8917 41 87.6639 40.9578 87.5036 40.8734C87.3433 40.7806 87.2167 40.5992 87.1239 40.3292L86.8455 39.3927C86.5164 39.688 86.1958 39.9495 85.8836 40.1773C85.5714 40.3967 85.2466 40.5823 84.9091 40.7342C84.5716 40.8861 84.2088 41 83.8206 41.0759C83.4409 41.1603 83.0191 41.2025 82.555 41.2025C82.0066 41.2025 81.5003 41.1308 81.0363 40.9873C80.5722 40.8355 80.1714 40.6119 79.8339 40.3166C79.4964 40.0212 79.2349 39.6542 79.0492 39.2155C78.8636 38.7767 78.7708 38.2662 78.7708 37.6841C78.7708 37.355 78.8256 37.0302 78.9353 36.7095C79.045 36.3805 79.2222 36.0683 79.4669 35.773C79.72 35.4777 80.0449 35.1992 80.4414 34.9377C80.838 34.6761 81.3231 34.4483 81.8969 34.2542C82.4791 34.0602 83.1541 33.9041 83.9219 33.7859C84.6897 33.6594 85.5672 33.5834 86.5544 33.5581V32.7987C86.5544 31.9297 86.3688 31.2884 85.9975 30.875C85.6263 30.4531 85.0905 30.2422 84.3902 30.2422C83.8839 30.2422 83.462 30.3012 83.1245 30.4194C82.7955 30.5375 82.5044 30.6725 82.2513 30.8244C81.9981 30.9678 81.7661 31.0986 81.5552 31.2167C81.3527 31.3348 81.1249 31.3939 80.8717 31.3939C80.6524 31.3939 80.4667 31.3391 80.3149 31.2294C80.163 31.1112 80.0406 30.9762 79.9478 30.8244L79.3909 29.8245ZM95.6748 37.6334C96.0292 38.0637 96.4131 38.3675 96.8265 38.5447C97.2484 38.7219 97.6914 38.8105 98.1554 38.8105C98.6364 38.8105 99.0667 38.7261 99.4464 38.5573C99.8345 38.3802 100.164 38.1102 100.434 37.7473C100.704 37.3761 100.91 36.9078 101.054 36.3425C101.197 35.7687 101.269 35.0853 101.269 34.2922C101.269 32.8662 101.033 31.8369 100.56 31.2041C100.088 30.5628 99.4084 30.2422 98.5225 30.2422C97.9234 30.2422 97.4003 30.3814 96.9531 30.6598C96.5059 30.9298 96.0798 31.3137 95.6748 31.8116V37.6334ZM95.6748 29.6094C96.1979 29.0609 96.7759 28.6264 97.4087 28.3058C98.05 27.9767 98.7798 27.8122 99.5982 27.8122C100.349 27.8122 101.024 27.9598 101.623 28.2552C102.231 28.5505 102.745 28.9766 103.167 29.5334C103.598 30.0819 103.927 30.7484 104.154 31.5331C104.382 32.3178 104.496 33.1995 104.496 34.1783C104.496 35.233 104.365 36.1906 104.104 37.0512C103.842 37.9119 103.467 38.6502 102.977 39.2661C102.497 39.8736 101.914 40.3461 101.231 40.6836C100.547 41.0211 99.7881 41.1898 98.9528 41.1898C98.5478 41.1898 98.1807 41.1477 97.8517 41.0633C97.5226 40.9873 97.2189 40.8777 96.9404 40.7342C96.662 40.5908 96.4046 40.4178 96.1684 40.2153C95.9406 40.0044 95.7212 39.7723 95.5103 39.5192L95.371 40.3925C95.3204 40.6119 95.2318 40.768 95.1053 40.8608C94.9871 40.9536 94.8226 41 94.6117 41H92.5487V22.1928H95.6748V29.6094ZM115.276 33.0139C115.276 32.6089 115.217 32.2292 115.099 31.8748C114.989 31.512 114.821 31.1956 114.593 30.9256C114.365 30.6556 114.074 30.4447 113.72 30.2928C113.374 30.1325 112.969 30.0523 112.505 30.0523C111.602 30.0523 110.889 30.3097 110.366 30.8244C109.851 31.3391 109.522 32.0689 109.379 33.0139H115.276ZM109.315 34.8997C109.366 35.5662 109.484 36.1442 109.67 36.6336C109.855 37.1145 110.1 37.5153 110.404 37.8359C110.707 38.1481 111.066 38.3844 111.479 38.5447C111.901 38.6966 112.365 38.7725 112.872 38.7725C113.378 38.7725 113.812 38.7134 114.175 38.5953C114.547 38.4772 114.867 38.3464 115.137 38.203C115.416 38.0595 115.656 37.9287 115.859 37.8106C116.069 37.6925 116.272 37.6334 116.466 37.6334C116.728 37.6334 116.922 37.7305 117.048 37.9245L117.947 39.0636C117.601 39.4686 117.213 39.8103 116.782 40.0887C116.352 40.3587 115.901 40.5781 115.428 40.7469C114.964 40.9072 114.487 41.0211 113.998 41.0886C113.517 41.1561 113.049 41.1898 112.593 41.1898C111.69 41.1898 110.851 41.0422 110.075 40.7469C109.298 40.4431 108.623 40.0002 108.05 39.418C107.476 38.8273 107.024 38.1017 106.695 37.2411C106.366 36.372 106.202 35.368 106.202 34.2289C106.202 33.343 106.345 32.5119 106.632 31.7356C106.919 30.9509 107.328 30.2717 107.86 29.698C108.4 29.1158 109.054 28.6559 109.822 28.3184C110.598 27.9809 111.471 27.8122 112.441 27.8122C113.26 27.8122 114.015 27.943 114.707 28.2045C115.399 28.4661 115.994 28.85 116.491 29.3562C116.989 29.8541 117.377 30.47 117.656 31.2041C117.943 31.9297 118.086 32.7608 118.086 33.6973C118.086 34.1698 118.035 34.4905 117.934 34.6592C117.833 34.8195 117.639 34.8997 117.352 34.8997H109.315ZM123.596 22.1928V41H120.47V22.1928H123.596Z" fill="black"/>
<path d="M111.26 106H109.16L101.52 94.14H101.44C101.467 94.6067 101.5 95.1867 101.54 95.88C101.58 96.5733 101.6 97.2867 101.6 98.02V106H99.94V91.72H102.02L109.64 103.54H109.72C109.707 103.327 109.687 103.007 109.66 102.58C109.647 102.153 109.627 101.687 109.6 101.18C109.587 100.673 109.58 100.207 109.58 99.78V91.72H111.26V106ZM118.955 95.1C120.262 95.1 121.229 95.3867 121.855 95.96C122.482 96.5333 122.795 97.4467 122.795 98.7V106H121.515L121.175 104.48H121.095C120.629 105.067 120.135 105.5 119.615 105.78C119.109 106.06 118.402 106.2 117.495 106.2C116.522 106.2 115.715 105.947 115.075 105.44C114.435 104.92 114.115 104.113 114.115 103.02C114.115 101.953 114.535 101.133 115.375 100.56C116.215 99.9733 117.509 99.6533 119.255 99.6L121.075 99.54V98.9C121.075 98.0067 120.882 97.3867 120.495 97.04C120.109 96.6933 119.562 96.52 118.855 96.52C118.295 96.52 117.762 96.6067 117.255 96.78C116.749 96.94 116.275 97.1267 115.835 97.34L115.295 96.02C115.762 95.7667 116.315 95.5533 116.955 95.38C117.595 95.1933 118.262 95.1 118.955 95.1ZM119.475 100.82C118.142 100.873 117.215 101.087 116.695 101.46C116.189 101.833 115.935 102.36 115.935 103.04C115.935 103.64 116.115 104.08 116.475 104.36C116.849 104.64 117.322 104.78 117.895 104.78C118.802 104.78 119.555 104.533 120.155 104.04C120.755 103.533 121.055 102.76 121.055 101.72V100.76L119.475 100.82ZM128.466 106L124.406 95.28H126.286L128.566 101.6C128.673 101.893 128.786 102.22 128.906 102.58C129.026 102.94 129.133 103.287 129.226 103.62C129.32 103.94 129.386 104.213 129.426 104.44H129.506C129.56 104.213 129.633 103.933 129.726 103.6C129.833 103.267 129.946 102.92 130.066 102.56C130.2 102.2 130.313 101.88 130.406 101.6L132.686 95.28H134.566L130.486 106H128.466ZM143.218 106H141.458V90.8H143.218V106ZM147.514 91.26C147.781 91.26 148.014 91.3533 148.214 91.54C148.427 91.7133 148.534 91.9933 148.534 92.38C148.534 92.7533 148.427 93.0333 148.214 93.22C148.014 93.4067 147.781 93.5 147.514 93.5C147.221 93.5 146.974 93.4067 146.774 93.22C146.574 93.0333 146.474 92.7533 146.474 92.38C146.474 91.9933 146.574 91.7133 146.774 91.54C146.974 91.3533 147.221 91.26 147.514 91.26ZM148.374 95.28V106H146.614V95.28H148.374ZM156.93 95.08C158.21 95.08 159.177 95.3933 159.83 96.02C160.484 96.6333 160.81 97.6333 160.81 99.02V106H159.07V99.14C159.07 97.42 158.27 96.56 156.67 96.56C155.484 96.56 154.664 96.8933 154.21 97.56C153.757 98.2267 153.53 99.1867 153.53 100.44V106H151.77V95.28H153.19L153.45 96.74H153.55C153.897 96.18 154.377 95.7667 154.99 95.5C155.604 95.22 156.25 95.08 156.93 95.08ZM165.874 98.74C165.874 98.9533 165.86 99.2333 165.834 99.58C165.82 99.9267 165.807 100.227 165.794 100.48H165.874C165.954 100.373 166.074 100.22 166.234 100.02C166.394 99.82 166.554 99.62 166.714 99.42C166.887 99.2067 167.034 99.0333 167.154 98.9L170.574 95.28H172.634L168.294 99.86L172.934 106H170.814L167.094 101L165.874 102.06V106H164.134V90.8H165.874V98.74Z" fill="#2B4380"/>
<path d="M98 108.5H173.114V109.5H98V108.5Z" fill="#2B4380"/>
<path d="M111.26 169H109.16L101.52 157.14H101.44C101.467 157.607 101.5 158.187 101.54 158.88C101.58 159.573 101.6 160.287 101.6 161.02V169H99.94V154.72H102.02L109.64 166.54H109.72C109.707 166.327 109.687 166.007 109.66 165.58C109.647 165.153 109.627 164.687 109.6 164.18C109.587 163.673 109.58 163.207 109.58 162.78V154.72H111.26V169ZM118.955 158.1C120.262 158.1 121.229 158.387 121.855 158.96C122.482 159.533 122.795 160.447 122.795 161.7V169H121.515L121.175 167.48H121.095C120.629 168.067 120.135 168.5 119.615 168.78C119.109 169.06 118.402 169.2 117.495 169.2C116.522 169.2 115.715 168.947 115.075 168.44C114.435 167.92 114.115 167.113 114.115 166.02C114.115 164.953 114.535 164.133 115.375 163.56C116.215 162.973 117.509 162.653 119.255 162.6L121.075 162.54V161.9C121.075 161.007 120.882 160.387 120.495 160.04C120.109 159.693 119.562 159.52 118.855 159.52C118.295 159.52 117.762 159.607 117.255 159.78C116.749 159.94 116.275 160.127 115.835 160.34L115.295 159.02C115.762 158.767 116.315 158.553 116.955 158.38C117.595 158.193 118.262 158.1 118.955 158.1ZM119.475 163.82C118.142 163.873 117.215 164.087 116.695 164.46C116.189 164.833 115.935 165.36 115.935 166.04C115.935 166.64 116.115 167.08 116.475 167.36C116.849 167.64 117.322 167.78 117.895 167.78C118.802 167.78 119.555 167.533 120.155 167.04C120.755 166.533 121.055 165.76 121.055 164.72V163.76L119.475 163.82ZM128.466 169L124.406 158.28H126.286L128.566 164.6C128.673 164.893 128.786 165.22 128.906 165.58C129.026 165.94 129.133 166.287 129.226 166.62C129.32 166.94 129.386 167.213 129.426 167.44H129.506C129.56 167.213 129.633 166.933 129.726 166.6C129.833 166.267 129.946 165.92 130.066 165.56C130.2 165.2 130.313 164.88 130.406 164.6L132.686 158.28H134.566L130.486 169H128.466ZM143.218 169H141.458V153.8H143.218V169ZM147.514 154.26C147.781 154.26 148.014 154.353 148.214 154.54C148.427 154.713 148.534 154.993 148.534 155.38C148.534 155.753 148.427 156.033 148.214 156.22C148.014 156.407 147.781 156.5 147.514 156.5C147.221 156.5 146.974 156.407 146.774 156.22C146.574 156.033 146.474 155.753 146.474 155.38C146.474 154.993 146.574 154.713 146.774 154.54C146.974 154.353 147.221 154.26 147.514 154.26ZM148.374 158.28V169H146.614V158.28H148.374ZM156.93 158.08C158.21 158.08 159.177 158.393 159.83 159.02C160.484 159.633 160.81 160.633 160.81 162.02V169H159.07V162.14C159.07 160.42 158.27 159.56 156.67 159.56C155.484 159.56 154.664 159.893 154.21 160.56C153.757 161.227 153.53 162.187 153.53 163.44V169H151.77V158.28H153.19L153.45 159.74H153.55C153.897 159.18 154.377 158.767 154.99 158.5C155.604 158.22 156.25 158.08 156.93 158.08ZM165.874 161.74C165.874 161.953 165.86 162.233 165.834 162.58C165.82 162.927 165.807 163.227 165.794 163.48H165.874C165.954 163.373 166.074 163.22 166.234 163.02C166.394 162.82 166.554 162.62 166.714 162.42C166.887 162.207 167.034 162.033 167.154 161.9L170.574 158.28H172.634L168.294 162.86L172.934 169H170.814L167.094 164L165.874 165.06V169H164.134V153.8H165.874V161.74Z" fill="#2B4380"/>
<path d="M98 171.5H173.114V172.5H98V171.5Z" fill="#2B4380"/>
<path d="M79.6667 227.667C79.3542 227.667 79.0764 227.562 78.8681 227.354L73 221.486L67.0972 227.354C66.6806 227.806 65.9514 227.806 65.5347 227.354C65.0833 226.937 65.0833 226.208 65.5347 225.792L72.2014 219.125C72.6181 218.674 73.3472 218.674 73.7639 219.125L80.4306 225.792C80.8819 226.208 80.8819 226.937 80.4306 227.354C80.2222 227.562 79.9444 227.667 79.6667 227.667Z" fill="#333333"/>
<path d="M113 232H109.82L103.06 220.8H102.98C102.993 221.093 103.007 221.407 103.02 221.74C103.047 222.06 103.067 222.393 103.08 222.74C103.093 223.073 103.107 223.413 103.12 223.76C103.133 224.107 103.147 224.453 103.16 224.8V232H100.86V217.72H104.02L110.76 228.84H110.82C110.807 228.573 110.793 228.287 110.78 227.98C110.767 227.66 110.753 227.333 110.74 227C110.74 226.667 110.733 226.327 110.72 225.98C110.707 225.633 110.693 225.3 110.68 224.98V217.72H113V232ZM120.799 220.96C122.199 220.96 123.259 221.267 123.979 221.88C124.713 222.48 125.079 223.427 125.079 224.72V232H123.299L122.799 230.5H122.719C122.413 230.887 122.093 231.213 121.759 231.48C121.439 231.733 121.066 231.913 120.639 232.02C120.226 232.14 119.719 232.2 119.119 232.2C118.479 232.2 117.899 232.08 117.379 231.84C116.873 231.6 116.473 231.233 116.179 230.74C115.886 230.233 115.739 229.6 115.739 228.84C115.739 227.72 116.146 226.88 116.959 226.32C117.786 225.747 119.033 225.433 120.699 225.38L122.579 225.32V224.78C122.579 224.087 122.413 223.593 122.079 223.3C121.746 223.007 121.279 222.86 120.679 222.86C120.133 222.86 119.606 222.94 119.099 223.1C118.593 223.26 118.099 223.447 117.619 223.66L116.819 221.9C117.353 221.62 117.959 221.393 118.639 221.22C119.333 221.047 120.053 220.96 120.799 220.96ZM121.259 226.92C120.153 226.96 119.386 227.153 118.959 227.5C118.533 227.833 118.319 228.287 118.319 228.86C118.319 229.367 118.473 229.733 118.779 229.96C119.086 230.187 119.479 230.3 119.959 230.3C120.693 230.3 121.313 230.093 121.819 229.68C122.326 229.253 122.579 228.627 122.579 227.8V226.88L121.259 226.92ZM130.737 232L126.617 221.16H129.277L131.437 227.42C131.531 227.673 131.617 227.953 131.697 228.26C131.777 228.553 131.844 228.847 131.897 229.14C131.964 229.42 132.004 229.667 132.017 229.88H132.097C132.124 229.653 132.171 229.4 132.237 229.12C132.304 228.827 132.377 228.533 132.457 228.24C132.551 227.947 132.637 227.673 132.717 227.42L134.877 221.16H137.537L133.417 232H130.737ZM147.99 220.96C148.67 220.96 149.284 221.093 149.83 221.36C150.377 221.627 150.837 222.027 151.21 222.56H151.31L151.55 221.16H153.65V232.08C153.65 233.107 153.457 233.967 153.07 234.66C152.684 235.367 152.104 235.9 151.33 236.26C150.557 236.62 149.59 236.8 148.43 236.8C147.657 236.8 146.944 236.747 146.29 236.64C145.637 236.547 145.017 236.38 144.43 236.14V234.06C144.844 234.233 145.27 234.38 145.71 234.5C146.164 234.633 146.63 234.733 147.11 234.8C147.59 234.867 148.084 234.9 148.59 234.9C149.417 234.9 150.044 234.667 150.47 234.2C150.91 233.733 151.13 233.067 151.13 232.2V231.92C151.13 231.72 151.137 231.487 151.15 231.22C151.177 230.953 151.197 230.74 151.21 230.58H151.13C150.757 231.14 150.304 231.553 149.77 231.82C149.237 232.073 148.624 232.2 147.93 232.2C146.61 232.2 145.577 231.707 144.83 230.72C144.084 229.733 143.71 228.36 143.71 226.6C143.71 225.413 143.877 224.4 144.21 223.56C144.557 222.72 145.05 222.08 145.69 221.64C146.33 221.187 147.097 220.96 147.99 220.96ZM148.65 223.02C148.144 223.02 147.71 223.16 147.35 223.44C147.004 223.707 146.737 224.107 146.55 224.64C146.377 225.173 146.29 225.84 146.29 226.64C146.29 227.813 146.49 228.7 146.89 229.3C147.29 229.9 147.89 230.2 148.69 230.2C149.144 230.2 149.53 230.147 149.85 230.04C150.17 229.92 150.43 229.733 150.63 229.48C150.844 229.213 151.004 228.88 151.11 228.48C151.217 228.067 151.27 227.573 151.27 227V226.62C151.27 225.753 151.177 225.06 150.99 224.54C150.804 224.007 150.517 223.62 150.13 223.38C149.757 223.14 149.264 223.02 148.65 223.02ZM162.55 220.96C162.71 220.96 162.897 220.967 163.11 220.98C163.323 220.993 163.503 221.02 163.65 221.06L163.43 223.4C163.31 223.373 163.15 223.353 162.95 223.34C162.763 223.313 162.597 223.3 162.45 223.3C162.05 223.3 161.663 223.367 161.29 223.5C160.93 223.62 160.603 223.807 160.31 224.06C160.03 224.3 159.803 224.613 159.63 225C159.47 225.387 159.39 225.847 159.39 226.38V232H156.87V221.16H158.81L159.17 223.04H159.29C159.503 222.653 159.77 222.307 160.09 222C160.41 221.68 160.777 221.427 161.19 221.24C161.617 221.053 162.07 220.96 162.55 220.96ZM174.948 226.56C174.948 227.467 174.828 228.267 174.588 228.96C174.348 229.653 174.002 230.247 173.548 230.74C173.108 231.22 172.562 231.587 171.908 231.84C171.268 232.08 170.555 232.2 169.768 232.2C169.022 232.2 168.335 232.08 167.708 231.84C167.082 231.587 166.535 231.22 166.068 230.74C165.615 230.247 165.262 229.653 165.008 228.96C164.755 228.267 164.628 227.467 164.628 226.56C164.628 225.36 164.835 224.347 165.248 223.52C165.662 222.68 166.255 222.047 167.028 221.62C167.815 221.18 168.742 220.96 169.808 220.96C170.822 220.96 171.708 221.18 172.468 221.62C173.242 222.047 173.848 222.68 174.288 223.52C174.728 224.347 174.948 225.36 174.948 226.56ZM167.208 226.56C167.208 227.32 167.295 227.973 167.468 228.52C167.655 229.053 167.935 229.46 168.308 229.74C168.695 230.02 169.188 230.16 169.788 230.16C170.402 230.16 170.895 230.02 171.268 229.74C171.655 229.46 171.935 229.053 172.108 228.52C172.282 227.973 172.368 227.32 172.368 226.56C172.368 225.787 172.275 225.14 172.088 224.62C171.915 224.087 171.635 223.687 171.248 223.42C170.875 223.14 170.388 223 169.788 223C168.882 223 168.222 223.307 167.808 223.92C167.408 224.533 167.208 225.413 167.208 226.56ZM187.174 221.16V232H185.194L184.854 230.6H184.734C184.507 230.973 184.214 231.28 183.854 231.52C183.494 231.747 183.1 231.913 182.674 232.02C182.247 232.14 181.807 232.2 181.354 232.2C180.554 232.2 179.86 232.06 179.274 231.78C178.687 231.5 178.24 231.073 177.934 230.5C177.627 229.913 177.474 229.16 177.474 228.24V221.16H179.994V227.74C179.994 228.54 180.154 229.147 180.474 229.56C180.794 229.96 181.3 230.16 181.994 230.16C182.674 230.16 183.207 230.02 183.594 229.74C183.98 229.447 184.254 229.027 184.414 228.48C184.574 227.933 184.654 227.26 184.654 226.46V221.16H187.174ZM196.086 220.96C197.352 220.96 198.372 221.433 199.146 222.38C199.919 223.313 200.306 224.707 200.306 226.56C200.306 227.787 200.126 228.82 199.766 229.66C199.406 230.5 198.906 231.133 198.266 231.56C197.626 231.987 196.879 232.2 196.026 232.2C195.506 232.2 195.046 232.133 194.646 232C194.246 231.853 193.906 231.673 193.626 231.46C193.346 231.233 193.106 230.993 192.906 230.74H192.746C192.799 230.98 192.839 231.253 192.866 231.56C192.892 231.853 192.906 232.133 192.906 232.4V236.8H190.386V221.16H192.426L192.786 222.6H192.906C193.106 222.293 193.346 222.02 193.626 221.78C193.919 221.527 194.266 221.327 194.666 221.18C195.079 221.033 195.552 220.96 196.086 220.96ZM195.366 223C194.779 223 194.306 223.12 193.946 223.36C193.586 223.587 193.326 223.94 193.166 224.42C193.006 224.9 192.919 225.5 192.906 226.22V226.54C192.906 227.313 192.979 227.967 193.126 228.5C193.286 229.033 193.546 229.44 193.906 229.72C194.279 230 194.779 230.14 195.406 230.14C195.939 230.14 196.372 229.993 196.706 229.7C197.052 229.407 197.306 228.993 197.466 228.46C197.639 227.913 197.726 227.267 197.726 226.52C197.726 225.4 197.532 224.533 197.146 223.92C196.772 223.307 196.179 223 195.366 223ZM210.62 232H208.1V216.8H210.62V232ZM218.163 220.96C219.563 220.96 220.623 221.267 221.343 221.88C222.076 222.48 222.443 223.427 222.443 224.72V232H220.663L220.163 230.5H220.083C219.776 230.887 219.456 231.213 219.123 231.48C218.803 231.733 218.429 231.913 218.003 232.02C217.589 232.14 217.083 232.2 216.483 232.2C215.843 232.2 215.263 232.08 214.743 231.84C214.236 231.6 213.836 231.233 213.543 230.74C213.249 230.233 213.103 229.6 213.103 228.84C213.103 227.72 213.509 226.88 214.323 226.32C215.149 225.747 216.396 225.433 218.063 225.38L219.943 225.32V224.78C219.943 224.087 219.776 223.593 219.443 223.3C219.109 223.007 218.643 222.86 218.043 222.86C217.496 222.86 216.969 222.94 216.463 223.1C215.956 223.26 215.463 223.447 214.983 223.66L214.183 221.9C214.716 221.62 215.323 221.393 216.003 221.22C216.696 221.047 217.416 220.96 218.163 220.96ZM218.623 226.92C217.516 226.96 216.749 227.153 216.323 227.5C215.896 227.833 215.683 228.287 215.683 228.86C215.683 229.367 215.836 229.733 216.143 229.96C216.449 230.187 216.843 230.3 217.323 230.3C218.056 230.3 218.676 230.093 219.183 229.68C219.689 229.253 219.943 228.627 219.943 227.8V226.88L218.623 226.92ZM228.12 220.4C228.12 220.827 228.107 221.24 228.08 221.64C228.054 222.04 228.027 222.353 228 222.58H228.12C228.414 222.127 228.814 221.747 229.32 221.44C229.827 221.12 230.487 220.96 231.3 220.96C232.567 220.96 233.587 221.433 234.36 222.38C235.134 223.327 235.52 224.72 235.52 226.56C235.52 227.8 235.34 228.84 234.98 229.68C234.634 230.52 234.134 231.153 233.48 231.58C232.84 231.993 232.094 232.2 231.24 232.2C230.427 232.2 229.774 232.053 229.28 231.76C228.8 231.467 228.414 231.127 228.12 230.74H227.94L227.48 232H225.6V216.8H228.12V220.4ZM230.58 223C229.967 223 229.48 223.12 229.12 223.36C228.774 223.6 228.52 223.967 228.36 224.46C228.2 224.953 228.12 225.58 228.12 226.34V226.56C228.12 227.72 228.294 228.607 228.64 229.22C229 229.833 229.66 230.14 230.62 230.14C231.367 230.14 231.94 229.833 232.34 229.22C232.74 228.593 232.94 227.7 232.94 226.54C232.94 225.367 232.734 224.487 232.32 223.9C231.92 223.3 231.34 223 230.58 223ZM242.48 220.96C243.453 220.96 244.287 221.16 244.98 221.56C245.687 221.947 246.233 222.507 246.62 223.24C247.007 223.96 247.2 224.84 247.2 225.88V227.16H240.04C240.067 228.147 240.34 228.913 240.86 229.46C241.38 229.993 242.1 230.26 243.02 230.26C243.727 230.26 244.353 230.193 244.9 230.06C245.46 229.913 246.033 229.707 246.62 229.44V231.46C246.087 231.713 245.533 231.9 244.96 232.02C244.387 232.14 243.7 232.2 242.9 232.2C241.847 232.2 240.907 232 240.08 231.6C239.267 231.187 238.627 230.567 238.16 229.74C237.707 228.913 237.48 227.887 237.48 226.66C237.48 225.42 237.687 224.38 238.1 223.54C238.527 222.687 239.113 222.047 239.86 221.62C240.607 221.18 241.48 220.96 242.48 220.96ZM242.48 222.82C241.813 222.82 241.267 223.04 240.84 223.48C240.427 223.907 240.18 224.547 240.1 225.4H244.76C244.76 224.893 244.673 224.447 244.5 224.06C244.34 223.673 244.093 223.373 243.76 223.16C243.427 222.933 243 222.82 242.48 222.82ZM252.261 232H249.741V216.8H252.261V232Z" fill="#333333"/>
<path d="M109 292.889C108.687 292.889 108.41 292.785 108.201 292.576L101.535 285.91C101.083 285.493 101.083 284.764 101.535 284.347C101.951 283.896 102.681 283.896 103.097 284.347L109 290.215L114.868 284.347C115.285 283.896 116.014 283.896 116.431 284.347C116.882 284.764 116.882 285.493 116.431 285.91L109.764 292.576C109.556 292.785 109.278 292.889 109 292.889Z" fill="#333333"/>
<path d="M149 295H145.82L139.06 283.8H138.98C138.993 284.093 139.007 284.407 139.02 284.74C139.047 285.06 139.067 285.393 139.08 285.74C139.093 286.073 139.107 286.413 139.12 286.76C139.133 287.107 139.147 287.453 139.16 287.8V295H136.86V280.72H140.02L146.76 291.84H146.82C146.807 291.573 146.793 291.287 146.78 290.98C146.767 290.66 146.753 290.333 146.74 290C146.74 289.667 146.733 289.327 146.72 288.98C146.707 288.633 146.693 288.3 146.68 287.98V280.72H149V295ZM156.799 283.96C158.199 283.96 159.259 284.267 159.979 284.88C160.713 285.48 161.079 286.427 161.079 287.72V295H159.299L158.799 293.5H158.719C158.413 293.887 158.093 294.213 157.759 294.48C157.439 294.733 157.066 294.913 156.639 295.02C156.226 295.14 155.719 295.2 155.119 295.2C154.479 295.2 153.899 295.08 153.379 294.84C152.873 294.6 152.473 294.233 152.179 293.74C151.886 293.233 151.739 292.6 151.739 291.84C151.739 290.72 152.146 289.88 152.959 289.32C153.786 288.747 155.033 288.433 156.699 288.38L158.579 288.32V287.78C158.579 287.087 158.413 286.593 158.079 286.3C157.746 286.007 157.279 285.86 156.679 285.86C156.133 285.86 155.606 285.94 155.099 286.1C154.593 286.26 154.099 286.447 153.619 286.66L152.819 284.9C153.353 284.62 153.959 284.393 154.639 284.22C155.333 284.047 156.053 283.96 156.799 283.96ZM157.259 289.92C156.153 289.96 155.386 290.153 154.959 290.5C154.533 290.833 154.319 291.287 154.319 291.86C154.319 292.367 154.473 292.733 154.779 292.96C155.086 293.187 155.479 293.3 155.959 293.3C156.693 293.3 157.313 293.093 157.819 292.68C158.326 292.253 158.579 291.627 158.579 290.8V289.88L157.259 289.92ZM166.737 295L162.617 284.16H165.277L167.437 290.42C167.531 290.673 167.617 290.953 167.697 291.26C167.777 291.553 167.844 291.847 167.897 292.14C167.964 292.42 168.004 292.667 168.017 292.88H168.097C168.124 292.653 168.171 292.4 168.237 292.12C168.304 291.827 168.377 291.533 168.457 291.24C168.551 290.947 168.637 290.673 168.717 290.42L170.877 284.16H173.537L169.417 295H166.737ZM183.99 283.96C184.67 283.96 185.284 284.093 185.83 284.36C186.377 284.627 186.837 285.027 187.21 285.56H187.31L187.55 284.16H189.65V295.08C189.65 296.107 189.457 296.967 189.07 297.66C188.684 298.367 188.104 298.9 187.33 299.26C186.557 299.62 185.59 299.8 184.43 299.8C183.657 299.8 182.944 299.747 182.29 299.64C181.637 299.547 181.017 299.38 180.43 299.14V297.06C180.844 297.233 181.27 297.38 181.71 297.5C182.164 297.633 182.63 297.733 183.11 297.8C183.59 297.867 184.084 297.9 184.59 297.9C185.417 297.9 186.044 297.667 186.47 297.2C186.91 296.733 187.13 296.067 187.13 295.2V294.92C187.13 294.72 187.137 294.487 187.15 294.22C187.177 293.953 187.197 293.74 187.21 293.58H187.13C186.757 294.14 186.304 294.553 185.77 294.82C185.237 295.073 184.624 295.2 183.93 295.2C182.61 295.2 181.577 294.707 180.83 293.72C180.084 292.733 179.71 291.36 179.71 289.6C179.71 288.413 179.877 287.4 180.21 286.56C180.557 285.72 181.05 285.08 181.69 284.64C182.33 284.187 183.097 283.96 183.99 283.96ZM184.65 286.02C184.144 286.02 183.71 286.16 183.35 286.44C183.004 286.707 182.737 287.107 182.55 287.64C182.377 288.173 182.29 288.84 182.29 289.64C182.29 290.813 182.49 291.7 182.89 292.3C183.29 292.9 183.89 293.2 184.69 293.2C185.144 293.2 185.53 293.147 185.85 293.04C186.17 292.92 186.43 292.733 186.63 292.48C186.844 292.213 187.004 291.88 187.11 291.48C187.217 291.067 187.27 290.573 187.27 290V289.62C187.27 288.753 187.177 288.06 186.99 287.54C186.804 287.007 186.517 286.62 186.13 286.38C185.757 286.14 185.264 286.02 184.65 286.02ZM198.55 283.96C198.71 283.96 198.897 283.967 199.11 283.98C199.323 283.993 199.503 284.02 199.65 284.06L199.43 286.4C199.31 286.373 199.15 286.353 198.95 286.34C198.763 286.313 198.597 286.3 198.45 286.3C198.05 286.3 197.663 286.367 197.29 286.5C196.93 286.62 196.603 286.807 196.31 287.06C196.03 287.3 195.803 287.613 195.63 288C195.47 288.387 195.39 288.847 195.39 289.38V295H192.87V284.16H194.81L195.17 286.04H195.29C195.503 285.653 195.77 285.307 196.09 285C196.41 284.68 196.777 284.427 197.19 284.24C197.617 284.053 198.07 283.96 198.55 283.96ZM210.948 289.56C210.948 290.467 210.828 291.267 210.588 291.96C210.348 292.653 210.002 293.247 209.548 293.74C209.108 294.22 208.562 294.587 207.908 294.84C207.268 295.08 206.555 295.2 205.768 295.2C205.022 295.2 204.335 295.08 203.708 294.84C203.082 294.587 202.535 294.22 202.068 293.74C201.615 293.247 201.262 292.653 201.008 291.96C200.755 291.267 200.628 290.467 200.628 289.56C200.628 288.36 200.835 287.347 201.248 286.52C201.662 285.68 202.255 285.047 203.028 284.62C203.815 284.18 204.742 283.96 205.808 283.96C206.822 283.96 207.708 284.18 208.468 284.62C209.242 285.047 209.848 285.68 210.288 286.52C210.728 287.347 210.948 288.36 210.948 289.56ZM203.208 289.56C203.208 290.32 203.295 290.973 203.468 291.52C203.655 292.053 203.935 292.46 204.308 292.74C204.695 293.02 205.188 293.16 205.788 293.16C206.402 293.16 206.895 293.02 207.268 292.74C207.655 292.46 207.935 292.053 208.108 291.52C208.282 290.973 208.368 290.32 208.368 289.56C208.368 288.787 208.275 288.14 208.088 287.62C207.915 287.087 207.635 286.687 207.248 286.42C206.875 286.14 206.388 286 205.788 286C204.882 286 204.222 286.307 203.808 286.92C203.408 287.533 203.208 288.413 203.208 289.56ZM223.174 284.16V295H221.194L220.854 293.6H220.734C220.507 293.973 220.214 294.28 219.854 294.52C219.494 294.747 219.1 294.913 218.674 295.02C218.247 295.14 217.807 295.2 217.354 295.2C216.554 295.2 215.86 295.06 215.274 294.78C214.687 294.5 214.24 294.073 213.934 293.5C213.627 292.913 213.474 292.16 213.474 291.24V284.16H215.994V290.74C215.994 291.54 216.154 292.147 216.474 292.56C216.794 292.96 217.3 293.16 217.994 293.16C218.674 293.16 219.207 293.02 219.594 292.74C219.98 292.447 220.254 292.027 220.414 291.48C220.574 290.933 220.654 290.26 220.654 289.46V284.16H223.174ZM232.086 283.96C233.352 283.96 234.372 284.433 235.146 285.38C235.919 286.313 236.306 287.707 236.306 289.56C236.306 290.787 236.126 291.82 235.766 292.66C235.406 293.5 234.906 294.133 234.266 294.56C233.626 294.987 232.879 295.2 232.026 295.2C231.506 295.2 231.046 295.133 230.646 295C230.246 294.853 229.906 294.673 229.626 294.46C229.346 294.233 229.106 293.993 228.906 293.74H228.746C228.799 293.98 228.839 294.253 228.866 294.56C228.892 294.853 228.906 295.133 228.906 295.4V299.8H226.386V284.16H228.426L228.786 285.6H228.906C229.106 285.293 229.346 285.02 229.626 284.78C229.919 284.527 230.266 284.327 230.666 284.18C231.079 284.033 231.552 283.96 232.086 283.96ZM231.366 286C230.779 286 230.306 286.12 229.946 286.36C229.586 286.587 229.326 286.94 229.166 287.42C229.006 287.9 228.919 288.5 228.906 289.22V289.54C228.906 290.313 228.979 290.967 229.126 291.5C229.286 292.033 229.546 292.44 229.906 292.72C230.279 293 230.779 293.14 231.406 293.14C231.939 293.14 232.372 292.993 232.706 292.7C233.052 292.407 233.306 291.993 233.466 291.46C233.639 290.913 233.726 290.267 233.726 289.52C233.726 288.4 233.532 287.533 233.146 286.92C232.772 286.307 232.179 286 231.366 286ZM246.62 295H244.1V279.8H246.62V295ZM254.163 283.96C255.563 283.96 256.623 284.267 257.343 284.88C258.076 285.48 258.443 286.427 258.443 287.72V295H256.663L256.163 293.5H256.083C255.776 293.887 255.456 294.213 255.123 294.48C254.803 294.733 254.429 294.913 254.003 295.02C253.589 295.14 253.083 295.2 252.483 295.2C251.843 295.2 251.263 295.08 250.743 294.84C250.236 294.6 249.836 294.233 249.543 293.74C249.249 293.233 249.103 292.6 249.103 291.84C249.103 290.72 249.509 289.88 250.323 289.32C251.149 288.747 252.396 288.433 254.063 288.38L255.943 288.32V287.78C255.943 287.087 255.776 286.593 255.443 286.3C255.109 286.007 254.643 285.86 254.043 285.86C253.496 285.86 252.969 285.94 252.463 286.1C251.956 286.26 251.463 286.447 250.983 286.66L250.183 284.9C250.716 284.62 251.323 284.393 252.003 284.22C252.696 284.047 253.416 283.96 254.163 283.96ZM254.623 289.92C253.516 289.96 252.749 290.153 252.323 290.5C251.896 290.833 251.683 291.287 251.683 291.86C251.683 292.367 251.836 292.733 252.143 292.96C252.449 293.187 252.843 293.3 253.323 293.3C254.056 293.3 254.676 293.093 255.183 292.68C255.689 292.253 255.943 291.627 255.943 290.8V289.88L254.623 289.92ZM264.12 283.4C264.12 283.827 264.107 284.24 264.08 284.64C264.054 285.04 264.027 285.353 264 285.58H264.12C264.414 285.127 264.814 284.747 265.32 284.44C265.827 284.12 266.487 283.96 267.3 283.96C268.567 283.96 269.587 284.433 270.36 285.38C271.134 286.327 271.52 287.72 271.52 289.56C271.52 290.8 271.34 291.84 270.98 292.68C270.634 293.52 270.134 294.153 269.48 294.58C268.84 294.993 268.094 295.2 267.24 295.2C266.427 295.2 265.774 295.053 265.28 294.76C264.8 294.467 264.414 294.127 264.12 293.74H263.94L263.48 295H261.6V279.8H264.12V283.4ZM266.58 286C265.967 286 265.48 286.12 265.12 286.36C264.774 286.6 264.52 286.967 264.36 287.46C264.2 287.953 264.12 288.58 264.12 289.34V289.56C264.12 290.72 264.294 291.607 264.64 292.22C265 292.833 265.66 293.14 266.62 293.14C267.367 293.14 267.94 292.833 268.34 292.22C268.74 291.593 268.94 290.7 268.94 289.54C268.94 288.367 268.734 287.487 268.32 286.9C267.92 286.3 267.34 286 266.58 286ZM278.48 283.96C279.453 283.96 280.287 284.16 280.98 284.56C281.687 284.947 282.233 285.507 282.62 286.24C283.007 286.96 283.2 287.84 283.2 288.88V290.16H276.04C276.067 291.147 276.34 291.913 276.86 292.46C277.38 292.993 278.1 293.26 279.02 293.26C279.727 293.26 280.353 293.193 280.9 293.06C281.46 292.913 282.033 292.707 282.62 292.44V294.46C282.087 294.713 281.533 294.9 280.96 295.02C280.387 295.14 279.7 295.2 278.9 295.2C277.847 295.2 276.907 295 276.08 294.6C275.267 294.187 274.627 293.567 274.16 292.74C273.707 291.913 273.48 290.887 273.48 289.66C273.48 288.42 273.687 287.38 274.1 286.54C274.527 285.687 275.113 285.047 275.86 284.62C276.607 284.18 277.48 283.96 278.48 283.96ZM278.48 285.82C277.813 285.82 277.267 286.04 276.84 286.48C276.427 286.907 276.18 287.547 276.1 288.4H280.76C280.76 287.893 280.673 287.447 280.5 287.06C280.34 286.673 280.093 286.373 279.76 286.16C279.427 285.933 279 285.82 278.48 285.82ZM288.261 295H285.741V279.8H288.261V295Z" fill="#333333"/>
<path d="M115.667 353.667C115.354 353.667 115.076 353.562 114.868 353.354L109 347.486L103.097 353.354C102.681 353.806 101.951 353.806 101.535 353.354C101.083 352.937 101.083 352.208 101.535 351.792L108.201 345.125C108.618 344.674 109.347 344.674 109.764 345.125L116.431 351.792C116.882 352.208 116.882 352.937 116.431 353.354C116.222 353.562 115.944 353.667 115.667 353.667Z" fill="#333333"/>
<path d="M149 358H145.82L139.06 346.8H138.98C138.993 347.093 139.007 347.407 139.02 347.74C139.047 348.06 139.067 348.393 139.08 348.74C139.093 349.073 139.107 349.413 139.12 349.76C139.133 350.107 139.147 350.453 139.16 350.8V358H136.86V343.72H140.02L146.76 354.84H146.82C146.807 354.573 146.793 354.287 146.78 353.98C146.767 353.66 146.753 353.333 146.74 353C146.74 352.667 146.733 352.327 146.72 351.98C146.707 351.633 146.693 351.3 146.68 350.98V343.72H149V358ZM156.799 346.96C158.199 346.96 159.259 347.267 159.979 347.88C160.713 348.48 161.079 349.427 161.079 350.72V358H159.299L158.799 356.5H158.719C158.413 356.887 158.093 357.213 157.759 357.48C157.439 357.733 157.066 357.913 156.639 358.02C156.226 358.14 155.719 358.2 155.119 358.2C154.479 358.2 153.899 358.08 153.379 357.84C152.873 357.6 152.473 357.233 152.179 356.74C151.886 356.233 151.739 355.6 151.739 354.84C151.739 353.72 152.146 352.88 152.959 352.32C153.786 351.747 155.033 351.433 156.699 351.38L158.579 351.32V350.78C158.579 350.087 158.413 349.593 158.079 349.3C157.746 349.007 157.279 348.86 156.679 348.86C156.133 348.86 155.606 348.94 155.099 349.1C154.593 349.26 154.099 349.447 153.619 349.66L152.819 347.9C153.353 347.62 153.959 347.393 154.639 347.22C155.333 347.047 156.053 346.96 156.799 346.96ZM157.259 352.92C156.153 352.96 155.386 353.153 154.959 353.5C154.533 353.833 154.319 354.287 154.319 354.86C154.319 355.367 154.473 355.733 154.779 355.96C155.086 356.187 155.479 356.3 155.959 356.3C156.693 356.3 157.313 356.093 157.819 355.68C158.326 355.253 158.579 354.627 158.579 353.8V352.88L157.259 352.92ZM166.737 358L162.617 347.16H165.277L167.437 353.42C167.531 353.673 167.617 353.953 167.697 354.26C167.777 354.553 167.844 354.847 167.897 355.14C167.964 355.42 168.004 355.667 168.017 355.88H168.097C168.124 355.653 168.171 355.4 168.237 355.12C168.304 354.827 168.377 354.533 168.457 354.24C168.551 353.947 168.637 353.673 168.717 353.42L170.877 347.16H173.537L169.417 358H166.737ZM183.99 346.96C184.67 346.96 185.284 347.093 185.83 347.36C186.377 347.627 186.837 348.027 187.21 348.56H187.31L187.55 347.16H189.65V358.08C189.65 359.107 189.457 359.967 189.07 360.66C188.684 361.367 188.104 361.9 187.33 362.26C186.557 362.62 185.59 362.8 184.43 362.8C183.657 362.8 182.944 362.747 182.29 362.64C181.637 362.547 181.017 362.38 180.43 362.14V360.06C180.844 360.233 181.27 360.38 181.71 360.5C182.164 360.633 182.63 360.733 183.11 360.8C183.59 360.867 184.084 360.9 184.59 360.9C185.417 360.9 186.044 360.667 186.47 360.2C186.91 359.733 187.13 359.067 187.13 358.2V357.92C187.13 357.72 187.137 357.487 187.15 357.22C187.177 356.953 187.197 356.74 187.21 356.58H187.13C186.757 357.14 186.304 357.553 185.77 357.82C185.237 358.073 184.624 358.2 183.93 358.2C182.61 358.2 181.577 357.707 180.83 356.72C180.084 355.733 179.71 354.36 179.71 352.6C179.71 351.413 179.877 350.4 180.21 349.56C180.557 348.72 181.05 348.08 181.69 347.64C182.33 347.187 183.097 346.96 183.99 346.96ZM184.65 349.02C184.144 349.02 183.71 349.16 183.35 349.44C183.004 349.707 182.737 350.107 182.55 350.64C182.377 351.173 182.29 351.84 182.29 352.64C182.29 353.813 182.49 354.7 182.89 355.3C183.29 355.9 183.89 356.2 184.69 356.2C185.144 356.2 185.53 356.147 185.85 356.04C186.17 355.92 186.43 355.733 186.63 355.48C186.844 355.213 187.004 354.88 187.11 354.48C187.217 354.067 187.27 353.573 187.27 353V352.62C187.27 351.753 187.177 351.06 186.99 350.54C186.804 350.007 186.517 349.62 186.13 349.38C185.757 349.14 185.264 349.02 184.65 349.02ZM198.55 346.96C198.71 346.96 198.897 346.967 199.11 346.98C199.323 346.993 199.503 347.02 199.65 347.06L199.43 349.4C199.31 349.373 199.15 349.353 198.95 349.34C198.763 349.313 198.597 349.3 198.45 349.3C198.05 349.3 197.663 349.367 197.29 349.5C196.93 349.62 196.603 349.807 196.31 350.06C196.03 350.3 195.803 350.613 195.63 351C195.47 351.387 195.39 351.847 195.39 352.38V358H192.87V347.16H194.81L195.17 349.04H195.29C195.503 348.653 195.77 348.307 196.09 348C196.41 347.68 196.777 347.427 197.19 347.24C197.617 347.053 198.07 346.96 198.55 346.96ZM210.948 352.56C210.948 353.467 210.828 354.267 210.588 354.96C210.348 355.653 210.002 356.247 209.548 356.74C209.108 357.22 208.562 357.587 207.908 357.84C207.268 358.08 206.555 358.2 205.768 358.2C205.022 358.2 204.335 358.08 203.708 357.84C203.082 357.587 202.535 357.22 202.068 356.74C201.615 356.247 201.262 355.653 201.008 354.96C200.755 354.267 200.628 353.467 200.628 352.56C200.628 351.36 200.835 350.347 201.248 349.52C201.662 348.68 202.255 348.047 203.028 347.62C203.815 347.18 204.742 346.96 205.808 346.96C206.822 346.96 207.708 347.18 208.468 347.62C209.242 348.047 209.848 348.68 210.288 349.52C210.728 350.347 210.948 351.36 210.948 352.56ZM203.208 352.56C203.208 353.32 203.295 353.973 203.468 354.52C203.655 355.053 203.935 355.46 204.308 355.74C204.695 356.02 205.188 356.16 205.788 356.16C206.402 356.16 206.895 356.02 207.268 355.74C207.655 355.46 207.935 355.053 208.108 354.52C208.282 353.973 208.368 353.32 208.368 352.56C208.368 351.787 208.275 351.14 208.088 350.62C207.915 350.087 207.635 349.687 207.248 349.42C206.875 349.14 206.388 349 205.788 349C204.882 349 204.222 349.307 203.808 349.92C203.408 350.533 203.208 351.413 203.208 352.56ZM223.174 347.16V358H221.194L220.854 356.6H220.734C220.507 356.973 220.214 357.28 219.854 357.52C219.494 357.747 219.1 357.913 218.674 358.02C218.247 358.14 217.807 358.2 217.354 358.2C216.554 358.2 215.86 358.06 215.274 357.78C214.687 357.5 214.24 357.073 213.934 356.5C213.627 355.913 213.474 355.16 213.474 354.24V347.16H215.994V353.74C215.994 354.54 216.154 355.147 216.474 355.56C216.794 355.96 217.3 356.16 217.994 356.16C218.674 356.16 219.207 356.02 219.594 355.74C219.98 355.447 220.254 355.027 220.414 354.48C220.574 353.933 220.654 353.26 220.654 352.46V347.16H223.174ZM232.086 346.96C233.352 346.96 234.372 347.433 235.146 348.38C235.919 349.313 236.306 350.707 236.306 352.56C236.306 353.787 236.126 354.82 235.766 355.66C235.406 356.5 234.906 357.133 234.266 357.56C233.626 357.987 232.879 358.2 232.026 358.2C231.506 358.2 231.046 358.133 230.646 358C230.246 357.853 229.906 357.673 229.626 357.46C229.346 357.233 229.106 356.993 228.906 356.74H228.746C228.799 356.98 228.839 357.253 228.866 357.56C228.892 357.853 228.906 358.133 228.906 358.4V362.8H226.386V347.16H228.426L228.786 348.6H228.906C229.106 348.293 229.346 348.02 229.626 347.78C229.919 347.527 230.266 347.327 230.666 347.18C231.079 347.033 231.552 346.96 232.086 346.96ZM231.366 349C230.779 349 230.306 349.12 229.946 349.36C229.586 349.587 229.326 349.94 229.166 350.42C229.006 350.9 228.919 351.5 228.906 352.22V352.54C228.906 353.313 228.979 353.967 229.126 354.5C229.286 355.033 229.546 355.44 229.906 355.72C230.279 356 230.779 356.14 231.406 356.14C231.939 356.14 232.372 355.993 232.706 355.7C233.052 355.407 233.306 354.993 233.466 354.46C233.639 353.913 233.726 353.267 233.726 352.52C233.726 351.4 233.532 350.533 233.146 349.92C232.772 349.307 232.179 349 231.366 349ZM246.62 358H244.1V342.8H246.62V358ZM254.163 346.96C255.563 346.96 256.623 347.267 257.343 347.88C258.076 348.48 258.443 349.427 258.443 350.72V358H256.663L256.163 356.5H256.083C255.776 356.887 255.456 357.213 255.123 357.48C254.803 357.733 254.429 357.913 254.003 358.02C253.589 358.14 253.083 358.2 252.483 358.2C251.843 358.2 251.263 358.08 250.743 357.84C250.236 357.6 249.836 357.233 249.543 356.74C249.249 356.233 249.103 355.6 249.103 354.84C249.103 353.72 249.509 352.88 250.323 352.32C251.149 351.747 252.396 351.433 254.063 351.38L255.943 351.32V350.78C255.943 350.087 255.776 349.593 255.443 349.3C255.109 349.007 254.643 348.86 254.043 348.86C253.496 348.86 252.969 348.94 252.463 349.1C251.956 349.26 251.463 349.447 250.983 349.66L250.183 347.9C250.716 347.62 251.323 347.393 252.003 347.22C252.696 347.047 253.416 346.96 254.163 346.96ZM254.623 352.92C253.516 352.96 252.749 353.153 252.323 353.5C251.896 353.833 251.683 354.287 251.683 354.86C251.683 355.367 251.836 355.733 252.143 355.96C252.449 356.187 252.843 356.3 253.323 356.3C254.056 356.3 254.676 356.093 255.183 355.68C255.689 355.253 255.943 354.627 255.943 353.8V352.88L254.623 352.92ZM264.12 346.4C264.12 346.827 264.107 347.24 264.08 347.64C264.054 348.04 264.027 348.353 264 348.58H264.12C264.414 348.127 264.814 347.747 265.32 347.44C265.827 347.12 266.487 346.96 267.3 346.96C268.567 346.96 269.587 347.433 270.36 348.38C271.134 349.327 271.52 350.72 271.52 352.56C271.52 353.8 271.34 354.84 270.98 355.68C270.634 356.52 270.134 357.153 269.48 357.58C268.84 357.993 268.094 358.2 267.24 358.2C266.427 358.2 265.774 358.053 265.28 357.76C264.8 357.467 264.414 357.127 264.12 356.74H263.94L263.48 358H261.6V342.8H264.12V346.4ZM266.58 349C265.967 349 265.48 349.12 265.12 349.36C264.774 349.6 264.52 349.967 264.36 350.46C264.2 350.953 264.12 351.58 264.12 352.34V352.56C264.12 353.72 264.294 354.607 264.64 355.22C265 355.833 265.66 356.14 266.62 356.14C267.367 356.14 267.94 355.833 268.34 355.22C268.74 354.593 268.94 353.7 268.94 352.54C268.94 351.367 268.734 350.487 268.32 349.9C267.92 349.3 267.34 349 266.58 349ZM278.48 346.96C279.453 346.96 280.287 347.16 280.98 347.56C281.687 347.947 282.233 348.507 282.62 349.24C283.007 349.96 283.2 350.84 283.2 351.88V353.16H276.04C276.067 354.147 276.34 354.913 276.86 355.46C277.38 355.993 278.1 356.26 279.02 356.26C279.727 356.26 280.353 356.193 280.9 356.06C281.46 355.913 282.033 355.707 282.62 355.44V357.46C282.087 357.713 281.533 357.9 280.96 358.02C280.387 358.14 279.7 358.2 278.9 358.2C277.847 358.2 276.907 358 276.08 357.6C275.267 357.187 274.627 356.567 274.16 355.74C273.707 354.913 273.48 353.887 273.48 352.66C273.48 351.42 273.687 350.38 274.1 349.54C274.527 348.687 275.113 348.047 275.86 347.62C276.607 347.18 277.48 346.96 278.48 346.96ZM278.48 348.82C277.813 348.82 277.267 349.04 276.84 349.48C276.427 349.907 276.18 350.547 276.1 351.4H280.76C280.76 350.893 280.673 350.447 280.5 350.06C280.34 349.673 280.093 349.373 279.76 349.16C279.427 348.933 279 348.82 278.48 348.82ZM288.261 358H285.741V342.8H288.261V358Z" fill="#333333"/>
<path d="M183.26 421H181.16L173.52 409.14H173.44C173.467 409.607 173.5 410.187 173.54 410.88C173.58 411.573 173.6 412.287 173.6 413.02V421H171.94V406.72H174.02L181.64 418.54H181.72C181.707 418.327 181.687 418.007 181.66 417.58C181.647 417.153 181.627 416.687 181.6 416.18C181.587 415.673 181.58 415.207 181.58 414.78V406.72H183.26V421ZM190.955 410.1C192.262 410.1 193.229 410.387 193.855 410.96C194.482 411.533 194.795 412.447 194.795 413.7V421H193.515L193.175 419.48H193.095C192.629 420.067 192.135 420.5 191.615 420.78C191.109 421.06 190.402 421.2 189.495 421.2C188.522 421.2 187.715 420.947 187.075 420.44C186.435 419.92 186.115 419.113 186.115 418.02C186.115 416.953 186.535 416.133 187.375 415.56C188.215 414.973 189.509 414.653 191.255 414.6L193.075 414.54V413.9C193.075 413.007 192.882 412.387 192.495 412.04C192.109 411.693 191.562 411.52 190.855 411.52C190.295 411.52 189.762 411.607 189.255 411.78C188.749 411.94 188.275 412.127 187.835 412.34L187.295 411.02C187.762 410.767 188.315 410.553 188.955 410.38C189.595 410.193 190.262 410.1 190.955 410.1ZM191.475 415.82C190.142 415.873 189.215 416.087 188.695 416.46C188.189 416.833 187.935 417.36 187.935 418.04C187.935 418.64 188.115 419.08 188.475 419.36C188.849 419.64 189.322 419.78 189.895 419.78C190.802 419.78 191.555 419.533 192.155 419.04C192.755 418.533 193.055 417.76 193.055 416.72V415.76L191.475 415.82ZM200.466 421L196.406 410.28H198.286L200.566 416.6C200.673 416.893 200.786 417.22 200.906 417.58C201.026 417.94 201.133 418.287 201.226 418.62C201.32 418.94 201.386 419.213 201.426 419.44H201.506C201.56 419.213 201.633 418.933 201.726 418.6C201.833 418.267 201.946 417.92 202.066 417.56C202.2 417.2 202.313 416.88 202.406 416.6L204.686 410.28H206.566L202.486 421H200.466ZM215.218 421H213.458V405.8H215.218V421ZM219.514 406.26C219.781 406.26 220.014 406.353 220.214 406.54C220.427 406.713 220.534 406.993 220.534 407.38C220.534 407.753 220.427 408.033 220.214 408.22C220.014 408.407 219.781 408.5 219.514 408.5C219.221 408.5 218.974 408.407 218.774 408.22C218.574 408.033 218.474 407.753 218.474 407.38C218.474 406.993 218.574 406.713 218.774 406.54C218.974 406.353 219.221 406.26 219.514 406.26ZM220.374 410.28V421H218.614V410.28H220.374ZM228.93 410.08C230.21 410.08 231.177 410.393 231.83 411.02C232.484 411.633 232.81 412.633 232.81 414.02V421H231.07V414.14C231.07 412.42 230.27 411.56 228.67 411.56C227.484 411.56 226.664 411.893 226.21 412.56C225.757 413.227 225.53 414.187 225.53 415.44V421H223.77V410.28H225.19L225.45 411.74H225.55C225.897 411.18 226.377 410.767 226.99 410.5C227.604 410.22 228.25 410.08 228.93 410.08ZM237.874 413.74C237.874 413.953 237.86 414.233 237.834 414.58C237.82 414.927 237.807 415.227 237.794 415.48H237.874C237.954 415.373 238.074 415.22 238.234 415.02C238.394 414.82 238.554 414.62 238.714 414.42C238.887 414.207 239.034 414.033 239.154 413.9L242.574 410.28H244.634L240.294 414.86L244.934 421H242.814L239.094 416L237.874 417.06V421H236.134V405.8H237.874V413.74Z" fill="#2B4380"/>
<path d="M170 423.5H245.114V424.5H170V423.5Z" fill="#2B4380"/>
<path d="M183.26 484H181.16L173.52 472.14H173.44C173.467 472.607 173.5 473.187 173.54 473.88C173.58 474.573 173.6 475.287 173.6 476.02V484H171.94V469.72H174.02L181.64 481.54H181.72C181.707 481.327 181.687 481.007 181.66 480.58C181.647 480.153 181.627 479.687 181.6 479.18C181.587 478.673 181.58 478.207 181.58 477.78V469.72H183.26V484ZM190.955 473.1C192.262 473.1 193.229 473.387 193.855 473.96C194.482 474.533 194.795 475.447 194.795 476.7V484H193.515L193.175 482.48H193.095C192.629 483.067 192.135 483.5 191.615 483.78C191.109 484.06 190.402 484.2 189.495 484.2C188.522 484.2 187.715 483.947 187.075 483.44C186.435 482.92 186.115 482.113 186.115 481.02C186.115 479.953 186.535 479.133 187.375 478.56C188.215 477.973 189.509 477.653 191.255 477.6L193.075 477.54V476.9C193.075 476.007 192.882 475.387 192.495 475.04C192.109 474.693 191.562 474.52 190.855 474.52C190.295 474.52 189.762 474.607 189.255 474.78C188.749 474.94 188.275 475.127 187.835 475.34L187.295 474.02C187.762 473.767 188.315 473.553 188.955 473.38C189.595 473.193 190.262 473.1 190.955 473.1ZM191.475 478.82C190.142 478.873 189.215 479.087 188.695 479.46C188.189 479.833 187.935 480.36 187.935 481.04C187.935 481.64 188.115 482.08 188.475 482.36C188.849 482.64 189.322 482.78 189.895 482.78C190.802 482.78 191.555 482.533 192.155 482.04C192.755 481.533 193.055 480.76 193.055 479.72V478.76L191.475 478.82ZM200.466 484L196.406 473.28H198.286L200.566 479.6C200.673 479.893 200.786 480.22 200.906 480.58C201.026 480.94 201.133 481.287 201.226 481.62C201.32 481.94 201.386 482.213 201.426 482.44H201.506C201.56 482.213 201.633 481.933 201.726 481.6C201.833 481.267 201.946 480.92 202.066 480.56C202.2 480.2 202.313 479.88 202.406 479.6L204.686 473.28H206.566L202.486 484H200.466ZM215.218 484H213.458V468.8H215.218V484ZM219.514 469.26C219.781 469.26 220.014 469.353 220.214 469.54C220.427 469.713 220.534 469.993 220.534 470.38C220.534 470.753 220.427 471.033 220.214 471.22C220.014 471.407 219.781 471.5 219.514 471.5C219.221 471.5 218.974 471.407 218.774 471.22C218.574 471.033 218.474 470.753 218.474 470.38C218.474 469.993 218.574 469.713 218.774 469.54C218.974 469.353 219.221 469.26 219.514 469.26ZM220.374 473.28V484H218.614V473.28H220.374ZM228.93 473.08C230.21 473.08 231.177 473.393 231.83 474.02C232.484 474.633 232.81 475.633 232.81 477.02V484H231.07V477.14C231.07 475.42 230.27 474.56 228.67 474.56C227.484 474.56 226.664 474.893 226.21 475.56C225.757 476.227 225.53 477.187 225.53 478.44V484H223.77V473.28H225.19L225.45 474.74H225.55C225.897 474.18 226.377 473.767 226.99 473.5C227.604 473.22 228.25 473.08 228.93 473.08ZM237.874 476.74C237.874 476.953 237.86 477.233 237.834 477.58C237.82 477.927 237.807 478.227 237.794 478.48H237.874C237.954 478.373 238.074 478.22 238.234 478.02C238.394 477.82 238.554 477.62 238.714 477.42C238.887 477.207 239.034 477.033 239.154 476.9L242.574 473.28H244.634L240.294 477.86L244.934 484H242.814L239.094 479L237.874 480.06V484H236.134V468.8H237.874V476.74Z" fill="#2B4380"/>
<path d="M170 486.5H245.114V487.5H170V486.5Z" fill="#2B4380"/>
<path d="M183.26 547H181.16L173.52 535.14H173.44C173.467 535.607 173.5 536.187 173.54 536.88C173.58 537.573 173.6 538.287 173.6 539.02V547H171.94V532.72H174.02L181.64 544.54H181.72C181.707 544.327 181.687 544.007 181.66 543.58C181.647 543.153 181.627 542.687 181.6 542.18C181.587 541.673 181.58 541.207 181.58 540.78V532.72H183.26V547ZM190.955 536.1C192.262 536.1 193.229 536.387 193.855 536.96C194.482 537.533 194.795 538.447 194.795 539.7V547H193.515L193.175 545.48H193.095C192.629 546.067 192.135 546.5 191.615 546.78C191.109 547.06 190.402 547.2 189.495 547.2C188.522 547.2 187.715 546.947 187.075 546.44C186.435 545.92 186.115 545.113 186.115 544.02C186.115 542.953 186.535 542.133 187.375 541.56C188.215 540.973 189.509 540.653 191.255 540.6L193.075 540.54V539.9C193.075 539.007 192.882 538.387 192.495 538.04C192.109 537.693 191.562 537.52 190.855 537.52C190.295 537.52 189.762 537.607 189.255 537.78C188.749 537.94 188.275 538.127 187.835 538.34L187.295 537.02C187.762 536.767 188.315 536.553 188.955 536.38C189.595 536.193 190.262 536.1 190.955 536.1ZM191.475 541.82C190.142 541.873 189.215 542.087 188.695 542.46C188.189 542.833 187.935 543.36 187.935 544.04C187.935 544.64 188.115 545.08 188.475 545.36C188.849 545.64 189.322 545.78 189.895 545.78C190.802 545.78 191.555 545.533 192.155 545.04C192.755 544.533 193.055 543.76 193.055 542.72V541.76L191.475 541.82ZM200.466 547L196.406 536.28H198.286L200.566 542.6C200.673 542.893 200.786 543.22 200.906 543.58C201.026 543.94 201.133 544.287 201.226 544.62C201.32 544.94 201.386 545.213 201.426 545.44H201.506C201.56 545.213 201.633 544.933 201.726 544.6C201.833 544.267 201.946 543.92 202.066 543.56C202.2 543.2 202.313 542.88 202.406 542.6L204.686 536.28H206.566L202.486 547H200.466ZM215.218 547H213.458V531.8H215.218V547ZM219.514 532.26C219.781 532.26 220.014 532.353 220.214 532.54C220.427 532.713 220.534 532.993 220.534 533.38C220.534 533.753 220.427 534.033 220.214 534.22C220.014 534.407 219.781 534.5 219.514 534.5C219.221 534.5 218.974 534.407 218.774 534.22C218.574 534.033 218.474 533.753 218.474 533.38C218.474 532.993 218.574 532.713 218.774 532.54C218.974 532.353 219.221 532.26 219.514 532.26ZM220.374 536.28V547H218.614V536.28H220.374ZM228.93 536.08C230.21 536.08 231.177 536.393 231.83 537.02C232.484 537.633 232.81 538.633 232.81 540.02V547H231.07V540.14C231.07 538.42 230.27 537.56 228.67 537.56C227.484 537.56 226.664 537.893 226.21 538.56C225.757 539.227 225.53 540.187 225.53 541.44V547H223.77V536.28H225.19L225.45 537.74H225.55C225.897 537.18 226.377 536.767 226.99 536.5C227.604 536.22 228.25 536.08 228.93 536.08ZM237.874 539.74C237.874 539.953 237.86 540.233 237.834 540.58C237.82 540.927 237.807 541.227 237.794 541.48H237.874C237.954 541.373 238.074 541.22 238.234 541.02C238.394 540.82 238.554 540.62 238.714 540.42C238.887 540.207 239.034 540.033 239.154 539.9L242.574 536.28H244.634L240.294 540.86L244.934 547H242.814L239.094 542L237.874 543.06V547H236.134V531.8H237.874V539.74Z" fill="#2B4380"/>
<path d="M170 549.5H245.114V550.5H170V549.5Z" fill="#2B4380"/>
<path d="M109 607.889C108.687 607.889 108.41 607.785 108.201 607.576L101.535 600.91C101.083 600.493 101.083 599.764 101.535 599.347C101.951 598.896 102.681 598.896 103.097 599.347L109 605.215L114.868 599.347C115.285 598.896 116.014 598.896 116.431 599.347C116.882 599.764 116.882 600.493 116.431 600.91L109.764 607.576C109.556 607.785 109.278 607.889 109 607.889Z" fill="#333333"/>
<path d="M149 610H145.82L139.06 598.8H138.98C138.993 599.093 139.007 599.407 139.02 599.74C139.047 600.06 139.067 600.393 139.08 600.74C139.093 601.073 139.107 601.413 139.12 601.76C139.133 602.107 139.147 602.453 139.16 602.8V610H136.86V595.72H140.02L146.76 606.84H146.82C146.807 606.573 146.793 606.287 146.78 605.98C146.767 605.66 146.753 605.333 146.74 605C146.74 604.667 146.733 604.327 146.72 603.98C146.707 603.633 146.693 603.3 146.68 602.98V595.72H149V610ZM156.799 598.96C158.199 598.96 159.259 599.267 159.979 599.88C160.713 600.48 161.079 601.427 161.079 602.72V610H159.299L158.799 608.5H158.719C158.413 608.887 158.093 609.213 157.759 609.48C157.439 609.733 157.066 609.913 156.639 610.02C156.226 610.14 155.719 610.2 155.119 610.2C154.479 610.2 153.899 610.08 153.379 609.84C152.873 609.6 152.473 609.233 152.179 608.74C151.886 608.233 151.739 607.6 151.739 606.84C151.739 605.72 152.146 604.88 152.959 604.32C153.786 603.747 155.033 603.433 156.699 603.38L158.579 603.32V602.78C158.579 602.087 158.413 601.593 158.079 601.3C157.746 601.007 157.279 600.86 156.679 600.86C156.133 600.86 155.606 600.94 155.099 601.1C154.593 601.26 154.099 601.447 153.619 601.66L152.819 599.9C153.353 599.62 153.959 599.393 154.639 599.22C155.333 599.047 156.053 598.96 156.799 598.96ZM157.259 604.92C156.153 604.96 155.386 605.153 154.959 605.5C154.533 605.833 154.319 606.287 154.319 606.86C154.319 607.367 154.473 607.733 154.779 607.96C155.086 608.187 155.479 608.3 155.959 608.3C156.693 608.3 157.313 608.093 157.819 607.68C158.326 607.253 158.579 606.627 158.579 605.8V604.88L157.259 604.92ZM166.737 610L162.617 599.16H165.277L167.437 605.42C167.531 605.673 167.617 605.953 167.697 606.26C167.777 606.553 167.844 606.847 167.897 607.14C167.964 607.42 168.004 607.667 168.017 607.88H168.097C168.124 607.653 168.171 607.4 168.237 607.12C168.304 606.827 168.377 606.533 168.457 606.24C168.551 605.947 168.637 605.673 168.717 605.42L170.877 599.16H173.537L169.417 610H166.737ZM183.99 598.96C184.67 598.96 185.284 599.093 185.83 599.36C186.377 599.627 186.837 600.027 187.21 600.56H187.31L187.55 599.16H189.65V610.08C189.65 611.107 189.457 611.967 189.07 612.66C188.684 613.367 188.104 613.9 187.33 614.26C186.557 614.62 185.59 614.8 184.43 614.8C183.657 614.8 182.944 614.747 182.29 614.64C181.637 614.547 181.017 614.38 180.43 614.14V612.06C180.844 612.233 181.27 612.38 181.71 612.5C182.164 612.633 182.63 612.733 183.11 612.8C183.59 612.867 184.084 612.9 184.59 612.9C185.417 612.9 186.044 612.667 186.47 612.2C186.91 611.733 187.13 611.067 187.13 610.2V609.92C187.13 609.72 187.137 609.487 187.15 609.22C187.177 608.953 187.197 608.74 187.21 608.58H187.13C186.757 609.14 186.304 609.553 185.77 609.82C185.237 610.073 184.624 610.2 183.93 610.2C182.61 610.2 181.577 609.707 180.83 608.72C180.084 607.733 179.71 606.36 179.71 604.6C179.71 603.413 179.877 602.4 180.21 601.56C180.557 600.72 181.05 600.08 181.69 599.64C182.33 599.187 183.097 598.96 183.99 598.96ZM184.65 601.02C184.144 601.02 183.71 601.16 183.35 601.44C183.004 601.707 182.737 602.107 182.55 602.64C182.377 603.173 182.29 603.84 182.29 604.64C182.29 605.813 182.49 606.7 182.89 607.3C183.29 607.9 183.89 608.2 184.69 608.2C185.144 608.2 185.53 608.147 185.85 608.04C186.17 607.92 186.43 607.733 186.63 607.48C186.844 607.213 187.004 606.88 187.11 606.48C187.217 606.067 187.27 605.573 187.27 605V604.62C187.27 603.753 187.177 603.06 186.99 602.54C186.804 602.007 186.517 601.62 186.13 601.38C185.757 601.14 185.264 601.02 184.65 601.02ZM198.55 598.96C198.71 598.96 198.897 598.967 199.11 598.98C199.323 598.993 199.503 599.02 199.65 599.06L199.43 601.4C199.31 601.373 199.15 601.353 198.95 601.34C198.763 601.313 198.597 601.3 198.45 601.3C198.05 601.3 197.663 601.367 197.29 601.5C196.93 601.62 196.603 601.807 196.31 602.06C196.03 602.3 195.803 602.613 195.63 603C195.47 603.387 195.39 603.847 195.39 604.38V610H192.87V599.16H194.81L195.17 601.04H195.29C195.503 600.653 195.77 600.307 196.09 600C196.41 599.68 196.777 599.427 197.19 599.24C197.617 599.053 198.07 598.96 198.55 598.96ZM210.948 604.56C210.948 605.467 210.828 606.267 210.588 606.96C210.348 607.653 210.002 608.247 209.548 608.74C209.108 609.22 208.562 609.587 207.908 609.84C207.268 610.08 206.555 610.2 205.768 610.2C205.022 610.2 204.335 610.08 203.708 609.84C203.082 609.587 202.535 609.22 202.068 608.74C201.615 608.247 201.262 607.653 201.008 606.96C200.755 606.267 200.628 605.467 200.628 604.56C200.628 603.36 200.835 602.347 201.248 601.52C201.662 600.68 202.255 600.047 203.028 599.62C203.815 599.18 204.742 598.96 205.808 598.96C206.822 598.96 207.708 599.18 208.468 599.62C209.242 600.047 209.848 600.68 210.288 601.52C210.728 602.347 210.948 603.36 210.948 604.56ZM203.208 604.56C203.208 605.32 203.295 605.973 203.468 606.52C203.655 607.053 203.935 607.46 204.308 607.74C204.695 608.02 205.188 608.16 205.788 608.16C206.402 608.16 206.895 608.02 207.268 607.74C207.655 607.46 207.935 607.053 208.108 606.52C208.282 605.973 208.368 605.32 208.368 604.56C208.368 603.787 208.275 603.14 208.088 602.62C207.915 602.087 207.635 601.687 207.248 601.42C206.875 601.14 206.388 601 205.788 601C204.882 601 204.222 601.307 203.808 601.92C203.408 602.533 203.208 603.413 203.208 604.56ZM223.174 599.16V610H221.194L220.854 608.6H220.734C220.507 608.973 220.214 609.28 219.854 609.52C219.494 609.747 219.1 609.913 218.674 610.02C218.247 610.14 217.807 610.2 217.354 610.2C216.554 610.2 215.86 610.06 215.274 609.78C214.687 609.5 214.24 609.073 213.934 608.5C213.627 607.913 213.474 607.16 213.474 606.24V599.16H215.994V605.74C215.994 606.54 216.154 607.147 216.474 607.56C216.794 607.96 217.3 608.16 217.994 608.16C218.674 608.16 219.207 608.02 219.594 607.74C219.98 607.447 220.254 607.027 220.414 606.48C220.574 605.933 220.654 605.26 220.654 604.46V599.16H223.174ZM232.086 598.96C233.352 598.96 234.372 599.433 235.146 600.38C235.919 601.313 236.306 602.707 236.306 604.56C236.306 605.787 236.126 606.82 235.766 607.66C235.406 608.5 234.906 609.133 234.266 609.56C233.626 609.987 232.879 610.2 232.026 610.2C231.506 610.2 231.046 610.133 230.646 610C230.246 609.853 229.906 609.673 229.626 609.46C229.346 609.233 229.106 608.993 228.906 608.74H228.746C228.799 608.98 228.839 609.253 228.866 609.56C228.892 609.853 228.906 610.133 228.906 610.4V614.8H226.386V599.16H228.426L228.786 600.6H228.906C229.106 600.293 229.346 600.02 229.626 599.78C229.919 599.527 230.266 599.327 230.666 599.18C231.079 599.033 231.552 598.96 232.086 598.96ZM231.366 601C230.779 601 230.306 601.12 229.946 601.36C229.586 601.587 229.326 601.94 229.166 602.42C229.006 602.9 228.919 603.5 228.906 604.22V604.54C228.906 605.313 228.979 605.967 229.126 606.5C229.286 607.033 229.546 607.44 229.906 607.72C230.279 608 230.779 608.14 231.406 608.14C231.939 608.14 232.372 607.993 232.706 607.7C233.052 607.407 233.306 606.993 233.466 606.46C233.639 605.913 233.726 605.267 233.726 604.52C233.726 603.4 233.532 602.533 233.146 601.92C232.772 601.307 232.179 601 231.366 601ZM246.62 610H244.1V594.8H246.62V610ZM254.163 598.96C255.563 598.96 256.623 599.267 257.343 599.88C258.076 600.48 258.443 601.427 258.443 602.72V610H256.663L256.163 608.5H256.083C255.776 608.887 255.456 609.213 255.123 609.48C254.803 609.733 254.429 609.913 254.003 610.02C253.589 610.14 253.083 610.2 252.483 610.2C251.843 610.2 251.263 610.08 250.743 609.84C250.236 609.6 249.836 609.233 249.543 608.74C249.249 608.233 249.103 607.6 249.103 606.84C249.103 605.72 249.509 604.88 250.323 604.32C251.149 603.747 252.396 603.433 254.063 603.38L255.943 603.32V602.78C255.943 602.087 255.776 601.593 255.443 601.3C255.109 601.007 254.643 600.86 254.043 600.86C253.496 600.86 252.969 600.94 252.463 601.1C251.956 601.26 251.463 601.447 250.983 601.66L250.183 599.9C250.716 599.62 251.323 599.393 252.003 599.22C252.696 599.047 253.416 598.96 254.163 598.96ZM254.623 604.92C253.516 604.96 252.749 605.153 252.323 605.5C251.896 605.833 251.683 606.287 251.683 606.86C251.683 607.367 251.836 607.733 252.143 607.96C252.449 608.187 252.843 608.3 253.323 608.3C254.056 608.3 254.676 608.093 255.183 607.68C255.689 607.253 255.943 606.627 255.943 605.8V604.88L254.623 604.92ZM264.12 598.4C264.12 598.827 264.107 599.24 264.08 599.64C264.054 600.04 264.027 600.353 264 600.58H264.12C264.414 600.127 264.814 599.747 265.32 599.44C265.827 599.12 266.487 598.96 267.3 598.96C268.567 598.96 269.587 599.433 270.36 600.38C271.134 601.327 271.52 602.72 271.52 604.56C271.52 605.8 271.34 606.84 270.98 607.68C270.634 608.52 270.134 609.153 269.48 609.58C268.84 609.993 268.094 610.2 267.24 610.2C266.427 610.2 265.774 610.053 265.28 609.76C264.8 609.467 264.414 609.127 264.12 608.74H263.94L263.48 610H261.6V594.8H264.12V598.4ZM266.58 601C265.967 601 265.48 601.12 265.12 601.36C264.774 601.6 264.52 601.967 264.36 602.46C264.2 602.953 264.12 603.58 264.12 604.34V604.56C264.12 605.72 264.294 606.607 264.64 607.22C265 607.833 265.66 608.14 266.62 608.14C267.367 608.14 267.94 607.833 268.34 607.22C268.74 606.593 268.94 605.7 268.94 604.54C268.94 603.367 268.734 602.487 268.32 601.9C267.92 601.3 267.34 601 266.58 601ZM278.48 598.96C279.453 598.96 280.287 599.16 280.98 599.56C281.687 599.947 282.233 600.507 282.62 601.24C283.007 601.96 283.2 602.84 283.2 603.88V605.16H276.04C276.067 606.147 276.34 606.913 276.86 607.46C277.38 607.993 278.1 608.26 279.02 608.26C279.727 608.26 280.353 608.193 280.9 608.06C281.46 607.913 282.033 607.707 282.62 607.44V609.46C282.087 609.713 281.533 609.9 280.96 610.02C280.387 610.14 279.7 610.2 278.9 610.2C277.847 610.2 276.907 610 276.08 609.6C275.267 609.187 274.627 608.567 274.16 607.74C273.707 606.913 273.48 605.887 273.48 604.66C273.48 603.42 273.687 602.38 274.1 601.54C274.527 600.687 275.113 600.047 275.86 599.62C276.607 599.18 277.48 598.96 278.48 598.96ZM278.48 600.82C277.813 600.82 277.267 601.04 276.84 601.48C276.427 601.907 276.18 602.547 276.1 603.4H280.76C280.76 602.893 280.673 602.447 280.5 602.06C280.34 601.673 280.093 601.373 279.76 601.16C279.427 600.933 279 600.82 278.48 600.82ZM288.261 610H285.741V594.8H288.261V610Z" fill="#333333"/>
<mask id="path-15-inside-1_17_392" fill="white">
<path d="M50 638H370V692H50V638Z"/>
</mask>
<path d="M50 638H370V692H50V638Z" fill="#D7E5F5"/>
<path d="M111.62 673H109L101.78 661.46H101.7C101.713 661.727 101.727 662.013 101.74 662.32C101.767 662.627 101.787 662.953 101.8 663.3C101.813 663.633 101.827 663.98 101.84 664.34C101.853 664.687 101.86 665.04 101.86 665.4V673H99.9V658.72H102.5L109.7 670.2H109.76C109.747 670 109.733 669.753 109.72 669.46C109.707 669.153 109.693 668.827 109.68 668.48C109.68 668.133 109.673 667.78 109.66 667.42C109.647 667.06 109.633 666.72 109.62 666.4V658.72H111.62V673ZM119.367 662.02C120.727 662.02 121.741 662.32 122.407 662.92C123.074 663.507 123.407 664.433 123.407 665.7V673H121.907L121.487 671.5H121.407C121.101 671.887 120.781 672.207 120.447 672.46C120.127 672.713 119.754 672.9 119.327 673.02C118.914 673.14 118.407 673.2 117.807 673.2C117.167 673.2 116.587 673.087 116.067 672.86C115.561 672.62 115.161 672.26 114.867 671.78C114.574 671.287 114.427 670.673 114.427 669.94C114.427 668.847 114.841 668.013 115.667 667.44C116.507 666.867 117.781 666.553 119.487 666.5L121.327 666.44V665.84C121.327 665.04 121.147 664.48 120.787 664.16C120.427 663.84 119.921 663.68 119.267 663.68C118.707 663.68 118.174 663.76 117.667 663.92C117.161 664.08 116.681 664.273 116.227 664.5L115.547 662.96C116.054 662.693 116.634 662.473 117.287 662.3C117.954 662.113 118.647 662.02 119.367 662.02ZM119.867 667.86C118.641 667.913 117.787 668.12 117.307 668.48C116.841 668.827 116.607 669.32 116.607 669.96C116.607 670.52 116.774 670.927 117.107 671.18C117.454 671.433 117.887 671.56 118.407 671.56C119.247 671.56 119.941 671.327 120.487 670.86C121.034 670.393 121.307 669.693 121.307 668.76V667.82L119.867 667.86ZM129.092 673L125.012 662.22H127.252L129.492 668.52C129.585 668.787 129.678 669.087 129.772 669.42C129.878 669.753 129.972 670.073 130.052 670.38C130.132 670.687 130.185 670.953 130.212 671.18H130.292C130.332 670.953 130.392 670.687 130.472 670.38C130.565 670.06 130.665 669.74 130.772 669.42C130.878 669.087 130.972 668.787 131.052 668.52L133.292 662.22H135.532L131.432 673H129.092ZM144.514 673H142.394V657.8H144.514V673ZM149.964 662.22V673H147.844V662.22H149.964ZM148.924 658.12C149.244 658.12 149.524 658.213 149.764 658.4C150.004 658.587 150.124 658.9 150.124 659.34C150.124 659.767 150.004 660.08 149.764 660.28C149.524 660.467 149.244 660.56 148.924 660.56C148.577 660.56 148.284 660.467 148.044 660.28C147.817 660.08 147.704 659.767 147.704 659.34C147.704 658.9 147.817 658.587 148.044 658.4C148.284 658.213 148.577 658.12 148.924 658.12ZM158.753 662.02C160.006 662.02 160.966 662.333 161.633 662.96C162.299 663.587 162.633 664.593 162.633 665.98V673H160.533V666.28C160.533 665.44 160.353 664.813 159.993 664.4C159.646 663.973 159.086 663.76 158.313 663.76C157.219 663.76 156.459 664.087 156.033 664.74C155.619 665.393 155.413 666.333 155.413 667.56V673H153.293V662.22H154.973L155.273 663.66H155.393C155.633 663.287 155.926 662.98 156.273 662.74C156.619 662.5 157.006 662.32 157.433 662.2C157.859 662.08 158.299 662.02 158.753 662.02ZM167.99 665.4C167.99 665.68 167.977 666 167.95 666.36C167.937 666.72 167.917 667.053 167.89 667.36H167.95C168.057 667.227 168.184 667.067 168.33 666.88C168.49 666.68 168.65 666.48 168.81 666.28C168.97 666.08 169.117 665.907 169.25 665.76L172.55 662.22H175.01L170.67 666.84L175.29 673H172.79L169.23 668.18L167.99 669.22V673H165.89V657.8H167.99V665.4Z" fill="#333333"/>
<path d="M54 692V638H46V692H54Z" fill="#33465C" mask="url(#path-15-inside-1_17_392)"/>
<g clip-path="url(#clip0_17_392)">
<rect x="370" y="665" width="84" height="1" fill="#C54600"/>
<g clip-path="url(#clip1_17_392)">
<rect x="430" y="653" width="24" height="24" rx="12" fill="#C54600"/>
<path d="M442.112 670.139C441.588 670.136 441.083 670.048 440.596 669.876C440.112 669.703 439.677 669.423 439.293 669.036C438.908 668.648 438.604 668.134 438.378 667.494C438.156 666.855 438.045 666.069 438.045 665.138C438.048 664.283 438.146 663.519 438.338 662.846C438.534 662.17 438.812 661.596 439.174 661.126C439.538 660.655 439.974 660.297 440.481 660.052C440.988 659.803 441.557 659.679 442.186 659.679C442.866 659.679 443.466 659.812 443.986 660.077C444.507 660.339 444.924 660.695 445.239 661.146C445.557 661.596 445.749 662.102 445.816 662.662H443.693C443.61 662.307 443.436 662.029 443.171 661.827C442.906 661.625 442.578 661.523 442.186 661.523C441.524 661.523 441.02 661.812 440.675 662.388C440.334 662.965 440.16 663.749 440.153 664.74H440.223C440.375 664.438 440.581 664.182 440.839 663.969C441.101 663.754 441.398 663.59 441.729 663.477C442.064 663.361 442.417 663.303 442.788 663.303C443.391 663.303 443.928 663.446 444.399 663.731C444.869 664.013 445.241 664.4 445.512 664.894C445.784 665.388 445.92 665.953 445.92 666.589C445.92 667.279 445.759 667.892 445.438 668.429C445.12 668.966 444.674 669.387 444.1 669.692C443.53 669.993 442.868 670.143 442.112 670.139ZM442.102 668.449C442.433 668.449 442.73 668.369 442.992 668.21C443.254 668.051 443.459 667.836 443.608 667.564C443.757 667.292 443.832 666.987 443.832 666.649C443.832 666.311 443.757 666.008 443.608 665.739C443.462 665.471 443.26 665.257 443.002 665.098C442.743 664.939 442.448 664.859 442.117 664.859C441.868 664.859 441.638 664.906 441.426 664.999C441.217 665.091 441.033 665.221 440.874 665.386C440.718 665.552 440.596 665.744 440.506 665.963C440.417 666.179 440.372 666.409 440.372 666.654C440.372 666.982 440.446 667.282 440.596 667.554C440.748 667.826 440.953 668.043 441.212 668.205C441.474 668.368 441.77 668.449 442.102 668.449Z" fill="white"/>
</g>
</g>
<g clip-path="url(#clip2_17_392)">
<rect y="602" width="92" height="1" fill="#C54600"/>
<g clip-path="url(#clip3_17_392)">
<rect y="590" width="24" height="24" rx="12" fill="#C54600"/>
<path d="M12.0323 607.139C11.3297 607.139 10.7032 607.01 10.1531 606.751C9.60618 606.493 9.17199 606.137 8.8505 605.683C8.529 605.228 8.36162 604.708 8.34837 604.121H10.4364C10.4596 604.516 10.6254 604.836 10.9336 605.081C11.2418 605.326 11.6081 605.449 12.0323 605.449C12.3704 605.449 12.6687 605.374 12.9272 605.225C13.189 605.073 13.3929 604.862 13.5387 604.594C13.6879 604.322 13.7624 604.01 13.7624 603.659C13.7624 603.301 13.6862 602.986 13.5337 602.714C13.3846 602.443 13.1774 602.231 12.9123 602.078C12.6471 601.926 12.3439 601.848 12.0025 601.844C11.7042 601.844 11.4142 601.906 11.1325 602.028C10.854 602.151 10.637 602.318 10.4812 602.531L8.56712 602.188L9.04936 596.818H15.2738V598.578H10.8242L10.5607 601.129H10.6204C10.7994 600.877 11.0695 600.668 11.4308 600.502C11.792 600.336 12.1964 600.254 12.6438 600.254C13.257 600.254 13.8039 600.398 14.2844 600.686C14.765 600.974 15.1445 601.371 15.4229 601.874C15.7013 602.375 15.8389 602.951 15.8356 603.604C15.8389 604.29 15.6798 604.9 15.3583 605.434C15.0401 605.964 14.5943 606.382 14.021 606.687C13.4509 606.988 12.788 607.139 12.0323 607.139Z" fill="white"/>
</g>
</g>
<g clip-path="url(#clip4_17_392)">
<rect x="300" y="350" width="75" height="1" fill="#C54600"/>
<g clip-path="url(#clip5_17_392)">
<rect x="351" y="338" width="24" height="24" rx="12" fill="#C54600"/>
<path d="M358.927 353.21V351.515L363.178 344.818H364.639V347.165H363.774L361.095 351.406V351.485H367.135V353.21H358.927ZM363.814 355V352.693L363.854 351.942V344.818H365.872V355H363.814Z" fill="white"/>
</g>
</g>
<g clip-path="url(#clip6_17_392)">
<rect x="46" y="571" width="6" height="1" fill="#C54600"/>
<rect x="46" y="202" width="1" height="370" fill="#C54600"/>
<rect x="46" y="329" width="6" height="1" fill="#C54600"/>
<rect x="2" y="451" width="45" height="1" fill="#C54600"/>
<g clip-path="url(#clip7_17_392)">
<rect y="439" width="24" height="24" rx="12" fill="#C54600"/>
<path d="M11.9745 456.139C11.2321 456.139 10.5709 456.012 9.99086 455.756C9.41415 455.498 8.95842 455.143 8.62367 454.692C8.29223 454.238 8.12154 453.715 8.11159 453.121H10.2792C10.2925 453.37 10.3737 453.589 10.5228 453.778C10.6753 453.963 10.8775 454.107 11.1294 454.21C11.3812 454.313 11.6646 454.364 11.9795 454.364C12.3076 454.364 12.5976 454.306 12.8495 454.19C13.1014 454.074 13.2986 453.914 13.4411 453.708C13.5837 453.503 13.6549 453.266 13.6549 452.997C13.6549 452.725 13.5787 452.485 13.4262 452.276C13.2771 452.064 13.0616 451.898 12.7799 451.779C12.5015 451.66 12.1701 451.6 11.7856 451.6H10.836V450.019H11.7856C12.1104 450.019 12.3971 449.963 12.6457 449.85C12.8976 449.737 13.0931 449.582 13.2323 449.383C13.3715 449.181 13.4411 448.945 13.4411 448.677C13.4411 448.422 13.3798 448.198 13.2572 448.006C13.1379 447.81 12.9688 447.658 12.7501 447.548C12.5347 447.439 12.2828 447.384 11.9944 447.384C11.7027 447.384 11.4359 447.437 11.194 447.543C10.952 447.646 10.7581 447.794 10.6123 447.986C10.4665 448.178 10.3886 448.403 10.3786 448.662H8.31543C8.32537 448.075 8.49275 447.558 8.81756 447.111C9.14237 446.663 9.57987 446.314 10.1301 446.062C10.6836 445.807 11.3083 445.679 12.0044 445.679C12.707 445.679 13.3218 445.807 13.8488 446.062C14.3758 446.317 14.7851 446.662 15.0768 447.096C15.3718 447.527 15.5176 448.011 15.5143 448.548C15.5176 449.118 15.3403 449.593 14.9823 449.974C14.6277 450.356 14.1653 450.598 13.5953 450.7V450.78C14.3443 450.876 14.9144 451.136 15.3055 451.56C15.6999 451.981 15.8954 452.508 15.8921 453.141C15.8954 453.721 15.7281 454.237 15.39 454.688C15.0553 455.138 14.5929 455.493 14.0029 455.751C13.413 456.01 12.7368 456.139 11.9745 456.139Z" fill="white"/>
</g>
</g>
<rect y="98" width="87" height="1" fill="#C54600"/>
<g clip-path="url(#clip8_17_392)">
<rect y="86" width="24" height="24" rx="12" fill="#C54600"/>
<path d="M8.4161 103V101.449L12.0404 98.093C12.3486 97.7947 12.6072 97.5263 12.816 97.2876C13.0281 97.049 13.1888 96.8153 13.2982 96.5866C13.4076 96.3546 13.4623 96.1044 13.4623 95.8359C13.4623 95.5376 13.3943 95.2808 13.2584 95.0653C13.1225 94.8466 12.9369 94.6792 12.7016 94.5632C12.4663 94.4439 12.1995 94.3842 11.9012 94.3842C11.5896 94.3842 11.3179 94.4472 11.0858 94.5732C10.8538 94.6991 10.6749 94.8797 10.5489 95.1151C10.423 95.3504 10.36 95.6304 10.36 95.9553H8.31667C8.31667 95.2891 8.46748 94.7107 8.76909 94.2202C9.0707 93.7296 9.49328 93.3501 10.0368 93.0817C10.5804 92.8132 11.2068 92.679 11.9161 92.679C12.6453 92.679 13.28 92.8082 13.8202 93.0668C14.3638 93.322 14.7864 93.6766 15.088 94.1307C15.3896 94.5848 15.5404 95.1051 15.5404 95.6918C15.5404 96.0762 15.4642 96.4557 15.3117 96.8303C15.1626 97.2048 14.8957 97.6207 14.5113 98.0781C14.1268 98.5322 13.5849 99.0774 12.8856 99.7138L11.3991 101.17V101.24H15.6746V103H8.4161Z" fill="white"/>
</g>
<g clip-path="url(#clip9_17_392)">
<rect y="31" width="50" height="1" fill="#C54600"/>
<g clip-path="url(#clip10_17_392)">
<rect y="19" width="24" height="24" rx="12" fill="#C54600"/>
<path d="M13.8302 25.8182V36H11.6775V27.8615H11.6178L9.28613 29.3232V27.4141L11.8067 25.8182H13.8302Z" fill="white"/>
</g>
</g>
<defs>
<clipPath id="clip0_17_392">
<rect width="84" height="24" fill="white" transform="translate(370 653)"/>
</clipPath>
<clipPath id="clip1_17_392">
<rect x="430" y="653" width="24" height="24" rx="12" fill="white"/>
</clipPath>
<clipPath id="clip2_17_392">
<rect width="92" height="24" fill="white" transform="translate(0 590)"/>
</clipPath>
<clipPath id="clip3_17_392">
<rect y="590" width="24" height="24" rx="12" fill="white"/>
</clipPath>
<clipPath id="clip4_17_392">
<rect width="75" height="24" fill="white" transform="translate(300 338)"/>
</clipPath>
<clipPath id="clip5_17_392">
<rect x="351" y="338" width="24" height="24" rx="12" fill="white"/>
</clipPath>
<clipPath id="clip6_17_392">
<rect width="53" height="243" fill="white" transform="translate(0 329)"/>
</clipPath>
<clipPath id="clip7_17_392">
<rect y="439" width="24" height="24" rx="12" fill="white"/>
</clipPath>
<clipPath id="clip8_17_392">
<rect y="86" width="24" height="24" rx="12" fill="white"/>
</clipPath>
<clipPath id="clip9_17_392">
<rect width="49.9557" height="24" fill="white" transform="translate(0 19)"/>
</clipPath>
<clipPath id="clip10_17_392">
<rect y="19" width="24" height="24" rx="12" fill="white"/>
</clipPath>
</defs>
</svg>
