<svg width="109" height="128" viewBox="0 0 109 128" fill="none" xmlns="http://www.w3.org/2000/svg">
<path d="M16.0712 78H13.4512L6.23117 66.46H6.15117C6.17784 66.9933 6.20451 67.6067 6.23117 68.3C6.27117 68.98 6.29784 69.68 6.31117 70.4V78H4.35117V63.72H6.95117L14.1512 75.2H14.2112C14.1978 74.92 14.1778 74.5667 14.1512 74.14C14.1378 73.7133 14.1245 73.26 14.1112 72.78C14.0978 72.2867 14.0845 71.8267 14.0712 71.4V63.72H16.0712V78ZM23.8785 67.02C25.2918 67.02 26.4052 67.46 27.2185 68.34C28.0318 69.2067 28.4385 70.3933 28.4385 71.9V73.06H21.1985C21.2252 74.1667 21.5118 75.0133 22.0585 75.6C22.6185 76.1867 23.3985 76.48 24.3985 76.48C25.0918 76.48 25.7052 76.42 26.2385 76.3C26.7852 76.1667 27.3452 75.9733 27.9185 75.72V77.48C27.3718 77.7333 26.8252 77.9133 26.2785 78.02C25.7318 78.14 25.0785 78.2 24.3185 78.2C23.2785 78.2 22.3585 77.9933 21.5585 77.58C20.7585 77.1667 20.1318 76.5533 19.6785 75.74C19.2385 74.9267 19.0185 73.9133 19.0185 72.7C19.0185 71.4867 19.2185 70.46 19.6185 69.62C20.0318 68.78 20.5985 68.14 21.3185 67.7C22.0518 67.2467 22.9052 67.02 23.8785 67.02ZM23.8785 68.66C23.1185 68.66 22.5052 68.9067 22.0385 69.4C21.5852 69.8933 21.3185 70.5933 21.2385 71.5H26.3185C26.3052 70.66 26.0985 69.98 25.6985 69.46C25.3118 68.9267 24.7052 68.66 23.8785 68.66ZM33.1532 72.5L29.4932 67.22H31.9132L34.4732 71.1L37.0332 67.22H39.4332L35.7732 72.5L39.6132 78H37.2132L34.4732 73.88L31.7132 78H29.3132L33.1532 72.5ZM45.4326 76.48C46.0326 76.48 46.5726 76.3933 47.0526 76.22V77.82C46.8259 77.9267 46.5192 78.0133 46.1326 78.08C45.7459 78.16 45.3592 78.2 44.9726 78.2C44.3859 78.2 43.8459 78.1 43.3526 77.9C42.8726 77.7 42.4859 77.3533 42.1926 76.86C41.8992 76.3667 41.7526 75.68 41.7526 74.8V68.84H40.2526V67.88L41.8326 67.08L42.5726 64.8H43.8726V67.22H46.9526V68.84H43.8726V74.76C43.8726 75.3467 44.0126 75.78 44.2926 76.06C44.5859 76.34 44.9659 76.48 45.4326 76.48Z" fill="#284162"/>
<path d="M2.45117 80.5H47.5526V81.5H2.45117V80.5Z" fill="#284162"/>
<path d="M12.2272 101.06C12.2272 102.02 11.9605 102.787 11.4272 103.36C10.8939 103.92 10.1739 104.293 9.26719 104.48V104.56C10.4139 104.693 11.2672 105.053 11.8272 105.64C12.3872 106.227 12.6672 106.993 12.6672 107.94C12.6672 108.767 12.4739 109.507 12.0872 110.16C11.7005 110.8 11.1005 111.3 10.2872 111.66C9.48719 112.02 8.45385 112.2 7.18719 112.2C6.44052 112.2 5.74719 112.14 5.10719 112.02C4.46719 111.913 3.85385 111.713 3.26719 111.42V109.78C3.86719 110.073 4.51385 110.307 5.20719 110.48C5.90052 110.64 6.56719 110.72 7.20719 110.72C8.48719 110.72 9.40719 110.473 9.96719 109.98C10.5405 109.473 10.8272 108.78 10.8272 107.9C10.8272 107.007 10.4739 106.367 9.76719 105.98C9.07385 105.58 8.09385 105.38 6.82719 105.38H5.44719V103.88H6.84719C8.02052 103.88 8.90719 103.633 9.50719 103.14C10.1205 102.647 10.4272 101.993 10.4272 101.18C10.4272 100.487 10.1939 99.9533 9.72719 99.58C9.26052 99.1933 8.62719 99 7.82719 99C7.05385 99 6.39385 99.1133 5.84719 99.34C5.30052 99.5667 4.76052 99.8533 4.22719 100.2L3.34719 99C3.85385 98.6 4.48052 98.2533 5.22719 97.96C5.98719 97.6667 6.84719 97.52 7.80719 97.52C9.30052 97.52 10.4072 97.8533 11.1272 98.52C11.8605 99.1867 12.2272 100.033 12.2272 101.06ZM30.0278 106.62C30.0278 108.393 29.5745 109.767 28.6678 110.74C27.7745 111.713 26.5611 112.2 25.0278 112.2C24.0811 112.2 23.2345 111.987 22.4878 111.56C21.7545 111.12 21.1745 110.487 20.7478 109.66C20.3211 108.82 20.1078 107.807 20.1078 106.62C20.1078 104.847 20.5545 103.48 21.4478 102.52C22.3411 101.56 23.5545 101.08 25.0878 101.08C26.0611 101.08 26.9145 101.3 27.6478 101.74C28.3945 102.167 28.9745 102.793 29.3878 103.62C29.8145 104.433 30.0278 105.433 30.0278 106.62ZM21.9278 106.62C21.9278 107.887 22.1745 108.893 22.6678 109.64C23.1745 110.373 23.9745 110.74 25.0678 110.74C26.1478 110.74 26.9411 110.373 27.4478 109.64C27.9545 108.893 28.2078 107.887 28.2078 106.62C28.2078 105.353 27.9545 104.36 27.4478 103.64C26.9411 102.92 26.1411 102.56 25.0478 102.56C23.9545 102.56 23.1611 102.92 22.6678 103.64C22.1745 104.36 21.9278 105.353 21.9278 106.62ZM37.7572 102.64H35.0572V112H33.2972V102.64H31.4172V101.82L33.2972 101.22V100.6C33.2972 99.2133 33.6039 98.22 34.2172 97.62C34.8305 97.0067 35.6839 96.7 36.7772 96.7C37.2039 96.7 37.5905 96.74 37.9372 96.82C38.2972 96.8867 38.6039 96.9667 38.8572 97.06L38.3972 98.44C38.1839 98.3733 37.9372 98.3067 37.6572 98.24C37.3772 98.1733 37.0905 98.14 36.7972 98.14C36.2105 98.14 35.7705 98.34 35.4772 98.74C35.1972 99.1267 35.0572 99.74 35.0572 100.58V101.28H37.7572V102.64ZM48.6875 103.24C50.1542 103.24 51.3208 103.607 52.1875 104.34C53.0542 105.073 53.4875 106.107 53.4875 107.44C53.4875 108.92 53.0142 110.087 52.0675 110.94C51.1342 111.78 49.8275 112.2 48.1475 112.2C47.4142 112.2 46.7208 112.133 46.0675 112C45.4275 111.867 44.8875 111.673 44.4475 111.42V109.76C44.9275 110.053 45.5075 110.287 46.1875 110.46C46.8808 110.62 47.5408 110.7 48.1675 110.7C49.2208 110.7 50.0675 110.453 50.7075 109.96C51.3608 109.453 51.6875 108.673 51.6875 107.62C51.6875 106.687 51.4008 105.973 50.8275 105.48C50.2542 104.973 49.3475 104.72 48.1075 104.72C47.7342 104.72 47.3075 104.753 46.8275 104.82C46.3475 104.887 45.9608 104.953 45.6675 105.02L44.7875 104.46L45.3275 97.72H52.4875V99.32H46.8275L46.4875 103.46C46.7142 103.42 47.0208 103.373 47.4075 103.32C47.7942 103.267 48.2208 103.24 48.6875 103.24Z" fill="#284162"/>
<path d="M2.36719 114.5H54.6275V115.5H2.36719V114.5Z" fill="#284162"/>
<path d="M76.8421 70L70 76.8421L71.5789 78.4211L80 70L71.5789 61.5789L70 63.1579L76.8421 70Z" fill="#284162"/>
<g clip-path="url(#clip0_6135_18254)">
<rect x="71" width="1" height="60" fill="#C54600"/>
<g clip-path="url(#clip1_6135_18254)">
<rect x="59" width="24" height="24" rx="12" fill="#C54600"/>
<path d="M67.4161 17V15.4489L71.0404 12.093C71.3486 11.7947 71.6072 11.5263 71.816 11.2876C72.0281 11.049 72.1888 10.8153 72.2982 10.5866C72.4076 10.3546 72.4623 10.1044 72.4623 9.83594C72.4623 9.53764 72.3943 9.28078 72.2584 9.06534C72.1225 8.84659 71.9369 8.67921 71.7016 8.56321C71.4663 8.44389 71.1995 8.38423 70.9012 8.38423C70.5896 8.38423 70.3179 8.44721 70.0858 8.57315C69.8538 8.6991 69.6749 8.87973 69.5489 9.11506C69.423 9.35038 69.36 9.63044 69.36 9.95526H67.3167C67.3167 9.28906 67.4675 8.7107 67.7691 8.22017C68.0707 7.72964 68.4933 7.35014 69.0368 7.08168C69.5804 6.81321 70.2068 6.67898 70.9161 6.67898C71.6453 6.67898 72.28 6.80824 72.8202 7.06676C73.3638 7.32197 73.7864 7.67661 74.088 8.13068C74.3896 8.58475 74.5404 9.10511 74.5404 9.69176C74.5404 10.0762 74.4642 10.4557 74.3117 10.8303C74.1626 11.2048 73.8957 11.6207 73.5113 12.0781C73.1268 12.5322 72.5849 13.0774 71.8856 13.7138L70.3991 15.1705V15.2401H74.6746V17H67.4161Z" fill="white"/>
</g>
</g>
<g clip-path="url(#clip2_6135_18254)">
<rect x="20" width="1" height="60" fill="#C54600"/>
<g clip-path="url(#clip3_6135_18254)">
<rect x="8" width="24" height="24" rx="12" fill="#C54600"/>
<path d="M21.8302 6.81818V17H19.6775V8.86151H19.6178L17.2861 10.3232V8.41406L19.8067 6.81818H21.8302Z" fill="white"/>
</g>
</g>
<g clip-path="url(#clip4_6135_18254)">
<rect x="61" y="104" width="48" height="1" fill="#C54600"/>
<g clip-path="url(#clip5_6135_18254)">
<rect x="85" y="92" width="24" height="24" rx="12" fill="#C54600"/>
<path d="M96.9745 109.139C96.2321 109.139 95.5709 109.012 94.9909 108.756C94.4142 108.498 93.9584 108.143 93.6237 107.692C93.2922 107.238 93.1215 106.715 93.1116 106.121H95.2792C95.2925 106.37 95.3737 106.589 95.5228 106.778C95.6753 106.963 95.8775 107.107 96.1294 107.21C96.3812 107.313 96.6646 107.364 96.9795 107.364C97.3076 107.364 97.5976 107.306 97.8495 107.19C98.1014 107.074 98.2986 106.914 98.4411 106.708C98.5837 106.503 98.6549 106.266 98.6549 105.997C98.6549 105.725 98.5787 105.485 98.4262 105.276C98.2771 105.064 98.0616 104.898 97.7799 104.779C97.5015 104.66 97.1701 104.6 96.7856 104.6H95.836V103.019H96.7856C97.1104 103.019 97.3971 102.963 97.6457 102.85C97.8976 102.737 98.0931 102.582 98.2323 102.383C98.3715 102.181 98.4411 101.945 98.4411 101.677C98.4411 101.422 98.3798 101.198 98.2572 101.006C98.1379 100.81 97.9688 100.658 97.7501 100.548C97.5347 100.439 97.2828 100.384 96.9944 100.384C96.7027 100.384 96.4359 100.437 96.194 100.543C95.952 100.646 95.7581 100.794 95.6123 100.986C95.4665 101.178 95.3886 101.403 95.3786 101.662H93.3154C93.3254 101.075 93.4927 100.558 93.8176 100.111C94.1424 99.6634 94.5799 99.3137 95.1301 99.0618C95.6836 98.8066 96.3083 98.679 97.0044 98.679C97.707 98.679 98.3218 98.8066 98.8488 99.0618C99.3758 99.317 99.7851 99.6617 100.077 100.096C100.372 100.527 100.518 101.011 100.514 101.548C100.518 102.118 100.34 102.593 99.9823 102.974C99.6277 103.356 99.1653 103.598 98.5953 103.7V103.78C99.3443 103.876 99.9144 104.136 100.305 104.56C100.7 104.981 100.895 105.508 100.892 106.141C100.895 106.721 100.728 107.237 100.39 107.688C100.055 108.138 99.5929 108.493 99.0029 108.751C98.413 109.01 97.7368 109.139 96.9745 109.139Z" fill="white"/>
</g>
</g>
<defs>
<clipPath id="clip0_6135_18254">
<rect width="24" height="60" fill="white" transform="translate(59)"/>
</clipPath>
<clipPath id="clip1_6135_18254">
<rect x="59" width="24" height="24" rx="12" fill="white"/>
</clipPath>
<clipPath id="clip2_6135_18254">
<rect width="24" height="60" fill="white" transform="translate(8)"/>
</clipPath>
<clipPath id="clip3_6135_18254">
<rect x="8" width="24" height="24" rx="12" fill="white"/>
</clipPath>
<clipPath id="clip4_6135_18254">
<rect width="48" height="24" fill="white" transform="translate(61 92)"/>
</clipPath>
<clipPath id="clip5_6135_18254">
<rect x="85" y="92" width="24" height="24" rx="12" fill="white"/>
</clipPath>
</defs>
</svg>
