<svg width="126" height="115" viewBox="0 0 126 115" fill="none" xmlns="http://www.w3.org/2000/svg">
<path d="M51.74 21H49.94V6.72H57.92V8.3H51.74V13.36H57.54V14.94H51.74V21ZM65.0711 10.08C65.2711 10.08 65.4844 10.0933 65.7111 10.12C65.9511 10.1333 66.1578 10.16 66.3311 10.2L66.1111 11.82C65.9378 11.78 65.7444 11.7467 65.5311 11.72C65.3311 11.6933 65.1378 11.68 64.9511 11.68C64.4044 11.68 63.8911 11.8333 63.4111 12.14C62.9311 12.4333 62.5444 12.8533 62.2511 13.4C61.9711 13.9333 61.8311 14.56 61.8311 15.28V21H60.0711V10.28H61.5111L61.7111 12.24H61.7911C62.1378 11.6533 62.5844 11.1467 63.1311 10.72C63.6778 10.2933 64.3244 10.08 65.0711 10.08ZM72.0022 10.1C73.3089 10.1 74.2755 10.3867 74.9022 10.96C75.5289 11.5333 75.8422 12.4467 75.8422 13.7V21H74.5622L74.2222 19.48H74.1422C73.6755 20.0667 73.1822 20.5 72.6622 20.78C72.1555 21.06 71.4489 21.2 70.5422 21.2C69.5689 21.2 68.7622 20.9467 68.1222 20.44C67.4822 19.92 67.1622 19.1133 67.1622 18.02C67.1622 16.9533 67.5822 16.1333 68.4222 15.56C69.2622 14.9733 70.5555 14.6533 72.3022 14.6L74.1222 14.54V13.9C74.1222 13.0067 73.9289 12.3867 73.5422 12.04C73.1555 11.6933 72.6089 11.52 71.9022 11.52C71.3422 11.52 70.8089 11.6067 70.3022 11.78C69.7955 11.94 69.3222 12.1267 68.8822 12.34L68.3422 11.02C68.8089 10.7667 69.3622 10.5533 70.0022 10.38C70.6422 10.1933 71.3089 10.1 72.0022 10.1ZM72.5222 15.82C71.1889 15.8733 70.2622 16.0867 69.7422 16.46C69.2355 16.8333 68.9822 17.36 68.9822 18.04C68.9822 18.64 69.1622 19.08 69.5222 19.36C69.8955 19.64 70.3689 19.78 70.9422 19.78C71.8489 19.78 72.6022 19.5333 73.2022 19.04C73.8022 18.5333 74.1022 17.76 74.1022 16.72V15.76L72.5222 15.82ZM84.3131 10.08C85.5931 10.08 86.5598 10.3933 87.2131 11.02C87.8665 11.6333 88.1931 12.6333 88.1931 14.02V21H86.4531V14.14C86.4531 12.42 85.6531 11.56 84.0531 11.56C82.8665 11.56 82.0465 11.8933 81.5931 12.56C81.1398 13.2267 80.9131 14.1867 80.9131 15.44V21H79.1531V10.28H80.5731L80.8331 11.74H80.9331C81.2798 11.18 81.7598 10.7667 82.3731 10.5C82.9865 10.22 83.6331 10.08 84.3131 10.08ZM95.8164 21.2C94.8697 21.2 94.0231 21.0067 93.2764 20.62C92.5431 20.2333 91.9631 19.6333 91.5364 18.82C91.1231 18.0067 90.9164 16.9667 90.9164 15.7C90.9164 14.38 91.1364 13.3067 91.5764 12.48C92.0164 11.6533 92.6097 11.0467 93.3564 10.66C94.1164 10.2733 94.9764 10.08 95.9364 10.08C96.4831 10.08 97.0097 10.14 97.5164 10.26C98.0231 10.3667 98.4364 10.5 98.7564 10.66L98.2164 12.12C97.8964 12 97.5231 11.8867 97.0964 11.78C96.6697 11.6733 96.2697 11.62 95.8964 11.62C93.7897 11.62 92.7364 12.9733 92.7364 15.68C92.7364 16.9733 92.9897 17.9667 93.4964 18.66C94.0164 19.34 94.7831 19.68 95.7964 19.68C96.3831 19.68 96.8964 19.62 97.3364 19.5C97.7897 19.38 98.2031 19.2333 98.5764 19.06V20.62C98.2164 20.8067 97.8164 20.9467 97.3764 21.04C96.9497 21.1467 96.4297 21.2 95.8164 21.2ZM97.4564 23.78C97.4564 24.42 97.2097 24.9133 96.7164 25.26C96.2231 25.62 95.4831 25.8 94.4964 25.8C94.0697 25.8 93.7364 25.7667 93.4964 25.7V24.6C93.6164 24.6267 93.7764 24.6467 93.9764 24.66C94.1764 24.6867 94.3697 24.7 94.5564 24.7C95.0364 24.7 95.4031 24.6333 95.6564 24.5C95.9097 24.38 96.0364 24.1533 96.0364 23.82C96.0364 23.4733 95.8564 23.22 95.4964 23.06C95.1497 22.9 94.7231 22.7867 94.2164 22.72L95.0764 21H96.2364L95.7164 22.06C96.1964 22.1667 96.6031 22.3533 96.9364 22.62C97.2831 22.8867 97.4564 23.2733 97.4564 23.78ZM105.186 10.1C106.492 10.1 107.459 10.3867 108.086 10.96C108.712 11.5333 109.026 12.4467 109.026 13.7V21H107.746L107.406 19.48H107.326C106.859 20.0667 106.366 20.5 105.846 20.78C105.339 21.06 104.632 21.2 103.726 21.2C102.752 21.2 101.946 20.9467 101.306 20.44C100.666 19.92 100.346 19.1133 100.346 18.02C100.346 16.9533 100.766 16.1333 101.606 15.56C102.446 14.9733 103.739 14.6533 105.486 14.6L107.306 14.54V13.9C107.306 13.0067 107.112 12.3867 106.726 12.04C106.339 11.6933 105.792 11.52 105.086 11.52C104.526 11.52 103.992 11.6067 103.486 11.78C102.979 11.94 102.506 12.1267 102.066 12.34L101.526 11.02C101.992 10.7667 102.546 10.5533 103.186 10.38C103.826 10.1933 104.492 10.1 105.186 10.1ZM105.706 15.82C104.372 15.8733 103.446 16.0867 102.926 16.46C102.419 16.8333 102.166 17.36 102.166 18.04C102.166 18.64 102.346 19.08 102.706 19.36C103.079 19.64 103.552 19.78 104.126 19.78C105.032 19.78 105.786 19.5333 106.386 19.04C106.986 18.5333 107.286 17.76 107.286 16.72V15.76L105.706 15.82ZM113.237 6.26C113.503 6.26 113.737 6.35333 113.937 6.54C114.15 6.71333 114.257 6.99333 114.257 7.38C114.257 7.75333 114.15 8.03333 113.937 8.22C113.737 8.40667 113.503 8.5 113.237 8.5C112.943 8.5 112.697 8.40667 112.497 8.22C112.297 8.03333 112.197 7.75333 112.197 7.38C112.197 6.99333 112.297 6.71333 112.497 6.54C112.697 6.35333 112.943 6.26 113.237 6.26ZM114.097 10.28V21H112.337V10.28H114.097ZM124.473 18.04C124.473 19.08 124.086 19.8667 123.313 20.4C122.54 20.9333 121.5 21.2 120.193 21.2C119.446 21.2 118.8 21.14 118.253 21.02C117.72 20.9 117.246 20.7333 116.833 20.52V18.92C117.26 19.1333 117.773 19.3333 118.373 19.52C118.986 19.6933 119.606 19.78 120.233 19.78C121.126 19.78 121.773 19.64 122.173 19.36C122.573 19.0667 122.773 18.68 122.773 18.2C122.773 17.9333 122.7 17.6933 122.553 17.48C122.406 17.2667 122.14 17.0533 121.753 16.84C121.38 16.6267 120.84 16.3867 120.133 16.12C119.44 15.8533 118.846 15.5867 118.353 15.32C117.86 15.0533 117.48 14.7333 117.213 14.36C116.946 13.9867 116.813 13.5067 116.813 12.92C116.813 12.0133 117.18 11.3133 117.913 10.82C118.66 10.3267 119.633 10.08 120.833 10.08C121.486 10.08 122.093 10.1467 122.653 10.28C123.226 10.4 123.76 10.5733 124.253 10.8L123.653 12.2C123.2 12.0133 122.726 11.8533 122.233 11.72C121.74 11.5867 121.233 11.52 120.713 11.52C119.993 11.52 119.44 11.64 119.053 11.88C118.68 12.1067 118.493 12.42 118.493 12.82C118.493 13.1133 118.58 13.3667 118.753 13.58C118.926 13.78 119.213 13.98 119.613 14.18C120.026 14.3667 120.573 14.5933 121.253 14.86C121.933 15.1133 122.513 15.3733 122.993 15.64C123.473 15.9067 123.84 16.2333 124.093 16.62C124.346 16.9933 124.473 17.4667 124.473 18.04Z" fill="#26374A"/>
<path d="M48 23.5H125.373V24.5H48V23.5Z" fill="#26374A"/>
<path d="M96.24 100.5H94.44V86.22H102.42V87.8H96.24V92.86H102.04V94.44H96.24V100.5ZM108.751 86.22C110.524 86.22 111.831 86.56 112.671 87.24C113.524 87.9067 113.951 88.92 113.951 90.28C113.951 91.04 113.811 91.6733 113.531 92.18C113.251 92.6867 112.891 93.0933 112.451 93.4C112.024 93.6933 111.571 93.9267 111.091 94.1L115.011 100.5H112.911L109.451 94.6H106.611V100.5H104.811V86.22H108.751ZM108.651 87.78H106.611V93.08H108.751C109.911 93.08 110.758 92.8533 111.291 92.4C111.824 91.9333 112.091 91.2533 112.091 90.36C112.091 89.4267 111.811 88.7667 111.251 88.38C110.691 87.98 109.824 87.78 108.651 87.78Z" fill="#26374A"/>
<path d="M92.5 103H115.311V104H92.5V103Z" fill="#26374A"/>
<g clip-path="url(#clip0_6976_17936)">
<rect y="13.5" width="48" height="1" fill="#C54600"/>
<g clip-path="url(#clip1_6976_17936)">
<rect y="1.5" width="24" height="24" rx="12" fill="#C54600"/>
<path d="M13.8302 8.31818V18.5H11.6775V10.3615H11.6178L9.28613 11.8232V9.91406L11.8067 8.31818H13.8302Z" fill="white"/>
</g>
</g>
<g clip-path="url(#clip2_6976_17936)">
<rect y="93" width="82" height="1" fill="#C54600"/>
<g clip-path="url(#clip3_6976_17936)">
<rect y="81" width="24" height="24" rx="12" fill="#C54600"/>
<path d="M8.4161 98V96.4489L12.0404 93.093C12.3486 92.7947 12.6072 92.5263 12.816 92.2876C13.0281 92.049 13.1888 91.8153 13.2982 91.5866C13.4076 91.3546 13.4623 91.1044 13.4623 90.8359C13.4623 90.5376 13.3943 90.2808 13.2584 90.0653C13.1225 89.8466 12.9369 89.6792 12.7016 89.5632C12.4663 89.4439 12.1995 89.3842 11.9012 89.3842C11.5896 89.3842 11.3179 89.4472 11.0858 89.5732C10.8538 89.6991 10.6749 89.8797 10.5489 90.1151C10.423 90.3504 10.36 90.6304 10.36 90.9553H8.31667C8.31667 90.2891 8.46748 89.7107 8.76909 89.2202C9.0707 88.7296 9.49328 88.3501 10.0368 88.0817C10.5804 87.8132 11.2068 87.679 11.9161 87.679C12.6453 87.679 13.28 87.8082 13.8202 88.0668C14.3638 88.322 14.7864 88.6766 15.088 89.1307C15.3896 89.5848 15.5404 90.1051 15.5404 90.6918C15.5404 91.0762 15.4642 91.4557 15.3117 91.8303C15.1626 92.2048 14.8957 92.6207 14.5113 93.0781C14.1268 93.5322 13.5849 94.0774 12.8856 94.7138L11.3991 96.1705V96.2401H15.6746V98H8.4161Z" fill="white"/>
</g>
</g>
<defs>
<clipPath id="clip0_6976_17936">
<rect width="48" height="24" fill="white" transform="translate(0 1.5)"/>
</clipPath>
<clipPath id="clip1_6976_17936">
<rect y="1.5" width="24" height="24" rx="12" fill="white"/>
</clipPath>
<clipPath id="clip2_6976_17936">
<rect width="82" height="24" fill="white" transform="translate(0 81)"/>
</clipPath>
<clipPath id="clip3_6976_17936">
<rect y="81" width="24" height="24" rx="12" fill="white"/>
</clipPath>
</defs>
</svg>
