<svg width="320" height="84" viewBox="0 0 320 84" fill="none" xmlns="http://www.w3.org/2000/svg">
<path d="M9.24 8.06C9.16667 8.18 9.09 8.27 9.01 8.33C8.93 8.38333 8.83 8.41 8.71 8.41C8.58333 8.41 8.44 8.35667 8.28 8.25C8.12667 8.14333 7.93333 8.02667 7.7 7.9C7.47333 7.76667 7.20333 7.64667 6.89 7.54C6.57667 7.42667 6.20333 7.37 5.77 7.37C5.37 7.37 5.01667 7.42 4.71 7.52C4.41 7.62 4.15667 7.76 3.95 7.94C3.74333 8.12 3.58667 8.33333 3.48 8.58C3.38 8.82 3.33 9.08333 3.33 9.37C3.33 9.73667 3.42667 10.0433 3.62 10.29C3.81333 10.53 4.06667 10.7367 4.38 10.91C4.7 11.0833 5.06333 11.2367 5.47 11.37C5.87667 11.4967 6.29 11.6333 6.71 11.78C7.13667 11.9267 7.55333 12.0933 7.96 12.28C8.36667 12.4667 8.72667 12.7033 9.04 12.99C9.36 13.2767 9.61667 13.6267 9.81 14.04C10.0033 14.4533 10.1 14.9567 10.1 15.55C10.1 16.19 9.99 16.79 9.77 17.35C9.55 17.91 9.23 18.4 8.81 18.82C8.39667 19.2333 7.88333 19.56 7.27 19.8C6.66333 20.04 5.97 20.16 5.19 20.16C4.73 20.16 4.28 20.1133 3.84 20.02C3.40667 19.9333 2.99 19.81 2.59 19.65C2.19667 19.4833 1.82667 19.2833 1.48 19.05C1.13333 18.8167 0.823333 18.5567 0.55 18.27L1.23 17.15C1.29 17.0567 1.36667 16.9833 1.46 16.93C1.55333 16.8767 1.65667 16.85 1.77 16.85C1.92333 16.85 2.09333 16.9233 2.28 17.07C2.46667 17.21 2.69 17.3667 2.95 17.54C3.21667 17.7067 3.53667 17.8633 3.91 18.01C4.28333 18.15 4.73 18.22 5.25 18.22C6.09667 18.22 6.75 18.0133 7.21 17.6C7.67667 17.1867 7.91 16.6167 7.91 15.89C7.91 15.4833 7.81333 15.1533 7.62 14.9C7.42667 14.64 7.17 14.4233 6.85 14.25C6.53667 14.0767 6.17667 13.93 5.77 13.81C5.36333 13.69 4.95 13.5633 4.53 13.43C4.11 13.29 3.69667 13.13 3.29 12.95C2.88333 12.7633 2.52 12.5233 2.2 12.23C1.88667 11.93 1.63333 11.5633 1.44 11.13C1.24667 10.69 1.15 10.1433 1.15 9.49C1.15 8.97 1.25 8.46667 1.45 7.98C1.65667 7.49333 1.95333 7.06333 2.34 6.69C2.73333 6.31 3.21667 6.00667 3.79 5.78C4.36333 5.55333 5.01667 5.44 5.75 5.44C6.57667 5.44 7.33333 5.57 8.02 5.83C8.71333 6.09 9.31 6.46 9.81 6.94L9.24 8.06ZM15.0488 20.16C14.2021 20.16 13.5488 19.9233 13.0888 19.45C12.6354 18.97 12.4088 18.2967 12.4088 17.43V11.49H11.2888C11.1688 11.49 11.0654 11.4533 10.9788 11.38C10.8921 11.3 10.8488 11.1833 10.8488 11.03V10.16L12.4988 9.92L12.9688 6.97C13.0021 6.85667 13.0588 6.76667 13.1388 6.7C13.2188 6.62667 13.3254 6.59 13.4588 6.59H14.5588V9.94H17.3888V11.49H14.5588V17.28C14.5588 17.6467 14.6488 17.9267 14.8288 18.12C15.0088 18.3133 15.2488 18.41 15.5488 18.41C15.7154 18.41 15.8588 18.39 15.9787 18.35C16.0988 18.3033 16.2021 18.2567 16.2888 18.21C16.3754 18.1567 16.4488 18.11 16.5088 18.07C16.5754 18.0233 16.6388 18 16.6988 18C16.8188 18 16.9154 18.0667 16.9888 18.2L17.6288 19.25C17.2954 19.5433 16.9021 19.77 16.4488 19.93C15.9954 20.0833 15.5288 20.16 15.0488 20.16ZM25.6953 13.75C25.6953 13.39 25.642 13.0567 25.5353 12.75C25.4353 12.4367 25.2853 12.1667 25.0853 11.94C24.8853 11.7067 24.6353 11.5267 24.3353 11.4C24.042 11.2667 23.702 11.2 23.3153 11.2C22.5353 11.2 21.922 11.4233 21.4753 11.87C21.0286 12.3167 20.7453 12.9433 20.6253 13.75H25.6953ZM20.5653 15.07C20.592 15.65 20.682 16.1533 20.8353 16.58C20.9886 17 21.192 17.35 21.4453 17.63C21.7053 17.91 22.012 18.12 22.3653 18.26C22.7253 18.3933 23.1253 18.46 23.5653 18.46C23.9853 18.46 24.3486 18.4133 24.6553 18.32C24.962 18.22 25.2286 18.1133 25.4553 18C25.682 17.88 25.8753 17.7733 26.0353 17.68C26.1953 17.58 26.342 17.53 26.4753 17.53C26.6486 17.53 26.782 17.5967 26.8753 17.73L27.4853 18.52C27.232 18.82 26.9453 19.0733 26.6253 19.28C26.3053 19.4867 25.9653 19.6567 25.6053 19.79C25.2453 19.9167 24.8753 20.0067 24.4953 20.06C24.1153 20.12 23.7453 20.15 23.3853 20.15C22.6786 20.15 22.022 20.0333 21.4153 19.8C20.8153 19.56 20.292 19.21 19.8453 18.75C19.4053 18.29 19.0586 17.72 18.8053 17.04C18.5586 16.36 18.4353 15.5767 18.4353 14.69C18.4353 13.9833 18.5453 13.3233 18.7653 12.71C18.992 12.0967 19.312 11.5633 19.7253 11.11C20.1453 10.6567 20.652 10.3 21.2453 10.04C21.8453 9.77333 22.522 9.64 23.2753 9.64C23.902 9.64 24.482 9.74333 25.0153 9.95C25.5486 10.15 26.0086 10.4467 26.3953 10.84C26.782 11.2333 27.082 11.7167 27.2953 12.29C27.5153 12.8567 27.6253 13.5033 27.6253 14.23C27.6253 14.5633 27.5886 14.7867 27.5153 14.9C27.442 15.0133 27.3086 15.07 27.1153 15.07H20.5653ZM31.7803 17.44C32.0803 17.8267 32.407 18.1 32.7603 18.26C33.1203 18.4133 33.517 18.49 33.9503 18.49C34.7903 18.49 35.4436 18.1833 35.9103 17.57C36.3836 16.9567 36.6203 16.0433 36.6203 14.83C36.6203 14.2033 36.567 13.67 36.4603 13.23C36.3536 12.7833 36.2003 12.42 36.0003 12.14C35.8003 11.86 35.557 11.6567 35.2703 11.53C34.9836 11.4033 34.6603 11.34 34.3003 11.34C33.7536 11.34 33.2803 11.46 32.8803 11.7C32.487 11.9333 32.1203 12.27 31.7803 12.71V17.44ZM31.6703 11.28C32.097 10.78 32.5803 10.3767 33.1203 10.07C33.667 9.76333 34.3003 9.61 35.0203 9.61C35.5936 9.61 36.1136 9.72667 36.5803 9.96C37.047 10.1867 37.447 10.52 37.7803 10.96C38.1136 11.4 38.3703 11.9467 38.5503 12.6C38.737 13.2467 38.8303 13.99 38.8303 14.83C38.8303 15.5833 38.727 16.2867 38.5203 16.94C38.3203 17.5867 38.0303 18.15 37.6503 18.63C37.2703 19.1033 36.8103 19.4767 36.2703 19.75C35.7303 20.0167 35.1203 20.15 34.4403 20.15C33.8403 20.15 33.3303 20.0533 32.9103 19.86C32.497 19.6667 32.1203 19.4 31.7803 19.06V23.39H29.6303V9.8H30.9303C31.2236 9.8 31.4103 9.93667 31.4903 10.21L31.6703 11.28ZM54.8598 18.37V20H47.0098V18.37H50.0098V9.35C50.0098 9.03 50.0198 8.70333 50.0398 8.37L47.7298 10.32C47.6298 10.4 47.5265 10.4533 47.4198 10.48C47.3198 10.5 47.2232 10.5 47.1298 10.48C47.0432 10.46 46.9632 10.43 46.8898 10.39C46.8232 10.3433 46.7698 10.2933 46.7298 10.24L46.0598 9.3L50.3998 5.57H52.1498V18.37H54.8598ZM66.8919 9.64C67.6452 9.64 68.3252 9.76333 68.9319 10.01C69.5452 10.2567 70.0652 10.6067 70.4919 11.06C70.9252 11.5133 71.2585 12.0633 71.4919 12.71C71.7252 13.3567 71.8419 14.0833 71.8419 14.89C71.8419 15.6967 71.7252 16.4233 71.4919 17.07C71.2585 17.7167 70.9252 18.27 70.4919 18.73C70.0652 19.1833 69.5452 19.5333 68.9319 19.78C68.3252 20.0267 67.6452 20.15 66.8919 20.15C66.1319 20.15 65.4452 20.0267 64.8319 19.78C64.2252 19.5333 63.7052 19.1833 63.2719 18.73C62.8385 18.27 62.5052 17.7167 62.2719 17.07C62.0385 16.4233 61.9219 15.6967 61.9219 14.89C61.9219 14.0833 62.0385 13.3567 62.2719 12.71C62.5052 12.0633 62.8385 11.5133 63.2719 11.06C63.7052 10.6067 64.2252 10.2567 64.8319 10.01C65.4452 9.76333 66.1319 9.64 66.8919 9.64ZM66.8919 18.47C67.8119 18.47 68.4952 18.1633 68.9419 17.55C69.3952 16.93 69.6219 16.0467 69.6219 14.9C69.6219 13.7533 69.3952 12.87 68.9419 12.25C68.4952 11.6233 67.8119 11.31 66.8919 11.31C65.9585 11.31 65.2652 11.6233 64.8119 12.25C64.3585 12.87 64.1319 13.7533 64.1319 14.9C64.1319 16.0467 64.3585 16.93 64.8119 17.55C65.2652 18.1633 65.9585 18.47 66.8919 18.47ZM74.3633 20V11.51L73.3633 11.37C73.1966 11.3367 73.0599 11.2767 72.9533 11.19C72.8533 11.1033 72.8033 10.98 72.8033 10.82V9.94H74.3633V9.08C74.3633 8.5 74.4466 7.98 74.6133 7.52C74.7866 7.06 75.0299 6.67 75.3433 6.35C75.6633 6.03 76.0499 5.78667 76.5033 5.62C76.9566 5.44667 77.4666 5.36 78.0333 5.36C78.2666 5.36 78.4866 5.37667 78.6933 5.41C78.9066 5.44333 79.1133 5.49333 79.3133 5.56L79.2733 6.64C79.2599 6.82 79.1699 6.92667 79.0033 6.96C78.8433 6.99333 78.6399 7.01 78.3933 7.01C78.0933 7.01 77.8233 7.04667 77.5833 7.12C77.3433 7.18667 77.1366 7.30333 76.9633 7.47C76.7966 7.63667 76.6666 7.85667 76.5733 8.13C76.4866 8.40333 76.4433 8.74333 76.4433 9.15V9.94H79.2333V11.49H76.5133V20H74.3633ZM91.2725 14.68V9.42C91.2725 9 91.3025 8.54 91.3625 8.04L86.5225 14.68H91.2725ZM95.1325 14.68V15.92C95.1325 16.04 95.0925 16.1433 95.0125 16.23C94.9392 16.3167 94.8258 16.36 94.6725 16.36H93.1425V20H91.2725V16.36H85.0425C84.8892 16.36 84.7558 16.3167 84.6425 16.23C84.5358 16.1367 84.4658 16.0233 84.4325 15.89L84.2125 14.79L91.1225 5.59H93.1425V14.68H95.1325Z" fill="black"/>
<rect y="40" width="320" height="40" fill="#A8ADB4"/>
</svg>
