<svg width="400" height="300" viewBox="0 0 400 300" fill="none" xmlns="http://www.w3.org/2000/svg">
<rect width="400" height="300" fill="#F1F2F3"/>
<path d="M119.24 124.06C119.167 124.18 119.09 124.27 119.01 124.33C118.93 124.383 118.83 124.41 118.71 124.41C118.583 124.41 118.44 124.357 118.28 124.25C118.127 124.143 117.933 124.027 117.7 123.9C117.473 123.767 117.203 123.647 116.89 123.54C116.577 123.427 116.203 123.37 115.77 123.37C115.37 123.37 115.017 123.42 114.71 123.52C114.41 123.62 114.157 123.76 113.95 123.94C113.743 124.12 113.587 124.333 113.48 124.58C113.38 124.82 113.33 125.083 113.33 125.37C113.33 125.737 113.427 126.043 113.62 126.29C113.813 126.53 114.067 126.737 114.38 126.91C114.7 127.083 115.063 127.237 115.47 127.37C115.877 127.497 116.29 127.633 116.71 127.78C117.137 127.927 117.553 128.093 117.96 128.28C118.367 128.467 118.727 128.703 119.04 128.99C119.36 129.277 119.617 129.627 119.81 130.04C120.003 130.453 120.1 130.957 120.1 131.55C120.1 132.19 119.99 132.79 119.77 133.35C119.55 133.91 119.23 134.4 118.81 134.82C118.397 135.233 117.883 135.56 117.27 135.8C116.663 136.04 115.97 136.16 115.19 136.16C114.73 136.16 114.28 136.113 113.84 136.02C113.407 135.933 112.99 135.81 112.59 135.65C112.197 135.483 111.827 135.283 111.48 135.05C111.133 134.817 110.823 134.557 110.55 134.27L111.23 133.15C111.29 133.057 111.367 132.983 111.46 132.93C111.553 132.877 111.657 132.85 111.77 132.85C111.923 132.85 112.093 132.923 112.28 133.07C112.467 133.21 112.69 133.367 112.95 133.54C113.217 133.707 113.537 133.863 113.91 134.01C114.283 134.15 114.73 134.22 115.25 134.22C116.097 134.22 116.75 134.013 117.21 133.6C117.677 133.187 117.91 132.617 117.91 131.89C117.91 131.483 117.813 131.153 117.62 130.9C117.427 130.64 117.17 130.423 116.85 130.25C116.537 130.077 116.177 129.93 115.77 129.81C115.363 129.69 114.95 129.563 114.53 129.43C114.11 129.29 113.697 129.13 113.29 128.95C112.883 128.763 112.52 128.523 112.2 128.23C111.887 127.93 111.633 127.563 111.44 127.13C111.247 126.69 111.15 126.143 111.15 125.49C111.15 124.97 111.25 124.467 111.45 123.98C111.657 123.493 111.953 123.063 112.34 122.69C112.733 122.31 113.217 122.007 113.79 121.78C114.363 121.553 115.017 121.44 115.75 121.44C116.577 121.44 117.333 121.57 118.02 121.83C118.713 122.09 119.31 122.46 119.81 122.94L119.24 124.06ZM125.049 136.16C124.202 136.16 123.549 135.923 123.089 135.45C122.635 134.97 122.409 134.297 122.409 133.43V127.49H121.289C121.169 127.49 121.065 127.453 120.979 127.38C120.892 127.3 120.849 127.183 120.849 127.03V126.16L122.499 125.92L122.969 122.97C123.002 122.857 123.059 122.767 123.139 122.7C123.219 122.627 123.325 122.59 123.459 122.59H124.559V125.94H127.389V127.49H124.559V133.28C124.559 133.647 124.649 133.927 124.829 134.12C125.009 134.313 125.249 134.41 125.549 134.41C125.715 134.41 125.859 134.39 125.979 134.35C126.099 134.303 126.202 134.257 126.289 134.21C126.375 134.157 126.449 134.11 126.509 134.07C126.575 134.023 126.639 134 126.699 134C126.819 134 126.915 134.067 126.989 134.2L127.629 135.25C127.295 135.543 126.902 135.77 126.449 135.93C125.995 136.083 125.529 136.16 125.049 136.16ZM135.695 129.75C135.695 129.39 135.642 129.057 135.535 128.75C135.435 128.437 135.285 128.167 135.085 127.94C134.885 127.707 134.635 127.527 134.335 127.4C134.042 127.267 133.702 127.2 133.315 127.2C132.535 127.2 131.922 127.423 131.475 127.87C131.029 128.317 130.745 128.943 130.625 129.75H135.695ZM130.565 131.07C130.592 131.65 130.682 132.153 130.835 132.58C130.989 133 131.192 133.35 131.445 133.63C131.705 133.91 132.012 134.12 132.365 134.26C132.725 134.393 133.125 134.46 133.565 134.46C133.985 134.46 134.349 134.413 134.655 134.32C134.962 134.22 135.229 134.113 135.455 134C135.682 133.88 135.875 133.773 136.035 133.68C136.195 133.58 136.342 133.53 136.475 133.53C136.649 133.53 136.782 133.597 136.875 133.73L137.485 134.52C137.232 134.82 136.945 135.073 136.625 135.28C136.305 135.487 135.965 135.657 135.605 135.79C135.245 135.917 134.875 136.007 134.495 136.06C134.115 136.12 133.745 136.15 133.385 136.15C132.679 136.15 132.022 136.033 131.415 135.8C130.815 135.56 130.292 135.21 129.845 134.75C129.405 134.29 129.059 133.72 128.805 133.04C128.559 132.36 128.435 131.577 128.435 130.69C128.435 129.983 128.545 129.323 128.765 128.71C128.992 128.097 129.312 127.563 129.725 127.11C130.145 126.657 130.652 126.3 131.245 126.04C131.845 125.773 132.522 125.64 133.275 125.64C133.902 125.64 134.482 125.743 135.015 125.95C135.549 126.15 136.009 126.447 136.395 126.84C136.782 127.233 137.082 127.717 137.295 128.29C137.515 128.857 137.625 129.503 137.625 130.23C137.625 130.563 137.589 130.787 137.515 130.9C137.442 131.013 137.309 131.07 137.115 131.07H130.565ZM141.78 133.44C142.08 133.827 142.407 134.1 142.76 134.26C143.12 134.413 143.517 134.49 143.95 134.49C144.79 134.49 145.444 134.183 145.91 133.57C146.384 132.957 146.62 132.043 146.62 130.83C146.62 130.203 146.567 129.67 146.46 129.23C146.354 128.783 146.2 128.42 146 128.14C145.8 127.86 145.557 127.657 145.27 127.53C144.984 127.403 144.66 127.34 144.3 127.34C143.754 127.34 143.28 127.46 142.88 127.7C142.487 127.933 142.12 128.27 141.78 128.71V133.44ZM141.67 127.28C142.097 126.78 142.58 126.377 143.12 126.07C143.667 125.763 144.3 125.61 145.02 125.61C145.594 125.61 146.114 125.727 146.58 125.96C147.047 126.187 147.447 126.52 147.78 126.96C148.114 127.4 148.37 127.947 148.55 128.6C148.737 129.247 148.83 129.99 148.83 130.83C148.83 131.583 148.727 132.287 148.52 132.94C148.32 133.587 148.03 134.15 147.65 134.63C147.27 135.103 146.81 135.477 146.27 135.75C145.73 136.017 145.12 136.15 144.44 136.15C143.84 136.15 143.33 136.053 142.91 135.86C142.497 135.667 142.12 135.4 141.78 135.06V139.39H139.63V125.8H140.93C141.224 125.8 141.41 125.937 141.49 126.21L141.67 127.28ZM164.86 134.37V136H157.01V134.37H160.01V125.35C160.01 125.03 160.02 124.703 160.04 124.37L157.73 126.32C157.63 126.4 157.527 126.453 157.42 126.48C157.32 126.5 157.223 126.5 157.13 126.48C157.043 126.46 156.963 126.43 156.89 126.39C156.823 126.343 156.77 126.293 156.73 126.24L156.06 125.3L160.4 121.57H162.15V134.37H164.86ZM176.892 125.64C177.645 125.64 178.325 125.763 178.932 126.01C179.545 126.257 180.065 126.607 180.492 127.06C180.925 127.513 181.259 128.063 181.492 128.71C181.725 129.357 181.842 130.083 181.842 130.89C181.842 131.697 181.725 132.423 181.492 133.07C181.259 133.717 180.925 134.27 180.492 134.73C180.065 135.183 179.545 135.533 178.932 135.78C178.325 136.027 177.645 136.15 176.892 136.15C176.132 136.15 175.445 136.027 174.832 135.78C174.225 135.533 173.705 135.183 173.272 134.73C172.839 134.27 172.505 133.717 172.272 133.07C172.039 132.423 171.922 131.697 171.922 130.89C171.922 130.083 172.039 129.357 172.272 128.71C172.505 128.063 172.839 127.513 173.272 127.06C173.705 126.607 174.225 126.257 174.832 126.01C175.445 125.763 176.132 125.64 176.892 125.64ZM176.892 134.47C177.812 134.47 178.495 134.163 178.942 133.55C179.395 132.93 179.622 132.047 179.622 130.9C179.622 129.753 179.395 128.87 178.942 128.25C178.495 127.623 177.812 127.31 176.892 127.31C175.959 127.31 175.265 127.623 174.812 128.25C174.359 128.87 174.132 129.753 174.132 130.9C174.132 132.047 174.359 132.93 174.812 133.55C175.265 134.163 175.959 134.47 176.892 134.47ZM184.363 136V127.51L183.363 127.37C183.197 127.337 183.06 127.277 182.953 127.19C182.853 127.103 182.803 126.98 182.803 126.82V125.94H184.363V125.08C184.363 124.5 184.447 123.98 184.613 123.52C184.787 123.06 185.03 122.67 185.343 122.35C185.663 122.03 186.05 121.787 186.503 121.62C186.957 121.447 187.467 121.36 188.033 121.36C188.267 121.36 188.487 121.377 188.693 121.41C188.907 121.443 189.113 121.493 189.313 121.56L189.273 122.64C189.26 122.82 189.17 122.927 189.003 122.96C188.843 122.993 188.64 123.01 188.393 123.01C188.093 123.01 187.823 123.047 187.583 123.12C187.343 123.187 187.137 123.303 186.963 123.47C186.797 123.637 186.667 123.857 186.573 124.13C186.487 124.403 186.443 124.743 186.443 125.15V125.94H189.233V127.49H186.513V136H184.363ZM201.273 130.68V125.42C201.273 125 201.303 124.54 201.363 124.04L196.523 130.68H201.273ZM205.132 130.68V131.92C205.132 132.04 205.093 132.143 205.013 132.23C204.939 132.317 204.826 132.36 204.673 132.36H203.143V136H201.273V132.36H195.043C194.889 132.36 194.756 132.317 194.643 132.23C194.536 132.137 194.466 132.023 194.433 131.89L194.213 130.79L201.123 121.59H203.143V130.68H205.132Z" fill="#7D828B"/>
<rect x="110" y="152" width="180" height="32" rx="16" fill="#A8ADB4"/>
</svg>
