<svg width="320" height="201" viewBox="0 0 320 201" fill="none" xmlns="http://www.w3.org/2000/svg">
<rect y="2" width="100" height="20" fill="#A8ADB4"/>
<rect y="33.5" width="175" height="17" fill="#A8ADB4"/>
<rect x="1" y="70" width="128" height="46" rx="5" fill="white"/>
<path d="M20 88.38C19.2933 88.38 18.66 88.5067 18.1 88.76C17.54 89 17.06 89.36 16.66 89.84C16.2733 90.32 15.9733 90.9 15.76 91.58C15.56 92.26 15.46 93.0267 15.46 93.88C15.46 95 15.6267 95.9733 15.96 96.8C16.2933 97.6133 16.7933 98.24 17.46 98.68C18.1267 99.12 18.9667 99.34 19.98 99.34C20.5933 99.34 21.18 99.2867 21.74 99.18C22.3133 99.06 22.8933 98.9067 23.48 98.72V100.58C22.92 100.793 22.3467 100.947 21.76 101.04C21.1733 101.147 20.4933 101.2 19.72 101.2C18.2667 101.2 17.0533 100.9 16.08 100.3C15.12 99.7 14.4 98.8467 13.92 97.74C13.44 96.6333 13.2 95.34 13.2 93.86C13.2 92.78 13.3467 91.7933 13.64 90.9C13.9467 89.9933 14.3867 89.2133 14.96 88.56C15.5333 87.9067 16.24 87.4067 17.08 87.06C17.9333 86.7 18.9133 86.52 20.02 86.52C20.74 86.52 21.4467 86.6 22.14 86.76C22.8333 86.9067 23.46 87.12 24.02 87.4L23.22 89.2C22.7533 88.9867 22.2467 88.8 21.7 88.64C21.1667 88.4667 20.6 88.38 20 88.38ZM28.4363 89.86C28.4363 90.1933 28.4229 90.5267 28.3963 90.86C28.3696 91.1933 28.3429 91.4667 28.3163 91.68H28.4563C28.6829 91.3067 28.9629 91 29.2963 90.76C29.6429 90.52 30.0229 90.34 30.4363 90.22C30.8629 90.1 31.2963 90.04 31.7363 90.04C32.5896 90.04 33.3029 90.18 33.8763 90.46C34.4629 90.7267 34.9029 91.1533 35.1963 91.74C35.5029 92.3133 35.6563 93.06 35.6563 93.98V101H33.5563V94.28C33.5563 93.44 33.3763 92.8133 33.0163 92.4C32.6696 91.9733 32.1096 91.76 31.3363 91.76C30.6029 91.76 30.0229 91.9067 29.5963 92.2C29.1829 92.4933 28.8829 92.9267 28.6963 93.5C28.5229 94.06 28.4363 94.7533 28.4363 95.58V101H26.3163V85.8H28.4363V89.86ZM48.4139 95.6C48.4139 96.4933 48.2939 97.2867 48.0539 97.98C47.8139 98.6733 47.4739 99.26 47.0339 99.74C46.5939 100.22 46.0606 100.587 45.4339 100.84C44.8072 101.08 44.1006 101.2 43.3139 101.2C42.5939 101.2 41.9272 101.08 41.3139 100.84C40.7006 100.587 40.1672 100.22 39.7139 99.74C39.2739 99.26 38.9272 98.6733 38.6739 97.98C38.4206 97.2867 38.2939 96.4867 38.2939 95.58C38.2939 94.3933 38.4939 93.3867 38.8939 92.56C39.3072 91.7333 39.8939 91.1067 40.6539 90.68C41.4272 90.24 42.3339 90.02 43.3739 90.02C44.3606 90.02 45.2272 90.24 45.9739 90.68C46.7339 91.1067 47.3272 91.7333 47.7539 92.56C48.1939 93.3867 48.4139 94.4 48.4139 95.6ZM40.4739 95.6C40.4739 96.4 40.5739 97.0933 40.7739 97.68C40.9739 98.2533 41.2872 98.6933 41.7139 99C42.1406 99.3067 42.6872 99.46 43.3539 99.46C44.0206 99.46 44.5672 99.3067 44.9939 99C45.4206 98.6933 45.7339 98.2533 45.9339 97.68C46.1339 97.0933 46.2339 96.4 46.2339 95.6C46.2339 94.7733 46.1272 94.08 45.9139 93.52C45.7139 92.96 45.4006 92.5333 44.9739 92.24C44.5606 91.9333 44.0139 91.78 43.3339 91.78C42.3339 91.78 41.6072 92.1133 41.1539 92.78C40.7006 93.4467 40.4739 94.3867 40.4739 95.6ZM60.6014 95.6C60.6014 96.4933 60.4814 97.2867 60.2414 97.98C60.0014 98.6733 59.6614 99.26 59.2214 99.74C58.7814 100.22 58.2481 100.587 57.6214 100.84C56.9947 101.08 56.2881 101.2 55.5014 101.2C54.7814 101.2 54.1147 101.08 53.5014 100.84C52.8881 100.587 52.3547 100.22 51.9014 99.74C51.4614 99.26 51.1147 98.6733 50.8614 97.98C50.6081 97.2867 50.4814 96.4867 50.4814 95.58C50.4814 94.3933 50.6814 93.3867 51.0814 92.56C51.4947 91.7333 52.0814 91.1067 52.8414 90.68C53.6147 90.24 54.5214 90.02 55.5614 90.02C56.5481 90.02 57.4147 90.24 58.1614 90.68C58.9214 91.1067 59.5147 91.7333 59.9414 92.56C60.3814 93.3867 60.6014 94.4 60.6014 95.6ZM52.6614 95.6C52.6614 96.4 52.7614 97.0933 52.9614 97.68C53.1614 98.2533 53.4747 98.6933 53.9014 99C54.3281 99.3067 54.8747 99.46 55.5414 99.46C56.2081 99.46 56.7547 99.3067 57.1814 99C57.6081 98.6933 57.9214 98.2533 58.1214 97.68C58.3214 97.0933 58.4214 96.4 58.4214 95.6C58.4214 94.7733 58.3147 94.08 58.1014 93.52C57.9014 92.96 57.5881 92.5333 57.1614 92.24C56.7481 91.9333 56.2014 91.78 55.5214 91.78C54.5214 91.78 53.7947 92.1133 53.3414 92.78C52.8881 93.4467 52.6614 94.3867 52.6614 95.6ZM70.4489 97.96C70.4489 98.6667 70.2756 99.26 69.9289 99.74C69.5822 100.22 69.0822 100.587 68.4289 100.84C67.7756 101.08 66.9889 101.2 66.0689 101.2C65.3089 101.2 64.6556 101.14 64.1089 101.02C63.5756 100.913 63.0822 100.753 62.6289 100.54V98.68C63.1089 98.9067 63.6622 99.1133 64.2889 99.3C64.9156 99.4733 65.5289 99.56 66.1289 99.56C66.9289 99.56 67.5022 99.4333 67.8489 99.18C68.2089 98.9267 68.3889 98.5867 68.3889 98.16C68.3889 97.92 68.3222 97.7067 68.1889 97.52C68.0556 97.32 67.8022 97.12 67.4289 96.92C67.0689 96.7067 66.5356 96.4667 65.8289 96.2C65.1489 95.92 64.5689 95.6467 64.0889 95.38C63.6089 95.1 63.2422 94.7733 62.9889 94.4C62.7356 94.0133 62.6089 93.52 62.6089 92.92C62.6089 91.9867 62.9822 91.2733 63.7289 90.78C64.4889 90.2733 65.4889 90.02 66.7289 90.02C67.3822 90.02 67.9956 90.0867 68.5689 90.22C69.1556 90.34 69.7222 90.5267 70.2689 90.78L69.5689 92.4C69.2622 92.2533 68.9422 92.1333 68.6089 92.04C68.2889 91.9333 67.9622 91.8467 67.6289 91.78C67.3089 91.7133 66.9756 91.68 66.6289 91.68C65.9889 91.68 65.5022 91.78 65.1689 91.98C64.8356 92.18 64.6689 92.46 64.6689 92.82C64.6689 93.0733 64.7422 93.2933 64.8889 93.48C65.0489 93.6667 65.3222 93.8533 65.7089 94.04C66.0956 94.2267 66.6222 94.4533 67.2889 94.72C67.9556 94.9733 68.5222 95.2333 68.9889 95.5C69.4689 95.7667 69.8289 96.0933 70.0689 96.48C70.3222 96.8667 70.4489 97.36 70.4489 97.96ZM77.2164 90.02C78.1631 90.02 78.9764 90.22 79.6564 90.62C80.3364 91.0067 80.8564 91.5667 81.2164 92.3C81.5897 93.0333 81.7764 93.9 81.7764 94.9V96.06H74.5364C74.5631 97.1667 74.8497 98.0133 75.3964 98.6C75.9564 99.1867 76.7364 99.48 77.7364 99.48C78.4297 99.48 79.0431 99.42 79.5764 99.3C80.1231 99.1667 80.6831 98.9733 81.2564 98.72V100.48C80.7231 100.72 80.1764 100.9 79.6164 101.02C79.0697 101.14 78.4164 101.2 77.6564 101.2C76.6164 101.2 75.6964 100.993 74.8964 100.58C74.0964 100.167 73.4697 99.5533 73.0164 98.74C72.5764 97.9133 72.3564 96.9 72.3564 95.7C72.3564 94.4867 72.5564 93.46 72.9564 92.62C73.3697 91.78 73.9364 91.14 74.6564 90.7C75.3897 90.2467 76.2431 90.02 77.2164 90.02ZM77.2164 91.66C76.4564 91.66 75.8431 91.9067 75.3764 92.4C74.9231 92.8933 74.6564 93.5933 74.5764 94.5H79.6564C79.6564 93.94 79.5697 93.4467 79.3964 93.02C79.2231 92.5933 78.9564 92.26 78.5964 92.02C78.2364 91.78 77.7764 91.66 77.2164 91.66ZM94.877 91.84H92.217V101H90.097V91.84H88.277V90.84L90.097 90.18V89.5C90.097 88.58 90.237 87.8467 90.517 87.3C90.8104 86.74 91.2237 86.3333 91.757 86.08C92.2904 85.8267 92.937 85.7 93.697 85.7C94.1637 85.7 94.5904 85.74 94.977 85.82C95.3637 85.9 95.6904 85.9867 95.957 86.08L95.417 87.7C95.2037 87.6333 94.957 87.5733 94.677 87.52C94.397 87.4533 94.1037 87.42 93.797 87.42C93.2637 87.42 92.8637 87.5933 92.597 87.94C92.3437 88.2867 92.217 88.8133 92.217 89.52V90.22H94.877V91.84ZM98.877 90.22V101H96.757V90.22H98.877ZM97.837 86.12C98.157 86.12 98.437 86.2133 98.677 86.4C98.917 86.5867 99.037 86.9 99.037 87.34C99.037 87.7667 98.917 88.08 98.677 88.28C98.437 88.4667 98.157 88.56 97.837 88.56C97.4904 88.56 97.197 88.4667 96.957 88.28C96.7304 88.08 96.617 87.7667 96.617 87.34C96.617 86.9 96.7304 86.5867 96.957 86.4C97.197 86.2133 97.4904 86.12 97.837 86.12ZM104.315 101H102.195V85.8H104.315V101ZM111.884 90.02C112.831 90.02 113.644 90.22 114.324 90.62C115.004 91.0067 115.524 91.5667 115.884 92.3C116.258 93.0333 116.444 93.9 116.444 94.9V96.06H109.204C109.231 97.1667 109.518 98.0133 110.064 98.6C110.624 99.1867 111.404 99.48 112.404 99.48C113.098 99.48 113.711 99.42 114.244 99.3C114.791 99.1667 115.351 98.9733 115.924 98.72V100.48C115.391 100.72 114.844 100.9 114.284 101.02C113.738 101.14 113.084 101.2 112.324 101.2C111.284 101.2 110.364 100.993 109.564 100.58C108.764 100.167 108.138 99.5533 107.684 98.74C107.244 97.9133 107.024 96.9 107.024 95.7C107.024 94.4867 107.224 93.46 107.624 92.62C108.038 91.78 108.604 91.14 109.324 90.7C110.058 90.2467 110.911 90.02 111.884 90.02ZM111.884 91.66C111.124 91.66 110.511 91.9067 110.044 92.4C109.591 92.8933 109.324 93.5933 109.244 94.5H114.324C114.324 93.94 114.238 93.4467 114.064 93.02C113.891 92.5933 113.624 92.26 113.264 92.02C112.904 91.78 112.444 91.66 111.884 91.66Z" fill="#2B4380"/>
<rect x="1" y="70" width="128" height="46" rx="5" stroke="#2B4380" stroke-width="2"/>
<rect y="135" width="320" height="66" rx="33" fill="#D6D9DD"/>
<rect x="24" y="158" width="200" height="20" fill="#A8ADB4"/>
<rect x="266" y="147" width="42" height="42" rx="21" fill="#C24438"/>
<path d="M292.859 172.641C293.367 173.109 293.367 173.93 292.859 174.398C292.625 174.633 292.312 174.75 292 174.75C291.648 174.75 291.336 174.633 291.102 174.398L287 170.297L282.859 174.398C282.625 174.633 282.312 174.75 282 174.75C281.648 174.75 281.336 174.633 281.102 174.398C280.594 173.93 280.594 173.109 281.102 172.641L285.203 168.5L281.102 164.398C280.594 163.93 280.594 163.109 281.102 162.641C281.57 162.133 282.391 162.133 282.859 162.641L287 166.742L291.102 162.641C291.57 162.133 292.391 162.133 292.859 162.641C293.367 163.109 293.367 163.93 292.859 164.398L288.758 168.539L292.859 172.641Z" fill="white"/>
</svg>
