<svg width="465" height="504" viewBox="0 0 465 504" fill="none" xmlns="http://www.w3.org/2000/svg">
<path d="M80.1239 32.3242V39.7281C79.1958 40.4116 78.2044 40.9136 77.1497 41.2342C76.1034 41.5464 74.9813 41.7025 73.7831 41.7025C72.2897 41.7025 70.9355 41.4705 69.7205 41.0064C68.5139 40.5423 67.4803 39.8969 66.6197 39.07C65.7675 38.2431 65.1094 37.2559 64.6453 36.1084C64.1813 34.9609 63.9492 33.708 63.9492 32.3495C63.9492 30.9742 64.1728 29.7128 64.62 28.5653C65.0672 27.4178 65.7 26.4306 66.5184 25.6037C67.3453 24.7769 68.3452 24.1356 69.518 23.68C70.6908 23.2244 72.007 22.9966 73.4667 22.9966C74.2092 22.9966 74.9011 23.0556 75.5423 23.1737C76.192 23.2919 76.7911 23.4564 77.3395 23.6673C77.8964 23.8698 78.4027 24.1187 78.8583 24.4141C79.3139 24.7094 79.7316 25.0342 80.1113 25.3886L79.1367 26.9327C78.9848 27.1773 78.7866 27.3292 78.5419 27.3883C78.2972 27.4389 78.0314 27.3756 77.7445 27.1984C77.4661 27.0381 77.1877 26.8778 76.9092 26.7175C76.6308 26.5572 76.3186 26.418 75.9727 26.2998C75.6352 26.1817 75.2513 26.0847 74.8209 26.0087C74.3991 25.9328 73.9097 25.8948 73.3528 25.8948C72.45 25.8948 71.6316 26.0467 70.8975 26.3505C70.1719 26.6542 69.5517 27.0887 69.037 27.6541C68.5223 28.2194 68.1258 28.8986 67.8473 29.6917C67.5689 30.4848 67.4297 31.3708 67.4297 32.3495C67.4297 33.3958 67.5773 34.3323 67.8727 35.1592C68.1764 35.9777 68.5983 36.6737 69.1383 37.2475C69.6867 37.8128 70.3448 38.2473 71.1127 38.5511C71.8805 38.8464 72.7369 38.9941 73.6819 38.9941C74.3569 38.9941 74.9602 38.9223 75.4917 38.7789C76.0233 38.6355 76.5422 38.4414 77.0484 38.1967V34.8808H74.745C74.5256 34.8808 74.3527 34.8217 74.2261 34.7036C74.108 34.577 74.0489 34.4252 74.0489 34.248V32.3242H80.1239ZM95.9717 37.1842C96.1573 37.1842 96.3219 37.2559 96.4653 37.3994L97.8069 38.8548C97.0644 39.7745 96.1489 40.4791 95.0605 40.9684C93.9805 41.4578 92.6811 41.7025 91.1623 41.7025C89.8039 41.7025 88.5805 41.4705 87.492 41.0064C86.412 40.5423 85.4881 39.8969 84.7203 39.07C83.9525 38.2431 83.3619 37.2559 82.9484 36.1084C82.5434 34.9609 82.3409 33.708 82.3409 32.3495C82.3409 30.9742 82.5603 29.717 82.9991 28.578C83.4378 27.4305 84.0537 26.4433 84.8469 25.6164C85.6484 24.7895 86.6019 24.1483 87.7072 23.6927C88.8125 23.2286 90.0359 22.9966 91.3775 22.9966C92.7106 22.9966 93.8919 23.2159 94.9212 23.6547C95.9591 24.0934 96.8408 24.6672 97.5664 25.3759L96.4273 26.958C96.3598 27.0592 96.2712 27.1478 96.1616 27.2237C96.0603 27.2997 95.9169 27.3377 95.7312 27.3377C95.6047 27.3377 95.4739 27.3039 95.3389 27.2364C95.2039 27.1605 95.0562 27.0719 94.8959 26.9706C94.7356 26.8609 94.55 26.7428 94.3391 26.6163C94.1281 26.4897 93.8834 26.3758 93.605 26.2745C93.3266 26.1648 93.0017 26.0762 92.6305 26.0087C92.2676 25.9328 91.8458 25.8948 91.3648 25.8948C90.5464 25.8948 89.7955 26.0425 89.112 26.3378C88.437 26.6247 87.8548 27.0466 87.3655 27.6034C86.8761 28.1519 86.4964 28.8269 86.2264 29.6284C85.9564 30.4216 85.8214 31.3286 85.8214 32.3495C85.8214 33.3789 85.9648 34.2944 86.2517 35.0959C86.547 35.8975 86.9436 36.5725 87.4414 37.1209C87.9392 37.6694 88.5256 38.0912 89.2006 38.3866C89.8756 38.6734 90.6012 38.8169 91.3775 38.8169C91.8416 38.8169 92.2592 38.7916 92.6305 38.7409C93.0101 38.6903 93.3561 38.6102 93.6683 38.5005C93.9889 38.3908 94.2884 38.2516 94.5669 38.0828C94.8537 37.9056 95.1364 37.6905 95.4148 37.4373C95.4992 37.3614 95.5878 37.3023 95.6806 37.2602C95.7734 37.2095 95.8705 37.1842 95.9717 37.1842ZM122.545 32.3495C122.545 33.6911 122.321 34.923 121.874 36.0452C121.427 37.1673 120.798 38.1334 119.988 38.9434C119.178 39.7534 118.204 40.382 117.065 40.8292C115.925 41.2764 114.66 41.5 113.268 41.5H106.294V23.1991H113.268C114.66 23.1991 115.925 23.4269 117.065 23.8825C118.204 24.3297 119.178 24.9583 119.988 25.7683C120.798 26.5698 121.427 27.5317 121.874 28.6539C122.321 29.7761 122.545 31.008 122.545 32.3495ZM119.052 32.3495C119.052 31.3455 118.917 30.4469 118.647 29.6537C118.385 28.8522 118.001 28.1772 117.495 27.6287C116.997 27.0719 116.39 26.6458 115.672 26.3505C114.964 26.0552 114.162 25.9075 113.268 25.9075H109.711V38.7916H113.268C114.162 38.7916 114.964 38.6439 115.672 38.3486C116.39 38.0533 116.997 37.6314 117.495 37.083C118.001 36.5261 118.385 35.8511 118.647 35.058C118.917 34.2564 119.052 33.3536 119.052 32.3495ZM133.25 33.5139C133.25 33.1089 133.19 32.7292 133.072 32.3748C132.963 32.012 132.794 31.6956 132.566 31.4256C132.338 31.1556 132.047 30.9447 131.693 30.7928C131.347 30.6325 130.942 30.5523 130.478 30.5523C129.575 30.5523 128.862 30.8097 128.339 31.3244C127.824 31.8391 127.495 32.5689 127.352 33.5139H133.25ZM127.288 35.3997C127.339 36.0662 127.457 36.6442 127.643 37.1336C127.828 37.6145 128.073 38.0153 128.377 38.3359C128.681 38.6481 129.039 38.8844 129.453 39.0447C129.875 39.1966 130.339 39.2725 130.845 39.2725C131.351 39.2725 131.786 39.2134 132.148 39.0953C132.52 38.9772 132.84 38.8464 133.11 38.703C133.389 38.5595 133.629 38.4287 133.832 38.3106C134.043 38.1925 134.245 38.1334 134.439 38.1334C134.701 38.1334 134.895 38.2305 135.021 38.4245L135.92 39.5636C135.574 39.9686 135.186 40.3103 134.756 40.5887C134.325 40.8587 133.874 41.0781 133.401 41.2469C132.937 41.4072 132.461 41.5211 131.971 41.5886C131.49 41.6561 131.022 41.6898 130.566 41.6898C129.664 41.6898 128.824 41.5422 128.048 41.2469C127.272 40.9431 126.597 40.5002 126.023 39.918C125.449 39.3273 124.998 38.6017 124.669 37.7411C124.34 36.872 124.175 35.868 124.175 34.7289C124.175 33.843 124.318 33.0119 124.605 32.2356C124.892 31.4509 125.301 30.7717 125.833 30.198C126.373 29.6158 127.027 29.1559 127.795 28.8184C128.571 28.4809 129.444 28.3122 130.415 28.3122C131.233 28.3122 131.988 28.443 132.68 28.7045C133.372 28.9661 133.967 29.35 134.465 29.8562C134.962 30.3541 135.35 30.97 135.629 31.7041C135.916 32.4297 136.059 33.2608 136.059 34.1973C136.059 34.6698 136.009 34.9905 135.907 35.1592C135.806 35.3195 135.612 35.3997 135.325 35.3997H127.288ZM146.328 31.0459C146.244 31.1809 146.155 31.278 146.062 31.337C145.969 31.3877 145.851 31.413 145.708 31.413C145.556 31.413 145.391 31.3708 145.214 31.2864C145.045 31.202 144.847 31.1092 144.619 31.008C144.392 30.8983 144.13 30.8012 143.835 30.7169C143.548 30.6325 143.206 30.5903 142.81 30.5903C142.194 30.5903 141.708 30.7211 141.354 30.9827C141.008 31.2442 140.835 31.5859 140.835 32.0078C140.835 32.2862 140.924 32.5225 141.101 32.7166C141.287 32.9022 141.527 33.0667 141.822 33.2102C142.126 33.3536 142.468 33.4844 142.847 33.6025C143.227 33.7122 143.611 33.8345 143.999 33.9695C144.396 34.1045 144.784 34.2606 145.164 34.4378C145.543 34.6066 145.881 34.8259 146.176 35.0959C146.48 35.3575 146.72 35.6739 146.897 36.0452C147.083 36.4164 147.176 36.8636 147.176 37.3867C147.176 38.0111 147.062 38.5891 146.834 39.1206C146.615 39.6437 146.286 40.0994 145.847 40.4875C145.408 40.8672 144.864 41.1667 144.214 41.3861C143.573 41.597 142.831 41.7025 141.987 41.7025C141.54 41.7025 141.101 41.6603 140.671 41.5759C140.249 41.5 139.84 41.3903 139.443 41.2469C139.055 41.1034 138.692 40.9347 138.355 40.7406C138.025 40.5466 137.734 40.3356 137.481 40.1078L138.203 38.9181C138.295 38.7747 138.405 38.665 138.532 38.5891C138.658 38.5131 138.819 38.4752 139.013 38.4752C139.207 38.4752 139.388 38.53 139.557 38.6397C139.734 38.7494 139.937 38.8675 140.164 38.9941C140.392 39.1206 140.658 39.2387 140.962 39.3484C141.274 39.4581 141.666 39.513 142.139 39.513C142.51 39.513 142.826 39.4708 143.088 39.3864C143.358 39.2936 143.577 39.1755 143.746 39.032C143.923 38.8886 144.05 38.7241 144.126 38.5384C144.21 38.3444 144.252 38.1461 144.252 37.9436C144.252 37.6398 144.16 37.3909 143.974 37.1969C143.797 37.0028 143.556 36.8341 143.252 36.6906C142.957 36.5472 142.615 36.4206 142.227 36.3109C141.848 36.1928 141.455 36.0662 141.05 35.9312C140.654 35.7962 140.261 35.6402 139.873 35.463C139.494 35.2773 139.152 35.0453 138.848 34.7669C138.553 34.4884 138.312 34.1467 138.127 33.7417C137.95 33.3367 137.861 32.8473 137.861 32.2736C137.861 31.742 137.966 31.2358 138.177 30.7548C138.388 30.2739 138.696 29.8562 139.101 29.5019C139.515 29.1391 140.025 28.8522 140.633 28.6412C141.249 28.4219 141.957 28.3122 142.759 28.3122C143.653 28.3122 144.467 28.4598 145.202 28.7552C145.936 29.0505 146.547 29.4386 147.037 29.9195L146.328 31.0459ZM152.769 28.5147V41.5H149.63V28.5147H152.769ZM153.199 24.7305C153.199 25.0005 153.144 25.2536 153.035 25.4898C152.925 25.7261 152.777 25.9328 152.592 26.11C152.414 26.2872 152.203 26.4306 151.959 26.5403C151.714 26.6416 151.453 26.6922 151.174 26.6922C150.904 26.6922 150.647 26.6416 150.402 26.5403C150.166 26.4306 149.959 26.2872 149.782 26.11C149.605 25.9328 149.461 25.7261 149.352 25.4898C149.25 25.2536 149.2 25.0005 149.2 24.7305C149.2 24.452 149.25 24.1905 149.352 23.9458C149.461 23.7011 149.605 23.4902 149.782 23.313C149.959 23.1358 150.166 22.9966 150.402 22.8953C150.647 22.7856 150.904 22.7308 151.174 22.7308C151.453 22.7308 151.714 22.7856 151.959 22.8953C152.203 22.9966 152.414 23.1358 152.592 23.313C152.777 23.4902 152.925 23.7011 153.035 23.9458C153.144 24.1905 153.199 24.452 153.199 24.7305ZM160.702 34.6909C161.09 34.6909 161.428 34.6403 161.714 34.5391C162.001 34.4294 162.238 34.2817 162.423 34.0961C162.617 33.9105 162.761 33.6869 162.853 33.4253C162.955 33.1637 163.005 32.8769 163.005 32.5647C163.005 31.9234 162.811 31.4172 162.423 31.0459C162.043 30.6662 161.47 30.4764 160.702 30.4764C159.934 30.4764 159.356 30.6662 158.968 31.0459C158.588 31.4172 158.398 31.9234 158.398 32.5647C158.398 32.8684 158.445 33.1511 158.538 33.4127C158.639 33.6742 158.782 33.902 158.968 34.0961C159.162 34.2817 159.403 34.4294 159.689 34.5391C159.985 34.6403 160.322 34.6909 160.702 34.6909ZM164.233 42.0822C164.233 41.8291 164.157 41.6223 164.005 41.462C163.853 41.3017 163.647 41.1794 163.385 41.095C163.123 41.0022 162.815 40.9347 162.461 40.8925C162.115 40.8503 161.744 40.8208 161.347 40.8039C160.959 40.7786 160.554 40.7575 160.132 40.7406C159.719 40.7237 159.314 40.69 158.917 40.6394C158.571 40.8334 158.289 41.0612 158.069 41.3228C157.858 41.5844 157.753 41.8881 157.753 42.2341C157.753 42.4619 157.808 42.6728 157.918 42.8669C158.036 43.0694 158.217 43.2423 158.462 43.3858C158.715 43.5292 159.04 43.6389 159.436 43.7148C159.833 43.7992 160.318 43.8414 160.892 43.8414C161.474 43.8414 161.976 43.795 162.398 43.7022C162.82 43.6178 163.166 43.4955 163.436 43.3352C163.714 43.1833 163.917 42.9977 164.043 42.7783C164.17 42.5673 164.233 42.3353 164.233 42.0822ZM167.346 28.9577V30.122C167.346 30.4933 167.123 30.7211 166.676 30.8055L165.511 31.0206C165.688 31.4678 165.777 31.9572 165.777 32.4887C165.777 33.13 165.646 33.7122 165.385 34.2353C165.132 34.75 164.777 35.1887 164.322 35.5516C163.866 35.9144 163.326 36.197 162.702 36.3995C162.086 36.5936 161.419 36.6906 160.702 36.6906C160.449 36.6906 160.204 36.678 159.968 36.6527C159.732 36.6273 159.5 36.5936 159.272 36.5514C158.867 36.7961 158.664 37.0703 158.664 37.3741C158.664 37.6356 158.782 37.8297 159.019 37.9562C159.263 38.0744 159.584 38.1587 159.98 38.2094C160.377 38.26 160.828 38.2937 161.335 38.3106C161.841 38.3191 162.36 38.3444 162.891 38.3866C163.423 38.4287 163.942 38.5047 164.448 38.6144C164.954 38.7156 165.406 38.8802 165.802 39.108C166.199 39.3358 166.515 39.648 166.752 40.0445C166.996 40.4327 167.119 40.9347 167.119 41.5506C167.119 42.1244 166.975 42.6813 166.688 43.2213C166.41 43.7613 166.001 44.2422 165.461 44.6641C164.929 45.0859 164.271 45.4234 163.486 45.6766C162.71 45.9381 161.824 46.0689 160.828 46.0689C159.85 46.0689 158.998 45.9719 158.272 45.7778C157.546 45.5922 156.943 45.3391 156.462 45.0184C155.981 44.7063 155.623 44.3434 155.386 43.93C155.15 43.5166 155.032 43.0863 155.032 42.6391C155.032 42.0316 155.213 41.5253 155.576 41.1203C155.947 40.7069 156.454 40.3778 157.095 40.1331C156.749 39.9559 156.475 39.7197 156.272 39.4244C156.07 39.1291 155.968 38.7409 155.968 38.26C155.968 38.0659 156.002 37.8677 156.07 37.6652C156.146 37.4542 156.251 37.2475 156.386 37.045C156.53 36.8425 156.707 36.6527 156.918 36.4755C157.129 36.2898 157.378 36.1253 157.664 35.9819C157.006 35.6275 156.487 35.155 156.108 34.5644C155.736 33.9737 155.551 33.2819 155.551 32.4887C155.551 31.8475 155.677 31.2695 155.93 30.7548C156.192 30.2317 156.551 29.7887 157.006 29.4259C157.47 29.0547 158.015 28.772 158.639 28.578C159.272 28.3839 159.959 28.2869 160.702 28.2869C161.259 28.2869 161.782 28.3459 162.271 28.4641C162.761 28.5737 163.208 28.7383 163.613 28.9577H167.346ZM172.253 30.1094C172.514 29.8478 172.788 29.6073 173.075 29.388C173.37 29.1602 173.678 28.9703 173.999 28.8184C174.328 28.6581 174.678 28.5358 175.05 28.4514C175.421 28.3586 175.826 28.3122 176.265 28.3122C176.973 28.3122 177.602 28.4345 178.15 28.6792C178.699 28.9155 179.154 29.253 179.517 29.6917C179.888 30.122 180.167 30.6409 180.353 31.2484C180.547 31.8475 180.644 32.5098 180.644 33.2355V41.5H177.518V33.2355C177.518 32.4423 177.336 31.8306 176.973 31.4003C176.61 30.9616 176.058 30.7422 175.315 30.7422C174.775 30.7422 174.269 30.8645 173.797 31.1092C173.324 31.3539 172.877 31.6872 172.455 32.1091V41.5H169.329V28.5147H171.24C171.645 28.5147 171.911 28.7045 172.037 29.0842L172.253 30.1094ZM200.011 26.5277C199.909 26.7048 199.8 26.8356 199.682 26.92C199.572 26.9959 199.433 27.0339 199.264 27.0339C199.087 27.0339 198.893 26.9706 198.682 26.8441C198.479 26.7091 198.235 26.5614 197.948 26.4011C197.661 26.2408 197.323 26.0973 196.935 25.9708C196.555 25.8358 196.104 25.7683 195.581 25.7683C195.108 25.7683 194.695 25.8273 194.341 25.9455C193.986 26.0552 193.687 26.2112 193.442 26.4137C193.206 26.6162 193.029 26.8609 192.91 27.1478C192.792 27.4262 192.733 27.7342 192.733 28.0717C192.733 28.502 192.851 28.8606 193.088 29.1475C193.332 29.4344 193.653 29.6791 194.05 29.8816C194.446 30.0841 194.898 30.2655 195.404 30.4258C195.91 30.5861 196.429 30.7591 196.96 30.9447C197.492 31.1219 198.011 31.3328 198.517 31.5775C199.023 31.8137 199.475 32.1175 199.871 32.4887C200.268 32.8516 200.584 33.2987 200.821 33.8303C201.065 34.3619 201.188 35.0073 201.188 35.7667C201.188 36.5936 201.044 37.3698 200.757 38.0955C200.479 38.8127 200.065 39.4412 199.517 39.9812C198.977 40.5128 198.315 40.9347 197.53 41.2469C196.745 41.5506 195.847 41.7025 194.834 41.7025C194.252 41.7025 193.678 41.6434 193.113 41.5253C192.548 41.4156 192.003 41.2553 191.48 41.0444C190.966 40.8334 190.48 40.5803 190.025 40.285C189.569 39.9897 189.164 39.6606 188.81 39.2978L189.81 37.6652C189.894 37.547 190.004 37.45 190.139 37.3741C190.274 37.2897 190.417 37.2475 190.569 37.2475C190.78 37.2475 191.008 37.3361 191.253 37.5133C191.497 37.682 191.788 37.8719 192.126 38.0828C192.463 38.2937 192.856 38.4878 193.303 38.665C193.758 38.8337 194.303 38.9181 194.935 38.9181C195.906 38.9181 196.657 38.6903 197.188 38.2347C197.72 37.7706 197.986 37.1083 197.986 36.2477C197.986 35.7667 197.863 35.3744 197.619 35.0706C197.382 34.7669 197.066 34.5137 196.669 34.3112C196.273 34.1003 195.821 33.9231 195.315 33.7797C194.809 33.6362 194.294 33.4802 193.771 33.3114C193.248 33.1427 192.733 32.9402 192.227 32.7039C191.721 32.4677 191.269 32.1597 190.873 31.78C190.476 31.4003 190.156 30.9278 189.911 30.3625C189.675 29.7887 189.557 29.0842 189.557 28.2489C189.557 27.5823 189.687 26.9327 189.949 26.2998C190.219 25.667 190.607 25.1059 191.113 24.6166C191.62 24.1272 192.244 23.7348 192.986 23.4395C193.729 23.1442 194.581 22.9966 195.543 22.9966C196.623 22.9966 197.619 23.1653 198.53 23.5028C199.441 23.8403 200.217 24.3128 200.859 24.9203L200.011 26.5277ZM214.817 28.5147L207.742 45.0691C207.649 45.2884 207.527 45.453 207.375 45.5627C207.232 45.6808 207.008 45.7398 206.704 45.7398H204.375L206.805 40.5255L201.553 28.5147H204.3C204.544 28.5147 204.734 28.5737 204.869 28.6919C205.012 28.81 205.118 28.945 205.185 29.0969L207.945 35.83C208.037 36.0578 208.113 36.2856 208.172 36.5134C208.24 36.7412 208.303 36.9733 208.362 37.2095C208.438 36.9733 208.514 36.7412 208.59 36.5134C208.666 36.2772 208.75 36.0452 208.843 35.8173L211.45 29.0969C211.518 28.9281 211.627 28.7889 211.779 28.6792C211.94 28.5695 212.117 28.5147 212.311 28.5147H214.817ZM224.021 31.0459C223.936 31.1809 223.848 31.278 223.755 31.337C223.662 31.3877 223.544 31.413 223.4 31.413C223.248 31.413 223.084 31.3708 222.907 31.2864C222.738 31.202 222.54 31.1092 222.312 31.008C222.084 30.8983 221.823 30.8012 221.527 30.7169C221.24 30.6325 220.899 30.5903 220.502 30.5903C219.886 30.5903 219.401 30.7211 219.047 30.9827C218.701 31.2442 218.528 31.5859 218.528 32.0078C218.528 32.2862 218.616 32.5225 218.793 32.7166C218.979 32.9022 219.22 33.0667 219.515 33.2102C219.819 33.3536 220.16 33.4844 220.54 33.6025C220.92 33.7122 221.304 33.8345 221.692 33.9695C222.088 34.1045 222.476 34.2606 222.856 34.4378C223.236 34.6066 223.573 34.8259 223.869 35.0959C224.172 35.3575 224.413 35.6739 224.59 36.0452C224.776 36.4164 224.868 36.8636 224.868 37.3867C224.868 38.0111 224.755 38.5891 224.527 39.1206C224.307 39.6437 223.978 40.0994 223.54 40.4875C223.101 40.8672 222.557 41.1667 221.907 41.3861C221.266 41.597 220.523 41.7025 219.679 41.7025C219.232 41.7025 218.793 41.6603 218.363 41.5759C217.941 41.5 217.532 41.3903 217.136 41.2469C216.747 41.1034 216.385 40.9347 216.047 40.7406C215.718 40.5466 215.427 40.3356 215.174 40.1078L215.895 38.9181C215.988 38.7747 216.098 38.665 216.224 38.5891C216.351 38.5131 216.511 38.4752 216.705 38.4752C216.899 38.4752 217.081 38.53 217.249 38.6397C217.427 38.7494 217.629 38.8675 217.857 38.9941C218.085 39.1206 218.351 39.2387 218.654 39.3484C218.966 39.4581 219.359 39.513 219.831 39.513C220.203 39.513 220.519 39.4708 220.781 39.3864C221.051 39.2936 221.27 39.1755 221.439 39.032C221.616 38.8886 221.742 38.7241 221.818 38.5384C221.903 38.3444 221.945 38.1461 221.945 37.9436C221.945 37.6398 221.852 37.3909 221.666 37.1969C221.489 37.0028 221.249 36.8341 220.945 36.6906C220.65 36.5472 220.308 36.4206 219.92 36.3109C219.54 36.1928 219.148 36.0662 218.743 35.9312C218.346 35.7962 217.954 35.6402 217.566 35.463C217.186 35.2773 216.844 35.0453 216.541 34.7669C216.245 34.4884 216.005 34.1467 215.819 33.7417C215.642 33.3367 215.553 32.8473 215.553 32.2736C215.553 31.742 215.659 31.2358 215.87 30.7548C216.081 30.2739 216.389 29.8562 216.794 29.5019C217.207 29.1391 217.718 28.8522 218.325 28.6412C218.941 28.4219 219.65 28.3122 220.451 28.3122C221.346 28.3122 222.16 28.4598 222.894 28.7552C223.628 29.0505 224.24 29.4386 224.729 29.9195L224.021 31.0459ZM231.55 41.7025C230.419 41.7025 229.55 41.3861 228.943 40.7533C228.344 40.112 228.044 39.2303 228.044 38.1081V30.8561H226.715C226.546 30.8561 226.403 30.8012 226.285 30.6916C226.167 30.5819 226.108 30.4173 226.108 30.198V28.9577L228.196 28.6159L228.854 25.0722C228.896 24.9034 228.976 24.7727 229.094 24.6798C229.213 24.587 229.364 24.5406 229.55 24.5406H231.17V28.6286H234.638V30.8561H231.17V37.893C231.17 38.298 231.267 38.6144 231.461 38.8422C231.664 39.07 231.938 39.1839 232.284 39.1839C232.478 39.1839 232.638 39.1628 232.765 39.1206C232.9 39.07 233.014 39.0194 233.107 38.9687C233.208 38.9181 233.296 38.8717 233.372 38.8295C233.448 38.7789 233.524 38.7536 233.6 38.7536C233.693 38.7536 233.769 38.7789 233.828 38.8295C233.887 38.8717 233.95 38.9392 234.018 39.032L234.954 40.5508C234.499 40.9305 233.976 41.2173 233.385 41.4114C232.794 41.6055 232.183 41.7025 231.55 41.7025ZM244.906 33.5139C244.906 33.1089 244.847 32.7292 244.729 32.3748C244.619 32.012 244.451 31.6956 244.223 31.4256C243.995 31.1556 243.704 30.9447 243.35 30.7928C243.004 30.6325 242.599 30.5523 242.135 30.5523C241.232 30.5523 240.519 30.8097 239.996 31.3244C239.481 31.8391 239.152 32.5689 239.008 33.5139H244.906ZM238.945 35.3997C238.996 36.0662 239.114 36.6442 239.3 37.1336C239.485 37.6145 239.73 38.0153 240.034 38.3359C240.337 38.6481 240.696 38.8844 241.109 39.0447C241.531 39.1966 241.995 39.2725 242.502 39.2725C243.008 39.2725 243.442 39.2134 243.805 39.0953C244.176 38.9772 244.497 38.8464 244.767 38.703C245.046 38.5595 245.286 38.4287 245.488 38.3106C245.699 38.1925 245.902 38.1334 246.096 38.1334C246.358 38.1334 246.552 38.2305 246.678 38.4245L247.577 39.5636C247.231 39.9686 246.843 40.3103 246.412 40.5887C245.982 40.8587 245.531 41.0781 245.058 41.2469C244.594 41.4072 244.117 41.5211 243.628 41.5886C243.147 41.6561 242.679 41.6898 242.223 41.6898C241.32 41.6898 240.481 41.5422 239.705 41.2469C238.928 40.9431 238.253 40.5002 237.68 39.918C237.106 39.3273 236.654 38.6017 236.325 37.7411C235.996 36.872 235.832 35.868 235.832 34.7289C235.832 33.843 235.975 33.0119 236.262 32.2356C236.549 31.4509 236.958 30.7717 237.49 30.198C238.03 29.6158 238.684 29.1559 239.451 28.8184C240.228 28.4809 241.101 28.3122 242.071 28.3122C242.89 28.3122 243.645 28.443 244.337 28.7045C245.029 28.9661 245.623 29.35 246.121 29.8562C246.619 30.3541 247.007 30.97 247.286 31.7041C247.573 32.4297 247.716 33.2608 247.716 34.1973C247.716 34.6698 247.665 34.9905 247.564 35.1592C247.463 35.3195 247.269 35.3997 246.982 35.3997H238.945ZM250.062 41.5V28.5147H251.973C252.378 28.5147 252.644 28.7045 252.77 29.0842L252.973 30.0461C253.201 29.793 253.437 29.5609 253.682 29.35C253.935 29.1391 254.201 28.9577 254.479 28.8058C254.766 28.6539 255.07 28.5358 255.39 28.4514C255.719 28.3586 256.078 28.3122 256.466 28.3122C257.284 28.3122 257.955 28.5358 258.478 28.983C259.01 29.4217 259.406 30.0081 259.668 30.7422C259.871 30.3119 260.124 29.9448 260.427 29.6411C260.731 29.3289 261.064 29.0758 261.427 28.8817C261.79 28.6877 262.174 28.5442 262.579 28.4514C262.992 28.3586 263.406 28.3122 263.819 28.3122C264.536 28.3122 265.174 28.4219 265.73 28.6412C266.287 28.8606 266.756 29.1812 267.135 29.6031C267.515 30.025 267.802 30.5397 267.996 31.1472C268.198 31.7547 268.3 32.4508 268.3 33.2355V41.5H265.174V33.2355C265.174 32.4086 264.992 31.7884 264.629 31.375C264.266 30.9531 263.735 30.7422 263.035 30.7422C262.714 30.7422 262.414 30.797 262.136 30.9067C261.866 31.0164 261.626 31.1767 261.415 31.3877C261.212 31.5902 261.052 31.8475 260.934 32.1597C260.816 32.4719 260.756 32.8305 260.756 33.2355V41.5H257.618V33.2355C257.618 32.3664 257.441 31.7336 257.086 31.337C256.74 30.9405 256.23 30.7422 255.555 30.7422C255.099 30.7422 254.673 30.8561 254.276 31.0839C253.888 31.3033 253.526 31.607 253.188 31.9952V41.5H250.062Z" fill="black"/>
<path d="M108.86 106.5H107.06V99.84H99.74V106.5H97.94V92.22H99.74V98.26H107.06V92.22H108.86V106.5ZM121.844 101.12C121.844 102.893 121.391 104.267 120.484 105.24C119.591 106.213 118.378 106.7 116.844 106.7C115.898 106.7 115.051 106.487 114.304 106.06C113.571 105.62 112.991 104.987 112.564 104.16C112.138 103.32 111.924 102.307 111.924 101.12C111.924 99.3467 112.371 97.98 113.264 97.02C114.158 96.06 115.371 95.58 116.904 95.58C117.878 95.58 118.731 95.8 119.464 96.24C120.211 96.6667 120.791 97.2933 121.204 98.12C121.631 98.9333 121.844 99.9333 121.844 101.12ZM113.744 101.12C113.744 102.387 113.991 103.393 114.484 104.14C114.991 104.873 115.791 105.24 116.884 105.24C117.964 105.24 118.758 104.873 119.264 104.14C119.771 103.393 120.024 102.387 120.024 101.12C120.024 99.8533 119.771 98.86 119.264 98.14C118.758 97.42 117.958 97.06 116.864 97.06C115.771 97.06 114.978 97.42 114.484 98.14C113.991 98.86 113.744 99.8533 113.744 101.12ZM136.394 95.58C137.607 95.58 138.514 95.8933 139.114 96.52C139.714 97.1333 140.014 98.1333 140.014 99.52V106.5H138.274V99.6C138.274 97.9067 137.547 97.06 136.094 97.06C135.054 97.06 134.307 97.36 133.854 97.96C133.414 98.56 133.194 99.4333 133.194 100.58V106.5H131.454V99.6C131.454 97.9067 130.72 97.06 129.254 97.06C128.174 97.06 127.427 97.3933 127.014 98.06C126.6 98.7267 126.394 99.6867 126.394 100.94V106.5H124.634V95.78H126.054L126.314 97.24H126.414C126.747 96.68 127.194 96.2667 127.754 96C128.327 95.72 128.934 95.58 129.574 95.58C131.254 95.58 132.347 96.18 132.854 97.38H132.954C133.314 96.7667 133.8 96.3133 134.414 96.02C135.04 95.7267 135.7 95.58 136.394 95.58ZM147.465 95.58C148.385 95.58 149.172 95.78 149.825 96.18C150.492 96.58 150.998 97.1467 151.345 97.88C151.705 98.6 151.885 99.4467 151.885 100.42V101.48H144.545C144.572 102.693 144.878 103.62 145.465 104.26C146.065 104.887 146.898 105.2 147.965 105.2C148.645 105.2 149.245 105.14 149.765 105.02C150.298 104.887 150.845 104.7 151.405 104.46V106C150.858 106.24 150.318 106.413 149.785 106.52C149.252 106.64 148.618 106.7 147.885 106.7C146.872 106.7 145.972 106.493 145.185 106.08C144.412 105.667 143.805 105.053 143.365 104.24C142.938 103.413 142.725 102.407 142.725 101.22C142.725 100.047 142.918 99.04 143.305 98.2C143.705 97.36 144.258 96.7133 144.965 96.26C145.685 95.8067 146.518 95.58 147.465 95.58ZM147.445 97.02C146.605 97.02 145.938 97.2933 145.445 97.84C144.965 98.3733 144.678 99.12 144.585 100.08H150.045C150.032 99.1733 149.818 98.44 149.405 97.88C148.992 97.3067 148.338 97.02 147.445 97.02Z" fill="#2B4380"/>
<path d="M96 109H152.905V110H96V109Z" fill="#2B4380"/>
<path d="M71 167.389C70.6875 167.389 70.4097 167.285 70.2014 167.076L63.5347 160.41C63.0833 159.993 63.0833 159.264 63.5347 158.847C63.9514 158.396 64.6806 158.396 65.0972 158.847L71 164.715L76.8681 158.847C77.2847 158.396 78.0139 158.396 78.4306 158.847C78.8819 159.264 78.8819 159.993 78.4306 160.41L71.7639 167.076C71.5556 167.285 71.2778 167.389 71 167.389Z" fill="#333333"/>
<path d="M103.98 169.5H101.42V157.38H97.32V155.22H108.08V157.38H103.98V169.5ZM118.3 164.06C118.3 164.967 118.18 165.767 117.94 166.46C117.7 167.153 117.353 167.747 116.9 168.24C116.46 168.72 115.913 169.087 115.26 169.34C114.62 169.58 113.907 169.7 113.12 169.7C112.373 169.7 111.687 169.58 111.06 169.34C110.433 169.087 109.887 168.72 109.42 168.24C108.967 167.747 108.613 167.153 108.36 166.46C108.107 165.767 107.98 164.967 107.98 164.06C107.98 162.86 108.187 161.847 108.6 161.02C109.013 160.18 109.607 159.547 110.38 159.12C111.167 158.68 112.093 158.46 113.16 158.46C114.173 158.46 115.06 158.68 115.82 159.12C116.593 159.547 117.2 160.18 117.64 161.02C118.08 161.847 118.3 162.86 118.3 164.06ZM110.56 164.06C110.56 164.82 110.647 165.473 110.82 166.02C111.007 166.553 111.287 166.96 111.66 167.24C112.047 167.52 112.54 167.66 113.14 167.66C113.753 167.66 114.247 167.52 114.62 167.24C115.007 166.96 115.287 166.553 115.46 166.02C115.633 165.473 115.72 164.82 115.72 164.06C115.72 163.287 115.627 162.64 115.44 162.12C115.267 161.587 114.987 161.187 114.6 160.92C114.227 160.64 113.74 160.5 113.14 160.5C112.233 160.5 111.573 160.807 111.16 161.42C110.76 162.033 110.56 162.913 110.56 164.06ZM126.605 158.46C127.872 158.46 128.892 158.933 129.665 159.88C130.438 160.813 130.825 162.207 130.825 164.06C130.825 165.287 130.645 166.32 130.285 167.16C129.925 168 129.425 168.633 128.785 169.06C128.145 169.487 127.398 169.7 126.545 169.7C126.025 169.7 125.565 169.633 125.165 169.5C124.765 169.353 124.425 169.173 124.145 168.96C123.865 168.733 123.625 168.493 123.425 168.24H123.265C123.318 168.48 123.358 168.753 123.385 169.06C123.412 169.353 123.425 169.633 123.425 169.9V174.3H120.905V158.66H122.945L123.305 160.1H123.425C123.625 159.793 123.865 159.52 124.145 159.28C124.438 159.027 124.785 158.827 125.185 158.68C125.598 158.533 126.072 158.46 126.605 158.46ZM125.885 160.5C125.298 160.5 124.825 160.62 124.465 160.86C124.105 161.087 123.845 161.44 123.685 161.92C123.525 162.4 123.438 163 123.425 163.72V164.04C123.425 164.813 123.498 165.467 123.645 166C123.805 166.533 124.065 166.94 124.425 167.22C124.798 167.5 125.298 167.64 125.925 167.64C126.458 167.64 126.892 167.493 127.225 167.2C127.572 166.907 127.825 166.493 127.985 165.96C128.158 165.413 128.245 164.767 128.245 164.02C128.245 162.9 128.052 162.033 127.665 161.42C127.292 160.807 126.698 160.5 125.885 160.5ZM141.14 169.5H138.62V154.3H141.14V169.5ZM148.722 158.46C149.696 158.46 150.529 158.66 151.222 159.06C151.929 159.447 152.476 160.007 152.862 160.74C153.249 161.46 153.442 162.34 153.442 163.38V164.66H146.282C146.309 165.647 146.582 166.413 147.102 166.96C147.622 167.493 148.342 167.76 149.262 167.76C149.969 167.76 150.596 167.693 151.142 167.56C151.702 167.413 152.276 167.207 152.862 166.94V168.96C152.329 169.213 151.776 169.4 151.202 169.52C150.629 169.64 149.942 169.7 149.142 169.7C148.089 169.7 147.149 169.5 146.322 169.1C145.509 168.687 144.869 168.067 144.402 167.24C143.949 166.413 143.722 165.387 143.722 164.16C143.722 162.92 143.929 161.88 144.342 161.04C144.769 160.187 145.356 159.547 146.102 159.12C146.849 158.68 147.722 158.46 148.722 158.46ZM148.722 160.32C148.056 160.32 147.509 160.54 147.082 160.98C146.669 161.407 146.422 162.047 146.342 162.9H151.002C151.002 162.393 150.916 161.947 150.742 161.56C150.582 161.173 150.336 160.873 150.002 160.66C149.669 160.433 149.242 160.32 148.722 160.32ZM158.093 169.5L153.973 158.66H156.633L158.793 164.92C158.886 165.173 158.973 165.453 159.053 165.76C159.133 166.053 159.199 166.347 159.253 166.64C159.319 166.92 159.359 167.167 159.373 167.38H159.453C159.479 167.153 159.526 166.9 159.593 166.62C159.659 166.327 159.733 166.033 159.813 165.74C159.906 165.447 159.993 165.173 160.073 164.92L162.233 158.66H164.893L160.773 169.5H158.093ZM170.871 158.46C171.844 158.46 172.677 158.66 173.371 159.06C174.077 159.447 174.624 160.007 175.011 160.74C175.397 161.46 175.591 162.34 175.591 163.38V164.66H168.431C168.457 165.647 168.731 166.413 169.251 166.96C169.771 167.493 170.491 167.76 171.411 167.76C172.117 167.76 172.744 167.693 173.291 167.56C173.851 167.413 174.424 167.207 175.011 166.94V168.96C174.477 169.213 173.924 169.4 173.351 169.52C172.777 169.64 172.091 169.7 171.291 169.7C170.237 169.7 169.297 169.5 168.471 169.1C167.657 168.687 167.017 168.067 166.551 167.24C166.097 166.413 165.871 165.387 165.871 164.16C165.871 162.92 166.077 161.88 166.491 161.04C166.917 160.187 167.504 159.547 168.251 159.12C168.997 158.68 169.871 158.46 170.871 158.46ZM170.871 160.32C170.204 160.32 169.657 160.54 169.231 160.98C168.817 161.407 168.571 162.047 168.491 162.9H173.151C173.151 162.393 173.064 161.947 172.891 161.56C172.731 161.173 172.484 160.873 172.151 160.66C171.817 160.433 171.391 160.32 170.871 160.32ZM180.652 169.5H178.132V154.3H180.652V169.5ZM191.589 169.5H189.069V154.3H191.589V169.5ZM197.331 158.66V169.5H194.811V158.66H197.331ZM196.071 154.48C196.445 154.48 196.771 154.58 197.051 154.78C197.331 154.967 197.471 155.307 197.471 155.8C197.471 156.28 197.331 156.627 197.051 156.84C196.771 157.04 196.445 157.14 196.071 157.14C195.685 157.14 195.351 157.04 195.071 156.84C194.805 156.627 194.671 156.28 194.671 155.8C194.671 155.307 194.805 154.967 195.071 154.78C195.351 154.58 195.685 154.48 196.071 154.48ZM206.354 158.46C207.567 158.46 208.514 158.773 209.194 159.4C209.887 160.027 210.234 161.04 210.234 162.44V169.5H207.714V162.94C207.714 162.127 207.554 161.52 207.234 161.12C206.914 160.707 206.407 160.5 205.714 160.5C204.7 160.5 204.007 160.82 203.634 161.46C203.26 162.087 203.074 163 203.074 164.2V169.5H200.554V158.66H202.494L202.854 160.08H202.994C203.234 159.707 203.527 159.4 203.874 159.16C204.22 158.92 204.607 158.747 205.034 158.64C205.46 158.52 205.9 158.46 206.354 158.46ZM215.886 161.52C215.886 161.867 215.872 162.233 215.846 162.62C215.819 162.993 215.792 163.36 215.766 163.72H215.826C215.932 163.56 216.059 163.387 216.206 163.2C216.352 163 216.499 162.807 216.646 162.62C216.806 162.42 216.959 162.24 217.106 162.08L220.306 158.66H223.166L218.826 163.34L223.446 169.5H220.506L217.146 164.86L215.886 165.9V169.5H213.386V154.3H215.886V161.52Z" fill="#333333"/>
<path d="M107 230.389C106.687 230.389 106.41 230.285 106.201 230.076L99.5347 223.41C99.0833 222.993 99.0833 222.264 99.5347 221.847C99.9514 221.396 100.681 221.396 101.097 221.847L107 227.715L112.868 221.847C113.285 221.396 114.014 221.396 114.431 221.847C114.882 222.264 114.882 222.993 114.431 223.41L107.764 230.076C107.556 230.285 107.278 230.389 107 230.389Z" fill="#333333"/>
<path d="M134.86 232.5V218.22H137.42V230.34H143.38V232.5H134.86ZM149.976 221.46C150.949 221.46 151.783 221.66 152.476 222.06C153.183 222.447 153.729 223.007 154.116 223.74C154.503 224.46 154.696 225.34 154.696 226.38V227.66H147.536C147.563 228.647 147.836 229.413 148.356 229.96C148.876 230.493 149.596 230.76 150.516 230.76C151.223 230.76 151.849 230.693 152.396 230.56C152.956 230.413 153.529 230.207 154.116 229.94V231.96C153.583 232.213 153.029 232.4 152.456 232.52C151.883 232.64 151.196 232.7 150.396 232.7C149.343 232.7 148.403 232.5 147.576 232.1C146.763 231.687 146.123 231.067 145.656 230.24C145.203 229.413 144.976 228.387 144.976 227.16C144.976 225.92 145.183 224.88 145.596 224.04C146.023 223.187 146.609 222.547 147.356 222.12C148.103 221.68 148.976 221.46 149.976 221.46ZM149.976 223.32C149.309 223.32 148.763 223.54 148.336 223.98C147.923 224.407 147.676 225.047 147.596 225.9H152.256C152.256 225.393 152.169 224.947 151.996 224.56C151.836 224.173 151.589 223.873 151.256 223.66C150.923 223.433 150.496 223.32 149.976 223.32ZM159.347 232.5L155.227 221.66H157.887L160.047 227.92C160.14 228.173 160.227 228.453 160.307 228.76C160.387 229.053 160.453 229.347 160.507 229.64C160.573 229.92 160.613 230.167 160.627 230.38H160.707C160.733 230.153 160.78 229.9 160.847 229.62C160.913 229.327 160.987 229.033 161.067 228.74C161.16 228.447 161.247 228.173 161.327 227.92L163.487 221.66H166.147L162.027 232.5H159.347ZM172.125 221.46C173.098 221.46 173.931 221.66 174.625 222.06C175.331 222.447 175.878 223.007 176.265 223.74C176.651 224.46 176.845 225.34 176.845 226.38V227.66H169.685C169.711 228.647 169.985 229.413 170.505 229.96C171.025 230.493 171.745 230.76 172.665 230.76C173.371 230.76 173.998 230.693 174.545 230.56C175.105 230.413 175.678 230.207 176.265 229.94V231.96C175.731 232.213 175.178 232.4 174.605 232.52C174.031 232.64 173.345 232.7 172.545 232.7C171.491 232.7 170.551 232.5 169.725 232.1C168.911 231.687 168.271 231.067 167.805 230.24C167.351 229.413 167.125 228.387 167.125 227.16C167.125 225.92 167.331 224.88 167.745 224.04C168.171 223.187 168.758 222.547 169.505 222.12C170.251 221.68 171.125 221.46 172.125 221.46ZM172.125 223.32C171.458 223.32 170.911 223.54 170.485 223.98C170.071 224.407 169.825 225.047 169.745 225.9H174.405C174.405 225.393 174.318 224.947 174.145 224.56C173.985 224.173 173.738 223.873 173.405 223.66C173.071 223.433 172.645 223.32 172.125 223.32ZM181.906 232.5H179.386V217.3H181.906V232.5ZM199.343 232.5H189.563V230.64L193.203 226.96C193.923 226.227 194.51 225.6 194.963 225.08C195.43 224.547 195.77 224.053 195.983 223.6C196.21 223.147 196.323 222.653 196.323 222.12C196.323 221.467 196.136 220.98 195.763 220.66C195.39 220.327 194.896 220.16 194.283 220.16C193.683 220.16 193.123 220.287 192.603 220.54C192.083 220.78 191.543 221.127 190.983 221.58L189.603 219.92C190.003 219.573 190.43 219.26 190.883 218.98C191.336 218.687 191.85 218.453 192.423 218.28C192.996 218.107 193.663 218.02 194.423 218.02C195.343 218.02 196.13 218.187 196.783 218.52C197.45 218.84 197.963 219.287 198.323 219.86C198.683 220.433 198.863 221.1 198.863 221.86C198.863 222.447 198.776 222.993 198.603 223.5C198.43 223.993 198.176 224.48 197.843 224.96C197.51 225.44 197.103 225.927 196.623 226.42C196.143 226.913 195.603 227.447 195.003 228.02L192.743 230.2V230.32H199.343V232.5ZM209.484 232.5H206.964V217.3H209.484V232.5ZM215.226 221.66V232.5H212.706V221.66H215.226ZM213.966 217.48C214.339 217.48 214.666 217.58 214.946 217.78C215.226 217.967 215.366 218.307 215.366 218.8C215.366 219.28 215.226 219.627 214.946 219.84C214.666 220.04 214.339 220.14 213.966 220.14C213.579 220.14 213.246 220.04 212.966 219.84C212.699 219.627 212.566 219.28 212.566 218.8C212.566 218.307 212.699 217.967 212.966 217.78C213.246 217.58 213.579 217.48 213.966 217.48ZM224.248 221.46C225.461 221.46 226.408 221.773 227.088 222.4C227.781 223.027 228.128 224.04 228.128 225.44V232.5H225.608V225.94C225.608 225.127 225.448 224.52 225.128 224.12C224.808 223.707 224.301 223.5 223.608 223.5C222.595 223.5 221.901 223.82 221.528 224.46C221.155 225.087 220.968 226 220.968 227.2V232.5H218.448V221.66H220.388L220.748 223.08H220.888C221.128 222.707 221.421 222.4 221.768 222.16C222.115 221.92 222.501 221.747 222.928 221.64C223.355 221.52 223.795 221.46 224.248 221.46ZM233.78 224.52C233.78 224.867 233.767 225.233 233.74 225.62C233.713 225.993 233.687 226.36 233.66 226.72H233.72C233.827 226.56 233.953 226.387 234.1 226.2C234.247 226 234.393 225.807 234.54 225.62C234.7 225.42 234.853 225.24 235 225.08L238.2 221.66H241.06L236.72 226.34L241.34 232.5H238.4L235.04 227.86L233.78 228.9V232.5H231.28V217.3H233.78V224.52Z" fill="#333333"/>
<path d="M113.667 291.167C113.354 291.167 113.076 291.062 112.868 290.854L107 284.986L101.097 290.854C100.681 291.306 99.9514 291.306 99.5347 290.854C99.0833 290.437 99.0833 289.708 99.5347 289.292L106.201 282.625C106.618 282.174 107.347 282.174 107.764 282.625L114.431 289.292C114.882 289.708 114.882 290.437 114.431 290.854C114.222 291.062 113.944 291.167 113.667 291.167Z" fill="#333333"/>
<path d="M134.86 295.5V281.22H137.42V293.34H143.38V295.5H134.86ZM149.976 284.46C150.949 284.46 151.783 284.66 152.476 285.06C153.183 285.447 153.729 286.007 154.116 286.74C154.503 287.46 154.696 288.34 154.696 289.38V290.66H147.536C147.563 291.647 147.836 292.413 148.356 292.96C148.876 293.493 149.596 293.76 150.516 293.76C151.223 293.76 151.849 293.693 152.396 293.56C152.956 293.413 153.529 293.207 154.116 292.94V294.96C153.583 295.213 153.029 295.4 152.456 295.52C151.883 295.64 151.196 295.7 150.396 295.7C149.343 295.7 148.403 295.5 147.576 295.1C146.763 294.687 146.123 294.067 145.656 293.24C145.203 292.413 144.976 291.387 144.976 290.16C144.976 288.92 145.183 287.88 145.596 287.04C146.023 286.187 146.609 285.547 147.356 285.12C148.103 284.68 148.976 284.46 149.976 284.46ZM149.976 286.32C149.309 286.32 148.763 286.54 148.336 286.98C147.923 287.407 147.676 288.047 147.596 288.9H152.256C152.256 288.393 152.169 287.947 151.996 287.56C151.836 287.173 151.589 286.873 151.256 286.66C150.923 286.433 150.496 286.32 149.976 286.32ZM159.347 295.5L155.227 284.66H157.887L160.047 290.92C160.14 291.173 160.227 291.453 160.307 291.76C160.387 292.053 160.453 292.347 160.507 292.64C160.573 292.92 160.613 293.167 160.627 293.38H160.707C160.733 293.153 160.78 292.9 160.847 292.62C160.913 292.327 160.987 292.033 161.067 291.74C161.16 291.447 161.247 291.173 161.327 290.92L163.487 284.66H166.147L162.027 295.5H159.347ZM172.125 284.46C173.098 284.46 173.931 284.66 174.625 285.06C175.331 285.447 175.878 286.007 176.265 286.74C176.651 287.46 176.845 288.34 176.845 289.38V290.66H169.685C169.711 291.647 169.985 292.413 170.505 292.96C171.025 293.493 171.745 293.76 172.665 293.76C173.371 293.76 173.998 293.693 174.545 293.56C175.105 293.413 175.678 293.207 176.265 292.94V294.96C175.731 295.213 175.178 295.4 174.605 295.52C174.031 295.64 173.345 295.7 172.545 295.7C171.491 295.7 170.551 295.5 169.725 295.1C168.911 294.687 168.271 294.067 167.805 293.24C167.351 292.413 167.125 291.387 167.125 290.16C167.125 288.92 167.331 287.88 167.745 287.04C168.171 286.187 168.758 285.547 169.505 285.12C170.251 284.68 171.125 284.46 172.125 284.46ZM172.125 286.32C171.458 286.32 170.911 286.54 170.485 286.98C170.071 287.407 169.825 288.047 169.745 288.9H174.405C174.405 288.393 174.318 287.947 174.145 287.56C173.985 287.173 173.738 286.873 173.405 286.66C173.071 286.433 172.645 286.32 172.125 286.32ZM181.906 295.5H179.386V280.3H181.906V295.5ZM199.343 295.5H189.563V293.64L193.203 289.96C193.923 289.227 194.51 288.6 194.963 288.08C195.43 287.547 195.77 287.053 195.983 286.6C196.21 286.147 196.323 285.653 196.323 285.12C196.323 284.467 196.136 283.98 195.763 283.66C195.39 283.327 194.896 283.16 194.283 283.16C193.683 283.16 193.123 283.287 192.603 283.54C192.083 283.78 191.543 284.127 190.983 284.58L189.603 282.92C190.003 282.573 190.43 282.26 190.883 281.98C191.336 281.687 191.85 281.453 192.423 281.28C192.996 281.107 193.663 281.02 194.423 281.02C195.343 281.02 196.13 281.187 196.783 281.52C197.45 281.84 197.963 282.287 198.323 282.86C198.683 283.433 198.863 284.1 198.863 284.86C198.863 285.447 198.776 285.993 198.603 286.5C198.43 286.993 198.176 287.48 197.843 287.96C197.51 288.44 197.103 288.927 196.623 289.42C196.143 289.913 195.603 290.447 195.003 291.02L192.743 293.2V293.32H199.343V295.5ZM209.484 295.5H206.964V280.3H209.484V295.5ZM215.226 284.66V295.5H212.706V284.66H215.226ZM213.966 280.48C214.339 280.48 214.666 280.58 214.946 280.78C215.226 280.967 215.366 281.307 215.366 281.8C215.366 282.28 215.226 282.627 214.946 282.84C214.666 283.04 214.339 283.14 213.966 283.14C213.579 283.14 213.246 283.04 212.966 282.84C212.699 282.627 212.566 282.28 212.566 281.8C212.566 281.307 212.699 280.967 212.966 280.78C213.246 280.58 213.579 280.48 213.966 280.48ZM224.248 284.46C225.461 284.46 226.408 284.773 227.088 285.4C227.781 286.027 228.128 287.04 228.128 288.44V295.5H225.608V288.94C225.608 288.127 225.448 287.52 225.128 287.12C224.808 286.707 224.301 286.5 223.608 286.5C222.595 286.5 221.901 286.82 221.528 287.46C221.155 288.087 220.968 289 220.968 290.2V295.5H218.448V284.66H220.388L220.748 286.08H220.888C221.128 285.707 221.421 285.4 221.768 285.16C222.115 284.92 222.501 284.747 222.928 284.64C223.355 284.52 223.795 284.46 224.248 284.46ZM233.78 287.52C233.78 287.867 233.767 288.233 233.74 288.62C233.713 288.993 233.687 289.36 233.66 289.72H233.72C233.827 289.56 233.953 289.387 234.1 289.2C234.247 289 234.393 288.807 234.54 288.62C234.7 288.42 234.853 288.24 235 288.08L238.2 284.66H241.06L236.72 289.34L241.34 295.5H238.4L235.04 290.86L233.78 291.9V295.5H231.28V280.3H233.78V287.52Z" fill="#333333"/>
<mask id="path-9-inside-1_6976_17952" fill="white">
<path d="M120 323.5H368V377.5H120V323.5Z"/>
</mask>
<path d="M120 323.5H368V377.5H120V323.5Z" fill="#D7E5F5"/>
<path d="M169.86 358.5V344.22H172.42V356.34H178.38V358.5H169.86ZM184.976 347.46C185.949 347.46 186.783 347.66 187.476 348.06C188.183 348.447 188.729 349.007 189.116 349.74C189.503 350.46 189.696 351.34 189.696 352.38V353.66H182.536C182.563 354.647 182.836 355.413 183.356 355.96C183.876 356.493 184.596 356.76 185.516 356.76C186.223 356.76 186.849 356.693 187.396 356.56C187.956 356.413 188.529 356.207 189.116 355.94V357.96C188.583 358.213 188.029 358.4 187.456 358.52C186.883 358.64 186.196 358.7 185.396 358.7C184.343 358.7 183.403 358.5 182.576 358.1C181.763 357.687 181.123 357.067 180.656 356.24C180.203 355.413 179.976 354.387 179.976 353.16C179.976 351.92 180.183 350.88 180.596 350.04C181.023 349.187 181.609 348.547 182.356 348.12C183.103 347.68 183.976 347.46 184.976 347.46ZM184.976 349.32C184.309 349.32 183.763 349.54 183.336 349.98C182.923 350.407 182.676 351.047 182.596 351.9H187.256C187.256 351.393 187.169 350.947 186.996 350.56C186.836 350.173 186.589 349.873 186.256 349.66C185.923 349.433 185.496 349.32 184.976 349.32ZM194.347 358.5L190.227 347.66H192.887L195.047 353.92C195.14 354.173 195.227 354.453 195.307 354.76C195.387 355.053 195.453 355.347 195.507 355.64C195.573 355.92 195.613 356.167 195.627 356.38H195.707C195.733 356.153 195.78 355.9 195.847 355.62C195.913 355.327 195.987 355.033 196.067 354.74C196.16 354.447 196.247 354.173 196.327 353.92L198.487 347.66H201.147L197.027 358.5H194.347ZM207.125 347.46C208.098 347.46 208.931 347.66 209.625 348.06C210.331 348.447 210.878 349.007 211.265 349.74C211.651 350.46 211.845 351.34 211.845 352.38V353.66H204.685C204.711 354.647 204.985 355.413 205.505 355.96C206.025 356.493 206.745 356.76 207.665 356.76C208.371 356.76 208.998 356.693 209.545 356.56C210.105 356.413 210.678 356.207 211.265 355.94V357.96C210.731 358.213 210.178 358.4 209.605 358.52C209.031 358.64 208.345 358.7 207.545 358.7C206.491 358.7 205.551 358.5 204.725 358.1C203.911 357.687 203.271 357.067 202.805 356.24C202.351 355.413 202.125 354.387 202.125 353.16C202.125 351.92 202.331 350.88 202.745 350.04C203.171 349.187 203.758 348.547 204.505 348.12C205.251 347.68 206.125 347.46 207.125 347.46ZM207.125 349.32C206.458 349.32 205.911 349.54 205.485 349.98C205.071 350.407 204.825 351.047 204.745 351.9H209.405C209.405 351.393 209.318 350.947 209.145 350.56C208.985 350.173 208.738 349.873 208.405 349.66C208.071 349.433 207.645 349.32 207.125 349.32ZM216.906 358.5H214.386V343.3H216.906V358.5ZM233.783 347.48C233.783 348.12 233.65 348.68 233.383 349.16C233.13 349.64 232.776 350.033 232.323 350.34C231.87 350.633 231.343 350.847 230.743 350.98V351.04C231.89 351.173 232.756 351.527 233.343 352.1C233.93 352.673 234.223 353.433 234.223 354.38C234.223 355.207 234.023 355.947 233.623 356.6C233.223 357.253 232.603 357.767 231.763 358.14C230.936 358.513 229.87 358.7 228.563 358.7C227.79 358.7 227.07 358.633 226.403 358.5C225.736 358.38 225.11 358.187 224.523 357.92V355.7C225.123 356.007 225.763 356.24 226.443 356.4C227.123 356.56 227.763 356.64 228.363 356.64C229.523 356.64 230.343 356.433 230.823 356.02C231.303 355.593 231.543 355.007 231.543 354.26C231.543 353.78 231.423 353.387 231.183 353.08C230.943 352.773 230.55 352.547 230.003 352.4C229.47 352.24 228.77 352.16 227.903 352.16H226.703V350.14H227.923C228.763 350.14 229.423 350.047 229.903 349.86C230.396 349.673 230.743 349.413 230.943 349.08C231.156 348.747 231.263 348.36 231.263 347.92C231.263 347.347 231.076 346.9 230.703 346.58C230.33 346.26 229.77 346.1 229.023 346.1C228.543 346.1 228.11 346.153 227.723 346.26C227.336 346.367 226.983 346.507 226.663 346.68C226.343 346.84 226.043 347.013 225.763 347.2L224.563 345.46C224.923 345.193 225.33 344.953 225.783 344.74C226.236 344.513 226.743 344.34 227.303 344.22C227.863 344.087 228.476 344.02 229.143 344.02C230.623 344.02 231.763 344.333 232.563 344.96C233.376 345.573 233.783 346.413 233.783 347.48ZM244.484 358.5H241.964V343.3H244.484V358.5ZM250.226 347.66V358.5H247.706V347.66H250.226ZM248.966 343.48C249.339 343.48 249.666 343.58 249.946 343.78C250.226 343.967 250.366 344.307 250.366 344.8C250.366 345.28 250.226 345.627 249.946 345.84C249.666 346.04 249.339 346.14 248.966 346.14C248.579 346.14 248.246 346.04 247.966 345.84C247.699 345.627 247.566 345.28 247.566 344.8C247.566 344.307 247.699 343.967 247.966 343.78C248.246 343.58 248.579 343.48 248.966 343.48ZM259.248 347.46C260.461 347.46 261.408 347.773 262.088 348.4C262.781 349.027 263.128 350.04 263.128 351.44V358.5H260.608V351.94C260.608 351.127 260.448 350.52 260.128 350.12C259.808 349.707 259.301 349.5 258.608 349.5C257.595 349.5 256.901 349.82 256.528 350.46C256.155 351.087 255.968 352 255.968 353.2V358.5H253.448V347.66H255.388L255.748 349.08H255.888C256.128 348.707 256.421 348.4 256.768 348.16C257.115 347.92 257.501 347.747 257.928 347.64C258.355 347.52 258.795 347.46 259.248 347.46ZM268.78 350.52C268.78 350.867 268.767 351.233 268.74 351.62C268.713 351.993 268.687 352.36 268.66 352.72H268.72C268.827 352.56 268.953 352.387 269.1 352.2C269.247 352 269.393 351.807 269.54 351.62C269.7 351.42 269.853 351.24 270 351.08L273.2 347.66H276.06L271.72 352.34L276.34 358.5H273.4L270.04 353.86L268.78 354.9V358.5H266.28V343.3H268.78V350.52Z" fill="#333333"/>
<path d="M124 377.5V323.5H116V377.5H124Z" fill="#33465C" mask="url(#path-9-inside-1_6976_17952)"/>
<path d="M169.94 421.5V407.22H171.74V419.9H177.98V421.5H169.94ZM184.328 410.58C185.248 410.58 186.035 410.78 186.688 411.18C187.355 411.58 187.862 412.147 188.208 412.88C188.568 413.6 188.748 414.447 188.748 415.42V416.48H181.408C181.435 417.693 181.742 418.62 182.328 419.26C182.928 419.887 183.762 420.2 184.828 420.2C185.508 420.2 186.108 420.14 186.628 420.02C187.162 419.887 187.708 419.7 188.268 419.46V421C187.722 421.24 187.182 421.413 186.648 421.52C186.115 421.64 185.482 421.7 184.748 421.7C183.735 421.7 182.835 421.493 182.048 421.08C181.275 420.667 180.668 420.053 180.228 419.24C179.802 418.413 179.588 417.407 179.588 416.22C179.588 415.047 179.782 414.04 180.168 413.2C180.568 412.36 181.122 411.713 181.828 411.26C182.548 410.807 183.382 410.58 184.328 410.58ZM184.308 412.02C183.468 412.02 182.802 412.293 182.308 412.84C181.828 413.373 181.542 414.12 181.448 415.08H186.908C186.895 414.173 186.682 413.44 186.268 412.88C185.855 412.307 185.202 412.02 184.308 412.02ZM193.447 421.5L189.387 410.78H191.267L193.547 417.1C193.653 417.393 193.767 417.72 193.887 418.08C194.007 418.44 194.113 418.787 194.207 419.12C194.3 419.44 194.367 419.713 194.407 419.94H194.487C194.54 419.713 194.613 419.433 194.707 419.1C194.813 418.767 194.927 418.42 195.047 418.06C195.18 417.7 195.293 417.38 195.387 417.1L197.667 410.78H199.547L195.467 421.5H193.447ZM205.383 410.58C206.303 410.58 207.09 410.78 207.743 411.18C208.41 411.58 208.916 412.147 209.263 412.88C209.623 413.6 209.803 414.447 209.803 415.42V416.48H202.463C202.49 417.693 202.796 418.62 203.383 419.26C203.983 419.887 204.816 420.2 205.883 420.2C206.563 420.2 207.163 420.14 207.683 420.02C208.216 419.887 208.763 419.7 209.323 419.46V421C208.776 421.24 208.236 421.413 207.703 421.52C207.17 421.64 206.536 421.7 205.803 421.7C204.79 421.7 203.89 421.493 203.103 421.08C202.33 420.667 201.723 420.053 201.283 419.24C200.856 418.413 200.643 417.407 200.643 416.22C200.643 415.047 200.836 414.04 201.223 413.2C201.623 412.36 202.176 411.713 202.883 411.26C203.603 410.807 204.436 410.58 205.383 410.58ZM205.363 412.02C204.523 412.02 203.856 412.293 203.363 412.84C202.883 413.373 202.596 414.12 202.503 415.08H207.963C207.95 414.173 207.736 413.44 207.323 412.88C206.91 412.307 206.256 412.02 205.363 412.02ZM214.292 421.5H212.532V406.3H214.292V421.5ZM231.044 410.56C231.044 411.52 230.777 412.287 230.244 412.86C229.71 413.42 228.99 413.793 228.084 413.98V414.06C229.23 414.193 230.084 414.553 230.644 415.14C231.204 415.727 231.484 416.493 231.484 417.44C231.484 418.267 231.29 419.007 230.904 419.66C230.517 420.3 229.917 420.8 229.104 421.16C228.304 421.52 227.27 421.7 226.004 421.7C225.257 421.7 224.564 421.64 223.924 421.52C223.284 421.413 222.67 421.213 222.084 420.92V419.28C222.684 419.573 223.33 419.807 224.024 419.98C224.717 420.14 225.384 420.22 226.024 420.22C227.304 420.22 228.224 419.973 228.784 419.48C229.357 418.973 229.644 418.28 229.644 417.4C229.644 416.507 229.29 415.867 228.584 415.48C227.89 415.08 226.91 414.88 225.644 414.88H224.264V413.38H225.664C226.837 413.38 227.724 413.133 228.324 412.64C228.937 412.147 229.244 411.493 229.244 410.68C229.244 409.987 229.01 409.453 228.544 409.08C228.077 408.693 227.444 408.5 226.644 408.5C225.87 408.5 225.21 408.613 224.664 408.84C224.117 409.067 223.577 409.353 223.044 409.7L222.164 408.5C222.67 408.1 223.297 407.753 224.044 407.46C224.804 407.167 225.664 407.02 226.624 407.02C228.117 407.02 229.224 407.353 229.944 408.02C230.677 408.687 231.044 409.533 231.044 410.56ZM241.284 421.5H239.524V406.3H241.284V421.5ZM245.58 406.76C245.847 406.76 246.08 406.853 246.28 407.04C246.494 407.213 246.6 407.493 246.6 407.88C246.6 408.253 246.494 408.533 246.28 408.72C246.08 408.907 245.847 409 245.58 409C245.287 409 245.04 408.907 244.84 408.72C244.64 408.533 244.54 408.253 244.54 407.88C244.54 407.493 244.64 407.213 244.84 407.04C245.04 406.853 245.287 406.76 245.58 406.76ZM246.44 410.78V421.5H244.68V410.78H246.44ZM254.997 410.58C256.277 410.58 257.243 410.893 257.897 411.52C258.55 412.133 258.877 413.133 258.877 414.52V421.5H257.137V414.64C257.137 412.92 256.337 412.06 254.737 412.06C253.55 412.06 252.73 412.393 252.277 413.06C251.823 413.727 251.597 414.687 251.597 415.94V421.5H249.837V410.78H251.257L251.517 412.24H251.617C251.963 411.68 252.443 411.267 253.057 411C253.67 410.72 254.317 410.58 254.997 410.58ZM263.94 414.24C263.94 414.453 263.927 414.733 263.9 415.08C263.887 415.427 263.873 415.727 263.86 415.98H263.94C264.02 415.873 264.14 415.72 264.3 415.52C264.46 415.32 264.62 415.12 264.78 414.92C264.953 414.707 265.1 414.533 265.22 414.4L268.64 410.78H270.7L266.36 415.36L271 421.5H268.88L265.16 416.5L263.94 417.56V421.5H262.2V406.3H263.94V414.24Z" fill="#2B4380"/>
<path d="M168 424H271.18V425H168V424Z" fill="#2B4380"/>
<path d="M102.46 484.5H100.66V471.8H96.2V470.22H106.9V471.8H102.46V484.5ZM116.727 479.12C116.727 480.893 116.274 482.267 115.367 483.24C114.474 484.213 113.26 484.7 111.727 484.7C110.78 484.7 109.934 484.487 109.187 484.06C108.454 483.62 107.874 482.987 107.447 482.16C107.02 481.32 106.807 480.307 106.807 479.12C106.807 477.347 107.254 475.98 108.147 475.02C109.04 474.06 110.254 473.58 111.787 473.58C112.76 473.58 113.614 473.8 114.347 474.24C115.094 474.667 115.674 475.293 116.087 476.12C116.514 476.933 116.727 477.933 116.727 479.12ZM108.627 479.12C108.627 480.387 108.874 481.393 109.367 482.14C109.874 482.873 110.674 483.24 111.767 483.24C112.847 483.24 113.64 482.873 114.147 482.14C114.654 481.393 114.907 480.387 114.907 479.12C114.907 477.853 114.654 476.86 114.147 476.14C113.64 475.42 112.84 475.06 111.747 475.06C110.654 475.06 109.86 475.42 109.367 476.14C108.874 476.86 108.627 477.853 108.627 479.12ZM124.616 473.58C125.936 473.58 126.996 474.04 127.796 474.96C128.61 475.88 129.016 477.267 129.016 479.12C129.016 480.947 128.61 482.333 127.796 483.28C126.996 484.227 125.93 484.7 124.596 484.7C123.77 484.7 123.083 484.547 122.536 484.24C122.003 483.92 121.583 483.553 121.276 483.14H121.156C121.183 483.367 121.21 483.653 121.236 484C121.263 484.347 121.276 484.647 121.276 484.9V489.3H119.516V473.78H120.956L121.196 475.24H121.276C121.596 474.773 122.016 474.38 122.536 474.06C123.056 473.74 123.75 473.58 124.616 473.58ZM124.296 475.06C123.203 475.06 122.43 475.367 121.976 475.98C121.536 476.593 121.303 477.527 121.276 478.78V479.12C121.276 480.44 121.49 481.46 121.916 482.18C122.356 482.887 123.163 483.24 124.336 483.24C124.99 483.24 125.523 483.06 125.936 482.7C126.363 482.34 126.676 481.853 126.876 481.24C127.09 480.613 127.196 479.9 127.196 479.1C127.196 477.873 126.956 476.893 126.476 476.16C126.01 475.427 125.283 475.06 124.296 475.06ZM137.256 484.5V470.22H139.056V482.9H145.296V484.5H137.256ZM151.645 473.58C152.565 473.58 153.351 473.78 154.005 474.18C154.671 474.58 155.178 475.147 155.525 475.88C155.885 476.6 156.065 477.447 156.065 478.42V479.48H148.725C148.751 480.693 149.058 481.62 149.645 482.26C150.245 482.887 151.078 483.2 152.145 483.2C152.825 483.2 153.425 483.14 153.945 483.02C154.478 482.887 155.025 482.7 155.585 482.46V484C155.038 484.24 154.498 484.413 153.965 484.52C153.431 484.64 152.798 484.7 152.065 484.7C151.051 484.7 150.151 484.493 149.365 484.08C148.591 483.667 147.985 483.053 147.545 482.24C147.118 481.413 146.905 480.407 146.905 479.22C146.905 478.047 147.098 477.04 147.485 476.2C147.885 475.36 148.438 474.713 149.145 474.26C149.865 473.807 150.698 473.58 151.645 473.58ZM151.625 475.02C150.785 475.02 150.118 475.293 149.625 475.84C149.145 476.373 148.858 477.12 148.765 478.08H154.225C154.211 477.173 153.998 476.44 153.585 475.88C153.171 475.307 152.518 475.02 151.625 475.02ZM160.763 484.5L156.703 473.78H158.583L160.863 480.1C160.97 480.393 161.083 480.72 161.203 481.08C161.323 481.44 161.43 481.787 161.523 482.12C161.616 482.44 161.683 482.713 161.723 482.94H161.803C161.856 482.713 161.93 482.433 162.023 482.1C162.13 481.767 162.243 481.42 162.363 481.06C162.496 480.7 162.61 480.38 162.703 480.1L164.983 473.78H166.863L162.783 484.5H160.763ZM172.699 473.58C173.619 473.58 174.406 473.78 175.059 474.18C175.726 474.58 176.233 475.147 176.579 475.88C176.939 476.6 177.119 477.447 177.119 478.42V479.48H169.779C169.806 480.693 170.113 481.62 170.699 482.26C171.299 482.887 172.133 483.2 173.199 483.2C173.879 483.2 174.479 483.14 174.999 483.02C175.533 482.887 176.079 482.7 176.639 482.46V484C176.093 484.24 175.553 484.413 175.019 484.52C174.486 484.64 173.853 484.7 173.119 484.7C172.106 484.7 171.206 484.493 170.419 484.08C169.646 483.667 169.039 483.053 168.599 482.24C168.173 481.413 167.959 480.407 167.959 479.22C167.959 478.047 168.153 477.04 168.539 476.2C168.939 475.36 169.493 474.713 170.199 474.26C170.919 473.807 171.753 473.58 172.699 473.58ZM172.679 475.02C171.839 475.02 171.173 475.293 170.679 475.84C170.199 476.373 169.913 477.12 169.819 478.08H175.279C175.266 477.173 175.053 476.44 174.639 475.88C174.226 475.307 173.573 475.02 172.679 475.02ZM181.608 484.5H179.848V469.3H181.608V484.5ZM191.96 484.5H190.2V469.3H191.96V484.5ZM196.256 469.76C196.523 469.76 196.756 469.853 196.956 470.04C197.17 470.213 197.276 470.493 197.276 470.88C197.276 471.253 197.17 471.533 196.956 471.72C196.756 471.907 196.523 472 196.256 472C195.963 472 195.716 471.907 195.516 471.72C195.316 471.533 195.216 471.253 195.216 470.88C195.216 470.493 195.316 470.213 195.516 470.04C195.716 469.853 195.963 469.76 196.256 469.76ZM197.116 473.78V484.5H195.356V473.78H197.116ZM205.673 473.58C206.953 473.58 207.919 473.893 208.573 474.52C209.226 475.133 209.553 476.133 209.553 477.52V484.5H207.813V477.64C207.813 475.92 207.013 475.06 205.413 475.06C204.226 475.06 203.406 475.393 202.953 476.06C202.499 476.727 202.273 477.687 202.273 478.94V484.5H200.513V473.78H201.933L202.193 475.24H202.293C202.639 474.68 203.119 474.267 203.733 474C204.346 473.72 204.993 473.58 205.673 473.58ZM214.616 477.24C214.616 477.453 214.602 477.733 214.576 478.08C214.562 478.427 214.549 478.727 214.536 478.98H214.616C214.696 478.873 214.816 478.72 214.976 478.52C215.136 478.32 215.296 478.12 215.456 477.92C215.629 477.707 215.776 477.533 215.896 477.4L219.316 473.78H221.376L217.036 478.36L221.676 484.5H219.556L215.836 479.5L214.616 480.56V484.5H212.876V469.3H214.616V477.24Z" fill="#2B4380"/>
<path d="M96 487H221.856V488H96V487Z" fill="#2B4380"/>
<rect x="241" y="161" width="168" height="1" fill="#C54600"/>
<g clip-path="url(#clip0_6976_17952)">
<rect x="402" y="149" width="24" height="24" rx="12" fill="#C54600"/>
<path d="M409.927 164.21V162.515L414.178 155.818H415.639V158.165H414.774L412.095 162.406V162.485H418.135V164.21H409.927ZM414.814 166V163.693L414.854 162.942V155.818H416.872V166H414.814Z" fill="white"/>
</g>
<g clip-path="url(#clip1_6976_17952)">
<rect y="31" width="59" height="1" fill="#C54600"/>
<g clip-path="url(#clip2_6976_17952)">
<rect y="19" width="24" height="24" rx="12" fill="#C54600"/>
<path d="M13.8302 25.8182V36H11.6775V27.8615H11.6178L9.28613 29.3232V27.4141L11.8067 25.8182H13.8302Z" fill="white"/>
</g>
</g>
<g clip-path="url(#clip3_6976_17952)">
<rect y="98" width="90" height="1" fill="#C54600"/>
<g clip-path="url(#clip4_6976_17952)">
<rect y="86" width="24" height="24" rx="12" fill="#C54600"/>
<path d="M8.4161 103V101.449L12.0404 98.093C12.3486 97.7947 12.6072 97.5263 12.816 97.2876C13.0281 97.049 13.1888 96.8153 13.2982 96.5866C13.4076 96.3546 13.4623 96.1044 13.4623 95.8359C13.4623 95.5376 13.3943 95.2808 13.2584 95.0653C13.1225 94.8466 12.9369 94.6792 12.7016 94.5632C12.4663 94.4439 12.1995 94.3842 11.9012 94.3842C11.5896 94.3842 11.3179 94.4472 11.0858 94.5732C10.8538 94.6991 10.6749 94.8797 10.5489 95.1151C10.423 95.3504 10.36 95.6304 10.36 95.9553H8.31667C8.31667 95.2891 8.46748 94.7107 8.76909 94.2202C9.0707 93.7296 9.49328 93.3501 10.0368 93.0817C10.5804 92.8132 11.2068 92.679 11.9161 92.679C12.6453 92.679 13.28 92.8082 13.8202 93.0668C14.3638 93.322 14.7864 93.6766 15.088 94.1307C15.3896 94.5848 15.5404 95.1051 15.5404 95.6918C15.5404 96.0762 15.4642 96.4557 15.3117 96.8303C15.1626 97.2048 14.8957 97.6207 14.5113 98.0781C14.1268 98.5322 13.5849 99.0774 12.8856 99.7138L11.3991 101.17V101.24H15.6746V103H8.4161Z" fill="white"/>
</g>
</g>
<g clip-path="url(#clip5_6976_17952)">
<rect y="350" width="120" height="1" fill="#C54600"/>
<g clip-path="url(#clip6_6976_17952)">
<rect y="338" width="24" height="24" rx="12" fill="#C54600"/>
<path d="M12.0323 355.139C11.3297 355.139 10.7032 355.01 10.1531 354.751C9.60618 354.493 9.17199 354.137 8.8505 353.683C8.529 353.228 8.36162 352.708 8.34837 352.121H10.4364C10.4596 352.516 10.6254 352.836 10.9336 353.081C11.2418 353.326 11.6081 353.449 12.0323 353.449C12.3704 353.449 12.6687 353.374 12.9272 353.225C13.189 353.073 13.3929 352.862 13.5387 352.594C13.6879 352.322 13.7624 352.01 13.7624 351.659C13.7624 351.301 13.6862 350.986 13.5337 350.714C13.3846 350.443 13.1774 350.231 12.9123 350.078C12.6471 349.926 12.3439 349.848 12.0025 349.844C11.7042 349.844 11.4142 349.906 11.1325 350.028C10.854 350.151 10.637 350.318 10.4812 350.531L8.56712 350.188L9.04936 344.818H15.2738V346.578H10.8242L10.5607 349.129H10.6204C10.7994 348.877 11.0695 348.668 11.4308 348.502C11.792 348.336 12.1964 348.254 12.6438 348.254C13.257 348.254 13.8039 348.398 14.2844 348.686C14.765 348.974 15.1445 349.371 15.4229 349.874C15.7013 350.375 15.8389 350.951 15.8356 351.604C15.8389 352.29 15.6798 352.9 15.3583 353.434C15.0401 353.964 14.5943 354.382 14.021 354.687C13.4509 354.988 12.788 355.139 12.0323 355.139Z" fill="white"/>
</g>
</g>
<g clip-path="url(#clip7_6976_17952)">
<rect y="162" width="63" height="1" fill="#C54600"/>
<g clip-path="url(#clip8_6976_17952)">
<rect y="150" width="24" height="24" rx="12" fill="#C54600"/>
<path d="M11.9745 167.139C11.2321 167.139 10.5709 167.012 9.99086 166.756C9.41415 166.498 8.95842 166.143 8.62367 165.692C8.29223 165.238 8.12154 164.715 8.11159 164.121H10.2792C10.2925 164.37 10.3737 164.589 10.5228 164.778C10.6753 164.963 10.8775 165.107 11.1294 165.21C11.3812 165.313 11.6646 165.364 11.9795 165.364C12.3076 165.364 12.5976 165.306 12.8495 165.19C13.1014 165.074 13.2986 164.914 13.4411 164.708C13.5837 164.503 13.6549 164.266 13.6549 163.997C13.6549 163.725 13.5787 163.485 13.4262 163.276C13.2771 163.064 13.0616 162.898 12.7799 162.779C12.5015 162.66 12.1701 162.6 11.7856 162.6H10.836V161.019H11.7856C12.1104 161.019 12.3971 160.963 12.6457 160.85C12.8976 160.737 13.0931 160.582 13.2323 160.383C13.3715 160.181 13.4411 159.945 13.4411 159.677C13.4411 159.422 13.3798 159.198 13.2572 159.006C13.1379 158.81 12.9688 158.658 12.7501 158.548C12.5347 158.439 12.2828 158.384 11.9944 158.384C11.7027 158.384 11.4359 158.437 11.194 158.543C10.952 158.646 10.7581 158.794 10.6123 158.986C10.4665 159.178 10.3886 159.403 10.3786 159.662H8.31543C8.32537 159.075 8.49275 158.558 8.81756 158.111C9.14237 157.663 9.57987 157.314 10.1301 157.062C10.6836 156.807 11.3083 156.679 12.0044 156.679C12.707 156.679 13.3218 156.807 13.8488 157.062C14.3758 157.317 14.7851 157.662 15.0768 158.096C15.3718 158.527 15.5176 159.011 15.5143 159.548C15.5176 160.118 15.3403 160.593 14.9823 160.974C14.6277 161.356 14.1653 161.598 13.5953 161.7V161.78C14.3443 161.876 14.9144 162.136 15.3055 162.56C15.6999 162.981 15.8954 163.508 15.8921 164.141C15.8954 164.721 15.7281 165.237 15.39 165.688C15.0553 166.138 14.5929 166.493 14.0029 166.751C13.413 167.01 12.7368 167.139 11.9745 167.139Z" fill="white"/>
</g>
</g>
<g clip-path="url(#clip9_6976_17952)">
<rect y="413" width="163" height="1" fill="#C54600"/>
<g clip-path="url(#clip10_6976_17952)">
<rect y="401" width="24" height="24" rx="12" fill="#C54600"/>
<path d="M9.0649 418L13.2858 409.648V409.578H8.36887V407.818H15.5131V409.603L11.2872 418H9.0649Z" fill="white"/>
</g>
</g>
<g clip-path="url(#clip11_6976_17952)">
<rect y="382" width="109" height="1" fill="#C54600"/>
<g clip-path="url(#clip12_6976_17952)">
<rect y="370" width="24" height="24" rx="12" fill="#C54600"/>
<path d="M12.1119 387.139C11.5882 387.136 11.0827 387.048 10.5955 386.876C10.1116 386.703 9.67744 386.423 9.29297 386.036C8.9085 385.648 8.60357 385.134 8.3782 384.494C8.15613 383.855 8.0451 383.069 8.0451 382.138C8.04841 381.283 8.14619 380.519 8.33842 379.846C8.53397 379.17 8.81238 378.596 9.17365 378.126C9.53823 377.655 9.97408 377.297 10.4812 377.052C10.9883 376.803 11.5567 376.679 12.1864 376.679C12.8659 376.679 13.4658 376.812 13.9862 377.077C14.5065 377.339 14.9241 377.695 15.239 378.146C15.5572 378.596 15.7494 379.102 15.8157 379.662H13.6928C13.61 379.307 13.436 379.029 13.1708 378.827C12.9057 378.625 12.5775 378.523 12.1864 378.523C11.5236 378.523 11.0198 378.812 10.6751 379.388C10.3337 379.965 10.1597 380.749 10.1531 381.74H10.2227C10.3751 381.438 10.5806 381.182 10.8391 380.969C11.101 380.754 11.3976 380.59 11.729 380.477C12.0638 380.361 12.4168 380.303 12.788 380.303C13.3912 380.303 13.9281 380.446 14.3988 380.731C14.8694 381.013 15.2406 381.4 15.5124 381.894C15.7842 382.388 15.9201 382.953 15.9201 383.589C15.9201 384.279 15.7594 384.892 15.4379 385.429C15.1197 385.966 14.6739 386.387 14.1005 386.692C13.5304 386.993 12.8675 387.143 12.1119 387.139ZM12.1019 385.449C12.4334 385.449 12.73 385.369 12.9918 385.21C13.2537 385.051 13.4592 384.836 13.6083 384.564C13.7575 384.292 13.832 383.987 13.832 383.649C13.832 383.311 13.7575 383.008 13.6083 382.739C13.4625 382.471 13.2603 382.257 13.0018 382.098C12.7433 381.939 12.4483 381.859 12.1168 381.859C11.8683 381.859 11.6379 381.906 11.4258 381.999C11.217 382.091 11.033 382.221 10.8739 382.386C10.7182 382.552 10.5955 382.744 10.506 382.963C10.4165 383.179 10.3718 383.409 10.3718 383.654C10.3718 383.982 10.4464 384.282 10.5955 384.554C10.748 384.826 10.9535 385.043 11.212 385.205C11.4738 385.368 11.7705 385.449 12.1019 385.449Z" fill="white"/>
</g>
</g>
<defs>
<clipPath id="clip0_6976_17952">
<rect x="402" y="149" width="24" height="24" rx="12" fill="white"/>
</clipPath>
<clipPath id="clip1_6976_17952">
<rect width="59" height="24" fill="white" transform="translate(0 19)"/>
</clipPath>
<clipPath id="clip2_6976_17952">
<rect y="19" width="24" height="24" rx="12" fill="white"/>
</clipPath>
<clipPath id="clip3_6976_17952">
<rect width="90" height="24" fill="white" transform="translate(0 86)"/>
</clipPath>
<clipPath id="clip4_6976_17952">
<rect y="86" width="24" height="24" rx="12" fill="white"/>
</clipPath>
<clipPath id="clip5_6976_17952">
<rect width="120" height="24" fill="white" transform="translate(0 338)"/>
</clipPath>
<clipPath id="clip6_6976_17952">
<rect y="338" width="24" height="24" rx="12" fill="white"/>
</clipPath>
<clipPath id="clip7_6976_17952">
<rect width="63" height="24" fill="white" transform="translate(0 150)"/>
</clipPath>
<clipPath id="clip8_6976_17952">
<rect y="150" width="24" height="24" rx="12" fill="white"/>
</clipPath>
<clipPath id="clip9_6976_17952">
<rect width="163" height="24" fill="white" transform="translate(0 401)"/>
</clipPath>
<clipPath id="clip10_6976_17952">
<rect y="401" width="24" height="24" rx="12" fill="white"/>
</clipPath>
<clipPath id="clip11_6976_17952">
<rect width="109" height="24" fill="white" transform="translate(0 370)"/>
</clipPath>
<clipPath id="clip12_6976_17952">
<rect y="370" width="24" height="24" rx="12" fill="white"/>
</clipPath>
</defs>
</svg>
