<?xml version="1.0" encoding="UTF-8"?>
<svg id="Layer_1" xmlns="http://www.w3.org/2000/svg" xmlns:xlink="http://www.w3.org/1999/xlink" version="1.1" width="493" height="63" viewBox="0 0 493 63">
  <!-- Generator: Adobe Illustrator 29.2.1, SVG Export Plug-In . SVG Version: 2.1.0 Build 116)  -->
  <defs>
    <style>
      .st0 {
        fill: none;
      }

      .st1 {
        clip-path: url(#clippath-1);
      }

      .st2 {
        clip-path: url(#clippath-3);
      }

      .st3 {
        clip-path: url(#clippath-4);
      }

      .st4 {
        clip-path: url(#clippath-2);
      }

      .st5 {
        fill: #fff;
      }

      .st6 {
        fill: #c54600;
      }

      .st7 {
        fill: #333;
      }

      .st8 {
        clip-path: url(#clippath);
      }
    </style>
    <clipPath id="clippath">
      <rect class="st0" x="56.5" y="16" width="256" height="32"/>
    </clipPath>
    <clipPath id="clippath-1">
      <rect class="st0" y="20.5" width="49.9" height="24"/>
    </clipPath>
    <clipPath id="clippath-2">
      <path class="st0" d="M12,20.5h0c6.6,0,12,5.4,12,12s-5.4,12-12,12S0,39.1,0,32.5s5.4-12,12-12Z"/>
    </clipPath>
    <clipPath id="clippath-3">
      <rect class="st0" x="319.5" y="20.9" width="49.5" height="24"/>
    </clipPath>
    <clipPath id="clippath-4">
      <path class="st0" d="M357,20.9h0c6.6,0,12,5.4,12,12s-5.4,12-12,12-12-5.4-12-12,5.4-12,12-12Z"/>
    </clipPath>
  </defs>
  <g class="st8">
    <g>
      <path class="st7" d="M69.9,32.7c0,2.4-.7,4.2-2,5.5-1.3,1.2-3.1,1.8-5.5,1.8h-4v-14.3h4.4c1.4,0,2.7.3,3.7.8,1.1.5,1.9,1.3,2.4,2.4.6,1,.9,2.3.9,3.8ZM68,32.8c0-1.9-.5-3.3-1.4-4.2-.9-.9-2.3-1.3-4-1.3h-2.3v11.2h1.9c3.9,0,5.8-1.9,5.8-5.7ZM76.9,29.1c1.3,0,2.3.3,2.9.9.6.6.9,1.5.9,2.7v7.3h-1.3l-.3-1.5h0c-.5.6-1,1-1.5,1.3-.5.3-1.2.4-2.1.4s-1.8-.3-2.4-.8c-.6-.5-1-1.3-1-2.4s.4-1.9,1.3-2.5c.8-.6,2.1-.9,3.9-1h1.8v-.7c0-.9-.2-1.5-.6-1.9-.4-.3-.9-.5-1.6-.5s-1.1,0-1.6.3c-.5.2-1,.3-1.4.6l-.5-1.3c.5-.3,1-.5,1.7-.6.6-.2,1.3-.3,2-.3ZM77.4,34.8c-1.3,0-2.3.3-2.8.6-.5.4-.8.9-.8,1.6s.2,1,.5,1.3c.4.3.8.4,1.4.4.9,0,1.7-.2,2.3-.7.6-.5.9-1.3.9-2.3v-1h-1.6ZM87.6,38.8c.3,0,.5,0,.8,0,.3,0,.5-.1.7-.2v1.3c-.2,0-.5.2-.8.2-.3,0-.7.1-1,.1-.6,0-1.1,0-1.6-.3-.5-.2-.8-.5-1.1-1-.3-.5-.4-1.2-.4-2v-6.2h-1.5v-.8l1.5-.7.7-2.3h1v2.5h3.1v1.4h-3.1v6.2c0,.7.2,1.1.5,1.5.3.3.7.5,1.2.5ZM95.4,29.1c.9,0,1.7.2,2.4.6.7.4,1.2,1,1.5,1.7.4.7.5,1.6.5,2.5v1.1h-7.3c0,1.2.3,2.1.9,2.8.6.6,1.4.9,2.5.9s1.3,0,1.8-.2c.5-.1,1.1-.3,1.6-.6v1.5c-.5.2-1.1.4-1.6.5-.5.1-1.2.2-1.9.2s-1.9-.2-2.7-.6c-.8-.4-1.4-1-1.8-1.8-.4-.8-.6-1.8-.6-3s.2-2.2.6-3c.4-.8,1-1.5,1.7-1.9.7-.5,1.6-.7,2.5-.7ZM95.4,30.5c-.8,0-1.5.3-2,.8-.5.5-.8,1.3-.9,2.2h5.5c0-.9-.2-1.6-.6-2.2-.4-.6-1.1-.9-2-.9ZM119.5,29.1c1.2,0,2.1.3,2.7.9.6.6.9,1.6.9,3v7h-1.7v-6.9c0-1.7-.7-2.5-2.2-2.5s-1.8.3-2.2.9c-.4.6-.7,1.5-.7,2.6v5.9h-1.7v-6.9c0-1.7-.7-2.5-2.2-2.5s-1.8.3-2.2,1c-.4.7-.6,1.6-.6,2.9v5.6h-1.8v-10.7h1.4l.3,1.5h0c.3-.6.8-1,1.3-1.2.6-.3,1.2-.4,1.8-.4,1.7,0,2.8.6,3.3,1.8h.1c.4-.6.8-1.1,1.5-1.4.6-.3,1.3-.4,2-.4ZM135.7,34.6c0,1.8-.5,3.1-1.4,4.1-.9,1-2.1,1.5-3.6,1.5s-1.8-.2-2.5-.6c-.7-.4-1.3-1.1-1.7-1.9-.4-.8-.6-1.9-.6-3,0-1.8.4-3.1,1.3-4.1.9-1,2.1-1.4,3.6-1.4s1.8.2,2.6.7c.7.4,1.3,1.1,1.7,1.9.4.8.6,1.8.6,3ZM127.6,34.6c0,1.3.2,2.3.7,3,.5.7,1.3,1.1,2.4,1.1s1.9-.4,2.4-1.1c.5-.7.8-1.8.8-3s-.3-2.3-.8-3c-.5-.7-1.3-1.1-2.4-1.1s-1.9.4-2.4,1.1c-.5.7-.7,1.7-.7,3ZM142.3,40.2c-1.3,0-2.4-.5-3.2-1.4-.8-.9-1.2-2.3-1.2-4.2s.4-3.2,1.2-4.2c.8-.9,1.9-1.4,3.2-1.4s1.5.2,2,.5c.5.3,1,.7,1.3,1.1h.1c0-.2,0-.4,0-.8,0-.3,0-.6,0-.8v-4.3h1.8v15.2h-1.4l-.3-1.4h0c-.3.5-.7.8-1.3,1.2s-1.2.5-2.1.5ZM142.6,38.7c1.1,0,1.9-.3,2.4-.9.5-.6.7-1.6.7-2.8v-.3c0-1.3-.2-2.4-.7-3.1-.4-.7-1.3-1.1-2.4-1.1s-1.7.4-2.1,1.1c-.5.7-.7,1.8-.7,3s.2,2.3.7,3c.5.7,1.2,1.1,2.2,1.1ZM151.7,25.3c.3,0,.5,0,.7.3.2.2.3.5.3.8s-.1.7-.3.8c-.2.2-.4.3-.7.3s-.5,0-.7-.3c-.2-.2-.3-.5-.3-.8s0-.7.3-.8c.2-.2.4-.3.7-.3ZM152.6,29.3v10.7h-1.8v-10.7h1.8ZM160.9,30.6h-2.7v9.4h-1.8v-9.4h-1.9v-.8l1.9-.6v-.6c0-1.4.3-2.4.9-3,.6-.6,1.5-.9,2.6-.9s.8,0,1.2.1c.4,0,.7.1.9.2l-.5,1.4c-.2,0-.5-.1-.7-.2-.3,0-.6-.1-.9-.1-.6,0-1,.2-1.3.6-.3.4-.4,1-.4,1.8v.7h2.7v1.4ZM163.8,25.3c.3,0,.5,0,.7.3.2.2.3.5.3.8s-.1.7-.3.8c-.2.2-.4.3-.7.3s-.5,0-.7-.3c-.2-.2-.3-.5-.3-.8s0-.7.3-.8c.2-.2.4-.3.7-.3ZM164.6,29.3v10.7h-1.8v-10.7h1.8ZM172.2,29.1c.9,0,1.7.2,2.4.6.7.4,1.2,1,1.5,1.7.4.7.5,1.6.5,2.5v1.1h-7.3c0,1.2.3,2.1.9,2.8.6.6,1.4.9,2.5.9s1.3,0,1.8-.2c.5-.1,1.1-.3,1.6-.6v1.5c-.5.2-1.1.4-1.6.5-.5.1-1.2.2-1.9.2s-1.9-.2-2.7-.6c-.8-.4-1.4-1-1.8-1.8-.4-.8-.6-1.8-.6-3s.2-2.2.6-3c.4-.8,1-1.5,1.7-1.9.7-.5,1.6-.7,2.5-.7ZM172.1,30.5c-.8,0-1.5.3-2,.8-.5.5-.8,1.3-.9,2.2h5.5c0-.9-.2-1.6-.6-2.2-.4-.6-1.1-.9-2-.9ZM183.1,40.2c-1.3,0-2.4-.5-3.2-1.4-.8-.9-1.2-2.3-1.2-4.2s.4-3.2,1.2-4.2c.8-.9,1.9-1.4,3.2-1.4s1.5.2,2,.5c.5.3,1,.7,1.3,1.1h.1c0-.2,0-.4,0-.8,0-.3,0-.6,0-.8v-4.3h1.8v15.2h-1.4l-.3-1.4h0c-.3.5-.7.8-1.3,1.2-.5.3-1.2.5-2.1.5ZM183.4,38.7c1.1,0,1.9-.3,2.4-.9.5-.6.7-1.6.7-2.8v-.3c0-1.3-.2-2.4-.7-3.1-.4-.7-1.3-1.1-2.4-1.1s-1.7.4-2.1,1.1c-.5.7-.7,1.8-.7,3s.2,2.3.7,3c.5.7,1.2,1.1,2.2,1.1ZM191.4,30.4c0-.5.1-.9.4-1.1.2-.2.5-.3.9-.3s.6.1.9.3c.3.2.4.6.4,1.1s-.1.8-.4,1c-.2.2-.5.3-.9.3s-.6-.1-.9-.3c-.2-.2-.4-.6-.4-1ZM191.4,38.9c0-.5.1-.8.4-1,.2-.2.5-.3.9-.3s.6,0,.9.3c.3.2.4.5.4,1s-.1.8-.4,1c-.2.2-.5.3-.9.3s-.6-.1-.9-.3c-.2-.2-.4-.6-.4-1Z"/>
      <path class="st7" d="M217.9,40h-9.4v-1.5l3.7-3.8c.7-.7,1.3-1.4,1.8-1.9.5-.6.9-1.1,1.1-1.6.3-.5.4-1.1.4-1.8s-.2-1.4-.7-1.8c-.5-.4-1.1-.6-1.8-.6s-1.3.1-1.8.4c-.5.2-1.1.6-1.6,1l-.9-1.2c.6-.5,1.2-.9,1.9-1.2.7-.3,1.6-.5,2.5-.5,1.3,0,2.4.3,3.2,1,.8.7,1.2,1.6,1.2,2.8s-.2,1.4-.5,2.1-.7,1.3-1.3,1.9c-.5.6-1.2,1.3-1.9,2l-3,2.9h0c0,0,7.2,0,7.2,0v1.6ZM229.4,32.8c0,1.5-.2,2.9-.5,4-.3,1.1-.8,1.9-1.5,2.5-.7.6-1.6.9-2.8.9s-2.8-.6-3.6-1.9c-.8-1.3-1.1-3.1-1.1-5.4s.2-2.9.5-4c.3-1.1.8-1.9,1.5-2.5.7-.6,1.6-.9,2.7-.9s2.8.6,3.6,1.9c.8,1.3,1.2,3.1,1.2,5.4ZM221.7,32.8c0,2,.2,3.4.7,4.4.5,1,1.2,1.5,2.3,1.5s1.8-.5,2.3-1.4c.5-1,.7-2.4.7-4.4s-.2-3.4-.7-4.4c-.5-1-1.2-1.5-2.3-1.5s-1.8.5-2.3,1.5c-.4,1-.7,2.4-.7,4.4ZM240.8,40h-9.4v-1.5l3.7-3.8c.7-.7,1.3-1.4,1.8-1.9.5-.6.9-1.1,1.1-1.6.3-.5.4-1.1.4-1.8s-.2-1.4-.7-1.8c-.5-.4-1.1-.6-1.8-.6s-1.3.1-1.8.4c-.5.2-1.1.6-1.6,1l-.9-1.2c.6-.5,1.2-.9,1.9-1.2.7-.3,1.6-.5,2.5-.5,1.3,0,2.4.3,3.2,1,.8.7,1.2,1.6,1.2,2.8s-.2,1.4-.5,2.1c-.3.7-.7,1.3-1.3,1.9-.5.6-1.2,1.3-1.9,2l-3,2.9h0c0,0,7.2,0,7.2,0v1.6ZM251.7,29.1c0,1-.3,1.7-.8,2.3-.5.6-1.3.9-2.2,1.1h0c1.1.2,2,.6,2.6,1.2.6.6.8,1.4.8,2.3s-.2,1.6-.6,2.2c-.4.6-1,1.1-1.8,1.5-.8.4-1.8.5-3.1.5s-1.4,0-2.1-.2c-.6-.1-1.3-.3-1.8-.6v-1.6c.6.3,1.2.5,1.9.7.7.2,1.4.2,2,.2,1.3,0,2.2-.2,2.8-.7.6-.5.9-1.2.9-2.1s-.4-1.5-1.1-1.9c-.7-.4-1.7-.6-2.9-.6h-1.4v-1.5h1.4c1.2,0,2.1-.2,2.7-.7.6-.5.9-1.1.9-2s-.2-1.2-.7-1.6c-.5-.4-1.1-.6-1.9-.6s-1.4.1-2,.3c-.5.2-1.1.5-1.6.9l-.9-1.2c.5-.4,1.1-.7,1.9-1,.8-.3,1.6-.4,2.6-.4,1.5,0,2.6.3,3.3,1,.7.7,1.1,1.5,1.1,2.5ZM254.1,35.4v-1.6h4.8v1.6h-4.8ZM270.2,32.8c0,1.5-.2,2.9-.5,4-.3,1.1-.8,1.9-1.5,2.5-.7.6-1.6.9-2.8.9s-2.8-.6-3.6-1.9c-.8-1.3-1.1-3.1-1.1-5.4s.2-2.9.5-4c.3-1.1.8-1.9,1.5-2.5.7-.6,1.6-.9,2.7-.9s2.8.6,3.6,1.9c.8,1.3,1.2,3.1,1.2,5.4ZM262.5,32.8c0,2,.2,3.4.7,4.4.5,1,1.2,1.5,2.3,1.5s1.8-.5,2.3-1.4c.5-1,.7-2.4.7-4.4s-.2-3.4-.7-4.4c-.5-1-1.2-1.5-2.3-1.5s-1.8.5-2.3,1.5c-.4,1-.7,2.4-.7,4.4ZM278.3,40h-1.7v-10c0-.6,0-1,0-1.4,0-.3,0-.7,0-1.1-.2.2-.4.4-.6.5s-.4.3-.7.6l-1.5,1.2-.9-1.2,3.9-3h1.5v14.3ZM283.4,35.4v-1.6h4.8v1.6h-4.8ZM298.9,29.1c0,1-.3,1.7-.8,2.3-.5.6-1.3.9-2.2,1.1h0c1.1.2,2,.6,2.6,1.2s.8,1.4.8,2.3-.2,1.6-.6,2.2c-.4.6-1,1.1-1.8,1.5-.8.4-1.8.5-3.1.5s-1.4,0-2.1-.2c-.6-.1-1.3-.3-1.8-.6v-1.6c.6.3,1.2.5,1.9.7.7.2,1.4.2,2,.2,1.3,0,2.2-.2,2.8-.7.6-.5.9-1.2.9-2.1s-.4-1.5-1.1-1.9c-.7-.4-1.7-.6-2.9-.6h-1.4v-1.5h1.4c1.2,0,2.1-.2,2.7-.7.6-.5.9-1.1.9-2s-.2-1.2-.7-1.6c-.5-.4-1.1-.6-1.9-.6s-1.4.1-2,.3c-.5.2-1.1.5-1.6.9l-.9-1.2c.5-.4,1.1-.7,1.9-1,.8-.3,1.6-.4,2.6-.4,1.5,0,2.6.3,3.3,1,.7.7,1.1,1.5,1.1,2.5ZM311,32.8c0,1.5-.2,2.9-.5,4-.3,1.1-.8,1.9-1.5,2.5-.7.6-1.6.9-2.8.9s-2.8-.6-3.6-1.9c-.8-1.3-1.1-3.1-1.1-5.4s.2-2.9.5-4c.3-1.1.8-1.9,1.5-2.5.7-.6,1.6-.9,2.7-.9s2.8.6,3.6,1.9c.8,1.3,1.2,3.1,1.2,5.4ZM303.2,32.8c0,2,.2,3.4.7,4.4.5,1,1.2,1.5,2.3,1.5s1.8-.5,2.3-1.4c.5-1,.7-2.4.7-4.4s-.2-3.4-.7-4.4c-.5-1-1.2-1.5-2.3-1.5s-1.8.5-2.3,1.5c-.4,1-.7,2.4-.7,4.4Z"/>
    </g>
  </g>
  <g class="st1">
    <g>
      <rect class="st6" y="32.5" width="50" height="1"/>
      <g class="st4">
        <g>
          <path class="st6" d="M12,20.5h0c6.6,0,12,5.4,12,12h0c0,6.6-5.4,12-12,12h0c-6.6,0-12-5.4-12-12h0c0-6.6,5.4-12,12-12Z"/>
          <path class="st5" d="M13.2,27.8v8.7h-1.1v-7.6h0l-2.1,1.4v-1.1l2.2-1.4h1.1Z"/>
        </g>
      </g>
    </g>
  </g>
  <g class="st2">
    <g>
      <rect class="st6" x="319.5" y="32.9" width="49.5" height="1"/>
      <g class="st3">
        <g>
          <path class="st6" d="M357,20.9h0c6.6,0,12,5.4,12,12h0c0,6.6-5.4,12-12,12h0c-6.6,0-12-5.4-12-12h0c0-6.6,5.4-12,12-12Z"/>
          <path class="st5" d="M354.3,36.9v-.8l2.9-3.2c.3-.4.6-.7.8-1,.2-.3.4-.5.5-.8.1-.2.2-.5.2-.8s0-.6-.2-.8c-.1-.2-.3-.4-.6-.5-.3-.1-.5-.2-.9-.2s-.6,0-.9.2c-.2.1-.4.3-.6.6-.1.2-.2.5-.2.9h-1c0-.5.1-1,.4-1.3.2-.4.6-.7,1-.9.4-.2.9-.3,1.4-.3s1,.1,1.4.3c.4.2.7.5.9.9.2.4.3.8.3,1.2s0,.6-.2.9c-.1.3-.3.6-.6,1-.3.4-.7.8-1.2,1.4l-2,2.1h0c0,0,4.1,0,4.1,0v.9h-5.5Z"/>
        </g>
      </g>
    </g>
  </g>
</svg>