<svg xmlns="http://www.w3.org/2000/svg" xmlns:xlink="http://www.w3.org/1999/xlink" width="250" viewBox="0 0 220 96" style="enable-background:new 0 0 220 96;" xml:space="preserve">
<style type="text/css">
	.st0{fill:#26374A;}
	.st1{fill:#FFFFFF;}
	.st2{clip-path:url(#SVGID_00000104670942053301852150000013711345226669825207_);}
	.st3{fill:#C54600;}
	.st4{clip-path:url(#SVGID_00000022561018673296497100000014785590945288562858_);}
	.st5{clip-path:url(#SVGID_00000100342165559966458890000012118539389955984007_);}
	.st6{clip-path:url(#SVGID_00000130641699216240701040000017981337078053574838_);}
	.st7{clip-path:url(#SVGID_00000153696441709072135680000012003694714855936673_);}
	.st8{clip-path:url(#SVGID_00000024719857529860929110000009485953127911585961_);}
</style>
<path class="st0" d="M54,48h160c3.3,0,6,2.7,6,6v36c0,3.3-2.7,6-6,6H54c-3.3,0-6-2.7-6-6V54C48,50.7,50.7,48,54,48z"/>
<path class="st1" d="M61.9,65.7h4.2c1.8,0,3.2,0.3,4.1,0.8c0.9,0.5,1.4,1.5,1.4,2.8c0,0.8-0.2,1.5-0.7,2.1c-0.4,0.6-1.1,0.9-1.9,1.1 v0.1c0.6,0.1,1.1,0.3,1.5,0.5c0.5,0.2,0.8,0.6,1.1,1.1c0.3,0.5,0.4,1.1,0.4,1.8c0,1.3-0.5,2.3-1.4,3S68.6,80,67,80h-5.1V65.7z M64.1,71.7h2.4c1.1,0,1.9-0.2,2.3-0.5c0.4-0.4,0.6-0.9,0.6-1.6s-0.3-1.2-0.8-1.5c-0.5-0.3-1.3-0.5-2.4-0.5h-2.1V71.7z M64.1,73.4 v4.8h2.6c1.1,0,1.9-0.2,2.4-0.7c0.5-0.5,0.7-1.1,0.7-1.8c0-0.7-0.2-1.2-0.7-1.6c-0.5-0.4-1.3-0.6-2.5-0.6H64.1z M84.1,69.2V80h-1.7 l-0.3-1.4H82c-0.3,0.6-0.8,1-1.4,1.2c-0.6,0.3-1.3,0.4-1.9,0.4c-1.3,0-2.2-0.3-2.9-0.9c-0.7-0.6-1-1.6-1-3v-7.1h2.1V76 c0,0.8,0.2,1.5,0.5,1.9c0.4,0.4,0.9,0.6,1.7,0.6c1.1,0,1.9-0.3,2.3-1c0.4-0.7,0.6-1.6,0.6-2.8v-5.5H84.1z M91.3,78.5 c0.6,0,1.1-0.1,1.6-0.3v1.6c-0.2,0.1-0.5,0.2-0.9,0.3c-0.4,0.1-0.8,0.1-1.2,0.1c-0.6,0-1.1-0.1-1.6-0.3c-0.5-0.2-0.9-0.5-1.2-1 c-0.3-0.5-0.4-1.2-0.4-2.1v-6h-1.5v-1l1.6-0.8l0.7-2.3h1.3v2.4h3.1v1.6h-3.1v5.9c0,0.6,0.1,1,0.4,1.3C90.4,78.3,90.8,78.5,91.3,78.5 z M98.9,78.5c0.6,0,1.1-0.1,1.6-0.3v1.6c-0.2,0.1-0.5,0.2-0.9,0.3c-0.4,0.1-0.8,0.1-1.2,0.1c-0.6,0-1.1-0.1-1.6-0.3 c-0.5-0.2-0.9-0.5-1.2-1s-0.4-1.2-0.4-2.1v-6h-1.5v-1l1.6-0.8l0.7-2.3h1.3v2.4h3.1v1.6h-3.1v5.9c0,0.6,0.1,1,0.4,1.3 C98.1,78.3,98.5,78.5,98.9,78.5z M112.2,74.6c0,1.8-0.5,3.2-1.4,4.1c-0.9,1-2.2,1.5-3.7,1.5c-1,0-1.8-0.2-2.6-0.6 c-0.7-0.4-1.3-1.1-1.8-1.9c-0.4-0.8-0.6-1.9-0.6-3.1c0-1.8,0.5-3.2,1.4-4.1c0.9-1,2.1-1.5,3.7-1.5c1,0,1.9,0.2,2.6,0.7 c0.8,0.4,1.4,1.1,1.8,1.9C112,72.4,112.2,73.4,112.2,74.6z M104.3,74.6c0,1.2,0.2,2.2,0.7,2.8c0.5,0.7,1.2,1,2.2,1s1.7-0.3,2.2-1 c0.5-0.7,0.7-1.6,0.7-2.8c0-1.2-0.2-2.2-0.7-2.8c-0.5-0.7-1.2-1-2.2-1c-1,0-1.7,0.3-2.2,1C104.5,72.4,104.3,73.4,104.3,74.6z M120.3,69c1.3,0,2.2,0.3,2.9,0.9c0.7,0.6,1,1.6,1,3v7h-2.1v-6.7c0-1.7-0.7-2.5-2.2-2.5c-1.1,0-1.9,0.3-2.3,1 c-0.4,0.7-0.6,1.6-0.6,2.8V80h-2.1V69.2h1.7l0.3,1.4h0.1c0.3-0.6,0.8-1,1.4-1.2C119,69.2,119.7,69,120.3,69z M132.9,80V65.7h2.2 v12.4h6.1V80H132.9z M147.6,69c1.3,0,2.4,0.3,3,0.9c0.7,0.6,1,1.5,1,2.8V80h-1.5l-0.4-1.5h-0.1c-0.5,0.6-1,1-1.5,1.3 c-0.5,0.3-1.2,0.4-2.1,0.4c-1,0-1.8-0.3-2.4-0.8c-0.6-0.5-1-1.4-1-2.5c0-1.1,0.4-1.9,1.2-2.5c0.8-0.6,2.1-0.9,3.8-0.9l1.8-0.1v-0.6 c0-0.8-0.2-1.3-0.5-1.7c-0.4-0.3-0.9-0.5-1.5-0.5c-0.5,0-1.1,0.1-1.6,0.2c-0.5,0.2-1,0.4-1.5,0.6l-0.7-1.5c0.5-0.3,1.1-0.5,1.7-0.7 C146.2,69.1,146.9,69,147.6,69z M149.5,74.8l-1.4,0c-1.2,0.1-2.1,0.3-2.6,0.6c-0.5,0.4-0.7,0.9-0.7,1.5c0,0.6,0.2,1,0.5,1.2 c0.3,0.3,0.8,0.4,1.3,0.4c0.8,0,1.5-0.2,2.1-0.7c0.6-0.5,0.8-1.2,0.8-2.1V74.8z M157,64.8v3.7c0,0.4,0,0.8,0,1.3 c0,0.4,0,0.7-0.1,0.9h0.1c0.3-0.5,0.7-0.8,1.2-1.1c0.5-0.3,1.2-0.5,2-0.5c1.3,0,2.3,0.5,3.1,1.4c0.8,0.9,1.2,2.3,1.2,4.2 c0,1.9-0.4,3.3-1.2,4.2c-0.8,0.9-1.8,1.4-3.1,1.4c-0.8,0-1.5-0.1-2-0.4c-0.5-0.3-0.9-0.7-1.2-1.1h-0.2l-0.4,1.3h-1.6V64.8H157z M159.8,70.8c-1,0-1.7,0.3-2.1,0.9c-0.4,0.6-0.6,1.5-0.6,2.8v0.2c0,1.2,0.2,2.2,0.6,2.9c0.4,0.7,1.1,1,2.2,1c0.9,0,1.5-0.3,1.9-1 c0.4-0.7,0.7-1.6,0.7-2.9C162.4,72,161.5,70.8,159.8,70.8z M171.5,69c1.4,0,2.5,0.4,3.3,1.3c0.8,0.9,1.2,2.1,1.2,3.6v1.2h-7.2 c0,1.1,0.3,2,0.9,2.5c0.6,0.6,1.3,0.9,2.3,0.9c0.7,0,1.3-0.1,1.8-0.2c0.5-0.1,1.1-0.3,1.7-0.6v1.8c-0.5,0.3-1.1,0.4-1.6,0.5 c-0.5,0.1-1.2,0.2-2,0.2c-1,0-2-0.2-2.8-0.6s-1.4-1-1.9-1.8c-0.4-0.8-0.7-1.8-0.7-3c0-1.2,0.2-2.2,0.6-3.1c0.4-0.8,1-1.5,1.7-1.9 C169.7,69.2,170.6,69,171.5,69z M171.5,70.7c-0.8,0-1.4,0.2-1.8,0.7c-0.5,0.5-0.7,1.2-0.8,2.1h5.1c0-0.8-0.2-1.5-0.6-2
	C173,70.9,172.4,70.7,171.5,70.7z M180.9,80h-2.1V64.8h2.1V80z"/>
<path class="st1" d="M199,81.2c-0.4,0-0.7-0.1-0.9-0.4c-0.5-0.5-0.5-1.3,0-1.8l6.6-6.6l-6.6-6.6c-0.5-0.5-0.5-1.3,0-1.8 c0.5-0.5,1.3-0.5,1.8,0l7.5,7.5c0.5,0.5,0.5,1.3,0,1.8l-7.5,7.5C199.6,81.1,199.3,81.2,199,81.2z"/>
<g>
	<defs>
		<rect id="SVGID_1_" y="60" width="48" height="24"/>
	</defs>
	<clipPath id="SVGID_00000079475349611605089430000009773991732179156100_">
		<use xlink:href="#SVGID_1_"  style="overflow:visible;"/>
	</clipPath>
	<g style="clip-path:url(#SVGID_00000079475349611605089430000009773991732179156100_);">
		<rect y="72" class="st3" width="48" height="1"/>
		<g>
			<defs>
				<path id="SVGID_00000098189566158414469950000015374975876499237509_" d="M12,60L12,60c6.6,0,12,5.4,12,12l0,0
					c0,6.6-5.4,12-12,12l0,0C5.4,84,0,78.6,0,72l0,0C0,65.4,5.4,60,12,60z"/>
			</defs>
			<clipPath id="SVGID_00000071522969700434615420000005573801430752014269_">
				<use xlink:href="#SVGID_00000098189566158414469950000015374975876499237509_"  style="overflow:visible;"/>
			</clipPath>
			<g style="clip-path:url(#SVGID_00000071522969700434615420000005573801430752014269_);">
				<path class="st3" d="M12,60L12,60c6.6,0,12,5.4,12,12l0,0c0,6.6-5.4,12-12,12l0,0C5.4,84,0,78.6,0,72l0,0C0,65.4,5.4,60,12,60z"
					/>
				<path class="st1" d="M13.8,66.8V77h-2.2v-8.1h-0.1l-2.3,1.5v-1.9l2.5-1.6H13.8z"/>
			</g>
		</g>
	</g>
</g>
<g>
	<defs>
		<rect id="SVGID_00000085965093032944147050000011312846094403027886_" x="109.5" width="24" height="60"/>
	</defs>
	<clipPath id="SVGID_00000015335804620386110580000018001962730535423663_">
		<use xlink:href="#SVGID_00000085965093032944147050000011312846094403027886_"  style="overflow:visible;"/>
	</clipPath>
	<g style="clip-path:url(#SVGID_00000015335804620386110580000018001962730535423663_);">
		<rect x="121.5" class="st3" width="1" height="60"/>
		<g>
			<defs>
				<path id="SVGID_00000018222287026062017610000005702661516013877661_" d="M121.5,0L121.5,0c6.6,0,12,5.4,12,12l0,0 c0,6.6-5.4,12-12,12l0,0c-6.6,0-12-5.4-12-12l0,0C109.5,5.4,114.9,0,121.5,0z"/>
			</defs>
			<clipPath id="SVGID_00000173153891654877516910000003358176793976104377_">
				<use xlink:href="#SVGID_00000018222287026062017610000005702661516013877661_"  style="overflow:visible;"/>
			</clipPath>
			<g style="clip-path:url(#SVGID_00000173153891654877516910000003358176793976104377_);">
				<path class="st3" d="M121.5,0L121.5,0c6.6,0,12,5.4,12,12l0,0c0,6.6-5.4,12-12,12l0,0c-6.6,0-12-5.4-12-12l0,0 C109.5,5.4,114.9,0,121.5,0z"/>
				<path class="st1" d="M117.9,17v-1.6l3.6-3.4c0.3-0.3,0.6-0.6,0.8-0.8c0.2-0.2,0.4-0.5,0.5-0.7c0.1-0.2,0.2-0.5,0.2-0.8 c0-0.3-0.1-0.6-0.2-0.8c-0.1-0.2-0.3-0.4-0.6-0.5c-0.2-0.1-0.5-0.2-0.8-0.2c-0.3,0-0.6,0.1-0.8,0.2c-0.2,0.1-0.4,0.3-0.5,0.5 c-0.1,0.2-0.2,0.5-0.2,0.8h-2c0-0.7,0.1-1.2,0.5-1.7c0.3-0.5,0.7-0.9,1.3-1.1c0.5-0.3,1.2-0.4,1.9-0.4c0.7,0,1.4,0.1,1.9,0.4 c0.5,0.3,1,0.6,1.3,1.1c0.3,0.5,0.5,1,0.5,1.6c0,0.4-0.1,0.8-0.2,1.1c-0.1,0.4-0.4,0.8-0.8,1.2c-0.4,0.5-0.9,1-1.6,1.6l-1.5,1.5 v0.1h4.3V17H117.9z"/>
			</g>
		</g>
	</g>
</g>
<g>
	<defs>
		<rect id="SVGID_00000057117875748435480480000000192324367147022775_" x="189.5" width="24" height="60"/>
	</defs>
	<clipPath id="SVGID_00000103964218204595914970000012874861653460670626_">
		<use xlink:href="#SVGID_00000057117875748435480480000000192324367147022775_"  style="overflow:visible;"/>
	</clipPath>
	<g style="clip-path:url(#SVGID_00000103964218204595914970000012874861653460670626_);">
		<rect x="201.5" class="st3" width="1" height="60"/>
		<g>
			<defs>
				<path id="SVGID_00000081609695887967968220000010079509158887507084_" d="M201.5,0L201.5,0c6.6,0,12,5.4,12,12l0,0
					c0,6.6-5.4,12-12,12l0,0c-6.6,0-12-5.4-12-12l0,0C189.5,5.4,194.9,0,201.5,0z"/>
			</defs>
			<clipPath id="SVGID_00000150785565464166745230000007834717337142742460_">
				<use xlink:href="#SVGID_00000081609695887967968220000010079509158887507084_"  style="overflow:visible;"/>
			</clipPath>
			<g style="clip-path:url(#SVGID_00000150785565464166745230000007834717337142742460_);">
				<path class="st3" d="M201.5,0L201.5,0c6.6,0,12,5.4,12,12l0,0c0,6.6-5.4,12-12,12l0,0c-6.6,0-12-5.4-12-12l0,0 C189.5,5.4,194.9,0,201.5,0z"/>
				<path class="st1" d="M201.5,17.1c-0.7,0-1.4-0.1-2-0.4c-0.6-0.3-1-0.6-1.4-1.1c-0.3-0.5-0.5-1-0.5-1.6h2.2 c0,0.2,0.1,0.5,0.2,0.7c0.2,0.2,0.4,0.3,0.6,0.4c0.3,0.1,0.5,0.2,0.9,0.2c0.3,0,0.6-0.1,0.9-0.2c0.3-0.1,0.4-0.3,0.6-0.5 c0.1-0.2,0.2-0.4,0.2-0.7c0-0.3-0.1-0.5-0.2-0.7c-0.1-0.2-0.4-0.4-0.6-0.5c-0.3-0.1-0.6-0.2-1-0.2h-1V11h1 c0.3,0,0.6-0.1,0.9-0.2c0.3-0.1,0.4-0.3,0.6-0.5c0.1-0.2,0.2-0.4,0.2-0.7c0-0.3-0.1-0.5-0.2-0.7c-0.1-0.2-0.3-0.3-0.5-0.5 c-0.2-0.1-0.5-0.2-0.8-0.2c-0.3,0-0.6,0.1-0.8,0.2c-0.2,0.1-0.4,0.3-0.6,0.4c-0.1,0.2-0.2,0.4-0.2,0.7h-2.1 c0-0.6,0.2-1.1,0.5-1.6c0.3-0.4,0.8-0.8,1.3-1c0.6-0.3,1.2-0.4,1.9-0.4c0.7,0,1.3,0.1,1.8,0.4c0.5,0.3,0.9,0.6,1.2,1 c0.3,0.4,0.4,0.9,0.4,1.5c0,0.6-0.2,1-0.5,1.4c-0.4,0.4-0.8,0.6-1.4,0.7v0.1c0.7,0.1,1.3,0.4,1.7,0.8c0.4,0.4,0.6,0.9,0.6,1.6 c0,0.6-0.2,1.1-0.5,1.5c-0.3,0.5-0.8,0.8-1.4,1.1C202.9,17,202.2,17.1,201.5,17.1z"/>
			</g>
		</g>
	</g>
</g>
</svg>
