<svg width="338" height="242" viewBox="0 0 338 242" fill="none" xmlns="http://www.w3.org/2000/svg">
<path d="M71.8 42V27.72H74.82V39.5H80.62V42H71.8ZM87.3686 30.88C88.8753 30.88 90.0686 31.3133 90.9486 32.18C91.8286 33.0333 92.2686 34.2533 92.2686 35.84V37.28H85.2286C85.2553 38.12 85.5019 38.78 85.9686 39.26C86.4486 39.74 87.1086 39.98 87.9486 39.98C88.6553 39.98 89.2953 39.9133 89.8686 39.78C90.4419 39.6333 91.0353 39.4133 91.6486 39.12V41.42C91.1153 41.6867 90.5486 41.88 89.9486 42C89.3619 42.1333 88.6486 42.2 87.8086 42.2C86.7153 42.2 85.7486 42 84.9086 41.6C84.0686 41.1867 83.4086 40.5667 82.9286 39.74C82.4486 38.9133 82.2086 37.8733 82.2086 36.62C82.2086 35.34 82.4219 34.28 82.8486 33.44C83.2886 32.5867 83.8953 31.9467 84.6686 31.52C85.4419 31.0933 86.3419 30.88 87.3686 30.88ZM87.3886 33C86.8153 33 86.3353 33.1867 85.9486 33.56C85.5753 33.9333 85.3553 34.5133 85.2886 35.3H89.4686C89.4553 34.6333 89.2819 34.0867 88.9486 33.66C88.6153 33.22 88.0953 33 87.3886 33ZM98.225 30.88C99.5717 30.88 100.625 31.4133 101.385 32.48H101.465L101.705 31.08H104.225V42.02C104.225 43.58 103.765 44.7667 102.845 45.58C101.925 46.3933 100.565 46.8 98.765 46.8C97.9917 46.8 97.2717 46.7533 96.605 46.66C95.9517 46.5667 95.3117 46.4 94.685 46.16V43.78C96.0317 44.34 97.4517 44.62 98.945 44.62C100.478 44.62 101.245 43.7933 101.245 42.14V41.92C101.245 41.6933 101.252 41.46 101.265 41.22C101.292 40.98 101.312 40.7667 101.325 40.58H101.245C100.872 41.1533 100.425 41.5667 99.905 41.82C99.385 42.0733 98.7983 42.2 98.145 42.2C96.8517 42.2 95.8383 41.7067 95.105 40.72C94.385 39.72 94.025 38.3333 94.025 36.56C94.025 34.7733 94.3983 33.38 95.145 32.38C95.8917 31.38 96.9183 30.88 98.225 30.88ZM99.165 33.3C97.765 33.3 97.065 34.4 97.065 36.6C97.065 38.7733 97.7783 39.86 99.205 39.86C99.965 39.86 100.525 39.6467 100.885 39.22C101.258 38.78 101.445 38.02 101.445 36.94V36.58C101.445 35.4067 101.265 34.5667 100.905 34.06C100.545 33.5533 99.965 33.3 99.165 33.3ZM111.841 30.88C113.348 30.88 114.541 31.3133 115.421 32.18C116.301 33.0333 116.741 34.2533 116.741 35.84V37.28H109.701C109.728 38.12 109.975 38.78 110.441 39.26C110.921 39.74 111.581 39.98 112.421 39.98C113.128 39.98 113.768 39.9133 114.341 39.78C114.915 39.6333 115.508 39.4133 116.121 39.12V41.42C115.588 41.6867 115.021 41.88 114.421 42C113.835 42.1333 113.121 42.2 112.281 42.2C111.188 42.2 110.221 42 109.381 41.6C108.541 41.1867 107.881 40.5667 107.401 39.74C106.921 38.9133 106.681 37.8733 106.681 36.62C106.681 35.34 106.895 34.28 107.321 33.44C107.761 32.5867 108.368 31.9467 109.141 31.52C109.915 31.0933 110.815 30.88 111.841 30.88ZM111.861 33C111.288 33 110.808 33.1867 110.421 33.56C110.048 33.9333 109.828 34.5133 109.761 35.3H113.941C113.928 34.6333 113.755 34.0867 113.421 33.66C113.088 33.22 112.568 33 111.861 33ZM125.358 30.88C126.531 30.88 127.471 31.2 128.178 31.84C128.884 32.4667 129.238 33.48 129.238 34.88V42H126.258V35.62C126.258 34.8333 126.118 34.2467 125.838 33.86C125.558 33.46 125.111 33.26 124.498 33.26C123.591 33.26 122.971 33.5733 122.638 34.2C122.304 34.8133 122.138 35.7 122.138 36.86V42H119.158V31.08H121.438L121.838 32.48H121.998C122.344 31.92 122.818 31.5133 123.418 31.26C124.031 31.0067 124.678 30.88 125.358 30.88ZM135.762 42.2C134.549 42.2 133.556 41.7267 132.782 40.78C132.022 39.82 131.642 38.4133 131.642 36.56C131.642 34.6933 132.029 33.28 132.802 32.32C133.576 31.36 134.589 30.88 135.842 30.88C136.629 30.88 137.276 31.0333 137.782 31.34C138.289 31.6467 138.689 32.0267 138.982 32.48H139.082C139.042 32.2667 138.996 31.96 138.942 31.56C138.889 31.1467 138.862 30.7267 138.862 30.3V26.8H141.842V42H139.562L138.982 40.58H138.862C138.569 41.0333 138.176 41.42 137.682 41.74C137.189 42.0467 136.549 42.2 135.762 42.2ZM136.802 39.82C137.629 39.82 138.209 39.58 138.542 39.1C138.876 38.6067 139.049 37.8733 139.062 36.9V36.58C139.062 35.5133 138.896 34.7 138.562 34.14C138.242 33.58 137.642 33.3 136.762 33.3C136.109 33.3 135.596 33.5867 135.222 34.16C134.849 34.72 134.662 35.5333 134.662 36.6C134.662 37.6667 134.849 38.4733 135.222 39.02C135.596 39.5533 136.122 39.82 136.802 39.82Z" fill="#333333"/>
<path d="M152.8 36.52C152.8 34.8933 153.033 33.3267 153.5 31.82C153.98 30.3 154.727 28.9333 155.74 27.72H157.4C156.467 28.9733 155.76 30.3533 155.28 31.86C154.813 33.3667 154.58 34.9133 154.58 36.5C154.58 38.0467 154.813 39.5667 155.28 41.06C155.76 42.54 156.46 43.9067 157.38 45.16H155.74C154.727 43.9867 153.98 42.66 153.5 41.18C153.033 39.6867 152.8 38.1333 152.8 36.52ZM164.696 31.08C164.896 31.08 165.109 31.0933 165.336 31.12C165.576 31.1333 165.783 31.16 165.956 31.2L165.736 32.82C165.563 32.78 165.369 32.7467 165.156 32.72C164.956 32.6933 164.763 32.68 164.576 32.68C164.029 32.68 163.516 32.8333 163.036 33.14C162.556 33.4333 162.169 33.8533 161.876 34.4C161.596 34.9333 161.456 35.56 161.456 36.28V42H159.696V31.28H161.136L161.336 33.24H161.416C161.763 32.6533 162.209 32.1467 162.756 31.72C163.303 31.2933 163.949 31.08 164.696 31.08ZM171.707 31.08C172.627 31.08 173.414 31.28 174.067 31.68C174.734 32.08 175.241 32.6467 175.587 33.38C175.947 34.1 176.127 34.9467 176.127 35.92V36.98H168.787C168.814 38.1933 169.121 39.12 169.707 39.76C170.307 40.3867 171.141 40.7 172.207 40.7C172.887 40.7 173.487 40.64 174.007 40.52C174.541 40.3867 175.087 40.2 175.647 39.96V41.5C175.101 41.74 174.561 41.9133 174.027 42.02C173.494 42.14 172.861 42.2 172.127 42.2C171.114 42.2 170.214 41.9933 169.427 41.58C168.654 41.1667 168.047 40.5533 167.607 39.74C167.181 38.9133 166.967 37.9067 166.967 36.72C166.967 35.5467 167.161 34.54 167.547 33.7C167.947 32.86 168.501 32.2133 169.207 31.76C169.927 31.3067 170.761 31.08 171.707 31.08ZM171.687 32.52C170.847 32.52 170.181 32.7933 169.687 33.34C169.207 33.8733 168.921 34.62 168.827 35.58H174.287C174.274 34.6733 174.061 33.94 173.647 33.38C173.234 32.8067 172.581 32.52 171.687 32.52ZM185.996 42.22C185.996 41.98 186.003 41.7 186.016 41.38C186.03 41.06 186.056 40.7867 186.096 40.56H185.976C185.67 41.0133 185.243 41.4 184.696 41.72C184.163 42.04 183.47 42.2 182.616 42.2C181.323 42.2 180.27 41.74 179.456 40.82C178.656 39.8867 178.256 38.5 178.256 36.66C178.256 34.82 178.663 33.4333 179.476 32.5C180.303 31.5533 181.37 31.08 182.676 31.08C183.516 31.08 184.203 31.24 184.736 31.56C185.27 31.88 185.696 32.2733 186.016 32.74H186.096L186.356 31.28H187.756V46.8H185.996V42.22ZM182.956 40.74C184.063 40.74 184.843 40.44 185.296 39.84C185.763 39.2267 186.003 38.2933 186.016 37.04V36.68C186.016 35.32 185.79 34.2933 185.336 33.6C184.883 32.8933 184.076 32.54 182.916 32.54C181.956 32.54 181.243 32.92 180.776 33.68C180.31 34.4267 180.076 35.4333 180.076 36.7C180.076 37.9667 180.31 38.96 180.776 39.68C181.256 40.3867 181.983 40.74 182.956 40.74ZM200.121 31.28V42H198.681L198.421 40.58H198.341C197.994 41.14 197.514 41.5533 196.901 41.82C196.288 42.0733 195.634 42.2 194.941 42.2C193.648 42.2 192.674 41.8933 192.021 41.28C191.368 40.6533 191.041 39.66 191.041 38.3V31.28H192.821V38.18C192.821 39.8867 193.614 40.74 195.201 40.74C196.388 40.74 197.208 40.4067 197.661 39.74C198.128 39.0733 198.361 38.1133 198.361 36.86V31.28H200.121ZM204.424 27.26C204.691 27.26 204.924 27.3533 205.124 27.54C205.338 27.7133 205.444 27.9933 205.444 28.38C205.444 28.7533 205.338 29.0333 205.124 29.22C204.924 29.4067 204.691 29.5 204.424 29.5C204.131 29.5 203.884 29.4067 203.684 29.22C203.484 29.0333 203.384 28.7533 203.384 28.38C203.384 27.9933 203.484 27.7133 203.684 27.54C203.884 27.3533 204.131 27.26 204.424 27.26ZM205.284 31.28V42H203.524V31.28H205.284ZM213.68 31.08C213.88 31.08 214.094 31.0933 214.32 31.12C214.56 31.1333 214.767 31.16 214.94 31.2L214.72 32.82C214.547 32.78 214.354 32.7467 214.14 32.72C213.94 32.6933 213.747 32.68 213.56 32.68C213.014 32.68 212.5 32.8333 212.02 33.14C211.54 33.4333 211.154 33.8533 210.86 34.4C210.58 34.9333 210.44 35.56 210.44 36.28V42H208.68V31.28H210.12L210.32 33.24H210.4C210.747 32.6533 211.194 32.1467 211.74 31.72C212.287 31.2933 212.934 31.08 213.68 31.08ZM220.692 31.08C221.612 31.08 222.398 31.28 223.052 31.68C223.718 32.08 224.225 32.6467 224.572 33.38C224.932 34.1 225.112 34.9467 225.112 35.92V36.98H217.772C217.798 38.1933 218.105 39.12 218.692 39.76C219.292 40.3867 220.125 40.7 221.192 40.7C221.872 40.7 222.472 40.64 222.992 40.52C223.525 40.3867 224.072 40.2 224.632 39.96V41.5C224.085 41.74 223.545 41.9133 223.012 42.02C222.478 42.14 221.845 42.2 221.112 42.2C220.098 42.2 219.198 41.9933 218.412 41.58C217.638 41.1667 217.032 40.5533 216.592 39.74C216.165 38.9133 215.952 37.9067 215.952 36.72C215.952 35.5467 216.145 34.54 216.532 33.7C216.932 32.86 217.485 32.2133 218.192 31.76C218.912 31.3067 219.745 31.08 220.692 31.08ZM220.672 32.52C219.832 32.52 219.165 32.7933 218.672 33.34C218.192 33.8733 217.905 34.62 217.812 35.58H223.272C223.258 34.6733 223.045 33.94 222.632 33.38C222.218 32.8067 221.565 32.52 220.672 32.52ZM231.641 42.2C230.307 42.2 229.241 41.74 228.441 40.82C227.641 39.8867 227.241 38.5 227.241 36.66C227.241 34.82 227.641 33.4333 228.441 32.5C229.254 31.5533 230.327 31.08 231.661 31.08C232.487 31.08 233.161 31.2333 233.681 31.54C234.214 31.8467 234.647 32.22 234.981 32.66H235.101C235.087 32.4867 235.061 32.2333 235.021 31.9C234.994 31.5533 234.981 31.28 234.981 31.08V26.8H236.741V42H235.321L235.061 40.56H234.981C234.661 41.0133 234.234 41.4 233.701 41.72C233.167 42.04 232.481 42.2 231.641 42.2ZM231.921 40.74C233.054 40.74 233.847 40.4333 234.301 39.82C234.767 39.1933 235.001 38.2533 235.001 37V36.68C235.001 35.3467 234.781 34.3267 234.341 33.62C233.901 32.9 233.087 32.54 231.901 32.54C230.954 32.54 230.241 32.92 229.761 33.68C229.294 34.4267 229.061 35.4333 229.061 36.7C229.061 37.98 229.294 38.9733 229.761 39.68C230.241 40.3867 230.961 40.74 231.921 40.74ZM243.645 36.52C243.645 38.1333 243.405 39.6867 242.925 41.18C242.459 42.66 241.719 43.9867 240.705 45.16H239.065C239.985 43.9067 240.679 42.54 241.145 41.06C241.625 39.5667 241.865 38.0467 241.865 36.5C241.865 34.9133 241.625 33.3667 241.145 31.86C240.679 30.3533 239.979 28.9733 239.045 27.72H240.705C241.719 28.9333 242.459 30.3 242.925 31.82C243.405 33.3267 243.645 34.8933 243.645 36.52Z" fill="#333333"/>
<path d="M82.86 72H81.06V65.34H73.74V72H71.94V57.72H73.74V63.76H81.06V57.72H82.86V72ZM87.4242 57.26C87.6909 57.26 87.9242 57.3533 88.1242 57.54C88.3376 57.7133 88.4442 57.9933 88.4442 58.38C88.4442 58.7533 88.3376 59.0333 88.1242 59.22C87.9242 59.4067 87.6909 59.5 87.4242 59.5C87.1309 59.5 86.8842 59.4067 86.6842 59.22C86.4842 59.0333 86.3842 58.7533 86.3842 58.38C86.3842 57.9933 86.4842 57.7133 86.6842 57.54C86.8842 57.3533 87.1309 57.26 87.4242 57.26ZM88.2842 61.28V72H86.5242V61.28H88.2842ZM96.8405 61.08C98.1205 61.08 99.0871 61.3933 99.7405 62.02C100.394 62.6333 100.72 63.6333 100.72 65.02V72H98.9805V65.14C98.9805 63.42 98.1805 62.56 96.5805 62.56C95.3938 62.56 94.5738 62.8933 94.1205 63.56C93.6671 64.2267 93.4405 65.1867 93.4405 66.44V72H91.6805V61.28H93.1005L93.3605 62.74H93.4605C93.8071 62.18 94.2871 61.7667 94.9005 61.5C95.5138 61.22 96.1605 61.08 96.8405 61.08ZM107.624 70.76C107.89 70.76 108.164 70.74 108.444 70.7C108.724 70.6467 108.95 70.5933 109.124 70.54V71.88C108.937 71.9733 108.67 72.0467 108.324 72.1C107.977 72.1667 107.644 72.2 107.324 72.2C106.764 72.2 106.244 72.1067 105.764 71.92C105.297 71.72 104.917 71.38 104.624 70.9C104.33 70.42 104.184 69.7467 104.184 68.88V62.64H102.664V61.8L104.204 61.1L104.904 58.82H105.944V61.28H109.044V62.64H105.944V68.84C105.944 69.4933 106.097 69.98 106.404 70.3C106.724 70.6067 107.13 70.76 107.624 70.76ZM120.046 70.76C120.312 70.76 120.586 70.74 120.866 70.7C121.146 70.6467 121.372 70.5933 121.546 70.54V71.88C121.359 71.9733 121.092 72.0467 120.746 72.1C120.399 72.1667 120.066 72.2 119.746 72.2C119.186 72.2 118.666 72.1067 118.186 71.92C117.719 71.72 117.339 71.38 117.046 70.9C116.752 70.42 116.606 69.7467 116.606 68.88V62.64H115.086V61.8L116.626 61.1L117.326 58.82H118.366V61.28H121.466V62.64H118.366V68.84C118.366 69.4933 118.519 69.98 118.826 70.3C119.146 70.6067 119.552 70.76 120.046 70.76ZM127.832 61.08C128.752 61.08 129.539 61.28 130.192 61.68C130.859 62.08 131.366 62.6467 131.712 63.38C132.072 64.1 132.252 64.9467 132.252 65.92V66.98H124.912C124.939 68.1933 125.246 69.12 125.832 69.76C126.432 70.3867 127.266 70.7 128.332 70.7C129.012 70.7 129.612 70.64 130.132 70.52C130.666 70.3867 131.212 70.2 131.772 69.96V71.5C131.226 71.74 130.686 71.9133 130.152 72.02C129.619 72.14 128.986 72.2 128.252 72.2C127.239 72.2 126.339 71.9933 125.552 71.58C124.779 71.1667 124.172 70.5533 123.732 69.74C123.306 68.9133 123.092 67.9067 123.092 66.72C123.092 65.5467 123.286 64.54 123.672 63.7C124.072 62.86 124.626 62.2133 125.332 61.76C126.052 61.3067 126.886 61.08 127.832 61.08ZM127.812 62.52C126.972 62.52 126.306 62.7933 125.812 63.34C125.332 63.8733 125.046 64.62 124.952 65.58H130.412C130.399 64.6733 130.186 63.94 129.772 63.38C129.359 62.8067 128.706 62.52 127.812 62.52ZM137.131 66.52L133.431 61.28H135.431L138.191 65.32L140.931 61.28H142.911L139.211 66.52L143.111 72H141.111L138.191 67.72L135.231 72H133.251L137.131 66.52ZM148.757 70.76C149.023 70.76 149.297 70.74 149.577 70.7C149.857 70.6467 150.083 70.5933 150.257 70.54V71.88C150.07 71.9733 149.803 72.0467 149.457 72.1C149.11 72.1667 148.777 72.2 148.457 72.2C147.897 72.2 147.377 72.1067 146.897 71.92C146.43 71.72 146.05 71.38 145.757 70.9C145.463 70.42 145.317 69.7467 145.317 68.88V62.64H143.797V61.8L145.337 61.1L146.037 58.82H147.077V61.28H150.177V62.64H147.077V68.84C147.077 69.4933 147.23 69.98 147.537 70.3C147.857 70.6067 148.263 70.76 148.757 70.76Z" fill="#595959"/>
<rect x="71" y="95" width="46" height="46" rx="23" fill="white"/>
<rect x="71" y="95" width="46" height="46" rx="23" stroke="#333333" stroke-width="2"/>
<path d="M146.5 118.84C146.5 119.947 146.36 120.953 146.08 121.86C145.813 122.753 145.4 123.527 144.84 124.18C144.293 124.833 143.6 125.333 142.76 125.68C141.933 126.027 140.967 126.2 139.86 126.2C138.727 126.2 137.74 126.027 136.9 125.68C136.073 125.32 135.38 124.82 134.82 124.18C134.273 123.527 133.867 122.747 133.6 121.84C133.333 120.933 133.2 119.927 133.2 118.82C133.2 117.353 133.44 116.073 133.92 114.98C134.4 113.887 135.133 113.033 136.12 112.42C137.12 111.807 138.373 111.5 139.88 111.5C141.347 111.5 142.567 111.807 143.54 112.42C144.527 113.02 145.267 113.873 145.76 114.98C146.253 116.073 146.5 117.36 146.5 118.84ZM135.48 118.84C135.48 119.987 135.633 120.973 135.94 121.8C136.247 122.613 136.727 123.247 137.38 123.7C138.033 124.14 138.86 124.36 139.86 124.36C140.873 124.36 141.7 124.14 142.34 123.7C142.98 123.247 143.453 122.613 143.76 121.8C144.067 120.973 144.22 119.987 144.22 118.84C144.22 117.12 143.873 115.78 143.18 114.82C142.5 113.847 141.4 113.36 139.88 113.36C138.867 113.36 138.033 113.58 137.38 114.02C136.727 114.46 136.247 115.087 135.94 115.9C135.633 116.713 135.48 117.693 135.48 118.84ZM154.743 115.02C156.036 115.02 157.076 115.487 157.863 116.42C158.663 117.353 159.063 118.747 159.063 120.6C159.063 121.813 158.883 122.84 158.523 123.68C158.163 124.52 157.656 125.153 157.003 125.58C156.35 125.993 155.59 126.2 154.723 126.2C154.176 126.2 153.696 126.133 153.283 126C152.87 125.853 152.516 125.667 152.223 125.44C151.943 125.2 151.696 124.947 151.483 124.68H151.343C151.383 124.92 151.416 125.207 151.443 125.54C151.47 125.86 151.483 126.147 151.483 126.4V130.8H149.363V115.22H151.083L151.383 116.66H151.483C151.696 116.367 151.95 116.093 152.243 115.84C152.536 115.587 152.89 115.387 153.303 115.24C153.716 115.093 154.196 115.02 154.743 115.02ZM154.243 116.76C153.576 116.76 153.043 116.893 152.643 117.16C152.243 117.413 151.95 117.8 151.763 118.32C151.59 118.827 151.496 119.473 151.483 120.26V120.58C151.483 121.407 151.57 122.113 151.743 122.7C151.916 123.273 152.203 123.713 152.603 124.02C153.016 124.313 153.576 124.46 154.283 124.46C154.883 124.46 155.37 124.3 155.743 123.98C156.13 123.647 156.416 123.187 156.603 122.6C156.79 122.013 156.883 121.333 156.883 120.56C156.883 119.387 156.67 118.46 156.243 117.78C155.816 117.1 155.15 116.76 154.243 116.76ZM165.645 124.48C165.925 124.48 166.212 124.453 166.505 124.4C166.799 124.347 167.052 124.287 167.265 124.22V125.82C167.039 125.927 166.732 126.013 166.345 126.08C165.959 126.16 165.572 126.2 165.185 126.2C164.599 126.2 164.059 126.1 163.565 125.9C163.085 125.7 162.699 125.353 162.405 124.86C162.112 124.367 161.965 123.68 161.965 122.8V116.84H160.465V115.88L162.045 115.08L162.785 112.8H164.085V115.22H167.165V116.84H164.085V122.76C164.085 123.347 164.225 123.78 164.505 124.06C164.799 124.34 165.179 124.48 165.645 124.48ZM171.542 115.22V126H169.422V115.22H171.542ZM170.502 111.12C170.822 111.12 171.102 111.213 171.342 111.4C171.582 111.587 171.702 111.9 171.702 112.34C171.702 112.767 171.582 113.08 171.342 113.28C171.102 113.467 170.822 113.56 170.502 113.56C170.155 113.56 169.862 113.467 169.622 113.28C169.395 113.08 169.282 112.767 169.282 112.34C169.282 111.9 169.395 111.587 169.622 111.4C169.862 111.213 170.155 111.12 170.502 111.12ZM184.371 120.6C184.371 121.493 184.251 122.287 184.011 122.98C183.771 123.673 183.431 124.26 182.991 124.74C182.551 125.22 182.018 125.587 181.391 125.84C180.764 126.08 180.058 126.2 179.271 126.2C178.551 126.2 177.884 126.08 177.271 125.84C176.658 125.587 176.124 125.22 175.671 124.74C175.231 124.26 174.884 123.673 174.631 122.98C174.378 122.287 174.251 121.487 174.251 120.58C174.251 119.393 174.451 118.387 174.851 117.56C175.264 116.733 175.851 116.107 176.611 115.68C177.384 115.24 178.291 115.02 179.331 115.02C180.318 115.02 181.184 115.24 181.931 115.68C182.691 116.107 183.284 116.733 183.711 117.56C184.151 118.387 184.371 119.4 184.371 120.6ZM176.431 120.6C176.431 121.4 176.531 122.093 176.731 122.68C176.931 123.253 177.244 123.693 177.671 124C178.098 124.307 178.644 124.46 179.311 124.46C179.978 124.46 180.524 124.307 180.951 124C181.378 123.693 181.691 123.253 181.891 122.68C182.091 122.093 182.191 121.4 182.191 120.6C182.191 119.773 182.084 119.08 181.871 118.52C181.671 117.96 181.358 117.533 180.931 117.24C180.518 116.933 179.971 116.78 179.291 116.78C178.291 116.78 177.564 117.113 177.111 117.78C176.658 118.447 176.431 119.387 176.431 120.6ZM192.518 115.02C193.772 115.02 194.732 115.333 195.398 115.96C196.065 116.587 196.398 117.593 196.398 118.98V126H194.298V119.28C194.298 118.44 194.118 117.813 193.758 117.4C193.412 116.973 192.852 116.76 192.078 116.76C190.985 116.76 190.225 117.087 189.798 117.74C189.385 118.393 189.178 119.333 189.178 120.56V126H187.058V115.22H188.738L189.038 116.66H189.158C189.398 116.287 189.692 115.98 190.038 115.74C190.385 115.5 190.772 115.32 191.198 115.2C191.625 115.08 192.065 115.02 192.518 115.02ZM210.631 126H208.531V116.52C208.531 116.187 208.531 115.88 208.531 115.6C208.545 115.307 208.558 115.027 208.571 114.76C208.585 114.48 208.598 114.213 208.611 113.96C208.438 114.133 208.258 114.3 208.071 114.46C207.885 114.62 207.671 114.807 207.431 115.02L205.871 116.28L204.791 114.92L208.871 111.72H210.631V126Z" fill="#333333"/>
<path d="M144.86 158H143.06V151.34H135.74V158H133.94V143.72H135.74V149.76H143.06V143.72H144.86V158ZM149.424 143.26C149.691 143.26 149.924 143.353 150.124 143.54C150.338 143.713 150.444 143.993 150.444 144.38C150.444 144.753 150.338 145.033 150.124 145.22C149.924 145.407 149.691 145.5 149.424 145.5C149.131 145.5 148.884 145.407 148.684 145.22C148.484 145.033 148.384 144.753 148.384 144.38C148.384 143.993 148.484 143.713 148.684 143.54C148.884 143.353 149.131 143.26 149.424 143.26ZM150.284 147.28V158H148.524V147.28H150.284ZM158.84 147.08C160.12 147.08 161.087 147.393 161.74 148.02C162.394 148.633 162.72 149.633 162.72 151.02V158H160.98V151.14C160.98 149.42 160.18 148.56 158.58 148.56C157.394 148.56 156.574 148.893 156.12 149.56C155.667 150.227 155.44 151.187 155.44 152.44V158H153.68V147.28H155.1L155.36 148.74H155.46C155.807 148.18 156.287 147.767 156.9 147.5C157.514 147.22 158.16 147.08 158.84 147.08ZM169.624 156.76C169.89 156.76 170.164 156.74 170.444 156.7C170.724 156.647 170.95 156.593 171.124 156.54V157.88C170.937 157.973 170.67 158.047 170.324 158.1C169.977 158.167 169.644 158.2 169.324 158.2C168.764 158.2 168.244 158.107 167.764 157.92C167.297 157.72 166.917 157.38 166.624 156.9C166.33 156.42 166.184 155.747 166.184 154.88V148.64H164.664V147.8L166.204 147.1L166.904 144.82H167.944V147.28H171.044V148.64H167.944V154.84C167.944 155.493 168.097 155.98 168.404 156.3C168.724 156.607 169.13 156.76 169.624 156.76ZM182.046 156.76C182.312 156.76 182.586 156.74 182.866 156.7C183.146 156.647 183.372 156.593 183.546 156.54V157.88C183.359 157.973 183.092 158.047 182.746 158.1C182.399 158.167 182.066 158.2 181.746 158.2C181.186 158.2 180.666 158.107 180.186 157.92C179.719 157.72 179.339 157.38 179.046 156.9C178.752 156.42 178.606 155.747 178.606 154.88V148.64H177.086V147.8L178.626 147.1L179.326 144.82H180.366V147.28H183.466V148.64H180.366V154.84C180.366 155.493 180.519 155.98 180.826 156.3C181.146 156.607 181.552 156.76 182.046 156.76ZM189.832 147.08C190.752 147.08 191.539 147.28 192.192 147.68C192.859 148.08 193.366 148.647 193.712 149.38C194.072 150.1 194.252 150.947 194.252 151.92V152.98H186.912C186.939 154.193 187.246 155.12 187.832 155.76C188.432 156.387 189.266 156.7 190.332 156.7C191.012 156.7 191.612 156.64 192.132 156.52C192.666 156.387 193.212 156.2 193.772 155.96V157.5C193.226 157.74 192.686 157.913 192.152 158.02C191.619 158.14 190.986 158.2 190.252 158.2C189.239 158.2 188.339 157.993 187.552 157.58C186.779 157.167 186.172 156.553 185.732 155.74C185.306 154.913 185.092 153.907 185.092 152.72C185.092 151.547 185.286 150.54 185.672 149.7C186.072 148.86 186.626 148.213 187.332 147.76C188.052 147.307 188.886 147.08 189.832 147.08ZM189.812 148.52C188.972 148.52 188.306 148.793 187.812 149.34C187.332 149.873 187.046 150.62 186.952 151.58H192.412C192.399 150.673 192.186 149.94 191.772 149.38C191.359 148.807 190.706 148.52 189.812 148.52ZM199.131 152.52L195.431 147.28H197.431L200.191 151.32L202.931 147.28H204.911L201.211 152.52L205.111 158H203.111L200.191 153.72L197.231 158H195.251L199.131 152.52ZM210.757 156.76C211.023 156.76 211.297 156.74 211.577 156.7C211.857 156.647 212.083 156.593 212.257 156.54V157.88C212.07 157.973 211.803 158.047 211.457 158.1C211.11 158.167 210.777 158.2 210.457 158.2C209.897 158.2 209.377 158.107 208.897 157.92C208.43 157.72 208.05 157.38 207.757 156.9C207.463 156.42 207.317 155.747 207.317 154.88V148.64H205.797V147.8L207.337 147.1L208.037 144.82H209.077V147.28H212.177V148.64H209.077V154.84C209.077 155.493 209.23 155.98 209.537 156.3C209.857 156.607 210.263 156.76 210.757 156.76Z" fill="#43474E"/>
<rect x="71" y="179" width="42" height="42" rx="21" fill="white"/>
<rect x="71" y="179" width="42" height="42" rx="21" stroke="#333333" stroke-width="2"/>
<circle cx="92" cy="200" r="9" fill="#333333"/>
<path d="M143.5 199.84C143.5 200.947 143.36 201.953 143.08 202.86C142.813 203.753 142.4 204.527 141.84 205.18C141.293 205.833 140.6 206.333 139.76 206.68C138.933 207.027 137.967 207.2 136.86 207.2C135.727 207.2 134.74 207.027 133.9 206.68C133.073 206.32 132.38 205.82 131.82 205.18C131.273 204.527 130.867 203.747 130.6 202.84C130.333 201.933 130.2 200.927 130.2 199.82C130.2 198.353 130.44 197.073 130.92 195.98C131.4 194.887 132.133 194.033 133.12 193.42C134.12 192.807 135.373 192.5 136.88 192.5C138.347 192.5 139.567 192.807 140.54 193.42C141.527 194.02 142.267 194.873 142.76 195.98C143.253 197.073 143.5 198.36 143.5 199.84ZM132.48 199.84C132.48 200.987 132.633 201.973 132.94 202.8C133.247 203.613 133.727 204.247 134.38 204.7C135.033 205.14 135.86 205.36 136.86 205.36C137.873 205.36 138.7 205.14 139.34 204.7C139.98 204.247 140.453 203.613 140.76 202.8C141.067 201.973 141.22 200.987 141.22 199.84C141.22 198.12 140.873 196.78 140.18 195.82C139.5 194.847 138.4 194.36 136.88 194.36C135.867 194.36 135.033 194.58 134.38 195.02C133.727 195.46 133.247 196.087 132.94 196.9C132.633 197.713 132.48 198.693 132.48 199.84ZM151.743 196.02C153.036 196.02 154.076 196.487 154.863 197.42C155.663 198.353 156.063 199.747 156.063 201.6C156.063 202.813 155.883 203.84 155.523 204.68C155.163 205.52 154.656 206.153 154.003 206.58C153.35 206.993 152.59 207.2 151.723 207.2C151.176 207.2 150.696 207.133 150.283 207C149.87 206.853 149.516 206.667 149.223 206.44C148.943 206.2 148.696 205.947 148.483 205.68H148.343C148.383 205.92 148.416 206.207 148.443 206.54C148.47 206.86 148.483 207.147 148.483 207.4V211.8H146.363V196.22H148.083L148.383 197.66H148.483C148.696 197.367 148.95 197.093 149.243 196.84C149.536 196.587 149.89 196.387 150.303 196.24C150.716 196.093 151.196 196.02 151.743 196.02ZM151.243 197.76C150.576 197.76 150.043 197.893 149.643 198.16C149.243 198.413 148.95 198.8 148.763 199.32C148.59 199.827 148.496 200.473 148.483 201.26V201.58C148.483 202.407 148.57 203.113 148.743 203.7C148.916 204.273 149.203 204.713 149.603 205.02C150.016 205.313 150.576 205.46 151.283 205.46C151.883 205.46 152.37 205.3 152.743 204.98C153.13 204.647 153.416 204.187 153.603 203.6C153.79 203.013 153.883 202.333 153.883 201.56C153.883 200.387 153.67 199.46 153.243 198.78C152.816 198.1 152.15 197.76 151.243 197.76ZM162.645 205.48C162.925 205.48 163.212 205.453 163.505 205.4C163.799 205.347 164.052 205.287 164.265 205.22V206.82C164.039 206.927 163.732 207.013 163.345 207.08C162.959 207.16 162.572 207.2 162.185 207.2C161.599 207.2 161.059 207.1 160.565 206.9C160.085 206.7 159.699 206.353 159.405 205.86C159.112 205.367 158.965 204.68 158.965 203.8V197.84H157.465V196.88L159.045 196.08L159.785 193.8H161.085V196.22H164.165V197.84H161.085V203.76C161.085 204.347 161.225 204.78 161.505 205.06C161.799 205.34 162.179 205.48 162.645 205.48ZM168.542 196.22V207H166.422V196.22H168.542ZM167.502 192.12C167.822 192.12 168.102 192.213 168.342 192.4C168.582 192.587 168.702 192.9 168.702 193.34C168.702 193.767 168.582 194.08 168.342 194.28C168.102 194.467 167.822 194.56 167.502 194.56C167.155 194.56 166.862 194.467 166.622 194.28C166.395 194.08 166.282 193.767 166.282 193.34C166.282 192.9 166.395 192.587 166.622 192.4C166.862 192.213 167.155 192.12 167.502 192.12ZM181.371 201.6C181.371 202.493 181.251 203.287 181.011 203.98C180.771 204.673 180.431 205.26 179.991 205.74C179.551 206.22 179.018 206.587 178.391 206.84C177.764 207.08 177.058 207.2 176.271 207.2C175.551 207.2 174.884 207.08 174.271 206.84C173.658 206.587 173.124 206.22 172.671 205.74C172.231 205.26 171.884 204.673 171.631 203.98C171.378 203.287 171.251 202.487 171.251 201.58C171.251 200.393 171.451 199.387 171.851 198.56C172.264 197.733 172.851 197.107 173.611 196.68C174.384 196.24 175.291 196.02 176.331 196.02C177.318 196.02 178.184 196.24 178.931 196.68C179.691 197.107 180.284 197.733 180.711 198.56C181.151 199.387 181.371 200.4 181.371 201.6ZM173.431 201.6C173.431 202.4 173.531 203.093 173.731 203.68C173.931 204.253 174.244 204.693 174.671 205C175.098 205.307 175.644 205.46 176.311 205.46C176.978 205.46 177.524 205.307 177.951 205C178.378 204.693 178.691 204.253 178.891 203.68C179.091 203.093 179.191 202.4 179.191 201.6C179.191 200.773 179.084 200.08 178.871 199.52C178.671 198.96 178.358 198.533 177.931 198.24C177.518 197.933 176.971 197.78 176.291 197.78C175.291 197.78 174.564 198.113 174.111 198.78C173.658 199.447 173.431 200.387 173.431 201.6ZM189.518 196.02C190.772 196.02 191.732 196.333 192.398 196.96C193.065 197.587 193.398 198.593 193.398 199.98V207H191.298V200.28C191.298 199.44 191.118 198.813 190.758 198.4C190.412 197.973 189.852 197.76 189.078 197.76C187.985 197.76 187.225 198.087 186.798 198.74C186.385 199.393 186.178 200.333 186.178 201.56V207H184.058V196.22H185.738L186.038 197.66H186.158C186.398 197.287 186.692 196.98 187.038 196.74C187.385 196.5 187.772 196.32 188.198 196.2C188.625 196.08 189.065 196.02 189.518 196.02ZM210.711 207H201.111V205.36L204.791 201.62C205.511 200.887 206.111 200.253 206.591 199.72C207.071 199.173 207.431 198.653 207.671 198.16C207.911 197.653 208.031 197.107 208.031 196.52C208.031 195.787 207.818 195.24 207.391 194.88C206.965 194.507 206.411 194.32 205.731 194.32C205.078 194.32 204.491 194.447 203.971 194.7C203.451 194.94 202.911 195.28 202.351 195.72L201.211 194.3C201.598 193.967 202.011 193.667 202.451 193.4C202.905 193.133 203.405 192.92 203.951 192.76C204.511 192.6 205.125 192.52 205.791 192.52C206.698 192.52 207.478 192.68 208.131 193C208.785 193.307 209.285 193.747 209.631 194.32C209.991 194.893 210.171 195.567 210.171 196.34C210.171 196.913 210.085 197.453 209.911 197.96C209.738 198.453 209.485 198.94 209.151 199.42C208.831 199.9 208.438 200.387 207.971 200.88C207.505 201.373 206.991 201.893 206.431 202.44L203.771 205.02V205.12H210.711V207Z" fill="#333333"/>
<g clip-path="url(#clip0_67375_7403)">
<rect x="222" y="149.882" width="62" height="1" fill="#C54600"/>
<g clip-path="url(#clip1_67375_7403)">
<rect x="260" y="137.882" width="24" height="24" rx="12" fill="#C54600"/>
<path d="M272.112 155.022C271.588 155.018 271.083 154.93 270.596 154.758C270.112 154.586 269.677 154.306 269.293 153.918C268.908 153.53 268.604 153.016 268.378 152.377C268.156 151.737 268.045 150.951 268.045 150.02C268.048 149.165 268.146 148.401 268.338 147.728C268.534 147.052 268.812 146.479 269.174 146.008C269.538 145.537 269.974 145.179 270.481 144.934C270.988 144.686 271.557 144.561 272.186 144.561C272.866 144.561 273.466 144.694 273.986 144.959C274.507 145.221 274.924 145.577 275.239 146.028C275.557 146.479 275.749 146.984 275.816 147.544H273.693C273.61 147.19 273.436 146.911 273.171 146.709C272.906 146.507 272.578 146.406 272.186 146.406C271.524 146.406 271.02 146.694 270.675 147.271C270.334 147.848 270.16 148.631 270.153 149.622H270.223C270.375 149.321 270.581 149.064 270.839 148.852C271.101 148.636 271.398 148.472 271.729 148.36C272.064 148.244 272.417 148.186 272.788 148.186C273.391 148.186 273.928 148.328 274.399 148.613C274.869 148.895 275.241 149.283 275.512 149.777C275.784 150.27 275.92 150.835 275.92 151.472C275.92 152.161 275.759 152.774 275.438 153.311C275.12 153.848 274.674 154.269 274.1 154.574C273.53 154.876 272.868 155.025 272.112 155.022ZM272.102 153.331C272.433 153.331 272.73 153.252 272.992 153.093C273.254 152.933 273.459 152.718 273.608 152.446C273.757 152.174 273.832 151.87 273.832 151.531C273.832 151.193 273.757 150.89 273.608 150.622C273.462 150.353 273.26 150.139 273.002 149.98C272.743 149.821 272.448 149.742 272.117 149.742C271.868 149.742 271.638 149.788 271.426 149.881C271.217 149.974 271.033 150.103 270.874 150.269C270.718 150.434 270.596 150.627 270.506 150.845C270.417 151.061 270.372 151.291 270.372 151.536C270.372 151.865 270.446 152.165 270.596 152.436C270.748 152.708 270.953 152.925 271.212 153.088C271.474 153.25 271.77 153.331 272.102 153.331Z" fill="white"/>
</g>
</g>
<g clip-path="url(#clip2_67375_7403)">
<rect x="222" y="117.882" width="62" height="1" fill="#C54600"/>
<g clip-path="url(#clip3_67375_7403)">
<rect x="260" y="105.882" width="24" height="24" rx="12" fill="#C54600"/>
<path d="M272.032 123.022C271.33 123.022 270.703 122.892 270.153 122.634C269.606 122.375 269.172 122.019 268.85 121.565C268.529 121.111 268.362 120.59 268.348 120.004H270.436C270.46 120.398 270.625 120.718 270.934 120.963C271.242 121.209 271.608 121.331 272.032 121.331C272.37 121.331 272.669 121.257 272.927 121.107C273.189 120.955 273.393 120.745 273.539 120.476C273.688 120.204 273.762 119.893 273.762 119.541C273.762 119.183 273.686 118.869 273.534 118.597C273.385 118.325 273.177 118.113 272.912 117.96C272.647 117.808 272.344 117.73 272.002 117.727C271.704 117.727 271.414 117.788 271.132 117.911C270.854 118.033 270.637 118.201 270.481 118.413L268.567 118.07L269.049 112.701H275.274V114.46H270.824L270.561 117.011H270.62C270.799 116.759 271.069 116.55 271.431 116.384C271.792 116.219 272.196 116.136 272.644 116.136C273.257 116.136 273.804 116.28 274.284 116.568C274.765 116.857 275.145 117.253 275.423 117.757C275.701 118.257 275.839 118.834 275.836 119.487C275.839 120.173 275.68 120.783 275.358 121.316C275.04 121.847 274.594 122.264 274.021 122.569C273.451 122.871 272.788 123.022 272.032 123.022Z" fill="white"/>
</g>
</g>
<g clip-path="url(#clip4_67375_7403)">
<rect x="21" y="200.118" width="70" height="1" fill="#C54600"/>
<g clip-path="url(#clip5_67375_7403)">
<rect x="21" y="188.118" width="24" height="24" rx="12" fill="#C54600"/>
<path d="M28.927 203.328V201.633L33.1777 194.936H34.6394V197.282H33.7743L31.0946 201.523V201.603H37.1351V203.328H28.927ZM33.8141 205.118V202.811L33.8539 202.06V194.936H35.8723V205.118H33.8141Z" fill="white"/>
</g>
</g>
<g clip-path="url(#clip6_67375_7403)">
<rect x="20" y="117.118" width="48" height="1" fill="#C54600"/>
<g clip-path="url(#clip7_67375_7403)">
<rect x="20" y="105.118" width="24" height="24" rx="12" fill="#C54600"/>
<path d="M31.9745 122.257C31.2321 122.257 30.5709 122.129 29.9909 121.874C29.4142 121.616 28.9584 121.261 28.6237 120.81C28.2922 120.356 28.1215 119.832 28.1116 119.239H30.2792C30.2925 119.488 30.3737 119.706 30.5228 119.895C30.6753 120.081 30.8775 120.225 31.1294 120.328C31.3812 120.431 31.6646 120.482 31.9795 120.482C32.3076 120.482 32.5976 120.424 32.8495 120.308C33.1014 120.192 33.2986 120.031 33.4411 119.826C33.5837 119.62 33.6549 119.383 33.6549 119.115C33.6549 118.843 33.5787 118.603 33.4262 118.394C33.2771 118.182 33.0616 118.016 32.7799 117.897C32.5015 117.777 32.1701 117.718 31.7856 117.718H30.836V116.137H31.7856C32.1104 116.137 32.3971 116.081 32.6457 115.968C32.8976 115.855 33.0931 115.699 33.2323 115.5C33.3715 115.298 33.4411 115.063 33.4411 114.795C33.4411 114.539 33.3798 114.316 33.2572 114.123C33.1379 113.928 32.9688 113.775 32.7501 113.666C32.5347 113.557 32.2828 113.502 31.9944 113.502C31.7027 113.502 31.4359 113.555 31.194 113.661C30.952 113.764 30.7581 113.911 30.6123 114.103C30.4665 114.296 30.3886 114.521 30.3786 114.78H28.3154C28.3254 114.193 28.4927 113.676 28.8176 113.228C29.1424 112.781 29.5799 112.431 30.1301 112.179C30.6836 111.924 31.3083 111.797 32.0044 111.797C32.707 111.797 33.3218 111.924 33.8488 112.179C34.3758 112.435 34.7851 112.779 35.0768 113.214C35.3718 113.644 35.5176 114.128 35.5143 114.665C35.5176 115.235 35.3403 115.711 34.9823 116.092C34.6277 116.473 34.1653 116.715 33.5953 116.818V116.898C34.3443 116.994 34.9144 117.254 35.3055 117.678C35.6999 118.099 35.8954 118.626 35.8921 119.259C35.8954 119.839 35.7281 120.354 35.39 120.805C35.0553 121.256 34.5929 121.611 34.0029 121.869C33.413 122.128 32.7368 122.257 31.9745 122.257Z" fill="white"/>
</g>
</g>
<g clip-path="url(#clip8_67375_7403)">
<rect x="20" y="64.1177" width="45" height="1" fill="#C54600"/>
<g clip-path="url(#clip9_67375_7403)">
<rect x="20" y="52.1177" width="24" height="24" rx="12" fill="#C54600"/>
<path d="M28.4161 69.1177V67.5665L32.0404 64.2107C32.3486 63.9124 32.6072 63.644 32.816 63.4053C33.0281 63.1667 33.1888 62.933 33.2982 62.7043C33.4076 62.4723 33.4623 62.2221 33.4623 61.9536C33.4623 61.6553 33.3943 61.3985 33.2584 61.183C33.1225 60.9643 32.9369 60.7969 32.7016 60.6809C32.4663 60.5616 32.1995 60.5019 31.9012 60.5019C31.5896 60.5019 31.3179 60.5649 31.0858 60.6908C30.8538 60.8168 30.6749 60.9974 30.5489 61.2327C30.423 61.4681 30.36 61.7481 30.36 62.0729H28.3167C28.3167 61.4067 28.4675 60.8284 28.7691 60.3378C29.0707 59.8473 29.4933 59.4678 30.0368 59.1994C30.5804 58.9309 31.2068 58.7967 31.9161 58.7967C32.6453 58.7967 33.28 58.9259 33.8202 59.1844C34.3638 59.4396 34.7864 59.7943 35.088 60.2484C35.3896 60.7024 35.5404 61.2228 35.5404 61.8094C35.5404 62.1939 35.4642 62.5734 35.3117 62.9479C35.1626 63.3225 34.8957 63.7384 34.5113 64.1958C34.1268 64.6499 33.5849 65.1951 32.8856 65.8315L31.3991 67.2881V67.3577H35.6746V69.1177H28.4161Z" fill="white"/>
</g>
</g>
<g clip-path="url(#clip10_67375_7403)">
<rect x="20" y="34.1177" width="45" height="1" fill="#C54600"/>
<g clip-path="url(#clip11_67375_7403)">
<rect x="20" y="22.1177" width="24" height="24" rx="12" fill="#C54600"/>
<path d="M33.8302 28.9359V39.1177H31.6775V30.9792H31.6178L29.2861 32.4408V30.5317L31.8067 28.9359H33.8302Z" fill="white"/>
</g>
</g>
<defs>
<clipPath id="clip0_67375_7403">
<rect width="62" height="24" fill="white" transform="translate(222 137.882)"/>
</clipPath>
<clipPath id="clip1_67375_7403">
<rect x="260" y="137.882" width="24" height="24" rx="12" fill="white"/>
</clipPath>
<clipPath id="clip2_67375_7403">
<rect width="62" height="24" fill="white" transform="translate(222 105.882)"/>
</clipPath>
<clipPath id="clip3_67375_7403">
<rect x="260" y="105.882" width="24" height="24" rx="12" fill="white"/>
</clipPath>
<clipPath id="clip4_67375_7403">
<rect width="70" height="24" fill="white" transform="translate(21 188.118)"/>
</clipPath>
<clipPath id="clip5_67375_7403">
<rect x="21" y="188.118" width="24" height="24" rx="12" fill="white"/>
</clipPath>
<clipPath id="clip6_67375_7403">
<rect width="48" height="24" fill="white" transform="translate(20 105.118)"/>
</clipPath>
<clipPath id="clip7_67375_7403">
<rect x="20" y="105.118" width="24" height="24" rx="12" fill="white"/>
</clipPath>
<clipPath id="clip8_67375_7403">
<rect width="45" height="24" fill="white" transform="translate(20 52.1177)"/>
</clipPath>
<clipPath id="clip9_67375_7403">
<rect x="20" y="52.1177" width="24" height="24" rx="12" fill="white"/>
</clipPath>
<clipPath id="clip10_67375_7403">
<rect width="45" height="24" fill="white" transform="translate(20 22.1177)"/>
</clipPath>
<clipPath id="clip11_67375_7403">
<rect x="20" y="22.1177" width="24" height="24" rx="12" fill="white"/>
</clipPath>
</defs>
</svg>
