<svg width="412" height="192" viewBox="0 0 412 192" fill="none" xmlns="http://www.w3.org/2000/svg">
<g clip-path="url(#clip0_59605_6320)">
<rect x="331" y="33.5" width="48" height="1" fill="#C54600"/>
<g clip-path="url(#clip1_59605_6320)">
<rect x="360" y="21.5" width="24" height="24" rx="12" fill="#C54600"/>
<path d="M373.183 28.7727V37.5H372.126V29.8807H372.075L369.944 31.2955V30.2216L372.126 28.7727H373.183Z" fill="white"/>
</g>
</g>
<g clip-path="url(#clip2_59605_6320)">
<rect x="20" y="60" width="48" height="1" fill="#C54600"/>
<g clip-path="url(#clip3_59605_6320)">
<rect x="20" y="48" width="24" height="24" rx="12" fill="#C54600"/>
<path d="M29.2706 64V63.233L32.1513 60.0795C32.4893 59.7102 32.7678 59.3892 32.9865 59.1165C33.2053 58.8409 33.3672 58.5824 33.4723 58.3409C33.5803 58.0966 33.6342 57.8409 33.6342 57.5739C33.6342 57.267 33.5604 57.0014 33.4126 56.777C33.2678 56.5526 33.0689 56.3793 32.8161 56.2571C32.5632 56.1349 32.2791 56.0739 31.9638 56.0739C31.6286 56.0739 31.3359 56.1435 31.0859 56.2827C30.8388 56.419 30.647 56.6108 30.5107 56.858C30.3771 57.1051 30.3104 57.3949 30.3104 57.7273H29.3047C29.3047 57.2159 29.4226 56.767 29.6584 56.3807C29.8942 55.9943 30.2152 55.6932 30.6214 55.4773C31.0305 55.2614 31.4893 55.1534 31.9979 55.1534C32.5092 55.1534 32.9624 55.2614 33.3572 55.4773C33.7521 55.6932 34.0618 55.9844 34.2862 56.3509C34.5107 56.7173 34.6229 57.125 34.6229 57.5739C34.6229 57.8949 34.5646 58.2088 34.4482 58.5156C34.3345 58.8196 34.1357 59.1591 33.8516 59.5341C33.5703 59.9062 33.1797 60.3608 32.6797 60.8977L30.7195 62.9943V63.0625H34.7763V64H29.2706Z" fill="white"/>
</g>
</g>
<g clip-path="url(#clip4_59605_6320)">
<rect x="20" y="96" width="48" height="1" fill="#C54600"/>
<g clip-path="url(#clip5_59605_6320)">
<rect x="20" y="84" width="24" height="24" rx="12" fill="#C54600"/>
<path d="M32.032 100.119C31.4695 100.119 30.968 100.023 30.5277 99.8295C30.0902 99.6364 29.7422 99.3679 29.4837 99.0241C29.228 98.6776 29.0888 98.2756 29.0661 97.8182H30.1399C30.1626 98.0994 30.2592 98.3423 30.4297 98.5469C30.6001 98.7486 30.8232 98.9048 31.0987 99.0156C31.3743 99.1264 31.6797 99.1818 32.0149 99.1818C32.3899 99.1818 32.7223 99.1165 33.0121 98.9858C33.3018 98.8551 33.5291 98.6733 33.6939 98.4403C33.8587 98.2074 33.9411 97.9375 33.9411 97.6307C33.9411 97.3097 33.8615 97.027 33.7024 96.7827C33.5433 96.5355 33.3104 96.3423 33.0036 96.2031C32.6967 96.0639 32.3217 95.9943 31.8786 95.9943H31.1797V95.0568H31.8786C32.2251 95.0568 32.5291 94.9943 32.7905 94.8693C33.0547 94.7443 33.2607 94.5682 33.4084 94.3409C33.5589 94.1136 33.6342 93.8466 33.6342 93.5398C33.6342 93.2443 33.5689 92.9872 33.4382 92.7685C33.3075 92.5497 33.1229 92.3793 32.8842 92.2571C32.6484 92.1349 32.37 92.0739 32.049 92.0739C31.7479 92.0739 31.4638 92.1293 31.1967 92.2401C30.9325 92.348 30.7166 92.5057 30.549 92.7131C30.3814 92.9176 30.2905 93.1648 30.2763 93.4545H29.2536C29.2706 92.9972 29.4084 92.5966 29.6669 92.2528C29.9254 91.9062 30.2635 91.6364 30.6811 91.4432C31.1016 91.25 31.5632 91.1534 32.0661 91.1534C32.6058 91.1534 33.0689 91.2628 33.4553 91.4815C33.8416 91.6974 34.1385 91.983 34.3459 92.3381C34.5533 92.6932 34.657 93.0767 34.657 93.4886C34.657 93.9801 34.5277 94.3991 34.2692 94.7457C34.0135 95.0923 33.6655 95.3324 33.2251 95.4659V95.5341C33.7763 95.625 34.2067 95.8594 34.5163 96.2372C34.826 96.6122 34.9808 97.0767 34.9808 97.6307C34.9808 98.1051 34.8516 98.5312 34.593 98.9091C34.3374 99.2841 33.9879 99.5795 33.5447 99.7955C33.1016 100.011 32.5973 100.119 32.032 100.119Z" fill="white"/>
</g>
</g>
<g clip-path="url(#clip6_59605_6320)">
<rect x="20" y="144" width="48" height="1" fill="#C54600"/>
<g clip-path="url(#clip7_59605_6320)">
<rect x="20" y="132" width="24" height="24" rx="12" fill="#C54600"/>
<path d="M28.8493 146.21V145.341L32.6845 139.273H33.3152V140.619H32.889L29.9913 145.205V145.273H35.1561V146.21H28.8493ZM32.9572 148V145.946V145.541V139.273H33.9629V148H32.9572Z" fill="white"/>
</g>
</g>
<g clip-path="url(#clip8_59605_6320)">
<path d="M73.8 40V25.72H76.82V37.5H82.62V40H73.8ZM89.3486 28.86C90.8153 28.86 91.9353 29.18 92.7086 29.82C93.4953 30.4467 93.8886 31.4133 93.8886 32.72V40H91.8086L91.2286 38.52H91.1486C90.6819 39.1067 90.1886 39.5333 89.6686 39.8C89.1486 40.0667 88.4353 40.2 87.5286 40.2C86.5553 40.2 85.7486 39.92 85.1086 39.36C84.4686 38.7867 84.1486 37.9133 84.1486 36.74C84.1486 35.58 84.5553 34.7267 85.3686 34.18C86.1819 33.62 87.4019 33.3133 89.0286 33.26L90.9286 33.2V32.72C90.9286 32.1467 90.7753 31.7267 90.4686 31.46C90.1753 31.1933 89.7619 31.06 89.2286 31.06C88.6953 31.06 88.1753 31.14 87.6686 31.3C87.1619 31.4467 86.6553 31.6333 86.1486 31.86L85.1686 29.84C85.7553 29.5333 86.4019 29.2933 87.1086 29.12C87.8286 28.9467 88.5753 28.86 89.3486 28.86ZM89.7686 34.98C88.8086 35.0067 88.1419 35.18 87.7686 35.5C87.3953 35.82 87.2086 36.24 87.2086 36.76C87.2086 37.2133 87.3419 37.54 87.6086 37.74C87.8753 37.9267 88.2219 38.02 88.6486 38.02C89.2886 38.02 89.8286 37.8333 90.2686 37.46C90.7086 37.0733 90.9286 36.5333 90.9286 35.84V34.94L89.7686 34.98ZM99.9189 28.34C99.9189 28.7533 99.9056 29.16 99.8789 29.56C99.8522 29.96 99.8256 30.2733 99.7989 30.5H99.9189C100.212 30.0467 100.606 29.6667 101.099 29.36C101.592 29.04 102.232 28.88 103.019 28.88C104.246 28.88 105.239 29.36 105.999 30.32C106.759 31.2667 107.139 32.6667 107.139 34.52C107.139 36.3867 106.752 37.8 105.979 38.76C105.206 39.72 104.192 40.2 102.939 40.2C102.139 40.2 101.506 40.06 101.039 39.78C100.586 39.4867 100.212 39.16 99.9189 38.8H99.7189L99.2189 40H96.9389V24.8H99.9189V28.34ZM102.059 31.26C101.286 31.26 100.739 31.5 100.419 31.98C100.112 32.46 99.9456 33.1933 99.9189 34.18V34.5C99.9189 35.5533 100.072 36.3667 100.379 36.94C100.699 37.5 101.272 37.78 102.099 37.78C102.712 37.78 103.199 37.5 103.559 36.94C103.919 36.3667 104.099 35.5467 104.099 34.48C104.099 33.4133 103.912 32.6133 103.539 32.08C103.179 31.5333 102.686 31.26 102.059 31.26ZM114.095 28.88C115.602 28.88 116.795 29.3133 117.675 30.18C118.555 31.0333 118.995 32.2533 118.995 33.84V35.28H111.955C111.982 36.12 112.228 36.78 112.695 37.26C113.175 37.74 113.835 37.98 114.675 37.98C115.382 37.98 116.022 37.9133 116.595 37.78C117.168 37.6333 117.762 37.4133 118.375 37.12V39.42C117.842 39.6867 117.275 39.88 116.675 40C116.088 40.1333 115.375 40.2 114.535 40.2C113.442 40.2 112.475 40 111.635 39.6C110.795 39.1867 110.135 38.5667 109.655 37.74C109.175 36.9133 108.935 35.8733 108.935 34.62C108.935 33.34 109.148 32.28 109.575 31.44C110.015 30.5867 110.622 29.9467 111.395 29.52C112.168 29.0933 113.068 28.88 114.095 28.88ZM114.115 31C113.542 31 113.062 31.1867 112.675 31.56C112.302 31.9333 112.082 32.5133 112.015 33.3H116.195C116.182 32.6333 116.008 32.0867 115.675 31.66C115.342 31.22 114.822 31 114.115 31ZM124.392 40H121.412V24.8H124.392V40ZM142.621 34.52C142.621 36.3333 142.141 37.7333 141.181 38.72C140.234 39.7067 138.941 40.2 137.301 40.2C136.287 40.2 135.381 39.98 134.581 39.54C133.794 39.1 133.174 38.46 132.721 37.62C132.267 36.7667 132.041 35.7333 132.041 34.52C132.041 32.7067 132.514 31.3133 133.461 30.34C134.407 29.3667 135.707 28.88 137.361 28.88C138.387 28.88 139.294 29.1 140.081 29.54C140.867 29.98 141.487 30.62 141.941 31.46C142.394 32.2867 142.621 33.3067 142.621 34.52ZM135.081 34.52C135.081 35.6 135.254 36.42 135.601 36.98C135.961 37.5267 136.541 37.8 137.341 37.8C138.127 37.8 138.694 37.5267 139.041 36.98C139.401 36.42 139.581 35.6 139.581 34.52C139.581 33.44 139.401 32.6333 139.041 32.1C138.694 31.5533 138.121 31.28 137.321 31.28C136.534 31.28 135.961 31.5533 135.601 32.1C135.254 32.6333 135.081 33.44 135.081 34.52ZM151.183 28.88C151.33 28.88 151.503 28.8867 151.703 28.9C151.903 28.9133 152.063 28.9333 152.183 28.96L151.963 31.76C151.87 31.7333 151.73 31.7133 151.543 31.7C151.37 31.6733 151.217 31.66 151.083 31.66C150.577 31.66 150.09 31.7533 149.623 31.94C149.157 32.1133 148.777 32.4 148.483 32.8C148.203 33.2 148.063 33.7467 148.063 34.44V40H145.083V29.08H147.343L147.783 30.92H147.923C148.243 30.36 148.683 29.88 149.243 29.48C149.803 29.08 150.45 28.88 151.183 28.88ZM162.341 40H159.361V24.8H162.341V40ZM169.955 28.88C171.461 28.88 172.655 29.3133 173.535 30.18C174.415 31.0333 174.855 32.2533 174.855 33.84V35.28H167.815C167.841 36.12 168.088 36.78 168.555 37.26C169.035 37.74 169.695 37.98 170.535 37.98C171.241 37.98 171.881 37.9133 172.455 37.78C173.028 37.6333 173.621 37.4133 174.235 37.12V39.42C173.701 39.6867 173.135 39.88 172.535 40C171.948 40.1333 171.235 40.2 170.395 40.2C169.301 40.2 168.335 40 167.495 39.6C166.655 39.1867 165.995 38.5667 165.515 37.74C165.035 36.9133 164.795 35.8733 164.795 34.62C164.795 33.34 165.008 32.28 165.435 31.44C165.875 30.5867 166.481 29.9467 167.255 29.52C168.028 29.0933 168.928 28.88 169.955 28.88ZM169.975 31C169.401 31 168.921 31.1867 168.535 31.56C168.161 31.9333 167.941 32.5133 167.875 33.3H172.055C172.041 32.6333 171.868 32.0867 171.535 31.66C171.201 31.22 170.681 31 169.975 31ZM180.811 28.88C182.158 28.88 183.211 29.4133 183.971 30.48H184.051L184.291 29.08H186.811V40.02C186.811 41.58 186.351 42.7667 185.431 43.58C184.511 44.3933 183.151 44.8 181.351 44.8C180.578 44.8 179.858 44.7533 179.191 44.66C178.538 44.5667 177.898 44.4 177.271 44.16V41.78C178.618 42.34 180.038 42.62 181.531 42.62C183.064 42.62 183.831 41.7933 183.831 40.14V39.92C183.831 39.6933 183.838 39.46 183.851 39.22C183.878 38.98 183.898 38.7667 183.911 38.58H183.831C183.458 39.1533 183.011 39.5667 182.491 39.82C181.971 40.0733 181.384 40.2 180.731 40.2C179.438 40.2 178.424 39.7067 177.691 38.72C176.971 37.72 176.611 36.3333 176.611 34.56C176.611 32.7733 176.984 31.38 177.731 30.38C178.478 29.38 179.504 28.88 180.811 28.88ZM181.751 31.3C180.351 31.3 179.651 32.4 179.651 34.6C179.651 36.7733 180.364 37.86 181.791 37.86C182.551 37.86 183.111 37.6467 183.471 37.22C183.844 36.78 184.031 36.02 184.031 34.94V34.58C184.031 33.4067 183.851 32.5667 183.491 32.06C183.131 31.5533 182.551 31.3 181.751 31.3ZM194.427 28.88C195.934 28.88 197.127 29.3133 198.007 30.18C198.887 31.0333 199.327 32.2533 199.327 33.84V35.28H192.287C192.314 36.12 192.561 36.78 193.027 37.26C193.507 37.74 194.167 37.98 195.007 37.98C195.714 37.98 196.354 37.9133 196.927 37.78C197.501 37.6333 198.094 37.4133 198.707 37.12V39.42C198.174 39.6867 197.607 39.88 197.007 40C196.421 40.1333 195.707 40.2 194.867 40.2C193.774 40.2 192.807 40 191.967 39.6C191.127 39.1867 190.467 38.5667 189.987 37.74C189.507 36.9133 189.267 35.8733 189.267 34.62C189.267 33.34 189.481 32.28 189.907 31.44C190.347 30.5867 190.954 29.9467 191.727 29.52C192.501 29.0933 193.401 28.88 194.427 28.88ZM194.447 31C193.874 31 193.394 31.1867 193.007 31.56C192.634 31.9333 192.414 32.5133 192.347 33.3H196.527C196.514 32.6333 196.341 32.0867 196.007 31.66C195.674 31.22 195.154 31 194.447 31ZM207.944 28.88C209.117 28.88 210.057 29.2 210.764 29.84C211.47 30.4667 211.824 31.48 211.824 32.88V40H208.844V33.62C208.844 32.8333 208.704 32.2467 208.424 31.86C208.144 31.46 207.697 31.26 207.084 31.26C206.177 31.26 205.557 31.5733 205.224 32.2C204.89 32.8133 204.724 33.7 204.724 34.86V40H201.744V29.08H204.024L204.424 30.48H204.584C204.93 29.92 205.404 29.5133 206.004 29.26C206.617 29.0067 207.264 28.88 207.944 28.88ZM218.348 40.2C217.135 40.2 216.141 39.7267 215.368 38.78C214.608 37.82 214.228 36.4133 214.228 34.56C214.228 32.6933 214.615 31.28 215.388 30.32C216.161 29.36 217.175 28.88 218.428 28.88C219.215 28.88 219.861 29.0333 220.368 29.34C220.875 29.6467 221.275 30.0267 221.568 30.48H221.668C221.628 30.2667 221.581 29.96 221.528 29.56C221.475 29.1467 221.448 28.7267 221.448 28.3V24.8H224.428V40H222.148L221.568 38.58H221.448C221.155 39.0333 220.761 39.42 220.268 39.74C219.775 40.0467 219.135 40.2 218.348 40.2ZM219.388 37.82C220.215 37.82 220.795 37.58 221.128 37.1C221.461 36.6067 221.635 35.8733 221.648 34.9V34.58C221.648 33.5133 221.481 32.7 221.148 32.14C220.828 31.58 220.228 31.3 219.348 31.3C218.695 31.3 218.181 31.5867 217.808 32.16C217.435 32.72 217.248 33.5333 217.248 34.6C217.248 35.6667 217.435 36.4733 217.808 37.02C218.181 37.5533 218.708 37.82 219.388 37.82Z" fill="#333333"/>
<path d="M232.8 34.52C232.8 32.8933 233.033 31.3267 233.5 29.82C233.98 28.3 234.727 26.9333 235.74 25.72H237.4C236.467 26.9733 235.76 28.3533 235.28 29.86C234.813 31.3667 234.58 32.9133 234.58 34.5C234.58 36.0467 234.813 37.5667 235.28 39.06C235.76 40.54 236.46 41.9067 237.38 43.16H235.74C234.727 41.9867 233.98 40.66 233.5 39.18C233.033 37.6867 232.8 36.1333 232.8 34.52ZM244.696 29.08C244.896 29.08 245.109 29.0933 245.336 29.12C245.576 29.1333 245.783 29.16 245.956 29.2L245.736 30.82C245.563 30.78 245.369 30.7467 245.156 30.72C244.956 30.6933 244.763 30.68 244.576 30.68C244.029 30.68 243.516 30.8333 243.036 31.14C242.556 31.4333 242.169 31.8533 241.876 32.4C241.596 32.9333 241.456 33.56 241.456 34.28V40H239.696V29.28H241.136L241.336 31.24H241.416C241.763 30.6533 242.209 30.1467 242.756 29.72C243.303 29.2933 243.949 29.08 244.696 29.08ZM251.707 29.08C252.627 29.08 253.414 29.28 254.067 29.68C254.734 30.08 255.241 30.6467 255.587 31.38C255.947 32.1 256.127 32.9467 256.127 33.92V34.98H248.787C248.814 36.1933 249.121 37.12 249.707 37.76C250.307 38.3867 251.141 38.7 252.207 38.7C252.887 38.7 253.487 38.64 254.007 38.52C254.541 38.3867 255.087 38.2 255.647 37.96V39.5C255.101 39.74 254.561 39.9133 254.027 40.02C253.494 40.14 252.861 40.2 252.127 40.2C251.114 40.2 250.214 39.9933 249.427 39.58C248.654 39.1667 248.047 38.5533 247.607 37.74C247.181 36.9133 246.967 35.9067 246.967 34.72C246.967 33.5467 247.161 32.54 247.547 31.7C247.947 30.86 248.501 30.2133 249.207 29.76C249.927 29.3067 250.761 29.08 251.707 29.08ZM251.687 30.52C250.847 30.52 250.181 30.7933 249.687 31.34C249.207 31.8733 248.921 32.62 248.827 33.58H254.287C254.274 32.6733 254.061 31.94 253.647 31.38C253.234 30.8067 252.581 30.52 251.687 30.52ZM265.996 40.22C265.996 39.98 266.003 39.7 266.016 39.38C266.03 39.06 266.056 38.7867 266.096 38.56H265.976C265.67 39.0133 265.243 39.4 264.696 39.72C264.163 40.04 263.47 40.2 262.616 40.2C261.323 40.2 260.27 39.74 259.456 38.82C258.656 37.8867 258.256 36.5 258.256 34.66C258.256 32.82 258.663 31.4333 259.476 30.5C260.303 29.5533 261.37 29.08 262.676 29.08C263.516 29.08 264.203 29.24 264.736 29.56C265.27 29.88 265.696 30.2733 266.016 30.74H266.096L266.356 29.28H267.756V44.8H265.996V40.22ZM262.956 38.74C264.063 38.74 264.843 38.44 265.296 37.84C265.763 37.2267 266.003 36.2933 266.016 35.04V34.68C266.016 33.32 265.79 32.2933 265.336 31.6C264.883 30.8933 264.076 30.54 262.916 30.54C261.956 30.54 261.243 30.92 260.776 31.68C260.31 32.4267 260.076 33.4333 260.076 34.7C260.076 35.9667 260.31 36.96 260.776 37.68C261.256 38.3867 261.983 38.74 262.956 38.74ZM280.121 29.28V40H278.681L278.421 38.58H278.341C277.994 39.14 277.514 39.5533 276.901 39.82C276.288 40.0733 275.634 40.2 274.941 40.2C273.648 40.2 272.674 39.8933 272.021 39.28C271.368 38.6533 271.041 37.66 271.041 36.3V29.28H272.821V36.18C272.821 37.8867 273.614 38.74 275.201 38.74C276.388 38.74 277.208 38.4067 277.661 37.74C278.128 37.0733 278.361 36.1133 278.361 34.86V29.28H280.121ZM284.424 25.26C284.691 25.26 284.924 25.3533 285.124 25.54C285.338 25.7133 285.444 25.9933 285.444 26.38C285.444 26.7533 285.338 27.0333 285.124 27.22C284.924 27.4067 284.691 27.5 284.424 27.5C284.131 27.5 283.884 27.4067 283.684 27.22C283.484 27.0333 283.384 26.7533 283.384 26.38C283.384 25.9933 283.484 25.7133 283.684 25.54C283.884 25.3533 284.131 25.26 284.424 25.26ZM285.284 29.28V40H283.524V29.28H285.284ZM293.68 29.08C293.88 29.08 294.094 29.0933 294.32 29.12C294.56 29.1333 294.767 29.16 294.94 29.2L294.72 30.82C294.547 30.78 294.354 30.7467 294.14 30.72C293.94 30.6933 293.747 30.68 293.56 30.68C293.014 30.68 292.5 30.8333 292.02 31.14C291.54 31.4333 291.154 31.8533 290.86 32.4C290.58 32.9333 290.44 33.56 290.44 34.28V40H288.68V29.28H290.12L290.32 31.24H290.4C290.747 30.6533 291.194 30.1467 291.74 29.72C292.287 29.2933 292.934 29.08 293.68 29.08ZM300.692 29.08C301.612 29.08 302.398 29.28 303.052 29.68C303.718 30.08 304.225 30.6467 304.572 31.38C304.932 32.1 305.112 32.9467 305.112 33.92V34.98H297.772C297.798 36.1933 298.105 37.12 298.692 37.76C299.292 38.3867 300.125 38.7 301.192 38.7C301.872 38.7 302.472 38.64 302.992 38.52C303.525 38.3867 304.072 38.2 304.632 37.96V39.5C304.085 39.74 303.545 39.9133 303.012 40.02C302.478 40.14 301.845 40.2 301.112 40.2C300.098 40.2 299.198 39.9933 298.412 39.58C297.638 39.1667 297.032 38.5533 296.592 37.74C296.165 36.9133 295.952 35.9067 295.952 34.72C295.952 33.5467 296.145 32.54 296.532 31.7C296.932 30.86 297.485 30.2133 298.192 29.76C298.912 29.3067 299.745 29.08 300.692 29.08ZM300.672 30.52C299.832 30.52 299.165 30.7933 298.672 31.34C298.192 31.8733 297.905 32.62 297.812 33.58H303.272C303.258 32.6733 303.045 31.94 302.632 31.38C302.218 30.8067 301.565 30.52 300.672 30.52ZM311.641 40.2C310.307 40.2 309.241 39.74 308.441 38.82C307.641 37.8867 307.241 36.5 307.241 34.66C307.241 32.82 307.641 31.4333 308.441 30.5C309.254 29.5533 310.327 29.08 311.661 29.08C312.487 29.08 313.161 29.2333 313.681 29.54C314.214 29.8467 314.647 30.22 314.981 30.66H315.101C315.087 30.4867 315.061 30.2333 315.021 29.9C314.994 29.5533 314.981 29.28 314.981 29.08V24.8H316.741V40H315.321L315.061 38.56H314.981C314.661 39.0133 314.234 39.4 313.701 39.72C313.167 40.04 312.481 40.2 311.641 40.2ZM311.921 38.74C313.054 38.74 313.847 38.4333 314.301 37.82C314.767 37.1933 315.001 36.2533 315.001 35V34.68C315.001 33.3467 314.781 32.3267 314.341 31.62C313.901 30.9 313.087 30.54 311.901 30.54C310.954 30.54 310.241 30.92 309.761 31.68C309.294 32.4267 309.061 33.4333 309.061 34.7C309.061 35.98 309.294 36.9733 309.761 37.68C310.241 38.3867 310.961 38.74 311.921 38.74ZM323.645 34.52C323.645 36.1333 323.405 37.6867 322.925 39.18C322.459 40.66 321.719 41.9867 320.705 43.16H319.065C319.985 41.9067 320.679 40.54 321.145 39.06C321.625 37.5667 321.865 36.0467 321.865 34.5C321.865 32.9133 321.625 31.3667 321.145 29.86C320.679 28.3533 319.979 26.9733 319.045 25.72H320.705C321.719 26.9333 322.459 28.3 322.925 29.82C323.405 31.3267 323.645 32.8933 323.645 34.52Z" fill="#333333"/>
</g>
<path d="M84.86 70H83.06V63.34H75.74V70H73.94V55.72H75.74V61.76H83.06V55.72H84.86V70ZM89.4242 55.26C89.6909 55.26 89.9242 55.3533 90.1242 55.54C90.3376 55.7133 90.4442 55.9933 90.4442 56.38C90.4442 56.7533 90.3376 57.0333 90.1242 57.22C89.9242 57.4067 89.6909 57.5 89.4242 57.5C89.1309 57.5 88.8842 57.4067 88.6842 57.22C88.4842 57.0333 88.3842 56.7533 88.3842 56.38C88.3842 55.9933 88.4842 55.7133 88.6842 55.54C88.8842 55.3533 89.1309 55.26 89.4242 55.26ZM90.2842 59.28V70H88.5242V59.28H90.2842ZM98.8405 59.08C100.12 59.08 101.087 59.3933 101.74 60.02C102.394 60.6333 102.72 61.6333 102.72 63.02V70H100.98V63.14C100.98 61.42 100.18 60.56 98.5805 60.56C97.3938 60.56 96.5738 60.8933 96.1205 61.56C95.6671 62.2267 95.4405 63.1867 95.4405 64.44V70H93.6805V59.28H95.1005L95.3605 60.74H95.4605C95.8071 60.18 96.2871 59.7667 96.9005 59.5C97.5138 59.22 98.1605 59.08 98.8405 59.08ZM109.624 68.76C109.89 68.76 110.164 68.74 110.444 68.7C110.724 68.6467 110.95 68.5933 111.124 68.54V69.88C110.937 69.9733 110.67 70.0467 110.324 70.1C109.977 70.1667 109.644 70.2 109.324 70.2C108.764 70.2 108.244 70.1067 107.764 69.92C107.297 69.72 106.917 69.38 106.624 68.9C106.33 68.42 106.184 67.7467 106.184 66.88V60.64H104.664V59.8L106.204 59.1L106.904 56.82H107.944V59.28H111.044V60.64H107.944V66.84C107.944 67.4933 108.097 67.98 108.404 68.3C108.724 68.6067 109.13 68.76 109.624 68.76ZM124.006 55.72L118.686 70H116.966L122.286 55.72H124.006ZM139.322 70H131.342V55.72H139.322V57.3H133.142V61.76H138.962V63.32H133.142V68.42H139.322V70ZM144.756 64.52L141.056 59.28H143.056L145.816 63.32L148.556 59.28H150.536L146.836 64.52L150.736 70H148.736L145.816 65.72L142.856 70H140.876L144.756 64.52ZM156.862 59.1C158.168 59.1 159.135 59.3867 159.762 59.96C160.388 60.5333 160.702 61.4467 160.702 62.7V70H159.422L159.082 68.48H159.002C158.535 69.0667 158.042 69.5 157.522 69.78C157.015 70.06 156.308 70.2 155.402 70.2C154.428 70.2 153.622 69.9467 152.982 69.44C152.342 68.92 152.022 68.1133 152.022 67.02C152.022 65.9533 152.442 65.1333 153.282 64.56C154.122 63.9733 155.415 63.6533 157.162 63.6L158.982 63.54V62.9C158.982 62.0067 158.788 61.3867 158.402 61.04C158.015 60.6933 157.468 60.52 156.762 60.52C156.202 60.52 155.668 60.6067 155.162 60.78C154.655 60.94 154.182 61.1267 153.742 61.34L153.202 60.02C153.668 59.7667 154.222 59.5533 154.862 59.38C155.502 59.1933 156.168 59.1 156.862 59.1ZM157.382 64.82C156.048 64.8733 155.122 65.0867 154.602 65.46C154.095 65.8333 153.842 66.36 153.842 67.04C153.842 67.64 154.022 68.08 154.382 68.36C154.755 68.64 155.228 68.78 155.802 68.78C156.708 68.78 157.462 68.5333 158.062 68.04C158.662 67.5333 158.962 66.76 158.962 65.72V64.76L157.382 64.82ZM175.773 59.08C176.986 59.08 177.893 59.3933 178.493 60.02C179.093 60.6333 179.393 61.6333 179.393 63.02V70H177.653V63.1C177.653 61.4067 176.926 60.56 175.473 60.56C174.433 60.56 173.686 60.86 173.233 61.46C172.793 62.06 172.573 62.9333 172.573 64.08V70H170.833V63.1C170.833 61.4067 170.099 60.56 168.633 60.56C167.553 60.56 166.806 60.8933 166.393 61.56C165.979 62.2267 165.773 63.1867 165.773 64.44V70H164.013V59.28H165.433L165.693 60.74H165.793C166.126 60.18 166.573 59.7667 167.133 59.5C167.706 59.22 168.313 59.08 168.953 59.08C170.633 59.08 171.726 59.68 172.233 60.88H172.333C172.693 60.2667 173.179 59.8133 173.793 59.52C174.419 59.2267 175.079 59.08 175.773 59.08ZM187.804 59.08C189.124 59.08 190.184 59.54 190.984 60.46C191.797 61.38 192.204 62.7667 192.204 64.62C192.204 66.4467 191.797 67.8333 190.984 68.78C190.184 69.7267 189.117 70.2 187.784 70.2C186.957 70.2 186.271 70.0467 185.724 69.74C185.191 69.42 184.771 69.0533 184.464 68.64H184.344C184.371 68.8667 184.397 69.1533 184.424 69.5C184.451 69.8467 184.464 70.1467 184.464 70.4V74.8H182.704V59.28H184.144L184.384 60.74H184.464C184.784 60.2733 185.204 59.88 185.724 59.56C186.244 59.24 186.937 59.08 187.804 59.08ZM187.484 60.56C186.391 60.56 185.617 60.8667 185.164 61.48C184.724 62.0933 184.491 63.0267 184.464 64.28V64.62C184.464 65.94 184.677 66.96 185.104 67.68C185.544 68.3867 186.351 68.74 187.524 68.74C188.177 68.74 188.711 68.56 189.124 68.2C189.551 67.84 189.864 67.3533 190.064 66.74C190.277 66.1133 190.384 65.4 190.384 64.6C190.384 63.3733 190.144 62.3933 189.664 61.66C189.197 60.9267 188.471 60.56 187.484 60.56ZM196.769 70H195.009V54.8H196.769V70ZM204.305 59.08C205.225 59.08 206.012 59.28 206.665 59.68C207.332 60.08 207.838 60.6467 208.185 61.38C208.545 62.1 208.725 62.9467 208.725 63.92V64.98H201.385C201.412 66.1933 201.718 67.12 202.305 67.76C202.905 68.3867 203.738 68.7 204.805 68.7C205.485 68.7 206.085 68.64 206.605 68.52C207.138 68.3867 207.685 68.2 208.245 67.96V69.5C207.698 69.74 207.158 69.9133 206.625 70.02C206.092 70.14 205.458 70.2 204.725 70.2C203.712 70.2 202.812 69.9933 202.025 69.58C201.252 69.1667 200.645 68.5533 200.205 67.74C199.778 66.9133 199.565 65.9067 199.565 64.72C199.565 63.5467 199.758 62.54 200.145 61.7C200.545 60.86 201.098 60.2133 201.805 59.76C202.525 59.3067 203.358 59.08 204.305 59.08ZM204.285 60.52C203.445 60.52 202.778 60.7933 202.285 61.34C201.805 61.8733 201.518 62.62 201.425 63.58H206.885C206.872 62.6733 206.658 61.94 206.245 61.38C205.832 60.8067 205.178 60.52 204.285 60.52ZM228.409 59.08C229.623 59.08 230.529 59.3933 231.129 60.02C231.729 60.6333 232.029 61.6333 232.029 63.02V70H230.289V63.1C230.289 61.4067 229.563 60.56 228.109 60.56C227.069 60.56 226.323 60.86 225.869 61.46C225.429 62.06 225.209 62.9333 225.209 64.08V70H223.469V63.1C223.469 61.4067 222.736 60.56 221.269 60.56C220.189 60.56 219.443 60.8933 219.029 61.56C218.616 62.2267 218.409 63.1867 218.409 64.44V70H216.649V59.28H218.069L218.329 60.74H218.429C218.763 60.18 219.209 59.7667 219.769 59.5C220.343 59.22 220.949 59.08 221.589 59.08C223.269 59.08 224.363 59.68 224.869 60.88H224.969C225.329 60.2667 225.816 59.8133 226.429 59.52C227.056 59.2267 227.716 59.08 228.409 59.08ZM239.481 59.08C240.401 59.08 241.187 59.28 241.841 59.68C242.507 60.08 243.014 60.6467 243.361 61.38C243.721 62.1 243.901 62.9467 243.901 63.92V64.98H236.561C236.587 66.1933 236.894 67.12 237.481 67.76C238.081 68.3867 238.914 68.7 239.981 68.7C240.661 68.7 241.261 68.64 241.781 68.52C242.314 68.3867 242.861 68.2 243.421 67.96V69.5C242.874 69.74 242.334 69.9133 241.801 70.02C241.267 70.14 240.634 70.2 239.901 70.2C238.887 70.2 237.987 69.9933 237.201 69.58C236.427 69.1667 235.821 68.5533 235.381 67.74C234.954 66.9133 234.741 65.9067 234.741 64.72C234.741 63.5467 234.934 62.54 235.321 61.7C235.721 60.86 236.274 60.2133 236.981 59.76C237.701 59.3067 238.534 59.08 239.481 59.08ZM239.461 60.52C238.621 60.52 237.954 60.7933 237.461 61.34C236.981 61.8733 236.694 62.62 236.601 63.58H242.061C242.047 62.6733 241.834 61.94 241.421 61.38C241.007 60.8067 240.354 60.52 239.461 60.52ZM253.61 67.04C253.61 68.08 253.223 68.8667 252.45 69.4C251.676 69.9333 250.636 70.2 249.33 70.2C248.583 70.2 247.936 70.14 247.39 70.02C246.856 69.9 246.383 69.7333 245.97 69.52V67.92C246.396 68.1333 246.91 68.3333 247.51 68.52C248.123 68.6933 248.743 68.78 249.37 68.78C250.263 68.78 250.91 68.64 251.31 68.36C251.71 68.0667 251.91 67.68 251.91 67.2C251.91 66.9333 251.836 66.6933 251.69 66.48C251.543 66.2667 251.276 66.0533 250.89 65.84C250.516 65.6267 249.976 65.3867 249.27 65.12C248.576 64.8533 247.983 64.5867 247.49 64.32C246.996 64.0533 246.616 63.7333 246.35 63.36C246.083 62.9867 245.95 62.5067 245.95 61.92C245.95 61.0133 246.316 60.3133 247.05 59.82C247.796 59.3267 248.77 59.08 249.97 59.08C250.623 59.08 251.23 59.1467 251.79 59.28C252.363 59.4 252.896 59.5733 253.39 59.8L252.79 61.2C252.336 61.0133 251.863 60.8533 251.37 60.72C250.876 60.5867 250.37 60.52 249.85 60.52C249.13 60.52 248.576 60.64 248.19 60.88C247.816 61.1067 247.63 61.42 247.63 61.82C247.63 62.1133 247.716 62.3667 247.89 62.58C248.063 62.78 248.35 62.98 248.75 63.18C249.163 63.3667 249.71 63.5933 250.39 63.86C251.07 64.1133 251.65 64.3733 252.13 64.64C252.61 64.9067 252.976 65.2333 253.23 65.62C253.483 65.9933 253.61 66.4667 253.61 67.04ZM263.18 67.04C263.18 68.08 262.793 68.8667 262.02 69.4C261.247 69.9333 260.207 70.2 258.9 70.2C258.153 70.2 257.507 70.14 256.96 70.02C256.427 69.9 255.953 69.7333 255.54 69.52V67.92C255.967 68.1333 256.48 68.3333 257.08 68.52C257.693 68.6933 258.313 68.78 258.94 68.78C259.833 68.78 260.48 68.64 260.88 68.36C261.28 68.0667 261.48 67.68 261.48 67.2C261.48 66.9333 261.407 66.6933 261.26 66.48C261.113 66.2667 260.847 66.0533 260.46 65.84C260.087 65.6267 259.547 65.3867 258.84 65.12C258.147 64.8533 257.553 64.5867 257.06 64.32C256.567 64.0533 256.187 63.7333 255.92 63.36C255.653 62.9867 255.52 62.5067 255.52 61.92C255.52 61.0133 255.887 60.3133 256.62 59.82C257.367 59.3267 258.34 59.08 259.54 59.08C260.193 59.08 260.8 59.1467 261.36 59.28C261.933 59.4 262.467 59.5733 262.96 59.8L262.36 61.2C261.907 61.0133 261.433 60.8533 260.94 60.72C260.447 60.5867 259.94 60.52 259.42 60.52C258.7 60.52 258.147 60.64 257.76 60.88C257.387 61.1067 257.2 61.42 257.2 61.82C257.2 62.1133 257.287 62.3667 257.46 62.58C257.633 62.78 257.92 62.98 258.32 63.18C258.733 63.3667 259.28 63.5933 259.96 63.86C260.64 64.1133 261.22 64.3733 261.7 64.64C262.18 64.9067 262.547 65.2333 262.8 65.62C263.053 65.9933 263.18 66.4667 263.18 67.04ZM269.83 59.1C271.137 59.1 272.104 59.3867 272.73 59.96C273.357 60.5333 273.67 61.4467 273.67 62.7V70H272.39L272.05 68.48H271.97C271.504 69.0667 271.01 69.5 270.49 69.78C269.984 70.06 269.277 70.2 268.37 70.2C267.397 70.2 266.59 69.9467 265.95 69.44C265.31 68.92 264.99 68.1133 264.99 67.02C264.99 65.9533 265.41 65.1333 266.25 64.56C267.09 63.9733 268.384 63.6533 270.13 63.6L271.95 63.54V62.9C271.95 62.0067 271.757 61.3867 271.37 61.04C270.984 60.6933 270.437 60.52 269.73 60.52C269.17 60.52 268.637 60.6067 268.13 60.78C267.624 60.94 267.15 61.1267 266.71 61.34L266.17 60.02C266.637 59.7667 267.19 59.5533 267.83 59.38C268.47 59.1933 269.137 59.1 269.83 59.1ZM270.35 64.82C269.017 64.8733 268.09 65.0867 267.57 65.46C267.064 65.8333 266.81 66.36 266.81 67.04C266.81 67.64 266.99 68.08 267.35 68.36C267.724 68.64 268.197 68.78 268.77 68.78C269.677 68.78 270.43 68.5333 271.03 68.04C271.63 67.5333 271.93 66.76 271.93 65.72V64.76L270.35 64.82ZM280.781 59.08C281.488 59.08 282.121 59.2133 282.681 59.48C283.255 59.7467 283.741 60.1533 284.141 60.7H284.241L284.481 59.28H285.881V70.18C285.881 71.7133 285.488 72.8667 284.701 73.64C283.928 74.4133 282.721 74.8 281.081 74.8C279.508 74.8 278.221 74.5733 277.221 74.12V72.5C278.275 73.06 279.595 73.34 281.181 73.34C282.101 73.34 282.821 73.0667 283.341 72.52C283.875 71.9867 284.141 71.2533 284.141 70.32V69.9C284.141 69.74 284.148 69.5133 284.161 69.22C284.175 68.9133 284.188 68.7 284.201 68.58H284.121C283.401 69.66 282.295 70.2 280.801 70.2C279.415 70.2 278.328 69.7133 277.541 68.74C276.768 67.7667 276.381 66.4067 276.381 64.66C276.381 62.9533 276.768 61.6 277.541 60.6C278.328 59.5867 279.408 59.08 280.781 59.08ZM281.021 60.56C280.128 60.56 279.435 60.92 278.941 61.64C278.448 62.3467 278.201 63.36 278.201 64.68C278.201 66 278.441 67.0133 278.921 67.72C279.415 68.4133 280.128 68.76 281.061 68.76C282.141 68.76 282.928 68.4733 283.421 67.9C283.915 67.3133 284.161 66.3733 284.161 65.08V64.66C284.161 63.1933 283.908 62.1467 283.401 61.52C282.895 60.88 282.101 60.56 281.021 60.56ZM293.426 59.08C294.346 59.08 295.133 59.28 295.786 59.68C296.453 60.08 296.959 60.6467 297.306 61.38C297.666 62.1 297.846 62.9467 297.846 63.92V64.98H290.506C290.533 66.1933 290.839 67.12 291.426 67.76C292.026 68.3867 292.859 68.7 293.926 68.7C294.606 68.7 295.206 68.64 295.726 68.52C296.259 68.3867 296.806 68.2 297.366 67.96V69.5C296.819 69.74 296.279 69.9133 295.746 70.02C295.213 70.14 294.579 70.2 293.846 70.2C292.833 70.2 291.933 69.9933 291.146 69.58C290.373 69.1667 289.766 68.5533 289.326 67.74C288.899 66.9133 288.686 65.9067 288.686 64.72C288.686 63.5467 288.879 62.54 289.266 61.7C289.666 60.86 290.219 60.2133 290.926 59.76C291.646 59.3067 292.479 59.08 293.426 59.08ZM293.406 60.52C292.566 60.52 291.899 60.7933 291.406 61.34C290.926 61.8733 290.639 62.62 290.546 63.58H296.006C295.993 62.6733 295.779 61.94 295.366 61.38C294.953 60.8067 294.299 60.52 293.406 60.52ZM300.315 68.92C300.315 68.4267 300.435 68.08 300.675 67.88C300.915 67.68 301.202 67.58 301.535 67.58C301.882 67.58 302.175 67.68 302.415 67.88C302.668 68.08 302.795 68.4267 302.795 68.92C302.795 69.4 302.668 69.7467 302.415 69.96C302.175 70.1733 301.882 70.28 301.535 70.28C301.202 70.28 300.915 70.1733 300.675 69.96C300.435 69.7467 300.315 69.4 300.315 68.92Z" fill="#43474E"/>
<path d="M98.2004 105H77.8L88.0002 87L98.2004 105ZM87.0012 102.005H88.9983V100.008H87.0012V102.005ZM87.0012 98.0107H88.9983V93.0186H87.0012V98.0107Z" fill="#B3192E"/>
<path d="M118.02 104H109.8V89.72H118.02V92.2H112.82V95.34H117.66V97.82H112.82V101.5H118.02V104ZM126.851 92.88C126.998 92.88 127.171 92.8867 127.371 92.9C127.571 92.9133 127.731 92.9333 127.851 92.96L127.631 95.76C127.538 95.7333 127.398 95.7133 127.211 95.7C127.038 95.6733 126.885 95.66 126.751 95.66C126.245 95.66 125.758 95.7533 125.291 95.94C124.825 96.1133 124.445 96.4 124.151 96.8C123.871 97.2 123.731 97.7467 123.731 98.44V104H120.751V93.08H123.011L123.451 94.92H123.591C123.911 94.36 124.351 93.88 124.911 93.48C125.471 93.08 126.118 92.88 126.851 92.88ZM135.933 92.88C136.08 92.88 136.253 92.8867 136.453 92.9C136.653 92.9133 136.813 92.9333 136.933 92.96L136.713 95.76C136.62 95.7333 136.48 95.7133 136.293 95.7C136.12 95.6733 135.967 95.66 135.833 95.66C135.327 95.66 134.84 95.7533 134.373 95.94C133.907 96.1133 133.527 96.4 133.233 96.8C132.953 97.2 132.813 97.7467 132.813 98.44V104H129.833V93.08H132.093L132.533 94.92H132.673C132.993 94.36 133.433 93.88 133.993 93.48C134.553 93.08 135.2 92.88 135.933 92.88ZM148.445 98.52C148.445 100.333 147.965 101.733 147.005 102.72C146.058 103.707 144.765 104.2 143.125 104.2C142.112 104.2 141.205 103.98 140.405 103.54C139.618 103.1 138.998 102.46 138.545 101.62C138.092 100.767 137.865 99.7333 137.865 98.52C137.865 96.7067 138.338 95.3133 139.285 94.34C140.232 93.3667 141.532 92.88 143.185 92.88C144.212 92.88 145.118 93.1 145.905 93.54C146.692 93.98 147.312 94.62 147.765 95.46C148.218 96.2867 148.445 97.3067 148.445 98.52ZM140.905 98.52C140.905 99.6 141.078 100.42 141.425 100.98C141.785 101.527 142.365 101.8 143.165 101.8C143.952 101.8 144.518 101.527 144.865 100.98C145.225 100.42 145.405 99.6 145.405 98.52C145.405 97.44 145.225 96.6333 144.865 96.1C144.518 95.5533 143.945 95.28 143.145 95.28C142.358 95.28 141.785 95.5533 141.425 96.1C141.078 96.6333 140.905 97.44 140.905 98.52ZM157.008 92.88C157.154 92.88 157.328 92.8867 157.528 92.9C157.728 92.9133 157.888 92.9333 158.008 92.96L157.788 95.76C157.694 95.7333 157.554 95.7133 157.368 95.7C157.194 95.6733 157.041 95.66 156.908 95.66C156.401 95.66 155.914 95.7533 155.448 95.94C154.981 96.1133 154.601 96.4 154.308 96.8C154.028 97.2 153.888 97.7467 153.888 98.44V104H150.908V93.08H153.168L153.608 94.92H153.748C154.068 94.36 154.508 93.88 155.068 93.48C155.628 93.08 156.274 92.88 157.008 92.88ZM178.005 92.88C179.245 92.88 180.178 93.2 180.805 93.84C181.445 94.4667 181.765 95.48 181.765 96.88V104H178.785V97.62C178.785 96.0467 178.238 95.26 177.145 95.26C176.358 95.26 175.798 95.54 175.465 96.1C175.132 96.66 174.965 97.4667 174.965 98.52V104H171.985V97.62C171.985 96.0467 171.438 95.26 170.345 95.26C169.518 95.26 168.945 95.5733 168.625 96.2C168.318 96.8133 168.165 97.7 168.165 98.86V104H165.185V93.08H167.465L167.865 94.48H168.025C168.358 93.92 168.812 93.5133 169.385 93.26C169.972 93.0067 170.578 92.88 171.205 92.88C172.005 92.88 172.685 93.0133 173.245 93.28C173.805 93.5333 174.232 93.9333 174.525 94.48H174.785C175.118 93.92 175.578 93.5133 176.165 93.26C176.765 93.0067 177.378 92.88 178.005 92.88ZM189.333 92.88C190.84 92.88 192.033 93.3133 192.913 94.18C193.793 95.0333 194.233 96.2533 194.233 97.84V99.28H187.193C187.22 100.12 187.467 100.78 187.933 101.26C188.413 101.74 189.073 101.98 189.913 101.98C190.62 101.98 191.26 101.913 191.833 101.78C192.407 101.633 193 101.413 193.613 101.12V103.42C193.08 103.687 192.513 103.88 191.913 104C191.327 104.133 190.613 104.2 189.773 104.2C188.68 104.2 187.713 104 186.873 103.6C186.033 103.187 185.373 102.567 184.893 101.74C184.413 100.913 184.173 99.8733 184.173 98.62C184.173 97.34 184.387 96.28 184.813 95.44C185.253 94.5867 185.86 93.9467 186.633 93.52C187.407 93.0933 188.307 92.88 189.333 92.88ZM189.353 95C188.78 95 188.3 95.1867 187.913 95.56C187.54 95.9333 187.32 96.5133 187.253 97.3H191.433C191.42 96.6333 191.247 96.0867 190.913 95.66C190.58 95.22 190.06 95 189.353 95ZM204.27 100.76C204.27 101.867 203.877 102.72 203.09 103.32C202.317 103.907 201.157 104.2 199.61 104.2C198.85 104.2 198.197 104.147 197.65 104.04C197.103 103.947 196.557 103.787 196.01 103.56V101.1C196.597 101.367 197.23 101.587 197.91 101.76C198.59 101.933 199.19 102.02 199.71 102.02C200.297 102.02 200.71 101.933 200.95 101.76C201.203 101.587 201.33 101.36 201.33 101.08C201.33 100.893 201.277 100.727 201.17 100.58C201.077 100.433 200.863 100.267 200.53 100.08C200.197 99.8933 199.677 99.6533 198.97 99.36C198.29 99.0667 197.73 98.78 197.29 98.5C196.85 98.2067 196.523 97.86 196.31 97.46C196.097 97.0467 195.99 96.5333 195.99 95.92C195.99 94.9067 196.383 94.1467 197.17 93.64C197.957 93.1333 199.003 92.88 200.31 92.88C200.99 92.88 201.637 92.9467 202.25 93.08C202.863 93.2133 203.497 93.4333 204.15 93.74L203.25 95.88C202.717 95.6533 202.21 95.4667 201.73 95.32C201.25 95.16 200.763 95.08 200.27 95.08C199.39 95.08 198.95 95.32 198.95 95.8C198.95 95.9733 199.003 96.1333 199.11 96.28C199.23 96.4133 199.45 96.56 199.77 96.72C200.103 96.88 200.59 97.0933 201.23 97.36C201.857 97.6133 202.397 97.88 202.85 98.16C203.303 98.4267 203.65 98.7667 203.89 99.18C204.143 99.58 204.27 100.107 204.27 100.76ZM214.211 100.76C214.211 101.867 213.818 102.72 213.031 103.32C212.258 103.907 211.098 104.2 209.551 104.2C208.791 104.2 208.138 104.147 207.591 104.04C207.045 103.947 206.498 103.787 205.951 103.56V101.1C206.538 101.367 207.171 101.587 207.851 101.76C208.531 101.933 209.131 102.02 209.651 102.02C210.238 102.02 210.651 101.933 210.891 101.76C211.145 101.587 211.271 101.36 211.271 101.08C211.271 100.893 211.218 100.727 211.111 100.58C211.018 100.433 210.805 100.267 210.471 100.08C210.138 99.8933 209.618 99.6533 208.911 99.36C208.231 99.0667 207.671 98.78 207.231 98.5C206.791 98.2067 206.465 97.86 206.251 97.46C206.038 97.0467 205.931 96.5333 205.931 95.92C205.931 94.9067 206.325 94.1467 207.111 93.64C207.898 93.1333 208.945 92.88 210.251 92.88C210.931 92.88 211.578 92.9467 212.191 93.08C212.805 93.2133 213.438 93.4333 214.091 93.74L213.191 95.88C212.658 95.6533 212.151 95.4667 211.671 95.32C211.191 95.16 210.705 95.08 210.211 95.08C209.331 95.08 208.891 95.32 208.891 95.8C208.891 95.9733 208.945 96.1333 209.051 96.28C209.171 96.4133 209.391 96.56 209.711 96.72C210.045 96.88 210.531 97.0933 211.171 97.36C211.798 97.6133 212.338 97.88 212.791 98.16C213.245 98.4267 213.591 98.7667 213.831 99.18C214.085 99.58 214.211 100.107 214.211 100.76ZM221.013 92.86C222.479 92.86 223.599 93.18 224.373 93.82C225.159 94.4467 225.553 95.4133 225.553 96.72V104H223.473L222.893 102.52H222.813C222.346 103.107 221.853 103.533 221.333 103.8C220.813 104.067 220.099 104.2 219.193 104.2C218.219 104.2 217.413 103.92 216.773 103.36C216.133 102.787 215.813 101.913 215.813 100.74C215.813 99.58 216.219 98.7267 217.033 98.18C217.846 97.62 219.066 97.3133 220.693 97.26L222.593 97.2V96.72C222.593 96.1467 222.439 95.7267 222.133 95.46C221.839 95.1933 221.426 95.06 220.893 95.06C220.359 95.06 219.839 95.14 219.333 95.3C218.826 95.4467 218.319 95.6333 217.813 95.86L216.833 93.84C217.419 93.5333 218.066 93.2933 218.773 93.12C219.493 92.9467 220.239 92.86 221.013 92.86ZM221.433 98.98C220.473 99.0067 219.806 99.18 219.433 99.5C219.059 99.82 218.873 100.24 218.873 100.76C218.873 101.213 219.006 101.54 219.273 101.74C219.539 101.927 219.886 102.02 220.313 102.02C220.953 102.02 221.493 101.833 221.933 101.46C222.373 101.073 222.593 100.533 222.593 99.84V98.94L221.433 98.98ZM232.143 92.88C233.49 92.88 234.543 93.4133 235.303 94.48H235.383L235.623 93.08H238.143V104.02C238.143 105.58 237.683 106.767 236.763 107.58C235.843 108.393 234.483 108.8 232.683 108.8C231.91 108.8 231.19 108.753 230.523 108.66C229.87 108.567 229.23 108.4 228.603 108.16V105.78C229.95 106.34 231.37 106.62 232.863 106.62C234.396 106.62 235.163 105.793 235.163 104.14V103.92C235.163 103.693 235.17 103.46 235.183 103.22C235.21 102.98 235.23 102.767 235.243 102.58H235.163C234.79 103.153 234.343 103.567 233.823 103.82C233.303 104.073 232.716 104.2 232.063 104.2C230.77 104.2 229.756 103.707 229.023 102.72C228.303 101.72 227.943 100.333 227.943 98.56C227.943 96.7733 228.316 95.38 229.063 94.38C229.81 93.38 230.836 92.88 232.143 92.88ZM233.083 95.3C231.683 95.3 230.983 96.4 230.983 98.6C230.983 100.773 231.696 101.86 233.123 101.86C233.883 101.86 234.443 101.647 234.803 101.22C235.176 100.78 235.363 100.02 235.363 98.94V98.58C235.363 97.4067 235.183 96.5667 234.823 96.06C234.463 95.5533 233.883 95.3 233.083 95.3ZM245.759 92.88C247.266 92.88 248.459 93.3133 249.339 94.18C250.219 95.0333 250.659 96.2533 250.659 97.84V99.28H243.619C243.646 100.12 243.893 100.78 244.359 101.26C244.839 101.74 245.499 101.98 246.339 101.98C247.046 101.98 247.686 101.913 248.259 101.78C248.833 101.633 249.426 101.413 250.039 101.12V103.42C249.506 103.687 248.939 103.88 248.339 104C247.753 104.133 247.039 104.2 246.199 104.2C245.106 104.2 244.139 104 243.299 103.6C242.459 103.187 241.799 102.567 241.319 101.74C240.839 100.913 240.599 99.8733 240.599 98.62C240.599 97.34 240.813 96.28 241.239 95.44C241.679 94.5867 242.286 93.9467 243.059 93.52C243.833 93.0933 244.733 92.88 245.759 92.88ZM245.779 95C245.206 95 244.726 95.1867 244.339 95.56C243.966 95.9333 243.746 96.5133 243.679 97.3H247.859C247.846 96.6333 247.673 96.0867 247.339 95.66C247.006 95.22 246.486 95 245.779 95ZM252.656 102.6C252.656 101.987 252.822 101.56 253.156 101.32C253.489 101.067 253.896 100.94 254.376 100.94C254.842 100.94 255.242 101.067 255.576 101.32C255.909 101.56 256.076 101.987 256.076 102.6C256.076 103.187 255.909 103.613 255.576 103.88C255.242 104.133 254.842 104.26 254.376 104.26C253.896 104.26 253.489 104.133 253.156 103.88C252.822 103.613 252.656 103.187 252.656 102.6Z" fill="#B3192E"/>
<rect x="73" y="125" width="318" height="46" rx="2" fill="white"/>
<rect x="73" y="125" width="318" height="46" rx="2" stroke="#B3192E" stroke-width="2"/>
<path d="M90.46 156H88.66V143.3H84.2V141.72H94.9V143.3H90.46V156ZM98.5733 145.26C98.5733 145.793 98.5399 146.293 98.4733 146.76H98.5933C98.9399 146.213 99.4066 145.8 99.9933 145.52C100.593 145.24 101.24 145.1 101.933 145.1C103.24 145.1 104.22 145.413 104.873 146.04C105.527 146.653 105.853 147.647 105.853 149.02V156H104.113V149.14C104.113 147.42 103.313 146.56 101.713 146.56C100.513 146.56 99.6866 146.9 99.2333 147.58C98.7933 148.247 98.5733 149.207 98.5733 150.46V156H96.8133V140.8H98.5733V145.26ZM110.077 141.26C110.343 141.26 110.577 141.353 110.777 141.54C110.99 141.713 111.097 141.993 111.097 142.38C111.097 142.753 110.99 143.033 110.777 143.22C110.577 143.407 110.343 143.5 110.077 143.5C109.783 143.5 109.537 143.407 109.337 143.22C109.137 143.033 109.037 142.753 109.037 142.38C109.037 141.993 109.137 141.713 109.337 141.54C109.537 141.353 109.783 141.26 110.077 141.26ZM110.937 145.28V156H109.177V145.28H110.937ZM121.313 153.04C121.313 154.08 120.926 154.867 120.153 155.4C119.379 155.933 118.339 156.2 117.033 156.2C116.286 156.2 115.639 156.14 115.093 156.02C114.559 155.9 114.086 155.733 113.673 155.52V153.92C114.099 154.133 114.613 154.333 115.213 154.52C115.826 154.693 116.446 154.78 117.073 154.78C117.966 154.78 118.613 154.64 119.013 154.36C119.413 154.067 119.613 153.68 119.613 153.2C119.613 152.933 119.539 152.693 119.393 152.48C119.246 152.267 118.979 152.053 118.593 151.84C118.219 151.627 117.679 151.387 116.973 151.12C116.279 150.853 115.686 150.587 115.193 150.32C114.699 150.053 114.319 149.733 114.053 149.36C113.786 148.987 113.653 148.507 113.653 147.92C113.653 147.013 114.019 146.313 114.753 145.82C115.499 145.327 116.473 145.08 117.673 145.08C118.326 145.08 118.933 145.147 119.493 145.28C120.066 145.4 120.599 145.573 121.093 145.8L120.493 147.2C120.039 147.013 119.566 146.853 119.073 146.72C118.579 146.587 118.073 146.52 117.553 146.52C116.833 146.52 116.279 146.64 115.893 146.88C115.519 147.107 115.333 147.42 115.333 147.82C115.333 148.113 115.419 148.367 115.593 148.58C115.766 148.78 116.053 148.98 116.453 149.18C116.866 149.367 117.413 149.593 118.093 149.86C118.773 150.113 119.353 150.373 119.833 150.64C120.313 150.907 120.679 151.233 120.933 151.62C121.186 151.993 121.313 152.467 121.313 153.04ZM132.678 154.76C132.945 154.76 133.218 154.74 133.498 154.7C133.778 154.647 134.005 154.593 134.178 154.54V155.88C133.992 155.973 133.725 156.047 133.378 156.1C133.032 156.167 132.698 156.2 132.378 156.2C131.818 156.2 131.298 156.107 130.818 155.92C130.352 155.72 129.972 155.38 129.678 154.9C129.385 154.42 129.238 153.747 129.238 152.88V146.64H127.718V145.8L129.258 145.1L129.958 142.82H130.998V145.28H134.098V146.64H130.998V152.84C130.998 153.493 131.152 153.98 131.458 154.3C131.778 154.607 132.185 154.76 132.678 154.76ZM140.465 145.08C141.385 145.08 142.172 145.28 142.825 145.68C143.492 146.08 143.998 146.647 144.345 147.38C144.705 148.1 144.885 148.947 144.885 149.92V150.98H137.545C137.572 152.193 137.878 153.12 138.465 153.76C139.065 154.387 139.898 154.7 140.965 154.7C141.645 154.7 142.245 154.64 142.765 154.52C143.298 154.387 143.845 154.2 144.405 153.96V155.5C143.858 155.74 143.318 155.913 142.785 156.02C142.252 156.14 141.618 156.2 140.885 156.2C139.872 156.2 138.972 155.993 138.185 155.58C137.412 155.167 136.805 154.553 136.365 153.74C135.938 152.913 135.725 151.907 135.725 150.72C135.725 149.547 135.918 148.54 136.305 147.7C136.705 146.86 137.258 146.213 137.965 145.76C138.685 145.307 139.518 145.08 140.465 145.08ZM140.445 146.52C139.605 146.52 138.938 146.793 138.445 147.34C137.965 147.873 137.678 148.62 137.585 149.58H143.045C143.032 148.673 142.818 147.94 142.405 147.38C141.992 146.807 141.338 146.52 140.445 146.52ZM149.763 150.52L146.063 145.28H148.063L150.823 149.32L153.563 145.28H155.543L151.843 150.52L155.743 156H153.743L150.823 151.72L147.863 156H145.883L149.763 150.52ZM161.389 154.76C161.656 154.76 161.929 154.74 162.209 154.7C162.489 154.647 162.716 154.593 162.889 154.54V155.88C162.703 155.973 162.436 156.047 162.089 156.1C161.743 156.167 161.409 156.2 161.089 156.2C160.529 156.2 160.009 156.107 159.529 155.92C159.063 155.72 158.683 155.38 158.389 154.9C158.096 154.42 157.949 153.747 157.949 152.88V146.64H156.429V145.8L157.969 145.1L158.669 142.82H159.709V145.28H162.809V146.64H159.709V152.84C159.709 153.493 159.863 153.98 160.169 154.3C160.489 154.607 160.896 154.76 161.389 154.76ZM171.131 141.26C171.398 141.26 171.631 141.353 171.831 141.54C172.045 141.713 172.151 141.993 172.151 142.38C172.151 142.753 172.045 143.033 171.831 143.22C171.631 143.407 171.398 143.5 171.131 143.5C170.838 143.5 170.591 143.407 170.391 143.22C170.191 143.033 170.091 142.753 170.091 142.38C170.091 141.993 170.191 141.713 170.391 141.54C170.591 141.353 170.838 141.26 171.131 141.26ZM171.991 145.28V156H170.231V145.28H171.991ZM182.368 153.04C182.368 154.08 181.981 154.867 181.208 155.4C180.434 155.933 179.394 156.2 178.088 156.2C177.341 156.2 176.694 156.14 176.148 156.02C175.614 155.9 175.141 155.733 174.728 155.52V153.92C175.154 154.133 175.668 154.333 176.268 154.52C176.881 154.693 177.501 154.78 178.128 154.78C179.021 154.78 179.668 154.64 180.068 154.36C180.468 154.067 180.668 153.68 180.668 153.2C180.668 152.933 180.594 152.693 180.448 152.48C180.301 152.267 180.034 152.053 179.648 151.84C179.274 151.627 178.734 151.387 178.028 151.12C177.334 150.853 176.741 150.587 176.248 150.32C175.754 150.053 175.374 149.733 175.108 149.36C174.841 148.987 174.708 148.507 174.708 147.92C174.708 147.013 175.074 146.313 175.808 145.82C176.554 145.327 177.528 145.08 178.728 145.08C179.381 145.08 179.988 145.147 180.548 145.28C181.121 145.4 181.654 145.573 182.148 145.8L181.548 147.2C181.094 147.013 180.621 146.853 180.128 146.72C179.634 146.587 179.128 146.52 178.608 146.52C177.888 146.52 177.334 146.64 176.948 146.88C176.574 147.107 176.388 147.42 176.388 147.82C176.388 148.113 176.474 148.367 176.648 148.58C176.821 148.78 177.108 148.98 177.508 149.18C177.921 149.367 178.468 149.593 179.148 149.86C179.828 150.113 180.408 150.373 180.888 150.64C181.368 150.907 181.734 151.233 181.988 151.62C182.241 151.993 182.368 152.467 182.368 153.04ZM191.053 141.26C191.32 141.26 191.553 141.353 191.753 141.54C191.966 141.713 192.073 141.993 192.073 142.38C192.073 142.753 191.966 143.033 191.753 143.22C191.553 143.407 191.32 143.5 191.053 143.5C190.76 143.5 190.513 143.407 190.313 143.22C190.113 143.033 190.013 142.753 190.013 142.38C190.013 141.993 190.113 141.713 190.313 141.54C190.513 141.353 190.76 141.26 191.053 141.26ZM191.913 145.28V156H190.153V145.28H191.913ZM200.469 145.08C201.749 145.08 202.716 145.393 203.369 146.02C204.023 146.633 204.349 147.633 204.349 149.02V156H202.609V149.14C202.609 147.42 201.809 146.56 200.209 146.56C199.023 146.56 198.203 146.893 197.749 147.56C197.296 148.227 197.069 149.187 197.069 150.44V156H195.309V145.28H196.729L196.989 146.74H197.089C197.436 146.18 197.916 145.767 198.529 145.5C199.143 145.22 199.789 145.08 200.469 145.08ZM216.448 154.76C216.715 154.76 216.988 154.74 217.268 154.7C217.548 154.647 217.775 154.593 217.948 154.54V155.88C217.761 155.973 217.495 156.047 217.148 156.1C216.801 156.167 216.468 156.2 216.148 156.2C215.588 156.2 215.068 156.107 214.588 155.92C214.121 155.72 213.741 155.38 213.448 154.9C213.155 154.42 213.008 153.747 213.008 152.88V146.64H211.488V145.8L213.028 145.1L213.728 142.82H214.768V145.28H217.868V146.64H214.768V152.84C214.768 153.493 214.921 153.98 215.228 154.3C215.548 154.607 215.955 154.76 216.448 154.76ZM221.855 145.26C221.855 145.793 221.821 146.293 221.755 146.76H221.875C222.221 146.213 222.688 145.8 223.275 145.52C223.875 145.24 224.521 145.1 225.215 145.1C226.521 145.1 227.501 145.413 228.155 146.04C228.808 146.653 229.135 147.647 229.135 149.02V156H227.395V149.14C227.395 147.42 226.595 146.56 224.995 146.56C223.795 146.56 222.968 146.9 222.515 147.58C222.075 148.247 221.855 149.207 221.855 150.46V156H220.095V140.8H221.855V145.26ZM236.598 145.08C237.518 145.08 238.304 145.28 238.958 145.68C239.624 146.08 240.131 146.647 240.478 147.38C240.838 148.1 241.018 148.947 241.018 149.92V150.98H233.678C233.704 152.193 234.011 153.12 234.598 153.76C235.198 154.387 236.031 154.7 237.098 154.7C237.778 154.7 238.378 154.64 238.898 154.52C239.431 154.387 239.978 154.2 240.538 153.96V155.5C239.991 155.74 239.451 155.913 238.918 156.02C238.384 156.14 237.751 156.2 237.018 156.2C236.004 156.2 235.104 155.993 234.318 155.58C233.544 155.167 232.938 154.553 232.498 153.74C232.071 152.913 231.858 151.907 231.858 150.72C231.858 149.547 232.051 148.54 232.438 147.7C232.838 146.86 233.391 146.213 234.098 145.76C234.818 145.307 235.651 145.08 236.598 145.08ZM236.578 146.52C235.738 146.52 235.071 146.793 234.578 147.34C234.098 147.873 233.811 148.62 233.718 149.58H239.178C239.164 148.673 238.951 147.94 238.538 147.38C238.124 146.807 237.471 146.52 236.578 146.52ZM253.942 145.08C254.142 145.08 254.356 145.093 254.582 145.12C254.822 145.133 255.029 145.16 255.202 145.2L254.982 146.82C254.809 146.78 254.616 146.747 254.402 146.72C254.202 146.693 254.009 146.68 253.822 146.68C253.276 146.68 252.762 146.833 252.282 147.14C251.802 147.433 251.416 147.853 251.122 148.4C250.842 148.933 250.702 149.56 250.702 150.28V156H248.942V145.28H250.382L250.582 147.24H250.662C251.009 146.653 251.456 146.147 252.002 145.72C252.549 145.293 253.196 145.08 253.942 145.08ZM260.953 145.08C261.873 145.08 262.66 145.28 263.313 145.68C263.98 146.08 264.487 146.647 264.833 147.38C265.193 148.1 265.373 148.947 265.373 149.92V150.98H258.033C258.06 152.193 258.367 153.12 258.953 153.76C259.553 154.387 260.387 154.7 261.453 154.7C262.133 154.7 262.733 154.64 263.253 154.52C263.787 154.387 264.333 154.2 264.893 153.96V155.5C264.347 155.74 263.807 155.913 263.273 156.02C262.74 156.14 262.107 156.2 261.373 156.2C260.36 156.2 259.46 155.993 258.673 155.58C257.9 155.167 257.293 154.553 256.853 153.74C256.427 152.913 256.213 151.907 256.213 150.72C256.213 149.547 256.407 148.54 256.793 147.7C257.193 146.86 257.747 146.213 258.453 145.76C259.173 145.307 260.007 145.08 260.953 145.08ZM260.933 146.52C260.093 146.52 259.427 146.793 258.933 147.34C258.453 147.873 258.167 148.62 258.073 149.58H263.533C263.52 148.673 263.307 147.94 262.893 147.38C262.48 146.807 261.827 146.52 260.933 146.52ZM275.082 153.04C275.082 154.08 274.696 154.867 273.922 155.4C273.149 155.933 272.109 156.2 270.802 156.2C270.056 156.2 269.409 156.14 268.862 156.02C268.329 155.9 267.856 155.733 267.442 155.52V153.92C267.869 154.133 268.382 154.333 268.982 154.52C269.596 154.693 270.216 154.78 270.842 154.78C271.736 154.78 272.382 154.64 272.782 154.36C273.182 154.067 273.382 153.68 273.382 153.2C273.382 152.933 273.309 152.693 273.162 152.48C273.016 152.267 272.749 152.053 272.362 151.84C271.989 151.627 271.449 151.387 270.742 151.12C270.049 150.853 269.456 150.587 268.962 150.32C268.469 150.053 268.089 149.733 267.822 149.36C267.556 148.987 267.422 148.507 267.422 147.92C267.422 147.013 267.789 146.313 268.522 145.82C269.269 145.327 270.242 145.08 271.442 145.08C272.096 145.08 272.702 145.147 273.262 145.28C273.836 145.4 274.369 145.573 274.862 145.8L274.262 147.2C273.809 147.013 273.336 146.853 272.842 146.72C272.349 146.587 271.842 146.52 271.322 146.52C270.602 146.52 270.049 146.64 269.662 146.88C269.289 147.107 269.102 147.42 269.102 147.82C269.102 148.113 269.189 148.367 269.362 148.58C269.536 148.78 269.822 148.98 270.222 149.18C270.636 149.367 271.182 149.593 271.862 149.86C272.542 150.113 273.122 150.373 273.602 150.64C274.082 150.907 274.449 151.233 274.702 151.62C274.956 151.993 275.082 152.467 275.082 153.04ZM282.773 145.08C284.093 145.08 285.153 145.54 285.953 146.46C286.766 147.38 287.173 148.767 287.173 150.62C287.173 152.447 286.766 153.833 285.953 154.78C285.153 155.727 284.086 156.2 282.753 156.2C281.926 156.2 281.239 156.047 280.693 155.74C280.159 155.42 279.739 155.053 279.433 154.64H279.313C279.339 154.867 279.366 155.153 279.393 155.5C279.419 155.847 279.433 156.147 279.433 156.4V160.8H277.673V145.28H279.113L279.353 146.74H279.433C279.753 146.273 280.173 145.88 280.693 145.56C281.213 145.24 281.906 145.08 282.773 145.08ZM282.453 146.56C281.359 146.56 280.586 146.867 280.133 147.48C279.693 148.093 279.459 149.027 279.433 150.28V150.62C279.433 151.94 279.646 152.96 280.073 153.68C280.513 154.387 281.319 154.74 282.493 154.74C283.146 154.74 283.679 154.56 284.093 154.2C284.519 153.84 284.833 153.353 285.033 152.74C285.246 152.113 285.353 151.4 285.353 150.6C285.353 149.373 285.113 148.393 284.633 147.66C284.166 146.927 283.439 146.56 282.453 146.56ZM299.297 150.62C299.297 152.393 298.844 153.767 297.937 154.74C297.044 155.713 295.831 156.2 294.297 156.2C293.351 156.2 292.504 155.987 291.757 155.56C291.024 155.12 290.444 154.487 290.017 153.66C289.591 152.82 289.377 151.807 289.377 150.62C289.377 148.847 289.824 147.48 290.717 146.52C291.611 145.56 292.824 145.08 294.357 145.08C295.331 145.08 296.184 145.3 296.917 145.74C297.664 146.167 298.244 146.793 298.657 147.62C299.084 148.433 299.297 149.433 299.297 150.62ZM291.197 150.62C291.197 151.887 291.444 152.893 291.937 153.64C292.444 154.373 293.244 154.74 294.337 154.74C295.417 154.74 296.211 154.373 296.717 153.64C297.224 152.893 297.477 151.887 297.477 150.62C297.477 149.353 297.224 148.36 296.717 147.64C296.211 146.92 295.411 146.56 294.317 146.56C293.224 146.56 292.431 146.92 291.937 147.64C291.444 148.36 291.197 149.353 291.197 150.62ZM307.247 145.08C308.527 145.08 309.493 145.393 310.147 146.02C310.8 146.633 311.127 147.633 311.127 149.02V156H309.387V149.14C309.387 147.42 308.587 146.56 306.987 146.56C305.8 146.56 304.98 146.893 304.527 147.56C304.073 148.227 303.847 149.187 303.847 150.44V156H302.087V145.28H303.507L303.767 146.74H303.867C304.213 146.18 304.693 145.767 305.307 145.5C305.92 145.22 306.567 145.08 307.247 145.08ZM321.43 153.04C321.43 154.08 321.043 154.867 320.27 155.4C319.497 155.933 318.457 156.2 317.15 156.2C316.403 156.2 315.757 156.14 315.21 156.02C314.677 155.9 314.203 155.733 313.79 155.52V153.92C314.217 154.133 314.73 154.333 315.33 154.52C315.943 154.693 316.563 154.78 317.19 154.78C318.083 154.78 318.73 154.64 319.13 154.36C319.53 154.067 319.73 153.68 319.73 153.2C319.73 152.933 319.657 152.693 319.51 152.48C319.363 152.267 319.097 152.053 318.71 151.84C318.337 151.627 317.797 151.387 317.09 151.12C316.397 150.853 315.803 150.587 315.31 150.32C314.817 150.053 314.437 149.733 314.17 149.36C313.903 148.987 313.77 148.507 313.77 147.92C313.77 147.013 314.137 146.313 314.87 145.82C315.617 145.327 316.59 145.08 317.79 145.08C318.443 145.08 319.05 145.147 319.61 145.28C320.183 145.4 320.717 145.573 321.21 145.8L320.61 147.2C320.157 147.013 319.683 146.853 319.19 146.72C318.697 146.587 318.19 146.52 317.67 146.52C316.95 146.52 316.397 146.64 316.01 146.88C315.637 147.107 315.45 147.42 315.45 147.82C315.45 148.113 315.537 148.367 315.71 148.58C315.883 148.78 316.17 148.98 316.57 149.18C316.983 149.367 317.53 149.593 318.21 149.86C318.89 150.113 319.47 150.373 319.95 150.64C320.43 150.907 320.797 151.233 321.05 151.62C321.303 151.993 321.43 152.467 321.43 153.04ZM328.16 145.08C329.08 145.08 329.867 145.28 330.52 145.68C331.187 146.08 331.694 146.647 332.04 147.38C332.4 148.1 332.58 148.947 332.58 149.92V150.98H325.24C325.267 152.193 325.574 153.12 326.16 153.76C326.76 154.387 327.594 154.7 328.66 154.7C329.34 154.7 329.94 154.64 330.46 154.52C330.994 154.387 331.54 154.2 332.1 153.96V155.5C331.554 155.74 331.014 155.913 330.48 156.02C329.947 156.14 329.314 156.2 328.58 156.2C327.567 156.2 326.667 155.993 325.88 155.58C325.107 155.167 324.5 154.553 324.06 153.74C323.634 152.913 323.42 151.907 323.42 150.72C323.42 149.547 323.614 148.54 324 147.7C324.4 146.86 324.954 146.213 325.66 145.76C326.38 145.307 327.214 145.08 328.16 145.08ZM328.14 146.52C327.3 146.52 326.634 146.793 326.14 147.34C325.66 147.873 325.374 148.62 325.28 149.58H330.74C330.727 148.673 330.514 147.94 330.1 147.38C329.687 146.807 329.034 146.52 328.14 146.52ZM344.565 145.1C345.871 145.1 346.838 145.387 347.465 145.96C348.091 146.533 348.405 147.447 348.405 148.7V156H347.125L346.785 154.48H346.705C346.238 155.067 345.745 155.5 345.225 155.78C344.718 156.06 344.011 156.2 343.105 156.2C342.131 156.2 341.325 155.947 340.685 155.44C340.045 154.92 339.725 154.113 339.725 153.02C339.725 151.953 340.145 151.133 340.985 150.56C341.825 149.973 343.118 149.653 344.865 149.6L346.685 149.54V148.9C346.685 148.007 346.491 147.387 346.105 147.04C345.718 146.693 345.171 146.52 344.465 146.52C343.905 146.52 343.371 146.607 342.865 146.78C342.358 146.94 341.885 147.127 341.445 147.34L340.905 146.02C341.371 145.767 341.925 145.553 342.565 145.38C343.205 145.193 343.871 145.1 344.565 145.1ZM345.085 150.82C343.751 150.873 342.825 151.087 342.305 151.46C341.798 151.833 341.545 152.36 341.545 153.04C341.545 153.64 341.725 154.08 342.085 154.36C342.458 154.64 342.931 154.78 343.505 154.78C344.411 154.78 345.165 154.533 345.765 154.04C346.365 153.533 346.665 152.76 346.665 151.72V150.76L345.085 150.82ZM356.716 145.08C356.916 145.08 357.129 145.093 357.356 145.12C357.596 145.133 357.802 145.16 357.976 145.2L357.756 146.82C357.582 146.78 357.389 146.747 357.176 146.72C356.976 146.693 356.782 146.68 356.596 146.68C356.049 146.68 355.536 146.833 355.056 147.14C354.576 147.433 354.189 147.853 353.896 148.4C353.616 148.933 353.476 149.56 353.476 150.28V156H351.716V145.28H353.156L353.356 147.24H353.436C353.782 146.653 354.229 146.147 354.776 145.72C355.322 145.293 355.969 145.08 356.716 145.08ZM363.727 145.08C364.647 145.08 365.433 145.28 366.087 145.68C366.753 146.08 367.26 146.647 367.607 147.38C367.967 148.1 368.147 148.947 368.147 149.92V150.98H360.807C360.833 152.193 361.14 153.12 361.727 153.76C362.327 154.387 363.16 154.7 364.227 154.7C364.907 154.7 365.507 154.64 366.027 154.52C366.56 154.387 367.107 154.2 367.667 153.96V155.5C367.12 155.74 366.58 155.913 366.047 156.02C365.513 156.14 364.88 156.2 364.147 156.2C363.133 156.2 362.233 155.993 361.447 155.58C360.673 155.167 360.067 154.553 359.627 153.74C359.2 152.913 358.987 151.907 358.987 150.72C358.987 149.547 359.18 148.54 359.567 147.7C359.967 146.86 360.52 146.213 361.227 145.76C361.947 145.307 362.78 145.08 363.727 145.08ZM363.707 146.52C362.867 146.52 362.2 146.793 361.707 147.34C361.227 147.873 360.94 148.62 360.847 149.58H366.307C366.293 148.673 366.08 147.94 365.667 147.38C365.253 146.807 364.6 146.52 363.707 146.52ZM374.936 145.1C376.242 145.1 377.209 145.387 377.836 145.96C378.462 146.533 378.776 147.447 378.776 148.7V156H377.496L377.156 154.48H377.076C376.609 155.067 376.116 155.5 375.596 155.78C375.089 156.06 374.382 156.2 373.476 156.2C372.502 156.2 371.696 155.947 371.056 155.44C370.416 154.92 370.096 154.113 370.096 153.02C370.096 151.953 370.516 151.133 371.356 150.56C372.196 149.973 373.489 149.653 375.236 149.6L377.056 149.54V148.9C377.056 148.007 376.862 147.387 376.476 147.04C376.089 146.693 375.542 146.52 374.836 146.52C374.276 146.52 373.742 146.607 373.236 146.78C372.729 146.94 372.256 147.127 371.816 147.34L371.276 146.02C371.742 145.767 372.296 145.553 372.936 145.38C373.576 145.193 374.242 145.1 374.936 145.1ZM375.456 150.82C374.122 150.873 373.196 151.087 372.676 151.46C372.169 151.833 371.916 152.36 371.916 153.04C371.916 153.64 372.096 154.08 372.456 154.36C372.829 154.64 373.302 154.78 373.876 154.78C374.782 154.78 375.536 154.533 376.136 154.04C376.736 153.533 377.036 152.76 377.036 151.72V150.76L375.456 150.82Z" fill="#43474E"/>
<defs>
<clipPath id="clip0_59605_6320">
<rect width="48" height="24" fill="white" transform="translate(336 21.5)"/>
</clipPath>
<clipPath id="clip1_59605_6320">
<rect x="360" y="21.5" width="24" height="24" rx="12" fill="white"/>
</clipPath>
<clipPath id="clip2_59605_6320">
<rect width="48" height="24" fill="white" transform="translate(20 48)"/>
</clipPath>
<clipPath id="clip3_59605_6320">
<rect x="20" y="48" width="24" height="24" rx="12" fill="white"/>
</clipPath>
<clipPath id="clip4_59605_6320">
<rect width="48" height="24" fill="white" transform="translate(20 84)"/>
</clipPath>
<clipPath id="clip5_59605_6320">
<rect x="20" y="84" width="24" height="24" rx="12" fill="white"/>
</clipPath>
<clipPath id="clip6_59605_6320">
<rect width="48" height="24" fill="white" transform="translate(20 132)"/>
</clipPath>
<clipPath id="clip7_59605_6320">
<rect x="20" y="132" width="24" height="24" rx="12" fill="white"/>
</clipPath>
<clipPath id="clip8_59605_6320">
<rect width="320" height="24" fill="white" transform="translate(72 20)"/>
</clipPath>
</defs>
</svg>
