<svg width="325" height="135" viewBox="0 0 325 135" fill="none" xmlns="http://www.w3.org/2000/svg">
<g clip-path="url(#clip0_29975_344)">
<path d="M55.24 65.4423C55.1667 65.5623 55.09 65.6523 55.01 65.7123C54.93 65.7657 54.83 65.7923 54.71 65.7923C54.5833 65.7923 54.44 65.739 54.28 65.6323C54.1267 65.5257 53.9333 65.409 53.7 65.2823C53.4733 65.149 53.2033 65.029 52.89 64.9223C52.5767 64.809 52.2033 64.7523 51.77 64.7523C51.37 64.7523 51.0167 64.8023 50.71 64.9023C50.41 65.0023 50.1567 65.1423 49.95 65.3223C49.7433 65.5023 49.5867 65.7157 49.48 65.9623C49.38 66.2023 49.33 66.4657 49.33 66.7523C49.33 67.119 49.4267 67.4257 49.62 67.6723C49.8133 67.9123 50.0667 68.119 50.38 68.2923C50.7 68.4657 51.0633 68.619 51.47 68.7523C51.8767 68.879 52.29 69.0157 52.71 69.1623C53.1367 69.309 53.5533 69.4757 53.96 69.6623C54.3667 69.849 54.7267 70.0857 55.04 70.3723C55.36 70.659 55.6167 71.009 55.81 71.4223C56.0033 71.8357 56.1 72.339 56.1 72.9323C56.1 73.5723 55.99 74.1723 55.77 74.7323C55.55 75.2923 55.23 75.7823 54.81 76.2023C54.3967 76.6157 53.8833 76.9423 53.27 77.1823C52.6633 77.4223 51.97 77.5423 51.19 77.5423C50.73 77.5423 50.28 77.4957 49.84 77.4023C49.4067 77.3157 48.99 77.1923 48.59 77.0323C48.1967 76.8657 47.8267 76.6657 47.48 76.4323C47.1333 76.199 46.8233 75.939 46.55 75.6523L47.23 74.5323C47.29 74.439 47.3667 74.3657 47.46 74.3123C47.5533 74.259 47.6567 74.2323 47.77 74.2323C47.9233 74.2323 48.0933 74.3057 48.28 74.4523C48.4667 74.5923 48.69 74.749 48.95 74.9223C49.2167 75.089 49.5367 75.2457 49.91 75.3923C50.2833 75.5323 50.73 75.6023 51.25 75.6023C52.0967 75.6023 52.75 75.3957 53.21 74.9823C53.6767 74.569 53.91 73.999 53.91 73.2723C53.91 72.8657 53.8133 72.5357 53.62 72.2823C53.4267 72.0223 53.17 71.8057 52.85 71.6323C52.5367 71.459 52.1767 71.3123 51.77 71.1923C51.3633 71.0723 50.95 70.9457 50.53 70.8123C50.11 70.6723 49.6967 70.5123 49.29 70.3323C48.8833 70.1457 48.52 69.9057 48.2 69.6123C47.8867 69.3123 47.6333 68.9457 47.44 68.5123C47.2467 68.0723 47.15 67.5257 47.15 66.8723C47.15 66.3523 47.25 65.849 47.45 65.3623C47.6567 64.8757 47.9533 64.4457 48.34 64.0723C48.7333 63.6923 49.2167 63.389 49.79 63.1623C50.3633 62.9357 51.0167 62.8223 51.75 62.8223C52.5767 62.8223 53.3333 62.9523 54.02 63.2123C54.7133 63.4723 55.31 63.8423 55.81 64.3223L55.24 65.4423ZM61.0488 77.5423C60.2021 77.5423 59.5488 77.3057 59.0888 76.8323C58.6354 76.3523 58.4088 75.679 58.4088 74.8123V68.8723H57.2888C57.1688 68.8723 57.0654 68.8357 56.9788 68.7623C56.8921 68.6823 56.8488 68.5657 56.8488 68.4123V67.5423L58.4988 67.3023L58.9688 64.3523C59.0021 64.239 59.0588 64.149 59.1388 64.0823C59.2188 64.009 59.3254 63.9723 59.4588 63.9723H60.5588V67.3223H63.3888V68.8723H60.5588V74.6623C60.5588 75.029 60.6488 75.309 60.8288 75.5023C61.0088 75.6957 61.2488 75.7923 61.5488 75.7923C61.7154 75.7923 61.8588 75.7723 61.9787 75.7323C62.0988 75.6857 62.2021 75.639 62.2888 75.5923C62.3754 75.539 62.4488 75.4923 62.5088 75.4523C62.5754 75.4057 62.6388 75.3823 62.6988 75.3823C62.8188 75.3823 62.9154 75.449 62.9888 75.5823L63.6288 76.6323C63.2954 76.9257 62.9021 77.1523 62.4488 77.3123C61.9954 77.4657 61.5288 77.5423 61.0488 77.5423ZM71.6953 71.1323C71.6953 70.7723 71.642 70.439 71.5353 70.1323C71.4353 69.819 71.2853 69.549 71.0853 69.3223C70.8853 69.089 70.6353 68.909 70.3353 68.7823C70.042 68.649 69.702 68.5823 69.3153 68.5823C68.5353 68.5823 67.922 68.8057 67.4753 69.2523C67.0286 69.699 66.7453 70.3257 66.6253 71.1323H71.6953ZM66.5653 72.4523C66.592 73.0323 66.682 73.5357 66.8353 73.9623C66.9886 74.3823 67.192 74.7323 67.4453 75.0123C67.7053 75.2923 68.012 75.5023 68.3653 75.6423C68.7253 75.7757 69.1253 75.8423 69.5653 75.8423C69.9853 75.8423 70.3486 75.7957 70.6553 75.7023C70.962 75.6023 71.2286 75.4957 71.4553 75.3823C71.682 75.2623 71.8753 75.1557 72.0353 75.0623C72.1953 74.9623 72.342 74.9123 72.4753 74.9123C72.6486 74.9123 72.782 74.979 72.8753 75.1123L73.4853 75.9023C73.232 76.2023 72.9453 76.4557 72.6253 76.6623C72.3053 76.869 71.9653 77.039 71.6053 77.1723C71.2453 77.299 70.8753 77.389 70.4953 77.4423C70.1153 77.5023 69.7453 77.5323 69.3853 77.5323C68.6786 77.5323 68.022 77.4157 67.4153 77.1823C66.8153 76.9423 66.292 76.5923 65.8453 76.1323C65.4053 75.6723 65.0586 75.1023 64.8053 74.4223C64.5586 73.7423 64.4353 72.959 64.4353 72.0723C64.4353 71.3657 64.5453 70.7057 64.7653 70.0923C64.992 69.479 65.312 68.9457 65.7253 68.4923C66.1453 68.039 66.652 67.6823 67.2453 67.4223C67.8453 67.1557 68.522 67.0223 69.2753 67.0223C69.902 67.0223 70.482 67.1257 71.0153 67.3323C71.5486 67.5323 72.0086 67.829 72.3953 68.2223C72.782 68.6157 73.082 69.099 73.2953 69.6723C73.5153 70.239 73.6253 70.8857 73.6253 71.6123C73.6253 71.9457 73.5886 72.169 73.5153 72.2823C73.442 72.3957 73.3086 72.4523 73.1153 72.4523H66.5653ZM77.7803 74.8223C78.0803 75.209 78.407 75.4823 78.7603 75.6423C79.1203 75.7957 79.517 75.8723 79.9503 75.8723C80.7903 75.8723 81.4436 75.5657 81.9103 74.9523C82.3836 74.339 82.6203 73.4257 82.6203 72.2123C82.6203 71.5857 82.567 71.0523 82.4603 70.6123C82.3536 70.1657 82.2003 69.8023 82.0003 69.5223C81.8003 69.2423 81.557 69.039 81.2703 68.9123C80.9836 68.7857 80.6603 68.7223 80.3003 68.7223C79.7536 68.7223 79.2803 68.8423 78.8803 69.0823C78.487 69.3157 78.1203 69.6523 77.7803 70.0923V74.8223ZM77.6703 68.6623C78.097 68.1623 78.5803 67.759 79.1203 67.4523C79.667 67.1457 80.3003 66.9923 81.0203 66.9923C81.5936 66.9923 82.1136 67.109 82.5803 67.3423C83.047 67.569 83.447 67.9023 83.7803 68.3423C84.1136 68.7823 84.3703 69.329 84.5503 69.9823C84.737 70.629 84.8303 71.3723 84.8303 72.2123C84.8303 72.9657 84.727 73.669 84.5203 74.3223C84.3203 74.969 84.0303 75.5323 83.6503 76.0123C83.2703 76.4857 82.8103 76.859 82.2703 77.1323C81.7303 77.399 81.1203 77.5323 80.4403 77.5323C79.8403 77.5323 79.3303 77.4357 78.9103 77.2423C78.497 77.049 78.1203 76.7823 77.7803 76.4423V80.7723H75.6303V67.1823H76.9303C77.2236 67.1823 77.4103 67.319 77.4903 67.5923L77.6703 68.6623Z" fill="#333333"/>
<path d="M100.77 75.7523V77.3823H92.92V75.7523H95.92V66.7323C95.92 66.4123 95.93 66.0857 95.95 65.7523L93.64 67.7023C93.54 67.7823 93.4367 67.8357 93.33 67.8623C93.23 67.8823 93.1333 67.8823 93.04 67.8623C92.9533 67.8423 92.8733 67.8123 92.8 67.7723C92.7333 67.7257 92.68 67.6757 92.64 67.6223L91.97 66.6823L96.31 62.9523H98.06V75.7523H100.77Z" fill="#333333"/>
<path d="M112.72 67.0223C113.473 67.0223 114.153 67.1457 114.76 67.3923C115.373 67.639 115.893 67.989 116.32 68.4423C116.753 68.8957 117.087 69.4457 117.32 70.0923C117.553 70.739 117.67 71.4657 117.67 72.2723C117.67 73.079 117.553 73.8057 117.32 74.4523C117.087 75.099 116.753 75.6523 116.32 76.1123C115.893 76.5657 115.373 76.9157 114.76 77.1623C114.153 77.409 113.473 77.5323 112.72 77.5323C111.96 77.5323 111.273 77.409 110.66 77.1623C110.053 76.9157 109.533 76.5657 109.1 76.1123C108.667 75.6523 108.333 75.099 108.1 74.4523C107.867 73.8057 107.75 73.079 107.75 72.2723C107.75 71.4657 107.867 70.739 108.1 70.0923C108.333 69.4457 108.667 68.8957 109.1 68.4423C109.533 67.989 110.053 67.639 110.66 67.3923C111.273 67.1457 111.96 67.0223 112.72 67.0223ZM112.72 75.8523C113.64 75.8523 114.323 75.5457 114.77 74.9323C115.223 74.3123 115.45 73.429 115.45 72.2823C115.45 71.1357 115.223 70.2523 114.77 69.6323C114.323 69.0057 113.64 68.6923 112.72 68.6923C111.787 68.6923 111.093 69.0057 110.64 69.6323C110.187 70.2523 109.96 71.1357 109.96 72.2823C109.96 73.429 110.187 74.3123 110.64 74.9323C111.093 75.5457 111.787 75.8523 112.72 75.8523ZM120.191 77.3823V68.8923L119.191 68.7523C119.025 68.719 118.888 68.659 118.781 68.5723C118.681 68.4857 118.631 68.3623 118.631 68.2023V67.3223H120.191V66.4623C120.191 65.8823 120.275 65.3623 120.441 64.9023C120.615 64.4423 120.858 64.0523 121.171 63.7323C121.491 63.4123 121.878 63.169 122.331 63.0023C122.785 62.829 123.295 62.7423 123.861 62.7423C124.095 62.7423 124.315 62.759 124.521 62.7923C124.735 62.8257 124.941 62.8757 125.141 62.9423L125.101 64.0223C125.088 64.2023 124.998 64.309 124.831 64.3423C124.671 64.3757 124.468 64.3923 124.221 64.3923C123.921 64.3923 123.651 64.429 123.411 64.5023C123.171 64.569 122.965 64.6857 122.791 64.8523C122.625 65.019 122.495 65.239 122.401 65.5123C122.315 65.7857 122.271 66.1257 122.271 66.5323V67.3223H125.061V68.8723H122.341V77.3823H120.191Z" fill="#333333"/>
<path d="M137.71 72.0623V66.8023C137.71 66.3823 137.74 65.9223 137.8 65.4223L132.96 72.0623H137.71ZM141.57 72.0623V73.3023C141.57 73.4223 141.53 73.5257 141.45 73.6123C141.377 73.699 141.263 73.7423 141.11 73.7423H139.58V77.3823H137.71V73.7423H131.48C131.327 73.7423 131.193 73.699 131.08 73.6123C130.973 73.519 130.903 73.4057 130.87 73.2723L130.65 72.1723L137.56 62.9723H139.58V72.0623H141.57Z" fill="#333333"/>
</g>
<path d="M62.7771 105.064C62.6329 105.316 62.4767 105.503 62.3086 105.623C62.1524 105.731 61.9541 105.785 61.7139 105.785C61.4616 105.785 61.1853 105.695 60.8849 105.515C60.5966 105.322 60.2482 105.112 59.8397 104.884C59.4313 104.656 58.9507 104.451 58.3981 104.271C57.8575 104.079 57.2148 103.983 56.4699 103.983C55.7971 103.983 55.2085 104.067 54.7039 104.235C54.1993 104.391 53.7728 104.614 53.4244 104.902C53.0881 105.19 52.8358 105.539 52.6676 105.947C52.4994 106.344 52.4153 106.782 52.4153 107.263C52.4153 107.875 52.5835 108.386 52.9199 108.794C53.2683 109.203 53.7248 109.551 54.2894 109.84C54.8541 110.128 55.4968 110.386 56.2176 110.614C56.9384 110.843 57.6773 111.089 58.4341 111.353C59.191 111.606 59.9298 111.906 60.6507 112.254C61.3715 112.591 62.0142 113.023 62.5789 113.552C63.1435 114.068 63.594 114.705 63.9304 115.462C64.2788 116.219 64.453 117.138 64.453 118.219C64.453 119.396 64.2488 120.502 63.8403 121.535C63.4438 122.556 62.8552 123.451 62.0743 124.22C61.3054 124.977 60.3623 125.577 59.2451 126.022C58.1278 126.454 56.8483 126.671 55.4067 126.671C54.5778 126.671 53.7608 126.587 52.9559 126.418C52.151 126.262 51.3761 126.034 50.6313 125.734C49.8984 125.433 49.2076 125.073 48.5589 124.652C47.9102 124.232 47.3335 123.763 46.8289 123.247L48.2526 120.922C48.3727 120.754 48.5289 120.616 48.7211 120.508C48.9133 120.388 49.1175 120.327 49.3338 120.327C49.6341 120.327 49.9585 120.454 50.3069 120.706C50.6553 120.946 51.0698 121.216 51.5503 121.517C52.0309 121.817 52.5895 122.093 53.2262 122.346C53.875 122.586 54.6498 122.706 55.5509 122.706C56.9324 122.706 58.0017 122.382 58.7585 121.733C59.5154 121.072 59.8938 120.129 59.8938 118.904C59.8938 118.219 59.7196 117.66 59.3712 117.228C59.0348 116.795 58.5843 116.435 58.0197 116.147C57.455 115.846 56.8123 115.594 56.0915 115.39C55.3707 115.186 54.6378 114.963 53.893 114.723C53.1481 114.483 52.4153 114.194 51.6945 113.858C50.9737 113.522 50.3309 113.083 49.7663 112.543C49.2016 112.002 48.7451 111.329 48.3967 110.524C48.0603 109.707 47.8922 108.704 47.8922 107.515C47.8922 106.566 48.0784 105.641 48.4508 104.74C48.8352 103.839 49.3879 103.04 50.1087 102.343C50.8295 101.646 51.7185 101.088 52.7757 100.667C53.8329 100.247 55.0463 100.036 56.4158 100.036C57.9536 100.036 59.3712 100.277 60.6687 100.757C61.9662 101.238 63.0714 101.91 63.9845 102.775L62.7771 105.064ZM73.3323 126.671C71.7225 126.671 70.4851 126.22 69.6201 125.319C68.7671 124.406 68.3406 123.151 68.3406 121.553V111.227H66.4485C66.2082 111.227 66.004 111.149 65.8358 110.993C65.6676 110.837 65.5835 110.602 65.5835 110.29V108.524L68.5569 108.037L69.4939 102.992C69.554 102.751 69.6681 102.565 69.8363 102.433C70.0045 102.301 70.2208 102.235 70.4851 102.235H72.7917V108.055H77.7293V111.227H72.7917V121.246C72.7917 121.823 72.9299 122.274 73.2062 122.598C73.4945 122.922 73.8849 123.085 74.3775 123.085C74.6538 123.085 74.8821 123.055 75.0623 122.994C75.2545 122.922 75.4167 122.85 75.5488 122.778C75.693 122.706 75.8191 122.64 75.9273 122.58C76.0354 122.508 76.1435 122.472 76.2516 122.472C76.3838 122.472 76.4919 122.508 76.576 122.58C76.6601 122.64 76.7502 122.736 76.8463 122.868L78.1798 125.031C77.5311 125.571 76.7862 125.98 75.9453 126.256C75.1043 126.532 74.2333 126.671 73.3323 126.671ZM92.3499 115.011C92.3499 114.435 92.2658 113.894 92.0976 113.39C91.9414 112.873 91.7011 112.422 91.3767 112.038C91.0524 111.654 90.6379 111.353 90.1333 111.137C89.6408 110.909 89.0641 110.795 88.4034 110.795C87.1179 110.795 86.1027 111.161 85.3579 111.894C84.6251 112.627 84.1565 113.666 83.9523 115.011H92.3499ZM83.8622 117.696C83.9343 118.646 84.1025 119.468 84.3668 120.165C84.6311 120.85 84.9795 121.421 85.412 121.877C85.8445 122.322 86.355 122.658 86.9437 122.886C87.5444 123.103 88.2051 123.211 88.926 123.211C89.6468 123.211 90.2655 123.127 90.7821 122.958C91.3107 122.79 91.7672 122.604 92.1516 122.4C92.5481 122.196 92.8905 122.009 93.1788 121.841C93.4791 121.673 93.7675 121.589 94.0438 121.589C94.4162 121.589 94.6925 121.727 94.8727 122.003L96.1522 123.625C95.6596 124.202 95.107 124.688 94.4943 125.085C93.8816 125.469 93.2389 125.782 92.5661 126.022C91.9053 126.25 91.2266 126.412 90.5298 126.508C89.845 126.605 89.1782 126.653 88.5295 126.653C87.244 126.653 86.0487 126.442 84.9434 126.022C83.8382 125.589 82.8771 124.959 82.0601 124.13C81.2432 123.289 80.6005 122.256 80.132 121.03C79.6634 119.793 79.4292 118.363 79.4292 116.741C79.4292 115.48 79.6334 114.297 80.0418 113.191C80.4503 112.074 81.033 111.107 81.7898 110.29C82.5587 109.461 83.4898 108.806 84.583 108.326C85.6883 107.845 86.9317 107.605 88.3133 107.605C89.4786 107.605 90.5538 107.791 91.5389 108.164C92.5241 108.536 93.371 109.083 94.0798 109.803C94.7886 110.512 95.3413 111.389 95.7377 112.434C96.1462 113.468 96.3504 114.651 96.3504 115.984C96.3504 116.657 96.2783 117.114 96.1342 117.354C95.99 117.582 95.7137 117.696 95.3052 117.696H83.8622ZM104.142 121.589C104.646 122.202 105.193 122.634 105.782 122.886C106.382 123.139 107.031 123.265 107.728 123.265C108.401 123.265 109.007 123.139 109.548 122.886C110.089 122.634 110.545 122.25 110.917 121.733C111.302 121.216 111.596 120.568 111.8 119.787C112.005 118.994 112.107 118.063 112.107 116.994C112.107 115.912 112.017 114.999 111.836 114.255C111.668 113.498 111.422 112.885 111.098 112.416C110.773 111.948 110.377 111.606 109.908 111.389C109.452 111.173 108.929 111.065 108.341 111.065C107.415 111.065 106.629 111.263 105.98 111.66C105.331 112.044 104.718 112.591 104.142 113.299V121.589ZM103.907 110.416C104.664 109.563 105.523 108.872 106.484 108.344C107.445 107.815 108.575 107.551 109.872 107.551C110.881 107.551 111.8 107.761 112.629 108.182C113.47 108.602 114.191 109.215 114.792 110.02C115.405 110.813 115.873 111.798 116.197 112.975C116.534 114.14 116.702 115.48 116.702 116.994C116.702 118.375 116.516 119.655 116.143 120.832C115.771 122.009 115.236 123.031 114.54 123.895C113.855 124.76 113.02 125.439 112.035 125.932C111.062 126.412 109.968 126.653 108.755 126.653C107.722 126.653 106.839 126.496 106.106 126.184C105.373 125.86 104.718 125.415 104.142 124.851V132.419H99.6907V107.893H102.412C102.988 107.893 103.367 108.164 103.547 108.704L103.907 110.416ZM147.59 126.382H143.139V111.227H134.561V121.246C134.561 121.823 134.699 122.274 134.976 122.598C135.264 122.922 135.654 123.085 136.147 123.085C136.423 123.085 136.652 123.055 136.832 122.994C137.024 122.922 137.186 122.85 137.318 122.778C137.462 122.706 137.589 122.64 137.697 122.58C137.805 122.508 137.913 122.472 138.021 122.472C138.153 122.472 138.261 122.508 138.345 122.58C138.43 122.64 138.52 122.736 138.616 122.868L139.949 125.031C139.301 125.571 138.556 125.98 137.715 126.256C136.874 126.532 136.003 126.671 135.102 126.671C133.492 126.671 132.255 126.22 131.39 125.319C130.537 124.406 130.11 123.151 130.11 121.553V111.227H128.218C127.978 111.227 127.773 111.149 127.605 110.993C127.437 110.837 127.353 110.602 127.353 110.29V108.524L130.326 108.019L131.263 102.992C131.324 102.751 131.438 102.565 131.606 102.433C131.774 102.301 131.99 102.235 132.255 102.235H134.561V108.055H147.59V126.382ZM148.365 102.433C148.365 102.818 148.287 103.184 148.131 103.532C147.974 103.869 147.764 104.163 147.5 104.415C147.248 104.668 146.941 104.872 146.581 105.028C146.232 105.172 145.86 105.244 145.464 105.244C145.079 105.244 144.719 105.172 144.382 105.028C144.046 104.872 143.752 104.668 143.499 104.415C143.247 104.163 143.043 103.869 142.887 103.532C142.742 103.184 142.67 102.818 142.67 102.433C142.67 102.037 142.742 101.67 142.887 101.334C143.043 100.985 143.247 100.685 143.499 100.433C143.752 100.169 144.046 99.9643 144.382 99.8201C144.719 99.6639 145.079 99.5858 145.464 99.5858C145.86 99.5858 146.232 99.6639 146.581 99.8201C146.941 99.9643 147.248 100.169 147.5 100.433C147.764 100.685 147.974 100.985 148.131 101.334C148.287 101.67 148.365 102.037 148.365 102.433ZM158.296 126.671C156.686 126.671 155.449 126.22 154.584 125.319C153.731 124.406 153.304 123.151 153.304 121.553V111.227H151.412C151.172 111.227 150.968 111.149 150.8 110.993C150.631 110.837 150.547 110.602 150.547 110.29V108.524L153.521 108.037L154.458 102.992C154.518 102.751 154.632 102.565 154.8 102.433C154.968 102.301 155.185 102.235 155.449 102.235H157.756V108.055H162.693V111.227H157.756V121.246C157.756 121.823 157.894 122.274 158.17 122.598C158.458 122.922 158.849 123.085 159.341 123.085C159.618 123.085 159.846 123.055 160.026 122.994C160.218 122.922 160.381 122.85 160.513 122.778C160.657 122.706 160.783 122.64 160.891 122.58C160.999 122.508 161.107 122.472 161.215 122.472C161.348 122.472 161.456 122.508 161.54 122.58C161.624 122.64 161.714 122.736 161.81 122.868L163.144 125.031C162.495 125.571 161.75 125.98 160.909 126.256C160.068 126.532 159.197 126.671 158.296 126.671ZM170.048 99.6039V126.382H165.597V99.6039H170.048ZM186.394 115.011C186.394 114.435 186.31 113.894 186.142 113.39C185.986 112.873 185.746 112.422 185.421 112.038C185.097 111.654 184.682 111.353 184.178 111.137C183.685 110.909 183.109 110.795 182.448 110.795C181.162 110.795 180.147 111.161 179.402 111.894C178.67 112.627 178.201 113.666 177.997 115.011H186.394ZM177.907 117.696C177.979 118.646 178.147 119.468 178.411 120.165C178.676 120.85 179.024 121.421 179.456 121.877C179.889 122.322 180.4 122.658 180.988 122.886C181.589 123.103 182.25 123.211 182.97 123.211C183.691 123.211 184.31 123.127 184.827 122.958C185.355 122.79 185.812 122.604 186.196 122.4C186.593 122.196 186.935 122.009 187.223 121.841C187.524 121.673 187.812 121.589 188.088 121.589C188.461 121.589 188.737 121.727 188.917 122.003L190.197 123.625C189.704 124.202 189.151 124.688 188.539 125.085C187.926 125.469 187.283 125.782 186.611 126.022C185.95 126.25 185.271 126.412 184.574 126.508C183.889 126.605 183.223 126.653 182.574 126.653C181.289 126.653 180.093 126.442 178.988 126.022C177.883 125.589 176.922 124.959 176.105 124.13C175.288 123.289 174.645 122.256 174.176 121.03C173.708 119.793 173.474 118.363 173.474 116.741C173.474 115.48 173.678 114.297 174.086 113.191C174.495 112.074 175.077 111.107 175.834 110.29C176.603 109.461 177.534 108.806 178.628 108.326C179.733 107.845 180.976 107.605 182.358 107.605C183.523 107.605 184.598 107.791 185.583 108.164C186.569 108.536 187.416 109.083 188.124 109.803C188.833 110.512 189.386 111.389 189.782 112.434C190.191 113.468 190.395 114.651 190.395 115.984C190.395 116.657 190.323 117.114 190.179 117.354C190.034 117.582 189.758 117.696 189.35 117.696H177.907Z" fill="#333333"/>
<g clip-path="url(#clip1_29975_344)">
<rect y="113.882" width="42" height="1" fill="#C54600"/>
<g clip-path="url(#clip2_29975_344)">
<rect y="101.882" width="24" height="24" rx="12" fill="#C54600"/>
<path d="M11.9745 119.022C11.2321 119.022 10.5709 118.894 9.99086 118.639C9.41415 118.38 8.95842 118.026 8.62367 117.575C8.29223 117.121 8.12154 116.597 8.11159 116.004H10.2792C10.2925 116.252 10.3737 116.471 10.5228 116.66C10.6753 116.846 10.8775 116.99 11.1294 117.093C11.3812 117.195 11.6646 117.247 11.9795 117.247C12.3076 117.247 12.5976 117.189 12.8495 117.073C13.1014 116.957 13.2986 116.796 13.4411 116.59C13.5837 116.385 13.6549 116.148 13.6549 115.879C13.6549 115.608 13.5787 115.367 13.4262 115.159C13.2771 114.946 13.0616 114.781 12.7799 114.661C12.5015 114.542 12.1701 114.482 11.7856 114.482H10.836V112.902H11.7856C12.1104 112.902 12.3971 112.845 12.6457 112.732C12.8976 112.62 13.0931 112.464 13.2323 112.265C13.3715 112.063 13.4411 111.828 13.4411 111.559C13.4411 111.304 13.3798 111.08 13.2572 110.888C13.1379 110.692 12.9688 110.54 12.7501 110.431C12.5347 110.321 12.2828 110.267 11.9944 110.267C11.7027 110.267 11.4359 110.32 11.194 110.426C10.952 110.528 10.7581 110.676 10.6123 110.868C10.4665 111.06 10.3886 111.286 10.3786 111.544H8.31543C8.32537 110.958 8.49275 110.441 8.81756 109.993C9.14237 109.546 9.57987 109.196 10.1301 108.944C10.6836 108.689 11.3083 108.561 12.0044 108.561C12.707 108.561 13.3218 108.689 13.8488 108.944C14.3758 109.199 14.7851 109.544 15.0768 109.978C15.3718 110.409 15.5176 110.893 15.5143 111.43C15.5176 112 15.3403 112.476 14.9823 112.857C14.6277 113.238 14.1653 113.48 13.5953 113.583V113.662C14.3443 113.758 14.9144 114.018 15.3055 114.443C15.6999 114.864 15.8954 115.391 15.8921 116.024C15.8954 116.604 15.7281 117.119 15.39 117.57C15.0553 118.021 14.5929 118.375 14.0029 118.634C13.413 118.892 12.7368 119.022 11.9745 119.022Z" fill="white"/>
</g>
</g>
<g clip-path="url(#clip3_29975_344)">
<rect x="136" y="0.882324" width="1" height="53" fill="#C54600"/>
<g clip-path="url(#clip4_29975_344)">
<rect x="124" y="0.882324" width="24" height="24" rx="12" fill="#C54600"/>
<path d="M132.416 17.8823V16.3312L136.04 12.9754C136.349 12.6771 136.607 12.4086 136.816 12.17C137.028 11.9313 137.189 11.6977 137.298 11.469C137.408 11.237 137.462 10.9867 137.462 10.7183C137.462 10.42 137.394 10.1631 137.258 9.94766C137.123 9.72891 136.937 9.56154 136.702 9.44553C136.466 9.32622 136.199 9.26656 135.901 9.26656C135.59 9.26656 135.318 9.32953 135.086 9.45548C134.854 9.58142 134.675 9.76206 134.549 9.99738C134.423 10.2327 134.36 10.5128 134.36 10.8376H132.317C132.317 10.1714 132.467 9.59302 132.769 9.10249C133.071 8.61196 133.493 8.23247 134.037 7.964C134.58 7.69553 135.207 7.5613 135.916 7.5613C136.645 7.5613 137.28 7.69056 137.82 7.94909C138.364 8.20429 138.786 8.55893 139.088 9.01301C139.39 9.46708 139.54 9.98744 139.54 10.5741C139.54 10.9586 139.464 11.3381 139.312 11.7126C139.163 12.0871 138.896 12.5031 138.511 12.9604C138.127 13.4145 137.585 13.9597 136.886 14.5961L135.399 16.0528V16.1224H139.675V17.8823H132.416Z" fill="white"/>
</g>
</g>
<g clip-path="url(#clip5_29975_344)">
<rect x="95" y="0.882324" width="1" height="53" fill="#C54600"/>
<g clip-path="url(#clip6_29975_344)">
<rect x="83" y="0.882324" width="24" height="24" rx="12" fill="#C54600"/>
<path d="M96.8302 7.70051V17.8823H94.6775V9.74383H94.6178L92.2861 11.2055V9.29639L94.8067 7.70051H96.8302Z" fill="white"/>
</g>
</g>
<defs>
<clipPath id="clip0_29975_344">
<rect width="96.5" height="24" fill="white" transform="translate(46 57.3823)"/>
</clipPath>
<clipPath id="clip1_29975_344">
<rect width="42" height="24" fill="white" transform="translate(0 101.882)"/>
</clipPath>
<clipPath id="clip2_29975_344">
<rect y="101.882" width="24" height="24" rx="12" fill="white"/>
</clipPath>
<clipPath id="clip3_29975_344">
<rect width="24" height="53" fill="white" transform="translate(124 0.882324)"/>
</clipPath>
<clipPath id="clip4_29975_344">
<rect x="124" y="0.882324" width="24" height="24" rx="12" fill="white"/>
</clipPath>
<clipPath id="clip5_29975_344">
<rect width="24" height="53" fill="white" transform="translate(83 0.882324)"/>
</clipPath>
<clipPath id="clip6_29975_344">
<rect x="83" y="0.882324" width="24" height="24" rx="12" fill="white"/>
</clipPath>
</defs>
</svg>
