<svg width="568" height="204" viewBox="0 0 568 204" fill="none" xmlns="http://www.w3.org/2000/svg">
<rect x="68.5" y="20.5" width="479" height="111" fill="white"/>
<rect x="68.5" y="20.5" width="479" height="111" stroke="#7D828B"/>
<path d="M116.06 71.1C114.527 71.1 113.32 71.6133 112.44 72.64C111.56 73.6667 111.12 75.0733 111.12 76.86C111.12 78.6333 111.527 80.04 112.34 81.08C113.167 82.1067 114.4 82.62 116.04 82.62C116.667 82.62 117.26 82.5667 117.82 82.46C118.38 82.3533 118.927 82.22 119.46 82.06V83.62C118.927 83.82 118.373 83.9667 117.8 84.06C117.24 84.1533 116.567 84.2 115.78 84.2C114.327 84.2 113.113 83.9 112.14 83.3C111.167 82.7 110.433 81.8467 109.94 80.74C109.46 79.6333 109.22 78.3333 109.22 76.84C109.22 75.4 109.48 74.1333 110 73.04C110.533 71.9333 111.313 71.0733 112.34 70.46C113.367 69.8333 114.613 69.52 116.08 69.52C117.587 69.52 118.9 69.8 120.02 70.36L119.3 71.88C118.86 71.68 118.367 71.5 117.82 71.34C117.287 71.18 116.7 71.1 116.06 71.1ZM131.657 78.62C131.657 80.3933 131.203 81.7667 130.297 82.74C129.403 83.7133 128.19 84.2 126.657 84.2C125.71 84.2 124.863 83.9867 124.117 83.56C123.383 83.12 122.803 82.4867 122.377 81.66C121.95 80.82 121.737 79.8067 121.737 78.62C121.737 76.8467 122.183 75.48 123.077 74.52C123.97 73.56 125.183 73.08 126.717 73.08C127.69 73.08 128.543 73.3 129.277 73.74C130.023 74.1667 130.603 74.7933 131.017 75.62C131.443 76.4333 131.657 77.4333 131.657 78.62ZM123.557 78.62C123.557 79.8867 123.803 80.8933 124.297 81.64C124.803 82.3733 125.603 82.74 126.697 82.74C127.777 82.74 128.57 82.3733 129.077 81.64C129.583 80.8933 129.837 79.8867 129.837 78.62C129.837 77.3533 129.583 76.36 129.077 75.64C128.57 74.92 127.77 74.56 126.677 74.56C125.583 74.56 124.79 74.92 124.297 75.64C123.803 76.36 123.557 77.3533 123.557 78.62ZM139.606 73.08C140.886 73.08 141.853 73.3933 142.506 74.02C143.159 74.6333 143.486 75.6333 143.486 77.02V84H141.746V77.14C141.746 75.42 140.946 74.56 139.346 74.56C138.159 74.56 137.339 74.8933 136.886 75.56C136.433 76.2267 136.206 77.1867 136.206 78.44V84H134.446V73.28H135.866L136.126 74.74H136.226C136.573 74.18 137.053 73.7667 137.666 73.5C138.279 73.22 138.926 73.08 139.606 73.08ZM150.389 82.76C150.656 82.76 150.929 82.74 151.209 82.7C151.489 82.6467 151.716 82.5933 151.889 82.54V83.88C151.703 83.9733 151.436 84.0467 151.089 84.1C150.743 84.1667 150.409 84.2 150.089 84.2C149.529 84.2 149.009 84.1067 148.529 83.92C148.063 83.72 147.683 83.38 147.389 82.9C147.096 82.42 146.949 81.7467 146.949 80.88V74.64H145.429V73.8L146.969 73.1L147.669 70.82H148.709V73.28H151.809V74.64H148.709V80.84C148.709 81.4933 148.863 81.98 149.169 82.3C149.489 82.6067 149.896 82.76 150.389 82.76ZM158.096 73.1C159.403 73.1 160.369 73.3867 160.996 73.96C161.623 74.5333 161.936 75.4467 161.936 76.7V84H160.656L160.316 82.48H160.236C159.769 83.0667 159.276 83.5 158.756 83.78C158.249 84.06 157.543 84.2 156.636 84.2C155.663 84.2 154.856 83.9467 154.216 83.44C153.576 82.92 153.256 82.1133 153.256 81.02C153.256 79.9533 153.676 79.1333 154.516 78.56C155.356 77.9733 156.649 77.6533 158.396 77.6L160.216 77.54V76.9C160.216 76.0067 160.023 75.3867 159.636 75.04C159.249 74.6933 158.703 74.52 157.996 74.52C157.436 74.52 156.903 74.6067 156.396 74.78C155.889 74.94 155.416 75.1267 154.976 75.34L154.436 74.02C154.903 73.7667 155.456 73.5533 156.096 73.38C156.736 73.1933 157.403 73.1 158.096 73.1ZM158.616 78.82C157.283 78.8733 156.356 79.0867 155.836 79.46C155.329 79.8333 155.076 80.36 155.076 81.04C155.076 81.64 155.256 82.08 155.616 82.36C155.989 82.64 156.463 82.78 157.036 82.78C157.943 82.78 158.696 82.5333 159.296 82.04C159.896 81.5333 160.196 80.76 160.196 79.72V78.76L158.616 78.82ZM166.147 69.26C166.414 69.26 166.647 69.3533 166.847 69.54C167.06 69.7133 167.167 69.9933 167.167 70.38C167.167 70.7533 167.06 71.0333 166.847 71.22C166.647 71.4067 166.414 71.5 166.147 71.5C165.854 71.5 165.607 71.4067 165.407 71.22C165.207 71.0333 165.107 70.7533 165.107 70.38C165.107 69.9933 165.207 69.7133 165.407 69.54C165.607 69.3533 165.854 69.26 166.147 69.26ZM167.007 73.28V84H165.247V73.28H167.007ZM175.563 73.08C176.843 73.08 177.81 73.3933 178.463 74.02C179.116 74.6333 179.443 75.6333 179.443 77.02V84H177.703V77.14C177.703 75.42 176.903 74.56 175.303 74.56C174.116 74.56 173.296 74.8933 172.843 75.56C172.39 76.2267 172.163 77.1867 172.163 78.44V84H170.403V73.28H171.823L172.083 74.74H172.183C172.53 74.18 173.01 73.7667 173.623 73.5C174.236 73.22 174.883 73.08 175.563 73.08ZM186.906 73.08C187.826 73.08 188.613 73.28 189.266 73.68C189.933 74.08 190.44 74.6467 190.786 75.38C191.146 76.1 191.326 76.9467 191.326 77.92V78.98H183.986C184.013 80.1933 184.32 81.12 184.906 81.76C185.506 82.3867 186.34 82.7 187.406 82.7C188.086 82.7 188.686 82.64 189.206 82.52C189.74 82.3867 190.286 82.2 190.846 81.96V83.5C190.3 83.74 189.76 83.9133 189.226 84.02C188.693 84.14 188.06 84.2 187.326 84.2C186.313 84.2 185.413 83.9933 184.626 83.58C183.853 83.1667 183.246 82.5533 182.806 81.74C182.38 80.9133 182.166 79.9067 182.166 78.72C182.166 77.5467 182.36 76.54 182.746 75.7C183.146 74.86 183.7 74.2133 184.406 73.76C185.126 73.3067 185.96 73.08 186.906 73.08ZM186.886 74.52C186.046 74.52 185.38 74.7933 184.886 75.34C184.406 75.8733 184.12 76.62 184.026 77.58H189.486C189.473 76.6733 189.26 75.94 188.846 75.38C188.433 74.8067 187.78 74.52 186.886 74.52ZM199.055 73.08C199.255 73.08 199.469 73.0933 199.695 73.12C199.935 73.1333 200.142 73.16 200.315 73.2L200.095 74.82C199.922 74.78 199.729 74.7467 199.515 74.72C199.315 74.6933 199.122 74.68 198.935 74.68C198.389 74.68 197.875 74.8333 197.395 75.14C196.915 75.4333 196.529 75.8533 196.235 76.4C195.955 76.9333 195.815 77.56 195.815 78.28V84H194.055V73.28H195.495L195.695 75.24H195.775C196.122 74.6533 196.569 74.1467 197.115 73.72C197.662 73.2933 198.309 73.08 199.055 73.08Z" fill="white"/>
<g clip-path="url(#clip0_59462_1957)">
<rect x="20" y="76" width="48" height="1" fill="#C54600"/>
<g clip-path="url(#clip1_59462_1957)">
<rect x="20" y="64" width="24" height="24" rx="12" fill="#C54600"/>
<path d="M33.1825 71.2727V80H32.1257V72.3807H32.0746L29.9439 73.7955V72.7216L32.1257 71.2727H33.1825Z" fill="white"/>
</g>
</g>
<g clip-path="url(#clip2_59462_1957)">
<rect x="163" y="136" width="1" height="47.8" fill="#C54600"/>
<g clip-path="url(#clip3_59462_1957)">
<rect x="151" y="159.8" width="24" height="24" rx="12" fill="#C54600"/>
<path d="M160.271 175.8V175.033L163.151 171.88C163.489 171.51 163.768 171.189 163.987 170.916C164.205 170.641 164.367 170.382 164.472 170.141C164.58 169.897 164.634 169.641 164.634 169.374C164.634 169.067 164.56 168.801 164.413 168.577C164.268 168.353 164.069 168.179 163.816 168.057C163.563 167.935 163.279 167.874 162.964 167.874C162.629 167.874 162.336 167.943 162.086 168.083C161.839 168.219 161.647 168.411 161.511 168.658C161.377 168.905 161.31 169.195 161.31 169.527H160.305C160.305 169.016 160.423 168.567 160.658 168.181C160.894 167.794 161.215 167.493 161.621 167.277C162.031 167.061 162.489 166.953 162.998 166.953C163.509 166.953 163.962 167.061 164.357 167.277C164.752 167.493 165.062 167.784 165.286 168.151C165.511 168.517 165.623 168.925 165.623 169.374C165.623 169.695 165.565 170.009 165.448 170.316C165.335 170.62 165.136 170.959 164.852 171.334C164.57 171.706 164.18 172.161 163.68 172.698L161.719 174.794V174.862H165.776V175.8H160.271Z" fill="white"/>
</g>
</g>
<defs>
<clipPath id="clip0_59462_1957">
<rect width="48" height="24" fill="white" transform="translate(20 64)"/>
</clipPath>
<clipPath id="clip1_59462_1957">
<rect x="20" y="64" width="24" height="24" rx="12" fill="white"/>
</clipPath>
<clipPath id="clip2_59462_1957">
<rect width="24" height="48" fill="white" transform="translate(151 136)"/>
</clipPath>
<clipPath id="clip3_59462_1957">
<rect x="151" y="159.8" width="24" height="24" rx="12" fill="white"/>
</clipPath>
</defs>
</svg>
