<svg width="623" height="48" viewBox="0 0 623 48" fill="none" xmlns="http://www.w3.org/2000/svg">
<mask id="path-1-inside-1_8891_45400" fill="white">
<path d="M237 0.799805H623V47.7998H237V0.799805Z"/>
</mask>
<path d="M237 0.799805H623V47.7998H237V0.799805Z" fill="#FBDDDA"/>
<path d="M257.318 31.7998H249.338V17.5198H257.318V19.0998H251.138V23.5598H256.958V25.1198H251.138V30.2198H257.318V31.7998ZM265.212 20.8798C265.412 20.8798 265.625 20.8931 265.852 20.9198C266.092 20.9331 266.298 20.9598 266.472 20.9998L266.252 22.6198C266.078 22.5798 265.885 22.5465 265.672 22.5198C265.472 22.4931 265.278 22.4798 265.092 22.4798C264.545 22.4798 264.032 22.6331 263.552 22.9398C263.072 23.2331 262.685 23.6531 262.392 24.1998C262.112 24.7331 261.972 25.3598 261.972 26.0798V31.7998H260.212V21.0798H261.652L261.852 23.0398H261.932C262.278 22.4531 262.725 21.9465 263.272 21.5198C263.818 21.0931 264.465 20.8798 265.212 20.8798ZM273.473 20.8798C273.673 20.8798 273.887 20.8931 274.113 20.9198C274.353 20.9331 274.56 20.9598 274.733 20.9998L274.513 22.6198C274.34 22.5798 274.147 22.5465 273.933 22.5198C273.733 22.4931 273.54 22.4798 273.353 22.4798C272.807 22.4798 272.293 22.6331 271.813 22.9398C271.333 23.2331 270.947 23.6531 270.653 24.1998C270.373 24.7331 270.233 25.3598 270.233 26.0798V31.7998H268.473V21.0798H269.913L270.113 23.0398H270.193C270.54 22.4531 270.987 21.9465 271.533 21.5198C272.08 21.0931 272.727 20.8798 273.473 20.8798ZM285.665 26.4198C285.665 28.1931 285.211 29.5665 284.305 30.5398C283.411 31.5131 282.198 31.9998 280.665 31.9998C279.718 31.9998 278.871 31.7865 278.125 31.3598C277.391 30.9198 276.811 30.2865 276.385 29.4598C275.958 28.6198 275.745 27.6065 275.745 26.4198C275.745 24.6465 276.191 23.2798 277.085 22.3198C277.978 21.3598 279.191 20.8798 280.725 20.8798C281.698 20.8798 282.551 21.0998 283.285 21.5398C284.031 21.9665 284.611 22.5931 285.025 23.4198C285.451 24.2331 285.665 25.2331 285.665 26.4198ZM277.565 26.4198C277.565 27.6865 277.811 28.6931 278.305 29.4398C278.811 30.1731 279.611 30.5398 280.705 30.5398C281.785 30.5398 282.578 30.1731 283.085 29.4398C283.591 28.6931 283.845 27.6865 283.845 26.4198C283.845 25.1531 283.591 24.1598 283.085 23.4398C282.578 22.7198 281.778 22.3598 280.685 22.3598C279.591 22.3598 278.798 22.7198 278.305 23.4398C277.811 24.1598 277.565 25.1531 277.565 26.4198ZM293.454 20.8798C293.654 20.8798 293.867 20.8931 294.094 20.9198C294.334 20.9331 294.541 20.9598 294.714 20.9998L294.494 22.6198C294.321 22.5798 294.127 22.5465 293.914 22.5198C293.714 22.4931 293.521 22.4798 293.334 22.4798C292.787 22.4798 292.274 22.6331 291.794 22.9398C291.314 23.2331 290.927 23.6531 290.634 24.1998C290.354 24.7331 290.214 25.3598 290.214 26.0798V31.7998H288.454V21.0798H289.894L290.094 23.0398H290.174C290.521 22.4531 290.967 21.9465 291.514 21.5198C292.061 21.0931 292.707 20.8798 293.454 20.8798ZM313.671 20.8798C314.884 20.8798 315.791 21.1931 316.391 21.8198C316.991 22.4331 317.291 23.4331 317.291 24.8198V31.7998H315.551V24.8998C315.551 23.2065 314.824 22.3598 313.371 22.3598C312.331 22.3598 311.584 22.6598 311.131 23.2598C310.691 23.8598 310.471 24.7331 310.471 25.8798V31.7998H308.731V24.8998C308.731 23.2065 307.998 22.3598 306.531 22.3598C305.451 22.3598 304.704 22.6931 304.291 23.3598C303.878 24.0265 303.671 24.9865 303.671 26.2398V31.7998H301.911V21.0798H303.331L303.591 22.5398H303.691C304.024 21.9798 304.471 21.5665 305.031 21.2998C305.604 21.0198 306.211 20.8798 306.851 20.8798C308.531 20.8798 309.624 21.4798 310.131 22.6798H310.231C310.591 22.0665 311.078 21.6131 311.691 21.3198C312.318 21.0265 312.978 20.8798 313.671 20.8798ZM324.742 20.8798C325.662 20.8798 326.449 21.0798 327.102 21.4798C327.769 21.8798 328.276 22.4465 328.622 23.1798C328.982 23.8998 329.162 24.7465 329.162 25.7198V26.7798H321.822C321.849 27.9931 322.156 28.9198 322.742 29.5598C323.342 30.1865 324.176 30.4998 325.242 30.4998C325.922 30.4998 326.522 30.4398 327.042 30.3198C327.576 30.1865 328.122 29.9998 328.682 29.7598V31.2998C328.136 31.5398 327.596 31.7131 327.062 31.8198C326.529 31.9398 325.896 31.9998 325.162 31.9998C324.149 31.9998 323.249 31.7931 322.462 31.3798C321.689 30.9665 321.082 30.3531 320.642 29.5398C320.216 28.7131 320.002 27.7065 320.002 26.5198C320.002 25.3465 320.196 24.3398 320.582 23.4998C320.982 22.6598 321.536 22.0131 322.242 21.5598C322.962 21.1065 323.796 20.8798 324.742 20.8798ZM324.722 22.3198C323.882 22.3198 323.216 22.5931 322.722 23.1398C322.242 23.6731 321.956 24.4198 321.862 25.3798H327.322C327.309 24.4731 327.096 23.7398 326.682 23.1798C326.269 22.6065 325.616 22.3198 324.722 22.3198ZM338.871 28.8398C338.871 29.8798 338.485 30.6665 337.711 31.1998C336.938 31.7331 335.898 31.9998 334.591 31.9998C333.845 31.9998 333.198 31.9398 332.651 31.8198C332.118 31.6998 331.645 31.5331 331.231 31.3198V29.7198C331.658 29.9331 332.171 30.1331 332.771 30.3198C333.385 30.4931 334.005 30.5798 334.631 30.5798C335.525 30.5798 336.171 30.4398 336.571 30.1598C336.971 29.8665 337.171 29.4798 337.171 28.9998C337.171 28.7331 337.098 28.4931 336.951 28.2798C336.805 28.0665 336.538 27.8531 336.151 27.6398C335.778 27.4265 335.238 27.1865 334.531 26.9198C333.838 26.6531 333.245 26.3865 332.751 26.1198C332.258 25.8531 331.878 25.5331 331.611 25.1598C331.345 24.7865 331.211 24.3065 331.211 23.7198C331.211 22.8131 331.578 22.1131 332.311 21.6198C333.058 21.1265 334.031 20.8798 335.231 20.8798C335.885 20.8798 336.491 20.9465 337.051 21.0798C337.625 21.1998 338.158 21.3731 338.651 21.5998L338.051 22.9998C337.598 22.8131 337.125 22.6531 336.631 22.5198C336.138 22.3865 335.631 22.3198 335.111 22.3198C334.391 22.3198 333.838 22.4398 333.451 22.6798C333.078 22.9065 332.891 23.2198 332.891 23.6198C332.891 23.9131 332.978 24.1665 333.151 24.3798C333.325 24.5798 333.611 24.7798 334.011 24.9798C334.425 25.1665 334.971 25.3931 335.651 25.6598C336.331 25.9131 336.911 26.1731 337.391 26.4398C337.871 26.7065 338.238 27.0331 338.491 27.4198C338.745 27.7931 338.871 28.2665 338.871 28.8398ZM348.442 28.8398C348.442 29.8798 348.055 30.6665 347.282 31.1998C346.508 31.7331 345.468 31.9998 344.162 31.9998C343.415 31.9998 342.768 31.9398 342.222 31.8198C341.688 31.6998 341.215 31.5331 340.802 31.3198V29.7198C341.228 29.9331 341.742 30.1331 342.342 30.3198C342.955 30.4931 343.575 30.5798 344.202 30.5798C345.095 30.5798 345.742 30.4398 346.142 30.1598C346.542 29.8665 346.742 29.4798 346.742 28.9998C346.742 28.7331 346.668 28.4931 346.522 28.2798C346.375 28.0665 346.108 27.8531 345.722 27.6398C345.348 27.4265 344.808 27.1865 344.102 26.9198C343.408 26.6531 342.815 26.3865 342.322 26.1198C341.828 25.8531 341.448 25.5331 341.182 25.1598C340.915 24.7865 340.782 24.3065 340.782 23.7198C340.782 22.8131 341.148 22.1131 341.882 21.6198C342.628 21.1265 343.602 20.8798 344.802 20.8798C345.455 20.8798 346.062 20.9465 346.622 21.0798C347.195 21.1998 347.728 21.3731 348.222 21.5998L347.622 22.9998C347.168 22.8131 346.695 22.6531 346.202 22.5198C345.708 22.3865 345.202 22.3198 344.682 22.3198C343.962 22.3198 343.408 22.4398 343.022 22.6798C342.648 22.9065 342.462 23.2198 342.462 23.6198C342.462 23.9131 342.548 24.1665 342.722 24.3798C342.895 24.5798 343.182 24.7798 343.582 24.9798C343.995 25.1665 344.542 25.3931 345.222 25.6598C345.902 25.9131 346.482 26.1731 346.962 26.4398C347.442 26.7065 347.808 27.0331 348.062 27.4198C348.315 27.7931 348.442 28.2665 348.442 28.8398ZM355.092 20.8998C356.399 20.8998 357.365 21.1865 357.992 21.7598C358.619 22.3331 358.932 23.2465 358.932 24.4998V31.7998H357.652L357.312 30.2798H357.232C356.765 30.8665 356.272 31.2998 355.752 31.5798C355.245 31.8598 354.539 31.9998 353.632 31.9998C352.659 31.9998 351.852 31.7465 351.212 31.2398C350.572 30.7198 350.252 29.9131 350.252 28.8198C350.252 27.7531 350.672 26.9331 351.512 26.3598C352.352 25.7731 353.645 25.4531 355.392 25.3998L357.212 25.3398V24.6998C357.212 23.8065 357.019 23.1865 356.632 22.8398C356.245 22.4931 355.699 22.3198 354.992 22.3198C354.432 22.3198 353.899 22.4065 353.392 22.5798C352.885 22.7398 352.412 22.9265 351.972 23.1398L351.432 21.8198C351.899 21.5665 352.452 21.3531 353.092 21.1798C353.732 20.9931 354.399 20.8998 355.092 20.8998ZM355.612 26.6198C354.279 26.6731 353.352 26.8865 352.832 27.2598C352.325 27.6331 352.072 28.1598 352.072 28.8398C352.072 29.4398 352.252 29.8798 352.612 30.1598C352.985 30.4398 353.459 30.5798 354.032 30.5798C354.939 30.5798 355.692 30.3331 356.292 29.8398C356.892 29.3331 357.192 28.5598 357.192 27.5198V26.5598L355.612 26.6198ZM366.043 20.8798C366.75 20.8798 367.383 21.0131 367.943 21.2798C368.516 21.5465 369.003 21.9531 369.403 22.4998H369.503L369.743 21.0798H371.143V31.9798C371.143 33.5131 370.75 34.6665 369.963 35.4398C369.19 36.2131 367.983 36.5998 366.343 36.5998C364.77 36.5998 363.483 36.3731 362.483 35.9198V34.2998C363.536 34.8598 364.856 35.1398 366.443 35.1398C367.363 35.1398 368.083 34.8665 368.603 34.3198C369.136 33.7865 369.403 33.0531 369.403 32.1198V31.6998C369.403 31.5398 369.41 31.3131 369.423 31.0198C369.436 30.7131 369.45 30.4998 369.463 30.3798H369.383C368.663 31.4598 367.556 31.9998 366.063 31.9998C364.676 31.9998 363.59 31.5131 362.803 30.5398C362.03 29.5665 361.643 28.2065 361.643 26.4598C361.643 24.7531 362.03 23.3998 362.803 22.3998C363.59 21.3865 364.67 20.8798 366.043 20.8798ZM366.283 22.3598C365.39 22.3598 364.696 22.7198 364.203 23.4398C363.71 24.1465 363.463 25.1598 363.463 26.4798C363.463 27.7998 363.703 28.8131 364.183 29.5198C364.676 30.2131 365.39 30.5598 366.323 30.5598C367.403 30.5598 368.19 30.2731 368.683 29.6998C369.176 29.1131 369.423 28.1731 369.423 26.8798V26.4598C369.423 24.9931 369.17 23.9465 368.663 23.3198C368.156 22.6798 367.363 22.3598 366.283 22.3598ZM378.688 20.8798C379.608 20.8798 380.394 21.0798 381.048 21.4798C381.714 21.8798 382.221 22.4465 382.568 23.1798C382.928 23.8998 383.108 24.7465 383.108 25.7198V26.7798H375.768C375.794 27.9931 376.101 28.9198 376.688 29.5598C377.288 30.1865 378.121 30.4998 379.188 30.4998C379.868 30.4998 380.468 30.4398 380.988 30.3198C381.521 30.1865 382.068 29.9998 382.628 29.7598V31.2998C382.081 31.5398 381.541 31.7131 381.008 31.8198C380.474 31.9398 379.841 31.9998 379.108 31.9998C378.094 31.9998 377.194 31.7931 376.408 31.3798C375.634 30.9665 375.028 30.3531 374.588 29.5398C374.161 28.7131 373.948 27.7065 373.948 26.5198C373.948 25.3465 374.141 24.3398 374.528 23.4998C374.928 22.6598 375.481 22.0131 376.188 21.5598C376.908 21.1065 377.741 20.8798 378.688 20.8798ZM378.668 22.3198C377.828 22.3198 377.161 22.5931 376.668 23.1398C376.188 23.6731 375.901 24.4198 375.808 25.3798H381.268C381.254 24.4731 381.041 23.7398 380.628 23.1798C380.214 22.6065 379.561 22.3198 378.668 22.3198ZM385.577 30.7198C385.577 30.2265 385.697 29.8798 385.937 29.6798C386.177 29.4798 386.463 29.3798 386.797 29.3798C387.143 29.3798 387.437 29.4798 387.677 29.6798C387.93 29.8798 388.057 30.2265 388.057 30.7198C388.057 31.1998 387.93 31.5465 387.677 31.7598C387.437 31.9731 387.143 32.0798 386.797 32.0798C386.463 32.0798 386.177 31.9731 385.937 31.7598C385.697 31.5465 385.577 31.1998 385.577 30.7198Z" fill="black"/>
<path d="M239 47.7998V0.799805H235V47.7998H239Z" fill="#C24438" mask="url(#path-1-inside-1_8891_45400)"/>
<path d="M16.8178 30.5645H9.72444V17.8711H16.8178V19.2756H11.3244V23.24H16.4978V24.6267H11.3244V29.16H16.8178V30.5645ZM23.834 20.8578C24.0118 20.8578 24.2014 20.8696 24.4029 20.8933C24.6163 20.9052 24.8 20.9289 24.954 20.9645L24.7585 22.4045C24.6044 22.3689 24.4325 22.3393 24.2429 22.3156C24.0651 22.2919 23.8933 22.28 23.7274 22.28C23.2414 22.28 22.7851 22.4163 22.3585 22.6889C21.9318 22.9496 21.5881 23.323 21.3274 23.8089C21.0785 24.283 20.954 24.84 20.954 25.48V30.5645H19.3896V21.0356H20.6696L20.8474 22.7778H20.9185C21.2266 22.2563 21.6237 21.8059 22.1096 21.4267C22.5955 21.0474 23.1703 20.8578 23.834 20.8578ZM31.1778 20.8578C31.3556 20.8578 31.5452 20.8696 31.7467 20.8933C31.96 20.9052 32.1437 20.9289 32.2978 20.9645L32.1022 22.4045C31.9481 22.3689 31.7763 22.3393 31.5867 22.3156C31.4089 22.2919 31.237 22.28 31.0711 22.28C30.5852 22.28 30.1289 22.4163 29.7022 22.6889C29.2756 22.9496 28.9319 23.323 28.6711 23.8089C28.4222 24.283 28.2978 24.84 28.2978 25.48V30.5645H26.7333V21.0356H28.0133L28.1911 22.7778H28.2622C28.5704 22.2563 28.9674 21.8059 29.4533 21.4267C29.9393 21.0474 30.5141 20.8578 31.1778 20.8578ZM42.0143 25.7822C42.0143 27.3585 41.6113 28.5793 40.8054 29.4445C40.0113 30.3096 38.9328 30.7422 37.5699 30.7422C36.7284 30.7422 35.9758 30.5526 35.3121 30.1733C34.6602 29.7822 34.1447 29.2193 33.7654 28.4845C33.3862 27.7378 33.1965 26.837 33.1965 25.7822C33.1965 24.2059 33.5936 22.9911 34.3876 22.1378C35.1817 21.2845 36.2602 20.8578 37.6232 20.8578C38.4884 20.8578 39.2469 21.0533 39.8988 21.4445C40.5625 21.8237 41.078 22.3807 41.4454 23.1156C41.8247 23.8385 42.0143 24.7274 42.0143 25.7822ZM34.8143 25.7822C34.8143 26.9082 35.0336 27.803 35.4721 28.4667C35.9225 29.1185 36.6336 29.4445 37.6054 29.4445C38.5654 29.4445 39.2706 29.1185 39.721 28.4667C40.1713 27.803 40.3965 26.9082 40.3965 25.7822C40.3965 24.6563 40.1713 23.7733 39.721 23.1333C39.2706 22.4933 38.5595 22.1733 37.5876 22.1733C36.6158 22.1733 35.9106 22.4933 35.4721 23.1333C35.0336 23.7733 34.8143 24.6563 34.8143 25.7822ZM48.9382 20.8578C49.116 20.8578 49.3056 20.8696 49.5071 20.8933C49.7204 20.9052 49.9041 20.9289 50.0582 20.9645L49.8626 22.4045C49.7086 22.3689 49.5367 22.3393 49.3471 22.3156C49.1693 22.2919 48.9975 22.28 48.8315 22.28C48.3456 22.28 47.8893 22.4163 47.4626 22.6889C47.036 22.9496 46.6923 23.323 46.4315 23.8089C46.1826 24.283 46.0582 24.84 46.0582 25.48V30.5645H44.4938V21.0356H45.7738L45.9515 22.7778H46.0226C46.3308 22.2563 46.7278 21.8059 47.2138 21.4267C47.6997 21.0474 48.2745 20.8578 48.9382 20.8578ZM66.9089 20.8578C67.9874 20.8578 68.7933 21.1363 69.3267 21.6933C69.86 22.2385 70.1267 23.1274 70.1267 24.36V30.5645H68.58V24.4311C68.58 22.9259 67.9341 22.1733 66.6422 22.1733C65.7178 22.1733 65.0541 22.44 64.6511 22.9733C64.26 23.5067 64.0644 24.283 64.0644 25.3022V30.5645H62.5178V24.4311C62.5178 22.9259 61.8659 22.1733 60.5622 22.1733C59.6022 22.1733 58.9385 22.4696 58.5711 23.0622C58.2037 23.6548 58.02 24.5082 58.02 25.6222V30.5645H56.4556V21.0356H57.7178L57.9489 22.3333H58.0378C58.3341 21.8356 58.7311 21.4682 59.2289 21.2311C59.7385 20.9822 60.2778 20.8578 60.8467 20.8578C62.34 20.8578 63.3119 21.3911 63.7622 22.4578H63.8511C64.1711 21.9126 64.6037 21.5096 65.1489 21.2489C65.7059 20.9882 66.2926 20.8578 66.9089 20.8578ZM76.7501 20.8578C77.5679 20.8578 78.2672 21.0356 78.8479 21.3911C79.4405 21.7467 79.8909 22.2504 80.199 22.9022C80.519 23.5422 80.679 24.2948 80.679 25.16V26.1022H74.1546C74.1783 27.1807 74.4509 28.0045 74.9724 28.5733C75.5057 29.1304 76.2464 29.4089 77.1946 29.4089C77.799 29.4089 78.3324 29.3556 78.7946 29.2489C79.2687 29.1304 79.7546 28.9645 80.2524 28.7511V30.12C79.7664 30.3333 79.2864 30.4874 78.8124 30.5822C78.3383 30.6889 77.7753 30.7422 77.1235 30.7422C76.2227 30.7422 75.4227 30.5585 74.7235 30.1911C74.0361 29.8237 73.4968 29.2785 73.1057 28.5556C72.7264 27.8207 72.5368 26.9259 72.5368 25.8711C72.5368 24.8282 72.7087 23.9333 73.0524 23.1867C73.4079 22.44 73.8998 21.8652 74.5279 21.4622C75.1679 21.0593 75.9087 20.8578 76.7501 20.8578ZM76.7324 22.1378C75.9857 22.1378 75.3931 22.3807 74.9546 22.8667C74.5279 23.3407 74.2731 24.0045 74.1901 24.8578H79.0435C79.0316 24.0519 78.842 23.4 78.4746 22.9022C78.1072 22.3926 77.5264 22.1378 76.7324 22.1378ZM89.3093 27.9333C89.3093 28.8578 88.9656 29.557 88.2782 30.0311C87.5908 30.5052 86.6663 30.7422 85.5049 30.7422C84.8412 30.7422 84.2663 30.6889 83.7804 30.5822C83.3063 30.4756 82.8856 30.3274 82.5182 30.1378V28.7156C82.8975 28.9052 83.3538 29.083 83.8871 29.2489C84.4323 29.403 84.9834 29.48 85.5404 29.48C86.3345 29.48 86.9093 29.3556 87.2649 29.1067C87.6204 28.8459 87.7982 28.5022 87.7982 28.0756C87.7982 27.8385 87.733 27.6252 87.6026 27.4356C87.4723 27.2459 87.2352 27.0563 86.8915 26.8667C86.5597 26.677 86.0797 26.4637 85.4515 26.2267C84.8352 25.9896 84.3078 25.7526 83.8693 25.5156C83.4308 25.2785 83.093 24.9941 82.856 24.6622C82.6189 24.3304 82.5004 23.9037 82.5004 23.3822C82.5004 22.5763 82.8263 21.9541 83.4782 21.5156C84.1419 21.077 85.0071 20.8578 86.0738 20.8578C86.6545 20.8578 87.1938 20.917 87.6915 21.0356C88.2012 21.1422 88.6752 21.2963 89.1138 21.4978L88.5804 22.7422C88.1775 22.5763 87.7567 22.4341 87.3182 22.3156C86.8797 22.197 86.4293 22.1378 85.9671 22.1378C85.3271 22.1378 84.8352 22.2445 84.4915 22.4578C84.1597 22.6593 83.9938 22.9378 83.9938 23.2933C83.9938 23.5541 84.0708 23.7793 84.2249 23.9689C84.3789 24.1467 84.6338 24.3245 84.9893 24.5022C85.3567 24.6682 85.8426 24.8696 86.4471 25.1067C87.0515 25.3319 87.5671 25.563 87.9938 25.8C88.4204 26.037 88.7463 26.3274 88.9715 26.6711C89.1967 27.003 89.3093 27.4237 89.3093 27.9333ZM97.8163 27.9333C97.8163 28.8578 97.4726 29.557 96.7851 30.0311C96.0977 30.5052 95.1733 30.7422 94.0118 30.7422C93.3481 30.7422 92.7733 30.6889 92.2874 30.5822C91.8133 30.4756 91.3926 30.3274 91.0251 30.1378V28.7156C91.4044 28.9052 91.8607 29.083 92.394 29.2489C92.9392 29.403 93.4903 29.48 94.0474 29.48C94.8414 29.48 95.4163 29.3556 95.7718 29.1067C96.1274 28.8459 96.3051 28.5022 96.3051 28.0756C96.3051 27.8385 96.24 27.6252 96.1096 27.4356C95.9792 27.2459 95.7422 27.0563 95.3985 26.8667C95.0666 26.677 94.5866 26.4637 93.9585 26.2267C93.3422 25.9896 92.8148 25.7526 92.3763 25.5156C91.9377 25.2785 91.6 24.9941 91.3629 24.6622C91.1259 24.3304 91.0074 23.9037 91.0074 23.3822C91.0074 22.5763 91.3333 21.9541 91.9851 21.5156C92.6488 21.077 93.514 20.8578 94.5807 20.8578C95.1614 20.8578 95.7007 20.917 96.1985 21.0356C96.7081 21.1422 97.1822 21.2963 97.6207 21.4978L97.0874 22.7422C96.6844 22.5763 96.2637 22.4341 95.8251 22.3156C95.3866 22.197 94.9363 22.1378 94.474 22.1378C93.834 22.1378 93.3422 22.2445 92.9985 22.4578C92.6666 22.6593 92.5007 22.9378 92.5007 23.2933C92.5007 23.5541 92.5777 23.7793 92.7318 23.9689C92.8859 24.1467 93.1407 24.3245 93.4963 24.5022C93.8637 24.6682 94.3496 24.8696 94.954 25.1067C95.5585 25.3319 96.074 25.563 96.5007 25.8C96.9274 26.037 97.2533 26.3274 97.4785 26.6711C97.7037 27.003 97.8163 27.4237 97.8163 27.9333ZM103.728 20.8756C104.889 20.8756 105.748 21.1304 106.305 21.64C106.862 22.1496 107.141 22.9615 107.141 24.0756V30.5645H106.003L105.701 29.2133H105.63C105.215 29.7348 104.777 30.12 104.314 30.3689C103.864 30.6178 103.236 30.7422 102.43 30.7422C101.565 30.7422 100.848 30.517 100.279 30.0667C99.7099 29.6045 99.4254 28.8874 99.4254 27.9156C99.4254 26.9674 99.7988 26.2385 100.545 25.7289C101.292 25.2074 102.442 24.923 103.994 24.8756L105.612 24.8222V24.2533C105.612 23.4593 105.44 22.9082 105.097 22.6C104.753 22.2919 104.267 22.1378 103.639 22.1378C103.141 22.1378 102.667 22.2148 102.217 22.3689C101.766 22.5111 101.345 22.677 100.954 22.8667L100.474 21.6933C100.889 21.4682 101.381 21.2785 101.95 21.1245C102.519 20.9585 103.111 20.8756 103.728 20.8756ZM104.19 25.96C103.005 26.0074 102.181 26.197 101.719 26.5289C101.268 26.8607 101.043 27.3289 101.043 27.9333C101.043 28.4667 101.203 28.8578 101.523 29.1067C101.855 29.3556 102.276 29.48 102.785 29.48C103.591 29.48 104.261 29.2607 104.794 28.8222C105.328 28.3719 105.594 27.6845 105.594 26.76V25.9067L104.19 25.96ZM113.462 20.8578C114.09 20.8578 114.653 20.9763 115.151 21.2133C115.66 21.4504 116.093 21.8119 116.448 22.2978H116.537L116.751 21.0356H117.995V30.7245C117.995 32.0874 117.646 33.1126 116.946 33.8C116.259 34.4874 115.186 34.8311 113.728 34.8311C112.33 34.8311 111.186 34.6296 110.297 34.2267V32.7867C111.234 33.2845 112.407 33.5333 113.817 33.5333C114.635 33.5333 115.275 33.2904 115.737 32.8045C116.211 32.3304 116.448 31.6785 116.448 30.8489V30.4756C116.448 30.3333 116.454 30.1319 116.466 29.8711C116.478 29.5985 116.49 29.4089 116.502 29.3022H116.431C115.791 30.2622 114.807 30.7422 113.48 30.7422C112.247 30.7422 111.281 30.3096 110.582 29.4445C109.894 28.5793 109.551 27.3704 109.551 25.8178C109.551 24.3007 109.894 23.0978 110.582 22.2089C111.281 21.3082 112.241 20.8578 113.462 20.8578ZM113.675 22.1733C112.881 22.1733 112.265 22.4933 111.826 23.1333C111.388 23.7615 111.168 24.6622 111.168 25.8356C111.168 27.0089 111.382 27.9096 111.808 28.5378C112.247 29.1541 112.881 29.4622 113.711 29.4622C114.671 29.4622 115.37 29.2074 115.808 28.6978C116.247 28.1763 116.466 27.3407 116.466 26.1911V25.8178C116.466 24.5141 116.241 23.5837 115.791 23.0267C115.34 22.4578 114.635 22.1733 113.675 22.1733ZM124.702 20.8578C125.519 20.8578 126.219 21.0356 126.799 21.3911C127.392 21.7467 127.842 22.2504 128.15 22.9022C128.47 23.5422 128.63 24.2948 128.63 25.16V26.1022H122.106C122.13 27.1807 122.402 28.0045 122.924 28.5733C123.457 29.1304 124.198 29.4089 125.146 29.4089C125.75 29.4089 126.284 29.3556 126.746 29.2489C127.22 29.1304 127.706 28.9645 128.204 28.7511V30.12C127.718 30.3333 127.238 30.4874 126.764 30.5822C126.29 30.6889 125.727 30.7422 125.075 30.7422C124.174 30.7422 123.374 30.5585 122.675 30.1911C121.987 29.8237 121.448 29.2785 121.057 28.5556C120.678 27.8207 120.488 26.9259 120.488 25.8711C120.488 24.8282 120.66 23.9333 121.004 23.1867C121.359 22.44 121.851 21.8652 122.479 21.4622C123.119 21.0593 123.86 20.8578 124.702 20.8578ZM124.684 22.1378C123.937 22.1378 123.344 22.3807 122.906 22.8667C122.479 23.3407 122.224 24.0045 122.142 24.8578H126.995C126.983 24.0519 126.793 23.4 126.426 22.9022C126.059 22.3926 125.478 22.1378 124.684 22.1378Z" fill="black"/>
<rect x="1" y="7.89062" width="136" height="31.3473" stroke="#B3800F" stroke-width="2"/>
<line x1="208" y1="24.5635" x2="136" y2="24.5635" stroke="#B3800F" stroke-width="2"/>
</svg>
