<svg width="706" height="81" viewBox="0 0 706 81" fill="none" xmlns="http://www.w3.org/2000/svg">
<g clip-path="url(#clip0_39_13786)">
<path d="M72 24H88.1934V56.583H72V24ZM124.105 24H140.299V56.583H124.105V24ZM103.903 30.7807L106.215 26.1285L108.51 30.6113C108.796 31.0848 109.029 31.0457 109.486 30.8198L111.459 29.8555L110.176 36.1149C109.908 37.3442 110.615 37.7048 111.385 36.8707L114.198 33.8996L114.945 35.5806C115.196 36.0889 115.574 36.015 116.075 35.9238L118.98 35.32L118.004 38.9471V39.0253C117.89 39.4988 117.662 39.894 118.198 40.1243L119.231 40.6325L113.218 45.6409C112.607 46.2621 112.818 46.4532 113.046 47.1526L113.6 48.8336L108.013 47.8345C107.323 47.6651 106.844 47.6651 106.826 48.2125L107.055 54.5457H105.376L105.604 48.2298C105.604 47.6087 105.125 47.626 103.996 47.8563L98.8132 48.838L99.4813 47.1569C99.7099 46.514 99.7714 46.0796 99.2527 45.6453L93.1473 40.7063L94.2769 40.0244C94.6022 39.7768 94.6198 39.5161 94.4484 38.9645L93.3011 35.2939L96.2462 35.9151C97.0681 36.1062 97.2967 35.9151 97.5077 35.4807L98.3297 33.817L101.24 37.0315C101.754 37.6353 102.484 37.24 102.255 36.3712L100.857 29.5862L103.02 30.8155C103.363 31.024 103.727 31.0804 103.938 30.6851" fill="#EB2D37"/>
<path d="M180.747 37.7829H179.226L178.866 36.2061C177.591 37.6352 176.435 38.1044 174.778 38.1044C170.712 38.1044 168.277 34.9117 168.277 31.0804C168.277 27.2492 170.712 24.0521 174.778 24.0521C177.745 24.0521 180.233 25.6116 180.593 28.6349H178.277C178.048 26.8713 176.492 25.9677 174.76 25.9677C171.851 25.9677 170.637 28.5045 170.637 31.0761C170.637 33.6476 171.855 36.1844 174.76 36.1844C177.191 36.2192 178.523 34.777 178.563 32.5009H174.954V30.7199H180.747V37.7829ZM187.53 36.3538C185.591 36.3538 184.734 34.6163 184.734 32.9179C184.734 31.2194 185.591 29.4993 187.53 29.4993C189.468 29.4993 190.325 31.2368 190.325 32.9179C190.325 34.5989 189.468 36.3538 187.53 36.3538ZM187.53 38.0436C190.686 38.0436 192.492 35.9021 192.492 32.9179C192.492 29.9337 190.681 27.8095 187.53 27.8095C184.378 27.8095 182.567 29.951 182.567 32.9179C182.567 35.8847 184.374 38.0479 187.53 38.0479V38.0436ZM193.319 28.0745H195.675L198.154 35.5285H198.193L200.589 28.0702H202.831L199.314 37.7786H196.883L193.319 28.0745ZM205.851 32.0708C205.846 31.7333 205.909 31.3983 206.037 31.0853C206.165 30.7724 206.355 30.4878 206.596 30.2483C206.837 30.0088 207.123 29.8192 207.439 29.6906C207.755 29.562 208.094 29.4969 208.435 29.4993C209.899 29.4993 210.831 30.7199 210.905 32.0708H205.851ZM213.072 33.4826C213.433 30.5722 211.534 27.8095 208.435 27.8095C205.508 27.8095 203.683 30.1769 203.683 32.9352C203.683 35.9194 205.415 38.0436 208.492 38.0436C210.642 38.0436 212.448 36.862 212.941 34.7379H210.901C210.519 35.8108 209.763 36.3538 208.505 36.3538C206.699 36.3538 205.868 35.0029 205.868 33.4782L213.072 33.4826ZM214.725 28.0745H216.76V29.951H216.8C217.002 29.3487 217.385 28.8214 217.898 28.439C218.411 28.0565 219.029 27.837 219.67 27.8095C219.944 27.8068 220.217 27.8257 220.488 27.866V29.9337C220.179 29.8832 219.868 29.8513 219.556 29.8381C218.075 29.8381 216.897 31.0196 216.897 33.1611V37.7829H214.725V28.0745ZM221.415 28.0745H223.468V29.5036L223.508 29.5427C223.819 29.0098 224.268 28.5682 224.808 28.2629C225.349 27.9576 225.962 27.7997 226.585 27.8052C228.712 27.8052 230.061 28.9302 230.061 31.1108V37.7829H227.894V31.6799C227.855 30.1595 227.248 29.508 225.974 29.508C224.527 29.508 223.596 30.633 223.596 32.0621V37.7829H221.429V28.0745H221.415ZM232.325 28.0745H234.378V29.4254H234.435C234.739 28.9069 235.181 28.4815 235.714 28.1963C236.247 27.9111 236.85 27.7772 237.455 27.8095C238.651 27.8095 239.776 28.3178 240.211 29.4254C240.54 28.9172 240.996 28.5015 241.535 28.2184C242.074 27.9353 242.678 27.7945 243.288 27.8095C245.358 27.8095 246.576 28.713 246.576 31.0761V37.7829H244.409V32.1099C244.409 30.5679 244.312 29.5036 242.624 29.5036C241.16 29.5036 240.532 30.4636 240.532 32.1099V37.8003H238.365V31.5496C238.365 30.216 237.925 29.5036 236.637 29.5036C235.516 29.5036 234.488 30.4071 234.488 32.0187V37.7829H232.321V28.0745H232.325ZM250.554 32.0708C250.549 31.7333 250.613 31.3983 250.741 31.0853C250.869 30.7724 251.059 30.4878 251.299 30.2483C251.54 30.0088 251.827 29.8192 252.142 29.6906C252.458 29.562 252.797 29.4969 253.138 29.4993C254.602 29.4993 255.534 30.7199 255.609 32.0708H250.554ZM257.776 33.4826C258.136 30.5722 256.237 27.8095 253.138 27.8095C250.211 27.8095 248.387 30.1769 248.387 32.9352C248.387 35.9194 250.114 38.0436 253.196 38.0436C255.345 38.0436 257.152 36.862 257.644 34.7379H255.591C255.213 35.8108 254.453 36.3538 253.196 36.3538C251.389 36.3538 250.558 35.0029 250.558 33.4782L257.776 33.4826ZM259.429 28.0745H261.481V29.5036L261.521 29.5427C261.832 29.0098 262.281 28.5682 262.822 28.2629C263.362 27.9576 263.975 27.7997 264.598 27.8052C266.725 27.8052 268.075 28.9302 268.075 31.1108V37.7829H265.89V31.6799C265.851 30.1595 265.244 29.508 263.969 29.508C262.523 29.508 261.591 30.633 261.591 32.0621V37.7829H259.429V28.0745ZM269.363 28.0745H270.993V25.1598H273.16V28.0702H275.116V29.6687H273.16V34.8595C273.16 35.7283 273.235 36.1931 274.207 36.1931C274.513 36.2054 274.821 36.1791 275.121 36.1149V37.7699C274.646 37.8047 274.189 37.8828 273.714 37.8828C271.451 37.8828 271.033 37.0141 270.993 35.4025V29.6687H269.363V28.0745ZM173.099 55.1365C171.16 55.1365 170.303 53.399 170.303 51.7005C170.303 50.0021 171.165 48.282 173.099 48.282C175.033 48.282 175.894 50.0195 175.894 51.7005C175.894 53.3816 175.046 55.1365 173.099 55.1365ZM173.099 56.8262C176.255 56.8262 178.057 54.6847 178.057 51.7005C178.057 48.7163 176.259 46.5879 173.099 46.5879C169.938 46.5879 168.136 48.7294 168.136 51.6962C168.136 54.663 169.947 56.8262 173.099 56.8262ZM178.901 46.8528H180.514V46.0492C180.514 43.5689 181.833 43.1562 183.231 43.1562C183.741 43.1366 184.252 43.1804 184.752 43.2866V44.9589C184.423 44.8753 184.084 44.8373 183.745 44.846C183.156 44.846 182.681 45.0545 182.681 45.8581V46.8528H184.527V48.4514H182.681V56.5786H180.514V48.4514H178.901V46.8528ZM200.607 47.4175C200.207 45.8755 199.2 44.7504 197.222 44.7504C194.312 44.7504 193.099 47.2872 193.099 49.8588C193.099 52.4303 194.316 54.9671 197.222 54.9671C199.332 54.9671 200.492 53.4077 200.681 51.4529H202.989C202.8 54.663 200.501 56.8827 197.213 56.8827C193.147 56.8827 190.712 53.69 190.712 49.8588C190.712 46.0275 193.147 42.8348 197.213 42.8348C200.29 42.8348 202.686 44.5245 202.971 47.4175H200.598H200.607ZM210.927 53.2991C210.927 54.65 209.446 55.1408 208.492 55.1408C207.732 55.1408 206.497 54.8585 206.497 53.9029C206.497 52.7778 207.332 52.439 208.255 52.287C209.178 52.1349 210.251 52.1349 210.914 51.7049L210.927 53.2991ZM213.094 49.3896C213.094 47.3437 211.081 46.5748 209.138 46.5748C206.971 46.5748 204.822 47.3089 204.672 49.8066H206.84C206.945 48.7598 207.824 48.282 209.024 48.282C209.903 48.282 211.059 48.4905 211.059 49.5851C211.059 50.8448 209.67 50.6754 208.114 50.9577C206.29 51.1619 204.334 51.5572 204.334 53.9984C204.334 55.8967 205.93 56.8349 207.697 56.8349C208.939 56.8691 210.151 56.4483 211.099 55.6534C211.27 56.5222 211.899 56.8349 212.769 56.8349C213.234 56.812 213.693 56.7302 214.136 56.5917V55.1017C213.96 55.1281 213.782 55.1398 213.604 55.1365C213.204 55.1365 213.09 54.9323 213.09 54.4024L213.094 49.3896ZM215.429 46.8528H217.494V48.282L217.534 48.321C217.845 47.7882 218.294 47.3465 218.835 47.0412C219.375 46.736 219.988 46.578 220.611 46.5835C222.738 46.5835 224.088 47.7086 224.088 49.8892V56.5786H221.89V50.4625C221.851 48.9422 221.244 48.2906 219.969 48.2906C218.523 48.2906 217.591 49.4157 217.591 50.8448V56.5786H215.429V46.8528ZM232.4 53.2991C232.4 54.65 230.919 55.1408 229.969 55.1408C229.209 55.1408 227.974 54.8585 227.974 53.9029C227.974 52.7778 228.809 52.439 229.732 52.287C230.655 52.1349 231.727 52.1349 232.391 51.7049L232.4 53.2991ZM234.567 49.3896C234.567 47.3437 232.554 46.5748 230.611 46.5748C228.444 46.5748 226.299 47.3089 226.145 49.8066H228.312C228.409 48.7554 229.261 48.2689 230.479 48.2689C231.358 48.2689 232.514 48.4774 232.514 49.5721C232.514 50.8318 231.125 50.6624 229.569 50.9447C227.745 51.1489 225.789 51.5442 225.789 53.9854C225.789 55.8836 227.385 56.8219 229.152 56.8219C230.394 56.856 231.606 56.4353 232.554 55.6404C232.725 56.5091 233.354 56.8219 234.224 56.8219C234.688 56.799 235.148 56.7172 235.591 56.5786V55.1017C235.415 55.1281 235.237 55.1397 235.059 55.1365C234.659 55.1365 234.545 54.9323 234.545 54.4024L234.567 49.3896ZM238.593 51.8004C238.593 50.0629 239.314 48.2689 241.349 48.2689C243.02 48.2689 244.066 49.546 244.066 51.6875C244.066 53.3773 243.248 55.1235 241.31 55.1235C239.371 55.1235 238.593 53.4858 238.593 51.8004ZM246.163 43.1562H243.996V48.1125H243.956C243.292 47.044 241.921 46.5922 240.686 46.5922C238.536 46.5922 236.431 48.1299 236.431 51.6441C236.431 54.5544 237.93 56.8262 241.029 56.8262C242.264 56.8262 243.499 56.3571 244.07 55.2494H244.11V56.5526H246.163V43.1562ZM254.58 53.2991C254.58 54.65 253.099 55.1408 252.145 55.1408C251.385 55.1408 250.149 54.8585 250.149 53.9029C250.149 52.7778 250.985 52.439 251.908 52.287C252.831 52.1349 253.903 52.1349 254.567 51.7049L254.58 53.2991ZM256.747 49.3896C256.747 47.3437 254.734 46.5748 252.791 46.5748C250.624 46.5748 248.475 47.3089 248.325 49.8066H250.492C250.589 48.7554 251.442 48.2689 252.659 48.2689C253.538 48.2689 254.694 48.4774 254.694 49.5721C254.694 50.8318 253.305 50.6624 251.749 50.9447C249.925 51.1489 247.969 51.5442 247.969 53.9854C247.969 55.8836 249.565 56.8219 251.332 56.8219C252.575 56.8564 253.786 56.4356 254.734 55.6404C254.905 56.5091 255.534 56.8219 256.404 56.8219C256.869 56.799 257.328 56.7172 257.771 56.5786V55.1017C257.595 55.1281 257.417 55.1398 257.24 55.1365C256.84 55.1365 256.725 54.9323 256.725 54.4024L256.747 49.3896Z" fill="black"/>
<path d="M316.163 37.9002H314.637L314.277 36.3234C313.002 37.7526 311.846 38.2217 310.189 38.2217C306.123 38.2217 303.688 35.029 303.688 31.1977C303.688 27.3665 306.128 24.1738 310.194 24.1738C313.161 24.1738 315.648 25.7375 316.009 28.7782H313.692C313.464 27.0146 311.908 26.1111 310.176 26.1111C307.266 26.1111 306.053 28.6479 306.053 31.2194C306.053 33.791 307.27 36.3278 310.176 36.3278C312.607 36.3669 313.939 34.9204 313.978 32.6486H310.369V30.8415H316.145V37.9002H316.163ZM322.945 36.4755C321.007 36.4755 320.15 34.7379 320.15 33.0395C320.15 31.3411 321.007 29.6209 322.945 29.6209C324.884 29.6209 325.741 31.3584 325.741 33.0395C325.741 34.7206 324.884 36.4755 322.945 36.4755ZM322.945 38.1652C326.101 38.1652 327.908 36.0237 327.908 33.0395C327.908 30.0553 326.101 27.9095 322.945 27.9095C319.789 27.9095 317.987 30.0814 317.987 33.0395C317.987 35.9976 319.794 38.1652 322.945 38.1652ZM338.343 37.9002H336.215V36.5537H336.176C335.89 37.0377 335.482 37.4407 334.992 37.7237C334.503 38.0067 333.948 38.1603 333.38 38.1696C330.813 38.1696 329.714 36.8925 329.714 34.3557V28.1918H331.881V34.1472C331.881 35.8586 332.585 36.4755 333.763 36.4755C335.569 36.4755 336.176 35.333 336.176 33.8257V28.1788H338.343V37.9002ZM339.653 28.1918H342.009L344.497 35.6501H344.528L346.923 28.1918H349.165L345.648 37.9002H343.209L339.653 28.1918ZM352.176 32.1925C352.171 31.8549 352.235 31.5199 352.363 31.2069C352.491 30.894 352.681 30.6094 352.921 30.37C353.162 30.1305 353.449 29.9409 353.765 29.8122C354.08 29.6836 354.419 29.6186 354.761 29.6209C356.224 29.6209 357.156 30.8415 357.231 32.1925H352.176ZM359.398 33.5999C359.763 30.6895 357.859 27.9095 354.761 27.9095C351.833 27.9095 350.009 30.2768 350.009 33.0352C350.009 36.0194 351.736 38.1435 354.818 38.1435C356.963 38.1435 358.774 36.962 359.266 34.8378H357.213C356.835 35.9108 356.075 36.4537 354.818 36.4537C353.011 36.4537 352.18 35.1028 352.18 33.5781L359.398 33.5999ZM361.055 28.1918H363.09V30.0814H363.125C363.323 29.4737 363.704 28.9401 364.217 28.552C364.73 28.1639 365.35 27.9398 365.996 27.9095C366.269 27.9068 366.543 27.9257 366.813 27.9659V30.0336C366.505 29.983 366.194 29.9511 365.881 29.938C364.4 29.938 363.222 31.1195 363.222 33.261V37.9002H361.055V28.1918ZM367.741 28.1918H369.794V29.6209L369.833 29.66C370.144 29.1271 370.593 28.6855 371.134 28.3802C371.674 28.0749 372.287 27.917 372.91 27.9225C375.042 27.9225 376.387 29.0475 376.387 31.2281V37.9002H374.22V31.8189C374.185 30.2986 373.574 29.647 372.299 29.647C370.853 29.647 369.925 30.772 369.925 32.2011V37.9002H367.758L367.741 28.1918ZM380.343 32.1925C380.338 31.8549 380.402 31.5199 380.53 31.2069C380.658 30.894 380.848 30.6094 381.088 30.37C381.329 30.1305 381.616 29.9409 381.932 29.8122C382.247 29.6836 382.586 29.6186 382.928 29.6209C384.391 29.6209 385.323 30.8415 385.398 32.1925H380.343ZM387.565 33.5999C387.925 30.6895 386.026 27.9095 382.928 27.9095C380 27.9095 378.176 30.2768 378.176 33.0352C378.176 36.0194 379.908 38.1435 382.985 38.1435C385.134 38.1435 386.941 36.962 387.433 34.8378H385.38C384.998 35.9108 384.237 36.4537 382.985 36.4537C381.178 36.4537 380.347 35.1028 380.347 33.5781L387.565 33.5999ZM389.218 28.1918H391.27V29.5427H391.328C391.629 29.021 392.07 28.592 392.604 28.3037C393.137 28.0153 393.74 27.8788 394.347 27.9095C395.547 27.9095 396.668 28.4177 397.103 29.5254C397.432 29.0172 397.888 28.6014 398.427 28.3183C398.966 28.0352 399.57 27.8944 400.18 27.9095C402.251 27.9095 403.468 28.813 403.468 31.176V37.9002H401.301V32.2533C401.301 30.7112 401.205 29.647 399.517 29.647C398.053 29.647 397.424 30.607 397.424 32.2533V37.9002H395.257V31.6669C395.257 30.3333 394.818 29.6209 393.53 29.6209C392.409 29.6209 391.385 30.5244 391.385 32.136V37.9002H389.218V28.1918ZM407.446 32.1925C407.442 31.8557 407.505 31.5213 407.632 31.209C407.76 30.8966 407.949 30.6124 408.189 30.3731C408.428 30.1337 408.714 29.9439 409.029 29.8148C409.344 29.6856 409.681 29.6197 410.022 29.6209C411.486 29.6209 412.418 30.8415 412.492 32.1925H407.446ZM414.668 33.5999C415.029 30.6895 413.125 27.9095 410.022 27.9095C407.095 27.9095 405.27 30.2768 405.27 33.0352C405.27 36.0194 406.998 38.1435 410.079 38.1435C412.224 38.1435 414.035 36.962 414.528 34.8378H412.475C412.097 35.9108 411.336 36.4537 410.079 36.4537C408.273 36.4537 407.442 35.1028 407.442 33.5781L414.668 33.5999ZM416.321 28.1918H418.374V29.6209L418.413 29.66C418.725 29.1271 419.173 28.6855 419.714 28.3802C420.255 28.0749 420.868 27.917 421.49 27.9225C423.622 27.9225 424.967 29.0475 424.967 31.2281V37.9002H422.769V31.8189C422.734 30.2986 422.123 29.647 420.848 29.647C419.402 29.647 418.47 30.772 418.47 32.2011V37.9002H416.303L416.321 28.1918ZM426.242 28.1918H427.877V25.3032H430.044V28.2135H432V29.812H430.044V34.9768C430.044 35.8456 430.119 36.3104 431.09 36.3104C431.397 36.3233 431.704 36.2985 432.005 36.2366V37.9002C431.53 37.935 431.073 38.0132 430.598 38.0132C428.339 38.0132 427.921 37.1444 427.881 35.5329V29.7903H426.246V28.1918H426.242ZM305.71 51.9351C305.71 50.1976 306.431 48.4036 308.466 48.4036C310.136 48.4036 311.183 49.6807 311.183 51.8222C311.183 53.5119 310.365 55.2581 308.426 55.2581C306.488 55.2581 305.71 53.6031 305.71 51.9351ZM313.275 43.2735H311.121V48.2342H311.081C310.418 47.1656 309.046 46.7139 307.815 46.7139C305.666 46.7139 303.556 48.2516 303.556 51.7657C303.556 54.6761 305.059 56.9479 308.154 56.9479C309.389 56.9479 310.624 56.4788 311.196 55.3711H311.231V56.6742H313.284V43.2735H313.275ZM324.259 56.6873H322.11V55.332C321.824 55.816 321.416 56.219 320.927 56.502C320.437 56.7851 319.882 56.9386 319.314 56.9479C316.747 56.9479 315.648 55.6708 315.648 53.134V46.9745H317.815V52.9255C317.815 54.637 318.519 55.2538 319.697 55.2538C321.503 55.2538 322.11 54.1114 322.11 52.6041V46.9571H324.277V56.6873H324.259ZM341.288 47.5392C340.888 45.9971 339.881 44.8721 337.903 44.8721C334.994 44.8721 333.78 47.4089 333.78 49.9804C333.78 52.5519 334.998 55.0887 337.903 55.0887C340.013 55.0887 341.169 53.5336 341.363 51.5789H343.684C343.495 54.789 341.196 57.0087 337.908 57.0087C333.842 57.0087 331.407 53.816 331.407 49.9847C331.407 46.1535 333.837 42.9608 337.908 42.9608C340.985 42.9608 343.38 44.6505 343.666 47.5435H341.288V47.5392ZM351.609 53.4164C351.609 54.7673 350.128 55.2581 349.178 55.2581C348.418 55.2581 347.183 54.9758 347.183 54.0202C347.183 52.8951 348.018 52.5563 348.941 52.4043C349.864 52.2522 350.936 52.2522 351.6 51.8222V53.4207L351.609 53.4164ZM353.776 49.5069C353.776 47.461 351.763 46.6878 349.82 46.6878C347.653 46.6878 345.508 47.4219 345.354 49.9196H347.521C347.618 48.8684 348.475 48.3775 349.688 48.3775C350.567 48.3775 351.723 48.586 351.723 49.6807C351.723 50.9404 350.334 50.771 348.778 51.0533C346.954 51.2575 344.998 51.6528 344.998 54.094C344.998 55.9923 346.594 56.9305 348.361 56.9305C349.603 56.9651 350.815 56.5442 351.763 55.749C351.934 56.6178 352.563 56.9305 353.437 56.9305C353.902 56.9075 354.361 56.8258 354.805 56.6873V55.2234C354.629 55.2497 354.451 55.2613 354.273 55.2581C353.873 55.2581 353.758 55.054 353.758 54.524V49.5286L353.776 49.5069ZM356.11 46.9745H358.154V48.4036L358.194 48.4427C358.505 47.9098 358.954 47.4682 359.494 47.1629C360.035 46.8576 360.648 46.6997 361.27 46.7052C363.402 46.7052 364.747 47.8302 364.747 50.0108V56.6873H362.58V50.5799C362.545 49.0595 361.934 48.4079 360.659 48.4079C359.213 48.4079 358.286 49.533 358.286 50.9621V56.6873H356.119L356.11 46.9745ZM373.099 53.4164C373.099 54.7673 371.618 55.2581 370.664 55.2581C369.903 55.2581 368.668 54.9758 368.668 54.0202C368.668 52.8951 369.503 52.5563 370.426 52.4043C371.35 52.2522 372.418 52.2348 373.099 51.8005V53.399V53.4164ZM375.266 49.5069C375.266 47.461 373.253 46.6878 371.332 46.6878C369.165 46.6878 367.015 47.4219 366.866 49.9196H369.033C369.13 48.8684 369.983 48.3775 371.2 48.3775C372.079 48.3775 373.231 48.586 373.231 49.6807C373.231 50.9404 371.842 50.771 370.286 51.0533C368.462 51.2575 366.501 51.6528 366.501 54.094C366.501 55.9923 368.101 56.9305 369.864 56.9305C371.107 56.9651 372.318 56.5442 373.266 55.749C373.437 56.6178 374.066 56.9305 374.941 56.9305C375.405 56.9077 375.865 56.826 376.308 56.6873V55.2234C376.132 55.2498 375.954 55.2614 375.776 55.2581C375.376 55.2581 375.262 55.054 375.262 54.524V49.5286L375.266 49.5069ZM379.279 51.9351C379.279 50.1976 380 48.4036 382.035 48.4036C383.706 48.4036 384.752 49.6807 384.752 51.8222C384.752 53.5119 383.934 55.2581 381.996 55.2581C380.057 55.2581 379.279 53.6031 379.279 51.9351ZM386.844 43.2779H384.677V48.2342H384.637C383.974 47.1656 382.607 46.7139 381.372 46.7139C379.222 46.7139 377.117 48.2516 377.117 51.7657C377.117 54.6761 378.62 56.9479 381.714 56.9479C382.95 56.9479 384.185 56.4788 384.756 55.3711H384.796V56.6742H386.848V43.2735L386.844 43.2779ZM395.262 53.4164C395.262 54.7673 393.78 55.2581 392.831 55.2581C392.07 55.2581 390.835 54.9758 390.835 54.0202C390.835 52.8951 391.67 52.5563 392.594 52.4043C393.517 52.2522 394.589 52.2522 395.253 51.8222V53.4207L395.262 53.4164ZM397.429 49.5069C397.429 47.461 395.415 46.6878 393.495 46.6878C391.328 46.6878 389.178 47.4219 389.029 49.9196H391.196C391.292 48.8684 392.145 48.3775 393.363 48.3775C394.242 48.3775 395.394 48.586 395.394 49.6807C395.394 50.9404 394.005 50.771 392.448 51.0533C390.624 51.2575 388.664 51.6528 388.664 54.094C388.664 55.9923 390.264 56.9305 392.026 56.9305C393.269 56.9646 394.481 56.5439 395.429 55.749C395.6 56.6178 396.229 56.9305 397.099 56.9305C397.563 56.9077 398.023 56.8259 398.466 56.6873V55.2234C398.29 55.2498 398.112 55.2614 397.934 55.2581C397.534 55.2581 397.42 55.054 397.42 54.524V49.5286L397.429 49.5069Z" fill="black"/>
</g>
<path d="M625.777 22.2393H631.736V34.1313H625.777V22.2393ZM615.464 28.1853L615.12 28.2996C615.12 28.2996 617.182 30.0148 617.182 30.1292C617.297 30.2435 617.412 30.2435 617.297 30.5866C617.182 30.9296 617.068 31.2726 617.068 31.2726C617.068 31.2726 618.901 30.9296 619.131 30.8153C619.36 30.8153 619.474 30.8152 619.474 31.0439C619.474 31.2726 619.36 33.2165 619.36 33.2165H619.933C619.933 33.2165 619.818 31.1583 619.818 31.0439C619.818 30.8152 619.933 30.8153 620.162 30.8153C620.391 30.8153 622.225 31.2726 622.225 31.2726C622.225 31.2726 622.11 30.8153 621.995 30.5866C621.881 30.2435 621.995 30.2435 622.11 30.1292C622.225 30.0148 624.173 28.2996 624.173 28.2996L623.829 28.1853C623.6 28.0709 623.714 27.9566 623.714 27.8422C623.714 27.7279 624.058 26.5844 624.058 26.5844C624.058 26.5844 623.141 26.8131 623.027 26.8131C622.912 26.8131 622.798 26.8131 622.798 26.6988C622.798 26.5844 622.568 26.127 622.568 26.127C622.568 26.127 621.537 27.2705 621.422 27.3849C621.193 27.6135 620.964 27.3849 621.079 27.1562C621.079 26.9275 621.652 24.5262 621.652 24.5262C621.652 24.5262 621.079 24.8692 620.849 24.9836C620.62 25.0979 620.506 25.0979 620.506 24.8692C620.391 24.6405 619.704 23.3827 619.704 23.2684C619.704 23.2684 619.016 24.6405 618.901 24.8692C618.787 25.0979 618.672 25.0979 618.558 24.9836C618.328 24.8692 617.755 24.5262 617.755 24.5262C617.755 24.5262 618.328 26.9275 618.328 27.1562C618.328 27.3849 618.214 27.4992 617.985 27.3849L616.839 26.127C616.839 26.127 616.724 26.4701 616.609 26.5844C616.609 26.6988 616.495 26.8131 616.38 26.6988C616.151 26.6988 615.234 26.4701 615.234 26.4701C615.234 26.4701 615.578 27.6135 615.693 27.7279C615.693 27.8422 615.693 28.0709 615.464 28.1853ZM607.786 22.2393H613.745V34.1313H607.786V22.2393Z" fill="#EB2D37"/>
<path d="M633.072 57.9113C632.614 58.9404 631.697 59.2834 631.124 59.2834C630.436 59.2834 628.374 59.1691 628.374 53.7948C628.374 53.7948 628.374 42.932 628.374 42.2459C628.374 38.7012 625.623 35.8426 618.519 35.8426C610.841 35.8426 610.726 39.616 610.726 40.5307C610.612 41.5598 611.185 42.7033 613.133 42.7033C614.852 42.7033 615.31 40.7594 615.539 40.0733C615.768 39.2729 615.883 36.986 618.977 36.986C621.613 36.986 623.217 39.2729 623.332 42.5889C623.332 43.1607 623.332 43.5037 623.332 43.8467C623.332 44.0754 623.332 44.1898 623.332 44.4185V44.5328C623.102 45.6763 622.529 46.248 621.498 46.7054C620.123 47.3915 616.112 47.9632 615.654 48.0775C614.049 48.4206 609.58 49.564 609.695 54.2522C609.809 58.826 614.393 60.4269 617.602 60.3125C620.696 60.1982 622.529 58.9404 623.332 58.2543C623.79 57.9113 623.79 57.9113 624.134 58.3686C624.592 58.826 626.082 60.3125 629.634 60.3125C633.301 60.3125 633.76 58.5973 633.989 58.0256C634.103 57.6826 633.301 57.3395 633.072 57.9113ZM618.748 59.1691C615.539 59.1691 614.737 56.5391 614.737 55.167C614.737 53.9092 615.425 51.2792 618.633 49.4497C618.633 49.4497 620.123 48.5349 622.988 47.3915C623.102 47.3915 623.217 47.3915 623.217 47.3915C623.217 47.3915 623.332 47.5058 623.332 47.6202V47.7345V47.8488V52.6514C623.332 56.4248 621.498 59.1691 618.748 59.1691ZM608.205 59.0547C607.747 58.9404 604.882 59.2834 604.882 50.5931C604.882 41.9029 604.882 23.2645 604.882 23.2645C604.882 22.9215 604.882 22.0067 603.85 22.0067C602.819 22.0067 595.943 22.3498 595.485 22.4641C595.027 22.4641 594.683 23.0358 595.485 23.0358C596.287 23.1502 599.954 23.3789 599.954 29.4392C599.954 32.4122 599.954 35.3852 599.954 37.5577C599.954 37.6721 599.954 37.7864 599.954 37.7864C599.954 38.0151 599.954 38.1295 599.84 38.2438C599.84 38.2438 599.84 38.2438 599.84 38.3582C599.725 38.4725 599.61 38.3582 599.267 38.1295C598.694 37.6721 596.058 36.0712 592.735 36.0712C587.349 36.0712 580.702 39.959 580.702 47.9632C580.702 56.5391 586.776 60.6556 593.079 60.6556C596.173 60.6556 598.35 59.2834 599.152 58.826C600.069 58.2543 599.954 58.3686 600.069 59.1691C600.183 59.7408 600.069 60.8843 601.673 60.7699C603.392 60.5412 607.518 60.0838 608.32 59.9695C609.122 59.6264 608.893 59.1691 608.205 59.0547ZM593.995 59.3978C588.953 59.3978 586.317 53.4518 586.317 47.7345C586.317 41.4455 589.87 37.2147 593.652 37.4434C598.579 37.7864 599.84 41.6742 599.954 48.6493C599.954 49.1066 599.954 49.564 599.954 50.1358C599.84 56.9965 596.975 59.3978 593.995 59.3978ZM580.588 57.9113C580.129 58.9404 579.213 59.2834 578.64 59.2834C577.952 59.2834 575.889 59.1691 575.889 53.7948C575.889 53.7948 575.889 42.932 575.889 42.2459C575.889 38.7012 573.139 35.8426 566.034 35.8426C558.356 35.8426 558.242 39.616 558.242 40.5307C558.127 41.5598 558.7 42.7033 560.648 42.7033C562.367 42.7033 562.826 40.7594 563.055 40.0733C563.284 39.2729 563.399 36.986 566.493 36.986C569.128 36.986 570.847 39.2729 570.847 42.7033V42.8176C570.847 42.932 570.847 43.0463 570.847 43.0463V43.3894C570.847 43.5037 570.847 43.7324 570.847 43.8467C570.733 45.5619 570.274 46.1337 568.899 46.8197C567.524 47.5058 563.513 48.0775 563.055 48.1919C561.45 48.5349 556.981 49.6784 557.096 54.3665C557.21 58.9404 561.794 60.5412 565.003 60.4269C568.097 60.3125 569.93 59.0547 570.733 58.3686C571.191 58.0256 571.191 58.0256 571.535 58.483C571.993 58.9404 573.483 60.4269 577.035 60.4269C580.702 60.4269 581.161 58.7117 581.39 58.1399C581.619 57.6826 580.932 57.3395 580.588 57.9113ZM566.378 59.1691C563.169 59.1691 562.367 56.5391 562.367 55.167C562.367 53.9092 563.055 51.2792 566.263 49.4497C566.263 49.4497 567.753 48.5349 570.618 47.3915C570.733 47.3915 570.847 47.3915 570.847 47.3915V47.5058C570.847 47.6202 570.847 47.7345 570.847 47.9632V47.8488C570.847 47.8488 570.847 47.8488 570.847 47.9632V52.7657C570.847 56.4248 569.014 59.1691 566.378 59.1691ZM555.377 59.0547C554.46 58.826 552.856 57.7969 552.856 52.7657V43.6181C552.856 41.4455 553.085 35.8426 544.49 35.8426C540.021 35.8426 537.5 38.1295 537.271 38.2438C536.927 38.5868 536.698 38.7012 536.583 38.1295C536.469 37.6721 536.24 36.986 536.125 36.5286C536.01 36.1856 535.781 35.8426 534.979 35.9569C534.177 36.0712 529.135 36.8717 528.218 37.1004C527.416 37.329 527.645 37.6721 528.218 37.7864C528.791 37.9008 531.541 38.1295 531.541 42.8176C531.541 47.5058 531.541 52.6514 531.541 52.6514C531.541 58.3686 530.395 58.826 529.364 59.1691C527.989 59.5121 528.676 59.9695 529.249 59.9695C529.249 59.9695 539.448 59.9695 539.677 59.9695C540.365 59.9695 540.709 59.2834 539.334 59.0547C537.959 58.826 536.698 58.0256 536.698 53.5661C536.698 53.1087 536.698 48.1919 536.698 47.2771C536.698 44.8759 536.125 37.5577 542.771 37.4434C547.47 37.329 547.928 41.2168 547.928 43.7324V53.4518C547.928 57.4539 546.782 58.7117 545.407 58.9404C544.147 59.1691 544.376 59.7408 545.063 59.7408C545.293 59.7408 555.721 59.7408 555.721 59.7408C556.294 59.9695 556.867 59.3978 555.377 59.0547ZM527.53 57.9113C527.072 58.9404 526.155 59.2834 525.582 59.2834C524.895 59.2834 522.832 59.1691 522.832 53.7948C522.832 53.7948 522.832 42.932 522.832 42.2459C522.832 38.7012 520.082 35.8426 512.977 35.8426C505.299 35.8426 505.184 39.616 505.184 40.5307C505.07 41.5598 505.643 42.7033 507.591 42.7033C509.31 42.7033 509.768 40.7594 509.997 40.0733C510.227 39.2729 510.341 36.986 513.435 36.986C516.071 36.986 517.675 39.2729 517.79 42.5889C517.79 43.1607 517.79 43.5037 517.79 43.8467C517.79 44.0754 517.79 44.3041 517.675 44.4185V44.5328C517.446 45.6763 516.873 46.248 515.842 46.7054C514.467 47.3915 510.456 47.9632 509.997 48.0775C508.393 48.4206 503.924 49.564 504.039 54.2522C504.153 58.826 508.737 60.4269 511.946 60.3125C515.04 60.1982 516.873 58.9404 517.675 58.2543C518.134 57.9113 518.134 57.9113 518.477 58.3686C518.936 58.826 520.426 60.3125 523.978 60.3125C527.645 60.3125 528.103 58.5973 528.333 58.0256C528.562 57.6826 527.76 57.3395 527.53 57.9113ZM513.206 59.1691C509.997 59.1691 509.195 56.5391 509.195 55.167C509.195 53.7948 509.883 51.2792 513.091 49.4497C513.091 49.4497 514.581 48.5349 517.446 47.3915C517.561 47.3915 517.675 47.3915 517.675 47.3915C517.675 47.3915 517.79 47.5058 517.79 47.6202C517.79 47.6202 517.79 47.7345 517.79 47.8488V47.9632V52.7657C517.79 56.4248 515.956 59.1691 513.206 59.1691ZM502.205 49.221C501.059 52.8801 498.882 58.826 490.975 59.0547C482.724 59.1691 477.796 53.5661 477.567 43.1607C477.223 32.0691 482.036 23.6076 489.485 23.3789C497.85 23.2645 500.83 33.2126 500.944 34.6991C501.059 35.8426 502.549 35.7282 502.549 34.5848C502.549 34.013 501.861 24.1793 501.632 23.0358C501.403 21.8924 500.486 22.3498 500.257 22.8072C500.142 23.1502 500.371 22.4641 499.913 23.4932C499.455 24.5223 498.194 23.9506 497.736 23.8363C496.361 23.2645 493.725 21.8924 489.485 22.0067C479.744 22.2354 469.775 29.4392 470.004 42.0172C470.233 54.2522 480.088 61.1129 489.256 60.9986C497.621 60.8842 502.32 55.6244 503.695 49.564C504.153 48.0775 502.663 47.7345 502.205 49.221Z" fill="black"/>
<g clip-path="url(#clip1_39_13786)">
<rect x="24" y="41" width="48" height="1" fill="#C54600"/>
<g clip-path="url(#clip2_39_13786)">
<rect x="24" y="29" width="24" height="24" rx="12" fill="#C54600"/>
<path d="M37.1825 36.2727V45H36.1257V37.3807H36.0746L33.9439 38.7955V37.7216L36.1257 36.2727H37.1825Z" fill="white"/>
</g>
</g>
<g clip-path="url(#clip3_39_13786)">
<rect x="634" y="41" width="48" height="1" fill="#C54600"/>
<g clip-path="url(#clip4_39_13786)">
<rect x="658" y="29" width="24" height="24" rx="12" fill="#C54600"/>
<path d="M667.271 45V44.233L670.151 41.0795C670.489 40.7102 670.768 40.3892 670.987 40.1165C671.205 39.8409 671.367 39.5824 671.472 39.3409C671.58 39.0966 671.634 38.8409 671.634 38.5739C671.634 38.267 671.56 38.0014 671.413 37.777C671.268 37.5526 671.069 37.3793 670.816 37.2571C670.563 37.1349 670.279 37.0739 669.964 37.0739C669.629 37.0739 669.336 37.1435 669.086 37.2827C668.839 37.419 668.647 37.6108 668.511 37.858C668.377 38.1051 668.31 38.3949 668.31 38.7273H667.305C667.305 38.2159 667.423 37.767 667.658 37.3807C667.894 36.9943 668.215 36.6932 668.621 36.4773C669.031 36.2614 669.489 36.1534 669.998 36.1534C670.509 36.1534 670.962 36.2614 671.357 36.4773C671.752 36.6932 672.062 36.9844 672.286 37.3509C672.511 37.7173 672.623 38.125 672.623 38.5739C672.623 38.8949 672.565 39.2088 672.448 39.5156C672.335 39.8196 672.136 40.1591 671.852 40.5341C671.57 40.9062 671.18 41.3608 670.68 41.8977L668.719 43.9943V44.0625H672.776V45H667.271Z" fill="white"/>
</g>
</g>
<defs>
<clipPath id="clip0_39_13786">
<rect width="360" height="33" fill="white" transform="translate(72 24)"/>
</clipPath>
<clipPath id="clip1_39_13786">
<rect width="48" height="24" fill="white" transform="translate(24 29)"/>
</clipPath>
<clipPath id="clip2_39_13786">
<rect x="24" y="29" width="24" height="24" rx="12" fill="white"/>
</clipPath>
<clipPath id="clip3_39_13786">
<rect width="48" height="24" fill="white" transform="translate(634 29)"/>
</clipPath>
<clipPath id="clip4_39_13786">
<rect x="658" y="29" width="24" height="24" rx="12" fill="white"/>
</clipPath>
</defs>
</svg>
