<svg width="618" height="225" viewBox="0 0 618 225" fill="none" xmlns="http://www.w3.org/2000/svg">
<rect x="186" y="71" width="42" height="42" rx="2" fill="white"/>
<path d="M203.08 100.581L195.135 92.637C194.658 92.1597 194.658 91.3858 195.135 90.9085L196.864 89.18C197.341 88.7027 198.115 88.7027 198.592 89.18L203.944 94.5317L215.407 83.0689C215.884 82.5916 216.658 82.5916 217.135 83.0689L218.864 84.7974C219.341 85.2747 219.341 86.0485 218.864 86.5259L204.808 100.581C204.331 101.059 203.557 101.059 203.08 100.581Z" fill="black"/>
<rect x="186" y="71" width="42" height="42" rx="2" stroke="black" stroke-width="2"/>
<path d="M245.9 99V84.72H248.06V97.14H254.16V99H245.9ZM260.563 88.02C261.923 88.02 262.936 88.32 263.603 88.92C264.269 89.5067 264.603 90.4333 264.603 91.7V99H263.103L262.683 97.5H262.603C262.296 97.8867 261.976 98.2067 261.643 98.46C261.323 98.7133 260.949 98.9 260.523 99.02C260.109 99.14 259.603 99.2 259.003 99.2C258.363 99.2 257.783 99.0867 257.263 98.86C256.756 98.62 256.356 98.26 256.063 97.78C255.769 97.2867 255.623 96.6733 255.623 95.94C255.623 94.8467 256.036 94.0133 256.863 93.44C257.703 92.8667 258.976 92.5533 260.683 92.5L262.523 92.44V91.84C262.523 91.04 262.343 90.48 261.983 90.16C261.623 89.84 261.116 89.68 260.463 89.68C259.903 89.68 259.369 89.76 258.863 89.92C258.356 90.08 257.876 90.2733 257.423 90.5L256.743 88.96C257.249 88.6933 257.829 88.4733 258.483 88.3C259.149 88.1133 259.843 88.02 260.563 88.02ZM261.063 93.86C259.836 93.9133 258.983 94.12 258.503 94.48C258.036 94.8267 257.803 95.32 257.803 95.96C257.803 96.52 257.969 96.9267 258.303 97.18C258.649 97.4333 259.083 97.56 259.603 97.56C260.443 97.56 261.136 97.3267 261.683 96.86C262.229 96.3933 262.503 95.6933 262.503 94.76V93.82L261.063 93.86ZM269.987 87.46C269.987 87.9 269.974 88.32 269.947 88.72C269.934 89.1067 269.914 89.4133 269.887 89.64H269.987C270.294 89.1867 270.707 88.8067 271.227 88.5C271.747 88.1933 272.42 88.04 273.247 88.04C274.54 88.04 275.58 88.5067 276.367 89.44C277.167 90.3733 277.567 91.76 277.567 93.6C277.567 94.84 277.387 95.8733 277.027 96.7C276.667 97.5267 276.16 98.1533 275.507 98.58C274.854 98.9933 274.094 99.2 273.227 99.2C272.387 99.2 271.714 99.0533 271.207 98.76C270.7 98.4533 270.294 98.0933 269.987 97.68H269.827L269.427 99H267.867V83.8H269.987V87.46ZM272.747 89.76C272.054 89.76 271.507 89.8933 271.107 90.16C270.707 90.4267 270.42 90.8333 270.247 91.38C270.074 91.9267 269.987 92.62 269.987 93.46V93.62C269.987 94.86 270.187 95.8133 270.587 96.48C270.987 97.1333 271.72 97.46 272.787 97.46C273.64 97.46 274.287 97.1267 274.727 96.46C275.167 95.7933 275.387 94.8333 275.387 93.58C275.387 92.3133 275.167 91.36 274.727 90.72C274.287 90.08 273.627 89.76 272.747 89.76ZM284.509 88.02C285.456 88.02 286.269 88.22 286.949 88.62C287.629 89.0067 288.149 89.5667 288.509 90.3C288.883 91.0333 289.069 91.9 289.069 92.9V94.06H281.829C281.856 95.1667 282.143 96.0133 282.689 96.6C283.249 97.1867 284.029 97.48 285.029 97.48C285.723 97.48 286.336 97.42 286.869 97.3C287.416 97.1667 287.976 96.9733 288.549 96.72V98.48C288.016 98.72 287.469 98.9 286.909 99.02C286.363 99.14 285.709 99.2 284.949 99.2C283.909 99.2 282.989 98.9933 282.189 98.58C281.389 98.1667 280.763 97.5533 280.309 96.74C279.869 95.9133 279.649 94.9 279.649 93.7C279.649 92.4867 279.849 91.46 280.249 90.62C280.663 89.78 281.229 89.14 281.949 88.7C282.683 88.2467 283.536 88.02 284.509 88.02ZM284.509 89.66C283.749 89.66 283.136 89.9067 282.669 90.4C282.216 90.8933 281.949 91.5933 281.869 92.5H286.949C286.949 91.94 286.863 91.4467 286.689 91.02C286.516 90.5933 286.249 90.26 285.889 90.02C285.529 89.78 285.069 89.66 284.509 89.66ZM293.835 99H291.715V83.8H293.835V99Z" fill="black"/>
<path d="M255.431 125H253.831V119.08H247.324V125H245.724V112.307H247.324V117.676H253.831V112.307H255.431V125ZM259.488 111.898C259.725 111.898 259.933 111.981 260.11 112.147C260.3 112.301 260.395 112.55 260.395 112.893C260.395 113.225 260.3 113.474 260.11 113.64C259.933 113.806 259.725 113.889 259.488 113.889C259.227 113.889 259.008 113.806 258.83 113.64C258.653 113.474 258.564 113.225 258.564 112.893C258.564 112.55 258.653 112.301 258.83 112.147C259.008 111.981 259.227 111.898 259.488 111.898ZM260.253 115.471V125H258.688V115.471H260.253ZM267.858 115.293C268.996 115.293 269.855 115.572 270.436 116.129C271.017 116.674 271.307 117.563 271.307 118.796V125H269.76V118.902C269.76 117.373 269.049 116.609 267.627 116.609C266.572 116.609 265.843 116.905 265.44 117.498C265.037 118.09 264.836 118.944 264.836 120.058V125H263.272V115.471H264.534L264.765 116.769H264.854C265.162 116.271 265.589 115.904 266.134 115.667C266.679 115.418 267.254 115.293 267.858 115.293ZM277.443 123.898C277.68 123.898 277.923 123.88 278.172 123.844C278.421 123.797 278.623 123.75 278.777 123.702V124.893C278.611 124.976 278.374 125.041 278.066 125.089C277.757 125.148 277.461 125.178 277.177 125.178C276.679 125.178 276.217 125.095 275.79 124.929C275.375 124.751 275.037 124.449 274.777 124.022C274.516 123.596 274.386 122.997 274.386 122.227V116.68H273.034V115.933L274.403 115.311L275.026 113.284H275.95V115.471H278.706V116.68H275.95V122.191C275.95 122.772 276.086 123.204 276.359 123.489C276.643 123.761 277.005 123.898 277.443 123.898ZM290.227 112.307L285.498 125H283.969L288.698 112.307H290.227ZM300.215 115.293C301.033 115.293 301.732 115.471 302.313 115.827C302.906 116.182 303.356 116.686 303.664 117.338C303.984 117.978 304.144 118.73 304.144 119.596V120.538H297.62C297.644 121.616 297.916 122.44 298.438 123.009C298.971 123.566 299.712 123.844 300.66 123.844C301.264 123.844 301.798 123.791 302.26 123.684C302.734 123.566 303.22 123.4 303.718 123.187V124.556C303.232 124.769 302.752 124.923 302.278 125.018C301.804 125.124 301.241 125.178 300.589 125.178C299.688 125.178 298.888 124.994 298.189 124.627C297.501 124.259 296.962 123.714 296.571 122.991C296.192 122.256 296.002 121.361 296.002 120.307C296.002 119.264 296.174 118.369 296.518 117.622C296.873 116.876 297.365 116.301 297.993 115.898C298.633 115.495 299.374 115.293 300.215 115.293ZM300.198 116.573C299.451 116.573 298.858 116.816 298.42 117.302C297.993 117.776 297.738 118.44 297.655 119.293H302.509C302.497 118.487 302.307 117.836 301.94 117.338C301.572 116.828 300.992 116.573 300.198 116.573ZM308.481 120.129L305.192 115.471H306.97L309.423 119.062L311.858 115.471H313.618L310.33 120.129L313.796 125H312.018L309.423 121.196L306.792 125H305.032L308.481 120.129ZM319.242 115.311C320.403 115.311 321.262 115.566 321.819 116.076C322.376 116.585 322.655 117.397 322.655 118.511V125H321.517L321.215 123.649H321.144C320.729 124.17 320.29 124.556 319.828 124.804C319.378 125.053 318.75 125.178 317.944 125.178C317.079 125.178 316.362 124.953 315.793 124.502C315.224 124.04 314.939 123.323 314.939 122.351C314.939 121.403 315.313 120.674 316.059 120.164C316.806 119.643 317.956 119.359 319.508 119.311L321.126 119.258V118.689C321.126 117.895 320.954 117.344 320.61 117.036C320.267 116.727 319.781 116.573 319.153 116.573C318.655 116.573 318.181 116.65 317.73 116.804C317.28 116.947 316.859 117.113 316.468 117.302L315.988 116.129C316.403 115.904 316.895 115.714 317.464 115.56C318.033 115.394 318.625 115.311 319.242 115.311ZM319.704 120.396C318.519 120.443 317.695 120.633 317.233 120.964C316.782 121.296 316.557 121.764 316.557 122.369C316.557 122.902 316.717 123.293 317.037 123.542C317.369 123.791 317.79 123.916 318.299 123.916C319.105 123.916 319.775 123.696 320.308 123.258C320.842 122.807 321.108 122.12 321.108 121.196V120.342L319.704 120.396ZM336.051 115.293C337.13 115.293 337.936 115.572 338.469 116.129C339.002 116.674 339.269 117.563 339.269 118.796V125H337.722V118.867C337.722 117.361 337.076 116.609 335.785 116.609C334.86 116.609 334.196 116.876 333.793 117.409C333.402 117.942 333.207 118.719 333.207 119.738V125H331.66V118.867C331.66 117.361 331.008 116.609 329.705 116.609C328.745 116.609 328.081 116.905 327.713 117.498C327.346 118.09 327.162 118.944 327.162 120.058V125H325.598V115.471H326.86L327.091 116.769H327.18C327.476 116.271 327.873 115.904 328.371 115.667C328.881 115.418 329.42 115.293 329.989 115.293C331.482 115.293 332.454 115.827 332.905 116.893H332.993C333.313 116.348 333.746 115.945 334.291 115.684C334.848 115.424 335.435 115.293 336.051 115.293ZM346.746 115.293C347.919 115.293 348.861 115.702 349.573 116.52C350.295 117.338 350.657 118.57 350.657 120.218C350.657 121.841 350.295 123.074 349.573 123.916C348.861 124.757 347.913 125.178 346.728 125.178C345.993 125.178 345.383 125.041 344.897 124.769C344.423 124.484 344.05 124.159 343.777 123.791H343.67C343.694 123.993 343.718 124.247 343.741 124.556C343.765 124.864 343.777 125.13 343.777 125.356V129.267H342.213V115.471H343.493L343.706 116.769H343.777C344.061 116.354 344.435 116.004 344.897 115.72C345.359 115.436 345.975 115.293 346.746 115.293ZM346.461 116.609C345.49 116.609 344.802 116.881 344.399 117.427C344.008 117.972 343.801 118.801 343.777 119.916V120.218C343.777 121.391 343.967 122.298 344.346 122.938C344.737 123.566 345.454 123.88 346.497 123.88C347.078 123.88 347.552 123.72 347.919 123.4C348.298 123.08 348.577 122.647 348.755 122.102C348.944 121.545 349.039 120.911 349.039 120.2C349.039 119.11 348.826 118.239 348.399 117.587C347.984 116.935 347.338 116.609 346.461 116.609ZM354.714 125H353.15V111.489H354.714V125ZM361.413 115.293C362.231 115.293 362.93 115.471 363.511 115.827C364.104 116.182 364.554 116.686 364.862 117.338C365.182 117.978 365.342 118.73 365.342 119.596V120.538H358.818C358.841 121.616 359.114 122.44 359.636 123.009C360.169 123.566 360.91 123.844 361.858 123.844C362.462 123.844 362.996 123.791 363.458 123.684C363.932 123.566 364.418 123.4 364.916 123.187V124.556C364.43 124.769 363.95 124.923 363.476 125.018C363.001 125.124 362.439 125.178 361.787 125.178C360.886 125.178 360.086 124.994 359.387 124.627C358.699 124.259 358.16 123.714 357.769 122.991C357.39 122.256 357.2 121.361 357.2 120.307C357.2 119.264 357.372 118.369 357.716 117.622C358.071 116.876 358.563 116.301 359.191 115.898C359.831 115.495 360.572 115.293 361.413 115.293ZM361.396 116.573C360.649 116.573 360.056 116.816 359.618 117.302C359.191 117.776 358.936 118.44 358.853 119.293H363.707C363.695 118.487 363.505 117.836 363.138 117.338C362.77 116.828 362.19 116.573 361.396 116.573ZM382.839 115.293C383.918 115.293 384.724 115.572 385.257 116.129C385.791 116.674 386.057 117.563 386.057 118.796V125H384.511V118.867C384.511 117.361 383.865 116.609 382.573 116.609C381.648 116.609 380.985 116.876 380.582 117.409C380.191 117.942 379.995 118.719 379.995 119.738V125H378.448V118.867C378.448 117.361 377.796 116.609 376.493 116.609C375.533 116.609 374.869 116.905 374.502 117.498C374.134 118.09 373.951 118.944 373.951 120.058V125H372.386V115.471H373.648L373.879 116.769H373.968C374.265 116.271 374.662 115.904 375.159 115.667C375.669 115.418 376.208 115.293 376.777 115.293C378.271 115.293 379.242 115.827 379.693 116.893H379.782C380.102 116.348 380.534 115.945 381.079 115.684C381.636 115.424 382.223 115.293 382.839 115.293ZM392.681 115.293C393.498 115.293 394.198 115.471 394.778 115.827C395.371 116.182 395.821 116.686 396.13 117.338C396.45 117.978 396.61 118.73 396.61 119.596V120.538H390.085C390.109 121.616 390.381 122.44 390.903 123.009C391.436 123.566 392.177 123.844 393.125 123.844C393.73 123.844 394.263 123.791 394.725 123.684C395.199 123.566 395.685 123.4 396.183 123.187V124.556C395.697 124.769 395.217 124.923 394.743 125.018C394.269 125.124 393.706 125.178 393.054 125.178C392.153 125.178 391.353 124.994 390.654 124.627C389.967 124.259 389.427 123.714 389.036 122.991C388.657 122.256 388.467 121.361 388.467 120.307C388.467 119.264 388.639 118.369 388.983 117.622C389.338 116.876 389.83 116.301 390.458 115.898C391.098 115.495 391.839 115.293 392.681 115.293ZM392.663 116.573C391.916 116.573 391.324 116.816 390.885 117.302C390.458 117.776 390.204 118.44 390.121 119.293H394.974C394.962 118.487 394.773 117.836 394.405 117.338C394.038 116.828 393.457 116.573 392.663 116.573ZM405.24 122.369C405.24 123.293 404.896 123.993 404.209 124.467C403.521 124.941 402.597 125.178 401.435 125.178C400.772 125.178 400.197 125.124 399.711 125.018C399.237 124.911 398.816 124.763 398.449 124.573V123.151C398.828 123.341 399.284 123.519 399.818 123.684C400.363 123.839 400.914 123.916 401.471 123.916C402.265 123.916 402.84 123.791 403.195 123.542C403.551 123.281 403.729 122.938 403.729 122.511C403.729 122.274 403.664 122.061 403.533 121.871C403.403 121.681 403.166 121.492 402.822 121.302C402.49 121.113 402.01 120.899 401.382 120.662C400.766 120.425 400.238 120.188 399.8 119.951C399.361 119.714 399.024 119.43 398.787 119.098C398.549 118.766 398.431 118.339 398.431 117.818C398.431 117.012 398.757 116.39 399.409 115.951C400.072 115.513 400.938 115.293 402.004 115.293C402.585 115.293 403.124 115.353 403.622 115.471C404.132 115.578 404.606 115.732 405.044 115.933L404.511 117.178C404.108 117.012 403.687 116.87 403.249 116.751C402.81 116.633 402.36 116.573 401.898 116.573C401.258 116.573 400.766 116.68 400.422 116.893C400.09 117.095 399.924 117.373 399.924 117.729C399.924 117.99 400.001 118.215 400.155 118.404C400.309 118.582 400.564 118.76 400.92 118.938C401.287 119.104 401.773 119.305 402.378 119.542C402.982 119.767 403.498 119.999 403.924 120.236C404.351 120.473 404.677 120.763 404.902 121.107C405.127 121.439 405.24 121.859 405.24 122.369ZM413.747 122.369C413.747 123.293 413.403 123.993 412.716 124.467C412.028 124.941 411.104 125.178 409.942 125.178C409.279 125.178 408.704 125.124 408.218 125.018C407.744 124.911 407.323 124.763 406.956 124.573V123.151C407.335 123.341 407.791 123.519 408.325 123.684C408.87 123.839 409.421 123.916 409.978 123.916C410.772 123.916 411.347 123.791 411.702 123.542C412.058 123.281 412.236 122.938 412.236 122.511C412.236 122.274 412.171 122.061 412.04 121.871C411.91 121.681 411.673 121.492 411.329 121.302C410.997 121.113 410.517 120.899 409.889 120.662C409.273 120.425 408.745 120.188 408.307 119.951C407.868 119.714 407.531 119.43 407.293 119.098C407.056 118.766 406.938 118.339 406.938 117.818C406.938 117.012 407.264 116.39 407.916 115.951C408.579 115.513 409.445 115.293 410.511 115.293C411.092 115.293 411.631 115.353 412.129 115.471C412.639 115.578 413.113 115.732 413.551 115.933L413.018 117.178C412.615 117.012 412.194 116.87 411.756 116.751C411.317 116.633 410.867 116.573 410.405 116.573C409.765 116.573 409.273 116.68 408.929 116.893C408.597 117.095 408.431 117.373 408.431 117.729C408.431 117.99 408.508 118.215 408.662 118.404C408.816 118.582 409.071 118.76 409.427 118.938C409.794 119.104 410.28 119.305 410.885 119.542C411.489 119.767 412.005 119.999 412.431 120.236C412.858 120.473 413.184 120.763 413.409 121.107C413.634 121.439 413.747 121.859 413.747 122.369ZM419.658 115.311C420.82 115.311 421.679 115.566 422.236 116.076C422.793 116.585 423.072 117.397 423.072 118.511V125H421.934L421.632 123.649H421.56C421.146 124.17 420.707 124.556 420.245 124.804C419.795 125.053 419.166 125.178 418.36 125.178C417.495 125.178 416.778 124.953 416.209 124.502C415.64 124.04 415.356 123.323 415.356 122.351C415.356 121.403 415.729 120.674 416.476 120.164C417.223 119.643 418.372 119.359 419.925 119.311L421.543 119.258V118.689C421.543 117.895 421.371 117.344 421.027 117.036C420.683 116.727 420.197 116.573 419.569 116.573C419.072 116.573 418.597 116.65 418.147 116.804C417.697 116.947 417.276 117.113 416.885 117.302L416.405 116.129C416.82 115.904 417.312 115.714 417.88 115.56C418.449 115.394 419.042 115.311 419.658 115.311ZM420.12 120.396C418.935 120.443 418.112 120.633 417.649 120.964C417.199 121.296 416.974 121.764 416.974 122.369C416.974 122.902 417.134 123.293 417.454 123.542C417.786 123.791 418.206 123.916 418.716 123.916C419.522 123.916 420.192 123.696 420.725 123.258C421.258 122.807 421.525 122.12 421.525 121.196V120.342L420.12 120.396ZM429.392 115.293C430.021 115.293 430.583 115.412 431.081 115.649C431.591 115.886 432.023 116.247 432.379 116.733H432.468L432.681 115.471H433.926V125.16C433.926 126.523 433.576 127.548 432.877 128.236C432.189 128.923 431.117 129.267 429.659 129.267C428.261 129.267 427.117 129.065 426.228 128.662V127.222C427.164 127.72 428.338 127.969 429.748 127.969C430.566 127.969 431.206 127.726 431.668 127.24C432.142 126.766 432.379 126.114 432.379 125.284V124.911C432.379 124.769 432.385 124.567 432.397 124.307C432.409 124.034 432.421 123.844 432.432 123.738H432.361C431.721 124.698 430.738 125.178 429.41 125.178C428.178 125.178 427.212 124.745 426.512 123.88C425.825 123.015 425.481 121.806 425.481 120.253C425.481 118.736 425.825 117.533 426.512 116.644C427.212 115.744 428.172 115.293 429.392 115.293ZM429.606 116.609C428.812 116.609 428.195 116.929 427.757 117.569C427.318 118.197 427.099 119.098 427.099 120.271C427.099 121.444 427.312 122.345 427.739 122.973C428.178 123.59 428.812 123.898 429.641 123.898C430.601 123.898 431.301 123.643 431.739 123.133C432.178 122.612 432.397 121.776 432.397 120.627V120.253C432.397 118.95 432.172 118.019 431.721 117.462C431.271 116.893 430.566 116.609 429.606 116.609ZM440.632 115.293C441.45 115.293 442.149 115.471 442.73 115.827C443.322 116.182 443.773 116.686 444.081 117.338C444.401 117.978 444.561 118.73 444.561 119.596V120.538H438.037C438.06 121.616 438.333 122.44 438.854 123.009C439.388 123.566 440.128 123.844 441.077 123.844C441.681 123.844 442.214 123.791 442.677 123.684C443.151 123.566 443.637 123.4 444.134 123.187V124.556C443.648 124.769 443.168 124.923 442.694 125.018C442.22 125.124 441.657 125.178 441.005 125.178C440.105 125.178 439.305 124.994 438.605 124.627C437.918 124.259 437.379 123.714 436.988 122.991C436.608 122.256 436.419 121.361 436.419 120.307C436.419 119.264 436.591 118.369 436.934 117.622C437.29 116.876 437.782 116.301 438.41 115.898C439.05 115.495 439.791 115.293 440.632 115.293ZM440.614 116.573C439.868 116.573 439.275 116.816 438.837 117.302C438.41 117.776 438.155 118.44 438.072 119.293H442.925C442.914 118.487 442.724 117.836 442.357 117.338C441.989 116.828 441.408 116.573 440.614 116.573ZM446.756 124.04C446.756 123.601 446.862 123.293 447.076 123.116C447.289 122.938 447.544 122.849 447.84 122.849C448.148 122.849 448.409 122.938 448.622 123.116C448.848 123.293 448.96 123.601 448.96 124.04C448.96 124.467 448.848 124.775 448.622 124.964C448.409 125.154 448.148 125.249 447.84 125.249C447.544 125.249 447.289 125.154 447.076 124.964C446.862 124.775 446.756 124.467 446.756 124.04Z" fill="#545961"/>
<g filter="url(#filter0_d_8891_43060)">
<path d="M385 139V181" stroke="#B3800F" stroke-width="2"/>
</g>
<path d="M315.087 198.545C313.725 198.545 312.654 199.001 311.872 199.912C311.091 200.824 310.7 202.073 310.7 203.66C310.7 205.234 311.061 206.484 311.783 207.407C312.518 208.319 313.613 208.775 315.069 208.775C315.626 208.775 316.152 208.727 316.65 208.632C317.147 208.538 317.632 208.419 318.106 208.277V209.663C317.632 209.84 317.141 209.97 316.632 210.053C316.135 210.136 315.537 210.178 314.838 210.178C313.548 210.178 312.47 209.911 311.606 209.378C310.742 208.846 310.09 208.088 309.652 207.105C309.226 206.122 309.013 204.968 309.013 203.642C309.013 202.363 309.244 201.238 309.706 200.268C310.179 199.285 310.872 198.521 311.783 197.976C312.695 197.42 313.802 197.142 315.105 197.142C316.442 197.142 317.609 197.39 318.603 197.888L317.964 199.237C317.573 199.06 317.135 198.9 316.65 198.758C316.176 198.616 315.655 198.545 315.087 198.545ZM322.223 200.463C322.223 200.936 322.194 201.38 322.135 201.795H322.241C322.549 201.309 322.963 200.942 323.484 200.694C324.017 200.445 324.591 200.321 325.207 200.321C326.367 200.321 327.238 200.599 327.818 201.156C328.398 201.7 328.688 202.582 328.688 203.802V210H327.143V203.908C327.143 202.381 326.433 201.617 325.012 201.617C323.946 201.617 323.212 201.919 322.81 202.523C322.419 203.115 322.223 203.968 322.223 205.08V210H320.661V196.502H322.223V200.463ZM335.315 200.303C336.132 200.303 336.831 200.481 337.411 200.836C338.003 201.191 338.453 201.694 338.761 202.345C339.081 202.985 339.24 203.737 339.24 204.601V205.542H332.722C332.746 206.62 333.018 207.443 333.539 208.011C334.072 208.567 334.812 208.846 335.759 208.846C336.363 208.846 336.896 208.792 337.358 208.686C337.831 208.567 338.317 208.402 338.814 208.188V209.556C338.329 209.769 337.849 209.923 337.376 210.018C336.902 210.124 336.34 210.178 335.688 210.178C334.789 210.178 333.989 209.994 333.291 209.627C332.604 209.26 332.065 208.715 331.675 207.993C331.296 207.259 331.106 206.365 331.106 205.311C331.106 204.269 331.278 203.376 331.621 202.63C331.977 201.884 332.468 201.309 333.095 200.907C333.735 200.504 334.475 200.303 335.315 200.303ZM335.298 201.582C334.552 201.582 333.96 201.824 333.522 202.31C333.095 202.784 332.841 203.447 332.758 204.299H337.606C337.595 203.494 337.405 202.843 337.038 202.345C336.671 201.836 336.091 201.582 335.298 201.582ZM345.482 210.178C344.642 210.178 343.89 210.006 343.227 209.663C342.576 209.319 342.06 208.786 341.682 208.064C341.315 207.342 341.131 206.418 341.131 205.294C341.131 204.121 341.326 203.168 341.717 202.434C342.108 201.7 342.635 201.161 343.298 200.818C343.973 200.475 344.736 200.303 345.589 200.303C346.074 200.303 346.542 200.356 346.992 200.463C347.442 200.558 347.809 200.676 348.093 200.818L347.613 202.115C347.329 202.008 346.998 201.907 346.619 201.813C346.24 201.718 345.885 201.671 345.553 201.671C343.683 201.671 342.747 202.872 342.747 205.276C342.747 206.424 342.972 207.306 343.422 207.922C343.884 208.526 344.565 208.828 345.464 208.828C345.985 208.828 346.441 208.775 346.832 208.668C347.235 208.561 347.602 208.431 347.933 208.277V209.663C347.613 209.828 347.258 209.953 346.868 210.036C346.489 210.13 346.027 210.178 345.482 210.178ZM351.742 203.553C351.742 203.743 351.73 203.991 351.707 204.299C351.695 204.607 351.683 204.873 351.671 205.098H351.742C351.813 205.004 351.92 204.867 352.062 204.69C352.204 204.512 352.346 204.335 352.488 204.157C352.642 203.968 352.772 203.814 352.879 203.695L355.916 200.481H357.745L353.891 204.548L358.011 210H356.129L352.825 205.56L351.742 206.501V210H350.197V196.502H351.742V203.553ZM361.247 199.788C361.247 200.191 361.235 200.569 361.211 200.925C361.199 201.268 361.182 201.54 361.158 201.742H361.247C361.519 201.339 361.892 201.002 362.366 200.729C362.839 200.457 363.449 200.321 364.195 200.321C365.379 200.321 366.326 200.735 367.037 201.564C367.759 202.381 368.12 203.606 368.12 205.24C368.12 206.874 367.759 208.106 367.037 208.934C366.314 209.763 365.367 210.178 364.195 210.178C363.449 210.178 362.839 210.041 362.366 209.769C361.892 209.497 361.519 209.171 361.247 208.792H361.123L360.803 210H359.684V196.502H361.247V199.788ZM363.929 201.617C362.922 201.617 362.224 201.907 361.833 202.488C361.442 203.068 361.247 203.968 361.247 205.187V205.258C361.247 206.43 361.436 207.33 361.815 207.958C362.206 208.573 362.922 208.881 363.964 208.881C364.817 208.881 365.45 208.567 365.864 207.94C366.291 207.312 366.504 206.407 366.504 205.223C366.504 202.819 365.645 201.617 363.929 201.617ZM378.887 205.223C378.887 206.797 378.484 208.017 377.679 208.881C376.886 209.745 375.808 210.178 374.447 210.178C373.606 210.178 372.854 209.988 372.191 209.609C371.54 209.219 371.025 208.656 370.646 207.922C370.267 207.176 370.078 206.276 370.078 205.223C370.078 203.648 370.474 202.434 371.268 201.582C372.061 200.729 373.138 200.303 374.5 200.303C375.364 200.303 376.122 200.498 376.773 200.889C377.436 201.268 377.951 201.824 378.318 202.559C378.697 203.281 378.887 204.169 378.887 205.223ZM371.694 205.223C371.694 206.347 371.913 207.241 372.351 207.904C372.801 208.556 373.511 208.881 374.482 208.881C375.441 208.881 376.146 208.556 376.596 207.904C377.046 207.241 377.271 206.347 377.271 205.223C377.271 204.098 377.046 203.216 376.596 202.576C376.146 201.937 375.435 201.617 374.464 201.617C373.494 201.617 372.789 201.937 372.351 202.576C371.913 203.216 371.694 204.098 371.694 205.223ZM383.272 205.134L379.987 200.481H381.763L384.214 204.068L386.647 200.481H388.405L385.119 205.134L388.583 210H386.807L384.214 206.199L381.585 210H379.827L383.272 205.134ZM396.593 200.463C396.593 200.936 396.564 201.38 396.505 201.795H396.611C396.919 201.309 397.333 200.942 397.854 200.694C398.387 200.445 398.961 200.321 399.577 200.321C400.737 200.321 401.608 200.599 402.188 201.156C402.768 201.7 403.058 202.582 403.058 203.802V210H401.513V203.908C401.513 202.381 400.803 201.617 399.382 201.617C398.316 201.617 397.582 201.919 397.18 202.523C396.789 203.115 396.593 203.968 396.593 205.08V210H395.031V196.502H396.593V200.463ZM406.808 196.911C407.045 196.911 407.252 196.994 407.43 197.16C407.619 197.313 407.714 197.562 407.714 197.905C407.714 198.237 407.619 198.486 407.43 198.651C407.252 198.817 407.045 198.9 406.808 198.9C406.548 198.9 406.329 198.817 406.151 198.651C405.974 198.486 405.885 198.237 405.885 197.905C405.885 197.562 405.974 197.313 406.151 197.16C406.329 196.994 406.548 196.911 406.808 196.911ZM407.572 200.481V210H406.009V200.481H407.572ZM415.17 200.303C416.307 200.303 417.165 200.581 417.745 201.138C418.325 201.682 418.615 202.57 418.615 203.802V210H417.07V203.908C417.07 202.381 416.36 201.617 414.939 201.617C413.885 201.617 413.157 201.913 412.755 202.505C412.352 203.097 412.151 203.95 412.151 205.063V210H410.588V200.481H411.849L412.08 201.777H412.169C412.476 201.28 412.903 200.913 413.447 200.676C413.992 200.427 414.566 200.303 415.17 200.303ZM424.746 208.899C424.982 208.899 425.225 208.881 425.474 208.846C425.722 208.798 425.924 208.751 426.078 208.704V209.893C425.912 209.976 425.675 210.041 425.367 210.089C425.059 210.148 424.763 210.178 424.479 210.178C423.982 210.178 423.52 210.095 423.094 209.929C422.679 209.751 422.342 209.449 422.082 209.023C421.821 208.597 421.691 207.999 421.691 207.229V201.688H420.341V200.942L421.709 200.321L422.33 198.296H423.254V200.481H426.006V201.688H423.254V207.194C423.254 207.774 423.39 208.206 423.662 208.49C423.946 208.763 424.307 208.899 424.746 208.899ZM435.776 208.899C436.013 208.899 436.256 208.881 436.504 208.846C436.753 208.798 436.954 208.751 437.108 208.704V209.893C436.942 209.976 436.706 210.041 436.398 210.089C436.09 210.148 435.794 210.178 435.51 210.178C435.012 210.178 434.551 210.095 434.124 209.929C433.71 209.751 433.373 209.449 433.112 209.023C432.852 208.597 432.721 207.999 432.721 207.229V201.688H431.372V200.942L432.739 200.321L433.361 198.296H434.284V200.481H437.037V201.688H434.284V207.194C434.284 207.774 434.42 208.206 434.693 208.49C434.977 208.763 435.338 208.899 435.776 208.899ZM442.691 200.303C443.508 200.303 444.206 200.481 444.786 200.836C445.378 201.191 445.828 201.694 446.136 202.345C446.456 202.985 446.616 203.737 446.616 204.601V205.542H440.098C440.121 206.62 440.394 207.443 440.915 208.011C441.447 208.567 442.187 208.846 443.135 208.846C443.738 208.846 444.271 208.792 444.733 208.686C445.207 208.567 445.692 208.402 446.189 208.188V209.556C445.704 209.769 445.224 209.923 444.751 210.018C444.277 210.124 443.715 210.178 443.064 210.178C442.164 210.178 441.365 209.994 440.666 209.627C439.979 209.26 439.441 208.715 439.05 207.993C438.671 207.259 438.481 206.365 438.481 205.311C438.481 204.269 438.653 203.376 438.997 202.63C439.352 201.884 439.843 201.309 440.471 200.907C441.11 200.504 441.85 200.303 442.691 200.303ZM442.673 201.582C441.927 201.582 441.335 201.824 440.897 202.31C440.471 202.784 440.216 203.447 440.133 204.299H444.982C444.97 203.494 444.78 202.843 444.413 202.345C444.046 201.836 443.466 201.582 442.673 201.582ZM450.948 205.134L447.662 200.481H449.438L451.889 204.068L454.322 200.481H456.08L452.795 205.134L456.258 210H454.482L451.889 206.199L449.26 210H447.502L450.948 205.134ZM461.271 208.899C461.508 208.899 461.751 208.881 462 208.846C462.248 208.798 462.45 208.751 462.603 208.704V209.893C462.438 209.976 462.201 210.041 461.893 210.089C461.585 210.148 461.289 210.178 461.005 210.178C460.508 210.178 460.046 210.095 459.62 209.929C459.205 209.751 458.868 209.449 458.607 209.023C458.347 208.597 458.217 207.999 458.217 207.229V201.688H456.867V200.942L458.234 200.321L458.856 198.296H459.78V200.481H462.532V201.688H459.78V207.194C459.78 207.774 459.916 208.206 460.188 208.49C460.472 208.763 460.833 208.899 461.271 208.899Z" fill="black"/>
<rect x="293" y="182" width="184" height="42" stroke="#B3800F" stroke-width="2"/>
<path d="M22.1793 87.5448C20.8177 87.5448 19.7462 88.0006 18.9648 88.9123C18.1833 89.824 17.7926 91.0731 17.7926 92.6597C17.7926 94.2344 18.1537 95.4835 18.876 96.407C19.61 97.3187 20.7052 97.7746 22.1616 97.7746C22.718 97.7746 23.2449 97.7272 23.7422 97.6325C24.2395 97.5378 24.7249 97.4194 25.1985 97.2773V98.6626C24.7249 98.8402 24.2336 98.9704 23.7244 99.0533C23.2272 99.1362 22.6292 99.1776 21.9307 99.1776C20.6401 99.1776 19.5627 98.9112 18.6984 98.3784C17.834 97.8456 17.1828 97.0878 16.7448 96.1051C16.3185 95.1224 16.1054 93.968 16.1054 92.6419C16.1054 91.3632 16.3363 90.2384 16.798 89.2675C17.2716 88.2848 17.9643 87.5211 18.876 86.9765C19.7876 86.42 20.8947 86.1418 22.1971 86.1418C23.535 86.1418 24.7012 86.3904 25.6958 86.8877L25.0564 88.2374C24.6657 88.0598 24.2276 87.9 23.7422 87.7579C23.2686 87.6158 22.7476 87.5448 22.1793 87.5448ZM29.3159 89.4629C29.3159 89.9365 29.2863 90.3805 29.2271 90.7949H29.3337C29.6415 90.3094 30.0559 89.9424 30.5769 89.6938C31.1097 89.4451 31.6839 89.3208 32.2996 89.3208C33.4599 89.3208 34.3302 89.599 34.9103 90.1555C35.4905 90.7002 35.7806 91.5822 35.7806 92.8018V99H34.2354V92.9083C34.2354 91.381 33.525 90.6173 32.1042 90.6173C31.0386 90.6173 30.3046 90.9192 29.902 91.523C29.5113 92.115 29.3159 92.9675 29.3159 94.0805V99H27.753V85.5024H29.3159V89.4629ZM42.408 89.303C43.2249 89.303 43.9235 89.4806 44.5036 89.8358C45.0956 90.191 45.5456 90.6942 45.8534 91.3454C46.1731 91.9848 46.3329 92.7366 46.3329 93.601V94.5422H39.815C39.8387 95.6197 40.111 96.4426 40.632 97.0109C41.1648 97.5674 41.9048 97.8456 42.852 97.8456C43.4558 97.8456 43.9886 97.7923 44.4504 97.6858C44.924 97.5674 45.4094 97.4016 45.9067 97.1885V98.556C45.4212 98.7691 44.9417 98.923 44.4681 99.0178C43.9945 99.1243 43.4321 99.1776 42.7809 99.1776C41.8811 99.1776 41.0819 98.9941 40.3833 98.627C39.6966 98.26 39.1579 97.7154 38.7672 96.9931C38.3883 96.259 38.1988 95.3651 38.1988 94.3114C38.1988 93.2694 38.3705 92.3755 38.7139 91.6296C39.0691 90.8837 39.5604 90.3094 40.188 89.9069C40.8273 89.5043 41.5673 89.303 42.408 89.303ZM42.3902 90.5818C41.6443 90.5818 41.0523 90.8245 40.6142 91.3099C40.188 91.7835 39.9334 92.4466 39.8505 93.299H44.699C44.6872 92.4939 44.4977 91.8427 44.1307 91.3454C43.7636 90.8363 43.1835 90.5818 42.3902 90.5818ZM52.5747 99.1776C51.7341 99.1776 50.9822 99.0059 50.3192 98.6626C49.668 98.3192 49.153 97.7864 48.7741 97.0642C48.407 96.3419 48.2235 95.4184 48.2235 94.2936C48.2235 93.1214 48.4189 92.1683 48.8096 91.4342C49.2003 90.7002 49.7272 90.1614 50.3902 89.8181C51.0651 89.4747 51.8288 89.303 52.6813 89.303C53.1667 89.303 53.6344 89.3563 54.0843 89.4629C54.5342 89.5576 54.9013 89.676 55.1854 89.8181L54.7059 91.1146C54.4218 91.008 54.0902 90.9074 53.7114 90.8126C53.3325 90.7179 52.9773 90.6706 52.6458 90.6706C50.775 90.6706 49.8397 91.8723 49.8397 94.2758C49.8397 95.4243 50.0646 96.3064 50.5146 96.9221C50.9763 97.5259 51.6571 97.8278 52.557 97.8278C53.0779 97.8278 53.5338 97.7746 53.9245 97.668C54.327 97.5614 54.6941 97.4312 55.0256 97.2773V98.6626C54.7059 98.8283 54.3507 98.9526 53.96 99.0355C53.5811 99.1302 53.1194 99.1776 52.5747 99.1776ZM58.8346 92.5531C58.8346 92.7426 58.8227 92.9912 58.799 93.299C58.7872 93.6069 58.7754 93.8733 58.7635 94.0982H58.8346C58.9056 94.0035 59.0122 93.8674 59.1542 93.6898C59.2963 93.5122 59.4384 93.3346 59.5805 93.157C59.7344 92.9675 59.8646 92.8136 59.9712 92.6952L63.0082 89.4806H64.8374L60.9835 93.5477L65.1038 99H63.2213L59.9179 94.56L58.8346 95.5013V99H57.2894V85.5024H58.8346V92.5531ZM68.3394 88.788C68.3394 89.1906 68.3275 89.5694 68.3038 89.9246C68.292 90.268 68.2742 90.5403 68.2506 90.7416H68.3394C68.6117 90.339 68.9846 90.0016 69.4582 89.7293C69.9318 89.457 70.5416 89.3208 71.2875 89.3208C72.4715 89.3208 73.4187 89.7352 74.1291 90.564C74.8514 91.381 75.2125 92.6064 75.2125 94.2403C75.2125 95.8742 74.8514 97.1056 74.1291 97.9344C73.4069 98.7632 72.4597 99.1776 71.2875 99.1776C70.5416 99.1776 69.9318 99.0414 69.4582 98.7691C68.9846 98.4968 68.6117 98.1712 68.3394 97.7923H68.215L67.8954 99H66.7765V85.5024H68.3394V88.788ZM71.0211 90.6173C70.0147 90.6173 69.3162 90.9074 68.9254 91.4875C68.5347 92.0677 68.3394 92.9675 68.3394 94.187V94.2581C68.3394 95.4302 68.5288 96.3301 68.9077 96.9576C69.2984 97.5733 70.0147 97.8811 71.0566 97.8811C71.9091 97.8811 72.5426 97.5674 72.957 96.9398C73.3832 96.3123 73.5963 95.4066 73.5963 94.2226C73.5963 91.819 72.7379 90.6173 71.0211 90.6173ZM85.9792 94.2226C85.9792 95.7973 85.5766 97.0168 84.7715 97.8811C83.9782 98.7454 82.9008 99.1776 81.5392 99.1776C80.6986 99.1776 79.9467 98.9882 79.2837 98.6093C78.6325 98.2186 78.1174 97.6562 77.7386 96.9221C77.3597 96.1762 77.1702 95.2763 77.1702 94.2226C77.1702 92.6478 77.5669 91.4342 78.3602 90.5818C79.1534 89.7293 80.2309 89.303 81.5925 89.303C82.4568 89.303 83.2146 89.4984 83.8658 89.8891C84.5288 90.268 85.0438 90.8245 85.4109 91.5586C85.7898 92.2808 85.9792 93.1688 85.9792 94.2226ZM78.7864 94.2226C78.7864 95.3474 79.0054 96.2413 79.4435 96.9043C79.8934 97.5555 80.6038 97.8811 81.5747 97.8811C82.5338 97.8811 83.2382 97.5555 83.6882 96.9043C84.1381 96.2413 84.363 95.3474 84.363 94.2226C84.363 93.0978 84.1381 92.2157 83.6882 91.5763C83.2382 90.937 82.5278 90.6173 81.557 90.6173C80.5861 90.6173 79.8816 90.937 79.4435 91.5763C79.0054 92.2157 78.7864 93.0978 78.7864 94.2226ZM90.3648 94.1338L87.0792 89.4806H88.8552L91.3061 93.0682L93.7392 89.4806H95.4974L92.2118 94.1338L95.675 99H93.899L91.3061 95.1994L88.6776 99H86.9194L90.3648 94.1338Z" fill="black"/>
<rect x="1" y="71" width="109" height="42" stroke="#B3800F" stroke-width="2"/>
<g filter="url(#filter1_d_8891_43060)">
<path d="M176 92H111" stroke="#B3800F" stroke-width="2"/>
</g>
<g filter="url(#filter2_d_8891_43060)">
<path d="M462 91H307" stroke="#B3800F" stroke-width="2"/>
</g>
<path d="M484.502 86.5448C483.14 86.5448 482.069 87.0006 481.287 87.9123C480.506 88.824 480.115 90.0731 480.115 91.6597C480.115 93.2344 480.476 94.4835 481.198 95.407C481.933 96.3187 483.028 96.7746 484.484 96.7746C485.041 96.7746 485.567 96.7272 486.065 96.6325C486.562 96.5378 487.047 96.4194 487.521 96.2773V97.6626C487.047 97.8402 486.556 97.9704 486.047 98.0533C485.55 98.1362 484.952 98.1776 484.253 98.1776C482.963 98.1776 481.885 97.9112 481.021 97.3784C480.157 96.8456 479.505 96.0878 479.067 95.1051C478.641 94.1224 478.428 92.968 478.428 91.6419C478.428 90.3632 478.659 89.2384 479.121 88.2675C479.594 87.2848 480.287 86.5211 481.198 85.9765C482.11 85.42 483.217 85.1418 484.52 85.1418C485.857 85.1418 487.024 85.3904 488.018 85.8877L487.379 87.2374C486.988 87.0598 486.55 86.9 486.065 86.7579C485.591 86.6158 485.07 86.5448 484.502 86.5448ZM491.638 88.4629C491.638 88.9365 491.609 89.3805 491.55 89.7949H491.656C491.964 89.3094 492.378 88.9424 492.899 88.6938C493.432 88.4451 494.006 88.3208 494.622 88.3208C495.782 88.3208 496.653 88.599 497.233 89.1555C497.813 89.7002 498.103 90.5822 498.103 91.8018V98H496.558V91.9083C496.558 90.381 495.848 89.6173 494.427 89.6173C493.361 89.6173 492.627 89.9192 492.224 90.523C491.834 91.115 491.638 91.9675 491.638 93.0805V98H490.076V84.5024H491.638V88.4629ZM504.73 88.303C505.547 88.303 506.246 88.4806 506.826 88.8358C507.418 89.191 507.868 89.6942 508.176 90.3454C508.496 90.9848 508.655 91.7366 508.655 92.601V93.5422H502.137C502.161 94.6197 502.433 95.4426 502.954 96.0109C503.487 96.5674 504.227 96.8456 505.174 96.8456C505.778 96.8456 506.311 96.7923 506.773 96.6858C507.246 96.5674 507.732 96.4016 508.229 96.1885V97.556C507.744 97.7691 507.264 97.923 506.791 98.0178C506.317 98.1243 505.755 98.1776 505.103 98.1776C504.204 98.1776 503.404 97.9941 502.706 97.627C502.019 97.26 501.48 96.7154 501.09 95.9931C500.711 95.259 500.521 94.3651 500.521 93.3114C500.521 92.2694 500.693 91.3755 501.036 90.6296C501.392 89.8837 501.883 89.3094 502.51 88.9069C503.15 88.5043 503.89 88.303 504.73 88.303ZM504.713 89.5818C503.967 89.5818 503.375 89.8245 502.937 90.3099C502.51 90.7835 502.256 91.4466 502.173 92.299H507.021C507.01 91.4939 506.82 90.8427 506.453 90.3454C506.086 89.8363 505.506 89.5818 504.713 89.5818ZM514.897 98.1776C514.057 98.1776 513.305 98.0059 512.642 97.6626C511.99 97.3192 511.475 96.7864 511.097 96.0642C510.73 95.3419 510.546 94.4184 510.546 93.2936C510.546 92.1214 510.741 91.1683 511.132 90.4342C511.523 89.7002 512.05 89.1614 512.713 88.8181C513.388 88.4747 514.151 88.303 515.004 88.303C515.489 88.303 515.957 88.3563 516.407 88.4629C516.857 88.5576 517.224 88.676 517.508 88.8181L517.028 90.1146C516.744 90.008 516.413 89.9074 516.034 89.8126C515.655 89.7179 515.3 89.6706 514.968 89.6706C513.098 89.6706 512.162 90.8723 512.162 93.2758C512.162 94.4243 512.387 95.3064 512.837 95.9221C513.299 96.5259 513.98 96.8278 514.879 96.8278C515.4 96.8278 515.856 96.7746 516.247 96.668C516.65 96.5614 517.017 96.4312 517.348 96.2773V97.6626C517.028 97.8283 516.673 97.9526 516.282 98.0355C515.904 98.1302 515.442 98.1776 514.897 98.1776ZM521.157 91.5531C521.157 91.7426 521.145 91.9912 521.122 92.299C521.11 92.6069 521.098 92.8733 521.086 93.0982H521.157C521.228 93.0035 521.335 92.8674 521.477 92.6898C521.619 92.5122 521.761 92.3346 521.903 92.157C522.057 91.9675 522.187 91.8136 522.294 91.6952L525.331 88.4806H527.16L523.306 92.5477L527.426 98H525.544L522.24 93.56L521.157 94.5013V98H519.612V84.5024H521.157V91.5531ZM530.662 87.788C530.662 88.1906 530.65 88.5694 530.626 88.9246C530.614 89.268 530.597 89.5403 530.573 89.7416H530.662C530.934 89.339 531.307 89.0016 531.781 88.7293C532.254 88.457 532.864 88.3208 533.61 88.3208C534.794 88.3208 535.741 88.7352 536.452 89.564C537.174 90.381 537.535 91.6064 537.535 93.2403C537.535 94.8742 537.174 96.1056 536.452 96.9344C535.729 97.7632 534.782 98.1776 533.61 98.1776C532.864 98.1776 532.254 98.0414 531.781 97.7691C531.307 97.4968 530.934 97.1712 530.662 96.7923H530.538L530.218 98H529.099V84.5024H530.662V87.788ZM533.344 89.6173C532.337 89.6173 531.639 89.9074 531.248 90.4875C530.857 91.0677 530.662 91.9675 530.662 93.187V93.2581C530.662 94.4302 530.851 95.3301 531.23 95.9576C531.621 96.5733 532.337 96.8811 533.379 96.8811C534.232 96.8811 534.865 96.5674 535.279 95.9398C535.706 95.3123 535.919 94.4066 535.919 93.2226C535.919 90.819 535.06 89.6173 533.344 89.6173ZM548.302 93.2226C548.302 94.7973 547.899 96.0168 547.094 96.8811C546.301 97.7454 545.223 98.1776 543.862 98.1776C543.021 98.1776 542.269 97.9882 541.606 97.6093C540.955 97.2186 540.44 96.6562 540.061 95.9221C539.682 95.1762 539.493 94.2763 539.493 93.2226C539.493 91.6478 539.889 90.4342 540.683 89.5818C541.476 88.7293 542.553 88.303 543.915 88.303C544.779 88.303 545.537 88.4984 546.188 88.8891C546.851 89.268 547.366 89.8245 547.733 90.5586C548.112 91.2808 548.302 92.1688 548.302 93.2226ZM541.109 93.2226C541.109 94.3474 541.328 95.2413 541.766 95.9043C542.216 96.5555 542.926 96.8811 543.897 96.8811C544.856 96.8811 545.561 96.5555 546.011 95.9043C546.461 95.2413 546.686 94.3474 546.686 93.2226C546.686 92.0978 546.461 91.2157 546.011 90.5763C545.561 89.937 544.85 89.6173 543.879 89.6173C542.909 89.6173 542.204 89.937 541.766 90.5763C541.328 91.2157 541.109 92.0978 541.109 93.2226ZM552.687 93.1338L549.402 88.4806H551.178L553.629 92.0682L556.062 88.4806H557.82L554.534 93.1338L557.998 98H556.222L553.629 94.1994L551 98H549.242L552.687 93.1338ZM566.008 98H564.446V84.5024H566.008V98ZM572.63 88.3208C573.79 88.3208 574.648 88.5754 575.205 89.0845C575.761 89.5936 576.039 90.4046 576.039 91.5176V98H574.903L574.601 96.6502H574.53C574.115 97.1712 573.677 97.556 573.216 97.8046C572.766 98.0533 572.138 98.1776 571.333 98.1776C570.469 98.1776 569.752 97.9526 569.184 97.5027C568.616 97.041 568.332 96.3246 568.332 95.3538C568.332 94.4066 568.705 93.6784 569.451 93.1693C570.196 92.6483 571.345 92.3642 572.896 92.3168L574.512 92.2635V91.6952C574.512 90.9019 574.34 90.3514 573.997 90.0435C573.654 89.7357 573.168 89.5818 572.541 89.5818C572.043 89.5818 571.57 89.6587 571.12 89.8126C570.67 89.9547 570.25 90.1205 569.859 90.3099L569.379 89.1378C569.794 88.9128 570.285 88.7234 570.854 88.5694C571.422 88.4037 572.014 88.3208 572.63 88.3208ZM573.091 93.4002C571.907 93.4475 571.084 93.637 570.623 93.9685C570.173 94.3 569.948 94.7677 569.948 95.3715C569.948 95.9043 570.108 96.295 570.427 96.5437C570.759 96.7923 571.179 96.9166 571.688 96.9166C572.493 96.9166 573.162 96.6976 573.695 96.2595C574.228 95.8096 574.494 95.1229 574.494 94.1994V93.3469L573.091 93.4002ZM580.542 87.788C580.542 88.1906 580.531 88.5694 580.507 88.9246C580.495 89.268 580.477 89.5403 580.454 89.7416H580.542C580.815 89.339 581.188 89.0016 581.661 88.7293C582.135 88.457 582.745 88.3208 583.491 88.3208C584.675 88.3208 585.622 88.7352 586.332 89.564C587.054 90.381 587.416 91.6064 587.416 93.2403C587.416 94.8742 587.054 96.1056 586.332 96.9344C585.61 97.7632 584.663 98.1776 583.491 98.1776C582.745 98.1776 582.135 98.0414 581.661 97.7691C581.188 97.4968 580.815 97.1712 580.542 96.7923H580.418L580.098 98H578.98V84.5024H580.542V87.788ZM583.224 89.6173C582.218 89.6173 581.519 89.9074 581.129 90.4875C580.738 91.0677 580.542 91.9675 580.542 93.187V93.2581C580.542 94.4302 580.732 95.3301 581.111 95.9576C581.502 96.5733 582.218 96.8811 583.26 96.8811C584.112 96.8811 584.746 96.5674 585.16 95.9398C585.586 95.3123 585.799 94.4066 585.799 93.2226C585.799 90.819 584.941 89.6173 583.224 89.6173ZM593.582 88.303C594.399 88.303 595.098 88.4806 595.678 88.8358C596.27 89.191 596.72 89.6942 597.028 90.3454C597.348 90.9848 597.507 91.7366 597.507 92.601V93.5422H590.99C591.013 94.6197 591.286 95.4426 591.806 96.0109C592.339 96.5674 593.079 96.8456 594.026 96.8456C594.63 96.8456 595.163 96.7923 595.625 96.6858C596.098 96.5674 596.584 96.4016 597.081 96.1885V97.556C596.596 97.7691 596.116 97.923 595.643 98.0178C595.169 98.1243 594.607 98.1776 593.955 98.1776C593.056 98.1776 592.256 97.9941 591.558 97.627C590.871 97.26 590.332 96.7154 589.942 95.9931C589.563 95.259 589.373 94.3651 589.373 93.3114C589.373 92.2694 589.545 91.3755 589.888 90.6296C590.244 89.8837 590.735 89.3094 591.362 88.9069C592.002 88.5043 592.742 88.303 593.582 88.303ZM593.565 89.5818C592.819 89.5818 592.227 89.8245 591.789 90.3099C591.362 90.7835 591.108 91.4466 591.025 92.299H595.874C595.862 91.4939 595.672 90.8427 595.305 90.3454C594.938 89.8363 594.358 89.5818 593.565 89.5818ZM601.494 98H599.931V84.5024H601.494V98Z" fill="black"/>
<rect x="463" y="70" width="154" height="42" stroke="#B3800F" stroke-width="2"/>
<path d="M165.536 17.5448C164.174 17.5448 163.103 18.0006 162.321 18.9123C161.54 19.824 161.149 21.0731 161.149 22.6597C161.149 24.2344 161.51 25.4835 162.232 26.407C162.966 27.3187 164.062 27.7746 165.518 27.7746C166.074 27.7746 166.601 27.7272 167.099 27.6325C167.596 27.5378 168.081 27.4194 168.555 27.2773V28.6626C168.081 28.8402 167.59 28.9704 167.081 29.0533C166.584 29.1362 165.986 29.1776 165.287 29.1776C163.997 29.1776 162.919 28.9112 162.055 28.3784C161.19 27.8456 160.539 27.0878 160.101 26.1051C159.675 25.1224 159.462 23.968 159.462 22.6419C159.462 21.3632 159.693 20.2384 160.154 19.2675C160.628 18.2848 161.321 17.5211 162.232 16.9765C163.144 16.42 164.251 16.1418 165.553 16.1418C166.891 16.1418 168.058 16.3904 169.052 16.8877L168.413 18.2374C168.022 18.0598 167.584 17.9 167.099 17.7579C166.625 17.6158 166.104 17.5448 165.536 17.5448ZM172.672 19.4629C172.672 19.9365 172.643 20.3805 172.584 20.7949H172.69C172.998 20.3094 173.412 19.9424 173.933 19.6938C174.466 19.4451 175.04 19.3208 175.656 19.3208C176.816 19.3208 177.687 19.599 178.267 20.1555C178.847 20.7002 179.137 21.5822 179.137 22.8018V29H177.592V22.9083C177.592 21.381 176.881 20.6173 175.461 20.6173C174.395 20.6173 173.661 20.9192 173.258 21.523C172.868 22.115 172.672 22.9675 172.672 24.0805V29H171.109V15.5024H172.672V19.4629ZM185.764 19.303C186.581 19.303 187.28 19.4806 187.86 19.8358C188.452 20.191 188.902 20.6942 189.21 21.3454C189.529 21.9848 189.689 22.7366 189.689 23.601V24.5422H183.171C183.195 25.6197 183.467 26.4426 183.988 27.0109C184.521 27.5674 185.261 27.8456 186.208 27.8456C186.812 27.8456 187.345 27.7923 187.807 27.6858C188.28 27.5674 188.766 27.4016 189.263 27.1885V28.556C188.778 28.7691 188.298 28.923 187.825 29.0178C187.351 29.1243 186.789 29.1776 186.137 29.1776C185.237 29.1776 184.438 28.9941 183.74 28.627C183.053 28.26 182.514 27.7154 182.124 26.9931C181.745 26.259 181.555 25.3651 181.555 24.3114C181.555 23.2694 181.727 22.3755 182.07 21.6296C182.425 20.8837 182.917 20.3094 183.544 19.9069C184.184 19.5043 184.924 19.303 185.764 19.303ZM185.747 20.5818C185.001 20.5818 184.409 20.8245 183.971 21.3099C183.544 21.7835 183.29 22.4466 183.207 23.299H188.055C188.044 22.4939 187.854 21.8427 187.487 21.3454C187.12 20.8363 186.54 20.5818 185.747 20.5818ZM195.931 29.1776C195.09 29.1776 194.339 29.0059 193.676 28.6626C193.024 28.3192 192.509 27.7864 192.13 27.0642C191.763 26.3419 191.58 25.4184 191.58 24.2936C191.58 23.1214 191.775 22.1683 192.166 21.4342C192.557 20.7002 193.084 20.1614 193.747 19.8181C194.422 19.4747 195.185 19.303 196.038 19.303C196.523 19.303 196.991 19.3563 197.441 19.4629C197.891 19.5576 198.258 19.676 198.542 19.8181L198.062 21.1146C197.778 21.008 197.447 20.9074 197.068 20.8126C196.689 20.7179 196.334 20.6706 196.002 20.6706C194.131 20.6706 193.196 21.8723 193.196 24.2758C193.196 25.4243 193.421 26.3064 193.871 26.9221C194.333 27.5259 195.014 27.8278 195.913 27.8278C196.434 27.8278 196.89 27.7746 197.281 27.668C197.683 27.5614 198.05 27.4312 198.382 27.2773V28.6626C198.062 28.8283 197.707 28.9526 197.316 29.0355C196.938 29.1302 196.476 29.1776 195.931 29.1776ZM202.191 22.5531C202.191 22.7426 202.179 22.9912 202.155 23.299C202.144 23.6069 202.132 23.8733 202.12 24.0982H202.191C202.262 24.0035 202.369 23.8674 202.511 23.6898C202.653 23.5122 202.795 23.3346 202.937 23.157C203.091 22.9675 203.221 22.8136 203.328 22.6952L206.365 19.4806H208.194L204.34 23.5477L208.46 29H206.578L203.274 24.56L202.191 25.5013V29H200.646V15.5024H202.191V22.5531ZM220.576 19.303C221.653 19.303 222.458 19.5813 222.991 20.1378C223.524 20.6824 223.79 21.5704 223.79 22.8018V29H222.245V22.8728C222.245 21.3691 221.6 20.6173 220.309 20.6173C219.386 20.6173 218.723 20.8837 218.32 21.4165C217.93 21.9493 217.734 22.7248 217.734 23.743V29H216.189V22.8728C216.189 21.3691 215.538 20.6173 214.235 20.6173C213.276 20.6173 212.613 20.9133 212.246 21.5053C211.879 22.0973 211.696 22.9498 211.696 24.0627V29H210.133V19.4806H211.394L211.625 20.7771H211.714C212.01 20.2798 212.406 19.9128 212.903 19.676C213.413 19.4274 213.951 19.303 214.52 19.303C216.011 19.303 216.982 19.8358 217.432 20.9014H217.521C217.841 20.3568 218.273 19.9542 218.818 19.6938C219.374 19.4333 219.96 19.303 220.576 19.303ZM230.336 19.3208C231.496 19.3208 232.355 19.5754 232.911 20.0845C233.468 20.5936 233.746 21.4046 233.746 22.5176V29H232.609L232.307 27.6502H232.236C231.822 28.1712 231.384 28.556 230.922 28.8046C230.472 29.0533 229.845 29.1776 229.04 29.1776C228.175 29.1776 227.459 28.9526 226.891 28.5027C226.322 28.041 226.038 27.3246 226.038 26.3538C226.038 25.4066 226.411 24.6784 227.157 24.1693C227.903 23.6483 229.051 23.3642 230.603 23.3168L232.219 23.2635V22.6952C232.219 21.9019 232.047 21.3514 231.704 21.0435C231.36 20.7357 230.875 20.5818 230.247 20.5818C229.75 20.5818 229.276 20.6587 228.827 20.8126C228.377 20.9547 227.956 21.1205 227.566 21.3099L227.086 20.1378C227.5 19.9128 227.992 19.7234 228.56 19.5694C229.128 19.4037 229.72 19.3208 230.336 19.3208ZM230.798 24.4002C229.614 24.4475 228.791 24.637 228.329 24.9685C227.879 25.3 227.654 25.7677 227.654 26.3715C227.654 26.9043 227.814 27.295 228.134 27.5437C228.465 27.7923 228.886 27.9166 229.395 27.9166C230.2 27.9166 230.869 27.6976 231.402 27.2595C231.935 26.8096 232.201 26.1229 232.201 25.1994V24.3469L230.798 24.4002ZM241.126 19.303C241.304 19.303 241.493 19.3149 241.694 19.3386C241.908 19.3504 242.091 19.3741 242.245 19.4096L242.05 20.8482C241.896 20.8126 241.724 20.783 241.535 20.7594C241.357 20.7357 241.185 20.7238 241.02 20.7238C240.534 20.7238 240.078 20.86 239.652 21.1323C239.226 21.3928 238.882 21.7658 238.622 22.2512C238.373 22.7248 238.249 23.2813 238.249 23.9206V29H236.686V19.4806H237.965L238.142 21.2211H238.214C238.521 20.7002 238.918 20.2502 239.403 19.8714C239.889 19.4925 240.463 19.303 241.126 19.303ZM245.568 22.5531C245.568 22.7426 245.556 22.9912 245.532 23.299C245.52 23.6069 245.508 23.8733 245.497 24.0982H245.568C245.639 24.0035 245.745 23.8674 245.887 23.6898C246.029 23.5122 246.172 23.3346 246.314 23.157C246.468 22.9675 246.598 22.8136 246.704 22.6952L249.741 19.4806H251.571L247.717 23.5477L251.837 29H249.954L246.651 24.56L245.568 25.5013V29H244.023V15.5024H245.568V22.5531Z" fill="black"/>
<rect x="144" y="1" width="122" height="42" stroke="#B3800F" stroke-width="2"/>
<g filter="url(#filter3_d_8891_43060)">
<line x1="206" y1="44" x2="206" y2="83" stroke="#B3800F" stroke-width="2"/>
</g>
<defs>
<filter id="filter0_d_8891_43060" x="384" y="139" width="4" height="42" filterUnits="userSpaceOnUse" color-interpolation-filters="sRGB">
<feFlood flood-opacity="0" result="BackgroundImageFix"/>
<feColorMatrix in="SourceAlpha" type="matrix" values="0 0 0 0 0 0 0 0 0 0 0 0 0 0 0 0 0 0 127 0" result="hardAlpha"/>
<feOffset dx="2"/>
<feComposite in2="hardAlpha" operator="out"/>
<feColorMatrix type="matrix" values="0 0 0 0 1 0 0 0 0 1 0 0 0 0 1 0 0 0 1 0"/>
<feBlend mode="normal" in2="BackgroundImageFix" result="effect1_dropShadow_8891_43060"/>
<feBlend mode="normal" in="SourceGraphic" in2="effect1_dropShadow_8891_43060" result="shape"/>
</filter>
<filter id="filter1_d_8891_43060" x="111" y="91" width="65" height="4" filterUnits="userSpaceOnUse" color-interpolation-filters="sRGB">
<feFlood flood-opacity="0" result="BackgroundImageFix"/>
<feColorMatrix in="SourceAlpha" type="matrix" values="0 0 0 0 0 0 0 0 0 0 0 0 0 0 0 0 0 0 127 0" result="hardAlpha"/>
<feOffset dy="2"/>
<feComposite in2="hardAlpha" operator="out"/>
<feColorMatrix type="matrix" values="0 0 0 0 1 0 0 0 0 1 0 0 0 0 1 0 0 0 1 0"/>
<feBlend mode="normal" in2="BackgroundImageFix" result="effect1_dropShadow_8891_43060"/>
<feBlend mode="normal" in="SourceGraphic" in2="effect1_dropShadow_8891_43060" result="shape"/>
</filter>
<filter id="filter2_d_8891_43060" x="307" y="90" width="155" height="4" filterUnits="userSpaceOnUse" color-interpolation-filters="sRGB">
<feFlood flood-opacity="0" result="BackgroundImageFix"/>
<feColorMatrix in="SourceAlpha" type="matrix" values="0 0 0 0 0 0 0 0 0 0 0 0 0 0 0 0 0 0 127 0" result="hardAlpha"/>
<feOffset dy="2"/>
<feComposite in2="hardAlpha" operator="out"/>
<feColorMatrix type="matrix" values="0 0 0 0 1 0 0 0 0 1 0 0 0 0 1 0 0 0 1 0"/>
<feBlend mode="normal" in2="BackgroundImageFix" result="effect1_dropShadow_8891_43060"/>
<feBlend mode="normal" in="SourceGraphic" in2="effect1_dropShadow_8891_43060" result="shape"/>
</filter>
<filter id="filter3_d_8891_43060" x="205" y="44" width="4" height="39" filterUnits="userSpaceOnUse" color-interpolation-filters="sRGB">
<feFlood flood-opacity="0" result="BackgroundImageFix"/>
<feColorMatrix in="SourceAlpha" type="matrix" values="0 0 0 0 0 0 0 0 0 0 0 0 0 0 0 0 0 0 127 0" result="hardAlpha"/>
<feOffset dx="2"/>
<feComposite in2="hardAlpha" operator="out"/>
<feColorMatrix type="matrix" values="0 0 0 0 1 0 0 0 0 1 0 0 0 0 1 0 0 0 1 0"/>
<feBlend mode="normal" in2="BackgroundImageFix" result="effect1_dropShadow_8891_43060"/>
<feBlend mode="normal" in="SourceGraphic" in2="effect1_dropShadow_8891_43060" result="shape"/>
</filter>
</defs>
</svg>
