<svg width="484" height="343" viewBox="0 0 484 343" fill="none" xmlns="http://www.w3.org/2000/svg">
<path d="M76.002 29.1328V32H62.8352V8.99805H66.247V29.1328H76.002ZM88.3983 22.0528C88.3983 21.4334 88.3075 20.8621 88.126 20.3388C87.9551 19.8156 87.6988 19.3617 87.3571 18.9773C87.0154 18.5929 86.5989 18.2939 86.1077 18.0803C85.6165 17.8667 85.0505 17.7599 84.4098 17.7599C83.0963 17.7599 82.0605 18.139 81.3023 18.8972C80.5548 19.6554 80.0796 20.7073 79.8767 22.0528H88.3983ZM90.9772 29.6774C90.5928 30.1259 90.1496 30.5157 89.6477 30.8467C89.1458 31.1671 88.6119 31.4287 88.0459 31.6316C87.4799 31.8345 86.8926 31.984 86.2839 32.0801C85.6859 32.1762 85.0932 32.2243 84.5059 32.2243C83.3846 32.2243 82.3435 32.0374 81.3824 31.6636C80.432 31.2792 79.6044 30.7239 78.8996 29.9977C78.2055 29.2609 77.6608 28.3532 77.2657 27.2747C76.8813 26.1854 76.6891 24.936 76.6891 23.5264C76.6891 22.3945 76.8653 21.3426 77.2177 20.3709C77.5701 19.3884 78.072 18.5341 78.7234 17.808C79.3854 17.0818 80.1917 16.5105 81.1421 16.0941C82.0925 15.6776 83.1604 15.4694 84.3457 15.4694C85.3388 15.4694 86.2519 15.6349 87.0848 15.9659C87.9284 16.2863 88.6546 16.7561 89.2633 17.3755C89.8719 17.9949 90.3471 18.7584 90.6889 19.6661C91.0413 20.5738 91.2175 21.6096 91.2175 22.7736C91.2175 23.2541 91.1641 23.5798 91.0573 23.7507C90.9505 23.9109 90.7529 23.991 90.4646 23.991H79.7966C79.8286 24.9627 79.9674 25.8117 80.213 26.5378C80.4587 27.2533 80.795 27.8513 81.2222 28.3319C81.66 28.8124 82.1779 29.1701 82.7759 29.4051C83.3739 29.64 84.0414 29.7575 84.7782 29.7575C85.4723 29.7575 86.0703 29.6774 86.5722 29.5172C87.0848 29.357 87.5226 29.1862 87.8857 29.0046C88.2595 28.8124 88.5691 28.6362 88.8147 28.476C89.071 28.3158 89.2953 28.2358 89.4875 28.2358C89.7438 28.2358 89.9414 28.3319 90.0802 28.5241L90.9772 29.6774ZM100.293 23.8788C100.848 23.8788 101.334 23.8041 101.751 23.6546C102.178 23.5051 102.53 23.2969 102.808 23.0299C103.096 22.7522 103.31 22.4212 103.449 22.0368C103.598 21.6523 103.673 21.2305 103.673 20.7713C103.673 19.8316 103.385 19.0841 102.808 18.5288C102.242 17.9628 101.404 17.6798 100.293 17.6798C99.1933 17.6798 98.355 17.9628 97.7784 18.5288C97.2124 19.0841 96.9294 19.8316 96.9294 20.7713C96.9294 21.2305 96.9988 21.6523 97.1376 22.0368C97.2871 22.4105 97.5007 22.7362 97.7784 23.0139C98.0667 23.2808 98.4191 23.4944 98.8356 23.6546C99.2627 23.8041 99.7486 23.8788 100.293 23.8788ZM105.275 32.849C105.275 32.4645 105.168 32.1602 104.954 31.9359C104.741 31.701 104.447 31.5195 104.073 31.3913C103.71 31.2525 103.283 31.1564 102.792 31.103C102.301 31.0389 101.783 30.9909 101.238 30.9588C100.704 30.9268 100.154 30.9001 99.5884 30.8787C99.0224 30.8467 98.4778 30.7933 97.9546 30.7186C97.3993 30.9962 96.9401 31.3326 96.577 31.7277C96.2246 32.1228 96.0484 32.5873 96.0484 33.1213C96.0484 33.463 96.1338 33.7833 96.3047 34.0823C96.4862 34.3814 96.7585 34.6376 97.1216 34.8512C97.4954 35.0755 97.9599 35.2463 98.5152 35.3638C99.0812 35.4919 99.7539 35.556 100.533 35.556C101.302 35.556 101.98 35.4866 102.568 35.3478C103.155 35.2196 103.646 35.0328 104.041 34.7871C104.447 34.5522 104.752 34.2692 104.954 33.9382C105.168 33.6071 105.275 33.2441 105.275 32.849ZM108.446 16.3343V17.5036C108.446 17.8881 108.206 18.1284 107.726 18.2245L105.98 18.4808C106.129 18.8118 106.247 19.1642 106.332 19.5379C106.417 19.901 106.46 20.2855 106.46 20.6912C106.46 21.4921 106.305 22.2183 105.996 22.8697C105.686 23.5104 105.259 24.0604 104.714 24.5196C104.17 24.9787 103.518 25.3311 102.76 25.5768C102.012 25.8224 101.19 25.9452 100.293 25.9452C99.5564 25.9452 98.8676 25.8651 98.2269 25.7049C97.9065 25.8971 97.6609 26.1107 97.49 26.3456C97.3299 26.5699 97.2498 26.7941 97.2498 27.0184C97.2498 27.3921 97.4046 27.6698 97.7143 27.8513C98.0346 28.0329 98.4458 28.1663 98.9477 28.2518C99.4603 28.3265 100.042 28.3746 100.694 28.3959C101.356 28.4173 102.023 28.4547 102.696 28.5081C103.379 28.5508 104.047 28.6362 104.698 28.7644C105.36 28.8818 105.942 29.0794 106.444 29.357C106.957 29.624 107.368 29.9977 107.678 30.4783C107.998 30.9481 108.158 31.5622 108.158 32.3204C108.158 33.0252 107.982 33.7086 107.629 34.3707C107.288 35.0328 106.786 35.6201 106.124 36.1327C105.462 36.6452 104.655 37.0564 103.705 37.3661C102.755 37.6757 101.676 37.8306 100.469 37.8306C99.2627 37.8306 98.2108 37.7131 97.3138 37.4782C96.4275 37.2432 95.6853 36.9282 95.0873 36.5331C94.5 36.138 94.0568 35.6788 93.7578 35.1556C93.4695 34.6323 93.3253 34.0877 93.3253 33.5217C93.3253 32.7315 93.5709 32.0641 94.0622 31.5195C94.5534 30.9642 95.2315 30.5317 96.0965 30.222C95.6266 30.0084 95.2528 29.7201 94.9752 29.357C94.6976 28.9833 94.5587 28.492 94.5587 27.8834C94.5587 27.6484 94.6014 27.4082 94.6869 27.1625C94.7723 26.9063 94.9004 26.6553 95.0713 26.4097C95.2528 26.1534 95.4718 25.9131 95.728 25.6889C95.995 25.4646 96.2994 25.2617 96.6411 25.0802C95.8402 24.6317 95.2101 24.039 94.7509 23.3022C94.2918 22.5547 94.0622 21.6844 94.0622 20.6912C94.0622 19.8903 94.217 19.1695 94.5267 18.5288C94.8364 17.8881 95.2635 17.3381 95.8081 16.8789C96.3634 16.4198 97.0202 16.0674 97.7784 15.8218C98.5472 15.5761 99.3855 15.4533 100.293 15.4533C101.703 15.4533 102.915 15.747 103.929 16.3343H108.446ZM121.842 22.0528C121.842 21.4334 121.751 20.8621 121.57 20.3388C121.399 19.8156 121.143 19.3617 120.801 18.9773C120.459 18.5929 120.043 18.2939 119.552 18.0803C119.06 17.8667 118.494 17.7599 117.854 17.7599C116.54 17.7599 115.504 18.139 114.746 18.8972C113.999 19.6554 113.524 20.7073 113.321 22.0528H121.842ZM124.421 29.6774C124.037 30.1259 123.594 30.5157 123.092 30.8467C122.59 31.1671 122.056 31.4287 121.49 31.6316C120.924 31.8345 120.337 31.984 119.728 32.0801C119.13 32.1762 118.537 32.2243 117.95 32.2243C116.829 32.2243 115.787 32.0374 114.826 31.6636C113.876 31.2792 113.048 30.7239 112.344 29.9977C111.649 29.2609 111.105 28.3532 110.71 27.2747C110.325 26.1854 110.133 24.936 110.133 23.5264C110.133 22.3945 110.309 21.3426 110.662 20.3709C111.014 19.3884 111.516 18.5341 112.167 17.808C112.829 17.0818 113.636 16.5105 114.586 16.0941C115.536 15.6776 116.604 15.4694 117.79 15.4694C118.783 15.4694 119.696 15.6349 120.529 15.9659C121.372 16.2863 122.099 16.7561 122.707 17.3755C123.316 17.9949 123.791 18.7584 124.133 19.6661C124.485 20.5738 124.661 21.6096 124.661 22.7736C124.661 23.2541 124.608 23.5798 124.501 23.7507C124.394 23.9109 124.197 23.991 123.909 23.991H113.241C113.273 24.9627 113.411 25.8117 113.657 26.5378C113.903 27.2533 114.239 27.8513 114.666 28.3319C115.104 28.8124 115.622 29.1701 116.22 29.4051C116.818 29.64 117.485 29.7575 118.222 29.7575C118.916 29.7575 119.514 29.6774 120.016 29.5172C120.529 29.357 120.967 29.1862 121.33 29.0046C121.703 28.8124 122.013 28.6362 122.259 28.476C122.515 28.3158 122.739 28.2358 122.931 28.2358C123.188 28.2358 123.385 28.3319 123.524 28.5241L124.421 29.6774ZM130.95 17.9842C131.302 17.6104 131.671 17.2687 132.055 16.959C132.44 16.6494 132.845 16.3877 133.273 16.1741C133.71 15.9499 134.175 15.779 134.666 15.6616C135.168 15.5334 135.702 15.4694 136.268 15.4694C137.165 15.4694 137.95 15.6189 138.623 15.9179C139.306 16.2169 139.877 16.6387 140.337 17.1833C140.796 17.7172 141.143 18.3633 141.378 19.1215C141.613 19.8797 141.73 20.7179 141.73 21.6363V32H138.591V21.6363C138.591 20.4723 138.324 19.57 137.79 18.9293C137.256 18.2779 136.439 17.9522 135.339 17.9522C134.538 17.9522 133.785 18.1444 133.08 18.5288C132.386 18.9026 131.74 19.4151 131.142 20.0665V32H128.019V15.7256H129.893C130.331 15.7256 130.603 15.9339 130.71 16.3503L130.95 17.9842ZM156.437 19.6661C155.924 18.9933 155.369 18.5235 154.771 18.2565C154.184 17.9895 153.522 17.856 152.785 17.856C151.354 17.856 150.243 18.374 149.453 19.4098C148.674 20.435 148.284 21.9353 148.284 23.9109C148.284 24.9467 148.369 25.833 148.54 26.5699C148.722 27.296 148.978 27.894 149.309 28.3639C149.651 28.8231 150.067 29.1648 150.558 29.3891C151.05 29.6026 151.605 29.7094 152.224 29.7094C153.132 29.7094 153.917 29.5065 154.579 29.1007C155.241 28.6949 155.86 28.1236 156.437 27.3868V19.6661ZM159.577 8.35733V32H157.686C157.249 32 156.976 31.7918 156.87 31.3753L156.597 29.5012C155.903 30.3234 155.113 30.9855 154.227 31.4874C153.351 31.9786 152.336 32.2243 151.183 32.2243C150.254 32.2243 149.41 32.0427 148.652 31.6796C147.905 31.3166 147.264 30.788 146.73 30.0939C146.196 29.3891 145.785 28.5187 145.497 27.4829C145.208 26.4471 145.064 25.2564 145.064 23.9109C145.064 22.7042 145.224 21.5829 145.545 20.5471C145.865 19.5112 146.33 18.6142 146.938 17.856C147.547 17.0979 148.284 16.5052 149.149 16.078C150.014 15.6402 150.991 15.4213 152.08 15.4213C153.063 15.4213 153.895 15.5815 154.579 15.9018C155.273 16.2222 155.892 16.676 156.437 17.2634V8.35733H159.577Z" fill="#333333"/>
<path d="M71.4325 62H69.8323V56.0793H63.3249V62H61.7247V49.3051H63.3249V54.6746H69.8323V49.3051H71.4325V62ZM75.4901 48.8961C75.7272 48.8961 75.9346 48.9791 76.1124 49.1451C76.3021 49.2992 76.3969 49.5481 76.3969 49.8918C76.3969 50.2237 76.3021 50.4726 76.1124 50.6386C75.9346 50.8045 75.7272 50.8875 75.4901 50.8875C75.2294 50.8875 75.0101 50.8045 74.8323 50.6386C74.6545 50.4726 74.5656 50.2237 74.5656 49.8918C74.5656 49.5481 74.6545 49.2992 74.8323 49.1451C75.0101 48.9791 75.2294 48.8961 75.4901 48.8961ZM76.2547 52.4699V62H74.69V52.4699H76.2547ZM83.8612 52.2921C84.9991 52.2921 85.8585 52.5707 86.4393 53.1278C87.0201 53.673 87.3105 54.562 87.3105 55.7948V62H85.7636V55.9015C85.7636 54.3724 85.0524 53.6078 83.63 53.6078C82.5751 53.6078 81.8461 53.9042 81.4431 54.4968C81.0401 55.0895 80.8386 55.9429 80.8386 57.0572V62H79.2739V52.4699H80.5363L80.7675 53.7679H80.8564C81.1645 53.27 81.5913 52.9026 82.1365 52.6655C82.6818 52.4166 83.2567 52.2921 83.8612 52.2921ZM93.4475 60.8976C93.6846 60.8976 93.9276 60.8799 94.1765 60.8443C94.4254 60.7969 94.6269 60.7495 94.781 60.7021V61.8933C94.6151 61.9763 94.378 62.0415 94.0698 62.0889C93.7616 62.1482 93.4653 62.1778 93.1808 62.1778C92.683 62.1778 92.2207 62.0948 91.794 61.9289C91.3791 61.7511 91.0413 61.4488 90.7805 61.0221C90.5197 60.5954 90.3894 59.9968 90.3894 59.2263V53.679H89.0381V52.9322L90.4071 52.3099L91.0294 50.283H91.954V52.4699H94.7099V53.679H91.954V59.1908C91.954 59.7716 92.0903 60.2042 92.3629 60.4887C92.6474 60.7613 93.0089 60.8976 93.4475 60.8976ZM106.233 49.3051L101.504 62H99.9744L104.704 49.3051H106.233ZM119.85 62H112.755V49.3051H119.85V50.7097H114.356V54.6746H119.53V56.0615H114.356V60.5954H119.85V62ZM124.68 57.1283L121.39 52.4699H123.168L125.622 56.0615L128.058 52.4699H129.818L126.529 57.1283L129.996 62H128.218L125.622 58.1951L122.991 62H121.23L124.68 57.1283ZM135.442 52.3099C136.604 52.3099 137.463 52.5647 138.02 53.0744C138.577 53.5841 138.856 54.3961 138.856 55.5103V62H137.718L137.416 60.6487H137.344C136.93 61.1703 136.491 61.5555 136.029 61.8044C135.578 62.0533 134.95 62.1778 134.144 62.1778C133.279 62.1778 132.562 61.9526 131.993 61.5022C131.424 61.0399 131.139 60.3228 131.139 59.3508C131.139 58.4025 131.513 57.6735 132.259 57.1638C133.006 56.6423 134.156 56.3578 135.709 56.3104L137.327 56.2571V55.6881C137.327 54.8939 137.155 54.3427 136.811 54.0346C136.467 53.7264 135.981 53.5723 135.353 53.5723C134.855 53.5723 134.381 53.6493 133.931 53.8034C133.48 53.9457 133.059 54.1116 132.668 54.3013L132.188 53.1278C132.603 52.9026 133.095 52.7129 133.664 52.5588C134.233 52.3929 134.826 52.3099 135.442 52.3099ZM135.904 57.395C134.719 57.4424 133.895 57.632 133.433 57.9639C132.982 58.2958 132.757 58.764 132.757 59.3686C132.757 59.902 132.917 60.2931 133.237 60.542C133.569 60.791 133.99 60.9154 134.5 60.9154C135.306 60.9154 135.975 60.6961 136.509 60.2576C137.042 59.8071 137.309 59.1196 137.309 58.1951V57.3416L135.904 57.395ZM152.254 52.2921C153.332 52.2921 154.138 52.5707 154.672 53.1278C155.205 53.673 155.472 54.562 155.472 55.7948V62H153.925V55.8659C153.925 54.3605 153.279 53.6078 151.987 53.6078C151.063 53.6078 150.399 53.8745 149.996 54.4079C149.605 54.9413 149.409 55.7177 149.409 56.7371V62H147.862V55.8659C147.862 54.3605 147.21 53.6078 145.906 53.6078C144.946 53.6078 144.282 53.9042 143.915 54.4968C143.547 55.0895 143.364 55.9429 143.364 57.0572V62H141.799V52.4699H143.061L143.293 53.7679H143.382C143.678 53.27 144.075 52.9026 144.573 52.6655C145.082 52.4166 145.622 52.2921 146.191 52.2921C147.684 52.2921 148.656 52.8255 149.107 53.8923H149.196C149.516 53.3471 149.948 52.9441 150.494 52.6833C151.051 52.4225 151.637 52.2921 152.254 52.2921ZM162.95 52.2921C164.123 52.2921 165.066 52.7011 165.777 53.5189C166.5 54.3368 166.861 55.5696 166.861 57.2172C166.861 58.8411 166.5 60.0738 165.777 60.9154C165.066 61.757 164.117 62.1778 162.932 62.1778C162.197 62.1778 161.587 62.0415 161.101 61.7689C160.626 61.4844 160.253 61.1584 159.98 60.791H159.874C159.897 60.9925 159.921 61.2473 159.945 61.5555C159.969 61.8637 159.98 62.1304 159.98 62.3556V66.2672H158.416V52.4699H159.696L159.909 53.7679H159.98C160.265 53.353 160.638 53.0033 161.101 52.7188C161.563 52.4344 162.179 52.2921 162.95 52.2921ZM162.665 53.6078C161.693 53.6078 161.006 53.8805 160.603 54.4257C160.212 54.971 160.004 55.8007 159.98 56.9149V57.2172C159.98 58.3907 160.17 59.2974 160.549 59.9375C160.941 60.5657 161.658 60.8799 162.701 60.8799C163.282 60.8799 163.756 60.7198 164.123 60.3998C164.502 60.0798 164.781 59.6471 164.959 59.1019C165.148 58.5448 165.243 57.9106 165.243 57.1994C165.243 56.1089 165.03 55.2377 164.603 54.5857C164.188 53.9338 163.542 53.6078 162.665 53.6078ZM170.919 62H169.355V48.4872H170.919V62ZM177.619 52.2921C178.437 52.2921 179.136 52.4699 179.717 52.8255C180.31 53.1811 180.76 53.6849 181.068 54.3368C181.388 54.9769 181.548 55.7296 181.548 56.5949V57.5372H175.023C175.047 58.6159 175.319 59.4397 175.841 60.0086C176.374 60.5657 177.115 60.8443 178.064 60.8443C178.668 60.8443 179.201 60.791 179.664 60.6843C180.138 60.5657 180.624 60.3998 181.122 60.1864V61.5555C180.636 61.7689 180.156 61.923 179.681 62.0178C179.207 62.1245 178.644 62.1778 177.992 62.1778C177.092 62.1778 176.291 61.9941 175.592 61.6266C174.905 61.2592 174.365 60.7139 173.974 59.9909C173.595 59.256 173.405 58.361 173.405 57.3061C173.405 56.263 173.577 55.3681 173.921 54.6213C174.276 53.8745 174.768 53.2997 175.397 52.8966C176.037 52.4936 176.777 52.2921 177.619 52.2921ZM177.601 53.5723C176.854 53.5723 176.262 53.8153 175.823 54.3013C175.397 54.7754 175.142 55.4392 175.059 56.2926H179.913C179.901 55.4866 179.711 54.8347 179.344 54.3368C178.976 53.8271 178.395 53.5723 177.601 53.5723ZM199.048 52.2921C200.126 52.2921 200.932 52.5707 201.466 53.1278C201.999 53.673 202.266 54.562 202.266 55.7948V62H200.719V55.8659C200.719 54.3605 200.073 53.6078 198.781 53.6078C197.857 53.6078 197.193 53.8745 196.79 54.4079C196.399 54.9413 196.203 55.7177 196.203 56.7371V62H194.656V55.8659C194.656 54.3605 194.004 53.6078 192.7 53.6078C191.74 53.6078 191.076 53.9042 190.709 54.4968C190.342 55.0895 190.158 55.9429 190.158 57.0572V62H188.593V52.4699H189.856L190.087 53.7679H190.176C190.472 53.27 190.869 52.9026 191.367 52.6655C191.877 52.4166 192.416 52.2921 192.985 52.2921C194.478 52.2921 195.45 52.8255 195.901 53.8923H195.99C196.31 53.3471 196.742 52.9441 197.288 52.6833C197.845 52.4225 198.431 52.2921 199.048 52.2921ZM208.89 52.2921C209.708 52.2921 210.408 52.4699 210.988 52.8255C211.581 53.1811 212.031 53.6849 212.34 54.3368C212.66 54.9769 212.82 55.7296 212.82 56.5949V57.5372H206.294C206.318 58.6159 206.591 59.4397 207.112 60.0086C207.646 60.5657 208.387 60.8443 209.335 60.8443C209.939 60.8443 210.473 60.791 210.935 60.6843C211.409 60.5657 211.895 60.3998 212.393 60.1864V61.5555C211.907 61.7689 211.427 61.923 210.953 62.0178C210.479 62.1245 209.916 62.1778 209.264 62.1778C208.363 62.1778 207.563 61.9941 206.863 61.6266C206.176 61.2592 205.637 60.7139 205.245 59.9909C204.866 59.256 204.676 58.361 204.676 57.3061C204.676 56.263 204.848 55.3681 205.192 54.6213C205.548 53.8745 206.04 53.2997 206.668 52.8966C207.308 52.4936 208.049 52.2921 208.89 52.2921ZM208.872 53.5723C208.126 53.5723 207.533 53.8153 207.094 54.3013C206.668 54.7754 206.413 55.4392 206.33 56.2926H211.184C211.172 55.4866 210.982 54.8347 210.615 54.3368C210.247 53.8271 209.667 53.5723 208.872 53.5723ZM221.451 59.3686C221.451 60.2931 221.107 60.9925 220.42 61.4666C219.732 61.9407 218.808 62.1778 217.646 62.1778C216.982 62.1778 216.407 62.1245 215.921 62.0178C215.447 61.9111 215.027 61.7629 214.659 61.5733V60.1509C215.038 60.3405 215.495 60.5183 216.028 60.6843C216.573 60.8384 217.125 60.9154 217.682 60.9154C218.476 60.9154 219.051 60.791 219.406 60.542C219.762 60.2813 219.94 59.9375 219.94 59.5108C219.94 59.2737 219.875 59.0604 219.744 58.8707C219.614 58.6811 219.377 58.4914 219.033 58.3018C218.701 58.1121 218.221 57.8987 217.593 57.6617C216.976 57.4246 216.449 57.1875 216.01 56.9505C215.572 56.7134 215.234 56.4289 214.997 56.097C214.76 55.7651 214.641 55.3384 214.641 54.8169C214.641 54.0109 214.967 53.3886 215.619 52.95C216.283 52.5114 217.148 52.2921 218.215 52.2921C218.796 52.2921 219.335 52.3514 219.833 52.4699C220.343 52.5766 220.817 52.7307 221.255 52.9322L220.722 54.1768C220.319 54.0109 219.898 53.8686 219.46 53.7501C219.021 53.6315 218.571 53.5723 218.108 53.5723C217.468 53.5723 216.976 53.679 216.633 53.8923C216.301 54.0938 216.135 54.3724 216.135 54.728C216.135 54.9888 216.212 55.214 216.366 55.4036C216.52 55.5814 216.775 55.7592 217.13 55.937C217.498 56.103 217.984 56.3045 218.588 56.5415C219.193 56.7668 219.709 56.9979 220.135 57.235C220.562 57.472 220.888 57.7624 221.113 58.1062C221.338 58.4381 221.451 58.8589 221.451 59.3686ZM229.959 59.3686C229.959 60.2931 229.615 60.9925 228.928 61.4666C228.24 61.9407 227.316 62.1778 226.154 62.1778C225.49 62.1778 224.915 62.1245 224.429 62.0178C223.955 61.9111 223.535 61.7629 223.167 61.5733V60.1509C223.546 60.3405 224.003 60.5183 224.536 60.6843C225.081 60.8384 225.633 60.9154 226.19 60.9154C226.984 60.9154 227.559 60.791 227.914 60.542C228.27 60.2813 228.448 59.9375 228.448 59.5108C228.448 59.2737 228.383 59.0604 228.252 58.8707C228.122 58.6811 227.885 58.4914 227.541 58.3018C227.209 58.1121 226.729 57.8987 226.101 57.6617C225.484 57.4246 224.957 57.1875 224.518 56.9505C224.08 56.7134 223.742 56.4289 223.505 56.097C223.268 55.7651 223.149 55.3384 223.149 54.8169C223.149 54.0109 223.475 53.3886 224.127 52.95C224.791 52.5114 225.656 52.2921 226.723 52.2921C227.304 52.2921 227.843 52.3514 228.341 52.4699C228.851 52.5766 229.325 52.7307 229.763 52.9322L229.23 54.1768C228.827 54.0109 228.406 53.8686 227.968 53.7501C227.529 53.6315 227.079 53.5723 226.616 53.5723C225.976 53.5723 225.484 53.679 225.141 53.8923C224.809 54.0938 224.643 54.3724 224.643 54.728C224.643 54.9888 224.72 55.214 224.874 55.4036C225.028 55.5814 225.283 55.7592 225.638 55.937C226.006 56.103 226.492 56.3045 227.096 56.5415C227.701 56.7668 228.217 56.9979 228.643 57.235C229.07 57.472 229.396 57.7624 229.621 58.1062C229.846 58.4381 229.959 58.8589 229.959 59.3686ZM235.871 52.3099C237.033 52.3099 237.892 52.5647 238.449 53.0744C239.006 53.5841 239.285 54.3961 239.285 55.5103V62H238.147L237.845 60.6487H237.774C237.359 61.1703 236.92 61.5555 236.458 61.8044C236.007 62.0533 235.379 62.1778 234.573 62.1778C233.708 62.1778 232.991 61.9526 232.422 61.5022C231.853 61.0399 231.568 60.3228 231.568 59.3508C231.568 58.4025 231.942 57.6735 232.689 57.1638C233.435 56.6423 234.585 56.3578 236.138 56.3104L237.756 56.2571V55.6881C237.756 54.8939 237.584 54.3427 237.24 54.0346C236.896 53.7264 236.41 53.5723 235.782 53.5723C235.284 53.5723 234.81 53.6493 234.36 53.8034C233.909 53.9457 233.489 54.1116 233.097 54.3013L232.617 53.1278C233.032 52.9026 233.524 52.7129 234.093 52.5588C234.662 52.3929 235.255 52.3099 235.871 52.3099ZM236.333 57.395C235.148 57.4424 234.324 57.632 233.862 57.9639C233.412 58.2958 233.186 58.764 233.186 59.3686C233.186 59.902 233.346 60.2931 233.666 60.542C233.998 60.791 234.419 60.9154 234.929 60.9154C235.735 60.9154 236.405 60.6961 236.938 60.2576C237.471 59.8071 237.738 59.1196 237.738 58.1951V57.3416L236.333 57.395ZM245.607 52.2921C246.235 52.2921 246.798 52.4107 247.296 52.6477C247.805 52.8848 248.238 53.2463 248.594 53.7323H248.682L248.896 52.4699H250.14V62.16C250.14 63.5232 249.791 64.5485 249.091 65.236C248.404 65.9235 247.331 66.2672 245.873 66.2672C244.475 66.2672 243.331 66.0657 242.442 65.6627V64.2225C243.378 64.7203 244.552 64.9693 245.962 64.9693C246.78 64.9693 247.42 64.7263 247.882 64.2403C248.357 63.7661 248.594 63.1142 248.594 62.2845V61.9111C248.594 61.7689 248.6 61.5674 248.611 61.3066C248.623 61.034 248.635 60.8443 248.647 60.7376H248.576C247.936 61.6977 246.952 62.1778 245.624 62.1778C244.392 62.1778 243.426 61.7452 242.726 60.8799C242.039 60.0146 241.695 58.8055 241.695 57.2527C241.695 55.7355 242.039 54.5324 242.726 53.6434C243.426 52.7425 244.386 52.2921 245.607 52.2921ZM245.82 53.6078C245.026 53.6078 244.409 53.9279 243.971 54.568C243.532 55.1962 243.313 56.097 243.313 57.2705C243.313 58.444 243.526 59.3449 243.953 59.9731C244.392 60.5895 245.026 60.8976 245.855 60.8976C246.816 60.8976 247.515 60.6428 247.954 60.1331C248.392 59.6116 248.611 58.7759 248.611 57.6261V57.2527C248.611 55.9489 248.386 55.0184 247.936 54.4613C247.485 53.8923 246.78 53.6078 245.82 53.6078ZM256.848 52.2921C257.666 52.2921 258.365 52.4699 258.946 52.8255C259.538 53.1811 259.989 53.6849 260.297 54.3368C260.617 54.9769 260.777 55.7296 260.777 56.5949V57.5372H254.252C254.276 58.6159 254.548 59.4397 255.07 60.0086C255.603 60.5657 256.344 60.8443 257.292 60.8443C257.897 60.8443 258.43 60.791 258.892 60.6843C259.367 60.5657 259.852 60.3998 260.35 60.1864V61.5555C259.864 61.7689 259.384 61.923 258.91 62.0178C258.436 62.1245 257.873 62.1778 257.221 62.1778C256.32 62.1778 255.52 61.9941 254.821 61.6266C254.133 61.2592 253.594 60.7139 253.203 59.9909C252.823 59.256 252.634 58.361 252.634 57.3061C252.634 56.263 252.806 55.3681 253.149 54.6213C253.505 53.8745 253.997 53.2997 254.625 52.8966C255.265 52.4936 256.006 52.2921 256.848 52.2921ZM256.83 53.5723C256.083 53.5723 255.49 53.8153 255.052 54.3013C254.625 54.7754 254.37 55.4392 254.287 56.2926H259.141C259.129 55.4866 258.94 54.8347 258.572 54.3368C258.205 53.8271 257.624 53.5723 256.83 53.5723ZM262.972 61.0399C262.972 60.6013 263.079 60.2931 263.292 60.1153C263.505 59.9375 263.76 59.8486 264.057 59.8486C264.365 59.8486 264.626 59.9375 264.839 60.1153C265.064 60.2931 265.177 60.6013 265.177 61.0399C265.177 61.4666 265.064 61.7748 264.839 61.9644C264.626 62.1541 264.365 62.2489 264.057 62.2489C263.76 62.2489 263.505 62.1541 263.292 61.9644C263.079 61.7748 262.972 61.4666 262.972 61.0399Z" fill="#333333"/>
<path d="M66.7 111H60.7V109.54L62.42 108.9V98.84L60.7 98.18V96.72H66.7V98.18L64.98 98.84V108.9L66.7 109.54V111ZM74.8223 99.96C76.0357 99.96 76.9823 100.273 77.6623 100.9C78.3557 101.527 78.7023 102.54 78.7023 103.94V111H76.1823V104.44C76.1823 103.627 76.0223 103.02 75.7023 102.62C75.3823 102.207 74.8757 102 74.1823 102C73.169 102 72.4757 102.32 72.1023 102.96C71.729 103.587 71.5423 104.5 71.5423 105.7V111H69.0223V100.16H70.9623L71.3223 101.58H71.4623C71.7023 101.207 71.9957 100.9 72.3423 100.66C72.689 100.42 73.0757 100.247 73.5023 100.14C73.929 100.02 74.369 99.96 74.8223 99.96ZM87.5544 99.96C88.821 99.96 89.841 100.433 90.6144 101.38C91.3877 102.313 91.7744 103.707 91.7744 105.56C91.7744 106.787 91.5944 107.82 91.2344 108.66C90.8744 109.5 90.3744 110.133 89.7344 110.56C89.0944 110.987 88.3477 111.2 87.4944 111.2C86.9744 111.2 86.5144 111.133 86.1144 111C85.7144 110.853 85.3744 110.673 85.0944 110.46C84.8144 110.233 84.5744 109.993 84.3744 109.74H84.2144C84.2677 109.98 84.3077 110.253 84.3344 110.56C84.361 110.853 84.3744 111.133 84.3744 111.4V115.8H81.8544V100.16H83.8944L84.2544 101.6H84.3744C84.5744 101.293 84.8144 101.02 85.0944 100.78C85.3877 100.527 85.7344 100.327 86.1344 100.18C86.5477 100.033 87.021 99.96 87.5544 99.96ZM86.8344 102C86.2477 102 85.7744 102.12 85.4144 102.36C85.0544 102.587 84.7944 102.94 84.6344 103.42C84.4744 103.9 84.3877 104.5 84.3744 105.22V105.54C84.3744 106.313 84.4477 106.967 84.5944 107.5C84.7544 108.033 85.0144 108.44 85.3744 108.72C85.7477 109 86.2477 109.14 86.8744 109.14C87.4077 109.14 87.841 108.993 88.1744 108.7C88.521 108.407 88.7744 107.993 88.9344 107.46C89.1077 106.913 89.1944 106.267 89.1944 105.52C89.1944 104.4 89.001 103.533 88.6144 102.92C88.241 102.307 87.6477 102 86.8344 102ZM103.994 100.16V111H102.014L101.674 109.6H101.554C101.327 109.973 101.034 110.28 100.674 110.52C100.314 110.747 99.9206 110.913 99.4939 111.02C99.0672 111.14 98.6272 111.2 98.1739 111.2C97.3739 111.2 96.6806 111.06 96.0939 110.78C95.5072 110.5 95.0606 110.073 94.7539 109.5C94.4472 108.913 94.2939 108.16 94.2939 107.24V100.16H96.8139V106.74C96.8139 107.54 96.9739 108.147 97.2939 108.56C97.6139 108.96 98.1206 109.16 98.8139 109.16C99.4939 109.16 100.027 109.02 100.414 108.74C100.801 108.447 101.074 108.027 101.234 107.48C101.394 106.933 101.474 106.26 101.474 105.46V100.16H103.994ZM111.406 109.18C111.726 109.18 112.033 109.153 112.326 109.1C112.619 109.033 112.893 108.96 113.146 108.88V110.76C112.879 110.88 112.533 110.98 112.106 111.06C111.679 111.153 111.233 111.2 110.766 111.2C110.153 111.2 109.593 111.1 109.086 110.9C108.593 110.687 108.193 110.327 107.886 109.82C107.593 109.313 107.446 108.607 107.446 107.7V102.06H105.986V100.96L107.586 100.08L108.386 97.78H109.966V100.16H113.046V102.06H109.966V107.68C109.966 108.187 110.099 108.567 110.366 108.82C110.633 109.06 110.979 109.18 111.406 109.18ZM123.046 111H120.526V95.8H123.046V111ZM130.588 99.96C131.988 99.96 133.048 100.267 133.768 100.88C134.502 101.48 134.868 102.427 134.868 103.72V111H133.088L132.588 109.5H132.508C132.202 109.887 131.882 110.213 131.548 110.48C131.228 110.733 130.855 110.913 130.428 111.02C130.015 111.14 129.508 111.2 128.908 111.2C128.268 111.2 127.688 111.08 127.168 110.84C126.662 110.6 126.262 110.233 125.968 109.74C125.675 109.233 125.528 108.6 125.528 107.84C125.528 106.72 125.935 105.88 126.748 105.32C127.575 104.747 128.822 104.433 130.488 104.38L132.368 104.32V103.78C132.368 103.087 132.202 102.593 131.868 102.3C131.535 102.007 131.068 101.86 130.468 101.86C129.922 101.86 129.395 101.94 128.888 102.1C128.382 102.26 127.888 102.447 127.408 102.66L126.608 100.9C127.142 100.62 127.748 100.393 128.428 100.22C129.122 100.047 129.842 99.96 130.588 99.96ZM131.048 105.92C129.942 105.96 129.175 106.153 128.748 106.5C128.322 106.833 128.108 107.287 128.108 107.86C128.108 108.367 128.262 108.733 128.568 108.96C128.875 109.187 129.268 109.3 129.748 109.3C130.482 109.3 131.102 109.093 131.608 108.68C132.115 108.253 132.368 107.627 132.368 106.8V105.88L131.048 105.92ZM140.546 99.4C140.546 99.8267 140.533 100.24 140.506 100.64C140.48 101.04 140.453 101.353 140.426 101.58H140.546C140.84 101.127 141.24 100.747 141.746 100.44C142.253 100.12 142.913 99.96 143.726 99.96C144.993 99.96 146.013 100.433 146.786 101.38C147.56 102.327 147.946 103.72 147.946 105.56C147.946 106.8 147.766 107.84 147.406 108.68C147.06 109.52 146.56 110.153 145.906 110.58C145.266 110.993 144.52 111.2 143.666 111.2C142.853 111.2 142.2 111.053 141.706 110.76C141.226 110.467 140.84 110.127 140.546 109.74H140.366L139.906 111H138.026V95.8H140.546V99.4ZM143.006 102C142.393 102 141.906 102.12 141.546 102.36C141.2 102.6 140.946 102.967 140.786 103.46C140.626 103.953 140.546 104.58 140.546 105.34V105.56C140.546 106.72 140.72 107.607 141.066 108.22C141.426 108.833 142.086 109.14 143.046 109.14C143.793 109.14 144.366 108.833 144.766 108.22C145.166 107.593 145.366 106.7 145.366 105.54C145.366 104.367 145.16 103.487 144.746 102.9C144.346 102.3 143.766 102 143.006 102ZM154.906 99.96C155.879 99.96 156.712 100.16 157.406 100.56C158.112 100.947 158.659 101.507 159.046 102.24C159.432 102.96 159.626 103.84 159.626 104.88V106.16H152.466C152.492 107.147 152.766 107.913 153.286 108.46C153.806 108.993 154.526 109.26 155.446 109.26C156.152 109.26 156.779 109.193 157.326 109.06C157.886 108.913 158.459 108.707 159.046 108.44V110.46C158.512 110.713 157.959 110.9 157.386 111.02C156.812 111.14 156.126 111.2 155.326 111.2C154.272 111.2 153.332 111 152.506 110.6C151.692 110.187 151.052 109.567 150.586 108.74C150.132 107.913 149.906 106.887 149.906 105.66C149.906 104.42 150.112 103.38 150.526 102.54C150.952 101.687 151.539 101.047 152.286 100.62C153.032 100.18 153.906 99.96 154.906 99.96ZM154.906 101.82C154.239 101.82 153.692 102.04 153.266 102.48C152.852 102.907 152.606 103.547 152.526 104.4H157.186C157.186 103.893 157.099 103.447 156.926 103.06C156.766 102.673 156.519 102.373 156.186 102.16C155.852 101.933 155.426 101.82 154.906 101.82ZM164.687 111H162.167V95.8H164.687V111Z" fill="#333333"/>
<path d="M71.4311 140H69.8311V134.08H63.3244V140H61.7244V127.307H63.3244V132.676H69.8311V127.307H71.4311V140ZM75.4882 126.898C75.7252 126.898 75.9326 126.981 76.1104 127.147C76.3 127.301 76.3949 127.55 76.3949 127.893C76.3949 128.225 76.3 128.474 76.1104 128.64C75.9326 128.806 75.7252 128.889 75.4882 128.889C75.2275 128.889 75.0082 128.806 74.8304 128.64C74.6526 128.474 74.5638 128.225 74.5638 127.893C74.5638 127.55 74.6526 127.301 74.8304 127.147C75.0082 126.981 75.2275 126.898 75.4882 126.898ZM76.2526 130.471V140H74.6882V130.471H76.2526ZM83.8582 130.293C84.996 130.293 85.8552 130.572 86.436 131.129C87.0167 131.674 87.3071 132.563 87.3071 133.796V140H85.7604V133.902C85.7604 132.373 85.0493 131.609 83.6271 131.609C82.5723 131.609 81.8434 131.905 81.4404 132.498C81.0375 133.09 80.836 133.944 80.836 135.058V140H79.2715V130.471H80.5338L80.7649 131.769H80.8538C81.1619 131.271 81.5886 130.904 82.1338 130.667C82.6789 130.418 83.2538 130.293 83.8582 130.293ZM93.4433 138.898C93.6804 138.898 93.9233 138.88 94.1722 138.844C94.4211 138.797 94.6226 138.75 94.7767 138.702V139.893C94.6107 139.976 94.3737 140.041 94.0656 140.089C93.7574 140.148 93.4611 140.178 93.1767 140.178C92.6789 140.178 92.2167 140.095 91.79 139.929C91.3752 139.751 91.0374 139.449 90.7767 139.022C90.5159 138.596 90.3856 137.997 90.3856 137.227V131.68H89.0344V130.933L90.4033 130.311L91.0256 128.284H91.95V130.471H94.7056V131.68H91.95V137.191C91.95 137.772 92.0863 138.204 92.3589 138.489C92.6433 138.761 93.0048 138.898 93.4433 138.898ZM106.227 127.307L101.498 140H99.9694L104.698 127.307H106.227ZM119.842 140H112.749V127.307H119.842V128.711H114.349V132.676H119.522V134.062H114.349V138.596H119.842V140ZM124.672 135.129L121.383 130.471H123.161L125.614 134.062L128.049 130.471H129.809L126.521 135.129L129.987 140H128.209L125.614 136.196L122.983 140H121.223L124.672 135.129ZM135.433 130.311C136.594 130.311 137.453 130.566 138.01 131.076C138.567 131.585 138.846 132.397 138.846 133.511V140H137.708L137.406 138.649H137.335C136.92 139.17 136.481 139.556 136.019 139.804C135.569 140.053 134.941 140.178 134.135 140.178C133.27 140.178 132.553 139.953 131.984 139.502C131.415 139.04 131.13 138.323 131.13 137.351C131.13 136.403 131.504 135.674 132.25 135.164C132.997 134.643 134.147 134.359 135.699 134.311L137.317 134.258V133.689C137.317 132.895 137.145 132.344 136.801 132.036C136.458 131.727 135.972 131.573 135.344 131.573C134.846 131.573 134.372 131.65 133.921 131.804C133.471 131.947 133.05 132.113 132.659 132.302L132.179 131.129C132.594 130.904 133.086 130.714 133.655 130.56C134.224 130.394 134.816 130.311 135.433 130.311ZM135.895 135.396C134.71 135.443 133.886 135.633 133.424 135.964C132.973 136.296 132.748 136.764 132.748 137.369C132.748 137.902 132.908 138.293 133.228 138.542C133.56 138.791 133.981 138.916 134.49 138.916C135.296 138.916 135.966 138.696 136.499 138.258C137.033 137.807 137.299 137.12 137.299 136.196V135.342L135.895 135.396ZM152.242 130.293C153.321 130.293 154.127 130.572 154.66 131.129C155.193 131.674 155.46 132.563 155.46 133.796V140H153.913V133.867C153.913 132.361 153.267 131.609 151.976 131.609C151.051 131.609 150.387 131.876 149.984 132.409C149.593 132.942 149.398 133.719 149.398 134.738V140H147.851V133.867C147.851 132.361 147.199 131.609 145.896 131.609C144.936 131.609 144.272 131.905 143.904 132.498C143.537 133.09 143.353 133.944 143.353 135.058V140H141.789V130.471H143.051L143.282 131.769H143.371C143.667 131.271 144.064 130.904 144.562 130.667C145.072 130.418 145.611 130.293 146.18 130.293C147.673 130.293 148.645 130.827 149.096 131.893H149.184C149.504 131.348 149.937 130.945 150.482 130.684C151.039 130.424 151.626 130.293 152.242 130.293ZM162.937 130.293C164.11 130.293 165.052 130.702 165.763 131.52C166.486 132.338 166.848 133.57 166.848 135.218C166.848 136.841 166.486 138.074 165.763 138.916C165.052 139.757 164.104 140.178 162.919 140.178C162.184 140.178 161.574 140.041 161.088 139.769C160.614 139.484 160.241 139.159 159.968 138.791H159.861C159.885 138.993 159.909 139.247 159.932 139.556C159.956 139.864 159.968 140.13 159.968 140.356V144.267H158.403V130.471H159.683L159.897 131.769H159.968C160.252 131.354 160.626 131.004 161.088 130.72C161.55 130.436 162.166 130.293 162.937 130.293ZM162.652 131.609C161.681 131.609 160.993 131.881 160.59 132.427C160.199 132.972 159.992 133.801 159.968 134.916V135.218C159.968 136.391 160.158 137.298 160.537 137.938C160.928 138.566 161.645 138.88 162.688 138.88C163.269 138.88 163.743 138.72 164.11 138.4C164.489 138.08 164.768 137.647 164.946 137.102C165.135 136.545 165.23 135.911 165.23 135.2C165.23 134.11 165.017 133.239 164.59 132.587C164.175 131.935 163.529 131.609 162.652 131.609ZM170.905 140H169.341V126.489H170.905V140ZM177.604 130.293C178.422 130.293 179.121 130.471 179.702 130.827C180.295 131.182 180.745 131.686 181.053 132.338C181.373 132.978 181.533 133.73 181.533 134.596V135.538H175.009C175.032 136.616 175.305 137.44 175.827 138.009C176.36 138.566 177.101 138.844 178.049 138.844C178.653 138.844 179.187 138.791 179.649 138.684C180.123 138.566 180.609 138.4 181.107 138.187V139.556C180.621 139.769 180.141 139.923 179.667 140.018C179.192 140.124 178.629 140.178 177.978 140.178C177.077 140.178 176.277 139.994 175.578 139.627C174.89 139.259 174.351 138.714 173.96 137.991C173.581 137.256 173.391 136.361 173.391 135.307C173.391 134.264 173.563 133.369 173.907 132.622C174.262 131.876 174.754 131.301 175.382 130.898C176.022 130.495 176.763 130.293 177.604 130.293ZM177.587 131.573C176.84 131.573 176.247 131.816 175.809 132.302C175.382 132.776 175.127 133.44 175.044 134.293H179.898C179.886 133.487 179.696 132.836 179.329 132.338C178.961 131.828 178.381 131.573 177.587 131.573ZM199.03 130.293C200.109 130.293 200.915 130.572 201.448 131.129C201.982 131.674 202.248 132.563 202.248 133.796V140H200.702V133.867C200.702 132.361 200.056 131.609 198.764 131.609C197.839 131.609 197.176 131.876 196.773 132.409C196.382 132.942 196.186 133.719 196.186 134.738V140H194.639V133.867C194.639 132.361 193.987 131.609 192.684 131.609C191.724 131.609 191.06 131.905 190.693 132.498C190.325 133.09 190.142 133.944 190.142 135.058V140H188.577V130.471H189.839L190.07 131.769H190.159C190.456 131.271 190.853 130.904 191.35 130.667C191.86 130.418 192.399 130.293 192.968 130.293C194.462 130.293 195.433 130.827 195.884 131.893H195.973C196.293 131.348 196.725 130.945 197.27 130.684C197.827 130.424 198.414 130.293 199.03 130.293ZM208.872 130.293C209.689 130.293 210.389 130.471 210.969 130.827C211.562 131.182 212.012 131.686 212.321 132.338C212.641 132.978 212.801 133.73 212.801 134.596V135.538H206.276C206.3 136.616 206.572 137.44 207.094 138.009C207.627 138.566 208.368 138.844 209.316 138.844C209.921 138.844 210.454 138.791 210.916 138.684C211.39 138.566 211.876 138.4 212.374 138.187V139.556C211.888 139.769 211.408 139.923 210.934 140.018C210.46 140.124 209.897 140.178 209.245 140.178C208.344 140.178 207.544 139.994 206.845 139.627C206.158 139.259 205.618 138.714 205.227 137.991C204.848 137.256 204.658 136.361 204.658 135.307C204.658 134.264 204.83 133.369 205.174 132.622C205.529 131.876 206.021 131.301 206.649 130.898C207.289 130.495 208.03 130.293 208.872 130.293ZM208.854 131.573C208.107 131.573 207.515 131.816 207.076 132.302C206.649 132.776 206.395 133.44 206.312 134.293H211.165C211.153 133.487 210.964 132.836 210.596 132.338C210.229 131.828 209.648 131.573 208.854 131.573ZM221.431 137.369C221.431 138.293 221.087 138.993 220.4 139.467C219.712 139.941 218.788 140.178 217.626 140.178C216.963 140.178 216.388 140.124 215.902 140.018C215.428 139.911 215.007 139.763 214.64 139.573V138.151C215.019 138.341 215.475 138.519 216.009 138.684C216.554 138.839 217.105 138.916 217.662 138.916C218.456 138.916 219.031 138.791 219.386 138.542C219.742 138.281 219.92 137.938 219.92 137.511C219.92 137.274 219.855 137.061 219.724 136.871C219.594 136.681 219.357 136.492 219.013 136.302C218.681 136.113 218.201 135.899 217.573 135.662C216.957 135.425 216.429 135.188 215.991 134.951C215.552 134.714 215.215 134.43 214.978 134.098C214.74 133.766 214.622 133.339 214.622 132.818C214.622 132.012 214.948 131.39 215.6 130.951C216.263 130.513 217.129 130.293 218.195 130.293C218.776 130.293 219.315 130.353 219.813 130.471C220.323 130.578 220.797 130.732 221.235 130.933L220.702 132.178C220.299 132.012 219.878 131.87 219.44 131.751C219.001 131.633 218.551 131.573 218.089 131.573C217.449 131.573 216.957 131.68 216.613 131.893C216.281 132.095 216.115 132.373 216.115 132.729C216.115 132.99 216.192 133.215 216.346 133.404C216.5 133.582 216.755 133.76 217.111 133.938C217.478 134.104 217.964 134.305 218.569 134.542C219.173 134.767 219.689 134.999 220.115 135.236C220.542 135.473 220.868 135.763 221.093 136.107C221.318 136.439 221.431 136.859 221.431 137.369ZM229.938 137.369C229.938 138.293 229.594 138.993 228.907 139.467C228.219 139.941 227.295 140.178 226.133 140.178C225.47 140.178 224.895 140.124 224.409 140.018C223.935 139.911 223.514 139.763 223.147 139.573V138.151C223.526 138.341 223.982 138.519 224.516 138.684C225.061 138.839 225.612 138.916 226.169 138.916C226.963 138.916 227.538 138.791 227.893 138.542C228.249 138.281 228.427 137.938 228.427 137.511C228.427 137.274 228.361 137.061 228.231 136.871C228.101 136.681 227.864 136.492 227.52 136.302C227.188 136.113 226.708 135.899 226.08 135.662C225.464 135.425 224.936 135.188 224.498 134.951C224.059 134.714 223.721 134.43 223.484 134.098C223.247 133.766 223.129 133.339 223.129 132.818C223.129 132.012 223.455 131.39 224.107 130.951C224.77 130.513 225.636 130.293 226.702 130.293C227.283 130.293 227.822 130.353 228.32 130.471C228.83 130.578 229.304 130.732 229.742 130.933L229.209 132.178C228.806 132.012 228.385 131.87 227.947 131.751C227.508 131.633 227.058 131.573 226.596 131.573C225.956 131.573 225.464 131.68 225.12 131.893C224.788 132.095 224.622 132.373 224.622 132.729C224.622 132.99 224.699 133.215 224.853 133.404C225.007 133.582 225.262 133.76 225.618 133.938C225.985 134.104 226.471 134.305 227.076 134.542C227.68 134.767 228.196 134.999 228.622 135.236C229.049 135.473 229.375 135.763 229.6 136.107C229.825 136.439 229.938 136.859 229.938 137.369ZM235.849 130.311C237.011 130.311 237.87 130.566 238.427 131.076C238.984 131.585 239.263 132.397 239.263 133.511V140H238.125L237.823 138.649H237.751C237.337 139.17 236.898 139.556 236.436 139.804C235.985 140.053 235.357 140.178 234.551 140.178C233.686 140.178 232.969 139.953 232.4 139.502C231.831 139.04 231.547 138.323 231.547 137.351C231.547 136.403 231.92 135.674 232.667 135.164C233.414 134.643 234.563 134.359 236.116 134.311L237.734 134.258V133.689C237.734 132.895 237.562 132.344 237.218 132.036C236.874 131.727 236.388 131.573 235.76 131.573C235.263 131.573 234.788 131.65 234.338 131.804C233.888 131.947 233.467 132.113 233.076 132.302L232.596 131.129C233.011 130.904 233.503 130.714 234.071 130.56C234.64 130.394 235.233 130.311 235.849 130.311ZM236.311 135.396C235.126 135.443 234.303 135.633 233.84 135.964C233.39 136.296 233.165 136.764 233.165 137.369C233.165 137.902 233.325 138.293 233.645 138.542C233.977 138.791 234.397 138.916 234.907 138.916C235.713 138.916 236.383 138.696 236.916 138.258C237.449 137.807 237.716 137.12 237.716 136.196V135.342L236.311 135.396ZM245.583 130.293C246.211 130.293 246.774 130.412 247.272 130.649C247.782 130.886 248.214 131.247 248.57 131.733H248.659L248.872 130.471H250.117V140.16C250.117 141.523 249.767 142.548 249.068 143.236C248.38 143.923 247.308 144.267 245.85 144.267C244.451 144.267 243.308 144.065 242.419 143.662V142.222C243.355 142.72 244.529 142.969 245.939 142.969C246.757 142.969 247.397 142.726 247.859 142.24C248.333 141.766 248.57 141.114 248.57 140.284V139.911C248.57 139.769 248.576 139.567 248.588 139.307C248.6 139.034 248.611 138.844 248.623 138.738H248.552C247.912 139.698 246.929 140.178 245.601 140.178C244.369 140.178 243.403 139.745 242.703 138.88C242.016 138.015 241.672 136.806 241.672 135.253C241.672 133.736 242.016 132.533 242.703 131.644C243.403 130.744 244.363 130.293 245.583 130.293ZM245.797 131.609C245.003 131.609 244.386 131.929 243.948 132.569C243.509 133.197 243.29 134.098 243.29 135.271C243.29 136.444 243.503 137.345 243.93 137.973C244.369 138.59 245.003 138.898 245.832 138.898C246.792 138.898 247.491 138.643 247.93 138.133C248.369 137.612 248.588 136.776 248.588 135.627V135.253C248.588 133.95 248.363 133.019 247.912 132.462C247.462 131.893 246.757 131.609 245.797 131.609ZM256.823 130.293C257.641 130.293 258.34 130.471 258.921 130.827C259.513 131.182 259.964 131.686 260.272 132.338C260.592 132.978 260.752 133.73 260.752 134.596V135.538H254.228C254.251 136.616 254.524 137.44 255.045 138.009C255.579 138.566 256.319 138.844 257.268 138.844C257.872 138.844 258.405 138.791 258.868 138.684C259.342 138.566 259.828 138.4 260.325 138.187V139.556C259.839 139.769 259.359 139.923 258.885 140.018C258.411 140.124 257.848 140.178 257.196 140.178C256.296 140.178 255.496 139.994 254.796 139.627C254.109 139.259 253.57 138.714 253.179 137.991C252.799 137.256 252.61 136.361 252.61 135.307C252.61 134.264 252.782 133.369 253.125 132.622C253.481 131.876 253.973 131.301 254.601 130.898C255.241 130.495 255.982 130.293 256.823 130.293ZM256.805 131.573C256.059 131.573 255.466 131.816 255.028 132.302C254.601 132.776 254.346 133.44 254.263 134.293H259.116C259.105 133.487 258.915 132.836 258.548 132.338C258.18 131.828 257.599 131.573 256.805 131.573Z" fill="#333333"/>
<rect x="61" y="158" width="91" height="46" rx="2" fill="white"/>
<path d="M82.46 181.84C82.46 183.373 82.3 184.693 81.98 185.8C81.66 186.893 81.1533 187.733 80.46 188.32C79.7667 188.907 78.8467 189.2 77.7 189.2C76.0867 189.2 74.8933 188.553 74.12 187.26C73.36 185.953 72.98 184.147 72.98 181.84C72.98 180.293 73.1333 178.973 73.44 177.88C73.76 176.787 74.2667 175.953 74.96 175.38C75.6533 174.793 76.5667 174.5 77.7 174.5C79.3 174.5 80.4933 175.147 81.28 176.44C82.0667 177.72 82.46 179.52 82.46 181.84ZM74.74 181.84C74.74 183.8 74.96 185.267 75.4 186.24C75.8533 187.213 76.62 187.7 77.7 187.7C78.7667 187.7 79.5267 187.22 79.98 186.26C80.4467 185.287 80.68 183.813 80.68 181.84C80.68 179.893 80.4467 178.433 79.98 177.46C79.5267 176.487 78.7667 176 77.7 176C76.62 176 75.8533 176.487 75.4 177.46C74.96 178.433 74.74 179.893 74.74 181.84ZM93.9053 181.84C93.9053 183.373 93.7453 184.693 93.4253 185.8C93.1053 186.893 92.5986 187.733 91.9053 188.32C91.212 188.907 90.292 189.2 89.1453 189.2C87.532 189.2 86.3386 188.553 85.5653 187.26C84.8053 185.953 84.4253 184.147 84.4253 181.84C84.4253 180.293 84.5786 178.973 84.8853 177.88C85.2053 176.787 85.712 175.953 86.4053 175.38C87.0986 174.793 88.012 174.5 89.1453 174.5C90.7453 174.5 91.9386 175.147 92.7253 176.44C93.512 177.72 93.9053 179.52 93.9053 181.84ZM86.1853 181.84C86.1853 183.8 86.4053 185.267 86.8453 186.24C87.2986 187.213 88.0653 187.7 89.1453 187.7C90.212 187.7 90.972 187.22 91.4253 186.26C91.892 185.287 92.1253 183.813 92.1253 181.84C92.1253 179.893 91.892 178.433 91.4253 177.46C90.972 176.487 90.212 176 89.1453 176C88.0653 176 87.2986 176.487 86.8453 177.46C86.4053 178.433 86.1853 179.893 86.1853 181.84ZM105.351 181.84C105.351 183.373 105.191 184.693 104.871 185.8C104.551 186.893 104.044 187.733 103.351 188.32C102.657 188.907 101.737 189.2 100.591 189.2C98.9773 189.2 97.784 188.553 97.0106 187.26C96.2506 185.953 95.8706 184.147 95.8706 181.84C95.8706 180.293 96.024 178.973 96.3306 177.88C96.6506 176.787 97.1573 175.953 97.8506 175.38C98.544 174.793 99.4573 174.5 100.591 174.5C102.191 174.5 103.384 175.147 104.171 176.44C104.957 177.72 105.351 179.52 105.351 181.84ZM97.6306 181.84C97.6306 183.8 97.8506 185.267 98.2906 186.24C98.744 187.213 99.5106 187.7 100.591 187.7C101.657 187.7 102.417 187.22 102.871 186.26C103.337 185.287 103.571 183.813 103.571 181.84C103.571 179.893 103.337 178.433 102.871 177.46C102.417 176.487 101.657 176 100.591 176C99.5106 176 98.744 176.487 98.2906 177.46C97.8506 178.433 97.6306 179.893 97.6306 181.84ZM116.796 181.84C116.796 183.373 116.636 184.693 116.316 185.8C115.996 186.893 115.489 187.733 114.796 188.32C114.103 188.907 113.183 189.2 112.036 189.2C110.423 189.2 109.229 188.553 108.456 187.26C107.696 185.953 107.316 184.147 107.316 181.84C107.316 180.293 107.469 178.973 107.776 177.88C108.096 176.787 108.603 175.953 109.296 175.38C109.989 174.793 110.903 174.5 112.036 174.5C113.636 174.5 114.829 175.147 115.616 176.44C116.403 177.72 116.796 179.52 116.796 181.84ZM109.076 181.84C109.076 183.8 109.296 185.267 109.736 186.24C110.189 187.213 110.956 187.7 112.036 187.7C113.103 187.7 113.863 187.22 114.316 186.26C114.783 185.287 115.016 183.813 115.016 181.84C115.016 179.893 114.783 178.433 114.316 177.46C113.863 176.487 113.103 176 112.036 176C110.956 176 110.189 176.487 109.736 177.46C109.296 178.433 109.076 179.893 109.076 181.84ZM128.241 181.84C128.241 183.373 128.081 184.693 127.761 185.8C127.441 186.893 126.935 187.733 126.241 188.32C125.548 188.907 124.628 189.2 123.481 189.2C121.868 189.2 120.675 188.553 119.901 187.26C119.141 185.953 118.761 184.147 118.761 181.84C118.761 180.293 118.915 178.973 119.221 177.88C119.541 176.787 120.048 175.953 120.741 175.38C121.435 174.793 122.348 174.5 123.481 174.5C125.081 174.5 126.275 175.147 127.061 176.44C127.848 177.72 128.241 179.52 128.241 181.84ZM120.521 181.84C120.521 183.8 120.741 185.267 121.181 186.24C121.635 187.213 122.401 187.7 123.481 187.7C124.548 187.7 125.308 187.22 125.761 186.26C126.228 185.287 126.461 183.813 126.461 181.84C126.461 179.893 126.228 178.433 125.761 177.46C125.308 176.487 124.548 176 123.481 176C122.401 176 121.635 176.487 121.181 177.46C120.741 178.433 120.521 179.893 120.521 181.84ZM139.687 181.84C139.687 183.373 139.527 184.693 139.207 185.8C138.887 186.893 138.38 187.733 137.687 188.32C136.993 188.907 136.073 189.2 134.927 189.2C133.313 189.2 132.12 188.553 131.347 187.26C130.587 185.953 130.207 184.147 130.207 181.84C130.207 180.293 130.36 178.973 130.667 177.88C130.987 176.787 131.493 175.953 132.187 175.38C132.88 174.793 133.793 174.5 134.927 174.5C136.527 174.5 137.72 175.147 138.507 176.44C139.293 177.72 139.687 179.52 139.687 181.84ZM131.967 181.84C131.967 183.8 132.187 185.267 132.627 186.24C133.08 187.213 133.847 187.7 134.927 187.7C135.993 187.7 136.753 187.22 137.207 186.26C137.673 185.287 137.907 183.813 137.907 181.84C137.907 179.893 137.673 178.433 137.207 177.46C136.753 176.487 135.993 176 134.927 176C133.847 176 133.08 176.487 132.627 177.46C132.187 178.433 131.967 179.893 131.967 181.84Z" fill="#333333"/>
<rect x="61" y="158" width="91" height="46" rx="2" stroke="#333333" stroke-width="2"/>
<path d="M70.16 245.1C70.16 245.94 69.9533 246.667 69.54 247.28C69.1267 247.893 68.5267 248.367 67.74 248.7C66.9667 249.033 66.04 249.2 64.96 249.2C64.44 249.2 63.94 249.167 63.46 249.1C62.9933 249.047 62.5467 248.96 62.12 248.84C61.7067 248.72 61.32 248.573 60.96 248.4V246C61.56 246.267 62.22 246.513 62.94 246.74C63.66 246.953 64.3933 247.06 65.14 247.06C65.7133 247.06 66.18 246.987 66.54 246.84C66.9133 246.68 67.1867 246.467 67.36 246.2C67.5333 245.92 67.62 245.6 67.62 245.24C67.62 244.84 67.5067 244.5 67.28 244.22C67.0533 243.94 66.72 243.68 66.28 243.44C65.84 243.2 65.2933 242.947 64.64 242.68C64.2 242.493 63.7667 242.287 63.34 242.06C62.9267 241.82 62.5533 241.533 62.22 241.2C61.8867 240.867 61.62 240.473 61.42 240.02C61.22 239.567 61.12 239.033 61.12 238.42C61.12 237.607 61.3133 236.907 61.7 236.32C62.1 235.733 62.6533 235.287 63.36 234.98C64.08 234.673 64.9133 234.52 65.86 234.52C66.62 234.52 67.3333 234.6 68 234.76C68.6667 234.92 69.3267 235.147 69.98 235.44L69.16 237.5C68.5733 237.247 68.0067 237.047 67.46 236.9C66.9133 236.753 66.3533 236.68 65.78 236.68C65.3267 236.68 64.94 236.753 64.62 236.9C64.3 237.033 64.06 237.227 63.9 237.48C63.74 237.733 63.66 238.027 63.66 238.36C63.66 238.747 63.76 239.073 63.96 239.34C64.16 239.607 64.4667 239.86 64.88 240.1C65.3067 240.327 65.8533 240.587 66.52 240.88C67.2933 241.213 67.9467 241.56 68.48 241.92C69.0133 242.28 69.4267 242.713 69.72 243.22C70.0133 243.727 70.16 244.353 70.16 245.1ZM76.9761 237.96C77.9494 237.96 78.7828 238.16 79.4761 238.56C80.1828 238.947 80.7294 239.507 81.1161 240.24C81.5028 240.96 81.6961 241.84 81.6961 242.88V244.16H74.5361C74.5628 245.147 74.8361 245.913 75.3561 246.46C75.8761 246.993 76.5961 247.26 77.5161 247.26C78.2228 247.26 78.8494 247.193 79.3961 247.06C79.9561 246.913 80.5294 246.707 81.1161 246.44V248.46C80.5828 248.713 80.0294 248.9 79.4561 249.02C78.8828 249.14 78.1961 249.2 77.3961 249.2C76.3428 249.2 75.4028 249 74.5761 248.6C73.7628 248.187 73.1228 247.567 72.6561 246.74C72.2028 245.913 71.9761 244.887 71.9761 243.66C71.9761 242.42 72.1828 241.38 72.5961 240.54C73.0228 239.687 73.6094 239.047 74.3561 238.62C75.1028 238.18 75.9761 237.96 76.9761 237.96ZM76.9761 239.82C76.3094 239.82 75.7628 240.04 75.3361 240.48C74.9228 240.907 74.6761 241.547 74.5961 242.4H79.2561C79.2561 241.893 79.1694 241.447 78.9961 241.06C78.8361 240.673 78.5894 240.373 78.2561 240.16C77.9228 239.933 77.4961 239.82 76.9761 239.82ZM86.7572 249H84.2372V233.8H86.7572V249ZM94.3394 237.96C95.3127 237.96 96.146 238.16 96.8394 238.56C97.546 238.947 98.0927 239.507 98.4794 240.24C98.866 240.96 99.0594 241.84 99.0594 242.88V244.16H91.8994C91.926 245.147 92.1994 245.913 92.7194 246.46C93.2394 246.993 93.9594 247.26 94.8794 247.26C95.586 247.26 96.2127 247.193 96.7594 247.06C97.3194 246.913 97.8927 246.707 98.4794 246.44V248.46C97.946 248.713 97.3927 248.9 96.8194 249.02C96.246 249.14 95.5594 249.2 94.7594 249.2C93.706 249.2 92.766 249 91.9394 248.6C91.126 248.187 90.486 247.567 90.0194 246.74C89.566 245.913 89.3394 244.887 89.3394 243.66C89.3394 242.42 89.546 241.38 89.9594 240.54C90.386 239.687 90.9727 239.047 91.7194 238.62C92.466 238.18 93.3394 237.96 94.3394 237.96ZM94.3394 239.82C93.6727 239.82 93.126 240.04 92.6994 240.48C92.286 240.907 92.0394 241.547 91.9594 242.4H96.6194C96.6194 241.893 96.5327 241.447 96.3594 241.06C96.1994 240.673 95.9527 240.373 95.6194 240.16C95.286 239.933 94.8594 239.82 94.3394 239.82ZM105.98 249.2C104.954 249.2 104.06 249.007 103.3 248.62C102.554 248.22 101.974 247.613 101.56 246.8C101.16 245.973 100.96 244.92 100.96 243.64C100.96 242.307 101.18 241.227 101.62 240.4C102.074 239.56 102.694 238.947 103.48 238.56C104.267 238.16 105.167 237.96 106.18 237.96C106.86 237.96 107.467 238.027 108 238.16C108.534 238.293 108.987 238.453 109.36 238.64L108.62 240.62C108.207 240.46 107.794 240.327 107.38 240.22C106.967 240.1 106.567 240.04 106.18 240.04C105.58 240.04 105.08 240.173 104.68 240.44C104.294 240.707 104.007 241.107 103.82 241.64C103.634 242.16 103.54 242.82 103.54 243.62C103.54 244.393 103.634 245.04 103.82 245.56C104.02 246.08 104.314 246.473 104.7 246.74C105.087 246.993 105.567 247.12 106.14 247.12C106.754 247.12 107.294 247.047 107.76 246.9C108.227 246.753 108.667 246.553 109.08 246.3V248.48C108.667 248.733 108.22 248.913 107.74 249.02C107.274 249.14 106.687 249.2 105.98 249.2ZM115.82 247.18C116.14 247.18 116.447 247.153 116.74 247.1C117.033 247.033 117.307 246.96 117.56 246.88V248.76C117.293 248.88 116.947 248.98 116.52 249.06C116.093 249.153 115.647 249.2 115.18 249.2C114.567 249.2 114.007 249.1 113.5 248.9C113.007 248.687 112.607 248.327 112.3 247.82C112.007 247.313 111.86 246.607 111.86 245.7V240.06H110.4V238.96L112 238.08L112.8 235.78H114.38V238.16H117.46V240.06H114.38V245.68C114.38 246.187 114.513 246.567 114.78 246.82C115.047 247.06 115.393 247.18 115.82 247.18ZM127.46 249H124.94V233.8H127.46V249ZM135.003 237.96C136.403 237.96 137.463 238.267 138.183 238.88C138.916 239.48 139.283 240.427 139.283 241.72V249H137.503L137.003 247.5H136.923C136.616 247.887 136.296 248.213 135.963 248.48C135.643 248.733 135.269 248.913 134.843 249.02C134.429 249.14 133.923 249.2 133.323 249.2C132.683 249.2 132.103 249.08 131.583 248.84C131.076 248.6 130.676 248.233 130.382 247.74C130.089 247.233 129.943 246.6 129.943 245.84C129.943 244.72 130.349 243.88 131.163 243.32C131.989 242.747 133.236 242.433 134.903 242.38L136.783 242.32V241.78C136.783 241.087 136.616 240.593 136.283 240.3C135.949 240.007 135.483 239.86 134.883 239.86C134.336 239.86 133.809 239.94 133.303 240.1C132.796 240.26 132.303 240.447 131.823 240.66L131.023 238.9C131.556 238.62 132.163 238.393 132.843 238.22C133.536 238.047 134.256 237.96 135.003 237.96ZM135.463 243.92C134.356 243.96 133.589 244.153 133.163 244.5C132.736 244.833 132.523 245.287 132.523 245.86C132.523 246.367 132.676 246.733 132.983 246.96C133.289 247.187 133.683 247.3 134.163 247.3C134.896 247.3 135.516 247.093 136.023 246.68C136.529 246.253 136.783 245.627 136.783 244.8V243.88L135.463 243.92ZM144.96 237.4C144.96 237.827 144.947 238.24 144.92 238.64C144.894 239.04 144.867 239.353 144.84 239.58H144.96C145.254 239.127 145.654 238.747 146.16 238.44C146.667 238.12 147.327 237.96 148.14 237.96C149.407 237.96 150.427 238.433 151.2 239.38C151.974 240.327 152.36 241.72 152.36 243.56C152.36 244.8 152.18 245.84 151.82 246.68C151.474 247.52 150.974 248.153 150.32 248.58C149.68 248.993 148.934 249.2 148.08 249.2C147.267 249.2 146.614 249.053 146.12 248.76C145.64 248.467 145.254 248.127 144.96 247.74H144.78L144.32 249H142.44V233.8H144.96V237.4ZM147.42 240C146.807 240 146.32 240.12 145.96 240.36C145.614 240.6 145.36 240.967 145.2 241.46C145.04 241.953 144.96 242.58 144.96 243.34V243.56C144.96 244.72 145.134 245.607 145.48 246.22C145.84 246.833 146.5 247.14 147.46 247.14C148.207 247.14 148.78 246.833 149.18 246.22C149.58 245.593 149.78 244.7 149.78 243.54C149.78 242.367 149.574 241.487 149.16 240.9C148.76 240.3 148.18 240 147.42 240ZM159.32 237.96C160.293 237.96 161.127 238.16 161.82 238.56C162.527 238.947 163.073 239.507 163.46 240.24C163.847 240.96 164.04 241.84 164.04 242.88V244.16H156.88C156.907 245.147 157.18 245.913 157.7 246.46C158.22 246.993 158.94 247.26 159.86 247.26C160.567 247.26 161.193 247.193 161.74 247.06C162.3 246.913 162.873 246.707 163.46 246.44V248.46C162.927 248.713 162.373 248.9 161.8 249.02C161.227 249.14 160.54 249.2 159.74 249.2C158.687 249.2 157.747 249 156.92 248.6C156.107 248.187 155.467 247.567 155 246.74C154.547 245.913 154.32 244.887 154.32 243.66C154.32 242.42 154.527 241.38 154.94 240.54C155.367 239.687 155.953 239.047 156.7 238.62C157.447 238.18 158.32 237.96 159.32 237.96ZM159.32 239.82C158.653 239.82 158.107 240.04 157.68 240.48C157.267 240.907 157.02 241.547 156.94 242.4H161.6C161.6 241.893 161.513 241.447 161.34 241.06C161.18 240.673 160.933 240.373 160.6 240.16C160.267 239.933 159.84 239.82 159.32 239.82ZM169.101 249H166.581V233.8H169.101V249Z" fill="#333333"/>
<path d="M71.4311 278H69.8311V272.08H63.3244V278H61.7244V265.307H63.3244V270.676H69.8311V265.307H71.4311V278ZM75.4882 264.898C75.7252 264.898 75.9326 264.981 76.1104 265.147C76.3 265.301 76.3949 265.55 76.3949 265.893C76.3949 266.225 76.3 266.474 76.1104 266.64C75.9326 266.806 75.7252 266.889 75.4882 266.889C75.2275 266.889 75.0082 266.806 74.8304 266.64C74.6526 266.474 74.5638 266.225 74.5638 265.893C74.5638 265.55 74.6526 265.301 74.8304 265.147C75.0082 264.981 75.2275 264.898 75.4882 264.898ZM76.2526 268.471V278H74.6882V268.471H76.2526ZM83.8582 268.293C84.996 268.293 85.8552 268.572 86.436 269.129C87.0167 269.674 87.3071 270.563 87.3071 271.796V278H85.7604V271.902C85.7604 270.373 85.0493 269.609 83.6271 269.609C82.5723 269.609 81.8434 269.905 81.4404 270.498C81.0375 271.09 80.836 271.944 80.836 273.058V278H79.2715V268.471H80.5338L80.7649 269.769H80.8538C81.1619 269.271 81.5886 268.904 82.1338 268.667C82.6789 268.418 83.2538 268.293 83.8582 268.293ZM93.4433 276.898C93.6804 276.898 93.9233 276.88 94.1722 276.844C94.4211 276.797 94.6226 276.75 94.7767 276.702V277.893C94.6107 277.976 94.3737 278.041 94.0656 278.089C93.7574 278.148 93.4611 278.178 93.1767 278.178C92.6789 278.178 92.2167 278.095 91.79 277.929C91.3752 277.751 91.0374 277.449 90.7767 277.022C90.5159 276.596 90.3856 275.997 90.3856 275.227V269.68H89.0344V268.933L90.4033 268.311L91.0256 266.284H91.95V268.471H94.7056V269.68H91.95V275.191C91.95 275.772 92.0863 276.204 92.3589 276.489C92.6433 276.761 93.0048 276.898 93.4433 276.898ZM106.227 265.307L101.498 278H99.9694L104.698 265.307H106.227ZM119.842 278H112.749V265.307H119.842V266.711H114.349V270.676H119.522V272.062H114.349V276.596H119.842V278ZM124.672 273.129L121.383 268.471H123.161L125.614 272.062L128.049 268.471H129.809L126.521 273.129L129.987 278H128.209L125.614 274.196L122.983 278H121.223L124.672 273.129ZM135.433 268.311C136.594 268.311 137.453 268.566 138.01 269.076C138.567 269.585 138.846 270.397 138.846 271.511V278H137.708L137.406 276.649H137.335C136.92 277.17 136.481 277.556 136.019 277.804C135.569 278.053 134.941 278.178 134.135 278.178C133.27 278.178 132.553 277.953 131.984 277.502C131.415 277.04 131.13 276.323 131.13 275.351C131.13 274.403 131.504 273.674 132.25 273.164C132.997 272.643 134.147 272.359 135.699 272.311L137.317 272.258V271.689C137.317 270.895 137.145 270.344 136.801 270.036C136.458 269.727 135.972 269.573 135.344 269.573C134.846 269.573 134.372 269.65 133.921 269.804C133.471 269.947 133.05 270.113 132.659 270.302L132.179 269.129C132.594 268.904 133.086 268.714 133.655 268.56C134.224 268.394 134.816 268.311 135.433 268.311ZM135.895 273.396C134.71 273.443 133.886 273.633 133.424 273.964C132.973 274.296 132.748 274.764 132.748 275.369C132.748 275.902 132.908 276.293 133.228 276.542C133.56 276.791 133.981 276.916 134.49 276.916C135.296 276.916 135.966 276.696 136.499 276.258C137.033 275.807 137.299 275.12 137.299 274.196V273.342L135.895 273.396ZM152.242 268.293C153.321 268.293 154.127 268.572 154.66 269.129C155.193 269.674 155.46 270.563 155.46 271.796V278H153.913V271.867C153.913 270.361 153.267 269.609 151.976 269.609C151.051 269.609 150.387 269.876 149.984 270.409C149.593 270.942 149.398 271.719 149.398 272.738V278H147.851V271.867C147.851 270.361 147.199 269.609 145.896 269.609C144.936 269.609 144.272 269.905 143.904 270.498C143.537 271.09 143.353 271.944 143.353 273.058V278H141.789V268.471H143.051L143.282 269.769H143.371C143.667 269.271 144.064 268.904 144.562 268.667C145.072 268.418 145.611 268.293 146.18 268.293C147.673 268.293 148.645 268.827 149.096 269.893H149.184C149.504 269.348 149.937 268.945 150.482 268.684C151.039 268.424 151.626 268.293 152.242 268.293ZM162.937 268.293C164.11 268.293 165.052 268.702 165.763 269.52C166.486 270.338 166.848 271.57 166.848 273.218C166.848 274.841 166.486 276.074 165.763 276.916C165.052 277.757 164.104 278.178 162.919 278.178C162.184 278.178 161.574 278.041 161.088 277.769C160.614 277.484 160.241 277.159 159.968 276.791H159.861C159.885 276.993 159.909 277.247 159.932 277.556C159.956 277.864 159.968 278.13 159.968 278.356V282.267H158.403V268.471H159.683L159.897 269.769H159.968C160.252 269.354 160.626 269.004 161.088 268.72C161.55 268.436 162.166 268.293 162.937 268.293ZM162.652 269.609C161.681 269.609 160.993 269.881 160.59 270.427C160.199 270.972 159.992 271.801 159.968 272.916V273.218C159.968 274.391 160.158 275.298 160.537 275.938C160.928 276.566 161.645 276.88 162.688 276.88C163.269 276.88 163.743 276.72 164.11 276.4C164.489 276.08 164.768 275.647 164.946 275.102C165.135 274.545 165.23 273.911 165.23 273.2C165.23 272.11 165.017 271.239 164.59 270.587C164.175 269.935 163.529 269.609 162.652 269.609ZM170.905 278H169.341V264.489H170.905V278ZM177.604 268.293C178.422 268.293 179.121 268.471 179.702 268.827C180.295 269.182 180.745 269.686 181.053 270.338C181.373 270.978 181.533 271.73 181.533 272.596V273.538H175.009C175.032 274.616 175.305 275.44 175.827 276.009C176.36 276.566 177.101 276.844 178.049 276.844C178.653 276.844 179.187 276.791 179.649 276.684C180.123 276.566 180.609 276.4 181.107 276.187V277.556C180.621 277.769 180.141 277.923 179.667 278.018C179.192 278.124 178.629 278.178 177.978 278.178C177.077 278.178 176.277 277.994 175.578 277.627C174.89 277.259 174.351 276.714 173.96 275.991C173.581 275.256 173.391 274.361 173.391 273.307C173.391 272.264 173.563 271.369 173.907 270.622C174.262 269.876 174.754 269.301 175.382 268.898C176.022 268.495 176.763 268.293 177.604 268.293ZM177.587 269.573C176.84 269.573 176.247 269.816 175.809 270.302C175.382 270.776 175.127 271.44 175.044 272.293H179.898C179.886 271.487 179.696 270.836 179.329 270.338C178.961 269.828 178.381 269.573 177.587 269.573ZM199.03 268.293C200.109 268.293 200.915 268.572 201.448 269.129C201.982 269.674 202.248 270.563 202.248 271.796V278H200.702V271.867C200.702 270.361 200.056 269.609 198.764 269.609C197.839 269.609 197.176 269.876 196.773 270.409C196.382 270.942 196.186 271.719 196.186 272.738V278H194.639V271.867C194.639 270.361 193.987 269.609 192.684 269.609C191.724 269.609 191.06 269.905 190.693 270.498C190.325 271.09 190.142 271.944 190.142 273.058V278H188.577V268.471H189.839L190.07 269.769H190.159C190.456 269.271 190.853 268.904 191.35 268.667C191.86 268.418 192.399 268.293 192.968 268.293C194.462 268.293 195.433 268.827 195.884 269.893H195.973C196.293 269.348 196.725 268.945 197.27 268.684C197.827 268.424 198.414 268.293 199.03 268.293ZM208.872 268.293C209.689 268.293 210.389 268.471 210.969 268.827C211.562 269.182 212.012 269.686 212.321 270.338C212.641 270.978 212.801 271.73 212.801 272.596V273.538H206.276C206.3 274.616 206.572 275.44 207.094 276.009C207.627 276.566 208.368 276.844 209.316 276.844C209.921 276.844 210.454 276.791 210.916 276.684C211.39 276.566 211.876 276.4 212.374 276.187V277.556C211.888 277.769 211.408 277.923 210.934 278.018C210.46 278.124 209.897 278.178 209.245 278.178C208.344 278.178 207.544 277.994 206.845 277.627C206.158 277.259 205.618 276.714 205.227 275.991C204.848 275.256 204.658 274.361 204.658 273.307C204.658 272.264 204.83 271.369 205.174 270.622C205.529 269.876 206.021 269.301 206.649 268.898C207.289 268.495 208.03 268.293 208.872 268.293ZM208.854 269.573C208.107 269.573 207.515 269.816 207.076 270.302C206.649 270.776 206.395 271.44 206.312 272.293H211.165C211.153 271.487 210.964 270.836 210.596 270.338C210.229 269.828 209.648 269.573 208.854 269.573ZM221.431 275.369C221.431 276.293 221.087 276.993 220.4 277.467C219.712 277.941 218.788 278.178 217.626 278.178C216.963 278.178 216.388 278.124 215.902 278.018C215.428 277.911 215.007 277.763 214.64 277.573V276.151C215.019 276.341 215.475 276.519 216.009 276.684C216.554 276.839 217.105 276.916 217.662 276.916C218.456 276.916 219.031 276.791 219.386 276.542C219.742 276.281 219.92 275.938 219.92 275.511C219.92 275.274 219.855 275.061 219.724 274.871C219.594 274.681 219.357 274.492 219.013 274.302C218.681 274.113 218.201 273.899 217.573 273.662C216.957 273.425 216.429 273.188 215.991 272.951C215.552 272.714 215.215 272.43 214.978 272.098C214.74 271.766 214.622 271.339 214.622 270.818C214.622 270.012 214.948 269.39 215.6 268.951C216.263 268.513 217.129 268.293 218.195 268.293C218.776 268.293 219.315 268.353 219.813 268.471C220.323 268.578 220.797 268.732 221.235 268.933L220.702 270.178C220.299 270.012 219.878 269.87 219.44 269.751C219.001 269.633 218.551 269.573 218.089 269.573C217.449 269.573 216.957 269.68 216.613 269.893C216.281 270.095 216.115 270.373 216.115 270.729C216.115 270.99 216.192 271.215 216.346 271.404C216.5 271.582 216.755 271.76 217.111 271.938C217.478 272.104 217.964 272.305 218.569 272.542C219.173 272.767 219.689 272.999 220.115 273.236C220.542 273.473 220.868 273.763 221.093 274.107C221.318 274.439 221.431 274.859 221.431 275.369ZM229.938 275.369C229.938 276.293 229.594 276.993 228.907 277.467C228.219 277.941 227.295 278.178 226.133 278.178C225.47 278.178 224.895 278.124 224.409 278.018C223.935 277.911 223.514 277.763 223.147 277.573V276.151C223.526 276.341 223.982 276.519 224.516 276.684C225.061 276.839 225.612 276.916 226.169 276.916C226.963 276.916 227.538 276.791 227.893 276.542C228.249 276.281 228.427 275.938 228.427 275.511C228.427 275.274 228.361 275.061 228.231 274.871C228.101 274.681 227.864 274.492 227.52 274.302C227.188 274.113 226.708 273.899 226.08 273.662C225.464 273.425 224.936 273.188 224.498 272.951C224.059 272.714 223.721 272.43 223.484 272.098C223.247 271.766 223.129 271.339 223.129 270.818C223.129 270.012 223.455 269.39 224.107 268.951C224.77 268.513 225.636 268.293 226.702 268.293C227.283 268.293 227.822 268.353 228.32 268.471C228.83 268.578 229.304 268.732 229.742 268.933L229.209 270.178C228.806 270.012 228.385 269.87 227.947 269.751C227.508 269.633 227.058 269.573 226.596 269.573C225.956 269.573 225.464 269.68 225.12 269.893C224.788 270.095 224.622 270.373 224.622 270.729C224.622 270.99 224.699 271.215 224.853 271.404C225.007 271.582 225.262 271.76 225.618 271.938C225.985 272.104 226.471 272.305 227.076 272.542C227.68 272.767 228.196 272.999 228.622 273.236C229.049 273.473 229.375 273.763 229.6 274.107C229.825 274.439 229.938 274.859 229.938 275.369ZM235.849 268.311C237.011 268.311 237.87 268.566 238.427 269.076C238.984 269.585 239.263 270.397 239.263 271.511V278H238.125L237.823 276.649H237.751C237.337 277.17 236.898 277.556 236.436 277.804C235.985 278.053 235.357 278.178 234.551 278.178C233.686 278.178 232.969 277.953 232.4 277.502C231.831 277.04 231.547 276.323 231.547 275.351C231.547 274.403 231.92 273.674 232.667 273.164C233.414 272.643 234.563 272.359 236.116 272.311L237.734 272.258V271.689C237.734 270.895 237.562 270.344 237.218 270.036C236.874 269.727 236.388 269.573 235.76 269.573C235.263 269.573 234.788 269.65 234.338 269.804C233.888 269.947 233.467 270.113 233.076 270.302L232.596 269.129C233.011 268.904 233.503 268.714 234.071 268.56C234.64 268.394 235.233 268.311 235.849 268.311ZM236.311 273.396C235.126 273.443 234.303 273.633 233.84 273.964C233.39 274.296 233.165 274.764 233.165 275.369C233.165 275.902 233.325 276.293 233.645 276.542C233.977 276.791 234.397 276.916 234.907 276.916C235.713 276.916 236.383 276.696 236.916 276.258C237.449 275.807 237.716 275.12 237.716 274.196V273.342L236.311 273.396ZM245.583 268.293C246.211 268.293 246.774 268.412 247.272 268.649C247.782 268.886 248.214 269.247 248.57 269.733H248.659L248.872 268.471H250.117V278.16C250.117 279.523 249.767 280.548 249.068 281.236C248.38 281.923 247.308 282.267 245.85 282.267C244.451 282.267 243.308 282.065 242.419 281.662V280.222C243.355 280.72 244.529 280.969 245.939 280.969C246.757 280.969 247.397 280.726 247.859 280.24C248.333 279.766 248.57 279.114 248.57 278.284V277.911C248.57 277.769 248.576 277.567 248.588 277.307C248.6 277.034 248.611 276.844 248.623 276.738H248.552C247.912 277.698 246.929 278.178 245.601 278.178C244.369 278.178 243.403 277.745 242.703 276.88C242.016 276.015 241.672 274.806 241.672 273.253C241.672 271.736 242.016 270.533 242.703 269.644C243.403 268.744 244.363 268.293 245.583 268.293ZM245.797 269.609C245.003 269.609 244.386 269.929 243.948 270.569C243.509 271.197 243.29 272.098 243.29 273.271C243.29 274.444 243.503 275.345 243.93 275.973C244.369 276.59 245.003 276.898 245.832 276.898C246.792 276.898 247.491 276.643 247.93 276.133C248.369 275.612 248.588 274.776 248.588 273.627V273.253C248.588 271.95 248.363 271.019 247.912 270.462C247.462 269.893 246.757 269.609 245.797 269.609ZM256.823 268.293C257.641 268.293 258.34 268.471 258.921 268.827C259.513 269.182 259.964 269.686 260.272 270.338C260.592 270.978 260.752 271.73 260.752 272.596V273.538H254.228C254.251 274.616 254.524 275.44 255.045 276.009C255.579 276.566 256.319 276.844 257.268 276.844C257.872 276.844 258.405 276.791 258.868 276.684C259.342 276.566 259.828 276.4 260.325 276.187V277.556C259.839 277.769 259.359 277.923 258.885 278.018C258.411 278.124 257.848 278.178 257.196 278.178C256.296 278.178 255.496 277.994 254.796 277.627C254.109 277.259 253.57 276.714 253.179 275.991C252.799 275.256 252.61 274.361 252.61 273.307C252.61 272.264 252.782 271.369 253.125 270.622C253.481 269.876 253.973 269.301 254.601 268.898C255.241 268.495 255.982 268.293 256.823 268.293ZM256.805 269.573C256.059 269.573 255.466 269.816 255.028 270.302C254.601 270.776 254.346 271.44 254.263 272.293H259.116C259.105 271.487 258.915 270.836 258.548 270.338C258.18 269.828 257.599 269.573 256.805 269.573Z" fill="#333333"/>
<rect x="61" y="296" width="421.2" height="46" rx="2" fill="white"/>
<path d="M76.04 323.18C76.04 324.447 75.58 325.433 74.66 326.14C73.74 326.847 72.5 327.2 70.94 327.2C70.14 327.2 69.4 327.14 68.72 327.02C68.04 326.9 67.4733 326.733 67.02 326.52V324.8C67.5 325.013 68.0933 325.207 68.8 325.38C69.52 325.553 70.26 325.64 71.02 325.64C72.0867 325.64 72.8867 325.433 73.42 325.02C73.9667 324.607 74.24 324.047 74.24 323.34C74.24 322.873 74.14 322.48 73.94 322.16C73.74 321.84 73.3933 321.547 72.9 321.28C72.42 321 71.7467 320.707 70.88 320.4C69.6667 319.96 68.7467 319.42 68.12 318.78C67.5067 318.14 67.2 317.267 67.2 316.16C67.2 315.4 67.3933 314.753 67.78 314.22C68.1667 313.673 68.7 313.253 69.38 312.96C70.0733 312.667 70.8667 312.52 71.76 312.52C72.5467 312.52 73.2667 312.593 73.92 312.74C74.5733 312.887 75.1667 313.08 75.7 313.32L75.14 314.86C74.6467 314.647 74.1067 314.467 73.52 314.32C72.9467 314.173 72.3467 314.1 71.72 314.1C70.8267 314.1 70.1533 314.293 69.7 314.68C69.2467 315.053 69.02 315.553 69.02 316.18C69.02 316.66 69.12 317.06 69.32 317.38C69.52 317.7 69.8467 317.987 70.3 318.24C70.7533 318.493 71.3667 318.767 72.14 319.06C72.98 319.367 73.6867 319.7 74.26 320.06C74.8467 320.407 75.2867 320.827 75.58 321.32C75.8867 321.813 76.04 322.433 76.04 323.18ZM82.8166 316.08C83.7366 316.08 84.5232 316.28 85.1766 316.68C85.8432 317.08 86.3499 317.647 86.6966 318.38C87.0566 319.1 87.2366 319.947 87.2366 320.92V321.98H79.8966C79.9232 323.193 80.2299 324.12 80.8166 324.76C81.4166 325.387 82.2499 325.7 83.3166 325.7C83.9966 325.7 84.5966 325.64 85.1166 325.52C85.6499 325.387 86.1966 325.2 86.7566 324.96V326.5C86.2099 326.74 85.6699 326.913 85.1366 327.02C84.6032 327.14 83.9699 327.2 83.2366 327.2C82.2232 327.2 81.3232 326.993 80.5366 326.58C79.7632 326.167 79.1566 325.553 78.7166 324.74C78.2899 323.913 78.0766 322.907 78.0766 321.72C78.0766 320.547 78.2699 319.54 78.6566 318.7C79.0566 317.86 79.6099 317.213 80.3166 316.76C81.0366 316.307 81.8699 316.08 82.8166 316.08ZM82.7966 317.52C81.9566 317.52 81.2899 317.793 80.7966 318.34C80.3166 318.873 80.0299 319.62 79.9366 320.58H85.3966C85.3832 319.673 85.1699 318.94 84.7566 318.38C84.3432 317.807 83.6899 317.52 82.7966 317.52ZM91.7256 327H89.9656V311.8H91.7256V327ZM99.2619 316.08C100.182 316.08 100.969 316.28 101.622 316.68C102.289 317.08 102.795 317.647 103.142 318.38C103.502 319.1 103.682 319.947 103.682 320.92V321.98H96.3419C96.3685 323.193 96.6752 324.12 97.2619 324.76C97.8619 325.387 98.6952 325.7 99.7619 325.7C100.442 325.7 101.042 325.64 101.562 325.52C102.095 325.387 102.642 325.2 103.202 324.96V326.5C102.655 326.74 102.115 326.913 101.582 327.02C101.049 327.14 100.415 327.2 99.6819 327.2C98.6685 327.2 97.7685 326.993 96.9819 326.58C96.2085 326.167 95.6019 325.553 95.1619 324.74C94.7352 323.913 94.5219 322.907 94.5219 321.72C94.5219 320.547 94.7152 319.54 95.1019 318.7C95.5019 317.86 96.0552 317.213 96.7619 316.76C97.4819 316.307 98.3152 316.08 99.2619 316.08ZM99.2419 317.52C98.4019 317.52 97.7352 317.793 97.2419 318.34C96.7619 318.873 96.4752 319.62 96.3819 320.58H101.842C101.829 319.673 101.615 318.94 101.202 318.38C100.789 317.807 100.135 317.52 99.2419 317.52ZM110.711 327.2C109.764 327.2 108.918 327.007 108.171 326.62C107.438 326.233 106.858 325.633 106.431 324.82C106.018 324.007 105.811 322.967 105.811 321.7C105.811 320.38 106.031 319.307 106.471 318.48C106.911 317.653 107.504 317.047 108.251 316.66C109.011 316.273 109.871 316.08 110.831 316.08C111.378 316.08 111.904 316.14 112.411 316.26C112.918 316.367 113.331 316.5 113.651 316.66L113.111 318.12C112.791 318 112.418 317.887 111.991 317.78C111.564 317.673 111.164 317.62 110.791 317.62C108.684 317.62 107.631 318.973 107.631 321.68C107.631 322.973 107.884 323.967 108.391 324.66C108.911 325.34 109.678 325.68 110.691 325.68C111.278 325.68 111.791 325.62 112.231 325.5C112.684 325.38 113.098 325.233 113.471 325.06V326.62C113.111 326.807 112.711 326.947 112.271 327.04C111.844 327.147 111.324 327.2 110.711 327.2ZM119.6 325.76C119.867 325.76 120.14 325.74 120.42 325.7C120.7 325.647 120.927 325.593 121.1 325.54V326.88C120.914 326.973 120.647 327.047 120.3 327.1C119.954 327.167 119.62 327.2 119.3 327.2C118.74 327.2 118.22 327.107 117.74 326.92C117.274 326.72 116.894 326.38 116.6 325.9C116.307 325.42 116.16 324.747 116.16 323.88V317.64H114.64V316.8L116.18 316.1L116.88 313.82H117.92V316.28H121.02V317.64H117.92V323.84C117.92 324.493 118.074 324.98 118.38 325.3C118.7 325.607 119.107 325.76 119.6 325.76ZM141.142 319.84C141.142 321.32 140.889 322.613 140.382 323.72C139.889 324.813 139.156 325.667 138.182 326.28C137.209 326.893 136.002 327.2 134.562 327.2C133.082 327.2 131.849 326.893 130.862 326.28C129.889 325.667 129.162 324.807 128.682 323.7C128.202 322.593 127.962 321.3 127.962 319.82C127.962 318.353 128.202 317.073 128.682 315.98C129.162 314.887 129.889 314.033 130.862 313.42C131.849 312.807 133.089 312.5 134.582 312.5C136.009 312.5 137.209 312.807 138.182 313.42C139.156 314.02 139.889 314.873 140.382 315.98C140.889 317.073 141.142 318.36 141.142 319.84ZM129.862 319.84C129.862 321.64 130.242 323.06 131.002 324.1C131.762 325.127 132.949 325.64 134.562 325.64C136.189 325.64 137.376 325.127 138.122 324.1C138.869 323.06 139.242 321.64 139.242 319.84C139.242 318.04 138.869 316.633 138.122 315.62C137.376 314.593 136.196 314.08 134.582 314.08C132.969 314.08 131.776 314.593 131.002 315.62C130.242 316.633 129.862 318.04 129.862 319.84ZM149.167 316.08C150.487 316.08 151.547 316.54 152.347 317.46C153.161 318.38 153.567 319.767 153.567 321.62C153.567 323.447 153.161 324.833 152.347 325.78C151.547 326.727 150.481 327.2 149.147 327.2C148.321 327.2 147.634 327.047 147.087 326.74C146.554 326.42 146.134 326.053 145.827 325.64H145.707C145.734 325.867 145.761 326.153 145.787 326.5C145.814 326.847 145.827 327.147 145.827 327.4V331.8H144.067V316.28H145.507L145.747 317.74H145.827C146.147 317.273 146.567 316.88 147.087 316.56C147.607 316.24 148.301 316.08 149.167 316.08ZM148.847 317.56C147.754 317.56 146.981 317.867 146.527 318.48C146.087 319.093 145.854 320.027 145.827 321.28V321.62C145.827 322.94 146.041 323.96 146.467 324.68C146.907 325.387 147.714 325.74 148.887 325.74C149.541 325.74 150.074 325.56 150.487 325.2C150.914 324.84 151.227 324.353 151.427 323.74C151.641 323.113 151.747 322.4 151.747 321.6C151.747 320.373 151.507 319.393 151.027 318.66C150.561 317.927 149.834 317.56 148.847 317.56ZM159.952 325.76C160.219 325.76 160.492 325.74 160.772 325.7C161.052 325.647 161.279 325.593 161.452 325.54V326.88C161.265 326.973 160.999 327.047 160.652 327.1C160.305 327.167 159.972 327.2 159.652 327.2C159.092 327.2 158.572 327.107 158.092 326.92C157.625 326.72 157.245 326.38 156.952 325.9C156.659 325.42 156.512 324.747 156.512 323.88V317.64H154.992V316.8L156.532 316.1L157.232 313.82H158.272V316.28H161.372V317.64H158.272V323.84C158.272 324.493 158.425 324.98 158.732 325.3C159.052 325.607 159.459 325.76 159.952 325.76ZM164.498 312.26C164.765 312.26 164.998 312.353 165.198 312.54C165.412 312.713 165.518 312.993 165.518 313.38C165.518 313.753 165.412 314.033 165.198 314.22C164.998 314.407 164.765 314.5 164.498 314.5C164.205 314.5 163.958 314.407 163.758 314.22C163.558 314.033 163.458 313.753 163.458 313.38C163.458 312.993 163.558 312.713 163.758 312.54C163.958 312.353 164.205 312.26 164.498 312.26ZM165.358 316.28V327H163.598V316.28H165.358ZM178.075 321.62C178.075 323.393 177.621 324.767 176.715 325.74C175.821 326.713 174.608 327.2 173.075 327.2C172.128 327.2 171.281 326.987 170.535 326.56C169.801 326.12 169.221 325.487 168.795 324.66C168.368 323.82 168.155 322.807 168.155 321.62C168.155 319.847 168.601 318.48 169.495 317.52C170.388 316.56 171.601 316.08 173.135 316.08C174.108 316.08 174.961 316.3 175.695 316.74C176.441 317.167 177.021 317.793 177.435 318.62C177.861 319.433 178.075 320.433 178.075 321.62ZM169.975 321.62C169.975 322.887 170.221 323.893 170.715 324.64C171.221 325.373 172.021 325.74 173.115 325.74C174.195 325.74 174.988 325.373 175.495 324.64C176.001 323.893 176.255 322.887 176.255 321.62C176.255 320.353 176.001 319.36 175.495 318.64C174.988 317.92 174.188 317.56 173.095 317.56C172.001 317.56 171.208 317.92 170.715 318.64C170.221 319.36 169.975 320.353 169.975 321.62ZM186.024 316.08C187.304 316.08 188.271 316.393 188.924 317.02C189.577 317.633 189.904 318.633 189.904 320.02V327H188.164V320.14C188.164 318.42 187.364 317.56 185.764 317.56C184.577 317.56 183.757 317.893 183.304 318.56C182.851 319.227 182.624 320.187 182.624 321.44V327H180.864V316.28H182.284L182.544 317.74H182.644C182.991 317.18 183.471 316.767 184.084 316.5C184.697 316.22 185.344 316.08 186.024 316.08Z" fill="#333333"/>
<path d="M470.559 319.148L465.598 324.148C465.325 324.383 465.012 324.5 464.7 324.5C464.348 324.5 464.036 324.383 463.802 324.148L458.841 319.148C458.45 318.797 458.333 318.25 458.528 317.781C458.723 317.312 459.192 317 459.7 317H469.661C470.169 317 470.598 317.312 470.794 317.781C470.989 318.25 470.911 318.797 470.559 319.148Z" fill="#333333"/>
<rect x="61" y="296" width="421.2" height="46" rx="2" stroke="#333333" stroke-width="2"/>
<rect x="46" y="342" width="6" height="1" fill="#C54600"/>
<rect x="46" y="96" width="1" height="247" fill="#C54600"/>
<rect x="46" y="96" width="6" height="1" fill="#C54600"/>
<rect x="2" y="220" width="45" height="1" fill="#C54600"/>
<g clip-path="url(#clip0_6976_17928)">
<rect y="208" width="24" height="24" rx="12" fill="#C54600"/>
<path d="M11.9745 225.139C11.2321 225.139 10.5709 225.012 9.99086 224.756C9.41415 224.498 8.95842 224.143 8.62367 223.692C8.29223 223.238 8.12154 222.715 8.11159 222.121H10.2792C10.2925 222.37 10.3737 222.589 10.5228 222.778C10.6753 222.963 10.8775 223.107 11.1294 223.21C11.3812 223.313 11.6646 223.364 11.9795 223.364C12.3076 223.364 12.5976 223.306 12.8495 223.19C13.1014 223.074 13.2986 222.914 13.4411 222.708C13.5837 222.503 13.6549 222.266 13.6549 221.997C13.6549 221.725 13.5787 221.485 13.4262 221.276C13.2771 221.064 13.0616 220.898 12.7799 220.779C12.5015 220.66 12.1701 220.6 11.7856 220.6H10.836V219.019H11.7856C12.1104 219.019 12.3971 218.963 12.6457 218.85C12.8976 218.737 13.0931 218.582 13.2323 218.383C13.3715 218.181 13.4411 217.945 13.4411 217.677C13.4411 217.422 13.3798 217.198 13.2572 217.006C13.1379 216.81 12.9688 216.658 12.7501 216.548C12.5347 216.439 12.2828 216.384 11.9944 216.384C11.7027 216.384 11.4359 216.437 11.194 216.543C10.952 216.646 10.7581 216.794 10.6123 216.986C10.4665 217.178 10.3886 217.403 10.3786 217.662H8.31543C8.32537 217.075 8.49275 216.558 8.81756 216.111C9.14237 215.663 9.57987 215.314 10.1301 215.062C10.6836 214.807 11.3083 214.679 12.0044 214.679C12.707 214.679 13.3218 214.807 13.8488 215.062C14.3758 215.317 14.7851 215.662 15.0768 216.096C15.3718 216.527 15.5176 217.011 15.5143 217.548C15.5176 218.118 15.3403 218.593 14.9823 218.974C14.6277 219.356 14.1653 219.598 13.5953 219.7V219.78C14.3443 219.876 14.9144 220.136 15.3055 220.56C15.6999 220.981 15.8954 221.508 15.8921 222.141C15.8954 222.721 15.7281 223.237 15.39 223.688C15.0553 224.138 14.5929 224.493 14.0029 224.751C13.413 225.01 12.7368 225.139 11.9745 225.139Z" fill="white"/>
</g>
<g clip-path="url(#clip1_6976_17928)">
<rect x="4" y="55" width="48" height="1" fill="#C54600"/>
<g clip-path="url(#clip2_6976_17928)">
<rect x="4" y="43" width="24" height="24" rx="12" fill="#C54600"/>
<path d="M12.4161 60V58.4489L16.0404 55.093C16.3486 54.7947 16.6072 54.5263 16.816 54.2876C17.0281 54.049 17.1888 53.8153 17.2982 53.5866C17.4076 53.3546 17.4623 53.1044 17.4623 52.8359C17.4623 52.5376 17.3943 52.2808 17.2584 52.0653C17.1225 51.8466 16.9369 51.6792 16.7016 51.5632C16.4663 51.4439 16.1995 51.3842 15.9012 51.3842C15.5896 51.3842 15.3179 51.4472 15.0858 51.5732C14.8538 51.6991 14.6749 51.8797 14.5489 52.1151C14.423 52.3504 14.36 52.6304 14.36 52.9553H12.3167C12.3167 52.2891 12.4675 51.7107 12.7691 51.2202C13.0707 50.7296 13.4933 50.3501 14.0368 50.0817C14.5804 49.8132 15.2068 49.679 15.9161 49.679C16.6453 49.679 17.28 49.8082 17.8202 50.0668C18.3638 50.322 18.7864 50.6766 19.088 51.1307C19.3896 51.5848 19.5404 52.1051 19.5404 52.6918C19.5404 53.0762 19.4642 53.4557 19.3117 53.8303C19.1626 54.2048 18.8957 54.6207 18.5113 55.0781C18.1268 55.5322 17.5849 56.0774 16.8856 56.7138L15.3991 58.1705V58.2401H19.6746V60H12.4161Z" fill="white"/>
</g>
</g>
<g clip-path="url(#clip3_6976_17928)">
<rect x="4" y="20" width="48" height="1" fill="#C54600"/>
<g clip-path="url(#clip4_6976_17928)">
<rect x="4" y="8" width="24" height="24" rx="12" fill="#C54600"/>
<path d="M17.8302 14.8182V25H15.6775V16.8615H15.6178L13.2861 18.3232V16.4141L15.8067 14.8182H17.8302Z" fill="white"/>
</g>
</g>
<defs>
<clipPath id="clip0_6976_17928">
<rect y="208" width="24" height="24" rx="12" fill="white"/>
</clipPath>
<clipPath id="clip1_6976_17928">
<rect width="48" height="24" fill="white" transform="translate(4 43)"/>
</clipPath>
<clipPath id="clip2_6976_17928">
<rect x="4" y="43" width="24" height="24" rx="12" fill="white"/>
</clipPath>
<clipPath id="clip3_6976_17928">
<rect width="48" height="24" fill="white" transform="translate(4 8)"/>
</clipPath>
<clipPath id="clip4_6976_17928">
<rect x="4" y="8" width="24" height="24" rx="12" fill="white"/>
</clipPath>
</defs>
</svg>
