<svg width="405" height="137" viewBox="0 0 405 137" fill="none" xmlns="http://www.w3.org/2000/svg">
<g clip-path="url(#clip0_67375_5086)">
<g clip-path="url(#clip1_67375_5086)">
<path d="M95 93L77 102L77 84L95 93Z" fill="#284162"/>
</g>
<path d="M111.94 101V86.72H113.74V99.4H119.98V101H111.94ZM126.328 90.08C127.248 90.08 128.035 90.28 128.688 90.68C129.355 91.08 129.862 91.6467 130.208 92.38C130.568 93.1 130.748 93.9467 130.748 94.92V95.98H123.408C123.435 97.1933 123.742 98.12 124.328 98.76C124.928 99.3867 125.762 99.7 126.828 99.7C127.508 99.7 128.108 99.64 128.628 99.52C129.162 99.3867 129.708 99.2 130.268 98.96V100.5C129.722 100.74 129.182 100.913 128.648 101.02C128.115 101.14 127.482 101.2 126.748 101.2C125.735 101.2 124.835 100.993 124.048 100.58C123.275 100.167 122.668 99.5533 122.228 98.74C121.802 97.9133 121.588 96.9067 121.588 95.72C121.588 94.5467 121.782 93.54 122.168 92.7C122.568 91.86 123.122 91.2133 123.828 90.76C124.548 90.3067 125.382 90.08 126.328 90.08ZM126.308 91.52C125.468 91.52 124.802 91.7933 124.308 92.34C123.828 92.8733 123.542 93.62 123.448 94.58H128.908C128.895 93.6733 128.682 92.94 128.268 92.38C127.855 91.8067 127.202 91.52 126.308 91.52ZM137.537 90.1C138.844 90.1 139.811 90.3867 140.437 90.96C141.064 91.5333 141.377 92.4467 141.377 93.7V101H140.097L139.757 99.48H139.677C139.211 100.067 138.717 100.5 138.197 100.78C137.691 101.06 136.984 101.2 136.077 101.2C135.104 101.2 134.297 100.947 133.657 100.44C133.017 99.92 132.697 99.1133 132.697 98.02C132.697 96.9533 133.117 96.1333 133.957 95.56C134.797 94.9733 136.091 94.6533 137.837 94.6L139.657 94.54V93.9C139.657 93.0067 139.464 92.3867 139.077 92.04C138.691 91.6933 138.144 91.52 137.437 91.52C136.877 91.52 136.344 91.6067 135.837 91.78C135.331 91.94 134.857 92.1267 134.417 92.34L133.877 91.02C134.344 90.7667 134.897 90.5533 135.537 90.38C136.177 90.1933 136.844 90.1 137.537 90.1ZM138.057 95.82C136.724 95.8733 135.797 96.0867 135.277 96.46C134.771 96.8333 134.517 97.36 134.517 98.04C134.517 98.64 134.697 99.08 135.057 99.36C135.431 99.64 135.904 99.78 136.477 99.78C137.384 99.78 138.137 99.5333 138.737 99.04C139.337 98.5333 139.637 97.76 139.637 96.72V95.76L138.057 95.82ZM149.688 90.08C149.888 90.08 150.102 90.0933 150.328 90.12C150.568 90.1333 150.775 90.16 150.948 90.2L150.728 91.82C150.555 91.78 150.362 91.7467 150.148 91.72C149.948 91.6933 149.755 91.68 149.568 91.68C149.022 91.68 148.508 91.8333 148.028 92.14C147.548 92.4333 147.162 92.8533 146.868 93.4C146.588 93.9333 146.448 94.56 146.448 95.28V101H144.688V90.28H146.128L146.328 92.24H146.408C146.755 91.6533 147.202 91.1467 147.748 90.72C148.295 90.2933 148.942 90.08 149.688 90.08ZM158.11 90.08C159.39 90.08 160.357 90.3933 161.01 91.02C161.663 91.6333 161.99 92.6333 161.99 94.02V101H160.25V94.14C160.25 92.42 159.45 91.56 157.85 91.56C156.663 91.56 155.843 91.8933 155.39 92.56C154.937 93.2267 154.71 94.1867 154.71 95.44V101H152.95V90.28H154.37L154.63 91.74H154.73C155.077 91.18 155.557 90.7667 156.17 90.5C156.783 90.22 157.43 90.08 158.11 90.08ZM182.269 90.08C183.482 90.08 184.389 90.3933 184.989 91.02C185.589 91.6333 185.889 92.6333 185.889 94.02V101H184.149V94.1C184.149 92.4067 183.422 91.56 181.969 91.56C180.929 91.56 180.182 91.86 179.729 92.46C179.289 93.06 179.069 93.9333 179.069 95.08V101H177.329V94.1C177.329 92.4067 176.595 91.56 175.129 91.56C174.049 91.56 173.302 91.8933 172.889 92.56C172.475 93.2267 172.269 94.1867 172.269 95.44V101H170.509V90.28H171.929L172.189 91.74H172.289C172.622 91.18 173.069 90.7667 173.629 90.5C174.202 90.22 174.809 90.08 175.449 90.08C177.129 90.08 178.222 90.68 178.729 91.88H178.829C179.189 91.2667 179.675 90.8133 180.289 90.52C180.915 90.2267 181.575 90.08 182.269 90.08ZM198.52 95.62C198.52 97.3933 198.067 98.7667 197.16 99.74C196.267 100.713 195.053 101.2 193.52 101.2C192.573 101.2 191.727 100.987 190.98 100.56C190.247 100.12 189.667 99.4867 189.24 98.66C188.813 97.82 188.6 96.8067 188.6 95.62C188.6 93.8467 189.047 92.48 189.94 91.52C190.833 90.56 192.047 90.08 193.58 90.08C194.553 90.08 195.407 90.3 196.14 90.74C196.887 91.1667 197.467 91.7933 197.88 92.62C198.307 93.4333 198.52 94.4333 198.52 95.62ZM190.42 95.62C190.42 96.8867 190.667 97.8933 191.16 98.64C191.667 99.3733 192.467 99.74 193.56 99.74C194.64 99.74 195.433 99.3733 195.94 98.64C196.447 97.8933 196.7 96.8867 196.7 95.62C196.7 94.3533 196.447 93.36 195.94 92.64C195.433 91.92 194.633 91.56 193.54 91.56C192.447 91.56 191.653 91.92 191.16 92.64C190.667 93.36 190.42 94.3533 190.42 95.62ZM206.309 90.08C206.509 90.08 206.723 90.0933 206.949 90.12C207.189 90.1333 207.396 90.16 207.569 90.2L207.349 91.82C207.176 91.78 206.983 91.7467 206.769 91.72C206.569 91.6933 206.376 91.68 206.189 91.68C205.643 91.68 205.129 91.8333 204.649 92.14C204.169 92.4333 203.783 92.8533 203.489 93.4C203.209 93.9333 203.069 94.56 203.069 95.28V101H201.309V90.28H202.749L202.949 92.24H203.029C203.376 91.6533 203.823 91.1467 204.369 90.72C204.916 90.2933 205.563 90.08 206.309 90.08ZM213.32 90.08C214.24 90.08 215.027 90.28 215.68 90.68C216.347 91.08 216.854 91.6467 217.2 92.38C217.56 93.1 217.74 93.9467 217.74 94.92V95.98H210.4C210.427 97.1933 210.734 98.12 211.32 98.76C211.92 99.3867 212.754 99.7 213.82 99.7C214.5 99.7 215.1 99.64 215.62 99.52C216.154 99.3867 216.7 99.2 217.26 98.96V100.5C216.714 100.74 216.174 100.913 215.64 101.02C215.107 101.14 214.474 101.2 213.74 101.2C212.727 101.2 211.827 100.993 211.04 100.58C210.267 100.167 209.66 99.5533 209.22 98.74C208.794 97.9133 208.58 96.9067 208.58 95.72C208.58 94.5467 208.774 93.54 209.16 92.7C209.56 91.86 210.114 91.2133 210.82 90.76C211.54 90.3067 212.374 90.08 213.32 90.08ZM213.3 91.52C212.46 91.52 211.794 91.7933 211.3 92.34C210.82 92.8733 210.534 93.62 210.44 94.58H215.9C215.887 93.6733 215.674 92.94 215.26 92.38C214.847 91.8067 214.194 91.52 213.3 91.52ZM229.725 90.1C231.032 90.1 231.998 90.3867 232.625 90.96C233.252 91.5333 233.565 92.4467 233.565 93.7V101H232.285L231.945 99.48H231.865C231.398 100.067 230.905 100.5 230.385 100.78C229.878 101.06 229.172 101.2 228.265 101.2C227.292 101.2 226.485 100.947 225.845 100.44C225.205 99.92 224.885 99.1133 224.885 98.02C224.885 96.9533 225.305 96.1333 226.145 95.56C226.985 94.9733 228.278 94.6533 230.025 94.6L231.845 94.54V93.9C231.845 93.0067 231.652 92.3867 231.265 92.04C230.878 91.6933 230.332 91.52 229.625 91.52C229.065 91.52 228.532 91.6067 228.025 91.78C227.518 91.94 227.045 92.1267 226.605 92.34L226.065 91.02C226.532 90.7667 227.085 90.5533 227.725 90.38C228.365 90.1933 229.032 90.1 229.725 90.1ZM230.245 95.82C228.912 95.8733 227.985 96.0867 227.465 96.46C226.958 96.8333 226.705 97.36 226.705 98.04C226.705 98.64 226.885 99.08 227.245 99.36C227.618 99.64 228.092 99.78 228.665 99.78C229.572 99.78 230.325 99.5333 230.925 99.04C231.525 98.5333 231.825 97.76 231.825 96.72V95.76L230.245 95.82ZM238.636 89.5C238.636 89.9533 238.622 90.38 238.596 90.78C238.582 91.1667 238.562 91.4733 238.536 91.7H238.636C238.942 91.2467 239.362 90.8667 239.896 90.56C240.429 90.2533 241.116 90.1 241.956 90.1C243.289 90.1 244.356 90.5667 245.156 91.5C245.969 92.42 246.376 93.8 246.376 95.64C246.376 97.48 245.969 98.8667 245.156 99.8C244.342 100.733 243.276 101.2 241.956 101.2C241.116 101.2 240.429 101.047 239.896 100.74C239.362 100.433 238.942 100.067 238.636 99.64H238.496L238.136 101H236.876V85.8H238.636V89.5ZM241.656 91.56C240.522 91.56 239.736 91.8867 239.296 92.54C238.856 93.1933 238.636 94.2067 238.636 95.58V95.66C238.636 96.98 238.849 97.9933 239.276 98.7C239.716 99.3933 240.522 99.74 241.696 99.74C242.656 99.74 243.369 99.3867 243.836 98.68C244.316 97.9733 244.556 96.9533 244.556 95.62C244.556 92.9133 243.589 91.56 241.656 91.56ZM258.5 95.62C258.5 97.3933 258.047 98.7667 257.14 99.74C256.247 100.713 255.034 101.2 253.5 101.2C252.554 101.2 251.707 100.987 250.96 100.56C250.227 100.12 249.647 99.4867 249.22 98.66C248.794 97.82 248.58 96.8067 248.58 95.62C248.58 93.8467 249.027 92.48 249.92 91.52C250.814 90.56 252.027 90.08 253.56 90.08C254.534 90.08 255.387 90.3 256.12 90.74C256.867 91.1667 257.447 91.7933 257.86 92.62C258.287 93.4333 258.5 94.4333 258.5 95.62ZM250.4 95.62C250.4 96.8867 250.647 97.8933 251.14 98.64C251.647 99.3733 252.447 99.74 253.54 99.74C254.62 99.74 255.414 99.3733 255.92 98.64C256.427 97.8933 256.68 96.8867 256.68 95.62C256.68 94.3533 256.427 93.36 255.92 92.64C255.414 91.92 254.614 91.56 253.52 91.56C252.427 91.56 251.634 91.92 251.14 92.64C250.647 93.36 250.4 94.3533 250.4 95.62ZM270.25 90.28V101H268.81L268.55 99.58H268.47C268.123 100.14 267.643 100.553 267.03 100.82C266.417 101.073 265.763 101.2 265.07 101.2C263.777 101.2 262.803 100.893 262.15 100.28C261.497 99.6533 261.17 98.66 261.17 97.3V90.28H262.95V97.18C262.95 98.8867 263.743 99.74 265.33 99.74C266.517 99.74 267.337 99.4067 267.79 98.74C268.257 98.0733 268.49 97.1133 268.49 95.86V90.28H270.25ZM277.233 99.76C277.5 99.76 277.773 99.74 278.053 99.7C278.333 99.6467 278.56 99.5933 278.733 99.54V100.88C278.546 100.973 278.28 101.047 277.933 101.1C277.586 101.167 277.253 101.2 276.933 101.2C276.373 101.2 275.853 101.107 275.373 100.92C274.906 100.72 274.526 100.38 274.233 99.9C273.94 99.42 273.793 98.7467 273.793 97.88V91.64H272.273V90.8L273.813 90.1L274.513 87.82H275.553V90.28H278.653V91.64H275.553V97.84C275.553 98.4933 275.706 98.98 276.013 99.3C276.333 99.6067 276.74 99.76 277.233 99.76ZM289.655 99.76C289.922 99.76 290.195 99.74 290.475 99.7C290.755 99.6467 290.982 99.5933 291.155 99.54V100.88C290.968 100.973 290.702 101.047 290.355 101.1C290.008 101.167 289.675 101.2 289.355 101.2C288.795 101.2 288.275 101.107 287.795 100.92C287.328 100.72 286.948 100.38 286.655 99.9C286.362 99.42 286.215 98.7467 286.215 97.88V91.64H284.695V90.8L286.235 90.1L286.935 87.82H287.975V90.28H291.075V91.64H287.975V97.84C287.975 98.4933 288.128 98.98 288.435 99.3C288.755 99.6067 289.162 99.76 289.655 99.76ZM295.062 90.26C295.062 90.7933 295.028 91.2933 294.962 91.76H295.082C295.428 91.2133 295.895 90.8 296.482 90.52C297.082 90.24 297.728 90.1 298.422 90.1C299.728 90.1 300.708 90.4133 301.362 91.04C302.015 91.6533 302.342 92.6467 302.342 94.02V101H300.602V94.14C300.602 92.42 299.802 91.56 298.202 91.56C297.002 91.56 296.175 91.9 295.722 92.58C295.282 93.2467 295.062 94.2067 295.062 95.46V101H293.302V85.8H295.062V90.26ZM306.565 86.26C306.832 86.26 307.065 86.3533 307.265 86.54C307.478 86.7133 307.585 86.9933 307.585 87.38C307.585 87.7533 307.478 88.0333 307.265 88.22C307.065 88.4067 306.832 88.5 306.565 88.5C306.272 88.5 306.025 88.4067 305.825 88.22C305.625 88.0333 305.525 87.7533 305.525 87.38C305.525 86.9933 305.625 86.7133 305.825 86.54C306.025 86.3533 306.272 86.26 306.565 86.26ZM307.425 90.28V101H305.665V90.28H307.425ZM317.801 98.04C317.801 99.08 317.414 99.8667 316.641 100.4C315.868 100.933 314.828 101.2 313.521 101.2C312.774 101.2 312.128 101.14 311.581 101.02C311.048 100.9 310.574 100.733 310.161 100.52V98.92C310.588 99.1333 311.101 99.3333 311.701 99.52C312.314 99.6933 312.934 99.78 313.561 99.78C314.454 99.78 315.101 99.64 315.501 99.36C315.901 99.0667 316.101 98.68 316.101 98.2C316.101 97.9333 316.028 97.6933 315.881 97.48C315.734 97.2667 315.468 97.0533 315.081 96.84C314.708 96.6267 314.168 96.3867 313.461 96.12C312.768 95.8533 312.174 95.5867 311.681 95.32C311.188 95.0533 310.808 94.7333 310.541 94.36C310.274 93.9867 310.141 93.5067 310.141 92.92C310.141 92.0133 310.508 91.3133 311.241 90.82C311.988 90.3267 312.961 90.08 314.161 90.08C314.814 90.08 315.421 90.1467 315.981 90.28C316.554 90.4 317.088 90.5733 317.581 90.8L316.981 92.2C316.528 92.0133 316.054 91.8533 315.561 91.72C315.068 91.5867 314.561 91.52 314.041 91.52C313.321 91.52 312.768 91.64 312.381 91.88C312.008 92.1067 311.821 92.42 311.821 92.82C311.821 93.1133 311.908 93.3667 312.081 93.58C312.254 93.78 312.541 93.98 312.941 94.18C313.354 94.3667 313.901 94.5933 314.581 94.86C315.261 95.1133 315.841 95.3733 316.321 95.64C316.801 95.9067 317.168 96.2333 317.421 96.62C317.674 96.9933 317.801 97.4667 317.801 98.04ZM329.167 99.76C329.433 99.76 329.707 99.74 329.987 99.7C330.267 99.6467 330.493 99.5933 330.667 99.54V100.88C330.48 100.973 330.213 101.047 329.867 101.1C329.52 101.167 329.187 101.2 328.867 101.2C328.307 101.2 327.787 101.107 327.307 100.92C326.84 100.72 326.46 100.38 326.167 99.9C325.873 99.42 325.727 98.7467 325.727 97.88V91.64H324.207V90.8L325.747 90.1L326.447 87.82H327.487V90.28H330.587V91.64H327.487V97.84C327.487 98.4933 327.64 98.98 327.947 99.3C328.267 99.6067 328.673 99.76 329.167 99.76ZM342.133 95.62C342.133 97.3933 341.68 98.7667 340.773 99.74C339.88 100.713 338.667 101.2 337.133 101.2C336.187 101.2 335.34 100.987 334.593 100.56C333.86 100.12 333.28 99.4867 332.853 98.66C332.427 97.82 332.213 96.8067 332.213 95.62C332.213 93.8467 332.66 92.48 333.553 91.52C334.447 90.56 335.66 90.08 337.193 90.08C338.167 90.08 339.02 90.3 339.753 90.74C340.5 91.1667 341.08 91.7933 341.493 92.62C341.92 93.4333 342.133 94.4333 342.133 95.62ZM334.033 95.62C334.033 96.8867 334.28 97.8933 334.773 98.64C335.28 99.3733 336.08 99.74 337.173 99.74C338.253 99.74 339.047 99.3733 339.553 98.64C340.06 97.8933 340.313 96.8867 340.313 95.62C340.313 94.3533 340.06 93.36 339.553 92.64C339.047 91.92 338.247 91.56 337.153 91.56C336.06 91.56 335.267 91.92 334.773 92.64C334.28 93.36 334.033 94.3533 334.033 95.62ZM350.023 90.08C351.343 90.08 352.403 90.54 353.203 91.46C354.016 92.38 354.423 93.7667 354.423 95.62C354.423 97.4467 354.016 98.8333 353.203 99.78C352.403 100.727 351.336 101.2 350.003 101.2C349.176 101.2 348.489 101.047 347.943 100.74C347.409 100.42 346.989 100.053 346.683 99.64H346.563C346.589 99.8667 346.616 100.153 346.643 100.5C346.669 100.847 346.683 101.147 346.683 101.4V105.8H344.923V90.28H346.363L346.603 91.74H346.683C347.003 91.2733 347.423 90.88 347.943 90.56C348.463 90.24 349.156 90.08 350.023 90.08ZM349.703 91.56C348.609 91.56 347.836 91.8667 347.383 92.48C346.943 93.0933 346.709 94.0267 346.683 95.28V95.62C346.683 96.94 346.896 97.96 347.323 98.68C347.763 99.3867 348.569 99.74 349.743 99.74C350.396 99.74 350.929 99.56 351.343 99.2C351.769 98.84 352.083 98.3533 352.283 97.74C352.496 97.1133 352.603 96.4 352.603 95.6C352.603 94.3733 352.363 93.3933 351.883 92.66C351.416 91.9267 350.689 91.56 349.703 91.56ZM358.127 86.26C358.394 86.26 358.627 86.3533 358.827 86.54C359.041 86.7133 359.147 86.9933 359.147 87.38C359.147 87.7533 359.041 88.0333 358.827 88.22C358.627 88.4067 358.394 88.5 358.127 88.5C357.834 88.5 357.587 88.4067 357.387 88.22C357.187 88.0333 357.087 87.7533 357.087 87.38C357.087 86.9933 357.187 86.7133 357.387 86.54C357.587 86.3533 357.834 86.26 358.127 86.26ZM358.987 90.28V101H357.227V90.28H358.987ZM366.684 101.2C365.737 101.2 364.89 101.007 364.144 100.62C363.41 100.233 362.83 99.6333 362.404 98.82C361.99 98.0067 361.784 96.9667 361.784 95.7C361.784 94.38 362.004 93.3067 362.444 92.48C362.884 91.6533 363.477 91.0467 364.224 90.66C364.984 90.2733 365.844 90.08 366.804 90.08C367.35 90.08 367.877 90.14 368.384 90.26C368.89 90.3667 369.304 90.5 369.624 90.66L369.084 92.12C368.764 92 368.39 91.8867 367.964 91.78C367.537 91.6733 367.137 91.62 366.764 91.62C364.657 91.62 363.604 92.9733 363.604 95.68C363.604 96.9733 363.857 97.9667 364.364 98.66C364.884 99.34 365.65 99.68 366.664 99.68C367.25 99.68 367.764 99.62 368.204 99.5C368.657 99.38 369.07 99.2333 369.444 99.06V100.62C369.084 100.807 368.684 100.947 368.244 101.04C367.817 101.147 367.297 101.2 366.684 101.2Z" fill="#284162"/>
<path d="M110 103H343.922V104H110V103ZM347.68 103H370.284V104H347.68V103Z" fill="#284162"/>
<g clip-path="url(#clip2_67375_5086)">
<rect x="20" y="92.5" width="48" height="1" fill="#C54600"/>
<g clip-path="url(#clip3_67375_5086)">
<rect x="20" y="80.5" width="24" height="24" rx="12" fill="#C54600"/>
<path d="M29.2706 96.5V95.733L32.1513 92.5795C32.4893 92.2102 32.7678 91.8892 32.9865 91.6165C33.2053 91.3409 33.3672 91.0824 33.4723 90.8409C33.5803 90.5966 33.6342 90.3409 33.6342 90.0739C33.6342 89.767 33.5604 89.5014 33.4126 89.277C33.2678 89.0526 33.0689 88.8793 32.8161 88.7571C32.5632 88.6349 32.2791 88.5739 31.9638 88.5739C31.6286 88.5739 31.3359 88.6435 31.0859 88.7827C30.8388 88.919 30.647 89.1108 30.5107 89.358C30.3771 89.6051 30.3104 89.8949 30.3104 90.2273H29.3047C29.3047 89.7159 29.4226 89.267 29.6584 88.8807C29.8942 88.4943 30.2152 88.1932 30.6214 87.9773C31.0305 87.7614 31.4893 87.6534 31.9979 87.6534C32.5092 87.6534 32.9624 87.7614 33.3572 87.9773C33.7521 88.1932 34.0618 88.4844 34.2862 88.8509C34.5107 89.2173 34.6229 89.625 34.6229 90.0739C34.6229 90.3949 34.5646 90.7088 34.4482 91.0156C34.3345 91.3196 34.1357 91.6591 33.8516 92.0341C33.5703 92.4062 33.1797 92.8608 32.6797 93.3977L30.7195 95.4943V95.5625H34.7763V96.5H29.2706Z" fill="white"/>
</g>
</g>
<g clip-path="url(#clip4_67375_5086)">
<g clip-path="url(#clip5_67375_5086)">
<rect x="206" y="19.8" width="24" height="24" rx="12" fill="#C54600"/>
<path d="M219.183 27.0728V35.8H218.126V28.1807H218.075L215.944 29.5955V28.5216L218.126 27.0728H219.183Z" fill="white"/>
</g>
</g>
<rect width="1" height="31" transform="matrix(1 0 0 -1 218 66.5)" fill="#C54600"/>
</g>
<defs>
<clipPath id="clip0_67375_5086">
<rect width="405" height="137" fill="white"/>
</clipPath>
<clipPath id="clip1_67375_5086">
<rect width="18" height="18" fill="white" transform="translate(76 84)"/>
</clipPath>
<clipPath id="clip2_67375_5086">
<rect width="48" height="24" fill="white" transform="translate(20 80.5)"/>
</clipPath>
<clipPath id="clip3_67375_5086">
<rect x="20" y="80.5" width="24" height="24" rx="12" fill="white"/>
</clipPath>
<clipPath id="clip4_67375_5086">
<rect width="24" height="24" fill="white" transform="translate(206 20)"/>
</clipPath>
<clipPath id="clip5_67375_5086">
<rect x="206" y="19.8" width="24" height="24" rx="12" fill="white"/>
</clipPath>
</defs>
</svg>
