<svg width="97" height="96" viewBox="0 0 97 96" fill="none" xmlns="http://www.w3.org/2000/svg">
<path d="M26.0712 80H23.4512L16.2312 68.46H16.1512C16.1645 68.7267 16.1778 69.0133 16.1912 69.32C16.2178 69.6267 16.2378 69.9533 16.2512 70.3C16.2645 70.6333 16.2778 70.98 16.2912 71.34C16.3045 71.6867 16.3112 72.04 16.3112 72.4V80H14.3512V65.72H16.9512L24.1512 77.2H24.2112C24.1978 77 24.1845 76.7533 24.1712 76.46C24.1578 76.1533 24.1445 75.8267 24.1312 75.48C24.1312 75.1333 24.1245 74.78 24.1112 74.42C24.0978 74.06 24.0845 73.72 24.0712 73.4V65.72H26.0712V80ZM33.8785 69.02C34.8252 69.02 35.6385 69.22 36.3185 69.62C36.9985 70.0067 37.5185 70.5667 37.8785 71.3C38.2518 72.0333 38.4385 72.9 38.4385 73.9V75.06H31.1985C31.2252 76.1667 31.5118 77.0133 32.0585 77.6C32.6185 78.1867 33.3985 78.48 34.3985 78.48C35.0918 78.48 35.7052 78.42 36.2385 78.3C36.7852 78.1667 37.3452 77.9733 37.9185 77.72V79.48C37.3852 79.72 36.8385 79.9 36.2785 80.02C35.7318 80.14 35.0785 80.2 34.3185 80.2C33.2785 80.2 32.3585 79.9933 31.5585 79.58C30.7585 79.1667 30.1318 78.5533 29.6785 77.74C29.2385 76.9133 29.0185 75.9 29.0185 74.7C29.0185 73.4867 29.2185 72.46 29.6185 71.62C30.0318 70.78 30.5985 70.14 31.3185 69.7C32.0518 69.2467 32.9052 69.02 33.8785 69.02ZM33.8785 70.66C33.1185 70.66 32.5052 70.9067 32.0385 71.4C31.5852 71.8933 31.3185 72.5933 31.2385 73.5H36.3185C36.3185 72.94 36.2318 72.4467 36.0585 72.02C35.8852 71.5933 35.6185 71.26 35.2585 71.02C34.8985 70.78 34.4385 70.66 33.8785 70.66ZM43.1532 74.5L39.4932 69.22H41.9132L44.4732 73.1L47.0332 69.22H49.4332L45.7732 74.5L49.6132 80H47.2132L44.4732 75.88L41.7132 80H39.3132L43.1532 74.5ZM55.4326 78.48C55.7126 78.48 55.9992 78.4533 56.2926 78.4C56.5859 78.3467 56.8392 78.2867 57.0526 78.22V79.82C56.8259 79.9267 56.5192 80.0133 56.1326 80.08C55.7459 80.16 55.3592 80.2 54.9726 80.2C54.3859 80.2 53.8459 80.1 53.3526 79.9C52.8726 79.7 52.4859 79.3533 52.1926 78.86C51.8992 78.3667 51.7526 77.68 51.7526 76.8V70.84H50.2526V69.88L51.8326 69.08L52.5726 66.8H53.8726V69.22H56.9526V70.84H53.8726V76.76C53.8726 77.3467 54.0126 77.78 54.2926 78.06C54.5859 78.34 54.9659 78.48 55.4326 78.48Z" fill="#2B4380"/>
<path d="M12.4512 82.5H57.5526V83.5H12.4512V82.5Z" fill="#2B4380"/>
<path d="M84.3594 73.3984L78.1094 79.6484C77.875 79.8828 77.5625 80 77.25 80C76.8984 80 76.5859 79.8828 76.3516 79.6484C75.8438 79.1797 75.8438 78.3594 76.3516 77.8906L80.4531 73.75H68.5C67.7969 73.75 67.25 73.2031 67.25 72.5C67.25 71.8359 67.7969 71.25 68.5 71.25H80.4531L76.3516 67.1484C75.8438 66.6797 75.8438 65.8594 76.3516 65.3906C76.8203 64.8828 77.6406 64.8828 78.1094 65.3906L84.3594 71.6406C84.8672 72.1094 84.8672 72.9297 84.3594 73.3984Z" fill="#2B4380"/>
<g clip-path="url(#clip0_216_2107)">
<rect x="35" width="1" height="60" fill="#C54600"/>
<g clip-path="url(#clip1_216_2107)">
<rect x="23" width="24" height="24" rx="12" fill="#C54600"/>
<path d="M36.8302 6.81818V17H34.6775V8.86151H34.6178L32.2861 10.3232V8.41406L34.8067 6.81818H36.8302Z" fill="white"/>
</g>
</g>
<g clip-path="url(#clip2_216_2107)">
<rect x="76" width="1" height="60" fill="#C54600"/>
<g clip-path="url(#clip3_216_2107)">
<rect x="64" width="24" height="24" rx="12" fill="#C54600"/>
<path d="M72.4161 17V15.4489L76.0404 12.093C76.3486 11.7947 76.6072 11.5263 76.816 11.2876C77.0281 11.049 77.1888 10.8153 77.2982 10.5866C77.4076 10.3546 77.4623 10.1044 77.4623 9.83594C77.4623 9.53764 77.3943 9.28078 77.2584 9.06534C77.1225 8.84659 76.9369 8.67921 76.7016 8.56321C76.4663 8.44389 76.1995 8.38423 75.9012 8.38423C75.5896 8.38423 75.3179 8.44721 75.0858 8.57315C74.8538 8.6991 74.6749 8.87973 74.5489 9.11506C74.423 9.35038 74.36 9.63044 74.36 9.95526H72.3167C72.3167 9.28906 72.4675 8.7107 72.7691 8.22017C73.0707 7.72964 73.4933 7.35014 74.0368 7.08168C74.5804 6.81321 75.2068 6.67898 75.9161 6.67898C76.6453 6.67898 77.28 6.80824 77.8202 7.06676C78.3638 7.32197 78.7864 7.67661 79.088 8.13068C79.3896 8.58475 79.5404 9.10511 79.5404 9.69176C79.5404 10.0762 79.4642 10.4557 79.3117 10.8303C79.1626 11.2048 78.8957 11.6207 78.5113 12.0781C78.1268 12.5322 77.5849 13.0774 76.8856 13.7138L75.3991 15.1705V15.2401H79.6746V17H72.4161Z" fill="white"/>
</g>
</g>
<defs>
<clipPath id="clip0_216_2107">
<rect width="24" height="60" fill="white" transform="translate(23)"/>
</clipPath>
<clipPath id="clip1_216_2107">
<rect x="23" width="24" height="24" rx="12" fill="white"/>
</clipPath>
<clipPath id="clip2_216_2107">
<rect width="24" height="60" fill="white" transform="translate(64)"/>
</clipPath>
<clipPath id="clip3_216_2107">
<rect x="64" width="24" height="24" rx="12" fill="white"/>
</clipPath>
</defs>
</svg>
