<svg width="1100" height="170" viewBox="0 0 1100 170" fill="none" xmlns="http://www.w3.org/2000/svg">
<rect width="910" height="101.25" transform="translate(190)" fill="#F1F2F3"/>
<path d="M265.307 55.625H264.107V47.1583H261.133V46.105H268.267V47.1583H265.307V55.625ZM271.365 48.345C271.978 48.345 272.502 48.4783 272.938 48.745C273.382 49.0117 273.72 49.3894 273.951 49.8783C274.191 50.3583 274.311 50.9228 274.311 51.5717V52.2783H269.418C269.436 53.0872 269.64 53.705 270.031 54.1317C270.431 54.5494 270.987 54.7583 271.698 54.7583C272.151 54.7583 272.551 54.7183 272.898 54.6383C273.254 54.5494 273.618 54.425 273.991 54.265V55.2917C273.627 55.4517 273.267 55.5672 272.911 55.6383C272.556 55.7183 272.134 55.7583 271.645 55.7583C270.969 55.7583 270.369 55.6206 269.845 55.345C269.329 55.0694 268.925 54.6606 268.631 54.1183C268.347 53.5672 268.205 52.8961 268.205 52.105C268.205 51.3228 268.334 50.6517 268.591 50.0917C268.858 49.5317 269.227 49.1006 269.698 48.7983C270.178 48.4961 270.734 48.345 271.365 48.345ZM271.351 49.305C270.791 49.305 270.347 49.4872 270.018 49.8517C269.698 50.2072 269.507 50.705 269.445 51.345H273.085C273.076 50.7406 272.934 50.2517 272.658 49.8783C272.382 49.4961 271.947 49.305 271.351 49.305ZM279.464 48.345C279.597 48.345 279.74 48.3539 279.891 48.3717C280.051 48.3806 280.189 48.3983 280.304 48.425L280.157 49.505C280.042 49.4783 279.913 49.4561 279.771 49.4383C279.637 49.4206 279.509 49.4117 279.384 49.4117C279.02 49.4117 278.677 49.5139 278.357 49.7183C278.037 49.9139 277.78 50.1939 277.584 50.5583C277.397 50.9139 277.304 51.3317 277.304 51.8117V55.625H276.131V48.4783H277.091L277.224 49.785H277.277C277.509 49.3939 277.806 49.0561 278.171 48.7717C278.535 48.4872 278.966 48.345 279.464 48.345ZM289.479 48.345C290.287 48.345 290.892 48.5539 291.292 48.9717C291.692 49.3806 291.892 50.0472 291.892 50.9717V55.625H290.732V51.025C290.732 49.8961 290.247 49.3317 289.279 49.3317C288.585 49.3317 288.087 49.5317 287.785 49.9317C287.492 50.3317 287.345 50.9139 287.345 51.6783V55.625H286.185V51.025C286.185 49.8961 285.696 49.3317 284.719 49.3317C283.999 49.3317 283.501 49.5539 283.225 49.9983C282.95 50.4428 282.812 51.0828 282.812 51.9183V55.625H281.639V48.4783H282.585L282.759 49.4517H282.825C283.047 49.0783 283.345 48.8028 283.719 48.625C284.101 48.4383 284.505 48.345 284.932 48.345C286.052 48.345 286.781 48.745 287.119 49.545H287.185C287.425 49.1361 287.75 48.8339 288.159 48.6383C288.576 48.4428 289.016 48.345 289.479 48.345ZM298.753 53.6517C298.753 54.345 298.495 54.8694 297.979 55.225C297.464 55.5806 296.771 55.7583 295.899 55.7583C295.402 55.7583 294.971 55.7183 294.606 55.6383C294.251 55.5583 293.935 55.4472 293.659 55.305V54.2383C293.944 54.3806 294.286 54.5139 294.686 54.6383C295.095 54.7539 295.508 54.8117 295.926 54.8117C296.522 54.8117 296.953 54.7183 297.219 54.5317C297.486 54.3361 297.619 54.0783 297.619 53.7583C297.619 53.5806 297.571 53.4206 297.473 53.2783C297.375 53.1361 297.197 52.9939 296.939 52.8517C296.691 52.7094 296.331 52.5494 295.859 52.3717C295.397 52.1939 295.002 52.0161 294.673 51.8383C294.344 51.6606 294.091 51.4472 293.913 51.1983C293.735 50.9494 293.646 50.6294 293.646 50.2383C293.646 49.6339 293.891 49.1672 294.379 48.8383C294.877 48.5094 295.526 48.345 296.326 48.345C296.762 48.345 297.166 48.3894 297.539 48.4783C297.922 48.5583 298.277 48.6739 298.606 48.825L298.206 49.7583C297.904 49.6339 297.588 49.5272 297.259 49.4383C296.931 49.3494 296.593 49.305 296.246 49.305C295.766 49.305 295.397 49.385 295.139 49.545C294.891 49.6961 294.766 49.905 294.766 50.1717C294.766 50.3672 294.824 50.5361 294.939 50.6783C295.055 50.8117 295.246 50.945 295.513 51.0783C295.788 51.2028 296.153 51.3539 296.606 51.5317C297.059 51.7006 297.446 51.8739 297.766 52.0517C298.086 52.2294 298.331 52.4472 298.499 52.705C298.668 52.9539 298.753 53.2694 298.753 53.6517ZM306.65 48.3583C307.521 48.3583 308.165 48.5494 308.583 48.9317C309.001 49.3139 309.21 49.9228 309.21 50.7583V55.625H308.357L308.13 54.6117H308.077C307.765 55.0028 307.437 55.2917 307.09 55.4783C306.752 55.665 306.281 55.7583 305.677 55.7583C305.028 55.7583 304.49 55.5894 304.063 55.2517C303.637 54.905 303.423 54.3672 303.423 53.6383C303.423 52.9272 303.703 52.3806 304.263 51.9983C304.823 51.6072 305.685 51.3939 306.85 51.3583L308.063 51.3183V50.8917C308.063 50.2961 307.934 49.8828 307.677 49.6517C307.419 49.4206 307.054 49.305 306.583 49.305C306.21 49.305 305.854 49.3628 305.517 49.4783C305.179 49.585 304.863 49.7094 304.57 49.8517L304.21 48.9717C304.521 48.8028 304.89 48.6606 305.317 48.545C305.743 48.4206 306.188 48.3583 306.65 48.3583ZM306.997 52.1717C306.108 52.2072 305.49 52.3494 305.143 52.5983C304.805 52.8472 304.637 53.1983 304.637 53.6517C304.637 54.0517 304.757 54.345 304.997 54.5317C305.245 54.7183 305.561 54.8117 305.943 54.8117C306.548 54.8117 307.05 54.6472 307.45 54.3183C307.85 53.9806 308.05 53.465 308.05 52.7717V52.1317L306.997 52.1717ZM314.857 48.345C315.711 48.345 316.355 48.5539 316.791 48.9717C317.226 49.3806 317.444 50.0472 317.444 50.9717V55.625H316.284V51.0517C316.284 49.905 315.751 49.3317 314.684 49.3317C313.893 49.3317 313.346 49.5539 313.044 49.9983C312.742 50.4428 312.591 51.0828 312.591 51.9183V55.625H311.417V48.4783H312.364L312.537 49.4517H312.604C312.835 49.0783 313.155 48.8028 313.564 48.625C313.973 48.4383 314.404 48.345 314.857 48.345ZM322.193 55.7583C321.304 55.7583 320.593 55.4517 320.059 54.8383C319.526 54.2161 319.259 53.2917 319.259 52.065C319.259 50.8383 319.526 49.9139 320.059 49.2917C320.602 48.6606 321.317 48.345 322.206 48.345C322.757 48.345 323.206 48.4472 323.553 48.6517C323.908 48.8561 324.197 49.105 324.419 49.3983H324.499C324.49 49.2828 324.473 49.1139 324.446 48.8917C324.428 48.6606 324.419 48.4783 324.419 48.345V45.4917H325.593V55.625H324.646L324.473 54.665H324.419C324.206 54.9672 323.922 55.225 323.566 55.4383C323.21 55.6517 322.753 55.7583 322.193 55.7583ZM322.379 54.785C323.135 54.785 323.664 54.5806 323.966 54.1717C324.277 53.7539 324.433 53.1272 324.433 52.2917V52.0783C324.433 51.1894 324.286 50.5094 323.993 50.0383C323.699 49.5583 323.157 49.3183 322.366 49.3183C321.735 49.3183 321.259 49.5717 320.939 50.0783C320.628 50.5761 320.473 51.2472 320.473 52.0917C320.473 52.945 320.628 53.6072 320.939 54.0783C321.259 54.5494 321.739 54.785 322.379 54.785ZM334.193 55.7583C333.562 55.7583 332.997 55.6294 332.499 55.3717C332.01 55.1139 331.624 54.7139 331.339 54.1717C331.064 53.6294 330.926 52.9361 330.926 52.0917C330.926 51.2117 331.073 50.4961 331.366 49.945C331.659 49.3939 332.055 48.9894 332.553 48.7317C333.059 48.4739 333.633 48.345 334.273 48.345C334.637 48.345 334.988 48.385 335.326 48.465C335.664 48.5361 335.939 48.625 336.153 48.7317L335.793 49.705C335.579 49.625 335.33 49.5494 335.046 49.4783C334.762 49.4072 334.495 49.3717 334.246 49.3717C332.842 49.3717 332.139 50.2739 332.139 52.0783C332.139 52.9406 332.308 53.6028 332.646 54.065C332.993 54.5183 333.504 54.745 334.179 54.745C334.57 54.745 334.913 54.705 335.206 54.625C335.508 54.545 335.784 54.4472 336.033 54.3317V55.3717C335.793 55.4961 335.526 55.5894 335.233 55.6517C334.948 55.7228 334.602 55.7583 334.193 55.7583ZM343.946 52.0383C343.946 53.2206 343.643 54.1361 343.039 54.785C342.443 55.4339 341.635 55.7583 340.612 55.7583C339.981 55.7583 339.417 55.6161 338.919 55.3317C338.43 55.0383 338.043 54.6161 337.759 54.065C337.475 53.505 337.332 52.8294 337.332 52.0383C337.332 50.8561 337.63 49.945 338.226 49.305C338.821 48.665 339.63 48.345 340.652 48.345C341.301 48.345 341.87 48.4917 342.359 48.785C342.857 49.0694 343.243 49.4872 343.519 50.0383C343.803 50.5806 343.946 51.2472 343.946 52.0383ZM338.546 52.0383C338.546 52.8828 338.71 53.5539 339.039 54.0517C339.377 54.5406 339.91 54.785 340.639 54.785C341.359 54.785 341.888 54.5406 342.226 54.0517C342.563 53.5539 342.732 52.8828 342.732 52.0383C342.732 51.1939 342.563 50.5317 342.226 50.0517C341.888 49.5717 341.355 49.3317 340.626 49.3317C339.897 49.3317 339.368 49.5717 339.039 50.0517C338.71 50.5317 338.546 51.1939 338.546 52.0383ZM349.245 48.345C350.099 48.345 350.743 48.5539 351.179 48.9717C351.614 49.3806 351.832 50.0472 351.832 50.9717V55.625H350.672V51.0517C350.672 49.905 350.139 49.3317 349.072 49.3317C348.281 49.3317 347.734 49.5539 347.432 49.9983C347.13 50.4428 346.979 51.0828 346.979 51.9183V55.625H345.805V48.4783H346.752L346.925 49.4517H346.992C347.223 49.0783 347.543 48.8028 347.952 48.625C348.361 48.4383 348.792 48.345 349.245 48.345ZM356.581 55.7583C355.692 55.7583 354.981 55.4517 354.447 54.8383C353.914 54.2161 353.647 53.2917 353.647 52.065C353.647 50.8383 353.914 49.9139 354.447 49.2917C354.99 48.6606 355.705 48.345 356.594 48.345C357.145 48.345 357.594 48.4472 357.941 48.6517C358.296 48.8561 358.585 49.105 358.807 49.3983H358.887C358.879 49.2828 358.861 49.1139 358.834 48.8917C358.816 48.6606 358.807 48.4783 358.807 48.345V45.4917H359.981V55.625H359.034L358.861 54.665H358.807C358.594 54.9672 358.31 55.225 357.954 55.4383C357.599 55.6517 357.141 55.7583 356.581 55.7583ZM356.767 54.785C357.523 54.785 358.052 54.5806 358.354 54.1717C358.665 53.7539 358.821 53.1272 358.821 52.2917V52.0783C358.821 51.1894 358.674 50.5094 358.381 50.0383C358.087 49.5583 357.545 49.3183 356.754 49.3183C356.123 49.3183 355.647 49.5717 355.327 50.0783C355.016 50.5761 354.861 51.2472 354.861 52.0917C354.861 52.945 355.016 53.6072 355.327 54.0783C355.647 54.5494 356.127 54.785 356.767 54.785ZM362.851 45.7983C363.028 45.7983 363.184 45.8606 363.317 45.985C363.459 46.1006 363.531 46.2872 363.531 46.545C363.531 46.7939 363.459 46.9806 363.317 47.105C363.184 47.2294 363.028 47.2917 362.851 47.2917C362.655 47.2917 362.491 47.2294 362.357 47.105C362.224 46.9806 362.157 46.7939 362.157 46.545C362.157 46.2872 362.224 46.1006 362.357 45.985C362.491 45.8606 362.655 45.7983 362.851 45.7983ZM363.424 48.4783V55.625H362.251V48.4783H363.424ZM368.075 54.7983C368.252 54.7983 368.435 54.785 368.621 54.7583C368.808 54.7228 368.959 54.6872 369.075 54.6517V55.545C368.95 55.6072 368.772 55.6561 368.541 55.6917C368.31 55.7361 368.088 55.7583 367.875 55.7583C367.501 55.7583 367.155 55.6961 366.835 55.5717C366.524 55.4383 366.27 55.2117 366.075 54.8917C365.879 54.5717 365.781 54.1228 365.781 53.545V49.385H364.768V48.825L365.795 48.3583L366.261 46.8383H366.955V48.4783H369.021V49.385H366.955V53.5183C366.955 53.9539 367.057 54.2783 367.261 54.4917C367.475 54.6961 367.746 54.7983 368.075 54.7983ZM371.106 45.7983C371.284 45.7983 371.439 45.8606 371.572 45.985C371.715 46.1006 371.786 46.2872 371.786 46.545C371.786 46.7939 371.715 46.9806 371.572 47.105C371.439 47.2294 371.284 47.2917 371.106 47.2917C370.91 47.2917 370.746 47.2294 370.612 47.105C370.479 46.9806 370.412 46.7939 370.412 46.545C370.412 46.2872 370.479 46.1006 370.612 45.985C370.746 45.8606 370.91 45.7983 371.106 45.7983ZM371.679 48.4783V55.625H370.506V48.4783H371.679ZM380.157 52.0383C380.157 53.2206 379.854 54.1361 379.25 54.785C378.654 55.4339 377.845 55.7583 376.823 55.7583C376.192 55.7583 375.628 55.6161 375.13 55.3317C374.641 55.0383 374.254 54.6161 373.97 54.065C373.685 53.505 373.543 52.8294 373.543 52.0383C373.543 50.8561 373.841 49.945 374.437 49.305C375.032 48.665 375.841 48.345 376.863 48.345C377.512 48.345 378.081 48.4917 378.57 48.785C379.068 49.0694 379.454 49.4872 379.73 50.0383C380.014 50.5806 380.157 51.2472 380.157 52.0383ZM374.757 52.0383C374.757 52.8828 374.921 53.5539 375.25 54.0517C375.588 54.5406 376.121 54.785 376.85 54.785C377.57 54.785 378.099 54.5406 378.437 54.0517C378.774 53.5539 378.943 52.8828 378.943 52.0383C378.943 51.1939 378.774 50.5317 378.437 50.0517C378.099 49.5717 377.565 49.3317 376.837 49.3317C376.108 49.3317 375.579 49.5717 375.25 50.0517C374.921 50.5317 374.757 51.1939 374.757 52.0383ZM385.456 48.345C386.309 48.345 386.954 48.5539 387.389 48.9717C387.825 49.3806 388.043 50.0472 388.043 50.9717V55.625H386.883V51.0517C386.883 49.905 386.349 49.3317 385.283 49.3317C384.492 49.3317 383.945 49.5539 383.643 49.9983C383.341 50.4428 383.189 51.0828 383.189 51.9183V55.625H382.016V48.4783H382.963L383.136 49.4517H383.203C383.434 49.0783 383.754 48.8028 384.163 48.625C384.572 48.4383 385.003 48.345 385.456 48.345ZM394.912 53.6517C394.912 54.345 394.654 54.8694 394.138 55.225C393.623 55.5806 392.929 55.7583 392.058 55.7583C391.561 55.7583 391.129 55.7183 390.765 55.6383C390.409 55.5583 390.094 55.4472 389.818 55.305V54.2383C390.103 54.3806 390.445 54.5139 390.845 54.6383C391.254 54.7539 391.667 54.8117 392.085 54.8117C392.681 54.8117 393.112 54.7183 393.378 54.5317C393.645 54.3361 393.778 54.0783 393.778 53.7583C393.778 53.5806 393.729 53.4206 393.632 53.2783C393.534 53.1361 393.356 52.9939 393.098 52.8517C392.849 52.7094 392.489 52.5494 392.018 52.3717C391.556 52.1939 391.161 52.0161 390.832 51.8383C390.503 51.6606 390.249 51.4472 390.072 51.1983C389.894 50.9494 389.805 50.6294 389.805 50.2383C389.805 49.6339 390.049 49.1672 390.538 48.8383C391.036 48.5094 391.685 48.345 392.485 48.345C392.921 48.345 393.325 48.3894 393.698 48.4783C394.081 48.5583 394.436 48.6739 394.765 48.825L394.365 49.7583C394.063 49.6339 393.747 49.5272 393.418 49.4383C393.089 49.3494 392.752 49.305 392.405 49.305C391.925 49.305 391.556 49.385 391.298 49.545C391.049 49.6961 390.925 49.905 390.925 50.1717C390.925 50.3672 390.983 50.5361 391.098 50.6783C391.214 50.8117 391.405 50.945 391.672 51.0783C391.947 51.2028 392.312 51.3539 392.765 51.5317C393.218 51.7006 393.605 51.8739 393.925 52.0517C394.245 52.2294 394.489 52.4472 394.658 52.705C394.827 52.9539 394.912 53.2694 394.912 53.6517Z" fill="#31455C"/>
<line x1="261" y1="61.5" x2="396" y2="61.5" stroke="#425A76" stroke-width="0.75"/>
<circle cx="409.5" cy="50.625" r="2.25" fill="black"/>
<path d="M426.813 46.105C428.058 46.105 428.964 46.3494 429.533 46.8383C430.102 47.3272 430.387 48.0161 430.387 48.905C430.387 49.4294 430.267 49.9228 430.027 50.385C429.796 50.8383 429.4 51.2072 428.84 51.4917C428.289 51.7761 427.538 51.9183 426.587 51.9183H425.493V55.625H424.293V46.105H426.813ZM426.707 47.1317H425.493V50.8917H426.453C427.36 50.8917 428.036 50.745 428.48 50.4517C428.924 50.1583 429.147 49.6606 429.147 48.9583C429.147 48.345 428.951 47.8872 428.56 47.585C428.169 47.2828 427.551 47.1317 426.707 47.1317ZM435.54 48.345C435.673 48.345 435.815 48.3539 435.966 48.3717C436.126 48.3806 436.264 48.3983 436.38 48.425L436.233 49.505C436.117 49.4783 435.988 49.4561 435.846 49.4383C435.713 49.4206 435.584 49.4117 435.46 49.4117C435.095 49.4117 434.753 49.5139 434.433 49.7183C434.113 49.9139 433.855 50.1939 433.66 50.5583C433.473 50.9139 433.38 51.3317 433.38 51.8117V55.625H432.206V48.4783H433.166L433.3 49.785H433.353C433.584 49.3939 433.882 49.0561 434.246 48.7717C434.611 48.4872 435.042 48.345 435.54 48.345ZM438.314 45.7983C438.492 45.7983 438.647 45.8606 438.781 45.985C438.923 46.1006 438.994 46.2872 438.994 46.545C438.994 46.7939 438.923 46.9806 438.781 47.105C438.647 47.2294 438.492 47.2917 438.314 47.2917C438.119 47.2917 437.954 47.2294 437.821 47.105C437.687 46.9806 437.621 46.7939 437.621 46.545C437.621 46.2872 437.687 46.1006 437.821 45.985C437.954 45.8606 438.119 45.7983 438.314 45.7983ZM438.887 48.4783V55.625H437.714V48.4783H438.887ZM442.725 55.625L440.018 48.4783H441.272L442.792 52.6917C442.863 52.8872 442.938 53.105 443.018 53.345C443.098 53.585 443.169 53.8161 443.232 54.0383C443.294 54.2517 443.338 54.4339 443.365 54.585H443.418C443.454 54.4339 443.503 54.2472 443.565 54.025C443.636 53.8028 443.712 53.5717 443.792 53.3317C443.88 53.0917 443.956 52.8783 444.018 52.6917L445.538 48.4783H446.792L444.072 55.625H442.725ZM450.629 48.3583C451.5 48.3583 452.145 48.5494 452.562 48.9317C452.98 49.3139 453.189 49.9228 453.189 50.7583V55.625H452.336L452.109 54.6117H452.056C451.745 55.0028 451.416 55.2917 451.069 55.4783C450.731 55.665 450.26 55.7583 449.656 55.7583C449.007 55.7583 448.469 55.5894 448.042 55.2517C447.616 54.905 447.402 54.3672 447.402 53.6383C447.402 52.9272 447.682 52.3806 448.242 51.9983C448.802 51.6072 449.665 51.3939 450.829 51.3583L452.042 51.3183V50.8917C452.042 50.2961 451.914 49.8828 451.656 49.6517C451.398 49.4206 451.034 49.305 450.562 49.305C450.189 49.305 449.834 49.3628 449.496 49.4783C449.158 49.585 448.842 49.7094 448.549 49.8517L448.189 48.9717C448.5 48.8028 448.869 48.6606 449.296 48.545C449.722 48.4206 450.167 48.3583 450.629 48.3583ZM450.976 52.1717C450.087 52.2072 449.469 52.3494 449.122 52.5983C448.785 52.8472 448.616 53.1983 448.616 53.6517C448.616 54.0517 448.736 54.345 448.976 54.5317C449.225 54.7183 449.54 54.8117 449.922 54.8117C450.527 54.8117 451.029 54.6472 451.429 54.3183C451.829 53.9806 452.029 53.465 452.029 52.7717V52.1317L450.976 52.1717ZM458.263 55.7583C457.632 55.7583 457.067 55.6294 456.57 55.3717C456.081 55.1139 455.694 54.7139 455.41 54.1717C455.134 53.6294 454.996 52.9361 454.996 52.0917C454.996 51.2117 455.143 50.4961 455.436 49.945C455.73 49.3939 456.125 48.9894 456.623 48.7317C457.13 48.4739 457.703 48.345 458.343 48.345C458.707 48.345 459.059 48.385 459.396 48.465C459.734 48.5361 460.01 48.625 460.223 48.7317L459.863 49.705C459.65 49.625 459.401 49.5494 459.116 49.4783C458.832 49.4072 458.565 49.3717 458.316 49.3717C456.912 49.3717 456.21 50.2739 456.21 52.0783C456.21 52.9406 456.379 53.6028 456.716 54.065C457.063 54.5183 457.574 54.745 458.25 54.745C458.641 54.745 458.983 54.705 459.276 54.625C459.579 54.545 459.854 54.4472 460.103 54.3317V55.3717C459.863 55.4961 459.596 55.5894 459.303 55.6517C459.019 55.7228 458.672 55.7583 458.263 55.7583ZM460.683 48.4783H461.936L463.483 52.545C463.616 52.9006 463.736 53.2428 463.843 53.5717C463.949 53.8917 464.029 54.1983 464.083 54.4917H464.136C464.189 54.2694 464.274 53.9806 464.389 53.625C464.505 53.2606 464.625 52.8961 464.749 52.5317L466.203 48.4783H467.469L464.389 56.6117C464.14 57.2872 463.816 57.825 463.416 58.225C463.025 58.625 462.483 58.825 461.789 58.825C461.576 58.825 461.389 58.8117 461.229 58.785C461.069 58.7672 460.931 58.745 460.816 58.7183V57.785C460.914 57.8028 461.029 57.8206 461.163 57.8383C461.305 57.8561 461.451 57.865 461.603 57.865C462.011 57.865 462.34 57.7494 462.589 57.5183C462.847 57.2872 463.047 56.9806 463.189 56.5983L463.563 55.6517L460.683 48.4783Z" fill="#31455C"/>
<line x1="423" y1="61.5" x2="468" y2="61.5" stroke="#425A76" stroke-width="0.75"/>
<path d="M1022.83 36.1797H1027.3V45.0987H1022.83V36.1797ZM1015.1 40.6392L1014.84 40.725C1014.84 40.725 1016.39 42.0114 1016.39 42.0971C1016.47 42.1829 1016.56 42.1829 1016.47 42.4402C1016.39 42.6974 1016.3 42.9547 1016.3 42.9547C1016.3 42.9547 1017.68 42.6974 1017.85 42.6117C1018.02 42.6117 1018.11 42.6117 1018.11 42.7832C1018.11 42.9547 1018.02 44.4126 1018.02 44.4126H1018.45C1018.45 44.4126 1018.36 42.869 1018.36 42.7832C1018.36 42.6117 1018.45 42.6117 1018.62 42.6117C1018.79 42.6117 1020.17 42.9547 1020.17 42.9547C1020.17 42.9547 1020.08 42.6117 1020 42.4402C1019.91 42.1829 1020 42.1829 1020.08 42.0971C1020.17 42.0114 1021.63 40.725 1021.63 40.725L1021.37 40.6392C1021.2 40.5534 1021.29 40.4677 1021.29 40.3819C1021.29 40.2962 1021.54 39.4386 1021.54 39.4386C1021.54 39.4386 1020.86 39.6101 1020.77 39.6101C1020.68 39.6101 1020.6 39.6101 1020.6 39.5243C1020.6 39.4386 1020.43 39.0955 1020.43 39.0955C1020.43 39.0955 1019.65 39.9531 1019.57 40.0389C1019.39 40.2104 1019.22 40.0389 1019.31 39.8674C1019.31 39.6958 1019.74 37.8949 1019.74 37.8949C1019.74 37.8949 1019.31 38.1522 1019.14 38.2379C1018.96 38.3237 1018.88 38.3237 1018.88 38.1522C1018.79 37.9806 1018.28 37.0373 1018.28 36.9515C1018.28 36.9515 1017.76 37.9806 1017.68 38.1522C1017.59 38.3237 1017.5 38.3237 1017.42 38.2379C1017.25 38.1522 1016.82 37.8949 1016.82 37.8949C1016.82 37.8949 1017.25 39.6958 1017.25 39.8674C1017.25 40.0389 1017.16 40.1246 1016.99 40.0389L1016.13 39.0955C1016.13 39.0955 1016.04 39.3528 1015.96 39.4386C1015.96 39.5243 1015.87 39.6101 1015.78 39.5243C1015.61 39.5243 1014.93 39.3528 1014.93 39.3528C1014.93 39.3528 1015.18 40.2104 1015.27 40.2962C1015.27 40.3819 1015.27 40.5534 1015.1 40.6392ZM1009.34 36.1797H1013.81V45.0987H1009.34V36.1797Z" fill="#FF0000"/>
<path d="M1028.3 62.9334C1027.96 63.7053 1027.27 63.9626 1026.84 63.9626C1026.33 63.9626 1024.78 63.8768 1024.78 59.8461C1024.78 59.8461 1024.78 51.699 1024.78 51.1844C1024.78 48.5259 1022.72 46.3819 1017.39 46.3819C1011.63 46.3819 1011.54 49.212 1011.54 49.898C1011.46 50.6699 1011.89 51.5275 1013.35 51.5275C1014.64 51.5275 1014.98 50.0696 1015.15 49.555C1015.33 48.9547 1015.41 47.2395 1017.73 47.2395C1019.71 47.2395 1020.91 48.9547 1021 51.4417C1021 51.8705 1021 52.1278 1021 52.3851C1021 52.5566 1021 52.6423 1021 52.8139V52.8996C1020.83 53.7572 1020.4 54.186 1019.62 54.529C1018.59 55.0436 1015.58 55.4724 1015.24 55.5582C1014.04 55.8154 1010.69 56.673 1010.77 60.1892C1010.86 63.6195 1014.29 64.8202 1016.7 64.7344C1019.02 64.6486 1020.4 63.7053 1021 63.1907C1021.34 62.9334 1021.34 62.9334 1021.6 63.2765C1021.94 63.6195 1023.06 64.7344 1025.73 64.7344C1028.48 64.7344 1028.82 63.448 1028.99 63.0192C1029.08 62.7619 1028.48 62.5047 1028.3 62.9334ZM1017.56 63.8768C1015.15 63.8768 1014.55 61.9043 1014.55 60.8752C1014.55 59.9319 1015.07 57.9594 1017.47 56.5873C1017.47 56.5873 1018.59 55.9012 1020.74 55.0436C1020.83 55.0436 1020.91 55.0436 1020.91 55.0436C1020.91 55.0436 1021 55.1294 1021 55.2151V55.3009V55.3866V58.9885C1021 61.8186 1019.62 63.8768 1017.56 63.8768ZM1009.65 63.791C1009.31 63.7053 1007.16 63.9626 1007.16 57.4449C1007.16 50.9272 1007.16 36.9484 1007.16 36.9484C1007.16 36.6911 1007.16 36.005 1006.39 36.005C1005.61 36.005 1000.46 36.2623 1000.11 36.3481C999.77 36.3481 999.512 36.7769 1000.11 36.7769C1000.72 36.8626 1003.47 37.0342 1003.47 41.5794C1003.47 43.8091 1003.47 46.0389 1003.47 47.6683C1003.47 47.7541 1003.47 47.8398 1003.47 47.8398C1003.47 48.0113 1003.47 48.0971 1003.38 48.1829C1003.38 48.1829 1003.38 48.1829 1003.38 48.2686C1003.29 48.3544 1003.21 48.2686 1002.95 48.0971C1002.52 47.7541 1000.54 46.5534 998.051 46.5534C994.012 46.5534 989.027 49.4692 989.027 55.4724C989.027 61.9043 993.582 64.9917 998.309 64.9917C1000.63 64.9917 1002.26 63.9626 1002.86 63.6195C1003.55 63.1907 1003.47 63.2765 1003.55 63.8768C1003.64 64.3056 1003.55 65.1632 1004.75 65.0774C1006.04 64.9059 1009.14 64.5629 1009.74 64.4771C1010.34 64.2198 1010.17 63.8768 1009.65 63.791ZM998.996 64.0483C995.215 64.0483 993.238 59.5888 993.238 55.3009C993.238 50.5841 995.902 47.411 998.739 47.5825C1002.43 47.8398 1003.38 50.7556 1003.47 55.9869C1003.47 56.33 1003.47 56.673 1003.47 57.1018C1003.38 62.2474 1001.23 64.0483 998.996 64.0483ZM988.941 62.9334C988.597 63.7053 987.909 63.9626 987.48 63.9626C986.964 63.9626 985.417 63.8768 985.417 59.8461C985.417 59.8461 985.417 51.699 985.417 51.1844C985.417 48.5259 983.354 46.3819 978.026 46.3819C972.267 46.3819 972.181 49.212 972.181 49.898C972.095 50.6699 972.525 51.5275 973.986 51.5275C975.275 51.5275 975.619 50.0696 975.791 49.555C975.963 48.9547 976.049 47.2395 978.369 47.2395C980.346 47.2395 981.635 48.9547 981.635 51.5275V51.6132C981.635 51.699 981.635 51.7847 981.635 51.7847V52.042C981.635 52.1278 981.635 52.2993 981.635 52.3851C981.549 53.6715 981.206 54.1002 980.174 54.6148C979.143 55.1294 976.135 55.5582 975.791 55.6439C974.588 55.9012 971.236 56.7588 971.322 60.2749C971.408 63.7053 974.846 64.9059 977.252 64.8202C979.573 64.7344 980.948 63.791 981.549 63.2765C981.893 63.0192 981.893 63.0192 982.151 63.3622C982.495 63.7053 983.612 64.8202 986.276 64.8202C989.027 64.8202 989.371 63.5338 989.542 63.105C989.714 62.7619 989.199 62.5047 988.941 62.9334ZM978.284 63.8768C975.877 63.8768 975.275 61.9043 975.275 60.8752C975.275 59.9319 975.791 57.9594 978.198 56.5873C978.198 56.5873 979.315 55.9012 981.464 55.0436C981.549 55.0436 981.635 55.0436 981.635 55.0436V55.1294C981.635 55.2151 981.635 55.3009 981.635 55.4724V55.3866C981.635 55.3866 981.635 55.3866 981.635 55.4724V59.0743C981.635 61.8186 980.26 63.8768 978.284 63.8768ZM970.033 63.791C969.345 63.6195 968.142 62.8477 968.142 59.0743V52.2135C968.142 50.5841 968.314 46.3819 961.868 46.3819C958.516 46.3819 956.625 48.0971 956.453 48.1829C956.195 48.4401 956.023 48.5259 955.938 48.0971C955.852 47.7541 955.68 47.2395 955.594 46.8965C955.508 46.6392 955.336 46.3819 954.734 46.4677C954.133 46.5534 950.351 47.1537 949.663 47.3253C949.062 47.4968 949.234 47.7541 949.663 47.8398C950.093 47.9256 952.156 48.0971 952.156 51.6132C952.156 55.1294 952.156 58.9885 952.156 58.9885C952.156 63.2765 951.296 63.6195 950.523 63.8768C949.492 64.1341 950.007 64.4771 950.437 64.4771C950.437 64.4771 958.086 64.4771 958.258 64.4771C958.774 64.4771 959.032 63.9626 958 63.791C956.969 63.6195 956.023 63.0192 956.023 59.6746C956.023 59.3316 956.023 55.6439 956.023 54.9578C956.023 53.1569 955.594 47.6683 960.579 47.5825C964.102 47.4968 964.446 50.4126 964.446 52.2993V59.5888C964.446 62.5904 963.587 63.5338 962.555 63.7053C961.61 63.8768 961.782 64.3056 962.298 64.3056C962.469 64.3056 970.291 64.3056 970.291 64.3056C970.72 64.4771 971.15 64.0483 970.033 63.791ZM949.148 62.9334C948.804 63.7053 948.116 63.9626 947.687 63.9626C947.171 63.9626 945.624 63.8768 945.624 59.8461C945.624 59.8461 945.624 51.699 945.624 51.1844C945.624 48.5259 943.561 46.3819 938.233 46.3819C932.474 46.3819 932.388 49.212 932.388 49.898C932.302 50.6699 932.732 51.5275 934.193 51.5275C935.482 51.5275 935.826 50.0696 935.998 49.555C936.17 48.9547 936.256 47.2395 938.576 47.2395C940.553 47.2395 941.756 48.9547 941.842 51.4417C941.842 51.8705 941.842 52.1278 941.842 52.3851C941.842 52.5566 941.842 52.7281 941.756 52.8139V52.8996C941.585 53.7572 941.155 54.186 940.381 54.529C939.35 55.0436 936.342 55.4724 935.998 55.5582C934.795 55.8154 931.443 56.673 931.529 60.1892C931.615 63.6195 935.053 64.8202 937.459 64.7344C939.78 64.6486 941.155 63.7053 941.756 63.1907C942.1 62.9334 942.1 62.9334 942.358 63.2765C942.702 63.6195 943.819 64.7344 946.483 64.7344C949.234 64.7344 949.578 63.448 949.749 63.0192C949.921 62.7619 949.32 62.5047 949.148 62.9334ZM938.405 63.8768C935.998 63.8768 935.396 61.9043 935.396 60.8752C935.396 59.8461 935.912 57.9594 938.319 56.5873C938.319 56.5873 939.436 55.9012 941.585 55.0436C941.671 55.0436 941.756 55.0436 941.756 55.0436C941.756 55.0436 941.842 55.1294 941.842 55.2151C941.842 55.2151 941.842 55.3009 941.842 55.3866V55.4724V59.0743C941.842 61.8186 940.467 63.8768 938.405 63.8768ZM930.154 56.4157C929.294 59.16 927.661 63.6195 921.731 63.791C915.543 63.8768 911.847 59.6746 911.675 51.8705C911.418 43.5519 915.027 37.2057 920.614 37.0342C926.888 36.9484 929.122 44.4095 929.208 45.5243C929.294 46.3819 930.412 46.2962 930.412 45.4386C930.412 45.0098 929.896 37.6345 929.724 36.7769C929.552 35.9193 928.865 36.2623 928.693 36.6054C928.607 36.8626 928.779 36.3481 928.435 37.1199C928.091 37.8918 927.146 37.463 926.802 37.3772C925.77 36.9484 923.794 35.9193 920.614 36.005C913.308 36.1766 905.831 41.5794 906.003 51.0129C906.175 60.1892 913.566 65.3347 920.442 65.2489C926.716 65.1632 930.24 61.2183 931.271 56.673C931.615 55.5582 930.498 55.3009 930.154 56.4157Z" fill="black"/>
<path d="M15.6916 57.5H14.0932V44.8194H21.1794V46.2224H15.6916V50.7157H20.842V52.1187H15.6916V57.5ZM31.3658 52.7226C31.3658 54.2973 30.9632 55.5168 30.1581 56.3811C29.3648 57.2454 28.2874 57.6776 26.9258 57.6776C26.0851 57.6776 25.3333 57.4882 24.6702 57.1093C24.019 56.7186 23.504 56.1562 23.1251 55.4221C22.7462 54.6762 22.5568 53.7763 22.5568 52.7226C22.5568 51.1478 22.9534 49.9342 23.7467 49.0818C24.54 48.2293 25.6174 47.803 26.979 47.803C27.8434 47.803 28.6011 47.9984 29.2523 48.3891C29.9154 48.768 30.4304 49.3245 30.7974 50.0586C31.1763 50.7808 31.3658 51.6688 31.3658 52.7226ZM24.173 52.7226C24.173 53.8474 24.392 54.7413 24.8301 55.4043C25.28 56.0555 25.9904 56.3811 26.9613 56.3811C27.9203 56.3811 28.6248 56.0555 29.0747 55.4043C29.5246 54.7413 29.7496 53.8474 29.7496 52.7226C29.7496 51.5978 29.5246 50.7157 29.0747 50.0763C28.6248 49.437 27.9144 49.1173 26.9435 49.1173C25.9726 49.1173 25.2682 49.437 24.8301 50.0763C24.392 50.7157 24.173 51.5978 24.173 52.7226ZM42.1189 52.7226C42.1189 54.2973 41.7163 55.5168 40.9112 56.3811C40.1179 57.2454 39.0405 57.6776 37.6789 57.6776C36.8382 57.6776 36.0864 57.4882 35.4234 57.1093C34.7722 56.7186 34.2571 56.1562 33.8782 55.4221C33.4994 54.6762 33.3099 53.7763 33.3099 52.7226C33.3099 51.1478 33.7066 49.9342 34.4998 49.0818C35.2931 48.2293 36.3706 47.803 37.7322 47.803C38.5965 47.803 39.3542 47.9984 40.0054 48.3891C40.6685 48.768 41.1835 49.3245 41.5506 50.0586C41.9294 50.7808 42.1189 51.6688 42.1189 52.7226ZM34.9261 52.7226C34.9261 53.8474 35.1451 54.7413 35.5832 55.4043C36.0331 56.0555 36.7435 56.3811 37.7144 56.3811C38.6734 56.3811 39.3779 56.0555 39.8278 55.4043C40.2778 54.7413 40.5027 53.8474 40.5027 52.7226C40.5027 51.5978 40.2778 50.7157 39.8278 50.0763C39.3779 49.437 38.6675 49.1173 37.6966 49.1173C36.7258 49.1173 36.0213 49.437 35.5832 50.0763C35.1451 50.7157 34.9261 51.5978 34.9261 52.7226ZM47.7749 56.3989C48.0117 56.3989 48.2544 56.3811 48.5031 56.3456C48.7517 56.2982 48.953 56.2509 49.1069 56.2035V57.3934C48.9411 57.4763 48.7043 57.5414 48.3965 57.5888C48.0887 57.648 47.7927 57.6776 47.5085 57.6776C47.0112 57.6776 46.5495 57.5947 46.1232 57.429C45.7088 57.2514 45.3714 56.9494 45.1109 56.5232C44.8504 56.097 44.7202 55.499 44.7202 54.7294V49.1883H43.3704V48.4424L44.7379 47.8208L45.3595 45.7962H46.2831V47.9806H49.0359V49.1883H46.2831V54.6939C46.2831 55.2741 46.4192 55.7062 46.6915 55.9904C46.9757 56.2627 47.3368 56.3989 47.7749 56.3989ZM54.6894 47.803C55.5063 47.803 56.2049 47.9806 56.785 48.3358C57.377 48.691 57.827 49.1942 58.1348 49.8454C58.4545 50.4848 58.6143 51.2366 58.6143 52.101V53.0422H52.0964C52.1201 54.1197 52.3924 54.9426 52.9134 55.5109C53.4462 56.0674 54.1862 56.3456 55.1334 56.3456C55.7372 56.3456 56.27 56.2923 56.7318 56.1858C57.2054 56.0674 57.6908 55.9016 58.1881 55.6885V57.056C57.7026 57.2691 57.2231 57.423 56.7495 57.5178C56.2759 57.6243 55.7135 57.6776 55.0623 57.6776C54.1625 57.6776 53.3633 57.4941 52.6647 57.127C51.978 56.76 51.4393 56.2154 51.0486 55.4931C50.6697 54.759 50.4802 53.8651 50.4802 52.8114C50.4802 51.7694 50.6519 50.8755 50.9953 50.1296C51.3505 49.3837 51.8418 48.8094 52.4694 48.4069C53.1087 48.0043 53.8487 47.803 54.6894 47.803ZM54.6716 49.0818C53.9257 49.0818 53.3337 49.3245 52.8956 49.8099C52.4694 50.2835 52.2148 50.9466 52.1319 51.799H56.9804C56.9686 50.9939 56.7791 50.3427 56.4121 49.8454C56.045 49.3363 55.4649 49.0818 54.6716 49.0818ZM65.4777 47.803C65.6553 47.803 65.8448 47.8149 66.046 47.8386C66.2592 47.8504 66.4427 47.8741 66.5966 47.9096L66.4012 49.3482C66.2473 49.3126 66.0756 49.283 65.8862 49.2594C65.7086 49.2357 65.5369 49.2238 65.3712 49.2238C64.8857 49.2238 64.4299 49.36 64.0036 49.6323C63.5774 49.8928 63.234 50.2658 62.9736 50.7512C62.7249 51.2248 62.6006 51.7813 62.6006 52.4206V57.5H61.0377V47.9806H62.3164L62.494 49.7211H62.5651C62.8729 49.2002 63.2696 48.7502 63.755 48.3714C64.2404 47.9925 64.8147 47.803 65.4777 47.803ZM74.5505 57.5H72.9876V44.0024H74.5505V57.5ZM78.3655 44.4109C78.6023 44.4109 78.8095 44.4938 78.9871 44.6595C79.1766 44.8134 79.2713 45.0621 79.2713 45.4054C79.2713 45.737 79.1766 45.9856 78.9871 46.1514C78.8095 46.3171 78.6023 46.4 78.3655 46.4C78.105 46.4 77.886 46.3171 77.7084 46.1514C77.5308 45.9856 77.442 45.737 77.442 45.4054C77.442 45.0621 77.5308 44.8134 77.7084 44.6595C77.886 44.4938 78.105 44.4109 78.3655 44.4109ZM79.1292 47.9806V57.5H77.5663V47.9806H79.1292ZM86.7271 47.803C87.8638 47.803 88.7222 48.0813 89.3023 48.6378C89.8825 49.1824 90.1726 50.0704 90.1726 51.3018V57.5H88.6275V51.4083C88.6275 49.881 87.9171 49.1173 86.4963 49.1173C85.4425 49.1173 84.7143 49.4133 84.3118 50.0053C83.9092 50.5973 83.7079 51.4498 83.7079 52.5627V57.5H82.1451V47.9806H83.406L83.6369 49.2771H83.7257C84.0335 48.7798 84.4598 48.4128 85.0044 48.176C85.5491 47.9274 86.1233 47.803 86.7271 47.803ZM94.6688 51.0531C94.6688 51.2426 94.6569 51.4912 94.6333 51.799C94.6214 52.1069 94.6096 52.3733 94.5977 52.5982H94.6688C94.7398 52.5035 94.8464 52.3674 94.9885 52.1898C95.1305 52.0122 95.2726 51.8346 95.4147 51.657C95.5686 51.4675 95.6989 51.3136 95.8054 51.1952L98.8424 47.9806H100.672L96.8177 52.0477L100.938 57.5H99.0555L95.7521 53.06L94.6688 54.0013V57.5H93.1237V44.0024H94.6688V51.0531ZM108.809 54.8715C108.809 55.795 108.466 56.4936 107.779 56.9672C107.092 57.4408 106.169 57.6776 105.008 57.6776C104.345 57.6776 103.771 57.6243 103.286 57.5178C102.812 57.4112 102.392 57.2632 102.025 57.0738V55.653C102.403 55.8424 102.859 56.02 103.392 56.1858C103.937 56.3397 104.487 56.4166 105.044 56.4166C105.837 56.4166 106.411 56.2923 106.767 56.0437C107.122 55.7832 107.299 55.4398 107.299 55.0136C107.299 54.7768 107.234 54.5637 107.104 54.3742C106.974 54.1848 106.737 53.9954 106.394 53.8059C106.062 53.6165 105.583 53.4034 104.955 53.1666C104.339 52.9298 103.812 52.693 103.374 52.4562C102.936 52.2194 102.599 51.9352 102.362 51.6037C102.125 51.2722 102.007 50.8459 102.007 50.325C102.007 49.5198 102.332 48.8982 102.984 48.4602C103.647 48.0221 104.511 47.803 105.577 47.803C106.157 47.803 106.695 47.8622 107.193 47.9806C107.702 48.0872 108.175 48.2411 108.614 48.4424L108.081 49.6856C107.678 49.5198 107.258 49.3778 106.82 49.2594C106.382 49.141 105.932 49.0818 105.47 49.0818C104.831 49.0818 104.339 49.1883 103.996 49.4014C103.664 49.6027 103.499 49.881 103.499 50.2362C103.499 50.4966 103.576 50.7216 103.73 50.911C103.883 51.0886 104.138 51.2662 104.493 51.4438C104.86 51.6096 105.346 51.8109 105.95 52.0477C106.553 52.2726 107.068 52.5035 107.495 52.7403C107.921 52.9771 108.247 53.2672 108.471 53.6106C108.696 53.9421 108.809 54.3624 108.809 54.8715ZM117.285 47.288C117.285 47.6906 117.274 48.0694 117.25 48.4246C117.238 48.768 117.22 49.0403 117.197 49.2416H117.285C117.558 48.839 117.931 48.5016 118.404 48.2293C118.878 47.957 119.488 47.8208 120.234 47.8208C121.418 47.8208 122.365 48.2352 123.075 49.064C123.797 49.881 124.159 51.1064 124.159 52.7403C124.159 54.3742 123.797 55.6056 123.075 56.4344C122.353 57.2632 121.406 57.6776 120.234 57.6776C119.488 57.6776 118.878 57.5414 118.404 57.2691C117.931 56.9968 117.558 56.6712 117.285 56.2923H117.161L116.841 57.5H115.723V44.0024H117.285V47.288ZM119.967 49.1173C118.961 49.1173 118.262 49.4074 117.872 49.9875C117.481 50.5677 117.285 51.4675 117.285 52.687V52.7581C117.285 53.9302 117.475 54.8301 117.854 55.4576C118.244 56.0733 118.961 56.3811 120.003 56.3811C120.855 56.3811 121.489 56.0674 121.903 55.4398C122.329 54.8123 122.542 53.9066 122.542 52.7226C122.542 50.319 121.684 49.1173 119.967 49.1173ZM130.254 47.8208C131.415 47.8208 132.273 48.0754 132.83 48.5845C133.386 49.0936 133.664 49.9046 133.664 51.0176V57.5H132.528L132.226 56.1502H132.155C131.74 56.6712 131.302 57.056 130.84 57.3046C130.391 57.5533 129.763 57.6776 128.958 57.6776C128.094 57.6776 127.377 57.4526 126.809 57.0027C126.241 56.541 125.956 55.8246 125.956 54.8538C125.956 53.9066 126.329 53.1784 127.075 52.6693C127.821 52.1483 128.97 51.8642 130.521 51.8168L132.137 51.7635V51.1952C132.137 50.4019 131.965 49.8514 131.622 49.5435C131.279 49.2357 130.793 49.0818 130.166 49.0818C129.668 49.0818 129.195 49.1587 128.745 49.3126C128.295 49.4547 127.875 49.6205 127.484 49.8099L127.004 48.6378C127.419 48.4128 127.91 48.2234 128.478 48.0694C129.047 47.9037 129.639 47.8208 130.254 47.8208ZM130.716 52.9002C129.532 52.9475 128.709 53.137 128.248 53.4685C127.798 53.8 127.573 54.2677 127.573 54.8715C127.573 55.4043 127.732 55.795 128.052 56.0437C128.384 56.2923 128.804 56.4166 129.313 56.4166C130.118 56.4166 130.787 56.1976 131.32 55.7595C131.853 55.3096 132.119 54.6229 132.119 53.6994V52.8469L130.716 52.9002ZM141.187 47.803C142.323 47.803 143.182 48.0813 143.762 48.6378C144.342 49.1824 144.632 50.0704 144.632 51.3018V57.5H143.087V51.4083C143.087 49.881 142.376 49.1173 140.956 49.1173C139.902 49.1173 139.174 49.4133 138.771 50.0053C138.369 50.5973 138.167 51.4498 138.167 52.5627V57.5H136.604V47.9806H137.865L138.096 49.2771H138.185C138.493 48.7798 138.919 48.4128 139.464 48.176C140.008 47.9274 140.583 47.803 141.187 47.803ZM150.957 57.6776C149.773 57.6776 148.826 57.2691 148.116 56.4522C147.405 55.6234 147.05 54.392 147.05 52.7581C147.05 51.1242 147.405 49.8928 148.116 49.064C148.838 48.2234 149.791 47.803 150.975 47.803C151.709 47.803 152.307 47.9392 152.769 48.2115C153.243 48.4838 153.627 48.8154 153.923 49.2061H154.03C154.018 49.0522 153.994 48.8272 153.959 48.5312C153.935 48.2234 153.923 47.9806 153.923 47.803V44.0024H155.486V57.5H154.225L153.994 56.2213H153.923C153.639 56.6238 153.26 56.9672 152.787 57.2514C152.313 57.5355 151.703 57.6776 150.957 57.6776ZM151.206 56.3811C152.212 56.3811 152.917 56.1088 153.32 55.5642C153.734 55.0077 153.941 54.173 153.941 53.06V52.7758C153.941 51.5918 153.746 50.6861 153.355 50.0586C152.964 49.4192 152.242 49.0995 151.188 49.0995C150.348 49.0995 149.714 49.437 149.288 50.1118C148.874 50.7749 148.666 51.6688 148.666 52.7936C148.666 53.9302 148.874 54.8123 149.288 55.4398C149.714 56.0674 150.354 56.3811 151.206 56.3811Z" fill="black"/>
<rect x="1" y="29.5" width="167" height="42" stroke="#B3800F" stroke-width="2"/>
<path d="M181 50.5H169" stroke="#B3800F" stroke-width="2"/>
<mask id="path-11-inside-1_8891_43299" fill="white">
<path d="M181 0H196V101H181V0Z"/>
</mask>
<path d="M181 0V-2H179V0H181ZM181 101H179V103H181V101ZM181 2H196V-2H181V2ZM196 99H181V103H196V99ZM183 101V0H179V101H183Z" fill="#B3800F" mask="url(#path-11-inside-1_8891_43299)"/>
<g filter="url(#filter0_d_8891_43299)">
<path d="M975.802 79V126" stroke="#B3800F" stroke-width="2"/>
</g>
<path d="M906.345 143.545C904.984 143.545 903.912 144.001 903.131 144.912C902.349 145.824 901.959 147.073 901.959 148.66C901.959 150.234 902.32 151.484 903.042 152.407C903.776 153.319 904.871 153.775 906.328 153.775C906.884 153.775 907.411 153.727 907.908 153.632C908.406 153.538 908.891 153.419 909.365 153.277V154.663C908.891 154.84 908.4 154.97 907.891 155.053C907.393 155.136 906.795 155.178 906.097 155.178C904.806 155.178 903.729 154.911 902.864 154.378C902 153.846 901.349 153.088 900.911 152.105C900.485 151.122 900.272 149.968 900.272 148.642C900.272 147.363 900.502 146.238 900.964 145.268C901.438 144.285 902.13 143.521 903.042 142.976C903.954 142.42 905.061 142.142 906.363 142.142C907.701 142.142 908.867 142.39 909.862 142.888L909.223 144.237C908.832 144.06 908.394 143.9 907.908 143.758C907.435 143.616 906.914 143.545 906.345 143.545ZM915.524 145.321C916.685 145.321 917.543 145.575 918.1 146.084C918.656 146.594 918.934 147.405 918.934 148.518V155H917.798L917.496 153.65H917.425C917.01 154.171 916.572 154.556 916.111 154.805C915.661 155.053 915.033 155.178 914.228 155.178C913.364 155.178 912.647 154.953 912.079 154.503C911.511 154.041 911.227 153.325 911.227 152.354C911.227 151.407 911.599 150.678 912.345 150.169C913.091 149.648 914.24 149.364 915.791 149.317L917.407 149.264V148.695C917.407 147.902 917.235 147.351 916.892 147.044C916.549 146.736 916.063 146.582 915.436 146.582C914.938 146.582 914.465 146.659 914.015 146.813C913.565 146.955 913.145 147.12 912.754 147.31L912.274 146.138C912.689 145.913 913.18 145.723 913.748 145.569C914.317 145.404 914.909 145.321 915.524 145.321ZM915.986 150.4C914.802 150.448 913.979 150.637 913.518 150.968C913.068 151.3 912.843 151.768 912.843 152.372C912.843 152.904 913.003 153.295 913.322 153.544C913.654 153.792 914.074 153.917 914.583 153.917C915.388 153.917 916.057 153.698 916.59 153.26C917.123 152.81 917.389 152.123 917.389 151.199V150.347L915.986 150.4ZM926.457 145.303C927.593 145.303 928.452 145.581 929.032 146.138C929.612 146.682 929.902 147.57 929.902 148.802V155H928.357V148.908C928.357 147.381 927.646 146.617 926.226 146.617C925.172 146.617 924.444 146.913 924.041 147.505C923.639 148.097 923.437 148.95 923.437 150.063V155H921.874V145.481H923.135L923.366 146.777H923.455C923.763 146.28 924.189 145.913 924.734 145.676C925.278 145.427 925.853 145.303 926.457 145.303ZM936.458 145.321C937.619 145.321 938.477 145.575 939.034 146.084C939.59 146.594 939.868 147.405 939.868 148.518V155H938.732L938.43 153.65H938.359C937.944 154.171 937.506 154.556 937.044 154.805C936.595 155.053 935.967 155.178 935.162 155.178C934.298 155.178 933.581 154.953 933.013 154.503C932.445 154.041 932.16 153.325 932.16 152.354C932.16 151.407 932.533 150.678 933.279 150.169C934.025 149.648 935.174 149.364 936.725 149.317L938.341 149.264V148.695C938.341 147.902 938.169 147.351 937.826 147.044C937.483 146.736 936.997 146.582 936.37 146.582C935.872 146.582 935.399 146.659 934.949 146.813C934.499 146.955 934.079 147.12 933.688 147.31L933.208 146.138C933.623 145.913 934.114 145.723 934.682 145.569C935.251 145.404 935.843 145.321 936.458 145.321ZM936.92 150.4C935.736 150.448 934.913 150.637 934.451 150.968C934.002 151.3 933.777 151.768 933.777 152.372C933.777 152.904 933.936 153.295 934.256 153.544C934.588 153.792 935.008 153.917 935.517 153.917C936.322 153.917 936.991 153.698 937.524 153.26C938.057 152.81 938.323 152.123 938.323 151.199V150.347L936.92 150.4ZM946.183 155.178C944.999 155.178 944.052 154.769 943.341 153.952C942.631 153.123 942.276 151.892 942.276 150.258C942.276 148.624 942.631 147.393 943.341 146.564C944.063 145.723 945.017 145.303 946.201 145.303C946.935 145.303 947.533 145.439 947.994 145.712C948.468 145.984 948.853 146.315 949.149 146.706H949.255C949.243 146.552 949.22 146.327 949.184 146.031C949.161 145.723 949.149 145.481 949.149 145.303V141.502H950.712V155H949.451L949.22 153.721H949.149C948.865 154.124 948.486 154.467 948.012 154.751C947.538 155.036 946.929 155.178 946.183 155.178ZM946.431 153.881C947.438 153.881 948.142 153.609 948.545 153.064C948.959 152.508 949.166 151.673 949.166 150.56V150.276C949.166 149.092 948.971 148.186 948.58 147.559C948.19 146.919 947.467 146.6 946.414 146.6C945.573 146.6 944.94 146.937 944.513 147.612C944.099 148.275 943.892 149.169 943.892 150.294C943.892 151.43 944.099 152.312 944.513 152.94C944.94 153.567 945.579 153.881 946.431 153.881ZM957.34 145.321C958.501 145.321 959.359 145.575 959.915 146.084C960.472 146.594 960.75 147.405 960.75 148.518V155H959.614L959.312 153.65H959.241C958.826 154.171 958.388 154.556 957.926 154.805C957.476 155.053 956.849 155.178 956.044 155.178C955.179 155.178 954.463 154.953 953.895 154.503C953.326 154.041 953.042 153.325 953.042 152.354C953.042 151.407 953.415 150.678 954.161 150.169C954.907 149.648 956.056 149.364 957.607 149.317L959.223 149.264V148.695C959.223 147.902 959.051 147.351 958.708 147.044C958.364 146.736 957.879 146.582 957.251 146.582C956.754 146.582 956.281 146.659 955.831 146.813C955.381 146.955 954.96 147.12 954.57 147.31L954.09 146.138C954.505 145.913 954.996 145.723 955.564 145.569C956.133 145.404 956.725 145.321 957.34 145.321ZM957.802 150.4C956.618 150.448 955.795 150.637 955.333 150.968C954.883 151.3 954.658 151.768 954.658 152.372C954.658 152.904 954.818 153.295 955.138 153.544C955.47 153.792 955.89 153.917 956.399 153.917C957.204 153.917 957.873 153.698 958.406 153.26C958.939 152.81 959.205 152.123 959.205 151.199V150.347L957.802 150.4ZM974.449 149.619C974.295 149.133 974.159 148.66 974.04 148.198C973.934 147.724 973.851 147.357 973.792 147.097H973.72C973.673 147.357 973.596 147.724 973.49 148.198C973.383 148.66 973.247 149.139 973.081 149.636L971.376 154.982H969.6L966.989 145.463H968.606L969.92 150.542C970.05 151.051 970.174 151.566 970.293 152.087C970.411 152.608 970.494 153.04 970.541 153.384H970.612C970.66 153.183 970.713 152.934 970.772 152.638C970.843 152.342 970.92 152.034 971.003 151.714C971.086 151.383 971.169 151.087 971.252 150.826L972.939 145.463H974.644L976.278 150.826C976.408 151.229 976.532 151.667 976.651 152.141C976.781 152.614 976.87 153.023 976.917 153.366H976.988C977.024 153.07 977.101 152.662 977.219 152.141C977.349 151.62 977.486 151.087 977.628 150.542L978.96 145.463H980.558L977.912 154.982H976.083L974.449 149.619ZM990.542 150.223C990.542 151.797 990.139 153.017 989.334 153.881C988.541 154.745 987.463 155.178 986.102 155.178C985.261 155.178 984.509 154.988 983.846 154.609C983.195 154.219 982.68 153.656 982.301 152.922C981.922 152.176 981.733 151.276 981.733 150.223C981.733 148.648 982.129 147.434 982.923 146.582C983.716 145.729 984.793 145.303 986.155 145.303C987.019 145.303 987.777 145.498 988.428 145.889C989.091 146.268 989.606 146.824 989.973 147.559C990.352 148.281 990.542 149.169 990.542 150.223ZM983.349 150.223C983.349 151.347 983.568 152.241 984.006 152.904C984.456 153.556 985.166 153.881 986.137 153.881C987.096 153.881 987.801 153.556 988.251 152.904C988.7 152.241 988.925 151.347 988.925 150.223C988.925 149.098 988.7 148.216 988.251 147.576C987.801 146.937 987.09 146.617 986.119 146.617C985.148 146.617 984.444 146.937 984.006 147.576C983.568 148.216 983.349 149.098 983.349 150.223ZM997.459 145.303C997.636 145.303 997.826 145.315 998.027 145.339C998.24 145.35 998.424 145.374 998.577 145.41L998.382 146.848C998.228 146.813 998.056 146.783 997.867 146.759C997.689 146.736 997.518 146.724 997.352 146.724C996.867 146.724 996.411 146.86 995.984 147.132C995.558 147.393 995.215 147.766 994.954 148.251C994.706 148.725 994.581 149.281 994.581 149.921V155H993.019V145.481H994.297L994.475 147.221H994.546C994.854 146.7 995.25 146.25 995.736 145.871C996.221 145.492 996.796 145.303 997.459 145.303ZM1003.38 155.178C1002.2 155.178 1001.25 154.769 1000.54 153.952C999.83 153.123 999.475 151.892 999.475 150.258C999.475 148.624 999.83 147.393 1000.54 146.564C1001.26 145.723 1002.22 145.303 1003.4 145.303C1004.13 145.303 1004.73 145.439 1005.19 145.712C1005.67 145.984 1006.05 146.315 1006.35 146.706H1006.45C1006.44 146.552 1006.42 146.327 1006.38 146.031C1006.36 145.723 1006.35 145.481 1006.35 145.303V141.502H1007.91V155H1006.65L1006.42 153.721H1006.35C1006.06 154.124 1005.69 154.467 1005.21 154.751C1004.74 155.036 1004.13 155.178 1003.38 155.178ZM1003.63 153.881C1004.64 153.881 1005.34 153.609 1005.74 153.064C1006.16 152.508 1006.37 151.673 1006.37 150.56V150.276C1006.37 149.092 1006.17 148.186 1005.78 147.559C1005.39 146.919 1004.67 146.6 1003.61 146.6C1002.77 146.6 1002.14 146.937 1001.71 147.612C1001.3 148.275 1001.09 149.169 1001.09 150.294C1001.09 151.43 1001.3 152.312 1001.71 152.94C1002.14 153.567 1002.78 153.881 1003.63 153.881ZM1021.38 145.303C1022.45 145.303 1023.26 145.581 1023.79 146.138C1024.33 146.682 1024.59 147.57 1024.59 148.802V155H1023.05V148.873C1023.05 147.369 1022.4 146.617 1021.11 146.617C1020.19 146.617 1019.52 146.884 1019.12 147.416C1018.73 147.949 1018.54 148.725 1018.54 149.743V155H1016.99V148.873C1016.99 147.369 1016.34 146.617 1015.04 146.617C1014.08 146.617 1013.42 146.913 1013.05 147.505C1012.68 148.097 1012.5 148.95 1012.5 150.063V155H1010.93V145.481H1012.2L1012.43 146.777H1012.52C1012.81 146.28 1013.21 145.913 1013.71 145.676C1014.21 145.427 1014.75 145.303 1015.32 145.303C1016.81 145.303 1017.78 145.836 1018.23 146.901H1018.32C1018.64 146.357 1019.07 145.954 1019.62 145.694C1020.18 145.433 1020.76 145.303 1021.38 145.303ZM1031.14 145.321C1032.3 145.321 1033.16 145.575 1033.71 146.084C1034.27 146.594 1034.55 147.405 1034.55 148.518V155H1033.41L1033.11 153.65H1033.04C1032.62 154.171 1032.19 154.556 1031.72 154.805C1031.27 155.053 1030.65 155.178 1029.84 155.178C1028.98 155.178 1028.26 154.953 1027.69 154.503C1027.12 154.041 1026.84 153.325 1026.84 152.354C1026.84 151.407 1027.21 150.678 1027.96 150.169C1028.7 149.648 1029.85 149.364 1031.4 149.317L1033.02 149.264V148.695C1033.02 147.902 1032.85 147.351 1032.51 147.044C1032.16 146.736 1031.68 146.582 1031.05 146.582C1030.55 146.582 1030.08 146.659 1029.63 146.813C1029.18 146.955 1028.76 147.12 1028.37 147.31L1027.89 146.138C1028.3 145.913 1028.79 145.723 1029.36 145.569C1029.93 145.404 1030.52 145.321 1031.14 145.321ZM1031.6 150.4C1030.42 150.448 1029.59 150.637 1029.13 150.968C1028.68 151.3 1028.46 151.768 1028.46 152.372C1028.46 152.904 1028.62 153.295 1028.94 153.544C1029.27 153.792 1029.69 153.917 1030.2 153.917C1031 153.917 1031.67 153.698 1032.2 153.26C1032.74 152.81 1033 152.123 1033 151.199V150.347L1031.6 150.4ZM1041.93 145.303C1042.11 145.303 1042.29 145.315 1042.5 145.339C1042.71 145.35 1042.89 145.374 1043.05 145.41L1042.85 146.848C1042.7 146.813 1042.53 146.783 1042.34 146.759C1042.16 146.736 1041.99 146.724 1041.82 146.724C1041.34 146.724 1040.88 146.86 1040.45 147.132C1040.03 147.393 1039.68 147.766 1039.42 148.251C1039.18 148.725 1039.05 149.281 1039.05 149.921V155H1037.49V145.481H1038.77L1038.94 147.221H1039.02C1039.32 146.7 1039.72 146.25 1040.21 145.871C1040.69 145.492 1041.26 145.303 1041.93 145.303ZM1046.37 148.553C1046.37 148.743 1046.36 148.991 1046.33 149.299C1046.32 149.607 1046.31 149.873 1046.3 150.098H1046.37C1046.44 150.004 1046.55 149.867 1046.69 149.69C1046.83 149.512 1046.97 149.335 1047.12 149.157C1047.27 148.968 1047.4 148.814 1047.51 148.695L1050.54 145.481H1052.37L1048.52 149.548L1052.64 155H1050.76L1047.45 150.56L1046.37 151.501V155H1044.82V141.502H1046.37V148.553Z" fill="black"/>
<rect x="884.802" y="127" width="182" height="42" stroke="#B3800F" stroke-width="2"/>
<defs>
<filter id="filter0_d_8891_43299" x="974.802" y="79" width="4" height="47" filterUnits="userSpaceOnUse" color-interpolation-filters="sRGB">
<feFlood flood-opacity="0" result="BackgroundImageFix"/>
<feColorMatrix in="SourceAlpha" type="matrix" values="0 0 0 0 0 0 0 0 0 0 0 0 0 0 0 0 0 0 127 0" result="hardAlpha"/>
<feOffset dx="2"/>
<feComposite in2="hardAlpha" operator="out"/>
<feColorMatrix type="matrix" values="0 0 0 0 1 0 0 0 0 1 0 0 0 0 1 0 0 0 1 0"/>
<feBlend mode="normal" in2="BackgroundImageFix" result="effect1_dropShadow_8891_43299"/>
<feBlend mode="normal" in="SourceGraphic" in2="effect1_dropShadow_8891_43299" result="shape"/>
</filter>
</defs>
</svg>
