<?xml version="1.0" encoding="UTF-8"?>
<svg id="Layer_1" xmlns="http://www.w3.org/2000/svg" xmlns:xlink="http://www.w3.org/1999/xlink" version="1.1" width="454" height="653" viewBox="0 0 454 653">
  <!-- Generator: Adobe Illustrator 29.2.1, SVG Export Plug-In . SVG Version: 2.1.0 Build 116)  -->
  <defs>
    <style>
      .st0 {
        fill: none;
      }

      .st1 {
        mask: url(#mask);
      }

      .st2 {
        fill: #33465c;
      }

      .st3 {
        fill: #2b4380;
      }

      .st4 {
        clip-path: url(#clippath-11);
      }

      .st5 {
        clip-path: url(#clippath-10);
      }

      .st6 {
        clip-path: url(#clippath-1);
      }

      .st7 {
        clip-path: url(#clippath-3);
      }

      .st8 {
        clip-path: url(#clippath-4);
      }

      .st9 {
        clip-path: url(#clippath-2);
      }

      .st10 {
        clip-path: url(#clippath-7);
      }

      .st11 {
        clip-path: url(#clippath-6);
      }

      .st12 {
        clip-path: url(#clippath-9);
      }

      .st13 {
        clip-path: url(#clippath-8);
      }

      .st14 {
        clip-path: url(#clippath-5);
      }

      .st15 {
        fill: #26374a;
      }

      .st16 {
        fill: #fff;
      }

      .st17 {
        fill: #d7e5f5;
      }

      .st18 {
        fill: #c54600;
      }

      .st19 {
        fill: #333;
      }

      .st20 {
        clip-path: url(#clippath);
      }
    </style>
    <mask id="mask" x="46" y="600.9" width="324" height="52" maskUnits="userSpaceOnUse">
      <g id="path-16-inside-1_6137_35304">
        <path class="st16" d="M50,600.9h320v52H50v-52Z"/>
      </g>
    </mask>
    <clipPath id="clippath">
      <rect class="st0" x="370" y="613.9" width="84" height="24"/>
    </clipPath>
    <clipPath id="clippath-1">
      <path class="st0" d="M442,613.9h0c6.6,0,12,5.4,12,12s-5.4,12-12,12-12-5.4-12-12,5.4-12,12-12Z"/>
    </clipPath>
    <clipPath id="clippath-2">
      <rect class="st0" y="554.9" width="92" height="24"/>
    </clipPath>
    <clipPath id="clippath-3">
      <path class="st0" d="M12,554.9h0c6.6,0,12,5.4,12,12s-5.4,12-12,12-12-5.4-12-12,5.4-12,12-12Z"/>
    </clipPath>
    <clipPath id="clippath-4">
      <rect class="st0" x="300" y="314.9" width="75" height="24"/>
    </clipPath>
    <clipPath id="clippath-5">
      <path class="st0" d="M363,314.9h0c6.6,0,12,5.4,12,12s-5.4,12-12,12-12-5.4-12-12,5.4-12,12-12Z"/>
    </clipPath>
    <clipPath id="clippath-6">
      <rect class="st0" y="314.9" width="53" height="200"/>
    </clipPath>
    <clipPath id="clippath-7">
      <path class="st0" d="M12,402.9h0c6.6,0,12,5.4,12,12s-5.4,12-12,12-12-5.4-12-12,5.4-12,12-12Z"/>
    </clipPath>
    <clipPath id="clippath-8">
      <rect class="st0" y="78.9" width="87.4" height="24"/>
    </clipPath>
    <clipPath id="clippath-9">
      <path class="st0" d="M12,78.9h0c6.6,0,12,5.4,12,12s-5.4,12-12,12S0,97.5,0,90.9s5.4-12,12-12Z"/>
    </clipPath>
    <clipPath id="clippath-10">
      <rect class="st0" y="11.9" width="50" height="24"/>
    </clipPath>
    <clipPath id="clippath-11">
      <path class="st0" d="M12,11.9h0c6.6,0,12,5.4,12,12s-5.4,12-12,12S0,30.5,0,23.9s5.4-12,12-12Z"/>
    </clipPath>
  </defs>
  <path d="M78.1,33.2v2.7h-10.2v-17.4h3.2v14.7h6.9ZM86.4,30.6c-.9,0-1.6.1-2.2.2-.6.1-1.1.2-1.4.4-.4.2-.6.4-.8.6s-.2.5-.2.7c0,.5.2.9.5,1.1.3.2.7.3,1.2.3s1.1-.1,1.6-.3c.4-.2.9-.6,1.3-1v-2.1ZM79.6,25.3c1.4-1.3,3.1-1.9,5.1-1.9s1.4.1,1.9.4c.6.2,1,.6,1.4,1,.4.4.7.9.9,1.5.2.6.3,1.2.3,1.9v7.8h-1.3c-.3,0-.5,0-.6-.1-.2,0-.3-.3-.4-.5l-.3-.9c-.3.3-.6.5-.9.7-.3.2-.6.4-.9.5-.3.1-.7.3-1,.3-.4,0-.8.1-1.2.1s-1,0-1.4-.2c-.4-.1-.8-.4-1.1-.6-.3-.3-.6-.6-.7-1s-.3-.9-.3-1.5,0-.6.2-.9c.1-.3.3-.6.5-.9.2-.3.5-.5.9-.8.4-.2.8-.5,1.4-.6.6-.2,1.2-.3,1.9-.4.7-.1,1.6-.2,2.5-.2v-.7c0-.8-.2-1.4-.5-1.8-.4-.4-.9-.6-1.5-.6s-.9,0-1.2.2c-.3.1-.6.2-.8.4-.2.1-.5.3-.7.4-.2.1-.4.2-.6.2s-.4,0-.5-.2c-.1-.1-.3-.2-.3-.4l-.5-.9ZM95.1,32.7c.3.4.7.7,1.1.9.4.2.8.3,1.3.3s.9,0,1.2-.2c.4-.2.7-.4.9-.8.3-.4.5-.8.6-1.3.1-.5.2-1.2.2-1.9,0-1.4-.2-2.3-.7-2.9-.4-.6-1.1-.9-1.9-.9s-1.1.1-1.5.4c-.4.3-.8.6-1.2,1.1v5.5ZM95.1,25.1c.5-.5,1-.9,1.6-1.2.6-.3,1.3-.5,2.1-.5s1.4.1,1.9.4c.6.3,1.1.7,1.5,1.2.4.5.7,1.2.9,1.9.2.7.3,1.6.3,2.5s-.1,1.9-.4,2.7c-.2.8-.6,1.5-1.1,2.1-.5.6-1,1-1.7,1.3-.6.3-1.4.5-2.2.5s-.7,0-1-.1c-.3,0-.6-.2-.9-.3-.3-.1-.5-.3-.7-.5-.2-.2-.4-.4-.6-.7v.8c-.2.2-.3.4-.4.4-.1,0-.3.1-.5.1h-2v-17.8h3v7ZM113.7,28.3c0-.4,0-.7-.2-1.1-.1-.3-.3-.6-.5-.9-.2-.3-.5-.5-.8-.6-.3-.2-.7-.2-1.2-.2-.9,0-1.5.2-2,.7-.5.5-.8,1.2-.9,2.1h5.6ZM108,30.1c0,.6.2,1.2.3,1.6.2.5.4.8.7,1.1.3.3.6.5,1,.7.4.1.8.2,1.3.2s.9,0,1.2-.2c.4-.1.7-.2.9-.4.3-.1.5-.3.7-.4.2-.1.4-.2.6-.2s.4,0,.6.3l.9,1.1c-.3.4-.7.7-1.1,1-.4.3-.8.5-1.3.6-.4.2-.9.3-1.4.3-.5,0-.9,0-1.3,0-.9,0-1.7-.1-2.4-.4-.7-.3-1.4-.7-1.9-1.3-.5-.6-1-1.2-1.3-2.1-.3-.8-.5-1.8-.5-2.9s.1-1.6.4-2.4c.3-.7.7-1.4,1.2-1.9.5-.6,1.1-1,1.9-1.3.7-.3,1.6-.5,2.5-.5s1.5.1,2.1.4c.7.2,1.2.6,1.7,1.1.5.5.8,1.1,1.1,1.8.3.7.4,1.5.4,2.4s0,.8-.1.9c0,.2-.3.2-.6.2h-7.6ZM121.6,18.1v17.8h-3v-17.8h3Z"/>
  <path class="st3" d="M117.3,94.9h-2.1l-7.6-11.9h0c0,.5,0,1,0,1.7,0,.7,0,1.4,0,2.1v8h-1.7v-14.3h2.1l7.6,11.8h0c0-.2,0-.5,0-1,0-.4,0-.9,0-1.4,0-.5,0-1,0-1.4v-8.1h1.7v14.3ZM125,84c1.3,0,2.3.3,2.9.9.6.6.9,1.5.9,2.7v7.3h-1.3l-.3-1.5h0c-.5.6-1,1-1.5,1.3-.5.3-1.2.4-2.1.4s-1.8-.3-2.4-.8c-.6-.5-1-1.3-1-2.4s.4-1.9,1.3-2.5c.8-.6,2.1-.9,3.9-1h1.8v-.7c0-.9-.2-1.5-.6-1.9-.4-.3-.9-.5-1.6-.5s-1.1,0-1.6.3c-.5.2-1,.3-1.4.6l-.5-1.3c.5-.3,1-.5,1.7-.6.6-.2,1.3-.3,2-.3ZM125.5,89.7c-1.3,0-2.3.3-2.8.6-.5.4-.8.9-.8,1.6s.2,1,.5,1.3c.4.3.8.4,1.4.4.9,0,1.7-.2,2.3-.7.6-.5.9-1.3.9-2.3v-1h-1.6ZM134.5,94.9l-4.1-10.7h1.9l2.3,6.3c.1.3.2.6.3,1,.1.4.2.7.3,1,0,.3.2.6.2.8h0c0-.2.1-.5.2-.8.1-.3.2-.7.3-1,.1-.4.2-.7.3-1l2.3-6.3h1.9l-4.1,10.7h-2ZM149.2,94.9h-1.8v-15.2h1.8v15.2ZM153.5,80.1c.3,0,.5,0,.7.3.2.2.3.5.3.8s-.1.7-.3.8c-.2.2-.4.3-.7.3s-.5,0-.7-.3c-.2-.2-.3-.5-.3-.8s.1-.7.3-.8c.2-.2.4-.3.7-.3ZM154.4,84.2v10.7h-1.8v-10.7h1.8ZM162.9,84c1.3,0,2.2.3,2.9.9.7.6,1,1.6,1,3v7h-1.7v-6.9c0-1.7-.8-2.6-2.4-2.6s-2,.3-2.5,1c-.5.7-.7,1.6-.7,2.9v5.6h-1.8v-10.7h1.4l.3,1.5h.1c.3-.6.8-1,1.4-1.2.6-.3,1.3-.4,1.9-.4ZM171.9,87.6c0,.2,0,.5,0,.8,0,.3,0,.6,0,.9h0c0-.1.2-.3.4-.5.2-.2.3-.4.5-.6.2-.2.3-.4.4-.5l3.4-3.6h2.1l-4.3,4.6,4.6,6.1h-2.1l-3.7-5-1.2,1.1v3.9h-1.7v-15.2h1.7v7.9Z"/>
  <path class="st3" d="M104,98.5h75.1v.8h-75.1v-.8Z"/>
  <path class="st15" d="M82,148.6l6.5-6.5,1.5,1.5-8,8-8-8,1.5-1.5,6.5,6.5Z"/>
  <path class="st19" d="M120,154.9h-3.2l-6.8-11.2h0c0,.6,0,1.2,0,1.9,0,.7,0,1.4.1,2.1v7.2h-2.3v-14.3h3.2l6.7,11.1h0c0-.5,0-1.1,0-1.8,0-.7,0-1.4,0-2v-7.3h2.3v14.3ZM127.8,143.8c1.4,0,2.5.3,3.2.9.7.6,1.1,1.6,1.1,2.8v7.3h-1.8l-.5-1.5h0c-.5.6-1,1-1.5,1.3-.5.3-1.2.4-2.1.4s-1.8-.3-2.4-.8c-.6-.5-1-1.4-1-2.5s.4-2,1.2-2.5c.8-.6,2.1-.9,3.7-.9h1.9v-.6c0-.7-.2-1.2-.5-1.5-.3-.3-.8-.4-1.4-.4s-1.1,0-1.6.2c-.5.1-1,.3-1.5.6l-.8-1.8c.5-.3,1.1-.5,1.8-.7.7-.2,1.4-.3,2.2-.3ZM129.6,149.8h-1.3c-1.1,0-1.9.3-2.3.6-.4.3-.6.8-.6,1.4s.1.9.4,1.1c.3.2.7.3,1.2.3.7,0,1.4-.2,1.9-.6.5-.4.8-1.1.8-1.9v-.9ZM137.7,154.9l-4.1-10.8h2.7l2.2,6.3c.1.4.3.8.4,1.3.1.5.2.9.2,1.2h0c0-.3.1-.7.2-1.2.1-.5.2-.9.4-1.3l2.2-6.3h2.7l-4.1,10.8h-2.7ZM155,143.8c1.4,0,2.5.5,3.2,1.6h0l.2-1.4h2.1v10.9c0,1.5-.4,2.7-1.3,3.5-.9.8-2.2,1.2-3.9,1.2s-1.5,0-2.1-.2c-.7,0-1.3-.3-1.9-.5v-2.1c.6.3,1.3.5,2,.6.7.1,1.4.2,2.2.2s1.4-.2,1.9-.7c.4-.5.7-1.1.7-2v-.3c0-.2,0-.4,0-.7,0-.3,0-.5,0-.6h0c-.4.6-.8,1-1.4,1.2-.5.3-1.1.4-1.8.4-1.3,0-2.4-.5-3.1-1.5-.7-1-1.1-2.4-1.1-4.1s.4-3.1,1.1-4.1c.8-1,1.8-1.5,3.2-1.5ZM155.6,145.9c-1.6,0-2.4,1.2-2.4,3.6s.8,3.6,2.4,3.6,1.5-.2,1.9-.7c.4-.5.6-1.3.6-2.5v-.4c0-1.3-.2-2.2-.6-2.8-.4-.6-1.1-.8-2-.8ZM169.6,143.8c.2,0,.4,0,.6,0,.2,0,.4,0,.5,0l-.2,2.3c-.1,0-.3,0-.5,0-.2,0-.3,0-.5,0-.5,0-1,.1-1.5.3-.5.2-.8.5-1.1,1-.3.5-.4,1-.4,1.7v5.6h-2.5v-10.8h1.9l.4,1.9h.1c.3-.6.8-1.1,1.3-1.5.6-.4,1.2-.6,1.9-.6ZM181.9,149.4c0,1.8-.5,3.2-1.4,4.2-.9,1-2.2,1.5-3.8,1.5s-1.9-.2-2.6-.7c-.8-.4-1.4-1.1-1.8-1.9-.4-.8-.7-1.9-.7-3.1,0-1.8.5-3.2,1.4-4.1.9-1,2.2-1.5,3.8-1.5s1.9.2,2.7.7c.8.4,1.4,1.1,1.8,1.9.4.8.7,1.8.7,3ZM174.2,149.4c0,1.1.2,2,.6,2.7.4.6,1.1.9,2,.9s1.5-.3,2-.9c.4-.6.6-1.5.6-2.7s-.2-2-.6-2.6c-.4-.6-1.1-.9-2-.9s-1.6.3-2,.9c-.4.6-.6,1.5-.6,2.6ZM194.2,144v10.8h-2l-.3-1.4h-.1c-.3.6-.8,1-1.4,1.2-.6.3-1.3.4-1.9.4-1.2,0-2.2-.3-2.9-.9-.7-.6-1-1.6-1-3v-7.1h2.5v6.6c0,.8.2,1.4.5,1.8.3.4.8.6,1.5.6,1,0,1.7-.3,2.1-1,.4-.6.6-1.6.6-2.7v-5.3h2.5ZM203.1,143.8c1.3,0,2.3.5,3.1,1.4.8.9,1.2,2.3,1.2,4.2s-.4,3.3-1.2,4.2c-.8.9-1.8,1.4-3.1,1.4s-1.4-.1-1.9-.4c-.5-.3-.9-.6-1.2-1h-.2c0,.3,0,.5,0,.8,0,.3,0,.6,0,.8v4.4h-2.5v-15.6h2l.4,1.4h.1c.3-.5.7-.8,1.2-1.2.5-.3,1.2-.5,2-.5ZM202.4,145.9c-.9,0-1.5.3-1.9.8-.4.5-.5,1.3-.6,2.4v.3c0,1.2.2,2.1.5,2.7.4.6,1,.9,2,.9s1.4-.3,1.7-1c.4-.7.6-1.5.6-2.7s-.2-2-.6-2.6c-.4-.6-1-.9-1.8-.9ZM217.6,154.9h-2.5v-15.2h2.5v15.2ZM225.2,143.8c1.4,0,2.5.3,3.2.9.7.6,1.1,1.6,1.1,2.8v7.3h-1.8l-.5-1.5h0c-.5.6-1,1-1.5,1.3-.5.3-1.2.4-2.1.4s-1.8-.3-2.4-.8c-.6-.5-1-1.4-1-2.5s.4-2,1.2-2.5c.8-.6,2.1-.9,3.7-.9h1.9v-.6c0-.7-.2-1.2-.5-1.5-.3-.3-.8-.4-1.4-.4s-1.1,0-1.6.2c-.5.1-1,.3-1.5.6l-.8-1.8c.5-.3,1.1-.5,1.8-.7.7-.2,1.4-.3,2.2-.3ZM226.9,149.8h-1.3c-1.1,0-1.9.3-2.3.6-.4.3-.6.8-.6,1.4s.1.9.4,1.1c.3.2.7.3,1.2.3.7,0,1.4-.2,1.9-.6.5-.4.8-1.1.8-1.9v-.9ZM235.1,139.7v3.6c0,.4,0,.8,0,1.2,0,.4,0,.7,0,.9h.1c.3-.5.7-.8,1.2-1.1.5-.3,1.2-.5,2-.5,1.3,0,2.3.5,3,1.4.8.9,1.2,2.3,1.2,4.2s-.4,3.3-1.2,4.2c-.8.9-1.8,1.4-3.1,1.4s-1.5-.1-2-.4c-.5-.3-.9-.6-1.2-1h-.2l-.5,1.3h-1.9v-15.2h2.5ZM237.6,145.9c-.9,0-1.5.3-1.9.8-.4.5-.5,1.4-.6,2.5v.2c0,1.2.2,2,.5,2.7.4.6,1,.9,2,.9s1.3-.3,1.7-.9c.4-.6.6-1.5.6-2.7s-.2-2.1-.6-2.7c-.4-.6-1-.9-1.7-.9ZM249.5,143.8c1.5,0,2.6.4,3.4,1.3.9.9,1.3,2.1,1.3,3.6v1.3h-7.2c0,1,.3,1.8.8,2.3.5.5,1.2.8,2.2.8s1.3,0,1.9-.2c.6-.1,1.1-.4,1.7-.6v2c-.5.3-1.1.4-1.7.6-.6.1-1.3.2-2.1.2s-2-.2-2.8-.6c-.8-.4-1.5-1-1.9-1.8-.5-.8-.7-1.9-.7-3.1,0-1.9.5-3.3,1.4-4.2.9-1,2.1-1.5,3.6-1.5ZM249.5,145.7c-.7,0-1.2.2-1.7.7-.4.4-.7,1.1-.7,1.9h4.7c0-.7-.2-1.4-.6-1.8-.4-.5-.9-.7-1.7-.7ZM259.3,154.9h-2.5v-15.2h2.5v15.2Z"/>
  <path class="st15" d="M82,205.1l-6.5,6.5-1.5-1.5,8-8,8,8-1.5,1.5-6.5-6.5Z"/>
  <path class="st19" d="M120,214.9h-3.2l-6.8-11.2h0c0,.6,0,1.2,0,1.9,0,.7,0,1.4.1,2.1v7.2h-2.3v-14.3h3.2l6.7,11.1h0c0-.5,0-1.1,0-1.8,0-.7,0-1.4,0-2v-7.3h2.3v14.3ZM127.8,203.8c1.4,0,2.5.3,3.2.9.7.6,1.1,1.6,1.1,2.8v7.3h-1.8l-.5-1.5h0c-.5.6-1,1-1.5,1.3-.5.3-1.2.4-2.1.4s-1.8-.3-2.4-.8c-.6-.5-1-1.4-1-2.5s.4-2,1.2-2.5c.8-.6,2.1-.9,3.7-.9h1.9v-.6c0-.7-.2-1.2-.5-1.5-.3-.3-.8-.4-1.4-.4s-1.1,0-1.6.2c-.5.1-1,.3-1.5.6l-.8-1.8c.5-.3,1.1-.5,1.8-.7.7-.2,1.4-.3,2.2-.3ZM129.6,209.8h-1.3c-1.1,0-1.9.3-2.3.6-.4.3-.6.8-.6,1.4s.1.9.4,1.1c.3.2.7.3,1.2.3.7,0,1.4-.2,1.9-.6.5-.4.8-1.1.8-1.9v-.9ZM137.7,214.9l-4.1-10.8h2.7l2.2,6.3c.1.4.3.8.4,1.3.1.5.2.9.2,1.2h0c0-.3.1-.7.2-1.2.1-.5.2-.9.4-1.3l2.2-6.3h2.7l-4.1,10.8h-2.7ZM155,203.8c1.4,0,2.5.5,3.2,1.6h0l.2-1.4h2.1v10.9c0,1.5-.4,2.7-1.3,3.5-.9.8-2.2,1.2-3.9,1.2s-1.5,0-2.1-.2c-.7,0-1.3-.3-1.9-.5v-2.1c.6.3,1.3.5,2,.6.7.1,1.4.2,2.2.2s1.4-.2,1.9-.7c.4-.5.7-1.1.7-2v-.3c0-.2,0-.4,0-.7,0-.3,0-.5,0-.6h0c-.4.6-.8,1-1.4,1.2-.5.3-1.1.4-1.8.4-1.3,0-2.4-.5-3.1-1.5-.7-1-1.1-2.4-1.1-4.1s.4-3.1,1.1-4.1c.8-1,1.8-1.5,3.2-1.5ZM155.6,205.9c-1.6,0-2.4,1.2-2.4,3.6s.8,3.6,2.4,3.6,1.5-.2,1.9-.7c.4-.5.6-1.3.6-2.5v-.4c0-1.3-.2-2.2-.6-2.8-.4-.6-1.1-.8-2-.8ZM169.6,203.8c.2,0,.4,0,.6,0,.2,0,.4,0,.5,0l-.2,2.3c-.1,0-.3,0-.5,0-.2,0-.3,0-.5,0-.5,0-1,.1-1.5.3-.5.2-.8.5-1.1,1-.3.5-.4,1-.4,1.7v5.6h-2.5v-10.8h1.9l.4,1.9h.1c.3-.6.8-1.1,1.3-1.5.6-.4,1.2-.6,1.9-.6ZM181.9,209.4c0,1.8-.5,3.2-1.4,4.2-.9,1-2.2,1.5-3.8,1.5s-1.9-.2-2.6-.7c-.8-.4-1.4-1.1-1.8-1.9-.4-.8-.7-1.9-.7-3.1,0-1.8.5-3.2,1.4-4.1.9-1,2.2-1.5,3.8-1.5s1.9.2,2.7.7c.8.4,1.4,1.1,1.8,1.9.4.8.7,1.8.7,3ZM174.2,209.4c0,1.1.2,2,.6,2.7.4.6,1.1.9,2,.9s1.5-.3,2-.9c.4-.6.6-1.5.6-2.7s-.2-2-.6-2.6c-.4-.6-1.1-.9-2-.9s-1.6.3-2,.9c-.4.6-.6,1.5-.6,2.6ZM194.2,204v10.8h-2l-.3-1.4h-.1c-.3.6-.8,1-1.4,1.2-.6.3-1.3.4-1.9.4-1.2,0-2.2-.3-2.9-.9-.7-.6-1-1.6-1-3v-7.1h2.5v6.6c0,.8.2,1.4.5,1.8.3.4.8.6,1.5.6,1,0,1.7-.3,2.1-1,.4-.6.6-1.6.6-2.7v-5.3h2.5ZM203.1,203.8c1.3,0,2.3.5,3.1,1.4.8.9,1.2,2.3,1.2,4.2s-.4,3.3-1.2,4.2c-.8.9-1.8,1.4-3.1,1.4s-1.4-.1-1.9-.4c-.5-.3-.9-.6-1.2-1h-.2c0,.3,0,.5,0,.8,0,.3,0,.6,0,.8v4.4h-2.5v-15.6h2l.4,1.4h.1c.3-.5.7-.8,1.2-1.2.5-.3,1.2-.5,2-.5ZM202.4,205.9c-.9,0-1.5.3-1.9.8-.4.5-.5,1.3-.6,2.4v.3c0,1.2.2,2.1.5,2.7.4.6,1,.9,2,.9s1.4-.3,1.7-1c.4-.7.6-1.5.6-2.7s-.2-2-.6-2.6c-.4-.6-1-.9-1.8-.9ZM217.6,214.9h-2.5v-15.2h2.5v15.2ZM225.2,203.8c1.4,0,2.5.3,3.2.9.7.6,1.1,1.6,1.1,2.8v7.3h-1.8l-.5-1.5h0c-.5.6-1,1-1.5,1.3-.5.3-1.2.4-2.1.4s-1.8-.3-2.4-.8c-.6-.5-1-1.4-1-2.5s.4-2,1.2-2.5c.8-.6,2.1-.9,3.7-.9h1.9v-.6c0-.7-.2-1.2-.5-1.5-.3-.3-.8-.4-1.4-.4s-1.1,0-1.6.2c-.5.1-1,.3-1.5.6l-.8-1.8c.5-.3,1.1-.5,1.8-.7.7-.2,1.4-.3,2.2-.3ZM226.9,209.8h-1.3c-1.1,0-1.9.3-2.3.6-.4.3-.6.8-.6,1.4s.1.9.4,1.1c.3.2.7.3,1.2.3.7,0,1.4-.2,1.9-.6.5-.4.8-1.1.8-1.9v-.9ZM235.1,199.7v3.6c0,.4,0,.8,0,1.2,0,.4,0,.7,0,.9h.1c.3-.5.7-.8,1.2-1.1.5-.3,1.2-.5,2-.5,1.3,0,2.3.5,3,1.4.8.9,1.2,2.3,1.2,4.2s-.4,3.3-1.2,4.2c-.8.9-1.8,1.4-3.1,1.4s-1.5-.1-2-.4c-.5-.3-.9-.6-1.2-1h-.2l-.5,1.3h-1.9v-15.2h2.5ZM237.6,205.9c-.9,0-1.5.3-1.9.8-.4.5-.5,1.4-.6,2.5v.2c0,1.2.2,2,.5,2.7.4.6,1,.9,2,.9s1.3-.3,1.7-.9c.4-.6.6-1.5.6-2.7s-.2-2.1-.6-2.7c-.4-.6-1-.9-1.7-.9ZM249.5,203.8c1.5,0,2.6.4,3.4,1.3.9.9,1.3,2.1,1.3,3.6v1.3h-7.2c0,1,.3,1.8.8,2.3.5.5,1.2.8,2.2.8s1.3,0,1.9-.2c.6-.1,1.1-.4,1.7-.6v2c-.5.3-1.1.4-1.7.6-.6.1-1.3.2-2.1.2s-2-.2-2.8-.6c-.8-.4-1.5-1-1.9-1.8-.5-.8-.7-1.9-.7-3.1,0-1.9.5-3.3,1.4-4.2.9-1,2.1-1.5,3.6-1.5ZM249.5,205.7c-.7,0-1.2.2-1.7.7-.4.4-.7,1.1-.7,1.9h4.7c0-.7-.2-1.4-.6-1.8-.4-.5-.9-.7-1.7-.7ZM259.3,214.9h-2.5v-15.2h2.5v15.2Z"/>
  <path d="M114,268.6l6.5-6.5,1.5,1.5-8,8-8-8,1.5-1.5,6.5,6.5Z"/>
  <path class="st19" d="M148,274.9h-3.2l-6.8-11.2h0c0,.6,0,1.2,0,1.9,0,.7,0,1.4.1,2.1v7.2h-2.3v-14.3h3.2l6.7,11.1h0c0-.5,0-1.1,0-1.8,0-.7,0-1.4,0-2v-7.3h2.3v14.3ZM155.8,263.8c1.4,0,2.5.3,3.2.9.7.6,1.1,1.6,1.1,2.8v7.3h-1.8l-.5-1.5h0c-.5.6-1,1-1.5,1.3-.5.3-1.2.4-2.1.4s-1.8-.3-2.4-.8c-.6-.5-1-1.4-1-2.5s.4-2,1.2-2.5c.8-.6,2.1-.9,3.7-.9h1.9v-.6c0-.7-.2-1.2-.5-1.5-.3-.3-.8-.4-1.4-.4s-1.1,0-1.6.2c-.5.1-1,.3-1.5.6l-.8-1.8c.5-.3,1.1-.5,1.8-.7.7-.2,1.4-.3,2.2-.3ZM157.6,269.8h-1.3c-1.1,0-1.9.3-2.3.6-.4.3-.6.8-.6,1.4s.1.9.4,1.1c.3.2.7.3,1.2.3.7,0,1.4-.2,1.9-.6.5-.4.8-1.1.8-1.9v-.9ZM165.7,274.9l-4.1-10.8h2.7l2.2,6.3c.1.4.3.8.4,1.3.1.5.2.9.2,1.2h0c0-.3.1-.7.2-1.2.1-.5.2-.9.4-1.3l2.2-6.3h2.7l-4.1,10.8h-2.7ZM183,263.8c1.4,0,2.5.5,3.2,1.6h0l.2-1.4h2.1v10.9c0,1.5-.4,2.7-1.3,3.5-.9.8-2.2,1.2-3.9,1.2s-1.5,0-2.1-.2c-.7,0-1.3-.3-1.9-.5v-2.1c.6.3,1.3.5,2,.6.7.1,1.4.2,2.2.2s1.4-.2,1.9-.7c.4-.5.7-1.1.7-2v-.3c0-.2,0-.4,0-.7,0-.3,0-.5,0-.6h0c-.4.6-.8,1-1.4,1.2-.5.3-1.1.4-1.8.4-1.3,0-2.4-.5-3.1-1.5-.7-1-1.1-2.4-1.1-4.1s.4-3.1,1.1-4.1c.8-1,1.8-1.5,3.2-1.5ZM183.6,265.9c-1.6,0-2.4,1.2-2.4,3.6s.8,3.6,2.4,3.6,1.5-.2,1.9-.7c.4-.5.6-1.3.6-2.5v-.4c0-1.3-.2-2.2-.6-2.8-.4-.6-1.1-.8-2-.8ZM197.6,263.8c.2,0,.4,0,.6,0,.2,0,.4,0,.5,0l-.2,2.3c-.1,0-.3,0-.5,0-.2,0-.3,0-.5,0-.5,0-1,.1-1.5.3-.5.2-.8.5-1.1,1-.3.5-.4,1-.4,1.7v5.6h-2.5v-10.8h1.9l.4,1.9h.1c.3-.6.8-1.1,1.3-1.5.6-.4,1.2-.6,1.9-.6ZM209.9,269.4c0,1.8-.5,3.2-1.4,4.2-.9,1-2.2,1.5-3.8,1.5s-1.9-.2-2.6-.7c-.8-.4-1.4-1.1-1.8-1.9-.4-.8-.7-1.9-.7-3.1,0-1.8.5-3.2,1.4-4.1.9-1,2.2-1.5,3.8-1.5s1.9.2,2.7.7c.8.4,1.4,1.1,1.8,1.9.4.8.7,1.8.7,3ZM202.2,269.4c0,1.1.2,2,.6,2.7.4.6,1.1.9,2,.9s1.5-.3,2-.9c.4-.6.6-1.5.6-2.7s-.2-2-.6-2.6c-.4-.6-1.1-.9-2-.9s-1.6.3-2,.9c-.4.6-.6,1.5-.6,2.6ZM222.2,264v10.8h-2l-.3-1.4h-.1c-.3.6-.8,1-1.4,1.2-.6.3-1.3.4-1.9.4-1.2,0-2.2-.3-2.9-.9-.7-.6-1-1.6-1-3v-7.1h2.5v6.6c0,.8.2,1.4.5,1.8.3.4.8.6,1.5.6,1,0,1.7-.3,2.1-1,.4-.6.6-1.6.6-2.7v-5.3h2.5ZM231.1,263.8c1.3,0,2.3.5,3.1,1.4.8.9,1.2,2.3,1.2,4.2s-.4,3.3-1.2,4.2c-.8.9-1.8,1.4-3.1,1.4s-1.4-.1-1.9-.4c-.5-.3-.9-.6-1.2-1h-.2c0,.3,0,.5,0,.8,0,.3,0,.6,0,.8v4.4h-2.5v-15.6h2l.4,1.4h.1c.3-.5.7-.8,1.2-1.2.5-.3,1.2-.5,2-.5ZM230.4,265.9c-.9,0-1.5.3-1.9.8-.4.5-.5,1.3-.6,2.4v.3c0,1.2.2,2.1.5,2.7.4.6,1,.9,2,.9s1.4-.3,1.7-1c.4-.7.6-1.5.6-2.7s-.2-2-.6-2.6c-.4-.6-1-.9-1.8-.9ZM245.6,274.9h-2.5v-15.2h2.5v15.2ZM253.2,263.8c1.4,0,2.5.3,3.2.9.7.6,1.1,1.6,1.1,2.8v7.3h-1.8l-.5-1.5h0c-.5.6-1,1-1.5,1.3-.5.3-1.2.4-2.1.4s-1.8-.3-2.4-.8c-.6-.5-1-1.4-1-2.5s.4-2,1.2-2.5c.8-.6,2.1-.9,3.7-.9h1.9v-.6c0-.7-.2-1.2-.5-1.5-.3-.3-.8-.4-1.4-.4s-1.1,0-1.6.2c-.5.1-1,.3-1.5.6l-.8-1.8c.5-.3,1.1-.5,1.8-.7.7-.2,1.4-.3,2.2-.3ZM254.9,269.8h-1.3c-1.1,0-1.9.3-2.3.6-.4.3-.6.8-.6,1.4s.1.9.4,1.1c.3.2.7.3,1.2.3.7,0,1.4-.2,1.9-.6.5-.4.8-1.1.8-1.9v-.9ZM263.1,259.7v3.6c0,.4,0,.8,0,1.2,0,.4,0,.7,0,.9h.1c.3-.5.7-.8,1.2-1.1.5-.3,1.2-.5,2-.5,1.3,0,2.3.5,3,1.4.8.9,1.2,2.3,1.2,4.2s-.4,3.3-1.2,4.2c-.8.9-1.8,1.4-3.1,1.4s-1.5-.1-2-.4c-.5-.3-.9-.6-1.2-1h-.2l-.5,1.3h-1.9v-15.2h2.5ZM265.6,265.9c-.9,0-1.5.3-1.9.8-.4.5-.5,1.4-.6,2.5v.2c0,1.2.2,2,.5,2.7.4.6,1,.9,2,.9s1.3-.3,1.7-.9c.4-.6.6-1.5.6-2.7s-.2-2.1-.6-2.7c-.4-.6-1-.9-1.7-.9ZM277.5,263.8c1.5,0,2.6.4,3.4,1.3.9.9,1.3,2.1,1.3,3.6v1.3h-7.2c0,1,.3,1.8.8,2.3.5.5,1.2.8,2.2.8s1.3,0,1.9-.2c.6-.1,1.1-.4,1.7-.6v2c-.5.3-1.1.4-1.7.6s-1.3.2-2.1.2-2-.2-2.8-.6c-.8-.4-1.5-1-1.9-1.8-.5-.8-.7-1.9-.7-3.1,0-1.9.5-3.3,1.4-4.2.9-1,2.1-1.5,3.6-1.5ZM277.5,265.7c-.7,0-1.2.2-1.7.7-.4.4-.7,1.1-.7,1.9h4.7c0-.7-.2-1.4-.6-1.8-.4-.5-.9-.7-1.7-.7ZM287.3,274.9h-2.5v-15.2h2.5v15.2Z"/>
  <path d="M114,325.1l-6.5,6.5-1.5-1.5,8-8,8,8-1.5,1.5-6.5-6.5Z"/>
  <path class="st19" d="M148,334.9h-3.2l-6.8-11.2h0c0,.6,0,1.2,0,1.9,0,.7,0,1.4.1,2.1v7.2h-2.3v-14.3h3.2l6.7,11.1h0c0-.5,0-1.1,0-1.8,0-.7,0-1.4,0-2v-7.3h2.3v14.3ZM155.8,323.8c1.4,0,2.5.3,3.2.9.7.6,1.1,1.6,1.1,2.8v7.3h-1.8l-.5-1.5h0c-.5.6-1,1-1.5,1.3-.5.3-1.2.4-2.1.4s-1.8-.3-2.4-.8c-.6-.5-1-1.4-1-2.5s.4-2,1.2-2.5c.8-.6,2.1-.9,3.7-.9h1.9v-.6c0-.7-.2-1.2-.5-1.5-.3-.3-.8-.4-1.4-.4s-1.1,0-1.6.2c-.5.1-1,.3-1.5.6l-.8-1.8c.5-.3,1.1-.5,1.8-.7.7-.2,1.4-.3,2.2-.3ZM157.6,329.8h-1.3c-1.1,0-1.9.3-2.3.6-.4.3-.6.8-.6,1.4s.1.9.4,1.1c.3.2.7.3,1.2.3.7,0,1.4-.2,1.9-.6.5-.4.8-1.1.8-1.9v-.9ZM165.7,334.9l-4.1-10.8h2.7l2.2,6.3c.1.4.3.8.4,1.3.1.5.2.9.2,1.2h0c0-.3.1-.7.2-1.2.1-.5.2-.9.4-1.3l2.2-6.3h2.7l-4.1,10.8h-2.7ZM183,323.8c1.4,0,2.5.5,3.2,1.6h0l.2-1.4h2.1v10.9c0,1.5-.4,2.7-1.3,3.5-.9.8-2.2,1.2-3.9,1.2s-1.5,0-2.1-.2c-.7,0-1.3-.3-1.9-.5v-2.1c.6.3,1.3.5,2,.6.7.1,1.4.2,2.2.2s1.4-.2,1.9-.7c.4-.5.7-1.1.7-2v-.3c0-.2,0-.4,0-.7,0-.3,0-.5,0-.6h0c-.4.6-.8,1-1.4,1.2-.5.3-1.1.4-1.8.4-1.3,0-2.4-.5-3.1-1.5-.7-1-1.1-2.4-1.1-4.1s.4-3.1,1.1-4.1c.8-1,1.8-1.5,3.2-1.5ZM183.6,325.9c-1.6,0-2.4,1.2-2.4,3.6s.8,3.6,2.4,3.6,1.5-.2,1.9-.7c.4-.5.6-1.3.6-2.5v-.4c0-1.3-.2-2.2-.6-2.8-.4-.6-1.1-.8-2-.8ZM197.6,323.8c.2,0,.4,0,.6,0,.2,0,.4,0,.5,0l-.2,2.3c-.1,0-.3,0-.5,0-.2,0-.3,0-.5,0-.5,0-1,.1-1.5.3-.5.2-.8.5-1.1,1-.3.5-.4,1-.4,1.7v5.6h-2.5v-10.8h1.9l.4,1.9h.1c.3-.6.8-1.1,1.3-1.5.6-.4,1.2-.6,1.9-.6ZM209.9,329.4c0,1.8-.5,3.2-1.4,4.2-.9,1-2.2,1.5-3.8,1.5s-1.9-.2-2.6-.7c-.8-.4-1.4-1.1-1.8-1.9-.4-.8-.7-1.9-.7-3.1,0-1.8.5-3.2,1.4-4.1.9-1,2.2-1.5,3.8-1.5s1.9.2,2.7.7c.8.4,1.4,1.1,1.8,1.9.4.8.7,1.8.7,3ZM202.2,329.4c0,1.1.2,2,.6,2.7.4.6,1.1.9,2,.9s1.5-.3,2-.9c.4-.6.6-1.5.6-2.7s-.2-2-.6-2.6c-.4-.6-1.1-.9-2-.9s-1.6.3-2,.9c-.4.6-.6,1.5-.6,2.6ZM222.2,324v10.8h-2l-.3-1.4h-.1c-.3.6-.8,1-1.4,1.2-.6.3-1.3.4-1.9.4-1.2,0-2.2-.3-2.9-.9-.7-.6-1-1.6-1-3v-7.1h2.5v6.6c0,.8.2,1.4.5,1.8.3.4.8.6,1.5.6,1,0,1.7-.3,2.1-1,.4-.6.6-1.6.6-2.7v-5.3h2.5ZM231.1,323.8c1.3,0,2.3.5,3.1,1.4.8.9,1.2,2.3,1.2,4.2s-.4,3.3-1.2,4.2c-.8.9-1.8,1.4-3.1,1.4s-1.4-.1-1.9-.4c-.5-.3-.9-.6-1.2-1h-.2c0,.3,0,.5,0,.8,0,.3,0,.6,0,.8v4.4h-2.5v-15.6h2l.4,1.4h.1c.3-.5.7-.8,1.2-1.2.5-.3,1.2-.5,2-.5ZM230.4,325.9c-.9,0-1.5.3-1.9.8-.4.5-.5,1.3-.6,2.4v.3c0,1.2.2,2.1.5,2.7.4.6,1,.9,2,.9s1.4-.3,1.7-1c.4-.7.6-1.5.6-2.7s-.2-2-.6-2.6c-.4-.6-1-.9-1.8-.9ZM245.6,334.9h-2.5v-15.2h2.5v15.2ZM253.2,323.8c1.4,0,2.5.3,3.2.9.7.6,1.1,1.6,1.1,2.8v7.3h-1.8l-.5-1.5h0c-.5.6-1,1-1.5,1.3-.5.3-1.2.4-2.1.4s-1.8-.3-2.4-.8c-.6-.5-1-1.4-1-2.5s.4-2,1.2-2.5c.8-.6,2.1-.9,3.7-.9h1.9v-.6c0-.7-.2-1.2-.5-1.5-.3-.3-.8-.4-1.4-.4s-1.1,0-1.6.2c-.5.1-1,.3-1.5.6l-.8-1.8c.5-.3,1.1-.5,1.8-.7.7-.2,1.4-.3,2.2-.3ZM254.9,329.8h-1.3c-1.1,0-1.9.3-2.3.6-.4.3-.6.8-.6,1.4s.1.9.4,1.1c.3.2.7.3,1.2.3.7,0,1.4-.2,1.9-.6.5-.4.8-1.1.8-1.9v-.9ZM263.1,319.7v3.6c0,.4,0,.8,0,1.2,0,.4,0,.7,0,.9h.1c.3-.5.7-.8,1.2-1.1.5-.3,1.2-.5,2-.5,1.3,0,2.3.5,3,1.4.8.9,1.2,2.3,1.2,4.2s-.4,3.3-1.2,4.2c-.8.9-1.8,1.4-3.1,1.4s-1.5-.1-2-.4c-.5-.3-.9-.6-1.2-1h-.2l-.5,1.3h-1.9v-15.2h2.5ZM265.6,325.9c-.9,0-1.5.3-1.9.8-.4.5-.5,1.4-.6,2.5v.2c0,1.2.2,2,.5,2.7.4.6,1,.9,2,.9s1.3-.3,1.7-.9c.4-.6.6-1.5.6-2.7s-.2-2.1-.6-2.7c-.4-.6-1-.9-1.7-.9ZM277.5,323.8c1.5,0,2.6.4,3.4,1.3.9.9,1.3,2.1,1.3,3.6v1.3h-7.2c0,1,.3,1.8.8,2.3.5.5,1.2.8,2.2.8s1.3,0,1.9-.2c.6-.1,1.1-.4,1.7-.6v2c-.5.3-1.1.4-1.7.6s-1.3.2-2.1.2-2-.2-2.8-.6c-.8-.4-1.5-1-1.9-1.8-.5-.8-.7-1.9-.7-3.1,0-1.9.5-3.3,1.4-4.2.9-1,2.1-1.5,3.6-1.5ZM277.5,325.7c-.7,0-1.2.2-1.7.7-.4.4-.7,1.1-.7,1.9h4.7c0-.7-.2-1.4-.6-1.8-.4-.5-.9-.7-1.7-.7ZM287.3,334.9h-2.5v-15.2h2.5v15.2Z"/>
  <path class="st3" d="M181.3,394.9h-2.1l-7.6-11.9h0c0,.5,0,1,0,1.7,0,.7,0,1.4,0,2.1v8h-1.7v-14.3h2.1l7.6,11.8h0c0-.2,0-.5,0-1,0-.4,0-.9,0-1.4,0-.5,0-1,0-1.4v-8.1h1.7v14.3ZM189,384c1.3,0,2.3.3,2.9.9.6.6.9,1.5.9,2.7v7.3h-1.3l-.3-1.5h0c-.5.6-1,1-1.5,1.3-.5.3-1.2.4-2.1.4s-1.8-.3-2.4-.8c-.6-.5-1-1.3-1-2.4s.4-1.9,1.3-2.5c.8-.6,2.1-.9,3.9-1h1.8v-.7c0-.9-.2-1.5-.6-1.9-.4-.3-.9-.5-1.6-.5s-1.1,0-1.6.3c-.5.2-1,.3-1.4.6l-.5-1.3c.5-.3,1-.5,1.7-.6.6-.2,1.3-.3,2-.3ZM189.5,389.7c-1.3,0-2.3.3-2.8.6-.5.4-.8.9-.8,1.6s.2,1,.5,1.3c.4.3.8.4,1.4.4.9,0,1.7-.2,2.3-.7.6-.5.9-1.3.9-2.3v-1h-1.6ZM198.5,394.9l-4.1-10.7h1.9l2.3,6.3c.1.3.2.6.3,1,.1.4.2.7.3,1,0,.3.2.6.2.8h0c0-.2.1-.5.2-.8.1-.3.2-.7.3-1,.1-.4.2-.7.3-1l2.3-6.3h1.9l-4.1,10.7h-2ZM213.2,394.9h-1.8v-15.2h1.8v15.2ZM217.5,380.1c.3,0,.5,0,.7.3.2.2.3.5.3.8s-.1.7-.3.8c-.2.2-.4.3-.7.3s-.5,0-.7-.3c-.2-.2-.3-.5-.3-.8s.1-.7.3-.8c.2-.2.4-.3.7-.3ZM218.4,384.2v10.7h-1.8v-10.7h1.8ZM226.9,384c1.3,0,2.2.3,2.9.9.7.6,1,1.6,1,3v7h-1.7v-6.9c0-1.7-.8-2.6-2.4-2.6s-2,.3-2.5,1c-.5.7-.7,1.6-.7,2.9v5.6h-1.8v-10.7h1.4l.3,1.5h.1c.3-.6.8-1,1.4-1.2.6-.3,1.3-.4,1.9-.4ZM235.9,387.6c0,.2,0,.5,0,.8,0,.3,0,.6,0,.9h0c0-.1.2-.3.4-.5.2-.2.3-.4.5-.6.2-.2.3-.4.4-.5l3.4-3.6h2.1l-4.3,4.6,4.6,6.1h-2.1l-3.7-5-1.2,1.1v3.9h-1.7v-15.2h1.7v7.9Z"/>
  <path class="st3" d="M168,398.5h75.1v.8h-75.1v-.8Z"/>
  <path class="st3" d="M181.3,454.9h-2.1l-7.6-11.9h0c0,.5,0,1,0,1.7,0,.7,0,1.4,0,2.1v8h-1.7v-14.3h2.1l7.6,11.8h0c0-.2,0-.5,0-1,0-.4,0-.9,0-1.4,0-.5,0-1,0-1.4v-8.1h1.7v14.3ZM189,444c1.3,0,2.3.3,2.9.9.6.6.9,1.5.9,2.7v7.3h-1.3l-.3-1.5h0c-.5.6-1,1-1.5,1.3-.5.3-1.2.4-2.1.4s-1.8-.3-2.4-.8c-.6-.5-1-1.3-1-2.4s.4-1.9,1.3-2.5c.8-.6,2.1-.9,3.9-1h1.8v-.7c0-.9-.2-1.5-.6-1.9-.4-.3-.9-.5-1.6-.5s-1.1,0-1.6.3c-.5.2-1,.3-1.4.6l-.5-1.3c.5-.3,1-.5,1.7-.6.6-.2,1.3-.3,2-.3ZM189.5,449.7c-1.3,0-2.3.3-2.8.6-.5.4-.8.9-.8,1.6s.2,1,.5,1.3c.4.3.8.4,1.4.4.9,0,1.7-.2,2.3-.7.6-.5.9-1.3.9-2.3v-1h-1.6ZM198.5,454.9l-4.1-10.7h1.9l2.3,6.3c.1.3.2.6.3,1,.1.4.2.7.3,1,0,.3.2.6.2.8h0c0-.2.1-.5.2-.8.1-.3.2-.7.3-1,.1-.4.2-.7.3-1l2.3-6.3h1.9l-4.1,10.7h-2ZM213.2,454.9h-1.8v-15.2h1.8v15.2ZM217.5,440.1c.3,0,.5,0,.7.3.2.2.3.5.3.8s-.1.7-.3.8c-.2.2-.4.3-.7.3s-.5,0-.7-.3c-.2-.2-.3-.5-.3-.8s.1-.7.3-.8c.2-.2.4-.3.7-.3ZM218.4,444.2v10.7h-1.8v-10.7h1.8ZM226.9,444c1.3,0,2.2.3,2.9.9.7.6,1,1.6,1,3v7h-1.7v-6.9c0-1.7-.8-2.6-2.4-2.6s-2,.3-2.5,1c-.5.7-.7,1.6-.7,2.9v5.6h-1.8v-10.7h1.4l.3,1.5h.1c.3-.6.8-1,1.4-1.2.6-.3,1.3-.4,1.9-.4ZM235.9,447.6c0,.2,0,.5,0,.8,0,.3,0,.6,0,.9h0c0-.1.2-.3.4-.5.2-.2.3-.4.5-.6.2-.2.3-.4.4-.5l3.4-3.6h2.1l-4.3,4.6,4.6,6.1h-2.1l-3.7-5-1.2,1.1v3.9h-1.7v-15.2h1.7v7.9Z"/>
  <path class="st3" d="M168,458.5h75.1v.8h-75.1v-.8Z"/>
  <path class="st3" d="M181.3,514.9h-2.1l-7.6-11.9h0c0,.5,0,1,0,1.7,0,.7,0,1.4,0,2.1v8h-1.7v-14.3h2.1l7.6,11.8h0c0-.2,0-.5,0-1,0-.4,0-.9,0-1.4,0-.5,0-1,0-1.4v-8.1h1.7v14.3ZM189,504c1.3,0,2.3.3,2.9.9.6.6.9,1.5.9,2.7v7.3h-1.3l-.3-1.5h0c-.5.6-1,1-1.5,1.3-.5.3-1.2.4-2.1.4s-1.8-.3-2.4-.8c-.6-.5-1-1.3-1-2.4s.4-1.9,1.3-2.5c.8-.6,2.1-.9,3.9-1h1.8v-.7c0-.9-.2-1.5-.6-1.9-.4-.3-.9-.5-1.6-.5s-1.1,0-1.6.3c-.5.2-1,.3-1.4.6l-.5-1.3c.5-.3,1-.5,1.7-.6.6-.2,1.3-.3,2-.3ZM189.5,509.7c-1.3,0-2.3.3-2.8.6-.5.4-.8.9-.8,1.6s.2,1,.5,1.3c.4.3.8.4,1.4.4.9,0,1.7-.2,2.3-.7.6-.5.9-1.3.9-2.3v-1h-1.6ZM198.5,514.9l-4.1-10.7h1.9l2.3,6.3c.1.3.2.6.3,1,.1.4.2.7.3,1,0,.3.2.6.2.8h0c0-.2.1-.5.2-.8.1-.3.2-.7.3-1,.1-.4.2-.7.3-1l2.3-6.3h1.9l-4.1,10.7h-2ZM213.2,514.9h-1.8v-15.2h1.8v15.2ZM217.5,500.1c.3,0,.5,0,.7.3.2.2.3.5.3.8s-.1.7-.3.8c-.2.2-.4.3-.7.3s-.5,0-.7-.3c-.2-.2-.3-.5-.3-.8s.1-.7.3-.8c.2-.2.4-.3.7-.3ZM218.4,504.2v10.7h-1.8v-10.7h1.8ZM226.9,504c1.3,0,2.2.3,2.9.9.7.6,1,1.6,1,3v7h-1.7v-6.9c0-1.7-.8-2.6-2.4-2.6s-2,.3-2.5,1c-.5.7-.7,1.6-.7,2.9v5.6h-1.8v-10.7h1.4l.3,1.5h.1c.3-.6.8-1,1.4-1.2.6-.3,1.3-.4,1.9-.4ZM235.9,507.6c0,.2,0,.5,0,.8,0,.3,0,.6,0,.9h0c0-.1.2-.3.4-.5.2-.2.3-.4.5-.6.2-.2.3-.4.4-.5l3.4-3.6h2.1l-4.3,4.6,4.6,6.1h-2.1l-3.7-5-1.2,1.1v3.9h-1.7v-15.2h1.7v7.9Z"/>
  <path class="st3" d="M168,518.5h75.1v.8h-75.1v-.8Z"/>
  <path d="M114,568.6l6.5-6.5,1.5,1.5-8,8-8-8,1.5-1.5,6.5,6.5Z"/>
  <path class="st19" d="M148,574.9h-3.2l-6.8-11.2h0c0,.6,0,1.2,0,1.9,0,.7,0,1.4.1,2.1v7.2h-2.3v-14.3h3.2l6.7,11.1h0c0-.5,0-1.1,0-1.8,0-.7,0-1.4,0-2v-7.3h2.3v14.3ZM155.8,563.8c1.4,0,2.5.3,3.2.9.7.6,1.1,1.6,1.1,2.8v7.3h-1.8l-.5-1.5h0c-.5.6-1,1-1.5,1.3-.5.3-1.2.4-2.1.4s-1.8-.3-2.4-.8c-.6-.5-1-1.4-1-2.5s.4-2,1.2-2.5c.8-.6,2.1-.9,3.7-.9h1.9v-.6c0-.7-.2-1.2-.5-1.5-.3-.3-.8-.4-1.4-.4s-1.1,0-1.6.2c-.5.1-1,.3-1.5.6l-.8-1.8c.5-.3,1.1-.5,1.8-.7.7-.2,1.4-.3,2.2-.3ZM157.6,569.8h-1.3c-1.1,0-1.9.3-2.3.6-.4.3-.6.8-.6,1.4s.1.9.4,1.1c.3.2.7.3,1.2.3.7,0,1.4-.2,1.9-.6.5-.4.8-1.1.8-1.9v-.9ZM165.7,574.9l-4.1-10.8h2.7l2.2,6.3c.1.4.3.8.4,1.3.1.5.2.9.2,1.2h0c0-.3.1-.7.2-1.2.1-.5.2-.9.4-1.3l2.2-6.3h2.7l-4.1,10.8h-2.7ZM183,563.8c1.4,0,2.5.5,3.2,1.6h0l.2-1.4h2.1v10.9c0,1.5-.4,2.7-1.3,3.5-.9.8-2.2,1.2-3.9,1.2s-1.5,0-2.1-.2c-.7,0-1.3-.3-1.9-.5v-2.1c.6.3,1.3.5,2,.6.7.1,1.4.2,2.2.2s1.4-.2,1.9-.7c.4-.5.7-1.1.7-2v-.3c0-.2,0-.4,0-.7,0-.3,0-.5,0-.6h0c-.4.6-.8,1-1.4,1.2-.5.3-1.1.4-1.8.4-1.3,0-2.4-.5-3.1-1.5-.7-1-1.1-2.4-1.1-4.1s.4-3.1,1.1-4.1c.8-1,1.8-1.5,3.2-1.5ZM183.6,565.9c-1.6,0-2.4,1.2-2.4,3.6s.8,3.6,2.4,3.6,1.5-.2,1.9-.7c.4-.5.6-1.3.6-2.5v-.4c0-1.3-.2-2.2-.6-2.8-.4-.6-1.1-.8-2-.8ZM197.6,563.8c.2,0,.4,0,.6,0,.2,0,.4,0,.5,0l-.2,2.3c-.1,0-.3,0-.5,0-.2,0-.3,0-.5,0-.5,0-1,.1-1.5.3-.5.2-.8.5-1.1,1-.3.5-.4,1-.4,1.7v5.6h-2.5v-10.8h1.9l.4,1.9h.1c.3-.6.8-1.1,1.3-1.5.6-.4,1.2-.6,1.9-.6ZM209.9,569.4c0,1.8-.5,3.2-1.4,4.2-.9,1-2.2,1.5-3.8,1.5s-1.9-.2-2.6-.7c-.8-.4-1.4-1.1-1.8-1.9-.4-.8-.7-1.9-.7-3.1,0-1.8.5-3.2,1.4-4.1.9-1,2.2-1.5,3.8-1.5s1.9.2,2.7.7c.8.4,1.4,1.1,1.8,1.9.4.8.7,1.8.7,3ZM202.2,569.4c0,1.1.2,2,.6,2.7.4.6,1.1.9,2,.9s1.5-.3,2-.9c.4-.6.6-1.5.6-2.7s-.2-2-.6-2.6c-.4-.6-1.1-.9-2-.9s-1.6.3-2,.9c-.4.6-.6,1.5-.6,2.6ZM222.2,564v10.8h-2l-.3-1.4h-.1c-.3.6-.8,1-1.4,1.2-.6.3-1.3.4-1.9.4-1.2,0-2.2-.3-2.9-.9-.7-.6-1-1.6-1-3v-7.1h2.5v6.6c0,.8.2,1.4.5,1.8.3.4.8.6,1.5.6,1,0,1.7-.3,2.1-1,.4-.6.6-1.6.6-2.7v-5.3h2.5ZM231.1,563.8c1.3,0,2.3.5,3.1,1.4.8.9,1.2,2.3,1.2,4.2s-.4,3.3-1.2,4.2c-.8.9-1.8,1.4-3.1,1.4s-1.4-.1-1.9-.4c-.5-.3-.9-.6-1.2-1h-.2c0,.3,0,.5,0,.8,0,.3,0,.6,0,.8v4.4h-2.5v-15.6h2l.4,1.4h.1c.3-.5.7-.8,1.2-1.2.5-.3,1.2-.5,2-.5ZM230.4,565.9c-.9,0-1.5.3-1.9.8-.4.5-.5,1.3-.6,2.4v.3c0,1.2.2,2.1.5,2.7.4.6,1,.9,2,.9s1.4-.3,1.7-1c.4-.7.6-1.5.6-2.7s-.2-2-.6-2.6c-.4-.6-1-.9-1.8-.9ZM245.6,574.9h-2.5v-15.2h2.5v15.2ZM253.2,563.8c1.4,0,2.5.3,3.2.9.7.6,1.1,1.6,1.1,2.8v7.3h-1.8l-.5-1.5h0c-.5.6-1,1-1.5,1.3-.5.3-1.2.4-2.1.4s-1.8-.3-2.4-.8c-.6-.5-1-1.4-1-2.5s.4-2,1.2-2.5c.8-.6,2.1-.9,3.7-.9h1.9v-.6c0-.7-.2-1.2-.5-1.5-.3-.3-.8-.4-1.4-.4s-1.1,0-1.6.2c-.5.1-1,.3-1.5.6l-.8-1.8c.5-.3,1.1-.5,1.8-.7.7-.2,1.4-.3,2.2-.3ZM254.9,569.8h-1.3c-1.1,0-1.9.3-2.3.6-.4.3-.6.8-.6,1.4s.1.9.4,1.1c.3.2.7.3,1.2.3.7,0,1.4-.2,1.9-.6.5-.4.8-1.1.8-1.9v-.9ZM263.1,559.7v3.6c0,.4,0,.8,0,1.2,0,.4,0,.7,0,.9h.1c.3-.5.7-.8,1.2-1.1.5-.3,1.2-.5,2-.5,1.3,0,2.3.5,3,1.4.8.9,1.2,2.3,1.2,4.2s-.4,3.3-1.2,4.2c-.8.9-1.8,1.4-3.1,1.4s-1.5-.1-2-.4c-.5-.3-.9-.6-1.2-1h-.2l-.5,1.3h-1.9v-15.2h2.5ZM265.6,565.9c-.9,0-1.5.3-1.9.8-.4.5-.5,1.4-.6,2.5v.2c0,1.2.2,2,.5,2.7.4.6,1,.9,2,.9s1.3-.3,1.7-.9c.4-.6.6-1.5.6-2.7s-.2-2.1-.6-2.7c-.4-.6-1-.9-1.7-.9ZM277.5,563.8c1.5,0,2.6.4,3.4,1.3.9.9,1.3,2.1,1.3,3.6v1.3h-7.2c0,1,.3,1.8.8,2.3.5.5,1.2.8,2.2.8s1.3,0,1.9-.2c.6-.1,1.1-.4,1.7-.6v2c-.5.3-1.1.4-1.7.6s-1.3.2-2.1.2-2-.2-2.8-.6c-.8-.4-1.5-1-1.9-1.8-.5-.8-.7-1.9-.7-3.1,0-1.9.5-3.3,1.4-4.2.9-1,2.1-1.5,3.6-1.5ZM277.5,565.7c-.7,0-1.2.2-1.7.7-.4.4-.7,1.1-.7,1.9h4.7c0-.7-.2-1.4-.6-1.8-.4-.5-.9-.7-1.7-.7ZM287.3,574.9h-2.5v-15.2h2.5v15.2Z"/>
  <path class="st17" d="M50,600.9h320v52H50v-52Z"/>
  <g class="st1">
    <path class="st2" d="M54,652.9v-52h-8v52h8Z"/>
  </g>
  <path class="st19" d="M118,634.9h-3.2l-6.8-11.2h0c0,.6,0,1.2,0,1.9,0,.7,0,1.4.1,2.1v7.2h-2.3v-14.3h3.2l6.7,11.1h0c0-.5,0-1.1,0-1.8,0-.7,0-1.4,0-2v-7.3h2.3v14.3ZM125.8,623.8c1.4,0,2.5.3,3.2.9.7.6,1.1,1.6,1.1,2.8v7.3h-1.8l-.5-1.5h0c-.5.6-1,1-1.5,1.3-.5.3-1.2.4-2.1.4s-1.8-.3-2.4-.8c-.6-.5-1-1.4-1-2.5s.4-2,1.2-2.5c.8-.6,2.1-.9,3.7-.9h1.9v-.6c0-.7-.2-1.2-.5-1.5-.3-.3-.8-.4-1.4-.4s-1.1,0-1.6.2c-.5.1-1,.3-1.5.6l-.8-1.8c.5-.3,1.1-.5,1.8-.7.7-.2,1.4-.3,2.2-.3ZM127.6,629.8h-1.3c-1.1,0-1.9.3-2.3.6-.4.3-.6.8-.6,1.4s.1.9.4,1.1c.3.2.7.3,1.2.3.7,0,1.4-.2,1.9-.6.5-.4.8-1.1.8-1.9v-.9ZM135.7,634.9l-4.1-10.8h2.7l2.2,6.3c.1.4.3.8.4,1.3.1.5.2.9.2,1.2h0c0-.3.1-.7.2-1.2.1-.5.2-.9.4-1.3l2.2-6.3h2.7l-4.1,10.8h-2.7ZM151.9,634.9h-2.5v-15.2h2.5v15.2ZM156.4,619.9c.4,0,.7,0,1,.3.3.2.4.5.4,1s-.1.8-.4,1c-.3.2-.6.3-1,.3s-.7,0-1-.3c-.3-.2-.4-.5-.4-1s.1-.8.4-1c.3-.2.6-.3,1-.3ZM157.6,624v10.8h-2.5v-10.8h2.5ZM166.6,623.8c1.2,0,2.2.3,2.8.9.7.6,1,1.6,1,3v7.1h-2.5v-6.6c0-.8-.2-1.4-.5-1.8-.3-.4-.8-.6-1.5-.6-1,0-1.7.3-2.1,1-.4.6-.6,1.6-.6,2.7v5.3h-2.5v-10.8h1.9l.4,1.4h.1c.3-.6.8-1,1.4-1.2.6-.3,1.3-.4,1.9-.4ZM176.2,619.7v7.2c0,.3,0,.7,0,1.1,0,.4,0,.8,0,1.1h0c.2-.2.4-.5.6-.8.2-.3.5-.6.7-.8l3.2-3.4h2.9l-4.3,4.7,4.6,6.2h-2.9l-3.4-4.6-1.3,1v3.6h-2.5v-15.2h2.5Z"/>
  <g class="st20">
    <g>
      <rect class="st18" x="370" y="625.9" width="84" height="1"/>
      <g class="st6">
        <g>
          <path class="st18" d="M442,613.9h0c6.6,0,12,5.4,12,12h0c0,6.6-5.4,12-12,12h0c-6.6,0-12-5.4-12-12h0c0-6.6,5.4-12,12-12Z"/>
          <path class="st16" d="M442.1,631c-.5,0-1,0-1.5-.3-.5-.2-.9-.5-1.3-.8-.4-.4-.7-.9-.9-1.5-.2-.6-.3-1.4-.3-2.4,0-.9.1-1.6.3-2.3.2-.7.5-1.2.8-1.7.4-.5.8-.8,1.3-1.1.5-.2,1.1-.4,1.7-.4s1.3.1,1.8.4c.5.3.9.6,1.3,1.1.3.5.5,1,.6,1.5h-2.1c0-.4-.3-.6-.5-.8-.3-.2-.6-.3-1-.3-.7,0-1.2.3-1.5.9-.3.6-.5,1.4-.5,2.4h0c.2-.3.4-.6.6-.8.3-.2.6-.4.9-.5.3-.1.7-.2,1.1-.2.6,0,1.1.1,1.6.4.5.3.8.7,1.1,1.2.3.5.4,1.1.4,1.7s-.2,1.3-.5,1.8c-.3.5-.8,1-1.3,1.3-.6.3-1.2.5-2,.4ZM442.1,629.3c.3,0,.6,0,.9-.2.3-.2.5-.4.6-.6.1-.3.2-.6.2-.9s0-.6-.2-.9c-.1-.3-.3-.5-.6-.6-.3-.2-.6-.2-.9-.2s-.5,0-.7.1c-.2,0-.4.2-.6.4-.2.2-.3.4-.4.6,0,.2-.1.4-.1.7s0,.6.2.9c.2.3.4.5.6.7.3.2.6.2.9.2Z"/>
        </g>
      </g>
    </g>
  </g>
  <g class="st9">
    <g>
      <rect class="st18" y="566.9" width="92" height="1"/>
      <g class="st7">
        <g>
          <path class="st18" d="M12,554.9h0c6.6,0,12,5.4,12,12h0c0,6.6-5.4,12-12,12h0c-6.6,0-12-5.4-12-12h0c0-6.6,5.4-12,12-12Z"/>
          <path class="st16" d="M12,572c-.7,0-1.3-.1-1.9-.4-.5-.3-1-.6-1.3-1.1-.3-.5-.5-1-.5-1.6h2.1c0,.4.2.7.5,1,.3.2.7.4,1.1.4s.6,0,.9-.2c.3-.2.5-.4.6-.6.1-.3.2-.6.2-.9s0-.7-.2-.9c-.1-.3-.4-.5-.6-.6-.3-.2-.6-.2-.9-.2-.3,0-.6,0-.9.2-.3.1-.5.3-.7.5l-1.9-.3.5-5.4h6.2v1.8h-4.4l-.3,2.6h0c.2-.3.4-.5.8-.6.4-.2.8-.2,1.2-.2s1.2.1,1.6.4c.5.3.9.7,1.1,1.2.3.5.4,1.1.4,1.7,0,.7-.2,1.3-.5,1.8-.3.5-.8.9-1.3,1.3-.6.3-1.2.5-2,.5Z"/>
        </g>
      </g>
    </g>
  </g>
  <g class="st8">
    <g>
      <rect class="st18" x="300" y="326.9" width="75" height="1"/>
      <g class="st14">
        <g>
          <path class="st18" d="M363,314.9h0c6.6,0,12,5.4,12,12h0c0,6.6-5.4,12-12,12h0c-6.6,0-12-5.4-12-12h0c0-6.6,5.4-12,12-12Z"/>
          <path class="st16" d="M358.9,330.1v-1.7l4.3-6.7h1.5v2.3h-.9l-2.7,4.2h0c0,0,6,0,6,0v1.7h-8.2ZM363.8,331.9v-3.1s0-7.1,0-7.1h2v10.2h-2.1Z"/>
        </g>
      </g>
    </g>
  </g>
  <g class="st11">
    <g>
      <rect class="st18" x="46" y="187.9" width="1" height="370"/>
      <rect class="st18" x="2" y="414.9" width="45" height="1"/>
      <g class="st10">
        <g>
          <path class="st18" d="M12,402.9h0c6.6,0,12,5.4,12,12h0c0,6.6-5.4,12-12,12h0c-6.6,0-12-5.4-12-12h0c0-6.6,5.4-12,12-12Z"/>
          <path class="st16" d="M12,420c-.7,0-1.4-.1-2-.4-.6-.3-1-.6-1.4-1.1-.3-.5-.5-1-.5-1.6h2.2c0,.2,0,.5.2.7.2.2.4.3.6.4.3.1.5.2.9.2s.6,0,.9-.2c.3-.1.4-.3.6-.5.1-.2.2-.4.2-.7s0-.5-.2-.7c-.1-.2-.4-.4-.6-.5-.3-.1-.6-.2-1-.2h-.9v-1.6h.9c.3,0,.6,0,.9-.2.3-.1.4-.3.6-.5.1-.2.2-.4.2-.7s0-.5-.2-.7c-.1-.2-.3-.3-.5-.5-.2-.1-.5-.2-.8-.2s-.6,0-.8.2c-.2.1-.4.2-.6.4-.1.2-.2.4-.2.7h-2.1c0-.6.2-1.1.5-1.6.3-.4.8-.8,1.3-1,.6-.3,1.2-.4,1.9-.4s1.3.1,1.8.4c.5.3.9.6,1.2,1,.3.4.4.9.4,1.5,0,.6-.2,1-.5,1.4-.4.4-.8.6-1.4.7h0c.7.2,1.3.4,1.7.9.4.4.6.9.6,1.6,0,.6-.2,1.1-.5,1.5-.3.5-.8.8-1.4,1.1-.6.3-1.3.4-2,.4Z"/>
        </g>
      </g>
    </g>
  </g>
  <g class="st13">
    <g>
      <rect class="st18" y="90.9" width="87" height="1"/>
      <g class="st12">
        <g>
          <path class="st18" d="M12,78.9h0c6.6,0,12,5.4,12,12h0c0,6.6-5.4,12-12,12h0c-6.6,0-12-5.4-12-12h0c0-6.6,5.4-12,12-12Z"/>
          <path class="st16" d="M8.4,95.9v-1.6l3.6-3.4c.3-.3.6-.6.8-.8.2-.2.4-.5.5-.7.1-.2.2-.5.2-.8s0-.6-.2-.8c-.1-.2-.3-.4-.6-.5-.2-.1-.5-.2-.8-.2s-.6,0-.8.2c-.2.1-.4.3-.5.5-.1.2-.2.5-.2.8h-2c0-.7.2-1.2.5-1.7s.7-.9,1.3-1.1c.5-.3,1.2-.4,1.9-.4s1.4.1,1.9.4c.5.3,1,.6,1.3,1.1.3.5.5,1,.5,1.6s0,.8-.2,1.1c-.1.4-.4.8-.8,1.2-.4.5-.9,1-1.6,1.6l-1.5,1.5h0c0,0,4.3,0,4.3,0v1.8h-7.3Z"/>
        </g>
      </g>
    </g>
  </g>
  <g class="st5">
    <g>
      <rect class="st18" y="23.9" width="50" height="1"/>
      <g class="st4">
        <g>
          <path class="st18" d="M12,11.9h0c6.6,0,12,5.4,12,12h0c0,6.6-5.4,12-12,12h0c-6.6,0-12-5.4-12-12h0c0-6.6,5.4-12,12-12Z"/>
          <path class="st16" d="M13.8,18.7v10.2h-2.2v-8.1h0l-2.3,1.5v-1.9l2.5-1.6h2Z"/>
        </g>
      </g>
    </g>
  </g>
  <rect class="st18" x="46" y="313.9" width="6" height="1"/>
  <rect class="st18" x="45.9" y="514.5" width="6" height="1"/>
</svg>