<svg width="719" height="267" viewBox="0 0 719 267" fill="none" xmlns="http://www.w3.org/2000/svg">
<path d="M141.8 26V11.72H144.82V23.5H150.62V26H141.8ZM157.349 14.86C158.815 14.86 159.935 15.18 160.709 15.82C161.495 16.4467 161.889 17.4133 161.889 18.72V26H159.809L159.229 24.52H159.149C158.682 25.1067 158.189 25.5333 157.669 25.8C157.149 26.0667 156.435 26.2 155.529 26.2C154.555 26.2 153.749 25.92 153.109 25.36C152.469 24.7867 152.149 23.9133 152.149 22.74C152.149 21.58 152.555 20.7267 153.369 20.18C154.182 19.62 155.402 19.3133 157.029 19.26L158.929 19.2V18.72C158.929 18.1467 158.775 17.7267 158.469 17.46C158.175 17.1933 157.762 17.06 157.229 17.06C156.695 17.06 156.175 17.14 155.669 17.3C155.162 17.4467 154.655 17.6333 154.149 17.86L153.169 15.84C153.755 15.5333 154.402 15.2933 155.109 15.12C155.829 14.9467 156.575 14.86 157.349 14.86ZM157.769 20.98C156.809 21.0067 156.142 21.18 155.769 21.5C155.395 21.82 155.209 22.24 155.209 22.76C155.209 23.2133 155.342 23.54 155.609 23.74C155.875 23.9267 156.222 24.02 156.649 24.02C157.289 24.02 157.829 23.8333 158.269 23.46C158.709 23.0733 158.929 22.5333 158.929 21.84V20.94L157.769 20.98ZM167.919 14.34C167.919 14.7533 167.906 15.16 167.879 15.56C167.852 15.96 167.826 16.2733 167.799 16.5H167.919C168.212 16.0467 168.606 15.6667 169.099 15.36C169.592 15.04 170.232 14.88 171.019 14.88C172.246 14.88 173.239 15.36 173.999 16.32C174.759 17.2667 175.139 18.6667 175.139 20.52C175.139 22.3867 174.752 23.8 173.979 24.76C173.206 25.72 172.192 26.2 170.939 26.2C170.139 26.2 169.506 26.06 169.039 25.78C168.586 25.4867 168.212 25.16 167.919 24.8H167.719L167.219 26H164.939V10.8H167.919V14.34ZM170.059 17.26C169.286 17.26 168.739 17.5 168.419 17.98C168.112 18.46 167.946 19.1933 167.919 20.18V20.5C167.919 21.5533 168.072 22.3667 168.379 22.94C168.699 23.5 169.272 23.78 170.099 23.78C170.712 23.78 171.199 23.5 171.559 22.94C171.919 22.3667 172.099 21.5467 172.099 20.48C172.099 19.4133 171.912 18.6133 171.539 18.08C171.179 17.5333 170.686 17.26 170.059 17.26ZM182.095 14.88C183.602 14.88 184.795 15.3133 185.675 16.18C186.555 17.0333 186.995 18.2533 186.995 19.84V21.28H179.955C179.982 22.12 180.228 22.78 180.695 23.26C181.175 23.74 181.835 23.98 182.675 23.98C183.382 23.98 184.022 23.9133 184.595 23.78C185.168 23.6333 185.762 23.4133 186.375 23.12V25.42C185.842 25.6867 185.275 25.88 184.675 26C184.088 26.1333 183.375 26.2 182.535 26.2C181.442 26.2 180.475 26 179.635 25.6C178.795 25.1867 178.135 24.5667 177.655 23.74C177.175 22.9133 176.935 21.8733 176.935 20.62C176.935 19.34 177.148 18.28 177.575 17.44C178.015 16.5867 178.622 15.9467 179.395 15.52C180.168 15.0933 181.068 14.88 182.095 14.88ZM182.115 17C181.542 17 181.062 17.1867 180.675 17.56C180.302 17.9333 180.082 18.5133 180.015 19.3H184.195C184.182 18.6333 184.008 18.0867 183.675 17.66C183.342 17.22 182.822 17 182.115 17ZM192.392 26H189.412V10.8H192.392V26Z" fill="black"/>
<path d="M152.86 63.4004H151.06V56.7404H143.74V63.4004H141.94V49.1204H143.74V55.1604H151.06V49.1204H152.86V63.4004ZM157.424 48.6604C157.691 48.6604 157.924 48.7537 158.124 48.9404C158.338 49.1137 158.444 49.3937 158.444 49.7804C158.444 50.1537 158.338 50.4337 158.124 50.6204C157.924 50.8071 157.691 50.9004 157.424 50.9004C157.131 50.9004 156.884 50.8071 156.684 50.6204C156.484 50.4337 156.384 50.1537 156.384 49.7804C156.384 49.3937 156.484 49.1137 156.684 48.9404C156.884 48.7537 157.131 48.6604 157.424 48.6604ZM158.284 52.6804V63.4004H156.524V52.6804H158.284ZM166.84 52.4804C168.12 52.4804 169.087 52.7937 169.74 53.4204C170.394 54.0337 170.72 55.0337 170.72 56.4204V63.4004H168.98V56.5404C168.98 54.8204 168.18 53.9604 166.58 53.9604C165.394 53.9604 164.574 54.2937 164.12 54.9604C163.667 55.6271 163.44 56.5871 163.44 57.8404V63.4004H161.68V52.6804H163.1L163.36 54.1404H163.46C163.807 53.5804 164.287 53.1671 164.9 52.9004C165.514 52.6204 166.16 52.4804 166.84 52.4804ZM177.624 62.1604C177.89 62.1604 178.164 62.1404 178.444 62.1004C178.724 62.0471 178.95 61.9937 179.124 61.9404V63.2804C178.937 63.3737 178.67 63.4471 178.324 63.5004C177.977 63.5671 177.644 63.6004 177.324 63.6004C176.764 63.6004 176.244 63.5071 175.764 63.3204C175.297 63.1204 174.917 62.7804 174.624 62.3004C174.33 61.8204 174.184 61.1471 174.184 60.2804V54.0404H172.664V53.2004L174.204 52.5004L174.904 50.2204H175.944V52.6804H179.044V54.0404H175.944V60.2404C175.944 60.8937 176.097 61.3804 176.404 61.7004C176.724 62.0071 177.13 62.1604 177.624 62.1604ZM192.006 49.1204L186.686 63.4004H184.966L190.286 49.1204H192.006ZM207.322 63.4004H199.342V49.1204H207.322V50.7004H201.142V55.1604H206.962V56.7204H201.142V61.8204H207.322V63.4004ZM212.756 57.9204L209.056 52.6804H211.056L213.816 56.7204L216.556 52.6804H218.536L214.836 57.9204L218.736 63.4004H216.736L213.816 59.1204L210.856 63.4004H208.876L212.756 57.9204ZM224.862 52.5004C226.168 52.5004 227.135 52.7871 227.762 53.3604C228.388 53.9337 228.702 54.8471 228.702 56.1004V63.4004H227.422L227.082 61.8804H227.002C226.535 62.4671 226.042 62.9004 225.522 63.1804C225.015 63.4604 224.308 63.6004 223.402 63.6004C222.428 63.6004 221.622 63.3471 220.982 62.8404C220.342 62.3204 220.022 61.5137 220.022 60.4204C220.022 59.3537 220.442 58.5337 221.282 57.9604C222.122 57.3737 223.415 57.0537 225.162 57.0004L226.982 56.9404V56.3004C226.982 55.4071 226.788 54.7871 226.402 54.4404C226.015 54.0937 225.468 53.9204 224.762 53.9204C224.202 53.9204 223.668 54.0071 223.162 54.1804C222.655 54.3404 222.182 54.5271 221.742 54.7404L221.202 53.4204C221.668 53.1671 222.222 52.9537 222.862 52.7804C223.502 52.5937 224.168 52.5004 224.862 52.5004ZM225.382 58.2204C224.048 58.2737 223.122 58.4871 222.602 58.8604C222.095 59.2337 221.842 59.7604 221.842 60.4404C221.842 61.0404 222.022 61.4804 222.382 61.7604C222.755 62.0404 223.228 62.1804 223.802 62.1804C224.708 62.1804 225.462 61.9337 226.062 61.4404C226.662 60.9337 226.962 60.1604 226.962 59.1204V58.1604L225.382 58.2204ZM243.773 52.4804C244.986 52.4804 245.893 52.7937 246.493 53.4204C247.093 54.0337 247.393 55.0337 247.393 56.4204V63.4004H245.653V56.5004C245.653 54.8071 244.926 53.9604 243.473 53.9604C242.433 53.9604 241.686 54.2604 241.233 54.8604C240.793 55.4604 240.573 56.3337 240.573 57.4804V63.4004H238.833V56.5004C238.833 54.8071 238.099 53.9604 236.633 53.9604C235.553 53.9604 234.806 54.2937 234.393 54.9604C233.979 55.6271 233.773 56.5871 233.773 57.8404V63.4004H232.013V52.6804H233.433L233.693 54.1404H233.793C234.126 53.5804 234.573 53.1671 235.133 52.9004C235.706 52.6204 236.313 52.4804 236.953 52.4804C238.633 52.4804 239.726 53.0804 240.233 54.2804H240.333C240.693 53.6671 241.179 53.2137 241.793 52.9204C242.419 52.6271 243.079 52.4804 243.773 52.4804ZM255.804 52.4804C257.124 52.4804 258.184 52.9404 258.984 53.8604C259.797 54.7804 260.204 56.1671 260.204 58.0204C260.204 59.8471 259.797 61.2337 258.984 62.1804C258.184 63.1271 257.117 63.6004 255.784 63.6004C254.957 63.6004 254.271 63.4471 253.724 63.1404C253.191 62.8204 252.771 62.4537 252.464 62.0404H252.344C252.371 62.2671 252.397 62.5537 252.424 62.9004C252.451 63.2471 252.464 63.5471 252.464 63.8004V68.2004H250.704V52.6804H252.144L252.384 54.1404H252.464C252.784 53.6737 253.204 53.2804 253.724 52.9604C254.244 52.6404 254.937 52.4804 255.804 52.4804ZM255.484 53.9604C254.391 53.9604 253.617 54.2671 253.164 54.8804C252.724 55.4937 252.491 56.4271 252.464 57.6804V58.0204C252.464 59.3404 252.677 60.3604 253.104 61.0804C253.544 61.7871 254.351 62.1404 255.524 62.1404C256.177 62.1404 256.711 61.9604 257.124 61.6004C257.551 61.2404 257.864 60.7537 258.064 60.1404C258.277 59.5137 258.384 58.8004 258.384 58.0004C258.384 56.7737 258.144 55.7937 257.664 55.0604C257.197 54.3271 256.471 53.9604 255.484 53.9604ZM264.769 63.4004H263.009V48.2004H264.769V63.4004ZM272.305 52.4804C273.225 52.4804 274.012 52.6804 274.665 53.0804C275.332 53.4804 275.838 54.0471 276.185 54.7804C276.545 55.5004 276.725 56.3471 276.725 57.3204V58.3804H269.385C269.412 59.5937 269.718 60.5204 270.305 61.1604C270.905 61.7871 271.738 62.1004 272.805 62.1004C273.485 62.1004 274.085 62.0404 274.605 61.9204C275.138 61.7871 275.685 61.6004 276.245 61.3604V62.9004C275.698 63.1404 275.158 63.3137 274.625 63.4204C274.092 63.5404 273.458 63.6004 272.725 63.6004C271.712 63.6004 270.812 63.3937 270.025 62.9804C269.252 62.5671 268.645 61.9537 268.205 61.1404C267.778 60.3137 267.565 59.3071 267.565 58.1204C267.565 56.9471 267.758 55.9404 268.145 55.1004C268.545 54.2604 269.098 53.6137 269.805 53.1604C270.525 52.7071 271.358 52.4804 272.305 52.4804ZM272.285 53.9204C271.445 53.9204 270.778 54.1937 270.285 54.7404C269.805 55.2737 269.518 56.0204 269.425 56.9804H274.885C274.872 56.0737 274.658 55.3404 274.245 54.7804C273.832 54.2071 273.178 53.9204 272.285 53.9204ZM296.409 52.4804C297.623 52.4804 298.529 52.7937 299.129 53.4204C299.729 54.0337 300.029 55.0337 300.029 56.4204V63.4004H298.289V56.5004C298.289 54.8071 297.563 53.9604 296.109 53.9604C295.069 53.9604 294.323 54.2604 293.869 54.8604C293.429 55.4604 293.209 56.3337 293.209 57.4804V63.4004H291.469V56.5004C291.469 54.8071 290.736 53.9604 289.269 53.9604C288.189 53.9604 287.443 54.2937 287.029 54.9604C286.616 55.6271 286.409 56.5871 286.409 57.8404V63.4004H284.649V52.6804H286.069L286.329 54.1404H286.429C286.763 53.5804 287.209 53.1671 287.769 52.9004C288.343 52.6204 288.949 52.4804 289.589 52.4804C291.269 52.4804 292.363 53.0804 292.869 54.2804H292.969C293.329 53.6671 293.816 53.2137 294.429 52.9204C295.056 52.6271 295.716 52.4804 296.409 52.4804ZM307.481 52.4804C308.401 52.4804 309.187 52.6804 309.841 53.0804C310.507 53.4804 311.014 54.0471 311.361 54.7804C311.721 55.5004 311.901 56.3471 311.901 57.3204V58.3804H304.561C304.587 59.5937 304.894 60.5204 305.481 61.1604C306.081 61.7871 306.914 62.1004 307.981 62.1004C308.661 62.1004 309.261 62.0404 309.781 61.9204C310.314 61.7871 310.861 61.6004 311.421 61.3604V62.9004C310.874 63.1404 310.334 63.3137 309.801 63.4204C309.267 63.5404 308.634 63.6004 307.901 63.6004C306.887 63.6004 305.987 63.3937 305.201 62.9804C304.427 62.5671 303.821 61.9537 303.381 61.1404C302.954 60.3137 302.741 59.3071 302.741 58.1204C302.741 56.9471 302.934 55.9404 303.321 55.1004C303.721 54.2604 304.274 53.6137 304.981 53.1604C305.701 52.7071 306.534 52.4804 307.481 52.4804ZM307.461 53.9204C306.621 53.9204 305.954 54.1937 305.461 54.7404C304.981 55.2737 304.694 56.0204 304.601 56.9804H310.061C310.047 56.0737 309.834 55.3404 309.421 54.7804C309.007 54.2071 308.354 53.9204 307.461 53.9204ZM321.61 60.4404C321.61 61.4804 321.223 62.2671 320.45 62.8004C319.676 63.3337 318.636 63.6004 317.33 63.6004C316.583 63.6004 315.936 63.5404 315.39 63.4204C314.856 63.3004 314.383 63.1337 313.97 62.9204V61.3204C314.396 61.5337 314.91 61.7337 315.51 61.9204C316.123 62.0937 316.743 62.1804 317.37 62.1804C318.263 62.1804 318.91 62.0404 319.31 61.7604C319.71 61.4671 319.91 61.0804 319.91 60.6004C319.91 60.3337 319.836 60.0937 319.69 59.8804C319.543 59.6671 319.276 59.4537 318.89 59.2404C318.516 59.0271 317.976 58.7871 317.27 58.5204C316.576 58.2537 315.983 57.9871 315.49 57.7204C314.996 57.4537 314.616 57.1337 314.35 56.7604C314.083 56.3871 313.95 55.9071 313.95 55.3204C313.95 54.4137 314.316 53.7137 315.05 53.2204C315.796 52.7271 316.77 52.4804 317.97 52.4804C318.623 52.4804 319.23 52.5471 319.79 52.6804C320.363 52.8004 320.896 52.9737 321.39 53.2004L320.79 54.6004C320.336 54.4137 319.863 54.2537 319.37 54.1204C318.876 53.9871 318.37 53.9204 317.85 53.9204C317.13 53.9204 316.576 54.0404 316.19 54.2804C315.816 54.5071 315.63 54.8204 315.63 55.2204C315.63 55.5137 315.716 55.7671 315.89 55.9804C316.063 56.1804 316.35 56.3804 316.75 56.5804C317.163 56.7671 317.71 56.9937 318.39 57.2604C319.07 57.5137 319.65 57.7737 320.13 58.0404C320.61 58.3071 320.976 58.6337 321.23 59.0204C321.483 59.3937 321.61 59.8671 321.61 60.4404ZM331.18 60.4404C331.18 61.4804 330.793 62.2671 330.02 62.8004C329.247 63.3337 328.207 63.6004 326.9 63.6004C326.153 63.6004 325.507 63.5404 324.96 63.4204C324.427 63.3004 323.953 63.1337 323.54 62.9204V61.3204C323.967 61.5337 324.48 61.7337 325.08 61.9204C325.693 62.0937 326.313 62.1804 326.94 62.1804C327.833 62.1804 328.48 62.0404 328.88 61.7604C329.28 61.4671 329.48 61.0804 329.48 60.6004C329.48 60.3337 329.407 60.0937 329.26 59.8804C329.113 59.6671 328.847 59.4537 328.46 59.2404C328.087 59.0271 327.547 58.7871 326.84 58.5204C326.147 58.2537 325.553 57.9871 325.06 57.7204C324.567 57.4537 324.187 57.1337 323.92 56.7604C323.653 56.3871 323.52 55.9071 323.52 55.3204C323.52 54.4137 323.887 53.7137 324.62 53.2204C325.367 52.7271 326.34 52.4804 327.54 52.4804C328.193 52.4804 328.8 52.5471 329.36 52.6804C329.933 52.8004 330.467 52.9737 330.96 53.2004L330.36 54.6004C329.907 54.4137 329.433 54.2537 328.94 54.1204C328.447 53.9871 327.94 53.9204 327.42 53.9204C326.7 53.9204 326.147 54.0404 325.76 54.2804C325.387 54.5071 325.2 54.8204 325.2 55.2204C325.2 55.5137 325.287 55.7671 325.46 55.9804C325.633 56.1804 325.92 56.3804 326.32 56.5804C326.733 56.7671 327.28 56.9937 327.96 57.2604C328.64 57.5137 329.22 57.7737 329.7 58.0404C330.18 58.3071 330.547 58.6337 330.8 59.0204C331.053 59.3937 331.18 59.8671 331.18 60.4404ZM337.83 52.5004C339.137 52.5004 340.104 52.7871 340.73 53.3604C341.357 53.9337 341.67 54.8471 341.67 56.1004V63.4004H340.39L340.05 61.8804H339.97C339.504 62.4671 339.01 62.9004 338.49 63.1804C337.984 63.4604 337.277 63.6004 336.37 63.6004C335.397 63.6004 334.59 63.3471 333.95 62.8404C333.31 62.3204 332.99 61.5137 332.99 60.4204C332.99 59.3537 333.41 58.5337 334.25 57.9604C335.09 57.3737 336.384 57.0537 338.13 57.0004L339.95 56.9404V56.3004C339.95 55.4071 339.757 54.7871 339.37 54.4404C338.984 54.0937 338.437 53.9204 337.73 53.9204C337.17 53.9204 336.637 54.0071 336.13 54.1804C335.624 54.3404 335.15 54.5271 334.71 54.7404L334.17 53.4204C334.637 53.1671 335.19 52.9537 335.83 52.7804C336.47 52.5937 337.137 52.5004 337.83 52.5004ZM338.35 58.2204C337.017 58.2737 336.09 58.4871 335.57 58.8604C335.064 59.2337 334.81 59.7604 334.81 60.4404C334.81 61.0404 334.99 61.4804 335.35 61.7604C335.724 62.0404 336.197 62.1804 336.77 62.1804C337.677 62.1804 338.43 61.9337 339.03 61.4404C339.63 60.9337 339.93 60.1604 339.93 59.1204V58.1604L338.35 58.2204ZM348.781 52.4804C349.488 52.4804 350.121 52.6137 350.681 52.8804C351.255 53.1471 351.741 53.5537 352.141 54.1004H352.241L352.481 52.6804H353.881V63.5804C353.881 65.1137 353.488 66.2671 352.701 67.0404C351.928 67.8137 350.721 68.2004 349.081 68.2004C347.508 68.2004 346.221 67.9737 345.221 67.5204V65.9004C346.275 66.4604 347.595 66.7404 349.181 66.7404C350.101 66.7404 350.821 66.4671 351.341 65.9204C351.875 65.3871 352.141 64.6537 352.141 63.7204V63.3004C352.141 63.1404 352.148 62.9137 352.161 62.6204C352.175 62.3137 352.188 62.1004 352.201 61.9804H352.121C351.401 63.0604 350.295 63.6004 348.801 63.6004C347.415 63.6004 346.328 63.1137 345.541 62.1404C344.768 61.1671 344.381 59.8071 344.381 58.0604C344.381 56.3537 344.768 55.0004 345.541 54.0004C346.328 52.9871 347.408 52.4804 348.781 52.4804ZM349.021 53.9604C348.128 53.9604 347.435 54.3204 346.941 55.0404C346.448 55.7471 346.201 56.7604 346.201 58.0804C346.201 59.4004 346.441 60.4137 346.921 61.1204C347.415 61.8137 348.128 62.1604 349.061 62.1604C350.141 62.1604 350.928 61.8737 351.421 61.3004C351.915 60.7137 352.161 59.7737 352.161 58.4804V58.0604C352.161 56.5937 351.908 55.5471 351.401 54.9204C350.895 54.2804 350.101 53.9604 349.021 53.9604ZM361.426 52.4804C362.346 52.4804 363.133 52.6804 363.786 53.0804C364.453 53.4804 364.959 54.0471 365.306 54.7804C365.666 55.5004 365.846 56.3471 365.846 57.3204V58.3804H358.506C358.533 59.5937 358.839 60.5204 359.426 61.1604C360.026 61.7871 360.859 62.1004 361.926 62.1004C362.606 62.1004 363.206 62.0404 363.726 61.9204C364.259 61.7871 364.806 61.6004 365.366 61.3604V62.9004C364.819 63.1404 364.279 63.3137 363.746 63.4204C363.213 63.5404 362.579 63.6004 361.846 63.6004C360.833 63.6004 359.933 63.3937 359.146 62.9804C358.373 62.5671 357.766 61.9537 357.326 61.1404C356.899 60.3137 356.686 59.3071 356.686 58.1204C356.686 56.9471 356.879 55.9404 357.266 55.1004C357.666 54.2604 358.219 53.6137 358.926 53.1604C359.646 52.7071 360.479 52.4804 361.426 52.4804ZM361.406 53.9204C360.566 53.9204 359.899 54.1937 359.406 54.7404C358.926 55.2737 358.639 56.0204 358.546 56.9804H364.006C363.993 56.0737 363.779 55.3404 363.366 54.7804C362.953 54.2071 362.299 53.9204 361.406 53.9204ZM368.315 62.3204C368.315 61.8271 368.435 61.4804 368.675 61.2804C368.915 61.0804 369.202 60.9804 369.535 60.9804C369.882 60.9804 370.175 61.0804 370.415 61.2804C370.668 61.4804 370.795 61.8271 370.795 62.3204C370.795 62.8004 370.668 63.1471 370.415 63.3604C370.175 63.5737 369.882 63.6804 369.535 63.6804C369.202 63.6804 368.915 63.5737 368.675 63.3604C368.435 63.1471 368.315 62.8004 368.315 62.3204Z" fill="black"/>
<rect x="141" y="91.2002" width="577" height="174" rx="3" fill="white"/>
<rect x="141" y="91.2002" width="577" height="174" rx="3" stroke="black" stroke-width="2"/>
<path d="M10.88 184H9.456V172.576H15.472V173.84H10.88V177.888H15.184V179.152H10.88V184ZM18.5314 175.424V184H17.1394V175.424H18.5314ZM17.8434 172.208C18.0567 172.208 18.2434 172.283 18.4034 172.432C18.5634 172.571 18.6434 172.795 18.6434 173.104C18.6434 173.403 18.5634 173.627 18.4034 173.776C18.2434 173.925 18.0567 174 17.8434 174C17.6194 174 17.4274 173.925 17.2674 173.776C17.1074 173.627 17.0274 173.403 17.0274 173.104C17.0274 172.795 17.1074 172.571 17.2674 172.432C17.4274 172.283 17.6194 172.208 17.8434 172.208ZM24.1969 175.264C24.8902 175.264 25.4875 175.424 25.9889 175.744C26.4902 176.064 26.8742 176.517 27.1409 177.104C27.4182 177.68 27.5569 178.357 27.5569 179.136V179.984H22.0529C22.0742 180.955 22.3035 181.696 22.7409 182.208C23.1782 182.709 23.7915 182.96 24.5809 182.96C25.0929 182.96 25.5462 182.912 25.9409 182.816C26.3462 182.709 26.7622 182.56 27.1889 182.368V183.6C26.7729 183.792 26.3622 183.931 25.9569 184.016C25.5622 184.112 25.0822 184.16 24.5169 184.16C23.7489 184.16 23.0715 183.995 22.4849 183.664C21.8982 183.333 21.4395 182.843 21.1089 182.192C20.7782 181.531 20.6129 180.725 20.6129 179.776C20.6129 178.837 20.7622 178.032 21.0609 177.36C21.3595 176.688 21.7755 176.171 22.3089 175.808C22.8529 175.445 23.4822 175.264 24.1969 175.264ZM24.1969 176.416C23.5782 176.416 23.0875 176.635 22.7249 177.072C22.3622 177.499 22.1489 178.096 22.0849 178.864H26.1169C26.1169 178.373 26.0475 177.947 25.9089 177.584C25.7702 177.221 25.5569 176.939 25.2689 176.736C24.9915 176.523 24.6342 176.416 24.1969 176.416ZM30.9685 184H29.5765V171.84H30.9685V184ZM36.3464 184.16C35.3544 184.16 34.5544 183.792 33.9464 183.056C33.349 182.309 33.0504 181.2 33.0504 179.728C33.0504 178.256 33.3544 177.147 33.9624 176.4C34.5704 175.643 35.3704 175.264 36.3624 175.264C36.7784 175.264 37.141 175.323 37.4504 175.44C37.7597 175.547 38.0264 175.696 38.2504 175.888C38.485 176.08 38.6824 176.293 38.8424 176.528H38.9384C38.9277 176.389 38.9064 176.187 38.8744 175.92C38.853 175.643 38.8424 175.424 38.8424 175.264V171.84H40.2344V184H39.1144L38.9064 182.848H38.8424C38.6824 183.093 38.485 183.317 38.2504 183.52C38.0264 183.712 37.7544 183.867 37.4344 183.984C37.125 184.101 36.7624 184.16 36.3464 184.16ZM36.6024 182.992C37.4344 182.992 38.0157 182.747 38.3464 182.256C38.6877 181.755 38.8584 181.003 38.8584 180V179.744C38.8584 178.677 38.6984 177.861 38.3784 177.296C38.0584 176.72 37.461 176.432 36.5864 176.432C35.8824 176.432 35.3544 176.736 35.0024 177.344C34.661 177.941 34.4904 178.747 34.4904 179.76C34.4904 180.784 34.661 181.579 35.0024 182.144C35.3544 182.709 35.8877 182.992 36.6024 182.992Z" fill="black"/>
<rect x="1" y="160" width="50.0492" height="36" stroke="#B3800F" stroke-width="2"/>
<line x1="127" y1="179" x2="52.0492" y2="179" stroke="#B3800F" stroke-width="2"/>
<path d="M468.232 62.9941H466.808V57.6661H461.4V62.9941H459.976V51.5701H461.4V56.4021H466.808V51.5701H468.232V62.9941ZM472.379 54.4181V62.9941H470.987V54.4181H472.379ZM471.691 51.2021C471.904 51.2021 472.091 51.2768 472.251 51.4261C472.411 51.5648 472.491 51.7888 472.491 52.0981C472.491 52.3968 472.411 52.6208 472.251 52.7701C472.091 52.9195 471.904 52.9941 471.691 52.9941C471.467 52.9941 471.275 52.9195 471.115 52.7701C470.955 52.6208 470.875 52.3968 470.875 52.0981C470.875 51.7888 470.955 51.5648 471.115 51.4261C471.275 51.2768 471.467 51.2021 471.691 51.2021ZM478.845 54.2581C479.805 54.2581 480.53 54.5088 481.021 55.0101C481.522 55.5008 481.773 56.3008 481.773 57.4101V62.9941H480.381V57.5061C480.381 56.8128 480.237 56.2955 479.949 55.9541C479.661 55.6128 479.218 55.4421 478.621 55.4421C477.746 55.4421 477.138 55.7088 476.797 56.2421C476.466 56.7755 476.301 57.5435 476.301 58.5461V62.9941H474.909V54.4181H476.029L476.237 55.5861H476.317C476.487 55.2875 476.706 55.0421 476.973 54.8501C477.239 54.6475 477.533 54.4981 477.853 54.4021C478.173 54.3061 478.503 54.2581 478.845 54.2581ZM487.02 62.0021C487.223 62.0021 487.431 61.9861 487.644 61.9541C487.858 61.9115 488.034 61.8688 488.172 61.8261V62.8981C488.023 62.9728 487.81 63.0315 487.532 63.0741C487.266 63.1275 487.01 63.1541 486.764 63.1541C486.338 63.1541 485.943 63.0795 485.58 62.9301C485.218 62.7701 484.924 62.4981 484.7 62.1141C484.487 61.7301 484.38 61.1915 484.38 60.4981V55.5061H483.244V54.8341L484.412 54.2741L484.94 52.4501H485.772V54.4181H488.108V55.5061H485.772V60.4661C485.772 60.9888 485.89 61.3781 486.124 61.6341C486.359 61.8795 486.658 62.0021 487.02 62.0021ZM496.442 62.0021C496.645 62.0021 496.853 61.9861 497.066 61.9541C497.279 61.9115 497.455 61.8688 497.594 61.8261V62.8981C497.445 62.9728 497.231 63.0315 496.954 63.0741C496.687 63.1275 496.431 63.1541 496.186 63.1541C495.759 63.1541 495.365 63.0795 495.002 62.9301C494.639 62.7701 494.346 62.4981 494.122 62.1141C493.909 61.7301 493.802 61.1915 493.802 60.4981V55.5061H492.666V54.8341L493.834 54.2741L494.362 52.4501H495.194V54.4181H497.53V55.5061H495.194V60.4661C495.194 60.9888 495.311 61.3781 495.546 61.6341C495.781 61.8795 496.079 62.0021 496.442 62.0021ZM502.326 54.2581C503.019 54.2581 503.616 54.4181 504.118 54.7381C504.619 55.0581 505.003 55.5115 505.27 56.0981C505.547 56.6741 505.686 57.3515 505.686 58.1301V58.9781H500.182C500.203 59.9488 500.432 60.6901 500.87 61.2021C501.307 61.7035 501.92 61.9541 502.71 61.9541C503.222 61.9541 503.675 61.9061 504.07 61.8101C504.475 61.7035 504.891 61.5541 505.318 61.3621V62.5941C504.902 62.7861 504.491 62.9248 504.086 63.0101C503.691 63.1061 503.211 63.1541 502.646 63.1541C501.878 63.1541 501.2 62.9888 500.614 62.6581C500.027 62.3275 499.568 61.8368 499.238 61.1861C498.907 60.5248 498.742 59.7195 498.742 58.7701C498.742 57.8315 498.891 57.0261 499.19 56.3541C499.488 55.6821 499.904 55.1648 500.438 54.8021C500.982 54.4395 501.611 54.2581 502.326 54.2581ZM502.326 55.4101C501.707 55.4101 501.216 55.6288 500.854 56.0661C500.491 56.4928 500.278 57.0901 500.214 57.8581H504.246C504.246 57.3675 504.176 56.9408 504.038 56.5781C503.899 56.2155 503.686 55.9328 503.398 55.7301C503.12 55.5168 502.763 55.4101 502.326 55.4101ZM509.313 58.6101L506.529 54.4181H508.113L510.161 57.6501L512.177 54.4181H513.761L510.977 58.6101L513.905 62.9941H512.321L510.161 59.5701L507.969 62.9941H506.401L509.313 58.6101ZM518.192 62.0021C518.395 62.0021 518.603 61.9861 518.816 61.9541C519.029 61.9115 519.205 61.8688 519.344 61.8261V62.8981C519.195 62.9728 518.981 63.0315 518.704 63.0741C518.437 63.1275 518.181 63.1541 517.936 63.1541C517.509 63.1541 517.115 63.0795 516.752 62.9301C516.389 62.7701 516.096 62.4981 515.872 62.1141C515.659 61.7301 515.552 61.1915 515.552 60.4981V55.5061H514.416V54.8341L515.584 54.2741L516.112 52.4501H516.944V54.4181H519.28V55.5061H516.944V60.4661C516.944 60.9888 517.061 61.3781 517.296 61.6341C517.531 61.8795 517.829 62.0021 518.192 62.0021Z" fill="black"/>
<rect x="451.52" y="38.9941" width="75.48" height="36" stroke="#B3800F" stroke-width="2"/>
<line x1="450.52" y1="57.9941" x2="379" y2="57.9941" stroke="#B3800F" stroke-width="2"/>
<path d="M12.912 25H11.488V14.84H8.16V13.576H16.208V14.84H12.912V25ZM19.7281 16.264C20.4215 16.264 21.0188 16.424 21.5201 16.744C22.0215 17.064 22.4055 17.5173 22.6721 18.104C22.9495 18.68 23.0881 19.3573 23.0881 20.136V20.984H17.5841C17.6055 21.9547 17.8348 22.696 18.2721 23.208C18.7095 23.7093 19.3228 23.96 20.1121 23.96C20.6241 23.96 21.0775 23.912 21.4721 23.816C21.8775 23.7093 22.2935 23.56 22.7201 23.368V24.6C22.3041 24.792 21.8935 24.9307 21.4881 25.016C21.0935 25.112 20.6135 25.16 20.0481 25.16C19.2801 25.16 18.6028 24.9947 18.0161 24.664C17.4295 24.3333 16.9708 23.8427 16.6401 23.192C16.3095 22.5307 16.1441 21.7253 16.1441 20.776C16.1441 19.8373 16.2935 19.032 16.5921 18.36C16.8908 17.688 17.3068 17.1707 17.8401 16.808C18.3841 16.4453 19.0135 16.264 19.7281 16.264ZM19.7281 17.416C19.1095 17.416 18.6188 17.6347 18.2561 18.072C17.8935 18.4987 17.6801 19.096 17.6161 19.864H21.6481C21.6481 19.3733 21.5788 18.9467 21.4401 18.584C21.3015 18.2213 21.0881 17.9387 20.8001 17.736C20.5228 17.5227 20.1655 17.416 19.7281 17.416ZM26.7149 20.616L23.9309 16.424H25.5149L27.5629 19.656L29.5789 16.424H31.1629L28.3789 20.616L31.3069 25H29.7229L27.5629 21.576L25.3709 25H23.8029L26.7149 20.616ZM35.5945 24.008C35.7972 24.008 36.0052 23.992 36.2185 23.96C36.4318 23.9173 36.6078 23.8747 36.7465 23.832V24.904C36.5972 24.9787 36.3838 25.0373 36.1065 25.08C35.8398 25.1333 35.5838 25.16 35.3385 25.16C34.9118 25.16 34.5172 25.0853 34.1545 24.936C33.7918 24.776 33.4985 24.504 33.2745 24.12C33.0612 23.736 32.9545 23.1973 32.9545 22.504V17.512H31.8185V16.84L32.9865 16.28L33.5145 14.456H34.3465V16.424H36.6825V17.512H34.3465V22.472C34.3465 22.9947 34.4638 23.384 34.6985 23.64C34.9332 23.8853 35.2318 24.008 35.5945 24.008ZM45.3364 16.28C46.3177 16.28 47.0484 16.5093 47.5284 16.968C48.019 17.4267 48.2644 18.1573 48.2644 19.16V25H47.2564L46.9844 23.784H46.9204C46.6857 24.0933 46.4457 24.3547 46.2004 24.568C45.9657 24.7707 45.6884 24.92 45.3684 25.016C45.059 25.112 44.675 25.16 44.2164 25.16C43.7364 25.16 43.3044 25.0693 42.9204 24.888C42.5364 24.7067 42.2324 24.4293 42.0084 24.056C41.7844 23.672 41.6724 23.192 41.6724 22.616C41.6724 21.7627 41.987 21.1067 42.6164 20.648C43.2457 20.1787 44.2164 19.9227 45.5284 19.88L46.8884 19.832V19.32C46.8884 18.6053 46.7444 18.1093 46.4564 17.832C46.179 17.5547 45.779 17.416 45.2564 17.416C44.8404 17.416 44.4404 17.4853 44.0564 17.624C43.683 17.752 43.3257 17.9013 42.9844 18.072L42.5524 17.016C42.915 16.8133 43.3364 16.6427 43.8164 16.504C44.2964 16.3547 44.803 16.28 45.3364 16.28ZM45.7204 20.856C44.739 20.8987 44.0564 21.0693 43.6724 21.368C43.299 21.6667 43.1124 22.088 43.1124 22.632C43.1124 23.112 43.2457 23.464 43.5124 23.688C43.779 23.912 44.1257 24.024 44.5524 24.024C45.2137 24.024 45.7684 23.8267 46.2164 23.432C46.6644 23.0267 46.8884 22.408 46.8884 21.576V20.808L45.7204 20.856ZM54.5724 16.264C54.7217 16.264 54.8817 16.2747 55.0524 16.296C55.223 16.3067 55.3724 16.328 55.5004 16.36L55.3404 17.656C55.2124 17.624 55.0684 17.5973 54.9084 17.576C54.759 17.5547 54.615 17.544 54.4764 17.544C54.167 17.544 53.8737 17.6133 53.5964 17.752C53.319 17.8907 53.0684 18.088 52.8444 18.344C52.631 18.5893 52.4604 18.888 52.3324 19.24C52.2044 19.592 52.1404 19.9867 52.1404 20.424V25H50.7484V16.424H51.8844L52.0444 17.992H52.1084C52.279 17.672 52.4817 17.384 52.7164 17.128C52.9617 16.8613 53.239 16.6533 53.5484 16.504C53.8577 16.344 54.199 16.264 54.5724 16.264ZM59.8375 16.264C60.5308 16.264 61.1282 16.424 61.6295 16.744C62.1308 17.064 62.5148 17.5173 62.7815 18.104C63.0588 18.68 63.1975 19.3573 63.1975 20.136V20.984H57.6935C57.7148 21.9547 57.9442 22.696 58.3815 23.208C58.8188 23.7093 59.4322 23.96 60.2215 23.96C60.7335 23.96 61.1868 23.912 61.5815 23.816C61.9868 23.7093 62.4028 23.56 62.8295 23.368V24.6C62.4135 24.792 62.0028 24.9307 61.5975 25.016C61.2028 25.112 60.7228 25.16 60.1575 25.16C59.3895 25.16 58.7122 24.9947 58.1255 24.664C57.5388 24.3333 57.0802 23.8427 56.7495 23.192C56.4188 22.5307 56.2535 21.7253 56.2535 20.776C56.2535 19.8373 56.4028 19.032 56.7015 18.36C57.0002 17.688 57.4162 17.1707 57.9495 16.808C58.4935 16.4453 59.1228 16.264 59.8375 16.264ZM59.8375 17.416C59.2188 17.416 58.7282 17.6347 58.3655 18.072C58.0028 18.4987 57.7895 19.096 57.7255 19.864H61.7575C61.7575 19.3733 61.6882 18.9467 61.5495 18.584C61.4108 18.2213 61.1975 17.9387 60.9095 17.736C60.6322 17.5227 60.2748 17.416 59.8375 17.416ZM68.3051 16.28C69.2865 16.28 70.0171 16.5093 70.4971 16.968C70.9878 17.4267 71.2331 18.1573 71.2331 19.16V25H70.2251L69.9531 23.784H69.8891C69.6545 24.0933 69.4145 24.3547 69.1691 24.568C68.9345 24.7707 68.6571 24.92 68.3371 25.016C68.0278 25.112 67.6438 25.16 67.1851 25.16C66.7051 25.16 66.2731 25.0693 65.8891 24.888C65.5051 24.7067 65.2011 24.4293 64.9771 24.056C64.7531 23.672 64.6411 23.192 64.6411 22.616C64.6411 21.7627 64.9558 21.1067 65.5851 20.648C66.2145 20.1787 67.1851 19.9227 68.4971 19.88L69.8571 19.832V19.32C69.8571 18.6053 69.7131 18.1093 69.4251 17.832C69.1478 17.5547 68.7478 17.416 68.2251 17.416C67.8091 17.416 67.4091 17.4853 67.0251 17.624C66.6518 17.752 66.2945 17.9013 65.9531 18.072L65.5211 17.016C65.8838 16.8133 66.3051 16.6427 66.7851 16.504C67.2651 16.3547 67.7718 16.28 68.3051 16.28ZM68.6891 20.856C67.7078 20.8987 67.0251 21.0693 66.6411 21.368C66.2678 21.6667 66.0811 22.088 66.0811 22.632C66.0811 23.112 66.2145 23.464 66.4811 23.688C66.7478 23.912 67.0945 24.024 67.5211 24.024C68.1825 24.024 68.7371 23.8267 69.1851 23.432C69.6331 23.0267 69.8571 22.408 69.8571 21.576V20.808L68.6891 20.856ZM79.0154 25H77.6234V12.84H79.0154V25ZM84.6333 16.28C85.6146 16.28 86.3453 16.5093 86.8253 16.968C87.3159 17.4267 87.5613 18.1573 87.5613 19.16V25H86.5533L86.2813 23.784H86.2173C85.9826 24.0933 85.7426 24.3547 85.4973 24.568C85.2626 24.7707 84.9853 24.92 84.6653 25.016C84.3559 25.112 83.9719 25.16 83.5133 25.16C83.0333 25.16 82.6013 25.0693 82.2173 24.888C81.8333 24.7067 81.5293 24.4293 81.3053 24.056C81.0813 23.672 80.9693 23.192 80.9693 22.616C80.9693 21.7627 81.2839 21.1067 81.9133 20.648C82.5426 20.1787 83.5133 19.9227 84.8253 19.88L86.1853 19.832V19.32C86.1853 18.6053 86.0413 18.1093 85.7533 17.832C85.4759 17.5547 85.0759 17.416 84.5533 17.416C84.1373 17.416 83.7373 17.4853 83.3533 17.624C82.9799 17.752 82.6226 17.9013 82.2812 18.072L81.8493 17.016C82.2119 16.8133 82.6332 16.6427 83.1133 16.504C83.5933 16.3547 84.0999 16.28 84.6333 16.28ZM85.0173 20.856C84.0359 20.8987 83.3533 21.0693 82.9693 21.368C82.5959 21.6667 82.4093 22.088 82.4093 22.632C82.4093 23.112 82.5426 23.464 82.8093 23.688C83.0759 23.912 83.4226 24.024 83.8493 24.024C84.5106 24.024 85.0653 23.8267 85.5133 23.432C85.9613 23.0267 86.1853 22.408 86.1853 21.576V20.808L85.0173 20.856ZM91.4373 15.8C91.4373 16.1627 91.4266 16.504 91.4053 16.824C91.3946 17.1333 91.3786 17.3787 91.3573 17.56H91.4373C91.6613 17.1973 91.9759 16.8933 92.3813 16.648C92.7866 16.4027 93.2986 16.28 93.9173 16.28C94.9199 16.28 95.7199 16.6533 96.3173 17.4C96.9253 18.136 97.2292 19.24 97.2292 20.712C97.2292 21.6933 97.0906 22.5147 96.8133 23.176C96.5359 23.8373 96.1466 24.3333 95.6453 24.664C95.1546 24.9947 94.5786 25.16 93.9173 25.16C93.2879 25.16 92.7706 25.0373 92.3653 24.792C91.9706 24.5467 91.6613 24.2533 91.4373 23.912H91.3253L91.0533 25H90.0453V12.84H91.4373V15.8ZM93.6613 17.448C93.1066 17.448 92.6639 17.5653 92.3333 17.8C92.0133 18.024 91.7839 18.376 91.6453 18.856C91.5066 19.3253 91.4373 19.928 91.4373 20.664V20.728C91.4373 21.784 91.5919 22.5947 91.9013 23.16C92.2213 23.7147 92.8186 23.992 93.6933 23.992C94.3866 23.992 94.9093 23.7093 95.2613 23.144C95.6133 22.5787 95.7893 21.7627 95.7893 20.696C95.7893 19.6187 95.6133 18.808 95.2613 18.264C94.9093 17.72 94.3759 17.448 93.6613 17.448ZM102.447 16.264C103.14 16.264 103.738 16.424 104.239 16.744C104.74 17.064 105.124 17.5173 105.391 18.104C105.668 18.68 105.807 19.3573 105.807 20.136V20.984H100.303C100.324 21.9547 100.554 22.696 100.991 23.208C101.428 23.7093 102.042 23.96 102.831 23.96C103.343 23.96 103.796 23.912 104.191 23.816C104.596 23.7093 105.012 23.56 105.439 23.368V24.6C105.023 24.792 104.612 24.9307 104.207 25.016C103.812 25.112 103.332 25.16 102.767 25.16C101.999 25.16 101.322 24.9947 100.735 24.664C100.148 24.3333 99.6895 23.8427 99.3589 23.192C99.0282 22.5307 98.8629 21.7253 98.8629 20.776C98.8629 19.8373 99.0122 19.032 99.3109 18.36C99.6095 17.688 100.026 17.1707 100.559 16.808C101.103 16.4453 101.732 16.264 102.447 16.264ZM102.447 17.416C101.828 17.416 101.338 17.6347 100.975 18.072C100.612 18.4987 100.399 19.096 100.335 19.864H104.367C104.367 19.3733 104.298 18.9467 104.159 18.584C104.02 18.2213 103.807 17.9387 103.519 17.736C103.242 17.5227 102.884 17.416 102.447 17.416ZM109.219 25H107.827V12.84H109.219V25Z" fill="black"/>
<rect x="1" y="1" width="117" height="36" stroke="#B3800F" stroke-width="2"/>
<path d="M134 20L118 20" stroke="#B3800F" stroke-width="2"/>
</svg>
