<svg width="452" height="165" viewBox="0 0 452 165" fill="none" xmlns="http://www.w3.org/2000/svg">
<mask id="path-1-inside-1_60347_3146" fill="white">
<path d="M68 68H392V108H68V68Z"/>
</mask>
<path d="M68 68H392V108H68V68Z" fill="white"/>
<path d="M68 68V67H67V68H68ZM68 108H67V109H68V108ZM68 68V69H392V68V67H68V68ZM392 108V107H68V108V109H392V108ZM68 108H69V68H68H67V108H68Z" fill="#D6D9DD" mask="url(#path-1-inside-1_60347_3146)"/>
<path d="M88.032 90.944C88.032 91.9573 87.664 92.7467 86.928 93.312C86.192 93.8773 85.2 94.16 83.952 94.16C83.312 94.16 82.72 94.112 82.176 94.016C81.632 93.92 81.1787 93.7867 80.816 93.616V92.24C81.2 92.4107 81.6747 92.5653 82.24 92.704C82.816 92.8427 83.408 92.912 84.016 92.912C84.8693 92.912 85.5093 92.7467 85.936 92.416C86.3733 92.0853 86.592 91.6373 86.592 91.072C86.592 90.6987 86.512 90.384 86.352 90.128C86.192 89.872 85.9147 89.6373 85.52 89.424C85.136 89.2 84.5973 88.9653 83.904 88.72C82.9333 88.368 82.1973 87.936 81.696 87.424C81.2053 86.912 80.96 86.2133 80.96 85.328C80.96 84.72 81.1147 84.2027 81.424 83.776C81.7333 83.3387 82.16 83.0027 82.704 82.768C83.2587 82.5333 83.8933 82.416 84.608 82.416C85.2373 82.416 85.8133 82.4747 86.336 82.592C86.8587 82.7093 87.3333 82.864 87.76 83.056L87.312 84.288C86.9173 84.1173 86.4853 83.9733 86.016 83.856C85.5573 83.7387 85.0773 83.68 84.576 83.68C83.8613 83.68 83.3227 83.8347 82.96 84.144C82.5973 84.4427 82.416 84.8427 82.416 85.344C82.416 85.728 82.496 86.048 82.656 86.304C82.816 86.56 83.0773 86.7893 83.44 86.992C83.8027 87.1947 84.2933 87.4133 84.912 87.648C85.584 87.8933 86.1493 88.16 86.608 88.448C87.0773 88.7253 87.4293 89.0613 87.664 89.456C87.9093 89.8507 88.032 90.3467 88.032 90.944ZM93.4533 85.264C94.1893 85.264 94.8186 85.424 95.3413 85.744C95.8746 86.064 96.2799 86.5173 96.5573 87.104C96.8453 87.68 96.9893 88.3573 96.9893 89.136V89.984H91.1173C91.1386 90.9547 91.3839 91.696 91.8533 92.208C92.3333 92.7093 92.9999 92.96 93.8533 92.96C94.3973 92.96 94.8773 92.912 95.2933 92.816C95.7199 92.7093 96.1573 92.56 96.6053 92.368V93.6C96.1679 93.792 95.7359 93.9307 95.3093 94.016C94.8826 94.112 94.3759 94.16 93.7893 94.16C92.9786 94.16 92.2586 93.9947 91.6293 93.664C91.0106 93.3333 90.5253 92.8427 90.1733 92.192C89.8319 91.5307 89.6613 90.7253 89.6613 89.776C89.6613 88.8373 89.8159 88.032 90.1253 87.36C90.4453 86.688 90.8879 86.1707 91.4533 85.808C92.0293 85.4453 92.6959 85.264 93.4533 85.264ZM93.4373 86.416C92.7653 86.416 92.2319 86.6347 91.8373 87.072C91.4533 87.4987 91.2239 88.096 91.1493 88.864H95.5173C95.5066 88.1387 95.3359 87.552 95.0053 87.104C94.6746 86.6453 94.1519 86.416 93.4373 86.416ZM102.421 85.28C103.466 85.28 104.239 85.5093 104.741 85.968C105.242 86.4267 105.493 87.1573 105.493 88.16V94H104.469L104.197 92.784H104.133C103.759 93.2533 103.365 93.6 102.949 93.824C102.543 94.048 101.978 94.16 101.253 94.16C100.474 94.16 99.8285 93.9573 99.3165 93.552C98.8045 93.136 98.5485 92.4907 98.5485 91.616C98.5485 90.7627 98.8845 90.1067 99.5565 89.648C100.229 89.1787 101.263 88.9227 102.661 88.88L104.117 88.832V88.32C104.117 87.6053 103.962 87.1093 103.653 86.832C103.343 86.5547 102.906 86.416 102.341 86.416C101.893 86.416 101.466 86.4853 101.061 86.624C100.655 86.752 100.277 86.9013 99.9245 87.072L99.4925 86.016C99.8658 85.8133 100.309 85.6427 100.821 85.504C101.333 85.3547 101.866 85.28 102.421 85.28ZM102.837 89.856C101.77 89.8987 101.029 90.0693 100.613 90.368C100.207 90.6667 100.005 91.088 100.005 91.632C100.005 92.112 100.149 92.464 100.437 92.688C100.735 92.912 101.114 93.024 101.573 93.024C102.298 93.024 102.901 92.8267 103.381 92.432C103.861 92.0267 104.101 91.408 104.101 90.576V89.808L102.837 89.856ZM112.141 85.264C112.301 85.264 112.472 85.2747 112.653 85.296C112.845 85.3067 113.011 85.328 113.149 85.36L112.973 86.656C112.835 86.624 112.68 86.5973 112.509 86.576C112.349 86.5547 112.195 86.544 112.045 86.544C111.608 86.544 111.197 86.6667 110.813 86.912C110.429 87.1467 110.12 87.4827 109.885 87.92C109.661 88.3467 109.549 88.848 109.549 89.424V94H108.141V85.424H109.293L109.453 86.992H109.517C109.795 86.5227 110.152 86.1173 110.589 85.776C111.027 85.4347 111.544 85.264 112.141 85.264ZM117.878 94.16C117.121 94.16 116.443 94.0053 115.846 93.696C115.259 93.3867 114.795 92.9067 114.454 92.256C114.123 91.6053 113.958 90.7733 113.958 89.76C113.958 88.704 114.134 87.8453 114.486 87.184C114.838 86.5227 115.313 86.0373 115.91 85.728C116.518 85.4187 117.206 85.264 117.974 85.264C118.411 85.264 118.833 85.312 119.238 85.408C119.643 85.4933 119.974 85.6 120.23 85.728L119.798 86.896C119.542 86.8 119.243 86.7093 118.902 86.624C118.561 86.5387 118.241 86.496 117.942 86.496C116.257 86.496 115.414 87.5787 115.414 89.744C115.414 90.7787 115.617 91.5733 116.022 92.128C116.438 92.672 117.051 92.944 117.862 92.944C118.331 92.944 118.742 92.896 119.094 92.8C119.457 92.704 119.787 92.5867 120.086 92.448V93.696C119.798 93.8453 119.478 93.9573 119.126 94.032C118.785 94.1173 118.369 94.16 117.878 94.16ZM123.534 85.408C123.534 85.8347 123.507 86.2347 123.454 86.608H123.55C123.827 86.1707 124.2 85.84 124.67 85.616C125.15 85.392 125.667 85.28 126.222 85.28C127.267 85.28 128.051 85.5307 128.574 86.032C129.096 86.5227 129.358 87.3173 129.358 88.416V94H127.966V88.512C127.966 87.136 127.326 86.448 126.046 86.448C125.086 86.448 124.424 86.72 124.062 87.264C123.71 87.7973 123.534 88.5653 123.534 89.568V94H122.126V81.84H123.534V85.408ZM141.261 83.68C140.034 83.68 139.069 84.0907 138.365 84.912C137.661 85.7333 137.309 86.8587 137.309 88.288C137.309 89.7067 137.634 90.832 138.285 91.664C138.946 92.4853 139.933 92.896 141.245 92.896C141.746 92.896 142.221 92.8533 142.669 92.768C143.117 92.6827 143.554 92.576 143.981 92.448V93.696C143.554 93.856 143.111 93.9733 142.653 94.048C142.205 94.1227 141.666 94.16 141.037 94.16C139.874 94.16 138.903 93.92 138.125 93.44C137.346 92.96 136.759 92.2773 136.365 91.392C135.981 90.5067 135.789 89.4667 135.789 88.272C135.789 87.12 135.997 86.1067 136.413 85.232C136.839 84.3467 137.463 83.6587 138.285 83.168C139.106 82.6667 140.103 82.416 141.277 82.416C142.482 82.416 143.533 82.64 144.429 83.088L143.852 84.304C143.501 84.144 143.106 84 142.669 83.872C142.242 83.744 141.773 83.68 141.261 83.68ZM149.53 85.28C150.575 85.28 151.349 85.5093 151.85 85.968C152.351 86.4267 152.602 87.1573 152.602 88.16V94H151.578L151.306 92.784H151.242C150.869 93.2533 150.474 93.6 150.058 93.824C149.653 94.048 149.087 94.16 148.362 94.16C147.583 94.16 146.938 93.9573 146.426 93.552C145.914 93.136 145.658 92.4907 145.658 91.616C145.658 90.7627 145.994 90.1067 146.666 89.648C147.338 89.1787 148.373 88.9227 149.77 88.88L151.226 88.832V88.32C151.226 87.6053 151.071 87.1093 150.762 86.832C150.453 86.5547 150.015 86.416 149.45 86.416C149.002 86.416 148.575 86.4853 148.17 86.624C147.765 86.752 147.386 86.9013 147.034 87.072L146.602 86.016C146.975 85.8133 147.418 85.6427 147.93 85.504C148.442 85.3547 148.975 85.28 149.53 85.28ZM149.946 89.856C148.879 89.8987 148.138 90.0693 147.722 90.368C147.317 90.6667 147.114 91.088 147.114 91.632C147.114 92.112 147.258 92.464 147.546 92.688C147.845 92.912 148.223 93.024 148.682 93.024C149.407 93.024 150.01 92.8267 150.49 92.432C150.97 92.0267 151.21 91.408 151.21 90.576V89.808L149.946 89.856ZM159.379 85.264C160.403 85.264 161.176 85.5147 161.699 86.016C162.221 86.5067 162.483 87.3067 162.483 88.416V94H161.091V88.512C161.091 87.136 160.451 86.448 159.171 86.448C158.221 86.448 157.565 86.7147 157.203 87.248C156.84 87.7813 156.659 88.5493 156.659 89.552V94H155.251V85.424H156.387L156.595 86.592H156.675C156.952 86.144 157.336 85.8133 157.827 85.6C158.317 85.376 158.835 85.264 159.379 85.264ZM168.389 85.28C169.435 85.28 170.208 85.5093 170.709 85.968C171.211 86.4267 171.461 87.1573 171.461 88.16V94H170.437L170.165 92.784H170.101C169.728 93.2533 169.333 93.6 168.917 93.824C168.512 94.048 167.947 94.16 167.221 94.16C166.443 94.16 165.797 93.9573 165.285 93.552C164.773 93.136 164.517 92.4907 164.517 91.616C164.517 90.7627 164.853 90.1067 165.525 89.648C166.197 89.1787 167.232 88.9227 168.629 88.88L170.085 88.832V88.32C170.085 87.6053 169.931 87.1093 169.621 86.832C169.312 86.5547 168.875 86.416 168.309 86.416C167.861 86.416 167.435 86.4853 167.029 86.624C166.624 86.752 166.245 86.9013 165.893 87.072L165.461 86.016C165.835 85.8133 166.277 85.6427 166.789 85.504C167.301 85.3547 167.835 85.28 168.389 85.28ZM168.805 89.856C167.739 89.8987 166.997 90.0693 166.581 90.368C166.176 90.6667 165.973 91.088 165.973 91.632C165.973 92.112 166.117 92.464 166.405 92.688C166.704 92.912 167.083 93.024 167.541 93.024C168.267 93.024 168.869 92.8267 169.349 92.432C169.829 92.0267 170.069 91.408 170.069 90.576V89.808L168.805 89.856ZM177.15 94.16C176.083 94.16 175.23 93.792 174.59 93.056C173.95 92.3093 173.63 91.2 173.63 89.728C173.63 88.256 173.95 87.1467 174.59 86.4C175.241 85.6427 176.099 85.264 177.166 85.264C177.827 85.264 178.366 85.3867 178.782 85.632C179.209 85.8773 179.555 86.176 179.822 86.528H179.918C179.907 86.3893 179.886 86.1867 179.854 85.92C179.833 85.6427 179.822 85.424 179.822 85.264V81.84H181.23V94H180.094L179.886 92.848H179.822C179.566 93.2107 179.225 93.52 178.798 93.776C178.371 94.032 177.822 94.16 177.15 94.16ZM177.374 92.992C178.281 92.992 178.915 92.7467 179.278 92.256C179.651 91.7547 179.838 91.0027 179.838 90V89.744C179.838 88.6773 179.662 87.8613 179.31 87.296C178.958 86.72 178.307 86.432 177.358 86.432C176.601 86.432 176.03 86.736 175.646 87.344C175.273 87.9413 175.086 88.7467 175.086 89.76C175.086 90.784 175.273 91.5787 175.646 92.144C176.03 92.7093 176.606 92.992 177.374 92.992ZM187.202 85.28C188.247 85.28 189.02 85.5093 189.522 85.968C190.023 86.4267 190.274 87.1573 190.274 88.16V94H189.25L188.978 92.784H188.914C188.54 93.2533 188.146 93.6 187.73 93.824C187.324 94.048 186.759 94.16 186.034 94.16C185.255 94.16 184.61 93.9573 184.098 93.552C183.586 93.136 183.33 92.4907 183.33 91.616C183.33 90.7627 183.666 90.1067 184.338 89.648C185.01 89.1787 186.044 88.9227 187.442 88.88L188.898 88.832V88.32C188.898 87.6053 188.743 87.1093 188.434 86.832C188.124 86.5547 187.687 86.416 187.122 86.416C186.674 86.416 186.247 86.4853 185.842 86.624C185.436 86.752 185.058 86.9013 184.706 87.072L184.274 86.016C184.647 85.8133 185.09 85.6427 185.602 85.504C186.114 85.3547 186.647 85.28 187.202 85.28ZM187.618 89.856C186.551 89.8987 185.81 90.0693 185.394 90.368C184.988 90.6667 184.786 91.088 184.786 91.632C184.786 92.112 184.93 92.464 185.218 92.688C185.516 92.912 185.895 93.024 186.354 93.024C187.079 93.024 187.682 92.8267 188.162 92.432C188.642 92.0267 188.882 91.408 188.882 90.576V89.808L187.618 89.856ZM192.715 93.136C192.715 92.7413 192.811 92.464 193.003 92.304C193.195 92.144 193.424 92.064 193.691 92.064C193.968 92.064 194.203 92.144 194.395 92.304C194.597 92.464 194.699 92.7413 194.699 93.136C194.699 93.52 194.597 93.7973 194.395 93.968C194.203 94.1387 193.968 94.224 193.691 94.224C193.424 94.224 193.195 94.1387 193.003 93.968C192.811 93.7973 192.715 93.52 192.715 93.136ZM200.644 94.16C199.886 94.16 199.209 94.0053 198.612 93.696C198.025 93.3867 197.561 92.9067 197.22 92.256C196.889 91.6053 196.724 90.7733 196.724 89.76C196.724 88.704 196.9 87.8453 197.252 87.184C197.604 86.5227 198.078 86.0373 198.676 85.728C199.284 85.4187 199.972 85.264 200.74 85.264C201.177 85.264 201.598 85.312 202.004 85.408C202.409 85.4933 202.74 85.6 202.996 85.728L202.564 86.896C202.308 86.8 202.009 86.7093 201.668 86.624C201.326 86.5387 201.006 86.496 200.708 86.496C199.022 86.496 198.18 87.5787 198.18 89.744C198.18 90.7787 198.382 91.5733 198.788 92.128C199.204 92.672 199.817 92.944 200.628 92.944C201.097 92.944 201.508 92.896 201.86 92.8C202.222 92.704 202.553 92.5867 202.852 92.448V93.696C202.564 93.8453 202.244 93.9573 201.892 94.032C201.55 94.1173 201.134 94.16 200.644 94.16ZM208.139 85.28C209.185 85.28 209.958 85.5093 210.459 85.968C210.961 86.4267 211.211 87.1573 211.211 88.16V94H210.187L209.915 92.784H209.851C209.478 93.2533 209.083 93.6 208.667 93.824C208.262 94.048 207.697 94.16 206.971 94.16C206.193 94.16 205.547 93.9573 205.035 93.552C204.523 93.136 204.267 92.4907 204.267 91.616C204.267 90.7627 204.603 90.1067 205.275 89.648C205.947 89.1787 206.982 88.9227 208.379 88.88L209.835 88.832V88.32C209.835 87.6053 209.681 87.1093 209.371 86.832C209.062 86.5547 208.625 86.416 208.059 86.416C207.611 86.416 207.185 86.4853 206.779 86.624C206.374 86.752 205.995 86.9013 205.643 87.072L205.211 86.016C205.585 85.8133 206.027 85.6427 206.539 85.504C207.051 85.3547 207.585 85.28 208.139 85.28ZM208.555 89.856C207.489 89.8987 206.747 90.0693 206.331 90.368C205.926 90.6667 205.723 91.088 205.723 91.632C205.723 92.112 205.867 92.464 206.155 92.688C206.454 92.912 206.833 93.024 207.291 93.024C208.017 93.024 208.619 92.8267 209.099 92.432C209.579 92.0267 209.819 91.408 209.819 90.576V89.808L208.555 89.856Z" fill="#5C5C5C"/>
<rect width="40" height="40" transform="translate(392 68)" fill="#26374A"/>
<path fill-rule="evenodd" clip-rule="evenodd" d="M406.202 87.2686C406.202 90.0119 408.426 92.2359 411.17 92.2359C413.913 92.2359 416.137 90.0119 416.137 87.2686C416.137 84.5252 413.913 82.3013 411.17 82.3013C408.426 82.3013 406.202 84.5252 406.202 87.2686ZM403.719 87.2686C403.719 91.3836 407.055 94.7195 411.17 94.7195C412.815 94.7195 414.336 94.1863 415.568 93.2832L419.279 96.994L421 95.2026L417.301 91.5035C418.133 90.3009 418.621 88.8417 418.621 87.2686C418.621 83.1535 415.285 79.8176 411.17 79.8176C407.055 79.8176 403.719 83.1535 403.719 87.2686Z" fill="white"/>
<g clip-path="url(#clip0_60347_3146)">
<rect x="20" y="88" width="48" height="1" fill="#C54600"/>
<g clip-path="url(#clip1_60347_3146)">
<rect x="20" y="76" width="24" height="24" rx="12" fill="#C54600"/>
<path d="M33.5687 83.2727V92H31.7235V85.0241H31.6724L29.6738 86.277V84.6406L31.8343 83.2727H33.5687Z" fill="white"/>
</g>
</g>
<g clip-path="url(#clip2_60347_3146)">
<rect x="147" y="97" width="1" height="48" fill="#C54600"/>
<g clip-path="url(#clip3_60347_3146)">
<rect x="136" y="121" width="24" height="24" rx="12" fill="#C54600"/>
<path d="M144.928 137V135.67L148.035 132.794C148.299 132.538 148.52 132.308 148.699 132.104C148.881 131.899 149.019 131.699 149.113 131.503C149.206 131.304 149.253 131.089 149.253 130.859C149.253 130.604 149.195 130.384 149.079 130.199C148.962 130.011 148.803 129.868 148.601 129.768C148.4 129.666 148.171 129.615 147.915 129.615C147.648 129.615 147.415 129.669 147.216 129.777C147.018 129.885 146.864 130.04 146.756 130.241C146.648 130.443 146.594 130.683 146.594 130.962H144.843C144.843 130.391 144.972 129.895 145.231 129.474C145.489 129.054 145.851 128.729 146.317 128.499C146.783 128.268 147.32 128.153 147.928 128.153C148.553 128.153 149.097 128.264 149.56 128.486C150.026 128.705 150.388 129.009 150.647 129.398C150.905 129.787 151.035 130.233 151.035 130.736C151.035 131.065 150.969 131.391 150.839 131.712C150.711 132.033 150.482 132.389 150.153 132.781C149.823 133.17 149.358 133.638 148.759 134.183L147.485 135.432V135.491H151.15V137H144.928Z" fill="white"/>
</g>
<rect x="80" y="98" width="1" height="133" transform="rotate(-90 80 98)" fill="#C54600"/>
</g>
<g clip-path="url(#clip4_60347_3146)">
<rect x="412" y="20" width="1" height="48" fill="#C54600"/>
<g clip-path="url(#clip5_60347_3146)">
<rect x="400" y="20" width="24" height="24" rx="12" fill="#C54600"/>
<path d="M411.978 36.1193C411.342 36.1193 410.775 36.0099 410.278 35.7912C409.784 35.5696 409.393 35.2656 409.106 34.8793C408.822 34.4901 408.676 34.0412 408.667 33.5327H410.525C410.536 33.7457 410.606 33.9332 410.734 34.0952C410.865 34.2543 411.038 34.3778 411.254 34.4659C411.47 34.554 411.713 34.598 411.982 34.598C412.264 34.598 412.512 34.5483 412.728 34.4489C412.944 34.3494 413.113 34.2116 413.235 34.0355C413.357 33.8594 413.419 33.6562 413.419 33.4261C413.419 33.1932 413.353 32.9872 413.222 32.8082C413.095 32.6264 412.91 32.4844 412.669 32.3821C412.43 32.2798 412.146 32.2287 411.816 32.2287H411.002V30.8736H411.816C412.095 30.8736 412.34 30.8253 412.553 30.7287C412.769 30.6321 412.937 30.4986 413.056 30.3281C413.176 30.1548 413.235 29.9531 413.235 29.723C413.235 29.5043 413.183 29.3125 413.078 29.1477C412.975 28.9801 412.83 28.8494 412.643 28.7557C412.458 28.6619 412.242 28.6151 411.995 28.6151C411.745 28.6151 411.517 28.6605 411.309 28.7514C411.102 28.8395 410.936 28.9659 410.811 29.1307C410.686 29.2955 410.619 29.4886 410.61 29.7102H408.842C408.85 29.2074 408.994 28.7642 409.272 28.3807C409.551 27.9972 409.926 27.6974 410.397 27.4815C410.872 27.2628 411.407 27.1534 412.004 27.1534C412.606 27.1534 413.133 27.2628 413.585 27.4815C414.036 27.7003 414.387 27.9957 414.637 28.3679C414.89 28.7372 415.015 29.152 415.012 29.6122C415.015 30.1009 414.863 30.5085 414.556 30.8352C414.252 31.1619 413.856 31.3693 413.367 31.4574V31.5256C414.009 31.608 414.498 31.831 414.833 32.1946C415.171 32.5554 415.339 33.0071 415.336 33.5497C415.339 34.0469 415.195 34.4886 414.906 34.875C414.619 35.2614 414.222 35.5653 413.717 35.7869C413.211 36.0085 412.632 36.1193 411.978 36.1193Z" fill="white"/>
</g>
</g>
<defs>
<clipPath id="clip0_60347_3146">
<rect width="48" height="24" fill="white" transform="translate(20 76)"/>
</clipPath>
<clipPath id="clip1_60347_3146">
<rect x="20" y="76" width="24" height="24" rx="12" fill="white"/>
</clipPath>
<clipPath id="clip2_60347_3146">
<rect width="133" height="48" fill="white" transform="translate(80 97)"/>
</clipPath>
<clipPath id="clip3_60347_3146">
<rect x="136" y="121" width="24" height="24" rx="12" fill="white"/>
</clipPath>
<clipPath id="clip4_60347_3146">
<rect width="24" height="48" fill="white" transform="translate(400 20)"/>
</clipPath>
<clipPath id="clip5_60347_3146">
<rect x="400" y="20" width="24" height="24" rx="12" fill="white"/>
</clipPath>
</defs>
</svg>
