<svg width="792" height="118" viewBox="0 0 792 118" fill="none" xmlns="http://www.w3.org/2000/svg">
<path d="M49.8 22V7.72H52.82V19.5H58.62V22H49.8ZM65.3486 10.86C66.8153 10.86 67.9353 11.18 68.7086 11.82C69.4953 12.4467 69.8886 13.4133 69.8886 14.72V22H67.8086L67.2286 20.52H67.1486C66.6819 21.1067 66.1886 21.5333 65.6686 21.8C65.1486 22.0667 64.4353 22.2 63.5286 22.2C62.5553 22.2 61.7486 21.92 61.1086 21.36C60.4686 20.7867 60.1486 19.9133 60.1486 18.74C60.1486 17.58 60.5553 16.7267 61.3686 16.18C62.1819 15.62 63.4019 15.3133 65.0286 15.26L66.9286 15.2V14.72C66.9286 14.1467 66.7753 13.7267 66.4686 13.46C66.1753 13.1933 65.7619 13.06 65.2286 13.06C64.6953 13.06 64.1753 13.14 63.6686 13.3C63.1619 13.4467 62.6553 13.6333 62.1486 13.86L61.1686 11.84C61.7553 11.5333 62.4019 11.2933 63.1086 11.12C63.8286 10.9467 64.5753 10.86 65.3486 10.86ZM65.7686 16.98C64.8086 17.0067 64.1419 17.18 63.7686 17.5C63.3953 17.82 63.2086 18.24 63.2086 18.76C63.2086 19.2133 63.3419 19.54 63.6086 19.74C63.8753 19.9267 64.2219 20.02 64.6486 20.02C65.2886 20.02 65.8286 19.8333 66.2686 19.46C66.7086 19.0733 66.9286 18.5333 66.9286 17.84V16.94L65.7686 16.98ZM75.9189 10.34C75.9189 10.7533 75.9056 11.16 75.8789 11.56C75.8522 11.96 75.8256 12.2733 75.7989 12.5H75.9189C76.2122 12.0467 76.6056 11.6667 77.0989 11.36C77.5922 11.04 78.2322 10.88 79.0189 10.88C80.2456 10.88 81.2389 11.36 81.9989 12.32C82.7589 13.2667 83.1389 14.6667 83.1389 16.52C83.1389 18.3867 82.7522 19.8 81.9789 20.76C81.2056 21.72 80.1922 22.2 78.9389 22.2C78.1389 22.2 77.5056 22.06 77.0389 21.78C76.5856 21.4867 76.2122 21.16 75.9189 20.8H75.7189L75.2189 22H72.9389V6.8H75.9189V10.34ZM78.0589 13.26C77.2856 13.26 76.7389 13.5 76.4189 13.98C76.1122 14.46 75.9456 15.1933 75.9189 16.18V16.5C75.9189 17.5533 76.0722 18.3667 76.3789 18.94C76.6989 19.5 77.2722 19.78 78.0989 19.78C78.7122 19.78 79.1989 19.5 79.5589 18.94C79.9189 18.3667 80.0989 17.5467 80.0989 16.48C80.0989 15.4133 79.9122 14.6133 79.5389 14.08C79.1789 13.5333 78.6856 13.26 78.0589 13.26ZM90.0952 10.88C91.6018 10.88 92.7952 11.3133 93.6752 12.18C94.5552 13.0333 94.9952 14.2533 94.9952 15.84V17.28H87.9552C87.9818 18.12 88.2285 18.78 88.6952 19.26C89.1752 19.74 89.8352 19.98 90.6752 19.98C91.3818 19.98 92.0218 19.9133 92.5952 19.78C93.1685 19.6333 93.7618 19.4133 94.3752 19.12V21.42C93.8418 21.6867 93.2752 21.88 92.6752 22C92.0885 22.1333 91.3752 22.2 90.5352 22.2C89.4418 22.2 88.4752 22 87.6352 21.6C86.7952 21.1867 86.1352 20.5667 85.6552 19.74C85.1752 18.9133 84.9352 17.8733 84.9352 16.62C84.9352 15.34 85.1485 14.28 85.5752 13.44C86.0152 12.5867 86.6218 11.9467 87.3952 11.52C88.1685 11.0933 89.0685 10.88 90.0952 10.88ZM90.1152 13C89.5418 13 89.0618 13.1867 88.6752 13.56C88.3018 13.9333 88.0818 14.5133 88.0152 15.3H92.1952C92.1818 14.6333 92.0085 14.0867 91.6752 13.66C91.3418 13.22 90.8218 13 90.1152 13ZM100.392 22H97.4116V6.8H100.392V22Z" fill="#333333"/>
<path d="M110.8 16.52C110.8 14.8933 111.033 13.3267 111.5 11.82C111.98 10.3 112.727 8.93333 113.74 7.72H115.4C114.467 8.97333 113.76 10.3533 113.28 11.86C112.813 13.3667 112.58 14.9133 112.58 16.5C112.58 18.0467 112.813 19.5667 113.28 21.06C113.76 22.54 114.46 23.9067 115.38 25.16H113.74C112.727 23.9867 111.98 22.66 111.5 21.18C111.033 19.6867 110.8 18.1333 110.8 16.52ZM122.696 11.08C122.896 11.08 123.109 11.0933 123.336 11.12C123.576 11.1333 123.783 11.16 123.956 11.2L123.736 12.82C123.563 12.78 123.369 12.7467 123.156 12.72C122.956 12.6933 122.763 12.68 122.576 12.68C122.029 12.68 121.516 12.8333 121.036 13.14C120.556 13.4333 120.169 13.8533 119.876 14.4C119.596 14.9333 119.456 15.56 119.456 16.28V22H117.696V11.28H119.136L119.336 13.24H119.416C119.763 12.6533 120.209 12.1467 120.756 11.72C121.303 11.2933 121.949 11.08 122.696 11.08ZM129.707 11.08C130.627 11.08 131.414 11.28 132.067 11.68C132.734 12.08 133.241 12.6467 133.587 13.38C133.947 14.1 134.127 14.9467 134.127 15.92V16.98H126.787C126.814 18.1933 127.121 19.12 127.707 19.76C128.307 20.3867 129.141 20.7 130.207 20.7C130.887 20.7 131.487 20.64 132.007 20.52C132.541 20.3867 133.087 20.2 133.647 19.96V21.5C133.101 21.74 132.561 21.9133 132.027 22.02C131.494 22.14 130.861 22.2 130.127 22.2C129.114 22.2 128.214 21.9933 127.427 21.58C126.654 21.1667 126.047 20.5533 125.607 19.74C125.181 18.9133 124.967 17.9067 124.967 16.72C124.967 15.5467 125.161 14.54 125.547 13.7C125.947 12.86 126.501 12.2133 127.207 11.76C127.927 11.3067 128.761 11.08 129.707 11.08ZM129.687 12.52C128.847 12.52 128.181 12.7933 127.687 13.34C127.207 13.8733 126.921 14.62 126.827 15.58H132.287C132.274 14.6733 132.061 13.94 131.647 13.38C131.234 12.8067 130.581 12.52 129.687 12.52ZM143.996 22.22C143.996 21.98 144.003 21.7 144.016 21.38C144.03 21.06 144.056 20.7867 144.096 20.56H143.976C143.67 21.0133 143.243 21.4 142.696 21.72C142.163 22.04 141.47 22.2 140.616 22.2C139.323 22.2 138.27 21.74 137.456 20.82C136.656 19.8867 136.256 18.5 136.256 16.66C136.256 14.82 136.663 13.4333 137.476 12.5C138.303 11.5533 139.37 11.08 140.676 11.08C141.516 11.08 142.203 11.24 142.736 11.56C143.27 11.88 143.696 12.2733 144.016 12.74H144.096L144.356 11.28H145.756V26.8H143.996V22.22ZM140.956 20.74C142.063 20.74 142.843 20.44 143.296 19.84C143.763 19.2267 144.003 18.2933 144.016 17.04V16.68C144.016 15.32 143.79 14.2933 143.336 13.6C142.883 12.8933 142.076 12.54 140.916 12.54C139.956 12.54 139.243 12.92 138.776 13.68C138.31 14.4267 138.076 15.4333 138.076 16.7C138.076 17.9667 138.31 18.96 138.776 19.68C139.256 20.3867 139.983 20.74 140.956 20.74ZM158.121 11.28V22H156.681L156.421 20.58H156.341C155.994 21.14 155.514 21.5533 154.901 21.82C154.288 22.0733 153.634 22.2 152.941 22.2C151.648 22.2 150.674 21.8933 150.021 21.28C149.368 20.6533 149.041 19.66 149.041 18.3V11.28H150.821V18.18C150.821 19.8867 151.614 20.74 153.201 20.74C154.388 20.74 155.208 20.4067 155.661 19.74C156.128 19.0733 156.361 18.1133 156.361 16.86V11.28H158.121ZM162.424 7.26C162.691 7.26 162.924 7.35333 163.124 7.54C163.338 7.71333 163.444 7.99333 163.444 8.38C163.444 8.75333 163.338 9.03333 163.124 9.22C162.924 9.40667 162.691 9.5 162.424 9.5C162.131 9.5 161.884 9.40667 161.684 9.22C161.484 9.03333 161.384 8.75333 161.384 8.38C161.384 7.99333 161.484 7.71333 161.684 7.54C161.884 7.35333 162.131 7.26 162.424 7.26ZM163.284 11.28V22H161.524V11.28H163.284ZM171.68 11.08C171.88 11.08 172.094 11.0933 172.32 11.12C172.56 11.1333 172.767 11.16 172.94 11.2L172.72 12.82C172.547 12.78 172.354 12.7467 172.14 12.72C171.94 12.6933 171.747 12.68 171.56 12.68C171.014 12.68 170.5 12.8333 170.02 13.14C169.54 13.4333 169.154 13.8533 168.86 14.4C168.58 14.9333 168.44 15.56 168.44 16.28V22H166.68V11.28H168.12L168.32 13.24H168.4C168.747 12.6533 169.194 12.1467 169.74 11.72C170.287 11.2933 170.934 11.08 171.68 11.08ZM178.692 11.08C179.612 11.08 180.398 11.28 181.052 11.68C181.718 12.08 182.225 12.6467 182.572 13.38C182.932 14.1 183.112 14.9467 183.112 15.92V16.98H175.772C175.798 18.1933 176.105 19.12 176.692 19.76C177.292 20.3867 178.125 20.7 179.192 20.7C179.872 20.7 180.472 20.64 180.992 20.52C181.525 20.3867 182.072 20.2 182.632 19.96V21.5C182.085 21.74 181.545 21.9133 181.012 22.02C180.478 22.14 179.845 22.2 179.112 22.2C178.098 22.2 177.198 21.9933 176.412 21.58C175.638 21.1667 175.032 20.5533 174.592 19.74C174.165 18.9133 173.952 17.9067 173.952 16.72C173.952 15.5467 174.145 14.54 174.532 13.7C174.932 12.86 175.485 12.2133 176.192 11.76C176.912 11.3067 177.745 11.08 178.692 11.08ZM178.672 12.52C177.832 12.52 177.165 12.7933 176.672 13.34C176.192 13.8733 175.905 14.62 175.812 15.58H181.272C181.258 14.6733 181.045 13.94 180.632 13.38C180.218 12.8067 179.565 12.52 178.672 12.52ZM189.641 22.2C188.307 22.2 187.241 21.74 186.441 20.82C185.641 19.8867 185.241 18.5 185.241 16.66C185.241 14.82 185.641 13.4333 186.441 12.5C187.254 11.5533 188.327 11.08 189.661 11.08C190.487 11.08 191.161 11.2333 191.681 11.54C192.214 11.8467 192.647 12.22 192.981 12.66H193.101C193.087 12.4867 193.061 12.2333 193.021 11.9C192.994 11.5533 192.981 11.28 192.981 11.08V6.8H194.741V22H193.321L193.061 20.56H192.981C192.661 21.0133 192.234 21.4 191.701 21.72C191.167 22.04 190.481 22.2 189.641 22.2ZM189.921 20.74C191.054 20.74 191.847 20.4333 192.301 19.82C192.767 19.1933 193.001 18.2533 193.001 17V16.68C193.001 15.3467 192.781 14.3267 192.341 13.62C191.901 12.9 191.087 12.54 189.901 12.54C188.954 12.54 188.241 12.92 187.761 13.68C187.294 14.4267 187.061 15.4333 187.061 16.7C187.061 17.98 187.294 18.9733 187.761 19.68C188.241 20.3867 188.961 20.74 189.921 20.74ZM201.645 16.52C201.645 18.1333 201.405 19.6867 200.925 21.18C200.459 22.66 199.719 23.9867 198.705 25.16H197.065C197.985 23.9067 198.679 22.54 199.145 21.06C199.625 19.5667 199.865 18.0467 199.865 16.5C199.865 14.9133 199.625 13.3667 199.145 11.86C198.679 10.3533 197.979 8.97333 197.045 7.72H198.705C199.719 8.93333 200.459 10.3 200.925 11.82C201.405 13.3267 201.645 14.8933 201.645 16.52Z" fill="#333333"/>
<path d="M60.86 54H59.06V47.34H51.74V54H49.94V39.72H51.74V45.76H59.06V39.72H60.86V54ZM65.4242 39.26C65.6909 39.26 65.9242 39.3533 66.1242 39.54C66.3376 39.7133 66.4442 39.9933 66.4442 40.38C66.4442 40.7533 66.3376 41.0333 66.1242 41.22C65.9242 41.4067 65.6909 41.5 65.4242 41.5C65.1309 41.5 64.8842 41.4067 64.6842 41.22C64.4842 41.0333 64.3842 40.7533 64.3842 40.38C64.3842 39.9933 64.4842 39.7133 64.6842 39.54C64.8842 39.3533 65.1309 39.26 65.4242 39.26ZM66.2842 43.28V54H64.5242V43.28H66.2842ZM74.8405 43.08C76.1205 43.08 77.0871 43.3933 77.7405 44.02C78.3938 44.6333 78.7205 45.6333 78.7205 47.02V54H76.9805V47.14C76.9805 45.42 76.1805 44.56 74.5805 44.56C73.3938 44.56 72.5738 44.8933 72.1205 45.56C71.6671 46.2267 71.4405 47.1867 71.4405 48.44V54H69.6805V43.28H71.1005L71.3605 44.74H71.4605C71.8071 44.18 72.2871 43.7667 72.9005 43.5C73.5138 43.22 74.1605 43.08 74.8405 43.08ZM85.6237 52.76C85.8904 52.76 86.1638 52.74 86.4438 52.7C86.7238 52.6467 86.9504 52.5933 87.1238 52.54V53.88C86.9371 53.9733 86.6704 54.0467 86.3238 54.1C85.9771 54.1667 85.6438 54.2 85.3238 54.2C84.7638 54.2 84.2438 54.1067 83.7638 53.92C83.2971 53.72 82.9171 53.38 82.6238 52.9C82.3304 52.42 82.1838 51.7467 82.1838 50.88V44.64H80.6638V43.8L82.2038 43.1L82.9038 40.82H83.9438V43.28H87.0438V44.64H83.9438V50.84C83.9438 51.4933 84.0971 51.98 84.4038 52.3C84.7238 52.6067 85.1304 52.76 85.6237 52.76ZM100.006 39.72L94.6856 54H92.9656L98.2856 39.72H100.006ZM115.322 54H107.342V39.72H115.322V41.3H109.142V45.76H114.962V47.32H109.142V52.42H115.322V54ZM120.756 48.52L117.056 43.28H119.056L121.816 47.32L124.556 43.28H126.536L122.836 48.52L126.736 54H124.736L121.816 49.72L118.856 54H116.876L120.756 48.52ZM132.862 43.1C134.168 43.1 135.135 43.3867 135.762 43.96C136.388 44.5333 136.702 45.4467 136.702 46.7V54H135.422L135.082 52.48H135.002C134.535 53.0667 134.042 53.5 133.522 53.78C133.015 54.06 132.308 54.2 131.402 54.2C130.428 54.2 129.622 53.9467 128.982 53.44C128.342 52.92 128.022 52.1133 128.022 51.02C128.022 49.9533 128.442 49.1333 129.282 48.56C130.122 47.9733 131.415 47.6533 133.162 47.6L134.982 47.54V46.9C134.982 46.0067 134.788 45.3867 134.402 45.04C134.015 44.6933 133.468 44.52 132.762 44.52C132.202 44.52 131.668 44.6067 131.162 44.78C130.655 44.94 130.182 45.1267 129.742 45.34L129.202 44.02C129.668 43.7667 130.222 43.5533 130.862 43.38C131.502 43.1933 132.168 43.1 132.862 43.1ZM133.382 48.82C132.048 48.8733 131.122 49.0867 130.602 49.46C130.095 49.8333 129.842 50.36 129.842 51.04C129.842 51.64 130.022 52.08 130.382 52.36C130.755 52.64 131.228 52.78 131.802 52.78C132.708 52.78 133.462 52.5333 134.062 52.04C134.662 51.5333 134.962 50.76 134.962 49.72V48.76L133.382 48.82ZM151.773 43.08C152.986 43.08 153.893 43.3933 154.493 44.02C155.093 44.6333 155.393 45.6333 155.393 47.02V54H153.653V47.1C153.653 45.4067 152.926 44.56 151.473 44.56C150.433 44.56 149.686 44.86 149.233 45.46C148.793 46.06 148.573 46.9333 148.573 48.08V54H146.833V47.1C146.833 45.4067 146.099 44.56 144.633 44.56C143.553 44.56 142.806 44.8933 142.393 45.56C141.979 46.2267 141.773 47.1867 141.773 48.44V54H140.013V43.28H141.433L141.693 44.74H141.793C142.126 44.18 142.573 43.7667 143.133 43.5C143.706 43.22 144.313 43.08 144.953 43.08C146.633 43.08 147.726 43.68 148.233 44.88H148.333C148.693 44.2667 149.179 43.8133 149.793 43.52C150.419 43.2267 151.079 43.08 151.773 43.08ZM163.804 43.08C165.124 43.08 166.184 43.54 166.984 44.46C167.797 45.38 168.204 46.7667 168.204 48.62C168.204 50.4467 167.797 51.8333 166.984 52.78C166.184 53.7267 165.117 54.2 163.784 54.2C162.957 54.2 162.271 54.0467 161.724 53.74C161.191 53.42 160.771 53.0533 160.464 52.64H160.344C160.371 52.8667 160.397 53.1533 160.424 53.5C160.451 53.8467 160.464 54.1467 160.464 54.4V58.8H158.704V43.28H160.144L160.384 44.74H160.464C160.784 44.2733 161.204 43.88 161.724 43.56C162.244 43.24 162.937 43.08 163.804 43.08ZM163.484 44.56C162.391 44.56 161.617 44.8667 161.164 45.48C160.724 46.0933 160.491 47.0267 160.464 48.28V48.62C160.464 49.94 160.677 50.96 161.104 51.68C161.544 52.3867 162.351 52.74 163.524 52.74C164.177 52.74 164.711 52.56 165.124 52.2C165.551 51.84 165.864 51.3533 166.064 50.74C166.277 50.1133 166.384 49.4 166.384 48.6C166.384 47.3733 166.144 46.3933 165.664 45.66C165.197 44.9267 164.471 44.56 163.484 44.56ZM172.769 54H171.009V38.8H172.769V54ZM180.305 43.08C181.225 43.08 182.012 43.28 182.665 43.68C183.332 44.08 183.838 44.6467 184.185 45.38C184.545 46.1 184.725 46.9467 184.725 47.92V48.98H177.385C177.412 50.1933 177.718 51.12 178.305 51.76C178.905 52.3867 179.738 52.7 180.805 52.7C181.485 52.7 182.085 52.64 182.605 52.52C183.138 52.3867 183.685 52.2 184.245 51.96V53.5C183.698 53.74 183.158 53.9133 182.625 54.02C182.092 54.14 181.458 54.2 180.725 54.2C179.712 54.2 178.812 53.9933 178.025 53.58C177.252 53.1667 176.645 52.5533 176.205 51.74C175.778 50.9133 175.565 49.9067 175.565 48.72C175.565 47.5467 175.758 46.54 176.145 45.7C176.545 44.86 177.098 44.2133 177.805 43.76C178.525 43.3067 179.358 43.08 180.305 43.08ZM180.285 44.52C179.445 44.52 178.778 44.7933 178.285 45.34C177.805 45.8733 177.518 46.62 177.425 47.58H182.885C182.872 46.6733 182.658 45.94 182.245 45.38C181.832 44.8067 181.178 44.52 180.285 44.52ZM204.409 43.08C205.623 43.08 206.529 43.3933 207.129 44.02C207.729 44.6333 208.029 45.6333 208.029 47.02V54H206.289V47.1C206.289 45.4067 205.563 44.56 204.109 44.56C203.069 44.56 202.323 44.86 201.869 45.46C201.429 46.06 201.209 46.9333 201.209 48.08V54H199.469V47.1C199.469 45.4067 198.736 44.56 197.269 44.56C196.189 44.56 195.443 44.8933 195.029 45.56C194.616 46.2267 194.409 47.1867 194.409 48.44V54H192.649V43.28H194.069L194.329 44.74H194.429C194.763 44.18 195.209 43.7667 195.769 43.5C196.343 43.22 196.949 43.08 197.589 43.08C199.269 43.08 200.363 43.68 200.869 44.88H200.969C201.329 44.2667 201.816 43.8133 202.429 43.52C203.056 43.2267 203.716 43.08 204.409 43.08ZM215.481 43.08C216.401 43.08 217.187 43.28 217.841 43.68C218.507 44.08 219.014 44.6467 219.361 45.38C219.721 46.1 219.901 46.9467 219.901 47.92V48.98H212.561C212.587 50.1933 212.894 51.12 213.481 51.76C214.081 52.3867 214.914 52.7 215.981 52.7C216.661 52.7 217.261 52.64 217.781 52.52C218.314 52.3867 218.861 52.2 219.421 51.96V53.5C218.874 53.74 218.334 53.9133 217.801 54.02C217.267 54.14 216.634 54.2 215.901 54.2C214.887 54.2 213.987 53.9933 213.201 53.58C212.427 53.1667 211.821 52.5533 211.381 51.74C210.954 50.9133 210.741 49.9067 210.741 48.72C210.741 47.5467 210.934 46.54 211.321 45.7C211.721 44.86 212.274 44.2133 212.981 43.76C213.701 43.3067 214.534 43.08 215.481 43.08ZM215.461 44.52C214.621 44.52 213.954 44.7933 213.461 45.34C212.981 45.8733 212.694 46.62 212.601 47.58H218.061C218.047 46.6733 217.834 45.94 217.421 45.38C217.007 44.8067 216.354 44.52 215.461 44.52ZM229.61 51.04C229.61 52.08 229.223 52.8667 228.45 53.4C227.676 53.9333 226.636 54.2 225.33 54.2C224.583 54.2 223.936 54.14 223.39 54.02C222.856 53.9 222.383 53.7333 221.97 53.52V51.92C222.396 52.1333 222.91 52.3333 223.51 52.52C224.123 52.6933 224.743 52.78 225.37 52.78C226.263 52.78 226.91 52.64 227.31 52.36C227.71 52.0667 227.91 51.68 227.91 51.2C227.91 50.9333 227.836 50.6933 227.69 50.48C227.543 50.2667 227.276 50.0533 226.89 49.84C226.516 49.6267 225.976 49.3867 225.27 49.12C224.576 48.8533 223.983 48.5867 223.49 48.32C222.996 48.0533 222.616 47.7333 222.35 47.36C222.083 46.9867 221.95 46.5067 221.95 45.92C221.95 45.0133 222.316 44.3133 223.05 43.82C223.796 43.3267 224.77 43.08 225.97 43.08C226.623 43.08 227.23 43.1467 227.79 43.28C228.363 43.4 228.896 43.5733 229.39 43.8L228.79 45.2C228.336 45.0133 227.863 44.8533 227.37 44.72C226.876 44.5867 226.37 44.52 225.85 44.52C225.13 44.52 224.576 44.64 224.19 44.88C223.816 45.1067 223.63 45.42 223.63 45.82C223.63 46.1133 223.716 46.3667 223.89 46.58C224.063 46.78 224.35 46.98 224.75 47.18C225.163 47.3667 225.71 47.5933 226.39 47.86C227.07 48.1133 227.65 48.3733 228.13 48.64C228.61 48.9067 228.976 49.2333 229.23 49.62C229.483 49.9933 229.61 50.4667 229.61 51.04ZM239.18 51.04C239.18 52.08 238.793 52.8667 238.02 53.4C237.247 53.9333 236.207 54.2 234.9 54.2C234.153 54.2 233.507 54.14 232.96 54.02C232.427 53.9 231.953 53.7333 231.54 53.52V51.92C231.967 52.1333 232.48 52.3333 233.08 52.52C233.693 52.6933 234.313 52.78 234.94 52.78C235.833 52.78 236.48 52.64 236.88 52.36C237.28 52.0667 237.48 51.68 237.48 51.2C237.48 50.9333 237.407 50.6933 237.26 50.48C237.113 50.2667 236.847 50.0533 236.46 49.84C236.087 49.6267 235.547 49.3867 234.84 49.12C234.147 48.8533 233.553 48.5867 233.06 48.32C232.567 48.0533 232.187 47.7333 231.92 47.36C231.653 46.9867 231.52 46.5067 231.52 45.92C231.52 45.0133 231.887 44.3133 232.62 43.82C233.367 43.3267 234.34 43.08 235.54 43.08C236.193 43.08 236.8 43.1467 237.36 43.28C237.933 43.4 238.467 43.5733 238.96 43.8L238.36 45.2C237.907 45.0133 237.433 44.8533 236.94 44.72C236.447 44.5867 235.94 44.52 235.42 44.52C234.7 44.52 234.147 44.64 233.76 44.88C233.387 45.1067 233.2 45.42 233.2 45.82C233.2 46.1133 233.287 46.3667 233.46 46.58C233.633 46.78 233.92 46.98 234.32 47.18C234.733 47.3667 235.28 47.5933 235.96 47.86C236.64 48.1133 237.22 48.3733 237.7 48.64C238.18 48.9067 238.547 49.2333 238.8 49.62C239.053 49.9933 239.18 50.4667 239.18 51.04ZM245.83 43.1C247.137 43.1 248.104 43.3867 248.73 43.96C249.357 44.5333 249.67 45.4467 249.67 46.7V54H248.39L248.05 52.48H247.97C247.504 53.0667 247.01 53.5 246.49 53.78C245.984 54.06 245.277 54.2 244.37 54.2C243.397 54.2 242.59 53.9467 241.95 53.44C241.31 52.92 240.99 52.1133 240.99 51.02C240.99 49.9533 241.41 49.1333 242.25 48.56C243.09 47.9733 244.384 47.6533 246.13 47.6L247.95 47.54V46.9C247.95 46.0067 247.757 45.3867 247.37 45.04C246.984 44.6933 246.437 44.52 245.73 44.52C245.17 44.52 244.637 44.6067 244.13 44.78C243.624 44.94 243.15 45.1267 242.71 45.34L242.17 44.02C242.637 43.7667 243.19 43.5533 243.83 43.38C244.47 43.1933 245.137 43.1 245.83 43.1ZM246.35 48.82C245.017 48.8733 244.09 49.0867 243.57 49.46C243.064 49.8333 242.81 50.36 242.81 51.04C242.81 51.64 242.99 52.08 243.35 52.36C243.724 52.64 244.197 52.78 244.77 52.78C245.677 52.78 246.43 52.5333 247.03 52.04C247.63 51.5333 247.93 50.76 247.93 49.72V48.76L246.35 48.82ZM256.781 43.08C257.488 43.08 258.121 43.2133 258.681 43.48C259.255 43.7467 259.741 44.1533 260.141 44.7H260.241L260.481 43.28H261.881V54.18C261.881 55.7133 261.488 56.8667 260.701 57.64C259.928 58.4133 258.721 58.8 257.081 58.8C255.508 58.8 254.221 58.5733 253.221 58.12V56.5C254.275 57.06 255.595 57.34 257.181 57.34C258.101 57.34 258.821 57.0667 259.341 56.52C259.875 55.9867 260.141 55.2533 260.141 54.32V53.9C260.141 53.74 260.148 53.5133 260.161 53.22C260.175 52.9133 260.188 52.7 260.201 52.58H260.121C259.401 53.66 258.295 54.2 256.801 54.2C255.415 54.2 254.328 53.7133 253.541 52.74C252.768 51.7667 252.381 50.4067 252.381 48.66C252.381 46.9533 252.768 45.6 253.541 44.6C254.328 43.5867 255.408 43.08 256.781 43.08ZM257.021 44.56C256.128 44.56 255.435 44.92 254.941 45.64C254.448 46.3467 254.201 47.36 254.201 48.68C254.201 50 254.441 51.0133 254.921 51.72C255.415 52.4133 256.128 52.76 257.061 52.76C258.141 52.76 258.928 52.4733 259.421 51.9C259.915 51.3133 260.161 50.3733 260.161 49.08V48.66C260.161 47.1933 259.908 46.1467 259.401 45.52C258.895 44.88 258.101 44.56 257.021 44.56ZM269.426 43.08C270.346 43.08 271.133 43.28 271.786 43.68C272.453 44.08 272.959 44.6467 273.306 45.38C273.666 46.1 273.846 46.9467 273.846 47.92V48.98H266.506C266.533 50.1933 266.839 51.12 267.426 51.76C268.026 52.3867 268.859 52.7 269.926 52.7C270.606 52.7 271.206 52.64 271.726 52.52C272.259 52.3867 272.806 52.2 273.366 51.96V53.5C272.819 53.74 272.279 53.9133 271.746 54.02C271.213 54.14 270.579 54.2 269.846 54.2C268.833 54.2 267.933 53.9933 267.146 53.58C266.373 53.1667 265.766 52.5533 265.326 51.74C264.899 50.9133 264.686 49.9067 264.686 48.72C264.686 47.5467 264.879 46.54 265.266 45.7C265.666 44.86 266.219 44.2133 266.926 43.76C267.646 43.3067 268.479 43.08 269.426 43.08ZM269.406 44.52C268.566 44.52 267.899 44.7933 267.406 45.34C266.926 45.8733 266.639 46.62 266.546 47.58H272.006C271.993 46.6733 271.779 45.94 271.366 45.38C270.953 44.8067 270.299 44.52 269.406 44.52ZM276.315 52.92C276.315 52.4267 276.435 52.08 276.675 51.88C276.915 51.68 277.202 51.58 277.535 51.58C277.882 51.58 278.175 51.68 278.415 51.88C278.668 52.08 278.795 52.4267 278.795 52.92C278.795 53.4 278.668 53.7467 278.415 53.96C278.175 54.1733 277.882 54.28 277.535 54.28C277.202 54.28 276.915 54.1733 276.675 53.96C276.435 53.7467 276.315 53.4 276.315 52.92Z" fill="#43474E"/>
<rect x="49" y="71" width="478" height="46" rx="2" fill="white"/>
<rect x="49" y="71" width="478" height="46" rx="2" stroke="#333333" stroke-width="2"/>
<path d="M66.04 98.18C66.04 99.4467 65.58 100.433 64.66 101.14C63.74 101.847 62.5 102.2 60.94 102.2C60.14 102.2 59.4 102.14 58.72 102.02C58.04 101.9 57.4733 101.733 57.02 101.52V99.8C57.5 100.013 58.0933 100.207 58.8 100.38C59.52 100.553 60.26 100.64 61.02 100.64C62.0867 100.64 62.8867 100.433 63.42 100.02C63.9667 99.6067 64.24 99.0467 64.24 98.34C64.24 97.8733 64.14 97.48 63.94 97.16C63.74 96.84 63.3933 96.5467 62.9 96.28C62.42 96 61.7467 95.7067 60.88 95.4C59.6667 94.96 58.7467 94.42 58.12 93.78C57.5067 93.14 57.2 92.2667 57.2 91.16C57.2 90.4 57.3933 89.7533 57.78 89.22C58.1667 88.6733 58.7 88.2533 59.38 87.96C60.0733 87.6667 60.8667 87.52 61.76 87.52C62.5467 87.52 63.2667 87.5933 63.92 87.74C64.5733 87.8867 65.1667 88.08 65.7 88.32L65.14 89.86C64.6467 89.6467 64.1067 89.4667 63.52 89.32C62.9467 89.1733 62.3467 89.1 61.72 89.1C60.8267 89.1 60.1533 89.2933 59.7 89.68C59.2467 90.0533 59.02 90.5533 59.02 91.18C59.02 91.66 59.12 92.06 59.32 92.38C59.52 92.7 59.8467 92.9867 60.3 93.24C60.7533 93.4933 61.3667 93.7667 62.14 94.06C62.98 94.3667 63.6867 94.7 64.26 95.06C64.8467 95.4067 65.2867 95.8267 65.58 96.32C65.8867 96.8133 66.04 97.4333 66.04 98.18ZM72.8166 91.08C73.7366 91.08 74.5232 91.28 75.1766 91.68C75.8432 92.08 76.3499 92.6467 76.6966 93.38C77.0566 94.1 77.2366 94.9467 77.2366 95.92V96.98H69.8966C69.9232 98.1933 70.2299 99.12 70.8166 99.76C71.4166 100.387 72.2499 100.7 73.3166 100.7C73.9966 100.7 74.5966 100.64 75.1166 100.52C75.6499 100.387 76.1966 100.2 76.7566 99.96V101.5C76.2099 101.74 75.6699 101.913 75.1366 102.02C74.6032 102.14 73.9699 102.2 73.2366 102.2C72.2232 102.2 71.3232 101.993 70.5366 101.58C69.7632 101.167 69.1566 100.553 68.7166 99.74C68.2899 98.9133 68.0766 97.9067 68.0766 96.72C68.0766 95.5467 68.2699 94.54 68.6566 93.7C69.0566 92.86 69.6099 92.2133 70.3166 91.76C71.0366 91.3067 71.8699 91.08 72.8166 91.08ZM72.7966 92.52C71.9566 92.52 71.2899 92.7933 70.7966 93.34C70.3166 93.8733 70.0299 94.62 69.9366 95.58H75.3966C75.3832 94.6733 75.1699 93.94 74.7566 93.38C74.3432 92.8067 73.6899 92.52 72.7966 92.52ZM81.7256 102H79.9656V86.8H81.7256V102ZM89.2619 91.08C90.1819 91.08 90.9685 91.28 91.6219 91.68C92.2885 92.08 92.7952 92.6467 93.1419 93.38C93.5019 94.1 93.6819 94.9467 93.6819 95.92V96.98H86.3419C86.3685 98.1933 86.6752 99.12 87.2619 99.76C87.8619 100.387 88.6952 100.7 89.7619 100.7C90.4419 100.7 91.0419 100.64 91.5619 100.52C92.0952 100.387 92.6419 100.2 93.2019 99.96V101.5C92.6552 101.74 92.1152 101.913 91.5819 102.02C91.0485 102.14 90.4152 102.2 89.6819 102.2C88.6685 102.2 87.7685 101.993 86.9819 101.58C86.2085 101.167 85.6019 100.553 85.1619 99.74C84.7352 98.9133 84.5219 97.9067 84.5219 96.72C84.5219 95.5467 84.7152 94.54 85.1019 93.7C85.5019 92.86 86.0552 92.2133 86.7619 91.76C87.4819 91.3067 88.3152 91.08 89.2619 91.08ZM89.2419 92.52C88.4019 92.52 87.7352 92.7933 87.2419 93.34C86.7619 93.8733 86.4752 94.62 86.3819 95.58H91.8419C91.8285 94.6733 91.6152 93.94 91.2019 93.38C90.7885 92.8067 90.1352 92.52 89.2419 92.52ZM100.711 102.2C99.7643 102.2 98.9176 102.007 98.1709 101.62C97.4376 101.233 96.8576 100.633 96.4309 99.82C96.0176 99.0067 95.8109 97.9667 95.8109 96.7C95.8109 95.38 96.0309 94.3067 96.4709 93.48C96.9109 92.6533 97.5043 92.0467 98.2509 91.66C99.0109 91.2733 99.8709 91.08 100.831 91.08C101.378 91.08 101.904 91.14 102.411 91.26C102.918 91.3667 103.331 91.5 103.651 91.66L103.111 93.12C102.791 93 102.418 92.8867 101.991 92.78C101.564 92.6733 101.164 92.62 100.791 92.62C98.6843 92.62 97.6309 93.9733 97.6309 96.68C97.6309 97.9733 97.8843 98.9667 98.3909 99.66C98.9109 100.34 99.6776 100.68 100.691 100.68C101.278 100.68 101.791 100.62 102.231 100.5C102.684 100.38 103.098 100.233 103.471 100.06V101.62C103.111 101.807 102.711 101.947 102.271 102.04C101.844 102.147 101.324 102.2 100.711 102.2ZM109.6 100.76C109.867 100.76 110.14 100.74 110.42 100.7C110.7 100.647 110.927 100.593 111.1 100.54V101.88C110.914 101.973 110.647 102.047 110.3 102.1C109.954 102.167 109.62 102.2 109.3 102.2C108.74 102.2 108.22 102.107 107.74 101.92C107.274 101.72 106.894 101.38 106.6 100.9C106.307 100.42 106.16 99.7467 106.16 98.88V92.64H104.64V91.8L106.18 91.1L106.88 88.82H107.92V91.28H111.02V92.64H107.92V98.84C107.92 99.4933 108.074 99.98 108.38 100.3C108.7 100.607 109.107 100.76 109.6 100.76ZM127.762 96.62C127.762 98.3933 127.309 99.7667 126.402 100.74C125.509 101.713 124.296 102.2 122.762 102.2C121.816 102.2 120.969 101.987 120.222 101.56C119.489 101.12 118.909 100.487 118.482 99.66C118.056 98.82 117.842 97.8067 117.842 96.62C117.842 94.8467 118.289 93.48 119.182 92.52C120.076 91.56 121.289 91.08 122.822 91.08C123.796 91.08 124.649 91.3 125.382 91.74C126.129 92.1667 126.709 92.7933 127.122 93.62C127.549 94.4333 127.762 95.4333 127.762 96.62ZM119.662 96.62C119.662 97.8867 119.909 98.8933 120.402 99.64C120.909 100.373 121.709 100.74 122.802 100.74C123.882 100.74 124.676 100.373 125.182 99.64C125.689 98.8933 125.942 97.8867 125.942 96.62C125.942 95.3533 125.689 94.36 125.182 93.64C124.676 92.92 123.876 92.56 122.782 92.56C121.689 92.56 120.896 92.92 120.402 93.64C119.909 94.36 119.662 95.3533 119.662 96.62ZM135.652 91.08C136.972 91.08 138.032 91.54 138.832 92.46C139.645 93.38 140.052 94.7667 140.052 96.62C140.052 98.4467 139.645 99.8333 138.832 100.78C138.032 101.727 136.965 102.2 135.632 102.2C134.805 102.2 134.118 102.047 133.572 101.74C133.038 101.42 132.618 101.053 132.312 100.64H132.192C132.218 100.867 132.245 101.153 132.272 101.5C132.298 101.847 132.312 102.147 132.312 102.4V106.8H130.552V91.28H131.992L132.232 92.74H132.312C132.632 92.2733 133.052 91.88 133.572 91.56C134.092 91.24 134.785 91.08 135.652 91.08ZM135.332 92.56C134.238 92.56 133.465 92.8667 133.012 93.48C132.572 94.0933 132.338 95.0267 132.312 96.28V96.62C132.312 97.94 132.525 98.96 132.952 99.68C133.392 100.387 134.198 100.74 135.372 100.74C136.025 100.74 136.558 100.56 136.972 100.2C137.398 99.84 137.712 99.3533 137.912 98.74C138.125 98.1133 138.232 97.4 138.232 96.6C138.232 95.3733 137.992 94.3933 137.512 93.66C137.045 92.9267 136.318 92.56 135.332 92.56ZM146.436 100.76C146.703 100.76 146.976 100.74 147.256 100.7C147.536 100.647 147.763 100.593 147.936 100.54V101.88C147.75 101.973 147.483 102.047 147.136 102.1C146.79 102.167 146.456 102.2 146.136 102.2C145.576 102.2 145.056 102.107 144.576 101.92C144.11 101.72 143.73 101.38 143.436 100.9C143.143 100.42 142.996 99.7467 142.996 98.88V92.64H141.476V91.8L143.016 91.1L143.716 88.82H144.756V91.28H147.856V92.64H144.756V98.84C144.756 99.4933 144.91 99.98 145.216 100.3C145.536 100.607 145.943 100.76 146.436 100.76ZM150.983 87.26C151.249 87.26 151.483 87.3533 151.683 87.54C151.896 87.7133 152.003 87.9933 152.003 88.38C152.003 88.7533 151.896 89.0333 151.683 89.22C151.483 89.4067 151.249 89.5 150.983 89.5C150.689 89.5 150.443 89.4067 150.243 89.22C150.043 89.0333 149.943 88.7533 149.943 88.38C149.943 87.9933 150.043 87.7133 150.243 87.54C150.443 87.3533 150.689 87.26 150.983 87.26ZM151.843 91.28V102H150.083V91.28H151.843ZM164.559 96.62C164.559 98.3933 164.106 99.7667 163.199 100.74C162.306 101.713 161.092 102.2 159.559 102.2C158.612 102.2 157.766 101.987 157.019 101.56C156.286 101.12 155.706 100.487 155.279 99.66C154.852 98.82 154.639 97.8067 154.639 96.62C154.639 94.8467 155.086 93.48 155.979 92.52C156.872 91.56 158.086 91.08 159.619 91.08C160.592 91.08 161.446 91.3 162.179 91.74C162.926 92.1667 163.506 92.7933 163.919 93.62C164.346 94.4333 164.559 95.4333 164.559 96.62ZM156.459 96.62C156.459 97.8867 156.706 98.8933 157.199 99.64C157.706 100.373 158.506 100.74 159.599 100.74C160.679 100.74 161.472 100.373 161.979 99.64C162.486 98.8933 162.739 97.8867 162.739 96.62C162.739 95.3533 162.486 94.36 161.979 93.64C161.472 92.92 160.672 92.56 159.579 92.56C158.486 92.56 157.692 92.92 157.199 93.64C156.706 94.36 156.459 95.3533 156.459 96.62ZM172.508 91.08C173.788 91.08 174.755 91.3933 175.408 92.02C176.062 92.6333 176.388 93.6333 176.388 95.02V102H174.648V95.14C174.648 93.42 173.848 92.56 172.248 92.56C171.062 92.56 170.242 92.8933 169.788 93.56C169.335 94.2267 169.108 95.1867 169.108 96.44V102H167.348V91.28H168.768L169.028 92.74H169.128C169.475 92.18 169.955 91.7667 170.568 91.5C171.182 91.22 171.828 91.08 172.508 91.08Z" fill="#333333"/>
<path d="M504 95.75L510.5 89.25L512 90.75L504 98.75L496 90.75L497.5 89.25L504 95.75Z" fill="black"/>
<g clip-path="url(#clip0_6137_29991)">
<rect y="14" width="48" height="1" fill="#C54600"/>
<g clip-path="url(#clip1_6137_29991)">
<rect y="2" width="24" height="24" rx="12" fill="#C54600"/>
<path d="M13.1825 9.27273V18H12.1257V10.3807H12.0746L9.94389 11.7955V10.7216L12.1257 9.27273H13.1825Z" fill="white"/>
</g>
</g>
<g clip-path="url(#clip2_6137_29991)">
<rect y="44" width="48" height="1" fill="#C54600"/>
<g clip-path="url(#clip3_6137_29991)">
<rect y="32" width="24" height="24" rx="12" fill="#C54600"/>
<path d="M9.2706 48V47.233L12.1513 44.0795C12.4893 43.7102 12.7678 43.3892 12.9865 43.1165C13.2053 42.8409 13.3672 42.5824 13.4723 42.3409C13.5803 42.0966 13.6342 41.8409 13.6342 41.5739C13.6342 41.267 13.5604 41.0014 13.4126 40.777C13.2678 40.5526 13.0689 40.3793 12.8161 40.2571C12.5632 40.1349 12.2791 40.0739 11.9638 40.0739C11.6286 40.0739 11.3359 40.1435 11.0859 40.2827C10.8388 40.419 10.647 40.6108 10.5107 40.858C10.3771 41.1051 10.3104 41.3949 10.3104 41.7273H9.30469C9.30469 41.2159 9.42259 40.767 9.65838 40.3807C9.89418 39.9943 10.2152 39.6932 10.6214 39.4773C11.0305 39.2614 11.4893 39.1534 11.9979 39.1534C12.5092 39.1534 12.9624 39.2614 13.3572 39.4773C13.7521 39.6932 14.0618 39.9844 14.2862 40.3509C14.5107 40.7173 14.6229 41.125 14.6229 41.5739C14.6229 41.8949 14.5646 42.2088 14.4482 42.5156C14.3345 42.8196 14.1357 43.1591 13.8516 43.5341C13.5703 43.9062 13.1797 44.3608 12.6797 44.8977L10.7195 46.9943V47.0625H14.7763V48H9.2706Z" fill="white"/>
</g>
</g>
<g clip-path="url(#clip4_6137_29991)">
<rect y="92" width="48" height="1" fill="#C54600"/>
<g clip-path="url(#clip5_6137_29991)">
<rect y="80" width="24" height="24" rx="12" fill="#C54600"/>
<path d="M12.032 96.1193C11.4695 96.1193 10.968 96.0227 10.5277 95.8295C10.0902 95.6364 9.74219 95.3679 9.48366 95.0241C9.22798 94.6776 9.08878 94.2756 9.06605 93.8182H10.1399C10.1626 94.0994 10.2592 94.3423 10.4297 94.5469C10.6001 94.7486 10.8232 94.9048 11.0987 95.0156C11.3743 95.1264 11.6797 95.1818 12.0149 95.1818C12.3899 95.1818 12.7223 95.1165 13.0121 94.9858C13.3018 94.8551 13.5291 94.6733 13.6939 94.4403C13.8587 94.2074 13.9411 93.9375 13.9411 93.6307C13.9411 93.3097 13.8615 93.027 13.7024 92.7827C13.5433 92.5355 13.3104 92.3423 13.0036 92.2031C12.6967 92.0639 12.3217 91.9943 11.8786 91.9943H11.1797V91.0568H11.8786C12.2251 91.0568 12.5291 90.9943 12.7905 90.8693C13.0547 90.7443 13.2607 90.5682 13.4084 90.3409C13.5589 90.1136 13.6342 89.8466 13.6342 89.5398C13.6342 89.2443 13.5689 88.9872 13.4382 88.7685C13.3075 88.5497 13.1229 88.3793 12.8842 88.2571C12.6484 88.1349 12.37 88.0739 12.049 88.0739C11.7479 88.0739 11.4638 88.1293 11.1967 88.2401C10.9325 88.348 10.7166 88.5057 10.549 88.7131C10.3814 88.9176 10.2905 89.1648 10.2763 89.4545H9.25355C9.2706 88.9972 9.40838 88.5966 9.6669 88.2528C9.92543 87.9062 10.2635 87.6364 10.6811 87.4432C11.1016 87.25 11.5632 87.1534 12.0661 87.1534C12.6058 87.1534 13.0689 87.2628 13.4553 87.4815C13.8416 87.6974 14.1385 87.983 14.3459 88.3381C14.5533 88.6932 14.657 89.0767 14.657 89.4886C14.657 89.9801 14.5277 90.3991 14.2692 90.7457C14.0135 91.0923 13.6655 91.3324 13.2251 91.4659V91.5341C13.7763 91.625 14.2067 91.8594 14.5163 92.2372C14.826 92.6122 14.9808 93.0767 14.9808 93.6307C14.9808 94.1051 14.8516 94.5312 14.593 94.9091C14.3374 95.2841 13.9879 95.5795 13.5447 95.7955C13.1016 96.0114 12.5973 96.1193 12.032 96.1193Z" fill="white"/>
</g>
</g>
<g clip-path="url(#clip6_6137_29991)">
<rect x="514" y="93" width="94" height="1" fill="#C54600"/>
<g clip-path="url(#clip7_6137_29991)">
<rect x="584" y="81" width="24" height="24" rx="12" fill="#C54600"/>
<path d="M592.849 95.2102V94.3409L596.684 88.2727H597.315V89.6193H596.889L593.991 94.2045V94.2727H599.156V95.2102H592.849ZM596.957 97V94.946V94.5412V88.2727H597.963V97H596.957Z" fill="white"/>
</g>
</g>
<defs>
<clipPath id="clip0_6137_29991">
<rect width="48" height="24" fill="white" transform="translate(0 2)"/>
</clipPath>
<clipPath id="clip1_6137_29991">
<rect y="2" width="24" height="24" rx="12" fill="white"/>
</clipPath>
<clipPath id="clip2_6137_29991">
<rect width="48" height="24" fill="white" transform="translate(0 32)"/>
</clipPath>
<clipPath id="clip3_6137_29991">
<rect y="32" width="24" height="24" rx="12" fill="white"/>
</clipPath>
<clipPath id="clip4_6137_29991">
<rect width="48" height="24" fill="white" transform="translate(0 80)"/>
</clipPath>
<clipPath id="clip5_6137_29991">
<rect y="80" width="24" height="24" rx="12" fill="white"/>
</clipPath>
<clipPath id="clip6_6137_29991">
<rect width="94" height="24" fill="white" transform="translate(514 81)"/>
</clipPath>
<clipPath id="clip7_6137_29991">
<rect x="584" y="81" width="24" height="24" rx="12" fill="white"/>
</clipPath>
</defs>
</svg>
