<svg width="541" height="451" viewBox="0 0 541 451" fill="none" xmlns="http://www.w3.org/2000/svg">
<rect x="48.5" y="47.5" width="492" height="403" rx="5.5" fill="white"/>
<rect x="72" y="71" width="100" height="100" rx="5" fill="#F1F2F3"/>
<path d="M97.3233 129H92.1633V127.96L93.8433 127.58V116.16L92.1633 115.76V114.72H97.3233V115.76L95.6433 116.16V127.58L97.3233 127.96V129ZM111.601 118.08C112.814 118.08 113.721 118.393 114.321 119.02C114.921 119.633 115.221 120.633 115.221 122.02V129H113.481V122.1C113.481 120.407 112.754 119.56 111.301 119.56C110.261 119.56 109.514 119.86 109.061 120.46C108.621 121.06 108.401 121.933 108.401 123.08V129H106.661V122.1C106.661 120.407 105.927 119.56 104.461 119.56C103.381 119.56 102.634 119.893 102.221 120.56C101.807 121.227 101.601 122.187 101.601 123.44V129H99.8406V118.28H101.261L101.521 119.74H101.621C101.954 119.18 102.401 118.767 102.961 118.5C103.534 118.22 104.141 118.08 104.781 118.08C106.461 118.08 107.554 118.68 108.061 119.88H108.161C108.521 119.267 109.007 118.813 109.621 118.52C110.247 118.227 110.907 118.08 111.601 118.08ZM122.592 118.1C123.899 118.1 124.865 118.387 125.492 118.96C126.119 119.533 126.432 120.447 126.432 121.7V129H125.152L124.812 127.48H124.732C124.265 128.067 123.772 128.5 123.252 128.78C122.745 129.06 122.039 129.2 121.132 129.2C120.159 129.2 119.352 128.947 118.712 128.44C118.072 127.92 117.752 127.113 117.752 126.02C117.752 124.953 118.172 124.133 119.012 123.56C119.852 122.973 121.145 122.653 122.892 122.6L124.712 122.54V121.9C124.712 121.007 124.519 120.387 124.132 120.04C123.745 119.693 123.199 119.52 122.492 119.52C121.932 119.52 121.399 119.607 120.892 119.78C120.385 119.94 119.912 120.127 119.472 120.34L118.932 119.02C119.399 118.767 119.952 118.553 120.592 118.38C121.232 118.193 121.899 118.1 122.592 118.1ZM123.112 123.82C121.779 123.873 120.852 124.087 120.332 124.46C119.825 124.833 119.572 125.36 119.572 126.04C119.572 126.64 119.752 127.08 120.112 127.36C120.485 127.64 120.959 127.78 121.532 127.78C122.439 127.78 123.192 127.533 123.792 127.04C124.392 126.533 124.692 125.76 124.692 124.72V123.76L123.112 123.82ZM133.543 118.08C134.25 118.08 134.883 118.213 135.443 118.48C136.016 118.747 136.503 119.153 136.903 119.7H137.003L137.243 118.28H138.643V129.18C138.643 130.713 138.25 131.867 137.463 132.64C136.69 133.413 135.483 133.8 133.843 133.8C132.27 133.8 130.983 133.573 129.983 133.12V131.5C131.036 132.06 132.356 132.34 133.943 132.34C134.863 132.34 135.583 132.067 136.103 131.52C136.636 130.987 136.903 130.253 136.903 129.32V128.9C136.903 128.74 136.91 128.513 136.923 128.22C136.936 127.913 136.95 127.7 136.963 127.58H136.883C136.163 128.66 135.056 129.2 133.563 129.2C132.176 129.2 131.09 128.713 130.303 127.74C129.53 126.767 129.143 125.407 129.143 123.66C129.143 121.953 129.53 120.6 130.303 119.6C131.09 118.587 132.17 118.08 133.543 118.08ZM133.783 119.56C132.89 119.56 132.196 119.92 131.703 120.64C131.21 121.347 130.963 122.36 130.963 123.68C130.963 125 131.203 126.013 131.683 126.72C132.176 127.413 132.89 127.76 133.823 127.76C134.903 127.76 135.69 127.473 136.183 126.9C136.676 126.313 136.923 125.373 136.923 124.08V123.66C136.923 122.193 136.67 121.147 136.163 120.52C135.656 119.88 134.863 119.56 133.783 119.56ZM146.188 118.08C147.108 118.08 147.894 118.28 148.548 118.68C149.214 119.08 149.721 119.647 150.068 120.38C150.428 121.1 150.608 121.947 150.608 122.92V123.98H143.268C143.294 125.193 143.601 126.12 144.188 126.76C144.788 127.387 145.621 127.7 146.688 127.7C147.368 127.7 147.968 127.64 148.488 127.52C149.021 127.387 149.568 127.2 150.128 126.96V128.5C149.581 128.74 149.041 128.913 148.508 129.02C147.974 129.14 147.341 129.2 146.608 129.2C145.594 129.2 144.694 128.993 143.908 128.58C143.134 128.167 142.528 127.553 142.088 126.74C141.661 125.913 141.448 124.907 141.448 123.72C141.448 122.547 141.641 121.54 142.028 120.7C142.428 119.86 142.981 119.213 143.688 118.76C144.408 118.307 145.241 118.08 146.188 118.08ZM146.168 119.52C145.328 119.52 144.661 119.793 144.168 120.34C143.688 120.873 143.401 121.62 143.308 122.58H148.768C148.754 121.673 148.541 120.94 148.128 120.38C147.714 119.807 147.061 119.52 146.168 119.52ZM114.479 153H112.759V143.02C112.759 142.447 112.766 141.987 112.779 141.64C112.792 141.293 112.812 140.933 112.839 140.56C112.626 140.773 112.432 140.953 112.259 141.1C112.086 141.247 111.866 141.433 111.599 141.66L110.079 142.9L109.159 141.72L113.019 138.72H114.479V153ZM120.264 143.36C120.264 142.853 120.384 142.5 120.624 142.3C120.864 142.1 121.151 142 121.484 142C121.831 142 122.124 142.1 122.364 142.3C122.618 142.5 122.744 142.853 122.744 143.36C122.744 143.84 122.618 144.187 122.364 144.4C122.124 144.613 121.831 144.72 121.484 144.72C121.151 144.72 120.864 144.613 120.624 144.4C120.384 144.187 120.264 143.84 120.264 143.36ZM120.264 151.92C120.264 151.427 120.384 151.08 120.624 150.88C120.864 150.68 121.151 150.58 121.484 150.58C121.831 150.58 122.124 150.68 122.364 150.88C122.618 151.08 122.744 151.427 122.744 151.92C122.744 152.4 122.618 152.747 122.364 152.96C122.124 153.173 121.831 153.28 121.484 153.28C121.151 153.28 120.864 153.173 120.624 152.96C120.384 152.747 120.264 152.4 120.264 151.92ZM131.276 153H129.556V143.02C129.556 142.447 129.562 141.987 129.576 141.64C129.589 141.293 129.609 140.933 129.636 140.56C129.422 140.773 129.229 140.953 129.056 141.1C128.882 141.247 128.662 141.433 128.396 141.66L126.876 142.9L125.956 141.72L129.816 138.72H131.276V153Z" fill="#7D828B"/>
<path d="M77.7422 214H76.1422V202.711H72.1778V201.307H81.6889V202.711H77.7422V214ZM85.5749 204.311C86.7363 204.311 87.5956 204.566 88.1526 205.076C88.7097 205.585 88.9882 206.397 88.9882 207.511V214H87.8504L87.5482 212.649H87.4771C87.0623 213.17 86.6238 213.556 86.1615 213.804C85.7112 214.053 85.083 214.178 84.2771 214.178C83.4119 214.178 82.6949 213.953 82.126 213.502C81.5571 213.04 81.2726 212.323 81.2726 211.351C81.2726 210.403 81.646 209.674 82.3926 209.164C83.1393 208.643 84.2889 208.359 85.8415 208.311L87.4593 208.258V207.689C87.4593 206.895 87.2875 206.344 86.9438 206.036C86.6 205.727 86.1141 205.573 85.486 205.573C84.9882 205.573 84.5141 205.65 84.0638 205.804C83.6134 205.947 83.1926 206.113 82.8015 206.302L82.3215 205.129C82.7363 204.904 83.2282 204.714 83.7971 204.56C84.366 204.394 84.9586 204.311 85.5749 204.311ZM86.0371 209.396C84.8519 209.443 84.0282 209.633 83.566 209.964C83.1156 210.296 82.8904 210.764 82.8904 211.369C82.8904 211.902 83.0504 212.293 83.3704 212.542C83.7023 212.791 84.123 212.916 84.6326 212.916C85.4386 212.916 86.1082 212.696 86.6415 212.258C87.1749 211.807 87.4415 211.12 87.4415 210.196V209.342L86.0371 209.396ZM95.309 204.293C95.9372 204.293 96.5001 204.412 96.9979 204.649C97.5075 204.886 97.9401 205.247 98.2957 205.733H98.3846L98.5979 204.471H99.8424V214.16C99.8424 215.523 99.4927 216.548 98.7935 217.236C98.1061 217.923 97.0335 218.267 95.5757 218.267C94.1772 218.267 93.0335 218.065 92.1446 217.662V216.222C93.0809 216.72 94.2542 216.969 95.6646 216.969C96.4824 216.969 97.1224 216.726 97.5846 216.24C98.0587 215.766 98.2957 215.114 98.2957 214.284V213.911C98.2957 213.769 98.3016 213.567 98.3135 213.307C98.3253 213.034 98.3372 212.844 98.349 212.738H98.2779C97.6379 213.698 96.6542 214.178 95.3268 214.178C94.0942 214.178 93.1283 213.745 92.429 212.88C91.7416 212.015 91.3979 210.806 91.3979 209.253C91.3979 207.736 91.7416 206.533 92.429 205.644C93.1283 204.744 94.0883 204.293 95.309 204.293ZM95.5224 205.609C94.7283 205.609 94.112 205.929 93.6735 206.569C93.235 207.197 93.0157 208.098 93.0157 209.271C93.0157 210.444 93.229 211.345 93.6557 211.973C94.0942 212.59 94.7283 212.898 95.5579 212.898C96.5179 212.898 97.2172 212.643 97.6557 212.133C98.0942 211.612 98.3135 210.776 98.3135 209.627V209.253C98.3135 207.95 98.0883 207.019 97.6379 206.462C97.1875 205.893 96.4824 205.609 95.5224 205.609Z" fill="#43474E"/>
<path d="M90.4848 269.538C90.7198 269.538 90.928 269.629 91.1096 269.81L92.8075 271.652C91.8677 272.816 90.7091 273.708 89.3315 274.327C87.9647 274.947 86.3202 275.256 84.398 275.256C82.6787 275.256 81.1303 274.963 79.7527 274.375C78.3859 273.788 77.2166 272.971 76.2448 271.925C75.273 270.878 74.5255 269.629 74.0023 268.176C73.4897 266.724 73.2334 265.138 73.2334 263.419C73.2334 261.678 73.511 260.087 74.0663 258.646C74.6216 257.193 75.4012 255.944 76.405 254.897C77.4194 253.851 78.6261 253.039 80.0251 252.463C81.424 251.875 82.9724 251.582 84.6703 251.582C86.3575 251.582 87.8525 251.859 89.1554 252.415C90.4688 252.97 91.5848 253.696 92.5031 254.593L91.0615 256.595C90.9761 256.723 90.8639 256.836 90.7251 256.932C90.597 257.028 90.4154 257.076 90.1805 257.076C90.0203 257.076 89.8548 257.033 89.6839 256.948C89.5131 256.852 89.3262 256.739 89.1233 256.611C88.9204 256.472 88.6855 256.323 88.4185 256.163C88.1516 256.003 87.8419 255.858 87.4895 255.73C87.1371 255.591 86.7259 255.479 86.2561 255.394C85.7969 255.298 85.263 255.25 84.6543 255.25C83.6184 255.25 82.668 255.437 81.8031 255.81C80.9488 256.173 80.2119 256.707 79.5926 257.412C78.9732 258.106 78.4927 258.961 78.1509 259.975C77.8092 260.979 77.6384 262.127 77.6384 263.419C77.6384 264.722 77.8199 265.88 78.183 266.895C78.5567 267.909 79.0586 268.764 79.6887 269.458C80.3187 270.152 81.0609 270.686 81.9152 271.06C82.7695 271.423 83.6878 271.604 84.6703 271.604C85.2576 271.604 85.7862 271.572 86.2561 271.508C86.7366 271.444 87.1744 271.343 87.5696 271.204C87.9754 271.065 88.3544 270.889 88.7068 270.675C89.0699 270.451 89.4277 270.179 89.7801 269.858C89.8868 269.762 89.999 269.687 90.1164 269.634C90.2339 269.57 90.3567 269.538 90.4848 269.538ZM103.816 267.984C102.674 268.037 101.712 268.139 100.933 268.288C100.153 268.427 99.5286 268.609 99.0588 268.833C98.5889 269.057 98.2525 269.319 98.0496 269.618C97.8467 269.917 97.7453 270.243 97.7453 270.595C97.7453 271.289 97.9482 271.786 98.354 272.085C98.7704 272.384 99.3097 272.533 99.9718 272.533C100.783 272.533 101.483 272.389 102.07 272.101C102.668 271.802 103.25 271.353 103.816 270.755V267.984ZM94.7499 260.856C96.64 259.126 98.9146 258.261 101.574 258.261C102.535 258.261 103.394 258.421 104.153 258.742C104.911 259.051 105.551 259.489 106.075 260.055C106.598 260.61 106.993 261.278 107.26 262.057C107.538 262.837 107.676 263.691 107.676 264.62V275H105.882C105.509 275 105.22 274.947 105.017 274.84C104.815 274.722 104.654 274.493 104.537 274.151L104.185 272.966C103.768 273.339 103.362 273.671 102.967 273.959C102.572 274.236 102.161 274.471 101.734 274.664C101.307 274.856 100.847 275 100.356 275.096C99.8757 275.203 99.3418 275.256 98.7544 275.256C98.0603 275.256 97.4196 275.166 96.8323 274.984C96.2449 274.792 95.7377 274.509 95.3105 274.135C94.8834 273.761 94.5524 273.297 94.3174 272.741C94.0825 272.186 93.965 271.54 93.965 270.803C93.965 270.387 94.0344 269.976 94.1733 269.57C94.3121 269.153 94.5363 268.758 94.846 268.385C95.1664 268.011 95.5775 267.658 96.0794 267.327C96.5813 266.996 97.1953 266.708 97.9215 266.462C98.6583 266.217 99.5126 266.019 100.484 265.87C101.456 265.71 102.567 265.613 103.816 265.581V264.62C103.816 263.52 103.581 262.709 103.111 262.186C102.641 261.652 101.963 261.385 101.077 261.385C100.436 261.385 99.9024 261.459 99.4752 261.609C99.0588 261.758 98.6904 261.929 98.37 262.121C98.0496 262.303 97.756 262.469 97.489 262.618C97.2327 262.768 96.9444 262.842 96.624 262.842C96.3464 262.842 96.1114 262.773 95.9192 262.634C95.727 262.485 95.5722 262.314 95.4547 262.121L94.7499 260.856ZM115.135 261.417C115.647 260.434 116.256 259.665 116.961 259.11C117.666 258.544 118.499 258.261 119.46 258.261C120.218 258.261 120.827 258.427 121.286 258.758L121.03 261.721C120.976 261.913 120.896 262.052 120.789 262.137C120.693 262.212 120.56 262.25 120.389 262.25C120.229 262.25 119.988 262.223 119.668 262.17C119.358 262.116 119.054 262.089 118.755 262.089C118.317 262.089 117.927 262.154 117.586 262.282C117.244 262.41 116.934 262.597 116.657 262.842C116.39 263.077 116.149 263.366 115.936 263.707C115.733 264.049 115.541 264.439 115.359 264.877V275H111.403V258.565H113.725C114.131 258.565 114.414 258.64 114.574 258.79C114.734 258.929 114.841 259.185 114.895 259.559L115.135 261.417ZM133.231 262.762C132.783 262.218 132.292 261.833 131.758 261.609C131.234 261.385 130.668 261.273 130.06 261.273C129.462 261.273 128.922 261.385 128.442 261.609C127.961 261.833 127.55 262.175 127.209 262.634C126.867 263.083 126.605 263.659 126.424 264.364C126.242 265.058 126.151 265.88 126.151 266.831C126.151 267.792 126.226 268.609 126.376 269.282C126.536 269.944 126.76 270.488 127.048 270.915C127.337 271.332 127.689 271.636 128.106 271.828C128.522 272.01 128.987 272.101 129.499 272.101C130.321 272.101 131.021 271.93 131.597 271.588C132.174 271.246 132.719 270.761 133.231 270.131V262.762ZM137.188 251.197V275H134.769C134.246 275 133.915 274.76 133.776 274.279L133.44 272.693C132.777 273.452 132.014 274.066 131.149 274.535C130.295 275.005 129.296 275.24 128.154 275.24C127.257 275.24 126.434 275.053 125.687 274.68C124.939 274.306 124.293 273.767 123.749 273.062C123.215 272.346 122.798 271.465 122.499 270.419C122.211 269.372 122.067 268.176 122.067 266.831C122.067 265.613 122.232 264.481 122.563 263.435C122.894 262.388 123.37 261.481 123.989 260.712C124.608 259.943 125.35 259.345 126.215 258.918C127.08 258.48 128.052 258.261 129.131 258.261C130.049 258.261 130.834 258.405 131.485 258.694C132.137 258.982 132.719 259.372 133.231 259.863V251.197H137.188ZM165.461 275H161.505V261.529H153.88V270.435C153.88 270.947 154.003 271.348 154.249 271.636C154.505 271.925 154.852 272.069 155.29 272.069C155.535 272.069 155.738 272.042 155.898 271.989C156.069 271.925 156.213 271.86 156.331 271.796C156.459 271.732 156.571 271.674 156.667 271.62C156.763 271.556 156.859 271.524 156.956 271.524C157.073 271.524 157.169 271.556 157.244 271.62C157.319 271.674 157.399 271.759 157.484 271.876L158.67 273.799C158.093 274.279 157.431 274.642 156.683 274.888C155.936 275.133 155.162 275.256 154.361 275.256C152.93 275.256 151.83 274.856 151.061 274.055C150.303 273.243 149.924 272.127 149.924 270.707V261.529H148.242C148.028 261.529 147.847 261.459 147.697 261.321C147.548 261.182 147.473 260.974 147.473 260.696V259.126L150.116 258.678L150.949 254.209C151.002 253.995 151.104 253.829 151.253 253.712C151.403 253.595 151.595 253.536 151.83 253.536H153.88V258.71H165.461V275ZM166.15 253.712C166.15 254.054 166.081 254.379 165.942 254.689C165.803 254.988 165.616 255.25 165.381 255.474C165.157 255.698 164.885 255.88 164.564 256.019C164.254 256.147 163.923 256.211 163.571 256.211C163.229 256.211 162.909 256.147 162.61 256.019C162.311 255.88 162.049 255.698 161.825 255.474C161.601 255.25 161.419 254.988 161.28 254.689C161.152 254.379 161.088 254.054 161.088 253.712C161.088 253.36 161.152 253.034 161.28 252.735C161.419 252.425 161.601 252.158 161.825 251.934C162.049 251.699 162.311 251.518 162.61 251.389C162.909 251.251 163.229 251.181 163.571 251.181C163.923 251.181 164.254 251.251 164.564 251.389C164.885 251.518 165.157 251.699 165.381 251.934C165.616 252.158 165.803 252.425 165.942 252.735C166.081 253.034 166.15 253.36 166.15 253.712ZM174.978 275.256C173.547 275.256 172.447 274.856 171.678 274.055C170.92 273.243 170.541 272.127 170.541 270.707V261.529H168.859C168.645 261.529 168.464 261.459 168.314 261.321C168.165 261.182 168.09 260.974 168.09 260.696V259.126L170.733 258.694L171.566 254.209C171.619 253.995 171.721 253.829 171.87 253.712C172.02 253.595 172.212 253.536 172.447 253.536H174.497V258.71H178.886V261.529H174.497V270.435C174.497 270.947 174.62 271.348 174.866 271.636C175.122 271.925 175.469 272.069 175.907 272.069C176.152 272.069 176.355 272.042 176.515 271.989C176.686 271.925 176.83 271.86 176.948 271.796C177.076 271.732 177.188 271.674 177.284 271.62C177.38 271.556 177.476 271.524 177.573 271.524C177.69 271.524 177.786 271.556 177.861 271.62C177.936 271.674 178.016 271.759 178.101 271.876L179.287 273.799C178.71 274.279 178.048 274.642 177.3 274.888C176.553 275.133 175.779 275.256 174.978 275.256ZM185.424 251.197V275H181.467V251.197H185.424ZM199.954 264.893C199.954 264.38 199.879 263.899 199.729 263.451C199.59 262.992 199.377 262.591 199.089 262.25C198.8 261.908 198.432 261.641 197.983 261.449C197.546 261.246 197.033 261.144 196.446 261.144C195.303 261.144 194.401 261.47 193.739 262.121C193.087 262.773 192.671 263.697 192.489 264.893H199.954ZM192.409 267.279C192.473 268.123 192.623 268.854 192.858 269.474C193.092 270.082 193.402 270.59 193.787 270.995C194.171 271.391 194.625 271.69 195.148 271.892C195.682 272.085 196.269 272.181 196.91 272.181C197.551 272.181 198.101 272.106 198.56 271.957C199.03 271.807 199.436 271.642 199.777 271.46C200.13 271.278 200.434 271.113 200.69 270.963C200.957 270.814 201.214 270.739 201.459 270.739C201.79 270.739 202.036 270.862 202.196 271.108L203.333 272.549C202.896 273.062 202.404 273.494 201.86 273.847C201.315 274.188 200.744 274.466 200.146 274.68C199.558 274.883 198.955 275.027 198.336 275.112C197.727 275.198 197.134 275.24 196.558 275.24C195.415 275.24 194.353 275.053 193.37 274.68C192.388 274.295 191.533 273.735 190.807 272.998C190.081 272.25 189.51 271.332 189.093 270.243C188.677 269.143 188.469 267.872 188.469 266.43C188.469 265.309 188.65 264.257 189.013 263.275C189.376 262.282 189.894 261.422 190.567 260.696C191.25 259.959 192.078 259.377 193.05 258.95C194.032 258.523 195.137 258.309 196.366 258.309C197.401 258.309 198.357 258.475 199.233 258.806C200.108 259.137 200.861 259.623 201.491 260.263C202.121 260.893 202.613 261.673 202.965 262.602C203.328 263.52 203.51 264.572 203.51 265.758C203.51 266.356 203.446 266.761 203.317 266.975C203.189 267.178 202.944 267.279 202.581 267.279H192.409ZM218.273 251.197V275H214.317V251.197H218.273ZM226.316 258.565V275H222.343V258.565H226.316ZM226.86 253.776C226.86 254.118 226.791 254.438 226.652 254.737C226.513 255.036 226.326 255.298 226.092 255.522C225.867 255.746 225.6 255.928 225.291 256.067C224.981 256.195 224.65 256.259 224.298 256.259C223.956 256.259 223.63 256.195 223.32 256.067C223.021 255.928 222.76 255.746 222.536 255.522C222.311 255.298 222.13 255.036 221.991 254.737C221.863 254.438 221.799 254.118 221.799 253.776C221.799 253.424 221.863 253.093 221.991 252.783C222.13 252.473 222.311 252.206 222.536 251.982C222.76 251.758 223.021 251.582 223.32 251.453C223.63 251.315 223.956 251.245 224.298 251.245C224.65 251.245 224.981 251.315 225.291 251.453C225.6 251.582 225.867 251.758 226.092 251.982C226.326 252.206 226.513 252.473 226.652 252.783C226.791 253.093 226.86 253.424 226.86 253.776ZM234.05 260.584C234.381 260.253 234.728 259.948 235.091 259.671C235.464 259.382 235.854 259.142 236.26 258.95C236.676 258.747 237.12 258.592 237.59 258.485C238.059 258.368 238.572 258.309 239.127 258.309C240.024 258.309 240.82 258.464 241.514 258.774C242.208 259.073 242.785 259.5 243.244 260.055C243.714 260.6 244.066 261.256 244.301 262.025C244.547 262.784 244.669 263.622 244.669 264.54V275H240.713V264.54C240.713 263.536 240.483 262.762 240.024 262.218C239.565 261.662 238.866 261.385 237.926 261.385C237.242 261.385 236.602 261.539 236.004 261.849C235.406 262.159 234.84 262.581 234.306 263.115V275H230.349V258.565H232.768C233.281 258.565 233.617 258.806 233.777 259.286L234.05 260.584ZM252.389 251.197V264.829H253.126C253.393 264.829 253.601 264.796 253.75 264.732C253.91 264.658 254.071 264.514 254.231 264.3L258.315 259.254C258.486 259.03 258.673 258.859 258.876 258.742C259.09 258.624 259.362 258.565 259.693 258.565H263.313L258.203 264.668C257.84 265.149 257.445 265.517 257.018 265.774C257.242 265.934 257.44 266.121 257.611 266.334C257.792 266.548 257.963 266.777 258.123 267.023L263.601 275H260.029C259.72 275 259.453 274.952 259.228 274.856C259.004 274.749 258.817 274.562 258.668 274.295L254.471 268.064C254.322 267.819 254.167 267.658 254.007 267.584C253.846 267.509 253.606 267.472 253.286 267.472H252.389V275H248.432V251.197H252.389Z" fill="#2B4380"/>
<path d="M72 283.169H263.601V284.755H72V283.169Z" fill="#2B4380"/>
<path d="M85.38 321.72C85.38 324.133 84.72 325.953 83.4 327.18C82.0933 328.393 80.2667 329 77.92 329H73.94V314.72H78.34C79.78 314.72 81.0267 314.987 82.08 315.52C83.1333 316.053 83.9467 316.84 84.52 317.88C85.0933 318.907 85.38 320.187 85.38 321.72ZM83.48 321.78C83.48 319.873 83.0067 318.48 82.06 317.6C81.1267 316.707 79.8 316.26 78.08 316.26H75.74V327.46H77.68C81.5467 327.46 83.48 325.567 83.48 321.78ZM92.4494 318.08C93.3694 318.08 94.156 318.28 94.8094 318.68C95.476 319.08 95.9827 319.647 96.3294 320.38C96.6894 321.1 96.8694 321.947 96.8694 322.92V323.98H89.5294C89.556 325.193 89.8627 326.12 90.4494 326.76C91.0494 327.387 91.8827 327.7 92.9494 327.7C93.6294 327.7 94.2294 327.64 94.7494 327.52C95.2827 327.387 95.8294 327.2 96.3894 326.96V328.5C95.8427 328.74 95.3027 328.913 94.7694 329.02C94.236 329.14 93.6027 329.2 92.8694 329.2C91.856 329.2 90.956 328.993 90.1694 328.58C89.396 328.167 88.7894 327.553 88.3494 326.74C87.9227 325.913 87.7094 324.907 87.7094 323.72C87.7094 322.547 87.9027 321.54 88.2894 320.7C88.6894 319.86 89.2427 319.213 89.9494 318.76C90.6694 318.307 91.5027 318.08 92.4494 318.08ZM92.4294 319.52C91.5894 319.52 90.9227 319.793 90.4294 320.34C89.9494 320.873 89.6627 321.62 89.5694 322.58H95.0294C95.016 321.673 94.8027 320.94 94.3894 320.38C93.976 319.807 93.3227 319.52 92.4294 319.52ZM106.578 326.04C106.578 327.08 106.192 327.867 105.418 328.4C104.645 328.933 103.605 329.2 102.298 329.2C101.552 329.2 100.905 329.14 100.358 329.02C99.8251 328.9 99.3518 328.733 98.9384 328.52V326.92C99.3651 327.133 99.8784 327.333 100.478 327.52C101.092 327.693 101.712 327.78 102.338 327.78C103.232 327.78 103.878 327.64 104.278 327.36C104.678 327.067 104.878 326.68 104.878 326.2C104.878 325.933 104.805 325.693 104.658 325.48C104.512 325.267 104.245 325.053 103.858 324.84C103.485 324.627 102.945 324.387 102.238 324.12C101.545 323.853 100.952 323.587 100.458 323.32C99.9651 323.053 99.5851 322.733 99.3184 322.36C99.0518 321.987 98.9184 321.507 98.9184 320.92C98.9184 320.013 99.2851 319.313 100.018 318.82C100.765 318.327 101.738 318.08 102.938 318.08C103.592 318.08 104.198 318.147 104.758 318.28C105.332 318.4 105.865 318.573 106.358 318.8L105.758 320.2C105.305 320.013 104.832 319.853 104.338 319.72C103.845 319.587 103.338 319.52 102.818 319.52C102.098 319.52 101.545 319.64 101.158 319.88C100.785 320.107 100.598 320.42 100.598 320.82C100.598 321.113 100.685 321.367 100.858 321.58C101.032 321.78 101.318 321.98 101.718 322.18C102.132 322.367 102.678 322.593 103.358 322.86C104.038 323.113 104.618 323.373 105.098 323.64C105.578 323.907 105.945 324.233 106.198 324.62C106.452 324.993 106.578 325.467 106.578 326.04ZM113.469 329.2C112.522 329.2 111.675 329.007 110.929 328.62C110.195 328.233 109.615 327.633 109.189 326.82C108.775 326.007 108.569 324.967 108.569 323.7C108.569 322.38 108.789 321.307 109.229 320.48C109.669 319.653 110.262 319.047 111.009 318.66C111.769 318.273 112.629 318.08 113.589 318.08C114.135 318.08 114.662 318.14 115.169 318.26C115.675 318.367 116.089 318.5 116.409 318.66L115.869 320.12C115.549 320 115.175 319.887 114.749 319.78C114.322 319.673 113.922 319.62 113.549 319.62C111.442 319.62 110.389 320.973 110.389 323.68C110.389 324.973 110.642 325.967 111.149 326.66C111.669 327.34 112.435 327.68 113.449 327.68C114.035 327.68 114.549 327.62 114.989 327.5C115.442 327.38 115.855 327.233 116.229 327.06V328.62C115.869 328.807 115.469 328.947 115.029 329.04C114.602 329.147 114.082 329.2 113.469 329.2ZM123.778 318.08C123.978 318.08 124.191 318.093 124.418 318.12C124.658 318.133 124.865 318.16 125.038 318.2L124.818 319.82C124.645 319.78 124.451 319.747 124.238 319.72C124.038 319.693 123.845 319.68 123.658 319.68C123.111 319.68 122.598 319.833 122.118 320.14C121.638 320.433 121.251 320.853 120.958 321.4C120.678 321.933 120.538 322.56 120.538 323.28V329H118.778V318.28H120.218L120.418 320.24H120.498C120.845 319.653 121.291 319.147 121.838 318.72C122.385 318.293 123.031 318.08 123.778 318.08ZM127.94 314.26C128.207 314.26 128.44 314.353 128.64 314.54C128.853 314.713 128.96 314.993 128.96 315.38C128.96 315.753 128.853 316.033 128.64 316.22C128.44 316.407 128.207 316.5 127.94 316.5C127.647 316.5 127.4 316.407 127.2 316.22C127 316.033 126.9 315.753 126.9 315.38C126.9 314.993 127 314.713 127.2 314.54C127.4 314.353 127.647 314.26 127.94 314.26ZM128.8 318.28V329H127.04V318.28H128.8ZM137.296 318.08C138.616 318.08 139.676 318.54 140.476 319.46C141.289 320.38 141.696 321.767 141.696 323.62C141.696 325.447 141.289 326.833 140.476 327.78C139.676 328.727 138.609 329.2 137.276 329.2C136.449 329.2 135.763 329.047 135.216 328.74C134.683 328.42 134.263 328.053 133.956 327.64H133.836C133.863 327.867 133.889 328.153 133.916 328.5C133.943 328.847 133.956 329.147 133.956 329.4V333.8H132.196V318.28H133.636L133.876 319.74H133.956C134.276 319.273 134.696 318.88 135.216 318.56C135.736 318.24 136.429 318.08 137.296 318.08ZM136.976 319.56C135.883 319.56 135.109 319.867 134.656 320.48C134.216 321.093 133.983 322.027 133.956 323.28V323.62C133.956 324.94 134.169 325.96 134.596 326.68C135.036 327.387 135.843 327.74 137.016 327.74C137.669 327.74 138.203 327.56 138.616 327.2C139.043 326.84 139.356 326.353 139.556 325.74C139.769 325.113 139.876 324.4 139.876 323.6C139.876 322.373 139.636 321.393 139.156 320.66C138.689 319.927 137.963 319.56 136.976 319.56ZM148.081 327.76C148.347 327.76 148.621 327.74 148.901 327.7C149.181 327.647 149.407 327.593 149.581 327.54V328.88C149.394 328.973 149.127 329.047 148.781 329.1C148.434 329.167 148.101 329.2 147.781 329.2C147.221 329.2 146.701 329.107 146.221 328.92C145.754 328.72 145.374 328.38 145.081 327.9C144.787 327.42 144.641 326.747 144.641 325.88V319.64H143.121V318.8L144.661 318.1L145.361 315.82H146.401V318.28H149.501V319.64H146.401V325.84C146.401 326.493 146.554 326.98 146.861 327.3C147.181 327.607 147.587 327.76 148.081 327.76ZM152.627 314.26C152.894 314.26 153.127 314.353 153.327 314.54C153.541 314.713 153.647 314.993 153.647 315.38C153.647 315.753 153.541 316.033 153.327 316.22C153.127 316.407 152.894 316.5 152.627 316.5C152.334 316.5 152.087 316.407 151.887 316.22C151.687 316.033 151.587 315.753 151.587 315.38C151.587 314.993 151.687 314.713 151.887 314.54C152.087 314.353 152.334 314.26 152.627 314.26ZM153.487 318.28V329H151.727V318.28H153.487ZM166.204 323.62C166.204 325.393 165.75 326.767 164.844 327.74C163.95 328.713 162.737 329.2 161.204 329.2C160.257 329.2 159.41 328.987 158.664 328.56C157.93 328.12 157.35 327.487 156.924 326.66C156.497 325.82 156.284 324.807 156.284 323.62C156.284 321.847 156.73 320.48 157.624 319.52C158.517 318.56 159.73 318.08 161.264 318.08C162.237 318.08 163.09 318.3 163.824 318.74C164.57 319.167 165.15 319.793 165.564 320.62C165.99 321.433 166.204 322.433 166.204 323.62ZM158.104 323.62C158.104 324.887 158.35 325.893 158.844 326.64C159.35 327.373 160.15 327.74 161.244 327.74C162.324 327.74 163.117 327.373 163.624 326.64C164.13 325.893 164.384 324.887 164.384 323.62C164.384 322.353 164.13 321.36 163.624 320.64C163.117 319.92 162.317 319.56 161.224 319.56C160.13 319.56 159.337 319.92 158.844 320.64C158.35 321.36 158.104 322.353 158.104 323.62ZM174.153 318.08C175.433 318.08 176.4 318.393 177.053 319.02C177.706 319.633 178.033 320.633 178.033 322.02V329H176.293V322.14C176.293 320.42 175.493 319.56 173.893 319.56C172.706 319.56 171.886 319.893 171.433 320.56C170.98 321.227 170.753 322.187 170.753 323.44V329H168.993V318.28H170.413L170.673 319.74H170.773C171.12 319.18 171.6 318.767 172.213 318.5C172.826 318.22 173.473 318.08 174.153 318.08ZM195.872 323.62C195.872 325.393 195.418 326.767 194.512 327.74C193.618 328.713 192.405 329.2 190.872 329.2C189.925 329.2 189.078 328.987 188.332 328.56C187.598 328.12 187.018 327.487 186.592 326.66C186.165 325.82 185.952 324.807 185.952 323.62C185.952 321.847 186.398 320.48 187.292 319.52C188.185 318.56 189.398 318.08 190.932 318.08C191.905 318.08 192.758 318.3 193.492 318.74C194.238 319.167 194.818 319.793 195.232 320.62C195.658 321.433 195.872 322.433 195.872 323.62ZM187.772 323.62C187.772 324.887 188.018 325.893 188.512 326.64C189.018 327.373 189.818 327.74 190.912 327.74C191.992 327.74 192.785 327.373 193.292 326.64C193.798 325.893 194.052 324.887 194.052 323.62C194.052 322.353 193.798 321.36 193.292 320.64C192.785 319.92 191.985 319.56 190.892 319.56C189.798 319.56 189.005 319.92 188.512 320.64C188.018 321.36 187.772 322.353 187.772 323.62ZM203.661 318.08C203.861 318.08 204.074 318.093 204.301 318.12C204.541 318.133 204.748 318.16 204.921 318.2L204.701 319.82C204.528 319.78 204.334 319.747 204.121 319.72C203.921 319.693 203.728 319.68 203.541 319.68C202.994 319.68 202.481 319.833 202.001 320.14C201.521 320.433 201.134 320.853 200.841 321.4C200.561 321.933 200.421 322.56 200.421 323.28V329H198.661V318.28H200.101L200.301 320.24H200.381C200.728 319.653 201.174 319.147 201.721 318.72C202.268 318.293 202.914 318.08 203.661 318.08ZM219.098 326.04C219.098 327.08 218.711 327.867 217.938 328.4C217.165 328.933 216.125 329.2 214.818 329.2C214.071 329.2 213.425 329.14 212.878 329.02C212.345 328.9 211.871 328.733 211.458 328.52V326.92C211.885 327.133 212.398 327.333 212.998 327.52C213.611 327.693 214.231 327.78 214.858 327.78C215.751 327.78 216.398 327.64 216.798 327.36C217.198 327.067 217.398 326.68 217.398 326.2C217.398 325.933 217.325 325.693 217.178 325.48C217.031 325.267 216.765 325.053 216.378 324.84C216.005 324.627 215.465 324.387 214.758 324.12C214.065 323.853 213.471 323.587 212.978 323.32C212.485 323.053 212.105 322.733 211.838 322.36C211.571 321.987 211.438 321.507 211.438 320.92C211.438 320.013 211.805 319.313 212.538 318.82C213.285 318.327 214.258 318.08 215.458 318.08C216.111 318.08 216.718 318.147 217.278 318.28C217.851 318.4 218.385 318.573 218.878 318.8L218.278 320.2C217.825 320.013 217.351 319.853 216.858 319.72C216.365 319.587 215.858 319.52 215.338 319.52C214.618 319.52 214.065 319.64 213.678 319.88C213.305 320.107 213.118 320.42 213.118 320.82C213.118 321.113 213.205 321.367 213.378 321.58C213.551 321.78 213.838 321.98 214.238 322.18C214.651 322.367 215.198 322.593 215.878 322.86C216.558 323.113 217.138 323.373 217.618 323.64C218.098 323.907 218.465 324.233 218.718 324.62C218.971 324.993 219.098 325.467 219.098 326.04ZM230.648 318.28V329H229.208L228.948 327.58H228.868C228.522 328.14 228.042 328.553 227.428 328.82C226.815 329.073 226.162 329.2 225.468 329.2C224.175 329.2 223.202 328.893 222.548 328.28C221.895 327.653 221.568 326.66 221.568 325.3V318.28H223.348V325.18C223.348 326.887 224.142 327.74 225.728 327.74C226.915 327.74 227.735 327.407 228.188 326.74C228.655 326.073 228.888 325.113 228.888 323.86V318.28H230.648ZM239.152 318.08C240.472 318.08 241.532 318.54 242.332 319.46C243.145 320.38 243.552 321.767 243.552 323.62C243.552 325.447 243.145 326.833 242.332 327.78C241.532 328.727 240.465 329.2 239.132 329.2C238.305 329.2 237.618 329.047 237.072 328.74C236.538 328.42 236.118 328.053 235.812 327.64H235.692C235.718 327.867 235.745 328.153 235.772 328.5C235.798 328.847 235.812 329.147 235.812 329.4V333.8H234.052V318.28H235.492L235.732 319.74H235.812C236.132 319.273 236.552 318.88 237.072 318.56C237.592 318.24 238.285 318.08 239.152 318.08ZM238.832 319.56C237.738 319.56 236.965 319.867 236.512 320.48C236.072 321.093 235.838 322.027 235.812 323.28V323.62C235.812 324.94 236.025 325.96 236.452 326.68C236.892 327.387 237.698 327.74 238.872 327.74C239.525 327.74 240.058 327.56 240.472 327.2C240.898 326.84 241.212 326.353 241.412 325.74C241.625 325.113 241.732 324.4 241.732 323.6C241.732 322.373 241.492 321.393 241.012 320.66C240.545 319.927 239.818 319.56 238.832 319.56ZM251.456 318.08C252.776 318.08 253.836 318.54 254.636 319.46C255.45 320.38 255.856 321.767 255.856 323.62C255.856 325.447 255.45 326.833 254.636 327.78C253.836 328.727 252.77 329.2 251.436 329.2C250.61 329.2 249.923 329.047 249.376 328.74C248.843 328.42 248.423 328.053 248.116 327.64H247.996C248.023 327.867 248.05 328.153 248.076 328.5C248.103 328.847 248.116 329.147 248.116 329.4V333.8H246.356V318.28H247.796L248.036 319.74H248.116C248.436 319.273 248.856 318.88 249.376 318.56C249.896 318.24 250.59 318.08 251.456 318.08ZM251.136 319.56C250.043 319.56 249.27 319.867 248.816 320.48C248.376 321.093 248.143 322.027 248.116 323.28V323.62C248.116 324.94 248.33 325.96 248.756 326.68C249.196 327.387 250.003 327.74 251.176 327.74C251.83 327.74 252.363 327.56 252.776 327.2C253.203 326.84 253.516 326.353 253.716 325.74C253.93 325.113 254.036 324.4 254.036 323.6C254.036 322.373 253.796 321.393 253.316 320.66C252.85 319.927 252.123 319.56 251.136 319.56ZM267.981 323.62C267.981 325.393 267.528 326.767 266.621 327.74C265.728 328.713 264.514 329.2 262.981 329.2C262.034 329.2 261.188 328.987 260.441 328.56C259.708 328.12 259.128 327.487 258.701 326.66C258.274 325.82 258.061 324.807 258.061 323.62C258.061 321.847 258.508 320.48 259.401 319.52C260.294 318.56 261.508 318.08 263.041 318.08C264.014 318.08 264.868 318.3 265.601 318.74C266.348 319.167 266.928 319.793 267.341 320.62C267.768 321.433 267.981 322.433 267.981 323.62ZM259.881 323.62C259.881 324.887 260.128 325.893 260.621 326.64C261.128 327.373 261.928 327.74 263.021 327.74C264.101 327.74 264.894 327.373 265.401 326.64C265.908 325.893 266.161 324.887 266.161 323.62C266.161 322.353 265.908 321.36 265.401 320.64C264.894 319.92 264.094 319.56 263.001 319.56C261.908 319.56 261.114 319.92 260.621 320.64C260.128 321.36 259.881 322.353 259.881 323.62ZM275.77 318.08C275.97 318.08 276.184 318.093 276.41 318.12C276.65 318.133 276.857 318.16 277.03 318.2L276.81 319.82C276.637 319.78 276.444 319.747 276.23 319.72C276.03 319.693 275.837 319.68 275.65 319.68C275.104 319.68 274.59 319.833 274.11 320.14C273.63 320.433 273.244 320.853 272.95 321.4C272.67 321.933 272.53 322.56 272.53 323.28V329H270.77V318.28H272.21L272.41 320.24H272.49C272.837 319.653 273.284 319.147 273.83 318.72C274.377 318.293 275.024 318.08 275.77 318.08ZM282.612 327.76C282.879 327.76 283.152 327.74 283.432 327.7C283.712 327.647 283.939 327.593 284.112 327.54V328.88C283.925 328.973 283.659 329.047 283.312 329.1C282.965 329.167 282.632 329.2 282.312 329.2C281.752 329.2 281.232 329.107 280.752 328.92C280.285 328.72 279.905 328.38 279.612 327.9C279.319 327.42 279.172 326.747 279.172 325.88V319.64H277.652V318.8L279.192 318.1L279.892 315.82H280.932V318.28H284.032V319.64H280.932V325.84C280.932 326.493 281.085 326.98 281.392 327.3C281.712 327.607 282.119 327.76 282.612 327.76ZM287.159 314.26C287.425 314.26 287.659 314.353 287.859 314.54C288.072 314.713 288.179 314.993 288.179 315.38C288.179 315.753 288.072 316.033 287.859 316.22C287.659 316.407 287.425 316.5 287.159 316.5C286.865 316.5 286.619 316.407 286.419 316.22C286.219 316.033 286.119 315.753 286.119 315.38C286.119 314.993 286.219 314.713 286.419 314.54C286.619 314.353 286.865 314.26 287.159 314.26ZM288.019 318.28V329H286.259V318.28H288.019ZM296.575 318.08C297.855 318.08 298.822 318.393 299.475 319.02C300.128 319.633 300.455 320.633 300.455 322.02V329H298.715V322.14C298.715 320.42 297.915 319.56 296.315 319.56C295.128 319.56 294.308 319.893 293.855 320.56C293.402 321.227 293.175 322.187 293.175 323.44V329H291.415V318.28H292.835L293.095 319.74H293.195C293.542 319.18 294.022 318.767 294.635 318.5C295.248 318.22 295.895 318.08 296.575 318.08ZM307.578 318.08C308.285 318.08 308.918 318.213 309.478 318.48C310.051 318.747 310.538 319.153 310.938 319.7H311.038L311.278 318.28H312.678V329.18C312.678 330.713 312.285 331.867 311.498 332.64C310.725 333.413 309.518 333.8 307.878 333.8C306.305 333.8 305.018 333.573 304.018 333.12V331.5C305.071 332.06 306.391 332.34 307.978 332.34C308.898 332.34 309.618 332.067 310.138 331.52C310.671 330.987 310.938 330.253 310.938 329.32V328.9C310.938 328.74 310.945 328.513 310.958 328.22C310.971 327.913 310.985 327.7 310.998 327.58H310.918C310.198 328.66 309.091 329.2 307.598 329.2C306.211 329.2 305.125 328.713 304.338 327.74C303.565 326.767 303.178 325.407 303.178 323.66C303.178 321.953 303.565 320.6 304.338 319.6C305.125 318.587 306.205 318.08 307.578 318.08ZM307.818 319.56C306.925 319.56 306.231 319.92 305.738 320.64C305.245 321.347 304.998 322.36 304.998 323.68C304.998 325 305.238 326.013 305.718 326.72C306.211 327.413 306.925 327.76 307.858 327.76C308.938 327.76 309.725 327.473 310.218 326.9C310.711 326.313 310.958 325.373 310.958 324.08V323.66C310.958 322.193 310.705 321.147 310.198 320.52C309.691 319.88 308.898 319.56 307.818 319.56ZM324.858 327.76C325.125 327.76 325.398 327.74 325.678 327.7C325.958 327.647 326.185 327.593 326.358 327.54V328.88C326.171 328.973 325.905 329.047 325.558 329.1C325.211 329.167 324.878 329.2 324.558 329.2C323.998 329.2 323.478 329.107 322.998 328.92C322.531 328.72 322.151 328.38 321.858 327.9C321.565 327.42 321.418 326.747 321.418 325.88V319.64H319.898V318.8L321.438 318.1L322.138 315.82H323.178V318.28H326.278V319.64H323.178V325.84C323.178 326.493 323.331 326.98 323.638 327.3C323.958 327.607 324.365 327.76 324.858 327.76ZM332.645 318.08C333.565 318.08 334.351 318.28 335.005 318.68C335.671 319.08 336.178 319.647 336.525 320.38C336.885 321.1 337.065 321.947 337.065 322.92V323.98H329.725C329.751 325.193 330.058 326.12 330.645 326.76C331.245 327.387 332.078 327.7 333.145 327.7C333.825 327.7 334.425 327.64 334.945 327.52C335.478 327.387 336.025 327.2 336.585 326.96V328.5C336.038 328.74 335.498 328.913 334.965 329.02C334.431 329.14 333.798 329.2 333.065 329.2C332.051 329.2 331.151 328.993 330.365 328.58C329.591 328.167 328.985 327.553 328.545 326.74C328.118 325.913 327.905 324.907 327.905 323.72C327.905 322.547 328.098 321.54 328.485 320.7C328.885 319.86 329.438 319.213 330.145 318.76C330.865 318.307 331.698 318.08 332.645 318.08ZM332.625 319.52C331.785 319.52 331.118 319.793 330.625 320.34C330.145 320.873 329.858 321.62 329.765 322.58H335.225C335.211 321.673 334.998 320.94 334.585 320.38C334.171 319.807 333.518 319.52 332.625 319.52ZM341.943 323.52L338.243 318.28H340.243L343.003 322.32L345.743 318.28H347.723L344.023 323.52L347.923 329H345.923L343.003 324.72L340.043 329H338.063L341.943 323.52ZM353.569 327.76C353.836 327.76 354.109 327.74 354.389 327.7C354.669 327.647 354.896 327.593 355.069 327.54V328.88C354.882 328.973 354.616 329.047 354.269 329.1C353.922 329.167 353.589 329.2 353.269 329.2C352.709 329.2 352.189 329.107 351.709 328.92C351.242 328.72 350.862 328.38 350.569 327.9C350.276 327.42 350.129 326.747 350.129 325.88V319.64H348.609V318.8L350.149 318.1L350.849 315.82H351.889V318.28H354.989V319.64H351.889V325.84C351.889 326.493 352.042 326.98 352.349 327.3C352.669 327.607 353.076 327.76 353.569 327.76ZM367.411 318.08C367.611 318.08 367.824 318.093 368.051 318.12C368.291 318.133 368.498 318.16 368.671 318.2L368.451 319.82C368.278 319.78 368.084 319.747 367.871 319.72C367.671 319.693 367.478 319.68 367.291 319.68C366.744 319.68 366.231 319.833 365.751 320.14C365.271 320.433 364.884 320.853 364.591 321.4C364.311 321.933 364.171 322.56 364.171 323.28V329H362.411V318.28H363.851L364.051 320.24H364.131C364.478 319.653 364.924 319.147 365.471 318.72C366.018 318.293 366.664 318.08 367.411 318.08ZM374.422 318.08C375.342 318.08 376.129 318.28 376.782 318.68C377.449 319.08 377.955 319.647 378.302 320.38C378.662 321.1 378.842 321.947 378.842 322.92V323.98H371.502C371.529 325.193 371.835 326.12 372.422 326.76C373.022 327.387 373.855 327.7 374.922 327.7C375.602 327.7 376.202 327.64 376.722 327.52C377.255 327.387 377.802 327.2 378.362 326.96V328.5C377.815 328.74 377.275 328.913 376.742 329.02C376.209 329.14 375.575 329.2 374.842 329.2C373.829 329.2 372.929 328.993 372.142 328.58C371.369 328.167 370.762 327.553 370.322 326.74C369.895 325.913 369.682 324.907 369.682 323.72C369.682 322.547 369.875 321.54 370.262 320.7C370.662 319.86 371.215 319.213 371.922 318.76C372.642 318.307 373.475 318.08 374.422 318.08ZM374.402 319.52C373.562 319.52 372.895 319.793 372.402 320.34C371.922 320.873 371.635 321.62 371.542 322.58H377.002C376.989 321.673 376.775 320.94 376.362 320.38C375.949 319.807 375.295 319.52 374.402 319.52ZM383.331 329H381.571V313.8H383.331V329ZM390.787 318.1C392.094 318.1 393.061 318.387 393.687 318.96C394.314 319.533 394.627 320.447 394.627 321.7V329H393.347L393.007 327.48H392.927C392.461 328.067 391.967 328.5 391.447 328.78C390.941 329.06 390.234 329.2 389.327 329.2C388.354 329.2 387.547 328.947 386.907 328.44C386.267 327.92 385.947 327.113 385.947 326.02C385.947 324.953 386.367 324.133 387.207 323.56C388.047 322.973 389.341 322.653 391.087 322.6L392.907 322.54V321.9C392.907 321.007 392.714 320.387 392.327 320.04C391.941 319.693 391.394 319.52 390.687 319.52C390.127 319.52 389.594 319.607 389.087 319.78C388.581 319.94 388.107 320.127 387.667 320.34L387.127 319.02C387.594 318.767 388.147 318.553 388.787 318.38C389.427 318.193 390.094 318.1 390.787 318.1ZM391.307 323.82C389.974 323.873 389.047 324.087 388.527 324.46C388.021 324.833 387.767 325.36 387.767 326.04C387.767 326.64 387.947 327.08 388.307 327.36C388.681 327.64 389.154 327.78 389.727 327.78C390.634 327.78 391.387 327.533 391.987 327.04C392.587 326.533 392.887 325.76 392.887 324.72V323.76L391.307 323.82ZM401.518 327.76C401.785 327.76 402.058 327.74 402.338 327.7C402.618 327.647 402.845 327.593 403.018 327.54V328.88C402.832 328.973 402.565 329.047 402.218 329.1C401.872 329.167 401.538 329.2 401.218 329.2C400.658 329.2 400.138 329.107 399.658 328.92C399.192 328.72 398.812 328.38 398.518 327.9C398.225 327.42 398.078 326.747 398.078 325.88V319.64H396.558V318.8L398.098 318.1L398.798 315.82H399.838V318.28H402.938V319.64H399.838V325.84C399.838 326.493 399.992 326.98 400.298 327.3C400.618 327.607 401.025 327.76 401.518 327.76ZM406.065 314.26C406.332 314.26 406.565 314.353 406.765 314.54C406.978 314.713 407.085 314.993 407.085 315.38C407.085 315.753 406.978 316.033 406.765 316.22C406.565 316.407 406.332 316.5 406.065 316.5C405.772 316.5 405.525 316.407 405.325 316.22C405.125 316.033 405.025 315.753 405.025 315.38C405.025 314.993 405.125 314.713 405.325 314.54C405.525 314.353 405.772 314.26 406.065 314.26ZM406.925 318.28V329H405.165V318.28H406.925ZM415.481 318.08C416.761 318.08 417.728 318.393 418.381 319.02C419.034 319.633 419.361 320.633 419.361 322.02V329H417.621V322.14C417.621 320.42 416.821 319.56 415.221 319.56C414.034 319.56 413.214 319.893 412.761 320.56C412.308 321.227 412.081 322.187 412.081 323.44V329H410.321V318.28H411.741L412.001 319.74H412.101C412.448 319.18 412.928 318.767 413.541 318.5C414.154 318.22 414.801 318.08 415.481 318.08ZM426.484 318.08C427.191 318.08 427.824 318.213 428.384 318.48C428.958 318.747 429.444 319.153 429.844 319.7H429.944L430.184 318.28H431.584V329.18C431.584 330.713 431.191 331.867 430.404 332.64C429.631 333.413 428.424 333.8 426.784 333.8C425.211 333.8 423.924 333.573 422.924 333.12V331.5C423.978 332.06 425.298 332.34 426.884 332.34C427.804 332.34 428.524 332.067 429.044 331.52C429.578 330.987 429.844 330.253 429.844 329.32V328.9C429.844 328.74 429.851 328.513 429.864 328.22C429.878 327.913 429.891 327.7 429.904 327.58H429.824C429.104 328.66 427.998 329.2 426.504 329.2C425.118 329.2 424.031 328.713 423.244 327.74C422.471 326.767 422.084 325.407 422.084 323.66C422.084 321.953 422.471 320.6 423.244 319.6C424.031 318.587 425.111 318.08 426.484 318.08ZM426.724 319.56C425.831 319.56 425.138 319.92 424.644 320.64C424.151 321.347 423.904 322.36 423.904 323.68C423.904 325 424.144 326.013 424.624 326.72C425.118 327.413 425.831 327.76 426.764 327.76C427.844 327.76 428.631 327.473 429.124 326.9C429.618 326.313 429.864 325.373 429.864 324.08V323.66C429.864 322.193 429.611 321.147 429.104 320.52C428.598 319.88 427.804 319.56 426.724 319.56ZM443.764 327.76C444.031 327.76 444.304 327.74 444.584 327.7C444.864 327.647 445.091 327.593 445.264 327.54V328.88C445.078 328.973 444.811 329.047 444.464 329.1C444.118 329.167 443.784 329.2 443.464 329.2C442.904 329.2 442.384 329.107 441.904 328.92C441.438 328.72 441.058 328.38 440.764 327.9C440.471 327.42 440.324 326.747 440.324 325.88V319.64H438.804V318.8L440.344 318.1L441.044 315.82H442.084V318.28H445.184V319.64H442.084V325.84C442.084 326.493 442.238 326.98 442.544 327.3C442.864 327.607 443.271 327.76 443.764 327.76ZM456.731 323.62C456.731 325.393 456.278 326.767 455.371 327.74C454.478 328.713 453.264 329.2 451.731 329.2C450.784 329.2 449.938 328.987 449.191 328.56C448.458 328.12 447.878 327.487 447.451 326.66C447.024 325.82 446.811 324.807 446.811 323.62C446.811 321.847 447.258 320.48 448.151 319.52C449.044 318.56 450.258 318.08 451.791 318.08C452.764 318.08 453.618 318.3 454.351 318.74C455.098 319.167 455.678 319.793 456.091 320.62C456.518 321.433 456.731 322.433 456.731 323.62ZM448.631 323.62C448.631 324.887 448.878 325.893 449.371 326.64C449.878 327.373 450.678 327.74 451.771 327.74C452.851 327.74 453.644 327.373 454.151 326.64C454.658 325.893 454.911 324.887 454.911 323.62C454.911 322.353 454.658 321.36 454.151 320.64C453.644 319.92 452.844 319.56 451.751 319.56C450.658 319.56 449.864 319.92 449.371 320.64C448.878 321.36 448.631 322.353 448.631 323.62ZM468.296 327.76C468.562 327.76 468.836 327.74 469.116 327.7C469.396 327.647 469.622 327.593 469.796 327.54V328.88C469.609 328.973 469.342 329.047 468.996 329.1C468.649 329.167 468.316 329.2 467.996 329.2C467.436 329.2 466.916 329.107 466.436 328.92C465.969 328.72 465.589 328.38 465.296 327.9C465.002 327.42 464.856 326.747 464.856 325.88V319.64H463.336V318.8L464.876 318.1L465.576 315.82H466.616V318.28H469.716V319.64H466.616V325.84C466.616 326.493 466.769 326.98 467.076 327.3C467.396 327.607 467.802 327.76 468.296 327.76ZM473.702 318.26C473.702 318.793 473.669 319.293 473.602 319.76H473.722C474.069 319.213 474.536 318.8 475.122 318.52C475.722 318.24 476.369 318.1 477.062 318.1C478.369 318.1 479.349 318.413 480.002 319.04C480.656 319.653 480.982 320.647 480.982 322.02V329H479.242V322.14C479.242 320.42 478.442 319.56 476.842 319.56C475.642 319.56 474.816 319.9 474.362 320.58C473.922 321.247 473.702 322.207 473.702 323.46V329H471.942V313.8H473.702V318.26ZM488.445 318.08C489.365 318.08 490.152 318.28 490.805 318.68C491.472 319.08 491.979 319.647 492.325 320.38C492.685 321.1 492.865 321.947 492.865 322.92V323.98H485.525C485.552 325.193 485.859 326.12 486.445 326.76C487.045 327.387 487.879 327.7 488.945 327.7C489.625 327.7 490.225 327.64 490.745 327.52C491.279 327.387 491.825 327.2 492.385 326.96V328.5C491.839 328.74 491.299 328.913 490.765 329.02C490.232 329.14 489.599 329.2 488.865 329.2C487.852 329.2 486.952 328.993 486.165 328.58C485.392 328.167 484.785 327.553 484.345 326.74C483.919 325.913 483.705 324.907 483.705 323.72C483.705 322.547 483.899 321.54 484.285 320.7C484.685 319.86 485.239 319.213 485.945 318.76C486.665 318.307 487.499 318.08 488.445 318.08ZM488.425 319.52C487.585 319.52 486.919 319.793 486.425 320.34C485.945 320.873 485.659 321.62 485.565 322.58H491.025C491.012 321.673 490.799 320.94 490.385 320.38C489.972 319.807 489.319 319.52 488.425 319.52ZM75.46 342.26C75.46 342.793 75.4267 343.293 75.36 343.76H75.48C75.8267 343.213 76.2933 342.8 76.88 342.52C77.48 342.24 78.1267 342.1 78.82 342.1C80.1267 342.1 81.1067 342.413 81.76 343.04C82.4133 343.653 82.74 344.647 82.74 346.02V353H81V346.14C81 344.42 80.2 343.56 78.6 343.56C77.4 343.56 76.5733 343.9 76.12 344.58C75.68 345.247 75.46 346.207 75.46 347.46V353H73.7V337.8H75.46V342.26ZM90.2033 342.08C91.1233 342.08 91.9099 342.28 92.5633 342.68C93.2299 343.08 93.7366 343.647 94.0833 344.38C94.4433 345.1 94.6233 345.947 94.6233 346.92V347.98H87.2833C87.3099 349.193 87.6166 350.12 88.2033 350.76C88.8033 351.387 89.6366 351.7 90.7033 351.7C91.3833 351.7 91.9833 351.64 92.5033 351.52C93.0366 351.387 93.5833 351.2 94.1433 350.96V352.5C93.5966 352.74 93.0566 352.913 92.5233 353.02C91.9899 353.14 91.3566 353.2 90.6233 353.2C89.6099 353.2 88.7099 352.993 87.9233 352.58C87.1499 352.167 86.5433 351.553 86.1033 350.74C85.6766 349.913 85.4633 348.907 85.4633 347.72C85.4633 346.547 85.6566 345.54 86.0433 344.7C86.4433 343.86 86.9966 343.213 87.7033 342.76C88.4233 342.307 89.2566 342.08 90.2033 342.08ZM90.1833 343.52C89.3433 343.52 88.6766 343.793 88.1833 344.34C87.7033 344.873 87.4166 345.62 87.3233 346.58H92.7833C92.7699 345.673 92.5566 344.94 92.1433 344.38C91.7299 343.807 91.0766 343.52 90.1833 343.52ZM101.412 342.1C102.719 342.1 103.686 342.387 104.312 342.96C104.939 343.533 105.252 344.447 105.252 345.7V353H103.972L103.632 351.48H103.552C103.086 352.067 102.592 352.5 102.072 352.78C101.566 353.06 100.859 353.2 99.9523 353.2C98.979 353.2 98.1723 352.947 97.5323 352.44C96.8923 351.92 96.5723 351.113 96.5723 350.02C96.5723 348.953 96.9923 348.133 97.8323 347.56C98.6723 346.973 99.9657 346.653 101.712 346.6L103.532 346.54V345.9C103.532 345.007 103.339 344.387 102.952 344.04C102.566 343.693 102.019 343.52 101.312 343.52C100.752 343.52 100.219 343.607 99.7123 343.78C99.2057 343.94 98.7323 344.127 98.2923 344.34L97.7523 343.02C98.219 342.767 98.7723 342.553 99.4123 342.38C100.052 342.193 100.719 342.1 101.412 342.1ZM101.932 347.82C100.599 347.873 99.6723 348.087 99.1523 348.46C98.6457 348.833 98.3923 349.36 98.3923 350.04C98.3923 350.64 98.5723 351.08 98.9323 351.36C99.3057 351.64 99.779 351.78 100.352 351.78C101.259 351.78 102.012 351.533 102.612 351.04C103.212 350.533 103.512 349.76 103.512 348.72V347.76L101.932 347.82ZM112.363 353.2C111.03 353.2 109.963 352.74 109.163 351.82C108.363 350.887 107.963 349.5 107.963 347.66C107.963 345.82 108.363 344.433 109.163 343.5C109.977 342.553 111.05 342.08 112.383 342.08C113.21 342.08 113.883 342.233 114.403 342.54C114.937 342.847 115.37 343.22 115.703 343.66H115.823C115.81 343.487 115.783 343.233 115.743 342.9C115.717 342.553 115.703 342.28 115.703 342.08V337.8H117.463V353H116.043L115.783 351.56H115.703C115.383 352.013 114.957 352.4 114.423 352.72C113.89 353.04 113.203 353.2 112.363 353.2ZM112.643 351.74C113.777 351.74 114.57 351.433 115.023 350.82C115.49 350.193 115.723 349.253 115.723 348V347.68C115.723 346.347 115.503 345.327 115.063 344.62C114.623 343.9 113.81 343.54 112.623 343.54C111.677 343.54 110.963 343.92 110.483 344.68C110.017 345.427 109.783 346.433 109.783 347.7C109.783 348.98 110.017 349.973 110.483 350.68C110.963 351.387 111.683 351.74 112.643 351.74ZM122.628 353H120.868V337.8H122.628V353ZM126.924 338.26C127.191 338.26 127.424 338.353 127.624 338.54C127.838 338.713 127.944 338.993 127.944 339.38C127.944 339.753 127.838 340.033 127.624 340.22C127.424 340.407 127.191 340.5 126.924 340.5C126.631 340.5 126.384 340.407 126.184 340.22C125.984 340.033 125.884 339.753 125.884 339.38C125.884 338.993 125.984 338.713 126.184 338.54C126.384 338.353 126.631 338.26 126.924 338.26ZM127.784 342.28V353H126.024V342.28H127.784ZM136.34 342.08C137.62 342.08 138.587 342.393 139.24 343.02C139.894 343.633 140.22 344.633 140.22 346.02V353H138.48V346.14C138.48 344.42 137.68 343.56 136.08 343.56C134.894 343.56 134.074 343.893 133.62 344.56C133.167 345.227 132.94 346.187 132.94 347.44V353H131.18V342.28H132.6L132.86 343.74H132.96C133.307 343.18 133.787 342.767 134.4 342.5C135.014 342.22 135.66 342.08 136.34 342.08ZM147.684 342.08C148.604 342.08 149.39 342.28 150.044 342.68C150.71 343.08 151.217 343.647 151.564 344.38C151.924 345.1 152.104 345.947 152.104 346.92V347.98H144.764C144.79 349.193 145.097 350.12 145.684 350.76C146.284 351.387 147.117 351.7 148.184 351.7C148.864 351.7 149.464 351.64 149.984 351.52C150.517 351.387 151.064 351.2 151.624 350.96V352.5C151.077 352.74 150.537 352.913 150.004 353.02C149.47 353.14 148.837 353.2 148.104 353.2C147.09 353.2 146.19 352.993 145.404 352.58C144.63 352.167 144.024 351.553 143.584 350.74C143.157 349.913 142.944 348.907 142.944 347.72C142.944 346.547 143.137 345.54 143.524 344.7C143.924 343.86 144.477 343.213 145.184 342.76C145.904 342.307 146.737 342.08 147.684 342.08ZM147.664 343.52C146.824 343.52 146.157 343.793 145.664 344.34C145.184 344.873 144.897 345.62 144.804 346.58H150.264C150.25 345.673 150.037 344.94 149.624 344.38C149.21 343.807 148.557 343.52 147.664 343.52ZM154.573 351.92C154.573 351.427 154.693 351.08 154.933 350.88C155.173 350.68 155.459 350.58 155.793 350.58C156.139 350.58 156.433 350.68 156.673 350.88C156.926 351.08 157.053 351.427 157.053 351.92C157.053 352.4 156.926 352.747 156.673 352.96C156.433 353.173 156.139 353.28 155.793 353.28C155.459 353.28 155.173 353.173 154.933 352.96C154.693 352.747 154.573 352.4 154.573 351.92ZM165.62 353V338.72H167.42V351.4H173.66V353H165.62ZM185.188 347.62C185.188 349.393 184.735 350.767 183.828 351.74C182.935 352.713 181.721 353.2 180.188 353.2C179.241 353.2 178.395 352.987 177.648 352.56C176.915 352.12 176.335 351.487 175.908 350.66C175.481 349.82 175.268 348.807 175.268 347.62C175.268 345.847 175.715 344.48 176.608 343.52C177.501 342.56 178.715 342.08 180.248 342.08C181.221 342.08 182.075 342.3 182.808 342.74C183.555 343.167 184.135 343.793 184.548 344.62C184.975 345.433 185.188 346.433 185.188 347.62ZM177.088 347.62C177.088 348.887 177.335 349.893 177.828 350.64C178.335 351.373 179.135 351.74 180.228 351.74C181.308 351.74 182.101 351.373 182.608 350.64C183.115 349.893 183.368 348.887 183.368 347.62C183.368 346.353 183.115 345.36 182.608 344.64C182.101 343.92 181.301 343.56 180.208 343.56C179.115 343.56 178.321 343.92 177.828 344.64C177.335 345.36 177.088 346.353 177.088 347.62ZM193.137 342.08C194.417 342.08 195.384 342.393 196.037 343.02C196.691 343.633 197.017 344.633 197.017 346.02V353H195.277V346.14C195.277 344.42 194.477 343.56 192.877 343.56C191.691 343.56 190.871 343.893 190.417 344.56C189.964 345.227 189.737 346.187 189.737 347.44V353H187.977V342.28H189.397L189.657 343.74H189.757C190.104 343.18 190.584 342.767 191.197 342.5C191.811 342.22 192.457 342.08 193.137 342.08ZM204.141 342.08C204.847 342.08 205.481 342.213 206.041 342.48C206.614 342.747 207.101 343.153 207.501 343.7H207.601L207.841 342.28H209.241V353.18C209.241 354.713 208.847 355.867 208.061 356.64C207.287 357.413 206.081 357.8 204.441 357.8C202.867 357.8 201.581 357.573 200.581 357.12V355.5C201.634 356.06 202.954 356.34 204.541 356.34C205.461 356.34 206.181 356.067 206.701 355.52C207.234 354.987 207.501 354.253 207.501 353.32V352.9C207.501 352.74 207.507 352.513 207.521 352.22C207.534 351.913 207.547 351.7 207.561 351.58H207.481C206.761 352.66 205.654 353.2 204.161 353.2C202.774 353.2 201.687 352.713 200.901 351.74C200.127 350.767 199.741 349.407 199.741 347.66C199.741 345.953 200.127 344.6 200.901 343.6C201.687 342.587 202.767 342.08 204.141 342.08ZM204.381 343.56C203.487 343.56 202.794 343.92 202.301 344.64C201.807 345.347 201.561 346.36 201.561 347.68C201.561 349 201.801 350.013 202.281 350.72C202.774 351.413 203.487 351.76 204.421 351.76C205.501 351.76 206.287 351.473 206.781 350.9C207.274 350.313 207.521 349.373 207.521 348.08V347.66C207.521 346.193 207.267 345.147 206.761 344.52C206.254 343.88 205.461 343.56 204.381 343.56ZM216.785 342.08C217.705 342.08 218.492 342.28 219.145 342.68C219.812 343.08 220.319 343.647 220.665 344.38C221.025 345.1 221.205 345.947 221.205 346.92V347.98H213.865C213.892 349.193 214.199 350.12 214.785 350.76C215.385 351.387 216.219 351.7 217.285 351.7C217.965 351.7 218.565 351.64 219.085 351.52C219.619 351.387 220.165 351.2 220.725 350.96V352.5C220.179 352.74 219.639 352.913 219.105 353.02C218.572 353.14 217.939 353.2 217.205 353.2C216.192 353.2 215.292 352.993 214.505 352.58C213.732 352.167 213.125 351.553 212.685 350.74C212.259 349.913 212.045 348.907 212.045 347.72C212.045 346.547 212.239 345.54 212.625 344.7C213.025 343.86 213.579 343.213 214.285 342.76C215.005 342.307 215.839 342.08 216.785 342.08ZM216.765 343.52C215.925 343.52 215.259 343.793 214.765 344.34C214.285 344.873 213.999 345.62 213.905 346.58H219.365C219.352 345.673 219.139 344.94 218.725 344.38C218.312 343.807 217.659 343.52 216.765 343.52ZM228.934 342.08C229.134 342.08 229.348 342.093 229.574 342.12C229.814 342.133 230.021 342.16 230.194 342.2L229.974 343.82C229.801 343.78 229.608 343.747 229.394 343.72C229.194 343.693 229.001 343.68 228.814 343.68C228.268 343.68 227.754 343.833 227.274 344.14C226.794 344.433 226.408 344.853 226.114 345.4C225.834 345.933 225.694 346.56 225.694 347.28V353H223.934V342.28H225.374L225.574 344.24H225.654C226.001 343.653 226.448 343.147 226.994 342.72C227.541 342.293 228.188 342.08 228.934 342.08ZM240.971 351.76C241.238 351.76 241.511 351.74 241.791 351.7C242.071 351.647 242.298 351.593 242.471 351.54V352.88C242.285 352.973 242.018 353.047 241.671 353.1C241.325 353.167 240.991 353.2 240.671 353.2C240.111 353.2 239.591 353.107 239.111 352.92C238.645 352.72 238.265 352.38 237.971 351.9C237.678 351.42 237.531 350.747 237.531 349.88V343.64H236.011V342.8L237.551 342.1L238.251 339.82H239.291V342.28H242.391V343.64H239.291V349.84C239.291 350.493 239.445 350.98 239.751 351.3C240.071 351.607 240.478 351.76 240.971 351.76ZM248.758 342.08C249.678 342.08 250.465 342.28 251.118 342.68C251.785 343.08 252.291 343.647 252.638 344.38C252.998 345.1 253.178 345.947 253.178 346.92V347.98H245.838C245.865 349.193 246.171 350.12 246.758 350.76C247.358 351.387 248.191 351.7 249.258 351.7C249.938 351.7 250.538 351.64 251.058 351.52C251.591 351.387 252.138 351.2 252.698 350.96V352.5C252.151 352.74 251.611 352.913 251.078 353.02C250.545 353.14 249.911 353.2 249.178 353.2C248.165 353.2 247.265 352.993 246.478 352.58C245.705 352.167 245.098 351.553 244.658 350.74C244.231 349.913 244.018 348.907 244.018 347.72C244.018 346.547 244.211 345.54 244.598 344.7C244.998 343.86 245.551 343.213 246.258 342.76C246.978 342.307 247.811 342.08 248.758 342.08ZM248.738 343.52C247.898 343.52 247.231 343.793 246.738 344.34C246.258 344.873 245.971 345.62 245.878 346.58H251.338C251.325 345.673 251.111 344.94 250.698 344.38C250.285 343.807 249.631 343.52 248.738 343.52ZM258.056 347.52L254.356 342.28H256.356L259.116 346.32L261.856 342.28H263.836L260.136 347.52L264.036 353H262.036L259.116 348.72L256.156 353H254.176L258.056 347.52ZM269.682 351.76C269.949 351.76 270.222 351.74 270.502 351.7C270.782 351.647 271.009 351.593 271.182 351.54V352.88C270.996 352.973 270.729 353.047 270.382 353.1C270.036 353.167 269.702 353.2 269.382 353.2C268.822 353.2 268.302 353.107 267.822 352.92C267.356 352.72 266.976 352.38 266.682 351.9C266.389 351.42 266.242 350.747 266.242 349.88V343.64H264.722V342.8L266.262 342.1L266.962 339.82H268.002V342.28H271.102V343.64H268.002V349.84C268.002 350.493 268.156 350.98 268.462 351.3C268.782 351.607 269.189 351.76 269.682 351.76ZM285.444 346.94C285.271 346.393 285.118 345.86 284.984 345.34C284.864 344.807 284.771 344.393 284.704 344.1H284.624C284.571 344.393 284.484 344.807 284.364 345.34C284.244 345.86 284.091 346.4 283.904 346.96L281.984 352.98H279.984L277.044 342.26H278.864L280.344 347.98C280.491 348.553 280.631 349.133 280.764 349.72C280.898 350.307 280.991 350.793 281.044 351.18H281.124C281.178 350.953 281.238 350.673 281.304 350.34C281.384 350.007 281.471 349.66 281.564 349.3C281.658 348.927 281.751 348.593 281.844 348.3L283.744 342.26H285.664L287.504 348.3C287.651 348.753 287.791 349.247 287.924 349.78C288.071 350.313 288.171 350.773 288.224 351.16H288.304C288.344 350.827 288.431 350.367 288.564 349.78C288.711 349.193 288.864 348.593 289.024 347.98L290.524 342.26H292.324L289.344 352.98H287.284L285.444 346.94ZM295.147 338.26C295.414 338.26 295.647 338.353 295.847 338.54C296.06 338.713 296.167 338.993 296.167 339.38C296.167 339.753 296.06 340.033 295.847 340.22C295.647 340.407 295.414 340.5 295.147 340.5C294.854 340.5 294.607 340.407 294.407 340.22C294.207 340.033 294.107 339.753 294.107 339.38C294.107 338.993 294.207 338.713 294.407 338.54C294.607 338.353 294.854 338.26 295.147 338.26ZM296.007 342.28V353H294.247V342.28H296.007ZM301.163 353H299.403V337.8H301.163V353ZM306.319 353H304.559V337.8H306.319V353ZM316.671 341.5C316.671 341.953 316.658 342.38 316.631 342.78C316.618 343.167 316.598 343.473 316.571 343.7H316.671C316.978 343.247 317.398 342.867 317.931 342.56C318.464 342.253 319.151 342.1 319.991 342.1C321.324 342.1 322.391 342.567 323.191 343.5C324.004 344.42 324.411 345.8 324.411 347.64C324.411 349.48 324.004 350.867 323.191 351.8C322.378 352.733 321.311 353.2 319.991 353.2C319.151 353.2 318.464 353.047 317.931 352.74C317.398 352.433 316.978 352.067 316.671 351.64H316.531L316.171 353H314.911V337.8H316.671V341.5ZM319.691 343.56C318.558 343.56 317.771 343.887 317.331 344.54C316.891 345.193 316.671 346.207 316.671 347.58V347.66C316.671 348.98 316.884 349.993 317.311 350.7C317.751 351.393 318.558 351.74 319.731 351.74C320.691 351.74 321.404 351.387 321.871 350.68C322.351 349.973 322.591 348.953 322.591 347.62C322.591 344.913 321.624 343.56 319.691 343.56ZM331.356 342.08C332.276 342.08 333.062 342.28 333.716 342.68C334.382 343.08 334.889 343.647 335.236 344.38C335.596 345.1 335.776 345.947 335.776 346.92V347.98H328.436C328.462 349.193 328.769 350.12 329.356 350.76C329.956 351.387 330.789 351.7 331.856 351.7C332.536 351.7 333.136 351.64 333.656 351.52C334.189 351.387 334.736 351.2 335.296 350.96V352.5C334.749 352.74 334.209 352.913 333.676 353.02C333.142 353.14 332.509 353.2 331.776 353.2C330.762 353.2 329.862 352.993 329.076 352.58C328.302 352.167 327.696 351.553 327.256 350.74C326.829 349.913 326.616 348.907 326.616 347.72C326.616 346.547 326.809 345.54 327.196 344.7C327.596 343.86 328.149 343.213 328.856 342.76C329.576 342.307 330.409 342.08 331.356 342.08ZM331.336 343.52C330.496 343.52 329.829 343.793 329.336 344.34C328.856 344.873 328.569 345.62 328.476 346.58H333.936C333.922 345.673 333.709 344.94 333.296 344.38C332.882 343.807 332.229 343.52 331.336 343.52ZM347.28 351.76C347.547 351.76 347.82 351.74 348.1 351.7C348.38 351.647 348.607 351.593 348.78 351.54V352.88C348.593 352.973 348.327 353.047 347.98 353.1C347.633 353.167 347.3 353.2 346.98 353.2C346.42 353.2 345.9 353.107 345.42 352.92C344.953 352.72 344.573 352.38 344.28 351.9C343.987 351.42 343.84 350.747 343.84 349.88V343.64H342.32V342.8L343.86 342.1L344.56 339.82H345.6V342.28H348.7V343.64H345.6V349.84C345.6 350.493 345.753 350.98 346.06 351.3C346.38 351.607 346.787 351.76 347.28 351.76ZM355.927 342.08C356.127 342.08 356.34 342.093 356.567 342.12C356.807 342.133 357.013 342.16 357.187 342.2L356.967 343.82C356.793 343.78 356.6 343.747 356.387 343.72C356.187 343.693 355.993 343.68 355.807 343.68C355.26 343.68 354.747 343.833 354.267 344.14C353.787 344.433 353.4 344.853 353.107 345.4C352.827 345.933 352.687 346.56 352.687 347.28V353H350.927V342.28H352.367L352.567 344.24H352.647C352.993 343.653 353.44 343.147 353.987 342.72C354.533 342.293 355.18 342.08 355.927 342.08ZM368.148 342.28V353H366.708L366.448 351.58H366.368C366.022 352.14 365.542 352.553 364.928 352.82C364.315 353.073 363.662 353.2 362.968 353.2C361.675 353.2 360.702 352.893 360.048 352.28C359.395 351.653 359.068 350.66 359.068 349.3V342.28H360.848V349.18C360.848 350.887 361.642 351.74 363.228 351.74C364.415 351.74 365.235 351.407 365.688 350.74C366.155 350.073 366.388 349.113 366.388 347.86V342.28H368.148ZM376.712 342.08C377.992 342.08 378.958 342.393 379.612 343.02C380.265 343.633 380.592 344.633 380.592 346.02V353H378.852V346.14C378.852 344.42 378.052 343.56 376.452 343.56C375.265 343.56 374.445 343.893 373.992 344.56C373.538 345.227 373.312 346.187 373.312 347.44V353H371.552V342.28H372.972L373.232 343.74H373.332C373.678 343.18 374.158 342.767 374.772 342.5C375.385 342.22 376.032 342.08 376.712 342.08ZM388.215 353.2C387.268 353.2 386.422 353.007 385.675 352.62C384.942 352.233 384.362 351.633 383.935 350.82C383.522 350.007 383.315 348.967 383.315 347.7C383.315 346.38 383.535 345.307 383.975 344.48C384.415 343.653 385.008 343.047 385.755 342.66C386.515 342.273 387.375 342.08 388.335 342.08C388.882 342.08 389.408 342.14 389.915 342.26C390.422 342.367 390.835 342.5 391.155 342.66L390.615 344.12C390.295 344 389.922 343.887 389.495 343.78C389.068 343.673 388.668 343.62 388.295 343.62C386.188 343.62 385.135 344.973 385.135 347.68C385.135 348.973 385.388 349.967 385.895 350.66C386.415 351.34 387.182 351.68 388.195 351.68C388.782 351.68 389.295 351.62 389.735 351.5C390.188 351.38 390.602 351.233 390.975 351.06V352.62C390.615 352.807 390.215 352.947 389.775 353.04C389.348 353.147 388.828 353.2 388.215 353.2ZM397.584 342.1C398.891 342.1 399.858 342.387 400.484 342.96C401.111 343.533 401.424 344.447 401.424 345.7V353H400.144L399.804 351.48H399.724C399.258 352.067 398.764 352.5 398.244 352.78C397.738 353.06 397.031 353.2 396.124 353.2C395.151 353.2 394.344 352.947 393.704 352.44C393.064 351.92 392.744 351.113 392.744 350.02C392.744 348.953 393.164 348.133 394.004 347.56C394.844 346.973 396.138 346.653 397.884 346.6L399.704 346.54V345.9C399.704 345.007 399.511 344.387 399.124 344.04C398.738 343.693 398.191 343.52 397.484 343.52C396.924 343.52 396.391 343.607 395.884 343.78C395.378 343.94 394.904 344.127 394.464 344.34L393.924 343.02C394.391 342.767 394.944 342.553 395.584 342.38C396.224 342.193 396.891 342.1 397.584 342.1ZM398.104 347.82C396.771 347.873 395.844 348.087 395.324 348.46C394.818 348.833 394.564 349.36 394.564 350.04C394.564 350.64 394.744 351.08 395.104 351.36C395.478 351.64 395.951 351.78 396.524 351.78C397.431 351.78 398.184 351.533 398.784 351.04C399.384 350.533 399.684 349.76 399.684 348.72V347.76L398.104 347.82ZM408.315 351.76C408.582 351.76 408.855 351.74 409.135 351.7C409.415 351.647 409.642 351.593 409.815 351.54V352.88C409.628 352.973 409.362 353.047 409.015 353.1C408.668 353.167 408.335 353.2 408.015 353.2C407.455 353.2 406.935 353.107 406.455 352.92C405.988 352.72 405.608 352.38 405.315 351.9C405.022 351.42 404.875 350.747 404.875 349.88V343.64H403.355V342.8L404.895 342.1L405.595 339.82H406.635V342.28H409.735V343.64H406.635V349.84C406.635 350.493 406.788 350.98 407.095 351.3C407.415 351.607 407.822 351.76 408.315 351.76ZM416.102 342.08C417.022 342.08 417.808 342.28 418.462 342.68C419.128 343.08 419.635 343.647 419.982 344.38C420.342 345.1 420.522 345.947 420.522 346.92V347.98H413.182C413.208 349.193 413.515 350.12 414.102 350.76C414.702 351.387 415.535 351.7 416.602 351.7C417.282 351.7 417.882 351.64 418.402 351.52C418.935 351.387 419.482 351.2 420.042 350.96V352.5C419.495 352.74 418.955 352.913 418.422 353.02C417.888 353.14 417.255 353.2 416.522 353.2C415.508 353.2 414.608 352.993 413.822 352.58C413.048 352.167 412.442 351.553 412.002 350.74C411.575 349.913 411.362 348.907 411.362 347.72C411.362 346.547 411.555 345.54 411.942 344.7C412.342 343.86 412.895 343.213 413.602 342.76C414.322 342.307 415.155 342.08 416.102 342.08ZM416.082 343.52C415.242 343.52 414.575 343.793 414.082 344.34C413.602 344.873 413.315 345.62 413.222 346.58H418.682C418.668 345.673 418.455 344.94 418.042 344.38C417.628 343.807 416.975 343.52 416.082 343.52ZM427.051 353.2C425.717 353.2 424.651 352.74 423.851 351.82C423.051 350.887 422.651 349.5 422.651 347.66C422.651 345.82 423.051 344.433 423.851 343.5C424.664 342.553 425.737 342.08 427.071 342.08C427.897 342.08 428.571 342.233 429.091 342.54C429.624 342.847 430.057 343.22 430.391 343.66H430.511C430.497 343.487 430.471 343.233 430.431 342.9C430.404 342.553 430.391 342.28 430.391 342.08V337.8H432.151V353H430.731L430.471 351.56H430.391C430.071 352.013 429.644 352.4 429.111 352.72C428.577 353.04 427.891 353.2 427.051 353.2ZM427.331 351.74C428.464 351.74 429.257 351.433 429.711 350.82C430.177 350.193 430.411 349.253 430.411 348V347.68C430.411 346.347 430.191 345.327 429.751 344.62C429.311 343.9 428.497 343.54 427.311 343.54C426.364 343.54 425.651 343.92 425.171 344.68C424.704 345.427 424.471 346.433 424.471 347.7C424.471 348.98 424.704 349.973 425.171 350.68C425.651 351.387 426.371 351.74 427.331 351.74ZM447.671 346.94C447.497 346.393 447.344 345.86 447.211 345.34C447.091 344.807 446.997 344.393 446.931 344.1H446.851C446.797 344.393 446.711 344.807 446.591 345.34C446.471 345.86 446.317 346.4 446.131 346.96L444.211 352.98H442.211L439.271 342.26H441.091L442.571 347.98C442.717 348.553 442.857 349.133 442.991 349.72C443.124 350.307 443.217 350.793 443.271 351.18H443.351C443.404 350.953 443.464 350.673 443.531 350.34C443.611 350.007 443.697 349.66 443.791 349.3C443.884 348.927 443.977 348.593 444.071 348.3L445.971 342.26H447.891L449.731 348.3C449.877 348.753 450.017 349.247 450.151 349.78C450.297 350.313 450.397 350.773 450.451 351.16H450.531C450.571 350.827 450.657 350.367 450.791 349.78C450.937 349.193 451.091 348.593 451.251 347.98L452.751 342.26H454.551L451.571 352.98H449.511L447.671 346.94ZM457.373 338.26C457.64 338.26 457.873 338.353 458.073 338.54C458.287 338.713 458.393 338.993 458.393 339.38C458.393 339.753 458.287 340.033 458.073 340.22C457.873 340.407 457.64 340.5 457.373 340.5C457.08 340.5 456.833 340.407 456.633 340.22C456.433 340.033 456.333 339.753 456.333 339.38C456.333 338.993 456.433 338.713 456.633 338.54C456.833 338.353 457.08 338.26 457.373 338.26ZM458.233 342.28V353H456.473V342.28H458.233ZM465.21 351.76C465.476 351.76 465.75 351.74 466.03 351.7C466.31 351.647 466.536 351.593 466.71 351.54V352.88C466.523 352.973 466.256 353.047 465.91 353.1C465.563 353.167 465.23 353.2 464.91 353.2C464.35 353.2 463.83 353.107 463.35 352.92C462.883 352.72 462.503 352.38 462.21 351.9C461.916 351.42 461.77 350.747 461.77 349.88V343.64H460.25V342.8L461.79 342.1L462.49 339.82H463.53V342.28H466.63V343.64H463.53V349.84C463.53 350.493 463.683 350.98 463.99 351.3C464.31 351.607 464.716 351.76 465.21 351.76ZM470.616 342.26C470.616 342.793 470.583 343.293 470.516 343.76H470.636C470.983 343.213 471.45 342.8 472.036 342.52C472.636 342.24 473.283 342.1 473.976 342.1C475.283 342.1 476.263 342.413 476.916 343.04C477.57 343.653 477.896 344.647 477.896 346.02V353H476.156V346.14C476.156 344.42 475.356 343.56 473.756 343.56C472.556 343.56 471.73 343.9 471.276 344.58C470.836 345.247 470.616 346.207 470.616 347.46V353H468.856V337.8H470.616V342.26ZM486.155 351.92C486.155 351.427 486.275 351.08 486.515 350.88C486.755 350.68 487.042 350.58 487.375 350.58C487.722 350.58 488.015 350.68 488.255 350.88C488.508 351.08 488.635 351.427 488.635 351.92C488.635 352.4 488.508 352.747 488.255 352.96C488.015 353.173 487.722 353.28 487.375 353.28C487.042 353.28 486.755 353.173 486.515 352.96C486.275 352.747 486.155 352.4 486.155 351.92ZM491.506 351.92C491.506 351.427 491.626 351.08 491.866 350.88C492.106 350.68 492.393 350.58 492.726 350.58C493.073 350.58 493.366 350.68 493.606 350.88C493.86 351.08 493.986 351.427 493.986 351.92C493.986 352.4 493.86 352.747 493.606 352.96C493.366 353.173 493.073 353.28 492.726 353.28C492.393 353.28 492.106 353.173 491.866 352.96C491.626 352.747 491.506 352.4 491.506 351.92ZM496.858 351.92C496.858 351.427 496.978 351.08 497.218 350.88C497.458 350.68 497.745 350.58 498.078 350.58C498.425 350.58 498.718 350.68 498.958 350.88C499.211 351.08 499.338 351.427 499.338 351.92C499.338 352.4 499.211 352.747 498.958 352.96C498.718 353.173 498.425 353.28 498.078 353.28C497.745 353.28 497.458 353.173 497.218 352.96C496.978 352.747 496.858 352.4 496.858 351.92Z" fill="#333333"/>
<path d="M79.254 411.39C77.874 411.39 76.788 411.852 75.996 412.776C75.204 413.7 74.808 414.966 74.808 416.574C74.808 418.17 75.174 419.436 75.906 420.372C76.65 421.296 77.76 421.758 79.236 421.758C79.8 421.758 80.334 421.71 80.838 421.614C81.342 421.518 81.834 421.398 82.314 421.254V422.658C81.834 422.838 81.336 422.97 80.82 423.054C80.316 423.138 79.71 423.18 79.002 423.18C77.694 423.18 76.602 422.91 75.726 422.37C74.85 421.83 74.19 421.062 73.746 420.066C73.314 419.07 73.098 417.9 73.098 416.556C73.098 415.26 73.332 414.12 73.8 413.136C74.28 412.14 74.982 411.366 75.906 410.814C76.83 410.25 77.952 409.968 79.272 409.968C80.628 409.968 81.81 410.22 82.818 410.724L82.17 412.092C81.774 411.912 81.33 411.75 80.838 411.606C80.358 411.462 79.83 411.39 79.254 411.39ZM93.291 418.158C93.291 419.754 92.883 420.99 92.067 421.866C91.263 422.742 90.171 423.18 88.791 423.18C87.939 423.18 87.177 422.988 86.505 422.604C85.845 422.208 85.323 421.638 84.939 420.894C84.555 420.138 84.363 419.226 84.363 418.158C84.363 416.562 84.765 415.332 85.569 414.468C86.373 413.604 87.465 413.172 88.845 413.172C89.721 413.172 90.489 413.37 91.149 413.766C91.821 414.15 92.343 414.714 92.715 415.458C93.099 416.19 93.291 417.09 93.291 418.158ZM86.001 418.158C86.001 419.298 86.223 420.204 86.667 420.876C87.123 421.536 87.843 421.866 88.827 421.866C89.799 421.866 90.513 421.536 90.969 420.876C91.425 420.204 91.653 419.298 91.653 418.158C91.653 417.018 91.425 416.124 90.969 415.476C90.513 414.828 89.793 414.504 88.809 414.504C87.825 414.504 87.111 414.828 86.667 415.476C86.223 416.124 86.001 417.018 86.001 418.158ZM100.445 413.172C101.597 413.172 102.467 413.454 103.055 414.018C103.643 414.57 103.937 415.47 103.937 416.718V423H102.371V416.826C102.371 415.278 101.651 414.504 100.211 414.504C99.1435 414.504 98.4055 414.804 97.9975 415.404C97.5895 416.004 97.3855 416.868 97.3855 417.996V423H95.8015V413.352H97.0795L97.3135 414.666H97.4035C97.7155 414.162 98.1475 413.79 98.6995 413.55C99.2515 413.298 99.8335 413.172 100.445 413.172ZM110.15 421.884C110.39 421.884 110.636 421.866 110.888 421.83C111.14 421.782 111.344 421.734 111.5 421.686V422.892C111.332 422.976 111.092 423.042 110.78 423.09C110.468 423.15 110.168 423.18 109.88 423.18C109.376 423.18 108.908 423.096 108.476 422.928C108.056 422.748 107.714 422.442 107.45 422.01C107.186 421.578 107.054 420.972 107.054 420.192V414.576H105.686V413.82L107.072 413.19L107.702 411.138H108.638V413.352H111.428V414.576H108.638V420.156C108.638 420.744 108.776 421.182 109.052 421.47C109.34 421.746 109.706 421.884 110.15 421.884ZM117.158 413.172C117.986 413.172 118.694 413.352 119.282 413.712C119.882 414.072 120.338 414.582 120.65 415.242C120.974 415.89 121.136 416.652 121.136 417.528V418.482H114.53C114.554 419.574 114.83 420.408 115.358 420.984C115.898 421.548 116.648 421.83 117.608 421.83C118.22 421.83 118.76 421.776 119.228 421.668C119.708 421.548 120.2 421.38 120.704 421.164V422.55C120.212 422.766 119.726 422.922 119.246 423.018C118.766 423.126 118.196 423.18 117.536 423.18C116.624 423.18 115.814 422.994 115.106 422.622C114.41 422.25 113.864 421.698 113.468 420.966C113.084 420.222 112.892 419.316 112.892 418.248C112.892 417.192 113.066 416.286 113.414 415.53C113.774 414.774 114.272 414.192 114.908 413.784C115.556 413.376 116.306 413.172 117.158 413.172ZM117.14 414.468C116.384 414.468 115.784 414.714 115.34 415.206C114.908 415.686 114.65 416.358 114.566 417.222H119.48C119.468 416.406 119.276 415.746 118.904 415.242C118.532 414.726 117.944 414.468 117.14 414.468ZM125.527 418.068L122.197 413.352H123.997L126.481 416.988L128.947 413.352H130.729L127.399 418.068L130.909 423H129.109L126.481 419.148L123.817 423H122.035L125.527 418.068ZM135.99 421.884C136.23 421.884 136.476 421.866 136.728 421.83C136.98 421.782 137.184 421.734 137.34 421.686V422.892C137.172 422.976 136.932 423.042 136.62 423.09C136.308 423.15 136.008 423.18 135.72 423.18C135.216 423.18 134.748 423.096 134.316 422.928C133.896 422.748 133.554 422.442 133.29 422.01C133.026 421.578 132.894 420.972 132.894 420.192V414.576H131.526V413.82L132.912 413.19L133.542 411.138H134.478V413.352H137.268V414.576H134.478V420.156C134.478 420.744 134.616 421.182 134.892 421.47C135.18 421.746 135.546 421.884 135.99 421.884ZM144.758 409.734C144.998 409.734 145.208 409.818 145.388 409.986C145.58 410.142 145.676 410.394 145.676 410.742C145.676 411.078 145.58 411.33 145.388 411.498C145.208 411.666 144.998 411.75 144.758 411.75C144.494 411.75 144.272 411.666 144.092 411.498C143.912 411.33 143.822 411.078 143.822 410.742C143.822 410.394 143.912 410.142 144.092 409.986C144.272 409.818 144.494 409.734 144.758 409.734ZM145.532 413.352V423H143.948V413.352H145.532ZM153.233 413.172C154.385 413.172 155.255 413.454 155.843 414.018C156.431 414.57 156.725 415.47 156.725 416.718V423H155.159V416.826C155.159 415.278 154.439 414.504 152.999 414.504C151.931 414.504 151.193 414.804 150.785 415.404C150.377 416.004 150.173 416.868 150.173 417.996V423H148.589V413.352H149.867L150.101 414.666H150.191C150.503 414.162 150.935 413.79 151.487 413.55C152.039 413.298 152.621 413.172 153.233 413.172ZM164.162 414.576H161.732V423H160.148V414.576H158.456V413.838L160.148 413.298V412.74C160.148 411.492 160.424 410.598 160.976 410.058C161.528 409.506 162.296 409.23 163.28 409.23C163.664 409.23 164.012 409.266 164.324 409.338C164.648 409.398 164.924 409.47 165.152 409.554L164.738 410.796C164.546 410.736 164.324 410.676 164.072 410.616C163.82 410.556 163.562 410.526 163.298 410.526C162.77 410.526 162.374 410.706 162.11 411.066C161.858 411.414 161.732 411.966 161.732 412.722V413.352H164.162V414.576ZM174.291 418.158C174.291 419.754 173.883 420.99 173.067 421.866C172.263 422.742 171.171 423.18 169.791 423.18C168.939 423.18 168.177 422.988 167.505 422.604C166.845 422.208 166.323 421.638 165.939 420.894C165.555 420.138 165.363 419.226 165.363 418.158C165.363 416.562 165.765 415.332 166.569 414.468C167.373 413.604 168.465 413.172 169.845 413.172C170.721 413.172 171.489 413.37 172.149 413.766C172.821 414.15 173.343 414.714 173.715 415.458C174.099 416.19 174.291 417.09 174.291 418.158ZM167.001 418.158C167.001 419.298 167.223 420.204 167.667 420.876C168.123 421.536 168.843 421.866 169.827 421.866C170.799 421.866 171.513 421.536 171.969 420.876C172.425 420.204 172.653 419.298 172.653 418.158C172.653 417.018 172.425 416.124 171.969 415.476C171.513 414.828 170.793 414.504 169.809 414.504C168.825 414.504 168.111 414.828 167.667 415.476C167.223 416.124 167.001 417.018 167.001 418.158ZM181.333 416.43C181.333 415.614 181.525 415.038 181.909 414.702C182.293 414.366 182.767 414.198 183.331 414.198C183.895 414.198 184.369 414.366 184.753 414.702C185.137 415.038 185.329 415.614 185.329 416.43C185.329 417.222 185.137 417.792 184.753 418.14C184.369 418.488 183.895 418.662 183.331 418.662C182.767 418.662 182.293 418.488 181.909 418.14C181.525 417.792 181.333 417.222 181.333 416.43ZM203.505 413.172C204.597 413.172 205.413 413.454 205.953 414.018C206.493 414.57 206.763 415.47 206.763 416.718V423H205.197V416.79C205.197 415.266 204.543 414.504 203.235 414.504C202.299 414.504 201.627 414.774 201.219 415.314C200.823 415.854 200.625 416.64 200.625 417.672V423H199.059V416.79C199.059 415.266 198.399 414.504 197.079 414.504C196.107 414.504 195.435 414.804 195.063 415.404C194.691 416.004 194.505 416.868 194.505 417.996V423H192.921V413.352H194.199L194.433 414.666H194.523C194.823 414.162 195.225 413.79 195.729 413.55C196.245 413.298 196.791 413.172 197.367 413.172C198.879 413.172 199.863 413.712 200.319 414.792H200.409C200.733 414.24 201.171 413.832 201.723 413.568C202.287 413.304 202.881 413.172 203.505 413.172ZM213.469 413.172C214.297 413.172 215.005 413.352 215.593 413.712C216.193 414.072 216.649 414.582 216.961 415.242C217.285 415.89 217.447 416.652 217.447 417.528V418.482H210.841C210.865 419.574 211.141 420.408 211.669 420.984C212.209 421.548 212.959 421.83 213.919 421.83C214.531 421.83 215.071 421.776 215.539 421.668C216.019 421.548 216.511 421.38 217.015 421.164V422.55C216.523 422.766 216.037 422.922 215.557 423.018C215.077 423.126 214.507 423.18 213.847 423.18C212.935 423.18 212.125 422.994 211.417 422.622C210.721 422.25 210.175 421.698 209.779 420.966C209.395 420.222 209.203 419.316 209.203 418.248C209.203 417.192 209.377 416.286 209.725 415.53C210.085 414.774 210.583 414.192 211.219 413.784C211.867 413.376 212.617 413.172 213.469 413.172ZM213.451 414.468C212.695 414.468 212.095 414.714 211.651 415.206C211.219 415.686 210.961 416.358 210.877 417.222H215.791C215.779 416.406 215.587 415.746 215.215 415.242C214.843 414.726 214.255 414.468 213.451 414.468ZM223.125 421.884C223.365 421.884 223.611 421.866 223.863 421.83C224.115 421.782 224.319 421.734 224.475 421.686V422.892C224.307 422.976 224.067 423.042 223.755 423.09C223.443 423.15 223.143 423.18 222.855 423.18C222.351 423.18 221.883 423.096 221.451 422.928C221.031 422.748 220.689 422.442 220.425 422.01C220.161 421.578 220.029 420.972 220.029 420.192V414.576H218.661V413.82L220.047 413.19L220.677 411.138H221.613V413.352H224.403V414.576H221.613V420.156C221.613 420.744 221.751 421.182 222.027 421.47C222.315 421.746 222.681 421.884 223.125 421.884ZM230.061 413.19C231.237 413.19 232.107 413.448 232.671 413.964C233.235 414.48 233.517 415.302 233.517 416.43V423H232.365L232.059 421.632H231.987C231.567 422.16 231.123 422.55 230.655 422.802C230.199 423.054 229.563 423.18 228.747 423.18C227.871 423.18 227.145 422.952 226.569 422.496C225.993 422.028 225.705 421.302 225.705 420.318C225.705 419.358 226.083 418.62 226.839 418.104C227.595 417.576 228.759 417.288 230.331 417.24L231.969 417.186V416.61C231.969 415.806 231.795 415.248 231.447 414.936C231.099 414.624 230.607 414.468 229.971 414.468C229.467 414.468 228.987 414.546 228.531 414.702C228.075 414.846 227.649 415.014 227.253 415.206L226.767 414.018C227.187 413.79 227.685 413.598 228.261 413.442C228.837 413.274 229.437 413.19 230.061 413.19ZM230.529 418.338C229.329 418.386 228.495 418.578 228.027 418.914C227.571 419.25 227.343 419.724 227.343 420.336C227.343 420.876 227.505 421.272 227.829 421.524C228.165 421.776 228.591 421.902 229.107 421.902C229.923 421.902 230.601 421.68 231.141 421.236C231.681 420.78 231.951 420.084 231.951 419.148V418.284L230.529 418.338ZM239.917 423.18C238.717 423.18 237.757 422.766 237.037 421.938C236.317 421.098 235.957 419.85 235.957 418.194C235.957 416.538 236.317 415.29 237.037 414.45C237.769 413.598 238.735 413.172 239.935 413.172C240.679 413.172 241.285 413.31 241.753 413.586C242.233 413.862 242.623 414.198 242.923 414.594H243.031C243.019 414.438 242.995 414.21 242.959 413.91C242.935 413.598 242.923 413.352 242.923 413.172V409.32H244.507V423H243.229L242.995 421.704H242.923C242.635 422.112 242.251 422.46 241.771 422.748C241.291 423.036 240.673 423.18 239.917 423.18ZM240.169 421.866C241.189 421.866 241.903 421.59 242.311 421.038C242.731 420.474 242.941 419.628 242.941 418.5V418.212C242.941 417.012 242.743 416.094 242.347 415.458C241.951 414.81 241.219 414.486 240.151 414.486C239.299 414.486 238.657 414.828 238.225 415.512C237.805 416.184 237.595 417.09 237.595 418.23C237.595 419.382 237.805 420.276 238.225 420.912C238.657 421.548 239.305 421.866 240.169 421.866ZM251.225 413.19C252.401 413.19 253.271 413.448 253.835 413.964C254.399 414.48 254.681 415.302 254.681 416.43V423H253.529L253.223 421.632H253.151C252.731 422.16 252.287 422.55 251.819 422.802C251.363 423.054 250.727 423.18 249.911 423.18C249.035 423.18 248.309 422.952 247.733 422.496C247.157 422.028 246.869 421.302 246.869 420.318C246.869 419.358 247.247 418.62 248.003 418.104C248.759 417.576 249.923 417.288 251.495 417.24L253.133 417.186V416.61C253.133 415.806 252.959 415.248 252.611 414.936C252.263 414.624 251.771 414.468 251.135 414.468C250.631 414.468 250.151 414.546 249.695 414.702C249.239 414.846 248.813 415.014 248.417 415.206L247.931 414.018C248.351 413.79 248.849 413.598 249.425 413.442C250.001 413.274 250.601 413.19 251.225 413.19ZM251.693 418.338C250.493 418.386 249.659 418.578 249.191 418.914C248.735 419.25 248.507 419.724 248.507 420.336C248.507 420.876 248.669 421.272 248.993 421.524C249.329 421.776 249.755 421.902 250.271 421.902C251.087 421.902 251.765 421.68 252.305 421.236C252.845 420.78 253.115 420.084 253.115 419.148V418.284L251.693 418.338ZM260.883 421.884C261.123 421.884 261.369 421.866 261.621 421.83C261.873 421.782 262.077 421.734 262.233 421.686V422.892C262.065 422.976 261.825 423.042 261.513 423.09C261.201 423.15 260.901 423.18 260.613 423.18C260.109 423.18 259.641 423.096 259.209 422.928C258.789 422.748 258.447 422.442 258.183 422.01C257.919 421.578 257.787 420.972 257.787 420.192V414.576H256.419V413.82L257.805 413.19L258.435 411.138H259.371V413.352H262.161V414.576H259.371V420.156C259.371 420.744 259.509 421.182 259.785 421.47C260.073 421.746 260.439 421.884 260.883 421.884ZM267.819 413.19C268.995 413.19 269.865 413.448 270.429 413.964C270.993 414.48 271.275 415.302 271.275 416.43V423H270.123L269.817 421.632H269.745C269.325 422.16 268.881 422.55 268.413 422.802C267.957 423.054 267.321 423.18 266.505 423.18C265.629 423.18 264.903 422.952 264.327 422.496C263.751 422.028 263.463 421.302 263.463 420.318C263.463 419.358 263.841 418.62 264.597 418.104C265.353 417.576 266.517 417.288 268.089 417.24L269.727 417.186V416.61C269.727 415.806 269.553 415.248 269.205 414.936C268.857 414.624 268.365 414.468 267.729 414.468C267.225 414.468 266.745 414.546 266.289 414.702C265.833 414.846 265.407 415.014 265.011 415.206L264.525 414.018C264.945 413.79 265.443 413.598 266.019 413.442C266.595 413.274 267.195 413.19 267.819 413.19ZM268.287 418.338C267.087 418.386 266.253 418.578 265.785 418.914C265.329 419.25 265.101 419.724 265.101 420.336C265.101 420.876 265.263 421.272 265.587 421.524C265.923 421.776 266.349 421.902 266.865 421.902C267.681 421.902 268.359 421.68 268.899 421.236C269.439 420.78 269.709 420.084 269.709 419.148V418.284L268.287 418.338Z" fill="#43474E"/>
<rect x="48.5" y="47.5" width="492" height="403" rx="5.5" stroke="#7D828B"/>
<g clip-path="url(#clip0_201_268)">
<rect y="261" width="72" height="1" fill="#C54600"/>
<g clip-path="url(#clip1_201_268)">
<rect y="249" width="24" height="24" rx="12" fill="#C54600"/>
<path d="M7.92702 264.21V262.515L12.1777 255.818H13.6394V258.165H12.7743L10.0946 262.406V262.485H16.1351V264.21H7.92702ZM12.8141 266V263.693L12.8539 262.942V255.818H14.8723V266H12.8141Z" fill="white"/>
</g>
</g>
<g clip-path="url(#clip2_201_268)">
<rect y="117" width="72" height="1" fill="#C54600"/>
<g clip-path="url(#clip3_201_268)">
<rect y="105" width="24" height="24" rx="12" fill="#C54600"/>
<path d="M8.4161 122V120.449L12.0404 117.093C12.3486 116.795 12.6072 116.526 12.816 116.288C13.0281 116.049 13.1888 115.815 13.2982 115.587C13.4076 115.355 13.4623 115.104 13.4623 114.836C13.4623 114.538 13.3943 114.281 13.2584 114.065C13.1225 113.847 12.9369 113.679 12.7016 113.563C12.4663 113.444 12.1995 113.384 11.9012 113.384C11.5896 113.384 11.3179 113.447 11.0858 113.573C10.8538 113.699 10.6749 113.88 10.5489 114.115C10.423 114.35 10.36 114.63 10.36 114.955H8.31667C8.31667 114.289 8.46748 113.711 8.76909 113.22C9.0707 112.73 9.49328 112.35 10.0368 112.082C10.5804 111.813 11.2068 111.679 11.9161 111.679C12.6453 111.679 13.28 111.808 13.8202 112.067C14.3638 112.322 14.7864 112.677 15.088 113.131C15.3896 113.585 15.5404 114.105 15.5404 114.692C15.5404 115.076 15.4642 115.456 15.3117 115.83C15.1626 116.205 14.8957 116.621 14.5113 117.078C14.1268 117.532 13.5849 118.077 12.8856 118.714L11.3991 120.17V120.24H15.6746V122H8.4161Z" fill="white"/>
</g>
</g>
<g clip-path="url(#clip4_201_268)">
<rect y="207" width="72" height="1" fill="#C54600"/>
<g clip-path="url(#clip5_201_268)">
<rect y="195" width="24" height="24" rx="12" fill="#C54600"/>
<path d="M11.9745 212.139C11.2321 212.139 10.5709 212.012 9.99086 211.756C9.41415 211.498 8.95842 211.143 8.62367 210.692C8.29223 210.238 8.12154 209.715 8.11159 209.121H10.2792C10.2925 209.37 10.3737 209.589 10.5228 209.778C10.6753 209.963 10.8775 210.107 11.1294 210.21C11.3812 210.313 11.6646 210.364 11.9795 210.364C12.3076 210.364 12.5976 210.306 12.8495 210.19C13.1014 210.074 13.2986 209.914 13.4411 209.708C13.5837 209.503 13.6549 209.266 13.6549 208.997C13.6549 208.725 13.5787 208.485 13.4262 208.276C13.2771 208.064 13.0616 207.898 12.7799 207.779C12.5015 207.66 12.1701 207.6 11.7856 207.6H10.836V206.019H11.7856C12.1104 206.019 12.3971 205.963 12.6457 205.85C12.8976 205.737 13.0931 205.582 13.2323 205.383C13.3715 205.181 13.4411 204.945 13.4411 204.677C13.4411 204.422 13.3798 204.198 13.2572 204.006C13.1379 203.81 12.9688 203.658 12.7501 203.548C12.5347 203.439 12.2828 203.384 11.9944 203.384C11.7027 203.384 11.4359 203.437 11.194 203.543C10.952 203.646 10.7581 203.794 10.6123 203.986C10.4665 204.178 10.3886 204.403 10.3786 204.662H8.31543C8.32537 204.075 8.49275 203.558 8.81756 203.111C9.14237 202.663 9.57987 202.314 10.1301 202.062C10.6836 201.807 11.3083 201.679 12.0044 201.679C12.707 201.679 13.3218 201.807 13.8488 202.062C14.3758 202.317 14.7851 202.662 15.0768 203.096C15.3718 203.527 15.5176 204.011 15.5143 204.548C15.5176 205.118 15.3403 205.593 14.9823 205.974C14.6277 206.356 14.1653 206.598 13.5953 206.7V206.78C14.3443 206.876 14.9144 207.136 15.3055 207.56C15.6999 207.981 15.8954 208.508 15.8921 209.141C15.8954 209.721 15.7281 210.237 15.39 210.688C15.0553 211.138 14.5929 211.493 14.0029 211.751C13.413 212.01 12.7368 212.139 11.9745 212.139Z" fill="white"/>
</g>
</g>
<g clip-path="url(#clip6_201_268)">
<rect x="211" width="1" height="47" fill="#C54600"/>
<g clip-path="url(#clip7_201_268)">
<rect x="199" width="24" height="24" rx="12" fill="#C54600"/>
<path d="M212.83 6.81818V17H210.677V8.86151H210.618L208.286 10.3232V8.41406L210.807 6.81818H212.83Z" fill="white"/>
</g>
</g>
<g clip-path="url(#clip8_201_268)">
<rect y="332" width="72" height="1" fill="#C54600"/>
<g clip-path="url(#clip9_201_268)">
<rect y="320" width="24" height="24" rx="12" fill="#C54600"/>
<path d="M12.0323 337.139C11.3297 337.139 10.7032 337.01 10.1531 336.751C9.60618 336.493 9.17199 336.137 8.8505 335.683C8.529 335.228 8.36162 334.708 8.34837 334.121H10.4364C10.4596 334.516 10.6254 334.836 10.9336 335.081C11.2418 335.326 11.6081 335.449 12.0323 335.449C12.3704 335.449 12.6687 335.374 12.9272 335.225C13.189 335.073 13.3929 334.862 13.5387 334.594C13.6879 334.322 13.7624 334.01 13.7624 333.659C13.7624 333.301 13.6862 332.986 13.5337 332.714C13.3846 332.443 13.1774 332.231 12.9123 332.078C12.6471 331.926 12.3439 331.848 12.0025 331.844C11.7042 331.844 11.4142 331.906 11.1325 332.028C10.854 332.151 10.637 332.318 10.4812 332.531L8.56712 332.188L9.04936 326.818H15.2738V328.578H10.8242L10.5607 331.129H10.6204C10.7994 330.877 11.0695 330.668 11.4308 330.502C11.792 330.336 12.1964 330.254 12.6438 330.254C13.257 330.254 13.8039 330.398 14.2844 330.686C14.765 330.974 15.1445 331.371 15.4229 331.874C15.7013 332.375 15.8389 332.951 15.8356 333.604C15.8389 334.29 15.6798 334.9 15.3583 335.434C15.0401 335.964 14.5943 336.382 14.021 336.687C13.4509 336.988 12.788 337.139 12.0323 337.139Z" fill="white"/>
</g>
</g>
<g clip-path="url(#clip10_201_268)">
<rect y="417" width="68" height="1" fill="#C54600"/>
<g clip-path="url(#clip11_201_268)">
<rect y="405" width="24" height="24" rx="12" fill="#C54600"/>
<path d="M12.1119 422.139C11.5882 422.136 11.0827 422.048 10.5955 421.876C10.1116 421.703 9.67744 421.423 9.29297 421.036C8.9085 420.648 8.60357 420.134 8.3782 419.494C8.15613 418.855 8.0451 418.069 8.0451 417.138C8.04841 416.283 8.14619 415.519 8.33842 414.846C8.53397 414.17 8.81238 413.596 9.17365 413.126C9.53823 412.655 9.97408 412.297 10.4812 412.052C10.9883 411.803 11.5567 411.679 12.1864 411.679C12.8659 411.679 13.4658 411.812 13.9862 412.077C14.5065 412.339 14.9241 412.695 15.239 413.146C15.5572 413.596 15.7494 414.102 15.8157 414.662H13.6928C13.61 414.307 13.436 414.029 13.1708 413.827C12.9057 413.625 12.5775 413.523 12.1864 413.523C11.5236 413.523 11.0198 413.812 10.6751 414.388C10.3337 414.965 10.1597 415.749 10.1531 416.74H10.2227C10.3751 416.438 10.5806 416.182 10.8391 415.969C11.101 415.754 11.3976 415.59 11.729 415.477C12.0638 415.361 12.4168 415.303 12.788 415.303C13.3912 415.303 13.9281 415.446 14.3988 415.731C14.8694 416.013 15.2406 416.4 15.5124 416.894C15.7842 417.388 15.9201 417.953 15.9201 418.589C15.9201 419.279 15.7594 419.892 15.4379 420.429C15.1197 420.966 14.6739 421.387 14.1005 421.692C13.5304 421.993 12.8675 422.143 12.1119 422.139ZM12.1019 420.449C12.4334 420.449 12.73 420.369 12.9918 420.21C13.2537 420.051 13.4592 419.836 13.6083 419.564C13.7575 419.292 13.832 418.987 13.832 418.649C13.832 418.311 13.7575 418.008 13.6083 417.739C13.4625 417.471 13.2603 417.257 13.0018 417.098C12.7433 416.939 12.4483 416.859 12.1168 416.859C11.8683 416.859 11.6379 416.906 11.4258 416.999C11.217 417.091 11.033 417.221 10.8739 417.386C10.7182 417.552 10.5955 417.744 10.506 417.963C10.4165 418.179 10.3718 418.409 10.3718 418.654C10.3718 418.982 10.4464 419.282 10.5955 419.554C10.748 419.826 10.9535 420.043 11.212 420.205C11.4738 420.368 11.7705 420.449 12.1019 420.449Z" fill="white"/>
</g>
</g>
<defs>
<clipPath id="clip0_201_268">
<rect width="72" height="24" fill="white" transform="translate(0 249)"/>
</clipPath>
<clipPath id="clip1_201_268">
<rect y="249" width="24" height="24" rx="12" fill="white"/>
</clipPath>
<clipPath id="clip2_201_268">
<rect width="72" height="24" fill="white" transform="translate(0 105)"/>
</clipPath>
<clipPath id="clip3_201_268">
<rect y="105" width="24" height="24" rx="12" fill="white"/>
</clipPath>
<clipPath id="clip4_201_268">
<rect width="72" height="24" fill="white" transform="translate(0 195)"/>
</clipPath>
<clipPath id="clip5_201_268">
<rect y="195" width="24" height="24" rx="12" fill="white"/>
</clipPath>
<clipPath id="clip6_201_268">
<rect width="24" height="47" fill="white" transform="translate(199)"/>
</clipPath>
<clipPath id="clip7_201_268">
<rect x="199" width="24" height="24" rx="12" fill="white"/>
</clipPath>
<clipPath id="clip8_201_268">
<rect width="72" height="24" fill="white" transform="translate(0 320)"/>
</clipPath>
<clipPath id="clip9_201_268">
<rect y="320" width="24" height="24" rx="12" fill="white"/>
</clipPath>
<clipPath id="clip10_201_268">
<rect width="68" height="24" fill="white" transform="translate(0 405)"/>
</clipPath>
<clipPath id="clip11_201_268">
<rect y="405" width="24" height="24" rx="12" fill="white"/>
</clipPath>
</defs>
</svg>
