<svg width="1680" height="419" viewBox="0 0 1680 419" fill="none" xmlns="http://www.w3.org/2000/svg">
<rect width="1440" height="219" transform="translate(120 100)" fill="white"/>
<mask id="path-1-outside-1_6347_14816" maskUnits="userSpaceOnUse" x="120" y="108" width="1440" height="101" fill="black">
<rect fill="white" x="120" y="108" width="1440" height="101"/>
<path d="M120 108H1560V208H120V108Z"/>
</mask>
<path d="M1560 207H120V209H1560V207Z" fill="#D6D9DD" mask="url(#path-1-outside-1_6347_14816)"/>
<g clip-path="url(#clip0_6347_14816)">
<rect width="1140" height="36" transform="translate(270 108)" fill="white"/>
<rect width="84" height="27" transform="translate(270 112.5)" fill="white"/>
<g filter="url(#filter0_i_6347_14816)">
<rect x="750" y="110" width="202" height="32" rx="6" fill="#0535D2"/>
<rect x="749" y="109" width="204" height="34" rx="7" stroke="#0535D2" stroke-width="2"/>
<path d="M764.04 130.18C764.04 131.447 763.58 132.433 762.66 133.14C761.74 133.847 760.5 134.2 758.94 134.2C758.14 134.2 757.4 134.14 756.72 134.02C756.04 133.9 755.473 133.733 755.02 133.52V131.8C755.5 132.013 756.093 132.207 756.8 132.38C757.52 132.553 758.26 132.64 759.02 132.64C760.087 132.64 760.887 132.433 761.42 132.02C761.967 131.607 762.24 131.047 762.24 130.34C762.24 129.873 762.14 129.48 761.94 129.16C761.74 128.84 761.393 128.547 760.9 128.28C760.42 128 759.747 127.707 758.88 127.4C757.667 126.96 756.747 126.42 756.12 125.78C755.507 125.14 755.2 124.267 755.2 123.16C755.2 122.4 755.393 121.753 755.78 121.22C756.167 120.673 756.7 120.253 757.38 119.96C758.073 119.667 758.867 119.52 759.76 119.52C760.547 119.52 761.267 119.593 761.92 119.74C762.573 119.887 763.167 120.08 763.7 120.32L763.14 121.86C762.647 121.647 762.107 121.467 761.52 121.32C760.947 121.173 760.347 121.1 759.72 121.1C758.827 121.1 758.153 121.293 757.7 121.68C757.247 122.053 757.02 122.553 757.02 123.18C757.02 123.66 757.12 124.06 757.32 124.38C757.52 124.7 757.847 124.987 758.3 125.24C758.753 125.493 759.367 125.767 760.14 126.06C760.98 126.367 761.687 126.7 762.26 127.06C762.847 127.407 763.287 127.827 763.58 128.32C763.887 128.813 764.04 129.433 764.04 130.18ZM768.417 126.74C768.417 126.953 768.403 127.233 768.377 127.58C768.363 127.927 768.35 128.227 768.337 128.48H768.417C768.497 128.373 768.617 128.22 768.777 128.02C768.937 127.82 769.097 127.62 769.257 127.42C769.43 127.207 769.577 127.033 769.697 126.9L773.117 123.28H775.177L770.837 127.86L775.477 134H773.357L769.637 129L768.417 130.06V134H766.677V118.8H768.417V126.74ZM778.26 119.26C778.527 119.26 778.76 119.353 778.96 119.54C779.173 119.713 779.28 119.993 779.28 120.38C779.28 120.753 779.173 121.033 778.96 121.22C778.76 121.407 778.527 121.5 778.26 121.5C777.967 121.5 777.72 121.407 777.52 121.22C777.32 121.033 777.22 120.753 777.22 120.38C777.22 119.993 777.32 119.713 777.52 119.54C777.72 119.353 777.967 119.26 778.26 119.26ZM779.12 123.28V134H777.36V123.28H779.12ZM787.616 123.08C788.936 123.08 789.996 123.54 790.796 124.46C791.61 125.38 792.016 126.767 792.016 128.62C792.016 130.447 791.61 131.833 790.796 132.78C789.996 133.727 788.93 134.2 787.596 134.2C786.77 134.2 786.083 134.047 785.536 133.74C785.003 133.42 784.583 133.053 784.276 132.64H784.156C784.183 132.867 784.21 133.153 784.236 133.5C784.263 133.847 784.276 134.147 784.276 134.4V138.8H782.516V123.28H783.956L784.196 124.74H784.276C784.596 124.273 785.016 123.88 785.536 123.56C786.056 123.24 786.75 123.08 787.616 123.08ZM787.296 124.56C786.203 124.56 785.43 124.867 784.976 125.48C784.536 126.093 784.303 127.027 784.276 128.28V128.62C784.276 129.94 784.49 130.96 784.916 131.68C785.356 132.387 786.163 132.74 787.336 132.74C787.99 132.74 788.523 132.56 788.936 132.2C789.363 131.84 789.676 131.353 789.876 130.74C790.09 130.113 790.196 129.4 790.196 128.6C790.196 127.373 789.956 126.393 789.476 125.66C789.01 124.927 788.283 124.56 787.296 124.56ZM803.596 132.76C803.863 132.76 804.136 132.74 804.416 132.7C804.696 132.647 804.923 132.593 805.096 132.54V133.88C804.91 133.973 804.643 134.047 804.296 134.1C803.95 134.167 803.616 134.2 803.296 134.2C802.736 134.2 802.216 134.107 801.736 133.92C801.27 133.72 800.89 133.38 800.596 132.9C800.303 132.42 800.156 131.747 800.156 130.88V124.64H798.636V123.8L800.176 123.1L800.876 120.82H801.916V123.28H805.016V124.64H801.916V130.84C801.916 131.493 802.07 131.98 802.376 132.3C802.696 132.607 803.103 132.76 803.596 132.76ZM816.563 128.62C816.563 130.393 816.11 131.767 815.203 132.74C814.31 133.713 813.096 134.2 811.563 134.2C810.616 134.2 809.77 133.987 809.023 133.56C808.29 133.12 807.71 132.487 807.283 131.66C806.856 130.82 806.643 129.807 806.643 128.62C806.643 126.847 807.09 125.48 807.983 124.52C808.876 123.56 810.09 123.08 811.623 123.08C812.596 123.08 813.45 123.3 814.183 123.74C814.93 124.167 815.51 124.793 815.923 125.62C816.35 126.433 816.563 127.433 816.563 128.62ZM808.463 128.62C808.463 129.887 808.71 130.893 809.203 131.64C809.71 132.373 810.51 132.74 811.603 132.74C812.683 132.74 813.476 132.373 813.983 131.64C814.49 130.893 814.743 129.887 814.743 128.62C814.743 127.353 814.49 126.36 813.983 125.64C813.476 124.92 812.676 124.56 811.583 124.56C810.49 124.56 809.696 124.92 809.203 125.64C808.71 126.36 808.463 127.353 808.463 128.62ZM836.308 123.08C837.521 123.08 838.428 123.393 839.028 124.02C839.628 124.633 839.928 125.633 839.928 127.02V134H838.188V127.1C838.188 125.407 837.461 124.56 836.008 124.56C834.968 124.56 834.221 124.86 833.768 125.46C833.328 126.06 833.108 126.933 833.108 128.08V134H831.368V127.1C831.368 125.407 830.634 124.56 829.168 124.56C828.088 124.56 827.341 124.893 826.928 125.56C826.514 126.227 826.308 127.187 826.308 128.44V134H824.548V123.28H825.968L826.228 124.74H826.328C826.661 124.18 827.108 123.767 827.668 123.5C828.241 123.22 828.848 123.08 829.488 123.08C831.168 123.08 832.261 123.68 832.768 124.88H832.868C833.228 124.267 833.714 123.813 834.328 123.52C834.954 123.227 835.614 123.08 836.308 123.08ZM847.299 123.1C848.606 123.1 849.572 123.387 850.199 123.96C850.826 124.533 851.139 125.447 851.139 126.7V134H849.859L849.519 132.48H849.439C848.972 133.067 848.479 133.5 847.959 133.78C847.452 134.06 846.746 134.2 845.839 134.2C844.866 134.2 844.059 133.947 843.419 133.44C842.779 132.92 842.459 132.113 842.459 131.02C842.459 129.953 842.879 129.133 843.719 128.56C844.559 127.973 845.852 127.653 847.599 127.6L849.419 127.54V126.9C849.419 126.007 849.226 125.387 848.839 125.04C848.452 124.693 847.906 124.52 847.199 124.52C846.639 124.52 846.106 124.607 845.599 124.78C845.092 124.94 844.619 125.127 844.179 125.34L843.639 124.02C844.106 123.767 844.659 123.553 845.299 123.38C845.939 123.193 846.606 123.1 847.299 123.1ZM847.819 128.82C846.486 128.873 845.559 129.087 845.039 129.46C844.532 129.833 844.279 130.36 844.279 131.04C844.279 131.64 844.459 132.08 844.819 132.36C845.192 132.64 845.666 132.78 846.239 132.78C847.146 132.78 847.899 132.533 848.499 132.04C849.099 131.533 849.399 130.76 849.399 129.72V128.76L847.819 128.82ZM855.35 119.26C855.617 119.26 855.85 119.353 856.05 119.54C856.263 119.713 856.37 119.993 856.37 120.38C856.37 120.753 856.263 121.033 856.05 121.22C855.85 121.407 855.617 121.5 855.35 121.5C855.057 121.5 854.81 121.407 854.61 121.22C854.41 121.033 854.31 120.753 854.31 120.38C854.31 119.993 854.41 119.713 854.61 119.54C854.81 119.353 855.057 119.26 855.35 119.26ZM856.21 123.28V134H854.45V123.28H856.21ZM864.766 123.08C866.046 123.08 867.013 123.393 867.666 124.02C868.32 124.633 868.646 125.633 868.646 127.02V134H866.906V127.14C866.906 125.42 866.106 124.56 864.506 124.56C863.32 124.56 862.5 124.893 862.046 125.56C861.593 126.227 861.366 127.187 861.366 128.44V134H859.606V123.28H861.026L861.286 124.74H861.386C861.733 124.18 862.213 123.767 862.826 123.5C863.44 123.22 864.086 123.08 864.766 123.08ZM881.465 134.2C880.518 134.2 879.672 134.007 878.925 133.62C878.192 133.233 877.612 132.633 877.185 131.82C876.772 131.007 876.565 129.967 876.565 128.7C876.565 127.38 876.785 126.307 877.225 125.48C877.665 124.653 878.258 124.047 879.005 123.66C879.765 123.273 880.625 123.08 881.585 123.08C882.132 123.08 882.658 123.14 883.165 123.26C883.672 123.367 884.085 123.5 884.405 123.66L883.865 125.12C883.545 125 883.172 124.887 882.745 124.78C882.318 124.673 881.918 124.62 881.545 124.62C879.438 124.62 878.385 125.973 878.385 128.68C878.385 129.973 878.638 130.967 879.145 131.66C879.665 132.34 880.432 132.68 881.445 132.68C882.032 132.68 882.545 132.62 882.985 132.5C883.438 132.38 883.852 132.233 884.225 132.06V133.62C883.865 133.807 883.465 133.947 883.025 134.04C882.598 134.147 882.078 134.2 881.465 134.2ZM896.094 128.62C896.094 130.393 895.641 131.767 894.734 132.74C893.841 133.713 892.628 134.2 891.094 134.2C890.148 134.2 889.301 133.987 888.554 133.56C887.821 133.12 887.241 132.487 886.814 131.66C886.388 130.82 886.174 129.807 886.174 128.62C886.174 126.847 886.621 125.48 887.514 124.52C888.408 123.56 889.621 123.08 891.154 123.08C892.128 123.08 892.981 123.3 893.714 123.74C894.461 124.167 895.041 124.793 895.454 125.62C895.881 126.433 896.094 127.433 896.094 128.62ZM887.994 128.62C887.994 129.887 888.241 130.893 888.734 131.64C889.241 132.373 890.041 132.74 891.134 132.74C892.214 132.74 893.008 132.373 893.514 131.64C894.021 130.893 894.274 129.887 894.274 128.62C894.274 127.353 894.021 126.36 893.514 125.64C893.008 124.92 892.208 124.56 891.114 124.56C890.021 124.56 889.228 124.92 888.734 125.64C888.241 126.36 887.994 127.353 887.994 128.62ZM904.044 123.08C905.324 123.08 906.29 123.393 906.944 124.02C907.597 124.633 907.924 125.633 907.924 127.02V134H906.184V127.14C906.184 125.42 905.384 124.56 903.784 124.56C902.597 124.56 901.777 124.893 901.324 125.56C900.87 126.227 900.644 127.187 900.644 128.44V134H898.884V123.28H900.304L900.564 124.74H900.664C901.01 124.18 901.49 123.767 902.104 123.5C902.717 123.22 903.364 123.08 904.044 123.08ZM914.827 132.76C915.094 132.76 915.367 132.74 915.647 132.7C915.927 132.647 916.154 132.593 916.327 132.54V133.88C916.14 133.973 915.874 134.047 915.527 134.1C915.18 134.167 914.847 134.2 914.527 134.2C913.967 134.2 913.447 134.107 912.967 133.92C912.5 133.72 912.12 133.38 911.827 132.9C911.534 132.42 911.387 131.747 911.387 130.88V124.64H909.867V123.8L911.407 123.1L912.107 120.82H913.147V123.28H916.247V124.64H913.147V130.84C913.147 131.493 913.3 131.98 913.607 132.3C913.927 132.607 914.334 132.76 914.827 132.76ZM922.613 123.08C923.533 123.08 924.32 123.28 924.973 123.68C925.64 124.08 926.147 124.647 926.493 125.38C926.853 126.1 927.033 126.947 927.033 127.92V128.98H919.693C919.72 130.193 920.027 131.12 920.613 131.76C921.213 132.387 922.047 132.7 923.113 132.7C923.793 132.7 924.393 132.64 924.913 132.52C925.447 132.387 925.993 132.2 926.553 131.96V133.5C926.007 133.74 925.467 133.913 924.933 134.02C924.4 134.14 923.767 134.2 923.033 134.2C922.02 134.2 921.12 133.993 920.333 133.58C919.56 133.167 918.953 132.553 918.513 131.74C918.087 130.913 917.873 129.907 917.873 128.72C917.873 127.547 918.067 126.54 918.453 125.7C918.853 124.86 919.407 124.213 920.113 123.76C920.833 123.307 921.667 123.08 922.613 123.08ZM922.593 124.52C921.753 124.52 921.087 124.793 920.593 125.34C920.113 125.873 919.827 126.62 919.733 127.58H925.193C925.18 126.673 924.967 125.94 924.553 125.38C924.14 124.807 923.487 124.52 922.593 124.52ZM934.923 123.08C936.203 123.08 937.169 123.393 937.823 124.02C938.476 124.633 938.803 125.633 938.803 127.02V134H937.063V127.14C937.063 125.42 936.263 124.56 934.663 124.56C933.476 124.56 932.656 124.893 932.203 125.56C931.749 126.227 931.523 127.187 931.523 128.44V134H929.763V123.28H931.183L931.443 124.74H931.543C931.889 124.18 932.369 123.767 932.983 123.5C933.596 123.22 934.243 123.08 934.923 123.08ZM945.706 132.76C945.972 132.76 946.246 132.74 946.526 132.7C946.806 132.647 947.032 132.593 947.206 132.54V133.88C947.019 133.973 946.752 134.047 946.406 134.1C946.059 134.167 945.726 134.2 945.406 134.2C944.846 134.2 944.326 134.107 943.846 133.92C943.379 133.72 942.999 133.38 942.706 132.9C942.412 132.42 942.266 131.747 942.266 130.88V124.64H940.746V123.8L942.286 123.1L942.986 120.82H944.026V123.28H947.126V124.64H944.026V130.84C944.026 131.493 944.179 131.98 944.486 132.3C944.806 132.607 945.212 132.76 945.706 132.76Z" fill="white"/>
</g>
<path d="M1350.99 132H1349.55V120.576H1355.94V121.84H1350.99V125.888H1355.63V127.152H1350.99V132ZM1361.66 123.264C1361.82 123.264 1361.99 123.275 1362.17 123.296C1362.36 123.307 1362.53 123.328 1362.66 123.36L1362.49 124.656C1362.35 124.624 1362.2 124.597 1362.02 124.576C1361.86 124.555 1361.71 124.544 1361.56 124.544C1361.12 124.544 1360.71 124.667 1360.33 124.912C1359.94 125.147 1359.64 125.483 1359.4 125.92C1359.18 126.347 1359.06 126.848 1359.06 127.424V132H1357.66V123.424H1358.81L1358.97 124.992H1359.03C1359.31 124.523 1359.67 124.117 1360.1 123.776C1360.54 123.435 1361.06 123.264 1361.66 123.264ZM1367.2 123.28C1368.25 123.28 1369.02 123.509 1369.52 123.968C1370.02 124.427 1370.27 125.157 1370.27 126.16V132H1369.25L1368.98 130.784H1368.91C1368.54 131.253 1368.15 131.6 1367.73 131.824C1367.32 132.048 1366.76 132.16 1366.03 132.16C1365.26 132.16 1364.61 131.957 1364.1 131.552C1363.59 131.136 1363.33 130.491 1363.33 129.616C1363.33 128.763 1363.67 128.107 1364.34 127.648C1365.01 127.179 1366.04 126.923 1367.44 126.88L1368.9 126.832V126.32C1368.9 125.605 1368.74 125.109 1368.43 124.832C1368.12 124.555 1367.69 124.416 1367.12 124.416C1366.67 124.416 1366.25 124.485 1365.84 124.624C1365.44 124.752 1365.06 124.901 1364.71 125.072L1364.27 124.016C1364.65 123.813 1365.09 123.643 1365.6 123.504C1366.11 123.355 1366.65 123.28 1367.2 123.28ZM1367.62 127.856C1366.55 127.899 1365.81 128.069 1365.39 128.368C1364.99 128.667 1364.79 129.088 1364.79 129.632C1364.79 130.112 1364.93 130.464 1365.22 130.688C1365.52 130.912 1365.9 131.024 1366.35 131.024C1367.08 131.024 1367.68 130.827 1368.16 130.432C1368.64 130.027 1368.88 129.408 1368.88 128.576V127.808L1367.62 127.856ZM1377.05 123.264C1378.07 123.264 1378.85 123.515 1379.37 124.016C1379.89 124.507 1380.15 125.307 1380.15 126.416V132H1378.76V126.512C1378.76 125.136 1378.12 124.448 1376.84 124.448C1375.89 124.448 1375.24 124.715 1374.87 125.248C1374.51 125.781 1374.33 126.549 1374.33 127.552V132H1372.92V123.424H1374.06L1374.27 124.592H1374.35C1374.62 124.144 1375.01 123.813 1375.5 123.6C1375.99 123.376 1376.51 123.264 1377.05 123.264ZM1386.25 132.16C1385.5 132.16 1384.82 132.005 1384.22 131.696C1383.63 131.387 1383.17 130.907 1382.83 130.256C1382.5 129.605 1382.33 128.773 1382.33 127.76C1382.33 126.704 1382.51 125.845 1382.86 125.184C1383.21 124.523 1383.69 124.037 1384.29 123.728C1384.89 123.419 1385.58 123.264 1386.35 123.264C1386.79 123.264 1387.21 123.312 1387.61 123.408C1388.02 123.493 1388.35 123.6 1388.61 123.728L1388.17 124.896C1387.92 124.8 1387.62 124.709 1387.28 124.624C1386.94 124.539 1386.62 124.496 1386.32 124.496C1384.63 124.496 1383.79 125.579 1383.79 127.744C1383.79 128.779 1383.99 129.573 1384.4 130.128C1384.81 130.672 1385.43 130.944 1386.24 130.944C1386.71 130.944 1387.12 130.896 1387.47 130.8C1387.83 130.704 1388.16 130.587 1388.46 130.448V131.696C1388.17 131.845 1387.85 131.957 1387.5 132.032C1387.16 132.117 1386.74 132.16 1386.25 132.16ZM1387.57 134.224C1387.57 134.736 1387.37 135.131 1386.97 135.408C1386.58 135.696 1385.99 135.84 1385.2 135.84C1384.86 135.84 1384.59 135.813 1384.4 135.76V134.88C1384.49 134.901 1384.62 134.917 1384.78 134.928C1384.94 134.949 1385.1 134.96 1385.25 134.96C1385.63 134.96 1385.92 134.907 1386.13 134.8C1386.33 134.704 1386.43 134.523 1386.43 134.256C1386.43 133.979 1386.29 133.776 1386 133.648C1385.72 133.52 1385.38 133.429 1384.97 133.376L1385.66 132H1386.59L1386.17 132.848C1386.56 132.933 1386.88 133.083 1387.15 133.296C1387.43 133.509 1387.57 133.819 1387.57 134.224ZM1393.75 123.28C1394.79 123.28 1395.57 123.509 1396.07 123.968C1396.57 124.427 1396.82 125.157 1396.82 126.16V132H1395.8L1395.52 130.784H1395.46C1395.09 131.253 1394.69 131.6 1394.28 131.824C1393.87 132.048 1393.31 132.16 1392.58 132.16C1391.8 132.16 1391.16 131.957 1390.64 131.552C1390.13 131.136 1389.88 130.491 1389.88 129.616C1389.88 128.763 1390.21 128.107 1390.88 127.648C1391.56 127.179 1392.59 126.923 1393.99 126.88L1395.44 126.832V126.32C1395.44 125.605 1395.29 125.109 1394.98 124.832C1394.67 124.555 1394.23 124.416 1393.67 124.416C1393.22 124.416 1392.79 124.485 1392.39 124.624C1391.98 124.752 1391.6 124.901 1391.25 125.072L1390.82 124.016C1391.19 123.813 1391.64 123.643 1392.15 123.504C1392.66 123.355 1393.19 123.28 1393.75 123.28ZM1394.16 127.856C1393.1 127.899 1392.36 128.069 1391.94 128.368C1391.54 128.667 1391.33 129.088 1391.33 129.632C1391.33 130.112 1391.48 130.464 1391.76 130.688C1392.06 130.912 1392.44 131.024 1392.9 131.024C1393.63 131.024 1394.23 130.827 1394.71 130.432C1395.19 130.027 1395.43 129.408 1395.43 128.576V127.808L1394.16 127.856ZM1400.19 120.208C1400.4 120.208 1400.59 120.283 1400.75 120.432C1400.92 120.571 1401.01 120.795 1401.01 121.104C1401.01 121.403 1400.92 121.627 1400.75 121.776C1400.59 121.925 1400.4 122 1400.19 122C1399.95 122 1399.76 121.925 1399.6 121.776C1399.44 121.627 1399.36 121.403 1399.36 121.104C1399.36 120.795 1399.44 120.571 1399.6 120.432C1399.76 120.283 1399.95 120.208 1400.19 120.208ZM1400.88 123.424V132H1399.47V123.424H1400.88ZM1409.18 129.632C1409.18 130.464 1408.87 131.093 1408.25 131.52C1407.63 131.947 1406.8 132.16 1405.75 132.16C1405.16 132.16 1404.64 132.112 1404.2 132.016C1403.78 131.92 1403.4 131.787 1403.07 131.616V130.336C1403.41 130.507 1403.82 130.667 1404.3 130.816C1404.79 130.955 1405.29 131.024 1405.79 131.024C1406.5 131.024 1407.02 130.912 1407.34 130.688C1407.66 130.453 1407.82 130.144 1407.82 129.76C1407.82 129.547 1407.76 129.355 1407.64 129.184C1407.53 129.013 1407.31 128.843 1407 128.672C1406.7 128.501 1406.27 128.309 1405.71 128.096C1405.15 127.883 1404.68 127.669 1404.28 127.456C1403.89 127.243 1403.58 126.987 1403.37 126.688C1403.16 126.389 1403.05 126.005 1403.05 125.536C1403.05 124.811 1403.34 124.251 1403.93 123.856C1404.53 123.461 1405.31 123.264 1406.27 123.264C1406.79 123.264 1407.27 123.317 1407.72 123.424C1408.18 123.52 1408.61 123.659 1409 123.84L1408.52 124.96C1408.16 124.811 1407.78 124.683 1407.39 124.576C1406.99 124.469 1406.59 124.416 1406.17 124.416C1405.59 124.416 1405.15 124.512 1404.84 124.704C1404.54 124.885 1404.39 125.136 1404.39 125.456C1404.39 125.691 1404.46 125.893 1404.6 126.064C1404.74 126.224 1404.97 126.384 1405.29 126.544C1405.62 126.693 1406.06 126.875 1406.6 127.088C1407.15 127.291 1407.61 127.499 1407.99 127.712C1408.38 127.925 1408.67 128.187 1408.87 128.496C1409.08 128.795 1409.18 129.173 1409.18 129.632Z" fill="#2B4380"/>
<path d="M1348 134.88H1383.6V135.68H1348V134.88ZM1388.22 134.88H1409.9V135.68H1388.22V134.88Z" fill="#2B4380"/>
</g>
<g clip-path="url(#clip1_6347_14816)">
<path d="M270 155.5H286.193V188.083H270V155.5ZM322.105 155.5H338.299V188.083H322.105V155.5ZM301.903 162.281L304.215 157.628L306.51 162.111C306.796 162.585 307.029 162.546 307.486 162.32L309.459 161.355L308.176 167.615C307.908 168.844 308.615 169.205 309.385 168.371L312.198 165.4L312.945 167.081C313.196 167.589 313.574 167.515 314.075 167.424L316.98 166.82L316.004 170.447V170.525C315.89 170.999 315.662 171.394 316.198 171.624L317.231 172.132L311.218 177.141C310.607 177.762 310.818 177.953 311.046 178.653L311.6 180.334L306.013 179.335C305.323 179.165 304.844 179.165 304.826 179.712L305.055 186.046H303.376L303.604 179.73C303.604 179.109 303.125 179.126 301.996 179.356L296.813 180.338L297.481 178.657C297.71 178.014 297.771 177.58 297.253 177.145L291.147 172.206L292.277 171.524C292.602 171.277 292.62 171.016 292.448 170.464L291.301 166.794L294.246 167.415C295.068 167.606 295.297 167.415 295.508 166.981L296.33 165.317L299.24 168.531C299.754 169.135 300.484 168.74 300.255 167.871L298.857 161.086L301.02 162.315C301.363 162.524 301.727 162.58 301.938 162.185" fill="#EB2D37"/>
<path d="M378.747 169.283H377.226L376.866 167.706C375.591 169.135 374.435 169.604 372.778 169.604C368.712 169.604 366.277 166.412 366.277 162.58C366.277 158.749 368.712 155.552 372.778 155.552C375.745 155.552 378.233 157.112 378.593 160.135H376.277C376.048 158.371 374.492 157.468 372.76 157.468C369.851 157.468 368.637 160.005 368.637 162.576C368.637 165.148 369.855 167.684 372.76 167.684C375.191 167.719 376.523 166.277 376.563 164.001H372.954V162.22H378.747V169.283ZM385.53 167.854C383.591 167.854 382.734 166.116 382.734 164.418C382.734 162.719 383.591 160.999 385.53 160.999C387.468 160.999 388.325 162.737 388.325 164.418C388.325 166.099 387.468 167.854 385.53 167.854ZM385.53 169.544C388.686 169.544 390.492 167.402 390.492 164.418C390.492 161.434 388.681 159.31 385.53 159.31C382.378 159.31 380.567 161.451 380.567 164.418C380.567 167.385 382.374 169.548 385.53 169.548V169.544ZM391.319 159.575H393.675L396.154 167.028H396.193L398.589 159.57H400.831L397.314 169.279H394.883L391.319 159.575ZM403.851 163.571C403.846 163.233 403.909 162.898 404.037 162.585C404.165 162.272 404.355 161.988 404.596 161.748C404.837 161.509 405.123 161.319 405.439 161.191C405.755 161.062 406.094 160.997 406.435 160.999C407.899 160.999 408.831 162.22 408.905 163.571H403.851ZM411.072 164.983C411.433 162.072 409.534 159.31 406.435 159.31C403.508 159.31 401.683 161.677 401.683 164.435C401.683 167.419 403.415 169.544 406.492 169.544C408.642 169.544 410.448 168.362 410.941 166.238H408.901C408.519 167.311 407.763 167.854 406.505 167.854C404.699 167.854 403.868 166.503 403.868 164.978L411.072 164.983ZM412.725 159.575H414.76V161.451H414.8C415.002 160.849 415.385 160.321 415.898 159.939C416.411 159.557 417.029 159.337 417.67 159.31C417.944 159.307 418.217 159.326 418.488 159.366V161.434C418.179 161.383 417.868 161.351 417.556 161.338C416.075 161.338 414.897 162.52 414.897 164.661V169.283H412.725V159.575ZM419.415 159.575H421.468V161.004L421.508 161.043C421.819 160.51 422.268 160.068 422.808 159.763C423.349 159.458 423.962 159.3 424.585 159.305C426.712 159.305 428.061 160.43 428.061 162.611V169.283H425.894V163.18C425.855 161.66 425.248 161.008 423.974 161.008C422.527 161.008 421.596 162.133 421.596 163.562V169.283H419.429V159.575H419.415ZM430.325 159.575H432.378V160.925H432.435C432.739 160.407 433.181 159.981 433.714 159.696C434.247 159.411 434.85 159.277 435.455 159.31C436.651 159.31 437.776 159.818 438.211 160.925C438.54 160.417 438.996 160.001 439.535 159.718C440.074 159.435 440.678 159.294 441.288 159.31C443.358 159.31 444.576 160.213 444.576 162.576V169.283H442.409V163.61C442.409 162.068 442.312 161.004 440.624 161.004C439.16 161.004 438.532 161.964 438.532 163.61V169.3H436.365V163.05C436.365 161.716 435.925 161.004 434.637 161.004C433.516 161.004 432.488 161.907 432.488 163.519V169.283H430.321V159.575H430.325ZM448.554 163.571C448.549 163.233 448.613 162.898 448.741 162.585C448.869 162.272 449.059 161.988 449.299 161.748C449.54 161.509 449.827 161.319 450.142 161.191C450.458 161.062 450.797 160.997 451.138 160.999C452.602 160.999 453.534 162.22 453.609 163.571H448.554ZM455.776 164.983C456.136 162.072 454.237 159.31 451.138 159.31C448.211 159.31 446.387 161.677 446.387 164.435C446.387 167.419 448.114 169.544 451.196 169.544C453.345 169.544 455.152 168.362 455.644 166.238H453.591C453.213 167.311 452.453 167.854 451.196 167.854C449.389 167.854 448.558 166.503 448.558 164.978L455.776 164.983ZM457.429 159.575H459.481V161.004L459.521 161.043C459.832 160.51 460.281 160.068 460.822 159.763C461.362 159.458 461.975 159.3 462.598 159.305C464.725 159.305 466.075 160.43 466.075 162.611V169.283H463.89V163.18C463.851 161.66 463.244 161.008 461.969 161.008C460.523 161.008 459.591 162.133 459.591 163.562V169.283H457.429V159.575ZM467.363 159.575H468.993V156.66H471.16V159.57H473.116V161.169H471.16V166.36C471.16 167.228 471.235 167.693 472.207 167.693C472.513 167.705 472.821 167.679 473.121 167.615V169.27C472.646 169.305 472.189 169.383 471.714 169.383C469.451 169.383 469.033 168.514 468.993 166.903V161.169H467.363V159.575ZM371.099 186.636C369.16 186.636 368.303 184.899 368.303 183.201C368.303 181.502 369.165 179.782 371.099 179.782C373.033 179.782 373.894 181.519 373.894 183.201C373.894 184.882 373.046 186.636 371.099 186.636ZM371.099 188.326C374.255 188.326 376.057 186.185 376.057 183.201C376.057 180.216 374.259 178.088 371.099 178.088C367.938 178.088 366.136 180.229 366.136 183.196C366.136 186.163 367.947 188.326 371.099 188.326ZM376.901 178.353H378.514V177.549C378.514 175.069 379.833 174.656 381.231 174.656C381.741 174.637 382.252 174.68 382.752 174.787V176.459C382.423 176.375 382.084 176.337 381.745 176.346C381.156 176.346 380.681 176.554 380.681 177.358V178.353H382.527V179.951H380.681V188.079H378.514V179.951H376.901V178.353ZM398.607 178.918C398.207 177.375 397.2 176.25 395.222 176.25C392.312 176.25 391.099 178.787 391.099 181.359C391.099 183.93 392.316 186.467 395.222 186.467C397.332 186.467 398.492 184.908 398.681 182.953H400.989C400.8 186.163 398.501 188.383 395.213 188.383C391.147 188.383 388.712 185.19 388.712 181.359C388.712 177.528 391.147 174.335 395.213 174.335C398.29 174.335 400.686 176.025 400.971 178.918H398.598H398.607ZM408.927 184.799C408.927 186.15 407.446 186.641 406.492 186.641C405.732 186.641 404.497 186.358 404.497 185.403C404.497 184.278 405.332 183.939 406.255 183.787C407.178 183.635 408.251 183.635 408.914 183.205L408.927 184.799ZM411.094 180.89C411.094 178.844 409.081 178.075 407.138 178.075C404.971 178.075 402.822 178.809 402.672 181.307H404.84C404.945 180.26 405.824 179.782 407.024 179.782C407.903 179.782 409.059 179.99 409.059 181.085C409.059 182.345 407.67 182.175 406.114 182.458C404.29 182.662 402.334 183.057 402.334 185.498C402.334 187.397 403.93 188.335 405.697 188.335C406.939 188.369 408.151 187.948 409.099 187.153C409.27 188.022 409.899 188.335 410.769 188.335C411.234 188.312 411.693 188.23 412.136 188.092V186.602C411.96 186.628 411.782 186.64 411.604 186.636C411.204 186.636 411.09 186.432 411.09 185.902L411.094 180.89ZM413.429 178.353H415.494V179.782L415.534 179.821C415.845 179.288 416.294 178.847 416.835 178.541C417.375 178.236 417.988 178.078 418.611 178.084C420.738 178.084 422.088 179.209 422.088 181.389V188.079H419.89V181.963C419.851 180.442 419.244 179.791 417.969 179.791C416.523 179.791 415.591 180.916 415.591 182.345V188.079H413.429V178.353ZM430.4 184.799C430.4 186.15 428.919 186.641 427.969 186.641C427.209 186.641 425.974 186.358 425.974 185.403C425.974 184.278 426.809 183.939 427.732 183.787C428.655 183.635 429.727 183.635 430.391 183.205L430.4 184.799ZM432.567 180.89C432.567 178.844 430.554 178.075 428.611 178.075C426.444 178.075 424.299 178.809 424.145 181.307H426.312C426.409 180.255 427.261 179.769 428.479 179.769C429.358 179.769 430.514 179.977 430.514 181.072C430.514 182.332 429.125 182.162 427.569 182.445C425.745 182.649 423.789 183.044 423.789 185.485C423.789 187.384 425.385 188.322 427.152 188.322C428.394 188.356 429.606 187.935 430.554 187.14C430.725 188.009 431.354 188.322 432.224 188.322C432.688 188.299 433.148 188.217 433.591 188.079V186.602C433.415 186.628 433.237 186.64 433.059 186.636C432.659 186.636 432.545 186.432 432.545 185.902L432.567 180.89ZM436.593 183.3C436.593 181.563 437.314 179.769 439.349 179.769C441.02 179.769 442.066 181.046 442.066 183.188C442.066 184.877 441.248 186.623 439.31 186.623C437.371 186.623 436.593 184.986 436.593 183.3ZM444.163 174.656H441.996V179.613H441.956C441.292 178.544 439.921 178.092 438.686 178.092C436.536 178.092 434.431 179.63 434.431 183.144C434.431 186.054 435.93 188.326 439.029 188.326C440.264 188.326 441.499 187.857 442.07 186.749H442.11V188.053H444.163V174.656ZM452.58 184.799C452.58 186.15 451.099 186.641 450.145 186.641C449.385 186.641 448.149 186.358 448.149 185.403C448.149 184.278 448.985 183.939 449.908 183.787C450.831 183.635 451.903 183.635 452.567 183.205L452.58 184.799ZM454.747 180.89C454.747 178.844 452.734 178.075 450.791 178.075C448.624 178.075 446.475 178.809 446.325 181.307H448.492C448.589 180.255 449.442 179.769 450.659 179.769C451.538 179.769 452.694 179.977 452.694 181.072C452.694 182.332 451.305 182.162 449.749 182.445C447.925 182.649 445.969 183.044 445.969 185.485C445.969 187.384 447.565 188.322 449.332 188.322C450.575 188.356 451.786 187.936 452.734 187.14C452.905 188.009 453.534 188.322 454.404 188.322C454.869 188.299 455.328 188.217 455.771 188.079V186.602C455.595 186.628 455.417 186.64 455.24 186.636C454.84 186.636 454.725 186.432 454.725 185.902L454.747 180.89Z" fill="black"/>
<path d="M514.163 169.4H512.637L512.277 167.823C511.002 169.253 509.846 169.722 508.189 169.722C504.123 169.722 501.688 166.529 501.688 162.698C501.688 158.866 504.128 155.674 508.194 155.674C511.161 155.674 513.648 157.238 514.009 160.278H511.692C511.464 158.515 509.908 157.611 508.176 157.611C505.266 157.611 504.053 160.148 504.053 162.719C504.053 165.291 505.27 167.828 508.176 167.828C510.607 167.867 511.939 166.42 511.978 164.149H508.369V162.342H514.145V169.4H514.163ZM520.945 167.975C519.007 167.975 518.15 166.238 518.15 164.539C518.15 162.841 519.007 161.121 520.945 161.121C522.884 161.121 523.741 162.858 523.741 164.539C523.741 166.221 522.884 167.975 520.945 167.975ZM520.945 169.665C524.101 169.665 525.908 167.524 525.908 164.539C525.908 161.555 524.101 159.409 520.945 159.409C517.789 159.409 515.987 161.581 515.987 164.539C515.987 167.498 517.794 169.665 520.945 169.665ZM536.343 169.4H534.215V168.054H534.176C533.89 168.538 533.482 168.941 532.992 169.224C532.503 169.507 531.948 169.66 531.38 169.67C528.813 169.67 527.714 168.392 527.714 165.856V159.692H529.881V165.647C529.881 167.359 530.585 167.975 531.763 167.975C533.569 167.975 534.176 166.833 534.176 165.326V159.679H536.343V169.4ZM537.653 159.692H540.009L542.497 167.15H542.528L544.923 159.692H547.165L543.648 169.4H541.209L537.653 159.692ZM550.176 163.692C550.171 163.355 550.235 163.02 550.363 162.707C550.491 162.394 550.681 162.109 550.921 161.87C551.162 161.63 551.449 161.441 551.765 161.312C552.08 161.184 552.419 161.119 552.761 161.121C554.224 161.121 555.156 162.342 555.231 163.692H550.176ZM557.398 165.1C557.763 162.189 555.859 159.409 552.761 159.409C549.833 159.409 548.009 161.777 548.009 164.535C548.009 167.519 549.736 169.643 552.818 169.643C554.963 169.643 556.774 168.462 557.266 166.338H555.213C554.835 167.411 554.075 167.954 552.818 167.954C551.011 167.954 550.18 166.603 550.18 165.078L557.398 165.1ZM559.055 159.692H561.09V161.581H561.125C561.323 160.974 561.704 160.44 562.217 160.052C562.73 159.664 563.35 159.44 563.996 159.409C564.269 159.407 564.543 159.426 564.813 159.466V161.534C564.505 161.483 564.194 161.451 563.881 161.438C562.4 161.438 561.222 162.62 561.222 164.761V169.4H559.055V159.692ZM565.741 159.692H567.794V161.121L567.833 161.16C568.144 160.627 568.593 160.185 569.134 159.88C569.674 159.575 570.287 159.417 570.91 159.422C573.042 159.422 574.387 160.548 574.387 162.728V169.4H572.22V163.319C572.185 161.799 571.574 161.147 570.299 161.147C568.853 161.147 567.925 162.272 567.925 163.701V169.4H565.758L565.741 159.692ZM578.343 163.692C578.338 163.355 578.402 163.02 578.53 162.707C578.658 162.394 578.848 162.109 579.088 161.87C579.329 161.63 579.616 161.441 579.932 161.312C580.247 161.184 580.586 161.119 580.928 161.121C582.391 161.121 583.323 162.342 583.398 163.692H578.343ZM585.565 165.1C585.925 162.189 584.026 159.409 580.928 159.409C578 159.409 576.176 161.777 576.176 164.535C576.176 167.519 577.908 169.643 580.985 169.643C583.134 169.643 584.941 168.462 585.433 166.338H583.38C582.998 167.411 582.237 167.954 580.985 167.954C579.178 167.954 578.347 166.603 578.347 165.078L585.565 165.1ZM587.218 159.692H589.27V161.043H589.328C589.629 160.521 590.07 160.092 590.604 159.804C591.137 159.515 591.74 159.379 592.347 159.409C593.547 159.409 594.668 159.918 595.103 161.025C595.432 160.517 595.888 160.101 596.427 159.818C596.966 159.535 597.57 159.394 598.18 159.409C600.251 159.409 601.468 160.313 601.468 162.676V169.4H599.301V163.753C599.301 162.211 599.205 161.147 597.517 161.147C596.053 161.147 595.424 162.107 595.424 163.753V169.4H593.257V163.167C593.257 161.833 592.818 161.121 591.53 161.121C590.409 161.121 589.385 162.024 589.385 163.636V169.4H587.218V159.692ZM605.446 163.692C605.442 163.356 605.505 163.021 605.632 162.709C605.76 162.397 605.949 162.112 606.189 161.873C606.428 161.634 606.714 161.444 607.029 161.315C607.344 161.186 607.681 161.12 608.022 161.121C609.486 161.121 610.418 162.342 610.492 163.692H605.446ZM612.668 165.1C613.029 162.189 611.125 159.409 608.022 159.409C605.095 159.409 603.27 161.777 603.27 164.535C603.27 167.519 604.998 169.643 608.079 169.643C610.224 169.643 612.035 168.462 612.528 166.338H610.475C610.097 167.411 609.336 167.954 608.079 167.954C606.273 167.954 605.442 166.603 605.442 165.078L612.668 165.1ZM614.321 159.692H616.374V161.121L616.413 161.16C616.725 160.627 617.173 160.185 617.714 159.88C618.255 159.575 618.868 159.417 619.49 159.422C621.622 159.422 622.967 160.548 622.967 162.728V169.4H620.769V163.319C620.734 161.799 620.123 161.147 618.848 161.147C617.402 161.147 616.47 162.272 616.47 163.701V169.4H614.303L614.321 159.692ZM624.242 159.692H625.877V156.803H628.044V159.714H630V161.312H628.044V166.477C628.044 167.346 628.119 167.81 629.09 167.81C629.397 167.823 629.704 167.798 630.005 167.737V169.4C629.53 169.435 629.073 169.513 628.598 169.513C626.339 169.513 625.921 168.644 625.881 167.033V161.29H624.246V159.692H624.242ZM503.71 183.435C503.71 181.698 504.431 179.904 506.466 179.904C508.136 179.904 509.183 181.181 509.183 183.322C509.183 185.012 508.365 186.758 506.426 186.758C504.488 186.758 503.71 185.103 503.71 183.435ZM511.275 174.774H509.121V179.734H509.081C508.418 178.666 507.046 178.214 505.815 178.214C503.666 178.214 501.556 179.752 501.556 183.266C501.556 186.176 503.059 188.448 506.154 188.448C507.389 188.448 508.624 187.979 509.196 186.871H509.231V188.174H511.284V174.774H511.275ZM522.259 188.187H520.11V186.832C519.824 187.316 519.416 187.719 518.927 188.002C518.437 188.285 517.882 188.439 517.314 188.448C514.747 188.448 513.648 187.171 513.648 184.634V178.474H515.815V184.425C515.815 186.137 516.519 186.754 517.697 186.754C519.503 186.754 520.11 185.611 520.11 184.104V178.457H522.277V188.187H522.259ZM539.288 179.039C538.888 177.497 537.881 176.372 535.903 176.372C532.994 176.372 531.78 178.909 531.78 181.48C531.78 184.052 532.998 186.589 535.903 186.589C538.013 186.589 539.169 185.034 539.363 183.079H541.684C541.495 186.289 539.196 188.509 535.908 188.509C531.842 188.509 529.407 185.316 529.407 181.485C529.407 177.653 531.837 174.461 535.908 174.461C538.985 174.461 541.38 176.151 541.666 179.044H539.288V179.039ZM549.609 184.916C549.609 186.267 548.128 186.758 547.178 186.758C546.418 186.758 545.183 186.476 545.183 185.52C545.183 184.395 546.018 184.056 546.941 183.904C547.864 183.752 548.936 183.752 549.6 183.322V184.921L549.609 184.916ZM551.776 181.007C551.776 178.961 549.763 178.188 547.82 178.188C545.653 178.188 543.508 178.922 543.354 181.42H545.521C545.618 180.368 546.475 179.878 547.688 179.878C548.567 179.878 549.723 180.086 549.723 181.181C549.723 182.44 548.334 182.271 546.778 182.553C544.954 182.757 542.998 183.153 542.998 185.594C542.998 187.492 544.594 188.431 546.361 188.431C547.603 188.465 548.815 188.044 549.763 187.249C549.934 188.118 550.563 188.431 551.437 188.431C551.902 188.408 552.361 188.326 552.805 188.187V186.723C552.629 186.75 552.451 186.761 552.273 186.758C551.873 186.758 551.758 186.554 551.758 186.024V181.029L551.776 181.007ZM554.11 178.474H556.154V179.904L556.194 179.943C556.505 179.41 556.954 178.968 557.494 178.663C558.035 178.358 558.648 178.2 559.27 178.205C561.402 178.205 562.747 179.33 562.747 181.511V188.187H560.58V182.08C560.545 180.559 559.934 179.908 558.659 179.908C557.213 179.908 556.286 181.033 556.286 182.462V188.187H554.119L554.11 178.474ZM571.099 184.916C571.099 186.267 569.618 186.758 568.664 186.758C567.903 186.758 566.668 186.476 566.668 185.52C566.668 184.395 567.503 184.056 568.426 183.904C569.35 183.752 570.418 183.735 571.099 183.3V184.899V184.916ZM573.266 181.007C573.266 178.961 571.253 178.188 569.332 178.188C567.165 178.188 565.015 178.922 564.866 181.42H567.033C567.13 180.368 567.983 179.878 569.2 179.878C570.079 179.878 571.231 180.086 571.231 181.181C571.231 182.44 569.842 182.271 568.286 182.553C566.462 182.757 564.501 183.153 564.501 185.594C564.501 187.492 566.101 188.431 567.864 188.431C569.107 188.465 570.318 188.044 571.266 187.249C571.437 188.118 572.066 188.431 572.941 188.431C573.405 188.408 573.865 188.326 574.308 188.187V186.723C574.132 186.75 573.954 186.761 573.776 186.758C573.376 186.758 573.262 186.554 573.262 186.024V181.029L573.266 181.007ZM577.279 183.435C577.279 181.698 578 179.904 580.035 179.904C581.706 179.904 582.752 181.181 582.752 183.322C582.752 185.012 581.934 186.758 579.996 186.758C578.057 186.758 577.279 185.103 577.279 183.435ZM584.844 174.778H582.677V179.734H582.637C581.974 178.666 580.607 178.214 579.372 178.214C577.222 178.214 575.117 179.752 575.117 183.266C575.117 186.176 576.62 188.448 579.714 188.448C580.95 188.448 582.185 187.979 582.756 186.871H582.796V188.174H584.848V174.774L584.844 174.778ZM593.262 184.916C593.262 186.267 591.78 186.758 590.831 186.758C590.07 186.758 588.835 186.476 588.835 185.52C588.835 184.395 589.67 184.056 590.594 183.904C591.517 183.752 592.589 183.752 593.253 183.322V184.921L593.262 184.916ZM595.429 181.007C595.429 178.961 593.415 178.188 591.495 178.188C589.328 178.188 587.178 178.922 587.029 181.42H589.196C589.292 180.368 590.145 179.878 591.363 179.878C592.242 179.878 593.394 180.086 593.394 181.181C593.394 182.44 592.005 182.271 590.448 182.553C588.624 182.757 586.664 183.153 586.664 185.594C586.664 187.492 588.264 188.431 590.026 188.431C591.269 188.465 592.481 188.044 593.429 187.249C593.6 188.118 594.229 188.431 595.099 188.431C595.563 188.408 596.023 188.326 596.466 188.187V186.723C596.29 186.75 596.112 186.761 595.934 186.758C595.534 186.758 595.42 186.554 595.42 186.024V181.029L595.429 181.007Z" fill="black"/>
</g>
<mask id="path-10-inside-2_6347_14816" fill="white">
<path d="M1046 152H1370V192H1046V152Z"/>
</mask>
<path d="M1046 152H1370V192H1046V152Z" fill="white"/>
<path d="M1046 152V151H1045V152H1046ZM1046 192H1045V193H1046V192ZM1046 153H1370V151H1046V153ZM1370 191H1046V193H1370V191ZM1047 192V152H1045V192H1047Z" fill="#D6D9DD" mask="url(#path-10-inside-2_6347_14816)"/>
<path d="M1066.03 174.944C1066.03 175.957 1065.66 176.747 1064.93 177.312C1064.19 177.877 1063.2 178.16 1061.95 178.16C1061.31 178.16 1060.72 178.112 1060.18 178.016C1059.63 177.92 1059.18 177.787 1058.82 177.616V176.24C1059.2 176.411 1059.67 176.565 1060.24 176.704C1060.82 176.843 1061.41 176.912 1062.02 176.912C1062.87 176.912 1063.51 176.747 1063.94 176.416C1064.37 176.085 1064.59 175.637 1064.59 175.072C1064.59 174.699 1064.51 174.384 1064.35 174.128C1064.19 173.872 1063.91 173.637 1063.52 173.424C1063.14 173.2 1062.6 172.965 1061.9 172.72C1060.93 172.368 1060.2 171.936 1059.7 171.424C1059.21 170.912 1058.96 170.213 1058.96 169.328C1058.96 168.72 1059.11 168.203 1059.42 167.776C1059.73 167.339 1060.16 167.003 1060.7 166.768C1061.26 166.533 1061.89 166.416 1062.61 166.416C1063.24 166.416 1063.81 166.475 1064.34 166.592C1064.86 166.709 1065.33 166.864 1065.76 167.056L1065.31 168.288C1064.92 168.117 1064.49 167.973 1064.02 167.856C1063.56 167.739 1063.08 167.68 1062.58 167.68C1061.86 167.68 1061.32 167.835 1060.96 168.144C1060.6 168.443 1060.42 168.843 1060.42 169.344C1060.42 169.728 1060.5 170.048 1060.66 170.304C1060.82 170.56 1061.08 170.789 1061.44 170.992C1061.8 171.195 1062.29 171.413 1062.91 171.648C1063.58 171.893 1064.15 172.16 1064.61 172.448C1065.08 172.725 1065.43 173.061 1065.66 173.456C1065.91 173.851 1066.03 174.347 1066.03 174.944ZM1071.45 169.264C1072.19 169.264 1072.82 169.424 1073.34 169.744C1073.87 170.064 1074.28 170.517 1074.56 171.104C1074.85 171.68 1074.99 172.357 1074.99 173.136V173.984H1069.12C1069.14 174.955 1069.38 175.696 1069.85 176.208C1070.33 176.709 1071 176.96 1071.85 176.96C1072.4 176.96 1072.88 176.912 1073.29 176.816C1073.72 176.709 1074.16 176.56 1074.61 176.368V177.6C1074.17 177.792 1073.74 177.931 1073.31 178.016C1072.88 178.112 1072.38 178.16 1071.79 178.16C1070.98 178.16 1070.26 177.995 1069.63 177.664C1069.01 177.333 1068.53 176.843 1068.17 176.192C1067.83 175.531 1067.66 174.725 1067.66 173.776C1067.66 172.837 1067.82 172.032 1068.13 171.36C1068.45 170.688 1068.89 170.171 1069.45 169.808C1070.03 169.445 1070.7 169.264 1071.45 169.264ZM1071.44 170.416C1070.77 170.416 1070.23 170.635 1069.84 171.072C1069.45 171.499 1069.22 172.096 1069.15 172.864H1073.52C1073.51 172.139 1073.34 171.552 1073.01 171.104C1072.67 170.645 1072.15 170.416 1071.44 170.416ZM1080.42 169.28C1081.47 169.28 1082.24 169.509 1082.74 169.968C1083.24 170.427 1083.49 171.157 1083.49 172.16V178H1082.47L1082.2 176.784H1082.13C1081.76 177.253 1081.36 177.6 1080.95 177.824C1080.54 178.048 1079.98 178.16 1079.25 178.16C1078.47 178.16 1077.83 177.957 1077.32 177.552C1076.8 177.136 1076.55 176.491 1076.55 175.616C1076.55 174.763 1076.88 174.107 1077.56 173.648C1078.23 173.179 1079.26 172.923 1080.66 172.88L1082.12 172.832V172.32C1082.12 171.605 1081.96 171.109 1081.65 170.832C1081.34 170.555 1080.91 170.416 1080.34 170.416C1079.89 170.416 1079.47 170.485 1079.06 170.624C1078.66 170.752 1078.28 170.901 1077.92 171.072L1077.49 170.016C1077.87 169.813 1078.31 169.643 1078.82 169.504C1079.33 169.355 1079.87 169.28 1080.42 169.28ZM1080.84 173.856C1079.77 173.899 1079.03 174.069 1078.61 174.368C1078.21 174.667 1078 175.088 1078 175.632C1078 176.112 1078.15 176.464 1078.44 176.688C1078.74 176.912 1079.11 177.024 1079.57 177.024C1080.3 177.024 1080.9 176.827 1081.38 176.432C1081.86 176.027 1082.1 175.408 1082.1 174.576V173.808L1080.84 173.856ZM1090.14 169.264C1090.3 169.264 1090.47 169.275 1090.65 169.296C1090.85 169.307 1091.01 169.328 1091.15 169.36L1090.97 170.656C1090.83 170.624 1090.68 170.597 1090.51 170.576C1090.35 170.555 1090.19 170.544 1090.05 170.544C1089.61 170.544 1089.2 170.667 1088.81 170.912C1088.43 171.147 1088.12 171.483 1087.89 171.92C1087.66 172.347 1087.55 172.848 1087.55 173.424V178H1086.14V169.424H1087.29L1087.45 170.992H1087.52C1087.79 170.523 1088.15 170.117 1088.59 169.776C1089.03 169.435 1089.54 169.264 1090.14 169.264ZM1095.88 178.16C1095.12 178.16 1094.44 178.005 1093.85 177.696C1093.26 177.387 1092.8 176.907 1092.45 176.256C1092.12 175.605 1091.96 174.773 1091.96 173.76C1091.96 172.704 1092.13 171.845 1092.49 171.184C1092.84 170.523 1093.31 170.037 1093.91 169.728C1094.52 169.419 1095.21 169.264 1095.97 169.264C1096.41 169.264 1096.83 169.312 1097.24 169.408C1097.64 169.493 1097.97 169.6 1098.23 169.728L1097.8 170.896C1097.54 170.8 1097.24 170.709 1096.9 170.624C1096.56 170.539 1096.24 170.496 1095.94 170.496C1094.26 170.496 1093.41 171.579 1093.41 173.744C1093.41 174.779 1093.62 175.573 1094.02 176.128C1094.44 176.672 1095.05 176.944 1095.86 176.944C1096.33 176.944 1096.74 176.896 1097.09 176.8C1097.46 176.704 1097.79 176.587 1098.09 176.448V177.696C1097.8 177.845 1097.48 177.957 1097.13 178.032C1096.78 178.117 1096.37 178.16 1095.88 178.16ZM1101.53 169.408C1101.53 169.835 1101.51 170.235 1101.45 170.608H1101.55C1101.83 170.171 1102.2 169.84 1102.67 169.616C1103.15 169.392 1103.67 169.28 1104.22 169.28C1105.27 169.28 1106.05 169.531 1106.57 170.032C1107.1 170.523 1107.36 171.317 1107.36 172.416V178H1105.97V172.512C1105.97 171.136 1105.33 170.448 1104.05 170.448C1103.09 170.448 1102.42 170.72 1102.06 171.264C1101.71 171.797 1101.53 172.565 1101.53 173.568V178H1100.13V165.84H1101.53V169.408ZM1119.26 167.68C1118.03 167.68 1117.07 168.091 1116.36 168.912C1115.66 169.733 1115.31 170.859 1115.31 172.288C1115.31 173.707 1115.63 174.832 1116.28 175.664C1116.95 176.485 1117.93 176.896 1119.24 176.896C1119.75 176.896 1120.22 176.853 1120.67 176.768C1121.12 176.683 1121.55 176.576 1121.98 176.448V177.696C1121.55 177.856 1121.11 177.973 1120.65 178.048C1120.2 178.123 1119.67 178.16 1119.04 178.16C1117.87 178.16 1116.9 177.92 1116.12 177.44C1115.35 176.96 1114.76 176.277 1114.36 175.392C1113.98 174.507 1113.79 173.467 1113.79 172.272C1113.79 171.12 1114 170.107 1114.41 169.232C1114.84 168.347 1115.46 167.659 1116.28 167.168C1117.11 166.667 1118.1 166.416 1119.28 166.416C1120.48 166.416 1121.53 166.64 1122.43 167.088L1121.85 168.304C1121.5 168.144 1121.11 168 1120.67 167.872C1120.24 167.744 1119.77 167.68 1119.26 167.68ZM1127.53 169.28C1128.58 169.28 1129.35 169.509 1129.85 169.968C1130.35 170.427 1130.6 171.157 1130.6 172.16V178H1129.58L1129.31 176.784H1129.24C1128.87 177.253 1128.47 177.6 1128.06 177.824C1127.65 178.048 1127.09 178.16 1126.36 178.16C1125.58 178.16 1124.94 177.957 1124.43 177.552C1123.91 177.136 1123.66 176.491 1123.66 175.616C1123.66 174.763 1123.99 174.107 1124.67 173.648C1125.34 173.179 1126.37 172.923 1127.77 172.88L1129.23 172.832V172.32C1129.23 171.605 1129.07 171.109 1128.76 170.832C1128.45 170.555 1128.02 170.416 1127.45 170.416C1127 170.416 1126.58 170.485 1126.17 170.624C1125.76 170.752 1125.39 170.901 1125.03 171.072L1124.6 170.016C1124.98 169.813 1125.42 169.643 1125.93 169.504C1126.44 169.355 1126.98 169.28 1127.53 169.28ZM1127.95 173.856C1126.88 173.899 1126.14 174.069 1125.72 174.368C1125.32 174.667 1125.11 175.088 1125.11 175.632C1125.11 176.112 1125.26 176.464 1125.55 176.688C1125.84 176.912 1126.22 177.024 1126.68 177.024C1127.41 177.024 1128.01 176.827 1128.49 176.432C1128.97 176.027 1129.21 175.408 1129.21 174.576V173.808L1127.95 173.856ZM1137.38 169.264C1138.4 169.264 1139.18 169.515 1139.7 170.016C1140.22 170.507 1140.48 171.307 1140.48 172.416V178H1139.09V172.512C1139.09 171.136 1138.45 170.448 1137.17 170.448C1136.22 170.448 1135.57 170.715 1135.2 171.248C1134.84 171.781 1134.66 172.549 1134.66 173.552V178H1133.25V169.424H1134.39L1134.59 170.592H1134.67C1134.95 170.144 1135.34 169.813 1135.83 169.6C1136.32 169.376 1136.83 169.264 1137.38 169.264ZM1146.39 169.28C1147.43 169.28 1148.21 169.509 1148.71 169.968C1149.21 170.427 1149.46 171.157 1149.46 172.16V178H1148.44L1148.17 176.784H1148.1C1147.73 177.253 1147.33 177.6 1146.92 177.824C1146.51 178.048 1145.95 178.16 1145.22 178.16C1144.44 178.16 1143.8 177.957 1143.29 177.552C1142.77 177.136 1142.52 176.491 1142.52 175.616C1142.52 174.763 1142.85 174.107 1143.53 173.648C1144.2 173.179 1145.23 172.923 1146.63 172.88L1148.09 172.832V172.32C1148.09 171.605 1147.93 171.109 1147.62 170.832C1147.31 170.555 1146.87 170.416 1146.31 170.416C1145.86 170.416 1145.43 170.485 1145.03 170.624C1144.62 170.752 1144.25 170.901 1143.89 171.072L1143.46 170.016C1143.83 169.813 1144.28 169.643 1144.79 169.504C1145.3 169.355 1145.83 169.28 1146.39 169.28ZM1146.81 173.856C1145.74 173.899 1145 174.069 1144.58 174.368C1144.18 174.667 1143.97 175.088 1143.97 175.632C1143.97 176.112 1144.12 176.464 1144.41 176.688C1144.7 176.912 1145.08 177.024 1145.54 177.024C1146.27 177.024 1146.87 176.827 1147.35 176.432C1147.83 176.027 1148.07 175.408 1148.07 174.576V173.808L1146.81 173.856ZM1155.15 178.16C1154.08 178.16 1153.23 177.792 1152.59 177.056C1151.95 176.309 1151.63 175.2 1151.63 173.728C1151.63 172.256 1151.95 171.147 1152.59 170.4C1153.24 169.643 1154.1 169.264 1155.17 169.264C1155.83 169.264 1156.37 169.387 1156.78 169.632C1157.21 169.877 1157.56 170.176 1157.82 170.528H1157.92C1157.91 170.389 1157.89 170.187 1157.85 169.92C1157.83 169.643 1157.82 169.424 1157.82 169.264V165.84H1159.23V178H1158.09L1157.89 176.848H1157.82C1157.57 177.211 1157.22 177.52 1156.8 177.776C1156.37 178.032 1155.82 178.16 1155.15 178.16ZM1155.37 176.992C1156.28 176.992 1156.92 176.747 1157.28 176.256C1157.65 175.755 1157.84 175.003 1157.84 174V173.744C1157.84 172.677 1157.66 171.861 1157.31 171.296C1156.96 170.72 1156.31 170.432 1155.36 170.432C1154.6 170.432 1154.03 170.736 1153.65 171.344C1153.27 171.941 1153.09 172.747 1153.09 173.76C1153.09 174.784 1153.27 175.579 1153.65 176.144C1154.03 176.709 1154.61 176.992 1155.37 176.992ZM1165.2 169.28C1166.25 169.28 1167.02 169.509 1167.52 169.968C1168.02 170.427 1168.27 171.157 1168.27 172.16V178H1167.25L1166.98 176.784H1166.91C1166.54 177.253 1166.15 177.6 1165.73 177.824C1165.32 178.048 1164.76 178.16 1164.03 178.16C1163.26 178.16 1162.61 177.957 1162.1 177.552C1161.59 177.136 1161.33 176.491 1161.33 175.616C1161.33 174.763 1161.67 174.107 1162.34 173.648C1163.01 173.179 1164.04 172.923 1165.44 172.88L1166.9 172.832V172.32C1166.9 171.605 1166.74 171.109 1166.43 170.832C1166.12 170.555 1165.69 170.416 1165.12 170.416C1164.67 170.416 1164.25 170.485 1163.84 170.624C1163.44 170.752 1163.06 170.901 1162.71 171.072L1162.27 170.016C1162.65 169.813 1163.09 169.643 1163.6 169.504C1164.11 169.355 1164.65 169.28 1165.2 169.28ZM1165.62 173.856C1164.55 173.899 1163.81 174.069 1163.39 174.368C1162.99 174.667 1162.79 175.088 1162.79 175.632C1162.79 176.112 1162.93 176.464 1163.22 176.688C1163.52 176.912 1163.9 177.024 1164.35 177.024C1165.08 177.024 1165.68 176.827 1166.16 176.432C1166.64 176.027 1166.88 175.408 1166.88 174.576V173.808L1165.62 173.856ZM1170.71 177.136C1170.71 176.741 1170.81 176.464 1171 176.304C1171.19 176.144 1171.42 176.064 1171.69 176.064C1171.97 176.064 1172.2 176.144 1172.39 176.304C1172.6 176.464 1172.7 176.741 1172.7 177.136C1172.7 177.52 1172.6 177.797 1172.39 177.968C1172.2 178.139 1171.97 178.224 1171.69 178.224C1171.42 178.224 1171.19 178.139 1171 177.968C1170.81 177.797 1170.71 177.52 1170.71 177.136ZM1178.64 178.16C1177.89 178.16 1177.21 178.005 1176.61 177.696C1176.03 177.387 1175.56 176.907 1175.22 176.256C1174.89 175.605 1174.72 174.773 1174.72 173.76C1174.72 172.704 1174.9 171.845 1175.25 171.184C1175.6 170.523 1176.08 170.037 1176.68 169.728C1177.28 169.419 1177.97 169.264 1178.74 169.264C1179.18 169.264 1179.6 169.312 1180 169.408C1180.41 169.493 1180.74 169.6 1181 169.728L1180.56 170.896C1180.31 170.8 1180.01 170.709 1179.67 170.624C1179.33 170.539 1179.01 170.496 1178.71 170.496C1177.02 170.496 1176.18 171.579 1176.18 173.744C1176.18 174.779 1176.38 175.573 1176.79 176.128C1177.2 176.672 1177.82 176.944 1178.63 176.944C1179.1 176.944 1179.51 176.896 1179.86 176.8C1180.22 176.704 1180.55 176.587 1180.85 176.448V177.696C1180.56 177.845 1180.24 177.957 1179.89 178.032C1179.55 178.117 1179.13 178.16 1178.64 178.16ZM1186.14 169.28C1187.18 169.28 1187.96 169.509 1188.46 169.968C1188.96 170.427 1189.21 171.157 1189.21 172.16V178H1188.19L1187.92 176.784H1187.85C1187.48 177.253 1187.08 177.6 1186.67 177.824C1186.26 178.048 1185.7 178.16 1184.97 178.16C1184.19 178.16 1183.55 177.957 1183.04 177.552C1182.52 177.136 1182.27 176.491 1182.27 175.616C1182.27 174.763 1182.6 174.107 1183.28 173.648C1183.95 173.179 1184.98 172.923 1186.38 172.88L1187.84 172.832V172.32C1187.84 171.605 1187.68 171.109 1187.37 170.832C1187.06 170.555 1186.62 170.416 1186.06 170.416C1185.61 170.416 1185.18 170.485 1184.78 170.624C1184.37 170.752 1184 170.901 1183.64 171.072L1183.21 170.016C1183.58 169.813 1184.03 169.643 1184.54 169.504C1185.05 169.355 1185.58 169.28 1186.14 169.28ZM1186.56 173.856C1185.49 173.899 1184.75 174.069 1184.33 174.368C1183.93 174.667 1183.72 175.088 1183.72 175.632C1183.72 176.112 1183.87 176.464 1184.16 176.688C1184.45 176.912 1184.83 177.024 1185.29 177.024C1186.02 177.024 1186.62 176.827 1187.1 176.432C1187.58 176.027 1187.82 175.408 1187.82 174.576V173.808L1186.56 173.856Z" fill="#5C5C5C"/>
<rect width="40" height="40" transform="translate(1370 152)" fill="#26374A"/>
<path fill-rule="evenodd" clip-rule="evenodd" d="M1384.2 171.269C1384.2 174.012 1386.43 176.236 1389.17 176.236C1391.91 176.236 1394.14 174.012 1394.14 171.269C1394.14 168.525 1391.91 166.301 1389.17 166.301C1386.43 166.301 1384.2 168.525 1384.2 171.269ZM1381.72 171.269C1381.72 175.384 1385.06 178.72 1389.17 178.72C1390.82 178.72 1392.34 178.186 1393.57 177.283L1397.28 180.994L1399 179.203L1395.3 175.504C1396.13 174.301 1396.62 172.842 1396.62 171.269C1396.62 167.154 1393.29 163.818 1389.17 163.818C1385.06 163.818 1381.72 167.154 1381.72 171.269Z" fill="white"/>
<rect width="1440" height="63" transform="translate(120 208)" fill="#F1F2F3"/>
<rect width="1140" height="63" transform="translate(270 208)" fill="#F1F2F3"/>
<path d="M288.781 248.5H285.541V240.477H277.594V248.5H274.354V230.429H277.594V237.718H285.541V230.429H288.781V248.5ZM305.431 241.616C305.431 242.763 305.279 243.775 304.975 244.653C304.672 245.53 304.233 246.281 303.659 246.905C303.102 247.513 302.411 247.977 301.584 248.298C300.774 248.601 299.871 248.753 298.876 248.753C297.931 248.753 297.062 248.601 296.269 248.298C295.476 247.977 294.784 247.513 294.193 246.905C293.62 246.281 293.172 245.53 292.852 244.653C292.531 243.775 292.371 242.763 292.371 241.616C292.371 240.097 292.633 238.815 293.156 237.769C293.679 236.706 294.43 235.904 295.408 235.364C296.404 234.807 297.576 234.529 298.926 234.529C300.209 234.529 301.331 234.807 302.293 235.364C303.271 235.904 304.039 236.706 304.596 237.769C305.153 238.815 305.431 240.097 305.431 241.616ZM295.636 241.616C295.636 242.577 295.746 243.404 295.965 244.096C296.201 244.771 296.556 245.286 297.028 245.64C297.517 245.994 298.142 246.171 298.901 246.171C299.677 246.171 300.301 245.994 300.774 245.64C301.263 245.286 301.618 244.771 301.837 244.096C302.056 243.404 302.166 242.577 302.166 241.616C302.166 240.637 302.048 239.819 301.812 239.161C301.592 238.486 301.238 237.979 300.749 237.642C300.276 237.288 299.66 237.11 298.901 237.11C297.754 237.11 296.918 237.499 296.395 238.275C295.889 239.051 295.636 240.165 295.636 241.616ZM324.445 234.529C325.998 234.529 327.162 234.925 327.938 235.718C328.731 236.511 329.128 237.794 329.128 239.566V248.5H325.939V240.173C325.939 239.161 325.753 238.401 325.382 237.895C325.011 237.372 324.42 237.11 323.61 237.11C322.496 237.11 321.703 237.473 321.231 238.199C320.758 238.924 320.522 239.979 320.522 241.363V248.5H317.333V240.173C317.333 239.498 317.249 238.933 317.08 238.477C316.911 238.022 316.65 237.684 316.295 237.465C315.958 237.229 315.519 237.11 314.979 237.11C314.22 237.11 313.613 237.296 313.157 237.667C312.701 238.022 312.381 238.545 312.195 239.237C312.01 239.928 311.917 240.78 311.917 241.793V248.5H308.728V234.782H311.183L311.638 236.579H311.816C312.102 236.107 312.448 235.718 312.853 235.415C313.275 235.111 313.739 234.892 314.245 234.757C314.768 234.605 315.292 234.529 315.815 234.529C316.844 234.529 317.713 234.706 318.422 235.06C319.13 235.398 319.662 235.929 320.016 236.655H320.269C320.691 235.912 321.282 235.373 322.041 235.035C322.817 234.698 323.618 234.529 324.445 234.529ZM338.641 234.529C339.873 234.529 340.927 234.782 341.805 235.288C342.699 235.778 343.391 236.486 343.88 237.414C344.369 238.325 344.614 239.439 344.614 240.755V242.375H335.553C335.587 243.624 335.933 244.594 336.591 245.286C337.249 245.961 338.16 246.298 339.324 246.298C340.218 246.298 341.012 246.214 341.703 246.045C342.412 245.859 343.138 245.598 343.88 245.26V247.817C343.205 248.137 342.505 248.373 341.779 248.525C341.054 248.677 340.185 248.753 339.172 248.753C337.839 248.753 336.65 248.5 335.604 247.994C334.574 247.471 333.764 246.686 333.174 245.64C332.6 244.594 332.313 243.295 332.313 241.742C332.313 240.173 332.575 238.857 333.098 237.794C333.638 236.714 334.38 235.904 335.325 235.364C336.27 234.807 337.375 234.529 338.641 234.529ZM338.641 236.883C337.797 236.883 337.105 237.161 336.565 237.718C336.042 238.258 335.73 239.068 335.629 240.148H341.526C341.526 239.507 341.416 238.941 341.197 238.452C340.995 237.963 340.683 237.583 340.261 237.313C339.839 237.026 339.299 236.883 338.641 236.883ZM361.744 234.529C363.28 234.529 364.478 234.925 365.338 235.718C366.216 236.511 366.654 237.794 366.654 239.566V248.5H363.465V240.198C363.465 239.169 363.263 238.401 362.858 237.895C362.453 237.372 361.812 237.11 360.934 237.11C359.652 237.11 358.775 237.515 358.302 238.325C357.83 239.118 357.593 240.274 357.593 241.793V248.5H354.404V234.782H356.859L357.315 236.579H357.492C357.796 236.107 358.167 235.718 358.606 235.415C359.045 235.111 359.534 234.892 360.074 234.757C360.614 234.605 361.171 234.529 361.744 234.529ZM376.11 234.529C377.882 234.529 379.223 234.917 380.135 235.693C381.063 236.452 381.527 237.65 381.527 239.287V248.5H379.274L378.641 246.602H378.54C378.152 247.091 377.747 247.504 377.325 247.842C376.92 248.163 376.448 248.39 375.908 248.525C375.385 248.677 374.744 248.753 373.984 248.753C373.174 248.753 372.44 248.601 371.782 248.298C371.141 247.994 370.635 247.53 370.264 246.905C369.892 246.264 369.707 245.463 369.707 244.501C369.707 243.084 370.222 242.021 371.251 241.312C372.297 240.586 373.875 240.19 375.984 240.122L378.363 240.046V239.363C378.363 238.486 378.152 237.861 377.73 237.49C377.308 237.119 376.718 236.933 375.958 236.933C375.267 236.933 374.6 237.035 373.959 237.237C373.318 237.44 372.693 237.676 372.086 237.946L371.074 235.718C371.749 235.364 372.516 235.077 373.377 234.858C374.254 234.639 375.165 234.529 376.11 234.529ZM376.692 242.071C375.292 242.122 374.322 242.367 373.782 242.805C373.242 243.227 372.972 243.801 372.972 244.526C372.972 245.168 373.166 245.632 373.554 245.918C373.942 246.205 374.44 246.349 375.047 246.349C375.975 246.349 376.76 246.087 377.401 245.564C378.042 245.024 378.363 244.231 378.363 243.185V242.021L376.692 242.071ZM388.687 248.5L383.473 234.782H386.839L389.572 242.704C389.691 243.025 389.8 243.379 389.901 243.767C390.003 244.138 390.087 244.509 390.155 244.881C390.239 245.235 390.29 245.547 390.306 245.817H390.408C390.441 245.53 390.5 245.21 390.585 244.855C390.669 244.484 390.762 244.113 390.863 243.742C390.981 243.371 391.091 243.025 391.192 242.704L393.926 234.782H397.292L392.078 248.5H388.687ZM409.103 248.5H405.914V229.264H409.103V248.5ZM416.37 234.782V248.5H413.181V234.782H416.37ZM414.775 229.492C415.248 229.492 415.661 229.619 416.016 229.872C416.37 230.108 416.547 230.538 416.547 231.163C416.547 231.77 416.37 232.209 416.016 232.479C415.661 232.732 415.248 232.858 414.775 232.858C414.286 232.858 413.864 232.732 413.51 232.479C413.173 232.209 413.004 231.77 413.004 231.163C413.004 230.538 413.173 230.108 413.51 229.872C413.864 229.619 414.286 229.492 414.775 229.492ZM427.788 234.529C429.323 234.529 430.521 234.925 431.382 235.718C432.259 236.511 432.698 237.794 432.698 239.566V248.5H429.509V240.198C429.509 239.169 429.306 238.401 428.901 237.895C428.496 237.372 427.855 237.11 426.978 237.11C425.695 237.11 424.818 237.515 424.345 238.325C423.873 239.118 423.637 240.274 423.637 241.793V248.5H420.448V234.782H422.903L423.358 236.579H423.536C423.839 236.107 424.21 235.718 424.649 235.415C425.088 235.111 425.577 234.892 426.117 234.757C426.657 234.605 427.214 234.529 427.788 234.529ZM439.85 238.401C439.85 238.84 439.834 239.304 439.8 239.793C439.766 240.266 439.732 240.73 439.699 241.185H439.774C439.909 240.983 440.07 240.764 440.255 240.527C440.441 240.274 440.627 240.03 440.812 239.793C441.015 239.54 441.209 239.312 441.394 239.11L445.444 234.782H449.063L443.571 240.705L449.418 248.5H445.697L441.445 242.628L439.85 243.944V248.5H436.687V229.264H439.85V238.401Z" fill="#333333"/>
<path d="M1069.26 246H1067.16L1059.52 234.14H1059.44C1059.47 234.607 1059.5 235.187 1059.54 235.88C1059.58 236.573 1059.6 237.287 1059.6 238.02V246H1057.94V231.72H1060.02L1067.64 243.54H1067.72C1067.71 243.327 1067.69 243.007 1067.66 242.58C1067.65 242.153 1067.63 241.687 1067.6 241.18C1067.59 240.673 1067.58 240.207 1067.58 239.78V231.72H1069.26V246ZM1076.96 235.1C1078.26 235.1 1079.23 235.387 1079.86 235.96C1080.48 236.533 1080.8 237.447 1080.8 238.7V246H1079.52L1079.18 244.48H1079.1C1078.63 245.067 1078.14 245.5 1077.62 245.78C1077.11 246.06 1076.4 246.2 1075.5 246.2C1074.52 246.2 1073.72 245.947 1073.08 245.44C1072.44 244.92 1072.12 244.113 1072.12 243.02C1072.12 241.953 1072.54 241.133 1073.38 240.56C1074.22 239.973 1075.51 239.653 1077.26 239.6L1079.08 239.54V238.9C1079.08 238.007 1078.88 237.387 1078.5 237.04C1078.11 236.693 1077.56 236.52 1076.86 236.52C1076.3 236.52 1075.76 236.607 1075.26 236.78C1074.75 236.94 1074.28 237.127 1073.84 237.34L1073.3 236.02C1073.76 235.767 1074.32 235.553 1074.96 235.38C1075.6 235.193 1076.26 235.1 1076.96 235.1ZM1077.48 240.82C1076.14 240.873 1075.22 241.087 1074.7 241.46C1074.19 241.833 1073.94 242.36 1073.94 243.04C1073.94 243.64 1074.12 244.08 1074.48 244.36C1074.85 244.64 1075.32 244.78 1075.9 244.78C1076.8 244.78 1077.56 244.533 1078.16 244.04C1078.76 243.533 1079.06 242.76 1079.06 241.72V240.76L1077.48 240.82ZM1086.47 246L1082.41 235.28H1084.29L1086.57 241.6C1086.67 241.893 1086.79 242.22 1086.91 242.58C1087.03 242.94 1087.13 243.287 1087.23 243.62C1087.32 243.94 1087.39 244.213 1087.43 244.44H1087.51C1087.56 244.213 1087.63 243.933 1087.73 243.6C1087.83 243.267 1087.95 242.92 1088.07 242.56C1088.2 242.2 1088.31 241.88 1088.41 241.6L1090.69 235.28H1092.57L1088.49 246H1086.47ZM1101.22 246H1099.46V230.8H1101.22V246ZM1105.51 231.26C1105.78 231.26 1106.01 231.353 1106.21 231.54C1106.43 231.713 1106.53 231.993 1106.53 232.38C1106.53 232.753 1106.43 233.033 1106.21 233.22C1106.01 233.407 1105.78 233.5 1105.51 233.5C1105.22 233.5 1104.97 233.407 1104.77 233.22C1104.57 233.033 1104.47 232.753 1104.47 232.38C1104.47 231.993 1104.57 231.713 1104.77 231.54C1104.97 231.353 1105.22 231.26 1105.51 231.26ZM1106.37 235.28V246H1104.61V235.28H1106.37ZM1114.93 235.08C1116.21 235.08 1117.18 235.393 1117.83 236.02C1118.48 236.633 1118.81 237.633 1118.81 239.02V246H1117.07V239.14C1117.07 237.42 1116.27 236.56 1114.67 236.56C1113.48 236.56 1112.66 236.893 1112.21 237.56C1111.76 238.227 1111.53 239.187 1111.53 240.44V246H1109.77V235.28H1111.19L1111.45 236.74H1111.55C1111.9 236.18 1112.38 235.767 1112.99 235.5C1113.6 235.22 1114.25 235.08 1114.93 235.08ZM1123.87 238.74C1123.87 238.953 1123.86 239.233 1123.83 239.58C1123.82 239.927 1123.81 240.227 1123.79 240.48H1123.87C1123.95 240.373 1124.07 240.22 1124.23 240.02C1124.39 239.82 1124.55 239.62 1124.71 239.42C1124.89 239.207 1125.03 239.033 1125.15 238.9L1128.57 235.28H1130.63L1126.29 239.86L1130.93 246H1128.81L1125.09 241L1123.87 242.06V246H1122.13V230.8H1123.87V238.74Z" fill="#333333"/>
<path d="M1156 241.187L1162.5 234.687L1164 236.187L1156 244.187L1148 236.188L1149.5 234.687L1156 241.187Z" fill="#333333"/>
<path d="M1217.26 246H1215.16L1207.52 234.14H1207.44C1207.47 234.607 1207.5 235.187 1207.54 235.88C1207.58 236.573 1207.6 237.287 1207.6 238.02V246H1205.94V231.72H1208.02L1215.64 243.54H1215.72C1215.71 243.327 1215.69 243.007 1215.66 242.58C1215.65 242.153 1215.63 241.687 1215.6 241.18C1215.59 240.673 1215.58 240.207 1215.58 239.78V231.72H1217.26V246ZM1224.96 235.1C1226.26 235.1 1227.23 235.387 1227.86 235.96C1228.48 236.533 1228.8 237.447 1228.8 238.7V246H1227.52L1227.18 244.48H1227.1C1226.63 245.067 1226.14 245.5 1225.62 245.78C1225.11 246.06 1224.4 246.2 1223.5 246.2C1222.52 246.2 1221.72 245.947 1221.08 245.44C1220.44 244.92 1220.12 244.113 1220.12 243.02C1220.12 241.953 1220.54 241.133 1221.38 240.56C1222.22 239.973 1223.51 239.653 1225.26 239.6L1227.08 239.54V238.9C1227.08 238.007 1226.88 237.387 1226.5 237.04C1226.11 236.693 1225.56 236.52 1224.86 236.52C1224.3 236.52 1223.76 236.607 1223.26 236.78C1222.75 236.94 1222.28 237.127 1221.84 237.34L1221.3 236.02C1221.76 235.767 1222.32 235.553 1222.96 235.38C1223.6 235.193 1224.26 235.1 1224.96 235.1ZM1225.48 240.82C1224.14 240.873 1223.22 241.087 1222.7 241.46C1222.19 241.833 1221.94 242.36 1221.94 243.04C1221.94 243.64 1222.12 244.08 1222.48 244.36C1222.85 244.64 1223.32 244.78 1223.9 244.78C1224.8 244.78 1225.56 244.533 1226.16 244.04C1226.76 243.533 1227.06 242.76 1227.06 241.72V240.76L1225.48 240.82ZM1234.47 246L1230.41 235.28H1232.29L1234.57 241.6C1234.67 241.893 1234.79 242.22 1234.91 242.58C1235.03 242.94 1235.13 243.287 1235.23 243.62C1235.32 243.94 1235.39 244.213 1235.43 244.44H1235.51C1235.56 244.213 1235.63 243.933 1235.73 243.6C1235.83 243.267 1235.95 242.92 1236.07 242.56C1236.2 242.2 1236.31 241.88 1236.41 241.6L1238.69 235.28H1240.57L1236.49 246H1234.47ZM1249.22 246H1247.46V230.8H1249.22V246ZM1253.51 231.26C1253.78 231.26 1254.01 231.353 1254.21 231.54C1254.43 231.713 1254.53 231.993 1254.53 232.38C1254.53 232.753 1254.43 233.033 1254.21 233.22C1254.01 233.407 1253.78 233.5 1253.51 233.5C1253.22 233.5 1252.97 233.407 1252.77 233.22C1252.57 233.033 1252.47 232.753 1252.47 232.38C1252.47 231.993 1252.57 231.713 1252.77 231.54C1252.97 231.353 1253.22 231.26 1253.51 231.26ZM1254.37 235.28V246H1252.61V235.28H1254.37ZM1262.93 235.08C1264.21 235.08 1265.18 235.393 1265.83 236.02C1266.48 236.633 1266.81 237.633 1266.81 239.02V246H1265.07V239.14C1265.07 237.42 1264.27 236.56 1262.67 236.56C1261.48 236.56 1260.66 236.893 1260.21 237.56C1259.76 238.227 1259.53 239.187 1259.53 240.44V246H1257.77V235.28H1259.19L1259.45 236.74H1259.55C1259.9 236.18 1260.38 235.767 1260.99 235.5C1261.6 235.22 1262.25 235.08 1262.93 235.08ZM1271.87 238.74C1271.87 238.953 1271.86 239.233 1271.83 239.58C1271.82 239.927 1271.81 240.227 1271.79 240.48H1271.87C1271.95 240.373 1272.07 240.22 1272.23 240.02C1272.39 239.82 1272.55 239.62 1272.71 239.42C1272.89 239.207 1273.03 239.033 1273.15 238.9L1276.57 235.28H1278.63L1274.29 239.86L1278.93 246H1276.81L1273.09 241L1271.87 242.06V246H1270.13V230.8H1271.87V238.74Z" fill="#333333"/>
<path d="M1329.26 246H1327.16L1319.52 234.14H1319.44C1319.47 234.607 1319.5 235.187 1319.54 235.88C1319.58 236.573 1319.6 237.287 1319.6 238.02V246H1317.94V231.72H1320.02L1327.64 243.54H1327.72C1327.71 243.327 1327.69 243.007 1327.66 242.58C1327.65 242.153 1327.63 241.687 1327.6 241.18C1327.59 240.673 1327.58 240.207 1327.58 239.78V231.72H1329.26V246ZM1336.96 235.1C1338.26 235.1 1339.23 235.387 1339.86 235.96C1340.48 236.533 1340.8 237.447 1340.8 238.7V246H1339.52L1339.18 244.48H1339.1C1338.63 245.067 1338.14 245.5 1337.62 245.78C1337.11 246.06 1336.4 246.2 1335.5 246.2C1334.52 246.2 1333.72 245.947 1333.08 245.44C1332.44 244.92 1332.12 244.113 1332.12 243.02C1332.12 241.953 1332.54 241.133 1333.38 240.56C1334.22 239.973 1335.51 239.653 1337.26 239.6L1339.08 239.54V238.9C1339.08 238.007 1338.88 237.387 1338.5 237.04C1338.11 236.693 1337.56 236.52 1336.86 236.52C1336.3 236.52 1335.76 236.607 1335.26 236.78C1334.75 236.94 1334.28 237.127 1333.84 237.34L1333.3 236.02C1333.76 235.767 1334.32 235.553 1334.96 235.38C1335.6 235.193 1336.26 235.1 1336.96 235.1ZM1337.48 240.82C1336.14 240.873 1335.22 241.087 1334.7 241.46C1334.19 241.833 1333.94 242.36 1333.94 243.04C1333.94 243.64 1334.12 244.08 1334.48 244.36C1334.85 244.64 1335.32 244.78 1335.9 244.78C1336.8 244.78 1337.56 244.533 1338.16 244.04C1338.76 243.533 1339.06 242.76 1339.06 241.72V240.76L1337.48 240.82ZM1346.47 246L1342.41 235.28H1344.29L1346.57 241.6C1346.67 241.893 1346.79 242.22 1346.91 242.58C1347.03 242.94 1347.13 243.287 1347.23 243.62C1347.32 243.94 1347.39 244.213 1347.43 244.44H1347.51C1347.56 244.213 1347.63 243.933 1347.73 243.6C1347.83 243.267 1347.95 242.92 1348.07 242.56C1348.2 242.2 1348.31 241.88 1348.41 241.6L1350.69 235.28H1352.57L1348.49 246H1346.47ZM1361.22 246H1359.46V230.8H1361.22V246ZM1365.51 231.26C1365.78 231.26 1366.01 231.353 1366.21 231.54C1366.43 231.713 1366.53 231.993 1366.53 232.38C1366.53 232.753 1366.43 233.033 1366.21 233.22C1366.01 233.407 1365.78 233.5 1365.51 233.5C1365.22 233.5 1364.97 233.407 1364.77 233.22C1364.57 233.033 1364.47 232.753 1364.47 232.38C1364.47 231.993 1364.57 231.713 1364.77 231.54C1364.97 231.353 1365.22 231.26 1365.51 231.26ZM1366.37 235.28V246H1364.61V235.28H1366.37ZM1374.93 235.08C1376.21 235.08 1377.18 235.393 1377.83 236.02C1378.48 236.633 1378.81 237.633 1378.81 239.02V246H1377.07V239.14C1377.07 237.42 1376.27 236.56 1374.67 236.56C1373.48 236.56 1372.66 236.893 1372.21 237.56C1371.76 238.227 1371.53 239.187 1371.53 240.44V246H1369.77V235.28H1371.19L1371.45 236.74H1371.55C1371.9 236.18 1372.38 235.767 1372.99 235.5C1373.6 235.22 1374.25 235.08 1374.93 235.08ZM1383.87 238.74C1383.87 238.953 1383.86 239.233 1383.83 239.58C1383.82 239.927 1383.81 240.227 1383.79 240.48H1383.87C1383.95 240.373 1384.07 240.22 1384.23 240.02C1384.39 239.82 1384.55 239.62 1384.71 239.42C1384.89 239.207 1385.03 239.033 1385.15 238.9L1388.57 235.28H1390.63L1386.29 239.86L1390.93 246H1388.81L1385.09 241L1383.87 242.06V246H1382.13V230.8H1383.87V238.74Z" fill="#333333"/>
<path d="M276.448 294.68C275.221 294.68 274.256 295.091 273.552 295.912C272.848 296.733 272.496 297.859 272.496 299.288C272.496 300.707 272.821 301.832 273.472 302.664C274.133 303.485 275.12 303.896 276.432 303.896C276.933 303.896 277.408 303.853 277.856 303.768C278.304 303.683 278.741 303.576 279.168 303.448V304.696C278.741 304.856 278.299 304.973 277.84 305.048C277.392 305.123 276.853 305.16 276.224 305.16C275.061 305.16 274.091 304.92 273.312 304.44C272.533 303.96 271.947 303.277 271.552 302.392C271.168 301.507 270.976 300.467 270.976 299.272C270.976 298.12 271.184 297.107 271.6 296.232C272.027 295.347 272.651 294.659 273.472 294.168C274.293 293.667 275.291 293.416 276.464 293.416C277.669 293.416 278.72 293.64 279.616 294.088L279.04 295.304C278.688 295.144 278.293 295 277.856 294.872C277.429 294.744 276.96 294.68 276.448 294.68ZM284.717 296.28C285.763 296.28 286.536 296.509 287.037 296.968C287.539 297.427 287.789 298.157 287.789 299.16V305H286.765L286.493 303.784H286.429C286.056 304.253 285.661 304.6 285.245 304.824C284.84 305.048 284.275 305.16 283.549 305.16C282.771 305.16 282.125 304.957 281.613 304.552C281.101 304.136 280.845 303.491 280.845 302.616C280.845 301.763 281.181 301.107 281.853 300.648C282.525 300.179 283.56 299.923 284.957 299.88L286.413 299.832V299.32C286.413 298.605 286.259 298.109 285.949 297.832C285.64 297.555 285.203 297.416 284.637 297.416C284.189 297.416 283.763 297.485 283.357 297.624C282.952 297.752 282.573 297.901 282.221 298.072L281.789 297.016C282.163 296.813 282.605 296.643 283.117 296.504C283.629 296.355 284.163 296.28 284.717 296.28ZM285.133 300.856C284.067 300.899 283.325 301.069 282.909 301.368C282.504 301.667 282.301 302.088 282.301 302.632C282.301 303.112 282.445 303.464 282.733 303.688C283.032 303.912 283.411 304.024 283.869 304.024C284.595 304.024 285.197 303.827 285.677 303.432C286.157 303.027 286.397 302.408 286.397 301.576V300.808L285.133 300.856ZM294.566 296.264C295.59 296.264 296.363 296.515 296.886 297.016C297.409 297.507 297.67 298.307 297.67 299.416V305H296.278V299.512C296.278 298.136 295.638 297.448 294.358 297.448C293.409 297.448 292.753 297.715 292.39 298.248C292.027 298.781 291.846 299.549 291.846 300.552V305H290.438V296.424H291.574L291.782 297.592H291.862C292.139 297.144 292.523 296.813 293.014 296.6C293.505 296.376 294.022 296.264 294.566 296.264ZM303.577 296.28C304.622 296.28 305.395 296.509 305.897 296.968C306.398 297.427 306.649 298.157 306.649 299.16V305H305.625L305.353 303.784H305.289C304.915 304.253 304.521 304.6 304.105 304.824C303.699 305.048 303.134 305.16 302.409 305.16C301.63 305.16 300.985 304.957 300.473 304.552C299.961 304.136 299.705 303.491 299.705 302.616C299.705 301.763 300.041 301.107 300.713 300.648C301.385 300.179 302.419 299.923 303.817 299.88L305.273 299.832V299.32C305.273 298.605 305.118 298.109 304.809 297.832C304.499 297.555 304.062 297.416 303.497 297.416C303.049 297.416 302.622 297.485 302.217 297.624C301.811 297.752 301.433 297.901 301.081 298.072L300.649 297.016C301.022 296.813 301.465 296.643 301.977 296.504C302.489 296.355 303.022 296.28 303.577 296.28ZM303.993 300.856C302.926 300.899 302.185 301.069 301.769 301.368C301.363 301.667 301.161 302.088 301.161 302.632C301.161 303.112 301.305 303.464 301.593 303.688C301.891 303.912 302.27 304.024 302.729 304.024C303.454 304.024 304.057 303.827 304.537 303.432C305.017 303.027 305.257 302.408 305.257 301.576V300.808L303.993 300.856ZM312.338 305.16C311.271 305.16 310.418 304.792 309.778 304.056C309.138 303.309 308.818 302.2 308.818 300.728C308.818 299.256 309.138 298.147 309.778 297.4C310.428 296.643 311.287 296.264 312.354 296.264C313.015 296.264 313.554 296.387 313.97 296.632C314.396 296.877 314.743 297.176 315.01 297.528H315.106C315.095 297.389 315.074 297.187 315.042 296.92C315.02 296.643 315.01 296.424 315.01 296.264V292.84H316.418V305H315.282L315.074 303.848H315.01C314.754 304.211 314.412 304.52 313.986 304.776C313.559 305.032 313.01 305.16 312.338 305.16ZM312.562 303.992C313.468 303.992 314.103 303.747 314.466 303.256C314.839 302.755 315.026 302.003 315.026 301V300.744C315.026 299.677 314.85 298.861 314.498 298.296C314.146 297.72 313.495 297.432 312.546 297.432C311.788 297.432 311.218 297.736 310.834 298.344C310.46 298.941 310.274 299.747 310.274 300.76C310.274 301.784 310.46 302.579 310.834 303.144C311.218 303.709 311.794 303.992 312.562 303.992ZM322.389 296.28C323.435 296.28 324.208 296.509 324.709 296.968C325.211 297.427 325.461 298.157 325.461 299.16V305H324.437L324.165 303.784H324.101C323.728 304.253 323.333 304.6 322.917 304.824C322.512 305.048 321.947 305.16 321.221 305.16C320.443 305.16 319.797 304.957 319.285 304.552C318.773 304.136 318.517 303.491 318.517 302.616C318.517 301.763 318.853 301.107 319.525 300.648C320.197 300.179 321.232 299.923 322.629 299.88L324.085 299.832V299.32C324.085 298.605 323.931 298.109 323.621 297.832C323.312 297.555 322.875 297.416 322.309 297.416C321.861 297.416 321.435 297.485 321.029 297.624C320.624 297.752 320.245 297.901 319.893 298.072L319.461 297.016C319.835 296.813 320.277 296.643 320.789 296.504C321.301 296.355 321.835 296.28 322.389 296.28ZM322.805 300.856C321.739 300.899 320.997 301.069 320.581 301.368C320.176 301.667 319.973 302.088 319.973 302.632C319.973 303.112 320.117 303.464 320.405 303.688C320.704 303.912 321.083 304.024 321.541 304.024C322.267 304.024 322.869 303.827 323.349 303.432C323.829 303.027 324.069 302.408 324.069 301.576V300.808L322.805 300.856ZM327.902 304.136C327.902 303.741 327.998 303.464 328.19 303.304C328.382 303.144 328.611 303.064 328.878 303.064C329.155 303.064 329.39 303.144 329.582 303.304C329.785 303.464 329.886 303.741 329.886 304.136C329.886 304.52 329.785 304.797 329.582 304.968C329.39 305.139 329.155 305.224 328.878 305.224C328.611 305.224 328.382 305.139 328.19 304.968C327.998 304.797 327.902 304.52 327.902 304.136ZM335.831 305.16C335.074 305.16 334.397 305.005 333.799 304.696C333.213 304.387 332.749 303.907 332.407 303.256C332.077 302.605 331.911 301.773 331.911 300.76C331.911 299.704 332.087 298.845 332.439 298.184C332.791 297.523 333.266 297.037 333.863 296.728C334.471 296.419 335.159 296.264 335.927 296.264C336.365 296.264 336.786 296.312 337.191 296.408C337.597 296.493 337.927 296.6 338.183 296.728L337.751 297.896C337.495 297.8 337.197 297.709 336.855 297.624C336.514 297.539 336.194 297.496 335.895 297.496C334.21 297.496 333.367 298.579 333.367 300.744C333.367 301.779 333.57 302.573 333.975 303.128C334.391 303.672 335.005 303.944 335.815 303.944C336.285 303.944 336.695 303.896 337.047 303.8C337.41 303.704 337.741 303.587 338.039 303.448V304.696C337.751 304.845 337.431 304.957 337.079 305.032C336.738 305.117 336.322 305.16 335.831 305.16ZM343.327 296.28C344.372 296.28 345.145 296.509 345.647 296.968C346.148 297.427 346.399 298.157 346.399 299.16V305H345.375L345.103 303.784H345.039C344.665 304.253 344.271 304.6 343.855 304.824C343.449 305.048 342.884 305.16 342.159 305.16C341.38 305.16 340.735 304.957 340.223 304.552C339.711 304.136 339.455 303.491 339.455 302.616C339.455 301.763 339.791 301.107 340.463 300.648C341.135 300.179 342.169 299.923 343.567 299.88L345.023 299.832V299.32C345.023 298.605 344.868 298.109 344.559 297.832C344.249 297.555 343.812 297.416 343.247 297.416C342.799 297.416 342.372 297.485 341.967 297.624C341.561 297.752 341.183 297.901 340.831 298.072L340.399 297.016C340.772 296.813 341.215 296.643 341.727 296.504C342.239 296.355 342.772 296.28 343.327 296.28ZM343.743 300.856C342.676 300.899 341.935 301.069 341.519 301.368C341.113 301.667 340.911 302.088 340.911 302.632C340.911 303.112 341.055 303.464 341.343 303.688C341.641 303.912 342.02 304.024 342.479 304.024C343.204 304.024 343.807 303.827 344.287 303.432C344.767 303.027 345.007 302.408 345.007 301.576V300.808L343.743 300.856Z" fill="#2B4380"/>
<path d="M270 307H347.695V307.8H270V307Z" fill="#2B4380"/>
<path d="M361.312 299L356.438 303.875L357.562 305L363.562 299L357.562 293L356.438 294.125L361.312 299Z" fill="#333333"/>
<path d="M373.552 305V293.576H374.992V303.72H379.984V305H373.552ZM382.471 293.208C382.684 293.208 382.871 293.283 383.031 293.432C383.201 293.571 383.287 293.795 383.287 294.104C383.287 294.403 383.201 294.627 383.031 294.776C382.871 294.925 382.684 295 382.471 295C382.236 295 382.039 294.925 381.879 294.776C381.719 294.627 381.639 294.403 381.639 294.104C381.639 293.795 381.719 293.571 381.879 293.432C382.039 293.283 382.236 293.208 382.471 293.208ZM383.159 296.424V305H381.751V296.424H383.159ZM390.004 296.264C391.028 296.264 391.801 296.515 392.324 297.016C392.846 297.507 393.108 298.307 393.108 299.416V305H391.716V299.512C391.716 298.136 391.076 297.448 389.796 297.448C388.846 297.448 388.19 297.715 387.828 298.248C387.465 298.781 387.284 299.549 387.284 300.552V305H385.876V296.424H387.012L387.22 297.592H387.3C387.577 297.144 387.961 296.813 388.452 296.6C388.942 296.376 389.46 296.264 390.004 296.264ZM397.158 299.192C397.158 299.363 397.148 299.587 397.126 299.864C397.116 300.141 397.105 300.381 397.094 300.584H397.158C397.222 300.499 397.318 300.376 397.446 300.216C397.574 300.056 397.702 299.896 397.83 299.736C397.969 299.565 398.086 299.427 398.182 299.32L400.918 296.424H402.566L399.094 300.088L402.806 305H401.11L398.134 301L397.158 301.848V305H395.766V292.84H397.158V299.192Z" fill="#2B4380"/>
<path d="M372 307H402.95V307.8H372V307Z" fill="#2B4380"/>
<g clip-path="url(#clip2_6347_14816)">
<rect x="1608" y="210" width="48" height="1" transform="rotate(180 1608 210)" fill="#C54600"/>
<g clip-path="url(#clip3_6347_14816)">
<rect x="1584" y="198" width="24" height="24" rx="12" fill="#C54600"/>
<path d="M1596.03 214.119C1595.43 214.119 1594.89 214.009 1594.42 213.787C1593.95 213.565 1593.58 213.26 1593.3 212.871C1593.02 212.482 1592.88 212.036 1592.87 211.533H1594.66C1594.68 211.871 1594.82 212.145 1595.09 212.355C1595.35 212.565 1595.66 212.67 1596.03 212.67C1596.32 212.67 1596.57 212.607 1596.79 212.479C1597.02 212.348 1597.19 212.168 1597.32 211.938C1597.45 211.705 1597.51 211.437 1597.51 211.136C1597.51 210.83 1597.45 210.56 1597.31 210.327C1597.19 210.094 1597.01 209.912 1596.78 209.781C1596.55 209.651 1596.29 209.584 1596 209.581C1595.75 209.581 1595.5 209.634 1595.26 209.739C1595.02 209.844 1594.83 209.987 1594.7 210.169L1593.06 209.875L1593.47 205.273H1598.81V206.781H1594.99L1594.77 208.967H1594.82C1594.97 208.751 1595.2 208.572 1595.51 208.43C1595.82 208.288 1596.17 208.217 1596.55 208.217C1597.08 208.217 1597.55 208.341 1597.96 208.588C1598.37 208.835 1598.7 209.175 1598.93 209.607C1599.17 210.036 1599.29 210.53 1599.29 211.089C1599.29 211.678 1599.15 212.2 1598.88 212.658C1598.61 213.112 1598.22 213.47 1597.73 213.732C1597.24 213.99 1596.68 214.119 1596.03 214.119Z" fill="white"/>
</g>
</g>
<g clip-path="url(#clip4_6347_14816)">
<rect x="857" y="52" width="1" height="56" fill="#C54600"/>
<g clip-path="url(#clip5_6347_14816)">
<rect x="845" y="52" width="24" height="24" rx="12" fill="#C54600"/>
<path d="M853.928 68V66.6705L857.035 63.794C857.299 63.5384 857.52 63.3082 857.699 63.1037C857.881 62.8991 858.019 62.6989 858.113 62.5028C858.206 62.304 858.253 62.0895 858.253 61.8594C858.253 61.6037 858.195 61.3835 858.079 61.1989C857.962 61.0114 857.803 60.8679 857.601 60.7685C857.4 60.6662 857.171 60.6151 856.915 60.6151C856.648 60.6151 856.415 60.669 856.216 60.777C856.018 60.8849 855.864 61.0398 855.756 61.2415C855.648 61.4432 855.594 61.6832 855.594 61.9616H853.843C853.843 61.3906 853.972 60.8949 854.231 60.4744C854.489 60.054 854.851 59.7287 855.317 59.4986C855.783 59.2685 856.32 59.1534 856.928 59.1534C857.553 59.1534 858.097 59.2642 858.56 59.4858C859.026 59.7045 859.388 60.0085 859.647 60.3977C859.905 60.7869 860.035 61.233 860.035 61.7358C860.035 62.0653 859.969 62.3906 859.839 62.7116C859.711 63.0327 859.482 63.3892 859.153 63.7812C858.823 64.1705 858.358 64.6378 857.759 65.1832L856.485 66.4318V66.4915H860.15V68H853.928Z" fill="white"/>
</g>
</g>
<g clip-path="url(#clip6_6347_14816)">
<rect x="1379" y="52" width="1" height="62" fill="#C54600"/>
<g clip-path="url(#clip7_6347_14816)">
<rect x="1367" y="52" width="24" height="24" rx="12" fill="#C54600"/>
<path d="M1378.98 68.1193C1378.34 68.1193 1377.78 68.0099 1377.28 67.7912C1376.78 67.5696 1376.39 67.2656 1376.11 66.8793C1375.82 66.4901 1375.68 66.0412 1375.67 65.5327H1377.53C1377.54 65.7457 1377.61 65.9332 1377.73 66.0952C1377.86 66.2543 1378.04 66.3778 1378.25 66.4659C1378.47 66.554 1378.71 66.598 1378.98 66.598C1379.26 66.598 1379.51 66.5483 1379.73 66.4489C1379.94 66.3494 1380.11 66.2116 1380.24 66.0355C1380.36 65.8594 1380.42 65.6562 1380.42 65.4261C1380.42 65.1932 1380.35 64.9872 1380.22 64.8082C1380.09 64.6264 1379.91 64.4844 1379.67 64.3821C1379.43 64.2798 1379.15 64.2287 1378.82 64.2287H1378V62.8736H1378.82C1379.09 62.8736 1379.34 62.8253 1379.55 62.7287C1379.77 62.6321 1379.94 62.4986 1380.06 62.3281C1380.18 62.1548 1380.24 61.9531 1380.24 61.723C1380.24 61.5043 1380.18 61.3125 1380.08 61.1477C1379.98 60.9801 1379.83 60.8494 1379.64 60.7557C1379.46 60.6619 1379.24 60.6151 1379 60.6151C1378.75 60.6151 1378.52 60.6605 1378.31 60.7514C1378.1 60.8395 1377.94 60.9659 1377.81 61.1307C1377.69 61.2955 1377.62 61.4886 1377.61 61.7102H1375.84C1375.85 61.2074 1375.99 60.7642 1376.27 60.3807C1376.55 59.9972 1376.93 59.6974 1377.4 59.4815C1377.87 59.2628 1378.41 59.1534 1379 59.1534C1379.61 59.1534 1380.13 59.2628 1380.58 59.4815C1381.04 59.7003 1381.39 59.9957 1381.64 60.3679C1381.89 60.7372 1382.02 61.152 1382.01 61.6122C1382.02 62.1009 1381.86 62.5085 1381.56 62.8352C1381.25 63.1619 1380.86 63.3693 1380.37 63.4574V63.5256C1381.01 63.608 1381.5 63.831 1381.83 64.1946C1382.17 64.5554 1382.34 65.0071 1382.34 65.5497C1382.34 66.0469 1382.2 66.4886 1381.91 66.875C1381.62 67.2614 1381.22 67.5653 1380.72 67.7869C1380.21 68.0085 1379.63 68.1193 1378.98 68.1193Z" fill="white"/>
</g>
</g>
<g clip-path="url(#clip8_6347_14816)">
<rect x="450" y="52" width="1" height="103.5" fill="#C54600"/>
<g clip-path="url(#clip9_6347_14816)">
<rect x="438" y="52" width="24" height="24" rx="12" fill="#C54600"/>
<path d="M451.569 59.2727V68H449.724V61.0241H449.672L447.674 62.277V60.6406L449.834 59.2727H451.569Z" fill="white"/>
</g>
</g>
<g clip-path="url(#clip10_6347_14816)">
<rect x="1608" y="173" width="1" height="198" transform="rotate(90 1608 173)" fill="#C54600"/>
<g clip-path="url(#clip11_6347_14816)">
<rect x="1584" y="161" width="24" height="24" rx="12" fill="#C54600"/>
<path d="M1592.51 175.466V174.013L1596.15 168.273H1597.41V170.284H1596.66L1594.37 173.919V173.987H1599.54V175.466H1592.51ZM1596.7 177V175.023L1596.73 174.379V168.273H1598.46V177H1596.7Z" fill="white"/>
</g>
</g>
<rect x="70" y="240" width="41" height="1" fill="#C54600"/>
<rect width="63" height="1" transform="matrix(0 -1 -1 0 112 271)" fill="#C54600"/>
<g clip-path="url(#clip12_6347_14816)">
<rect x="70" y="228" width="24" height="24" rx="12" fill="#C54600"/>
<path d="M82.0959 244.119C81.647 244.116 81.2138 244.041 80.7962 243.893C80.3814 243.746 80.0092 243.506 79.6797 243.173C79.3501 242.841 79.0888 242.401 78.8956 241.852C78.7053 241.304 78.6101 240.631 78.6101 239.832C78.6129 239.099 78.6967 238.445 78.8615 237.868C79.0291 237.288 79.2678 236.797 79.5774 236.393C79.8899 235.99 80.2635 235.683 80.6982 235.473C81.1328 235.26 81.62 235.153 82.1598 235.153C82.7422 235.153 83.2564 235.267 83.7024 235.494C84.1484 235.719 84.5064 236.024 84.7763 236.411C85.049 236.797 85.2138 237.23 85.2706 237.71H83.451C83.38 237.406 83.2308 237.168 83.0036 236.994C82.7763 236.821 82.495 236.734 82.1598 236.734C81.5916 236.734 81.1598 236.982 80.8643 237.476C80.5717 237.97 80.4226 238.642 80.4169 239.491H80.4766C80.6072 239.233 80.7834 239.013 81.005 238.831C81.2294 238.646 81.4837 238.506 81.7678 238.409C82.0547 238.31 82.3572 238.26 82.6754 238.26C83.1925 238.26 83.6527 238.382 84.0561 238.626C84.4595 238.868 84.7777 239.2 85.0107 239.624C85.2436 240.047 85.3601 240.531 85.3601 241.077C85.3601 241.668 85.2223 242.193 84.9467 242.653C84.674 243.114 84.2919 243.474 83.8004 243.736C83.3118 243.994 82.7436 244.122 82.0959 244.119ZM82.0874 242.67C82.3714 242.67 82.6257 242.602 82.8501 242.466C83.0746 242.33 83.2507 242.145 83.3786 241.912C83.5064 241.679 83.5703 241.418 83.5703 241.128C83.5703 240.838 83.5064 240.578 83.3786 240.348C83.2536 240.118 83.0803 239.935 82.8587 239.798C82.6371 239.662 82.3842 239.594 82.1001 239.594C81.8871 239.594 81.6896 239.634 81.5078 239.713C81.3288 239.793 81.1712 239.903 81.0348 240.045C80.9013 240.187 80.7962 240.352 80.7195 240.54C80.6428 240.724 80.6044 240.922 80.6044 241.132C80.6044 241.413 80.6683 241.67 80.7962 241.903C80.9268 242.136 81.103 242.322 81.3246 242.462C81.549 242.601 81.8033 242.67 82.0874 242.67Z" fill="white"/>
</g>
<g clip-path="url(#clip13_6347_14816)">
<rect x="72" y="299" width="195" height="1" fill="#C54600"/>
<g clip-path="url(#clip14_6347_14816)">
<rect x="72" y="287" width="24" height="24" rx="12" fill="#C54600"/>
<path d="M81.4842 303L85.1021 295.841V295.781H80.8876V294.273H87.0112V295.803L83.389 303H81.4842Z" fill="white"/>
</g>
</g>
<defs>
<filter id="filter0_i_6347_14816" x="748" y="108" width="206" height="36" filterUnits="userSpaceOnUse" color-interpolation-filters="sRGB">
<feFlood flood-opacity="0" result="BackgroundImageFix"/>
<feBlend mode="normal" in="SourceGraphic" in2="BackgroundImageFix" result="shape"/>
<feColorMatrix in="SourceAlpha" type="matrix" values="0 0 0 0 0 0 0 0 0 0 0 0 0 0 0 0 0 0 127 0" result="hardAlpha"/>
<feMorphology radius="4" operator="erode" in="SourceAlpha" result="effect1_innerShadow_6347_14816"/>
<feOffset/>
<feComposite in2="hardAlpha" operator="arithmetic" k2="-1" k3="1"/>
<feColorMatrix type="matrix" values="0 0 0 0 1 0 0 0 0 1 0 0 0 0 1 0 0 0 1 0"/>
<feBlend mode="normal" in2="shape" result="effect1_innerShadow_6347_14816"/>
</filter>
<clipPath id="clip0_6347_14816">
<rect width="1140" height="36" fill="white" transform="translate(270 108)"/>
</clipPath>
<clipPath id="clip1_6347_14816">
<rect width="360" height="33" fill="white" transform="translate(270 155.5)"/>
</clipPath>
<clipPath id="clip2_6347_14816">
<rect width="48" height="24" fill="white" transform="matrix(-1 0 0 -1 1608 222)"/>
</clipPath>
<clipPath id="clip3_6347_14816">
<rect x="1584" y="198" width="24" height="24" rx="12" fill="white"/>
</clipPath>
<clipPath id="clip4_6347_14816">
<rect width="24" height="56" fill="white" transform="translate(845 52)"/>
</clipPath>
<clipPath id="clip5_6347_14816">
<rect x="845" y="52" width="24" height="24" rx="12" fill="white"/>
</clipPath>
<clipPath id="clip6_6347_14816">
<rect width="24" height="62" fill="white" transform="translate(1367 52)"/>
</clipPath>
<clipPath id="clip7_6347_14816">
<rect x="1367" y="52" width="24" height="24" rx="12" fill="white"/>
</clipPath>
<clipPath id="clip8_6347_14816">
<rect width="24" height="103.5" fill="white" transform="translate(438 52)"/>
</clipPath>
<clipPath id="clip9_6347_14816">
<rect x="438" y="52" width="24" height="24" rx="12" fill="white"/>
</clipPath>
<clipPath id="clip10_6347_14816">
<rect width="24" height="198" fill="white" transform="matrix(0 1 -1 0 1608 161)"/>
</clipPath>
<clipPath id="clip11_6347_14816">
<rect x="1584" y="161" width="24" height="24" rx="12" fill="white"/>
</clipPath>
<clipPath id="clip12_6347_14816">
<rect x="70" y="228" width="24" height="24" rx="12" fill="white"/>
</clipPath>
<clipPath id="clip13_6347_14816">
<rect width="195" height="24" fill="white" transform="translate(72 287)"/>
</clipPath>
<clipPath id="clip14_6347_14816">
<rect x="72" y="287" width="24" height="24" rx="12" fill="white"/>
</clipPath>
</defs>
</svg>
