<svg width="352" height="96" viewBox="0 0 352 96" fill="none" xmlns="http://www.w3.org/2000/svg">
<path d="M46.992 54H45.552V42.576H51.936V43.84H46.992V47.888H51.632V49.152H46.992V54ZM57.6569 45.264C57.8169 45.264 57.9875 45.2747 58.1689 45.296C58.3609 45.3067 58.5262 45.328 58.6649 45.36L58.4889 46.656C58.3502 46.624 58.1955 46.5973 58.0249 46.576C57.8649 46.5547 57.7102 46.544 57.5609 46.544C57.1235 46.544 56.7129 46.6667 56.3289 46.912C55.9449 47.1467 55.6355 47.4827 55.4009 47.92C55.1769 48.3467 55.0649 48.848 55.0649 49.424V54H53.6569V45.424H54.8089L54.9689 46.992H55.0329C55.3102 46.5227 55.6675 46.1173 56.1049 45.776C56.5422 45.4347 57.0595 45.264 57.6569 45.264ZM63.2018 45.28C64.2471 45.28 65.0204 45.5093 65.5218 45.968C66.0231 46.4267 66.2738 47.1573 66.2738 48.16V54H65.2498L64.9778 52.784H64.9138C64.5404 53.2533 64.1458 53.6 63.7298 53.824C63.3244 54.048 62.7591 54.16 62.0338 54.16C61.2551 54.16 60.6098 53.9573 60.0978 53.552C59.5858 53.136 59.3298 52.4907 59.3298 51.616C59.3298 50.7627 59.6658 50.1067 60.3378 49.648C61.0098 49.1787 62.0444 48.9227 63.4418 48.88L64.8978 48.832V48.32C64.8978 47.6053 64.7431 47.1093 64.4338 46.832C64.1244 46.5547 63.6871 46.416 63.1218 46.416C62.6738 46.416 62.2471 46.4853 61.8418 46.624C61.4364 46.752 61.0578 46.9013 60.7057 47.072L60.2738 46.016C60.6471 45.8133 61.0898 45.6427 61.6018 45.504C62.1138 45.3547 62.6471 45.28 63.2018 45.28ZM63.6178 49.856C62.5511 49.8987 61.8098 50.0693 61.3938 50.368C60.9884 50.6667 60.7858 51.088 60.7858 51.632C60.7858 52.112 60.9298 52.464 61.2178 52.688C61.5164 52.912 61.8951 53.024 62.3538 53.024C63.0791 53.024 63.6818 52.8267 64.1618 52.432C64.6418 52.0267 64.8818 51.408 64.8818 50.576V49.808L63.6178 49.856ZM73.0505 45.264C74.0745 45.264 74.8478 45.5147 75.3705 46.016C75.8932 46.5067 76.1545 47.3067 76.1545 48.416V54H74.7625V48.512C74.7625 47.136 74.1225 46.448 72.8425 46.448C71.8932 46.448 71.2372 46.7147 70.8745 47.248C70.5118 47.7813 70.3305 48.5493 70.3305 49.552V54H68.9225V45.424H70.0585L70.2665 46.592H70.3465C70.6238 46.144 71.0078 45.8133 71.4985 45.6C71.9892 45.376 72.5065 45.264 73.0505 45.264ZM82.2531 54.16C81.4958 54.16 80.8185 54.0053 80.2211 53.696C79.6345 53.3867 79.1705 52.9067 78.8291 52.256C78.4985 51.6053 78.3331 50.7733 78.3331 49.76C78.3331 48.704 78.5091 47.8453 78.8611 47.184C79.2131 46.5227 79.6878 46.0373 80.2851 45.728C80.8931 45.4187 81.5811 45.264 82.3491 45.264C82.7865 45.264 83.2078 45.312 83.6131 45.408C84.0185 45.4933 84.3491 45.6 84.6051 45.728L84.1731 46.896C83.9171 46.8 83.6185 46.7093 83.2771 46.624C82.9358 46.5387 82.6158 46.496 82.3171 46.496C80.6318 46.496 79.7891 47.5787 79.7891 49.744C79.7891 50.7787 79.9918 51.5733 80.3971 52.128C80.8131 52.672 81.4265 52.944 82.2371 52.944C82.7065 52.944 83.1171 52.896 83.4691 52.8C83.8318 52.704 84.1625 52.5867 84.4611 52.448V53.696C84.1731 53.8453 83.8531 53.9573 83.5011 54.032C83.1598 54.1173 82.7438 54.16 82.2531 54.16ZM83.5651 56.224C83.5651 56.736 83.3678 57.1307 82.9731 57.408C82.5785 57.696 81.9865 57.84 81.1971 57.84C80.8558 57.84 80.5891 57.8133 80.3971 57.76V56.88C80.4931 56.9013 80.6211 56.9173 80.7811 56.928C80.9411 56.9493 81.0958 56.96 81.2451 56.96C81.6291 56.96 81.9225 56.9067 82.1251 56.8C82.3278 56.704 82.4291 56.5227 82.4291 56.256C82.4291 55.9787 82.2851 55.776 81.9971 55.648C81.7198 55.52 81.3785 55.4293 80.9731 55.376L81.6611 54H82.5891L82.1731 54.848C82.5571 54.9333 82.8825 55.0827 83.1491 55.296C83.4265 55.5093 83.5651 55.8187 83.5651 56.224ZM89.7486 45.28C90.794 45.28 91.5673 45.5093 92.0686 45.968C92.57 46.4267 92.8206 47.1573 92.8206 48.16V54H91.7966L91.5246 52.784H91.4606C91.0873 53.2533 90.6926 53.6 90.2766 53.824C89.8713 54.048 89.306 54.16 88.5806 54.16C87.802 54.16 87.1566 53.9573 86.6446 53.552C86.1326 53.136 85.8766 52.4907 85.8766 51.616C85.8766 50.7627 86.2126 50.1067 86.8846 49.648C87.5566 49.1787 88.5913 48.9227 89.9886 48.88L91.4446 48.832V48.32C91.4446 47.6053 91.29 47.1093 90.9806 46.832C90.6713 46.5547 90.234 46.416 89.6686 46.416C89.2206 46.416 88.794 46.4853 88.3886 46.624C87.9833 46.752 87.6046 46.9013 87.2526 47.072L86.8206 46.016C87.194 45.8133 87.6366 45.6427 88.1486 45.504C88.6606 45.3547 89.194 45.28 89.7486 45.28ZM90.1646 49.856C89.098 49.8987 88.3566 50.0693 87.9406 50.368C87.5353 50.6667 87.3326 51.088 87.3326 51.632C87.3326 52.112 87.4766 52.464 87.7646 52.688C88.0633 52.912 88.442 53.024 88.9006 53.024C89.626 53.024 90.2286 52.8267 90.7086 52.432C91.1886 52.0267 91.4286 51.408 91.4286 50.576V49.808L90.1646 49.856ZM96.1894 42.208C96.4027 42.208 96.5894 42.2827 96.7494 42.432C96.92 42.5707 97.0054 42.7947 97.0054 43.104C97.0054 43.4027 96.92 43.6267 96.7494 43.776C96.5894 43.9253 96.4027 44 96.1894 44C95.9547 44 95.7574 43.9253 95.5974 43.776C95.4374 43.6267 95.3574 43.4027 95.3574 43.104C95.3574 42.7947 95.4374 42.5707 95.5974 42.432C95.7574 42.2827 95.9547 42.208 96.1894 42.208ZM96.8774 45.424V54H95.4694V45.424H96.8774ZM105.178 51.632C105.178 52.464 104.869 53.0933 104.25 53.52C103.632 53.9467 102.8 54.16 101.754 54.16C101.157 54.16 100.64 54.112 100.202 54.016C99.7757 53.92 99.397 53.7867 99.0664 53.616V52.336C99.4077 52.5067 99.8184 52.6667 100.298 52.816C100.789 52.9547 101.285 53.024 101.786 53.024C102.501 53.024 103.018 52.912 103.338 52.688C103.658 52.4533 103.818 52.144 103.818 51.76C103.818 51.5467 103.76 51.3547 103.642 51.184C103.525 51.0133 103.312 50.8427 103.002 50.672C102.704 50.5013 102.272 50.3093 101.706 50.096C101.152 49.8827 100.677 49.6693 100.282 49.456C99.8877 49.2427 99.5837 48.9867 99.3704 48.688C99.157 48.3893 99.0504 48.0053 99.0504 47.536C99.0504 46.8107 99.3437 46.2507 99.9304 45.856C100.528 45.4613 101.306 45.264 102.266 45.264C102.789 45.264 103.274 45.3173 103.722 45.424C104.181 45.52 104.608 45.6587 105.002 45.84L104.522 46.96C104.16 46.8107 103.781 46.6827 103.386 46.576C102.992 46.4693 102.586 46.416 102.17 46.416C101.594 46.416 101.152 46.512 100.842 46.704C100.544 46.8853 100.394 47.136 100.394 47.456C100.394 47.6907 100.464 47.8933 100.602 48.064C100.741 48.224 100.97 48.384 101.29 48.544C101.621 48.6933 102.058 48.8747 102.602 49.088C103.146 49.2907 103.61 49.4987 103.994 49.712C104.378 49.9253 104.672 50.1867 104.874 50.496C105.077 50.7947 105.178 51.1733 105.178 51.632Z" fill="#284162"/>
<path d="M44 56H79.3984V57H44V56ZM84.5625 56H105.898V57H84.5625V56Z" fill="#284162"/>
<g clip-path="url(#clip0_60328_10703)">
<rect x="128" y="48" width="116" height="1" fill="#C54600"/>
<g clip-path="url(#clip1_60328_10703)">
<rect x="174" y="36" width="24" height="24" rx="12" fill="#C54600"/>
<path d="M187.183 43.2727V52H186.126V44.3807H186.075L183.944 45.7955V44.7216L186.126 43.2727H187.183Z" fill="white"/>
</g>
</g>
<path d="M280.302 55H277.62V42.148H284.982V44.38H280.302V47.692H284.658V49.924H280.302V55ZM291.243 42.148C292.995 42.148 294.285 42.466 295.113 43.102C295.953 43.738 296.373 44.704 296.373 46C296.373 46.588 296.259 47.104 296.031 47.548C295.815 47.98 295.521 48.352 295.149 48.664C294.789 48.964 294.399 49.21 293.979 49.402L297.759 55H294.735L291.675 50.068H290.217V55H287.499V42.148H291.243ZM291.045 44.38H290.217V47.854H291.099C291.999 47.854 292.641 47.704 293.025 47.404C293.421 47.104 293.619 46.66 293.619 46.072C293.619 45.46 293.409 45.028 292.989 44.776C292.581 44.512 291.933 44.38 291.045 44.38Z" fill="#284162"/>
<path d="M276 57H297.759V58.5H276V57Z" fill="#284162"/>
<defs>
<clipPath id="clip0_60328_10703">
<rect width="116" height="24" fill="white" transform="translate(128 36)"/>
</clipPath>
<clipPath id="clip1_60328_10703">
<rect x="174" y="36" width="24" height="24" rx="12" fill="white"/>
</clipPath>
</defs>
</svg>
