<svg width="506" height="137" viewBox="0 0 506 137" fill="none" xmlns="http://www.w3.org/2000/svg">
<path d="M404.085 42H449.085C450.742 42 452.085 43.3431 452.085 45V87C452.085 88.6569 450.742 90 449.085 90H404.085V42Z" fill="#26374A"/>
<path d="M437.616 73.8438C438.202 74.4688 438.202 75.4453 437.616 76.0703C436.991 76.6562 436.015 76.6562 435.39 76.0703L430.741 71.3828C429.14 72.4375 427.187 72.9844 425.077 72.7109C421.484 72.2031 418.593 69.2734 418.124 65.7188C417.46 60.4062 421.952 55.9141 427.265 56.5781C430.82 57.0469 433.749 59.9375 434.257 63.5312C434.531 65.6406 433.984 67.5938 432.929 69.1562L437.616 73.8438ZM421.171 64.625C421.171 67.3984 423.398 69.625 426.171 69.625C428.906 69.625 431.171 67.3984 431.171 64.625C431.171 61.8906 428.906 59.625 426.171 59.625C423.398 59.625 421.171 61.8906 421.171 64.625Z" fill="white"/>
<path d="M51.0852 43H403.085V89H51.0852C49.9806 89 49.0852 88.1046 49.0852 87V45C49.0852 43.8954 49.9806 43 51.0852 43Z" fill="white"/>
<path d="M70.1252 70.18C70.1252 71.4467 69.6652 72.4333 68.7452 73.14C67.8252 73.8467 66.5852 74.2 65.0252 74.2C64.2252 74.2 63.4852 74.14 62.8052 74.02C62.1252 73.9 61.5585 73.7333 61.1052 73.52V71.8C61.5852 72.0133 62.1785 72.2067 62.8852 72.38C63.6052 72.5533 64.3452 72.64 65.1052 72.64C66.1719 72.64 66.9719 72.4333 67.5052 72.02C68.0519 71.6067 68.3252 71.0467 68.3252 70.34C68.3252 69.8733 68.2252 69.48 68.0252 69.16C67.8252 68.84 67.4785 68.5467 66.9852 68.28C66.5052 68 65.8319 67.7067 64.9652 67.4C63.7519 66.96 62.8319 66.42 62.2052 65.78C61.5919 65.14 61.2852 64.2667 61.2852 63.16C61.2852 62.4 61.4785 61.7533 61.8652 61.22C62.2519 60.6733 62.7852 60.2533 63.4652 59.96C64.1585 59.6667 64.9519 59.52 65.8452 59.52C66.6319 59.52 67.3519 59.5933 68.0052 59.74C68.6585 59.8867 69.2519 60.08 69.7852 60.32L69.2252 61.86C68.7319 61.6467 68.1919 61.4667 67.6052 61.32C67.0319 61.1733 66.4319 61.1 65.8052 61.1C64.9119 61.1 64.2385 61.2933 63.7852 61.68C63.3319 62.0533 63.1052 62.5533 63.1052 63.18C63.1052 63.66 63.2052 64.06 63.4052 64.38C63.6052 64.7 63.9319 64.9867 64.3852 65.24C64.8385 65.4933 65.4519 65.7667 66.2252 66.06C67.0652 66.3667 67.7719 66.7 68.3452 67.06C68.9319 67.4067 69.3719 67.8267 69.6652 68.32C69.9719 68.8133 70.1252 69.4333 70.1252 70.18ZM76.9018 63.08C77.8218 63.08 78.6084 63.28 79.2618 63.68C79.9284 64.08 80.4351 64.6467 80.7818 65.38C81.1418 66.1 81.3218 66.9467 81.3218 67.92V68.98H73.9818C74.0084 70.1933 74.3151 71.12 74.9018 71.76C75.5018 72.3867 76.3351 72.7 77.4018 72.7C78.0818 72.7 78.6818 72.64 79.2018 72.52C79.7351 72.3867 80.2818 72.2 80.8418 71.96V73.5C80.2951 73.74 79.7551 73.9133 79.2218 74.02C78.6884 74.14 78.0551 74.2 77.3218 74.2C76.3084 74.2 75.4084 73.9933 74.6218 73.58C73.8484 73.1667 73.2418 72.5533 72.8018 71.74C72.3751 70.9133 72.1618 69.9067 72.1618 68.72C72.1618 67.5467 72.3551 66.54 72.7418 65.7C73.1418 64.86 73.6951 64.2133 74.4018 63.76C75.1218 63.3067 75.9551 63.08 76.9018 63.08ZM76.8818 64.52C76.0418 64.52 75.3751 64.7933 74.8818 65.34C74.4018 65.8733 74.1151 66.62 74.0218 67.58H79.4818C79.4684 66.6733 79.2551 65.94 78.8418 65.38C78.4284 64.8067 77.7751 64.52 76.8818 64.52ZM88.1108 63.1C89.4175 63.1 90.3842 63.3867 91.0108 63.96C91.6375 64.5333 91.9508 65.4467 91.9508 66.7V74H90.6708L90.3308 72.48H90.2508C89.7842 73.0667 89.2908 73.5 88.7708 73.78C88.2642 74.06 87.5575 74.2 86.6508 74.2C85.6775 74.2 84.8708 73.9467 84.2308 73.44C83.5908 72.92 83.2708 72.1133 83.2708 71.02C83.2708 69.9533 83.6908 69.1333 84.5308 68.56C85.3708 67.9733 86.6642 67.6533 88.4108 67.6L90.2308 67.54V66.9C90.2308 66.0067 90.0375 65.3867 89.6508 65.04C89.2642 64.6933 88.7175 64.52 88.0108 64.52C87.4508 64.52 86.9175 64.6067 86.4108 64.78C85.9042 64.94 85.4308 65.1267 84.9908 65.34L84.4508 64.02C84.9175 63.7667 85.4708 63.5533 86.1108 63.38C86.7508 63.1933 87.4175 63.1 88.1108 63.1ZM88.6308 68.82C87.2975 68.8733 86.3708 69.0867 85.8508 69.46C85.3442 69.8333 85.0908 70.36 85.0908 71.04C85.0908 71.64 85.2708 72.08 85.6308 72.36C86.0042 72.64 86.4775 72.78 87.0508 72.78C87.9575 72.78 88.7108 72.5333 89.3108 72.04C89.9108 71.5333 90.2108 70.76 90.2108 69.72V68.76L88.6308 68.82ZM100.262 63.08C100.462 63.08 100.675 63.0933 100.902 63.12C101.142 63.1333 101.348 63.16 101.522 63.2L101.302 64.82C101.128 64.78 100.935 64.7467 100.722 64.72C100.522 64.6933 100.328 64.68 100.142 64.68C99.5951 64.68 99.0818 64.8333 98.6018 65.14C98.1218 65.4333 97.7351 65.8533 97.4418 66.4C97.1618 66.9333 97.0218 67.56 97.0218 68.28V74H95.2618V63.28H96.7018L96.9018 65.24H96.9818C97.3284 64.6533 97.7751 64.1467 98.3218 63.72C98.8684 63.2933 99.5151 63.08 100.262 63.08ZM107.433 74.2C106.486 74.2 105.64 74.0067 104.893 73.62C104.16 73.2333 103.58 72.6333 103.153 71.82C102.74 71.0067 102.533 69.9667 102.533 68.7C102.533 67.38 102.753 66.3067 103.193 65.48C103.633 64.6533 104.226 64.0467 104.973 63.66C105.733 63.2733 106.593 63.08 107.553 63.08C108.1 63.08 108.626 63.14 109.133 63.26C109.64 63.3667 110.053 63.5 110.373 63.66L109.833 65.12C109.513 65 109.14 64.8867 108.713 64.78C108.286 64.6733 107.886 64.62 107.513 64.62C105.406 64.62 104.353 65.9733 104.353 68.68C104.353 69.9733 104.606 70.9667 105.113 71.66C105.633 72.34 106.4 72.68 107.413 72.68C108 72.68 108.513 72.62 108.953 72.5C109.406 72.38 109.82 72.2333 110.193 72.06V73.62C109.833 73.8067 109.433 73.9467 108.993 74.04C108.566 74.1467 108.046 74.2 107.433 74.2ZM114.502 63.26C114.502 63.7933 114.469 64.2933 114.402 64.76H114.522C114.869 64.2133 115.336 63.8 115.922 63.52C116.522 63.24 117.169 63.1 117.862 63.1C119.169 63.1 120.149 63.4133 120.802 64.04C121.456 64.6533 121.782 65.6467 121.782 67.02V74H120.042V67.14C120.042 65.42 119.242 64.56 117.642 64.56C116.442 64.56 115.616 64.9 115.162 65.58C114.722 66.2467 114.502 67.2067 114.502 68.46V74H112.742V58.8H114.502V63.26ZM136.661 61.1C135.127 61.1 133.921 61.6133 133.041 62.64C132.161 63.6667 131.721 65.0733 131.721 66.86C131.721 68.6333 132.127 70.04 132.941 71.08C133.767 72.1067 135.001 72.62 136.641 72.62C137.267 72.62 137.861 72.5667 138.421 72.46C138.981 72.3533 139.527 72.22 140.061 72.06V73.62C139.527 73.82 138.974 73.9667 138.401 74.06C137.841 74.1533 137.167 74.2 136.381 74.2C134.927 74.2 133.714 73.9 132.741 73.3C131.767 72.7 131.034 71.8467 130.541 70.74C130.061 69.6333 129.821 68.3333 129.821 66.84C129.821 65.4 130.081 64.1333 130.601 63.04C131.134 61.9333 131.914 61.0733 132.941 60.46C133.967 59.8333 135.214 59.52 136.681 59.52C138.187 59.52 139.501 59.8 140.621 60.36L139.901 61.88C139.461 61.68 138.967 61.5 138.421 61.34C137.887 61.18 137.301 61.1 136.661 61.1ZM146.998 63.1C148.304 63.1 149.271 63.3867 149.898 63.96C150.524 64.5333 150.838 65.4467 150.838 66.7V74H149.558L149.218 72.48H149.138C148.671 73.0667 148.178 73.5 147.658 73.78C147.151 74.06 146.444 74.2 145.538 74.2C144.564 74.2 143.758 73.9467 143.118 73.44C142.478 72.92 142.158 72.1133 142.158 71.02C142.158 69.9533 142.578 69.1333 143.418 68.56C144.258 67.9733 145.551 67.6533 147.298 67.6L149.118 67.54V66.9C149.118 66.0067 148.924 65.3867 148.538 65.04C148.151 64.6933 147.604 64.52 146.898 64.52C146.338 64.52 145.804 64.6067 145.298 64.78C144.791 64.94 144.318 65.1267 143.878 65.34L143.338 64.02C143.804 63.7667 144.358 63.5533 144.998 63.38C145.638 63.1933 146.304 63.1 146.998 63.1ZM147.518 68.82C146.184 68.8733 145.258 69.0867 144.738 69.46C144.231 69.8333 143.978 70.36 143.978 71.04C143.978 71.64 144.158 72.08 144.518 72.36C144.891 72.64 145.364 72.78 145.938 72.78C146.844 72.78 147.598 72.5333 148.198 72.04C148.798 71.5333 149.098 70.76 149.098 69.72V68.76L147.518 68.82ZM159.308 63.08C160.588 63.08 161.555 63.3933 162.208 64.02C162.862 64.6333 163.188 65.6333 163.188 67.02V74H161.448V67.14C161.448 65.42 160.648 64.56 159.048 64.56C157.862 64.56 157.042 64.8933 156.588 65.56C156.135 66.2267 155.908 67.1867 155.908 68.44V74H154.148V63.28H155.568L155.828 64.74H155.928C156.275 64.18 156.755 63.7667 157.368 63.5C157.982 63.22 158.628 63.08 159.308 63.08ZM170.572 63.1C171.878 63.1 172.845 63.3867 173.472 63.96C174.098 64.5333 174.412 65.4467 174.412 66.7V74H173.132L172.792 72.48H172.712C172.245 73.0667 171.752 73.5 171.232 73.78C170.725 74.06 170.018 74.2 169.112 74.2C168.138 74.2 167.332 73.9467 166.692 73.44C166.052 72.92 165.732 72.1133 165.732 71.02C165.732 69.9533 166.152 69.1333 166.992 68.56C167.832 67.9733 169.125 67.6533 170.872 67.6L172.692 67.54V66.9C172.692 66.0067 172.498 65.3867 172.112 65.04C171.725 64.6933 171.178 64.52 170.472 64.52C169.912 64.52 169.378 64.6067 168.872 64.78C168.365 64.94 167.892 65.1267 167.452 65.34L166.912 64.02C167.378 63.7667 167.932 63.5533 168.572 63.38C169.212 63.1933 169.878 63.1 170.572 63.1ZM171.092 68.82C169.758 68.8733 168.832 69.0867 168.312 69.46C167.805 69.8333 167.552 70.36 167.552 71.04C167.552 71.64 167.732 72.08 168.092 72.36C168.465 72.64 168.938 72.78 169.512 72.78C170.418 72.78 171.172 72.5333 171.772 72.04C172.372 71.5333 172.672 70.76 172.672 69.72V68.76L171.092 68.82ZM181.523 74.2C180.189 74.2 179.123 73.74 178.323 72.82C177.523 71.8867 177.123 70.5 177.123 68.66C177.123 66.82 177.523 65.4333 178.323 64.5C179.136 63.5533 180.209 63.08 181.543 63.08C182.369 63.08 183.043 63.2333 183.563 63.54C184.096 63.8467 184.529 64.22 184.863 64.66H184.983C184.969 64.4867 184.943 64.2333 184.903 63.9C184.876 63.5533 184.863 63.28 184.863 63.08V58.8H186.623V74H185.203L184.943 72.56H184.863C184.543 73.0133 184.116 73.4 183.583 73.72C183.049 74.04 182.363 74.2 181.523 74.2ZM181.803 72.74C182.936 72.74 183.729 72.4333 184.183 71.82C184.649 71.1933 184.883 70.2533 184.883 69V68.68C184.883 67.3467 184.663 66.3267 184.223 65.62C183.783 64.9 182.969 64.54 181.783 64.54C180.836 64.54 180.123 64.92 179.643 65.68C179.176 66.4267 178.943 67.4333 178.943 68.7C178.943 69.98 179.176 70.9733 179.643 71.68C180.123 72.3867 180.843 72.74 181.803 72.74ZM194.087 63.1C195.394 63.1 196.361 63.3867 196.987 63.96C197.614 64.5333 197.927 65.4467 197.927 66.7V74H196.647L196.307 72.48H196.227C195.761 73.0667 195.267 73.5 194.747 73.78C194.241 74.06 193.534 74.2 192.627 74.2C191.654 74.2 190.847 73.9467 190.207 73.44C189.567 72.92 189.247 72.1133 189.247 71.02C189.247 69.9533 189.667 69.1333 190.507 68.56C191.347 67.9733 192.641 67.6533 194.387 67.6L196.207 67.54V66.9C196.207 66.0067 196.014 65.3867 195.627 65.04C195.241 64.6933 194.694 64.52 193.987 64.52C193.427 64.52 192.894 64.6067 192.387 64.78C191.881 64.94 191.407 65.1267 190.967 65.34L190.427 64.02C190.894 63.7667 191.447 63.5533 192.087 63.38C192.727 63.1933 193.394 63.1 194.087 63.1ZM194.607 68.82C193.274 68.8733 192.347 69.0867 191.827 69.46C191.321 69.8333 191.067 70.36 191.067 71.04C191.067 71.64 191.247 72.08 191.607 72.36C191.981 72.64 192.454 72.78 193.027 72.78C193.934 72.78 194.687 72.5333 195.287 72.04C195.887 71.5333 196.187 70.76 196.187 69.72V68.76L194.607 68.82ZM200.978 72.92C200.978 72.4267 201.098 72.08 201.338 71.88C201.578 71.68 201.865 71.58 202.198 71.58C202.545 71.58 202.838 71.68 203.078 71.88C203.332 72.08 203.458 72.4267 203.458 72.92C203.458 73.4 203.332 73.7467 203.078 73.96C202.838 74.1733 202.545 74.28 202.198 74.28C201.865 74.28 201.578 74.1733 201.338 73.96C201.098 73.7467 200.978 73.4 200.978 72.92ZM210.89 74.2C209.943 74.2 209.097 74.0067 208.35 73.62C207.617 73.2333 207.037 72.6333 206.61 71.82C206.197 71.0067 205.99 69.9667 205.99 68.7C205.99 67.38 206.21 66.3067 206.65 65.48C207.09 64.6533 207.683 64.0467 208.43 63.66C209.19 63.2733 210.05 63.08 211.01 63.08C211.557 63.08 212.083 63.14 212.59 63.26C213.097 63.3667 213.51 63.5 213.83 63.66L213.29 65.12C212.97 65 212.597 64.8867 212.17 64.78C211.743 64.6733 211.343 64.62 210.97 64.62C208.863 64.62 207.81 65.9733 207.81 68.68C207.81 69.9733 208.063 70.9667 208.57 71.66C209.09 72.34 209.857 72.68 210.87 72.68C211.457 72.68 211.97 72.62 212.41 72.5C212.863 72.38 213.277 72.2333 213.65 72.06V73.62C213.29 73.8067 212.89 73.9467 212.45 74.04C212.023 74.1467 211.503 74.2 210.89 74.2ZM220.259 63.1C221.566 63.1 222.533 63.3867 223.159 63.96C223.786 64.5333 224.099 65.4467 224.099 66.7V74H222.819L222.479 72.48H222.399C221.933 73.0667 221.439 73.5 220.919 73.78C220.413 74.06 219.706 74.2 218.799 74.2C217.826 74.2 217.019 73.9467 216.379 73.44C215.739 72.92 215.419 72.1133 215.419 71.02C215.419 69.9533 215.839 69.1333 216.679 68.56C217.519 67.9733 218.813 67.6533 220.559 67.6L222.379 67.54V66.9C222.379 66.0067 222.186 65.3867 221.799 65.04C221.413 64.6933 220.866 64.52 220.159 64.52C219.599 64.52 219.066 64.6067 218.559 64.78C218.053 64.94 217.579 65.1267 217.139 65.34L216.599 64.02C217.066 63.7667 217.619 63.5533 218.259 63.38C218.899 63.1933 219.566 63.1 220.259 63.1ZM220.779 68.82C219.446 68.8733 218.519 69.0867 217.999 69.46C217.493 69.8333 217.239 70.36 217.239 71.04C217.239 71.64 217.419 72.08 217.779 72.36C218.153 72.64 218.626 72.78 219.199 72.78C220.106 72.78 220.859 72.5333 221.459 72.04C222.059 71.5333 222.359 70.76 222.359 69.72V68.76L220.779 68.82Z" fill="#43474E"/>
<path d="M51.0852 43H403.085V89H51.0852C49.9806 89 49.0852 88.1046 49.0852 87V45C49.0852 43.8954 49.9806 43 51.0852 43Z" stroke="#333333" stroke-width="2"/>
<g clip-path="url(#clip0_7382_2766)">
<rect x="438.867" y="66" width="67" height="1" fill="#C54600"/>
<g clip-path="url(#clip1_7382_2766)">
<rect x="481.867" y="54" width="24" height="24" rx="12" fill="#C54600"/>
<path d="M490.717 68.2102V67.3409L494.552 61.2727H495.182V62.6193H494.756L491.859 67.2045V67.2727H497.023V68.2102H490.717ZM494.825 70V67.946V67.5412V61.2727H495.83V70H494.825Z" fill="white"/>
</g>
</g>
<g clip-path="url(#clip2_7382_2766)">
<rect x="428.824" y="90" width="1" height="47" fill="#C54600"/>
<g clip-path="url(#clip3_7382_2766)">
<rect x="416.824" y="113" width="24" height="24" rx="12" fill="#C54600"/>
<path d="M428.856 129.119C428.293 129.119 427.792 129.023 427.351 128.83C426.914 128.636 426.566 128.368 426.307 128.024C426.052 127.678 425.913 127.276 425.89 126.818H426.964C426.986 127.099 427.083 127.342 427.253 127.547C427.424 127.749 427.647 127.905 427.922 128.016C428.198 128.126 428.503 128.182 428.839 128.182C429.214 128.182 429.546 128.116 429.836 127.986C430.126 127.855 430.353 127.673 430.518 127.44C430.682 127.207 430.765 126.938 430.765 126.631C430.765 126.31 430.685 126.027 430.526 125.783C430.367 125.536 430.134 125.342 429.827 125.203C429.52 125.064 429.145 124.994 428.702 124.994H428.003V124.057H428.702C429.049 124.057 429.353 123.994 429.614 123.869C429.878 123.744 430.084 123.568 430.232 123.341C430.383 123.114 430.458 122.847 430.458 122.54C430.458 122.244 430.393 121.987 430.262 121.768C430.131 121.55 429.947 121.379 429.708 121.257C429.472 121.135 429.194 121.074 428.873 121.074C428.572 121.074 428.288 121.129 428.02 121.24C427.756 121.348 427.54 121.506 427.373 121.713C427.205 121.918 427.114 122.165 427.1 122.455H426.077C426.094 121.997 426.232 121.597 426.491 121.253C426.749 120.906 427.087 120.636 427.505 120.443C427.925 120.25 428.387 120.153 428.89 120.153C429.43 120.153 429.893 120.263 430.279 120.482C430.665 120.697 430.962 120.983 431.17 121.338C431.377 121.693 431.481 122.077 431.481 122.489C431.481 122.98 431.351 123.399 431.093 123.746C430.837 124.092 430.489 124.332 430.049 124.466V124.534C430.6 124.625 431.03 124.859 431.34 125.237C431.65 125.612 431.805 126.077 431.805 126.631C431.805 127.105 431.675 127.531 431.417 127.909C431.161 128.284 430.812 128.58 430.368 128.795C429.925 129.011 429.421 129.119 428.856 129.119Z" fill="white"/>
</g>
</g>
<g clip-path="url(#clip4_7382_2766)">
<rect x="174.321" width="1" height="54" fill="#C54600"/>
<g clip-path="url(#clip5_7382_2766)">
<rect x="162.321" width="24" height="24" rx="12" fill="#C54600"/>
<path d="M171.591 16V15.233L174.472 12.0795C174.81 11.7102 175.089 11.3892 175.307 11.1165C175.526 10.8409 175.688 10.5824 175.793 10.3409C175.901 10.0966 175.955 9.84091 175.955 9.57386C175.955 9.26705 175.881 9.00142 175.733 8.77699C175.589 8.55256 175.39 8.37926 175.137 8.2571C174.884 8.13494 174.6 8.07386 174.285 8.07386C173.949 8.07386 173.657 8.14347 173.407 8.28267C173.16 8.41903 172.968 8.6108 172.831 8.85795C172.698 9.10511 172.631 9.39489 172.631 9.72727H171.625C171.625 9.21591 171.743 8.76705 171.979 8.38068C172.215 7.99432 172.536 7.69318 172.942 7.47727C173.351 7.26136 173.81 7.15341 174.319 7.15341C174.83 7.15341 175.283 7.26136 175.678 7.47727C176.073 7.69318 176.383 7.98437 176.607 8.35085C176.831 8.71733 176.944 9.125 176.944 9.57386C176.944 9.89489 176.885 10.2088 176.769 10.5156C176.655 10.8196 176.456 11.1591 176.172 11.5341C175.891 11.9062 175.5 12.3608 175 12.8977L173.04 14.9943V15.0625H177.097V16H171.591Z" fill="white"/>
</g>
</g>
<rect y="66" width="48" height="1" fill="#C54600"/>
<g clip-path="url(#clip6_7382_2766)">
<rect y="54" width="24" height="24" rx="12" fill="#C54600"/>
<path d="M13.1825 61.2727V70H12.1257V62.3807H12.0746L9.94389 63.7955V62.7216L12.1257 61.2727H13.1825Z" fill="white"/>
</g>
<defs>
<clipPath id="clip0_7382_2766">
<rect width="67.1327" height="24" fill="white" transform="translate(438.867 54)"/>
</clipPath>
<clipPath id="clip1_7382_2766">
<rect x="481.867" y="54" width="24" height="24" rx="12" fill="white"/>
</clipPath>
<clipPath id="clip2_7382_2766">
<rect width="24.0475" height="47" fill="white" transform="translate(416.824 90)"/>
</clipPath>
<clipPath id="clip3_7382_2766">
<rect x="416.824" y="113" width="24" height="24" rx="12" fill="white"/>
</clipPath>
<clipPath id="clip4_7382_2766">
<rect width="24.0475" height="54" fill="white" transform="translate(162.321)"/>
</clipPath>
<clipPath id="clip5_7382_2766">
<rect x="162.321" width="24" height="24" rx="12" fill="white"/>
</clipPath>
<clipPath id="clip6_7382_2766">
<rect y="54" width="24" height="24" rx="12" fill="white"/>
</clipPath>
</defs>
</svg>
