<svg width="148" height="137" viewBox="0 0 148 137" fill="none" xmlns="http://www.w3.org/2000/svg">
<path d="M54.24 61.06C54.1667 61.18 54.09 61.27 54.01 61.33C53.93 61.3833 53.83 61.41 53.71 61.41C53.5833 61.41 53.44 61.3567 53.28 61.25C53.1267 61.1433 52.9333 61.0267 52.7 60.9C52.4733 60.7667 52.2033 60.6467 51.89 60.54C51.5767 60.4267 51.2033 60.37 50.77 60.37C50.37 60.37 50.0167 60.42 49.71 60.52C49.41 60.62 49.1567 60.76 48.95 60.94C48.7433 61.12 48.5867 61.3333 48.48 61.58C48.38 61.82 48.33 62.0833 48.33 62.37C48.33 62.7367 48.4267 63.0433 48.62 63.29C48.8133 63.53 49.0667 63.7367 49.38 63.91C49.7 64.0833 50.0633 64.2367 50.47 64.37C50.8767 64.4967 51.29 64.6333 51.71 64.78C52.1367 64.9267 52.5533 65.0933 52.96 65.28C53.3667 65.4667 53.7267 65.7033 54.04 65.99C54.36 66.2767 54.6167 66.6267 54.81 67.04C55.0033 67.4533 55.1 67.9567 55.1 68.55C55.1 69.19 54.99 69.79 54.77 70.35C54.55 70.91 54.23 71.4 53.81 71.82C53.3967 72.2333 52.8833 72.56 52.27 72.8C51.6633 73.04 50.97 73.16 50.19 73.16C49.73 73.16 49.28 73.1133 48.84 73.02C48.4067 72.9333 47.99 72.81 47.59 72.65C47.1967 72.4833 46.8267 72.2833 46.48 72.05C46.1333 71.8167 45.8233 71.5567 45.55 71.27L46.23 70.15C46.29 70.0567 46.3667 69.9833 46.46 69.93C46.5533 69.8767 46.6567 69.85 46.77 69.85C46.9233 69.85 47.0933 69.9233 47.28 70.07C47.4667 70.21 47.69 70.3667 47.95 70.54C48.2167 70.7067 48.5367 70.8633 48.91 71.01C49.2833 71.15 49.73 71.22 50.25 71.22C51.0967 71.22 51.75 71.0133 52.21 70.6C52.6767 70.1867 52.91 69.6167 52.91 68.89C52.91 68.4833 52.8133 68.1533 52.62 67.9C52.4267 67.64 52.17 67.4233 51.85 67.25C51.5367 67.0767 51.1767 66.93 50.77 66.81C50.3633 66.69 49.95 66.5633 49.53 66.43C49.11 66.29 48.6967 66.13 48.29 65.95C47.8833 65.7633 47.52 65.5233 47.2 65.23C46.8867 64.93 46.6333 64.5633 46.44 64.13C46.2467 63.69 46.15 63.1433 46.15 62.49C46.15 61.97 46.25 61.4667 46.45 60.98C46.6567 60.4933 46.9533 60.0633 47.34 59.69C47.7333 59.31 48.2167 59.0067 48.79 58.78C49.3633 58.5533 50.0167 58.44 50.75 58.44C51.5767 58.44 52.3333 58.57 53.02 58.83C53.7133 59.09 54.31 59.46 54.81 59.94L54.24 61.06ZM60.0488 73.16C59.2021 73.16 58.5488 72.9233 58.0888 72.45C57.6354 71.97 57.4088 71.2967 57.4088 70.43V64.49H56.2888C56.1688 64.49 56.0654 64.4533 55.9788 64.38C55.8921 64.3 55.8488 64.1833 55.8488 64.03V63.16L57.4988 62.92L57.9688 59.97C58.0021 59.8567 58.0588 59.7667 58.1388 59.7C58.2188 59.6267 58.3254 59.59 58.4588 59.59H59.5588V62.94H62.3888V64.49H59.5588V70.28C59.5588 70.6467 59.6488 70.9267 59.8288 71.12C60.0088 71.3133 60.2488 71.41 60.5488 71.41C60.7154 71.41 60.8588 71.39 60.9787 71.35C61.0988 71.3033 61.2021 71.2567 61.2888 71.21C61.3754 71.1567 61.4488 71.11 61.5088 71.07C61.5754 71.0233 61.6388 71 61.6988 71C61.8188 71 61.9154 71.0667 61.9888 71.2L62.6288 72.25C62.2954 72.5433 61.9021 72.77 61.4488 72.93C60.9954 73.0833 60.5288 73.16 60.0488 73.16ZM70.6953 66.75C70.6953 66.39 70.642 66.0567 70.5353 65.75C70.4353 65.4367 70.2853 65.1667 70.0853 64.94C69.8853 64.7067 69.6353 64.5267 69.3353 64.4C69.042 64.2667 68.702 64.2 68.3153 64.2C67.5353 64.2 66.922 64.4233 66.4753 64.87C66.0286 65.3167 65.7453 65.9433 65.6253 66.75H70.6953ZM65.5653 68.07C65.592 68.65 65.682 69.1533 65.8353 69.58C65.9886 70 66.192 70.35 66.4453 70.63C66.7053 70.91 67.012 71.12 67.3653 71.26C67.7253 71.3933 68.1253 71.46 68.5653 71.46C68.9853 71.46 69.3486 71.4133 69.6553 71.32C69.962 71.22 70.2286 71.1133 70.4553 71C70.682 70.88 70.8753 70.7733 71.0353 70.68C71.1953 70.58 71.342 70.53 71.4753 70.53C71.6486 70.53 71.782 70.5967 71.8753 70.73L72.4853 71.52C72.232 71.82 71.9453 72.0733 71.6253 72.28C71.3053 72.4867 70.9653 72.6567 70.6053 72.79C70.2453 72.9167 69.8753 73.0067 69.4953 73.06C69.1153 73.12 68.7453 73.15 68.3853 73.15C67.6786 73.15 67.022 73.0333 66.4153 72.8C65.8153 72.56 65.292 72.21 64.8453 71.75C64.4053 71.29 64.0586 70.72 63.8053 70.04C63.5586 69.36 63.4353 68.5767 63.4353 67.69C63.4353 66.9833 63.5453 66.3233 63.7653 65.71C63.992 65.0967 64.312 64.5633 64.7253 64.11C65.1453 63.6567 65.652 63.3 66.2453 63.04C66.8453 62.7733 67.522 62.64 68.2753 62.64C68.902 62.64 69.482 62.7433 70.0153 62.95C70.5486 63.15 71.0086 63.4467 71.3953 63.84C71.782 64.2333 72.082 64.7167 72.2953 65.29C72.5153 65.8567 72.6253 66.5033 72.6253 67.23C72.6253 67.5633 72.5886 67.7867 72.5153 67.9C72.442 68.0133 72.3086 68.07 72.1153 68.07H65.5653ZM76.7803 70.44C77.0803 70.8267 77.407 71.1 77.7603 71.26C78.1203 71.4133 78.517 71.49 78.9503 71.49C79.7903 71.49 80.4436 71.1833 80.9103 70.57C81.3836 69.9567 81.6203 69.0433 81.6203 67.83C81.6203 67.2033 81.567 66.67 81.4603 66.23C81.3536 65.7833 81.2003 65.42 81.0003 65.14C80.8003 64.86 80.557 64.6567 80.2703 64.53C79.9836 64.4033 79.6603 64.34 79.3003 64.34C78.7536 64.34 78.2803 64.46 77.8803 64.7C77.487 64.9333 77.1203 65.27 76.7803 65.71V70.44ZM76.6703 64.28C77.097 63.78 77.5803 63.3767 78.1203 63.07C78.667 62.7633 79.3003 62.61 80.0203 62.61C80.5936 62.61 81.1136 62.7267 81.5803 62.96C82.047 63.1867 82.447 63.52 82.7803 63.96C83.1136 64.4 83.3703 64.9467 83.5503 65.6C83.737 66.2467 83.8303 66.99 83.8303 67.83C83.8303 68.5833 83.727 69.2867 83.5203 69.94C83.3203 70.5867 83.0303 71.15 82.6503 71.63C82.2703 72.1033 81.8103 72.4767 81.2703 72.75C80.7303 73.0167 80.1203 73.15 79.4403 73.15C78.8403 73.15 78.3303 73.0533 77.9103 72.86C77.497 72.6667 77.1203 72.4 76.7803 72.06V76.39H74.6303V62.8H75.9303C76.2236 62.8 76.4103 62.9367 76.4903 63.21L76.6703 64.28ZM99.8598 71.37V73H92.0098V71.37H95.0098V62.35C95.0098 62.03 95.0198 61.7033 95.0398 61.37L92.7298 63.32C92.6298 63.4 92.5265 63.4533 92.4198 63.48C92.3198 63.5 92.2232 63.5 92.1298 63.48C92.0432 63.46 91.9632 63.43 91.8898 63.39C91.8232 63.3433 91.7698 63.2933 91.7298 63.24L91.0598 62.3L95.3998 58.57H97.1498V71.37H99.8598ZM111.892 62.64C112.645 62.64 113.325 62.7633 113.932 63.01C114.545 63.2567 115.065 63.6067 115.492 64.06C115.925 64.5133 116.259 65.0633 116.492 65.71C116.725 66.3567 116.842 67.0833 116.842 67.89C116.842 68.6967 116.725 69.4233 116.492 70.07C116.259 70.7167 115.925 71.27 115.492 71.73C115.065 72.1833 114.545 72.5333 113.932 72.78C113.325 73.0267 112.645 73.15 111.892 73.15C111.132 73.15 110.445 73.0267 109.832 72.78C109.225 72.5333 108.705 72.1833 108.272 71.73C107.839 71.27 107.505 70.7167 107.272 70.07C107.039 69.4233 106.922 68.6967 106.922 67.89C106.922 67.0833 107.039 66.3567 107.272 65.71C107.505 65.0633 107.839 64.5133 108.272 64.06C108.705 63.6067 109.225 63.2567 109.832 63.01C110.445 62.7633 111.132 62.64 111.892 62.64ZM111.892 71.47C112.812 71.47 113.495 71.1633 113.942 70.55C114.395 69.93 114.622 69.0467 114.622 67.9C114.622 66.7533 114.395 65.87 113.942 65.25C113.495 64.6233 112.812 64.31 111.892 64.31C110.959 64.31 110.265 64.6233 109.812 65.25C109.359 65.87 109.132 66.7533 109.132 67.9C109.132 69.0467 109.359 69.93 109.812 70.55C110.265 71.1633 110.959 71.47 111.892 71.47ZM119.363 73V64.51L118.363 64.37C118.197 64.3367 118.06 64.2767 117.953 64.19C117.853 64.1033 117.803 63.98 117.803 63.82V62.94H119.363V62.08C119.363 61.5 119.447 60.98 119.613 60.52C119.787 60.06 120.03 59.67 120.343 59.35C120.663 59.03 121.05 58.7867 121.503 58.62C121.957 58.4467 122.467 58.36 123.033 58.36C123.267 58.36 123.487 58.3767 123.693 58.41C123.907 58.4433 124.113 58.4933 124.313 58.56L124.273 59.64C124.26 59.82 124.17 59.9267 124.003 59.96C123.843 59.9933 123.64 60.01 123.393 60.01C123.093 60.01 122.823 60.0467 122.583 60.12C122.343 60.1867 122.137 60.3033 121.963 60.47C121.797 60.6367 121.667 60.8567 121.573 61.13C121.487 61.4033 121.443 61.7433 121.443 62.15V62.94H124.233V64.49H121.513V73H119.363ZM136.273 67.68V62.42C136.273 62 136.303 61.54 136.363 61.04L131.523 67.68H136.273ZM140.132 67.68V68.92C140.132 69.04 140.093 69.1433 140.013 69.23C139.939 69.3167 139.826 69.36 139.673 69.36H138.143V73H136.273V69.36H130.043C129.889 69.36 129.756 69.3167 129.643 69.23C129.536 69.1367 129.466 69.0233 129.433 68.89L129.213 67.79L136.123 58.59H138.143V67.68H140.132Z" fill="#43474E"/>
<path d="M68.4354 103.497H59.191V129H54.8932V103.497H45.6082V99.8882H68.4354V103.497ZM75.7891 108.403V129H71.8359V108.403H75.7891ZM76.5392 102.037C76.5392 102.402 76.4649 102.753 76.3162 103.091C76.1675 103.416 75.9648 103.706 75.708 103.963C75.4647 104.206 75.1742 104.402 74.8363 104.551C74.4984 104.686 74.147 104.754 73.7821 104.754C73.4172 104.754 73.0725 104.686 72.7482 104.551C72.4238 104.402 72.1332 104.206 71.8764 103.963C71.6332 103.706 71.4372 103.416 71.2885 103.091C71.1534 102.753 71.0858 102.402 71.0858 102.037C71.0858 101.659 71.1534 101.307 71.2885 100.983C71.4372 100.645 71.6332 100.354 71.8764 100.111C72.1332 99.8544 72.4238 99.6584 72.7482 99.5233C73.0725 99.3746 73.4172 99.3003 73.7821 99.3003C74.147 99.3003 74.4984 99.3746 74.8363 99.5233C75.1742 99.6584 75.4647 99.8544 75.708 100.111C75.9648 100.354 76.1675 100.645 76.3162 100.983C76.4649 101.307 76.5392 101.659 76.5392 102.037ZM87.9595 129.324C86.2971 129.324 85.0131 128.858 84.1076 127.926C83.2156 126.993 82.7696 125.662 82.7696 123.932V111.606H80.3774C80.1477 111.606 79.9517 111.538 79.7895 111.403C79.6408 111.254 79.5665 111.038 79.5665 110.754V109.153L82.9115 108.687L83.8035 102.544C83.8576 102.314 83.959 102.138 84.1076 102.017C84.2698 101.882 84.4725 101.814 84.7158 101.814H86.7228V108.727H92.5614V111.606H86.7228V123.668C86.7228 124.479 86.9188 125.087 87.3107 125.493C87.7162 125.885 88.2298 126.081 88.8515 126.081C89.2164 126.081 89.5272 126.033 89.784 125.939C90.0543 125.844 90.2841 125.743 90.4733 125.635C90.6625 125.513 90.8247 125.405 90.9599 125.31C91.095 125.216 91.2166 125.168 91.3248 125.168C91.4599 125.168 91.5613 125.202 91.6289 125.27C91.7099 125.324 91.791 125.418 91.8721 125.554L93.048 127.459C92.3992 128.054 91.6289 128.513 90.7368 128.838C89.8448 129.162 88.919 129.324 87.9595 129.324ZM100.257 99.0772V129H96.2837V99.0772H100.257ZM119.547 116.411C119.547 115.627 119.432 114.904 119.202 114.241C118.986 113.579 118.662 113.005 118.229 112.518C117.797 112.032 117.27 111.653 116.648 111.383C116.026 111.113 115.31 110.977 114.499 110.977C112.837 110.977 111.526 111.457 110.566 112.417C109.62 113.376 109.019 114.708 108.762 116.411H119.547ZM122.811 126.06C122.325 126.628 121.764 127.121 121.128 127.54C120.493 127.946 119.817 128.277 119.101 128.534C118.385 128.791 117.641 128.98 116.871 129.101C116.114 129.223 115.364 129.284 114.621 129.284C113.202 129.284 111.884 129.047 110.668 128.574C109.465 128.088 108.417 127.385 107.525 126.466C106.647 125.533 105.958 124.385 105.457 123.02C104.971 121.641 104.728 120.06 104.728 118.276C104.728 116.843 104.951 115.512 105.397 114.282C105.843 113.038 106.478 111.957 107.302 111.038C108.14 110.119 109.161 109.396 110.364 108.869C111.566 108.342 112.918 108.078 114.418 108.078C115.675 108.078 116.831 108.288 117.885 108.707C118.952 109.112 119.871 109.707 120.642 110.491C121.412 111.275 122.014 112.241 122.446 113.39C122.892 114.539 123.115 115.85 123.115 117.323C123.115 117.931 123.048 118.343 122.912 118.559C122.777 118.762 122.527 118.864 122.162 118.864H108.661C108.701 120.093 108.877 121.168 109.188 122.087C109.499 122.992 109.924 123.749 110.465 124.358C111.019 124.966 111.674 125.418 112.431 125.716C113.188 126.013 114.033 126.162 114.965 126.162C115.844 126.162 116.601 126.06 117.236 125.858C117.885 125.655 118.439 125.439 118.898 125.209C119.371 124.966 119.763 124.743 120.074 124.54C120.399 124.337 120.682 124.236 120.926 124.236C121.25 124.236 121.5 124.358 121.676 124.601L122.811 126.06Z" fill="#333333"/>
<g clip-path="url(#clip0_6976_17923)">
<rect y="115" width="42" height="1" fill="#C54600"/>
<g clip-path="url(#clip1_6976_17923)">
<rect y="103" width="24" height="24" rx="12" fill="#C54600"/>
<path d="M11.9745 120.139C11.2321 120.139 10.5709 120.012 9.99086 119.756C9.41415 119.498 8.95842 119.143 8.62367 118.692C8.29223 118.238 8.12154 117.715 8.11159 117.121H10.2792C10.2925 117.37 10.3737 117.589 10.5228 117.778C10.6753 117.963 10.8775 118.107 11.1294 118.21C11.3812 118.313 11.6646 118.364 11.9795 118.364C12.3076 118.364 12.5976 118.306 12.8495 118.19C13.1014 118.074 13.2986 117.914 13.4411 117.708C13.5837 117.503 13.6549 117.266 13.6549 116.997C13.6549 116.725 13.5787 116.485 13.4262 116.276C13.2771 116.064 13.0616 115.898 12.7799 115.779C12.5015 115.66 12.1701 115.6 11.7856 115.6H10.836V114.019H11.7856C12.1104 114.019 12.3971 113.963 12.6457 113.85C12.8976 113.737 13.0931 113.582 13.2323 113.383C13.3715 113.181 13.4411 112.945 13.4411 112.677C13.4411 112.422 13.3798 112.198 13.2572 112.006C13.1379 111.81 12.9688 111.658 12.7501 111.548C12.5347 111.439 12.2828 111.384 11.9944 111.384C11.7027 111.384 11.4359 111.437 11.194 111.543C10.952 111.646 10.7581 111.794 10.6123 111.986C10.4665 112.178 10.3886 112.403 10.3786 112.662H8.31543C8.32537 112.075 8.49275 111.558 8.81756 111.111C9.14237 110.663 9.57987 110.314 10.1301 110.062C10.6836 109.807 11.3083 109.679 12.0044 109.679C12.707 109.679 13.3218 109.807 13.8488 110.062C14.3758 110.317 14.7851 110.662 15.0768 111.096C15.3718 111.527 15.5176 112.011 15.5143 112.548C15.5176 113.118 15.3403 113.593 14.9823 113.974C14.6277 114.356 14.1653 114.598 13.5953 114.7V114.78C14.3443 114.876 14.9144 115.136 15.3055 115.56C15.6999 115.981 15.8954 116.508 15.8921 117.141C15.8954 117.721 15.7281 118.237 15.39 118.688C15.0553 119.138 14.5929 119.493 14.0029 119.751C13.413 120.01 12.7368 120.139 11.9745 120.139Z" fill="white"/>
</g>
</g>
<g clip-path="url(#clip2_6976_17923)">
<rect x="136" width="1" height="53" fill="#C54600"/>
<g clip-path="url(#clip3_6976_17923)">
<rect x="124" width="24" height="24" rx="12" fill="#C54600"/>
<path d="M132.416 17V15.4489L136.04 12.093C136.349 11.7947 136.607 11.5263 136.816 11.2876C137.028 11.049 137.189 10.8153 137.298 10.5866C137.408 10.3546 137.462 10.1044 137.462 9.83594C137.462 9.53764 137.394 9.28078 137.258 9.06534C137.123 8.84659 136.937 8.67921 136.702 8.56321C136.466 8.44389 136.199 8.38423 135.901 8.38423C135.59 8.38423 135.318 8.44721 135.086 8.57315C134.854 8.6991 134.675 8.87973 134.549 9.11506C134.423 9.35038 134.36 9.63044 134.36 9.95526H132.317C132.317 9.28906 132.467 8.7107 132.769 8.22017C133.071 7.72964 133.493 7.35014 134.037 7.08168C134.58 6.81321 135.207 6.67898 135.916 6.67898C136.645 6.67898 137.28 6.80824 137.82 7.06676C138.364 7.32197 138.786 7.67661 139.088 8.13068C139.39 8.58475 139.54 9.10511 139.54 9.69176C139.54 10.0762 139.464 10.4557 139.312 10.8303C139.163 11.2048 138.896 11.6207 138.511 12.0781C138.127 12.5322 137.585 13.0774 136.886 13.7138L135.399 15.1705V15.2401H139.675V17H132.416Z" fill="white"/>
</g>
</g>
<g clip-path="url(#clip4_6976_17923)">
<rect x="95" width="1" height="53" fill="#C54600"/>
<g clip-path="url(#clip5_6976_17923)">
<rect x="83" width="24" height="24" rx="12" fill="#C54600"/>
<path d="M96.8302 6.81818V17H94.6775V8.86151H94.6178L92.2861 10.3232V8.41406L94.8067 6.81818H96.8302Z" fill="white"/>
</g>
</g>
<defs>
<clipPath id="clip0_6976_17923">
<rect width="42" height="24" fill="white" transform="translate(0 103)"/>
</clipPath>
<clipPath id="clip1_6976_17923">
<rect y="103" width="24" height="24" rx="12" fill="white"/>
</clipPath>
<clipPath id="clip2_6976_17923">
<rect width="24" height="53" fill="white" transform="translate(124)"/>
</clipPath>
<clipPath id="clip3_6976_17923">
<rect x="124" width="24" height="24" rx="12" fill="white"/>
</clipPath>
<clipPath id="clip4_6976_17923">
<rect width="24" height="53" fill="white" transform="translate(83)"/>
</clipPath>
<clipPath id="clip5_6976_17923">
<rect x="83" width="24" height="24" rx="12" fill="white"/>
</clipPath>
</defs>
</svg>
