<svg width="378" height="332" viewBox="0 0 378 332" fill="none" xmlns="http://www.w3.org/2000/svg">
<g clip-path="url(#clip0_62787_1676)">
<rect width="290" height="292" transform="translate(68 20)" fill="white"/>
<rect width="290" height="52" transform="translate(68 20)" fill="white"/>
<path d="M92.46 54H88.62L82.4 43.2H82.32C82.3467 43.88 82.3733 44.56 82.4 45.24C82.44 45.92 82.4733 46.6 82.5 47.28V54H79.8V39.72H83.62L89.82 50.42H89.88C89.8667 49.7533 89.8467 49.0933 89.82 48.44C89.7933 47.7867 89.7667 47.1333 89.74 46.48V39.72H92.46V54ZM100.31 42.86C101.776 42.86 102.896 43.18 103.67 43.82C104.456 44.4467 104.85 45.4133 104.85 46.72V54H102.77L102.19 52.52H102.11C101.643 53.1067 101.15 53.5333 100.63 53.8C100.11 54.0667 99.3962 54.2 98.4895 54.2C97.5162 54.2 96.7095 53.92 96.0695 53.36C95.4295 52.7867 95.1095 51.9133 95.1095 50.74C95.1095 49.58 95.5162 48.7267 96.3295 48.18C97.1429 47.62 98.3629 47.3133 99.9895 47.26L101.89 47.2V46.72C101.89 46.1467 101.736 45.7267 101.43 45.46C101.136 45.1933 100.723 45.06 100.19 45.06C99.6562 45.06 99.1362 45.14 98.6295 45.3C98.1229 45.4467 97.6162 45.6333 97.1095 45.86L96.1295 43.84C96.7162 43.5333 97.3629 43.2933 98.0695 43.12C98.7895 42.9467 99.5362 42.86 100.31 42.86ZM100.73 48.98C99.7695 49.0067 99.1029 49.18 98.7295 49.5C98.3562 49.82 98.1695 50.24 98.1695 50.76C98.1695 51.2133 98.3029 51.54 98.5695 51.74C98.8362 51.9267 99.1829 52.02 99.6095 52.02C100.25 52.02 100.79 51.8333 101.23 51.46C101.67 51.0733 101.89 50.5333 101.89 49.84V48.94L100.73 48.98ZM110.5 54L106.34 43.08H109.46L111.56 49.3C111.68 49.6733 111.773 50.06 111.84 50.46C111.92 50.86 111.967 51.22 111.98 51.54H112.06C112.1 50.82 112.247 50.0733 112.5 49.3L114.6 43.08H117.72L113.56 54H110.5ZM127.462 54H124.482V38.8H127.462V54ZM135.056 42.86C136.522 42.86 137.642 43.18 138.416 43.82C139.202 44.4467 139.596 45.4133 139.596 46.72V54H137.516L136.936 52.52H136.856C136.389 53.1067 135.896 53.5333 135.376 53.8C134.856 54.0667 134.142 54.2 133.236 54.2C132.262 54.2 131.456 53.92 130.816 53.36C130.176 52.7867 129.856 51.9133 129.856 50.74C129.856 49.58 130.262 48.7267 131.076 48.18C131.889 47.62 133.109 47.3133 134.736 47.26L136.636 47.2V46.72C136.636 46.1467 136.482 45.7267 136.176 45.46C135.882 45.1933 135.469 45.06 134.936 45.06C134.402 45.06 133.882 45.14 133.376 45.3C132.869 45.4467 132.362 45.6333 131.856 45.86L130.876 43.84C131.462 43.5333 132.109 43.2933 132.816 43.12C133.536 42.9467 134.282 42.86 135.056 42.86ZM135.476 48.98C134.516 49.0067 133.849 49.18 133.476 49.5C133.102 49.82 132.916 50.24 132.916 50.76C132.916 51.2133 133.049 51.54 133.316 51.74C133.582 51.9267 133.929 52.02 134.356 52.02C134.996 52.02 135.536 51.8333 135.976 51.46C136.416 51.0733 136.636 50.5333 136.636 49.84V48.94L135.476 48.98ZM148.846 42.88C150.019 42.88 150.959 43.2 151.666 43.84C152.373 44.4667 152.726 45.48 152.726 46.88V54H149.746V47.62C149.746 46.8333 149.606 46.2467 149.326 45.86C149.046 45.46 148.599 45.26 147.986 45.26C147.079 45.26 146.459 45.5733 146.126 46.2C145.793 46.8133 145.626 47.7 145.626 48.86V54H142.646V43.08H144.926L145.326 44.48H145.486C145.833 43.92 146.306 43.5133 146.906 43.26C147.519 43.0067 148.166 42.88 148.846 42.88ZM159.25 54.2C158.037 54.2 157.044 53.7267 156.27 52.78C155.51 51.82 155.13 50.4133 155.13 48.56C155.13 46.6933 155.517 45.28 156.29 44.32C157.064 43.36 158.077 42.88 159.33 42.88C160.117 42.88 160.764 43.0333 161.27 43.34C161.777 43.6467 162.177 44.0267 162.47 44.48H162.57C162.53 44.2667 162.484 43.96 162.43 43.56C162.377 43.1467 162.35 42.7267 162.35 42.3V38.8H165.33V54H163.05L162.47 52.58H162.35C162.057 53.0333 161.664 53.42 161.17 53.74C160.677 54.0467 160.037 54.2 159.25 54.2ZM160.29 51.82C161.117 51.82 161.697 51.58 162.03 51.1C162.364 50.6067 162.537 49.8733 162.55 48.9V48.58C162.55 47.5133 162.384 46.7 162.05 46.14C161.73 45.58 161.13 45.3 160.25 45.3C159.597 45.3 159.084 45.5867 158.71 46.16C158.337 46.72 158.15 47.5333 158.15 48.6C158.15 49.6667 158.337 50.4733 158.71 51.02C159.084 51.5533 159.61 51.82 160.29 51.82ZM181.267 42.88C182.507 42.88 183.44 43.2 184.067 43.84C184.707 44.4667 185.027 45.48 185.027 46.88V54H182.047V47.62C182.047 46.0467 181.5 45.26 180.407 45.26C179.62 45.26 179.06 45.54 178.727 46.1C178.393 46.66 178.227 47.4667 178.227 48.52V54H175.247V47.62C175.247 46.0467 174.7 45.26 173.607 45.26C172.78 45.26 172.207 45.5733 171.887 46.2C171.58 46.8133 171.427 47.7 171.427 48.86V54H168.447V43.08H170.727L171.127 44.48H171.287C171.62 43.92 172.073 43.5133 172.647 43.26C173.233 43.0067 173.84 42.88 174.467 42.88C175.267 42.88 175.947 43.0133 176.507 43.28C177.067 43.5333 177.493 43.9333 177.787 44.48H178.047C178.38 43.92 178.84 43.5133 179.427 43.26C180.027 43.0067 180.64 42.88 181.267 42.88ZM192.575 42.86C194.042 42.86 195.162 43.18 195.935 43.82C196.722 44.4467 197.115 45.4133 197.115 46.72V54H195.035L194.455 52.52H194.375C193.908 53.1067 193.415 53.5333 192.895 53.8C192.375 54.0667 191.662 54.2 190.755 54.2C189.782 54.2 188.975 53.92 188.335 53.36C187.695 52.7867 187.375 51.9133 187.375 50.74C187.375 49.58 187.782 48.7267 188.595 48.18C189.408 47.62 190.628 47.3133 192.255 47.26L194.155 47.2V46.72C194.155 46.1467 194.002 45.7267 193.695 45.46C193.402 45.1933 192.988 45.06 192.455 45.06C191.922 45.06 191.402 45.14 190.895 45.3C190.388 45.4467 189.882 45.6333 189.375 45.86L188.395 43.84C188.982 43.5333 189.628 43.2933 190.335 43.12C191.055 42.9467 191.802 42.86 192.575 42.86ZM192.995 48.98C192.035 49.0067 191.368 49.18 190.995 49.5C190.622 49.82 190.435 50.24 190.435 50.76C190.435 51.2133 190.568 51.54 190.835 51.74C191.102 51.9267 191.448 52.02 191.875 52.02C192.515 52.02 193.055 51.8333 193.495 51.46C193.935 51.0733 194.155 50.5333 194.155 49.84V48.94L192.995 48.98ZM206.265 42.88C206.412 42.88 206.585 42.8867 206.785 42.9C206.985 42.9133 207.145 42.9333 207.265 42.96L207.045 45.76C206.952 45.7333 206.812 45.7133 206.625 45.7C206.452 45.6733 206.299 45.66 206.165 45.66C205.659 45.66 205.172 45.7533 204.705 45.94C204.239 46.1133 203.859 46.4 203.565 46.8C203.285 47.2 203.145 47.7467 203.145 48.44V54H200.165V43.08H202.425L202.865 44.92H203.005C203.325 44.36 203.765 43.88 204.325 43.48C204.885 43.08 205.532 42.88 206.265 42.88ZM212.228 45.6C212.228 46.0133 212.208 46.4267 212.168 46.84C212.141 47.24 212.108 47.6467 212.068 48.06H212.108C212.308 47.78 212.514 47.5 212.728 47.22C212.941 46.9267 213.168 46.6533 213.408 46.4L216.468 43.08H219.828L215.488 47.82L220.088 54H216.648L213.508 49.58L212.228 50.6V54H209.248V38.8H212.228V45.6ZM229.825 54H226.845V38.8H229.825V54ZM237.419 42.86C238.886 42.86 240.006 43.18 240.779 43.82C241.566 44.4467 241.959 45.4133 241.959 46.72V54H239.879L239.299 52.52H239.219C238.752 53.1067 238.259 53.5333 237.739 53.8C237.219 54.0667 236.506 54.2 235.599 54.2C234.626 54.2 233.819 53.92 233.179 53.36C232.539 52.7867 232.219 51.9133 232.219 50.74C232.219 49.58 232.626 48.7267 233.439 48.18C234.252 47.62 235.472 47.3133 237.099 47.26L238.999 47.2V46.72C238.999 46.1467 238.846 45.7267 238.539 45.46C238.246 45.1933 237.832 45.06 237.299 45.06C236.766 45.06 236.246 45.14 235.739 45.3C235.232 45.4467 234.726 45.6333 234.219 45.86L233.239 43.84C233.826 43.5333 234.472 43.2933 235.179 43.12C235.899 42.9467 236.646 42.86 237.419 42.86ZM237.839 48.98C236.879 49.0067 236.212 49.18 235.839 49.5C235.466 49.82 235.279 50.24 235.279 50.76C235.279 51.2133 235.412 51.54 235.679 51.74C235.946 51.9267 236.292 52.02 236.719 52.02C237.359 52.02 237.899 51.8333 238.339 51.46C238.779 51.0733 238.999 50.5333 238.999 49.84V48.94L237.839 48.98ZM247.989 42.34C247.989 42.7533 247.976 43.16 247.949 43.56C247.923 43.96 247.896 44.2733 247.869 44.5H247.989C248.283 44.0467 248.676 43.6667 249.169 43.36C249.663 43.04 250.303 42.88 251.089 42.88C252.316 42.88 253.309 43.36 254.069 44.32C254.829 45.2667 255.209 46.6667 255.209 48.52C255.209 50.3867 254.823 51.8 254.049 52.76C253.276 53.72 252.263 54.2 251.009 54.2C250.209 54.2 249.576 54.06 249.109 53.78C248.656 53.4867 248.283 53.16 247.989 52.8H247.789L247.289 54H245.009V38.8H247.989V42.34ZM250.129 45.26C249.356 45.26 248.809 45.5 248.489 45.98C248.183 46.46 248.016 47.1933 247.989 48.18V48.5C247.989 49.5533 248.143 50.3667 248.449 50.94C248.769 51.5 249.343 51.78 250.169 51.78C250.783 51.78 251.269 51.5 251.629 50.94C251.989 50.3667 252.169 49.5467 252.169 48.48C252.169 47.4133 251.983 46.6133 251.609 46.08C251.249 45.5333 250.756 45.26 250.129 45.26ZM262.165 42.88C263.672 42.88 264.865 43.3133 265.745 44.18C266.625 45.0333 267.065 46.2533 267.065 47.84V49.28H260.025C260.052 50.12 260.299 50.78 260.765 51.26C261.245 51.74 261.905 51.98 262.745 51.98C263.452 51.98 264.092 51.9133 264.665 51.78C265.239 51.6333 265.832 51.4133 266.445 51.12V53.42C265.912 53.6867 265.345 53.88 264.745 54C264.159 54.1333 263.445 54.2 262.605 54.2C261.512 54.2 260.545 54 259.705 53.6C258.865 53.1867 258.205 52.5667 257.725 51.74C257.245 50.9133 257.005 49.8733 257.005 48.62C257.005 47.34 257.219 46.28 257.645 45.44C258.085 44.5867 258.692 43.9467 259.465 43.52C260.239 43.0933 261.139 42.88 262.165 42.88ZM262.185 45C261.612 45 261.132 45.1867 260.745 45.56C260.372 45.9333 260.152 46.5133 260.085 47.3H264.265C264.252 46.6333 264.079 46.0867 263.745 45.66C263.412 45.22 262.892 45 262.185 45ZM272.462 54H269.482V38.8H272.462V54Z" fill="black"/>
<rect width="290" height="40" transform="translate(68 72)" fill="white"/>
<path d="M88.608 98H86.928L80.816 88.512H80.752C80.7733 88.8853 80.8 89.3493 80.832 89.904C80.864 90.4587 80.88 91.0293 80.88 91.616V98H79.552V86.576H81.216L87.312 96.032H87.376C87.3653 95.8613 87.3493 95.6053 87.328 95.264C87.3173 94.9227 87.3013 94.5493 87.28 94.144C87.2693 93.7387 87.264 93.3653 87.264 93.024V86.576H88.608V98ZM94.7643 89.28C95.8096 89.28 96.5829 89.5093 97.0843 89.968C97.5856 90.4267 97.8363 91.1573 97.8363 92.16V98H96.8123L96.5403 96.784H96.4763C96.1029 97.2533 95.7083 97.6 95.2923 97.824C94.8869 98.048 94.3216 98.16 93.5963 98.16C92.8176 98.16 92.1723 97.9573 91.6603 97.552C91.1483 97.136 90.8923 96.4907 90.8923 95.616C90.8923 94.7627 91.2283 94.1067 91.9003 93.648C92.5723 93.1787 93.6069 92.9227 95.0043 92.88L96.4603 92.832V92.32C96.4603 91.6053 96.3056 91.1093 95.9963 90.832C95.6869 90.5547 95.2496 90.416 94.6843 90.416C94.2363 90.416 93.8096 90.4853 93.4043 90.624C92.9989 90.752 92.6203 90.9013 92.2682 91.072L91.8363 90.016C92.2096 89.8133 92.6523 89.6427 93.1643 89.504C93.6763 89.3547 94.2096 89.28 94.7643 89.28ZM95.1803 93.856C94.1136 93.8987 93.3723 94.0693 92.9563 94.368C92.5509 94.6667 92.3483 95.088 92.3483 95.632C92.3483 96.112 92.4923 96.464 92.7803 96.688C93.0789 96.912 93.4576 97.024 93.9163 97.024C94.6416 97.024 95.2443 96.8267 95.7243 96.432C96.2043 96.0267 96.4443 95.408 96.4443 94.576V93.808L95.1803 93.856ZM102.373 98L99.125 89.424H100.629L102.453 94.48C102.538 94.7147 102.629 94.976 102.725 95.264C102.821 95.552 102.906 95.8293 102.981 96.096C103.056 96.352 103.109 96.5707 103.141 96.752H103.205C103.248 96.5707 103.306 96.3467 103.381 96.08C103.466 95.8133 103.557 95.536 103.653 95.248C103.76 94.96 103.85 94.704 103.925 94.48L105.749 89.424H107.253L103.989 98H102.373ZM114.174 98H112.766V85.84H114.174V98ZM117.611 86.208C117.825 86.208 118.011 86.2827 118.171 86.432C118.342 86.5707 118.427 86.7947 118.427 87.104C118.427 87.4027 118.342 87.6267 118.171 87.776C118.011 87.9253 117.825 88 117.611 88C117.377 88 117.179 87.9253 117.019 87.776C116.859 87.6267 116.779 87.4027 116.779 87.104C116.779 86.7947 116.859 86.5707 117.019 86.432C117.179 86.2827 117.377 86.208 117.611 86.208ZM118.299 89.424V98H116.891V89.424H118.299ZM125.144 89.264C126.168 89.264 126.942 89.5147 127.464 90.016C127.987 90.5067 128.248 91.3067 128.248 92.416V98H126.856V92.512C126.856 91.136 126.216 90.448 124.936 90.448C123.987 90.448 123.331 90.7147 122.968 91.248C122.606 91.7813 122.424 92.5493 122.424 93.552V98H121.016V89.424H122.152L122.36 90.592H122.44C122.718 90.144 123.102 89.8133 123.592 89.6C124.083 89.376 124.6 89.264 125.144 89.264ZM132.299 92.192C132.299 92.3627 132.288 92.5867 132.267 92.864C132.256 93.1413 132.246 93.3813 132.235 93.584H132.299C132.363 93.4987 132.459 93.376 132.587 93.216C132.715 93.056 132.843 92.896 132.971 92.736C133.11 92.5653 133.227 92.4267 133.323 92.32L136.059 89.424H137.707L134.235 93.088L137.947 98H136.251L133.275 94L132.299 94.848V98H130.907V85.84H132.299V92.192Z" fill="#284162"/>
<path d="M78 101.2H138.091V102H78V101.2Z" fill="#284162"/>
<mask id="path-3-inside-1_62787_1676" fill="white">
<path d="M68 112H358V152H68V112Z"/>
</mask>
<path d="M68 112H358V152H68V112Z" fill="#D7E5F5"/>
<path d="M68 152H70V112H68H66V152H68Z" fill="#33465C" mask="url(#path-3-inside-1_62787_1676)"/>
<path d="M89.2 138H86.656L81.248 129.04H81.184C81.1947 129.275 81.2053 129.525 81.216 129.792C81.2373 130.048 81.2533 130.315 81.264 130.592C81.2747 130.859 81.2853 131.131 81.296 131.408C81.3067 131.685 81.3173 131.963 81.328 132.24V138H79.488V126.576H82.016L87.408 135.472H87.456C87.4453 135.259 87.4347 135.029 87.424 134.784C87.4133 134.528 87.4027 134.267 87.392 134C87.392 133.733 87.3867 133.461 87.376 133.184C87.3653 132.907 87.3547 132.64 87.344 132.384V126.576H89.2V138ZM95.4395 129.168C96.5595 129.168 97.4075 129.413 97.9835 129.904C98.5702 130.384 98.8635 131.141 98.8635 132.176V138H97.4395L97.0395 136.8H96.9755C96.7302 137.109 96.4742 137.371 96.2075 137.584C95.9515 137.787 95.6528 137.931 95.3115 138.016C94.9808 138.112 94.5755 138.16 94.0955 138.16C93.5835 138.16 93.1195 138.064 92.7035 137.872C92.2982 137.68 91.9782 137.387 91.7435 136.992C91.5088 136.587 91.3915 136.08 91.3915 135.472C91.3915 134.576 91.7168 133.904 92.3675 133.456C93.0288 132.997 94.0262 132.747 95.3595 132.704L96.8635 132.656V132.224C96.8635 131.669 96.7302 131.275 96.4635 131.04C96.1968 130.805 95.8235 130.688 95.3435 130.688C94.9062 130.688 94.4848 130.752 94.0795 130.88C93.6742 131.008 93.2795 131.157 92.8955 131.328L92.2555 129.92C92.6822 129.696 93.1675 129.515 93.7115 129.376C94.2662 129.237 94.8422 129.168 95.4395 129.168ZM95.8075 133.936C94.9222 133.968 94.3088 134.123 93.9675 134.4C93.6262 134.667 93.4555 135.029 93.4555 135.488C93.4555 135.893 93.5782 136.187 93.8235 136.368C94.0688 136.549 94.3835 136.64 94.7675 136.64C95.3542 136.64 95.8502 136.475 96.2555 136.144C96.6608 135.803 96.8635 135.301 96.8635 134.64V133.904L95.8075 133.936ZM103.39 138L100.094 129.328H102.222L103.95 134.336C104.024 134.539 104.094 134.763 104.158 135.008C104.222 135.243 104.275 135.477 104.318 135.712C104.371 135.936 104.403 136.133 104.414 136.304H104.478C104.499 136.123 104.536 135.92 104.59 135.696C104.643 135.461 104.702 135.227 104.766 134.992C104.84 134.757 104.91 134.539 104.974 134.336L106.702 129.328H108.83L105.534 138H103.39ZM116.296 138H114.28V125.84H116.296V138ZM120.89 129.328V138H118.874V129.328H120.89ZM119.882 125.984C120.181 125.984 120.442 126.064 120.666 126.224C120.89 126.373 121.002 126.645 121.002 127.04C121.002 127.424 120.89 127.701 120.666 127.872C120.442 128.032 120.181 128.112 119.882 128.112C119.573 128.112 119.306 128.032 119.082 127.872C118.869 127.701 118.762 127.424 118.762 127.04C118.762 126.645 118.869 126.373 119.082 126.224C119.306 126.064 119.573 125.984 119.882 125.984ZM128.108 129.168C129.079 129.168 129.836 129.419 130.38 129.92C130.935 130.421 131.212 131.232 131.212 132.352V138H129.196V132.752C129.196 132.101 129.068 131.616 128.812 131.296C128.556 130.965 128.151 130.8 127.596 130.8C126.785 130.8 126.231 131.056 125.932 131.568C125.633 132.069 125.484 132.8 125.484 133.76V138H123.468V129.328H125.02L125.308 130.464H125.42C125.612 130.165 125.847 129.92 126.124 129.728C126.401 129.536 126.711 129.397 127.052 129.312C127.393 129.216 127.745 129.168 128.108 129.168ZM135.734 131.616C135.734 131.893 135.723 132.187 135.702 132.496C135.68 132.795 135.659 133.088 135.638 133.376H135.686C135.771 133.248 135.872 133.109 135.99 132.96C136.107 132.8 136.224 132.645 136.342 132.496C136.47 132.336 136.592 132.192 136.71 132.064L139.27 129.328H141.558L138.086 133.072L141.782 138H139.43L136.742 134.288L135.734 135.12V138H133.734V125.84H135.734V131.616Z" fill="#33465C"/>
<rect width="290" height="40" transform="translate(68 152)" fill="white"/>
<path d="M84 174.406L89.6875 168.719L91 170.031L84 177.031L77 170.031L78.3125 168.719L84 174.406Z" fill="#333333"/>
<path d="M111.2 178H108.656L103.248 169.04H103.184C103.195 169.275 103.205 169.525 103.216 169.792C103.237 170.048 103.253 170.315 103.264 170.592C103.275 170.859 103.285 171.131 103.296 171.408C103.307 171.685 103.317 171.963 103.328 172.24V178H101.488V166.576H104.016L109.408 175.472H109.456C109.445 175.259 109.435 175.029 109.424 174.784C109.413 174.528 109.403 174.267 109.392 174C109.392 173.733 109.387 173.461 109.376 173.184C109.365 172.907 109.355 172.64 109.344 172.384V166.576H111.2V178ZM117.44 169.168C118.56 169.168 119.408 169.413 119.984 169.904C120.57 170.384 120.864 171.141 120.864 172.176V178H119.44L119.04 176.8H118.976C118.73 177.109 118.474 177.371 118.208 177.584C117.952 177.787 117.653 177.931 117.312 178.016C116.981 178.112 116.576 178.16 116.096 178.16C115.584 178.16 115.12 178.064 114.704 177.872C114.298 177.68 113.978 177.387 113.743 176.992C113.509 176.587 113.392 176.08 113.392 175.472C113.392 174.576 113.717 173.904 114.368 173.456C115.029 172.997 116.026 172.747 117.36 172.704L118.864 172.656V172.224C118.864 171.669 118.73 171.275 118.464 171.04C118.197 170.805 117.824 170.688 117.344 170.688C116.906 170.688 116.485 170.752 116.08 170.88C115.674 171.008 115.28 171.157 114.896 171.328L114.256 169.92C114.682 169.696 115.168 169.515 115.712 169.376C116.266 169.237 116.842 169.168 117.44 169.168ZM117.808 173.936C116.922 173.968 116.309 174.123 115.968 174.4C115.626 174.667 115.456 175.029 115.456 175.488C115.456 175.893 115.578 176.187 115.824 176.368C116.069 176.549 116.384 176.64 116.768 176.64C117.354 176.64 117.85 176.475 118.256 176.144C118.661 175.803 118.864 175.301 118.864 174.64V173.904L117.808 173.936ZM125.39 178L122.094 169.328H124.222L125.95 174.336C126.024 174.539 126.094 174.763 126.158 175.008C126.222 175.243 126.275 175.477 126.318 175.712C126.371 175.936 126.403 176.133 126.414 176.304H126.478C126.499 176.123 126.536 175.92 126.59 175.696C126.643 175.461 126.702 175.227 126.766 174.992C126.84 174.757 126.91 174.539 126.974 174.336L128.702 169.328H130.83L127.534 178H125.39ZM139.192 169.168C139.736 169.168 140.227 169.275 140.664 169.488C141.102 169.701 141.47 170.021 141.768 170.448H141.848L142.04 169.328H143.72V178.064C143.72 178.885 143.566 179.573 143.256 180.128C142.947 180.693 142.483 181.12 141.864 181.408C141.246 181.696 140.472 181.84 139.544 181.84C138.926 181.84 138.355 181.797 137.832 181.712C137.31 181.637 136.814 181.504 136.344 181.312V179.648C136.675 179.787 137.016 179.904 137.368 180C137.731 180.107 138.104 180.187 138.488 180.24C138.872 180.293 139.267 180.32 139.672 180.32C140.334 180.32 140.835 180.133 141.176 179.76C141.528 179.387 141.704 178.853 141.704 178.16V177.936C141.704 177.776 141.71 177.589 141.72 177.376C141.742 177.163 141.758 176.992 141.768 176.864H141.704C141.406 177.312 141.043 177.643 140.616 177.856C140.19 178.059 139.699 178.16 139.144 178.16C138.088 178.16 137.262 177.765 136.664 176.976C136.067 176.187 135.768 175.088 135.768 173.68C135.768 172.731 135.902 171.92 136.168 171.248C136.446 170.576 136.84 170.064 137.352 169.712C137.864 169.349 138.478 169.168 139.192 169.168ZM139.72 170.816C139.315 170.816 138.968 170.928 138.68 171.152C138.403 171.365 138.19 171.685 138.04 172.112C137.902 172.539 137.832 173.072 137.832 173.712C137.832 174.651 137.992 175.36 138.312 175.84C138.632 176.32 139.112 176.56 139.752 176.56C140.115 176.56 140.424 176.517 140.68 176.432C140.936 176.336 141.144 176.187 141.304 175.984C141.475 175.771 141.603 175.504 141.688 175.184C141.774 174.853 141.816 174.459 141.816 174V173.696C141.816 173.003 141.742 172.448 141.592 172.032C141.443 171.605 141.214 171.296 140.904 171.104C140.606 170.912 140.211 170.816 139.72 170.816ZM150.84 169.168C150.968 169.168 151.117 169.173 151.288 169.184C151.459 169.195 151.603 169.216 151.72 169.248L151.544 171.12C151.448 171.099 151.32 171.083 151.16 171.072C151.011 171.051 150.877 171.04 150.76 171.04C150.44 171.04 150.131 171.093 149.832 171.2C149.544 171.296 149.283 171.445 149.048 171.648C148.824 171.84 148.643 172.091 148.504 172.4C148.376 172.709 148.312 173.077 148.312 173.504V178H146.296V169.328H147.848L148.136 170.832H148.232C148.403 170.523 148.616 170.245 148.872 170C149.128 169.744 149.421 169.541 149.752 169.392C150.093 169.243 150.456 169.168 150.84 169.168ZM160.759 173.648C160.759 174.373 160.663 175.013 160.471 175.568C160.279 176.123 160.001 176.597 159.639 176.992C159.287 177.376 158.849 177.669 158.327 177.872C157.815 178.064 157.244 178.16 156.615 178.16C156.017 178.16 155.468 178.064 154.967 177.872C154.465 177.669 154.028 177.376 153.655 176.992C153.292 176.597 153.009 176.123 152.807 175.568C152.604 175.013 152.503 174.373 152.503 173.648C152.503 172.688 152.668 171.877 152.999 171.216C153.329 170.544 153.804 170.037 154.423 169.696C155.052 169.344 155.793 169.168 156.647 169.168C157.457 169.168 158.167 169.344 158.775 169.696C159.393 170.037 159.879 170.544 160.231 171.216C160.583 171.877 160.759 172.688 160.759 173.648ZM154.567 173.648C154.567 174.256 154.636 174.779 154.775 175.216C154.924 175.643 155.148 175.968 155.447 176.192C155.756 176.416 156.151 176.528 156.631 176.528C157.121 176.528 157.516 176.416 157.815 176.192C158.124 175.968 158.348 175.643 158.487 175.216C158.625 174.779 158.695 174.256 158.695 173.648C158.695 173.029 158.62 172.512 158.471 172.096C158.332 171.669 158.108 171.349 157.799 171.136C157.5 170.912 157.111 170.8 156.631 170.8C155.905 170.8 155.377 171.045 155.047 171.536C154.727 172.027 154.567 172.731 154.567 173.648ZM170.539 169.328V178H168.955L168.683 176.88H168.587C168.406 177.179 168.171 177.424 167.883 177.616C167.595 177.797 167.28 177.931 166.939 178.016C166.598 178.112 166.246 178.16 165.883 178.16C165.243 178.16 164.688 178.048 164.219 177.824C163.75 177.6 163.392 177.259 163.147 176.8C162.902 176.331 162.779 175.728 162.779 174.992V169.328H164.795V174.592C164.795 175.232 164.923 175.717 165.179 176.048C165.435 176.368 165.84 176.528 166.395 176.528C166.939 176.528 167.366 176.416 167.675 176.192C167.984 175.957 168.203 175.621 168.331 175.184C168.459 174.747 168.523 174.208 168.523 173.568V169.328H170.539ZM177.669 169.168C178.682 169.168 179.498 169.547 180.117 170.304C180.735 171.051 181.045 172.165 181.045 173.648C181.045 174.629 180.901 175.456 180.613 176.128C180.325 176.8 179.925 177.307 179.413 177.648C178.901 177.989 178.303 178.16 177.621 178.16C177.205 178.16 176.837 178.107 176.516 178C176.196 177.883 175.925 177.739 175.701 177.568C175.477 177.387 175.285 177.195 175.125 176.992H174.997C175.039 177.184 175.071 177.403 175.093 177.648C175.114 177.883 175.125 178.107 175.125 178.32V181.84H173.109V169.328H174.741L175.029 170.48H175.125C175.285 170.235 175.477 170.016 175.701 169.824C175.935 169.621 176.213 169.461 176.533 169.344C176.863 169.227 177.242 169.168 177.669 169.168ZM177.093 170.8C176.623 170.8 176.245 170.896 175.957 171.088C175.669 171.269 175.461 171.552 175.333 171.936C175.205 172.32 175.135 172.8 175.125 173.376V173.632C175.125 174.251 175.183 174.773 175.301 175.2C175.429 175.627 175.637 175.952 175.924 176.176C176.223 176.4 176.623 176.512 177.125 176.512C177.551 176.512 177.898 176.395 178.165 176.16C178.442 175.925 178.645 175.595 178.773 175.168C178.911 174.731 178.981 174.213 178.981 173.616C178.981 172.72 178.826 172.027 178.517 171.536C178.218 171.045 177.743 170.8 177.093 170.8Z" fill="#333333"/>
<rect width="290" height="40" transform="translate(68 192)" fill="white"/>
<path d="M110.608 218H108.928L102.816 208.512H102.752C102.773 208.885 102.8 209.349 102.832 209.904C102.864 210.459 102.88 211.029 102.88 211.616V218H101.552V206.576H103.216L109.312 216.032H109.376C109.365 215.861 109.349 215.605 109.328 215.264C109.317 214.923 109.301 214.549 109.28 214.144C109.269 213.739 109.264 213.365 109.264 213.024V206.576H110.608V218ZM116.764 209.28C117.81 209.28 118.583 209.509 119.084 209.968C119.586 210.427 119.836 211.157 119.836 212.16V218H118.812L118.54 216.784H118.476C118.103 217.253 117.708 217.6 117.292 217.824C116.887 218.048 116.322 218.16 115.596 218.16C114.818 218.16 114.172 217.957 113.66 217.552C113.148 217.136 112.892 216.491 112.892 215.616C112.892 214.763 113.228 214.107 113.9 213.648C114.572 213.179 115.607 212.923 117.004 212.88L118.46 212.832V212.32C118.46 211.605 118.306 211.109 117.996 210.832C117.687 210.555 117.25 210.416 116.684 210.416C116.236 210.416 115.81 210.485 115.404 210.624C114.999 210.752 114.62 210.901 114.268 211.072L113.836 210.016C114.21 209.813 114.652 209.643 115.164 209.504C115.676 209.355 116.21 209.28 116.764 209.28ZM117.18 213.856C116.114 213.899 115.372 214.069 114.956 214.368C114.551 214.667 114.348 215.088 114.348 215.632C114.348 216.112 114.492 216.464 114.78 216.688C115.079 216.912 115.458 217.024 115.916 217.024C116.642 217.024 117.244 216.827 117.724 216.432C118.204 216.027 118.444 215.408 118.444 214.576V213.808L117.18 213.856ZM124.373 218L121.125 209.424H122.629L124.453 214.48C124.538 214.715 124.629 214.976 124.725 215.264C124.821 215.552 124.906 215.829 124.981 216.096C125.056 216.352 125.109 216.571 125.141 216.752H125.205C125.248 216.571 125.306 216.347 125.381 216.08C125.466 215.813 125.557 215.536 125.653 215.248C125.76 214.96 125.85 214.704 125.925 214.48L127.749 209.424H129.253L125.989 218H124.373ZM136.174 218H134.766V205.84H136.174V218ZM139.611 206.208C139.825 206.208 140.011 206.283 140.171 206.432C140.342 206.571 140.427 206.795 140.427 207.104C140.427 207.403 140.342 207.627 140.171 207.776C140.011 207.925 139.825 208 139.611 208C139.377 208 139.179 207.925 139.019 207.776C138.859 207.627 138.779 207.403 138.779 207.104C138.779 206.795 138.859 206.571 139.019 206.432C139.179 206.283 139.377 206.208 139.611 206.208ZM140.299 209.424V218H138.891V209.424H140.299ZM147.144 209.264C148.168 209.264 148.942 209.515 149.464 210.016C149.987 210.507 150.248 211.307 150.248 212.416V218H148.856V212.512C148.856 211.136 148.216 210.448 146.936 210.448C145.987 210.448 145.331 210.715 144.968 211.248C144.606 211.781 144.424 212.549 144.424 213.552V218H143.016V209.424H144.152L144.36 210.592H144.44C144.718 210.144 145.102 209.813 145.592 209.6C146.083 209.376 146.6 209.264 147.144 209.264ZM154.299 212.192C154.299 212.363 154.288 212.587 154.267 212.864C154.256 213.141 154.246 213.381 154.235 213.584H154.299C154.363 213.499 154.459 213.376 154.587 213.216C154.715 213.056 154.843 212.896 154.971 212.736C155.11 212.565 155.227 212.427 155.323 212.32L158.059 209.424H159.707L156.235 213.088L159.947 218H158.251L155.275 214L154.299 214.848V218H152.907V205.84H154.299V212.192Z" fill="#284162"/>
<path d="M100 221.2H160.091V222H100V221.2Z" fill="#284162"/>
<rect width="290" height="40" transform="translate(68 232)" fill="white"/>
<path d="M110.608 258H108.928L102.816 248.512H102.752C102.773 248.885 102.8 249.349 102.832 249.904C102.864 250.459 102.88 251.029 102.88 251.616V258H101.552V246.576H103.216L109.312 256.032H109.376C109.365 255.861 109.349 255.605 109.328 255.264C109.317 254.923 109.301 254.549 109.28 254.144C109.269 253.739 109.264 253.365 109.264 253.024V246.576H110.608V258ZM116.764 249.28C117.81 249.28 118.583 249.509 119.084 249.968C119.586 250.427 119.836 251.157 119.836 252.16V258H118.812L118.54 256.784H118.476C118.103 257.253 117.708 257.6 117.292 257.824C116.887 258.048 116.322 258.16 115.596 258.16C114.818 258.16 114.172 257.957 113.66 257.552C113.148 257.136 112.892 256.491 112.892 255.616C112.892 254.763 113.228 254.107 113.9 253.648C114.572 253.179 115.607 252.923 117.004 252.88L118.46 252.832V252.32C118.46 251.605 118.306 251.109 117.996 250.832C117.687 250.555 117.25 250.416 116.684 250.416C116.236 250.416 115.81 250.485 115.404 250.624C114.999 250.752 114.62 250.901 114.268 251.072L113.836 250.016C114.21 249.813 114.652 249.643 115.164 249.504C115.676 249.355 116.21 249.28 116.764 249.28ZM117.18 253.856C116.114 253.899 115.372 254.069 114.956 254.368C114.551 254.667 114.348 255.088 114.348 255.632C114.348 256.112 114.492 256.464 114.78 256.688C115.079 256.912 115.458 257.024 115.916 257.024C116.642 257.024 117.244 256.827 117.724 256.432C118.204 256.027 118.444 255.408 118.444 254.576V253.808L117.18 253.856ZM124.373 258L121.125 249.424H122.629L124.453 254.48C124.538 254.715 124.629 254.976 124.725 255.264C124.821 255.552 124.906 255.829 124.981 256.096C125.056 256.352 125.109 256.571 125.141 256.752H125.205C125.248 256.571 125.306 256.347 125.381 256.08C125.466 255.813 125.557 255.536 125.653 255.248C125.76 254.96 125.85 254.704 125.925 254.48L127.749 249.424H129.253L125.989 258H124.373ZM136.174 258H134.766V245.84H136.174V258ZM139.611 246.208C139.825 246.208 140.011 246.283 140.171 246.432C140.342 246.571 140.427 246.795 140.427 247.104C140.427 247.403 140.342 247.627 140.171 247.776C140.011 247.925 139.825 248 139.611 248C139.377 248 139.179 247.925 139.019 247.776C138.859 247.627 138.779 247.403 138.779 247.104C138.779 246.795 138.859 246.571 139.019 246.432C139.179 246.283 139.377 246.208 139.611 246.208ZM140.299 249.424V258H138.891V249.424H140.299ZM147.144 249.264C148.168 249.264 148.942 249.515 149.464 250.016C149.987 250.507 150.248 251.307 150.248 252.416V258H148.856V252.512C148.856 251.136 148.216 250.448 146.936 250.448C145.987 250.448 145.331 250.715 144.968 251.248C144.606 251.781 144.424 252.549 144.424 253.552V258H143.016V249.424H144.152L144.36 250.592H144.44C144.718 250.144 145.102 249.813 145.592 249.6C146.083 249.376 146.6 249.264 147.144 249.264ZM154.299 252.192C154.299 252.363 154.288 252.587 154.267 252.864C154.256 253.141 154.246 253.381 154.235 253.584H154.299C154.363 253.499 154.459 253.376 154.587 253.216C154.715 253.056 154.843 252.896 154.971 252.736C155.11 252.565 155.227 252.427 155.323 252.32L158.059 249.424H159.707L156.235 253.088L159.947 258H158.251L155.275 254L154.299 254.848V258H152.907V245.84H154.299V252.192Z" fill="#284162"/>
<path d="M100 261.2H160.091V262H100V261.2Z" fill="#284162"/>
<rect width="290" height="40" transform="translate(68 272)" fill="white"/>
<path d="M110.608 298H108.928L102.816 288.512H102.752C102.773 288.885 102.8 289.349 102.832 289.904C102.864 290.459 102.88 291.029 102.88 291.616V298H101.552V286.576H103.216L109.312 296.032H109.376C109.365 295.861 109.349 295.605 109.328 295.264C109.317 294.923 109.301 294.549 109.28 294.144C109.269 293.739 109.264 293.365 109.264 293.024V286.576H110.608V298ZM116.764 289.28C117.81 289.28 118.583 289.509 119.084 289.968C119.586 290.427 119.836 291.157 119.836 292.16V298H118.812L118.54 296.784H118.476C118.103 297.253 117.708 297.6 117.292 297.824C116.887 298.048 116.322 298.16 115.596 298.16C114.818 298.16 114.172 297.957 113.66 297.552C113.148 297.136 112.892 296.491 112.892 295.616C112.892 294.763 113.228 294.107 113.9 293.648C114.572 293.179 115.607 292.923 117.004 292.88L118.46 292.832V292.32C118.46 291.605 118.306 291.109 117.996 290.832C117.687 290.555 117.25 290.416 116.684 290.416C116.236 290.416 115.81 290.485 115.404 290.624C114.999 290.752 114.62 290.901 114.268 291.072L113.836 290.016C114.21 289.813 114.652 289.643 115.164 289.504C115.676 289.355 116.21 289.28 116.764 289.28ZM117.18 293.856C116.114 293.899 115.372 294.069 114.956 294.368C114.551 294.667 114.348 295.088 114.348 295.632C114.348 296.112 114.492 296.464 114.78 296.688C115.079 296.912 115.458 297.024 115.916 297.024C116.642 297.024 117.244 296.827 117.724 296.432C118.204 296.027 118.444 295.408 118.444 294.576V293.808L117.18 293.856ZM124.373 298L121.125 289.424H122.629L124.453 294.48C124.538 294.715 124.629 294.976 124.725 295.264C124.821 295.552 124.906 295.829 124.981 296.096C125.056 296.352 125.109 296.571 125.141 296.752H125.205C125.248 296.571 125.306 296.347 125.381 296.08C125.466 295.813 125.557 295.536 125.653 295.248C125.76 294.96 125.85 294.704 125.925 294.48L127.749 289.424H129.253L125.989 298H124.373ZM136.174 298H134.766V285.84H136.174V298ZM139.611 286.208C139.825 286.208 140.011 286.283 140.171 286.432C140.342 286.571 140.427 286.795 140.427 287.104C140.427 287.403 140.342 287.627 140.171 287.776C140.011 287.925 139.825 288 139.611 288C139.377 288 139.179 287.925 139.019 287.776C138.859 287.627 138.779 287.403 138.779 287.104C138.779 286.795 138.859 286.571 139.019 286.432C139.179 286.283 139.377 286.208 139.611 286.208ZM140.299 289.424V298H138.891V289.424H140.299ZM147.144 289.264C148.168 289.264 148.942 289.515 149.464 290.016C149.987 290.507 150.248 291.307 150.248 292.416V298H148.856V292.512C148.856 291.136 148.216 290.448 146.936 290.448C145.987 290.448 145.331 290.715 144.968 291.248C144.606 291.781 144.424 292.549 144.424 293.552V298H143.016V289.424H144.152L144.36 290.592H144.44C144.718 290.144 145.102 289.813 145.592 289.6C146.083 289.376 146.6 289.264 147.144 289.264ZM154.299 292.192C154.299 292.363 154.288 292.587 154.267 292.864C154.256 293.141 154.246 293.381 154.235 293.584H154.299C154.363 293.499 154.459 293.376 154.587 293.216C154.715 293.056 154.843 292.896 154.971 292.736C155.11 292.565 155.227 292.427 155.323 292.32L158.059 289.424H159.707L156.235 293.088L159.947 298H158.251L155.275 294L154.299 294.848V298H152.907V285.84H154.299V292.192Z" fill="#284162"/>
<path d="M100 301.2H160.091V302H100V301.2Z" fill="#284162"/>
</g>
<g clip-path="url(#clip1_62787_1676)">
<rect x="20" y="100" width="24" height="24" rx="12" fill="#C54600"/>
<path d="M28.9281 116V114.67L32.0346 111.794C32.2988 111.538 32.5204 111.308 32.6994 111.104C32.8812 110.899 33.019 110.699 33.1127 110.503C33.2065 110.304 33.2534 110.089 33.2534 109.859C33.2534 109.604 33.1951 109.384 33.0787 109.199C32.9622 109.011 32.8031 108.868 32.6014 108.768C32.3997 108.666 32.171 108.615 31.9153 108.615C31.6483 108.615 31.4153 108.669 31.2164 108.777C31.0176 108.885 30.8642 109.04 30.7562 109.241C30.6483 109.443 30.5943 109.683 30.5943 109.962H28.8429C28.8429 109.391 28.9721 108.895 29.2306 108.474C29.4892 108.054 29.8514 107.729 30.3173 107.499C30.7832 107.268 31.3201 107.153 31.9281 107.153C32.5531 107.153 33.0971 107.264 33.5602 107.486C34.0261 107.705 34.3883 108.009 34.6468 108.398C34.9054 108.787 35.0346 109.233 35.0346 109.736C35.0346 110.065 34.9693 110.391 34.8386 110.712C34.7108 111.033 34.4821 111.389 34.1525 111.781C33.823 112.17 33.3585 112.638 32.7591 113.183L31.4849 114.432V114.491H35.1497V116H28.9281Z" fill="white"/>
</g>
<rect x="41" y="108.39" width="30.0937" height="1" transform="rotate(-33 41 108.39)" fill="#C54600"/>
<rect x="41.5449" y="115" width="30.0937" height="1" transform="rotate(33 41.5449 115)" fill="#C54600"/>
<g clip-path="url(#clip2_62787_1676)">
<rect x="29" y="236" width="34" height="1" fill="#C54600"/>
<g clip-path="url(#clip3_62787_1676)">
<rect x="20" y="224" width="24" height="24" rx="12" fill="#C54600"/>
<path d="M31.9782 240.119C31.3418 240.119 30.775 240.01 30.2779 239.791C29.7836 239.57 29.3929 239.266 29.106 238.879C28.8219 238.49 28.6756 238.041 28.6671 237.533H30.525C30.5364 237.746 30.606 237.933 30.7338 238.095C30.8645 238.254 31.0378 238.378 31.2537 238.466C31.4696 238.554 31.7125 238.598 31.9824 238.598C32.2637 238.598 32.5123 238.548 32.7282 238.449C32.9441 238.349 33.1131 238.212 33.2353 238.036C33.3574 237.859 33.4185 237.656 33.4185 237.426C33.4185 237.193 33.3532 236.987 33.2225 236.808C33.0946 236.626 32.91 236.484 32.6685 236.382C32.4299 236.28 32.1458 236.229 31.8162 236.229H31.0023V234.874H31.8162C32.0946 234.874 32.3404 234.825 32.5534 234.729C32.7694 234.632 32.937 234.499 33.0563 234.328C33.1756 234.155 33.2353 233.953 33.2353 233.723C33.2353 233.504 33.1827 233.312 33.0776 233.148C32.9753 232.98 32.8304 232.849 32.6429 232.756C32.4583 232.662 32.2424 232.615 31.9952 232.615C31.7452 232.615 31.5165 232.661 31.3091 232.751C31.1017 232.839 30.9355 232.966 30.8105 233.131C30.6855 233.295 30.6188 233.489 30.6103 233.71H28.8418C28.8503 233.207 28.9938 232.764 29.2722 232.381C29.5506 231.997 29.9256 231.697 30.3972 231.482C30.8716 231.263 31.4071 231.153 32.0037 231.153C32.606 231.153 33.133 231.263 33.5847 231.482C34.0364 231.7 34.3873 231.996 34.6373 232.368C34.8901 232.737 35.0151 233.152 35.0123 233.612C35.0151 234.101 34.8631 234.509 34.5563 234.835C34.2523 235.162 33.856 235.369 33.3674 235.457V235.526C34.0094 235.608 34.498 235.831 34.8333 236.195C35.1713 236.555 35.339 237.007 35.3361 237.55C35.339 238.047 35.1955 238.489 34.9057 238.875C34.6188 239.261 34.2225 239.565 33.7168 239.787C33.2111 240.009 32.6316 240.119 31.9782 240.119Z" fill="white"/>
</g>
<rect x="63" y="312" width="152" height="1" transform="rotate(-90 63 312)" fill="#C54600"/>
</g>
<g clip-path="url(#clip4_62787_1676)">
<rect x="20" y="46" width="48" height="1" fill="#C54600"/>
<g clip-path="url(#clip5_62787_1676)">
<rect x="20" y="34" width="24" height="24" rx="12" fill="#C54600"/>
<path d="M33.5687 41.2727V50H31.7235V43.0241H31.6724L29.6738 44.277V42.6406L31.8343 41.2727H33.5687Z" fill="white"/>
</g>
</g>
<defs>
<clipPath id="clip0_62787_1676">
<rect width="290" height="292" fill="white" transform="translate(68 20)"/>
</clipPath>
<clipPath id="clip1_62787_1676">
<rect x="20" y="100" width="24" height="24" rx="12" fill="white"/>
</clipPath>
<clipPath id="clip2_62787_1676">
<rect width="44" height="152" fill="white" transform="translate(20 160)"/>
</clipPath>
<clipPath id="clip3_62787_1676">
<rect x="20" y="224" width="24" height="24" rx="12" fill="white"/>
</clipPath>
<clipPath id="clip4_62787_1676">
<rect width="48" height="24" fill="white" transform="translate(20 34)"/>
</clipPath>
<clipPath id="clip5_62787_1676">
<rect x="20" y="34" width="24" height="24" rx="12" fill="white"/>
</clipPath>
</defs>
</svg>
