<svg width="698" height="73" viewBox="0 0 698 73" fill="none" xmlns="http://www.w3.org/2000/svg">
<g clip-path="url(#clip0_60347_11191)">
<path d="M68 20H84.1934V52.583H68V20ZM120.105 20H136.299V52.583H120.105V20ZM99.9033 26.7807L102.215 22.1285L104.51 26.6113C104.796 27.0848 105.029 27.0457 105.486 26.8198L107.459 25.8555L106.176 32.1149C105.908 33.3442 106.615 33.7048 107.385 32.8707L110.198 29.8996L110.945 31.5806C111.196 32.0889 111.574 32.015 112.075 31.9238L114.98 31.32L114.004 34.9471V35.0253C113.89 35.4988 113.662 35.894 114.198 36.1243L115.231 36.6325L109.218 41.6409C108.607 42.2621 108.818 42.4532 109.046 43.1526L109.6 44.8336L104.013 43.8345C103.323 43.6651 102.844 43.6651 102.826 44.2125L103.055 50.5457H101.376L101.604 44.2298C101.604 43.6087 101.125 43.626 99.9956 43.8563L94.8132 44.838L95.4813 43.1569C95.7099 42.514 95.7714 42.0796 95.2527 41.6453L89.1473 36.7063L90.2769 36.0244C90.6022 35.7768 90.6198 35.5161 90.4484 34.9645L89.3011 31.2939L92.2462 31.9151C93.0681 32.1062 93.2967 31.9151 93.5077 31.4807L94.3297 29.817L97.2396 33.0315C97.7538 33.6353 98.4835 33.24 98.2549 32.3712L96.8571 25.5862L99.0198 26.8155C99.3626 27.024 99.7275 27.0804 99.9385 26.6851" fill="#EB2D37"/>
<path d="M176.747 33.7829H175.226L174.866 32.2061C173.591 33.6352 172.435 34.1044 170.778 34.1044C166.712 34.1044 164.277 30.9117 164.277 27.0804C164.277 23.2492 166.712 20.0521 170.778 20.0521C173.745 20.0521 176.233 21.6116 176.593 24.6349H174.277C174.048 22.8713 172.492 21.9677 170.76 21.9677C167.851 21.9677 166.637 24.5045 166.637 27.0761C166.637 29.6476 167.855 32.1844 170.76 32.1844C173.191 32.2192 174.523 30.777 174.563 28.5009H170.954V26.7199H176.747V33.7829ZM183.53 32.3538C181.591 32.3538 180.734 30.6163 180.734 28.9179C180.734 27.2194 181.591 25.4993 183.53 25.4993C185.468 25.4993 186.325 27.2368 186.325 28.9179C186.325 30.5989 185.468 32.3538 183.53 32.3538ZM183.53 34.0436C186.686 34.0436 188.492 31.9021 188.492 28.9179C188.492 25.9337 186.681 23.8095 183.53 23.8095C180.378 23.8095 178.567 25.951 178.567 28.9179C178.567 31.8847 180.374 34.0479 183.53 34.0479V34.0436ZM189.319 24.0745H191.675L194.154 31.5285H194.193L196.589 24.0702H198.831L195.314 33.7786H192.883L189.319 24.0745ZM201.851 28.0708C201.846 27.7333 201.909 27.3983 202.037 27.0853C202.165 26.7724 202.355 26.4878 202.596 26.2483C202.837 26.0088 203.123 25.8192 203.439 25.6906C203.755 25.562 204.094 25.4969 204.435 25.4993C205.899 25.4993 206.831 26.7199 206.905 28.0708H201.851ZM209.072 29.4826C209.433 26.5722 207.534 23.8095 204.435 23.8095C201.508 23.8095 199.683 26.1769 199.683 28.9352C199.683 31.9194 201.415 34.0436 204.492 34.0436C206.642 34.0436 208.448 32.862 208.941 30.7379H206.901C206.519 31.8108 205.763 32.3538 204.505 32.3538C202.699 32.3538 201.868 31.0029 201.868 29.4782L209.072 29.4826ZM210.725 24.0745H212.76V25.951H212.8C213.002 25.3487 213.385 24.8214 213.898 24.439C214.411 24.0565 215.029 23.837 215.67 23.8095C215.944 23.8068 216.217 23.8257 216.488 23.866V25.9337C216.179 25.8832 215.868 25.8513 215.556 25.8381C214.075 25.8381 212.897 27.0196 212.897 29.1611V33.7829H210.725V24.0745ZM217.415 24.0745H219.468V25.5036L219.508 25.5427C219.819 25.0098 220.268 24.5682 220.808 24.2629C221.349 23.9576 221.962 23.7997 222.585 23.8052C224.712 23.8052 226.061 24.9302 226.061 27.1108V33.7829H223.894V27.6799C223.855 26.1595 223.248 25.508 221.974 25.508C220.527 25.508 219.596 26.633 219.596 28.0621V33.7829H217.429V24.0745H217.415ZM228.325 24.0745H230.378V25.4254H230.435C230.739 24.9069 231.181 24.4815 231.714 24.1963C232.247 23.9111 232.85 23.7772 233.455 23.8095C234.651 23.8095 235.776 24.3178 236.211 25.4254C236.54 24.9172 236.996 24.5015 237.535 24.2184C238.074 23.9353 238.678 23.7945 239.288 23.8095C241.358 23.8095 242.576 24.713 242.576 27.0761V33.7829H240.409V28.1099C240.409 26.5679 240.312 25.5036 238.624 25.5036C237.16 25.5036 236.532 26.4636 236.532 28.1099V33.8003H234.365V27.5496C234.365 26.216 233.925 25.5036 232.637 25.5036C231.516 25.5036 230.488 26.4071 230.488 28.0187V33.7829H228.321V24.0745H228.325ZM246.554 28.0708C246.549 27.7333 246.613 27.3983 246.741 27.0853C246.869 26.7724 247.059 26.4878 247.299 26.2483C247.54 26.0088 247.827 25.8192 248.142 25.6906C248.458 25.562 248.797 25.4969 249.138 25.4993C250.602 25.4993 251.534 26.7199 251.609 28.0708H246.554ZM253.776 29.4826C254.136 26.5722 252.237 23.8095 249.138 23.8095C246.211 23.8095 244.387 26.1769 244.387 28.9352C244.387 31.9194 246.114 34.0436 249.196 34.0436C251.345 34.0436 253.152 32.862 253.644 30.7379H251.591C251.213 31.8108 250.453 32.3538 249.196 32.3538C247.389 32.3538 246.558 31.0029 246.558 29.4782L253.776 29.4826ZM255.429 24.0745H257.481V25.5036L257.521 25.5427C257.832 25.0098 258.281 24.5682 258.822 24.2629C259.362 23.9576 259.975 23.7997 260.598 23.8052C262.725 23.8052 264.075 24.9302 264.075 27.1108V33.7829H261.89V27.6799C261.851 26.1595 261.244 25.508 259.969 25.508C258.523 25.508 257.591 26.633 257.591 28.0621V33.7829H255.429V24.0745ZM265.363 24.0745H266.993V21.1598H269.16V24.0702H271.116V25.6687H269.16V30.8595C269.16 31.7283 269.235 32.1931 270.207 32.1931C270.513 32.2054 270.821 32.1791 271.121 32.1149V33.7699C270.646 33.8047 270.189 33.8828 269.714 33.8828C267.451 33.8828 267.033 33.0141 266.993 31.4025V25.6687H265.363V24.0745ZM169.099 51.1365C167.16 51.1365 166.303 49.399 166.303 47.7005C166.303 46.0021 167.165 44.282 169.099 44.282C171.033 44.282 171.894 46.0195 171.894 47.7005C171.894 49.3816 171.046 51.1365 169.099 51.1365ZM169.099 52.8262C172.255 52.8262 174.057 50.6847 174.057 47.7005C174.057 44.7163 172.259 42.5879 169.099 42.5879C165.938 42.5879 164.136 44.7294 164.136 47.6962C164.136 50.663 165.947 52.8262 169.099 52.8262ZM174.901 42.8528H176.514V42.0492C176.514 39.5689 177.833 39.1562 179.231 39.1562C179.741 39.1366 180.252 39.1804 180.752 39.2866V40.9589C180.423 40.8753 180.084 40.8373 179.745 40.846C179.156 40.846 178.681 41.0545 178.681 41.8581V42.8528H180.527V44.4514H178.681V52.5786H176.514V44.4514H174.901V42.8528ZM196.607 43.4175C196.207 41.8755 195.2 40.7504 193.222 40.7504C190.312 40.7504 189.099 43.2872 189.099 45.8588C189.099 48.4303 190.316 50.9671 193.222 50.9671C195.332 50.9671 196.492 49.4077 196.681 47.4529H198.989C198.8 50.663 196.501 52.8827 193.213 52.8827C189.147 52.8827 186.712 49.69 186.712 45.8588C186.712 42.0275 189.147 38.8348 193.213 38.8348C196.29 38.8348 198.686 40.5245 198.971 43.4175H196.598H196.607ZM206.927 49.2991C206.927 50.65 205.446 51.1408 204.492 51.1408C203.732 51.1408 202.497 50.8585 202.497 49.9029C202.497 48.7778 203.332 48.439 204.255 48.287C205.178 48.1349 206.251 48.1349 206.914 47.7049L206.927 49.2991ZM209.094 45.3896C209.094 43.3437 207.081 42.5748 205.138 42.5748C202.971 42.5748 200.822 43.3089 200.672 45.8066H202.84C202.945 44.7598 203.824 44.282 205.024 44.282C205.903 44.282 207.059 44.4905 207.059 45.5851C207.059 46.8448 205.67 46.6754 204.114 46.9577C202.29 47.1619 200.334 47.5572 200.334 49.9984C200.334 51.8967 201.93 52.8349 203.697 52.8349C204.939 52.8691 206.151 52.4483 207.099 51.6534C207.27 52.5222 207.899 52.8349 208.769 52.8349C209.234 52.812 209.693 52.7302 210.136 52.5917V51.1017C209.96 51.1281 209.782 51.1398 209.604 51.1365C209.204 51.1365 209.09 50.9323 209.09 50.4024L209.094 45.3896ZM211.429 42.8528H213.494V44.282L213.534 44.321C213.845 43.7882 214.294 43.3465 214.835 43.0412C215.375 42.736 215.988 42.578 216.611 42.5835C218.738 42.5835 220.088 43.7086 220.088 45.8892V52.5786H217.89V46.4625C217.851 44.9422 217.244 44.2906 215.969 44.2906C214.523 44.2906 213.591 45.4157 213.591 46.8448V52.5786H211.429V42.8528ZM228.4 49.2991C228.4 50.65 226.919 51.1408 225.969 51.1408C225.209 51.1408 223.974 50.8585 223.974 49.9029C223.974 48.7778 224.809 48.439 225.732 48.287C226.655 48.1349 227.727 48.1349 228.391 47.7049L228.4 49.2991ZM230.567 45.3896C230.567 43.3437 228.554 42.5748 226.611 42.5748C224.444 42.5748 222.299 43.3089 222.145 45.8066H224.312C224.409 44.7554 225.261 44.2689 226.479 44.2689C227.358 44.2689 228.514 44.4774 228.514 45.5721C228.514 46.8318 227.125 46.6624 225.569 46.9447C223.745 47.1489 221.789 47.5442 221.789 49.9854C221.789 51.8836 223.385 52.8219 225.152 52.8219C226.394 52.856 227.606 52.4353 228.554 51.6404C228.725 52.5091 229.354 52.8219 230.224 52.8219C230.688 52.799 231.148 52.7172 231.591 52.5786V51.1017C231.415 51.1281 231.237 51.1397 231.059 51.1365C230.659 51.1365 230.545 50.9323 230.545 50.4024L230.567 45.3896ZM234.593 47.8004C234.593 46.0629 235.314 44.2689 237.349 44.2689C239.02 44.2689 240.066 45.546 240.066 47.6875C240.066 49.3773 239.248 51.1235 237.31 51.1235C235.371 51.1235 234.593 49.4858 234.593 47.8004ZM242.163 39.1562H239.996V44.1125H239.956C239.292 43.044 237.921 42.5922 236.686 42.5922C234.536 42.5922 232.431 44.1299 232.431 47.6441C232.431 50.5544 233.93 52.8262 237.029 52.8262C238.264 52.8262 239.499 52.3571 240.07 51.2494H240.11V52.5526H242.163V39.1562ZM250.58 49.2991C250.58 50.65 249.099 51.1408 248.145 51.1408C247.385 51.1408 246.149 50.8585 246.149 49.9029C246.149 48.7778 246.985 48.439 247.908 48.287C248.831 48.1349 249.903 48.1349 250.567 47.7049L250.58 49.2991ZM252.747 45.3896C252.747 43.3437 250.734 42.5748 248.791 42.5748C246.624 42.5748 244.475 43.3089 244.325 45.8066H246.492C246.589 44.7554 247.442 44.2689 248.659 44.2689C249.538 44.2689 250.694 44.4774 250.694 45.5721C250.694 46.8318 249.305 46.6624 247.749 46.9447C245.925 47.1489 243.969 47.5442 243.969 49.9854C243.969 51.8836 245.565 52.8219 247.332 52.8219C248.575 52.8564 249.786 52.4356 250.734 51.6404C250.905 52.5091 251.534 52.8219 252.404 52.8219C252.869 52.799 253.328 52.7172 253.771 52.5786V51.1017C253.595 51.1281 253.417 51.1398 253.24 51.1365C252.84 51.1365 252.725 50.9323 252.725 50.4024L252.747 45.3896Z" fill="black"/>
<path d="M312.163 33.9002H310.637L310.277 32.3234C309.002 33.7526 307.846 34.2217 306.189 34.2217C302.123 34.2217 299.688 31.029 299.688 27.1977C299.688 23.3665 302.127 20.1738 306.193 20.1738C309.16 20.1738 311.648 21.7375 312.009 24.7782H309.692C309.464 23.0146 307.908 22.1111 306.176 22.1111C303.266 22.1111 302.053 24.6479 302.053 27.2194C302.053 29.791 303.27 32.3278 306.176 32.3278C308.607 32.3669 309.938 30.9204 309.978 28.6486H306.369V26.8415H312.145V33.9002H312.163ZM318.945 32.4755C317.007 32.4755 316.149 30.7379 316.149 29.0395C316.149 27.3411 317.007 25.6209 318.945 25.6209C320.884 25.6209 321.741 27.3584 321.741 29.0395C321.741 30.7206 320.884 32.4755 318.945 32.4755ZM318.945 34.1652C322.101 34.1652 323.908 32.0237 323.908 29.0395C323.908 26.0553 322.101 23.9095 318.945 23.9095C315.789 23.9095 313.987 26.0814 313.987 29.0395C313.987 31.9976 315.793 34.1652 318.945 34.1652ZM334.343 33.9002H332.215V32.5537H332.176C331.89 33.0377 331.482 33.4407 330.992 33.7237C330.503 34.0067 329.947 34.1603 329.38 34.1696C326.813 34.1696 325.714 32.8925 325.714 30.3557V24.1918H327.881V30.1472C327.881 31.8586 328.585 32.4755 329.763 32.4755C331.569 32.4755 332.176 31.333 332.176 29.8257V24.1788H334.343V33.9002ZM335.653 24.1918H338.009L340.497 31.6501H340.527L342.923 24.1918H345.165L341.648 33.9002H339.209L335.653 24.1918ZM348.176 28.1925C348.171 27.8549 348.235 27.5199 348.363 27.2069C348.491 26.894 348.681 26.6094 348.921 26.37C349.162 26.1305 349.449 25.9409 349.764 25.8122C350.08 25.6836 350.419 25.6186 350.76 25.6209C352.224 25.6209 353.156 26.8415 353.231 28.1925H348.176ZM355.398 29.5999C355.763 26.6895 353.859 23.9095 350.76 23.9095C347.833 23.9095 346.009 26.2768 346.009 29.0352C346.009 32.0194 347.736 34.1435 350.818 34.1435C352.963 34.1435 354.774 32.962 355.266 30.8378H353.213C352.835 31.9108 352.075 32.4537 350.818 32.4537C349.011 32.4537 348.18 31.1028 348.18 29.5781L355.398 29.5999ZM357.055 24.1918H359.09V26.0814H359.125C359.323 25.4737 359.704 24.9401 360.217 24.552C360.73 24.1639 361.35 23.9398 361.996 23.9095C362.269 23.9068 362.543 23.9257 362.813 23.9659V26.0336C362.505 25.983 362.194 25.9511 361.881 25.938C360.4 25.938 359.222 27.1195 359.222 29.261V33.9002H357.055V24.1918ZM363.741 24.1918H365.793V25.6209L365.833 25.66C366.144 25.1271 366.593 24.6855 367.134 24.3802C367.674 24.0749 368.287 23.917 368.91 23.9225C371.042 23.9225 372.387 25.0475 372.387 27.2281V33.9002H370.22V27.8189C370.185 26.2986 369.574 25.647 368.299 25.647C366.853 25.647 365.925 26.772 365.925 28.2011V33.9002H363.758L363.741 24.1918ZM376.343 28.1925C376.338 27.8549 376.402 27.5199 376.53 27.2069C376.658 26.894 376.848 26.6094 377.088 26.37C377.329 26.1305 377.616 25.9409 377.931 25.8122C378.247 25.6836 378.586 25.6186 378.927 25.6209C380.391 25.6209 381.323 26.8415 381.398 28.1925H376.343ZM383.565 29.5999C383.925 26.6895 382.026 23.9095 378.927 23.9095C376 23.9095 374.176 26.2768 374.176 29.0352C374.176 32.0194 375.908 34.1435 378.985 34.1435C381.134 34.1435 382.941 32.962 383.433 30.8378H381.38C380.998 31.9108 380.237 32.4537 378.985 32.4537C377.178 32.4537 376.347 31.1028 376.347 29.5781L383.565 29.5999ZM385.218 24.1918H387.27V25.5427H387.327C387.629 25.021 388.07 24.592 388.603 24.3037C389.137 24.0153 389.74 23.8788 390.347 23.9095C391.547 23.9095 392.668 24.4177 393.103 25.5254C393.432 25.0172 393.888 24.6014 394.427 24.3183C394.966 24.0352 395.57 23.8944 396.18 23.9095C398.251 23.9095 399.468 24.813 399.468 27.176V33.9002H397.301V28.2533C397.301 26.7112 397.204 25.647 395.516 25.647C394.053 25.647 393.424 26.607 393.424 28.2533V33.9002H391.257V27.6669C391.257 26.3333 390.818 25.6209 389.53 25.6209C388.409 25.6209 387.385 26.5244 387.385 28.136V33.9002H385.218V24.1918ZM403.446 28.1925C403.441 27.8557 403.505 27.5213 403.632 27.209C403.76 26.8966 403.949 26.6124 404.189 26.3731C404.428 26.1337 404.714 25.9439 405.029 25.8148C405.343 25.6856 405.681 25.6197 406.022 25.6209C407.486 25.6209 408.418 26.8415 408.492 28.1925H403.446ZM410.668 29.5999C411.029 26.6895 409.125 23.9095 406.022 23.9095C403.094 23.9095 401.27 26.2768 401.27 29.0352C401.27 32.0194 402.998 34.1435 406.079 34.1435C408.224 34.1435 410.035 32.962 410.527 30.8378H408.475C408.097 31.9108 407.336 32.4537 406.079 32.4537C404.273 32.4537 403.442 31.1028 403.442 29.5781L410.668 29.5999ZM412.321 24.1918H414.374V25.6209L414.413 25.66C414.724 25.1271 415.173 24.6855 415.714 24.3802C416.255 24.0749 416.867 23.917 417.49 23.9225C419.622 23.9225 420.967 25.0475 420.967 27.2281V33.9002H418.769V27.8189C418.734 26.2986 418.123 25.647 416.848 25.647C415.402 25.647 414.47 26.772 414.47 28.2011V33.9002H412.303L412.321 24.1918ZM422.242 24.1918H423.877V21.3032H426.044V24.2135H428V25.812H426.044V30.9768C426.044 31.8456 426.119 32.3104 427.09 32.3104C427.397 32.3233 427.704 32.2985 428.004 32.2366V33.9002C427.53 33.935 427.073 34.0132 426.598 34.0132C424.338 34.0132 423.921 33.1444 423.881 31.5329V25.7903H422.246V24.1918H422.242ZM301.71 47.9351C301.71 46.1976 302.431 44.4036 304.466 44.4036C306.136 44.4036 307.182 45.6807 307.182 47.8222C307.182 49.5119 306.365 51.2581 304.426 51.2581C302.488 51.2581 301.71 49.6031 301.71 47.9351ZM309.275 39.2735H307.121V44.2342H307.081C306.418 43.1656 305.046 42.7139 303.815 42.7139C301.666 42.7139 299.556 44.2516 299.556 47.7657C299.556 50.6761 301.059 52.9479 304.154 52.9479C305.389 52.9479 306.624 52.4788 307.196 51.3711H307.231V52.6742H309.284V39.2735H309.275ZM320.259 52.6873H318.11V51.332C317.824 51.816 317.416 52.219 316.926 52.502C316.437 52.7851 315.881 52.9386 315.314 52.9479C312.747 52.9479 311.648 51.6708 311.648 49.134V42.9745H313.815V48.9255C313.815 50.637 314.519 51.2538 315.697 51.2538C317.503 51.2538 318.11 50.1114 318.11 48.6041V42.9571H320.277V52.6873H320.259ZM337.288 43.5392C336.888 41.9971 335.881 40.8721 333.903 40.8721C330.993 40.8721 329.78 43.4089 329.78 45.9804C329.78 48.5519 330.998 51.0887 333.903 51.0887C336.013 51.0887 337.169 49.5336 337.363 47.5789H339.684C339.494 50.789 337.196 53.0087 333.908 53.0087C329.842 53.0087 327.407 49.816 327.407 45.9847C327.407 42.1535 329.837 38.9608 333.908 38.9608C336.985 38.9608 339.38 40.6505 339.666 43.5435H337.288V43.5392ZM347.609 49.4164C347.609 50.7673 346.127 51.2581 345.178 51.2581C344.418 51.2581 343.182 50.9758 343.182 50.0202C343.182 48.8951 344.018 48.5563 344.941 48.4043C345.864 48.2522 346.936 48.2522 347.6 47.8222V49.4207L347.609 49.4164ZM349.776 45.5069C349.776 43.461 347.763 42.6878 345.82 42.6878C343.653 42.6878 341.508 43.4219 341.354 45.9196H343.521C343.618 44.8684 344.475 44.3775 345.688 44.3775C346.567 44.3775 347.723 44.586 347.723 45.6807C347.723 46.9404 346.334 46.771 344.778 47.0533C342.954 47.2575 340.998 47.6528 340.998 50.094C340.998 51.9923 342.593 52.9305 344.36 52.9305C345.603 52.9651 346.815 52.5442 347.763 51.749C347.934 52.6178 348.563 52.9305 349.437 52.9305C349.902 52.9075 350.361 52.8258 350.804 52.6873V51.2234C350.628 51.2497 350.45 51.2613 350.273 51.2581C349.873 51.2581 349.758 51.054 349.758 50.524V45.5286L349.776 45.5069ZM352.11 42.9745H354.154V44.4036L354.193 44.4427C354.505 43.9098 354.954 43.4682 355.494 43.1629C356.035 42.8576 356.648 42.6997 357.27 42.7052C359.402 42.7052 360.747 43.8302 360.747 46.0108V52.6873H358.58V46.5799C358.545 45.0595 357.934 44.4079 356.659 44.4079C355.213 44.4079 354.286 45.533 354.286 46.9621V52.6873H352.119L352.11 42.9745ZM369.099 49.4164C369.099 50.7673 367.618 51.2581 366.664 51.2581C365.903 51.2581 364.668 50.9758 364.668 50.0202C364.668 48.8951 365.503 48.5563 366.426 48.4043C367.349 48.2522 368.418 48.2348 369.099 47.8005V49.399V49.4164ZM371.266 45.5069C371.266 43.461 369.253 42.6878 367.332 42.6878C365.165 42.6878 363.015 43.4219 362.866 45.9196H365.033C365.13 44.8684 365.982 44.3775 367.2 44.3775C368.079 44.3775 369.231 44.586 369.231 45.6807C369.231 46.9404 367.842 46.771 366.286 47.0533C364.462 47.2575 362.501 47.6528 362.501 50.094C362.501 51.9923 364.101 52.9305 365.864 52.9305C367.106 52.9651 368.318 52.5442 369.266 51.749C369.437 52.6178 370.066 52.9305 370.941 52.9305C371.405 52.9077 371.864 52.826 372.308 52.6873V51.2234C372.132 51.2498 371.954 51.2614 371.776 51.2581C371.376 51.2581 371.262 51.054 371.262 50.524V45.5286L371.266 45.5069ZM375.279 47.9351C375.279 46.1976 376 44.4036 378.035 44.4036C379.705 44.4036 380.752 45.6807 380.752 47.8222C380.752 49.5119 379.934 51.2581 377.996 51.2581C376.057 51.2581 375.279 49.6031 375.279 47.9351ZM382.844 39.2779H380.677V44.2342H380.637C379.974 43.1656 378.607 42.7139 377.371 42.7139C375.222 42.7139 373.116 44.2516 373.116 47.7657C373.116 50.6761 374.62 52.9479 377.714 52.9479C378.949 52.9479 380.185 52.4788 380.756 51.3711H380.796V52.6742H382.848V39.2735L382.844 39.2779ZM391.262 49.4164C391.262 50.7673 389.78 51.2581 388.831 51.2581C388.07 51.2581 386.835 50.9758 386.835 50.0202C386.835 48.8951 387.67 48.5563 388.593 48.4043C389.516 48.2522 390.589 48.2522 391.253 47.8222V49.4207L391.262 49.4164ZM393.429 45.5069C393.429 43.461 391.415 42.6878 389.494 42.6878C387.327 42.6878 385.178 43.4219 385.029 45.9196H387.196C387.292 44.8684 388.145 44.3775 389.363 44.3775C390.242 44.3775 391.393 44.586 391.393 45.6807C391.393 46.9404 390.004 46.771 388.448 47.0533C386.624 47.2575 384.664 47.6528 384.664 50.094C384.664 51.9923 386.264 52.9305 388.026 52.9305C389.269 52.9646 390.481 52.5439 391.429 51.749C391.6 52.6178 392.229 52.9305 393.099 52.9305C393.563 52.9077 394.023 52.8259 394.466 52.6873V51.2234C394.29 51.2498 394.112 51.2614 393.934 51.2581C393.534 51.2581 393.42 51.054 393.42 50.524V45.5286L393.429 45.5069Z" fill="black"/>
</g>
<path d="M621.777 18.2393H627.736V30.1313H621.777V18.2393ZM611.464 24.1853L611.12 24.2996C611.12 24.2996 613.182 26.0148 613.182 26.1292C613.297 26.2435 613.412 26.2435 613.297 26.5866C613.182 26.9296 613.068 27.2726 613.068 27.2726C613.068 27.2726 614.901 26.9296 615.131 26.8153C615.36 26.8153 615.474 26.8152 615.474 27.0439C615.474 27.2726 615.36 29.2165 615.36 29.2165H615.933C615.933 29.2165 615.818 27.1583 615.818 27.0439C615.818 26.8152 615.933 26.8153 616.162 26.8153C616.391 26.8153 618.225 27.2726 618.225 27.2726C618.225 27.2726 618.11 26.8153 617.995 26.5866C617.881 26.2435 617.995 26.2435 618.11 26.1292C618.225 26.0148 620.173 24.2996 620.173 24.2996L619.829 24.1853C619.6 24.0709 619.714 23.9566 619.714 23.8422C619.714 23.7279 620.058 22.5844 620.058 22.5844C620.058 22.5844 619.141 22.8131 619.027 22.8131C618.912 22.8131 618.798 22.8131 618.798 22.6988C618.798 22.5844 618.568 22.127 618.568 22.127C618.568 22.127 617.537 23.2705 617.422 23.3849C617.193 23.6135 616.964 23.3849 617.079 23.1562C617.079 22.9275 617.652 20.5262 617.652 20.5262C617.652 20.5262 617.079 20.8692 616.849 20.9836C616.62 21.0979 616.506 21.0979 616.506 20.8692C616.391 20.6405 615.704 19.3827 615.704 19.2684C615.704 19.2684 615.016 20.6405 614.901 20.8692C614.787 21.0979 614.672 21.0979 614.558 20.9836C614.328 20.8692 613.755 20.5262 613.755 20.5262C613.755 20.5262 614.328 22.9275 614.328 23.1562C614.328 23.3849 614.214 23.4992 613.985 23.3849L612.839 22.127C612.839 22.127 612.724 22.4701 612.609 22.5844C612.609 22.6988 612.495 22.8131 612.38 22.6988C612.151 22.6988 611.234 22.4701 611.234 22.4701C611.234 22.4701 611.578 23.6135 611.693 23.7279C611.693 23.8422 611.693 24.0709 611.464 24.1853ZM603.786 18.2393H609.745V30.1313H603.786V18.2393Z" fill="#EB2D37"/>
<path d="M629.072 53.9113C628.614 54.9404 627.697 55.2834 627.124 55.2834C626.436 55.2834 624.374 55.1691 624.374 49.7948C624.374 49.7948 624.374 38.932 624.374 38.2459C624.374 34.7012 621.623 31.8426 614.519 31.8426C606.841 31.8426 606.726 35.616 606.726 36.5307C606.612 37.5598 607.185 38.7033 609.133 38.7033C610.852 38.7033 611.31 36.7594 611.539 36.0733C611.768 35.2729 611.883 32.986 614.977 32.986C617.613 32.986 619.217 35.2729 619.332 38.5889C619.332 39.1607 619.332 39.5037 619.332 39.8467C619.332 40.0754 619.332 40.1898 619.332 40.4185V40.5328C619.102 41.6763 618.529 42.248 617.498 42.7054C616.123 43.3915 612.112 43.9632 611.654 44.0775C610.049 44.4206 605.58 45.564 605.695 50.2522C605.809 54.826 610.393 56.4269 613.602 56.3125C616.696 56.1982 618.529 54.9404 619.332 54.2543C619.79 53.9113 619.79 53.9113 620.134 54.3686C620.592 54.826 622.082 56.3125 625.634 56.3125C629.301 56.3125 629.76 54.5973 629.989 54.0256C630.103 53.6826 629.301 53.3395 629.072 53.9113ZM614.748 55.1691C611.539 55.1691 610.737 52.5391 610.737 51.167C610.737 49.9092 611.425 47.2792 614.633 45.4497C614.633 45.4497 616.123 44.5349 618.988 43.3915C619.102 43.3915 619.217 43.3915 619.217 43.3915C619.217 43.3915 619.332 43.5058 619.332 43.6202V43.7345V43.8488V48.6514C619.332 52.4248 617.498 55.1691 614.748 55.1691ZM604.205 55.0547C603.747 54.9404 600.882 55.2834 600.882 46.5931C600.882 37.9029 600.882 19.2645 600.882 19.2645C600.882 18.9215 600.882 18.0067 599.85 18.0067C598.819 18.0067 591.943 18.3498 591.485 18.4641C591.027 18.4641 590.683 19.0358 591.485 19.0358C592.287 19.1502 595.954 19.3789 595.954 25.4392C595.954 28.4122 595.954 31.3852 595.954 33.5577C595.954 33.6721 595.954 33.7864 595.954 33.7864C595.954 34.0151 595.954 34.1295 595.84 34.2438C595.84 34.2438 595.84 34.2438 595.84 34.3582C595.725 34.4725 595.61 34.3582 595.267 34.1295C594.694 33.6721 592.058 32.0712 588.735 32.0712C583.349 32.0712 576.702 35.959 576.702 43.9632C576.702 52.5391 582.776 56.6556 589.079 56.6556C592.173 56.6556 594.35 55.2834 595.152 54.826C596.069 54.2543 595.954 54.3686 596.069 55.1691C596.183 55.7408 596.069 56.8843 597.673 56.7699C599.392 56.5412 603.518 56.0838 604.32 55.9695C605.122 55.6264 604.893 55.1691 604.205 55.0547ZM589.995 55.3978C584.953 55.3978 582.317 49.4518 582.317 43.7345C582.317 37.4455 585.87 33.2147 589.652 33.4434C594.579 33.7864 595.84 37.6742 595.954 44.6493C595.954 45.1066 595.954 45.564 595.954 46.1358C595.84 52.9965 592.975 55.3978 589.995 55.3978ZM576.588 53.9113C576.129 54.9404 575.213 55.2834 574.64 55.2834C573.952 55.2834 571.889 55.1691 571.889 49.7948C571.889 49.7948 571.889 38.932 571.889 38.2459C571.889 34.7012 569.139 31.8426 562.034 31.8426C554.356 31.8426 554.242 35.616 554.242 36.5307C554.127 37.5598 554.7 38.7033 556.648 38.7033C558.367 38.7033 558.826 36.7594 559.055 36.0733C559.284 35.2729 559.399 32.986 562.493 32.986C565.128 32.986 566.847 35.2729 566.847 38.7033V38.8176C566.847 38.932 566.847 39.0463 566.847 39.0463V39.3894C566.847 39.5037 566.847 39.7324 566.847 39.8467C566.733 41.5619 566.274 42.1337 564.899 42.8197C563.524 43.5058 559.513 44.0775 559.055 44.1919C557.45 44.5349 552.981 45.6784 553.096 50.3665C553.21 54.9404 557.794 56.5412 561.003 56.4269C564.097 56.3125 565.93 55.0547 566.733 54.3686C567.191 54.0256 567.191 54.0256 567.535 54.483C567.993 54.9404 569.483 56.4269 573.035 56.4269C576.702 56.4269 577.161 54.7117 577.39 54.1399C577.619 53.6826 576.932 53.3395 576.588 53.9113ZM562.378 55.1691C559.169 55.1691 558.367 52.5391 558.367 51.167C558.367 49.9092 559.055 47.2792 562.263 45.4497C562.263 45.4497 563.753 44.5349 566.618 43.3915C566.733 43.3915 566.847 43.3915 566.847 43.3915V43.5058C566.847 43.6202 566.847 43.7345 566.847 43.9632V43.8488C566.847 43.8488 566.847 43.8488 566.847 43.9632V48.7657C566.847 52.4248 565.014 55.1691 562.378 55.1691ZM551.377 55.0547C550.46 54.826 548.856 53.7969 548.856 48.7657V39.6181C548.856 37.4455 549.085 31.8426 540.49 31.8426C536.021 31.8426 533.5 34.1295 533.271 34.2438C532.927 34.5868 532.698 34.7012 532.583 34.1295C532.469 33.6721 532.24 32.986 532.125 32.5286C532.01 32.1856 531.781 31.8426 530.979 31.9569C530.177 32.0712 525.135 32.8717 524.218 33.1004C523.416 33.329 523.645 33.6721 524.218 33.7864C524.791 33.9008 527.541 34.1295 527.541 38.8176C527.541 43.5058 527.541 48.6514 527.541 48.6514C527.541 54.3686 526.395 54.826 525.364 55.1691C523.989 55.5121 524.676 55.9695 525.249 55.9695C525.249 55.9695 535.448 55.9695 535.677 55.9695C536.365 55.9695 536.709 55.2834 535.334 55.0547C533.959 54.826 532.698 54.0256 532.698 49.5661C532.698 49.1087 532.698 44.1919 532.698 43.2771C532.698 40.8759 532.125 33.5577 538.771 33.4434C543.47 33.329 543.928 37.2168 543.928 39.7324V49.4518C543.928 53.4539 542.782 54.7117 541.407 54.9404C540.147 55.1691 540.376 55.7408 541.063 55.7408C541.293 55.7408 551.721 55.7408 551.721 55.7408C552.294 55.9695 552.867 55.3978 551.377 55.0547ZM523.53 53.9113C523.072 54.9404 522.155 55.2834 521.582 55.2834C520.895 55.2834 518.832 55.1691 518.832 49.7948C518.832 49.7948 518.832 38.932 518.832 38.2459C518.832 34.7012 516.082 31.8426 508.977 31.8426C501.299 31.8426 501.184 35.616 501.184 36.5307C501.07 37.5598 501.643 38.7033 503.591 38.7033C505.31 38.7033 505.768 36.7594 505.997 36.0733C506.227 35.2729 506.341 32.986 509.435 32.986C512.071 32.986 513.675 35.2729 513.79 38.5889C513.79 39.1607 513.79 39.5037 513.79 39.8467C513.79 40.0754 513.79 40.3041 513.675 40.4185V40.5328C513.446 41.6763 512.873 42.248 511.842 42.7054C510.467 43.3915 506.456 43.9632 505.997 44.0775C504.393 44.4206 499.924 45.564 500.039 50.2522C500.153 54.826 504.737 56.4269 507.946 56.3125C511.04 56.1982 512.873 54.9404 513.675 54.2543C514.134 53.9113 514.134 53.9113 514.477 54.3686C514.936 54.826 516.426 56.3125 519.978 56.3125C523.645 56.3125 524.103 54.5973 524.333 54.0256C524.562 53.6826 523.76 53.3395 523.53 53.9113ZM509.206 55.1691C505.997 55.1691 505.195 52.5391 505.195 51.167C505.195 49.7948 505.883 47.2792 509.091 45.4497C509.091 45.4497 510.581 44.5349 513.446 43.3915C513.561 43.3915 513.675 43.3915 513.675 43.3915C513.675 43.3915 513.79 43.5058 513.79 43.6202C513.79 43.6202 513.79 43.7345 513.79 43.8488V43.9632V48.7657C513.79 52.4248 511.956 55.1691 509.206 55.1691ZM498.205 45.221C497.059 48.8801 494.882 54.826 486.975 55.0547C478.724 55.1691 473.796 49.5661 473.567 39.1607C473.223 28.0691 478.036 19.6076 485.485 19.3789C493.85 19.2645 496.83 29.2126 496.944 30.6991C497.059 31.8426 498.549 31.7282 498.549 30.5848C498.549 30.013 497.861 20.1793 497.632 19.0358C497.403 17.8924 496.486 18.3498 496.257 18.8072C496.142 19.1502 496.371 18.4641 495.913 19.4932C495.455 20.5223 494.194 19.9506 493.736 19.8363C492.361 19.2645 489.725 17.8924 485.485 18.0067C475.744 18.2354 465.775 25.4392 466.004 38.0172C466.233 50.2522 476.088 57.1129 485.256 56.9986C493.621 56.8842 498.32 51.6244 499.695 45.564C500.153 44.0775 498.663 43.7345 498.205 45.221Z" fill="black"/>
<g clip-path="url(#clip1_60347_11191)">
<rect x="20" y="37" width="48" height="1" fill="#C54600"/>
<g clip-path="url(#clip2_60347_11191)">
<rect x="20" y="25" width="24" height="24" rx="12" fill="#C54600"/>
<path d="M33.1825 32.2727V41H32.1257V33.3807H32.0746L29.9439 34.7955V33.7216L32.1257 32.2727H33.1825Z" fill="white"/>
</g>
</g>
<g clip-path="url(#clip3_60347_11191)">
<rect x="630" y="37" width="48" height="1" fill="#C54600"/>
<g clip-path="url(#clip4_60347_11191)">
<rect x="654" y="25" width="24" height="24" rx="12" fill="#C54600"/>
<path d="M663.271 41V40.233L666.151 37.0795C666.489 36.7102 666.768 36.3892 666.987 36.1165C667.205 35.8409 667.367 35.5824 667.472 35.3409C667.58 35.0966 667.634 34.8409 667.634 34.5739C667.634 34.267 667.56 34.0014 667.413 33.777C667.268 33.5526 667.069 33.3793 666.816 33.2571C666.563 33.1349 666.279 33.0739 665.964 33.0739C665.629 33.0739 665.336 33.1435 665.086 33.2827C664.839 33.419 664.647 33.6108 664.511 33.858C664.377 34.1051 664.31 34.3949 664.31 34.7273H663.305C663.305 34.2159 663.423 33.767 663.658 33.3807C663.894 32.9943 664.215 32.6932 664.621 32.4773C665.031 32.2614 665.489 32.1534 665.998 32.1534C666.509 32.1534 666.962 32.2614 667.357 32.4773C667.752 32.6932 668.062 32.9844 668.286 33.3509C668.511 33.7173 668.623 34.125 668.623 34.5739C668.623 34.8949 668.565 35.2088 668.448 35.5156C668.335 35.8196 668.136 36.1591 667.852 36.5341C667.57 36.9062 667.18 37.3608 666.68 37.8977L664.719 39.9943V40.0625H668.776V41H663.271Z" fill="white"/>
</g>
</g>
<defs>
<clipPath id="clip0_60347_11191">
<rect width="360" height="33" fill="white" transform="translate(68 20)"/>
</clipPath>
<clipPath id="clip1_60347_11191">
<rect width="48" height="24" fill="white" transform="translate(20 25)"/>
</clipPath>
<clipPath id="clip2_60347_11191">
<rect x="20" y="25" width="24" height="24" rx="12" fill="white"/>
</clipPath>
<clipPath id="clip3_60347_11191">
<rect width="48" height="24" fill="white" transform="translate(630 25)"/>
</clipPath>
<clipPath id="clip4_60347_11191">
<rect x="654" y="25" width="24" height="24" rx="12" fill="white"/>
</clipPath>
</defs>
</svg>
