<svg width="306" height="72" viewBox="0 0 306 72" fill="none" xmlns="http://www.w3.org/2000/svg">
<g clip-path="url(#clip0_207_2690)">
<path d="M65.88 60.72C65.88 63.1333 65.22 64.9533 63.9 66.18C62.5933 67.3933 60.7667 68 58.42 68H54.44V53.72H58.84C60.28 53.72 61.5267 53.9867 62.58 54.52C63.6333 55.0533 64.4467 55.84 65.02 56.88C65.5933 57.9067 65.88 59.1867 65.88 60.72ZM63.98 60.78C63.98 58.8733 63.5067 57.48 62.56 56.6C61.6267 55.7067 60.3 55.26 58.58 55.26H56.24V66.46H58.18C62.0467 66.46 63.98 64.5667 63.98 60.78ZM72.8694 57.1C74.176 57.1 75.1427 57.3867 75.7694 57.96C76.396 58.5333 76.7094 59.4467 76.7094 60.7V68H75.4294L75.0894 66.48H75.0094C74.5427 67.0667 74.0494 67.5 73.5294 67.78C73.0227 68.06 72.316 68.2 71.4094 68.2C70.436 68.2 69.6294 67.9467 68.9894 67.44C68.3494 66.92 68.0294 66.1133 68.0294 65.02C68.0294 63.9533 68.4494 63.1333 69.2894 62.56C70.1294 61.9733 71.4227 61.6533 73.1694 61.6L74.9894 61.54V60.9C74.9894 60.0067 74.796 59.3867 74.4094 59.04C74.0227 58.6933 73.476 58.52 72.7694 58.52C72.2094 58.52 71.676 58.6067 71.1694 58.78C70.6627 58.94 70.1894 59.1267 69.7494 59.34L69.2094 58.02C69.676 57.7667 70.2294 57.5533 70.8694 57.38C71.5094 57.1933 72.176 57.1 72.8694 57.1ZM73.3894 62.82C72.056 62.8733 71.1294 63.0867 70.6094 63.46C70.1027 63.8333 69.8494 64.36 69.8494 65.04C69.8494 65.64 70.0294 66.08 70.3894 66.36C70.7627 66.64 71.236 66.78 71.8094 66.78C72.716 66.78 73.4694 66.5333 74.0694 66.04C74.6694 65.5333 74.9694 64.76 74.9694 63.72V62.76L73.3894 62.82ZM83.6003 66.76C83.867 66.76 84.1403 66.74 84.4203 66.7C84.7003 66.6467 84.927 66.5933 85.1003 66.54V67.88C84.9136 67.9733 84.647 68.0467 84.3003 68.1C83.9536 68.1667 83.6203 68.2 83.3003 68.2C82.7403 68.2 82.2203 68.1067 81.7403 67.92C81.2736 67.72 80.8936 67.38 80.6003 66.9C80.307 66.42 80.1603 65.7467 80.1603 64.88V58.64H78.6403V57.8L80.1803 57.1L80.8803 54.82H81.9203V57.28H85.0203V58.64H81.9203V64.84C81.9203 65.4933 82.0736 65.98 82.3803 66.3C82.7003 66.6067 83.107 66.76 83.6003 66.76ZM91.3869 57.08C92.3069 57.08 93.0935 57.28 93.7469 57.68C94.4135 58.08 94.9202 58.6467 95.2669 59.38C95.6269 60.1 95.8069 60.9467 95.8069 61.92V62.98H88.4669C88.4935 64.1933 88.8002 65.12 89.3869 65.76C89.9869 66.3867 90.8202 66.7 91.8869 66.7C92.5669 66.7 93.1669 66.64 93.6869 66.52C94.2202 66.3867 94.7669 66.2 95.3269 65.96V67.5C94.7802 67.74 94.2402 67.9133 93.7069 68.02C93.1735 68.14 92.5402 68.2 91.8069 68.2C90.7935 68.2 89.8935 67.9933 89.1069 67.58C88.3335 67.1667 87.7269 66.5533 87.2869 65.74C86.8602 64.9133 86.6469 63.9067 86.6469 62.72C86.6469 61.5467 86.8402 60.54 87.2269 59.7C87.6269 58.86 88.1802 58.2133 88.8869 57.76C89.6069 57.3067 90.4402 57.08 91.3869 57.08ZM91.3669 58.52C90.5269 58.52 89.8602 58.7933 89.3669 59.34C88.8869 59.8733 88.6002 60.62 88.5069 61.58H93.9669C93.9535 60.6733 93.7402 59.94 93.3269 59.38C92.9135 58.8067 92.2602 58.52 91.3669 58.52ZM115.491 57.08C116.705 57.08 117.611 57.3933 118.211 58.02C118.811 58.6333 119.111 59.6333 119.111 61.02V68H117.371V61.1C117.371 59.4067 116.645 58.56 115.191 58.56C114.151 58.56 113.405 58.86 112.951 59.46C112.511 60.06 112.291 60.9333 112.291 62.08V68H110.551V61.1C110.551 59.4067 109.818 58.56 108.351 58.56C107.271 58.56 106.525 58.8933 106.111 59.56C105.698 60.2267 105.491 61.1867 105.491 62.44V68H103.731V57.28H105.151L105.411 58.74H105.511C105.845 58.18 106.291 57.7667 106.851 57.5C107.425 57.22 108.031 57.08 108.671 57.08C110.351 57.08 111.445 57.68 111.951 58.88H112.051C112.411 58.2667 112.898 57.8133 113.511 57.52C114.138 57.2267 114.798 57.08 115.491 57.08ZM131.743 62.62C131.743 64.3933 131.289 65.7667 130.383 66.74C129.489 67.7133 128.276 68.2 126.743 68.2C125.796 68.2 124.949 67.9867 124.203 67.56C123.469 67.12 122.889 66.4867 122.463 65.66C122.036 64.82 121.823 63.8067 121.823 62.62C121.823 60.8467 122.269 59.48 123.163 58.52C124.056 57.56 125.269 57.08 126.803 57.08C127.776 57.08 128.629 57.3 129.363 57.74C130.109 58.1667 130.689 58.7933 131.103 59.62C131.529 60.4333 131.743 61.4333 131.743 62.62ZM123.643 62.62C123.643 63.8867 123.889 64.8933 124.383 65.64C124.889 66.3733 125.689 66.74 126.783 66.74C127.863 66.74 128.656 66.3733 129.163 65.64C129.669 64.8933 129.923 63.8867 129.923 62.62C129.923 61.3533 129.669 60.36 129.163 59.64C128.656 58.92 127.856 58.56 126.763 58.56C125.669 58.56 124.876 58.92 124.383 59.64C123.889 60.36 123.643 61.3533 123.643 62.62ZM138.332 68.2C136.999 68.2 135.932 67.74 135.132 66.82C134.332 65.8867 133.932 64.5 133.932 62.66C133.932 60.82 134.332 59.4333 135.132 58.5C135.945 57.5533 137.019 57.08 138.352 57.08C139.179 57.08 139.852 57.2333 140.372 57.54C140.905 57.8467 141.339 58.22 141.672 58.66H141.792C141.779 58.4867 141.752 58.2333 141.712 57.9C141.685 57.5533 141.672 57.28 141.672 57.08V52.8H143.432V68H142.012L141.752 66.56H141.672C141.352 67.0133 140.925 67.4 140.392 67.72C139.859 68.04 139.172 68.2 138.332 68.2ZM138.612 66.74C139.745 66.74 140.539 66.4333 140.992 65.82C141.459 65.1933 141.692 64.2533 141.692 63V62.68C141.692 61.3467 141.472 60.3267 141.032 59.62C140.592 58.9 139.779 58.54 138.592 58.54C137.645 58.54 136.932 58.92 136.452 59.68C135.985 60.4267 135.752 61.4333 135.752 62.7C135.752 63.98 135.985 64.9733 136.452 65.68C136.932 66.3867 137.652 66.74 138.612 66.74ZM147.737 53.26C148.003 53.26 148.237 53.3533 148.437 53.54C148.65 53.7133 148.757 53.9933 148.757 54.38C148.757 54.7533 148.65 55.0333 148.437 55.22C148.237 55.4067 148.003 55.5 147.737 55.5C147.443 55.5 147.197 55.4067 146.997 55.22C146.797 55.0333 146.697 54.7533 146.697 54.38C146.697 53.9933 146.797 53.7133 146.997 53.54C147.197 53.3533 147.443 53.26 147.737 53.26ZM148.597 57.28V68H146.837V57.28H148.597ZM156.933 58.64H154.233V68H152.473V58.64H150.593V57.82L152.473 57.22V56.6C152.473 55.2133 152.78 54.22 153.393 53.62C154.006 53.0067 154.86 52.7 155.953 52.7C156.38 52.7 156.766 52.74 157.113 52.82C157.473 52.8867 157.78 52.9667 158.033 53.06L157.573 54.44C157.36 54.3733 157.113 54.3067 156.833 54.24C156.553 54.1733 156.266 54.14 155.973 54.14C155.386 54.14 154.946 54.34 154.653 54.74C154.373 55.1267 154.233 55.74 154.233 56.58V57.28H156.933V58.64ZM159.773 53.26C160.04 53.26 160.273 53.3533 160.473 53.54C160.686 53.7133 160.793 53.9933 160.793 54.38C160.793 54.7533 160.686 55.0333 160.473 55.22C160.273 55.4067 160.04 55.5 159.773 55.5C159.48 55.5 159.233 55.4067 159.033 55.22C158.833 55.0333 158.733 54.7533 158.733 54.38C158.733 53.9933 158.833 53.7133 159.033 53.54C159.233 53.3533 159.48 53.26 159.773 53.26ZM160.633 57.28V68H158.873V57.28H160.633ZM168.164 57.08C169.084 57.08 169.871 57.28 170.524 57.68C171.191 58.08 171.698 58.6467 172.044 59.38C172.404 60.1 172.584 60.9467 172.584 61.92V62.98H165.244C165.271 64.1933 165.578 65.12 166.164 65.76C166.764 66.3867 167.598 66.7 168.664 66.7C169.344 66.7 169.944 66.64 170.464 66.52C170.998 66.3867 171.544 66.2 172.104 65.96V67.5C171.558 67.74 171.018 67.9133 170.484 68.02C169.951 68.14 169.318 68.2 168.584 68.2C167.571 68.2 166.671 67.9933 165.884 67.58C165.111 67.1667 164.504 66.5533 164.064 65.74C163.638 64.9133 163.424 63.9067 163.424 62.72C163.424 61.5467 163.618 60.54 164.004 59.7C164.404 58.86 164.958 58.2133 165.664 57.76C166.384 57.3067 167.218 57.08 168.164 57.08ZM168.144 58.52C167.304 58.52 166.638 58.7933 166.144 59.34C165.664 59.8733 165.378 60.62 165.284 61.58H170.744C170.731 60.6733 170.518 59.94 170.104 59.38C169.691 58.8067 169.038 58.52 168.144 58.52ZM179.113 68.2C177.78 68.2 176.713 67.74 175.913 66.82C175.113 65.8867 174.713 64.5 174.713 62.66C174.713 60.82 175.113 59.4333 175.913 58.5C176.727 57.5533 177.8 57.08 179.133 57.08C179.96 57.08 180.633 57.2333 181.153 57.54C181.687 57.8467 182.12 58.22 182.453 58.66H182.573C182.56 58.4867 182.533 58.2333 182.493 57.9C182.467 57.5533 182.453 57.28 182.453 57.08V52.8H184.213V68H182.793L182.533 66.56H182.453C182.133 67.0133 181.707 67.4 181.173 67.72C180.64 68.04 179.953 68.2 179.113 68.2ZM179.393 66.74C180.527 66.74 181.32 66.4333 181.773 65.82C182.24 65.1933 182.473 64.2533 182.473 63V62.68C182.473 61.3467 182.253 60.3267 181.813 59.62C181.373 58.9 180.56 58.54 179.373 58.54C178.427 58.54 177.713 58.92 177.233 59.68C176.767 60.4267 176.533 61.4333 176.533 62.7C176.533 63.98 176.767 64.9733 177.233 65.68C177.713 66.3867 178.433 66.74 179.393 66.74ZM187.358 58.36C187.358 57.8533 187.478 57.5 187.718 57.3C187.958 57.1 188.245 57 188.578 57C188.925 57 189.218 57.1 189.458 57.3C189.711 57.5 189.838 57.8533 189.838 58.36C189.838 58.84 189.711 59.1867 189.458 59.4C189.218 59.6133 188.925 59.72 188.578 59.72C188.245 59.72 187.958 59.6133 187.718 59.4C187.478 59.1867 187.358 58.84 187.358 58.36ZM187.358 66.92C187.358 66.4267 187.478 66.08 187.718 65.88C187.958 65.68 188.245 65.58 188.578 65.58C188.925 65.58 189.218 65.68 189.458 65.88C189.711 66.08 189.838 66.4267 189.838 66.92C189.838 67.4 189.711 67.7467 189.458 67.96C189.218 68.1733 188.925 68.28 188.578 68.28C188.245 68.28 187.958 68.1733 187.718 67.96C187.478 67.7467 187.358 67.4 187.358 66.92Z" fill="#333333"/>
<path d="M210.9 68H201.46V66.54L205.2 62.76C205.92 62.04 206.527 61.4 207.02 60.84C207.513 60.28 207.887 59.7333 208.14 59.2C208.393 58.6533 208.52 58.06 208.52 57.42C208.52 56.6333 208.287 56.04 207.82 55.64C207.353 55.2267 206.747 55.02 206 55.02C205.307 55.02 204.693 55.14 204.16 55.38C203.64 55.62 203.107 55.9533 202.56 56.38L201.62 55.2C202.18 54.7333 202.82 54.34 203.54 54.02C204.273 53.6867 205.093 53.52 206 53.52C207.333 53.52 208.387 53.86 209.16 54.54C209.933 55.2067 210.32 56.1333 210.32 57.32C210.32 58.0667 210.167 58.7667 209.86 59.42C209.553 60.0733 209.127 60.72 208.58 61.36C208.033 61.9867 207.393 62.66 206.66 63.38L203.68 66.32V66.4H210.9V68ZM222.405 60.84C222.405 62.3733 222.245 63.6933 221.925 64.8C221.605 65.8933 221.099 66.7333 220.405 67.32C219.712 67.9067 218.792 68.2 217.645 68.2C216.032 68.2 214.839 67.5533 214.065 66.26C213.305 64.9533 212.925 63.1467 212.925 60.84C212.925 59.2933 213.079 57.9733 213.385 56.88C213.705 55.7867 214.212 54.9533 214.905 54.38C215.599 53.7933 216.512 53.5 217.645 53.5C219.245 53.5 220.439 54.1467 221.225 55.44C222.012 56.72 222.405 58.52 222.405 60.84ZM214.685 60.84C214.685 62.8 214.905 64.2667 215.345 65.24C215.799 66.2133 216.565 66.7 217.645 66.7C218.712 66.7 219.472 66.22 219.925 65.26C220.392 64.2867 220.625 62.8133 220.625 60.84C220.625 58.8933 220.392 57.4333 219.925 56.46C219.472 55.4867 218.712 55 217.645 55C216.565 55 215.799 55.4867 215.345 56.46C214.905 57.4333 214.685 58.8933 214.685 60.84ZM233.791 68H224.351V66.54L228.091 62.76C228.811 62.04 229.417 61.4 229.911 60.84C230.404 60.28 230.777 59.7333 231.031 59.2C231.284 58.6533 231.411 58.06 231.411 57.42C231.411 56.6333 231.177 56.04 230.711 55.64C230.244 55.2267 229.637 55.02 228.891 55.02C228.197 55.02 227.584 55.14 227.051 55.38C226.531 55.62 225.997 55.9533 225.451 56.38L224.511 55.2C225.071 54.7333 225.711 54.34 226.431 54.02C227.164 53.6867 227.984 53.52 228.891 53.52C230.224 53.52 231.277 53.86 232.051 54.54C232.824 55.2067 233.211 56.1333 233.211 57.32C233.211 58.0667 233.057 58.7667 232.751 59.42C232.444 60.0733 232.017 60.72 231.471 61.36C230.924 61.9867 230.284 62.66 229.551 63.38L226.571 66.32V66.4H233.791V68ZM244.696 57.06C244.696 58.02 244.429 58.7867 243.896 59.36C243.363 59.92 242.643 60.2933 241.736 60.48V60.56C242.883 60.6933 243.736 61.0533 244.296 61.64C244.856 62.2267 245.136 62.9933 245.136 63.94C245.136 64.7667 244.943 65.5067 244.556 66.16C244.169 66.8 243.569 67.3 242.756 67.66C241.956 68.02 240.923 68.2 239.656 68.2C238.909 68.2 238.216 68.14 237.576 68.02C236.936 67.9133 236.323 67.7133 235.736 67.42V65.78C236.336 66.0733 236.983 66.3067 237.676 66.48C238.369 66.64 239.036 66.72 239.676 66.72C240.956 66.72 241.876 66.4733 242.436 65.98C243.009 65.4733 243.296 64.78 243.296 63.9C243.296 63.0067 242.943 62.3667 242.236 61.98C241.543 61.58 240.563 61.38 239.296 61.38H237.916V59.88H239.316C240.489 59.88 241.376 59.6333 241.976 59.14C242.589 58.6467 242.896 57.9933 242.896 57.18C242.896 56.4867 242.663 55.9533 242.196 55.58C241.729 55.1933 241.096 55 240.296 55C239.523 55 238.863 55.1133 238.316 55.34C237.769 55.5667 237.229 55.8533 236.696 56.2L235.816 55C236.323 54.6 236.949 54.2533 237.696 53.96C238.456 53.6667 239.316 53.52 240.276 53.52C241.769 53.52 242.876 53.8533 243.596 54.52C244.329 55.1867 244.696 56.0333 244.696 57.06ZM247.081 63.42V61.86H251.921V63.42H247.081ZM263.187 60.84C263.187 62.3733 263.027 63.6933 262.707 64.8C262.387 65.8933 261.88 66.7333 261.187 67.32C260.493 67.9067 259.573 68.2 258.427 68.2C256.813 68.2 255.62 67.5533 254.847 66.26C254.087 64.9533 253.707 63.1467 253.707 60.84C253.707 59.2933 253.86 57.9733 254.167 56.88C254.487 55.7867 254.993 54.9533 255.687 54.38C256.38 53.7933 257.293 53.5 258.427 53.5C260.027 53.5 261.22 54.1467 262.007 55.44C262.793 56.72 263.187 58.52 263.187 60.84ZM255.467 60.84C255.467 62.8 255.687 64.2667 256.127 65.24C256.58 66.2133 257.347 66.7 258.427 66.7C259.493 66.7 260.253 66.22 260.707 65.26C261.173 64.2867 261.407 62.8133 261.407 60.84C261.407 58.8933 261.173 57.4333 260.707 56.46C260.253 55.4867 259.493 55 258.427 55C257.347 55 256.58 55.4867 256.127 56.46C255.687 57.4333 255.467 58.8933 255.467 60.84ZM269.872 53.52C271.125 53.52 272.152 53.8133 272.952 54.4C273.752 54.9867 274.152 55.8333 274.152 56.94C274.152 57.5133 274.025 58.0133 273.772 58.44C273.532 58.8667 273.205 59.2467 272.792 59.58C272.379 59.9 271.925 60.1867 271.432 60.44C272.019 60.72 272.552 61.04 273.032 61.4C273.512 61.7467 273.892 62.1533 274.172 62.62C274.465 63.0867 274.612 63.6467 274.612 64.3C274.612 65.5 274.185 66.4533 273.332 67.16C272.492 67.8533 271.359 68.2 269.932 68.2C268.399 68.2 267.219 67.8667 266.392 67.2C265.565 66.52 265.152 65.5733 265.152 64.36C265.152 63.7067 265.285 63.14 265.552 62.66C265.832 62.18 266.199 61.7667 266.652 61.42C267.105 61.0733 267.592 60.78 268.112 60.54C267.419 60.14 266.825 59.66 266.332 59.1C265.852 58.5267 265.612 57.8 265.612 56.92C265.612 56.1867 265.799 55.5733 266.172 55.08C266.545 54.5733 267.052 54.1867 267.692 53.92C268.332 53.6533 269.059 53.52 269.872 53.52ZM269.852 54.94C269.119 54.94 268.512 55.12 268.032 55.48C267.565 55.8267 267.332 56.3333 267.332 57C267.332 57.4933 267.445 57.9067 267.672 58.24C267.912 58.5733 268.232 58.86 268.632 59.1C269.032 59.3267 269.472 59.5467 269.952 59.76C270.645 59.4667 271.225 59.1133 271.692 58.7C272.172 58.2867 272.412 57.72 272.412 57C272.412 56.3333 272.179 55.8267 271.712 55.48C271.245 55.12 270.625 54.94 269.852 54.94ZM266.872 64.38C266.872 65.0733 267.119 65.6533 267.612 66.12C268.105 66.5733 268.865 66.8 269.892 66.8C270.865 66.8 271.605 66.5733 272.112 66.12C272.632 65.6533 272.892 65.0533 272.892 64.32C272.892 63.6267 272.619 63.0533 272.072 62.6C271.525 62.1333 270.799 61.7267 269.892 61.38L269.572 61.26C268.692 61.6333 268.019 62.0667 267.552 62.56C267.099 63.04 266.872 63.6467 266.872 64.38ZM276.417 63.42V61.86H281.257V63.42H276.417ZM292.463 68H283.023V66.54L286.763 62.76C287.483 62.04 288.089 61.4 288.583 60.84C289.076 60.28 289.449 59.7333 289.703 59.2C289.956 58.6533 290.083 58.06 290.083 57.42C290.083 56.6333 289.849 56.04 289.383 55.64C288.916 55.2267 288.309 55.02 287.563 55.02C286.869 55.02 286.256 55.14 285.723 55.38C285.203 55.62 284.669 55.9533 284.123 56.38L283.183 55.2C283.743 54.7333 284.383 54.34 285.103 54.02C285.836 53.6867 286.656 53.52 287.563 53.52C288.896 53.52 289.949 53.86 290.723 54.54C291.496 55.2067 291.883 56.1333 291.883 57.32C291.883 58.0667 291.729 58.7667 291.423 59.42C291.116 60.0733 290.689 60.72 290.143 61.36C289.596 61.9867 288.956 62.66 288.223 63.38L285.243 66.32V66.4H292.463V68ZM303.908 68H294.468V66.54L298.208 62.76C298.928 62.04 299.534 61.4 300.028 60.84C300.521 60.28 300.894 59.7333 301.148 59.2C301.401 58.6533 301.528 58.06 301.528 57.42C301.528 56.6333 301.294 56.04 300.828 55.64C300.361 55.2267 299.754 55.02 299.008 55.02C298.314 55.02 297.701 55.14 297.168 55.38C296.648 55.62 296.114 55.9533 295.568 56.38L294.628 55.2C295.188 54.7333 295.828 54.34 296.548 54.02C297.281 53.6867 298.101 53.52 299.008 53.52C300.341 53.52 301.394 53.86 302.168 54.54C302.941 55.2067 303.328 56.1333 303.328 57.32C303.328 58.0667 303.174 58.7667 302.868 59.42C302.561 60.0733 302.134 60.72 301.588 61.36C301.041 61.9867 300.401 62.66 299.668 63.38L296.688 66.32V66.4H303.908V68Z" fill="#333333"/>
</g>
<g clip-path="url(#clip1_207_2690)">
<rect x="253.5" width="1" height="48" fill="#C54600"/>
<g clip-path="url(#clip2_207_2690)">
<rect x="241.5" width="24" height="24" rx="12" fill="#C54600"/>
<path d="M250.771 16V15.233L253.651 12.0795C253.989 11.7102 254.268 11.3892 254.487 11.1165C254.705 10.8409 254.867 10.5824 254.972 10.3409C255.08 10.0966 255.134 9.84091 255.134 9.57386C255.134 9.26705 255.06 9.00142 254.913 8.77699C254.768 8.55256 254.569 8.37926 254.316 8.2571C254.063 8.13494 253.779 8.07386 253.464 8.07386C253.129 8.07386 252.836 8.14347 252.586 8.28267C252.339 8.41903 252.147 8.6108 252.011 8.85795C251.877 9.10511 251.81 9.39489 251.81 9.72727H250.805C250.805 9.21591 250.923 8.76705 251.158 8.38068C251.394 7.99432 251.715 7.69318 252.121 7.47727C252.531 7.26136 252.989 7.15341 253.498 7.15341C254.009 7.15341 254.462 7.26136 254.857 7.47727C255.252 7.69318 255.562 7.98437 255.786 8.35085C256.011 8.71733 256.123 9.125 256.123 9.57386C256.123 9.89489 256.065 10.2088 255.948 10.5156C255.835 10.8196 255.636 11.1591 255.352 11.5341C255.07 11.9062 254.68 12.3608 254.18 12.8977L252.219 14.9943V15.0625H256.276V16H250.771Z" fill="white"/>
</g>
</g>
<g clip-path="url(#clip3_207_2690)">
<rect y="60" width="48" height="1" fill="#C54600"/>
<g clip-path="url(#clip4_207_2690)">
<rect y="48" width="24" height="24" rx="12" fill="#C54600"/>
<path d="M13.1825 55.2727V64H12.1257V56.3807H12.0746L9.94389 57.7955V56.7216L12.1257 55.2727H13.1825Z" fill="white"/>
</g>
</g>
<defs>
<clipPath id="clip0_207_2690">
<rect width="253" height="24" fill="white" transform="translate(52.5 48)"/>
</clipPath>
<clipPath id="clip1_207_2690">
<rect width="24" height="48" fill="white" transform="translate(241.5)"/>
</clipPath>
<clipPath id="clip2_207_2690">
<rect x="241.5" width="24" height="24" rx="12" fill="white"/>
</clipPath>
<clipPath id="clip3_207_2690">
<rect width="48" height="24" fill="white" transform="translate(0 48)"/>
</clipPath>
<clipPath id="clip4_207_2690">
<rect y="48" width="24" height="24" rx="12" fill="white"/>
</clipPath>
</defs>
</svg>
