<svg width="555" height="320" viewBox="0 0 555 320" fill="none" xmlns="http://www.w3.org/2000/svg">
<path d="M126.46 144H124.66V131.3H120.2V129.72H130.9V131.3H126.46V144ZM134.573 133.26C134.573 133.793 134.54 134.293 134.473 134.76H134.593C134.94 134.213 135.407 133.8 135.993 133.52C136.593 133.24 137.24 133.1 137.933 133.1C139.24 133.1 140.22 133.413 140.873 134.04C141.527 134.653 141.853 135.647 141.853 137.02V144H140.113V137.14C140.113 135.42 139.313 134.56 137.713 134.56C136.513 134.56 135.687 134.9 135.233 135.58C134.793 136.247 134.573 137.207 134.573 138.46V144H132.813V128.8H134.573V133.26ZM146.077 129.26C146.343 129.26 146.577 129.353 146.777 129.54C146.99 129.713 147.097 129.993 147.097 130.38C147.097 130.753 146.99 131.033 146.777 131.22C146.577 131.407 146.343 131.5 146.077 131.5C145.783 131.5 145.537 131.407 145.337 131.22C145.137 131.033 145.037 130.753 145.037 130.38C145.037 129.993 145.137 129.713 145.337 129.54C145.537 129.353 145.783 129.26 146.077 129.26ZM146.937 133.28V144H145.177V133.28H146.937ZM157.313 141.04C157.313 142.08 156.926 142.867 156.153 143.4C155.379 143.933 154.339 144.2 153.033 144.2C152.286 144.2 151.639 144.14 151.093 144.02C150.559 143.9 150.086 143.733 149.673 143.52V141.92C150.099 142.133 150.613 142.333 151.213 142.52C151.826 142.693 152.446 142.78 153.073 142.78C153.966 142.78 154.613 142.64 155.013 142.36C155.413 142.067 155.613 141.68 155.613 141.2C155.613 140.933 155.539 140.693 155.393 140.48C155.246 140.267 154.979 140.053 154.593 139.84C154.219 139.627 153.679 139.387 152.973 139.12C152.279 138.853 151.686 138.587 151.193 138.32C150.699 138.053 150.319 137.733 150.053 137.36C149.786 136.987 149.653 136.507 149.653 135.92C149.653 135.013 150.019 134.313 150.753 133.82C151.499 133.327 152.473 133.08 153.673 133.08C154.326 133.08 154.933 133.147 155.493 133.28C156.066 133.4 156.599 133.573 157.093 133.8L156.493 135.2C156.039 135.013 155.566 134.853 155.073 134.72C154.579 134.587 154.073 134.52 153.553 134.52C152.833 134.52 152.279 134.64 151.893 134.88C151.519 135.107 151.333 135.42 151.333 135.82C151.333 136.113 151.419 136.367 151.593 136.58C151.766 136.78 152.053 136.98 152.453 137.18C152.866 137.367 153.413 137.593 154.093 137.86C154.773 138.113 155.353 138.373 155.833 138.64C156.313 138.907 156.679 139.233 156.933 139.62C157.186 139.993 157.313 140.467 157.313 141.04ZM165.998 129.26C166.265 129.26 166.498 129.353 166.698 129.54C166.912 129.713 167.018 129.993 167.018 130.38C167.018 130.753 166.912 131.033 166.698 131.22C166.498 131.407 166.265 131.5 165.998 131.5C165.705 131.5 165.458 131.407 165.258 131.22C165.058 131.033 164.958 130.753 164.958 130.38C164.958 129.993 165.058 129.713 165.258 129.54C165.458 129.353 165.705 129.26 165.998 129.26ZM166.858 133.28V144H165.098V133.28H166.858ZM177.235 141.04C177.235 142.08 176.848 142.867 176.075 143.4C175.301 143.933 174.261 144.2 172.955 144.2C172.208 144.2 171.561 144.14 171.015 144.02C170.481 143.9 170.008 143.733 169.595 143.52V141.92C170.021 142.133 170.535 142.333 171.135 142.52C171.748 142.693 172.368 142.78 172.995 142.78C173.888 142.78 174.535 142.64 174.935 142.36C175.335 142.067 175.535 141.68 175.535 141.2C175.535 140.933 175.461 140.693 175.315 140.48C175.168 140.267 174.901 140.053 174.515 139.84C174.141 139.627 173.601 139.387 172.895 139.12C172.201 138.853 171.608 138.587 171.115 138.32C170.621 138.053 170.241 137.733 169.975 137.36C169.708 136.987 169.575 136.507 169.575 135.92C169.575 135.013 169.941 134.313 170.675 133.82C171.421 133.327 172.395 133.08 173.595 133.08C174.248 133.08 174.855 133.147 175.415 133.28C175.988 133.4 176.521 133.573 177.015 133.8L176.415 135.2C175.961 135.013 175.488 134.853 174.995 134.72C174.501 134.587 173.995 134.52 173.475 134.52C172.755 134.52 172.201 134.64 171.815 134.88C171.441 135.107 171.255 135.42 171.255 135.82C171.255 136.113 171.341 136.367 171.515 136.58C171.688 136.78 171.975 136.98 172.375 137.18C172.788 137.367 173.335 137.593 174.015 137.86C174.695 138.113 175.275 138.373 175.755 138.64C176.235 138.907 176.601 139.233 176.855 139.62C177.108 139.993 177.235 140.467 177.235 141.04ZM188.6 142.76C188.867 142.76 189.14 142.74 189.42 142.7C189.7 142.647 189.927 142.593 190.1 142.54V143.88C189.914 143.973 189.647 144.047 189.3 144.1C188.954 144.167 188.62 144.2 188.3 144.2C187.74 144.2 187.22 144.107 186.74 143.92C186.274 143.72 185.894 143.38 185.6 142.9C185.307 142.42 185.16 141.747 185.16 140.88V134.64H183.64V133.8L185.18 133.1L185.88 130.82H186.92V133.28H190.02V134.64H186.92V140.84C186.92 141.493 187.074 141.98 187.38 142.3C187.7 142.607 188.107 142.76 188.6 142.76ZM194.007 133.26C194.007 133.793 193.974 134.293 193.907 134.76H194.027C194.374 134.213 194.84 133.8 195.427 133.52C196.027 133.24 196.674 133.1 197.367 133.1C198.674 133.1 199.654 133.413 200.307 134.04C200.96 134.653 201.287 135.647 201.287 137.02V144H199.547V137.14C199.547 135.42 198.747 134.56 197.147 134.56C195.947 134.56 195.12 134.9 194.667 135.58C194.227 136.247 194.007 137.207 194.007 138.46V144H192.247V128.8H194.007V133.26ZM208.75 133.08C209.67 133.08 210.457 133.28 211.11 133.68C211.777 134.08 212.283 134.647 212.63 135.38C212.99 136.1 213.17 136.947 213.17 137.92V138.98H205.83C205.857 140.193 206.163 141.12 206.75 141.76C207.35 142.387 208.183 142.7 209.25 142.7C209.93 142.7 210.53 142.64 211.05 142.52C211.583 142.387 212.13 142.2 212.69 141.96V143.5C212.143 143.74 211.603 143.913 211.07 144.02C210.537 144.14 209.903 144.2 209.17 144.2C208.157 144.2 207.257 143.993 206.47 143.58C205.697 143.167 205.09 142.553 204.65 141.74C204.223 140.913 204.01 139.907 204.01 138.72C204.01 137.547 204.203 136.54 204.59 135.7C204.99 134.86 205.543 134.213 206.25 133.76C206.97 133.307 207.803 133.08 208.75 133.08ZM208.73 134.52C207.89 134.52 207.223 134.793 206.73 135.34C206.25 135.873 205.963 136.62 205.87 137.58H211.33C211.317 136.673 211.103 135.94 210.69 135.38C210.277 134.807 209.623 134.52 208.73 134.52ZM224.675 142.76C224.941 142.76 225.215 142.74 225.495 142.7C225.775 142.647 226.001 142.593 226.175 142.54V143.88C225.988 143.973 225.721 144.047 225.375 144.1C225.028 144.167 224.695 144.2 224.375 144.2C223.815 144.2 223.295 144.107 222.815 143.92C222.348 143.72 221.968 143.38 221.675 142.9C221.381 142.42 221.235 141.747 221.235 140.88V134.64H219.715V133.8L221.255 133.1L221.955 130.82H222.995V133.28H226.095V134.64H222.995V140.84C222.995 141.493 223.148 141.98 223.455 142.3C223.775 142.607 224.181 142.76 224.675 142.76ZM232.461 133.08C233.381 133.08 234.168 133.28 234.821 133.68C235.488 134.08 235.994 134.647 236.341 135.38C236.701 136.1 236.881 136.947 236.881 137.92V138.98H229.541C229.568 140.193 229.874 141.12 230.461 141.76C231.061 142.387 231.894 142.7 232.961 142.7C233.641 142.7 234.241 142.64 234.761 142.52C235.294 142.387 235.841 142.2 236.401 141.96V143.5C235.854 143.74 235.314 143.913 234.781 144.02C234.248 144.14 233.614 144.2 232.881 144.2C231.868 144.2 230.968 143.993 230.181 143.58C229.408 143.167 228.801 142.553 228.361 141.74C227.934 140.913 227.721 139.907 227.721 138.72C227.721 137.547 227.914 136.54 228.301 135.7C228.701 134.86 229.254 134.213 229.961 133.76C230.681 133.307 231.514 133.08 232.461 133.08ZM232.441 134.52C231.601 134.52 230.934 134.793 230.441 135.34C229.961 135.873 229.674 136.62 229.581 137.58H235.041C235.028 136.673 234.814 135.94 234.401 135.38C233.988 134.807 233.334 134.52 232.441 134.52ZM241.76 138.52L238.06 133.28H240.06L242.82 137.32L245.56 133.28H247.54L243.84 138.52L247.74 144H245.74L242.82 139.72L239.86 144H237.88L241.76 138.52ZM253.385 142.76C253.652 142.76 253.925 142.74 254.205 142.7C254.485 142.647 254.712 142.593 254.885 142.54V143.88C254.699 143.973 254.432 144.047 254.085 144.1C253.739 144.167 253.405 144.2 253.085 144.2C252.525 144.2 252.005 144.107 251.525 143.92C251.059 143.72 250.679 143.38 250.385 142.9C250.092 142.42 249.945 141.747 249.945 140.88V134.64H248.425V133.8L249.965 133.1L250.665 130.82H251.705V133.28H254.805V134.64H251.705V140.84C251.705 141.493 251.859 141.98 252.165 142.3C252.485 142.607 252.892 142.76 253.385 142.76ZM266.527 144.2C265.581 144.2 264.734 144.007 263.987 143.62C263.254 143.233 262.674 142.633 262.247 141.82C261.834 141.007 261.627 139.967 261.627 138.7C261.627 137.38 261.847 136.307 262.287 135.48C262.727 134.653 263.321 134.047 264.067 133.66C264.827 133.273 265.687 133.08 266.647 133.08C267.194 133.08 267.721 133.14 268.227 133.26C268.734 133.367 269.147 133.5 269.467 133.66L268.927 135.12C268.607 135 268.234 134.887 267.807 134.78C267.381 134.673 266.981 134.62 266.607 134.62C264.501 134.62 263.447 135.973 263.447 138.68C263.447 139.973 263.701 140.967 264.207 141.66C264.727 142.34 265.494 142.68 266.507 142.68C267.094 142.68 267.607 142.62 268.047 142.5C268.501 142.38 268.914 142.233 269.287 142.06V143.62C268.927 143.807 268.527 143.947 268.087 144.04C267.661 144.147 267.141 144.2 266.527 144.2ZM281.157 138.62C281.157 140.393 280.703 141.767 279.797 142.74C278.903 143.713 277.69 144.2 276.157 144.2C275.21 144.2 274.363 143.987 273.617 143.56C272.883 143.12 272.303 142.487 271.877 141.66C271.45 140.82 271.237 139.807 271.237 138.62C271.237 136.847 271.683 135.48 272.577 134.52C273.47 133.56 274.683 133.08 276.217 133.08C277.19 133.08 278.043 133.3 278.777 133.74C279.523 134.167 280.103 134.793 280.517 135.62C280.943 136.433 281.157 137.433 281.157 138.62ZM273.057 138.62C273.057 139.887 273.303 140.893 273.797 141.64C274.303 142.373 275.103 142.74 276.197 142.74C277.277 142.74 278.07 142.373 278.577 141.64C279.083 140.893 279.337 139.887 279.337 138.62C279.337 137.353 279.083 136.36 278.577 135.64C278.07 134.92 277.27 134.56 276.177 134.56C275.083 134.56 274.29 134.92 273.797 135.64C273.303 136.36 273.057 137.353 273.057 138.62ZM295.706 133.08C296.919 133.08 297.826 133.393 298.426 134.02C299.026 134.633 299.326 135.633 299.326 137.02V144H297.586V137.1C297.586 135.407 296.859 134.56 295.406 134.56C294.366 134.56 293.619 134.86 293.166 135.46C292.726 136.06 292.506 136.933 292.506 138.08V144H290.766V137.1C290.766 135.407 290.033 134.56 288.566 134.56C287.486 134.56 286.739 134.893 286.326 135.56C285.913 136.227 285.706 137.187 285.706 138.44V144H283.946V133.28H285.366L285.626 134.74H285.726C286.059 134.18 286.506 133.767 287.066 133.5C287.639 133.22 288.246 133.08 288.886 133.08C290.566 133.08 291.659 133.68 292.166 134.88H292.266C292.626 134.267 293.113 133.813 293.726 133.52C294.353 133.227 295.013 133.08 295.706 133.08ZM307.738 133.08C309.058 133.08 310.118 133.54 310.918 134.46C311.731 135.38 312.138 136.767 312.138 138.62C312.138 140.447 311.731 141.833 310.918 142.78C310.118 143.727 309.051 144.2 307.718 144.2C306.891 144.2 306.204 144.047 305.658 143.74C305.124 143.42 304.704 143.053 304.398 142.64H304.278C304.304 142.867 304.331 143.153 304.358 143.5C304.384 143.847 304.398 144.147 304.398 144.4V148.8H302.638V133.28H304.078L304.318 134.74H304.398C304.718 134.273 305.138 133.88 305.658 133.56C306.178 133.24 306.871 133.08 307.738 133.08ZM307.418 134.56C306.324 134.56 305.551 134.867 305.098 135.48C304.658 136.093 304.424 137.027 304.398 138.28V138.62C304.398 139.94 304.611 140.96 305.038 141.68C305.478 142.387 306.284 142.74 307.458 142.74C308.111 142.74 308.644 142.56 309.058 142.2C309.484 141.84 309.798 141.353 309.998 140.74C310.211 140.113 310.318 139.4 310.318 138.6C310.318 137.373 310.078 136.393 309.598 135.66C309.131 134.927 308.404 134.56 307.418 134.56ZM324.262 138.62C324.262 140.393 323.809 141.767 322.902 142.74C322.009 143.713 320.796 144.2 319.262 144.2C318.316 144.2 317.469 143.987 316.722 143.56C315.989 143.12 315.409 142.487 314.982 141.66C314.556 140.82 314.342 139.807 314.342 138.62C314.342 136.847 314.789 135.48 315.682 134.52C316.576 133.56 317.789 133.08 319.322 133.08C320.296 133.08 321.149 133.3 321.882 133.74C322.629 134.167 323.209 134.793 323.622 135.62C324.049 136.433 324.262 137.433 324.262 138.62ZM316.162 138.62C316.162 139.887 316.409 140.893 316.902 141.64C317.409 142.373 318.209 142.74 319.302 142.74C320.382 142.74 321.176 142.373 321.682 141.64C322.189 140.893 322.442 139.887 322.442 138.62C322.442 137.353 322.189 136.36 321.682 135.64C321.176 134.92 320.376 134.56 319.282 134.56C318.189 134.56 317.396 134.92 316.902 135.64C316.409 136.36 316.162 137.353 316.162 138.62ZM332.212 133.08C333.492 133.08 334.458 133.393 335.112 134.02C335.765 134.633 336.092 135.633 336.092 137.02V144H334.352V137.14C334.352 135.42 333.552 134.56 331.952 134.56C330.765 134.56 329.945 134.893 329.492 135.56C329.038 136.227 328.812 137.187 328.812 138.44V144H327.052V133.28H328.472L328.732 134.74H328.832C329.178 134.18 329.658 133.767 330.272 133.5C330.885 133.22 331.532 133.08 332.212 133.08ZM343.555 133.08C344.475 133.08 345.262 133.28 345.915 133.68C346.582 134.08 347.088 134.647 347.435 135.38C347.795 136.1 347.975 136.947 347.975 137.92V138.98H340.635C340.662 140.193 340.968 141.12 341.555 141.76C342.155 142.387 342.988 142.7 344.055 142.7C344.735 142.7 345.335 142.64 345.855 142.52C346.388 142.387 346.935 142.2 347.495 141.96V143.5C346.948 143.74 346.408 143.913 345.875 144.02C345.342 144.14 344.708 144.2 343.975 144.2C342.962 144.2 342.062 143.993 341.275 143.58C340.502 143.167 339.895 142.553 339.455 141.74C339.028 140.913 338.815 139.907 338.815 138.72C338.815 137.547 339.008 136.54 339.395 135.7C339.795 134.86 340.348 134.213 341.055 133.76C341.775 133.307 342.608 133.08 343.555 133.08ZM343.535 134.52C342.695 134.52 342.028 134.793 341.535 135.34C341.055 135.873 340.768 136.62 340.675 137.58H346.135C346.122 136.673 345.908 135.94 345.495 135.38C345.082 134.807 344.428 134.52 343.535 134.52ZM355.864 133.08C357.144 133.08 358.111 133.393 358.764 134.02C359.417 134.633 359.744 135.633 359.744 137.02V144H358.004V137.14C358.004 135.42 357.204 134.56 355.604 134.56C354.417 134.56 353.597 134.893 353.144 135.56C352.691 136.227 352.464 137.187 352.464 138.44V144H350.704V133.28H352.124L352.384 134.74H352.484C352.831 134.18 353.311 133.767 353.924 133.5C354.537 133.22 355.184 133.08 355.864 133.08ZM366.647 142.76C366.914 142.76 367.187 142.74 367.467 142.7C367.747 142.647 367.974 142.593 368.147 142.54V143.88C367.961 143.973 367.694 144.047 367.347 144.1C367.001 144.167 366.667 144.2 366.347 144.2C365.787 144.2 365.267 144.107 364.787 143.92C364.321 143.72 363.941 143.38 363.647 142.9C363.354 142.42 363.207 141.747 363.207 140.88V134.64H361.687V133.8L363.227 133.1L363.927 130.82H364.967V133.28H368.067V134.64H364.967V140.84C364.967 141.493 365.121 141.98 365.427 142.3C365.747 142.607 366.154 142.76 366.647 142.76ZM370.034 142.92C370.034 142.427 370.154 142.08 370.394 141.88C370.634 141.68 370.92 141.58 371.254 141.58C371.6 141.58 371.894 141.68 372.134 141.88C372.387 142.08 372.514 142.427 372.514 142.92C372.514 143.4 372.387 143.747 372.134 143.96C371.894 144.173 371.6 144.28 371.254 144.28C370.92 144.28 370.634 144.173 370.394 143.96C370.154 143.747 370.034 143.4 370.034 142.92ZM385.101 144H379.941V142.96L381.621 142.58V131.16L379.941 130.76V129.72H385.101V130.76L383.421 131.16V142.58L385.101 142.96V144ZM391.198 142.76C391.465 142.76 391.738 142.74 392.018 142.7C392.298 142.647 392.525 142.593 392.698 142.54V143.88C392.511 143.973 392.245 144.047 391.898 144.1C391.551 144.167 391.218 144.2 390.898 144.2C390.338 144.2 389.818 144.107 389.338 143.92C388.871 143.72 388.491 143.38 388.198 142.9C387.905 142.42 387.758 141.747 387.758 140.88V134.64H386.238V133.8L387.778 133.1L388.478 130.82H389.518V133.28H392.618V134.64H389.518V140.84C389.518 141.493 389.671 141.98 389.978 142.3C390.298 142.607 390.705 142.76 391.198 142.76ZM401.8 133.26C401.8 133.793 401.767 134.293 401.7 134.76H401.82C402.167 134.213 402.633 133.8 403.22 133.52C403.82 133.24 404.467 133.1 405.16 133.1C406.467 133.1 407.447 133.413 408.1 134.04C408.753 134.653 409.08 135.647 409.08 137.02V144H407.34V137.14C407.34 135.42 406.54 134.56 404.94 134.56C403.74 134.56 402.913 134.9 402.46 135.58C402.02 136.247 401.8 137.207 401.8 138.46V144H400.04V128.8H401.8V133.26ZM416.463 133.1C417.77 133.1 418.736 133.387 419.363 133.96C419.99 134.533 420.303 135.447 420.303 136.7V144H419.023L418.683 142.48H418.603C418.136 143.067 417.643 143.5 417.123 143.78C416.616 144.06 415.91 144.2 415.003 144.2C414.03 144.2 413.223 143.947 412.583 143.44C411.943 142.92 411.623 142.113 411.623 141.02C411.623 139.953 412.043 139.133 412.883 138.56C413.723 137.973 415.016 137.653 416.763 137.6L418.583 137.54V136.9C418.583 136.007 418.39 135.387 418.003 135.04C417.616 134.693 417.07 134.52 416.363 134.52C415.803 134.52 415.27 134.607 414.763 134.78C414.256 134.94 413.783 135.127 413.343 135.34L412.803 134.02C413.27 133.767 413.823 133.553 414.463 133.38C415.103 133.193 415.77 133.1 416.463 133.1ZM416.983 138.82C415.65 138.873 414.723 139.087 414.203 139.46C413.696 139.833 413.443 140.36 413.443 141.04C413.443 141.64 413.623 142.08 413.983 142.36C414.356 142.64 414.83 142.78 415.403 142.78C416.31 142.78 417.063 142.533 417.663 142.04C418.263 141.533 418.563 140.76 418.563 139.72V138.76L416.983 138.82ZM430.594 141.04C430.594 142.08 430.207 142.867 429.434 143.4C428.661 143.933 427.621 144.2 426.314 144.2C425.567 144.2 424.921 144.14 424.374 144.02C423.841 143.9 423.367 143.733 422.954 143.52V141.92C423.381 142.133 423.894 142.333 424.494 142.52C425.107 142.693 425.727 142.78 426.354 142.78C427.247 142.78 427.894 142.64 428.294 142.36C428.694 142.067 428.894 141.68 428.894 141.2C428.894 140.933 428.821 140.693 428.674 140.48C428.527 140.267 428.261 140.053 427.874 139.84C427.501 139.627 426.961 139.387 426.254 139.12C425.561 138.853 424.967 138.587 424.474 138.32C423.981 138.053 423.601 137.733 423.334 137.36C423.067 136.987 422.934 136.507 422.934 135.92C422.934 135.013 423.301 134.313 424.034 133.82C424.781 133.327 425.754 133.08 426.954 133.08C427.607 133.08 428.214 133.147 428.774 133.28C429.347 133.4 429.881 133.573 430.374 133.8L429.774 135.2C429.321 135.013 428.847 134.853 428.354 134.72C427.861 134.587 427.354 134.52 426.834 134.52C426.114 134.52 425.561 134.64 425.174 134.88C424.801 135.107 424.614 135.42 424.614 135.82C424.614 136.113 424.701 136.367 424.874 136.58C425.047 136.78 425.334 136.98 425.734 137.18C426.147 137.367 426.694 137.593 427.374 137.86C428.054 138.113 428.634 138.373 429.114 138.64C429.594 138.907 429.961 139.233 430.214 139.62C430.467 139.993 430.594 140.467 430.594 141.04ZM126.8 157.08C128.12 157.08 129.18 157.54 129.98 158.46C130.793 159.38 131.2 160.767 131.2 162.62C131.2 164.447 130.793 165.833 129.98 166.78C129.18 167.727 128.113 168.2 126.78 168.2C125.953 168.2 125.267 168.047 124.72 167.74C124.187 167.42 123.767 167.053 123.46 166.64H123.34C123.367 166.867 123.393 167.153 123.42 167.5C123.447 167.847 123.46 168.147 123.46 168.4V172.8H121.7V157.28H123.14L123.38 158.74H123.46C123.78 158.273 124.2 157.88 124.72 157.56C125.24 157.24 125.933 157.08 126.8 157.08ZM126.48 158.56C125.387 158.56 124.613 158.867 124.16 159.48C123.72 160.093 123.487 161.027 123.46 162.28V162.62C123.46 163.94 123.673 164.96 124.1 165.68C124.54 166.387 125.347 166.74 126.52 166.74C127.173 166.74 127.707 166.56 128.12 166.2C128.547 165.84 128.86 165.353 129.06 164.74C129.273 164.113 129.38 163.4 129.38 162.6C129.38 161.373 129.14 160.393 128.66 159.66C128.193 158.927 127.467 158.56 126.48 158.56ZM139.005 157.08C139.205 157.08 139.418 157.093 139.645 157.12C139.885 157.133 140.091 157.16 140.265 157.2L140.045 158.82C139.871 158.78 139.678 158.747 139.465 158.72C139.265 158.693 139.071 158.68 138.885 158.68C138.338 158.68 137.825 158.833 137.345 159.14C136.865 159.433 136.478 159.853 136.185 160.4C135.905 160.933 135.765 161.56 135.765 162.28V168H134.005V157.28H135.445L135.645 159.24H135.725C136.071 158.653 136.518 158.147 137.065 157.72C137.611 157.293 138.258 157.08 139.005 157.08ZM151.196 162.62C151.196 164.393 150.742 165.767 149.836 166.74C148.942 167.713 147.729 168.2 146.196 168.2C145.249 168.2 144.402 167.987 143.656 167.56C142.922 167.12 142.342 166.487 141.916 165.66C141.489 164.82 141.276 163.807 141.276 162.62C141.276 160.847 141.722 159.48 142.616 158.52C143.509 157.56 144.722 157.08 146.256 157.08C147.229 157.08 148.082 157.3 148.816 157.74C149.562 158.167 150.142 158.793 150.556 159.62C150.982 160.433 151.196 161.433 151.196 162.62ZM143.096 162.62C143.096 163.887 143.342 164.893 143.836 165.64C144.342 166.373 145.142 166.74 146.236 166.74C147.316 166.74 148.109 166.373 148.616 165.64C149.122 164.893 149.376 163.887 149.376 162.62C149.376 161.353 149.122 160.36 148.616 159.64C148.109 158.92 147.309 158.56 146.216 158.56C145.122 158.56 144.329 158.92 143.836 159.64C143.342 160.36 143.096 161.353 143.096 162.62ZM159.085 157.08C160.405 157.08 161.465 157.54 162.265 158.46C163.078 159.38 163.485 160.767 163.485 162.62C163.485 164.447 163.078 165.833 162.265 166.78C161.465 167.727 160.398 168.2 159.065 168.2C158.238 168.2 157.552 168.047 157.005 167.74C156.472 167.42 156.052 167.053 155.745 166.64H155.625C155.652 166.867 155.678 167.153 155.705 167.5C155.732 167.847 155.745 168.147 155.745 168.4V172.8H153.985V157.28H155.425L155.665 158.74H155.745C156.065 158.273 156.485 157.88 157.005 157.56C157.525 157.24 158.218 157.08 159.085 157.08ZM158.765 158.56C157.672 158.56 156.898 158.867 156.445 159.48C156.005 160.093 155.772 161.027 155.745 162.28V162.62C155.745 163.94 155.958 164.96 156.385 165.68C156.825 166.387 157.632 166.74 158.805 166.74C159.458 166.74 159.992 166.56 160.405 166.2C160.832 165.84 161.145 165.353 161.345 164.74C161.558 164.113 161.665 163.4 161.665 162.6C161.665 161.373 161.425 160.393 160.945 159.66C160.478 158.927 159.752 158.56 158.765 158.56ZM170.43 157.08C171.35 157.08 172.137 157.28 172.79 157.68C173.457 158.08 173.963 158.647 174.31 159.38C174.67 160.1 174.85 160.947 174.85 161.92V162.98H167.51C167.537 164.193 167.843 165.12 168.43 165.76C169.03 166.387 169.863 166.7 170.93 166.7C171.61 166.7 172.21 166.64 172.73 166.52C173.263 166.387 173.81 166.2 174.37 165.96V167.5C173.823 167.74 173.283 167.913 172.75 168.02C172.217 168.14 171.583 168.2 170.85 168.2C169.837 168.2 168.937 167.993 168.15 167.58C167.377 167.167 166.77 166.553 166.33 165.74C165.903 164.913 165.69 163.907 165.69 162.72C165.69 161.547 165.883 160.54 166.27 159.7C166.67 158.86 167.223 158.213 167.93 157.76C168.65 157.307 169.483 157.08 170.43 157.08ZM170.41 158.52C169.57 158.52 168.903 158.793 168.41 159.34C167.93 159.873 167.643 160.62 167.55 161.58H173.01C172.997 160.673 172.783 159.94 172.37 159.38C171.957 158.807 171.303 158.52 170.41 158.52ZM182.579 157.08C182.779 157.08 182.992 157.093 183.219 157.12C183.459 157.133 183.666 157.16 183.839 157.2L183.619 158.82C183.446 158.78 183.252 158.747 183.039 158.72C182.839 158.693 182.646 158.68 182.459 158.68C181.912 158.68 181.399 158.833 180.919 159.14C180.439 159.433 180.052 159.853 179.759 160.4C179.479 160.933 179.339 161.56 179.339 162.28V168H177.579V157.28H179.019L179.219 159.24H179.299C179.646 158.653 180.092 158.147 180.639 157.72C181.186 157.293 181.832 157.08 182.579 157.08ZM189.421 166.76C189.687 166.76 189.961 166.74 190.241 166.7C190.521 166.647 190.747 166.593 190.921 166.54V167.88C190.734 167.973 190.467 168.047 190.121 168.1C189.774 168.167 189.441 168.2 189.121 168.2C188.561 168.2 188.041 168.107 187.561 167.92C187.094 167.72 186.714 167.38 186.421 166.9C186.127 166.42 185.981 165.747 185.981 164.88V158.64H184.461V157.8L186.001 157.1L186.701 154.82H187.741V157.28H190.841V158.64H187.741V164.84C187.741 165.493 187.894 165.98 188.201 166.3C188.521 166.607 188.927 166.76 189.421 166.76ZM193.967 153.26C194.234 153.26 194.467 153.353 194.667 153.54C194.881 153.713 194.987 153.993 194.987 154.38C194.987 154.753 194.881 155.033 194.667 155.22C194.467 155.407 194.234 155.5 193.967 155.5C193.674 155.5 193.427 155.407 193.227 155.22C193.027 155.033 192.927 154.753 192.927 154.38C192.927 153.993 193.027 153.713 193.227 153.54C193.427 153.353 193.674 153.26 193.967 153.26ZM194.827 157.28V168H193.067V157.28H194.827ZM202.363 157.08C203.283 157.08 204.07 157.28 204.723 157.68C205.39 158.08 205.897 158.647 206.243 159.38C206.603 160.1 206.783 160.947 206.783 161.92V162.98H199.443C199.47 164.193 199.777 165.12 200.363 165.76C200.963 166.387 201.797 166.7 202.863 166.7C203.543 166.7 204.143 166.64 204.663 166.52C205.197 166.387 205.743 166.2 206.303 165.96V167.5C205.757 167.74 205.217 167.913 204.683 168.02C204.15 168.14 203.517 168.2 202.783 168.2C201.77 168.2 200.87 167.993 200.083 167.58C199.31 167.167 198.703 166.553 198.263 165.74C197.837 164.913 197.623 163.907 197.623 162.72C197.623 161.547 197.817 160.54 198.203 159.7C198.603 158.86 199.157 158.213 199.863 157.76C200.583 157.307 201.417 157.08 202.363 157.08ZM202.343 158.52C201.503 158.52 200.837 158.793 200.343 159.34C199.863 159.873 199.577 160.62 199.483 161.58H204.943C204.93 160.673 204.717 159.94 204.303 159.38C203.89 158.807 203.237 158.52 202.343 158.52ZM216.493 165.04C216.493 166.08 216.106 166.867 215.333 167.4C214.559 167.933 213.519 168.2 212.213 168.2C211.466 168.2 210.819 168.14 210.273 168.02C209.739 167.9 209.266 167.733 208.853 167.52V165.92C209.279 166.133 209.793 166.333 210.393 166.52C211.006 166.693 211.626 166.78 212.253 166.78C213.146 166.78 213.793 166.64 214.193 166.36C214.593 166.067 214.793 165.68 214.793 165.2C214.793 164.933 214.719 164.693 214.573 164.48C214.426 164.267 214.159 164.053 213.773 163.84C213.399 163.627 212.859 163.387 212.153 163.12C211.459 162.853 210.866 162.587 210.373 162.32C209.879 162.053 209.499 161.733 209.233 161.36C208.966 160.987 208.833 160.507 208.833 159.92C208.833 159.013 209.199 158.313 209.933 157.82C210.679 157.327 211.653 157.08 212.853 157.08C213.506 157.08 214.113 157.147 214.673 157.28C215.246 157.4 215.779 157.573 216.273 157.8L215.673 159.2C215.219 159.013 214.746 158.853 214.253 158.72C213.759 158.587 213.253 158.52 212.733 158.52C212.013 158.52 211.459 158.64 211.073 158.88C210.699 159.107 210.513 159.42 210.513 159.82C210.513 160.113 210.599 160.367 210.773 160.58C210.946 160.78 211.233 160.98 211.633 161.18C212.046 161.367 212.593 161.593 213.273 161.86C213.953 162.113 214.533 162.373 215.013 162.64C215.493 162.907 215.859 163.233 216.113 163.62C216.366 163.993 216.493 164.467 216.493 165.04ZM227.858 166.76C228.125 166.76 228.398 166.74 228.678 166.7C228.958 166.647 229.185 166.593 229.358 166.54V167.88C229.171 167.973 228.905 168.047 228.558 168.1C228.211 168.167 227.878 168.2 227.558 168.2C226.998 168.2 226.478 168.107 225.998 167.92C225.531 167.72 225.151 167.38 224.858 166.9C224.565 166.42 224.418 165.747 224.418 164.88V158.64H222.898V157.8L224.438 157.1L225.138 154.82H226.178V157.28H229.278V158.64H226.178V164.84C226.178 165.493 226.331 165.98 226.638 166.3C226.958 166.607 227.365 166.76 227.858 166.76ZM240.825 162.62C240.825 164.393 240.371 165.767 239.465 166.74C238.571 167.713 237.358 168.2 235.825 168.2C234.878 168.2 234.031 167.987 233.285 167.56C232.551 167.12 231.971 166.487 231.545 165.66C231.118 164.82 230.905 163.807 230.905 162.62C230.905 160.847 231.351 159.48 232.245 158.52C233.138 157.56 234.351 157.08 235.885 157.08C236.858 157.08 237.711 157.3 238.445 157.74C239.191 158.167 239.771 158.793 240.185 159.62C240.611 160.433 240.825 161.433 240.825 162.62ZM232.725 162.62C232.725 163.887 232.971 164.893 233.465 165.64C233.971 166.373 234.771 166.74 235.865 166.74C236.945 166.74 237.738 166.373 238.245 165.64C238.751 164.893 239.005 163.887 239.005 162.62C239.005 161.353 238.751 160.36 238.245 159.64C237.738 158.92 236.938 158.56 235.845 158.56C234.751 158.56 233.958 158.92 233.465 159.64C232.971 160.36 232.725 161.353 232.725 162.62ZM252.869 157.1C254.176 157.1 255.143 157.387 255.769 157.96C256.396 158.533 256.709 159.447 256.709 160.7V168H255.429L255.089 166.48H255.009C254.543 167.067 254.049 167.5 253.529 167.78C253.023 168.06 252.316 168.2 251.409 168.2C250.436 168.2 249.629 167.947 248.989 167.44C248.349 166.92 248.029 166.113 248.029 165.02C248.029 163.953 248.449 163.133 249.289 162.56C250.129 161.973 251.423 161.653 253.169 161.6L254.989 161.54V160.9C254.989 160.007 254.796 159.387 254.409 159.04C254.023 158.693 253.476 158.52 252.769 158.52C252.209 158.52 251.676 158.607 251.169 158.78C250.663 158.94 250.189 159.127 249.749 159.34L249.209 158.02C249.676 157.767 250.229 157.553 250.869 157.38C251.509 157.193 252.176 157.1 252.869 157.1ZM253.389 162.82C252.056 162.873 251.129 163.087 250.609 163.46C250.103 163.833 249.849 164.36 249.849 165.04C249.849 165.64 250.029 166.08 250.389 166.36C250.763 166.64 251.236 166.78 251.809 166.78C252.716 166.78 253.469 166.533 254.069 166.04C254.669 165.533 254.969 164.76 254.969 163.72V162.76L253.389 162.82ZM263.82 168.2C262.487 168.2 261.42 167.74 260.62 166.82C259.82 165.887 259.42 164.5 259.42 162.66C259.42 160.82 259.82 159.433 260.62 158.5C261.434 157.553 262.507 157.08 263.84 157.08C264.667 157.08 265.34 157.233 265.86 157.54C266.394 157.847 266.827 158.22 267.16 158.66H267.28C267.267 158.487 267.24 158.233 267.2 157.9C267.174 157.553 267.16 157.28 267.16 157.08V152.8H268.92V168H267.5L267.24 166.56H267.16C266.84 167.013 266.414 167.4 265.88 167.72C265.347 168.04 264.66 168.2 263.82 168.2ZM264.1 166.74C265.234 166.74 266.027 166.433 266.48 165.82C266.947 165.193 267.18 164.253 267.18 163V162.68C267.18 161.347 266.96 160.327 266.52 159.62C266.08 158.9 265.267 158.54 264.08 158.54C263.134 158.54 262.42 158.92 261.94 159.68C261.474 160.427 261.24 161.433 261.24 162.7C261.24 163.98 261.474 164.973 261.94 165.68C262.42 166.387 263.14 166.74 264.1 166.74ZM272.185 154.38C272.185 153.993 272.285 153.713 272.485 153.54C272.685 153.353 272.932 153.26 273.225 153.26C273.492 153.26 273.725 153.353 273.925 153.54C274.138 153.713 274.245 153.993 274.245 154.38C274.245 154.753 274.138 155.033 273.925 155.22C273.725 155.407 273.492 155.5 273.225 155.5C272.932 155.5 272.685 155.407 272.485 155.22C272.285 155.033 272.185 154.753 272.185 154.38ZM271.065 172.8C270.732 172.8 270.438 172.773 270.185 172.72C269.932 172.68 269.712 172.627 269.525 172.56V171.14C269.725 171.193 269.932 171.24 270.145 171.28C270.358 171.32 270.592 171.34 270.845 171.34C271.272 171.34 271.625 171.22 271.905 170.98C272.185 170.753 272.325 170.313 272.325 169.66V157.28H274.085V169.6C274.085 170.6 273.845 171.38 273.365 171.94C272.885 172.513 272.118 172.8 271.065 172.8ZM286.441 157.28V168H285.001L284.741 166.58H284.661C284.315 167.14 283.835 167.553 283.221 167.82C282.608 168.073 281.955 168.2 281.261 168.2C279.968 168.2 278.995 167.893 278.341 167.28C277.688 166.653 277.361 165.66 277.361 164.3V157.28H279.141V164.18C279.141 165.887 279.935 166.74 281.521 166.74C282.708 166.74 283.528 166.407 283.981 165.74C284.448 165.073 284.681 164.113 284.681 162.86V157.28H286.441ZM296.825 165.04C296.825 166.08 296.438 166.867 295.665 167.4C294.891 167.933 293.851 168.2 292.545 168.2C291.798 168.2 291.151 168.14 290.605 168.02C290.071 167.9 289.598 167.733 289.185 167.52V165.92C289.611 166.133 290.125 166.333 290.725 166.52C291.338 166.693 291.958 166.78 292.585 166.78C293.478 166.78 294.125 166.64 294.525 166.36C294.925 166.067 295.125 165.68 295.125 165.2C295.125 164.933 295.051 164.693 294.905 164.48C294.758 164.267 294.491 164.053 294.105 163.84C293.731 163.627 293.191 163.387 292.485 163.12C291.791 162.853 291.198 162.587 290.705 162.32C290.211 162.053 289.831 161.733 289.565 161.36C289.298 160.987 289.165 160.507 289.165 159.92C289.165 159.013 289.531 158.313 290.265 157.82C291.011 157.327 291.985 157.08 293.185 157.08C293.838 157.08 294.445 157.147 295.005 157.28C295.578 157.4 296.111 157.573 296.605 157.8L296.005 159.2C295.551 159.013 295.078 158.853 294.585 158.72C294.091 158.587 293.585 158.52 293.065 158.52C292.345 158.52 291.791 158.64 291.405 158.88C291.031 159.107 290.845 159.42 290.845 159.82C290.845 160.113 290.931 160.367 291.105 160.58C291.278 160.78 291.565 160.98 291.965 161.18C292.378 161.367 292.925 161.593 293.605 161.86C294.285 162.113 294.865 162.373 295.345 162.64C295.825 162.907 296.191 163.233 296.445 163.62C296.698 163.993 296.825 164.467 296.825 165.04ZM302.995 166.76C303.262 166.76 303.535 166.74 303.815 166.7C304.095 166.647 304.322 166.593 304.495 166.54V167.88C304.308 167.973 304.042 168.047 303.695 168.1C303.348 168.167 303.015 168.2 302.695 168.2C302.135 168.2 301.615 168.107 301.135 167.92C300.668 167.72 300.288 167.38 299.995 166.9C299.702 166.42 299.555 165.747 299.555 164.88V158.64H298.035V157.8L299.575 157.1L300.275 154.82H301.315V157.28H304.415V158.64H301.315V164.84C301.315 165.493 301.468 165.98 301.775 166.3C302.095 166.607 302.502 166.76 302.995 166.76ZM315.417 166.76C315.683 166.76 315.957 166.74 316.237 166.7C316.517 166.647 316.743 166.593 316.917 166.54V167.88C316.73 167.973 316.463 168.047 316.117 168.1C315.77 168.167 315.437 168.2 315.117 168.2C314.557 168.2 314.037 168.107 313.557 167.92C313.09 167.72 312.71 167.38 312.417 166.9C312.123 166.42 311.977 165.747 311.977 164.88V158.64H310.457V157.8L311.997 157.1L312.697 154.82H313.737V157.28H316.837V158.64H313.737V164.84C313.737 165.493 313.89 165.98 314.197 166.3C314.517 166.607 314.923 166.76 315.417 166.76ZM320.823 157.26C320.823 157.793 320.79 158.293 320.723 158.76H320.843C321.19 158.213 321.657 157.8 322.243 157.52C322.843 157.24 323.49 157.1 324.183 157.1C325.49 157.1 326.47 157.413 327.123 158.04C327.777 158.653 328.103 159.647 328.103 161.02V168H326.363V161.14C326.363 159.42 325.563 158.56 323.963 158.56C322.763 158.56 321.937 158.9 321.483 159.58C321.043 160.247 320.823 161.207 320.823 162.46V168H319.063V152.8H320.823V157.26ZM335.567 157.08C336.487 157.08 337.273 157.28 337.927 157.68C338.593 158.08 339.1 158.647 339.447 159.38C339.807 160.1 339.987 160.947 339.987 161.92V162.98H332.647C332.673 164.193 332.98 165.12 333.567 165.76C334.167 166.387 335 166.7 336.067 166.7C336.747 166.7 337.347 166.64 337.867 166.52C338.4 166.387 338.947 166.2 339.507 165.96V167.5C338.96 167.74 338.42 167.913 337.887 168.02C337.353 168.14 336.72 168.2 335.987 168.2C334.973 168.2 334.073 167.993 333.287 167.58C332.513 167.167 331.907 166.553 331.467 165.74C331.04 164.913 330.827 163.907 330.827 162.72C330.827 161.547 331.02 160.54 331.407 159.7C331.807 158.86 332.36 158.213 333.067 157.76C333.787 157.307 334.62 157.08 335.567 157.08ZM335.547 158.52C334.707 158.52 334.04 158.793 333.547 159.34C333.067 159.873 332.78 160.62 332.687 161.58H338.147C338.133 160.673 337.92 159.94 337.507 159.38C337.093 158.807 336.44 158.52 335.547 158.52ZM354.891 165.04C354.891 166.08 354.504 166.867 353.731 167.4C352.958 167.933 351.918 168.2 350.611 168.2C349.864 168.2 349.218 168.14 348.671 168.02C348.138 167.9 347.664 167.733 347.251 167.52V165.92C347.678 166.133 348.191 166.333 348.791 166.52C349.404 166.693 350.024 166.78 350.651 166.78C351.544 166.78 352.191 166.64 352.591 166.36C352.991 166.067 353.191 165.68 353.191 165.2C353.191 164.933 353.118 164.693 352.971 164.48C352.824 164.267 352.558 164.053 352.171 163.84C351.798 163.627 351.258 163.387 350.551 163.12C349.858 162.853 349.264 162.587 348.771 162.32C348.278 162.053 347.898 161.733 347.631 161.36C347.364 160.987 347.231 160.507 347.231 159.92C347.231 159.013 347.598 158.313 348.331 157.82C349.078 157.327 350.051 157.08 351.251 157.08C351.904 157.08 352.511 157.147 353.071 157.28C353.644 157.4 354.178 157.573 354.671 157.8L354.071 159.2C353.618 159.013 353.144 158.853 352.651 158.72C352.158 158.587 351.651 158.52 351.131 158.52C350.411 158.52 349.858 158.64 349.471 158.88C349.098 159.107 348.911 159.42 348.911 159.82C348.911 160.113 348.998 160.367 349.171 160.58C349.344 160.78 349.631 160.98 350.031 161.18C350.444 161.367 350.991 161.593 351.671 161.86C352.351 162.113 352.931 162.373 353.411 162.64C353.891 162.907 354.258 163.233 354.511 163.62C354.764 163.993 354.891 164.467 354.891 165.04ZM358.381 153.26C358.648 153.26 358.881 153.353 359.081 153.54C359.295 153.713 359.401 153.993 359.401 154.38C359.401 154.753 359.295 155.033 359.081 155.22C358.881 155.407 358.648 155.5 358.381 155.5C358.088 155.5 357.841 155.407 357.641 155.22C357.441 155.033 357.341 154.753 357.341 154.38C357.341 153.993 357.441 153.713 357.641 153.54C357.841 153.353 358.088 153.26 358.381 153.26ZM359.241 157.28V168H357.481V157.28H359.241ZM369.558 168H361.718V166.84L367.478 158.64H362.058V157.28H369.418V158.6L363.738 166.64H369.558V168ZM376.172 157.08C377.092 157.08 377.879 157.28 378.532 157.68C379.199 158.08 379.705 158.647 380.052 159.38C380.412 160.1 380.592 160.947 380.592 161.92V162.98H373.252C373.279 164.193 373.585 165.12 374.172 165.76C374.772 166.387 375.605 166.7 376.672 166.7C377.352 166.7 377.952 166.64 378.472 166.52C379.005 166.387 379.552 166.2 380.112 165.96V167.5C379.565 167.74 379.025 167.913 378.492 168.02C377.959 168.14 377.325 168.2 376.592 168.2C375.579 168.2 374.679 167.993 373.892 167.58C373.119 167.167 372.512 166.553 372.072 165.74C371.645 164.913 371.432 163.907 371.432 162.72C371.432 161.547 371.625 160.54 372.012 159.7C372.412 158.86 372.965 158.213 373.672 157.76C374.392 157.307 375.225 157.08 376.172 157.08ZM376.152 158.52C375.312 158.52 374.645 158.793 374.152 159.34C373.672 159.873 373.385 160.62 373.292 161.58H378.752C378.739 160.673 378.525 159.94 378.112 159.38C377.699 158.807 377.045 158.52 376.152 158.52ZM385.461 165.9C385.288 166.607 385.034 167.38 384.701 168.22C384.381 169.073 384.061 169.86 383.741 170.58H382.441C382.628 169.82 382.814 168.987 383.001 168.08C383.201 167.173 383.348 166.373 383.441 165.68H385.321L385.461 165.9ZM128.68 189.04C128.68 190.08 128.293 190.867 127.52 191.4C126.747 191.933 125.707 192.2 124.4 192.2C123.653 192.2 123.007 192.14 122.46 192.02C121.927 191.9 121.453 191.733 121.04 191.52V189.92C121.467 190.133 121.98 190.333 122.58 190.52C123.193 190.693 123.813 190.78 124.44 190.78C125.333 190.78 125.98 190.64 126.38 190.36C126.78 190.067 126.98 189.68 126.98 189.2C126.98 188.933 126.907 188.693 126.76 188.48C126.613 188.267 126.347 188.053 125.96 187.84C125.587 187.627 125.047 187.387 124.34 187.12C123.647 186.853 123.053 186.587 122.56 186.32C122.067 186.053 121.687 185.733 121.42 185.36C121.153 184.987 121.02 184.507 121.02 183.92C121.02 183.013 121.387 182.313 122.12 181.82C122.867 181.327 123.84 181.08 125.04 181.08C125.693 181.08 126.3 181.147 126.86 181.28C127.433 181.4 127.967 181.573 128.46 181.8L127.86 183.2C127.407 183.013 126.933 182.853 126.44 182.72C125.947 182.587 125.44 182.52 124.92 182.52C124.2 182.52 123.647 182.64 123.26 182.88C122.887 183.107 122.7 183.42 122.7 183.82C122.7 184.113 122.787 184.367 122.96 184.58C123.133 184.78 123.42 184.98 123.82 185.18C124.233 185.367 124.78 185.593 125.46 185.86C126.14 186.113 126.72 186.373 127.2 186.64C127.68 186.907 128.047 187.233 128.3 187.62C128.553 187.993 128.68 188.467 128.68 189.04ZM134.85 190.76C135.117 190.76 135.39 190.74 135.67 190.7C135.95 190.647 136.177 190.593 136.35 190.54V191.88C136.164 191.973 135.897 192.047 135.55 192.1C135.204 192.167 134.87 192.2 134.55 192.2C133.99 192.2 133.47 192.107 132.99 191.92C132.524 191.72 132.144 191.38 131.85 190.9C131.557 190.42 131.41 189.747 131.41 188.88V182.64H129.89V181.8L131.43 181.1L132.13 178.82H133.17V181.28H136.27V182.64H133.17V188.84C133.17 189.493 133.324 189.98 133.63 190.3C133.95 190.607 134.357 190.76 134.85 190.76ZM136.817 181.28H138.697L141.017 187.38C141.217 187.913 141.397 188.427 141.557 188.92C141.717 189.4 141.837 189.86 141.917 190.3H141.997C142.077 189.967 142.204 189.533 142.377 189C142.55 188.453 142.73 187.907 142.917 187.36L145.097 181.28H146.997L142.377 193.48C142.004 194.493 141.517 195.3 140.917 195.9C140.33 196.5 139.517 196.8 138.477 196.8C138.157 196.8 137.877 196.78 137.637 196.74C137.397 196.713 137.19 196.68 137.017 196.64V195.24C137.164 195.267 137.337 195.293 137.537 195.32C137.75 195.347 137.97 195.36 138.197 195.36C138.81 195.36 139.304 195.187 139.677 194.84C140.064 194.493 140.364 194.033 140.577 193.46L141.137 192.04L136.817 181.28ZM150.452 192H148.692V176.8H150.452V192ZM157.988 181.08C158.908 181.08 159.695 181.28 160.348 181.68C161.015 182.08 161.522 182.647 161.868 183.38C162.228 184.1 162.408 184.947 162.408 185.92V186.98H155.068C155.095 188.193 155.402 189.12 155.988 189.76C156.588 190.387 157.422 190.7 158.488 190.7C159.168 190.7 159.768 190.64 160.288 190.52C160.822 190.387 161.368 190.2 161.928 189.96V191.5C161.382 191.74 160.842 191.913 160.308 192.02C159.775 192.14 159.142 192.2 158.408 192.2C157.395 192.2 156.495 191.993 155.708 191.58C154.935 191.167 154.328 190.553 153.888 189.74C153.462 188.913 153.248 187.907 153.248 186.72C153.248 185.547 153.442 184.54 153.828 183.7C154.228 182.86 154.782 182.213 155.488 181.76C156.208 181.307 157.042 181.08 157.988 181.08ZM157.968 182.52C157.128 182.52 156.462 182.793 155.968 183.34C155.488 183.873 155.202 184.62 155.108 185.58H160.568C160.555 184.673 160.342 183.94 159.928 183.38C159.515 182.807 158.862 182.52 157.968 182.52ZM167.278 189.9C167.104 190.607 166.851 191.38 166.518 192.22C166.198 193.073 165.878 193.86 165.558 194.58H164.258C164.444 193.82 164.631 192.987 164.818 192.08C165.018 191.173 165.164 190.373 165.258 189.68H167.138L167.278 189.9ZM179.744 181.1C181.051 181.1 182.018 181.387 182.644 181.96C183.271 182.533 183.584 183.447 183.584 184.7V192H182.304L181.964 190.48H181.884C181.418 191.067 180.924 191.5 180.404 191.78C179.898 192.06 179.191 192.2 178.284 192.2C177.311 192.2 176.504 191.947 175.864 191.44C175.224 190.92 174.904 190.113 174.904 189.02C174.904 187.953 175.324 187.133 176.164 186.56C177.004 185.973 178.298 185.653 180.044 185.6L181.864 185.54V184.9C181.864 184.007 181.671 183.387 181.284 183.04C180.898 182.693 180.351 182.52 179.644 182.52C179.084 182.52 178.551 182.607 178.044 182.78C177.538 182.94 177.064 183.127 176.624 183.34L176.084 182.02C176.551 181.767 177.104 181.553 177.744 181.38C178.384 181.193 179.051 181.1 179.744 181.1ZM180.264 186.82C178.931 186.873 178.004 187.087 177.484 187.46C176.978 187.833 176.724 188.36 176.724 189.04C176.724 189.64 176.904 190.08 177.264 190.36C177.638 190.64 178.111 190.78 178.684 190.78C179.591 190.78 180.344 190.533 180.944 190.04C181.544 189.533 181.844 188.76 181.844 187.72V186.76L180.264 186.82ZM192.055 181.08C193.335 181.08 194.302 181.393 194.955 182.02C195.609 182.633 195.935 183.633 195.935 185.02V192H194.195V185.14C194.195 183.42 193.395 182.56 191.795 182.56C190.609 182.56 189.789 182.893 189.335 183.56C188.882 184.227 188.655 185.187 188.655 186.44V192H186.895V181.28H188.315L188.575 182.74H188.675C189.022 182.18 189.502 181.767 190.115 181.5C190.729 181.22 191.375 181.08 192.055 181.08ZM203.059 192.2C201.725 192.2 200.659 191.74 199.859 190.82C199.059 189.887 198.659 188.5 198.659 186.66C198.659 184.82 199.059 183.433 199.859 182.5C200.672 181.553 201.745 181.08 203.079 181.08C203.905 181.08 204.579 181.233 205.099 181.54C205.632 181.847 206.065 182.22 206.399 182.66H206.519C206.505 182.487 206.479 182.233 206.439 181.9C206.412 181.553 206.399 181.28 206.399 181.08V176.8H208.159V192H206.739L206.479 190.56H206.399C206.079 191.013 205.652 191.4 205.119 191.72C204.585 192.04 203.899 192.2 203.059 192.2ZM203.339 190.74C204.472 190.74 205.265 190.433 205.719 189.82C206.185 189.193 206.419 188.253 206.419 187V186.68C206.419 185.347 206.199 184.327 205.759 183.62C205.319 182.9 204.505 182.54 203.319 182.54C202.372 182.54 201.659 182.92 201.179 183.68C200.712 184.427 200.479 185.433 200.479 186.7C200.479 187.98 200.712 188.973 201.179 189.68C201.659 190.387 202.379 190.74 203.339 190.74ZM223.679 185.94C223.505 185.393 223.352 184.86 223.219 184.34C223.099 183.807 223.005 183.393 222.939 183.1H222.859C222.805 183.393 222.719 183.807 222.599 184.34C222.479 184.86 222.325 185.4 222.139 185.96L220.219 191.98H218.219L215.279 181.26H217.099L218.579 186.98C218.725 187.553 218.865 188.133 218.999 188.72C219.132 189.307 219.225 189.793 219.279 190.18H219.359C219.412 189.953 219.472 189.673 219.539 189.34C219.619 189.007 219.705 188.66 219.799 188.3C219.892 187.927 219.985 187.593 220.079 187.3L221.979 181.26H223.899L225.739 187.3C225.885 187.753 226.025 188.247 226.159 188.78C226.305 189.313 226.405 189.773 226.459 190.16H226.539C226.579 189.827 226.665 189.367 226.799 188.78C226.945 188.193 227.099 187.593 227.259 186.98L228.759 181.26H230.559L227.579 191.98H225.519L223.679 185.94ZM236.621 181.08C237.541 181.08 238.328 181.28 238.981 181.68C239.648 182.08 240.155 182.647 240.501 183.38C240.861 184.1 241.041 184.947 241.041 185.92V186.98H233.701C233.728 188.193 234.035 189.12 234.621 189.76C235.221 190.387 236.055 190.7 237.121 190.7C237.801 190.7 238.401 190.64 238.921 190.52C239.455 190.387 240.001 190.2 240.561 189.96V191.5C240.015 191.74 239.475 191.913 238.941 192.02C238.408 192.14 237.775 192.2 237.041 192.2C236.028 192.2 235.128 191.993 234.341 191.58C233.568 191.167 232.961 190.553 232.521 189.74C232.095 188.913 231.881 187.907 231.881 186.72C231.881 185.547 232.075 184.54 232.461 183.7C232.861 182.86 233.415 182.213 234.121 181.76C234.841 181.307 235.675 181.08 236.621 181.08ZM236.601 182.52C235.761 182.52 235.095 182.793 234.601 183.34C234.121 183.873 233.835 184.62 233.741 185.58H239.201C239.188 184.673 238.975 183.94 238.561 183.38C238.148 182.807 237.495 182.52 236.601 182.52ZM244.67 177.26C244.937 177.26 245.17 177.353 245.37 177.54C245.584 177.713 245.69 177.993 245.69 178.38C245.69 178.753 245.584 179.033 245.37 179.22C245.17 179.407 244.937 179.5 244.67 179.5C244.377 179.5 244.13 179.407 243.93 179.22C243.73 179.033 243.63 178.753 243.63 178.38C243.63 177.993 243.73 177.713 243.93 177.54C244.13 177.353 244.377 177.26 244.67 177.26ZM245.53 181.28V192H243.77V181.28H245.53ZM252.727 181.08C253.433 181.08 254.067 181.213 254.627 181.48C255.2 181.747 255.687 182.153 256.087 182.7H256.187L256.427 181.28H257.827V192.18C257.827 193.713 257.433 194.867 256.647 195.64C255.873 196.413 254.667 196.8 253.027 196.8C251.453 196.8 250.167 196.573 249.167 196.12V194.5C250.22 195.06 251.54 195.34 253.127 195.34C254.047 195.34 254.767 195.067 255.287 194.52C255.82 193.987 256.087 193.253 256.087 192.32V191.9C256.087 191.74 256.093 191.513 256.107 191.22C256.12 190.913 256.133 190.7 256.147 190.58H256.067C255.347 191.66 254.24 192.2 252.747 192.2C251.36 192.2 250.273 191.713 249.487 190.74C248.713 189.767 248.327 188.407 248.327 186.66C248.327 184.953 248.713 183.6 249.487 182.6C250.273 181.587 251.353 181.08 252.727 181.08ZM252.967 182.56C252.073 182.56 251.38 182.92 250.887 183.64C250.393 184.347 250.147 185.36 250.147 186.68C250.147 188 250.387 189.013 250.867 189.72C251.36 190.413 252.073 190.76 253.007 190.76C254.087 190.76 254.873 190.473 255.367 189.9C255.86 189.313 256.107 188.373 256.107 187.08V186.66C256.107 185.193 255.853 184.147 255.347 183.52C254.84 182.88 254.047 182.56 252.967 182.56ZM262.991 181.26C262.991 181.793 262.958 182.293 262.891 182.76H263.011C263.358 182.213 263.825 181.8 264.411 181.52C265.011 181.24 265.658 181.1 266.351 181.1C267.658 181.1 268.638 181.413 269.291 182.04C269.945 182.653 270.271 183.647 270.271 185.02V192H268.531V185.14C268.531 183.42 267.731 182.56 266.131 182.56C264.931 182.56 264.105 182.9 263.651 183.58C263.211 184.247 262.991 185.207 262.991 186.46V192H261.231V176.8H262.991V181.26ZM277.175 190.76C277.441 190.76 277.715 190.74 277.995 190.7C278.275 190.647 278.501 190.593 278.675 190.54V191.88C278.488 191.973 278.221 192.047 277.875 192.1C277.528 192.167 277.195 192.2 276.875 192.2C276.315 192.2 275.795 192.107 275.315 191.92C274.848 191.72 274.468 191.38 274.175 190.9C273.881 190.42 273.735 189.747 273.735 188.88V182.64H272.215V181.8L273.755 181.1L274.455 178.82H275.495V181.28H278.595V182.64H275.495V188.84C275.495 189.493 275.648 189.98 275.955 190.3C276.275 190.607 276.681 190.76 277.175 190.76ZM295.336 186.62C295.336 188.393 294.883 189.767 293.976 190.74C293.083 191.713 291.87 192.2 290.336 192.2C289.39 192.2 288.543 191.987 287.796 191.56C287.063 191.12 286.483 190.487 286.056 189.66C285.63 188.82 285.416 187.807 285.416 186.62C285.416 184.847 285.863 183.48 286.756 182.52C287.65 181.56 288.863 181.08 290.396 181.08C291.37 181.08 292.223 181.3 292.956 181.74C293.703 182.167 294.283 182.793 294.696 183.62C295.123 184.433 295.336 185.433 295.336 186.62ZM287.236 186.62C287.236 187.887 287.483 188.893 287.976 189.64C288.483 190.373 289.283 190.74 290.376 190.74C291.456 190.74 292.25 190.373 292.756 189.64C293.263 188.893 293.516 187.887 293.516 186.62C293.516 185.353 293.263 184.36 292.756 183.64C292.25 182.92 291.45 182.56 290.356 182.56C289.263 182.56 288.47 182.92 287.976 183.64C287.483 184.36 287.236 185.353 287.236 186.62ZM303.066 182.64H300.366V192H298.606V182.64H296.726V181.82L298.606 181.22V180.6C298.606 179.213 298.912 178.22 299.526 177.62C300.139 177.007 300.992 176.7 302.086 176.7C302.512 176.7 302.899 176.74 303.246 176.82C303.606 176.887 303.912 176.967 304.166 177.06L303.706 178.44C303.492 178.373 303.246 178.307 302.966 178.24C302.686 178.173 302.399 178.14 302.106 178.14C301.519 178.14 301.079 178.34 300.786 178.74C300.506 179.127 300.366 179.74 300.366 180.58V181.28H303.066V182.64ZM313.776 190.76C314.043 190.76 314.316 190.74 314.596 190.7C314.876 190.647 315.103 190.593 315.276 190.54V191.88C315.089 191.973 314.823 192.047 314.476 192.1C314.129 192.167 313.796 192.2 313.476 192.2C312.916 192.2 312.396 192.107 311.916 191.92C311.449 191.72 311.069 191.38 310.776 190.9C310.483 190.42 310.336 189.747 310.336 188.88V182.64H308.816V181.8L310.356 181.1L311.056 178.82H312.096V181.28H315.196V182.64H312.096V188.84C312.096 189.493 312.249 189.98 312.556 190.3C312.876 190.607 313.283 190.76 313.776 190.76ZM319.183 181.26C319.183 181.793 319.149 182.293 319.083 182.76H319.203C319.549 182.213 320.016 181.8 320.603 181.52C321.203 181.24 321.849 181.1 322.543 181.1C323.849 181.1 324.829 181.413 325.483 182.04C326.136 182.653 326.463 183.647 326.463 185.02V192H324.723V185.14C324.723 183.42 323.923 182.56 322.323 182.56C321.123 182.56 320.296 182.9 319.843 183.58C319.403 184.247 319.183 185.207 319.183 186.46V192H317.423V176.8H319.183V181.26ZM333.926 181.08C334.846 181.08 335.633 181.28 336.286 181.68C336.953 182.08 337.459 182.647 337.806 183.38C338.166 184.1 338.346 184.947 338.346 185.92V186.98H331.006C331.033 188.193 331.339 189.12 331.926 189.76C332.526 190.387 333.359 190.7 334.426 190.7C335.106 190.7 335.706 190.64 336.226 190.52C336.759 190.387 337.306 190.2 337.866 189.96V191.5C337.319 191.74 336.779 191.913 336.246 192.02C335.713 192.14 335.079 192.2 334.346 192.2C333.333 192.2 332.433 191.993 331.646 191.58C330.873 191.167 330.266 190.553 329.826 189.74C329.399 188.913 329.186 187.907 329.186 186.72C329.186 185.547 329.379 184.54 329.766 183.7C330.166 182.86 330.719 182.213 331.426 181.76C332.146 181.307 332.979 181.08 333.926 181.08ZM333.906 182.52C333.066 182.52 332.399 182.793 331.906 183.34C331.426 183.873 331.139 184.62 331.046 185.58H336.506C336.493 184.673 336.279 183.94 335.866 183.38C335.453 182.807 334.799 182.52 333.906 182.52ZM349.85 190.76C350.117 190.76 350.39 190.74 350.67 190.7C350.95 190.647 351.177 190.593 351.35 190.54V191.88C351.164 191.973 350.897 192.047 350.55 192.1C350.204 192.167 349.87 192.2 349.55 192.2C348.99 192.2 348.47 192.107 347.99 191.92C347.524 191.72 347.144 191.38 346.85 190.9C346.557 190.42 346.41 189.747 346.41 188.88V182.64H344.89V181.8L346.43 181.1L347.13 178.82H348.17V181.28H351.27V182.64H348.17V188.84C348.17 189.493 348.324 189.98 348.63 190.3C348.95 190.607 349.357 190.76 349.85 190.76ZM357.637 181.08C358.557 181.08 359.344 181.28 359.997 181.68C360.664 182.08 361.17 182.647 361.517 183.38C361.877 184.1 362.057 184.947 362.057 185.92V186.98H354.717C354.744 188.193 355.05 189.12 355.637 189.76C356.237 190.387 357.07 190.7 358.137 190.7C358.817 190.7 359.417 190.64 359.937 190.52C360.47 190.387 361.017 190.2 361.577 189.96V191.5C361.03 191.74 360.49 191.913 359.957 192.02C359.424 192.14 358.79 192.2 358.057 192.2C357.044 192.2 356.144 191.993 355.357 191.58C354.584 191.167 353.977 190.553 353.537 189.74C353.11 188.913 352.897 187.907 352.897 186.72C352.897 185.547 353.09 184.54 353.477 183.7C353.877 182.86 354.43 182.213 355.137 181.76C355.857 181.307 356.69 181.08 357.637 181.08ZM357.617 182.52C356.777 182.52 356.11 182.793 355.617 183.34C355.137 183.873 354.85 184.62 354.757 185.58H360.217C360.204 184.673 359.99 183.94 359.577 183.38C359.164 182.807 358.51 182.52 357.617 182.52ZM366.935 186.52L363.235 181.28H365.235L367.995 185.32L370.735 181.28H372.715L369.015 186.52L372.915 192H370.915L367.995 187.72L365.035 192H363.055L366.935 186.52ZM378.561 190.76C378.828 190.76 379.101 190.74 379.381 190.7C379.661 190.647 379.888 190.593 380.061 190.54V191.88C379.875 191.973 379.608 192.047 379.261 192.1C378.915 192.167 378.581 192.2 378.261 192.2C377.701 192.2 377.181 192.107 376.701 191.92C376.235 191.72 375.855 191.38 375.561 190.9C375.268 190.42 375.121 189.747 375.121 188.88V182.64H373.601V181.8L375.141 181.1L375.841 178.82H376.881V181.28H379.981V182.64H376.881V188.84C376.881 189.493 377.035 189.98 377.341 190.3C377.661 190.607 378.068 190.76 378.561 190.76ZM381.948 190.92C381.948 190.427 382.068 190.08 382.308 189.88C382.548 189.68 382.834 189.58 383.168 189.58C383.514 189.58 383.808 189.68 384.048 189.88C384.301 190.08 384.428 190.427 384.428 190.92C384.428 191.4 384.301 191.747 384.048 191.96C383.808 192.173 383.514 192.28 383.168 192.28C382.834 192.28 382.548 192.173 382.308 191.96C382.068 191.747 381.948 191.4 381.948 190.92Z" fill="#333333"/>
<g clip-path="url(#clip0_14549_827)">
<rect x="72" y="160" width="48" height="1" fill="#C54600"/>
<g clip-path="url(#clip1_14549_827)">
<rect x="72" y="148" width="24" height="24" rx="12" fill="#C54600"/>
<path d="M81.2706 164V163.233L84.1513 160.08C84.4893 159.71 84.7678 159.389 84.9865 159.116C85.2053 158.841 85.3672 158.582 85.4723 158.341C85.5803 158.097 85.6342 157.841 85.6342 157.574C85.6342 157.267 85.5604 157.001 85.4126 156.777C85.2678 156.553 85.0689 156.379 84.8161 156.257C84.5632 156.135 84.2791 156.074 83.9638 156.074C83.6286 156.074 83.3359 156.143 83.0859 156.283C82.8388 156.419 82.647 156.611 82.5107 156.858C82.3771 157.105 82.3104 157.395 82.3104 157.727H81.3047C81.3047 157.216 81.4226 156.767 81.6584 156.381C81.8942 155.994 82.2152 155.693 82.6214 155.477C83.0305 155.261 83.4893 155.153 83.9979 155.153C84.5092 155.153 84.9624 155.261 85.3572 155.477C85.7521 155.693 86.0618 155.984 86.2862 156.351C86.5107 156.717 86.6229 157.125 86.6229 157.574C86.6229 157.895 86.5646 158.209 86.4482 158.516C86.3345 158.82 86.1357 159.159 85.8516 159.534C85.5703 159.906 85.1797 160.361 84.6797 160.898L82.7195 162.994V163.062H86.7763V164H81.2706Z" fill="white"/>
</g>
</g>
<g clip-path="url(#clip2_14549_827)">
<rect x="72" y="112" width="48" height="1" fill="#C54600"/>
<g clip-path="url(#clip3_14549_827)">
<rect x="72" y="100" width="24" height="24" rx="12" fill="#C54600"/>
<path d="M85.1825 107.273V116H84.1257V108.381H84.0746L81.9439 109.795V108.722L84.1257 107.273H85.1825Z" fill="white"/>
</g>
</g>
<g clip-path="url(#clip4_14549_827)">
<rect x="72" y="208" width="48" height="1" fill="#C54600"/>
<g clip-path="url(#clip5_14549_827)">
<rect x="72" y="196" width="24" height="24" rx="12" fill="#C54600"/>
<path d="M84.032 212.119C83.4695 212.119 82.968 212.023 82.5277 211.83C82.0902 211.636 81.7422 211.368 81.4837 211.024C81.228 210.678 81.0888 210.276 81.0661 209.818H82.1399C82.1626 210.099 82.2592 210.342 82.4297 210.547C82.6001 210.749 82.8232 210.905 83.0987 211.016C83.3743 211.126 83.6797 211.182 84.0149 211.182C84.3899 211.182 84.7223 211.116 85.0121 210.986C85.3018 210.855 85.5291 210.673 85.6939 210.44C85.8587 210.207 85.9411 209.938 85.9411 209.631C85.9411 209.31 85.8615 209.027 85.7024 208.783C85.5433 208.536 85.3104 208.342 85.0036 208.203C84.6967 208.064 84.3217 207.994 83.8786 207.994H83.1797V207.057H83.8786C84.2251 207.057 84.5291 206.994 84.7905 206.869C85.0547 206.744 85.2607 206.568 85.4084 206.341C85.5589 206.114 85.6342 205.847 85.6342 205.54C85.6342 205.244 85.5689 204.987 85.4382 204.768C85.3075 204.55 85.1229 204.379 84.8842 204.257C84.6484 204.135 84.37 204.074 84.049 204.074C83.7479 204.074 83.4638 204.129 83.1967 204.24C82.9325 204.348 82.7166 204.506 82.549 204.713C82.3814 204.918 82.2905 205.165 82.2763 205.455H81.2536C81.2706 204.997 81.4084 204.597 81.6669 204.253C81.9254 203.906 82.2635 203.636 82.6811 203.443C83.1016 203.25 83.5632 203.153 84.0661 203.153C84.6058 203.153 85.0689 203.263 85.4553 203.482C85.8416 203.697 86.1385 203.983 86.3459 204.338C86.5533 204.693 86.657 205.077 86.657 205.489C86.657 205.98 86.5277 206.399 86.2692 206.746C86.0135 207.092 85.6655 207.332 85.2251 207.466V207.534C85.7763 207.625 86.2067 207.859 86.5163 208.237C86.826 208.612 86.9808 209.077 86.9808 209.631C86.9808 210.105 86.8516 210.531 86.593 210.909C86.3374 211.284 85.9879 211.58 85.5447 211.795C85.1016 212.011 84.5973 212.119 84.032 212.119Z" fill="white"/>
</g>
</g>
<defs>
<clipPath id="clip0_14549_827">
<rect width="48" height="24" fill="white" transform="translate(72 148)"/>
</clipPath>
<clipPath id="clip1_14549_827">
<rect x="72" y="148" width="24" height="24" rx="12" fill="white"/>
</clipPath>
<clipPath id="clip2_14549_827">
<rect width="48" height="24" fill="white" transform="translate(72 100)"/>
</clipPath>
<clipPath id="clip3_14549_827">
<rect x="72" y="100" width="24" height="24" rx="12" fill="white"/>
</clipPath>
<clipPath id="clip4_14549_827">
<rect width="48" height="24" fill="white" transform="translate(72 196)"/>
</clipPath>
<clipPath id="clip5_14549_827">
<rect x="72" y="196" width="24" height="24" rx="12" fill="white"/>
</clipPath>
</defs>
</svg>
