<svg width="265" height="72" viewBox="0 0 265 72" fill="none" xmlns="http://www.w3.org/2000/svg">
<path d="M84.7004 45H64.3L74.5002 27L84.7004 45ZM73.5012 42.0049H75.4983V40.0078H73.5012V42.0049ZM73.5012 38.0107H75.4983V33.0186H73.5012V38.0107Z" fill="#A62A1E"/>
<path d="M104.52 44H96.3V29.72H104.52V32.2H99.32V35.34H104.16V37.82H99.32V41.5H104.52V44ZM113.351 32.88C113.498 32.88 113.671 32.8867 113.871 32.9C114.071 32.9133 114.231 32.9333 114.351 32.96L114.131 35.76C114.038 35.7333 113.898 35.7133 113.711 35.7C113.538 35.6733 113.385 35.66 113.251 35.66C112.745 35.66 112.258 35.7533 111.791 35.94C111.325 36.1133 110.945 36.4 110.651 36.8C110.371 37.2 110.231 37.7467 110.231 38.44V44H107.251V33.08H109.511L109.951 34.92H110.091C110.411 34.36 110.851 33.88 111.411 33.48C111.971 33.08 112.618 32.88 113.351 32.88ZM122.433 32.88C122.58 32.88 122.753 32.8867 122.953 32.9C123.153 32.9133 123.313 32.9333 123.433 32.96L123.213 35.76C123.12 35.7333 122.98 35.7133 122.793 35.7C122.62 35.6733 122.467 35.66 122.333 35.66C121.827 35.66 121.34 35.7533 120.873 35.94C120.407 36.1133 120.027 36.4 119.733 36.8C119.453 37.2 119.313 37.7467 119.313 38.44V44H116.333V33.08H118.593L119.033 34.92H119.173C119.493 34.36 119.933 33.88 120.493 33.48C121.053 33.08 121.7 32.88 122.433 32.88ZM134.945 38.52C134.945 40.3333 134.465 41.7333 133.505 42.72C132.558 43.7067 131.265 44.2 129.625 44.2C128.612 44.2 127.705 43.98 126.905 43.54C126.118 43.1 125.498 42.46 125.045 41.62C124.592 40.7667 124.365 39.7333 124.365 38.52C124.365 36.7067 124.838 35.3133 125.785 34.34C126.732 33.3667 128.032 32.88 129.685 32.88C130.712 32.88 131.618 33.1 132.405 33.54C133.192 33.98 133.812 34.62 134.265 35.46C134.718 36.2867 134.945 37.3067 134.945 38.52ZM127.405 38.52C127.405 39.6 127.578 40.42 127.925 40.98C128.285 41.5267 128.865 41.8 129.665 41.8C130.452 41.8 131.018 41.5267 131.365 40.98C131.725 40.42 131.905 39.6 131.905 38.52C131.905 37.44 131.725 36.6333 131.365 36.1C131.018 35.5533 130.445 35.28 129.645 35.28C128.858 35.28 128.285 35.5533 127.925 36.1C127.578 36.6333 127.405 37.44 127.405 38.52ZM143.508 32.88C143.654 32.88 143.828 32.8867 144.028 32.9C144.228 32.9133 144.388 32.9333 144.508 32.96L144.288 35.76C144.194 35.7333 144.054 35.7133 143.868 35.7C143.694 35.6733 143.541 35.66 143.408 35.66C142.901 35.66 142.414 35.7533 141.948 35.94C141.481 36.1133 141.101 36.4 140.808 36.8C140.528 37.2 140.388 37.7467 140.388 38.44V44H137.408V33.08H139.668L140.108 34.92H140.248C140.568 34.36 141.008 33.88 141.568 33.48C142.128 33.08 142.774 32.88 143.508 32.88ZM164.505 32.88C165.745 32.88 166.678 33.2 167.305 33.84C167.945 34.4667 168.265 35.48 168.265 36.88V44H165.285V37.62C165.285 36.0467 164.738 35.26 163.645 35.26C162.858 35.26 162.298 35.54 161.965 36.1C161.632 36.66 161.465 37.4667 161.465 38.52V44H158.485V37.62C158.485 36.0467 157.938 35.26 156.845 35.26C156.018 35.26 155.445 35.5733 155.125 36.2C154.818 36.8133 154.665 37.7 154.665 38.86V44H151.685V33.08H153.965L154.365 34.48H154.525C154.858 33.92 155.312 33.5133 155.885 33.26C156.472 33.0067 157.078 32.88 157.705 32.88C158.505 32.88 159.185 33.0133 159.745 33.28C160.305 33.5333 160.732 33.9333 161.025 34.48H161.285C161.618 33.92 162.078 33.5133 162.665 33.26C163.265 33.0067 163.878 32.88 164.505 32.88ZM175.833 32.88C177.34 32.88 178.533 33.3133 179.413 34.18C180.293 35.0333 180.733 36.2533 180.733 37.84V39.28H173.693C173.72 40.12 173.967 40.78 174.433 41.26C174.913 41.74 175.573 41.98 176.413 41.98C177.12 41.98 177.76 41.9133 178.333 41.78C178.907 41.6333 179.5 41.4133 180.113 41.12V43.42C179.58 43.6867 179.013 43.88 178.413 44C177.827 44.1333 177.113 44.2 176.273 44.2C175.18 44.2 174.213 44 173.373 43.6C172.533 43.1867 171.873 42.5667 171.393 41.74C170.913 40.9133 170.673 39.8733 170.673 38.62C170.673 37.34 170.887 36.28 171.313 35.44C171.753 34.5867 172.36 33.9467 173.133 33.52C173.907 33.0933 174.807 32.88 175.833 32.88ZM175.853 35C175.28 35 174.8 35.1867 174.413 35.56C174.04 35.9333 173.82 36.5133 173.753 37.3H177.933C177.92 36.6333 177.747 36.0867 177.413 35.66C177.08 35.22 176.56 35 175.853 35ZM190.77 40.76C190.77 41.8667 190.377 42.72 189.59 43.32C188.817 43.9067 187.657 44.2 186.11 44.2C185.35 44.2 184.697 44.1467 184.15 44.04C183.603 43.9467 183.057 43.7867 182.51 43.56V41.1C183.097 41.3667 183.73 41.5867 184.41 41.76C185.09 41.9333 185.69 42.02 186.21 42.02C186.797 42.02 187.21 41.9333 187.45 41.76C187.703 41.5867 187.83 41.36 187.83 41.08C187.83 40.8933 187.777 40.7267 187.67 40.58C187.577 40.4333 187.363 40.2667 187.03 40.08C186.697 39.8933 186.177 39.6533 185.47 39.36C184.79 39.0667 184.23 38.78 183.79 38.5C183.35 38.2067 183.023 37.86 182.81 37.46C182.597 37.0467 182.49 36.5333 182.49 35.92C182.49 34.9067 182.883 34.1467 183.67 33.64C184.457 33.1333 185.503 32.88 186.81 32.88C187.49 32.88 188.137 32.9467 188.75 33.08C189.363 33.2133 189.997 33.4333 190.65 33.74L189.75 35.88C189.217 35.6533 188.71 35.4667 188.23 35.32C187.75 35.16 187.263 35.08 186.77 35.08C185.89 35.08 185.45 35.32 185.45 35.8C185.45 35.9733 185.503 36.1333 185.61 36.28C185.73 36.4133 185.95 36.56 186.27 36.72C186.603 36.88 187.09 37.0933 187.73 37.36C188.357 37.6133 188.897 37.88 189.35 38.16C189.803 38.4267 190.15 38.7667 190.39 39.18C190.643 39.58 190.77 40.1067 190.77 40.76ZM200.711 40.76C200.711 41.8667 200.318 42.72 199.531 43.32C198.758 43.9067 197.598 44.2 196.051 44.2C195.291 44.2 194.638 44.1467 194.091 44.04C193.545 43.9467 192.998 43.7867 192.451 43.56V41.1C193.038 41.3667 193.671 41.5867 194.351 41.76C195.031 41.9333 195.631 42.02 196.151 42.02C196.738 42.02 197.151 41.9333 197.391 41.76C197.645 41.5867 197.771 41.36 197.771 41.08C197.771 40.8933 197.718 40.7267 197.611 40.58C197.518 40.4333 197.305 40.2667 196.971 40.08C196.638 39.8933 196.118 39.6533 195.411 39.36C194.731 39.0667 194.171 38.78 193.731 38.5C193.291 38.2067 192.965 37.86 192.751 37.46C192.538 37.0467 192.431 36.5333 192.431 35.92C192.431 34.9067 192.825 34.1467 193.611 33.64C194.398 33.1333 195.445 32.88 196.751 32.88C197.431 32.88 198.078 32.9467 198.691 33.08C199.305 33.2133 199.938 33.4333 200.591 33.74L199.691 35.88C199.158 35.6533 198.651 35.4667 198.171 35.32C197.691 35.16 197.205 35.08 196.711 35.08C195.831 35.08 195.391 35.32 195.391 35.8C195.391 35.9733 195.445 36.1333 195.551 36.28C195.671 36.4133 195.891 36.56 196.211 36.72C196.545 36.88 197.031 37.0933 197.671 37.36C198.298 37.6133 198.838 37.88 199.291 38.16C199.745 38.4267 200.091 38.7667 200.331 39.18C200.585 39.58 200.711 40.1067 200.711 40.76ZM207.513 32.86C208.979 32.86 210.099 33.18 210.873 33.82C211.659 34.4467 212.053 35.4133 212.053 36.72V44H209.973L209.393 42.52H209.313C208.846 43.1067 208.353 43.5333 207.833 43.8C207.313 44.0667 206.599 44.2 205.693 44.2C204.719 44.2 203.913 43.92 203.273 43.36C202.633 42.7867 202.313 41.9133 202.313 40.74C202.313 39.58 202.719 38.7267 203.533 38.18C204.346 37.62 205.566 37.3133 207.193 37.26L209.093 37.2V36.72C209.093 36.1467 208.939 35.7267 208.633 35.46C208.339 35.1933 207.926 35.06 207.393 35.06C206.859 35.06 206.339 35.14 205.833 35.3C205.326 35.4467 204.819 35.6333 204.313 35.86L203.333 33.84C203.919 33.5333 204.566 33.2933 205.273 33.12C205.993 32.9467 206.739 32.86 207.513 32.86ZM207.933 38.98C206.973 39.0067 206.306 39.18 205.933 39.5C205.559 39.82 205.373 40.24 205.373 40.76C205.373 41.2133 205.506 41.54 205.773 41.74C206.039 41.9267 206.386 42.02 206.813 42.02C207.453 42.02 207.993 41.8333 208.433 41.46C208.873 41.0733 209.093 40.5333 209.093 39.84V38.94L207.933 38.98ZM218.643 32.88C219.99 32.88 221.043 33.4133 221.803 34.48H221.883L222.123 33.08H224.643V44.02C224.643 45.58 224.183 46.7667 223.263 47.58C222.343 48.3933 220.983 48.8 219.183 48.8C218.41 48.8 217.69 48.7533 217.023 48.66C216.37 48.5667 215.73 48.4 215.103 48.16V45.78C216.45 46.34 217.87 46.62 219.363 46.62C220.896 46.62 221.663 45.7933 221.663 44.14V43.92C221.663 43.6933 221.67 43.46 221.683 43.22C221.71 42.98 221.73 42.7667 221.743 42.58H221.663C221.29 43.1533 220.843 43.5667 220.323 43.82C219.803 44.0733 219.216 44.2 218.563 44.2C217.27 44.2 216.256 43.7067 215.523 42.72C214.803 41.72 214.443 40.3333 214.443 38.56C214.443 36.7733 214.816 35.38 215.563 34.38C216.31 33.38 217.336 32.88 218.643 32.88ZM219.583 35.3C218.183 35.3 217.483 36.4 217.483 38.6C217.483 40.7733 218.196 41.86 219.623 41.86C220.383 41.86 220.943 41.6467 221.303 41.22C221.676 40.78 221.863 40.02 221.863 38.94V38.58C221.863 37.4067 221.683 36.5667 221.323 36.06C220.963 35.5533 220.383 35.3 219.583 35.3ZM232.259 32.88C233.766 32.88 234.959 33.3133 235.839 34.18C236.719 35.0333 237.159 36.2533 237.159 37.84V39.28H230.119C230.146 40.12 230.393 40.78 230.859 41.26C231.339 41.74 231.999 41.98 232.839 41.98C233.546 41.98 234.186 41.9133 234.759 41.78C235.333 41.6333 235.926 41.4133 236.539 41.12V43.42C236.006 43.6867 235.439 43.88 234.839 44C234.253 44.1333 233.539 44.2 232.699 44.2C231.606 44.2 230.639 44 229.799 43.6C228.959 43.1867 228.299 42.5667 227.819 41.74C227.339 40.9133 227.099 39.8733 227.099 38.62C227.099 37.34 227.313 36.28 227.739 35.44C228.179 34.5867 228.786 33.9467 229.559 33.52C230.333 33.0933 231.233 32.88 232.259 32.88ZM232.279 35C231.706 35 231.226 35.1867 230.839 35.56C230.466 35.9333 230.246 36.5133 230.179 37.3H234.359C234.346 36.6333 234.173 36.0867 233.839 35.66C233.506 35.22 232.986 35 232.279 35ZM239.156 42.6C239.156 41.9867 239.322 41.56 239.656 41.32C239.989 41.0667 240.396 40.94 240.876 40.94C241.342 40.94 241.742 41.0667 242.076 41.32C242.409 41.56 242.576 41.9867 242.576 42.6C242.576 43.1867 242.409 43.6133 242.076 43.88C241.742 44.1333 241.342 44.26 240.876 44.26C240.396 44.26 239.989 44.1333 239.656 43.88C239.322 43.6133 239.156 43.1867 239.156 42.6Z" fill="#A62A1E"/>
<g clip-path="url(#clip0_59605_6288)">
<rect x="20" y="36" width="48" height="1" fill="#C54600"/>
<g clip-path="url(#clip1_59605_6288)">
<rect x="20" y="24" width="24" height="24" rx="12" fill="#C54600"/>
<path d="M33.1825 31.2727V40H32.1257V32.3807H32.0746L29.9439 33.7955V32.7216L32.1257 31.2727H33.1825Z" fill="white"/>
</g>
</g>
<defs>
<clipPath id="clip0_59605_6288">
<rect width="48" height="24" fill="white" transform="translate(20 24)"/>
</clipPath>
<clipPath id="clip1_59605_6288">
<rect x="20" y="24" width="24" height="24" rx="12" fill="white"/>
</clipPath>
</defs>
</svg>
