<svg width="183" height="82" viewBox="0 0 183 82" fill="none" xmlns="http://www.w3.org/2000/svg">
<path d="M64.38 66.7214C64.38 69.1347 63.72 70.9547 62.4 72.1814C61.0933 73.3947 59.2667 74.0014 56.92 74.0014H52.94V59.7214H57.34C58.78 59.7214 60.0267 59.988 61.08 60.5214C62.1333 61.0547 62.9467 61.8414 63.52 62.8814C64.0933 63.908 64.38 65.188 64.38 66.7214ZM62.48 66.7814C62.48 64.8747 62.0067 63.4814 61.06 62.6014C60.1267 61.708 58.8 61.2614 57.08 61.2614H54.74V72.4614H56.68C60.5467 72.4614 62.48 70.568 62.48 66.7814ZM76.6294 68.6214C76.6294 70.3947 76.176 71.768 75.2694 72.7414C74.376 73.7147 73.1627 74.2014 71.6294 74.2014C70.6827 74.2014 69.836 73.988 69.0894 73.5614C68.356 73.1214 67.776 72.488 67.3494 71.6614C66.9227 70.8214 66.7094 69.808 66.7094 68.6214C66.7094 66.848 67.156 65.4814 68.0494 64.5214C68.9427 63.5614 70.156 63.0814 71.6894 63.0814C72.6627 63.0814 73.516 63.3014 74.2494 63.7414C74.996 64.168 75.576 64.7947 75.9894 65.6214C76.416 66.4347 76.6294 67.4347 76.6294 68.6214ZM68.5294 68.6214C68.5294 69.888 68.776 70.8947 69.2694 71.6414C69.776 72.3747 70.576 72.7414 71.6694 72.7414C72.7494 72.7414 73.5427 72.3747 74.0494 71.6414C74.556 70.8947 74.8094 69.888 74.8094 68.6214C74.8094 67.3547 74.556 66.3614 74.0494 65.6414C73.5427 64.9214 72.7427 64.5614 71.6494 64.5614C70.556 64.5614 69.7627 64.9214 69.2694 65.6414C68.776 66.3614 68.5294 67.3547 68.5294 68.6214ZM85.9481 67.9414C85.7748 67.3947 85.6215 66.8614 85.4881 66.3414C85.3681 65.808 85.2748 65.3947 85.2081 65.1014H85.1281C85.0748 65.3947 84.9881 65.808 84.8681 66.3414C84.7481 66.8614 84.5948 67.4014 84.4081 67.9614L82.4881 73.9814H80.4881L77.5481 63.2614H79.3681L80.8481 68.9814C80.9948 69.5547 81.1348 70.1347 81.2681 70.7214C81.4015 71.308 81.4948 71.7947 81.5481 72.1814H81.6281C81.6815 71.9547 81.7415 71.6747 81.8081 71.3414C81.8881 71.008 81.9748 70.6614 82.0681 70.3014C82.1615 69.928 82.2548 69.5947 82.3481 69.3014L84.2481 63.2614H86.1681L88.0081 69.3014C88.1548 69.7547 88.2948 70.248 88.4281 70.7814C88.5748 71.3147 88.6748 71.7747 88.7281 72.1614H88.8081C88.8481 71.828 88.9348 71.368 89.0681 70.7814C89.2148 70.1947 89.3681 69.5947 89.5281 68.9814L91.0281 63.2614H92.8281L89.8481 73.9814H87.7881L85.9481 67.9414ZM99.9108 63.0814C101.191 63.0814 102.157 63.3947 102.811 64.0214C103.464 64.6347 103.791 65.6347 103.791 67.0214V74.0014H102.051V67.1414C102.051 65.4214 101.251 64.5614 99.6508 64.5614C98.4641 64.5614 97.6441 64.8947 97.1908 65.5614C96.7374 66.228 96.5108 67.188 96.5108 68.4414V74.0014H94.7508V63.2814H96.1708L96.4308 64.7414H96.5308C96.8774 64.1814 97.3574 63.768 97.9708 63.5014C98.5841 63.2214 99.2308 63.0814 99.9108 63.0814ZM108.874 74.0014H107.114V58.8014H108.874V74.0014ZM121.59 68.6214C121.59 70.3947 121.137 71.768 120.23 72.7414C119.337 73.7147 118.124 74.2014 116.59 74.2014C115.644 74.2014 114.797 73.988 114.05 73.5614C113.317 73.1214 112.737 72.488 112.31 71.6614C111.884 70.8214 111.67 69.808 111.67 68.6214C111.67 66.848 112.117 65.4814 113.01 64.5214C113.904 63.5614 115.117 63.0814 116.65 63.0814C117.624 63.0814 118.477 63.3014 119.21 63.7414C119.957 64.168 120.537 64.7947 120.95 65.6214C121.377 66.4347 121.59 67.4347 121.59 68.6214ZM113.49 68.6214C113.49 69.888 113.737 70.8947 114.23 71.6414C114.737 72.3747 115.537 72.7414 116.63 72.7414C117.71 72.7414 118.504 72.3747 119.01 71.6414C119.517 70.8947 119.77 69.888 119.77 68.6214C119.77 67.3547 119.517 66.3614 119.01 65.6414C118.504 64.9214 117.704 64.5614 116.61 64.5614C115.517 64.5614 114.724 64.9214 114.23 65.6414C113.737 66.3614 113.49 67.3547 113.49 68.6214ZM128.44 63.1014C129.746 63.1014 130.713 63.388 131.34 63.9614C131.966 64.5347 132.28 65.448 132.28 66.7014V74.0014H131L130.66 72.4814H130.58C130.113 73.068 129.62 73.5014 129.1 73.7814C128.593 74.0614 127.886 74.2014 126.98 74.2014C126.006 74.2014 125.2 73.948 124.56 73.4414C123.92 72.9214 123.6 72.1147 123.6 71.0214C123.6 69.9547 124.02 69.1347 124.86 68.5614C125.7 67.9747 126.993 67.6547 128.74 67.6014L130.56 67.5414V66.9014C130.56 66.008 130.366 65.388 129.98 65.0414C129.593 64.6947 129.046 64.5214 128.34 64.5214C127.78 64.5214 127.246 64.608 126.74 64.7814C126.233 64.9414 125.76 65.128 125.32 65.3414L124.78 64.0214C125.246 63.768 125.8 63.5547 126.44 63.3814C127.08 63.1947 127.746 63.1014 128.44 63.1014ZM128.96 68.8214C127.626 68.8747 126.7 69.088 126.18 69.4614C125.673 69.8347 125.42 70.3614 125.42 71.0414C125.42 71.6414 125.6 72.0814 125.96 72.3614C126.333 72.6414 126.806 72.7814 127.38 72.7814C128.286 72.7814 129.04 72.5347 129.64 72.0414C130.24 71.5347 130.54 70.7614 130.54 69.7214V68.7614L128.96 68.8214ZM139.391 74.2014C138.057 74.2014 136.991 73.7414 136.191 72.8214C135.391 71.888 134.991 70.5014 134.991 68.6614C134.991 66.8214 135.391 65.4347 136.191 64.5014C137.004 63.5547 138.077 63.0814 139.411 63.0814C140.237 63.0814 140.911 63.2347 141.431 63.5414C141.964 63.848 142.397 64.2214 142.731 64.6614H142.851C142.837 64.488 142.811 64.2347 142.771 63.9014C142.744 63.5547 142.731 63.2814 142.731 63.0814V58.8014H144.491V74.0014H143.071L142.811 72.5614H142.731C142.411 73.0147 141.984 73.4014 141.451 73.7214C140.917 74.0414 140.231 74.2014 139.391 74.2014ZM139.671 72.7414C140.804 72.7414 141.597 72.4347 142.051 71.8214C142.517 71.1947 142.751 70.2547 142.751 69.0014V68.6814C142.751 67.348 142.531 66.328 142.091 65.6214C141.651 64.9014 140.837 64.5414 139.651 64.5414C138.704 64.5414 137.991 64.9214 137.511 65.6814C137.044 66.428 136.811 67.4347 136.811 68.7014C136.811 69.9814 137.044 70.9747 137.511 71.6814C137.991 72.388 138.711 72.7414 139.671 72.7414Z" fill="#284162"/>
<path d="M51 76.5014H146.191V77.5014H51V76.5014Z" fill="#284162"/>
<path fill-rule="evenodd" clip-rule="evenodd" d="M166 70.0014L161.293 65.2942L162.707 63.88L166 67.1729V59.0014H168V67.1728L171.293 63.88L172.707 65.2942L168 70.0013V70.0014H168L167 71.0013L166 70.0014Z" fill="#284162"/>
<path fill-rule="evenodd" clip-rule="evenodd" d="M159 69.0014V72.0014H175V69.0014H177V72.0014V74.0014H157L157 72.0014V69.0014H159Z" fill="#284162"/>
<g clip-path="url(#clip0_6951_41488)">
<rect y="67.5323" width="50" height="1" fill="#C54600"/>
<g clip-path="url(#clip1_6951_41488)">
<rect y="55.5323" width="24" height="24" rx="12" fill="#C54600"/>
<path d="M13.1825 62.805V71.5323H12.1257V63.9129H12.0746L9.94389 65.3277V64.2538L12.1257 62.805H13.1825Z" fill="white"/>
</g>
</g>
<g clip-path="url(#clip2_6951_41488)">
<rect x="166" width="1" height="52" fill="#C54600"/>
<g clip-path="url(#clip3_6951_41488)">
<rect x="154" width="24" height="24" rx="12" fill="#C54600"/>
<path d="M163.271 16V15.233L166.151 12.0795C166.489 11.7102 166.768 11.3892 166.987 11.1165C167.205 10.8409 167.367 10.5824 167.472 10.3409C167.58 10.0966 167.634 9.84091 167.634 9.57386C167.634 9.26705 167.56 9.00142 167.413 8.77699C167.268 8.55256 167.069 8.37926 166.816 8.2571C166.563 8.13494 166.279 8.07386 165.964 8.07386C165.629 8.07386 165.336 8.14347 165.086 8.28267C164.839 8.41903 164.647 8.6108 164.511 8.85795C164.377 9.10511 164.31 9.39489 164.31 9.72727H163.305C163.305 9.21591 163.423 8.76705 163.658 8.38068C163.894 7.99432 164.215 7.69318 164.621 7.47727C165.031 7.26136 165.489 7.15341 165.998 7.15341C166.509 7.15341 166.962 7.26136 167.357 7.47727C167.752 7.69318 168.062 7.98437 168.286 8.35085C168.511 8.71733 168.623 9.125 168.623 9.57386C168.623 9.89489 168.565 10.2088 168.448 10.5156C168.335 10.8196 168.136 11.1591 167.852 11.5341C167.57 11.9062 167.18 12.3608 166.68 12.8977L164.719 14.9943V15.0625H168.776V16H163.271Z" fill="white"/>
</g>
</g>
<defs>
<clipPath id="clip0_6951_41488">
<rect width="49.9399" height="25.9677" fill="white" transform="translate(0 54.5323)"/>
</clipPath>
<clipPath id="clip1_6951_41488">
<rect y="55.5323" width="24" height="24" rx="12" fill="white"/>
</clipPath>
<clipPath id="clip2_6951_41488">
<rect width="24" height="51.9355" fill="white" transform="translate(154)"/>
</clipPath>
<clipPath id="clip3_6951_41488">
<rect x="154" width="24" height="24" rx="12" fill="white"/>
</clipPath>
</defs>
</svg>
