<svg width="346" height="251" viewBox="0 0 346 251" fill="none" xmlns="http://www.w3.org/2000/svg">
<path d="M75.8 46.1177V31.8377H78.82V43.6177H84.62V46.1177H75.8ZM91.3686 34.9977C92.8753 34.9977 94.0686 35.431 94.9486 36.2977C95.8286 37.151 96.2686 38.371 96.2686 39.9577V41.3977H89.2286C89.2553 42.2377 89.5019 42.8977 89.9686 43.3777C90.4486 43.8577 91.1086 44.0977 91.9486 44.0977C92.6553 44.0977 93.2953 44.031 93.8686 43.8977C94.4419 43.751 95.0353 43.531 95.6486 43.2377V45.5377C95.1153 45.8043 94.5486 45.9977 93.9486 46.1177C93.3619 46.251 92.6486 46.3177 91.8086 46.3177C90.7153 46.3177 89.7486 46.1177 88.9086 45.7177C88.0686 45.3043 87.4086 44.6843 86.9286 43.8577C86.4486 43.031 86.2086 41.991 86.2086 40.7377C86.2086 39.4577 86.4219 38.3977 86.8486 37.5577C87.2886 36.7043 87.8953 36.0643 88.6686 35.6377C89.4419 35.211 90.3419 34.9977 91.3686 34.9977ZM91.3886 37.1177C90.8153 37.1177 90.3353 37.3043 89.9486 37.6777C89.5753 38.051 89.3553 38.631 89.2886 39.4177H93.4686C93.4553 38.751 93.2819 38.2043 92.9486 37.7777C92.6153 37.3377 92.0953 37.1177 91.3886 37.1177ZM102.225 34.9977C103.572 34.9977 104.625 35.531 105.385 36.5977H105.465L105.705 35.1977H108.225V46.1377C108.225 47.6977 107.765 48.8843 106.845 49.6977C105.925 50.511 104.565 50.9177 102.765 50.9177C101.992 50.9177 101.272 50.871 100.605 50.7777C99.9517 50.6843 99.3117 50.5177 98.685 50.2777V47.8977C100.032 48.4577 101.452 48.7377 102.945 48.7377C104.478 48.7377 105.245 47.911 105.245 46.2577V46.0377C105.245 45.811 105.252 45.5777 105.265 45.3377C105.292 45.0977 105.312 44.8843 105.325 44.6977H105.245C104.872 45.271 104.425 45.6843 103.905 45.9377C103.385 46.191 102.798 46.3177 102.145 46.3177C100.852 46.3177 99.8383 45.8243 99.105 44.8377C98.385 43.8377 98.025 42.451 98.025 40.6777C98.025 38.891 98.3983 37.4977 99.145 36.4977C99.8917 35.4977 100.918 34.9977 102.225 34.9977ZM103.165 37.4177C101.765 37.4177 101.065 38.5177 101.065 40.7177C101.065 42.891 101.778 43.9777 103.205 43.9777C103.965 43.9777 104.525 43.7643 104.885 43.3377C105.258 42.8977 105.445 42.1377 105.445 41.0577V40.6977C105.445 39.5243 105.265 38.6843 104.905 38.1777C104.545 37.671 103.965 37.4177 103.165 37.4177ZM115.841 34.9977C117.348 34.9977 118.541 35.431 119.421 36.2977C120.301 37.151 120.741 38.371 120.741 39.9577V41.3977H113.701C113.728 42.2377 113.975 42.8977 114.441 43.3777C114.921 43.8577 115.581 44.0977 116.421 44.0977C117.128 44.0977 117.768 44.031 118.341 43.8977C118.915 43.751 119.508 43.531 120.121 43.2377V45.5377C119.588 45.8043 119.021 45.9977 118.421 46.1177C117.835 46.251 117.121 46.3177 116.281 46.3177C115.188 46.3177 114.221 46.1177 113.381 45.7177C112.541 45.3043 111.881 44.6843 111.401 43.8577C110.921 43.031 110.681 41.991 110.681 40.7377C110.681 39.4577 110.895 38.3977 111.321 37.5577C111.761 36.7043 112.368 36.0643 113.141 35.6377C113.915 35.211 114.815 34.9977 115.841 34.9977ZM115.861 37.1177C115.288 37.1177 114.808 37.3043 114.421 37.6777C114.048 38.051 113.828 38.631 113.761 39.4177H117.941C117.928 38.751 117.755 38.2043 117.421 37.7777C117.088 37.3377 116.568 37.1177 115.861 37.1177ZM129.358 34.9977C130.531 34.9977 131.471 35.3177 132.178 35.9577C132.884 36.5843 133.238 37.5977 133.238 38.9977V46.1177H130.258V39.7377C130.258 38.951 130.118 38.3643 129.838 37.9777C129.558 37.5777 129.111 37.3777 128.498 37.3777C127.591 37.3777 126.971 37.691 126.638 38.3177C126.304 38.931 126.138 39.8177 126.138 40.9777V46.1177H123.158V35.1977H125.438L125.838 36.5977H125.998C126.344 36.0377 126.818 35.631 127.418 35.3777C128.031 35.1243 128.678 34.9977 129.358 34.9977ZM139.762 46.3177C138.549 46.3177 137.556 45.8443 136.782 44.8977C136.022 43.9377 135.642 42.531 135.642 40.6777C135.642 38.811 136.029 37.3977 136.802 36.4377C137.576 35.4777 138.589 34.9977 139.842 34.9977C140.629 34.9977 141.276 35.151 141.782 35.4577C142.289 35.7643 142.689 36.1443 142.982 36.5977H143.082C143.042 36.3843 142.996 36.0777 142.942 35.6777C142.889 35.2643 142.862 34.8443 142.862 34.4177V30.9177H145.842V46.1177H143.562L142.982 44.6977H142.862C142.569 45.151 142.176 45.5377 141.682 45.8577C141.189 46.1643 140.549 46.3177 139.762 46.3177ZM140.802 43.9377C141.629 43.9377 142.209 43.6977 142.542 43.2177C142.876 42.7243 143.049 41.991 143.062 41.0177V40.6977C143.062 39.631 142.896 38.8177 142.562 38.2577C142.242 37.6977 141.642 37.4177 140.762 37.4177C140.109 37.4177 139.596 37.7043 139.222 38.2777C138.849 38.8377 138.662 39.651 138.662 40.7177C138.662 41.7843 138.849 42.591 139.222 43.1377C139.596 43.671 140.122 43.9377 140.802 43.9377Z" fill="#333333"/>
<path d="M156.8 40.6377C156.8 39.011 157.033 37.4443 157.5 35.9377C157.98 34.4177 158.727 33.051 159.74 31.8377H161.4C160.467 33.091 159.76 34.471 159.28 35.9777C158.813 37.4843 158.58 39.031 158.58 40.6177C158.58 42.1643 158.813 43.6843 159.28 45.1777C159.76 46.6577 160.46 48.0243 161.38 49.2777H159.74C158.727 48.1043 157.98 46.7777 157.5 45.2977C157.033 43.8043 156.8 42.251 156.8 40.6377ZM168.696 35.1977C168.896 35.1977 169.109 35.211 169.336 35.2377C169.576 35.251 169.783 35.2777 169.956 35.3177L169.736 36.9377C169.563 36.8977 169.369 36.8643 169.156 36.8377C168.956 36.811 168.763 36.7977 168.576 36.7977C168.029 36.7977 167.516 36.951 167.036 37.2577C166.556 37.551 166.169 37.971 165.876 38.5177C165.596 39.051 165.456 39.6777 165.456 40.3977V46.1177H163.696V35.3977H165.136L165.336 37.3577H165.416C165.763 36.771 166.209 36.2643 166.756 35.8377C167.303 35.411 167.949 35.1977 168.696 35.1977ZM175.707 35.1977C176.627 35.1977 177.414 35.3977 178.067 35.7977C178.734 36.1977 179.241 36.7643 179.587 37.4977C179.947 38.2177 180.127 39.0643 180.127 40.0377V41.0977H172.787C172.814 42.311 173.121 43.2377 173.707 43.8777C174.307 44.5043 175.141 44.8177 176.207 44.8177C176.887 44.8177 177.487 44.7577 178.007 44.6377C178.541 44.5043 179.087 44.3177 179.647 44.0777V45.6177C179.101 45.8577 178.561 46.031 178.027 46.1377C177.494 46.2577 176.861 46.3177 176.127 46.3177C175.114 46.3177 174.214 46.111 173.427 45.6977C172.654 45.2843 172.047 44.671 171.607 43.8577C171.181 43.031 170.967 42.0243 170.967 40.8377C170.967 39.6643 171.161 38.6577 171.547 37.8177C171.947 36.9777 172.501 36.331 173.207 35.8777C173.927 35.4243 174.761 35.1977 175.707 35.1977ZM175.687 36.6377C174.847 36.6377 174.181 36.911 173.687 37.4577C173.207 37.991 172.921 38.7377 172.827 39.6977H178.287C178.274 38.791 178.061 38.0577 177.647 37.4977C177.234 36.9243 176.581 36.6377 175.687 36.6377ZM189.996 46.3377C189.996 46.0977 190.003 45.8177 190.016 45.4977C190.03 45.1777 190.056 44.9043 190.096 44.6777H189.976C189.67 45.131 189.243 45.5177 188.696 45.8377C188.163 46.1577 187.47 46.3177 186.616 46.3177C185.323 46.3177 184.27 45.8577 183.456 44.9377C182.656 44.0043 182.256 42.6177 182.256 40.7777C182.256 38.9377 182.663 37.551 183.476 36.6177C184.303 35.671 185.37 35.1977 186.676 35.1977C187.516 35.1977 188.203 35.3577 188.736 35.6777C189.27 35.9977 189.696 36.391 190.016 36.8577H190.096L190.356 35.3977H191.756V50.9177H189.996V46.3377ZM186.956 44.8577C188.063 44.8577 188.843 44.5577 189.296 43.9577C189.763 43.3443 190.003 42.411 190.016 41.1577V40.7977C190.016 39.4377 189.79 38.411 189.336 37.7177C188.883 37.011 188.076 36.6577 186.916 36.6577C185.956 36.6577 185.243 37.0377 184.776 37.7977C184.31 38.5443 184.076 39.551 184.076 40.8177C184.076 42.0843 184.31 43.0777 184.776 43.7977C185.256 44.5043 185.983 44.8577 186.956 44.8577ZM204.121 35.3977V46.1177H202.681L202.421 44.6977H202.341C201.994 45.2577 201.514 45.671 200.901 45.9377C200.288 46.191 199.634 46.3177 198.941 46.3177C197.648 46.3177 196.674 46.011 196.021 45.3977C195.368 44.771 195.041 43.7777 195.041 42.4177V35.3977H196.821V42.2977C196.821 44.0043 197.614 44.8577 199.201 44.8577C200.388 44.8577 201.208 44.5243 201.661 43.8577C202.128 43.191 202.361 42.231 202.361 40.9777V35.3977H204.121ZM208.424 31.3777C208.691 31.3777 208.924 31.471 209.124 31.6577C209.338 31.831 209.444 32.111 209.444 32.4977C209.444 32.871 209.338 33.151 209.124 33.3377C208.924 33.5243 208.691 33.6177 208.424 33.6177C208.131 33.6177 207.884 33.5243 207.684 33.3377C207.484 33.151 207.384 32.871 207.384 32.4977C207.384 32.111 207.484 31.831 207.684 31.6577C207.884 31.471 208.131 31.3777 208.424 31.3777ZM209.284 35.3977V46.1177H207.524V35.3977H209.284ZM217.68 35.1977C217.88 35.1977 218.094 35.211 218.32 35.2377C218.56 35.251 218.767 35.2777 218.94 35.3177L218.72 36.9377C218.547 36.8977 218.354 36.8643 218.14 36.8377C217.94 36.811 217.747 36.7977 217.56 36.7977C217.014 36.7977 216.5 36.951 216.02 37.2577C215.54 37.551 215.154 37.971 214.86 38.5177C214.58 39.051 214.44 39.6777 214.44 40.3977V46.1177H212.68V35.3977H214.12L214.32 37.3577H214.4C214.747 36.771 215.194 36.2643 215.74 35.8377C216.287 35.411 216.934 35.1977 217.68 35.1977ZM224.692 35.1977C225.612 35.1977 226.398 35.3977 227.052 35.7977C227.718 36.1977 228.225 36.7643 228.572 37.4977C228.932 38.2177 229.112 39.0643 229.112 40.0377V41.0977H221.772C221.798 42.311 222.105 43.2377 222.692 43.8777C223.292 44.5043 224.125 44.8177 225.192 44.8177C225.872 44.8177 226.472 44.7577 226.992 44.6377C227.525 44.5043 228.072 44.3177 228.632 44.0777V45.6177C228.085 45.8577 227.545 46.031 227.012 46.1377C226.478 46.2577 225.845 46.3177 225.112 46.3177C224.098 46.3177 223.198 46.111 222.412 45.6977C221.638 45.2843 221.032 44.671 220.592 43.8577C220.165 43.031 219.952 42.0243 219.952 40.8377C219.952 39.6643 220.145 38.6577 220.532 37.8177C220.932 36.9777 221.485 36.331 222.192 35.8777C222.912 35.4243 223.745 35.1977 224.692 35.1977ZM224.672 36.6377C223.832 36.6377 223.165 36.911 222.672 37.4577C222.192 37.991 221.905 38.7377 221.812 39.6977H227.272C227.258 38.791 227.045 38.0577 226.632 37.4977C226.218 36.9243 225.565 36.6377 224.672 36.6377ZM235.641 46.3177C234.307 46.3177 233.241 45.8577 232.441 44.9377C231.641 44.0043 231.241 42.6177 231.241 40.7777C231.241 38.9377 231.641 37.551 232.441 36.6177C233.254 35.671 234.327 35.1977 235.661 35.1977C236.487 35.1977 237.161 35.351 237.681 35.6577C238.214 35.9643 238.647 36.3377 238.981 36.7777H239.101C239.087 36.6043 239.061 36.351 239.021 36.0177C238.994 35.671 238.981 35.3977 238.981 35.1977V30.9177H240.741V46.1177H239.321L239.061 44.6777H238.981C238.661 45.131 238.234 45.5177 237.701 45.8377C237.167 46.1577 236.481 46.3177 235.641 46.3177ZM235.921 44.8577C237.054 44.8577 237.847 44.551 238.301 43.9377C238.767 43.311 239.001 42.371 239.001 41.1177V40.7977C239.001 39.4643 238.781 38.4443 238.341 37.7377C237.901 37.0177 237.087 36.6577 235.901 36.6577C234.954 36.6577 234.241 37.0377 233.761 37.7977C233.294 38.5443 233.061 39.551 233.061 40.8177C233.061 42.0977 233.294 43.091 233.761 43.7977C234.241 44.5043 234.961 44.8577 235.921 44.8577ZM247.645 40.6377C247.645 42.251 247.405 43.8043 246.925 45.2977C246.459 46.7777 245.719 48.1043 244.705 49.2777H243.065C243.985 48.0243 244.679 46.6577 245.145 45.1777C245.625 43.6843 245.865 42.1643 245.865 40.6177C245.865 39.031 245.625 37.4843 245.145 35.9777C244.679 34.471 243.979 33.091 243.045 31.8377H244.705C245.719 33.051 246.459 34.4177 246.925 35.9377C247.405 37.4443 247.645 39.011 247.645 40.6377Z" fill="#333333"/>
<path d="M86.86 76.1177H85.06V69.4577H77.74V76.1177H75.94V61.8377H77.74V67.8777H85.06V61.8377H86.86V76.1177ZM91.4242 61.3777C91.6909 61.3777 91.9242 61.471 92.1242 61.6577C92.3376 61.831 92.4442 62.111 92.4442 62.4977C92.4442 62.871 92.3376 63.151 92.1242 63.3377C91.9242 63.5243 91.6909 63.6177 91.4242 63.6177C91.1309 63.6177 90.8842 63.5243 90.6842 63.3377C90.4842 63.151 90.3842 62.871 90.3842 62.4977C90.3842 62.111 90.4842 61.831 90.6842 61.6577C90.8842 61.471 91.1309 61.3777 91.4242 61.3777ZM92.2842 65.3977V76.1177H90.5242V65.3977H92.2842ZM100.84 65.1977C102.12 65.1977 103.087 65.511 103.74 66.1377C104.394 66.751 104.72 67.751 104.72 69.1377V76.1177H102.98V69.2577C102.98 67.5377 102.18 66.6777 100.58 66.6777C99.3938 66.6777 98.5738 67.011 98.1205 67.6777C97.6671 68.3443 97.4405 69.3043 97.4405 70.5577V76.1177H95.6805V65.3977H97.1005L97.3605 66.8577H97.4605C97.8071 66.2977 98.2871 65.8843 98.9005 65.6177C99.5138 65.3377 100.16 65.1977 100.84 65.1977ZM111.624 74.8777C111.89 74.8777 112.164 74.8577 112.444 74.8177C112.724 74.7643 112.95 74.711 113.124 74.6577V75.9977C112.937 76.091 112.67 76.1643 112.324 76.2177C111.977 76.2843 111.644 76.3177 111.324 76.3177C110.764 76.3177 110.244 76.2243 109.764 76.0377C109.297 75.8377 108.917 75.4977 108.624 75.0177C108.33 74.5377 108.184 73.8643 108.184 72.9977V66.7577H106.664V65.9177L108.204 65.2177L108.904 62.9377H109.944V65.3977H113.044V66.7577H109.944V72.9577C109.944 73.611 110.097 74.0977 110.404 74.4177C110.724 74.7243 111.13 74.8777 111.624 74.8777ZM124.046 74.8777C124.312 74.8777 124.586 74.8577 124.866 74.8177C125.146 74.7643 125.372 74.711 125.546 74.6577V75.9977C125.359 76.091 125.092 76.1643 124.746 76.2177C124.399 76.2843 124.066 76.3177 123.746 76.3177C123.186 76.3177 122.666 76.2243 122.186 76.0377C121.719 75.8377 121.339 75.4977 121.046 75.0177C120.752 74.5377 120.606 73.8643 120.606 72.9977V66.7577H119.086V65.9177L120.626 65.2177L121.326 62.9377H122.366V65.3977H125.466V66.7577H122.366V72.9577C122.366 73.611 122.519 74.0977 122.826 74.4177C123.146 74.7243 123.552 74.8777 124.046 74.8777ZM131.832 65.1977C132.752 65.1977 133.539 65.3977 134.192 65.7977C134.859 66.1977 135.366 66.7643 135.712 67.4977C136.072 68.2177 136.252 69.0643 136.252 70.0377V71.0977H128.912C128.939 72.311 129.246 73.2377 129.832 73.8777C130.432 74.5043 131.266 74.8177 132.332 74.8177C133.012 74.8177 133.612 74.7577 134.132 74.6377C134.666 74.5043 135.212 74.3177 135.772 74.0777V75.6177C135.226 75.8577 134.686 76.031 134.152 76.1377C133.619 76.2577 132.986 76.3177 132.252 76.3177C131.239 76.3177 130.339 76.111 129.552 75.6977C128.779 75.2843 128.172 74.671 127.732 73.8577C127.306 73.031 127.092 72.0243 127.092 70.8377C127.092 69.6643 127.286 68.6577 127.672 67.8177C128.072 66.9777 128.626 66.331 129.332 65.8777C130.052 65.4243 130.886 65.1977 131.832 65.1977ZM131.812 66.6377C130.972 66.6377 130.306 66.911 129.812 67.4577C129.332 67.991 129.046 68.7377 128.952 69.6977H134.412C134.399 68.791 134.186 68.0577 133.772 67.4977C133.359 66.9243 132.706 66.6377 131.812 66.6377ZM141.131 70.6377L137.431 65.3977H139.431L142.191 69.4377L144.931 65.3977H146.911L143.211 70.6377L147.111 76.1177H145.111L142.191 71.8377L139.231 76.1177H137.251L141.131 70.6377ZM152.757 74.8777C153.023 74.8777 153.297 74.8577 153.577 74.8177C153.857 74.7643 154.083 74.711 154.257 74.6577V75.9977C154.07 76.091 153.803 76.1643 153.457 76.2177C153.11 76.2843 152.777 76.3177 152.457 76.3177C151.897 76.3177 151.377 76.2243 150.897 76.0377C150.43 75.8377 150.05 75.4977 149.757 75.0177C149.463 74.5377 149.317 73.8643 149.317 72.9977V66.7577H147.797V65.9177L149.337 65.2177L150.037 62.9377H151.077V65.3977H154.177V66.7577H151.077V72.9577C151.077 73.611 151.23 74.0977 151.537 74.4177C151.857 74.7243 152.263 74.8777 152.757 74.8777Z" fill="#43474E"/>
<rect x="75" y="99.1177" width="46" height="46" rx="23" fill="white"/>
<rect x="75" y="99.1177" width="46" height="46" rx="23" stroke="#333333" stroke-width="2"/>
<path d="M150.5 122.958C150.5 124.064 150.36 125.071 150.08 125.978C149.813 126.871 149.4 127.644 148.84 128.298C148.293 128.951 147.6 129.451 146.76 129.798C145.933 130.144 144.967 130.318 143.86 130.318C142.727 130.318 141.74 130.144 140.9 129.798C140.073 129.438 139.38 128.938 138.82 128.298C138.273 127.644 137.867 126.864 137.6 125.958C137.333 125.051 137.2 124.044 137.2 122.938C137.2 121.471 137.44 120.191 137.92 119.098C138.4 118.004 139.133 117.151 140.12 116.538C141.12 115.924 142.373 115.618 143.88 115.618C145.347 115.618 146.567 115.924 147.54 116.538C148.527 117.138 149.267 117.991 149.76 119.098C150.253 120.191 150.5 121.478 150.5 122.958ZM139.48 122.958C139.48 124.104 139.633 125.091 139.94 125.918C140.247 126.731 140.727 127.364 141.38 127.818C142.033 128.258 142.86 128.478 143.86 128.478C144.873 128.478 145.7 128.258 146.34 127.818C146.98 127.364 147.453 126.731 147.76 125.918C148.067 125.091 148.22 124.104 148.22 122.958C148.22 121.238 147.873 119.898 147.18 118.938C146.5 117.964 145.4 117.478 143.88 117.478C142.867 117.478 142.033 117.698 141.38 118.138C140.727 118.578 140.247 119.204 139.94 120.018C139.633 120.831 139.48 121.811 139.48 122.958ZM158.743 119.138C160.036 119.138 161.076 119.604 161.863 120.538C162.663 121.471 163.063 122.864 163.063 124.718C163.063 125.931 162.883 126.958 162.523 127.798C162.163 128.638 161.656 129.271 161.003 129.698C160.35 130.111 159.59 130.318 158.723 130.318C158.176 130.318 157.696 130.251 157.283 130.118C156.87 129.971 156.516 129.784 156.223 129.558C155.943 129.318 155.696 129.064 155.483 128.798H155.343C155.383 129.038 155.416 129.324 155.443 129.658C155.47 129.978 155.483 130.264 155.483 130.518V134.918H153.363V119.338H155.083L155.383 120.778H155.483C155.696 120.484 155.95 120.211 156.243 119.958C156.536 119.704 156.89 119.504 157.303 119.358C157.716 119.211 158.196 119.138 158.743 119.138ZM158.243 120.878C157.576 120.878 157.043 121.011 156.643 121.278C156.243 121.531 155.95 121.918 155.763 122.438C155.59 122.944 155.496 123.591 155.483 124.378V124.698C155.483 125.524 155.57 126.231 155.743 126.818C155.916 127.391 156.203 127.831 156.603 128.138C157.016 128.431 157.576 128.578 158.283 128.578C158.883 128.578 159.37 128.418 159.743 128.098C160.13 127.764 160.416 127.304 160.603 126.718C160.79 126.131 160.883 125.451 160.883 124.678C160.883 123.504 160.67 122.578 160.243 121.898C159.816 121.218 159.15 120.878 158.243 120.878ZM169.645 128.598C169.925 128.598 170.212 128.571 170.505 128.518C170.799 128.464 171.052 128.404 171.265 128.338V129.938C171.039 130.044 170.732 130.131 170.345 130.198C169.959 130.278 169.572 130.318 169.185 130.318C168.599 130.318 168.059 130.218 167.565 130.018C167.085 129.818 166.699 129.471 166.405 128.978C166.112 128.484 165.965 127.798 165.965 126.918V120.958H164.465V119.998L166.045 119.198L166.785 116.918H168.085V119.338H171.165V120.958H168.085V126.878C168.085 127.464 168.225 127.898 168.505 128.178C168.799 128.458 169.179 128.598 169.645 128.598ZM175.542 119.338V130.118H173.422V119.338H175.542ZM174.502 115.238C174.822 115.238 175.102 115.331 175.342 115.518C175.582 115.704 175.702 116.018 175.702 116.458C175.702 116.884 175.582 117.198 175.342 117.398C175.102 117.584 174.822 117.678 174.502 117.678C174.155 117.678 173.862 117.584 173.622 117.398C173.395 117.198 173.282 116.884 173.282 116.458C173.282 116.018 173.395 115.704 173.622 115.518C173.862 115.331 174.155 115.238 174.502 115.238ZM188.371 124.718C188.371 125.611 188.251 126.404 188.011 127.098C187.771 127.791 187.431 128.378 186.991 128.858C186.551 129.338 186.018 129.704 185.391 129.958C184.764 130.198 184.058 130.318 183.271 130.318C182.551 130.318 181.884 130.198 181.271 129.958C180.658 129.704 180.124 129.338 179.671 128.858C179.231 128.378 178.884 127.791 178.631 127.098C178.378 126.404 178.251 125.604 178.251 124.698C178.251 123.511 178.451 122.504 178.851 121.678C179.264 120.851 179.851 120.224 180.611 119.798C181.384 119.358 182.291 119.138 183.331 119.138C184.318 119.138 185.184 119.358 185.931 119.798C186.691 120.224 187.284 120.851 187.711 121.678C188.151 122.504 188.371 123.518 188.371 124.718ZM180.431 124.718C180.431 125.518 180.531 126.211 180.731 126.798C180.931 127.371 181.244 127.811 181.671 128.118C182.098 128.424 182.644 128.578 183.311 128.578C183.978 128.578 184.524 128.424 184.951 128.118C185.378 127.811 185.691 127.371 185.891 126.798C186.091 126.211 186.191 125.518 186.191 124.718C186.191 123.891 186.084 123.198 185.871 122.638C185.671 122.078 185.358 121.651 184.931 121.358C184.518 121.051 183.971 120.898 183.291 120.898C182.291 120.898 181.564 121.231 181.111 121.898C180.658 122.564 180.431 123.504 180.431 124.718ZM196.518 119.138C197.772 119.138 198.732 119.451 199.398 120.078C200.065 120.704 200.398 121.711 200.398 123.098V130.118H198.298V123.398C198.298 122.558 198.118 121.931 197.758 121.518C197.412 121.091 196.852 120.878 196.078 120.878C194.985 120.878 194.225 121.204 193.798 121.858C193.385 122.511 193.178 123.451 193.178 124.678V130.118H191.058V119.338H192.738L193.038 120.778H193.158C193.398 120.404 193.692 120.098 194.038 119.858C194.385 119.618 194.772 119.438 195.198 119.318C195.625 119.198 196.065 119.138 196.518 119.138ZM214.631 130.118H212.531V120.638C212.531 120.304 212.531 119.998 212.531 119.718C212.545 119.424 212.558 119.144 212.571 118.878C212.585 118.598 212.598 118.331 212.611 118.078C212.438 118.251 212.258 118.418 212.071 118.578C211.885 118.738 211.671 118.924 211.431 119.138L209.871 120.398L208.791 119.038L212.871 115.838H214.631V130.118Z" fill="#333333"/>
<path d="M148.86 162.118H147.06V155.458H139.74V162.118H137.94V147.838H139.74V153.878H147.06V147.838H148.86V162.118ZM153.424 147.378C153.691 147.378 153.924 147.471 154.124 147.658C154.338 147.831 154.444 148.111 154.444 148.498C154.444 148.871 154.338 149.151 154.124 149.338C153.924 149.524 153.691 149.618 153.424 149.618C153.131 149.618 152.884 149.524 152.684 149.338C152.484 149.151 152.384 148.871 152.384 148.498C152.384 148.111 152.484 147.831 152.684 147.658C152.884 147.471 153.131 147.378 153.424 147.378ZM154.284 151.398V162.118H152.524V151.398H154.284ZM162.84 151.198C164.12 151.198 165.087 151.511 165.74 152.138C166.394 152.751 166.72 153.751 166.72 155.138V162.118H164.98V155.258C164.98 153.538 164.18 152.678 162.58 152.678C161.394 152.678 160.574 153.011 160.12 153.678C159.667 154.344 159.44 155.304 159.44 156.558V162.118H157.68V151.398H159.1L159.36 152.858H159.46C159.807 152.298 160.287 151.884 160.9 151.618C161.514 151.338 162.16 151.198 162.84 151.198ZM173.624 160.878C173.89 160.878 174.164 160.858 174.444 160.818C174.724 160.764 174.95 160.711 175.124 160.658V161.998C174.937 162.091 174.67 162.164 174.324 162.218C173.977 162.284 173.644 162.318 173.324 162.318C172.764 162.318 172.244 162.224 171.764 162.038C171.297 161.838 170.917 161.498 170.624 161.018C170.33 160.538 170.184 159.864 170.184 158.998V152.758H168.664V151.918L170.204 151.218L170.904 148.938H171.944V151.398H175.044V152.758H171.944V158.958C171.944 159.611 172.097 160.098 172.404 160.418C172.724 160.724 173.13 160.878 173.624 160.878ZM186.046 160.878C186.312 160.878 186.586 160.858 186.866 160.818C187.146 160.764 187.372 160.711 187.546 160.658V161.998C187.359 162.091 187.092 162.164 186.746 162.218C186.399 162.284 186.066 162.318 185.746 162.318C185.186 162.318 184.666 162.224 184.186 162.038C183.719 161.838 183.339 161.498 183.046 161.018C182.752 160.538 182.606 159.864 182.606 158.998V152.758H181.086V151.918L182.626 151.218L183.326 148.938H184.366V151.398H187.466V152.758H184.366V158.958C184.366 159.611 184.519 160.098 184.826 160.418C185.146 160.724 185.552 160.878 186.046 160.878ZM193.832 151.198C194.752 151.198 195.539 151.398 196.192 151.798C196.859 152.198 197.366 152.764 197.712 153.498C198.072 154.218 198.252 155.064 198.252 156.038V157.098H190.912C190.939 158.311 191.246 159.238 191.832 159.878C192.432 160.504 193.266 160.818 194.332 160.818C195.012 160.818 195.612 160.758 196.132 160.638C196.666 160.504 197.212 160.318 197.772 160.078V161.618C197.226 161.858 196.686 162.031 196.152 162.138C195.619 162.258 194.986 162.318 194.252 162.318C193.239 162.318 192.339 162.111 191.552 161.698C190.779 161.284 190.172 160.671 189.732 159.858C189.306 159.031 189.092 158.024 189.092 156.838C189.092 155.664 189.286 154.658 189.672 153.818C190.072 152.978 190.626 152.331 191.332 151.878C192.052 151.424 192.886 151.198 193.832 151.198ZM193.812 152.638C192.972 152.638 192.306 152.911 191.812 153.458C191.332 153.991 191.046 154.738 190.952 155.698H196.412C196.399 154.791 196.186 154.058 195.772 153.498C195.359 152.924 194.706 152.638 193.812 152.638ZM203.131 156.638L199.431 151.398H201.431L204.191 155.438L206.931 151.398H208.911L205.211 156.638L209.111 162.118H207.111L204.191 157.838L201.231 162.118H199.251L203.131 156.638ZM214.757 160.878C215.023 160.878 215.297 160.858 215.577 160.818C215.857 160.764 216.083 160.711 216.257 160.658V161.998C216.07 162.091 215.803 162.164 215.457 162.218C215.11 162.284 214.777 162.318 214.457 162.318C213.897 162.318 213.377 162.224 212.897 162.038C212.43 161.838 212.05 161.498 211.757 161.018C211.463 160.538 211.317 159.864 211.317 158.998V152.758H209.797V151.918L211.337 151.218L212.037 148.938H213.077V151.398H216.177V152.758H213.077V158.958C213.077 159.611 213.23 160.098 213.537 160.418C213.857 160.724 214.263 160.878 214.757 160.878Z" fill="#43474E"/>
<rect x="75" y="183.118" width="42" height="42" rx="21" fill="white"/>
<rect x="75" y="183.118" width="42" height="42" rx="21" stroke="#333333" stroke-width="2"/>
<circle cx="96" cy="204.118" r="9" fill="#333333"/>
<path d="M147.5 203.958C147.5 205.064 147.36 206.071 147.08 206.978C146.813 207.871 146.4 208.644 145.84 209.298C145.293 209.951 144.6 210.451 143.76 210.798C142.933 211.144 141.967 211.318 140.86 211.318C139.727 211.318 138.74 211.144 137.9 210.798C137.073 210.438 136.38 209.938 135.82 209.298C135.273 208.644 134.867 207.864 134.6 206.958C134.333 206.051 134.2 205.044 134.2 203.938C134.2 202.471 134.44 201.191 134.92 200.098C135.4 199.004 136.133 198.151 137.12 197.538C138.12 196.924 139.373 196.618 140.88 196.618C142.347 196.618 143.567 196.924 144.54 197.538C145.527 198.138 146.267 198.991 146.76 200.098C147.253 201.191 147.5 202.478 147.5 203.958ZM136.48 203.958C136.48 205.104 136.633 206.091 136.94 206.918C137.247 207.731 137.727 208.364 138.38 208.818C139.033 209.258 139.86 209.478 140.86 209.478C141.873 209.478 142.7 209.258 143.34 208.818C143.98 208.364 144.453 207.731 144.76 206.918C145.067 206.091 145.22 205.104 145.22 203.958C145.22 202.238 144.873 200.898 144.18 199.938C143.5 198.964 142.4 198.478 140.88 198.478C139.867 198.478 139.033 198.698 138.38 199.138C137.727 199.578 137.247 200.204 136.94 201.018C136.633 201.831 136.48 202.811 136.48 203.958ZM155.743 200.138C157.036 200.138 158.076 200.604 158.863 201.538C159.663 202.471 160.063 203.864 160.063 205.718C160.063 206.931 159.883 207.958 159.523 208.798C159.163 209.638 158.656 210.271 158.003 210.698C157.35 211.111 156.59 211.318 155.723 211.318C155.176 211.318 154.696 211.251 154.283 211.118C153.87 210.971 153.516 210.784 153.223 210.558C152.943 210.318 152.696 210.064 152.483 209.798H152.343C152.383 210.038 152.416 210.324 152.443 210.658C152.47 210.978 152.483 211.264 152.483 211.518V215.918H150.363V200.338H152.083L152.383 201.778H152.483C152.696 201.484 152.95 201.211 153.243 200.958C153.536 200.704 153.89 200.504 154.303 200.358C154.716 200.211 155.196 200.138 155.743 200.138ZM155.243 201.878C154.576 201.878 154.043 202.011 153.643 202.278C153.243 202.531 152.95 202.918 152.763 203.438C152.59 203.944 152.496 204.591 152.483 205.378V205.698C152.483 206.524 152.57 207.231 152.743 207.818C152.916 208.391 153.203 208.831 153.603 209.138C154.016 209.431 154.576 209.578 155.283 209.578C155.883 209.578 156.37 209.418 156.743 209.098C157.13 208.764 157.416 208.304 157.603 207.718C157.79 207.131 157.883 206.451 157.883 205.678C157.883 204.504 157.67 203.578 157.243 202.898C156.816 202.218 156.15 201.878 155.243 201.878ZM166.645 209.598C166.925 209.598 167.212 209.571 167.505 209.518C167.799 209.464 168.052 209.404 168.265 209.338V210.938C168.039 211.044 167.732 211.131 167.345 211.198C166.959 211.278 166.572 211.318 166.185 211.318C165.599 211.318 165.059 211.218 164.565 211.018C164.085 210.818 163.699 210.471 163.405 209.978C163.112 209.484 162.965 208.798 162.965 207.918V201.958H161.465V200.998L163.045 200.198L163.785 197.918H165.085V200.338H168.165V201.958H165.085V207.878C165.085 208.464 165.225 208.898 165.505 209.178C165.799 209.458 166.179 209.598 166.645 209.598ZM172.542 200.338V211.118H170.422V200.338H172.542ZM171.502 196.238C171.822 196.238 172.102 196.331 172.342 196.518C172.582 196.704 172.702 197.018 172.702 197.458C172.702 197.884 172.582 198.198 172.342 198.398C172.102 198.584 171.822 198.678 171.502 198.678C171.155 198.678 170.862 198.584 170.622 198.398C170.395 198.198 170.282 197.884 170.282 197.458C170.282 197.018 170.395 196.704 170.622 196.518C170.862 196.331 171.155 196.238 171.502 196.238ZM185.371 205.718C185.371 206.611 185.251 207.404 185.011 208.098C184.771 208.791 184.431 209.378 183.991 209.858C183.551 210.338 183.018 210.704 182.391 210.958C181.764 211.198 181.058 211.318 180.271 211.318C179.551 211.318 178.884 211.198 178.271 210.958C177.658 210.704 177.124 210.338 176.671 209.858C176.231 209.378 175.884 208.791 175.631 208.098C175.378 207.404 175.251 206.604 175.251 205.698C175.251 204.511 175.451 203.504 175.851 202.678C176.264 201.851 176.851 201.224 177.611 200.798C178.384 200.358 179.291 200.138 180.331 200.138C181.318 200.138 182.184 200.358 182.931 200.798C183.691 201.224 184.284 201.851 184.711 202.678C185.151 203.504 185.371 204.518 185.371 205.718ZM177.431 205.718C177.431 206.518 177.531 207.211 177.731 207.798C177.931 208.371 178.244 208.811 178.671 209.118C179.098 209.424 179.644 209.578 180.311 209.578C180.978 209.578 181.524 209.424 181.951 209.118C182.378 208.811 182.691 208.371 182.891 207.798C183.091 207.211 183.191 206.518 183.191 205.718C183.191 204.891 183.084 204.198 182.871 203.638C182.671 203.078 182.358 202.651 181.931 202.358C181.518 202.051 180.971 201.898 180.291 201.898C179.291 201.898 178.564 202.231 178.111 202.898C177.658 203.564 177.431 204.504 177.431 205.718ZM193.518 200.138C194.772 200.138 195.732 200.451 196.398 201.078C197.065 201.704 197.398 202.711 197.398 204.098V211.118H195.298V204.398C195.298 203.558 195.118 202.931 194.758 202.518C194.412 202.091 193.852 201.878 193.078 201.878C191.985 201.878 191.225 202.204 190.798 202.858C190.385 203.511 190.178 204.451 190.178 205.678V211.118H188.058V200.338H189.738L190.038 201.778H190.158C190.398 201.404 190.692 201.098 191.038 200.858C191.385 200.618 191.772 200.438 192.198 200.318C192.625 200.198 193.065 200.138 193.518 200.138ZM214.711 211.118H205.111V209.478L208.791 205.738C209.511 205.004 210.111 204.371 210.591 203.838C211.071 203.291 211.431 202.771 211.671 202.278C211.911 201.771 212.031 201.224 212.031 200.638C212.031 199.904 211.818 199.358 211.391 198.998C210.965 198.624 210.411 198.438 209.731 198.438C209.078 198.438 208.491 198.564 207.971 198.818C207.451 199.058 206.911 199.398 206.351 199.838L205.211 198.418C205.598 198.084 206.011 197.784 206.451 197.518C206.905 197.251 207.405 197.038 207.951 196.878C208.511 196.718 209.125 196.638 209.791 196.638C210.698 196.638 211.478 196.798 212.131 197.118C212.785 197.424 213.285 197.864 213.631 198.438C213.991 199.011 214.171 199.684 214.171 200.458C214.171 201.031 214.085 201.571 213.911 202.078C213.738 202.571 213.485 203.058 213.151 203.538C212.831 204.018 212.438 204.504 211.971 204.998C211.505 205.491 210.991 206.011 210.431 206.558L207.771 209.138V209.238H214.711V211.118Z" fill="#333333"/>
<g clip-path="url(#clip0_39_1705)">
<rect x="226" y="154" width="62" height="1" fill="#C54600"/>
<g clip-path="url(#clip1_39_1705)">
<rect x="264" y="142" width="24" height="24" rx="12" fill="#C54600"/>
<path d="M276.112 159.139C275.588 159.136 275.083 159.048 274.596 158.876C274.112 158.703 273.677 158.423 273.293 158.036C272.908 157.648 272.604 157.134 272.378 156.494C272.156 155.855 272.045 155.069 272.045 154.138C272.048 153.283 272.146 152.519 272.338 151.846C272.534 151.17 272.812 150.596 273.174 150.126C273.538 149.655 273.974 149.297 274.481 149.052C274.988 148.803 275.557 148.679 276.186 148.679C276.866 148.679 277.466 148.812 277.986 149.077C278.507 149.339 278.924 149.695 279.239 150.146C279.557 150.596 279.749 151.102 279.816 151.662H277.693C277.61 151.307 277.436 151.029 277.171 150.827C276.906 150.625 276.578 150.523 276.186 150.523C275.524 150.523 275.02 150.812 274.675 151.388C274.334 151.965 274.16 152.749 274.153 153.74H274.223C274.375 153.438 274.581 153.182 274.839 152.969C275.101 152.754 275.398 152.59 275.729 152.477C276.064 152.361 276.417 152.303 276.788 152.303C277.391 152.303 277.928 152.446 278.399 152.731C278.869 153.013 279.241 153.4 279.512 153.894C279.784 154.388 279.92 154.953 279.92 155.589C279.92 156.279 279.759 156.892 279.438 157.429C279.12 157.966 278.674 158.387 278.1 158.692C277.53 158.993 276.868 159.143 276.112 159.139ZM276.102 157.449C276.433 157.449 276.73 157.369 276.992 157.21C277.254 157.051 277.459 156.836 277.608 156.564C277.757 156.292 277.832 155.987 277.832 155.649C277.832 155.311 277.757 155.008 277.608 154.739C277.462 154.471 277.26 154.257 277.002 154.098C276.743 153.939 276.448 153.859 276.117 153.859C275.868 153.859 275.638 153.906 275.426 153.999C275.217 154.091 275.033 154.221 274.874 154.386C274.718 154.552 274.596 154.744 274.506 154.963C274.417 155.179 274.372 155.409 274.372 155.654C274.372 155.982 274.446 156.282 274.596 156.554C274.748 156.826 274.953 157.043 275.212 157.205C275.474 157.368 275.77 157.449 276.102 157.449Z" fill="white"/>
</g>
</g>
<g clip-path="url(#clip2_39_1705)">
<rect x="226" y="122" width="62" height="1" fill="#C54600"/>
<g clip-path="url(#clip3_39_1705)">
<rect x="264" y="110" width="24" height="24" rx="12" fill="#C54600"/>
<path d="M276.032 127.139C275.33 127.139 274.703 127.01 274.153 126.751C273.606 126.493 273.172 126.137 272.85 125.683C272.529 125.228 272.362 124.708 272.348 124.121H274.436C274.46 124.516 274.625 124.836 274.934 125.081C275.242 125.326 275.608 125.449 276.032 125.449C276.37 125.449 276.669 125.374 276.927 125.225C277.189 125.073 277.393 124.862 277.539 124.594C277.688 124.322 277.762 124.01 277.762 123.659C277.762 123.301 277.686 122.986 277.534 122.714C277.385 122.443 277.177 122.231 276.912 122.078C276.647 121.926 276.344 121.848 276.002 121.844C275.704 121.844 275.414 121.906 275.132 122.028C274.854 122.151 274.637 122.318 274.481 122.531L272.567 122.188L273.049 116.818H279.274V118.578H274.824L274.561 121.129H274.62C274.799 120.877 275.069 120.668 275.431 120.502C275.792 120.336 276.196 120.254 276.644 120.254C277.257 120.254 277.804 120.398 278.284 120.686C278.765 120.974 279.145 121.371 279.423 121.874C279.701 122.375 279.839 122.951 279.836 123.604C279.839 124.29 279.68 124.9 279.358 125.434C279.04 125.964 278.594 126.382 278.021 126.687C277.451 126.988 276.788 127.139 276.032 127.139Z" fill="white"/>
</g>
</g>
<g clip-path="url(#clip4_39_1705)">
<rect x="25" y="204.235" width="70" height="1" fill="#C54600"/>
<g clip-path="url(#clip5_39_1705)">
<rect x="25" y="192.235" width="24" height="24" rx="12" fill="#C54600"/>
<path d="M32.927 207.446V205.75L37.1777 199.054H38.6394V201.4H37.7743L35.0946 205.641V205.72H41.1351V207.446H32.927ZM37.8141 209.235V206.929L37.8539 206.178V199.054H39.8723V209.235H37.8141Z" fill="white"/>
</g>
</g>
<g clip-path="url(#clip6_39_1705)">
<rect x="24" y="121.235" width="48" height="1" fill="#C54600"/>
<g clip-path="url(#clip7_39_1705)">
<rect x="24" y="109.235" width="24" height="24" rx="12" fill="#C54600"/>
<path d="M35.9745 126.375C35.2321 126.375 34.5709 126.247 33.9909 125.992C33.4142 125.733 32.9584 125.379 32.6237 124.928C32.2922 124.474 32.1215 123.95 32.1116 123.357H34.2792C34.2925 123.605 34.3737 123.824 34.5228 124.013C34.6753 124.199 34.8775 124.343 35.1294 124.446C35.3812 124.548 35.6646 124.6 35.9795 124.6C36.3076 124.6 36.5976 124.542 36.8495 124.426C37.1014 124.31 37.2986 124.149 37.4411 123.943C37.5837 123.738 37.6549 123.501 37.6549 123.233C37.6549 122.961 37.5787 122.72 37.4262 122.512C37.2771 122.3 37.0616 122.134 36.7799 122.014C36.5015 121.895 36.1701 121.835 35.7856 121.835H34.836V120.255H35.7856C36.1104 120.255 36.3971 120.198 36.6457 120.085C36.8976 119.973 37.0931 119.817 37.2323 119.618C37.3715 119.416 37.4411 119.181 37.4411 118.912C37.4411 118.657 37.3798 118.433 37.2572 118.241C37.1379 118.045 36.9688 117.893 36.7501 117.784C36.5347 117.674 36.2828 117.62 35.9944 117.62C35.7027 117.62 35.4359 117.673 35.194 117.779C34.952 117.881 34.7581 118.029 34.6123 118.221C34.4665 118.413 34.3886 118.639 34.3786 118.897H32.3154C32.3254 118.311 32.4927 117.794 32.8176 117.346C33.1424 116.899 33.5799 116.549 34.1301 116.297C34.6836 116.042 35.3083 115.914 36.0044 115.914C36.707 115.914 37.3218 116.042 37.8488 116.297C38.3758 116.552 38.7851 116.897 39.0768 117.331C39.3718 117.762 39.5176 118.246 39.5143 118.783C39.5176 119.353 39.3403 119.829 38.9823 120.21C38.6277 120.591 38.1653 120.833 37.5953 120.936V121.015C38.3443 121.111 38.9144 121.371 39.3055 121.796C39.6999 122.217 39.8954 122.744 39.8921 123.377C39.8954 123.957 39.7281 124.472 39.39 124.923C39.0553 125.374 38.5929 125.728 38.0029 125.987C37.413 126.245 36.7368 126.375 35.9745 126.375Z" fill="white"/>
</g>
</g>
<g clip-path="url(#clip8_39_1705)">
<rect x="24" y="68.2354" width="45" height="1" fill="#C54600"/>
<g clip-path="url(#clip9_39_1705)">
<rect x="24" y="56.2354" width="24" height="24" rx="12" fill="#C54600"/>
<path d="M32.4161 73.2354V71.6842L36.0404 68.3284C36.3486 68.0301 36.6072 67.7616 36.816 67.523C37.0281 67.2844 37.1888 67.0507 37.2982 66.822C37.4076 66.59 37.4623 66.3398 37.4623 66.0713C37.4623 65.773 37.3943 65.5161 37.2584 65.3007C37.1225 65.0819 36.9369 64.9146 36.7016 64.7986C36.4663 64.6792 36.1995 64.6196 35.9012 64.6196C35.5896 64.6196 35.3179 64.6826 35.0858 64.8085C34.8538 64.9345 34.6749 65.1151 34.5489 65.3504C34.423 65.5857 34.36 65.8658 34.36 66.1906H32.3167C32.3167 65.5244 32.4675 64.9461 32.7691 64.4555C33.0707 63.965 33.4933 63.5855 34.0368 63.317C34.5804 63.0486 35.2068 62.9143 35.9161 62.9143C36.6453 62.9143 37.28 63.0436 37.8202 63.3021C38.3638 63.5573 38.7864 63.912 39.088 64.366C39.3896 64.8201 39.5404 65.3405 39.5404 65.9271C39.5404 66.3116 39.4642 66.6911 39.3117 67.0656C39.1626 67.4401 38.8957 67.8561 38.5113 68.3135C38.1268 68.7675 37.5849 69.3128 36.8856 69.9491L35.3991 71.4058V71.4754H39.6746V73.2354H32.4161Z" fill="white"/>
</g>
</g>
<g clip-path="url(#clip10_39_1705)">
<rect x="24" y="38.2354" width="45" height="1" fill="#C54600"/>
<g clip-path="url(#clip11_39_1705)">
<rect x="24" y="26.2354" width="24" height="24" rx="12" fill="#C54600"/>
<path d="M37.8302 33.0535V43.2354H35.6775V35.0969H35.6178L33.2861 36.5585V34.6494L35.8067 33.0535H37.8302Z" fill="white"/>
</g>
</g>
<defs>
<clipPath id="clip0_39_1705">
<rect width="62" height="24" fill="white" transform="translate(226 142)"/>
</clipPath>
<clipPath id="clip1_39_1705">
<rect x="264" y="142" width="24" height="24" rx="12" fill="white"/>
</clipPath>
<clipPath id="clip2_39_1705">
<rect width="62" height="24" fill="white" transform="translate(226 110)"/>
</clipPath>
<clipPath id="clip3_39_1705">
<rect x="264" y="110" width="24" height="24" rx="12" fill="white"/>
</clipPath>
<clipPath id="clip4_39_1705">
<rect width="70" height="24" fill="white" transform="translate(25 192.235)"/>
</clipPath>
<clipPath id="clip5_39_1705">
<rect x="25" y="192.235" width="24" height="24" rx="12" fill="white"/>
</clipPath>
<clipPath id="clip6_39_1705">
<rect width="48" height="24" fill="white" transform="translate(24 109.235)"/>
</clipPath>
<clipPath id="clip7_39_1705">
<rect x="24" y="109.235" width="24" height="24" rx="12" fill="white"/>
</clipPath>
<clipPath id="clip8_39_1705">
<rect width="45" height="24" fill="white" transform="translate(24 56.2354)"/>
</clipPath>
<clipPath id="clip9_39_1705">
<rect x="24" y="56.2354" width="24" height="24" rx="12" fill="white"/>
</clipPath>
<clipPath id="clip10_39_1705">
<rect width="45" height="24" fill="white" transform="translate(24 26.2354)"/>
</clipPath>
<clipPath id="clip11_39_1705">
<rect x="24" y="26.2354" width="24" height="24" rx="12" fill="white"/>
</clipPath>
</defs>
</svg>
