<svg width="389" height="72" viewBox="0 0 389 72" fill="none" xmlns="http://www.w3.org/2000/svg">
<g clip-path="url(#clip0_59481_3339)">
<path d="M79.88 36.72C79.88 39.1333 79.22 40.9533 77.9 42.18C76.5933 43.3933 74.7667 44 72.42 44H68.44V29.72H72.84C74.28 29.72 75.5267 29.9867 76.58 30.52C77.6333 31.0533 78.4467 31.84 79.02 32.88C79.5933 33.9067 79.88 35.1867 79.88 36.72ZM77.98 36.78C77.98 34.8733 77.5067 33.48 76.56 32.6C75.6267 31.7067 74.3 31.26 72.58 31.26H70.24V42.46H72.18C76.0467 42.46 77.98 40.5667 77.98 36.78ZM86.8694 33.1C88.176 33.1 89.1427 33.3867 89.7694 33.96C90.396 34.5333 90.7094 35.4467 90.7094 36.7V44H89.4294L89.0894 42.48H89.0094C88.5427 43.0667 88.0494 43.5 87.5294 43.78C87.0227 44.06 86.316 44.2 85.4094 44.2C84.436 44.2 83.6294 43.9467 82.9894 43.44C82.3494 42.92 82.0294 42.1133 82.0294 41.02C82.0294 39.9533 82.4494 39.1333 83.2894 38.56C84.1294 37.9733 85.4227 37.6533 87.1694 37.6L88.9894 37.54V36.9C88.9894 36.0067 88.796 35.3867 88.4094 35.04C88.0227 34.6933 87.476 34.52 86.7694 34.52C86.2094 34.52 85.676 34.6067 85.1694 34.78C84.6627 34.94 84.1894 35.1267 83.7494 35.34L83.2094 34.02C83.676 33.7667 84.2294 33.5533 84.8694 33.38C85.5094 33.1933 86.176 33.1 86.8694 33.1ZM87.3894 38.82C86.056 38.8733 85.1294 39.0867 84.6094 39.46C84.1027 39.8333 83.8494 40.36 83.8494 41.04C83.8494 41.64 84.0294 42.08 84.3894 42.36C84.7627 42.64 85.236 42.78 85.8094 42.78C86.716 42.78 87.4694 42.5333 88.0694 42.04C88.6694 41.5333 88.9694 40.76 88.9694 39.72V38.76L87.3894 38.82ZM97.6003 42.76C97.867 42.76 98.1403 42.74 98.4203 42.7C98.7003 42.6467 98.927 42.5933 99.1003 42.54V43.88C98.9136 43.9733 98.647 44.0467 98.3003 44.1C97.9536 44.1667 97.6203 44.2 97.3003 44.2C96.7403 44.2 96.2203 44.1067 95.7403 43.92C95.2736 43.72 94.8936 43.38 94.6003 42.9C94.307 42.42 94.1603 41.7467 94.1603 40.88V34.64H92.6403V33.8L94.1803 33.1L94.8803 30.82H95.9203V33.28H99.0203V34.64H95.9203V40.84C95.9203 41.4933 96.0736 41.98 96.3803 42.3C96.7003 42.6067 97.107 42.76 97.6003 42.76ZM105.387 33.08C106.307 33.08 107.094 33.28 107.747 33.68C108.414 34.08 108.92 34.6467 109.267 35.38C109.627 36.1 109.807 36.9467 109.807 37.92V38.98H102.467C102.494 40.1933 102.8 41.12 103.387 41.76C103.987 42.3867 104.82 42.7 105.887 42.7C106.567 42.7 107.167 42.64 107.687 42.52C108.22 42.3867 108.767 42.2 109.327 41.96V43.5C108.78 43.74 108.24 43.9133 107.707 44.02C107.174 44.14 106.54 44.2 105.807 44.2C104.794 44.2 103.894 43.9933 103.107 43.58C102.334 43.1667 101.727 42.5533 101.287 41.74C100.86 40.9133 100.647 39.9067 100.647 38.72C100.647 37.5467 100.84 36.54 101.227 35.7C101.627 34.86 102.18 34.2133 102.887 33.76C103.607 33.3067 104.44 33.08 105.387 33.08ZM105.367 34.52C104.527 34.52 103.86 34.7933 103.367 35.34C102.887 35.8733 102.6 36.62 102.507 37.58H107.967C107.954 36.6733 107.74 35.94 107.327 35.38C106.914 34.8067 106.26 34.52 105.367 34.52ZM129.491 33.08C130.705 33.08 131.611 33.3933 132.211 34.02C132.811 34.6333 133.111 35.6333 133.111 37.02V44H131.371V37.1C131.371 35.4067 130.645 34.56 129.191 34.56C128.151 34.56 127.405 34.86 126.951 35.46C126.511 36.06 126.291 36.9333 126.291 38.08V44H124.551V37.1C124.551 35.4067 123.818 34.56 122.351 34.56C121.271 34.56 120.525 34.8933 120.111 35.56C119.698 36.2267 119.491 37.1867 119.491 38.44V44H117.731V33.28H119.151L119.411 34.74H119.511C119.845 34.18 120.291 33.7667 120.851 33.5C121.425 33.22 122.031 33.08 122.671 33.08C124.351 33.08 125.445 33.68 125.951 34.88H126.051C126.411 34.2667 126.898 33.8133 127.511 33.52C128.138 33.2267 128.798 33.08 129.491 33.08ZM145.743 38.62C145.743 40.3933 145.289 41.7667 144.383 42.74C143.489 43.7133 142.276 44.2 140.743 44.2C139.796 44.2 138.949 43.9867 138.203 43.56C137.469 43.12 136.889 42.4867 136.463 41.66C136.036 40.82 135.823 39.8067 135.823 38.62C135.823 36.8467 136.269 35.48 137.163 34.52C138.056 33.56 139.269 33.08 140.803 33.08C141.776 33.08 142.629 33.3 143.363 33.74C144.109 34.1667 144.689 34.7933 145.103 35.62C145.529 36.4333 145.743 37.4333 145.743 38.62ZM137.643 38.62C137.643 39.8867 137.889 40.8933 138.383 41.64C138.889 42.3733 139.689 42.74 140.783 42.74C141.863 42.74 142.656 42.3733 143.163 41.64C143.669 40.8933 143.923 39.8867 143.923 38.62C143.923 37.3533 143.669 36.36 143.163 35.64C142.656 34.92 141.856 34.56 140.763 34.56C139.669 34.56 138.876 34.92 138.383 35.64C137.889 36.36 137.643 37.3533 137.643 38.62ZM152.332 44.2C150.999 44.2 149.932 43.74 149.132 42.82C148.332 41.8867 147.932 40.5 147.932 38.66C147.932 36.82 148.332 35.4333 149.132 34.5C149.945 33.5533 151.019 33.08 152.352 33.08C153.179 33.08 153.852 33.2333 154.372 33.54C154.905 33.8467 155.339 34.22 155.672 34.66H155.792C155.779 34.4867 155.752 34.2333 155.712 33.9C155.685 33.5533 155.672 33.28 155.672 33.08V28.8H157.432V44H156.012L155.752 42.56H155.672C155.352 43.0133 154.925 43.4 154.392 43.72C153.859 44.04 153.172 44.2 152.332 44.2ZM152.612 42.74C153.745 42.74 154.539 42.4333 154.992 41.82C155.459 41.1933 155.692 40.2533 155.692 39V38.68C155.692 37.3467 155.472 36.3267 155.032 35.62C154.592 34.9 153.779 34.54 152.592 34.54C151.645 34.54 150.932 34.92 150.452 35.68C149.985 36.4267 149.752 37.4333 149.752 38.7C149.752 39.98 149.985 40.9733 150.452 41.68C150.932 42.3867 151.652 42.74 152.612 42.74ZM161.737 29.26C162.003 29.26 162.237 29.3533 162.437 29.54C162.65 29.7133 162.757 29.9933 162.757 30.38C162.757 30.7533 162.65 31.0333 162.437 31.22C162.237 31.4067 162.003 31.5 161.737 31.5C161.443 31.5 161.197 31.4067 160.997 31.22C160.797 31.0333 160.697 30.7533 160.697 30.38C160.697 29.9933 160.797 29.7133 160.997 29.54C161.197 29.3533 161.443 29.26 161.737 29.26ZM162.597 33.28V44H160.837V33.28H162.597ZM170.933 34.64H168.233V44H166.473V34.64H164.593V33.82L166.473 33.22V32.6C166.473 31.2133 166.78 30.22 167.393 29.62C168.006 29.0067 168.86 28.7 169.953 28.7C170.38 28.7 170.766 28.74 171.113 28.82C171.473 28.8867 171.78 28.9667 172.033 29.06L171.573 30.44C171.36 30.3733 171.113 30.3067 170.833 30.24C170.553 30.1733 170.266 30.14 169.973 30.14C169.386 30.14 168.946 30.34 168.653 30.74C168.373 31.1267 168.233 31.74 168.233 32.58V33.28H170.933V34.64ZM173.773 29.26C174.04 29.26 174.273 29.3533 174.473 29.54C174.686 29.7133 174.793 29.9933 174.793 30.38C174.793 30.7533 174.686 31.0333 174.473 31.22C174.273 31.4067 174.04 31.5 173.773 31.5C173.48 31.5 173.233 31.4067 173.033 31.22C172.833 31.0333 172.733 30.7533 172.733 30.38C172.733 29.9933 172.833 29.7133 173.033 29.54C173.233 29.3533 173.48 29.26 173.773 29.26ZM174.633 33.28V44H172.873V33.28H174.633ZM182.164 33.08C183.084 33.08 183.871 33.28 184.524 33.68C185.191 34.08 185.698 34.6467 186.044 35.38C186.404 36.1 186.584 36.9467 186.584 37.92V38.98H179.244C179.271 40.1933 179.578 41.12 180.164 41.76C180.764 42.3867 181.598 42.7 182.664 42.7C183.344 42.7 183.944 42.64 184.464 42.52C184.998 42.3867 185.544 42.2 186.104 41.96V43.5C185.558 43.74 185.018 43.9133 184.484 44.02C183.951 44.14 183.318 44.2 182.584 44.2C181.571 44.2 180.671 43.9933 179.884 43.58C179.111 43.1667 178.504 42.5533 178.064 41.74C177.638 40.9133 177.424 39.9067 177.424 38.72C177.424 37.5467 177.618 36.54 178.004 35.7C178.404 34.86 178.958 34.2133 179.664 33.76C180.384 33.3067 181.218 33.08 182.164 33.08ZM182.144 34.52C181.304 34.52 180.638 34.7933 180.144 35.34C179.664 35.8733 179.378 36.62 179.284 37.58H184.744C184.731 36.6733 184.518 35.94 184.104 35.38C183.691 34.8067 183.038 34.52 182.144 34.52ZM193.113 44.2C191.78 44.2 190.713 43.74 189.913 42.82C189.113 41.8867 188.713 40.5 188.713 38.66C188.713 36.82 189.113 35.4333 189.913 34.5C190.727 33.5533 191.8 33.08 193.133 33.08C193.96 33.08 194.633 33.2333 195.153 33.54C195.687 33.8467 196.12 34.22 196.453 34.66H196.573C196.56 34.4867 196.533 34.2333 196.493 33.9C196.467 33.5533 196.453 33.28 196.453 33.08V28.8H198.213V44H196.793L196.533 42.56H196.453C196.133 43.0133 195.707 43.4 195.173 43.72C194.64 44.04 193.953 44.2 193.113 44.2ZM193.393 42.74C194.527 42.74 195.32 42.4333 195.773 41.82C196.24 41.1933 196.473 40.2533 196.473 39V38.68C196.473 37.3467 196.253 36.3267 195.813 35.62C195.373 34.9 194.56 34.54 193.373 34.54C192.427 34.54 191.713 34.92 191.233 35.68C190.767 36.4267 190.533 37.4333 190.533 38.7C190.533 39.98 190.767 40.9733 191.233 41.68C191.713 42.3867 192.433 42.74 193.393 42.74ZM201.358 34.36C201.358 33.8533 201.478 33.5 201.718 33.3C201.958 33.1 202.245 33 202.578 33C202.925 33 203.218 33.1 203.458 33.3C203.711 33.5 203.838 33.8533 203.838 34.36C203.838 34.84 203.711 35.1867 203.458 35.4C203.218 35.6133 202.925 35.72 202.578 35.72C202.245 35.72 201.958 35.6133 201.718 35.4C201.478 35.1867 201.358 34.84 201.358 34.36ZM201.358 42.92C201.358 42.4267 201.478 42.08 201.718 41.88C201.958 41.68 202.245 41.58 202.578 41.58C202.925 41.58 203.218 41.68 203.458 41.88C203.711 42.08 203.838 42.4267 203.838 42.92C203.838 43.4 203.711 43.7467 203.458 43.96C203.218 44.1733 202.925 44.28 202.578 44.28C202.245 44.28 201.958 44.1733 201.718 43.96C201.478 43.7467 201.358 43.4 201.358 42.92Z" fill="#333333"/>
<path d="M227.9 44H218.46V42.54L222.2 38.76C222.92 38.04 223.527 37.4 224.02 36.84C224.513 36.28 224.887 35.7333 225.14 35.2C225.393 34.6533 225.52 34.06 225.52 33.42C225.52 32.6333 225.287 32.04 224.82 31.64C224.353 31.2267 223.747 31.02 223 31.02C222.307 31.02 221.693 31.14 221.16 31.38C220.64 31.62 220.107 31.9533 219.56 32.38L218.62 31.2C219.18 30.7333 219.82 30.34 220.54 30.02C221.273 29.6867 222.093 29.52 223 29.52C224.333 29.52 225.387 29.86 226.16 30.54C226.933 31.2067 227.32 32.1333 227.32 33.32C227.32 34.0667 227.167 34.7667 226.86 35.42C226.553 36.0733 226.127 36.72 225.58 37.36C225.033 37.9867 224.393 38.66 223.66 39.38L220.68 42.32V42.4H227.9V44ZM239.405 36.84C239.405 38.3733 239.245 39.6933 238.925 40.8C238.605 41.8933 238.099 42.7333 237.405 43.32C236.712 43.9067 235.792 44.2 234.645 44.2C233.032 44.2 231.839 43.5533 231.065 42.26C230.305 40.9533 229.925 39.1467 229.925 36.84C229.925 35.2933 230.079 33.9733 230.385 32.88C230.705 31.7867 231.212 30.9533 231.905 30.38C232.599 29.7933 233.512 29.5 234.645 29.5C236.245 29.5 237.439 30.1467 238.225 31.44C239.012 32.72 239.405 34.52 239.405 36.84ZM231.685 36.84C231.685 38.8 231.905 40.2667 232.345 41.24C232.799 42.2133 233.565 42.7 234.645 42.7C235.712 42.7 236.472 42.22 236.925 41.26C237.392 40.2867 237.625 38.8133 237.625 36.84C237.625 34.8933 237.392 33.4333 236.925 32.46C236.472 31.4867 235.712 31 234.645 31C233.565 31 232.799 31.4867 232.345 32.46C231.905 33.4333 231.685 34.8933 231.685 36.84ZM250.791 44H241.351V42.54L245.091 38.76C245.811 38.04 246.417 37.4 246.911 36.84C247.404 36.28 247.777 35.7333 248.031 35.2C248.284 34.6533 248.411 34.06 248.411 33.42C248.411 32.6333 248.177 32.04 247.711 31.64C247.244 31.2267 246.637 31.02 245.891 31.02C245.197 31.02 244.584 31.14 244.051 31.38C243.531 31.62 242.997 31.9533 242.451 32.38L241.511 31.2C242.071 30.7333 242.711 30.34 243.431 30.02C244.164 29.6867 244.984 29.52 245.891 29.52C247.224 29.52 248.277 29.86 249.051 30.54C249.824 31.2067 250.211 32.1333 250.211 33.32C250.211 34.0667 250.057 34.7667 249.751 35.42C249.444 36.0733 249.017 36.72 248.471 37.36C247.924 37.9867 247.284 38.66 246.551 39.38L243.571 42.32V42.4H250.791V44ZM261.696 33.06C261.696 34.02 261.429 34.7867 260.896 35.36C260.363 35.92 259.643 36.2933 258.736 36.48V36.56C259.883 36.6933 260.736 37.0533 261.296 37.64C261.856 38.2267 262.136 38.9933 262.136 39.94C262.136 40.7667 261.943 41.5067 261.556 42.16C261.169 42.8 260.569 43.3 259.756 43.66C258.956 44.02 257.923 44.2 256.656 44.2C255.909 44.2 255.216 44.14 254.576 44.02C253.936 43.9133 253.323 43.7133 252.736 43.42V41.78C253.336 42.0733 253.983 42.3067 254.676 42.48C255.369 42.64 256.036 42.72 256.676 42.72C257.956 42.72 258.876 42.4733 259.436 41.98C260.009 41.4733 260.296 40.78 260.296 39.9C260.296 39.0067 259.943 38.3667 259.236 37.98C258.543 37.58 257.563 37.38 256.296 37.38H254.916V35.88H256.316C257.489 35.88 258.376 35.6333 258.976 35.14C259.589 34.6467 259.896 33.9933 259.896 33.18C259.896 32.4867 259.663 31.9533 259.196 31.58C258.729 31.1933 258.096 31 257.296 31C256.523 31 255.863 31.1133 255.316 31.34C254.769 31.5667 254.229 31.8533 253.696 32.2L252.816 31C253.323 30.6 253.949 30.2533 254.696 29.96C255.456 29.6667 256.316 29.52 257.276 29.52C258.769 29.52 259.876 29.8533 260.596 30.52C261.329 31.1867 261.696 32.0333 261.696 33.06ZM264.081 39.42V37.86H268.921V39.42H264.081ZM280.187 36.84C280.187 38.3733 280.027 39.6933 279.707 40.8C279.387 41.8933 278.88 42.7333 278.187 43.32C277.493 43.9067 276.573 44.2 275.427 44.2C273.813 44.2 272.62 43.5533 271.847 42.26C271.087 40.9533 270.707 39.1467 270.707 36.84C270.707 35.2933 270.86 33.9733 271.167 32.88C271.487 31.7867 271.993 30.9533 272.687 30.38C273.38 29.7933 274.293 29.5 275.427 29.5C277.027 29.5 278.22 30.1467 279.007 31.44C279.793 32.72 280.187 34.52 280.187 36.84ZM272.467 36.84C272.467 38.8 272.687 40.2667 273.127 41.24C273.58 42.2133 274.347 42.7 275.427 42.7C276.493 42.7 277.253 42.22 277.707 41.26C278.173 40.2867 278.407 38.8133 278.407 36.84C278.407 34.8933 278.173 33.4333 277.707 32.46C277.253 31.4867 276.493 31 275.427 31C274.347 31 273.58 31.4867 273.127 32.46C272.687 33.4333 272.467 34.8933 272.467 36.84ZM288.272 44H286.552V34.02C286.552 33.4467 286.559 32.9867 286.572 32.64C286.585 32.2933 286.605 31.9333 286.632 31.56C286.419 31.7733 286.225 31.9533 286.052 32.1C285.879 32.2467 285.659 32.4333 285.392 32.66L283.872 33.9L282.952 32.72L286.812 29.72H288.272V44ZM293.417 39.42V37.86H298.257V39.42H293.417ZM308.923 33.06C308.923 34.02 308.656 34.7867 308.123 35.36C307.589 35.92 306.869 36.2933 305.963 36.48V36.56C307.109 36.6933 307.963 37.0533 308.523 37.64C309.083 38.2267 309.363 38.9933 309.363 39.94C309.363 40.7667 309.169 41.5067 308.783 42.16C308.396 42.8 307.796 43.3 306.983 43.66C306.183 44.02 305.149 44.2 303.883 44.2C303.136 44.2 302.443 44.14 301.803 44.02C301.163 43.9133 300.549 43.7133 299.963 43.42V41.78C300.563 42.0733 301.209 42.3067 301.903 42.48C302.596 42.64 303.263 42.72 303.903 42.72C305.183 42.72 306.103 42.4733 306.663 41.98C307.236 41.4733 307.523 40.78 307.523 39.9C307.523 39.0067 307.169 38.3667 306.463 37.98C305.769 37.58 304.789 37.38 303.523 37.38H302.143V35.88H303.543C304.716 35.88 305.603 35.6333 306.203 35.14C306.816 34.6467 307.123 33.9933 307.123 33.18C307.123 32.4867 306.889 31.9533 306.423 31.58C305.956 31.1933 305.323 31 304.523 31C303.749 31 303.089 31.1133 302.543 31.34C301.996 31.5667 301.456 31.8533 300.923 32.2L300.043 31C300.549 30.6 301.176 30.2533 301.923 29.96C302.683 29.6667 303.543 29.52 304.503 29.52C305.996 29.52 307.103 29.8533 307.823 30.52C308.556 31.1867 308.923 32.0333 308.923 33.06ZM320.968 36.84C320.968 38.3733 320.808 39.6933 320.488 40.8C320.168 41.8933 319.661 42.7333 318.968 43.32C318.274 43.9067 317.354 44.2 316.208 44.2C314.594 44.2 313.401 43.5533 312.628 42.26C311.868 40.9533 311.488 39.1467 311.488 36.84C311.488 35.2933 311.641 33.9733 311.948 32.88C312.268 31.7867 312.774 30.9533 313.468 30.38C314.161 29.7933 315.074 29.5 316.208 29.5C317.808 29.5 319.001 30.1467 319.788 31.44C320.574 32.72 320.968 34.52 320.968 36.84ZM313.248 36.84C313.248 38.8 313.468 40.2667 313.908 41.24C314.361 42.2133 315.128 42.7 316.208 42.7C317.274 42.7 318.034 42.22 318.488 41.26C318.954 40.2867 319.188 38.8133 319.188 36.84C319.188 34.8933 318.954 33.4333 318.488 32.46C318.034 31.4867 317.274 31 316.208 31C315.128 31 314.361 31.4867 313.908 32.46C313.468 33.4333 313.248 34.8933 313.248 36.84Z" fill="#333333"/>
</g>
<g clip-path="url(#clip1_59481_3339)">
<rect x="20" y="36.49" width="50" height="1" fill="#C54600"/>
<g clip-path="url(#clip2_59481_3339)">
<rect x="20" y="24.49" width="24" height="24" rx="12" fill="#C54600"/>
<path d="M33.1825 31.7627V40.49H32.1257V32.8707H32.0746L29.9439 34.2854V33.2116L32.1257 31.7627H33.1825Z" fill="white"/>
</g>
</g>
<g clip-path="url(#clip3_59481_3339)">
<rect x="319.468" y="36.8501" width="49.5322" height="1" fill="#C54600"/>
<g clip-path="url(#clip4_59481_3339)">
<rect x="345" y="24.8501" width="24" height="24" rx="12" fill="#C54600"/>
<path d="M354.271 40.8501V40.0831L357.151 36.9296C357.489 36.5603 357.768 36.2393 357.987 35.9666C358.205 35.691 358.367 35.4325 358.472 35.191C358.58 34.9467 358.634 34.691 358.634 34.424C358.634 34.1171 358.56 33.8515 358.413 33.6271C358.268 33.4027 358.069 33.2294 357.816 33.1072C357.563 32.985 357.279 32.924 356.964 32.924C356.629 32.924 356.336 32.9936 356.086 33.1328C355.839 33.2691 355.647 33.4609 355.511 33.7081C355.377 33.9552 355.31 34.245 355.31 34.5774H354.305C354.305 34.066 354.423 33.6171 354.658 33.2308C354.894 32.8444 355.215 32.5433 355.621 32.3274C356.031 32.1115 356.489 32.0035 356.998 32.0035C357.509 32.0035 357.962 32.1115 358.357 32.3274C358.752 32.5433 359.062 32.8345 359.286 33.2009C359.511 33.5674 359.623 33.9751 359.623 34.424C359.623 34.745 359.565 35.0589 359.448 35.3657C359.335 35.6697 359.136 36.0092 358.852 36.3842C358.57 36.7563 358.18 37.2109 357.68 37.7478L355.719 39.8444V39.9126H359.776V40.8501H354.271Z" fill="white"/>
</g>
</g>
<defs>
<clipPath id="clip0_59481_3339">
<rect width="256" height="32" fill="white" transform="translate(66.5 20)"/>
</clipPath>
<clipPath id="clip1_59481_3339">
<rect width="49.9399" height="24" fill="white" transform="translate(20 24.49)"/>
</clipPath>
<clipPath id="clip2_59481_3339">
<rect x="20" y="24.49" width="24" height="24" rx="12" fill="white"/>
</clipPath>
<clipPath id="clip3_59481_3339">
<rect width="49.5322" height="24" fill="white" transform="translate(319.468 24.8501)"/>
</clipPath>
<clipPath id="clip4_59481_3339">
<rect x="345" y="24.8501" width="24" height="24" rx="12" fill="white"/>
</clipPath>
</defs>
</svg>
