<svg width="593" height="154" viewBox="0 0 593 154" fill="none" xmlns="http://www.w3.org/2000/svg">
<g clip-path="url(#clip0_60328_9530)">
<path d="M69.8 40V25.72H72.82V37.5H78.62V40H69.8ZM85.3486 28.86C86.8153 28.86 87.9353 29.18 88.7086 29.82C89.4953 30.4467 89.8886 31.4133 89.8886 32.72V40H87.8086L87.2286 38.52H87.1486C86.6819 39.1067 86.1886 39.5333 85.6686 39.8C85.1486 40.0667 84.4353 40.2 83.5286 40.2C82.5553 40.2 81.7486 39.92 81.1086 39.36C80.4686 38.7867 80.1486 37.9133 80.1486 36.74C80.1486 35.58 80.5553 34.7267 81.3686 34.18C82.1819 33.62 83.4019 33.3133 85.0286 33.26L86.9286 33.2V32.72C86.9286 32.1467 86.7753 31.7267 86.4686 31.46C86.1753 31.1933 85.7619 31.06 85.2286 31.06C84.6953 31.06 84.1753 31.14 83.6686 31.3C83.1619 31.4467 82.6553 31.6333 82.1486 31.86L81.1686 29.84C81.7553 29.5333 82.4019 29.2933 83.1086 29.12C83.8286 28.9467 84.5753 28.86 85.3486 28.86ZM85.7686 34.98C84.8086 35.0067 84.1419 35.18 83.7686 35.5C83.3953 35.82 83.2086 36.24 83.2086 36.76C83.2086 37.2133 83.3419 37.54 83.6086 37.74C83.8753 37.9267 84.2219 38.02 84.6486 38.02C85.2886 38.02 85.8286 37.8333 86.2686 37.46C86.7086 37.0733 86.9286 36.5333 86.9286 35.84V34.94L85.7686 34.98ZM95.9189 28.34C95.9189 28.7533 95.9056 29.16 95.8789 29.56C95.8522 29.96 95.8256 30.2733 95.7989 30.5H95.9189C96.2122 30.0467 96.6056 29.6667 97.0989 29.36C97.5922 29.04 98.2322 28.88 99.0189 28.88C100.246 28.88 101.239 29.36 101.999 30.32C102.759 31.2667 103.139 32.6667 103.139 34.52C103.139 36.3867 102.752 37.8 101.979 38.76C101.206 39.72 100.192 40.2 98.9389 40.2C98.1389 40.2 97.5056 40.06 97.0389 39.78C96.5856 39.4867 96.2122 39.16 95.9189 38.8H95.7189L95.2189 40H92.9389V24.8H95.9189V28.34ZM98.0589 31.26C97.2856 31.26 96.7389 31.5 96.4189 31.98C96.1122 32.46 95.9456 33.1933 95.9189 34.18V34.5C95.9189 35.5533 96.0722 36.3667 96.3789 36.94C96.6989 37.5 97.2722 37.78 98.0989 37.78C98.7122 37.78 99.1989 37.5 99.5589 36.94C99.9189 36.3667 100.099 35.5467 100.099 34.48C100.099 33.4133 99.9122 32.6133 99.5389 32.08C99.1789 31.5333 98.6856 31.26 98.0589 31.26ZM110.095 28.88C111.602 28.88 112.795 29.3133 113.675 30.18C114.555 31.0333 114.995 32.2533 114.995 33.84V35.28H107.955C107.982 36.12 108.228 36.78 108.695 37.26C109.175 37.74 109.835 37.98 110.675 37.98C111.382 37.98 112.022 37.9133 112.595 37.78C113.168 37.6333 113.762 37.4133 114.375 37.12V39.42C113.842 39.6867 113.275 39.88 112.675 40C112.088 40.1333 111.375 40.2 110.535 40.2C109.442 40.2 108.475 40 107.635 39.6C106.795 39.1867 106.135 38.5667 105.655 37.74C105.175 36.9133 104.935 35.8733 104.935 34.62C104.935 33.34 105.148 32.28 105.575 31.44C106.015 30.5867 106.622 29.9467 107.395 29.52C108.168 29.0933 109.068 28.88 110.095 28.88ZM110.115 31C109.542 31 109.062 31.1867 108.675 31.56C108.302 31.9333 108.082 32.5133 108.015 33.3H112.195C112.182 32.6333 112.008 32.0867 111.675 31.66C111.342 31.22 110.822 31 110.115 31ZM120.392 40H117.412V24.8H120.392V40Z" fill="#333333"/>
<path d="M128.8 34.52C128.8 32.8933 129.033 31.3267 129.5 29.82C129.98 28.3 130.727 26.9333 131.74 25.72H133.4C132.467 26.9733 131.76 28.3533 131.28 29.86C130.813 31.3667 130.58 32.9133 130.58 34.5C130.58 36.0467 130.813 37.5667 131.28 39.06C131.76 40.54 132.46 41.9067 133.38 43.16H131.74C130.727 41.9867 129.98 40.66 129.5 39.18C129.033 37.6867 128.8 36.1333 128.8 34.52ZM140.696 29.08C140.896 29.08 141.109 29.0933 141.336 29.12C141.576 29.1333 141.783 29.16 141.956 29.2L141.736 30.82C141.563 30.78 141.369 30.7467 141.156 30.72C140.956 30.6933 140.763 30.68 140.576 30.68C140.029 30.68 139.516 30.8333 139.036 31.14C138.556 31.4333 138.169 31.8533 137.876 32.4C137.596 32.9333 137.456 33.56 137.456 34.28V40H135.696V29.28H137.136L137.336 31.24H137.416C137.763 30.6533 138.209 30.1467 138.756 29.72C139.303 29.2933 139.949 29.08 140.696 29.08ZM147.707 29.08C148.627 29.08 149.414 29.28 150.067 29.68C150.734 30.08 151.241 30.6467 151.587 31.38C151.947 32.1 152.127 32.9467 152.127 33.92V34.98H144.787C144.814 36.1933 145.121 37.12 145.707 37.76C146.307 38.3867 147.141 38.7 148.207 38.7C148.887 38.7 149.487 38.64 150.007 38.52C150.541 38.3867 151.087 38.2 151.647 37.96V39.5C151.101 39.74 150.561 39.9133 150.027 40.02C149.494 40.14 148.861 40.2 148.127 40.2C147.114 40.2 146.214 39.9933 145.427 39.58C144.654 39.1667 144.047 38.5533 143.607 37.74C143.181 36.9133 142.967 35.9067 142.967 34.72C142.967 33.5467 143.161 32.54 143.547 31.7C143.947 30.86 144.501 30.2133 145.207 29.76C145.927 29.3067 146.761 29.08 147.707 29.08ZM147.687 30.52C146.847 30.52 146.181 30.7933 145.687 31.34C145.207 31.8733 144.921 32.62 144.827 33.58H150.287C150.274 32.6733 150.061 31.94 149.647 31.38C149.234 30.8067 148.581 30.52 147.687 30.52ZM161.996 40.22C161.996 39.98 162.003 39.7 162.016 39.38C162.03 39.06 162.056 38.7867 162.096 38.56H161.976C161.67 39.0133 161.243 39.4 160.696 39.72C160.163 40.04 159.47 40.2 158.616 40.2C157.323 40.2 156.27 39.74 155.456 38.82C154.656 37.8867 154.256 36.5 154.256 34.66C154.256 32.82 154.663 31.4333 155.476 30.5C156.303 29.5533 157.37 29.08 158.676 29.08C159.516 29.08 160.203 29.24 160.736 29.56C161.27 29.88 161.696 30.2733 162.016 30.74H162.096L162.356 29.28H163.756V44.8H161.996V40.22ZM158.956 38.74C160.063 38.74 160.843 38.44 161.296 37.84C161.763 37.2267 162.003 36.2933 162.016 35.04V34.68C162.016 33.32 161.79 32.2933 161.336 31.6C160.883 30.8933 160.076 30.54 158.916 30.54C157.956 30.54 157.243 30.92 156.776 31.68C156.31 32.4267 156.076 33.4333 156.076 34.7C156.076 35.9667 156.31 36.96 156.776 37.68C157.256 38.3867 157.983 38.74 158.956 38.74ZM176.121 29.28V40H174.681L174.421 38.58H174.341C173.994 39.14 173.514 39.5533 172.901 39.82C172.288 40.0733 171.634 40.2 170.941 40.2C169.648 40.2 168.674 39.8933 168.021 39.28C167.368 38.6533 167.041 37.66 167.041 36.3V29.28H168.821V36.18C168.821 37.8867 169.614 38.74 171.201 38.74C172.388 38.74 173.208 38.4067 173.661 37.74C174.128 37.0733 174.361 36.1133 174.361 34.86V29.28H176.121ZM180.424 25.26C180.691 25.26 180.924 25.3533 181.124 25.54C181.338 25.7133 181.444 25.9933 181.444 26.38C181.444 26.7533 181.338 27.0333 181.124 27.22C180.924 27.4067 180.691 27.5 180.424 27.5C180.131 27.5 179.884 27.4067 179.684 27.22C179.484 27.0333 179.384 26.7533 179.384 26.38C179.384 25.9933 179.484 25.7133 179.684 25.54C179.884 25.3533 180.131 25.26 180.424 25.26ZM181.284 29.28V40H179.524V29.28H181.284ZM189.68 29.08C189.88 29.08 190.094 29.0933 190.32 29.12C190.56 29.1333 190.767 29.16 190.94 29.2L190.72 30.82C190.547 30.78 190.354 30.7467 190.14 30.72C189.94 30.6933 189.747 30.68 189.56 30.68C189.014 30.68 188.5 30.8333 188.02 31.14C187.54 31.4333 187.154 31.8533 186.86 32.4C186.58 32.9333 186.44 33.56 186.44 34.28V40H184.68V29.28H186.12L186.32 31.24H186.4C186.747 30.6533 187.194 30.1467 187.74 29.72C188.287 29.2933 188.934 29.08 189.68 29.08ZM196.692 29.08C197.612 29.08 198.398 29.28 199.052 29.68C199.718 30.08 200.225 30.6467 200.572 31.38C200.932 32.1 201.112 32.9467 201.112 33.92V34.98H193.772C193.798 36.1933 194.105 37.12 194.692 37.76C195.292 38.3867 196.125 38.7 197.192 38.7C197.872 38.7 198.472 38.64 198.992 38.52C199.525 38.3867 200.072 38.2 200.632 37.96V39.5C200.085 39.74 199.545 39.9133 199.012 40.02C198.478 40.14 197.845 40.2 197.112 40.2C196.098 40.2 195.198 39.9933 194.412 39.58C193.638 39.1667 193.032 38.5533 192.592 37.74C192.165 36.9133 191.952 35.9067 191.952 34.72C191.952 33.5467 192.145 32.54 192.532 31.7C192.932 30.86 193.485 30.2133 194.192 29.76C194.912 29.3067 195.745 29.08 196.692 29.08ZM196.672 30.52C195.832 30.52 195.165 30.7933 194.672 31.34C194.192 31.8733 193.905 32.62 193.812 33.58H199.272C199.258 32.6733 199.045 31.94 198.632 31.38C198.218 30.8067 197.565 30.52 196.672 30.52ZM207.641 40.2C206.307 40.2 205.241 39.74 204.441 38.82C203.641 37.8867 203.241 36.5 203.241 34.66C203.241 32.82 203.641 31.4333 204.441 30.5C205.254 29.5533 206.327 29.08 207.661 29.08C208.487 29.08 209.161 29.2333 209.681 29.54C210.214 29.8467 210.647 30.22 210.981 30.66H211.101C211.087 30.4867 211.061 30.2333 211.021 29.9C210.994 29.5533 210.981 29.28 210.981 29.08V24.8H212.741V40H211.321L211.061 38.56H210.981C210.661 39.0133 210.234 39.4 209.701 39.72C209.167 40.04 208.481 40.2 207.641 40.2ZM207.921 38.74C209.054 38.74 209.847 38.4333 210.301 37.82C210.767 37.1933 211.001 36.2533 211.001 35V34.68C211.001 33.3467 210.781 32.3267 210.341 31.62C209.901 30.9 209.087 30.54 207.901 30.54C206.954 30.54 206.241 30.92 205.761 31.68C205.294 32.4267 205.061 33.4333 205.061 34.7C205.061 35.98 205.294 36.9733 205.761 37.68C206.241 38.3867 206.961 38.74 207.921 38.74ZM219.645 34.52C219.645 36.1333 219.405 37.6867 218.925 39.18C218.459 40.66 217.719 41.9867 216.705 43.16H215.065C215.985 41.9067 216.679 40.54 217.145 39.06C217.625 37.5667 217.865 36.0467 217.865 34.5C217.865 32.9133 217.625 31.3667 217.145 29.86C216.679 28.3533 215.979 26.9733 215.045 25.72H216.705C217.719 26.9333 218.459 28.3 218.925 29.82C219.405 31.3267 219.645 32.8933 219.645 34.52Z" fill="#333333"/>
</g>
<path d="M80.86 70H79.06V63.34H71.74V70H69.94V55.72H71.74V61.76H79.06V55.72H80.86V70ZM85.4242 55.26C85.6909 55.26 85.9242 55.3533 86.1242 55.54C86.3376 55.7133 86.4442 55.9933 86.4442 56.38C86.4442 56.7533 86.3376 57.0333 86.1242 57.22C85.9242 57.4067 85.6909 57.5 85.4242 57.5C85.1309 57.5 84.8842 57.4067 84.6842 57.22C84.4842 57.0333 84.3842 56.7533 84.3842 56.38C84.3842 55.9933 84.4842 55.7133 84.6842 55.54C84.8842 55.3533 85.1309 55.26 85.4242 55.26ZM86.2842 59.28V70H84.5242V59.28H86.2842ZM94.8405 59.08C96.1205 59.08 97.0871 59.3933 97.7405 60.02C98.3938 60.6333 98.7205 61.6333 98.7205 63.02V70H96.9805V63.14C96.9805 61.42 96.1805 60.56 94.5805 60.56C93.3938 60.56 92.5738 60.8933 92.1205 61.56C91.6671 62.2267 91.4405 63.1867 91.4405 64.44V70H89.6805V59.28H91.1005L91.3605 60.74H91.4605C91.8071 60.18 92.2871 59.7667 92.9005 59.5C93.5138 59.22 94.1605 59.08 94.8405 59.08ZM105.624 68.76C105.89 68.76 106.164 68.74 106.444 68.7C106.724 68.6467 106.95 68.5933 107.124 68.54V69.88C106.937 69.9733 106.67 70.0467 106.324 70.1C105.977 70.1667 105.644 70.2 105.324 70.2C104.764 70.2 104.244 70.1067 103.764 69.92C103.297 69.72 102.917 69.38 102.624 68.9C102.33 68.42 102.184 67.7467 102.184 66.88V60.64H100.664V59.8L102.204 59.1L102.904 56.82H103.944V59.28H107.044V60.64H103.944V66.84C103.944 67.4933 104.097 67.98 104.404 68.3C104.724 68.6067 105.13 68.76 105.624 68.76ZM120.006 55.72L114.686 70H112.966L118.286 55.72H120.006ZM135.322 70H127.342V55.72H135.322V57.3H129.142V61.76H134.962V63.32H129.142V68.42H135.322V70ZM140.756 64.52L137.056 59.28H139.056L141.816 63.32L144.556 59.28H146.536L142.836 64.52L146.736 70H144.736L141.816 65.72L138.856 70H136.876L140.756 64.52ZM152.862 59.1C154.168 59.1 155.135 59.3867 155.762 59.96C156.388 60.5333 156.702 61.4467 156.702 62.7V70H155.422L155.082 68.48H155.002C154.535 69.0667 154.042 69.5 153.522 69.78C153.015 70.06 152.308 70.2 151.402 70.2C150.428 70.2 149.622 69.9467 148.982 69.44C148.342 68.92 148.022 68.1133 148.022 67.02C148.022 65.9533 148.442 65.1333 149.282 64.56C150.122 63.9733 151.415 63.6533 153.162 63.6L154.982 63.54V62.9C154.982 62.0067 154.788 61.3867 154.402 61.04C154.015 60.6933 153.468 60.52 152.762 60.52C152.202 60.52 151.668 60.6067 151.162 60.78C150.655 60.94 150.182 61.1267 149.742 61.34L149.202 60.02C149.668 59.7667 150.222 59.5533 150.862 59.38C151.502 59.1933 152.168 59.1 152.862 59.1ZM153.382 64.82C152.048 64.8733 151.122 65.0867 150.602 65.46C150.095 65.8333 149.842 66.36 149.842 67.04C149.842 67.64 150.022 68.08 150.382 68.36C150.755 68.64 151.228 68.78 151.802 68.78C152.708 68.78 153.462 68.5333 154.062 68.04C154.662 67.5333 154.962 66.76 154.962 65.72V64.76L153.382 64.82ZM171.773 59.08C172.986 59.08 173.893 59.3933 174.493 60.02C175.093 60.6333 175.393 61.6333 175.393 63.02V70H173.653V63.1C173.653 61.4067 172.926 60.56 171.473 60.56C170.433 60.56 169.686 60.86 169.233 61.46C168.793 62.06 168.573 62.9333 168.573 64.08V70H166.833V63.1C166.833 61.4067 166.099 60.56 164.633 60.56C163.553 60.56 162.806 60.8933 162.393 61.56C161.979 62.2267 161.773 63.1867 161.773 64.44V70H160.013V59.28H161.433L161.693 60.74H161.793C162.126 60.18 162.573 59.7667 163.133 59.5C163.706 59.22 164.313 59.08 164.953 59.08C166.633 59.08 167.726 59.68 168.233 60.88H168.333C168.693 60.2667 169.179 59.8133 169.793 59.52C170.419 59.2267 171.079 59.08 171.773 59.08ZM183.804 59.08C185.124 59.08 186.184 59.54 186.984 60.46C187.797 61.38 188.204 62.7667 188.204 64.62C188.204 66.4467 187.797 67.8333 186.984 68.78C186.184 69.7267 185.117 70.2 183.784 70.2C182.957 70.2 182.271 70.0467 181.724 69.74C181.191 69.42 180.771 69.0533 180.464 68.64H180.344C180.371 68.8667 180.397 69.1533 180.424 69.5C180.451 69.8467 180.464 70.1467 180.464 70.4V74.8H178.704V59.28H180.144L180.384 60.74H180.464C180.784 60.2733 181.204 59.88 181.724 59.56C182.244 59.24 182.937 59.08 183.804 59.08ZM183.484 60.56C182.391 60.56 181.617 60.8667 181.164 61.48C180.724 62.0933 180.491 63.0267 180.464 64.28V64.62C180.464 65.94 180.677 66.96 181.104 67.68C181.544 68.3867 182.351 68.74 183.524 68.74C184.177 68.74 184.711 68.56 185.124 68.2C185.551 67.84 185.864 67.3533 186.064 66.74C186.277 66.1133 186.384 65.4 186.384 64.6C186.384 63.3733 186.144 62.3933 185.664 61.66C185.197 60.9267 184.471 60.56 183.484 60.56ZM192.769 70H191.009V54.8H192.769V70ZM200.305 59.08C201.225 59.08 202.012 59.28 202.665 59.68C203.332 60.08 203.838 60.6467 204.185 61.38C204.545 62.1 204.725 62.9467 204.725 63.92V64.98H197.385C197.412 66.1933 197.718 67.12 198.305 67.76C198.905 68.3867 199.738 68.7 200.805 68.7C201.485 68.7 202.085 68.64 202.605 68.52C203.138 68.3867 203.685 68.2 204.245 67.96V69.5C203.698 69.74 203.158 69.9133 202.625 70.02C202.092 70.14 201.458 70.2 200.725 70.2C199.712 70.2 198.812 69.9933 198.025 69.58C197.252 69.1667 196.645 68.5533 196.205 67.74C195.778 66.9133 195.565 65.9067 195.565 64.72C195.565 63.5467 195.758 62.54 196.145 61.7C196.545 60.86 197.098 60.2133 197.805 59.76C198.525 59.3067 199.358 59.08 200.305 59.08ZM200.285 60.52C199.445 60.52 198.778 60.7933 198.285 61.34C197.805 61.8733 197.518 62.62 197.425 63.58H202.885C202.872 62.6733 202.658 61.94 202.245 61.38C201.832 60.8067 201.178 60.52 200.285 60.52ZM224.409 59.08C225.623 59.08 226.529 59.3933 227.129 60.02C227.729 60.6333 228.029 61.6333 228.029 63.02V70H226.289V63.1C226.289 61.4067 225.563 60.56 224.109 60.56C223.069 60.56 222.323 60.86 221.869 61.46C221.429 62.06 221.209 62.9333 221.209 64.08V70H219.469V63.1C219.469 61.4067 218.736 60.56 217.269 60.56C216.189 60.56 215.443 60.8933 215.029 61.56C214.616 62.2267 214.409 63.1867 214.409 64.44V70H212.649V59.28H214.069L214.329 60.74H214.429C214.763 60.18 215.209 59.7667 215.769 59.5C216.343 59.22 216.949 59.08 217.589 59.08C219.269 59.08 220.363 59.68 220.869 60.88H220.969C221.329 60.2667 221.816 59.8133 222.429 59.52C223.056 59.2267 223.716 59.08 224.409 59.08ZM235.481 59.08C236.401 59.08 237.187 59.28 237.841 59.68C238.507 60.08 239.014 60.6467 239.361 61.38C239.721 62.1 239.901 62.9467 239.901 63.92V64.98H232.561C232.587 66.1933 232.894 67.12 233.481 67.76C234.081 68.3867 234.914 68.7 235.981 68.7C236.661 68.7 237.261 68.64 237.781 68.52C238.314 68.3867 238.861 68.2 239.421 67.96V69.5C238.874 69.74 238.334 69.9133 237.801 70.02C237.267 70.14 236.634 70.2 235.901 70.2C234.887 70.2 233.987 69.9933 233.201 69.58C232.427 69.1667 231.821 68.5533 231.381 67.74C230.954 66.9133 230.741 65.9067 230.741 64.72C230.741 63.5467 230.934 62.54 231.321 61.7C231.721 60.86 232.274 60.2133 232.981 59.76C233.701 59.3067 234.534 59.08 235.481 59.08ZM235.461 60.52C234.621 60.52 233.954 60.7933 233.461 61.34C232.981 61.8733 232.694 62.62 232.601 63.58H238.061C238.047 62.6733 237.834 61.94 237.421 61.38C237.007 60.8067 236.354 60.52 235.461 60.52ZM249.61 67.04C249.61 68.08 249.223 68.8667 248.45 69.4C247.676 69.9333 246.636 70.2 245.33 70.2C244.583 70.2 243.936 70.14 243.39 70.02C242.856 69.9 242.383 69.7333 241.97 69.52V67.92C242.396 68.1333 242.91 68.3333 243.51 68.52C244.123 68.6933 244.743 68.78 245.37 68.78C246.263 68.78 246.91 68.64 247.31 68.36C247.71 68.0667 247.91 67.68 247.91 67.2C247.91 66.9333 247.836 66.6933 247.69 66.48C247.543 66.2667 247.276 66.0533 246.89 65.84C246.516 65.6267 245.976 65.3867 245.27 65.12C244.576 64.8533 243.983 64.5867 243.49 64.32C242.996 64.0533 242.616 63.7333 242.35 63.36C242.083 62.9867 241.95 62.5067 241.95 61.92C241.95 61.0133 242.316 60.3133 243.05 59.82C243.796 59.3267 244.77 59.08 245.97 59.08C246.623 59.08 247.23 59.1467 247.79 59.28C248.363 59.4 248.896 59.5733 249.39 59.8L248.79 61.2C248.336 61.0133 247.863 60.8533 247.37 60.72C246.876 60.5867 246.37 60.52 245.85 60.52C245.13 60.52 244.576 60.64 244.19 60.88C243.816 61.1067 243.63 61.42 243.63 61.82C243.63 62.1133 243.716 62.3667 243.89 62.58C244.063 62.78 244.35 62.98 244.75 63.18C245.163 63.3667 245.71 63.5933 246.39 63.86C247.07 64.1133 247.65 64.3733 248.13 64.64C248.61 64.9067 248.976 65.2333 249.23 65.62C249.483 65.9933 249.61 66.4667 249.61 67.04ZM259.18 67.04C259.18 68.08 258.793 68.8667 258.02 69.4C257.247 69.9333 256.207 70.2 254.9 70.2C254.153 70.2 253.507 70.14 252.96 70.02C252.427 69.9 251.953 69.7333 251.54 69.52V67.92C251.967 68.1333 252.48 68.3333 253.08 68.52C253.693 68.6933 254.313 68.78 254.94 68.78C255.833 68.78 256.48 68.64 256.88 68.36C257.28 68.0667 257.48 67.68 257.48 67.2C257.48 66.9333 257.407 66.6933 257.26 66.48C257.113 66.2667 256.847 66.0533 256.46 65.84C256.087 65.6267 255.547 65.3867 254.84 65.12C254.147 64.8533 253.553 64.5867 253.06 64.32C252.567 64.0533 252.187 63.7333 251.92 63.36C251.653 62.9867 251.52 62.5067 251.52 61.92C251.52 61.0133 251.887 60.3133 252.62 59.82C253.367 59.3267 254.34 59.08 255.54 59.08C256.193 59.08 256.8 59.1467 257.36 59.28C257.933 59.4 258.467 59.5733 258.96 59.8L258.36 61.2C257.907 61.0133 257.433 60.8533 256.94 60.72C256.447 60.5867 255.94 60.52 255.42 60.52C254.7 60.52 254.147 60.64 253.76 60.88C253.387 61.1067 253.2 61.42 253.2 61.82C253.2 62.1133 253.287 62.3667 253.46 62.58C253.633 62.78 253.92 62.98 254.32 63.18C254.733 63.3667 255.28 63.5933 255.96 63.86C256.64 64.1133 257.22 64.3733 257.7 64.64C258.18 64.9067 258.547 65.2333 258.8 65.62C259.053 65.9933 259.18 66.4667 259.18 67.04ZM265.83 59.1C267.137 59.1 268.104 59.3867 268.73 59.96C269.357 60.5333 269.67 61.4467 269.67 62.7V70H268.39L268.05 68.48H267.97C267.504 69.0667 267.01 69.5 266.49 69.78C265.984 70.06 265.277 70.2 264.37 70.2C263.397 70.2 262.59 69.9467 261.95 69.44C261.31 68.92 260.99 68.1133 260.99 67.02C260.99 65.9533 261.41 65.1333 262.25 64.56C263.09 63.9733 264.384 63.6533 266.13 63.6L267.95 63.54V62.9C267.95 62.0067 267.757 61.3867 267.37 61.04C266.984 60.6933 266.437 60.52 265.73 60.52C265.17 60.52 264.637 60.6067 264.13 60.78C263.624 60.94 263.15 61.1267 262.71 61.34L262.17 60.02C262.637 59.7667 263.19 59.5533 263.83 59.38C264.47 59.1933 265.137 59.1 265.83 59.1ZM266.35 64.82C265.017 64.8733 264.09 65.0867 263.57 65.46C263.064 65.8333 262.81 66.36 262.81 67.04C262.81 67.64 262.99 68.08 263.35 68.36C263.724 68.64 264.197 68.78 264.77 68.78C265.677 68.78 266.43 68.5333 267.03 68.04C267.63 67.5333 267.93 66.76 267.93 65.72V64.76L266.35 64.82ZM276.781 59.08C277.488 59.08 278.121 59.2133 278.681 59.48C279.255 59.7467 279.741 60.1533 280.141 60.7H280.241L280.481 59.28H281.881V70.18C281.881 71.7133 281.488 72.8667 280.701 73.64C279.928 74.4133 278.721 74.8 277.081 74.8C275.508 74.8 274.221 74.5733 273.221 74.12V72.5C274.275 73.06 275.595 73.34 277.181 73.34C278.101 73.34 278.821 73.0667 279.341 72.52C279.875 71.9867 280.141 71.2533 280.141 70.32V69.9C280.141 69.74 280.148 69.5133 280.161 69.22C280.175 68.9133 280.188 68.7 280.201 68.58H280.121C279.401 69.66 278.295 70.2 276.801 70.2C275.415 70.2 274.328 69.7133 273.541 68.74C272.768 67.7667 272.381 66.4067 272.381 64.66C272.381 62.9533 272.768 61.6 273.541 60.6C274.328 59.5867 275.408 59.08 276.781 59.08ZM277.021 60.56C276.128 60.56 275.435 60.92 274.941 61.64C274.448 62.3467 274.201 63.36 274.201 64.68C274.201 66 274.441 67.0133 274.921 67.72C275.415 68.4133 276.128 68.76 277.061 68.76C278.141 68.76 278.928 68.4733 279.421 67.9C279.915 67.3133 280.161 66.3733 280.161 65.08V64.66C280.161 63.1933 279.908 62.1467 279.401 61.52C278.895 60.88 278.101 60.56 277.021 60.56ZM289.426 59.08C290.346 59.08 291.133 59.28 291.786 59.68C292.453 60.08 292.959 60.6467 293.306 61.38C293.666 62.1 293.846 62.9467 293.846 63.92V64.98H286.506C286.533 66.1933 286.839 67.12 287.426 67.76C288.026 68.3867 288.859 68.7 289.926 68.7C290.606 68.7 291.206 68.64 291.726 68.52C292.259 68.3867 292.806 68.2 293.366 67.96V69.5C292.819 69.74 292.279 69.9133 291.746 70.02C291.213 70.14 290.579 70.2 289.846 70.2C288.833 70.2 287.933 69.9933 287.146 69.58C286.373 69.1667 285.766 68.5533 285.326 67.74C284.899 66.9133 284.686 65.9067 284.686 64.72C284.686 63.5467 284.879 62.54 285.266 61.7C285.666 60.86 286.219 60.2133 286.926 59.76C287.646 59.3067 288.479 59.08 289.426 59.08ZM289.406 60.52C288.566 60.52 287.899 60.7933 287.406 61.34C286.926 61.8733 286.639 62.62 286.546 63.58H292.006C291.993 62.6733 291.779 61.94 291.366 61.38C290.953 60.8067 290.299 60.52 289.406 60.52ZM296.315 68.92C296.315 68.4267 296.435 68.08 296.675 67.88C296.915 67.68 297.202 67.58 297.535 67.58C297.882 67.58 298.175 67.68 298.415 67.88C298.668 68.08 298.795 68.4267 298.795 68.92C298.795 69.4 298.668 69.7467 298.415 69.96C298.175 70.1733 297.882 70.28 297.535 70.28C297.202 70.28 296.915 70.1733 296.675 69.96C296.435 69.7467 296.315 69.4 296.315 68.92Z" fill="#43474E"/>
<rect x="69" y="87" width="502.333" height="46" rx="2" fill="white"/>
<rect x="69" y="87" width="502.333" height="46" rx="2" stroke="#333333" stroke-width="2"/>
<g clip-path="url(#clip1_60328_9530)">
<rect x="20" y="32" width="48" height="1" fill="#C54600"/>
<g clip-path="url(#clip2_60328_9530)">
<rect x="20" y="20" width="24" height="24" rx="12" fill="#C54600"/>
<path d="M33.1825 27.2727V36H32.1257V28.3807H32.0746L29.9439 29.7955V28.7216L32.1257 27.2727H33.1825Z" fill="white"/>
</g>
</g>
<g clip-path="url(#clip3_60328_9530)">
<rect x="20" y="62" width="48" height="1" fill="#C54600"/>
<g clip-path="url(#clip4_60328_9530)">
<rect x="20" y="50" width="24" height="24" rx="12" fill="#C54600"/>
<path d="M29.2706 66V65.233L32.1513 62.0795C32.4893 61.7102 32.7678 61.3892 32.9865 61.1165C33.2053 60.8409 33.3672 60.5824 33.4723 60.3409C33.5803 60.0966 33.6342 59.8409 33.6342 59.5739C33.6342 59.267 33.5604 59.0014 33.4126 58.777C33.2678 58.5526 33.0689 58.3793 32.8161 58.2571C32.5632 58.1349 32.2791 58.0739 31.9638 58.0739C31.6286 58.0739 31.3359 58.1435 31.0859 58.2827C30.8388 58.419 30.647 58.6108 30.5107 58.858C30.3771 59.1051 30.3104 59.3949 30.3104 59.7273H29.3047C29.3047 59.2159 29.4226 58.767 29.6584 58.3807C29.8942 57.9943 30.2152 57.6932 30.6214 57.4773C31.0305 57.2614 31.4893 57.1534 31.9979 57.1534C32.5092 57.1534 32.9624 57.2614 33.3572 57.4773C33.7521 57.6932 34.0618 57.9844 34.2862 58.3509C34.5107 58.7173 34.6229 59.125 34.6229 59.5739C34.6229 59.8949 34.5646 60.2088 34.4482 60.5156C34.3345 60.8196 34.1357 61.1591 33.8516 61.5341C33.5703 61.9062 33.1797 62.3608 32.6797 62.8977L30.7195 64.9943V65.0625H34.7763V66H29.2706Z" fill="white"/>
</g>
</g>
<g clip-path="url(#clip5_60328_9530)">
<rect x="20" y="110" width="48" height="1" fill="#C54600"/>
<g clip-path="url(#clip6_60328_9530)">
<rect x="20" y="98" width="24" height="24" rx="12" fill="#C54600"/>
<path d="M32.032 114.119C31.4695 114.119 30.968 114.023 30.5277 113.83C30.0902 113.636 29.7422 113.368 29.4837 113.024C29.228 112.678 29.0888 112.276 29.0661 111.818H30.1399C30.1626 112.099 30.2592 112.342 30.4297 112.547C30.6001 112.749 30.8232 112.905 31.0987 113.016C31.3743 113.126 31.6797 113.182 32.0149 113.182C32.3899 113.182 32.7223 113.116 33.0121 112.986C33.3018 112.855 33.5291 112.673 33.6939 112.44C33.8587 112.207 33.9411 111.938 33.9411 111.631C33.9411 111.31 33.8615 111.027 33.7024 110.783C33.5433 110.536 33.3104 110.342 33.0036 110.203C32.6967 110.064 32.3217 109.994 31.8786 109.994H31.1797V109.057H31.8786C32.2251 109.057 32.5291 108.994 32.7905 108.869C33.0547 108.744 33.2607 108.568 33.4084 108.341C33.5589 108.114 33.6342 107.847 33.6342 107.54C33.6342 107.244 33.5689 106.987 33.4382 106.768C33.3075 106.55 33.1229 106.379 32.8842 106.257C32.6484 106.135 32.37 106.074 32.049 106.074C31.7479 106.074 31.4638 106.129 31.1967 106.24C30.9325 106.348 30.7166 106.506 30.549 106.713C30.3814 106.918 30.2905 107.165 30.2763 107.455H29.2536C29.2706 106.997 29.4084 106.597 29.6669 106.253C29.9254 105.906 30.2635 105.636 30.6811 105.443C31.1016 105.25 31.5632 105.153 32.0661 105.153C32.6058 105.153 33.0689 105.263 33.4553 105.482C33.8416 105.697 34.1385 105.983 34.3459 106.338C34.5533 106.693 34.657 107.077 34.657 107.489C34.657 107.98 34.5277 108.399 34.2692 108.746C34.0135 109.092 33.6655 109.332 33.2251 109.466V109.534C33.7763 109.625 34.2067 109.859 34.5163 110.237C34.826 110.612 34.9808 111.077 34.9808 111.631C34.9808 112.105 34.8516 112.531 34.593 112.909C34.3374 113.284 33.9879 113.58 33.5447 113.795C33.1016 114.011 32.5973 114.119 32.032 114.119Z" fill="white"/>
</g>
</g>
<defs>
<clipPath id="clip0_60328_9530">
<rect width="504.333" height="24" fill="white" transform="translate(68 20)"/>
</clipPath>
<clipPath id="clip1_60328_9530">
<rect width="48" height="24" fill="white" transform="translate(20 20)"/>
</clipPath>
<clipPath id="clip2_60328_9530">
<rect x="20" y="20" width="24" height="24" rx="12" fill="white"/>
</clipPath>
<clipPath id="clip3_60328_9530">
<rect width="48" height="24" fill="white" transform="translate(20 50)"/>
</clipPath>
<clipPath id="clip4_60328_9530">
<rect x="20" y="50" width="24" height="24" rx="12" fill="white"/>
</clipPath>
<clipPath id="clip5_60328_9530">
<rect width="48" height="24" fill="white" transform="translate(20 98)"/>
</clipPath>
<clipPath id="clip6_60328_9530">
<rect x="20" y="98" width="24" height="24" rx="12" fill="white"/>
</clipPath>
</defs>
</svg>
