<svg width="465" height="78" viewBox="0 0 465 78" fill="none" xmlns="http://www.w3.org/2000/svg">
<path d="M11.06 57.6C9.52667 57.6 8.32 58.1133 7.44 59.14C6.56 60.1667 6.12 61.5733 6.12 63.36C6.12 65.1333 6.52667 66.54 7.34 67.58C8.16667 68.6067 9.4 69.12 11.04 69.12C11.6667 69.12 12.26 69.0667 12.82 68.96C13.38 68.8533 13.9267 68.72 14.46 68.56V70.12C13.9267 70.32 13.3733 70.4667 12.8 70.56C12.24 70.6533 11.5667 70.7 10.78 70.7C9.32667 70.7 8.11333 70.4 7.14 69.8C6.16667 69.2 5.43333 68.3467 4.94 67.24C4.46 66.1333 4.22 64.8333 4.22 63.34C4.22 61.9 4.48 60.6333 5 59.54C5.53333 58.4333 6.31333 57.5733 7.34 56.96C8.36667 56.3333 9.61333 56.02 11.08 56.02C12.5867 56.02 13.9 56.3 15.02 56.86L14.3 58.38C13.86 58.18 13.3667 58 12.82 57.84C12.2867 57.68 11.7 57.6 11.06 57.6ZM21.3967 59.6C22.7034 59.6 23.6701 59.8867 24.2967 60.46C24.9234 61.0333 25.2367 61.9467 25.2367 63.2V70.5H23.9567L23.6167 68.98H23.5367C23.0701 69.5667 22.5767 70 22.0567 70.28C21.5501 70.56 20.8434 70.7 19.9367 70.7C18.9634 70.7 18.1567 70.4467 17.5167 69.94C16.8767 69.42 16.5567 68.6133 16.5567 67.52C16.5567 66.4533 16.9767 65.6333 17.8167 65.06C18.6567 64.4733 19.9501 64.1533 21.6967 64.1L23.5167 64.04V63.4C23.5167 62.5067 23.3234 61.8867 22.9367 61.54C22.5501 61.1933 22.0034 61.02 21.2967 61.02C20.7367 61.02 20.2034 61.1067 19.6967 61.28C19.1901 61.44 18.7167 61.6267 18.2767 61.84L17.7367 60.52C18.2034 60.2667 18.7567 60.0533 19.3967 59.88C20.0367 59.6933 20.7034 59.6 21.3967 59.6ZM21.9167 65.32C20.5834 65.3733 19.6567 65.5867 19.1367 65.96C18.6301 66.3333 18.3767 66.86 18.3767 67.54C18.3767 68.14 18.5567 68.58 18.9167 68.86C19.2901 69.14 19.7634 69.28 20.3367 69.28C21.2434 69.28 21.9967 69.0333 22.5967 68.54C23.1967 68.0333 23.4967 67.26 23.4967 66.22V65.26L21.9167 65.32ZM33.7077 59.58C34.9877 59.58 35.9543 59.8933 36.6077 60.52C37.261 61.1333 37.5877 62.1333 37.5877 63.52V70.5H35.8477V63.64C35.8477 61.92 35.0477 61.06 33.4477 61.06C32.261 61.06 31.441 61.3933 30.9877 62.06C30.5343 62.7267 30.3077 63.6867 30.3077 64.94V70.5H28.5477V59.78H29.9677L30.2277 61.24H30.3277C30.6743 60.68 31.1543 60.2667 31.7677 60C32.381 59.72 33.0277 59.58 33.7077 59.58ZM44.9709 59.6C46.2776 59.6 47.2443 59.8867 47.8709 60.46C48.4976 61.0333 48.8109 61.9467 48.8109 63.2V70.5H47.5309L47.1909 68.98H47.1109C46.6443 69.5667 46.1509 70 45.6309 70.28C45.1243 70.56 44.4176 70.7 43.5109 70.7C42.5376 70.7 41.7309 70.4467 41.0909 69.94C40.4509 69.42 40.1309 68.6133 40.1309 67.52C40.1309 66.4533 40.5509 65.6333 41.3909 65.06C42.2309 64.4733 43.5243 64.1533 45.2709 64.1L47.0909 64.04V63.4C47.0909 62.5067 46.8976 61.8867 46.5109 61.54C46.1243 61.1933 45.5776 61.02 44.8709 61.02C44.3109 61.02 43.7776 61.1067 43.2709 61.28C42.7643 61.44 42.2909 61.6267 41.8509 61.84L41.3109 60.52C41.7776 60.2667 42.3309 60.0533 42.9709 59.88C43.6109 59.6933 44.2776 59.6 44.9709 59.6ZM45.4909 65.32C44.1576 65.3733 43.2309 65.5867 42.7109 65.96C42.2043 66.3333 41.9509 66.86 41.9509 67.54C41.9509 68.14 42.1309 68.58 42.4909 68.86C42.8643 69.14 43.3376 69.28 43.9109 69.28C44.8176 69.28 45.5709 69.0333 46.1709 68.54C46.7709 68.0333 47.0709 67.26 47.0709 66.22V65.26L45.4909 65.32ZM55.9219 70.7C54.5885 70.7 53.5219 70.24 52.7219 69.32C51.9219 68.3867 51.5219 67 51.5219 65.16C51.5219 63.32 51.9219 61.9333 52.7219 61C53.5352 60.0533 54.6085 59.58 55.9419 59.58C56.7685 59.58 57.4419 59.7333 57.9619 60.04C58.4952 60.3467 58.9285 60.72 59.2619 61.16H59.3819C59.3685 60.9867 59.3419 60.7333 59.3019 60.4C59.2752 60.0533 59.2619 59.78 59.2619 59.58V55.3H61.0219V70.5H59.6019L59.3419 69.06H59.2619C58.9419 69.5133 58.5152 69.9 57.9819 70.22C57.4485 70.54 56.7619 70.7 55.9219 70.7ZM56.2019 69.24C57.3352 69.24 58.1285 68.9333 58.5819 68.32C59.0485 67.6933 59.2819 66.7533 59.2819 65.5V65.18C59.2819 63.8467 59.0619 62.8267 58.6219 62.12C58.1819 61.4 57.3685 61.04 56.1819 61.04C55.2352 61.04 54.5219 61.42 54.0419 62.18C53.5752 62.9267 53.3419 63.9333 53.3419 65.2C53.3419 66.48 53.5752 67.4733 54.0419 68.18C54.5219 68.8867 55.2419 69.24 56.2019 69.24ZM68.4866 59.6C69.7932 59.6 70.7599 59.8867 71.3866 60.46C72.0132 61.0333 72.3266 61.9467 72.3266 63.2V70.5H71.0466L70.7066 68.98H70.6266C70.1599 69.5667 69.6666 70 69.1466 70.28C68.6399 70.56 67.9332 70.7 67.0266 70.7C66.0532 70.7 65.2466 70.4467 64.6066 69.94C63.9666 69.42 63.6466 68.6133 63.6466 67.52C63.6466 66.4533 64.0666 65.6333 64.9066 65.06C65.7466 64.4733 67.0399 64.1533 68.7866 64.1L70.6066 64.04V63.4C70.6066 62.5067 70.4132 61.8867 70.0266 61.54C69.6399 61.1933 69.0932 61.02 68.3866 61.02C67.8266 61.02 67.2932 61.1067 66.7866 61.28C66.2799 61.44 65.8066 61.6267 65.3666 61.84L64.8266 60.52C65.2932 60.2667 65.8466 60.0533 66.4866 59.88C67.1266 59.6933 67.7932 59.6 68.4866 59.6ZM69.0066 65.32C67.6732 65.3733 66.7466 65.5867 66.2266 65.96C65.7199 66.3333 65.4666 66.86 65.4666 67.54C65.4666 68.14 65.6466 68.58 66.0066 68.86C66.3799 69.14 66.8532 69.28 67.4266 69.28C68.3332 69.28 69.0866 69.0333 69.6866 68.54C70.2866 68.0333 70.5866 67.26 70.5866 66.22V65.26L69.0066 65.32ZM75.3775 69.42C75.3775 68.9267 75.4975 68.58 75.7375 68.38C75.9775 68.18 76.2642 68.08 76.5975 68.08C76.9442 68.08 77.2375 68.18 77.4775 68.38C77.7308 68.58 77.8575 68.9267 77.8575 69.42C77.8575 69.9 77.7308 70.2467 77.4775 70.46C77.2375 70.6733 76.9442 70.78 76.5975 70.78C76.2642 70.78 75.9775 70.6733 75.7375 70.46C75.4975 70.2467 75.3775 69.9 75.3775 69.42ZM85.2891 70.7C84.3424 70.7 83.4957 70.5067 82.7491 70.12C82.0157 69.7333 81.4357 69.1333 81.0091 68.32C80.5957 67.5067 80.3891 66.4667 80.3891 65.2C80.3891 63.88 80.6091 62.8067 81.0491 61.98C81.4891 61.1533 82.0824 60.5467 82.8291 60.16C83.5891 59.7733 84.4491 59.58 85.4091 59.58C85.9557 59.58 86.4824 59.64 86.9891 59.76C87.4957 59.8667 87.9091 60 88.2291 60.16L87.6891 61.62C87.3691 61.5 86.9957 61.3867 86.5691 61.28C86.1424 61.1733 85.7424 61.12 85.3691 61.12C83.2624 61.12 82.2091 62.4733 82.2091 65.18C82.2091 66.4733 82.4624 67.4667 82.9691 68.16C83.4891 68.84 84.2557 69.18 85.2691 69.18C85.8557 69.18 86.3691 69.12 86.8091 69C87.2624 68.88 87.6757 68.7333 88.0491 68.56V70.12C87.6891 70.3067 87.2891 70.4467 86.8491 70.54C86.4224 70.6467 85.9024 70.7 85.2891 70.7ZM94.6584 59.6C95.9651 59.6 96.9318 59.8867 97.5584 60.46C98.1851 61.0333 98.4984 61.9467 98.4984 63.2V70.5H97.2184L96.8784 68.98H96.7984C96.3318 69.5667 95.8384 70 95.3184 70.28C94.8118 70.56 94.1051 70.7 93.1984 70.7C92.2251 70.7 91.4184 70.4467 90.7784 69.94C90.1384 69.42 89.8184 68.6133 89.8184 67.52C89.8184 66.4533 90.2384 65.6333 91.0784 65.06C91.9184 64.4733 93.2118 64.1533 94.9584 64.1L96.7784 64.04V63.4C96.7784 62.5067 96.5851 61.8867 96.1984 61.54C95.8118 61.1933 95.2651 61.02 94.5584 61.02C93.9984 61.02 93.4651 61.1067 92.9584 61.28C92.4518 61.44 91.9784 61.6267 91.5384 61.84L90.9984 60.52C91.4651 60.2667 92.0184 60.0533 92.6584 59.88C93.2984 59.6933 93.9651 59.6 94.6584 59.6ZM95.1784 65.32C93.8451 65.3733 92.9184 65.5867 92.3984 65.96C91.8918 66.3333 91.6384 66.86 91.6384 67.54C91.6384 68.14 91.8184 68.58 92.1784 68.86C92.5518 69.14 93.0251 69.28 93.5984 69.28C94.5051 69.28 95.2584 69.0333 95.8584 68.54C96.4584 68.0333 96.7584 67.26 96.7584 66.22V65.26L95.1784 65.32Z" fill="#2B4380"/>
<line x1="3" y1="77" x2="101" y2="77" stroke="#2B4380"/>
<path d="M111 71.75C110.648 71.75 110.336 71.6328 110.102 71.3984C109.594 70.9297 109.594 70.1094 110.102 69.6406L116.703 63L110.102 56.3984C109.594 55.9297 109.594 55.1094 110.102 54.6406C110.57 54.1328 111.391 54.1328 111.859 54.6406L119.359 62.1406C119.867 62.6094 119.867 63.4297 119.359 63.8984L111.859 71.3984C111.625 71.6328 111.312 71.75 111 71.75Z" fill="#333333"/>
<path d="M162.86 70.5H161.06V63.84H153.74V70.5H151.94V56.22H153.74V62.26H161.06V56.22H162.86V70.5ZM175.844 65.12C175.844 66.8933 175.391 68.2667 174.484 69.24C173.591 70.2133 172.378 70.7 170.844 70.7C169.898 70.7 169.051 70.4867 168.304 70.06C167.571 69.62 166.991 68.9867 166.564 68.16C166.138 67.32 165.924 66.3067 165.924 65.12C165.924 63.3467 166.371 61.98 167.264 61.02C168.158 60.06 169.371 59.58 170.904 59.58C171.878 59.58 172.731 59.8 173.464 60.24C174.211 60.6667 174.791 61.2933 175.204 62.12C175.631 62.9333 175.844 63.9333 175.844 65.12ZM167.744 65.12C167.744 66.3867 167.991 67.3933 168.484 68.14C168.991 68.8733 169.791 69.24 170.884 69.24C171.964 69.24 172.758 68.8733 173.264 68.14C173.771 67.3933 174.024 66.3867 174.024 65.12C174.024 63.8533 173.771 62.86 173.264 62.14C172.758 61.42 171.958 61.06 170.864 61.06C169.771 61.06 168.978 61.42 168.484 62.14C167.991 62.86 167.744 63.8533 167.744 65.12ZM190.394 59.58C191.607 59.58 192.514 59.8933 193.114 60.52C193.714 61.1333 194.014 62.1333 194.014 63.52V70.5H192.274V63.6C192.274 61.9067 191.547 61.06 190.094 61.06C189.054 61.06 188.307 61.36 187.854 61.96C187.414 62.56 187.194 63.4333 187.194 64.58V70.5H185.454V63.6C185.454 61.9067 184.72 61.06 183.254 61.06C182.174 61.06 181.427 61.3933 181.014 62.06C180.6 62.7267 180.394 63.6867 180.394 64.94V70.5H178.634V59.78H180.054L180.314 61.24H180.414C180.747 60.68 181.194 60.2667 181.754 60C182.327 59.72 182.934 59.58 183.574 59.58C185.254 59.58 186.347 60.18 186.854 61.38H186.954C187.314 60.7667 187.8 60.3133 188.414 60.02C189.04 59.7267 189.7 59.58 190.394 59.58ZM201.465 59.58C202.385 59.58 203.172 59.78 203.825 60.18C204.492 60.58 204.998 61.1467 205.345 61.88C205.705 62.6 205.885 63.4467 205.885 64.42V65.48H198.545C198.572 66.6933 198.878 67.62 199.465 68.26C200.065 68.8867 200.898 69.2 201.965 69.2C202.645 69.2 203.245 69.14 203.765 69.02C204.298 68.8867 204.845 68.7 205.405 68.46V70C204.858 70.24 204.318 70.4133 203.785 70.52C203.252 70.64 202.618 70.7 201.885 70.7C200.872 70.7 199.972 70.4933 199.185 70.08C198.412 69.6667 197.805 69.0533 197.365 68.24C196.938 67.4133 196.725 66.4067 196.725 65.22C196.725 64.0467 196.918 63.04 197.305 62.2C197.705 61.36 198.258 60.7133 198.965 60.26C199.685 59.8067 200.518 59.58 201.465 59.58ZM201.445 61.02C200.605 61.02 199.938 61.2933 199.445 61.84C198.965 62.3733 198.678 63.12 198.585 64.08H204.045C204.032 63.1733 203.818 62.44 203.405 61.88C202.992 61.3067 202.338 61.02 201.445 61.02ZM218.909 59.58C220.229 59.58 221.289 60.04 222.089 60.96C222.903 61.88 223.309 63.2667 223.309 65.12C223.309 66.9467 222.903 68.3333 222.089 69.28C221.289 70.2267 220.223 70.7 218.889 70.7C218.063 70.7 217.376 70.5467 216.829 70.24C216.296 69.92 215.876 69.5533 215.569 69.14H215.449C215.476 69.3667 215.503 69.6533 215.529 70C215.556 70.3467 215.569 70.6467 215.569 70.9V75.3H213.809V59.78H215.249L215.489 61.24H215.569C215.889 60.7733 216.309 60.38 216.829 60.06C217.349 59.74 218.043 59.58 218.909 59.58ZM218.589 61.06C217.496 61.06 216.723 61.3667 216.269 61.98C215.829 62.5933 215.596 63.5267 215.569 64.78V65.12C215.569 66.44 215.783 67.46 216.209 68.18C216.649 68.8867 217.456 69.24 218.629 69.24C219.283 69.24 219.816 69.06 220.229 68.7C220.656 68.34 220.969 67.8533 221.169 67.24C221.383 66.6133 221.489 65.9 221.489 65.1C221.489 63.8733 221.249 62.8933 220.769 62.16C220.303 61.4267 219.576 61.06 218.589 61.06ZM230.174 59.6C231.481 59.6 232.447 59.8867 233.074 60.46C233.701 61.0333 234.014 61.9467 234.014 63.2V70.5H232.734L232.394 68.98H232.314C231.847 69.5667 231.354 70 230.834 70.28C230.327 70.56 229.621 70.7 228.714 70.7C227.741 70.7 226.934 70.4467 226.294 69.94C225.654 69.42 225.334 68.6133 225.334 67.52C225.334 66.4533 225.754 65.6333 226.594 65.06C227.434 64.4733 228.727 64.1533 230.474 64.1L232.294 64.04V63.4C232.294 62.5067 232.101 61.8867 231.714 61.54C231.327 61.1933 230.781 61.02 230.074 61.02C229.514 61.02 228.981 61.1067 228.474 61.28C227.967 61.44 227.494 61.6267 227.054 61.84L226.514 60.52C226.981 60.2667 227.534 60.0533 228.174 59.88C228.814 59.6933 229.481 59.6 230.174 59.6ZM230.694 65.32C229.361 65.3733 228.434 65.5867 227.914 65.96C227.407 66.3333 227.154 66.86 227.154 67.54C227.154 68.14 227.334 68.58 227.694 68.86C228.067 69.14 228.541 69.28 229.114 69.28C230.021 69.28 230.774 69.0333 231.374 68.54C231.974 68.0333 232.274 67.26 232.274 66.22V65.26L230.694 65.32ZM241.125 59.58C241.832 59.58 242.465 59.7133 243.025 59.98C243.598 60.2467 244.085 60.6533 244.485 61.2H244.585L244.825 59.78H246.225V70.68C246.225 72.2133 245.832 73.3667 245.045 74.14C244.272 74.9133 243.065 75.3 241.425 75.3C239.852 75.3 238.565 75.0733 237.565 74.62V73C238.618 73.56 239.938 73.84 241.525 73.84C242.445 73.84 243.165 73.5667 243.685 73.02C244.218 72.4867 244.485 71.7533 244.485 70.82V70.4C244.485 70.24 244.492 70.0133 244.505 69.72C244.518 69.4133 244.532 69.2 244.545 69.08H244.465C243.745 70.16 242.638 70.7 241.145 70.7C239.758 70.7 238.672 70.2133 237.885 69.24C237.112 68.2667 236.725 66.9067 236.725 65.16C236.725 63.4533 237.112 62.1 237.885 61.1C238.672 60.0867 239.752 59.58 241.125 59.58ZM241.365 61.06C240.472 61.06 239.778 61.42 239.285 62.14C238.792 62.8467 238.545 63.86 238.545 65.18C238.545 66.5 238.785 67.5133 239.265 68.22C239.758 68.9133 240.472 69.26 241.405 69.26C242.485 69.26 243.272 68.9733 243.765 68.4C244.258 67.8133 244.505 66.8733 244.505 65.58V65.16C244.505 63.6933 244.252 62.6467 243.745 62.02C243.238 61.38 242.445 61.06 241.365 61.06ZM253.77 59.58C254.69 59.58 255.476 59.78 256.13 60.18C256.796 60.58 257.303 61.1467 257.65 61.88C258.01 62.6 258.19 63.4467 258.19 64.42V65.48H250.85C250.876 66.6933 251.183 67.62 251.77 68.26C252.37 68.8867 253.203 69.2 254.27 69.2C254.95 69.2 255.55 69.14 256.07 69.02C256.603 68.8867 257.15 68.7 257.71 68.46V70C257.163 70.24 256.623 70.4133 256.09 70.52C255.556 70.64 254.923 70.7 254.19 70.7C253.176 70.7 252.276 70.4933 251.49 70.08C250.716 69.6667 250.11 69.0533 249.67 68.24C249.243 67.4133 249.03 66.4067 249.03 65.22C249.03 64.0467 249.223 63.04 249.61 62.2C250.01 61.36 250.563 60.7133 251.27 60.26C251.99 59.8067 252.823 59.58 253.77 59.58ZM253.75 61.02C252.91 61.02 252.243 61.2933 251.75 61.84C251.27 62.3733 250.983 63.12 250.89 64.08H256.35C256.336 63.1733 256.123 62.44 255.71 61.88C255.296 61.3067 254.643 61.02 253.75 61.02Z" fill="#2B4380"/>
<line x1="150" y1="77" x2="260" y2="77" stroke="#2B4380"/>
<path d="M270 71.75C269.648 71.75 269.336 71.6328 269.102 71.3984C268.594 70.9297 268.594 70.1094 269.102 69.6406L275.703 63L269.102 56.3984C268.594 55.9297 268.594 55.1094 269.102 54.6406C269.57 54.1328 270.391 54.1328 270.859 54.6406L278.359 62.1406C278.867 62.6094 278.867 63.4297 278.359 63.8984L270.859 71.3984C270.625 71.6328 270.312 71.75 270 71.75Z" fill="#333333"/>
<path d="M314.72 56.22C316.587 56.22 317.947 56.5867 318.8 57.32C319.653 58.0533 320.08 59.0867 320.08 60.42C320.08 61.2067 319.9 61.9467 319.54 62.64C319.193 63.32 318.6 63.8733 317.76 64.3C316.933 64.7267 315.807 64.94 314.38 64.94H312.74V70.5H310.94V56.22H314.72ZM314.56 57.76H312.74V63.4H314.18C315.54 63.4 316.553 63.18 317.22 62.74C317.887 62.3 318.22 61.5533 318.22 60.5C318.22 59.58 317.927 58.8933 317.34 58.44C316.753 57.9867 315.827 57.76 314.56 57.76ZM326.869 59.6C328.176 59.6 329.143 59.8867 329.769 60.46C330.396 61.0333 330.709 61.9467 330.709 63.2V70.5H329.429L329.089 68.98H329.009C328.543 69.5667 328.049 70 327.529 70.28C327.023 70.56 326.316 70.7 325.409 70.7C324.436 70.7 323.629 70.4467 322.989 69.94C322.349 69.42 322.029 68.6133 322.029 67.52C322.029 66.4533 322.449 65.6333 323.289 65.06C324.129 64.4733 325.423 64.1533 327.169 64.1L328.989 64.04V63.4C328.989 62.5067 328.796 61.8867 328.409 61.54C328.023 61.1933 327.476 61.02 326.769 61.02C326.209 61.02 325.676 61.1067 325.169 61.28C324.663 61.44 324.189 61.6267 323.749 61.84L323.209 60.52C323.676 60.2667 324.229 60.0533 324.869 59.88C325.509 59.6933 326.176 59.6 326.869 59.6ZM327.389 65.32C326.056 65.3733 325.129 65.5867 324.609 65.96C324.103 66.3333 323.849 66.86 323.849 67.54C323.849 68.14 324.029 68.58 324.389 68.86C324.763 69.14 325.236 69.28 325.809 69.28C326.716 69.28 327.469 69.0333 328.069 68.54C328.669 68.0333 328.969 67.26 328.969 66.22V65.26L327.389 65.32ZM339.02 59.58C339.22 59.58 339.434 59.5933 339.66 59.62C339.9 59.6333 340.107 59.66 340.28 59.7L340.06 61.32C339.887 61.28 339.694 61.2467 339.48 61.22C339.28 61.1933 339.087 61.18 338.9 61.18C338.354 61.18 337.84 61.3333 337.36 61.64C336.88 61.9333 336.494 62.3533 336.2 62.9C335.92 63.4333 335.78 64.06 335.78 64.78V70.5H334.02V59.78H335.46L335.66 61.74H335.74C336.087 61.1533 336.534 60.6467 337.08 60.22C337.627 59.7933 338.274 59.58 339.02 59.58ZM346.031 59.58C346.951 59.58 347.738 59.78 348.391 60.18C349.058 60.58 349.565 61.1467 349.911 61.88C350.271 62.6 350.451 63.4467 350.451 64.42V65.48H343.111C343.138 66.6933 343.445 67.62 344.031 68.26C344.631 68.8867 345.465 69.2 346.531 69.2C347.211 69.2 347.811 69.14 348.331 69.02C348.865 68.8867 349.411 68.7 349.971 68.46V70C349.425 70.24 348.885 70.4133 348.351 70.52C347.818 70.64 347.185 70.7 346.451 70.7C345.438 70.7 344.538 70.4933 343.751 70.08C342.978 69.6667 342.371 69.0533 341.931 68.24C341.505 67.4133 341.291 66.4067 341.291 65.22C341.291 64.0467 341.485 63.04 341.871 62.2C342.271 61.36 342.825 60.7133 343.531 60.26C344.251 59.8067 345.085 59.58 346.031 59.58ZM346.011 61.02C345.171 61.02 344.505 61.2933 344.011 61.84C343.531 62.3733 343.245 63.12 343.151 64.08H348.611C348.598 63.1733 348.385 62.44 347.971 61.88C347.558 61.3067 346.905 61.02 346.011 61.02ZM358.34 59.58C359.62 59.58 360.587 59.8933 361.24 60.52C361.894 61.1333 362.22 62.1333 362.22 63.52V70.5H360.48V63.64C360.48 61.92 359.68 61.06 358.08 61.06C356.894 61.06 356.074 61.3933 355.62 62.06C355.167 62.7267 354.94 63.6867 354.94 64.94V70.5H353.18V59.78H354.6L354.86 61.24H354.96C355.307 60.68 355.787 60.2667 356.4 60C357.014 59.72 357.66 59.58 358.34 59.58ZM369.124 69.26C369.39 69.26 369.664 69.24 369.944 69.2C370.224 69.1467 370.45 69.0933 370.624 69.04V70.38C370.437 70.4733 370.17 70.5467 369.824 70.6C369.477 70.6667 369.144 70.7 368.824 70.7C368.264 70.7 367.744 70.6067 367.264 70.42C366.797 70.22 366.417 69.88 366.124 69.4C365.83 68.92 365.684 68.2467 365.684 67.38V61.14H364.164V60.3L365.704 59.6L366.404 57.32H367.444V59.78H370.544V61.14H367.444V67.34C367.444 67.9933 367.597 68.48 367.904 68.8C368.224 69.1067 368.63 69.26 369.124 69.26ZM383.066 59.58C384.386 59.58 385.446 60.04 386.246 60.96C387.059 61.88 387.466 63.2667 387.466 65.12C387.466 66.9467 387.059 68.3333 386.246 69.28C385.446 70.2267 384.379 70.7 383.046 70.7C382.219 70.7 381.532 70.5467 380.986 70.24C380.452 69.92 380.032 69.5533 379.726 69.14H379.606C379.632 69.3667 379.659 69.6533 379.686 70C379.712 70.3467 379.726 70.6467 379.726 70.9V75.3H377.966V59.78H379.406L379.646 61.24H379.726C380.046 60.7733 380.466 60.38 380.986 60.06C381.506 59.74 382.199 59.58 383.066 59.58ZM382.746 61.06C381.652 61.06 380.879 61.3667 380.426 61.98C379.986 62.5933 379.752 63.5267 379.726 64.78V65.12C379.726 66.44 379.939 67.46 380.366 68.18C380.806 68.8867 381.612 69.24 382.786 69.24C383.439 69.24 383.972 69.06 384.386 68.7C384.812 68.34 385.126 67.8533 385.326 67.24C385.539 66.6133 385.646 65.9 385.646 65.1C385.646 63.8733 385.406 62.8933 384.926 62.16C384.459 61.4267 383.732 61.06 382.746 61.06ZM394.33 59.6C395.637 59.6 396.604 59.8867 397.23 60.46C397.857 61.0333 398.17 61.9467 398.17 63.2V70.5H396.89L396.55 68.98H396.47C396.004 69.5667 395.51 70 394.99 70.28C394.484 70.56 393.777 70.7 392.87 70.7C391.897 70.7 391.09 70.4467 390.45 69.94C389.81 69.42 389.49 68.6133 389.49 67.52C389.49 66.4533 389.91 65.6333 390.75 65.06C391.59 64.4733 392.884 64.1533 394.63 64.1L396.45 64.04V63.4C396.45 62.5067 396.257 61.8867 395.87 61.54C395.484 61.1933 394.937 61.02 394.23 61.02C393.67 61.02 393.137 61.1067 392.63 61.28C392.124 61.44 391.65 61.6267 391.21 61.84L390.67 60.52C391.137 60.2667 391.69 60.0533 392.33 59.88C392.97 59.6933 393.637 59.6 394.33 59.6ZM394.85 65.32C393.517 65.3733 392.59 65.5867 392.07 65.96C391.564 66.3333 391.31 66.86 391.31 67.54C391.31 68.14 391.49 68.58 391.85 68.86C392.224 69.14 392.697 69.28 393.27 69.28C394.177 69.28 394.93 69.0333 395.53 68.54C396.13 68.0333 396.43 67.26 396.43 66.22V65.26L394.85 65.32ZM405.281 59.58C405.988 59.58 406.621 59.7133 407.181 59.98C407.755 60.2467 408.241 60.6533 408.641 61.2H408.741L408.981 59.78H410.381V70.68C410.381 72.2133 409.988 73.3667 409.201 74.14C408.428 74.9133 407.221 75.3 405.581 75.3C404.008 75.3 402.721 75.0733 401.721 74.62V73C402.775 73.56 404.095 73.84 405.681 73.84C406.601 73.84 407.321 73.5667 407.841 73.02C408.375 72.4867 408.641 71.7533 408.641 70.82V70.4C408.641 70.24 408.648 70.0133 408.661 69.72C408.675 69.4133 408.688 69.2 408.701 69.08H408.621C407.901 70.16 406.795 70.7 405.301 70.7C403.915 70.7 402.828 70.2133 402.041 69.24C401.268 68.2667 400.881 66.9067 400.881 65.16C400.881 63.4533 401.268 62.1 402.041 61.1C402.828 60.0867 403.908 59.58 405.281 59.58ZM405.521 61.06C404.628 61.06 403.935 61.42 403.441 62.14C402.948 62.8467 402.701 63.86 402.701 65.18C402.701 66.5 402.941 67.5133 403.421 68.22C403.915 68.9133 404.628 69.26 405.561 69.26C406.641 69.26 407.428 68.9733 407.921 68.4C408.415 67.8133 408.661 66.8733 408.661 65.58V65.16C408.661 63.6933 408.408 62.6467 407.901 62.02C407.395 61.38 406.601 61.06 405.521 61.06ZM417.926 59.58C418.846 59.58 419.633 59.78 420.286 60.18C420.953 60.58 421.459 61.1467 421.806 61.88C422.166 62.6 422.346 63.4467 422.346 64.42V65.48H415.006C415.033 66.6933 415.339 67.62 415.926 68.26C416.526 68.8867 417.359 69.2 418.426 69.2C419.106 69.2 419.706 69.14 420.226 69.02C420.759 68.8867 421.306 68.7 421.866 68.46V70C421.319 70.24 420.779 70.4133 420.246 70.52C419.713 70.64 419.079 70.7 418.346 70.7C417.333 70.7 416.433 70.4933 415.646 70.08C414.873 69.6667 414.266 69.0533 413.826 68.24C413.399 67.4133 413.186 66.4067 413.186 65.22C413.186 64.0467 413.379 63.04 413.766 62.2C414.166 61.36 414.719 60.7133 415.426 60.26C416.146 59.8067 416.979 59.58 417.926 59.58ZM417.906 61.02C417.066 61.02 416.399 61.2933 415.906 61.84C415.426 62.3733 415.139 63.12 415.046 64.08H420.506C420.493 63.1733 420.279 62.44 419.866 61.88C419.453 61.3067 418.799 61.02 417.906 61.02ZM432.03 70.5H430.27V55.3H432.03V70.5ZM436.327 55.76C436.593 55.76 436.827 55.8533 437.027 56.04C437.24 56.2133 437.347 56.4933 437.347 56.88C437.347 57.2533 437.24 57.5333 437.027 57.72C436.827 57.9067 436.593 58 436.327 58C436.033 58 435.787 57.9067 435.587 57.72C435.387 57.5333 435.287 57.2533 435.287 56.88C435.287 56.4933 435.387 56.2133 435.587 56.04C435.787 55.8533 436.033 55.76 436.327 55.76ZM437.187 59.78V70.5H435.427V59.78H437.187ZM445.743 59.58C447.023 59.58 447.989 59.8933 448.643 60.52C449.296 61.1333 449.623 62.1333 449.623 63.52V70.5H447.883V63.64C447.883 61.92 447.083 61.06 445.483 61.06C444.296 61.06 443.476 61.3933 443.023 62.06C442.569 62.7267 442.343 63.6867 442.343 64.94V70.5H440.583V59.78H442.003L442.263 61.24H442.363C442.709 60.68 443.189 60.2667 443.803 60C444.416 59.72 445.063 59.58 445.743 59.58ZM454.686 63.24C454.686 63.4533 454.673 63.7333 454.646 64.08C454.633 64.4267 454.619 64.7267 454.606 64.98H454.686C454.766 64.8733 454.886 64.72 455.046 64.52C455.206 64.32 455.366 64.12 455.526 63.92C455.699 63.7067 455.846 63.5333 455.966 63.4L459.386 59.78H461.446L457.106 64.36L461.746 70.5H459.626L455.906 65.5L454.686 66.56V70.5H452.946V55.3H454.686V63.24Z" fill="#2B4380"/>
<line x1="309" y1="77" x2="462" y2="77" stroke="#2B4380"/>
<g clip-path="url(#clip0_7239_17723)">
<rect x="386" width="1" height="51" fill="#C54600"/>
<g clip-path="url(#clip1_7239_17723)">
<rect x="374" width="24" height="24" rx="12" fill="#C54600"/>
<path d="M381.927 15.2102V13.5149L386.178 6.81818H387.639V9.16477H386.774L384.095 13.4055V13.4851H390.135V15.2102H381.927ZM386.814 17V14.6932L386.854 13.9425V6.81818H388.872V17H386.814Z" fill="white"/>
</g>
</g>
<g clip-path="url(#clip2_7239_17723)">
<rect x="206" width="1" height="52.5" fill="#C54600"/>
<g clip-path="url(#clip3_7239_17723)">
<rect x="194" width="24" height="24" rx="12" fill="#C54600"/>
<path d="M205.975 17.1392C205.232 17.1392 204.571 17.0116 203.991 16.7564C203.414 16.4979 202.958 16.1432 202.624 15.6925C202.292 15.2384 202.122 14.7147 202.112 14.1214H204.279C204.292 14.37 204.374 14.5888 204.523 14.7777C204.675 14.9633 204.877 15.1075 205.129 15.2102C205.381 15.313 205.665 15.3643 205.979 15.3643C206.308 15.3643 206.598 15.3063 206.85 15.1903C207.101 15.0743 207.299 14.9136 207.441 14.7081C207.584 14.5026 207.655 14.2656 207.655 13.9972C207.655 13.7254 207.579 13.4851 207.426 13.2763C207.277 13.0642 207.062 12.8984 206.78 12.7791C206.502 12.6598 206.17 12.6001 205.786 12.6001H204.836V11.0192H205.786C206.11 11.0192 206.397 10.9628 206.646 10.8501C206.898 10.7375 207.093 10.5817 207.232 10.3828C207.372 10.1806 207.441 9.94531 207.441 9.67685C207.441 9.42164 207.38 9.19792 207.257 9.00568C207.138 8.81013 206.969 8.65767 206.75 8.5483C206.535 8.43892 206.283 8.38423 205.994 8.38423C205.703 8.38423 205.436 8.43726 205.194 8.54332C204.952 8.64607 204.758 8.79356 204.612 8.9858C204.466 9.17803 204.389 9.40341 204.379 9.66193H202.315C202.325 9.07528 202.493 8.55824 202.818 8.1108C203.142 7.66335 203.58 7.31368 204.13 7.06179C204.684 6.80658 205.308 6.67898 206.004 6.67898C206.707 6.67898 207.322 6.80658 207.849 7.06179C208.376 7.317 208.785 7.66169 209.077 8.09588C209.372 8.52675 209.518 9.01065 209.514 9.54758C209.518 10.1177 209.34 10.5933 208.982 10.9744C208.628 11.3556 208.165 11.5975 207.595 11.7003V11.7798C208.344 11.8759 208.914 12.1361 209.305 12.5604C209.7 12.9813 209.895 13.5083 209.892 14.1413C209.895 14.7214 209.728 15.2367 209.39 15.6875C209.055 16.1383 208.593 16.4929 208.003 16.7514C207.413 17.0099 206.737 17.1392 205.975 17.1392Z" fill="white"/>
</g>
</g>
<g clip-path="url(#clip4_7239_17723)">
<rect x="112.5" width="1" height="51" fill="#C54600"/>
<g clip-path="url(#clip5_7239_17723)">
<rect x="100.5" width="24" height="24" rx="12" fill="#C54600"/>
<path d="M108.916 17V15.4489L112.54 12.093C112.849 11.7947 113.107 11.5263 113.316 11.2876C113.528 11.049 113.689 10.8153 113.798 10.5866C113.908 10.3546 113.962 10.1044 113.962 9.83594C113.962 9.53764 113.894 9.28078 113.758 9.06534C113.623 8.84659 113.437 8.67921 113.202 8.56321C112.966 8.44389 112.699 8.38423 112.401 8.38423C112.09 8.38423 111.818 8.44721 111.586 8.57315C111.354 8.6991 111.175 8.87973 111.049 9.11506C110.923 9.35038 110.86 9.63044 110.86 9.95526H108.817C108.817 9.28906 108.967 8.7107 109.269 8.22017C109.571 7.72964 109.993 7.35014 110.537 7.08168C111.08 6.81321 111.707 6.67898 112.416 6.67898C113.145 6.67898 113.78 6.80824 114.32 7.06676C114.864 7.32197 115.286 7.67661 115.588 8.13068C115.89 8.58475 116.04 9.10511 116.04 9.69176C116.04 10.0762 115.964 10.4557 115.812 10.8303C115.663 11.2048 115.396 11.6207 115.011 12.0781C114.627 12.5322 114.085 13.0774 113.386 13.7138L111.899 15.1705V15.2401H116.175V17H108.916Z" fill="white"/>
</g>
</g>
<g clip-path="url(#clip6_7239_17723)">
<rect x="53" width="1" height="52.5" fill="#C54600"/>
<g clip-path="url(#clip7_7239_17723)">
<rect x="41" width="24" height="24" rx="12" fill="#C54600"/>
<path d="M54.8302 6.81818V17H52.6775V8.86151H52.6178L50.2861 10.3232V8.41406L52.8067 6.81818H54.8302Z" fill="white"/>
</g>
</g>
<defs>
<clipPath id="clip0_7239_17723">
<rect width="24" height="51" fill="white" transform="translate(374)"/>
</clipPath>
<clipPath id="clip1_7239_17723">
<rect x="374" width="24" height="24" rx="12" fill="white"/>
</clipPath>
<clipPath id="clip2_7239_17723">
<rect width="24" height="52.5" fill="white" transform="translate(194)"/>
</clipPath>
<clipPath id="clip3_7239_17723">
<rect x="194" width="24" height="24" rx="12" fill="white"/>
</clipPath>
<clipPath id="clip4_7239_17723">
<rect width="24" height="51" fill="white" transform="translate(100.5)"/>
</clipPath>
<clipPath id="clip5_7239_17723">
<rect x="100.5" width="24" height="24" rx="12" fill="white"/>
</clipPath>
<clipPath id="clip6_7239_17723">
<rect width="24" height="52.5" fill="white" transform="translate(41)"/>
</clipPath>
<clipPath id="clip7_7239_17723">
<rect x="41" width="24" height="24" rx="12" fill="white"/>
</clipPath>
</defs>
</svg>
