<svg width="595" height="414" viewBox="0 0 595 414" fill="none" xmlns="http://www.w3.org/2000/svg">
<g clip-path="url(#clip0_57654_5680)">
<path d="M103.616 47.781V51H91.3345V30.033H95.235V47.781H103.616ZM114.655 41.8505C114.655 41.3865 114.588 40.9515 114.452 40.5455C114.327 40.1298 114.133 39.7673 113.872 39.458C113.611 39.1487 113.278 38.907 112.872 38.733C112.475 38.5493 112.011 38.4575 111.48 38.4575C110.445 38.4575 109.629 38.7523 109.029 39.342C108.44 39.9317 108.063 40.7678 107.898 41.8505H114.655ZM107.826 44.011C107.884 44.7747 108.019 45.4368 108.232 45.9975C108.444 46.5485 108.725 47.0077 109.073 47.375C109.421 47.7327 109.832 48.0033 110.305 48.187C110.789 48.361 111.32 48.448 111.9 48.448C112.48 48.448 112.978 48.3803 113.394 48.245C113.819 48.1097 114.186 47.9598 114.496 47.7955C114.815 47.6312 115.09 47.4813 115.322 47.346C115.564 47.2107 115.796 47.143 116.018 47.143C116.318 47.143 116.54 47.2542 116.685 47.4765L117.715 48.7815C117.318 49.2455 116.874 49.637 116.381 49.956C115.888 50.2653 115.371 50.5167 114.829 50.71C114.298 50.8937 113.751 51.0242 113.191 51.1015C112.64 51.1788 112.103 51.2175 111.581 51.2175C110.547 51.2175 109.585 51.0483 108.696 50.71C107.806 50.362 107.033 49.8545 106.376 49.1875C105.718 48.5108 105.201 47.6795 104.824 46.6935C104.447 45.6978 104.259 44.5475 104.259 43.2425C104.259 42.2275 104.423 41.2753 104.752 40.386C105.08 39.487 105.549 38.7088 106.158 38.0515C106.777 37.3845 107.526 36.8577 108.406 36.471C109.295 36.0843 110.296 35.891 111.407 35.891C112.345 35.891 113.21 36.0408 114.003 36.3405C114.795 36.6402 115.477 37.08 116.047 37.66C116.618 38.2303 117.062 38.936 117.381 39.777C117.71 40.6083 117.874 41.5605 117.874 42.6335C117.874 43.1748 117.816 43.5422 117.7 43.7355C117.584 43.9192 117.362 44.011 117.033 44.011H107.826ZM125.999 43.199C126.444 43.199 126.831 43.141 127.159 43.025C127.488 42.8993 127.759 42.7302 127.971 42.5175C128.194 42.3048 128.358 42.0487 128.464 41.749C128.58 41.4493 128.638 41.1207 128.638 40.763C128.638 40.0283 128.416 39.4483 127.971 39.023C127.536 38.588 126.879 38.3705 125.999 38.3705C125.12 38.3705 124.458 38.588 124.013 39.023C123.578 39.4483 123.36 40.0283 123.36 40.763C123.36 41.111 123.414 41.4348 123.52 41.7345C123.636 42.0342 123.8 42.2952 124.013 42.5175C124.235 42.7302 124.511 42.8993 124.839 43.025C125.178 43.141 125.564 43.199 125.999 43.199ZM130.045 51.667C130.045 51.377 129.958 51.1402 129.784 50.9565C129.61 50.7728 129.373 50.6327 129.073 50.536C128.774 50.4297 128.421 50.3523 128.015 50.304C127.619 50.2557 127.193 50.2218 126.739 50.2025C126.294 50.1735 125.83 50.1493 125.347 50.13C124.873 50.1107 124.409 50.072 123.955 50.014C123.559 50.2363 123.235 50.4973 122.983 50.797C122.742 51.0967 122.621 51.4447 122.621 51.841C122.621 52.102 122.684 52.3437 122.809 52.566C122.945 52.798 123.153 52.9962 123.433 53.1605C123.723 53.3248 124.095 53.4505 124.549 53.5375C125.004 53.6342 125.56 53.6825 126.217 53.6825C126.884 53.6825 127.459 53.6293 127.942 53.523C128.426 53.4263 128.822 53.2862 129.131 53.1025C129.45 52.9285 129.682 52.7158 129.827 52.4645C129.972 52.2228 130.045 51.957 130.045 51.667ZM133.612 36.6305V37.9645C133.612 38.3898 133.356 38.6508 132.843 38.7475L131.509 38.994C131.712 39.5063 131.814 40.067 131.814 40.676C131.814 41.4107 131.664 42.0777 131.364 42.677C131.074 43.2667 130.668 43.7693 130.146 44.185C129.624 44.6007 129.006 44.9245 128.29 45.1565C127.585 45.3788 126.821 45.49 125.999 45.49C125.709 45.49 125.429 45.4755 125.158 45.4465C124.888 45.4175 124.622 45.3788 124.361 45.3305C123.897 45.6108 123.665 45.925 123.665 46.273C123.665 46.5727 123.8 46.795 124.071 46.94C124.351 47.0753 124.719 47.172 125.173 47.23C125.627 47.288 126.144 47.3267 126.724 47.346C127.304 47.3557 127.899 47.3847 128.508 47.433C129.117 47.4813 129.711 47.5683 130.291 47.694C130.871 47.81 131.389 47.9985 131.843 48.2595C132.297 48.5205 132.66 48.8782 132.93 49.3325C133.211 49.7772 133.351 50.3523 133.351 51.058C133.351 51.7153 133.187 52.3533 132.858 52.972C132.539 53.5907 132.07 54.1417 131.451 54.625C130.842 55.1083 130.088 55.495 129.189 55.785C128.3 56.0847 127.285 56.2345 126.144 56.2345C125.023 56.2345 124.047 56.1233 123.215 55.901C122.384 55.6883 121.693 55.3983 121.142 55.031C120.591 54.6733 120.18 54.2577 119.909 53.784C119.639 53.3103 119.503 52.8173 119.503 52.305C119.503 51.609 119.711 51.029 120.127 50.565C120.552 50.0913 121.132 49.7143 121.867 49.434C121.471 49.231 121.156 48.9603 120.924 48.622C120.692 48.2837 120.576 47.839 120.576 47.288C120.576 47.0657 120.615 46.8385 120.692 46.6065C120.779 46.3648 120.9 46.128 121.055 45.896C121.219 45.664 121.422 45.4465 121.664 45.2435C121.906 45.0308 122.191 44.8423 122.519 44.678C121.765 44.272 121.171 43.7307 120.736 43.054C120.311 42.3773 120.098 41.5847 120.098 40.676C120.098 39.9413 120.243 39.2792 120.533 38.6895C120.833 38.0902 121.243 37.5827 121.765 37.167C122.297 36.7417 122.921 36.4178 123.636 36.1955C124.361 35.9732 125.149 35.862 125.999 35.862C126.637 35.862 127.237 35.9297 127.797 36.065C128.358 36.1907 128.87 36.3792 129.334 36.6305H133.612ZM145.213 41.8505C145.213 41.3865 145.145 40.9515 145.01 40.5455C144.884 40.1298 144.691 39.7673 144.43 39.458C144.169 39.1487 143.835 38.907 143.429 38.733C143.033 38.5493 142.569 38.4575 142.037 38.4575C141.003 38.4575 140.186 38.7523 139.587 39.342C138.997 39.9317 138.62 40.7678 138.456 41.8505H145.213ZM138.383 44.011C138.441 44.7747 138.577 45.4368 138.789 45.9975C139.002 46.5485 139.282 47.0077 139.63 47.375C139.978 47.7327 140.389 48.0033 140.863 48.187C141.346 48.361 141.878 48.448 142.458 48.448C143.038 48.448 143.536 48.3803 143.951 48.245C144.377 48.1097 144.744 47.9598 145.053 47.7955C145.372 47.6312 145.648 47.4813 145.88 47.346C146.122 47.2107 146.354 47.143 146.576 47.143C146.876 47.143 147.098 47.2542 147.243 47.4765L148.272 48.7815C147.876 49.2455 147.431 49.637 146.938 49.956C146.445 50.2653 145.928 50.5167 145.387 50.71C144.855 50.8937 144.309 51.0242 143.748 51.1015C143.197 51.1788 142.661 51.2175 142.139 51.2175C141.105 51.2175 140.143 51.0483 139.253 50.71C138.364 50.362 137.591 49.8545 136.933 49.1875C136.276 48.5108 135.759 47.6795 135.382 46.6935C135.005 45.6978 134.816 44.5475 134.816 43.2425C134.816 42.2275 134.981 41.2753 135.309 40.386C135.638 39.487 136.107 38.7088 136.716 38.0515C137.335 37.3845 138.084 36.8577 138.963 36.471C139.853 36.0843 140.853 35.891 141.965 35.891C142.903 35.891 143.768 36.0408 144.56 36.3405C145.353 36.6402 146.035 37.08 146.605 37.66C147.175 38.2303 147.62 38.936 147.939 39.777C148.268 40.6083 148.432 41.5605 148.432 42.6335C148.432 43.1748 148.374 43.5422 148.258 43.7355C148.142 43.9192 147.92 44.011 147.591 44.011H138.383ZM154.469 37.95C154.769 37.6503 155.083 37.3748 155.412 37.1235C155.75 36.8625 156.103 36.645 156.47 36.471C156.847 36.2873 157.248 36.1472 157.674 36.0505C158.099 35.9442 158.563 35.891 159.066 35.891C159.878 35.891 160.598 36.0312 161.226 36.3115C161.854 36.5822 162.376 36.9688 162.792 37.4715C163.217 37.9645 163.536 38.559 163.749 39.255C163.971 39.9413 164.083 40.7002 164.083 41.5315V51H160.501V41.5315C160.501 40.6228 160.293 39.922 159.878 39.429C159.462 38.9263 158.829 38.675 157.978 38.675C157.359 38.675 156.779 38.8152 156.238 39.0955C155.697 39.3758 155.184 39.7577 154.701 40.241V51H151.12V36.123H153.309C153.773 36.123 154.078 36.3405 154.223 36.7755L154.469 37.95ZM176.827 39.922C176.421 39.429 175.976 39.081 175.493 38.878C175.019 38.675 174.507 38.5735 173.956 38.5735C173.414 38.5735 172.926 38.675 172.491 38.878C172.056 39.081 171.684 39.3903 171.375 39.806C171.065 40.212 170.829 40.734 170.664 41.372C170.5 42.0003 170.418 42.7447 170.418 43.605C170.418 44.475 170.485 45.2145 170.621 45.8235C170.766 46.4228 170.969 46.9158 171.23 47.3025C171.491 47.6795 171.81 47.955 172.187 48.129C172.564 48.2933 172.984 48.3755 173.448 48.3755C174.193 48.3755 174.826 48.2208 175.348 47.9115C175.87 47.6022 176.363 47.1623 176.827 46.592V39.922ZM180.408 29.453V51H178.219C177.745 51 177.445 50.7825 177.32 50.3475L177.015 48.912C176.416 49.5983 175.725 50.1542 174.942 50.5795C174.168 51.0048 173.265 51.2175 172.23 51.2175C171.418 51.2175 170.674 51.0483 169.997 50.71C169.321 50.3717 168.736 49.8835 168.243 49.2455C167.759 48.5978 167.382 47.8003 167.112 46.853C166.851 45.9057 166.72 44.823 166.72 43.605C166.72 42.503 166.87 41.4783 167.17 40.531C167.469 39.5837 167.9 38.762 168.46 38.066C169.021 37.37 169.693 36.8287 170.476 36.442C171.259 36.0457 172.138 35.8475 173.115 35.8475C173.946 35.8475 174.657 35.978 175.246 36.239C175.836 36.5 176.363 36.8528 176.827 37.2975V29.453H180.408Z" fill="#333333"/>
<path d="M101.86 88H100.06V81.34H92.74V88H90.94V73.72H92.74V79.76H100.06V73.72H101.86V88ZM106.424 73.26C106.691 73.26 106.924 73.3533 107.124 73.54C107.338 73.7133 107.444 73.9933 107.444 74.38C107.444 74.7533 107.338 75.0333 107.124 75.22C106.924 75.4067 106.691 75.5 106.424 75.5C106.131 75.5 105.884 75.4067 105.684 75.22C105.484 75.0333 105.384 74.7533 105.384 74.38C105.384 73.9933 105.484 73.7133 105.684 73.54C105.884 73.3533 106.131 73.26 106.424 73.26ZM107.284 77.28V88H105.524V77.28H107.284ZM115.84 77.08C117.12 77.08 118.087 77.3933 118.74 78.02C119.394 78.6333 119.72 79.6333 119.72 81.02V88H117.98V81.14C117.98 79.42 117.18 78.56 115.58 78.56C114.394 78.56 113.574 78.8933 113.12 79.56C112.667 80.2267 112.44 81.1867 112.44 82.44V88H110.68V77.28H112.1L112.36 78.74H112.46C112.807 78.18 113.287 77.7667 113.9 77.5C114.514 77.22 115.16 77.08 115.84 77.08ZM126.624 86.76C126.89 86.76 127.164 86.74 127.444 86.7C127.724 86.6467 127.95 86.5933 128.124 86.54V87.88C127.937 87.9733 127.67 88.0467 127.324 88.1C126.977 88.1667 126.644 88.2 126.324 88.2C125.764 88.2 125.244 88.1067 124.764 87.92C124.297 87.72 123.917 87.38 123.624 86.9C123.33 86.42 123.184 85.7467 123.184 84.88V78.64H121.664V77.8L123.204 77.1L123.904 74.82H124.944V77.28H128.044V78.64H124.944V84.84C124.944 85.4933 125.097 85.98 125.404 86.3C125.724 86.6067 126.13 86.76 126.624 86.76ZM139.046 86.76C139.312 86.76 139.586 86.74 139.866 86.7C140.146 86.6467 140.372 86.5933 140.546 86.54V87.88C140.359 87.9733 140.092 88.0467 139.746 88.1C139.399 88.1667 139.066 88.2 138.746 88.2C138.186 88.2 137.666 88.1067 137.186 87.92C136.719 87.72 136.339 87.38 136.046 86.9C135.752 86.42 135.606 85.7467 135.606 84.88V78.64H134.086V77.8L135.626 77.1L136.326 74.82H137.366V77.28H140.466V78.64H137.366V84.84C137.366 85.4933 137.519 85.98 137.826 86.3C138.146 86.6067 138.552 86.76 139.046 86.76ZM146.832 77.08C147.752 77.08 148.539 77.28 149.192 77.68C149.859 78.08 150.366 78.6467 150.712 79.38C151.072 80.1 151.252 80.9467 151.252 81.92V82.98H143.912C143.939 84.1933 144.246 85.12 144.832 85.76C145.432 86.3867 146.266 86.7 147.332 86.7C148.012 86.7 148.612 86.64 149.132 86.52C149.666 86.3867 150.212 86.2 150.772 85.96V87.5C150.226 87.74 149.686 87.9133 149.152 88.02C148.619 88.14 147.986 88.2 147.252 88.2C146.239 88.2 145.339 87.9933 144.552 87.58C143.779 87.1667 143.172 86.5533 142.732 85.74C142.306 84.9133 142.092 83.9067 142.092 82.72C142.092 81.5467 142.286 80.54 142.672 79.7C143.072 78.86 143.626 78.2133 144.332 77.76C145.052 77.3067 145.886 77.08 146.832 77.08ZM146.812 78.52C145.972 78.52 145.306 78.7933 144.812 79.34C144.332 79.8733 144.046 80.62 143.952 81.58H149.412C149.399 80.6733 149.186 79.94 148.772 79.38C148.359 78.8067 147.706 78.52 146.812 78.52ZM156.131 82.52L152.431 77.28H154.431L157.191 81.32L159.931 77.28H161.911L158.211 82.52L162.111 88H160.111L157.191 83.72L154.231 88H152.251L156.131 82.52ZM167.757 86.76C168.023 86.76 168.297 86.74 168.577 86.7C168.857 86.6467 169.083 86.5933 169.257 86.54V87.88C169.07 87.9733 168.803 88.0467 168.457 88.1C168.11 88.1667 167.777 88.2 167.457 88.2C166.897 88.2 166.377 88.1067 165.897 87.92C165.43 87.72 165.05 87.38 164.757 86.9C164.463 86.42 164.317 85.7467 164.317 84.88V78.64H162.797V77.8L164.337 77.1L165.037 74.82H166.077V77.28H169.177V78.64H166.077V84.84C166.077 85.4933 166.23 85.98 166.537 86.3C166.857 86.6067 167.263 86.76 167.757 86.76Z" fill="#595959"/>
<g clip-path="url(#clip1_57654_5680)">
<path d="M90.8 140V125.72H93.82V137.5H99.62V140H90.8ZM106.349 128.86C107.815 128.86 108.935 129.18 109.709 129.82C110.495 130.447 110.889 131.413 110.889 132.72V140H108.809L108.229 138.52H108.149C107.682 139.107 107.189 139.533 106.669 139.8C106.149 140.067 105.435 140.2 104.529 140.2C103.555 140.2 102.749 139.92 102.109 139.36C101.469 138.787 101.149 137.913 101.149 136.74C101.149 135.58 101.555 134.727 102.369 134.18C103.182 133.62 104.402 133.313 106.029 133.26L107.929 133.2V132.72C107.929 132.147 107.775 131.727 107.469 131.46C107.175 131.193 106.762 131.06 106.229 131.06C105.695 131.06 105.175 131.14 104.669 131.3C104.162 131.447 103.655 131.633 103.149 131.86L102.169 129.84C102.755 129.533 103.402 129.293 104.109 129.12C104.829 128.947 105.575 128.86 106.349 128.86ZM106.769 134.98C105.809 135.007 105.142 135.18 104.769 135.5C104.395 135.82 104.209 136.24 104.209 136.76C104.209 137.213 104.342 137.54 104.609 137.74C104.875 137.927 105.222 138.02 105.649 138.02C106.289 138.02 106.829 137.833 107.269 137.46C107.709 137.073 107.929 136.533 107.929 135.84V134.94L106.769 134.98ZM116.919 128.34C116.919 128.753 116.906 129.16 116.879 129.56C116.852 129.96 116.826 130.273 116.799 130.5H116.919C117.212 130.047 117.606 129.667 118.099 129.36C118.592 129.04 119.232 128.88 120.019 128.88C121.246 128.88 122.239 129.36 122.999 130.32C123.759 131.267 124.139 132.667 124.139 134.52C124.139 136.387 123.752 137.8 122.979 138.76C122.206 139.72 121.192 140.2 119.939 140.2C119.139 140.2 118.506 140.06 118.039 139.78C117.586 139.487 117.212 139.16 116.919 138.8H116.719L116.219 140H113.939V124.8H116.919V128.34ZM119.059 131.26C118.286 131.26 117.739 131.5 117.419 131.98C117.112 132.46 116.946 133.193 116.919 134.18V134.5C116.919 135.553 117.072 136.367 117.379 136.94C117.699 137.5 118.272 137.78 119.099 137.78C119.712 137.78 120.199 137.5 120.559 136.94C120.919 136.367 121.099 135.547 121.099 134.48C121.099 133.413 120.912 132.613 120.539 132.08C120.179 131.533 119.686 131.26 119.059 131.26ZM131.095 128.88C132.602 128.88 133.795 129.313 134.675 130.18C135.555 131.033 135.995 132.253 135.995 133.84V135.28H128.955C128.982 136.12 129.228 136.78 129.695 137.26C130.175 137.74 130.835 137.98 131.675 137.98C132.382 137.98 133.022 137.913 133.595 137.78C134.168 137.633 134.762 137.413 135.375 137.12V139.42C134.842 139.687 134.275 139.88 133.675 140C133.088 140.133 132.375 140.2 131.535 140.2C130.442 140.2 129.475 140 128.635 139.6C127.795 139.187 127.135 138.567 126.655 137.74C126.175 136.913 125.935 135.873 125.935 134.62C125.935 133.34 126.148 132.28 126.575 131.44C127.015 130.587 127.622 129.947 128.395 129.52C129.168 129.093 130.068 128.88 131.095 128.88ZM131.115 131C130.542 131 130.062 131.187 129.675 131.56C129.302 131.933 129.082 132.513 129.015 133.3H133.195C133.182 132.633 133.008 132.087 132.675 131.66C132.342 131.22 131.822 131 131.115 131ZM141.392 140H138.412V124.8H141.392V140Z" fill="#333333"/>
<path d="M149.8 134.52C149.8 132.893 150.033 131.327 150.5 129.82C150.98 128.3 151.727 126.933 152.74 125.72H154.4C153.467 126.973 152.76 128.353 152.28 129.86C151.813 131.367 151.58 132.913 151.58 134.5C151.58 136.047 151.813 137.567 152.28 139.06C152.76 140.54 153.46 141.907 154.38 143.16H152.74C151.727 141.987 150.98 140.66 150.5 139.18C150.033 137.687 149.8 136.133 149.8 134.52ZM161.696 129.08C161.896 129.08 162.109 129.093 162.336 129.12C162.576 129.133 162.783 129.16 162.956 129.2L162.736 130.82C162.563 130.78 162.369 130.747 162.156 130.72C161.956 130.693 161.763 130.68 161.576 130.68C161.029 130.68 160.516 130.833 160.036 131.14C159.556 131.433 159.169 131.853 158.876 132.4C158.596 132.933 158.456 133.56 158.456 134.28V140H156.696V129.28H158.136L158.336 131.24H158.416C158.763 130.653 159.209 130.147 159.756 129.72C160.303 129.293 160.949 129.08 161.696 129.08ZM168.707 129.08C169.627 129.08 170.414 129.28 171.067 129.68C171.734 130.08 172.241 130.647 172.587 131.38C172.947 132.1 173.127 132.947 173.127 133.92V134.98H165.787C165.814 136.193 166.121 137.12 166.707 137.76C167.307 138.387 168.141 138.7 169.207 138.7C169.887 138.7 170.487 138.64 171.007 138.52C171.541 138.387 172.087 138.2 172.647 137.96V139.5C172.101 139.74 171.561 139.913 171.027 140.02C170.494 140.14 169.861 140.2 169.127 140.2C168.114 140.2 167.214 139.993 166.427 139.58C165.654 139.167 165.047 138.553 164.607 137.74C164.181 136.913 163.967 135.907 163.967 134.72C163.967 133.547 164.161 132.54 164.547 131.7C164.947 130.86 165.501 130.213 166.207 129.76C166.927 129.307 167.761 129.08 168.707 129.08ZM168.687 130.52C167.847 130.52 167.181 130.793 166.687 131.34C166.207 131.873 165.921 132.62 165.827 133.58H171.287C171.274 132.673 171.061 131.94 170.647 131.38C170.234 130.807 169.581 130.52 168.687 130.52ZM182.996 140.22C182.996 139.98 183.003 139.7 183.016 139.38C183.03 139.06 183.056 138.787 183.096 138.56H182.976C182.67 139.013 182.243 139.4 181.696 139.72C181.163 140.04 180.47 140.2 179.616 140.2C178.323 140.2 177.27 139.74 176.456 138.82C175.656 137.887 175.256 136.5 175.256 134.66C175.256 132.82 175.663 131.433 176.476 130.5C177.303 129.553 178.37 129.08 179.676 129.08C180.516 129.08 181.203 129.24 181.736 129.56C182.27 129.88 182.696 130.273 183.016 130.74H183.096L183.356 129.28H184.756V144.8H182.996V140.22ZM179.956 138.74C181.063 138.74 181.843 138.44 182.296 137.84C182.763 137.227 183.003 136.293 183.016 135.04V134.68C183.016 133.32 182.79 132.293 182.336 131.6C181.883 130.893 181.076 130.54 179.916 130.54C178.956 130.54 178.243 130.92 177.776 131.68C177.31 132.427 177.076 133.433 177.076 134.7C177.076 135.967 177.31 136.96 177.776 137.68C178.256 138.387 178.983 138.74 179.956 138.74ZM197.121 129.28V140H195.681L195.421 138.58H195.341C194.994 139.14 194.514 139.553 193.901 139.82C193.288 140.073 192.634 140.2 191.941 140.2C190.648 140.2 189.674 139.893 189.021 139.28C188.368 138.653 188.041 137.66 188.041 136.3V129.28H189.821V136.18C189.821 137.887 190.614 138.74 192.201 138.74C193.388 138.74 194.208 138.407 194.661 137.74C195.128 137.073 195.361 136.113 195.361 134.86V129.28H197.121ZM201.424 125.26C201.691 125.26 201.924 125.353 202.124 125.54C202.338 125.713 202.444 125.993 202.444 126.38C202.444 126.753 202.338 127.033 202.124 127.22C201.924 127.407 201.691 127.5 201.424 127.5C201.131 127.5 200.884 127.407 200.684 127.22C200.484 127.033 200.384 126.753 200.384 126.38C200.384 125.993 200.484 125.713 200.684 125.54C200.884 125.353 201.131 125.26 201.424 125.26ZM202.284 129.28V140H200.524V129.28H202.284ZM210.68 129.08C210.88 129.08 211.094 129.093 211.32 129.12C211.56 129.133 211.767 129.16 211.94 129.2L211.72 130.82C211.547 130.78 211.354 130.747 211.14 130.72C210.94 130.693 210.747 130.68 210.56 130.68C210.014 130.68 209.5 130.833 209.02 131.14C208.54 131.433 208.154 131.853 207.86 132.4C207.58 132.933 207.44 133.56 207.44 134.28V140H205.68V129.28H207.12L207.32 131.24H207.4C207.747 130.653 208.194 130.147 208.74 129.72C209.287 129.293 209.934 129.08 210.68 129.08ZM217.692 129.08C218.612 129.08 219.398 129.28 220.052 129.68C220.718 130.08 221.225 130.647 221.572 131.38C221.932 132.1 222.112 132.947 222.112 133.92V134.98H214.772C214.798 136.193 215.105 137.12 215.692 137.76C216.292 138.387 217.125 138.7 218.192 138.7C218.872 138.7 219.472 138.64 219.992 138.52C220.525 138.387 221.072 138.2 221.632 137.96V139.5C221.085 139.74 220.545 139.913 220.012 140.02C219.478 140.14 218.845 140.2 218.112 140.2C217.098 140.2 216.198 139.993 215.412 139.58C214.638 139.167 214.032 138.553 213.592 137.74C213.165 136.913 212.952 135.907 212.952 134.72C212.952 133.547 213.145 132.54 213.532 131.7C213.932 130.86 214.485 130.213 215.192 129.76C215.912 129.307 216.745 129.08 217.692 129.08ZM217.672 130.52C216.832 130.52 216.165 130.793 215.672 131.34C215.192 131.873 214.905 132.62 214.812 133.58H220.272C220.258 132.673 220.045 131.94 219.632 131.38C219.218 130.807 218.565 130.52 217.672 130.52ZM228.641 140.2C227.307 140.2 226.241 139.74 225.441 138.82C224.641 137.887 224.241 136.5 224.241 134.66C224.241 132.82 224.641 131.433 225.441 130.5C226.254 129.553 227.327 129.08 228.661 129.08C229.487 129.08 230.161 129.233 230.681 129.54C231.214 129.847 231.647 130.22 231.981 130.66H232.101C232.087 130.487 232.061 130.233 232.021 129.9C231.994 129.553 231.981 129.28 231.981 129.08V124.8H233.741V140H232.321L232.061 138.56H231.981C231.661 139.013 231.234 139.4 230.701 139.72C230.167 140.04 229.481 140.2 228.641 140.2ZM228.921 138.74C230.054 138.74 230.847 138.433 231.301 137.82C231.767 137.193 232.001 136.253 232.001 135V134.68C232.001 133.347 231.781 132.327 231.341 131.62C230.901 130.9 230.087 130.54 228.901 130.54C227.954 130.54 227.241 130.92 226.761 131.68C226.294 132.427 226.061 133.433 226.061 134.7C226.061 135.98 226.294 136.973 226.761 137.68C227.241 138.387 227.961 138.74 228.921 138.74ZM240.645 134.52C240.645 136.133 240.405 137.687 239.925 139.18C239.459 140.66 238.719 141.987 237.705 143.16H236.065C236.985 141.907 237.679 140.54 238.145 139.06C238.625 137.567 238.865 136.047 238.865 134.5C238.865 132.913 238.625 131.367 238.145 129.86C237.679 128.353 236.979 126.973 236.045 125.72H237.705C238.719 126.933 239.459 128.3 239.925 129.82C240.405 131.327 240.645 132.893 240.645 134.52Z" fill="#333333"/>
</g>
<path d="M101.86 174H100.06V167.34H92.74V174H90.94V159.72H92.74V165.76H100.06V159.72H101.86V174ZM106.424 159.26C106.691 159.26 106.924 159.353 107.124 159.54C107.338 159.713 107.444 159.993 107.444 160.38C107.444 160.753 107.338 161.033 107.124 161.22C106.924 161.407 106.691 161.5 106.424 161.5C106.131 161.5 105.884 161.407 105.684 161.22C105.484 161.033 105.384 160.753 105.384 160.38C105.384 159.993 105.484 159.713 105.684 159.54C105.884 159.353 106.131 159.26 106.424 159.26ZM107.284 163.28V174H105.524V163.28H107.284ZM115.84 163.08C117.12 163.08 118.087 163.393 118.74 164.02C119.394 164.633 119.72 165.633 119.72 167.02V174H117.98V167.14C117.98 165.42 117.18 164.56 115.58 164.56C114.394 164.56 113.574 164.893 113.12 165.56C112.667 166.227 112.44 167.187 112.44 168.44V174H110.68V163.28H112.1L112.36 164.74H112.46C112.807 164.18 113.287 163.767 113.9 163.5C114.514 163.22 115.16 163.08 115.84 163.08ZM126.624 172.76C126.89 172.76 127.164 172.74 127.444 172.7C127.724 172.647 127.95 172.593 128.124 172.54V173.88C127.937 173.973 127.67 174.047 127.324 174.1C126.977 174.167 126.644 174.2 126.324 174.2C125.764 174.2 125.244 174.107 124.764 173.92C124.297 173.72 123.917 173.38 123.624 172.9C123.33 172.42 123.184 171.747 123.184 170.88V164.64H121.664V163.8L123.204 163.1L123.904 160.82H124.944V163.28H128.044V164.64H124.944V170.84C124.944 171.493 125.097 171.98 125.404 172.3C125.724 172.607 126.13 172.76 126.624 172.76ZM141.006 159.72L135.686 174H133.966L139.286 159.72H141.006ZM156.322 174H148.342V159.72H156.322V161.3H150.142V165.76H155.962V167.32H150.142V172.42H156.322V174ZM161.756 168.52L158.056 163.28H160.056L162.816 167.32L165.556 163.28H167.536L163.836 168.52L167.736 174H165.736L162.816 169.72L159.856 174H157.876L161.756 168.52ZM173.862 163.1C175.168 163.1 176.135 163.387 176.762 163.96C177.388 164.533 177.702 165.447 177.702 166.7V174H176.422L176.082 172.48H176.002C175.535 173.067 175.042 173.5 174.522 173.78C174.015 174.06 173.308 174.2 172.402 174.2C171.428 174.2 170.622 173.947 169.982 173.44C169.342 172.92 169.022 172.113 169.022 171.02C169.022 169.953 169.442 169.133 170.282 168.56C171.122 167.973 172.415 167.653 174.162 167.6L175.982 167.54V166.9C175.982 166.007 175.788 165.387 175.402 165.04C175.015 164.693 174.468 164.52 173.762 164.52C173.202 164.52 172.668 164.607 172.162 164.78C171.655 164.94 171.182 165.127 170.742 165.34L170.202 164.02C170.668 163.767 171.222 163.553 171.862 163.38C172.502 163.193 173.168 163.1 173.862 163.1ZM174.382 168.82C173.048 168.873 172.122 169.087 171.602 169.46C171.095 169.833 170.842 170.36 170.842 171.04C170.842 171.64 171.022 172.08 171.382 172.36C171.755 172.64 172.228 172.78 172.802 172.78C173.708 172.78 174.462 172.533 175.062 172.04C175.662 171.533 175.962 170.76 175.962 169.72V168.76L174.382 168.82ZM192.773 163.08C193.986 163.08 194.893 163.393 195.493 164.02C196.093 164.633 196.393 165.633 196.393 167.02V174H194.653V167.1C194.653 165.407 193.926 164.56 192.473 164.56C191.433 164.56 190.686 164.86 190.233 165.46C189.793 166.06 189.573 166.933 189.573 168.08V174H187.833V167.1C187.833 165.407 187.099 164.56 185.633 164.56C184.553 164.56 183.806 164.893 183.393 165.56C182.979 166.227 182.773 167.187 182.773 168.44V174H181.013V163.28H182.433L182.693 164.74H182.793C183.126 164.18 183.573 163.767 184.133 163.5C184.706 163.22 185.313 163.08 185.953 163.08C187.633 163.08 188.726 163.68 189.233 164.88H189.333C189.693 164.267 190.179 163.813 190.793 163.52C191.419 163.227 192.079 163.08 192.773 163.08ZM204.804 163.08C206.124 163.08 207.184 163.54 207.984 164.46C208.797 165.38 209.204 166.767 209.204 168.62C209.204 170.447 208.797 171.833 207.984 172.78C207.184 173.727 206.117 174.2 204.784 174.2C203.957 174.2 203.271 174.047 202.724 173.74C202.191 173.42 201.771 173.053 201.464 172.64H201.344C201.371 172.867 201.397 173.153 201.424 173.5C201.451 173.847 201.464 174.147 201.464 174.4V178.8H199.704V163.28H201.144L201.384 164.74H201.464C201.784 164.273 202.204 163.88 202.724 163.56C203.244 163.24 203.937 163.08 204.804 163.08ZM204.484 164.56C203.391 164.56 202.617 164.867 202.164 165.48C201.724 166.093 201.491 167.027 201.464 168.28V168.62C201.464 169.94 201.677 170.96 202.104 171.68C202.544 172.387 203.351 172.74 204.524 172.74C205.177 172.74 205.711 172.56 206.124 172.2C206.551 171.84 206.864 171.353 207.064 170.74C207.277 170.113 207.384 169.4 207.384 168.6C207.384 167.373 207.144 166.393 206.664 165.66C206.197 164.927 205.471 164.56 204.484 164.56ZM213.769 174H212.009V158.8H213.769V174ZM221.305 163.08C222.225 163.08 223.012 163.28 223.665 163.68C224.332 164.08 224.838 164.647 225.185 165.38C225.545 166.1 225.725 166.947 225.725 167.92V168.98H218.385C218.412 170.193 218.718 171.12 219.305 171.76C219.905 172.387 220.738 172.7 221.805 172.7C222.485 172.7 223.085 172.64 223.605 172.52C224.138 172.387 224.685 172.2 225.245 171.96V173.5C224.698 173.74 224.158 173.913 223.625 174.02C223.092 174.14 222.458 174.2 221.725 174.2C220.712 174.2 219.812 173.993 219.025 173.58C218.252 173.167 217.645 172.553 217.205 171.74C216.778 170.913 216.565 169.907 216.565 168.72C216.565 167.547 216.758 166.54 217.145 165.7C217.545 164.86 218.098 164.213 218.805 163.76C219.525 163.307 220.358 163.08 221.305 163.08ZM221.285 164.52C220.445 164.52 219.778 164.793 219.285 165.34C218.805 165.873 218.518 166.62 218.425 167.58H223.885C223.872 166.673 223.658 165.94 223.245 165.38C222.832 164.807 222.178 164.52 221.285 164.52ZM245.409 163.08C246.623 163.08 247.529 163.393 248.129 164.02C248.729 164.633 249.029 165.633 249.029 167.02V174H247.289V167.1C247.289 165.407 246.563 164.56 245.109 164.56C244.069 164.56 243.323 164.86 242.869 165.46C242.429 166.06 242.209 166.933 242.209 168.08V174H240.469V167.1C240.469 165.407 239.736 164.56 238.269 164.56C237.189 164.56 236.443 164.893 236.029 165.56C235.616 166.227 235.409 167.187 235.409 168.44V174H233.649V163.28H235.069L235.329 164.74H235.429C235.763 164.18 236.209 163.767 236.769 163.5C237.343 163.22 237.949 163.08 238.589 163.08C240.269 163.08 241.363 163.68 241.869 164.88H241.969C242.329 164.267 242.816 163.813 243.429 163.52C244.056 163.227 244.716 163.08 245.409 163.08ZM256.481 163.08C257.401 163.08 258.187 163.28 258.841 163.68C259.507 164.08 260.014 164.647 260.361 165.38C260.721 166.1 260.901 166.947 260.901 167.92V168.98H253.561C253.587 170.193 253.894 171.12 254.481 171.76C255.081 172.387 255.914 172.7 256.981 172.7C257.661 172.7 258.261 172.64 258.781 172.52C259.314 172.387 259.861 172.2 260.421 171.96V173.5C259.874 173.74 259.334 173.913 258.801 174.02C258.267 174.14 257.634 174.2 256.901 174.2C255.887 174.2 254.987 173.993 254.201 173.58C253.427 173.167 252.821 172.553 252.381 171.74C251.954 170.913 251.741 169.907 251.741 168.72C251.741 167.547 251.934 166.54 252.321 165.7C252.721 164.86 253.274 164.213 253.981 163.76C254.701 163.307 255.534 163.08 256.481 163.08ZM256.461 164.52C255.621 164.52 254.954 164.793 254.461 165.34C253.981 165.873 253.694 166.62 253.601 167.58H259.061C259.047 166.673 258.834 165.94 258.421 165.38C258.007 164.807 257.354 164.52 256.461 164.52ZM270.61 171.04C270.61 172.08 270.223 172.867 269.45 173.4C268.676 173.933 267.636 174.2 266.33 174.2C265.583 174.2 264.936 174.14 264.39 174.02C263.856 173.9 263.383 173.733 262.97 173.52V171.92C263.396 172.133 263.91 172.333 264.51 172.52C265.123 172.693 265.743 172.78 266.37 172.78C267.263 172.78 267.91 172.64 268.31 172.36C268.71 172.067 268.91 171.68 268.91 171.2C268.91 170.933 268.836 170.693 268.69 170.48C268.543 170.267 268.276 170.053 267.89 169.84C267.516 169.627 266.976 169.387 266.27 169.12C265.576 168.853 264.983 168.587 264.49 168.32C263.996 168.053 263.616 167.733 263.35 167.36C263.083 166.987 262.95 166.507 262.95 165.92C262.95 165.013 263.316 164.313 264.05 163.82C264.796 163.327 265.77 163.08 266.97 163.08C267.623 163.08 268.23 163.147 268.79 163.28C269.363 163.4 269.896 163.573 270.39 163.8L269.79 165.2C269.336 165.013 268.863 164.853 268.37 164.72C267.876 164.587 267.37 164.52 266.85 164.52C266.13 164.52 265.576 164.64 265.19 164.88C264.816 165.107 264.63 165.42 264.63 165.82C264.63 166.113 264.716 166.367 264.89 166.58C265.063 166.78 265.35 166.98 265.75 167.18C266.163 167.367 266.71 167.593 267.39 167.86C268.07 168.113 268.65 168.373 269.13 168.64C269.61 168.907 269.976 169.233 270.23 169.62C270.483 169.993 270.61 170.467 270.61 171.04ZM280.18 171.04C280.18 172.08 279.793 172.867 279.02 173.4C278.247 173.933 277.207 174.2 275.9 174.2C275.153 174.2 274.507 174.14 273.96 174.02C273.427 173.9 272.953 173.733 272.54 173.52V171.92C272.967 172.133 273.48 172.333 274.08 172.52C274.693 172.693 275.313 172.78 275.94 172.78C276.833 172.78 277.48 172.64 277.88 172.36C278.28 172.067 278.48 171.68 278.48 171.2C278.48 170.933 278.407 170.693 278.26 170.48C278.113 170.267 277.847 170.053 277.46 169.84C277.087 169.627 276.547 169.387 275.84 169.12C275.147 168.853 274.553 168.587 274.06 168.32C273.567 168.053 273.187 167.733 272.92 167.36C272.653 166.987 272.52 166.507 272.52 165.92C272.52 165.013 272.887 164.313 273.62 163.82C274.367 163.327 275.34 163.08 276.54 163.08C277.193 163.08 277.8 163.147 278.36 163.28C278.933 163.4 279.467 163.573 279.96 163.8L279.36 165.2C278.907 165.013 278.433 164.853 277.94 164.72C277.447 164.587 276.94 164.52 276.42 164.52C275.7 164.52 275.147 164.64 274.76 164.88C274.387 165.107 274.2 165.42 274.2 165.82C274.2 166.113 274.287 166.367 274.46 166.58C274.633 166.78 274.92 166.98 275.32 167.18C275.733 167.367 276.28 167.593 276.96 167.86C277.64 168.113 278.22 168.373 278.7 168.64C279.18 168.907 279.547 169.233 279.8 169.62C280.053 169.993 280.18 170.467 280.18 171.04ZM286.83 163.1C288.137 163.1 289.104 163.387 289.73 163.96C290.357 164.533 290.67 165.447 290.67 166.7V174H289.39L289.05 172.48H288.97C288.504 173.067 288.01 173.5 287.49 173.78C286.984 174.06 286.277 174.2 285.37 174.2C284.397 174.2 283.59 173.947 282.95 173.44C282.31 172.92 281.99 172.113 281.99 171.02C281.99 169.953 282.41 169.133 283.25 168.56C284.09 167.973 285.384 167.653 287.13 167.6L288.95 167.54V166.9C288.95 166.007 288.757 165.387 288.37 165.04C287.984 164.693 287.437 164.52 286.73 164.52C286.17 164.52 285.637 164.607 285.13 164.78C284.624 164.94 284.15 165.127 283.71 165.34L283.17 164.02C283.637 163.767 284.19 163.553 284.83 163.38C285.47 163.193 286.137 163.1 286.83 163.1ZM287.35 168.82C286.017 168.873 285.09 169.087 284.57 169.46C284.064 169.833 283.81 170.36 283.81 171.04C283.81 171.64 283.99 172.08 284.35 172.36C284.724 172.64 285.197 172.78 285.77 172.78C286.677 172.78 287.43 172.533 288.03 172.04C288.63 171.533 288.93 170.76 288.93 169.72V168.76L287.35 168.82ZM297.781 163.08C298.488 163.08 299.121 163.213 299.681 163.48C300.255 163.747 300.741 164.153 301.141 164.7H301.241L301.481 163.28H302.881V174.18C302.881 175.713 302.488 176.867 301.701 177.64C300.928 178.413 299.721 178.8 298.081 178.8C296.508 178.8 295.221 178.573 294.221 178.12V176.5C295.275 177.06 296.595 177.34 298.181 177.34C299.101 177.34 299.821 177.067 300.341 176.52C300.875 175.987 301.141 175.253 301.141 174.32V173.9C301.141 173.74 301.148 173.513 301.161 173.22C301.175 172.913 301.188 172.7 301.201 172.58H301.121C300.401 173.66 299.295 174.2 297.801 174.2C296.415 174.2 295.328 173.713 294.541 172.74C293.768 171.767 293.381 170.407 293.381 168.66C293.381 166.953 293.768 165.6 294.541 164.6C295.328 163.587 296.408 163.08 297.781 163.08ZM298.021 164.56C297.128 164.56 296.435 164.92 295.941 165.64C295.448 166.347 295.201 167.36 295.201 168.68C295.201 170 295.441 171.013 295.921 171.72C296.415 172.413 297.128 172.76 298.061 172.76C299.141 172.76 299.928 172.473 300.421 171.9C300.915 171.313 301.161 170.373 301.161 169.08V168.66C301.161 167.193 300.908 166.147 300.401 165.52C299.895 164.88 299.101 164.56 298.021 164.56ZM310.426 163.08C311.346 163.08 312.133 163.28 312.786 163.68C313.453 164.08 313.959 164.647 314.306 165.38C314.666 166.1 314.846 166.947 314.846 167.92V168.98H307.506C307.533 170.193 307.839 171.12 308.426 171.76C309.026 172.387 309.859 172.7 310.926 172.7C311.606 172.7 312.206 172.64 312.726 172.52C313.259 172.387 313.806 172.2 314.366 171.96V173.5C313.819 173.74 313.279 173.913 312.746 174.02C312.213 174.14 311.579 174.2 310.846 174.2C309.833 174.2 308.933 173.993 308.146 173.58C307.373 173.167 306.766 172.553 306.326 171.74C305.899 170.913 305.686 169.907 305.686 168.72C305.686 167.547 305.879 166.54 306.266 165.7C306.666 164.86 307.219 164.213 307.926 163.76C308.646 163.307 309.479 163.08 310.426 163.08ZM310.406 164.52C309.566 164.52 308.899 164.793 308.406 165.34C307.926 165.873 307.639 166.62 307.546 167.58H313.006C312.993 166.673 312.779 165.94 312.366 165.38C311.953 164.807 311.299 164.52 310.406 164.52ZM317.315 172.92C317.315 172.427 317.435 172.08 317.675 171.88C317.915 171.68 318.202 171.58 318.535 171.58C318.882 171.58 319.175 171.68 319.415 171.88C319.668 172.08 319.795 172.427 319.795 172.92C319.795 173.4 319.668 173.747 319.415 173.96C319.175 174.173 318.882 174.28 318.535 174.28C318.202 174.28 317.915 174.173 317.675 173.96C317.435 173.747 317.315 173.4 317.315 172.92Z" fill="#43474E"/>
<rect x="90" y="195" width="45" height="46" rx="2" fill="white"/>
<rect x="90" y="195" width="45" height="46" rx="2" stroke="#333333" stroke-width="2"/>
<path d="M111.46 218.84C111.46 220.373 111.3 221.693 110.98 222.8C110.66 223.893 110.153 224.733 109.46 225.32C108.767 225.907 107.847 226.2 106.7 226.2C105.087 226.2 103.893 225.553 103.12 224.26C102.36 222.953 101.98 221.147 101.98 218.84C101.98 217.293 102.133 215.973 102.44 214.88C102.76 213.787 103.267 212.953 103.96 212.38C104.653 211.793 105.567 211.5 106.7 211.5C108.3 211.5 109.493 212.147 110.28 213.44C111.067 214.72 111.46 216.52 111.46 218.84ZM103.74 218.84C103.74 220.8 103.96 222.267 104.4 223.24C104.853 224.213 105.62 224.7 106.7 224.7C107.767 224.7 108.527 224.22 108.98 223.26C109.447 222.287 109.68 220.813 109.68 218.84C109.68 216.893 109.447 215.433 108.98 214.46C108.527 213.487 107.767 213 106.7 213C105.62 213 104.853 213.487 104.4 214.46C103.96 215.433 103.74 216.893 103.74 218.84ZM122.905 218.84C122.905 220.373 122.745 221.693 122.425 222.8C122.105 223.893 121.599 224.733 120.905 225.32C120.212 225.907 119.292 226.2 118.145 226.2C116.532 226.2 115.339 225.553 114.565 224.26C113.805 222.953 113.425 221.147 113.425 218.84C113.425 217.293 113.579 215.973 113.885 214.88C114.205 213.787 114.712 212.953 115.405 212.38C116.099 211.793 117.012 211.5 118.145 211.5C119.745 211.5 120.939 212.147 121.725 213.44C122.512 214.72 122.905 216.52 122.905 218.84ZM115.185 218.84C115.185 220.8 115.405 222.267 115.845 223.24C116.299 224.213 117.065 224.7 118.145 224.7C119.212 224.7 119.972 224.22 120.425 223.26C120.892 222.287 121.125 220.813 121.125 218.84C121.125 216.893 120.892 215.433 120.425 214.46C119.972 213.487 119.212 213 118.145 213C117.065 213 116.299 213.487 115.845 214.46C115.405 215.433 115.185 216.893 115.185 218.84Z" fill="#333333"/>
<g clip-path="url(#clip2_57654_5680)">
<path d="M90.8 286V271.72H93.82V283.5H99.62V286H90.8ZM106.349 274.86C107.815 274.86 108.935 275.18 109.709 275.82C110.495 276.447 110.889 277.413 110.889 278.72V286H108.809L108.229 284.52H108.149C107.682 285.107 107.189 285.533 106.669 285.8C106.149 286.067 105.435 286.2 104.529 286.2C103.555 286.2 102.749 285.92 102.109 285.36C101.469 284.787 101.149 283.913 101.149 282.74C101.149 281.58 101.555 280.727 102.369 280.18C103.182 279.62 104.402 279.313 106.029 279.26L107.929 279.2V278.72C107.929 278.147 107.775 277.727 107.469 277.46C107.175 277.193 106.762 277.06 106.229 277.06C105.695 277.06 105.175 277.14 104.669 277.3C104.162 277.447 103.655 277.633 103.149 277.86L102.169 275.84C102.755 275.533 103.402 275.293 104.109 275.12C104.829 274.947 105.575 274.86 106.349 274.86ZM106.769 280.98C105.809 281.007 105.142 281.18 104.769 281.5C104.395 281.82 104.209 282.24 104.209 282.76C104.209 283.213 104.342 283.54 104.609 283.74C104.875 283.927 105.222 284.02 105.649 284.02C106.289 284.02 106.829 283.833 107.269 283.46C107.709 283.073 107.929 282.533 107.929 281.84V280.94L106.769 280.98ZM116.919 274.34C116.919 274.753 116.906 275.16 116.879 275.56C116.852 275.96 116.826 276.273 116.799 276.5H116.919C117.212 276.047 117.606 275.667 118.099 275.36C118.592 275.04 119.232 274.88 120.019 274.88C121.246 274.88 122.239 275.36 122.999 276.32C123.759 277.267 124.139 278.667 124.139 280.52C124.139 282.387 123.752 283.8 122.979 284.76C122.206 285.72 121.192 286.2 119.939 286.2C119.139 286.2 118.506 286.06 118.039 285.78C117.586 285.487 117.212 285.16 116.919 284.8H116.719L116.219 286H113.939V270.8H116.919V274.34ZM119.059 277.26C118.286 277.26 117.739 277.5 117.419 277.98C117.112 278.46 116.946 279.193 116.919 280.18V280.5C116.919 281.553 117.072 282.367 117.379 282.94C117.699 283.5 118.272 283.78 119.099 283.78C119.712 283.78 120.199 283.5 120.559 282.94C120.919 282.367 121.099 281.547 121.099 280.48C121.099 279.413 120.912 278.613 120.539 278.08C120.179 277.533 119.686 277.26 119.059 277.26ZM131.095 274.88C132.602 274.88 133.795 275.313 134.675 276.18C135.555 277.033 135.995 278.253 135.995 279.84V281.28H128.955C128.982 282.12 129.228 282.78 129.695 283.26C130.175 283.74 130.835 283.98 131.675 283.98C132.382 283.98 133.022 283.913 133.595 283.78C134.168 283.633 134.762 283.413 135.375 283.12V285.42C134.842 285.687 134.275 285.88 133.675 286C133.088 286.133 132.375 286.2 131.535 286.2C130.442 286.2 129.475 286 128.635 285.6C127.795 285.187 127.135 284.567 126.655 283.74C126.175 282.913 125.935 281.873 125.935 280.62C125.935 279.34 126.148 278.28 126.575 277.44C127.015 276.587 127.622 275.947 128.395 275.52C129.168 275.093 130.068 274.88 131.095 274.88ZM131.115 277C130.542 277 130.062 277.187 129.675 277.56C129.302 277.933 129.082 278.513 129.015 279.3H133.195C133.182 278.633 133.008 278.087 132.675 277.66C132.342 277.22 131.822 277 131.115 277ZM141.392 286H138.412V270.8H141.392V286Z" fill="#333333"/>
<path d="M151.8 280.52C151.8 278.893 152.033 277.327 152.5 275.82C152.98 274.3 153.727 272.933 154.74 271.72H156.4C155.467 272.973 154.76 274.353 154.28 275.86C153.813 277.367 153.58 278.913 153.58 280.5C153.58 282.047 153.813 283.567 154.28 285.06C154.76 286.54 155.46 287.907 156.38 289.16H154.74C153.727 287.987 152.98 286.66 152.5 285.18C152.033 283.687 151.8 282.133 151.8 280.52ZM163.696 275.08C163.896 275.08 164.109 275.093 164.336 275.12C164.576 275.133 164.783 275.16 164.956 275.2L164.736 276.82C164.563 276.78 164.369 276.747 164.156 276.72C163.956 276.693 163.763 276.68 163.576 276.68C163.029 276.68 162.516 276.833 162.036 277.14C161.556 277.433 161.169 277.853 160.876 278.4C160.596 278.933 160.456 279.56 160.456 280.28V286H158.696V275.28H160.136L160.336 277.24H160.416C160.763 276.653 161.209 276.147 161.756 275.72C162.303 275.293 162.949 275.08 163.696 275.08ZM170.707 275.08C171.627 275.08 172.414 275.28 173.067 275.68C173.734 276.08 174.241 276.647 174.587 277.38C174.947 278.1 175.127 278.947 175.127 279.92V280.98H167.787C167.814 282.193 168.121 283.12 168.707 283.76C169.307 284.387 170.141 284.7 171.207 284.7C171.887 284.7 172.487 284.64 173.007 284.52C173.541 284.387 174.087 284.2 174.647 283.96V285.5C174.101 285.74 173.561 285.913 173.027 286.02C172.494 286.14 171.861 286.2 171.127 286.2C170.114 286.2 169.214 285.993 168.427 285.58C167.654 285.167 167.047 284.553 166.607 283.74C166.181 282.913 165.967 281.907 165.967 280.72C165.967 279.547 166.161 278.54 166.547 277.7C166.947 276.86 167.501 276.213 168.207 275.76C168.927 275.307 169.761 275.08 170.707 275.08ZM170.687 276.52C169.847 276.52 169.181 276.793 168.687 277.34C168.207 277.873 167.921 278.62 167.827 279.58H173.287C173.274 278.673 173.061 277.94 172.647 277.38C172.234 276.807 171.581 276.52 170.687 276.52ZM184.996 286.22C184.996 285.98 185.003 285.7 185.016 285.38C185.03 285.06 185.056 284.787 185.096 284.56H184.976C184.67 285.013 184.243 285.4 183.696 285.72C183.163 286.04 182.47 286.2 181.616 286.2C180.323 286.2 179.27 285.74 178.456 284.82C177.656 283.887 177.256 282.5 177.256 280.66C177.256 278.82 177.663 277.433 178.476 276.5C179.303 275.553 180.37 275.08 181.676 275.08C182.516 275.08 183.203 275.24 183.736 275.56C184.27 275.88 184.696 276.273 185.016 276.74H185.096L185.356 275.28H186.756V290.8H184.996V286.22ZM181.956 284.74C183.063 284.74 183.843 284.44 184.296 283.84C184.763 283.227 185.003 282.293 185.016 281.04V280.68C185.016 279.32 184.79 278.293 184.336 277.6C183.883 276.893 183.076 276.54 181.916 276.54C180.956 276.54 180.243 276.92 179.776 277.68C179.31 278.427 179.076 279.433 179.076 280.7C179.076 281.967 179.31 282.96 179.776 283.68C180.256 284.387 180.983 284.74 181.956 284.74ZM199.121 275.28V286H197.681L197.421 284.58H197.341C196.994 285.14 196.514 285.553 195.901 285.82C195.288 286.073 194.634 286.2 193.941 286.2C192.648 286.2 191.674 285.893 191.021 285.28C190.368 284.653 190.041 283.66 190.041 282.3V275.28H191.821V282.18C191.821 283.887 192.614 284.74 194.201 284.74C195.388 284.74 196.208 284.407 196.661 283.74C197.128 283.073 197.361 282.113 197.361 280.86V275.28H199.121ZM203.424 271.26C203.691 271.26 203.924 271.353 204.124 271.54C204.338 271.713 204.444 271.993 204.444 272.38C204.444 272.753 204.338 273.033 204.124 273.22C203.924 273.407 203.691 273.5 203.424 273.5C203.131 273.5 202.884 273.407 202.684 273.22C202.484 273.033 202.384 272.753 202.384 272.38C202.384 271.993 202.484 271.713 202.684 271.54C202.884 271.353 203.131 271.26 203.424 271.26ZM204.284 275.28V286H202.524V275.28H204.284ZM212.68 275.08C212.88 275.08 213.094 275.093 213.32 275.12C213.56 275.133 213.767 275.16 213.94 275.2L213.72 276.82C213.547 276.78 213.354 276.747 213.14 276.72C212.94 276.693 212.747 276.68 212.56 276.68C212.014 276.68 211.5 276.833 211.02 277.14C210.54 277.433 210.154 277.853 209.86 278.4C209.58 278.933 209.44 279.56 209.44 280.28V286H207.68V275.28H209.12L209.32 277.24H209.4C209.747 276.653 210.194 276.147 210.74 275.72C211.287 275.293 211.934 275.08 212.68 275.08ZM219.692 275.08C220.612 275.08 221.398 275.28 222.052 275.68C222.718 276.08 223.225 276.647 223.572 277.38C223.932 278.1 224.112 278.947 224.112 279.92V280.98H216.772C216.798 282.193 217.105 283.12 217.692 283.76C218.292 284.387 219.125 284.7 220.192 284.7C220.872 284.7 221.472 284.64 221.992 284.52C222.525 284.387 223.072 284.2 223.632 283.96V285.5C223.085 285.74 222.545 285.913 222.012 286.02C221.478 286.14 220.845 286.2 220.112 286.2C219.098 286.2 218.198 285.993 217.412 285.58C216.638 285.167 216.032 284.553 215.592 283.74C215.165 282.913 214.952 281.907 214.952 280.72C214.952 279.547 215.145 278.54 215.532 277.7C215.932 276.86 216.485 276.213 217.192 275.76C217.912 275.307 218.745 275.08 219.692 275.08ZM219.672 276.52C218.832 276.52 218.165 276.793 217.672 277.34C217.192 277.873 216.905 278.62 216.812 279.58H222.272C222.258 278.673 222.045 277.94 221.632 277.38C221.218 276.807 220.565 276.52 219.672 276.52ZM230.641 286.2C229.307 286.2 228.241 285.74 227.441 284.82C226.641 283.887 226.241 282.5 226.241 280.66C226.241 278.82 226.641 277.433 227.441 276.5C228.254 275.553 229.327 275.08 230.661 275.08C231.487 275.08 232.161 275.233 232.681 275.54C233.214 275.847 233.647 276.22 233.981 276.66H234.101C234.087 276.487 234.061 276.233 234.021 275.9C233.994 275.553 233.981 275.28 233.981 275.08V270.8H235.741V286H234.321L234.061 284.56H233.981C233.661 285.013 233.234 285.4 232.701 285.72C232.167 286.04 231.481 286.2 230.641 286.2ZM230.921 284.74C232.054 284.74 232.847 284.433 233.301 283.82C233.767 283.193 234.001 282.253 234.001 281V280.68C234.001 279.347 233.781 278.327 233.341 277.62C232.901 276.9 232.087 276.54 230.901 276.54C229.954 276.54 229.241 276.92 228.761 277.68C228.294 278.427 228.061 279.433 228.061 280.7C228.061 281.98 228.294 282.973 228.761 283.68C229.241 284.387 229.961 284.74 230.921 284.74ZM242.645 280.52C242.645 282.133 242.405 283.687 241.925 285.18C241.459 286.66 240.719 287.987 239.705 289.16H238.065C238.985 287.907 239.679 286.54 240.145 285.06C240.625 283.567 240.865 282.047 240.865 280.5C240.865 278.913 240.625 277.367 240.145 275.86C239.679 274.353 238.979 272.973 238.045 271.72H239.705C240.719 272.933 241.459 274.3 241.925 275.82C242.405 277.327 242.645 278.893 242.645 280.52Z" fill="#333333"/>
</g>
<path d="M101.86 322H100.06V315.34H92.74V322H90.94V307.72H92.74V313.76H100.06V307.72H101.86V322ZM106.424 307.26C106.691 307.26 106.924 307.353 107.124 307.54C107.338 307.713 107.444 307.993 107.444 308.38C107.444 308.753 107.338 309.033 107.124 309.22C106.924 309.407 106.691 309.5 106.424 309.5C106.131 309.5 105.884 309.407 105.684 309.22C105.484 309.033 105.384 308.753 105.384 308.38C105.384 307.993 105.484 307.713 105.684 307.54C105.884 307.353 106.131 307.26 106.424 307.26ZM107.284 311.28V322H105.524V311.28H107.284ZM115.84 311.08C117.12 311.08 118.087 311.393 118.74 312.02C119.394 312.633 119.72 313.633 119.72 315.02V322H117.98V315.14C117.98 313.42 117.18 312.56 115.58 312.56C114.394 312.56 113.574 312.893 113.12 313.56C112.667 314.227 112.44 315.187 112.44 316.44V322H110.68V311.28H112.1L112.36 312.74H112.46C112.807 312.18 113.287 311.767 113.9 311.5C114.514 311.22 115.16 311.08 115.84 311.08ZM126.624 320.76C126.89 320.76 127.164 320.74 127.444 320.7C127.724 320.647 127.95 320.593 128.124 320.54V321.88C127.937 321.973 127.67 322.047 127.324 322.1C126.977 322.167 126.644 322.2 126.324 322.2C125.764 322.2 125.244 322.107 124.764 321.92C124.297 321.72 123.917 321.38 123.624 320.9C123.33 320.42 123.184 319.747 123.184 318.88V312.64H121.664V311.8L123.204 311.1L123.904 308.82H124.944V311.28H128.044V312.64H124.944V318.84C124.944 319.493 125.097 319.98 125.404 320.3C125.724 320.607 126.13 320.76 126.624 320.76ZM141.006 307.72L135.686 322H133.966L139.286 307.72H141.006ZM156.322 322H148.342V307.72H156.322V309.3H150.142V313.76H155.962V315.32H150.142V320.42H156.322V322ZM161.756 316.52L158.056 311.28H160.056L162.816 315.32L165.556 311.28H167.536L163.836 316.52L167.736 322H165.736L162.816 317.72L159.856 322H157.876L161.756 316.52ZM173.862 311.1C175.168 311.1 176.135 311.387 176.762 311.96C177.388 312.533 177.702 313.447 177.702 314.7V322H176.422L176.082 320.48H176.002C175.535 321.067 175.042 321.5 174.522 321.78C174.015 322.06 173.308 322.2 172.402 322.2C171.428 322.2 170.622 321.947 169.982 321.44C169.342 320.92 169.022 320.113 169.022 319.02C169.022 317.953 169.442 317.133 170.282 316.56C171.122 315.973 172.415 315.653 174.162 315.6L175.982 315.54V314.9C175.982 314.007 175.788 313.387 175.402 313.04C175.015 312.693 174.468 312.52 173.762 312.52C173.202 312.52 172.668 312.607 172.162 312.78C171.655 312.94 171.182 313.127 170.742 313.34L170.202 312.02C170.668 311.767 171.222 311.553 171.862 311.38C172.502 311.193 173.168 311.1 173.862 311.1ZM174.382 316.82C173.048 316.873 172.122 317.087 171.602 317.46C171.095 317.833 170.842 318.36 170.842 319.04C170.842 319.64 171.022 320.08 171.382 320.36C171.755 320.64 172.228 320.78 172.802 320.78C173.708 320.78 174.462 320.533 175.062 320.04C175.662 319.533 175.962 318.76 175.962 317.72V316.76L174.382 316.82ZM192.773 311.08C193.986 311.08 194.893 311.393 195.493 312.02C196.093 312.633 196.393 313.633 196.393 315.02V322H194.653V315.1C194.653 313.407 193.926 312.56 192.473 312.56C191.433 312.56 190.686 312.86 190.233 313.46C189.793 314.06 189.573 314.933 189.573 316.08V322H187.833V315.1C187.833 313.407 187.099 312.56 185.633 312.56C184.553 312.56 183.806 312.893 183.393 313.56C182.979 314.227 182.773 315.187 182.773 316.44V322H181.013V311.28H182.433L182.693 312.74H182.793C183.126 312.18 183.573 311.767 184.133 311.5C184.706 311.22 185.313 311.08 185.953 311.08C187.633 311.08 188.726 311.68 189.233 312.88H189.333C189.693 312.267 190.179 311.813 190.793 311.52C191.419 311.227 192.079 311.08 192.773 311.08ZM204.804 311.08C206.124 311.08 207.184 311.54 207.984 312.46C208.797 313.38 209.204 314.767 209.204 316.62C209.204 318.447 208.797 319.833 207.984 320.78C207.184 321.727 206.117 322.2 204.784 322.2C203.957 322.2 203.271 322.047 202.724 321.74C202.191 321.42 201.771 321.053 201.464 320.64H201.344C201.371 320.867 201.397 321.153 201.424 321.5C201.451 321.847 201.464 322.147 201.464 322.4V326.8H199.704V311.28H201.144L201.384 312.74H201.464C201.784 312.273 202.204 311.88 202.724 311.56C203.244 311.24 203.937 311.08 204.804 311.08ZM204.484 312.56C203.391 312.56 202.617 312.867 202.164 313.48C201.724 314.093 201.491 315.027 201.464 316.28V316.62C201.464 317.94 201.677 318.96 202.104 319.68C202.544 320.387 203.351 320.74 204.524 320.74C205.177 320.74 205.711 320.56 206.124 320.2C206.551 319.84 206.864 319.353 207.064 318.74C207.277 318.113 207.384 317.4 207.384 316.6C207.384 315.373 207.144 314.393 206.664 313.66C206.197 312.927 205.471 312.56 204.484 312.56ZM213.769 322H212.009V306.8H213.769V322ZM221.305 311.08C222.225 311.08 223.012 311.28 223.665 311.68C224.332 312.08 224.838 312.647 225.185 313.38C225.545 314.1 225.725 314.947 225.725 315.92V316.98H218.385C218.412 318.193 218.718 319.12 219.305 319.76C219.905 320.387 220.738 320.7 221.805 320.7C222.485 320.7 223.085 320.64 223.605 320.52C224.138 320.387 224.685 320.2 225.245 319.96V321.5C224.698 321.74 224.158 321.913 223.625 322.02C223.092 322.14 222.458 322.2 221.725 322.2C220.712 322.2 219.812 321.993 219.025 321.58C218.252 321.167 217.645 320.553 217.205 319.74C216.778 318.913 216.565 317.907 216.565 316.72C216.565 315.547 216.758 314.54 217.145 313.7C217.545 312.86 218.098 312.213 218.805 311.76C219.525 311.307 220.358 311.08 221.305 311.08ZM221.285 312.52C220.445 312.52 219.778 312.793 219.285 313.34C218.805 313.873 218.518 314.62 218.425 315.58H223.885C223.872 314.673 223.658 313.94 223.245 313.38C222.832 312.807 222.178 312.52 221.285 312.52ZM245.409 311.08C246.623 311.08 247.529 311.393 248.129 312.02C248.729 312.633 249.029 313.633 249.029 315.02V322H247.289V315.1C247.289 313.407 246.563 312.56 245.109 312.56C244.069 312.56 243.323 312.86 242.869 313.46C242.429 314.06 242.209 314.933 242.209 316.08V322H240.469V315.1C240.469 313.407 239.736 312.56 238.269 312.56C237.189 312.56 236.443 312.893 236.029 313.56C235.616 314.227 235.409 315.187 235.409 316.44V322H233.649V311.28H235.069L235.329 312.74H235.429C235.763 312.18 236.209 311.767 236.769 311.5C237.343 311.22 237.949 311.08 238.589 311.08C240.269 311.08 241.363 311.68 241.869 312.88H241.969C242.329 312.267 242.816 311.813 243.429 311.52C244.056 311.227 244.716 311.08 245.409 311.08ZM256.481 311.08C257.401 311.08 258.187 311.28 258.841 311.68C259.507 312.08 260.014 312.647 260.361 313.38C260.721 314.1 260.901 314.947 260.901 315.92V316.98H253.561C253.587 318.193 253.894 319.12 254.481 319.76C255.081 320.387 255.914 320.7 256.981 320.7C257.661 320.7 258.261 320.64 258.781 320.52C259.314 320.387 259.861 320.2 260.421 319.96V321.5C259.874 321.74 259.334 321.913 258.801 322.02C258.267 322.14 257.634 322.2 256.901 322.2C255.887 322.2 254.987 321.993 254.201 321.58C253.427 321.167 252.821 320.553 252.381 319.74C251.954 318.913 251.741 317.907 251.741 316.72C251.741 315.547 251.934 314.54 252.321 313.7C252.721 312.86 253.274 312.213 253.981 311.76C254.701 311.307 255.534 311.08 256.481 311.08ZM256.461 312.52C255.621 312.52 254.954 312.793 254.461 313.34C253.981 313.873 253.694 314.62 253.601 315.58H259.061C259.047 314.673 258.834 313.94 258.421 313.38C258.007 312.807 257.354 312.52 256.461 312.52ZM270.61 319.04C270.61 320.08 270.223 320.867 269.45 321.4C268.676 321.933 267.636 322.2 266.33 322.2C265.583 322.2 264.936 322.14 264.39 322.02C263.856 321.9 263.383 321.733 262.97 321.52V319.92C263.396 320.133 263.91 320.333 264.51 320.52C265.123 320.693 265.743 320.78 266.37 320.78C267.263 320.78 267.91 320.64 268.31 320.36C268.71 320.067 268.91 319.68 268.91 319.2C268.91 318.933 268.836 318.693 268.69 318.48C268.543 318.267 268.276 318.053 267.89 317.84C267.516 317.627 266.976 317.387 266.27 317.12C265.576 316.853 264.983 316.587 264.49 316.32C263.996 316.053 263.616 315.733 263.35 315.36C263.083 314.987 262.95 314.507 262.95 313.92C262.95 313.013 263.316 312.313 264.05 311.82C264.796 311.327 265.77 311.08 266.97 311.08C267.623 311.08 268.23 311.147 268.79 311.28C269.363 311.4 269.896 311.573 270.39 311.8L269.79 313.2C269.336 313.013 268.863 312.853 268.37 312.72C267.876 312.587 267.37 312.52 266.85 312.52C266.13 312.52 265.576 312.64 265.19 312.88C264.816 313.107 264.63 313.42 264.63 313.82C264.63 314.113 264.716 314.367 264.89 314.58C265.063 314.78 265.35 314.98 265.75 315.18C266.163 315.367 266.71 315.593 267.39 315.86C268.07 316.113 268.65 316.373 269.13 316.64C269.61 316.907 269.976 317.233 270.23 317.62C270.483 317.993 270.61 318.467 270.61 319.04ZM280.18 319.04C280.18 320.08 279.793 320.867 279.02 321.4C278.247 321.933 277.207 322.2 275.9 322.2C275.153 322.2 274.507 322.14 273.96 322.02C273.427 321.9 272.953 321.733 272.54 321.52V319.92C272.967 320.133 273.48 320.333 274.08 320.52C274.693 320.693 275.313 320.78 275.94 320.78C276.833 320.78 277.48 320.64 277.88 320.36C278.28 320.067 278.48 319.68 278.48 319.2C278.48 318.933 278.407 318.693 278.26 318.48C278.113 318.267 277.847 318.053 277.46 317.84C277.087 317.627 276.547 317.387 275.84 317.12C275.147 316.853 274.553 316.587 274.06 316.32C273.567 316.053 273.187 315.733 272.92 315.36C272.653 314.987 272.52 314.507 272.52 313.92C272.52 313.013 272.887 312.313 273.62 311.82C274.367 311.327 275.34 311.08 276.54 311.08C277.193 311.08 277.8 311.147 278.36 311.28C278.933 311.4 279.467 311.573 279.96 311.8L279.36 313.2C278.907 313.013 278.433 312.853 277.94 312.72C277.447 312.587 276.94 312.52 276.42 312.52C275.7 312.52 275.147 312.64 274.76 312.88C274.387 313.107 274.2 313.42 274.2 313.82C274.2 314.113 274.287 314.367 274.46 314.58C274.633 314.78 274.92 314.98 275.32 315.18C275.733 315.367 276.28 315.593 276.96 315.86C277.64 316.113 278.22 316.373 278.7 316.64C279.18 316.907 279.547 317.233 279.8 317.62C280.053 317.993 280.18 318.467 280.18 319.04ZM286.83 311.1C288.137 311.1 289.104 311.387 289.73 311.96C290.357 312.533 290.67 313.447 290.67 314.7V322H289.39L289.05 320.48H288.97C288.504 321.067 288.01 321.5 287.49 321.78C286.984 322.06 286.277 322.2 285.37 322.2C284.397 322.2 283.59 321.947 282.95 321.44C282.31 320.92 281.99 320.113 281.99 319.02C281.99 317.953 282.41 317.133 283.25 316.56C284.09 315.973 285.384 315.653 287.13 315.6L288.95 315.54V314.9C288.95 314.007 288.757 313.387 288.37 313.04C287.984 312.693 287.437 312.52 286.73 312.52C286.17 312.52 285.637 312.607 285.13 312.78C284.624 312.94 284.15 313.127 283.71 313.34L283.17 312.02C283.637 311.767 284.19 311.553 284.83 311.38C285.47 311.193 286.137 311.1 286.83 311.1ZM287.35 316.82C286.017 316.873 285.09 317.087 284.57 317.46C284.064 317.833 283.81 318.36 283.81 319.04C283.81 319.64 283.99 320.08 284.35 320.36C284.724 320.64 285.197 320.78 285.77 320.78C286.677 320.78 287.43 320.533 288.03 320.04C288.63 319.533 288.93 318.76 288.93 317.72V316.76L287.35 316.82ZM297.781 311.08C298.488 311.08 299.121 311.213 299.681 311.48C300.255 311.747 300.741 312.153 301.141 312.7H301.241L301.481 311.28H302.881V322.18C302.881 323.713 302.488 324.867 301.701 325.64C300.928 326.413 299.721 326.8 298.081 326.8C296.508 326.8 295.221 326.573 294.221 326.12V324.5C295.275 325.06 296.595 325.34 298.181 325.34C299.101 325.34 299.821 325.067 300.341 324.52C300.875 323.987 301.141 323.253 301.141 322.32V321.9C301.141 321.74 301.148 321.513 301.161 321.22C301.175 320.913 301.188 320.7 301.201 320.58H301.121C300.401 321.66 299.295 322.2 297.801 322.2C296.415 322.2 295.328 321.713 294.541 320.74C293.768 319.767 293.381 318.407 293.381 316.66C293.381 314.953 293.768 313.6 294.541 312.6C295.328 311.587 296.408 311.08 297.781 311.08ZM298.021 312.56C297.128 312.56 296.435 312.92 295.941 313.64C295.448 314.347 295.201 315.36 295.201 316.68C295.201 318 295.441 319.013 295.921 319.72C296.415 320.413 297.128 320.76 298.061 320.76C299.141 320.76 299.928 320.473 300.421 319.9C300.915 319.313 301.161 318.373 301.161 317.08V316.66C301.161 315.193 300.908 314.147 300.401 313.52C299.895 312.88 299.101 312.56 298.021 312.56ZM310.426 311.08C311.346 311.08 312.133 311.28 312.786 311.68C313.453 312.08 313.959 312.647 314.306 313.38C314.666 314.1 314.846 314.947 314.846 315.92V316.98H307.506C307.533 318.193 307.839 319.12 308.426 319.76C309.026 320.387 309.859 320.7 310.926 320.7C311.606 320.7 312.206 320.64 312.726 320.52C313.259 320.387 313.806 320.2 314.366 319.96V321.5C313.819 321.74 313.279 321.913 312.746 322.02C312.213 322.14 311.579 322.2 310.846 322.2C309.833 322.2 308.933 321.993 308.146 321.58C307.373 321.167 306.766 320.553 306.326 319.74C305.899 318.913 305.686 317.907 305.686 316.72C305.686 315.547 305.879 314.54 306.266 313.7C306.666 312.86 307.219 312.213 307.926 311.76C308.646 311.307 309.479 311.08 310.426 311.08ZM310.406 312.52C309.566 312.52 308.899 312.793 308.406 313.34C307.926 313.873 307.639 314.62 307.546 315.58H313.006C312.993 314.673 312.779 313.94 312.366 313.38C311.953 312.807 311.299 312.52 310.406 312.52ZM317.315 320.92C317.315 320.427 317.435 320.08 317.675 319.88C317.915 319.68 318.202 319.58 318.535 319.58C318.882 319.58 319.175 319.68 319.415 319.88C319.668 320.08 319.795 320.427 319.795 320.92C319.795 321.4 319.668 321.747 319.415 321.96C319.175 322.173 318.882 322.28 318.535 322.28C318.202 322.28 317.915 322.173 317.675 321.96C317.435 321.747 317.315 321.4 317.315 320.92Z" fill="#43474E"/>
<rect x="90" y="343" width="478" height="46" rx="2" fill="white"/>
<rect x="90" y="343" width="478" height="46" rx="2" stroke="#333333" stroke-width="2"/>
<path d="M111.04 370.18C111.04 371.447 110.58 372.433 109.66 373.14C108.74 373.847 107.5 374.2 105.94 374.2C105.14 374.2 104.4 374.14 103.72 374.02C103.04 373.9 102.473 373.733 102.02 373.52V371.8C102.5 372.013 103.093 372.207 103.8 372.38C104.52 372.553 105.26 372.64 106.02 372.64C107.087 372.64 107.887 372.433 108.42 372.02C108.967 371.607 109.24 371.047 109.24 370.34C109.24 369.873 109.14 369.48 108.94 369.16C108.74 368.84 108.393 368.547 107.9 368.28C107.42 368 106.747 367.707 105.88 367.4C104.667 366.96 103.747 366.42 103.12 365.78C102.507 365.14 102.2 364.267 102.2 363.16C102.2 362.4 102.393 361.753 102.78 361.22C103.167 360.673 103.7 360.253 104.38 359.96C105.073 359.667 105.867 359.52 106.76 359.52C107.547 359.52 108.267 359.593 108.92 359.74C109.573 359.887 110.167 360.08 110.7 360.32L110.14 361.86C109.647 361.647 109.107 361.467 108.52 361.32C107.947 361.173 107.347 361.1 106.72 361.1C105.827 361.1 105.153 361.293 104.7 361.68C104.247 362.053 104.02 362.553 104.02 363.18C104.02 363.66 104.12 364.06 104.32 364.38C104.52 364.7 104.847 364.987 105.3 365.24C105.753 365.493 106.367 365.767 107.14 366.06C107.98 366.367 108.687 366.7 109.26 367.06C109.847 367.407 110.287 367.827 110.58 368.32C110.887 368.813 111.04 369.433 111.04 370.18ZM117.817 363.08C118.737 363.08 119.523 363.28 120.177 363.68C120.843 364.08 121.35 364.647 121.697 365.38C122.057 366.1 122.237 366.947 122.237 367.92V368.98H114.897C114.923 370.193 115.23 371.12 115.817 371.76C116.417 372.387 117.25 372.7 118.317 372.7C118.997 372.7 119.597 372.64 120.117 372.52C120.65 372.387 121.197 372.2 121.757 371.96V373.5C121.21 373.74 120.67 373.913 120.137 374.02C119.603 374.14 118.97 374.2 118.237 374.2C117.223 374.2 116.323 373.993 115.537 373.58C114.763 373.167 114.157 372.553 113.717 371.74C113.29 370.913 113.077 369.907 113.077 368.72C113.077 367.547 113.27 366.54 113.657 365.7C114.057 364.86 114.61 364.213 115.317 363.76C116.037 363.307 116.87 363.08 117.817 363.08ZM117.797 364.52C116.957 364.52 116.29 364.793 115.797 365.34C115.317 365.873 115.03 366.62 114.937 367.58H120.397C120.383 366.673 120.17 365.94 119.757 365.38C119.343 364.807 118.69 364.52 117.797 364.52ZM126.726 374H124.966V358.8H126.726V374ZM134.262 363.08C135.182 363.08 135.969 363.28 136.622 363.68C137.289 364.08 137.795 364.647 138.142 365.38C138.502 366.1 138.682 366.947 138.682 367.92V368.98H131.342C131.369 370.193 131.675 371.12 132.262 371.76C132.862 372.387 133.695 372.7 134.762 372.7C135.442 372.7 136.042 372.64 136.562 372.52C137.095 372.387 137.642 372.2 138.202 371.96V373.5C137.655 373.74 137.115 373.913 136.582 374.02C136.049 374.14 135.415 374.2 134.682 374.2C133.669 374.2 132.769 373.993 131.982 373.58C131.209 373.167 130.602 372.553 130.162 371.74C129.735 370.913 129.522 369.907 129.522 368.72C129.522 367.547 129.715 366.54 130.102 365.7C130.502 364.86 131.055 364.213 131.762 363.76C132.482 363.307 133.315 363.08 134.262 363.08ZM134.242 364.52C133.402 364.52 132.735 364.793 132.242 365.34C131.762 365.873 131.475 366.62 131.382 367.58H136.842C136.829 366.673 136.615 365.94 136.202 365.38C135.789 364.807 135.135 364.52 134.242 364.52ZM145.711 374.2C144.764 374.2 143.918 374.007 143.171 373.62C142.438 373.233 141.858 372.633 141.431 371.82C141.018 371.007 140.811 369.967 140.811 368.7C140.811 367.38 141.031 366.307 141.471 365.48C141.911 364.653 142.504 364.047 143.251 363.66C144.011 363.273 144.871 363.08 145.831 363.08C146.378 363.08 146.904 363.14 147.411 363.26C147.918 363.367 148.331 363.5 148.651 363.66L148.111 365.12C147.791 365 147.418 364.887 146.991 364.78C146.564 364.673 146.164 364.62 145.791 364.62C143.684 364.62 142.631 365.973 142.631 368.68C142.631 369.973 142.884 370.967 143.391 371.66C143.911 372.34 144.678 372.68 145.691 372.68C146.278 372.68 146.791 372.62 147.231 372.5C147.684 372.38 148.098 372.233 148.471 372.06V373.62C148.111 373.807 147.711 373.947 147.271 374.04C146.844 374.147 146.324 374.2 145.711 374.2ZM154.6 372.76C154.867 372.76 155.14 372.74 155.42 372.7C155.7 372.647 155.927 372.593 156.1 372.54V373.88C155.914 373.973 155.647 374.047 155.3 374.1C154.954 374.167 154.62 374.2 154.3 374.2C153.74 374.2 153.22 374.107 152.74 373.92C152.274 373.72 151.894 373.38 151.6 372.9C151.307 372.42 151.16 371.747 151.16 370.88V364.64H149.64V363.8L151.18 363.1L151.88 360.82H152.92V363.28H156.02V364.64H152.92V370.84C152.92 371.493 153.074 371.98 153.38 372.3C153.7 372.607 154.107 372.76 154.6 372.76ZM172.762 368.62C172.762 370.393 172.309 371.767 171.402 372.74C170.509 373.713 169.296 374.2 167.762 374.2C166.816 374.2 165.969 373.987 165.222 373.56C164.489 373.12 163.909 372.487 163.482 371.66C163.056 370.82 162.842 369.807 162.842 368.62C162.842 366.847 163.289 365.48 164.182 364.52C165.076 363.56 166.289 363.08 167.822 363.08C168.796 363.08 169.649 363.3 170.382 363.74C171.129 364.167 171.709 364.793 172.122 365.62C172.549 366.433 172.762 367.433 172.762 368.62ZM164.662 368.62C164.662 369.887 164.909 370.893 165.402 371.64C165.909 372.373 166.709 372.74 167.802 372.74C168.882 372.74 169.676 372.373 170.182 371.64C170.689 370.893 170.942 369.887 170.942 368.62C170.942 367.353 170.689 366.36 170.182 365.64C169.676 364.92 168.876 364.56 167.782 364.56C166.689 364.56 165.896 364.92 165.402 365.64C164.909 366.36 164.662 367.353 164.662 368.62ZM180.652 363.08C181.972 363.08 183.032 363.54 183.832 364.46C184.645 365.38 185.052 366.767 185.052 368.62C185.052 370.447 184.645 371.833 183.832 372.78C183.032 373.727 181.965 374.2 180.632 374.2C179.805 374.2 179.118 374.047 178.572 373.74C178.038 373.42 177.618 373.053 177.312 372.64H177.192C177.218 372.867 177.245 373.153 177.272 373.5C177.298 373.847 177.312 374.147 177.312 374.4V378.8H175.552V363.28H176.992L177.232 364.74H177.312C177.632 364.273 178.052 363.88 178.572 363.56C179.092 363.24 179.785 363.08 180.652 363.08ZM180.332 364.56C179.238 364.56 178.465 364.867 178.012 365.48C177.572 366.093 177.338 367.027 177.312 368.28V368.62C177.312 369.94 177.525 370.96 177.952 371.68C178.392 372.387 179.198 372.74 180.372 372.74C181.025 372.74 181.558 372.56 181.972 372.2C182.398 371.84 182.712 371.353 182.912 370.74C183.125 370.113 183.232 369.4 183.232 368.6C183.232 367.373 182.992 366.393 182.512 365.66C182.045 364.927 181.318 364.56 180.332 364.56ZM191.436 372.76C191.703 372.76 191.976 372.74 192.256 372.7C192.536 372.647 192.763 372.593 192.936 372.54V373.88C192.75 373.973 192.483 374.047 192.136 374.1C191.79 374.167 191.456 374.2 191.136 374.2C190.576 374.2 190.056 374.107 189.576 373.92C189.11 373.72 188.73 373.38 188.436 372.9C188.143 372.42 187.996 371.747 187.996 370.88V364.64H186.476V363.8L188.016 363.1L188.716 360.82H189.756V363.28H192.856V364.64H189.756V370.84C189.756 371.493 189.91 371.98 190.216 372.3C190.536 372.607 190.943 372.76 191.436 372.76ZM195.983 359.26C196.249 359.26 196.483 359.353 196.683 359.54C196.896 359.713 197.003 359.993 197.003 360.38C197.003 360.753 196.896 361.033 196.683 361.22C196.483 361.407 196.249 361.5 195.983 361.5C195.689 361.5 195.443 361.407 195.243 361.22C195.043 361.033 194.943 360.753 194.943 360.38C194.943 359.993 195.043 359.713 195.243 359.54C195.443 359.353 195.689 359.26 195.983 359.26ZM196.843 363.28V374H195.083V363.28H196.843ZM209.559 368.62C209.559 370.393 209.106 371.767 208.199 372.74C207.306 373.713 206.092 374.2 204.559 374.2C203.612 374.2 202.766 373.987 202.019 373.56C201.286 373.12 200.706 372.487 200.279 371.66C199.852 370.82 199.639 369.807 199.639 368.62C199.639 366.847 200.086 365.48 200.979 364.52C201.872 363.56 203.086 363.08 204.619 363.08C205.592 363.08 206.446 363.3 207.179 363.74C207.926 364.167 208.506 364.793 208.919 365.62C209.346 366.433 209.559 367.433 209.559 368.62ZM201.459 368.62C201.459 369.887 201.706 370.893 202.199 371.64C202.706 372.373 203.506 372.74 204.599 372.74C205.679 372.74 206.472 372.373 206.979 371.64C207.486 370.893 207.739 369.887 207.739 368.62C207.739 367.353 207.486 366.36 206.979 365.64C206.472 364.92 205.672 364.56 204.579 364.56C203.486 364.56 202.692 364.92 202.199 365.64C201.706 366.36 201.459 367.353 201.459 368.62ZM217.508 363.08C218.788 363.08 219.755 363.393 220.408 364.02C221.062 364.633 221.388 365.633 221.388 367.02V374H219.648V367.14C219.648 365.42 218.848 364.56 217.248 364.56C216.062 364.56 215.242 364.893 214.788 365.56C214.335 366.227 214.108 367.187 214.108 368.44V374H212.348V363.28H213.768L214.028 364.74H214.128C214.475 364.18 214.955 363.767 215.568 363.5C216.182 363.22 216.828 363.08 217.508 363.08Z" fill="#333333"/>
<path d="M545 367.687L551.5 361.187L553 362.687L545 370.687L537 362.688L538.5 361.187L545 367.687Z" fill="black"/>
<g clip-path="url(#clip3_57654_5680)">
<rect x="66" y="388.5" width="6" height="1" fill="#C54600"/>
<rect x="66" y="129.5" width="1" height="260" fill="#C54600"/>
<rect x="66" y="129.5" width="6" height="1" fill="#C54600"/>
<rect x="22" y="266.5" width="45" height="1" fill="#C54600"/>
<g clip-path="url(#clip4_57654_5680)">
<rect x="20" y="254.5" width="24" height="24" rx="12" fill="#C54600"/>
<path d="M31.9745 271.639C31.2321 271.639 30.5709 271.512 29.9909 271.256C29.4142 270.998 28.9584 270.643 28.6237 270.192C28.2922 269.738 28.1215 269.215 28.1116 268.621H30.2792C30.2925 268.87 30.3737 269.089 30.5228 269.278C30.6753 269.463 30.8775 269.607 31.1294 269.71C31.3812 269.813 31.6646 269.864 31.9795 269.864C32.3076 269.864 32.5976 269.806 32.8495 269.69C33.1014 269.574 33.2986 269.414 33.4411 269.208C33.5837 269.003 33.6549 268.766 33.6549 268.497C33.6549 268.225 33.5787 267.985 33.4262 267.776C33.2771 267.564 33.0616 267.398 32.7799 267.279C32.5015 267.16 32.1701 267.1 31.7856 267.1H30.836V265.519H31.7856C32.1104 265.519 32.3971 265.463 32.6457 265.35C32.8976 265.237 33.0931 265.082 33.2323 264.883C33.3715 264.681 33.4411 264.445 33.4411 264.177C33.4411 263.922 33.3798 263.698 33.2572 263.506C33.1379 263.31 32.9688 263.158 32.7501 263.048C32.5347 262.939 32.2828 262.884 31.9944 262.884C31.7027 262.884 31.4359 262.937 31.194 263.043C30.952 263.146 30.7581 263.294 30.6123 263.486C30.4665 263.678 30.3886 263.903 30.3786 264.162H28.3154C28.3254 263.575 28.4927 263.058 28.8176 262.611C29.1424 262.163 29.5799 261.814 30.1301 261.562C30.6836 261.307 31.3083 261.179 32.0044 261.179C32.707 261.179 33.3218 261.307 33.8488 261.562C34.3758 261.817 34.7851 262.162 35.0768 262.596C35.3718 263.027 35.5176 263.511 35.5143 264.048C35.5176 264.618 35.3403 265.093 34.9823 265.474C34.6277 265.856 34.1653 266.098 33.5953 266.2V266.28C34.3443 266.376 34.9144 266.636 35.3055 267.06C35.6999 267.481 35.8954 268.008 35.8921 268.641C35.8954 269.221 35.7281 269.737 35.39 270.188C35.0553 270.638 34.5929 270.993 34.0029 271.251C33.413 271.51 32.7368 271.639 31.9745 271.639Z" fill="white"/>
</g>
</g>
<g clip-path="url(#clip5_57654_5680)">
<rect x="24" y="81.5" width="48" height="1" fill="#C54600"/>
<g clip-path="url(#clip6_57654_5680)">
<rect x="24" y="69.5" width="24" height="24" rx="12" fill="#C54600"/>
<path d="M32.4161 86.5V84.9489L36.0404 81.593C36.3486 81.2947 36.6072 81.0263 36.816 80.7876C37.0281 80.549 37.1888 80.3153 37.2982 80.0866C37.4076 79.8546 37.4623 79.6044 37.4623 79.3359C37.4623 79.0376 37.3943 78.7808 37.2584 78.5653C37.1225 78.3466 36.9369 78.1792 36.7016 78.0632C36.4663 77.9439 36.1995 77.8842 35.9012 77.8842C35.5896 77.8842 35.3179 77.9472 35.0858 78.0732C34.8538 78.1991 34.6749 78.3797 34.5489 78.6151C34.423 78.8504 34.36 79.1304 34.36 79.4553H32.3167C32.3167 78.7891 32.4675 78.2107 32.7691 77.7202C33.0707 77.2296 33.4933 76.8501 34.0368 76.5817C34.5804 76.3132 35.2068 76.179 35.9161 76.179C36.6453 76.179 37.28 76.3082 37.8202 76.5668C38.3638 76.822 38.7864 77.1766 39.088 77.6307C39.3896 78.0848 39.5404 78.6051 39.5404 79.1918C39.5404 79.5762 39.4642 79.9557 39.3117 80.3303C39.1626 80.7048 38.8957 81.1207 38.5113 81.5781C38.1268 82.0322 37.5849 82.5774 36.8856 83.2138L35.3991 84.6705V84.7401H39.6746V86.5H32.4161Z" fill="white"/>
</g>
</g>
<g clip-path="url(#clip7_57654_5680)">
<rect x="24" y="41.5" width="48" height="1" fill="#C54600"/>
<g clip-path="url(#clip8_57654_5680)">
<rect x="24" y="29.5" width="24" height="24" rx="12" fill="#C54600"/>
<path d="M37.8302 36.3182V46.5H35.6775V38.3615H35.6178L33.2861 39.8232V37.9141L35.8067 36.3182H37.8302Z" fill="white"/>
</g>
</g>
</g>
<defs>
<clipPath id="clip0_57654_5680">
<rect width="595" height="414" fill="white"/>
</clipPath>
<clipPath id="clip1_57654_5680">
<rect width="655.6" height="24" fill="white" transform="translate(89 120)"/>
</clipPath>
<clipPath id="clip2_57654_5680">
<rect width="480" height="24" fill="white" transform="translate(89 266)"/>
</clipPath>
<clipPath id="clip3_57654_5680">
<rect width="53" height="273" fill="white" transform="translate(20 129.5)"/>
</clipPath>
<clipPath id="clip4_57654_5680">
<rect x="20" y="254.5" width="24" height="24" rx="12" fill="white"/>
</clipPath>
<clipPath id="clip5_57654_5680">
<rect width="48" height="24" fill="white" transform="translate(24 69.5)"/>
</clipPath>
<clipPath id="clip6_57654_5680">
<rect x="24" y="69.5" width="24" height="24" rx="12" fill="white"/>
</clipPath>
<clipPath id="clip7_57654_5680">
<rect width="48" height="24" fill="white" transform="translate(24 29.5)"/>
</clipPath>
<clipPath id="clip8_57654_5680">
<rect x="24" y="29.5" width="24" height="24" rx="12" fill="white"/>
</clipPath>
</defs>
</svg>
