<svg width="133" height="96" viewBox="0 0 133 96" fill="none" xmlns="http://www.w3.org/2000/svg">
<path d="M29.7109 72.5C29.7109 73.2031 29.1641 73.75 28.5 73.75H16.5078L20.6094 77.8906C21.1172 78.3594 21.1172 79.1797 20.6094 79.6484C20.375 79.8828 20.0625 80 19.75 80C19.3984 80 19.0859 79.8828 18.8516 79.6484L12.6016 73.3984C12.0938 72.9297 12.0938 72.1094 12.6016 71.6406L18.8516 65.3906C19.3203 64.8828 20.1406 64.8828 20.6094 65.3906C21.1172 65.8594 21.1172 66.6797 20.6094 67.1484L16.5078 71.25H28.5C29.1641 71.25 29.7109 71.8359 29.7109 72.5Z" fill="#2B4380"/>
<path d="M44.9723 65.72C46.8389 65.72 48.1989 66.1 49.0523 66.86C49.9056 67.6067 50.3323 68.6533 50.3323 70C50.3323 70.6 50.2323 71.1733 50.0323 71.72C49.8456 72.2667 49.5323 72.76 49.0923 73.2C48.6523 73.6267 48.0656 73.9667 47.3323 74.22C46.6123 74.46 45.7256 74.58 44.6723 74.58H43.1323V80H40.9723V65.72H44.9723ZM44.8123 67.54H43.1323V72.76H44.4323C45.2456 72.76 45.9256 72.6733 46.4723 72.5C47.0189 72.3133 47.4256 72.0267 47.6923 71.64C47.9723 71.24 48.1123 70.72 48.1123 70.08C48.1123 69.2267 47.8456 68.5933 47.3123 68.18C46.7923 67.7533 45.9589 67.54 44.8123 67.54ZM58.2984 69.02C58.485 69.02 58.6917 69.0333 58.9184 69.06C59.145 69.0733 59.3317 69.0933 59.4784 69.12L59.2584 71.1C59.1117 71.06 58.9384 71.0267 58.7384 71C58.5384 70.9733 58.3517 70.96 58.1784 70.96C57.7784 70.96 57.3917 71.04 57.0184 71.2C56.6584 71.3467 56.3317 71.5667 56.0384 71.86C55.745 72.14 55.5117 72.4867 55.3384 72.9C55.1784 73.3133 55.0984 73.7867 55.0984 74.32V80H52.9784V69.22H54.6584L54.9384 71.14H55.0184C55.245 70.7533 55.5184 70.4 55.8384 70.08C56.1584 69.76 56.525 69.5067 56.9384 69.32C57.3517 69.12 57.805 69.02 58.2984 69.02ZM65.3238 69.02C66.2705 69.02 67.0838 69.22 67.7638 69.62C68.4438 70.0067 68.9638 70.5667 69.3238 71.3C69.6972 72.0333 69.8838 72.9 69.8838 73.9V75.06H62.6438C62.6705 76.1667 62.9572 77.0133 63.5038 77.6C64.0638 78.1867 64.8438 78.48 65.8438 78.48C66.5372 78.48 67.1505 78.42 67.6838 78.3C68.2305 78.1667 68.7905 77.9733 69.3638 77.72V79.48C68.8305 79.72 68.2838 79.9 67.7238 80.02C67.1772 80.14 66.5238 80.2 65.7638 80.2C64.7238 80.2 63.8038 79.9933 63.0038 79.58C62.2038 79.1667 61.5772 78.5533 61.1238 77.74C60.6838 76.9133 60.4638 75.9 60.4638 74.7C60.4638 73.4867 60.6638 72.46 61.0638 71.62C61.4772 70.78 62.0438 70.14 62.7638 69.7C63.4972 69.2467 64.3505 69.02 65.3238 69.02ZM65.3238 70.66C64.5638 70.66 63.9505 70.9067 63.4838 71.4C63.0305 71.8933 62.7638 72.5933 62.6838 73.5H67.7638C67.7638 72.94 67.6772 72.4467 67.5038 72.02C67.3305 71.5933 67.0638 71.26 66.7038 71.02C66.3438 70.78 65.8838 70.66 65.3238 70.66ZM74.5585 80L70.4785 69.22H72.7185L74.9585 75.52C75.0518 75.7867 75.1452 76.0867 75.2385 76.42C75.3452 76.7533 75.4385 77.0733 75.5185 77.38C75.5985 77.6867 75.6518 77.9533 75.6785 78.18H75.7585C75.7985 77.9533 75.8585 77.6867 75.9385 77.38C76.0318 77.06 76.1318 76.74 76.2385 76.42C76.3452 76.0867 76.4385 75.7867 76.5185 75.52L78.7585 69.22H80.9985L76.8985 80H74.5585ZM84.7859 69.22V80H82.6659V69.22H84.7859ZM83.7459 65.12C84.0659 65.12 84.3459 65.2133 84.5859 65.4C84.8259 65.5867 84.9459 65.9 84.9459 66.34C84.9459 66.7667 84.8259 67.08 84.5859 67.28C84.3459 67.4667 84.0659 67.56 83.7459 67.56C83.3992 67.56 83.1059 67.4667 82.8659 67.28C82.6392 67.08 82.5259 66.7667 82.5259 66.34C82.5259 65.9 82.6392 65.5867 82.8659 65.4C83.1059 65.2133 83.3992 65.12 83.7459 65.12ZM97.6151 74.6C97.6151 75.4933 97.4951 76.2867 97.2551 76.98C97.0151 77.6733 96.6751 78.26 96.2351 78.74C95.7951 79.22 95.2617 79.5867 94.6351 79.84C94.0084 80.08 93.3017 80.2 92.5151 80.2C91.7951 80.2 91.1284 80.08 90.5151 79.84C89.9017 79.5867 89.3684 79.22 88.9151 78.74C88.4751 78.26 88.1284 77.6733 87.8751 76.98C87.6217 76.2867 87.4951 75.4867 87.4951 74.58C87.4951 73.3933 87.6951 72.3867 88.0951 71.56C88.5084 70.7333 89.0951 70.1067 89.8551 69.68C90.6284 69.24 91.5351 69.02 92.5751 69.02C93.5617 69.02 94.4284 69.24 95.1751 69.68C95.9351 70.1067 96.5284 70.7333 96.9551 71.56C97.3951 72.3867 97.6151 73.4 97.6151 74.6ZM89.6751 74.6C89.6751 75.4 89.7751 76.0933 89.9751 76.68C90.1751 77.2533 90.4884 77.6933 90.9151 78C91.3417 78.3067 91.8884 78.46 92.5551 78.46C93.2217 78.46 93.7684 78.3067 94.1951 78C94.6217 77.6933 94.9351 77.2533 95.1351 76.68C95.3351 76.0933 95.4351 75.4 95.4351 74.6C95.4351 73.7733 95.3284 73.08 95.1151 72.52C94.9151 71.96 94.6017 71.5333 94.1751 71.24C93.7617 70.9333 93.2151 70.78 92.5351 70.78C91.5351 70.78 90.8084 71.1133 90.3551 71.78C89.9017 72.4467 89.6751 73.3867 89.6751 74.6ZM109.583 69.22V80H107.883L107.583 78.58H107.483C107.256 78.9533 106.963 79.26 106.603 79.5C106.243 79.74 105.849 79.9133 105.423 80.02C104.996 80.14 104.556 80.2 104.103 80.2C103.263 80.2 102.549 80.0667 101.963 79.8C101.389 79.52 100.949 79.0933 100.643 78.52C100.349 77.9333 100.203 77.1867 100.203 76.28V69.22H102.343V75.96C102.343 76.8 102.516 77.4267 102.863 77.84C103.223 78.2533 103.776 78.46 104.523 78.46C105.269 78.46 105.856 78.3133 106.283 78.02C106.709 77.7267 107.009 77.3 107.183 76.74C107.369 76.1667 107.463 75.48 107.463 74.68V69.22H109.583ZM120.06 76.96C120.06 77.6667 119.887 78.26 119.54 78.74C119.194 79.22 118.694 79.5867 118.04 79.84C117.387 80.08 116.6 80.2 115.68 80.2C114.92 80.2 114.267 80.14 113.72 80.02C113.187 79.9133 112.694 79.7533 112.24 79.54V77.68C112.72 77.9067 113.274 78.1133 113.9 78.3C114.527 78.4733 115.14 78.56 115.74 78.56C116.54 78.56 117.114 78.4333 117.46 78.18C117.82 77.9267 118 77.5867 118 77.16C118 76.92 117.934 76.7067 117.8 76.52C117.667 76.32 117.414 76.12 117.04 75.92C116.68 75.7067 116.147 75.4667 115.44 75.2C114.76 74.92 114.18 74.6467 113.7 74.38C113.22 74.1 112.854 73.7733 112.6 73.4C112.347 73.0133 112.22 72.52 112.22 71.92C112.22 70.9867 112.594 70.2733 113.34 69.78C114.1 69.2733 115.1 69.02 116.34 69.02C116.994 69.02 117.607 69.0867 118.18 69.22C118.767 69.34 119.334 69.5267 119.88 69.78L119.18 71.4C118.874 71.2533 118.554 71.1333 118.22 71.04C117.9 70.9333 117.574 70.8467 117.24 70.78C116.92 70.7133 116.587 70.68 116.24 70.68C115.6 70.68 115.114 70.78 114.78 70.98C114.447 71.18 114.28 71.46 114.28 71.82C114.28 72.0733 114.354 72.2933 114.5 72.48C114.66 72.6667 114.934 72.8533 115.32 73.04C115.707 73.2267 116.234 73.4533 116.9 73.72C117.567 73.9733 118.134 74.2333 118.6 74.5C119.08 74.7667 119.44 75.0933 119.68 75.48C119.934 75.8667 120.06 76.36 120.06 76.96Z" fill="#2B4380"/>
<path d="M39.0723 82.5H120.92V83.5H39.0723V82.5Z" fill="#2B4380"/>
<g clip-path="url(#clip0_216_2074)">
<rect x="21" width="1" height="60" fill="#C54600"/>
<g clip-path="url(#clip1_216_2074)">
<rect x="9" width="24" height="24" rx="12" fill="#C54600"/>
<path d="M22.8302 6.81818V17H20.6775V8.86151H20.6178L18.2861 10.3232V8.41406L20.8067 6.81818H22.8302Z" fill="white"/>
</g>
</g>
<g clip-path="url(#clip2_216_2074)">
<rect x="80" width="1" height="60" fill="#C54600"/>
<g clip-path="url(#clip3_216_2074)">
<rect x="68" width="24" height="24" rx="12" fill="#C54600"/>
<path d="M76.4161 17V15.4489L80.0404 12.093C80.3486 11.7947 80.6072 11.5263 80.816 11.2876C81.0281 11.049 81.1888 10.8153 81.2982 10.5866C81.4076 10.3546 81.4623 10.1044 81.4623 9.83594C81.4623 9.53764 81.3943 9.28078 81.2584 9.06534C81.1225 8.84659 80.9369 8.67921 80.7016 8.56321C80.4663 8.44389 80.1995 8.38423 79.9012 8.38423C79.5896 8.38423 79.3179 8.44721 79.0858 8.57315C78.8538 8.6991 78.6749 8.87973 78.5489 9.11506C78.423 9.35038 78.36 9.63044 78.36 9.95526H76.3167C76.3167 9.28906 76.4675 8.7107 76.7691 8.22017C77.0707 7.72964 77.4933 7.35014 78.0368 7.08168C78.5804 6.81321 79.2068 6.67898 79.9161 6.67898C80.6453 6.67898 81.28 6.80824 81.8202 7.06676C82.3638 7.32197 82.7864 7.67661 83.088 8.13068C83.3896 8.58475 83.5404 9.10511 83.5404 9.69176C83.5404 10.0762 83.4642 10.4557 83.3117 10.8303C83.1626 11.2048 82.8957 11.6207 82.5113 12.0781C82.1268 12.5322 81.5849 13.0774 80.8856 13.7138L79.3991 15.1705V15.2401H83.6746V17H76.4161Z" fill="white"/>
</g>
</g>
<defs>
<clipPath id="clip0_216_2074">
<rect width="24" height="60" fill="white" transform="translate(9)"/>
</clipPath>
<clipPath id="clip1_216_2074">
<rect x="9" width="24" height="24" rx="12" fill="white"/>
</clipPath>
<clipPath id="clip2_216_2074">
<rect width="24" height="60" fill="white" transform="translate(68)"/>
</clipPath>
<clipPath id="clip3_216_2074">
<rect x="68" width="24" height="24" rx="12" fill="white"/>
</clipPath>
</defs>
</svg>
