<svg width="582" height="244" viewBox="0 0 582 244" fill="none" xmlns="http://www.w3.org/2000/svg">
<path d="M49.86 20V5.72H52.42V17.84H58.38V20H49.86ZM64.9361 8.96C66.3361 8.96 67.3961 9.26667 68.1161 9.88C68.8494 10.48 69.2161 11.4267 69.2161 12.72V20H67.4361L66.9361 18.5H66.8561C66.5494 18.8867 66.2294 19.2133 65.8961 19.48C65.5761 19.7333 65.2028 19.9133 64.7761 20.02C64.3628 20.14 63.8561 20.2 63.2561 20.2C62.6161 20.2 62.0361 20.08 61.5161 19.84C61.0094 19.6 60.6094 19.2333 60.3161 18.74C60.0228 18.2333 59.8761 17.6 59.8761 16.84C59.8761 15.72 60.2828 14.88 61.0961 14.32C61.9228 13.7467 63.1694 13.4333 64.8361 13.38L66.7161 13.32V12.78C66.7161 12.0867 66.5494 11.5933 66.2161 11.3C65.8828 11.0067 65.4161 10.86 64.8161 10.86C64.2694 10.86 63.7428 10.94 63.2361 11.1C62.7294 11.26 62.2361 11.4467 61.7561 11.66L60.9561 9.9C61.4894 9.62 62.0961 9.39333 62.7761 9.22C63.4694 9.04667 64.1894 8.96 64.9361 8.96ZM65.3961 14.92C64.2894 14.96 63.5228 15.1533 63.0961 15.5C62.6694 15.8333 62.4561 16.2867 62.4561 16.86C62.4561 17.3667 62.6094 17.7333 62.9161 17.96C63.2228 18.1867 63.6161 18.3 64.0961 18.3C64.8294 18.3 65.4494 18.0933 65.9561 17.68C66.4628 17.2533 66.7161 16.6267 66.7161 15.8V14.88L65.3961 14.92ZM74.8939 8.4C74.8939 8.82667 74.8806 9.24 74.8539 9.64C74.8272 10.04 74.8006 10.3533 74.7739 10.58H74.8939C75.1872 10.1267 75.5872 9.74667 76.0939 9.44C76.6006 9.12 77.2606 8.96 78.0739 8.96C79.3406 8.96 80.3606 9.43333 81.1339 10.38C81.9072 11.3267 82.2939 12.72 82.2939 14.56C82.2939 15.8 82.1139 16.84 81.7539 17.68C81.4072 18.52 80.9072 19.1533 80.2539 19.58C79.6139 19.9933 78.8672 20.2 78.0139 20.2C77.2006 20.2 76.5472 20.0533 76.0539 19.76C75.5739 19.4667 75.1872 19.1267 74.8939 18.74H74.7139L74.2539 20H72.3739V4.8H74.8939V8.4ZM77.3539 11C76.7406 11 76.2539 11.12 75.8939 11.36C75.5472 11.6 75.2939 11.9667 75.1339 12.46C74.9739 12.9533 74.8939 13.58 74.8939 14.34V14.56C74.8939 15.72 75.0672 16.6067 75.4139 17.22C75.7739 17.8333 76.4339 18.14 77.3939 18.14C78.1406 18.14 78.7139 17.8333 79.1139 17.22C79.5139 16.5933 79.7139 15.7 79.7139 14.54C79.7139 13.3667 79.5072 12.4867 79.0939 11.9C78.6939 11.3 78.1139 11 77.3539 11ZM89.2534 8.96C90.2268 8.96 91.0601 9.16 91.7534 9.56C92.4601 9.94667 93.0068 10.5067 93.3934 11.24C93.7801 11.96 93.9734 12.84 93.9734 13.88V15.16H86.8134C86.8401 16.1467 87.1134 16.9133 87.6334 17.46C88.1534 17.9933 88.8734 18.26 89.7934 18.26C90.5001 18.26 91.1268 18.1933 91.6734 18.06C92.2334 17.9133 92.8068 17.7067 93.3934 17.44V19.46C92.8601 19.7133 92.3068 19.9 91.7334 20.02C91.1601 20.14 90.4734 20.2 89.6734 20.2C88.6201 20.2 87.6801 20 86.8534 19.6C86.0401 19.1867 85.4001 18.5667 84.9334 17.74C84.4801 16.9133 84.2534 15.8867 84.2534 14.66C84.2534 13.42 84.4601 12.38 84.8734 11.54C85.3001 10.6867 85.8868 10.0467 86.6334 9.62C87.3801 9.18 88.2534 8.96 89.2534 8.96ZM89.2534 10.82C88.5868 10.82 88.0401 11.04 87.6134 11.48C87.2001 11.9067 86.9534 12.5467 86.8734 13.4H91.5334C91.5334 12.8933 91.4468 12.4467 91.2734 12.06C91.1134 11.6733 90.8668 11.3733 90.5334 11.16C90.2001 10.9333 89.7734 10.82 89.2534 10.82ZM99.0345 20H96.5145V4.8H99.0345V20Z" fill="#333333"/>
<path d="M60.86 50H59.06V43.34H51.74V50H49.94V35.72H51.74V41.76H59.06V35.72H60.86V50ZM65.4242 35.26C65.6909 35.26 65.9242 35.3533 66.1242 35.54C66.3376 35.7133 66.4442 35.9933 66.4442 36.38C66.4442 36.7533 66.3376 37.0333 66.1242 37.22C65.9242 37.4067 65.6909 37.5 65.4242 37.5C65.1309 37.5 64.8842 37.4067 64.6842 37.22C64.4842 37.0333 64.3842 36.7533 64.3842 36.38C64.3842 35.9933 64.4842 35.7133 64.6842 35.54C64.8842 35.3533 65.1309 35.26 65.4242 35.26ZM66.2842 39.28V50H64.5242V39.28H66.2842ZM74.8405 39.08C76.1205 39.08 77.0871 39.3933 77.7405 40.02C78.3938 40.6333 78.7205 41.6333 78.7205 43.02V50H76.9805V43.14C76.9805 41.42 76.1805 40.56 74.5805 40.56C73.3938 40.56 72.5738 40.8933 72.1205 41.56C71.6671 42.2267 71.4405 43.1867 71.4405 44.44V50H69.6805V39.28H71.1005L71.3605 40.74H71.4605C71.8071 40.18 72.2871 39.7667 72.9005 39.5C73.5138 39.22 74.1605 39.08 74.8405 39.08ZM85.6237 48.76C85.8904 48.76 86.1638 48.74 86.4438 48.7C86.7238 48.6467 86.9504 48.5933 87.1238 48.54V49.88C86.9371 49.9733 86.6704 50.0467 86.3238 50.1C85.9771 50.1667 85.6438 50.2 85.3238 50.2C84.7638 50.2 84.2438 50.1067 83.7638 49.92C83.2971 49.72 82.9171 49.38 82.6238 48.9C82.3304 48.42 82.1838 47.7467 82.1838 46.88V40.64H80.6638V39.8L82.2038 39.1L82.9038 36.82H83.9438V39.28H87.0438V40.64H83.9438V46.84C83.9438 47.4933 84.0971 47.98 84.4038 48.3C84.7238 48.6067 85.1304 48.76 85.6237 48.76ZM100.006 35.72L94.6856 50H92.9656L98.2856 35.72H100.006ZM115.322 50H107.342V35.72H115.322V37.3H109.142V41.76H114.962V43.32H109.142V48.42H115.322V50ZM120.756 44.52L117.056 39.28H119.056L121.816 43.32L124.556 39.28H126.536L122.836 44.52L126.736 50H124.736L121.816 45.72L118.856 50H116.876L120.756 44.52ZM132.862 39.1C134.168 39.1 135.135 39.3867 135.762 39.96C136.388 40.5333 136.702 41.4467 136.702 42.7V50H135.422L135.082 48.48H135.002C134.535 49.0667 134.042 49.5 133.522 49.78C133.015 50.06 132.308 50.2 131.402 50.2C130.428 50.2 129.622 49.9467 128.982 49.44C128.342 48.92 128.022 48.1133 128.022 47.02C128.022 45.9533 128.442 45.1333 129.282 44.56C130.122 43.9733 131.415 43.6533 133.162 43.6L134.982 43.54V42.9C134.982 42.0067 134.788 41.3867 134.402 41.04C134.015 40.6933 133.468 40.52 132.762 40.52C132.202 40.52 131.668 40.6067 131.162 40.78C130.655 40.94 130.182 41.1267 129.742 41.34L129.202 40.02C129.668 39.7667 130.222 39.5533 130.862 39.38C131.502 39.1933 132.168 39.1 132.862 39.1ZM133.382 44.82C132.048 44.8733 131.122 45.0867 130.602 45.46C130.095 45.8333 129.842 46.36 129.842 47.04C129.842 47.64 130.022 48.08 130.382 48.36C130.755 48.64 131.228 48.78 131.802 48.78C132.708 48.78 133.462 48.5333 134.062 48.04C134.662 47.5333 134.962 46.76 134.962 45.72V44.76L133.382 44.82ZM151.773 39.08C152.986 39.08 153.893 39.3933 154.493 40.02C155.093 40.6333 155.393 41.6333 155.393 43.02V50H153.653V43.1C153.653 41.4067 152.926 40.56 151.473 40.56C150.433 40.56 149.686 40.86 149.233 41.46C148.793 42.06 148.573 42.9333 148.573 44.08V50H146.833V43.1C146.833 41.4067 146.099 40.56 144.633 40.56C143.553 40.56 142.806 40.8933 142.393 41.56C141.979 42.2267 141.773 43.1867 141.773 44.44V50H140.013V39.28H141.433L141.693 40.74H141.793C142.126 40.18 142.573 39.7667 143.133 39.5C143.706 39.22 144.313 39.08 144.953 39.08C146.633 39.08 147.726 39.68 148.233 40.88H148.333C148.693 40.2667 149.179 39.8133 149.793 39.52C150.419 39.2267 151.079 39.08 151.773 39.08ZM163.804 39.08C165.124 39.08 166.184 39.54 166.984 40.46C167.797 41.38 168.204 42.7667 168.204 44.62C168.204 46.4467 167.797 47.8333 166.984 48.78C166.184 49.7267 165.117 50.2 163.784 50.2C162.957 50.2 162.271 50.0467 161.724 49.74C161.191 49.42 160.771 49.0533 160.464 48.64H160.344C160.371 48.8667 160.397 49.1533 160.424 49.5C160.451 49.8467 160.464 50.1467 160.464 50.4V54.8H158.704V39.28H160.144L160.384 40.74H160.464C160.784 40.2733 161.204 39.88 161.724 39.56C162.244 39.24 162.937 39.08 163.804 39.08ZM163.484 40.56C162.391 40.56 161.617 40.8667 161.164 41.48C160.724 42.0933 160.491 43.0267 160.464 44.28V44.62C160.464 45.94 160.677 46.96 161.104 47.68C161.544 48.3867 162.351 48.74 163.524 48.74C164.177 48.74 164.711 48.56 165.124 48.2C165.551 47.84 165.864 47.3533 166.064 46.74C166.277 46.1133 166.384 45.4 166.384 44.6C166.384 43.3733 166.144 42.3933 165.664 41.66C165.197 40.9267 164.471 40.56 163.484 40.56ZM172.769 50H171.009V34.8H172.769V50ZM180.305 39.08C181.225 39.08 182.012 39.28 182.665 39.68C183.332 40.08 183.838 40.6467 184.185 41.38C184.545 42.1 184.725 42.9467 184.725 43.92V44.98H177.385C177.412 46.1933 177.718 47.12 178.305 47.76C178.905 48.3867 179.738 48.7 180.805 48.7C181.485 48.7 182.085 48.64 182.605 48.52C183.138 48.3867 183.685 48.2 184.245 47.96V49.5C183.698 49.74 183.158 49.9133 182.625 50.02C182.092 50.14 181.458 50.2 180.725 50.2C179.712 50.2 178.812 49.9933 178.025 49.58C177.252 49.1667 176.645 48.5533 176.205 47.74C175.778 46.9133 175.565 45.9067 175.565 44.72C175.565 43.5467 175.758 42.54 176.145 41.7C176.545 40.86 177.098 40.2133 177.805 39.76C178.525 39.3067 179.358 39.08 180.305 39.08ZM180.285 40.52C179.445 40.52 178.778 40.7933 178.285 41.34C177.805 41.8733 177.518 42.62 177.425 43.58H182.885C182.872 42.6733 182.658 41.94 182.245 41.38C181.832 40.8067 181.178 40.52 180.285 40.52ZM204.409 39.08C205.623 39.08 206.529 39.3933 207.129 40.02C207.729 40.6333 208.029 41.6333 208.029 43.02V50H206.289V43.1C206.289 41.4067 205.563 40.56 204.109 40.56C203.069 40.56 202.323 40.86 201.869 41.46C201.429 42.06 201.209 42.9333 201.209 44.08V50H199.469V43.1C199.469 41.4067 198.736 40.56 197.269 40.56C196.189 40.56 195.443 40.8933 195.029 41.56C194.616 42.2267 194.409 43.1867 194.409 44.44V50H192.649V39.28H194.069L194.329 40.74H194.429C194.763 40.18 195.209 39.7667 195.769 39.5C196.343 39.22 196.949 39.08 197.589 39.08C199.269 39.08 200.363 39.68 200.869 40.88H200.969C201.329 40.2667 201.816 39.8133 202.429 39.52C203.056 39.2267 203.716 39.08 204.409 39.08ZM215.481 39.08C216.401 39.08 217.187 39.28 217.841 39.68C218.507 40.08 219.014 40.6467 219.361 41.38C219.721 42.1 219.901 42.9467 219.901 43.92V44.98H212.561C212.587 46.1933 212.894 47.12 213.481 47.76C214.081 48.3867 214.914 48.7 215.981 48.7C216.661 48.7 217.261 48.64 217.781 48.52C218.314 48.3867 218.861 48.2 219.421 47.96V49.5C218.874 49.74 218.334 49.9133 217.801 50.02C217.267 50.14 216.634 50.2 215.901 50.2C214.887 50.2 213.987 49.9933 213.201 49.58C212.427 49.1667 211.821 48.5533 211.381 47.74C210.954 46.9133 210.741 45.9067 210.741 44.72C210.741 43.5467 210.934 42.54 211.321 41.7C211.721 40.86 212.274 40.2133 212.981 39.76C213.701 39.3067 214.534 39.08 215.481 39.08ZM215.461 40.52C214.621 40.52 213.954 40.7933 213.461 41.34C212.981 41.8733 212.694 42.62 212.601 43.58H218.061C218.047 42.6733 217.834 41.94 217.421 41.38C217.007 40.8067 216.354 40.52 215.461 40.52ZM229.61 47.04C229.61 48.08 229.223 48.8667 228.45 49.4C227.676 49.9333 226.636 50.2 225.33 50.2C224.583 50.2 223.936 50.14 223.39 50.02C222.856 49.9 222.383 49.7333 221.97 49.52V47.92C222.396 48.1333 222.91 48.3333 223.51 48.52C224.123 48.6933 224.743 48.78 225.37 48.78C226.263 48.78 226.91 48.64 227.31 48.36C227.71 48.0667 227.91 47.68 227.91 47.2C227.91 46.9333 227.836 46.6933 227.69 46.48C227.543 46.2667 227.276 46.0533 226.89 45.84C226.516 45.6267 225.976 45.3867 225.27 45.12C224.576 44.8533 223.983 44.5867 223.49 44.32C222.996 44.0533 222.616 43.7333 222.35 43.36C222.083 42.9867 221.95 42.5067 221.95 41.92C221.95 41.0133 222.316 40.3133 223.05 39.82C223.796 39.3267 224.77 39.08 225.97 39.08C226.623 39.08 227.23 39.1467 227.79 39.28C228.363 39.4 228.896 39.5733 229.39 39.8L228.79 41.2C228.336 41.0133 227.863 40.8533 227.37 40.72C226.876 40.5867 226.37 40.52 225.85 40.52C225.13 40.52 224.576 40.64 224.19 40.88C223.816 41.1067 223.63 41.42 223.63 41.82C223.63 42.1133 223.716 42.3667 223.89 42.58C224.063 42.78 224.35 42.98 224.75 43.18C225.163 43.3667 225.71 43.5933 226.39 43.86C227.07 44.1133 227.65 44.3733 228.13 44.64C228.61 44.9067 228.976 45.2333 229.23 45.62C229.483 45.9933 229.61 46.4667 229.61 47.04ZM239.18 47.04C239.18 48.08 238.793 48.8667 238.02 49.4C237.247 49.9333 236.207 50.2 234.9 50.2C234.153 50.2 233.507 50.14 232.96 50.02C232.427 49.9 231.953 49.7333 231.54 49.52V47.92C231.967 48.1333 232.48 48.3333 233.08 48.52C233.693 48.6933 234.313 48.78 234.94 48.78C235.833 48.78 236.48 48.64 236.88 48.36C237.28 48.0667 237.48 47.68 237.48 47.2C237.48 46.9333 237.407 46.6933 237.26 46.48C237.113 46.2667 236.847 46.0533 236.46 45.84C236.087 45.6267 235.547 45.3867 234.84 45.12C234.147 44.8533 233.553 44.5867 233.06 44.32C232.567 44.0533 232.187 43.7333 231.92 43.36C231.653 42.9867 231.52 42.5067 231.52 41.92C231.52 41.0133 231.887 40.3133 232.62 39.82C233.367 39.3267 234.34 39.08 235.54 39.08C236.193 39.08 236.8 39.1467 237.36 39.28C237.933 39.4 238.467 39.5733 238.96 39.8L238.36 41.2C237.907 41.0133 237.433 40.8533 236.94 40.72C236.447 40.5867 235.94 40.52 235.42 40.52C234.7 40.52 234.147 40.64 233.76 40.88C233.387 41.1067 233.2 41.42 233.2 41.82C233.2 42.1133 233.287 42.3667 233.46 42.58C233.633 42.78 233.92 42.98 234.32 43.18C234.733 43.3667 235.28 43.5933 235.96 43.86C236.64 44.1133 237.22 44.3733 237.7 44.64C238.18 44.9067 238.547 45.2333 238.8 45.62C239.053 45.9933 239.18 46.4667 239.18 47.04ZM245.83 39.1C247.137 39.1 248.104 39.3867 248.73 39.96C249.357 40.5333 249.67 41.4467 249.67 42.7V50H248.39L248.05 48.48H247.97C247.504 49.0667 247.01 49.5 246.49 49.78C245.984 50.06 245.277 50.2 244.37 50.2C243.397 50.2 242.59 49.9467 241.95 49.44C241.31 48.92 240.99 48.1133 240.99 47.02C240.99 45.9533 241.41 45.1333 242.25 44.56C243.09 43.9733 244.384 43.6533 246.13 43.6L247.95 43.54V42.9C247.95 42.0067 247.757 41.3867 247.37 41.04C246.984 40.6933 246.437 40.52 245.73 40.52C245.17 40.52 244.637 40.6067 244.13 40.78C243.624 40.94 243.15 41.1267 242.71 41.34L242.17 40.02C242.637 39.7667 243.19 39.5533 243.83 39.38C244.47 39.1933 245.137 39.1 245.83 39.1ZM246.35 44.82C245.017 44.8733 244.09 45.0867 243.57 45.46C243.064 45.8333 242.81 46.36 242.81 47.04C242.81 47.64 242.99 48.08 243.35 48.36C243.724 48.64 244.197 48.78 244.77 48.78C245.677 48.78 246.43 48.5333 247.03 48.04C247.63 47.5333 247.93 46.76 247.93 45.72V44.76L246.35 44.82ZM256.781 39.08C257.488 39.08 258.121 39.2133 258.681 39.48C259.255 39.7467 259.741 40.1533 260.141 40.7H260.241L260.481 39.28H261.881V50.18C261.881 51.7133 261.488 52.8667 260.701 53.64C259.928 54.4133 258.721 54.8 257.081 54.8C255.508 54.8 254.221 54.5733 253.221 54.12V52.5C254.275 53.06 255.595 53.34 257.181 53.34C258.101 53.34 258.821 53.0667 259.341 52.52C259.875 51.9867 260.141 51.2533 260.141 50.32V49.9C260.141 49.74 260.148 49.5133 260.161 49.22C260.175 48.9133 260.188 48.7 260.201 48.58H260.121C259.401 49.66 258.295 50.2 256.801 50.2C255.415 50.2 254.328 49.7133 253.541 48.74C252.768 47.7667 252.381 46.4067 252.381 44.66C252.381 42.9533 252.768 41.6 253.541 40.6C254.328 39.5867 255.408 39.08 256.781 39.08ZM257.021 40.56C256.128 40.56 255.435 40.92 254.941 41.64C254.448 42.3467 254.201 43.36 254.201 44.68C254.201 46 254.441 47.0133 254.921 47.72C255.415 48.4133 256.128 48.76 257.061 48.76C258.141 48.76 258.928 48.4733 259.421 47.9C259.915 47.3133 260.161 46.3733 260.161 45.08V44.66C260.161 43.1933 259.908 42.1467 259.401 41.52C258.895 40.88 258.101 40.56 257.021 40.56ZM269.426 39.08C270.346 39.08 271.133 39.28 271.786 39.68C272.453 40.08 272.959 40.6467 273.306 41.38C273.666 42.1 273.846 42.9467 273.846 43.92V44.98H266.506C266.533 46.1933 266.839 47.12 267.426 47.76C268.026 48.3867 268.859 48.7 269.926 48.7C270.606 48.7 271.206 48.64 271.726 48.52C272.259 48.3867 272.806 48.2 273.366 47.96V49.5C272.819 49.74 272.279 49.9133 271.746 50.02C271.213 50.14 270.579 50.2 269.846 50.2C268.833 50.2 267.933 49.9933 267.146 49.58C266.373 49.1667 265.766 48.5533 265.326 47.74C264.899 46.9133 264.686 45.9067 264.686 44.72C264.686 43.5467 264.879 42.54 265.266 41.7C265.666 40.86 266.219 40.2133 266.926 39.76C267.646 39.3067 268.479 39.08 269.426 39.08ZM269.406 40.52C268.566 40.52 267.899 40.7933 267.406 41.34C266.926 41.8733 266.639 42.62 266.546 43.58H272.006C271.993 42.6733 271.779 41.94 271.366 41.38C270.953 40.8067 270.299 40.52 269.406 40.52ZM276.315 48.92C276.315 48.4267 276.435 48.08 276.675 47.88C276.915 47.68 277.202 47.58 277.535 47.58C277.882 47.58 278.175 47.68 278.415 47.88C278.668 48.08 278.795 48.4267 278.795 48.92C278.795 49.4 278.668 49.7467 278.415 49.96C278.175 50.1733 277.882 50.28 277.535 50.28C277.202 50.28 276.915 50.1733 276.675 49.96C276.435 49.7467 276.315 49.4 276.315 48.92Z" fill="#333333"/>
<rect x="49" y="70" width="128" height="46" rx="5" fill="white"/>
<path d="M68 88.38C67.2933 88.38 66.66 88.5067 66.1 88.76C65.54 89 65.06 89.36 64.66 89.84C64.2733 90.32 63.9733 90.9 63.76 91.58C63.56 92.26 63.46 93.0267 63.46 93.88C63.46 95 63.6267 95.9733 63.96 96.8C64.2933 97.6133 64.7933 98.24 65.46 98.68C66.1267 99.12 66.9667 99.34 67.98 99.34C68.5933 99.34 69.18 99.2867 69.74 99.18C70.3133 99.06 70.8933 98.9067 71.48 98.72V100.58C70.92 100.793 70.3467 100.947 69.76 101.04C69.1733 101.147 68.4933 101.2 67.72 101.2C66.2667 101.2 65.0533 100.9 64.08 100.3C63.12 99.7 62.4 98.8467 61.92 97.74C61.44 96.6333 61.2 95.34 61.2 93.86C61.2 92.78 61.3467 91.7933 61.64 90.9C61.9467 89.9933 62.3867 89.2133 62.96 88.56C63.5333 87.9067 64.24 87.4067 65.08 87.06C65.9333 86.7 66.9133 86.52 68.02 86.52C68.74 86.52 69.4467 86.6 70.14 86.76C70.8333 86.9067 71.46 87.12 72.02 87.4L71.22 89.2C70.7533 88.9867 70.2467 88.8 69.7 88.64C69.1667 88.4667 68.6 88.38 68 88.38ZM76.4363 89.86C76.4363 90.1933 76.4229 90.5267 76.3963 90.86C76.3696 91.1933 76.3429 91.4667 76.3163 91.68H76.4563C76.6829 91.3067 76.9629 91 77.2963 90.76C77.6429 90.52 78.0229 90.34 78.4363 90.22C78.8629 90.1 79.2963 90.04 79.7363 90.04C80.5896 90.04 81.3029 90.18 81.8763 90.46C82.4629 90.7267 82.9029 91.1533 83.1963 91.74C83.5029 92.3133 83.6563 93.06 83.6563 93.98V101H81.5563V94.28C81.5563 93.44 81.3763 92.8133 81.0163 92.4C80.6696 91.9733 80.1096 91.76 79.3363 91.76C78.6029 91.76 78.0229 91.9067 77.5963 92.2C77.1829 92.4933 76.8829 92.9267 76.6963 93.5C76.5229 94.06 76.4363 94.7533 76.4363 95.58V101H74.3163V85.8H76.4363V89.86ZM96.4139 95.6C96.4139 96.4933 96.2939 97.2867 96.0539 97.98C95.8139 98.6733 95.4739 99.26 95.0339 99.74C94.5939 100.22 94.0606 100.587 93.4339 100.84C92.8072 101.08 92.1006 101.2 91.3139 101.2C90.5939 101.2 89.9272 101.08 89.3139 100.84C88.7006 100.587 88.1672 100.22 87.7139 99.74C87.2739 99.26 86.9272 98.6733 86.6739 97.98C86.4206 97.2867 86.2939 96.4867 86.2939 95.58C86.2939 94.3933 86.4939 93.3867 86.8939 92.56C87.3072 91.7333 87.8939 91.1067 88.6539 90.68C89.4272 90.24 90.3339 90.02 91.3739 90.02C92.3606 90.02 93.2272 90.24 93.9739 90.68C94.7339 91.1067 95.3272 91.7333 95.7539 92.56C96.1939 93.3867 96.4139 94.4 96.4139 95.6ZM88.4739 95.6C88.4739 96.4 88.5739 97.0933 88.7739 97.68C88.9739 98.2533 89.2872 98.6933 89.7139 99C90.1406 99.3067 90.6872 99.46 91.3539 99.46C92.0206 99.46 92.5672 99.3067 92.9939 99C93.4206 98.6933 93.7339 98.2533 93.9339 97.68C94.1339 97.0933 94.2339 96.4 94.2339 95.6C94.2339 94.7733 94.1272 94.08 93.9139 93.52C93.7139 92.96 93.4006 92.5333 92.9739 92.24C92.5606 91.9333 92.0139 91.78 91.3339 91.78C90.3339 91.78 89.6072 92.1133 89.1539 92.78C88.7006 93.4467 88.4739 94.3867 88.4739 95.6ZM108.601 95.6C108.601 96.4933 108.481 97.2867 108.241 97.98C108.001 98.6733 107.661 99.26 107.221 99.74C106.781 100.22 106.248 100.587 105.621 100.84C104.995 101.08 104.288 101.2 103.501 101.2C102.781 101.2 102.115 101.08 101.501 100.84C100.888 100.587 100.355 100.22 99.9014 99.74C99.4614 99.26 99.1147 98.6733 98.8614 97.98C98.6081 97.2867 98.4814 96.4867 98.4814 95.58C98.4814 94.3933 98.6814 93.3867 99.0814 92.56C99.4947 91.7333 100.081 91.1067 100.841 90.68C101.615 90.24 102.521 90.02 103.561 90.02C104.548 90.02 105.415 90.24 106.161 90.68C106.921 91.1067 107.515 91.7333 107.941 92.56C108.381 93.3867 108.601 94.4 108.601 95.6ZM100.661 95.6C100.661 96.4 100.761 97.0933 100.961 97.68C101.161 98.2533 101.475 98.6933 101.901 99C102.328 99.3067 102.875 99.46 103.541 99.46C104.208 99.46 104.755 99.3067 105.181 99C105.608 98.6933 105.921 98.2533 106.121 97.68C106.321 97.0933 106.421 96.4 106.421 95.6C106.421 94.7733 106.315 94.08 106.101 93.52C105.901 92.96 105.588 92.5333 105.161 92.24C104.748 91.9333 104.201 91.78 103.521 91.78C102.521 91.78 101.795 92.1133 101.341 92.78C100.888 93.4467 100.661 94.3867 100.661 95.6ZM118.449 97.96C118.449 98.6667 118.276 99.26 117.929 99.74C117.582 100.22 117.082 100.587 116.429 100.84C115.776 101.08 114.989 101.2 114.069 101.2C113.309 101.2 112.656 101.14 112.109 101.02C111.576 100.913 111.082 100.753 110.629 100.54V98.68C111.109 98.9067 111.662 99.1133 112.289 99.3C112.916 99.4733 113.529 99.56 114.129 99.56C114.929 99.56 115.502 99.4333 115.849 99.18C116.209 98.9267 116.389 98.5867 116.389 98.16C116.389 97.92 116.322 97.7067 116.189 97.52C116.056 97.32 115.802 97.12 115.429 96.92C115.069 96.7067 114.536 96.4667 113.829 96.2C113.149 95.92 112.569 95.6467 112.089 95.38C111.609 95.1 111.242 94.7733 110.989 94.4C110.736 94.0133 110.609 93.52 110.609 92.92C110.609 91.9867 110.982 91.2733 111.729 90.78C112.489 90.2733 113.489 90.02 114.729 90.02C115.382 90.02 115.996 90.0867 116.569 90.22C117.156 90.34 117.722 90.5267 118.269 90.78L117.569 92.4C117.262 92.2533 116.942 92.1333 116.609 92.04C116.289 91.9333 115.962 91.8467 115.629 91.78C115.309 91.7133 114.976 91.68 114.629 91.68C113.989 91.68 113.502 91.78 113.169 91.98C112.836 92.18 112.669 92.46 112.669 92.82C112.669 93.0733 112.742 93.2933 112.889 93.48C113.049 93.6667 113.322 93.8533 113.709 94.04C114.096 94.2267 114.622 94.4533 115.289 94.72C115.956 94.9733 116.522 95.2333 116.989 95.5C117.469 95.7667 117.829 96.0933 118.069 96.48C118.322 96.8667 118.449 97.36 118.449 97.96ZM125.216 90.02C126.163 90.02 126.976 90.22 127.656 90.62C128.336 91.0067 128.856 91.5667 129.216 92.3C129.59 93.0333 129.776 93.9 129.776 94.9V96.06H122.536C122.563 97.1667 122.85 98.0133 123.396 98.6C123.956 99.1867 124.736 99.48 125.736 99.48C126.43 99.48 127.043 99.42 127.576 99.3C128.123 99.1667 128.683 98.9733 129.256 98.72V100.48C128.723 100.72 128.176 100.9 127.616 101.02C127.07 101.14 126.416 101.2 125.656 101.2C124.616 101.2 123.696 100.993 122.896 100.58C122.096 100.167 121.47 99.5533 121.016 98.74C120.576 97.9133 120.356 96.9 120.356 95.7C120.356 94.4867 120.556 93.46 120.956 92.62C121.37 91.78 121.936 91.14 122.656 90.7C123.39 90.2467 124.243 90.02 125.216 90.02ZM125.216 91.66C124.456 91.66 123.843 91.9067 123.376 92.4C122.923 92.8933 122.656 93.5933 122.576 94.5H127.656C127.656 93.94 127.57 93.4467 127.396 93.02C127.223 92.5933 126.956 92.26 126.596 92.02C126.236 91.78 125.776 91.66 125.216 91.66ZM142.877 91.84H140.217V101H138.097V91.84H136.277V90.84L138.097 90.18V89.5C138.097 88.58 138.237 87.8467 138.517 87.3C138.81 86.74 139.224 86.3333 139.757 86.08C140.29 85.8267 140.937 85.7 141.697 85.7C142.164 85.7 142.59 85.74 142.977 85.82C143.364 85.9 143.69 85.9867 143.957 86.08L143.417 87.7C143.204 87.6333 142.957 87.5733 142.677 87.52C142.397 87.4533 142.104 87.42 141.797 87.42C141.264 87.42 140.864 87.5933 140.597 87.94C140.344 88.2867 140.217 88.8133 140.217 89.52V90.22H142.877V91.84ZM146.877 90.22V101H144.757V90.22H146.877ZM145.837 86.12C146.157 86.12 146.437 86.2133 146.677 86.4C146.917 86.5867 147.037 86.9 147.037 87.34C147.037 87.7667 146.917 88.08 146.677 88.28C146.437 88.4667 146.157 88.56 145.837 88.56C145.49 88.56 145.197 88.4667 144.957 88.28C144.73 88.08 144.617 87.7667 144.617 87.34C144.617 86.9 144.73 86.5867 144.957 86.4C145.197 86.2133 145.49 86.12 145.837 86.12ZM152.315 101H150.195V85.8H152.315V101ZM159.884 90.02C160.831 90.02 161.644 90.22 162.324 90.62C163.004 91.0067 163.524 91.5667 163.884 92.3C164.258 93.0333 164.444 93.9 164.444 94.9V96.06H157.204C157.231 97.1667 157.518 98.0133 158.064 98.6C158.624 99.1867 159.404 99.48 160.404 99.48C161.098 99.48 161.711 99.42 162.244 99.3C162.791 99.1667 163.351 98.9733 163.924 98.72V100.48C163.391 100.72 162.844 100.9 162.284 101.02C161.738 101.14 161.084 101.2 160.324 101.2C159.284 101.2 158.364 100.993 157.564 100.58C156.764 100.167 156.138 99.5533 155.684 98.74C155.244 97.9133 155.024 96.9 155.024 95.7C155.024 94.4867 155.224 93.46 155.624 92.62C156.038 91.78 156.604 91.14 157.324 90.7C158.058 90.2467 158.911 90.02 159.884 90.02ZM159.884 91.66C159.124 91.66 158.511 91.9067 158.044 92.4C157.591 92.8933 157.324 93.5933 157.244 94.5H162.324C162.324 93.94 162.238 93.4467 162.064 93.02C161.891 92.5933 161.624 92.26 161.264 92.02C160.904 91.78 160.444 91.66 159.884 91.66Z" fill="#2B4380"/>
<rect x="49" y="70" width="128" height="46" rx="5" stroke="#2B4380" stroke-width="2"/>
<path d="M70.06 166.49V171.1H75.69V172.99H70.06V179H67.71V164.6H76.69V166.49H70.06ZM80.8195 168.8V179H78.6695V168.8H80.8195ZM81.1795 165.72C81.1795 165.913 81.1395 166.097 81.0595 166.27C80.9862 166.443 80.8829 166.597 80.7495 166.73C80.6162 166.857 80.4595 166.96 80.2795 167.04C80.1062 167.113 79.9195 167.15 79.7195 167.15C79.5262 167.15 79.3429 167.113 79.1695 167.04C79.0029 166.96 78.8562 166.857 78.7295 166.73C78.6029 166.597 78.4995 166.443 78.4195 166.27C78.3462 166.097 78.3095 165.913 78.3095 165.72C78.3095 165.52 78.3462 165.333 78.4195 165.16C78.4995 164.987 78.6029 164.837 78.7295 164.71C78.8562 164.577 79.0029 164.473 79.1695 164.4C79.3429 164.32 79.5262 164.28 79.7195 164.28C79.9195 164.28 80.1062 164.32 80.2795 164.4C80.4595 164.473 80.6162 164.577 80.7495 164.71C80.8829 164.837 80.9862 164.987 81.0595 165.16C81.1395 165.333 81.1795 165.52 81.1795 165.72ZM85.7109 164.2V179H83.5609V164.2H85.7109ZM95.0547 172.75C95.0547 172.39 95.0014 172.057 94.8947 171.75C94.7947 171.437 94.6447 171.167 94.4447 170.94C94.2447 170.707 93.9947 170.527 93.6947 170.4C93.4014 170.267 93.0614 170.2 92.6747 170.2C91.8947 170.2 91.2814 170.423 90.8347 170.87C90.388 171.317 90.1047 171.943 89.9847 172.75H95.0547ZM89.9247 174.07C89.9514 174.65 90.0414 175.153 90.1947 175.58C90.348 176 90.5514 176.35 90.8047 176.63C91.0647 176.91 91.3714 177.12 91.7247 177.26C92.0847 177.393 92.4847 177.46 92.9247 177.46C93.3447 177.46 93.708 177.413 94.0147 177.32C94.3214 177.22 94.588 177.113 94.8147 177C95.0414 176.88 95.2347 176.773 95.3947 176.68C95.5547 176.58 95.7014 176.53 95.8347 176.53C96.008 176.53 96.1414 176.597 96.2347 176.73L96.8447 177.52C96.5914 177.82 96.3047 178.073 95.9847 178.28C95.6647 178.487 95.3247 178.657 94.9647 178.79C94.6047 178.917 94.2347 179.007 93.8547 179.06C93.4747 179.12 93.1047 179.15 92.7447 179.15C92.038 179.15 91.3814 179.033 90.7747 178.8C90.1747 178.56 89.6514 178.21 89.2047 177.75C88.7647 177.29 88.418 176.72 88.1647 176.04C87.918 175.36 87.7947 174.577 87.7947 173.69C87.7947 172.983 87.9047 172.323 88.1247 171.71C88.3514 171.097 88.6714 170.563 89.0847 170.11C89.5047 169.657 90.0114 169.3 90.6047 169.04C91.2047 168.773 91.8814 168.64 92.6347 168.64C93.2614 168.64 93.8414 168.743 94.3747 168.95C94.908 169.15 95.368 169.447 95.7547 169.84C96.1414 170.233 96.4414 170.717 96.6547 171.29C96.8747 171.857 96.9847 172.503 96.9847 173.23C96.9847 173.563 96.948 173.787 96.8747 173.9C96.8014 174.013 96.668 174.07 96.4747 174.07H89.9247ZM106.25 180.48V181.9H98.3697V180.48H106.25ZM115.458 170.8C115.391 170.887 115.328 170.953 115.268 171C115.208 171.047 115.121 171.07 115.008 171.07C114.894 171.07 114.774 171.03 114.648 170.95C114.528 170.87 114.381 170.783 114.208 170.69C114.041 170.59 113.838 170.5 113.598 170.42C113.358 170.34 113.058 170.3 112.698 170.3C112.231 170.3 111.821 170.383 111.468 170.55C111.121 170.717 110.828 170.957 110.588 171.27C110.354 171.577 110.178 171.953 110.058 172.4C109.944 172.84 109.888 173.337 109.888 173.89C109.888 174.463 109.951 174.973 110.078 175.42C110.204 175.867 110.384 176.243 110.618 176.55C110.858 176.857 111.144 177.09 111.478 177.25C111.818 177.41 112.198 177.49 112.618 177.49C113.031 177.49 113.368 177.44 113.628 177.34C113.888 177.24 114.104 177.13 114.278 177.01C114.451 176.89 114.598 176.78 114.718 176.68C114.844 176.58 114.978 176.53 115.118 176.53C115.291 176.53 115.424 176.597 115.518 176.73L116.128 177.52C115.881 177.82 115.608 178.073 115.308 178.28C115.008 178.487 114.691 178.657 114.358 178.79C114.024 178.917 113.678 179.007 113.318 179.06C112.958 179.12 112.594 179.15 112.228 179.15C111.594 179.15 111.001 179.033 110.448 178.8C109.901 178.56 109.421 178.217 109.008 177.77C108.601 177.317 108.278 176.767 108.038 176.12C107.804 175.467 107.688 174.723 107.688 173.89C107.688 173.137 107.794 172.44 108.008 171.8C108.221 171.153 108.531 170.597 108.938 170.13C109.351 169.663 109.861 169.3 110.468 169.04C111.074 168.773 111.774 168.64 112.568 168.64C113.308 168.64 113.958 168.76 114.518 169C115.084 169.24 115.588 169.58 116.028 170.02L115.458 170.8ZM120.007 170.01C120.427 169.597 120.887 169.267 121.387 169.02C121.887 168.767 122.47 168.64 123.137 168.64C123.697 168.64 124.187 168.733 124.607 168.92C125.034 169.107 125.39 169.37 125.677 169.71C125.97 170.05 126.19 170.46 126.337 170.94C126.484 171.413 126.557 171.937 126.557 172.51V179H124.417V172.51C124.417 171.823 124.257 171.29 123.937 170.91C123.624 170.53 123.144 170.34 122.497 170.34C122.017 170.34 121.57 170.45 121.157 170.67C120.75 170.89 120.367 171.19 120.007 171.57V179H117.857V164.2H120.007V170.01ZM133.478 168.64C134.231 168.64 134.911 168.763 135.518 169.01C136.131 169.257 136.651 169.607 137.078 170.06C137.511 170.513 137.844 171.063 138.078 171.71C138.311 172.357 138.428 173.083 138.428 173.89C138.428 174.697 138.311 175.423 138.078 176.07C137.844 176.717 137.511 177.27 137.078 177.73C136.651 178.183 136.131 178.533 135.518 178.78C134.911 179.027 134.231 179.15 133.478 179.15C132.718 179.15 132.031 179.027 131.418 178.78C130.811 178.533 130.291 178.183 129.858 177.73C129.424 177.27 129.091 176.717 128.858 176.07C128.624 175.423 128.508 174.697 128.508 173.89C128.508 173.083 128.624 172.357 128.858 171.71C129.091 171.063 129.424 170.513 129.858 170.06C130.291 169.607 130.811 169.257 131.418 169.01C132.031 168.763 132.718 168.64 133.478 168.64ZM133.478 177.47C134.398 177.47 135.081 177.163 135.528 176.55C135.981 175.93 136.208 175.047 136.208 173.9C136.208 172.753 135.981 171.87 135.528 171.25C135.081 170.623 134.398 170.31 133.478 170.31C132.544 170.31 131.851 170.623 131.398 171.25C130.944 171.87 130.718 172.753 130.718 173.9C130.718 175.047 130.944 175.93 131.398 176.55C131.851 177.163 132.544 177.47 133.478 177.47ZM146.584 170.65C146.53 170.743 146.47 170.81 146.404 170.85C146.337 170.89 146.254 170.91 146.154 170.91C146.04 170.91 145.917 170.877 145.784 170.81C145.65 170.737 145.494 170.657 145.314 170.57C145.134 170.483 144.92 170.407 144.674 170.34C144.434 170.267 144.15 170.23 143.824 170.23C143.557 170.23 143.314 170.263 143.094 170.33C142.88 170.39 142.697 170.48 142.544 170.6C142.397 170.713 142.284 170.85 142.204 171.01C142.124 171.163 142.084 171.33 142.084 171.51C142.084 171.75 142.157 171.95 142.304 172.11C142.45 172.27 142.644 172.41 142.884 172.53C143.124 172.643 143.397 172.747 143.704 172.84C144.01 172.933 144.324 173.033 144.644 173.14C144.964 173.247 145.277 173.37 145.584 173.51C145.89 173.65 146.164 173.823 146.404 174.03C146.644 174.23 146.837 174.477 146.984 174.77C147.13 175.057 147.204 175.407 147.204 175.82C147.204 176.3 147.117 176.743 146.944 177.15C146.77 177.557 146.517 177.91 146.184 178.21C145.85 178.51 145.434 178.743 144.934 178.91C144.44 179.077 143.874 179.16 143.234 179.16C142.88 179.16 142.537 179.127 142.204 179.06C141.877 179 141.564 178.917 141.264 178.81C140.97 178.697 140.694 178.563 140.434 178.41C140.18 178.257 139.954 178.09 139.754 177.91L140.254 177.09C140.314 176.99 140.387 176.913 140.474 176.86C140.567 176.8 140.68 176.77 140.814 176.77C140.954 176.77 141.09 176.817 141.224 176.91C141.364 176.997 141.524 177.093 141.704 177.2C141.89 177.307 142.114 177.407 142.374 177.5C142.634 177.587 142.957 177.63 143.344 177.63C143.664 177.63 143.94 177.593 144.174 177.52C144.407 177.44 144.6 177.333 144.754 177.2C144.907 177.067 145.02 176.917 145.094 176.75C145.167 176.577 145.204 176.393 145.204 176.2C145.204 175.94 145.13 175.727 144.984 175.56C144.837 175.393 144.64 175.25 144.394 175.13C144.154 175.01 143.877 174.903 143.564 174.81C143.257 174.717 142.944 174.617 142.624 174.51C142.304 174.403 141.987 174.28 141.674 174.14C141.367 174 141.09 173.823 140.844 173.61C140.604 173.39 140.41 173.127 140.264 172.82C140.117 172.507 140.044 172.127 140.044 171.68C140.044 171.273 140.124 170.887 140.284 170.52C140.45 170.153 140.69 169.83 141.004 169.55C141.324 169.27 141.714 169.05 142.174 168.89C142.64 168.723 143.177 168.64 143.784 168.64C144.47 168.64 145.094 168.75 145.654 168.97C146.214 169.19 146.684 169.49 147.064 169.87L146.584 170.65ZM155.914 172.75C155.914 172.39 155.861 172.057 155.754 171.75C155.654 171.437 155.504 171.167 155.304 170.94C155.104 170.707 154.854 170.527 154.554 170.4C154.261 170.267 153.921 170.2 153.534 170.2C152.754 170.2 152.141 170.423 151.694 170.87C151.247 171.317 150.964 171.943 150.844 172.75H155.914ZM150.784 174.07C150.811 174.65 150.901 175.153 151.054 175.58C151.207 176 151.411 176.35 151.664 176.63C151.924 176.91 152.231 177.12 152.584 177.26C152.944 177.393 153.344 177.46 153.784 177.46C154.204 177.46 154.567 177.413 154.874 177.32C155.181 177.22 155.447 177.113 155.674 177C155.901 176.88 156.094 176.773 156.254 176.68C156.414 176.58 156.561 176.53 156.694 176.53C156.867 176.53 157.001 176.597 157.094 176.73L157.704 177.52C157.451 177.82 157.164 178.073 156.844 178.28C156.524 178.487 156.184 178.657 155.824 178.79C155.464 178.917 155.094 179.007 154.714 179.06C154.334 179.12 153.964 179.15 153.604 179.15C152.897 179.15 152.241 179.033 151.634 178.8C151.034 178.56 150.511 178.21 150.064 177.75C149.624 177.29 149.277 176.72 149.024 176.04C148.777 175.36 148.654 174.577 148.654 173.69C148.654 172.983 148.764 172.323 148.984 171.71C149.211 171.097 149.531 170.563 149.944 170.11C150.364 169.657 150.871 169.3 151.464 169.04C152.064 168.773 152.741 168.64 153.494 168.64C154.121 168.64 154.701 168.743 155.234 168.95C155.767 169.15 156.227 169.447 156.614 169.84C157.001 170.233 157.301 170.717 157.514 171.29C157.734 171.857 157.844 172.503 157.844 173.23C157.844 173.563 157.807 173.787 157.734 173.9C157.661 174.013 157.527 174.07 157.334 174.07H150.784ZM161.859 170.15C162.079 169.923 162.306 169.72 162.539 169.54C162.779 169.353 163.032 169.193 163.299 169.06C163.566 168.927 163.849 168.823 164.149 168.75C164.449 168.677 164.776 168.64 165.129 168.64C165.689 168.64 166.179 168.733 166.599 168.92C167.026 169.107 167.382 169.37 167.669 169.71C167.962 170.05 168.182 170.46 168.329 170.94C168.476 171.413 168.549 171.937 168.549 172.51V179H166.409V172.51C166.409 171.823 166.249 171.29 165.929 170.91C165.616 170.53 165.136 170.34 164.489 170.34C164.009 170.34 163.562 170.45 163.149 170.67C162.742 170.89 162.359 171.19 161.999 171.57V179H159.849V168.8H161.149C161.442 168.8 161.629 168.937 161.709 169.21L161.859 170.15ZM170.73 177.76C170.73 177.567 170.763 177.387 170.83 177.22C170.903 177.047 171 176.897 171.12 176.77C171.247 176.643 171.393 176.543 171.56 176.47C171.733 176.397 171.917 176.36 172.11 176.36C172.303 176.36 172.483 176.397 172.65 176.47C172.823 176.543 172.973 176.643 173.1 176.77C173.227 176.897 173.327 177.047 173.4 177.22C173.473 177.387 173.51 177.567 173.51 177.76C173.51 177.96 173.473 178.143 173.4 178.31C173.327 178.477 173.227 178.623 173.1 178.75C172.973 178.877 172.823 178.973 172.65 179.04C172.483 179.113 172.303 179.15 172.11 179.15C171.917 179.15 171.733 179.113 171.56 179.04C171.393 178.973 171.247 178.877 171.12 178.75C171 178.623 170.903 178.477 170.83 178.31C170.763 178.143 170.73 177.96 170.73 177.76ZM177.937 176.44C178.237 176.827 178.563 177.1 178.917 177.26C179.277 177.413 179.673 177.49 180.107 177.49C180.947 177.49 181.6 177.183 182.067 176.57C182.54 175.957 182.777 175.043 182.777 173.83C182.777 173.203 182.723 172.67 182.617 172.23C182.51 171.783 182.357 171.42 182.157 171.14C181.957 170.86 181.713 170.657 181.427 170.53C181.14 170.403 180.817 170.34 180.457 170.34C179.91 170.34 179.437 170.46 179.037 170.7C178.643 170.933 178.277 171.27 177.937 171.71V176.44ZM177.827 170.28C178.253 169.78 178.737 169.377 179.277 169.07C179.823 168.763 180.457 168.61 181.177 168.61C181.75 168.61 182.27 168.727 182.737 168.96C183.203 169.187 183.603 169.52 183.937 169.96C184.27 170.4 184.527 170.947 184.707 171.6C184.893 172.247 184.987 172.99 184.987 173.83C184.987 174.583 184.883 175.287 184.677 175.94C184.477 176.587 184.187 177.15 183.807 177.63C183.427 178.103 182.967 178.477 182.427 178.75C181.887 179.017 181.277 179.15 180.597 179.15C179.997 179.15 179.487 179.053 179.067 178.86C178.653 178.667 178.277 178.4 177.937 178.06V182.39H175.787V168.8H177.087C177.38 168.8 177.567 168.937 177.647 169.21L177.827 170.28ZM193.586 171.31C193.286 170.923 192.956 170.653 192.596 170.5C192.236 170.347 191.846 170.27 191.426 170.27C190.586 170.27 189.929 170.58 189.456 171.2C188.982 171.813 188.746 172.723 188.746 173.93C188.746 174.557 188.799 175.093 188.906 175.54C189.012 175.98 189.166 176.34 189.366 176.62C189.566 176.9 189.809 177.103 190.096 177.23C190.382 177.357 190.706 177.42 191.066 177.42C191.612 177.42 192.082 177.303 192.476 177.07C192.876 176.83 193.246 176.493 193.586 176.06V171.31ZM195.736 164.2V179H194.436C194.149 179 193.966 178.863 193.886 178.59L193.696 177.48C193.269 177.98 192.782 178.383 192.236 178.69C191.696 178.997 191.066 179.15 190.346 179.15C189.772 179.15 189.252 179.037 188.786 178.81C188.319 178.577 187.919 178.24 187.586 177.8C187.252 177.36 186.992 176.817 186.806 176.17C186.626 175.517 186.536 174.77 186.536 173.93C186.536 173.17 186.636 172.467 186.836 171.82C187.042 171.173 187.336 170.613 187.716 170.14C188.096 169.66 188.556 169.287 189.096 169.02C189.642 168.747 190.252 168.61 190.926 168.61C191.526 168.61 192.036 168.707 192.456 168.9C192.876 169.087 193.252 169.35 193.586 169.69V164.2H195.736ZM199.055 179V170.51L198.055 170.37C197.888 170.337 197.751 170.277 197.645 170.19C197.545 170.103 197.495 169.98 197.495 169.82V168.94H199.055V168.08C199.055 167.5 199.138 166.98 199.305 166.52C199.478 166.06 199.721 165.67 200.035 165.35C200.355 165.03 200.741 164.787 201.195 164.62C201.648 164.447 202.158 164.36 202.725 164.36C202.958 164.36 203.178 164.377 203.385 164.41C203.598 164.443 203.805 164.493 204.005 164.56L203.965 165.64C203.951 165.82 203.861 165.927 203.695 165.96C203.535 165.993 203.331 166.01 203.085 166.01C202.785 166.01 202.515 166.047 202.275 166.12C202.035 166.187 201.828 166.303 201.655 166.47C201.488 166.637 201.358 166.857 201.265 167.13C201.178 167.403 201.135 167.743 201.135 168.15V168.94H203.925V170.49H201.205V179H199.055Z" fill="#333333"/>
<path d="M413.9 164.72C415.127 164.72 416.133 164.873 416.92 165.18C417.707 165.487 418.293 165.947 418.68 166.56C419.067 167.16 419.26 167.92 419.26 168.84C419.26 169.573 419.12 170.193 418.84 170.7C418.573 171.193 418.227 171.6 417.8 171.92C417.373 172.227 416.927 172.473 416.46 172.66L420.46 179H417.98L414.54 173.22H412.06V179H409.9V164.72H413.9ZM413.76 166.56H412.06V171.42H413.86C414.593 171.42 415.193 171.327 415.66 171.14C416.14 170.953 416.487 170.673 416.7 170.3C416.927 169.927 417.04 169.467 417.04 168.92C417.04 168.347 416.92 167.893 416.68 167.56C416.453 167.213 416.093 166.96 415.6 166.8C415.12 166.64 414.507 166.56 413.76 166.56ZM426.556 168.02C427.503 168.02 428.316 168.22 428.996 168.62C429.676 169.007 430.196 169.567 430.556 170.3C430.93 171.033 431.116 171.9 431.116 172.9V174.06H423.876C423.903 175.167 424.19 176.013 424.736 176.6C425.296 177.187 426.076 177.48 427.076 177.48C427.77 177.48 428.383 177.42 428.916 177.3C429.463 177.167 430.023 176.973 430.596 176.72V178.48C430.063 178.72 429.516 178.9 428.956 179.02C428.41 179.14 427.756 179.2 426.996 179.2C425.956 179.2 425.036 178.993 424.236 178.58C423.436 178.167 422.81 177.553 422.356 176.74C421.916 175.913 421.696 174.9 421.696 173.7C421.696 172.487 421.896 171.46 422.296 170.62C422.71 169.78 423.276 169.14 423.996 168.7C424.73 168.247 425.583 168.02 426.556 168.02ZM426.556 169.66C425.796 169.66 425.183 169.907 424.716 170.4C424.263 170.893 423.996 171.593 423.916 172.5H428.996C428.996 171.94 428.91 171.447 428.736 171.02C428.563 170.593 428.296 170.26 427.936 170.02C427.576 169.78 427.116 169.66 426.556 169.66ZM445.842 168.02C447.055 168.02 447.968 168.333 448.582 168.96C449.195 169.587 449.502 170.593 449.502 171.98V179H447.382V172.26C447.382 171.433 447.215 170.813 446.882 170.4C446.562 169.973 446.055 169.76 445.362 169.76C444.402 169.76 443.715 170.06 443.302 170.66C442.888 171.247 442.682 172.1 442.682 173.22V179H440.582V172.26C440.582 171.713 440.502 171.253 440.342 170.88C440.195 170.507 439.975 170.227 439.682 170.04C439.388 169.853 439.008 169.76 438.542 169.76C437.875 169.76 437.348 169.907 436.962 170.2C436.575 170.493 436.295 170.927 436.122 171.5C435.962 172.06 435.882 172.747 435.882 173.56V179H433.762V168.22H435.442L435.742 169.66H435.862C436.088 169.287 436.362 168.98 436.682 168.74C437.015 168.5 437.382 168.32 437.782 168.2C438.182 168.08 438.595 168.02 439.022 168.02C439.835 168.02 440.522 168.167 441.082 168.46C441.642 168.74 442.048 169.173 442.302 169.76H442.462C442.808 169.16 443.288 168.72 443.902 168.44C444.515 168.16 445.162 168.02 445.842 168.02ZM462.246 173.6C462.246 174.493 462.126 175.287 461.886 175.98C461.646 176.673 461.306 177.26 460.866 177.74C460.426 178.22 459.893 178.587 459.266 178.84C458.639 179.08 457.933 179.2 457.146 179.2C456.426 179.2 455.759 179.08 455.146 178.84C454.533 178.587 453.999 178.22 453.546 177.74C453.106 177.26 452.759 176.673 452.506 175.98C452.253 175.287 452.126 174.487 452.126 173.58C452.126 172.393 452.326 171.387 452.726 170.56C453.139 169.733 453.726 169.107 454.486 168.68C455.259 168.24 456.166 168.02 457.206 168.02C458.193 168.02 459.059 168.24 459.806 168.68C460.566 169.107 461.159 169.733 461.586 170.56C462.026 171.387 462.246 172.4 462.246 173.6ZM454.306 173.6C454.306 174.4 454.406 175.093 454.606 175.68C454.806 176.253 455.119 176.693 455.546 177C455.973 177.307 456.519 177.46 457.186 177.46C457.853 177.46 458.399 177.307 458.826 177C459.253 176.693 459.566 176.253 459.766 175.68C459.966 175.093 460.066 174.4 460.066 173.6C460.066 172.773 459.959 172.08 459.746 171.52C459.546 170.96 459.233 170.533 458.806 170.24C458.393 169.933 457.846 169.78 457.166 169.78C456.166 169.78 455.439 170.113 454.986 170.78C454.533 171.447 454.306 172.387 454.306 173.6ZM466.963 179L462.883 168.22H465.123L467.363 174.52C467.456 174.787 467.549 175.087 467.643 175.42C467.749 175.753 467.843 176.073 467.923 176.38C468.003 176.687 468.056 176.953 468.083 177.18H468.163C468.203 176.953 468.263 176.687 468.343 176.38C468.436 176.06 468.536 175.74 468.643 175.42C468.749 175.087 468.843 174.787 468.923 174.52L471.163 168.22H473.403L469.303 179H466.963ZM479.31 168.02C480.257 168.02 481.07 168.22 481.75 168.62C482.43 169.007 482.95 169.567 483.31 170.3C483.683 171.033 483.87 171.9 483.87 172.9V174.06H476.63C476.657 175.167 476.943 176.013 477.49 176.6C478.05 177.187 478.83 177.48 479.83 177.48C480.523 177.48 481.137 177.42 481.67 177.3C482.217 177.167 482.777 176.973 483.35 176.72V178.48C482.817 178.72 482.27 178.9 481.71 179.02C481.163 179.14 480.51 179.2 479.75 179.2C478.71 179.2 477.79 178.993 476.99 178.58C476.19 178.167 475.563 177.553 475.11 176.74C474.67 175.913 474.45 174.9 474.45 173.7C474.45 172.487 474.65 171.46 475.05 170.62C475.463 169.78 476.03 169.14 476.75 168.7C477.483 168.247 478.337 168.02 479.31 168.02ZM479.31 169.66C478.55 169.66 477.937 169.907 477.47 170.4C477.017 170.893 476.75 171.593 476.67 172.5H481.75C481.75 171.94 481.663 171.447 481.49 171.02C481.317 170.593 481.05 170.26 480.69 170.02C480.33 169.78 479.87 169.66 479.31 169.66Z" fill="#A62A1E"/>
<path d="M485 182H408V184H485V182Z" fill="#A62A1E" mask="url(#path-7-outside-1_6976_17929)"/>
<path d="M509.359 175.641C509.867 176.109 509.867 176.93 509.359 177.398C509.125 177.633 508.812 177.75 508.5 177.75C508.148 177.75 507.836 177.633 507.602 177.398L503.5 173.297L499.359 177.398C499.125 177.633 498.812 177.75 498.5 177.75C498.148 177.75 497.836 177.633 497.602 177.398C497.094 176.93 497.094 176.109 497.602 175.641L501.703 171.5L497.602 167.398C497.094 166.93 497.094 166.109 497.602 165.641C498.07 165.133 498.891 165.133 499.359 165.641L503.5 169.742L507.602 165.641C508.07 165.133 508.891 165.133 509.359 165.641C509.867 166.109 509.867 166.93 509.359 167.398L505.258 171.539L509.359 175.641Z" fill="#A62A1E"/>
<rect x="49" y="136" width="478" height="70" stroke="#7D828B" stroke-width="2"/>
<g clip-path="url(#clip0_6976_17929)">
<rect x="459" y="171" width="111" height="1" fill="#C54600"/>
<g clip-path="url(#clip1_6976_17929)">
<rect x="558" y="159" width="24" height="24" rx="12" fill="#C54600"/>
<path d="M570.112 176.139C569.588 176.136 569.083 176.048 568.596 175.876C568.112 175.703 567.677 175.423 567.293 175.036C566.908 174.648 566.604 174.134 566.378 173.494C566.156 172.855 566.045 172.069 566.045 171.138C566.048 170.283 566.146 169.519 566.338 168.846C566.534 168.17 566.812 167.596 567.174 167.126C567.538 166.655 567.974 166.297 568.481 166.052C568.988 165.803 569.557 165.679 570.186 165.679C570.866 165.679 571.466 165.812 571.986 166.077C572.507 166.339 572.924 166.695 573.239 167.146C573.557 167.596 573.749 168.102 573.816 168.662H571.693C571.61 168.307 571.436 168.029 571.171 167.827C570.906 167.625 570.578 167.523 570.186 167.523C569.524 167.523 569.02 167.812 568.675 168.388C568.334 168.965 568.16 169.749 568.153 170.74H568.223C568.375 170.438 568.581 170.182 568.839 169.969C569.101 169.754 569.398 169.59 569.729 169.477C570.064 169.361 570.417 169.303 570.788 169.303C571.391 169.303 571.928 169.446 572.399 169.731C572.869 170.013 573.241 170.4 573.512 170.894C573.784 171.388 573.92 171.953 573.92 172.589C573.92 173.279 573.759 173.892 573.438 174.429C573.12 174.966 572.674 175.387 572.1 175.692C571.53 175.993 570.868 176.143 570.112 176.139ZM570.102 174.449C570.433 174.449 570.73 174.369 570.992 174.21C571.254 174.051 571.459 173.836 571.608 173.564C571.757 173.292 571.832 172.987 571.832 172.649C571.832 172.311 571.757 172.008 571.608 171.739C571.462 171.471 571.26 171.257 571.002 171.098C570.743 170.939 570.448 170.859 570.117 170.859C569.868 170.859 569.638 170.906 569.426 170.999C569.217 171.091 569.033 171.221 568.874 171.386C568.718 171.552 568.596 171.744 568.506 171.963C568.417 172.179 568.372 172.409 568.372 172.654C568.372 172.982 568.446 173.282 568.596 173.554C568.748 173.826 568.953 174.043 569.212 174.205C569.474 174.368 569.77 174.449 570.102 174.449Z" fill="white"/>
</g>
</g>
<g clip-path="url(#clip2_6976_17929)">
<rect x="137" y="145.864" width="1" height="74.5428" fill="#C54600"/>
<g clip-path="url(#clip3_6976_17929)">
<rect x="126" y="220" width="24" height="24" rx="12" fill="#C54600"/>
<path d="M138.032 237.139C137.33 237.139 136.703 237.01 136.153 236.751C135.606 236.493 135.172 236.137 134.85 235.683C134.529 235.228 134.362 234.708 134.348 234.121H136.436C136.46 234.516 136.625 234.836 136.934 235.081C137.242 235.326 137.608 235.449 138.032 235.449C138.37 235.449 138.669 235.374 138.927 235.225C139.189 235.073 139.393 234.862 139.539 234.594C139.688 234.322 139.762 234.01 139.762 233.659C139.762 233.301 139.686 232.986 139.534 232.714C139.385 232.443 139.177 232.231 138.912 232.078C138.647 231.926 138.344 231.848 138.002 231.844C137.704 231.844 137.414 231.906 137.132 232.028C136.854 232.151 136.637 232.318 136.481 232.531L134.567 232.188L135.049 226.818H141.274V228.578H136.824L136.561 231.129H136.62C136.799 230.877 137.069 230.668 137.431 230.502C137.792 230.336 138.196 230.254 138.644 230.254C139.257 230.254 139.804 230.398 140.284 230.686C140.765 230.974 141.145 231.371 141.423 231.874C141.701 232.375 141.839 232.951 141.836 233.604C141.839 234.29 141.68 234.9 141.358 235.434C141.04 235.964 140.594 236.382 140.021 236.687C139.451 236.988 138.788 237.139 138.032 237.139Z" fill="white"/>
</g>
</g>
<g clip-path="url(#clip4_6976_17929)">
<rect y="171" width="48" height="1" fill="#C54600"/>
<g clip-path="url(#clip5_6976_17929)">
<rect y="159" width="24" height="24" rx="12" fill="#C54600"/>
<path d="M7.92702 174.21V172.515L12.1777 165.818H13.6394V168.165H12.7743L10.0946 172.406V172.485H16.1351V174.21H7.92702ZM12.8141 176V173.693L12.8539 172.942V165.818H14.8723V176H12.8141Z" fill="white"/>
</g>
</g>
<g clip-path="url(#clip6_6976_17929)">
<rect y="93" width="48" height="1" fill="#C54600"/>
<g clip-path="url(#clip7_6976_17929)">
<rect y="81" width="24" height="24" rx="12" fill="#C54600"/>
<path d="M11.9745 98.1392C11.2321 98.1392 10.5709 98.0116 9.99086 97.7564C9.41415 97.4979 8.95842 97.1432 8.62367 96.6925C8.29223 96.2384 8.12154 95.7147 8.11159 95.1214H10.2792C10.2925 95.37 10.3737 95.5888 10.5228 95.7777C10.6753 95.9633 10.8775 96.1075 11.1294 96.2102C11.3812 96.313 11.6646 96.3643 11.9795 96.3643C12.3076 96.3643 12.5976 96.3063 12.8495 96.1903C13.1014 96.0743 13.2986 95.9136 13.4411 95.7081C13.5837 95.5026 13.6549 95.2656 13.6549 94.9972C13.6549 94.7254 13.5787 94.4851 13.4262 94.2763C13.2771 94.0642 13.0616 93.8984 12.7799 93.7791C12.5015 93.6598 12.1701 93.6001 11.7856 93.6001H10.836V92.0192H11.7856C12.1104 92.0192 12.3971 91.9628 12.6457 91.8501C12.8976 91.7375 13.0931 91.5817 13.2323 91.3828C13.3715 91.1806 13.4411 90.9453 13.4411 90.6768C13.4411 90.4216 13.3798 90.1979 13.2572 90.0057C13.1379 89.8101 12.9688 89.6577 12.7501 89.5483C12.5347 89.4389 12.2828 89.3842 11.9944 89.3842C11.7027 89.3842 11.4359 89.4373 11.194 89.5433C10.952 89.6461 10.7581 89.7936 10.6123 89.9858C10.4665 90.178 10.3886 90.4034 10.3786 90.6619H8.31543C8.32537 90.0753 8.49275 89.5582 8.81756 89.1108C9.14237 88.6634 9.57987 88.3137 10.1301 88.0618C10.6836 87.8066 11.3083 87.679 12.0044 87.679C12.707 87.679 13.3218 87.8066 13.8488 88.0618C14.3758 88.317 14.7851 88.6617 15.0768 89.0959C15.3718 89.5268 15.5176 90.0107 15.5143 90.5476C15.5176 91.1177 15.3403 91.5933 14.9823 91.9744C14.6277 92.3556 14.1653 92.5975 13.5953 92.7003V92.7798C14.3443 92.8759 14.9144 93.1361 15.3055 93.5604C15.6999 93.9813 15.8954 94.5083 15.8921 95.1413C15.8954 95.7214 15.7281 96.2367 15.39 96.6875C15.0553 97.1383 14.5929 97.4929 14.0029 97.7514C13.413 98.0099 12.7368 98.1392 11.9745 98.1392Z" fill="white"/>
</g>
</g>
<g clip-path="url(#clip8_6976_17929)">
<rect y="42" width="48" height="1" fill="#C54600"/>
<g clip-path="url(#clip9_6976_17929)">
<rect y="30" width="24" height="24" rx="12" fill="#C54600"/>
<path d="M8.4161 47V45.4489L12.0404 42.093C12.3486 41.7947 12.6072 41.5263 12.816 41.2876C13.0281 41.049 13.1888 40.8153 13.2982 40.5866C13.4076 40.3546 13.4623 40.1044 13.4623 39.8359C13.4623 39.5376 13.3943 39.2808 13.2584 39.0653C13.1225 38.8466 12.9369 38.6792 12.7016 38.5632C12.4663 38.4439 12.1995 38.3842 11.9012 38.3842C11.5896 38.3842 11.3179 38.4472 11.0858 38.5732C10.8538 38.6991 10.6749 38.8797 10.5489 39.1151C10.423 39.3504 10.36 39.6304 10.36 39.9553H8.31667C8.31667 39.2891 8.46748 38.7107 8.76909 38.2202C9.0707 37.7296 9.49328 37.3501 10.0368 37.0817C10.5804 36.8132 11.2068 36.679 11.9161 36.679C12.6453 36.679 13.28 36.8082 13.8202 37.0668C14.3638 37.322 14.7864 37.6766 15.088 38.1307C15.3896 38.5848 15.5404 39.1051 15.5404 39.6918C15.5404 40.0762 15.4642 40.4557 15.3117 40.8303C15.1626 41.2048 14.8957 41.6207 14.5113 42.0781C14.1268 42.5322 13.5849 43.0774 12.8856 43.7138L11.3991 45.1705V45.2401H15.6746V47H8.4161Z" fill="white"/>
</g>
</g>
<g clip-path="url(#clip10_6976_17929)">
<rect y="12" width="48" height="1" fill="#C54600"/>
<g clip-path="url(#clip11_6976_17929)">
<rect width="24" height="24" rx="12" fill="#C54600"/>
<path d="M13.8302 6.81818V17H11.6775V8.86151H11.6178L9.28613 10.3232V8.41406L11.8067 6.81818H13.8302Z" fill="white"/>
</g>
</g>
<defs>
<clipPath id="clip0_6976_17929">
<rect width="69" height="24" fill="white" transform="translate(513 159)"/>
</clipPath>
<clipPath id="clip1_6976_17929">
<rect x="558" y="159" width="24" height="24" rx="12" fill="white"/>
</clipPath>
<clipPath id="clip2_6976_17929">
<rect width="24" height="61" fill="white" transform="translate(126 183)"/>
</clipPath>
<clipPath id="clip3_6976_17929">
<rect x="126" y="220" width="24" height="24" rx="12" fill="white"/>
</clipPath>
<clipPath id="clip4_6976_17929">
<rect width="48" height="24" fill="white" transform="translate(0 159)"/>
</clipPath>
<clipPath id="clip5_6976_17929">
<rect y="159" width="24" height="24" rx="12" fill="white"/>
</clipPath>
<clipPath id="clip6_6976_17929">
<rect width="48" height="24" fill="white" transform="translate(0 81)"/>
</clipPath>
<clipPath id="clip7_6976_17929">
<rect y="81" width="24" height="24" rx="12" fill="white"/>
</clipPath>
<clipPath id="clip8_6976_17929">
<rect width="48" height="24" fill="white" transform="translate(0 30)"/>
</clipPath>
<clipPath id="clip9_6976_17929">
<rect y="30" width="24" height="24" rx="12" fill="white"/>
</clipPath>
<clipPath id="clip10_6976_17929">
<rect width="48" height="24" fill="white"/>
</clipPath>
<clipPath id="clip11_6976_17929">
<rect width="24" height="24" rx="12" fill="white"/>
</clipPath>
</defs>
</svg>
