<svg width="150" height="128" viewBox="0 0 150 128" fill="none" xmlns="http://www.w3.org/2000/svg">
<path d="M33.6579 70L40.5 63.1579L38.9211 61.5789L30.5 70L38.9211 78.4211L40.5 76.8421L33.6579 70Z" fill="#284162"/>
<path d="M61.4723 63.72C63.3389 63.72 64.6989 64.1 65.5523 64.86C66.4056 65.6067 66.8323 66.6533 66.8323 68C66.8323 68.8 66.6523 69.5467 66.2923 70.24C65.9456 70.9333 65.3589 71.5 64.5323 71.94C63.7056 72.3667 62.5856 72.58 61.1723 72.58H59.6323V78H57.4723V63.72H61.4723ZM61.3123 65.54H59.6323V70.76H60.9323C62.1456 70.76 63.0589 70.56 63.6723 70.16C64.2989 69.7467 64.6123 69.0533 64.6123 68.08C64.6123 67.2267 64.3456 66.5933 63.8123 66.18C63.2789 65.7533 62.4456 65.54 61.3123 65.54ZM74.7984 67.02C75.225 67.02 75.6184 67.0533 75.9784 67.12L75.7584 69.1C75.4117 69.0067 75.0517 68.96 74.6784 68.96C74.1317 68.96 73.625 69.0933 73.1584 69.36C72.6917 69.6267 72.3117 70.0133 72.0184 70.52C71.7384 71.0133 71.5984 71.6133 71.5984 72.32V78H69.4784V67.22H71.1584L71.4384 69.14H71.5184C71.8517 68.5667 72.2984 68.0733 72.8584 67.66C73.4184 67.2333 74.065 67.02 74.7984 67.02ZM81.8238 67.02C83.2372 67.02 84.3505 67.46 85.1638 68.34C85.9772 69.2067 86.3838 70.3933 86.3838 71.9V73.06H79.1438C79.1705 74.1667 79.4572 75.0133 80.0038 75.6C80.5638 76.1867 81.3438 76.48 82.3438 76.48C83.0372 76.48 83.6505 76.42 84.1838 76.3C84.7305 76.1667 85.2905 75.9733 85.8638 75.72V77.48C85.3172 77.7333 84.7705 77.9133 84.2238 78.02C83.6772 78.14 83.0238 78.2 82.2638 78.2C81.2238 78.2 80.3038 77.9933 79.5038 77.58C78.7038 77.1667 78.0772 76.5533 77.6238 75.74C77.1838 74.9267 76.9638 73.9133 76.9638 72.7C76.9638 71.4867 77.1638 70.46 77.5638 69.62C77.9772 68.78 78.5438 68.14 79.2638 67.7C79.9972 67.2467 80.8505 67.02 81.8238 67.02ZM81.8238 68.66C81.0638 68.66 80.4505 68.9067 79.9838 69.4C79.5305 69.8933 79.2638 70.5933 79.1838 71.5H84.2638C84.2505 70.66 84.0438 69.98 83.6438 69.46C83.2572 68.9267 82.6505 68.66 81.8238 68.66ZM91.0585 78L86.9785 67.22H89.2185L91.4585 73.52C91.5918 73.9467 91.7318 74.4133 91.8785 74.92C92.0252 75.4267 92.1252 75.8467 92.1785 76.18H92.2585C92.3118 75.8467 92.4185 75.4267 92.5785 74.92C92.7385 74.4 92.8852 73.9333 93.0185 73.52L95.2585 67.22H97.4985L93.3985 78H91.0585ZM100.246 63.12C100.566 63.12 100.846 63.2133 101.086 63.4C101.326 63.5867 101.446 63.9 101.446 64.34C101.446 64.7667 101.326 65.08 101.086 65.28C100.846 65.4667 100.566 65.56 100.246 65.56C99.9125 65.56 99.6259 65.4667 99.3859 65.28C99.1459 65.08 99.0259 64.7667 99.0259 64.34C99.0259 63.9 99.1459 63.5867 99.3859 63.4C99.6259 63.2133 99.9125 63.12 100.246 63.12ZM101.286 67.22V78H99.1659V67.22H101.286ZM114.115 72.6C114.115 74.3867 113.655 75.7667 112.735 76.74C111.815 77.7133 110.575 78.2 109.015 78.2C108.042 78.2 107.175 77.9867 106.415 77.56C105.668 77.12 105.075 76.4867 104.635 75.66C104.208 74.82 103.995 73.8 103.995 72.6C103.995 70.8133 104.448 69.44 105.355 68.48C106.262 67.5067 107.502 67.02 109.075 67.02C110.062 67.02 110.928 67.24 111.675 67.68C112.435 68.1067 113.028 68.7333 113.455 69.56C113.895 70.3867 114.115 71.4 114.115 72.6ZM106.175 72.6C106.175 73.8133 106.402 74.76 106.855 75.44C107.322 76.12 108.055 76.46 109.055 76.46C110.055 76.46 110.782 76.12 111.235 75.44C111.702 74.76 111.935 73.8133 111.935 72.6C111.935 71.3733 111.702 70.4333 111.235 69.78C110.782 69.1133 110.048 68.78 109.035 68.78C108.035 68.78 107.308 69.1133 106.855 69.78C106.402 70.4333 106.175 71.3733 106.175 72.6ZM126.083 67.22V78H124.383L124.083 76.58H123.983C123.636 77.14 123.156 77.5533 122.543 77.82C121.929 78.0733 121.283 78.2 120.603 78.2C119.336 78.2 118.369 77.8933 117.703 77.28C117.036 76.6533 116.703 75.6533 116.703 74.28V67.22H118.843V73.96C118.843 74.8 119.016 75.4267 119.363 75.84C119.723 76.2533 120.276 76.46 121.023 76.46C122.129 76.46 122.896 76.14 123.323 75.5C123.749 74.8467 123.963 73.9067 123.963 72.68V67.22H126.083ZM136.56 74.96C136.56 76.0267 136.174 76.8333 135.4 77.38C134.64 77.9267 133.567 78.2 132.18 78.2C131.42 78.2 130.767 78.1467 130.22 78.04C129.687 77.9333 129.194 77.7667 128.74 77.54V75.68C129.207 75.9067 129.754 76.1133 130.38 76.3C131.02 76.4733 131.64 76.56 132.24 76.56C133.04 76.56 133.614 76.4333 133.96 76.18C134.32 75.9267 134.5 75.5867 134.5 75.16C134.5 74.92 134.434 74.7067 134.3 74.52C134.167 74.32 133.914 74.12 133.54 73.92C133.18 73.7067 132.647 73.4667 131.94 73.2C131.247 72.9333 130.66 72.66 130.18 72.38C129.714 72.1 129.354 71.7667 129.1 71.38C128.847 70.9933 128.72 70.5067 128.72 69.92C128.72 68.9867 129.094 68.2733 129.84 67.78C130.6 67.2733 131.6 67.02 132.84 67.02C133.494 67.02 134.107 67.0867 134.68 67.22C135.267 67.3533 135.834 67.54 136.38 67.78L135.68 69.4C135.214 69.2 134.734 69.0333 134.24 68.9C133.747 68.7533 133.247 68.68 132.74 68.68C131.434 68.68 130.78 69.06 130.78 69.82C130.78 70.0733 130.854 70.2933 131 70.48C131.16 70.6667 131.427 70.8533 131.8 71.04C132.187 71.2267 132.72 71.4533 133.4 71.72C134.054 71.9733 134.614 72.24 135.08 72.52C135.56 72.7867 135.927 73.1133 136.18 73.5C136.434 73.8867 136.56 74.3733 136.56 74.96Z" fill="#284162"/>
<path d="M55.5723 80.5H137.42V81.5H55.5723V80.5Z" fill="#284162"/>
<path d="M62.9672 112H61.2472V102.02C61.2472 101.447 61.2539 100.987 61.2672 100.64C61.2805 100.293 61.3005 99.9333 61.3272 99.56C61.1139 99.7733 60.9205 99.9533 60.7472 100.1C60.5739 100.247 60.3539 100.433 60.0872 100.66L58.5672 101.9L57.6472 100.72L61.5072 97.72H62.9672V112ZM83.5278 106.62C83.5278 108.393 83.0745 109.767 82.1678 110.74C81.2745 111.713 80.0611 112.2 78.5278 112.2C77.5811 112.2 76.7345 111.987 75.9878 111.56C75.2545 111.12 74.6745 110.487 74.2478 109.66C73.8211 108.82 73.6078 107.807 73.6078 106.62C73.6078 104.847 74.0545 103.48 74.9478 102.52C75.8411 101.56 77.0545 101.08 78.5878 101.08C79.5611 101.08 80.4145 101.3 81.1478 101.74C81.8945 102.167 82.4745 102.793 82.8878 103.62C83.3145 104.433 83.5278 105.433 83.5278 106.62ZM75.4278 106.62C75.4278 107.887 75.6745 108.893 76.1678 109.64C76.6745 110.373 77.4745 110.74 78.5678 110.74C79.6478 110.74 80.4411 110.373 80.9478 109.64C81.4545 108.893 81.7078 107.887 81.7078 106.62C81.7078 105.353 81.4545 104.36 80.9478 103.64C80.4411 102.92 79.6411 102.56 78.5478 102.56C77.4545 102.56 76.6611 102.92 76.1678 103.64C75.6745 104.36 75.4278 105.353 75.4278 106.62ZM91.2572 102.64H88.5572V112H86.7972V102.64H84.9172V101.82L86.7972 101.22V100.6C86.7972 99.2133 87.1039 98.22 87.7172 97.62C88.3305 97.0067 89.1839 96.7 90.2772 96.7C90.7039 96.7 91.0905 96.74 91.4372 96.82C91.7972 96.8867 92.1039 96.9667 92.3572 97.06L91.8972 98.44C91.6839 98.3733 91.4372 98.3067 91.1572 98.24C90.8772 98.1733 90.5905 98.14 90.2972 98.14C89.7105 98.14 89.2705 98.34 88.9772 98.74C88.6972 99.1267 88.5572 99.74 88.5572 100.58V101.28H91.2572V102.64ZM102.188 103.24C103.654 103.24 104.821 103.607 105.688 104.34C106.554 105.073 106.988 106.107 106.988 107.44C106.988 108.92 106.514 110.087 105.568 110.94C104.634 111.78 103.328 112.2 101.648 112.2C100.914 112.2 100.221 112.133 99.5675 112C98.9275 111.867 98.3875 111.673 97.9475 111.42V109.76C98.4275 110.053 99.0075 110.287 99.6875 110.46C100.381 110.62 101.041 110.7 101.668 110.7C102.721 110.7 103.568 110.453 104.208 109.96C104.861 109.453 105.188 108.673 105.188 107.62C105.188 106.687 104.901 105.973 104.328 105.48C103.754 104.973 102.848 104.72 101.608 104.72C101.234 104.72 100.808 104.753 100.328 104.82C99.8475 104.887 99.4608 104.953 99.1675 105.02L98.2875 104.46L98.8275 97.72H105.988V99.32H100.328L99.9875 103.46C100.214 103.42 100.521 103.373 100.908 103.32C101.294 103.267 101.721 103.24 102.188 103.24Z" fill="#284162"/>
<path d="M55.8672 114.5H108.128V115.5H55.8672V114.5Z" fill="#284162"/>
<g clip-path="url(#clip0_6135_18107)">
<rect x="33" width="1" height="60" fill="#C54600"/>
<g clip-path="url(#clip1_6135_18107)">
<rect x="21" width="24" height="24" rx="12" fill="#C54600"/>
<path d="M34.8302 6.81818V17H32.6775V8.86151H32.6178L30.2861 10.3232V8.41406L32.8067 6.81818H34.8302Z" fill="white"/>
</g>
</g>
<g clip-path="url(#clip2_6135_18107)">
<rect x="88" width="1" height="60" fill="#C54600"/>
<g clip-path="url(#clip3_6135_18107)">
<rect x="76" width="24" height="24" rx="12" fill="#C54600"/>
<path d="M84.4161 17V15.4489L88.0404 12.093C88.3486 11.7947 88.6072 11.5263 88.816 11.2876C89.0281 11.049 89.1888 10.8153 89.2982 10.5866C89.4076 10.3546 89.4623 10.1044 89.4623 9.83594C89.4623 9.53764 89.3943 9.28078 89.2584 9.06534C89.1225 8.84659 88.9369 8.67921 88.7016 8.56321C88.4663 8.44389 88.1995 8.38423 87.9012 8.38423C87.5896 8.38423 87.3179 8.44721 87.0858 8.57315C86.8538 8.6991 86.6749 8.87973 86.5489 9.11506C86.423 9.35038 86.36 9.63044 86.36 9.95526H84.3167C84.3167 9.28906 84.4675 8.7107 84.7691 8.22017C85.0707 7.72964 85.4933 7.35014 86.0368 7.08168C86.5804 6.81321 87.2068 6.67898 87.9161 6.67898C88.6453 6.67898 89.28 6.80824 89.8202 7.06676C90.3638 7.32197 90.7864 7.67661 91.088 8.13068C91.3896 8.58475 91.5404 9.10511 91.5404 9.69176C91.5404 10.0762 91.4642 10.4557 91.3117 10.8303C91.1626 11.2048 90.8957 11.6207 90.5113 12.0781C90.1268 12.5322 89.5849 13.0774 88.8856 13.7138L87.3991 15.1705V15.2401H91.6746V17H84.4161Z" fill="white"/>
</g>
</g>
<g clip-path="url(#clip4_6135_18107)">
<rect y="105" width="48" height="1" fill="#C54600"/>
<g clip-path="url(#clip5_6135_18107)">
<rect y="93" width="24" height="24" rx="12" fill="#C54600"/>
<path d="M11.9745 110.139C11.2321 110.139 10.5709 110.012 9.99086 109.756C9.41415 109.498 8.95842 109.143 8.62367 108.692C8.29223 108.238 8.12154 107.715 8.11159 107.121H10.2792C10.2925 107.37 10.3737 107.589 10.5228 107.778C10.6753 107.963 10.8775 108.107 11.1294 108.21C11.3812 108.313 11.6646 108.364 11.9795 108.364C12.3076 108.364 12.5976 108.306 12.8495 108.19C13.1014 108.074 13.2986 107.914 13.4411 107.708C13.5837 107.503 13.6549 107.266 13.6549 106.997C13.6549 106.725 13.5787 106.485 13.4262 106.276C13.2771 106.064 13.0616 105.898 12.7799 105.779C12.5015 105.66 12.1701 105.6 11.7856 105.6H10.836V104.019H11.7856C12.1104 104.019 12.3971 103.963 12.6457 103.85C12.8976 103.737 13.0931 103.582 13.2323 103.383C13.3715 103.181 13.4411 102.945 13.4411 102.677C13.4411 102.422 13.3798 102.198 13.2572 102.006C13.1379 101.81 12.9688 101.658 12.7501 101.548C12.5347 101.439 12.2828 101.384 11.9944 101.384C11.7027 101.384 11.4359 101.437 11.194 101.543C10.952 101.646 10.7581 101.794 10.6123 101.986C10.4665 102.178 10.3886 102.403 10.3786 102.662H8.31543C8.32537 102.075 8.49275 101.558 8.81756 101.111C9.14237 100.663 9.57987 100.314 10.1301 100.062C10.6836 99.8066 11.3083 99.679 12.0044 99.679C12.707 99.679 13.3218 99.8066 13.8488 100.062C14.3758 100.317 14.7851 100.662 15.0768 101.096C15.3718 101.527 15.5176 102.011 15.5143 102.548C15.5176 103.118 15.3403 103.593 14.9823 103.974C14.6277 104.356 14.1653 104.598 13.5953 104.7V104.78C14.3443 104.876 14.9144 105.136 15.3055 105.56C15.6999 105.981 15.8954 106.508 15.8921 107.141C15.8954 107.721 15.7281 108.237 15.39 108.688C15.0553 109.138 14.5929 109.493 14.0029 109.751C13.413 110.01 12.7368 110.139 11.9745 110.139Z" fill="white"/>
</g>
</g>
<defs>
<clipPath id="clip0_6135_18107">
<rect width="24" height="60" fill="white" transform="translate(21)"/>
</clipPath>
<clipPath id="clip1_6135_18107">
<rect x="21" width="24" height="24" rx="12" fill="white"/>
</clipPath>
<clipPath id="clip2_6135_18107">
<rect width="24" height="60" fill="white" transform="translate(76)"/>
</clipPath>
<clipPath id="clip3_6135_18107">
<rect x="76" width="24" height="24" rx="12" fill="white"/>
</clipPath>
<clipPath id="clip4_6135_18107">
<rect width="48" height="24" fill="white" transform="translate(0 93)"/>
</clipPath>
<clipPath id="clip5_6135_18107">
<rect y="93" width="24" height="24" rx="12" fill="white"/>
</clipPath>
</defs>
</svg>
