<?xml version="1.0" encoding="UTF-8"?>
<svg id="Layer_1" xmlns="http://www.w3.org/2000/svg" xmlns:xlink="http://www.w3.org/1999/xlink" version="1.1" width="590" height="367" viewBox="0 0 590 367">
  <!-- Generator: Adobe Illustrator 29.2.1, SVG Export Plug-In . SVG Version: 2.1.0 Build 116)  -->
  <defs>
    <style>
      .st0, .st1 {
        fill: none;
      }

      .st2 {
        fill: #43474e;
      }

      .st3 {
        clip-path: url(#clippath-1);
      }

      .st4 {
        clip-path: url(#clippath-3);
      }

      .st5 {
        clip-path: url(#clippath-4);
      }

      .st6 {
        clip-path: url(#clippath-2);
      }

      .st7 {
        clip-path: url(#clippath-6);
      }

      .st8 {
        clip-path: url(#clippath-5);
      }

      .st9 {
        fill: #fff;
      }

      .st1 {
        stroke: #333;
        stroke-width: 2px;
      }

      .st10 {
        fill: #c54600;
      }

      .st11 {
        fill: #333;
      }

      .st12 {
        clip-path: url(#clippath);
      }
    </style>
    <clipPath id="clippath">
      <rect class="st0" x="69" y="99" width="744" height="24"/>
    </clipPath>
    <clipPath id="clippath-1">
      <rect class="st0" x="69" y="245" width="480" height="24"/>
    </clipPath>
    <clipPath id="clippath-2">
      <path class="st0" d="M12,220h0c6.6,0,12,5.4,12,12s-5.4,12-12,12-12-5.4-12-12,5.4-12,12-12Z"/>
    </clipPath>
    <clipPath id="clippath-3">
      <rect class="st0" x="4" y="48" width="48" height="24"/>
    </clipPath>
    <clipPath id="clippath-4">
      <path class="st0" d="M16,48h0c6.6,0,12,5.4,12,12s-5.4,12-12,12-12-5.4-12-12,5.4-12,12-12Z"/>
    </clipPath>
    <clipPath id="clippath-5">
      <rect class="st0" x="4" y="8" width="48" height="24"/>
    </clipPath>
    <clipPath id="clippath-6">
      <path class="st0" d="M16,8h0c6.6,0,12,5.4,12,12s-5.4,12-12,12-12-5.4-12-12,5.4-12,12-12Z"/>
    </clipPath>
  </defs>
  <path class="st11" d="M85.1,28.9v3.1h-13.3V8.9h3.7v19.9h9.6ZM97.4,22c0-.6,0-1.1-.3-1.6-.2-.5-.4-.9-.7-1.3-.3-.4-.7-.7-1.2-.9-.5-.2-1-.3-1.6-.3-1.2,0-2.2.4-2.9,1.1s-1.2,1.7-1.4,3h8.1ZM89.1,24.1c0,.9.2,1.7.4,2.4.2.7.6,1.2,1,1.7.4.4.9.8,1.5,1,.6.2,1.2.3,1.9.3s1.3,0,1.7-.2c.5-.2.9-.3,1.3-.5.4-.2.7-.4.9-.5.3-.2.5-.2.7-.2s.5.1.6.3l1,1.3c-.4.5-.9.9-1.4,1.2-.5.3-1.1.6-1.6.8-.6.2-1.2.3-1.8.4-.6,0-1.2.1-1.8.1-1.1,0-2.2-.2-3.2-.6-1-.4-1.8-.9-2.5-1.7-.7-.7-1.3-1.6-1.7-2.7-.4-1.1-.6-2.3-.6-3.8s.2-2.2.5-3.2c.4-1,.9-1.8,1.5-2.6.7-.7,1.5-1.3,2.4-1.7,1-.4,2-.6,3.3-.6s1.9.2,2.8.5c.9.3,1.6.8,2.2,1.4.6.6,1.1,1.4,1.4,2.3.4.9.5,1.9.5,3.1s0,.9-.2,1.1c-.1.2-.3.3-.6.3h-10.5ZM109.5,23.7c1.1,0,1.9-.3,2.4-.8.5-.5.8-1.3.8-2.1s-.3-1.6-.8-2.1c-.5-.5-1.3-.8-2.4-.8s-1.9.3-2.4.8c-.5.5-.8,1.2-.8,2.1s0,.8.2,1.2c.1.4.3.7.6.9.3.3.6.5,1,.6.4.1.9.2,1.4.2ZM114.3,32.8c0-.4-.1-.7-.3-.9-.2-.2-.5-.4-.8-.5-.4-.1-.8-.2-1.2-.3-.5,0-1-.1-1.5-.1-.5,0-1.1,0-1.6,0-.5,0-1.1,0-1.6-.2-.5.3-.9.6-1.3,1-.3.4-.5.8-.5,1.3s0,.6.2.9c.2.3.4.5.8.7.4.2.8.4,1.3.5.5.1,1.2.2,2,.2,1.5,0,2.7-.2,3.4-.7.8-.5,1.1-1.1,1.1-1.8ZM117.7,16.3v1.3c0,.4-.3.7-.8.8l-1.6.3c.3.6.4,1.3.4,2.1s-.2,1.5-.5,2.2c-.3.7-.7,1.2-1.3,1.7-.6.5-1.2.8-2,1.1-.8.2-1.6.4-2.5.4s-.7,0-1,0c-.3,0-.6,0-.9-.2-.3.2-.5.4-.7.6-.1.2-.2.4-.2.6,0,.4.2.6.5.8.3.2.7.3,1.2.4.5,0,1.1.1,1.7.1.7,0,1.3,0,2,.1.7,0,1.3.1,2,.3.7.1,1.2.3,1.7.6.5.3.9.7,1.2,1.1.3.5.5,1.1.5,1.9s-.2,1.4-.5,2.1c-.4.7-.9,1.3-1.5,1.8-.7.5-1.5.9-2.4,1.2-1,.3-2.1.5-3.3.5s-2.3-.1-3.2-.4c-.9-.2-1.7-.6-2.3-1-.6-.4-1-.9-1.3-1.4-.3-.5-.4-1.1-.4-1.6s.2-1.4.7-2c.5-.5,1.2-1,2-1.3-.4-.2-.8-.5-1.1-.9-.3-.4-.4-.9-.4-1.5s.2-1,.5-1.5c.4-.5.9-1,1.6-1.3-.8-.4-1.5-1-1.9-1.8-.5-.7-.7-1.6-.7-2.6s.2-1.5.5-2.2c.3-.7.8-1.2,1.3-1.7.6-.5,1.2-.8,2-1.1.8-.2,1.6-.4,2.5-.4,1.4,0,2.6.3,3.7.9h4.6ZM130.9,22c0-.6,0-1.1-.3-1.6-.2-.5-.4-.9-.7-1.3-.3-.4-.7-.7-1.2-.9-.5-.2-1-.3-1.6-.3-1.2,0-2.2.4-2.9,1.1-.7.7-1.2,1.7-1.4,3h8.1ZM122.7,24.1c0,.9.2,1.7.4,2.4.2.7.6,1.2,1,1.7.4.4.9.8,1.5,1,.6.2,1.2.3,1.9.3s1.3,0,1.7-.2c.5-.2.9-.3,1.3-.5.4-.2.7-.4.9-.5.3-.2.5-.2.7-.2s.5.1.6.3l1,1.3c-.4.5-.9.9-1.4,1.2-.5.3-1.1.6-1.6.8-.6.2-1.2.3-1.8.4-.6,0-1.2.1-1.8.1-1.1,0-2.2-.2-3.2-.6-1-.4-1.8-.9-2.5-1.7-.7-.7-1.3-1.6-1.7-2.7-.4-1.1-.6-2.3-.6-3.8s.2-2.2.5-3.2c.4-1,.9-1.8,1.5-2.6.7-.7,1.5-1.3,2.4-1.7,1-.4,2-.6,3.3-.6s1.9.2,2.8.5c.9.3,1.6.8,2.2,1.4.6.6,1.1,1.4,1.4,2.3.4.9.5,1.9.5,3.1s0,.9-.2,1.1c-.1.2-.3.3-.6.3h-10.5ZM140.4,17.8c.4-.4.7-.7,1.1-1,.4-.3.8-.6,1.2-.8.4-.2.9-.4,1.4-.5.5-.1,1-.2,1.6-.2.9,0,1.7.1,2.4.4.7.3,1.3.7,1.7,1.3.5.5.8,1.2,1.1,2,.2.8.4,1.6.4,2.5v10.4h-3.4v-10.4c0-1.1-.3-2-.8-2.6-.5-.6-1.3-.9-2.3-.9s-1.5.2-2.1.5c-.7.4-1.3.8-1.8,1.4v11.9h-3.4V15.7h2.1c.5,0,.8.2.9.7l.2,1.5ZM165.6,19.7c-.5-.6-1-1.1-1.6-1.3-.6-.2-1.2-.4-1.9-.4-1.3,0-2.4.5-3.2,1.5-.8,1-1.1,2.4-1.1,4.4s0,1.9.3,2.6c.2.7.4,1.3.7,1.7.3.4.7.8,1.2,1,.5.2,1,.3,1.6.3.9,0,1.6-.2,2.3-.6.6-.4,1.2-.9,1.8-1.6v-7.6ZM169,8.3v23.7h-2.1c-.5,0-.8-.2-.9-.7l-.3-1.8c-.7.8-1.5,1.4-2.3,1.9-.9.5-1.9.7-3,.7s-1.8-.2-2.5-.5c-.7-.4-1.4-.9-1.9-1.6-.5-.7-1-1.6-1.2-2.6-.3-1-.4-2.2-.4-3.6s.2-2.3.5-3.4c.3-1,.8-1.9,1.4-2.7.6-.8,1.3-1.4,2.2-1.8.9-.4,1.9-.7,2.9-.7s1.8.2,2.5.5c.7.3,1.3.7,1.8,1.3v-8.8h3.4Z"/>
  <path class="st11" d="M81.9,67h-1.8v-6.7h-7.3v6.7h-1.8v-14.3h1.8v6h7.3v-6h1.8v14.3ZM86.4,52.3c.3,0,.5,0,.7.3.2.2.3.5.3.8s-.1.7-.3.8c-.2.2-.4.3-.7.3s-.5,0-.7-.3c-.2-.2-.3-.5-.3-.8s0-.7.3-.8c.2-.2.4-.3.7-.3ZM87.3,56.3v10.7h-1.8v-10.7h1.8ZM95.8,56.1c1.3,0,2.2.3,2.9.9.7.6,1,1.6,1,3v7h-1.7v-6.9c0-1.7-.8-2.6-2.4-2.6s-2,.3-2.5,1c-.5.7-.7,1.6-.7,2.9v5.6h-1.8v-10.7h1.4l.3,1.5h.1c.3-.6.8-1,1.4-1.2.6-.3,1.3-.4,1.9-.4ZM106.6,65.8c.3,0,.5,0,.8,0,.3,0,.5-.1.7-.2v1.3c-.2,0-.5.2-.8.2-.3,0-.7,0-1,0-.6,0-1.1,0-1.6-.3-.5-.2-.8-.5-1.1-1-.3-.5-.4-1.2-.4-2v-6.2h-1.5v-.8l1.5-.7.7-2.3h1v2.5h3.1v1.4h-3.1v6.2c0,.7.2,1.1.5,1.5.3.3.7.5,1.2.5ZM121,52.7l-5.3,14.3h-1.7l5.3-14.3h1.7ZM136.3,67h-8v-14.3h8v1.6h-6.2v4.5h5.8v1.6h-5.8v5.1h6.2v1.6ZM141.8,61.5l-3.7-5.2h2l2.8,4,2.7-4h2l-3.7,5.2,3.9,5.5h-2l-2.9-4.3-3,4.3h-2l3.9-5.5ZM153.9,56.1c1.3,0,2.3.3,2.9.9.6.6.9,1.5.9,2.7v7.3h-1.3l-.3-1.5h0c-.5.6-1,1-1.5,1.3-.5.3-1.2.4-2.1.4s-1.8-.3-2.4-.8c-.6-.5-1-1.3-1-2.4s.4-1.9,1.3-2.5c.8-.6,2.1-.9,3.9-1h1.8v-.7c0-.9-.2-1.5-.6-1.9-.4-.3-.9-.5-1.6-.5s-1.1,0-1.6.3c-.5.2-1,.3-1.4.6l-.5-1.3c.5-.3,1-.5,1.7-.6.6-.2,1.3-.3,2-.3ZM154.4,61.8c-1.3,0-2.3.3-2.8.6-.5.4-.8.9-.8,1.6s.2,1,.5,1.3c.4.3.8.4,1.4.4.9,0,1.7-.2,2.3-.7.6-.5.9-1.3.9-2.3v-1h-1.6ZM172.8,56.1c1.2,0,2.1.3,2.7.9.6.6.9,1.6.9,3v7h-1.7v-6.9c0-1.7-.7-2.5-2.2-2.5s-1.8.3-2.2.9c-.4.6-.7,1.5-.7,2.6v5.9h-1.7v-6.9c0-1.7-.7-2.5-2.2-2.5s-1.8.3-2.2,1c-.4.7-.6,1.6-.6,2.9v5.6h-1.8v-10.7h1.4l.3,1.5h.1c.3-.6.8-1,1.3-1.2.6-.3,1.2-.4,1.8-.4,1.7,0,2.8.6,3.3,1.8h0c.4-.6.8-1.1,1.5-1.4.6-.3,1.3-.4,2-.4ZM184.8,56.1c1.3,0,2.4.5,3.2,1.4.8.9,1.2,2.3,1.2,4.2s-.4,3.2-1.2,4.2c-.8.9-1.9,1.4-3.2,1.4s-1.5-.2-2.1-.5c-.5-.3-1-.7-1.3-1.1h-.1c0,.2,0,.5,0,.9,0,.3,0,.6,0,.9v4.4h-1.8v-15.5h1.4l.2,1.5h0c.3-.5.7-.9,1.3-1.2s1.2-.5,2.1-.5ZM184.5,57.6c-1.1,0-1.9.3-2.3.9-.4.6-.7,1.5-.7,2.8v.3c0,1.3.2,2.3.6,3.1.4.7,1.2,1.1,2.4,1.1s1.2-.2,1.6-.5c.4-.4.7-.8.9-1.5.2-.6.3-1.3.3-2.1,0-1.2-.2-2.2-.7-2.9-.5-.7-1.2-1.1-2.2-1.1ZM193.8,67h-1.8v-15.2h1.8v15.2ZM201.3,56.1c.9,0,1.7.2,2.4.6.7.4,1.2,1,1.5,1.7.4.7.5,1.6.5,2.5v1.1h-7.3c0,1.2.3,2.1.9,2.8.6.6,1.4.9,2.5.9s1.3,0,1.8-.2c.5-.1,1.1-.3,1.6-.6v1.5c-.5.2-1.1.4-1.6.5-.5.1-1.2.2-1.9.2s-1.9-.2-2.7-.6c-.8-.4-1.4-1-1.8-1.8-.4-.8-.6-1.8-.6-3s.2-2.2.6-3c.4-.8,1-1.5,1.7-1.9.7-.5,1.6-.7,2.5-.7ZM201.3,57.5c-.8,0-1.5.3-2,.8-.5.5-.8,1.3-.9,2.2h5.5c0-.9-.2-1.6-.6-2.2-.4-.6-1.1-.9-2-.9ZM225.4,56.1c1.2,0,2.1.3,2.7.9.6.6.9,1.6.9,3v7h-1.7v-6.9c0-1.7-.7-2.5-2.2-2.5s-1.8.3-2.2.9c-.4.6-.7,1.5-.7,2.6v5.9h-1.7v-6.9c0-1.7-.7-2.5-2.2-2.5s-1.8.3-2.2,1c-.4.7-.6,1.6-.6,2.9v5.6h-1.8v-10.7h1.4l.3,1.5h.1c.3-.6.8-1,1.3-1.2.6-.3,1.2-.4,1.8-.4,1.7,0,2.8.6,3.3,1.8h0c.4-.6.8-1.1,1.5-1.4.6-.3,1.3-.4,2-.4ZM236.5,56.1c.9,0,1.7.2,2.4.6.7.4,1.2,1,1.5,1.7.4.7.5,1.6.5,2.5v1.1h-7.3c0,1.2.3,2.1.9,2.8.6.6,1.4.9,2.5.9s1.3,0,1.8-.2c.5-.1,1.1-.3,1.6-.6v1.5c-.5.2-1.1.4-1.6.5-.5.1-1.2.2-1.9.2s-1.9-.2-2.7-.6c-.8-.4-1.4-1-1.8-1.8-.4-.8-.6-1.8-.6-3s.2-2.2.6-3c.4-.8,1-1.5,1.7-1.9.7-.5,1.6-.7,2.5-.7ZM236.5,57.5c-.8,0-1.5.3-2,.8-.5.5-.8,1.3-.9,2.2h5.5c0-.9-.2-1.6-.6-2.2-.4-.6-1.1-.9-2-.9ZM250.6,64c0,1-.4,1.8-1.2,2.4-.8.5-1.8.8-3.1.8s-1.4,0-1.9-.2c-.5-.1-1-.3-1.4-.5v-1.6c.4.2.9.4,1.5.6.6.2,1.2.3,1.9.3.9,0,1.5-.1,1.9-.4.4-.3.6-.7.6-1.2s0-.5-.2-.7c-.1-.2-.4-.4-.8-.6-.4-.2-.9-.5-1.6-.7-.7-.3-1.3-.5-1.8-.8-.5-.3-.9-.6-1.1-1-.3-.4-.4-.9-.4-1.4,0-.9.4-1.6,1.1-2.1.7-.5,1.7-.7,2.9-.7s1.3,0,1.8.2c.6.1,1.1.3,1.6.5l-.6,1.4c-.5-.2-.9-.3-1.4-.5-.5-.1-1-.2-1.5-.2s-1.3.1-1.7.4c-.4.2-.6.5-.6.9s0,.5.3.8c.2.2.5.4.9.6.4.2,1,.4,1.6.7.7.3,1.3.5,1.7.8.5.3.8.6,1.1,1,.3.4.4.8.4,1.4ZM260.2,64c0,1-.4,1.8-1.2,2.4-.8.5-1.8.8-3.1.8s-1.4,0-1.9-.2c-.5-.1-1-.3-1.4-.5v-1.6c.4.2.9.4,1.5.6.6.2,1.2.3,1.9.3.9,0,1.5-.1,1.9-.4.4-.3.6-.7.6-1.2s0-.5-.2-.7-.4-.4-.8-.6c-.4-.2-.9-.5-1.6-.7-.7-.3-1.3-.5-1.8-.8s-.9-.6-1.1-1c-.3-.4-.4-.9-.4-1.4,0-.9.4-1.6,1.1-2.1.7-.5,1.7-.7,2.9-.7s1.3,0,1.8.2c.6.1,1.1.3,1.6.5l-.6,1.4c-.5-.2-.9-.3-1.4-.5-.5-.1-1-.2-1.5-.2s-1.3.1-1.7.4c-.4.2-.6.5-.6.9s0,.5.3.8c.2.2.5.4.9.6.4.2,1,.4,1.6.7.7.3,1.3.5,1.7.8.5.3.8.6,1.1,1,.3.4.4.8.4,1.4ZM266.8,56.1c1.3,0,2.3.3,2.9.9.6.6.9,1.5.9,2.7v7.3h-1.3l-.3-1.5h0c-.5.6-1,1-1.5,1.3-.5.3-1.2.4-2.1.4s-1.8-.3-2.4-.8c-.6-.5-1-1.3-1-2.4s.4-1.9,1.3-2.5c.8-.6,2.1-.9,3.9-1h1.8v-.7c0-.9-.2-1.5-.6-1.9-.4-.3-.9-.5-1.6-.5s-1.1,0-1.6.3c-.5.2-1,.3-1.4.6l-.5-1.3c.5-.3,1-.5,1.7-.6.6-.2,1.3-.3,2-.3ZM267.4,61.8c-1.3,0-2.3.3-2.8.6-.5.4-.8.9-.8,1.6s.2,1,.5,1.3c.4.3.8.4,1.4.4.9,0,1.7-.2,2.3-.7.6-.5.9-1.3.9-2.3v-1h-1.6ZM277.8,56.1c.7,0,1.3.1,1.9.4.6.3,1.1.7,1.5,1.2h.1l.2-1.4h1.4v10.9c0,1.5-.4,2.7-1.2,3.5-.8.8-2,1.2-3.6,1.2s-2.9-.2-3.9-.7v-1.6c1.1.6,2.4.8,4,.8s1.6-.3,2.2-.8c.5-.5.8-1.3.8-2.2v-.4c0-.2,0-.4,0-.7,0-.3,0-.5,0-.6h0c-.7,1.1-1.8,1.6-3.3,1.6s-2.5-.5-3.3-1.5c-.8-1-1.2-2.3-1.2-4.1s.4-3.1,1.2-4.1c.8-1,1.9-1.5,3.2-1.5ZM278,57.6c-.9,0-1.6.4-2.1,1.1-.5.7-.7,1.7-.7,3s.2,2.3.7,3c.5.7,1.2,1,2.1,1s1.9-.3,2.4-.9c.5-.6.7-1.5.7-2.8v-.4c0-1.5-.3-2.5-.8-3.1-.5-.6-1.3-1-2.4-1ZM290.4,56.1c.9,0,1.7.2,2.4.6.7.4,1.2,1,1.5,1.7.4.7.5,1.6.5,2.5v1.1h-7.3c0,1.2.3,2.1.9,2.8.6.6,1.4.9,2.5.9s1.3,0,1.8-.2c.5-.1,1.1-.3,1.6-.6v1.5c-.5.2-1.1.4-1.6.5-.5.1-1.2.2-1.9.2s-1.9-.2-2.7-.6c-.8-.4-1.4-1-1.8-1.8-.4-.8-.6-1.8-.6-3s.2-2.2.6-3c.4-.8,1-1.5,1.7-1.9.7-.5,1.6-.7,2.5-.7ZM290.4,57.5c-.8,0-1.5.3-2,.8-.5.5-.8,1.3-.9,2.2h5.5c0-.9-.2-1.6-.6-2.2-.4-.6-1.1-.9-2-.9ZM297.3,65.9c0-.5.1-.8.4-1,.2-.2.5-.3.9-.3s.6,0,.9.3c.3.2.4.5.4,1s-.1.8-.4,1c-.2.2-.5.3-.9.3s-.6-.1-.9-.3c-.2-.2-.4-.6-.4-1Z"/>
  <g class="st12">
    <g>
      <path class="st11" d="M70.8,119v-14.3h3v11.8h5.8v2.5h-8.8ZM86.3,107.9c1.5,0,2.6.3,3.4,1,.8.6,1.2,1.6,1.2,2.9v7.3h-2.1l-.6-1.5h0c-.5.6-1,1-1.5,1.3-.5.3-1.2.4-2.1.4s-1.8-.3-2.4-.8c-.6-.6-1-1.4-1-2.6s.4-2,1.2-2.6c.8-.6,2-.9,3.7-.9h1.9v-.5c0-.6-.2-1-.5-1.3-.3-.3-.7-.4-1.2-.4s-1.1,0-1.6.2c-.5.1-1,.3-1.5.6l-1-2c.6-.3,1.2-.5,1.9-.7.7-.2,1.5-.3,2.2-.3ZM86.8,114c-1,0-1.6.2-2,.5s-.6.7-.6,1.3.1.8.4,1c.3.2.6.3,1,.3.6,0,1.2-.2,1.6-.6.4-.4.7-.9.7-1.6v-.9h-1.2ZM96.9,107.3c0,.4,0,.8,0,1.2,0,.4,0,.7,0,.9h.1c.3-.5.7-.8,1.2-1.1.5-.3,1.1-.5,1.9-.5,1.2,0,2.2.5,3,1.4.8.9,1.1,2.3,1.1,4.2s-.4,3.3-1.2,4.2c-.8,1-1.8,1.4-3,1.4s-1.4-.1-1.9-.4c-.5-.3-.8-.6-1.1-1h-.2l-.5,1.2h-2.3v-15.2h3v3.5ZM99.1,110.3c-.8,0-1.3.2-1.6.7-.3.5-.5,1.2-.5,2.2v.3c0,1.1.2,1.9.5,2.4.3.6.9.8,1.7.8s1.1-.3,1.5-.8c.4-.6.5-1.4.5-2.5s-.2-1.9-.6-2.4c-.4-.5-.9-.8-1.5-.8ZM111.1,107.9c1.5,0,2.7.4,3.6,1.3.9.9,1.3,2.1,1.3,3.7v1.4h-7c0,.8.3,1.5.7,2,.5.5,1.1.7,2,.7s1.3,0,1.9-.2c.6-.1,1.2-.4,1.8-.7v2.3c-.5.3-1.1.5-1.7.6-.6.1-1.3.2-2.1.2s-2.1-.2-2.9-.6c-.8-.4-1.5-1-2-1.9-.5-.8-.7-1.9-.7-3.1s.2-2.3.6-3.2c.4-.9,1-1.5,1.8-1.9.8-.4,1.7-.6,2.7-.6ZM111.1,110c-.6,0-1.1.2-1.4.6-.4.4-.6,1-.7,1.7h4.2c0-.7-.2-1.2-.5-1.6-.3-.4-.9-.7-1.6-.7ZM121.4,119h-3v-15.2h3v15.2Z"/>
      <path class="st11" d="M129.8,113.5c0-1.6.2-3.2.7-4.7.5-1.5,1.2-2.9,2.2-4.1h1.7c-.9,1.3-1.6,2.6-2.1,4.1-.5,1.5-.7,3.1-.7,4.6s.2,3.1.7,4.6c.5,1.5,1.2,2.8,2.1,4.1h-1.6c-1-1.2-1.8-2.5-2.2-4-.5-1.5-.7-3-.7-4.7ZM141.7,108.1c.2,0,.4,0,.6,0,.2,0,.4,0,.6,0l-.2,1.6c-.2,0-.4,0-.6,0-.2,0-.4,0-.6,0-.5,0-1.1.2-1.5.5-.5.3-.9.7-1.2,1.3-.3.5-.4,1.2-.4,1.9v5.7h-1.8v-10.7h1.4l.2,2h0c.3-.6.8-1.1,1.3-1.5s1.2-.6,1.9-.6ZM148.7,108.1c.9,0,1.7.2,2.4.6.7.4,1.2,1,1.5,1.7.4.7.5,1.6.5,2.5v1.1h-7.3c0,1.2.3,2.1.9,2.8.6.6,1.4.9,2.5.9s1.3,0,1.8-.2c.5-.1,1.1-.3,1.6-.6v1.5c-.5.2-1.1.4-1.6.5-.5.1-1.2.2-1.9.2s-1.9-.2-2.7-.6c-.8-.4-1.4-1-1.8-1.8-.4-.8-.6-1.8-.6-3s.2-2.2.6-3c.4-.8,1-1.5,1.7-1.9.7-.5,1.6-.7,2.5-.7ZM148.7,109.5c-.8,0-1.5.3-2,.8-.5.5-.8,1.3-.9,2.2h5.5c0-.9-.2-1.6-.6-2.2-.4-.6-1.1-.9-2-.9ZM163,119.2c0-.2,0-.5,0-.8,0-.3,0-.6,0-.8h-.1c-.3.5-.7.8-1.3,1.2-.5.3-1.2.5-2.1.5-1.3,0-2.3-.5-3.2-1.4-.8-.9-1.2-2.3-1.2-4.2s.4-3.2,1.2-4.2c.8-.9,1.9-1.4,3.2-1.4s1.5.2,2.1.5c.5.3,1,.7,1.3,1.2h0l.3-1.5h1.4v15.5h-1.8v-4.6ZM160,117.7c1.1,0,1.9-.3,2.3-.9.5-.6.7-1.5.7-2.8v-.4c0-1.4-.2-2.4-.7-3.1-.5-.7-1.3-1.1-2.4-1.1s-1.7.4-2.1,1.1c-.5.7-.7,1.8-.7,3s.2,2.3.7,3c.5.7,1.2,1.1,2.2,1.1ZM177.1,108.3v10.7h-1.4l-.3-1.4h0c-.3.6-.8,1-1.4,1.2-.6.3-1.3.4-2,.4-1.3,0-2.3-.3-2.9-.9-.7-.6-1-1.6-1-3v-7h1.8v6.9c0,1.7.8,2.6,2.4,2.6s2-.3,2.5-1c.5-.7.7-1.6.7-2.9v-5.6h1.8ZM181.4,104.3c.3,0,.5,0,.7.3.2.2.3.5.3.8s-.1.7-.3.8c-.2.2-.4.3-.7.3s-.5,0-.7-.3c-.2-.2-.3-.5-.3-.8s0-.7.3-.8c.2-.2.4-.3.7-.3ZM182.3,108.3v10.7h-1.8v-10.7h1.8ZM190.7,108.1c.2,0,.4,0,.6,0,.2,0,.4,0,.6,0l-.2,1.6c-.2,0-.4,0-.6,0-.2,0-.4,0-.6,0-.5,0-1.1.2-1.5.5-.5.3-.9.7-1.2,1.3-.3.5-.4,1.2-.4,1.9v5.7h-1.8v-10.7h1.4l.2,2h0c.3-.6.8-1.1,1.3-1.5.5-.4,1.2-.6,1.9-.6ZM197.7,108.1c.9,0,1.7.2,2.4.6.7.4,1.2,1,1.5,1.7.4.7.5,1.6.5,2.5v1.1h-7.3c0,1.2.3,2.1.9,2.8.6.6,1.4.9,2.5.9s1.3,0,1.8-.2c.5-.1,1.1-.3,1.6-.6v1.5c-.5.2-1.1.4-1.6.5-.5.1-1.2.2-1.9.2s-1.9-.2-2.7-.6c-.8-.4-1.4-1-1.8-1.8-.4-.8-.6-1.8-.6-3s.2-2.2.6-3c.4-.8,1-1.5,1.7-1.9.7-.5,1.6-.7,2.5-.7ZM197.7,109.5c-.8,0-1.5.3-2,.8-.5.5-.8,1.3-.9,2.2h5.5c0-.9-.2-1.6-.6-2.2-.4-.6-1.1-.9-2-.9ZM208.6,119.2c-1.3,0-2.4-.5-3.2-1.4-.8-.9-1.2-2.3-1.2-4.2s.4-3.2,1.2-4.2c.8-.9,1.9-1.4,3.2-1.4s1.5.2,2,.5c.5.3,1,.7,1.3,1.1h.1c0-.2,0-.4,0-.8,0-.3,0-.6,0-.8v-4.3h1.8v15.2h-1.4l-.3-1.4h0c-.3.5-.7.8-1.3,1.2-.5.3-1.2.5-2.1.5ZM208.9,117.7c1.1,0,1.9-.3,2.4-.9.5-.6.7-1.6.7-2.8v-.3c0-1.3-.2-2.4-.7-3.1-.4-.7-1.3-1.1-2.4-1.1s-1.7.4-2.1,1.1c-.5.7-.7,1.8-.7,3s.2,2.3.7,3c.5.7,1.2,1.1,2.2,1.1ZM220.6,113.5c0,1.6-.2,3.2-.7,4.7-.5,1.5-1.2,2.8-2.2,4h-1.6c.9-1.3,1.6-2.6,2.1-4.1.5-1.5.7-3,.7-4.6s-.2-3.1-.7-4.6c-.5-1.5-1.2-2.9-2.1-4.1h1.7c1,1.2,1.8,2.6,2.2,4.1.5,1.5.7,3.1.7,4.7Z"/>
    </g>
  </g>
  <path class="st2" d="M81.9,153h-1.8v-6.7h-7.3v6.7h-1.8v-14.3h1.8v6h7.3v-6h1.8v14.3ZM86.4,138.3c.3,0,.5,0,.7.3.2.2.3.5.3.8s-.1.7-.3.8c-.2.2-.4.3-.7.3s-.5,0-.7-.3c-.2-.2-.3-.5-.3-.8s0-.7.3-.8c.2-.2.4-.3.7-.3ZM87.3,142.3v10.7h-1.8v-10.7h1.8ZM95.8,142.1c1.3,0,2.2.3,2.9.9.7.6,1,1.6,1,3v7h-1.7v-6.9c0-1.7-.8-2.6-2.4-2.6s-2,.3-2.5,1c-.5.7-.7,1.6-.7,2.9v5.6h-1.8v-10.7h1.4l.3,1.5h.1c.3-.6.8-1,1.4-1.2.6-.3,1.3-.4,1.9-.4ZM106.6,151.8c.3,0,.5,0,.8,0,.3,0,.5-.1.7-.2v1.3c-.2,0-.5.2-.8.2-.3,0-.7,0-1,0-.6,0-1.1,0-1.6-.3-.5-.2-.8-.5-1.1-1-.3-.5-.4-1.2-.4-2v-6.2h-1.5v-.8l1.5-.7.7-2.3h1v2.5h3.1v1.4h-3.1v6.2c0,.7.2,1.1.5,1.5.3.3.7.5,1.2.5ZM121,138.7l-5.3,14.3h-1.7l5.3-14.3h1.7ZM136.3,153h-8v-14.3h8v1.6h-6.2v4.5h5.8v1.6h-5.8v5.1h6.2v1.6ZM141.8,147.5l-3.7-5.2h2l2.8,4,2.7-4h2l-3.7,5.2,3.9,5.5h-2l-2.9-4.3-3,4.3h-2l3.9-5.5ZM153.9,142.1c1.3,0,2.3.3,2.9.9.6.6.9,1.5.9,2.7v7.3h-1.3l-.3-1.5h0c-.5.6-1,1-1.5,1.3-.5.3-1.2.4-2.1.4s-1.8-.3-2.4-.8c-.6-.5-1-1.3-1-2.4s.4-1.9,1.3-2.5c.8-.6,2.1-.9,3.9-1h1.8v-.7c0-.9-.2-1.5-.6-1.9-.4-.3-.9-.5-1.6-.5s-1.1,0-1.6.3c-.5.2-1,.3-1.4.6l-.5-1.3c.5-.3,1-.5,1.7-.6.6-.2,1.3-.3,2-.3ZM154.4,147.8c-1.3,0-2.3.3-2.8.6-.5.4-.8.9-.8,1.6s.2,1,.5,1.3c.4.3.8.4,1.4.4.9,0,1.7-.2,2.3-.7.6-.5.9-1.3.9-2.3v-1h-1.6ZM172.8,142.1c1.2,0,2.1.3,2.7.9.6.6.9,1.6.9,3v7h-1.7v-6.9c0-1.7-.7-2.5-2.2-2.5s-1.8.3-2.2.9c-.4.6-.7,1.5-.7,2.6v5.9h-1.7v-6.9c0-1.7-.7-2.5-2.2-2.5s-1.8.3-2.2,1c-.4.7-.6,1.6-.6,2.9v5.6h-1.8v-10.7h1.4l.3,1.5h.1c.3-.6.8-1,1.3-1.2.6-.3,1.2-.4,1.8-.4,1.7,0,2.8.6,3.3,1.8h0c.4-.6.8-1.1,1.5-1.4.6-.3,1.3-.4,2-.4ZM184.8,142.1c1.3,0,2.4.5,3.2,1.4.8.9,1.2,2.3,1.2,4.2s-.4,3.2-1.2,4.2c-.8.9-1.9,1.4-3.2,1.4s-1.5-.2-2.1-.5c-.5-.3-1-.7-1.3-1.1h-.1c0,.2,0,.5,0,.9,0,.3,0,.6,0,.9v4.4h-1.8v-15.5h1.4l.2,1.5h0c.3-.5.7-.9,1.3-1.2.5-.3,1.2-.5,2.1-.5ZM184.5,143.6c-1.1,0-1.9.3-2.3.9-.4.6-.7,1.5-.7,2.8v.3c0,1.3.2,2.3.6,3.1.4.7,1.2,1.1,2.4,1.1s1.2-.2,1.6-.5c.4-.4.7-.8.9-1.5.2-.6.3-1.3.3-2.1,0-1.2-.2-2.2-.7-2.9-.5-.7-1.2-1.1-2.2-1.1ZM193.8,153h-1.8v-15.2h1.8v15.2ZM201.3,142.1c.9,0,1.7.2,2.4.6.7.4,1.2,1,1.5,1.7.4.7.5,1.6.5,2.5v1.1h-7.3c0,1.2.3,2.1.9,2.8.6.6,1.4.9,2.5.9s1.3,0,1.8-.2c.5-.1,1.1-.3,1.6-.6v1.5c-.5.2-1.1.4-1.6.5-.5.1-1.2.2-1.9.2s-1.9-.2-2.7-.6c-.8-.4-1.4-1-1.8-1.8-.4-.8-.6-1.8-.6-3s.2-2.2.6-3c.4-.8,1-1.5,1.7-1.9.7-.5,1.6-.7,2.5-.7ZM201.3,143.5c-.8,0-1.5.3-2,.8-.5.5-.8,1.3-.9,2.2h5.5c0-.9-.2-1.6-.6-2.2-.4-.6-1.1-.9-2-.9ZM225.4,142.1c1.2,0,2.1.3,2.7.9.6.6.9,1.6.9,3v7h-1.7v-6.9c0-1.7-.7-2.5-2.2-2.5s-1.8.3-2.2.9c-.4.6-.7,1.5-.7,2.6v5.9h-1.7v-6.9c0-1.7-.7-2.5-2.2-2.5s-1.8.3-2.2,1c-.4.7-.6,1.6-.6,2.9v5.6h-1.8v-10.7h1.4l.3,1.5h.1c.3-.6.8-1,1.3-1.2.6-.3,1.2-.4,1.8-.4,1.7,0,2.8.6,3.3,1.8h0c.4-.6.8-1.1,1.5-1.4.6-.3,1.3-.4,2-.4ZM236.5,142.1c.9,0,1.7.2,2.4.6.7.4,1.2,1,1.5,1.7.4.7.5,1.6.5,2.5v1.1h-7.3c0,1.2.3,2.1.9,2.8.6.6,1.4.9,2.5.9s1.3,0,1.8-.2c.5-.1,1.1-.3,1.6-.6v1.5c-.5.2-1.1.4-1.6.5-.5.1-1.2.2-1.9.2s-1.9-.2-2.7-.6c-.8-.4-1.4-1-1.8-1.8-.4-.8-.6-1.8-.6-3s.2-2.2.6-3c.4-.8,1-1.5,1.7-1.9.7-.5,1.6-.7,2.5-.7ZM236.5,143.5c-.8,0-1.5.3-2,.8-.5.5-.8,1.3-.9,2.2h5.5c0-.9-.2-1.6-.6-2.2-.4-.6-1.1-.9-2-.9ZM250.6,150c0,1-.4,1.8-1.2,2.4-.8.5-1.8.8-3.1.8s-1.4,0-1.9-.2c-.5-.1-1-.3-1.4-.5v-1.6c.4.2.9.4,1.5.6.6.2,1.2.3,1.9.3.9,0,1.5-.1,1.9-.4.4-.3.6-.7.6-1.2s0-.5-.2-.7c-.1-.2-.4-.4-.8-.6-.4-.2-.9-.5-1.6-.7-.7-.3-1.3-.5-1.8-.8-.5-.3-.9-.6-1.1-1-.3-.4-.4-.9-.4-1.4,0-.9.4-1.6,1.1-2.1.7-.5,1.7-.7,2.9-.7s1.3,0,1.8.2c.6.1,1.1.3,1.6.5l-.6,1.4c-.5-.2-.9-.3-1.4-.5-.5-.1-1-.2-1.5-.2s-1.3.1-1.7.4c-.4.2-.6.5-.6.9s0,.5.3.8c.2.2.5.4.9.6.4.2,1,.4,1.6.7.7.3,1.3.5,1.7.8.5.3.8.6,1.1,1,.3.4.4.8.4,1.4ZM260.2,150c0,1-.4,1.8-1.2,2.4-.8.5-1.8.8-3.1.8s-1.4,0-1.9-.2c-.5-.1-1-.3-1.4-.5v-1.6c.4.2.9.4,1.5.6.6.2,1.2.3,1.9.3.9,0,1.5-.1,1.9-.4.4-.3.6-.7.6-1.2s0-.5-.2-.7-.4-.4-.8-.6c-.4-.2-.9-.5-1.6-.7-.7-.3-1.3-.5-1.8-.8-.5-.3-.9-.6-1.1-1s-.4-.9-.4-1.4c0-.9.4-1.6,1.1-2.1.7-.5,1.7-.7,2.9-.7s1.3,0,1.8.2c.6.1,1.1.3,1.6.5l-.6,1.4c-.5-.2-.9-.3-1.4-.5s-1-.2-1.5-.2-1.3.1-1.7.4c-.4.2-.6.5-.6.9s0,.5.3.8c.2.2.5.4.9.6.4.2,1,.4,1.6.7.7.3,1.3.5,1.7.8.5.3.8.6,1.1,1,.3.4.4.8.4,1.4ZM266.8,142.1c1.3,0,2.3.3,2.9.9.6.6.9,1.5.9,2.7v7.3h-1.3l-.3-1.5h0c-.5.6-1,1-1.5,1.3-.5.3-1.2.4-2.1.4s-1.8-.3-2.4-.8c-.6-.5-1-1.3-1-2.4s.4-1.9,1.3-2.5c.8-.6,2.1-.9,3.9-1h1.8v-.7c0-.9-.2-1.5-.6-1.9-.4-.3-.9-.5-1.6-.5s-1.1,0-1.6.3c-.5.2-1,.3-1.4.6l-.5-1.3c.5-.3,1-.5,1.7-.6.6-.2,1.3-.3,2-.3ZM267.4,147.8c-1.3,0-2.3.3-2.8.6-.5.4-.8.9-.8,1.6s.2,1,.5,1.3c.4.3.8.4,1.4.4.9,0,1.7-.2,2.3-.7.6-.5.9-1.3.9-2.3v-1h-1.6ZM277.8,142.1c.7,0,1.3.1,1.9.4.6.3,1.1.7,1.5,1.2h.1l.2-1.4h1.4v10.9c0,1.5-.4,2.7-1.2,3.5-.8.8-2,1.2-3.6,1.2s-2.9-.2-3.9-.7v-1.6c1.1.6,2.4.8,4,.8s1.6-.3,2.2-.8c.5-.5.8-1.3.8-2.2v-.4c0-.2,0-.4,0-.7,0-.3,0-.5,0-.6h0c-.7,1.1-1.8,1.6-3.3,1.6s-2.5-.5-3.3-1.5c-.8-1-1.2-2.3-1.2-4.1s.4-3.1,1.2-4.1c.8-1,1.9-1.5,3.2-1.5ZM278,143.6c-.9,0-1.6.4-2.1,1.1-.5.7-.7,1.7-.7,3s.2,2.3.7,3c.5.7,1.2,1,2.1,1s1.9-.3,2.4-.9c.5-.6.7-1.5.7-2.8v-.4c0-1.5-.3-2.5-.8-3.1-.5-.6-1.3-1-2.4-1ZM290.4,142.1c.9,0,1.7.2,2.4.6.7.4,1.2,1,1.5,1.7.4.7.5,1.6.5,2.5v1.1h-7.3c0,1.2.3,2.1.9,2.8.6.6,1.4.9,2.5.9s1.3,0,1.8-.2c.5-.1,1.1-.3,1.6-.6v1.5c-.5.2-1.1.4-1.6.5-.5.1-1.2.2-1.9.2s-1.9-.2-2.7-.6c-.8-.4-1.4-1-1.8-1.8-.4-.8-.6-1.8-.6-3s.2-2.2.6-3c.4-.8,1-1.5,1.7-1.9.7-.5,1.6-.7,2.5-.7ZM290.4,143.5c-.8,0-1.5.3-2,.8-.5.5-.8,1.3-.9,2.2h5.5c0-.9-.2-1.6-.6-2.2-.4-.6-1.1-.9-2-.9ZM297.3,151.9c0-.5.1-.8.4-1,.2-.2.5-.3.9-.3s.6,0,.9.3c.3.2.4.5.4,1s-.1.8-.4,1c-.2.2-.5.3-.9.3s-.6-.1-.9-.3c-.2-.2-.4-.6-.4-1Z"/>
  <rect class="st9" x="70" y="174" width="45" height="46" rx="2" ry="2"/>
  <rect class="st1" x="70" y="174" width="45" height="46" rx="2" ry="2"/>
  <path class="st11" d="M91.5,197.8c0,1.5-.2,2.9-.5,4-.3,1.1-.8,1.9-1.5,2.5-.7.6-1.6.9-2.8.9s-2.8-.6-3.6-1.9c-.8-1.3-1.1-3.1-1.1-5.4s.2-2.9.5-4c.3-1.1.8-1.9,1.5-2.5.7-.6,1.6-.9,2.7-.9s2.8.6,3.6,1.9c.8,1.3,1.2,3.1,1.2,5.4ZM83.7,197.8c0,2,.2,3.4.7,4.4.5,1,1.2,1.5,2.3,1.5s1.8-.5,2.3-1.4c.5-1,.7-2.4.7-4.4s-.2-3.4-.7-4.4c-.5-1-1.2-1.5-2.3-1.5s-1.8.5-2.3,1.5c-.4,1-.7,2.4-.7,4.4ZM102.9,197.8c0,1.5-.2,2.9-.5,4-.3,1.1-.8,1.9-1.5,2.5-.7.6-1.6.9-2.8.9s-2.8-.6-3.6-1.9c-.8-1.3-1.1-3.1-1.1-5.4s.2-2.9.5-4c.3-1.1.8-1.9,1.5-2.5.7-.6,1.6-.9,2.7-.9s2.8.6,3.6,1.9c.8,1.3,1.2,3.1,1.2,5.4ZM95.2,197.8c0,2,.2,3.4.7,4.4.5,1,1.2,1.5,2.3,1.5s1.8-.5,2.3-1.4c.5-1,.7-2.4.7-4.4s-.2-3.4-.7-4.4c-.5-1-1.2-1.5-2.3-1.5s-1.8.5-2.3,1.5c-.4,1-.7,2.4-.7,4.4Z"/>
  <g class="st3">
    <g>
      <path class="st11" d="M70.8,265v-14.3h3v11.8h5.8v2.5h-8.8ZM86.3,253.9c1.5,0,2.6.3,3.4,1,.8.6,1.2,1.6,1.2,2.9v7.3h-2.1l-.6-1.5h0c-.5.6-1,1-1.5,1.3-.5.3-1.2.4-2.1.4s-1.8-.3-2.4-.8c-.6-.6-1-1.4-1-2.6s.4-2,1.2-2.6c.8-.6,2-.9,3.7-.9h1.9v-.5c0-.6-.2-1-.5-1.3-.3-.3-.7-.4-1.2-.4s-1.1,0-1.6.2c-.5.1-1,.3-1.5.6l-1-2c.6-.3,1.2-.5,1.9-.7.7-.2,1.5-.3,2.2-.3ZM86.8,260c-1,0-1.6.2-2,.5s-.6.7-.6,1.3.1.8.4,1c.3.2.6.3,1,.3.6,0,1.2-.2,1.6-.6.4-.4.7-.9.7-1.6v-.9h-1.2ZM96.9,253.3c0,.4,0,.8,0,1.2,0,.4,0,.7,0,.9h.1c.3-.5.7-.8,1.2-1.1.5-.3,1.1-.5,1.9-.5,1.2,0,2.2.5,3,1.4.8.9,1.1,2.3,1.1,4.2s-.4,3.3-1.2,4.2c-.8,1-1.8,1.4-3,1.4s-1.4-.1-1.9-.4c-.5-.3-.8-.6-1.1-1h-.2l-.5,1.2h-2.3v-15.2h3v3.5ZM99.1,256.3c-.8,0-1.3.2-1.6.7-.3.5-.5,1.2-.5,2.2v.3c0,1.1.2,1.9.5,2.4.3.6.9.8,1.7.8s1.1-.3,1.5-.8c.4-.6.5-1.4.5-2.5s-.2-1.9-.6-2.4c-.4-.5-.9-.8-1.5-.8ZM111.1,253.9c1.5,0,2.7.4,3.6,1.3.9.9,1.3,2.1,1.3,3.7v1.4h-7c0,.8.3,1.5.7,2,.5.5,1.1.7,2,.7s1.3,0,1.9-.2c.6-.1,1.2-.4,1.8-.7v2.3c-.5.3-1.1.5-1.7.6-.6.1-1.3.2-2.1.2s-2.1-.2-2.9-.6c-.8-.4-1.5-1-2-1.9-.5-.8-.7-1.9-.7-3.1s.2-2.3.6-3.2c.4-.9,1-1.5,1.8-1.9.8-.4,1.7-.6,2.7-.6ZM111.1,256c-.6,0-1.1.2-1.4.6-.4.4-.6,1-.7,1.7h4.2c0-.7-.2-1.2-.5-1.6-.3-.4-.9-.7-1.6-.7ZM121.4,265h-3v-15.2h3v15.2Z"/>
      <path class="st11" d="M129.8,259.5c0-1.6.2-3.2.7-4.7.5-1.5,1.2-2.9,2.2-4.1h1.7c-.9,1.3-1.6,2.6-2.1,4.1-.5,1.5-.7,3.1-.7,4.6s.2,3.1.7,4.6c.5,1.5,1.2,2.8,2.1,4.1h-1.6c-1-1.2-1.8-2.5-2.2-4-.5-1.5-.7-3-.7-4.7ZM141.7,254.1c.2,0,.4,0,.6,0,.2,0,.4,0,.6,0l-.2,1.6c-.2,0-.4,0-.6-.1-.2,0-.4,0-.6,0-.5,0-1.1.2-1.5.5-.5.3-.9.7-1.2,1.3-.3.5-.4,1.2-.4,1.9v5.7h-1.8v-10.7h1.4l.2,2h0c.3-.6.8-1.1,1.3-1.5s1.2-.6,1.9-.6ZM148.7,254.1c.9,0,1.7.2,2.4.6.7.4,1.2,1,1.5,1.7.4.7.5,1.6.5,2.5v1.1h-7.3c0,1.2.3,2.1.9,2.8.6.6,1.4.9,2.5.9s1.3,0,1.8-.2c.5-.1,1.1-.3,1.6-.6v1.5c-.5.2-1.1.4-1.6.5-.5.1-1.2.2-1.9.2s-1.9-.2-2.7-.6c-.8-.4-1.4-1-1.8-1.8-.4-.8-.6-1.8-.6-3s.2-2.2.6-3c.4-.8,1-1.5,1.7-1.9.7-.5,1.6-.7,2.5-.7ZM148.7,255.5c-.8,0-1.5.3-2,.8-.5.5-.8,1.3-.9,2.2h5.5c0-.9-.2-1.6-.6-2.2-.4-.6-1.1-.9-2-.9ZM163,265.2c0-.2,0-.5,0-.8,0-.3,0-.6,0-.8h-.1c-.3.5-.7.8-1.3,1.2-.5.3-1.2.5-2.1.5-1.3,0-2.3-.5-3.2-1.4-.8-.9-1.2-2.3-1.2-4.2s.4-3.2,1.2-4.2c.8-.9,1.9-1.4,3.2-1.4s1.5.2,2.1.5c.5.3,1,.7,1.3,1.2h0l.3-1.5h1.4v15.5h-1.8v-4.6ZM160,263.7c1.1,0,1.9-.3,2.3-.9.5-.6.7-1.5.7-2.8v-.4c0-1.4-.2-2.4-.7-3.1-.5-.7-1.3-1.1-2.4-1.1s-1.7.4-2.1,1.1c-.5.7-.7,1.8-.7,3s.2,2.3.7,3c.5.7,1.2,1.1,2.2,1.1ZM177.1,254.3v10.7h-1.4l-.3-1.4h0c-.3.6-.8,1-1.4,1.2-.6.3-1.3.4-2,.4-1.3,0-2.3-.3-2.9-.9-.7-.6-1-1.6-1-3v-7h1.8v6.9c0,1.7.8,2.6,2.4,2.6s2-.3,2.5-1c.5-.7.7-1.6.7-2.9v-5.6h1.8ZM181.4,250.3c.3,0,.5,0,.7.3.2.2.3.5.3.8s-.1.7-.3.8c-.2.2-.4.3-.7.3s-.5,0-.7-.3c-.2-.2-.3-.5-.3-.8s0-.7.3-.8c.2-.2.4-.3.7-.3ZM182.3,254.3v10.7h-1.8v-10.7h1.8ZM190.7,254.1c.2,0,.4,0,.6,0,.2,0,.4,0,.6,0l-.2,1.6c-.2,0-.4,0-.6-.1-.2,0-.4,0-.6,0-.5,0-1.1.2-1.5.5-.5.3-.9.7-1.2,1.3-.3.5-.4,1.2-.4,1.9v5.7h-1.8v-10.7h1.4l.2,2h0c.3-.6.8-1.1,1.3-1.5.5-.4,1.2-.6,1.9-.6ZM197.7,254.1c.9,0,1.7.2,2.4.6.7.4,1.2,1,1.5,1.7.4.7.5,1.6.5,2.5v1.1h-7.3c0,1.2.3,2.1.9,2.8.6.6,1.4.9,2.5.9s1.3,0,1.8-.2c.5-.1,1.1-.3,1.6-.6v1.5c-.5.2-1.1.4-1.6.5-.5.1-1.2.2-1.9.2s-1.9-.2-2.7-.6c-.8-.4-1.4-1-1.8-1.8-.4-.8-.6-1.8-.6-3s.2-2.2.6-3c.4-.8,1-1.5,1.7-1.9.7-.5,1.6-.7,2.5-.7ZM197.7,255.5c-.8,0-1.5.3-2,.8-.5.5-.8,1.3-.9,2.2h5.5c0-.9-.2-1.6-.6-2.2-.4-.6-1.1-.9-2-.9ZM208.6,265.2c-1.3,0-2.4-.5-3.2-1.4-.8-.9-1.2-2.3-1.2-4.2s.4-3.2,1.2-4.2c.8-.9,1.9-1.4,3.2-1.4s1.5.2,2,.5c.5.3,1,.7,1.3,1.1h.1c0-.2,0-.4,0-.8,0-.3,0-.6,0-.8v-4.3h1.8v15.2h-1.4l-.3-1.4h0c-.3.5-.7.8-1.3,1.2-.5.3-1.2.5-2.1.5ZM208.9,263.7c1.1,0,1.9-.3,2.4-.9.5-.6.7-1.6.7-2.8v-.3c0-1.3-.2-2.4-.7-3.1-.4-.7-1.3-1.1-2.4-1.1s-1.7.4-2.1,1.1c-.5.7-.7,1.8-.7,3s.2,2.3.7,3c.5.7,1.2,1.1,2.2,1.1ZM220.6,259.5c0,1.6-.2,3.2-.7,4.7-.5,1.5-1.2,2.8-2.2,4h-1.6c.9-1.3,1.6-2.6,2.1-4.1.5-1.5.7-3,.7-4.6s-.2-3.1-.7-4.6c-.5-1.5-1.2-2.9-2.1-4.1h1.7c1,1.2,1.8,2.6,2.2,4.1.5,1.5.7,3.1.7,4.7Z"/>
    </g>
  </g>
  <path class="st2" d="M81.9,299h-1.8v-6.7h-7.3v6.7h-1.8v-14.3h1.8v6h7.3v-6h1.8v14.3ZM86.4,284.3c.3,0,.5,0,.7.3.2.2.3.5.3.8s-.1.7-.3.8c-.2.2-.4.3-.7.3s-.5,0-.7-.3c-.2-.2-.3-.5-.3-.8s0-.7.3-.8c.2-.2.4-.3.7-.3ZM87.3,288.3v10.7h-1.8v-10.7h1.8ZM95.8,288.1c1.3,0,2.2.3,2.9.9.7.6,1,1.6,1,3v7h-1.7v-6.9c0-1.7-.8-2.6-2.4-2.6s-2,.3-2.5,1c-.5.7-.7,1.6-.7,2.9v5.6h-1.8v-10.7h1.4l.3,1.5h.1c.3-.6.8-1,1.4-1.2.6-.3,1.3-.4,1.9-.4ZM106.6,297.8c.3,0,.5,0,.8,0,.3,0,.5-.1.7-.2v1.3c-.2,0-.5.2-.8.2-.3,0-.7.1-1,.1-.6,0-1.1,0-1.6-.3-.5-.2-.8-.5-1.1-1-.3-.5-.4-1.2-.4-2v-6.2h-1.5v-.8l1.5-.7.7-2.3h1v2.5h3.1v1.4h-3.1v6.2c0,.7.2,1.1.5,1.5.3.3.7.5,1.2.5ZM121,284.7l-5.3,14.3h-1.7l5.3-14.3h1.7ZM136.3,299h-8v-14.3h8v1.6h-6.2v4.5h5.8v1.6h-5.8v5.1h6.2v1.6ZM141.8,293.5l-3.7-5.2h2l2.8,4,2.7-4h2l-3.7,5.2,3.9,5.5h-2l-2.9-4.3-3,4.3h-2l3.9-5.5ZM153.9,288.1c1.3,0,2.3.3,2.9.9.6.6.9,1.5.9,2.7v7.3h-1.3l-.3-1.5h0c-.5.6-1,1-1.5,1.3-.5.3-1.2.4-2.1.4s-1.8-.3-2.4-.8c-.6-.5-1-1.3-1-2.4s.4-1.9,1.3-2.5c.8-.6,2.1-.9,3.9-1h1.8v-.7c0-.9-.2-1.5-.6-1.9-.4-.3-.9-.5-1.6-.5s-1.1,0-1.6.3c-.5.2-1,.3-1.4.6l-.5-1.3c.5-.3,1-.5,1.7-.6.6-.2,1.3-.3,2-.3ZM154.4,293.8c-1.3,0-2.3.3-2.8.6-.5.4-.8.9-.8,1.6s.2,1,.5,1.3c.4.3.8.4,1.4.4.9,0,1.7-.2,2.3-.7.6-.5.9-1.3.9-2.3v-1h-1.6ZM172.8,288.1c1.2,0,2.1.3,2.7.9.6.6.9,1.6.9,3v7h-1.7v-6.9c0-1.7-.7-2.5-2.2-2.5s-1.8.3-2.2.9c-.4.6-.7,1.5-.7,2.6v5.9h-1.7v-6.9c0-1.7-.7-2.5-2.2-2.5s-1.8.3-2.2,1c-.4.7-.6,1.6-.6,2.9v5.6h-1.8v-10.7h1.4l.3,1.5h.1c.3-.6.8-1,1.3-1.2.6-.3,1.2-.4,1.8-.4,1.7,0,2.8.6,3.3,1.8h0c.4-.6.8-1.1,1.5-1.4.6-.3,1.3-.4,2-.4ZM184.8,288.1c1.3,0,2.4.5,3.2,1.4.8.9,1.2,2.3,1.2,4.2s-.4,3.2-1.2,4.2c-.8.9-1.9,1.4-3.2,1.4s-1.5-.2-2.1-.5c-.5-.3-1-.7-1.3-1.1h-.1c0,.2,0,.5,0,.9,0,.3,0,.6,0,.9v4.4h-1.8v-15.5h1.4l.2,1.5h0c.3-.5.7-.9,1.3-1.2s1.2-.5,2.1-.5ZM184.5,289.6c-1.1,0-1.9.3-2.3.9-.4.6-.7,1.5-.7,2.8v.3c0,1.3.2,2.3.6,3.1.4.7,1.2,1.1,2.4,1.1s1.2-.2,1.6-.5c.4-.4.7-.8.9-1.5.2-.6.3-1.3.3-2.1,0-1.2-.2-2.2-.7-2.9-.5-.7-1.2-1.1-2.2-1.1ZM193.8,299h-1.8v-15.2h1.8v15.2ZM201.3,288.1c.9,0,1.7.2,2.4.6.7.4,1.2,1,1.5,1.7.4.7.5,1.6.5,2.5v1.1h-7.3c0,1.2.3,2.1.9,2.8.6.6,1.4.9,2.5.9s1.3,0,1.8-.2c.5-.1,1.1-.3,1.6-.6v1.5c-.5.2-1.1.4-1.6.5-.5.1-1.2.2-1.9.2s-1.9-.2-2.7-.6c-.8-.4-1.4-1-1.8-1.8-.4-.8-.6-1.8-.6-3s.2-2.2.6-3c.4-.8,1-1.5,1.7-1.9.7-.5,1.6-.7,2.5-.7ZM201.3,289.5c-.8,0-1.5.3-2,.8-.5.5-.8,1.3-.9,2.2h5.5c0-.9-.2-1.6-.6-2.2-.4-.6-1.1-.9-2-.9ZM225.4,288.1c1.2,0,2.1.3,2.7.9.6.6.9,1.6.9,3v7h-1.7v-6.9c0-1.7-.7-2.5-2.2-2.5s-1.8.3-2.2.9c-.4.6-.7,1.5-.7,2.6v5.9h-1.7v-6.9c0-1.7-.7-2.5-2.2-2.5s-1.8.3-2.2,1c-.4.7-.6,1.6-.6,2.9v5.6h-1.8v-10.7h1.4l.3,1.5h.1c.3-.6.8-1,1.3-1.2.6-.3,1.2-.4,1.8-.4,1.7,0,2.8.6,3.3,1.8h0c.4-.6.8-1.1,1.5-1.4.6-.3,1.3-.4,2-.4ZM236.5,288.1c.9,0,1.7.2,2.4.6.7.4,1.2,1,1.5,1.7.4.7.5,1.6.5,2.5v1.1h-7.3c0,1.2.3,2.1.9,2.8.6.6,1.4.9,2.5.9s1.3,0,1.8-.2c.5-.1,1.1-.3,1.6-.6v1.5c-.5.2-1.1.4-1.6.5-.5.1-1.2.2-1.9.2s-1.9-.2-2.7-.6c-.8-.4-1.4-1-1.8-1.8-.4-.8-.6-1.8-.6-3s.2-2.2.6-3c.4-.8,1-1.5,1.7-1.9.7-.5,1.6-.7,2.5-.7ZM236.5,289.5c-.8,0-1.5.3-2,.8-.5.5-.8,1.3-.9,2.2h5.5c0-.9-.2-1.6-.6-2.2-.4-.6-1.1-.9-2-.9ZM250.6,296c0,1-.4,1.8-1.2,2.4-.8.5-1.8.8-3.1.8s-1.4,0-1.9-.2c-.5-.1-1-.3-1.4-.5v-1.6c.4.2.9.4,1.5.6.6.2,1.2.3,1.9.3.9,0,1.5-.1,1.9-.4.4-.3.6-.7.6-1.2s0-.5-.2-.7c-.1-.2-.4-.4-.8-.6-.4-.2-.9-.5-1.6-.7-.7-.3-1.3-.5-1.8-.8-.5-.3-.9-.6-1.1-1-.3-.4-.4-.9-.4-1.4,0-.9.4-1.6,1.1-2.1.7-.5,1.7-.7,2.9-.7s1.3,0,1.8.2c.6.1,1.1.3,1.6.5l-.6,1.4c-.5-.2-.9-.3-1.4-.5-.5-.1-1-.2-1.5-.2s-1.3.1-1.7.4c-.4.2-.6.5-.6.9s0,.5.3.8c.2.2.5.4.9.6.4.2,1,.4,1.6.7.7.3,1.3.5,1.7.8.5.3.8.6,1.1,1,.3.4.4.8.4,1.4ZM260.2,296c0,1-.4,1.8-1.2,2.4-.8.5-1.8.8-3.1.8s-1.4,0-1.9-.2c-.5-.1-1-.3-1.4-.5v-1.6c.4.2.9.4,1.5.6.6.2,1.2.3,1.9.3.9,0,1.5-.1,1.9-.4.4-.3.6-.7.6-1.2s0-.5-.2-.7c-.1-.2-.4-.4-.8-.6-.4-.2-.9-.5-1.6-.7-.7-.3-1.3-.5-1.8-.8s-.9-.6-1.1-1c-.3-.4-.4-.9-.4-1.4,0-.9.4-1.6,1.1-2.1.7-.5,1.7-.7,2.9-.7s1.3,0,1.8.2c.6.1,1.1.3,1.6.5l-.6,1.4c-.5-.2-.9-.3-1.4-.5s-1-.2-1.5-.2-1.3.1-1.7.4c-.4.2-.6.5-.6.9s0,.5.3.8c.2.2.5.4.9.6.4.2,1,.4,1.6.7.7.3,1.3.5,1.7.8.5.3.8.6,1.1,1,.3.4.4.8.4,1.4ZM266.8,288.1c1.3,0,2.3.3,2.9.9.6.6.9,1.5.9,2.7v7.3h-1.3l-.3-1.5h0c-.5.6-1,1-1.5,1.3-.5.3-1.2.4-2.1.4s-1.8-.3-2.4-.8c-.6-.5-1-1.3-1-2.4s.4-1.9,1.3-2.5c.8-.6,2.1-.9,3.9-1h1.8v-.7c0-.9-.2-1.5-.6-1.9-.4-.3-.9-.5-1.6-.5s-1.1,0-1.6.3c-.5.2-1,.3-1.4.6l-.5-1.3c.5-.3,1-.5,1.7-.6.6-.2,1.3-.3,2-.3ZM267.4,293.8c-1.3,0-2.3.3-2.8.6-.5.4-.8.9-.8,1.6s.2,1,.5,1.3c.4.3.8.4,1.4.4.9,0,1.7-.2,2.3-.7.6-.5.9-1.3.9-2.3v-1h-1.6ZM277.8,288.1c.7,0,1.3.1,1.9.4.6.3,1.1.7,1.5,1.2h.1l.2-1.4h1.4v10.9c0,1.5-.4,2.7-1.2,3.5-.8.8-2,1.2-3.6,1.2s-2.9-.2-3.9-.7v-1.6c1.1.6,2.4.8,4,.8s1.6-.3,2.2-.8c.5-.5.8-1.3.8-2.2v-.4c0-.2,0-.4,0-.7,0-.3,0-.5,0-.6h0c-.7,1.1-1.8,1.6-3.3,1.6s-2.5-.5-3.3-1.5c-.8-1-1.2-2.3-1.2-4.1s.4-3.1,1.2-4.1c.8-1,1.9-1.5,3.2-1.5ZM278,289.6c-.9,0-1.6.4-2.1,1.1-.5.7-.7,1.7-.7,3s.2,2.3.7,3c.5.7,1.2,1,2.1,1s1.9-.3,2.4-.9c.5-.6.7-1.5.7-2.8v-.4c0-1.5-.3-2.5-.8-3.1-.5-.6-1.3-1-2.4-1ZM290.4,288.1c.9,0,1.7.2,2.4.6.7.4,1.2,1,1.5,1.7.4.7.5,1.6.5,2.5v1.1h-7.3c0,1.2.3,2.1.9,2.8.6.6,1.4.9,2.5.9s1.3,0,1.8-.2c.5-.1,1.1-.3,1.6-.6v1.5c-.5.2-1.1.4-1.6.5-.5.1-1.2.2-1.9.2s-1.9-.2-2.7-.6c-.8-.4-1.4-1-1.8-1.8-.4-.8-.6-1.8-.6-3s.2-2.2.6-3c.4-.8,1-1.5,1.7-1.9.7-.5,1.6-.7,2.5-.7ZM290.4,289.5c-.8,0-1.5.3-2,.8-.5.5-.8,1.3-.9,2.2h5.5c0-.9-.2-1.6-.6-2.2-.4-.6-1.1-.9-2-.9ZM297.3,297.9c0-.5.1-.8.4-1,.2-.2.5-.3.9-.3s.6.1.9.3c.3.2.4.5.4,1s-.1.8-.4,1c-.2.2-.5.3-.9.3s-.6-.1-.9-.3c-.2-.2-.4-.6-.4-1Z"/>
  <rect class="st9" x="70" y="320" width="478" height="46" rx="2" ry="2"/>
  <rect class="st1" x="70" y="320" width="478" height="46" rx="2" ry="2"/>
  <path class="st11" d="M91,347.2c0,1.3-.5,2.3-1.4,3-.9.7-2.2,1.1-3.7,1.1s-1.5,0-2.2-.2c-.7-.1-1.2-.3-1.7-.5v-1.7c.5.2,1.1.4,1.8.6.7.2,1.5.3,2.2.3s1.9-.2,2.4-.6c.5-.4.8-1,.8-1.7s0-.9-.3-1.2c-.2-.3-.5-.6-1-.9-.5-.3-1.2-.6-2-.9-1.2-.4-2.1-1-2.8-1.6-.6-.6-.9-1.5-.9-2.6s.2-1.4.6-1.9c.4-.5.9-1,1.6-1.3.7-.3,1.5-.4,2.4-.4s1.5,0,2.2.2c.7.1,1.2.3,1.8.6l-.6,1.5c-.5-.2-1-.4-1.6-.5-.6-.1-1.2-.2-1.8-.2-.9,0-1.6.2-2,.6-.5.4-.7.9-.7,1.5s.1.9.3,1.2.5.6,1,.9c.5.3,1.1.5,1.8.8.8.3,1.5.6,2.1,1,.6.3,1,.8,1.3,1.3.3.5.5,1.1.5,1.9ZM97.8,340.1c.9,0,1.7.2,2.4.6.7.4,1.2,1,1.5,1.7.4.7.5,1.6.5,2.5v1.1h-7.3c0,1.2.3,2.1.9,2.8.6.6,1.4.9,2.5.9s1.3,0,1.8-.2c.5-.1,1.1-.3,1.6-.6v1.5c-.5.2-1.1.4-1.6.5-.5.1-1.2.2-1.9.2s-1.9-.2-2.7-.6c-.8-.4-1.4-1-1.8-1.8-.4-.8-.6-1.8-.6-3s.2-2.2.6-3c.4-.8,1-1.5,1.7-1.9.7-.5,1.6-.7,2.5-.7ZM97.8,341.5c-.8,0-1.5.3-2,.8-.5.5-.8,1.3-.9,2.2h5.5c0-.9-.2-1.6-.6-2.2-.4-.6-1.1-.9-2-.9ZM106.7,351h-1.8v-15.2h1.8v15.2ZM114.3,340.1c.9,0,1.7.2,2.4.6.7.4,1.2,1,1.5,1.7.4.7.5,1.6.5,2.5v1.1h-7.3c0,1.2.3,2.1.9,2.8.6.6,1.4.9,2.5.9s1.3,0,1.8-.2c.5-.1,1.1-.3,1.6-.6v1.5c-.5.2-1.1.4-1.6.5-.5.1-1.2.2-1.9.2s-1.9-.2-2.7-.6c-.8-.4-1.4-1-1.8-1.8-.4-.8-.6-1.8-.6-3s.2-2.2.6-3c.4-.8,1-1.5,1.7-1.9.7-.5,1.6-.7,2.5-.7ZM114.2,341.5c-.8,0-1.5.3-2,.8-.5.5-.8,1.3-.9,2.2h5.5c0-.9-.2-1.6-.6-2.2-.4-.6-1.1-.9-2-.9ZM125.7,351.2c-.9,0-1.8-.2-2.5-.6-.7-.4-1.3-1-1.7-1.8-.4-.8-.6-1.9-.6-3.1s.2-2.4.7-3.2,1-1.4,1.8-1.8c.8-.4,1.6-.6,2.6-.6s1.1,0,1.6.2c.5.1.9.2,1.2.4l-.5,1.5c-.3-.1-.7-.2-1.1-.3-.4-.1-.8-.2-1.2-.2-2.1,0-3.2,1.4-3.2,4.1s.3,2.3.8,3c.5.7,1.3,1,2.3,1s1.1,0,1.5-.2c.5-.1.9-.3,1.2-.4v1.6c-.4.2-.8.3-1.2.4-.4.1-.9.2-1.6.2ZM134.6,349.8c.3,0,.5,0,.8,0,.3,0,.5-.1.7-.2v1.3c-.2,0-.5.2-.8.2-.3,0-.7.1-1,.1-.6,0-1.1,0-1.6-.3-.5-.2-.8-.5-1.1-1-.3-.5-.4-1.2-.4-2v-6.2h-1.5v-.8l1.5-.7.7-2.3h1v2.5h3.1v1.4h-3.1v6.2c0,.7.2,1.1.5,1.5.3.3.7.5,1.2.5ZM152.8,345.6c0,1.8-.5,3.1-1.4,4.1-.9,1-2.1,1.5-3.6,1.5s-1.8-.2-2.5-.6c-.7-.4-1.3-1.1-1.7-1.9-.4-.8-.6-1.9-.6-3,0-1.8.4-3.1,1.3-4.1.9-1,2.1-1.4,3.6-1.4s1.8.2,2.6.7c.7.4,1.3,1.1,1.7,1.9.4.8.6,1.8.6,3ZM144.7,345.6c0,1.3.2,2.3.7,3,.5.7,1.3,1.1,2.4,1.1s1.9-.4,2.4-1.1c.5-.7.8-1.8.8-3s-.3-2.3-.8-3c-.5-.7-1.3-1.1-2.4-1.1s-1.9.4-2.4,1.1c-.5.7-.7,1.7-.7,3ZM160.7,340.1c1.3,0,2.4.5,3.2,1.4.8.9,1.2,2.3,1.2,4.2s-.4,3.2-1.2,4.2c-.8.9-1.9,1.4-3.2,1.4s-1.5-.2-2.1-.5c-.5-.3-1-.7-1.3-1.1h-.1c0,.2,0,.5,0,.9,0,.3,0,.6,0,.9v4.4h-1.8v-15.5h1.4l.2,1.5h0c.3-.5.7-.9,1.3-1.2.5-.3,1.2-.5,2.1-.5ZM160.3,341.6c-1.1,0-1.9.3-2.3.9-.4.6-.7,1.5-.7,2.8v.3c0,1.3.2,2.3.6,3.1.4.7,1.2,1.1,2.4,1.1s1.2-.2,1.6-.5c.4-.4.7-.8.9-1.5.2-.6.3-1.3.3-2.1,0-1.2-.2-2.2-.7-2.9-.5-.7-1.2-1.1-2.2-1.1ZM171.4,349.8c.3,0,.5,0,.8,0,.3,0,.5-.1.7-.2v1.3c-.2,0-.5.2-.8.2-.3,0-.7.1-1,.1-.6,0-1.1,0-1.6-.3-.5-.2-.8-.5-1.1-1-.3-.5-.4-1.2-.4-2v-6.2h-1.5v-.8l1.5-.7.7-2.3h1v2.5h3.1v1.4h-3.1v6.2c0,.7.2,1.1.5,1.5.3.3.7.5,1.2.5ZM176,336.3c.3,0,.5,0,.7.3.2.2.3.5.3.8s-.1.7-.3.8c-.2.2-.4.3-.7.3s-.5,0-.7-.3-.3-.5-.3-.8.1-.7.3-.8c.2-.2.4-.3.7-.3ZM176.8,340.3v10.7h-1.8v-10.7h1.8ZM189.6,345.6c0,1.8-.5,3.1-1.4,4.1-.9,1-2.1,1.5-3.6,1.5s-1.8-.2-2.5-.6c-.7-.4-1.3-1.1-1.7-1.9-.4-.8-.6-1.9-.6-3,0-1.8.4-3.1,1.3-4.1.9-1,2.1-1.4,3.6-1.4s1.8.2,2.6.7c.7.4,1.3,1.1,1.7,1.9.4.8.6,1.8.6,3ZM181.5,345.6c0,1.3.2,2.3.7,3,.5.7,1.3,1.1,2.4,1.1s1.9-.4,2.4-1.1c.5-.7.8-1.8.8-3s-.3-2.3-.8-3c-.5-.7-1.3-1.1-2.4-1.1s-1.9.4-2.4,1.1c-.5.7-.7,1.7-.7,3ZM197.5,340.1c1.3,0,2.2.3,2.9.9.7.6,1,1.6,1,3v7h-1.7v-6.9c0-1.7-.8-2.6-2.4-2.6s-2,.3-2.5,1c-.5.7-.7,1.6-.7,2.9v5.6h-1.8v-10.7h1.4l.3,1.5h.1c.3-.6.8-1,1.4-1.2.6-.3,1.3-.4,1.9-.4Z"/>
  <path d="M525,345l-6.5-6-1.5,1.5,8,7.5,8-7.5-1.5-1.5-6.5,6Z"/>
  <rect class="st10" x="46" y="354" width="6" height="1"/>
  <rect class="st10" x="46" y="108" width="1" height="247"/>
  <rect class="st10" x="46" y="108" width="6" height="1"/>
  <rect class="st10" x="2" y="232" width="45" height="1"/>
  <g class="st6">
    <g>
      <path class="st10" d="M12,220h0c6.6,0,12,5.4,12,12h0c0,6.6-5.4,12-12,12h0c-6.6,0-12-5.4-12-12h0c0-6.6,5.4-12,12-12Z"/>
      <path class="st9" d="M12,237.1c-.7,0-1.4-.1-2-.4-.6-.3-1-.6-1.4-1.1-.3-.5-.5-1-.5-1.6h2.2c0,.2,0,.5.2.7.2.2.4.3.6.4.3.1.5.2.9.2s.6,0,.9-.2c.3-.1.4-.3.6-.5.1-.2.2-.4.2-.7s0-.5-.2-.7c-.1-.2-.4-.4-.6-.5-.3-.1-.6-.2-1-.2h-.9v-1.6h.9c.3,0,.6,0,.9-.2.3-.1.4-.3.6-.5.1-.2.2-.4.2-.7s0-.5-.2-.7c-.1-.2-.3-.3-.5-.5-.2-.1-.5-.2-.8-.2s-.6,0-.8.2c-.2.1-.4.3-.6.4-.1.2-.2.4-.2.7h-2.1c0-.6.2-1.1.5-1.6.3-.4.8-.8,1.3-1,.6-.3,1.2-.4,1.9-.4s1.3.1,1.8.4c.5.3.9.6,1.2,1,.3.4.4.9.4,1.5,0,.6-.2,1-.5,1.4-.4.4-.8.6-1.4.7h0c.7.2,1.3.4,1.7.9.4.4.6.9.6,1.6,0,.6-.2,1.1-.5,1.5-.3.4-.8.8-1.4,1.1-.6.3-1.3.4-2,.4Z"/>
    </g>
  </g>
  <g class="st4">
    <g>
      <rect class="st10" x="4" y="60" width="48" height="1"/>
      <g class="st5">
        <g>
          <path class="st10" d="M16,48h0c6.6,0,12,5.4,12,12h0c0,6.6-5.4,12-12,12h0c-6.6,0-12-5.4-12-12h0c0-6.6,5.4-12,12-12Z"/>
          <path class="st9" d="M12.4,65v-1.6l3.6-3.4c.3-.3.6-.6.8-.8.2-.2.4-.5.5-.7.1-.2.2-.5.2-.8s0-.6-.2-.8c-.1-.2-.3-.4-.6-.5-.2-.1-.5-.2-.8-.2s-.6,0-.8.2c-.2.1-.4.3-.5.5-.1.2-.2.5-.2.8h-2c0-.7.2-1.2.5-1.7.3-.5.7-.9,1.3-1.1.5-.3,1.2-.4,1.9-.4s1.4.1,1.9.4c.5.3,1,.6,1.3,1.1.3.5.5,1,.5,1.6s0,.8-.2,1.1c-.1.4-.4.8-.8,1.2-.4.5-.9,1-1.6,1.6l-1.5,1.5h0c0,0,4.3,0,4.3,0v1.8h-7.3Z"/>
        </g>
      </g>
    </g>
  </g>
  <g class="st8">
    <g>
      <rect class="st10" x="4" y="20" width="48" height="1"/>
      <g class="st7">
        <g>
          <path class="st10" d="M16,8h0c6.6,0,12,5.4,12,12h0c0,6.6-5.4,12-12,12h0c-6.6,0-12-5.4-12-12h0c0-6.6,5.4-12,12-12Z"/>
          <path class="st9" d="M17.8,14.8v10.2h-2.2v-8.1h0l-2.3,1.5v-1.9l2.5-1.6h2Z"/>
        </g>
      </g>
    </g>
  </g>
</svg>