<svg width="1040" height="358" viewBox="0 0 1040 358" fill="none" xmlns="http://www.w3.org/2000/svg">
<mask id="path-1-outside-1_60347_28717" maskUnits="userSpaceOnUse" x="20" y="84" width="1000" height="61" fill="black">
<rect fill="white" x="20" y="84" width="1000" height="61"/>
<path d="M20 84H1020V144H20V84Z"/>
</mask>
<path d="M20 84H1020V144H20V84Z" fill="white"/>
<path d="M1020 144V143H20V144V145H1020V144Z" fill="#D6D9DD" mask="url(#path-1-outside-1_60347_28717)"/>
<path d="M182.8 120H180.384V115.072H175.856V120H173.44V108.576H175.856V113.056H180.384V108.576H182.8V120ZM193.418 115.616C193.418 117.067 193.034 118.187 192.266 118.976C191.509 119.765 190.474 120.16 189.162 120.16C188.352 120.16 187.626 119.984 186.986 119.632C186.357 119.28 185.861 118.768 185.498 118.096C185.136 117.413 184.954 116.587 184.954 115.616C184.954 114.165 185.333 113.051 186.09 112.272C186.848 111.493 187.888 111.104 189.21 111.104C190.032 111.104 190.757 111.28 191.386 111.632C192.016 111.984 192.512 112.496 192.874 113.168C193.237 113.829 193.418 114.645 193.418 115.616ZM187.386 115.616C187.386 116.48 187.525 117.136 187.802 117.584C188.09 118.021 188.554 118.24 189.194 118.24C189.824 118.24 190.277 118.021 190.554 117.584C190.842 117.136 190.986 116.48 190.986 115.616C190.986 114.752 190.842 114.107 190.554 113.68C190.277 113.243 189.818 113.024 189.178 113.024C188.549 113.024 188.09 113.243 187.802 113.68C187.525 114.107 187.386 114.752 187.386 115.616ZM205.645 111.104C206.637 111.104 207.383 111.36 207.885 111.872C208.397 112.373 208.653 113.184 208.653 114.304V120H206.269V114.896C206.269 113.637 205.831 113.008 204.957 113.008C204.327 113.008 203.879 113.232 203.613 113.68C203.346 114.128 203.213 114.773 203.213 115.616V120H200.829V114.896C200.829 113.637 200.391 113.008 199.517 113.008C198.855 113.008 198.397 113.259 198.141 113.76C197.895 114.251 197.773 114.96 197.773 115.888V120H195.389V111.264H197.213L197.533 112.384H197.661C197.927 111.936 198.29 111.611 198.749 111.408C199.218 111.205 199.703 111.104 200.205 111.104C200.845 111.104 201.389 111.211 201.837 111.424C202.285 111.627 202.626 111.947 202.861 112.384H203.069C203.335 111.936 203.703 111.611 204.173 111.408C204.653 111.205 205.143 111.104 205.645 111.104ZM214.707 111.104C215.913 111.104 216.867 111.451 217.571 112.144C218.275 112.827 218.627 113.803 218.627 115.072V116.224H212.995C213.017 116.896 213.214 117.424 213.587 117.808C213.971 118.192 214.499 118.384 215.171 118.384C215.737 118.384 216.249 118.331 216.707 118.224C217.166 118.107 217.641 117.931 218.131 117.696V119.536C217.705 119.749 217.251 119.904 216.771 120C216.302 120.107 215.731 120.16 215.059 120.16C214.185 120.16 213.411 120 212.739 119.68C212.067 119.349 211.539 118.853 211.155 118.192C210.771 117.531 210.579 116.699 210.579 115.696C210.579 114.672 210.75 113.824 211.091 113.152C211.443 112.469 211.929 111.957 212.547 111.616C213.166 111.275 213.886 111.104 214.707 111.104ZM214.723 112.8C214.265 112.8 213.881 112.949 213.571 113.248C213.273 113.547 213.097 114.011 213.043 114.64H216.387C216.377 114.107 216.238 113.669 215.971 113.328C215.705 112.976 215.289 112.8 214.723 112.8ZM227.101 120H224.717V107.84H227.101V120ZM230.792 107.84C231.144 107.84 231.448 107.925 231.704 108.096C231.96 108.256 232.088 108.56 232.088 109.008C232.088 109.445 231.96 109.749 231.704 109.92C231.448 110.091 231.144 110.176 230.792 110.176C230.429 110.176 230.12 110.091 229.864 109.92C229.618 109.749 229.496 109.445 229.496 109.008C229.496 108.56 229.618 108.256 229.864 108.096C230.12 107.925 230.429 107.84 230.792 107.84ZM231.976 111.264V120H229.592V111.264H231.976ZM239.427 111.104C240.365 111.104 241.117 111.36 241.683 111.872C242.248 112.373 242.531 113.184 242.531 114.304V120H240.147V114.896C240.147 114.267 240.035 113.797 239.811 113.488C239.587 113.168 239.229 113.008 238.739 113.008C238.013 113.008 237.517 113.259 237.251 113.76C236.984 114.251 236.851 114.96 236.851 115.888V120H234.467V111.264H236.291L236.611 112.384H236.739C237.016 111.936 237.395 111.611 237.875 111.408C238.365 111.205 238.883 111.104 239.427 111.104ZM247.366 113.28C247.366 113.611 247.35 113.941 247.318 114.272C247.297 114.592 247.27 114.917 247.238 115.248H247.27C247.43 115.024 247.596 114.8 247.766 114.576C247.937 114.341 248.118 114.123 248.31 113.92L250.758 111.264H253.446L249.974 115.056L253.654 120H250.902L248.39 116.464L247.366 117.28V120H244.982V107.84H247.366V113.28Z" fill="#333333"/>
<path d="M298.896 120H296.8L291.024 110.768H290.96C290.971 110.981 290.981 111.211 290.992 111.456C291.013 111.701 291.029 111.963 291.04 112.24C291.051 112.507 291.061 112.784 291.072 113.072C291.083 113.349 291.088 113.632 291.088 113.92V120H289.52V108.576H291.6L297.36 117.76H297.408C297.397 117.6 297.387 117.403 297.376 117.168C297.365 116.923 297.355 116.661 297.344 116.384C297.344 116.107 297.339 115.824 297.328 115.536C297.317 115.248 297.307 114.976 297.296 114.72V108.576H298.896V120ZM305.094 111.216C306.182 111.216 306.993 111.456 307.526 111.936C308.059 112.405 308.326 113.147 308.326 114.16V120H307.126L306.79 118.8H306.726C306.481 119.109 306.225 119.365 305.958 119.568C305.702 119.771 305.403 119.92 305.062 120.016C304.731 120.112 304.326 120.16 303.846 120.16C303.334 120.16 302.87 120.069 302.454 119.888C302.049 119.696 301.729 119.408 301.494 119.024C301.259 118.629 301.142 118.139 301.142 117.552C301.142 116.677 301.473 116.011 302.134 115.552C302.806 115.093 303.825 114.843 305.19 114.8L306.662 114.752V114.272C306.662 113.632 306.518 113.184 306.23 112.928C305.942 112.672 305.537 112.544 305.014 112.544C304.566 112.544 304.139 112.608 303.734 112.736C303.329 112.864 302.945 113.019 302.582 113.2L302.038 111.968C302.443 111.755 302.907 111.579 303.43 111.44C303.963 111.291 304.518 111.216 305.094 111.216ZM305.494 115.888C304.513 115.931 303.83 116.096 303.446 116.384C303.073 116.661 302.886 117.056 302.886 117.568C302.886 118.016 303.019 118.341 303.286 118.544C303.563 118.747 303.91 118.848 304.326 118.848C304.998 118.848 305.553 118.661 305.99 118.288C306.427 117.915 306.646 117.355 306.646 116.608V115.856L305.494 115.888ZM312.873 120L309.609 111.376H311.401L313.193 116.416C313.268 116.629 313.343 116.869 313.417 117.136C313.503 117.403 313.577 117.659 313.641 117.904C313.705 118.149 313.748 118.363 313.769 118.544H313.833C313.865 118.363 313.913 118.149 313.977 117.904C314.052 117.648 314.132 117.392 314.217 117.136C314.303 116.869 314.377 116.629 314.441 116.416L316.233 111.376H318.025L314.745 120H312.873ZM325.212 120H323.516V107.84H325.212V120ZM329.571 111.376V120H327.875V111.376H329.571ZM328.739 108.096C328.995 108.096 329.219 108.171 329.411 108.32C329.603 108.469 329.699 108.72 329.699 109.072C329.699 109.413 329.603 109.664 329.411 109.824C329.219 109.973 328.995 110.048 328.739 110.048C328.462 110.048 328.227 109.973 328.035 109.824C327.854 109.664 327.763 109.413 327.763 109.072C327.763 108.72 327.854 108.469 328.035 108.32C328.227 108.171 328.462 108.096 328.739 108.096ZM336.602 111.216C337.605 111.216 338.373 111.467 338.906 111.968C339.44 112.469 339.706 113.275 339.706 114.384V120H338.026V114.624C338.026 113.952 337.882 113.451 337.594 113.12C337.317 112.779 336.869 112.608 336.25 112.608C335.376 112.608 334.768 112.869 334.426 113.392C334.096 113.915 333.93 114.667 333.93 115.648V120H332.234V111.376H333.578L333.818 112.528H333.914C334.106 112.229 334.341 111.984 334.618 111.792C334.896 111.6 335.205 111.456 335.546 111.36C335.888 111.264 336.24 111.216 336.602 111.216ZM343.992 113.92C343.992 114.144 343.982 114.4 343.96 114.688C343.95 114.976 343.934 115.243 343.912 115.488H343.96C344.046 115.381 344.147 115.253 344.264 115.104C344.392 114.944 344.52 114.784 344.648 114.624C344.776 114.464 344.894 114.325 345 114.208L347.64 111.376H349.608L346.136 115.072L349.832 120H347.832L344.984 116.144L343.992 116.976V120H342.312V107.84H343.992V113.92Z" fill="#595959"/>
<path d="M392.896 120H390.8L385.024 110.768H384.96C384.971 110.981 384.981 111.211 384.992 111.456C385.013 111.701 385.029 111.963 385.04 112.24C385.051 112.507 385.061 112.784 385.072 113.072C385.083 113.349 385.088 113.632 385.088 113.92V120H383.52V108.576H385.6L391.36 117.76H391.408C391.397 117.6 391.387 117.403 391.376 117.168C391.365 116.923 391.355 116.661 391.344 116.384C391.344 116.107 391.339 115.824 391.328 115.536C391.317 115.248 391.307 114.976 391.296 114.72V108.576H392.896V120ZM399.094 111.216C400.182 111.216 400.993 111.456 401.526 111.936C402.059 112.405 402.326 113.147 402.326 114.16V120H401.126L400.79 118.8H400.726C400.481 119.109 400.225 119.365 399.958 119.568C399.702 119.771 399.403 119.92 399.062 120.016C398.731 120.112 398.326 120.16 397.846 120.16C397.334 120.16 396.87 120.069 396.454 119.888C396.049 119.696 395.729 119.408 395.494 119.024C395.259 118.629 395.142 118.139 395.142 117.552C395.142 116.677 395.473 116.011 396.134 115.552C396.806 115.093 397.825 114.843 399.19 114.8L400.662 114.752V114.272C400.662 113.632 400.518 113.184 400.23 112.928C399.942 112.672 399.537 112.544 399.014 112.544C398.566 112.544 398.139 112.608 397.734 112.736C397.329 112.864 396.945 113.019 396.582 113.2L396.038 111.968C396.443 111.755 396.907 111.579 397.43 111.44C397.963 111.291 398.518 111.216 399.094 111.216ZM399.494 115.888C398.513 115.931 397.83 116.096 397.446 116.384C397.073 116.661 396.886 117.056 396.886 117.568C396.886 118.016 397.019 118.341 397.286 118.544C397.563 118.747 397.91 118.848 398.326 118.848C398.998 118.848 399.553 118.661 399.99 118.288C400.427 117.915 400.646 117.355 400.646 116.608V115.856L399.494 115.888ZM406.873 120L403.609 111.376H405.401L407.193 116.416C407.268 116.629 407.343 116.869 407.417 117.136C407.503 117.403 407.577 117.659 407.641 117.904C407.705 118.149 407.748 118.363 407.769 118.544H407.833C407.865 118.363 407.913 118.149 407.977 117.904C408.052 117.648 408.132 117.392 408.217 117.136C408.303 116.869 408.377 116.629 408.441 116.416L410.233 111.376H412.025L408.745 120H406.873ZM419.212 120H417.516V107.84H419.212V120ZM423.571 111.376V120H421.875V111.376H423.571ZM422.739 108.096C422.995 108.096 423.219 108.171 423.411 108.32C423.603 108.469 423.699 108.72 423.699 109.072C423.699 109.413 423.603 109.664 423.411 109.824C423.219 109.973 422.995 110.048 422.739 110.048C422.462 110.048 422.227 109.973 422.035 109.824C421.854 109.664 421.763 109.413 421.763 109.072C421.763 108.72 421.854 108.469 422.035 108.32C422.227 108.171 422.462 108.096 422.739 108.096ZM430.602 111.216C431.605 111.216 432.373 111.467 432.906 111.968C433.44 112.469 433.706 113.275 433.706 114.384V120H432.026V114.624C432.026 113.952 431.882 113.451 431.594 113.12C431.317 112.779 430.869 112.608 430.25 112.608C429.376 112.608 428.768 112.869 428.426 113.392C428.096 113.915 427.93 114.667 427.93 115.648V120H426.234V111.376H427.578L427.818 112.528H427.914C428.106 112.229 428.341 111.984 428.618 111.792C428.896 111.6 429.205 111.456 429.546 111.36C429.888 111.264 430.24 111.216 430.602 111.216ZM437.992 113.92C437.992 114.144 437.982 114.4 437.96 114.688C437.95 114.976 437.934 115.243 437.912 115.488H437.96C438.046 115.381 438.147 115.253 438.264 115.104C438.392 114.944 438.52 114.784 438.648 114.624C438.776 114.464 438.894 114.325 439 114.208L441.64 111.376H443.608L440.136 115.072L443.832 120H441.832L438.984 116.144L437.992 116.976V120H436.312V107.84H437.992V113.92Z" fill="#595959"/>
<path d="M486.896 120H484.8L479.024 110.768H478.96C478.971 110.981 478.981 111.211 478.992 111.456C479.013 111.701 479.029 111.963 479.04 112.24C479.051 112.507 479.061 112.784 479.072 113.072C479.083 113.349 479.088 113.632 479.088 113.92V120H477.52V108.576H479.6L485.36 117.76H485.408C485.397 117.6 485.387 117.403 485.376 117.168C485.365 116.923 485.355 116.661 485.344 116.384C485.344 116.107 485.339 115.824 485.328 115.536C485.317 115.248 485.307 114.976 485.296 114.72V108.576H486.896V120ZM493.094 111.216C494.182 111.216 494.993 111.456 495.526 111.936C496.059 112.405 496.326 113.147 496.326 114.16V120H495.126L494.79 118.8H494.726C494.481 119.109 494.225 119.365 493.958 119.568C493.702 119.771 493.403 119.92 493.062 120.016C492.731 120.112 492.326 120.16 491.846 120.16C491.334 120.16 490.87 120.069 490.454 119.888C490.049 119.696 489.729 119.408 489.494 119.024C489.259 118.629 489.142 118.139 489.142 117.552C489.142 116.677 489.473 116.011 490.134 115.552C490.806 115.093 491.825 114.843 493.19 114.8L494.662 114.752V114.272C494.662 113.632 494.518 113.184 494.23 112.928C493.942 112.672 493.537 112.544 493.014 112.544C492.566 112.544 492.139 112.608 491.734 112.736C491.329 112.864 490.945 113.019 490.582 113.2L490.038 111.968C490.443 111.755 490.907 111.579 491.43 111.44C491.963 111.291 492.518 111.216 493.094 111.216ZM493.494 115.888C492.513 115.931 491.83 116.096 491.446 116.384C491.073 116.661 490.886 117.056 490.886 117.568C490.886 118.016 491.019 118.341 491.286 118.544C491.563 118.747 491.91 118.848 492.326 118.848C492.998 118.848 493.553 118.661 493.99 118.288C494.427 117.915 494.646 117.355 494.646 116.608V115.856L493.494 115.888ZM500.873 120L497.609 111.376H499.401L501.193 116.416C501.268 116.629 501.343 116.869 501.417 117.136C501.503 117.403 501.577 117.659 501.641 117.904C501.705 118.149 501.748 118.363 501.769 118.544H501.833C501.865 118.363 501.913 118.149 501.977 117.904C502.052 117.648 502.132 117.392 502.217 117.136C502.303 116.869 502.377 116.629 502.441 116.416L504.233 111.376H506.025L502.745 120H500.873ZM514.492 111.216C515.046 111.216 515.548 111.323 515.996 111.536C516.444 111.749 516.822 112.075 517.132 112.512H517.212L517.404 111.376H518.78V120.112C518.78 120.923 518.636 121.605 518.348 122.16C518.06 122.715 517.617 123.131 517.02 123.408C516.433 123.696 515.692 123.84 514.796 123.84C514.177 123.84 513.606 123.797 513.084 123.712C512.561 123.627 512.081 123.493 511.644 123.312V121.824C511.953 121.973 512.278 122.096 512.62 122.192C512.961 122.299 513.324 122.373 513.708 122.416C514.092 122.469 514.486 122.496 514.891 122.496C515.596 122.496 516.14 122.293 516.524 121.888C516.908 121.493 517.1 120.933 517.1 120.208V119.92C517.1 119.781 517.105 119.6 517.116 119.376C517.126 119.141 517.137 118.971 517.148 118.864H517.084C516.785 119.312 516.417 119.643 515.98 119.856C515.553 120.059 515.057 120.16 514.492 120.16C513.404 120.16 512.55 119.771 511.932 118.992C511.324 118.203 511.02 117.109 511.02 115.712C511.02 114.773 511.158 113.973 511.436 113.312C511.713 112.64 512.108 112.123 512.62 111.76C513.142 111.397 513.766 111.216 514.492 111.216ZM514.844 112.624C514.396 112.624 514.017 112.747 513.708 112.992C513.398 113.227 513.164 113.573 513.004 114.032C512.844 114.491 512.764 115.056 512.764 115.728C512.764 116.731 512.94 117.493 513.292 118.016C513.654 118.539 514.182 118.8 514.876 118.8C515.281 118.8 515.622 118.747 515.9 118.64C516.188 118.533 516.422 118.368 516.604 118.144C516.796 117.92 516.934 117.637 517.02 117.296C517.116 116.944 517.164 116.523 517.164 116.032V115.712C517.164 114.976 517.078 114.384 516.908 113.936C516.748 113.477 516.497 113.147 516.156 112.944C515.814 112.731 515.377 112.624 514.844 112.624ZM525.693 111.216C525.843 111.216 526.008 111.227 526.189 111.248C526.371 111.259 526.52 111.275 526.637 111.296L526.461 112.88C526.344 112.848 526.205 112.821 526.045 112.8C525.885 112.779 525.736 112.768 525.597 112.768C525.277 112.768 524.968 112.832 524.669 112.96C524.381 113.077 524.12 113.253 523.885 113.488C523.651 113.712 523.464 113.989 523.325 114.32C523.197 114.651 523.133 115.029 523.133 115.456V120H521.437V111.376H522.781L523.005 112.912H523.069C523.251 112.603 523.469 112.32 523.725 112.064C523.981 111.808 524.275 111.605 524.605 111.456C524.936 111.296 525.299 111.216 525.693 111.216ZM535.522 115.68C535.522 116.395 535.426 117.029 535.234 117.584C535.042 118.139 534.77 118.608 534.418 118.992C534.066 119.376 533.639 119.669 533.138 119.872C532.636 120.064 532.071 120.16 531.442 120.16C530.866 120.16 530.332 120.064 529.842 119.872C529.351 119.669 528.924 119.376 528.562 118.992C528.21 118.608 527.932 118.139 527.73 117.584C527.527 117.029 527.426 116.389 527.426 115.664C527.426 114.715 527.586 113.909 527.906 113.248C528.236 112.587 528.706 112.085 529.314 111.744C529.932 111.392 530.658 111.216 531.49 111.216C532.279 111.216 532.972 111.392 533.57 111.744C534.178 112.085 534.652 112.587 534.994 113.248C535.346 113.909 535.522 114.72 535.522 115.68ZM529.17 115.68C529.17 116.32 529.25 116.875 529.41 117.344C529.57 117.803 529.82 118.155 530.162 118.4C530.503 118.645 530.94 118.768 531.474 118.768C532.007 118.768 532.444 118.645 532.786 118.4C533.127 118.155 533.378 117.803 533.538 117.344C533.698 116.875 533.778 116.32 533.778 115.68C533.778 115.019 533.692 114.464 533.522 114.016C533.362 113.568 533.111 113.227 532.77 112.992C532.439 112.747 532.002 112.624 531.458 112.624C530.658 112.624 530.076 112.891 529.714 113.424C529.351 113.957 529.17 114.709 529.17 115.68ZM545.096 111.376V120H543.736L543.496 118.864H543.416C543.234 119.163 543 119.408 542.712 119.6C542.424 119.792 542.109 119.931 541.768 120.016C541.426 120.112 541.074 120.16 540.712 120.16C540.04 120.16 539.469 120.053 539 119.84C538.541 119.616 538.189 119.275 537.944 118.816C537.709 118.347 537.592 117.749 537.592 117.024V111.376H539.304V116.768C539.304 117.44 539.442 117.941 539.72 118.272C540.008 118.603 540.45 118.768 541.048 118.768C541.645 118.768 542.114 118.651 542.456 118.416C542.797 118.181 543.037 117.84 543.176 117.392C543.325 116.933 543.4 116.384 543.4 115.744V111.376H545.096ZM552.054 111.216C553.089 111.216 553.921 111.589 554.55 112.336C555.19 113.083 555.51 114.197 555.51 115.68C555.51 116.651 555.366 117.472 555.078 118.144C554.79 118.816 554.385 119.323 553.862 119.664C553.339 119.995 552.731 120.16 552.038 120.16C551.601 120.16 551.217 120.107 550.886 120C550.555 119.883 550.273 119.733 550.038 119.552C549.814 119.36 549.617 119.157 549.446 118.944H549.334C549.366 119.136 549.393 119.365 549.414 119.632C549.435 119.888 549.446 120.117 549.446 120.32V123.84H547.75V111.376H549.126L549.366 112.528H549.446C549.617 112.293 549.819 112.075 550.054 111.872C550.289 111.669 550.571 111.509 550.902 111.392C551.233 111.275 551.617 111.216 552.054 111.216ZM551.654 112.608C551.121 112.608 550.694 112.715 550.374 112.928C550.054 113.131 549.819 113.44 549.67 113.856C549.531 114.261 549.457 114.779 549.446 115.408V115.664C549.446 116.325 549.515 116.891 549.654 117.36C549.793 117.819 550.022 118.171 550.342 118.416C550.673 118.651 551.121 118.768 551.686 118.768C552.166 118.768 552.555 118.64 552.854 118.384C553.163 118.117 553.393 117.749 553.542 117.28C553.691 116.811 553.766 116.267 553.766 115.648C553.766 114.709 553.595 113.968 553.254 113.424C552.913 112.88 552.379 112.608 551.654 112.608ZM563.524 120H561.828V107.84H563.524V120ZM569.531 111.216C570.619 111.216 571.43 111.456 571.963 111.936C572.497 112.405 572.763 113.147 572.763 114.16V120H571.563L571.227 118.8H571.163C570.918 119.109 570.662 119.365 570.395 119.568C570.139 119.771 569.841 119.92 569.499 120.016C569.169 120.112 568.763 120.16 568.283 120.16C567.771 120.16 567.307 120.069 566.891 119.888C566.486 119.696 566.166 119.408 565.931 119.024C565.697 118.629 565.579 118.139 565.579 117.552C565.579 116.677 565.91 116.011 566.571 115.552C567.243 115.093 568.262 114.843 569.627 114.8L571.099 114.752V114.272C571.099 113.632 570.955 113.184 570.667 112.928C570.379 112.672 569.974 112.544 569.451 112.544C569.003 112.544 568.577 112.608 568.171 112.736C567.766 112.864 567.382 113.019 567.019 113.2L566.475 111.968C566.881 111.755 567.345 111.579 567.867 111.44C568.401 111.291 568.955 111.216 569.531 111.216ZM569.931 115.888C568.95 115.931 568.267 116.096 567.883 116.384C567.51 116.661 567.323 117.056 567.323 117.568C567.323 118.016 567.457 118.341 567.723 118.544C568.001 118.747 568.347 118.848 568.763 118.848C569.435 118.848 569.99 118.661 570.427 118.288C570.865 117.915 571.083 117.355 571.083 116.608V115.856L569.931 115.888ZM577.071 110.768C577.071 111.12 577.06 111.456 577.039 111.776C577.028 112.085 577.012 112.331 576.991 112.512H577.071C577.316 112.149 577.647 111.845 578.063 111.6C578.479 111.355 579.018 111.232 579.679 111.232C580.714 111.232 581.546 111.605 582.175 112.352C582.815 113.099 583.135 114.208 583.135 115.68C583.135 116.672 582.991 117.499 582.703 118.16C582.415 118.821 582.01 119.323 581.487 119.664C580.964 119.995 580.356 120.16 579.663 120.16C578.991 120.16 578.452 120.043 578.047 119.808C577.642 119.563 577.316 119.275 577.071 118.944H576.943L576.623 120H575.375V107.84H577.071V110.768ZM579.279 112.608C578.724 112.608 578.287 112.715 577.967 112.928C577.647 113.141 577.418 113.467 577.279 113.904C577.14 114.341 577.071 114.896 577.071 115.568V115.696C577.071 116.688 577.231 117.451 577.551 117.984C577.871 118.507 578.458 118.768 579.311 118.768C579.994 118.768 580.511 118.501 580.863 117.968C581.215 117.435 581.391 116.667 581.391 115.664C581.391 114.651 581.215 113.888 580.863 113.376C580.511 112.864 579.983 112.608 579.279 112.608ZM588.689 111.216C589.446 111.216 590.097 111.376 590.641 111.696C591.185 112.005 591.601 112.453 591.889 113.04C592.187 113.627 592.337 114.32 592.337 115.12V116.048H586.545C586.566 116.933 586.795 117.611 587.233 118.08C587.681 118.549 588.305 118.784 589.105 118.784C589.659 118.784 590.15 118.736 590.577 118.64C591.014 118.533 591.462 118.379 591.921 118.176V119.584C591.494 119.776 591.057 119.92 590.609 120.016C590.171 120.112 589.649 120.16 589.041 120.16C588.209 120.16 587.473 119.995 586.833 119.664C586.193 119.333 585.691 118.843 585.329 118.192C584.977 117.531 584.801 116.72 584.801 115.76C584.801 114.789 584.961 113.968 585.281 113.296C585.611 112.624 586.065 112.112 586.641 111.76C587.227 111.397 587.91 111.216 588.689 111.216ZM588.689 112.528C588.081 112.528 587.59 112.725 587.217 113.12C586.854 113.515 586.641 114.075 586.577 114.8H590.641C590.641 114.352 590.571 113.957 590.433 113.616C590.294 113.275 590.081 113.008 589.793 112.816C589.505 112.624 589.137 112.528 588.689 112.528ZM596.149 120H594.453V107.84H596.149V120Z" fill="#333333"/>
<path d="M620 112.438L614.312 118.125L613 116.812L620 109.812L627 116.812L625.688 118.125L620 112.438Z" fill="#333333"/>
<g filter="url(#filter0_d_60347_28717)">
<rect x="449.215" y="152" width="317.5" height="186" rx="6" fill="white"/>
<mask id="path-10-inside-2_60347_28717" fill="white">
<path d="M461.215 164H754.715V214H461.215V164Z"/>
</mask>
<path d="M461.215 164H754.715V214H461.215V164Z" fill="#EAEDFB"/>
<path d="M461.215 214H463.215V164H461.215H459.215V214H461.215Z" fill="#1F3393" mask="url(#path-10-inside-2_60347_28717)"/>
<mask id="path-12-inside-3_60347_28717" fill="white">
<path d="M476.215 179H537.215V199H476.215V179Z"/>
</mask>
<path d="M537.215 199V197H476.215V199V201H537.215V199Z" fill="#1F3393" mask="url(#path-12-inside-3_60347_28717)"/>
<path d="M486.823 195H485.143L479.031 185.512H478.967C478.988 185.885 479.015 186.349 479.047 186.904C479.079 187.459 479.095 188.029 479.095 188.616V195H477.767V183.576H479.431L485.527 193.032H485.591C485.58 192.861 485.564 192.605 485.543 192.264C485.532 191.923 485.516 191.549 485.495 191.144C485.484 190.739 485.479 190.365 485.479 190.024V183.576H486.823V195ZM492.979 186.28C494.024 186.28 494.798 186.509 495.299 186.968C495.8 187.427 496.051 188.157 496.051 189.16V195H495.027L494.755 193.784H494.691C494.318 194.253 493.923 194.6 493.507 194.824C493.102 195.048 492.536 195.16 491.811 195.16C491.032 195.16 490.387 194.957 489.875 194.552C489.363 194.136 489.107 193.491 489.107 192.616C489.107 191.763 489.443 191.107 490.115 190.648C490.787 190.179 491.822 189.923 493.219 189.88L494.675 189.832V189.32C494.675 188.605 494.52 188.109 494.211 187.832C493.902 187.555 493.464 187.416 492.899 187.416C492.451 187.416 492.024 187.485 491.619 187.624C491.214 187.752 490.835 187.901 490.483 188.072L490.051 187.016C490.424 186.813 490.867 186.643 491.379 186.504C491.891 186.355 492.424 186.28 492.979 186.28ZM493.395 190.856C492.328 190.899 491.587 191.069 491.171 191.368C490.766 191.667 490.563 192.088 490.563 192.632C490.563 193.112 490.707 193.464 490.995 193.688C491.294 193.912 491.672 194.024 492.131 194.024C492.856 194.024 493.459 193.827 493.939 193.432C494.419 193.027 494.659 192.408 494.659 191.576V190.808L493.395 190.856ZM500.588 195L497.34 186.424H498.844L500.668 191.48C500.753 191.715 500.844 191.976 500.94 192.264C501.036 192.552 501.121 192.829 501.196 193.096C501.271 193.352 501.324 193.571 501.356 193.752H501.42C501.463 193.571 501.521 193.347 501.596 193.08C501.681 192.813 501.772 192.536 501.868 192.248C501.975 191.96 502.065 191.704 502.14 191.48L503.964 186.424H505.468L502.204 195H500.588ZM512.389 195H510.981V182.84H512.389V195ZM515.826 183.208C516.039 183.208 516.226 183.283 516.386 183.432C516.557 183.571 516.642 183.795 516.642 184.104C516.642 184.403 516.557 184.627 516.386 184.776C516.226 184.925 516.039 185 515.826 185C515.591 185 515.394 184.925 515.234 184.776C515.074 184.627 514.994 184.403 514.994 184.104C514.994 183.795 515.074 183.571 515.234 183.432C515.394 183.283 515.591 183.208 515.826 183.208ZM516.514 186.424V195H515.106V186.424H516.514ZM523.359 186.264C524.383 186.264 525.156 186.515 525.679 187.016C526.202 187.507 526.463 188.307 526.463 189.416V195H525.071V189.512C525.071 188.136 524.431 187.448 523.151 187.448C522.202 187.448 521.546 187.715 521.183 188.248C520.82 188.781 520.639 189.549 520.639 190.552V195H519.231V186.424H520.367L520.575 187.592H520.655C520.932 187.144 521.316 186.813 521.807 186.6C522.298 186.376 522.815 186.264 523.359 186.264ZM530.514 189.192C530.514 189.363 530.503 189.587 530.482 189.864C530.471 190.141 530.46 190.381 530.45 190.584H530.514C530.578 190.499 530.674 190.376 530.802 190.216C530.93 190.056 531.058 189.896 531.186 189.736C531.324 189.565 531.442 189.427 531.538 189.32L534.274 186.424H535.922L532.45 190.088L536.162 195H534.466L531.49 191L530.514 191.848V195H529.122V182.84H530.514V189.192Z" fill="#1F3393"/>
<mask id="path-15-inside-4_60347_28717" fill="white">
<path d="M476.215 235H537.215V255H476.215V235Z"/>
</mask>
<path d="M537.215 255V254H476.215V255V256H537.215V255Z" fill="#284162" mask="url(#path-15-inside-4_60347_28717)"/>
<path d="M486.823 251H485.143L479.031 241.512H478.967C478.988 241.885 479.015 242.349 479.047 242.904C479.079 243.459 479.095 244.029 479.095 244.616V251H477.767V239.576H479.431L485.527 249.032H485.591C485.58 248.861 485.564 248.605 485.543 248.264C485.532 247.923 485.516 247.549 485.495 247.144C485.484 246.739 485.479 246.365 485.479 246.024V239.576H486.823V251ZM492.979 242.28C494.024 242.28 494.798 242.509 495.299 242.968C495.8 243.427 496.051 244.157 496.051 245.16V251H495.027L494.755 249.784H494.691C494.318 250.253 493.923 250.6 493.507 250.824C493.102 251.048 492.536 251.16 491.811 251.16C491.032 251.16 490.387 250.957 489.875 250.552C489.363 250.136 489.107 249.491 489.107 248.616C489.107 247.763 489.443 247.107 490.115 246.648C490.787 246.179 491.822 245.923 493.219 245.88L494.675 245.832V245.32C494.675 244.605 494.52 244.109 494.211 243.832C493.902 243.555 493.464 243.416 492.899 243.416C492.451 243.416 492.024 243.485 491.619 243.624C491.214 243.752 490.835 243.901 490.483 244.072L490.051 243.016C490.424 242.813 490.867 242.643 491.379 242.504C491.891 242.355 492.424 242.28 492.979 242.28ZM493.395 246.856C492.328 246.899 491.587 247.069 491.171 247.368C490.766 247.667 490.563 248.088 490.563 248.632C490.563 249.112 490.707 249.464 490.995 249.688C491.294 249.912 491.672 250.024 492.131 250.024C492.856 250.024 493.459 249.827 493.939 249.432C494.419 249.027 494.659 248.408 494.659 247.576V246.808L493.395 246.856ZM500.588 251L497.34 242.424H498.844L500.668 247.48C500.753 247.715 500.844 247.976 500.94 248.264C501.036 248.552 501.121 248.829 501.196 249.096C501.271 249.352 501.324 249.571 501.356 249.752H501.42C501.463 249.571 501.521 249.347 501.596 249.08C501.681 248.813 501.772 248.536 501.868 248.248C501.975 247.96 502.065 247.704 502.14 247.48L503.964 242.424H505.468L502.204 251H500.588ZM512.389 251H510.981V238.84H512.389V251ZM515.826 239.208C516.039 239.208 516.226 239.283 516.386 239.432C516.557 239.571 516.642 239.795 516.642 240.104C516.642 240.403 516.557 240.627 516.386 240.776C516.226 240.925 516.039 241 515.826 241C515.591 241 515.394 240.925 515.234 240.776C515.074 240.627 514.994 240.403 514.994 240.104C514.994 239.795 515.074 239.571 515.234 239.432C515.394 239.283 515.591 239.208 515.826 239.208ZM516.514 242.424V251H515.106V242.424H516.514ZM523.359 242.264C524.383 242.264 525.156 242.515 525.679 243.016C526.202 243.507 526.463 244.307 526.463 245.416V251H525.071V245.512C525.071 244.136 524.431 243.448 523.151 243.448C522.202 243.448 521.546 243.715 521.183 244.248C520.82 244.781 520.639 245.549 520.639 246.552V251H519.231V242.424H520.367L520.575 243.592H520.655C520.932 243.144 521.316 242.813 521.807 242.6C522.298 242.376 522.815 242.264 523.359 242.264ZM530.514 245.192C530.514 245.363 530.503 245.587 530.482 245.864C530.471 246.141 530.46 246.381 530.45 246.584H530.514C530.578 246.499 530.674 246.376 530.802 246.216C530.93 246.056 531.058 245.896 531.186 245.736C531.324 245.565 531.442 245.427 531.538 245.32L534.274 242.424H535.922L532.45 246.088L536.162 251H534.466L531.49 247L530.514 247.848V251H529.122V238.84H530.514V245.192Z" fill="#284162"/>
<mask id="path-18-inside-5_60347_28717" fill="white">
<path d="M476.215 291H537.215V311H476.215V291Z"/>
</mask>
<path d="M537.215 311V310H476.215V311V312H537.215V311Z" fill="#284162" mask="url(#path-18-inside-5_60347_28717)"/>
<path d="M486.823 307H485.143L479.031 297.512H478.967C478.988 297.885 479.015 298.349 479.047 298.904C479.079 299.459 479.095 300.029 479.095 300.616V307H477.767V295.576H479.431L485.527 305.032H485.591C485.58 304.861 485.564 304.605 485.543 304.264C485.532 303.923 485.516 303.549 485.495 303.144C485.484 302.739 485.479 302.365 485.479 302.024V295.576H486.823V307ZM492.979 298.28C494.024 298.28 494.798 298.509 495.299 298.968C495.8 299.427 496.051 300.157 496.051 301.16V307H495.027L494.755 305.784H494.691C494.318 306.253 493.923 306.6 493.507 306.824C493.102 307.048 492.536 307.16 491.811 307.16C491.032 307.16 490.387 306.957 489.875 306.552C489.363 306.136 489.107 305.491 489.107 304.616C489.107 303.763 489.443 303.107 490.115 302.648C490.787 302.179 491.822 301.923 493.219 301.88L494.675 301.832V301.32C494.675 300.605 494.52 300.109 494.211 299.832C493.902 299.555 493.464 299.416 492.899 299.416C492.451 299.416 492.024 299.485 491.619 299.624C491.214 299.752 490.835 299.901 490.483 300.072L490.051 299.016C490.424 298.813 490.867 298.643 491.379 298.504C491.891 298.355 492.424 298.28 492.979 298.28ZM493.395 302.856C492.328 302.899 491.587 303.069 491.171 303.368C490.766 303.667 490.563 304.088 490.563 304.632C490.563 305.112 490.707 305.464 490.995 305.688C491.294 305.912 491.672 306.024 492.131 306.024C492.856 306.024 493.459 305.827 493.939 305.432C494.419 305.027 494.659 304.408 494.659 303.576V302.808L493.395 302.856ZM500.588 307L497.34 298.424H498.844L500.668 303.48C500.753 303.715 500.844 303.976 500.94 304.264C501.036 304.552 501.121 304.829 501.196 305.096C501.271 305.352 501.324 305.571 501.356 305.752H501.42C501.463 305.571 501.521 305.347 501.596 305.08C501.681 304.813 501.772 304.536 501.868 304.248C501.975 303.96 502.065 303.704 502.14 303.48L503.964 298.424H505.468L502.204 307H500.588ZM512.389 307H510.981V294.84H512.389V307ZM515.826 295.208C516.039 295.208 516.226 295.283 516.386 295.432C516.557 295.571 516.642 295.795 516.642 296.104C516.642 296.403 516.557 296.627 516.386 296.776C516.226 296.925 516.039 297 515.826 297C515.591 297 515.394 296.925 515.234 296.776C515.074 296.627 514.994 296.403 514.994 296.104C514.994 295.795 515.074 295.571 515.234 295.432C515.394 295.283 515.591 295.208 515.826 295.208ZM516.514 298.424V307H515.106V298.424H516.514ZM523.359 298.264C524.383 298.264 525.156 298.515 525.679 299.016C526.202 299.507 526.463 300.307 526.463 301.416V307H525.071V301.512C525.071 300.136 524.431 299.448 523.151 299.448C522.202 299.448 521.546 299.715 521.183 300.248C520.82 300.781 520.639 301.549 520.639 302.552V307H519.231V298.424H520.367L520.575 299.592H520.655C520.932 299.144 521.316 298.813 521.807 298.6C522.298 298.376 522.815 298.264 523.359 298.264ZM530.514 301.192C530.514 301.363 530.503 301.587 530.482 301.864C530.471 302.141 530.46 302.381 530.45 302.584H530.514C530.578 302.499 530.674 302.376 530.802 302.216C530.93 302.056 531.058 301.896 531.186 301.736C531.324 301.565 531.442 301.427 531.538 301.32L534.274 298.424H535.922L532.45 302.088L536.162 307H534.466L531.49 303L530.514 303.848V307H529.122V294.84H530.514V301.192Z" fill="#284162"/>
</g>
<g clip-path="url(#clip0_60347_28717)">
<rect x="413.067" y="245" width="33" height="1" fill="#C54600"/>
<g clip-path="url(#clip1_60347_28717)">
<rect x="413.067" y="233" width="24" height="24" rx="12" fill="#C54600"/>
<path d="M425.046 249.119C424.409 249.119 423.842 249.01 423.345 248.791C422.851 248.57 422.46 248.266 422.173 247.879C421.889 247.49 421.743 247.041 421.734 246.533H423.592C423.604 246.746 423.673 246.933 423.801 247.095C423.932 247.254 424.105 247.378 424.321 247.466C424.537 247.554 424.78 247.598 425.05 247.598C425.331 247.598 425.58 247.548 425.796 247.449C426.011 247.349 426.18 247.212 426.303 247.036C426.425 246.859 426.486 246.656 426.486 246.426C426.486 246.193 426.421 245.987 426.29 245.808C426.162 245.626 425.977 245.484 425.736 245.382C425.497 245.28 425.213 245.229 424.884 245.229H424.07V243.874H424.884C425.162 243.874 425.408 243.825 425.621 243.729C425.837 243.632 426.004 243.499 426.124 243.328C426.243 243.155 426.303 242.953 426.303 242.723C426.303 242.504 426.25 242.312 426.145 242.148C426.043 241.98 425.898 241.849 425.71 241.756C425.526 241.662 425.31 241.615 425.063 241.615C424.813 241.615 424.584 241.661 424.377 241.751C424.169 241.839 424.003 241.966 423.878 242.131C423.753 242.295 423.686 242.489 423.678 242.71H421.909C421.918 242.207 422.061 241.764 422.34 241.381C422.618 240.997 422.993 240.697 423.465 240.482C423.939 240.263 424.475 240.153 425.071 240.153C425.673 240.153 426.2 240.263 426.652 240.482C427.104 240.7 427.455 240.996 427.705 241.368C427.957 241.737 428.082 242.152 428.08 242.612C428.082 243.101 427.93 243.509 427.624 243.835C427.32 244.162 426.923 244.369 426.435 244.457V244.526C427.077 244.608 427.565 244.831 427.901 245.195C428.239 245.555 428.406 246.007 428.403 246.55C428.406 247.047 428.263 247.489 427.973 247.875C427.686 248.261 427.29 248.565 426.784 248.787C426.278 249.009 425.699 249.119 425.046 249.119Z" fill="white"/>
</g>
</g>
<rect x="445.739" y="152" width="0.695139" height="186" fill="#C54600"/>
<g clip-path="url(#clip2_60347_28717)">
<rect x="213" y="20" width="1" height="82" fill="#C54600"/>
<g clip-path="url(#clip3_60347_28717)">
<rect x="201" y="20" width="24" height="24" rx="12" fill="#C54600"/>
<path d="M214.83 26.8182V37H212.677V28.8615H212.618L210.286 30.3232V28.4141L212.807 26.8182H214.83Z" fill="white"/>
</g>
</g>
<g clip-path="url(#clip4_60347_28717)">
<rect x="319" y="20" width="1" height="82" fill="#C54600"/>
<g clip-path="url(#clip5_60347_28717)">
<rect x="307" y="20" width="24" height="24" rx="12" fill="#C54600"/>
<path d="M315.416 37V35.4489L319.04 32.093C319.349 31.7947 319.607 31.5263 319.816 31.2876C320.028 31.049 320.189 30.8153 320.298 30.5866C320.408 30.3546 320.462 30.1044 320.462 29.8359C320.462 29.5376 320.394 29.2808 320.258 29.0653C320.123 28.8466 319.937 28.6792 319.702 28.5632C319.466 28.4439 319.199 28.3842 318.901 28.3842C318.59 28.3842 318.318 28.4472 318.086 28.5732C317.854 28.6991 317.675 28.8797 317.549 29.1151C317.423 29.3504 317.36 29.6304 317.36 29.9553H315.317C315.317 29.2891 315.467 28.7107 315.769 28.2202C316.071 27.7296 316.493 27.3501 317.037 27.0817C317.58 26.8132 318.207 26.679 318.916 26.679C319.645 26.679 320.28 26.8082 320.82 27.0668C321.364 27.322 321.786 27.6766 322.088 28.1307C322.39 28.5848 322.54 29.1051 322.54 29.6918C322.54 30.0762 322.464 30.4557 322.312 30.8303C322.163 31.2048 321.896 31.6207 321.511 32.0781C321.127 32.5322 320.585 33.0774 319.886 33.7138L318.399 35.1705V35.2401H322.675V37H315.416Z" fill="white"/>
</g>
</g>
<g clip-path="url(#clip6_60347_28717)">
<rect x="553" y="20" width="1" height="82" fill="#C54600"/>
<g clip-path="url(#clip7_60347_28717)">
<rect x="541" y="20" width="24" height="24" rx="12" fill="#C54600"/>
<path d="M548.927 35.2102V33.5149L553.178 26.8182H554.639V29.1648H553.774L551.095 33.4055V33.4851H557.135V35.2102H548.927ZM553.814 37V34.6932L553.854 33.9425V26.8182H555.872V37H553.814Z" fill="white"/>
</g>
</g>
<g clip-path="url(#clip8_60347_28717)">
<rect x="619" y="20" width="1" height="82" fill="#C54600"/>
<g clip-path="url(#clip9_60347_28717)">
<rect x="607" y="20" width="24" height="24" rx="12" fill="#C54600"/>
<path d="M619.032 37.1392C618.33 37.1392 617.703 37.0099 617.153 36.7514C616.606 36.4929 616.172 36.1366 615.85 35.6825C615.529 35.2285 615.362 34.7081 615.348 34.1214H617.436C617.46 34.5159 617.625 34.8357 617.934 35.081C618.242 35.3262 618.608 35.4489 619.032 35.4489C619.37 35.4489 619.669 35.3743 619.927 35.2251C620.189 35.0727 620.393 34.8622 620.539 34.5938C620.688 34.322 620.762 34.0104 620.762 33.6591C620.762 33.3011 620.686 32.9863 620.534 32.7145C620.385 32.4427 620.177 32.2306 619.912 32.0781C619.647 31.9257 619.344 31.8478 619.002 31.8445C618.704 31.8445 618.414 31.9058 618.132 32.0284C617.854 32.151 617.637 32.3184 617.481 32.5305L615.567 32.1875L616.049 26.8182H622.274V28.5781H617.824L617.561 31.1286H617.62C617.799 30.8767 618.069 30.6679 618.431 30.5021C618.792 30.3364 619.196 30.2536 619.644 30.2536C620.257 30.2536 620.804 30.3977 621.284 30.6861C621.765 30.9744 622.145 31.3705 622.423 31.8743C622.701 32.3748 622.839 32.9515 622.836 33.6044C622.839 34.2905 622.68 34.9003 622.358 35.4339C622.04 35.9643 621.594 36.3819 621.021 36.6868C620.451 36.9884 619.788 37.1392 619.032 37.1392Z" fill="white"/>
</g>
</g>
<g clip-path="url(#clip10_60347_28717)">
<rect x="755" y="193" width="48" height="1" fill="#C54600"/>
<g clip-path="url(#clip11_60347_28717)">
<rect x="779" y="181" width="24" height="24" rx="12" fill="#C54600"/>
<path d="M791.096 197.119C790.647 197.116 790.214 197.041 789.796 196.893C789.381 196.746 789.009 196.506 788.68 196.173C788.35 195.841 788.089 195.401 787.896 194.852C787.705 194.304 787.61 193.631 787.61 192.832C787.613 192.099 787.697 191.445 787.862 190.868C788.029 190.288 788.268 189.797 788.577 189.393C788.89 188.99 789.263 188.683 789.698 188.473C790.133 188.26 790.62 188.153 791.16 188.153C791.742 188.153 792.256 188.267 792.702 188.494C793.148 188.719 793.506 189.024 793.776 189.411C794.049 189.797 794.214 190.23 794.271 190.71H792.451C792.38 190.406 792.231 190.168 792.004 189.994C791.776 189.821 791.495 189.734 791.16 189.734C790.592 189.734 790.16 189.982 789.864 190.476C789.572 190.97 789.423 191.642 789.417 192.491H789.477C789.607 192.233 789.783 192.013 790.005 191.831C790.229 191.646 790.484 191.506 790.768 191.409C791.055 191.31 791.357 191.26 791.675 191.26C792.192 191.26 792.653 191.382 793.056 191.626C793.46 191.868 793.778 192.2 794.011 192.624C794.244 193.047 794.36 193.531 794.36 194.077C794.36 194.668 794.222 195.193 793.947 195.653C793.674 196.114 793.292 196.474 792.8 196.736C792.312 196.994 791.744 197.122 791.096 197.119ZM791.087 195.67C791.371 195.67 791.626 195.602 791.85 195.466C792.075 195.33 792.251 195.145 792.379 194.912C792.506 194.679 792.57 194.418 792.57 194.128C792.57 193.838 792.506 193.578 792.379 193.348C792.254 193.118 792.08 192.935 791.859 192.798C791.637 192.662 791.384 192.594 791.1 192.594C790.887 192.594 790.69 192.634 790.508 192.713C790.329 192.793 790.171 192.903 790.035 193.045C789.901 193.187 789.796 193.352 789.719 193.54C789.643 193.724 789.604 193.922 789.604 194.132C789.604 194.413 789.668 194.67 789.796 194.903C789.927 195.136 790.103 195.322 790.325 195.462C790.549 195.601 790.803 195.67 791.087 195.67Z" fill="white"/>
</g>
</g>
<defs>
<filter id="filter0_d_60347_28717" x="439.215" y="142" width="337.5" height="206" filterUnits="userSpaceOnUse" color-interpolation-filters="sRGB">
<feFlood flood-opacity="0" result="BackgroundImageFix"/>
<feColorMatrix in="SourceAlpha" type="matrix" values="0 0 0 0 0 0 0 0 0 0 0 0 0 0 0 0 0 0 127 0" result="hardAlpha"/>
<feOffset/>
<feGaussianBlur stdDeviation="5"/>
<feComposite in2="hardAlpha" operator="out"/>
<feColorMatrix type="matrix" values="0 0 0 0 0 0 0 0 0 0 0 0 0 0 0 0 0 0 0.25 0"/>
<feBlend mode="normal" in2="BackgroundImageFix" result="effect1_dropShadow_60347_28717"/>
<feBlend mode="normal" in="SourceGraphic" in2="effect1_dropShadow_60347_28717" result="shape"/>
</filter>
<clipPath id="clip0_60347_28717">
<rect width="33.3667" height="24" fill="white" transform="translate(413.067 233)"/>
</clipPath>
<clipPath id="clip1_60347_28717">
<rect x="413.067" y="233" width="24" height="24" rx="12" fill="white"/>
</clipPath>
<clipPath id="clip2_60347_28717">
<rect width="24" height="82" fill="white" transform="translate(201 20)"/>
</clipPath>
<clipPath id="clip3_60347_28717">
<rect x="201" y="20" width="24" height="24" rx="12" fill="white"/>
</clipPath>
<clipPath id="clip4_60347_28717">
<rect width="24" height="82" fill="white" transform="translate(307 20)"/>
</clipPath>
<clipPath id="clip5_60347_28717">
<rect x="307" y="20" width="24" height="24" rx="12" fill="white"/>
</clipPath>
<clipPath id="clip6_60347_28717">
<rect width="24" height="82" fill="white" transform="translate(541 20)"/>
</clipPath>
<clipPath id="clip7_60347_28717">
<rect x="541" y="20" width="24" height="24" rx="12" fill="white"/>
</clipPath>
<clipPath id="clip8_60347_28717">
<rect width="24" height="82" fill="white" transform="translate(607 20)"/>
</clipPath>
<clipPath id="clip9_60347_28717">
<rect x="607" y="20" width="24" height="24" rx="12" fill="white"/>
</clipPath>
<clipPath id="clip10_60347_28717">
<rect width="48" height="24" fill="white" transform="translate(755 181)"/>
</clipPath>
<clipPath id="clip11_60347_28717">
<rect x="779" y="181" width="24" height="24" rx="12" fill="white"/>
</clipPath>
</defs>
</svg>
