<svg width="1072" height="281" viewBox="0 0 1072 281" fill="none" xmlns="http://www.w3.org/2000/svg">
<path d="M105.102 49.9251H97.2449V72H92.3975V49.9251H84.5406V45.9426H105.102V49.9251ZM111.943 55.4934C112.664 54.8206 113.457 54.274 114.322 53.8535C115.187 53.4331 116.202 53.2228 117.367 53.2228C118.376 53.2228 119.271 53.397 120.052 53.7454C120.833 54.0818 121.482 54.5623 121.998 55.187C122.527 55.7997 122.923 56.5386 123.188 57.4035C123.464 58.2565 123.602 59.1996 123.602 60.2327V72H119.151V60.2327C119.151 59.1035 118.893 58.2325 118.376 57.6198C117.86 56.9951 117.073 56.6827 116.016 56.6827C115.247 56.6827 114.526 56.8569 113.853 57.2053C113.18 57.5537 112.544 58.0282 111.943 58.6289V72H107.492V45.2218H111.943V55.4934ZM139.747 60.6292C139.747 60.0525 139.663 59.5119 139.494 59.0073C139.338 58.4908 139.098 58.0403 138.774 57.6558C138.449 57.2714 138.035 56.971 137.53 56.7548C137.038 56.5265 136.461 56.4124 135.8 56.4124C134.515 56.4124 133.5 56.7788 132.755 57.5117C132.022 58.2445 131.553 59.2837 131.349 60.6292H139.747ZM131.259 63.3142C131.331 64.2633 131.499 65.0862 131.764 65.783C132.028 66.4678 132.376 67.0384 132.809 67.4949C133.241 67.9394 133.752 68.2758 134.341 68.5041C134.941 68.7203 135.602 68.8284 136.323 68.8284C137.044 68.8284 137.662 68.7443 138.179 68.5761C138.708 68.4079 139.164 68.2217 139.548 68.0175C139.945 67.8133 140.287 67.6271 140.576 67.4589C140.876 67.2907 141.164 67.2066 141.441 67.2066C141.813 67.2066 142.089 67.3447 142.27 67.6211L143.549 69.2429C143.056 69.8195 142.504 70.3061 141.891 70.7025C141.278 71.087 140.636 71.3993 139.963 71.6396C139.302 71.8679 138.623 72.03 137.927 72.1261C137.242 72.2223 136.575 72.2703 135.926 72.2703C134.641 72.2703 133.446 72.0601 132.34 71.6396C131.235 71.2071 130.274 70.5764 129.457 69.7475C128.64 68.9065 127.997 67.8733 127.529 66.648C127.06 65.4106 126.826 63.981 126.826 62.3591C126.826 61.0977 127.03 59.9144 127.439 58.8091C127.847 57.6919 128.43 56.7248 129.187 55.9078C129.956 55.0789 130.887 54.4242 131.98 53.9436C133.085 53.4631 134.329 53.2228 135.71 53.2228C136.875 53.2228 137.951 53.409 138.936 53.7815C139.921 54.1539 140.768 54.7005 141.477 55.4213C142.185 56.1301 142.738 57.0071 143.135 58.0523C143.543 59.0854 143.747 60.2688 143.747 61.6023C143.747 62.275 143.675 62.7315 143.531 62.9718C143.387 63.2001 143.111 63.3142 142.702 63.3142H131.259ZM151.286 56.7188C151.863 55.6135 152.548 54.7485 153.341 54.1238C154.133 53.4871 155.07 53.1688 156.152 53.1688C157.005 53.1688 157.689 53.355 158.206 53.7274L157.918 57.0611C157.858 57.2774 157.768 57.4336 157.647 57.5297C157.539 57.6138 157.389 57.6558 157.197 57.6558C157.017 57.6558 156.746 57.6258 156.386 57.5657C156.038 57.5057 155.695 57.4756 155.359 57.4756C154.866 57.4756 154.428 57.5477 154.043 57.6919C153.659 57.836 153.31 58.0463 152.998 58.3226C152.698 58.5869 152.427 58.9112 152.187 59.2957C151.959 59.6801 151.743 60.1186 151.538 60.6112V72H147.087V53.5111H149.7C150.157 53.5111 150.475 53.5952 150.655 53.7634C150.836 53.9196 150.956 54.2079 151.016 54.6284L151.286 56.7188ZM171.916 60.6292C171.916 60.0525 171.832 59.5119 171.664 59.0073C171.507 58.4908 171.267 58.0403 170.943 57.6558C170.618 57.2714 170.204 56.971 169.699 56.7548C169.207 56.5265 168.63 56.4124 167.969 56.4124C166.684 56.4124 165.669 56.7788 164.924 57.5117C164.191 58.2445 163.723 59.2837 163.518 60.6292H171.916ZM163.428 63.3142C163.5 64.2633 163.669 65.0862 163.933 65.783C164.197 66.4678 164.546 67.0384 164.978 67.4949C165.41 67.9394 165.921 68.2758 166.51 68.5041C167.11 68.7203 167.771 68.8284 168.492 68.8284C169.213 68.8284 169.831 68.7443 170.348 68.5761C170.877 68.4079 171.333 68.2217 171.718 68.0175C172.114 67.8133 172.456 67.6271 172.745 67.4589C173.045 67.2907 173.333 67.2066 173.61 67.2066C173.982 67.2066 174.258 67.3447 174.439 67.6211L175.718 69.2429C175.226 69.8195 174.673 70.3061 174.06 70.7025C173.448 71.087 172.805 71.3993 172.132 71.6396C171.471 71.8679 170.793 72.03 170.096 72.1261C169.411 72.2223 168.744 72.2703 168.096 72.2703C166.81 72.2703 165.615 72.0601 164.509 71.6396C163.404 71.2071 162.443 70.5764 161.626 69.7475C160.809 68.9065 160.167 67.8733 159.698 66.648C159.23 65.4106 158.995 63.981 158.995 62.3591C158.995 61.0977 159.199 59.9144 159.608 58.8091C160.016 57.6919 160.599 56.7248 161.356 55.9078C162.125 55.0789 163.056 54.4242 164.149 53.9436C165.254 53.4631 166.498 53.2228 167.879 53.2228C169.045 53.2228 170.12 53.409 171.105 53.7815C172.09 54.1539 172.937 54.7005 173.646 55.4213C174.355 56.1301 174.907 57.0071 175.304 58.0523C175.712 59.0854 175.916 60.2688 175.916 61.6023C175.916 62.275 175.844 62.7315 175.7 62.9718C175.556 63.2001 175.28 63.3142 174.871 63.3142H163.428ZM213.681 53.5111L207.806 72H204.238C203.83 72 203.548 71.7357 203.391 71.2071L200.076 60.5211C199.968 60.1606 199.865 59.8062 199.769 59.4579C199.685 59.0974 199.613 58.737 199.553 58.3766C199.481 58.737 199.397 59.1035 199.301 59.4759C199.217 59.8363 199.121 60.1967 199.012 60.5571L195.643 71.2071C195.499 71.7357 195.18 72 194.688 72H191.264L185.407 53.5111H188.957C189.281 53.5111 189.558 53.5892 189.786 53.7454C190.014 53.9016 190.164 54.0998 190.237 54.3401L192.886 64.2152C193.018 64.7558 193.132 65.2844 193.228 65.801C193.336 66.3176 193.426 66.8342 193.498 67.3508C193.63 66.8342 193.769 66.3176 193.913 65.801C194.069 65.2844 194.231 64.7558 194.399 64.2152L197.463 54.304C197.535 54.0638 197.673 53.8655 197.877 53.7094C198.093 53.5532 198.352 53.4751 198.652 53.4751H200.616C200.929 53.4751 201.193 53.5532 201.409 53.7094C201.637 53.8655 201.788 54.0638 201.86 54.304L204.833 64.2152C204.989 64.7558 205.133 65.2904 205.266 65.819C205.41 66.3356 205.548 66.8522 205.68 67.3688C205.836 66.3476 206.058 65.2964 206.347 64.2152L209.068 54.3401C209.152 54.0998 209.302 53.9016 209.518 53.7454C209.735 53.5892 209.993 53.5111 210.293 53.5111H213.681ZM225.733 64.1071C224.448 64.1672 223.366 64.2813 222.489 64.4495C221.612 64.6057 220.91 64.8099 220.381 65.0622C219.852 65.3145 219.474 65.6088 219.246 65.9452C219.017 66.2815 218.903 66.648 218.903 67.0444C218.903 67.8253 219.132 68.3839 219.588 68.7203C220.057 69.0567 220.663 69.2249 221.408 69.2249C222.321 69.2249 223.108 69.0627 223.769 68.7383C224.441 68.4019 225.096 67.8974 225.733 67.2246V64.1071ZM215.533 56.0881C217.66 54.1419 220.219 53.1688 223.21 53.1688C224.291 53.1688 225.258 53.349 226.111 53.7094C226.964 54.0578 227.685 54.5503 228.274 55.187C228.862 55.8117 229.307 56.5626 229.607 57.4396C229.92 58.3166 230.076 59.2777 230.076 60.3228V72H228.058C227.637 72 227.313 71.9399 227.084 71.8198C226.856 71.6876 226.676 71.4294 226.544 71.0449L226.147 69.7114C225.679 70.1319 225.222 70.5043 224.778 70.8287C224.333 71.141 223.871 71.4053 223.39 71.6216C222.91 71.8378 222.393 72 221.841 72.1081C221.3 72.2283 220.699 72.2883 220.039 72.2883C219.258 72.2883 218.537 72.1862 217.876 71.982C217.215 71.7657 216.645 71.4474 216.164 71.0269C215.684 70.6064 215.311 70.0838 215.047 69.4591C214.783 68.8344 214.65 68.1076 214.65 67.2787C214.65 66.8101 214.729 66.3476 214.885 65.8911C215.041 65.4226 215.293 64.9781 215.642 64.5576C216.002 64.1371 216.464 63.7407 217.029 63.3683C217.594 62.9958 218.285 62.6715 219.101 62.3952C219.93 62.1189 220.891 61.8966 221.985 61.7284C223.078 61.5482 224.327 61.4401 225.733 61.404V60.3228C225.733 59.0854 225.469 58.1724 224.94 57.5837C224.411 56.9831 223.649 56.6827 222.651 56.6827C221.931 56.6827 221.33 56.7668 220.849 56.935C220.381 57.1032 219.966 57.2954 219.606 57.5117C219.246 57.7159 218.915 57.9021 218.615 58.0703C218.327 58.2385 218.002 58.3226 217.642 58.3226C217.329 58.3226 217.065 58.2445 216.849 58.0883C216.633 57.9201 216.458 57.7279 216.326 57.5117L215.533 56.0881ZM245.549 57.1152C245.428 57.3074 245.302 57.4456 245.17 57.5297C245.038 57.6018 244.87 57.6378 244.666 57.6378C244.449 57.6378 244.215 57.5777 243.963 57.4576C243.722 57.3375 243.44 57.2053 243.116 57.0611C242.791 56.905 242.419 56.7668 241.999 56.6467C241.59 56.5265 241.104 56.4665 240.539 56.4665C239.662 56.4665 238.971 56.6527 238.467 57.0251C237.974 57.3975 237.728 57.8841 237.728 58.4848C237.728 58.8812 237.854 59.2176 238.106 59.4939C238.37 59.7582 238.713 59.9925 239.133 60.1967C239.566 60.4009 240.052 60.5871 240.593 60.7553C241.134 60.9115 241.68 61.0857 242.233 61.2779C242.797 61.4701 243.35 61.6924 243.891 61.9447C244.431 62.1849 244.912 62.4973 245.332 62.8817C245.765 63.2541 246.107 63.7046 246.359 64.2332C246.624 64.7618 246.756 65.3986 246.756 66.1434C246.756 67.0324 246.594 67.8553 246.269 68.6122C245.957 69.357 245.488 70.0058 244.864 70.5584C244.239 71.099 243.464 71.5255 242.539 71.8378C241.626 72.1382 240.569 72.2883 239.368 72.2883C238.731 72.2883 238.106 72.2283 237.493 72.1081C236.893 72 236.31 71.8438 235.745 71.6396C235.193 71.4354 234.676 71.1951 234.196 70.9188C233.727 70.6425 233.313 70.3421 232.952 70.0178L233.98 68.3239C234.112 68.1196 234.268 67.9634 234.448 67.8553C234.628 67.7472 234.856 67.6931 235.133 67.6931C235.409 67.6931 235.667 67.7712 235.908 67.9274C236.16 68.0836 236.448 68.2518 236.773 68.432C237.097 68.6122 237.475 68.7804 237.908 68.9365C238.352 69.0927 238.911 69.1708 239.584 69.1708C240.112 69.1708 240.563 69.1107 240.935 68.9906C241.32 68.8585 241.632 68.6903 241.872 68.486C242.125 68.2818 242.305 68.0475 242.413 67.7832C242.533 67.5069 242.593 67.2246 242.593 66.9363C242.593 66.5038 242.461 66.1494 242.197 65.8731C241.944 65.5968 241.602 65.3565 241.17 65.1523C240.749 64.948 240.263 64.7678 239.71 64.6117C239.169 64.4435 238.611 64.2633 238.034 64.0711C237.469 63.8788 236.911 63.6566 236.358 63.4043C235.818 63.14 235.331 62.8096 234.899 62.4132C234.478 62.0167 234.136 61.5302 233.871 60.9535C233.619 60.3769 233.493 59.6801 233.493 58.8632C233.493 58.1063 233.643 57.3855 233.943 56.7007C234.244 56.016 234.682 55.4213 235.259 54.9167C235.848 54.4001 236.574 53.9917 237.439 53.6913C238.316 53.379 239.326 53.2228 240.467 53.2228C241.74 53.2228 242.9 53.4331 243.945 53.8535C244.99 54.274 245.861 54.8266 246.558 55.5114L245.549 57.1152ZM268.637 64.1071C267.351 64.1672 266.27 64.2813 265.393 64.4495C264.516 64.6057 263.813 64.8099 263.285 65.0622C262.756 65.3145 262.378 65.6088 262.149 65.9452C261.921 66.2815 261.807 66.648 261.807 67.0444C261.807 67.8253 262.035 68.3839 262.492 68.7203C262.96 69.0567 263.567 69.2249 264.312 69.2249C265.225 69.2249 266.012 69.0627 266.673 68.7383C267.345 68.4019 268 67.8974 268.637 67.2246V64.1071ZM258.437 56.0881C260.564 54.1419 263.123 53.1688 266.114 53.1688C267.195 53.1688 268.162 53.349 269.015 53.7094C269.868 54.0578 270.589 54.5503 271.178 55.187C271.766 55.8117 272.211 56.5626 272.511 57.4396C272.824 58.3166 272.98 59.2777 272.98 60.3228V72H270.961C270.541 72 270.217 71.9399 269.988 71.8198C269.76 71.6876 269.58 71.4294 269.448 71.0449L269.051 69.7114C268.583 70.1319 268.126 70.5043 267.682 70.8287C267.237 71.141 266.775 71.4053 266.294 71.6216C265.814 71.8378 265.297 72 264.744 72.1081C264.204 72.2283 263.603 72.2883 262.942 72.2883C262.162 72.2883 261.441 72.1862 260.78 71.982C260.119 71.7657 259.549 71.4474 259.068 71.0269C258.587 70.6064 258.215 70.0838 257.951 69.4591C257.686 68.8344 257.554 68.1076 257.554 67.2787C257.554 66.8101 257.632 66.3476 257.789 65.8911C257.945 65.4226 258.197 64.9781 258.545 64.5576C258.906 64.1371 259.368 63.7407 259.933 63.3683C260.498 62.9958 261.188 62.6715 262.005 62.3952C262.834 62.1189 263.795 61.8966 264.889 61.7284C265.982 61.5482 267.231 61.4401 268.637 61.404V60.3228C268.637 59.0854 268.373 58.1724 267.844 57.5837C267.315 56.9831 266.552 56.6827 265.555 56.6827C264.835 56.6827 264.234 56.7668 263.753 56.935C263.285 57.1032 262.87 57.2954 262.51 57.5117C262.149 57.7159 261.819 57.9021 261.519 58.0703C261.23 58.2385 260.906 58.3226 260.546 58.3226C260.233 58.3226 259.969 58.2445 259.753 58.0883C259.537 57.9201 259.362 57.7279 259.23 57.5117L258.437 56.0881ZM290.386 67.2066C290.891 67.8193 291.438 68.2518 292.026 68.5041C292.627 68.7563 293.276 68.8825 293.973 68.8825C294.645 68.8825 295.252 68.7563 295.793 68.5041C296.333 68.2518 296.79 67.8673 297.162 67.3508C297.547 66.8342 297.841 66.1854 298.045 65.4046C298.249 64.6117 298.351 63.6806 298.351 62.6114C298.351 61.5302 298.261 60.6172 298.081 59.8723C297.913 59.1155 297.667 58.5028 297.342 58.0342C297.018 57.5657 296.622 57.2233 296.153 57.0071C295.696 56.7908 295.174 56.6827 294.585 56.6827C293.66 56.6827 292.873 56.8809 292.225 57.2774C291.576 57.6618 290.963 58.2084 290.386 58.9172V67.2066ZM290.152 56.034C290.909 55.181 291.768 54.4903 292.729 53.9617C293.69 53.4331 294.82 53.1688 296.117 53.1688C297.126 53.1688 298.045 53.379 298.874 53.7995C299.715 54.2199 300.436 54.8326 301.037 55.6375C301.649 56.4304 302.118 57.4155 302.442 58.5929C302.778 59.7582 302.947 61.0977 302.947 62.6114C302.947 63.993 302.76 65.2724 302.388 66.4497C302.016 67.6271 301.481 68.6482 300.784 69.5132C300.099 70.3782 299.265 71.0569 298.279 71.5495C297.306 72.03 296.213 72.2703 295 72.2703C293.967 72.2703 293.084 72.1141 292.351 71.8018C291.618 71.4774 290.963 71.0329 290.386 70.4683V78.0368H285.935V53.5111H288.657C289.233 53.5111 289.612 53.7815 289.792 54.3221L290.152 56.034ZM310.618 56.7188C311.195 55.6135 311.88 54.7485 312.673 54.1238C313.465 53.4871 314.403 53.1688 315.484 53.1688C316.337 53.1688 317.021 53.355 317.538 53.7274L317.25 57.0611C317.19 57.2774 317.1 57.4336 316.979 57.5297C316.871 57.6138 316.721 57.6558 316.529 57.6558C316.349 57.6558 316.078 57.6258 315.718 57.5657C315.37 57.5057 315.027 57.4756 314.691 57.4756C314.198 57.4756 313.76 57.5477 313.375 57.6919C312.991 57.836 312.643 58.0463 312.33 58.3226C312.03 58.5869 311.76 58.9112 311.519 59.2957C311.291 59.6801 311.075 60.1186 310.871 60.6112V72H306.42V53.5111H309.032C309.489 53.5111 309.807 53.5952 309.988 53.7634C310.168 53.9196 310.288 54.2079 310.348 54.6284L310.618 56.7188ZM327.518 53.2228C328.887 53.2228 330.131 53.4451 331.248 53.8896C332.377 54.3341 333.338 54.9648 334.131 55.7817C334.936 56.5986 335.555 57.5958 335.987 58.7731C336.42 59.9504 336.636 61.2659 336.636 62.7195C336.636 64.1852 336.42 65.5067 335.987 66.684C335.555 67.8613 334.936 68.8645 334.131 69.6934C333.338 70.5223 332.377 71.1591 331.248 71.6036C330.131 72.0481 328.887 72.2703 327.518 72.2703C326.136 72.2703 324.881 72.0481 323.751 71.6036C322.622 71.1591 321.655 70.5223 320.85 69.6934C320.057 68.8645 319.439 67.8613 318.994 66.684C318.562 65.5067 318.345 64.1852 318.345 62.7195C318.345 61.2659 318.562 59.9504 318.994 58.7731C319.439 57.5958 320.057 56.5986 320.85 55.7817C321.655 54.9648 322.622 54.3341 323.751 53.8896C324.881 53.4451 326.136 53.2228 327.518 53.2228ZM327.518 68.8464C329.055 68.8464 330.191 68.3299 330.924 67.2967C331.668 66.2635 332.041 64.7498 332.041 62.7556C332.041 60.7613 331.668 59.2416 330.924 58.1964C330.191 57.1513 329.055 56.6287 327.518 56.6287C325.956 56.6287 324.797 57.1573 324.04 58.2145C323.295 59.2596 322.922 60.7733 322.922 62.7556C322.922 64.7378 323.295 66.2515 324.04 67.2967C324.797 68.3299 325.956 68.8464 327.518 68.8464ZM344.483 67.2066C344.987 67.8193 345.534 68.2518 346.123 68.5041C346.723 68.7563 347.354 68.8825 348.015 68.8825C348.699 68.8825 349.312 68.7623 349.853 68.5221C350.405 68.2698 350.874 67.8854 351.258 67.3688C351.643 66.8402 351.937 66.1734 352.141 65.3685C352.346 64.5516 352.448 63.5785 352.448 62.4492C352.448 60.4189 352.111 58.9533 351.439 58.0523C350.766 57.1392 349.799 56.6827 348.537 56.6827C347.684 56.6827 346.939 56.8809 346.303 57.2774C345.666 57.6618 345.059 58.2084 344.483 58.9172V67.2066ZM344.483 55.7817C345.228 55.0008 346.05 54.3821 346.951 53.9256C347.864 53.4571 348.904 53.2228 350.069 53.2228C351.138 53.2228 352.099 53.4331 352.952 53.8535C353.817 54.274 354.55 54.8807 355.151 55.6736C355.763 56.4545 356.232 57.4035 356.556 58.5208C356.881 59.6381 357.043 60.8935 357.043 62.287C357.043 63.7887 356.857 65.1523 356.484 66.3777C356.112 67.603 355.577 68.6542 354.88 69.5312C354.196 70.3962 353.367 71.0689 352.394 71.5495C351.42 72.03 350.339 72.2703 349.15 72.2703C348.573 72.2703 348.051 72.2102 347.582 72.0901C347.114 71.982 346.681 71.8258 346.285 71.6216C345.888 71.4173 345.522 71.1711 345.185 70.8827C344.861 70.5824 344.549 70.252 344.248 69.8916L344.05 71.135C343.978 71.4474 343.852 71.6696 343.672 71.8018C343.504 71.9339 343.269 72 342.969 72H340.032V45.2218H344.483V55.7817ZM364.986 45.2218V72H360.535V45.2218H364.986ZM381.332 60.6292C381.332 60.0525 381.248 59.5119 381.079 59.0073C380.923 58.4908 380.683 58.0403 380.359 57.6558C380.034 57.2714 379.62 56.971 379.115 56.7548C378.623 56.5265 378.046 56.4124 377.385 56.4124C376.1 56.4124 375.085 56.7788 374.34 57.5117C373.607 58.2445 373.138 59.2837 372.934 60.6292H381.332ZM372.844 63.3142C372.916 64.2633 373.084 65.0862 373.349 65.783C373.613 66.4678 373.961 67.0384 374.394 67.4949C374.826 67.9394 375.337 68.2758 375.926 68.5041C376.526 68.7203 377.187 68.8284 377.908 68.8284C378.629 68.8284 379.247 68.7443 379.764 68.5761C380.293 68.4079 380.749 68.2217 381.133 68.0175C381.53 67.8133 381.872 67.6271 382.161 67.4589C382.461 67.2907 382.749 67.2066 383.026 67.2066C383.398 67.2066 383.674 67.3447 383.855 67.6211L385.134 69.2429C384.641 69.8195 384.089 70.3061 383.476 70.7025C382.863 71.087 382.221 71.3993 381.548 71.6396C380.887 71.8679 380.208 72.03 379.512 72.1261C378.827 72.2223 378.16 72.2703 377.511 72.2703C376.226 72.2703 375.031 72.0601 373.925 71.6396C372.82 71.2071 371.859 70.5764 371.042 69.7475C370.225 68.9065 369.582 67.8733 369.114 66.648C368.645 65.4106 368.411 63.981 368.411 62.3591C368.411 61.0977 368.615 59.9144 369.024 58.8091C369.432 57.6919 370.015 56.7248 370.772 55.9078C371.541 55.0789 372.472 54.4242 373.565 53.9436C374.67 53.4631 375.914 53.2228 377.295 53.2228C378.46 53.2228 379.536 53.409 380.521 53.7815C381.506 54.1539 382.353 54.7005 383.062 55.4213C383.77 56.1301 384.323 57.0071 384.72 58.0523C385.128 59.0854 385.332 60.2688 385.332 61.6023C385.332 62.275 385.26 62.7315 385.116 62.9718C384.972 63.2001 384.695 63.3142 384.287 63.3142H372.844ZM388.672 72V53.5111H391.394C391.97 53.5111 392.349 53.7815 392.529 54.3221L392.817 55.6916C393.141 55.3312 393.478 55.0008 393.826 54.7005C394.187 54.4001 394.565 54.1419 394.962 53.9256C395.37 53.7094 395.802 53.5412 396.259 53.421C396.728 53.2889 397.238 53.2228 397.791 53.2228C398.956 53.2228 399.911 53.5412 400.656 54.1779C401.413 54.8026 401.977 55.6375 402.35 56.6827C402.638 56.07 402.999 55.5474 403.431 55.115C403.864 54.6705 404.338 54.31 404.855 54.0337C405.371 53.7574 405.918 53.5532 406.495 53.421C407.083 53.2889 407.672 53.2228 408.261 53.2228C409.282 53.2228 410.189 53.379 410.982 53.6913C411.775 54.0037 412.441 54.4602 412.982 55.0609C413.522 55.6616 413.931 56.3944 414.207 57.2594C414.496 58.1243 414.64 59.1155 414.64 60.2327V72H410.189V60.2327C410.189 59.0554 409.93 58.1724 409.414 57.5837C408.897 56.9831 408.14 56.6827 407.143 56.6827C406.687 56.6827 406.26 56.7608 405.864 56.917C405.479 57.0732 405.137 57.3014 404.837 57.6018C404.548 57.8901 404.32 58.2565 404.152 58.701C403.984 59.1455 403.9 59.6561 403.9 60.2327V72H399.431V60.2327C399.431 58.9953 399.178 58.0943 398.674 57.5297C398.181 56.965 397.454 56.6827 396.493 56.6827C395.845 56.6827 395.238 56.8449 394.673 57.1693C394.121 57.4816 393.604 57.9141 393.123 58.4667V72H388.672Z" fill="#333333"/>
<path d="M93.92 118H85.94V103.72H93.92V105.3H87.74V109.76H93.56V111.32H87.74V116.42H93.92V118ZM101.813 107.08C102.013 107.08 102.227 107.093 102.453 107.12C102.693 107.133 102.9 107.16 103.073 107.2L102.853 108.82C102.68 108.78 102.487 108.747 102.273 108.72C102.073 108.693 101.88 108.68 101.693 108.68C101.147 108.68 100.633 108.833 100.153 109.14C99.6733 109.433 99.2866 109.853 98.9933 110.4C98.7133 110.933 98.5733 111.56 98.5733 112.28V118H96.8133V107.28H98.2533L98.4533 109.24H98.5333C98.8799 108.653 99.3266 108.147 99.8733 107.72C100.42 107.293 101.067 107.08 101.813 107.08ZM110.075 107.08C110.275 107.08 110.488 107.093 110.715 107.12C110.955 107.133 111.162 107.16 111.335 107.2L111.115 108.82C110.942 108.78 110.748 108.747 110.535 108.72C110.335 108.693 110.142 108.68 109.955 108.68C109.408 108.68 108.895 108.833 108.415 109.14C107.935 109.433 107.548 109.853 107.255 110.4C106.975 110.933 106.835 111.56 106.835 112.28V118H105.075V107.28H106.515L106.715 109.24H106.795C107.142 108.653 107.588 108.147 108.135 107.72C108.682 107.293 109.328 107.08 110.075 107.08ZM122.266 112.62C122.266 114.393 121.813 115.767 120.906 116.74C120.013 117.713 118.799 118.2 117.266 118.2C116.319 118.2 115.473 117.987 114.726 117.56C113.993 117.12 113.413 116.487 112.986 115.66C112.559 114.82 112.346 113.807 112.346 112.62C112.346 110.847 112.793 109.48 113.686 108.52C114.579 107.56 115.793 107.08 117.326 107.08C118.299 107.08 119.153 107.3 119.886 107.74C120.633 108.167 121.213 108.793 121.626 109.62C122.053 110.433 122.266 111.433 122.266 112.62ZM114.166 112.62C114.166 113.887 114.413 114.893 114.906 115.64C115.413 116.373 116.213 116.74 117.306 116.74C118.386 116.74 119.179 116.373 119.686 115.64C120.193 114.893 120.446 113.887 120.446 112.62C120.446 111.353 120.193 110.36 119.686 109.64C119.179 108.92 118.379 108.56 117.286 108.56C116.193 108.56 115.399 108.92 114.906 109.64C114.413 110.36 114.166 111.353 114.166 112.62ZM130.055 107.08C130.255 107.08 130.469 107.093 130.695 107.12C130.935 107.133 131.142 107.16 131.315 107.2L131.095 108.82C130.922 108.78 130.729 108.747 130.515 108.72C130.315 108.693 130.122 108.68 129.935 108.68C129.389 108.68 128.875 108.833 128.395 109.14C127.915 109.433 127.529 109.853 127.235 110.4C126.955 110.933 126.815 111.56 126.815 112.28V118H125.055V107.28H126.495L126.695 109.24H126.775C127.122 108.653 127.569 108.147 128.115 107.72C128.662 107.293 129.309 107.08 130.055 107.08ZM140.297 115.04C140.297 116.08 139.911 116.867 139.137 117.4C138.364 117.933 137.324 118.2 136.017 118.2C135.271 118.2 134.624 118.14 134.077 118.02C133.544 117.9 133.071 117.733 132.657 117.52V115.92C133.084 116.133 133.597 116.333 134.197 116.52C134.811 116.693 135.431 116.78 136.057 116.78C136.951 116.78 137.597 116.64 137.997 116.36C138.397 116.067 138.597 115.68 138.597 115.2C138.597 114.933 138.524 114.693 138.377 114.48C138.231 114.267 137.964 114.053 137.577 113.84C137.204 113.627 136.664 113.387 135.957 113.12C135.264 112.853 134.671 112.587 134.177 112.32C133.684 112.053 133.304 111.733 133.037 111.36C132.771 110.987 132.637 110.507 132.637 109.92C132.637 109.013 133.004 108.313 133.737 107.82C134.484 107.327 135.457 107.08 136.657 107.08C137.311 107.08 137.917 107.147 138.477 107.28C139.051 107.4 139.584 107.573 140.077 107.8L139.477 109.2C139.024 109.013 138.551 108.853 138.057 108.72C137.564 108.587 137.057 108.52 136.537 108.52C135.817 108.52 135.264 108.64 134.877 108.88C134.504 109.107 134.317 109.42 134.317 109.82C134.317 110.113 134.404 110.367 134.577 110.58C134.751 110.78 135.037 110.98 135.437 111.18C135.851 111.367 136.397 111.593 137.077 111.86C137.757 112.113 138.337 112.373 138.817 112.64C139.297 112.907 139.664 113.233 139.917 113.62C140.171 113.993 140.297 114.467 140.297 115.04ZM155.003 111.94C154.829 111.393 154.676 110.86 154.543 110.34C154.423 109.807 154.329 109.393 154.263 109.1H154.183C154.129 109.393 154.043 109.807 153.923 110.34C153.803 110.86 153.649 111.4 153.463 111.96L151.543 117.98H149.543L146.603 107.26H148.423L149.903 112.98C150.049 113.553 150.189 114.133 150.323 114.72C150.456 115.307 150.549 115.793 150.603 116.18H150.683C150.736 115.953 150.796 115.673 150.863 115.34C150.943 115.007 151.029 114.66 151.123 114.3C151.216 113.927 151.309 113.593 151.403 113.3L153.303 107.26H155.223L157.063 113.3C157.209 113.753 157.349 114.247 157.483 114.78C157.629 115.313 157.729 115.773 157.783 116.16H157.863C157.903 115.827 157.989 115.367 158.123 114.78C158.269 114.193 158.423 113.593 158.583 112.98L160.083 107.26H161.883L158.903 117.98H156.843L155.003 111.94ZM167.945 107.08C168.865 107.08 169.652 107.28 170.305 107.68C170.972 108.08 171.479 108.647 171.825 109.38C172.185 110.1 172.365 110.947 172.365 111.92V112.98H165.025C165.052 114.193 165.359 115.12 165.945 115.76C166.545 116.387 167.379 116.7 168.445 116.7C169.125 116.7 169.725 116.64 170.245 116.52C170.779 116.387 171.325 116.2 171.885 115.96V117.5C171.339 117.74 170.799 117.913 170.265 118.02C169.732 118.14 169.099 118.2 168.365 118.2C167.352 118.2 166.452 117.993 165.665 117.58C164.892 117.167 164.285 116.553 163.845 115.74C163.419 114.913 163.205 113.907 163.205 112.72C163.205 111.547 163.399 110.54 163.785 109.7C164.185 108.86 164.739 108.213 165.445 107.76C166.165 107.307 166.999 107.08 167.945 107.08ZM167.925 108.52C167.085 108.52 166.419 108.793 165.925 109.34C165.445 109.873 165.159 110.62 165.065 111.58H170.525C170.512 110.673 170.299 109.94 169.885 109.38C169.472 108.807 168.819 108.52 167.925 108.52ZM180.095 107.08C180.295 107.08 180.508 107.093 180.735 107.12C180.975 107.133 181.181 107.16 181.355 107.2L181.135 108.82C180.961 108.78 180.768 108.747 180.555 108.72C180.355 108.693 180.161 108.68 179.975 108.68C179.428 108.68 178.915 108.833 178.435 109.14C177.955 109.433 177.568 109.853 177.275 110.4C176.995 110.933 176.855 111.56 176.855 112.28V118H175.095V107.28H176.535L176.735 109.24H176.815C177.161 108.653 177.608 108.147 178.155 107.72C178.701 107.293 179.348 107.08 180.095 107.08ZM187.106 107.08C188.026 107.08 188.812 107.28 189.466 107.68C190.132 108.08 190.639 108.647 190.986 109.38C191.346 110.1 191.526 110.947 191.526 111.92V112.98H184.186C184.212 114.193 184.519 115.12 185.106 115.76C185.706 116.387 186.539 116.7 187.606 116.7C188.286 116.7 188.886 116.64 189.406 116.52C189.939 116.387 190.486 116.2 191.046 115.96V117.5C190.499 117.74 189.959 117.913 189.426 118.02C188.892 118.14 188.259 118.2 187.526 118.2C186.512 118.2 185.612 117.993 184.826 117.58C184.052 117.167 183.446 116.553 183.006 115.74C182.579 114.913 182.366 113.907 182.366 112.72C182.366 111.547 182.559 110.54 182.946 109.7C183.346 108.86 183.899 108.213 184.606 107.76C185.326 107.307 186.159 107.08 187.106 107.08ZM187.086 108.52C186.246 108.52 185.579 108.793 185.086 109.34C184.606 109.873 184.319 110.62 184.226 111.58H189.686C189.672 110.673 189.459 109.94 189.046 109.38C188.632 108.807 187.979 108.52 187.086 108.52ZM204.39 108.64H201.69V118H199.93V108.64H198.05V107.82L199.93 107.22V106.6C199.93 105.213 200.237 104.22 200.85 103.62C201.463 103.007 202.317 102.7 203.41 102.7C203.837 102.7 204.223 102.74 204.57 102.82C204.93 102.887 205.237 102.967 205.49 103.06L205.03 104.44C204.817 104.373 204.57 104.307 204.29 104.24C204.01 104.173 203.723 104.14 203.43 104.14C202.843 104.14 202.403 104.34 202.11 104.74C201.83 105.127 201.69 105.74 201.69 106.58V107.28H204.39V108.64ZM215.645 112.62C215.645 114.393 215.192 115.767 214.285 116.74C213.392 117.713 212.178 118.2 210.645 118.2C209.698 118.2 208.852 117.987 208.105 117.56C207.372 117.12 206.792 116.487 206.365 115.66C205.938 114.82 205.725 113.807 205.725 112.62C205.725 110.847 206.172 109.48 207.065 108.52C207.958 107.56 209.172 107.08 210.705 107.08C211.678 107.08 212.532 107.3 213.265 107.74C214.012 108.167 214.592 108.793 215.005 109.62C215.432 110.433 215.645 111.433 215.645 112.62ZM207.545 112.62C207.545 113.887 207.792 114.893 208.285 115.64C208.792 116.373 209.592 116.74 210.685 116.74C211.765 116.74 212.558 116.373 213.065 115.64C213.572 114.893 213.825 113.887 213.825 112.62C213.825 111.353 213.572 110.36 213.065 109.64C212.558 108.92 211.758 108.56 210.665 108.56C209.572 108.56 208.778 108.92 208.285 109.64C207.792 110.36 207.545 111.353 207.545 112.62ZM227.394 107.28V118H225.954L225.694 116.58H225.614C225.268 117.14 224.788 117.553 224.174 117.82C223.561 118.073 222.908 118.2 222.214 118.2C220.921 118.2 219.948 117.893 219.294 117.28C218.641 116.653 218.314 115.66 218.314 114.3V107.28H220.094V114.18C220.094 115.887 220.888 116.74 222.474 116.74C223.661 116.74 224.481 116.407 224.934 115.74C225.401 115.073 225.634 114.113 225.634 112.86V107.28H227.394ZM235.958 107.08C237.238 107.08 238.204 107.393 238.858 108.02C239.511 108.633 239.838 109.633 239.838 111.02V118H238.098V111.14C238.098 109.42 237.298 108.56 235.698 108.56C234.511 108.56 233.691 108.893 233.238 109.56C232.784 110.227 232.558 111.187 232.558 112.44V118H230.798V107.28H232.218L232.478 108.74H232.578C232.924 108.18 233.404 107.767 234.018 107.5C234.631 107.22 235.278 107.08 235.958 107.08ZM246.961 118.2C245.628 118.2 244.561 117.74 243.761 116.82C242.961 115.887 242.561 114.5 242.561 112.66C242.561 110.82 242.961 109.433 243.761 108.5C244.574 107.553 245.648 107.08 246.981 107.08C247.808 107.08 248.481 107.233 249.001 107.54C249.534 107.847 249.968 108.22 250.301 108.66H250.421C250.408 108.487 250.381 108.233 250.341 107.9C250.314 107.553 250.301 107.28 250.301 107.08V102.8H252.061V118H250.641L250.381 116.56H250.301C249.981 117.013 249.554 117.4 249.021 117.72C248.488 118.04 247.801 118.2 246.961 118.2ZM247.241 116.74C248.374 116.74 249.168 116.433 249.621 115.82C250.088 115.193 250.321 114.253 250.321 113V112.68C250.321 111.347 250.101 110.327 249.661 109.62C249.221 108.9 248.408 108.54 247.221 108.54C246.274 108.54 245.561 108.92 245.081 109.68C244.614 110.427 244.381 111.433 244.381 112.7C244.381 113.98 244.614 114.973 245.081 115.68C245.561 116.387 246.281 116.74 247.241 116.74ZM269.981 112.62C269.981 114.393 269.528 115.767 268.621 116.74C267.728 117.713 266.514 118.2 264.981 118.2C264.034 118.2 263.188 117.987 262.441 117.56C261.708 117.12 261.128 116.487 260.701 115.66C260.274 114.82 260.061 113.807 260.061 112.62C260.061 110.847 260.508 109.48 261.401 108.52C262.294 107.56 263.508 107.08 265.041 107.08C266.014 107.08 266.868 107.3 267.601 107.74C268.348 108.167 268.928 108.793 269.341 109.62C269.768 110.433 269.981 111.433 269.981 112.62ZM261.881 112.62C261.881 113.887 262.128 114.893 262.621 115.64C263.128 116.373 263.928 116.74 265.021 116.74C266.101 116.74 266.894 116.373 267.401 115.64C267.908 114.893 268.161 113.887 268.161 112.62C268.161 111.353 267.908 110.36 267.401 109.64C266.894 108.92 266.094 108.56 265.001 108.56C263.908 108.56 263.114 108.92 262.621 109.64C262.128 110.36 261.881 111.353 261.881 112.62ZM277.93 107.08C279.21 107.08 280.177 107.393 280.83 108.02C281.484 108.633 281.81 109.633 281.81 111.02V118H280.07V111.14C280.07 109.42 279.27 108.56 277.67 108.56C276.484 108.56 275.664 108.893 275.21 109.56C274.757 110.227 274.53 111.187 274.53 112.44V118H272.77V107.28H274.19L274.45 108.74H274.55C274.897 108.18 275.377 107.767 275.99 107.5C276.604 107.22 277.25 107.08 277.93 107.08ZM293.909 116.76C294.176 116.76 294.449 116.74 294.729 116.7C295.009 116.647 295.236 116.593 295.409 116.54V117.88C295.222 117.973 294.956 118.047 294.609 118.1C294.262 118.167 293.929 118.2 293.609 118.2C293.049 118.2 292.529 118.107 292.049 117.92C291.582 117.72 291.202 117.38 290.909 116.9C290.616 116.42 290.469 115.747 290.469 114.88V108.64H288.949V107.8L290.489 107.1L291.189 104.82H292.229V107.28H295.329V108.64H292.229V114.84C292.229 115.493 292.382 115.98 292.689 116.3C293.009 116.607 293.416 116.76 293.909 116.76ZM299.315 107.26C299.315 107.793 299.282 108.293 299.215 108.76H299.335C299.682 108.213 300.149 107.8 300.735 107.52C301.335 107.24 301.982 107.1 302.675 107.1C303.982 107.1 304.962 107.413 305.615 108.04C306.269 108.653 306.595 109.647 306.595 111.02V118H304.855V111.14C304.855 109.42 304.055 108.56 302.455 108.56C301.255 108.56 300.429 108.9 299.975 109.58C299.535 110.247 299.315 111.207 299.315 112.46V118H297.555V102.8H299.315V107.26ZM310.819 103.26C311.085 103.26 311.319 103.353 311.519 103.54C311.732 103.713 311.839 103.993 311.839 104.38C311.839 104.753 311.732 105.033 311.519 105.22C311.319 105.407 311.085 105.5 310.819 105.5C310.525 105.5 310.279 105.407 310.079 105.22C309.879 105.033 309.779 104.753 309.779 104.38C309.779 103.993 309.879 103.713 310.079 103.54C310.279 103.353 310.525 103.26 310.819 103.26ZM311.679 107.28V118H309.919V107.28H311.679ZM322.055 115.04C322.055 116.08 321.668 116.867 320.895 117.4C320.122 117.933 319.082 118.2 317.775 118.2C317.028 118.2 316.382 118.14 315.835 118.02C315.302 117.9 314.828 117.733 314.415 117.52V115.92C314.842 116.133 315.355 116.333 315.955 116.52C316.568 116.693 317.188 116.78 317.815 116.78C318.708 116.78 319.355 116.64 319.755 116.36C320.155 116.067 320.355 115.68 320.355 115.2C320.355 114.933 320.282 114.693 320.135 114.48C319.988 114.267 319.722 114.053 319.335 113.84C318.962 113.627 318.422 113.387 317.715 113.12C317.022 112.853 316.428 112.587 315.935 112.32C315.442 112.053 315.062 111.733 314.795 111.36C314.528 110.987 314.395 110.507 314.395 109.92C314.395 109.013 314.762 108.313 315.495 107.82C316.242 107.327 317.215 107.08 318.415 107.08C319.068 107.08 319.675 107.147 320.235 107.28C320.808 107.4 321.342 107.573 321.835 107.8L321.235 109.2C320.782 109.013 320.308 108.853 319.815 108.72C319.322 108.587 318.815 108.52 318.295 108.52C317.575 108.52 317.022 108.64 316.635 108.88C316.262 109.107 316.075 109.42 316.075 109.82C316.075 110.113 316.162 110.367 316.335 110.58C316.508 110.78 316.795 110.98 317.195 111.18C317.608 111.367 318.155 111.593 318.835 111.86C319.515 112.113 320.095 112.373 320.575 112.64C321.055 112.907 321.422 113.233 321.675 113.62C321.928 113.993 322.055 114.467 322.055 115.04ZM334.941 107.08C336.261 107.08 337.321 107.54 338.121 108.46C338.934 109.38 339.341 110.767 339.341 112.62C339.341 114.447 338.934 115.833 338.121 116.78C337.321 117.727 336.254 118.2 334.921 118.2C334.094 118.2 333.407 118.047 332.861 117.74C332.327 117.42 331.907 117.053 331.601 116.64H331.481C331.507 116.867 331.534 117.153 331.561 117.5C331.587 117.847 331.601 118.147 331.601 118.4V122.8H329.841V107.28H331.281L331.521 108.74H331.601C331.921 108.273 332.341 107.88 332.861 107.56C333.381 107.24 334.074 107.08 334.941 107.08ZM334.621 108.56C333.527 108.56 332.754 108.867 332.301 109.48C331.861 110.093 331.627 111.027 331.601 112.28V112.62C331.601 113.94 331.814 114.96 332.241 115.68C332.681 116.387 333.487 116.74 334.661 116.74C335.314 116.74 335.847 116.56 336.261 116.2C336.687 115.84 337.001 115.353 337.201 114.74C337.414 114.113 337.521 113.4 337.521 112.6C337.521 111.373 337.281 110.393 336.801 109.66C336.334 108.927 335.607 108.56 334.621 108.56ZM346.205 107.1C347.512 107.1 348.479 107.387 349.105 107.96C349.732 108.533 350.045 109.447 350.045 110.7V118H348.765L348.425 116.48H348.345C347.879 117.067 347.385 117.5 346.865 117.78C346.359 118.06 345.652 118.2 344.745 118.2C343.772 118.2 342.965 117.947 342.325 117.44C341.685 116.92 341.365 116.113 341.365 115.02C341.365 113.953 341.785 113.133 342.625 112.56C343.465 111.973 344.759 111.653 346.505 111.6L348.325 111.54V110.9C348.325 110.007 348.132 109.387 347.745 109.04C347.359 108.693 346.812 108.52 346.105 108.52C345.545 108.52 345.012 108.607 344.505 108.78C343.999 108.94 343.525 109.127 343.085 109.34L342.545 108.02C343.012 107.767 343.565 107.553 344.205 107.38C344.845 107.193 345.512 107.1 346.205 107.1ZM346.725 112.82C345.392 112.873 344.465 113.087 343.945 113.46C343.439 113.833 343.185 114.36 343.185 115.04C343.185 115.64 343.365 116.08 343.725 116.36C344.099 116.64 344.572 116.78 345.145 116.78C346.052 116.78 346.805 116.533 347.405 116.04C348.005 115.533 348.305 114.76 348.305 113.72V112.76L346.725 112.82ZM357.156 107.08C357.863 107.08 358.496 107.213 359.056 107.48C359.63 107.747 360.116 108.153 360.516 108.7H360.616L360.856 107.28H362.256V118.18C362.256 119.713 361.863 120.867 361.076 121.64C360.303 122.413 359.096 122.8 357.456 122.8C355.883 122.8 354.596 122.573 353.596 122.12V120.5C354.65 121.06 355.97 121.34 357.556 121.34C358.476 121.34 359.196 121.067 359.716 120.52C360.25 119.987 360.516 119.253 360.516 118.32V117.9C360.516 117.74 360.523 117.513 360.536 117.22C360.55 116.913 360.563 116.7 360.576 116.58H360.496C359.776 117.66 358.67 118.2 357.176 118.2C355.79 118.2 354.703 117.713 353.916 116.74C353.143 115.767 352.756 114.407 352.756 112.66C352.756 110.953 353.143 109.6 353.916 108.6C354.703 107.587 355.783 107.08 357.156 107.08ZM357.396 108.56C356.503 108.56 355.81 108.92 355.316 109.64C354.823 110.347 354.576 111.36 354.576 112.68C354.576 114 354.816 115.013 355.296 115.72C355.79 116.413 356.503 116.76 357.436 116.76C358.516 116.76 359.303 116.473 359.796 115.9C360.29 115.313 360.536 114.373 360.536 113.08V112.66C360.536 111.193 360.283 110.147 359.776 109.52C359.27 108.88 358.476 108.56 357.396 108.56ZM369.801 107.08C370.721 107.08 371.508 107.28 372.161 107.68C372.828 108.08 373.334 108.647 373.681 109.38C374.041 110.1 374.221 110.947 374.221 111.92V112.98H366.881C366.908 114.193 367.214 115.12 367.801 115.76C368.401 116.387 369.234 116.7 370.301 116.7C370.981 116.7 371.581 116.64 372.101 116.52C372.634 116.387 373.181 116.2 373.741 115.96V117.5C373.194 117.74 372.654 117.913 372.121 118.02C371.588 118.14 370.954 118.2 370.221 118.2C369.208 118.2 368.308 117.993 367.521 117.58C366.748 117.167 366.141 116.553 365.701 115.74C365.274 114.913 365.061 113.907 365.061 112.72C365.061 111.547 365.254 110.54 365.641 109.7C366.041 108.86 366.594 108.213 367.301 107.76C368.021 107.307 368.854 107.08 369.801 107.08ZM369.781 108.52C368.941 108.52 368.274 108.793 367.781 109.34C367.301 109.873 367.014 110.62 366.921 111.58H372.381C372.368 110.673 372.154 109.94 371.741 109.38C371.328 108.807 370.674 108.52 369.781 108.52ZM376.69 108.36C376.69 107.853 376.81 107.5 377.05 107.3C377.29 107.1 377.577 107 377.91 107C378.257 107 378.55 107.1 378.79 107.3C379.043 107.5 379.17 107.853 379.17 108.36C379.17 108.84 379.043 109.187 378.79 109.4C378.55 109.613 378.257 109.72 377.91 109.72C377.577 109.72 377.29 109.613 377.05 109.4C376.81 109.187 376.69 108.84 376.69 108.36ZM376.69 116.92C376.69 116.427 376.81 116.08 377.05 115.88C377.29 115.68 377.577 115.58 377.91 115.58C378.257 115.58 378.55 115.68 378.79 115.88C379.043 116.08 379.17 116.427 379.17 116.92C379.17 117.4 379.043 117.747 378.79 117.96C378.55 118.173 378.257 118.28 377.91 118.28C377.577 118.28 377.29 118.173 377.05 117.96C376.81 117.747 376.69 117.4 376.69 116.92Z" fill="#333333"/>
<path d="M91.1 161H89.38V151.02C89.38 150.447 89.3867 149.987 89.4 149.64C89.4133 149.293 89.4333 148.933 89.46 148.56C89.2467 148.773 89.0533 148.953 88.88 149.1C88.7067 149.247 88.4867 149.433 88.22 149.66L86.7 150.9L85.78 149.72L89.64 146.72H91.1V161ZM96.8853 159.92C96.8853 159.427 97.0053 159.08 97.2453 158.88C97.4853 158.68 97.772 158.58 98.1053 158.58C98.452 158.58 98.7453 158.68 98.9853 158.88C99.2386 159.08 99.3653 159.427 99.3653 159.92C99.3653 160.4 99.2386 160.747 98.9853 160.96C98.7453 161.173 98.452 161.28 98.1053 161.28C97.772 161.28 97.4853 161.173 97.2453 160.96C97.0053 160.747 96.8853 160.4 96.8853 159.92Z" fill="#333333"/>
<path d="M119.92 161H111.94V146.72H119.92V148.3H113.74V152.76H119.56V154.32H113.74V159.42H119.92V161ZM127.813 150.08C128.013 150.08 128.227 150.093 128.453 150.12C128.693 150.133 128.9 150.16 129.073 150.2L128.853 151.82C128.68 151.78 128.487 151.747 128.273 151.72C128.073 151.693 127.88 151.68 127.693 151.68C127.147 151.68 126.633 151.833 126.153 152.14C125.673 152.433 125.287 152.853 124.993 153.4C124.713 153.933 124.573 154.56 124.573 155.28V161H122.813V150.28H124.253L124.453 152.24H124.533C124.88 151.653 125.327 151.147 125.873 150.72C126.42 150.293 127.067 150.08 127.813 150.08ZM136.075 150.08C136.275 150.08 136.488 150.093 136.715 150.12C136.955 150.133 137.162 150.16 137.335 150.2L137.115 151.82C136.942 151.78 136.748 151.747 136.535 151.72C136.335 151.693 136.142 151.68 135.955 151.68C135.408 151.68 134.895 151.833 134.415 152.14C133.935 152.433 133.548 152.853 133.255 153.4C132.975 153.933 132.835 154.56 132.835 155.28V161H131.075V150.28H132.515L132.715 152.24H132.795C133.142 151.653 133.588 151.147 134.135 150.72C134.682 150.293 135.328 150.08 136.075 150.08ZM148.266 155.62C148.266 157.393 147.813 158.767 146.906 159.74C146.013 160.713 144.799 161.2 143.266 161.2C142.319 161.2 141.473 160.987 140.726 160.56C139.993 160.12 139.413 159.487 138.986 158.66C138.559 157.82 138.346 156.807 138.346 155.62C138.346 153.847 138.793 152.48 139.686 151.52C140.579 150.56 141.793 150.08 143.326 150.08C144.299 150.08 145.153 150.3 145.886 150.74C146.633 151.167 147.213 151.793 147.626 152.62C148.053 153.433 148.266 154.433 148.266 155.62ZM140.166 155.62C140.166 156.887 140.413 157.893 140.906 158.64C141.413 159.373 142.213 159.74 143.306 159.74C144.386 159.74 145.179 159.373 145.686 158.64C146.193 157.893 146.446 156.887 146.446 155.62C146.446 154.353 146.193 153.36 145.686 152.64C145.179 151.92 144.379 151.56 143.286 151.56C142.193 151.56 141.399 151.92 140.906 152.64C140.413 153.36 140.166 154.353 140.166 155.62ZM156.055 150.08C156.255 150.08 156.469 150.093 156.695 150.12C156.935 150.133 157.142 150.16 157.315 150.2L157.095 151.82C156.922 151.78 156.729 151.747 156.515 151.72C156.315 151.693 156.122 151.68 155.935 151.68C155.389 151.68 154.875 151.833 154.395 152.14C153.915 152.433 153.529 152.853 153.235 153.4C152.955 153.933 152.815 154.56 152.815 155.28V161H151.055V150.28H152.495L152.695 152.24H152.775C153.122 151.653 153.569 151.147 154.115 150.72C154.662 150.293 155.309 150.08 156.055 150.08ZM171.493 158.04C171.493 159.08 171.106 159.867 170.333 160.4C169.559 160.933 168.519 161.2 167.213 161.2C166.466 161.2 165.819 161.14 165.273 161.02C164.739 160.9 164.266 160.733 163.853 160.52V158.92C164.279 159.133 164.793 159.333 165.393 159.52C166.006 159.693 166.626 159.78 167.253 159.78C168.146 159.78 168.793 159.64 169.193 159.36C169.593 159.067 169.793 158.68 169.793 158.2C169.793 157.933 169.719 157.693 169.573 157.48C169.426 157.267 169.159 157.053 168.773 156.84C168.399 156.627 167.859 156.387 167.153 156.12C166.459 155.853 165.866 155.587 165.373 155.32C164.879 155.053 164.499 154.733 164.233 154.36C163.966 153.987 163.833 153.507 163.833 152.92C163.833 152.013 164.199 151.313 164.933 150.82C165.679 150.327 166.653 150.08 167.853 150.08C168.506 150.08 169.113 150.147 169.673 150.28C170.246 150.4 170.779 150.573 171.273 150.8L170.673 152.2C170.219 152.013 169.746 151.853 169.253 151.72C168.759 151.587 168.253 151.52 167.733 151.52C167.013 151.52 166.459 151.64 166.073 151.88C165.699 152.107 165.513 152.42 165.513 152.82C165.513 153.113 165.599 153.367 165.773 153.58C165.946 153.78 166.233 153.98 166.633 154.18C167.046 154.367 167.593 154.593 168.273 154.86C168.953 155.113 169.533 155.373 170.013 155.64C170.493 155.907 170.859 156.233 171.113 156.62C171.366 156.993 171.493 157.467 171.493 158.04ZM183.043 150.28V161H181.603L181.343 159.58H181.263C180.916 160.14 180.436 160.553 179.823 160.82C179.209 161.073 178.556 161.2 177.863 161.2C176.569 161.2 175.596 160.893 174.943 160.28C174.289 159.653 173.963 158.66 173.963 157.3V150.28H175.743V157.18C175.743 158.887 176.536 159.74 178.123 159.74C179.309 159.74 180.129 159.407 180.583 158.74C181.049 158.073 181.283 157.113 181.283 155.86V150.28H183.043ZM198.206 150.08C199.419 150.08 200.326 150.393 200.926 151.02C201.526 151.633 201.826 152.633 201.826 154.02V161H200.086V154.1C200.086 152.407 199.359 151.56 197.906 151.56C196.866 151.56 196.119 151.86 195.666 152.46C195.226 153.06 195.006 153.933 195.006 155.08V161H193.266V154.1C193.266 152.407 192.533 151.56 191.066 151.56C189.986 151.56 189.239 151.893 188.826 152.56C188.413 153.227 188.206 154.187 188.206 155.44V161H186.446V150.28H187.866L188.126 151.74H188.226C188.559 151.18 189.006 150.767 189.566 150.5C190.139 150.22 190.746 150.08 191.386 150.08C193.066 150.08 194.159 150.68 194.666 151.88H194.766C195.126 151.267 195.613 150.813 196.226 150.52C196.853 150.227 197.513 150.08 198.206 150.08ZM216.898 150.08C218.111 150.08 219.018 150.393 219.618 151.02C220.218 151.633 220.518 152.633 220.518 154.02V161H218.778V154.1C218.778 152.407 218.051 151.56 216.598 151.56C215.558 151.56 214.811 151.86 214.358 152.46C213.918 153.06 213.698 153.933 213.698 155.08V161H211.958V154.1C211.958 152.407 211.224 151.56 209.758 151.56C208.678 151.56 207.931 151.893 207.518 152.56C207.104 153.227 206.898 154.187 206.898 155.44V161H205.138V150.28H206.558L206.818 151.74H206.918C207.251 151.18 207.698 150.767 208.258 150.5C208.831 150.22 209.438 150.08 210.078 150.08C211.758 150.08 212.851 150.68 213.358 151.88H213.458C213.818 151.267 214.304 150.813 214.918 150.52C215.544 150.227 216.204 150.08 216.898 150.08ZM227.889 150.1C229.196 150.1 230.162 150.387 230.789 150.96C231.416 151.533 231.729 152.447 231.729 153.7V161H230.449L230.109 159.48H230.029C229.562 160.067 229.069 160.5 228.549 160.78C228.042 161.06 227.336 161.2 226.429 161.2C225.456 161.2 224.649 160.947 224.009 160.44C223.369 159.92 223.049 159.113 223.049 158.02C223.049 156.953 223.469 156.133 224.309 155.56C225.149 154.973 226.442 154.653 228.189 154.6L230.009 154.54V153.9C230.009 153.007 229.816 152.387 229.429 152.04C229.042 151.693 228.496 151.52 227.789 151.52C227.229 151.52 226.696 151.607 226.189 151.78C225.682 151.94 225.209 152.127 224.769 152.34L224.229 151.02C224.696 150.767 225.249 150.553 225.889 150.38C226.529 150.193 227.196 150.1 227.889 150.1ZM228.409 155.82C227.076 155.873 226.149 156.087 225.629 156.46C225.122 156.833 224.869 157.36 224.869 158.04C224.869 158.64 225.049 159.08 225.409 159.36C225.782 159.64 226.256 159.78 226.829 159.78C227.736 159.78 228.489 159.533 229.089 159.04C229.689 158.533 229.989 157.76 229.989 156.72V155.76L228.409 155.82ZM240.04 150.08C240.24 150.08 240.453 150.093 240.68 150.12C240.92 150.133 241.127 150.16 241.3 150.2L241.08 151.82C240.907 151.78 240.713 151.747 240.5 151.72C240.3 151.693 240.107 151.68 239.92 151.68C239.373 151.68 238.86 151.833 238.38 152.14C237.9 152.433 237.513 152.853 237.22 153.4C236.94 153.933 236.8 154.56 236.8 155.28V161H235.04V150.28H236.48L236.68 152.24H236.76C237.107 151.653 237.553 151.147 238.1 150.72C238.647 150.293 239.293 150.08 240.04 150.08ZM241.622 150.28H243.502L245.822 156.38C246.022 156.913 246.202 157.427 246.362 157.92C246.522 158.4 246.642 158.86 246.722 159.3H246.802C246.882 158.967 247.008 158.533 247.182 158C247.355 157.453 247.535 156.907 247.722 156.36L249.902 150.28H251.802L247.182 162.48C246.808 163.493 246.322 164.3 245.722 164.9C245.135 165.5 244.322 165.8 243.282 165.8C242.962 165.8 242.682 165.78 242.442 165.74C242.202 165.713 241.995 165.68 241.822 165.64V164.24C241.968 164.267 242.142 164.293 242.342 164.32C242.555 164.347 242.775 164.36 243.002 164.36C243.615 164.36 244.108 164.187 244.482 163.84C244.868 163.493 245.168 163.033 245.382 162.46L245.942 161.04L241.622 150.28ZM259.592 146.26C259.859 146.26 260.092 146.353 260.292 146.54C260.506 146.713 260.612 146.993 260.612 147.38C260.612 147.753 260.506 148.033 260.292 148.22C260.092 148.407 259.859 148.5 259.592 148.5C259.299 148.5 259.052 148.407 258.852 148.22C258.652 148.033 258.552 147.753 258.552 147.38C258.552 146.993 258.652 146.713 258.852 146.54C259.052 146.353 259.299 146.26 259.592 146.26ZM260.452 150.28V161H258.692V150.28H260.452ZM267.428 159.76C267.695 159.76 267.968 159.74 268.248 159.7C268.528 159.647 268.755 159.593 268.928 159.54V160.88C268.742 160.973 268.475 161.047 268.128 161.1C267.782 161.167 267.448 161.2 267.128 161.2C266.568 161.2 266.048 161.107 265.568 160.92C265.102 160.72 264.722 160.38 264.428 159.9C264.135 159.42 263.988 158.747 263.988 157.88V151.64H262.468V150.8L264.008 150.1L264.708 147.82H265.748V150.28H268.848V151.64H265.748V157.84C265.748 158.493 265.902 158.98 266.208 159.3C266.528 159.607 266.935 159.76 267.428 159.76ZM275.215 150.08C276.135 150.08 276.922 150.28 277.575 150.68C278.242 151.08 278.748 151.647 279.095 152.38C279.455 153.1 279.635 153.947 279.635 154.92V155.98H272.295C272.322 157.193 272.628 158.12 273.215 158.76C273.815 159.387 274.648 159.7 275.715 159.7C276.395 159.7 276.995 159.64 277.515 159.52C278.048 159.387 278.595 159.2 279.155 158.96V160.5C278.608 160.74 278.068 160.913 277.535 161.02C277.002 161.14 276.368 161.2 275.635 161.2C274.622 161.2 273.722 160.993 272.935 160.58C272.162 160.167 271.555 159.553 271.115 158.74C270.688 157.913 270.475 156.907 270.475 155.72C270.475 154.547 270.668 153.54 271.055 152.7C271.455 151.86 272.008 151.213 272.715 150.76C273.435 150.307 274.268 150.08 275.215 150.08ZM275.195 151.52C274.355 151.52 273.688 151.793 273.195 152.34C272.715 152.873 272.428 153.62 272.335 154.58H277.795C277.782 153.673 277.568 152.94 277.155 152.38C276.742 151.807 276.088 151.52 275.195 151.52ZM294.124 150.08C295.337 150.08 296.244 150.393 296.844 151.02C297.444 151.633 297.744 152.633 297.744 154.02V161H296.004V154.1C296.004 152.407 295.277 151.56 293.824 151.56C292.784 151.56 292.037 151.86 291.584 152.46C291.144 153.06 290.924 153.933 290.924 155.08V161H289.184V154.1C289.184 152.407 288.451 151.56 286.984 151.56C285.904 151.56 285.157 151.893 284.744 152.56C284.331 153.227 284.124 154.187 284.124 155.44V161H282.364V150.28H283.784L284.044 151.74H284.144C284.477 151.18 284.924 150.767 285.484 150.5C286.057 150.22 286.664 150.08 287.304 150.08C288.984 150.08 290.077 150.68 290.584 151.88H290.684C291.044 151.267 291.531 150.813 292.144 150.52C292.771 150.227 293.431 150.08 294.124 150.08Z" fill="#A62A1E"/>
<path d="M110 163.5H299.364V164.5H110V163.5Z" fill="#A62A1E"/>
<path d="M94.4 200H84.96V198.54L88.7 194.76C89.42 194.04 90.0267 193.4 90.52 192.84C91.0133 192.28 91.3867 191.733 91.64 191.2C91.8933 190.653 92.02 190.06 92.02 189.42C92.02 188.633 91.7867 188.04 91.32 187.64C90.8533 187.227 90.2467 187.02 89.5 187.02C88.8067 187.02 88.1933 187.14 87.66 187.38C87.14 187.62 86.6067 187.953 86.06 188.38L85.12 187.2C85.68 186.733 86.32 186.34 87.04 186.02C87.7733 185.687 88.5933 185.52 89.5 185.52C90.8333 185.52 91.8867 185.86 92.66 186.54C93.4333 187.207 93.82 188.133 93.82 189.32C93.82 190.067 93.6667 190.767 93.36 191.42C93.0533 192.073 92.6267 192.72 92.08 193.36C91.5333 193.987 90.8933 194.66 90.16 195.38L87.18 198.32V198.4H94.4V200ZM96.8853 198.92C96.8853 198.427 97.0053 198.08 97.2453 197.88C97.4853 197.68 97.772 197.58 98.1053 197.58C98.452 197.58 98.7453 197.68 98.9853 197.88C99.2386 198.08 99.3653 198.427 99.3653 198.92C99.3653 199.4 99.2386 199.747 98.9853 199.96C98.7453 200.173 98.452 200.28 98.1053 200.28C97.772 200.28 97.4853 200.173 97.2453 199.96C97.0053 199.747 96.8853 199.4 96.8853 198.92Z" fill="#333333"/>
<path d="M119.92 200H111.94V185.72H119.92V187.3H113.74V191.76H119.56V193.32H113.74V198.42H119.92V200ZM127.813 189.08C128.013 189.08 128.227 189.093 128.453 189.12C128.693 189.133 128.9 189.16 129.073 189.2L128.853 190.82C128.68 190.78 128.487 190.747 128.273 190.72C128.073 190.693 127.88 190.68 127.693 190.68C127.147 190.68 126.633 190.833 126.153 191.14C125.673 191.433 125.287 191.853 124.993 192.4C124.713 192.933 124.573 193.56 124.573 194.28V200H122.813V189.28H124.253L124.453 191.24H124.533C124.88 190.653 125.327 190.147 125.873 189.72C126.42 189.293 127.067 189.08 127.813 189.08ZM136.075 189.08C136.275 189.08 136.488 189.093 136.715 189.12C136.955 189.133 137.162 189.16 137.335 189.2L137.115 190.82C136.942 190.78 136.748 190.747 136.535 190.72C136.335 190.693 136.142 190.68 135.955 190.68C135.408 190.68 134.895 190.833 134.415 191.14C133.935 191.433 133.548 191.853 133.255 192.4C132.975 192.933 132.835 193.56 132.835 194.28V200H131.075V189.28H132.515L132.715 191.24H132.795C133.142 190.653 133.588 190.147 134.135 189.72C134.682 189.293 135.328 189.08 136.075 189.08ZM148.266 194.62C148.266 196.393 147.813 197.767 146.906 198.74C146.013 199.713 144.799 200.2 143.266 200.2C142.319 200.2 141.473 199.987 140.726 199.56C139.993 199.12 139.413 198.487 138.986 197.66C138.559 196.82 138.346 195.807 138.346 194.62C138.346 192.847 138.793 191.48 139.686 190.52C140.579 189.56 141.793 189.08 143.326 189.08C144.299 189.08 145.153 189.3 145.886 189.74C146.633 190.167 147.213 190.793 147.626 191.62C148.053 192.433 148.266 193.433 148.266 194.62ZM140.166 194.62C140.166 195.887 140.413 196.893 140.906 197.64C141.413 198.373 142.213 198.74 143.306 198.74C144.386 198.74 145.179 198.373 145.686 197.64C146.193 196.893 146.446 195.887 146.446 194.62C146.446 193.353 146.193 192.36 145.686 191.64C145.179 190.92 144.379 190.56 143.286 190.56C142.193 190.56 141.399 190.92 140.906 191.64C140.413 192.36 140.166 193.353 140.166 194.62ZM156.055 189.08C156.255 189.08 156.469 189.093 156.695 189.12C156.935 189.133 157.142 189.16 157.315 189.2L157.095 190.82C156.922 190.78 156.729 190.747 156.515 190.72C156.315 190.693 156.122 190.68 155.935 190.68C155.389 190.68 154.875 190.833 154.395 191.14C153.915 191.433 153.529 191.853 153.235 192.4C152.955 192.933 152.815 193.56 152.815 194.28V200H151.055V189.28H152.495L152.695 191.24H152.775C153.122 190.653 153.569 190.147 154.115 189.72C154.662 189.293 155.309 189.08 156.055 189.08ZM171.493 197.04C171.493 198.08 171.106 198.867 170.333 199.4C169.559 199.933 168.519 200.2 167.213 200.2C166.466 200.2 165.819 200.14 165.273 200.02C164.739 199.9 164.266 199.733 163.853 199.52V197.92C164.279 198.133 164.793 198.333 165.393 198.52C166.006 198.693 166.626 198.78 167.253 198.78C168.146 198.78 168.793 198.64 169.193 198.36C169.593 198.067 169.793 197.68 169.793 197.2C169.793 196.933 169.719 196.693 169.573 196.48C169.426 196.267 169.159 196.053 168.773 195.84C168.399 195.627 167.859 195.387 167.153 195.12C166.459 194.853 165.866 194.587 165.373 194.32C164.879 194.053 164.499 193.733 164.233 193.36C163.966 192.987 163.833 192.507 163.833 191.92C163.833 191.013 164.199 190.313 164.933 189.82C165.679 189.327 166.653 189.08 167.853 189.08C168.506 189.08 169.113 189.147 169.673 189.28C170.246 189.4 170.779 189.573 171.273 189.8L170.673 191.2C170.219 191.013 169.746 190.853 169.253 190.72C168.759 190.587 168.253 190.52 167.733 190.52C167.013 190.52 166.459 190.64 166.073 190.88C165.699 191.107 165.513 191.42 165.513 191.82C165.513 192.113 165.599 192.367 165.773 192.58C165.946 192.78 166.233 192.98 166.633 193.18C167.046 193.367 167.593 193.593 168.273 193.86C168.953 194.113 169.533 194.373 170.013 194.64C170.493 194.907 170.859 195.233 171.113 195.62C171.366 195.993 171.493 196.467 171.493 197.04ZM183.043 189.28V200H181.603L181.343 198.58H181.263C180.916 199.14 180.436 199.553 179.823 199.82C179.209 200.073 178.556 200.2 177.863 200.2C176.569 200.2 175.596 199.893 174.943 199.28C174.289 198.653 173.963 197.66 173.963 196.3V189.28H175.743V196.18C175.743 197.887 176.536 198.74 178.123 198.74C179.309 198.74 180.129 198.407 180.583 197.74C181.049 197.073 181.283 196.113 181.283 194.86V189.28H183.043ZM198.206 189.08C199.419 189.08 200.326 189.393 200.926 190.02C201.526 190.633 201.826 191.633 201.826 193.02V200H200.086V193.1C200.086 191.407 199.359 190.56 197.906 190.56C196.866 190.56 196.119 190.86 195.666 191.46C195.226 192.06 195.006 192.933 195.006 194.08V200H193.266V193.1C193.266 191.407 192.533 190.56 191.066 190.56C189.986 190.56 189.239 190.893 188.826 191.56C188.413 192.227 188.206 193.187 188.206 194.44V200H186.446V189.28H187.866L188.126 190.74H188.226C188.559 190.18 189.006 189.767 189.566 189.5C190.139 189.22 190.746 189.08 191.386 189.08C193.066 189.08 194.159 189.68 194.666 190.88H194.766C195.126 190.267 195.613 189.813 196.226 189.52C196.853 189.227 197.513 189.08 198.206 189.08ZM216.898 189.08C218.111 189.08 219.018 189.393 219.618 190.02C220.218 190.633 220.518 191.633 220.518 193.02V200H218.778V193.1C218.778 191.407 218.051 190.56 216.598 190.56C215.558 190.56 214.811 190.86 214.358 191.46C213.918 192.06 213.698 192.933 213.698 194.08V200H211.958V193.1C211.958 191.407 211.224 190.56 209.758 190.56C208.678 190.56 207.931 190.893 207.518 191.56C207.104 192.227 206.898 193.187 206.898 194.44V200H205.138V189.28H206.558L206.818 190.74H206.918C207.251 190.18 207.698 189.767 208.258 189.5C208.831 189.22 209.438 189.08 210.078 189.08C211.758 189.08 212.851 189.68 213.358 190.88H213.458C213.818 190.267 214.304 189.813 214.918 189.52C215.544 189.227 216.204 189.08 216.898 189.08ZM227.889 189.1C229.196 189.1 230.162 189.387 230.789 189.96C231.416 190.533 231.729 191.447 231.729 192.7V200H230.449L230.109 198.48H230.029C229.562 199.067 229.069 199.5 228.549 199.78C228.042 200.06 227.336 200.2 226.429 200.2C225.456 200.2 224.649 199.947 224.009 199.44C223.369 198.92 223.049 198.113 223.049 197.02C223.049 195.953 223.469 195.133 224.309 194.56C225.149 193.973 226.442 193.653 228.189 193.6L230.009 193.54V192.9C230.009 192.007 229.816 191.387 229.429 191.04C229.042 190.693 228.496 190.52 227.789 190.52C227.229 190.52 226.696 190.607 226.189 190.78C225.682 190.94 225.209 191.127 224.769 191.34L224.229 190.02C224.696 189.767 225.249 189.553 225.889 189.38C226.529 189.193 227.196 189.1 227.889 189.1ZM228.409 194.82C227.076 194.873 226.149 195.087 225.629 195.46C225.122 195.833 224.869 196.36 224.869 197.04C224.869 197.64 225.049 198.08 225.409 198.36C225.782 198.64 226.256 198.78 226.829 198.78C227.736 198.78 228.489 198.533 229.089 198.04C229.689 197.533 229.989 196.76 229.989 195.72V194.76L228.409 194.82ZM240.04 189.08C240.24 189.08 240.453 189.093 240.68 189.12C240.92 189.133 241.127 189.16 241.3 189.2L241.08 190.82C240.907 190.78 240.713 190.747 240.5 190.72C240.3 190.693 240.107 190.68 239.92 190.68C239.373 190.68 238.86 190.833 238.38 191.14C237.9 191.433 237.513 191.853 237.22 192.4C236.94 192.933 236.8 193.56 236.8 194.28V200H235.04V189.28H236.48L236.68 191.24H236.76C237.107 190.653 237.553 190.147 238.1 189.72C238.647 189.293 239.293 189.08 240.04 189.08ZM241.622 189.28H243.502L245.822 195.38C246.022 195.913 246.202 196.427 246.362 196.92C246.522 197.4 246.642 197.86 246.722 198.3H246.802C246.882 197.967 247.008 197.533 247.182 197C247.355 196.453 247.535 195.907 247.722 195.36L249.902 189.28H251.802L247.182 201.48C246.808 202.493 246.322 203.3 245.722 203.9C245.135 204.5 244.322 204.8 243.282 204.8C242.962 204.8 242.682 204.78 242.442 204.74C242.202 204.713 241.995 204.68 241.822 204.64V203.24C241.968 203.267 242.142 203.293 242.342 203.32C242.555 203.347 242.775 203.36 243.002 203.36C243.615 203.36 244.108 203.187 244.482 202.84C244.868 202.493 245.168 202.033 245.382 201.46L245.942 200.04L241.622 189.28ZM259.592 185.26C259.859 185.26 260.092 185.353 260.292 185.54C260.506 185.713 260.612 185.993 260.612 186.38C260.612 186.753 260.506 187.033 260.292 187.22C260.092 187.407 259.859 187.5 259.592 187.5C259.299 187.5 259.052 187.407 258.852 187.22C258.652 187.033 258.552 186.753 258.552 186.38C258.552 185.993 258.652 185.713 258.852 185.54C259.052 185.353 259.299 185.26 259.592 185.26ZM260.452 189.28V200H258.692V189.28H260.452ZM267.428 198.76C267.695 198.76 267.968 198.74 268.248 198.7C268.528 198.647 268.755 198.593 268.928 198.54V199.88C268.742 199.973 268.475 200.047 268.128 200.1C267.782 200.167 267.448 200.2 267.128 200.2C266.568 200.2 266.048 200.107 265.568 199.92C265.102 199.72 264.722 199.38 264.428 198.9C264.135 198.42 263.988 197.747 263.988 196.88V190.64H262.468V189.8L264.008 189.1L264.708 186.82H265.748V189.28H268.848V190.64H265.748V196.84C265.748 197.493 265.902 197.98 266.208 198.3C266.528 198.607 266.935 198.76 267.428 198.76ZM275.215 189.08C276.135 189.08 276.922 189.28 277.575 189.68C278.242 190.08 278.748 190.647 279.095 191.38C279.455 192.1 279.635 192.947 279.635 193.92V194.98H272.295C272.322 196.193 272.628 197.12 273.215 197.76C273.815 198.387 274.648 198.7 275.715 198.7C276.395 198.7 276.995 198.64 277.515 198.52C278.048 198.387 278.595 198.2 279.155 197.96V199.5C278.608 199.74 278.068 199.913 277.535 200.02C277.002 200.14 276.368 200.2 275.635 200.2C274.622 200.2 273.722 199.993 272.935 199.58C272.162 199.167 271.555 198.553 271.115 197.74C270.688 196.913 270.475 195.907 270.475 194.72C270.475 193.547 270.668 192.54 271.055 191.7C271.455 190.86 272.008 190.213 272.715 189.76C273.435 189.307 274.268 189.08 275.215 189.08ZM275.195 190.52C274.355 190.52 273.688 190.793 273.195 191.34C272.715 191.873 272.428 192.62 272.335 193.58H277.795C277.782 192.673 277.568 191.94 277.155 191.38C276.742 190.807 276.088 190.52 275.195 190.52ZM294.124 189.08C295.337 189.08 296.244 189.393 296.844 190.02C297.444 190.633 297.744 191.633 297.744 193.02V200H296.004V193.1C296.004 191.407 295.277 190.56 293.824 190.56C292.784 190.56 292.037 190.86 291.584 191.46C291.144 192.06 290.924 192.933 290.924 194.08V200H289.184V193.1C289.184 191.407 288.451 190.56 286.984 190.56C285.904 190.56 285.157 190.893 284.744 191.56C284.331 192.227 284.124 193.187 284.124 194.44V200H282.364V189.28H283.784L284.044 190.74H284.144C284.477 190.18 284.924 189.767 285.484 189.5C286.057 189.22 286.664 189.08 287.304 189.08C288.984 189.08 290.077 189.68 290.584 190.88H290.684C291.044 190.267 291.531 189.813 292.144 189.52C292.771 189.227 293.431 189.08 294.124 189.08Z" fill="#A62A1E"/>
<path d="M110 202.5H299.364V203.5H110V202.5Z" fill="#A62A1E"/>
<path d="M93.86 228.06C93.86 229.02 93.5933 229.787 93.06 230.36C92.5267 230.92 91.8067 231.293 90.9 231.48V231.56C92.0467 231.693 92.9 232.053 93.46 232.64C94.02 233.227 94.3 233.993 94.3 234.94C94.3 235.767 94.1067 236.507 93.72 237.16C93.3333 237.8 92.7333 238.3 91.92 238.66C91.12 239.02 90.0867 239.2 88.82 239.2C88.0733 239.2 87.38 239.14 86.74 239.02C86.1 238.913 85.4867 238.713 84.9 238.42V236.78C85.5 237.073 86.1467 237.307 86.84 237.48C87.5333 237.64 88.2 237.72 88.84 237.72C90.12 237.72 91.04 237.473 91.6 236.98C92.1733 236.473 92.46 235.78 92.46 234.9C92.46 234.007 92.1067 233.367 91.4 232.98C90.7067 232.58 89.7267 232.38 88.46 232.38H87.08V230.88H88.48C89.6533 230.88 90.54 230.633 91.14 230.14C91.7533 229.647 92.06 228.993 92.06 228.18C92.06 227.487 91.8267 226.953 91.36 226.58C90.8933 226.193 90.26 226 89.46 226C88.6867 226 88.0267 226.113 87.48 226.34C86.9333 226.567 86.3933 226.853 85.86 227.2L84.98 226C85.4867 225.6 86.1133 225.253 86.86 224.96C87.62 224.667 88.48 224.52 89.44 224.52C90.9333 224.52 92.04 224.853 92.76 225.52C93.4933 226.187 93.86 227.033 93.86 228.06ZM96.8853 237.92C96.8853 237.427 97.0053 237.08 97.2453 236.88C97.4853 236.68 97.772 236.58 98.1053 236.58C98.452 236.58 98.7453 236.68 98.9853 236.88C99.2386 237.08 99.3653 237.427 99.3653 237.92C99.3653 238.4 99.2386 238.747 98.9853 238.96C98.7453 239.173 98.452 239.28 98.1053 239.28C97.772 239.28 97.4853 239.173 97.2453 238.96C97.0053 238.747 96.8853 238.4 96.8853 237.92Z" fill="#333333"/>
<path d="M119.92 239H111.94V224.72H119.92V226.3H113.74V230.76H119.56V232.32H113.74V237.42H119.92V239ZM127.813 228.08C128.013 228.08 128.227 228.093 128.453 228.12C128.693 228.133 128.9 228.16 129.073 228.2L128.853 229.82C128.68 229.78 128.487 229.747 128.273 229.72C128.073 229.693 127.88 229.68 127.693 229.68C127.147 229.68 126.633 229.833 126.153 230.14C125.673 230.433 125.287 230.853 124.993 231.4C124.713 231.933 124.573 232.56 124.573 233.28V239H122.813V228.28H124.253L124.453 230.24H124.533C124.88 229.653 125.327 229.147 125.873 228.72C126.42 228.293 127.067 228.08 127.813 228.08ZM136.075 228.08C136.275 228.08 136.488 228.093 136.715 228.12C136.955 228.133 137.162 228.16 137.335 228.2L137.115 229.82C136.942 229.78 136.748 229.747 136.535 229.72C136.335 229.693 136.142 229.68 135.955 229.68C135.408 229.68 134.895 229.833 134.415 230.14C133.935 230.433 133.548 230.853 133.255 231.4C132.975 231.933 132.835 232.56 132.835 233.28V239H131.075V228.28H132.515L132.715 230.24H132.795C133.142 229.653 133.588 229.147 134.135 228.72C134.682 228.293 135.328 228.08 136.075 228.08ZM148.266 233.62C148.266 235.393 147.813 236.767 146.906 237.74C146.013 238.713 144.799 239.2 143.266 239.2C142.319 239.2 141.473 238.987 140.726 238.56C139.993 238.12 139.413 237.487 138.986 236.66C138.559 235.82 138.346 234.807 138.346 233.62C138.346 231.847 138.793 230.48 139.686 229.52C140.579 228.56 141.793 228.08 143.326 228.08C144.299 228.08 145.153 228.3 145.886 228.74C146.633 229.167 147.213 229.793 147.626 230.62C148.053 231.433 148.266 232.433 148.266 233.62ZM140.166 233.62C140.166 234.887 140.413 235.893 140.906 236.64C141.413 237.373 142.213 237.74 143.306 237.74C144.386 237.74 145.179 237.373 145.686 236.64C146.193 235.893 146.446 234.887 146.446 233.62C146.446 232.353 146.193 231.36 145.686 230.64C145.179 229.92 144.379 229.56 143.286 229.56C142.193 229.56 141.399 229.92 140.906 230.64C140.413 231.36 140.166 232.353 140.166 233.62ZM156.055 228.08C156.255 228.08 156.469 228.093 156.695 228.12C156.935 228.133 157.142 228.16 157.315 228.2L157.095 229.82C156.922 229.78 156.729 229.747 156.515 229.72C156.315 229.693 156.122 229.68 155.935 229.68C155.389 229.68 154.875 229.833 154.395 230.14C153.915 230.433 153.529 230.853 153.235 231.4C152.955 231.933 152.815 232.56 152.815 233.28V239H151.055V228.28H152.495L152.695 230.24H152.775C153.122 229.653 153.569 229.147 154.115 228.72C154.662 228.293 155.309 228.08 156.055 228.08ZM171.493 236.04C171.493 237.08 171.106 237.867 170.333 238.4C169.559 238.933 168.519 239.2 167.213 239.2C166.466 239.2 165.819 239.14 165.273 239.02C164.739 238.9 164.266 238.733 163.853 238.52V236.92C164.279 237.133 164.793 237.333 165.393 237.52C166.006 237.693 166.626 237.78 167.253 237.78C168.146 237.78 168.793 237.64 169.193 237.36C169.593 237.067 169.793 236.68 169.793 236.2C169.793 235.933 169.719 235.693 169.573 235.48C169.426 235.267 169.159 235.053 168.773 234.84C168.399 234.627 167.859 234.387 167.153 234.12C166.459 233.853 165.866 233.587 165.373 233.32C164.879 233.053 164.499 232.733 164.233 232.36C163.966 231.987 163.833 231.507 163.833 230.92C163.833 230.013 164.199 229.313 164.933 228.82C165.679 228.327 166.653 228.08 167.853 228.08C168.506 228.08 169.113 228.147 169.673 228.28C170.246 228.4 170.779 228.573 171.273 228.8L170.673 230.2C170.219 230.013 169.746 229.853 169.253 229.72C168.759 229.587 168.253 229.52 167.733 229.52C167.013 229.52 166.459 229.64 166.073 229.88C165.699 230.107 165.513 230.42 165.513 230.82C165.513 231.113 165.599 231.367 165.773 231.58C165.946 231.78 166.233 231.98 166.633 232.18C167.046 232.367 167.593 232.593 168.273 232.86C168.953 233.113 169.533 233.373 170.013 233.64C170.493 233.907 170.859 234.233 171.113 234.62C171.366 234.993 171.493 235.467 171.493 236.04ZM183.043 228.28V239H181.603L181.343 237.58H181.263C180.916 238.14 180.436 238.553 179.823 238.82C179.209 239.073 178.556 239.2 177.863 239.2C176.569 239.2 175.596 238.893 174.943 238.28C174.289 237.653 173.963 236.66 173.963 235.3V228.28H175.743V235.18C175.743 236.887 176.536 237.74 178.123 237.74C179.309 237.74 180.129 237.407 180.583 236.74C181.049 236.073 181.283 235.113 181.283 233.86V228.28H183.043ZM198.206 228.08C199.419 228.08 200.326 228.393 200.926 229.02C201.526 229.633 201.826 230.633 201.826 232.02V239H200.086V232.1C200.086 230.407 199.359 229.56 197.906 229.56C196.866 229.56 196.119 229.86 195.666 230.46C195.226 231.06 195.006 231.933 195.006 233.08V239H193.266V232.1C193.266 230.407 192.533 229.56 191.066 229.56C189.986 229.56 189.239 229.893 188.826 230.56C188.413 231.227 188.206 232.187 188.206 233.44V239H186.446V228.28H187.866L188.126 229.74H188.226C188.559 229.18 189.006 228.767 189.566 228.5C190.139 228.22 190.746 228.08 191.386 228.08C193.066 228.08 194.159 228.68 194.666 229.88H194.766C195.126 229.267 195.613 228.813 196.226 228.52C196.853 228.227 197.513 228.08 198.206 228.08ZM216.898 228.08C218.111 228.08 219.018 228.393 219.618 229.02C220.218 229.633 220.518 230.633 220.518 232.02V239H218.778V232.1C218.778 230.407 218.051 229.56 216.598 229.56C215.558 229.56 214.811 229.86 214.358 230.46C213.918 231.06 213.698 231.933 213.698 233.08V239H211.958V232.1C211.958 230.407 211.224 229.56 209.758 229.56C208.678 229.56 207.931 229.893 207.518 230.56C207.104 231.227 206.898 232.187 206.898 233.44V239H205.138V228.28H206.558L206.818 229.74H206.918C207.251 229.18 207.698 228.767 208.258 228.5C208.831 228.22 209.438 228.08 210.078 228.08C211.758 228.08 212.851 228.68 213.358 229.88H213.458C213.818 229.267 214.304 228.813 214.918 228.52C215.544 228.227 216.204 228.08 216.898 228.08ZM227.889 228.1C229.196 228.1 230.162 228.387 230.789 228.96C231.416 229.533 231.729 230.447 231.729 231.7V239H230.449L230.109 237.48H230.029C229.562 238.067 229.069 238.5 228.549 238.78C228.042 239.06 227.336 239.2 226.429 239.2C225.456 239.2 224.649 238.947 224.009 238.44C223.369 237.92 223.049 237.113 223.049 236.02C223.049 234.953 223.469 234.133 224.309 233.56C225.149 232.973 226.442 232.653 228.189 232.6L230.009 232.54V231.9C230.009 231.007 229.816 230.387 229.429 230.04C229.042 229.693 228.496 229.52 227.789 229.52C227.229 229.52 226.696 229.607 226.189 229.78C225.682 229.94 225.209 230.127 224.769 230.34L224.229 229.02C224.696 228.767 225.249 228.553 225.889 228.38C226.529 228.193 227.196 228.1 227.889 228.1ZM228.409 233.82C227.076 233.873 226.149 234.087 225.629 234.46C225.122 234.833 224.869 235.36 224.869 236.04C224.869 236.64 225.049 237.08 225.409 237.36C225.782 237.64 226.256 237.78 226.829 237.78C227.736 237.78 228.489 237.533 229.089 237.04C229.689 236.533 229.989 235.76 229.989 234.72V233.76L228.409 233.82ZM240.04 228.08C240.24 228.08 240.453 228.093 240.68 228.12C240.92 228.133 241.127 228.16 241.3 228.2L241.08 229.82C240.907 229.78 240.713 229.747 240.5 229.72C240.3 229.693 240.107 229.68 239.92 229.68C239.373 229.68 238.86 229.833 238.38 230.14C237.9 230.433 237.513 230.853 237.22 231.4C236.94 231.933 236.8 232.56 236.8 233.28V239H235.04V228.28H236.48L236.68 230.24H236.76C237.107 229.653 237.553 229.147 238.1 228.72C238.647 228.293 239.293 228.08 240.04 228.08ZM241.622 228.28H243.502L245.822 234.38C246.022 234.913 246.202 235.427 246.362 235.92C246.522 236.4 246.642 236.86 246.722 237.3H246.802C246.882 236.967 247.008 236.533 247.182 236C247.355 235.453 247.535 234.907 247.722 234.36L249.902 228.28H251.802L247.182 240.48C246.808 241.493 246.322 242.3 245.722 242.9C245.135 243.5 244.322 243.8 243.282 243.8C242.962 243.8 242.682 243.78 242.442 243.74C242.202 243.713 241.995 243.68 241.822 243.64V242.24C241.968 242.267 242.142 242.293 242.342 242.32C242.555 242.347 242.775 242.36 243.002 242.36C243.615 242.36 244.108 242.187 244.482 241.84C244.868 241.493 245.168 241.033 245.382 240.46L245.942 239.04L241.622 228.28ZM259.592 224.26C259.859 224.26 260.092 224.353 260.292 224.54C260.506 224.713 260.612 224.993 260.612 225.38C260.612 225.753 260.506 226.033 260.292 226.22C260.092 226.407 259.859 226.5 259.592 226.5C259.299 226.5 259.052 226.407 258.852 226.22C258.652 226.033 258.552 225.753 258.552 225.38C258.552 224.993 258.652 224.713 258.852 224.54C259.052 224.353 259.299 224.26 259.592 224.26ZM260.452 228.28V239H258.692V228.28H260.452ZM267.428 237.76C267.695 237.76 267.968 237.74 268.248 237.7C268.528 237.647 268.755 237.593 268.928 237.54V238.88C268.742 238.973 268.475 239.047 268.128 239.1C267.782 239.167 267.448 239.2 267.128 239.2C266.568 239.2 266.048 239.107 265.568 238.92C265.102 238.72 264.722 238.38 264.428 237.9C264.135 237.42 263.988 236.747 263.988 235.88V229.64H262.468V228.8L264.008 228.1L264.708 225.82H265.748V228.28H268.848V229.64H265.748V235.84C265.748 236.493 265.902 236.98 266.208 237.3C266.528 237.607 266.935 237.76 267.428 237.76ZM275.215 228.08C276.135 228.08 276.922 228.28 277.575 228.68C278.242 229.08 278.748 229.647 279.095 230.38C279.455 231.1 279.635 231.947 279.635 232.92V233.98H272.295C272.322 235.193 272.628 236.12 273.215 236.76C273.815 237.387 274.648 237.7 275.715 237.7C276.395 237.7 276.995 237.64 277.515 237.52C278.048 237.387 278.595 237.2 279.155 236.96V238.5C278.608 238.74 278.068 238.913 277.535 239.02C277.002 239.14 276.368 239.2 275.635 239.2C274.622 239.2 273.722 238.993 272.935 238.58C272.162 238.167 271.555 237.553 271.115 236.74C270.688 235.913 270.475 234.907 270.475 233.72C270.475 232.547 270.668 231.54 271.055 230.7C271.455 229.86 272.008 229.213 272.715 228.76C273.435 228.307 274.268 228.08 275.215 228.08ZM275.195 229.52C274.355 229.52 273.688 229.793 273.195 230.34C272.715 230.873 272.428 231.62 272.335 232.58H277.795C277.782 231.673 277.568 230.94 277.155 230.38C276.742 229.807 276.088 229.52 275.195 229.52ZM294.124 228.08C295.337 228.08 296.244 228.393 296.844 229.02C297.444 229.633 297.744 230.633 297.744 232.02V239H296.004V232.1C296.004 230.407 295.277 229.56 293.824 229.56C292.784 229.56 292.037 229.86 291.584 230.46C291.144 231.06 290.924 231.933 290.924 233.08V239H289.184V232.1C289.184 230.407 288.451 229.56 286.984 229.56C285.904 229.56 285.157 229.893 284.744 230.56C284.331 231.227 284.124 232.187 284.124 233.44V239H282.364V228.28H283.784L284.044 229.74H284.144C284.477 229.18 284.924 228.767 285.484 228.5C286.057 228.22 286.664 228.08 287.304 228.08C288.984 228.08 290.077 228.68 290.584 229.88H290.684C291.044 229.267 291.531 228.813 292.144 228.52C292.771 228.227 293.431 228.08 294.124 228.08Z" fill="#A62A1E"/>
<path d="M110 241.5H299.364V242.5H110V241.5Z" fill="#A62A1E"/>
<rect x="51" y="3" width="1018" height="275" stroke="#D3080C" stroke-width="6"/>
<g clip-path="url(#clip0_6959_17676)">
<rect y="180" width="48" height="1" fill="#C54600"/>
<g clip-path="url(#clip1_6959_17676)">
<rect y="168" width="24" height="24" rx="12" fill="#C54600"/>
<path d="M11.9745 185.139C11.2321 185.139 10.5709 185.012 9.99086 184.756C9.41415 184.498 8.95842 184.143 8.62367 183.692C8.29223 183.238 8.12154 182.715 8.11159 182.121H10.2792C10.2925 182.37 10.3737 182.589 10.5228 182.778C10.6753 182.963 10.8775 183.107 11.1294 183.21C11.3812 183.313 11.6646 183.364 11.9795 183.364C12.3076 183.364 12.5976 183.306 12.8495 183.19C13.1014 183.074 13.2986 182.914 13.4411 182.708C13.5837 182.503 13.6549 182.266 13.6549 181.997C13.6549 181.725 13.5787 181.485 13.4262 181.276C13.2771 181.064 13.0616 180.898 12.7799 180.779C12.5015 180.66 12.1701 180.6 11.7856 180.6H10.836V179.019H11.7856C12.1104 179.019 12.3971 178.963 12.6457 178.85C12.8976 178.737 13.0931 178.582 13.2323 178.383C13.3715 178.181 13.4411 177.945 13.4411 177.677C13.4411 177.422 13.3798 177.198 13.2572 177.006C13.1379 176.81 12.9688 176.658 12.7501 176.548C12.5347 176.439 12.2828 176.384 11.9944 176.384C11.7027 176.384 11.4359 176.437 11.194 176.543C10.952 176.646 10.7581 176.794 10.6123 176.986C10.4665 177.178 10.3886 177.403 10.3786 177.662H8.31543C8.32537 177.075 8.49275 176.558 8.81756 176.111C9.14237 175.663 9.57987 175.314 10.1301 175.062C10.6836 174.807 11.3083 174.679 12.0044 174.679C12.707 174.679 13.3218 174.807 13.8488 175.062C14.3758 175.317 14.7851 175.662 15.0768 176.096C15.3718 176.527 15.5176 177.011 15.5143 177.548C15.5176 178.118 15.3403 178.593 14.9823 178.974C14.6277 179.356 14.1653 179.598 13.5953 179.7V179.78C14.3443 179.876 14.9144 180.136 15.3055 180.56C15.6999 180.981 15.8954 181.508 15.8921 182.141C15.8954 182.721 15.7281 183.237 15.39 183.688C15.0553 184.138 14.5929 184.493 14.0029 184.751C13.413 185.01 12.7368 185.139 11.9745 185.139Z" fill="white"/>
</g>
</g>
<g clip-path="url(#clip2_6959_17676)">
<rect y="58" width="80" height="1" fill="#C54600"/>
<g clip-path="url(#clip3_6959_17676)">
<rect y="46" width="24" height="24" rx="12" fill="#C54600"/>
<path d="M13.8302 52.8182V63H11.6775V54.8615H11.6178L9.28613 56.3232V54.4141L11.8067 52.8182H13.8302Z" fill="white"/>
</g>
</g>
<g clip-path="url(#clip4_6959_17676)">
<rect y="110" width="80" height="1" fill="#C54600"/>
<g clip-path="url(#clip5_6959_17676)">
<rect y="98" width="24" height="24" rx="12" fill="#C54600"/>
<path d="M8.4161 115V113.449L12.0404 110.093C12.3486 109.795 12.6072 109.526 12.816 109.288C13.0281 109.049 13.1888 108.815 13.2982 108.587C13.4076 108.355 13.4623 108.104 13.4623 107.836C13.4623 107.538 13.3943 107.281 13.2584 107.065C13.1225 106.847 12.9369 106.679 12.7016 106.563C12.4663 106.444 12.1995 106.384 11.9012 106.384C11.5896 106.384 11.3179 106.447 11.0858 106.573C10.8538 106.699 10.6749 106.88 10.5489 107.115C10.423 107.35 10.36 107.63 10.36 107.955H8.31667C8.31667 107.289 8.46748 106.711 8.76909 106.22C9.0707 105.73 9.49328 105.35 10.0368 105.082C10.5804 104.813 11.2068 104.679 11.9161 104.679C12.6453 104.679 13.28 104.808 13.8202 105.067C14.3638 105.322 14.7864 105.677 15.088 106.131C15.3896 106.585 15.5404 107.105 15.5404 107.692C15.5404 108.076 15.4642 108.456 15.3117 108.83C15.1626 109.205 14.8957 109.621 14.5113 110.078C14.1268 110.532 13.5849 111.077 12.8856 111.714L11.3991 113.17V113.24H15.6746V115H8.4161Z" fill="white"/>
</g>
</g>
<g clip-path="url(#clip6_6959_17676)">
<rect y="232" width="80" height="1" fill="#C54600"/>
<g clip-path="url(#clip7_6959_17676)">
<rect y="220" width="24" height="24" rx="12" fill="#C54600"/>
<path d="M7.92702 235.21V233.515L12.1777 226.818H13.6394V229.165H12.7743L10.0946 233.406V233.485H16.1351V235.21H7.92702ZM12.8141 237V234.693L12.8539 233.942V226.818H14.8723V237H12.8141Z" fill="white"/>
</g>
</g>
<defs>
<clipPath id="clip0_6959_17676">
<rect width="48" height="24" fill="white" transform="translate(0 168)"/>
</clipPath>
<clipPath id="clip1_6959_17676">
<rect y="168" width="24" height="24" rx="12" fill="white"/>
</clipPath>
<clipPath id="clip2_6959_17676">
<rect width="80" height="24" fill="white" transform="translate(0 46)"/>
</clipPath>
<clipPath id="clip3_6959_17676">
<rect y="46" width="24" height="24" rx="12" fill="white"/>
</clipPath>
<clipPath id="clip4_6959_17676">
<rect width="80" height="24" fill="white" transform="translate(0 98)"/>
</clipPath>
<clipPath id="clip5_6959_17676">
<rect y="98" width="24" height="24" rx="12" fill="white"/>
</clipPath>
<clipPath id="clip6_6959_17676">
<rect width="80" height="24" fill="white" transform="translate(0 220)"/>
</clipPath>
<clipPath id="clip7_6959_17676">
<rect y="220" width="24" height="24" rx="12" fill="white"/>
</clipPath>
</defs>
</svg>
