<svg width="594" height="195" viewBox="0 0 594 195" fill="none" xmlns="http://www.w3.org/2000/svg">
<path d="M54.86 20V5.72H57.42V17.84H63.38V20H54.86ZM69.9761 8.96C70.9494 8.96 71.7828 9.16 72.4761 9.56C73.1828 9.94667 73.7294 10.5067 74.1161 11.24C74.5028 11.96 74.6961 12.84 74.6961 13.88V15.16H67.5361C67.5628 16.1467 67.8361 16.9133 68.3561 17.46C68.8761 17.9933 69.5961 18.26 70.5161 18.26C71.2228 18.26 71.8494 18.1933 72.3961 18.06C72.9561 17.9133 73.5294 17.7067 74.1161 17.44V19.46C73.5828 19.7133 73.0294 19.9 72.4561 20.02C71.8828 20.14 71.1961 20.2 70.3961 20.2C69.3428 20.2 68.4028 20 67.5761 19.6C66.7628 19.1867 66.1228 18.5667 65.6561 17.74C65.2028 16.9133 64.9761 15.8867 64.9761 14.66C64.9761 13.42 65.1828 12.38 65.5961 11.54C66.0228 10.6867 66.6094 10.0467 67.3561 9.62C68.1028 9.18 68.9761 8.96 69.9761 8.96ZM69.9761 10.82C69.3094 10.82 68.7628 11.04 68.3361 11.48C67.9228 11.9067 67.6761 12.5467 67.5961 13.4H72.2561C72.2561 12.8933 72.1694 12.4467 71.9961 12.06C71.8361 11.6733 71.5894 11.3733 71.2561 11.16C70.9228 10.9333 70.4961 10.82 69.9761 10.82ZM80.8772 8.96C81.5572 8.96 82.1705 9.09333 82.7172 9.36C83.2639 9.62667 83.7239 10.0267 84.0972 10.56H84.1972L84.4372 9.16H86.5372V20.08C86.5372 21.1067 86.3439 21.9667 85.9572 22.66C85.5705 23.3667 84.9905 23.9 84.2172 24.26C83.4439 24.62 82.4772 24.8 81.3172 24.8C80.5439 24.8 79.8305 24.7467 79.1772 24.64C78.5239 24.5467 77.9039 24.38 77.3172 24.14V22.06C77.7305 22.2333 78.1572 22.38 78.5972 22.5C79.0505 22.6333 79.5172 22.7333 79.9972 22.8C80.4772 22.8667 80.9705 22.9 81.4772 22.9C82.3039 22.9 82.9305 22.6667 83.3572 22.2C83.7972 21.7333 84.0172 21.0667 84.0172 20.2V19.92C84.0172 19.72 84.0239 19.4867 84.0372 19.22C84.0639 18.9533 84.0839 18.74 84.0972 18.58H84.0172C83.6439 19.14 83.1905 19.5533 82.6572 19.82C82.1239 20.0733 81.5105 20.2 80.8172 20.2C79.4972 20.2 78.4639 19.7067 77.7172 18.72C76.9705 17.7333 76.5972 16.36 76.5972 14.6C76.5972 13.4133 76.7639 12.4 77.0972 11.56C77.4439 10.72 77.9372 10.08 78.5772 9.64C79.2172 9.18667 79.9839 8.96 80.8772 8.96ZM81.5372 11.02C81.0305 11.02 80.5972 11.16 80.2372 11.44C79.8905 11.7067 79.6239 12.1067 79.4372 12.64C79.2639 13.1733 79.1772 13.84 79.1772 14.64C79.1772 15.8133 79.3772 16.7 79.7772 17.3C80.1772 17.9 80.7772 18.2 81.5772 18.2C82.0305 18.2 82.4172 18.1467 82.7372 18.04C83.0572 17.92 83.3172 17.7333 83.5172 17.48C83.7305 17.2133 83.8905 16.88 83.9972 16.48C84.1039 16.0667 84.1572 15.5733 84.1572 15V14.62C84.1572 13.7533 84.0639 13.06 83.8772 12.54C83.6905 12.0067 83.4039 11.62 83.0172 11.38C82.6439 11.14 82.1505 11.02 81.5372 11.02ZM94.1167 8.96C95.0901 8.96 95.9234 9.16 96.6167 9.56C97.3234 9.94667 97.8701 10.5067 98.2567 11.24C98.6434 11.96 98.8367 12.84 98.8367 13.88V15.16H91.6767C91.7034 16.1467 91.9767 16.9133 92.4967 17.46C93.0167 17.9933 93.7367 18.26 94.6567 18.26C95.3634 18.26 95.9901 18.1933 96.5367 18.06C97.0967 17.9133 97.6701 17.7067 98.2567 17.44V19.46C97.7234 19.7133 97.1701 19.9 96.5967 20.02C96.0234 20.14 95.3367 20.2 94.5367 20.2C93.4834 20.2 92.5434 20 91.7167 19.6C90.9034 19.1867 90.2634 18.5667 89.7967 17.74C89.3434 16.9133 89.1167 15.8867 89.1167 14.66C89.1167 13.42 89.3234 12.38 89.7367 11.54C90.1634 10.6867 90.7501 10.0467 91.4967 9.62C92.2434 9.18 93.1167 8.96 94.1167 8.96ZM94.1167 10.82C93.4501 10.82 92.9034 11.04 92.4767 11.48C92.0634 11.9067 91.8167 12.5467 91.7367 13.4H96.3967C96.3967 12.8933 96.3101 12.4467 96.1367 12.06C95.9767 11.6733 95.7301 11.3733 95.3967 11.16C95.0634 10.9333 94.6367 10.82 94.1167 10.82ZM107.178 8.96C108.391 8.96 109.338 9.27333 110.018 9.9C110.711 10.5267 111.058 11.54 111.058 12.94V20H108.538V13.44C108.538 12.6267 108.378 12.02 108.058 11.62C107.738 11.2067 107.231 11 106.538 11C105.524 11 104.831 11.32 104.458 11.96C104.084 12.5867 103.898 13.5 103.898 14.7V20H101.378V9.16H103.318L103.678 10.58H103.818C104.058 10.2067 104.351 9.9 104.698 9.66C105.044 9.42 105.431 9.24667 105.858 9.14C106.284 9.02 106.724 8.96 107.178 8.96ZM117.79 20.2C116.537 20.2 115.517 19.7333 114.73 18.8C113.957 17.8533 113.57 16.4533 113.57 14.6C113.57 12.7467 113.963 11.3467 114.75 10.4C115.537 9.44 116.57 8.96 117.85 8.96C118.383 8.96 118.85 9.03333 119.25 9.18C119.663 9.31333 120.017 9.5 120.31 9.74C120.603 9.98 120.85 10.2467 121.05 10.54H121.17C121.13 10.3533 121.09 10.0667 121.05 9.68C121.01 9.29333 120.99 8.93333 120.99 8.6V4.8H123.51V20H121.55L121.09 18.58H120.99C120.79 18.8733 120.543 19.1467 120.25 19.4C119.957 19.64 119.61 19.8333 119.21 19.98C118.81 20.1267 118.337 20.2 117.79 20.2ZM118.55 18.16C119.483 18.16 120.143 17.8933 120.53 17.36C120.917 16.8267 121.11 16.02 121.11 14.94V14.62C121.11 13.4467 120.923 12.5533 120.55 11.94C120.19 11.3267 119.51 11.02 118.51 11.02C117.75 11.02 117.163 11.34 116.75 11.98C116.337 12.6067 116.13 13.4933 116.13 14.64C116.13 15.7867 116.337 16.66 116.75 17.26C117.163 17.86 117.763 18.16 118.55 18.16Z" fill="#333333"/>
<path d="M64.4311 49H62.8311V43.08H56.3244V49H54.7244V36.3067H56.3244V41.6756H62.8311V36.3067H64.4311V49ZM68.4882 35.8978C68.7252 35.8978 68.9326 35.9807 69.1104 36.1467C69.3 36.3007 69.3949 36.5496 69.3949 36.8933C69.3949 37.2252 69.3 37.4741 69.1104 37.64C68.9326 37.8059 68.7252 37.8889 68.4882 37.8889C68.2275 37.8889 68.0082 37.8059 67.8304 37.64C67.6526 37.4741 67.5638 37.2252 67.5638 36.8933C67.5638 36.5496 67.6526 36.3007 67.8304 36.1467C68.0082 35.9807 68.2275 35.8978 68.4882 35.8978ZM69.2526 39.4711V49H67.6882V39.4711H69.2526ZM76.8582 39.2933C77.996 39.2933 78.8552 39.5719 79.436 40.1289C80.0167 40.6741 80.3071 41.563 80.3071 42.7956V49H78.7604V42.9022C78.7604 41.3733 78.0493 40.6089 76.6271 40.6089C75.5723 40.6089 74.8434 40.9052 74.4404 41.4978C74.0375 42.0904 73.836 42.9437 73.836 44.0578V49H72.2715V39.4711H73.5338L73.7649 40.7689H73.8538C74.1619 40.2711 74.5886 39.9037 75.1338 39.6667C75.6789 39.4178 76.2538 39.2933 76.8582 39.2933ZM86.4433 47.8978C86.6804 47.8978 86.9233 47.88 87.1722 47.8444C87.4211 47.797 87.6226 47.7496 87.7767 47.7022V48.8933C87.6107 48.9763 87.3737 49.0415 87.0656 49.0889C86.7574 49.1481 86.4611 49.1778 86.1767 49.1778C85.6789 49.1778 85.2167 49.0948 84.79 48.9289C84.3752 48.7511 84.0374 48.4489 83.7767 48.0222C83.5159 47.5956 83.3856 46.997 83.3856 46.2267V40.68H82.0344V39.9333L83.4033 39.3111L84.0256 37.2844H84.95V39.4711H87.7056V40.68H84.95V46.1911C84.95 46.7719 85.0863 47.2044 85.3589 47.4889C85.6433 47.7615 86.0048 47.8978 86.4433 47.8978ZM99.2272 36.3067L94.4983 49H92.9694L97.6983 36.3067H99.2272ZM112.842 49H105.749V36.3067H112.842V37.7111H107.349V41.6756H112.522V43.0622H107.349V47.5956H112.842V49ZM117.672 44.1289L114.383 39.4711H116.161L118.614 43.0622L121.049 39.4711H122.809L119.521 44.1289L122.987 49H121.209L118.614 45.1956L115.983 49H114.223L117.672 44.1289ZM128.433 39.3111C129.594 39.3111 130.453 39.5659 131.01 40.0756C131.567 40.5852 131.846 41.397 131.846 42.5111V49H130.708L130.406 47.6489H130.335C129.92 48.1704 129.481 48.5556 129.019 48.8044C128.569 49.0533 127.941 49.1778 127.135 49.1778C126.27 49.1778 125.553 48.9526 124.984 48.5022C124.415 48.04 124.13 47.323 124.13 46.3511C124.13 45.403 124.504 44.6741 125.25 44.1644C125.997 43.643 127.147 43.3585 128.699 43.3111L130.317 43.2578V42.6889C130.317 41.8948 130.145 41.3437 129.801 41.0356C129.458 40.7274 128.972 40.5733 128.344 40.5733C127.846 40.5733 127.372 40.6504 126.921 40.8044C126.471 40.9467 126.05 41.1126 125.659 41.3022L125.179 40.1289C125.594 39.9037 126.086 39.7141 126.655 39.56C127.224 39.3941 127.816 39.3111 128.433 39.3111ZM128.895 44.3956C127.71 44.443 126.886 44.6326 126.424 44.9644C125.973 45.2963 125.748 45.7644 125.748 46.3689C125.748 46.9022 125.908 47.2933 126.228 47.5422C126.56 47.7911 126.981 47.9156 127.49 47.9156C128.296 47.9156 128.966 47.6963 129.499 47.2578C130.033 46.8074 130.299 46.12 130.299 45.1956V44.3422L128.895 44.3956ZM145.242 39.2933C146.321 39.2933 147.127 39.5719 147.66 40.1289C148.193 40.6741 148.46 41.563 148.46 42.7956V49H146.913V42.8667C146.913 41.3615 146.267 40.6089 144.976 40.6089C144.051 40.6089 143.387 40.8756 142.984 41.4089C142.593 41.9422 142.398 42.7185 142.398 43.7378V49H140.851V42.8667C140.851 41.3615 140.199 40.6089 138.896 40.6089C137.936 40.6089 137.272 40.9052 136.904 41.4978C136.537 42.0904 136.353 42.9437 136.353 44.0578V49H134.789V39.4711H136.051L136.282 40.7689H136.371C136.667 40.2711 137.064 39.9037 137.562 39.6667C138.072 39.4178 138.611 39.2933 139.18 39.2933C140.673 39.2933 141.645 39.8267 142.096 40.8933H142.184C142.504 40.3481 142.937 39.9452 143.482 39.6844C144.039 39.4237 144.626 39.2933 145.242 39.2933ZM155.937 39.2933C157.11 39.2933 158.052 39.7022 158.763 40.52C159.486 41.3378 159.848 42.5704 159.848 44.2178C159.848 45.8415 159.486 47.0741 158.763 47.9156C158.052 48.757 157.104 49.1778 155.919 49.1778C155.184 49.1778 154.574 49.0415 154.088 48.7689C153.614 48.4844 153.241 48.1585 152.968 47.7911H152.861C152.885 47.9926 152.909 48.2474 152.932 48.5556C152.956 48.8637 152.968 49.1304 152.968 49.3556V53.2667H151.403V39.4711H152.683L152.897 40.7689H152.968C153.252 40.3541 153.626 40.0044 154.088 39.72C154.55 39.4356 155.166 39.2933 155.937 39.2933ZM155.652 40.6089C154.681 40.6089 153.993 40.8815 153.59 41.4267C153.199 41.9719 152.992 42.8015 152.968 43.9156V44.2178C152.968 45.3911 153.158 46.2978 153.537 46.9378C153.928 47.5659 154.645 47.88 155.688 47.88C156.269 47.88 156.743 47.72 157.11 47.4C157.489 47.08 157.768 46.6474 157.946 46.1022C158.135 45.5452 158.23 44.9111 158.23 44.2C158.23 43.1096 158.017 42.2385 157.59 41.5867C157.175 40.9348 156.529 40.6089 155.652 40.6089ZM163.905 49H162.341V35.4889H163.905V49ZM170.604 39.2933C171.422 39.2933 172.121 39.4711 172.702 39.8267C173.295 40.1822 173.745 40.6859 174.053 41.3378C174.373 41.9778 174.533 42.7304 174.533 43.5956V44.5378H168.009C168.032 45.6163 168.305 46.44 168.827 47.0089C169.36 47.5659 170.101 47.8444 171.049 47.8444C171.653 47.8444 172.187 47.7911 172.649 47.6844C173.123 47.5659 173.609 47.4 174.107 47.1867V48.5556C173.621 48.7689 173.141 48.923 172.667 49.0178C172.192 49.1244 171.629 49.1778 170.978 49.1778C170.077 49.1778 169.277 48.9941 168.578 48.6267C167.89 48.2593 167.351 47.7141 166.96 46.9911C166.581 46.2563 166.391 45.3615 166.391 44.3067C166.391 43.2637 166.563 42.3689 166.907 41.6222C167.262 40.8756 167.754 40.3007 168.382 39.8978C169.022 39.4948 169.763 39.2933 170.604 39.2933ZM170.587 40.5733C169.84 40.5733 169.247 40.8163 168.809 41.3022C168.382 41.7763 168.127 42.44 168.044 43.2933H172.898C172.886 42.4874 172.696 41.8356 172.329 41.3378C171.961 40.8281 171.381 40.5733 170.587 40.5733ZM192.03 39.2933C193.109 39.2933 193.915 39.5719 194.448 40.1289C194.982 40.6741 195.248 41.563 195.248 42.7956V49H193.702V42.8667C193.702 41.3615 193.056 40.6089 191.764 40.6089C190.839 40.6089 190.176 40.8756 189.773 41.4089C189.382 41.9422 189.186 42.7185 189.186 43.7378V49H187.639V42.8667C187.639 41.3615 186.987 40.6089 185.684 40.6089C184.724 40.6089 184.06 40.9052 183.693 41.4978C183.325 42.0904 183.142 42.9437 183.142 44.0578V49H181.577V39.4711H182.839L183.07 40.7689H183.159C183.456 40.2711 183.853 39.9037 184.35 39.6667C184.86 39.4178 185.399 39.2933 185.968 39.2933C187.462 39.2933 188.433 39.8267 188.884 40.8933H188.973C189.293 40.3481 189.725 39.9452 190.27 39.6844C190.827 39.4237 191.414 39.2933 192.03 39.2933ZM201.872 39.2933C202.689 39.2933 203.389 39.4711 203.969 39.8267C204.562 40.1822 205.012 40.6859 205.321 41.3378C205.641 41.9778 205.801 42.7304 205.801 43.5956V44.5378H199.276C199.3 45.6163 199.572 46.44 200.094 47.0089C200.627 47.5659 201.368 47.8444 202.316 47.8444C202.921 47.8444 203.454 47.7911 203.916 47.6844C204.39 47.5659 204.876 47.4 205.374 47.1867V48.5556C204.888 48.7689 204.408 48.923 203.934 49.0178C203.46 49.1244 202.897 49.1778 202.245 49.1778C201.344 49.1778 200.544 48.9941 199.845 48.6267C199.158 48.2593 198.618 47.7141 198.227 46.9911C197.848 46.2563 197.658 45.3615 197.658 44.3067C197.658 43.2637 197.83 42.3689 198.174 41.6222C198.529 40.8756 199.021 40.3007 199.649 39.8978C200.289 39.4948 201.03 39.2933 201.872 39.2933ZM201.854 40.5733C201.107 40.5733 200.515 40.8163 200.076 41.3022C199.649 41.7763 199.395 42.44 199.312 43.2933H204.165C204.153 42.4874 203.964 41.8356 203.596 41.3378C203.229 40.8281 202.648 40.5733 201.854 40.5733ZM214.431 46.3689C214.431 47.2933 214.087 47.9926 213.4 48.4667C212.712 48.9407 211.788 49.1778 210.626 49.1778C209.963 49.1778 209.388 49.1244 208.902 49.0178C208.428 48.9111 208.007 48.763 207.64 48.5733V47.1511C208.019 47.3407 208.475 47.5185 209.009 47.6844C209.554 47.8385 210.105 47.9156 210.662 47.9156C211.456 47.9156 212.031 47.7911 212.386 47.5422C212.742 47.2815 212.92 46.9378 212.92 46.5111C212.92 46.2741 212.855 46.0607 212.724 45.8711C212.594 45.6815 212.357 45.4919 212.013 45.3022C211.681 45.1126 211.201 44.8993 210.573 44.6622C209.957 44.4252 209.429 44.1881 208.991 43.9511C208.552 43.7141 208.215 43.4296 207.978 43.0978C207.74 42.7659 207.622 42.3393 207.622 41.8178C207.622 41.0119 207.948 40.3896 208.6 39.9511C209.263 39.5126 210.129 39.2933 211.195 39.2933C211.776 39.2933 212.315 39.3526 212.813 39.4711C213.323 39.5778 213.797 39.7319 214.235 39.9333L213.702 41.1778C213.299 41.0119 212.878 40.8696 212.44 40.7511C212.001 40.6326 211.551 40.5733 211.089 40.5733C210.449 40.5733 209.957 40.68 209.613 40.8933C209.281 41.0948 209.115 41.3733 209.115 41.7289C209.115 41.9896 209.192 42.2148 209.346 42.4044C209.5 42.5822 209.755 42.76 210.111 42.9378C210.478 43.1037 210.964 43.3052 211.569 43.5422C212.173 43.7674 212.689 43.9985 213.115 44.2356C213.542 44.4726 213.868 44.763 214.093 45.1067C214.318 45.4385 214.431 45.8593 214.431 46.3689ZM222.938 46.3689C222.938 47.2933 222.594 47.9926 221.907 48.4667C221.219 48.9407 220.295 49.1778 219.133 49.1778C218.47 49.1778 217.895 49.1244 217.409 49.0178C216.935 48.9111 216.514 48.763 216.147 48.5733V47.1511C216.526 47.3407 216.982 47.5185 217.516 47.6844C218.061 47.8385 218.612 47.9156 219.169 47.9156C219.963 47.9156 220.538 47.7911 220.893 47.5422C221.249 47.2815 221.427 46.9378 221.427 46.5111C221.427 46.2741 221.361 46.0607 221.231 45.8711C221.101 45.6815 220.864 45.4919 220.52 45.3022C220.188 45.1126 219.708 44.8993 219.08 44.6622C218.464 44.4252 217.936 44.1881 217.498 43.9511C217.059 43.7141 216.721 43.4296 216.484 43.0978C216.247 42.7659 216.129 42.3393 216.129 41.8178C216.129 41.0119 216.455 40.3896 217.107 39.9511C217.77 39.5126 218.636 39.2933 219.702 39.2933C220.283 39.2933 220.822 39.3526 221.32 39.4711C221.83 39.5778 222.304 39.7319 222.742 39.9333L222.209 41.1778C221.806 41.0119 221.385 40.8696 220.947 40.7511C220.508 40.6326 220.058 40.5733 219.596 40.5733C218.956 40.5733 218.464 40.68 218.12 40.8933C217.788 41.0948 217.622 41.3733 217.622 41.7289C217.622 41.9896 217.699 42.2148 217.853 42.4044C218.007 42.5822 218.262 42.76 218.618 42.9378C218.985 43.1037 219.471 43.3052 220.076 43.5422C220.68 43.7674 221.196 43.9985 221.622 44.2356C222.049 44.4726 222.375 44.763 222.6 45.1067C222.825 45.4385 222.938 45.8593 222.938 46.3689ZM228.849 39.3111C230.011 39.3111 230.87 39.5659 231.427 40.0756C231.984 40.5852 232.263 41.397 232.263 42.5111V49H231.125L230.823 47.6489H230.751C230.337 48.1704 229.898 48.5556 229.436 48.8044C228.985 49.0533 228.357 49.1778 227.551 49.1778C226.686 49.1778 225.969 48.9526 225.4 48.5022C224.831 48.04 224.547 47.323 224.547 46.3511C224.547 45.403 224.92 44.6741 225.667 44.1644C226.414 43.643 227.563 43.3585 229.116 43.3111L230.734 43.2578V42.6889C230.734 41.8948 230.562 41.3437 230.218 41.0356C229.874 40.7274 229.388 40.5733 228.76 40.5733C228.263 40.5733 227.788 40.6504 227.338 40.8044C226.888 40.9467 226.467 41.1126 226.076 41.3022L225.596 40.1289C226.011 39.9037 226.503 39.7141 227.071 39.56C227.64 39.3941 228.233 39.3111 228.849 39.3111ZM229.311 44.3956C228.126 44.443 227.303 44.6326 226.84 44.9644C226.39 45.2963 226.165 45.7644 226.165 46.3689C226.165 46.9022 226.325 47.2933 226.645 47.5422C226.977 47.7911 227.397 47.9156 227.907 47.9156C228.713 47.9156 229.383 47.6963 229.916 47.2578C230.449 46.8074 230.716 46.12 230.716 45.1956V44.3422L229.311 44.3956ZM238.583 39.2933C239.211 39.2933 239.774 39.4119 240.272 39.6489C240.782 39.8859 241.214 40.2474 241.57 40.7333H241.659L241.872 39.4711H243.117V49.16C243.117 50.523 242.767 51.5481 242.068 52.2356C241.38 52.923 240.308 53.2667 238.85 53.2667C237.451 53.2667 236.308 53.0652 235.419 52.6622V51.2222C236.355 51.72 237.529 51.9689 238.939 51.9689C239.757 51.9689 240.397 51.7259 240.859 51.24C241.333 50.7659 241.57 50.1141 241.57 49.2844V48.9111C241.57 48.7689 241.576 48.5674 241.588 48.3067C241.6 48.0341 241.611 47.8444 241.623 47.7378H241.552C240.912 48.6978 239.929 49.1778 238.601 49.1778C237.369 49.1778 236.403 48.7452 235.703 47.88C235.016 47.0148 234.672 45.8059 234.672 44.2533C234.672 42.7363 235.016 41.5333 235.703 40.6444C236.403 39.7437 237.363 39.2933 238.583 39.2933ZM238.797 40.6089C238.003 40.6089 237.386 40.9289 236.948 41.5689C236.509 42.197 236.29 43.0978 236.29 44.2711C236.29 45.4444 236.503 46.3452 236.93 46.9733C237.369 47.5896 238.003 47.8978 238.832 47.8978C239.792 47.8978 240.491 47.643 240.93 47.1333C241.369 46.6119 241.588 45.7763 241.588 44.6267V44.2533C241.588 42.9496 241.363 42.0193 240.912 41.4622C240.462 40.8933 239.757 40.6089 238.797 40.6089ZM249.823 39.2933C250.641 39.2933 251.34 39.4711 251.921 39.8267C252.513 40.1822 252.964 40.6859 253.272 41.3378C253.592 41.9778 253.752 42.7304 253.752 43.5956V44.5378H247.228C247.251 45.6163 247.524 46.44 248.045 47.0089C248.579 47.5659 249.319 47.8444 250.268 47.8444C250.872 47.8444 251.405 47.7911 251.868 47.6844C252.342 47.5659 252.828 47.4 253.325 47.1867V48.5556C252.839 48.7689 252.359 48.923 251.885 49.0178C251.411 49.1244 250.848 49.1778 250.196 49.1778C249.296 49.1778 248.496 48.9941 247.796 48.6267C247.109 48.2593 246.57 47.7141 246.179 46.9911C245.799 46.2563 245.61 45.3615 245.61 44.3067C245.61 43.2637 245.782 42.3689 246.125 41.6222C246.481 40.8756 246.973 40.3007 247.601 39.8978C248.241 39.4948 248.982 39.2933 249.823 39.2933ZM249.805 40.5733C249.059 40.5733 248.466 40.8163 248.028 41.3022C247.601 41.7763 247.346 42.44 247.263 43.2933H252.116C252.105 42.4874 251.915 41.8356 251.548 41.3378C251.18 40.8281 250.599 40.5733 249.805 40.5733ZM255.947 48.04C255.947 47.6015 256.053 47.2933 256.267 47.1156C256.48 46.9378 256.735 46.8489 257.031 46.8489C257.339 46.8489 257.6 46.9378 257.813 47.1156C258.039 47.2933 258.151 47.6015 258.151 48.04C258.151 48.4667 258.039 48.7748 257.813 48.9644C257.6 49.1541 257.339 49.2489 257.031 49.2489C256.735 49.2489 256.48 49.1541 256.267 48.9644C256.053 48.7748 255.947 48.4667 255.947 48.04Z" fill="#333333"/>
<rect x="54" y="67" width="42" height="42" rx="2" fill="white"/>
<rect x="54" y="67" width="42" height="42" rx="2" stroke="#333333" stroke-width="2"/>
<path d="M113.9 95V80.72H116.06V93.14H122.16V95H113.9ZM128.563 84.02C129.923 84.02 130.936 84.32 131.603 84.92C132.269 85.5067 132.603 86.4333 132.603 87.7V95H131.103L130.683 93.5H130.603C130.296 93.8867 129.976 94.2067 129.643 94.46C129.323 94.7133 128.949 94.9 128.523 95.02C128.109 95.14 127.603 95.2 127.003 95.2C126.363 95.2 125.783 95.0867 125.263 94.86C124.756 94.62 124.356 94.26 124.063 93.78C123.769 93.2867 123.623 92.6733 123.623 91.94C123.623 90.8467 124.036 90.0133 124.863 89.44C125.703 88.8667 126.976 88.5533 128.683 88.5L130.523 88.44V87.84C130.523 87.04 130.343 86.48 129.983 86.16C129.623 85.84 129.116 85.68 128.463 85.68C127.903 85.68 127.369 85.76 126.863 85.92C126.356 86.08 125.876 86.2733 125.423 86.5L124.743 84.96C125.249 84.6933 125.829 84.4733 126.483 84.3C127.149 84.1133 127.843 84.02 128.563 84.02ZM129.063 89.86C127.836 89.9133 126.983 90.12 126.503 90.48C126.036 90.8267 125.803 91.32 125.803 91.96C125.803 92.52 125.969 92.9267 126.303 93.18C126.649 93.4333 127.083 93.56 127.603 93.56C128.443 93.56 129.136 93.3267 129.683 92.86C130.229 92.3933 130.503 91.6933 130.503 90.76V89.82L129.063 89.86ZM137.987 83.46C137.987 83.9 137.974 84.32 137.947 84.72C137.934 85.1067 137.914 85.4133 137.887 85.64H137.987C138.294 85.1867 138.707 84.8067 139.227 84.5C139.747 84.1933 140.42 84.04 141.247 84.04C142.54 84.04 143.58 84.5067 144.367 85.44C145.167 86.3733 145.567 87.76 145.567 89.6C145.567 90.84 145.387 91.8733 145.027 92.7C144.667 93.5267 144.16 94.1533 143.507 94.58C142.854 94.9933 142.094 95.2 141.227 95.2C140.387 95.2 139.714 95.0533 139.207 94.76C138.7 94.4533 138.294 94.0933 137.987 93.68H137.827L137.427 95H135.867V79.8H137.987V83.46ZM140.747 85.76C140.054 85.76 139.507 85.8933 139.107 86.16C138.707 86.4267 138.42 86.8333 138.247 87.38C138.074 87.9267 137.987 88.62 137.987 89.46V89.62C137.987 90.86 138.187 91.8133 138.587 92.48C138.987 93.1333 139.72 93.46 140.787 93.46C141.64 93.46 142.287 93.1267 142.727 92.46C143.167 91.7933 143.387 90.8333 143.387 89.58C143.387 88.3133 143.167 87.36 142.727 86.72C142.287 86.08 141.627 85.76 140.747 85.76ZM152.509 84.02C153.456 84.02 154.269 84.22 154.949 84.62C155.629 85.0067 156.149 85.5667 156.509 86.3C156.883 87.0333 157.069 87.9 157.069 88.9V90.06H149.829C149.856 91.1667 150.143 92.0133 150.689 92.6C151.249 93.1867 152.029 93.48 153.029 93.48C153.723 93.48 154.336 93.42 154.869 93.3C155.416 93.1667 155.976 92.9733 156.549 92.72V94.48C156.016 94.72 155.469 94.9 154.909 95.02C154.363 95.14 153.709 95.2 152.949 95.2C151.909 95.2 150.989 94.9933 150.189 94.58C149.389 94.1667 148.763 93.5533 148.309 92.74C147.869 91.9133 147.649 90.9 147.649 89.7C147.649 88.4867 147.849 87.46 148.249 86.62C148.663 85.78 149.229 85.14 149.949 84.7C150.683 84.2467 151.536 84.02 152.509 84.02ZM152.509 85.66C151.749 85.66 151.136 85.9067 150.669 86.4C150.216 86.8933 149.949 87.5933 149.869 88.5H154.949C154.949 87.94 154.863 87.4467 154.689 87.02C154.516 86.5933 154.249 86.26 153.889 86.02C153.529 85.78 153.069 85.66 152.509 85.66ZM161.835 95H159.715V79.8H161.835V95Z" fill="#333333"/>
<path d="M123.893 114.529C123.893 116.674 123.307 118.292 122.133 119.382C120.972 120.461 119.348 121 117.262 121H113.724V108.307H117.636C118.916 108.307 120.024 108.544 120.96 109.018C121.896 109.492 122.619 110.191 123.129 111.116C123.639 112.028 123.893 113.166 123.893 114.529ZM122.204 114.582C122.204 112.887 121.784 111.649 120.942 110.867C120.113 110.073 118.933 109.676 117.404 109.676H115.324V119.631H117.049C120.486 119.631 122.204 117.948 122.204 114.582ZM130.177 111.293C130.995 111.293 131.694 111.471 132.275 111.827C132.868 112.182 133.318 112.686 133.626 113.338C133.946 113.978 134.106 114.73 134.106 115.596V116.538H127.582C127.605 117.616 127.878 118.44 128.399 119.009C128.933 119.566 129.674 119.844 130.622 119.844C131.226 119.844 131.759 119.791 132.222 119.684C132.696 119.566 133.182 119.4 133.679 119.187V120.556C133.194 120.769 132.714 120.923 132.239 121.018C131.765 121.124 131.202 121.178 130.551 121.178C129.65 121.178 128.85 120.994 128.151 120.627C127.463 120.259 126.924 119.714 126.533 118.991C126.154 118.256 125.964 117.361 125.964 116.307C125.964 115.264 126.136 114.369 126.479 113.622C126.835 112.876 127.327 112.301 127.955 111.898C128.595 111.495 129.336 111.293 130.177 111.293ZM130.159 112.573C129.413 112.573 128.82 112.816 128.382 113.302C127.955 113.776 127.7 114.44 127.617 115.293H132.471C132.459 114.487 132.269 113.836 131.902 113.338C131.534 112.828 130.954 112.573 130.159 112.573ZM142.736 118.369C142.736 119.293 142.393 119.993 141.705 120.467C141.018 120.941 140.093 121.178 138.932 121.178C138.268 121.178 137.693 121.124 137.208 121.018C136.733 120.911 136.313 120.763 135.945 120.573V119.151C136.325 119.341 136.781 119.519 137.314 119.684C137.859 119.839 138.41 119.916 138.968 119.916C139.762 119.916 140.336 119.791 140.692 119.542C141.048 119.281 141.225 118.938 141.225 118.511C141.225 118.274 141.16 118.061 141.03 117.871C140.899 117.681 140.662 117.492 140.319 117.302C139.987 117.113 139.507 116.899 138.879 116.662C138.262 116.425 137.735 116.188 137.296 115.951C136.858 115.714 136.52 115.43 136.283 115.098C136.046 114.766 135.928 114.339 135.928 113.818C135.928 113.012 136.253 112.39 136.905 111.951C137.569 111.513 138.434 111.293 139.501 111.293C140.082 111.293 140.621 111.353 141.119 111.471C141.628 111.578 142.102 111.732 142.541 111.933L142.008 113.178C141.605 113.012 141.184 112.87 140.745 112.751C140.307 112.633 139.856 112.573 139.394 112.573C138.754 112.573 138.262 112.68 137.919 112.893C137.587 113.095 137.421 113.373 137.421 113.729C137.421 113.99 137.498 114.215 137.652 114.404C137.806 114.582 138.061 114.76 138.416 114.938C138.784 115.104 139.27 115.305 139.874 115.542C140.479 115.767 140.994 115.999 141.421 116.236C141.848 116.473 142.173 116.763 142.399 117.107C142.624 117.439 142.736 117.859 142.736 118.369ZM148.861 121.178C148.02 121.178 147.267 121.006 146.603 120.662C145.951 120.319 145.436 119.785 145.057 119.062C144.689 118.339 144.506 117.415 144.506 116.289C144.506 115.116 144.701 114.161 145.092 113.427C145.483 112.692 146.011 112.153 146.674 111.809C147.35 111.465 148.114 111.293 148.968 111.293C149.454 111.293 149.922 111.347 150.372 111.453C150.823 111.548 151.19 111.667 151.474 111.809L150.994 113.107C150.71 113 150.378 112.899 149.999 112.804C149.62 112.71 149.264 112.662 148.932 112.662C147.06 112.662 146.123 113.865 146.123 116.271C146.123 117.421 146.349 118.304 146.799 118.92C147.261 119.524 147.943 119.827 148.843 119.827C149.365 119.827 149.821 119.773 150.212 119.667C150.615 119.56 150.983 119.43 151.314 119.276V120.662C150.994 120.828 150.639 120.953 150.248 121.036C149.869 121.13 149.406 121.178 148.861 121.178ZM158.025 111.293C158.203 111.293 158.392 111.305 158.594 111.329C158.807 111.341 158.991 111.364 159.145 111.4L158.949 112.84C158.795 112.804 158.624 112.775 158.434 112.751C158.256 112.727 158.084 112.716 157.918 112.716C157.432 112.716 156.976 112.852 156.549 113.124C156.123 113.385 155.779 113.759 155.518 114.244C155.269 114.719 155.145 115.276 155.145 115.916V121H153.581V111.471H154.861L155.038 113.213H155.109C155.418 112.692 155.815 112.241 156.301 111.862C156.786 111.483 157.361 111.293 158.025 111.293ZM161.724 107.898C161.961 107.898 162.169 107.981 162.347 108.147C162.536 108.301 162.631 108.55 162.631 108.893C162.631 109.225 162.536 109.474 162.347 109.64C162.169 109.806 161.961 109.889 161.724 109.889C161.464 109.889 161.244 109.806 161.067 109.64C160.889 109.474 160.8 109.225 160.8 108.893C160.8 108.55 160.889 108.301 161.067 108.147C161.244 107.981 161.464 107.898 161.724 107.898ZM162.489 111.471V121H160.924V111.471H162.489ZM170.041 111.293C171.214 111.293 172.157 111.702 172.868 112.52C173.591 113.338 173.952 114.57 173.952 116.218C173.952 117.841 173.591 119.074 172.868 119.916C172.157 120.757 171.208 121.178 170.023 121.178C169.288 121.178 168.678 121.041 168.192 120.769C167.718 120.484 167.345 120.159 167.072 119.791H166.965C166.989 119.993 167.013 120.247 167.037 120.556C167.06 120.864 167.072 121.13 167.072 121.356V125.267H165.508V111.471H166.788L167.001 112.769H167.072C167.357 112.354 167.73 112.004 168.192 111.72C168.654 111.436 169.271 111.293 170.041 111.293ZM169.757 112.609C168.785 112.609 168.097 112.881 167.694 113.427C167.303 113.972 167.096 114.801 167.072 115.916V116.218C167.072 117.391 167.262 118.298 167.641 118.938C168.032 119.566 168.749 119.88 169.792 119.88C170.373 119.88 170.847 119.72 171.214 119.4C171.594 119.08 171.872 118.647 172.05 118.102C172.239 117.545 172.334 116.911 172.334 116.2C172.334 115.11 172.121 114.239 171.694 113.587C171.279 112.935 170.634 112.609 169.757 112.609ZM179.627 119.898C179.864 119.898 180.107 119.88 180.356 119.844C180.605 119.797 180.807 119.75 180.961 119.702V120.893C180.795 120.976 180.558 121.041 180.25 121.089C179.941 121.148 179.645 121.178 179.361 121.178C178.863 121.178 178.401 121.095 177.974 120.929C177.559 120.751 177.221 120.449 176.961 120.022C176.7 119.596 176.57 118.997 176.57 118.227V112.68H175.218V111.933L176.587 111.311L177.21 109.284H178.134V111.471H180.89V112.68H178.134V118.191C178.134 118.772 178.27 119.204 178.543 119.489C178.827 119.761 179.189 119.898 179.627 119.898ZM183.669 107.898C183.906 107.898 184.113 107.981 184.291 108.147C184.481 108.301 184.575 108.55 184.575 108.893C184.575 109.225 184.481 109.474 184.291 109.64C184.113 109.806 183.906 109.889 183.669 109.889C183.408 109.889 183.189 109.806 183.011 109.64C182.833 109.474 182.744 109.225 182.744 108.893C182.744 108.55 182.833 108.301 183.011 108.147C183.189 107.981 183.408 107.898 183.669 107.898ZM184.433 111.471V121H182.869V111.471H184.433ZM195.737 116.218C195.737 117.794 195.334 119.015 194.528 119.88C193.734 120.745 192.655 121.178 191.292 121.178C190.451 121.178 189.698 120.988 189.034 120.609C188.382 120.218 187.867 119.655 187.488 118.92C187.108 118.173 186.919 117.273 186.919 116.218C186.919 114.641 187.316 113.427 188.11 112.573C188.904 111.72 189.982 111.293 191.345 111.293C192.211 111.293 192.969 111.489 193.621 111.88C194.285 112.259 194.8 112.816 195.168 113.551C195.547 114.274 195.737 115.163 195.737 116.218ZM188.537 116.218C188.537 117.344 188.756 118.239 189.194 118.902C189.645 119.554 190.356 119.88 191.328 119.88C192.288 119.88 192.993 119.554 193.443 118.902C193.894 118.239 194.119 117.344 194.119 116.218C194.119 115.092 193.894 114.209 193.443 113.569C192.993 112.929 192.282 112.609 191.31 112.609C190.338 112.609 189.633 112.929 189.194 113.569C188.756 114.209 188.537 115.092 188.537 116.218ZM202.803 111.293C203.94 111.293 204.8 111.572 205.38 112.129C205.961 112.674 206.252 113.563 206.252 114.796V121H204.705V114.902C204.705 113.373 203.994 112.609 202.572 112.609C201.517 112.609 200.788 112.905 200.385 113.498C199.982 114.09 199.78 114.944 199.78 116.058V121H198.216V111.471H199.478L199.709 112.769H199.798C200.106 112.271 200.533 111.904 201.078 111.667C201.623 111.418 202.198 111.293 202.803 111.293ZM222.108 116.218C222.108 117.794 221.705 119.015 220.899 119.88C220.105 120.745 219.027 121.178 217.664 121.178C216.822 121.178 216.07 120.988 215.406 120.609C214.754 120.218 214.238 119.655 213.859 118.92C213.48 118.173 213.29 117.273 213.29 116.218C213.29 114.641 213.687 113.427 214.481 112.573C215.275 111.72 216.354 111.293 217.717 111.293C218.582 111.293 219.341 111.489 219.993 111.88C220.656 112.259 221.172 112.816 221.539 113.551C221.918 114.274 222.108 115.163 222.108 116.218ZM214.908 116.218C214.908 117.344 215.127 118.239 215.566 118.902C216.016 119.554 216.727 119.88 217.699 119.88C218.659 119.88 219.364 119.554 219.815 118.902C220.265 118.239 220.49 117.344 220.49 116.218C220.49 115.092 220.265 114.209 219.815 113.569C219.364 112.929 218.653 112.609 217.681 112.609C216.71 112.609 216.004 112.929 215.566 113.569C215.127 114.209 214.908 115.092 214.908 116.218ZM229.032 111.293C229.21 111.293 229.399 111.305 229.601 111.329C229.814 111.341 229.998 111.364 230.152 111.4L229.956 112.84C229.802 112.804 229.63 112.775 229.441 112.751C229.263 112.727 229.091 112.716 228.925 112.716C228.439 112.716 227.983 112.852 227.556 113.124C227.13 113.385 226.786 113.759 226.525 114.244C226.276 114.719 226.152 115.276 226.152 115.916V121H224.588V111.471H225.868L226.045 113.213H226.116C226.425 112.692 226.822 112.241 227.308 111.862C227.793 111.483 228.368 111.293 229.032 111.293ZM240.229 111.293C241.047 111.293 241.746 111.471 242.327 111.827C242.92 112.182 243.37 112.686 243.678 113.338C243.998 113.978 244.158 114.73 244.158 115.596V116.538H237.634C237.657 117.616 237.93 118.44 238.452 119.009C238.985 119.566 239.726 119.844 240.674 119.844C241.278 119.844 241.812 119.791 242.274 119.684C242.748 119.566 243.234 119.4 243.732 119.187V120.556C243.246 120.769 242.766 120.923 242.292 121.018C241.817 121.124 241.254 121.178 240.603 121.178C239.702 121.178 238.902 120.994 238.203 120.627C237.515 120.259 236.976 119.714 236.585 118.991C236.206 118.256 236.016 117.361 236.016 116.307C236.016 115.264 236.188 114.369 236.532 113.622C236.887 112.876 237.379 112.301 238.007 111.898C238.647 111.495 239.388 111.293 240.229 111.293ZM240.212 112.573C239.465 112.573 238.872 112.816 238.434 113.302C238.007 113.776 237.752 114.44 237.669 115.293H242.523C242.511 114.487 242.321 113.836 241.954 113.338C241.586 112.828 241.006 112.573 240.212 112.573ZM248.495 116.129L245.206 111.471H246.983L249.437 115.062L251.872 111.471H253.632L250.343 116.129L253.81 121H252.032L249.437 117.196L246.806 121H245.046L248.495 116.129ZM259.255 111.311C260.417 111.311 261.276 111.566 261.833 112.076C262.39 112.585 262.669 113.397 262.669 114.511V121H261.531L261.229 119.649H261.158C260.743 120.17 260.304 120.556 259.842 120.804C259.392 121.053 258.764 121.178 257.958 121.178C257.092 121.178 256.375 120.953 255.807 120.502C255.238 120.04 254.953 119.323 254.953 118.351C254.953 117.403 255.327 116.674 256.073 116.164C256.82 115.643 257.969 115.359 259.522 115.311L261.14 115.258V114.689C261.14 113.895 260.968 113.344 260.624 113.036C260.281 112.727 259.795 112.573 259.167 112.573C258.669 112.573 258.195 112.65 257.744 112.804C257.294 112.947 256.873 113.113 256.482 113.302L256.002 112.129C256.417 111.904 256.909 111.714 257.478 111.56C258.047 111.394 258.639 111.311 259.255 111.311ZM259.718 116.396C258.532 116.443 257.709 116.633 257.247 116.964C256.796 117.296 256.571 117.764 256.571 118.369C256.571 118.902 256.731 119.293 257.051 119.542C257.383 119.791 257.804 119.916 258.313 119.916C259.119 119.916 259.789 119.696 260.322 119.258C260.855 118.807 261.122 118.12 261.122 117.196V116.342L259.718 116.396ZM276.065 111.293C277.144 111.293 277.95 111.572 278.483 112.129C279.016 112.674 279.283 113.563 279.283 114.796V121H277.736V114.867C277.736 113.361 277.09 112.609 275.798 112.609C274.874 112.609 274.21 112.876 273.807 113.409C273.416 113.942 273.221 114.719 273.221 115.738V121H271.674V114.867C271.674 113.361 271.022 112.609 269.718 112.609C268.758 112.609 268.095 112.905 267.727 113.498C267.36 114.09 267.176 114.944 267.176 116.058V121H265.612V111.471H266.874L267.105 112.769H267.194C267.49 112.271 267.887 111.904 268.385 111.667C268.895 111.418 269.434 111.293 270.003 111.293C271.496 111.293 272.468 111.827 272.918 112.893H273.007C273.327 112.348 273.76 111.945 274.305 111.684C274.862 111.424 275.449 111.293 276.065 111.293ZM286.76 111.293C287.933 111.293 288.875 111.702 289.586 112.52C290.309 113.338 290.671 114.57 290.671 116.218C290.671 117.841 290.309 119.074 289.586 119.916C288.875 120.757 287.927 121.178 286.742 121.178C286.007 121.178 285.397 121.041 284.911 120.769C284.437 120.484 284.063 120.159 283.791 119.791H283.684C283.708 119.993 283.732 120.247 283.755 120.556C283.779 120.864 283.791 121.13 283.791 121.356V125.267H282.226V111.471H283.506L283.72 112.769H283.791C284.075 112.354 284.449 112.004 284.911 111.72C285.373 111.436 285.989 111.293 286.76 111.293ZM286.475 112.609C285.503 112.609 284.816 112.881 284.413 113.427C284.022 113.972 283.815 114.801 283.791 115.916V116.218C283.791 117.391 283.98 118.298 284.36 118.938C284.751 119.566 285.468 119.88 286.511 119.88C287.092 119.88 287.566 119.72 287.933 119.4C288.312 119.08 288.591 118.647 288.769 118.102C288.958 117.545 289.053 116.911 289.053 116.2C289.053 115.11 288.84 114.239 288.413 113.587C287.998 112.935 287.352 112.609 286.475 112.609ZM294.728 121H293.164V107.489H294.728V121ZM301.427 111.293C302.245 111.293 302.944 111.471 303.525 111.827C304.118 112.182 304.568 112.686 304.876 113.338C305.196 113.978 305.356 114.73 305.356 115.596V116.538H298.832C298.855 117.616 299.128 118.44 299.649 119.009C300.183 119.566 300.924 119.844 301.872 119.844C302.476 119.844 303.009 119.791 303.472 119.684C303.946 119.566 304.432 119.4 304.929 119.187V120.556C304.444 120.769 303.964 120.923 303.489 121.018C303.015 121.124 302.452 121.178 301.801 121.178C300.9 121.178 300.1 120.994 299.401 120.627C298.713 120.259 298.174 119.714 297.783 118.991C297.404 118.256 297.214 117.361 297.214 116.307C297.214 115.264 297.386 114.369 297.729 113.622C298.085 112.876 298.577 112.301 299.205 111.898C299.845 111.495 300.586 111.293 301.427 111.293ZM301.409 112.573C300.663 112.573 300.07 112.816 299.632 113.302C299.205 113.776 298.95 114.44 298.867 115.293H303.721C303.709 114.487 303.519 113.836 303.152 113.338C302.784 112.828 302.204 112.573 301.409 112.573ZM315.582 119.898C315.819 119.898 316.062 119.88 316.311 119.844C316.56 119.797 316.761 119.75 316.916 119.702V120.893C316.75 120.976 316.513 121.041 316.204 121.089C315.896 121.148 315.6 121.178 315.316 121.178C314.818 121.178 314.356 121.095 313.929 120.929C313.514 120.751 313.176 120.449 312.916 120.022C312.655 119.596 312.524 118.997 312.524 118.227V112.68H311.173V111.933L312.542 111.311L313.164 109.284H314.089V111.471H316.844V112.68H314.089V118.191C314.089 118.772 314.225 119.204 314.498 119.489C314.782 119.761 315.144 119.898 315.582 119.898ZM327.108 116.218C327.108 117.794 326.705 119.015 325.899 119.88C325.105 120.745 324.027 121.178 322.664 121.178C321.822 121.178 321.07 120.988 320.406 120.609C319.754 120.218 319.238 119.655 318.859 118.92C318.48 118.173 318.29 117.273 318.29 116.218C318.29 114.641 318.687 113.427 319.481 112.573C320.275 111.72 321.354 111.293 322.717 111.293C323.582 111.293 324.341 111.489 324.993 111.88C325.656 112.259 326.172 112.816 326.539 113.551C326.918 114.274 327.108 115.163 327.108 116.218ZM319.908 116.218C319.908 117.344 320.127 118.239 320.566 118.902C321.016 119.554 321.727 119.88 322.699 119.88C323.659 119.88 324.364 119.554 324.815 118.902C325.265 118.239 325.49 117.344 325.49 116.218C325.49 115.092 325.265 114.209 324.815 113.569C324.364 112.929 323.653 112.609 322.681 112.609C321.71 112.609 321.004 112.929 320.566 113.569C320.127 114.209 319.908 115.092 319.908 116.218ZM344.659 111.293C345.737 111.293 346.543 111.572 347.077 112.129C347.61 112.674 347.877 113.563 347.877 114.796V121H346.33V114.867C346.33 113.361 345.684 112.609 344.392 112.609C343.468 112.609 342.804 112.876 342.401 113.409C342.01 113.942 341.814 114.719 341.814 115.738V121H340.268V114.867C340.268 113.361 339.616 112.609 338.312 112.609C337.352 112.609 336.689 112.905 336.321 113.498C335.954 114.09 335.77 114.944 335.77 116.058V121H334.206V111.471H335.468L335.699 112.769H335.788C336.084 112.271 336.481 111.904 336.979 111.667C337.489 111.418 338.028 111.293 338.597 111.293C340.09 111.293 341.062 111.827 341.512 112.893H341.601C341.921 112.348 342.354 111.945 342.899 111.684C343.456 111.424 344.043 111.293 344.659 111.293ZM354.429 111.311C355.591 111.311 356.45 111.566 357.007 112.076C357.564 112.585 357.842 113.397 357.842 114.511V121H356.705L356.402 119.649H356.331C355.916 120.17 355.478 120.556 355.016 120.804C354.565 121.053 353.937 121.178 353.131 121.178C352.266 121.178 351.549 120.953 350.98 120.502C350.411 120.04 350.127 119.323 350.127 118.351C350.127 117.403 350.5 116.674 351.247 116.164C351.993 115.643 353.143 115.359 354.696 115.311L356.313 115.258V114.689C356.313 113.895 356.142 113.344 355.798 113.036C355.454 112.727 354.968 112.573 354.34 112.573C353.842 112.573 353.368 112.65 352.918 112.804C352.468 112.947 352.047 113.113 351.656 113.302L351.176 112.129C351.591 111.904 352.082 111.714 352.651 111.56C353.22 111.394 353.813 111.311 354.429 111.311ZM354.891 116.396C353.706 116.443 352.882 116.633 352.42 116.964C351.97 117.296 351.745 117.764 351.745 118.369C351.745 118.902 351.905 119.293 352.225 119.542C352.556 119.791 352.977 119.916 353.487 119.916C354.293 119.916 354.962 119.696 355.496 119.258C356.029 118.807 356.296 118.12 356.296 117.196V116.342L354.891 116.396ZM362.332 114.547C362.332 114.736 362.32 114.985 362.297 115.293C362.285 115.601 362.273 115.868 362.261 116.093H362.332C362.403 115.999 362.51 115.862 362.652 115.684C362.794 115.507 362.937 115.329 363.079 115.151C363.233 114.961 363.363 114.807 363.47 114.689L366.51 111.471H368.341L364.483 115.542L368.608 121H366.723L363.417 116.556L362.332 117.498V121H360.785V107.489H362.332V114.547ZM373.962 111.293C374.78 111.293 375.479 111.471 376.06 111.827C376.652 112.182 377.103 112.686 377.411 113.338C377.731 113.978 377.891 114.73 377.891 115.596V116.538H371.366C371.39 117.616 371.663 118.44 372.184 119.009C372.718 119.566 373.458 119.844 374.406 119.844C375.011 119.844 375.544 119.791 376.006 119.684C376.48 119.566 376.966 119.4 377.464 119.187V120.556C376.978 120.769 376.498 120.923 376.024 121.018C375.55 121.124 374.987 121.178 374.335 121.178C373.435 121.178 372.635 120.994 371.935 120.627C371.248 120.259 370.709 119.714 370.318 118.991C369.938 118.256 369.749 117.361 369.749 116.307C369.749 115.264 369.92 114.369 370.264 113.622C370.62 112.876 371.112 112.301 371.74 111.898C372.38 111.495 373.12 111.293 373.962 111.293ZM373.944 112.573C373.198 112.573 372.605 112.816 372.166 113.302C371.74 113.776 371.485 114.44 371.402 115.293H376.255C376.243 114.487 376.054 113.836 375.686 113.338C375.319 112.828 374.738 112.573 373.944 112.573ZM388.117 119.898C388.354 119.898 388.597 119.88 388.846 119.844C389.095 119.797 389.296 119.75 389.45 119.702V120.893C389.284 120.976 389.047 121.041 388.739 121.089C388.431 121.148 388.135 121.178 387.85 121.178C387.353 121.178 386.89 121.095 386.464 120.929C386.049 120.751 385.711 120.449 385.45 120.022C385.19 119.596 385.059 118.997 385.059 118.227V112.68H383.708V111.933L385.077 111.311L385.699 109.284H386.624V111.471H389.379V112.68H386.624V118.191C386.624 118.772 386.76 119.204 387.033 119.489C387.317 119.761 387.678 119.898 388.117 119.898ZM392.923 111.453C392.923 111.927 392.893 112.372 392.834 112.787H392.941C393.249 112.301 393.664 111.933 394.185 111.684C394.718 111.436 395.293 111.311 395.909 111.311C397.071 111.311 397.942 111.59 398.523 112.147C399.104 112.692 399.394 113.575 399.394 114.796V121H397.847V114.902C397.847 113.373 397.136 112.609 395.714 112.609C394.647 112.609 393.912 112.911 393.509 113.516C393.118 114.108 392.923 114.961 392.923 116.076V121H391.358V107.489H392.923V111.453ZM406.028 111.293C406.846 111.293 407.545 111.471 408.126 111.827C408.718 112.182 409.169 112.686 409.477 113.338C409.797 113.978 409.957 114.73 409.957 115.596V116.538H403.432C403.456 117.616 403.729 118.44 404.25 119.009C404.783 119.566 405.524 119.844 406.472 119.844C407.077 119.844 407.61 119.791 408.072 119.684C408.546 119.566 409.032 119.4 409.53 119.187V120.556C409.044 120.769 408.564 120.923 408.09 121.018C407.616 121.124 407.053 121.178 406.401 121.178C405.501 121.178 404.701 120.994 404.001 120.627C403.314 120.259 402.775 119.714 402.383 118.991C402.004 118.256 401.815 117.361 401.815 116.307C401.815 115.264 401.986 114.369 402.33 113.622C402.686 112.876 403.178 112.301 403.806 111.898C404.446 111.495 405.186 111.293 406.028 111.293ZM406.01 112.573C405.263 112.573 404.671 112.816 404.232 113.302C403.806 113.776 403.551 114.44 403.468 115.293H408.321C408.309 114.487 408.12 113.836 407.752 113.338C407.385 112.828 406.804 112.573 406.01 112.573ZM425.285 116.218C425.285 117.794 424.882 119.015 424.076 119.88C423.282 120.745 422.204 121.178 420.841 121.178C419.999 121.178 419.247 120.988 418.583 120.609C417.931 120.218 417.416 119.655 417.036 118.92C416.657 118.173 416.467 117.273 416.467 116.218C416.467 114.641 416.864 113.427 417.658 112.573C418.453 111.72 419.531 111.293 420.894 111.293C421.759 111.293 422.518 111.489 423.17 111.88C423.833 112.259 424.349 112.816 424.716 113.551C425.096 114.274 425.285 115.163 425.285 116.218ZM418.085 116.218C418.085 117.344 418.304 118.239 418.743 118.902C419.193 119.554 419.904 119.88 420.876 119.88C421.836 119.88 422.541 119.554 422.992 118.902C423.442 118.239 423.667 117.344 423.667 116.218C423.667 115.092 423.442 114.209 422.992 113.569C422.541 112.929 421.83 112.609 420.858 112.609C419.887 112.609 419.181 112.929 418.743 113.569C418.304 114.209 418.085 115.092 418.085 116.218ZM432.298 111.293C433.471 111.293 434.413 111.702 435.125 112.52C435.848 113.338 436.209 114.57 436.209 116.218C436.209 117.841 435.848 119.074 435.125 119.916C434.413 120.757 433.465 121.178 432.28 121.178C431.545 121.178 430.935 121.041 430.449 120.769C429.975 120.484 429.602 120.159 429.329 119.791H429.222C429.246 119.993 429.27 120.247 429.293 120.556C429.317 120.864 429.329 121.13 429.329 121.356V125.267H427.765V111.471H429.045L429.258 112.769H429.329C429.613 112.354 429.987 112.004 430.449 111.72C430.911 111.436 431.528 111.293 432.298 111.293ZM432.013 112.609C431.042 112.609 430.354 112.881 429.951 113.427C429.56 113.972 429.353 114.801 429.329 115.916V116.218C429.329 117.391 429.519 118.298 429.898 118.938C430.289 119.566 431.006 119.88 432.049 119.88C432.63 119.88 433.104 119.72 433.471 119.4C433.851 119.08 434.129 118.647 434.307 118.102C434.496 117.545 434.591 116.911 434.591 116.2C434.591 115.11 434.378 114.239 433.951 113.587C433.536 112.935 432.891 112.609 432.013 112.609ZM441.884 119.898C442.121 119.898 442.364 119.88 442.613 119.844C442.862 119.797 443.064 119.75 443.218 119.702V120.893C443.052 120.976 442.815 121.041 442.507 121.089C442.198 121.148 441.902 121.178 441.618 121.178C441.12 121.178 440.658 121.095 440.231 120.929C439.816 120.751 439.478 120.449 439.218 120.022C438.957 119.596 438.827 118.997 438.827 118.227V112.68H437.475V111.933L438.844 111.311L439.467 109.284H440.391V111.471H443.147V112.68H440.391V118.191C440.391 118.772 440.527 119.204 440.8 119.489C441.084 119.761 441.446 119.898 441.884 119.898ZM445.926 107.898C446.163 107.898 446.37 107.981 446.548 108.147C446.738 108.301 446.832 108.55 446.832 108.893C446.832 109.225 446.738 109.474 446.548 109.64C446.37 109.806 446.163 109.889 445.926 109.889C445.665 109.889 445.446 109.806 445.268 109.64C445.09 109.474 445.001 109.225 445.001 108.893C445.001 108.55 445.09 108.301 445.268 108.147C445.446 107.981 445.665 107.898 445.926 107.898ZM446.69 111.471V121H445.126V111.471H446.69ZM457.993 116.218C457.993 117.794 457.591 119.015 456.785 119.88C455.991 120.745 454.912 121.178 453.549 121.178C452.708 121.178 451.955 120.988 451.291 120.609C450.639 120.218 450.124 119.655 449.745 118.92C449.365 118.173 449.176 117.273 449.176 116.218C449.176 114.641 449.573 113.427 450.367 112.573C451.161 111.72 452.239 111.293 453.602 111.293C454.468 111.293 455.226 111.489 455.878 111.88C456.542 112.259 457.057 112.816 457.425 113.551C457.804 114.274 457.993 115.163 457.993 116.218ZM450.793 116.218C450.793 117.344 451.013 118.239 451.451 118.902C451.902 119.554 452.613 119.88 453.585 119.88C454.545 119.88 455.25 119.554 455.7 118.902C456.151 118.239 456.376 117.344 456.376 116.218C456.376 115.092 456.151 114.209 455.7 113.569C455.25 112.929 454.539 112.609 453.567 112.609C452.595 112.609 451.89 112.929 451.451 113.569C451.013 114.209 450.793 115.092 450.793 116.218ZM465.06 111.293C466.197 111.293 467.057 111.572 467.637 112.129C468.218 112.674 468.508 113.563 468.508 114.796V121H466.962V114.902C466.962 113.373 466.251 112.609 464.828 112.609C463.774 112.609 463.045 112.905 462.642 113.498C462.239 114.09 462.037 114.944 462.037 116.058V121H460.473V111.471H461.735L461.966 112.769H462.055C462.363 112.271 462.79 111.904 463.335 111.667C463.88 111.418 464.455 111.293 465.06 111.293ZM479.903 121.178C479.061 121.178 478.309 121.006 477.645 120.662C476.993 120.319 476.478 119.785 476.098 119.062C475.731 118.339 475.547 117.415 475.547 116.289C475.547 115.116 475.743 114.161 476.134 113.427C476.525 112.692 477.052 112.153 477.716 111.809C478.392 111.465 479.156 111.293 480.009 111.293C480.495 111.293 480.964 111.347 481.414 111.453C481.864 111.548 482.232 111.667 482.516 111.809L482.036 113.107C481.752 113 481.42 112.899 481.041 112.804C480.661 112.71 480.306 112.662 479.974 112.662C478.101 112.662 477.165 113.865 477.165 116.271C477.165 117.421 477.39 118.304 477.841 118.92C478.303 119.524 478.984 119.827 479.885 119.827C480.406 119.827 480.863 119.773 481.254 119.667C481.657 119.56 482.024 119.43 482.356 119.276V120.662C482.036 120.828 481.681 120.953 481.289 121.036C480.91 121.13 480.448 121.178 479.903 121.178ZM486.187 121H484.622V107.489H486.187V121ZM492.886 111.293C493.703 111.293 494.403 111.471 494.983 111.827C495.576 112.182 496.026 112.686 496.334 113.338C496.654 113.978 496.814 114.73 496.814 115.596V116.538H490.29C490.314 117.616 490.586 118.44 491.108 119.009C491.641 119.566 492.382 119.844 493.33 119.844C493.934 119.844 494.468 119.791 494.93 119.684C495.404 119.566 495.89 119.4 496.388 119.187V120.556C495.902 120.769 495.422 120.923 494.948 121.018C494.474 121.124 493.911 121.178 493.259 121.178C492.358 121.178 491.558 120.994 490.859 120.627C490.171 120.259 489.632 119.714 489.241 118.991C488.862 118.256 488.672 117.361 488.672 116.307C488.672 115.264 488.844 114.369 489.188 113.622C489.543 112.876 490.035 112.301 490.663 111.898C491.303 111.495 492.044 111.293 492.886 111.293ZM492.868 112.573C492.121 112.573 491.529 112.816 491.09 113.302C490.663 113.776 490.409 114.44 490.326 115.293H495.179C495.167 114.487 494.977 113.836 494.61 113.338C494.243 112.828 493.662 112.573 492.868 112.573ZM502.849 111.311C504.011 111.311 504.87 111.566 505.427 112.076C505.984 112.585 506.263 113.397 506.263 114.511V121H505.125L504.823 119.649H504.751C504.337 120.17 503.898 120.556 503.436 120.804C502.985 121.053 502.357 121.178 501.551 121.178C500.686 121.178 499.969 120.953 499.4 120.502C498.831 120.04 498.547 119.323 498.547 118.351C498.547 117.403 498.92 116.674 499.667 116.164C500.414 115.643 501.563 115.359 503.116 115.311L504.734 115.258V114.689C504.734 113.895 504.562 113.344 504.218 113.036C503.874 112.727 503.388 112.573 502.76 112.573C502.263 112.573 501.788 112.65 501.338 112.804C500.888 112.947 500.467 113.113 500.076 113.302L499.596 112.129C500.011 111.904 500.503 111.714 501.071 111.56C501.64 111.394 502.233 111.311 502.849 111.311ZM503.311 116.396C502.126 116.443 501.303 116.633 500.84 116.964C500.39 117.296 500.165 117.764 500.165 118.369C500.165 118.902 500.325 119.293 500.645 119.542C500.977 119.791 501.397 119.916 501.907 119.916C502.713 119.916 503.383 119.696 503.916 119.258C504.449 118.807 504.716 118.12 504.716 117.196V116.342L503.311 116.396ZM513.65 111.293C513.828 111.293 514.017 111.305 514.219 111.329C514.432 111.341 514.616 111.364 514.77 111.4L514.574 112.84C514.42 112.804 514.249 112.775 514.059 112.751C513.881 112.727 513.709 112.716 513.543 112.716C513.057 112.716 512.601 112.852 512.174 113.124C511.748 113.385 511.404 113.759 511.143 114.244C510.894 114.719 510.77 115.276 510.77 115.916V121H509.206V111.471H510.486L510.663 113.213H510.734C511.043 112.692 511.44 112.241 511.926 111.862C512.411 111.483 512.986 111.293 513.65 111.293ZM519.882 111.293C520.7 111.293 521.399 111.471 521.98 111.827C522.572 112.182 523.023 112.686 523.331 113.338C523.651 113.978 523.811 114.73 523.811 115.596V116.538H517.287C517.31 117.616 517.583 118.44 518.104 119.009C518.638 119.566 519.378 119.844 520.327 119.844C520.931 119.844 521.464 119.791 521.927 119.684C522.401 119.566 522.887 119.4 523.384 119.187V120.556C522.898 120.769 522.418 120.923 521.944 121.018C521.47 121.124 520.907 121.178 520.255 121.178C519.355 121.178 518.555 120.994 517.855 120.627C517.168 120.259 516.629 119.714 516.238 118.991C515.858 118.256 515.669 117.361 515.669 116.307C515.669 115.264 515.841 114.369 516.184 113.622C516.54 112.876 517.032 112.301 517.66 111.898C518.3 111.495 519.041 111.293 519.882 111.293ZM519.864 112.573C519.118 112.573 518.525 112.816 518.087 113.302C517.66 113.776 517.405 114.44 517.322 115.293H522.175C522.164 114.487 521.974 113.836 521.607 113.338C521.239 112.828 520.658 112.573 519.864 112.573ZM530.681 111.293C530.859 111.293 531.049 111.305 531.25 111.329C531.463 111.341 531.647 111.364 531.801 111.4L531.606 112.84C531.452 112.804 531.28 112.775 531.09 112.751C530.912 112.727 530.741 112.716 530.575 112.716C530.089 112.716 529.632 112.852 529.206 113.124C528.779 113.385 528.435 113.759 528.175 114.244C527.926 114.719 527.801 115.276 527.801 115.916V121H526.237V111.471H527.517L527.695 113.213H527.766C528.074 112.692 528.471 112.241 528.957 111.862C529.443 111.483 530.018 111.293 530.681 111.293ZM530.502 120.04C530.502 119.601 530.609 119.293 530.822 119.116C531.036 118.938 531.29 118.849 531.587 118.849C531.895 118.849 532.156 118.938 532.369 119.116C532.594 119.293 532.707 119.601 532.707 120.04C532.707 120.467 532.594 120.775 532.369 120.964C532.156 121.154 531.895 121.249 531.587 121.249C531.29 121.249 531.036 121.154 530.822 120.964C530.609 120.775 530.502 120.467 530.502 120.04Z" fill="#545961"/>
<rect x="54" y="136" width="42" height="42" rx="2" fill="white"/>
<path d="M71.0798 165.581L63.1353 157.637C62.658 157.16 62.658 156.386 63.1353 155.909L64.8638 154.18C65.341 153.703 66.115 153.703 66.5922 154.18L71.944 159.532L83.4069 148.069C83.8842 147.592 84.6581 147.592 85.1354 148.069L86.8638 149.797C87.3411 150.275 87.3411 151.049 86.8638 151.526L72.8082 165.581C72.3309 166.059 71.557 166.059 71.0798 165.581Z" fill="#333333"/>
<rect x="54" y="136" width="42" height="42" rx="2" stroke="#333333" stroke-width="2"/>
<path d="M113.9 164V149.72H116.06V162.14H122.16V164H113.9ZM128.563 153.02C129.923 153.02 130.936 153.32 131.603 153.92C132.269 154.507 132.603 155.433 132.603 156.7V164H131.103L130.683 162.5H130.603C130.296 162.887 129.976 163.207 129.643 163.46C129.323 163.713 128.949 163.9 128.523 164.02C128.109 164.14 127.603 164.2 127.003 164.2C126.363 164.2 125.783 164.087 125.263 163.86C124.756 163.62 124.356 163.26 124.063 162.78C123.769 162.287 123.623 161.673 123.623 160.94C123.623 159.847 124.036 159.013 124.863 158.44C125.703 157.867 126.976 157.553 128.683 157.5L130.523 157.44V156.84C130.523 156.04 130.343 155.48 129.983 155.16C129.623 154.84 129.116 154.68 128.463 154.68C127.903 154.68 127.369 154.76 126.863 154.92C126.356 155.08 125.876 155.273 125.423 155.5L124.743 153.96C125.249 153.693 125.829 153.473 126.483 153.3C127.149 153.113 127.843 153.02 128.563 153.02ZM129.063 158.86C127.836 158.913 126.983 159.12 126.503 159.48C126.036 159.827 125.803 160.32 125.803 160.96C125.803 161.52 125.969 161.927 126.303 162.18C126.649 162.433 127.083 162.56 127.603 162.56C128.443 162.56 129.136 162.327 129.683 161.86C130.229 161.393 130.503 160.693 130.503 159.76V158.82L129.063 158.86ZM137.987 152.46C137.987 152.9 137.974 153.32 137.947 153.72C137.934 154.107 137.914 154.413 137.887 154.64H137.987C138.294 154.187 138.707 153.807 139.227 153.5C139.747 153.193 140.42 153.04 141.247 153.04C142.54 153.04 143.58 153.507 144.367 154.44C145.167 155.373 145.567 156.76 145.567 158.6C145.567 159.84 145.387 160.873 145.027 161.7C144.667 162.527 144.16 163.153 143.507 163.58C142.854 163.993 142.094 164.2 141.227 164.2C140.387 164.2 139.714 164.053 139.207 163.76C138.7 163.453 138.294 163.093 137.987 162.68H137.827L137.427 164H135.867V148.8H137.987V152.46ZM140.747 154.76C140.054 154.76 139.507 154.893 139.107 155.16C138.707 155.427 138.42 155.833 138.247 156.38C138.074 156.927 137.987 157.62 137.987 158.46V158.62C137.987 159.86 138.187 160.813 138.587 161.48C138.987 162.133 139.72 162.46 140.787 162.46C141.64 162.46 142.287 162.127 142.727 161.46C143.167 160.793 143.387 159.833 143.387 158.58C143.387 157.313 143.167 156.36 142.727 155.72C142.287 155.08 141.627 154.76 140.747 154.76ZM152.509 153.02C153.456 153.02 154.269 153.22 154.949 153.62C155.629 154.007 156.149 154.567 156.509 155.3C156.883 156.033 157.069 156.9 157.069 157.9V159.06H149.829C149.856 160.167 150.143 161.013 150.689 161.6C151.249 162.187 152.029 162.48 153.029 162.48C153.723 162.48 154.336 162.42 154.869 162.3C155.416 162.167 155.976 161.973 156.549 161.72V163.48C156.016 163.72 155.469 163.9 154.909 164.02C154.363 164.14 153.709 164.2 152.949 164.2C151.909 164.2 150.989 163.993 150.189 163.58C149.389 163.167 148.763 162.553 148.309 161.74C147.869 160.913 147.649 159.9 147.649 158.7C147.649 157.487 147.849 156.46 148.249 155.62C148.663 154.78 149.229 154.14 149.949 153.7C150.683 153.247 151.536 153.02 152.509 153.02ZM152.509 154.66C151.749 154.66 151.136 154.907 150.669 155.4C150.216 155.893 149.949 156.593 149.869 157.5H154.949C154.949 156.94 154.863 156.447 154.689 156.02C154.516 155.593 154.249 155.26 153.889 155.02C153.529 154.78 153.069 154.66 152.509 154.66ZM161.835 164H159.715V148.8H161.835V164Z" fill="#333333"/>
<path d="M123.893 183.529C123.893 185.674 123.307 187.292 122.133 188.382C120.972 189.461 119.348 190 117.262 190H113.724V177.307H117.636C118.916 177.307 120.024 177.544 120.96 178.018C121.896 178.492 122.619 179.191 123.129 180.116C123.639 181.028 123.893 182.166 123.893 183.529ZM122.204 183.582C122.204 181.887 121.784 180.649 120.942 179.867C120.113 179.073 118.933 178.676 117.404 178.676H115.324V188.631H117.049C120.486 188.631 122.204 186.948 122.204 183.582ZM130.177 180.293C130.995 180.293 131.694 180.471 132.275 180.827C132.868 181.182 133.318 181.686 133.626 182.338C133.946 182.978 134.106 183.73 134.106 184.596V185.538H127.582C127.605 186.616 127.878 187.44 128.399 188.009C128.933 188.566 129.674 188.844 130.622 188.844C131.226 188.844 131.759 188.791 132.222 188.684C132.696 188.566 133.182 188.4 133.679 188.187V189.556C133.194 189.769 132.714 189.923 132.239 190.018C131.765 190.124 131.202 190.178 130.551 190.178C129.65 190.178 128.85 189.994 128.151 189.627C127.463 189.259 126.924 188.714 126.533 187.991C126.154 187.256 125.964 186.361 125.964 185.307C125.964 184.264 126.136 183.369 126.479 182.622C126.835 181.876 127.327 181.301 127.955 180.898C128.595 180.495 129.336 180.293 130.177 180.293ZM130.159 181.573C129.413 181.573 128.82 181.816 128.382 182.302C127.955 182.776 127.7 183.44 127.617 184.293H132.471C132.459 183.487 132.269 182.836 131.902 182.338C131.534 181.828 130.954 181.573 130.159 181.573ZM142.736 187.369C142.736 188.293 142.393 188.993 141.705 189.467C141.018 189.941 140.093 190.178 138.932 190.178C138.268 190.178 137.693 190.124 137.208 190.018C136.733 189.911 136.313 189.763 135.945 189.573V188.151C136.325 188.341 136.781 188.519 137.314 188.684C137.859 188.839 138.41 188.916 138.968 188.916C139.762 188.916 140.336 188.791 140.692 188.542C141.048 188.281 141.225 187.938 141.225 187.511C141.225 187.274 141.16 187.061 141.03 186.871C140.899 186.681 140.662 186.492 140.319 186.302C139.987 186.113 139.507 185.899 138.879 185.662C138.262 185.425 137.735 185.188 137.296 184.951C136.858 184.714 136.52 184.43 136.283 184.098C136.046 183.766 135.928 183.339 135.928 182.818C135.928 182.012 136.253 181.39 136.905 180.951C137.569 180.513 138.434 180.293 139.501 180.293C140.082 180.293 140.621 180.353 141.119 180.471C141.628 180.578 142.102 180.732 142.541 180.933L142.008 182.178C141.605 182.012 141.184 181.87 140.745 181.751C140.307 181.633 139.856 181.573 139.394 181.573C138.754 181.573 138.262 181.68 137.919 181.893C137.587 182.095 137.421 182.373 137.421 182.729C137.421 182.99 137.498 183.215 137.652 183.404C137.806 183.582 138.061 183.76 138.416 183.938C138.784 184.104 139.27 184.305 139.874 184.542C140.479 184.767 140.994 184.999 141.421 185.236C141.848 185.473 142.173 185.763 142.399 186.107C142.624 186.439 142.736 186.859 142.736 187.369ZM148.861 190.178C148.02 190.178 147.267 190.006 146.603 189.662C145.951 189.319 145.436 188.785 145.057 188.062C144.689 187.339 144.506 186.415 144.506 185.289C144.506 184.116 144.701 183.161 145.092 182.427C145.483 181.692 146.011 181.153 146.674 180.809C147.35 180.465 148.114 180.293 148.968 180.293C149.454 180.293 149.922 180.347 150.372 180.453C150.823 180.548 151.19 180.667 151.474 180.809L150.994 182.107C150.71 182 150.378 181.899 149.999 181.804C149.62 181.71 149.264 181.662 148.932 181.662C147.06 181.662 146.123 182.865 146.123 185.271C146.123 186.421 146.349 187.304 146.799 187.92C147.261 188.524 147.943 188.827 148.843 188.827C149.365 188.827 149.821 188.773 150.212 188.667C150.615 188.56 150.983 188.43 151.314 188.276V189.662C150.994 189.828 150.639 189.953 150.248 190.036C149.869 190.13 149.406 190.178 148.861 190.178ZM158.025 180.293C158.203 180.293 158.392 180.305 158.594 180.329C158.807 180.341 158.991 180.364 159.145 180.4L158.949 181.84C158.795 181.804 158.624 181.775 158.434 181.751C158.256 181.727 158.084 181.716 157.918 181.716C157.432 181.716 156.976 181.852 156.549 182.124C156.123 182.385 155.779 182.759 155.518 183.244C155.269 183.719 155.145 184.276 155.145 184.916V190H153.581V180.471H154.861L155.038 182.213H155.109C155.418 181.692 155.815 181.241 156.301 180.862C156.786 180.483 157.361 180.293 158.025 180.293ZM161.724 176.898C161.961 176.898 162.169 176.981 162.347 177.147C162.536 177.301 162.631 177.55 162.631 177.893C162.631 178.225 162.536 178.474 162.347 178.64C162.169 178.806 161.961 178.889 161.724 178.889C161.464 178.889 161.244 178.806 161.067 178.64C160.889 178.474 160.8 178.225 160.8 177.893C160.8 177.55 160.889 177.301 161.067 177.147C161.244 176.981 161.464 176.898 161.724 176.898ZM162.489 180.471V190H160.924V180.471H162.489ZM170.041 180.293C171.214 180.293 172.157 180.702 172.868 181.52C173.591 182.338 173.952 183.57 173.952 185.218C173.952 186.841 173.591 188.074 172.868 188.916C172.157 189.757 171.208 190.178 170.023 190.178C169.288 190.178 168.678 190.041 168.192 189.769C167.718 189.484 167.345 189.159 167.072 188.791H166.965C166.989 188.993 167.013 189.247 167.037 189.556C167.06 189.864 167.072 190.13 167.072 190.356V194.267H165.508V180.471H166.788L167.001 181.769H167.072C167.357 181.354 167.73 181.004 168.192 180.72C168.654 180.436 169.271 180.293 170.041 180.293ZM169.757 181.609C168.785 181.609 168.097 181.881 167.694 182.427C167.303 182.972 167.096 183.801 167.072 184.916V185.218C167.072 186.391 167.262 187.298 167.641 187.938C168.032 188.566 168.749 188.88 169.792 188.88C170.373 188.88 170.847 188.72 171.214 188.4C171.594 188.08 171.872 187.647 172.05 187.102C172.239 186.545 172.334 185.911 172.334 185.2C172.334 184.11 172.121 183.239 171.694 182.587C171.279 181.935 170.634 181.609 169.757 181.609ZM179.627 188.898C179.864 188.898 180.107 188.88 180.356 188.844C180.605 188.797 180.807 188.75 180.961 188.702V189.893C180.795 189.976 180.558 190.041 180.25 190.089C179.941 190.148 179.645 190.178 179.361 190.178C178.863 190.178 178.401 190.095 177.974 189.929C177.559 189.751 177.221 189.449 176.961 189.022C176.7 188.596 176.57 187.997 176.57 187.227V181.68H175.218V180.933L176.587 180.311L177.21 178.284H178.134V180.471H180.89V181.68H178.134V187.191C178.134 187.772 178.27 188.204 178.543 188.489C178.827 188.761 179.189 188.898 179.627 188.898ZM183.669 176.898C183.906 176.898 184.113 176.981 184.291 177.147C184.481 177.301 184.575 177.55 184.575 177.893C184.575 178.225 184.481 178.474 184.291 178.64C184.113 178.806 183.906 178.889 183.669 178.889C183.408 178.889 183.189 178.806 183.011 178.64C182.833 178.474 182.744 178.225 182.744 177.893C182.744 177.55 182.833 177.301 183.011 177.147C183.189 176.981 183.408 176.898 183.669 176.898ZM184.433 180.471V190H182.869V180.471H184.433ZM195.737 185.218C195.737 186.794 195.334 188.015 194.528 188.88C193.734 189.745 192.655 190.178 191.292 190.178C190.451 190.178 189.698 189.988 189.034 189.609C188.382 189.218 187.867 188.655 187.488 187.92C187.108 187.173 186.919 186.273 186.919 185.218C186.919 183.641 187.316 182.427 188.11 181.573C188.904 180.72 189.982 180.293 191.345 180.293C192.211 180.293 192.969 180.489 193.621 180.88C194.285 181.259 194.8 181.816 195.168 182.551C195.547 183.274 195.737 184.163 195.737 185.218ZM188.537 185.218C188.537 186.344 188.756 187.239 189.194 187.902C189.645 188.554 190.356 188.88 191.328 188.88C192.288 188.88 192.993 188.554 193.443 187.902C193.894 187.239 194.119 186.344 194.119 185.218C194.119 184.092 193.894 183.209 193.443 182.569C192.993 181.929 192.282 181.609 191.31 181.609C190.338 181.609 189.633 181.929 189.194 182.569C188.756 183.209 188.537 184.092 188.537 185.218ZM202.803 180.293C203.94 180.293 204.8 180.572 205.38 181.129C205.961 181.674 206.252 182.563 206.252 183.796V190H204.705V183.902C204.705 182.373 203.994 181.609 202.572 181.609C201.517 181.609 200.788 181.905 200.385 182.498C199.982 183.09 199.78 183.944 199.78 185.058V190H198.216V180.471H199.478L199.709 181.769H199.798C200.106 181.271 200.533 180.904 201.078 180.667C201.623 180.418 202.198 180.293 202.803 180.293ZM222.108 185.218C222.108 186.794 221.705 188.015 220.899 188.88C220.105 189.745 219.027 190.178 217.664 190.178C216.822 190.178 216.07 189.988 215.406 189.609C214.754 189.218 214.238 188.655 213.859 187.92C213.48 187.173 213.29 186.273 213.29 185.218C213.29 183.641 213.687 182.427 214.481 181.573C215.275 180.72 216.354 180.293 217.717 180.293C218.582 180.293 219.341 180.489 219.993 180.88C220.656 181.259 221.172 181.816 221.539 182.551C221.918 183.274 222.108 184.163 222.108 185.218ZM214.908 185.218C214.908 186.344 215.127 187.239 215.566 187.902C216.016 188.554 216.727 188.88 217.699 188.88C218.659 188.88 219.364 188.554 219.815 187.902C220.265 187.239 220.49 186.344 220.49 185.218C220.49 184.092 220.265 183.209 219.815 182.569C219.364 181.929 218.653 181.609 217.681 181.609C216.71 181.609 216.004 181.929 215.566 182.569C215.127 183.209 214.908 184.092 214.908 185.218ZM229.032 180.293C229.21 180.293 229.399 180.305 229.601 180.329C229.814 180.341 229.998 180.364 230.152 180.4L229.956 181.84C229.802 181.804 229.63 181.775 229.441 181.751C229.263 181.727 229.091 181.716 228.925 181.716C228.439 181.716 227.983 181.852 227.556 182.124C227.13 182.385 226.786 182.759 226.525 183.244C226.276 183.719 226.152 184.276 226.152 184.916V190H224.588V180.471H225.868L226.045 182.213H226.116C226.425 181.692 226.822 181.241 227.308 180.862C227.793 180.483 228.368 180.293 229.032 180.293ZM240.229 180.293C241.047 180.293 241.746 180.471 242.327 180.827C242.92 181.182 243.37 181.686 243.678 182.338C243.998 182.978 244.158 183.73 244.158 184.596V185.538H237.634C237.657 186.616 237.93 187.44 238.452 188.009C238.985 188.566 239.726 188.844 240.674 188.844C241.278 188.844 241.812 188.791 242.274 188.684C242.748 188.566 243.234 188.4 243.732 188.187V189.556C243.246 189.769 242.766 189.923 242.292 190.018C241.817 190.124 241.254 190.178 240.603 190.178C239.702 190.178 238.902 189.994 238.203 189.627C237.515 189.259 236.976 188.714 236.585 187.991C236.206 187.256 236.016 186.361 236.016 185.307C236.016 184.264 236.188 183.369 236.532 182.622C236.887 181.876 237.379 181.301 238.007 180.898C238.647 180.495 239.388 180.293 240.229 180.293ZM240.212 181.573C239.465 181.573 238.872 181.816 238.434 182.302C238.007 182.776 237.752 183.44 237.669 184.293H242.523C242.511 183.487 242.321 182.836 241.954 182.338C241.586 181.828 241.006 181.573 240.212 181.573ZM248.495 185.129L245.206 180.471H246.983L249.437 184.062L251.872 180.471H253.632L250.343 185.129L253.81 190H252.032L249.437 186.196L246.806 190H245.046L248.495 185.129ZM259.255 180.311C260.417 180.311 261.276 180.566 261.833 181.076C262.39 181.585 262.669 182.397 262.669 183.511V190H261.531L261.229 188.649H261.158C260.743 189.17 260.304 189.556 259.842 189.804C259.392 190.053 258.764 190.178 257.958 190.178C257.092 190.178 256.375 189.953 255.807 189.502C255.238 189.04 254.953 188.323 254.953 187.351C254.953 186.403 255.327 185.674 256.073 185.164C256.82 184.643 257.969 184.359 259.522 184.311L261.14 184.258V183.689C261.14 182.895 260.968 182.344 260.624 182.036C260.281 181.727 259.795 181.573 259.167 181.573C258.669 181.573 258.195 181.65 257.744 181.804C257.294 181.947 256.873 182.113 256.482 182.302L256.002 181.129C256.417 180.904 256.909 180.714 257.478 180.56C258.047 180.394 258.639 180.311 259.255 180.311ZM259.718 185.396C258.532 185.443 257.709 185.633 257.247 185.964C256.796 186.296 256.571 186.764 256.571 187.369C256.571 187.902 256.731 188.293 257.051 188.542C257.383 188.791 257.804 188.916 258.313 188.916C259.119 188.916 259.789 188.696 260.322 188.258C260.855 187.807 261.122 187.12 261.122 186.196V185.342L259.718 185.396ZM276.065 180.293C277.144 180.293 277.95 180.572 278.483 181.129C279.016 181.674 279.283 182.563 279.283 183.796V190H277.736V183.867C277.736 182.361 277.09 181.609 275.798 181.609C274.874 181.609 274.21 181.876 273.807 182.409C273.416 182.942 273.221 183.719 273.221 184.738V190H271.674V183.867C271.674 182.361 271.022 181.609 269.718 181.609C268.758 181.609 268.095 181.905 267.727 182.498C267.36 183.09 267.176 183.944 267.176 185.058V190H265.612V180.471H266.874L267.105 181.769H267.194C267.49 181.271 267.887 180.904 268.385 180.667C268.895 180.418 269.434 180.293 270.003 180.293C271.496 180.293 272.468 180.827 272.918 181.893H273.007C273.327 181.348 273.76 180.945 274.305 180.684C274.862 180.424 275.449 180.293 276.065 180.293ZM286.76 180.293C287.933 180.293 288.875 180.702 289.586 181.52C290.309 182.338 290.671 183.57 290.671 185.218C290.671 186.841 290.309 188.074 289.586 188.916C288.875 189.757 287.927 190.178 286.742 190.178C286.007 190.178 285.397 190.041 284.911 189.769C284.437 189.484 284.063 189.159 283.791 188.791H283.684C283.708 188.993 283.732 189.247 283.755 189.556C283.779 189.864 283.791 190.13 283.791 190.356V194.267H282.226V180.471H283.506L283.72 181.769H283.791C284.075 181.354 284.449 181.004 284.911 180.72C285.373 180.436 285.989 180.293 286.76 180.293ZM286.475 181.609C285.503 181.609 284.816 181.881 284.413 182.427C284.022 182.972 283.815 183.801 283.791 184.916V185.218C283.791 186.391 283.98 187.298 284.36 187.938C284.751 188.566 285.468 188.88 286.511 188.88C287.092 188.88 287.566 188.72 287.933 188.4C288.312 188.08 288.591 187.647 288.769 187.102C288.958 186.545 289.053 185.911 289.053 185.2C289.053 184.11 288.84 183.239 288.413 182.587C287.998 181.935 287.352 181.609 286.475 181.609ZM294.728 190H293.164V176.489H294.728V190ZM301.427 180.293C302.245 180.293 302.944 180.471 303.525 180.827C304.118 181.182 304.568 181.686 304.876 182.338C305.196 182.978 305.356 183.73 305.356 184.596V185.538H298.832C298.855 186.616 299.128 187.44 299.649 188.009C300.183 188.566 300.924 188.844 301.872 188.844C302.476 188.844 303.009 188.791 303.472 188.684C303.946 188.566 304.432 188.4 304.929 188.187V189.556C304.444 189.769 303.964 189.923 303.489 190.018C303.015 190.124 302.452 190.178 301.801 190.178C300.9 190.178 300.1 189.994 299.401 189.627C298.713 189.259 298.174 188.714 297.783 187.991C297.404 187.256 297.214 186.361 297.214 185.307C297.214 184.264 297.386 183.369 297.729 182.622C298.085 181.876 298.577 181.301 299.205 180.898C299.845 180.495 300.586 180.293 301.427 180.293ZM301.409 181.573C300.663 181.573 300.07 181.816 299.632 182.302C299.205 182.776 298.95 183.44 298.867 184.293H303.721C303.709 183.487 303.519 182.836 303.152 182.338C302.784 181.828 302.204 181.573 301.409 181.573ZM315.582 188.898C315.819 188.898 316.062 188.88 316.311 188.844C316.56 188.797 316.761 188.75 316.916 188.702V189.893C316.75 189.976 316.513 190.041 316.204 190.089C315.896 190.148 315.6 190.178 315.316 190.178C314.818 190.178 314.356 190.095 313.929 189.929C313.514 189.751 313.176 189.449 312.916 189.022C312.655 188.596 312.524 187.997 312.524 187.227V181.68H311.173V180.933L312.542 180.311L313.164 178.284H314.089V180.471H316.844V181.68H314.089V187.191C314.089 187.772 314.225 188.204 314.498 188.489C314.782 188.761 315.144 188.898 315.582 188.898ZM327.108 185.218C327.108 186.794 326.705 188.015 325.899 188.88C325.105 189.745 324.027 190.178 322.664 190.178C321.822 190.178 321.07 189.988 320.406 189.609C319.754 189.218 319.238 188.655 318.859 187.92C318.48 187.173 318.29 186.273 318.29 185.218C318.29 183.641 318.687 182.427 319.481 181.573C320.275 180.72 321.354 180.293 322.717 180.293C323.582 180.293 324.341 180.489 324.993 180.88C325.656 181.259 326.172 181.816 326.539 182.551C326.918 183.274 327.108 184.163 327.108 185.218ZM319.908 185.218C319.908 186.344 320.127 187.239 320.566 187.902C321.016 188.554 321.727 188.88 322.699 188.88C323.659 188.88 324.364 188.554 324.815 187.902C325.265 187.239 325.49 186.344 325.49 185.218C325.49 184.092 325.265 183.209 324.815 182.569C324.364 181.929 323.653 181.609 322.681 181.609C321.71 181.609 321.004 181.929 320.566 182.569C320.127 183.209 319.908 184.092 319.908 185.218ZM344.659 180.293C345.737 180.293 346.543 180.572 347.077 181.129C347.61 181.674 347.877 182.563 347.877 183.796V190H346.33V183.867C346.33 182.361 345.684 181.609 344.392 181.609C343.468 181.609 342.804 181.876 342.401 182.409C342.01 182.942 341.814 183.719 341.814 184.738V190H340.268V183.867C340.268 182.361 339.616 181.609 338.312 181.609C337.352 181.609 336.689 181.905 336.321 182.498C335.954 183.09 335.77 183.944 335.77 185.058V190H334.206V180.471H335.468L335.699 181.769H335.788C336.084 181.271 336.481 180.904 336.979 180.667C337.489 180.418 338.028 180.293 338.597 180.293C340.09 180.293 341.062 180.827 341.512 181.893H341.601C341.921 181.348 342.354 180.945 342.899 180.684C343.456 180.424 344.043 180.293 344.659 180.293ZM354.429 180.311C355.591 180.311 356.45 180.566 357.007 181.076C357.564 181.585 357.842 182.397 357.842 183.511V190H356.705L356.402 188.649H356.331C355.916 189.17 355.478 189.556 355.016 189.804C354.565 190.053 353.937 190.178 353.131 190.178C352.266 190.178 351.549 189.953 350.98 189.502C350.411 189.04 350.127 188.323 350.127 187.351C350.127 186.403 350.5 185.674 351.247 185.164C351.993 184.643 353.143 184.359 354.696 184.311L356.313 184.258V183.689C356.313 182.895 356.142 182.344 355.798 182.036C355.454 181.727 354.968 181.573 354.34 181.573C353.842 181.573 353.368 181.65 352.918 181.804C352.468 181.947 352.047 182.113 351.656 182.302L351.176 181.129C351.591 180.904 352.082 180.714 352.651 180.56C353.22 180.394 353.813 180.311 354.429 180.311ZM354.891 185.396C353.706 185.443 352.882 185.633 352.42 185.964C351.97 186.296 351.745 186.764 351.745 187.369C351.745 187.902 351.905 188.293 352.225 188.542C352.556 188.791 352.977 188.916 353.487 188.916C354.293 188.916 354.962 188.696 355.496 188.258C356.029 187.807 356.296 187.12 356.296 186.196V185.342L354.891 185.396ZM362.332 183.547C362.332 183.736 362.32 183.985 362.297 184.293C362.285 184.601 362.273 184.868 362.261 185.093H362.332C362.403 184.999 362.51 184.862 362.652 184.684C362.794 184.507 362.937 184.329 363.079 184.151C363.233 183.961 363.363 183.807 363.47 183.689L366.51 180.471H368.341L364.483 184.542L368.608 190H366.723L363.417 185.556L362.332 186.498V190H360.785V176.489H362.332V183.547ZM373.962 180.293C374.78 180.293 375.479 180.471 376.06 180.827C376.652 181.182 377.103 181.686 377.411 182.338C377.731 182.978 377.891 183.73 377.891 184.596V185.538H371.366C371.39 186.616 371.663 187.44 372.184 188.009C372.718 188.566 373.458 188.844 374.406 188.844C375.011 188.844 375.544 188.791 376.006 188.684C376.48 188.566 376.966 188.4 377.464 188.187V189.556C376.978 189.769 376.498 189.923 376.024 190.018C375.55 190.124 374.987 190.178 374.335 190.178C373.435 190.178 372.635 189.994 371.935 189.627C371.248 189.259 370.709 188.714 370.318 187.991C369.938 187.256 369.749 186.361 369.749 185.307C369.749 184.264 369.92 183.369 370.264 182.622C370.62 181.876 371.112 181.301 371.74 180.898C372.38 180.495 373.12 180.293 373.962 180.293ZM373.944 181.573C373.198 181.573 372.605 181.816 372.166 182.302C371.74 182.776 371.485 183.44 371.402 184.293H376.255C376.243 183.487 376.054 182.836 375.686 182.338C375.319 181.828 374.738 181.573 373.944 181.573ZM388.117 188.898C388.354 188.898 388.597 188.88 388.846 188.844C389.095 188.797 389.296 188.75 389.45 188.702V189.893C389.284 189.976 389.047 190.041 388.739 190.089C388.431 190.148 388.135 190.178 387.85 190.178C387.353 190.178 386.89 190.095 386.464 189.929C386.049 189.751 385.711 189.449 385.45 189.022C385.19 188.596 385.059 187.997 385.059 187.227V181.68H383.708V180.933L385.077 180.311L385.699 178.284H386.624V180.471H389.379V181.68H386.624V187.191C386.624 187.772 386.76 188.204 387.033 188.489C387.317 188.761 387.678 188.898 388.117 188.898ZM392.923 180.453C392.923 180.927 392.893 181.372 392.834 181.787H392.941C393.249 181.301 393.664 180.933 394.185 180.684C394.718 180.436 395.293 180.311 395.909 180.311C397.071 180.311 397.942 180.59 398.523 181.147C399.104 181.692 399.394 182.575 399.394 183.796V190H397.847V183.902C397.847 182.373 397.136 181.609 395.714 181.609C394.647 181.609 393.912 181.911 393.509 182.516C393.118 183.108 392.923 183.961 392.923 185.076V190H391.358V176.489H392.923V180.453ZM406.028 180.293C406.846 180.293 407.545 180.471 408.126 180.827C408.718 181.182 409.169 181.686 409.477 182.338C409.797 182.978 409.957 183.73 409.957 184.596V185.538H403.432C403.456 186.616 403.729 187.44 404.25 188.009C404.783 188.566 405.524 188.844 406.472 188.844C407.077 188.844 407.61 188.791 408.072 188.684C408.546 188.566 409.032 188.4 409.53 188.187V189.556C409.044 189.769 408.564 189.923 408.09 190.018C407.616 190.124 407.053 190.178 406.401 190.178C405.501 190.178 404.701 189.994 404.001 189.627C403.314 189.259 402.775 188.714 402.383 187.991C402.004 187.256 401.815 186.361 401.815 185.307C401.815 184.264 401.986 183.369 402.33 182.622C402.686 181.876 403.178 181.301 403.806 180.898C404.446 180.495 405.186 180.293 406.028 180.293ZM406.01 181.573C405.263 181.573 404.671 181.816 404.232 182.302C403.806 182.776 403.551 183.44 403.468 184.293H408.321C408.309 183.487 408.12 182.836 407.752 182.338C407.385 181.828 406.804 181.573 406.01 181.573ZM425.285 185.218C425.285 186.794 424.882 188.015 424.076 188.88C423.282 189.745 422.204 190.178 420.841 190.178C419.999 190.178 419.247 189.988 418.583 189.609C417.931 189.218 417.416 188.655 417.036 187.92C416.657 187.173 416.467 186.273 416.467 185.218C416.467 183.641 416.864 182.427 417.658 181.573C418.453 180.72 419.531 180.293 420.894 180.293C421.759 180.293 422.518 180.489 423.17 180.88C423.833 181.259 424.349 181.816 424.716 182.551C425.096 183.274 425.285 184.163 425.285 185.218ZM418.085 185.218C418.085 186.344 418.304 187.239 418.743 187.902C419.193 188.554 419.904 188.88 420.876 188.88C421.836 188.88 422.541 188.554 422.992 187.902C423.442 187.239 423.667 186.344 423.667 185.218C423.667 184.092 423.442 183.209 422.992 182.569C422.541 181.929 421.83 181.609 420.858 181.609C419.887 181.609 419.181 181.929 418.743 182.569C418.304 183.209 418.085 184.092 418.085 185.218ZM432.298 180.293C433.471 180.293 434.413 180.702 435.125 181.52C435.848 182.338 436.209 183.57 436.209 185.218C436.209 186.841 435.848 188.074 435.125 188.916C434.413 189.757 433.465 190.178 432.28 190.178C431.545 190.178 430.935 190.041 430.449 189.769C429.975 189.484 429.602 189.159 429.329 188.791H429.222C429.246 188.993 429.27 189.247 429.293 189.556C429.317 189.864 429.329 190.13 429.329 190.356V194.267H427.765V180.471H429.045L429.258 181.769H429.329C429.613 181.354 429.987 181.004 430.449 180.72C430.911 180.436 431.528 180.293 432.298 180.293ZM432.013 181.609C431.042 181.609 430.354 181.881 429.951 182.427C429.56 182.972 429.353 183.801 429.329 184.916V185.218C429.329 186.391 429.519 187.298 429.898 187.938C430.289 188.566 431.006 188.88 432.049 188.88C432.63 188.88 433.104 188.72 433.471 188.4C433.851 188.08 434.129 187.647 434.307 187.102C434.496 186.545 434.591 185.911 434.591 185.2C434.591 184.11 434.378 183.239 433.951 182.587C433.536 181.935 432.891 181.609 432.013 181.609ZM441.884 188.898C442.121 188.898 442.364 188.88 442.613 188.844C442.862 188.797 443.064 188.75 443.218 188.702V189.893C443.052 189.976 442.815 190.041 442.507 190.089C442.198 190.148 441.902 190.178 441.618 190.178C441.12 190.178 440.658 190.095 440.231 189.929C439.816 189.751 439.478 189.449 439.218 189.022C438.957 188.596 438.827 187.997 438.827 187.227V181.68H437.475V180.933L438.844 180.311L439.467 178.284H440.391V180.471H443.147V181.68H440.391V187.191C440.391 187.772 440.527 188.204 440.8 188.489C441.084 188.761 441.446 188.898 441.884 188.898ZM445.926 176.898C446.163 176.898 446.37 176.981 446.548 177.147C446.738 177.301 446.832 177.55 446.832 177.893C446.832 178.225 446.738 178.474 446.548 178.64C446.37 178.806 446.163 178.889 445.926 178.889C445.665 178.889 445.446 178.806 445.268 178.64C445.09 178.474 445.001 178.225 445.001 177.893C445.001 177.55 445.09 177.301 445.268 177.147C445.446 176.981 445.665 176.898 445.926 176.898ZM446.69 180.471V190H445.126V180.471H446.69ZM457.993 185.218C457.993 186.794 457.591 188.015 456.785 188.88C455.991 189.745 454.912 190.178 453.549 190.178C452.708 190.178 451.955 189.988 451.291 189.609C450.639 189.218 450.124 188.655 449.745 187.92C449.365 187.173 449.176 186.273 449.176 185.218C449.176 183.641 449.573 182.427 450.367 181.573C451.161 180.72 452.239 180.293 453.602 180.293C454.468 180.293 455.226 180.489 455.878 180.88C456.542 181.259 457.057 181.816 457.425 182.551C457.804 183.274 457.993 184.163 457.993 185.218ZM450.793 185.218C450.793 186.344 451.013 187.239 451.451 187.902C451.902 188.554 452.613 188.88 453.585 188.88C454.545 188.88 455.25 188.554 455.7 187.902C456.151 187.239 456.376 186.344 456.376 185.218C456.376 184.092 456.151 183.209 455.7 182.569C455.25 181.929 454.539 181.609 453.567 181.609C452.595 181.609 451.89 181.929 451.451 182.569C451.013 183.209 450.793 184.092 450.793 185.218ZM465.06 180.293C466.197 180.293 467.057 180.572 467.637 181.129C468.218 181.674 468.508 182.563 468.508 183.796V190H466.962V183.902C466.962 182.373 466.251 181.609 464.828 181.609C463.774 181.609 463.045 181.905 462.642 182.498C462.239 183.09 462.037 183.944 462.037 185.058V190H460.473V180.471H461.735L461.966 181.769H462.055C462.363 181.271 462.79 180.904 463.335 180.667C463.88 180.418 464.455 180.293 465.06 180.293ZM479.903 190.178C479.061 190.178 478.309 190.006 477.645 189.662C476.993 189.319 476.478 188.785 476.098 188.062C475.731 187.339 475.547 186.415 475.547 185.289C475.547 184.116 475.743 183.161 476.134 182.427C476.525 181.692 477.052 181.153 477.716 180.809C478.392 180.465 479.156 180.293 480.009 180.293C480.495 180.293 480.964 180.347 481.414 180.453C481.864 180.548 482.232 180.667 482.516 180.809L482.036 182.107C481.752 182 481.42 181.899 481.041 181.804C480.661 181.71 480.306 181.662 479.974 181.662C478.101 181.662 477.165 182.865 477.165 185.271C477.165 186.421 477.39 187.304 477.841 187.92C478.303 188.524 478.984 188.827 479.885 188.827C480.406 188.827 480.863 188.773 481.254 188.667C481.657 188.56 482.024 188.43 482.356 188.276V189.662C482.036 189.828 481.681 189.953 481.289 190.036C480.91 190.13 480.448 190.178 479.903 190.178ZM486.187 190H484.622V176.489H486.187V190ZM492.886 180.293C493.703 180.293 494.403 180.471 494.983 180.827C495.576 181.182 496.026 181.686 496.334 182.338C496.654 182.978 496.814 183.73 496.814 184.596V185.538H490.29C490.314 186.616 490.586 187.44 491.108 188.009C491.641 188.566 492.382 188.844 493.33 188.844C493.934 188.844 494.468 188.791 494.93 188.684C495.404 188.566 495.89 188.4 496.388 188.187V189.556C495.902 189.769 495.422 189.923 494.948 190.018C494.474 190.124 493.911 190.178 493.259 190.178C492.358 190.178 491.558 189.994 490.859 189.627C490.171 189.259 489.632 188.714 489.241 187.991C488.862 187.256 488.672 186.361 488.672 185.307C488.672 184.264 488.844 183.369 489.188 182.622C489.543 181.876 490.035 181.301 490.663 180.898C491.303 180.495 492.044 180.293 492.886 180.293ZM492.868 181.573C492.121 181.573 491.529 181.816 491.09 182.302C490.663 182.776 490.409 183.44 490.326 184.293H495.179C495.167 183.487 494.977 182.836 494.61 182.338C494.243 181.828 493.662 181.573 492.868 181.573ZM502.849 180.311C504.011 180.311 504.87 180.566 505.427 181.076C505.984 181.585 506.263 182.397 506.263 183.511V190H505.125L504.823 188.649H504.751C504.337 189.17 503.898 189.556 503.436 189.804C502.985 190.053 502.357 190.178 501.551 190.178C500.686 190.178 499.969 189.953 499.4 189.502C498.831 189.04 498.547 188.323 498.547 187.351C498.547 186.403 498.92 185.674 499.667 185.164C500.414 184.643 501.563 184.359 503.116 184.311L504.734 184.258V183.689C504.734 182.895 504.562 182.344 504.218 182.036C503.874 181.727 503.388 181.573 502.76 181.573C502.263 181.573 501.788 181.65 501.338 181.804C500.888 181.947 500.467 182.113 500.076 182.302L499.596 181.129C500.011 180.904 500.503 180.714 501.071 180.56C501.64 180.394 502.233 180.311 502.849 180.311ZM503.311 185.396C502.126 185.443 501.303 185.633 500.84 185.964C500.39 186.296 500.165 186.764 500.165 187.369C500.165 187.902 500.325 188.293 500.645 188.542C500.977 188.791 501.397 188.916 501.907 188.916C502.713 188.916 503.383 188.696 503.916 188.258C504.449 187.807 504.716 187.12 504.716 186.196V185.342L503.311 185.396ZM513.65 180.293C513.828 180.293 514.017 180.305 514.219 180.329C514.432 180.341 514.616 180.364 514.77 180.4L514.574 181.84C514.42 181.804 514.249 181.775 514.059 181.751C513.881 181.727 513.709 181.716 513.543 181.716C513.057 181.716 512.601 181.852 512.174 182.124C511.748 182.385 511.404 182.759 511.143 183.244C510.894 183.719 510.77 184.276 510.77 184.916V190H509.206V180.471H510.486L510.663 182.213H510.734C511.043 181.692 511.44 181.241 511.926 180.862C512.411 180.483 512.986 180.293 513.65 180.293ZM519.882 180.293C520.7 180.293 521.399 180.471 521.98 180.827C522.572 181.182 523.023 181.686 523.331 182.338C523.651 182.978 523.811 183.73 523.811 184.596V185.538H517.287C517.31 186.616 517.583 187.44 518.104 188.009C518.638 188.566 519.378 188.844 520.327 188.844C520.931 188.844 521.464 188.791 521.927 188.684C522.401 188.566 522.887 188.4 523.384 188.187V189.556C522.898 189.769 522.418 189.923 521.944 190.018C521.47 190.124 520.907 190.178 520.255 190.178C519.355 190.178 518.555 189.994 517.855 189.627C517.168 189.259 516.629 188.714 516.238 187.991C515.858 187.256 515.669 186.361 515.669 185.307C515.669 184.264 515.841 183.369 516.184 182.622C516.54 181.876 517.032 181.301 517.66 180.898C518.3 180.495 519.041 180.293 519.882 180.293ZM519.864 181.573C519.118 181.573 518.525 181.816 518.087 182.302C517.66 182.776 517.405 183.44 517.322 184.293H522.175C522.164 183.487 521.974 182.836 521.607 182.338C521.239 181.828 520.658 181.573 519.864 181.573ZM530.681 180.293C530.859 180.293 531.049 180.305 531.25 180.329C531.463 180.341 531.647 180.364 531.801 180.4L531.606 181.84C531.452 181.804 531.28 181.775 531.09 181.751C530.912 181.727 530.741 181.716 530.575 181.716C530.089 181.716 529.632 181.852 529.206 182.124C528.779 182.385 528.435 182.759 528.175 183.244C527.926 183.719 527.801 184.276 527.801 184.916V190H526.237V180.471H527.517L527.695 182.213H527.766C528.074 181.692 528.471 181.241 528.957 180.862C529.443 180.483 530.018 180.293 530.681 180.293ZM530.502 189.04C530.502 188.601 530.609 188.293 530.822 188.116C531.036 187.938 531.29 187.849 531.587 187.849C531.895 187.849 532.156 187.938 532.369 188.116C532.594 188.293 532.707 188.601 532.707 189.04C532.707 189.467 532.594 189.775 532.369 189.964C532.156 190.154 531.895 190.249 531.587 190.249C531.29 190.249 531.036 190.154 530.822 189.964C530.609 189.775 530.502 189.467 530.502 189.04Z" fill="#545961"/>
<g clip-path="url(#clip0_6976_17926)">
<rect x="540" y="114" width="30" height="1" fill="#C54600"/>
<g clip-path="url(#clip1_6976_17926)">
<rect x="570" y="102" width="24" height="24" rx="12" fill="#C54600"/>
<path d="M582.112 119.139C581.588 119.136 581.083 119.048 580.596 118.876C580.112 118.703 579.677 118.423 579.293 118.036C578.908 117.648 578.604 117.134 578.378 116.494C578.156 115.855 578.045 115.069 578.045 114.138C578.048 113.283 578.146 112.519 578.338 111.846C578.534 111.17 578.812 110.596 579.174 110.126C579.538 109.655 579.974 109.297 580.481 109.052C580.988 108.803 581.557 108.679 582.186 108.679C582.866 108.679 583.466 108.812 583.986 109.077C584.507 109.339 584.924 109.695 585.239 110.146C585.557 110.596 585.749 111.102 585.816 111.662H583.693C583.61 111.307 583.436 111.029 583.171 110.827C582.906 110.625 582.578 110.523 582.186 110.523C581.524 110.523 581.02 110.812 580.675 111.388C580.334 111.965 580.16 112.749 580.153 113.74H580.223C580.375 113.438 580.581 113.182 580.839 112.969C581.101 112.754 581.398 112.59 581.729 112.477C582.064 112.361 582.417 112.303 582.788 112.303C583.391 112.303 583.928 112.446 584.399 112.731C584.869 113.013 585.241 113.4 585.512 113.894C585.784 114.388 585.92 114.953 585.92 115.589C585.92 116.279 585.759 116.892 585.438 117.429C585.12 117.966 584.674 118.387 584.1 118.692C583.53 118.993 582.868 119.143 582.112 119.139ZM582.102 117.449C582.433 117.449 582.73 117.369 582.992 117.21C583.254 117.051 583.459 116.836 583.608 116.564C583.757 116.292 583.832 115.987 583.832 115.649C583.832 115.311 583.757 115.008 583.608 114.739C583.462 114.471 583.26 114.257 583.002 114.098C582.743 113.939 582.448 113.859 582.117 113.859C581.868 113.859 581.638 113.906 581.426 113.999C581.217 114.091 581.033 114.221 580.874 114.386C580.718 114.552 580.596 114.744 580.506 114.963C580.417 115.179 580.372 115.409 580.372 115.654C580.372 115.982 580.446 116.282 580.596 116.554C580.748 116.826 580.953 117.043 581.212 117.205C581.474 117.368 581.77 117.449 582.102 117.449Z" fill="white"/>
</g>
</g>
<g clip-path="url(#clip2_6976_17926)">
<rect x="145" y="88" width="81" height="1" fill="#C54600"/>
<g clip-path="url(#clip3_6976_17926)">
<rect x="214" y="76" width="24" height="24" rx="12" fill="#C54600"/>
<path d="M226.032 93.1392C225.33 93.1392 224.703 93.0099 224.153 92.7514C223.606 92.4929 223.172 92.1366 222.85 91.6825C222.529 91.2285 222.362 90.7081 222.348 90.1214H224.436C224.46 90.5159 224.625 90.8357 224.934 91.081C225.242 91.3262 225.608 91.4489 226.032 91.4489C226.37 91.4489 226.669 91.3743 226.927 91.2251C227.189 91.0727 227.393 90.8622 227.539 90.5938C227.688 90.322 227.762 90.0104 227.762 89.6591C227.762 89.3011 227.686 88.9863 227.534 88.7145C227.385 88.4427 227.177 88.2306 226.912 88.0781C226.647 87.9257 226.344 87.8478 226.002 87.8445C225.704 87.8445 225.414 87.9058 225.132 88.0284C224.854 88.151 224.637 88.3184 224.481 88.5305L222.567 88.1875L223.049 82.8182H229.274V84.5781H224.824L224.561 87.1286H224.62C224.799 86.8767 225.069 86.6679 225.431 86.5021C225.792 86.3364 226.196 86.2536 226.644 86.2536C227.257 86.2536 227.804 86.3977 228.284 86.6861C228.765 86.9744 229.145 87.3705 229.423 87.8743C229.701 88.3748 229.839 88.9515 229.836 89.6044C229.839 90.2905 229.68 90.9003 229.358 91.4339C229.04 91.9643 228.594 92.3819 228.021 92.6868C227.451 92.9884 226.788 93.1392 226.032 93.1392Z" fill="white"/>
</g>
</g>
<g clip-path="url(#clip4_6976_17926)">
<rect y="157" width="68" height="1" fill="#C54600"/>
<g clip-path="url(#clip5_6976_17926)">
<rect y="145" width="24" height="24" rx="12" fill="#C54600"/>
<path d="M7.92702 160.21V158.515L12.1777 151.818H13.6394V154.165H12.7743L10.0946 158.406V158.485H16.1351V160.21H7.92702ZM12.8141 162V159.693L12.8539 158.942V151.818H14.8723V162H12.8141Z" fill="white"/>
</g>
</g>
<g clip-path="url(#clip6_6976_17926)">
<rect y="88" width="53" height="1" fill="#C54600"/>
<g clip-path="url(#clip7_6976_17926)">
<rect y="76" width="24" height="24" rx="12" fill="#C54600"/>
<path d="M11.9745 93.1392C11.2321 93.1392 10.5709 93.0116 9.99086 92.7564C9.41415 92.4979 8.95842 92.1432 8.62367 91.6925C8.29223 91.2384 8.12154 90.7147 8.11159 90.1214H10.2792C10.2925 90.37 10.3737 90.5888 10.5228 90.7777C10.6753 90.9633 10.8775 91.1075 11.1294 91.2102C11.3812 91.313 11.6646 91.3643 11.9795 91.3643C12.3076 91.3643 12.5976 91.3063 12.8495 91.1903C13.1014 91.0743 13.2986 90.9136 13.4411 90.7081C13.5837 90.5026 13.6549 90.2656 13.6549 89.9972C13.6549 89.7254 13.5787 89.4851 13.4262 89.2763C13.2771 89.0642 13.0616 88.8984 12.7799 88.7791C12.5015 88.6598 12.1701 88.6001 11.7856 88.6001H10.836V87.0192H11.7856C12.1104 87.0192 12.3971 86.9628 12.6457 86.8501C12.8976 86.7375 13.0931 86.5817 13.2323 86.3828C13.3715 86.1806 13.4411 85.9453 13.4411 85.6768C13.4411 85.4216 13.3798 85.1979 13.2572 85.0057C13.1379 84.8101 12.9688 84.6577 12.7501 84.5483C12.5347 84.4389 12.2828 84.3842 11.9944 84.3842C11.7027 84.3842 11.4359 84.4373 11.194 84.5433C10.952 84.6461 10.7581 84.7936 10.6123 84.9858C10.4665 85.178 10.3886 85.4034 10.3786 85.6619H8.31543C8.32537 85.0753 8.49275 84.5582 8.81756 84.1108C9.14237 83.6634 9.57987 83.3137 10.1301 83.0618C10.6836 82.8066 11.3083 82.679 12.0044 82.679C12.707 82.679 13.3218 82.8066 13.8488 83.0618C14.3758 83.317 14.7851 83.6617 15.0768 84.0959C15.3718 84.5268 15.5176 85.0107 15.5143 85.5476C15.5176 86.1177 15.3403 86.5933 14.9823 86.9744C14.6277 87.3556 14.1653 87.5975 13.5953 87.7003V87.7798C14.3443 87.8759 14.9144 88.1361 15.3055 88.5604C15.6999 88.9813 15.8954 89.5083 15.8921 90.1413C15.8954 90.7214 15.7281 91.2367 15.39 91.6875C15.0553 92.1383 14.5929 92.4929 14.0029 92.7514C13.413 93.0099 12.7368 93.1392 11.9745 93.1392Z" fill="white"/>
</g>
</g>
<g clip-path="url(#clip8_6976_17926)">
<rect y="43" width="48" height="1" fill="#C54600"/>
<g clip-path="url(#clip9_6976_17926)">
<rect y="31" width="24" height="24" rx="12" fill="#C54600"/>
<path d="M8.4161 48V46.4489L12.0404 43.093C12.3486 42.7947 12.6072 42.5263 12.816 42.2876C13.0281 42.049 13.1888 41.8153 13.2982 41.5866C13.4076 41.3546 13.4623 41.1044 13.4623 40.8359C13.4623 40.5376 13.3943 40.2808 13.2584 40.0653C13.1225 39.8466 12.9369 39.6792 12.7016 39.5632C12.4663 39.4439 12.1995 39.3842 11.9012 39.3842C11.5896 39.3842 11.3179 39.4472 11.0858 39.5732C10.8538 39.6991 10.6749 39.8797 10.5489 40.1151C10.423 40.3504 10.36 40.6304 10.36 40.9553H8.31667C8.31667 40.2891 8.46748 39.7107 8.76909 39.2202C9.0707 38.7296 9.49328 38.3501 10.0368 38.0817C10.5804 37.8132 11.2068 37.679 11.9161 37.679C12.6453 37.679 13.28 37.8082 13.8202 38.0668C14.3638 38.322 14.7864 38.6766 15.088 39.1307C15.3896 39.5848 15.5404 40.1051 15.5404 40.6918C15.5404 41.0762 15.4642 41.4557 15.3117 41.8303C15.1626 42.2048 14.8957 42.6207 14.5113 43.0781C14.1268 43.5322 13.5849 44.0774 12.8856 44.7138L11.3991 46.1705V46.2401H15.6746V48H8.4161Z" fill="white"/>
</g>
</g>
<g clip-path="url(#clip10_6976_17926)">
<rect y="12.5" width="48" height="1" fill="#C54600"/>
<g clip-path="url(#clip11_6976_17926)">
<rect y="0.5" width="24" height="24" rx="12" fill="#C54600"/>
<path d="M13.8302 7.31818V17.5H11.6775V9.36151H11.6178L9.28613 10.8232V8.91406L11.8067 7.31818H13.8302Z" fill="white"/>
</g>
</g>
<defs>
<clipPath id="clip0_6976_17926">
<rect width="54" height="24" fill="white" transform="translate(540 102)"/>
</clipPath>
<clipPath id="clip1_6976_17926">
<rect x="570" y="102" width="24" height="24" rx="12" fill="white"/>
</clipPath>
<clipPath id="clip2_6976_17926">
<rect width="81" height="24" fill="white" transform="translate(169 76)"/>
</clipPath>
<clipPath id="clip3_6976_17926">
<rect x="214" y="76" width="24" height="24" rx="12" fill="white"/>
</clipPath>
<clipPath id="clip4_6976_17926">
<rect width="68" height="24" fill="white" transform="translate(0 145)"/>
</clipPath>
<clipPath id="clip5_6976_17926">
<rect y="145" width="24" height="24" rx="12" fill="white"/>
</clipPath>
<clipPath id="clip6_6976_17926">
<rect width="53" height="24" fill="white" transform="translate(0 76)"/>
</clipPath>
<clipPath id="clip7_6976_17926">
<rect y="76" width="24" height="24" rx="12" fill="white"/>
</clipPath>
<clipPath id="clip8_6976_17926">
<rect width="48" height="24" fill="white" transform="translate(0 31)"/>
</clipPath>
<clipPath id="clip9_6976_17926">
<rect y="31" width="24" height="24" rx="12" fill="white"/>
</clipPath>
<clipPath id="clip10_6976_17926">
<rect width="48" height="24" fill="white" transform="translate(0 0.5)"/>
</clipPath>
<clipPath id="clip11_6976_17926">
<rect y="0.5" width="24" height="24" rx="12" fill="white"/>
</clipPath>
</defs>
</svg>
