<svg width="727" height="199" viewBox="0 0 727 199" fill="none" xmlns="http://www.w3.org/2000/svg">
<path d="M36.1579 91.9998L43 85.1577L41.4211 83.5788L33 91.9998L41.4211 100.421L43 98.842L36.1579 91.9998Z" fill="#284162"/>
<path d="M61.9723 85.72C63.8389 85.72 65.1989 86.1 66.0523 86.86C66.9056 87.6067 67.3323 88.6533 67.3323 90C67.3323 90.6 67.2323 91.1733 67.0323 91.72C66.8456 92.2667 66.5323 92.76 66.0923 93.2C65.6523 93.6267 65.0656 93.9667 64.3323 94.22C63.6123 94.46 62.7256 94.58 61.6723 94.58H60.1323V100H57.9723V85.72H61.9723ZM61.8123 87.54H60.1323V92.76H61.4323C62.2456 92.76 62.9256 92.6733 63.4723 92.5C64.0189 92.3133 64.4256 92.0267 64.6923 91.64C64.9723 91.24 65.1123 90.72 65.1123 90.08C65.1123 89.2267 64.8456 88.5933 64.3123 88.18C63.7923 87.7533 62.9589 87.54 61.8123 87.54ZM75.2984 89.02C75.485 89.02 75.6917 89.0333 75.9184 89.06C76.145 89.0733 76.3317 89.0933 76.4784 89.12L76.2584 91.1C76.1117 91.06 75.9384 91.0267 75.7384 91C75.5384 90.9733 75.3517 90.96 75.1784 90.96C74.7784 90.96 74.3917 91.04 74.0184 91.2C73.6584 91.3467 73.3317 91.5667 73.0384 91.86C72.745 92.14 72.5117 92.4867 72.3384 92.9C72.1784 93.3133 72.0984 93.7867 72.0984 94.32V100H69.9784V89.22H71.6584L71.9384 91.14H72.0184C72.245 90.7533 72.5184 90.4 72.8384 90.08C73.1584 89.76 73.525 89.5067 73.9384 89.32C74.3517 89.12 74.805 89.02 75.2984 89.02ZM82.3238 89.02C83.2705 89.02 84.0838 89.22 84.7638 89.62C85.4438 90.0067 85.9638 90.5667 86.3238 91.3C86.6972 92.0333 86.8838 92.9 86.8838 93.9V95.06H79.6438C79.6705 96.1667 79.9572 97.0133 80.5038 97.6C81.0638 98.1867 81.8438 98.48 82.8438 98.48C83.5372 98.48 84.1505 98.42 84.6838 98.3C85.2305 98.1667 85.7905 97.9733 86.3638 97.72V99.48C85.8305 99.72 85.2838 99.9 84.7238 100.02C84.1772 100.14 83.5238 100.2 82.7638 100.2C81.7238 100.2 80.8038 99.9933 80.0038 99.58C79.2038 99.1667 78.5772 98.5533 78.1238 97.74C77.6838 96.9133 77.4638 95.9 77.4638 94.7C77.4638 93.4867 77.6638 92.46 78.0638 91.62C78.4772 90.78 79.0438 90.14 79.7638 89.7C80.4972 89.2467 81.3505 89.02 82.3238 89.02ZM82.3238 90.66C81.5638 90.66 80.9505 90.9067 80.4838 91.4C80.0305 91.8933 79.7638 92.5933 79.6838 93.5H84.7638C84.7638 92.94 84.6772 92.4467 84.5038 92.02C84.3305 91.5933 84.0638 91.26 83.7038 91.02C83.3438 90.78 82.8838 90.66 82.3238 90.66ZM91.5585 100L87.4785 89.22H89.7185L91.9585 95.52C92.0518 95.7867 92.1452 96.0867 92.2385 96.42C92.3452 96.7533 92.4385 97.0733 92.5185 97.38C92.5985 97.6867 92.6518 97.9533 92.6785 98.18H92.7585C92.7985 97.9533 92.8585 97.6867 92.9385 97.38C93.0318 97.06 93.1318 96.74 93.2385 96.42C93.3452 96.0867 93.4385 95.7867 93.5185 95.52L95.7585 89.22H97.9985L93.8985 100H91.5585ZM101.786 89.22V100H99.6659V89.22H101.786ZM100.746 85.12C101.066 85.12 101.346 85.2133 101.586 85.4C101.826 85.5867 101.946 85.9 101.946 86.34C101.946 86.7667 101.826 87.08 101.586 87.28C101.346 87.4667 101.066 87.56 100.746 87.56C100.399 87.56 100.106 87.4667 99.8659 87.28C99.6392 87.08 99.5259 86.7667 99.5259 86.34C99.5259 85.9 99.6392 85.5867 99.8659 85.4C100.106 85.2133 100.399 85.12 100.746 85.12ZM114.615 94.6C114.615 95.4933 114.495 96.2867 114.255 96.98C114.015 97.6733 113.675 98.26 113.235 98.74C112.795 99.22 112.262 99.5867 111.635 99.84C111.008 100.08 110.302 100.2 109.515 100.2C108.795 100.2 108.128 100.08 107.515 99.84C106.902 99.5867 106.368 99.22 105.915 98.74C105.475 98.26 105.128 97.6733 104.875 96.98C104.622 96.2867 104.495 95.4867 104.495 94.58C104.495 93.3933 104.695 92.3867 105.095 91.56C105.508 90.7333 106.095 90.1067 106.855 89.68C107.628 89.24 108.535 89.02 109.575 89.02C110.562 89.02 111.428 89.24 112.175 89.68C112.935 90.1067 113.528 90.7333 113.955 91.56C114.395 92.3867 114.615 93.4 114.615 94.6ZM106.675 94.6C106.675 95.4 106.775 96.0933 106.975 96.68C107.175 97.2533 107.488 97.6933 107.915 98C108.342 98.3067 108.888 98.46 109.555 98.46C110.222 98.46 110.768 98.3067 111.195 98C111.622 97.6933 111.935 97.2533 112.135 96.68C112.335 96.0933 112.435 95.4 112.435 94.6C112.435 93.7733 112.328 93.08 112.115 92.52C111.915 91.96 111.602 91.5333 111.175 91.24C110.762 90.9333 110.215 90.78 109.535 90.78C108.535 90.78 107.808 91.1133 107.355 91.78C106.902 92.4467 106.675 93.3867 106.675 94.6ZM126.583 89.22V100H124.883L124.583 98.58H124.483C124.256 98.9533 123.963 99.26 123.603 99.5C123.243 99.74 122.849 99.9133 122.423 100.02C121.996 100.14 121.556 100.2 121.103 100.2C120.263 100.2 119.549 100.067 118.963 99.8C118.389 99.52 117.949 99.0933 117.643 98.52C117.349 97.9333 117.203 97.1867 117.203 96.28V89.22H119.343V95.96C119.343 96.8 119.516 97.4267 119.863 97.84C120.223 98.2533 120.776 98.46 121.523 98.46C122.269 98.46 122.856 98.3133 123.283 98.02C123.709 97.7267 124.009 97.3 124.183 96.74C124.369 96.1667 124.463 95.48 124.463 94.68V89.22H126.583ZM137.06 96.96C137.06 97.6667 136.887 98.26 136.54 98.74C136.194 99.22 135.694 99.5867 135.04 99.84C134.387 100.08 133.6 100.2 132.68 100.2C131.92 100.2 131.267 100.14 130.72 100.02C130.187 99.9133 129.694 99.7533 129.24 99.54V97.68C129.72 97.9067 130.274 98.1133 130.9 98.3C131.527 98.4733 132.14 98.56 132.74 98.56C133.54 98.56 134.114 98.4333 134.46 98.18C134.82 97.9267 135 97.5867 135 97.16C135 96.92 134.934 96.7067 134.8 96.52C134.667 96.32 134.414 96.12 134.04 95.92C133.68 95.7067 133.147 95.4667 132.44 95.2C131.76 94.92 131.18 94.6467 130.7 94.38C130.22 94.1 129.854 93.7733 129.6 93.4C129.347 93.0133 129.22 92.52 129.22 91.92C129.22 90.9867 129.594 90.2733 130.34 89.78C131.1 89.2733 132.1 89.02 133.34 89.02C133.994 89.02 134.607 89.0867 135.18 89.22C135.767 89.34 136.334 89.5267 136.88 89.78L136.18 91.4C135.874 91.2533 135.554 91.1333 135.22 91.04C134.9 90.9333 134.574 90.8467 134.24 90.78C133.92 90.7133 133.587 90.68 133.24 90.68C132.6 90.68 132.114 90.78 131.78 90.98C131.447 91.18 131.28 91.46 131.28 91.82C131.28 92.0733 131.354 92.2933 131.5 92.48C131.66 92.6667 131.934 92.8533 132.32 93.04C132.707 93.2267 133.234 93.4533 133.9 93.72C134.567 93.9733 135.134 94.2333 135.6 94.5C136.08 94.7667 136.44 95.0933 136.68 95.48C136.934 95.8667 137.06 96.36 137.06 96.96Z" fill="#284162"/>
<path d="M56.0723 102.5H137.92V103.5H56.0723V102.5Z" fill="#284162"/>
<path d="M190.377 99.75H188.657V89.77C188.657 89.1967 188.664 88.7367 188.677 88.39C188.691 88.0433 188.711 87.6833 188.737 87.31C188.524 87.5233 188.331 87.7033 188.157 87.85C187.984 87.9967 187.764 88.1833 187.497 88.41L185.977 89.65L185.057 88.47L188.917 85.47H190.377V99.75Z" fill="#26374A"/>
<path d="M183.277 102.25H194.717V103.25H183.277V102.25Z" fill="#26374A"/>
<path d="M245.327 97.24C245.327 96.688 245.477 96.304 245.777 96.088C246.077 95.86 246.443 95.746 246.875 95.746C247.295 95.746 247.655 95.86 247.955 96.088C248.255 96.304 248.405 96.688 248.405 97.24C248.405 97.768 248.255 98.152 247.955 98.392C247.655 98.62 247.295 98.734 246.875 98.734C246.443 98.734 246.077 98.62 245.777 98.392C245.477 98.152 245.327 97.768 245.327 97.24ZM250.46 97.24C250.46 96.688 250.61 96.304 250.91 96.088C251.21 95.86 251.576 95.746 252.008 95.746C252.428 95.746 252.788 95.86 253.088 96.088C253.388 96.304 253.538 96.688 253.538 97.24C253.538 97.768 253.388 98.152 253.088 98.392C252.788 98.62 252.428 98.734 252.008 98.734C251.576 98.734 251.21 98.62 250.91 98.392C250.61 98.152 250.46 97.768 250.46 97.24ZM255.592 97.24C255.592 96.688 255.742 96.304 256.042 96.088C256.342 95.86 256.708 95.746 257.14 95.746C257.56 95.746 257.92 95.86 258.22 96.088C258.52 96.304 258.67 96.688 258.67 97.24C258.67 97.768 258.52 98.152 258.22 98.392C257.92 98.62 257.56 98.734 257.14 98.734C256.708 98.734 256.342 98.62 256.042 98.392C255.742 98.152 255.592 97.768 255.592 97.24Z" fill="#26374A"/>
<path d="M314.977 85.27C316.231 85.27 317.257 85.5633 318.057 86.15C318.857 86.7367 319.257 87.5833 319.257 88.69C319.257 89.2633 319.131 89.7633 318.877 90.19C318.637 90.6167 318.311 90.9967 317.897 91.33C317.484 91.65 317.031 91.9367 316.537 92.19C317.124 92.47 317.657 92.79 318.137 93.15C318.617 93.4967 318.997 93.9033 319.277 94.37C319.571 94.8367 319.717 95.3967 319.717 96.05C319.717 97.25 319.291 98.2033 318.437 98.91C317.597 99.6033 316.464 99.95 315.037 99.95C313.504 99.95 312.324 99.6167 311.497 98.95C310.671 98.27 310.257 97.3233 310.257 96.11C310.257 95.4567 310.391 94.89 310.657 94.41C310.937 93.93 311.304 93.5167 311.757 93.17C312.211 92.8233 312.697 92.53 313.217 92.29C312.524 91.89 311.931 91.41 311.437 90.85C310.957 90.2767 310.717 89.55 310.717 88.67C310.717 87.9367 310.904 87.3233 311.277 86.83C311.651 86.3233 312.157 85.9367 312.797 85.67C313.437 85.4033 314.164 85.27 314.977 85.27ZM314.957 86.69C314.224 86.69 313.617 86.87 313.137 87.23C312.671 87.5767 312.437 88.0833 312.437 88.75C312.437 89.2433 312.551 89.6567 312.777 89.99C313.017 90.3233 313.337 90.61 313.737 90.85C314.137 91.0767 314.577 91.2967 315.057 91.51C315.751 91.2167 316.331 90.8633 316.797 90.45C317.277 90.0367 317.517 89.47 317.517 88.75C317.517 88.0833 317.284 87.5767 316.817 87.23C316.351 86.87 315.731 86.69 314.957 86.69ZM311.977 96.13C311.977 96.8233 312.224 97.4033 312.717 97.87C313.211 98.3233 313.971 98.55 314.997 98.55C315.971 98.55 316.711 98.3233 317.217 97.87C317.737 97.4033 317.997 96.8033 317.997 96.07C317.997 95.3767 317.724 94.8033 317.177 94.35C316.631 93.8833 315.904 93.4767 314.997 93.13L314.677 93.01C313.797 93.3833 313.124 93.8167 312.657 94.31C312.204 94.79 311.977 95.3967 311.977 96.13Z" fill="#26374A"/>
<path d="M309.277 102.25H320.717V103.25H309.277V102.25Z" fill="#26374A"/>
<rect x="354" y="68" width="48" height="48" rx="4" fill="#26374A"/>
<path d="M382.677 91.57C382.677 92.5967 382.584 93.61 382.397 94.61C382.224 95.5967 381.897 96.4967 381.417 97.31C380.951 98.11 380.284 98.75 379.417 99.23C378.564 99.71 377.464 99.95 376.117 99.95C375.851 99.95 375.537 99.93 375.177 99.89C374.831 99.8633 374.544 99.8167 374.317 99.75V98.25C374.837 98.4233 375.424 98.51 376.077 98.51C377.011 98.51 377.777 98.3567 378.377 98.05C378.991 97.7433 379.477 97.33 379.837 96.81C380.197 96.2767 380.457 95.6633 380.617 94.97C380.777 94.2633 380.871 93.5233 380.897 92.75H380.777C380.484 93.2033 380.057 93.5967 379.497 93.93C378.951 94.25 378.244 94.41 377.377 94.41C376.151 94.41 375.157 94.0367 374.397 93.29C373.651 92.53 373.277 91.4633 373.277 90.09C373.277 89.09 373.464 88.23 373.837 87.51C374.224 86.79 374.757 86.2367 375.437 85.85C376.117 85.4633 376.917 85.27 377.837 85.27C378.744 85.27 379.564 85.5033 380.297 85.97C381.031 86.4233 381.611 87.1167 382.037 88.05C382.464 88.97 382.677 90.1433 382.677 91.57ZM377.837 86.75C377.011 86.75 376.331 87.0233 375.797 87.57C375.277 88.1167 375.017 88.95 375.017 90.07C375.017 90.99 375.237 91.7167 375.677 92.25C376.131 92.77 376.824 93.03 377.757 93.03C378.397 93.03 378.951 92.9033 379.417 92.65C379.884 92.3833 380.244 92.05 380.497 91.65C380.764 91.25 380.897 90.8367 380.897 90.41C380.897 89.8367 380.784 89.27 380.557 88.71C380.331 88.15 379.991 87.6833 379.537 87.31C379.084 86.9367 378.517 86.75 377.837 86.75Z" fill="white"/>
<path d="M436.655 99.75H434.935V89.77C434.935 89.1967 434.941 88.7367 434.955 88.39C434.968 88.0433 434.988 87.6833 435.015 87.31C434.801 87.5233 434.608 87.7033 434.435 87.85C434.261 87.9967 434.041 88.1833 433.775 88.41L432.255 89.65L431.335 88.47L435.195 85.47H436.655V99.75ZM451.46 92.59C451.46 94.1233 451.3 95.4433 450.98 96.55C450.66 97.6433 450.153 98.4833 449.46 99.07C448.767 99.6567 447.847 99.95 446.7 99.95C445.087 99.95 443.893 99.3033 443.12 98.01C442.36 96.7033 441.98 94.8967 441.98 92.59C441.98 91.0433 442.133 89.7233 442.44 88.63C442.76 87.5367 443.267 86.7033 443.96 86.13C444.653 85.5433 445.567 85.25 446.7 85.25C448.3 85.25 449.493 85.8967 450.28 87.19C451.067 88.47 451.46 90.27 451.46 92.59ZM443.74 92.59C443.74 94.55 443.96 96.0167 444.4 96.99C444.853 97.9633 445.62 98.45 446.7 98.45C447.767 98.45 448.527 97.97 448.98 97.01C449.447 96.0367 449.68 94.5633 449.68 92.59C449.68 90.6433 449.447 89.1833 448.98 88.21C448.527 87.2367 447.767 86.75 446.7 86.75C445.62 86.75 444.853 87.2367 444.4 88.21C443.96 89.1833 443.74 90.6433 443.74 92.59Z" fill="#26374A"/>
<path d="M429.555 102.25H452.44V103.25H429.555V102.25Z" fill="#26374A"/>
<path d="M497.327 97.24C497.327 96.688 497.477 96.304 497.777 96.088C498.077 95.86 498.443 95.746 498.875 95.746C499.295 95.746 499.655 95.86 499.955 96.088C500.255 96.304 500.405 96.688 500.405 97.24C500.405 97.768 500.255 98.152 499.955 98.392C499.655 98.62 499.295 98.734 498.875 98.734C498.443 98.734 498.077 98.62 497.777 98.392C497.477 98.152 497.327 97.768 497.327 97.24ZM502.46 97.24C502.46 96.688 502.61 96.304 502.91 96.088C503.21 95.86 503.576 95.746 504.008 95.746C504.428 95.746 504.788 95.86 505.088 96.088C505.388 96.304 505.538 96.688 505.538 97.24C505.538 97.768 505.388 98.152 505.088 98.392C504.788 98.62 504.428 98.734 504.008 98.734C503.576 98.734 503.21 98.62 502.91 98.392C502.61 98.152 502.46 97.768 502.46 97.24ZM507.592 97.24C507.592 96.688 507.742 96.304 508.042 96.088C508.342 95.86 508.708 95.746 509.14 95.746C509.56 95.746 509.92 95.86 510.22 96.088C510.52 96.304 510.67 96.688 510.67 97.24C510.67 97.768 510.52 98.152 510.22 98.392C509.92 98.62 509.56 98.734 509.14 98.734C508.708 98.734 508.342 98.62 508.042 98.392C507.742 98.152 507.592 97.768 507.592 97.24Z" fill="#26374A"/>
<path d="M562.655 99.75H560.935V89.77C560.935 89.1967 560.941 88.7367 560.955 88.39C560.968 88.0433 560.988 87.6833 561.015 87.31C560.801 87.5233 560.608 87.7033 560.435 87.85C560.261 87.9967 560.041 88.1833 559.775 88.41L558.255 89.65L557.335 88.47L561.195 85.47H562.655V99.75ZM572.5 90.99C573.967 90.99 575.133 91.3567 576 92.09C576.867 92.8233 577.3 93.8567 577.3 95.19C577.3 96.67 576.827 97.8367 575.88 98.69C574.947 99.53 573.64 99.95 571.96 99.95C571.227 99.95 570.533 99.8833 569.88 99.75C569.24 99.6167 568.7 99.4233 568.26 99.17V97.51C568.74 97.8033 569.32 98.0367 570 98.21C570.693 98.37 571.353 98.45 571.98 98.45C573.033 98.45 573.88 98.2033 574.52 97.71C575.173 97.2033 575.5 96.4233 575.5 95.37C575.5 94.4367 575.213 93.7233 574.64 93.23C574.067 92.7233 573.16 92.47 571.92 92.47C571.547 92.47 571.12 92.5033 570.64 92.57C570.16 92.6367 569.773 92.7033 569.48 92.77L568.6 92.21L569.14 85.47H576.3V87.07H570.64L570.3 91.21C570.527 91.17 570.833 91.1233 571.22 91.07C571.607 91.0167 572.033 90.99 572.5 90.99Z" fill="#26374A"/>
<path d="M555.555 102.25H578.44V103.25H555.555V102.25Z" fill="#26374A"/>
<path d="M632.071 100H629.451L622.231 88.46H622.151C622.165 88.7267 622.178 89.0133 622.191 89.32C622.218 89.6267 622.238 89.9533 622.251 90.3C622.265 90.6333 622.278 90.98 622.291 91.34C622.305 91.6867 622.311 92.04 622.311 92.4V100H620.351V85.72H622.951L630.151 97.2H630.211C630.198 97 630.185 96.7533 630.171 96.46C630.158 96.1533 630.145 95.8267 630.131 95.48C630.131 95.1333 630.125 94.78 630.111 94.42C630.098 94.06 630.085 93.72 630.071 93.4V85.72H632.071V100ZM639.879 89.02C640.825 89.02 641.639 89.22 642.319 89.62C642.999 90.0067 643.519 90.5667 643.879 91.3C644.252 92.0333 644.439 92.9 644.439 93.9V95.06H637.199C637.225 96.1667 637.512 97.0133 638.059 97.6C638.619 98.1867 639.399 98.48 640.399 98.48C641.092 98.48 641.705 98.42 642.239 98.3C642.785 98.1667 643.345 97.9733 643.919 97.72V99.48C643.385 99.72 642.839 99.9 642.279 100.02C641.732 100.14 641.079 100.2 640.319 100.2C639.279 100.2 638.359 99.9933 637.559 99.58C636.759 99.1667 636.132 98.5533 635.679 97.74C635.239 96.9133 635.019 95.9 635.019 94.7C635.019 93.4867 635.219 92.46 635.619 91.62C636.032 90.78 636.599 90.14 637.319 89.7C638.052 89.2467 638.905 89.02 639.879 89.02ZM639.879 90.66C639.119 90.66 638.505 90.9067 638.039 91.4C637.585 91.8933 637.319 92.5933 637.239 93.5H642.319C642.319 92.94 642.232 92.4467 642.059 92.02C641.885 91.5933 641.619 91.26 641.259 91.02C640.899 90.78 640.439 90.66 639.879 90.66ZM649.153 94.5L645.493 89.22H647.913L650.473 93.1L653.033 89.22H655.433L651.773 94.5L655.613 100H653.213L650.473 95.88L647.713 100H645.313L649.153 94.5ZM661.433 98.48C661.713 98.48 661.999 98.4533 662.293 98.4C662.586 98.3467 662.839 98.2867 663.053 98.22V99.82C662.826 99.9267 662.519 100.013 662.133 100.08C661.746 100.16 661.359 100.2 660.973 100.2C660.386 100.2 659.846 100.1 659.353 99.9C658.873 99.7 658.486 99.3533 658.193 98.86C657.899 98.3667 657.753 97.68 657.753 96.8V90.84H656.253V89.88L657.833 89.08L658.573 86.8H659.873V89.22H662.953V90.84H659.873V96.76C659.873 97.3467 660.013 97.78 660.293 98.06C660.586 98.34 660.966 98.48 661.433 98.48Z" fill="#284162"/>
<path d="M618.451 102.5H663.553V103.5H618.451V102.5Z" fill="#284162"/>
<path d="M683.842 92.0002L677 98.8423L678.579 100.421L687 92.0002L678.579 83.5791L677 85.158L683.842 92.0002Z" fill="#284162"/>
<g clip-path="url(#clip0_71223_1157)">
<rect x="503.7" y="20" width="1" height="65" fill="#C54600"/>
<g clip-path="url(#clip1_71223_1157)">
<rect x="491.7" y="20" width="24" height="24" rx="12" fill="#C54600"/>
<path d="M503.812 37.1392C503.289 37.1359 502.783 37.0481 502.296 36.8757C501.812 36.7034 501.378 36.4233 500.993 36.0355C500.609 35.6477 500.304 35.134 500.079 34.4943C499.857 33.8546 499.746 33.0691 499.746 32.1378C499.749 31.2827 499.847 30.5187 500.039 29.8459C500.234 29.1697 500.513 28.5964 500.874 28.1257C501.239 27.6551 501.675 27.2971 502.182 27.0518C502.689 26.8033 503.257 26.679 503.887 26.679C504.566 26.679 505.166 26.8116 505.687 27.0767C506.207 27.3385 506.625 27.6948 506.939 28.1456C507.258 28.5964 507.45 29.1018 507.516 29.6619H505.393C505.31 29.3073 505.136 29.0289 504.871 28.8267C504.606 28.6245 504.278 28.5234 503.887 28.5234C503.224 28.5234 502.72 28.8118 502.376 29.3885C502.034 29.9652 501.86 30.7491 501.853 31.7401H501.923C502.076 31.4384 502.281 31.1816 502.54 30.9695C502.801 30.754 503.098 30.59 503.429 30.4773C503.764 30.3613 504.117 30.3033 504.488 30.3033C505.092 30.3033 505.629 30.4458 506.099 30.7308C506.57 31.0125 506.941 31.4003 507.213 31.8942C507.485 32.388 507.621 32.9531 507.621 33.5895C507.621 34.2789 507.46 34.892 507.138 35.429C506.82 35.9659 506.374 36.3868 505.801 36.6918C505.231 36.9934 504.568 37.1425 503.812 37.1392ZM503.802 35.4489C504.134 35.4489 504.43 35.3693 504.692 35.2102C504.954 35.0511 505.16 34.8357 505.309 34.5639C505.458 34.2921 505.532 33.9872 505.532 33.6491C505.532 33.3111 505.458 33.0078 505.309 32.7393C505.163 32.4709 504.961 32.2571 504.702 32.098C504.444 31.9389 504.149 31.8594 503.817 31.8594C503.569 31.8594 503.338 31.9058 503.126 31.9986C502.917 32.0914 502.733 32.2206 502.574 32.3864C502.419 32.5521 502.296 32.7443 502.206 32.9631C502.117 33.1785 502.072 33.4089 502.072 33.6541C502.072 33.9822 502.147 34.2822 502.296 34.554C502.448 34.8258 502.654 35.0429 502.912 35.2053C503.174 35.3677 503.471 35.4489 503.802 35.4489Z" fill="white"/>
</g>
</g>
<g clip-path="url(#clip2_71223_1157)">
<rect x="376.7" y="20" width="1" height="48" fill="#C54600"/>
<g clip-path="url(#clip3_71223_1157)">
<rect x="364.7" y="20" width="24" height="24" rx="12" fill="#C54600"/>
<path d="M376.732 37.1392C376.03 37.1392 375.403 37.0099 374.853 36.7514C374.306 36.4929 373.872 36.1366 373.55 35.6825C373.229 35.2285 373.062 34.7081 373.048 34.1214H375.136C375.16 34.5159 375.325 34.8357 375.634 35.081C375.942 35.3262 376.308 35.4489 376.732 35.4489C377.07 35.4489 377.369 35.3743 377.627 35.2251C377.889 35.0727 378.093 34.8622 378.239 34.5938C378.388 34.322 378.462 34.0104 378.462 33.6591C378.462 33.3011 378.386 32.9863 378.234 32.7145C378.085 32.4427 377.877 32.2306 377.612 32.0781C377.347 31.9257 377.044 31.8478 376.702 31.8445C376.404 31.8445 376.114 31.9058 375.832 32.0284C375.554 32.151 375.337 32.3184 375.181 32.5305L373.267 32.1875L373.749 26.8182H379.974V28.5781H375.524L375.261 31.1286H375.32C375.499 30.8767 375.769 30.6679 376.131 30.5021C376.492 30.3364 376.896 30.2536 377.344 30.2536C377.957 30.2536 378.504 30.3977 378.984 30.6861C379.465 30.9744 379.844 31.3705 380.123 31.8743C380.401 32.3748 380.539 32.9515 380.536 33.6044C380.539 34.2905 380.38 34.9003 380.058 35.4339C379.74 35.9643 379.294 36.3819 378.721 36.6868C378.151 36.9884 377.488 37.1392 376.732 37.1392Z" fill="white"/>
</g>
</g>
<g clip-path="url(#clip4_71223_1157)">
<rect x="188.7" y="20" width="1" height="60" fill="#C54600"/>
<g clip-path="url(#clip5_71223_1157)">
<rect x="176.7" y="20" width="24" height="24" rx="12" fill="#C54600"/>
<path d="M184.627 35.2102V33.5149L188.878 26.8182H190.339V29.1648H189.474L186.794 33.4055V33.4851H192.835V35.2102H184.627ZM189.514 37V34.6932L189.554 33.9425V26.8182H191.572V37H189.514Z" fill="white"/>
</g>
</g>
<g clip-path="url(#clip6_71223_1157)">
<rect x="139.3" y="133" width="6" height="1" transform="rotate(-90 139.3 133)" fill="#C54600"/>
<rect x="29.3" y="133" width="1" height="260" transform="rotate(-90 29.3 133)" fill="#C54600"/>
<rect x="85.3" y="177" width="45" height="1" transform="rotate(-90 85.3 177)" fill="#C54600"/>
<rect x="29.3" y="132" width="6" height="1" transform="rotate(-90 29.3 132)" fill="#C54600"/>
<g clip-path="url(#clip7_71223_1157)">
<rect x="73.3" y="179" width="24" height="24" rx="12" transform="rotate(-90 73.3 179)" fill="#C54600"/>
<path d="M87.1302 161.818V172H84.9775V163.862H84.9178L82.5861 165.323V163.414L85.1067 161.818H87.1302Z" fill="white"/>
</g>
</g>
<g clip-path="url(#clip8_71223_1157)">
<rect x="701.3" y="130" width="6" height="1" transform="rotate(-90 701.3 130)" fill="#C54600"/>
<rect x="618.3" y="131" width="1" height="260" transform="rotate(-90 618.3 131)" fill="#C54600"/>
<rect x="660.3" y="175" width="45" height="1" transform="rotate(-90 660.3 175)" fill="#C54600"/>
<rect x="618.3" y="130" width="6" height="1" transform="rotate(-90 618.3 130)" fill="#C54600"/>
<g clip-path="url(#clip9_71223_1157)">
<rect x="648.3" y="177" width="24" height="24" rx="12" transform="rotate(-90 648.3 177)" fill="#C54600"/>
<path d="M660.188 159.679C660.712 159.679 661.216 159.767 661.699 159.942C662.187 160.118 662.621 160.398 663.002 160.783C663.387 161.167 663.69 161.678 663.912 162.314C664.137 162.947 664.252 163.724 664.255 164.646C664.255 165.511 664.157 166.283 663.962 166.962C663.769 167.638 663.493 168.214 663.131 168.688C662.77 169.161 662.334 169.523 661.824 169.771C661.313 170.017 660.743 170.139 660.114 170.139C659.434 170.139 658.834 170.008 658.314 169.746C657.793 169.481 657.374 169.122 657.056 168.668C656.741 168.21 656.551 167.696 656.484 167.126H658.607C658.69 167.498 658.864 167.786 659.129 167.991C659.394 168.194 659.722 168.295 660.114 168.295C660.776 168.295 661.28 168.006 661.625 167.43C661.97 166.85 662.144 166.056 662.147 165.048H662.077C661.925 165.347 661.719 165.603 661.461 165.819C661.202 166.031 660.906 166.195 660.571 166.311C660.24 166.427 659.887 166.485 659.512 166.485C658.912 166.485 658.377 166.344 657.906 166.062C657.436 165.781 657.064 165.393 656.793 164.899C656.521 164.405 656.385 163.842 656.385 163.209C656.382 162.526 656.539 161.918 656.857 161.384C657.175 160.851 657.619 160.433 658.19 160.131C658.763 159.826 659.429 159.676 660.188 159.679ZM660.203 161.369C659.868 161.369 659.57 161.449 659.308 161.608C659.05 161.767 658.844 161.981 658.692 162.249C658.543 162.518 658.47 162.818 658.473 163.149C658.473 163.484 658.546 163.786 658.692 164.054C658.841 164.319 659.043 164.531 659.298 164.69C659.557 164.846 659.852 164.924 660.183 164.924C660.432 164.924 660.662 164.878 660.874 164.785C661.086 164.692 661.27 164.564 661.426 164.402C661.585 164.236 661.709 164.046 661.799 163.83C661.888 163.615 661.933 163.386 661.933 163.144C661.93 162.823 661.854 162.528 661.704 162.259C661.555 161.991 661.35 161.775 661.088 161.613C660.826 161.451 660.531 161.369 660.203 161.369Z" fill="white"/>
</g>
</g>
<g clip-path="url(#clip10_71223_1157)">
<rect x="641.3" y="20" width="1" height="60" fill="#C54600"/>
<g clip-path="url(#clip11_71223_1157)">
<rect x="629.3" y="20" width="24" height="24" rx="12" fill="#C54600"/>
<path d="M638.365 37L642.586 28.6477V28.5781H637.669V26.8182H644.813V28.603L640.587 37H638.365Z" fill="white"/>
</g>
</g>
<g clip-path="url(#clip12_71223_1157)">
<rect x="682.3" y="20" width="1" height="60" fill="#C54600"/>
<g clip-path="url(#clip13_71223_1157)">
<rect x="670.3" y="20" width="24" height="24" rx="12" fill="#C54600"/>
<path d="M682.296 37.1392C681.53 37.1392 680.849 37.0149 680.252 36.7663C679.659 36.5144 679.193 36.1714 678.855 35.7372C678.517 35.303 678.348 34.8108 678.348 34.2607C678.348 33.8364 678.444 33.447 678.637 33.0923C678.832 32.7344 679.097 32.4377 679.432 32.2024C679.767 31.9638 680.141 31.8113 680.556 31.745V31.6754C680.012 31.5661 679.571 31.3026 679.233 30.8849C678.895 30.464 678.726 29.9751 678.726 29.4183C678.726 28.8913 678.88 28.4223 679.188 28.0114C679.497 27.5971 679.919 27.2723 680.456 27.0369C680.996 26.7983 681.61 26.679 682.296 26.679C682.982 26.679 683.593 26.7983 684.13 27.0369C684.67 27.2756 685.095 27.602 685.403 28.0163C685.711 28.4273 685.867 28.8946 685.87 29.4183C685.867 29.9785 685.695 30.4673 685.353 30.8849C685.012 31.3026 684.574 31.5661 684.041 31.6754V31.745C684.448 31.8113 684.818 31.9638 685.149 32.2024C685.484 32.4377 685.749 32.7344 685.945 33.0923C686.144 33.447 686.245 33.8364 686.248 34.2607C686.245 34.8108 686.074 35.303 685.736 35.7372C685.398 36.1714 684.931 36.5144 684.334 36.7663C683.741 37.0149 683.061 37.1392 682.296 37.1392ZM682.296 35.5582C682.637 35.5582 682.935 35.4969 683.191 35.3743C683.446 35.2483 683.645 35.076 683.787 34.8572C683.933 34.6352 684.006 34.38 684.006 34.0916C684.006 33.7966 683.931 33.5365 683.782 33.3111C683.633 33.0824 683.431 32.9034 683.176 32.7741C682.92 32.6416 682.627 32.5753 682.296 32.5753C681.968 32.5753 681.674 32.6416 681.416 32.7741C681.157 32.9034 680.953 33.0824 680.804 33.3111C680.658 33.5365 680.585 33.7966 680.585 34.0916C680.585 34.38 680.657 34.6352 680.799 34.8572C680.942 35.076 681.142 35.2483 681.401 35.3743C681.659 35.4969 681.958 35.5582 682.296 35.5582ZM682.296 31.0092C682.581 31.0092 682.834 30.9512 683.056 30.8352C683.278 30.7192 683.452 30.5585 683.578 30.353C683.704 30.1475 683.767 29.9105 683.767 29.642C683.767 29.3769 683.704 29.1449 683.578 28.946C683.452 28.7438 683.28 28.5864 683.061 28.4737C682.843 28.3577 682.587 28.2997 682.296 28.2997C682.007 28.2997 681.752 28.3577 681.53 28.4737C681.308 28.5864 681.134 28.7438 681.008 28.946C680.885 29.1449 680.824 29.3769 680.824 29.642C680.824 29.9105 680.887 30.1475 681.013 30.353C681.139 30.5585 681.313 30.7192 681.535 30.8352C681.757 30.9512 682.011 31.0092 682.296 31.0092Z" fill="white"/>
</g>
</g>
<g clip-path="url(#clip14_71223_1157)">
<rect x="97.3" y="20" width="1" height="60" fill="#C54600"/>
<g clip-path="url(#clip15_71223_1157)">
<rect x="85.3" y="20" width="24" height="24" rx="12" fill="#C54600"/>
<path d="M97.2745 37.1392C96.5321 37.1392 95.8709 37.0116 95.2908 36.7564C94.7141 36.4979 94.2584 36.1432 93.9237 35.6925C93.5922 35.2384 93.4215 34.7147 93.4116 34.1214H95.5792C95.5925 34.37 95.6737 34.5888 95.8228 34.7777C95.9753 34.9633 96.1774 35.1075 96.4293 35.2102C96.6812 35.313 96.9646 35.3643 97.2795 35.3643C97.6076 35.3643 97.8976 35.3063 98.1495 35.1903C98.4014 35.0743 98.5986 34.9136 98.7411 34.7081C98.8836 34.5026 98.9549 34.2656 98.9549 33.9972C98.9549 33.7254 98.8787 33.4851 98.7262 33.2763C98.5771 33.0642 98.3616 32.8984 98.0799 32.7791C97.8015 32.6598 97.4701 32.6001 97.0856 32.6001H96.136V31.0192H97.0856C97.4104 31.0192 97.6971 30.9628 97.9457 30.8501C98.1976 30.7375 98.3931 30.5817 98.5323 30.3828C98.6715 30.1806 98.7411 29.9453 98.7411 29.6768C98.7411 29.4216 98.6798 29.1979 98.5572 29.0057C98.4379 28.8101 98.2688 28.6577 98.0501 28.5483C97.8346 28.4389 97.5827 28.3842 97.2944 28.3842C97.0027 28.3842 96.7359 28.4373 96.494 28.5433C96.252 28.6461 96.0581 28.7936 95.9123 28.9858C95.7665 29.178 95.6886 29.4034 95.6786 29.6619H93.6154C93.6254 29.0753 93.7927 28.5582 94.1175 28.1108C94.4424 27.6634 94.8799 27.3137 95.43 27.0618C95.9836 26.8066 96.6083 26.679 97.3043 26.679C98.007 26.679 98.6218 26.8066 99.1488 27.0618C99.6758 27.317 100.085 27.6617 100.377 28.0959C100.672 28.5268 100.818 29.0107 100.814 29.5476C100.818 30.1177 100.64 30.5933 100.282 30.9744C99.9277 31.3556 99.4653 31.5975 98.8952 31.7003V31.7798C99.6443 31.8759 100.214 32.1361 100.605 32.5604C101 32.9813 101.195 33.5083 101.192 34.1413C101.195 34.7214 101.028 35.2367 100.69 35.6875C100.355 36.1383 99.8929 36.4929 99.3029 36.7514C98.713 37.0099 98.0368 37.1392 97.2745 37.1392Z" fill="white"/>
</g>
</g>
<g clip-path="url(#clip16_71223_1157)">
<rect x="38.3" y="20" width="1" height="60" fill="#C54600"/>
<g clip-path="url(#clip17_71223_1157)">
<rect x="26.3" y="20" width="24" height="24" rx="12" fill="#C54600"/>
<path d="M34.7161 37V35.4489L38.3404 32.093C38.6486 31.7947 38.9071 31.5263 39.116 31.2876C39.3281 31.049 39.4888 30.8153 39.5982 30.5866C39.7076 30.3546 39.7623 30.1044 39.7623 29.8359C39.7623 29.5376 39.6943 29.2808 39.5584 29.0653C39.4225 28.8466 39.2369 28.6792 39.0016 28.5632C38.7663 28.4439 38.4995 28.3842 38.2012 28.3842C37.8896 28.3842 37.6178 28.4472 37.3858 28.5732C37.1538 28.6991 36.9749 28.8797 36.8489 29.1151C36.723 29.3504 36.66 29.6304 36.66 29.9553H34.6167C34.6167 29.2891 34.7675 28.7107 35.0691 28.2202C35.3707 27.7296 35.7933 27.3501 36.3368 27.0817C36.8804 26.8132 37.5068 26.679 38.2161 26.679C38.9453 26.679 39.58 26.8082 40.1202 27.0668C40.6638 27.322 41.0864 27.6766 41.388 28.1307C41.6896 28.5848 41.8404 29.1051 41.8404 29.6918C41.8404 30.0762 41.7642 30.4557 41.6117 30.8303C41.4625 31.2048 41.1957 31.6207 40.8113 32.0781C40.4268 32.5322 39.8849 33.0774 39.1856 33.7138L37.699 35.1705V35.2401H41.9746V37H34.7161Z" fill="white"/>
</g>
</g>
<defs>
<clipPath id="clip0_71223_1157">
<rect width="24" height="65" fill="white" transform="translate(491.7 20)"/>
</clipPath>
<clipPath id="clip1_71223_1157">
<rect x="491.7" y="20" width="24" height="24" rx="12" fill="white"/>
</clipPath>
<clipPath id="clip2_71223_1157">
<rect width="24" height="48" fill="white" transform="translate(364.7 20)"/>
</clipPath>
<clipPath id="clip3_71223_1157">
<rect x="364.7" y="20" width="24" height="24" rx="12" fill="white"/>
</clipPath>
<clipPath id="clip4_71223_1157">
<rect width="24" height="60" fill="white" transform="translate(176.7 20)"/>
</clipPath>
<clipPath id="clip5_71223_1157">
<rect x="176.7" y="20" width="24" height="24" rx="12" fill="white"/>
</clipPath>
<clipPath id="clip6_71223_1157">
<rect width="53" height="111" fill="white" transform="matrix(0 -1 1 0 29.3 179)"/>
</clipPath>
<clipPath id="clip7_71223_1157">
<rect x="73.3" y="179" width="24" height="24" rx="12" transform="rotate(-90 73.3 179)" fill="white"/>
</clipPath>
<clipPath id="clip8_71223_1157">
<rect width="53" height="84" fill="white" transform="matrix(0 -1 1 0 618.3 177)"/>
</clipPath>
<clipPath id="clip9_71223_1157">
<rect x="648.3" y="177" width="24" height="24" rx="12" transform="rotate(-90 648.3 177)" fill="white"/>
</clipPath>
<clipPath id="clip10_71223_1157">
<rect width="24" height="60" fill="white" transform="translate(629.3 20)"/>
</clipPath>
<clipPath id="clip11_71223_1157">
<rect x="629.3" y="20" width="24" height="24" rx="12" fill="white"/>
</clipPath>
<clipPath id="clip12_71223_1157">
<rect width="24" height="60" fill="white" transform="translate(670.3 20)"/>
</clipPath>
<clipPath id="clip13_71223_1157">
<rect x="670.3" y="20" width="24" height="24" rx="12" fill="white"/>
</clipPath>
<clipPath id="clip14_71223_1157">
<rect width="24" height="60" fill="white" transform="translate(85.3 20)"/>
</clipPath>
<clipPath id="clip15_71223_1157">
<rect x="85.3" y="20" width="24" height="24" rx="12" fill="white"/>
</clipPath>
<clipPath id="clip16_71223_1157">
<rect width="24" height="60" fill="white" transform="translate(26.3 20)"/>
</clipPath>
<clipPath id="clip17_71223_1157">
<rect x="26.3" y="20" width="24" height="24" rx="12" fill="white"/>
</clipPath>
</defs>
</svg>
