<svg width="647" height="158" viewBox="0 0 647 158" fill="none" xmlns="http://www.w3.org/2000/svg">
<g clip-path="url(#clip0_60347_6121)">
<path d="M69.8 42V27.72H72.82V39.5H78.62V42H69.8ZM85.3486 30.86C86.8153 30.86 87.9353 31.18 88.7086 31.82C89.4953 32.4467 89.8886 33.4133 89.8886 34.72V42H87.8086L87.2286 40.52H87.1486C86.6819 41.1067 86.1886 41.5333 85.6686 41.8C85.1486 42.0667 84.4353 42.2 83.5286 42.2C82.5553 42.2 81.7486 41.92 81.1086 41.36C80.4686 40.7867 80.1486 39.9133 80.1486 38.74C80.1486 37.58 80.5553 36.7267 81.3686 36.18C82.1819 35.62 83.4019 35.3133 85.0286 35.26L86.9286 35.2V34.72C86.9286 34.1467 86.7753 33.7267 86.4686 33.46C86.1753 33.1933 85.7619 33.06 85.2286 33.06C84.6953 33.06 84.1753 33.14 83.6686 33.3C83.1619 33.4467 82.6553 33.6333 82.1486 33.86L81.1686 31.84C81.7553 31.5333 82.4019 31.2933 83.1086 31.12C83.8286 30.9467 84.5753 30.86 85.3486 30.86ZM85.7686 36.98C84.8086 37.0067 84.1419 37.18 83.7686 37.5C83.3953 37.82 83.2086 38.24 83.2086 38.76C83.2086 39.2133 83.3419 39.54 83.6086 39.74C83.8753 39.9267 84.2219 40.02 84.6486 40.02C85.2886 40.02 85.8286 39.8333 86.2686 39.46C86.7086 39.0733 86.9286 38.5333 86.9286 37.84V36.94L85.7686 36.98ZM95.9189 30.34C95.9189 30.7533 95.9056 31.16 95.8789 31.56C95.8522 31.96 95.8256 32.2733 95.7989 32.5H95.9189C96.2122 32.0467 96.6056 31.6667 97.0989 31.36C97.5922 31.04 98.2322 30.88 99.0189 30.88C100.246 30.88 101.239 31.36 101.999 32.32C102.759 33.2667 103.139 34.6667 103.139 36.52C103.139 38.3867 102.752 39.8 101.979 40.76C101.206 41.72 100.192 42.2 98.9389 42.2C98.1389 42.2 97.5056 42.06 97.0389 41.78C96.5856 41.4867 96.2122 41.16 95.9189 40.8H95.7189L95.2189 42H92.9389V26.8H95.9189V30.34ZM98.0589 33.26C97.2856 33.26 96.7389 33.5 96.4189 33.98C96.1122 34.46 95.9456 35.1933 95.9189 36.18V36.5C95.9189 37.5533 96.0722 38.3667 96.3789 38.94C96.6989 39.5 97.2722 39.78 98.0989 39.78C98.7122 39.78 99.1989 39.5 99.5589 38.94C99.9189 38.3667 100.099 37.5467 100.099 36.48C100.099 35.4133 99.9122 34.6133 99.5389 34.08C99.1789 33.5333 98.6856 33.26 98.0589 33.26ZM110.095 30.88C111.602 30.88 112.795 31.3133 113.675 32.18C114.555 33.0333 114.995 34.2533 114.995 35.84V37.28H107.955C107.982 38.12 108.228 38.78 108.695 39.26C109.175 39.74 109.835 39.98 110.675 39.98C111.382 39.98 112.022 39.9133 112.595 39.78C113.168 39.6333 113.762 39.4133 114.375 39.12V41.42C113.842 41.6867 113.275 41.88 112.675 42C112.088 42.1333 111.375 42.2 110.535 42.2C109.442 42.2 108.475 42 107.635 41.6C106.795 41.1867 106.135 40.5667 105.655 39.74C105.175 38.9133 104.935 37.8733 104.935 36.62C104.935 35.34 105.148 34.28 105.575 33.44C106.015 32.5867 106.622 31.9467 107.395 31.52C108.168 31.0933 109.068 30.88 110.095 30.88ZM110.115 33C109.542 33 109.062 33.1867 108.675 33.56C108.302 33.9333 108.082 34.5133 108.015 35.3H112.195C112.182 34.6333 112.008 34.0867 111.675 33.66C111.342 33.22 110.822 33 110.115 33ZM120.392 42H117.412V26.8H120.392V42Z" fill="#333333"/>
<path d="M130.8 36.52C130.8 34.8933 131.033 33.3267 131.5 31.82C131.98 30.3 132.727 28.9333 133.74 27.72H135.4C134.467 28.9733 133.76 30.3533 133.28 31.86C132.813 33.3667 132.58 34.9133 132.58 36.5C132.58 38.0467 132.813 39.5667 133.28 41.06C133.76 42.54 134.46 43.9067 135.38 45.16H133.74C132.727 43.9867 131.98 42.66 131.5 41.18C131.033 39.6867 130.8 38.1333 130.8 36.52ZM142.696 31.08C142.896 31.08 143.109 31.0933 143.336 31.12C143.576 31.1333 143.783 31.16 143.956 31.2L143.736 32.82C143.563 32.78 143.369 32.7467 143.156 32.72C142.956 32.6933 142.763 32.68 142.576 32.68C142.029 32.68 141.516 32.8333 141.036 33.14C140.556 33.4333 140.169 33.8533 139.876 34.4C139.596 34.9333 139.456 35.56 139.456 36.28V42H137.696V31.28H139.136L139.336 33.24H139.416C139.763 32.6533 140.209 32.1467 140.756 31.72C141.303 31.2933 141.949 31.08 142.696 31.08ZM149.707 31.08C150.627 31.08 151.414 31.28 152.067 31.68C152.734 32.08 153.241 32.6467 153.587 33.38C153.947 34.1 154.127 34.9467 154.127 35.92V36.98H146.787C146.814 38.1933 147.121 39.12 147.707 39.76C148.307 40.3867 149.141 40.7 150.207 40.7C150.887 40.7 151.487 40.64 152.007 40.52C152.541 40.3867 153.087 40.2 153.647 39.96V41.5C153.101 41.74 152.561 41.9133 152.027 42.02C151.494 42.14 150.861 42.2 150.127 42.2C149.114 42.2 148.214 41.9933 147.427 41.58C146.654 41.1667 146.047 40.5533 145.607 39.74C145.181 38.9133 144.967 37.9067 144.967 36.72C144.967 35.5467 145.161 34.54 145.547 33.7C145.947 32.86 146.501 32.2133 147.207 31.76C147.927 31.3067 148.761 31.08 149.707 31.08ZM149.687 32.52C148.847 32.52 148.181 32.7933 147.687 33.34C147.207 33.8733 146.921 34.62 146.827 35.58H152.287C152.274 34.6733 152.061 33.94 151.647 33.38C151.234 32.8067 150.581 32.52 149.687 32.52ZM163.996 42.22C163.996 41.98 164.003 41.7 164.016 41.38C164.03 41.06 164.056 40.7867 164.096 40.56H163.976C163.67 41.0133 163.243 41.4 162.696 41.72C162.163 42.04 161.47 42.2 160.616 42.2C159.323 42.2 158.27 41.74 157.456 40.82C156.656 39.8867 156.256 38.5 156.256 36.66C156.256 34.82 156.663 33.4333 157.476 32.5C158.303 31.5533 159.37 31.08 160.676 31.08C161.516 31.08 162.203 31.24 162.736 31.56C163.27 31.88 163.696 32.2733 164.016 32.74H164.096L164.356 31.28H165.756V46.8H163.996V42.22ZM160.956 40.74C162.063 40.74 162.843 40.44 163.296 39.84C163.763 39.2267 164.003 38.2933 164.016 37.04V36.68C164.016 35.32 163.79 34.2933 163.336 33.6C162.883 32.8933 162.076 32.54 160.916 32.54C159.956 32.54 159.243 32.92 158.776 33.68C158.31 34.4267 158.076 35.4333 158.076 36.7C158.076 37.9667 158.31 38.96 158.776 39.68C159.256 40.3867 159.983 40.74 160.956 40.74ZM178.121 31.28V42H176.681L176.421 40.58H176.341C175.994 41.14 175.514 41.5533 174.901 41.82C174.288 42.0733 173.634 42.2 172.941 42.2C171.648 42.2 170.674 41.8933 170.021 41.28C169.368 40.6533 169.041 39.66 169.041 38.3V31.28H170.821V38.18C170.821 39.8867 171.614 40.74 173.201 40.74C174.388 40.74 175.208 40.4067 175.661 39.74C176.128 39.0733 176.361 38.1133 176.361 36.86V31.28H178.121ZM182.424 27.26C182.691 27.26 182.924 27.3533 183.124 27.54C183.338 27.7133 183.444 27.9933 183.444 28.38C183.444 28.7533 183.338 29.0333 183.124 29.22C182.924 29.4067 182.691 29.5 182.424 29.5C182.131 29.5 181.884 29.4067 181.684 29.22C181.484 29.0333 181.384 28.7533 181.384 28.38C181.384 27.9933 181.484 27.7133 181.684 27.54C181.884 27.3533 182.131 27.26 182.424 27.26ZM183.284 31.28V42H181.524V31.28H183.284ZM191.68 31.08C191.88 31.08 192.094 31.0933 192.32 31.12C192.56 31.1333 192.767 31.16 192.94 31.2L192.72 32.82C192.547 32.78 192.354 32.7467 192.14 32.72C191.94 32.6933 191.747 32.68 191.56 32.68C191.014 32.68 190.5 32.8333 190.02 33.14C189.54 33.4333 189.154 33.8533 188.86 34.4C188.58 34.9333 188.44 35.56 188.44 36.28V42H186.68V31.28H188.12L188.32 33.24H188.4C188.747 32.6533 189.194 32.1467 189.74 31.72C190.287 31.2933 190.934 31.08 191.68 31.08ZM198.692 31.08C199.612 31.08 200.398 31.28 201.052 31.68C201.718 32.08 202.225 32.6467 202.572 33.38C202.932 34.1 203.112 34.9467 203.112 35.92V36.98H195.772C195.798 38.1933 196.105 39.12 196.692 39.76C197.292 40.3867 198.125 40.7 199.192 40.7C199.872 40.7 200.472 40.64 200.992 40.52C201.525 40.3867 202.072 40.2 202.632 39.96V41.5C202.085 41.74 201.545 41.9133 201.012 42.02C200.478 42.14 199.845 42.2 199.112 42.2C198.098 42.2 197.198 41.9933 196.412 41.58C195.638 41.1667 195.032 40.5533 194.592 39.74C194.165 38.9133 193.952 37.9067 193.952 36.72C193.952 35.5467 194.145 34.54 194.532 33.7C194.932 32.86 195.485 32.2133 196.192 31.76C196.912 31.3067 197.745 31.08 198.692 31.08ZM198.672 32.52C197.832 32.52 197.165 32.7933 196.672 33.34C196.192 33.8733 195.905 34.62 195.812 35.58H201.272C201.258 34.6733 201.045 33.94 200.632 33.38C200.218 32.8067 199.565 32.52 198.672 32.52ZM209.641 42.2C208.307 42.2 207.241 41.74 206.441 40.82C205.641 39.8867 205.241 38.5 205.241 36.66C205.241 34.82 205.641 33.4333 206.441 32.5C207.254 31.5533 208.327 31.08 209.661 31.08C210.487 31.08 211.161 31.2333 211.681 31.54C212.214 31.8467 212.647 32.22 212.981 32.66H213.101C213.087 32.4867 213.061 32.2333 213.021 31.9C212.994 31.5533 212.981 31.28 212.981 31.08V26.8H214.741V42H213.321L213.061 40.56H212.981C212.661 41.0133 212.234 41.4 211.701 41.72C211.167 42.04 210.481 42.2 209.641 42.2ZM209.921 40.74C211.054 40.74 211.847 40.4333 212.301 39.82C212.767 39.1933 213.001 38.2533 213.001 37V36.68C213.001 35.3467 212.781 34.3267 212.341 33.62C211.901 32.9 211.087 32.54 209.901 32.54C208.954 32.54 208.241 32.92 207.761 33.68C207.294 34.4267 207.061 35.4333 207.061 36.7C207.061 37.98 207.294 38.9733 207.761 39.68C208.241 40.3867 208.961 40.74 209.921 40.74ZM221.645 36.52C221.645 38.1333 221.405 39.6867 220.925 41.18C220.459 42.66 219.719 43.9867 218.705 45.16H217.065C217.985 43.9067 218.679 42.54 219.145 41.06C219.625 39.5667 219.865 38.0467 219.865 36.5C219.865 34.9133 219.625 33.3667 219.145 31.86C218.679 30.3533 217.979 28.9733 217.045 27.72H218.705C219.719 28.9333 220.459 30.3 220.925 31.82C221.405 33.3267 221.645 34.8933 221.645 36.52Z" fill="#333333"/>
<path d="M80.86 74H79.06V67.34H71.74V74H69.94V59.72H71.74V65.76H79.06V59.72H80.86V74ZM85.4242 59.26C85.6909 59.26 85.9242 59.3533 86.1242 59.54C86.3376 59.7133 86.4442 59.9933 86.4442 60.38C86.4442 60.7533 86.3376 61.0333 86.1242 61.22C85.9242 61.4067 85.6909 61.5 85.4242 61.5C85.1309 61.5 84.8842 61.4067 84.6842 61.22C84.4842 61.0333 84.3842 60.7533 84.3842 60.38C84.3842 59.9933 84.4842 59.7133 84.6842 59.54C84.8842 59.3533 85.1309 59.26 85.4242 59.26ZM86.2842 63.28V74H84.5242V63.28H86.2842ZM94.8405 63.08C96.1205 63.08 97.0871 63.3933 97.7405 64.02C98.3938 64.6333 98.7205 65.6333 98.7205 67.02V74H96.9805V67.14C96.9805 65.42 96.1805 64.56 94.5805 64.56C93.3938 64.56 92.5738 64.8933 92.1205 65.56C91.6671 66.2267 91.4405 67.1867 91.4405 68.44V74H89.6805V63.28H91.1005L91.3605 64.74H91.4605C91.8071 64.18 92.2871 63.7667 92.9005 63.5C93.5138 63.22 94.1605 63.08 94.8405 63.08ZM105.624 72.76C105.89 72.76 106.164 72.74 106.444 72.7C106.724 72.6467 106.95 72.5933 107.124 72.54V73.88C106.937 73.9733 106.67 74.0467 106.324 74.1C105.977 74.1667 105.644 74.2 105.324 74.2C104.764 74.2 104.244 74.1067 103.764 73.92C103.297 73.72 102.917 73.38 102.624 72.9C102.33 72.42 102.184 71.7467 102.184 70.88V64.64H100.664V63.8L102.204 63.1L102.904 60.82H103.944V63.28H107.044V64.64H103.944V70.84C103.944 71.4933 104.097 71.98 104.404 72.3C104.724 72.6067 105.13 72.76 105.624 72.76ZM118.046 72.76C118.312 72.76 118.586 72.74 118.866 72.7C119.146 72.6467 119.372 72.5933 119.546 72.54V73.88C119.359 73.9733 119.092 74.0467 118.746 74.1C118.399 74.1667 118.066 74.2 117.746 74.2C117.186 74.2 116.666 74.1067 116.186 73.92C115.719 73.72 115.339 73.38 115.046 72.9C114.752 72.42 114.606 71.7467 114.606 70.88V64.64H113.086V63.8L114.626 63.1L115.326 60.82H116.366V63.28H119.466V64.64H116.366V70.84C116.366 71.4933 116.519 71.98 116.826 72.3C117.146 72.6067 117.552 72.76 118.046 72.76ZM125.832 63.08C126.752 63.08 127.539 63.28 128.192 63.68C128.859 64.08 129.366 64.6467 129.712 65.38C130.072 66.1 130.252 66.9467 130.252 67.92V68.98H122.912C122.939 70.1933 123.246 71.12 123.832 71.76C124.432 72.3867 125.266 72.7 126.332 72.7C127.012 72.7 127.612 72.64 128.132 72.52C128.666 72.3867 129.212 72.2 129.772 71.96V73.5C129.226 73.74 128.686 73.9133 128.152 74.02C127.619 74.14 126.986 74.2 126.252 74.2C125.239 74.2 124.339 73.9933 123.552 73.58C122.779 73.1667 122.172 72.5533 121.732 71.74C121.306 70.9133 121.092 69.9067 121.092 68.72C121.092 67.5467 121.286 66.54 121.672 65.7C122.072 64.86 122.626 64.2133 123.332 63.76C124.052 63.3067 124.886 63.08 125.832 63.08ZM125.812 64.52C124.972 64.52 124.306 64.7933 123.812 65.34C123.332 65.8733 123.046 66.62 122.952 67.58H128.412C128.399 66.6733 128.186 65.94 127.772 65.38C127.359 64.8067 126.706 64.52 125.812 64.52ZM135.131 68.52L131.431 63.28H133.431L136.191 67.32L138.931 63.28H140.911L137.211 68.52L141.111 74H139.111L136.191 69.72L133.231 74H131.251L135.131 68.52ZM146.757 72.76C147.023 72.76 147.297 72.74 147.577 72.7C147.857 72.6467 148.083 72.5933 148.257 72.54V73.88C148.07 73.9733 147.803 74.0467 147.457 74.1C147.11 74.1667 146.777 74.2 146.457 74.2C145.897 74.2 145.377 74.1067 144.897 73.92C144.43 73.72 144.05 73.38 143.757 72.9C143.463 72.42 143.317 71.7467 143.317 70.88V64.64H141.797V63.8L143.337 63.1L144.037 60.82H145.077V63.28H148.177V64.64H145.077V70.84C145.077 71.4933 145.23 71.98 145.537 72.3C145.857 72.6067 146.263 72.76 146.757 72.76Z" fill="#43474E"/>
<rect x="69" y="91" width="478" height="46" rx="2" fill="white"/>
<rect x="69" y="91" width="478" height="46" rx="2" stroke="#333333" stroke-width="2"/>
<path d="M86.04 118.18C86.04 119.447 85.58 120.433 84.66 121.14C83.74 121.847 82.5 122.2 80.94 122.2C80.14 122.2 79.4 122.14 78.72 122.02C78.04 121.9 77.4733 121.733 77.02 121.52V119.8C77.5 120.013 78.0933 120.207 78.8 120.38C79.52 120.553 80.26 120.64 81.02 120.64C82.0867 120.64 82.8867 120.433 83.42 120.02C83.9667 119.607 84.24 119.047 84.24 118.34C84.24 117.873 84.14 117.48 83.94 117.16C83.74 116.84 83.3933 116.547 82.9 116.28C82.42 116 81.7467 115.707 80.88 115.4C79.6667 114.96 78.7467 114.42 78.12 113.78C77.5067 113.14 77.2 112.267 77.2 111.16C77.2 110.4 77.3933 109.753 77.78 109.22C78.1667 108.673 78.7 108.253 79.38 107.96C80.0733 107.667 80.8667 107.52 81.76 107.52C82.5467 107.52 83.2667 107.593 83.92 107.74C84.5733 107.887 85.1667 108.08 85.7 108.32L85.14 109.86C84.6467 109.647 84.1067 109.467 83.52 109.32C82.9467 109.173 82.3467 109.1 81.72 109.1C80.8267 109.1 80.1533 109.293 79.7 109.68C79.2467 110.053 79.02 110.553 79.02 111.18C79.02 111.66 79.12 112.06 79.32 112.38C79.52 112.7 79.8467 112.987 80.3 113.24C80.7533 113.493 81.3667 113.767 82.14 114.06C82.98 114.367 83.6867 114.7 84.26 115.06C84.8467 115.407 85.2867 115.827 85.58 116.32C85.8867 116.813 86.04 117.433 86.04 118.18ZM92.8166 111.08C93.7366 111.08 94.5232 111.28 95.1766 111.68C95.8432 112.08 96.3499 112.647 96.6966 113.38C97.0566 114.1 97.2366 114.947 97.2366 115.92V116.98H89.8966C89.9232 118.193 90.2299 119.12 90.8166 119.76C91.4166 120.387 92.2499 120.7 93.3166 120.7C93.9966 120.7 94.5966 120.64 95.1166 120.52C95.6499 120.387 96.1966 120.2 96.7566 119.96V121.5C96.2099 121.74 95.6699 121.913 95.1366 122.02C94.6032 122.14 93.9699 122.2 93.2366 122.2C92.2232 122.2 91.3232 121.993 90.5366 121.58C89.7632 121.167 89.1566 120.553 88.7166 119.74C88.2899 118.913 88.0766 117.907 88.0766 116.72C88.0766 115.547 88.2699 114.54 88.6566 113.7C89.0566 112.86 89.6099 112.213 90.3166 111.76C91.0366 111.307 91.8699 111.08 92.8166 111.08ZM92.7966 112.52C91.9566 112.52 91.2899 112.793 90.7966 113.34C90.3166 113.873 90.0299 114.62 89.9366 115.58H95.3966C95.3832 114.673 95.1699 113.94 94.7566 113.38C94.3432 112.807 93.6899 112.52 92.7966 112.52ZM101.726 122H99.9656V106.8H101.726V122ZM109.262 111.08C110.182 111.08 110.969 111.28 111.622 111.68C112.289 112.08 112.795 112.647 113.142 113.38C113.502 114.1 113.682 114.947 113.682 115.92V116.98H106.342C106.369 118.193 106.675 119.12 107.262 119.76C107.862 120.387 108.695 120.7 109.762 120.7C110.442 120.7 111.042 120.64 111.562 120.52C112.095 120.387 112.642 120.2 113.202 119.96V121.5C112.655 121.74 112.115 121.913 111.582 122.02C111.049 122.14 110.415 122.2 109.682 122.2C108.669 122.2 107.769 121.993 106.982 121.58C106.209 121.167 105.602 120.553 105.162 119.74C104.735 118.913 104.522 117.907 104.522 116.72C104.522 115.547 104.715 114.54 105.102 113.7C105.502 112.86 106.055 112.213 106.762 111.76C107.482 111.307 108.315 111.08 109.262 111.08ZM109.242 112.52C108.402 112.52 107.735 112.793 107.242 113.34C106.762 113.873 106.475 114.62 106.382 115.58H111.842C111.829 114.673 111.615 113.94 111.202 113.38C110.789 112.807 110.135 112.52 109.242 112.52ZM120.711 122.2C119.764 122.2 118.918 122.007 118.171 121.62C117.438 121.233 116.858 120.633 116.431 119.82C116.018 119.007 115.811 117.967 115.811 116.7C115.811 115.38 116.031 114.307 116.471 113.48C116.911 112.653 117.504 112.047 118.251 111.66C119.011 111.273 119.871 111.08 120.831 111.08C121.378 111.08 121.904 111.14 122.411 111.26C122.918 111.367 123.331 111.5 123.651 111.66L123.111 113.12C122.791 113 122.418 112.887 121.991 112.78C121.564 112.673 121.164 112.62 120.791 112.62C118.684 112.62 117.631 113.973 117.631 116.68C117.631 117.973 117.884 118.967 118.391 119.66C118.911 120.34 119.678 120.68 120.691 120.68C121.278 120.68 121.791 120.62 122.231 120.5C122.684 120.38 123.098 120.233 123.471 120.06V121.62C123.111 121.807 122.711 121.947 122.271 122.04C121.844 122.147 121.324 122.2 120.711 122.2ZM129.6 120.76C129.867 120.76 130.14 120.74 130.42 120.7C130.7 120.647 130.927 120.593 131.1 120.54V121.88C130.914 121.973 130.647 122.047 130.3 122.1C129.954 122.167 129.62 122.2 129.3 122.2C128.74 122.2 128.22 122.107 127.74 121.92C127.274 121.72 126.894 121.38 126.6 120.9C126.307 120.42 126.16 119.747 126.16 118.88V112.64H124.64V111.8L126.18 111.1L126.88 108.82H127.92V111.28H131.02V112.64H127.92V118.84C127.92 119.493 128.074 119.98 128.38 120.3C128.7 120.607 129.107 120.76 129.6 120.76ZM147.762 116.62C147.762 118.393 147.309 119.767 146.402 120.74C145.509 121.713 144.296 122.2 142.762 122.2C141.816 122.2 140.969 121.987 140.222 121.56C139.489 121.12 138.909 120.487 138.482 119.66C138.056 118.82 137.842 117.807 137.842 116.62C137.842 114.847 138.289 113.48 139.182 112.52C140.076 111.56 141.289 111.08 142.822 111.08C143.796 111.08 144.649 111.3 145.382 111.74C146.129 112.167 146.709 112.793 147.122 113.62C147.549 114.433 147.762 115.433 147.762 116.62ZM139.662 116.62C139.662 117.887 139.909 118.893 140.402 119.64C140.909 120.373 141.709 120.74 142.802 120.74C143.882 120.74 144.676 120.373 145.182 119.64C145.689 118.893 145.942 117.887 145.942 116.62C145.942 115.353 145.689 114.36 145.182 113.64C144.676 112.92 143.876 112.56 142.782 112.56C141.689 112.56 140.896 112.92 140.402 113.64C139.909 114.36 139.662 115.353 139.662 116.62ZM155.652 111.08C156.972 111.08 158.032 111.54 158.832 112.46C159.645 113.38 160.052 114.767 160.052 116.62C160.052 118.447 159.645 119.833 158.832 120.78C158.032 121.727 156.965 122.2 155.632 122.2C154.805 122.2 154.118 122.047 153.572 121.74C153.038 121.42 152.618 121.053 152.312 120.64H152.192C152.218 120.867 152.245 121.153 152.272 121.5C152.298 121.847 152.312 122.147 152.312 122.4V126.8H150.552V111.28H151.992L152.232 112.74H152.312C152.632 112.273 153.052 111.88 153.572 111.56C154.092 111.24 154.785 111.08 155.652 111.08ZM155.332 112.56C154.238 112.56 153.465 112.867 153.012 113.48C152.572 114.093 152.338 115.027 152.312 116.28V116.62C152.312 117.94 152.525 118.96 152.952 119.68C153.392 120.387 154.198 120.74 155.372 120.74C156.025 120.74 156.558 120.56 156.972 120.2C157.398 119.84 157.712 119.353 157.912 118.74C158.125 118.113 158.232 117.4 158.232 116.6C158.232 115.373 157.992 114.393 157.512 113.66C157.045 112.927 156.318 112.56 155.332 112.56ZM166.436 120.76C166.703 120.76 166.976 120.74 167.256 120.7C167.536 120.647 167.763 120.593 167.936 120.54V121.88C167.75 121.973 167.483 122.047 167.136 122.1C166.79 122.167 166.456 122.2 166.136 122.2C165.576 122.2 165.056 122.107 164.576 121.92C164.11 121.72 163.73 121.38 163.436 120.9C163.143 120.42 162.996 119.747 162.996 118.88V112.64H161.476V111.8L163.016 111.1L163.716 108.82H164.756V111.28H167.856V112.64H164.756V118.84C164.756 119.493 164.91 119.98 165.216 120.3C165.536 120.607 165.943 120.76 166.436 120.76ZM170.983 107.26C171.249 107.26 171.483 107.353 171.683 107.54C171.896 107.713 172.003 107.993 172.003 108.38C172.003 108.753 171.896 109.033 171.683 109.22C171.483 109.407 171.249 109.5 170.983 109.5C170.689 109.5 170.443 109.407 170.243 109.22C170.043 109.033 169.943 108.753 169.943 108.38C169.943 107.993 170.043 107.713 170.243 107.54C170.443 107.353 170.689 107.26 170.983 107.26ZM171.843 111.28V122H170.083V111.28H171.843ZM184.559 116.62C184.559 118.393 184.106 119.767 183.199 120.74C182.306 121.713 181.092 122.2 179.559 122.2C178.612 122.2 177.766 121.987 177.019 121.56C176.286 121.12 175.706 120.487 175.279 119.66C174.852 118.82 174.639 117.807 174.639 116.62C174.639 114.847 175.086 113.48 175.979 112.52C176.872 111.56 178.086 111.08 179.619 111.08C180.592 111.08 181.446 111.3 182.179 111.74C182.926 112.167 183.506 112.793 183.919 113.62C184.346 114.433 184.559 115.433 184.559 116.62ZM176.459 116.62C176.459 117.887 176.706 118.893 177.199 119.64C177.706 120.373 178.506 120.74 179.599 120.74C180.679 120.74 181.472 120.373 181.979 119.64C182.486 118.893 182.739 117.887 182.739 116.62C182.739 115.353 182.486 114.36 181.979 113.64C181.472 112.92 180.672 112.56 179.579 112.56C178.486 112.56 177.692 112.92 177.199 113.64C176.706 114.36 176.459 115.353 176.459 116.62ZM192.508 111.08C193.788 111.08 194.755 111.393 195.408 112.02C196.062 112.633 196.388 113.633 196.388 115.02V122H194.648V115.14C194.648 113.42 193.848 112.56 192.248 112.56C191.062 112.56 190.242 112.893 189.788 113.56C189.335 114.227 189.108 115.187 189.108 116.44V122H187.348V111.28H188.768L189.028 112.74H189.128C189.475 112.18 189.955 111.767 190.568 111.5C191.182 111.22 191.828 111.08 192.508 111.08Z" fill="#333333"/>
<path d="M524 115.75L530.5 109.25L532 110.75L524 118.75L516 110.75L517.5 109.25L524 115.75Z" fill="#333333"/>
<g clip-path="url(#clip1_60347_6121)">
<rect x="20" y="36" width="48" height="1" fill="#C54600"/>
<g clip-path="url(#clip2_60347_6121)">
<rect x="20" y="24" width="24" height="24" rx="12" fill="#C54600"/>
<path d="M33.1825 31.2727V40H32.1257V32.3807H32.0746L29.9439 33.7955V32.7216L32.1257 31.2727H33.1825Z" fill="white"/>
</g>
</g>
<g clip-path="url(#clip3_60347_6121)">
<rect x="20" y="66" width="48" height="1" fill="#C54600"/>
<g clip-path="url(#clip4_60347_6121)">
<rect x="20" y="54" width="24" height="24" rx="12" fill="#C54600"/>
<path d="M29.2706 70V69.233L32.1513 66.0795C32.4893 65.7102 32.7678 65.3892 32.9865 65.1165C33.2053 64.8409 33.3672 64.5824 33.4723 64.3409C33.5803 64.0966 33.6342 63.8409 33.6342 63.5739C33.6342 63.267 33.5604 63.0014 33.4126 62.777C33.2678 62.5526 33.0689 62.3793 32.8161 62.2571C32.5632 62.1349 32.2791 62.0739 31.9638 62.0739C31.6286 62.0739 31.3359 62.1435 31.0859 62.2827C30.8388 62.419 30.647 62.6108 30.5107 62.858C30.3771 63.1051 30.3104 63.3949 30.3104 63.7273H29.3047C29.3047 63.2159 29.4226 62.767 29.6584 62.3807C29.8942 61.9943 30.2152 61.6932 30.6214 61.4773C31.0305 61.2614 31.4893 61.1534 31.9979 61.1534C32.5092 61.1534 32.9624 61.2614 33.3572 61.4773C33.7521 61.6932 34.0618 61.9844 34.2862 62.3509C34.5107 62.7173 34.6229 63.125 34.6229 63.5739C34.6229 63.8949 34.5646 64.2088 34.4482 64.5156C34.3345 64.8196 34.1357 65.1591 33.8516 65.5341C33.5703 65.9062 33.1797 66.3608 32.6797 66.8977L30.7195 68.9943V69.0625H34.7763V70H29.2706Z" fill="white"/>
</g>
</g>
<g clip-path="url(#clip5_60347_6121)">
<rect x="20" y="114" width="48" height="1" fill="#C54600"/>
<g clip-path="url(#clip6_60347_6121)">
<rect x="20" y="102" width="24" height="24" rx="12" fill="#C54600"/>
<path d="M32.032 118.119C31.4695 118.119 30.968 118.023 30.5277 117.83C30.0902 117.636 29.7422 117.368 29.4837 117.024C29.228 116.678 29.0888 116.276 29.0661 115.818H30.1399C30.1626 116.099 30.2592 116.342 30.4297 116.547C30.6001 116.749 30.8232 116.905 31.0987 117.016C31.3743 117.126 31.6797 117.182 32.0149 117.182C32.3899 117.182 32.7223 117.116 33.0121 116.986C33.3018 116.855 33.5291 116.673 33.6939 116.44C33.8587 116.207 33.9411 115.938 33.9411 115.631C33.9411 115.31 33.8615 115.027 33.7024 114.783C33.5433 114.536 33.3104 114.342 33.0036 114.203C32.6967 114.064 32.3217 113.994 31.8786 113.994H31.1797V113.057H31.8786C32.2251 113.057 32.5291 112.994 32.7905 112.869C33.0547 112.744 33.2607 112.568 33.4084 112.341C33.5589 112.114 33.6342 111.847 33.6342 111.54C33.6342 111.244 33.5689 110.987 33.4382 110.768C33.3075 110.55 33.1229 110.379 32.8842 110.257C32.6484 110.135 32.37 110.074 32.049 110.074C31.7479 110.074 31.4638 110.129 31.1967 110.24C30.9325 110.348 30.7166 110.506 30.549 110.713C30.3814 110.918 30.2905 111.165 30.2763 111.455H29.2536C29.2706 110.997 29.4084 110.597 29.6669 110.253C29.9254 109.906 30.2635 109.636 30.6811 109.443C31.1016 109.25 31.5632 109.153 32.0661 109.153C32.6058 109.153 33.0689 109.263 33.4553 109.482C33.8416 109.697 34.1385 109.983 34.3459 110.338C34.5533 110.693 34.657 111.077 34.657 111.489C34.657 111.98 34.5277 112.399 34.2692 112.746C34.0135 113.092 33.6655 113.332 33.2251 113.466V113.534C33.7763 113.625 34.2067 113.859 34.5163 114.237C34.826 114.612 34.9808 115.077 34.9808 115.631C34.9808 116.105 34.8516 116.531 34.593 116.909C34.3374 117.284 33.9879 117.58 33.5447 117.795C33.1016 118.011 32.5973 118.119 32.032 118.119Z" fill="white"/>
</g>
</g>
<g clip-path="url(#clip7_60347_6121)">
<rect x="534" y="115" width="94" height="1" fill="#C54600"/>
<g clip-path="url(#clip8_60347_6121)">
<rect x="604" y="103" width="24" height="24" rx="12" fill="#C54600"/>
<path d="M612.849 117.21V116.341L616.684 110.273H617.315V111.619H616.889L613.991 116.205V116.273H619.156V117.21H612.849ZM616.957 119V116.946V116.541V110.273H617.963V119H616.957Z" fill="white"/>
</g>
</g>
</g>
<defs>
<clipPath id="clip0_60347_6121">
<rect width="647" height="158" fill="white"/>
</clipPath>
<clipPath id="clip1_60347_6121">
<rect width="48" height="24" fill="white" transform="translate(20 24)"/>
</clipPath>
<clipPath id="clip2_60347_6121">
<rect x="20" y="24" width="24" height="24" rx="12" fill="white"/>
</clipPath>
<clipPath id="clip3_60347_6121">
<rect width="48" height="24" fill="white" transform="translate(20 54)"/>
</clipPath>
<clipPath id="clip4_60347_6121">
<rect x="20" y="54" width="24" height="24" rx="12" fill="white"/>
</clipPath>
<clipPath id="clip5_60347_6121">
<rect width="48" height="24" fill="white" transform="translate(20 102)"/>
</clipPath>
<clipPath id="clip6_60347_6121">
<rect x="20" y="102" width="24" height="24" rx="12" fill="white"/>
</clipPath>
<clipPath id="clip7_60347_6121">
<rect width="94" height="24" fill="white" transform="translate(534 103)"/>
</clipPath>
<clipPath id="clip8_60347_6121">
<rect x="604" y="103" width="24" height="24" rx="12" fill="white"/>
</clipPath>
</defs>
</svg>
