<svg width="313" height="242" viewBox="0 0 313 242" fill="none" xmlns="http://www.w3.org/2000/svg">
<g clip-path="url(#clip0_67375_1925)">
<path d="M77.62 39V26.148H80.338V36.75H85.558V39H77.62ZM91.6317 28.992C92.9877 28.992 94.0617 29.382 94.8537 30.162C95.6457 30.93 96.0417 32.028 96.0417 33.456V34.752H89.7057C89.7297 35.508 89.9517 36.102 90.3717 36.534C90.8037 36.966 91.3977 37.182 92.1537 37.182C92.7897 37.182 93.3657 37.122 93.8817 37.002C94.3977 36.87 94.9317 36.672 95.4837 36.408V38.478C95.0037 38.718 94.4937 38.892 93.9537 39C93.4257 39.12 92.7837 39.18 92.0277 39.18C91.0437 39.18 90.1737 39 89.4177 38.64C88.6617 38.268 88.0677 37.71 87.6357 36.966C87.2037 36.222 86.9877 35.286 86.9877 34.158C86.9877 33.006 87.1797 32.052 87.5637 31.296C87.9597 30.528 88.5057 29.952 89.2017 29.568C89.8977 29.184 90.7077 28.992 91.6317 28.992ZM91.6497 30.9C91.1337 30.9 90.7017 31.068 90.3537 31.404C90.0177 31.74 89.8197 32.262 89.7597 32.97H93.5217C93.5097 32.37 93.3537 31.878 93.0537 31.494C92.7537 31.098 92.2857 30.9 91.6497 30.9ZM101.403 28.992C102.615 28.992 103.563 29.472 104.247 30.432H104.319L104.535 29.172H106.803V39.018C106.803 40.422 106.389 41.49 105.561 42.222C104.733 42.954 103.509 43.32 101.889 43.32C101.193 43.32 100.545 43.278 99.9445 43.194C99.3565 43.11 98.7805 42.96 98.2165 42.744V40.602C99.4285 41.106 100.707 41.358 102.051 41.358C103.431 41.358 104.121 40.614 104.121 39.126V38.928C104.121 38.724 104.127 38.514 104.139 38.298C104.163 38.082 104.181 37.89 104.193 37.722H104.121C103.785 38.238 103.383 38.61 102.915 38.838C102.447 39.066 101.919 39.18 101.331 39.18C100.167 39.18 99.2545 38.736 98.5945 37.848C97.9465 36.948 97.6225 35.7 97.6225 34.104C97.6225 32.496 97.9585 31.242 98.6305 30.342C99.3025 29.442 100.227 28.992 101.403 28.992ZM102.249 31.17C100.989 31.17 100.359 32.16 100.359 34.14C100.359 36.096 101.001 37.074 102.285 37.074C102.969 37.074 103.473 36.882 103.797 36.498C104.133 36.102 104.301 35.418 104.301 34.446V34.122C104.301 33.066 104.139 32.31 103.815 31.854C103.491 31.398 102.969 31.17 102.249 31.17ZM113.657 28.992C115.013 28.992 116.087 29.382 116.879 30.162C117.671 30.93 118.067 32.028 118.067 33.456V34.752H111.731C111.755 35.508 111.977 36.102 112.397 36.534C112.829 36.966 113.423 37.182 114.179 37.182C114.815 37.182 115.391 37.122 115.907 37.002C116.423 36.87 116.957 36.672 117.509 36.408V38.478C117.029 38.718 116.519 38.892 115.979 39C115.451 39.12 114.809 39.18 114.053 39.18C113.069 39.18 112.199 39 111.443 38.64C110.687 38.268 110.093 37.71 109.661 36.966C109.229 36.222 109.013 35.286 109.013 34.158C109.013 33.006 109.205 32.052 109.589 31.296C109.985 30.528 110.531 29.952 111.227 29.568C111.923 29.184 112.733 28.992 113.657 28.992ZM113.675 30.9C113.159 30.9 112.727 31.068 112.379 31.404C112.043 31.74 111.845 32.262 111.785 32.97H115.547C115.535 32.37 115.379 31.878 115.079 31.494C114.779 31.098 114.311 30.9 113.675 30.9ZM125.822 28.992C126.878 28.992 127.724 29.28 128.36 29.856C128.996 30.42 129.314 31.332 129.314 32.592V39H126.632V33.258C126.632 32.55 126.506 32.022 126.254 31.674C126.002 31.314 125.6 31.134 125.048 31.134C124.232 31.134 123.674 31.416 123.374 31.98C123.074 32.532 122.924 33.33 122.924 34.374V39H120.242V29.172H122.294L122.654 30.432H122.798C123.11 29.928 123.536 29.562 124.076 29.334C124.628 29.106 125.21 28.992 125.822 28.992ZM135.186 39.18C134.094 39.18 133.2 38.754 132.504 37.902C131.82 37.038 131.478 35.772 131.478 34.104C131.478 32.424 131.826 31.152 132.522 30.288C133.218 29.424 134.13 28.992 135.258 28.992C135.966 28.992 136.548 29.13 137.004 29.406C137.46 29.682 137.82 30.024 138.084 30.432H138.174C138.138 30.24 138.096 29.964 138.048 29.604C138 29.232 137.976 28.854 137.976 28.47V25.32H140.658V39H138.606L138.084 37.722H137.976C137.712 38.13 137.358 38.478 136.914 38.766C136.47 39.042 135.894 39.18 135.186 39.18ZM136.122 37.038C136.866 37.038 137.388 36.822 137.688 36.39C137.988 35.946 138.144 35.286 138.156 34.41V34.122C138.156 33.162 138.006 32.43 137.706 31.926C137.418 31.422 136.878 31.17 136.086 31.17C135.498 31.17 135.036 31.428 134.7 31.944C134.364 32.448 134.196 33.18 134.196 34.14C134.196 35.1 134.364 35.826 134.7 36.318C135.036 36.798 135.51 37.038 136.122 37.038Z" fill="#333333"/>
<path d="M151.72 34.068C151.72 32.604 151.93 31.194 152.35 29.838C152.782 28.47 153.454 27.24 154.366 26.148H155.86C155.02 27.276 154.384 28.518 153.952 29.874C153.532 31.23 153.322 32.622 153.322 34.05C153.322 35.442 153.532 36.81 153.952 38.154C154.384 39.486 155.014 40.716 155.842 41.844H154.366C153.454 40.788 152.782 39.594 152.35 38.262C151.93 36.918 151.72 35.52 151.72 34.068ZM162.426 29.172C162.606 29.172 162.798 29.184 163.002 29.208C163.218 29.22 163.404 29.244 163.56 29.28L163.362 30.738C163.206 30.702 163.032 30.672 162.84 30.648C162.66 30.624 162.486 30.612 162.318 30.612C161.826 30.612 161.364 30.75 160.932 31.026C160.5 31.29 160.152 31.668 159.888 32.16C159.636 32.64 159.51 33.204 159.51 33.852V39H157.926V29.352H159.222L159.402 31.116H159.474C159.786 30.588 160.188 30.132 160.68 29.748C161.172 29.364 161.754 29.172 162.426 29.172ZM168.736 29.172C169.564 29.172 170.272 29.352 170.86 29.712C171.46 30.072 171.916 30.582 172.228 31.242C172.552 31.89 172.714 32.652 172.714 33.528V34.482H166.108C166.132 35.574 166.408 36.408 166.936 36.984C167.476 37.548 168.226 37.83 169.186 37.83C169.798 37.83 170.338 37.776 170.806 37.668C171.286 37.548 171.778 37.38 172.282 37.164V38.55C171.79 38.766 171.304 38.922 170.824 39.018C170.344 39.126 169.774 39.18 169.114 39.18C168.202 39.18 167.392 38.994 166.684 38.622C165.988 38.25 165.442 37.698 165.046 36.966C164.662 36.222 164.47 35.316 164.47 34.248C164.47 33.192 164.644 32.286 164.992 31.53C165.352 30.774 165.85 30.192 166.486 29.784C167.134 29.376 167.884 29.172 168.736 29.172ZM168.718 30.468C167.962 30.468 167.362 30.714 166.918 31.206C166.486 31.686 166.228 32.358 166.144 33.222H171.058C171.046 32.406 170.854 31.746 170.482 31.242C170.11 30.726 169.522 30.468 168.718 30.468ZM181.597 39.198C181.597 38.982 181.603 38.73 181.615 38.442C181.627 38.154 181.651 37.908 181.687 37.704H181.579C181.303 38.112 180.919 38.46 180.427 38.748C179.947 39.036 179.323 39.18 178.555 39.18C177.391 39.18 176.443 38.766 175.711 37.938C174.991 37.098 174.631 35.85 174.631 34.194C174.631 32.538 174.997 31.29 175.729 30.45C176.473 29.598 177.433 29.172 178.609 29.172C179.365 29.172 179.983 29.316 180.463 29.604C180.943 29.892 181.327 30.246 181.615 30.666H181.687L181.921 29.352H183.181V43.32H181.597V39.198ZM178.861 37.866C179.857 37.866 180.559 37.596 180.967 37.056C181.387 36.504 181.603 35.664 181.615 34.536V34.212C181.615 32.988 181.411 32.064 181.003 31.44C180.595 30.804 179.869 30.486 178.825 30.486C177.961 30.486 177.319 30.828 176.899 31.512C176.479 32.184 176.269 33.09 176.269 34.23C176.269 35.37 176.479 36.264 176.899 36.912C177.331 37.548 177.985 37.866 178.861 37.866ZM194.309 29.352V39H193.013L192.779 37.722H192.707C192.395 38.226 191.963 38.598 191.411 38.838C190.859 39.066 190.271 39.18 189.647 39.18C188.483 39.18 187.607 38.904 187.019 38.352C186.431 37.788 186.137 36.894 186.137 35.67V29.352H187.739V35.562C187.739 37.098 188.453 37.866 189.881 37.866C190.949 37.866 191.687 37.566 192.095 36.966C192.515 36.366 192.725 35.502 192.725 34.374V29.352H194.309ZM198.182 25.734C198.422 25.734 198.632 25.818 198.812 25.986C199.004 26.142 199.1 26.394 199.1 26.742C199.1 27.078 199.004 27.33 198.812 27.498C198.632 27.666 198.422 27.75 198.182 27.75C197.918 27.75 197.696 27.666 197.516 27.498C197.336 27.33 197.246 27.078 197.246 26.742C197.246 26.394 197.336 26.142 197.516 25.986C197.696 25.818 197.918 25.734 198.182 25.734ZM198.956 29.352V39H197.372V29.352H198.956ZM206.512 29.172C206.692 29.172 206.884 29.184 207.088 29.208C207.304 29.22 207.49 29.244 207.646 29.28L207.448 30.738C207.292 30.702 207.118 30.672 206.926 30.648C206.746 30.624 206.572 30.612 206.404 30.612C205.912 30.612 205.45 30.75 205.018 31.026C204.586 31.29 204.238 31.668 203.974 32.16C203.722 32.64 203.596 33.204 203.596 33.852V39H202.012V29.352H203.308L203.488 31.116H203.56C203.872 30.588 204.274 30.132 204.766 29.748C205.258 29.364 205.84 29.172 206.512 29.172ZM212.822 29.172C213.65 29.172 214.358 29.352 214.946 29.712C215.546 30.072 216.002 30.582 216.314 31.242C216.638 31.89 216.8 32.652 216.8 33.528V34.482H210.194C210.218 35.574 210.494 36.408 211.022 36.984C211.562 37.548 212.312 37.83 213.272 37.83C213.884 37.83 214.424 37.776 214.892 37.668C215.372 37.548 215.864 37.38 216.368 37.164V38.55C215.876 38.766 215.39 38.922 214.91 39.018C214.43 39.126 213.86 39.18 213.2 39.18C212.288 39.18 211.478 38.994 210.77 38.622C210.074 38.25 209.528 37.698 209.132 36.966C208.748 36.222 208.556 35.316 208.556 34.248C208.556 33.192 208.73 32.286 209.078 31.53C209.438 30.774 209.936 30.192 210.572 29.784C211.22 29.376 211.97 29.172 212.822 29.172ZM212.804 30.468C212.048 30.468 211.448 30.714 211.004 31.206C210.572 31.686 210.314 32.358 210.23 33.222H215.144C215.132 32.406 214.94 31.746 214.568 31.242C214.196 30.726 213.608 30.468 212.804 30.468ZM222.677 39.18C221.477 39.18 220.517 38.766 219.797 37.938C219.077 37.098 218.717 35.85 218.717 34.194C218.717 32.538 219.077 31.29 219.797 30.45C220.529 29.598 221.495 29.172 222.695 29.172C223.439 29.172 224.045 29.31 224.513 29.586C224.993 29.862 225.383 30.198 225.683 30.594H225.791C225.779 30.438 225.755 30.21 225.719 29.91C225.695 29.598 225.683 29.352 225.683 29.172V25.32H227.267V39H225.989L225.755 37.704H225.683C225.395 38.112 225.011 38.46 224.531 38.748C224.051 39.036 223.433 39.18 222.677 39.18ZM222.929 37.866C223.949 37.866 224.663 37.59 225.071 37.038C225.491 36.474 225.701 35.628 225.701 34.5V34.212C225.701 33.012 225.503 32.094 225.107 31.458C224.711 30.81 223.979 30.486 222.911 30.486C222.059 30.486 221.417 30.828 220.985 31.512C220.565 32.184 220.355 33.09 220.355 34.23C220.355 35.382 220.565 36.276 220.985 36.912C221.417 37.548 222.065 37.866 222.929 37.866ZM233.481 34.068C233.481 35.52 233.265 36.918 232.833 38.262C232.413 39.594 231.747 40.788 230.835 41.844H229.359C230.187 40.716 230.811 39.486 231.231 38.154C231.663 36.81 231.879 35.442 231.879 34.05C231.879 32.622 231.663 31.23 231.231 29.874C230.811 28.518 230.181 27.276 229.341 26.148H230.835C231.747 27.24 232.413 28.47 232.833 29.838C233.265 31.194 233.481 32.604 233.481 34.068Z" fill="#333333"/>
<path d="M87.574 68H85.954V62.006H79.366V68H77.746V55.148H79.366V60.584H85.954V55.148H87.574V68ZM91.6818 54.734C91.9218 54.734 92.1318 54.818 92.3118 54.986C92.5038 55.142 92.5998 55.394 92.5998 55.742C92.5998 56.078 92.5038 56.33 92.3118 56.498C92.1318 56.666 91.9218 56.75 91.6818 56.75C91.4178 56.75 91.1958 56.666 91.0158 56.498C90.8358 56.33 90.7458 56.078 90.7458 55.742C90.7458 55.394 90.8358 55.142 91.0158 54.986C91.1958 54.818 91.4178 54.734 91.6818 54.734ZM92.4558 58.352V68H90.8718V58.352H92.4558ZM100.156 58.172C101.308 58.172 102.178 58.454 102.766 59.018C103.354 59.57 103.648 60.47 103.648 61.718V68H102.082V61.826C102.082 60.278 101.362 59.504 99.9224 59.504C98.8544 59.504 98.1164 59.804 97.7084 60.404C97.3004 61.004 97.0964 61.868 97.0964 62.996V68H95.5124V58.352H96.7904L97.0244 59.666H97.1144C97.4264 59.162 97.8584 58.79 98.4104 58.55C98.9624 58.298 99.5444 58.172 100.156 58.172ZM109.861 66.884C110.101 66.884 110.347 66.866 110.599 66.83C110.851 66.782 111.055 66.734 111.211 66.686V67.892C111.043 67.976 110.803 68.042 110.491 68.09C110.179 68.15 109.879 68.18 109.591 68.18C109.087 68.18 108.619 68.096 108.187 67.928C107.767 67.748 107.425 67.442 107.161 67.01C106.897 66.578 106.765 65.972 106.765 65.192V59.576H105.397V58.82L106.783 58.19L107.413 56.138H108.349V58.352H111.139V59.576H108.349V65.156C108.349 65.744 108.487 66.182 108.763 66.47C109.051 66.746 109.417 66.884 109.861 66.884ZM121.041 66.884C121.281 66.884 121.527 66.866 121.779 66.83C122.031 66.782 122.235 66.734 122.391 66.686V67.892C122.223 67.976 121.983 68.042 121.671 68.09C121.359 68.15 121.059 68.18 120.771 68.18C120.267 68.18 119.799 68.096 119.367 67.928C118.947 67.748 118.605 67.442 118.341 67.01C118.077 66.578 117.945 65.972 117.945 65.192V59.576H116.577V58.82L117.963 58.19L118.593 56.138H119.529V58.352H122.319V59.576H119.529V65.156C119.529 65.744 119.667 66.182 119.943 66.47C120.231 66.746 120.597 66.884 121.041 66.884ZM128.049 58.172C128.877 58.172 129.585 58.352 130.173 58.712C130.773 59.072 131.229 59.582 131.541 60.242C131.865 60.89 132.027 61.652 132.027 62.528V63.482H125.421C125.445 64.574 125.721 65.408 126.249 65.984C126.789 66.548 127.539 66.83 128.499 66.83C129.111 66.83 129.651 66.776 130.119 66.668C130.599 66.548 131.091 66.38 131.595 66.164V67.55C131.103 67.766 130.617 67.922 130.137 68.018C129.657 68.126 129.087 68.18 128.427 68.18C127.515 68.18 126.705 67.994 125.997 67.622C125.301 67.25 124.755 66.698 124.359 65.966C123.975 65.222 123.783 64.316 123.783 63.248C123.783 62.192 123.957 61.286 124.305 60.53C124.665 59.774 125.163 59.192 125.799 58.784C126.447 58.376 127.197 58.172 128.049 58.172ZM128.031 59.468C127.275 59.468 126.675 59.714 126.231 60.206C125.799 60.686 125.541 61.358 125.457 62.222H130.371C130.359 61.406 130.167 60.746 129.795 60.242C129.423 59.726 128.835 59.468 128.031 59.468ZM136.418 63.068L133.088 58.352H134.888L137.372 61.988L139.838 58.352H141.62L138.29 63.068L141.8 68H140L137.372 64.148L134.708 68H132.926L136.418 63.068ZM146.881 66.884C147.121 66.884 147.367 66.866 147.619 66.83C147.871 66.782 148.075 66.734 148.231 66.686V67.892C148.063 67.976 147.823 68.042 147.511 68.09C147.199 68.15 146.899 68.18 146.611 68.18C146.107 68.18 145.639 68.096 145.207 67.928C144.787 67.748 144.445 67.442 144.181 67.01C143.917 66.578 143.785 65.972 143.785 65.192V59.576H142.417V58.82L143.803 58.19L144.433 56.138H145.369V58.352H148.159V59.576H145.369V65.156C145.369 65.744 145.507 66.182 145.783 66.47C146.071 66.746 146.437 66.884 146.881 66.884Z" fill="#595959"/>
<rect x="77" y="92" width="46" height="46" rx="2" fill="white"/>
<rect x="77" y="92" width="46" height="46" rx="2" stroke="#333333" stroke-width="2"/>
<path d="M151.05 115.556C151.05 116.552 150.924 117.458 150.672 118.274C150.432 119.078 150.06 119.774 149.556 120.362C149.064 120.95 148.44 121.4 147.684 121.712C146.94 122.024 146.07 122.18 145.074 122.18C144.054 122.18 143.166 122.024 142.41 121.712C141.666 121.388 141.042 120.938 140.538 120.362C140.046 119.774 139.68 119.072 139.44 118.256C139.2 117.44 139.08 116.534 139.08 115.538C139.08 114.218 139.296 113.066 139.728 112.082C140.16 111.098 140.82 110.33 141.708 109.778C142.608 109.226 143.736 108.95 145.092 108.95C146.412 108.95 147.51 109.226 148.386 109.778C149.274 110.318 149.94 111.086 150.384 112.082C150.828 113.066 151.05 114.224 151.05 115.556ZM141.132 115.556C141.132 116.588 141.27 117.476 141.546 118.22C141.822 118.952 142.254 119.522 142.842 119.93C143.43 120.326 144.174 120.524 145.074 120.524C145.986 120.524 146.73 120.326 147.306 119.93C147.882 119.522 148.308 118.952 148.584 118.22C148.86 117.476 148.998 116.588 148.998 115.556C148.998 114.008 148.686 112.802 148.062 111.938C147.45 111.062 146.46 110.624 145.092 110.624C144.18 110.624 143.43 110.822 142.842 111.218C142.254 111.614 141.822 112.178 141.546 112.91C141.27 113.642 141.132 114.524 141.132 115.556ZM158.469 112.118C159.633 112.118 160.569 112.538 161.277 113.378C161.997 114.218 162.357 115.472 162.357 117.14C162.357 118.232 162.195 119.156 161.871 119.912C161.547 120.668 161.091 121.238 160.503 121.622C159.915 121.994 159.231 122.18 158.451 122.18C157.959 122.18 157.527 122.12 157.155 122C156.783 121.868 156.465 121.7 156.201 121.496C155.949 121.28 155.727 121.052 155.535 120.812H155.409C155.445 121.028 155.475 121.286 155.499 121.586C155.523 121.874 155.535 122.132 155.535 122.36V126.32H153.627V112.298H155.175L155.445 113.594H155.535C155.727 113.33 155.955 113.084 156.219 112.856C156.483 112.628 156.801 112.448 157.173 112.316C157.545 112.184 157.977 112.118 158.469 112.118ZM158.019 113.684C157.419 113.684 156.939 113.804 156.579 114.044C156.219 114.272 155.955 114.62 155.787 115.088C155.631 115.544 155.547 116.126 155.535 116.834V117.122C155.535 117.866 155.613 118.502 155.769 119.03C155.925 119.546 156.183 119.942 156.543 120.218C156.915 120.482 157.419 120.614 158.055 120.614C158.595 120.614 159.033 120.47 159.369 120.182C159.717 119.882 159.975 119.468 160.143 118.94C160.311 118.412 160.395 117.8 160.395 117.104C160.395 116.048 160.203 115.214 159.819 114.602C159.435 113.99 158.835 113.684 158.019 113.684ZM168.281 120.632C168.533 120.632 168.791 120.608 169.055 120.56C169.319 120.512 169.547 120.458 169.739 120.398V121.838C169.535 121.934 169.259 122.012 168.911 122.072C168.563 122.144 168.215 122.18 167.867 122.18C167.339 122.18 166.853 122.09 166.409 121.91C165.977 121.73 165.629 121.418 165.365 120.974C165.101 120.53 164.969 119.912 164.969 119.12V113.756H163.619V112.892L165.041 112.172L165.707 110.12H166.877V112.298H169.649V113.756H166.877V119.084C166.877 119.612 167.003 120.002 167.255 120.254C167.519 120.506 167.861 120.632 168.281 120.632ZM173.588 112.298V122H171.68V112.298H173.588ZM172.652 108.608C172.94 108.608 173.192 108.692 173.408 108.86C173.624 109.028 173.732 109.31 173.732 109.706C173.732 110.09 173.624 110.372 173.408 110.552C173.192 110.72 172.94 110.804 172.652 110.804C172.34 110.804 172.076 110.72 171.86 110.552C171.656 110.372 171.554 110.09 171.554 109.706C171.554 109.31 171.656 109.028 171.86 108.86C172.076 108.692 172.34 108.608 172.652 108.608ZM185.134 117.14C185.134 117.944 185.026 118.658 184.81 119.282C184.594 119.906 184.288 120.434 183.892 120.866C183.496 121.298 183.016 121.628 182.452 121.856C181.888 122.072 181.252 122.18 180.544 122.18C179.896 122.18 179.296 122.072 178.744 121.856C178.192 121.628 177.712 121.298 177.304 120.866C176.908 120.434 176.596 119.906 176.368 119.282C176.14 118.658 176.026 117.938 176.026 117.122C176.026 116.054 176.206 115.148 176.566 114.404C176.938 113.66 177.466 113.096 178.15 112.712C178.846 112.316 179.662 112.118 180.598 112.118C181.486 112.118 182.266 112.316 182.938 112.712C183.622 113.096 184.156 113.66 184.54 114.404C184.936 115.148 185.134 116.06 185.134 117.14ZM177.988 117.14C177.988 117.86 178.078 118.484 178.258 119.012C178.438 119.528 178.72 119.924 179.104 120.2C179.488 120.476 179.98 120.614 180.58 120.614C181.18 120.614 181.672 120.476 182.056 120.2C182.44 119.924 182.722 119.528 182.902 119.012C183.082 118.484 183.172 117.86 183.172 117.14C183.172 116.396 183.076 115.772 182.884 115.268C182.704 114.764 182.422 114.38 182.038 114.116C181.666 113.84 181.174 113.702 180.562 113.702C179.662 113.702 179.008 114.002 178.6 114.602C178.192 115.202 177.988 116.048 177.988 117.14ZM192.467 112.118C193.595 112.118 194.459 112.4 195.059 112.964C195.659 113.528 195.959 114.434 195.959 115.682V122H194.069V115.952C194.069 115.196 193.907 114.632 193.583 114.26C193.271 113.876 192.767 113.684 192.071 113.684C191.087 113.684 190.403 113.978 190.019 114.566C189.647 115.154 189.461 116 189.461 117.104V122H187.553V112.298H189.065L189.335 113.594H189.443C189.659 113.258 189.923 112.982 190.235 112.766C190.547 112.55 190.895 112.388 191.279 112.28C191.663 112.172 192.059 112.118 192.467 112.118ZM208.768 122H206.878V113.468C206.878 113.168 206.878 112.892 206.878 112.64C206.89 112.376 206.902 112.124 206.914 111.884C206.926 111.632 206.938 111.392 206.95 111.164C206.794 111.32 206.632 111.47 206.464 111.614C206.296 111.758 206.104 111.926 205.888 112.118L204.484 113.252L203.512 112.028L207.184 109.148H208.768V122Z" fill="#333333"/>
<path d="M149.574 151H147.954V145.006H141.366V151H139.746V138.148H141.366V143.584H147.954V138.148H149.574V151ZM153.682 137.734C153.922 137.734 154.132 137.818 154.312 137.986C154.504 138.142 154.6 138.394 154.6 138.742C154.6 139.078 154.504 139.33 154.312 139.498C154.132 139.666 153.922 139.75 153.682 139.75C153.418 139.75 153.196 139.666 153.016 139.498C152.836 139.33 152.746 139.078 152.746 138.742C152.746 138.394 152.836 138.142 153.016 137.986C153.196 137.818 153.418 137.734 153.682 137.734ZM154.456 141.352V151H152.872V141.352H154.456ZM162.156 141.172C163.308 141.172 164.178 141.454 164.766 142.018C165.354 142.57 165.648 143.47 165.648 144.718V151H164.082V144.826C164.082 143.278 163.362 142.504 161.922 142.504C160.854 142.504 160.116 142.804 159.708 143.404C159.3 144.004 159.096 144.868 159.096 145.996V151H157.512V141.352H158.79L159.024 142.666H159.114C159.426 142.162 159.858 141.79 160.41 141.55C160.962 141.298 161.544 141.172 162.156 141.172ZM171.861 149.884C172.101 149.884 172.347 149.866 172.599 149.83C172.851 149.782 173.055 149.734 173.211 149.686V150.892C173.043 150.976 172.803 151.042 172.491 151.09C172.179 151.15 171.879 151.18 171.591 151.18C171.087 151.18 170.619 151.096 170.187 150.928C169.767 150.748 169.425 150.442 169.161 150.01C168.897 149.578 168.765 148.972 168.765 148.192V142.576H167.397V141.82L168.783 141.19L169.413 139.138H170.349V141.352H173.139V142.576H170.349V148.156C170.349 148.744 170.487 149.182 170.763 149.47C171.051 149.746 171.417 149.884 171.861 149.884ZM183.041 149.884C183.281 149.884 183.527 149.866 183.779 149.83C184.031 149.782 184.235 149.734 184.391 149.686V150.892C184.223 150.976 183.983 151.042 183.671 151.09C183.359 151.15 183.059 151.18 182.771 151.18C182.267 151.18 181.799 151.096 181.367 150.928C180.947 150.748 180.605 150.442 180.341 150.01C180.077 149.578 179.945 148.972 179.945 148.192V142.576H178.577V141.82L179.963 141.19L180.593 139.138H181.529V141.352H184.319V142.576H181.529V148.156C181.529 148.744 181.667 149.182 181.943 149.47C182.231 149.746 182.597 149.884 183.041 149.884ZM190.049 141.172C190.877 141.172 191.585 141.352 192.173 141.712C192.773 142.072 193.229 142.582 193.541 143.242C193.865 143.89 194.027 144.652 194.027 145.528V146.482H187.421C187.445 147.574 187.721 148.408 188.249 148.984C188.789 149.548 189.539 149.83 190.499 149.83C191.111 149.83 191.651 149.776 192.119 149.668C192.599 149.548 193.091 149.38 193.595 149.164V150.55C193.103 150.766 192.617 150.922 192.137 151.018C191.657 151.126 191.087 151.18 190.427 151.18C189.515 151.18 188.705 150.994 187.997 150.622C187.301 150.25 186.755 149.698 186.359 148.966C185.975 148.222 185.783 147.316 185.783 146.248C185.783 145.192 185.957 144.286 186.305 143.53C186.665 142.774 187.163 142.192 187.799 141.784C188.447 141.376 189.197 141.172 190.049 141.172ZM190.031 142.468C189.275 142.468 188.675 142.714 188.231 143.206C187.799 143.686 187.541 144.358 187.457 145.222H192.371C192.359 144.406 192.167 143.746 191.795 143.242C191.423 142.726 190.835 142.468 190.031 142.468ZM198.418 146.068L195.088 141.352H196.888L199.372 144.988L201.838 141.352H203.62L200.29 146.068L203.8 151H202L199.372 147.148L196.708 151H194.926L198.418 146.068ZM208.881 149.884C209.121 149.884 209.367 149.866 209.619 149.83C209.871 149.782 210.075 149.734 210.231 149.686V150.892C210.063 150.976 209.823 151.042 209.511 151.09C209.199 151.15 208.899 151.18 208.611 151.18C208.107 151.18 207.639 151.096 207.207 150.928C206.787 150.748 206.445 150.442 206.181 150.01C205.917 149.578 205.785 148.972 205.785 148.192V142.576H204.417V141.82L205.803 141.19L206.433 139.138H207.369V141.352H210.159V142.576H207.369V148.156C207.369 148.744 207.507 149.182 207.783 149.47C208.071 149.746 208.437 149.884 208.881 149.884Z" fill="#595959"/>
<rect x="77" y="175" width="46" height="46" rx="2" fill="white"/>
<rect x="77" y="175" width="46" height="46" rx="2" stroke="#333333" stroke-width="2"/>
<path d="M95.7242 207.362L87.0575 198.695C86.5368 198.174 86.5368 197.33 87.0575 196.809L88.9431 194.924C89.4637 194.403 90.308 194.403 90.8287 194.924L96.667 200.762L109.172 188.257C109.693 187.737 110.537 187.737 111.058 188.257L112.943 190.143C113.464 190.664 113.464 191.508 112.943 192.028L97.6098 207.362C97.0891 207.883 96.2448 207.883 95.7242 207.362V207.362Z" fill="#333333"/>
<path d="M151.05 198.556C151.05 199.552 150.924 200.458 150.672 201.274C150.432 202.078 150.06 202.774 149.556 203.362C149.064 203.95 148.44 204.4 147.684 204.712C146.94 205.024 146.07 205.18 145.074 205.18C144.054 205.18 143.166 205.024 142.41 204.712C141.666 204.388 141.042 203.938 140.538 203.362C140.046 202.774 139.68 202.072 139.44 201.256C139.2 200.44 139.08 199.534 139.08 198.538C139.08 197.218 139.296 196.066 139.728 195.082C140.16 194.098 140.82 193.33 141.708 192.778C142.608 192.226 143.736 191.95 145.092 191.95C146.412 191.95 147.51 192.226 148.386 192.778C149.274 193.318 149.94 194.086 150.384 195.082C150.828 196.066 151.05 197.224 151.05 198.556ZM141.132 198.556C141.132 199.588 141.27 200.476 141.546 201.22C141.822 201.952 142.254 202.522 142.842 202.93C143.43 203.326 144.174 203.524 145.074 203.524C145.986 203.524 146.73 203.326 147.306 202.93C147.882 202.522 148.308 201.952 148.584 201.22C148.86 200.476 148.998 199.588 148.998 198.556C148.998 197.008 148.686 195.802 148.062 194.938C147.45 194.062 146.46 193.624 145.092 193.624C144.18 193.624 143.43 193.822 142.842 194.218C142.254 194.614 141.822 195.178 141.546 195.91C141.27 196.642 141.132 197.524 141.132 198.556ZM158.469 195.118C159.633 195.118 160.569 195.538 161.277 196.378C161.997 197.218 162.357 198.472 162.357 200.14C162.357 201.232 162.195 202.156 161.871 202.912C161.547 203.668 161.091 204.238 160.503 204.622C159.915 204.994 159.231 205.18 158.451 205.18C157.959 205.18 157.527 205.12 157.155 205C156.783 204.868 156.465 204.7 156.201 204.496C155.949 204.28 155.727 204.052 155.535 203.812H155.409C155.445 204.028 155.475 204.286 155.499 204.586C155.523 204.874 155.535 205.132 155.535 205.36V209.32H153.627V195.298H155.175L155.445 196.594H155.535C155.727 196.33 155.955 196.084 156.219 195.856C156.483 195.628 156.801 195.448 157.173 195.316C157.545 195.184 157.977 195.118 158.469 195.118ZM158.019 196.684C157.419 196.684 156.939 196.804 156.579 197.044C156.219 197.272 155.955 197.62 155.787 198.088C155.631 198.544 155.547 199.126 155.535 199.834V200.122C155.535 200.866 155.613 201.502 155.769 202.03C155.925 202.546 156.183 202.942 156.543 203.218C156.915 203.482 157.419 203.614 158.055 203.614C158.595 203.614 159.033 203.47 159.369 203.182C159.717 202.882 159.975 202.468 160.143 201.94C160.311 201.412 160.395 200.8 160.395 200.104C160.395 199.048 160.203 198.214 159.819 197.602C159.435 196.99 158.835 196.684 158.019 196.684ZM168.281 203.632C168.533 203.632 168.791 203.608 169.055 203.56C169.319 203.512 169.547 203.458 169.739 203.398V204.838C169.535 204.934 169.259 205.012 168.911 205.072C168.563 205.144 168.215 205.18 167.867 205.18C167.339 205.18 166.853 205.09 166.409 204.91C165.977 204.73 165.629 204.418 165.365 203.974C165.101 203.53 164.969 202.912 164.969 202.12V196.756H163.619V195.892L165.041 195.172L165.707 193.12H166.877V195.298H169.649V196.756H166.877V202.084C166.877 202.612 167.003 203.002 167.255 203.254C167.519 203.506 167.861 203.632 168.281 203.632ZM173.588 195.298V205H171.68V195.298H173.588ZM172.652 191.608C172.94 191.608 173.192 191.692 173.408 191.86C173.624 192.028 173.732 192.31 173.732 192.706C173.732 193.09 173.624 193.372 173.408 193.552C173.192 193.72 172.94 193.804 172.652 193.804C172.34 193.804 172.076 193.72 171.86 193.552C171.656 193.372 171.554 193.09 171.554 192.706C171.554 192.31 171.656 192.028 171.86 191.86C172.076 191.692 172.34 191.608 172.652 191.608ZM185.134 200.14C185.134 200.944 185.026 201.658 184.81 202.282C184.594 202.906 184.288 203.434 183.892 203.866C183.496 204.298 183.016 204.628 182.452 204.856C181.888 205.072 181.252 205.18 180.544 205.18C179.896 205.18 179.296 205.072 178.744 204.856C178.192 204.628 177.712 204.298 177.304 203.866C176.908 203.434 176.596 202.906 176.368 202.282C176.14 201.658 176.026 200.938 176.026 200.122C176.026 199.054 176.206 198.148 176.566 197.404C176.938 196.66 177.466 196.096 178.15 195.712C178.846 195.316 179.662 195.118 180.598 195.118C181.486 195.118 182.266 195.316 182.938 195.712C183.622 196.096 184.156 196.66 184.54 197.404C184.936 198.148 185.134 199.06 185.134 200.14ZM177.988 200.14C177.988 200.86 178.078 201.484 178.258 202.012C178.438 202.528 178.72 202.924 179.104 203.2C179.488 203.476 179.98 203.614 180.58 203.614C181.18 203.614 181.672 203.476 182.056 203.2C182.44 202.924 182.722 202.528 182.902 202.012C183.082 201.484 183.172 200.86 183.172 200.14C183.172 199.396 183.076 198.772 182.884 198.268C182.704 197.764 182.422 197.38 182.038 197.116C181.666 196.84 181.174 196.702 180.562 196.702C179.662 196.702 179.008 197.002 178.6 197.602C178.192 198.202 177.988 199.048 177.988 200.14ZM192.467 195.118C193.595 195.118 194.459 195.4 195.059 195.964C195.659 196.528 195.959 197.434 195.959 198.682V205H194.069V198.952C194.069 198.196 193.907 197.632 193.583 197.26C193.271 196.876 192.767 196.684 192.071 196.684C191.087 196.684 190.403 196.978 190.019 197.566C189.647 198.154 189.461 199 189.461 200.104V205H187.553V195.298H189.065L189.335 196.594H189.443C189.659 196.258 189.923 195.982 190.235 195.766C190.547 195.55 190.895 195.388 191.279 195.28C191.663 195.172 192.059 195.118 192.467 195.118ZM211.54 205H202.9V203.524L206.212 200.158C206.86 199.498 207.4 198.928 207.832 198.448C208.264 197.956 208.588 197.488 208.804 197.044C209.02 196.588 209.128 196.096 209.128 195.568C209.128 194.908 208.936 194.416 208.552 194.092C208.168 193.756 207.67 193.588 207.058 193.588C206.47 193.588 205.942 193.702 205.474 193.93C205.006 194.146 204.52 194.452 204.016 194.848L202.99 193.57C203.338 193.27 203.71 193 204.106 192.76C204.514 192.52 204.964 192.328 205.456 192.184C205.96 192.04 206.512 191.968 207.112 191.968C207.928 191.968 208.63 192.112 209.218 192.4C209.806 192.676 210.256 193.072 210.568 193.588C210.892 194.104 211.054 194.71 211.054 195.406C211.054 195.922 210.976 196.408 210.82 196.864C210.664 197.308 210.436 197.746 210.136 198.178C209.848 198.61 209.494 199.048 209.074 199.492C208.654 199.936 208.192 200.404 207.688 200.896L205.294 203.218V203.308H211.54V205Z" fill="#333333"/>
<g clip-path="url(#clip1_67375_1925)">
<rect x="218" y="147" width="45" height="1" fill="#C54600"/>
<g clip-path="url(#clip2_67375_1925)">
<rect x="263" y="135" width="24" height="24" rx="12" fill="#C54600"/>
<path d="M275.112 152.139C274.588 152.136 274.083 152.048 273.596 151.876C273.112 151.703 272.677 151.423 272.293 151.036C271.908 150.648 271.604 150.134 271.378 149.494C271.156 148.855 271.045 148.069 271.045 147.138C271.048 146.283 271.146 145.519 271.338 144.846C271.534 144.17 271.812 143.596 272.174 143.126C272.538 142.655 272.974 142.297 273.481 142.052C273.988 141.803 274.557 141.679 275.186 141.679C275.866 141.679 276.466 141.812 276.986 142.077C277.507 142.339 277.924 142.695 278.239 143.146C278.557 143.596 278.749 144.102 278.816 144.662H276.693C276.61 144.307 276.436 144.029 276.171 143.827C275.906 143.625 275.578 143.523 275.186 143.523C274.524 143.523 274.02 143.812 273.675 144.388C273.334 144.965 273.16 145.749 273.153 146.74H273.223C273.375 146.438 273.581 146.182 273.839 145.969C274.101 145.754 274.398 145.59 274.729 145.477C275.064 145.361 275.417 145.303 275.788 145.303C276.391 145.303 276.928 145.446 277.399 145.731C277.869 146.013 278.241 146.4 278.512 146.894C278.784 147.388 278.92 147.953 278.92 148.589C278.92 149.279 278.759 149.892 278.438 150.429C278.12 150.966 277.674 151.387 277.1 151.692C276.53 151.993 275.868 152.143 275.112 152.139ZM275.102 150.449C275.433 150.449 275.73 150.369 275.992 150.21C276.254 150.051 276.459 149.836 276.608 149.564C276.757 149.292 276.832 148.987 276.832 148.649C276.832 148.311 276.757 148.008 276.608 147.739C276.462 147.471 276.26 147.257 276.002 147.098C275.743 146.939 275.448 146.859 275.117 146.859C274.868 146.859 274.638 146.906 274.426 146.999C274.217 147.091 274.033 147.221 273.874 147.386C273.718 147.552 273.596 147.744 273.506 147.963C273.417 148.179 273.372 148.409 273.372 148.654C273.372 148.982 273.446 149.282 273.596 149.554C273.748 149.826 273.953 150.043 274.212 150.205C274.474 150.368 274.77 150.449 275.102 150.449Z" fill="white"/>
</g>
</g>
<g clip-path="url(#clip3_67375_1925)">
<rect x="194" y="113.5" width="81" height="1" fill="#C54600"/>
<g clip-path="url(#clip4_67375_1925)">
<rect x="263" y="101.5" width="24" height="24" rx="12" fill="#C54600"/>
<path d="M275.032 118.639C274.33 118.639 273.703 118.51 273.153 118.251C272.606 117.993 272.172 117.637 271.85 117.183C271.529 116.728 271.362 116.208 271.348 115.621H273.436C273.46 116.016 273.625 116.336 273.934 116.581C274.242 116.826 274.608 116.949 275.032 116.949C275.37 116.949 275.669 116.874 275.927 116.725C276.189 116.573 276.393 116.362 276.539 116.094C276.688 115.822 276.762 115.51 276.762 115.159C276.762 114.801 276.686 114.486 276.534 114.214C276.385 113.943 276.177 113.731 275.912 113.578C275.647 113.426 275.344 113.348 275.002 113.344C274.704 113.344 274.414 113.406 274.132 113.528C273.854 113.651 273.637 113.818 273.481 114.031L271.567 113.688L272.049 108.318H278.274V110.078H273.824L273.561 112.629H273.62C273.799 112.377 274.069 112.168 274.431 112.002C274.792 111.836 275.196 111.754 275.644 111.754C276.257 111.754 276.804 111.898 277.284 112.186C277.765 112.474 278.145 112.871 278.423 113.374C278.701 113.875 278.839 114.451 278.836 115.104C278.839 115.79 278.68 116.4 278.358 116.934C278.04 117.464 277.594 117.882 277.021 118.187C276.451 118.488 275.788 118.639 275.032 118.639Z" fill="white"/>
</g>
</g>
<rect x="20" y="198.5" width="60" height="1" fill="#C54600"/>
<g clip-path="url(#clip5_67375_1925)">
<rect x="20" y="186" width="24" height="24" rx="12" fill="#C54600"/>
<path d="M27.927 201.21V199.515L32.1777 192.818H33.6394V195.165H32.7743L30.0946 199.406V199.485H36.1351V201.21H27.927ZM32.8141 203V200.693L32.8539 199.942V192.818H34.8723V203H32.8141Z" fill="white"/>
</g>
<g clip-path="url(#clip6_67375_1925)">
<rect x="20" y="114" width="53" height="1" fill="#C54600"/>
<g clip-path="url(#clip7_67375_1925)">
<rect x="20" y="102" width="24" height="24" rx="12" fill="#C54600"/>
<path d="M31.9745 119.139C31.2321 119.139 30.5709 119.012 29.9909 118.756C29.4142 118.498 28.9584 118.143 28.6237 117.692C28.2922 117.238 28.1215 116.715 28.1116 116.121H30.2792C30.2925 116.37 30.3737 116.589 30.5228 116.778C30.6753 116.963 30.8775 117.107 31.1294 117.21C31.3812 117.313 31.6646 117.364 31.9795 117.364C32.3076 117.364 32.5976 117.306 32.8495 117.19C33.1014 117.074 33.2986 116.914 33.4411 116.708C33.5837 116.503 33.6549 116.266 33.6549 115.997C33.6549 115.725 33.5787 115.485 33.4262 115.276C33.2771 115.064 33.0616 114.898 32.7799 114.779C32.5015 114.66 32.1701 114.6 31.7856 114.6H30.836V113.019H31.7856C32.1104 113.019 32.3971 112.963 32.6457 112.85C32.8976 112.737 33.0931 112.582 33.2323 112.383C33.3715 112.181 33.4411 111.945 33.4411 111.677C33.4411 111.422 33.3798 111.198 33.2572 111.006C33.1379 110.81 32.9688 110.658 32.7501 110.548C32.5347 110.439 32.2828 110.384 31.9944 110.384C31.7027 110.384 31.4359 110.437 31.194 110.543C30.952 110.646 30.7581 110.794 30.6123 110.986C30.4665 111.178 30.3886 111.403 30.3786 111.662H28.3154C28.3254 111.075 28.4927 110.558 28.8176 110.111C29.1424 109.663 29.5799 109.314 30.1301 109.062C30.6836 108.807 31.3083 108.679 32.0044 108.679C32.707 108.679 33.3218 108.807 33.8488 109.062C34.3758 109.317 34.7851 109.662 35.0768 110.096C35.3718 110.527 35.5176 111.011 35.5143 111.548C35.5176 112.118 35.3403 112.593 34.9823 112.974C34.6277 113.356 34.1653 113.598 33.5953 113.7V113.78C34.3443 113.876 34.9144 114.136 35.3055 114.56C35.6999 114.981 35.8954 115.508 35.8921 116.141C35.8954 116.721 35.7281 117.237 35.39 117.688C35.0553 118.138 34.5929 118.493 34.0029 118.751C33.413 119.01 32.7368 119.139 31.9745 119.139Z" fill="white"/>
</g>
</g>
<g clip-path="url(#clip8_67375_1925)">
<rect x="20" y="63" width="48" height="1" fill="#C54600"/>
<g clip-path="url(#clip9_67375_1925)">
<rect x="20" y="51" width="24" height="24" rx="12" fill="#C54600"/>
<path d="M28.4161 68V66.4489L32.0404 63.093C32.3486 62.7947 32.6072 62.5263 32.816 62.2876C33.0281 62.049 33.1888 61.8153 33.2982 61.5866C33.4076 61.3546 33.4623 61.1044 33.4623 60.8359C33.4623 60.5376 33.3943 60.2808 33.2584 60.0653C33.1225 59.8466 32.9369 59.6792 32.7016 59.5632C32.4663 59.4439 32.1995 59.3842 31.9012 59.3842C31.5896 59.3842 31.3179 59.4472 31.0858 59.5732C30.8538 59.6991 30.6749 59.8797 30.5489 60.1151C30.423 60.3504 30.36 60.6304 30.36 60.9553H28.3167C28.3167 60.2891 28.4675 59.7107 28.7691 59.2202C29.0707 58.7296 29.4933 58.3501 30.0368 58.0817C30.5804 57.8132 31.2068 57.679 31.9161 57.679C32.6453 57.679 33.28 57.8082 33.8202 58.0668C34.3638 58.322 34.7864 58.6766 35.088 59.1307C35.3896 59.5848 35.5404 60.1051 35.5404 60.6918C35.5404 61.0762 35.4642 61.4557 35.3117 61.8303C35.1626 62.2048 34.8957 62.6207 34.5113 63.0781C34.1268 63.5322 33.5849 64.0774 32.8856 64.7138L31.3991 66.1705V66.2401H35.6746V68H28.4161Z" fill="white"/>
</g>
</g>
<g clip-path="url(#clip10_67375_1925)">
<rect x="20" y="32" width="48" height="1" fill="#C54600"/>
<g clip-path="url(#clip11_67375_1925)">
<rect x="20" y="20" width="24" height="24" rx="12" fill="#C54600"/>
<path d="M33.8302 26.8182V37H31.6775V28.8615H31.6178L29.2861 30.3232V28.4141L31.8067 26.8182H33.8302Z" fill="white"/>
</g>
</g>
</g>
<defs>
<clipPath id="clip0_67375_1925">
<rect width="313" height="242" fill="white"/>
</clipPath>
<clipPath id="clip1_67375_1925">
<rect width="69" height="24" fill="white" transform="translate(218 135)"/>
</clipPath>
<clipPath id="clip2_67375_1925">
<rect x="263" y="135" width="24" height="24" rx="12" fill="white"/>
</clipPath>
<clipPath id="clip3_67375_1925">
<rect width="81" height="24" fill="white" transform="translate(218 101.5)"/>
</clipPath>
<clipPath id="clip4_67375_1925">
<rect x="263" y="101.5" width="24" height="24" rx="12" fill="white"/>
</clipPath>
<clipPath id="clip5_67375_1925">
<rect x="20" y="186" width="24" height="24" rx="12" fill="white"/>
</clipPath>
<clipPath id="clip6_67375_1925">
<rect width="53" height="24" fill="white" transform="translate(20 102)"/>
</clipPath>
<clipPath id="clip7_67375_1925">
<rect x="20" y="102" width="24" height="24" rx="12" fill="white"/>
</clipPath>
<clipPath id="clip8_67375_1925">
<rect width="48" height="24" fill="white" transform="translate(20 51)"/>
</clipPath>
<clipPath id="clip9_67375_1925">
<rect x="20" y="51" width="24" height="24" rx="12" fill="white"/>
</clipPath>
<clipPath id="clip10_67375_1925">
<rect width="48" height="24" fill="white" transform="translate(20 20)"/>
</clipPath>
<clipPath id="clip11_67375_1925">
<rect x="20" y="20" width="24" height="24" rx="12" fill="white"/>
</clipPath>
</defs>
</svg>
