<svg xmlns="http://www.w3.org/2000/svg" width="355" height="33" viewBox="0 0 355 33">
	<path fill="#eb2d37" d="M40.6,21.6c-0.6,0.6-0.4,0.8-0.2,1.5l0.5,1.7l-5.5-1c-0.7-0.2-1.2-0.2-1.2,0.4l0.2,6.3h-1.7l0.2-6.3 c0-0.6-0.5-0.6-1.6-0.4l-5.1,1l0.7-1.7c0.2-0.6,0.3-1.1-0.2-1.5l-6-4.9L22,16c0.3-0.2,0.3-0.5,0.2-1.1L21,11.3l2.9,0.6 c0.8,0.2,1,0,1.2-0.4L26,9.8l2.9,3.2c0.5,0.6,1.2,0.2,1-0.7l-1.4-6.8l2.1,1.2c0.3,0.2,0.7,0.3,0.9-0.1l0,0.1l2.3-4.6L36,6.6 c0.3,0.5,0.5,0.4,1,0.2l1.9-1l-1.3,6.2c-0.3,1.2,0.4,1.6,1.2,0.8l2.8-3l0.7,1.7c0.2,0.5,0.6,0.4,1.1,0.3l2.9-0.6l-1,3.6V15 c-0.1,0.5-0.3,0.9,0.2,1.1l1,0.5L40.6,21.6z M0,32.5h16V0H0V32.5z M51.4,0v32.5h16V0H51.4z"/>
	<path d="M166.7,7.2v6.7h-2.1V7.8c0-1.5-0.6-2.2-1.9-2.2c-1.4,0-2.3,1.1-2.3,2.5v5.7h-2.1l0-9.7h2v1.4l0,0c0.6-1.1,1.8-1.7,3-1.7 C165.3,3.9,166.7,5.1,166.7,7.2z M177,19.3L177,19.3l0,13.4h-2v-1.3h0c-0.6,1.1-1.8,1.6-3,1.6c-3.1,0-4.5-2.3-4.5-5.2 c0-3.5,2.1-5,4.2-5c1.2,0,2.6,0.5,3.2,1.5h0v-4.9H177z M174.9,27.8c0-2.1-1-3.4-2.7-3.4c-2,0-2.7,1.8-2.7,3.5c0,1.7,0.8,3.3,2.7,3.3 C174.1,31.2,174.9,29.5,174.9,27.8z M177.7,9.6l-7.1,0c0,1.5,0.8,2.9,2.6,2.9c1.2,0,2-0.5,2.4-1.6h2c-0.5,2.1-2.3,3.3-4.4,3.3 c-3,0-4.7-2.1-4.7-5.1c0-2.8,1.8-5.1,4.7-5.1C176.2,3.9,178,6.7,177.7,9.6z M175.5,8.2c-0.1-1.3-1-2.6-2.4-2.6c0,0,0,0-0.1,0 c-1.4,0-2.5,1.2-2.5,2.6H175.5z M128.7,31.1c-2.9,0-4.1-2.5-4.1-5.1c0-2.6,1.2-5.1,4.1-5.1c2,0,2.9,1.1,3.3,2.7v0h2.3 c-0.3-2.9-2.6-4.6-5.7-4.6c-4,0-6.4,3.2-6.4,7c0,3.8,2.4,7,6.4,7c3.2,0,5.5-2.2,5.7-5.4h-2.3C131.9,29.5,130.8,31.1,128.7,31.1z M127,12.6L127,12.6l0,1.3h2.1V4.2H127v5.6c0,1.5-0.6,2.6-2.4,2.6c-1.2,0-1.9-0.6-1.9-2.3V4.2h-2.1v6.2c0,2.5,1.1,3.8,3.6,3.8 C125.4,14.2,126.4,13.5,127,12.6z M187.9,31.2c0.2,0,0.4,0,0.5,0v1.5c-0.4,0.1-0.9,0.2-1.3,0.2c-0.9,0-1.5-0.3-1.6-1.2 c-0.9,0.8-2.1,1.2-3.4,1.2c-1.7,0-3.3-0.9-3.3-2.8c0-2.4,1.9-2.8,3.7-3c1.5-0.3,2.9-0.1,2.9-1.4c0-1.1-1.1-1.3-2-1.3 c-1.2,0-2,0.5-2.1,1.5h-2.1c0.1-2.5,2.3-3.2,4.4-3.2c1.9,0,3.9,0.8,3.9,2.8l0,0v5C187.4,31,187.5,31.2,187.9,31.2z M185.3,29.4 L185.3,29.4l0-1.6c-0.7,0.4-1.7,0.4-2.6,0.6c-0.9,0.2-1.7,0.5-1.7,1.6c0,1,1.2,1.2,2,1.2C183.8,31.2,185.3,30.7,185.3,29.4z M151.7,22.7c-1.2,0-2.4,0.7-3,1.7l0,0V23h-2l0,9.7h2.1v-5.7c0-1.4,0.9-2.5,2.3-2.5c1.3,0,1.9,0.7,1.9,2.2v6.1h2.1V26 C155.2,23.8,153.9,22.7,151.7,22.7z M145.4,14.1c-3,0-4.7-2.1-4.7-5.1c0-2.8,1.8-5.1,4.7-5.1c3.1,0,4.9,2.8,4.6,5.7l-7.1,0 c0,1.5,0.8,2.9,2.6,2.9c1.2,0,2-0.5,2.4-1.6h2C149.3,13,147.5,14.1,145.4,14.1z M142.8,8.2h5c-0.1-1.3-1-2.6-2.4-2.6c0,0,0,0-0.1,0 C143.9,5.7,142.8,6.8,142.8,8.2z M190.1,3.9c-1.2,0-2.4,0.6-3,1.6c-0.4-1.1-1.5-1.6-2.7-1.6c-1.2-0.1-2.4,0.6-3,1.6h-0.1V4.2h-2v9.7 h2.1V8.2c0-1.6,1-2.5,2.1-2.5c1.3,0,1.7,0.7,1.7,2v6.2h2.1V8.3c0-1.6,0.6-2.6,2.1-2.6c1.7,0,1.8,1.1,1.8,2.6v5.6h2.1V7.2 C193.4,4.8,192.2,3.9,190.1,3.9z M166.1,31.2c0.2,0,0.4,0,0.5,0v1.5c-0.4,0.1-0.9,0.2-1.3,0.2c-0.9,0-1.5-0.3-1.7-1.2 c-0.9,0.8-2.1,1.2-3.4,1.2c-1.7,0-3.3-0.9-3.3-2.8c0-2.4,1.9-2.8,3.7-3c1.5-0.3,2.9-0.1,2.9-1.4c0-1.1-1.1-1.3-2-1.3 c-1.2,0-2,0.5-2.1,1.5h-2.1c0.1-2.5,2.3-3.2,4.4-3.2c1.9,0,3.9,0.8,3.9,2.8l0,0v5C165.5,31,165.7,31.2,166.1,31.2z M163.4,27.8 c-0.7,0.4-1.7,0.5-2.6,0.6c-0.9,0.2-1.7,0.5-1.7,1.6c0,1,1.2,1.2,2,1.2c0.9,0,2.4-0.5,2.4-1.8v0V27.8z M157.2,4 c-0.3,0-0.5-0.1-0.8-0.1c-1.3,0.1-2.4,0.9-2.8,2.2h0V4.2h-2v9.7h2.1V9.3c0-2.1,1.2-3.3,2.6-3.3c0.3,0,0.6,0,0.9,0.1V4z M144.8,31.2 c0.2,0,0.4,0,0.5,0v1.5c-0.4,0.1-0.9,0.2-1.3,0.2c-0.9,0-1.5-0.3-1.7-1.2c-0.9,0.8-2.1,1.2-3.4,1.2c-1.7,0-3.3-0.9-3.3-2.8 c0-2.4,1.9-2.8,3.7-3c1.5-0.3,2.9-0.1,2.9-1.4c0-1.1-1.1-1.3-2-1.3c-1.2,0-2,0.5-2.1,1.5h-2.1c0.2-2.5,2.3-3.2,4.4-3.2 c1.9,0,3.9,0.8,3.9,2.8l0,0v5C144.3,31,144.5,31.2,144.8,31.2z M142.2,29.4L142.2,29.4l0-1.6c-0.7,0.4-1.7,0.4-2.6,0.6 c-0.9,0.2-1.7,0.5-1.7,1.6c0,1,1.2,1.2,2,1.2C140.8,31.2,142.2,30.7,142.2,29.4z M107.2,6.9h-5.7v1.8h3.6c0,2.3-1.4,3.7-3.7,3.7 c-2.9,0-4.1-2.5-4.1-5.1c0-2.6,1.2-5.1,4.1-5.1c1.7,0,3.2,0.9,3.5,2.7h2.3c-0.4-3-2.8-4.6-5.7-4.6c-4,0-6.4,3.2-6.4,7 c0,3.8,2.4,7,6.4,7c1.6,0,2.8-0.5,4-1.9l0.4,1.6h1.5V6.9z M104.4,19.3L104.4,19.3l0,13.4h-2v-1.3h0c-0.6,1.1-1.8,1.6-3,1.6 c-3.1,0-4.5-2.3-4.5-5.2c0-3.5,2.1-5,4.2-5c1.2,0,2.6,0.5,3.2,1.5h0v-5H104.4z M102.4,27.8c0-2.1-1-3.4-2.7-3.4 c-2,0-2.7,1.8-2.7,3.5c0,1.7,0.8,3.3,2.7,3.3C101.5,31.2,102.4,29.5,102.4,27.8z M136.3,13.9l3.5-9.7h-2.2l-2.4,7.4h0l-2.5-7.4h-2.3 l3.5,9.7H136.3z M113.1,28.6c0,1.5-0.6,2.6-2.4,2.6c-1.2,0-1.9-0.6-1.9-2.3V23h-2.1v6.1c0,2.5,1.1,3.8,3.6,3.8 c1.1,0,2.2-0.6,2.8-1.6v1.4h2.1h0v-9.7h-2.1V28.6z M204.4,9.6l-7.1,0c0,1.5,0.8,2.9,2.6,2.9c1.2,0,2-0.5,2.4-1.6h2 c-0.5,2.1-2.3,3.3-4.4,3.3c-3,0-4.7-2.1-4.7-5.1c0-2.8,1.8-5.1,4.7-5.1C202.9,3.9,204.8,6.7,204.4,9.6z M202.3,8.2 c-0.1-1.3-1-2.6-2.4-2.6c0,0,0,0,0,0c-1.4,0-2.5,1.2-2.5,2.6H202.3z M219.6,11V5.8h1.9V4.2h-1.9V1.3h-2.1v2.9h-1.6v1.6h1.6v5.7 c0,1.6,0.5,2.5,2.7,2.5c0.5,0,0.9-0.1,1.4-0.1v-1.7c-0.3,0.1-0.6,0.1-0.9,0.1C219.6,12.3,219.6,11.9,219.6,11z M211.1,3.9 c-1.2,0-2.4,0.7-3,1.7l0,0V4.2h-2l0,9.7h2.1V8.2c0-1.4,0.9-2.5,2.3-2.5c1.3,0,1.9,0.7,1.9,2.2v6.1h2.2V7.2 C214.6,5.1,213.2,3.9,211.1,3.9z M118.8,9.1c0,3-1.8,5.1-4.9,5.1c-3.1,0-4.9-2.2-4.9-5.1s1.8-5.1,4.9-5.1 C117.1,3.9,118.8,6.1,118.8,9.1z M116.7,9.1c0-1.7-0.8-3.4-2.8-3.4c-1.9,0-2.8,1.7-2.8,3.4c0,1.7,0.8,3.4,2.8,3.4 C115.9,12.5,116.7,10.7,116.7,9.1z M344.7,3.8c-1.2,0-2.4,0.7-3,1.7l0,0V4.1h-2v9.7h2.1V8.1c0-1.4,0.9-2.5,2.3-2.5 c1.3,0,1.9,0.7,1.9,2.2v6.1h2.2V7.1C348.1,5,346.8,3.8,344.7,3.8z M280.3,13.8l3.5-9.7h-2.2l-2.4,7.4h0l-2.4-7.4h-2.3l3.5,9.7H280.3 z M354.1,12.2c-1,0-1-0.5-1-1.3V5.7h1.9V4.1h-1.9V1.2H351v2.9h-1.6v1.6h1.6v5.7c0,1.6,0.5,2.5,2.7,2.5c0.5,0,0.9-0.1,1.4-0.1v-1.7 C354.7,12.2,354.4,12.2,354.1,12.2z M337.9,9.5l-7.1,0c0,1.5,0.8,2.9,2.6,2.9c1.2,0,2-0.5,2.4-1.6h2c-0.5,2.1-2.3,3.3-4.4,3.3 c-3,0-4.7-2.1-4.7-5.1c0-2.8,1.8-5.1,4.7-5.1C336.4,3.8,338.3,6.6,337.9,9.5z M335.8,8.1c-0.1-1.3-1-2.6-2.4-2.6c0,0,0,0-0.1,0 c-1.4,0-2.5,1.2-2.5,2.6H335.8z M308.5,7.7v6.1h2.1V7.1c0-2.2-1.3-3.3-3.4-3.3c-1.2,0-2.4,0.7-3,1.7l0,0V4.1h-2v9.7h2.1V8.1 c0-1.4,0.9-2.5,2.3-2.5C307.8,5.5,308.4,6.2,308.5,7.7z M297.6,9.2c0-2.1,1.2-3.3,2.6-3.3c0.3,0,0.6,0,0.9,0.1V3.9 c-0.3,0-0.5-0.1-0.8-0.1c-1.3,0.1-2.4,0.9-2.8,2.1h0V4.1h-2v9.7h2.1V9.2z M261.8,22v0.8h-1.6v1.6h1.6v8.1h2.1v-8.1h1.8v-1.6h-1.8v-1 c0-0.8,0.5-1,1-1c0.3,0,0.7,0,1,0.1v-1.7c-0.5-0.1-1-0.1-1.5-0.1C263.1,19.2,261.8,19.6,261.8,22z M259.3,27.7c0,3-1.8,5.1-4.9,5.1 c-3.1,0-4.9-2.2-4.9-5.1s1.8-5.1,4.9-5.1C257.6,22.6,259.3,24.7,259.3,27.7z M257.2,27.7c0-1.7-0.8-3.4-2.8-3.4 c-1.9,0-2.8,1.7-2.8,3.4s0.8,3.4,2.8,3.4C256.4,31.1,257.2,29.4,257.2,27.7z M262,13.8v-7h-5.7v1.8h3.6c0,2.3-1.4,3.7-3.7,3.7 c-2.9,0-4.1-2.5-4.1-5.1s1.2-5.1,4.1-5.1c1.7,0,3.2,0.9,3.5,2.7h2.3c-0.4-3-2.8-4.6-5.7-4.6c-4,0-6.4,3.2-6.4,7s2.4,7,6.4,7 c1.6,0,2.8-0.5,4-1.9l0.4,1.6H262z M284.6,9c0-2.8,1.8-5.1,4.7-5.1c3.1,0,4.9,2.8,4.6,5.7l-7.1,0c0,1.5,0.8,2.9,2.6,2.9 c1.2,0,2-0.5,2.4-1.6h2c-0.5,2.1-2.3,3.3-4.4,3.3C286.3,14,284.6,11.9,284.6,9z M286.7,8.1h5c-0.1-1.3-1-2.6-2.4-2.6c0,0,0,0-0.1,0 C287.8,5.5,286.7,6.7,286.7,8.1z M278.2,30.9c-2.9,0-4.1-2.5-4.1-5.1s1.2-5.1,4.1-5.1c2,0,2.9,1.1,3.3,2.7h2.3 c-0.3-2.9-2.6-4.6-5.7-4.6c-4,0-6.4,3.2-6.4,7s2.4,7,6.4,7c3.2,0,5.5-2.2,5.7-5.4h-2.3C281.5,29.4,280.3,30.9,278.2,30.9z M268.7,14 L268.7,14c-3.1,0-4.9-2.2-4.9-5.1s1.8-5.1,4.9-5.1c3.1,0,4.9,2.1,4.9,5.1S271.8,14,268.7,14z M271.4,8.9c0-1.7-0.8-3.4-2.8-3.4 c-1.9,0-2.8,1.7-2.8,3.4s0.8,3.4,2.8,3.4C270.6,12.4,271.4,10.6,271.4,8.9z M324.4,19.2h2.1v13.4h-2v-1.3h0c-0.6,1.1-1.8,1.6-3,1.6 c-3.1,0-4.5-2.3-4.5-5.2c0-3.5,2.1-5,4.2-5c1.2,0,2.6,0.5,3.2,1.5h0V19.2z M324.4,27.7c0-2.1-1-3.4-2.7-3.4c-2,0-2.7,1.8-2.7,3.5 c0,1.7,0.8,3.3,2.7,3.3C323.6,31.1,324.4,29.3,324.4,27.7z M323.7,3.8c-1.2,0-2.4,0.6-3,1.6c-0.4-1.1-1.5-1.6-2.7-1.6 c-1.2-0.1-2.4,0.6-3,1.6h-0.1V4.1h-2h0v9.7h2.1V8c0-1.6,1-2.5,2.1-2.5c1.3,0,1.7,0.7,1.7,2v6.2h2.1V8.1c0-1.6,0.6-2.6,2.1-2.6 c1.7,0,1.8,1.1,1.8,2.6v5.7h2.1V7.1C326.9,4.7,325.7,3.8,323.7,3.8z M294.4,31.1c0.2,0,0.4,0,0.5,0v1.5c-0.4,0.1-0.9,0.2-1.3,0.2 c-0.9,0-1.5-0.3-1.6-1.2c-0.9,0.8-2.1,1.2-3.4,1.2c-1.7,0-3.3-0.9-3.3-2.8c0-2.4,1.9-2.8,3.7-3c1.5-0.3,2.9-0.1,2.9-1.4 c0-1.1-1.1-1.3-2-1.3c-1.2,0-2.1,0.5-2.2,1.5h-2.1c0.1-2.5,2.3-3.2,4.4-3.2c1.9,0,3.9,0.8,3.9,2.8l0,5 C293.9,30.9,294,31.1,294.4,31.1z M291.7,29.3l0-1.6c-0.7,0.4-1.7,0.4-2.6,0.6c-0.9,0.2-1.7,0.5-1.7,1.6c0,1,1.2,1.2,2,1.2 C290.3,31.1,291.7,30.6,291.7,29.3z M301.3,22.6c-1.2,0-2.4,0.7-3,1.7l0,0v-1.4h-2v9.7h2.1v-5.7c0-1.4,0.9-2.5,2.3-2.5 c1.3,0,1.9,0.7,1.9,2.2v6.1h2.2v-6.7C304.7,23.7,303.4,22.6,301.3,22.6z M337.4,31.1c0.2,0,0.4,0,0.5,0v1.5 c-0.4,0.1-0.9,0.2-1.3,0.2c-0.9,0-1.5-0.3-1.6-1.2c-0.9,0.8-2.1,1.2-3.4,1.2c-1.7,0-3.3-0.9-3.3-2.8c0-2.4,1.9-2.8,3.7-3 c1.5-0.3,2.9-0.1,2.9-1.4c0-1.1-1.1-1.3-2-1.3c-1.2,0-2,0.5-2.1,1.5h-2.1c0.1-2.5,2.3-3.2,4.4-3.2c1.9,0,3.9,0.8,3.9,2.8l0,5 C336.9,30.9,337,31.1,337.4,31.1z M334.8,29.3l0-1.6c-0.7,0.4-1.7,0.4-2.6,0.6c-0.9,0.2-1.7,0.5-1.7,1.6c0,1,1.2,1.2,2,1.2 C333.3,31.1,334.8,30.6,334.8,29.3z M315.5,31.1c0.2,0,0.4,0,0.5,0v1.5c-0.4,0.1-0.9,0.2-1.3,0.2c-0.9,0-1.5-0.3-1.6-1.2 c-0.9,0.8-2.1,1.2-3.4,1.2c-1.7,0-3.3-0.9-3.3-2.8c0-2.4,1.9-2.8,3.7-3c1.5-0.3,2.9-0.1,2.9-1.4c0-1.1-1.1-1.3-2-1.3 c-1.2,0-2,0.5-2.1,1.5h-2.1c0.2-2.5,2.3-3.2,4.4-3.2c1.9,0,3.9,0.8,3.9,2.8l0,5C315,30.9,315.1,31.1,315.5,31.1z M312.9,29.3l0-1.6 c-0.7,0.4-1.7,0.4-2.6,0.6c-0.9,0.2-1.7,0.5-1.7,1.6c0,1,1.2,1.2,2,1.2C311.5,31.1,312.9,30.6,312.9,29.3z"/>
</svg>
