<svg width="245" height="178" viewBox="0 0 245 178" fill="none" xmlns="http://www.w3.org/2000/svg">
<g clip-path="url(#clip0_843_2995)">
<path d="M0.800781 19.42V17.86H5.64078V19.42H0.800781ZM7.24609 19.42V17.86H12.0861V19.42H7.24609Z" fill="black"/>
<path d="M16 0H66V33H16V0Z" fill="#E6E6E6"/>
<path d="M24.5016 13.08C25.2083 13.08 25.8416 13.2133 26.4016 13.48C26.9749 13.7467 27.4616 14.1533 27.8616 14.7H27.9616L28.2016 13.28H29.6016V24.18C29.6016 25.7133 29.2083 26.8667 28.4216 27.64C27.6483 28.4133 26.4416 28.8 24.8016 28.8C23.2283 28.8 21.9416 28.5733 20.9416 28.12V26.5C21.9949 27.06 23.3149 27.34 24.9016 27.34C25.8216 27.34 26.5416 27.0667 27.0616 26.5201C27.5949 25.9867 27.8616 25.2533 27.8616 24.32V23.9C27.8616 23.74 27.8683 23.5133 27.8816 23.22C27.8949 22.9133 27.9083 22.7 27.9216 22.58H27.8416C27.1216 23.66 26.0149 24.2 24.5216 24.2C23.1349 24.2 22.0483 23.7133 21.2616 22.74C20.4883 21.7667 20.1016 20.4067 20.1016 18.66C20.1016 16.9533 20.4883 15.6 21.2616 14.6C22.0483 13.5867 23.1283 13.08 24.5016 13.08ZM24.7416 14.56C23.8483 14.56 23.1549 14.92 22.6616 15.64C22.1683 16.3467 21.9216 17.36 21.9216 18.68C21.9216 20 22.1616 21.0133 22.6416 21.72C23.1349 22.4133 23.8483 22.76 24.7816 22.76C25.8616 22.76 26.6483 22.4733 27.1416 21.9C27.6349 21.3133 27.8816 20.3733 27.8816 19.08V18.66C27.8816 17.1933 27.6283 16.1467 27.1216 15.52C26.6149 14.88 25.8216 14.56 24.7416 14.56ZM37.3063 24.2C36.3596 24.2 35.513 24.0067 34.7663 23.62C34.033 23.2333 33.453 22.6333 33.0263 21.82C32.613 21.0067 32.4063 19.9667 32.4063 18.7C32.4063 17.38 32.6263 16.3067 33.0663 15.48C33.5063 14.6533 34.0996 14.0467 34.8463 13.66C35.6063 13.2733 36.4663 13.08 37.4263 13.08C37.973 13.08 38.4996 13.14 39.0063 13.26C39.513 13.3667 39.9263 13.5 40.2463 13.66L39.7063 15.12C39.3863 15 39.013 14.8867 38.5863 14.78C38.1596 14.6733 37.7596 14.62 37.3863 14.62C35.2796 14.62 34.2263 15.9733 34.2263 18.68C34.2263 19.9733 34.4796 20.9667 34.9863 21.66C35.5063 22.34 36.273 22.68 37.2863 22.68C37.873 22.68 38.3863 22.62 38.8263 22.5C39.2796 22.38 39.693 22.2333 40.0663 22.06V23.62C39.7063 23.8067 39.3063 23.9467 38.8663 24.04C38.4396 24.1467 37.9196 24.2 37.3063 24.2ZM46.4157 24.2C45.0823 24.2 44.0157 23.74 43.2157 22.82C42.4157 21.8867 42.0157 20.5 42.0157 18.66C42.0157 16.82 42.4157 15.4333 43.2157 14.5C44.029 13.5533 45.1023 13.08 46.4357 13.08C47.2623 13.08 47.9357 13.2333 48.4557 13.54C48.989 13.8467 49.4223 14.22 49.7557 14.66H49.8757C49.8623 14.4867 49.8357 14.2333 49.7957 13.9C49.769 13.5533 49.7557 13.28 49.7557 13.08V8.80005H51.5157V24H50.0957L49.8357 22.56H49.7557C49.4357 23.0133 49.009 23.4 48.4757 23.72C47.9423 24.04 47.2557 24.2 46.4157 24.2ZM46.6957 22.74C47.829 22.74 48.6223 22.4333 49.0757 21.82C49.5423 21.1933 49.7757 20.2533 49.7757 19V18.68C49.7757 17.3467 49.5557 16.3267 49.1157 15.62C48.6757 14.9 47.8623 14.54 46.6757 14.54C45.729 14.54 45.0157 14.92 44.5357 15.68C44.069 16.4267 43.8357 17.4333 43.8357 18.7C43.8357 19.98 44.069 20.9733 44.5357 21.68C45.0157 22.3867 45.7357 22.74 46.6957 22.74ZM61.9004 21.04C61.9004 22.08 61.5137 22.8667 60.7404 23.4C59.967 23.9333 58.927 24.2 57.6204 24.2C56.8737 24.2 56.227 24.14 55.6804 24.02C55.147 23.9 54.6737 23.7333 54.2604 23.52V21.92C54.687 22.1333 55.2004 22.3333 55.8004 22.52C56.4137 22.6933 57.0337 22.78 57.6604 22.78C58.5537 22.78 59.2004 22.64 59.6004 22.36C60.0004 22.0667 60.2004 21.68 60.2004 21.2C60.2004 20.9333 60.127 20.6933 59.9804 20.48C59.8337 20.2667 59.567 20.0533 59.1804 19.84C58.807 19.6267 58.267 19.3867 57.5604 19.12C56.867 18.8533 56.2737 18.5867 55.7804 18.32C55.287 18.0533 54.907 17.7333 54.6404 17.36C54.3737 16.9867 54.2404 16.5067 54.2404 15.92C54.2404 15.0133 54.607 14.3133 55.3404 13.82C56.087 13.3267 57.0604 13.08 58.2604 13.08C58.9137 13.08 59.5204 13.1467 60.0804 13.28C60.6537 13.4 61.187 13.5733 61.6804 13.8L61.0804 15.2C60.627 15.0133 60.1537 14.8533 59.6604 14.72C59.167 14.5867 58.6604 14.52 58.1404 14.52C57.4204 14.52 56.867 14.64 56.4804 14.88C56.107 15.1067 55.9204 15.42 55.9204 15.82C55.9204 16.1133 56.007 16.3667 56.1804 16.58C56.3537 16.78 56.6404 16.98 57.0404 17.18C57.4537 17.3667 58.0004 17.5933 58.6804 17.86C59.3604 18.1133 59.9404 18.3733 60.4204 18.64C60.9004 18.9067 61.267 19.2333 61.5204 19.62C61.7737 19.9933 61.9004 20.4667 61.9004 21.04Z" fill="black"/>
<mask id="mask0_843_2995" style="mask-type:luminance" maskUnits="userSpaceOnUse" x="16" y="0" width="50" height="33">
<path d="M16 0H66V33H16V0Z" fill="white"/>
</mask>
<g mask="url(#mask0_843_2995)">
<path d="M66 31H16V35H66V31Z" fill="#666666"/>
</g>
<path d="M69.8008 19.42V17.86H74.6408V19.42H69.8008Z" fill="black"/>
<path d="M79 0H174V33H79V0Z" fill="#D6F5E1"/>
<path d="M87.5016 13.08C88.2083 13.08 88.8416 13.2133 89.4016 13.48C89.9749 13.7467 90.4616 14.1533 90.8616 14.7H90.9616L91.2016 13.28H92.6016V24.18C92.6016 25.7133 92.2083 26.8667 91.4216 27.64C90.6483 28.4133 89.4416 28.8 87.8016 28.8C86.2283 28.8 84.9416 28.5733 83.9416 28.12V26.5C84.9949 27.06 86.3149 27.34 87.9016 27.34C88.8216 27.34 89.5416 27.0667 90.0616 26.5201C90.5949 25.9867 90.8616 25.2533 90.8616 24.32V23.9C90.8616 23.74 90.8683 23.5133 90.8816 23.22C90.8949 22.9133 90.9083 22.7 90.9216 22.58H90.8416C90.1216 23.66 89.0149 24.2 87.5216 24.2C86.1349 24.2 85.0483 23.7133 84.2616 22.74C83.4883 21.7667 83.1016 20.4067 83.1016 18.66C83.1016 16.9533 83.4883 15.6 84.2616 14.6C85.0483 13.5867 86.1283 13.08 87.5016 13.08ZM87.7416 14.56C86.8483 14.56 86.1549 14.92 85.6616 15.64C85.1683 16.3467 84.9216 17.36 84.9216 18.68C84.9216 20 85.1616 21.0133 85.6416 21.72C86.1349 22.4133 86.8483 22.76 87.7816 22.76C88.8616 22.76 89.6483 22.4733 90.1416 21.9C90.6349 21.3133 90.8816 20.3733 90.8816 19.08V18.66C90.8816 17.1933 90.6283 16.1467 90.1216 15.52C89.6149 14.88 88.8216 14.56 87.7416 14.56ZM101.007 13.08C101.207 13.08 101.42 13.0933 101.647 13.12C101.887 13.1333 102.093 13.16 102.267 13.2L102.047 14.82C101.873 14.78 101.68 14.7467 101.467 14.72C101.267 14.6933 101.073 14.68 100.887 14.68C100.34 14.68 99.8263 14.8333 99.3463 15.14C98.8663 15.4333 98.4796 15.8533 98.1863 16.4C97.9063 16.9333 97.7663 17.56 97.7663 18.28V24H96.0063V13.28H97.4463L97.6463 15.24H97.7263C98.073 14.6533 98.5196 14.1467 99.0663 13.72C99.613 13.2933 100.26 13.08 101.007 13.08ZM107.938 13.1C109.244 13.1 110.211 13.3867 110.838 13.96C111.464 14.5333 111.778 15.4467 111.778 16.7V24H110.498L110.158 22.48H110.078C109.611 23.0667 109.118 23.5 108.598 23.78C108.091 24.06 107.384 24.2 106.478 24.2C105.504 24.2 104.698 23.9467 104.058 23.44C103.418 22.92 103.098 22.1133 103.098 21.02C103.098 19.9533 103.518 19.1333 104.358 18.56C105.198 17.9733 106.491 17.6533 108.238 17.6L110.058 17.54V16.9C110.058 16.0067 109.864 15.3867 109.478 15.04C109.091 14.6933 108.544 14.52 107.838 14.52C107.278 14.52 106.744 14.6067 106.238 14.78C105.731 14.94 105.258 15.1267 104.818 15.34L104.278 14.02C104.744 13.7667 105.298 13.5533 105.938 13.38C106.578 13.1933 107.244 13.1 107.938 13.1ZM108.458 18.82C107.124 18.8733 106.198 19.0867 105.678 19.46C105.171 19.8333 104.918 20.36 104.918 21.04C104.918 21.64 105.098 22.08 105.458 22.36C105.831 22.64 106.304 22.78 106.878 22.78C107.784 22.78 108.538 22.5333 109.138 22.04C109.738 21.5333 110.038 20.76 110.038 19.72V18.76L108.458 18.82ZM113.409 13.28H115.289L117.609 19.38C117.809 19.9133 117.989 20.4267 118.149 20.92C118.309 21.4 118.429 21.86 118.509 22.3H118.589C118.669 21.9667 118.795 21.5333 118.969 21C119.142 20.4533 119.322 19.9067 119.509 19.36L121.689 13.28H123.589L118.969 25.48C118.595 26.4933 118.109 27.3 117.509 27.9C116.922 28.5 116.109 28.8 115.069 28.8C114.749 28.8 114.469 28.78 114.229 28.74C113.989 28.7133 113.782 28.68 113.609 28.64V27.24C113.755 27.2667 113.929 27.2934 114.129 27.32C114.342 27.3467 114.562 27.3601 114.789 27.3601C115.402 27.3601 115.895 27.1868 116.269 26.84C116.655 26.4933 116.955 26.0333 117.169 25.46L117.729 24.04L113.409 13.28ZM132.264 21.04C132.264 22.08 131.877 22.8667 131.104 23.4C130.331 23.9333 129.291 24.2 127.984 24.2C127.237 24.2 126.591 24.14 126.044 24.02C125.511 23.9 125.037 23.7333 124.624 23.52V21.92C125.051 22.1333 125.564 22.3333 126.164 22.52C126.777 22.6933 127.397 22.78 128.024 22.78C128.917 22.78 129.564 22.64 129.964 22.36C130.364 22.0667 130.564 21.68 130.564 21.2C130.564 20.9333 130.491 20.6933 130.344 20.48C130.197 20.2667 129.931 20.0533 129.544 19.84C129.171 19.6267 128.631 19.3867 127.924 19.12C127.231 18.8533 126.637 18.5867 126.144 18.32C125.651 18.0533 125.271 17.7333 125.004 17.36C124.737 16.9867 124.604 16.5067 124.604 15.92C124.604 15.0133 124.971 14.3133 125.704 13.82C126.451 13.3267 127.424 13.08 128.624 13.08C129.277 13.08 129.884 13.1467 130.444 13.28C131.017 13.4 131.551 13.5733 132.044 13.8L131.444 15.2C130.991 15.0133 130.517 14.8533 130.024 14.72C129.531 14.5867 129.024 14.52 128.504 14.52C127.784 14.52 127.231 14.64 126.844 14.88C126.471 15.1067 126.284 15.42 126.284 15.82C126.284 16.1133 126.371 16.3667 126.544 16.58C126.717 16.78 127.004 16.98 127.404 17.18C127.817 17.3667 128.364 17.5933 129.044 17.86C129.724 18.1133 130.304 18.3733 130.784 18.64C131.264 18.9067 131.631 19.2333 131.884 19.62C132.137 19.9933 132.264 20.4667 132.264 21.04ZM139.154 24.2C138.208 24.2 137.361 24.0067 136.614 23.62C135.881 23.2333 135.301 22.6333 134.874 21.82C134.461 21.0067 134.254 19.9667 134.254 18.7C134.254 17.38 134.474 16.3067 134.914 15.48C135.354 14.6533 135.948 14.0467 136.694 13.66C137.454 13.2733 138.314 13.08 139.274 13.08C139.821 13.08 140.348 13.14 140.854 13.26C141.361 13.3667 141.774 13.5 142.094 13.66L141.554 15.12C141.234 15 140.861 14.8867 140.434 14.78C140.008 14.6733 139.608 14.62 139.234 14.62C137.128 14.62 136.074 15.9733 136.074 18.68C136.074 19.9733 136.328 20.9667 136.834 21.66C137.354 22.34 138.121 22.68 139.134 22.68C139.721 22.68 140.234 22.62 140.674 22.5C141.128 22.38 141.541 22.2333 141.914 22.06V23.62C141.554 23.8067 141.154 23.9467 140.714 24.04C140.288 24.1467 139.768 24.2 139.154 24.2ZM148.524 13.1C149.83 13.1 150.797 13.3867 151.424 13.96C152.05 14.5333 152.364 15.4467 152.364 16.7V24H151.084L150.744 22.48H150.664C150.197 23.0667 149.704 23.5 149.184 23.78C148.677 24.06 147.97 24.2 147.064 24.2C146.09 24.2 145.284 23.9467 144.644 23.44C144.004 22.92 143.684 22.1133 143.684 21.02C143.684 19.9533 144.104 19.1333 144.944 18.56C145.784 17.9733 147.077 17.6533 148.824 17.6L150.644 17.54V16.9C150.644 16.0067 150.45 15.3867 150.064 15.04C149.677 14.6933 149.13 14.52 148.424 14.52C147.864 14.52 147.33 14.6067 146.824 14.78C146.317 14.94 145.844 15.1267 145.404 15.34L144.864 14.02C145.33 13.7667 145.884 13.5533 146.524 13.38C147.164 13.1933 147.83 13.1 148.524 13.1ZM149.044 18.82C147.71 18.8733 146.784 19.0867 146.264 19.46C145.757 19.8333 145.504 20.36 145.504 21.04C145.504 21.64 145.684 22.08 146.044 22.36C146.417 22.64 146.89 22.78 147.464 22.78C148.37 22.78 149.124 22.5333 149.724 22.04C150.324 21.5333 150.624 20.76 150.624 19.72V18.76L149.044 18.82ZM157.435 24H155.675V8.80005H157.435V24ZM164.971 13.08C165.891 13.08 166.678 13.28 167.331 13.68C167.998 14.08 168.504 14.6467 168.851 15.38C169.211 16.1 169.391 16.9467 169.391 17.92V18.98H162.051C162.078 20.1933 162.384 21.12 162.971 21.76C163.571 22.3867 164.404 22.7 165.471 22.7C166.151 22.7 166.751 22.64 167.271 22.52C167.804 22.3867 168.351 22.2 168.911 21.96V23.5C168.364 23.74 167.824 23.9133 167.291 24.02C166.758 24.14 166.124 24.2 165.391 24.2C164.378 24.2 163.478 23.9933 162.691 23.58C161.918 23.1667 161.311 22.5533 160.871 21.74C160.444 20.9133 160.231 19.9067 160.231 18.72C160.231 17.5467 160.424 16.54 160.811 15.7C161.211 14.86 161.764 14.2133 162.471 13.76C163.191 13.3067 164.024 13.08 164.971 13.08ZM164.951 14.52C164.111 14.52 163.444 14.7933 162.951 15.34C162.471 15.8733 162.184 16.62 162.091 17.58H167.551C167.538 16.6733 167.324 15.94 166.911 15.38C166.498 14.8067 165.844 14.52 164.951 14.52Z" fill="black"/>
<mask id="mask1_843_2995" style="mask-type:luminance" maskUnits="userSpaceOnUse" x="79" y="0" width="95" height="33">
<path d="M79 0H174V33H79V0Z" fill="white"/>
</mask>
<g mask="url(#mask1_843_2995)">
<path d="M174 31H79V35H174V31Z" fill="#29A356"/>
</g>
<path d="M177.801 19.42V17.86H182.641V19.42H177.801Z" fill="black"/>
<path d="M187 0H228V33H187V0Z" fill="#D6E4F5"/>
<path d="M197.101 24H195.381V14.02C195.381 13.4467 195.388 12.9867 195.401 12.64C195.414 12.2933 195.434 11.9333 195.461 11.56C195.248 11.7733 195.054 11.9533 194.881 12.1C194.708 12.2467 194.488 12.4333 194.221 12.66L192.701 13.9L191.781 12.72L195.641 9.72H197.101V24ZM211.906 16.84C211.906 18.3733 211.746 19.6933 211.426 20.8C211.106 21.8933 210.6 22.7333 209.906 23.32C209.213 23.9067 208.293 24.2 207.146 24.2C205.533 24.2 204.34 23.5533 203.566 22.26C202.806 20.9533 202.426 19.1467 202.426 16.84C202.426 15.2933 202.58 13.9733 202.886 12.88C203.206 11.7867 203.713 10.9533 204.406 10.38C205.1 9.79333 206.013 9.5 207.146 9.5C208.746 9.5 209.94 10.1467 210.726 11.44C211.513 12.72 211.906 14.52 211.906 16.84ZM204.186 16.84C204.186 18.8 204.406 20.2667 204.846 21.24C205.3 22.2133 206.066 22.7 207.146 22.7C208.213 22.7 208.973 22.22 209.426 21.26C209.893 20.2867 210.126 18.8133 210.126 16.84C210.126 14.8933 209.893 13.4333 209.426 12.46C208.973 11.4867 208.213 11 207.146 11C206.066 11 205.3 11.4867 204.846 12.46C204.406 13.4333 204.186 14.8933 204.186 16.84ZM223.352 16.84C223.352 18.3733 223.192 19.6933 222.872 20.8C222.552 21.8933 222.045 22.7333 221.352 23.32C220.658 23.9067 219.738 24.2 218.592 24.2C216.978 24.2 215.785 23.5533 215.012 22.26C214.252 20.9533 213.872 19.1467 213.872 16.84C213.872 15.2933 214.025 13.9733 214.332 12.88C214.652 11.7867 215.158 10.9533 215.852 10.38C216.545 9.79333 217.458 9.5 218.592 9.5C220.192 9.5 221.385 10.1467 222.172 11.44C222.958 12.72 223.352 14.52 223.352 16.84ZM215.632 16.84C215.632 18.8 215.852 20.2667 216.292 21.24C216.745 22.2133 217.512 22.7 218.592 22.7C219.658 22.7 220.418 22.22 220.872 21.26C221.338 20.2867 221.572 18.8133 221.572 16.84C221.572 14.8933 221.338 13.4333 220.872 12.46C220.418 11.4867 219.658 11 218.592 11C217.512 11 216.745 11.4867 216.292 12.46C215.852 13.4333 215.632 14.8933 215.632 16.84Z" fill="black"/>
<mask id="mask2_843_2995" style="mask-type:luminance" maskUnits="userSpaceOnUse" x="187" y="0" width="41" height="33">
<path d="M187 0H228V33H187V0Z" fill="white"/>
</mask>
<g mask="url(#mask2_843_2995)">
<path d="M228 31H187V35H228V31Z" fill="#2962A3"/>
</g>
<g filter="url(#filter0_d_843_2995)">
<path d="M208.5 33V52" stroke="#2962A3" stroke-width="2"/>
</g>
<path d="M244 53H173V95H244V53Z" stroke="#2962A3" stroke-width="2"/>
<g filter="url(#filter1_d_843_2995)">
<path d="M126 33V108" stroke="#29A356" stroke-width="2"/>
</g>
<path d="M178 109H74V177H178V109Z" stroke="#29A356" stroke-width="2"/>
<g filter="url(#filter2_d_843_2995)">
<path d="M39 33V52" stroke="#666666" stroke-width="2"/>
</g>
<path d="M77 53H1V95H77V53Z" stroke="#666666" stroke-width="2"/>
<path d="M14.9947 68.148C16.6747 68.148 17.8987 68.478 18.6667 69.138C19.4347 69.798 19.8187 70.728 19.8187 71.928C19.8187 72.636 19.6567 73.302 19.3327 73.926C19.0207 74.538 18.4867 75.036 17.7307 75.42C16.9867 75.804 15.9727 75.996 14.6887 75.996H13.2127V81H11.5927V68.148H14.9947ZM14.8507 69.534H13.2127V74.61H14.5087C15.7327 74.61 16.6447 74.412 17.2447 74.016C17.8447 73.62 18.1447 72.948 18.1447 72C18.1447 71.172 17.8807 70.554 17.3527 70.146C16.8247 69.738 15.9907 69.534 14.8507 69.534ZM26.7751 71.172C26.9551 71.172 27.1471 71.184 27.3511 71.208C27.5671 71.22 27.7531 71.244 27.9091 71.28L27.7111 72.738C27.5551 72.702 27.3811 72.672 27.1891 72.648C27.0091 72.624 26.8351 72.612 26.6671 72.612C26.1751 72.612 25.7131 72.75 25.2811 73.026C24.8491 73.29 24.5011 73.668 24.2371 74.16C23.9851 74.64 23.8591 75.204 23.8591 75.852V81H22.2751V71.352H23.5711L23.7511 73.116H23.8231C24.1351 72.588 24.5371 72.132 25.0291 71.748C25.5211 71.364 26.1031 71.172 26.7751 71.172ZM33.0851 71.172C33.9131 71.172 34.6211 71.352 35.2091 71.712C35.8091 72.072 36.2651 72.582 36.5771 73.242C36.9011 73.89 37.0631 74.652 37.0631 75.528V76.482H30.4571C30.4811 77.574 30.7571 78.408 31.2851 78.984C31.8251 79.548 32.5751 79.83 33.5351 79.83C34.1471 79.83 34.6871 79.776 35.1551 79.668C35.6351 79.548 36.1271 79.38 36.6311 79.164V80.55C36.1391 80.766 35.6531 80.922 35.1731 81.018C34.6931 81.126 34.1231 81.18 33.4631 81.18C32.5511 81.18 31.7411 80.994 31.0331 80.622C30.3371 80.25 29.7911 79.698 29.3951 78.966C29.0111 78.222 28.8191 77.316 28.8191 76.248C28.8191 75.192 28.9931 74.286 29.3411 73.53C29.7011 72.774 30.1991 72.192 30.8351 71.784C31.4831 71.376 32.2331 71.172 33.0851 71.172ZM33.0671 72.468C32.3111 72.468 31.7111 72.714 31.2671 73.206C30.8351 73.686 30.5771 74.358 30.4931 75.222H35.4071C35.3951 74.406 35.2031 73.746 34.8311 73.242C34.4591 72.726 33.8711 72.468 33.0671 72.468ZM35.6231 67.392C35.4791 67.608 35.2571 67.89 34.9571 68.238C34.6571 68.574 34.3331 68.916 33.9851 69.264C33.6491 69.6 33.3371 69.876 33.0491 70.092H32.0051V69.876C32.1851 69.648 32.3771 69.378 32.5811 69.066C32.7971 68.754 33.0071 68.436 33.2111 68.112C33.4151 67.776 33.5831 67.476 33.7151 67.212H35.6231V67.392ZM43.9653 72.576H41.5353V81H39.9513V72.576H38.2593V71.838L39.9513 71.298V70.74C39.9513 69.492 40.2273 68.598 40.7793 68.058C41.3313 67.506 42.0993 67.23 43.0833 67.23C43.4673 67.23 43.8153 67.266 44.1273 67.338C44.4513 67.398 44.7273 67.47 44.9553 67.554L44.5413 68.796C44.3493 68.736 44.1273 68.676 43.8753 68.616C43.6233 68.556 43.3653 68.526 43.1013 68.526C42.5733 68.526 42.1773 68.706 41.9133 69.066C41.6613 69.414 41.5353 69.966 41.5353 70.722V71.352H43.9653V72.576ZM46.5213 67.734C46.7613 67.734 46.9713 67.818 47.1513 67.986C47.3433 68.142 47.4393 68.394 47.4393 68.742C47.4393 69.078 47.3433 69.33 47.1513 69.498C46.9713 69.666 46.7613 69.75 46.5213 69.75C46.2573 69.75 46.0353 69.666 45.8553 69.498C45.6753 69.33 45.5853 69.078 45.5853 68.742C45.5853 68.394 45.6753 68.142 45.8553 67.986C46.0353 67.818 46.2573 67.734 46.5213 67.734ZM47.2953 71.352V81H45.7113V71.352H47.2953ZM52.6334 76.068L49.3034 71.352H51.1034L53.5874 74.988L56.0534 71.352H57.8354L54.5054 76.068L58.0154 81H56.2154L53.5874 77.148L50.9234 81H49.1414L52.6334 76.068ZM63.2492 71.172C64.0772 71.172 64.7852 71.352 65.3732 71.712C65.9732 72.072 66.4292 72.582 66.7412 73.242C67.0652 73.89 67.2272 74.652 67.2272 75.528V76.482H60.6212C60.6452 77.574 60.9212 78.408 61.4492 78.984C61.9892 79.548 62.7392 79.83 63.6992 79.83C64.3112 79.83 64.8512 79.776 65.3192 79.668C65.7992 79.548 66.2912 79.38 66.7952 79.164V80.55C66.3032 80.766 65.8172 80.922 65.3372 81.018C64.8572 81.126 64.2872 81.18 63.6272 81.18C62.7152 81.18 61.9052 80.994 61.1972 80.622C60.5012 80.25 59.9552 79.698 59.5592 78.966C59.1752 78.222 58.9832 77.316 58.9832 76.248C58.9832 75.192 59.1572 74.286 59.5052 73.53C59.8652 72.774 60.3632 72.192 60.9992 71.784C61.6472 71.376 62.3972 71.172 63.2492 71.172ZM63.2312 72.468C62.4752 72.468 61.8752 72.714 61.4312 73.206C60.9992 73.686 60.7412 74.358 60.6572 75.222H65.5712C65.5592 74.406 65.3672 73.746 64.9952 73.242C64.6232 72.726 64.0352 72.468 63.2312 72.468Z" fill="black"/>
<path d="M192.948 81H191.328V69.57H187.314V68.148H196.944V69.57H192.948V81ZM200.878 71.19C202.054 71.19 202.924 71.448 203.488 71.964C204.052 72.48 204.334 73.302 204.334 74.43V81H203.182L202.876 79.632H202.804C202.384 80.16 201.94 80.55 201.472 80.802C201.016 81.054 200.38 81.18 199.564 81.18C198.688 81.18 197.962 80.952 197.386 80.496C196.81 80.028 196.522 79.302 196.522 78.318C196.522 77.358 196.9 76.62 197.656 76.104C198.412 75.576 199.576 75.288 201.148 75.24L202.786 75.186V74.61C202.786 73.806 202.612 73.248 202.264 72.936C201.916 72.624 201.424 72.468 200.788 72.468C200.284 72.468 199.804 72.546 199.348 72.702C198.892 72.846 198.466 73.014 198.07 73.206L197.584 72.018C198.004 71.79 198.502 71.598 199.078 71.442C199.654 71.274 200.254 71.19 200.878 71.19ZM201.346 76.338C200.146 76.386 199.312 76.578 198.844 76.914C198.388 77.25 198.16 77.724 198.16 78.336C198.16 78.876 198.322 79.272 198.646 79.524C198.982 79.776 199.408 79.902 199.924 79.902C200.74 79.902 201.418 79.68 201.958 79.236C202.498 78.78 202.768 78.084 202.768 77.148V76.284L201.346 76.338ZM208.124 67.734C208.364 67.734 208.574 67.818 208.754 67.986C208.946 68.142 209.042 68.394 209.042 68.742C209.042 69.078 208.946 69.33 208.754 69.498C208.574 69.666 208.364 69.75 208.124 69.75C207.86 69.75 207.638 69.666 207.458 69.498C207.278 69.33 207.188 69.078 207.188 68.742C207.188 68.394 207.278 68.142 207.458 67.986C207.638 67.818 207.86 67.734 208.124 67.734ZM208.898 71.352V81H207.314V71.352H208.898ZM213.539 81H211.955V67.32H213.539V81ZM218.179 81H216.595V67.32H218.179V81ZM224.962 71.172C225.79 71.172 226.498 71.352 227.086 71.712C227.686 72.072 228.142 72.582 228.454 73.242C228.778 73.89 228.94 74.652 228.94 75.528V76.482H222.334C222.358 77.574 222.634 78.408 223.162 78.984C223.702 79.548 224.452 79.83 225.412 79.83C226.024 79.83 226.564 79.776 227.032 79.668C227.512 79.548 228.004 79.38 228.508 79.164V80.55C228.016 80.766 227.53 80.922 227.05 81.018C226.57 81.126 226 81.18 225.34 81.18C224.428 81.18 223.618 80.994 222.91 80.622C222.214 80.25 221.668 79.698 221.272 78.966C220.888 78.222 220.696 77.316 220.696 76.248C220.696 75.192 220.87 74.286 221.218 73.53C221.578 72.774 222.076 72.192 222.712 71.784C223.36 71.376 224.11 71.172 224.962 71.172ZM224.944 72.468C224.188 72.468 223.588 72.714 223.144 73.206C222.712 73.686 222.454 74.358 222.37 75.222H227.284C227.272 74.406 227.08 73.746 226.708 73.242C226.336 72.726 225.748 72.468 224.944 72.468Z" fill="black"/>
<path d="M92.586 125.39C91.206 125.39 90.12 125.852 89.328 126.776C88.536 127.7 88.14 128.966 88.14 130.574C88.14 132.17 88.506 133.436 89.238 134.372C89.982 135.296 91.092 135.758 92.568 135.758C93.132 135.758 93.666 135.71 94.17 135.614C94.674 135.518 95.166 135.398 95.646 135.254V136.658C95.166 136.838 94.668 136.97 94.152 137.054C93.648 137.138 93.042 137.18 92.334 137.18C91.026 137.18 89.934 136.91 89.058 136.37C88.182 135.83 87.522 135.062 87.078 134.066C86.646 133.07 86.43 131.9 86.43 130.556C86.43 129.26 86.664 128.12 87.132 127.136C87.612 126.14 88.314 125.366 89.238 124.814C90.162 124.25 91.284 123.968 92.604 123.968C93.96 123.968 95.142 124.22 96.15 124.724L95.502 126.092C95.106 125.912 94.662 125.75 94.17 125.606C93.69 125.462 93.162 125.39 92.586 125.39ZM101.889 127.19C103.065 127.19 103.935 127.448 104.499 127.964C105.063 128.48 105.345 129.302 105.345 130.43V137H104.193L103.887 135.632H103.815C103.395 136.16 102.951 136.55 102.483 136.802C102.027 137.054 101.391 137.18 100.575 137.18C99.6991 137.18 98.9731 136.952 98.3971 136.496C97.8211 136.028 97.5331 135.302 97.5331 134.318C97.5331 133.358 97.9111 132.62 98.6671 132.104C99.4231 131.576 100.587 131.288 102.159 131.24L103.797 131.186V130.61C103.797 129.806 103.623 129.248 103.275 128.936C102.927 128.624 102.435 128.468 101.799 128.468C101.295 128.468 100.815 128.546 100.359 128.702C99.9031 128.846 99.4771 129.014 99.0811 129.206L98.5951 128.018C99.0151 127.79 99.5131 127.598 100.089 127.442C100.665 127.274 101.265 127.19 101.889 127.19ZM102.357 132.338C101.157 132.386 100.323 132.578 99.8551 132.914C99.3991 133.25 99.1711 133.724 99.1711 134.336C99.1711 134.876 99.3331 135.272 99.6571 135.524C99.9931 135.776 100.419 135.902 100.935 135.902C101.751 135.902 102.429 135.68 102.969 135.236C103.509 134.78 103.779 134.084 103.779 133.148V132.284L102.357 132.338ZM111.547 135.884C111.787 135.884 112.033 135.866 112.285 135.83C112.537 135.782 112.741 135.734 112.897 135.686V136.892C112.729 136.976 112.489 137.042 112.177 137.09C111.865 137.15 111.565 137.18 111.277 137.18C110.773 137.18 110.305 137.096 109.873 136.928C109.453 136.748 109.111 136.442 108.847 136.01C108.583 135.578 108.451 134.972 108.451 134.192V128.576H107.083V127.82L108.469 127.19L109.099 125.138H110.035V127.352H112.825V128.576H110.035V134.156C110.035 134.744 110.173 135.182 110.449 135.47C110.737 135.746 111.103 135.884 111.547 135.884ZM118.555 127.172C119.383 127.172 120.091 127.352 120.679 127.712C121.279 128.072 121.735 128.582 122.047 129.242C122.371 129.89 122.533 130.652 122.533 131.528V132.482H115.927C115.951 133.574 116.227 134.408 116.755 134.984C117.295 135.548 118.045 135.83 119.005 135.83C119.617 135.83 120.157 135.776 120.625 135.668C121.105 135.548 121.597 135.38 122.101 135.164V136.55C121.609 136.766 121.123 136.922 120.643 137.018C120.163 137.126 119.593 137.18 118.933 137.18C118.021 137.18 117.211 136.994 116.503 136.622C115.807 136.25 115.261 135.698 114.865 134.966C114.481 134.222 114.289 133.316 114.289 132.248C114.289 131.192 114.463 130.286 114.811 129.53C115.171 128.774 115.669 128.192 116.305 127.784C116.953 127.376 117.703 127.172 118.555 127.172ZM118.537 128.468C117.781 128.468 117.181 128.714 116.737 129.206C116.305 129.686 116.047 130.358 115.963 131.222H120.877C120.865 130.406 120.673 129.746 120.301 129.242C119.929 128.726 119.341 128.468 118.537 128.468ZM121.093 123.392C120.949 123.608 120.727 123.89 120.427 124.238C120.127 124.574 119.803 124.916 119.455 125.264C119.119 125.6 118.807 125.876 118.519 126.092H117.475V125.876C117.655 125.648 117.847 125.378 118.051 125.066C118.267 124.754 118.477 124.436 118.681 124.112C118.885 123.776 119.053 123.476 119.185 123.212H121.093V123.392ZM128.409 127.172C129.045 127.172 129.615 127.292 130.119 127.532C130.635 127.772 131.073 128.138 131.433 128.63H131.523L131.739 127.352H132.999V137.162C132.999 138.542 132.645 139.58 131.937 140.276C131.241 140.972 130.155 141.32 128.679 141.32C127.263 141.32 126.105 141.116 125.205 140.708V139.25C126.153 139.754 127.341 140.006 128.769 140.006C129.597 140.006 130.245 139.76 130.713 139.268C131.193 138.788 131.433 138.128 131.433 137.288V136.91C131.433 136.766 131.439 136.562 131.451 136.298C131.463 136.022 131.475 135.83 131.487 135.722H131.415C130.767 136.694 129.771 137.18 128.427 137.18C127.179 137.18 126.201 136.742 125.493 135.866C124.797 134.99 124.449 133.766 124.449 132.194C124.449 130.658 124.797 129.44 125.493 128.54C126.201 127.628 127.173 127.172 128.409 127.172ZM128.625 128.504C127.821 128.504 127.197 128.828 126.753 129.476C126.309 130.112 126.087 131.024 126.087 132.212C126.087 133.4 126.303 134.312 126.735 134.948C127.179 135.572 127.821 135.884 128.661 135.884C129.633 135.884 130.341 135.626 130.785 135.11C131.229 134.582 131.451 133.736 131.451 132.572V132.194C131.451 130.874 131.223 129.932 130.767 129.368C130.311 128.792 129.597 128.504 128.625 128.504ZM144.451 132.158C144.451 133.754 144.043 134.99 143.227 135.866C142.423 136.742 141.331 137.18 139.951 137.18C139.099 137.18 138.337 136.988 137.665 136.604C137.005 136.208 136.483 135.638 136.099 134.894C135.715 134.138 135.523 133.226 135.523 132.158C135.523 130.562 135.925 129.332 136.729 128.468C137.533 127.604 138.625 127.172 140.005 127.172C140.881 127.172 141.649 127.37 142.309 127.766C142.981 128.15 143.503 128.714 143.875 129.458C144.259 130.19 144.451 131.09 144.451 132.158ZM137.161 132.158C137.161 133.298 137.383 134.204 137.827 134.876C138.283 135.536 139.003 135.866 139.987 135.866C140.959 135.866 141.673 135.536 142.129 134.876C142.585 134.204 142.813 133.298 142.813 132.158C142.813 131.018 142.585 130.124 142.129 129.476C141.673 128.828 140.953 128.504 139.969 128.504C138.985 128.504 138.271 128.828 137.827 129.476C137.383 130.124 137.161 131.018 137.161 132.158ZM151.462 127.172C151.642 127.172 151.834 127.184 152.038 127.208C152.254 127.22 152.44 127.244 152.596 127.28L152.398 128.738C152.242 128.702 152.068 128.672 151.876 128.648C151.696 128.624 151.522 128.612 151.354 128.612C150.862 128.612 150.4 128.75 149.968 129.026C149.536 129.29 149.188 129.668 148.924 130.16C148.672 130.64 148.546 131.204 148.546 131.852V137H146.962V127.352H148.258L148.438 129.116H148.51C148.822 128.588 149.224 128.132 149.716 127.748C150.208 127.364 150.79 127.172 151.462 127.172ZM155.207 123.734C155.447 123.734 155.657 123.818 155.837 123.986C156.029 124.142 156.125 124.394 156.125 124.742C156.125 125.078 156.029 125.33 155.837 125.498C155.657 125.666 155.447 125.75 155.207 125.75C154.943 125.75 154.721 125.666 154.541 125.498C154.361 125.33 154.271 125.078 154.271 124.742C154.271 124.394 154.361 124.142 154.541 123.986C154.721 123.818 154.943 123.734 155.207 123.734ZM155.981 127.352V137H154.397V127.352H155.981ZM162.764 127.172C163.592 127.172 164.3 127.352 164.888 127.712C165.488 128.072 165.944 128.582 166.256 129.242C166.58 129.89 166.742 130.652 166.742 131.528V132.482H160.136C160.16 133.574 160.436 134.408 160.964 134.984C161.504 135.548 162.254 135.83 163.214 135.83C163.826 135.83 164.366 135.776 164.834 135.668C165.314 135.548 165.806 135.38 166.31 135.164V136.55C165.818 136.766 165.332 136.922 164.852 137.018C164.372 137.126 163.802 137.18 163.142 137.18C162.23 137.18 161.42 136.994 160.712 136.622C160.016 136.25 159.47 135.698 159.074 134.966C158.69 134.222 158.498 133.316 158.498 132.248C158.498 131.192 158.672 130.286 159.02 129.53C159.38 128.774 159.878 128.192 160.514 127.784C161.162 127.376 161.912 127.172 162.764 127.172ZM162.746 128.468C161.99 128.468 161.39 128.714 160.946 129.206C160.514 129.686 160.256 130.358 160.172 131.222H165.086C165.074 130.406 164.882 129.746 164.51 129.242C164.138 128.726 163.55 128.468 162.746 128.468ZM88.4427 154.068C88.4427 152.604 88.6527 151.194 89.0727 149.838C89.5047 148.47 90.1767 147.24 91.0887 146.148H92.5827C91.7427 147.276 91.1067 148.518 90.6747 149.874C90.2547 151.23 90.0447 152.622 90.0447 154.05C90.0447 155.442 90.2547 156.81 90.6747 158.154C91.1067 159.486 91.7367 160.716 92.5647 161.844H91.0887C90.1767 160.788 89.5047 159.594 89.0727 158.262C88.6527 156.918 88.4427 155.52 88.4427 154.068ZM100.373 147.39C98.9931 147.39 97.9071 147.852 97.1151 148.776C96.3231 149.7 95.9271 150.966 95.9271 152.574C95.9271 154.17 96.2931 155.436 97.0251 156.372C97.7691 157.296 98.8791 157.758 100.355 157.758C100.919 157.758 101.453 157.71 101.957 157.614C102.461 157.518 102.953 157.398 103.433 157.254V158.658C102.953 158.838 102.455 158.97 101.939 159.054C101.435 159.138 100.829 159.18 100.121 159.18C98.8131 159.18 97.7211 158.91 96.8451 158.37C95.9691 157.83 95.3091 157.062 94.8651 156.066C94.4331 155.07 94.2171 153.9 94.2171 152.556C94.2171 151.26 94.4511 150.12 94.9191 149.136C95.3991 148.14 96.1011 147.366 97.0251 146.814C97.9491 146.25 99.0711 145.968 100.391 145.968C101.747 145.968 102.929 146.22 103.937 146.724L103.289 148.092C102.893 147.912 102.449 147.75 101.957 147.606C101.477 147.462 100.949 147.39 100.373 147.39ZM114.41 154.158C114.41 155.754 114.002 156.99 113.186 157.866C112.382 158.742 111.29 159.18 109.91 159.18C109.058 159.18 108.296 158.988 107.624 158.604C106.964 158.208 106.442 157.638 106.058 156.894C105.674 156.138 105.482 155.226 105.482 154.158C105.482 152.562 105.884 151.332 106.688 150.468C107.492 149.604 108.584 149.172 109.964 149.172C110.84 149.172 111.608 149.37 112.268 149.766C112.94 150.15 113.462 150.714 113.834 151.458C114.218 152.19 114.41 153.09 114.41 154.158ZM107.12 154.158C107.12 155.298 107.342 156.204 107.786 156.876C108.242 157.536 108.962 157.866 109.946 157.866C110.918 157.866 111.632 157.536 112.088 156.876C112.544 156.204 112.772 155.298 112.772 154.158C112.772 153.018 112.544 152.124 112.088 151.476C111.632 150.828 110.912 150.504 109.928 150.504C108.944 150.504 108.23 150.828 107.786 151.476C107.342 152.124 107.12 153.018 107.12 154.158ZM124.985 149.352V159H123.689L123.455 157.722H123.383C123.071 158.226 122.639 158.598 122.087 158.838C121.535 159.066 120.947 159.18 120.323 159.18C119.159 159.18 118.283 158.904 117.695 158.352C117.107 157.788 116.813 156.894 116.813 155.67V149.352H118.415V155.562C118.415 157.098 119.129 157.866 120.557 157.866C121.625 157.866 122.363 157.566 122.771 156.966C123.191 156.366 123.401 155.502 123.401 154.374V149.352H124.985ZM129.632 159H128.048V145.32H129.632V159ZM136.414 149.172C137.242 149.172 137.95 149.352 138.538 149.712C139.138 150.072 139.594 150.582 139.906 151.242C140.23 151.89 140.392 152.652 140.392 153.528V154.482H133.786C133.81 155.574 134.086 156.408 134.614 156.984C135.154 157.548 135.904 157.83 136.864 157.83C137.476 157.83 138.016 157.776 138.484 157.668C138.964 157.548 139.456 157.38 139.96 157.164V158.55C139.468 158.766 138.982 158.922 138.502 159.018C138.022 159.126 137.452 159.18 136.792 159.18C135.88 159.18 135.07 158.994 134.362 158.622C133.666 158.25 133.12 157.698 132.724 156.966C132.34 156.222 132.148 155.316 132.148 154.248C132.148 153.192 132.322 152.286 132.67 151.53C133.03 150.774 133.528 150.192 134.164 149.784C134.812 149.376 135.562 149.172 136.414 149.172ZM136.396 150.468C135.64 150.468 135.04 150.714 134.596 151.206C134.164 151.686 133.906 152.358 133.822 153.222H138.736C138.724 152.406 138.532 151.746 138.16 151.242C137.788 150.726 137.2 150.468 136.396 150.468ZM150.912 149.352V159H149.616L149.382 157.722H149.31C148.998 158.226 148.566 158.598 148.014 158.838C147.462 159.066 146.874 159.18 146.25 159.18C145.086 159.18 144.21 158.904 143.622 158.352C143.034 157.788 142.74 156.894 142.74 155.67V149.352H144.342V155.562C144.342 157.098 145.056 157.866 146.484 157.866C147.552 157.866 148.29 157.566 148.698 156.966C149.118 156.366 149.328 155.502 149.328 154.374V149.352H150.912ZM158.475 149.172C158.655 149.172 158.847 149.184 159.051 149.208C159.267 149.22 159.453 149.244 159.609 149.28L159.411 150.738C159.255 150.702 159.081 150.672 158.889 150.648C158.709 150.624 158.535 150.612 158.367 150.612C157.875 150.612 157.413 150.75 156.981 151.026C156.549 151.29 156.201 151.668 155.937 152.16C155.685 152.64 155.559 153.204 155.559 153.852V159H153.975V149.352H155.271L155.451 151.116H155.523C155.835 150.588 156.237 150.132 156.729 149.748C157.221 149.364 157.803 149.172 158.475 149.172ZM164.561 154.068C164.561 155.52 164.345 156.918 163.913 158.262C163.493 159.594 162.827 160.788 161.915 161.844H160.439C161.267 160.716 161.891 159.486 162.311 158.154C162.743 156.81 162.959 155.442 162.959 154.05C162.959 152.622 162.743 151.23 162.311 149.874C161.891 148.518 161.261 147.276 160.421 146.148H161.915C162.827 147.24 163.493 148.47 163.913 149.838C164.345 151.194 164.561 152.604 164.561 154.068Z" fill="black"/>
</g>
<defs>
<filter id="filter0_d_843_2995" x="207.5" y="33" width="4" height="19" filterUnits="userSpaceOnUse" color-interpolation-filters="sRGB">
<feFlood flood-opacity="0" result="BackgroundImageFix"/>
<feColorMatrix in="SourceAlpha" type="matrix" values="0 0 0 0 0 0 0 0 0 0 0 0 0 0 0 0 0 0 127 0" result="hardAlpha"/>
<feOffset dx="2"/>
<feComposite in2="hardAlpha" operator="out"/>
<feColorMatrix type="matrix" values="0 0 0 0 1 0 0 0 0 1 0 0 0 0 1 0 0 0 1 0"/>
<feBlend mode="normal" in2="BackgroundImageFix" result="effect1_dropShadow_843_2995"/>
<feBlend mode="normal" in="SourceGraphic" in2="effect1_dropShadow_843_2995" result="shape"/>
</filter>
<filter id="filter1_d_843_2995" x="125" y="33" width="4" height="75" filterUnits="userSpaceOnUse" color-interpolation-filters="sRGB">
<feFlood flood-opacity="0" result="BackgroundImageFix"/>
<feColorMatrix in="SourceAlpha" type="matrix" values="0 0 0 0 0 0 0 0 0 0 0 0 0 0 0 0 0 0 127 0" result="hardAlpha"/>
<feOffset dx="2"/>
<feComposite in2="hardAlpha" operator="out"/>
<feColorMatrix type="matrix" values="0 0 0 0 1 0 0 0 0 1 0 0 0 0 1 0 0 0 1 0"/>
<feBlend mode="normal" in2="BackgroundImageFix" result="effect1_dropShadow_843_2995"/>
<feBlend mode="normal" in="SourceGraphic" in2="effect1_dropShadow_843_2995" result="shape"/>
</filter>
<filter id="filter2_d_843_2995" x="38" y="33" width="4" height="19" filterUnits="userSpaceOnUse" color-interpolation-filters="sRGB">
<feFlood flood-opacity="0" result="BackgroundImageFix"/>
<feColorMatrix in="SourceAlpha" type="matrix" values="0 0 0 0 0 0 0 0 0 0 0 0 0 0 0 0 0 0 127 0" result="hardAlpha"/>
<feOffset dx="2"/>
<feComposite in2="hardAlpha" operator="out"/>
<feColorMatrix type="matrix" values="0 0 0 0 1 0 0 0 0 1 0 0 0 0 1 0 0 0 1 0"/>
<feBlend mode="normal" in2="BackgroundImageFix" result="effect1_dropShadow_843_2995"/>
<feBlend mode="normal" in="SourceGraphic" in2="effect1_dropShadow_843_2995" result="shape"/>
</filter>
<clipPath id="clip0_843_2995">
<rect width="245" height="178" fill="white"/>
</clipPath>
</defs>
</svg>
