<svg width="243" height="178" viewBox="0 0 243 178" fill="none" xmlns="http://www.w3.org/2000/svg">
<g clip-path="url(#clip0_843_3119)">
<path d="M0.800781 19.42V17.86H5.64078V19.42H0.800781ZM7.24609 19.42V17.86H12.0861V19.42H7.24609Z" fill="black"/>
<path d="M16 0H66V33H16V0Z" fill="#E6E6E6"/>
<path d="M24.5016 13.08C25.2083 13.08 25.8416 13.2133 26.4016 13.48C26.9749 13.7467 27.4616 14.1533 27.8616 14.7H27.9616L28.2016 13.28H29.6016V24.18C29.6016 25.7133 29.2083 26.8667 28.4216 27.64C27.6483 28.4133 26.4416 28.8 24.8016 28.8C23.2283 28.8 21.9416 28.5733 20.9416 28.12V26.5C21.9949 27.06 23.3149 27.34 24.9016 27.34C25.8216 27.34 26.5416 27.0667 27.0616 26.52C27.5949 25.9867 27.8616 25.2533 27.8616 24.32V23.9C27.8616 23.74 27.8683 23.5133 27.8816 23.22C27.8949 22.9133 27.9083 22.7 27.9216 22.58H27.8416C27.1216 23.66 26.0149 24.2 24.5216 24.2C23.1349 24.2 22.0483 23.7133 21.2616 22.74C20.4883 21.7667 20.1016 20.4067 20.1016 18.66C20.1016 16.9533 20.4883 15.6 21.2616 14.6C22.0483 13.5867 23.1283 13.08 24.5016 13.08ZM24.7416 14.56C23.8483 14.56 23.1549 14.92 22.6616 15.64C22.1683 16.3467 21.9216 17.36 21.9216 18.68C21.9216 20 22.1616 21.0133 22.6416 21.72C23.1349 22.4133 23.8483 22.76 24.7816 22.76C25.8616 22.76 26.6483 22.4733 27.1416 21.9C27.6349 21.3133 27.8816 20.3733 27.8816 19.08V18.66C27.8816 17.1933 27.6283 16.1467 27.1216 15.52C26.6149 14.88 25.8216 14.56 24.7416 14.56ZM37.3063 24.2C36.3596 24.2 35.513 24.0067 34.7663 23.62C34.033 23.2333 33.453 22.6333 33.0263 21.82C32.613 21.0067 32.4063 19.9667 32.4063 18.7C32.4063 17.38 32.6263 16.3067 33.0663 15.48C33.5063 14.6533 34.0996 14.0467 34.8463 13.66C35.6063 13.2733 36.4663 13.08 37.4263 13.08C37.973 13.08 38.4996 13.14 39.0063 13.26C39.513 13.3667 39.9263 13.5 40.2463 13.66L39.7063 15.12C39.3863 15 39.013 14.8867 38.5863 14.78C38.1596 14.6733 37.7596 14.62 37.3863 14.62C35.2796 14.62 34.2263 15.9733 34.2263 18.68C34.2263 19.9733 34.4796 20.9667 34.9863 21.66C35.5063 22.34 36.273 22.68 37.2863 22.68C37.873 22.68 38.3863 22.62 38.8263 22.5C39.2796 22.38 39.693 22.2333 40.0663 22.06V23.62C39.7063 23.8067 39.3063 23.9467 38.8663 24.04C38.4396 24.1467 37.9196 24.2 37.3063 24.2ZM46.4157 24.2C45.0823 24.2 44.0157 23.74 43.2157 22.82C42.4157 21.8867 42.0157 20.5 42.0157 18.66C42.0157 16.82 42.4157 15.4333 43.2157 14.5C44.029 13.5533 45.1023 13.08 46.4357 13.08C47.2623 13.08 47.9357 13.2333 48.4557 13.54C48.989 13.8467 49.4223 14.22 49.7557 14.66H49.8757C49.8623 14.4867 49.8357 14.2333 49.7957 13.9C49.769 13.5533 49.7557 13.28 49.7557 13.08V8.79999H51.5157V24H50.0957L49.8357 22.56H49.7557C49.4357 23.0133 49.009 23.4 48.4757 23.72C47.9423 24.04 47.2557 24.2 46.4157 24.2ZM46.6957 22.74C47.829 22.74 48.6223 22.4333 49.0757 21.82C49.5423 21.1933 49.7757 20.2533 49.7757 19V18.68C49.7757 17.3467 49.5557 16.3267 49.1157 15.62C48.6757 14.9 47.8623 14.54 46.6757 14.54C45.729 14.54 45.0157 14.92 44.5357 15.68C44.069 16.4267 43.8357 17.4333 43.8357 18.7C43.8357 19.98 44.069 20.9733 44.5357 21.68C45.0157 22.3867 45.7357 22.74 46.6957 22.74ZM61.9004 21.04C61.9004 22.08 61.5137 22.8667 60.7404 23.4C59.967 23.9333 58.927 24.2 57.6204 24.2C56.8737 24.2 56.227 24.14 55.6804 24.02C55.147 23.9 54.6737 23.7333 54.2604 23.52V21.92C54.687 22.1333 55.2004 22.3333 55.8004 22.52C56.4137 22.6933 57.0337 22.78 57.6604 22.78C58.5537 22.78 59.2004 22.64 59.6004 22.36C60.0004 22.0667 60.2004 21.68 60.2004 21.2C60.2004 20.9333 60.127 20.6933 59.9804 20.48C59.8337 20.2667 59.567 20.0533 59.1804 19.84C58.807 19.6267 58.267 19.3867 57.5604 19.12C56.867 18.8533 56.2737 18.5867 55.7804 18.32C55.287 18.0533 54.907 17.7333 54.6404 17.36C54.3737 16.9867 54.2404 16.5067 54.2404 15.92C54.2404 15.0133 54.607 14.3133 55.3404 13.82C56.087 13.3267 57.0604 13.08 58.2604 13.08C58.9137 13.08 59.5204 13.1467 60.0804 13.28C60.6537 13.4 61.187 13.5733 61.6804 13.8L61.0804 15.2C60.627 15.0133 60.1537 14.8533 59.6604 14.72C59.167 14.5867 58.6604 14.52 58.1404 14.52C57.4204 14.52 56.867 14.64 56.4804 14.88C56.107 15.1067 55.9204 15.42 55.9204 15.82C55.9204 16.1133 56.007 16.3667 56.1804 16.58C56.3537 16.78 56.6404 16.98 57.0404 17.18C57.4537 17.3667 58.0004 17.5933 58.6804 17.86C59.3604 18.1133 59.9404 18.3733 60.4204 18.64C60.9004 18.9067 61.267 19.2333 61.5204 19.62C61.7737 19.9933 61.9004 20.4667 61.9004 21.04Z" fill="black"/>
<mask id="mask0_843_3119" style="mask-type:luminance" maskUnits="userSpaceOnUse" x="16" y="0" width="50" height="33">
<path d="M16 0H66V33H16V0Z" fill="white"/>
</mask>
<g mask="url(#mask0_843_3119)">
<path d="M66 31H16V35H66V31Z" fill="#666666"/>
</g>
<path d="M69.8008 19.42V17.86H74.6408V19.42H69.8008Z" fill="black"/>
<path d="M79 0H121V33H79V0Z" fill="#D6F5E1"/>
<path d="M87.2803 22.76C87.547 22.76 87.8203 22.74 88.1003 22.7C88.3803 22.6467 88.607 22.5933 88.7803 22.54V23.88C88.5936 23.9733 88.327 24.0467 87.9803 24.1C87.6336 24.1667 87.3003 24.2 86.9803 24.2C86.4203 24.2 85.9003 24.1067 85.4203 23.92C84.9536 23.72 84.5736 23.38 84.2803 22.9C83.987 22.42 83.8403 21.7467 83.8403 20.88V14.64H82.3203V13.8L83.8603 13.1L84.5603 10.82H85.6003V13.28H88.7003V14.64H85.6003V20.84C85.6003 21.4933 85.7536 21.98 86.0603 22.3C86.3803 22.6067 86.787 22.76 87.2803 22.76ZM95.0669 13.08C95.9869 13.08 96.7735 13.28 97.4269 13.68C98.0935 14.08 98.6002 14.6467 98.9469 15.38C99.3069 16.1 99.4869 16.9467 99.4869 17.92V18.98H92.1469C92.1735 20.1933 92.4802 21.12 93.0669 21.76C93.6669 22.3867 94.5002 22.7 95.5669 22.7C96.2469 22.7 96.8469 22.64 97.3669 22.52C97.9002 22.3867 98.4469 22.2 99.0069 21.96V23.5C98.4602 23.74 97.9202 23.9133 97.3869 24.02C96.8535 24.14 96.2202 24.2 95.4869 24.2C94.4735 24.2 93.5735 23.9933 92.7869 23.58C92.0135 23.1667 91.4069 22.5533 90.9669 21.74C90.5402 20.9133 90.3269 19.9067 90.3269 18.72C90.3269 17.5467 90.5202 16.54 90.9069 15.7C91.3069 14.86 91.8602 14.2133 92.5669 13.76C93.2869 13.3067 94.1202 13.08 95.0669 13.08ZM95.0469 14.52C94.2069 14.52 93.5402 14.7933 93.0469 15.34C92.5669 15.8733 92.2802 16.62 92.1869 17.58H97.6469C97.6335 16.6733 97.4202 15.94 97.0069 15.38C96.5935 14.8067 95.9402 14.52 95.0469 14.52ZM104.365 18.52L100.665 13.28H102.665L105.425 17.32L108.165 13.28H110.145L106.445 18.52L110.345 24H108.345L105.425 19.72L102.465 24H100.485L104.365 18.52ZM115.991 22.76C116.258 22.76 116.531 22.74 116.811 22.7C117.091 22.6467 117.318 22.5933 117.491 22.54V23.88C117.304 23.9733 117.038 24.0467 116.691 24.1C116.344 24.1667 116.011 24.2 115.691 24.2C115.131 24.2 114.611 24.1067 114.131 23.92C113.664 23.72 113.284 23.38 112.991 22.9C112.698 22.42 112.551 21.7467 112.551 20.88V14.64H111.031V13.8L112.571 13.1L113.271 10.82H114.311V13.28H117.411V14.64H114.311V20.84C114.311 21.4933 114.464 21.98 114.771 22.3C115.091 22.6067 115.498 22.76 115.991 22.76Z" fill="black"/>
<mask id="mask1_843_3119" style="mask-type:luminance" maskUnits="userSpaceOnUse" x="79" y="0" width="42" height="33">
<path d="M79 0H121V33H79V0Z" fill="white"/>
</mask>
<g mask="url(#mask1_843_3119)">
<path d="M121 31H79V35H121V31Z" fill="#29A356"/>
</g>
<path d="M124.801 19.42V17.86H129.641V19.42H124.801Z" fill="black"/>
<path d="M134 0H215V33H134V0Z" fill="#F9D2D7"/>
<path d="M143.799 13.08C145.119 13.08 146.179 13.54 146.979 14.46C147.792 15.38 148.199 16.7667 148.199 18.62C148.199 20.4467 147.792 21.8333 146.979 22.78C146.179 23.7267 145.112 24.2 143.779 24.2C142.952 24.2 142.266 24.0467 141.719 23.74C141.186 23.42 140.766 23.0533 140.459 22.64H140.339C140.366 22.8667 140.392 23.1533 140.419 23.5C140.446 23.8467 140.459 24.1467 140.459 24.4V28.8H138.699V13.28H140.139L140.379 14.74H140.459C140.779 14.2733 141.199 13.88 141.719 13.56C142.239 13.24 142.932 13.08 143.799 13.08ZM143.479 14.56C142.386 14.56 141.612 14.8667 141.159 15.48C140.719 16.0933 140.486 17.0267 140.459 18.28V18.62C140.459 19.94 140.672 20.96 141.099 21.68C141.539 22.3867 142.346 22.74 143.519 22.74C144.172 22.74 144.706 22.56 145.119 22.2C145.546 21.84 145.859 21.3533 146.059 20.74C146.272 20.1133 146.379 19.4 146.379 18.6C146.379 17.3733 146.139 16.3933 145.659 15.66C145.192 14.9267 144.466 14.56 143.479 14.56ZM156.004 13.08C156.204 13.08 156.417 13.0933 156.644 13.12C156.884 13.1333 157.09 13.16 157.264 13.2L157.044 14.82C156.87 14.78 156.677 14.7467 156.464 14.72C156.264 14.6933 156.07 14.68 155.884 14.68C155.337 14.68 154.824 14.8333 154.344 15.14C153.864 15.4333 153.477 15.8533 153.184 16.4C152.904 16.9333 152.764 17.56 152.764 18.28V24H151.004V13.28H152.444L152.644 15.24H152.724C153.07 14.6533 153.517 14.1467 154.064 13.72C154.61 13.2933 155.257 13.08 156.004 13.08ZM160.165 9.26001C160.432 9.26001 160.665 9.35334 160.865 9.54001C161.079 9.71334 161.185 9.99334 161.185 10.38C161.185 10.7533 161.079 11.0333 160.865 11.22C160.665 11.4067 160.432 11.5 160.165 11.5C159.872 11.5 159.625 11.4067 159.425 11.22C159.225 11.0333 159.125 10.7533 159.125 10.38C159.125 9.99334 159.225 9.71334 159.425 9.54001C159.625 9.35334 159.872 9.26001 160.165 9.26001ZM161.025 13.28V24H159.265V13.28H161.025ZM176.182 13.08C177.395 13.08 178.302 13.3933 178.902 14.02C179.502 14.6333 179.802 15.6333 179.802 17.02V24H178.062V17.1C178.062 15.4067 177.335 14.56 175.882 14.56C174.842 14.56 174.095 14.86 173.642 15.46C173.202 16.06 172.982 16.9333 172.982 18.08V24H171.242V17.1C171.242 15.4067 170.508 14.56 169.042 14.56C167.962 14.56 167.215 14.8933 166.802 15.56C166.388 16.2267 166.182 17.1867 166.182 18.44V24H164.422V13.28H165.842L166.102 14.74H166.202C166.535 14.18 166.982 13.7667 167.542 13.5C168.115 13.22 168.722 13.08 169.362 13.08C171.042 13.08 172.135 13.68 172.642 14.88H172.742C173.102 14.2667 173.588 13.8133 174.202 13.52C174.828 13.2267 175.488 13.08 176.182 13.08ZM187.173 13.1C188.48 13.1 189.446 13.3867 190.073 13.96C190.7 14.5333 191.013 15.4467 191.013 16.7V24H189.733L189.393 22.48H189.313C188.846 23.0667 188.353 23.5 187.833 23.78C187.326 24.06 186.62 24.2 185.713 24.2C184.74 24.2 183.933 23.9467 183.293 23.44C182.653 22.92 182.333 22.1133 182.333 21.02C182.333 19.9533 182.753 19.1333 183.593 18.56C184.433 17.9733 185.726 17.6533 187.473 17.6L189.293 17.54V16.9C189.293 16.0067 189.1 15.3867 188.713 15.04C188.326 14.6933 187.78 14.52 187.073 14.52C186.513 14.52 185.98 14.6067 185.473 14.78C184.966 14.94 184.493 15.1267 184.053 15.34L183.513 14.02C183.98 13.7667 184.533 13.5533 185.173 13.38C185.813 13.1933 186.48 13.1 187.173 13.1ZM187.693 18.82C186.36 18.8733 185.433 19.0867 184.913 19.46C184.406 19.8333 184.153 20.36 184.153 21.04C184.153 21.64 184.333 22.08 184.693 22.36C185.066 22.64 185.54 22.78 186.113 22.78C187.02 22.78 187.773 22.5333 188.373 22.04C188.973 21.5333 189.273 20.76 189.273 19.72V18.76L187.693 18.82ZM199.324 13.08C199.524 13.08 199.737 13.0933 199.964 13.12C200.204 13.1333 200.411 13.16 200.584 13.2L200.364 14.82C200.191 14.78 199.997 14.7467 199.784 14.72C199.584 14.6933 199.391 14.68 199.204 14.68C198.657 14.68 198.144 14.8333 197.664 15.14C197.184 15.4333 196.797 15.8533 196.504 16.4C196.224 16.9333 196.084 17.56 196.084 18.28V24H194.324V13.28H195.764L195.964 15.24H196.044C196.391 14.6533 196.837 14.1467 197.384 13.72C197.931 13.2933 198.577 13.08 199.324 13.08ZM200.906 13.28H202.786L205.106 19.38C205.306 19.9133 205.486 20.4267 205.646 20.92C205.806 21.4 205.926 21.86 206.006 22.3H206.086C206.166 21.9667 206.292 21.5333 206.466 21C206.639 20.4533 206.819 19.9067 207.006 19.36L209.186 13.28H211.086L206.466 25.48C206.092 26.4933 205.606 27.3 205.006 27.9C204.419 28.5 203.606 28.8 202.566 28.8C202.246 28.8 201.966 28.78 201.726 28.74C201.486 28.7133 201.279 28.68 201.106 28.64V27.24C201.252 27.2667 201.426 27.2933 201.626 27.32C201.839 27.3467 202.059 27.36 202.286 27.36C202.899 27.36 203.392 27.1867 203.766 26.84C204.152 26.4933 204.452 26.0333 204.666 25.46L205.226 24.04L200.906 13.28Z" fill="black"/>
<mask id="mask2_843_3119" style="mask-type:luminance" maskUnits="userSpaceOnUse" x="134" y="0" width="81" height="33">
<path d="M134 0H215V33H134V0Z" fill="white"/>
</mask>
<g mask="url(#mask2_843_3119)">
<path d="M215 31H134V35H215V31Z" fill="#C91D34"/>
</g>
<g filter="url(#filter0_d_843_3119)">
<path d="M175 33V52" stroke="#C91D34" stroke-width="2"/>
</g>
<path d="M233.5 53H117.5V95H233.5V53Z" stroke="#C91D34" stroke-width="2"/>
<g filter="url(#filter1_d_843_3119)">
<path d="M100.5 33V108" stroke="#29A356" stroke-width="2"/>
</g>
<path d="M156 109H45V177H156V109Z" stroke="#29A356" stroke-width="2"/>
<g filter="url(#filter2_d_843_3119)">
<path d="M39 33V52" stroke="#666666" stroke-width="2"/>
</g>
<path d="M77 53H1V95H77V53Z" stroke="#666666" stroke-width="2"/>
<path d="M14.9947 68.148C16.6747 68.148 17.8987 68.478 18.6667 69.138C19.4347 69.798 19.8187 70.728 19.8187 71.928C19.8187 72.636 19.6567 73.302 19.3327 73.926C19.0207 74.538 18.4867 75.036 17.7307 75.42C16.9867 75.804 15.9727 75.996 14.6887 75.996H13.2127V81H11.5927V68.148H14.9947ZM14.8507 69.534H13.2127V74.61H14.5087C15.7327 74.61 16.6447 74.412 17.2447 74.016C17.8447 73.62 18.1447 72.948 18.1447 72C18.1447 71.172 17.8807 70.554 17.3527 70.146C16.8247 69.738 15.9907 69.534 14.8507 69.534ZM26.7751 71.172C26.9551 71.172 27.1471 71.184 27.3511 71.208C27.5671 71.22 27.7531 71.244 27.9091 71.28L27.7111 72.738C27.5551 72.702 27.3811 72.672 27.1891 72.648C27.0091 72.624 26.8351 72.612 26.6671 72.612C26.1751 72.612 25.7131 72.75 25.2811 73.026C24.8491 73.29 24.5011 73.668 24.2371 74.16C23.9851 74.64 23.8591 75.204 23.8591 75.852V81H22.2751V71.352H23.5711L23.7511 73.116H23.8231C24.1351 72.588 24.5371 72.132 25.0291 71.748C25.5211 71.364 26.1031 71.172 26.7751 71.172ZM33.0851 71.172C33.9131 71.172 34.6211 71.352 35.2091 71.712C35.8091 72.072 36.2651 72.582 36.5771 73.242C36.9011 73.89 37.0631 74.652 37.0631 75.528V76.482H30.4571C30.4811 77.574 30.7571 78.408 31.2851 78.984C31.8251 79.548 32.5751 79.83 33.5351 79.83C34.1471 79.83 34.6871 79.776 35.1551 79.668C35.6351 79.548 36.1271 79.38 36.6311 79.164V80.55C36.1391 80.766 35.6531 80.922 35.1731 81.018C34.6931 81.126 34.1231 81.18 33.4631 81.18C32.5511 81.18 31.7411 80.994 31.0331 80.622C30.3371 80.25 29.7911 79.698 29.3951 78.966C29.0111 78.222 28.8191 77.316 28.8191 76.248C28.8191 75.192 28.9931 74.286 29.3411 73.53C29.7011 72.774 30.1991 72.192 30.8351 71.784C31.4831 71.376 32.2331 71.172 33.0851 71.172ZM33.0671 72.468C32.3111 72.468 31.7111 72.714 31.2671 73.206C30.8351 73.686 30.5771 74.358 30.4931 75.222H35.4071C35.3951 74.406 35.2031 73.746 34.8311 73.242C34.4591 72.726 33.8711 72.468 33.0671 72.468ZM35.6231 67.392C35.4791 67.608 35.2571 67.89 34.9571 68.238C34.6571 68.574 34.3331 68.916 33.9851 69.264C33.6491 69.6 33.3371 69.876 33.0491 70.092H32.0051V69.876C32.1851 69.648 32.3771 69.378 32.5811 69.066C32.7971 68.754 33.0071 68.436 33.2111 68.112C33.4151 67.776 33.5831 67.476 33.7151 67.212H35.6231V67.392ZM43.9653 72.576H41.5353V81H39.9513V72.576H38.2593V71.838L39.9513 71.298V70.74C39.9513 69.492 40.2273 68.598 40.7793 68.058C41.3313 67.506 42.0993 67.23 43.0833 67.23C43.4673 67.23 43.8153 67.266 44.1273 67.338C44.4513 67.398 44.7273 67.47 44.9553 67.554L44.5413 68.796C44.3493 68.736 44.1273 68.676 43.8753 68.616C43.6233 68.556 43.3653 68.526 43.1013 68.526C42.5733 68.526 42.1773 68.706 41.9133 69.066C41.6613 69.414 41.5353 69.966 41.5353 70.722V71.352H43.9653V72.576ZM46.5213 67.734C46.7613 67.734 46.9713 67.818 47.1513 67.986C47.3433 68.142 47.4393 68.394 47.4393 68.742C47.4393 69.078 47.3433 69.33 47.1513 69.498C46.9713 69.666 46.7613 69.75 46.5213 69.75C46.2573 69.75 46.0353 69.666 45.8553 69.498C45.6753 69.33 45.5853 69.078 45.5853 68.742C45.5853 68.394 45.6753 68.142 45.8553 67.986C46.0353 67.818 46.2573 67.734 46.5213 67.734ZM47.2953 71.352V81H45.7113V71.352H47.2953ZM52.6334 76.068L49.3034 71.352H51.1034L53.5874 74.988L56.0534 71.352H57.8354L54.5054 76.068L58.0154 81H56.2154L53.5874 77.148L50.9234 81H49.1414L52.6334 76.068ZM63.2492 71.172C64.0772 71.172 64.7852 71.352 65.3732 71.712C65.9732 72.072 66.4292 72.582 66.7412 73.242C67.0652 73.89 67.2272 74.652 67.2272 75.528V76.482H60.6212C60.6452 77.574 60.9212 78.408 61.4492 78.984C61.9892 79.548 62.7392 79.83 63.6992 79.83C64.3112 79.83 64.8512 79.776 65.3192 79.668C65.7992 79.548 66.2912 79.38 66.7952 79.164V80.55C66.3032 80.766 65.8172 80.922 65.3372 81.018C64.8572 81.126 64.2872 81.18 63.6272 81.18C62.7152 81.18 61.9052 80.994 61.1972 80.622C60.5012 80.25 59.9552 79.698 59.5592 78.966C59.1752 78.222 58.9832 77.316 58.9832 76.248C58.9832 75.192 59.1572 74.286 59.5052 73.53C59.8652 72.774 60.3632 72.192 60.9992 71.784C61.6472 71.376 62.3972 71.172 63.2492 71.172ZM63.2312 72.468C62.4752 72.468 61.8752 72.714 61.4312 73.206C60.9992 73.686 60.7412 74.358 60.6572 75.222H65.5712C65.5592 74.406 65.3672 73.746 64.9952 73.242C64.6232 72.726 64.0352 72.468 63.2312 72.468Z" fill="black"/>
<path d="M130.026 68.148C131.622 68.148 132.798 68.454 133.554 69.066C134.322 69.666 134.706 70.578 134.706 71.802C134.706 72.486 134.58 73.056 134.328 73.512C134.076 73.968 133.752 74.334 133.356 74.61C132.972 74.874 132.564 75.084 132.132 75.24L135.66 81H133.77L130.656 75.69H128.1V81H126.48V68.148H130.026ZM129.936 69.552H128.1V74.322H130.026C131.07 74.322 131.832 74.118 132.312 73.71C132.792 73.29 133.032 72.678 133.032 71.874C133.032 71.034 132.78 70.44 132.276 70.092C131.772 69.732 130.992 69.552 129.936 69.552ZM145.85 76.158C145.85 77.754 145.442 78.99 144.626 79.866C143.822 80.742 142.73 81.18 141.35 81.18C140.498 81.18 139.736 80.988 139.064 80.604C138.404 80.208 137.882 79.638 137.498 78.894C137.114 78.138 136.922 77.226 136.922 76.158C136.922 74.562 137.324 73.332 138.128 72.468C138.932 71.604 140.024 71.172 141.404 71.172C142.28 71.172 143.048 71.37 143.708 71.766C144.38 72.15 144.902 72.714 145.274 73.458C145.658 74.19 145.85 75.09 145.85 76.158ZM138.56 76.158C138.56 77.298 138.782 78.204 139.226 78.876C139.682 79.536 140.402 79.866 141.386 79.866C142.358 79.866 143.072 79.536 143.528 78.876C143.984 78.204 144.212 77.298 144.212 76.158C144.212 75.018 143.984 74.124 143.528 73.476C143.072 72.828 142.352 72.504 141.368 72.504C140.384 72.504 139.67 72.828 139.226 73.476C138.782 74.124 138.56 75.018 138.56 76.158ZM142.178 67.212C142.322 67.476 142.526 67.776 142.79 68.112C143.066 68.436 143.348 68.76 143.636 69.084C143.936 69.396 144.2 69.666 144.428 69.894V70.092H143.312C143 69.9 142.676 69.666 142.34 69.39C142.004 69.102 141.674 68.796 141.35 68.472C141.026 68.796 140.702 69.096 140.378 69.372C140.054 69.648 139.736 69.888 139.424 70.092H138.344V69.894C138.572 69.654 138.824 69.378 139.1 69.066C139.388 68.754 139.664 68.436 139.928 68.112C140.192 67.776 140.402 67.476 140.558 67.212H142.178ZM149.944 81H148.36V67.32H149.944V81ZM156.727 71.172C157.555 71.172 158.263 71.352 158.851 71.712C159.451 72.072 159.907 72.582 160.219 73.242C160.543 73.89 160.705 74.652 160.705 75.528V76.482H154.099C154.123 77.574 154.399 78.408 154.927 78.984C155.467 79.548 156.217 79.83 157.177 79.83C157.789 79.83 158.329 79.776 158.797 79.668C159.277 79.548 159.769 79.38 160.273 79.164V80.55C159.781 80.766 159.295 80.922 158.815 81.018C158.335 81.126 157.765 81.18 157.105 81.18C156.193 81.18 155.383 80.994 154.675 80.622C153.979 80.25 153.433 79.698 153.037 78.966C152.653 78.222 152.461 77.316 152.461 76.248C152.461 75.192 152.635 74.286 152.983 73.53C153.343 72.774 153.841 72.192 154.477 71.784C155.125 71.376 155.875 71.172 156.727 71.172ZM156.709 72.468C155.953 72.468 155.353 72.714 154.909 73.206C154.477 73.686 154.219 74.358 154.135 75.222H159.049C159.037 74.406 158.845 73.746 158.473 73.242C158.101 72.726 157.513 72.468 156.709 72.468ZM176.225 76.158C176.225 77.754 175.817 78.99 175.001 79.866C174.197 80.742 173.105 81.18 171.725 81.18C170.873 81.18 170.111 80.988 169.439 80.604C168.779 80.208 168.257 79.638 167.873 78.894C167.489 78.138 167.297 77.226 167.297 76.158C167.297 74.562 167.699 73.332 168.503 72.468C169.307 71.604 170.399 71.172 171.779 71.172C172.655 71.172 173.423 71.37 174.083 71.766C174.755 72.15 175.277 72.714 175.649 73.458C176.033 74.19 176.225 75.09 176.225 76.158ZM168.935 76.158C168.935 77.298 169.157 78.204 169.601 78.876C170.057 79.536 170.777 79.866 171.761 79.866C172.733 79.866 173.447 79.536 173.903 78.876C174.359 78.204 174.587 77.298 174.587 76.158C174.587 75.018 174.359 74.124 173.903 73.476C173.447 72.828 172.727 72.504 171.743 72.504C170.759 72.504 170.045 72.828 169.601 73.476C169.157 74.124 168.935 75.018 168.935 76.158ZM186.799 71.352V81H185.503L185.269 79.722H185.197C184.885 80.226 184.453 80.598 183.901 80.838C183.349 81.066 182.761 81.18 182.137 81.18C180.973 81.18 180.097 80.904 179.509 80.352C178.921 79.788 178.627 78.894 178.627 77.67V71.352H180.229V77.562C180.229 79.098 180.943 79.866 182.371 79.866C183.439 79.866 184.177 79.566 184.585 78.966C185.005 78.366 185.215 77.502 185.215 76.374V71.352H186.799ZM198.264 71.172C199.092 71.172 199.8 71.352 200.388 71.712C200.988 72.072 201.444 72.582 201.756 73.242C202.08 73.89 202.242 74.652 202.242 75.528V76.482H195.636C195.66 77.574 195.936 78.408 196.464 78.984C197.004 79.548 197.754 79.83 198.714 79.83C199.326 79.83 199.866 79.776 200.334 79.668C200.814 79.548 201.306 79.38 201.81 79.164V80.55C201.318 80.766 200.832 80.922 200.352 81.018C199.872 81.126 199.302 81.18 198.642 81.18C197.73 81.18 196.92 80.994 196.212 80.622C195.516 80.25 194.97 79.698 194.574 78.966C194.19 78.222 193.998 77.316 193.998 76.248C193.998 75.192 194.172 74.286 194.52 73.53C194.88 72.774 195.378 72.192 196.014 71.784C196.662 71.376 197.412 71.172 198.264 71.172ZM198.246 72.468C197.49 72.468 196.89 72.714 196.446 73.206C196.014 73.686 195.756 74.358 195.672 75.222H200.586C200.574 74.406 200.382 73.746 200.01 73.242C199.638 72.726 199.05 72.468 198.246 72.468ZM200.802 67.392C200.658 67.608 200.436 67.89 200.136 68.238C199.836 68.574 199.512 68.916 199.164 69.264C198.828 69.6 198.516 69.876 198.228 70.092H197.184V69.876C197.364 69.648 197.556 69.378 197.76 69.066C197.976 68.754 198.186 68.436 198.39 68.112C198.594 67.776 198.762 67.476 198.894 67.212H200.802V67.392ZM207.92 79.884C208.16 79.884 208.406 79.866 208.658 79.83C208.91 79.782 209.114 79.734 209.27 79.686V80.892C209.102 80.976 208.862 81.042 208.55 81.09C208.238 81.15 207.938 81.18 207.65 81.18C207.146 81.18 206.678 81.096 206.246 80.928C205.826 80.748 205.484 80.442 205.22 80.01C204.956 79.578 204.824 78.972 204.824 78.192V72.576H203.456V71.82L204.842 71.19L205.472 69.138H206.408V71.352H209.198V72.576H206.408V78.156C206.408 78.744 206.546 79.182 206.822 79.47C207.11 79.746 207.476 79.884 207.92 79.884ZM214.856 71.19C216.032 71.19 216.902 71.448 217.466 71.964C218.03 72.48 218.312 73.302 218.312 74.43V81H217.16L216.854 79.632H216.782C216.362 80.16 215.918 80.55 215.45 80.802C214.994 81.054 214.358 81.18 213.542 81.18C212.666 81.18 211.94 80.952 211.364 80.496C210.788 80.028 210.5 79.302 210.5 78.318C210.5 77.358 210.878 76.62 211.634 76.104C212.39 75.576 213.554 75.288 215.126 75.24L216.764 75.186V74.61C216.764 73.806 216.59 73.248 216.242 72.936C215.894 72.624 215.402 72.468 214.766 72.468C214.262 72.468 213.782 72.546 213.326 72.702C212.87 72.846 212.444 73.014 212.048 73.206L211.562 72.018C211.982 71.79 212.48 71.598 213.056 71.442C213.632 71.274 214.232 71.19 214.856 71.19ZM215.324 76.338C214.124 76.386 213.29 76.578 212.822 76.914C212.366 77.25 212.138 77.724 212.138 78.336C212.138 78.876 212.3 79.272 212.624 79.524C212.96 79.776 213.386 79.902 213.902 79.902C214.718 79.902 215.396 79.68 215.936 79.236C216.476 78.78 216.746 78.084 216.746 77.148V76.284L215.324 76.338ZM224.514 79.884C224.754 79.884 225 79.866 225.252 79.83C225.504 79.782 225.708 79.734 225.864 79.686V80.892C225.696 80.976 225.456 81.042 225.144 81.09C224.832 81.15 224.532 81.18 224.244 81.18C223.74 81.18 223.272 81.096 222.84 80.928C222.42 80.748 222.078 80.442 221.814 80.01C221.55 79.578 221.418 78.972 221.418 78.192V72.576H220.05V71.82L221.436 71.19L222.066 69.138H223.002V71.352H225.792V72.576H223.002V78.156C223.002 78.744 223.14 79.182 223.416 79.47C223.704 79.746 224.07 79.884 224.514 79.884Z" fill="black"/>
<path d="M65.586 125.39C64.206 125.39 63.12 125.852 62.328 126.776C61.536 127.7 61.14 128.966 61.14 130.574C61.14 132.17 61.506 133.436 62.238 134.372C62.982 135.296 64.092 135.758 65.568 135.758C66.132 135.758 66.666 135.71 67.17 135.614C67.674 135.518 68.166 135.398 68.646 135.254V136.658C68.166 136.838 67.668 136.97 67.152 137.054C66.648 137.138 66.042 137.18 65.334 137.18C64.026 137.18 62.934 136.91 62.058 136.37C61.182 135.83 60.522 135.062 60.078 134.066C59.646 133.07 59.43 131.9 59.43 130.556C59.43 129.26 59.664 128.12 60.132 127.136C60.612 126.14 61.314 125.366 62.238 124.814C63.162 124.25 64.284 123.968 65.604 123.968C66.96 123.968 68.142 124.22 69.15 124.724L68.502 126.092C68.106 125.912 67.662 125.75 67.17 125.606C66.69 125.462 66.162 125.39 65.586 125.39ZM74.8891 127.19C76.0651 127.19 76.9351 127.448 77.4991 127.964C78.0631 128.48 78.3451 129.302 78.3451 130.43V137H77.1931L76.8871 135.632H76.8151C76.3951 136.16 75.9511 136.55 75.4831 136.802C75.0271 137.054 74.3911 137.18 73.5751 137.18C72.6991 137.18 71.9731 136.952 71.3971 136.496C70.8211 136.028 70.5331 135.302 70.5331 134.318C70.5331 133.358 70.9111 132.62 71.6671 132.104C72.4231 131.576 73.5871 131.288 75.1591 131.24L76.7971 131.186V130.61C76.7971 129.806 76.6231 129.248 76.2751 128.936C75.9271 128.624 75.4351 128.468 74.7991 128.468C74.2951 128.468 73.8151 128.546 73.3591 128.702C72.9031 128.846 72.4771 129.014 72.0811 129.206L71.5951 128.018C72.0151 127.79 72.5131 127.598 73.0891 127.442C73.6651 127.274 74.2651 127.19 74.8891 127.19ZM75.3571 132.338C74.1571 132.386 73.3231 132.578 72.8551 132.914C72.3991 133.25 72.1711 133.724 72.1711 134.336C72.1711 134.876 72.3331 135.272 72.6571 135.524C72.9931 135.776 73.4191 135.902 73.9351 135.902C74.7511 135.902 75.4291 135.68 75.9691 135.236C76.5091 134.78 76.7791 134.084 76.7791 133.148V132.284L75.3571 132.338ZM84.5469 135.884C84.7869 135.884 85.0329 135.866 85.2849 135.83C85.5369 135.782 85.7409 135.734 85.8969 135.686V136.892C85.7289 136.976 85.4889 137.042 85.1769 137.09C84.8649 137.15 84.5649 137.18 84.2769 137.18C83.7729 137.18 83.3049 137.096 82.8729 136.928C82.4529 136.748 82.1109 136.442 81.8469 136.01C81.5829 135.578 81.4509 134.972 81.4509 134.192V128.576H80.0829V127.82L81.4689 127.19L82.0989 125.138H83.0349V127.352H85.8249V128.576H83.0349V134.156C83.0349 134.744 83.1729 135.182 83.4489 135.47C83.7369 135.746 84.1029 135.884 84.5469 135.884ZM91.5548 127.172C92.3828 127.172 93.0908 127.352 93.6788 127.712C94.2788 128.072 94.7348 128.582 95.0468 129.242C95.3708 129.89 95.5328 130.652 95.5328 131.528V132.482H88.9268C88.9508 133.574 89.2268 134.408 89.7548 134.984C90.2948 135.548 91.0448 135.83 92.0048 135.83C92.6168 135.83 93.1568 135.776 93.6248 135.668C94.1048 135.548 94.5968 135.38 95.1008 135.164V136.55C94.6088 136.766 94.1228 136.922 93.6428 137.018C93.1628 137.126 92.5928 137.18 91.9328 137.18C91.0208 137.18 90.2108 136.994 89.5028 136.622C88.8068 136.25 88.2608 135.698 87.8648 134.966C87.4808 134.222 87.2888 133.316 87.2888 132.248C87.2888 131.192 87.4628 130.286 87.8108 129.53C88.1708 128.774 88.6688 128.192 89.3048 127.784C89.9528 127.376 90.7028 127.172 91.5548 127.172ZM91.5368 128.468C90.7808 128.468 90.1808 128.714 89.7368 129.206C89.3048 129.686 89.0468 130.358 88.9628 131.222H93.8768C93.8648 130.406 93.6728 129.746 93.3008 129.242C92.9288 128.726 92.3408 128.468 91.5368 128.468ZM94.0928 123.392C93.9488 123.608 93.7268 123.89 93.4268 124.238C93.1268 124.574 92.8028 124.916 92.4548 125.264C92.1188 125.6 91.8068 125.876 91.5188 126.092H90.4748V125.876C90.6548 125.648 90.8468 125.378 91.0508 125.066C91.2668 124.754 91.4768 124.436 91.6808 124.112C91.8848 123.776 92.0528 123.476 92.1848 123.212H94.0928V123.392ZM101.409 127.172C102.045 127.172 102.615 127.292 103.119 127.532C103.635 127.772 104.073 128.138 104.433 128.63H104.523L104.739 127.352H105.999V137.162C105.999 138.542 105.645 139.58 104.937 140.276C104.241 140.972 103.155 141.32 101.679 141.32C100.263 141.32 99.105 141.116 98.205 140.708V139.25C99.153 139.754 100.341 140.006 101.769 140.006C102.597 140.006 103.245 139.76 103.713 139.268C104.193 138.788 104.433 138.128 104.433 137.288V136.91C104.433 136.766 104.439 136.562 104.451 136.298C104.463 136.022 104.475 135.83 104.487 135.722H104.415C103.767 136.694 102.771 137.18 101.427 137.18C100.179 137.18 99.201 136.742 98.493 135.866C97.797 134.99 97.449 133.766 97.449 132.194C97.449 130.658 97.797 129.44 98.493 128.54C99.201 127.628 100.173 127.172 101.409 127.172ZM101.625 128.504C100.821 128.504 100.197 128.828 99.753 129.476C99.309 130.112 99.087 131.024 99.087 132.212C99.087 133.4 99.303 134.312 99.735 134.948C100.179 135.572 100.821 135.884 101.661 135.884C102.633 135.884 103.341 135.626 103.785 135.11C104.229 134.582 104.451 133.736 104.451 132.572V132.194C104.451 130.874 104.223 129.932 103.767 129.368C103.311 128.792 102.597 128.504 101.625 128.504ZM117.451 132.158C117.451 133.754 117.043 134.99 116.227 135.866C115.423 136.742 114.331 137.18 112.951 137.18C112.099 137.18 111.337 136.988 110.665 136.604C110.005 136.208 109.483 135.638 109.099 134.894C108.715 134.138 108.523 133.226 108.523 132.158C108.523 130.562 108.925 129.332 109.729 128.468C110.533 127.604 111.625 127.172 113.005 127.172C113.881 127.172 114.649 127.37 115.309 127.766C115.981 128.15 116.503 128.714 116.875 129.458C117.259 130.19 117.451 131.09 117.451 132.158ZM110.161 132.158C110.161 133.298 110.383 134.204 110.827 134.876C111.283 135.536 112.003 135.866 112.987 135.866C113.959 135.866 114.673 135.536 115.129 134.876C115.585 134.204 115.813 133.298 115.813 132.158C115.813 131.018 115.585 130.124 115.129 129.476C114.673 128.828 113.953 128.504 112.969 128.504C111.985 128.504 111.271 128.828 110.827 129.476C110.383 130.124 110.161 131.018 110.161 132.158ZM124.462 127.172C124.642 127.172 124.834 127.184 125.038 127.208C125.254 127.22 125.44 127.244 125.596 127.28L125.398 128.738C125.242 128.702 125.068 128.672 124.876 128.648C124.696 128.624 124.522 128.612 124.354 128.612C123.862 128.612 123.4 128.75 122.968 129.026C122.536 129.29 122.188 129.668 121.924 130.16C121.672 130.64 121.546 131.204 121.546 131.852V137H119.962V127.352H121.258L121.438 129.116H121.51C121.822 128.588 122.224 128.132 122.716 127.748C123.208 127.364 123.79 127.172 124.462 127.172ZM128.207 123.734C128.447 123.734 128.657 123.818 128.837 123.986C129.029 124.142 129.125 124.394 129.125 124.742C129.125 125.078 129.029 125.33 128.837 125.498C128.657 125.666 128.447 125.75 128.207 125.75C127.943 125.75 127.721 125.666 127.541 125.498C127.361 125.33 127.271 125.078 127.271 124.742C127.271 124.394 127.361 124.142 127.541 123.986C127.721 123.818 127.943 123.734 128.207 123.734ZM128.981 127.352V137H127.397V127.352H128.981ZM135.764 127.172C136.592 127.172 137.3 127.352 137.888 127.712C138.488 128.072 138.944 128.582 139.256 129.242C139.58 129.89 139.742 130.652 139.742 131.528V132.482H133.136C133.16 133.574 133.436 134.408 133.964 134.984C134.504 135.548 135.254 135.83 136.214 135.83C136.826 135.83 137.366 135.776 137.834 135.668C138.314 135.548 138.806 135.38 139.31 135.164V136.55C138.818 136.766 138.332 136.922 137.852 137.018C137.372 137.126 136.802 137.18 136.142 137.18C135.23 137.18 134.42 136.994 133.712 136.622C133.016 136.25 132.47 135.698 132.074 134.966C131.69 134.222 131.498 133.316 131.498 132.248C131.498 131.192 131.672 130.286 132.02 129.53C132.38 128.774 132.878 128.192 133.514 127.784C134.162 127.376 134.912 127.172 135.764 127.172ZM135.746 128.468C134.99 128.468 134.39 128.714 133.946 129.206C133.514 129.686 133.256 130.358 133.172 131.222H138.086C138.074 130.406 137.882 129.746 137.51 129.242C137.138 128.726 136.55 128.468 135.746 128.468ZM55.3958 154.068C55.3958 152.604 55.6058 151.194 56.0258 149.838C56.4578 148.47 57.1298 147.24 58.0418 146.148H59.5358C58.6958 147.276 58.0598 148.518 57.6278 149.874C57.2078 151.23 56.9978 152.622 56.9978 154.05C56.9978 155.442 57.2078 156.81 57.6278 158.154C58.0598 159.486 58.6898 160.716 59.5178 161.844H58.0418C57.1298 160.788 56.4578 159.594 56.0258 158.262C55.6058 156.918 55.3958 155.52 55.3958 154.068ZM65.2203 146.148C66.9003 146.148 68.1243 146.478 68.8923 147.138C69.6603 147.798 70.0443 148.728 70.0443 149.928C70.0443 150.636 69.8823 151.302 69.5583 151.926C69.2463 152.538 68.7123 153.036 67.9563 153.42C67.2123 153.804 66.1983 153.996 64.9143 153.996H63.4383V159H61.8183V146.148H65.2203ZM65.0763 147.534H63.4383V152.61H64.7343C65.9583 152.61 66.8703 152.412 67.4703 152.016C68.0703 151.62 68.3703 150.948 68.3703 150C68.3703 149.172 68.1063 148.554 67.5783 148.146C67.0503 147.738 66.2163 147.534 65.0763 147.534ZM77.0007 149.172C77.1807 149.172 77.3727 149.184 77.5767 149.208C77.7927 149.22 77.9787 149.244 78.1347 149.28L77.9367 150.738C77.7807 150.702 77.6067 150.672 77.4147 150.648C77.2347 150.624 77.0607 150.612 76.8927 150.612C76.4007 150.612 75.9387 150.75 75.5067 151.026C75.0747 151.29 74.7267 151.668 74.4627 152.16C74.2107 152.64 74.0847 153.204 74.0847 153.852V159H72.5007V149.352H73.7967L73.9767 151.116H74.0487C74.3607 150.588 74.7627 150.132 75.2547 149.748C75.7467 149.364 76.3287 149.172 77.0007 149.172ZM87.9727 154.158C87.9727 155.754 87.5647 156.99 86.7487 157.866C85.9447 158.742 84.8527 159.18 83.4727 159.18C82.6207 159.18 81.8587 158.988 81.1867 158.604C80.5267 158.208 80.0047 157.638 79.6207 156.894C79.2367 156.138 79.0447 155.226 79.0447 154.158C79.0447 152.562 79.4467 151.332 80.2507 150.468C81.0547 149.604 82.1467 149.172 83.5267 149.172C84.4027 149.172 85.1707 149.37 85.8307 149.766C86.5027 150.15 87.0247 150.714 87.3967 151.458C87.7807 152.19 87.9727 153.09 87.9727 154.158ZM80.6827 154.158C80.6827 155.298 80.9047 156.204 81.3487 156.876C81.8047 157.536 82.5247 157.866 83.5087 157.866C84.4807 157.866 85.1947 157.536 85.6507 156.876C86.1067 156.204 86.3347 155.298 86.3347 154.158C86.3347 153.018 86.1067 152.124 85.6507 151.476C85.1947 150.828 84.4747 150.504 83.4907 150.504C82.5067 150.504 81.7927 150.828 81.3487 151.476C80.9047 152.124 80.6827 153.018 80.6827 154.158ZM95.0731 149.172C96.2611 149.172 97.2151 149.586 97.9351 150.414C98.6671 151.242 99.0331 152.49 99.0331 154.158C99.0331 155.802 98.6671 157.05 97.9351 157.902C97.2151 158.754 96.2551 159.18 95.0551 159.18C94.3111 159.18 93.6931 159.042 93.2011 158.766C92.7211 158.478 92.3431 158.148 92.0671 157.776H91.9591C91.9831 157.98 92.0071 158.238 92.0311 158.55C92.0551 158.862 92.0671 159.132 92.0671 159.36V163.32H90.4831V149.352H91.7791L91.9951 150.666H92.0671C92.3551 150.246 92.7331 149.892 93.2011 149.604C93.6691 149.316 94.2931 149.172 95.0731 149.172ZM94.7851 150.504C93.8011 150.504 93.1051 150.78 92.6971 151.332C92.3011 151.884 92.0911 152.724 92.0671 153.852V154.158C92.0671 155.346 92.2591 156.264 92.6431 156.912C93.0391 157.548 93.7651 157.866 94.8211 157.866C95.4091 157.866 95.8891 157.704 96.2611 157.38C96.6451 157.056 96.9271 156.618 97.1071 156.066C97.2991 155.502 97.3951 154.86 97.3951 154.14C97.3951 153.036 97.1791 152.154 96.7471 151.494C96.3271 150.834 95.6731 150.504 94.7851 150.504ZM106.057 149.172C106.237 149.172 106.429 149.184 106.633 149.208C106.849 149.22 107.035 149.244 107.191 149.28L106.993 150.738C106.837 150.702 106.663 150.672 106.471 150.648C106.291 150.624 106.117 150.612 105.949 150.612C105.457 150.612 104.995 150.75 104.563 151.026C104.131 151.29 103.783 151.668 103.519 152.16C103.267 152.64 103.141 153.204 103.141 153.852V159H101.557V149.352H102.853L103.033 151.116H103.105C103.417 150.588 103.819 150.132 104.311 149.748C104.803 149.364 105.385 149.172 106.057 149.172ZM109.803 145.734C110.043 145.734 110.253 145.818 110.433 145.986C110.625 146.142 110.721 146.394 110.721 146.742C110.721 147.078 110.625 147.33 110.433 147.498C110.253 147.666 110.043 147.75 109.803 147.75C109.539 147.75 109.317 147.666 109.137 147.498C108.957 147.33 108.867 147.078 108.867 146.742C108.867 146.394 108.957 146.142 109.137 145.986C109.317 145.818 109.539 145.734 109.803 145.734ZM110.577 149.352V159H108.993V149.352H110.577ZM117.36 149.172C118.188 149.172 118.896 149.352 119.484 149.712C120.084 150.072 120.54 150.582 120.852 151.242C121.176 151.89 121.338 152.652 121.338 153.528V154.482H114.732C114.756 155.574 115.032 156.408 115.56 156.984C116.1 157.548 116.85 157.83 117.81 157.83C118.422 157.83 118.962 157.776 119.43 157.668C119.91 157.548 120.402 157.38 120.906 157.164V158.55C120.414 158.766 119.928 158.922 119.448 159.018C118.968 159.126 118.398 159.18 117.738 159.18C116.826 159.18 116.016 158.994 115.308 158.622C114.612 158.25 114.066 157.698 113.67 156.966C113.286 156.222 113.094 155.316 113.094 154.248C113.094 153.192 113.268 152.286 113.616 151.53C113.976 150.774 114.474 150.192 115.11 149.784C115.758 149.376 116.508 149.172 117.36 149.172ZM117.342 150.468C116.586 150.468 115.986 150.714 115.542 151.206C115.11 151.686 114.852 152.358 114.768 153.222H119.682C119.67 152.406 119.478 151.746 119.106 151.242C118.734 150.726 118.146 150.468 117.342 150.468ZM119.898 145.392C119.754 145.608 119.532 145.89 119.232 146.238C118.932 146.574 118.608 146.916 118.26 147.264C117.924 147.6 117.612 147.876 117.324 148.092H116.28V147.876C116.46 147.648 116.652 147.378 116.856 147.066C117.072 146.754 117.282 146.436 117.486 146.112C117.69 145.776 117.858 145.476 117.99 145.212H119.898V145.392ZM127.016 157.884C127.256 157.884 127.502 157.866 127.754 157.83C128.006 157.782 128.21 157.734 128.366 157.686V158.892C128.198 158.976 127.958 159.042 127.646 159.09C127.334 159.15 127.034 159.18 126.746 159.18C126.242 159.18 125.774 159.096 125.342 158.928C124.922 158.748 124.58 158.442 124.316 158.01C124.052 157.578 123.92 156.972 123.92 156.192V150.576H122.552V149.82L123.938 149.19L124.568 147.138H125.504V149.352H128.294V150.576H125.504V156.156C125.504 156.744 125.642 157.182 125.918 157.47C126.206 157.746 126.572 157.884 127.016 157.884ZM134.024 149.172C134.852 149.172 135.56 149.352 136.148 149.712C136.748 150.072 137.204 150.582 137.516 151.242C137.84 151.89 138.002 152.652 138.002 153.528V154.482H131.396C131.42 155.574 131.696 156.408 132.224 156.984C132.764 157.548 133.514 157.83 134.474 157.83C135.086 157.83 135.626 157.776 136.094 157.668C136.574 157.548 137.066 157.38 137.57 157.164V158.55C137.078 158.766 136.592 158.922 136.112 159.018C135.632 159.126 135.062 159.18 134.402 159.18C133.49 159.18 132.68 158.994 131.972 158.622C131.276 158.25 130.73 157.698 130.334 156.966C129.95 156.222 129.758 155.316 129.758 154.248C129.758 153.192 129.932 152.286 130.28 151.53C130.64 150.774 131.138 150.192 131.774 149.784C132.422 149.376 133.172 149.172 134.024 149.172ZM134.006 150.468C133.25 150.468 132.65 150.714 132.206 151.206C131.774 151.686 131.516 152.358 131.432 153.222H136.346C136.334 152.406 136.142 151.746 135.77 151.242C135.398 150.726 134.81 150.468 134.006 150.468ZM136.562 145.392C136.418 145.608 136.196 145.89 135.896 146.238C135.596 146.574 135.272 146.916 134.924 147.264C134.588 147.6 134.276 147.876 133.988 148.092H132.944V147.876C133.124 147.648 133.316 147.378 133.52 147.066C133.736 146.754 133.946 146.436 134.15 146.112C134.354 145.776 134.522 145.476 134.654 145.212H136.562V145.392ZM143.608 154.068C143.608 155.52 143.392 156.918 142.96 158.262C142.54 159.594 141.874 160.788 140.962 161.844H139.486C140.314 160.716 140.938 159.486 141.358 158.154C141.79 156.81 142.006 155.442 142.006 154.05C142.006 152.622 141.79 151.23 141.358 149.874C140.938 148.518 140.308 147.276 139.468 146.148H140.962C141.874 147.24 142.54 148.47 142.96 149.838C143.392 151.194 143.608 152.604 143.608 154.068Z" fill="black"/>
</g>
<defs>
<filter id="filter0_d_843_3119" x="174" y="33" width="4" height="19" filterUnits="userSpaceOnUse" color-interpolation-filters="sRGB">
<feFlood flood-opacity="0" result="BackgroundImageFix"/>
<feColorMatrix in="SourceAlpha" type="matrix" values="0 0 0 0 0 0 0 0 0 0 0 0 0 0 0 0 0 0 127 0" result="hardAlpha"/>
<feOffset dx="2"/>
<feComposite in2="hardAlpha" operator="out"/>
<feColorMatrix type="matrix" values="0 0 0 0 1 0 0 0 0 1 0 0 0 0 1 0 0 0 1 0"/>
<feBlend mode="normal" in2="BackgroundImageFix" result="effect1_dropShadow_843_3119"/>
<feBlend mode="normal" in="SourceGraphic" in2="effect1_dropShadow_843_3119" result="shape"/>
</filter>
<filter id="filter1_d_843_3119" x="99.5" y="33" width="4" height="75" filterUnits="userSpaceOnUse" color-interpolation-filters="sRGB">
<feFlood flood-opacity="0" result="BackgroundImageFix"/>
<feColorMatrix in="SourceAlpha" type="matrix" values="0 0 0 0 0 0 0 0 0 0 0 0 0 0 0 0 0 0 127 0" result="hardAlpha"/>
<feOffset dx="2"/>
<feComposite in2="hardAlpha" operator="out"/>
<feColorMatrix type="matrix" values="0 0 0 0 1 0 0 0 0 1 0 0 0 0 1 0 0 0 1 0"/>
<feBlend mode="normal" in2="BackgroundImageFix" result="effect1_dropShadow_843_3119"/>
<feBlend mode="normal" in="SourceGraphic" in2="effect1_dropShadow_843_3119" result="shape"/>
</filter>
<filter id="filter2_d_843_3119" x="38" y="33" width="4" height="19" filterUnits="userSpaceOnUse" color-interpolation-filters="sRGB">
<feFlood flood-opacity="0" result="BackgroundImageFix"/>
<feColorMatrix in="SourceAlpha" type="matrix" values="0 0 0 0 0 0 0 0 0 0 0 0 0 0 0 0 0 0 127 0" result="hardAlpha"/>
<feOffset dx="2"/>
<feComposite in2="hardAlpha" operator="out"/>
<feColorMatrix type="matrix" values="0 0 0 0 1 0 0 0 0 1 0 0 0 0 1 0 0 0 1 0"/>
<feBlend mode="normal" in2="BackgroundImageFix" result="effect1_dropShadow_843_3119"/>
<feBlend mode="normal" in="SourceGraphic" in2="effect1_dropShadow_843_3119" result="shape"/>
</filter>
<clipPath id="clip0_843_3119">
<rect width="243" height="178" fill="white"/>
</clipPath>
</defs>
</svg>
