<svg width="400" height="300" viewBox="0 0 400 300" fill="none" xmlns="http://www.w3.org/2000/svg">
<rect width="400" height="300" fill="#F1F2F3"/>
<path d="M103.308 138.312L94.2488 113.552C93.8026 112.454 93.3393 111.15 92.8589 109.64C92.3784 108.13 91.898 106.5 91.4176 104.75C90.9715 106.5 90.5081 108.147 90.0277 109.691C89.5473 111.201 89.0839 112.523 88.6378 113.655L79.6297 138.312H103.308ZM127.759 166.417H117.052C115.851 166.417 114.873 166.126 114.118 165.542C113.363 164.925 112.797 164.17 112.42 163.277L106.86 148.092H76.0264L70.467 163.277C70.1925 164.067 69.6606 164.787 68.8713 165.439C68.082 166.091 67.104 166.417 65.9372 166.417H55.1273L84.417 91.9838H98.5211L127.759 166.417ZM161.356 143.871C157.684 144.043 154.595 144.369 152.09 144.849C149.585 145.295 147.578 145.879 146.068 146.599C144.558 147.32 143.477 148.161 142.825 149.122C142.173 150.082 141.847 151.129 141.847 152.262C141.847 154.492 142.499 156.088 143.803 157.049C145.141 158.01 146.874 158.49 149.002 158.49C151.61 158.49 153.858 158.027 155.745 157.1C157.667 156.139 159.537 154.698 161.356 152.776V143.871ZM132.221 120.965C138.295 115.405 145.604 112.626 154.149 112.626C157.238 112.626 160 113.14 162.437 114.17C164.873 115.165 166.932 116.572 168.614 118.391C170.295 120.175 171.565 122.32 172.423 124.825C173.315 127.33 173.761 130.076 173.761 133.061V166.417H167.996C166.795 166.417 165.868 166.246 165.216 165.903C164.564 165.525 164.05 164.787 163.672 163.689L162.54 159.88C161.201 161.081 159.897 162.145 158.628 163.072C157.358 163.964 156.037 164.719 154.664 165.336C153.291 165.954 151.816 166.417 150.237 166.726C148.693 167.069 146.977 167.241 145.09 167.241C142.859 167.241 140.8 166.949 138.913 166.366C137.025 165.748 135.395 164.839 134.022 163.638C132.65 162.437 131.586 160.944 130.831 159.159C130.076 157.375 129.698 155.299 129.698 152.931C129.698 151.592 129.922 150.271 130.368 148.967C130.814 147.629 131.534 146.359 132.529 145.158C133.559 143.957 134.88 142.825 136.493 141.761C138.106 140.697 140.079 139.77 142.413 138.981C144.781 138.192 147.526 137.557 150.649 137.076C153.772 136.562 157.341 136.253 161.356 136.15V133.061C161.356 129.527 160.601 126.919 159.091 125.237C157.581 123.521 155.402 122.663 152.554 122.663C150.495 122.663 148.779 122.904 147.406 123.384C146.068 123.864 144.884 124.413 143.854 125.031C142.825 125.615 141.881 126.147 141.023 126.627C140.199 127.107 139.273 127.348 138.243 127.348C137.351 127.348 136.596 127.124 135.978 126.678C135.361 126.198 134.863 125.649 134.486 125.031L132.221 120.965Z" fill="black"/>
<path d="M72.7058 224.817H67.2212V193.281H56.3538V188.559H83.5733V193.281H72.7058V224.817ZM83.3673 197.446H89.1566L94.8442 212.985C95.1489 213.764 95.4198 214.526 95.6567 215.27C95.8936 216.015 96.0968 216.76 96.2661 217.505C96.4692 218.216 96.6216 218.927 96.7232 219.638H96.9263C97.0956 218.757 97.3663 217.725 97.7388 216.54C98.1113 215.321 98.5006 214.119 98.9068 212.934L104.29 197.446H110.079L98.3482 228.525C97.705 230.285 96.9093 231.792 95.9614 233.044C95.0136 234.331 93.8793 235.312 92.559 235.99C91.2724 236.667 89.7489 237.005 87.9886 237.005C87.1423 237.005 86.4143 236.954 85.8049 236.853C85.1955 236.785 84.6707 236.701 84.2306 236.599V232.333C84.6031 232.401 85.0432 232.469 85.551 232.536C86.0926 232.604 86.6512 232.638 87.2268 232.638C88.2762 232.638 89.1736 232.435 89.9183 232.028C90.697 231.622 91.3402 231.047 91.848 230.302C92.3896 229.557 92.8467 228.711 93.2192 227.763L94.3364 224.817L83.3673 197.446ZM127.972 196.938C131.256 196.938 133.897 198.123 135.894 200.493C137.925 202.862 138.941 206.4 138.941 211.106C138.941 214.187 138.484 216.794 137.57 218.927C136.656 221.059 135.369 222.667 133.71 223.751C132.051 224.8 130.122 225.325 127.921 225.325C126.533 225.325 125.314 225.156 124.265 224.817C123.215 224.445 122.318 223.971 121.573 223.395C120.862 222.786 120.236 222.143 119.694 221.466H119.339C119.441 222.075 119.525 222.803 119.593 223.649C119.66 224.462 119.694 225.19 119.694 225.833V237.005H114.311V197.446H118.679L119.441 201.102H119.694C120.236 200.357 120.879 199.663 121.624 199.02C122.369 198.377 123.266 197.869 124.316 197.496C125.365 197.124 126.584 196.938 127.972 196.938ZM126.702 201.356C125.01 201.356 123.655 201.694 122.64 202.371C121.624 203.015 120.879 203.997 120.405 205.317C119.965 206.603 119.728 208.245 119.694 210.243V211.055C119.694 213.154 119.914 214.949 120.355 216.438C120.795 217.894 121.523 219.011 122.538 219.79C123.588 220.535 125.01 220.907 126.804 220.907C128.327 220.907 129.563 220.501 130.511 219.688C131.493 218.842 132.221 217.674 132.695 216.184C133.169 214.695 133.406 212.968 133.406 211.005C133.406 208.025 132.864 205.672 131.781 203.946C130.697 202.219 129.004 201.356 126.702 201.356ZM169.924 211.106C169.924 213.374 169.62 215.389 169.01 217.149C168.401 218.91 167.537 220.399 166.42 221.618C165.303 222.837 163.949 223.768 162.358 224.411C160.767 225.02 158.972 225.325 156.975 225.325C155.147 225.325 153.454 225.02 151.896 224.411C150.339 223.768 148.985 222.837 147.834 221.618C146.717 220.399 145.837 218.91 145.193 217.149C144.55 215.389 144.228 213.358 144.228 211.055C144.228 208.042 144.736 205.486 145.752 203.387C146.801 201.288 148.291 199.697 150.221 198.614C152.184 197.496 154.486 196.938 157.127 196.938C159.632 196.938 161.833 197.496 163.729 198.614C165.659 199.697 167.165 201.288 168.248 203.387C169.366 205.486 169.924 208.059 169.924 211.106ZM149.764 211.106C149.764 213.137 150.017 214.898 150.525 216.387C151.033 217.843 151.829 218.96 152.912 219.739C153.996 220.518 155.384 220.907 157.076 220.907C158.769 220.907 160.157 220.518 161.24 219.739C162.324 218.96 163.119 217.843 163.627 216.387C164.135 214.898 164.389 213.137 164.389 211.106C164.389 209.007 164.118 207.247 163.576 205.825C163.069 204.403 162.273 203.319 161.19 202.575C160.14 201.796 158.752 201.407 157.025 201.407C154.486 201.407 152.641 202.253 151.49 203.946C150.339 205.639 149.764 208.025 149.764 211.106ZM186.194 196.938C187.954 196.938 189.545 197.276 190.967 197.953C192.389 198.631 193.591 199.663 194.573 201.051H194.827L195.436 197.446H199.803V225.173C199.803 227.746 199.346 229.913 198.432 231.673C197.518 233.433 196.113 234.754 194.217 235.634C192.355 236.548 190.002 237.005 187.159 237.005C185.195 237.005 183.384 236.87 181.725 236.599C180.066 236.328 178.543 235.905 177.154 235.329V230.607C178.136 231.081 179.169 231.47 180.252 231.775C181.336 232.113 182.487 232.35 183.705 232.486C184.924 232.655 186.177 232.739 187.463 232.739C189.698 232.739 191.424 232.096 192.643 230.81C193.862 229.557 194.471 227.78 194.471 225.478V224.563C194.471 224.123 194.488 223.548 194.522 222.837C194.556 222.092 194.59 221.55 194.624 221.212H194.421C193.473 222.634 192.305 223.683 190.917 224.36C189.562 225.003 187.988 225.325 186.194 225.325C182.741 225.325 180.032 224.089 178.069 221.618C176.139 219.113 175.174 215.643 175.174 211.208C175.174 208.228 175.614 205.689 176.494 203.59C177.375 201.457 178.627 199.815 180.252 198.664C181.911 197.513 183.892 196.938 186.194 196.938ZM187.311 201.407C185.889 201.407 184.687 201.796 183.705 202.575C182.724 203.319 181.979 204.42 181.471 205.875C180.963 207.331 180.709 209.126 180.709 211.258C180.709 214.441 181.268 216.862 182.385 218.52C183.536 220.179 185.212 221.009 187.413 221.009C188.699 221.009 189.783 220.839 190.663 220.501C191.577 220.162 192.322 219.638 192.897 218.927C193.506 218.216 193.947 217.319 194.217 216.235C194.522 215.118 194.674 213.781 194.674 212.223V211.208C194.674 208.872 194.404 206.993 193.862 205.571C193.354 204.115 192.559 203.065 191.475 202.422C190.392 201.745 189.004 201.407 187.311 201.407ZM221.748 196.938C222.221 196.938 222.746 196.972 223.322 197.039C223.897 197.073 224.371 197.124 224.744 197.192L224.185 202.219C223.813 202.118 223.373 202.033 222.865 201.965C222.357 201.897 221.883 201.864 221.443 201.864C220.427 201.864 219.445 202.067 218.498 202.473C217.583 202.846 216.754 203.404 216.009 204.149C215.264 204.86 214.672 205.74 214.232 206.79C213.826 207.839 213.622 209.041 213.622 210.395V224.817H208.239V197.446H212.505L213.216 202.321H213.419C213.995 201.339 214.689 200.442 215.501 199.629C216.314 198.817 217.245 198.174 218.294 197.699C219.344 197.192 220.495 196.938 221.748 196.938ZM239.434 196.938C242.887 196.938 245.46 197.699 247.153 199.223C248.845 200.713 249.692 203.065 249.692 206.282V224.817H245.883L244.817 221.009H244.614C243.835 221.991 243.023 222.803 242.176 223.446C241.363 224.089 240.416 224.563 239.332 224.868C238.283 225.173 236.996 225.325 235.473 225.325C233.848 225.325 232.375 225.038 231.055 224.462C229.768 223.853 228.753 222.938 228.008 221.72C227.263 220.467 226.89 218.91 226.89 217.048C226.89 214.272 227.94 212.156 230.039 210.7C232.172 209.244 235.405 208.448 239.738 208.313L244.41 208.161V206.637C244.41 204.606 243.953 203.184 243.039 202.371C242.125 201.559 240.839 201.153 239.18 201.153C237.758 201.153 236.404 201.356 235.117 201.762C233.831 202.168 232.612 202.659 231.461 203.235L229.734 199.325C231.021 198.647 232.494 198.089 234.152 197.649C235.845 197.175 237.606 196.938 239.434 196.938ZM240.703 211.766C237.589 211.902 235.422 212.426 234.203 213.341C233.018 214.221 232.426 215.473 232.426 217.098C232.426 218.52 232.849 219.553 233.695 220.196C234.576 220.839 235.676 221.161 236.996 221.161C239.129 221.161 240.89 220.569 242.278 219.384C243.666 218.199 244.36 216.421 244.36 214.051V211.665L240.703 211.766ZM271.641 196.938C274.925 196.938 277.566 198.123 279.563 200.493C281.594 202.862 282.61 206.4 282.61 211.106C282.61 214.187 282.153 216.794 281.239 218.927C280.325 221.059 279.038 222.667 277.379 223.751C275.721 224.8 273.791 225.325 271.59 225.325C270.202 225.325 268.983 225.156 267.934 224.817C266.885 224.445 265.987 223.971 265.242 223.395C264.531 222.786 263.905 222.143 263.364 221.466H263.008C263.11 222.075 263.194 222.803 263.262 223.649C263.33 224.462 263.364 225.19 263.364 225.833V237.005H257.981V197.446H262.348L263.11 201.102H263.364C263.905 200.357 264.549 199.663 265.293 199.02C266.038 198.377 266.935 197.869 267.985 197.496C269.034 197.124 270.253 196.938 271.641 196.938ZM270.371 201.356C268.679 201.356 267.325 201.694 266.309 202.371C265.293 203.015 264.549 203.997 264.074 205.317C263.634 206.603 263.397 208.245 263.364 210.243V211.055C263.364 213.154 263.584 214.949 264.024 216.438C264.464 217.894 265.192 219.011 266.207 219.79C267.257 220.535 268.679 220.907 270.473 220.907C271.997 220.907 273.232 220.501 274.18 219.688C275.162 218.842 275.89 217.674 276.364 216.184C276.838 214.695 277.075 212.968 277.075 211.005C277.075 208.025 276.533 205.672 275.45 203.946C274.366 202.219 272.674 201.356 270.371 201.356ZM294.855 196.531C294.855 197.378 294.821 198.224 294.753 199.071C294.685 199.917 294.618 200.611 294.55 201.153H294.905C295.481 200.205 296.192 199.426 297.038 198.817C297.919 198.207 298.883 197.75 299.933 197.446C301.016 197.141 302.116 196.989 303.234 196.989C305.401 196.989 307.212 197.344 308.667 198.055C310.158 198.732 311.275 199.815 312.019 201.305C312.798 202.761 313.187 204.657 313.187 206.993V224.817H307.855V207.754C307.855 205.622 307.398 204.03 306.484 202.981C305.604 201.897 304.182 201.356 302.218 201.356C300.356 201.356 298.883 201.728 297.8 202.473C296.751 203.218 295.989 204.318 295.515 205.774C295.075 207.196 294.855 208.956 294.855 211.055V224.817H289.472V186.223H294.855V196.531ZM317.295 197.446H323.084L328.772 212.985C329.077 213.764 329.346 214.526 329.585 215.27C329.821 216.015 330.024 216.76 330.194 217.505C330.397 218.216 330.549 218.927 330.651 219.638H330.854C331.022 218.757 331.293 217.725 331.667 216.54C332.037 215.321 332.428 214.119 332.835 212.934L338.218 197.446H344.007L332.276 228.525C331.631 230.285 330.836 231.792 329.889 233.044C328.94 234.331 327.807 235.312 326.487 235.99C325.199 236.667 323.676 237.005 321.916 237.005C321.068 237.005 320.342 236.954 319.733 236.853C319.123 236.785 318.598 236.701 318.158 236.599V232.333C318.529 232.401 318.971 232.469 319.479 232.536C320.02 232.604 320.578 232.638 321.155 232.638C322.203 232.638 323.1 232.435 323.846 232.028C324.623 231.622 325.268 231.047 325.776 230.302C326.317 229.557 326.774 228.711 327.147 227.763L328.264 224.817L317.295 197.446Z" fill="black"/>
<path d="M345.154 43.2696H55.6936" stroke="#6584A6"/>
<path d="M345.154 104.209H55.6936" stroke="#6584A6"/>
<path d="M345.154 166.417H55.6936" stroke="#6584A6" stroke-width="2"/>
<path d="M345.154 226.087H55.6936" stroke="#6584A6"/>
</svg>
