<svg width="1440" height="135" viewBox="0 0 1440 135" fill="none" xmlns="http://www.w3.org/2000/svg">
<rect width="1440" height="135" fill="#F1F2F3"/>
<path d="M158.924 71.1044C158.924 72.2304 158.516 73.1074 157.698 73.7356C156.88 74.3637 155.778 74.6778 154.391 74.6778C153.68 74.6778 153.022 74.6244 152.418 74.5178C151.813 74.4111 151.31 74.263 150.907 74.0733V72.5444C151.333 72.7341 151.861 72.9059 152.489 73.06C153.129 73.2141 153.787 73.2911 154.462 73.2911C155.41 73.2911 156.121 73.1074 156.596 72.74C157.081 72.3726 157.324 71.8748 157.324 71.2467C157.324 70.8319 157.236 70.4822 157.058 70.1978C156.88 69.9133 156.572 69.6526 156.133 69.4156C155.707 69.1667 155.108 68.9059 154.338 68.6333C153.259 68.2422 152.441 67.7622 151.884 67.1933C151.339 66.6244 151.067 65.8481 151.067 64.8644C151.067 64.1889 151.239 63.6141 151.582 63.14C151.926 62.6541 152.4 62.2807 153.004 62.02C153.621 61.7593 154.326 61.6289 155.12 61.6289C155.819 61.6289 156.459 61.6941 157.04 61.8244C157.621 61.9548 158.148 62.1267 158.622 62.34L158.124 63.7089C157.686 63.5193 157.206 63.3593 156.684 63.2289C156.175 63.0985 155.641 63.0333 155.084 63.0333C154.29 63.0333 153.692 63.2052 153.289 63.5489C152.886 63.8807 152.684 64.3252 152.684 64.8822C152.684 65.3089 152.773 65.6644 152.951 65.9489C153.129 66.2333 153.419 66.4881 153.822 66.7133C154.225 66.9385 154.77 67.1815 155.458 67.4422C156.204 67.7148 156.833 68.0111 157.342 68.3311C157.864 68.6393 158.255 69.0126 158.516 69.4511C158.788 69.8896 158.924 70.4407 158.924 71.1044ZM169.553 69.7178C169.553 71.2941 169.15 72.5148 168.344 73.38C167.55 74.2452 166.471 74.6778 165.108 74.6778C164.267 74.6778 163.514 74.4881 162.85 74.1089C162.198 73.7178 161.683 73.1548 161.304 72.42C160.924 71.6733 160.735 70.7726 160.735 69.7178C160.735 68.1415 161.132 66.9267 161.926 66.0733C162.72 65.22 163.798 64.7933 165.161 64.7933C166.027 64.7933 166.785 64.9889 167.437 65.38C168.101 65.7593 168.616 66.3163 168.984 67.0511C169.363 67.7741 169.553 68.663 169.553 69.7178ZM162.353 69.7178C162.353 70.8437 162.572 71.7385 163.01 72.4022C163.461 73.0541 164.172 73.38 165.144 73.38C166.104 73.38 166.809 73.0541 167.259 72.4022C167.71 71.7385 167.935 70.8437 167.935 69.7178C167.935 68.5919 167.71 67.7089 167.259 67.0689C166.809 66.4289 166.098 66.1089 165.126 66.1089C164.154 66.1089 163.449 66.4289 163.01 67.0689C162.572 67.7089 162.353 68.5919 162.353 69.7178ZM175.854 74.6778C175.013 74.6778 174.26 74.5059 173.596 74.1622C172.945 73.8185 172.429 73.2852 172.05 72.5622C171.682 71.8393 171.499 70.9148 171.499 69.7889C171.499 68.6156 171.694 67.6615 172.085 66.9267C172.476 66.1919 173.004 65.6526 173.668 65.3089C174.343 64.9652 175.108 64.7933 175.961 64.7933C176.447 64.7933 176.915 64.8467 177.365 64.9533C177.816 65.0481 178.183 65.1667 178.468 65.3089L177.988 66.6067C177.703 66.5 177.371 66.3993 176.992 66.3044C176.613 66.2096 176.257 66.1622 175.925 66.1622C174.053 66.1622 173.116 67.3652 173.116 69.7711C173.116 70.9207 173.342 71.8037 173.792 72.42C174.254 73.0244 174.936 73.3267 175.836 73.3267C176.358 73.3267 176.814 73.2733 177.205 73.1667C177.608 73.06 177.976 72.9296 178.308 72.7756V74.1622C177.988 74.3281 177.632 74.4526 177.241 74.5356C176.862 74.6304 176.399 74.6778 175.854 74.6778ZM181.374 61.3978C181.611 61.3978 181.818 61.4807 181.996 61.6467C182.185 61.8007 182.28 62.0496 182.28 62.3933C182.28 62.7252 182.185 62.9741 181.996 63.14C181.818 63.3059 181.611 63.3889 181.374 63.3889C181.113 63.3889 180.894 63.3059 180.716 63.14C180.538 62.9741 180.449 62.7252 180.449 62.3933C180.449 62.0496 180.538 61.8007 180.716 61.6467C180.894 61.4807 181.113 61.3978 181.374 61.3978ZM182.138 64.9711V74.5H180.574V64.9711H182.138ZM188.766 64.8111C189.927 64.8111 190.787 65.0659 191.344 65.5756C191.901 66.0852 192.179 66.897 192.179 68.0111V74.5H191.041L190.739 73.1489H190.668C190.253 73.6704 189.815 74.0556 189.353 74.3044C188.902 74.5533 188.274 74.6778 187.468 74.6778C186.603 74.6778 185.886 74.4526 185.317 74.0022C184.748 73.54 184.464 72.823 184.464 71.8511C184.464 70.903 184.837 70.1741 185.584 69.6644C186.33 69.143 187.48 68.8585 189.033 68.8111L190.65 68.7578V68.1889C190.65 67.3948 190.478 66.8437 190.135 66.5356C189.791 66.2274 189.305 66.0733 188.677 66.0733C188.179 66.0733 187.705 66.1504 187.255 66.3044C186.804 66.4467 186.384 66.6126 185.993 66.8022L185.513 65.6289C185.927 65.4037 186.419 65.2141 186.988 65.06C187.557 64.8941 188.15 64.8111 188.766 64.8111ZM189.228 69.8956C188.043 69.943 187.219 70.1326 186.757 70.4644C186.307 70.7963 186.081 71.2644 186.081 71.8689C186.081 72.4022 186.241 72.7933 186.561 73.0422C186.893 73.2911 187.314 73.4156 187.824 73.4156C188.63 73.4156 189.299 73.1963 189.833 72.7578C190.366 72.3074 190.633 71.62 190.633 70.6956V69.8422L189.228 69.8956ZM196.687 74.5H195.122V60.9889H196.687V74.5ZM214.777 64.7933C215.855 64.7933 216.661 65.0719 217.195 65.6289C217.728 66.1741 217.995 67.063 217.995 68.2956V74.5H216.448V68.3667C216.448 66.8615 215.802 66.1089 214.51 66.1089C213.586 66.1089 212.922 66.3756 212.519 66.9089C212.128 67.4422 211.933 68.2185 211.933 69.2378V74.5H210.386V68.3667C210.386 66.8615 209.734 66.1089 208.43 66.1089C207.47 66.1089 206.807 66.4052 206.439 66.9978C206.072 67.5904 205.888 68.4437 205.888 69.5578V74.5H204.324V64.9711H205.586L205.817 66.2689H205.906C206.202 65.7711 206.599 65.4037 207.097 65.1667C207.607 64.9178 208.146 64.7933 208.715 64.7933C210.208 64.7933 211.18 65.3267 211.63 66.3933H211.719C212.039 65.8481 212.472 65.4452 213.017 65.1844C213.574 64.9237 214.161 64.7933 214.777 64.7933ZM224.618 64.7933C225.436 64.7933 226.135 64.9711 226.716 65.3267C227.309 65.6822 227.759 66.1859 228.067 66.8378C228.387 67.4778 228.547 68.2304 228.547 69.0956V70.0378H222.023C222.046 71.1163 222.319 71.94 222.84 72.5089C223.374 73.0659 224.114 73.3444 225.063 73.3444C225.667 73.3444 226.2 73.2911 226.663 73.1844C227.137 73.0659 227.623 72.9 228.12 72.6867V74.0556C227.634 74.2689 227.154 74.423 226.68 74.5178C226.206 74.6244 225.643 74.6778 224.992 74.6778C224.091 74.6778 223.291 74.4941 222.592 74.1267C221.904 73.7593 221.365 73.2141 220.974 72.4911C220.594 71.7563 220.405 70.8615 220.405 69.8067C220.405 68.7637 220.577 67.8689 220.92 67.1222C221.276 66.3756 221.768 65.8007 222.396 65.3978C223.036 64.9948 223.777 64.7933 224.618 64.7933ZM224.6 66.0733C223.854 66.0733 223.261 66.3163 222.823 66.8022C222.396 67.2763 222.141 67.94 222.058 68.7933H226.912C226.9 67.9874 226.71 67.3356 226.343 66.8378C225.975 66.3281 225.394 66.0733 224.6 66.0733ZM234.351 74.6778C233.166 74.6778 232.217 74.2689 231.506 73.4511C230.795 72.6215 230.44 71.3889 230.44 69.7533C230.44 68.1178 230.795 66.8852 231.506 66.0556C232.229 65.2141 233.183 64.7933 234.368 64.7933C235.103 64.7933 235.702 64.9296 236.164 65.2022C236.638 65.4748 237.023 65.8067 237.32 66.1978H237.426C237.414 66.0437 237.391 65.8185 237.355 65.5222C237.331 65.2141 237.32 64.9711 237.32 64.7933V60.9889H238.884V74.5H237.622L237.391 73.22H237.32C237.035 73.623 236.656 73.9667 236.182 74.2511C235.708 74.5356 235.097 74.6778 234.351 74.6778ZM234.6 73.38C235.607 73.38 236.312 73.1074 236.715 72.5622C237.13 72.0052 237.337 71.1696 237.337 70.0556V69.7711C237.337 68.5859 237.142 67.6793 236.751 67.0511C236.36 66.4111 235.637 66.0911 234.582 66.0911C233.74 66.0911 233.106 66.4289 232.68 67.1044C232.265 67.7681 232.057 68.663 232.057 69.7889C232.057 70.9267 232.265 71.8096 232.68 72.4378C233.106 73.0659 233.746 73.38 234.6 73.38ZM242.71 61.3978C242.947 61.3978 243.155 61.4807 243.333 61.6467C243.522 61.8007 243.617 62.0496 243.617 62.3933C243.617 62.7252 243.522 62.9741 243.333 63.14C243.155 63.3059 242.947 63.3889 242.71 63.3889C242.45 63.3889 242.23 63.3059 242.053 63.14C241.875 62.9741 241.786 62.7252 241.786 62.3933C241.786 62.0496 241.875 61.8007 242.053 61.6467C242.23 61.4807 242.45 61.3978 242.71 61.3978ZM243.475 64.9711V74.5H241.91V64.9711H243.475ZM250.103 64.8111C251.264 64.8111 252.123 65.0659 252.68 65.5756C253.237 66.0852 253.516 66.897 253.516 68.0111V74.5H252.378L252.076 73.1489H252.005C251.59 73.6704 251.152 74.0556 250.689 74.3044C250.239 74.5533 249.611 74.6778 248.805 74.6778C247.94 74.6778 247.223 74.4526 246.654 74.0022C246.085 73.54 245.8 72.823 245.8 71.8511C245.8 70.903 246.174 70.1741 246.92 69.6644C247.667 69.143 248.817 68.8585 250.369 68.8111L251.987 68.7578V68.1889C251.987 67.3948 251.815 66.8437 251.472 66.5356C251.128 66.2274 250.642 66.0733 250.014 66.0733C249.516 66.0733 249.042 66.1504 248.592 66.3044C248.141 66.4467 247.72 66.6126 247.329 66.8022L246.849 65.6289C247.264 65.4037 247.756 65.2141 248.325 65.06C248.894 64.8941 249.486 64.8111 250.103 64.8111ZM250.565 69.8956C249.38 69.943 248.556 70.1326 248.094 70.4644C247.643 70.7963 247.418 71.2644 247.418 71.8689C247.418 72.4022 247.578 72.7933 247.898 73.0422C248.23 73.2911 248.651 73.4156 249.16 73.4156C249.966 73.4156 250.636 73.1963 251.169 72.7578C251.703 72.3074 251.969 71.62 251.969 70.6956V69.8422L250.565 69.8956Z" fill="#2B4380"/>
<circle cx="273" cy="67.5" r="3" fill="black"/>
<path d="M298.324 74.5L294.147 63.3711H294.076C294.111 63.7385 294.141 64.2363 294.164 64.8644C294.188 65.4807 294.2 66.1267 294.2 66.8022V74.5H292.724V61.8067H295.089L299 72.2067H299.071L303.053 61.8067H305.4V74.5H303.818V66.6956C303.818 66.0793 303.83 65.4689 303.853 64.8644C303.889 64.26 303.919 63.7681 303.942 63.3889H303.871L299.64 74.5H298.324ZM316.924 69.7178C316.924 71.2941 316.521 72.5148 315.715 73.38C314.921 74.2452 313.843 74.6778 312.48 74.6778C311.638 74.6778 310.886 74.4881 310.222 74.1089C309.57 73.7178 309.054 73.1548 308.675 72.42C308.296 71.6733 308.106 70.7726 308.106 69.7178C308.106 68.1415 308.503 66.9267 309.297 66.0733C310.091 65.22 311.17 64.7933 312.533 64.7933C313.398 64.7933 314.157 64.9889 314.808 65.38C315.472 65.7593 315.988 66.3163 316.355 67.0511C316.734 67.7741 316.924 68.663 316.924 69.7178ZM309.724 69.7178C309.724 70.8437 309.943 71.7385 310.382 72.4022C310.832 73.0541 311.543 73.38 312.515 73.38C313.475 73.38 314.18 73.0541 314.631 72.4022C315.081 71.7385 315.306 70.8437 315.306 69.7178C315.306 68.5919 315.081 67.7089 314.631 67.0689C314.18 66.4289 313.469 66.1089 312.497 66.1089C311.526 66.1089 310.82 66.4289 310.382 67.0689C309.943 67.7089 309.724 68.5919 309.724 69.7178ZM320.968 64.2778C320.968 64.6807 320.956 65.06 320.932 65.4156C320.921 65.7593 320.903 66.0319 320.879 66.2333H320.968C321.241 65.8304 321.614 65.4926 322.088 65.22C322.562 64.9474 323.172 64.8111 323.919 64.8111C325.104 64.8111 326.052 65.2259 326.763 66.0556C327.486 66.8733 327.848 68.1 327.848 69.7356C327.848 71.3711 327.486 72.6037 326.763 73.4333C326.041 74.263 325.092 74.6778 323.919 74.6778C323.172 74.6778 322.562 74.5415 322.088 74.2689C321.614 73.9963 321.241 73.6704 320.968 73.2911H320.843L320.523 74.5H319.403V60.9889H320.968V64.2778ZM323.652 66.1089C322.645 66.1089 321.946 66.3993 321.555 66.98C321.163 67.5607 320.968 68.4615 320.968 69.6822V69.7533C320.968 70.9267 321.158 71.8274 321.537 72.4556C321.928 73.0719 322.645 73.38 323.688 73.38C324.541 73.38 325.175 73.0659 325.59 72.4378C326.017 71.8096 326.23 70.903 326.23 69.7178C326.23 67.3119 325.371 66.1089 323.652 66.1089ZM331.141 61.3978C331.378 61.3978 331.585 61.4807 331.763 61.6467C331.953 61.8007 332.048 62.0496 332.048 62.3933C332.048 62.7252 331.953 62.9741 331.763 63.14C331.585 63.3059 331.378 63.3889 331.141 63.3889C330.88 63.3889 330.661 63.3059 330.483 63.14C330.305 62.9741 330.217 62.7252 330.217 62.3933C330.217 62.0496 330.305 61.8007 330.483 61.6467C330.661 61.4807 330.88 61.3978 331.141 61.3978ZM331.905 64.9711V74.5H330.341V64.9711H331.905ZM336.489 74.5H334.924V60.9889H336.489V74.5ZM343.188 64.7933C344.005 64.7933 344.705 64.9711 345.285 65.3267C345.878 65.6822 346.328 66.1859 346.637 66.8378C346.957 67.4778 347.117 68.2304 347.117 69.0956V70.0378H340.592C340.616 71.1163 340.888 71.94 341.41 72.5089C341.943 73.0659 342.684 73.3444 343.632 73.3444C344.237 73.3444 344.77 73.2911 345.232 73.1844C345.706 73.0659 346.192 72.9 346.69 72.6867V74.0556C346.204 74.2689 345.724 74.423 345.25 74.5178C344.776 74.6244 344.213 74.6778 343.561 74.6778C342.66 74.6778 341.86 74.4941 341.161 74.1267C340.474 73.7593 339.934 73.2141 339.543 72.4911C339.164 71.7563 338.974 70.8615 338.974 69.8067C338.974 68.7637 339.146 67.8689 339.49 67.1222C339.845 66.3756 340.337 65.8007 340.965 65.3978C341.605 64.9948 342.346 64.7933 343.188 64.7933ZM343.17 66.0733C342.423 66.0733 341.831 66.3163 341.392 66.8022C340.965 67.2763 340.711 67.94 340.628 68.7933H345.481C345.469 67.9874 345.279 67.3356 344.912 66.8378C344.545 66.3281 343.964 66.0733 343.17 66.0733ZM357.769 64.8111C358.931 64.8111 359.79 65.0659 360.347 65.5756C360.904 66.0852 361.183 66.897 361.183 68.0111V74.5H360.045L359.743 73.1489H359.672C359.257 73.6704 358.818 74.0556 358.356 74.3044C357.906 74.5533 357.277 74.6778 356.472 74.6778C355.606 74.6778 354.889 74.4526 354.32 74.0022C353.752 73.54 353.467 72.823 353.467 71.8511C353.467 70.903 353.84 70.1741 354.587 69.6644C355.334 69.143 356.483 68.8585 358.036 68.8111L359.654 68.7578V68.1889C359.654 67.3948 359.482 66.8437 359.138 66.5356C358.794 66.2274 358.309 66.0733 357.68 66.0733C357.183 66.0733 356.709 66.1504 356.258 66.3044C355.808 66.4467 355.387 66.6126 354.996 66.8022L354.516 65.6289C354.931 65.4037 355.423 65.2141 355.992 65.06C356.56 64.8941 357.153 64.8111 357.769 64.8111ZM358.232 69.8956C357.046 69.943 356.223 70.1326 355.76 70.4644C355.31 70.7963 355.085 71.2644 355.085 71.8689C355.085 72.4022 355.245 72.7933 355.565 73.0422C355.897 73.2911 356.317 73.4156 356.827 73.4156C357.633 73.4156 358.303 73.1963 358.836 72.7578C359.369 72.3074 359.636 71.62 359.636 70.6956V69.8422L358.232 69.8956ZM368.659 64.7933C369.832 64.7933 370.775 65.2022 371.486 66.02C372.209 66.8378 372.57 68.0704 372.57 69.7178C372.57 71.3415 372.209 72.5741 371.486 73.4156C370.775 74.257 369.826 74.6778 368.641 74.6778C367.906 74.6778 367.296 74.5415 366.81 74.2689C366.336 73.9844 365.963 73.6585 365.69 73.2911H365.583C365.607 73.4926 365.631 73.7474 365.655 74.0556C365.678 74.3637 365.69 74.6304 365.69 74.8556V78.7667H364.126V64.9711H365.406L365.619 66.2689H365.69C365.975 65.8541 366.348 65.5044 366.81 65.22C367.272 64.9356 367.889 64.7933 368.659 64.7933ZM368.375 66.1089C367.403 66.1089 366.715 66.3815 366.312 66.9267C365.921 67.4719 365.714 68.3015 365.69 69.4156V69.7178C365.69 70.8911 365.88 71.7978 366.259 72.4378C366.65 73.0659 367.367 73.38 368.41 73.38C368.991 73.38 369.465 73.22 369.832 72.9C370.212 72.58 370.49 72.1474 370.668 71.6022C370.858 71.0452 370.952 70.4111 370.952 69.7C370.952 68.6096 370.739 67.7385 370.312 67.0867C369.898 66.4348 369.252 66.1089 368.375 66.1089ZM379.597 64.7933C380.77 64.7933 381.712 65.2022 382.423 66.02C383.146 66.8378 383.508 68.0704 383.508 69.7178C383.508 71.3415 383.146 72.5741 382.423 73.4156C381.712 74.257 380.764 74.6778 379.579 74.6778C378.844 74.6778 378.234 74.5415 377.748 74.2689C377.274 73.9844 376.9 73.6585 376.628 73.2911H376.521C376.545 73.4926 376.568 73.7474 376.592 74.0556C376.616 74.3637 376.628 74.6304 376.628 74.8556V78.7667H375.063V64.9711H376.343L376.557 66.2689H376.628C376.912 65.8541 377.285 65.5044 377.748 65.22C378.21 64.9356 378.826 64.7933 379.597 64.7933ZM379.312 66.1089C378.34 66.1089 377.653 66.3815 377.25 66.9267C376.859 67.4719 376.651 68.3015 376.628 69.4156V69.7178C376.628 70.8911 376.817 71.7978 377.197 72.4378C377.588 73.0659 378.305 73.38 379.348 73.38C379.928 73.38 380.402 73.22 380.77 72.9C381.149 72.58 381.428 72.1474 381.605 71.6022C381.795 71.0452 381.89 70.4111 381.89 69.7C381.89 68.6096 381.677 67.7385 381.25 67.0867C380.835 66.4348 380.189 66.1089 379.312 66.1089ZM387.565 74.5H386.001V60.9889H387.565V74.5ZM391.384 61.3978C391.621 61.3978 391.828 61.4807 392.006 61.6467C392.196 61.8007 392.291 62.0496 392.291 62.3933C392.291 62.7252 392.196 62.9741 392.006 63.14C391.828 63.3059 391.621 63.3889 391.384 63.3889C391.123 63.3889 390.904 63.3059 390.726 63.14C390.548 62.9741 390.46 62.7252 390.46 62.3933C390.46 62.0496 390.548 61.8007 390.726 61.6467C390.904 61.4807 391.123 61.3978 391.384 61.3978ZM392.148 64.9711V74.5H390.584V64.9711H392.148ZM398.99 74.6778C398.148 74.6778 397.396 74.5059 396.732 74.1622C396.08 73.8185 395.564 73.2852 395.185 72.5622C394.818 71.8393 394.634 70.9148 394.634 69.7889C394.634 68.6156 394.83 67.6615 395.221 66.9267C395.612 66.1919 396.139 65.6526 396.803 65.3089C397.478 64.9652 398.243 64.7933 399.096 64.7933C399.582 64.7933 400.05 64.8467 400.501 64.9533C400.951 65.0481 401.318 65.1667 401.603 65.3089L401.123 66.6067C400.838 66.5 400.507 66.3993 400.127 66.3044C399.748 66.2096 399.393 66.1622 399.061 66.1622C397.188 66.1622 396.252 67.3652 396.252 69.7711C396.252 70.9207 396.477 71.8037 396.927 72.42C397.39 73.0244 398.071 73.3267 398.972 73.3267C399.493 73.3267 399.95 73.2733 400.341 73.1667C400.744 73.06 401.111 72.9296 401.443 72.7756V74.1622C401.123 74.3281 400.767 74.4526 400.376 74.5356C399.997 74.6304 399.535 74.6778 398.99 74.6778ZM407.318 64.8111C408.479 64.8111 409.339 65.0659 409.896 65.5756C410.453 66.0852 410.731 66.897 410.731 68.0111V74.5H409.593L409.291 73.1489H409.22C408.805 73.6704 408.367 74.0556 407.905 74.3044C407.454 74.5533 406.826 74.6778 406.02 74.6778C405.155 74.6778 404.438 74.4526 403.869 74.0022C403.3 73.54 403.016 72.823 403.016 71.8511C403.016 70.903 403.389 70.1741 404.136 69.6644C404.882 69.143 406.032 68.8585 407.585 68.8111L409.202 68.7578V68.1889C409.202 67.3948 409.031 66.8437 408.687 66.5356C408.343 66.2274 407.857 66.0733 407.229 66.0733C406.731 66.0733 406.257 66.1504 405.807 66.3044C405.356 66.4467 404.936 66.6126 404.545 66.8022L404.065 65.6289C404.479 65.4037 404.971 65.2141 405.54 65.06C406.109 64.8941 406.702 64.8111 407.318 64.8111ZM407.78 69.8956C406.595 69.943 405.771 70.1326 405.309 70.4644C404.859 70.7963 404.633 71.2644 404.633 71.8689C404.633 72.4022 404.793 72.7933 405.113 73.0422C405.445 73.2911 405.866 73.4156 406.376 73.4156C407.182 73.4156 407.851 73.1963 408.385 72.7578C408.918 72.3074 409.185 71.62 409.185 70.6956V69.8422L407.78 69.8956ZM416.857 73.3978C417.094 73.3978 417.337 73.38 417.585 73.3444C417.834 73.297 418.036 73.2496 418.19 73.2022V74.3933C418.024 74.4763 417.787 74.5415 417.479 74.5889C417.171 74.6481 416.874 74.6778 416.59 74.6778C416.092 74.6778 415.63 74.5948 415.203 74.4289C414.788 74.2511 414.451 73.9489 414.19 73.5222C413.929 73.0956 413.799 72.497 413.799 71.7267V66.18H412.448V65.4333L413.817 64.8111L414.439 62.7844H415.363V64.9711H418.119V66.18H415.363V71.6911C415.363 72.2719 415.499 72.7044 415.772 72.9889C416.057 73.2615 416.418 73.3978 416.857 73.3978ZM420.898 61.3978C421.135 61.3978 421.342 61.4807 421.52 61.6467C421.71 61.8007 421.805 62.0496 421.805 62.3933C421.805 62.7252 421.71 62.9741 421.52 63.14C421.342 63.3059 421.135 63.3889 420.898 63.3889C420.637 63.3889 420.418 63.3059 420.24 63.14C420.062 62.9741 419.973 62.7252 419.973 62.3933C419.973 62.0496 420.062 61.8007 420.24 61.6467C420.418 61.4807 420.637 61.3978 420.898 61.3978ZM421.662 64.9711V74.5H420.098V64.9711H421.662ZM432.966 69.7178C432.966 71.2941 432.563 72.5148 431.757 73.38C430.963 74.2452 429.884 74.6778 428.521 74.6778C427.68 74.6778 426.927 74.4881 426.263 74.1089C425.612 73.7178 425.096 73.1548 424.717 72.42C424.338 71.6733 424.148 70.7726 424.148 69.7178C424.148 68.1415 424.545 66.9267 425.339 66.0733C426.133 65.22 427.212 64.7933 428.575 64.7933C429.44 64.7933 430.198 64.9889 430.85 65.38C431.514 65.7593 432.029 66.3163 432.397 67.0511C432.776 67.7741 432.966 68.663 432.966 69.7178ZM425.766 69.7178C425.766 70.8437 425.985 71.7385 426.423 72.4022C426.874 73.0541 427.585 73.38 428.557 73.38C429.517 73.38 430.222 73.0541 430.672 72.4022C431.123 71.7385 431.348 70.8437 431.348 69.7178C431.348 68.5919 431.123 67.7089 430.672 67.0689C430.222 66.4289 429.511 66.1089 428.539 66.1089C427.567 66.1089 426.862 66.4289 426.423 67.0689C425.985 67.7089 425.766 68.5919 425.766 69.7178ZM440.032 64.7933C441.17 64.7933 442.029 65.0719 442.61 65.6289C443.19 66.1741 443.481 67.063 443.481 68.2956V74.5H441.934V68.4022C441.934 66.8733 441.223 66.1089 439.801 66.1089C438.746 66.1089 438.017 66.4052 437.614 66.9978C437.211 67.5904 437.01 68.4437 437.01 69.5578V74.5H435.445V64.9711H436.707L436.938 66.2689H437.027C437.336 65.7711 437.762 65.4037 438.307 65.1667C438.853 64.9178 439.427 64.7933 440.032 64.7933ZM452.639 71.8689C452.639 72.7933 452.295 73.4926 451.608 73.9667C450.921 74.4407 449.996 74.6778 448.835 74.6778C448.171 74.6778 447.596 74.6244 447.11 74.5178C446.636 74.4111 446.215 74.263 445.848 74.0733V72.6511C446.227 72.8407 446.684 73.0185 447.217 73.1844C447.762 73.3385 448.313 73.4156 448.87 73.4156C449.664 73.4156 450.239 73.2911 450.595 73.0422C450.95 72.7815 451.128 72.4378 451.128 72.0111C451.128 71.7741 451.063 71.5607 450.933 71.3711C450.802 71.1815 450.565 70.9919 450.221 70.8022C449.89 70.6126 449.41 70.3993 448.781 70.1622C448.165 69.9252 447.638 69.6881 447.199 69.4511C446.761 69.2141 446.423 68.9296 446.186 68.5978C445.949 68.2659 445.83 67.8393 445.83 67.3178C445.83 66.5119 446.156 65.8896 446.808 65.4511C447.472 65.0126 448.337 64.7933 449.404 64.7933C449.984 64.7933 450.524 64.8526 451.021 64.9711C451.531 65.0778 452.005 65.2319 452.444 65.4333L451.91 66.6778C451.507 66.5119 451.087 66.3696 450.648 66.2511C450.21 66.1326 449.759 66.0733 449.297 66.0733C448.657 66.0733 448.165 66.18 447.821 66.3933C447.49 66.5948 447.324 66.8733 447.324 67.2289C447.324 67.4896 447.401 67.7148 447.555 67.9044C447.709 68.0822 447.964 68.26 448.319 68.4378C448.687 68.6037 449.173 68.8052 449.777 69.0422C450.381 69.2674 450.897 69.4985 451.324 69.7356C451.75 69.9726 452.076 70.263 452.301 70.6067C452.527 70.9385 452.639 71.3593 452.639 71.8689Z" fill="#2B4380"/>
<circle cx="472" cy="67.5" r="3" fill="black"/>
<path d="M499.689 74.5L498.16 70.5711H493.129L491.618 74.5H490L494.96 61.7533H496.4L501.342 74.5H499.689ZM496.258 65.3089C496.222 65.2141 496.163 65.0422 496.08 64.7933C495.997 64.5444 495.914 64.2896 495.831 64.0289C495.76 63.7563 495.701 63.5489 495.653 63.4067C495.57 63.7741 495.476 64.1356 495.369 64.4911C495.262 64.8348 495.173 65.1074 495.102 65.3089L493.662 69.1489H497.68L496.258 65.3089ZM504.43 64.2778C504.43 64.6807 504.418 65.06 504.394 65.4156C504.382 65.7593 504.365 66.0319 504.341 66.2333H504.43C504.702 65.8304 505.076 65.4926 505.55 65.22C506.024 64.9474 506.634 64.8111 507.381 64.8111C508.566 64.8111 509.514 65.2259 510.225 66.0556C510.948 66.8733 511.31 68.1 511.31 69.7356C511.31 71.3711 510.948 72.6037 510.225 73.4333C509.502 74.263 508.554 74.6778 507.381 74.6778C506.634 74.6778 506.024 74.5415 505.55 74.2689C505.076 73.9963 504.702 73.6704 504.43 73.2911H504.305L503.985 74.5H502.865V60.9889H504.43V64.2778ZM507.114 66.1089C506.107 66.1089 505.408 66.3993 505.016 66.98C504.625 67.5607 504.43 68.4615 504.43 69.6822V69.7533C504.43 70.9267 504.619 71.8274 504.999 72.4556C505.39 73.0719 506.107 73.38 507.15 73.38C508.003 73.38 508.637 73.0659 509.052 72.4378C509.479 71.8096 509.692 70.903 509.692 69.7178C509.692 67.3119 508.833 66.1089 507.114 66.1089ZM522.087 69.7178C522.087 71.2941 521.684 72.5148 520.878 73.38C520.084 74.2452 519.006 74.6778 517.643 74.6778C516.801 74.6778 516.049 74.4881 515.385 74.1089C514.733 73.7178 514.218 73.1548 513.838 72.42C513.459 71.6733 513.269 70.7726 513.269 69.7178C513.269 68.1415 513.666 66.9267 514.461 66.0733C515.255 65.22 516.333 64.7933 517.696 64.7933C518.561 64.7933 519.32 64.9889 519.972 65.38C520.635 65.7593 521.151 66.3163 521.518 67.0511C521.898 67.7741 522.087 68.663 522.087 69.7178ZM514.887 69.7178C514.887 70.8437 515.106 71.7385 515.545 72.4022C515.995 73.0541 516.706 73.38 517.678 73.38C518.638 73.38 519.344 73.0541 519.794 72.4022C520.244 71.7385 520.469 70.8437 520.469 69.7178C520.469 68.5919 520.244 67.7089 519.794 67.0689C519.344 66.4289 518.632 66.1089 517.661 66.1089C516.689 66.1089 515.984 66.4289 515.545 67.0689C515.106 67.7089 514.887 68.5919 514.887 69.7178ZM532.531 64.9711V74.5H531.251L531.02 73.2378H530.949C530.641 73.7356 530.214 74.103 529.669 74.34C529.124 74.5652 528.543 74.6778 527.927 74.6778C526.777 74.6778 525.912 74.4052 525.331 73.86C524.75 73.303 524.46 72.42 524.46 71.2111V64.9711H526.042V71.1044C526.042 72.6215 526.747 73.38 528.158 73.38C529.213 73.38 529.941 73.0837 530.344 72.4911C530.759 71.8985 530.967 71.0452 530.967 69.9311V64.9711H532.531ZM538.738 73.3978C538.976 73.3978 539.218 73.38 539.467 73.3444C539.716 73.297 539.918 73.2496 540.072 73.2022V74.3933C539.906 74.4763 539.669 74.5415 539.361 74.5889C539.053 74.6481 538.756 74.6778 538.472 74.6778C537.974 74.6778 537.512 74.5948 537.085 74.4289C536.67 74.2511 536.333 73.9489 536.072 73.5222C535.811 73.0956 535.681 72.497 535.681 71.7267V66.18H534.33V65.4333L535.698 64.8111L536.321 62.7844H537.245V64.9711H540.001V66.18H537.245V71.6911C537.245 72.2719 537.381 72.7044 537.654 72.9889C537.938 73.2615 538.3 73.3978 538.738 73.3978ZM552.251 63.0333C550.888 63.0333 549.816 63.4896 549.033 64.4022C548.251 65.3148 547.86 66.5652 547.86 68.1533C547.86 69.7296 548.222 70.98 548.945 71.9044C549.679 72.817 550.776 73.2733 552.233 73.2733C552.791 73.2733 553.318 73.2259 553.816 73.1311C554.313 73.0363 554.799 72.9178 555.273 72.7756V74.1622C554.799 74.34 554.308 74.4704 553.798 74.5533C553.3 74.6363 552.702 74.6778 552.002 74.6778C550.711 74.6778 549.632 74.4111 548.767 73.8778C547.902 73.3444 547.25 72.5859 546.811 71.6022C546.385 70.6185 546.171 69.463 546.171 68.1356C546.171 66.8556 546.402 65.7296 546.865 64.7578C547.339 63.7741 548.032 63.0096 548.945 62.4644C549.857 61.9074 550.965 61.6289 552.269 61.6289C553.608 61.6289 554.776 61.8778 555.771 62.3756L555.131 63.7267C554.74 63.5489 554.302 63.3889 553.816 63.2467C553.342 63.1044 552.82 63.0333 552.251 63.0333ZM561.439 64.8111C562.601 64.8111 563.46 65.0659 564.017 65.5756C564.574 66.0852 564.853 66.897 564.853 68.0111V74.5H563.715L563.413 73.1489H563.342C562.927 73.6704 562.488 74.0556 562.026 74.3044C561.576 74.5533 560.948 74.6778 560.142 74.6778C559.276 74.6778 558.559 74.4526 557.991 74.0022C557.422 73.54 557.137 72.823 557.137 71.8511C557.137 70.903 557.511 70.1741 558.257 69.6644C559.004 69.143 560.154 68.8585 561.706 68.8111L563.324 68.7578V68.1889C563.324 67.3948 563.152 66.8437 562.808 66.5356C562.465 66.2274 561.979 66.0733 561.351 66.0733C560.853 66.0733 560.379 66.1504 559.928 66.3044C559.478 66.4467 559.057 66.6126 558.666 66.8022L558.186 65.6289C558.601 65.4037 559.093 65.2141 559.662 65.06C560.231 64.8941 560.823 64.8111 561.439 64.8111ZM561.902 69.8956C560.716 69.943 559.893 70.1326 559.431 70.4644C558.98 70.7963 558.755 71.2644 558.755 71.8689C558.755 72.4022 558.915 72.7933 559.235 73.0422C559.567 73.2911 559.988 73.4156 560.497 73.4156C561.303 73.4156 561.973 73.1963 562.506 72.7578C563.039 72.3074 563.306 71.62 563.306 70.6956V69.8422L561.902 69.8956ZM572.383 64.7933C573.52 64.7933 574.38 65.0719 574.96 65.6289C575.541 66.1741 575.831 67.063 575.831 68.2956V74.5H574.285V68.4022C574.285 66.8733 573.574 66.1089 572.151 66.1089C571.097 66.1089 570.368 66.4052 569.965 66.9978C569.562 67.5904 569.36 68.4437 569.36 69.5578V74.5H567.796V64.9711H569.058L569.289 66.2689H569.378C569.686 65.7711 570.113 65.4037 570.658 65.1667C571.203 64.9178 571.778 64.7933 572.383 64.7933ZM582.394 64.8111C583.556 64.8111 584.415 65.0659 584.972 65.5756C585.529 66.0852 585.808 66.897 585.808 68.0111V74.5H584.67L584.368 73.1489H584.297C583.882 73.6704 583.443 74.0556 582.981 74.3044C582.531 74.5533 581.902 74.6778 581.097 74.6778C580.231 74.6778 579.514 74.4526 578.945 74.0022C578.377 73.54 578.092 72.823 578.092 71.8511C578.092 70.903 578.465 70.1741 579.212 69.6644C579.959 69.143 581.108 68.8585 582.661 68.8111L584.279 68.7578V68.1889C584.279 67.3948 584.107 66.8437 583.763 66.5356C583.419 66.2274 582.934 66.0733 582.305 66.0733C581.808 66.0733 581.334 66.1504 580.883 66.3044C580.433 66.4467 580.012 66.6126 579.621 66.8022L579.141 65.6289C579.556 65.4037 580.048 65.2141 580.617 65.06C581.185 64.8941 581.778 64.8111 582.394 64.8111ZM582.857 69.8956C581.671 69.943 580.848 70.1326 580.385 70.4644C579.935 70.7963 579.71 71.2644 579.71 71.8689C579.71 72.4022 579.87 72.7933 580.19 73.0422C580.522 73.2911 580.942 73.4156 581.452 73.4156C582.258 73.4156 582.928 73.1963 583.461 72.7578C583.994 72.3074 584.261 71.62 584.261 70.6956V69.8422L582.857 69.8956ZM592.128 74.6778C590.943 74.6778 589.995 74.2689 589.284 73.4511C588.573 72.6215 588.217 71.3889 588.217 69.7533C588.217 68.1178 588.573 66.8852 589.284 66.0556C590.007 65.2141 590.961 64.7933 592.146 64.7933C592.881 64.7933 593.48 64.9296 593.942 65.2022C594.416 65.4748 594.801 65.8067 595.097 66.1978H595.204C595.192 66.0437 595.168 65.8185 595.133 65.5222C595.109 65.2141 595.097 64.9711 595.097 64.7933V60.9889H596.662V74.5H595.4L595.168 73.22H595.097C594.813 73.623 594.434 73.9667 593.96 74.2511C593.486 74.5356 592.875 74.6778 592.128 74.6778ZM592.377 73.38C593.385 73.38 594.09 73.1074 594.493 72.5622C594.908 72.0052 595.115 71.1696 595.115 70.0556V69.7711C595.115 68.5859 594.92 67.6793 594.528 67.0511C594.137 66.4111 593.414 66.0911 592.36 66.0911C591.518 66.0911 590.884 66.4289 590.457 67.1044C590.043 67.7681 589.835 68.663 589.835 69.7889C589.835 70.9267 590.043 71.8096 590.457 72.4378C590.884 73.0659 591.524 73.38 592.377 73.38ZM603.297 64.8111C604.459 64.8111 605.318 65.0659 605.875 65.5756C606.432 66.0852 606.71 66.897 606.71 68.0111V74.5H605.573L605.27 73.1489H605.199C604.785 73.6704 604.346 74.0556 603.884 74.3044C603.433 74.5533 602.805 74.6778 601.999 74.6778C601.134 74.6778 600.417 74.4526 599.848 74.0022C599.279 73.54 598.995 72.823 598.995 71.8511C598.995 70.903 599.368 70.1741 600.115 69.6644C600.862 69.143 602.011 68.8585 603.564 68.8111L605.182 68.7578V68.1889C605.182 67.3948 605.01 66.8437 604.666 66.5356C604.322 66.2274 603.836 66.0733 603.208 66.0733C602.71 66.0733 602.236 66.1504 601.786 66.3044C601.336 66.4467 600.915 66.6126 600.524 66.8022L600.044 65.6289C600.459 65.4037 600.95 65.2141 601.519 65.06C602.088 64.8941 602.681 64.8111 603.297 64.8111ZM603.759 69.8956C602.574 69.943 601.75 70.1326 601.288 70.4644C600.838 70.7963 600.613 71.2644 600.613 71.8689C600.613 72.4022 600.773 72.7933 601.093 73.0422C601.425 73.2911 601.845 73.4156 602.355 73.4156C603.161 73.4156 603.83 73.1963 604.364 72.7578C604.897 72.3074 605.164 71.62 605.164 70.6956V69.8422L603.759 69.8956ZM609.422 73.54C609.422 73.1015 609.529 72.7933 609.742 72.6156C609.956 72.4378 610.211 72.3489 610.507 72.3489C610.815 72.3489 611.076 72.4378 611.289 72.6156C611.514 72.7933 611.627 73.1015 611.627 73.54C611.627 73.9667 611.514 74.2748 611.289 74.4644C611.076 74.6541 610.815 74.7489 610.507 74.7489C610.211 74.7489 609.956 74.6541 609.742 74.4644C609.529 74.2748 609.422 73.9667 609.422 73.54ZM618.233 74.6778C617.391 74.6778 616.639 74.5059 615.975 74.1622C615.323 73.8185 614.807 73.2852 614.428 72.5622C614.061 71.8393 613.877 70.9148 613.877 69.7889C613.877 68.6156 614.073 67.6615 614.464 66.9267C614.855 66.1919 615.382 65.6526 616.046 65.3089C616.722 64.9652 617.486 64.7933 618.339 64.7933C618.825 64.7933 619.293 64.8467 619.744 64.9533C620.194 65.0481 620.562 65.1667 620.846 65.3089L620.366 66.6067C620.082 66.5 619.75 66.3993 619.37 66.3044C618.991 66.2096 618.636 66.1622 618.304 66.1622C616.431 66.1622 615.495 67.3652 615.495 69.7711C615.495 70.9207 615.72 71.8037 616.17 72.42C616.633 73.0244 617.314 73.3267 618.215 73.3267C618.736 73.3267 619.193 73.2733 619.584 73.1667C619.987 73.06 620.354 72.9296 620.686 72.7756V74.1622C620.366 74.3281 620.01 74.4526 619.619 74.5356C619.24 74.6304 618.778 74.6778 618.233 74.6778ZM626.561 64.8111C627.722 64.8111 628.582 65.0659 629.139 65.5756C629.696 66.0852 629.974 66.897 629.974 68.0111V74.5H628.837L628.534 73.1489H628.463C628.048 73.6704 627.61 74.0556 627.148 74.3044C626.697 74.5533 626.069 74.6778 625.263 74.6778C624.398 74.6778 623.681 74.4526 623.112 74.0022C622.543 73.54 622.259 72.823 622.259 71.8511C622.259 70.903 622.632 70.1741 623.379 69.6644C624.125 69.143 625.275 68.8585 626.828 68.8111L628.445 68.7578V68.1889C628.445 67.3948 628.274 66.8437 627.93 66.5356C627.586 66.2274 627.1 66.0733 626.472 66.0733C625.974 66.0733 625.5 66.1504 625.05 66.3044C624.599 66.4467 624.179 66.6126 623.788 66.8022L623.308 65.6289C623.722 65.4037 624.214 65.2141 624.783 65.06C625.352 64.8941 625.945 64.8111 626.561 64.8111ZM627.023 69.8956C625.838 69.943 625.014 70.1326 624.552 70.4644C624.102 70.7963 623.877 71.2644 623.877 71.8689C623.877 72.4022 624.037 72.7933 624.357 73.0422C624.688 73.2911 625.109 73.4156 625.619 73.4156C626.425 73.4156 627.094 73.1963 627.628 72.7578C628.161 72.3074 628.428 71.62 628.428 70.6956V69.8422L627.023 69.8956Z" fill="#2B4380"/>
<circle cx="650" cy="67.5" r="3" fill="black"/>
<path d="M673.742 74.5H672.142V63.2111H668.178V61.8067H677.689V63.2111H673.742V74.5ZM681.82 64.7933C682.637 64.7933 683.337 64.9711 683.917 65.3267C684.51 65.6822 684.96 66.1859 685.268 66.8378C685.588 67.4778 685.748 68.2304 685.748 69.0956V70.0378H679.224C679.248 71.1163 679.52 71.94 680.042 72.5089C680.575 73.0659 681.316 73.3444 682.264 73.3444C682.868 73.3444 683.402 73.2911 683.864 73.1844C684.338 73.0659 684.824 72.9 685.322 72.6867V74.0556C684.836 74.2689 684.356 74.423 683.882 74.5178C683.408 74.6244 682.845 74.6778 682.193 74.6778C681.292 74.6778 680.492 74.4941 679.793 74.1267C679.106 73.7593 678.566 73.2141 678.175 72.4911C677.796 71.7563 677.606 70.8615 677.606 69.8067C677.606 68.7637 677.778 67.8689 678.122 67.1222C678.477 66.3756 678.969 65.8007 679.597 65.3978C680.237 64.9948 680.978 64.7933 681.82 64.7933ZM681.802 66.0733C681.055 66.0733 680.463 66.3163 680.024 66.8022C679.597 67.2763 679.343 67.94 679.26 68.7933H684.113C684.101 67.9874 683.911 67.3356 683.544 66.8378C683.177 66.3281 682.596 66.0733 681.802 66.0733ZM692.619 64.7933C692.797 64.7933 692.986 64.8052 693.188 64.8289C693.401 64.8407 693.585 64.8644 693.739 64.9L693.543 66.34C693.389 66.3044 693.217 66.2748 693.028 66.2511C692.85 66.2274 692.678 66.2156 692.512 66.2156C692.026 66.2156 691.57 66.3519 691.143 66.6244C690.717 66.8852 690.373 67.2585 690.112 67.7444C689.863 68.2185 689.739 68.7756 689.739 69.4156V74.5H688.174V64.9711H689.454L689.632 66.7133H689.703C690.011 66.1919 690.408 65.7415 690.894 65.3622C691.38 64.983 691.955 64.7933 692.619 64.7933ZM705.971 64.7933C707.05 64.7933 707.856 65.0719 708.389 65.6289C708.923 66.1741 709.189 67.063 709.189 68.2956V74.5H707.643V68.3667C707.643 66.8615 706.997 66.1089 705.705 66.1089C704.78 66.1089 704.117 66.3756 703.714 66.9089C703.323 67.4422 703.127 68.2185 703.127 69.2378V74.5H701.58V68.3667C701.58 66.8615 700.928 66.1089 699.625 66.1089C698.665 66.1089 698.001 66.4052 697.634 66.9978C697.266 67.5904 697.083 68.4437 697.083 69.5578V74.5H695.518V64.9711H696.78L697.011 66.2689H697.1C697.397 65.7711 697.794 65.4037 698.291 65.1667C698.801 64.9178 699.34 64.7933 699.909 64.7933C701.403 64.7933 702.374 65.3267 702.825 66.3933H702.914C703.234 65.8481 703.666 65.4452 704.211 65.1844C704.768 64.9237 705.355 64.7933 705.971 64.7933ZM718.337 71.8689C718.337 72.7933 717.993 73.4926 717.306 73.9667C716.619 74.4407 715.694 74.6778 714.533 74.6778C713.869 74.6778 713.294 74.6244 712.808 74.5178C712.334 74.4111 711.913 74.263 711.546 74.0733V72.6511C711.925 72.8407 712.382 73.0185 712.915 73.1844C713.46 73.3385 714.011 73.4156 714.568 73.4156C715.362 73.4156 715.937 73.2911 716.293 73.0422C716.648 72.7815 716.826 72.4378 716.826 72.0111C716.826 71.7741 716.761 71.5607 716.63 71.3711C716.5 71.1815 716.263 70.9919 715.919 70.8022C715.587 70.6126 715.107 70.3993 714.479 70.1622C713.863 69.9252 713.336 69.6881 712.897 69.4511C712.459 69.2141 712.121 68.9296 711.884 68.5978C711.647 68.2659 711.528 67.8393 711.528 67.3178C711.528 66.5119 711.854 65.8896 712.506 65.4511C713.17 65.0126 714.035 64.7933 715.102 64.7933C715.682 64.7933 716.222 64.8526 716.719 64.9711C717.229 65.0778 717.703 65.2319 718.142 65.4333L717.608 66.6778C717.205 66.5119 716.784 66.3696 716.346 66.2511C715.907 66.1326 715.457 66.0733 714.995 66.0733C714.355 66.0733 713.863 66.18 713.519 66.3933C713.187 66.5948 713.022 66.8733 713.022 67.2289C713.022 67.4896 713.099 67.7148 713.253 67.9044C713.407 68.0822 713.662 68.26 714.017 68.4378C714.384 68.6037 714.87 68.8052 715.475 69.0422C716.079 69.2674 716.595 69.4985 717.022 69.7356C717.448 69.9726 717.774 70.263 717.999 70.6067C718.224 70.9385 718.337 71.3593 718.337 71.8689ZM728.867 64.8111C730.028 64.8111 730.887 65.0659 731.444 65.5756C732.001 66.0852 732.28 66.897 732.28 68.0111V74.5H731.142L730.84 73.1489H730.769C730.354 73.6704 729.915 74.0556 729.453 74.3044C729.003 74.5533 728.375 74.6778 727.569 74.6778C726.704 74.6778 725.987 74.4526 725.418 74.0022C724.849 73.54 724.564 72.823 724.564 71.8511C724.564 70.903 724.938 70.1741 725.684 69.6644C726.431 69.143 727.581 68.8585 729.133 68.8111L730.751 68.7578V68.1889C730.751 67.3948 730.579 66.8437 730.235 66.5356C729.892 66.2274 729.406 66.0733 728.778 66.0733C728.28 66.0733 727.806 66.1504 727.355 66.3044C726.905 66.4467 726.484 66.6126 726.093 66.8022L725.613 65.6289C726.028 65.4037 726.52 65.2141 727.089 65.06C727.658 64.8941 728.25 64.8111 728.867 64.8111ZM729.329 69.8956C728.144 69.943 727.32 70.1326 726.858 70.4644C726.407 70.7963 726.182 71.2644 726.182 71.8689C726.182 72.4022 726.342 72.7933 726.662 73.0422C726.994 73.2911 727.415 73.4156 727.924 73.4156C728.73 73.4156 729.4 73.1963 729.933 72.7578C730.467 72.3074 730.733 71.62 730.733 70.6956V69.8422L729.329 69.8956ZM739.81 64.7933C740.947 64.7933 741.807 65.0719 742.387 65.6289C742.968 66.1741 743.258 67.063 743.258 68.2956V74.5H741.712V68.4022C741.712 66.8733 741.001 66.1089 739.578 66.1089C738.524 66.1089 737.795 66.4052 737.392 66.9978C736.989 67.5904 736.787 68.4437 736.787 69.5578V74.5H735.223V64.9711H736.485L736.716 66.2689H736.805C737.113 65.7711 737.54 65.4037 738.085 65.1667C738.63 64.9178 739.205 64.7933 739.81 64.7933ZM749.59 74.6778C748.405 74.6778 747.457 74.2689 746.746 73.4511C746.035 72.6215 745.679 71.3889 745.679 69.7533C745.679 68.1178 746.035 66.8852 746.746 66.0556C747.469 65.2141 748.423 64.7933 749.608 64.7933C750.343 64.7933 750.941 64.9296 751.404 65.2022C751.878 65.4748 752.263 65.8067 752.559 66.1978H752.666C752.654 66.0437 752.63 65.8185 752.595 65.5222C752.571 65.2141 752.559 64.9711 752.559 64.7933V60.9889H754.124V74.5H752.861L752.63 73.22H752.559C752.275 73.623 751.895 73.9667 751.421 74.2511C750.947 74.5356 750.337 74.6778 749.59 74.6778ZM749.839 73.38C750.847 73.38 751.552 73.1074 751.955 72.5622C752.37 72.0052 752.577 71.1696 752.577 70.0556V69.7711C752.577 68.5859 752.381 67.6793 751.99 67.0511C751.599 66.4111 750.876 66.0911 749.821 66.0911C748.98 66.0911 748.346 66.4289 747.919 67.1044C747.504 67.7681 747.297 68.663 747.297 69.7889C747.297 70.9267 747.504 71.8096 747.919 72.4378C748.346 73.0659 748.986 73.38 749.839 73.38ZM765.59 74.6778C764.749 74.6778 763.996 74.5059 763.333 74.1622C762.681 73.8185 762.165 73.2852 761.786 72.5622C761.418 71.8393 761.235 70.9148 761.235 69.7889C761.235 68.6156 761.43 67.6615 761.821 66.9267C762.213 66.1919 762.74 65.6526 763.404 65.3089C764.079 64.9652 764.844 64.7933 765.697 64.7933C766.183 64.7933 766.651 64.8467 767.101 64.9533C767.552 65.0481 767.919 65.1667 768.204 65.3089L767.724 66.6067C767.439 66.5 767.107 66.3993 766.728 66.3044C766.349 66.2096 765.993 66.1622 765.661 66.1622C763.789 66.1622 762.853 67.3652 762.853 69.7711C762.853 70.9207 763.078 71.8037 763.528 72.42C763.99 73.0244 764.672 73.3267 765.573 73.3267C766.094 73.3267 766.55 73.2733 766.941 73.1667C767.344 73.06 767.712 72.9296 768.044 72.7756V74.1622C767.724 74.3281 767.368 74.4526 766.977 74.5356C766.598 74.6304 766.135 74.6778 765.59 74.6778ZM778.594 69.7178C778.594 71.2941 778.191 72.5148 777.385 73.38C776.591 74.2452 775.513 74.6778 774.15 74.6778C773.308 74.6778 772.556 74.4881 771.892 74.1089C771.24 73.7178 770.725 73.1548 770.345 72.42C769.966 71.6733 769.776 70.7726 769.776 69.7178C769.776 68.1415 770.173 66.9267 770.968 66.0733C771.762 65.22 772.84 64.7933 774.203 64.7933C775.068 64.7933 775.827 64.9889 776.479 65.38C777.142 65.7593 777.658 66.3163 778.025 67.0511C778.405 67.7741 778.594 68.663 778.594 69.7178ZM771.394 69.7178C771.394 70.8437 771.613 71.7385 772.052 72.4022C772.502 73.0541 773.213 73.38 774.185 73.38C775.145 73.38 775.85 73.0541 776.301 72.4022C776.751 71.7385 776.976 70.8437 776.976 69.7178C776.976 68.5919 776.751 67.7089 776.301 67.0689C775.85 66.4289 775.139 66.1089 774.168 66.1089C773.196 66.1089 772.49 66.4289 772.052 67.0689C771.613 67.7089 771.394 68.5919 771.394 69.7178ZM785.66 64.7933C786.798 64.7933 787.657 65.0719 788.238 65.6289C788.819 66.1741 789.109 67.063 789.109 68.2956V74.5H787.563V68.4022C787.563 66.8733 786.851 66.1089 785.429 66.1089C784.374 66.1089 783.645 66.4052 783.243 66.9978C782.84 67.5904 782.638 68.4437 782.638 69.5578V74.5H781.074V64.9711H782.336L782.567 66.2689H782.656C782.964 65.7711 783.391 65.4037 783.936 65.1667C784.481 64.9178 785.056 64.7933 785.66 64.7933ZM795.441 74.6778C794.256 74.6778 793.308 74.2689 792.597 73.4511C791.885 72.6215 791.53 71.3889 791.53 69.7533C791.53 68.1178 791.885 66.8852 792.597 66.0556C793.319 65.2141 794.274 64.7933 795.459 64.7933C796.194 64.7933 796.792 64.9296 797.254 65.2022C797.728 65.4748 798.114 65.8067 798.41 66.1978H798.517C798.505 66.0437 798.481 65.8185 798.445 65.5222C798.422 65.2141 798.41 64.9711 798.41 64.7933V60.9889H799.974V74.5H798.712L798.481 73.22H798.41C798.125 73.623 797.746 73.9667 797.272 74.2511C796.798 74.5356 796.188 74.6778 795.441 74.6778ZM795.69 73.38C796.697 73.38 797.402 73.1074 797.805 72.5622C798.22 72.0052 798.428 71.1696 798.428 70.0556V69.7711C798.428 68.5859 798.232 67.6793 797.841 67.0511C797.45 66.4111 796.727 66.0911 795.672 66.0911C794.831 66.0911 794.197 66.4289 793.77 67.1044C793.355 67.7681 793.148 68.663 793.148 69.7889C793.148 70.9267 793.355 71.8096 793.77 72.4378C794.197 73.0659 794.837 73.38 795.69 73.38ZM803.801 61.3978C804.038 61.3978 804.245 61.4807 804.423 61.6467C804.613 61.8007 804.707 62.0496 804.707 62.3933C804.707 62.7252 804.613 62.9741 804.423 63.14C804.245 63.3059 804.038 63.3889 803.801 63.3889C803.54 63.3889 803.321 63.3059 803.143 63.14C802.965 62.9741 802.876 62.7252 802.876 62.3933C802.876 62.0496 802.965 61.8007 803.143 61.6467C803.321 61.4807 803.54 61.3978 803.801 61.3978ZM804.565 64.9711V74.5H803.001V64.9711H804.565ZM810.766 73.3978C811.003 73.3978 811.246 73.38 811.495 73.3444C811.744 73.297 811.946 73.2496 812.1 73.2022V74.3933C811.934 74.4763 811.697 74.5415 811.388 74.5889C811.08 74.6481 810.784 74.6778 810.5 74.6778C810.002 74.6778 809.54 74.5948 809.113 74.4289C808.698 74.2511 808.36 73.9489 808.1 73.5222C807.839 73.0956 807.708 72.497 807.708 71.7267V66.18H806.357V65.4333L807.726 64.8111L808.348 62.7844H809.273V64.9711H812.028V66.18H809.273V71.6911C809.273 72.2719 809.409 72.7044 809.682 72.9889C809.966 73.2615 810.328 73.3978 810.766 73.3978ZM814.808 61.3978C815.045 61.3978 815.252 61.4807 815.43 61.6467C815.619 61.8007 815.714 62.0496 815.714 62.3933C815.714 62.7252 815.619 62.9741 815.43 63.14C815.252 63.3059 815.045 63.3889 814.808 63.3889C814.547 63.3889 814.328 63.3059 814.15 63.14C813.972 62.9741 813.883 62.7252 813.883 62.3933C813.883 62.0496 813.972 61.8007 814.15 61.6467C814.328 61.4807 814.547 61.3978 814.808 61.3978ZM815.572 64.9711V74.5H814.008V64.9711H815.572ZM826.875 69.7178C826.875 71.2941 826.472 72.5148 825.667 73.38C824.872 74.2452 823.794 74.6778 822.431 74.6778C821.589 74.6778 820.837 74.4881 820.173 74.1089C819.521 73.7178 819.006 73.1548 818.627 72.42C818.247 71.6733 818.058 70.7726 818.058 69.7178C818.058 68.1415 818.455 66.9267 819.249 66.0733C820.043 65.22 821.121 64.7933 822.484 64.7933C823.349 64.7933 824.108 64.9889 824.76 65.38C825.424 65.7593 825.939 66.3163 826.307 67.0511C826.686 67.7741 826.875 68.663 826.875 69.7178ZM819.675 69.7178C819.675 70.8437 819.895 71.7385 820.333 72.4022C820.784 73.0541 821.495 73.38 822.467 73.38C823.427 73.38 824.132 73.0541 824.582 72.4022C825.032 71.7385 825.258 70.8437 825.258 69.7178C825.258 68.5919 825.032 67.7089 824.582 67.0689C824.132 66.4289 823.421 66.1089 822.449 66.1089C821.477 66.1089 820.772 66.4289 820.333 67.0689C819.895 67.7089 819.675 68.5919 819.675 69.7178ZM833.942 64.7933C835.079 64.7933 835.939 65.0719 836.519 65.6289C837.1 66.1741 837.39 67.063 837.39 68.2956V74.5H835.844V68.4022C835.844 66.8733 835.133 66.1089 833.71 66.1089C832.656 66.1089 831.927 66.4052 831.524 66.9978C831.121 67.5904 830.919 68.4437 830.919 69.5578V74.5H829.355V64.9711H830.617L830.848 66.2689H830.937C831.245 65.7711 831.672 65.4037 832.217 65.1667C832.762 64.9178 833.337 64.7933 833.942 64.7933ZM846.549 71.8689C846.549 72.7933 846.205 73.4926 845.518 73.9667C844.83 74.4407 843.906 74.6778 842.744 74.6778C842.081 74.6778 841.506 74.6244 841.02 74.5178C840.546 74.4111 840.125 74.263 839.758 74.0733V72.6511C840.137 72.8407 840.593 73.0185 841.127 73.1844C841.672 73.3385 842.223 73.4156 842.78 73.4156C843.574 73.4156 844.149 73.2911 844.504 73.0422C844.86 72.7815 845.038 72.4378 845.038 72.0111C845.038 71.7741 844.973 71.5607 844.842 71.3711C844.712 71.1815 844.475 70.9919 844.131 70.8022C843.799 70.6126 843.319 70.3993 842.691 70.1622C842.075 69.9252 841.547 69.6881 841.109 69.4511C840.67 69.2141 840.333 68.9296 840.096 68.5978C839.859 68.2659 839.74 67.8393 839.74 67.3178C839.74 66.5119 840.066 65.8896 840.718 65.4511C841.381 65.0126 842.247 64.7933 843.313 64.7933C843.894 64.7933 844.433 64.8526 844.931 64.9711C845.441 65.0778 845.915 65.2319 846.353 65.4333L845.82 66.6778C845.417 66.5119 844.996 66.3696 844.558 66.2511C844.119 66.1326 843.669 66.0733 843.207 66.0733C842.567 66.0733 842.075 66.18 841.731 66.3933C841.399 66.5948 841.233 66.8733 841.233 67.2289C841.233 67.4896 841.31 67.7148 841.464 67.9044C841.619 68.0822 841.873 68.26 842.229 68.4378C842.596 68.6037 843.082 68.8052 843.687 69.0422C844.291 69.2674 844.807 69.4985 845.233 69.7356C845.66 69.9726 845.986 70.263 846.211 70.6067C846.436 70.9385 846.549 71.3593 846.549 71.8689Z" fill="#2B4380"/>
<circle cx="866" cy="67.5" r="3" fill="black"/>
<path d="M889.084 61.8067C890.744 61.8067 891.953 62.1326 892.711 62.7844C893.47 63.4363 893.849 64.3548 893.849 65.54C893.849 66.2393 893.689 66.897 893.369 67.5133C893.061 68.1178 892.533 68.6096 891.787 68.9889C891.052 69.3681 890.05 69.5578 888.782 69.5578H887.324V74.5H885.724V61.8067H889.084ZM888.942 63.1756H887.324V68.1889H888.604C889.813 68.1889 890.714 67.9933 891.307 67.6022C891.899 67.2111 892.196 66.5474 892.196 65.6111C892.196 64.7933 891.935 64.183 891.413 63.78C890.892 63.377 890.068 63.1756 888.942 63.1756ZM900.719 64.7933C900.897 64.7933 901.087 64.8052 901.288 64.8289C901.502 64.8407 901.685 64.8644 901.839 64.9L901.644 66.34C901.49 66.3044 901.318 66.2748 901.128 66.2511C900.951 66.2274 900.779 66.2156 900.613 66.2156C900.127 66.2156 899.671 66.3519 899.244 66.6244C898.817 66.8852 898.474 67.2585 898.213 67.7444C897.964 68.2185 897.839 68.7756 897.839 69.4156V74.5H896.275V64.9711H897.555L897.733 66.7133H897.804C898.112 66.1919 898.509 65.7415 898.995 65.3622C899.481 64.983 900.056 64.7933 900.719 64.7933ZM904.419 61.3978C904.656 61.3978 904.863 61.4807 905.041 61.6467C905.231 61.8007 905.325 62.0496 905.325 62.3933C905.325 62.7252 905.231 62.9741 905.041 63.14C904.863 63.3059 904.656 63.3889 904.419 63.3889C904.158 63.3889 903.939 63.3059 903.761 63.14C903.583 62.9741 903.494 62.7252 903.494 62.3933C903.494 62.0496 903.583 61.8007 903.761 61.6467C903.939 61.4807 904.158 61.3978 904.419 61.3978ZM905.183 64.9711V74.5H903.619V64.9711H905.183ZM910.3 74.5L906.691 64.9711H908.362L910.389 70.5889C910.484 70.8496 910.584 71.14 910.691 71.46C910.798 71.78 910.892 72.0881 910.975 72.3844C911.058 72.6689 911.118 72.9119 911.153 73.1133H911.224C911.272 72.9119 911.337 72.663 911.42 72.3667C911.515 72.0704 911.615 71.7622 911.722 71.4422C911.841 71.1222 911.941 70.8378 912.024 70.5889L914.051 64.9711H915.722L912.095 74.5H910.3ZM920.839 64.8111C922 64.8111 922.859 65.0659 923.417 65.5756C923.974 66.0852 924.252 66.897 924.252 68.0111V74.5H923.114L922.812 73.1489H922.741C922.326 73.6704 921.888 74.0556 921.425 74.3044C920.975 74.5533 920.347 74.6778 919.541 74.6778C918.676 74.6778 917.959 74.4526 917.39 74.0022C916.821 73.54 916.537 72.823 916.537 71.8511C916.537 70.903 916.91 70.1741 917.657 69.6644C918.403 69.143 919.553 68.8585 921.105 68.8111L922.723 68.7578V68.1889C922.723 67.3948 922.551 66.8437 922.208 66.5356C921.864 66.2274 921.378 66.0733 920.75 66.0733C920.252 66.0733 919.778 66.1504 919.328 66.3044C918.877 66.4467 918.457 66.6126 918.065 66.8022L917.585 65.6289C918 65.4037 918.492 65.2141 919.061 65.06C919.63 64.8941 920.222 64.8111 920.839 64.8111ZM921.301 69.8956C920.116 69.943 919.292 70.1326 918.83 70.4644C918.379 70.7963 918.154 71.2644 918.154 71.8689C918.154 72.4022 918.314 72.7933 918.634 73.0422C918.966 73.2911 919.387 73.4156 919.897 73.4156C920.702 73.4156 921.372 73.1963 921.905 72.7578C922.439 72.3074 922.705 71.62 922.705 70.6956V69.8422L921.301 69.8956ZM931.017 74.6778C930.176 74.6778 929.423 74.5059 928.76 74.1622C928.108 73.8185 927.592 73.2852 927.213 72.5622C926.846 71.8393 926.662 70.9148 926.662 69.7889C926.662 68.6156 926.857 67.6615 927.248 66.9267C927.64 66.1919 928.167 65.6526 928.831 65.3089C929.506 64.9652 930.271 64.7933 931.124 64.7933C931.61 64.7933 932.078 64.8467 932.528 64.9533C932.979 65.0481 933.346 65.1667 933.631 65.3089L933.151 66.6067C932.866 66.5 932.534 66.3993 932.155 66.3044C931.776 66.2096 931.42 66.1622 931.088 66.1622C929.216 66.1622 928.28 67.3652 928.28 69.7711C928.28 70.9207 928.505 71.8037 928.955 72.42C929.417 73.0244 930.099 73.3267 931 73.3267C931.521 73.3267 931.977 73.2733 932.368 73.1667C932.771 73.06 933.139 72.9296 933.471 72.7756V74.1622C933.151 74.3281 932.795 74.4526 932.404 74.5356C932.025 74.6304 931.563 74.6778 931.017 74.6778ZM934.243 64.9711H935.915L937.977 70.3933C938.155 70.8674 938.315 71.3237 938.457 71.7622C938.599 72.1889 938.706 72.5978 938.777 72.9889H938.848C938.919 72.6926 939.032 72.3074 939.186 71.8333C939.34 71.3474 939.5 70.8615 939.666 70.3756L941.603 64.9711H943.292L939.186 75.8156C938.854 76.7163 938.421 77.4333 937.888 77.9667C937.366 78.5 936.643 78.7667 935.719 78.7667C935.435 78.7667 935.186 78.7489 934.972 78.7133C934.759 78.6896 934.575 78.66 934.421 78.6244V77.38C934.552 77.4037 934.706 77.4274 934.883 77.4511C935.073 77.4748 935.269 77.4867 935.47 77.4867C936.015 77.4867 936.454 77.3326 936.786 77.0244C937.129 76.7163 937.396 76.3074 937.586 75.7978L938.083 74.5356L934.243 64.9711Z" fill="#2B4380"/>
<path d="M1281.78 48.2393H1287.74V60.1313H1281.78V48.2393ZM1271.46 54.1853L1271.12 54.2996C1271.12 54.2996 1273.18 56.0148 1273.18 56.1292C1273.3 56.2435 1273.41 56.2435 1273.3 56.5866C1273.18 56.9296 1273.07 57.2726 1273.07 57.2726C1273.07 57.2726 1274.9 56.9296 1275.13 56.8153C1275.36 56.8153 1275.47 56.8152 1275.47 57.0439C1275.47 57.2726 1275.36 59.2165 1275.36 59.2165H1275.93C1275.93 59.2165 1275.82 57.1583 1275.82 57.0439C1275.82 56.8152 1275.93 56.8153 1276.16 56.8153C1276.39 56.8153 1278.22 57.2726 1278.22 57.2726C1278.22 57.2726 1278.11 56.8153 1278 56.5866C1277.88 56.2435 1278 56.2435 1278.11 56.1292C1278.22 56.0148 1280.17 54.2996 1280.17 54.2996L1279.83 54.1853C1279.6 54.0709 1279.71 53.9566 1279.71 53.8422C1279.71 53.7279 1280.06 52.5844 1280.06 52.5844C1280.06 52.5844 1279.14 52.8131 1279.03 52.8131C1278.91 52.8131 1278.8 52.8131 1278.8 52.6988C1278.8 52.5844 1278.57 52.127 1278.57 52.127C1278.57 52.127 1277.54 53.2705 1277.42 53.3849C1277.19 53.6135 1276.96 53.3849 1277.08 53.1562C1277.08 52.9275 1277.65 50.5262 1277.65 50.5262C1277.65 50.5262 1277.08 50.8692 1276.85 50.9836C1276.62 51.0979 1276.51 51.0979 1276.51 50.8692C1276.39 50.6405 1275.7 49.3827 1275.7 49.2684C1275.7 49.2684 1275.02 50.6405 1274.9 50.8692C1274.79 51.0979 1274.67 51.0979 1274.56 50.9836C1274.33 50.8692 1273.76 50.5262 1273.76 50.5262C1273.76 50.5262 1274.33 52.9275 1274.33 53.1562C1274.33 53.3849 1274.21 53.4992 1273.98 53.3849L1272.84 52.127C1272.84 52.127 1272.72 52.4701 1272.61 52.5844C1272.61 52.6988 1272.49 52.8131 1272.38 52.6988C1272.15 52.6988 1271.23 52.4701 1271.23 52.4701C1271.23 52.4701 1271.58 53.6135 1271.69 53.7279C1271.69 53.8422 1271.69 54.0709 1271.46 54.1853ZM1263.79 48.2393H1269.74V60.1313H1263.79V48.2393Z" fill="#FF0000"/>
<path d="M1289.07 83.9113C1288.61 84.9404 1287.7 85.2834 1287.12 85.2834C1286.44 85.2834 1284.37 85.1691 1284.37 79.7948C1284.37 79.7948 1284.37 68.932 1284.37 68.2459C1284.37 64.7012 1281.62 61.8426 1274.52 61.8426C1266.84 61.8426 1266.73 65.616 1266.73 66.5307C1266.61 67.5598 1267.18 68.7033 1269.13 68.7033C1270.85 68.7033 1271.31 66.7594 1271.54 66.0733C1271.77 65.2729 1271.88 62.986 1274.98 62.986C1277.61 62.986 1279.22 65.2729 1279.33 68.5889C1279.33 69.1607 1279.33 69.5037 1279.33 69.8467C1279.33 70.0754 1279.33 70.1898 1279.33 70.4185V70.5328C1279.1 71.6763 1278.53 72.248 1277.5 72.7054C1276.12 73.3915 1272.11 73.9632 1271.65 74.0775C1270.05 74.4206 1265.58 75.564 1265.69 80.2522C1265.81 84.826 1270.39 86.4269 1273.6 86.3125C1276.7 86.1982 1278.53 84.9404 1279.33 84.2543C1279.79 83.9113 1279.79 83.9113 1280.13 84.3686C1280.59 84.826 1282.08 86.3125 1285.63 86.3125C1289.3 86.3125 1289.76 84.5973 1289.99 84.0256C1290.1 83.6826 1289.3 83.3395 1289.07 83.9113ZM1274.75 85.1691C1271.54 85.1691 1270.74 82.5391 1270.74 81.167C1270.74 79.9092 1271.42 77.2792 1274.63 75.4497C1274.63 75.4497 1276.12 74.5349 1278.99 73.3915C1279.1 73.3915 1279.22 73.3915 1279.22 73.3915C1279.22 73.3915 1279.33 73.5058 1279.33 73.6202V73.7345V73.8488V78.6514C1279.33 82.4248 1277.5 85.1691 1274.75 85.1691ZM1264.21 85.0547C1263.75 84.9404 1260.88 85.2834 1260.88 76.5931C1260.88 67.9029 1260.88 49.2645 1260.88 49.2645C1260.88 48.9215 1260.88 48.0067 1259.85 48.0067C1258.82 48.0067 1251.94 48.3498 1251.49 48.4641C1251.03 48.4641 1250.68 49.0358 1251.49 49.0358C1252.29 49.1502 1255.95 49.3789 1255.95 55.4392C1255.95 58.4122 1255.95 61.3852 1255.95 63.5577C1255.95 63.6721 1255.95 63.7864 1255.95 63.7864C1255.95 64.0151 1255.95 64.1295 1255.84 64.2438C1255.84 64.2438 1255.84 64.2438 1255.84 64.3582C1255.73 64.4725 1255.61 64.3582 1255.27 64.1295C1254.69 63.6721 1252.06 62.0712 1248.73 62.0712C1243.35 62.0712 1236.7 65.959 1236.7 73.9632C1236.7 82.5391 1242.78 86.6556 1249.08 86.6556C1252.17 86.6556 1254.35 85.2834 1255.15 84.826C1256.07 84.2543 1255.95 84.3686 1256.07 85.1691C1256.18 85.7408 1256.07 86.8843 1257.67 86.7699C1259.39 86.5412 1263.52 86.0838 1264.32 85.9695C1265.12 85.6264 1264.89 85.1691 1264.21 85.0547ZM1250 85.3978C1244.95 85.3978 1242.32 79.4518 1242.32 73.7345C1242.32 67.4455 1245.87 63.2147 1249.65 63.4434C1254.58 63.7864 1255.84 67.6742 1255.95 74.6493C1255.95 75.1066 1255.95 75.564 1255.95 76.1358C1255.84 82.9965 1252.97 85.3978 1250 85.3978ZM1236.59 83.9113C1236.13 84.9404 1235.21 85.2834 1234.64 85.2834C1233.95 85.2834 1231.89 85.1691 1231.89 79.7948C1231.89 79.7948 1231.89 68.932 1231.89 68.2459C1231.89 64.7012 1229.14 61.8426 1222.03 61.8426C1214.36 61.8426 1214.24 65.616 1214.24 66.5307C1214.13 67.5598 1214.7 68.7033 1216.65 68.7033C1218.37 68.7033 1218.83 66.7594 1219.05 66.0733C1219.28 65.2729 1219.4 62.986 1222.49 62.986C1225.13 62.986 1226.85 65.2729 1226.85 68.7033V68.8176C1226.85 68.932 1226.85 69.0463 1226.85 69.0463V69.3894C1226.85 69.5037 1226.85 69.7324 1226.85 69.8467C1226.73 71.5619 1226.27 72.1337 1224.9 72.8197C1223.52 73.5058 1219.51 74.0775 1219.05 74.1919C1217.45 74.5349 1212.98 75.6784 1213.1 80.3665C1213.21 84.9404 1217.79 86.5412 1221 86.4269C1224.1 86.3125 1225.93 85.0547 1226.73 84.3686C1227.19 84.0256 1227.19 84.0256 1227.53 84.483C1227.99 84.9404 1229.48 86.4269 1233.04 86.4269C1236.7 86.4269 1237.16 84.7117 1237.39 84.1399C1237.62 83.6826 1236.93 83.3395 1236.59 83.9113ZM1222.38 85.1691C1219.17 85.1691 1218.37 82.5391 1218.37 81.167C1218.37 79.9092 1219.05 77.2792 1222.26 75.4497C1222.26 75.4497 1223.75 74.5349 1226.62 73.3915C1226.73 73.3915 1226.85 73.3915 1226.85 73.3915V73.5058C1226.85 73.6202 1226.85 73.7345 1226.85 73.9632V73.8488C1226.85 73.8488 1226.85 73.8488 1226.85 73.9632V78.7657C1226.85 82.4248 1225.01 85.1691 1222.38 85.1691ZM1211.38 85.0547C1210.46 84.826 1208.86 83.7969 1208.86 78.7657V69.6181C1208.86 67.4455 1209.09 61.8426 1200.49 61.8426C1196.02 61.8426 1193.5 64.1295 1193.27 64.2438C1192.93 64.5868 1192.7 64.7012 1192.58 64.1295C1192.47 63.6721 1192.24 62.986 1192.13 62.5286C1192.01 62.1856 1191.78 61.8426 1190.98 61.9569C1190.18 62.0712 1185.13 62.8717 1184.22 63.1004C1183.42 63.329 1183.65 63.6721 1184.22 63.7864C1184.79 63.9008 1187.54 64.1295 1187.54 68.8176C1187.54 73.5058 1187.54 78.6514 1187.54 78.6514C1187.54 84.3686 1186.4 84.826 1185.36 85.1691C1183.99 85.5121 1184.68 85.9695 1185.25 85.9695C1185.25 85.9695 1195.45 85.9695 1195.68 85.9695C1196.37 85.9695 1196.71 85.2834 1195.33 85.0547C1193.96 84.826 1192.7 84.0256 1192.7 79.5661C1192.7 79.1087 1192.7 74.1919 1192.7 73.2771C1192.7 70.8759 1192.13 63.5577 1198.77 63.4434C1203.47 63.329 1203.93 67.2168 1203.93 69.7324V79.4518C1203.93 83.4539 1202.78 84.7117 1201.41 84.9404C1200.15 85.1691 1200.38 85.7408 1201.06 85.7408C1201.29 85.7408 1211.72 85.7408 1211.72 85.7408C1212.29 85.9695 1212.87 85.3978 1211.38 85.0547ZM1183.53 83.9113C1183.07 84.9404 1182.16 85.2834 1181.58 85.2834C1180.89 85.2834 1178.83 85.1691 1178.83 79.7948C1178.83 79.7948 1178.83 68.932 1178.83 68.2459C1178.83 64.7012 1176.08 61.8426 1168.98 61.8426C1161.3 61.8426 1161.18 65.616 1161.18 66.5307C1161.07 67.5598 1161.64 68.7033 1163.59 68.7033C1165.31 68.7033 1165.77 66.7594 1166 66.0733C1166.23 65.2729 1166.34 62.986 1169.44 62.986C1172.07 62.986 1173.68 65.2729 1173.79 68.5889C1173.79 69.1607 1173.79 69.5037 1173.79 69.8467C1173.79 70.0754 1173.79 70.3041 1173.68 70.4185V70.5328C1173.45 71.6763 1172.87 72.248 1171.84 72.7054C1170.47 73.3915 1166.46 73.9632 1166 74.0775C1164.39 74.4206 1159.92 75.564 1160.04 80.2522C1160.15 84.826 1164.74 86.4269 1167.95 86.3125C1171.04 86.1982 1172.87 84.9404 1173.68 84.2543C1174.13 83.9113 1174.13 83.9113 1174.48 84.3686C1174.94 84.826 1176.43 86.3125 1179.98 86.3125C1183.65 86.3125 1184.1 84.5973 1184.33 84.0256C1184.56 83.6826 1183.76 83.3395 1183.53 83.9113ZM1169.21 85.1691C1166 85.1691 1165.2 82.5391 1165.2 81.167C1165.2 79.7948 1165.88 77.2792 1169.09 75.4497C1169.09 75.4497 1170.58 74.5349 1173.45 73.3915C1173.56 73.3915 1173.68 73.3915 1173.68 73.3915C1173.68 73.3915 1173.79 73.5058 1173.79 73.6202C1173.79 73.6202 1173.79 73.7345 1173.79 73.8488V73.9632V78.7657C1173.79 82.4248 1171.96 85.1691 1169.21 85.1691ZM1158.2 75.221C1157.06 78.8801 1154.88 84.826 1146.97 85.0547C1138.72 85.1691 1133.8 79.5661 1133.57 69.1607C1133.22 58.0691 1138.04 49.6076 1145.48 49.3789C1153.85 49.2645 1156.83 59.2126 1156.94 60.6991C1157.06 61.8426 1158.55 61.7282 1158.55 60.5848C1158.55 60.013 1157.86 50.1793 1157.63 49.0358C1157.4 47.8924 1156.49 48.3498 1156.26 48.8072C1156.14 49.1502 1156.37 48.4641 1155.91 49.4932C1155.45 50.5223 1154.19 49.9506 1153.74 49.8363C1152.36 49.2645 1149.72 47.8924 1145.48 48.0067C1135.74 48.2354 1125.77 55.4392 1126 68.0172C1126.23 80.2522 1136.09 87.1129 1145.26 86.9986C1153.62 86.8842 1158.32 81.6244 1159.69 75.564C1160.15 74.0775 1158.66 73.7345 1158.2 75.221Z" fill="black"/>
</svg>
