<svg xmlns="http://www.w3.org/2000/svg" width="850px" id="Layer_1" viewBox="0 0 1170.5 111.5">
  <defs>
    <clipPath id="clippath">
      <path d="M36.03 37.59h99.77v49.88H36.03z" style="fill:none"/>
    </clipPath>
    <style>
      .cls-3{fill:#fff}.cls-4{fill:#eb2d37}
    </style>
  </defs>
  <path d="M0 0h1170.5v111.5H0z"/>
  <g style="clip-path:url(#clippath)">
    <path d="M36.03 37.59h24.94v49.88H36.03zM85.95 42.27l-3.27 6.67c-.3.58-.83.5-1.32.19l-3.1-1.8 2 9.93c.33 1.27-.72 1.85-1.46.97l-4.17-4.7-1.18 2.43c-.3.64-.63.92-1.81.64l-4.22-.91 1.65 5.37c.25.81.22 1.19-.25 1.55l-1.62 1 8.76 7.22c.74.64.66 1.27.33 2.21l-.96 2.46 7.43-1.44c1.62-.34 2.31-.36 2.31.55l-.33 8.2h2.41l-.33-8.23c.03-.8.71-.8 1.7-.55l8.01 1.46-.79-2.46c-.33-1.02-.63-1.3.25-2.21l8.63-7.33-1.48-.74c-.77-.34-.44-.91-.28-1.61v-.11l1.4-5.31-4.17.88h-.02c-.71.14-1.24.23-1.6-.5l-1.07-2.46-4.04 4.35c-1.1 1.22-2.12.69-1.73-1.11l1.84-9.16-2.83 1.41c-.66.33-.99.39-1.4-.31l-3.29-6.56ZM110.85 37.59h24.94v49.88h-24.94z" class="cls-4"/>
  </g>
  <path d="M207.51 57.76h-2.45l-.58-2.57c-1.02 1.16-2.04 1.97-3.06 2.42s-2.2.67-3.52.67c-1.63 0-3.1-.3-4.41-.89-1.29-.61-2.38-1.44-3.28-2.48s-1.59-2.26-2.08-3.64c-.47-1.39-.7-2.87-.7-4.44s.23-3.02.7-4.41c.49-1.39 1.18-2.6 2.08-3.64.9-1.04 1.99-1.87 3.28-2.48 1.31-.61 2.78-.92 4.41-.92 1.18 0 2.31.16 3.37.49 1.08.31 2.04.78 2.88 1.41.84.61 1.53 1.39 2.08 2.33.55.94.9 2.02 1.04 3.25h-3.74c-.1-.71-.33-1.34-.67-1.87-.33-.55-.75-1.01-1.26-1.38s-1.08-.64-1.72-.83c-.63-.18-1.3-.28-1.99-.28-1.16 0-2.17.23-3.03.7-.84.47-1.52 1.1-2.05 1.9-.53.78-.93 1.66-1.19 2.66-.25 1-.37 2.02-.37 3.06s.12 2.06.37 3.06c.27 1 .66 1.9 1.19 2.7.53.78 1.22 1.4 2.05 1.87.86.47 1.87.7 3.03.7.98.02 1.85-.1 2.6-.37.76-.29 1.39-.68 1.9-1.19.53-.53.93-1.17 1.19-1.93.27-.76.41-1.59.43-2.51h-5.82v-2.91h9.31v11.52Zm10.93.43c-1.27 0-2.4-.2-3.4-.61-.98-.43-1.82-1.01-2.51-1.75a7.847 7.847 0 0 1-1.56-2.63c-.35-1.02-.52-2.14-.52-3.37s.17-2.32.52-3.34c.37-1.02.89-1.9 1.56-2.63.69-.74 1.53-1.31 2.51-1.72 1-.43 2.13-.64 3.4-.64s2.39.21 3.37.64c1 .41 1.84.98 2.51 1.72.69.74 1.22 1.61 1.56 2.63.37 1.02.55 2.13.55 3.34s-.18 2.35-.55 3.37c-.35 1.02-.87 1.9-1.56 2.63-.67.74-1.51 1.32-2.51 1.75-.98.41-2.1.61-3.37.61Zm0-2.76c.78 0 1.45-.16 2.02-.49.57-.33 1.04-.76 1.41-1.29s.63-1.12.8-1.78c.18-.67.28-1.36.28-2.05s-.09-1.35-.28-2.02c-.16-.67-.43-1.27-.8-1.78-.37-.53-.84-.96-1.41-1.29-.57-.33-1.25-.49-2.02-.49s-1.45.16-2.02.49c-.57.33-1.04.76-1.41 1.29-.37.51-.64 1.1-.83 1.78-.16.67-.25 1.35-.25 2.02s.08 1.38.25 2.05c.18.65.46 1.25.83 1.78s.84.96 1.41 1.29c.57.33 1.25.49 2.02.49Zm9.34-13.51h3.8l4.01 12.16h.06l3.86-12.16h3.61l-5.67 15.84h-3.92l-5.76-15.84Zm28.32 6.52a5.12 5.12 0 0 0-.37-1.59c-.18-.51-.45-.95-.8-1.32-.33-.39-.74-.69-1.23-.92-.47-.25-1-.37-1.59-.37s-1.17.11-1.68.34c-.49.2-.92.5-1.29.89-.35.37-.63.81-.86 1.32-.2.51-.32 1.06-.34 1.65h8.15Zm-8.15 2.3c0 .61.08 1.2.25 1.78.18.57.45 1.07.8 1.5s.79.78 1.32 1.04c.53.25 1.16.37 1.9.37 1.02 0 1.84-.21 2.45-.64.63-.45 1.1-1.11 1.41-1.99h3.31c-.18.86-.5 1.62-.95 2.3s-.99 1.25-1.62 1.72c-.63.45-1.35.79-2.14 1.01-.78.25-1.59.37-2.45.37-1.25 0-2.35-.2-3.31-.61a6.92 6.92 0 0 1-2.45-1.72c-.65-.74-1.15-1.61-1.5-2.63-.33-1.02-.49-2.14-.49-3.37 0-1.12.17-2.18.52-3.19.37-1.02.88-1.91 1.53-2.66.67-.78 1.48-1.39 2.42-1.84s2-.67 3.19-.67c1.25 0 2.36.27 3.34.8 1 .51 1.83 1.19 2.48 2.05.65.86 1.12 1.85 1.41 2.97.31 1.1.39 2.25.25 3.43h-11.64Zm14.29-8.82h3.28v3.06h.06c.1-.43.29-.85.58-1.26.31-.41.66-.78 1.07-1.1.43-.35.9-.62 1.41-.83.51-.2 1.03-.31 1.56-.31.41 0 .68.01.83.03l.49.06v3.37c-.25-.04-.5-.07-.77-.09-.25-.04-.49-.06-.74-.06-.59 0-1.15.12-1.68.37-.51.22-.96.57-1.35 1.04-.39.45-.69 1.01-.92 1.68-.23.67-.34 1.45-.34 2.33v7.54h-3.49V41.91Zm11.31 0h3.31v2.33l.06.06c.53-.88 1.23-1.56 2.08-2.05.86-.51 1.81-.77 2.85-.77 1.73 0 3.1.45 4.1 1.35 1 .9 1.5 2.25 1.5 4.04v10.87h-3.49V47.8c-.04-1.25-.31-2.14-.8-2.7-.49-.57-1.26-.86-2.3-.86-.59 0-1.12.11-1.59.34-.47.2-.87.5-1.19.89-.33.37-.58.81-.77 1.32-.18.51-.28 1.05-.28 1.62v9.34h-3.49V41.91Zm17.59 0h3.31v2.21h.09c.27-.39.55-.75.86-1.07s.64-.6 1.01-.83c.39-.22.83-.4 1.32-.52.49-.14 1.05-.21 1.68-.21.96 0 1.85.21 2.66.64.84.43 1.43 1.09 1.78 1.99.59-.82 1.28-1.46 2.05-1.93.78-.47 1.75-.7 2.91-.7 1.68 0 2.97.41 3.89 1.23.94.82 1.41 2.18 1.41 4.1v10.93h-3.49v-9.25c0-.63-.02-1.2-.06-1.72-.04-.53-.16-.98-.37-1.35a1.9 1.9 0 0 0-.86-.89c-.39-.2-.92-.31-1.59-.31-1.18 0-2.04.37-2.57 1.1-.53.74-.8 1.78-.8 3.12v9.28h-3.49V47.57c0-1.1-.2-1.93-.61-2.48-.39-.57-1.11-.86-2.17-.86-.45 0-.89.09-1.32.28-.41.18-.78.45-1.1.8-.31.35-.56.78-.77 1.29-.18.51-.28 1.09-.28 1.75v9.4h-3.49V41.91Zm37.53 6.52a5.12 5.12 0 0 0-.37-1.59c-.18-.51-.45-.95-.8-1.32-.33-.39-.74-.69-1.23-.92-.47-.25-1-.37-1.59-.37s-1.17.11-1.68.34c-.49.2-.92.5-1.29.89-.35.37-.63.81-.86 1.32-.2.51-.32 1.06-.34 1.65h8.15Zm-8.15 2.3c0 .61.08 1.2.25 1.78.18.57.45 1.07.8 1.5s.79.78 1.32 1.04c.53.25 1.16.37 1.9.37 1.02 0 1.84-.21 2.45-.64.63-.45 1.1-1.11 1.41-1.99h3.31c-.18.86-.5 1.62-.95 2.3s-.99 1.25-1.62 1.72c-.63.45-1.35.79-2.14 1.01-.78.25-1.59.37-2.45.37-1.25 0-2.35-.2-3.31-.61a6.92 6.92 0 0 1-2.45-1.72c-.65-.74-1.15-1.61-1.5-2.63-.33-1.02-.49-2.14-.49-3.37 0-1.12.17-2.18.52-3.19.37-1.02.88-1.91 1.53-2.66.67-.78 1.48-1.39 2.42-1.84s2-.67 3.19-.67c1.25 0 2.36.27 3.34.8 1 .51 1.83 1.19 2.48 2.05.65.86 1.12 1.85 1.41 2.97.31 1.1.39 2.25.25 3.43h-11.64Zm14.29-8.82h3.31v2.33l.06.06c.53-.88 1.23-1.56 2.08-2.05.86-.51 1.81-.77 2.85-.77 1.73 0 3.1.45 4.1 1.35 1 .9 1.5 2.25 1.5 4.04v10.87h-3.49V47.8c-.04-1.25-.31-2.14-.8-2.7-.49-.57-1.26-.86-2.3-.86-.59 0-1.12.11-1.59.34-.47.2-.87.5-1.19.89-.33.37-.58.81-.77 1.32-.18.51-.28 1.05-.28 1.62v9.34h-3.49V41.91Zm15.99 0h2.63v-4.75h3.49v4.75h3.15v2.6h-3.15v8.45c0 .37.01.68.03.95.04.27.11.49.21.67.12.18.3.33.52.43.23.08.53.12.92.12h.74c.25-.02.49-.06.74-.12v2.7c-.39.04-.77.08-1.13.12-.37.04-.74.06-1.13.06-.92 0-1.66-.08-2.24-.25-.55-.18-.99-.44-1.32-.77-.31-.35-.52-.78-.64-1.29-.1-.51-.16-1.09-.18-1.75V44.5h-2.63v-2.6ZM195.19 88.81c-1.27 0-2.4-.2-3.4-.61-.98-.43-1.82-1.01-2.51-1.75a7.847 7.847 0 0 1-1.56-2.63c-.35-1.02-.52-2.14-.52-3.37s.17-2.32.52-3.34c.37-1.02.89-1.9 1.56-2.63.69-.74 1.53-1.31 2.51-1.72 1-.43 2.13-.64 3.4-.64s2.39.21 3.37.64c1 .41 1.84.98 2.51 1.72.69.74 1.22 1.61 1.56 2.63.37 1.02.55 2.13.55 3.34s-.18 2.35-.55 3.37c-.35 1.02-.87 1.9-1.56 2.63-.67.74-1.51 1.32-2.51 1.75-.98.41-2.1.61-3.37.61Zm0-2.76c.78 0 1.45-.16 2.02-.49s1.04-.76 1.41-1.29c.37-.53.63-1.12.8-1.78.18-.67.28-1.36.28-2.05s-.09-1.35-.28-2.02c-.16-.67-.43-1.27-.8-1.78-.37-.53-.84-.96-1.41-1.29s-1.25-.49-2.02-.49-1.45.16-2.02.49-1.04.76-1.41 1.29c-.37.51-.64 1.1-.83 1.78-.16.67-.25 1.35-.25 2.02s.08 1.38.25 2.05c.18.65.46 1.25.83 1.78.37.53.84.96 1.41 1.29s1.25.49 2.02.49Zm9.34-13.51h2.6v-1.32c0-1 .12-1.81.37-2.42.25-.63.57-1.11.98-1.44.41-.35.87-.57 1.38-.67a7.45 7.45 0 0 1 1.65-.18c1.12 0 1.94.07 2.45.21v2.73c-.22-.06-.47-.1-.74-.12-.25-.04-.54-.06-.89-.06-.47 0-.88.11-1.23.34-.33.22-.49.66-.49 1.32v1.62h2.97v2.6h-2.97v13.23h-3.49V75.15h-2.6v-2.6Zm35 .92c-.16-.63-.39-1.22-.67-1.75-.29-.53-.65-.99-1.1-1.38-.45-.39-.98-.68-1.59-.89-.59-.22-1.29-.34-2.08-.34-1.16 0-2.17.23-3.03.7-.84.47-1.52 1.1-2.05 1.9-.53.78-.93 1.66-1.19 2.66-.25 1-.37 2.02-.37 3.06s.12 2.06.37 3.06c.27 1 .66 1.9 1.19 2.7.53.78 1.22 1.4 2.05 1.87.86.47 1.87.7 3.03.7.86 0 1.61-.14 2.27-.43.65-.31 1.22-.71 1.68-1.23.47-.53.84-1.14 1.1-1.84.27-.69.44-1.44.52-2.24h3.74c-.08 1.31-.37 2.5-.86 3.58a8.792 8.792 0 0 1-1.93 2.82c-.82.78-1.78 1.38-2.88 1.81-1.1.43-2.32.64-3.64.64-1.63 0-3.1-.3-4.41-.89a9.855 9.855 0 0 1-3.28-2.48c-.9-1.04-1.59-2.26-2.08-3.64-.47-1.39-.7-2.87-.7-4.44s.23-3.02.7-4.41c.49-1.39 1.18-2.6 2.08-3.64.9-1.04 1.99-1.87 3.28-2.48 1.31-.61 2.78-.92 4.41-.92 1.23 0 2.38.17 3.46.52 1.08.33 2.03.82 2.85 1.47.84.63 1.51 1.41 2.02 2.33.51.92.83 1.97.95 3.15h-3.83Zm20.11 11.39c0 .43.05.74.15.92.12.18.35.28.67.28h.37c.14 0 .31-.02.49-.06v2.42c-.12.04-.29.08-.49.12-.18.06-.38.11-.58.15a6.409 6.409 0 0 1-1.13.12c-.71 0-1.31-.14-1.78-.43s-.78-.79-.92-1.5c-.69.67-1.55 1.16-2.57 1.47-1 .31-1.97.46-2.91.46-.71 0-1.4-.1-2.05-.31-.65-.18-1.23-.46-1.75-.83-.49-.39-.89-.87-1.19-1.44-.29-.59-.43-1.28-.43-2.05 0-.98.17-1.78.52-2.39.37-.61.84-1.09 1.41-1.44.59-.35 1.25-.59 1.96-.74.74-.16 1.47-.29 2.21-.37.63-.12 1.24-.2 1.81-.25a8.2 8.2 0 0 0 1.5-.28c.45-.12.8-.31 1.04-.55.27-.27.4-.65.4-1.16 0-.45-.11-.82-.34-1.1-.2-.29-.47-.5-.8-.64-.31-.16-.65-.27-1.04-.31-.39-.06-.75-.09-1.1-.09-.98 0-1.79.2-2.42.61-.63.41-.99 1.04-1.07 1.9h-3.49c.06-1.02.31-1.87.74-2.54.43-.67.97-1.22 1.62-1.62.67-.41 1.43-.69 2.27-.86.84-.16 1.7-.25 2.57-.25.78 0 1.54.08 2.3.25.76.16 1.43.43 2.02.8.61.37 1.1.85 1.47 1.44.37.57.55 1.28.55 2.11v8.15Zm-3.49-4.41c-.53.35-1.18.56-1.96.64-.78.06-1.55.16-2.33.31-.37.06-.72.15-1.07.28-.35.1-.65.26-.92.46-.26.18-.48.44-.64.77-.14.31-.21.68-.21 1.13 0 .39.11.71.34.98.23.27.49.48.8.64.33.14.67.25 1.04.31.39.06.74.09 1.04.09.39 0 .81-.05 1.26-.15.45-.1.87-.28 1.26-.52.41-.25.75-.55 1.01-.92.27-.39.4-.86.4-1.41v-2.6Zm7.25-7.9h3.31v2.33l.06.06c.53-.88 1.23-1.56 2.08-2.05.86-.51 1.81-.77 2.85-.77 1.74 0 3.1.45 4.1 1.35s1.5 2.25 1.5 4.04v10.87h-3.49v-9.95c-.04-1.25-.31-2.14-.8-2.7-.49-.57-1.26-.86-2.3-.86-.59 0-1.12.11-1.59.34-.47.2-.87.5-1.19.89-.33.37-.58.81-.77 1.32-.18.51-.28 1.05-.28 1.62v9.34h-3.49V72.53Zm30.85 12.31c0 .43.05.74.15.92.12.18.35.28.67.28h.37c.14 0 .31-.02.49-.06v2.42c-.12.04-.29.08-.49.12-.18.06-.38.11-.58.15a6.409 6.409 0 0 1-1.13.12c-.71 0-1.31-.14-1.78-.43s-.78-.79-.92-1.5c-.69.67-1.55 1.16-2.57 1.47-1 .31-1.97.46-2.91.46-.71 0-1.4-.1-2.05-.31-.65-.18-1.23-.46-1.75-.83-.49-.39-.89-.87-1.19-1.44-.29-.59-.43-1.28-.43-2.05 0-.98.17-1.78.52-2.39.37-.61.84-1.09 1.41-1.44.59-.35 1.25-.59 1.96-.74.74-.16 1.47-.29 2.21-.37.63-.12 1.24-.2 1.81-.25a8.2 8.2 0 0 0 1.5-.28c.45-.12.8-.31 1.04-.55.27-.27.4-.65.4-1.16 0-.45-.11-.82-.34-1.1-.2-.29-.47-.5-.8-.64-.31-.16-.65-.27-1.04-.31-.39-.06-.75-.09-1.1-.09-.98 0-1.79.2-2.42.61-.63.41-.99 1.04-1.07 1.9h-3.49c.06-1.02.31-1.87.74-2.54.43-.67.97-1.22 1.62-1.62.67-.41 1.43-.69 2.27-.86.84-.16 1.7-.25 2.57-.25.78 0 1.54.08 2.3.25.76.16 1.43.43 2.02.8.61.37 1.1.85 1.47 1.44.37.57.55 1.28.55 2.11v8.15Zm-3.49-4.41c-.53.35-1.18.56-1.96.64-.78.06-1.55.16-2.33.31-.37.06-.72.15-1.07.28-.35.1-.65.26-.92.46-.26.18-.48.44-.64.77-.14.31-.21.68-.21 1.13 0 .39.11.71.34.98.23.27.49.48.8.64.33.14.67.25 1.04.31.39.06.74.09 1.04.09.39 0 .81-.05 1.26-.15.45-.1.87-.28 1.26-.52.41-.25.75-.55 1.01-.92.27-.39.4-.86.4-1.41v-2.6Zm22.17 7.93h-3.31v-2.14h-.06c-.47.92-1.15 1.58-2.05 1.99-.9.39-1.85.58-2.85.58-1.25 0-2.34-.21-3.28-.64a6.733 6.733 0 0 1-2.3-1.81 7.822 7.822 0 0 1-1.38-2.66c-.31-1.04-.46-2.15-.46-3.34 0-1.43.19-2.66.58-3.71s.9-1.9 1.53-2.57c.65-.67 1.39-1.16 2.21-1.47.84-.33 1.68-.49 2.54-.49.49 0 .99.05 1.5.15.51.08 1 .22 1.47.43.47.2.9.47 1.29.8.41.31.74.67 1.01 1.1h.06V66.5h3.49v21.87Zm-12.19-7.75c0 .67.08 1.34.25 1.99.18.65.45 1.24.8 1.75.37.51.83.92 1.38 1.23.55.31 1.2.46 1.96.46s1.44-.16 1.99-.49a4.07 4.07 0 0 0 1.38-1.29c.37-.53.63-1.12.8-1.78.18-.67.28-1.36.28-2.05 0-1.76-.4-3.12-1.19-4.1-.78-.98-1.84-1.47-3.19-1.47-.82 0-1.51.17-2.08.52-.55.33-1.01.77-1.38 1.32-.35.53-.6 1.14-.77 1.84-.14.67-.21 1.37-.21 2.08ZM330 84.85c0 .43.05.74.15.92.12.18.35.28.67.28h.37c.14 0 .31-.02.49-.06v2.42c-.12.04-.29.08-.49.12-.18.06-.38.11-.58.15a6.409 6.409 0 0 1-1.13.12c-.71 0-1.31-.14-1.78-.43s-.78-.79-.92-1.5c-.69.67-1.55 1.16-2.57 1.47-1 .31-1.97.46-2.91.46-.71 0-1.4-.1-2.05-.31-.65-.18-1.23-.46-1.75-.83-.49-.39-.89-.87-1.19-1.44-.29-.59-.43-1.28-.43-2.05 0-.98.17-1.78.52-2.39.37-.61.84-1.09 1.41-1.44.59-.35 1.25-.59 1.96-.74.74-.16 1.47-.29 2.21-.37.63-.12 1.24-.2 1.81-.25a8.2 8.2 0 0 0 1.5-.28c.45-.12.8-.31 1.04-.55.27-.27.4-.65.4-1.16 0-.45-.11-.82-.34-1.1-.2-.29-.47-.5-.8-.64-.31-.16-.65-.27-1.04-.31-.39-.06-.75-.09-1.1-.09-.98 0-1.79.2-2.42.61-.63.41-.99 1.04-1.07 1.9h-3.49c.06-1.02.31-1.87.74-2.54.43-.67.97-1.22 1.62-1.62.67-.41 1.43-.69 2.27-.86.84-.16 1.7-.25 2.57-.25.78 0 1.54.08 2.3.25.76.16 1.43.43 2.02.8.61.37 1.1.85 1.47 1.44.37.57.55 1.28.55 2.11v8.15Zm-3.49-4.41c-.53.35-1.18.56-1.96.64-.78.06-1.55.16-2.33.31-.37.06-.72.15-1.07.28-.35.1-.65.26-.92.46-.26.18-.48.44-.64.77-.14.31-.21.68-.21 1.13 0 .39.11.71.34.98.23.27.49.48.8.64.33.14.67.25 1.04.31.39.06.74.09 1.04.09.39 0 .81-.05 1.26-.15.45-.1.87-.28 1.26-.52.41-.25.75-.55 1.01-.92.27-.39.4-.86.4-1.41v-2.6ZM437.31 57.74h-2.46l-.58-2.58c-1.03 1.17-2.05 1.98-3.08 2.43s-2.21.68-3.54.68c-1.64 0-3.12-.3-4.43-.89-1.29-.62-2.39-1.45-3.29-2.49-.9-1.05-1.6-2.27-2.09-3.66-.47-1.39-.71-2.88-.71-4.46s.24-3.04.71-4.43c.49-1.39 1.19-2.62 2.09-3.66.9-1.05 2-1.88 3.29-2.49 1.31-.62 2.79-.92 4.43-.92 1.19 0 2.32.16 3.38.49 1.09.31 2.05.78 2.89 1.42.84.62 1.54 1.39 2.09 2.34.55.94.9 2.03 1.05 3.26h-3.75c-.1-.72-.33-1.34-.68-1.88-.33-.55-.75-1.02-1.26-1.38-.51-.37-1.09-.65-1.72-.83a7.32 7.32 0 0 0-2-.28c-1.17 0-2.18.24-3.05.71-.84.47-1.53 1.11-2.06 1.91-.53.78-.93 1.67-1.2 2.68-.25 1.01-.37 2.03-.37 3.08s.12 2.07.37 3.08c.27 1.01.67 1.91 1.2 2.71.53.78 1.22 1.41 2.06 1.88.86.47 1.88.71 3.05.71.98.02 1.86-.1 2.62-.37.76-.29 1.39-.69 1.91-1.2.53-.53.93-1.18 1.2-1.94.27-.76.41-1.6.43-2.52h-5.85v-2.92h9.35v11.57Zm10.98.43c-1.27 0-2.41-.21-3.42-.62a7.694 7.694 0 0 1-2.52-1.75c-.68-.74-1.2-1.62-1.57-2.65-.35-1.03-.52-2.15-.52-3.38s.17-2.33.52-3.35c.37-1.03.89-1.91 1.57-2.65a7.29 7.29 0 0 1 2.52-1.72c1-.43 2.14-.65 3.42-.65s2.4.22 3.38.65c1 .41 1.85.98 2.52 1.72.7.74 1.22 1.62 1.57 2.65.37 1.03.55 2.14.55 3.35s-.18 2.36-.55 3.38c-.35 1.03-.87 1.91-1.57 2.65-.68.74-1.52 1.32-2.52 1.75-.98.41-2.11.62-3.38.62Zm0-2.77c.78 0 1.46-.16 2.03-.49.57-.33 1.05-.76 1.42-1.29s.63-1.13.8-1.78c.18-.68.28-1.36.28-2.06s-.09-1.35-.28-2.03c-.17-.68-.43-1.27-.8-1.78-.37-.53-.84-.96-1.42-1.29-.58-.33-1.25-.49-2.03-.49s-1.46.16-2.03.49c-.58.33-1.05.76-1.42 1.29-.37.51-.65 1.11-.83 1.78-.17.68-.25 1.35-.25 2.03s.08 1.38.25 2.06c.18.66.46 1.25.83 1.78s.84.96 1.42 1.29c.57.33 1.25.49 2.03.49Zm24.92 2.34h-3.45v-2.22h-.06c-.43.8-1.08 1.45-1.94 1.94-.84.47-1.7.71-2.58.71-2.09 0-3.61-.51-4.55-1.54-.92-1.05-1.38-2.62-1.38-4.71V41.83h3.51v9.75c0 1.39.27 2.38.8 2.95.53.57 1.28.86 2.25.86.74 0 1.35-.11 1.85-.34s.89-.52 1.2-.89c.31-.39.52-.85.65-1.38.14-.53.22-1.11.22-1.72v-9.23h3.51v15.91Zm2.13-15.91h3.82l4.03 12.22h.06l3.88-12.22h3.63l-5.69 15.91h-3.94l-5.78-15.91Zm28.45 6.55a5.18 5.18 0 0 0-.37-1.6c-.18-.51-.45-.95-.8-1.32-.33-.39-.74-.7-1.23-.92-.47-.25-1-.37-1.6-.37s-1.18.11-1.69.34c-.49.21-.92.5-1.29.89-.35.37-.63.81-.86 1.32-.2.51-.32 1.07-.34 1.66h8.18Zm-8.18 2.31c0 .62.08 1.21.25 1.78.18.57.45 1.08.8 1.51.35.43.79.78 1.32 1.05.53.25 1.17.37 1.91.37 1.03 0 1.85-.22 2.46-.65.64-.45 1.11-1.12 1.42-2h3.32c-.18.86-.5 1.63-.95 2.31-.45.68-.99 1.25-1.63 1.72-.63.45-1.35.79-2.15 1.02-.78.25-1.6.37-2.46.37-1.25 0-2.36-.21-3.32-.62a7.05 7.05 0 0 1-2.46-1.72c-.66-.74-1.16-1.62-1.51-2.65-.33-1.03-.49-2.15-.49-3.38 0-1.13.17-2.19.52-3.2.37-1.03.88-1.92 1.54-2.68.68-.78 1.49-1.39 2.43-1.85.94-.45 2.01-.68 3.2-.68 1.25 0 2.37.27 3.35.8 1.01.51 1.84 1.2 2.49 2.06.66.86 1.13 1.86 1.42 2.98.31 1.11.39 2.26.25 3.45h-11.69Zm14.36-8.86h3.29v3.08h.06c.1-.43.3-.85.58-1.26.31-.41.67-.78 1.08-1.11.43-.35.9-.63 1.42-.83s1.04-.31 1.57-.31c.41 0 .69.01.83.03l.49.06v3.38c-.25-.04-.5-.07-.77-.09-.25-.04-.49-.06-.74-.06-.59 0-1.16.12-1.69.37-.51.23-.96.57-1.35 1.05-.39.45-.7 1.02-.92 1.69-.23.68-.34 1.46-.34 2.34v7.57h-3.51V41.83Zm11.36 0h3.32v2.34l.06.06a5.73 5.73 0 0 1 2.09-2.06c.86-.51 1.82-.77 2.86-.77 1.74 0 3.12.45 4.12 1.35 1.01.9 1.51 2.26 1.51 4.06v10.92h-3.51v-10c-.04-1.25-.31-2.15-.8-2.71-.49-.57-1.26-.86-2.31-.86-.59 0-1.13.11-1.6.34-.47.21-.87.5-1.2.89-.33.37-.58.81-.77 1.32-.18.51-.28 1.06-.28 1.63v9.38h-3.51V41.81Zm28.59 6.55c-.04-.55-.17-1.09-.37-1.6-.18-.51-.45-.95-.8-1.32-.33-.39-.74-.7-1.23-.92-.47-.25-1.01-.37-1.6-.37s-1.18.11-1.69.34c-.49.21-.92.5-1.29.89-.35.37-.64.81-.86 1.32a4.77 4.77 0 0 0-.34 1.66h8.18Zm-8.18 2.31c0 .62.08 1.21.25 1.78.18.57.45 1.08.8 1.51.35.43.79.78 1.32 1.05.53.25 1.17.37 1.91.37 1.03 0 1.85-.22 2.46-.65.63-.45 1.11-1.12 1.42-2h3.32c-.18.86-.5 1.63-.95 2.31-.45.68-1 1.25-1.63 1.72-.64.45-1.35.79-2.15 1.02-.78.25-1.6.37-2.46.37-1.25 0-2.36-.21-3.32-.62a6.96 6.96 0 0 1-2.46-1.72c-.66-.74-1.16-1.62-1.51-2.65-.33-1.03-.49-2.15-.49-3.38 0-1.13.17-2.19.52-3.2.37-1.03.88-1.92 1.54-2.68.68-.78 1.49-1.39 2.43-1.85.94-.45 2.01-.68 3.2-.68 1.25 0 2.37.27 3.35.8 1 .51 1.83 1.2 2.49 2.06.66.86 1.13 1.86 1.42 2.98.31 1.11.39 2.26.25 3.45h-11.69Zm14.36-8.86h3.32v2.22h.09c.27-.39.55-.75.86-1.08s.65-.61 1.02-.83c.39-.23.83-.4 1.32-.52.49-.14 1.06-.22 1.69-.22.97 0 1.86.22 2.68.65.84.43 1.44 1.1 1.78 2 .6-.82 1.28-1.47 2.06-1.94s1.75-.71 2.92-.71c1.68 0 2.98.41 3.91 1.23.94.82 1.42 2.19 1.42 4.12v10.99h-3.51v-9.29c0-.64-.02-1.21-.06-1.72-.04-.53-.16-.98-.37-1.35-.18-.39-.47-.69-.86-.89-.39-.21-.92-.31-1.6-.31-1.19 0-2.05.37-2.58 1.11-.53.74-.8 1.78-.8 3.14v9.32h-3.51V47.53c0-1.11-.2-1.94-.62-2.49-.39-.57-1.12-.86-2.18-.86-.45 0-.89.09-1.32.28-.41.18-.78.45-1.11.8-.31.35-.56.78-.77 1.29-.18.51-.28 1.1-.28 1.75v9.45h-3.51V41.84Zm37.7 6.55a5.18 5.18 0 0 0-.37-1.6c-.18-.51-.45-.95-.8-1.32-.33-.39-.74-.7-1.23-.92-.47-.25-1-.37-1.6-.37s-1.18.11-1.69.34c-.49.21-.92.5-1.29.89-.35.37-.63.81-.86 1.32-.2.51-.32 1.07-.34 1.66h8.18Zm-8.18 2.31c0 .62.08 1.21.25 1.78.18.57.45 1.08.8 1.51.35.43.79.78 1.32 1.05.53.25 1.17.37 1.91.37 1.03 0 1.85-.22 2.46-.65.64-.45 1.11-1.12 1.42-2h3.32c-.18.86-.5 1.63-.95 2.31-.45.68-.99 1.25-1.63 1.72-.63.45-1.35.79-2.15 1.02-.78.25-1.6.37-2.46.37-1.25 0-2.36-.21-3.32-.62a7.05 7.05 0 0 1-2.46-1.72c-.66-.74-1.16-1.62-1.51-2.65-.33-1.03-.49-2.15-.49-3.38 0-1.13.18-2.19.52-3.2.37-1.03.88-1.92 1.54-2.68.68-.78 1.49-1.39 2.43-1.85.94-.45 2.01-.68 3.2-.68 1.25 0 2.37.27 3.35.8 1.01.51 1.84 1.2 2.49 2.06.66.86 1.13 1.86 1.42 2.98.31 1.11.39 2.26.25 3.45h-11.69Zm14.36-8.86h3.32v2.34l.06.06a5.73 5.73 0 0 1 2.09-2.06c.86-.51 1.82-.77 2.86-.77 1.74 0 3.12.45 4.12 1.35 1.01.9 1.51 2.26 1.51 4.06v10.92h-3.51v-10c-.04-1.25-.31-2.15-.8-2.71-.49-.57-1.26-.86-2.31-.86-.59 0-1.13.11-1.6.34-.47.21-.87.5-1.2.89-.33.37-.58.81-.77 1.32-.18.51-.28 1.06-.28 1.63v9.38h-3.51V41.81Zm16.07 0h2.65v-4.77h3.51v4.77h3.17v2.62h-3.17v8.49c0 .37.01.69.03.95.04.27.11.49.22.68.12.18.3.33.52.43.23.08.53.12.92.12h.74c.25-.02.49-.06.74-.12v2.71c-.39.04-.77.08-1.14.12-.37.04-.75.06-1.14.06-.92 0-1.67-.08-2.25-.25-.55-.18-.99-.44-1.32-.77-.31-.35-.52-.78-.65-1.29-.1-.51-.16-1.1-.18-1.75v-9.38h-2.65v-2.62ZM432.66 88.51h-3.32v-2.15h-.06c-.47.92-1.16 1.59-2.06 2-.9.39-1.86.58-2.86.58-1.25 0-2.35-.22-3.29-.65a6.797 6.797 0 0 1-2.31-1.82c-.62-.76-1.08-1.65-1.38-2.68-.31-1.05-.46-2.16-.46-3.35 0-1.44.19-2.68.58-3.72s.9-1.91 1.54-2.58c.66-.68 1.39-1.17 2.22-1.48.84-.33 1.69-.49 2.55-.49.49 0 .99.05 1.51.15.51.08 1.01.23 1.48.43.47.21.9.47 1.29.8.41.31.75.68 1.02 1.11h.06v-8.12h3.51v21.97Zm-12.25-7.78c0 .68.08 1.34.25 2 .18.66.45 1.24.8 1.75.37.51.83.92 1.38 1.23.55.31 1.21.46 1.97.46s1.45-.16 2-.49c.58-.33 1.04-.76 1.38-1.29.37-.53.64-1.13.8-1.78.18-.68.28-1.36.28-2.06 0-1.76-.4-3.14-1.2-4.12-.78-.98-1.85-1.48-3.2-1.48-.82 0-1.52.17-2.09.52-.55.33-1.02.77-1.38 1.32a5.6 5.6 0 0 0-.77 1.85c-.14.68-.22 1.37-.22 2.09Zm30.04 7.78H447v-2.22h-.06c-.43.8-1.08 1.45-1.94 1.94-.84.47-1.7.71-2.58.71-2.09 0-3.61-.51-4.55-1.54-.92-1.05-1.38-2.62-1.38-4.71V72.6H440v9.75c0 1.39.27 2.38.8 2.95.53.57 1.28.86 2.25.86.74 0 1.35-.11 1.85-.34.49-.23.89-.52 1.2-.89.31-.39.52-.85.65-1.38.14-.53.22-1.11.22-1.72V72.6h3.51v15.91Zm27.59-14.99c-.16-.64-.39-1.22-.68-1.75s-.66-.99-1.11-1.38-.98-.69-1.6-.89c-.59-.23-1.29-.34-2.09-.34-1.17 0-2.18.24-3.05.71-.84.47-1.53 1.11-2.06 1.91-.53.78-.93 1.67-1.2 2.68-.25 1.01-.37 2.03-.37 3.08s.12 2.07.37 3.08c.27 1.01.67 1.91 1.2 2.71.53.78 1.22 1.41 2.06 1.88.86.47 1.88.71 3.05.71.86 0 1.62-.14 2.28-.43.66-.31 1.22-.72 1.69-1.23.47-.53.84-1.15 1.11-1.85.27-.7.44-1.45.52-2.25h3.75c-.08 1.31-.37 2.51-.86 3.6a8.753 8.753 0 0 1-1.94 2.83c-.82.78-1.78 1.38-2.89 1.82-1.11.43-2.33.65-3.66.65-1.64 0-3.12-.3-4.43-.89-1.29-.62-2.39-1.45-3.29-2.49-.9-1.05-1.6-2.27-2.09-3.66-.47-1.39-.71-2.88-.71-4.46s.24-3.04.71-4.43c.49-1.39 1.19-2.62 2.09-3.66.9-1.05 2-1.88 3.29-2.49 1.31-.62 2.79-.92 4.43-.92 1.23 0 2.39.17 3.48.52 1.09.33 2.04.82 2.86 1.48.84.64 1.52 1.42 2.03 2.34.51.92.83 1.98.95 3.17h-3.85Zm20.21 11.45c0 .43.05.74.15.92.12.18.35.28.68.28h.37c.14 0 .31-.02.49-.06v2.43c-.12.04-.29.08-.49.12-.18.06-.38.11-.58.15a6.614 6.614 0 0 1-1.14.12c-.72 0-1.31-.14-1.78-.43s-.78-.79-.92-1.51c-.7.68-1.56 1.17-2.58 1.48a9.91 9.91 0 0 1-2.92.46c-.72 0-1.41-.1-2.06-.31-.66-.18-1.24-.46-1.75-.83-.49-.39-.89-.87-1.2-1.45-.29-.59-.43-1.28-.43-2.06 0-.98.17-1.78.52-2.4.37-.62.84-1.1 1.42-1.45.59-.35 1.25-.59 1.97-.74.74-.16 1.48-.29 2.22-.37.63-.12 1.24-.21 1.82-.25a8.32 8.32 0 0 0 1.51-.28c.45-.12.8-.31 1.05-.55.27-.27.4-.66.4-1.17 0-.45-.11-.82-.34-1.11-.21-.29-.47-.5-.8-.65-.31-.16-.66-.27-1.05-.31-.39-.06-.76-.09-1.11-.09-.98 0-1.8.21-2.43.62-.64.41-1 1.05-1.08 1.91h-3.51c.06-1.03.31-1.88.74-2.55.43-.68.97-1.22 1.63-1.63.68-.41 1.43-.7 2.28-.86.84-.16 1.7-.25 2.58-.25.78 0 1.55.08 2.31.25.76.16 1.43.43 2.03.8.62.37 1.11.85 1.48 1.45.37.57.55 1.28.55 2.12v8.18Zm-3.51-4.43c-.53.35-1.19.56-1.97.65-.78.06-1.56.16-2.34.31-.37.06-.73.15-1.08.28-.35.1-.66.26-.92.46-.27.18-.48.44-.65.77-.14.31-.22.69-.22 1.14 0 .39.11.72.34.98.23.27.49.48.8.65.33.14.68.25 1.05.31.39.06.74.09 1.05.09.39 0 .81-.05 1.26-.15.45-.1.87-.28 1.26-.52.41-.25.75-.55 1.02-.92.27-.39.4-.86.4-1.42v-2.62Zm7.28-7.94h3.32v2.34l.06.06a5.73 5.73 0 0 1 2.09-2.06c.86-.51 1.82-.77 2.86-.77 1.74 0 3.12.45 4.12 1.35 1.01.9 1.51 2.26 1.51 4.06V88.5h-3.51v-10c-.04-1.25-.31-2.15-.8-2.71-.49-.57-1.26-.86-2.31-.86-.59 0-1.13.11-1.6.34-.47.21-.87.5-1.2.89-.33.37-.58.81-.77 1.32-.18.51-.28 1.06-.28 1.63v9.38H502V72.58Zm30.99 12.37c0 .43.05.74.15.92.12.18.35.28.68.28h.37c.14 0 .31-.02.49-.06v2.43c-.12.04-.29.08-.49.12-.18.06-.38.11-.58.15s-.41.07-.62.09-.38.03-.52.03c-.72 0-1.31-.14-1.78-.43s-.78-.79-.92-1.51c-.7.68-1.56 1.17-2.58 1.48a9.91 9.91 0 0 1-2.92.46c-.72 0-1.41-.1-2.06-.31-.66-.18-1.24-.46-1.75-.83-.49-.39-.89-.87-1.2-1.45-.29-.59-.43-1.28-.43-2.06 0-.98.17-1.78.52-2.4.37-.62.84-1.1 1.42-1.45.59-.35 1.25-.59 1.97-.74.74-.16 1.48-.29 2.22-.37.64-.12 1.24-.21 1.82-.25.58-.06 1.08-.15 1.51-.28.45-.12.8-.31 1.05-.55.27-.27.4-.66.4-1.17 0-.45-.11-.82-.34-1.11-.21-.29-.47-.5-.8-.65-.31-.16-.66-.27-1.05-.31-.39-.06-.76-.09-1.11-.09-.98 0-1.79.21-2.43.62-.64.41-.99 1.05-1.08 1.91h-3.51c.06-1.03.31-1.88.74-2.55.43-.68.98-1.22 1.63-1.63.68-.41 1.44-.7 2.28-.86.84-.16 1.7-.25 2.58-.25.78 0 1.55.08 2.31.25s1.44.43 2.03.8c.62.37 1.11.85 1.48 1.45.37.57.55 1.28.55 2.12v8.18Zm-3.51-4.43c-.53.35-1.19.56-1.97.65-.78.06-1.56.16-2.34.31-.37.06-.73.15-1.08.28-.35.1-.66.26-.92.46-.27.18-.48.44-.65.77-.14.31-.22.69-.22 1.14 0 .39.11.72.34.98.22.27.49.48.8.65.33.14.68.25 1.05.31.39.06.74.09 1.05.09.39 0 .81-.05 1.26-.15.45-.1.87-.28 1.26-.52.41-.25.75-.55 1.02-.92.27-.39.4-.86.4-1.42v-2.62Zm22.27 7.97h-3.32v-2.15h-.06c-.47.92-1.16 1.59-2.06 2-.9.39-1.86.58-2.86.58-1.25 0-2.35-.22-3.29-.65a6.797 6.797 0 0 1-2.31-1.82c-.62-.76-1.08-1.65-1.38-2.68-.31-1.05-.46-2.16-.46-3.35 0-1.44.19-2.68.58-3.72.39-1.05.9-1.91 1.54-2.58.66-.68 1.39-1.17 2.22-1.48.84-.33 1.69-.49 2.55-.49.49 0 .99.05 1.51.15.51.08 1 .23 1.48.43.47.21.9.47 1.29.8.41.31.75.68 1.02 1.11h.06v-8.12h3.51v21.97Zm-12.25-7.78c0 .68.08 1.34.25 2 .18.66.45 1.24.8 1.75.37.51.83.92 1.38 1.23s1.21.46 1.97.46 1.45-.16 2-.49a4.07 4.07 0 0 0 1.38-1.29c.37-.53.63-1.13.8-1.78.18-.68.28-1.36.28-2.06 0-1.76-.4-3.14-1.2-4.12-.78-.98-1.85-1.48-3.2-1.48-.82 0-1.52.17-2.09.52-.55.33-1.02.77-1.38 1.32a5.6 5.6 0 0 0-.77 1.85c-.14.68-.22 1.37-.22 2.09Zm29.4 4.25c0 .43.05.74.15.92.12.18.35.28.68.28h.37c.14 0 .31-.02.49-.06v2.43c-.12.04-.29.08-.49.12-.18.06-.38.11-.58.15a6.614 6.614 0 0 1-1.14.12c-.72 0-1.31-.14-1.78-.43s-.78-.79-.92-1.51c-.7.68-1.56 1.17-2.58 1.48a9.91 9.91 0 0 1-2.92.46c-.72 0-1.41-.1-2.06-.31-.66-.18-1.24-.46-1.75-.83-.49-.39-.89-.87-1.2-1.45-.29-.59-.43-1.28-.43-2.06 0-.98.17-1.78.52-2.4.37-.62.84-1.1 1.42-1.45.59-.35 1.25-.59 1.97-.74.74-.16 1.48-.29 2.22-.37.63-.12 1.24-.21 1.82-.25a8.32 8.32 0 0 0 1.51-.28c.45-.12.8-.31 1.05-.55.27-.27.4-.66.4-1.17 0-.45-.11-.82-.34-1.11-.21-.29-.47-.5-.8-.65-.31-.16-.66-.27-1.05-.31-.39-.06-.76-.09-1.11-.09-.98 0-1.8.21-2.43.62-.64.41-1 1.05-1.08 1.91h-3.51c.06-1.03.31-1.88.74-2.55.43-.68.97-1.22 1.63-1.63.68-.41 1.43-.7 2.28-.86.84-.16 1.7-.25 2.58-.25.78 0 1.55.08 2.31.25.76.16 1.43.43 2.03.8.62.37 1.11.85 1.48 1.45.37.57.55 1.28.55 2.12v8.18Zm-3.51-4.43c-.53.35-1.19.56-1.97.65-.78.06-1.56.16-2.34.31-.37.06-.73.15-1.08.28-.35.1-.66.26-.92.46-.27.18-.48.44-.65.77-.14.31-.22.69-.22 1.14 0 .39.11.72.34.98.23.27.49.48.8.65.33.14.68.25 1.05.31.39.06.74.09 1.05.09.39 0 .81-.05 1.26-.15.45-.1.87-.28 1.26-.52.41-.25.75-.55 1.02-.92.27-.39.4-.86.4-1.42v-2.62Z" class="cls-3"/>
  <path d="M1121.08 15.17h11.2v22.35h-11.2V15.17Zm-19.38 11.17-.65.21s3.87 3.22 3.87 3.44c.22.21.43.21.22.86-.22.64-.43 1.29-.43 1.29s3.44-.64 3.88-.86c.43 0 .64 0 .64.43s-.21 4.08-.21 4.08h1.08s-.22-3.87-.22-4.08c0-.43.22-.43.65-.43s3.88.86 3.88.86-.22-.86-.43-1.29c-.21-.64 0-.64.22-.86s3.88-3.44 3.88-3.44l-.65-.21c-.43-.21-.22-.43-.22-.64s.65-2.36.65-2.36-1.72.43-1.94.43-.43 0-.43-.21-.43-1.07-.43-1.07-1.94 2.15-2.15 2.36c-.43.43-.86 0-.64-.43 0-.43 1.08-4.94 1.08-4.94s-1.08.64-1.51.86c-.43.21-.64.21-.64-.21-.22-.43-1.51-2.79-1.51-3.01 0 0-1.29 2.58-1.51 3.01-.21.43-.43.43-.64.21-.43-.21-1.51-.86-1.51-.86s1.08 4.51 1.08 4.94-.21.64-.64.43l-2.15-2.36s-.22.64-.43.86c0 .21-.21.43-.43.21-.43 0-2.15-.43-2.15-.43s.65 2.15.86 2.36c0 .21 0 .64-.43.86Zm-14.43-11.17h11.2v22.35h-11.2V15.17Z" class="cls-4"/>
  <path d="M1134.79 82.21c-.86 1.93-2.58 2.58-3.66 2.58-1.29 0-5.17-.21-5.17-10.31v-21.7c0-6.66-5.17-12.03-18.52-12.03-14.43 0-14.64 7.09-14.64 8.81-.21 1.93.86 4.08 4.52 4.08 3.23 0 4.09-3.65 4.52-4.94.43-1.5.65-5.8 6.46-5.8 4.95 0 7.97 4.3 8.18 10.53v3.65c-.43 2.15-1.51 3.22-3.45 4.08-2.58 1.29-10.12 2.36-10.98 2.58-3.02.64-11.41 2.79-11.2 11.6.21 8.59 8.83 11.6 14.86 11.39 5.81-.21 9.26-2.58 10.77-3.87q.86-.64 1.51.21c.86.86 3.66 3.65 10.33 3.65s7.75-3.22 8.18-4.3c.21-.64-1.29-1.29-1.72-.21Zm-26.92 2.36c-6.03 0-7.54-4.94-7.54-7.52 0-2.36 1.29-7.31 7.32-10.74 0 0 2.8-1.72 8.18-3.87h.43s.22.21.22.43v9.45c0 7.09-3.45 12.25-8.61 12.25Zm-19.81-.21c-.86-.21-6.24.43-6.24-15.9V17.1c0-.64 0-2.36-1.94-2.36s-14.86.64-15.72.86c-.86 0-1.51 1.07 0 1.07 1.51.21 8.4.64 8.4 12.03v15.68c0 .43 0 .64-.21.86v.21c-.22.21-.43 0-1.08-.43-1.08-.86-6.03-3.87-12.27-3.87-10.12 0-22.61 7.31-22.61 22.35 0 16.11 11.41 23.85 23.26 23.85 5.81 0 9.9-2.58 11.41-3.44 1.72-1.07 1.51-.86 1.72.64.21 1.07 0 3.22 3.01 3.01 3.23-.43 10.98-1.29 12.49-1.5 1.51-.64 1.08-1.5-.22-1.72Zm-26.7.64c-9.47 0-14.43-11.17-14.43-21.92 0-11.82 6.68-19.77 13.78-19.34 9.26.64 11.63 7.95 11.84 21.06v2.79c-.21 12.89-5.6 17.4-11.2 17.4Zm-25.19-2.79c-.86 1.93-2.58 2.58-3.66 2.58-1.29 0-5.17-.21-5.17-10.31v-21.7c0-6.66-5.17-12.03-18.52-12.03-14.43 0-14.64 7.09-14.64 8.81-.22 1.93.86 4.08 4.52 4.08 3.23 0 4.09-3.65 4.52-4.94.43-1.5.65-5.8 6.46-5.8 4.95 0 8.18 4.3 8.18 10.74v2.15c-.21 3.22-1.08 4.3-3.66 5.59s-10.12 2.36-10.98 2.58c-3.01.64-11.41 2.79-11.2 11.6.22 8.59 8.83 11.6 14.86 11.39 5.81-.21 9.26-2.58 10.77-3.87q.86-.64 1.51.21c.86.86 3.66 3.65 10.33 3.65s7.75-3.22 8.18-4.3c.43-.86-.86-1.5-1.51-.43Zm-26.7 2.36c-6.03 0-7.54-4.94-7.54-7.52 0-2.36 1.29-7.31 7.32-10.74 0 0 2.8-1.72 8.18-3.87h.43v10.1c0 6.88-3.44 12.03-8.4 12.03Zm-20.67-.21c-1.72-.43-4.74-2.36-4.74-11.82V55.35c0-4.08.43-14.61-15.72-14.61-8.4 0-13.14 4.3-13.57 4.51-.65.64-1.08.86-1.29-.21-.22-.86-.65-2.15-.86-3.01-.22-.64-.65-1.29-2.15-1.07-1.51.21-10.98 1.72-12.7 2.15-1.51.43-1.08 1.07 0 1.29 1.08.21 6.24.64 6.24 9.45v18.48c0 10.74-2.15 11.6-4.09 12.25-2.58.64-1.29 1.5-.22 1.5h19.6c1.29 0 1.94-1.29-.65-1.72-2.58-.43-4.95-1.93-4.95-10.31V62.23c0-4.51-1.08-18.26 11.41-18.48 8.83-.21 9.69 7.09 9.69 11.82v18.26c0 7.52-2.15 9.88-4.74 10.31-2.37.43-1.94 1.5-.65 1.5h20.03c1.08.43 2.15-.64-.65-1.29Zm-52.33-2.15c-.86 1.93-2.58 2.58-3.66 2.58-1.29 0-5.17-.21-5.17-10.31v-21.7c0-6.66-5.17-12.03-18.52-12.03-14.43 0-14.64 7.09-14.64 8.81-.22 1.93.86 4.08 4.52 4.08 3.23 0 4.09-3.65 4.52-4.94.43-1.5.65-5.8 6.46-5.8 4.95 0 7.97 4.3 8.18 10.53v2.36c0 .43 0 .86-.22 1.07v.21c-.43 2.15-1.51 3.22-3.45 4.08-2.58 1.29-10.12 2.36-10.98 2.58-3.01.64-11.41 2.79-11.2 11.6.22 8.59 8.83 11.6 14.86 11.39 5.81-.21 9.26-2.58 10.77-3.87q.86-.64 1.51.21c.86.86 3.66 3.65 10.34 3.65s7.75-3.22 8.18-4.3c.43-.64-1.08-1.29-1.51-.21Zm-26.92 2.36c-6.03 0-7.54-4.94-7.54-7.52s1.29-7.31 7.32-10.74c0 0 2.8-1.72 8.18-3.87h.43s.22.21.22.43v9.67c0 6.88-3.45 12.03-8.61 12.03Zm-20.67-18.69c-2.15 6.88-6.24 18.05-21.1 18.48-15.5.21-24.76-10.31-25.19-29.87-.65-20.84 8.4-36.74 22.39-37.17 15.72-.21 21.32 18.48 21.53 21.27.22 2.15 3.01 1.93 3.01-.21 0-1.07-1.29-19.55-1.72-21.7-.43-2.15-2.15-1.29-2.58-.43-.22.64.22-.64-.65 1.29-.86 1.93-3.23.86-4.09.64-2.58-1.07-7.54-3.65-15.5-3.44-18.3.43-37.04 13.97-36.61 37.6.43 22.99 18.95 35.88 36.18 35.67 15.72-.21 24.55-10.1 27.13-21.49.86-2.79-1.94-3.44-2.8-.64Z" class="cls-3"/>
</svg>
