<svg width="320" height="213" viewBox="0 0 320 213" fill="none" xmlns="http://www.w3.org/2000/svg">
<rect y="2" width="100" height="20" fill="#A8ADB4"/>
<rect y="33.5" width="175" height="17" fill="#A8ADB4"/>
<rect x="1" y="70" width="248" height="58" rx="5" fill="white"/>
<path d="M18.7 107H16.54V94.58H12.26V92.72H22.98V94.58H18.7V107ZM27.7633 96.02C29.1766 96.02 30.2899 96.46 31.1033 97.34C31.9166 98.2067 32.3233 99.3933 32.3233 100.9V102.06H25.0833C25.1099 103.167 25.3966 104.013 25.9433 104.6C26.5033 105.187 27.2833 105.48 28.2833 105.48C28.9766 105.48 29.5899 105.42 30.1233 105.3C30.6699 105.167 31.2299 104.973 31.8033 104.72V106.48C31.2566 106.733 30.7099 106.913 30.1633 107.02C29.6166 107.14 28.9633 107.2 28.2033 107.2C27.1633 107.2 26.2433 106.993 25.4433 106.58C24.6433 106.167 24.0166 105.553 23.5633 104.74C23.1233 103.927 22.9033 102.913 22.9033 101.7C22.9033 100.487 23.1033 99.46 23.5033 98.62C23.9166 97.78 24.4833 97.14 25.2033 96.7C25.9366 96.2467 26.7899 96.02 27.7633 96.02ZM27.7633 97.66C27.0033 97.66 26.3899 97.9067 25.9233 98.4C25.4699 98.8933 25.2033 99.5933 25.1233 100.5H30.2033C30.1899 99.66 29.9833 98.98 29.5833 98.46C29.1966 97.9267 28.5899 97.66 27.7633 97.66ZM30.7433 91.68V91.88C30.5433 92.12 30.2566 92.4333 29.8833 92.82C29.5233 93.1933 29.1366 93.5733 28.7233 93.96C28.3233 94.3333 27.9633 94.64 27.6433 94.88H26.2433V94.64C26.4433 94.4 26.6699 94.1067 26.9233 93.76C27.1766 93.4 27.4166 93.04 27.6433 92.68C27.8833 92.3067 28.0899 91.9733 28.2633 91.68H30.7433ZM37.0886 107H34.9686V91.8H37.0886V107ZM44.6578 96.02C46.0711 96.02 47.1845 96.46 47.9978 97.34C48.8111 98.2067 49.2178 99.3933 49.2178 100.9V102.06H41.9778C42.0045 103.167 42.2911 104.013 42.8378 104.6C43.3978 105.187 44.1778 105.48 45.1778 105.48C45.8711 105.48 46.4845 105.42 47.0178 105.3C47.5645 105.167 48.1245 104.973 48.6978 104.72V106.48C48.1511 106.733 47.6045 106.913 47.0578 107.02C46.5111 107.14 45.8578 107.2 45.0978 107.2C44.0578 107.2 43.1378 106.993 42.3378 106.58C41.5378 106.167 40.9111 105.553 40.4578 104.74C40.0178 103.927 39.7978 102.913 39.7978 101.7C39.7978 100.487 39.9978 99.46 40.3978 98.62C40.8111 97.78 41.3778 97.14 42.0978 96.7C42.8311 96.2467 43.6845 96.02 44.6578 96.02ZM44.6578 97.66C43.8978 97.66 43.2845 97.9067 42.8178 98.4C42.3645 98.8933 42.0978 99.5933 42.0178 100.5H47.0978C47.0845 99.66 46.8778 98.98 46.4778 98.46C46.0911 97.9267 45.4845 97.66 44.6578 97.66ZM47.6378 91.68V91.88C47.4378 92.12 47.1511 92.4333 46.7778 92.82C46.4178 93.1933 46.0311 93.5733 45.6178 93.96C45.2178 94.3333 44.8578 94.64 44.5378 94.88H43.1378V94.64C43.3378 94.4 43.5645 94.1067 43.8178 93.76C44.0711 93.4 44.3111 93.04 44.5378 92.68C44.7778 92.3067 44.9845 91.9733 45.1578 91.68H47.6378ZM53.8925 107L49.8125 96.22H52.0525L54.2925 102.52C54.4258 102.947 54.5658 103.413 54.7125 103.92C54.8592 104.427 54.9592 104.847 55.0125 105.18H55.0925C55.1458 104.847 55.2525 104.427 55.4125 103.92C55.5725 103.4 55.7192 102.933 55.8525 102.52L58.0925 96.22H60.3325L56.2325 107H53.8925ZM66.2398 96.02C67.6532 96.02 68.7665 96.46 69.5798 97.34C70.3932 98.2067 70.7998 99.3933 70.7998 100.9V102.06H63.5598C63.5865 103.167 63.8732 104.013 64.4198 104.6C64.9798 105.187 65.7598 105.48 66.7598 105.48C67.4532 105.48 68.0665 105.42 68.5998 105.3C69.1465 105.167 69.7065 104.973 70.2798 104.72V106.48C69.7332 106.733 69.1865 106.913 68.6398 107.02C68.0932 107.14 67.4398 107.2 66.6798 107.2C65.6398 107.2 64.7198 106.993 63.9198 106.58C63.1198 106.167 62.4932 105.553 62.0398 104.74C61.5998 103.927 61.3798 102.913 61.3798 101.7C61.3798 100.487 61.5798 99.46 61.9798 98.62C62.3932 97.78 62.9598 97.14 63.6798 96.7C64.4132 96.2467 65.2665 96.02 66.2398 96.02ZM66.2398 97.66C65.4798 97.66 64.8665 97.9067 64.3998 98.4C63.9465 98.8933 63.6798 99.5933 63.5998 100.5H68.6798C68.6665 99.66 68.4598 98.98 68.0598 98.46C67.6732 97.9267 67.0665 97.66 66.2398 97.66ZM78.7652 96.02C79.1918 96.02 79.5852 96.0533 79.9452 96.12L79.7252 98.1C79.3785 98.0067 79.0185 97.96 78.6452 97.96C78.0985 97.96 77.5918 98.0933 77.1252 98.36C76.6585 98.6267 76.2785 99.0133 75.9852 99.52C75.7052 100.013 75.5652 100.613 75.5652 101.32V107H73.4452V96.22H75.1252L75.4052 98.14H75.4852C75.8185 97.5667 76.2652 97.0733 76.8252 96.66C77.3852 96.2333 78.0318 96.02 78.7652 96.02ZM89.1013 103.96C89.1013 105.027 88.7146 105.833 87.9413 106.38C87.1813 106.927 86.1079 107.2 84.7213 107.2C83.9613 107.2 83.3079 107.147 82.7613 107.04C82.2279 106.933 81.7346 106.767 81.2813 106.54V104.68C81.7479 104.907 82.2946 105.113 82.9212 105.3C83.5613 105.473 84.1813 105.56 84.7813 105.56C85.5813 105.56 86.1546 105.433 86.5013 105.18C86.8613 104.927 87.0413 104.587 87.0413 104.16C87.0413 103.92 86.9746 103.707 86.8413 103.52C86.7079 103.32 86.4546 103.12 86.0813 102.92C85.7213 102.707 85.1879 102.467 84.4813 102.2C83.7879 101.933 83.2013 101.66 82.7213 101.38C82.2546 101.1 81.8946 100.767 81.6413 100.38C81.3879 99.9933 81.2613 99.5067 81.2613 98.92C81.2613 97.9867 81.6346 97.2733 82.3813 96.78C83.1413 96.2733 84.1413 96.02 85.3813 96.02C86.0346 96.02 86.6479 96.0867 87.2213 96.22C87.8079 96.3533 88.3746 96.54 88.9213 96.78L88.2213 98.4C87.7546 98.2 87.2746 98.0333 86.7813 97.9C86.2879 97.7533 85.7879 97.68 85.2812 97.68C83.9746 97.68 83.3213 98.06 83.3213 98.82C83.3213 99.0733 83.3946 99.2933 83.5413 99.48C83.7013 99.6667 83.9679 99.8533 84.3413 100.04C84.7279 100.227 85.2613 100.453 85.9413 100.72C86.5946 100.973 87.1546 101.24 87.6213 101.52C88.1013 101.787 88.4679 102.113 88.7213 102.5C88.9746 102.887 89.1013 103.373 89.1013 103.96ZM95.8688 96.02C97.2821 96.02 98.3954 96.46 99.2088 97.34C100.022 98.2067 100.429 99.3933 100.429 100.9V102.06H93.1888C93.2154 103.167 93.5021 104.013 94.0488 104.6C94.6088 105.187 95.3888 105.48 96.3888 105.48C97.0821 105.48 97.6954 105.42 98.2288 105.3C98.7754 105.167 99.3354 104.973 99.9088 104.72V106.48C99.3621 106.733 98.8154 106.913 98.2688 107.02C97.7221 107.14 97.0688 107.2 96.3088 107.2C95.2688 107.2 94.3488 106.993 93.5488 106.58C92.7488 106.167 92.1221 105.553 91.6688 104.74C91.2288 103.927 91.0088 102.913 91.0088 101.7C91.0088 100.487 91.2088 99.46 91.6088 98.62C92.0221 97.78 92.5888 97.14 93.3088 96.7C94.0421 96.2467 94.8954 96.02 95.8688 96.02ZM95.8688 97.66C95.1088 97.66 94.4954 97.9067 94.0288 98.4C93.5754 98.8933 93.3088 99.5933 93.2288 100.5H98.3088C98.2954 99.66 98.0888 98.98 97.6888 98.46C97.3021 97.9267 96.6954 97.66 95.8688 97.66ZM108.394 96.02C108.821 96.02 109.214 96.0533 109.574 96.12L109.354 98.1C109.007 98.0067 108.647 97.96 108.274 97.96C107.727 97.96 107.221 98.0933 106.754 98.36C106.287 98.6267 105.907 99.0133 105.614 99.52C105.334 100.013 105.194 100.613 105.194 101.32V107H103.074V96.22H104.754L105.034 98.14H105.114C105.447 97.5667 105.894 97.0733 106.454 96.66C107.014 96.2333 107.661 96.02 108.394 96.02ZM126.045 96.22V107H124.345L124.045 105.58H123.945C123.599 106.14 123.119 106.553 122.505 106.82C121.892 107.073 121.245 107.2 120.565 107.2C119.299 107.2 118.332 106.893 117.665 106.28C116.999 105.653 116.665 104.653 116.665 103.28V96.22H118.805V102.96C118.805 103.8 118.979 104.427 119.325 104.84C119.685 105.253 120.239 105.46 120.985 105.46C122.092 105.46 122.859 105.14 123.285 104.5C123.712 103.847 123.925 102.907 123.925 101.68V96.22H126.045ZM134.823 96.02C136.076 96.02 137.036 96.3333 137.703 96.96C138.37 97.5867 138.703 98.5933 138.703 99.98V107H136.603V100.28C136.603 98.6 135.863 97.76 134.383 97.76C133.29 97.76 132.53 98.0867 132.103 98.74C131.69 99.3933 131.483 100.333 131.483 101.56V107H129.363V96.22H131.043L131.343 97.66H131.463C131.81 97.1 132.283 96.6867 132.883 96.42C133.496 96.1533 134.143 96.02 134.823 96.02ZM152.416 97.84H149.756V107H147.636V97.84H145.816V96.84L147.636 96.18V95.5C147.636 94.1267 147.949 93.1533 148.576 92.58C149.216 91.9933 150.103 91.7 151.236 91.7C151.703 91.7 152.129 91.74 152.516 91.82C152.903 91.9 153.229 91.9867 153.496 92.08L152.956 93.7C152.729 93.6333 152.476 93.5733 152.196 93.52C151.916 93.4533 151.629 93.42 151.336 93.42C150.283 93.42 149.756 94.12 149.756 95.52V96.22H152.416V97.84ZM155.385 92.12C155.705 92.12 155.985 92.2133 156.225 92.4C156.465 92.5867 156.585 92.9 156.585 93.34C156.585 93.7667 156.465 94.08 156.225 94.28C155.985 94.4667 155.705 94.56 155.385 94.56C155.051 94.56 154.765 94.4667 154.525 94.28C154.285 94.08 154.165 93.7667 154.165 93.34C154.165 92.9 154.285 92.5867 154.525 92.4C154.765 92.2133 155.051 92.12 155.385 92.12ZM156.425 96.22V107H154.305V96.22H156.425ZM164.094 107.2C162.6 107.2 161.4 106.76 160.494 105.88C159.587 104.987 159.134 103.587 159.134 101.68C159.134 100.347 159.354 99.2667 159.794 98.44C160.234 97.6133 160.84 97.0067 161.614 96.62C162.387 96.22 163.267 96.02 164.254 96.02C164.854 96.02 165.414 96.08 165.934 96.2C166.467 96.32 166.907 96.4667 167.254 96.64L166.614 98.36C166.24 98.2267 165.847 98.1067 165.434 98C165.02 97.88 164.62 97.82 164.234 97.82C162.287 97.82 161.314 99.1 161.314 101.66C161.314 102.887 161.554 103.82 162.034 104.46C162.514 105.1 163.22 105.42 164.154 105.42C164.74 105.42 165.267 105.353 165.734 105.22C166.2 105.087 166.627 104.913 167.014 104.7V106.54C166.627 106.767 166.207 106.933 165.754 107.04C165.3 107.147 164.747 107.2 164.094 107.2ZM171.678 91.8V95.86C171.678 96.1933 171.665 96.5267 171.638 96.86C171.612 97.1933 171.585 97.4667 171.558 97.68H171.698C172.045 97.1333 172.505 96.7267 173.078 96.46C173.665 96.18 174.298 96.04 174.978 96.04C176.245 96.04 177.212 96.3533 177.878 96.98C178.558 97.6067 178.898 98.6067 178.898 99.98V107H176.798V100.28C176.798 98.6 176.058 97.76 174.578 97.76C173.472 97.76 172.712 98.0933 172.298 98.76C171.885 99.4267 171.678 100.367 171.678 101.58V107H169.558V91.8H171.678ZM183.236 92.12C183.556 92.12 183.836 92.2133 184.076 92.4C184.316 92.5867 184.436 92.9 184.436 93.34C184.436 93.7667 184.316 94.08 184.076 94.28C183.836 94.4667 183.556 94.56 183.236 94.56C182.903 94.56 182.616 94.4667 182.376 94.28C182.136 94.08 182.016 93.7667 182.016 93.34C182.016 92.9 182.136 92.5867 182.376 92.4C182.616 92.2133 182.903 92.12 183.236 92.12ZM184.276 96.22V107H182.156V96.22H184.276ZM191.845 96.02C193.259 96.02 194.372 96.46 195.185 97.34C195.999 98.2067 196.405 99.3933 196.405 100.9V102.06H189.165C189.192 103.167 189.479 104.013 190.025 104.6C190.585 105.187 191.365 105.48 192.365 105.48C193.059 105.48 193.672 105.42 194.205 105.3C194.752 105.167 195.312 104.973 195.885 104.72V106.48C195.339 106.733 194.792 106.913 194.245 107.02C193.699 107.14 193.045 107.2 192.285 107.2C191.245 107.2 190.325 106.993 189.525 106.58C188.725 106.167 188.099 105.553 187.645 104.74C187.205 103.927 186.985 102.913 186.985 101.7C186.985 100.487 187.185 99.46 187.585 98.62C187.999 97.78 188.565 97.14 189.285 96.7C190.019 96.2467 190.872 96.02 191.845 96.02ZM191.845 97.66C191.085 97.66 190.472 97.9067 190.005 98.4C189.552 98.8933 189.285 99.5933 189.205 100.5H194.285C194.272 99.66 194.065 98.98 193.665 98.46C193.279 97.9267 192.672 97.66 191.845 97.66ZM204.371 96.02C204.797 96.02 205.191 96.0533 205.551 96.12L205.331 98.1C204.984 98.0067 204.624 97.96 204.251 97.96C203.704 97.96 203.197 98.0933 202.731 98.36C202.264 98.6267 201.884 99.0133 201.591 99.52C201.311 100.013 201.171 100.613 201.171 101.32V107H199.051V96.22H200.731L201.011 98.14H201.091C201.424 97.5667 201.871 97.0733 202.431 96.66C202.991 96.2333 203.637 96.02 204.371 96.02Z" fill="#26374A"/>
<path d="M222.102 96.6484C222.57 97.1562 223.391 97.1562 223.859 96.6484L226.75 93.7969V103.25C226.75 103.953 227.297 104.5 228 104.5C228.664 104.5 229.25 103.953 229.25 103.25V93.7969L232.102 96.6484C232.57 97.1562 233.391 97.1562 233.859 96.6484C234.367 96.1797 234.367 95.3594 233.859 94.8906L228.859 89.8906C228.625 89.6562 228.312 89.5 228 89.5C227.648 89.5 227.336 89.6562 227.102 89.8906L222.102 94.8906C221.594 95.3594 221.594 96.1797 222.102 96.6484ZM236.75 103.25H230.5C230.5 104.656 229.367 105.75 228 105.75C226.594 105.75 225.5 104.656 225.5 103.25H219.25C218.547 103.25 218 103.836 218 104.5V108.25C218 108.953 218.547 109.5 219.25 109.5H236.75C237.414 109.5 238 108.953 238 108.25V104.5C238 103.836 237.414 103.25 236.75 103.25ZM234.875 107.312C234.328 107.312 233.938 106.922 233.938 106.375C233.938 105.867 234.328 105.438 234.875 105.438C235.383 105.438 235.812 105.867 235.812 106.375C235.812 106.922 235.383 107.312 234.875 107.312Z" fill="#26374A"/>
<rect x="1" y="70" width="248" height="58" rx="5" stroke="#26374A" stroke-width="2"/>
<rect y="147" width="320" height="66" rx="33" fill="#D6D9DD"/>
<rect x="24" y="170" width="200" height="20" fill="#A8ADB4"/>
<rect x="266" y="159" width="42" height="42" rx="21" fill="#C24438"/>
<path d="M292.859 184.641C293.367 185.109 293.367 185.93 292.859 186.398C292.625 186.633 292.312 186.75 292 186.75C291.648 186.75 291.336 186.633 291.102 186.398L287 182.297L282.859 186.398C282.625 186.633 282.312 186.75 282 186.75C281.648 186.75 281.336 186.633 281.102 186.398C280.594 185.93 280.594 185.109 281.102 184.641L285.203 180.5L281.102 176.398C280.594 175.93 280.594 175.109 281.102 174.641C281.57 174.133 282.391 174.133 282.859 174.641L287 178.742L291.102 174.641C291.57 174.133 292.391 174.133 292.859 174.641C293.367 175.109 293.367 175.93 292.859 176.398L288.758 180.539L292.859 184.641Z" fill="white"/>
</svg>
