<svg width="400" height="300" viewBox="0 0 400 300" fill="none" xmlns="http://www.w3.org/2000/svg">
<rect width="400" height="300" fill="#F1F2F3"/>
<rect x="109" y="98" width="110" height="20" rx="10" fill="#A8ADB4"/>
<rect x="109" y="128" width="175" height="16" rx="8" fill="#A8ADB4"/>
<rect x="111" y="161" width="177" height="38" rx="8" fill="white"/>
<path d="M133.2 175.642C132.564 175.642 131.994 175.756 131.49 175.984C130.986 176.2 130.554 176.524 130.194 176.956C129.846 177.388 129.576 177.91 129.384 178.522C129.204 179.134 129.114 179.824 129.114 180.592C129.114 181.6 129.264 182.476 129.564 183.22C129.864 183.952 130.314 184.516 130.914 184.912C131.514 185.308 132.27 185.506 133.182 185.506C133.734 185.506 134.262 185.458 134.766 185.362C135.282 185.254 135.804 185.116 136.332 184.948V186.622C135.828 186.814 135.312 186.952 134.784 187.036C134.256 187.132 133.644 187.18 132.948 187.18C131.64 187.18 130.548 186.91 129.672 186.37C128.808 185.83 128.16 185.062 127.728 184.066C127.296 183.07 127.08 181.906 127.08 180.574C127.08 179.602 127.212 178.714 127.476 177.91C127.752 177.094 128.148 176.392 128.664 175.804C129.18 175.216 129.816 174.766 130.572 174.454C131.34 174.13 132.222 173.968 133.218 173.968C133.866 173.968 134.502 174.04 135.126 174.184C135.75 174.316 136.314 174.508 136.818 174.76L136.098 176.38C135.678 176.188 135.222 176.02 134.73 175.876C134.25 175.72 133.74 175.642 133.2 175.642ZM140.793 176.974C140.793 177.274 140.781 177.574 140.757 177.874C140.733 178.174 140.709 178.42 140.685 178.612H140.811C141.015 178.276 141.267 178 141.567 177.784C141.879 177.568 142.221 177.406 142.593 177.298C142.977 177.19 143.367 177.136 143.763 177.136C144.531 177.136 145.173 177.262 145.689 177.514C146.217 177.754 146.613 178.138 146.877 178.666C147.153 179.182 147.291 179.854 147.291 180.682V187H145.401V180.952C145.401 180.196 145.239 179.632 144.915 179.26C144.603 178.876 144.099 178.684 143.403 178.684C142.743 178.684 142.221 178.816 141.837 179.08C141.465 179.344 141.195 179.734 141.027 180.25C140.871 180.754 140.793 181.378 140.793 182.122V187H138.885V173.32H140.793V176.974ZM158.773 182.14C158.773 182.944 158.665 183.658 158.449 184.282C158.233 184.906 157.927 185.434 157.531 185.866C157.135 186.298 156.655 186.628 156.091 186.856C155.527 187.072 154.891 187.18 154.183 187.18C153.535 187.18 152.935 187.072 152.383 186.856C151.831 186.628 151.351 186.298 150.943 185.866C150.547 185.434 150.235 184.906 150.007 184.282C149.779 183.658 149.665 182.938 149.665 182.122C149.665 181.054 149.845 180.148 150.205 179.404C150.577 178.66 151.105 178.096 151.789 177.712C152.485 177.316 153.301 177.118 154.237 177.118C155.125 177.118 155.905 177.316 156.577 177.712C157.261 178.096 157.795 178.66 158.179 179.404C158.575 180.148 158.773 181.06 158.773 182.14ZM151.627 182.14C151.627 182.86 151.717 183.484 151.897 184.012C152.077 184.528 152.359 184.924 152.743 185.2C153.127 185.476 153.619 185.614 154.219 185.614C154.819 185.614 155.311 185.476 155.695 185.2C156.079 184.924 156.361 184.528 156.541 184.012C156.721 183.484 156.811 182.86 156.811 182.14C156.811 181.396 156.715 180.772 156.523 180.268C156.343 179.764 156.061 179.38 155.677 179.116C155.305 178.84 154.813 178.702 154.201 178.702C153.301 178.702 152.647 179.002 152.239 179.602C151.831 180.202 151.627 181.048 151.627 182.14ZM163.099 177.298V187H161.191V177.298H163.099ZM162.163 173.608C162.451 173.608 162.703 173.692 162.919 173.86C163.135 174.028 163.243 174.31 163.243 174.706C163.243 175.09 163.135 175.372 162.919 175.552C162.703 175.72 162.451 175.804 162.163 175.804C161.851 175.804 161.587 175.72 161.371 175.552C161.167 175.372 161.065 175.09 161.065 174.706C161.065 174.31 161.167 174.028 161.371 173.86C161.587 173.692 161.851 173.608 162.163 173.608ZM172.54 184.264C172.54 184.9 172.384 185.434 172.072 185.866C171.76 186.298 171.31 186.628 170.722 186.856C170.134 187.072 169.426 187.18 168.598 187.18C167.914 187.18 167.326 187.126 166.834 187.018C166.354 186.922 165.91 186.778 165.502 186.586V184.912C165.934 185.116 166.432 185.302 166.996 185.47C167.56 185.626 168.112 185.704 168.652 185.704C169.372 185.704 169.888 185.59 170.2 185.362C170.524 185.134 170.686 184.828 170.686 184.444C170.686 184.228 170.626 184.036 170.506 183.868C170.386 183.688 170.158 183.508 169.822 183.328C169.498 183.136 169.018 182.92 168.382 182.68C167.77 182.428 167.248 182.182 166.816 181.942C166.384 181.69 166.054 181.396 165.826 181.06C165.598 180.712 165.484 180.268 165.484 179.728C165.484 178.888 165.82 178.246 166.492 177.802C167.176 177.346 168.076 177.118 169.192 177.118C169.78 177.118 170.332 177.178 170.848 177.298C171.376 177.406 171.886 177.574 172.378 177.802L171.748 179.26C171.472 179.128 171.184 179.02 170.884 178.936C170.596 178.84 170.302 178.762 170.002 178.702C169.714 178.642 169.414 178.612 169.102 178.612C168.526 178.612 168.088 178.702 167.788 178.882C167.488 179.062 167.338 179.314 167.338 179.638C167.338 179.866 167.404 180.064 167.536 180.232C167.68 180.4 167.926 180.568 168.274 180.736C168.622 180.904 169.096 181.108 169.696 181.348C170.296 181.576 170.806 181.81 171.226 182.05C171.658 182.29 171.982 182.584 172.198 182.932C172.426 183.28 172.54 183.724 172.54 184.264ZM176.722 177.298V187H174.814V177.298H176.722ZM175.786 173.608C176.074 173.608 176.326 173.692 176.542 173.86C176.758 174.028 176.866 174.31 176.866 174.706C176.866 175.09 176.758 175.372 176.542 175.552C176.326 175.72 176.074 175.804 175.786 175.804C175.474 175.804 175.21 175.72 174.994 175.552C174.79 175.372 174.688 175.09 174.688 174.706C174.688 174.31 174.79 174.028 174.994 173.86C175.21 173.692 175.474 173.608 175.786 173.608ZM184.507 177.118C184.675 177.118 184.861 177.13 185.065 177.154C185.269 177.166 185.437 177.184 185.569 177.208L185.371 178.99C185.239 178.954 185.083 178.924 184.903 178.9C184.723 178.876 184.555 178.864 184.399 178.864C184.039 178.864 183.691 178.936 183.355 179.08C183.031 179.212 182.737 179.41 182.473 179.674C182.209 179.926 181.999 180.238 181.843 180.61C181.699 180.982 181.627 181.408 181.627 181.888V187H179.719V177.298H181.231L181.483 179.026H181.555C181.759 178.678 182.005 178.36 182.293 178.072C182.581 177.784 182.911 177.556 183.283 177.388C183.655 177.208 184.063 177.118 184.507 177.118ZM200.393 177.298V187H198.863L198.593 185.722H198.503C198.299 186.058 198.035 186.334 197.711 186.55C197.387 186.766 197.033 186.922 196.649 187.018C196.265 187.126 195.869 187.18 195.461 187.18C194.705 187.18 194.063 187.06 193.535 186.82C193.019 186.568 192.623 186.184 192.347 185.668C192.083 185.14 191.951 184.468 191.951 183.652V177.298H193.877V183.364C193.877 184.12 194.033 184.684 194.345 185.056C194.669 185.428 195.167 185.614 195.839 185.614C196.511 185.614 197.039 185.482 197.423 185.218C197.807 184.954 198.077 184.57 198.233 184.066C198.401 183.55 198.485 182.932 198.485 182.212V177.298H200.393ZM208.293 177.118C209.421 177.118 210.285 177.4 210.885 177.964C211.485 178.528 211.785 179.434 211.785 180.682V187H209.895V180.952C209.895 180.196 209.733 179.632 209.409 179.26C209.097 178.876 208.593 178.684 207.897 178.684C206.913 178.684 206.229 178.978 205.845 179.566C205.473 180.154 205.287 181 205.287 182.104V187H203.379V177.298H204.891L205.161 178.594H205.269C205.485 178.258 205.749 177.982 206.061 177.766C206.373 177.55 206.721 177.388 207.105 177.28C207.489 177.172 207.885 177.118 208.293 177.118ZM224.126 178.756H221.732V187H219.824V178.756H218.186V177.856L219.824 177.262V176.65C219.824 175.822 219.95 175.162 220.202 174.67C220.466 174.166 220.838 173.8 221.318 173.572C221.798 173.344 222.38 173.23 223.064 173.23C223.484 173.23 223.868 173.266 224.216 173.338C224.564 173.41 224.858 173.488 225.098 173.572L224.612 175.03C224.42 174.97 224.198 174.916 223.946 174.868C223.694 174.808 223.43 174.778 223.154 174.778C222.674 174.778 222.314 174.934 222.074 175.246C221.846 175.558 221.732 176.032 221.732 176.668V177.298H224.126V178.756ZM227.726 177.298V187H225.818V177.298H227.726ZM226.79 173.608C227.078 173.608 227.33 173.692 227.546 173.86C227.762 174.028 227.87 174.31 227.87 174.706C227.87 175.09 227.762 175.372 227.546 175.552C227.33 175.72 227.078 175.804 226.79 175.804C226.478 175.804 226.214 175.72 225.998 175.552C225.794 175.372 225.692 175.09 225.692 174.706C225.692 174.31 225.794 174.028 225.998 173.86C226.214 173.692 226.478 173.608 226.79 173.608ZM234.619 187.18C233.731 187.18 232.951 187.006 232.279 186.658C231.607 186.31 231.085 185.77 230.713 185.038C230.341 184.294 230.155 183.352 230.155 182.212C230.155 181.012 230.353 180.04 230.749 179.296C231.157 178.552 231.703 178.006 232.387 177.658C233.083 177.298 233.875 177.118 234.763 177.118C235.303 177.118 235.807 177.178 236.275 177.298C236.755 177.406 237.151 177.532 237.463 177.676L236.887 179.224C236.551 179.092 236.191 178.978 235.807 178.882C235.435 178.786 235.081 178.738 234.745 178.738C234.145 178.738 233.647 178.87 233.251 179.134C232.867 179.386 232.579 179.77 232.387 180.286C232.207 180.79 232.117 181.426 232.117 182.194C232.117 182.926 232.213 183.544 232.405 184.048C232.597 184.552 232.879 184.936 233.251 185.2C233.635 185.452 234.109 185.578 234.673 185.578C235.213 185.578 235.687 185.518 236.095 185.398C236.503 185.278 236.887 185.122 237.247 184.93V186.586C236.899 186.79 236.521 186.94 236.113 187.036C235.705 187.132 235.207 187.18 234.619 187.18ZM241.445 176.974C241.445 177.274 241.433 177.574 241.409 177.874C241.385 178.174 241.361 178.42 241.337 178.612H241.463C241.667 178.276 241.919 178 242.219 177.784C242.531 177.568 242.873 177.406 243.245 177.298C243.629 177.19 244.019 177.136 244.415 177.136C245.183 177.136 245.825 177.262 246.341 177.514C246.869 177.754 247.265 178.138 247.529 178.666C247.805 179.182 247.943 179.854 247.943 180.682V187H246.053V180.952C246.053 180.196 245.891 179.632 245.567 179.26C245.255 178.876 244.751 178.684 244.055 178.684C243.395 178.684 242.873 178.816 242.489 179.08C242.117 179.344 241.847 179.734 241.679 180.25C241.523 180.754 241.445 181.378 241.445 182.122V187H239.537V173.32H241.445V176.974ZM252.783 177.298V187H250.875V177.298H252.783ZM251.847 173.608C252.135 173.608 252.387 173.692 252.603 173.86C252.819 174.028 252.927 174.31 252.927 174.706C252.927 175.09 252.819 175.372 252.603 175.552C252.387 175.72 252.135 175.804 251.847 175.804C251.535 175.804 251.271 175.72 251.055 175.552C250.851 175.372 250.749 175.09 250.749 174.706C250.749 174.31 250.851 174.028 251.055 173.86C251.271 173.692 251.535 173.608 251.847 173.608ZM259.595 177.118C260.447 177.118 261.179 177.298 261.791 177.658C262.403 178.006 262.871 178.51 263.195 179.17C263.531 179.83 263.699 180.61 263.699 181.51V182.554H257.183C257.207 183.55 257.465 184.312 257.957 184.84C258.461 185.368 259.163 185.632 260.063 185.632C260.687 185.632 261.239 185.578 261.719 185.47C262.211 185.35 262.715 185.176 263.231 184.948V186.532C262.751 186.748 262.259 186.91 261.755 187.018C261.263 187.126 260.675 187.18 259.991 187.18C259.055 187.18 258.227 186.994 257.507 186.622C256.787 186.25 256.223 185.698 255.815 184.966C255.419 184.222 255.221 183.31 255.221 182.23C255.221 181.138 255.401 180.214 255.761 179.458C256.133 178.702 256.643 178.126 257.291 177.73C257.951 177.322 258.719 177.118 259.595 177.118ZM259.595 178.594C258.911 178.594 258.359 178.816 257.939 179.26C257.531 179.704 257.291 180.334 257.219 181.15H261.791C261.791 180.646 261.713 180.202 261.557 179.818C261.401 179.434 261.161 179.134 260.837 178.918C260.513 178.702 260.099 178.594 259.595 178.594ZM270.868 177.118C271.036 177.118 271.222 177.13 271.426 177.154C271.63 177.166 271.798 177.184 271.93 177.208L271.732 178.99C271.6 178.954 271.444 178.924 271.264 178.9C271.084 178.876 270.916 178.864 270.76 178.864C270.4 178.864 270.052 178.936 269.716 179.08C269.392 179.212 269.098 179.41 268.834 179.674C268.57 179.926 268.36 180.238 268.204 180.61C268.06 180.982 267.988 181.408 267.988 181.888V187H266.08V177.298H267.592L267.844 179.026H267.916C268.12 178.678 268.366 178.36 268.654 178.072C268.942 177.784 269.272 177.556 269.644 177.388C270.016 177.208 270.424 177.118 270.868 177.118Z" fill="#6584A6"/>
<rect x="111" y="161" width="177" height="38" rx="8" stroke="#6584A6" stroke-width="4"/>
</svg>
