<svg width="243" height="178" viewBox="0 0 243 178" fill="none" xmlns="http://www.w3.org/2000/svg">
<g clip-path="url(#clip0_843_3119)">
<path d="M0.800781 19.42V17.86H5.64078V19.42H0.800781ZM7.24609 19.42V17.86H12.0861V19.42H7.24609Z" fill="black"/>
<path d="M16 0H66V33H16V0Z" fill="#E6E6E6"/>
<path d="M24.5016 13.08C25.2083 13.08 25.8416 13.2133 26.4016 13.48C26.9749 13.7467 27.4616 14.1533 27.8616 14.7H27.9616L28.2016 13.28H29.6016V24.18C29.6016 25.7133 29.2083 26.8667 28.4216 27.64C27.6483 28.4133 26.4416 28.8 24.8016 28.8C23.2283 28.8 21.9416 28.5733 20.9416 28.12V26.5C21.9949 27.06 23.3149 27.34 24.9016 27.34C25.8216 27.34 26.5416 27.0667 27.0616 26.52C27.5949 25.9867 27.8616 25.2533 27.8616 24.32V23.9C27.8616 23.74 27.8683 23.5133 27.8816 23.22C27.8949 22.9133 27.9083 22.7 27.9216 22.58H27.8416C27.1216 23.66 26.0149 24.2 24.5216 24.2C23.1349 24.2 22.0483 23.7133 21.2616 22.74C20.4883 21.7667 20.1016 20.4067 20.1016 18.66C20.1016 16.9533 20.4883 15.6 21.2616 14.6C22.0483 13.5867 23.1283 13.08 24.5016 13.08ZM24.7416 14.56C23.8483 14.56 23.1549 14.92 22.6616 15.64C22.1683 16.3467 21.9216 17.36 21.9216 18.68C21.9216 20 22.1616 21.0133 22.6416 21.72C23.1349 22.4133 23.8483 22.76 24.7816 22.76C25.8616 22.76 26.6483 22.4733 27.1416 21.9C27.6349 21.3133 27.8816 20.3733 27.8816 19.08V18.66C27.8816 17.1933 27.6283 16.1467 27.1216 15.52C26.6149 14.88 25.8216 14.56 24.7416 14.56ZM37.3063 24.2C36.3596 24.2 35.513 24.0067 34.7663 23.62C34.033 23.2333 33.453 22.6333 33.0263 21.82C32.613 21.0067 32.4063 19.9667 32.4063 18.7C32.4063 17.38 32.6263 16.3067 33.0663 15.48C33.5063 14.6533 34.0996 14.0467 34.8463 13.66C35.6063 13.2733 36.4663 13.08 37.4263 13.08C37.973 13.08 38.4996 13.14 39.0063 13.26C39.513 13.3667 39.9263 13.5 40.2463 13.66L39.7063 15.12C39.3863 15 39.013 14.8867 38.5863 14.78C38.1596 14.6733 37.7596 14.62 37.3863 14.62C35.2796 14.62 34.2263 15.9733 34.2263 18.68C34.2263 19.9733 34.4796 20.9667 34.9863 21.66C35.5063 22.34 36.273 22.68 37.2863 22.68C37.873 22.68 38.3863 22.62 38.8263 22.5C39.2796 22.38 39.693 22.2333 40.0663 22.06V23.62C39.7063 23.8067 39.3063 23.9467 38.8663 24.04C38.4396 24.1467 37.9196 24.2 37.3063 24.2ZM46.4157 24.2C45.0823 24.2 44.0157 23.74 43.2157 22.82C42.4157 21.8867 42.0157 20.5 42.0157 18.66C42.0157 16.82 42.4157 15.4333 43.2157 14.5C44.029 13.5533 45.1023 13.08 46.4357 13.08C47.2623 13.08 47.9357 13.2333 48.4557 13.54C48.989 13.8467 49.4223 14.22 49.7557 14.66H49.8757C49.8623 14.4867 49.8357 14.2333 49.7957 13.9C49.769 13.5533 49.7557 13.28 49.7557 13.08V8.79999H51.5157V24H50.0957L49.8357 22.56H49.7557C49.4357 23.0133 49.009 23.4 48.4757 23.72C47.9423 24.04 47.2557 24.2 46.4157 24.2ZM46.6957 22.74C47.829 22.74 48.6223 22.4333 49.0757 21.82C49.5423 21.1933 49.7757 20.2533 49.7757 19V18.68C49.7757 17.3467 49.5557 16.3267 49.1157 15.62C48.6757 14.9 47.8623 14.54 46.6757 14.54C45.729 14.54 45.0157 14.92 44.5357 15.68C44.069 16.4267 43.8357 17.4333 43.8357 18.7C43.8357 19.98 44.069 20.9733 44.5357 21.68C45.0157 22.3867 45.7357 22.74 46.6957 22.74ZM61.9004 21.04C61.9004 22.08 61.5137 22.8667 60.7404 23.4C59.967 23.9333 58.927 24.2 57.6204 24.2C56.8737 24.2 56.227 24.14 55.6804 24.02C55.147 23.9 54.6737 23.7333 54.2604 23.52V21.92C54.687 22.1333 55.2004 22.3333 55.8004 22.52C56.4137 22.6933 57.0337 22.78 57.6604 22.78C58.5537 22.78 59.2004 22.64 59.6004 22.36C60.0004 22.0667 60.2004 21.68 60.2004 21.2C60.2004 20.9333 60.127 20.6933 59.9804 20.48C59.8337 20.2667 59.567 20.0533 59.1804 19.84C58.807 19.6267 58.267 19.3867 57.5604 19.12C56.867 18.8533 56.2737 18.5867 55.7804 18.32C55.287 18.0533 54.907 17.7333 54.6404 17.36C54.3737 16.9867 54.2404 16.5067 54.2404 15.92C54.2404 15.0133 54.607 14.3133 55.3404 13.82C56.087 13.3267 57.0604 13.08 58.2604 13.08C58.9137 13.08 59.5204 13.1467 60.0804 13.28C60.6537 13.4 61.187 13.5733 61.6804 13.8L61.0804 15.2C60.627 15.0133 60.1537 14.8533 59.6604 14.72C59.167 14.5867 58.6604 14.52 58.1404 14.52C57.4204 14.52 56.867 14.64 56.4804 14.88C56.107 15.1067 55.9204 15.42 55.9204 15.82C55.9204 16.1133 56.007 16.3667 56.1804 16.58C56.3537 16.78 56.6404 16.98 57.0404 17.18C57.4537 17.3667 58.0004 17.5933 58.6804 17.86C59.3604 18.1133 59.9404 18.3733 60.4204 18.64C60.9004 18.9067 61.267 19.2333 61.5204 19.62C61.7737 19.9933 61.9004 20.4667 61.9004 21.04Z" fill="black"/>
<mask id="mask0_843_3119" style="mask-type:luminance" maskUnits="userSpaceOnUse" x="16" y="0" width="50" height="33">
<path d="M16 0H66V33H16V0Z" fill="white"/>
</mask>
<g mask="url(#mask0_843_3119)">
<path d="M66 31H16V35H66V31Z" fill="#666666"/>
</g>
<path d="M69.8008 19.42V17.86H74.6408V19.42H69.8008Z" fill="black"/>
<path d="M79 0H121V33H79V0Z" fill="#D6F5E1"/>
<path d="M87.2803 22.76C87.547 22.76 87.8203 22.74 88.1003 22.7C88.3803 22.6467 88.607 22.5933 88.7803 22.54V23.88C88.5936 23.9733 88.327 24.0467 87.9803 24.1C87.6336 24.1667 87.3003 24.2 86.9803 24.2C86.4203 24.2 85.9003 24.1067 85.4203 23.92C84.9536 23.72 84.5736 23.38 84.2803 22.9C83.987 22.42 83.8403 21.7467 83.8403 20.88V14.64H82.3203V13.8L83.8603 13.1L84.5603 10.82H85.6003V13.28H88.7003V14.64H85.6003V20.84C85.6003 21.4933 85.7536 21.98 86.0603 22.3C86.3803 22.6067 86.787 22.76 87.2803 22.76ZM95.0669 13.08C95.9869 13.08 96.7735 13.28 97.4269 13.68C98.0935 14.08 98.6002 14.6467 98.9469 15.38C99.3069 16.1 99.4869 16.9467 99.4869 17.92V18.98H92.1469C92.1735 20.1933 92.4802 21.12 93.0669 21.76C93.6669 22.3867 94.5002 22.7 95.5669 22.7C96.2469 22.7 96.8469 22.64 97.3669 22.52C97.9002 22.3867 98.4469 22.2 99.0069 21.96V23.5C98.4602 23.74 97.9202 23.9133 97.3869 24.02C96.8535 24.14 96.2202 24.2 95.4869 24.2C94.4735 24.2 93.5735 23.9933 92.7869 23.58C92.0135 23.1667 91.4069 22.5533 90.9669 21.74C90.5402 20.9133 90.3269 19.9067 90.3269 18.72C90.3269 17.5467 90.5202 16.54 90.9069 15.7C91.3069 14.86 91.8602 14.2133 92.5669 13.76C93.2869 13.3067 94.1202 13.08 95.0669 13.08ZM95.0469 14.52C94.2069 14.52 93.5402 14.7933 93.0469 15.34C92.5669 15.8733 92.2802 16.62 92.1869 17.58H97.6469C97.6335 16.6733 97.4202 15.94 97.0069 15.38C96.5935 14.8067 95.9402 14.52 95.0469 14.52ZM104.365 18.52L100.665 13.28H102.665L105.425 17.32L108.165 13.28H110.145L106.445 18.52L110.345 24H108.345L105.425 19.72L102.465 24H100.485L104.365 18.52ZM115.991 22.76C116.258 22.76 116.531 22.74 116.811 22.7C117.091 22.6467 117.318 22.5933 117.491 22.54V23.88C117.304 23.9733 117.038 24.0467 116.691 24.1C116.344 24.1667 116.011 24.2 115.691 24.2C115.131 24.2 114.611 24.1067 114.131 23.92C113.664 23.72 113.284 23.38 112.991 22.9C112.698 22.42 112.551 21.7467 112.551 20.88V14.64H111.031V13.8L112.571 13.1L113.271 10.82H114.311V13.28H117.411V14.64H114.311V20.84C114.311 21.4933 114.464 21.98 114.771 22.3C115.091 22.6067 115.498 22.76 115.991 22.76Z" fill="black"/>
<mask id="mask1_843_3119" style="mask-type:luminance" maskUnits="userSpaceOnUse" x="79" y="0" width="42" height="33">
<path d="M79 0H121V33H79V0Z" fill="white"/>
</mask>
<g mask="url(#mask1_843_3119)">
<path d="M121 31H79V35H121V31Z" fill="#29A356"/>
</g>
<path d="M124.801 19.42V17.86H129.641V19.42H124.801Z" fill="black"/>
<path d="M134 0H215V33H134V0Z" fill="#F9D2D7"/>
<path d="M143.799 13.08C145.119 13.08 146.179 13.54 146.979 14.46C147.792 15.38 148.199 16.7667 148.199 18.62C148.199 20.4467 147.792 21.8333 146.979 22.78C146.179 23.7267 145.112 24.2 143.779 24.2C142.952 24.2 142.266 24.0467 141.719 23.74C141.186 23.42 140.766 23.0533 140.459 22.64H140.339C140.366 22.8667 140.392 23.1533 140.419 23.5C140.446 23.8467 140.459 24.1467 140.459 24.4V28.8H138.699V13.28H140.139L140.379 14.74H140.459C140.779 14.2733 141.199 13.88 141.719 13.56C142.239 13.24 142.932 13.08 143.799 13.08ZM143.479 14.56C142.386 14.56 141.612 14.8667 141.159 15.48C140.719 16.0933 140.486 17.0267 140.459 18.28V18.62C140.459 19.94 140.672 20.96 141.099 21.68C141.539 22.3867 142.346 22.74 143.519 22.74C144.172 22.74 144.706 22.56 145.119 22.2C145.546 21.84 145.859 21.3533 146.059 20.74C146.272 20.1133 146.379 19.4 146.379 18.6C146.379 17.3733 146.139 16.3933 145.659 15.66C145.192 14.9267 144.466 14.56 143.479 14.56ZM156.004 13.08C156.204 13.08 156.417 13.0933 156.644 13.12C156.884 13.1333 157.09 13.16 157.264 13.2L157.044 14.82C156.87 14.78 156.677 14.7467 156.464 14.72C156.264 14.6933 156.07 14.68 155.884 14.68C155.337 14.68 154.824 14.8333 154.344 15.14C153.864 15.4333 153.477 15.8533 153.184 16.4C152.904 16.9333 152.764 17.56 152.764 18.28V24H151.004V13.28H152.444L152.644 15.24H152.724C153.07 14.6533 153.517 14.1467 154.064 13.72C154.61 13.2933 155.257 13.08 156.004 13.08ZM160.165 9.26001C160.432 9.26001 160.665 9.35334 160.865 9.54001C161.079 9.71334 161.185 9.99334 161.185 10.38C161.185 10.7533 161.079 11.0333 160.865 11.22C160.665 11.4067 160.432 11.5 160.165 11.5C159.872 11.5 159.625 11.4067 159.425 11.22C159.225 11.0333 159.125 10.7533 159.125 10.38C159.125 9.99334 159.225 9.71334 159.425 9.54001C159.625 9.35334 159.872 9.26001 160.165 9.26001ZM161.025 13.28V24H159.265V13.28H161.025ZM176.182 13.08C177.395 13.08 178.302 13.3933 178.902 14.02C179.502 14.6333 179.802 15.6333 179.802 17.02V24H178.062V17.1C178.062 15.4067 177.335 14.56 175.882 14.56C174.842 14.56 174.095 14.86 173.642 15.46C173.202 16.06 172.982 16.9333 172.982 18.08V24H171.242V17.1C171.242 15.4067 170.508 14.56 169.042 14.56C167.962 14.56 167.215 14.8933 166.802 15.56C166.388 16.2267 166.182 17.1867 166.182 18.44V24H164.422V13.28H165.842L166.102 14.74H166.202C166.535 14.18 166.982 13.7667 167.542 13.5C168.115 13.22 168.722 13.08 169.362 13.08C171.042 13.08 172.135 13.68 172.642 14.88H172.742C173.102 14.2667 173.588 13.8133 174.202 13.52C174.828 13.2267 175.488 13.08 176.182 13.08ZM187.173 13.1C188.48 13.1 189.446 13.3867 190.073 13.96C190.7 14.5333 191.013 15.4467 191.013 16.7V24H189.733L189.393 22.48H189.313C188.846 23.0667 188.353 23.5 187.833 23.78C187.326 24.06 186.62 24.2 185.713 24.2C184.74 24.2 183.933 23.9467 183.293 23.44C182.653 22.92 182.333 22.1133 182.333 21.02C182.333 19.9533 182.753 19.1333 183.593 18.56C184.433 17.9733 185.726 17.6533 187.473 17.6L189.293 17.54V16.9C189.293 16.0067 189.1 15.3867 188.713 15.04C188.326 14.6933 187.78 14.52 187.073 14.52C186.513 14.52 185.98 14.6067 185.473 14.78C184.966 14.94 184.493 15.1267 184.053 15.34L183.513 14.02C183.98 13.7667 184.533 13.5533 185.173 13.38C185.813 13.1933 186.48 13.1 187.173 13.1ZM187.693 18.82C186.36 18.8733 185.433 19.0867 184.913 19.46C184.406 19.8333 184.153 20.36 184.153 21.04C184.153 21.64 184.333 22.08 184.693 22.36C185.066 22.64 185.54 22.78 186.113 22.78C187.02 22.78 187.773 22.5333 188.373 22.04C188.973 21.5333 189.273 20.76 189.273 19.72V18.76L187.693 18.82ZM199.324 13.08C199.524 13.08 199.737 13.0933 199.964 13.12C200.204 13.1333 200.411 13.16 200.584 13.2L200.364 14.82C200.191 14.78 199.997 14.7467 199.784 14.72C199.584 14.6933 199.391 14.68 199.204 14.68C198.657 14.68 198.144 14.8333 197.664 15.14C197.184 15.4333 196.797 15.8533 196.504 16.4C196.224 16.9333 196.084 17.56 196.084 18.28V24H194.324V13.28H195.764L195.964 15.24H196.044C196.391 14.6533 196.837 14.1467 197.384 13.72C197.931 13.2933 198.577 13.08 199.324 13.08ZM200.906 13.28H202.786L205.106 19.38C205.306 19.9133 205.486 20.4267 205.646 20.92C205.806 21.4 205.926 21.86 206.006 22.3H206.086C206.166 21.9667 206.292 21.5333 206.466 21C206.639 20.4533 206.819 19.9067 207.006 19.36L209.186 13.28H211.086L206.466 25.48C206.092 26.4933 205.606 27.3 205.006 27.9C204.419 28.5 203.606 28.8 202.566 28.8C202.246 28.8 201.966 28.78 201.726 28.74C201.486 28.7133 201.279 28.68 201.106 28.64V27.24C201.252 27.2667 201.426 27.2933 201.626 27.32C201.839 27.3467 202.059 27.36 202.286 27.36C202.899 27.36 203.392 27.1867 203.766 26.84C204.152 26.4933 204.452 26.0333 204.666 25.46L205.226 24.04L200.906 13.28Z" fill="black"/>
<mask id="mask2_843_3119" style="mask-type:luminance" maskUnits="userSpaceOnUse" x="134" y="0" width="81" height="33">
<path d="M134 0H215V33H134V0Z" fill="white"/>
</mask>
<g mask="url(#mask2_843_3119)">
<path d="M215 31H134V35H215V31Z" fill="#C91D34"/>
</g>
<g filter="url(#filter0_d_843_3119)">
<path d="M175 33V52" stroke="#C91D34" stroke-width="2"/>
</g>
<path d="M128.187 68.3194C129.761 68.3194 130.922 68.6213 131.668 69.2251C132.425 69.8171 132.803 70.717 132.803 71.9246C132.803 72.5995 132.68 73.1619 132.431 73.6118C132.183 74.0618 131.863 74.4229 131.472 74.6952C131.093 74.9557 130.691 75.1629 130.265 75.3168L133.745 81H131.881L128.808 75.7608H126.285V81H124.688V68.3194H128.187ZM128.097 69.7046H126.285V74.411H128.187C129.217 74.411 129.968 74.2098 130.441 73.8072C130.915 73.3928 131.153 72.789 131.153 71.9957C131.153 71.1669 130.904 70.5808 130.407 70.2374C129.909 69.8822 129.139 69.7046 128.097 69.7046ZM143.799 76.2226C143.799 77.7973 143.395 79.0168 142.59 79.8811C141.797 80.7454 140.72 81.1776 139.358 81.1776C138.517 81.1776 137.766 80.9882 137.103 80.6093C136.452 80.2186 135.937 79.6562 135.558 78.9221C135.179 78.1762 134.989 77.2763 134.989 76.2226C134.989 74.6478 135.386 73.4342 136.179 72.5818C136.972 71.7293 138.05 71.303 139.411 71.303C140.276 71.303 141.033 71.4984 141.685 71.8891C142.348 72.268 142.863 72.8245 143.23 73.5586C143.609 74.2808 143.799 75.1688 143.799 76.2226ZM136.605 76.2226C136.605 77.3474 136.825 78.2413 137.263 78.9043C137.713 79.5555 138.424 79.8811 139.394 79.8811C140.354 79.8811 141.057 79.5555 141.507 78.9043C141.958 78.2413 142.183 77.3474 142.183 76.2226C142.183 75.0978 141.958 74.2157 141.507 73.5763C141.057 72.937 140.348 72.6173 139.377 72.6173C138.406 72.6173 137.701 72.937 137.263 73.5763C136.825 74.2157 136.605 75.0978 136.605 76.2226ZM147.838 81H146.275V67.5024H147.838V81ZM154.53 71.303C155.347 71.303 156.047 71.4806 156.627 71.8358C157.219 72.191 157.669 72.6942 157.976 73.3454C158.296 73.9848 158.455 74.7366 158.455 75.601V76.5422H151.937C151.961 77.6197 152.233 78.4426 152.754 79.0109C153.287 79.5674 154.027 79.8456 154.974 79.8456C155.578 79.8456 156.112 79.7923 156.573 79.6858C157.047 79.5674 157.532 79.4016 158.03 79.1885V80.556C157.544 80.7691 157.064 80.923 156.59 81.0178C156.117 81.1243 155.554 81.1776 154.903 81.1776C154.003 81.1776 153.205 80.9941 152.506 80.627C151.819 80.26 151.281 79.7154 150.89 78.9931C150.511 78.259 150.321 77.3651 150.321 76.3114C150.321 75.2694 150.493 74.3755 150.836 73.6296C151.191 72.8837 151.682 72.3094 152.31 71.9069C152.949 71.5043 153.689 71.303 154.53 71.303ZM154.513 72.5818C153.767 72.5818 153.175 72.8245 152.737 73.3099C152.311 73.7835 152.056 74.4466 151.974 75.299H156.821C156.809 74.4939 156.621 73.8427 156.254 73.3454C155.887 72.8363 155.307 72.5818 154.513 72.5818ZM173.769 76.2226C173.769 77.7973 173.365 79.0168 172.56 79.8811C171.767 80.7454 170.69 81.1776 169.328 81.1776C168.487 81.1776 167.736 80.9882 167.073 80.6093C166.422 80.2186 165.907 79.6562 165.528 78.9221C165.149 78.1762 164.959 77.2763 164.959 76.2226C164.959 74.6478 165.356 73.4342 166.149 72.5818C166.942 71.7293 168.02 71.303 169.381 71.303C170.246 71.303 171.003 71.4984 171.655 71.8891C172.318 72.268 172.833 72.8245 173.2 73.5586C173.579 74.2808 173.769 75.1688 173.769 76.2226ZM166.575 76.2226C166.575 77.3474 166.794 78.2413 167.232 78.9043C167.682 79.5555 168.394 79.8811 169.364 79.8811C170.324 79.8811 171.028 79.5555 171.478 78.9043C171.928 78.2413 172.153 77.3474 172.153 76.2226C172.153 75.0978 171.928 74.2157 171.478 73.5763C171.028 72.937 170.318 72.6173 169.347 72.6173C168.376 72.6173 167.67 72.937 167.232 73.5763C166.794 74.2157 166.575 75.0978 166.575 76.2226ZM180.685 71.303C180.863 71.303 181.053 71.3149 181.254 71.3386C181.467 71.3504 181.65 71.3741 181.804 71.4096L181.608 72.8482C181.455 72.8126 181.283 72.783 181.093 72.7594C180.917 72.7357 180.744 72.7238 180.578 72.7238C180.093 72.7238 179.637 72.86 179.211 73.1323C178.785 73.3928 178.441 73.7658 178.181 74.2512C177.932 74.7248 177.808 75.2813 177.808 75.9206V81H176.245V71.4806H177.524L177.701 73.2211H177.772C178.08 72.7002 178.478 72.2502 178.963 71.8714C179.449 71.4925 180.022 71.303 180.685 71.303ZM194.394 78.3715C194.394 79.295 194.05 79.9936 193.364 80.4672C192.677 80.9408 191.753 81.1776 190.592 81.1776C189.929 81.1776 189.355 81.1243 188.87 81.0178C188.396 80.9112 187.976 80.7632 187.609 80.5738V79.153C187.988 79.3424 188.443 79.52 188.976 79.6858C189.521 79.8397 190.072 79.9166 190.629 79.9166C191.422 79.9166 191.995 79.7923 192.351 79.5437C192.706 79.2832 192.883 78.9398 192.883 78.5136C192.883 78.2768 192.818 78.0637 192.688 77.8742C192.559 77.6848 192.321 77.4954 191.978 77.3059C191.646 77.1165 191.167 76.9034 190.539 76.6666C189.924 76.4298 189.398 76.193 188.959 75.9562C188.521 75.7194 188.183 75.4352 187.946 75.1037C187.709 74.7722 187.591 74.3459 187.591 73.825C187.591 73.0198 187.918 72.3982 188.569 71.9602C189.232 71.5221 190.095 71.303 191.161 71.303C191.741 71.303 192.281 71.3622 192.778 71.4806C193.287 71.5872 193.76 71.7411 194.198 71.9424L193.666 73.1856C193.263 73.0198 192.843 72.8778 192.405 72.7594C191.966 72.641 191.516 72.5818 191.054 72.5818C190.415 72.5818 189.924 72.6883 189.58 72.9014C189.249 73.1027 189.084 73.381 189.084 73.7362C189.084 73.9966 189.16 74.2216 189.314 74.411C189.468 74.5886 189.722 74.7662 190.077 74.9438C190.444 75.1096 190.93 75.3109 191.534 75.5477C192.138 75.7726 192.653 76.0035 193.079 76.2403C193.505 76.4771 193.831 76.7672 194.056 77.1106C194.281 77.4421 194.394 77.8624 194.394 78.3715ZM199.872 79.8989C200.109 79.8989 200.353 79.8811 200.601 79.8456C200.85 79.7982 201.05 79.7509 201.204 79.7035V80.8934C201.039 80.9763 200.802 81.0414 200.494 81.0888C200.187 81.148 199.89 81.1776 199.606 81.1776C199.109 81.1776 198.648 81.0947 198.222 80.929C197.807 80.7514 197.47 80.4494 197.209 80.0232C196.949 79.597 196.819 78.999 196.819 78.2294V72.6883H195.468V71.9424L196.836 71.3208L197.457 69.2962H198.381V71.4806H201.133V72.6883H198.381V78.1939C198.381 78.7741 198.517 79.2062 198.789 79.4904C199.073 79.7627 199.434 79.8989 199.872 79.8989ZM206.716 71.3208C207.877 71.3208 208.734 71.5754 209.291 72.0845C209.847 72.5936 210.127 73.4046 210.127 74.5176V81H208.989L208.687 79.6502H208.616C208.202 80.1712 207.764 80.556 207.302 80.8046C206.853 81.0533 206.225 81.1776 205.42 81.1776C204.556 81.1776 203.84 80.9526 203.271 80.5027C202.702 80.041 202.418 79.3246 202.418 78.3538C202.418 77.4066 202.791 76.6784 203.537 76.1693C204.284 75.6483 205.431 75.3642 206.982 75.3168L208.599 75.2635V74.6952C208.599 73.9019 208.428 73.3514 208.084 73.0435C207.741 72.7357 207.254 72.5818 206.627 72.5818C206.13 72.5818 205.656 72.6587 205.206 72.8126C204.756 72.9547 204.337 73.1205 203.946 73.3099L203.466 72.1378C203.881 71.9128 204.371 71.7234 204.94 71.5694C205.508 71.4037 206.101 71.3208 206.716 71.3208ZM207.177 76.4002C205.993 76.4475 205.171 76.637 204.709 76.9685C204.259 77.3 204.034 77.7677 204.034 78.3715C204.034 78.9043 204.194 79.295 204.513 79.5437C204.845 79.7923 205.265 79.9166 205.774 79.9166C206.58 79.9166 207.249 79.6976 207.782 79.2595C208.314 78.8096 208.58 78.1229 208.58 77.1994V76.3469L207.177 76.4002ZM216.245 79.8989C216.482 79.8989 216.725 79.8811 216.974 79.8456C217.223 79.7982 217.423 79.7509 217.577 79.7035V80.8934C217.411 80.9763 217.174 81.0414 216.866 81.0888C216.559 81.148 216.263 81.1776 215.978 81.1776C215.481 81.1776 215.02 81.0947 214.593 80.929C214.179 80.7514 213.841 80.4494 213.581 80.0232C213.32 79.597 213.19 78.999 213.19 78.2294V72.6883H211.84V71.9424L213.209 71.3208L213.829 69.2962H214.754V71.4806H217.506V72.6883H214.754V78.1939C214.754 78.7741 214.889 79.2062 215.161 79.4904C215.446 79.7627 215.807 79.8989 216.245 79.8989ZM223.159 71.303C223.976 71.303 224.675 71.4806 225.256 71.8358C225.848 72.191 226.297 72.6942 226.605 73.3454C226.924 73.9848 227.084 74.7366 227.084 75.601V76.5422H220.566C220.59 77.6197 220.862 78.4426 221.383 79.0109C221.916 79.5674 222.656 79.8456 223.603 79.8456C224.207 79.8456 224.74 79.7923 225.202 79.6858C225.675 79.5674 226.161 79.4016 226.659 79.1885V80.556C226.174 80.7691 225.693 80.923 225.219 81.0178C224.746 81.1243 224.183 81.1776 223.532 81.1776C222.632 81.1776 221.833 80.9941 221.135 80.627C220.448 80.26 219.91 79.7154 219.519 78.9931C219.141 78.259 218.95 77.3651 218.95 76.3114C218.95 75.2694 219.122 74.3755 219.465 73.6296C219.82 72.8837 220.312 72.3094 220.939 71.9069C221.579 71.5043 222.319 71.303 223.159 71.303ZM223.142 72.5818C222.396 72.5818 221.805 72.8245 221.366 73.3099C220.939 73.7835 220.686 74.4466 220.603 75.299H225.45C225.438 74.4939 225.249 73.8427 224.882 73.3454C224.516 72.8363 223.936 72.5818 223.142 72.5818Z" fill="black"/>
<path d="M242 53H108V95H242V53Z" stroke="#C91D34" stroke-width="2"/>
<g filter="url(#filter1_d_843_3119)">
<path d="M100.5 33V108" stroke="#29A356" stroke-width="2"/>
</g>
<path d="M69.8122 125.545C68.4506 125.545 67.3791 126.001 66.5977 126.912C65.8162 127.824 65.4255 129.073 65.4255 130.66C65.4255 132.234 65.7866 133.484 66.5089 134.407C67.2429 135.319 68.3381 135.775 69.7945 135.775C70.3509 135.775 70.8778 135.727 71.3751 135.632C71.8724 135.538 72.3578 135.419 72.8314 135.277V136.663C72.3578 136.84 71.8665 136.97 71.3573 137.053C70.8601 137.136 70.2621 137.178 69.5636 137.178C68.273 137.178 67.1956 136.911 66.3313 136.378C65.4669 135.846 64.8157 135.088 64.3777 134.105C63.9514 133.122 63.7383 131.968 63.7383 130.642C63.7383 129.363 63.9692 128.238 64.4309 127.268C64.9045 126.285 65.5972 125.521 66.5089 124.976C67.4205 124.42 68.5276 124.142 69.83 124.142C71.1679 124.142 72.3341 124.39 73.3287 124.888L72.6893 126.237C72.2986 126.06 71.8605 125.9 71.3751 125.758C70.9015 125.616 70.3805 125.545 69.8122 125.545ZM78.9912 127.321C80.1515 127.321 81.0099 127.575 81.5664 128.084C82.1229 128.594 82.4011 129.405 82.4011 130.518V137H81.2645L80.9626 135.65H80.8915C80.4771 136.171 80.0391 136.556 79.5773 136.805C79.1274 137.053 78.4999 137.178 77.6947 137.178C76.8304 137.178 76.1141 136.953 75.5458 136.503C74.9775 136.041 74.6933 135.325 74.6933 134.354C74.6933 133.407 75.0663 132.678 75.8122 132.169C76.5581 131.648 77.7066 131.364 79.2576 131.317L80.8738 131.264V130.695C80.8738 129.902 80.7021 129.351 80.3587 129.044C80.0154 128.736 79.5299 128.582 78.9024 128.582C78.4051 128.582 77.9315 128.659 77.4816 128.813C77.0317 128.955 76.6114 129.12 76.2207 129.31L75.7411 128.138C76.1555 127.913 76.6469 127.723 77.2152 127.569C77.7835 127.404 78.3755 127.321 78.9912 127.321ZM79.453 132.4C78.269 132.448 77.4461 132.637 76.9843 132.968C76.5344 133.3 76.3095 133.768 76.3095 134.372C76.3095 134.904 76.4693 135.295 76.789 135.544C77.1205 135.792 77.5408 135.917 78.0499 135.917C78.8551 135.917 79.524 135.698 80.0568 135.26C80.5896 134.81 80.856 134.123 80.856 133.199V132.347L79.453 132.4ZM88.5203 135.899C88.7571 135.899 88.9998 135.881 89.2485 135.846C89.4971 135.798 89.6984 135.751 89.8523 135.704V136.893C89.6865 136.976 89.4497 137.041 89.1419 137.089C88.8341 137.148 88.5381 137.178 88.2539 137.178C87.7566 137.178 87.2949 137.095 86.8686 136.929C86.4542 136.751 86.1168 136.449 85.8563 136.023C85.5958 135.597 85.4656 134.999 85.4656 134.229V128.688H84.1158V127.942L85.4833 127.321L86.1049 125.296H87.0285V127.481H89.7813V128.688H87.0285V134.194C87.0285 134.774 87.1646 135.206 87.4369 135.49C87.7211 135.763 88.0822 135.899 88.5203 135.899ZM95.4348 127.303C96.2517 127.303 96.9503 127.481 97.5304 127.836C98.1224 128.191 98.5724 128.694 98.8802 129.345C99.1999 129.985 99.3597 130.737 99.3597 131.601V132.542H92.8418C92.8655 133.62 93.1378 134.443 93.6588 135.011C94.1916 135.567 94.9316 135.846 95.8788 135.846C96.4826 135.846 97.0154 135.792 97.4772 135.686C97.9508 135.567 98.4362 135.402 98.9335 135.188V136.556C98.448 136.769 97.9685 136.923 97.4949 137.018C97.0213 137.124 96.4589 137.178 95.8077 137.178C94.9079 137.178 94.1087 136.994 93.4101 136.627C92.7234 136.26 92.1847 135.715 91.794 134.993C91.4151 134.259 91.2256 133.365 91.2256 132.311C91.2256 131.269 91.3973 130.376 91.7407 129.63C92.0959 128.884 92.5872 128.309 93.2148 127.907C93.8541 127.504 94.5941 127.303 95.4348 127.303ZM95.417 128.582C94.6711 128.582 94.0791 128.824 93.641 129.31C93.2148 129.784 92.9602 130.447 92.8773 131.299H97.7258C97.714 130.494 97.5245 129.843 97.1575 129.345C96.7904 128.836 96.2103 128.582 95.417 128.582ZM105.158 127.303C105.785 127.303 106.347 127.421 106.845 127.658C107.354 127.895 107.786 128.256 108.141 128.742H108.23L108.443 127.481H109.686V137.16C109.686 138.521 109.337 139.546 108.638 140.232C107.952 140.919 106.88 141.262 105.424 141.262C104.027 141.262 102.884 141.061 101.996 140.659V139.22C102.932 139.717 104.104 139.966 105.513 139.966C106.33 139.966 106.969 139.723 107.431 139.238C107.904 138.764 108.141 138.113 108.141 137.284V136.911C108.141 136.769 108.147 136.568 108.159 136.307C108.171 136.035 108.183 135.846 108.194 135.739H108.123C107.484 136.698 106.501 137.178 105.175 137.178C103.944 137.178 102.979 136.745 102.28 135.881C101.594 135.017 101.25 133.809 101.25 132.258C101.25 130.743 101.594 129.541 102.28 128.653C102.979 127.753 103.938 127.303 105.158 127.303ZM105.371 128.617C104.577 128.617 103.962 128.937 103.524 129.576C103.086 130.204 102.866 131.104 102.866 132.276C102.866 133.448 103.08 134.348 103.506 134.975C103.944 135.591 104.577 135.899 105.406 135.899C106.365 135.899 107.064 135.644 107.502 135.135C107.94 134.614 108.159 133.78 108.159 132.631V132.258C108.159 130.956 107.934 130.026 107.484 129.47C107.034 128.901 106.33 128.617 105.371 128.617ZM120.986 132.223C120.986 133.797 120.583 135.017 119.778 135.881C118.985 136.745 117.907 137.178 116.546 137.178C115.705 137.178 114.953 136.988 114.29 136.609C113.639 136.219 113.124 135.656 112.745 134.922C112.366 134.176 112.177 133.276 112.177 132.223C112.177 130.648 112.574 129.434 113.367 128.582C114.16 127.729 115.238 127.303 116.599 127.303C117.463 127.303 118.221 127.498 118.872 127.889C119.535 128.268 120.05 128.824 120.418 129.559C120.796 130.281 120.986 131.169 120.986 132.223ZM113.793 132.223C113.793 133.347 114.012 134.241 114.45 134.904C114.9 135.556 115.61 135.881 116.581 135.881C117.54 135.881 118.245 135.556 118.695 134.904C119.145 134.241 119.37 133.347 119.37 132.223C119.37 131.098 119.145 130.216 118.695 129.576C118.245 128.937 117.534 128.617 116.564 128.617C115.593 128.617 114.888 128.937 114.45 129.576C114.012 130.216 113.793 131.098 113.793 132.223ZM127.903 127.303C128.08 127.303 128.27 127.315 128.471 127.339C128.684 127.35 128.868 127.374 129.022 127.41L128.826 128.848C128.672 128.813 128.501 128.783 128.311 128.759C128.134 128.736 127.962 128.724 127.796 128.724C127.311 128.724 126.855 128.86 126.429 129.132C126.002 129.393 125.659 129.766 125.399 130.251C125.15 130.725 125.026 131.281 125.026 131.921V137H123.463V127.481H124.742L124.919 129.221H124.99C125.298 128.7 125.695 128.25 126.18 127.871C126.666 127.492 127.24 127.303 127.903 127.303ZM129.307 127.481H130.977L133.037 132.897C133.215 133.371 133.374 133.827 133.517 134.265C133.659 134.691 133.765 135.1 133.836 135.49H133.907C133.978 135.194 134.091 134.81 134.245 134.336C134.399 133.851 134.558 133.365 134.724 132.88L136.66 127.481H138.347L134.245 138.314C133.913 139.214 133.481 139.93 132.948 140.463C132.427 140.996 131.705 141.262 130.781 141.262C130.497 141.262 130.249 141.245 130.036 141.209C129.822 141.185 129.639 141.156 129.485 141.12V139.877C129.615 139.901 129.769 139.924 129.947 139.948C130.136 139.972 130.332 139.984 130.533 139.984C131.077 139.984 131.516 139.83 131.847 139.522C132.19 139.214 132.457 138.806 132.646 138.296L133.144 137.036L129.307 127.481ZM59.7578 158.134C59.7578 156.689 59.965 155.298 60.3794 153.96C60.8057 152.61 61.4687 151.397 62.3686 150.319H63.8426C63.0138 151.432 62.3863 152.658 61.9601 153.996C61.5457 155.334 61.3385 156.707 61.3385 158.116C61.3385 159.489 61.5457 160.839 61.9601 162.165C62.3863 163.48 63.0079 164.693 63.8249 165.806H62.3686C61.4687 164.764 60.8057 163.586 60.3794 162.272C59.965 160.946 59.7578 159.566 59.7578 158.134ZM69.4513 150.319C71.1089 150.319 72.3166 150.645 73.0744 151.296C73.8321 151.947 74.211 152.865 74.211 154.049C74.211 154.748 74.0512 155.405 73.7315 156.02C73.4236 156.624 72.8968 157.116 72.1508 157.494C71.4168 157.873 70.4163 158.063 69.1494 158.063H67.6931V163H66.0947V150.319H69.4513ZM69.3092 151.687H67.6931V156.695H68.9718C70.1795 156.695 71.0793 156.5 71.6713 156.109C72.2633 155.718 72.5593 155.055 72.5593 154.12C72.5593 153.303 72.2988 152.693 71.7779 152.291C71.2569 151.888 70.434 151.687 69.3092 151.687ZM81.0747 153.303C81.2523 153.303 81.4417 153.315 81.643 153.339C81.8561 153.35 82.0397 153.374 82.1936 153.41L81.9982 154.848C81.8443 154.813 81.6726 154.783 81.4832 154.759C81.3056 154.736 81.1339 154.724 80.9681 154.724C80.4827 154.724 80.0269 154.86 79.6006 155.132C79.1744 155.393 78.831 155.766 78.5705 156.251C78.3219 156.725 78.1976 157.281 78.1976 157.921V163H76.6347V153.481H77.9134L78.091 155.221H78.1621C78.4699 154.7 78.8665 154.25 79.352 153.871C79.8374 153.492 80.4117 153.303 81.0747 153.303ZM91.9004 158.223C91.9004 159.797 91.4978 161.017 90.6927 161.881C89.8994 162.745 88.822 163.178 87.4604 163.178C86.6197 163.178 85.8679 162.988 85.2049 162.609C84.5537 162.219 84.0386 161.656 83.6597 160.922C83.2809 160.176 83.0914 159.276 83.0914 158.223C83.0914 156.648 83.4881 155.434 84.2813 154.582C85.0746 153.729 86.1521 153.303 87.5137 153.303C88.378 153.303 89.1357 153.498 89.7869 153.889C90.45 154.268 90.965 154.824 91.3321 155.559C91.7109 156.281 91.9004 157.169 91.9004 158.223ZM84.7076 158.223C84.7076 159.347 84.9266 160.241 85.3647 160.904C85.8146 161.556 86.525 161.881 87.4959 161.881C88.4549 161.881 89.1594 161.556 89.6093 160.904C90.0593 160.241 90.2842 159.347 90.2842 158.223C90.2842 157.098 90.0593 156.216 89.6093 155.576C89.1594 154.937 88.449 154.617 87.4781 154.617C86.5073 154.617 85.8028 154.937 85.3647 155.576C84.9266 156.216 84.7076 157.098 84.7076 158.223ZM98.9061 153.303C100.078 153.303 101.02 153.712 101.73 154.528C102.452 155.345 102.813 156.577 102.813 158.223C102.813 159.845 102.452 161.076 101.73 161.917C101.02 162.757 100.072 163.178 98.8884 163.178C98.1543 163.178 97.5445 163.041 97.0591 162.769C96.5855 162.485 96.2125 162.159 95.9402 161.792H95.8337C95.8573 161.994 95.881 162.248 95.9047 162.556C95.9284 162.864 95.9402 163.13 95.9402 163.355V167.262H94.3773V153.481H95.6561L95.8692 154.777H95.9402C96.2244 154.363 96.5973 154.013 97.0591 153.729C97.5209 153.445 98.1365 153.303 98.9061 153.303ZM98.622 154.617C97.6511 154.617 96.9644 154.89 96.5618 155.434C96.1711 155.979 95.9639 156.808 95.9402 157.921V158.223C95.9402 159.395 96.1297 160.3 96.5085 160.94C96.8993 161.567 97.6156 161.881 98.6575 161.881C99.2377 161.881 99.7113 161.721 100.078 161.402C100.457 161.082 100.735 160.65 100.913 160.105C101.102 159.549 101.197 158.915 101.197 158.205C101.197 157.116 100.984 156.245 100.558 155.594C100.143 154.943 99.4981 154.617 98.622 154.617ZM108.98 153.303C109.797 153.303 110.496 153.481 111.076 153.836C111.668 154.191 112.118 154.694 112.426 155.345C112.745 155.985 112.905 156.737 112.905 157.601V158.542H106.387C106.411 159.62 106.683 160.443 107.204 161.011C107.737 161.567 108.477 161.846 109.424 161.846C110.028 161.846 110.561 161.792 111.023 161.686C111.496 161.567 111.982 161.402 112.479 161.188V162.556C111.994 162.769 111.514 162.923 111.04 163.018C110.567 163.124 110.004 163.178 109.353 163.178C108.453 163.178 107.654 162.994 106.956 162.627C106.269 162.26 105.73 161.715 105.339 160.993C104.961 160.259 104.771 159.365 104.771 158.311C104.771 157.269 104.943 156.376 105.286 155.63C105.641 154.884 106.133 154.309 106.76 153.907C107.4 153.504 108.14 153.303 108.98 153.303ZM108.962 154.582C108.217 154.582 107.625 154.824 107.186 155.31C106.76 155.784 106.506 156.447 106.423 157.299H111.271C111.259 156.494 111.07 155.843 110.703 155.345C110.336 154.836 109.756 154.582 108.962 154.582ZM119.769 153.303C119.946 153.303 120.136 153.315 120.337 153.339C120.55 153.35 120.734 153.374 120.887 153.41L120.692 154.848C120.538 154.813 120.367 154.783 120.177 154.759C119.999 154.736 119.828 154.724 119.662 154.724C119.177 154.724 118.721 154.86 118.295 155.132C117.868 155.393 117.525 155.766 117.264 156.251C117.016 156.725 116.891 157.281 116.891 157.921V163H115.329V153.481H116.607L116.785 155.221H116.856C117.164 154.7 117.56 154.25 118.046 153.871C118.531 153.492 119.106 153.303 119.769 153.303ZM125.844 161.899C126.081 161.899 126.324 161.881 126.572 161.846C126.821 161.798 127.022 161.751 127.176 161.704V162.893C127.01 162.976 126.773 163.041 126.466 163.089C126.158 163.148 125.862 163.178 125.578 163.178C125.08 163.178 124.619 163.095 124.192 162.929C123.778 162.751 123.441 162.449 123.18 162.023C122.92 161.597 122.789 160.999 122.789 160.229V154.688H121.44V153.942L122.807 153.321L123.429 151.296H124.352V153.481H127.105V154.688H124.352V160.194C124.352 160.774 124.488 161.206 124.761 161.49C125.045 161.763 125.406 161.899 125.844 161.899ZM127.59 153.481H129.26L131.32 158.897C131.498 159.371 131.657 159.827 131.799 160.265C131.942 160.691 132.048 161.1 132.119 161.49H132.19C132.261 161.194 132.374 160.81 132.528 160.336C132.682 159.851 132.841 159.365 133.007 158.88L134.943 153.481H136.63L132.528 164.314C132.196 165.214 131.764 165.93 131.231 166.463C130.71 166.996 129.988 167.262 129.064 167.262C128.78 167.262 128.532 167.245 128.319 167.209C128.105 167.185 127.922 167.156 127.768 167.12V165.877C127.898 165.901 128.052 165.924 128.23 165.948C128.419 165.972 128.615 165.984 128.816 165.984C129.36 165.984 129.799 165.83 130.13 165.522C130.473 165.214 130.74 164.806 130.929 164.296L131.427 163.036L127.59 153.481ZM141.244 158.134C141.244 159.566 141.031 160.946 140.604 162.272C140.19 163.586 139.533 164.764 138.633 165.806H137.177C137.994 164.693 138.609 163.48 139.024 162.165C139.45 160.839 139.663 159.489 139.663 158.116C139.663 156.707 139.45 155.334 139.024 153.996C138.609 152.658 137.988 151.432 137.159 150.319H138.633C139.533 151.397 140.19 152.61 140.604 153.96C141.031 155.298 141.244 156.689 141.244 158.134Z" fill="black"/>
<path d="M156 109H45V177H156V109Z" stroke="#29A356" stroke-width="2"/>
<g filter="url(#filter2_d_843_3119)">
<path d="M39 33V52" stroke="#666666" stroke-width="2"/>
</g>
<path d="M20.2278 68.3194C21.8854 68.3194 23.093 68.645 23.8508 69.2962C24.6086 69.9474 24.9874 70.865 24.9874 72.049C24.9874 72.7475 24.8276 73.4046 24.5079 74.0203C24.2001 74.6242 23.6732 75.1155 22.9273 75.4944C22.1932 75.8733 21.1927 76.0627 19.9258 76.0627H18.4695V81H16.8711V68.3194H20.2278ZM20.0857 69.6869H18.4695V74.6952H19.7482C20.9559 74.6952 21.8558 74.4998 22.4478 74.1091C23.0398 73.7184 23.3358 73.0554 23.3358 72.12C23.3358 71.303 23.0753 70.6933 22.5543 70.2907C22.0334 69.8882 21.2105 69.6869 20.0857 69.6869ZM31.8511 71.303C32.0287 71.303 32.2182 71.3149 32.4194 71.3386C32.6326 71.3504 32.8161 71.3741 32.97 71.4096L32.7746 72.8482C32.6207 72.8126 32.449 72.783 32.2596 72.7594C32.082 72.7357 31.9103 72.7238 31.7446 72.7238C31.2591 72.7238 30.8033 72.86 30.377 73.1323C29.9508 73.3928 29.6074 73.7658 29.347 74.2512C29.0983 74.7248 28.974 75.2813 28.974 75.9206V81H27.4111V71.4806H28.6898L28.8674 73.2211H28.9385C29.2463 72.7002 29.643 72.2502 30.1284 71.8714C30.6138 71.4925 31.1881 71.303 31.8511 71.303ZM38.077 71.303C38.8939 71.303 39.5925 71.4806 40.1727 71.8358C40.7647 72.191 41.2146 72.6942 41.5224 73.3454C41.8421 73.9848 42.0019 74.7366 42.0019 75.601V76.5422H35.484C35.5077 77.6197 35.78 78.4426 36.301 79.0109C36.8338 79.5674 37.5738 79.8456 38.521 79.8456C39.1248 79.8456 39.6576 79.7923 40.1194 79.6858C40.593 79.5674 41.0784 79.4016 41.5757 79.1885V80.556C41.0903 80.7691 40.6107 80.923 40.1371 81.0178C39.6635 81.1243 39.1011 81.1776 38.4499 81.1776C37.5501 81.1776 36.7509 80.9941 36.0523 80.627C35.3656 80.26 34.8269 79.7154 34.4362 78.9931C34.0573 78.259 33.8679 77.3651 33.8679 76.3114C33.8679 75.2694 34.0395 74.3755 34.3829 73.6296C34.7381 72.8837 35.2295 72.3094 35.857 71.9069C36.4963 71.5043 37.2363 71.303 38.077 71.303ZM38.0592 72.5818C37.3133 72.5818 36.7213 72.8245 36.2832 73.3099C35.857 73.7835 35.6024 74.4466 35.5195 75.299H40.368C40.3562 74.4939 40.1667 73.8427 39.7997 73.3454C39.4327 72.8363 38.8525 72.5818 38.0592 72.5818ZM48.8121 72.6883H46.4145V81H44.8516V72.6883H43.1821V71.9602L44.8516 71.4274V70.8768C44.8516 69.6454 45.1239 68.7634 45.6685 68.2306C46.2132 67.6859 46.9709 67.4136 47.9418 67.4136C48.3207 67.4136 48.6641 67.4491 48.9719 67.5202C49.2916 67.5794 49.5639 67.6504 49.7889 67.7333L49.3804 68.9587C49.1909 68.8995 48.9719 68.8403 48.7233 68.7811C48.4746 68.7219 48.2201 68.6923 47.9596 68.6923C47.4386 68.6923 47.0479 68.8699 46.7874 69.2251C46.5388 69.5685 46.4145 70.1131 46.4145 70.859V71.4806H48.8121V72.6883ZM51.334 67.9109C51.5708 67.9109 51.778 67.9938 51.9556 68.1595C52.145 68.3134 52.2397 68.5621 52.2397 68.9054C52.2397 69.237 52.145 69.4856 51.9556 69.6514C51.778 69.8171 51.5708 69.9 51.334 69.9C51.0735 69.9 50.8545 69.8171 50.6769 69.6514C50.4993 69.4856 50.4105 69.237 50.4105 68.9054C50.4105 68.5621 50.4993 68.3134 50.6769 68.1595C50.8545 67.9938 51.0735 67.9109 51.334 67.9109ZM52.0977 71.4806V81H50.5348V71.4806H52.0977ZM57.3646 76.1338L54.079 71.4806H55.855L58.3059 75.0682L60.739 71.4806H62.4973L59.2116 76.1338L62.6749 81H60.8988L58.3059 77.1994L55.6774 81H53.9192L57.3646 76.1338Z" fill="black"/>
<path d="M77 53H1V95H77V53Z" stroke="#666666" stroke-width="2"/>
</g>
<defs>
<filter id="filter0_d_843_3119" x="174" y="33" width="4" height="19" filterUnits="userSpaceOnUse" color-interpolation-filters="sRGB">
<feFlood flood-opacity="0" result="BackgroundImageFix"/>
<feColorMatrix in="SourceAlpha" type="matrix" values="0 0 0 0 0 0 0 0 0 0 0 0 0 0 0 0 0 0 127 0" result="hardAlpha"/>
<feOffset dx="2"/>
<feComposite in2="hardAlpha" operator="out"/>
<feColorMatrix type="matrix" values="0 0 0 0 1 0 0 0 0 1 0 0 0 0 1 0 0 0 1 0"/>
<feBlend mode="normal" in2="BackgroundImageFix" result="effect1_dropShadow_843_3119"/>
<feBlend mode="normal" in="SourceGraphic" in2="effect1_dropShadow_843_3119" result="shape"/>
</filter>
<filter id="filter1_d_843_3119" x="99.5" y="33" width="4" height="75" filterUnits="userSpaceOnUse" color-interpolation-filters="sRGB">
<feFlood flood-opacity="0" result="BackgroundImageFix"/>
<feColorMatrix in="SourceAlpha" type="matrix" values="0 0 0 0 0 0 0 0 0 0 0 0 0 0 0 0 0 0 127 0" result="hardAlpha"/>
<feOffset dx="2"/>
<feComposite in2="hardAlpha" operator="out"/>
<feColorMatrix type="matrix" values="0 0 0 0 1 0 0 0 0 1 0 0 0 0 1 0 0 0 1 0"/>
<feBlend mode="normal" in2="BackgroundImageFix" result="effect1_dropShadow_843_3119"/>
<feBlend mode="normal" in="SourceGraphic" in2="effect1_dropShadow_843_3119" result="shape"/>
</filter>
<filter id="filter2_d_843_3119" x="38" y="33" width="4" height="19" filterUnits="userSpaceOnUse" color-interpolation-filters="sRGB">
<feFlood flood-opacity="0" result="BackgroundImageFix"/>
<feColorMatrix in="SourceAlpha" type="matrix" values="0 0 0 0 0 0 0 0 0 0 0 0 0 0 0 0 0 0 127 0" result="hardAlpha"/>
<feOffset dx="2"/>
<feComposite in2="hardAlpha" operator="out"/>
<feColorMatrix type="matrix" values="0 0 0 0 1 0 0 0 0 1 0 0 0 0 1 0 0 0 1 0"/>
<feBlend mode="normal" in2="BackgroundImageFix" result="effect1_dropShadow_843_3119"/>
<feBlend mode="normal" in="SourceGraphic" in2="effect1_dropShadow_843_3119" result="shape"/>
</filter>
<clipPath id="clip0_843_3119">
<rect width="243" height="178" fill="white"/>
</clipPath>
</defs>
</svg>
