<svg width="245" height="178" viewBox="0 0 245 178" fill="none" xmlns="http://www.w3.org/2000/svg">
<g clip-path="url(#clip0_843_2995)">
<path d="M0.800781 19.42V17.86H5.64078V19.42H0.800781ZM7.24609 19.42V17.86H12.0861V19.42H7.24609Z" fill="black"/>
<path d="M16 0H66V33H16V0Z" fill="#E6E6E6"/>
<path d="M24.5016 13.08C25.2083 13.08 25.8416 13.2133 26.4016 13.48C26.9749 13.7467 27.4616 14.1533 27.8616 14.7H27.9616L28.2016 13.28H29.6016V24.18C29.6016 25.7133 29.2083 26.8667 28.4216 27.64C27.6483 28.4133 26.4416 28.8 24.8016 28.8C23.2283 28.8 21.9416 28.5733 20.9416 28.12V26.5C21.9949 27.06 23.3149 27.34 24.9016 27.34C25.8216 27.34 26.5416 27.0667 27.0616 26.5201C27.5949 25.9867 27.8616 25.2533 27.8616 24.32V23.9C27.8616 23.74 27.8683 23.5133 27.8816 23.22C27.8949 22.9133 27.9083 22.7 27.9216 22.58H27.8416C27.1216 23.66 26.0149 24.2 24.5216 24.2C23.1349 24.2 22.0483 23.7133 21.2616 22.74C20.4883 21.7667 20.1016 20.4067 20.1016 18.66C20.1016 16.9533 20.4883 15.6 21.2616 14.6C22.0483 13.5867 23.1283 13.08 24.5016 13.08ZM24.7416 14.56C23.8483 14.56 23.1549 14.92 22.6616 15.64C22.1683 16.3467 21.9216 17.36 21.9216 18.68C21.9216 20 22.1616 21.0133 22.6416 21.72C23.1349 22.4133 23.8483 22.76 24.7816 22.76C25.8616 22.76 26.6483 22.4733 27.1416 21.9C27.6349 21.3133 27.8816 20.3733 27.8816 19.08V18.66C27.8816 17.1933 27.6283 16.1467 27.1216 15.52C26.6149 14.88 25.8216 14.56 24.7416 14.56ZM37.3063 24.2C36.3596 24.2 35.513 24.0067 34.7663 23.62C34.033 23.2333 33.453 22.6333 33.0263 21.82C32.613 21.0067 32.4063 19.9667 32.4063 18.7C32.4063 17.38 32.6263 16.3067 33.0663 15.48C33.5063 14.6533 34.0996 14.0467 34.8463 13.66C35.6063 13.2733 36.4663 13.08 37.4263 13.08C37.973 13.08 38.4996 13.14 39.0063 13.26C39.513 13.3667 39.9263 13.5 40.2463 13.66L39.7063 15.12C39.3863 15 39.013 14.8867 38.5863 14.78C38.1596 14.6733 37.7596 14.62 37.3863 14.62C35.2796 14.62 34.2263 15.9733 34.2263 18.68C34.2263 19.9733 34.4796 20.9667 34.9863 21.66C35.5063 22.34 36.273 22.68 37.2863 22.68C37.873 22.68 38.3863 22.62 38.8263 22.5C39.2796 22.38 39.693 22.2333 40.0663 22.06V23.62C39.7063 23.8067 39.3063 23.9467 38.8663 24.04C38.4396 24.1467 37.9196 24.2 37.3063 24.2ZM46.4157 24.2C45.0823 24.2 44.0157 23.74 43.2157 22.82C42.4157 21.8867 42.0157 20.5 42.0157 18.66C42.0157 16.82 42.4157 15.4333 43.2157 14.5C44.029 13.5533 45.1023 13.08 46.4357 13.08C47.2623 13.08 47.9357 13.2333 48.4557 13.54C48.989 13.8467 49.4223 14.22 49.7557 14.66H49.8757C49.8623 14.4867 49.8357 14.2333 49.7957 13.9C49.769 13.5533 49.7557 13.28 49.7557 13.08V8.80005H51.5157V24H50.0957L49.8357 22.56H49.7557C49.4357 23.0133 49.009 23.4 48.4757 23.72C47.9423 24.04 47.2557 24.2 46.4157 24.2ZM46.6957 22.74C47.829 22.74 48.6223 22.4333 49.0757 21.82C49.5423 21.1933 49.7757 20.2533 49.7757 19V18.68C49.7757 17.3467 49.5557 16.3267 49.1157 15.62C48.6757 14.9 47.8623 14.54 46.6757 14.54C45.729 14.54 45.0157 14.92 44.5357 15.68C44.069 16.4267 43.8357 17.4333 43.8357 18.7C43.8357 19.98 44.069 20.9733 44.5357 21.68C45.0157 22.3867 45.7357 22.74 46.6957 22.74ZM61.9004 21.04C61.9004 22.08 61.5137 22.8667 60.7404 23.4C59.967 23.9333 58.927 24.2 57.6204 24.2C56.8737 24.2 56.227 24.14 55.6804 24.02C55.147 23.9 54.6737 23.7333 54.2604 23.52V21.92C54.687 22.1333 55.2004 22.3333 55.8004 22.52C56.4137 22.6933 57.0337 22.78 57.6604 22.78C58.5537 22.78 59.2004 22.64 59.6004 22.36C60.0004 22.0667 60.2004 21.68 60.2004 21.2C60.2004 20.9333 60.127 20.6933 59.9804 20.48C59.8337 20.2667 59.567 20.0533 59.1804 19.84C58.807 19.6267 58.267 19.3867 57.5604 19.12C56.867 18.8533 56.2737 18.5867 55.7804 18.32C55.287 18.0533 54.907 17.7333 54.6404 17.36C54.3737 16.9867 54.2404 16.5067 54.2404 15.92C54.2404 15.0133 54.607 14.3133 55.3404 13.82C56.087 13.3267 57.0604 13.08 58.2604 13.08C58.9137 13.08 59.5204 13.1467 60.0804 13.28C60.6537 13.4 61.187 13.5733 61.6804 13.8L61.0804 15.2C60.627 15.0133 60.1537 14.8533 59.6604 14.72C59.167 14.5867 58.6604 14.52 58.1404 14.52C57.4204 14.52 56.867 14.64 56.4804 14.88C56.107 15.1067 55.9204 15.42 55.9204 15.82C55.9204 16.1133 56.007 16.3667 56.1804 16.58C56.3537 16.78 56.6404 16.98 57.0404 17.18C57.4537 17.3667 58.0004 17.5933 58.6804 17.86C59.3604 18.1133 59.9404 18.3733 60.4204 18.64C60.9004 18.9067 61.267 19.2333 61.5204 19.62C61.7737 19.9933 61.9004 20.4667 61.9004 21.04Z" fill="black"/>
<mask id="mask0_843_2995" style="mask-type:luminance" maskUnits="userSpaceOnUse" x="16" y="0" width="50" height="33">
<path d="M16 0H66V33H16V0Z" fill="white"/>
</mask>
<g mask="url(#mask0_843_2995)">
<path d="M66 31H16V35H66V31Z" fill="#666666"/>
</g>
<path d="M69.8008 19.42V17.86H74.6408V19.42H69.8008Z" fill="black"/>
<path d="M79 0H174V33H79V0Z" fill="#D6F5E1"/>
<path d="M87.5016 13.08C88.2083 13.08 88.8416 13.2133 89.4016 13.48C89.9749 13.7467 90.4616 14.1533 90.8616 14.7H90.9616L91.2016 13.28H92.6016V24.18C92.6016 25.7133 92.2083 26.8667 91.4216 27.64C90.6483 28.4133 89.4416 28.8 87.8016 28.8C86.2283 28.8 84.9416 28.5733 83.9416 28.12V26.5C84.9949 27.06 86.3149 27.34 87.9016 27.34C88.8216 27.34 89.5416 27.0667 90.0616 26.5201C90.5949 25.9867 90.8616 25.2533 90.8616 24.32V23.9C90.8616 23.74 90.8683 23.5133 90.8816 23.22C90.8949 22.9133 90.9083 22.7 90.9216 22.58H90.8416C90.1216 23.66 89.0149 24.2 87.5216 24.2C86.1349 24.2 85.0483 23.7133 84.2616 22.74C83.4883 21.7667 83.1016 20.4067 83.1016 18.66C83.1016 16.9533 83.4883 15.6 84.2616 14.6C85.0483 13.5867 86.1283 13.08 87.5016 13.08ZM87.7416 14.56C86.8483 14.56 86.1549 14.92 85.6616 15.64C85.1683 16.3467 84.9216 17.36 84.9216 18.68C84.9216 20 85.1616 21.0133 85.6416 21.72C86.1349 22.4133 86.8483 22.76 87.7816 22.76C88.8616 22.76 89.6483 22.4733 90.1416 21.9C90.6349 21.3133 90.8816 20.3733 90.8816 19.08V18.66C90.8816 17.1933 90.6283 16.1467 90.1216 15.52C89.6149 14.88 88.8216 14.56 87.7416 14.56ZM101.007 13.08C101.207 13.08 101.42 13.0933 101.647 13.12C101.887 13.1333 102.093 13.16 102.267 13.2L102.047 14.82C101.873 14.78 101.68 14.7467 101.467 14.72C101.267 14.6933 101.073 14.68 100.887 14.68C100.34 14.68 99.8263 14.8333 99.3463 15.14C98.8663 15.4333 98.4796 15.8533 98.1863 16.4C97.9063 16.9333 97.7663 17.56 97.7663 18.28V24H96.0063V13.28H97.4463L97.6463 15.24H97.7263C98.073 14.6533 98.5196 14.1467 99.0663 13.72C99.613 13.2933 100.26 13.08 101.007 13.08ZM107.938 13.1C109.244 13.1 110.211 13.3867 110.838 13.96C111.464 14.5333 111.778 15.4467 111.778 16.7V24H110.498L110.158 22.48H110.078C109.611 23.0667 109.118 23.5 108.598 23.78C108.091 24.06 107.384 24.2 106.478 24.2C105.504 24.2 104.698 23.9467 104.058 23.44C103.418 22.92 103.098 22.1133 103.098 21.02C103.098 19.9533 103.518 19.1333 104.358 18.56C105.198 17.9733 106.491 17.6533 108.238 17.6L110.058 17.54V16.9C110.058 16.0067 109.864 15.3867 109.478 15.04C109.091 14.6933 108.544 14.52 107.838 14.52C107.278 14.52 106.744 14.6067 106.238 14.78C105.731 14.94 105.258 15.1267 104.818 15.34L104.278 14.02C104.744 13.7667 105.298 13.5533 105.938 13.38C106.578 13.1933 107.244 13.1 107.938 13.1ZM108.458 18.82C107.124 18.8733 106.198 19.0867 105.678 19.46C105.171 19.8333 104.918 20.36 104.918 21.04C104.918 21.64 105.098 22.08 105.458 22.36C105.831 22.64 106.304 22.78 106.878 22.78C107.784 22.78 108.538 22.5333 109.138 22.04C109.738 21.5333 110.038 20.76 110.038 19.72V18.76L108.458 18.82ZM113.409 13.28H115.289L117.609 19.38C117.809 19.9133 117.989 20.4267 118.149 20.92C118.309 21.4 118.429 21.86 118.509 22.3H118.589C118.669 21.9667 118.795 21.5333 118.969 21C119.142 20.4533 119.322 19.9067 119.509 19.36L121.689 13.28H123.589L118.969 25.48C118.595 26.4933 118.109 27.3 117.509 27.9C116.922 28.5 116.109 28.8 115.069 28.8C114.749 28.8 114.469 28.78 114.229 28.74C113.989 28.7133 113.782 28.68 113.609 28.64V27.24C113.755 27.2667 113.929 27.2934 114.129 27.32C114.342 27.3467 114.562 27.3601 114.789 27.3601C115.402 27.3601 115.895 27.1868 116.269 26.84C116.655 26.4933 116.955 26.0333 117.169 25.46L117.729 24.04L113.409 13.28ZM132.264 21.04C132.264 22.08 131.877 22.8667 131.104 23.4C130.331 23.9333 129.291 24.2 127.984 24.2C127.237 24.2 126.591 24.14 126.044 24.02C125.511 23.9 125.037 23.7333 124.624 23.52V21.92C125.051 22.1333 125.564 22.3333 126.164 22.52C126.777 22.6933 127.397 22.78 128.024 22.78C128.917 22.78 129.564 22.64 129.964 22.36C130.364 22.0667 130.564 21.68 130.564 21.2C130.564 20.9333 130.491 20.6933 130.344 20.48C130.197 20.2667 129.931 20.0533 129.544 19.84C129.171 19.6267 128.631 19.3867 127.924 19.12C127.231 18.8533 126.637 18.5867 126.144 18.32C125.651 18.0533 125.271 17.7333 125.004 17.36C124.737 16.9867 124.604 16.5067 124.604 15.92C124.604 15.0133 124.971 14.3133 125.704 13.82C126.451 13.3267 127.424 13.08 128.624 13.08C129.277 13.08 129.884 13.1467 130.444 13.28C131.017 13.4 131.551 13.5733 132.044 13.8L131.444 15.2C130.991 15.0133 130.517 14.8533 130.024 14.72C129.531 14.5867 129.024 14.52 128.504 14.52C127.784 14.52 127.231 14.64 126.844 14.88C126.471 15.1067 126.284 15.42 126.284 15.82C126.284 16.1133 126.371 16.3667 126.544 16.58C126.717 16.78 127.004 16.98 127.404 17.18C127.817 17.3667 128.364 17.5933 129.044 17.86C129.724 18.1133 130.304 18.3733 130.784 18.64C131.264 18.9067 131.631 19.2333 131.884 19.62C132.137 19.9933 132.264 20.4667 132.264 21.04ZM139.154 24.2C138.208 24.2 137.361 24.0067 136.614 23.62C135.881 23.2333 135.301 22.6333 134.874 21.82C134.461 21.0067 134.254 19.9667 134.254 18.7C134.254 17.38 134.474 16.3067 134.914 15.48C135.354 14.6533 135.948 14.0467 136.694 13.66C137.454 13.2733 138.314 13.08 139.274 13.08C139.821 13.08 140.348 13.14 140.854 13.26C141.361 13.3667 141.774 13.5 142.094 13.66L141.554 15.12C141.234 15 140.861 14.8867 140.434 14.78C140.008 14.6733 139.608 14.62 139.234 14.62C137.128 14.62 136.074 15.9733 136.074 18.68C136.074 19.9733 136.328 20.9667 136.834 21.66C137.354 22.34 138.121 22.68 139.134 22.68C139.721 22.68 140.234 22.62 140.674 22.5C141.128 22.38 141.541 22.2333 141.914 22.06V23.62C141.554 23.8067 141.154 23.9467 140.714 24.04C140.288 24.1467 139.768 24.2 139.154 24.2ZM148.524 13.1C149.83 13.1 150.797 13.3867 151.424 13.96C152.05 14.5333 152.364 15.4467 152.364 16.7V24H151.084L150.744 22.48H150.664C150.197 23.0667 149.704 23.5 149.184 23.78C148.677 24.06 147.97 24.2 147.064 24.2C146.09 24.2 145.284 23.9467 144.644 23.44C144.004 22.92 143.684 22.1133 143.684 21.02C143.684 19.9533 144.104 19.1333 144.944 18.56C145.784 17.9733 147.077 17.6533 148.824 17.6L150.644 17.54V16.9C150.644 16.0067 150.45 15.3867 150.064 15.04C149.677 14.6933 149.13 14.52 148.424 14.52C147.864 14.52 147.33 14.6067 146.824 14.78C146.317 14.94 145.844 15.1267 145.404 15.34L144.864 14.02C145.33 13.7667 145.884 13.5533 146.524 13.38C147.164 13.1933 147.83 13.1 148.524 13.1ZM149.044 18.82C147.71 18.8733 146.784 19.0867 146.264 19.46C145.757 19.8333 145.504 20.36 145.504 21.04C145.504 21.64 145.684 22.08 146.044 22.36C146.417 22.64 146.89 22.78 147.464 22.78C148.37 22.78 149.124 22.5333 149.724 22.04C150.324 21.5333 150.624 20.76 150.624 19.72V18.76L149.044 18.82ZM157.435 24H155.675V8.80005H157.435V24ZM164.971 13.08C165.891 13.08 166.678 13.28 167.331 13.68C167.998 14.08 168.504 14.6467 168.851 15.38C169.211 16.1 169.391 16.9467 169.391 17.92V18.98H162.051C162.078 20.1933 162.384 21.12 162.971 21.76C163.571 22.3867 164.404 22.7 165.471 22.7C166.151 22.7 166.751 22.64 167.271 22.52C167.804 22.3867 168.351 22.2 168.911 21.96V23.5C168.364 23.74 167.824 23.9133 167.291 24.02C166.758 24.14 166.124 24.2 165.391 24.2C164.378 24.2 163.478 23.9933 162.691 23.58C161.918 23.1667 161.311 22.5533 160.871 21.74C160.444 20.9133 160.231 19.9067 160.231 18.72C160.231 17.5467 160.424 16.54 160.811 15.7C161.211 14.86 161.764 14.2133 162.471 13.76C163.191 13.3067 164.024 13.08 164.971 13.08ZM164.951 14.52C164.111 14.52 163.444 14.7933 162.951 15.34C162.471 15.8733 162.184 16.62 162.091 17.58H167.551C167.538 16.6733 167.324 15.94 166.911 15.38C166.498 14.8067 165.844 14.52 164.951 14.52Z" fill="black"/>
<mask id="mask1_843_2995" style="mask-type:luminance" maskUnits="userSpaceOnUse" x="79" y="0" width="95" height="33">
<path d="M79 0H174V33H79V0Z" fill="white"/>
</mask>
<g mask="url(#mask1_843_2995)">
<path d="M174 31H79V35H174V31Z" fill="#29A356"/>
</g>
<path d="M177.801 19.42V17.86H182.641V19.42H177.801Z" fill="black"/>
<path d="M187 0H228V33H187V0Z" fill="#D6E4F5"/>
<path d="M197.101 24H195.381V14.02C195.381 13.4467 195.388 12.9867 195.401 12.64C195.414 12.2933 195.434 11.9333 195.461 11.56C195.248 11.7733 195.054 11.9533 194.881 12.1C194.708 12.2467 194.488 12.4333 194.221 12.66L192.701 13.9L191.781 12.72L195.641 9.72H197.101V24ZM211.906 16.84C211.906 18.3733 211.746 19.6933 211.426 20.8C211.106 21.8933 210.6 22.7333 209.906 23.32C209.213 23.9067 208.293 24.2 207.146 24.2C205.533 24.2 204.34 23.5533 203.566 22.26C202.806 20.9533 202.426 19.1467 202.426 16.84C202.426 15.2933 202.58 13.9733 202.886 12.88C203.206 11.7867 203.713 10.9533 204.406 10.38C205.1 9.79333 206.013 9.5 207.146 9.5C208.746 9.5 209.94 10.1467 210.726 11.44C211.513 12.72 211.906 14.52 211.906 16.84ZM204.186 16.84C204.186 18.8 204.406 20.2667 204.846 21.24C205.3 22.2133 206.066 22.7 207.146 22.7C208.213 22.7 208.973 22.22 209.426 21.26C209.893 20.2867 210.126 18.8133 210.126 16.84C210.126 14.8933 209.893 13.4333 209.426 12.46C208.973 11.4867 208.213 11 207.146 11C206.066 11 205.3 11.4867 204.846 12.46C204.406 13.4333 204.186 14.8933 204.186 16.84ZM223.352 16.84C223.352 18.3733 223.192 19.6933 222.872 20.8C222.552 21.8933 222.045 22.7333 221.352 23.32C220.658 23.9067 219.738 24.2 218.592 24.2C216.978 24.2 215.785 23.5533 215.012 22.26C214.252 20.9533 213.872 19.1467 213.872 16.84C213.872 15.2933 214.025 13.9733 214.332 12.88C214.652 11.7867 215.158 10.9533 215.852 10.38C216.545 9.79333 217.458 9.5 218.592 9.5C220.192 9.5 221.385 10.1467 222.172 11.44C222.958 12.72 223.352 14.52 223.352 16.84ZM215.632 16.84C215.632 18.8 215.852 20.2667 216.292 21.24C216.745 22.2133 217.512 22.7 218.592 22.7C219.658 22.7 220.418 22.22 220.872 21.26C221.338 20.2867 221.572 18.8133 221.572 16.84C221.572 14.8933 221.338 13.4333 220.872 12.46C220.418 11.4867 219.658 11 218.592 11C217.512 11 216.745 11.4867 216.292 12.46C215.852 13.4333 215.632 14.8933 215.632 16.84Z" fill="black"/>
<mask id="mask2_843_2995" style="mask-type:luminance" maskUnits="userSpaceOnUse" x="187" y="0" width="41" height="33">
<path d="M187 0H228V33H187V0Z" fill="white"/>
</mask>
<g mask="url(#mask2_843_2995)">
<path d="M228 31H187V35H228V31Z" fill="#2962A3"/>
</g>
<g filter="url(#filter0_d_843_2995)">
<path d="M208.5 33V52" stroke="#2962A3" stroke-width="2"/>
</g>
<path d="M196.075 77.6078C196.075 78.7326 195.667 79.6088 194.85 80.2363C194.033 80.8638 192.932 81.1776 191.547 81.1776C190.836 81.1776 190.179 81.1243 189.575 81.0178C188.971 80.9112 188.468 80.7632 188.066 80.5738V79.0464C188.492 79.2358 189.019 79.4075 189.646 79.5614C190.286 79.7154 190.943 79.7923 191.618 79.7923C192.565 79.7923 193.275 79.6088 193.749 79.2418C194.234 78.8747 194.477 78.3774 194.477 77.7499C194.477 77.3355 194.388 76.9862 194.211 76.7021C194.033 76.4179 193.725 76.1574 193.287 75.9206C192.861 75.672 192.263 75.4115 191.493 75.1392C190.416 74.7485 189.599 74.269 189.042 73.7006C188.498 73.1323 188.226 72.3568 188.226 71.3741C188.226 70.6992 188.397 70.125 188.741 69.6514C189.084 69.1659 189.558 68.793 190.161 68.5325C190.777 68.272 191.482 68.1418 192.275 68.1418C192.973 68.1418 193.613 68.2069 194.193 68.3371C194.773 68.4674 195.3 68.639 195.774 68.8522L195.276 70.2197C194.838 70.0302 194.359 69.8704 193.838 69.7402C193.329 69.6099 192.796 69.5448 192.239 69.5448C191.446 69.5448 190.848 69.7165 190.446 70.0598C190.043 70.3914 189.842 70.8354 189.842 71.3918C189.842 71.8181 189.93 72.1733 190.108 72.4574C190.286 72.7416 190.576 72.9962 190.978 73.2211C191.381 73.4461 191.926 73.6888 192.612 73.9493C193.358 74.2216 193.986 74.5176 194.495 74.8373C195.016 75.1451 195.406 75.5181 195.667 75.9562C195.939 76.3942 196.075 76.9448 196.075 77.6078ZM202.235 81.1776C201.394 81.1776 200.643 81.0059 199.98 80.6626C199.328 80.3192 198.813 79.7864 198.434 79.0642C198.067 78.3419 197.884 77.4184 197.884 76.2936C197.884 75.1214 198.079 74.1683 198.47 73.4342C198.861 72.7002 199.388 72.1614 200.051 71.8181C200.726 71.4747 201.489 71.303 202.342 71.303C202.827 71.303 203.295 71.3563 203.745 71.4629C204.195 71.5576 204.562 71.676 204.846 71.8181L204.366 73.1146C204.082 73.008 203.751 72.9074 203.372 72.8126C202.993 72.7179 202.638 72.6706 202.306 72.6706C200.435 72.6706 199.5 73.8723 199.5 76.2758C199.5 77.4243 199.725 78.3064 200.175 78.9221C200.637 79.5259 201.318 79.8278 202.217 79.8278C202.738 79.8278 203.194 79.7746 203.585 79.668C203.987 79.5614 204.354 79.4312 204.686 79.2773V80.6626C204.366 80.8283 204.011 80.9526 203.62 81.0355C203.242 81.1302 202.78 81.1776 202.235 81.1776ZM210.555 71.3208C211.715 71.3208 212.574 71.5754 213.13 72.0845C213.687 72.5936 213.965 73.4046 213.965 74.5176V81H212.828L212.526 79.6502H212.455C212.041 80.1712 211.603 80.556 211.141 80.8046C210.691 81.0533 210.064 81.1776 209.259 81.1776C208.394 81.1776 207.678 80.9526 207.11 80.5027C206.541 80.041 206.257 79.3246 206.257 78.3538C206.257 77.4066 206.63 76.6784 207.376 76.1693C208.122 75.6483 209.27 75.3642 210.822 75.3168L212.438 75.2635V74.6952C212.438 73.9019 212.266 73.3514 211.923 73.0435C211.579 72.7357 211.094 72.5818 210.466 72.5818C209.969 72.5818 209.495 72.6587 209.046 72.8126C208.596 72.9547 208.175 73.1205 207.785 73.3099L207.305 72.1378C207.719 71.9128 208.211 71.7234 208.779 71.5694C209.347 71.4037 209.939 71.3208 210.555 71.3208ZM211.017 76.4002C209.833 76.4475 209.01 76.637 208.548 76.9685C208.098 77.3 207.873 77.7677 207.873 78.3715C207.873 78.9043 208.033 79.295 208.353 79.5437C208.684 79.7923 209.105 79.9166 209.614 79.9166C210.419 79.9166 211.088 79.6976 211.621 79.2595C212.154 78.8096 212.42 78.1229 212.42 77.1994V76.3469L211.017 76.4002ZM218.468 81H216.905V67.5024H218.468V81ZM225.16 71.303C225.977 71.303 226.676 71.4806 227.256 71.8358C227.848 72.191 228.298 72.6942 228.606 73.3454C228.925 73.9848 229.085 74.7366 229.085 75.601V76.5422H222.567C222.591 77.6197 222.863 78.4426 223.384 79.0109C223.917 79.5674 224.657 79.8456 225.604 79.8456C226.208 79.8456 226.741 79.7923 227.203 79.6858C227.676 79.5674 228.162 79.4016 228.659 79.1885V80.556C228.174 80.7691 227.694 80.923 227.22 81.0178C226.747 81.1243 226.184 81.1776 225.533 81.1776C224.633 81.1776 223.834 80.9941 223.136 80.627C222.449 80.26 221.91 79.7154 221.519 78.9931C221.141 78.259 220.951 77.3651 220.951 76.3114C220.951 75.2694 221.123 74.3755 221.466 73.6296C221.821 72.8837 222.313 72.3094 222.94 71.9069C223.58 71.5043 224.32 71.303 225.16 71.303ZM225.142 72.5818C224.397 72.5818 223.805 72.8245 223.366 73.3099C222.94 73.7835 222.686 74.4466 222.603 75.299H227.451C227.439 74.4939 227.25 73.8427 226.883 73.3454C226.516 72.8363 225.936 72.5818 225.142 72.5818Z" fill="black"/>
<path d="M244 53H173V95H244V53Z" stroke="#2962A3" stroke-width="2"/>
<g filter="url(#filter1_d_843_2995)">
<path d="M126 33V108" stroke="#29A356" stroke-width="2"/>
</g>
<path d="M95.3122 125.545C93.9506 125.545 92.8791 126.001 92.0977 126.912C91.3162 127.824 90.9255 129.073 90.9255 130.66C90.9255 132.234 91.2866 133.484 92.0089 134.407C92.7429 135.319 93.8381 135.775 95.2945 135.775C95.8509 135.775 96.3778 135.727 96.8751 135.632C97.3724 135.538 97.8578 135.419 98.3314 135.277V136.663C97.8578 136.84 97.3665 136.97 96.8573 137.053C96.3601 137.136 95.7621 137.178 95.0636 137.178C93.773 137.178 92.6956 136.911 91.8313 136.378C90.9669 135.846 90.3157 135.088 89.8777 134.105C89.4514 133.122 89.2383 131.968 89.2383 130.642C89.2383 129.363 89.4692 128.238 89.9309 127.268C90.4045 126.285 91.0972 125.521 92.0089 124.976C92.9205 124.42 94.0276 124.142 95.33 124.142C96.6679 124.142 97.8341 124.39 98.8287 124.888L98.1893 126.237C97.7986 126.06 97.3605 125.9 96.8751 125.758C96.4015 125.616 95.8805 125.545 95.3122 125.545ZM104.491 127.321C105.652 127.321 106.51 127.575 107.066 128.084C107.623 128.594 107.901 129.405 107.901 130.518V137H106.765L106.463 135.65H106.392C105.977 136.171 105.539 136.556 105.077 136.805C104.627 137.053 104 137.178 103.195 137.178C102.33 137.178 101.614 136.953 101.046 136.503C100.477 136.041 100.193 135.325 100.193 134.354C100.193 133.407 100.566 132.678 101.312 132.169C102.058 131.648 103.207 131.364 104.758 131.317L106.374 131.264V130.695C106.374 129.902 106.202 129.351 105.859 129.044C105.515 128.736 105.03 128.582 104.402 128.582C103.905 128.582 103.432 128.659 102.982 128.813C102.532 128.955 102.111 129.12 101.721 129.31L101.241 128.138C101.656 127.913 102.147 127.723 102.715 127.569C103.284 127.404 103.876 127.321 104.491 127.321ZM104.953 132.4C103.769 132.448 102.946 132.637 102.484 132.968C102.034 133.3 101.809 133.768 101.809 134.372C101.809 134.904 101.969 135.295 102.289 135.544C102.621 135.792 103.041 135.917 103.55 135.917C104.355 135.917 105.024 135.698 105.557 135.26C106.09 134.81 106.356 134.123 106.356 133.199V132.347L104.953 132.4ZM114.02 135.899C114.257 135.899 114.5 135.881 114.748 135.846C114.997 135.798 115.198 135.751 115.352 135.704V136.893C115.187 136.976 114.95 137.041 114.642 137.089C114.334 137.148 114.038 137.178 113.754 137.178C113.257 137.178 112.795 137.095 112.369 136.929C111.954 136.751 111.617 136.449 111.356 136.023C111.096 135.597 110.966 134.999 110.966 134.229V128.688H109.616V127.942L110.983 127.321L111.605 125.296H112.528V127.481H115.281V128.688H112.528V134.194C112.528 134.774 112.665 135.206 112.937 135.49C113.221 135.763 113.582 135.899 114.02 135.899ZM120.935 127.303C121.752 127.303 122.45 127.481 123.03 127.836C123.622 128.191 124.072 128.694 124.38 129.345C124.7 129.985 124.86 130.737 124.86 131.601V132.542H118.342C118.365 133.62 118.638 134.443 119.159 135.011C119.692 135.567 120.432 135.846 121.379 135.846C121.983 135.846 122.515 135.792 122.977 135.686C123.451 135.567 123.936 135.402 124.433 135.188V136.556C123.948 136.769 123.469 136.923 122.995 137.018C122.521 137.124 121.959 137.178 121.308 137.178C120.408 137.178 119.609 136.994 118.91 136.627C118.223 136.26 117.685 135.715 117.294 134.993C116.915 134.259 116.726 133.365 116.726 132.311C116.726 131.269 116.897 130.376 117.241 129.63C117.596 128.884 118.087 128.309 118.715 127.907C119.354 127.504 120.094 127.303 120.935 127.303ZM120.917 128.582C120.171 128.582 119.579 128.824 119.141 129.31C118.715 129.784 118.46 130.447 118.377 131.299H123.226C123.214 130.494 123.025 129.843 122.657 129.345C122.29 128.836 121.71 128.582 120.917 128.582ZM130.658 127.303C131.285 127.303 131.847 127.421 132.345 127.658C132.854 127.895 133.286 128.256 133.641 128.742H133.73L133.943 127.481H135.186V137.16C135.186 138.521 134.837 139.546 134.138 140.232C133.452 140.919 132.38 141.262 130.924 141.262C129.527 141.262 128.384 141.061 127.496 140.659V139.22C128.432 139.717 129.604 139.966 131.013 139.966C131.83 139.966 132.469 139.723 132.931 139.238C133.404 138.764 133.641 138.113 133.641 137.284V136.911C133.641 136.769 133.647 136.568 133.659 136.307C133.671 136.035 133.683 135.846 133.694 135.739H133.623C132.984 136.698 132.001 137.178 130.675 137.178C129.444 137.178 128.479 136.745 127.78 135.881C127.094 135.017 126.75 133.809 126.75 132.258C126.75 130.743 127.094 129.541 127.78 128.653C128.479 127.753 129.438 127.303 130.658 127.303ZM130.871 128.617C130.077 128.617 129.462 128.937 129.024 129.576C128.586 130.204 128.366 131.104 128.366 132.276C128.366 133.448 128.58 134.348 129.006 134.975C129.444 135.591 130.077 135.899 130.906 135.899C131.865 135.899 132.564 135.644 133.002 135.135C133.44 134.614 133.659 133.78 133.659 132.631V132.258C133.659 130.956 133.434 130.026 132.984 129.47C132.534 128.901 131.83 128.617 130.871 128.617ZM146.486 132.223C146.486 133.797 146.083 135.017 145.278 135.881C144.485 136.745 143.407 137.178 142.046 137.178C141.205 137.178 140.453 136.988 139.79 136.609C139.139 136.219 138.624 135.656 138.245 134.922C137.866 134.176 137.677 133.276 137.677 132.223C137.677 130.648 138.074 129.434 138.867 128.582C139.66 127.729 140.738 127.303 142.099 127.303C142.963 127.303 143.721 127.498 144.372 127.889C145.035 128.268 145.55 128.824 145.918 129.559C146.296 130.281 146.486 131.169 146.486 132.223ZM139.293 132.223C139.293 133.347 139.512 134.241 139.95 134.904C140.4 135.556 141.11 135.881 142.081 135.881C143.04 135.881 143.745 135.556 144.195 134.904C144.645 134.241 144.87 133.347 144.87 132.223C144.87 131.098 144.645 130.216 144.195 129.576C143.745 128.937 143.034 128.617 142.064 128.617C141.093 128.617 140.388 128.937 139.95 129.576C139.512 130.216 139.293 131.098 139.293 132.223ZM153.403 127.303C153.58 127.303 153.77 127.315 153.971 127.339C154.184 127.35 154.368 127.374 154.522 127.41L154.326 128.848C154.172 128.813 154.001 128.783 153.811 128.759C153.634 128.736 153.462 128.724 153.296 128.724C152.811 128.724 152.355 128.86 151.929 129.132C151.502 129.393 151.159 129.766 150.899 130.251C150.65 130.725 150.526 131.281 150.526 131.921V137H148.963V127.481H150.242L150.419 129.221H150.49C150.798 128.7 151.195 128.25 151.68 127.871C152.166 127.492 152.74 127.303 153.403 127.303ZM154.807 127.481H156.477L158.537 132.897C158.715 133.371 158.874 133.827 159.017 134.265C159.159 134.691 159.265 135.1 159.336 135.49H159.407C159.478 135.194 159.591 134.81 159.745 134.336C159.899 133.851 160.058 133.365 160.224 132.88L162.16 127.481H163.847L159.745 138.314C159.413 139.214 158.981 139.93 158.448 140.463C157.927 140.996 157.205 141.262 156.281 141.262C155.997 141.262 155.749 141.245 155.536 141.209C155.322 141.185 155.139 141.156 154.985 141.12V139.877C155.115 139.901 155.269 139.924 155.447 139.948C155.636 139.972 155.832 139.984 156.033 139.984C156.577 139.984 157.016 139.83 157.347 139.522C157.69 139.214 157.957 138.806 158.146 138.296L158.644 137.036L154.807 127.481ZM93.5742 158.134C93.5742 156.689 93.7814 155.298 94.1958 153.96C94.622 152.61 95.285 151.397 96.1849 150.319H97.659C96.8302 151.432 96.2026 152.658 95.7764 153.996C95.362 155.334 95.1548 156.707 95.1548 158.116C95.1548 159.489 95.362 160.839 95.7764 162.165C96.2026 163.48 96.8242 164.693 97.6412 165.806H96.1849C95.285 164.764 94.622 163.586 94.1958 162.272C93.7814 160.946 93.5742 159.566 93.5742 158.134ZM105.346 151.545C103.984 151.545 102.912 152.001 102.131 152.912C101.35 153.824 100.959 155.073 100.959 156.66C100.959 158.234 101.32 159.484 102.042 160.407C102.776 161.319 103.871 161.775 105.328 161.775C105.884 161.775 106.411 161.727 106.908 161.632C107.406 161.538 107.891 161.419 108.365 161.277V162.663C107.891 162.84 107.4 162.97 106.891 163.053C106.393 163.136 105.795 163.178 105.097 163.178C103.806 163.178 102.729 162.911 101.865 162.378C101 161.846 100.349 161.088 99.911 160.105C99.4848 159.122 99.2717 157.968 99.2717 156.642C99.2717 155.363 99.5025 154.238 99.9643 153.268C100.438 152.285 101.131 151.521 102.042 150.976C102.954 150.42 104.061 150.142 105.363 150.142C106.701 150.142 107.867 150.39 108.862 150.888L108.223 152.237C107.832 152.06 107.394 151.9 106.908 151.758C106.435 151.616 105.914 151.545 105.346 151.545ZM119.195 158.223C119.195 159.797 118.793 161.017 117.988 161.881C117.195 162.745 116.117 163.178 114.755 163.178C113.915 163.178 113.163 162.988 112.5 162.609C111.849 162.219 111.334 161.656 110.955 160.922C110.576 160.176 110.387 159.276 110.387 158.223C110.387 156.648 110.783 155.434 111.576 154.582C112.37 153.729 113.447 153.303 114.809 153.303C115.673 153.303 116.431 153.498 117.082 153.889C117.745 154.268 118.26 154.824 118.627 155.559C119.006 156.281 119.195 157.169 119.195 158.223ZM112.003 158.223C112.003 159.347 112.222 160.241 112.66 160.904C113.11 161.556 113.82 161.881 114.791 161.881C115.75 161.881 116.455 161.556 116.904 160.904C117.354 160.241 117.579 159.347 117.579 158.223C117.579 157.098 117.354 156.216 116.904 155.576C116.455 154.937 115.744 154.617 114.773 154.617C113.802 154.617 113.098 154.937 112.66 155.576C112.222 156.216 112.003 157.098 112.003 158.223ZM123.235 163H121.672V149.502H123.235V163ZM134.527 158.223C134.527 159.797 134.125 161.017 133.32 161.881C132.526 162.745 131.449 163.178 130.087 163.178C129.247 163.178 128.495 162.988 127.832 162.609C127.181 162.219 126.666 161.656 126.287 160.922C125.908 160.176 125.718 159.276 125.718 158.223C125.718 156.648 126.115 155.434 126.908 154.582C127.702 153.729 128.779 153.303 130.141 153.303C131.005 153.303 131.763 153.498 132.414 153.889C133.077 154.268 133.592 154.824 133.959 155.559C134.338 156.281 134.527 157.169 134.527 158.223ZM127.335 158.223C127.335 159.347 127.554 160.241 127.992 160.904C128.442 161.556 129.152 161.881 130.123 161.881C131.082 161.881 131.786 161.556 132.236 160.904C132.686 160.241 132.911 159.347 132.911 158.223C132.911 157.098 132.686 156.216 132.236 155.576C131.786 154.937 131.076 154.617 130.105 154.617C129.134 154.617 128.43 154.937 127.992 155.576C127.554 156.216 127.335 157.098 127.335 158.223ZM144.961 153.481V163H143.682L143.451 161.739H143.38C143.072 162.236 142.646 162.603 142.101 162.84C141.557 163.065 140.977 163.178 140.361 163.178C139.212 163.178 138.348 162.905 137.768 162.361C137.188 161.804 136.898 160.922 136.898 159.714V153.481H138.478V159.608C138.478 161.123 139.183 161.881 140.592 161.881C141.646 161.881 142.374 161.585 142.776 160.993C143.191 160.401 143.398 159.549 143.398 158.436V153.481H144.961ZM152.423 153.303C152.6 153.303 152.79 153.315 152.991 153.339C153.204 153.35 153.388 153.374 153.542 153.41L153.346 154.848C153.192 154.813 153.021 154.783 152.831 154.759C152.654 154.736 152.482 154.724 152.316 154.724C151.831 154.724 151.375 154.86 150.949 155.132C150.523 155.393 150.179 155.766 149.919 156.251C149.67 156.725 149.546 157.281 149.546 157.921V163H147.983V153.481H149.262L149.439 155.221H149.51C149.818 154.7 150.215 154.25 150.7 153.871C151.186 153.492 151.76 153.303 152.423 153.303ZM158.427 158.134C158.427 159.566 158.214 160.946 157.788 162.272C157.374 163.586 156.716 164.764 155.817 165.806H154.36C155.177 164.693 155.793 163.48 156.207 162.165C156.634 160.839 156.847 159.489 156.847 158.116C156.847 156.707 156.634 155.334 156.207 153.996C155.793 152.658 155.171 151.432 154.342 150.319H155.817C156.716 151.397 157.374 152.61 157.788 153.96C158.214 155.298 158.427 156.689 158.427 158.134Z" fill="black"/>
<path d="M178 109H74V177H178V109Z" stroke="#29A356" stroke-width="2"/>
<g filter="url(#filter2_d_843_2995)">
<path d="M39 33V52" stroke="#666666" stroke-width="2"/>
</g>
<path d="M20.2278 68.3194C21.8854 68.3194 23.093 68.645 23.8508 69.2962C24.6086 69.9474 24.9874 70.865 24.9874 72.049C24.9874 72.7475 24.8276 73.4046 24.5079 74.0203C24.2001 74.6242 23.6732 75.1155 22.9273 75.4944C22.1932 75.8733 21.1927 76.0627 19.9258 76.0627H18.4695V81H16.8711V68.3194H20.2278ZM20.0857 69.6869H18.4695V74.6952H19.7482C20.9559 74.6952 21.8558 74.4998 22.4478 74.1091C23.0398 73.7184 23.3358 73.0554 23.3358 72.12C23.3358 71.303 23.0753 70.6933 22.5543 70.2907C22.0334 69.8882 21.2105 69.6869 20.0857 69.6869ZM31.8511 71.303C32.0287 71.303 32.2182 71.3149 32.4194 71.3386C32.6326 71.3504 32.8161 71.3741 32.97 71.4096L32.7746 72.8482C32.6207 72.8126 32.449 72.783 32.2596 72.7594C32.082 72.7357 31.9103 72.7238 31.7446 72.7238C31.2591 72.7238 30.8033 72.86 30.377 73.1323C29.9508 73.3928 29.6074 73.7658 29.347 74.2512C29.0983 74.7248 28.974 75.2813 28.974 75.9206V81H27.4111V71.4806H28.6898L28.8674 73.2211H28.9385C29.2463 72.7002 29.643 72.2502 30.1284 71.8714C30.6138 71.4925 31.1881 71.303 31.8511 71.303ZM38.077 71.303C38.8939 71.303 39.5925 71.4806 40.1727 71.8358C40.7647 72.191 41.2146 72.6942 41.5224 73.3454C41.8421 73.9848 42.0019 74.7366 42.0019 75.601V76.5422H35.484C35.5077 77.6197 35.78 78.4426 36.301 79.0109C36.8338 79.5674 37.5738 79.8456 38.521 79.8456C39.1248 79.8456 39.6576 79.7923 40.1194 79.6858C40.593 79.5674 41.0784 79.4016 41.5757 79.1885V80.556C41.0903 80.7691 40.6107 80.923 40.1371 81.0178C39.6635 81.1243 39.1011 81.1776 38.4499 81.1776C37.5501 81.1776 36.7509 80.9941 36.0523 80.627C35.3656 80.26 34.8269 79.7154 34.4362 78.9931C34.0573 78.259 33.8679 77.3651 33.8679 76.3114C33.8679 75.2694 34.0395 74.3755 34.3829 73.6296C34.7381 72.8837 35.2295 72.3094 35.857 71.9069C36.4963 71.5043 37.2363 71.303 38.077 71.303ZM38.0592 72.5818C37.3133 72.5818 36.7213 72.8245 36.2832 73.3099C35.857 73.7835 35.6024 74.4466 35.5195 75.299H40.368C40.3562 74.4939 40.1667 73.8427 39.7997 73.3454C39.4327 72.8363 38.8525 72.5818 38.0592 72.5818ZM48.8121 72.6883H46.4145V81H44.8516V72.6883H43.1821V71.9602L44.8516 71.4274V70.8768C44.8516 69.6454 45.1239 68.7634 45.6685 68.2306C46.2132 67.6859 46.9709 67.4136 47.9418 67.4136C48.3207 67.4136 48.6641 67.4491 48.9719 67.5202C49.2916 67.5794 49.5639 67.6504 49.7889 67.7333L49.3804 68.9587C49.1909 68.8995 48.9719 68.8403 48.7233 68.7811C48.4746 68.7219 48.2201 68.6923 47.9596 68.6923C47.4386 68.6923 47.0479 68.8699 46.7874 69.2251C46.5388 69.5685 46.4145 70.1131 46.4145 70.859V71.4806H48.8121V72.6883ZM51.334 67.9109C51.5708 67.9109 51.778 67.9938 51.9556 68.1595C52.145 68.3134 52.2397 68.5621 52.2397 68.9054C52.2397 69.237 52.145 69.4856 51.9556 69.6514C51.778 69.8171 51.5708 69.9 51.334 69.9C51.0735 69.9 50.8545 69.8171 50.6769 69.6514C50.4993 69.4856 50.4105 69.237 50.4105 68.9054C50.4105 68.5621 50.4993 68.3134 50.6769 68.1595C50.8545 67.9938 51.0735 67.9109 51.334 67.9109ZM52.0977 71.4806V81H50.5348V71.4806H52.0977ZM57.3646 76.1338L54.079 71.4806H55.855L58.3059 75.0682L60.739 71.4806H62.4973L59.2116 76.1338L62.6749 81H60.8988L58.3059 77.1994L55.6774 81H53.9192L57.3646 76.1338Z" fill="black"/>
<path d="M77 53H1V95H77V53Z" stroke="#666666" stroke-width="2"/>
</g>
<defs>
<filter id="filter0_d_843_2995" x="207.5" y="33" width="4" height="19" filterUnits="userSpaceOnUse" color-interpolation-filters="sRGB">
<feFlood flood-opacity="0" result="BackgroundImageFix"/>
<feColorMatrix in="SourceAlpha" type="matrix" values="0 0 0 0 0 0 0 0 0 0 0 0 0 0 0 0 0 0 127 0" result="hardAlpha"/>
<feOffset dx="2"/>
<feComposite in2="hardAlpha" operator="out"/>
<feColorMatrix type="matrix" values="0 0 0 0 1 0 0 0 0 1 0 0 0 0 1 0 0 0 1 0"/>
<feBlend mode="normal" in2="BackgroundImageFix" result="effect1_dropShadow_843_2995"/>
<feBlend mode="normal" in="SourceGraphic" in2="effect1_dropShadow_843_2995" result="shape"/>
</filter>
<filter id="filter1_d_843_2995" x="125" y="33" width="4" height="75" filterUnits="userSpaceOnUse" color-interpolation-filters="sRGB">
<feFlood flood-opacity="0" result="BackgroundImageFix"/>
<feColorMatrix in="SourceAlpha" type="matrix" values="0 0 0 0 0 0 0 0 0 0 0 0 0 0 0 0 0 0 127 0" result="hardAlpha"/>
<feOffset dx="2"/>
<feComposite in2="hardAlpha" operator="out"/>
<feColorMatrix type="matrix" values="0 0 0 0 1 0 0 0 0 1 0 0 0 0 1 0 0 0 1 0"/>
<feBlend mode="normal" in2="BackgroundImageFix" result="effect1_dropShadow_843_2995"/>
<feBlend mode="normal" in="SourceGraphic" in2="effect1_dropShadow_843_2995" result="shape"/>
</filter>
<filter id="filter2_d_843_2995" x="38" y="33" width="4" height="19" filterUnits="userSpaceOnUse" color-interpolation-filters="sRGB">
<feFlood flood-opacity="0" result="BackgroundImageFix"/>
<feColorMatrix in="SourceAlpha" type="matrix" values="0 0 0 0 0 0 0 0 0 0 0 0 0 0 0 0 0 0 127 0" result="hardAlpha"/>
<feOffset dx="2"/>
<feComposite in2="hardAlpha" operator="out"/>
<feColorMatrix type="matrix" values="0 0 0 0 1 0 0 0 0 1 0 0 0 0 1 0 0 0 1 0"/>
<feBlend mode="normal" in2="BackgroundImageFix" result="effect1_dropShadow_843_2995"/>
<feBlend mode="normal" in="SourceGraphic" in2="effect1_dropShadow_843_2995" result="shape"/>
</filter>
<clipPath id="clip0_843_2995">
<rect width="245" height="178" fill="white"/>
</clipPath>
</defs>
</svg>
