<svg width="462" height="178" viewBox="0 0 462 178" fill="none" xmlns="http://www.w3.org/2000/svg">
<path d="M0.8 19.42V17.86H5.64V19.42H0.8ZM7.24531 19.42V17.86H12.0853V19.42H7.24531Z" fill="black"/>
<mask id="path-2-inside-1_8579_33782" fill="white">
<path d="M16 0H66V33H16V0Z"/>
</mask>
<path d="M16 0H66V33H16V0Z" fill="#D6D9DD"/>
<path d="M24.5 13.08C25.2067 13.08 25.84 13.2133 26.4 13.48C26.9733 13.7467 27.46 14.1533 27.86 14.7H27.96L28.2 13.28H29.6V24.18C29.6 25.7133 29.2067 26.8667 28.42 27.64C27.6467 28.4133 26.44 28.8 24.8 28.8C23.2267 28.8 21.94 28.5733 20.94 28.12V26.5C21.9933 27.06 23.3133 27.34 24.9 27.34C25.82 27.34 26.54 27.0667 27.06 26.52C27.5933 25.9867 27.86 25.2533 27.86 24.32V23.9C27.86 23.74 27.8667 23.5133 27.88 23.22C27.8933 22.9133 27.9067 22.7 27.92 22.58H27.84C27.12 23.66 26.0133 24.2 24.52 24.2C23.1333 24.2 22.0467 23.7133 21.26 22.74C20.4867 21.7667 20.1 20.4067 20.1 18.66C20.1 16.9533 20.4867 15.6 21.26 14.6C22.0467 13.5867 23.1267 13.08 24.5 13.08ZM24.74 14.56C23.8467 14.56 23.1533 14.92 22.66 15.64C22.1667 16.3467 21.92 17.36 21.92 18.68C21.92 20 22.16 21.0133 22.64 21.72C23.1333 22.4133 23.8467 22.76 24.78 22.76C25.86 22.76 26.6467 22.4733 27.14 21.9C27.6333 21.3133 27.88 20.3733 27.88 19.08V18.66C27.88 17.1933 27.6267 16.1467 27.12 15.52C26.6133 14.88 25.82 14.56 24.74 14.56ZM37.3047 24.2C36.358 24.2 35.5114 24.0067 34.7647 23.62C34.0314 23.2333 33.4514 22.6333 33.0247 21.82C32.6114 21.0067 32.4047 19.9667 32.4047 18.7C32.4047 17.38 32.6247 16.3067 33.0647 15.48C33.5047 14.6533 34.098 14.0467 34.8447 13.66C35.6047 13.2733 36.4647 13.08 37.4247 13.08C37.9714 13.08 38.498 13.14 39.0047 13.26C39.5114 13.3667 39.9247 13.5 40.2447 13.66L39.7047 15.12C39.3847 15 39.0114 14.8867 38.5847 14.78C38.158 14.6733 37.758 14.62 37.3847 14.62C35.278 14.62 34.2247 15.9733 34.2247 18.68C34.2247 19.9733 34.478 20.9667 34.9847 21.66C35.5047 22.34 36.2714 22.68 37.2847 22.68C37.8714 22.68 38.3847 22.62 38.8247 22.5C39.278 22.38 39.6914 22.2333 40.0647 22.06V23.62C39.7047 23.8067 39.3047 23.9467 38.8647 24.04C38.438 24.1467 37.918 24.2 37.3047 24.2ZM46.4141 24.2C45.0807 24.2 44.0141 23.74 43.2141 22.82C42.4141 21.8867 42.0141 20.5 42.0141 18.66C42.0141 16.82 42.4141 15.4333 43.2141 14.5C44.0274 13.5533 45.1007 13.08 46.4341 13.08C47.2607 13.08 47.9341 13.2333 48.4541 13.54C48.9874 13.8467 49.4207 14.22 49.7541 14.66H49.8741C49.8607 14.4867 49.8341 14.2333 49.7941 13.9C49.7674 13.5533 49.7541 13.28 49.7541 13.08V8.8H51.5141V24H50.0941L49.8341 22.56H49.7541C49.4341 23.0133 49.0074 23.4 48.4741 23.72C47.9407 24.04 47.2541 24.2 46.4141 24.2ZM46.6941 22.74C47.8274 22.74 48.6207 22.4333 49.0741 21.82C49.5407 21.1933 49.7741 20.2533 49.7741 19V18.68C49.7741 17.3467 49.5541 16.3267 49.1141 15.62C48.6741 14.9 47.8607 14.54 46.6741 14.54C45.7274 14.54 45.0141 14.92 44.5341 15.68C44.0674 16.4267 43.8341 17.4333 43.8341 18.7C43.8341 19.98 44.0674 20.9733 44.5341 21.68C45.0141 22.3867 45.7341 22.74 46.6941 22.74ZM61.8988 21.04C61.8988 22.08 61.5121 22.8667 60.7388 23.4C59.9654 23.9333 58.9254 24.2 57.6188 24.2C56.8721 24.2 56.2254 24.14 55.6788 24.02C55.1454 23.9 54.6721 23.7333 54.2588 23.52V21.92C54.6854 22.1333 55.1988 22.3333 55.7988 22.52C56.4121 22.6933 57.0321 22.78 57.6588 22.78C58.5521 22.78 59.1988 22.64 59.5988 22.36C59.9988 22.0667 60.1988 21.68 60.1988 21.2C60.1988 20.9333 60.1254 20.6933 59.9788 20.48C59.8321 20.2667 59.5654 20.0533 59.1788 19.84C58.8054 19.6267 58.2654 19.3867 57.5588 19.12C56.8654 18.8533 56.2721 18.5867 55.7788 18.32C55.2854 18.0533 54.9054 17.7333 54.6388 17.36C54.3721 16.9867 54.2388 16.5067 54.2388 15.92C54.2388 15.0133 54.6054 14.3133 55.3388 13.82C56.0854 13.3267 57.0588 13.08 58.2588 13.08C58.9121 13.08 59.5188 13.1467 60.0788 13.28C60.6521 13.4 61.1854 13.5733 61.6788 13.8L61.0788 15.2C60.6254 15.0133 60.1521 14.8533 59.6588 14.72C59.1654 14.5867 58.6588 14.52 58.1388 14.52C57.4188 14.52 56.8654 14.64 56.4788 14.88C56.1054 15.1067 55.9188 15.42 55.9188 15.82C55.9188 16.1133 56.0054 16.3667 56.1788 16.58C56.3521 16.78 56.6388 16.98 57.0388 17.18C57.4521 17.3667 57.9988 17.5933 58.6788 17.86C59.3588 18.1133 59.9388 18.3733 60.4188 18.64C60.8988 18.9067 61.2654 19.2333 61.5188 19.62C61.7721 19.9933 61.8988 20.4667 61.8988 21.04Z" fill="black"/>
<path d="M66 31H16V35H66V31Z" fill="#7D828B" mask="url(#path-2-inside-1_8579_33782)"/>
<path d="M69.8 19.42V17.86H74.64V19.42H69.8Z" fill="black"/>
<mask id="path-6-inside-2_8579_33782" fill="white">
<path d="M79 0H149V33H79V0Z"/>
</mask>
<path d="M79 0H149V33H79V0Z" fill="#E6F6EC"/>
<path d="M85.46 12.5C85.46 12.9533 85.4467 13.38 85.42 13.78C85.4067 14.1667 85.3867 14.4733 85.36 14.7H85.46C85.7667 14.2467 86.1867 13.8667 86.72 13.56C87.2533 13.2533 87.94 13.1 88.78 13.1C90.1133 13.1 91.18 13.5667 91.98 14.5C92.7933 15.42 93.2 16.8 93.2 18.64C93.2 20.48 92.7933 21.8667 91.98 22.8C91.1667 23.7333 90.1 24.2 88.78 24.2C87.94 24.2 87.2533 24.0467 86.72 23.74C86.1867 23.4333 85.7667 23.0667 85.46 22.64H85.32L84.96 24H83.7V8.8H85.46V12.5ZM88.48 14.56C87.3467 14.56 86.56 14.8867 86.12 15.54C85.68 16.1933 85.46 17.2067 85.46 18.58V18.66C85.46 19.98 85.6733 20.9933 86.1 21.7C86.54 22.3933 87.3467 22.74 88.52 22.74C89.48 22.74 90.1933 22.3867 90.66 21.68C91.14 20.9733 91.38 19.9533 91.38 18.62C91.38 15.9133 90.4133 14.56 88.48 14.56ZM104.965 13.28V24H103.525L103.265 22.58H103.185C102.838 23.14 102.358 23.5533 101.745 23.82C101.131 24.0733 100.478 24.2 99.7847 24.2C98.4914 24.2 97.518 23.8933 96.8647 23.28C96.2114 22.6533 95.8847 21.66 95.8847 20.3V13.28H97.6647V20.18C97.6647 21.8867 98.458 22.74 100.045 22.74C101.231 22.74 102.051 22.4067 102.505 21.74C102.971 21.0733 103.205 20.1133 103.205 18.86V13.28H104.965ZM111.948 22.76C112.215 22.76 112.488 22.74 112.768 22.7C113.048 22.6467 113.275 22.5933 113.448 22.54V23.88C113.261 23.9733 112.995 24.0467 112.648 24.1C112.301 24.1667 111.968 24.2 111.648 24.2C111.088 24.2 110.568 24.1067 110.088 23.92C109.621 23.72 109.241 23.38 108.948 22.9C108.655 22.42 108.508 21.7467 108.508 20.88V14.64H106.988V13.8L108.528 13.1L109.228 10.82H110.268V13.28H113.368V14.64H110.268V20.84C110.268 21.4933 110.421 21.98 110.728 22.3C111.048 22.6067 111.455 22.76 111.948 22.76ZM119.175 22.76C119.441 22.76 119.715 22.74 119.995 22.7C120.275 22.6467 120.501 22.5933 120.675 22.54V23.88C120.488 23.9733 120.221 24.0467 119.875 24.1C119.528 24.1667 119.195 24.2 118.875 24.2C118.315 24.2 117.795 24.1067 117.315 23.92C116.848 23.72 116.468 23.38 116.175 22.9C115.881 22.42 115.735 21.7467 115.735 20.88V14.64H114.215V13.8L115.755 13.1L116.455 10.82H117.495V13.28H120.595V14.64H117.495V20.84C117.495 21.4933 117.648 21.98 117.955 22.3C118.275 22.6067 118.681 22.76 119.175 22.76ZM132.141 18.62C132.141 20.3933 131.688 21.7667 130.781 22.74C129.888 23.7133 128.674 24.2 127.141 24.2C126.194 24.2 125.348 23.9867 124.601 23.56C123.868 23.12 123.288 22.4867 122.861 21.66C122.434 20.82 122.221 19.8067 122.221 18.62C122.221 16.8467 122.668 15.48 123.561 14.52C124.454 13.56 125.668 13.08 127.201 13.08C128.174 13.08 129.028 13.3 129.761 13.74C130.508 14.1667 131.088 14.7933 131.501 15.62C131.928 16.4333 132.141 17.4333 132.141 18.62ZM124.041 18.62C124.041 19.8867 124.288 20.8933 124.781 21.64C125.288 22.3733 126.088 22.74 127.181 22.74C128.261 22.74 129.054 22.3733 129.561 21.64C130.068 20.8933 130.321 19.8867 130.321 18.62C130.321 17.3533 130.068 16.36 129.561 15.64C129.054 14.92 128.254 14.56 127.161 14.56C126.068 14.56 125.274 14.92 124.781 15.64C124.288 16.36 124.041 17.3533 124.041 18.62ZM140.09 13.08C141.37 13.08 142.337 13.3933 142.99 14.02C143.644 14.6333 143.97 15.6333 143.97 17.02V24H142.23V17.14C142.23 15.42 141.43 14.56 139.83 14.56C138.644 14.56 137.824 14.8933 137.37 15.56C136.917 16.2267 136.69 17.1867 136.69 18.44V24H134.93V13.28H136.35L136.61 14.74H136.71C137.057 14.18 137.537 13.7667 138.15 13.5C138.764 13.22 139.41 13.08 140.09 13.08Z" fill="black"/>
<path d="M149 31H79V35H149V31Z" fill="#289F58" mask="url(#path-6-inside-2_8579_33782)"/>
<path d="M152.8 19.42V17.86H157.64V19.42H152.8Z" fill="black"/>
<mask id="path-10-inside-3_8579_33782" fill="white">
<path d="M162 0H243V33H162V0Z"/>
</mask>
<path d="M162 0H243V33H162V0Z" fill="#FBDDDA"/>
<path d="M171.8 13.08C173.12 13.08 174.18 13.54 174.98 14.46C175.793 15.38 176.2 16.7667 176.2 18.62C176.2 20.4467 175.793 21.8333 174.98 22.78C174.18 23.7267 173.113 24.2 171.78 24.2C170.953 24.2 170.267 24.0467 169.72 23.74C169.187 23.42 168.767 23.0533 168.46 22.64H168.34C168.367 22.8667 168.393 23.1533 168.42 23.5C168.447 23.8467 168.46 24.1467 168.46 24.4V28.8H166.7V13.28H168.14L168.38 14.74H168.46C168.78 14.2733 169.2 13.88 169.72 13.56C170.24 13.24 170.933 13.08 171.8 13.08ZM171.48 14.56C170.387 14.56 169.613 14.8667 169.16 15.48C168.72 16.0933 168.487 17.0267 168.46 18.28V18.62C168.46 19.94 168.673 20.96 169.1 21.68C169.54 22.3867 170.347 22.74 171.52 22.74C172.173 22.74 172.707 22.56 173.12 22.2C173.547 21.84 173.86 21.3533 174.06 20.74C174.273 20.1133 174.38 19.4 174.38 18.6C174.38 17.3733 174.14 16.3933 173.66 15.66C173.193 14.9267 172.467 14.56 171.48 14.56ZM184.005 13.08C184.205 13.08 184.418 13.0933 184.645 13.12C184.885 13.1333 185.091 13.16 185.265 13.2L185.045 14.82C184.871 14.78 184.678 14.7467 184.465 14.72C184.265 14.6933 184.071 14.68 183.885 14.68C183.338 14.68 182.825 14.8333 182.345 15.14C181.865 15.4333 181.478 15.8533 181.185 16.4C180.905 16.9333 180.765 17.56 180.765 18.28V24H179.005V13.28H180.445L180.645 15.24H180.725C181.071 14.6533 181.518 14.1467 182.065 13.72C182.611 13.2933 183.258 13.08 184.005 13.08ZM188.166 9.26C188.433 9.26 188.666 9.35333 188.866 9.54C189.08 9.71333 189.186 9.99333 189.186 10.38C189.186 10.7533 189.08 11.0333 188.866 11.22C188.666 11.4067 188.433 11.5 188.166 11.5C187.873 11.5 187.626 11.4067 187.426 11.22C187.226 11.0333 187.126 10.7533 187.126 10.38C187.126 9.99333 187.226 9.71333 187.426 9.54C187.626 9.35333 187.873 9.26 188.166 9.26ZM189.026 13.28V24H187.266V13.28H189.026ZM204.183 13.08C205.396 13.08 206.303 13.3933 206.903 14.02C207.503 14.6333 207.803 15.6333 207.803 17.02V24H206.063V17.1C206.063 15.4067 205.336 14.56 203.883 14.56C202.843 14.56 202.096 14.86 201.643 15.46C201.203 16.06 200.983 16.9333 200.983 18.08V24H199.243V17.1C199.243 15.4067 198.509 14.56 197.043 14.56C195.963 14.56 195.216 14.8933 194.803 15.56C194.389 16.2267 194.183 17.1867 194.183 18.44V24H192.423V13.28H193.843L194.103 14.74H194.203C194.536 14.18 194.983 13.7667 195.543 13.5C196.116 13.22 196.723 13.08 197.363 13.08C199.043 13.08 200.136 13.68 200.643 14.88H200.743C201.103 14.2667 201.589 13.8133 202.203 13.52C202.829 13.2267 203.489 13.08 204.183 13.08ZM215.174 13.1C216.481 13.1 217.447 13.3867 218.074 13.96C218.701 14.5333 219.014 15.4467 219.014 16.7V24H217.734L217.394 22.48H217.314C216.847 23.0667 216.354 23.5 215.834 23.78C215.327 24.06 214.621 24.2 213.714 24.2C212.741 24.2 211.934 23.9467 211.294 23.44C210.654 22.92 210.334 22.1133 210.334 21.02C210.334 19.9533 210.754 19.1333 211.594 18.56C212.434 17.9733 213.727 17.6533 215.474 17.6L217.294 17.54V16.9C217.294 16.0067 217.101 15.3867 216.714 15.04C216.327 14.6933 215.781 14.52 215.074 14.52C214.514 14.52 213.981 14.6067 213.474 14.78C212.967 14.94 212.494 15.1267 212.054 15.34L211.514 14.02C211.981 13.7667 212.534 13.5533 213.174 13.38C213.814 13.1933 214.481 13.1 215.174 13.1ZM215.694 18.82C214.361 18.8733 213.434 19.0867 212.914 19.46C212.407 19.8333 212.154 20.36 212.154 21.04C212.154 21.64 212.334 22.08 212.694 22.36C213.067 22.64 213.541 22.78 214.114 22.78C215.021 22.78 215.774 22.5333 216.374 22.04C216.974 21.5333 217.274 20.76 217.274 19.72V18.76L215.694 18.82ZM227.325 13.08C227.525 13.08 227.738 13.0933 227.965 13.12C228.205 13.1333 228.412 13.16 228.585 13.2L228.365 14.82C228.192 14.78 227.998 14.7467 227.785 14.72C227.585 14.6933 227.392 14.68 227.205 14.68C226.658 14.68 226.145 14.8333 225.665 15.14C225.185 15.4333 224.798 15.8533 224.505 16.4C224.225 16.9333 224.085 17.56 224.085 18.28V24H222.325V13.28H223.765L223.965 15.24H224.045C224.392 14.6533 224.838 14.1467 225.385 13.72C225.932 13.2933 226.578 13.08 227.325 13.08ZM228.907 13.28H230.787L233.107 19.38C233.307 19.9133 233.487 20.4267 233.647 20.92C233.807 21.4 233.927 21.86 234.007 22.3H234.087C234.167 21.9667 234.293 21.5333 234.467 21C234.64 20.4533 234.82 19.9067 235.007 19.36L237.187 13.28H239.087L234.467 25.48C234.093 26.4933 233.607 27.3 233.007 27.9C232.42 28.5 231.607 28.8 230.567 28.8C230.247 28.8 229.967 28.78 229.727 28.74C229.487 28.7133 229.28 28.68 229.107 28.64V27.24C229.253 27.2667 229.427 27.2933 229.627 27.32C229.84 27.3467 230.06 27.36 230.287 27.36C230.9 27.36 231.393 27.1867 231.767 26.84C232.153 26.4933 232.453 26.0333 232.667 25.46L233.227 24.04L228.907 13.28Z" fill="black"/>
<path d="M243 31H162V35H243V31Z" fill="#C24438" mask="url(#path-10-inside-3_8579_33782)"/>
<path d="M246.8 19.42V17.86H251.64V19.42H246.8Z" fill="black"/>
<mask id="path-14-inside-4_8579_33782" fill="white">
<path d="M256 0H329V33H256V0Z"/>
</mask>
<path d="M256 0H329V33H256V0Z" fill="#D7E5F5"/>
<path d="M264.5 24.2C263.167 24.2 262.1 23.74 261.3 22.82C260.5 21.8867 260.1 20.5 260.1 18.66C260.1 16.82 260.5 15.4333 261.3 14.5C262.113 13.5533 263.187 13.08 264.52 13.08C265.347 13.08 266.02 13.2333 266.54 13.54C267.073 13.8467 267.507 14.22 267.84 14.66H267.96C267.947 14.4867 267.92 14.2333 267.88 13.9C267.853 13.5533 267.84 13.28 267.84 13.08V8.8H269.6V24H268.18L267.92 22.56H267.84C267.52 23.0133 267.093 23.4 266.56 23.72C266.027 24.04 265.34 24.2 264.5 24.2ZM264.78 22.74C265.913 22.74 266.707 22.4333 267.16 21.82C267.627 21.1933 267.86 20.2533 267.86 19V18.68C267.86 17.3467 267.64 16.3267 267.2 15.62C266.76 14.9 265.947 14.54 264.76 14.54C263.813 14.54 263.1 14.92 262.62 15.68C262.153 16.4267 261.92 17.4333 261.92 18.7C261.92 19.98 262.153 20.9733 262.62 21.68C263.1 22.3867 263.82 22.74 264.78 22.74ZM277.145 13.08C278.065 13.08 278.851 13.28 279.505 13.68C280.171 14.08 280.678 14.6467 281.025 15.38C281.385 16.1 281.565 16.9467 281.565 17.92V18.98H274.225C274.251 20.1933 274.558 21.12 275.145 21.76C275.745 22.3867 276.578 22.7 277.645 22.7C278.325 22.7 278.925 22.64 279.445 22.52C279.978 22.3867 280.525 22.2 281.085 21.96V23.5C280.538 23.74 279.998 23.9133 279.465 24.02C278.931 24.14 278.298 24.2 277.565 24.2C276.551 24.2 275.651 23.9933 274.865 23.58C274.091 23.1667 273.485 22.5533 273.045 21.74C272.618 20.9133 272.405 19.9067 272.405 18.72C272.405 17.5467 272.598 16.54 272.985 15.7C273.385 14.86 273.938 14.2133 274.645 13.76C275.365 13.3067 276.198 13.08 277.145 13.08ZM277.125 14.52C276.285 14.52 275.618 14.7933 275.125 15.34C274.645 15.8733 274.358 16.62 274.265 17.58H279.725C279.711 16.6733 279.498 15.94 279.085 15.38C278.671 14.8067 278.018 14.52 277.125 14.52ZM289.234 14.64H286.534V24H284.774V14.64H282.894V13.82L284.774 13.22V12.6C284.774 11.2133 285.08 10.22 285.694 9.62C286.307 9.00667 287.16 8.7 288.254 8.7C288.68 8.7 289.067 8.74 289.414 8.82C289.774 8.88667 290.08 8.96667 290.334 9.06L289.874 10.44C289.66 10.3733 289.414 10.3067 289.134 10.24C288.854 10.1733 288.567 10.14 288.274 10.14C287.687 10.14 287.247 10.34 286.954 10.74C286.674 11.1267 286.534 11.74 286.534 12.58V13.28H289.234V14.64ZM295.229 13.1C296.535 13.1 297.502 13.3867 298.129 13.96C298.755 14.5333 299.069 15.4467 299.069 16.7V24H297.789L297.449 22.48H297.369C296.902 23.0667 296.409 23.5 295.889 23.78C295.382 24.06 294.675 24.2 293.769 24.2C292.795 24.2 291.989 23.9467 291.349 23.44C290.709 22.92 290.389 22.1133 290.389 21.02C290.389 19.9533 290.809 19.1333 291.649 18.56C292.489 17.9733 293.782 17.6533 295.529 17.6L297.349 17.54V16.9C297.349 16.0067 297.155 15.3867 296.769 15.04C296.382 14.6933 295.835 14.52 295.129 14.52C294.569 14.52 294.035 14.6067 293.529 14.78C293.022 14.94 292.549 15.1267 292.109 15.34L291.569 14.02C292.035 13.7667 292.589 13.5533 293.229 13.38C293.869 13.1933 294.535 13.1 295.229 13.1ZM295.749 18.82C294.415 18.8733 293.489 19.0867 292.969 19.46C292.462 19.8333 292.209 20.36 292.209 21.04C292.209 21.64 292.389 22.08 292.749 22.36C293.122 22.64 293.595 22.78 294.169 22.78C295.075 22.78 295.829 22.5333 296.429 22.04C297.029 21.5333 297.329 20.76 297.329 19.72V18.76L295.749 18.82ZM311.34 13.28V24H309.9L309.64 22.58H309.56C309.213 23.14 308.733 23.5533 308.12 23.82C307.506 24.0733 306.853 24.2 306.16 24.2C304.866 24.2 303.893 23.8933 303.24 23.28C302.586 22.6533 302.26 21.66 302.26 20.3V13.28H304.04V20.18C304.04 21.8867 304.833 22.74 306.42 22.74C307.606 22.74 308.426 22.4067 308.88 21.74C309.346 21.0733 309.58 20.1133 309.58 18.86V13.28H311.34ZM316.503 24H314.743V8.8H316.503V24ZM323.479 22.76C323.746 22.76 324.019 22.74 324.299 22.7C324.579 22.6467 324.806 22.5933 324.979 22.54V23.88C324.793 23.9733 324.526 24.0467 324.179 24.1C323.833 24.1667 323.499 24.2 323.179 24.2C322.619 24.2 322.099 24.1067 321.619 23.92C321.153 23.72 320.773 23.38 320.479 22.9C320.186 22.42 320.039 21.7467 320.039 20.88V14.64H318.519V13.8L320.059 13.1L320.759 10.82H321.799V13.28H324.899V14.64H321.799V20.84C321.799 21.4933 321.953 21.98 322.259 22.3C322.579 22.6067 322.986 22.76 323.479 22.76Z" fill="black"/>
<path d="M329 31H256V35H329V31Z" fill="#6584A6" mask="url(#path-14-inside-4_8579_33782)"/>
<path d="M332.8 19.42V17.86H337.64V19.42H332.8Z" fill="black"/>
<mask id="path-18-inside-5_8579_33782" fill="white">
<path d="M342 0H462V33H342V0Z"/>
</mask>
<path d="M342 0H462V33H342V0Z" fill="#FAEDD1"/>
<path d="M348.46 12.5C348.46 12.9533 348.447 13.38 348.42 13.78C348.407 14.1667 348.387 14.4733 348.36 14.7H348.46C348.767 14.2467 349.187 13.8667 349.72 13.56C350.253 13.2533 350.94 13.1 351.78 13.1C353.113 13.1 354.18 13.5667 354.98 14.5C355.793 15.42 356.2 16.8 356.2 18.64C356.2 20.48 355.793 21.8667 354.98 22.8C354.167 23.7333 353.1 24.2 351.78 24.2C350.94 24.2 350.253 24.0467 349.72 23.74C349.187 23.4333 348.767 23.0667 348.46 22.64H348.32L347.96 24H346.7V8.8H348.46V12.5ZM351.48 14.56C350.347 14.56 349.56 14.8867 349.12 15.54C348.68 16.1933 348.46 17.2067 348.46 18.58V18.66C348.46 19.98 348.673 20.9933 349.1 21.7C349.54 22.3933 350.347 22.74 351.52 22.74C352.48 22.74 353.193 22.3867 353.66 21.68C354.14 20.9733 354.38 19.9533 354.38 18.62C354.38 15.9133 353.413 14.56 351.48 14.56ZM363.065 13.1C364.371 13.1 365.338 13.3867 365.965 13.96C366.591 14.5333 366.905 15.4467 366.905 16.7V24H365.625L365.285 22.48H365.205C364.738 23.0667 364.245 23.5 363.725 23.78C363.218 24.06 362.511 24.2 361.605 24.2C360.631 24.2 359.825 23.9467 359.185 23.44C358.545 22.92 358.225 22.1133 358.225 21.02C358.225 19.9533 358.645 19.1333 359.485 18.56C360.325 17.9733 361.618 17.6533 363.365 17.6L365.185 17.54V16.9C365.185 16.0067 364.991 15.3867 364.605 15.04C364.218 14.6933 363.671 14.52 362.965 14.52C362.405 14.52 361.871 14.6067 361.365 14.78C360.858 14.94 360.385 15.1267 359.945 15.34L359.405 14.02C359.871 13.7667 360.425 13.5533 361.065 13.38C361.705 13.1933 362.371 13.1 363.065 13.1ZM363.585 18.82C362.251 18.8733 361.325 19.0867 360.805 19.46C360.298 19.8333 360.045 20.36 360.045 21.04C360.045 21.64 360.225 22.08 360.585 22.36C360.958 22.64 361.431 22.78 362.005 22.78C362.911 22.78 363.665 22.5333 364.265 22.04C364.865 21.5333 365.165 20.76 365.165 19.72V18.76L363.585 18.82ZM374.516 24.2C373.569 24.2 372.722 24.0067 371.976 23.62C371.242 23.2333 370.662 22.6333 370.236 21.82C369.822 21.0067 369.616 19.9667 369.616 18.7C369.616 17.38 369.836 16.3067 370.276 15.48C370.716 14.6533 371.309 14.0467 372.056 13.66C372.816 13.2733 373.676 13.08 374.636 13.08C375.182 13.08 375.709 13.14 376.216 13.26C376.722 13.3667 377.136 13.5 377.456 13.66L376.916 15.12C376.596 15 376.222 14.8867 375.796 14.78C375.369 14.6733 374.969 14.62 374.596 14.62C372.489 14.62 371.436 15.9733 371.436 18.68C371.436 19.9733 371.689 20.9667 372.196 21.66C372.716 22.34 373.482 22.68 374.496 22.68C375.082 22.68 375.596 22.62 376.036 22.5C376.489 22.38 376.902 22.2333 377.276 22.06V23.62C376.916 23.8067 376.516 23.9467 376.076 24.04C375.649 24.1467 375.129 24.2 374.516 24.2ZM381.565 16.74C381.565 16.9533 381.552 17.2333 381.525 17.58C381.512 17.9267 381.498 18.2267 381.485 18.48H381.565C381.645 18.3733 381.765 18.22 381.925 18.02C382.085 17.82 382.245 17.62 382.405 17.42C382.578 17.2067 382.725 17.0333 382.845 16.9L386.265 13.28H388.325L383.985 17.86L388.625 24H386.505L382.785 19L381.565 20.06V24H379.825V8.8H381.565V16.74ZM394.309 13.08C395.015 13.08 395.649 13.2133 396.209 13.48C396.782 13.7467 397.269 14.1533 397.669 14.7H397.769L398.009 13.28H399.409V24.18C399.409 25.7133 399.015 26.8667 398.229 27.64C397.455 28.4133 396.249 28.8 394.609 28.8C393.035 28.8 391.749 28.5733 390.749 28.12V26.5C391.802 27.06 393.122 27.34 394.709 27.34C395.629 27.34 396.349 27.0667 396.869 26.52C397.402 25.9867 397.669 25.2533 397.669 24.32V23.9C397.669 23.74 397.675 23.5133 397.689 23.22C397.702 22.9133 397.715 22.7 397.729 22.58H397.649C396.929 23.66 395.822 24.2 394.329 24.2C392.942 24.2 391.855 23.7133 391.069 22.74C390.295 21.7667 389.909 20.4067 389.909 18.66C389.909 16.9533 390.295 15.6 391.069 14.6C391.855 13.5867 392.935 13.08 394.309 13.08ZM394.549 14.56C393.655 14.56 392.962 14.92 392.469 15.64C391.975 16.3467 391.729 17.36 391.729 18.68C391.729 20 391.969 21.0133 392.449 21.72C392.942 22.4133 393.655 22.76 394.589 22.76C395.669 22.76 396.455 22.4733 396.949 21.9C397.442 21.3133 397.689 20.3733 397.689 19.08V18.66C397.689 17.1933 397.435 16.1467 396.929 15.52C396.422 14.88 395.629 14.56 394.549 14.56ZM407.813 13.08C408.013 13.08 408.227 13.0933 408.453 13.12C408.693 13.1333 408.9 13.16 409.073 13.2L408.853 14.82C408.68 14.78 408.487 14.7467 408.273 14.72C408.073 14.6933 407.88 14.68 407.693 14.68C407.147 14.68 406.633 14.8333 406.153 15.14C405.673 15.4333 405.287 15.8533 404.993 16.4C404.713 16.9333 404.573 17.56 404.573 18.28V24H402.813V13.28H404.253L404.453 15.24H404.533C404.88 14.6533 405.327 14.1467 405.873 13.72C406.42 13.2933 407.067 13.08 407.813 13.08ZM420.004 18.62C420.004 20.3933 419.551 21.7667 418.644 22.74C417.751 23.7133 416.538 24.2 415.004 24.2C414.058 24.2 413.211 23.9867 412.464 23.56C411.731 23.12 411.151 22.4867 410.724 21.66C410.298 20.82 410.084 19.8067 410.084 18.62C410.084 16.8467 410.531 15.48 411.424 14.52C412.318 13.56 413.531 13.08 415.064 13.08C416.038 13.08 416.891 13.3 417.624 13.74C418.371 14.1667 418.951 14.7933 419.364 15.62C419.791 16.4333 420.004 17.4333 420.004 18.62ZM411.904 18.62C411.904 19.8867 412.151 20.8933 412.644 21.64C413.151 22.3733 413.951 22.74 415.044 22.74C416.124 22.74 416.918 22.3733 417.424 21.64C417.931 20.8933 418.184 19.8867 418.184 18.62C418.184 17.3533 417.931 16.36 417.424 15.64C416.918 14.92 416.118 14.56 415.024 14.56C413.931 14.56 413.138 14.92 412.644 15.64C412.151 16.36 411.904 17.3533 411.904 18.62ZM431.754 13.28V24H430.314L430.054 22.58H429.974C429.627 23.14 429.147 23.5533 428.534 23.82C427.92 24.0733 427.267 24.2 426.574 24.2C425.28 24.2 424.307 23.8933 423.654 23.28C423 22.6533 422.674 21.66 422.674 20.3V13.28H424.454V20.18C424.454 21.8867 425.247 22.74 426.834 22.74C428.02 22.74 428.84 22.4067 429.294 21.74C429.76 21.0733 429.994 20.1133 429.994 18.86V13.28H431.754ZM440.317 13.08C441.597 13.08 442.564 13.3933 443.217 14.02C443.87 14.6333 444.197 15.6333 444.197 17.02V24H442.457V17.14C442.457 15.42 441.657 14.56 440.057 14.56C438.87 14.56 438.05 14.8933 437.597 15.56C437.144 16.2267 436.917 17.1867 436.917 18.44V24H435.157V13.28H436.577L436.837 14.74H436.937C437.284 14.18 437.764 13.7667 438.377 13.5C438.99 13.22 439.637 13.08 440.317 13.08ZM451.32 24.2C449.987 24.2 448.92 23.74 448.12 22.82C447.32 21.8867 446.92 20.5 446.92 18.66C446.92 16.82 447.32 15.4333 448.12 14.5C448.934 13.5533 450.007 13.08 451.34 13.08C452.167 13.08 452.84 13.2333 453.36 13.54C453.894 13.8467 454.327 14.22 454.66 14.66H454.78C454.767 14.4867 454.74 14.2333 454.7 13.9C454.674 13.5533 454.66 13.28 454.66 13.08V8.8H456.42V24H455L454.74 22.56H454.66C454.34 23.0133 453.914 23.4 453.38 23.72C452.847 24.04 452.16 24.2 451.32 24.2ZM451.6 22.74C452.734 22.74 453.527 22.4333 453.98 21.82C454.447 21.1933 454.68 20.2533 454.68 19V18.68C454.68 17.3467 454.46 16.3267 454.02 15.62C453.58 14.9 452.767 14.54 451.58 14.54C450.634 14.54 449.92 14.92 449.44 15.68C448.974 16.4267 448.74 17.4333 448.74 18.7C448.74 19.98 448.974 20.9733 449.44 21.68C449.92 22.3867 450.64 22.74 451.6 22.74Z" fill="black"/>
<path d="M462 31H342V35H462V31Z" fill="#B3800F" mask="url(#path-18-inside-5_8579_33782)"/>
<g filter="url(#filter0_d_8579_33782)">
<path d="M39 33V52" stroke="#7D828B" stroke-width="2"/>
</g>
<path d="M20.228 68.3194C21.8856 68.3194 23.0932 68.645 23.851 69.2962C24.6088 69.9474 24.9876 70.865 24.9876 72.049C24.9876 72.7475 24.8278 73.4046 24.5081 74.0203C24.2003 74.6242 23.6734 75.1155 22.9275 75.4944C22.1934 75.8733 21.1929 76.0627 19.926 76.0627H18.4697V81H16.8713V68.3194H20.228ZM20.0859 69.6869H18.4697V74.6952H19.7484C20.9561 74.6952 21.856 74.4998 22.448 74.1091C23.04 73.7184 23.336 73.0554 23.336 72.12C23.336 71.303 23.0755 70.6933 22.5545 70.2907C22.0336 69.8882 21.2107 69.6869 20.0859 69.6869ZM31.8513 71.303C32.0289 71.303 32.2184 71.3149 32.4196 71.3386C32.6328 71.3504 32.8163 71.3741 32.9702 71.4096L32.7748 72.8482C32.6209 72.8126 32.4492 72.783 32.2598 72.7594C32.0822 72.7357 31.9105 72.7238 31.7448 72.7238C31.2593 72.7238 30.8035 72.86 30.3772 73.1323C29.951 73.3928 29.6076 73.7658 29.3472 74.2512C29.0985 74.7248 28.9742 75.2813 28.9742 75.9206V81H27.4113V71.4806H28.69L28.8676 73.2211H28.9387C29.2465 72.7002 29.6432 72.2502 30.1286 71.8714C30.614 71.4925 31.1883 71.303 31.8513 71.303ZM38.0772 71.303C38.8941 71.303 39.5927 71.4806 40.1729 71.8358C40.7649 72.191 41.2148 72.6942 41.5226 73.3454C41.8423 73.9848 42.0021 74.7366 42.0021 75.601V76.5422H35.4842C35.5079 77.6197 35.7802 78.4426 36.3012 79.0109C36.834 79.5674 37.574 79.8456 38.5212 79.8456C39.125 79.8456 39.6578 79.7923 40.1196 79.6858C40.5932 79.5674 41.0786 79.4016 41.5759 79.1885V80.556C41.0905 80.7691 40.6109 80.923 40.1373 81.0178C39.6637 81.1243 39.1013 81.1776 38.4501 81.1776C37.5503 81.1776 36.7511 80.9941 36.0525 80.627C35.3658 80.26 34.8271 79.7154 34.4364 78.9931C34.0575 78.259 33.8681 77.3651 33.8681 76.3114C33.8681 75.2694 34.0397 74.3755 34.3831 73.6296C34.7383 72.8837 35.2297 72.3094 35.8572 71.9069C36.4965 71.5043 37.2365 71.303 38.0772 71.303ZM38.0594 72.5818C37.3135 72.5818 36.7215 72.8245 36.2834 73.3099C35.8572 73.7835 35.6026 74.4466 35.5197 75.299H40.3682C40.3564 74.4939 40.1669 73.8427 39.7999 73.3454C39.4329 72.8363 38.8527 72.5818 38.0594 72.5818ZM48.8123 72.6883H46.4147V81H44.8518V72.6883H43.1823V71.9602L44.8518 71.4274V70.8768C44.8518 69.6454 45.1241 68.7634 45.6687 68.2306C46.2134 67.6859 46.9711 67.4136 47.942 67.4136C48.3209 67.4136 48.6643 67.4491 48.9721 67.5202C49.2918 67.5794 49.5641 67.6504 49.7891 67.7333L49.3806 68.9587C49.1911 68.8995 48.9721 68.8403 48.7235 68.7811C48.4748 68.7219 48.2203 68.6923 47.9598 68.6923C47.4388 68.6923 47.0481 68.8699 46.7876 69.2251C46.539 69.5685 46.4147 70.1131 46.4147 70.859V71.4806H48.8123V72.6883ZM51.3342 67.9109C51.571 67.9109 51.7782 67.9938 51.9558 68.1595C52.1452 68.3134 52.2399 68.5621 52.2399 68.9054C52.2399 69.237 52.1452 69.4856 51.9558 69.6514C51.7782 69.8171 51.571 69.9 51.3342 69.9C51.0737 69.9 50.8547 69.8171 50.6771 69.6514C50.4995 69.4856 50.4107 69.237 50.4107 68.9054C50.4107 68.5621 50.4995 68.3134 50.6771 68.1595C50.8547 67.9938 51.0737 67.9109 51.3342 67.9109ZM52.0979 71.4806V81H50.535V71.4806H52.0979ZM57.3648 76.1338L54.0792 71.4806H55.8552L58.3061 75.0682L60.7392 71.4806H62.4975L59.2118 76.1338L62.6751 81H60.899L58.3061 77.1994L55.6776 81H53.9194L57.3648 76.1338Z" fill="black"/>
<rect x="1" y="53" width="76" height="42" stroke="#7D828B" stroke-width="2"/>
<g filter="url(#filter1_d_8579_33782)">
<path d="M114 33V108" stroke="#289F58" stroke-width="2"/>
</g>
<path d="M83.3132 125.545C81.9516 125.545 80.8801 126.001 80.0987 126.912C79.3172 127.824 78.9265 129.073 78.9265 130.66C78.9265 132.234 79.2876 133.484 80.0099 134.407C80.7439 135.319 81.8391 135.775 83.2955 135.775C83.8519 135.775 84.3788 135.727 84.8761 135.632C85.3734 135.538 85.8588 135.419 86.3324 135.277V136.663C85.8588 136.84 85.3675 136.97 84.8583 137.053C84.3611 137.136 83.7631 137.178 83.0646 137.178C81.774 137.178 80.6966 136.911 79.8323 136.378C78.9679 135.846 78.3167 135.088 77.8787 134.105C77.4524 133.122 77.2393 131.968 77.2393 130.642C77.2393 129.363 77.4702 128.238 77.9319 127.268C78.4055 126.285 79.0982 125.521 80.0099 124.976C80.9215 124.42 82.0286 124.142 83.331 124.142C84.6689 124.142 85.8351 124.39 86.8297 124.888L86.1903 126.237C85.7996 126.06 85.3615 125.9 84.8761 125.758C84.4025 125.616 83.8815 125.545 83.3132 125.545ZM92.4922 127.321C93.6525 127.321 94.5109 127.575 95.0674 128.084C95.6239 128.594 95.9021 129.405 95.9021 130.518V137H94.7655L94.4636 135.65H94.3925C93.9781 136.171 93.5401 136.556 93.0783 136.805C92.6284 137.053 92.0009 137.178 91.1957 137.178C90.3314 137.178 89.6151 136.953 89.0468 136.503C88.4785 136.041 88.1943 135.325 88.1943 134.354C88.1943 133.407 88.5673 132.678 89.3132 132.169C90.0591 131.648 91.2076 131.364 92.7586 131.317L94.3748 131.264V130.695C94.3748 129.902 94.2031 129.351 93.8597 129.044C93.5164 128.736 93.0309 128.582 92.4034 128.582C91.9061 128.582 91.4325 128.659 90.9826 128.813C90.5327 128.955 90.1124 129.12 89.7217 129.31L89.2421 128.138C89.6565 127.913 90.1479 127.723 90.7162 127.569C91.2845 127.404 91.8765 127.321 92.4922 127.321ZM92.954 132.4C91.77 132.448 90.9471 132.637 90.4853 132.968C90.0354 133.3 89.8105 133.768 89.8105 134.372C89.8105 134.904 89.9703 135.295 90.29 135.544C90.6215 135.792 91.0418 135.917 91.5509 135.917C92.3561 135.917 93.025 135.698 93.5578 135.26C94.0906 134.81 94.357 134.123 94.357 133.199V132.347L92.954 132.4ZM102.021 135.899C102.258 135.899 102.501 135.881 102.749 135.846C102.998 135.798 103.199 135.751 103.353 135.704V136.893C103.188 136.976 102.951 137.041 102.643 137.089C102.335 137.148 102.039 137.178 101.755 137.178C101.258 137.178 100.796 137.095 100.37 136.929C99.9552 136.751 99.6178 136.449 99.3573 136.023C99.0968 135.597 98.9666 134.999 98.9666 134.229V128.688H97.6168V127.942L98.9843 127.321L99.6059 125.296H100.529V127.481H103.282V128.688H100.529V134.194C100.529 134.774 100.666 135.206 100.938 135.49C101.222 135.763 101.583 135.899 102.021 135.899ZM108.936 127.303C109.753 127.303 110.451 127.481 111.031 127.836C111.623 128.191 112.073 128.694 112.381 129.345C112.701 129.985 112.861 130.737 112.861 131.601V132.542H106.343C106.366 133.62 106.639 134.443 107.16 135.011C107.693 135.567 108.433 135.846 109.38 135.846C109.984 135.846 110.516 135.792 110.978 135.686C111.452 135.567 111.937 135.402 112.434 135.188V136.556C111.949 136.769 111.47 136.923 110.996 137.018C110.522 137.124 109.96 137.178 109.309 137.178C108.409 137.178 107.61 136.994 106.911 136.627C106.224 136.26 105.686 135.715 105.295 134.993C104.916 134.259 104.727 133.365 104.727 132.311C104.727 131.269 104.898 130.376 105.242 129.63C105.597 128.884 106.088 128.309 106.716 127.907C107.355 127.504 108.095 127.303 108.936 127.303ZM108.918 128.582C108.172 128.582 107.58 128.824 107.142 129.31C106.716 129.784 106.461 130.447 106.378 131.299H111.227C111.215 130.494 111.026 129.843 110.658 129.345C110.291 128.836 109.711 128.582 108.918 128.582ZM118.659 127.303C119.286 127.303 119.848 127.421 120.346 127.658C120.855 127.895 121.287 128.256 121.642 128.742H121.731L121.944 127.481H123.187V137.16C123.187 138.521 122.838 139.546 122.139 140.232C121.453 140.919 120.381 141.262 118.925 141.262C117.528 141.262 116.385 141.061 115.497 140.659V139.22C116.433 139.717 117.605 139.966 119.014 139.966C119.831 139.966 120.47 139.723 120.932 139.238C121.405 138.764 121.642 138.113 121.642 137.284V136.911C121.642 136.769 121.648 136.568 121.66 136.307C121.672 136.035 121.684 135.846 121.695 135.739H121.624C120.985 136.698 120.002 137.178 118.676 137.178C117.445 137.178 116.48 136.745 115.781 135.881C115.095 135.017 114.751 133.809 114.751 132.258C114.751 130.743 115.095 129.541 115.781 128.653C116.48 127.753 117.439 127.303 118.659 127.303ZM118.872 128.617C118.078 128.617 117.463 128.937 117.025 129.576C116.587 130.204 116.367 131.104 116.367 132.276C116.367 133.448 116.581 134.348 117.007 134.975C117.445 135.591 118.078 135.899 118.907 135.899C119.866 135.899 120.565 135.644 121.003 135.135C121.441 134.614 121.66 133.78 121.66 132.631V132.258C121.66 130.956 121.435 130.026 120.985 129.47C120.535 128.901 119.831 128.617 118.872 128.617ZM134.487 132.223C134.487 133.797 134.084 135.017 133.279 135.881C132.486 136.745 131.408 137.178 130.047 137.178C129.206 137.178 128.454 136.988 127.791 136.609C127.14 136.219 126.625 135.656 126.246 134.922C125.867 134.176 125.678 133.276 125.678 132.223C125.678 130.648 126.075 129.434 126.868 128.582C127.661 127.729 128.739 127.303 130.1 127.303C130.964 127.303 131.722 127.498 132.373 127.889C133.036 128.268 133.551 128.824 133.919 129.559C134.297 130.281 134.487 131.169 134.487 132.223ZM127.294 132.223C127.294 133.347 127.513 134.241 127.951 134.904C128.401 135.556 129.111 135.881 130.082 135.881C131.041 135.881 131.746 135.556 132.196 134.904C132.646 134.241 132.871 133.347 132.871 132.223C132.871 131.098 132.646 130.216 132.196 129.576C131.746 128.937 131.035 128.617 130.065 128.617C129.094 128.617 128.389 128.937 127.951 129.576C127.513 130.216 127.294 131.098 127.294 132.223ZM141.404 127.303C141.581 127.303 141.771 127.315 141.972 127.339C142.185 127.35 142.369 127.374 142.523 127.41L142.327 128.848C142.173 128.813 142.002 128.783 141.812 128.759C141.635 128.736 141.463 128.724 141.297 128.724C140.812 128.724 140.356 128.86 139.93 129.132C139.504 129.393 139.16 129.766 138.9 130.251C138.651 130.725 138.527 131.281 138.527 131.921V137H136.964V127.481H138.243L138.42 129.221H138.491C138.799 128.7 139.196 128.25 139.681 127.871C140.167 127.492 140.741 127.303 141.404 127.303ZM142.808 127.481H144.478L146.538 132.897C146.716 133.371 146.875 133.827 147.018 134.265C147.16 134.691 147.266 135.1 147.337 135.49H147.408C147.479 135.194 147.592 134.81 147.746 134.336C147.9 133.851 148.059 133.365 148.225 132.88L150.161 127.481H151.848L147.746 138.314C147.414 139.214 146.982 139.93 146.449 140.463C145.928 140.996 145.206 141.262 144.282 141.262C143.998 141.262 143.75 141.245 143.537 141.209C143.323 141.185 143.14 141.156 142.986 141.12V139.877C143.116 139.901 143.27 139.924 143.448 139.948C143.637 139.972 143.833 139.984 144.034 139.984C144.578 139.984 145.017 139.83 145.348 139.522C145.691 139.214 145.958 138.806 146.147 138.296L146.645 137.036L142.808 127.481ZM60.0602 158.134C60.0602 156.689 60.2674 155.298 60.6818 153.96C61.1081 152.61 61.7711 151.397 62.671 150.319H64.145C63.3162 151.432 62.6887 152.658 62.2625 153.996C61.8481 155.334 61.6409 156.707 61.6409 158.116C61.6409 159.489 61.8481 160.839 62.2625 162.165C62.6887 163.48 63.3103 164.693 64.1273 165.806H62.671C61.7711 164.764 61.1081 163.586 60.6818 162.272C60.2674 160.946 60.0602 159.566 60.0602 158.134ZM71.8317 151.545C70.4701 151.545 69.3985 152.001 68.6171 152.912C67.8357 153.824 67.4449 155.073 67.4449 156.66C67.4449 158.234 67.8061 159.484 68.5283 160.407C69.2624 161.319 70.3576 161.775 71.8139 161.775C72.3704 161.775 72.8973 161.727 73.3945 161.632C73.8918 161.538 74.3773 161.419 74.8509 161.277V162.663C74.3773 162.84 73.8859 162.97 73.3768 163.053C72.8795 163.136 72.2816 163.178 71.583 163.178C70.2925 163.178 69.215 162.911 68.3507 162.378C67.4864 161.846 66.8352 161.088 66.3971 160.105C65.9709 159.122 65.7577 157.968 65.7577 156.642C65.7577 155.363 65.9886 154.238 66.4504 153.268C66.924 152.285 67.6166 151.521 68.5283 150.976C69.44 150.42 70.547 150.142 71.8494 150.142C73.1873 150.142 74.3536 150.39 75.3481 150.888L74.7088 152.237C74.3181 152.06 73.88 151.9 73.3945 151.758C72.9209 151.616 72.4 151.545 71.8317 151.545ZM85.6815 158.223C85.6815 159.797 85.279 161.017 84.4739 161.881C83.6806 162.745 82.6031 163.178 81.2415 163.178C80.4009 163.178 79.6491 162.988 78.986 162.609C78.3348 162.219 77.8198 161.656 77.4409 160.922C77.062 160.176 76.8726 159.276 76.8726 158.223C76.8726 156.648 77.2692 155.434 78.0625 154.582C78.8558 153.729 79.9332 153.303 81.2948 153.303C82.1591 153.303 82.9169 153.498 83.5681 153.889C84.2311 154.268 84.7462 154.824 85.1132 155.559C85.4921 156.281 85.6815 157.169 85.6815 158.223ZM78.4887 158.223C78.4887 159.347 78.7078 160.241 79.1459 160.904C79.5958 161.556 80.3062 161.881 81.2771 161.881C82.2361 161.881 82.9406 161.556 83.3905 160.904C83.8404 160.241 84.0654 159.347 84.0654 158.223C84.0654 157.098 83.8404 156.216 83.3905 155.576C82.9406 154.937 82.2302 154.617 81.2593 154.617C80.2884 154.617 79.5839 154.937 79.1459 155.576C78.7078 156.216 78.4887 157.098 78.4887 158.223ZM98.6014 153.303C99.6788 153.303 100.484 153.581 101.017 154.138C101.55 154.682 101.816 155.57 101.816 156.802V163H100.271V156.873C100.271 155.369 99.6255 154.617 98.335 154.617C97.4115 154.617 96.7484 154.884 96.3459 155.416C95.9551 155.949 95.7598 156.725 95.7598 157.743V163H94.2147V156.873C94.2147 155.369 93.5635 154.617 92.2611 154.617C91.302 154.617 90.639 154.913 90.2719 155.505C89.9049 156.097 89.7214 156.95 89.7214 158.063V163H88.1585V153.481H89.4195L89.6503 154.777H89.7391C90.0351 154.28 90.4318 153.913 90.9291 153.676C91.4382 153.427 91.9769 153.303 92.5452 153.303C94.0371 153.303 95.0079 153.836 95.4579 154.901H95.5467C95.8663 154.357 96.2985 153.954 96.8431 153.694C97.3996 153.433 97.9857 153.303 98.6014 153.303ZM109.285 153.303C110.457 153.303 111.399 153.712 112.109 154.528C112.831 155.345 113.192 156.577 113.192 158.223C113.192 159.845 112.831 161.076 112.109 161.917C111.399 162.757 110.452 163.178 109.268 163.178C108.533 163.178 107.924 163.041 107.438 162.769C106.965 162.485 106.592 162.159 106.319 161.792H106.213C106.236 161.994 106.26 162.248 106.284 162.556C106.308 162.864 106.319 163.13 106.319 163.355V167.262H104.756V153.481H106.035L106.248 154.777H106.319C106.604 154.363 106.976 154.013 107.438 153.729C107.9 153.445 108.516 153.303 109.285 153.303ZM109.001 154.617C108.03 154.617 107.344 154.89 106.941 155.434C106.55 155.979 106.343 156.808 106.319 157.921V158.223C106.319 159.395 106.509 160.3 106.888 160.94C107.278 161.567 107.995 161.881 109.037 161.881C109.617 161.881 110.09 161.721 110.457 161.402C110.836 161.082 111.115 160.65 111.292 160.105C111.482 159.549 111.576 158.915 111.576 158.205C111.576 157.116 111.363 156.245 110.937 155.594C110.523 154.943 109.877 154.617 109.001 154.617ZM123.959 158.223C123.959 159.797 123.557 161.017 122.752 161.881C121.958 162.745 120.881 163.178 119.519 163.178C118.679 163.178 117.927 162.988 117.264 162.609C116.612 162.219 116.097 161.656 115.719 160.922C115.34 160.176 115.15 159.276 115.15 158.223C115.15 156.648 115.547 155.434 116.34 154.582C117.133 153.729 118.211 153.303 119.572 153.303C120.437 153.303 121.195 153.498 121.846 153.889C122.509 154.268 123.024 154.824 123.391 155.559C123.77 156.281 123.959 157.169 123.959 158.223ZM116.766 158.223C116.766 159.347 116.985 160.241 117.424 160.904C117.873 161.556 118.584 161.881 119.555 161.881C120.514 161.881 121.218 161.556 121.668 160.904C122.118 160.241 122.343 159.347 122.343 158.223C122.343 157.098 122.118 156.216 121.668 155.576C121.218 154.937 120.508 154.617 119.537 154.617C118.566 154.617 117.862 154.937 117.424 155.576C116.985 156.216 116.766 157.098 116.766 158.223ZM131.018 153.303C132.155 153.303 133.013 153.581 133.593 154.138C134.174 154.682 134.464 155.57 134.464 156.802V163H132.919V156.908C132.919 155.381 132.208 154.617 130.787 154.617C129.734 154.617 129.005 154.913 128.603 155.505C128.2 156.097 127.999 156.95 127.999 158.063V163H126.436V153.481H127.697L127.928 154.777H128.017C128.325 154.28 128.751 153.913 129.296 153.676C129.84 153.427 130.414 153.303 131.018 153.303ZM141.091 153.303C141.908 153.303 142.607 153.481 143.187 153.836C143.779 154.191 144.229 154.694 144.537 155.345C144.856 155.985 145.016 156.737 145.016 157.601V158.542H138.498C138.522 159.62 138.794 160.443 139.315 161.011C139.848 161.567 140.588 161.846 141.535 161.846C142.139 161.846 142.672 161.792 143.133 161.686C143.607 161.567 144.093 161.402 144.59 161.188V162.556C144.104 162.769 143.625 162.923 143.151 163.018C142.678 163.124 142.115 163.178 141.464 163.178C140.564 163.178 139.765 162.994 139.066 162.627C138.38 162.26 137.841 161.715 137.45 160.993C137.071 160.259 136.882 159.365 136.882 158.311C136.882 157.269 137.054 156.376 137.397 155.63C137.752 154.884 138.244 154.309 138.871 153.907C139.51 153.504 140.25 153.303 141.091 153.303ZM141.073 154.582C140.327 154.582 139.735 154.824 139.297 155.31C138.871 155.784 138.617 156.447 138.534 157.299H143.382C143.37 156.494 143.181 155.843 142.814 155.345C142.447 154.836 141.867 154.582 141.073 154.582ZM152.022 153.303C153.158 153.303 154.017 153.581 154.597 154.138C155.177 154.682 155.467 155.57 155.467 156.802V163H153.922V156.908C153.922 155.381 153.211 154.617 151.791 154.617C150.737 154.617 150.009 154.913 149.606 155.505C149.204 156.097 149.002 156.95 149.002 158.063V163H147.439V153.481H148.7L148.931 154.777H149.02C149.328 154.28 149.754 153.913 150.299 153.676C150.843 153.427 151.418 153.303 152.022 153.303ZM161.597 161.899C161.834 161.899 162.077 161.881 162.325 161.846C162.574 161.798 162.775 161.751 162.929 161.704V162.893C162.763 162.976 162.527 163.041 162.219 163.089C161.911 163.148 161.615 163.178 161.331 163.178C160.833 163.178 160.372 163.095 159.945 162.929C159.531 162.751 159.194 162.449 158.933 162.023C158.673 161.597 158.542 160.999 158.542 160.229V154.688H157.193V153.942L158.56 153.321L159.182 151.296H160.105V153.481H162.858V154.688H160.105V160.194C160.105 160.774 160.241 161.206 160.514 161.49C160.798 161.763 161.159 161.899 161.597 161.899ZM167.943 158.134C167.943 159.566 167.73 160.946 167.304 162.272C166.889 163.586 166.232 164.764 165.333 165.806H163.876C164.693 164.693 165.309 163.48 165.723 162.165C166.149 160.839 166.363 159.489 166.363 158.116C166.363 156.707 166.149 155.334 165.723 153.996C165.309 152.658 164.687 151.432 163.858 150.319H165.333C166.232 151.397 166.889 152.61 167.304 153.96C167.73 155.298 167.943 156.689 167.943 158.134Z" fill="black"/>
<rect x="45" y="109" width="138" height="68" stroke="#289F58" stroke-width="2"/>
<g filter="url(#filter2_d_8579_33782)">
<path d="M202.5 33V52" stroke="#C24438" stroke-width="2"/>
</g>
<path d="M189.817 68.3194C191.392 68.3194 192.552 68.6213 193.298 69.2251C194.056 69.8171 194.435 70.717 194.435 71.9246C194.435 72.5995 194.31 73.1619 194.062 73.6118C193.813 74.0618 193.493 74.4229 193.103 74.6952C192.724 74.9557 192.321 75.1629 191.895 75.3168L195.376 81H193.511L190.439 75.7608H187.917V81H186.318V68.3194H189.817ZM189.728 69.7046H187.917V74.411H189.817C190.847 74.411 191.599 74.2098 192.072 73.8072C192.546 73.3928 192.783 72.789 192.783 71.9957C192.783 71.1669 192.534 70.5808 192.037 70.2374C191.54 69.8822 190.77 69.7046 189.728 69.7046ZM205.429 76.2226C205.429 77.7973 205.027 79.0168 204.222 79.8811C203.428 80.7454 202.351 81.1776 200.989 81.1776C200.149 81.1776 199.397 80.9882 198.734 80.6093C198.082 80.2186 197.567 79.6562 197.189 78.9221C196.81 78.1762 196.62 77.2763 196.62 76.2226C196.62 74.6478 197.017 73.4342 197.81 72.5818C198.603 71.7293 199.681 71.303 201.042 71.303C201.907 71.303 202.665 71.4984 203.316 71.8891C203.979 72.268 204.494 72.8245 204.861 73.5586C205.24 74.2808 205.429 75.1688 205.429 76.2226ZM198.236 76.2226C198.236 77.3474 198.455 78.2413 198.894 78.9043C199.343 79.5555 200.054 79.8811 201.025 79.8811C201.984 79.8811 202.688 79.5555 203.138 78.9043C203.588 78.2413 203.813 77.3474 203.813 76.2226C203.813 75.0978 203.588 74.2157 203.138 73.5763C202.688 72.937 201.978 72.6173 201.007 72.6173C200.036 72.6173 199.332 72.937 198.894 73.5763C198.455 74.2157 198.236 75.0978 198.236 76.2226ZM209.469 81H207.906V67.5024H209.469V81ZM216.161 71.303C216.978 71.303 217.677 71.4806 218.257 71.8358C218.849 72.191 219.299 72.6942 219.607 73.3454C219.926 73.9848 220.086 74.7366 220.086 75.601V76.5422H213.568C213.592 77.6197 213.864 78.4426 214.385 79.0109C214.918 79.5674 215.658 79.8456 216.605 79.8456C217.209 79.8456 217.742 79.7923 218.204 79.6858C218.677 79.5674 219.163 79.4016 219.66 79.1885V80.556C219.175 80.7691 218.695 80.923 218.221 81.0178C217.748 81.1243 217.185 81.1776 216.534 81.1776C215.634 81.1776 214.835 80.9941 214.137 80.627C213.45 80.26 212.911 79.7154 212.52 78.9931C212.142 78.259 211.952 77.3651 211.952 76.3114C211.952 75.2694 212.124 74.3755 212.467 73.6296C212.822 72.8837 213.314 72.3094 213.941 71.9069C214.581 71.5043 215.321 71.303 216.161 71.303ZM216.143 72.5818C215.398 72.5818 214.806 72.8245 214.367 73.3099C213.941 73.7835 213.687 74.4466 213.604 75.299H218.452C218.44 74.4939 218.251 73.8427 217.884 73.3454C217.517 72.8363 216.937 72.5818 216.143 72.5818Z" fill="black"/>
<rect x="170" y="53" width="65" height="42" stroke="#C24438" stroke-width="2"/>
<g filter="url(#filter3_d_8579_33782)">
<path d="M290.5 33V52" stroke="#6584A6" stroke-width="2"/>
</g>
<path d="M278.354 77.6078C278.354 78.7326 277.945 79.6088 277.129 80.2363C276.312 80.8638 275.21 81.1776 273.825 81.1776C273.115 81.1776 272.458 81.1243 271.854 81.0178C271.25 80.9112 270.747 80.7632 270.344 80.5738V79.0464C270.77 79.2358 271.297 79.4075 271.925 79.5614C272.564 79.7154 273.221 79.7923 273.896 79.7923C274.843 79.7923 275.554 79.6088 276.027 79.2418C276.513 78.8747 276.756 78.3774 276.756 77.7499C276.756 77.3355 276.667 76.9862 276.489 76.7021C276.312 76.4179 276.004 76.1574 275.566 75.9206C275.139 75.672 274.541 75.4115 273.772 75.1392C272.694 74.7485 271.877 74.269 271.321 73.7006C270.776 73.1323 270.504 72.3568 270.504 71.3741C270.504 70.6992 270.676 70.125 271.019 69.6514C271.362 69.1659 271.836 68.793 272.44 68.5325C273.056 68.272 273.76 68.1418 274.553 68.1418C275.252 68.1418 275.891 68.2069 276.471 68.3371C277.052 68.4674 277.578 68.639 278.052 68.8522L277.555 70.2197C277.117 70.0302 276.637 69.8704 276.116 69.7402C275.607 69.6099 275.074 69.5448 274.518 69.5448C273.725 69.5448 273.127 69.7165 272.724 70.0598C272.321 70.3914 272.12 70.8354 272.12 71.3918C272.12 71.8181 272.209 72.1733 272.387 72.4574C272.564 72.7416 272.854 72.9962 273.257 73.2211C273.659 73.4461 274.204 73.6888 274.891 73.9493C275.637 74.2216 276.264 74.5176 276.773 74.8373C277.294 75.1451 277.685 75.5181 277.945 75.9562C278.218 76.3942 278.354 76.9448 278.354 77.6078ZM283.874 79.8989C284.111 79.8989 284.354 79.8811 284.602 79.8456C284.851 79.7982 285.052 79.7509 285.206 79.7035V80.8934C285.041 80.9763 284.804 81.0414 284.496 81.0888C284.188 81.148 283.892 81.1776 283.608 81.1776C283.111 81.1776 282.649 81.0947 282.223 80.929C281.808 80.7514 281.471 80.4494 281.21 80.0232C280.95 79.597 280.82 78.999 280.82 78.2294V72.6883H279.47V71.9424L280.837 71.3208L281.459 69.2962H282.382V71.4806H285.135V72.6883H282.382V78.1939C282.382 78.7741 282.519 79.2062 282.791 79.4904C283.075 79.7627 283.436 79.8989 283.874 79.8989ZM290.718 71.3208C291.878 71.3208 292.736 71.5754 293.293 72.0845C293.849 72.5936 294.128 73.4046 294.128 74.5176V81H292.991L292.689 79.6502H292.618C292.204 80.1712 291.766 80.556 291.304 80.8046C290.854 81.0533 290.226 81.1776 289.421 81.1776C288.557 81.1776 287.841 80.9526 287.272 80.5027C286.704 80.041 286.42 79.3246 286.42 78.3538C286.42 77.4066 286.793 76.6784 287.539 76.1693C288.285 75.6483 289.433 75.3642 290.984 75.3168L292.6 75.2635V74.6952C292.6 73.9019 292.429 73.3514 292.085 73.0435C291.742 72.7357 291.256 72.5818 290.629 72.5818C290.132 72.5818 289.658 72.6587 289.208 72.8126C288.758 72.9547 288.338 73.1205 287.947 73.3099L287.468 72.1378C287.882 71.9128 288.373 71.7234 288.942 71.5694C289.51 71.4037 290.102 71.3208 290.718 71.3208ZM291.179 76.4002C289.995 76.4475 289.173 76.637 288.711 76.9685C288.261 77.3 288.036 77.7677 288.036 78.3715C288.036 78.9043 288.196 79.295 288.515 79.5437C288.847 79.7923 289.267 79.9166 289.776 79.9166C290.582 79.9166 291.25 79.6976 291.783 79.2595C292.316 78.8096 292.582 78.1229 292.582 77.1994V76.3469L291.179 76.4002ZM300.247 79.8989C300.484 79.8989 300.726 79.8811 300.975 79.8456C301.224 79.7982 301.425 79.7509 301.579 79.7035V80.8934C301.413 80.9763 301.176 81.0414 300.868 81.0888C300.561 81.148 300.265 81.1776 299.98 81.1776C299.483 81.1776 299.021 81.0947 298.595 80.929C298.181 80.7514 297.843 80.4494 297.583 80.0232C297.322 79.597 297.192 78.999 297.192 78.2294V72.6883H295.842V71.9424L297.21 71.3208L297.831 69.2962H298.755V71.4806H301.508V72.6883H298.755V78.1939C298.755 78.7741 298.891 79.2062 299.163 79.4904C299.448 79.7627 299.809 79.8989 300.247 79.8989ZM307.161 71.303C307.978 71.303 308.677 71.4806 309.257 71.8358C309.849 72.191 310.299 72.6942 310.607 73.3454C310.926 73.9848 311.086 74.7366 311.086 75.601V76.5422H304.568C304.592 77.6197 304.864 78.4426 305.385 79.0109C305.918 79.5674 306.658 79.8456 307.605 79.8456C308.209 79.8456 308.742 79.7923 309.204 79.6858C309.677 79.5674 310.163 79.4016 310.66 79.1885V80.556C310.175 80.7691 309.695 80.923 309.221 81.0178C308.748 81.1243 308.185 81.1776 307.534 81.1776C306.634 81.1776 305.835 80.9941 305.137 80.627C304.45 80.26 303.911 79.7154 303.52 78.9931C303.142 78.259 302.952 77.3651 302.952 76.3114C302.952 75.2694 303.124 74.3755 303.467 73.6296C303.822 72.8837 304.314 72.3094 304.941 71.9069C305.581 71.5043 306.321 71.303 307.161 71.303ZM307.143 72.5818C306.398 72.5818 305.806 72.8245 305.367 73.3099C304.941 73.7835 304.687 74.4466 304.604 75.299H309.452C309.44 74.4939 309.251 73.8427 308.884 73.3454C308.517 72.8363 307.937 72.5818 307.143 72.5818Z" fill="black"/>
<rect x="255" y="53" width="71" height="42" stroke="#6584A6" stroke-width="2"/>
<g filter="url(#filter4_d_8579_33782)">
<path d="M401.5 33V52" stroke="#B3800F" stroke-width="2"/>
</g>
<path d="M370.825 68.3194C372.483 68.3194 373.691 68.645 374.448 69.2962C375.206 69.9474 375.585 70.865 375.585 72.049C375.585 72.7475 375.425 73.4046 375.105 74.0203C374.798 74.6242 374.271 75.1155 373.525 75.4944C372.791 75.8733 371.79 76.0627 370.523 76.0627H369.067V81H367.469V68.3194H370.825ZM370.683 69.6869H369.067V74.6952H370.346C371.553 74.6952 372.453 74.4998 373.045 74.1091C373.637 73.7184 373.933 73.0554 373.933 72.12C373.933 71.303 373.673 70.6933 373.152 70.2907C372.631 69.8882 371.808 69.6869 370.683 69.6869ZM382.449 71.303C382.626 71.303 382.816 71.3149 383.017 71.3386C383.23 71.3504 383.414 71.3741 383.568 71.4096L383.372 72.8482C383.218 72.8126 383.047 72.783 382.857 72.7594C382.68 72.7357 382.508 72.7238 382.342 72.7238C381.857 72.7238 381.401 72.86 380.975 73.1323C380.548 73.3928 380.205 73.7658 379.944 74.2512C379.696 74.7248 379.572 75.2813 379.572 75.9206V81H378.009V71.4806H379.287L379.465 73.2211H379.536C379.844 72.7002 380.24 72.2502 380.726 71.8714C381.211 71.4925 381.786 71.303 382.449 71.303ZM393.274 76.2226C393.274 77.7973 392.872 79.0168 392.067 79.8811C391.273 80.7454 390.196 81.1776 388.834 81.1776C387.994 81.1776 387.242 80.9882 386.579 80.6093C385.928 80.2186 385.413 79.6562 385.034 78.9221C384.655 78.1762 384.465 77.2763 384.465 76.2226C384.465 74.6478 384.862 73.4342 385.655 72.5818C386.449 71.7293 387.526 71.303 388.888 71.303C389.752 71.303 390.51 71.4984 391.161 71.8891C391.824 72.268 392.339 72.8245 392.706 73.5586C393.085 74.2808 393.274 75.1688 393.274 76.2226ZM386.082 76.2226C386.082 77.3474 386.301 78.2413 386.739 78.9043C387.189 79.5555 387.899 79.8811 388.87 79.8811C389.829 79.8811 390.533 79.5555 390.983 78.9043C391.433 78.2413 391.658 77.3474 391.658 76.2226C391.658 75.0978 391.433 74.2157 390.983 73.5763C390.533 72.937 389.823 72.6173 388.852 72.6173C387.881 72.6173 387.177 72.937 386.739 73.5763C386.301 74.2157 386.082 75.0978 386.082 76.2226ZM400.28 71.303C401.452 71.303 402.394 71.7115 403.104 72.5285C403.826 73.3454 404.187 74.5768 404.187 76.2226C404.187 77.8446 403.826 79.076 403.104 79.9166C402.394 80.7573 401.446 81.1776 400.262 81.1776C399.528 81.1776 398.919 81.0414 398.433 80.7691C397.959 80.485 397.587 80.1594 397.314 79.7923H397.208C397.231 79.9936 397.255 80.2482 397.279 80.556C397.302 80.8638 397.314 81.1302 397.314 81.3552V85.2624H395.751V71.4806H397.03L397.243 72.7771H397.314C397.598 72.3627 397.971 72.0134 398.433 71.7293C398.895 71.4451 399.511 71.303 400.28 71.303ZM399.996 72.6173C399.025 72.6173 398.338 72.8896 397.936 73.4342C397.545 73.9789 397.338 74.8077 397.314 75.9206V76.2226C397.314 77.3947 397.504 78.3005 397.883 78.9398C398.273 79.5674 398.99 79.8811 400.031 79.8811C400.612 79.8811 401.085 79.7213 401.452 79.4016C401.831 79.0819 402.109 78.6498 402.287 78.1051C402.476 77.5486 402.571 76.9152 402.571 76.2048C402.571 75.1155 402.358 74.2453 401.932 73.5941C401.517 72.9429 400.872 72.6173 399.996 72.6173ZM410.354 71.303C411.171 71.303 411.87 71.4806 412.45 71.8358C413.042 72.191 413.492 72.6942 413.8 73.3454C414.119 73.9848 414.279 74.7366 414.279 75.601V76.5422H407.761C407.785 77.6197 408.057 78.4426 408.578 79.0109C409.111 79.5674 409.851 79.8456 410.798 79.8456C411.402 79.8456 411.935 79.7923 412.397 79.6858C412.87 79.5674 413.356 79.4016 413.853 79.1885V80.556C413.367 80.7691 412.888 80.923 412.414 81.0178C411.941 81.1243 411.378 81.1776 410.727 81.1776C409.827 81.1776 409.028 80.9941 408.33 80.627C407.643 80.26 407.104 79.7154 406.713 78.9931C406.335 78.259 406.145 77.3651 406.145 76.3114C406.145 75.2694 406.317 74.3755 406.66 73.6296C407.015 72.8837 407.507 72.3094 408.134 71.9069C408.774 71.5043 409.514 71.303 410.354 71.303ZM410.336 72.5818C409.591 72.5818 408.999 72.8245 408.56 73.3099C408.134 73.7835 407.88 74.4466 407.797 75.299H412.645C412.633 74.4939 412.444 73.8427 412.077 73.3454C411.71 72.8363 411.13 72.5818 410.336 72.5818ZM421.143 71.303C421.32 71.303 421.51 71.3149 421.711 71.3386C421.924 71.3504 422.108 71.3741 422.261 71.4096L422.066 72.8482C421.912 72.8126 421.74 72.783 421.551 72.7594C421.373 72.7357 421.202 72.7238 421.036 72.7238C420.551 72.7238 420.095 72.86 419.668 73.1323C419.242 73.3928 418.899 73.7658 418.638 74.2512C418.39 74.7248 418.265 75.2813 418.265 75.9206V81H416.703V71.4806H417.981L418.159 73.2211H418.23C418.538 72.7002 418.934 72.2502 419.42 71.8714C419.905 71.4925 420.48 71.303 421.143 71.303ZM427.218 79.8989C427.455 79.8989 427.698 79.8811 427.946 79.8456C428.195 79.7982 428.396 79.7509 428.55 79.7035V80.8934C428.384 80.9763 428.147 81.0414 427.84 81.0888C427.532 81.148 427.236 81.1776 426.952 81.1776C426.454 81.1776 425.993 81.0947 425.566 80.929C425.152 80.7514 424.814 80.4494 424.554 80.0232C424.294 79.597 424.163 78.999 424.163 78.2294V72.6883H422.814V71.9424L424.181 71.3208L424.803 69.2962H425.726V71.4806H428.479V72.6883H425.726V78.1939C425.726 78.7741 425.862 79.2062 426.135 79.4904C426.419 79.7627 426.78 79.8989 427.218 79.8989ZM428.964 71.4806H430.634L432.694 76.8974C432.872 77.371 433.031 77.8269 433.173 78.265C433.316 78.6912 433.422 79.0997 433.493 79.4904H433.564C433.635 79.1944 433.748 78.8096 433.902 78.336C434.056 77.8506 434.215 77.3651 434.381 76.8797L436.317 71.4806H438.004L433.902 82.3142C433.57 83.2141 433.138 83.9304 432.605 84.4632C432.084 84.996 431.362 85.2624 430.438 85.2624C430.154 85.2624 429.906 85.2446 429.692 85.2091C429.479 85.1854 429.296 85.1558 429.142 85.1203V83.8771C429.272 83.9008 429.426 83.9245 429.604 83.9482C429.793 83.9718 429.988 83.9837 430.19 83.9837C430.734 83.9837 431.172 83.8298 431.504 83.5219C431.847 83.2141 432.114 82.8056 432.303 82.2965L432.8 81.0355L428.964 71.4806Z" fill="black"/>
<rect x="351" y="53" width="101" height="42" stroke="#B3800F" stroke-width="2"/>
<defs>
<filter id="filter0_d_8579_33782" x="38" y="33" width="4" height="19" filterUnits="userSpaceOnUse" color-interpolation-filters="sRGB">
<feFlood flood-opacity="0" result="BackgroundImageFix"/>
<feColorMatrix in="SourceAlpha" type="matrix" values="0 0 0 0 0 0 0 0 0 0 0 0 0 0 0 0 0 0 127 0" result="hardAlpha"/>
<feOffset dx="2"/>
<feComposite in2="hardAlpha" operator="out"/>
<feColorMatrix type="matrix" values="0 0 0 0 1 0 0 0 0 1 0 0 0 0 1 0 0 0 1 0"/>
<feBlend mode="normal" in2="BackgroundImageFix" result="effect1_dropShadow_8579_33782"/>
<feBlend mode="normal" in="SourceGraphic" in2="effect1_dropShadow_8579_33782" result="shape"/>
</filter>
<filter id="filter1_d_8579_33782" x="113" y="33" width="4" height="75" filterUnits="userSpaceOnUse" color-interpolation-filters="sRGB">
<feFlood flood-opacity="0" result="BackgroundImageFix"/>
<feColorMatrix in="SourceAlpha" type="matrix" values="0 0 0 0 0 0 0 0 0 0 0 0 0 0 0 0 0 0 127 0" result="hardAlpha"/>
<feOffset dx="2"/>
<feComposite in2="hardAlpha" operator="out"/>
<feColorMatrix type="matrix" values="0 0 0 0 1 0 0 0 0 1 0 0 0 0 1 0 0 0 1 0"/>
<feBlend mode="normal" in2="BackgroundImageFix" result="effect1_dropShadow_8579_33782"/>
<feBlend mode="normal" in="SourceGraphic" in2="effect1_dropShadow_8579_33782" result="shape"/>
</filter>
<filter id="filter2_d_8579_33782" x="201.5" y="33" width="4" height="19" filterUnits="userSpaceOnUse" color-interpolation-filters="sRGB">
<feFlood flood-opacity="0" result="BackgroundImageFix"/>
<feColorMatrix in="SourceAlpha" type="matrix" values="0 0 0 0 0 0 0 0 0 0 0 0 0 0 0 0 0 0 127 0" result="hardAlpha"/>
<feOffset dx="2"/>
<feComposite in2="hardAlpha" operator="out"/>
<feColorMatrix type="matrix" values="0 0 0 0 1 0 0 0 0 1 0 0 0 0 1 0 0 0 1 0"/>
<feBlend mode="normal" in2="BackgroundImageFix" result="effect1_dropShadow_8579_33782"/>
<feBlend mode="normal" in="SourceGraphic" in2="effect1_dropShadow_8579_33782" result="shape"/>
</filter>
<filter id="filter3_d_8579_33782" x="289.5" y="33" width="4" height="19" filterUnits="userSpaceOnUse" color-interpolation-filters="sRGB">
<feFlood flood-opacity="0" result="BackgroundImageFix"/>
<feColorMatrix in="SourceAlpha" type="matrix" values="0 0 0 0 0 0 0 0 0 0 0 0 0 0 0 0 0 0 127 0" result="hardAlpha"/>
<feOffset dx="2"/>
<feComposite in2="hardAlpha" operator="out"/>
<feColorMatrix type="matrix" values="0 0 0 0 1 0 0 0 0 1 0 0 0 0 1 0 0 0 1 0"/>
<feBlend mode="normal" in2="BackgroundImageFix" result="effect1_dropShadow_8579_33782"/>
<feBlend mode="normal" in="SourceGraphic" in2="effect1_dropShadow_8579_33782" result="shape"/>
</filter>
<filter id="filter4_d_8579_33782" x="400.5" y="33" width="4" height="19" filterUnits="userSpaceOnUse" color-interpolation-filters="sRGB">
<feFlood flood-opacity="0" result="BackgroundImageFix"/>
<feColorMatrix in="SourceAlpha" type="matrix" values="0 0 0 0 0 0 0 0 0 0 0 0 0 0 0 0 0 0 127 0" result="hardAlpha"/>
<feOffset dx="2"/>
<feComposite in2="hardAlpha" operator="out"/>
<feColorMatrix type="matrix" values="0 0 0 0 1 0 0 0 0 1 0 0 0 0 1 0 0 0 1 0"/>
<feBlend mode="normal" in2="BackgroundImageFix" result="effect1_dropShadow_8579_33782"/>
<feBlend mode="normal" in="SourceGraphic" in2="effect1_dropShadow_8579_33782" result="shape"/>
</filter>
</defs>
</svg>
