<svg width="343" height="187" viewBox="0 0 343 187" fill="none" xmlns="http://www.w3.org/2000/svg">
<g opacity="0.25">
<rect x="13" y="105" width="320" height="20" fill="#A8ADB4"/>
<rect x="13" y="129" width="320" height="20" fill="#A8ADB4"/>
<rect x="13" y="153" width="175" height="20" fill="#A8ADB4"/>
</g>
<path d="M214.018 44.1815C205.697 30.0618 190.18 20.6249 172.5 20.6249C168.299 20.6249 164.221 21.1589 160.333 22.1609L152.545 11.511C151.424 9.90869 149.216 9.51882 147.613 10.6403L145.678 11.9947C144.075 13.1164 143.686 15.3248 144.807 16.9274L151.172 25.5447C143.2 29.4392 135.937 35.7777 130.986 44.1741C130.985 44.1767 130.983 44.179 130.981 44.1815C129.688 46.3766 129.658 49.1292 130.981 51.3739C136.663 61.0149 145.7 68.4716 156.49 72.2327L138.163 46.0514C139.404 44.1709 140.8 42.3982 142.338 40.7519L159.958 65.9242H159.96L165.955 74.4892C169.817 75.0126 173.729 75.0706 177.604 74.6618L149.569 34.6115C151.389 33.3999 153.302 32.3358 155.292 31.4295L192.455 84.0444C193.576 85.6467 195.785 86.0365 197.387 84.9151L199.322 83.5607C200.925 82.439 201.315 80.2305 200.193 78.6281L193.83 70.0134L193.829 70.0121C202.264 65.8834 209.299 59.3812 214.018 51.3739C214.661 50.2846 215 49.0427 215 47.7777C215 46.5127 214.661 45.2709 214.018 44.1815ZM187.556 61.05L184.742 57.0317C188.385 52.2258 188.832 45.7644 186.041 40.5512V40.5556C186.041 44.0456 183.212 46.8745 179.722 46.8745C176.206 46.8745 173.403 44.0192 173.403 40.5556C173.403 37.0656 176.232 34.2367 179.722 34.2367H179.727C176.074 32.2815 171.828 31.9283 167.993 33.1033L165.179 29.084C167.447 28.1961 169.916 27.7082 172.5 27.7082C183.592 27.7082 192.569 36.6843 192.569 47.7776C192.569 52.8694 190.676 57.5135 187.556 61.05Z" fill="#2B4380"/>
<rect x="1" y="1" width="341" height="185" stroke="#7D828B" stroke-width="2" stroke-dasharray="6 6"/>
</svg>
