<svg width="400" height="300" viewBox="0 0 400 300" fill="none" xmlns="http://www.w3.org/2000/svg">
<rect width="400" height="300" fill="#F1F2F3"/>
<path d="M190 159.25C189.648 159.25 189.336 159.133 189.102 158.898C188.594 158.43 188.594 157.609 189.102 157.141L195.703 150.5L189.102 143.898C188.594 143.43 188.594 142.609 189.102 142.141C189.57 141.633 190.391 141.633 190.859 142.141L198.359 149.641C198.867 150.109 198.867 150.93 198.359 151.398L190.859 158.898C190.625 159.133 190.312 159.25 190 159.25Z" fill="#7D828B"/>
<rect x="80" y="140" width="100" height="20" rx="10" fill="#A8ADB4" fill-opacity="0.75"/>
<rect x="220" y="140" width="100" height="20" rx="10" fill="#A8ADB4" fill-opacity="0.75"/>
</svg>
