<svg width="121" height="85" viewBox="0 0 121 85" fill="none" xmlns="http://www.w3.org/2000/svg">
<path d="M19.4191 37.931L15.8511 28.1798C15.6754 27.7473 15.493 27.2337 15.3038 26.639C15.1145 26.0444 14.9253 25.4024 14.7361 24.7131C14.5604 25.4024 14.378 26.0511 14.1888 26.6593C13.9995 27.254 13.8171 27.7743 13.6414 28.2203L10.0936 37.931H19.4191ZM29.0488 49H24.832C24.359 49 23.9738 48.8851 23.6765 48.6554C23.3791 48.4121 23.1561 48.1148 23.0074 47.7634L20.818 41.7829H8.67453L6.48506 47.7634C6.37694 48.0742 6.16745 48.358 5.8566 48.6148C5.54575 48.8716 5.16057 49 4.70105 49H0.443747L11.979 19.6854H17.5338L29.0488 49ZM42.2803 40.1205C40.8342 40.1881 39.6178 40.3165 38.6312 40.5057C37.6446 40.6814 36.8539 40.9111 36.2592 41.1949C35.6646 41.4788 35.2388 41.8099 34.9821 42.1883C34.7253 42.5667 34.5969 42.979 34.5969 43.425C34.5969 44.3035 34.8537 44.9319 35.3672 45.3103C35.8943 45.6888 36.5769 45.878 37.4148 45.878C38.442 45.878 39.3272 45.6955 40.0705 45.3306C40.8274 44.9522 41.564 44.3845 42.2803 43.6277V40.1205ZM30.8058 31.0991C33.198 28.9096 36.0768 27.8149 39.4421 27.8149C40.6585 27.8149 41.7464 28.0176 42.706 28.423C43.6656 28.815 44.4765 29.3691 45.1388 30.0854C45.801 30.7882 46.3011 31.6329 46.639 32.6195C46.9904 33.6061 47.166 34.6874 47.166 35.8632V49H44.8955C44.4225 49 44.0575 48.9324 43.8008 48.7973C43.544 48.6486 43.3412 48.358 43.1926 47.9255L42.7466 46.4253C42.2195 46.8984 41.7059 47.3174 41.2058 47.6823C40.7058 48.0337 40.1854 48.331 39.6448 48.5743C39.1042 48.8175 38.5231 49 37.9013 49.1216C37.2932 49.2568 36.6174 49.3244 35.8741 49.3244C34.9956 49.3244 34.1847 49.2095 33.4413 48.9797C32.698 48.7365 32.056 48.3783 31.5154 47.9053C30.9748 47.4322 30.5558 46.8443 30.2585 46.1415C29.9611 45.4387 29.8125 44.6211 29.8125 43.6885C29.8125 43.1614 29.9003 42.6411 30.076 42.1275C30.2517 41.6004 30.5355 41.1003 30.9275 40.6273C31.3329 40.1543 31.8533 39.7083 32.4885 39.2893C33.1237 38.8703 33.9008 38.5054 34.8199 38.1946C35.7524 37.8837 36.8336 37.6337 38.0635 37.4445C39.2934 37.2417 40.699 37.1201 42.2803 37.0796V35.8632C42.2803 34.4711 41.983 33.444 41.3883 32.7817C40.7936 32.1059 39.9354 31.7681 38.8136 31.7681C38.0027 31.7681 37.327 31.8627 36.7863 32.0519C36.2592 32.2411 35.793 32.4573 35.3875 32.7006C34.9821 32.9304 34.6104 33.1399 34.2725 33.3291C33.9481 33.5183 33.5832 33.6129 33.1778 33.6129C32.8264 33.6129 32.529 33.525 32.2858 33.3493C32.0425 33.1601 31.8465 32.9439 31.6979 32.7006L30.8058 31.0991Z" fill="black"/>
<path d="M7.36675 72H5.20675V59.58H0.926748V57.72H11.6467V59.58H7.36675V72ZM11.5657 61.22H13.8457L16.0857 67.34C16.2057 67.6467 16.3123 67.9467 16.4057 68.24C16.499 68.5333 16.579 68.8267 16.6457 69.12C16.7257 69.4 16.7857 69.68 16.8257 69.96H16.9057C16.9723 69.6133 17.079 69.2067 17.2257 68.74C17.3723 68.26 17.5257 67.7867 17.6857 67.32L19.8057 61.22H22.0857L17.4657 73.46C17.2123 74.1533 16.899 74.7467 16.5257 75.24C16.1523 75.7467 15.7057 76.1333 15.1857 76.4C14.679 76.6667 14.079 76.8 13.3857 76.8C13.0523 76.8 12.7657 76.78 12.5257 76.74C12.2857 76.7133 12.079 76.68 11.9057 76.64V74.96C12.0523 74.9867 12.2257 75.0133 12.4257 75.04C12.639 75.0667 12.859 75.08 13.0857 75.08C13.499 75.08 13.8523 75 14.1457 74.84C14.4523 74.68 14.7057 74.4533 14.9057 74.16C15.119 73.8667 15.299 73.5333 15.4457 73.16L15.8857 72L11.5657 61.22ZM29.1325 61.02C30.4259 61.02 31.4659 61.4867 32.2525 62.42C33.0525 63.3533 33.4525 64.7467 33.4525 66.6C33.4525 67.8133 33.2725 68.84 32.9125 69.68C32.5525 70.52 32.0459 71.1533 31.3925 71.58C30.7392 71.9933 29.9792 72.2 29.1125 72.2C28.5659 72.2 28.0859 72.1333 27.6725 72C27.2592 71.8533 26.9059 71.6667 26.6125 71.44C26.3325 71.2 26.0859 70.9467 25.8725 70.68H25.7325C25.7725 70.92 25.8059 71.2067 25.8325 71.54C25.8592 71.86 25.8725 72.1467 25.8725 72.4V76.8H23.7525V61.22H25.4725L25.7725 62.66H25.8725C26.0859 62.3667 26.3392 62.0933 26.6325 61.84C26.9259 61.5867 27.2792 61.3867 27.6925 61.24C28.1059 61.0933 28.5859 61.02 29.1325 61.02ZM28.6325 62.76C27.9659 62.76 27.4325 62.8933 27.0325 63.16C26.6325 63.4133 26.3392 63.8 26.1525 64.32C25.9792 64.8267 25.8859 65.4733 25.8725 66.26V66.58C25.8725 67.4067 25.9592 68.1133 26.1325 68.7C26.3059 69.2733 26.5925 69.7133 26.9925 70.02C27.4059 70.3133 27.9659 70.46 28.6725 70.46C29.2725 70.46 29.7592 70.3 30.1325 69.98C30.5192 69.6467 30.8059 69.1867 30.9925 68.6C31.1792 68.0133 31.2725 67.3333 31.2725 66.56C31.2725 65.3867 31.0592 64.46 30.6325 63.78C30.2059 63.1 29.5392 62.76 28.6325 62.76ZM45.6549 66.6C45.6549 67.4933 45.5349 68.2867 45.2949 68.98C45.0549 69.6733 44.7149 70.26 44.2749 70.74C43.8349 71.22 43.3015 71.5867 42.6749 71.84C42.0482 72.08 41.3415 72.2 40.5549 72.2C39.8349 72.2 39.1682 72.08 38.5549 71.84C37.9415 71.5867 37.4082 71.22 36.9549 70.74C36.5149 70.26 36.1682 69.6733 35.9149 68.98C35.6615 68.2867 35.5349 67.4867 35.5349 66.58C35.5349 65.3933 35.7349 64.3867 36.1349 63.56C36.5482 62.7333 37.1349 62.1067 37.8949 61.68C38.6682 61.24 39.5749 61.02 40.6149 61.02C41.6015 61.02 42.4682 61.24 43.2149 61.68C43.9749 62.1067 44.5682 62.7333 44.9949 63.56C45.4349 64.3867 45.6549 65.4 45.6549 66.6ZM37.7149 66.6C37.7149 67.4 37.8149 68.0933 38.0149 68.68C38.2149 69.2533 38.5282 69.6933 38.9549 70C39.3815 70.3067 39.9282 70.46 40.5949 70.46C41.2615 70.46 41.8082 70.3067 42.2349 70C42.6615 69.6933 42.9749 69.2533 43.1749 68.68C43.3749 68.0933 43.4749 67.4 43.4749 66.6C43.4749 65.7733 43.3682 65.08 43.1549 64.52C42.9549 63.96 42.6415 63.5333 42.2149 63.24C41.8015 62.9333 41.2549 62.78 40.5749 62.78C39.5749 62.78 38.8482 63.1133 38.3949 63.78C37.9415 64.4467 37.7149 65.3867 37.7149 66.6ZM52.0624 61.02C52.7557 61.02 53.3824 61.1533 53.9424 61.42C54.5024 61.6867 54.9757 62.0933 55.3624 62.64H55.4624L55.7024 61.22H57.4224V72.14C57.4224 73.1533 57.2424 74.0067 56.8824 74.7C56.5224 75.3933 55.969 75.9133 55.2224 76.26C54.489 76.62 53.5624 76.8 52.4424 76.8C51.669 76.8 50.9557 76.7467 50.3024 76.64C49.649 76.5333 49.049 76.3667 48.5024 76.14V74.28C48.889 74.4667 49.2957 74.62 49.7224 74.74C50.149 74.8733 50.6024 74.9667 51.0824 75.02C51.5624 75.0867 52.0557 75.12 52.5624 75.12C53.4424 75.12 54.1224 74.8667 54.6024 74.36C55.0824 73.8667 55.3224 73.1667 55.3224 72.26V71.9C55.3224 71.7267 55.329 71.5 55.3424 71.22C55.3557 70.9267 55.369 70.7133 55.3824 70.58H55.3024C54.929 71.14 54.469 71.5533 53.9224 71.82C53.389 72.0733 52.769 72.2 52.0624 72.2C50.7024 72.2 49.6357 71.7133 48.8624 70.74C48.1024 69.7533 47.7224 68.3867 47.7224 66.64C47.7224 65.4667 47.8957 64.4667 48.2424 63.64C48.589 62.8 49.0824 62.1533 49.7224 61.7C50.3757 61.2467 51.1557 61.02 52.0624 61.02ZM52.5024 62.78C51.9424 62.78 51.469 62.9333 51.0824 63.24C50.6957 63.5333 50.4024 63.9667 50.2024 64.54C50.0024 65.1133 49.9024 65.82 49.9024 66.66C49.9024 67.9133 50.1224 68.8667 50.5624 69.52C51.0157 70.1733 51.6757 70.5 52.5424 70.5C53.049 70.5 53.4757 70.4333 53.8224 70.3C54.1824 70.1667 54.4757 69.96 54.7024 69.68C54.9424 69.4 55.1157 69.0467 55.2224 68.62C55.3424 68.18 55.4024 67.6533 55.4024 67.04V66.64C55.4024 65.72 55.2957 64.98 55.0824 64.42C54.8824 63.8467 54.569 63.4333 54.1424 63.18C53.7157 62.9133 53.169 62.78 52.5024 62.78ZM66.0647 61.02C66.2514 61.02 66.4581 61.0333 66.6847 61.06C66.9114 61.0733 67.0981 61.0933 67.2447 61.12L67.0247 63.1C66.8781 63.06 66.7047 63.0267 66.5047 63C66.3047 62.9733 66.1181 62.96 65.9447 62.96C65.5447 62.96 65.1581 63.04 64.7847 63.2C64.4247 63.3467 64.0981 63.5667 63.8047 63.86C63.5114 64.14 63.2781 64.4867 63.1047 64.9C62.9447 65.3133 62.8647 65.7867 62.8647 66.32V72H60.7447V61.22H62.4247L62.7047 63.14H62.7847C63.0114 62.7533 63.2847 62.4 63.6047 62.08C63.9247 61.76 64.2914 61.5067 64.7047 61.32C65.1181 61.12 65.5714 61.02 66.0647 61.02ZM73.0302 61.02C74.3902 61.02 75.4035 61.32 76.0702 61.92C76.7369 62.5067 77.0702 63.4333 77.0702 64.7V72H75.5702L75.1502 70.5H75.0702C74.7635 70.8867 74.4435 71.2067 74.1102 71.46C73.7902 71.7133 73.4169 71.9 72.9902 72.02C72.5769 72.14 72.0702 72.2 71.4702 72.2C70.8302 72.2 70.2502 72.0867 69.7302 71.86C69.2235 71.62 68.8235 71.26 68.5302 70.78C68.2369 70.2867 68.0902 69.6733 68.0902 68.94C68.0902 67.8467 68.5035 67.0133 69.3302 66.44C70.1702 65.8667 71.4435 65.5533 73.1502 65.5L74.9902 65.44V64.84C74.9902 64.04 74.8102 63.48 74.4502 63.16C74.0902 62.84 73.5835 62.68 72.9302 62.68C72.3702 62.68 71.8369 62.76 71.3302 62.92C70.8235 63.08 70.3435 63.2733 69.8902 63.5L69.2102 61.96C69.7169 61.6933 70.2969 61.4733 70.9502 61.3C71.6169 61.1133 72.3102 61.02 73.0302 61.02ZM73.5302 66.86C72.3035 66.9133 71.4502 67.12 70.9702 67.48C70.5035 67.8267 70.2702 68.32 70.2702 68.96C70.2702 69.52 70.4369 69.9267 70.7702 70.18C71.1169 70.4333 71.5502 70.56 72.0702 70.56C72.9102 70.56 73.6035 70.3267 74.1502 69.86C74.6969 69.3933 74.9702 68.6933 74.9702 67.76V66.82L73.5302 66.86ZM85.7146 61.02C87.0079 61.02 88.0479 61.4867 88.8346 62.42C89.6346 63.3533 90.0346 64.7467 90.0346 66.6C90.0346 67.8133 89.8546 68.84 89.4946 69.68C89.1346 70.52 88.6279 71.1533 87.9746 71.58C87.3212 71.9933 86.5612 72.2 85.6946 72.2C85.1479 72.2 84.6679 72.1333 84.2546 72C83.8412 71.8533 83.4879 71.6667 83.1946 71.44C82.9146 71.2 82.6679 70.9467 82.4546 70.68H82.3146C82.3546 70.92 82.3879 71.2067 82.4146 71.54C82.4412 71.86 82.4546 72.1467 82.4546 72.4V76.8H80.3346V61.22H82.0546L82.3546 62.66H82.4546C82.6679 62.3667 82.9212 62.0933 83.2146 61.84C83.5079 61.5867 83.8612 61.3867 84.2746 61.24C84.6879 61.0933 85.1679 61.02 85.7146 61.02ZM85.2146 62.76C84.5479 62.76 84.0146 62.8933 83.6146 63.16C83.2146 63.4133 82.9212 63.8 82.7346 64.32C82.5612 64.8267 82.4679 65.4733 82.4546 66.26V66.58C82.4546 67.4067 82.5412 68.1133 82.7146 68.7C82.8879 69.2733 83.1746 69.7133 83.5746 70.02C83.9879 70.3133 84.5479 70.46 85.2546 70.46C85.8546 70.46 86.3412 70.3 86.7146 69.98C87.1012 69.6467 87.3879 69.1867 87.5746 68.6C87.7612 68.0133 87.8546 67.3333 87.8546 66.56C87.8546 65.3867 87.6412 64.46 87.2146 63.78C86.7879 63.1 86.1212 62.76 85.2146 62.76ZM94.8569 60.86C94.8569 61.1933 94.8436 61.5267 94.8169 61.86C94.7902 62.1933 94.7636 62.4667 94.7369 62.68H94.8769C95.1036 62.3067 95.3836 62 95.7169 61.76C96.0636 61.52 96.4436 61.34 96.8569 61.22C97.2836 61.1 97.7169 61.04 98.1569 61.04C99.0102 61.04 99.7236 61.18 100.297 61.46C100.884 61.7267 101.324 62.1533 101.617 62.74C101.924 63.3133 102.077 64.06 102.077 64.98V72H99.9769V65.28C99.9769 64.44 99.7969 63.8133 99.4369 63.4C99.0902 62.9733 98.5302 62.76 97.7569 62.76C97.0236 62.76 96.4436 62.9067 96.0169 63.2C95.6036 63.4933 95.3036 63.9267 95.1169 64.5C94.9436 65.06 94.8569 65.7533 94.8569 66.58V72H92.7369V56.8H94.8569V60.86ZM107.455 61.22V72H105.335V61.22H107.455ZM106.415 57.12C106.735 57.12 107.015 57.2133 107.255 57.4C107.495 57.5867 107.615 57.9 107.615 58.34C107.615 58.7667 107.495 59.08 107.255 59.28C107.015 59.4667 106.735 59.56 106.415 59.56C106.068 59.56 105.775 59.4667 105.535 59.28C105.308 59.08 105.195 58.7667 105.195 58.34C105.195 57.9 105.308 57.5867 105.535 57.4C105.775 57.2133 106.068 57.12 106.415 57.12ZM115.024 61.02C115.97 61.02 116.784 61.22 117.464 61.62C118.144 62.0067 118.664 62.5667 119.024 63.3C119.397 64.0333 119.584 64.9 119.584 65.9V67.06H112.344C112.37 68.1667 112.657 69.0133 113.204 69.6C113.764 70.1867 114.544 70.48 115.544 70.48C116.237 70.48 116.85 70.42 117.384 70.3C117.93 70.1667 118.49 69.9733 119.064 69.72V71.48C118.53 71.72 117.984 71.9 117.424 72.02C116.877 72.14 116.224 72.2 115.464 72.2C114.424 72.2 113.504 71.9933 112.704 71.58C111.904 71.1667 111.277 70.5533 110.824 69.74C110.384 68.9133 110.164 67.9 110.164 66.7C110.164 65.4867 110.364 64.46 110.764 63.62C111.177 62.78 111.744 62.14 112.464 61.7C113.197 61.2467 114.05 61.02 115.024 61.02ZM115.024 62.66C114.264 62.66 113.65 62.9067 113.184 63.4C112.73 63.8933 112.464 64.5933 112.384 65.5H117.464C117.464 64.94 117.377 64.4467 117.204 64.02C117.03 63.5933 116.764 63.26 116.404 63.02C116.044 62.78 115.584 62.66 115.024 62.66Z" fill="black"/>
<line x1="120.667" y1="0.5" x2="0.666748" y2="0.5" stroke="#6584A6"/>
<line x1="120.667" y1="24.5" x2="0.666748" y2="24.5" stroke="#6584A6"/>
<line x1="120.667" y1="49" x2="0.666748" y2="49" stroke="#6584A6" stroke-width="2"/>
<line x1="120.667" y1="72.5" x2="0.666748" y2="72.5" stroke="#6584A6"/>
</svg>
